<svg id="Ebene_1" data-name="Ebene 1" xmlns="http://www.w3.org/2000/svg" viewBox="0 0 50 58"><defs><style>.cls-1{fill:#fff;}.cls-2{fill:none;stroke:#000;stroke-width:1.5px;}.cls-3{fill-rule:evenodd;}</style></defs><path class="cls-1" d="M25,57.51385C23.05371,55.02264,9.68359,37.75409,6.749,29.95331,5.18164,25.78729,4.752,23.759,4.752,20.51727a20.24807,20.24807,0,0,1,40.4961,0c0,3.2417-.42969,5.27-1.99707,9.436C40.31641,37.75409,26.94629,55.02264,25,57.51385Z"/><path d="M25,.6h0A19.95517,19.95517,0,0,1,44.94759,20.5172c0,3.23723-.40644,5.15553-1.97676,9.32994C40.119,37.4282,27.59589,53.69746,25.00046,57.02634,22.40282,53.68689,9.84961,37.3448,7.02917,29.84714c-1.57032-4.17441-1.97676-6.09271-1.97676-9.32994A19.95517,19.95517,0,0,1,25,.6M25,0A20.53254,20.53254,0,0,0,4.45242,20.5172c0,3.35009.45592,5.3962,2.01517,9.54119C9.6714,38.57519,24.99989,58,24.99989,58c.00022,0,15.32871-19.42481,18.53252-27.94161,1.55925-4.145,2.01517-6.1911,2.01517-9.54119A20.53254,20.53254,0,0,0,25,0Z"/><g id="E800_navigation_business" data-name="E800 navigation business"><path class="cls-2" d="M15.64016,35.35867V6.64785H34.32381l.036,28.71082"/><path class="cls-2" d="M13.04672,35.34324H36.95118"/><path class="cls-2" d="M22.81566,35.35867V28.84956H27.156v6.50911"/><path class="cls-3" d="M27.00989,23.9843V21.0312H29.963v2.9531Zm0-12.97691H29.963v2.92474H27.00989ZM20.00867,21.03121h2.95309V23.9843H20.00867Zm0-10.02382h2.95309v2.92474H20.00867Z"/></g></svg>