<svg id="Ebene_1" data-name="Ebene 1" xmlns="http://www.w3.org/2000/svg" viewBox="0 0 50 58"><defs><style>.cls-1{fill:#fff;}.cls-2{fill:#1d1d1b;}.cls-3{fill:none;stroke:#000;stroke-miterlimit:10;stroke-width:1.5px;}</style></defs><path class="cls-1" d="M25,57.51385C23.05371,55.02264,9.68359,37.75409,6.749,29.95331,5.18164,25.78729,4.752,23.759,4.752,20.51727a20.24807,20.24807,0,0,1,40.4961,0c0,3.2417-.42969,5.27-1.99707,9.436C40.31641,37.75409,26.94629,55.02264,25,57.51385Z"/><path class="cls-2" d="M25,.6h0A19.95517,19.95517,0,0,1,44.94759,20.5172c0,3.23723-.40644,5.15553-1.97676,9.32994C40.119,37.4282,27.59589,53.69746,25.00046,57.02634,22.40282,53.68689,9.84961,37.3448,7.02917,29.84714c-1.57032-4.17441-1.97676-6.09271-1.97676-9.32994A19.95517,19.95517,0,0,1,25,.6M25,0A20.53254,20.53254,0,0,0,4.45242,20.5172c0,3.35009.45592,5.3962,2.01517,9.54119C9.6714,38.57519,24.99989,58,24.99989,58c.00022,0,15.32871-19.42481,18.53252-27.94161,1.55925-4.145,2.01517-6.1911,2.01517-9.54119A20.53254,20.53254,0,0,0,25,0Z"/><path class="cls-3" d="M12.58788,18.71547V33.37121H37.3044V18.71547"/><path class="cls-3" d="M40.06709,20.59125,25.43953,8.69885,9.93291,20.59125"/><path class="cls-3" d="M22.27879,33.11114v-9.85h5.44242v9.85"/></svg>