<?xml version="1.0" encoding="UTF-8"?>
<svg id="d0_t15_1p0_2p1020_1s1" data-name="d0 t15 1p0 2p1020 1s1" xmlns="http://www.w3.org/2000/svg" viewBox="0 0 44 44">
  <defs>
    <style>
      .cls-1, .cls-2 {
        fill: #00f300;
      }

      .cls-2 {
        opacity: .5;
      }

      .cls-3 {
        fill: #010101;
      }
    </style>
  </defs>
  <circle id="Hintergrund" class="cls-3" cx="22" cy="22" r="19.99989"/>
  <path id="Piktogramm_linkesAuto" data-name="Piktogramm linkesAuto" class="cls-1" d="M12.22751,17.73077c-.26549,.00005-.50581,.15716-.61237,.40033l-1.05492,2.42551c-.07487,.17116-.1689,.33328-.28029,.48325l-.16025,.2127c-.10398,.13855-.16034,.30702-.16067,.48025v1.73455c.00004,.36816,.29848,.66661,.66665,.66665h9.87392c.36824,0,.66681-.29841,.667-.66665v-1.73455c-.00036-.17317-.05659-.34159-.16033-.48025l-.16067-.2127c-.11136-.14999-.20539-.31211-.28029-.48325l-1.05494-2.42551c-.1065-.24318-.3468-.4003-.61228-.40033h-6.67056Zm.16125,.66664h6.348c.10641-.00023,.20278,.06278,.24525,.16034l.91664,2.10783H11.22687l.91673-2.10783c.0423-.09766,.13873-.16073,.24516-.16034Zm6.5093,6.00391h1.60186v1.46757c-.00036,.22108-.17959,.40016-.40067,.40034h-.8006c-.2211-.00009-.40036-.17924-.40059-.40034v-1.46757Zm-8.27207,0h1.60152v1.46757c-.0002,.22102-.17932,.40014-.40034,.40034h-.80093c-.22099-.00024-.40006-.17935-.40025-.40034"/>
  <path id="Piktogramm_rechtesAuto" data-name="Piktogramm rechtesAuto" class="cls-2" d="M25.10193,17.73077c-.26524,.00009-.50525,.15725-.61137,.40033l-1.05583,2.42551c-.07493,.17113-.16896,.33324-.28029,.48325l-.16067,.2127c-.10345,.13874-.15933,.30718-.15934,.48025v1.73455c-.00015,.36803,.29806,.6665,.66609,.66665h9.87384c.36816-.00004,.66661-.29849,.66665-.66665v-1.73455c.00014-.17331-.05627-.34192-.16067-.48025l-.15933-.2127c-.11165-.14999-.20602-.3121-.2813-.48325l-1.05485-2.42551c-.10612-.24309-.34613-.40025-.61137-.40033h-6.67156Zm.16134,.66664h6.34888c.10612-.00011,.20214,.06293,.24425,.16034l.91764,2.10783h-8.67266l.91664-2.10783c.04283-.09726,.13898-.16012,.24525-.16034Zm6.51022,6.00391h1.60051v1.46757c-.00019,.22099-.17927,.40011-.40026,.40034h-.80059c-.22087-.00014-.39981-.1793-.39967-.40017v-1.46774Zm-8.27207,0h1.60052v1.46757c-.00023,.2211-.17948,.40025-.40058,.40034h-.79968c-.22099-.00024-.40007-.17935-.40026-.40034"/>
  <path class="cls-1" d="M22,3.09C11.56182,3.09,3.1,11.55182,3.1,21.99s8.46182,18.9,18.9,18.9,18.9-8.46182,18.9-18.9S32.43818,3.09,22,3.09Zm0,32.9c-7.73199,0-14-6.26801-14-14S14.26801,7.99,22,7.99s14,6.26801,14,14-6.26801,14-14,14Z"/>
</svg>