<svg xmlns="http://www.w3.org/2000/svg" viewBox="0 0 44 44"><g id="d0_t15_1p0_2p1021_1s1"><path id="Hintergrund" d="M41.96681,21.99988A19.96668,19.96668,0,1,1,22.00013,2.03319,19.96661,19.96661,0,0,1,41.96681,21.99988Z" fill="#010101"/><path id="Piktogramm" d="M9.97436,16.72485c-.01789,0-.03577.00091-.05366.00224l-.01589.001-.04035.00449-.01431.002-.0074.00125-.03711.00682-.03186.00749-.01073.00291a.82247.82247,0,0,0-.54459.46739L7.9153,20.217a2.98608,2.98608,0,0,1-.34776.596l-.19725.26389a.98506.98506,0,0,0-.19859.59376v2.14226a.82453.82453,0,0,0,.82446.82446H20.17051a.81535.81535,0,0,0,.18785-.01656l.00516-.001.0322-.00749.01239-.00324.02238-.00649.0228-.00716.013-.00424.02762-.0104.00782-.00291.03244-.014.001-.00033.00033-.00033a.82389.82389,0,0,0,.48128-.70192c.001-.016.00167-.03219.00167-.04842V21.67068a.981.981,0,0,0-.19825-.59376l-.20375-.27105a2.932,2.932,0,0,1-.18036-.273c-.01015-.01722-.01989-.03478-.02962-.05233l-.0114-.02013c-.01073-.01947-.02113-.03969-.03153-.05949l-.012-.023-.01531-.0312q-.03169-.0639-.06039-.1297l-.13753-.31622-.02138-.049-1.14525-2.63136a.8231.8231,0,0,0-.69484-.493c-.0198-.00166-.03994-.00224-.06007-.00224H9.97436Zm.1995.82445H18.0166a.32971.32971,0,0,1,.28952.17255l.00358.00715.00907.01881.77021,1.77146.001-.00092.36264.83261H8.73875l.20666-.47354L8.94283,19.88l.92878-2.13219a.32844.32844,0,0,1,.30225-.1985Zm-2.1777,7.41729v1.81273a.50191.50191,0,0,0,.01007.09975.49529.49529,0,0,0,.48427.39584H9.48a.49527.49527,0,0,0,.49434-.49559V24.96659Zm10.21961,0v.18586l.001-.00125v1.3594l-.001.00091v.26781a.49671.49671,0,0,0,.298.455l.00033-.00034a.49385.49385,0,0,0,.19592.04094h.9896a.49177.49177,0,0,0,.1599-.02729.461.461,0,0,0,.05133-.0208l.00258-.00133a.45633.45633,0,0,0,.04684-.026l.00191-.001a.49437.49437,0,0,0,.12355-.11048c.01131-.014.02138-.02895.03119-.04384l.00292-.00524c.0084-.01365.01622-.02762.02338-.04227l.00357-.0074c.00649-.014.01265-.02829.01789-.04326l.00224-.00549-.00033.00025a.499.499,0,0,0,.02729-.16115V24.96659Zm7.56879-8.24174c-.01789,0-.03577.00091-.05366.00224l-.01589.001-.04035.00449-.01431.002-.0074.00125-.03744.00682-.03153.00749-.011.00291a.82261.82261,0,0,0-.54434.46739L23.7255,20.217a2.971,2.971,0,0,1-.34809.596l-.19725.2639a.98692.98692,0,0,0-.19825.59376v2.14225a.82452.82452,0,0,0,.82445.82446H35.98071a.81762.81762,0,0,0,.18786-.01655l.00524-.001.03211-.00749.01239-.00324.02238-.00649.0228-.00716.013-.00424.02729-.0104.00815-.00291.03245-.014.001-.00033.00034-.00033a.82391.82391,0,0,0,.48128-.70192c.001-.016.00166-.03219.00166-.04841V21.67068a.97916.97916,0,0,0-.19859-.59376l-.20341-.27105a2.93071,2.93071,0,0,1-.18036-.273l-.02962-.05233-.0114-.02013c-.01064-.01947-.021-.03968-.03144-.05949l-.01206-.023-.01531-.0312q-.03157-.06389-.0604-.1297l-.13752-.31622-.02138-.049-1.14526-2.63136a.82308.82308,0,0,0-.69476-.493c-.01988-.00166-.04-.00225-.06015-.00225H25.78456v-.00033Zm.19917.82445h7.84308a.32909.32909,0,0,1,.28918.17255l.00391.00715.00882.01881.77046,1.77146.001-.00092.36231.83261H24.549l.2064-.47354L24.753,19.88l.92878-2.13219a.328.328,0,0,1,.30192-.1985Zm-2.17737,7.41729v1.81273a.50191.50191,0,0,0,.01007.09975.49529.49529,0,0,0,.48427.39584h.98952a.49527.49527,0,0,0,.49434-.49559V24.96659Zm10.21961,0v.18586l.001-.00125v1.3594l-.001.00091v.26781a.49671.49671,0,0,0,.298.455l.00033-.00034a.494.494,0,0,0,.196.04094h.98952a.50549.50549,0,0,0,.21123-.04809l.00258-.00133a.45633.45633,0,0,0,.04684-.026l.00158-.001a.48981.48981,0,0,0,.12388-.11048.53451.53451,0,0,0,.0312-.04384l.00291-.00524c.0084-.01365.01622-.02762.02338-.04227l.00357-.0074c.00649-.014.01232-.02829.01789-.04326l.00225-.00549-.00034.00025a.49872.49872,0,0,0,.02729-.16115V24.96659H34.026Z" fill="#00f300"/><path id="Rahmen" d="M21.99979,2.70333A19.29655,19.29655,0,1,0,41.29642,21.99987,19.30438,19.30438,0,0,0,21.99979,2.70333Zm0,.99833A18.218,18.218,0,0,1,32.37215,6.92154L6.92145,32.37223A18.30254,18.30254,0,0,1,21.99979,3.70166ZM32.975,7.35406q.30174.22664.59342.46539l-25.749,25.749q-.23835-.292-.46539-.59343Zm1.15274.94143q.28079.2486.5515.50766L8.80306,34.67888q-.2593-.27-.50756-.55116Zm1.0688,1.02563q.25981.27.508.55116L9.87228,35.70451q-.28078-.24859-.55116-.50791Zm.98411,1.11014q.23835.292.46531.59343L11.02494,36.646q-.30174-.22676-.59368-.46539L36.18063,10.43126Zm.89792,1.19659a18.30243,18.30243,0,0,1-25.4507,25.45036Z" fill="#00f300" stroke="#010101" stroke-miterlimit="10" stroke-width="0.25"/></g></svg>