<?xml version="1.0" encoding="UTF-8"?>
<svg id="Layer_1" data-name="Layer 1" xmlns="http://www.w3.org/2000/svg" viewBox="0 0 44 44">
  <defs>
    <style>
      .cls-1 {
        fill: #00f300;
      }
    </style>
  </defs>
  <path class="cls-1" d="M30.29923,10.65h2.6582s6.27124,22.70001,6.27124,22.70001h-8.92944V10.65m-1.5-1.5v25.70001s12.40002,0,12.40002,0l-7.10004-25.70001h-5.29999Z"/>
  <polygon class="cls-1" points="20.39923 9.04999 25.69922 9.04999 25.69922 34.94995 13.29925 34.94995 16.65643 22.70337 17.89245 23.8681 15.26581 33.44995 24.19922 33.44995 24.19922 10.54999 21.54339 10.54999 20.87176 13 19.3164 13 20.39923 9.04999"/>
  <path class="cls-1" d="M23.42149,15l-3.97713,7.58219-2.80207-2.64099c-2.67482,1.2388-4.65182,3.50588-5.42335,6.2191-1.53662,4.60043-1.17508,8.43412-.9943,8.6897H1.99924c.35603-3.58524,1.56065-7.04959,3.52518-10.13798,2.23794-2.98821,5.21681-5.41564,8.67737-7.07103l-2.80207-2.64099h12.02177Z"/>
</svg>