<svg xmlns="http://www.w3.org/2000/svg" viewBox="0 0 44 44"><title>s_curve_first_left_nar Kopie</title><g id="Ebene_50" data-name="Ebene 50"><path id="path3195" d="M41.46626,20.70476l-18.1711-18.17a1.83812,1.83812,0,0,0-2.591,0l-18.17,18.17a1.83813,1.83813,0,0,0,0,2.591l18.17,18.16943a1.83812,1.83812,0,0,0,2.591,0L41.46626,23.29579a1.83914,1.83914,0,0,0,0-2.591" fill="#010101"/><path id="path3211" d="M41.12017,21.05057,22.94908,2.88114a1.3466,1.3466,0,0,0-1.89884,0l-18.17,18.16943a1.3466,1.3466,0,0,0,0,1.89884l18.17,18.17a1.34658,1.34658,0,0,0,1.89884,0l18.17109-18.17a1.34759,1.34759,0,0,0,0-1.89883" fill="#00f300" fill-rule="evenodd"/><path id="path3215" d="M40.60018,21.56952l-18.17-18.17a.61263.61263,0,0,0-.86164,0l-18.16888,18.17a.61026.61026,0,0,0,0,.86052L21.56856,40.59947a.61057.61057,0,0,0,.86164,0L40.60018,22.43a.6082.6082,0,0,0,0-.86052" fill="#010101" fill-rule="evenodd"/><path id="path3219" d="M16.38316,16.842v.69a6.04642,6.04642,0,0,0,2.33716,4.776l5.752,4.356a1.8334,1.8334,0,0,1,.73775,1.46384v4.21488h4.2382V28.1278a6.0054,6.0054,0,0,0-.88109-3.14768,5.63116,5.63116,0,0,0-1.3555-1.54549l-5.85148-4.43876a1.81985,1.81985,0,0,1-.755-1.48107v-.73831l2.806.80775a1.13822,1.13822,0,0,0,.13222.02279.78454.78454,0,0,0,.55444-.14.82374.82374,0,0,0,.34054-.52221.80839.80839,0,0,0-.13444-.64L18.50365,8.15065l-5.28094,8.17308a.846.846,0,0,0-.13443.45276.8605.8605,0,0,0,.6822.82608.77383.77383,0,0,0,.41-.03554Z" fill="#00f300" fill-rule="evenodd"/></g></svg>