<svg id="Ebene_1" data-name="Ebene 1" xmlns="http://www.w3.org/2000/svg" viewBox="0 0 44 44"><defs><style>.cls-1,.cls-4{fill:#00f300;}.cls-1,.cls-2{fill-rule:evenodd;}.cls-3{fill:#010101;}.cls-5{fill:#f7fbf5;}</style></defs><g id="d0_t5_cc-svk_1p0_2p1014_1s0" data-name="d0 t5 cc-svk 1p0 2p1014 1s0"><path id="Rahmen" class="cls-1" d="M2,11.47567a1.62855,1.62855,0,0,1,.14549-.72771,1.73576,1.73576,0,0,1,.4077-.61151,1.93218,1.93218,0,0,1,1.33913-.58213H40.07865a2.03672,2.03672,0,0,1,.72771.14549,2.33477,2.33477,0,0,1,.61117.43673A1.93057,1.93057,0,0,1,42,11.47576V32.52433a2.02782,2.02782,0,0,1-.14574.72737,1.80508,1.80508,0,0,1-.43673.61117,1.87651,1.87651,0,0,1-1.33888.58281H3.89241a2.16518,2.16518,0,0,1-.728-.14608,1.81374,1.81374,0,0,1-.61125-.43672A1.84733,1.84733,0,0,1,2,32.52433Z"/><path id="Hintergrund" class="cls-2" d="M2.43673,11.47567a1.60515,1.60515,0,0,1,.90249-1.33922A1.26883,1.26883,0,0,1,3.89241,10.02H40.07873a1.49972,1.49972,0,0,1,1.33939.90291,1.26488,1.26488,0,0,1,.116.55277V32.52433a1.49765,1.49765,0,0,1-.90266,1.33854,1.18062,1.18062,0,0,1-.55277.11646H3.89241a1.53153,1.53153,0,0,1-1.33914-.90215,1.88165,1.88165,0,0,1-.11654-.55285Z"/></g><g id="d0_t5_cc-nld_1p0_2p1014_1s0" data-name="d0 t5 cc-nld 1p0 2p1014 1s0"><path class="cls-3" d="M5.618,13.27386,39.52617,28.07655l-1.145,2.64312L4.47511,15.917"/><path class="cls-4" d="M4.47511,15.917,5.618,13.27386l7.58554,3.31145-1.089,2.66813"/><path class="cls-4" d="M31.81477,24.71l7.7114,3.36654-1.145,2.64312L30.72706,27.378l1.08771-2.668"/><path class="cls-5" d="M31.88429,19.24907,39.52617,15.917l-1.145-2.64312L30.7967,16.58138l1.08759,2.66771"/><path id="path108" d="M38.38122,13.27386,4.47511,28.07655,5.618,30.71967,39.52617,15.917"/><path class="cls-4" d="M39.52617,15.917l-1.145-2.64312L30.7967,16.58138l1.09674,2.66771"/><path class="cls-4" d="M12.17846,24.69525l-7.70335,3.3813L5.618,30.71967l7.65428-3.34148-1.09383-2.68294"/><path class="cls-4" d="M38.38116,13.27386l1.145,2.64312L25.59931,21.99676l13.92686,6.07978-1.145,2.64311L22.00008,23.568,5.618,30.71965,4.47511,28.07654l13.92594-6.07978L4.47511,15.917,5.618,13.27386l16.38211,7.15163,16.38111-7.15163M5.41964,12.70912l-.1083.25176L4.03747,15.89516l-.11539.25936.37767.164L17.306,21.99676,4.29975,27.675l-.38612.16683.12822.3002,1.24294,2.86205.12529.28676.38318-.16969L22.0001,24.04613l16.20576,7.0751.37979.16646.12841-.28317,1.24531-2.86244.12614-.29882-.38409-.16822-13.007-5.67828,13.007-5.67827.37293-.15856-.11058-.26484L38.68751,12.9606l-.10346-.24988-.37822.16158L22.00007,19.94736l-16.20684-7.075Z"/></g></svg>