<svg id="school_sign" xmlns="http://www.w3.org/2000/svg" xmlns:xlink="http://www.w3.org/1999/xlink" viewBox="0 0 44 44"><defs><linearGradient id="Hintergrund_gelb" x1="2.52555" y1="8.50477" x2="41.52555" y2="8.50477" gradientUnits="userSpaceOnUse"><stop offset="0" stop-color="#ffd033"/></linearGradient><linearGradient id="Rahmen_schwarz" x1="3.02555" y1="8.50477" x2="41.02555" y2="8.50477" gradientUnits="userSpaceOnUse"><stop offset="0" stop-color="#010101"/></linearGradient><linearGradient id="Beschriftung_schwarz" x1="5.12555" y1="8.60567" x2="38.92555" y2="8.60567" xlink:href="#Rahmen_schwarz"/></defs><title>school_sign</title><path d="M4.52555,14.50477a2.00588,2.00588,0,0,1-2-2v-8a2.00588,2.00588,0,0,1,2-2h35a2.00588,2.00588,0,0,1,2,2v8a2.00588,2.00588,0,0,1-2,2Z" fill="url(#Hintergrund_gelb)"/><path d="M39.52555,3.00477a1.538,1.538,0,0,1,1.5,1.5v8a1.538,1.538,0,0,1-1.5,1.5h-35a1.538,1.538,0,0,1-1.5-1.5v-8a1.538,1.538,0,0,1,1.5-1.5h35m0-1h-35a2.47572,2.47572,0,0,0-2.5,2.5v8a2.47572,2.47572,0,0,0,2.5,2.5h35a2.47572,2.47572,0,0,0,2.5-2.5v-8a2.54,2.54,0,0,0-2.5-2.5Z" fill="url(#Rahmen_schwarz)" stroke-width="0.5px" stroke="url(#Rahmen_schwarz)"/><path id="Beschriftung" d="M7.52555,12.10477a2.591,2.591,0,0,1-2.4-1.7l1-.4a1.504,1.504,0,0,0,1.4,1,.98655.98655,0,0,0,1-.9v-.1c0-.9-1-1-1.9-1.4a1.83064,1.83064,0,0,1-1.3-1.7c0-1.3.9-1.8,2.1-1.8a1.92062,1.92062,0,0,1,1.9,1.4l-.9.3a1.09986,1.09986,0,0,0-1-.6c-.5,0-1.1.2-1,.8.1,1.2,3.2.4,3.2,3a2.17982,2.17982,0,0,1-2.1,2.1Zm5.6,0a1.88056,1.88056,0,0,1-2-1.2,5.932,5.932,0,0,1-.5-2.3,4.30019,4.30019,0,0,1,.8-2.7,2.28932,2.28932,0,0,1,1.7-.8,2.04082,2.04082,0,0,1,2.1,1.4l-1,.4c-.4-.5-.6-.6-1.1-.6a1.08382,1.08382,0,0,0-1.1.8,4.01276,4.01276,0,0,0-.3,1.5,4.05816,4.05816,0,0,0,.4,1.9,1.23077,1.23077,0,0,0,1,.5.97381.97381,0,0,0,1-.8l1,.4a1.9599,1.9599,0,0,1-2,1.5Zm7-.1v-2.9h-2.4v2.9h-1.1v-6.7h1.1v2.7h2.4v-2.7h1v6.7Zm6.4-.7a2.0876,2.0876,0,0,1-1.6.8,1.82985,1.82985,0,0,1-1.9-1.2,5.85185,5.85185,0,0,1-.5-2.2,4.95329,4.95329,0,0,1,.7-2.7,2.136,2.136,0,0,1,1.7-.8c1.8,0,2.3,2,2.3,3.5a3.5727,3.5727,0,0,1-.7,2.6Zm-1.5-5a1.0838,1.0838,0,0,0-1.1.8,4.14555,4.14555,0,0,0-.3,1.6,3.66141,3.66141,0,0,0,.4,1.8,1.03941,1.03941,0,0,0,1.9-.3,4.01276,4.01276,0,0,0,.3-1.5c0-.8-.2-2.4-1.2-2.4Zm7.6,5a2.08761,2.08761,0,0,1-1.6.8,1.82985,1.82985,0,0,1-1.9-1.2,5.85185,5.85185,0,0,1-.5-2.2,4.95329,4.95329,0,0,1,.7-2.7,2.136,2.136,0,0,1,1.7-.8c1.8,0,2.3,2,2.3,3.5a4.84469,4.84469,0,0,1-.7,2.6Zm-1.6-5a1.0838,1.0838,0,0,0-1.1.8,4.14555,4.14555,0,0,0-.3,1.6,3.66141,3.66141,0,0,0,.4,1.8,1.03941,1.03941,0,0,0,1.9-.3,4.01276,4.01276,0,0,0,.3-1.5c0-.8-.1-2.4-1.2-2.4Zm3.7,5.7v-6.7h1.1v5.7h3.1v1Z" fill="url(#Beschriftung_schwarz)"/></svg>