<svg xmlns="http://www.w3.org/2000/svg" xmlns:xlink="http://www.w3.org/1999/xlink" viewBox="0 0 44 44"><defs><linearGradient id="Hintergrund_weiss" x1="1.9998" y1="29.69681" x2="42.0002" y2="29.69681" gradientUnits="userSpaceOnUse"><stop offset="0" stop-color="#fff"/></linearGradient><linearGradient id="Rahmen_schwarz" x1="2" y1="29.55" x2="42" y2="29.55" gradientUnits="userSpaceOnUse"><stop offset="0" stop-color="#010101"/></linearGradient><linearGradient id="Beschriftung_schwarz" x1="7.53301" y1="30.05246" x2="11.3084" y2="30.05246" xlink:href="#Rahmen_schwarz"/></defs><title>speedlimit_school_work_usa_can_180</title><g id="speedlimit_school_work_usa_can_180"><rect id="Hintergrund_weiss-2" data-name="Hintergrund_weiss" x="1.9998" y="17.39363" width="40.00039" height="24.60637" rx="2.2107" fill="url(#Hintergrund_weiss)"/><path id="Rahmen_schwarz-2" data-name="Rahmen_schwarz" d="M39.8,18.1A1.15536,1.15536,0,0,1,41,19.3V39.8A1.15536,1.15536,0,0,1,39.8,41H4.2A1.15536,1.15536,0,0,1,3,39.8V19.3a1.15536,1.15536,0,0,1,1.2-1.2H39.8m0-1H4.2A2.21953,2.21953,0,0,0,2,19.3V39.8A2.21953,2.21953,0,0,0,4.2,42H39.8A2.21953,2.21953,0,0,0,42,39.8V19.3a2.21953,2.21953,0,0,0-2.2-2.2Z" fill="url(#Rahmen_schwarz)" stroke-width="0.5px" stroke="url(#Rahmen_schwarz)"/><path id="Beschriftung_schwarz-2" data-name="Beschriftung_schwarz" d="M11.3084,38.41505H8.95781V24.63966H7.533V22.74025a2.38451,2.38451,0,0,0,2.02539-1.0752h1.75ZM24.283,33.33985a5.96073,5.96073,0,0,1-1.23731,3.86231,4.07377,4.07377,0,0,1-3.41211,1.51269,4.08831,4.08831,0,0,1-3.45019-1.64941,5.7984,5.7984,0,0,1-1.25-3.57519,5.10686,5.10686,0,0,1,1.75-4.2002,4.13872,4.13872,0,0,1-1.52539-3.4502,4.28153,4.28153,0,0,1,4.47558-4.45019,4.26072,4.26072,0,0,1,3.16211,1.25A4.35731,4.35731,0,0,1,24.033,25.83985a4.05762,4.05762,0,0,1-1.42481,3.42481A4.75864,4.75864,0,0,1,24.283,33.33985Zm-2.29981.1504a3.3147,3.3147,0,0,0-.64941-2.1504,2.207,2.207,0,0,0-3.40039,0,3.30942,3.30942,0,0,0-.65039,2.1504,3.186,3.186,0,0,0,.65039,2.07519,2.207,2.207,0,0,0,3.40039,0A3.19107,3.19107,0,0,0,21.9832,33.49025Zm-.2998-7.6504a2.05036,2.05036,0,0,0-.58789-1.51269,1.98777,1.98777,0,0,0-1.46192-.58691,2.09406,2.09406,0,0,0-1.52539.58691,2.02894,2.02894,0,0,0-.59961,1.51269,2.2063,2.2063,0,0,0,.59961,1.61231,2.04193,2.04193,0,0,0,1.52539.61328,1.93122,1.93122,0,0,0,1.47461-.61328A2.25722,2.25722,0,0,0,21.6834,25.83985Zm10.499,12.875a4.01517,4.01517,0,0,1-3.77441-2.1621,13.80607,13.80607,0,0,1-1.2002-6.5127,13.74793,13.74793,0,0,1,1.2002-6.47461,4.01143,4.01143,0,0,1,3.77441-2.17578,4.01288,4.01288,0,0,1,3.77539,2.17578,13.76,13.76,0,0,1,1.2002,6.47461,13.81815,13.81815,0,0,1-1.2002,6.5127A4.01663,4.01663,0,0,1,32.18242,38.71485Zm0-2.3496a2.01793,2.01793,0,0,0,1.97559-1.5254,14.4305,14.4305,0,0,0,.59961-4.8496,13.77,13.77,0,0,0-.59961-4.75,2.05034,2.05034,0,0,0-3.9502,0,13.74113,13.74113,0,0,0-.60058,4.75,14.40008,14.40008,0,0,0,.60058,4.8496A2.0161,2.0161,0,0,0,32.18242,36.36525Z" fill="url(#Beschriftung_schwarz)"/></g></svg>