<svg xmlns="http://www.w3.org/2000/svg" xmlns:xlink="http://www.w3.org/1999/xlink" viewBox="0 0 44 44"><defs><linearGradient id="Hintergrund_weiss" x1="1.9998" y1="29.69681" x2="42.0002" y2="29.69681" gradientUnits="userSpaceOnUse"><stop offset="0" stop-color="#fff"/></linearGradient><linearGradient id="Rahmen_schwarz" x1="2" y1="29.55" x2="42" y2="29.55" gradientUnits="userSpaceOnUse"><stop offset="0" stop-color="#010101"/></linearGradient><linearGradient id="Beschriftung_schwarz" x1="7.52812" y1="30.05265" x2="37.22832" y2="30.05265" xlink:href="#Rahmen_schwarz"/></defs><title>speedlimit_school_work_usa_can_40</title><g id="speedlimit_school_work_usa_can_40"><rect id="Hintergrund_weiss-2" data-name="Hintergrund_weiss" x="1.9998" y="17.39363" width="40.00039" height="24.60637" rx="2.2107" fill="url(#Hintergrund_weiss)"/><path id="Rahmen_schwarz-2" data-name="Rahmen_schwarz" d="M39.8,18.1A1.15536,1.15536,0,0,1,41,19.3V39.8A1.15536,1.15536,0,0,1,39.8,41H4.2A1.15536,1.15536,0,0,1,3,39.8V19.3a1.15536,1.15536,0,0,1,1.2-1.2H39.8m0-1H4.2A2.21953,2.21953,0,0,0,2,19.3V39.8A2.21953,2.21953,0,0,0,4.2,42H39.8A2.21953,2.21953,0,0,0,42,39.8V19.3a2.21953,2.21953,0,0,0-2.2-2.2Z" fill="url(#Rahmen_schwarz)" stroke-width="0.5px" stroke="url(#Rahmen_schwarz)"/><path id="Beschriftung_schwarz-2" data-name="Beschriftung_schwarz" d="M22.82793,35.01506H20.35234v3.40039H17.40312V35.01506h-9.875V32.34025l9.97461-10.6748h2.84961V32.31584h2.47559Zm-5.42481-2.69922v-6.4502l-6.02539,6.4502Zm19.8252-2.35059a9.99717,9.99717,0,0,1-1.8877,6.33789,6.07181,6.07181,0,0,1-5.0371,2.41211,6.23787,6.23787,0,0,1-5.4004-2.77441,9.99039,9.99039,0,0,1-1.70019-5.92578,9.65611,9.65611,0,0,1,1.90039-6.3125,6.37062,6.37062,0,0,1,5.2002-2.3125,6.13677,6.13677,0,0,1,5.01171,2.36328A9.5655,9.5655,0,0,1,37.22832,29.96525Zm-2.97559.04981a7.21139,7.21139,0,0,0-1.03711-4.14942,3.33884,3.33884,0,0,0-2.9121-1.5,3.458,3.458,0,0,0-2.97559,1.5,7.01573,7.01573,0,0,0-1.0752,4.14942,7.12138,7.12138,0,0,0,1.0752,4.1875,3.44813,3.44813,0,0,0,2.97559,1.51269,3.33,3.33,0,0,0,3.14941-1.875A7.99591,7.99591,0,0,0,34.25273,30.01506Z" fill="url(#Beschriftung_schwarz)"/></g></svg>