<svg xmlns="http://www.w3.org/2000/svg" xmlns:xlink="http://www.w3.org/1999/xlink" viewBox="0 0 44 44"><defs><linearGradient id="Hintergrund_weiss" x1="1.9998" y1="29.69681" x2="42.0002" y2="29.69681" gradientUnits="userSpaceOnUse"><stop offset="0" stop-color="#fff"/></linearGradient><linearGradient id="Rahmen_schwarz" x1="2" y1="29.55" x2="42" y2="29.55" gradientUnits="userSpaceOnUse"><stop offset="0" stop-color="#010101"/></linearGradient><linearGradient id="Beschriftung_schwarz" x1="9.65703" y1="30.05265" x2="36.03203" y2="30.05265" xlink:href="#Rahmen_schwarz"/></defs><title>speedlimit_school_work_usa_can_110</title><g id="speedlimit_school_work_usa_can_110"><rect id="Hintergrund_weiss-2" data-name="Hintergrund_weiss" x="1.9998" y="17.39363" width="40.00039" height="24.60637" rx="2.2107" fill="url(#Hintergrund_weiss)"/><path id="Rahmen_schwarz-2" data-name="Rahmen_schwarz" d="M39.8,18.1A1.15536,1.15536,0,0,1,41,19.3V39.8A1.15536,1.15536,0,0,1,39.8,41H4.2A1.15536,1.15536,0,0,1,3,39.8V19.3a1.15536,1.15536,0,0,1,1.2-1.2H39.8m0-1H4.2A2.21953,2.21953,0,0,0,2,19.3V39.8A2.21953,2.21953,0,0,0,4.2,42H39.8A2.21953,2.21953,0,0,0,42,39.8V19.3a2.21953,2.21953,0,0,0-2.2-2.2Z" fill="url(#Rahmen_schwarz)" stroke-width="0.5px" stroke="url(#Rahmen_schwarz)"/><path id="Beschriftung_schwarz-2" data-name="Beschriftung_schwarz" d="M13.43242,38.41545H11.08184V24.64006H9.657V22.74064a2.3845,2.3845,0,0,0,2.02539-1.07519h1.75Zm8.625,0H19.70684V24.64006H18.282V22.74064a2.3845,2.3845,0,0,0,2.02539-1.07519h1.75Zm8.999.2998A4.01518,4.01518,0,0,1,27.282,36.55314a13.806,13.806,0,0,1-1.20019-6.51269A13.74794,13.74794,0,0,1,27.282,23.56584a4.01144,4.01144,0,0,1,3.77441-2.17578,4.01289,4.01289,0,0,1,3.7754,2.17578A13.76017,13.76017,0,0,1,36.032,30.04045a13.81822,13.81822,0,0,1-1.20019,6.51269A4.01664,4.01664,0,0,1,31.05644,38.71525Zm0-2.34961A2.01792,2.01792,0,0,0,33.032,34.84025a14.43053,14.43053,0,0,0,.59961-4.84961,13.77007,13.77007,0,0,0-.59961-4.75,2.05033,2.05033,0,0,0-3.95019,0,13.74087,13.74087,0,0,0-.60059,4.75,14.39979,14.39979,0,0,0,.60059,4.84961A2.01607,2.01607,0,0,0,31.05644,36.36564Z" fill="url(#Beschriftung_schwarz)"/></g></svg>