<?xml version="1.0" encoding="UTF-8"?>
<svg id="Ebene_1" data-name="Ebene 1" xmlns="http://www.w3.org/2000/svg" viewBox="0 0 44 44">
  <defs>
    <style>
      .cls-1 {
        fill: #00f300;
      }
    </style>
  </defs>
  <circle cx="22" cy="22.00048" r="20"/>
  <path class="cls-1" d="M22,2.00048C10.95431,2.00048,2,10.95479,2,22.00048s8.95431,20,20,20,20-8.9543,20-20S33.0457,2.00048,22,2.00048Zm0,35.38462c-8.49669,0-15.38462-6.88793-15.38462-15.38462S13.50331,6.61587,22,6.61587s15.38462,6.88793,15.38462,15.38462-6.88793,15.38462-15.38462,15.38461Z"/>
  <path class="cls-1" d="M15.3,11.30048l3.25,5.04c.16007,.24704,.08956,.57707-.15748,.73714-.14419,.09343-.32458,.11162-.48452,.04886l-1.27-.495v10.7h-2.67v-10.7l-1.27,.495c-.27403,.10752-.58334-.02746-.69086-.30148-.06276-.15994-.04457-.34033,.04886-.48452,0,0,3.244-5.04,3.244-5.04Z"/>
  <path class="cls-1" d="M27,34.00048l-4.87-7.57c-.24027-.37078-.13447-.86614,.23631-1.10642,.21624-.14013,.48674-.16752,.72669-.07358l1.91,.745V11.29548h4v14.7l1.91-.745c.41142-.16107,.87552,.04189,1.03658,.45331,.09394,.23994,.06655,.51044-.07358,.72669l-4.876,7.57Z"/>
</svg>