<svg xmlns="http://www.w3.org/2000/svg" viewBox="0 0 40 40"><g id="t11_1p222"><rect y="7" width="40" height="26" fill="#0f47af" /><rect y="15.66667" width="40" height="8.66667" fill="#fff" /><path d="M18.63488,23.124a3.23855,3.23855,0,1,1,2.66213.02226" fill="none" stroke="#ffcb03" stroke-miterlimit="10" stroke-width="0.5" /><path d="M19.72815,22.51941c-.04706-.03827-.36914-.59692-.42792-.6214a.69166.69166,0,0,0-.15491-.04083c.09144.2204-.24108.26452-.2055.27069.01794.00488.07495.16565.05353.155a1.98956,1.98956,0,0,1-.22657-.137s.04242-.2055.00654-.25445a2.61733,2.61733,0,0,1-.16474-.46326s-.11908.11743-.11255.19245c.00385.058-.10779-.22193-.10779-.22193a.91778.91778,0,0,0-.13049.2887.38958.38958,0,0,0,.037.12817.92686.92686,0,0,1-.22693-.22717c.00556-.0238.12152-.3985.12152-.3985l-.19739-.39636c-.00653.06195-.145.28815-.141.31994a2.02093,2.02093,0,0,1-.07434-.253l.00037-.00055a2.202,2.202,0,0,0,.14636-.26562,2.18008,2.18008,0,0,0-.02771-.43518,2.23013,2.23013,0,0,0-.19244.20392c-.01795.03424-.07038-.22327-.06952-.26233a1.06948,1.06948,0,0,0,.25067-.20764.47357.47357,0,0,0,.02283-.21534.31988.31988,0,0,1-.09192.08466c.00158-.03412-.006-.15948-.006-.15948-.09717.05023-.11213.13946-.15363.19128a2.66718,2.66718,0,0,1,.05792-.31836.12792.12792,0,0,1,.07453-.04254,1.21693,1.21693,0,0,0,.27075-.36212s-.09625.02282-.124.02771l-.00007.00006.00007-.00031a.34551.34551,0,0,0-.01331-.0971c.02173-.03888.04376-.077.066-.1153a.76711.76711,0,0,0,.19031-.03522,2.67709,2.67709,0,0,1,.21533-.21533s-.14191.01569-.1474.01715l.00073-.001c.03424-.06195.02606-.1745.01135-.16467-.00811.00519-.11236.06568-.12249.07086-.01123-.04217-.02423-.09863-.02423-.09863s-.14844.21045-.15986.23816a.69868.69868,0,0,0,.01532.17944c-.024.04-.04736.077-.07006.11682a.563.563,0,0,0-.13947.10785c-.01428-.03381-.0603-.13812-.0603-.13812.00653.03424-.10114.243-.10114.2887a1.14409,1.14409,0,0,0,.08032.22387,2.89588,2.89588,0,0,0-.054.32483l-.16974-.348s-.06384.17249-.06372.189c-.00916-.00666-.09766-.07508-.09766-.07508a1.07987,1.07987,0,0,0-.01959.17456c-.00488.0326.17615.34089.28546.37348a.10476.10476,0,0,1,.046.02746c-.00018.01423.00934.29895-.007.23206-.01794-.06848-.23816-.23816-.23816-.23816a2.37492,2.37492,0,0,0,.00934.25226c-.02044-.00519-.14648-.05512-.14648-.05512a1.83383,1.83383,0,0,0,.18109.38495c.04071.04077.317.10724.32941.12549.00555.01941.04858.17633.06994.24658-.03015-.05175-.347-.12231-.347-.12231a.38668.38668,0,0,1,.08429.17023.50972.50972,0,0,0-.18055-.00061c.0163.01141.31647.4143.35071.44854a1.37431,1.37431,0,0,0,.31513.04328c.0205.02942.18731.46175-.04755.18847-.03108-.03617.19574.26546-.07849.25763a1.82006,1.82006,0,0,0,.473.23169,2.90226,2.90226,0,0,1,.36072-.11249,1.65316,1.65316,0,0,1,.25116.16138.61039.61039,0,0,1-.2088.02283c-.03137-.01642.23143.30495-.05567.30841-.04741.00057.15009.12561.20392.11743.17285-.02447.62146-.10278.64429-.11908a.284.284,0,0,1,.16473-.09784s.61652.21039.63941.22669c.02282.01788.07336.11908.09625.11908s.16943.01135.16956.01135a1.72173,1.72173,0,0,0-.2887-.2381C20.28674,22.67676,19.89294,22.56,19.72815,22.51941Z" fill="#1f601a" /><path d="M22.56934,20.38849a2.37471,2.37471,0,0,0,.00933-.25226s-.27789.34888-.28515.35974a.977.977,0,0,0,.04-.35364.10476.10476,0,0,1,.046-.02746.359.359,0,0,0,.2088-.14838,1.70727,1.70727,0,0,0,.05707-.39966s-.08844.06842-.0976.07508c.00018-.01654-.06378-.189-.06378-.189a2.03446,2.03446,0,0,0-.16644.25446c-.01795.06366-.0354-.135-.05732-.23127a1.14335,1.14335,0,0,0,.08033-.22387c0-.04572-.10767-.25446-.10114-.2887,0,0-.046.10431-.0603.13812a.5632.5632,0,0,0-.13947-.10785c-.0227-.03979-.046-.07678-.07007-.11682a.69778.69778,0,0,0,.01532-.17944c-.01141-.02771-.15979-.23816-.15979-.23816s-.01294.05646-.02423.09863c-.01013-.00518-.12256-.07086-.12256-.07086a.28459.28459,0,0,0,.01136.16467l.00073.001c-.00549-.00146-.1474-.01715-.1474-.01715a2.66894,2.66894,0,0,1,.21533.21533.7676.7676,0,0,0,.19031.03522c.02222.03833.04431.07642.066.11536a.34967.34967,0,0,0-.01337.097l.00006.00031-.00006-.00006c-.02771-.00489-.124-.02771-.124-.02771a1.21676,1.21676,0,0,0,.27075.36212.12792.12792,0,0,1,.07453.04254,1.96386,1.96386,0,0,1,.052.27271c-.0415-.05182-.24007-.053-.24557-.07081,0,0,.0636.328.10767.34418.04565.018.15716.074.16583.0788a1.438,1.438,0,0,1-.04822.43011.60867.60867,0,0,0-.02124-.16778,2.238,2.238,0,0,0-.1925-.20392,2.15444,2.15444,0,0,0-.044.23785.80413.80413,0,0,0,.07337.3393c.01141.01629.09847.09935.09847.09935s-.04586.17323-.08309.27772c.0039-.0318-.13459-.25787-.14106-.31982l-.19738.39636s.1159.3747.12146.3985a.92686.92686,0,0,1-.22693.22717,1.53772,1.53772,0,0,0-.09345-.41687s-.10028.28247-.10931.299c-.00226-.01477-.111-.26953-.111-.26953a2.61256,2.61256,0,0,1-.16474.46326c-.03589.049.00653.25445.00653.25445.00373.00245-.29278.16419-.28558.15656.10443-.111.0946-.16968.11255-.17456.03558-.00617-.04773-.01441-.09558-.00977.02826-.04309.065-.09832.094-.15191.02124-.04077-.22088.02758-.23669.03338a.86809.86809,0,0,0,.03271-.14239,1.683,1.683,0,0,0-.29846.14361c-.06036.03913-.2373.48035-.2843.51862-.1648.04059-.55865.15735-.61908.18756a1.7222,1.7222,0,0,0-.28876.2381c.00013,0,.14673-.01135.16956-.01135s.07342-.1012.09625-.11908c.02289-.0163.63941-.22669.63941-.22669a3.37308,3.37308,0,0,1,.39312.21857,2.47338,2.47338,0,0,0,.61981-.11908c-.0238.00152.10419-.19421.05854-.18445a.63778.63778,0,0,1-.19184-.01739c.04181-.03339.109-.123.07764-.10657a1.18757,1.18757,0,0,1-.2522-.02332c.00666-.003.20526-.10644.29456-.16089a2.9028,2.9028,0,0,1,.36072.11249,3.20271,3.20271,0,0,0,.473-.23169c-.03412.02027-.14044-.00641-.21448-.0202.02222-.00488.17352-.26685.13605-.23743a2.35415,2.35415,0,0,1-.25091.01507c.04352-.04223.18279-.17412.2033-.20354a1.37483,1.37483,0,0,0,.31513-.04328c.03424-.03424.33441-.43713.35077-.44854a.51013.51013,0,0,0-.18061.00061.38658.38658,0,0,1,.08429-.17023s-.31708.07056-.347.12237c.02142-.07031.06439-.22723.06994-.24664.01239-.01825.2887-.08472.32941-.12549a.89164.89164,0,0,0,.14685-.20392,1.4575,1.4575,0,0,0,.03424-.181S22.58978,20.3833,22.56934,20.38849Z" fill="#1f601a" /><path d="M20.26758,22.73615c-.03131-.03284-.19916-.14112-.19946-.1435a.199.199,0,0,0,.1878-.07495c.02283-.02283.08-.27405.01794-.32623-.062-.0506-.16473.00653-.199.01794-.03131.01093-.08472.2431-.08472.2431a1.934,1.934,0,0,0-.07342-.23162.1478.1478,0,0,0-.15332-.0636c-.08734.0097-.14221.019-.124.17615a.63.63,0,0,0,.06195.25445,1.44589,1.44589,0,0,0,.193-.00232.36884.36884,0,0,0-.18158.15064.23311.23311,0,0,0,.03424.31152c-.03912-.04559.08478-.075.08478-.075-.119-.20392.1142-.3393.1142-.3393l-.00019-.00177a.177.177,0,0,0,.1062.013.13112.13112,0,0,1,.0915.11927c0,.08483.03424.23816.10278.2724,0,0,.10766.00488.12891.00488A1.61347,1.61347,0,0,0,20.26758,22.73615Zm-.571-.24451a.75648.75648,0,0,1-.04077-.27728.0482.0482,0,0,1,.03424-.03425l-.00012-.00006.00018.00006c.048,0,.24463.33112.244.33588A.3038.3038,0,0,0,19.69653,22.49164Zm.33905-.01184c.01581-.06824.06214-.24262.06214-.24262s.05383.0163.08813.02771.031.137.03748.17127c.00329.02282-.14984.09515-.16822.098-.00946-.02911-.01928-.05426-.01928-.05426Z" fill="#00209f" /><path d="M19.163,19.36128a1.09538,1.09538,0,0,1-.03751-.19248.94158.94158,0,0,1,0-.2055l.16963.18758-.13212.2104Z" fill="#00209f" /><path d="M18.46192,19.62068a5.11466,5.11466,0,0,1-.0098-.66549c.01633-.15983.0538-.641.05547-.68833l.34255.38169c-.02445.274-.02122.35394-.03261.62143a2.01,2.01,0,0,0,.11093.4877l-.07175.12069-.39481-.2577Z" fill="#00209f" /><path d="M18.70177,20.138a.77705.77705,0,0,1-.04731-.16636.70107.70107,0,0,1-.00812-.18758l.18921.12395-.13379.23Z" fill="#00209f" /><path d="M18.16154,21.04135a3.90351,3.90351,0,0,1-.19248-.58066,3.59689,3.59689,0,0,1-.05057-.4926c.0098-.15007.02935-.60194.031-.64431l.385.25121c-.01469.2577-.00816.32949-.00816.579a1.207,1.207,0,0,0,.11742.41433l-.28215.473Z" fill="#00209f" /><path d="M18.801,21.18346a1.18051,1.18051,0,0,0,.46166.20554,2.364,2.364,0,0,0,.42242-.08318.31475.31475,0,0,0,.155-.12236h.06848a.6034.6034,0,0,1-.137.17619c-.0669.01143-.37027.1093-.41267.1191a1.13411,1.13411,0,0,1-.323.01142,7.38455,7.38455,0,0,1-.70788-.30672h.473Z" fill="#00209f" /><path d="M19.31831,21.18346h.522a.09587.09587,0,0,1-.02285.05547.20717.20717,0,0,1-.13212.06689,1.45163,1.45163,0,0,1-.367-.12236Z" fill="#00209f" /><path d="M20.77319,19.36128a1.09538,1.09538,0,0,0,.03751-.19248.94158.94158,0,0,0,0-.2055l-.16963.18758.13212.2104Z" fill="#00209f" /><path d="M21.47432,19.62068a5.11686,5.11686,0,0,0,.00979-.66549c-.01632-.15983-.05379-.641-.05547-.68833l-.34255.38169c.02445.274.02122.35394.03261.62143a2.00952,2.00952,0,0,1-.11093.4877l.07175.12069.39481-.2577Z" fill="#00209f" /><path d="M21.23447,20.138a.77754.77754,0,0,0,.0473-.16636.70107.70107,0,0,0,.00812-.18758l-.18921.12395.13379.23Z" fill="#00209f" /><path d="M21.77469,21.04135a3.90351,3.90351,0,0,0,.19248-.58066,3.59689,3.59689,0,0,0,.05057-.4926c-.00979-.15007-.02935-.60194-.031-.64431l-.385.25121c.01469.2577.00816.32949.00816.579a1.20672,1.20672,0,0,1-.11742.41433l.28215.473Z" fill="#00209f" /><path d="M21.13522,21.18346a1.18053,1.18053,0,0,1-.46165.20554,2.364,2.364,0,0,1-.42243-.08318.31468.31468,0,0,1-.155-.12236h-.06849a.6034.6034,0,0,0,.137.17619c.0669.01143.628.137.73564.13052a7.38346,7.38346,0,0,0,.70788-.30672h-.473Z" fill="#00209f" /><path d="M20.61792,21.18346h-.522a.09581.09581,0,0,0,.02286.05547.20717.20717,0,0,0,.13211.06689,1.45163,1.45163,0,0,0,.367-.12236Z" fill="#00209f" /><path d="M19.96735,18.02057l-1.89051,3.16278h3.78247Zm0,.20557,1.70776,2.85461H18.26123Z" fill="#fc0" /><path d="M18.76682,20.23242h0l-.50561.84836h3.41388l-.50725-.84836Z" fill="#007e93" stroke="#007e93" stroke-miterlimit="2.6131" stroke-width="0.00947" /><path d="M20.01947,19.33356a.13857.13857,0,0,0-.12885-.02606c-.01306.01141-.04077.07666-.02612.09136.01471.018.03919.00489.03919.00489.00818-.01959-.03107.14508-.03107.14508l.00012-.00006-.00006.00006a.11843.11843,0,0,0,.06848.02777.21968.21968,0,0,0,.15985-.03754A1.64946,1.64946,0,0,0,20.01947,19.33356Z" fill="#e60000" /><path d="M19.96229,19.52625s.01143-.00979.03751,0a4.1688,4.1688,0,0,1-.01959.58883A3.555,3.555,0,0,1,19.96229,19.52625Z" fill="#fc0" /><path d="M21.29688,20.58154c-.02283-.013-.36377-.31-.40125-.32135-.04083-.01141-.7702-.18274-.77838-.186-.02942-.01306-.48865-.02466-.52173-.03443a1.55108,1.55108,0,0,1-.2218-.11254.14983.14983,0,0,0-.124-.00324c-.10761.0603-.59375.52362-.61.52033h.00006l-.12408.21038c.155.00165,1.41253.01636,1.84643,0C20.36212,20.65472,21.23358,20.58459,21.29688,20.58154Z" fill="#fc0" /></g></svg>