<?xml version="1.0" encoding="utf-8"?>
<!-- Generator: Adobe Illustrator 25.2.3, SVG Export Plug-In . SVG Version: 6.00 Build 0)  -->
<svg version="1.2" baseProfile="tiny" xmlns="http://www.w3.org/2000/svg" xmlns:xlink="http://www.w3.org/1999/xlink" x="0px"
	 y="0px" viewBox="0 0 30 30" overflow="visible" xml:space="preserve">
<g id="BKG" display="none">
	<rect y="0" display="inline" width="30" height="30"/>
</g>
<g id="V1">
	<circle fill="#FFFFFF" cx="5.3" cy="21.3" r="2.3"/>
	<circle fill="#FFFFFF" cx="22.5" cy="21.3" r="2.3"/>
	<path fill="#FFFFFF" d="M26.2,9H3.8C1.7,9,0,10.7,0,12.8V21h1.6c0.2-1.9,1.7-3.4,3.7-3.4c2,0,3.5,1.5,3.7,3.4h9.8
		c0.2-1.9,1.7-3.4,3.7-3.4c2,0,3.5,1.5,3.7,3.4H30v-8.2C30,10.7,28.3,9,26.2,9z M1.9,16.6v-3.7c0-1,0.8-1.9,1.9-1.9h22.5
		c1,0,1.9,0.8,1.9,1.9l0,3.7L1.9,16.6z"/>
	<rect x="6.9" y="10.5" fill="#FFFFFF" width="1.2" height="6.6"/>
	<rect x="11.9" y="10.5" fill="#FFFFFF" width="1.2" height="6.6"/>
	<rect x="16.9" y="10.5" fill="#FFFFFF" width="1.2" height="6.6"/>
	<rect x="21.9" y="10.5" fill="#FFFFFF" width="1.2" height="6.6"/>
</g>
</svg>
