<?xml version="1.0" encoding="utf-8"?>
<!-- Generator: Adobe Illustrator 25.2.3, SVG Export Plug-In . SVG Version: 6.00 Build 0)  -->
<svg version="1.2" baseProfile="tiny" xmlns="http://www.w3.org/2000/svg" xmlns:xlink="http://www.w3.org/1999/xlink" x="0px"
	 y="0px" viewBox="0 0 30 30" overflow="visible" xml:space="preserve">
<g id="BKG" display="none">
	<rect y="0" display="inline" width="30" height="30"/>
</g>
<g id="V1">
	<linearGradient id="SVGID_1_" gradientUnits="userSpaceOnUse" x1="-5.456968e-12" y1="16.3731" x2="30" y2="16.3731">
		<stop  offset="0" style="stop-color:#70BB62"/>
		<stop  offset="1" style="stop-color:#E5E589"/>
	</linearGradient>
	<path fill="url(#SVGID_1_)" d="M0,18.5c0.7-0.9,2-2.3,5.4-3.4s9.8-1.3,14.6-0.8c4.6,0.5,10-0.5,10-0.5v0.5c0,0-6,1.8-10.1,1.8
		c-6.3,0-8.5-0.1-11.5,0.2C2.7,17,0,19,0,19V18.5z"/>
	<linearGradient id="SVGID_2_" gradientUnits="userSpaceOnUse" x1="0" y1="17.4666" x2="30" y2="17.4666">
		<stop  offset="0" style="stop-color:#188CC3"/>
		<stop  offset="1" style="stop-color:#97CFE1"/>
	</linearGradient>
	<path fill="url(#SVGID_2_)" d="M30,14.8c-0.2,0.1-6,1.8-10.1,1.8c-1.4,0-5.9,0-5.9,0c-0.9,0-1.6,0-2.3,0c-0.3,0-0.7,0-1,0
		c0,0,0,0-0.1,0c-0.5,0-0.9,0.1-1.3,0.1c-0.3,0-0.5,0-0.8,0.1c0,0-0.1,0-0.1,0c-1.3,0.1-2.4,0.4-3.3,0.6c-0.1,0-0.3,0.1-0.4,0.1
		c-1.7,0.5-2.9,1-3.6,1.4c-0.3,0.2-0.8,0.4-1.1,0.6v0.5c0,0,3-1.2,7.1-1.5c3.1-0.2,7.4,0,12.5-0.4c5.7-0.4,10.4-2.8,10.4-2.8V14.8z"
		/>
</g>
</svg>
