<?xml version="1.0" encoding="utf-8"?>
<!-- Generator: Adobe Illustrator 25.2.3, SVG Export Plug-In . SVG Version: 6.00 Build 0)  -->
<svg version="1.2" baseProfile="tiny" id="Ebene_1" xmlns="http://www.w3.org/2000/svg" xmlns:xlink="http://www.w3.org/1999/xlink"
	 x="0px" y="0px" viewBox="0 0 30 30" overflow="visible" xml:space="preserve">
<rect y="0" display="none" width="30" height="30"/>
<path id="I" fill-rule="evenodd" fill="#FFFFFF" d="M25,20h-1.5v-7H25V20z"/>
<path id="X_1_" fill-rule="evenodd" fill="#FFFFFF" d="M18.7,16.3L17,13h1.7l1,2.3l1-2.3h1.5l-1.7,3.5l1.8,3.5h-1.7l-1.1-2.4
	L18.4,20h-1.5L18.7,16.3z"/>
<path id="A_1_" fill-rule="evenodd" fill="#FFFFFF" d="M11.4,20H10l1.9-7h1.9l1.9,7h-1.5l-0.4-1.6h-2L11.4,20z M13.5,17.4l-0.7-3
	l-0.7,3H13.5z"/>
<path id="T_1_" fill-rule="evenodd" fill="#FFFFFF" d="M5.1,13h4.7v1.2H8.2V20H6.8v-5.8H5.1V13z"/>
<line fill-rule="evenodd" fill="none" stroke="#FFFFFF" stroke-width="1.2" stroke-miterlimit="10" x1="0" y1="22.5" x2="30" y2="22.5"/>
<path fill-rule="evenodd" fill="none" stroke="#FFFFFF" stroke-width="1.2" stroke-miterlimit="10" d="M1.5,22.5
	c0-4.7,1-9.1,1.3-9.9c0.4-1.1,1.4-2.1,2.7-2.1h19c1.3,0,2.2,1,2.7,2.1c0.4,0.8,1.3,5.3,1.3,9.9"/>
</svg>
