<?xml version="1.0" encoding="UTF-8"?>
<svg width="120px" height="120px" viewBox="0 0 120 120" version="1.1" xmlns="http://www.w3.org/2000/svg" xmlns:xlink="http://www.w3.org/1999/xlink">
    <title>jdo_cn_ximalaya_radio_province_heilongjiang</title>
    <g id="jdo_cn_ximalaya_radio_province_heilongjiang" stroke="none" stroke-width="1" fill="none" fill-rule="evenodd">
        <g id="编组">
            <rect id="矩形" x="0" y="0" width="120" height="120"></rect>
            <g id="黑龙江-" transform="translate(32.000000, 24.000000)" fill="#FFFFFF" fill-opacity="0.189284" fill-rule="nonzero">
                <path d="M1.59957966,0.899264343 L1.86140325,0.788319777 C1.86140325,0.788319777 2.74482775,0.500476861 2.93091522,0.481843078 C3.11687994,0.463331885 4.07481307,0.361091258 4.07481307,0.361091258 L4.53045732,0.221950836 L4.97677265,0.166049486 L5.17169805,0.154893734 C5.13119089,0.22624151 5.55528865,0.0123207735 5.70663816,0.281162135 C5.97582669,0.759020605 6.31989212,0.281162135 6.60405603,0.41552152 C6.8880972,0.550003496 7.16624641,0.688898736 7.71947612,0.501212405 C8.27270582,0.313526074 8.39803254,0.490792197 8.39803254,0.490792197 C8.39803254,0.490792197 8.83649194,0.584574067 9.01398698,0.178063373 C9.19135927,-0.228569913 9.75502264,0.18848358 9.75502264,0.18848358 C9.75502264,0.18848358 10.0682781,0.730702158 10.13088,0.292685658 C10.193482,-0.14508566 10.3814107,0.105121918 10.3814107,0.178063373 C10.3814107,0.251004827 10.3396761,0.772260398 10.527482,0.438691158 C10.7154107,0.105121918 10.9136504,0.292685658 10.9450741,0.397010327 C10.9763751,0.501212405 11.3729771,0.542893236 11.4251454,0.626377489 C11.4773137,0.709739152 12.3052557,0.504890125 12.662578,0.796778534 L12.0350852,0.928686106 C12.3924075,1.22057451 12.667488,1.63750542 13.0848345,1.56456396 C13.5024266,1.49162251 13.6067632,2.01287808 13.6173196,2.10665995 C13.6276306,2.20056441 14.1078246,2.95106455 14.3479216,2.88854331 C14.5880187,2.82602206 14.8594167,2.63833573 15.0892028,2.95106455 C15.3188662,3.26379338 15.2457078,3.25361835 15.3709117,3.22211255 C15.4962385,3.19085192 15.6840444,3.38908105 15.7051572,3.46189992 C15.7259018,3.53496396 15.9346979,3.79559175 15.9765553,3.33685742 C16.0181672,2.8781231 15.9765553,2.94076694 16.2999989,2.90938372 C16.6235652,2.8781231 17.4064583,3.11791047 17.6048206,3.28475638 C17.803183,3.45147971 18.2200386,3.46189992 18.4190147,3.84769279 C18.6179908,4.23336306 18.6748236,3.79767579 18.8312058,3.65167029 C18.9877108,3.50566479 19.0035454,3.75391092 19.107882,4.03525653 C19.1601731,4.17599063 19.8241224,3.76567962 19.8646296,3.84781538 L19.2371367,4.37544566 C19.2776439,4.45758142 19.3219563,4.50441106 19.3898365,4.50441106 C19.5254741,4.50441106 19.4211375,4.8485231 19.2437652,4.93188476 C19.0661474,5.01536901 19.1756395,5.3299367 19.4575939,5.24645244 C19.7394256,5.16309078 19.9848008,5.20293275 20.1100048,5.50524137 C20.2353315,5.80754999 20.2494476,5.42604779 20.3955189,5.3010053 C20.5415902,5.17584021 21.0912602,5.74502874 21.0183473,5.95355548 C20.9451889,6.16208223 21.0286582,6.09956098 20.8407295,6.24544389 C20.6528008,6.39144939 20.7259592,6.46439085 20.7259592,6.46439085 C20.7259592,6.46439085 20.7781276,6.64165697 20.5901988,6.63111417 C20.4022701,6.62081656 20.4022701,6.89186455 20.4441275,6.95450839 C20.4858622,7.01690704 20.8163025,6.94457854 20.9520629,6.71521138 C21.0877005,6.48572163 21.0808266,7.36089649 21.0808266,7.36089649 C21.0808266,7.36089649 21.1958424,7.52774241 21.3210463,7.60068386 C21.4463731,7.67362531 21.5610206,7.59026365 21.3835256,7.89257227 C21.2061533,8.19488089 21.6549236,8.34088639 21.6549236,8.34088639 C21.6549236,8.34088639 22.0830721,8.55983334 21.9786127,8.90382279 C21.8741533,9.24781224 21.8012404,9.32087628 21.9889236,9.30003587 C22.1768523,9.27907286 22.3440364,9.4771794 22.030781,9.67528594 C21.7176483,9.87351507 21.7070919,10.050536 21.915888,10.1340203 C22.124684,10.2173819 22.4378167,10.1965415 22.6153117,10.3842278 C22.7928067,10.5717916 22.938878,10.9471642 22.6570464,11.0722067 C22.3752147,11.1973718 22.1455513,11.6665264 22.4588067,11.8332497 C22.7719394,12.0000956 22.7823731,12.4171491 22.7719394,12.5213512 C22.761383,12.6255532 22.9284444,12.9696653 23.1060622,13.0947078 C23.2833117,13.2198729 23.3982048,13.0842876 23.4399394,13.2615537 C23.4817968,13.4388198 23.3460365,13.699325 23.4609295,13.960198 C23.5758226,14.2205806 23.2624444,14.2936446 23.6175572,14.4082669 C23.9723018,14.5230118 24.2054021,14.7332548 24.1322437,14.8270367 C24.0590853,14.9209411 23.9340041,15.337872 24.1844121,15.3795529 C24.4349428,15.4213563 24.5776998,15.7739271 24.1497968,15.9303528 C23.7218939,16.0867785 23.7635058,16.0345549 23.8157968,16.2847624 C23.8679652,16.53497 24.1497968,16.8372786 24.2750008,16.5558104 C24.4003275,16.2743422 24.4003275,15.9616134 24.5776998,16.211821 C24.7551949,16.4620286 24.4942305,16.806018 24.4942305,16.806018 L24.5152206,16.7747574 C24.5152206,16.7747574 24.1186186,17.0146674 24.3063018,17.5566407 C24.4942305,18.0987367 24.4733632,18.1299974 24.6717256,18.3489443 C24.8700879,18.5678913 25.2249553,18.8701999 25.256379,18.9952424 C25.2875572,19.1204075 25.527777,19.4853599 25.5902563,19.7458651 C25.652981,20.0066155 25.8929553,19.9753549 25.9659909,20.2464029 C26.0392721,20.5173283 25.9139454,20.725855 26.080884,20.8822807 C26.2480681,21.0385838 26.3002364,21.6537439 26.1539196,21.8413076 C26.0078483,22.0289939 25.9765473,22.2896217 26.1227414,22.4460474 C26.2688127,22.6023505 26.133175,22.9568828 26.195777,23.1549893 C26.258379,23.3529733 26.5193434,23.5302394 26.7699968,23.6031809 C27.0204048,23.6762449 27.4275632,23.8012874 27.2813691,24.1244364 C27.1351751,24.447708 27.260379,24.2077981 27.0309612,24.6561122 C26.8012978,25.1044263 26.8220424,25.0731657 26.8429097,25.4068575 C26.863777,25.7403042 26.9472464,25.8967299 26.8742107,26.2302991 C26.8012978,26.5641135 26.9265018,26.8246187 27.0830067,26.9288208 C27.2395117,27.0330229 27.5424562,26.8767198 27.5633235,27.1373476 C27.5840681,27.3979754 27.4901651,27.450199 27.5840681,27.6169223 C27.6780939,27.7837682 28.0016602,28.1173375 28.0538285,28.2006991 C28.1059968,28.2840608 28.5130325,28.6593109 28.7949869,28.3257416 C29.0769414,27.9921724 29.483977,28.5551088 29.483977,28.5551088 C29.483977,28.5551088 29.9850384,28.7740557 30.1415434,28.6906941 C30.2980483,28.6072098 30.454676,28.5342684 30.5381454,28.638593 C30.6217374,28.7427951 30.8931354,28.4509067 31.0392067,28.3257416 C31.185278,28.2006991 31.7387532,28.2528002 31.7178859,28.24238 C31.6970186,28.2319597 32.0205849,28.5446886 32.2292582,28.4717471 C32.4379315,28.3988057 32.9076919,28.346582 32.6362939,28.61763 C32.3648958,28.8888006 32.6780285,29.1180452 32.8972582,29.1180452 C33.1164879,29.1180452 33.6697176,29.451737 33.7534324,29.5246785 C33.836779,29.5976199 33.9411156,30.0146734 34.348274,29.8269871 C34.7553097,29.6393008 35.0058404,29.7853063 35.0058404,29.7853063 C35.0058404,29.7853063 35.2982285,29.9832902 35.4756008,29.941732 C35.6530958,29.8999285 35.3192186,29.5038381 35.6217948,29.4621572 C35.9244938,29.4203538 36.2481829,29.3995134 36.2063255,29.6915244 C36.1644681,29.9832902 36.1958919,30.3899235 36.5403255,30.3899235 C36.8847592,30.3899235 37.0206423,30.7026523 37.0728107,30.859078 C37.124979,31.0156263 37.365076,30.8694982 37.573872,31.349073 C37.7825453,31.8285251 38.4924027,32.537467 38.4924027,32.537467 C38.4924027,32.537467 38.7951017,32.7459938 39.003775,32.9441003 C39.2125711,33.1422068 39.306474,33.2880897 39.9016839,33.079563 C40.4965255,32.8712814 40.2982859,32.9649407 40.4965255,33.1109462 C40.6950106,33.2568291 41.196072,33.0587226 41.196072,33.0587226 C41.196072,33.0587226 41.6762661,32.9441003 41.3002859,33.4445155 C40.924674,33.9450532 41.3315869,33.7780847 41.13347,33.9866114 C40.9351077,34.1952608 40.8410819,34.5182872 40.862072,34.6642927 C40.8829393,34.8101756 40.8725057,34.9249205 41.1123572,35.1333247 C41.352577,35.3418514 41.1543374,35.592059 41.2168166,35.6337398 C41.2794186,35.6755432 41.477781,35.9882721 41.6342859,35.7172241 C41.7909136,35.4461761 41.864072,35.4774367 41.8222146,35.6963837 C41.78048,35.915208 41.7387453,36.3426817 41.9163631,36.6241499 C42.0936126,36.9056181 42.2086284,37.1662459 41.9685314,37.6041398 C41.7283116,38.0419111 41.5925513,38.4693848 41.7387453,38.7925339 C41.8849394,39.1156829 42.6364087,39.8454652 42.6364087,39.8454652 C42.6364087,39.8454652 42.8348938,40.0352356 42.8518332,40.3225881 C42.8687725,40.6100633 42.9024057,40.9394644 43.0457766,41.074682 C43.1892701,41.2100221 43.3579273,41.3620345 43.4590724,41.378952 C43.5602176,41.3958695 43.7709776,41.4549583 43.9650438,41.2775695 C44.1591099,41.1001808 44.5555892,40.8634582 44.8930261,40.9311283 C45.2303404,40.9987983 45.3398325,41.0241746 45.4242838,41.0241746 C45.5086123,41.0241746 45.5758788,41.0325108 45.7109027,41.2100221 C45.8459266,41.3874108 46.0231761,41.5396684 46.335204,41.4043283 C46.647232,41.2691108 46.9170343,41.260652 47.1786124,41.2775695 C47.4400677,41.2946096 47.8532408,41.260652 48.0388373,41.1846458 C48.224311,41.108517 48.2581897,41.0495509 48.4690725,41.0832633 C48.6797098,41.1169757 48.7641611,41.1508108 48.9750438,40.9734221 C49.1858039,40.7957882 49.3291747,40.7197819 49.5317105,40.6859469 C49.7340009,40.6522345 49.8099825,40.6436531 49.9448836,40.8127057 C50.0800303,40.9817582 50.1220104,41.0917221 50.1811754,41.1001808 C50.2400949,41.108517 50.4847337,41.1001808 50.5944713,40.838082 C50.7040861,40.5761057 50.6954937,40.4070531 50.7967616,40.3225881 C50.8980295,40.2381232 51.0245838,40.0606119 51.026425,39.9394923 C51.0281435,39.7971645 51.0622677,39.2284663 51.4267094,39.2398673 C51.7910285,39.2513908 51.6771174,39.1717068 52.087099,38.819136 C52.4972034,38.4665652 52.7020715,38.6031313 52.8161053,38.30732 C52.9298936,38.0116312 53.2942126,37.909268 53.5675746,37.9320699 C53.8408139,37.9548718 53.8522295,37.988952 54.0570976,37.9320699 C54.2622111,37.8751878 54.5354504,37.8525085 54.7291483,37.8979897 C54.9227235,37.9435934 55.2870425,37.6135793 55.2415026,37.6135793 C55.1959627,37.6135793 55.3895379,37.2610085 55.5832358,37.3520934 C55.776811,37.4430557 55.947432,37.0336028 56.0045103,36.9539189 C56.0613431,36.8743575 56.2436254,36.612749 56.5853586,36.7265131 C56.926969,36.8402773 56.9839245,36.5217867 57.0975901,36.4649046 C57.2115012,36.4080226 57.8949675,35.9872913 58.0655886,35.9418102 C58.2363325,35.8963291 58.2250396,35.7484847 58.5211101,35.7372064 C58.8171807,35.7256828 59.0107559,35.3846356 59.1929154,35.4640743 C59.3750749,35.5438809 59.5800657,35.1799091 60.0926655,35.4415176 C60.6051425,35.7030036 60.7076379,35.6688008 60.8327192,35.4185932 C60.9581686,35.1683856 61.4362759,35.0433431 61.4932315,35.1569847 C61.5503098,35.2707488 61.8656519,35.0623447 61.8316504,34.8915758 C61.7975262,34.7211748 61.9784582,35.129034 61.8759628,34.9696661 L61.8503083,34.8805427 C62.1905685,34.7985295 61.8622149,35.4076826 61.733083,35.4428661 C61.6040738,35.4780497 61.3224876,35.9115303 61.0879143,35.899639 C60.853341,35.8879929 60.5097666,36.3527342 60.3255203,36.5205608 C60.1378371,36.6915748 60.2081723,37.3236523 60.090947,37.5748406 C59.9737217,37.8260289 60.0951205,38.0648356 60.1076409,38.0946251 C60.0468801,38.2047116 60.3875086,38.7117466 60.3875086,38.7117466 C60.3875086,38.7117466 60.848431,38.8184005 60.7683987,38.9653867 C60.7132844,39.0661563 60.8106243,39.1764879 60.9479805,39.3310747 C61.0102142,39.4013192 61.0810404,39.4807579 61.1491661,39.5723332 C61.367782,39.8660605 60.8318599,40.4806075 60.853832,40.4795042 C60.8573917,40.4613608 60.8178665,40.5181203 60.7796916,40.6057726 C60.7411484,40.6933024 60.6628345,40.8091506 60.5965501,40.9376256 C60.5302656,41.065978 60.4536703,41.2011955 60.3749882,41.3155727 C60.2959378,41.4297046 60.2380003,41.5191958 60.177976,41.5839236 C59.9605876,41.8192978 60.2673373,41.9277905 59.2142737,42.1491893 C58.9017548,42.2148979 58.8186537,42.4727061 58.689399,42.6800069 C58.3831403,43.1712278 58.2538856,43.441295 58.2538856,43.441295 C58.2538856,43.441295 59.1312954,44.3928439 58.5633358,44.7527701 C57.9951307,45.1123286 58.1753262,46.2130703 58.1753262,46.2130703 C58.1753262,46.2130703 58.0047051,47.0199622 58.0047051,47.2273856 C58.0047051,47.4350542 58.0658341,48.1014571 57.7609256,48.3781443 C57.4561399,48.6548315 57.2841686,49.2061218 57.2841686,49.2061218 C57.2841686,49.2061218 57.7772513,49.7516503 57.7493872,50.1253067 C57.721646,50.4988405 57.721646,50.6095399 57.3198885,51.0800429 C56.9182538,51.5505459 56.5787301,51.3990238 56.8142854,51.8556741 C57.049718,52.312447 56.1898613,53.398723 56.6745971,52.5131279 C57.1595783,51.6276555 56.3302862,53.6099468 56.13622,53.485272 C55.9422766,53.3608425 55.8779561,53.6345875 55.9886757,53.8836917 C56.0997635,54.1326734 55.7602398,54.7548211 55.70488,54.9069562 C55.6495202,55.0590912 55.6820487,55.440716 55.6668279,55.4186497 C55.6517297,55.3964607 55.618833,55.603026 55.4117555,55.6774386 C55.2050461,55.7518511 55.0642531,55.9253169 55.0312336,55.9833023 C54.9980913,56.0411651 54.586514,55.7479282 54.611432,55.9215166 C54.6362273,56.0949824 54.5700656,56.2602347 54.5202295,56.3015477 C54.4706389,56.343106 54.4873328,56.5827707 54.4459664,56.640511 C54.4044772,56.6982512 54.3465397,57.1611536 54.3631108,57.2850928 C54.3796819,57.4090319 54.1727271,57.6406057 54.3300913,57.8222851 C54.4873328,58.0040871 54.6278804,58.5577066 54.5592637,58.7384053 C54.5485845,58.712416 54.1209271,59.6064699 52.9335761,59.1932167 C52.9351718,59.1802221 52.3105022,59.051747 52.2645941,59.0333584 C52.2185632,59.0149698 51.7593592,58.8408911 51.3551468,58.8131856 C50.9509344,58.7857253 50.6203713,58.6480559 50.51002,58.6114013 C50.3997914,58.5748693 49.9037627,58.473732 49.9037627,58.473732 C49.9037627,58.473732 49.4995503,58.2903363 49.3160405,58.2903363 C49.1322853,58.2903363 48.9301177,58.2536817 48.8198891,58.152667 C48.7096605,58.0517749 48.470791,57.960077 48.4432952,57.8959621 C48.4156767,57.831602 48.1491886,57.3546017 48.0573724,57.5381199 C47.9656789,57.7215156 47.8736171,57.9049112 47.8187483,58.0701635 C47.7633886,58.2352931 47.8791409,58.6454815 47.6035694,58.6729418 C47.3279979,58.7005247 47.343096,58.5232586 47.3245609,58.6516111 C47.3061486,58.7799635 47.0837274,58.8131856 47.1663375,58.8682288 C47.2490703,58.923272 47.5781603,59.2586801 47.4496421,59.3319893 C47.3208784,59.4052986 46.9080736,59.6655586 46.7530416,59.4645099 C46.7530416,59.4645099 46.431562,59.6388338 46.4131496,59.7765031 C46.3947373,59.9140499 46.3672415,60.0058703 46.3672415,60.0058703 C46.3672415,60.0058703 46.4173231,60.0629976 46.1783308,60.1088465 C45.9394613,60.1546954 45.8753863,60.0904579 45.8753863,60.0904579 C45.8753863,60.0904579 45.5812797,60.0171486 45.5629901,60.0904579 C45.5445778,60.1640123 45.4302985,60.2353601 45.3384822,60.317741 C45.246666,60.4002445 45.274039,60.6021514 45.0721169,60.5472307 C44.8698266,60.4920649 44.7916355,60.6342701 44.7916355,60.7260905 C44.7916355,60.7720621 44.8805057,60.4883872 44.6692547,60.5250418 C44.4580037,60.561819 44.426089,60.5006463 44.4077994,60.638193 C44.389387,60.7757398 44.2819817,60.7214321 44.2177839,60.730749 C44.1533407,60.7399433 43.8136943,60.959871 44.1533407,61.2993246 C44.4082904,61.5539454 44.3945425,61.4678868 44.4183558,61.5212137 C44.423634,61.5334728 44.5050166,61.7221398 44.5640588,61.8604221 C44.5817347,61.9016126 44.7393444,62.4517995 44.7300155,62.3960208 C44.7286652,62.3880524 44.6658178,62.1805064 44.6595576,62.1534138 C44.6572253,62.1426259 44.6474054,62.0968995 44.8047696,62.7130403 C44.9876656,63.4297054 45.0405704,63.7843602 45.1462573,64.0710998 C45.2521897,64.3577168 45.2293584,64.3425156 45.2368461,64.4180315 C45.2444565,64.4934247 45.3653643,64.9837875 45.3728519,65.0441021 C45.3804624,65.1044167 45.4333672,65.4665495 45.4634407,65.5344648 C45.4937597,65.60238 45.5669181,66.14987 45.6877031,66.3700429 C45.6778832,66.3610937 45.7279648,66.7254332 45.6210504,67.0137665 C45.5611489,67.1752184 45.7225638,67.3583689 45.8033327,67.5076844 C45.8104521,67.5100136 45.6399538,67.6896089 45.6379898,67.8413762 C45.6365168,67.9593084 45.5640949,68.0608135 45.5343896,68.1563117 C45.4666322,68.3750134 45.2012489,68.4267467 45.3368865,68.2969232 C45.3329585,68.246048 45.4620905,68.5244515 45.4866403,68.5489696 C45.5212555,68.5839079 45.2594319,68.5158701 45.2477707,68.5766751 C45.2289901,68.6738895 45.3670827,68.8684409 45.3570173,68.9722752 C45.3518619,69.0241311 45.3027623,69.0783162 45.3030078,69.127475 C45.3032533,69.1766339 45.3712562,69.2428329 45.3793576,69.2867203 C45.3851268,69.2993472 45.4088174,69.4340743 45.3966653,69.5688015 C45.3836539,69.7165232 45.390896,69.9631757 45.4690872,70.0549961 C45.5116811,70.1046453 45.7832018,70.4109994 45.7925307,70.4242392 C45.8766138,70.5446233 46.0694525,70.7042363 45.7753459,70.7580537 C45.67506,70.7384391 45.5044389,70.7840429 45.3264528,70.8601717 C45.1485895,70.9364231 45.0938435,70.7259349 44.9838604,70.6081253 C44.9451945,70.5666896 44.8122573,70.4914189 44.7314885,70.4655523 C44.6227329,70.4309817 44.3924558,70.5069879 44.3510893,70.498284 C44.1162705,70.44888 44.1251084,70.4993873 43.9846836,70.6396311 C43.8445043,70.7796296 43.6785476,70.9593476 43.5765432,70.9977184 C43.4745388,71.0357215 43.295939,70.5885107 43.1939346,70.4358853 C43.0920529,70.2830148 42.966358,70.2657295 42.8515877,70.2021049 C42.7366946,70.1384804 42.4661558,70.0782883 42.3387424,69.9636661 C42.3030224,69.9314247 42.348685,69.7688695 42.2855921,69.7519519 C42.1238089,69.7092904 41.9205366,69.7085548 41.9205366,69.7085548 L41.7658728,69.670184 C41.6460698,69.6251932 41.6465608,69.5014992 41.5543763,69.4463334 C41.4825682,69.4034266 41.2816281,69.6430914 41.2272503,69.4976989 C41.1957038,69.4126209 41.1409577,69.3154065 41.104624,69.1973517 C41.0819155,69.1236747 41.2472583,68.8028549 41.2100654,68.751612 C41.1964403,68.7328556 41.0882984,68.6970591 41.076269,68.6741347 C40.9927997,68.5130505 40.9948864,68.2632107 40.9516788,67.8467702 C40.9349849,67.6832342 40.9203778,67.5884716 40.9100669,67.5160205 C40.9015972,67.4555833 40.7712378,67.5057229 40.7692738,67.4489634 C40.7669415,67.3761446 40.8955825,67.1883356 40.9078574,67.0189153 C40.9406314,66.5593229 40.6487343,66.8802653 40.6157148,66.9622784 C40.5828181,67.0444142 40.4441117,67.354446 40.1481639,67.485618 C39.8523388,67.6169127 39.7261528,67.8560871 39.6604821,68.0856994 C39.5948114,68.3154344 39.5010312,68.3424043 39.2092568,68.0437734 C38.9176052,67.7451425 39.4171936,67.904633 39.1252965,67.1992462 C39.0112627,66.923172 38.7493164,66.8932599 38.5246857,66.9818929 C38.3265688,67.0598606 38.2075023,67.2719425 38.1613487,67.3001383 C38.1025519,67.3360574 38.0358992,67.2930281 38.0271841,67.3632725 C38.0106129,67.4972642 37.9855722,67.7445296 37.9639683,67.8307108 C37.9433465,67.9135821 37.8660146,67.8097478 37.8241572,67.8479961 C37.791506,67.8777856 37.8271032,67.991795 37.7863505,68.0027055 C37.6307048,68.0440186 37.4280462,67.9732838 37.2843072,67.9834588 C37.1405681,67.9935112 36.8084093,67.9801488 36.5575104,68.0442638 C36.4070201,68.0826347 36.3042792,68.1726162 36.2365218,68.2462932 C36.055958,68.4431738 35.9328408,68.5797399 35.4726548,68.4977267 C35.1274846,68.4363088 35.149334,68.6110005 35.1875089,68.9792629 C35.2000293,69.0987888 35.0966746,69.3738823 35.1130003,69.5380312 C35.1253979,69.6611123 35.2364857,69.6235995 35.2409047,69.696541 C35.2595626,70.0133153 35.2044483,69.9324054 35.0843997,70.0790239 C34.9363645,70.2597225 34.7392296,70.0790239 34.509198,70.2760271 C34.2790436,70.4730303 34.1329723,70.5299124 34.1329723,70.5299124 C34.1329723,70.5299124 33.8697985,70.206886 33.5740962,70.3383032 C33.2782711,70.4694752 33.0876419,69.7179943 33.0876419,69.5374183 C33.0876419,69.4660705 33.0516764,69.2407488 32.9060961,69.0499977 C32.8550326,68.9829406 32.735966,69.0921689 32.6754508,68.965165 C32.65041,68.9128187 32.8604335,68.7763753 32.8330605,68.7283198 C32.7274964,68.5438208 32.6373986,68.3883758 32.619109,68.339217 C32.6108848,68.3175184 32.8060557,68.2027735 32.8093699,68.0821443 C32.8123159,67.9883624 32.6295427,67.8910254 32.5939455,67.8310786 C32.5571208,67.7688025 32.3781527,67.9270671 32.3396095,67.8547386 C32.3242659,67.8260524 32.1986937,67.7675766 32.1828591,67.7388904 C32.1567136,67.6909574 32.2695199,67.64376 32.2430061,67.5987692 C32.2216478,67.5622372 32.2368686,67.4683328 32.2160013,67.4352333 C32.1983255,67.4070374 31.9492678,67.2877567 31.9187033,67.2974414 C31.9187033,67.2974414 31.9353971,67.0388976 31.8634662,66.8014395 C31.8371979,66.7145227 31.7942358,66.6202504 31.7419447,66.5480445 C31.7106437,66.50477 31.6560204,66.4860136 31.6220189,66.4494816 C31.3322086,66.1372432 31.4396139,65.5070045 31.4685827,64.7281859 C31.4824533,64.3567361 31.3334361,63.847617 30.884543,63.847617 C30.7696499,63.847617 30.6521792,63.940173 30.5342174,64.03751 C30.4158874,64.134847 30.2898241,64.3100291 30.2013221,64.4458595 C30.1259542,64.5615851 30.0955125,64.8577642 30.0288598,64.9413711 C29.9430582,65.0490057 29.7717006,64.868307 29.6061123,64.8285877 C29.3615963,64.7703571 29.3813589,65.2040829 29.3813589,65.2040829 C29.3813589,65.2040829 29.5948194,65.252874 29.6147047,65.3509465 C29.6302938,65.4271979 29.4255485,65.5173021 29.4574632,65.6219945 C29.4732979,65.6747085 29.5940829,65.6829221 29.6275933,65.7318358 C29.6537389,65.7699615 29.6174052,65.8695051 29.6218241,65.9181736 C29.6298028,66.0097489 29.4343864,66.1198353 29.4466613,66.2150882 C29.451694,66.254685 29.5718653,66.3630552 29.5722335,66.3935803 C29.5771435,66.7543646 29.26978,66.5193583 29.0273508,66.6890238 C28.7645452,66.8730324 28.4877462,66.9460965 28.3894243,66.8805105 C28.2907341,66.8146793 28.1413485,66.8669029 27.9787061,66.8246091 C27.8161865,66.7819475 27.7470788,66.278345 27.7706466,66.1068407 C27.7940917,65.9355815 27.7145503,65.9598544 27.5009671,66.1238808 C27.447694,66.1650712 27.3421299,66.1459471 27.2924165,66.1253519 C27.143522,66.0638113 27.0332934,65.7894534 27.0949134,65.6910131 C27.177278,65.5595959 27.177278,65.2645201 27.0621394,65.1988115 C26.9472464,65.1332255 26.866723,64.744613 26.7188105,64.679027 C26.570898,64.6131958 26.6201203,64.1536034 26.4887789,63.989577 C26.3983129,63.8767936 26.447658,63.8879494 26.4606694,63.7405954 L26.4692618,63.7575129 C26.4780997,63.6699831 26.7616499,63.7240456 26.8337035,63.65895 C26.9056345,63.5939769 26.8693008,63.5390563 26.8856264,63.5108604 C26.934726,63.4263955 26.9527701,63.4053099 26.9726554,63.3593384 C26.9988009,63.2981656 26.9428274,63.0832641 26.7148825,63.127029 C26.4869376,63.1707939 26.3028142,63.0396219 26.3010957,63.0448933 C26.1887803,62.9061206 26.0026929,62.9428978 26.0026929,62.9428978 C26.0026929,62.9428978 25.8788391,62.8082932 25.6486848,62.956015 C25.4186532,63.1037368 25.3252412,63.050655 25.2266737,62.9193604 C25.1282291,62.7880658 24.9747928,62.8176101 24.8762254,62.9327228 C24.7775352,63.0474677 24.8780666,62.8733889 24.5164481,63.1358555 C24.228479,63.3451178 24.308634,62.8833187 24.3132985,62.5707125 C24.3144032,62.4910286 24.2763511,62.3249182 24.2665311,62.2950061 C24.2170633,62.1472843 24.0708692,62.069194 24.1531111,61.3797441 C24.2353529,60.6902941 24.5654249,61.1822505 24.5654249,60.7389626 C24.5654249,60.6075454 24.5779453,60.4068644 24.4918983,60.2816993 C24.432856,60.196131 24.2521695,60.0781988 24.2007377,60.0055025 C24.0736925,59.8261524 24.0569986,59.7342094 24.0544209,59.6813728 C23.9743885,59.2405367 23.9410008,59.2406593 23.7646105,59.2093987 C23.7214029,59.2016754 23.5787685,59.2602738 23.5209538,59.2613771 C23.3475094,59.2650548 23.1459556,59.2146701 23.1388362,59.1428319 C23.1292617,59.0468434 22.8506215,58.7688078 22.6777909,58.7688078 C22.5050831,58.7688078 22.3224326,58.4809648 22.1881452,58.4042231 C22.1040622,58.3562901 21.9336866,58.4132948 21.7568053,58.4696865 C21.6507501,58.5037667 21.5421173,58.5373565 21.4487053,58.5480219 C21.1989111,58.5769533 20.9683885,58.7016281 20.6802966,59.0084725 C20.3923275,59.3154396 20.5554609,59.0852143 20.2193741,59.0852143 C19.8834102,59.0852143 19.7103341,58.9796637 19.5087802,58.9796637 C19.3071036,58.9796637 18.8270323,58.5480219 18.6445046,58.5097736 C18.4620996,58.4714028 18.1354645,57.9534571 18.1354645,57.9534571 C18.1354645,57.9534571 18.0971668,57.7137924 18.0106288,57.7137924 C17.9242135,57.7137924 17.7802289,57.6274885 17.8666442,57.4357567 C17.9530595,57.2437797 17.9434851,57.0424858 17.9434851,57.0424858 C17.9434851,57.0424858 17.8282238,56.9369352 17.9434851,56.6012819 C18.0586237,56.2657512 17.4922598,56.4382363 17.4057218,56.4382363 C17.3193065,56.4382363 17.1176299,56.7546429 16.8294153,56.668339 C16.5413234,56.5821578 16.5126001,56.7930138 16.3780672,56.9369352 C16.3025766,57.0177225 16.2391154,57.050209 16.1707442,57.0595259 C16.1174711,57.0668813 16.0612521,57.060384 15.9941084,57.0520479 C15.8403039,57.0329237 15.7731602,57.2533418 15.6963193,57.1862847 C15.6194784,57.1192276 15.4657967,57.1096655 15.3795042,57.1096655 C15.2930889,57.1096655 15.0241458,56.9944302 14.9090073,57.0999808 C14.7936232,57.2054088 14.7552028,57.0902962 14.7647772,56.9272506 C14.7744744,56.7643275 14.5919466,56.5244176 14.4672337,56.4573605 C14.3423979,56.3901808 14.1310242,56.4191122 14.1310242,56.4191122 C14.1310242,56.4191122 14.0446089,56.3328084 14.0061885,56.1792022 C13.967768,56.0258413 13.8429323,56.1409539 13.8045119,56.3806187 C13.7660914,56.6204061 13.602958,56.7259567 13.4300047,56.7355187 C13.2572969,56.7450808 13.276323,56.668339 13.0076254,56.716272 C12.7386824,56.7643275 12.6809903,56.7067099 12.6809903,56.7067099 C12.6809903,56.7067099 12.5464574,56.6299682 12.354478,56.7834517 C12.1624986,56.9369352 12.0376629,56.7643275 12.0376629,56.7643275 C12.0376629,56.7643275 11.8647096,56.5244176 11.6920017,56.5821578 C11.5190484,56.6396528 11.4039098,56.3614946 11.4133615,56.2943149 C11.4229359,56.2271352 11.3749411,55.9586616 11.2405309,55.9874704 C11.1061208,56.0162792 10.9717106,55.738121 10.9717106,55.738121 C10.9717106,55.738121 10.9908595,55.3257259 10.7027676,55.4024677 C10.4146757,55.4790869 10.3282604,55.0380056 10.1842759,54.980388 C10.0401685,54.9230155 10.0976151,54.6644718 9.9057584,54.5008132 C9.85776354,54.4599905 9.8270763,54.4131609 9.81062793,54.3625309 C9.76103734,54.2110089 9.83849195,54.0260195 9.95375326,53.8678775 C10.107435,53.6570216 9.88648681,53.4267963 9.80007152,53.3979875 C9.71365623,53.3693013 9.62724094,52.9854698 9.76165108,52.841671 C9.89606123,52.6978721 9.87691239,52.5251418 9.87691239,52.5251418 C9.87691239,52.5251418 9.77134825,52.1319935 9.7904971,51.9880721 C9.79295208,51.9702964 9.79209283,51.9466364 9.78902411,51.9192987 C9.78595538,51.8915932 9.64270731,51.3553816 9.67057133,51.1879227 C9.69671687,51.0310066 9.67928651,50.6322191 9.467299,50.9020412 C9.3582979,51.0410591 9.28194803,50.6488915 9.20461616,50.6659316 C9.17012369,50.6735322 9.09745629,50.7090835 9.05952685,50.7459833 C8.99631112,50.8076464 8.96402814,50.8867174 8.88595978,50.9433543 C8.82924975,50.9845448 8.76468378,50.9869966 8.71018322,50.9939842 C8.24643754,51.0533181 7.65441915,51.0940182 7.65441915,51.0940182 C7.65441915,51.0940182 7.58224274,50.9776797 7.35454336,50.9858933 C7.27868449,50.9885903 7.22111521,51.0509889 7.14451984,51.0554022 C7.07393917,51.0596928 7.01919312,51.0442464 6.95610014,51.0533181 C6.84366206,51.0696227 6.84783553,51.1146135 6.76596195,51.1463645 C6.62516886,51.2009173 6.65867933,51.0696227 6.57656026,50.9963135 C6.52721516,50.9523034 6.41232211,50.9927583 6.35205235,50.9418832 C6.27889395,50.8802201 6.18867345,50.8243187 6.060278,50.800291 C5.89309387,50.7693981 5.89947682,50.915281 5.81821699,50.8734776 C5.66293952,50.7937937 5.65704756,50.5643039 5.63311151,50.4988405 C5.59665506,50.3986839 5.25234414,50.0599658 5.12505344,49.6595847 C5.06539743,49.4727565 5.04060213,48.9450036 5.11965248,48.6099633 C5.13659184,48.5381251 5.29015083,48.6417143 5.31875134,48.579193 C5.34587887,48.5194914 5.26719677,48.4425044 5.30254848,48.3945715 C5.32857126,48.3591428 5.34256465,48.3201589 5.37362014,48.2933116 C5.42100125,48.2524889 5.46015818,48.487863 5.52067343,48.4591768 C5.62120486,48.4113664 5.74076238,48.382435 5.88155547,48.3794928 C6.00958267,48.3765506 6.01301964,48.5585978 6.10115341,48.5454806 C6.5769285,48.4758491 6.52807441,48.2812977 6.58957165,48.1968327 C6.6626073,48.0967987 7.27131955,47.8458556 7.672095,47.9460122 C8.07299321,48.0459236 8.09680651,47.80111 8.13964591,47.6276442 C8.16886017,47.5092216 8.16554595,47.1506438 8.16947392,47.1621674 C8.22348347,46.9836753 8.19169149,47.0175104 8.2754063,46.6656751 C8.35924386,46.3138399 8.06734676,46.4865701 8.01174146,46.5369549 C7.95601342,46.5872171 7.92250295,46.7212087 7.87794506,46.8273722 C7.83338718,46.9334131 7.77753639,46.8664786 7.64373999,46.7268479 C7.50994359,46.5872171 7.6550329,46.4307914 7.72180835,46.3078329 C7.83608766,46.0980803 7.67688222,46.0763817 7.59955035,46.0765043 C7.53510713,46.0766269 7.49484546,46.0891311 7.34852866,46.1732283 C7.13960988,46.2928768 7.20724457,46.2274134 7.12328426,46.4428052 C7.03920121,46.6581971 7.0890373,46.6982842 7.03576423,46.7666898 C6.85802369,46.6970583 6.66776276,46.5742225 6.5471005,46.6003343 C6.3707102,46.63846 6.24820671,46.7756389 6.16056393,47.0009606 C6.13282265,47.0721858 6.09820744,47.1321326 6.05941876,47.1828852 C5.89186638,47.4028129 5.64600015,47.4480488 5.53626256,47.4709733 C5.40123867,47.498924 4.93908871,47.3943541 4.78160176,47.090084 C4.50357529,45.8042304 5.24669769,45.8204124 4.5088535,45.9385898 C4.0706396,46.0089568 4.21339668,45.7105711 4.35738124,45.4188053 C4.45582593,45.2192277 4.77804204,45.1315753 4.72685571,45.1042376 C4.34645658,44.9381272 3.71000306,44.5607931 3.49826105,44.4339118 C3.40558557,44.3785008 3.33181342,44.3067852 3.28283657,44.2210944 C3.22011184,44.1111305 3.19813977,43.9783648 3.22993176,43.8275783 C3.28639629,43.5597176 3.04642202,43.376322 3.04642202,43.376322 C3.04642202,43.376322 2.66798688,43.1923134 2.61250433,43.147813 C2.63165318,43.0382169 2.83099754,42.9781475 2.88500709,42.8755391 C2.98836174,42.6797617 3.12387663,42.4891332 3.17174874,42.2741092 C3.24453889,41.9466695 3.78402071,41.6762344 4.05554147,41.5738712 C4.32718499,41.471508 4.56249481,41.1226149 4.88912987,40.9648407 C5.15451319,40.8364883 5.65545183,40.5894681 5.83662934,40.5146877 C5.87848674,40.497525 5.90328204,40.4893115 5.90414128,40.4939699 C5.92009865,40.4884533 5.93568777,40.4818334 5.95066315,40.4747232 C6.1757848,40.3667208 6.29313284,40.0945695 6.40139745,40.0603667 C6.5167815,40.0239572 6.65646985,39.5994257 6.65646985,39.5994257 C6.65646985,39.5994257 6.6630983,39.3237193 7.14231036,39.0898163 C7.3929638,38.9674708 7.59169442,38.9074013 7.74292117,38.8882772 C7.95343569,38.7894691 8.21967826,38.673008 8.45118285,38.5880526 C8.68268745,38.5027295 9.34049929,37.6266965 9.34049929,37.6266965 C9.34049929,37.6266965 9.85236259,36.9938834 10.0594401,36.8357414 C10.2666404,36.6775995 10.6564912,36.3611929 10.7418018,36.2028058 C10.8271123,36.0446638 11.7651601,35.3754413 11.8109455,35.4310974 C11.9320987,35.6230744 11.9834078,35.8069604 11.9005523,36.0151194 C11.7237937,36.459388 11.9227698,36.2927873 12.1007559,36.8815903 C12.2787419,37.4701482 12.3677349,36.9482797 12.4455578,37.7590944 C12.5235034,38.569664 12.7039444,38.1071294 12.8128228,38.1112975 C12.9894586,37.9162557 13.1674446,37.2243539 13.0605302,36.7328879 C12.9360627,36.1611249 13.2721495,35.8128448 13.1475593,35.5020774 C13.0230918,35.1911875 13.5086868,34.4947498 13.4837687,34.0472938 C13.4588507,33.5995927 13.8119995,33.2822054 13.9915813,32.7578851 C14.1711631,32.2336873 14.5304494,31.5436244 14.5304494,31.5436244 C14.5304494,31.5436244 14.5165788,30.6604811 15.4286038,31.0883226 C16.3403833,31.5161641 16.5851448,30.0738847 16.6079761,29.9829224 C16.6235652,29.9204012 16.617796,29.6749746 16.6198827,29.4686545 C16.6209875,29.3748727 16.6235652,29.2891818 16.6308074,29.2324223 C16.6533932,29.0503751 16.5737291,28.868328 16.5737291,28.4930779 C16.5737291,28.1178278 16.220703,27.9359033 16.1070374,27.776658 C15.9930036,27.6174127 16.2550727,27.6628938 16.2550727,27.6628938 C16.2550727,27.6628938 16.4712337,27.6174127 16.5054807,27.446889 C16.5396049,27.2762428 16.5623134,26.9009927 16.5167736,26.673587 C16.4712337,26.4460587 16.5851448,26.3664974 16.6308074,26.298337 C16.6763473,26.2300539 16.5851448,25.7977992 16.5851448,25.7977992 C16.5851448,25.7977992 16.4484024,25.5930728 16.6421003,25.4454736 C16.8357982,25.2975066 16.8357982,25.1723416 16.8357982,25.1723416 C16.8357982,25.1723416 16.6763473,24.922134 16.8813381,24.922134 C17.0863289,24.922134 16.9722951,24.6833273 16.9722951,24.6833273 C16.9722951,24.6833273 16.6648089,24.3421575 16.9380481,24.3876386 C16.9722951,24.3934004 17.0035961,24.3920519 17.0317056,24.3855546 C17.230068,24.3399508 17.2910742,24.0351904 17.2910742,24.0351904 C17.2910742,24.0351904 17.7125942,23.7395017 17.6669316,23.5348978 C17.6213917,23.3300488 17.8035512,23.2617658 18.0653748,22.9094402 C18.3273212,22.5567468 18.1567001,22.977478 18.2019945,22.4770629 C18.2476571,21.9767703 18.7258872,22.2496572 18.7600114,21.9994496 C18.7943811,21.749242 19.0333734,21.6696807 19.1472845,21.7151618 C19.2610728,21.7606429 19.5457277,21.3397891 19.3978151,21.0556239 C19.2497799,20.7713361 19.5116035,20.4641239 19.295197,20.2595201 C19.0789133,20.0547936 19.2497799,19.9866332 19.3521525,20.020836 C19.4289934,20.0463349 19.5124627,19.9310996 19.6021922,19.7760224 C19.6318975,19.7242892 19.662462,19.6681426 19.693763,19.6112605 C19.8192124,19.3838548 20.0582047,19.6112605 20.0240805,19.2814916 C19.9899563,18.9517227 20.3769839,19.0767652 20.4112308,18.9972038 C20.445355,18.9175199 20.5136035,18.3489443 20.4339394,18.1215386 C20.354398,17.8940103 20.4225237,17.9963735 20.2973198,17.7120857 C20.1722385,17.4277979 19.9899563,17.7350102 19.8305053,17.5301612 C19.6710544,17.3254347 19.7767413,17.3006714 19.6596387,17.1093074 C19.5743282,16.9699218 19.7001459,16.859345 19.478093,16.8765077 C19.3600085,16.8096957 19.0266222,16.3029059 18.9685619,16.1870577 C18.9106244,16.0712095 18.6351757,15.6222824 18.3596042,15.2602721 C18.0840327,14.8982619 18.2001532,14.6520998 17.9535505,14.5507173 C17.9073969,14.5318383 17.864312,14.5009455 17.7519967,14.3830132 C17.6778563,14.2448535 17.5694689,14.1451873 17.4254844,14.0619482 C17.3690198,14.0292165 17.2886192,14.054838 17.2308045,13.9977107 C17.2170566,13.9842257 17.2034314,13.96976 17.1898063,13.954191 C16.9719268,13.7054545 17.1781451,13.9807932 16.6551117,13.8378525 C16.132201,13.6949117 16.2291727,14.1191981 16.2291727,14.2746431 C16.2291727,14.430088 16.0236909,14.7715031 15.7622355,14.8087707 C15.5009029,14.8461608 15.6064671,15.0235495 15.61285,15.085703 C15.6188647,15.1478565 15.4220981,15.330394 15.3849051,15.5603741 C15.3474667,15.7903542 14.9029926,15.4836324 14.8657996,15.5581675 C14.8283612,15.6328252 14.7059805,15.7327366 14.4973072,15.9033828 C14.2886339,16.0741517 13.9116717,15.6780612 13.8715328,15.6009516 C13.8312711,15.5239647 13.511019,15.6016872 13.4057004,15.8804584 C13.3005045,16.1589844 13.3151116,16.209124 13.2155622,16.2340099 C13.1160128,16.2588958 12.8961693,16.3048673 12.7313174,16.0697384 C12.56622,15.8347321 12.3550918,15.7018438 12.1049293,15.8121754 C11.8547669,15.922507 11.4916754,15.9125771 11.3609477,15.9312109 C11.3092704,15.9385664 11.1904493,15.9694592 11.0518657,15.8550821 C10.9569808,15.7767467 10.8525214,15.5641744 10.7539539,15.4922137 C10.679568,15.4380286 10.6014997,15.4392545 10.5415982,15.4017418 C10.505019,15.3788173 10.4723677,15.3604287 10.4452402,15.3485374 C10.22822,15.2534071 10.0985971,15.3370139 9.98542249,15.6389547 C9.87224793,15.9408956 9.50891091,16.0215603 9.45919757,15.9717884 C9.40936148,15.9221392 9.16374075,15.9312109 9.10776721,16.0430136 C8.90719536,16.4435174 7.74746289,15.7866765 7.46428096,15.7259941 C7.2899774,15.6887266 6.94763046,15.6513364 6.99746655,15.4276084 C7.04717989,15.2038804 6.87913652,14.9613961 6.82316298,14.9116242 C6.76706669,14.8618524 6.56747683,14.7477205 6.65462862,14.3684249 C6.74165765,13.989252 6.65511961,13.9168009 6.58036548,13.823632 C6.50561134,13.730463 6.64885941,13.4941082 6.53052939,13.3760534 C6.41219936,13.257876 6.34382817,12.9487023 6.27778921,12.6650274 C6.21175026,12.3813526 6.37684765,12.0713208 6.22500715,11.952653 C6.0730439,11.8339852 6.11281457,11.5568077 6.12594871,11.4513797 C6.13908285,11.3458291 6.29902479,10.9573393 6.18020376,10.9309823 C6.06138274,10.9046253 5.97398546,10.8049591 5.93433754,10.7522451 C5.89481236,10.6994085 5.91457495,9.93432004 6.09955768,9.86174636 C6.18032651,9.82999537 6.30147977,9.82398843 6.38040737,9.75791205 C6.48192079,9.67295671 6.53310711,9.52695121 6.54243604,9.50451712 C6.5588844,9.46455256 6.517027,9.0680943 6.53016114,9.10769109 C6.54341803,9.00863782 6.23310858,8.93753522 5.92120339,8.91706258 C5.60929821,8.89646735 5.18974215,8.66918423 5.31506887,8.41873147 C5.37386564,8.3012896 5.30696744,8.06910285 5.22411187,7.99910357 C5.19649335,7.97581134 5.17550327,8.08307819 5.14837574,8.06468958 C5.08319603,8.02055694 5.04649408,7.96281673 5.04649408,7.96281673 C5.04649408,7.96281673 4.81363924,7.43261204 4.55525262,7.34826965 C4.48577669,7.32559037 4.35308503,7.36506457 4.31478734,7.33907535 C4.11016478,7.20067047 4.10856904,6.88622538 4.01613905,7.12368352 C3.92370906,7.36114167 3.57006921,7.80381662 3.47751647,7.96870108 C3.38508648,8.13358555 3.10104532,8.56890505 2.97891007,8.60519189 C2.75771639,8.67445563 2.64245509,8.52121728 2.55653079,8.50810007 C2.47072925,8.49498287 2.42813535,8.42964204 2.23431469,8.40034287 C2.04073953,8.37116628 2.07069028,8.25887322 2.00477408,8.14020544 C1.93861237,8.02153766 1.97163185,7.79719672 1.91884978,7.59933536 C1.86606772,7.40147401 1.49622501,7.34863742 1.33763331,7.30254333 C1.17916436,7.25632664 1.08673437,7.05184539 0.954533707,6.97265181 C0.822455792,6.89358082 0.74978839,6.72195387 0.67061529,6.5703092 C0.623847925,6.48069541 0.543570084,6.44207934 0.453595074,6.40432142 L0.373808229,6.37588038 C-0.29308704,6.17213467 0.135675186,6.0953929 0.135675186,6.0953929 C0.135675186,6.0953929 0.452613082,5.93712833 0.43947894,5.88441434 C0.426222049,5.83157776 0.428799777,5.62415433 0.763781775,5.6798105 C1.09986851,5.73571185 1.08538413,5.19950021 1.54900707,4.95431885 C1.77351498,4.83565107 1.91884978,4.64428702 1.90559289,4.51250204 C1.89245875,4.38047188 2.03116511,4.24194441 2.14998613,4.25518421 C2.26892991,4.26830141 2.34442054,3.66674894 2.34442054,3.66674894 C2.34442054,3.66674894 2.3919244,3.57811588 2.78263443,3.46570023 C3.17346722,3.35352975 2.88918056,3.1226915 2.88918056,3.1226915 C2.88918056,3.1226915 2.68210301,3.03405844 2.77674248,2.77968278 C2.8715047,2.52542971 2.51626912,2.57863407 2.51626912,2.57863407 C2.40063957,2.48289075 2.23063222,2.4321382 2.36541061,2.21883042 C2.53210374,1.95526046 2.10150028,1.45582603 2.10150028,1.45582603 L1.52249329,1.03877254 C1.52249329,1.03877254 1.46676525,0.977967559 1.50678142,0.940945174 C1.54667484,0.903922788 1.59270571,0.897548073 1.59957966,0.899264343" id="黑龙江"></path>
            </g>
        </g>
    </g>
</svg>