<?xml version="1.0" encoding="UTF-8"?>
<svg width="120px" height="120px" viewBox="0 0 120 120" version="1.1" xmlns="http://www.w3.org/2000/svg" xmlns:xlink="http://www.w3.org/1999/xlink">
    <title>jdo_cn_ximalaya_radio_province_tibet</title>
    <g id="jdo_cn_ximalaya_radio_province_tibet" stroke="none" stroke-width="1" fill="none" fill-rule="evenodd">
        <g id="编组">
            <rect id="矩形" x="0" y="0" width="120" height="120"></rect>
            <g id="西藏-" transform="translate(17.000000, 36.000000)" fill="#FFFFFF" fill-opacity="0.189284" fill-rule="nonzero">
                <path d="M41.221744,0.0471855419 C41.3131596,0.151420199 41.3171244,0.183792636 41.3872437,0.172198253 C41.4573629,0.160603869 41.605531,0.10710899 41.6626233,0.153371729 C41.7197155,0.199749263 41.7672924,0.432440508 41.858708,0.525080781 C41.8930314,0.559749136 42.0375745,0.586152188 42.1135842,0.647223595 C42.1894807,0.708409798 42.1377125,0.707606227 42.2200659,0.80610109 C42.3024192,0.904710749 42.3846593,0.980590824 42.4221544,0.904710749 C42.4595362,0.828945469 42.3921356,0.775794978 42.474489,0.722759283 C42.5568423,0.669608791 42.5643187,0.616573096 42.6616248,0.616573096 C42.7103344,0.616573096 42.7589308,0.607045038 42.8000509,0.597631776 C42.8410576,0.588103718 42.9231844,0.593384328 42.940516,0.611062893 L42.9833352,0.629315438 C42.9939663,0.629315438 43.001216,2.16782318 43.005975,4.67186923 C43.0172043,2.44472872 43.0312394,1.09278189 43.049983,1.08816294 L43.049983,1.08816294 L43.1066328,1 C43.1616673,1.0497464 43.2154326,1.16886392 43.295273,1.20822747 C43.4019961,1.26105449 43.457146,1.16874982 43.5906364,1.27440387 C43.7243575,1.38005792 43.9019217,1.52530371 44.0621793,1.4592414 C44.222437,1.3931791 44.3524661,1.32723089 44.4191536,1.34046617 C44.4461517,1.34582874 44.492533,1.48377231 44.5621049,1.53819669 C44.6639822,1.61760837 44.8070488,1.63004497 44.9418083,1.70842978 C45.1689843,1.84055439 45.6249514,2.10286395 45.8883556,2.18969195 C46.1517597,2.27663405 46.1669893,2.34440781 46.0602663,2.39723483 C45.953197,2.45017595 45.7797865,2.52376868 45.6728326,2.5765957 C45.6329124,2.59633452 45.5769549,2.65292676 45.4972299,2.66627613 C45.4610017,2.67220919 45.147755,2.52171493 45.0981432,2.55925292 C45.0621458,2.58629397 45.0556847,2.62542932 45.0967587,2.721271 C45.1287179,2.7957765 45.1490242,3.02385689 45.1348329,3.05021335 C45.0416088,3.22181561 45.3620088,3.23345353 45.4688473,3.27304527 C45.528843,3.29540833 45.6016454,3.37972619 45.677563,3.39307557 C45.7367511,3.40345842 45.8154377,3.41076064 45.8867403,3.40893509 C46.1039939,3.40334432 46.2720972,3.49017232 46.5125414,3.42411002 C46.7529856,3.35804772 46.5260404,3.62971325 46.5126568,3.85437072 C46.5103492,3.8964726 46.4533533,3.92351365 46.4487383,3.96561553 C46.4284321,4.14805702 46.434547,4.34373379 46.3638213,4.52811494 C46.3462841,4.57386793 46.5380396,4.6042178 46.4899276,4.70838858 C46.4249708,4.84907048 46.2959801,4.74809442 46.2996721,4.81016332 C46.3045179,4.8899173 46.2785582,5.00823614 46.2723279,5.04520364 C46.2364459,5.2582232 46.6544543,5.12221928 46.4713521,5.31093612 C46.4134331,5.37049488 46.301172,5.43016774 46.2073711,5.51528428 C46.1522212,5.56514478 46.07215,5.56103728 46.0028089,5.60325326 C45.8702415,5.68392001 45.7358281,5.79436614 45.6044145,5.79436614 C45.4038904,5.79436614 45.4667705,5.93413526 45.4801542,6.06625987 C45.4825771,6.08896522 45.484077,6.1103014 45.4848846,6.130953 C45.4876536,6.1930219 45.5984149,6.18138399 45.5899924,6.24904365 C45.5849159,6.29000456 45.297975,6.41802167 45.3029362,6.47187557 C45.3144738,6.59852351 45.5489185,6.87977321 45.5489185,6.87977321 C45.5489185,6.87977321 45.7113683,6.97823913 45.7916702,7.07955748 C45.8396668,7.14025721 45.8145147,7.21179618 45.8295136,7.23644119 C45.8494737,7.26941529 45.8308982,7.40473462 45.8073326,7.548326 L45.7724348,7.75815796 C45.7623502,7.82233053 45.7552113,7.87681196 45.7552113,7.90984312 C45.7552113,7.99244952 45.8251293,8.16085705 45.9453515,8.16154163 C46.0174617,8.16188392 46.1774886,8.07904933 46.27602,8.06113606 C46.3723592,8.04356508 46.6194952,7.96700583 46.7264491,8.01983286 C46.8332875,8.07265988 46.9191275,8.37079598 46.9191275,8.46332884 C46.9191275,8.55574761 46.7779069,8.7049868 46.6979511,8.79740557 C46.6527236,8.84943391 46.4618912,8.8537696 46.4142408,8.95873907 C46.377205,9.04043269 46.4806975,9.22481384 46.4572761,9.27090912 C46.4257784,9.33366261 46.6111881,9.33035379 46.677991,9.38968435 C46.7239108,9.43018887 46.5725371,9.63065773 46.6158032,9.65199391 C46.722757,9.70482094 46.8028282,9.77282289 46.7627926,9.98413099 C46.7228724,10.1955532 46.7381021,10.3542624 46.7513704,10.4996223 C46.754024,10.5302004 46.7596774,10.6429285 46.7858679,10.6837753 C46.8294801,10.7518913 46.9563941,10.7548579 46.9711622,10.8297057 C46.9895071,10.9230372 46.8752845,10.999026 46.8752845,11.0394164 C46.8752845,11.1318352 46.8447098,11.0941831 46.8179425,11.4376158 C46.7914059,11.7810485 46.4785054,11.7772833 46.3582833,11.8698161 C46.2380612,11.962349 46.1673355,12.0435862 46.1139162,12.2020673 C46.0606124,12.3605484 46.3390154,12.6759131 46.3390154,12.6759131 C46.3390154,12.6759131 46.6003428,13.1020663 46.7607158,13.1153016 C46.9210889,13.1285369 46.949933,13.1927736 47.0966916,13.2984277 C47.156572,13.3413283 47.207799,13.3911888 47.2518728,13.4529154 C47.2961773,13.514642 47.1198823,13.5957651 47.1517261,13.6863583 C47.1663789,13.7281179 47.3741717,13.7754683 47.4059002,13.8156305 C47.4953168,13.9290432 47.6080394,13.8689139 47.5775801,14.0424558 C47.5472361,14.2159977 47.4559735,14.5175567 47.6564975,14.583619 C47.7252618,14.6063244 47.8257545,14.6113447 47.928901,14.6311976 C48.0064338,14.6460302 47.9195555,14.8972724 47.9809357,14.9665294 C48.0745059,15.0720693 48.5146665,15.0838213 48.5682011,15.215946 C48.6216203,15.3480706 48.8582571,15.6746169 48.8582571,15.6746169 C48.8582571,15.6746169 49.070088,15.9311075 49.2323071,15.9803975 C49.3944108,16.0295734 49.5050567,16.050225 49.5852433,16.0106333 C49.6655452,15.9709274 50.0602475,16.314246 50.0602475,16.314246 C50.0602475,16.314246 50.2000836,16.3487034 50.3871086,16.4940633 C50.4631416,16.5530515 50.6125539,16.5636626 50.7142004,16.5856834 C50.8157316,16.6078182 50.9091864,16.665095 51.0615985,16.6726255 C51.214126,16.68027 51.2674298,16.665095 51.4122271,16.665095 C51.5570244,16.665095 51.6637475,16.6349734 51.8009299,16.68027 C51.9382277,16.7254525 52.0068766,16.6425038 52.1364442,16.7329829 C52.2660118,16.823462 52.3042014,16.8761749 52.3802343,16.770635 C52.4564981,16.665095 52.4641129,16.665095 52.5100327,16.6048517 C52.5556063,16.5444942 52.6852893,16.4767205 52.8453162,16.5595551 C53.0054586,16.6425038 53.1196811,16.6575646 53.2569789,16.7329829 C53.394046,16.8084012 53.5543037,16.929002 53.615107,16.8611141 C53.6760257,16.7933403 53.6227218,16.6878004 53.7524048,16.7028612 C53.8819724,16.7179221 53.9963103,16.7254525 54.0343845,16.8084012 L54.0343845,16.8084012 L54.2096411,16.9968898 C54.3621686,17.0947853 54.3197101,17.1150946 54.4920823,17.1939358 C54.6695311,17.275173 54.8469798,17.3826526 55.0341202,17.4222443 C55.0925006,17.4346809 55.1738409,17.4185932 55.2264525,17.4528224 C55.2791795,17.4870516 55.3072159,17.5470667 55.3226764,17.6074242 C55.337906,17.6676675 55.4827033,17.5846047 55.5054324,17.7280249 C55.5282769,17.871217 55.589311,17.8335649 55.6578445,17.9389907 C55.7264934,18.0445307 55.7721825,18.0520611 55.8789055,18.014409 C55.9856286,17.9767569 56.0084731,17.9918178 56.0084731,17.9314603 C56.0084731,17.871217 56.031433,17.8410953 56.1305413,17.8410953 C56.2295341,17.8410953 56.2754539,17.8938082 56.382177,17.7732075 C56.4887847,17.6526067 56.5573182,17.7506162 56.6260825,17.7807379 C56.694616,17.8108595 56.8164534,17.8335649 56.8394133,17.9239299 C56.8623732,18.014409 56.824299,17.9993482 56.7631496,18.0520611 C56.7021155,18.1048881 56.7403051,18.2179585 56.7783792,18.3385593 C56.8164534,18.4591601 56.9919408,18.5344643 57.075704,18.4591601 C57.1596979,18.3837418 57.2433458,18.2706714 57.3806436,18.2782019 C57.517826,18.2857323 57.6017046,18.2104281 57.7846914,18.2782019 C57.9676782,18.3460897 57.9980222,18.3536201 58.2190832,18.368681 C58.4401442,18.3837418 58.6382453,18.4440992 58.7068942,18.3460897 C58.7756585,18.2480802 58.7679283,18.1878368 58.912841,18.2857323 C59.0575229,18.3837418 59.0803674,18.3234985 59.2405097,18.3837418 C59.400652,18.4440992 59.4691855,18.4892818 59.6368273,18.4742209 C59.8046998,18.4591601 59.8883477,18.4516297 60.0103004,18.3611505 C60.1322532,18.2706714 60.1475982,18.2706714 60.1781729,18.4063331 C60.2086323,18.5421088 60.2086323,18.5269338 60.2923955,18.6853008 C60.3763894,18.8435537 60.3381999,18.8813199 60.4753823,18.7908408 C60.6125647,18.7003617 60.6888285,18.6098825 60.8640851,18.6324738 C61.0394571,18.655065 61.0013829,18.5647 61.1765241,18.760605 C61.3520115,18.9566241 61.3442813,18.9039111 61.3900857,19.0094511 C61.4357747,19.114991 61.5883022,19.0923998 61.6338758,19.2054701 C61.6797956,19.3185405 61.7101396,19.2431222 61.7941335,19.1752344 C61.8777813,19.1074606 61.9998495,19.062164 62.038039,19.1979397 C62.0759978,19.3336013 62.0455385,19.3411318 62.1751061,19.4391413 C62.3047891,19.5370367 62.327749,19.5295063 62.4953907,19.3561926 C62.6630325,19.1827648 62.7316814,19.062164 62.8764787,19.0320423 C63.0212759,19.0019207 63.1738034,18.9641545 63.3489447,19.0848694 C63.524432,19.2054701 63.6158101,19.2807743 63.6920738,19.3938447 C63.7681068,19.5069151 63.6767288,19.4843238 63.9206343,19.4542021 C64.1646552,19.4240805 64.0654315,19.363723 64.1874997,19.4767934 C64.3094524,19.5898638 64.2712629,19.559628 64.4160601,19.4993846 C64.5609728,19.4391413 64.5534733,19.4391413 64.6676959,19.5219759 C64.7819184,19.6049246 64.9041019,19.6651679 64.9726355,19.4993846 C65.041169,19.3336013 65.0029794,19.2355918 65.0869734,19.220531 C65.1707366,19.2054701 65.3232641,19.2732439 65.5137504,19.2054701 C65.7042366,19.1375823 65.6433179,19.114991 65.7194663,19.1451127 C65.79573,19.1752344 65.8263048,19.1526431 65.8338042,19.0245119 C65.8415344,18.8963807 65.8338042,18.7304833 65.9252976,18.8360233 C66.0167911,18.9415632 66.0929394,19.0094511 66.1463587,18.8435537 C66.1996625,18.6777704 66.1844328,18.7530746 66.3445752,18.7530746 C66.5047175,18.7530746 66.6265549,18.67024 66.6877043,18.5496392 C66.7485076,18.4290384 66.6723592,18.2932627 66.8325016,18.4365688 C66.9925285,18.5797609 66.9543389,18.5722304 67.0917521,18.6627096 C67.2288192,18.7530746 67.2898533,18.813432 67.4269203,18.9793294 C67.5642181,19.1451127 67.5184137,19.1074606 67.6479813,19.220531 C67.7775489,19.3336013 67.7547044,19.3336013 67.8766572,19.3260709 C67.9986099,19.3185405 68.013955,19.3260709 68.0520291,19.4466717 C68.0901033,19.5671584 68.0214544,19.612455 68.2502456,19.5973942 C68.4788061,19.5822192 68.4559616,19.4993846 68.6313336,19.6049246 C68.8065902,19.7104645 68.7990907,19.6501071 68.989577,19.6501071 C69.1800633,19.6501071 69.1879089,19.5520976 69.3097463,19.6199854 C69.4316991,19.6877592 69.5688815,19.7707079 69.3936249,19.8160045 C69.2182529,19.861187 68.8523946,19.9742574 68.8371649,20.0722669 C68.8219353,20.1701623 68.7838611,20.3285293 68.9668479,20.253111 C69.1497194,20.1778068 69.2334826,20.1551015 69.3174765,20.0647365 C69.4011243,19.9742574 69.4850029,19.9893182 69.4926177,20.1249798 C69.500348,20.2606414 69.515693,20.4038335 69.6300309,20.5923221 C69.7442535,20.7808108 69.8966656,20.9390636 69.988159,20.7808108 C70.079537,20.6224438 70.0033887,20.5998525 70.1254568,20.607383 L70.1254568,20.607383 L70.2043742,20.6246116 C70.4360498,20.8550881 70.3913992,21.1850573 70.3362493,21.381875 C70.2695618,21.6196537 70.2005668,21.6178281 70.2273341,21.6971257 C70.253986,21.7761951 70.4240507,22.1782738 70.5843084,22.4161666 C70.6544572,22.5201091 70.7349898,22.4889606 70.7871399,22.5501167 C71.0390064,22.8451722 71.0932333,22.6514351 71.1911878,22.5481771 C71.3471765,22.3834206 71.7922983,22.5803525 71.9925916,22.6992418 C72.067817,22.7437397 72.1294279,22.9365641 72.1586181,22.9586989 C72.1876929,22.9808338 72.2825323,22.9291478 72.2750328,22.8160774 C72.2671872,22.703007 72.2978773,22.6351192 72.343451,22.5371096 C72.3893707,22.4391001 72.4349444,22.2959081 72.534168,22.2733168 C72.6331609,22.2506115 72.8085329,22.1677769 72.8467224,22.3336742 C72.8847966,22.4994575 73.0295939,22.6125279 73.1514313,22.6804158 C73.2734994,22.7481895 73.3649928,22.7557199 73.4639857,22.808547 C73.5632093,22.8612599 73.5860538,22.8160774 73.5935533,23.0118683 C73.6012835,23.2080014 73.5935533,23.2834197 73.6774318,23.2834197 C73.761195,23.2834197 73.8146143,23.3286022 73.8756483,23.2155318 C73.9364517,23.1024615 73.8756483,23.0648094 73.9364517,22.9667998 C73.9974857,22.8686762 73.9594115,22.5824062 73.8907626,22.5219347 C73.8223445,22.4618055 73.6545873,22.4618055 73.6697016,22.3260297 C73.6850467,22.1903681 73.6620868,22.152716 73.7308511,22.1000031 C73.7993846,22.047062 73.8146143,21.9717578 73.7460808,21.8964536 C73.6774318,21.8210353 73.6468571,21.7833832 73.7460808,21.760792 C73.8450736,21.7380866 73.829844,21.7380866 73.8831478,21.6929041 C73.9364517,21.6477216 74.0889791,21.6853737 74.1652429,21.6929041 C74.2413912,21.7004345 74.5158715,21.5798338 74.5539457,21.7229117 C74.5921352,21.8663319 74.5463308,21.9265753 74.6758984,22.1150639 C74.805466,22.3034385 74.8817298,22.3562655 75.1027908,22.4693359 C75.3237364,22.5824062 75.2856622,22.6351192 75.3848858,22.5824062 C75.4838787,22.5295792 75.5144534,22.4466305 75.5907172,22.54464 C75.6667502,22.6426496 75.7125546,22.6426496 75.7582436,22.54464 C75.8039326,22.4466305 75.8039326,22.54464 75.895426,22.6426496 C75.9869194,22.740545 76.1394469,22.7858416 76.2309403,22.7105374 C76.242377,22.7011102 76.2553604,22.6916811 76.2691466,22.6821923 L76.3555427,22.6240794 C76.4256451,22.5742822 76.47861,22.5200949 76.4214266,22.454275 C76.3299332,22.3487351 76.291859,22.1903681 76.1928661,22.1224803 C76.0936425,22.0547065 76.0402233,21.851157 76.1088722,21.8285658 C76.1776365,21.8059745 76.3299332,21.7380866 76.1928661,21.6099554 C76.0555683,21.4818242 76.0402233,21.4968851 76.0249936,21.3914592 C76.0098793,21.2858052 75.9260007,21.1652044 75.8878112,21.1350827 C75.849737,21.1048469 75.9031562,21.0974306 76.0098793,21.1048469 C76.116487,21.1124915 76.2460546,21.052134 76.3147035,21.1575599 C76.3489703,21.2103869 76.3719302,21.2594487 76.393967,21.2783888 L76.393967,21.2783888 L76.466308,21.2838655 C76.4727691,21.2734827 76.5002286,21.2400522 76.5077281,21.2230517 C76.543264,21.1871111 76.5571091,21.2369715 76.6036058,21.2565963 C76.6391417,21.271543 76.6744469,21.2883153 76.7089444,21.3073695 C76.7503645,21.3300749 76.764325,21.3673847 76.7781702,21.3131885 C76.7781702,21.2488377 76.7916692,21.1809498 76.8194749,21.111921 C76.8398965,21.0611477 76.8577798,21.0634296 76.817975,21.0294287 C76.817975,21.0294287 76.7264816,20.9994211 76.7415959,20.9315332 C76.7568255,20.8637595 76.7645557,20.8562291 76.8254744,20.8484704 C76.8863931,20.8410541 76.9931162,20.8259933 76.9931162,20.8259933 L76.9931162,20.8259933 L77.0559963,20.8186911 C77.0559963,20.8186911 77.2431367,20.8186911 77.3421296,20.8849816 C77.4070864,20.9284526 77.4595826,20.9348421 77.542769,20.9232041 C77.5888041,20.9174993 77.632301,20.9120226 77.6766055,20.8981027 C77.7749061,20.8670683 77.7768675,20.8476718 77.7870206,20.7683742 C77.8002889,20.6627201 77.8249794,20.5269444 77.8917823,20.5533009 C77.9585852,20.5796573 78.0293108,20.6400148 78.1226503,20.6400148 C78.2163358,20.6400148 78.1877225,20.5552405 78.2142591,20.4891782 C78.2411418,20.4231159 78.149533,20.377477 78.0961137,20.2850583 C78.0426945,20.1926395 78.10569,19.9392295 78.10569,19.7870238 C78.10569,19.6825107 78.1878379,19.6595772 78.2780622,19.6339053 C78.3191361,19.6221533 78.4305897,19.685135 78.468087,19.6642552 C78.5881937,19.5973942 78.6510738,19.5247142 78.6246526,19.4454166 C78.5977699,19.3662332 78.6416129,19.3247018 78.5998467,19.2190477 C78.5580805,19.1132796 78.6056155,19.1282263 78.498777,19.0226864 C78.3917078,18.9169182 78.3288277,18.8582722 78.3689787,18.7658535 C78.3940154,18.7081203 78.4435118,18.6605417 78.4445502,18.6201513 C78.4452424,18.5959627 78.4283975,18.5742842 78.3783242,18.5544313 C78.3282509,18.5346925 78.2278735,18.5797609 78.220374,18.4817513 C78.2126438,18.3837418 78.220374,18.315968 78.3118674,18.3310289 C78.4033608,18.3460897 78.4489345,18.3762114 78.5251982,18.2857323 C78.6015773,18.1953673 78.6852252,18.0973577 78.7462592,18.2405498 C78.8072933,18.3837418 78.8607125,18.4063331 79.0511988,18.4138635 C79.2179176,18.4204811 79.3204871,18.4329177 79.4303254,18.430864 L79.4540352,18.4302079 L79.4540352,18.4302079 L79.4780912,18.4290384 C79.6076588,18.421508 79.6382335,18.3837418 79.7219967,18.3310289 C79.8423342,18.2616578 79.8320657,18.2671344 79.9700557,18.2922358 C80.093393,18.3148271 80.2406132,18.3432373 80.4388297,18.4137494 C80.8071109,18.5448471 80.951562,18.6191244 81.2606551,18.7647125 C81.4730629,18.8647758 81.6974698,18.977732 81.8168843,19.0385459 C81.8663808,19.0637614 81.8986861,19.0623922 81.9112621,19.1127091 C81.9112621,19.1127091 81.9256842,19.3632666 82.0810961,19.613596 C82.2361618,19.8640394 82.3025032,19.9813314 82.4333399,20.1477993 C82.5641767,20.3141531 82.82735,20.4497006 82.9115747,20.6411557 C82.9957994,20.832725 82.9459569,20.8981027 82.9832234,21.175359 C83.0206054,21.4525012 83.170133,21.533168 83.3101999,21.6996359 C83.384733,21.7879471 83.474265,21.9433476 83.562874,22.065888 C83.6408684,22.1740522 83.6950953,22.2872367 83.7740127,22.3652792 C83.9422313,22.5315189 84.3068204,22.8550986 84.5403421,23.0030828 C84.7742099,23.1509528 85.1349916,23.3605494 85.1349916,23.5269032 C85.1349916,23.6933711 84.928468,23.7427752 84.8786254,23.8750139 C84.8576269,23.9303511 84.8200143,24.1864994 84.7682103,24.1810227 C84.6122215,24.1653914 84.4368495,23.7694739 84.222365,23.8185358 C84.0415703,23.8599531 84.0319941,24.1119939 84.0615304,24.2729851 C84.0680838,24.3093136 84.0690437,24.3247578 84.0679619,24.3370694 L84.0621433,24.3823578 L84.0621433,24.3823578 L84.0612997,24.431238 C84.0618765,24.4553125 84.0647609,24.4773332 84.0775677,24.4886289 C84.2152117,24.6094578 84.4735392,24.6989101 84.5626097,24.9078221 C84.6513341,25.1167342 84.8652418,25.1840516 84.9318139,25.3270154 C84.9441592,25.3537142 84.9238529,25.4805903 84.9561583,25.5307931 C85.0103852,25.6154532 84.8715875,25.7471215 84.9477358,25.8480975 C85.0746498,26.0166191 85.431278,26.2408202 85.4649678,26.2756199 C85.5356935,26.348528 85.7849063,26.402496 85.7515626,26.5782058 C85.7182188,26.7541437 85.4953118,26.6861418 85.5974198,27.0242119 C85.6996432,27.3621679 85.8847068,28.0659197 85.9290113,28.2746036 C85.9734312,28.4835156 86.0155436,28.9541668 86.0379266,29.0312965 C86.0464644,29.06119 86.067809,29.191489 86.1251511,29.3370771 C86.2146831,29.5644729 86.3336361,29.6686437 86.3606341,29.8631795 C86.3721718,29.9481819 86.4473971,30.181739 86.4539736,30.4450754 C86.462396,30.7838301 86.3607495,31.1410686 86.3669798,31.2770725 C86.3272904,31.3164361 86.3470197,31.8331825 86.3954778,31.9051778 C86.4621653,32.0041001 86.604655,32.1840315 86.6157311,32.3048605 C86.6268073,32.4258036 86.7184161,33.1499788 86.8073712,33.3148493 C86.8350615,33.366193 86.819255,33.4554171 86.8505219,33.511667 C86.8846733,33.5737359 86.914325,33.6399123 86.9401693,33.7018671 C86.9751283,33.7859568 87.0486231,33.8574958 86.9521685,33.8790601 C86.8408303,33.8653685 86.6643046,33.900054 86.4835099,33.9963521 C86.3025998,34.0926502 86.3849785,34.2806824 86.3849785,34.2806824 C86.3849785,34.2806824 86.5798491,34.4873125 86.6354605,34.6387196 C86.6913026,34.7901266 86.5242377,34.8865388 86.3849785,35.0103343 C86.2457193,35.1341298 86.260949,35.3028796 86.3165604,35.5368931 C86.3269442,35.5810487 86.5398135,35.6088884 86.548236,35.6892129 C86.5530818,35.7347377 86.5916175,35.7620069 86.5369291,35.8091291 C86.5094696,35.8326331 86.4584732,35.8013705 86.412092,35.8263578 C86.2615259,35.9070245 86.3188679,36.0375518 86.0379266,35.9754829 C85.9836997,35.9635027 85.9118203,35.7124887 85.9118203,35.7124887 C85.9118203,35.7124887 85.8498632,35.4371721 85.8220575,35.2580394 C85.8064817,35.1576338 85.7202956,35.0584833 85.6207259,35.0559732 C85.5435391,35.0538054 85.4755825,35.128539 85.423317,35.1874132 C85.3042486,35.3221621 85.1073013,35.2351059 85.1073013,35.2351059 L85.1073013,35.2351059 L85.0444212,35.3084704 L85.041306,35.3846874 C85.1203388,35.4962745 85.1892185,35.6253184 85.1831035,35.7814035 C85.1743349,36.0068596 85.2724048,36.2534238 85.3443996,36.3838369 C85.3645904,36.4205762 85.4127024,36.4558323 85.360783,36.4511543 C85.360783,36.4511543 85.3268624,36.4699803 85.2787505,36.5072901 L85.2787505,36.5072901 L85.201333,36.5676476 C85.1273768,36.6340522 85.1126086,36.6504822 85.0389985,36.6637174 C84.9653884,36.6770668 84.9854639,36.7235044 85.0524975,36.8430783 C85.1195312,36.9626522 85.1272614,37.0327079 85.1354531,37.069219 C85.1438756,37.1059584 85.1521827,37.140758 85.1599129,37.1717925 C85.2017945,37.3368912 85.2434453,37.5019899 85.3548988,37.6397053 C85.466237,37.7773065 85.5858822,37.9038404 85.6832598,38.1653513 C85.7807528,38.4269762 85.6477239,38.7360657 85.5919972,38.8460554 C85.5538076,38.9217019 85.4632372,39.0842904 85.2987106,39.1253655 C85.2240621,39.1440774 85.1259922,39.0999218 85.0346142,39.1128148 C84.742366,39.154118 84.7980928,39.2643359 84.644873,39.3605199 C84.5826852,39.3997693 84.4618862,39.5506059 84.3945064,39.5126115 C84.2959751,39.4575025 84.2577855,39.1802462 84.2411713,39.0577058 C84.2132503,38.8513039 84.0963741,38.6324654 83.9153486,38.343343 C83.7344386,38.0542205 83.4570739,38.4316542 83.4570739,38.4316542 C83.4570739,38.4316542 83.6009482,38.6722853 83.7261315,38.7961949 C83.8513148,38.9201045 83.5836417,38.9837708 83.4168076,39.0525714 C83.3125074,39.0955861 83.2980854,39.2120794 83.3018928,39.2933166 L83.3018928,39.2933166 L83.2217063,39.3005047 L82.7747384,39.2278248 C82.7747384,39.2278248 82.6808221,39.2185829 82.5775603,39.1164659 C82.4744139,39.0142347 82.4650684,38.9586694 82.4650684,38.9586694 C82.4650684,38.9586694 82.3898431,38.8100007 82.2866967,38.5316034 C82.1833195,38.2529779 82.0050631,38.4202445 82.0050631,38.4202445 C82.0050631,38.4202445 81.9392986,38.4851658 81.8736495,38.6523183 C81.8080003,38.8192426 81.6577804,38.6523183 81.5167905,38.5316034 C81.3760314,38.4108885 81.3853769,38.4015325 81.3947224,38.1602169 C81.4042986,37.9187871 81.3478796,37.937385 81.2539633,37.8445098 C81.160047,37.7517488 81.1883142,37.7981863 80.8034188,37.7795885 C80.4185235,37.7609906 80.4936334,37.9745807 80.4841726,38.0487439 C80.4749425,38.1231353 80.4749425,38.3738069 80.4936334,38.568685 C80.5123244,38.7636772 80.3621044,38.8192426 80.2683035,38.8750361 C80.1743872,38.9308297 80.1086227,39.0142347 79.9490573,39.1164659 C79.7894918,39.2185829 79.8271045,39.3949772 79.9020991,39.4413007 C79.9772091,39.4877383 80.0242826,39.5713716 79.9490573,39.5899694 C79.8740627,39.6083391 79.8271045,39.6083391 79.8271045,39.6083391 C79.8271045,39.6083391 79.892869,39.7291681 79.8459108,39.7476518 C79.7988373,39.7662497 79.7331882,39.8777227 79.7331882,39.8777227 C79.7331882,39.8777227 79.8082982,39.9334021 79.8740627,39.9704837 C79.9397118,40.0075653 80.0430889,40.1190383 80.0430889,40.1190383 C80.0430889,40.1190383 80.0336281,40.3604681 80.0149371,40.4810689 C79.9960154,40.6016697 80.0242826,40.6202675 80.0992772,40.8338576 C80.1743872,41.0474476 80.0242826,41.0102519 79.8552563,40.898893 C79.68623,40.78742 79.6487327,40.9359746 79.6487327,40.9359746 L79.6487327,40.9359746 L79.5110332,41.0721814 C79.4776681,41.1051935 79.4453627,41.1371661 79.4235182,41.1588065 C79.3576383,41.2238419 78.9257848,41.5765165 79.2615298,41.2863672 C79.5973903,40.9962179 79.0814274,41.4109614 78.9954721,41.4958498 C78.909286,41.5809663 78.7356446,41.7659179 78.6601885,41.7340848 C78.5849632,41.7021376 78.6298445,41.3790142 78.5975392,41.2514535 C78.5652338,41.1237787 78.4684331,41.1237787 78.4147831,41.1131676 C78.3611331,41.1025566 78.3073678,41.0707234 78.1674163,40.9856069 C78.0276956,40.9006045 77.8987049,40.9536597 77.8019041,40.9643848 C77.7052188,40.9749959 77.3611666,40.7836548 77.1136845,40.5920855 C76.866433,40.4008585 76.4793455,40.2625727 76.3935055,40.2201285 C76.3074348,40.1775702 76.2350939,40.0582245 76.1607915,40.0092768 C76.0868353,39.9603291 76.0373389,39.9970684 75.8891957,39.923818 C75.7408218,39.8504534 75.6666348,39.9360264 75.6049085,40.0214852 C75.5430668,40.106944 75.4814558,40.045902 75.3454271,40.045902 C75.2093985,40.045902 75.0859458,39.9482348 75.0859458,39.9482348 C75.0859458,39.9482348 74.9008822,39.9424158 74.9623778,39.6548908 C75.0298729,39.3388414 74.6355167,39.6345815 74.5174868,39.6548908 C74.3996875,39.6754283 74.2703507,39.6794217 74.1345528,39.7648805 C73.9985241,39.8504534 73.9738336,39.7892973 73.8624954,39.7648805 C73.7513881,39.7404637 73.6155901,39.6548908 73.430065,39.5572235 C73.2448861,39.4594422 73.1582385,39.4350254 73.071937,39.4106086 C72.9854047,39.3860777 72.8492607,39.483859 72.6393912,39.5082758 C72.4291756,39.5326926 72.3921398,39.6548908 72.2686871,39.7038385 C72.1451191,39.7526721 71.97217,39.923818 71.97217,39.923818 C71.97217,39.923818 71.8609472,39.9970684 71.6755375,40.0582245 C71.4902432,40.1192665 71.4407467,40.1681002 71.3172941,40.2659956 C71.1936107,40.3635487 71.0700426,40.5224862 71.0578128,40.6080591 C71.0452367,40.6936321 71.0452367,40.9258199 70.8105613,41.2068415 C70.5757705,41.487863 70.4523179,41.5122798 70.2915987,41.548905 C70.1309949,41.5855302 70.0197721,41.6344779 69.9086647,41.6711031 C69.7973266,41.7078424 69.5748811,41.9400303 69.4636583,41.9766556 C69.3524355,42.0131667 69.0806089,42.2332603 68.821243,42.34325 C68.5617617,42.4532397 68.2280934,42.7098444 68.0303384,42.8198342 C67.8328142,42.9297098 67.4868006,43.0764389 67.2643551,43.0764389 L67.2643551,43.0764389 L66.6835507,43.0764389 C66.6093638,43.0764389 66.3993789,43.2230538 66.3498825,43.2964184 C66.300386,43.3696688 66.1398976,43.4796585 66.1027464,43.6384819 C66.0657106,43.7973053 65.9297973,43.9806595 65.9297973,43.9806595 L65.9297973,43.9806595 L65.6579707,44.2372642 C65.6579707,44.2372642 65.1019723,44.9091829 65.0155554,44.970339 C64.9290232,45.0314951 64.842491,45.263683 64.842491,45.263683 C64.842491,45.263683 64.8178005,45.4836625 64.8300303,45.6058606 C64.842491,45.7279447 64.8178005,45.8624653 64.8547209,45.9968719 C64.891872,46.1311644 64.6322753,46.0701223 64.5335132,46.0457055 C64.4346357,46.0211746 64.3481035,46.0457055 64.2863772,46.1434869 C64.2245355,46.2412682 64.1751544,46.2534766 64.1010828,46.3756747 C64.0268959,46.4978729 63.9898601,46.4367168 63.8910979,46.473342 C63.7921051,46.5100813 63.6561918,46.4978729 63.4091711,46.5221756 C63.1619197,46.5467065 63.0506969,46.5467065 62.9519348,46.5712374 C62.8529419,46.5955401 62.7789857,46.6443738 62.5934606,46.6933215 C62.4081662,46.7422692 62.3094041,46.7422692 62.0499228,46.7788944 C61.7903261,46.8155196 61.7163699,46.8033112 61.6050318,46.7788944 C61.493809,46.7544776 61.2713635,46.7299467 61.1602561,46.7055299 C61.0490333,46.6811131 60.8142425,46.6566963 60.715365,46.6566963 C60.6166029,46.6566963 60.4063873,46.7177383 60.1717119,46.7177383 C59.9368057,46.7177383 60.011108,46.6689047 59.8874246,46.5955401 C59.7638566,46.5221756 59.7144756,46.5221756 59.5043753,46.4856645 C59.2945058,46.4489252 59.1214413,46.5100813 59.0472544,46.5833317 C59.0028114,46.6273504 58.9227726,46.662538 58.8338036,46.6968548 L58.6518597,46.766686 C58.5034858,46.8278421 58.2070841,46.8888841 58.021559,46.9010925 C57.8362646,46.913301 57.2555757,47.1894163 57.0701659,46.7617798 C56.7857633,46.1825081 57.0084396,45.9479242 56.9465979,45.8379344 C56.8848716,45.7280588 56.9465979,45.6302775 56.9590585,45.410298 C56.9714038,45.1903185 57.0701659,45.1781101 57.1073171,45.0559119 C57.1443529,44.9337138 57.2432304,44.9460363 57.3050721,44.8847661 C57.3669138,44.823724 57.2679209,44.6281614 57.2679209,44.6281614 C57.2679209,44.6281614 57.0948565,44.408296 56.9836337,44.2128474 C56.8725263,44.0172847 56.7367284,43.9806595 56.7367284,43.9806595 C56.7367284,43.9806595 56.5142829,43.9806595 56.4029447,44.0050763 C56.291722,44.0294931 56.2670314,43.9562427 56.2051897,43.9317118 C56.1434634,43.907295 56.2177658,43.9806595 56.0322407,43.9439202 C55.8470617,43.907295 55.6491913,43.9562427 55.4020553,43.9439202 C55.1550346,43.9317118 55.1425739,43.8340446 55.1425739,43.7362632 C55.1425739,43.6384819 55.1178834,43.320607 55.1178834,43.198637 C55.1178834,43.0764389 55.0933082,42.7586781 55.1055381,42.5998547 C55.1178834,42.4410313 54.9943154,42.4532397 54.8708627,42.4288229 C54.7472947,42.404292 54.7348341,42.34325 54.8213663,42.3066248 C54.9077831,42.2698855 54.9202438,42.1843125 55.006776,42.0744369 C55.0933082,41.9644471 54.8460568,41.9766556 54.7226042,42.049906 C54.5989208,42.1231564 54.5865755,42.049906 54.5000433,42.0010724 C54.4481932,41.9717722 54.3874129,41.9072707 54.3230357,41.8339628 L54.1910655,41.6834256 C54.0799581,41.5611134 54.1293392,41.6222695 53.9441602,41.3900816 C53.7586351,41.1578937 53.5238443,41.3289255 53.4744633,41.6222695 C53.4350507,41.8569447 53.3242341,41.8178596 53.2926487,41.7963436 L53.285,41.79 C53.2842666,41.8080198 53.2889758,41.8573611 53.220221,41.8398157 L53.1695237,41.8204564 C53.0274954,41.7526827 52.9248105,41.8343763 52.8659686,41.9651317 C52.8072421,42.0957731 52.683674,42.0375835 52.5972572,42.049906 C52.5108403,42.0622285 52.3871569,41.988864 52.2882794,41.9644471 C52.1895173,41.9400303 51.8805395,41.781207 51.7941227,41.756562 C51.7075905,41.7322593 51.6458641,41.6834256 51.5221807,41.5734359 C51.3986127,41.4634462 51.1269015,41.3289255 51.0650598,41.2679976 C51.0032181,41.2068415 50.8426143,41.2433526 50.706701,41.2800919 C50.5707877,41.3168312 50.4594496,41.2679976 50.1629324,41.2679976 C49.8665307,41.2679976 49.730502,41.1824246 49.6564304,41.1456853 C49.5822435,41.1090601 49.4338695,40.8768722 49.3351074,40.8280386 C49.2362299,40.779205 49.2857264,40.8646638 48.9272522,40.8890806 C48.5691241,40.9136115 48.6678862,40.8524554 48.5938146,40.7180489 C48.5195123,40.5836423 48.4207502,40.6080591 48.4207502,40.7301432 C48.4207502,40.8524554 48.3343333,40.8524554 48.2724916,40.8524554 C48.2106499,40.8524554 47.9017875,40.8036218 47.80291,40.7914134 C47.7041479,40.779205 47.5311988,40.7301432 47.2469116,40.5102778 C47.0401573,40.3503757 46.9511821,40.4424908 46.8752442,40.5516353 L46.8190987,40.633015 L46.8190987,40.633015 L46.7897907,40.6692152 C46.6784525,40.7914134 46.653762,40.7546741 46.5425392,40.779205 C46.4313165,40.8036218 46.4067413,40.7424657 46.14726,40.7668825 C45.8876633,40.7914134 45.9123538,41.0111647 45.7640953,41.2190499 C45.6158367,41.4268209 45.4923841,41.5611134 45.5416498,41.7078424 C45.5910308,41.8544574 45.3315495,41.9522387 45.2327874,42.0254892 C45.1339099,42.0987396 44.9115797,42.3066248 44.800357,42.4165004 C44.6891342,42.5264902 44.3801565,42.7464696 44.3554659,42.8320426 C44.3307754,42.9175014 44.2689337,43.1130641 44.2442432,43.2230538 C44.2195526,43.3330436 44.1701716,43.4674501 44.1577109,43.6384819 C44.1495577,43.7525791 44.1028431,43.8122647 44.050693,43.8611152 L43.972532,43.9317118 C43.8982296,44.0050763 43.9229201,44.261681 44.0959846,44.4205044 C44.2689337,44.5794419 44.2442432,44.7260568 44.1701716,44.762682 C44.0959846,44.7993072 43.8982296,44.8970886 43.8735391,45.0070783 C43.8489639,45.1170681 43.7377412,45.263683 43.6017125,45.2269437 C43.4657992,45.1903185 43.01073,44.9899594 43,45 C42.9999959,45.0000039 42.9999918,45.0000013 42.9999877,44.9999922 C42.9418882,44.9739413 42.7707118,44.6891213 42.7707118,44.6891213 C42.7707118,44.6891213 42.7221154,44.5781137 42.5882204,44.4672209 C42.4543254,44.3560984 42.3447853,44.1340832 42.3081964,44.0601547 C42.2718341,43.9861113 42.2231244,43.6530885 42.2231244,43.6530885 C42.2231244,43.6530885 42.3570194,43.5173998 42.3813742,43.4063921 C42.405729,43.2954993 42.4543254,43.1843769 42.4665595,43.0117239 C42.4786803,42.8389561 42.5638656,42.7897087 42.6125752,42.5924894 C42.6612849,42.3949257 42.6125752,41.9632932 42.5273899,41.7782422 C42.4422047,41.5933061 42.1622939,41.2356021 41.979576,41.0505511 C41.7970846,40.865615 41.6997786,40.9148624 41.6145933,40.9765078 C41.5292947,41.038268 41.3224485,41.2232041 41.1764327,41.3590077 C41.0303037,41.4945816 40.8478123,41.4945816 40.750393,41.5070943 C40.6530869,41.5192627 40.5069579,41.6303851 40.2878776,41.7782422 C40.0687973,41.9263289 39.9227816,41.9016478 39.7645318,41.8398876 C39.6062819,41.7782422 39.5454515,41.9016478 39.5446585,41.8933825 C39.4766915,41.945959 39.3793855,42.0371069 39.389354,42.0431911 C39.3994357,42.0496197 39.204597,42.0373365 39.0464605,42.0249386 C38.8882107,42.0126554 38.7057193,41.9263289 38.6326548,41.8645687 C38.5804659,41.8205363 38.4289272,41.7827708 38.346594,41.764785 L38.2918003,41.7535611 L38.2918003,41.7535611 C38.2918003,41.7535611 38.1457846,41.8277192 38.0849541,41.8892498 C38.0240104,41.95101 37.9023495,42.1975916 37.7197448,42.4073236 C37.5372535,42.6170557 37.476423,42.5060481 37.2694635,42.3703593 C37.062504,42.2346706 37.0139076,42.1853084 37.0139076,42.1853084 C37.0139076,42.1853084 36.7704725,42.2346706 36.6244568,42.2222727 C36.4783277,42.2101043 36.4296181,42.2222727 36.2957231,42.3209971 C36.1618281,42.4197216 36.064522,42.4197216 36.0036916,42.3579614 C35.9428611,42.2964308 35.7115468,42.2101043 35.7115468,42.2101043 C35.7115468,42.2101043 35.553297,42.2346706 35.3464508,42.2839181 C35.1394913,42.3332803 35.0665401,42.2346706 35.054306,42.1112651 C35.0421852,41.9879743 34.9325318,41.8398876 34.8715881,41.8029233 C34.8108709,41.7659591 34.5674358,41.7289948 34.5776308,41.7356529 C34.5195191,41.7309463 34.4397711,41.5810229 34.4397711,41.5810229 L34.2315656,41.2471965 C34.2510494,41.2480001 34.0319692,41.2232041 33.8493645,41.2480001 C33.6667599,41.2726812 33.6911147,41.0999134 33.630171,40.9642246 C33.5694538,40.8285359 33.3747284,40.8409339 33.3747284,40.8409339 C33.3747284,40.8409339 33.1921237,40.8902961 33.1190592,41.02587 C33.046108,41.1616736 33.0217531,41.0999134 32.9243338,41.02587 C32.8270277,40.9518267 32.7782047,40.9518267 32.7782047,40.9518267 C32.7782047,40.9518267 32.6566571,41.1121965 32.6566571,41.198523 C32.6566571,41.2849643 32.4861732,41.4699005 32.4739392,41.6672346 C32.4618184,41.8645687 32.3156894,41.8645687 32.2062625,41.7413927 C32.1280196,41.6531639 32.0187407,41.6343397 31.9626827,41.6307854 L31.9263518,41.6303851 L31.9263518,41.6303851 C31.9263518,41.6303851 31.7924568,41.5933061 31.7195056,41.5809081 C31.6464411,41.5686249 31.4759572,41.4452194 31.3177074,41.3095306 C31.1595708,41.1738419 31.2325221,41.2232041 31.3542963,40.7668905 C31.4759572,40.3105769 31.2082805,40.4833447 31.2082805,40.4833447 L31.0622648,40.5818396 C31.0622648,40.5818396 30.8917809,40.7175283 30.7822408,40.8162528 C30.6727006,40.9148624 30.6970555,41.1368776 30.7214103,41.2232041 C30.7457651,41.3095306 30.8187164,41.4822984 30.8309504,41.6055892 C30.8429579,41.7289948 30.5631605,41.7041989 30.4049107,41.6795178 C30.2466609,41.6550662 30.3076046,41.5315459 30.2224193,41.2849643 C30.137234,41.038268 30.125,41.2480001 30.0275806,40.8902961 C29.9302745,40.5325921 29.8573233,40.4215845 29.8573233,40.4215845 C29.8573233,40.4215845 29.638243,40.2241356 29.5651785,40.1500923 C29.492114,40.0762785 29.4190495,39.940475 29.3460982,39.6197353 C29.2730337,39.2991104 29.127018,39.4840466 29.127018,39.4840466 C29.127018,39.4840466 29.0174778,39.7431409 28.9444133,39.8912276 C28.8713488,40.0391995 28.7253331,40.0391995 28.7253331,40.0391995 C28.7253331,40.0391995 28.7009782,39.8788296 28.6766234,39.7307429 C28.6522685,39.582771 28.5549625,39.6814955 28.3845919,39.595169 C28.214108,39.5087277 28.1289227,39.5459216 28.067979,39.582771 C28.0072618,39.6197353 27.9463181,39.6568144 27.7760607,39.7184598 C27.6055769,39.7801052 27.5569805,39.6814955 27.3620285,39.607567 C27.1674163,39.5334088 27.1552956,39.5212405 27.0214006,39.5580899 C26.8875056,39.595169 26.9362153,39.5459216 26.7779655,39.4347992 C26.6197157,39.3237915 26.704901,39.237465 26.6440705,38.8797611 C26.5832401,38.5220571 26.8144411,38.5590214 26.8144411,38.5590214 C26.8144411,38.5590214 26.85103,38.4110495 26.9970458,38.2629628 C27.1430615,38.114991 27.0457554,38.0410624 26.9726909,38.0286645 C26.8997397,38.0162665 26.8023203,37.9054885 26.6319497,37.8560115 C26.4614659,37.8066492 26.3762806,37.9300548 26.2789745,37.9793022 C26.1815551,38.0286645 25.9747089,38.1766363 25.7190398,38.2506797 C25.4634839,38.324723 25.3539437,38.2014323 25.3052341,38.0534604 C25.2565244,37.9054885 25.1835731,37.9176568 25.1225161,37.9917002 C25.061799,38.0657435 24.9522588,38.0039833 24.9643796,37.942338 C24.9766137,37.8808074 24.8305979,37.7574018 24.8305979,37.7574018 C24.8305979,37.7574018 24.6877539,37.5870447 24.6484464,37.5210371 C24.5097937,37.3183076 24.3233376,37.4345958 24.3395364,37.428282 C24.2450623,37.4373509 24.0864726,37.4489453 24.0029865,37.4489453 C23.881099,37.4489453 23.8081478,37.2023637 23.7716722,37.116152 C23.7351966,37.0297107 23.6743661,36.8322618 23.6743661,36.8322618 C23.6743661,36.8322618 23.3822213,36.7828996 23.1631411,36.7706164 C22.9440608,36.7582185 22.9927705,36.4745579 23.0171253,36.3882314 C23.0412536,36.3019049 23.1510203,36.1538182 23.1996167,36.0676065 C23.2483264,35.9811652 23.1144314,35.9319177 22.9683024,35.9319177 C22.8222866,35.9319177 22.8101658,35.6728235 22.798045,35.5742138 C22.785811,35.4756041 22.8467547,35.27827 22.8832303,35.0808211 C22.919706,34.883487 22.8101658,34.895885 22.7371013,34.895885 C22.6641501,34.895885 22.5546099,34.8342396 22.4450698,34.8465227 C22.3355297,34.8588059 22.2623519,34.8465227 22.2137555,34.7600814 C22.1650458,34.6737549 22.152925,34.6490738 21.9825544,34.5504642 C21.8120706,34.4518545 21.6660548,34.5504642 21.6824802,34.5442652 C21.6989055,34.538181 21.5676159,34.5427728 21.5443939,34.538181 C21.4107255,34.5120075 21.4348538,34.6737549 21.3617892,34.7971605 C21.288838,34.9205661 21.1305882,34.8342396 20.9844592,34.9081681 C20.8384434,34.9823262 20.8506775,34.9944946 20.7289033,35.1424665 C20.6072424,35.2905532 20.5462986,35.228793 20.3880488,35.2165098 C20.2299123,35.2041119 20.2176782,35.0314589 20.1568478,34.871089 C20.0960173,34.710834 19.998598,34.7477983 19.9134127,34.7354003 C19.8282274,34.7231172 19.7673969,34.538181 19.7781583,34.4575943 C19.776799,34.4329132 19.770682,34.1459235 19.7749866,34.1508597 C19.7673969,34.0817526 19.6822116,34.0077092 19.6212679,33.9954261 C19.5605507,33.9831429 19.499607,33.798092 19.499607,33.6378369 C19.499607,33.4773523 19.4021876,33.5267145 19.3171156,33.613041 C19.231817,33.6993675 19.2196962,33.5391125 19.2196962,33.5391125 C19.2196962,33.5391125 19.2075755,33.4157069 19.2075755,33.3293804 C19.2075755,33.2430539 19.1101561,33.2059748 18.9033099,33.0826841 C18.6962371,32.9595081 18.598931,32.8976331 18.5503347,32.9595081 C18.5015117,33.0210387 18.3798508,32.9595081 18.3798508,32.9595081 C18.3798508,32.9595081 18.2581899,32.8237046 18.1242949,32.7867403 C17.9903999,32.7496612 17.9295695,32.7619444 17.8443842,32.6139725 C17.7591989,32.4661154 17.6861344,32.5399292 17.5765942,32.5646103 C17.4670541,32.5892914 17.4426993,32.577123 17.3817555,32.5153628 C17.3210383,32.4536027 17.1992641,32.3796741 17.1019581,32.3796741 C17.0045387,32.3796741 17.0045387,32.2686665 16.8341681,32.2439854 C16.6637975,32.2193043 16.7001599,32.1576589 16.7367488,32.0342533 C16.7733377,31.9109625 16.6394427,31.7999549 16.6394427,31.7999549 C16.6394427,31.7999549 16.4690721,31.7628759 16.4811929,31.6889473 C16.4933137,31.6150188 16.4690721,31.5409754 16.4081284,31.5409754 C16.3472979,31.5409754 16.3594187,31.3065622 16.3594187,31.3065622 L16.2098913,31.2208097 C16.1228936,31.1690368 15.9888853,31.2208097 16.0099551,31.2143812 C15.8970166,31.2941643 15.8118313,31.1215113 15.8118313,31.1215113 C15.8118313,31.1215113 15.7630083,31.0599807 15.6413474,30.9735394 C15.5196865,30.8872129 15.3006062,30.7884884 15.1545905,30.7515242 C15.0084615,30.7144451 15.0206955,30.5912691 14.7893812,30.6159502 C14.5581801,30.6405166 14.6798411,30.3569707 14.6798411,30.3569707 L14.7285507,30.171805 C14.7285507,30.171805 14.6677203,30.1101596 14.6311314,30.0485142 C14.5945425,29.986754 14.4973497,29.9373918 14.4607608,29.8266138 C14.4242852,29.7154914 14.44864,29.641448 14.4729949,29.468795 C14.4973497,29.296142 14.3634547,29.2098155 14.3634547,29.2098155 L14.0590759,29.3084252 L13.8887053,29.4195476 C13.8887053,29.4195476 13.7791652,29.2467798 13.7548103,29.1357722 C13.7305688,29.0247646 13.4748996,29.0000835 13.3774802,28.9876855 C13.2801742,28.9754024 12.939433,28.8891906 12.744481,28.7657851 C12.5499821,28.6423795 12.2821922,28.6176984 12.2821922,28.6176984 C12.2821922,28.6176984 12.1725388,28.7533871 12.0995875,28.8891906 C12.026523,29.0247646 11.9413377,28.9384381 11.8440316,28.8150325 C11.7466123,28.6917417 11.6370721,28.6547775 11.6370721,28.6547775 C11.6370721,28.6547775 11.5518869,28.7657851 11.5396528,28.8891906 C11.527532,29.0123666 11.4423467,29.1480554 11.4058711,29.4318308 C11.3692822,29.7154914 11.2840969,29.8266138 11.2110324,29.9128255 C11.1380812,29.999152 11.0406618,30.2581315 11.016307,30.3569707 C10.9920654,30.4554656 10.6389769,30.5787564 10.517316,30.5912691 C10.3956551,30.6035523 10.2982357,30.4307845 10.2251712,30.4062182 C10.170571,30.387736 10.1499544,30.2512437 10.1350016,30.1580295 C10.1092875,30.0939734 10.0721322,29.886652 10.016286,29.8207592 C9.96055303,29.7548664 9.89553128,29.6794455 9.79324096,29.6040246 C9.69095064,29.5287185 9.73750802,29.3402237 9.68166181,29.2931573 C9.62592888,29.246091 9.3656153,29.1706701 9.37852903,29.1671115 C9.34352603,29.1496625 8.93912243,28.9065248 8.95566107,28.9225962 C8.77747427,28.7657851 8.65513369,28.7533871 8.47252904,28.5066908 C8.28992439,28.2599944 8.28992439,28.2969587 8.21697315,28.3216398 C8.14390864,28.3463209 8.08307818,28.2723924 7.97353805,28.2478261 C7.86399791,28.2230302 7.742337,28.0873414 7.6571517,28.0379792 C7.64293527,28.0297713 7.6324413,28.0266973 7.62290809,28.0259039 L7.59442908,28.0275115 C7.55293565,28.031168 7.48262757,28.0256578 7.20675711,27.8283619 C6.79295141,27.5323034 6.85378187,27.643311 6.62258082,27.5448161 C6.39126649,27.4459769 6.37914571,27.5448161 6.24525074,27.5692676 C6.11135577,27.5939488 6.07488015,27.5569845 6.06264609,27.4952243 C6.05041203,27.4335789 6.0260572,27.3472524 5.94098518,27.3472524 C5.85579988,27.3472524 5.80709021,27.2609259 5.81932426,27.1499183 C5.83144504,27.0389107 5.72190491,27.0019464 5.63671961,26.9525842 C5.55142104,26.9033368 5.50282464,26.7799312 5.5636551,26.6195613 C5.62448556,26.4593063 5.57588916,26.4222272 5.51494542,26.4222272 C5.45411496,26.4222272 5.40540529,26.2989365 5.40540529,26.2250079 C5.40540529,26.1508498 5.28374437,26.1261687 5.21067986,26.1140003 C5.13772862,26.1014876 5.08901894,26.0152758 5.08901894,26.0152758 C5.08901894,26.0152758 5.0526566,25.9133371 4.96747131,25.8023295 C4.88228601,25.6913219 4.90641429,25.7931458 4.76039854,25.632776 C4.61426951,25.4725209 4.50472938,25.5341663 4.4074233,25.5836433 C4.31000395,25.632776 4.31000395,25.5588474 4.16398819,25.5958117 C4.01797244,25.632776 3.92043981,25.5094852 3.85972263,25.4108756 C3.79889217,25.3121511 3.71370688,25.2135414 3.64064236,25.2381078 C3.56757785,25.2629037 3.54322301,25.2751868 3.51898145,25.1271001 C3.49462661,24.9791283 3.43368288,24.9791283 3.43368288,24.9791283 C3.43368288,24.9791283 3.34849758,24.9668451 3.23895745,25.0160925 C3.12941731,25.0654548 3.05646607,25.1394981 3.06858685,25.2505057 C3.08070763,25.3615133 3.0077564,25.3984776 2.86162737,25.4108756 C2.71561161,25.4231587 2.66690194,25.4108756 2.66690194,25.4108756 C2.66690194,25.4108756 2.60607148,25.4231587 2.56959586,25.2751868 C2.53300696,25.1271001 2.37475715,25.1394981 2.37475715,25.1394981 C2.37475715,25.1394981 2.25309624,25.1271001 2.07060487,25.114817 C1.88800022,25.102419 1.8635321,25.0160925 1.8635321,25.0160925 C1.8635321,25.0160925 1.77846008,24.7078656 1.74198447,24.5597789 C1.70539557,24.4119218 1.66891995,24.2143581 1.64456511,24.1157485 C1.62021027,24.017024 1.51067014,23.9185291 1.41336406,23.7580445 C1.31594471,23.5976747 1.34029955,23.5729935 1.16992896,23.5729935 C0.999445088,23.5729935 1.06027554,23.5361441 0.950848689,23.486667 C0.841195277,23.4373048 0.975203528,23.1783253 0.999445088,23.0797157 C1.02379993,22.9809912 1.09686444,22.8699836 0.999445088,22.7713739 C0.902139012,22.6726495 0.914259792,22.5492439 0.914259792,22.5492439 C0.914259792,22.5492439 1.19417052,22.2902644 1.34029955,22.1300094 C1.4863153,21.9696395 1.21852536,21.8340656 1.10898522,21.673581 C0.999445088,21.5133259 0.865550115,21.303479 0.829074497,21.0691807 C0.792598878,20.8348823 0.975203528,20.7608389 1.19417052,20.5635048 C1.41336406,20.3661707 1.21852536,20.3908518 1.0725096,20.3537727 C0.926493851,20.3168085 0.865550115,20.2921274 0.804719658,20.1688366 C0.743889201,20.045431 0.695179524,19.9468214 0.609994229,19.872778 C0.524808933,19.7988495 0.549163772,19.8111326 0.512688153,19.6754439 C0.476099256,19.5397552 0.305728665,19.5027909 0.171833692,19.490393 C0.03793872,19.4781098 0.0622935584,19.2560946 0.0622935584,19.2560946 C0.0622935584,19.2560946 0.0745276168,18.9477528 0.184067751,18.9106738 C0.293494607,18.8737095 0.257018988,18.7257376 0.257018988,18.7257376 L0.23266415,18.5406867 C0.23266415,18.5406867 0.220543369,18.3310694 0.184067751,18.2076638 C0.147478854,18.0842582 0.0745276168,17.8129956 0.0135838815,17.6526257 C-0.0472465756,17.4922559 0.111003235,17.3936462 0.196188531,17.2332764 C0.281373827,17.0729066 0.37879318,17.171631 0.524808933,17.1469499 C0.670824686,17.1222688 0.731768421,17.0482254 0.804719658,17.0359423 C0.877784174,17.0236591 0.987324308,16.9249347 1.09686444,16.8508913 C1.20640458,16.776848 1.27946909,16.6288761 1.36465439,16.6411593 C1.44983968,16.6535572 1.51067014,16.9249347 1.53502498,17.0975877 C1.5472024,17.1839142 1.5472024,17.3196029 1.54567314,17.4676178 L1.54373063,17.769109 C1.54411871,17.8184388 1.54512563,17.8663948 1.54714576,17.9116052 C1.55937982,18.1829827 1.8149357,18.3186714 1.92447584,18.3803168 C2.03401597,18.4419622 2.33828153,18.5160055 2.48441057,18.5160055 C2.63042632,18.5160055 2.70337756,18.429679 2.80079691,18.3680337 C2.89821626,18.3063883 2.8859822,18.1706995 2.8859822,18.0350108 C2.8859822,17.8993221 3.19024777,17.8869241 3.37285242,17.862243 C3.55545707,17.8376767 3.56757785,17.701988 3.57981191,17.6279446 C3.59193269,17.5539013 3.6284083,17.3812483 3.59193269,17.2455596 C3.55545707,17.1099856 3.56757785,17.0112612 3.70147282,16.9003684 C3.83536779,16.7892459 3.73806172,16.6782383 3.55545707,16.5178685 C3.37285242,16.3574987 3.51898145,16.2342079 3.53110223,16.1601645 C3.54322301,16.086236 3.57981191,15.8887871 3.61628752,15.728532 C3.65276314,15.5681622 3.45803771,15.4324735 3.33626352,15.3831112 C3.21460261,15.333749 3.25107823,15.1857771 3.25107823,15.1857771 C3.25107823,15.1857771 3.22683667,14.8651522 3.27554634,14.6430222 C3.32414274,14.421007 3.11729653,14.3470784 3.03211124,14.2854331 C2.94681266,14.2237877 2.93469188,14.0510199 2.89821626,13.9770913 C2.86162737,13.903048 2.81303097,13.7920404 2.69125678,13.7057139 C2.56959586,13.6193874 2.61819226,13.5576272 2.60607148,13.4590175 C2.5939507,13.3602931 2.48441057,13.3110456 2.33828153,13.2615686 C2.19226578,13.2123212 2.15567689,13.0643493 2.10708049,12.8792984 C2.05837081,12.6942474 2.03401597,12.6819642 1.91235506,12.645 C1.79058086,12.6079209 1.8149357,12.4722322 1.8149357,12.3859057 C1.8149357,12.2995792 1.75410525,12.1147578 1.8635321,11.9789543 C1.97318551,11.8432656 2.05837081,11.4855616 2.07060487,11.2758295 C2.08272565,11.0660975 2.00966113,10.7331894 1.97318551,10.5852175 C1.93659662,10.4371308 2.07060487,10.5358553 1.92447584,10.2275136 C1.77846008,9.91905705 1.8635321,9.96841928 1.93659662,9.94385296 C2.00966113,9.91905705 2.20449984,9.83273055 2.2653303,9.78336832 C2.32616075,9.73412089 2.73996645,9.586149 2.84950659,9.5613531 C2.95904672,9.53667198 3.0077564,9.25301137 3.01987718,9.14211855 C3.03211124,9.03099614 3.10506247,8.96935075 3.26331228,8.84605998 C3.42156209,8.72265441 3.37285242,8.68557534 3.27554634,8.62404475 C3.25730853,8.61245037 3.23465287,8.60303711 3.21482916,8.5920167 L3.09792594,8.53301162 C3.16645932,8.45208053 3.70022676,8.30112395 3.75765887,8.32109843 C3.81520425,8.34107291 3.94989217,8.50901928 4.02986667,8.50901928 C4.10984116,8.50901928 4.17916749,8.40168514 4.28191092,8.41327952 C4.38476764,8.42487391 4.55026726,8.42407033 4.66445181,8.42407033 C4.77863635,8.42407033 4.87843455,8.40088157 5.09536253,8.40088157 C5.16321624,8.40088157 5.23650731,8.34945301 5.31319674,8.34233567 C5.39758908,8.33464435 5.53306995,8.40719534 5.62108721,8.42705503 C5.78590716,8.46436369 5.83269111,8.33992496 5.92297393,8.35186373 C6.18555307,8.38641729 6.35852906,8.3581775 6.4042935,8.30032038 C6.44994466,8.24246326 6.62597917,7.85364962 6.67049755,7.74941496 C6.68714946,7.71049916 6.69417272,7.57469563 6.73529275,7.49043546 C6.76519822,7.42890487 6.81141578,7.40330539 6.83021998,7.33695337 C6.85423498,7.25143044 6.8703205,7.17336925 6.88085539,7.13273151 C6.9111007,7.01713206 7.00885989,6.73037195 7.00885989,6.73037195 L7.009313,6.5871067 C7.009313,6.5871067 7.03253506,6.49458122 7.13527849,6.51765519 C7.17379312,6.52637968 7.2157061,6.58492558 7.24402568,6.5704613 C7.29126273,6.54646896 7.38970159,6.37370116 7.39683813,6.27256599 C7.40816596,6.11058901 7.42640377,5.99028293 7.42640377,5.99028293 C7.42640377,5.99028293 7.4429424,5.64187744 7.56856806,5.60720909 C7.69419371,5.57242593 7.78991389,5.63108663 7.89277061,5.57322951 C7.98271359,5.52260452 8.18638801,5.26810206 8.28176835,5.15881639 C8.29536175,5.14320415 8.38167983,5.03954347 8.39028898,5.03070419 C8.41309568,5.00759195 8.46131449,5.00278328 8.51732013,5.00418634 L8.69107229,5.01493889 C8.74502633,5.01667358 8.78914194,5.01252817 8.80579385,4.99041083 C8.82550428,4.96435217 8.4847631,4.5680768 8.49223947,4.52169927 C8.5145553,4.38233707 8.57017495,4.23000294 8.66668808,4.12829379 C8.72242101,4.0696331 8.85439025,4.14780909 8.94082161,4.10441625 C9.00822221,4.07066626 9.02736624,3.91236275 9.09533324,3.88733724 C9.14698815,3.86816633 9.21246302,3.79974799 9.24066932,3.83694185 C9.25834074,3.86036021 9.22481035,3.92625305 9.24304816,3.95495202 C9.29764831,4.04104893 9.41432498,4.05092137 9.41432498,4.05092137 C9.41432498,4.05092137 9.55490337,4.09672493 9.6676153,4.09833207 C9.78032723,4.09993921 9.83073608,4.0444928 9.91071057,4.10234992 C9.99068507,4.16020705 10.0595583,4.20291111 10.0824405,4.31862536 C10.1052094,4.4344544 10.3142079,4.47371459 10.3942957,4.47371459 C10.4742702,4.47371459 10.6112237,4.43881664 10.6913115,4.42722226 C10.771286,4.41562787 10.9127706,4.50700539 11.015514,4.5765717 C11.073286,4.61560229 11.2549844,4.65314055 11.3561419,4.61778342 C11.4328313,4.59092118 11.4921892,4.41367634 11.5386333,4.33951821 C11.5386333,4.33951821 11.6303887,4.04013056 11.84743,4.27155905 C12.0644712,4.50310233 12.0605065,4.36144422 12.1519221,4.41930134 C12.1861322,4.44099776 12.1463715,4.62742627 12.2190961,4.6433829 C12.3401907,4.67001554 12.4303602,4.55774517 12.4873392,4.55774517 C12.5788681,4.55774517 12.7711014,4.57978598 12.8396348,4.59126557 C12.9080549,4.60285995 12.9881427,4.55223497 13.1936295,4.73740072 C13.2610301,4.79812774 13.395718,4.92681392 13.369664,5.02312766 C13.3637736,5.04528326 13.3491607,5.06583173 13.3234465,5.0832807 C13.2975057,5.10084447 13.3474615,5.16696689 13.4298148,5.16696689 C13.5120549,5.16696689 13.5794555,5.14423731 13.706667,5.18969648 C13.8338786,5.23527044 13.9610901,5.25800003 14.0509198,5.19727301 L14.1338396,5.15537251 C14.243493,5.10015569 14.373763,5.08018121 14.4651786,5.06870162 C14.5251029,5.0611251 14.8156618,5.14469649 14.891445,5.11576793 C15.0464097,5.05664806 15.0387068,4.96308942 15.1153962,4.92417361 C15.164559,4.8993777 15.3327773,4.99201798 15.3889633,4.90925015 C15.4261186,4.85449252 15.4862694,4.75416092 15.4849101,4.66186503 C15.4835507,4.56956915 15.4651996,4.35616361 15.4651996,4.33297484 C15.4651996,4.25204375 15.4666723,4.245156 15.5924112,4.20291111 C15.6653624,4.17845959 15.7495282,4.13277083 15.8586152,4.07893156 C15.9081179,4.05413566 15.9704209,4.09603615 16.0315912,4.06917392 L16.0697536,4.03819517 L16.0697536,4.03819517 L16.1739874,3.93064937 C16.1902446,3.91526852 16.2045389,3.90369566 16.2147623,3.8997352 C16.4774547,3.7966485 16.6161074,3.85771991 16.6810158,3.73638067 C16.753514,3.60126592 16.6831681,3.34779662 16.8073212,3.32518183 C16.8432304,3.31863847 16.8870691,3.3120951 16.9184472,3.2898247 C16.9993279,3.23196758 17.0428268,3.11326864 17.1261996,3.08732477 C17.2747075,3.04106203 17.6915717,3.17227372 17.8778013,3.24608747 C18.0639176,3.32001602 18.1113812,3.50805166 18.282658,3.47326851 C18.4540481,3.43860016 18.5092146,3.32277112 18.577748,3.28810276 C18.6462814,3.25331961 18.7793834,3.34320478 18.9085207,3.34917417 C19.0377713,3.35514356 18.9963114,3.27972266 19.0992814,3.34917417 C19.2020248,3.41862568 19.1926227,3.50678891 19.2107472,3.65728631 C19.2287585,3.8077837 19.1555807,4.1031535 19.3381854,4.28831925 C19.5210166,4.47371459 19.6365604,4.62042372 19.7432686,4.72018134 C19.8499768,4.82005375 19.9665402,4.82085732 20.0693969,4.7630002 C20.1721403,4.70502828 20.1721403,4.60090842 20.3777405,4.75129102 C20.4677967,4.81718385 20.5751846,4.87194149 20.6752093,4.91659708 C20.8038935,4.97399502 20.942886,4.89340832 20.9942011,4.91946698 C21.0855034,4.96561492 21.2874787,5.06479856 21.4360998,5.08787253 C21.5011216,5.09797457 21.6025057,5.1389567 21.6974329,5.12988783 C21.8194336,5.11806385 21.9404149,5.05285979 22.0624156,5.04631643 C22.2794569,5.03483684 22.5138297,5.12173732 22.5938042,5.09854855 C22.6736654,5.07547458 22.8922926,4.8659721 22.9607127,4.84278334 C23.0294726,4.81959457 23.1716369,4.80329355 23.3772371,4.82636753 C23.4285522,4.83222211 23.4718245,4.80731141 23.5102258,4.81293641 C23.6255432,4.8298114 23.6989475,4.90902056 23.8274051,4.94380371 C23.8809858,4.95815319 23.8895949,5.04115061 23.9406834,5.04413531 C24.0531688,5.05102306 24.1763023,5.02404603 24.2390585,5.03196694 C24.3303609,5.04344653 24.5699445,4.93657157 24.7070113,4.90178842 C24.8439648,4.86712006 25.0496782,4.78607417 25.1296527,4.69354869 C25.2096272,4.60090842 25.3892866,4.5680768 25.3938177,4.43043654 C25.3949505,4.40081921 25.3277764,4.2560616 25.3607404,4.21611264 C25.4287074,4.13426318 25.50585,4.11853614 25.5979452,4.12634226 C25.735012,4.13782185 25.8264276,4.03370199 26.0546834,3.98732445 C26.2832791,3.94106172 26.3975769,3.90639336 26.5117614,3.90639336 C26.6260593,3.90639336 26.6496211,3.81857451 26.7973361,3.79056432 C26.945051,3.76266892 26.9229617,3.62858734 27.0372596,3.61699295 C27.1514441,3.60539857 27.2428597,3.59380419 27.334162,3.54754145 C27.4255776,3.50127871 27.4589947,3.45765627 27.6036511,3.36352365 C27.7481943,3.26927624 27.9360097,3.34515631 28.1369655,3.34389356 C28.3378079,3.3427456 28.3504951,3.25136808 28.4646796,3.20510534 C28.5788642,3.15872781 28.7486684,3.17629158 28.8857352,3.34997774 C29.0228019,3.52354911 29.0177044,3.60023275 29.1090067,3.63490111 C29.310982,3.71169955 29.409081,3.67921232 29.4816924,3.72111281 C29.6468522,3.81662298 29.7558259,4.06837034 29.9043338,3.79056432 C30.0527284,3.5127583 30.1418784,3.46305168 30.2331808,3.44009251 C30.2816639,3.42780935 30.5337081,3.26319206 30.6714546,3.24792421 C30.7201189,3.24255176 30.7565674,3.24669359 30.7858747,3.25290727 L30.8574485,3.27032134 C30.8674986,3.27177879 30.8770321,3.27189359 30.8866834,3.26973542 C30.954084,3.25458237 31.160024,3.27007981 31.3045671,3.20487575 C31.3803503,3.17066658 31.4067441,3.07033498 31.4577194,3.02659775 C31.5226279,2.97092175 31.6994553,2.98584522 31.780336,2.89033505 C31.8843255,2.76750346 31.9832175,2.55042445 31.9895611,2.47454438 C32.008252,2.24920007 32.0578679,2.34206993 32.1867786,2.2760623 C32.2709444,2.23278426 32.3353998,2.09996543 32.3298492,2.05324351 C32.318408,1.95532262 32.2664133,1.72240179 32.2829519,1.68337119 C32.3296226,1.57408551 32.5197036,1.53218502 32.6682115,1.46273351 C32.7424088,1.42795036 32.8923893,1.49384319 32.9509542,1.46525902 C33.0094058,1.43667485 33.0669512,1.24519532 33.1353713,1.25667491 C33.1695813,1.2624147 33.2898829,1.20914942 33.3286241,1.21649635 C33.4453008,1.23888155 33.4882332,1.32497846 33.5481575,1.32497846 C33.5855393,1.32497846 33.6208821,1.21374125 33.7035753,1.20111371 C33.7975963,1.18687902 33.9396473,1.26918766 33.9821267,1.23233818 C34.0619879,1.16300147 34.2330382,1.11180251 34.3130127,1.06553977 C34.3929872,1.01916224 34.4615206,0.926177578 34.6675738,0.87348627 C34.8736271,0.820794962 34.9315123,0.833537305 34.9420472,0.848805156 L35.0492085,1.00263163 L35.2054193,1.01698112 L35.4785333,0.890935243 C35.5938506,0.866828109 35.8858821,0.864646987 36.0340502,0.883703103 C36.146309,0.898167384 36.1311297,0.672363892 36.1867493,0.653537368 C36.3238161,0.607389425 36.4999639,0.593843512 36.6381634,0.556994035 C36.7762497,0.520029762 36.8367403,0.323384424 36.9205663,0.327057892 C37.0045055,0.33073136 37.156525,0.176216108 37.2479406,0.361381859 C37.3393562,0.546662406 37.3105835,0.535871594 37.3565745,0.597746572 C37.4026788,0.659506754 37.6295753,0.716675101 37.7745715,0.676726136 C37.9194545,0.63677717 37.9814177,0.597287388 38.0383967,0.574098621 C38.0953757,0.551024649 38.3878604,0.520603742 38.6084132,0.514634356 C38.7367576,0.511305276 39.0363787,0.465616516 39.1621177,0.430488978 C39.2360884,0.40982572 39.2425453,0.29147117 39.3166293,0.283205867 C39.3907133,0.274710972 39.6628078,0.2405018 39.8227568,0.2405018 C39.9825925,0.2405018 40.1732399,0.202274773 40.2303322,0.167376826 C40.2875378,0.132708471 40.5502302,0.109519703 40.6187636,0.0979253198 C40.6872969,0.0863309362 40.8661634,0.0437416655 40.8661634,0.0437416655 C40.8661634,0.0437416655 41.1304417,-0.0569343193 41.221744,0.0471855419 Z" id="西藏"></path>
            </g>
        </g>
    </g>
</svg>