<?xml version="1.0" encoding="UTF-8"?>
<svg width="120px" height="120px" viewBox="0 0 120 120" version="1.1" xmlns="http://www.w3.org/2000/svg" xmlns:xlink="http://www.w3.org/1999/xlink">
    <title>jdo_cn_ximalaya_radio_province_ningxia</title>
    <g id="jdo_cn_ximalaya_radio_province_ningxia" stroke="none" stroke-width="1" fill="none" fill-rule="evenodd">
        <g id="编组">
            <rect id="矩形" x="0" y="0" width="120" height="120"></rect>
            <g id="宁夏-" transform="translate(32.000000, 19.000000)" fill="#FFFFFF" fill-opacity="0.189284" fill-rule="nonzero">
                <path d="M41.0392482,6.3087513 C41.2082051,6.38180554 41.4162832,6.48251064 41.5614688,6.59655702 C41.5979251,6.62506861 41.748867,6.63970098 41.8206071,6.71103376 L41.8233786,6.71081858 C41.8694287,6.7567599 41.8711342,6.74632358 41.8696419,6.81184645 L41.7487604,8.88544631 C41.7487604,8.88544631 41.5253323,9.09987502 41.1909363,9.46428547 C40.8566469,9.82869593 39.6219293,10.9912159 39.4078818,11.3691828 C39.1938342,11.7471497 38.6723598,12.8539375 38.3648263,13.0564236 C38.0571863,13.2589097 37.7435768,13.5900746 37.7435768,13.5900746 L37.1739203,15.8727236 L36.9840704,18.3644218 L36.1898132,20.1243941 L34.9181064,21.1376854 L34.9353751,21.2238657 L35.0784288,21.3634112 C35.0784288,21.3634112 35.8848381,21.9708695 35.9490097,22.0113237 C36.0131813,22.0518855 36.4385049,22.4122075 36.4745348,22.4447 C36.5106714,22.4770848 36.9560352,22.7604793 37.1566515,22.8577415 C37.3572678,22.9548961 38.0552675,23.2626061 38.1355354,23.323395 C38.2158032,23.3841839 38.4926366,23.5258811 38.5729044,23.6067895 C38.6530657,23.6878055 38.8938692,23.9267649 39.0181617,24.0077809 C39.1425609,24.0886893 39.4474294,24.2790176 39.555839,24.3114025 C39.6641419,24.3437873 40.1214447,24.4693459 40.4223691,24.4936615 C40.7232936,24.517977 41.0803948,24.6192201 41.2127888,24.6394472 C41.3451827,24.6596743 41.922834,24.8864759 42.0352942,24.9269301 C42.1475413,24.9674919 42.492597,25.0848736 42.540779,25.0929429 C42.5888545,25.1011198 42.9098192,25.2063438 42.9098192,25.2063438 L42.9917926,25.0206418 C42.9917926,25.0206418 43.0608677,24.724444 43.3198994,24.6896921 C43.5787178,24.6547251 43.906718,24.5153949 44.1139433,24.4805354 C44.321062,24.4456759 44.5456627,24.3933867 44.5628249,24.2366268 C44.5800937,24.0797592 44.5281808,24.02747 44.7354061,24.0797592 C44.9425248,24.1320484 44.9425248,24.1669079 45.0634062,24.0797592 C45.1842877,23.9926106 45.581363,24.1146187 45.6849756,24.3063457 C45.7884817,24.4979651 45.9611695,25.0206418 46.5134505,25.1077905 C47.0660514,25.1949391 47.2730635,25.264658 47.5320952,25.334377 C47.7911268,25.4039883 47.9638146,25.5782856 48.0845894,25.961632 C48.2054709,26.3449785 48.5507398,26.6934655 48.9650839,26.9374817 C49.3794279,27.1813903 49.4139655,27.35558 49.4139655,27.35558 C49.4139655,27.35558 49.1550404,27.9306535 49.0858587,28.0176946 C49.0168902,28.1048432 48.8960088,28.3488594 49.2240089,28.401041 C49.4700357,28.4403117 49.5984856,28.5153026 49.6487995,28.5114293 C49.6815249,28.5088471 49.719367,28.4969045 49.7625389,28.4707599 C49.8821412,28.3982437 49.8306547,28.3144303 49.8950395,28.3123861 L50.3150332,28.2991524 C50.4219504,28.2958171 50.3837885,28.2773115 50.397966,28.3617703 C50.4100115,28.4337487 50.4626706,28.5644716 50.656891,28.749528 C50.967729,29.0458334 51.2784604,29.3420312 51.2784604,29.3420312 L52.521386,29.6207993 C52.5839586,29.714511 53.0598094,30.3371397 52.993719,30.3902896 C52.9337047,30.4385979 52.8067472,30.5742701 52.9011925,30.8056982 C53.0220739,31.101896 52.9529988,31.0148549 52.780311,30.9625657 C52.6076232,30.9101689 52.5041172,31.0844662 52.6249986,31.293623 C52.7458801,31.5026722 52.7285047,31.6072505 52.7285047,31.6072505 L52.365967,31.7814402 L52.0726109,31.3459122 L51.9344607,31.380664 L51.8481168,31.1890446 L51.6926979,31.3110527 L51.8653856,31.5375316 L51.571923,31.5898208 L51.2957292,31.8337294 C51.2957292,31.8337294 51.0194287,31.7814402 50.7432349,31.9383078 C50.4669345,32.0951754 50.3288909,32.077638 50.4325035,32.2519353 C50.5360096,32.4262326 50.6396223,32.339084 50.4325035,32.6178521 C50.2252782,32.8966201 50.242547,33.0709174 50.1389343,33.227785 C50.0354283,33.384545 50.0140022,33.3591535 50.046621,33.4498527 C50.0792398,33.5406594 50.046621,33.524198 49.908151,33.4664217 C49.769681,33.4086454 49.6719312,33.4003608 49.557872,33.5323749 C49.4438127,33.664389 49.3867831,33.6396431 49.1993849,33.5406594 C49.0119867,33.4415682 48.9387543,33.3838994 48.8246951,33.4169299 C48.7105293,33.4498527 48.6698091,33.4415682 48.7024279,33.5652977 C48.7350467,33.6891349 48.7757669,33.8046875 48.9385411,33.8293259 C49.1016351,33.8540718 49.1911769,33.8789253 49.1911769,33.8789253 L49.1911769,34.0850695 L48.9060289,34.0355777 C48.9060289,34.0355777 48.7024279,34.4150508 48.5638513,34.4892886 C48.4253813,34.5636339 48.3847677,34.5718108 48.3847677,34.6872559 C48.3847677,34.8028085 48.3276315,35.1245054 48.0425901,35.0997595 C47.7574421,35.0750136 47.6677937,35.0667291 47.5944546,35.0667291 C47.5212222,35.0667291 47.4151578,35.0668367 47.5781452,35.223489 C47.7411327,35.380249 47.9448403,35.809214 48.1403399,35.7680067 C48.3358395,35.7266918 48.4824109,35.669023 48.4906189,35.7680067 C48.4987203,35.8669903 48.4743095,36.0237503 48.3522555,36.3207013 C48.2298817,36.6176522 48.1647507,36.9064263 47.9773525,37.0466172 C47.7900609,37.1869158 47.5211156,37.2611535 47.3826456,37.409629 C47.2441756,37.5581045 47.2115568,37.6075963 47.2115568,37.9045472 C47.2115568,38.2014982 47.2441756,38.3252278 47.178938,38.5068412 C47.1137004,38.6882395 47.122015,38.7129854 47.1301164,38.8614609 C47.1382178,39.010044 47.187146,39.2657876 47.0730868,39.4471859 C46.9590276,39.6286918 46.9508196,39.6617222 46.901998,39.9174658 C46.8530698,40.1731019 46.7554266,40.1979554 46.8042482,40.3711767 C46.8530698,40.5443981 47.3973561,41.2039305 47.5195167,41.2946296 C47.5459528,41.3656396 47.5470188,41.337128 47.5873126,41.3798416 C47.6261141,41.4209414 47.6327231,41.4479467 47.6677937,41.5023877 C47.6757885,41.5149758 47.6853822,41.5289627 47.6972145,41.5449937 C47.7083007,41.5610248 47.701585,41.5547845 47.709793,41.5618855 C47.9119017,41.7360752 47.8933537,42.0168875 47.9006023,42.1505154 C47.9050794,42.2313162 47.9162722,42.3086741 47.9317288,42.4128221 C47.9492108,42.5309569 47.1268119,42.2912443 47.1515425,42.3914115 C47.1546338,42.403892 47.1343803,42.5355833 47.1368321,42.5473107 C47.1561262,42.6382251 47.8431464,43.1599335 47.8853589,43.2536452 C47.9318354,43.3567173 47.9444139,43.3473568 47.9846011,43.4122342 C48.0612446,43.5360713 48.087361,43.575342 48.1077211,43.8694956 C48.110386,43.9070448 48.0415241,44.2577912 48.0373668,44.2954481 C48.0289456,44.6149931 47.8079692,44.7529247 47.6767478,44.9824161 C47.6574537,44.9995231 47.6569207,44.9843527 47.6428499,44.9649864 C47.5831553,44.882249 47.4683499,44.6857879 47.344164,44.5632419 C47.3033372,44.5228953 47.2567541,44.4967507 47.2157141,44.4784602 C47.1819228,44.4632899 47.1763797,44.4510245 47.178938,44.487713 C47.178938,44.487713 47.2360742,44.6939648 47.2767944,44.8423327 C47.3175146,44.9909158 47.3500268,45.0238386 47.3337174,45.1392837 C47.3175146,45.2548363 47.2482263,45.3519909 47.1585779,45.2777532 C47.0689295,45.2035154 47.0649854,45.0898994 47.0079558,44.9990927 C46.9508196,44.9083935 46.8449684,44.8093023 46.7798374,44.9494933 C46.7145998,45.0898994 46.6413674,45.1723141 46.543511,45.0403 C46.4457612,44.9083935 46.3806302,44.9413164 46.2095414,44.784664 C46.038346,44.627904 45.9733216,44.4463981 45.8917746,44.3638759 C45.8103342,44.2813536 45.7450965,44.2566077 45.5497035,44.2730691 C45.3540973,44.2896381 44.9468953,44.4133677 44.6861581,44.5123514 C44.4254209,44.6114426 44.4335223,44.7516336 44.1890945,44.627904 C43.9447733,44.5041744 43.9366718,44.5288128 43.7736844,44.5784122 C43.6108036,44.627904 43.5211552,44.6608268 43.3093462,44.4793209 C43.0975372,44.2979227 43.0241982,44.2401463 42.97527,44.33913 C42.9264484,44.4381136 42.8612108,44.4958899 42.9427578,44.6114426 C43.0241982,44.7268877 43.048609,44.8836476 42.8776268,44.7351722 C42.7064314,44.5866967 42.69833,44.5701277 42.5924788,44.5948736 C42.486521,44.6196195 42.551652,44.6691113 42.55986,44.7351722 C42.5679614,44.8011254 42.5353426,44.8836476 42.348051,44.7351722 C42.1607594,44.5866967 42.2094744,44.6031581 41.9977719,44.4546826 C41.7858563,44.3062072 41.4926069,44.1411627 41.4111665,44.0752094 C41.3298327,44.0091486 41.2890059,44.1247013 41.2481791,44.1824776 C41.2074589,44.2401463 41.2237683,44.3309531 41.3459289,44.3804449 C41.4681961,44.4299367 41.5496365,44.5123514 41.4681961,44.6031581 C41.3866491,44.6939648 41.3214115,44.6361885 41.3785477,44.7516336 C41.4355773,44.8670786 41.3703397,45.0238386 41.2807979,44.8836476 C41.1911495,44.7433491 41.1504293,44.7351722 41.1341199,44.9165705 C41.1179171,45.0980763 41.0445781,45.1145378 40.9060015,44.9660623 C40.7675315,44.8175868 40.6453709,44.768095 40.4986929,44.6773958 C40.3521215,44.5866967 40.0995922,44.3721604 39.9774316,44.2401463 C39.8551644,44.1081323 39.692177,44.0338945 39.488576,44.0504635 C39.2848684,44.0669249 39.1462918,44.1247013 39.1627078,44.3638759 C39.1790172,44.6031581 39.1544998,44.9331395 39.1137796,45.0816149 C39.0730594,45.2300904 39.0974702,45.4114887 38.9263814,45.1392837 C38.7553992,44.8670786 38.7227804,44.7433491 38.6087212,44.7268877 C38.494662,44.7104262 38.421323,44.7268877 38.3398825,44.6114426 C38.2583355,44.4958899 38.1932045,44.512459 38.1117641,44.644473 C38.0303237,44.7763795 37.9323607,44.7020342 37.8755443,44.6691113 C37.8185147,44.6360809 37.7858959,44.8589017 37.7858959,44.8589017 L37.6311165,44.8753631 C37.6311165,44.8753631 37.6311165,44.487713 37.4110995,44.6360809 C37.1911891,44.784664 37.2074985,44.6939648 37.1341595,44.5784122 C37.0608205,44.4629671 36.8735289,44.3638759 36.7594697,44.4546826 C36.6453039,44.5453818 36.6535119,44.6855727 36.7675711,44.8918245 C36.8816303,45.0980763 37.2237013,45.4940109 37.2808375,45.7168317 C37.3377605,45.939545 37.3622779,46.1622582 37.3459685,46.3190181 C37.3296591,46.4757781 37.3622779,46.5417313 37.4600277,46.657284 C37.5577775,46.7727291 37.5903963,46.780906 37.5496761,46.8635358 C37.5088493,46.9459504 37.4925399,46.9706964 37.4193075,46.929489 C37.3459685,46.8881741 37.2970403,46.8717127 37.2808375,47.0532186 C37.2645281,47.2347245 37.2237013,47.3006777 37.2155999,47.5234985 C37.2074985,47.7462117 37.2155999,47.8451954 37.1341595,47.8699413 C37.0528257,47.8946872 36.9141425,47.8781182 36.8001899,47.812165 C36.6861307,47.7462117 36.3846732,47.655405 36.4253934,47.8450878 C36.4661136,48.0348782 36.5801729,48.1504308 36.4905245,48.2163841 C36.400876,48.2823373 36.262406,48.4060669 36.123936,48.2823373 C35.985466,48.1586077 36.0424956,48.1668922 36.0832158,48.1174004 C36.123936,48.0679086 36.050597,47.7874191 35.9365378,47.6471205 C35.8225852,47.5069295 35.6760138,47.3748079 35.6025682,47.3996614 C35.5293358,47.4244073 35.561848,47.4656146 35.6432884,47.6306591 C35.7247288,47.7958111 35.7655556,47.9936709 35.7410382,48.1421463 C35.7165208,48.2906218 35.6676992,48.3318291 35.8796148,48.3813209 C36.0914238,48.4309204 36.262406,48.4473818 36.3195422,48.5546499 C36.3764652,48.6618105 36.4987325,48.6619181 36.5557621,48.6948409 C36.6127917,48.7278713 36.6453039,48.8516009 36.6045837,49.0082533 C36.5638635,49.1650132 36.5719649,49.2475355 36.6453039,49.3135963 C36.7186429,49.3795495 36.8082913,49.3300577 36.9060411,49.2722814 C37.0037909,49.2146126 37.0037909,49.1897591 37.0852313,49.3135963 C37.1667783,49.4372183 37.2074985,49.5115636 37.1341595,49.5939782 C37.0608205,49.6765005 36.9630707,49.8249759 37.0934393,49.9487055 C37.2237013,50.0725427 37.3377605,50.2044491 37.2482187,50.2952559 C37.1585703,50.385955 37.2482187,50.4520158 37.3541765,50.4767618 C37.4600277,50.5015077 37.5333667,50.7654282 37.3866887,50.9881414 C37.2401173,51.2109622 37.1748797,51.2356005 37.1911891,51.4501368 C37.2074985,51.6647807 37.2155999,51.8873863 37.2074985,51.9533396 C37.1993971,52.0192928 37.1829811,52.0853536 37.0852313,52.0523232 C36.9874815,52.0192928 36.9630707,52.1348455 37.0282017,52.2339367 C37.0934393,52.3328128 37.2726295,52.4731113 37.3052483,52.5638105 C37.3377605,52.6546172 37.3296591,52.8112696 37.1422609,52.6546172 C36.9549693,52.4978572 36.8409101,52.3246359 36.7675711,52.3905891 C36.6942321,52.4565423 36.6453039,52.3823046 36.5476607,52.2421136 C36.4498042,52.1019226 36.3032328,52.0688922 36.262406,52.1513069 C36.2216858,52.2339367 36.2379952,52.2339367 36.2462032,52.3081744 C36.2543046,52.3823046 36.1402454,52.4648268 36.0424956,52.3741277 C35.9447458,52.2833209 35.8795082,52.3823046 35.7084194,52.4400809 C35.5374372,52.4978572 35.3745564,52.4978572 35.3174202,52.6051254 C35.2603906,52.712286 35.2440812,52.712286 35.3012174,52.9020763 C35.3581404,53.0917591 35.4232714,53.2237732 35.2196704,53.2155963 C35.0160694,53.2073118 34.9101116,53.273265 34.926421,53.4795168 C34.9427304,53.6857686 34.9427304,53.8260672 34.86129,54.1230181 C34.779743,54.4199691 34.7878444,54.5684446 34.4131545,54.5601601 C34.0383581,54.5518756 33.9732271,54.5354141 34.0465661,54.6674282 C34.1199051,54.7994423 34.1606253,55.1294236 34.2746845,55.2861836 C34.3887437,55.4429436 34.4457733,55.5666731 34.3154047,55.5006123 C34.1850361,55.4346591 34.0872863,55.5006123 34.1850361,55.616165 C34.2827859,55.73161 34.3642263,55.9378618 34.1443159,55.8800855 C33.9244055,55.8224168 33.6473589,55.7646404 33.5169903,55.616165 C33.3866217,55.4676895 33.3296987,55.4675819 33.3541095,55.57485 C33.3785203,55.6821182 33.4518593,55.7811018 33.3704189,55.8471627 C33.2889785,55.9131159 33.2725625,55.8800855 33.1748127,55.7563559 C33.0770629,55.6326264 32.9466943,55.4923278 32.8816699,55.5171813 C32.8164323,55.5419272 32.9222835,55.6573723 32.9711051,55.7646404 C32.9956225,55.8182207 33.0302666,55.8945027 33.0588347,55.9574434 C33.1134126,56.0779452 33.0850577,56.0651419 33.2100964,56.0889195 C33.2100964,56.0889195 33.2702173,56.0646039 33.4268089,56.1010772 C33.5832939,56.1376582 33.5711418,56.3445555 33.5832939,56.4783986 C33.5952328,56.6123493 33.6073849,56.6975613 33.7518243,56.6975613 C33.8962638,56.6975613 33.9804757,56.7218769 34.0286578,56.7949311 C34.0768398,56.8679853 34.1732038,57.0262516 34.3536732,57.0384094 C34.5342492,57.0505671 34.5464013,57.0384094 34.6065222,57.2209912 C34.6667497,57.4034654 34.7389162,57.4400463 34.7991437,57.2088334 C34.8593712,56.9775129 35.1871582,57.315456 35.1871582,57.315456 C35.1871582,57.315456 35.480301,57.4969619 35.3907592,57.6620064 C35.3012174,57.8269432 35.2196704,58.1487477 35.0975098,58.1158249 C34.9753492,58.0826869 34.9101116,58.2312699 35.0403736,58.3055077 C35.1708488,58.3796378 35.1544328,58.6272045 35.0403736,58.5777127 C34.926421,58.5283285 34.86129,58.5199364 34.853082,58.6931578 C34.8449806,58.8663791 34.7716416,59.0231391 34.9753492,59.0643464 C35.1788436,59.1056614 35.350039,59.1963605 35.41517,59.3366591 C35.480301,59.47685 35.496717,59.5758337 35.3744498,59.63361 C35.2522892,59.6913863 35.1626408,59.7078478 35.1626408,59.9883373 C35.1626408,60.2688268 35.1219206,60.5245705 35.1544328,60.7472837 C35.1871582,60.9699969 35.284908,61.1597873 35.284908,61.2835168 C35.284908,61.4072464 35.2522892,61.4731996 35.1626408,61.3247241 C35.073099,61.1762487 35.0323788,60.937074 34.8693914,60.9122205 C34.7065106,60.8874746 34.5761419,60.8791901 34.6575824,61.0277732 C34.7389162,61.1762487 34.9426238,61.4897686 34.9996534,61.5970368 C35.0567896,61.7041973 35.1463314,61.8692418 35.2196704,61.7290508 C35.2930094,61.5887523 35.3093188,61.4979455 35.4477888,61.6052137 C35.5862588,61.7124818 35.6760138,61.9270181 35.8306866,61.8444959 C35.985466,61.7619737 35.9610552,61.66299 35.9773646,61.4734148 C35.993674,61.2835168 36.0098768,61.2586633 36.0914238,61.1927101 C36.1728642,61.1267568 36.3032328,61.1597873 36.4171854,61.3412931 C36.5313513,61.5229066 36.6208931,61.5722909 36.6208931,61.3743236 C36.6208931,61.1762487 36.6045837,60.9782814 36.7186429,61.1349338 C36.8327021,61.2916937 36.8328087,61.4319923 36.9630707,61.5475449 C37.0934393,61.6628824 37.1993971,61.6959128 37.2155999,61.5475449 C37.2319093,61.3989619 37.2970403,61.2257405 37.3459685,61.2999782 C37.3948967,61.3743236 37.4356169,61.5309759 37.4110995,61.6217827 C37.3866887,61.7124818 37.4110995,61.803181 37.5170573,61.7536892 C37.6229085,61.7041973 37.8836457,61.6299596 37.9650861,61.6052137 C38.0466331,61.5805754 38.0710439,61.6877359 38.1932045,61.8774187 C38.3154717,62.0672091 38.4294244,62.3394141 38.624924,62.3229527 C38.8205302,62.3064913 38.8775598,62.3394141 38.8775598,62.3394141 C38.8775598,62.3394141 39.05675,62.4960665 39.1708092,62.5868733 C39.2848684,62.67768 39.4314398,62.7766636 39.5048854,62.6858569 C39.5781178,62.5951578 39.7002784,62.4055826 39.7002784,62.4055826 C39.7002784,62.4055826 39.838855,62.5869809 39.9040926,62.6612186 C39.9359653,62.6976919 40.2844321,62.6774648 40.2795286,62.5974172 C40.2713206,62.4655107 40.4009431,62.2568919 40.4742821,62.4549668 C40.5476211,62.6528265 40.6209601,62.9251391 40.7105019,62.8838242 C40.8001503,62.8426169 40.9060015,62.83444 40.9549297,63.0405842 C41.0038579,63.246836 41.0770903,63.3376427 41.2156669,63.4448033 C41.3541369,63.5520714 41.2807979,63.5933863 41.4111665,63.5933863 C41.5415351,63.5933863 41.4926069,63.6098478 41.4926069,63.7252928 C41.4926069,63.8408455 41.5496365,63.8738759 41.6066661,63.9067987 C41.6636957,63.9398291 41.6066661,63.9398291 41.6066661,64.1295119 C41.6066661,64.3193023 41.5660525,64.4265704 41.7370347,64.3110178 C41.9081235,64.1954651 41.8676165,63.9659737 42.0171727,64.1425304 C42.2272761,64.3905275 42.3088231,64.1972942 42.201373,64.4925237 C42.1443434,64.6492837 41.9976653,64.822505 42.1607594,64.8884583 C42.3236402,64.9545191 42.478313,64.9874419 42.3317416,65.1524864 C42.1850636,65.3175309 42.1932716,65.5154982 42.1769622,65.7629573 C42.1607594,66.0104164 42.1524448,66.1424305 42.0710044,66.2496986 C41.9895639,66.3569668 41.9895639,66.4393814 41.9895639,66.6044259 C41.9895639,66.7693628 42.1036232,66.7611859 42.1850636,66.7941087 C42.2666106,66.8271391 42.3887712,66.8106777 42.3561524,66.9591532 C42.3236402,67.1075211 42.201373,67.1323746 42.0873138,67.1983278 C41.9595035,67.2722428 41.9488437,67.4276041 41.9488437,67.3550878 C41.9278441,67.5201323 41.8652714,67.5365937 41.838622,67.6627978 C41.8143178,67.7782429 41.6472797,67.868942 41.6554877,67.6957206 C41.6635891,67.5226068 41.7614455,67.5669343 41.6554877,67.4430972 C41.5497431,67.3193676 41.3785477,67.3386264 41.3703397,67.4458945 C41.3623449,67.5530551 41.4517801,67.8092291 41.4517801,67.8092291 L41.4633992,67.8185895 C41.4781097,67.8307472 41.4938861,67.8424747 41.5106219,67.8535565 C41.5694636,67.8921817 41.6317165,67.9402748 41.6936496,67.9890135 C41.7113448,68.0028927 41.6966343,68.0620677 41.717634,68.0532453 C41.717634,68.0532453 41.9442601,67.8457024 42.0338019,67.8210641 C42.1234503,67.7962106 42.1687542,67.734561 42.2666106,67.8418291 C42.3643604,67.9489897 42.068979,68.1235021 41.9712292,68.2142013 C41.9420215,68.2360423 41.9487371,68.2374409 41.9185701,68.2182898 C41.9098291,68.212695 41.9008749,68.2067775 41.8918141,68.2006448 C41.8646318,68.1822468 41.8698551,68.1936514 41.8510939,68.2213023 C41.8510939,68.2213023 41.8021657,68.2707941 41.7940643,68.4028082 C41.7858563,68.5347147 41.7777549,68.6419828 41.6310769,68.5677451 C41.4845055,68.4935073 41.1993575,68.435731 41.2074589,68.5594606 C41.2156669,68.6831901 41.1586373,68.724505 41.0445781,68.6255214 C40.9304123,68.5265377 41.0933997,68.5760296 40.9223109,68.749251 C40.7512221,68.9224723 40.7105019,69.1699315 40.8734893,69.1534701 C41.0363701,69.1370086 41.1748401,69.1038706 41.2156669,69.1865005 C41.2563871,69.2690227 41.3622383,69.3184069 41.1911495,69.31023 C41.0201673,69.3019455 40.9468283,69.3432604 41.0689889,69.4916283 C41.1911495,69.6402114 41.3866491,69.8051483 41.4274759,69.9454468 C41.4681961,70.0856378 41.5333271,70.1598755 41.6473863,70.1434141 C41.7614455,70.1268451 41.8999155,70.192906 41.8428859,70.3001741 C41.7858563,70.4073347 41.7451361,70.4239037 41.8755047,70.5064259 C42.0058733,70.5889481 41.9406357,70.737316 41.7777549,70.6383324 C41.6147675,70.5393487 41.3703397,70.4156192 41.4845055,70.5806636 C41.5985647,70.7456005 41.6229755,70.8362997 41.7289333,70.9435678 C41.8347845,71.050836 41.8102671,71.0260901 41.7940643,71.1993115 C41.7777549,71.3725328 41.7695469,71.4385937 41.6963145,71.3477869 C41.6229755,71.2570878 41.6066661,71.2405188 41.5740473,71.3891018 C41.5415351,71.5375773 41.4845055,71.5375773 41.4274759,71.4220247 C41.3703397,71.3065796 41.3867557,71.2406264 41.2971073,71.2157729 C41.2074589,71.1910269 41.1179171,71.2240574 41.1259119,71.3560714 C41.1341199,71.4880855 41.1016077,71.7107987 41.0852983,71.8014978 C41.0689889,71.892197 41.0526795,72.0490646 40.9304123,71.9499733 C40.8082517,71.8509897 40.7757395,71.8592742 40.6697817,71.908766 C40.5639305,71.9582578 40.5150023,71.9170505 40.4498713,71.8428128 C40.3845271,71.7684674 40.2298543,71.7355446 40.2786759,71.8674511 C40.3276041,71.9994651 40.4417699,72.3048082 40.2786759,72.5109524 C40.115795,72.7172042 40.124003,72.6924583 40.0017358,72.5851901 C39.8795752,72.4780296 39.7491,72.2799547 39.5456056,72.2634933 C39.341898,72.2470319 39.2359402,72.2799547 39.2115294,72.4036842 C39.1871186,72.5274138 39.0811608,72.6677124 39.1708092,72.7420577 C39.2604576,72.8161878 39.3092792,72.9812323 39.2115294,73.0142627 C39.1137796,73.0471856 38.9997204,73.0554701 38.9019706,72.9564864 C38.8042208,72.8573952 38.6901616,72.7749805 38.5434836,72.6924583 C38.3969122,72.609936 38.2176153,72.4285377 38.1524843,72.3048082 C38.0873533,72.1810786 37.9243659,72.1231947 37.9243659,72.3212696 C37.9243659,72.5193445 38.0140143,72.8161878 37.8022053,72.750127 C37.5903963,72.6842814 37.4112061,72.6761045 37.3459685,72.5356983 C37.2808375,72.3955073 37.2970403,72.3872228 37.2074985,72.3048082 C37.1178501,72.2222859 37.1422609,72.1727941 37.1341595,72.0573491 C37.1260581,71.9417964 37.0119989,71.908766 36.9956895,72.0160341 C36.9793801,72.1231947 36.9386599,72.1314792 36.8734223,72.0077496 C36.8081847,71.8840201 36.6372025,71.752006 36.6698213,71.9499733 C36.7023335,72.1480482 36.8897317,72.337731 36.5394527,72.19754 C36.189067,72.0573491 35.9610552,71.9335119 35.8225852,71.9417964 C35.6840086,71.9499733 35.5455386,71.9252274 35.561848,72.0407801 C35.5781574,72.1562251 35.5617414,72.4202532 35.488509,72.2553164 C35.41517,72.0902719 35.41517,72.0324956 35.3093188,72.0407801 C35.203361,72.0490646 34.8611834,72.1810786 34.7309214,72.3625845 C34.6005527,72.5439828 34.3399221,72.9151715 34.2258629,73.080216 C34.1116971,73.2451528 34.0465661,73.1791996 34.2013455,73.4183742 C34.3561249,73.6576564 34.6005527,73.6988638 34.4945949,73.8721927 C34.3887437,74.0454141 34.4457733,74.078337 34.5354217,74.1361133 C34.6250701,74.1938896 34.7389162,74.3093347 34.6657904,74.4331718 C34.5923447,74.5569014 34.633065,74.5898242 34.7309214,74.622747 C34.8286712,74.655885 34.8938022,74.9692974 34.9101116,75.0930269 C34.926421,75.2168641 34.86129,75.2580714 34.86129,75.2580714 L34.8271788,75.2649572 C34.7541596,75.2213829 34.6851911,75.1736125 34.6535317,75.1609168 C34.6377552,75.154569 34.6115323,75.149835 34.5778475,75.1448858 L34.5597259,75.1673723 C34.5597259,75.1673723 34.5516245,75.9097496 34.4294639,76.0334792 C34.3071967,76.1573164 34.1606253,76.2893304 34.3154047,76.4129524 C34.4701841,76.536682 34.5191123,76.4624442 34.6005527,76.7264723 C34.6819932,76.9903929 34.7145054,77.1471528 34.8123618,77.1224069 C34.9101116,77.097661 35.1952596,77.0399923 35.1788436,77.1637218 C35.1626408,77.2874514 35.1871582,77.3863275 35.0975098,77.5018801 C35.0078614,77.6173252 34.9508318,77.5844024 35.0975098,77.7659082 C35.2440812,77.9474141 35.431586,78.2113347 35.3419376,78.384556 C35.2522892,78.557885 35.2522892,78.5331391 35.1788436,78.5661695 C35.1057178,78.5990924 35.13823,78.714645 35.1952596,78.8219132 C35.2522892,78.9290737 35.2930094,79.30037 35.2930094,79.399246 C35.2930094,79.4982297 35.3093188,79.5478291 35.1708488,79.5807519 C35.0321656,79.6137823 35.073099,79.6963046 35.0810938,79.8282111 C35.0893018,79.9602251 35.13823,80.0180014 35.0321656,80.1334465 C34.926421,80.2488916 34.8938022,80.3810132 34.6737852,80.5376656 C34.4538747,80.6944256 34.4701841,80.7439174 34.3642263,80.727456 C34.2583751,80.710887 34.1606253,80.7191715 34.1362145,80.867647 C34.1116971,81.0161224 34.1687267,81.0657218 33.8917867,81.1151061 C33.6147401,81.1645979 33.6717697,81.2223742 33.5740199,81.3296424 C33.4762701,81.4369105 33.4437579,81.428626 33.3051813,81.3957032 C33.1666047,81.3626728 33.1176765,81.3462114 33.1666047,81.4781179 C33.2156395,81.6102395 33.2725625,81.6925466 33.1830207,81.8328451 C33.0933723,81.9731437 32.9223901,82.0968733 32.8978727,81.8906215 C32.8734619,81.6843697 32.8652539,81.5935629 32.7511947,81.6348778 C32.637242,81.6761927 32.637242,81.7092232 32.4825692,81.4864024 C32.3276832,81.2635816 32.2624456,81.0491528 32.0994582,80.9583461 C31.9365774,80.867647 31.8388276,80.7852323 31.855137,80.5789805 C31.8714464,80.3727287 31.7898994,80.2159687 31.5780904,80.1334465 C31.3662814,80.0510319 31.2929424,80.00154 31.2522222,79.8117496 C31.211502,79.6219593 31.1951926,79.6714511 31.138163,79.5890364 C31.0811334,79.5065142 31.1219602,79.432384 31.1870912,79.3827846 C31.2522222,79.3332928 31.1951926,79.2343092 31.1300616,79.1435024 C31.064824,79.0526957 31.064824,78.8960433 31.0323118,78.7311064 C30.999693,78.5661695 31.0160024,78.4835397 30.7635797,78.4835397 C30.5108373,78.4835397 30.4376049,78.557885 30.2746175,78.384556 C30.1117367,78.2113347 30.1524569,78.0710361 30.0629151,78.0215443 C29.9731601,77.9720525 29.9650587,78.0051905 29.9650587,78.0711437 C29.9650587,78.1370969 29.8102793,78.2113347 29.7125295,78.3516332 C29.6147797,78.4917166 29.3621439,78.6733301 29.2970129,78.8795819 C29.2318819,79.0858337 29.2400899,79.1435024 29.1585429,79.1435024 C29.0771025,79.1435024 29.0444837,79.14361 29.0607931,79.3002624 C29.0771025,79.4570224 28.857192,79.5065142 28.8652934,79.3250083 C28.8735014,79.1435024 28.922323,78.9455351 28.8979122,78.7970596 C28.8735014,78.6485842 28.8733948,78.5494929 28.7512342,78.5 C28.6290736,78.4506169 28.6127642,78.3598101 28.5557346,78.1701273 C28.4985984,77.980337 28.5271665,77.9382689 28.4308025,77.8895302 C28.3343318,77.8408991 28.3706816,77.8530569 28.3706816,77.6582097 C28.3706816,77.5365244 28.337743,77.3006851 28.3130124,77.1409126 C28.2959568,77.0920663 28.2871092,77.0999204 28.3352912,77.0841046 C28.3719607,77.0720544 28.4052191,77.0607573 28.433041,77.0504286 C28.4678984,77.0375177 28.4819692,77.0444035 28.4925224,77.0073922 C28.4925224,77.0073922 28.5845159,76.8475121 28.6122312,76.817817 C28.6861032,76.7385225 28.809543,76.5839144 28.7268234,76.511936 C28.6127642,76.4129524 28.433574,76.3387147 28.4579848,76.4789056 C28.4823956,76.6192042 28.4823956,76.7595028 28.3276162,76.7181878 C28.1728368,76.6769805 28.1075992,76.6605191 27.928409,76.7595028 C27.7492188,76.8584864 27.724808,76.8419174 27.569922,76.7676797 C27.4151426,76.6934419 27.4070412,76.668696 27.4884816,76.5861738 C27.569922,76.5037591 27.5618206,76.2644769 27.423244,76.3056842 C27.2848806,76.3471067 27.2115416,76.2893304 27.0404527,76.1985237 C26.8693639,76.1077169 26.5026689,76.0169102 26.2420383,76.0169102 C25.9813011,76.0169102 25.8754499,75.9263186 25.7043611,75.8024815 C25.5332723,75.6788595 25.3703915,75.6045142 25.3703915,75.7283513 C25.3703915,75.8519733 25.3214633,75.9922719 25.2400228,75.9014651 C25.1584758,75.810766 25.1178622,75.6869288 25.0770354,75.9263186 C25.0363152,76.1654933 25.0200058,76.2644769 24.9385654,76.4047755 C24.857125,76.545074 24.8896372,76.6110273 24.865333,76.6934419 C24.8408156,76.7759642 24.6860362,77.11423 24.6045958,76.8089946 C24.5231554,76.5037591 24.6209052,76.2480155 24.580185,76.0500482 C24.5394648,75.8519733 24.5475662,75.8685423 24.4579178,75.8355119 C24.3682694,75.8024815 24.3846854,75.8190505 24.3682694,75.6457215 C24.3520666,75.4725001 24.2706262,75.2004027 24.1564604,75.3158477 C24.0424012,75.4312928 23.7817706,75.3735165 23.7654612,75.1508033 C23.7491518,74.9279825 23.7654612,74.9033442 23.5454442,74.7548687 C23.3255337,74.6062856 23.1707543,74.4991251 23.2359919,74.3755031 C23.3011229,74.2515583 23.3988727,74.2352045 23.3825633,74.1113674 C23.3662539,73.9876378 23.3173257,73.9876378 23.2277839,74.0866215 C23.1381355,74.1856051 23.1218261,74.2928733 23.0811059,74.1691437 C23.0403857,74.0454141 22.9752547,74.0040992 22.8122673,73.9298615 C22.6493865,73.8556237 22.6004583,73.7732091 22.6086663,73.6164491 C22.6167677,73.4596891 22.7227255,73.36899 22.7145175,73.2698988 C22.7064161,73.1709151 22.7552377,73.1709151 22.6248691,73.1461692 C22.4946071,73.1214233 22.2257685,73.1214233 22.2175605,72.923456 C22.2094591,72.7254887 22.2013577,72.651251 22.3153103,72.651251 C22.4294761,72.651251 22.5515301,72.5934746 22.6086663,72.4036842 C22.6656959,72.2140014 22.7471363,72.2553164 22.7878565,72.4285377 C22.8285767,72.6017591 23.0078735,72.7914419 23.1218261,72.5769056 C23.2359919,72.3625845 23.3499445,72.180971 23.2521947,72.1314792 C23.1544449,72.0819874 23.0647965,72.1067333 23.0078735,72.19754 C22.9508439,72.2882392 22.9345345,72.2058245 22.8204753,72.1150178 C22.7064161,72.0243186 22.5272259,71.9748268 22.3968573,71.9994651 C22.2664887,72.0243186 22.2338699,71.9335119 22.2501793,71.8509897 C22.2664887,71.7684674 22.1198107,71.7437215 22.0708825,71.8428128 C22.0220609,71.9417964 21.9732393,71.9170505 21.9487219,71.8345283 C21.9243111,71.752006 21.9080017,71.611815 21.7207101,71.8345283 C21.5333118,72.0573491 21.3784258,72.0984488 20.9711172,72.2222859 C20.5638086,72.3460155 20.3764104,72.3789383 20.3764104,72.5522673 C20.3764104,72.7254887 20.360101,73.0471856 20.2623512,73.0059782 C20.1646014,72.9647709 20.1157798,72.9151715 20.1565,72.7007428 C20.1972202,72.4862065 20.2705592,72.3129851 20.1157798,72.2717778 C19.9610004,72.2304629 19.9120722,72.1149102 19.5781025,72.19754 C19.2440263,72.2799547 19.0485267,72.3212696 18.9019553,72.1810786 C18.7552773,72.0407801 18.6656289,71.9830037 18.6085993,71.8014978 C18.5516763,71.619992 18.4538199,71.6694838 18.4048917,71.7602905 C18.3560701,71.8509897 18.2664217,71.9170505 18.2827311,71.6530224 C18.2991471,71.3891018 18.3234513,71.1827424 18.1279517,71.1167892 C17.9324521,71.050836 17.9324521,70.8776146 17.9405535,70.6547938 C17.9487615,70.4320806 17.8347022,70.3001741 17.720643,70.2836051 C17.6065838,70.2671437 17.5495542,70.192906 17.4273936,70.4486496 C17.3051264,70.7043932 17.2399954,70.8198383 17.1340376,70.7291391 C17.0281864,70.6383324 16.9711568,70.5558101 17.0606986,70.4733955 C17.150347,70.3908733 17.085216,70.3001741 17.0933174,70.192906 C17.1014188,70.0856378 17.077008,69.9783697 17.0525972,69.8712091 C17.0281864,69.7639409 17.085216,69.62375 17.231894,69.7390874 C17.3784654,69.8546401 17.443703,69.8877781 17.443703,69.7473719 C17.443703,69.607181 17.4681138,69.450421 17.1910672,69.3597219 C16.9141272,69.2690227 16.5393308,69.3019455 16.4578904,69.0709478 C16.37645,68.8399501 16.3438312,68.6584442 16.4334796,68.6172369 C16.523128,68.5760296 16.588259,68.4274465 16.4578904,68.2543327 C16.3276284,68.0810037 16.2216706,67.8664674 16.3194204,67.7180996 C16.4171702,67.5696241 16.4334796,67.6025469 16.449789,67.2395351 C16.4543727,67.1375389 16.4608751,67.0510358 16.4698293,66.9757222 C16.4788901,66.9004085 16.5556402,66.8849154 16.6452886,66.835316 C16.734937,66.7859318 16.7511398,66.7446169 16.6779074,66.6620946 C16.6045684,66.5795724 16.6614914,66.4228124 16.8163774,66.3735358 C16.9711568,66.3239364 17.085216,66.3403978 17.0689066,66.1012232 C17.0525972,65.861941 16.9630554,65.861941 17.2399954,65.72175 C17.5169354,65.5814514 17.4681138,65.5402441 17.4844232,65.4411529 C17.500626,65.3423844 17.6065838,65.3669151 17.6799228,65.3834841 C17.7531552,65.3999455 17.8102914,65.2432931 17.8592196,65.119456 C17.9080413,64.9957264 18.0546127,64.8389665 18.2746297,64.8389665 C18.4945401,64.8389665 18.8286163,64.8967428 18.9019553,64.8967428 C18.9751877,64.8967428 19.2196155,64.9957264 19.2685437,64.6575682 C19.3173653,64.3193023 19.4640433,63.9232601 19.3907043,63.8738759 C19.3173653,63.8242765 19.1869967,63.7666077 19.1869967,63.5768173 C19.1869967,63.3871345 19.0485267,63.1891672 19.0485267,63.0654377 C19.0485267,62.9417081 18.8774379,62.6693955 18.7470693,62.5126355 C18.6168073,62.3558755 18.6493195,62.2488226 18.6493195,62.0260018 C18.6493195,61.803181 18.6493195,61.7041973 18.6412181,61.6465286 C18.6331167,61.5887523 18.7226585,61.4734148 18.8205149,61.3825005 C18.9182647,61.2916937 18.9182647,61.1433258 18.8040989,60.9947428 C18.6900397,60.8462673 18.5760871,60.6895073 18.5760871,60.5988082 C18.5760871,60.5080014 18.4620279,60.4173023 18.2583203,60.3678105 C18.0546127,60.3183187 17.9731723,60.2275119 17.9161427,60.0130832 C17.8592196,59.7986545 17.7369524,59.7573396 17.6962322,59.6417869 C17.655512,59.5263419 17.6717148,59.5263419 17.7776726,59.5428033 C17.8836304,59.5593723 17.9161427,59.4356427 17.8020834,59.3366591 C17.6880242,59.2376754 17.6228932,59.2211064 17.6065838,58.9075865 C17.5902744,58.5941741 17.5332448,58.2641928 17.4191856,58.1569246 C17.3051264,58.049764 17.158555,58.1816705 17.158555,57.9672418 C17.158555,57.7528131 17.1748644,57.3484864 17.0689066,57.0844583 C16.9630554,56.8205378 16.3601406,56.2017824 16.3601406,56.2017824 C16.3601406,56.2017824 16.2378734,56.2678432 16.1890518,56.3503654 C16.1402302,56.4327801 16.0667846,56.4410646 15.9935521,56.3503654 C15.9202131,56.2595587 15.8958023,56.2430973 15.8305647,56.3256195 C15.7654337,56.4080342 15.6269637,56.4163187 15.5129045,56.2513818 C15.3988453,56.0863373 15.1055959,55.9048314 15.3906373,55.7480714 C15.6758919,55.591419 15.7572257,55.6078805 15.6676839,55.4099132 C15.5781421,55.2118383 15.5046965,55.2118383 15.5129045,55.0469014 C15.5210059,54.8819645 15.4314641,54.8489341 15.3499171,54.8489341 C15.2684767,54.8489341 15.1381081,54.733489 15.1788283,54.6345054 C15.2195485,54.5355217 15.1626255,54.4199691 15.0892865,54.4116846 C15.0159475,54.4034001 14.9996381,54.4365381 14.9752273,54.1724024 C14.9507099,53.9084818 14.8855789,53.570216 14.8041385,53.4876937 C14.7226981,53.4052791 14.5842281,53.15782 14.5516093,52.9598527 C14.5189905,52.7618854 14.6656685,52.5390646 14.7552103,52.4071581 C14.8448587,52.275144 15.2277565,52.1678759 15.4639763,52.14313 C15.7003027,52.1183841 15.7001961,52.1019226 15.7410229,52.0358618 C15.7817431,51.9699086 15.9284211,51.9780855 16.1076114,52.0523232 C16.2868016,52.1266686 16.303111,52.2173677 16.4986106,52.0688922 C16.6941102,51.9203092 16.7186276,51.82961 16.6860088,51.6811345 C16.65339,51.5326591 16.6126698,51.4913442 16.6289792,51.3182304 C16.6452886,51.1449014 16.523128,50.9469341 16.3438312,50.7737127 C16.164641,50.6003837 16.0505818,50.6003837 16.0342724,50.3281787 C16.0180695,50.0559737 15.9609333,50.0972886 15.8794929,50.0312277 C15.7980525,49.9652745 15.7573323,49.9488131 15.8061539,49.8249759 C15.8550821,49.7012464 15.8550821,49.7095309 15.7003027,49.4785332 C15.5454167,49.2475355 15.3172983,49.0578527 15.2033457,49.0908831 C15.0892865,49.1238059 14.9752273,49.0412837 14.7307995,49.0661372 C14.4863717,49.0908831 14.4375501,49.0908831 14.3561097,49.1815822 C14.2746693,49.2722814 14.1768129,49.2393586 14.2094317,49.1155214 C14.2420505,48.9918994 14.2583599,48.8433164 14.2094317,48.6618105 C14.1605035,48.4803046 14.1931223,48.5051581 14.2582533,48.4885891 C14.3234909,48.4721277 14.3479017,48.4473818 14.3234909,48.2575914 C14.2990801,48.0679086 14.2908721,47.9360021 14.1687115,47.7958111 C14.0464442,47.655405 13.940593,47.5481368 13.948801,47.3748079 C13.9569024,47.2016941 13.9650038,47.1604867 13.8509446,47.1522022 C13.7368854,47.1439177 13.2644458,47.1109949 13.0526368,47.0037268 C12.8408278,46.8964586 12.4416206,46.7315217 12.2949426,46.7149527 C12.1482645,46.6984913 12.1482645,46.6984913 12.0913415,46.7727291 C12.0343119,46.8469668 12.0261039,46.9212045 11.8550151,46.8222209 C11.6839263,46.7232372 11.5046295,46.6737454 11.5942779,46.5252699 C11.6839263,46.3766869 11.7165451,46.401648 11.5698671,46.3190181 C11.4232957,46.2364959 11.3173379,46.21175 11.2276895,46.2859877 C11.1381477,46.3602255 10.9018213,46.5087009 10.7877621,46.343764 C10.6738095,46.1787196 10.6085719,46.0714514 10.6329827,45.8817686 C10.6575001,45.6919782 10.7145297,45.4198808 10.5108221,45.35382 C10.3071144,45.2878667 10.0301744,45.2053445 10.095412,44.9909158 C10.160543,44.7763795 10.1198228,44.6939648 10.0383824,44.5948736 C9.95683543,44.4958899 9.86729362,44.3721604 9.86729362,44.3721604 C9.86729362,44.3721604 9.77124937,43.9044626 9.6027189,43.746304 C9.43418843,43.5880377 9.22952144,43.3445595 9.22952144,43.3445595 C9.16055293,43.2730115 9.23431832,43.2830175 9.21971448,43.208457 C9.20713599,43.144548 9.22589713,42.9945662 9.24146035,42.893108 C9.25073432,42.8323191 9.25510482,42.8456604 9.20020716,42.8154273 C9.20020716,42.8154273 8.83265936,42.598524 8.75932036,42.5324632 C8.68598136,42.46651 8.71049876,42.4254102 8.50679115,42.4417641 C8.30308354,42.4583331 8.19723233,42.3179269 8.03424492,42.1943049 C7.87136411,42.0704678 7.82243591,42.1117827 7.78171571,42.169559 C7.74099551,42.2272278 7.5943175,42.4087336 7.51287709,42.4087336 C7.43143669,42.4087336 7.35809769,42.4500486 7.26844928,42.5821702 C7.17890747,42.7139691 6.91006886,42.8871905 6.73077205,42.9365747 C6.55147524,42.9861741 6.28274323,43.0357735 6.20119622,42.9861741 C6.11975582,42.9367899 6.10344642,42.8708367 5.8265064,42.9285054 C5.54945979,42.9861741 5.50884618,42.6727618 5.29693058,42.3839877 C5.08512156,42.0952137 5.15846057,41.583834 5.15846057,41.583834 C5.12669455,41.5723218 5.16506961,41.5235831 5.17626233,41.5130392 C5.25589058,41.4378331 5.31398616,41.3173313 5.3409553,41.2254487 C5.37325431,41.1152756 5.49850624,41.0949409 5.65200648,41.1560525 C5.80561332,41.2172718 5.90656104,41.2539603 5.98746846,40.9847678 C6.06826928,40.7155753 6.06006128,40.5688213 6.27432203,40.5648404 C6.48847619,40.5606444 6.90058169,40.3731134 6.9409821,40.1772979 C6.95110885,40.128344 6.96507311,40.0899341 6.98212869,40.0616377 L6.90591156,40.0522772 C6.74196478,40.0136521 6.30257034,39.8936882 6.28274323,39.7194985 C6.25822583,39.5049622 6.25023102,39.0678203 6.39680243,39.010044 C6.54337384,38.9522676 6.65743305,38.9192372 6.46193344,38.7707618 C6.26643383,38.6222863 6.25023102,38.7543004 6.15237462,38.6140018 L6.09236029,38.5717186 C5.78663898,38.6670441 5.49115102,38.6505827 5.24416487,38.6759742 C4.94100189,38.7071755 4.44500424,38.4434702 4.10357281,38.2268896 L4.05869531,38.267559 C4.05869531,38.267559 3.67579749,38.5480486 3.48839928,38.5480486 C3.30100107,38.5480486 2.91000185,38.6057173 2.77963324,38.4324959 C2.64926463,38.2593821 2.67367544,38.0035309 2.33970582,38.1272605 C2.0057362,38.2510976 1.49246977,38.5480486 1.31327956,38.5397641 C1.13408935,38.5315871 0.881453538,38.5480486 0.767394332,38.6305708 C0.653335126,38.7129854 0.482246317,38.5975404 0.327466909,38.5480486 C0.264041462,38.5277139 0.148383296,38.5060881 0.0235577534,38.4955442 C-0.0127919562,38.4925316 -0.000853048658,38.4925316 0.0179080918,38.4655263 C0.0179080918,38.4655263 0.449734114,37.8798013 0.596305523,37.8550554 C0.74298353,37.8303095 1.22363116,37.8963703 1.34589836,37.7973867 C1.46805897,37.698403 1.64852835,37.5958689 1.77889695,37.6123303 C1.90915896,37.6287917 2.2097636,37.6883971 2.217865,37.4656839 C2.226073,37.2429707 2.30719361,36.6754285 2.48638382,36.6341136 C2.66557403,36.5929063 3.29289967,36.551699 3.43947108,36.5598759 C3.58614908,36.5681604 6.98330127,36.4279694 6.98330127,36.4279694 L8.27867273,36.394939 L9.12590878,35.8256754 L11.1381477,35.5700394 L15.1219053,33.5159135 L17.3458466,32.6744449 L18.7552773,33.0044263 L20.9793252,33.0539181 L21.1667234,32.7074753 C21.1667234,32.7074753 21.2644732,31.6597549 21.3703244,31.6102631 C21.4762822,31.5607713 22.4865057,31.651578 22.4865057,31.651578 L22.8448861,31.3709809 L23.4885212,31.0904913 L23.5593018,31.06822 L23.4290398,30.9533129 C23.4290398,30.9533129 23.5399011,30.6872405 23.5714539,30.6391474 C23.6031133,30.5911619 23.6347728,30.3988969 23.6823152,30.2962551 C23.729751,30.193721 23.7012895,30.0248032 23.7012895,29.9800454 C23.7012895,29.9350724 23.672828,29.4983609 23.6759194,29.3669923 C23.6791173,29.2355162 23.6823152,29.0529344 23.6948937,28.9279138 C23.7074722,28.8028931 23.7189847,28.6826065 23.7569334,28.5833001 C23.794882,28.483886 23.927809,28.2532111 23.9879299,28.1762836 C24.0480508,28.0993561 24.0733144,27.9711077 24.1239482,27.8622257 C24.1746885,27.7533437 24.1588055,27.5993811 24.1398312,27.4743604 C24.1208569,27.3494473 23.9720469,27.0802549 23.9657577,27.044965 C23.9594684,27.0097828 23.8707794,26.8623832 23.8233435,26.7853481 C23.7759077,26.7084206 23.7157868,26.5579009 23.665153,26.519491 C23.6145193,26.481081 23.431385,26.2090912 23.4061214,26.1867122 C23.3807512,26.1642257 23.2794837,25.8790022 23.2320478,25.7539816 C23.184612,25.6290685 23.1150039,25.3406172 23.1055167,25.2445385 C23.0960296,25.1483523 23.0960296,24.9015387 23.0960296,24.875932 C23.0960296,24.8503254 23.0992275,24.4946298 23.1244911,24.4144746 C23.1498612,24.3343193 23.1624397,24.1036444 23.2162714,24.0202614 C23.2699965,23.9369861 23.3998321,23.7895865 23.4282936,23.7575244 C23.4567551,23.7255699 23.9682094,23.2151585 24.0315282,23.1511419 C24.0948471,23.0870178 24.3005801,22.7985665 24.3954517,22.683229 C24.49043,22.5678916 24.6075805,22.2506059 24.6296462,22.112782 C24.6518185,21.974958 24.6043826,21.6544446 24.5884996,21.5679415 C24.5727232,21.4814384 24.5727232,20.9943743 24.5727232,20.9943743 L24.571977,20.8529998 C24.571977,20.8529998 24.5720836,20.1187994 24.5231554,19.929009 C24.4742272,19.7393262 24.4254056,19.4010603 24.5475662,19.2690463 C24.6697268,19.1371398 24.7999888,18.9390649 24.6778282,18.7988739 C24.5556676,18.6585754 24.580185,18.5431303 24.645316,18.2461794 C24.7105536,17.9492284 24.8000954,17.7181231 24.857125,17.6109626 C24.9141546,17.5036944 25.0119044,17.0994753 24.9385654,16.9757458 C24.865333,16.8520162 24.848917,16.5715267 24.848917,16.472543 C24.848917,16.3735594 25.1259636,16.2249763 25.134065,16.0683239 C25.142273,15.9115639 25.068934,15.7961189 24.9141546,15.614613 C24.7593752,15.4331071 24.8081968,15.2185708 24.8978452,15.0206035 C24.9874936,14.8226362 25.2237134,14.3772098 25.272535,14.2204498 C25.3214633,14.0636898 25.3867009,14.0306594 25.3621835,13.8409766 C25.3377727,13.6511862 25.3052604,13.4945339 25.4762427,13.3872657 C25.6473315,13.2799976 25.6473315,13.2386826 25.6066113,12.982939 C25.5658911,12.727303 25.5822005,12.413783 25.7858015,12.1580394 C25.9895091,11.9024034 26.1524965,11.8034197 26.2257289,11.555853 C26.2990679,11.3083939 26.4457459,11.2176947 26.6331441,10.970128 C26.8204357,10.7226689 27.1218931,10.5823703 26.9018761,10.384403 C26.6819657,10.1864357 26.4783647,9.93897663 26.6494535,9.74100933 C26.8204357,9.54304203 27.0567621,9.43577388 27.1708213,9.20477617 C27.2848806,8.97377846 27.3907318,8.92428663 27.4966896,8.82530298 C27.6025408,8.72621174 28.0098494,8.68511201 28.140218,8.37987656 C28.2705866,8.07453352 28.433574,7.95908846 28.4579848,7.78586708 C28.4823956,7.61264569 28.5883534,7.54658487 28.425366,7.46417022 C28.2623786,7.38164798 28.3357176,7.4228553 28.3927472,7.25791842 C28.4496702,7.09298154 28.4742942,6.91147565 28.4660862,6.76289258 C28.4579848,6.61441711 28.5149078,6.47422614 28.5882468,6.30928925 C28.6616924,6.14424478 28.694098,6.02869213 28.7593356,5.9709158 C28.8245732,5.91324707 28.8816028,5.82254792 28.8816028,5.60801162 C28.8816028,5.39347532 29.1503349,5.10480887 29.2807035,4.9563334 C29.4110721,4.80785793 29.5822675,4.70887428 29.7613511,4.83260384 C29.9406479,4.9563334 30.2502067,5.1543007 30.4539143,5.12127028 C30.6575153,5.08834746 30.7226463,5.17076211 30.8205027,5.21207702 C30.9182526,5.25328435 30.9671808,5.19550802 31.0160024,5.1460162 C31.064824,5.09652437 31.0893414,5.11309337 31.2034006,5.10480887 C31.3174598,5.09652437 31.5373702,5.07177846 31.5536796,4.57686021 C31.569989,4.08194197 31.5292688,4.04062705 31.4071082,3.9333589 C31.284841,3.82609075 31.3907988,3.83448285 31.4071082,3.62812346 C31.423311,3.42197925 31.5047514,3.21561986 31.3744894,3.03422156 C31.2441208,2.85271568 31.146371,2.53930332 31.423311,2.42375067 C31.700251,2.30819802 32.0180178,2.39900475 32.278755,2.2834521 C32.5393856,2.16800704 32.7022664,2.15143804 32.9631103,2.15143804 C33.2237409,2.15143804 33.4926861,2.09376931 33.6880791,2.13497663 C33.8835787,2.17629154 34.4620827,2.22578337 34.7145054,1.8793406 C34.9671412,1.53279023 35.6678058,0.938780749 35.8062758,0.782020775 C35.9447458,0.625368391 36.0995252,0.39437068 36.1809656,0.303671532 C36.262406,0.212864793 36.4498042,0.27892562 36.5476607,0.435578003 C36.6453039,0.592337978 36.8001899,0.658291214 36.9549693,0.666575715 C37.1097487,0.674860216 37.2155999,0.790305276 37.4193075,0.625368391 C37.6229085,0.460323915 37.9813955,0.295387031 37.9813955,0.295387031 C37.9813955,0.295387031 38.2256101,0.11345078 38.3359384,0.0290994968 L38.355126,0.0132836311 C38.3775114,-0.00500682576 38.3709024,-0.00511441668 38.3899833,0.0173720862 C38.4298507,0.063636183 38.4828296,0.120013827 38.5531839,0.186612608 C38.6097871,0.240300478 38.7231002,0.243097842 38.7981447,0.318411488 C39.2273058,0.749420725 39.2205902,0.812469006 39.2394579,1.28091988 C39.2582191,1.74937076 39.4319728,2.17715227 39.2982997,2.39308725 C39.2548079,2.46323653 39.2130218,2.51832309 39.1760325,2.56426441 C39.13883,2.61009814 38.9656092,2.82205226 39.0929931,3.0100136 C39.220377,3.19786736 39.3671616,3.62306668 39.416303,3.68234928 C39.4651246,3.74173947 39.6710707,3.97908505 39.7199989,4.14714207 C39.7689271,4.31530668 39.9036662,4.49358484 39.9330871,4.63205436 C39.9624014,4.77041628 39.996939,4.7394301 40.085095,4.81850943 C40.173251,4.89758875 40.1314649,5.02734341 40.0629227,5.20529879 C39.9943806,5.38325418 39.9649597,5.62059976 39.9453458,5.71947581 C39.9257319,5.81835187 39.9453458,5.93702466 40.0629227,5.99641485 C40.3375176,6.13499196 40.7270245,6.1736171 41.0392482,6.3087513" id="宁夏"></path>
            </g>
        </g>
    </g>
</svg>