<?xml version="1.0" encoding="UTF-8"?>
<svg width="120px" height="120px" viewBox="0 0 120 120" version="1.1" xmlns="http://www.w3.org/2000/svg" xmlns:xlink="http://www.w3.org/1999/xlink">
    <title>jdo_cn_ximalaya_radio_province_hubei</title>
    <g id="jdo_cn_ximalaya_radio_province_hubei" stroke="none" stroke-width="1" fill="none" fill-rule="evenodd">
        <g id="编组">
            <rect id="矩形" x="0" y="0" width="120" height="120"></rect>
            <g id="湖北" transform="translate(20.000000, 35.000000)" fill="#FFFFFF" fill-opacity="0.189284" fill-rule="nonzero">
                <path d="M13.7007562,0.0825597827 C13.8157878,-0.0105820183 13.8557402,-0.0274069245 13.966395,0.0448412022 C14.0166722,0.0778312143 14.0183556,0.224196902 14.1170022,0.278630422 C14.1960093,0.322067271 14.360308,0.159756411 14.4421207,0.19318629 C14.5571523,0.240142074 14.6317825,0.366053954 14.7361526,0.434893113 C14.8543265,0.512859508 15.0812474,0.512419641 15.2387004,0.497024302 C15.6340723,0.458425988 16.1398746,0.224746735 16.5549983,0.418508073 C16.9702342,0.612159445 17.2805389,0.929193462 17.5375363,0.890375214 C17.6339384,0.875969576 17.7425731,0.819226755 17.8358328,0.859914436 C17.8590636,0.870031373 17.7385329,1.03399173 17.9679227,0.990994751 C18.0187611,0.981427648 18.2009037,1.01727679 18.2774418,0.982967182 C18.3450018,0.95261637 18.3087529,0.860904137 18.3540921,0.863983204 C18.6309535,0.883227378 18.9733548,0.905000786 19.0731237,0.888285847 C19.1727803,0.871680874 19.3073392,0.783597541 19.3865707,0.95063697 C19.4658022,1.11778636 19.7086591,1.43086158 20.1435346,1.44900609 C20.2046977,1.45153532 20.2613718,1.43394065 20.316587,1.41326691 C20.4242116,1.37312906 20.5701053,1.34992608 20.6852491,1.33409088 C20.7717753,1.32232444 20.9698541,1.4750682 21.0595226,1.46737053 C21.1126055,1.46286189 21.072653,1.2937331 21.1261848,1.28988426 C21.2232602,1.28295636 21.3023795,1.27668826 21.3988938,1.27086002 C21.5408596,1.26217265 21.6086441,1.35740382 21.7530789,1.37202939 C22.0710149,1.4043596 22.4381059,1.28097696 22.5060026,1.12119533 C22.6047614,0.88883568 22.6900531,0.81504802 22.8680435,0.718167351 C23.0459216,0.621286682 23.0201096,0.573451164 23.0596131,0.457216354 C23.0992289,0.340981545 23.210557,0.270492885 23.3490438,0.464144257 C23.4874184,0.657905595 23.5944819,0.802071948 23.6143459,1.1120681 C23.6340976,1.42206424 23.5460003,1.61956445 23.719726,1.61956445 C23.7848171,1.61956445 23.9310475,1.71501555 23.9888438,1.68851358 C24.0853581,1.64430696 24.1891671,1.34255831 24.2574005,1.51179708 C24.3664841,1.78297498 24.6890214,2.43914632 24.8670117,2.24538498 C25.0448898,2.05173361 24.7312183,1.80804739 25.0278315,1.82740153 C25.0856278,1.83114039 25.1388229,1.79946998 25.2252369,1.77197831 C25.2770852,1.7554833 25.2718106,1.64870563 25.3129975,1.64375713 C25.38875,1.63451992 25.4579934,1.68246541 25.5317259,1.68477471 C25.6941168,1.68961324 25.8430406,1.64859566 25.8802996,1.52972165 C25.9593067,1.27800786 25.9412383,0.939970199 26.3761138,0.998032621 C26.8112137,1.05620501 26.9536284,1.02376483 27.1316187,0.73323279 C27.3094968,0.442590782 27.5277762,0.244100876 27.6068955,0.476570495 C27.6860148,0.709040114 27.7964451,0.788546043 27.9092322,0.898952617 C27.9716298,0.95998414 28.2919226,1.12449433 28.3181835,1.21400723 C28.351739,1.32892244 27.9839746,1.47715756 28.0499635,1.55358443 C28.1201047,1.63517972 28.1609549,1.69533151 28.2646517,1.57898673 C28.5411764,1.26910055 28.512671,1.17287969 28.7499166,1.44416755 C28.9278508,1.64755098 29.2279991,1.95318282 29.3669523,2.09328728 L29.4416772,2.16829832 C29.4416772,2.16829832 29.4720905,2.28134409 29.532468,2.35755102 C29.6329102,2.48467254 29.7816096,2.54196519 29.6772395,2.6463236 C29.598008,2.72538966 29.4353926,2.71571259 29.3356237,2.76871654 C29.2477508,2.81545239 29.2148686,2.90705466 29.2418029,2.96434731 C29.2991503,3.08641036 29.8969778,2.87538425 30.0947199,2.99161906 C30.1688311,3.03520711 30.1788368,3.06603731 30.1717803,3.09776635 L30.1488569,3.16646934 C30.1399592,3.2054665 30.1453619,3.25446698 30.2121082,3.32712748 C30.3233241,3.44820082 30.4371212,3.6441615 30.4357745,3.78348932 C30.4346523,3.90379289 30.1809094,4.12262664 30.1809094,4.18794686 C30.1809094,4.3622441 30.0531963,5.02193437 30.2904419,4.86699128 C30.5276876,4.71193822 30.6273442,4.58492668 30.6470959,4.8173963 C30.6668477,5.04986592 30.5630387,5.07658783 30.8791792,5.2897033 C31.1956563,5.50281878 31.4343608,5.4614713 31.5332319,5.6358785 C31.6321029,5.81017573 31.8243459,6.51748159 31.9694541,6.40190658 C31.9999795,6.37749397 32.0580003,6.39981721 32.1227547,6.35682023 C32.230716,6.28501197 32.3579802,6.14766355 32.4096042,6.16162933 C32.4736852,6.179224 32.5032006,6.48625105 32.3766097,6.59500812 C32.3497877,6.61777123 32.2943481,6.67825292 32.1880702,6.67627352 C32.1437409,6.67539378 32.0587859,6.57752341 32.0179357,6.57378454 C31.8952727,6.56278787 31.8640739,6.65153101 32.0758442,6.76875552 C32.1463221,6.80790366 32.2958071,6.76787578 32.3384529,6.81747077 C32.5745763,7.09238754 32.6294547,7.18278017 32.8628847,7.33068539 C33.0399772,7.4429614 32.9330259,8.00720057 33.1810452,8.12024635 C33.3158285,8.18171774 33.5122239,8.41968569 33.606157,8.34644787 C33.879876,8.13333239 34.06662,7.75933562 34.1852428,7.87557043 C34.3038656,7.99180523 34.0764959,8.14267956 34.1475349,8.18941541 C34.1728979,8.20613035 34.2587508,8.2558353 34.2987032,8.23373199 C34.3502149,8.20525061 34.3851172,8.05679556 34.46996,8.04085039 C34.6531127,8.00654077 34.9552249,8.16687223 35.0391699,8.26958114 C35.1972962,8.46323251 35.2847202,8.5425185 35.3915593,8.68811442 C35.4407143,8.75530408 35.5411565,8.71472637 35.611971,8.75673365 C35.6826734,8.79863097 35.7327261,8.97072886 35.8315972,8.97072886 C35.9213779,8.97072886 36.0114953,9.01075674 36.104194,9.0687092 C36.1672649,9.10807728 36.3363894,9.04396669 36.4027149,9.09301184 C36.4690405,9.14205699 36.4327915,9.30469775 36.5037183,9.34934424 C36.7498297,9.50417736 37.1594544,9.2533433 37.3375569,9.31140572 C37.515435,9.36957811 37.5713235,9.63987628 37.6899463,9.81417351 C37.8085691,9.9885807 37.8789348,10.1409946 38.1161804,9.94734319 C38.353426,9.75358185 38.4252506,9.81153431 38.5437612,10.0633581 C38.662384,10.3151818 38.9245438,10.4874997 39.1420376,10.6230886 C39.3051019,10.7248078 39.3480844,10.780341 39.4361818,10.7915576 C39.4525668,10.793647 39.4962227,10.7096324 39.4644627,10.6339753 C39.4399975,10.5750332 39.3398919,10.5282973 39.3391064,10.4836508 C39.3378719,10.4220695 39.488928,10.4473618 39.5055374,10.4473618 C39.5149958,10.4473618 39.5270314,10.4629076 39.540834,10.4872855 L39.5415532,10.4689102 L39.5724729,10.5298066 C39.5724729,10.5298066 39.6462631,10.6472766 39.7526732,10.7767456 C39.9660307,10.7462332 40.165198,10.7050151 40.3639535,10.8998748 L40.3639535,10.8998748 L40.4282767,10.9357557 C40.4683679,10.845961 40.4842982,10.7502336 40.5341309,10.6901596 C40.6308251,10.5732564 40.7998152,10.5535873 40.9317016,10.5819241 C41.0298575,10.6028155 41.1791714,10.6681569 41.304874,10.7000497 L41.304874,10.7000497 L41.3739092,10.7139403 C41.3948221,10.7186075 41.4146107,10.7219413 41.4324879,10.7236081 L41.4324879,10.7236081 L41.4737516,10.7268308 C41.5400883,10.6920487 41.5995665,10.6604893 41.6240774,10.636153 C41.670738,10.5901473 41.7172862,10.5244726 41.7403354,10.4205709 L41.7403354,10.4205709 L41.7814867,10.3933454 C41.838154,10.3746764 41.8734586,10.4980249 42.0119788,10.4311278 C42.1647781,10.3570076 42.1887268,10.4092362 42.3312946,10.3953456 C42.4740873,10.3812328 42.3447869,10.0733061 42.5384002,10.1437592 C42.6230639,10.174763 42.6743343,10.2694413 42.7769877,10.336894 C42.909099,10.4236824 43.0158,10.3623416 43.2106501,10.3793437 C43.5570629,10.4093473 43.6746701,10.4499079 43.8275819,10.5103597 C43.9803813,10.5705894 43.9440647,10.6551553 44.0255802,10.6551553 C44.0306679,10.6551553 44.0379129,10.6599614 44.046321,10.6670821 L44.1027705,10.7176473 L44.1027705,10.7176473 L44.126547,10.7263863 C44.1748941,10.7158294 44.2208801,10.4800227 44.2746241,10.4815784 C44.3826743,10.4849122 44.5093888,10.6796027 44.5379473,10.7023833 C44.6398136,10.7827265 44.6730944,10.8230648 44.7953114,10.7322759 C44.9175284,10.6415981 45.1301433,10.5502535 45.2931743,10.4596869 C45.4560929,10.3688979 45.6562275,10.1473152 45.7986829,10.2279917 C45.941588,10.3084461 45.7314466,10.522139 45.9214621,10.4494634 C45.9827392,10.4261272 45.9993796,10.291444 46.0864045,10.243327 C46.2316707,10.163206 46.3459048,10.297667 46.4222483,10.3605636 C46.5444653,10.4612426 46.6282295,10.2938887 46.6865834,10.3067792 C46.7157041,10.3132244 46.7498844,10.4670211 46.8159963,10.5115821 C46.8821082,10.556032 46.9801516,10.4911352 46.9852112,10.3602302 C46.9954428,10.0983092 47.195465,9.79549419 47.3890783,9.86594729 C47.5826917,9.93651151 47.7189631,10.1084215 47.9126889,10.1990993 C47.973179,10.227325 48.087638,10.18632 48.1411572,10.2084338 C48.2591017,10.2574398 48.2632618,10.3808994 48.3333089,10.4294609 C48.4351752,10.4998029 48.6871424,10.4307944 48.697374,10.2393265 C48.7073807,10.0479696 48.65656,9.9171758 48.860405,9.85661281 C49.0642499,9.79616094 49.0744815,9.73570907 49.2883332,9.83661035 C49.5024098,9.93717826 49.9233671,10.4515747 49.9233671,10.4414624 C49.9233671,10.4364618 50.043223,10.5379187 50.1640908,10.6641564 C50.2246933,10.7273864 50.4468652,10.7406102 50.4931885,10.806285 C50.5395118,10.8719597 50.3222871,10.9681937 50.3462358,11.0097544 C50.4512502,11.1916656 50.537488,11.3383503 50.7820345,11.3786886 C51.0264685,11.4188046 50.9513618,11.2963451 51.0838105,11.3869118 C51.2162591,11.4775896 51.3413994,11.7997403 51.5597485,11.6216073 C51.7779852,11.4432521 52.0625586,11.2556735 52.1575663,11.1712187 C52.2524616,11.086875 52.4518092,10.9929746 52.4518092,10.9929746 C52.4829537,10.9463022 52.4839656,10.9567479 52.5411951,10.9528585 C52.589992,10.9494137 52.6398008,10.9457465 52.6884852,10.9411904 C52.782481,10.9320782 52.7597691,11.0287567 52.7294116,11.0888752 C52.7013028,11.1445487 52.6783661,11.2227805 52.7554966,11.2462279 C52.878838,11.283788 52.9832902,11.3306827 52.9547317,11.22767 C52.9262856,11.124324 52.8230701,11.0305347 52.8704053,10.9836401 C52.8503919,10.9141871 52.8268929,10.9260775 52.8955908,10.9102977 C52.969798,10.8930734 53.0283767,10.8689593 53.0567104,10.833955 C53.1472207,10.7221635 53.1924197,10.5993707 53.3167729,10.5659221 C53.4410138,10.5323624 53.4523698,10.4988028 53.5426552,10.3647863 C53.6331655,10.2307699 53.7913618,10.0743062 53.9270711,10.0185216 C54.0625554,9.96262582 54.2775315,9.95151335 54.5373692,9.95151335 L54.5373692,9.95151335 L54.5800945,9.96951556 C54.5800945,9.96951556 54.6838722,10.3401166 54.7348053,10.4911352 C54.7473981,10.5289176 54.8921021,10.3653419 54.9022213,10.3952345 C54.9135772,10.4287942 54.9949803,10.4696881 54.9724933,10.5338071 C54.9350524,10.6407091 54.8058643,10.7605016 54.7915851,10.7933945 C54.7612276,10.8637365 54.8019291,10.8961849 54.8426306,10.9867516 C54.8833322,11.0775405 55.0755963,11.1622176 54.9634985,11.2327818 C54.9040202,11.2701197 54.842968,11.3119026 54.7942835,11.3835781 C54.7836022,11.3994689 54.9890212,11.5275958 54.9795767,11.5465981 C54.9749668,11.5561548 54.9423606,11.7261757 54.8842317,11.7088402 C54.7739328,11.6760584 54.7534696,11.3460179 54.7100696,11.6150509 C54.7077084,11.6297194 54.7055722,11.6450546 54.7038856,11.6610566 C54.6733033,11.9328677 54.6222577,12.0913316 54.7751695,12.2625749 C54.8133975,12.3052468 54.8456664,12.3444738 54.8726508,12.3824785 C54.9131275,12.4395966 55.0464756,12.2974681 55.0659269,12.3585867 C55.0769455,12.3929242 55.1185466,12.5293854 55.0953849,12.6240637 C55.0772828,12.6977394 54.9085177,12.8907631 54.9099793,12.9269898 C54.919986,13.1484614 54.9079555,13.3045917 54.7958576,13.415272 C54.7328939,13.477613 54.6233821,13.3347065 54.5535598,13.3540422 C54.4992536,13.3691552 54.4726065,13.5418431 54.4858739,13.6035173 C54.5164562,13.7446457 54.4757547,13.8856631 54.7507711,14.0569063 C55.0261248,14.2280384 55.2298574,14.3388298 55.1685802,14.4596224 C55.1076403,14.5805261 54.8019291,14.8927867 54.8528622,14.9834645 C54.9037954,15.0740312 55.0974087,15.1344831 55.2197382,15.1547078 C55.3419552,15.1748213 55.4337023,15.2050473 55.3928884,15.3560658 C55.3521868,15.5071955 55.3317236,15.5978733 55.4540531,15.6985523 C55.5763826,15.7993425 55.6782488,15.8294573 55.6170841,16.0411499 C55.5560318,16.2526203 55.5383795,16.4506447 55.6912913,16.5713261 C55.8440907,16.6922299 56.0371419,16.8057994 56.1593589,16.6748944 C56.2816884,16.5439894 56.3772583,16.2063924 56.5912224,16.2869579 C56.805299,16.3675233 56.850273,16.4842043 56.850273,16.6554476 C56.850273,16.8266908 56.7562772,17.0173809 56.8787191,17.1886242 C57.0010486,17.3598674 57.0642372,17.3806477 57.0642372,17.4814379 C57.0642372,17.5821169 57.0948195,17.7634725 57.2986645,17.6729058 C57.5025095,17.5821169 57.7440202,17.5470015 57.927402,17.5370003 C58.1108962,17.5268879 58.1864526,17.4226529 58.2271541,17.3420874 C58.2678557,17.261522 58.3529691,17.1695107 58.5057685,16.9982674 C58.5775021,16.9180354 58.6477741,16.7584602 58.7957388,16.6487801 C58.9636045,16.5244315 59.2126484,16.4562009 59.3317173,16.4935388 C59.5558005,16.564103 59.8464455,16.8569168 60.0197081,17.0784995 C60.1929707,17.3001934 60.2094986,17.5734492 60.4335819,17.6540146 C60.6578901,17.7346912 60.9811412,17.6303451 61.0524251,17.6707945 C61.1239339,17.7109105 61.3233939,17.7664729 61.4458358,17.7362469 C61.5679404,17.7061321 61.6035823,17.7228009 61.6646346,17.7933651 C61.7257993,17.8638182 61.9493205,18.0081692 62.1429338,17.8773754 C62.1882452,17.8468161 62.3057399,17.8375927 62.3881549,17.8071445 C62.398499,17.8033663 62.4133404,17.7729181 62.4420114,17.7684731 C62.5125082,17.7571384 62.5247637,17.7840306 62.5879522,17.7463593 L62.5879522,17.7463593 L62.5655776,17.665016 C62.5454517,17.5912291 62.5219528,17.5747827 62.5707496,17.5139974 C62.6053797,17.4707699 62.6416962,17.4419886 62.6651952,17.4627689 C62.7568298,17.543001 62.8012417,17.818257 62.943922,17.7276903 C62.9973287,17.6936862 62.9935059,17.5311106 63.0560198,17.4625467 C63.1081898,17.4050952 63.2017358,17.4688808 63.2596399,17.4743259 C63.3174316,17.4795488 63.3394689,17.4267645 63.3520616,17.5116638 C63.3928756,17.783475 63.3420549,17.9346046 63.4032196,18.0253936 C63.4643844,18.1158491 63.4743911,18.206638 63.392988,18.3174294 C63.3572337,18.3657687 63.3202425,18.5450129 63.2365907,18.6523594 C63.1289903,18.7901541 63.0700742,18.9300602 63.0700742,19.0377401 C63.0700742,19.2290969 63.0953721,19.7936107 63.166656,19.874065 C63.2379399,19.9546304 63.2468223,19.9047354 63.4913688,19.7434934 C63.7360277,19.5823625 63.8514987,19.536468 64.0339809,19.6774853 C64.1366343,19.7569395 64.2173627,19.9459627 64.3285611,20.0403076 C64.4151362,20.11365 64.5485967,19.9746329 64.5948076,20.0186383 C64.654848,20.0756453 64.592334,20.1744352 64.6458531,20.2208853 C64.6865547,20.2565564 64.8427271,20.3248981 64.8910743,20.3162304 C65.0031721,20.2963391 65.4260408,20.1523214 65.43616,20.3940177 C65.4462791,20.6358252 65.3599289,20.6243793 65.5740055,20.7753979 C65.640792,20.8226259 65.7572748,20.8318492 65.8381157,20.8796329 C65.9189566,20.9273054 65.9643804,21.0137605 66.0408363,21.0278733 C66.1326958,21.0444309 66.1926238,20.770175 66.2383849,20.770175 C66.3607144,20.770175 66.4955241,20.948308 66.6383168,20.847629 C66.780997,20.7469499 66.7898794,20.7528395 66.9732612,20.7830655 C67.0648958,20.7980673 67.2766113,20.5838188 67.4191791,20.5824853 C67.5619717,20.5812629 67.5882816,20.8961905 67.669797,20.8257374 C67.8327156,20.6848312 67.8237208,20.1873257 67.9765202,20.2176627 C68.129432,20.2477775 68.5778235,20.5638163 68.7727861,20.2897827 C68.9678611,20.015749 68.7714368,19.9214041 68.82237,19.7500498 C68.8308588,19.7215277 68.8383358,19.6906937 68.8453271,19.6587844 L68.8856569,19.4643202 C68.907118,19.3705309 68.9336808,19.2893265 68.9795543,19.2541 C69.071189,19.1836469 69.2426526,19.0929691 69.395452,19.2742136 C69.5483639,19.4556803 69.7116197,19.7073779 69.8541875,19.7577174 C69.9968678,19.8080569 70.1658578,19.7150455 70.0842299,19.9466295 C70.0028268,20.1784357 69.8833082,20.5520371 69.8756627,20.8595193 C69.8679046,21.1670015 69.8503647,21.3585806 69.9828134,21.3988078 C70.115262,21.439146 70.3339484,21.3738047 70.4154639,21.514822 C70.496867,21.6558393 70.2056599,21.7278482 70.4399748,21.7881889 C70.5039504,21.8046354 70.6152612,21.7178469 70.6988005,21.7389606 C70.806401,21.7662973 70.8871294,21.8983135 70.9604372,21.8810892 C71.0388045,21.8626425 71.0160926,21.741961 71.0771449,21.7117351 C71.2400634,21.6312807 71.750744,21.48993 71.70993,21.7417387 C71.6693409,21.9934363 71.5571306,22.0059934 71.587713,22.1771255 C71.6182954,22.3483688 71.5663503,22.3765945 71.7904336,22.3261438 C72.0147418,22.2758043 72.1564101,22.0237734 72.3194411,22.2251314 C72.3652022,22.2816939 72.2853732,22.4548263 72.3102214,22.543615 C72.3739721,22.7701984 72.4952897,22.9537764 72.5097938,22.989892 C72.5301446,23.0403426 72.4915793,23.2053629 72.7055435,23.2115859 C72.91962,23.2178089 73.0309308,22.9923367 73.0411624,23.0930158 C73.0475712,23.1559124 73.3191022,23.4199448 73.3780182,23.6698644 C73.4133229,23.8198828 73.2741281,23.9933485 73.3156167,24.0866933 C73.3432757,24.1492566 73.3954457,24.3506146 73.4404197,24.4075105 C73.5078808,24.4928543 73.6424657,24.4645175 73.7297154,24.537082 C73.8169651,24.6097576 73.9008418,24.6365386 73.9542485,24.5383043 C74.0431847,24.3747287 74.2321882,24.1838164 74.3419249,23.9967934 C74.4079244,23.8846685 74.3908342,23.7378727 74.4595321,23.7000903 C74.6428014,23.5996335 74.5982771,23.6725314 74.6858641,23.777322 C74.7130734,23.8099927 74.8737433,23.8122152 74.9694256,23.9063379 C75.0747774,24.0100172 75.2029535,24.0782478 75.3012218,24.2059302 C75.3996026,24.3335014 75.5177719,24.5369708 75.5780372,24.5810874 C75.6401014,24.626204 75.6848506,24.9015712 75.7939127,24.9527997 C75.8962287,25.0009167 75.9703235,24.7895574 76.062183,24.7401069 C76.1338042,24.7017688 76.3071793,24.7657767 76.3403476,24.73844 C76.4618901,24.637761 76.6134527,24.4535161 76.8069536,24.5240804 C77.000567,24.5946446 76.9640255,24.6334271 76.9742571,24.7845568 C76.9844887,24.9355753 76.9833644,25.1254875 77.1361638,25.1254875 C77.2890756,25.1254875 77.5394687,25.3141774 77.5700511,25.4553058 C77.6006335,25.596212 77.5097858,25.7028918 77.682936,25.7130041 C77.8561986,25.7230053 78.1497668,25.7507865 78.3129103,25.8818026 C78.3536118,25.9145844 78.3948755,25.9396986 78.4359143,25.9614791 C78.5585811,26.0271538 78.6677557,25.9130287 78.7517447,26.0339324 C78.7832266,26.0791602 78.8031276,26.2163993 78.8508001,26.2961868 C78.972455,26.5002119 79.0510472,26.7401302 78.8680027,26.7545764 C78.613337,26.7745789 78.4860604,26.7580213 78.322917,26.8184732 C78.2444373,26.8474767 78.1067042,26.9070396 77.9793151,26.9746035 C77.9332167,26.9988287 77.9548043,27.1558479 77.9148898,27.1809621 C77.8359603,27.2308571 77.7370173,27.2154108 77.7195899,27.2568603 C77.6686567,27.3777641 77.603107,27.4336598 77.2969461,27.5972355 C76.9904478,27.7608111 76.9415385,27.8011494 76.7886267,27.9722815 C76.6358273,28.1435248 76.5473408,28.2959879 76.6696703,28.4067793 C76.7918873,28.5175707 76.8449567,28.480455 76.8653075,28.6515871 C76.8857707,28.8229415 76.8056044,29.1834302 76.5202439,29.1834302 C76.3954409,29.1834302 76.2700757,29.1067541 76.1528058,29.1269788 C76.0020302,29.152982 75.9465997,29.3276702 75.9121945,29.4749105 C75.8510298,29.7366093 75.7583832,29.9014073 75.8908318,30.1331024 C75.952896,30.241449 76.1757426,30.3186807 76.2795202,30.4711439 C76.3972398,30.6438318 76.2880653,31.0335463 76.3645212,31.0982209 C76.4691983,31.1865651 76.5318247,30.992319 76.6368392,30.9984308 C76.8116759,31.0085432 77.0176571,31.1247797 77.0367711,31.2127905 C77.067241,31.3536967 77.3482165,31.6691799 77.3482165,31.8806503 C77.3482165,31.9203218 77.533847,31.9354348 77.5282252,31.9954422 C77.5210294,32.0767855 77.3924035,32.1222355 77.3674429,32.2263594 C77.3121248,32.4556098 77.3053787,32.7297545 77.4047714,32.7930956 C77.4756056,32.8383234 77.5210294,32.9280011 77.5716252,32.9686728 C77.5956863,32.9877862 77.774908,33.0260131 77.7854769,33.0450155 C77.8013302,33.0734634 77.8413572,33.1160242 77.7859266,33.1295814 C77.730721,33.1431386 77.5635299,33.1426941 77.5178812,33.1914779 C77.3476543,33.3733891 77.2252124,33.497071 77.235444,33.6381994 C77.2455632,33.7791056 77.514733,33.9395697 77.5249646,34.0805871 C77.5351962,34.2217155 77.3358486,34.5037501 77.5600444,34.4532995 C77.6020951,34.443965 77.6241324,34.5291977 77.6633723,34.5227525 C77.8334867,34.4946379 78.0855664,34.4824142 78.1909181,34.5512004 C78.3482149,34.6539908 78.2924471,34.9972552 78.4452465,35.057707 C78.5981583,35.1181589 78.8835188,35.2490639 78.9141011,35.4404207 C78.9209597,35.4840927 79.113786,35.4560893 79.1282901,35.5183191 C79.138859,35.5638803 79.1910289,35.6897846 79.157973,35.7601266 C79.1248046,35.8303575 79.0443011,35.7886857 79.0549824,35.8361359 C79.0832036,35.9607068 79.1415575,36.1368395 79.1326751,36.1850677 C79.1124368,36.2959702 79.2596144,36.4070949 79.3614807,36.5882283 C79.4633469,36.7695839 79.4235449,37.1235162 79.3828434,37.2946484 C79.3599066,37.3908824 79.4950537,37.626578 79.4748153,37.7791523 C79.4590744,37.8979446 79.3897019,38.2259849 79.3854294,38.2609892 C79.3753102,38.3416658 79.4274801,38.7184898 79.6008551,38.8291701 C79.7740053,38.9400726 80,39.1703231 80,39.5230331 C80,39.7431712 79.9716663,39.7290584 79.9703171,39.9818672 C79.9702047,40.0142045 79.9961772,40.0348737 79.9890938,40.1025487 C79.7186872,40.3855834 79.3181931,40.567828 79.0557694,40.8597527 C78.8280882,41.1128949 78.5907376,41.1223405 78.4863977,41.1973498 C78.3820579,41.2724701 78.3154963,41.3005846 78.230158,41.3662594 C78.1447073,41.431823 77.8651934,41.3540357 77.6944044,41.3634813 C77.5233905,41.3728157 76.7876147,41.0181055 76.6642734,40.9242051 C76.5949009,40.871532 76.4498595,40.7048448 76.3084161,40.6162784 C76.198342,40.5473811 76.083883,40.5528262 76.052626,40.5220446 C75.9814546,40.4514804 75.9416525,40.3446895 75.8716054,40.3074627 C75.6923838,40.2123399 75.6710211,40.2021164 75.5348621,40.0429858 C75.2959373,39.7640627 74.9877525,39.9543082 74.8121288,40.0286507 C74.6366175,40.1029932 73.9855054,40.0419857 73.734775,40.0914362 C73.4994482,40.1379975 73.5316047,40.1152169 73.494501,40.1175505 C73.4461539,40.1708904 73.4525627,40.2684579 73.3960078,40.3056847 C73.3960078,40.3056847 73.1693385,40.5044869 73.1999209,40.6957326 C73.2305033,40.8870894 73.2462442,41.0994488 73.1340339,41.2909168 C73.0639868,41.410487 72.8392289,41.6644071 72.6408932,41.8528747 C72.5962565,41.8952132 72.6561844,42.0623448 72.6163824,42.0957934 C72.5498207,42.1516891 72.388926,42.0639006 72.3510354,42.0780134 C72.1880044,42.1384653 72.1604578,42.2409223 71.9769636,42.3012631 C71.9312024,42.3162649 71.9223201,42.4351684 71.8821807,42.4518371 C71.7618751,42.5023989 71.5408275,42.4633941 71.494954,42.5010654 C71.4339017,42.551516 71.1178464,42.8032136 71.0159802,42.6319703 C70.9140015,42.4608382 71.2486085,42.3372675 70.993718,42.3271551 C70.8903901,42.3230435 70.775144,42.3786059 70.6241436,42.3900517 C70.4033209,42.4067205 70.0714123,42.4432805 69.920187,42.3954969 C69.6655213,42.3151537 69.6665332,42.2350327 69.6665332,42.1544673 C69.6665332,42.0740129 69.1559651,42.089237 69.2781822,42.2805939 C69.365994,42.4180552 69.5416178,42.4516149 69.6650716,42.4710617 C69.7408529,42.4827298 69.6334773,42.5611839 69.6619234,42.6234137 C69.686884,42.6777537 69.6731669,42.824105 69.6298794,42.9256731 C69.5963737,43.0046828 69.5300369,43.0420207 69.5470147,43.0838036 C69.5655665,43.1299204 69.6194229,43.1542567 69.6786762,43.1720366 C69.7279228,43.1867051 69.9143404,43.0376868 69.9543673,43.052133 C69.9654984,43.0562447 70.1090781,43.1005834 70.104918,43.1225861 C70.0943491,43.1789264 69.8872435,43.2539356 69.8847699,43.2767162 C69.8644191,43.4580718 69.8555368,43.7366615 69.8657684,43.8171159 C69.876,43.8977924 69.9952937,44.2211655 69.7202772,44.1908284 C69.4451484,44.1606025 69.1035703,44.0612569 69.1238087,43.8801236 C69.1442719,43.6986569 69.369592,43.4907424 69.0943507,43.5914215 C68.8192218,43.6921005 68.7664897,43.8022251 68.5117116,43.6813214 C68.2569335,43.5605288 68.2288247,43.5073 68.0760253,43.5777531 C67.9231135,43.6484285 67.683739,43.7843341 67.674182,43.8782345 C67.664625,43.9720238 67.6361789,44.0471441 67.7880788,44.0376985 C67.9398663,44.028364 68.0253171,44.0471441 67.9208648,44.1689368 C67.8165249,44.2909518 67.6172898,44.4035212 67.5602852,44.3096208 C67.5032806,44.2158315 67.5508406,44.0471441 67.4463884,44.1407111 C67.3420485,44.2346116 67.2946009,44.2158315 67.2755993,44.028364 C67.2565978,43.8406743 67.152258,43.9344636 67.1236994,44.0658131 C67.1189397,44.0877046 67.1168221,44.1101148 67.1160268,44.1326098 L67.1165598,44.2651292 C67.1141987,44.3284286 67.0999756,44.3846855 67.0382487,44.4221901 C66.9149073,44.4971994 66.7250043,44.6097687 66.8674597,44.7317837 C67.0098026,44.8536876 67.1141424,45.0976064 67.2281517,45.0224861 C67.3420485,44.9474769 67.5127251,44.8349075 67.4369438,44.7598983 C67.3610501,44.6848891 67.3514931,44.6379944 67.4369438,44.5723197 C67.5222821,44.506645 67.6077328,44.5347595 67.6457359,44.6473289 C67.683739,44.7598983 67.6931836,44.8818021 67.6172898,44.9474769 C67.5412836,45.0131516 67.5508406,45.0038171 67.5508406,45.0788263 C67.5508406,45.1537244 67.5318391,45.2476248 67.4652775,45.2570704 C67.3989407,45.2664049 67.3704946,45.2476248 67.2660424,45.4165345 C67.1617025,45.5852218 66.9434658,45.6884567 66.9813565,45.5571073 C67.0193596,45.4258689 66.9244643,45.4258689 66.7630074,45.5102126 C66.6017754,45.5946674 66.4213169,45.6791223 66.3548677,45.744797 C66.288531,45.8104717 66.2411958,45.8479208 66.155745,45.7823571 C66.0702943,45.7165713 66.1367435,45.6415621 65.975399,45.8011372 C65.8140546,45.9604901 65.6527101,46.0073848 65.5862609,45.8760353 C65.5198117,45.744797 65.5483703,45.5383272 65.2162368,45.6696766 C64.8838784,45.8011372 64.9124369,45.6791223 64.7985401,45.6884567 C64.6847557,45.6977912 64.3620668,45.744797 64.2481699,45.9041499 C64.1342731,46.0636139 64.0109317,46.1387342 63.935038,46.1387342 C63.8590318,46.1387342 63.7356904,46.1480687 63.6597967,46.3168672 C63.583903,46.4857768 63.4603367,46.5045569 63.2992171,46.5326715 C63.1378726,46.5607861 63.1663187,46.5326715 63.0144188,46.4669968 C62.8626313,46.401322 62.8910774,46.4294366 62.7771806,46.4951113 L62.7771806,46.4951113 L62.6538392,46.4951113 C62.6063916,46.4951113 62.4734932,46.4857768 62.4830502,46.3637619 C62.4924948,46.241858 62.407044,46.241858 62.3215933,46.3168672 C62.236255,46.3918764 62.1982519,46.3918764 62.0369075,46.4106565 C61.875563,46.4294366 61.7902247,46.4764424 61.5339849,46.5514516 C61.2777452,46.6263497 61.2777452,46.4294366 61.192182,46.2606381 C61.1068437,46.0918396 60.8316024,46.0918396 60.717818,46.1762944 C60.6039212,46.2606381 60.527915,46.4482167 60.4614658,46.7202501 C60.3951291,46.9922835 60.4520213,47.2362023 60.4614658,47.4424499 C60.4710228,47.6489197 60.4431389,47.5842451 60.223553,47.6481418 C59.9203154,47.7363748 59.5354498,47.9460673 59.2806717,47.9460673 C59.0258936,47.9460673 58.6105581,47.8839485 58.5595125,48.0047411 C58.5085794,48.1256449 58.2668438,48.5646988 58.0935812,48.6553766 C57.9203186,48.7460544 57.4413447,49.1186557 57.420994,49.2294471 C57.4005308,49.3402384 57.2986645,49.8338546 57.1355211,49.9244213 C56.9726025,50.0150991 56.6056141,50.045325 56.595495,49.8943065 C56.5853758,49.7430657 56.6973612,49.753178 56.5445618,49.6727237 C56.4394349,49.6172724 56.3203661,49.7260636 56.2237843,49.631163 C56.1798221,49.5879355 56.160933,49.3385716 56.1070766,49.2725635 C55.9878953,49.1271012 55.8385814,49.1838859 55.6818468,49.2363368 C55.6104504,49.2602286 55.4921686,49.2162232 55.4540531,49.2697853 C55.3317236,49.4410286 55.240089,49.8841941 55.1279911,49.7330644 C55.0158932,49.5820459 55.0355694,49.3319041 55.0253378,49.231225 C55.0152186,49.1304349 54.8935638,49.128768 54.8019291,49.2495606 C54.7100696,49.3704644 54.6082033,49.5114817 54.5572702,49.2898989 C54.5063371,49.0683162 54.4961055,48.9374112 54.4248216,48.8769593 C54.3534252,48.8165075 54.2814667,48.7423873 54.3263283,48.5646988 C54.3364475,48.5246939 54.3388086,48.4157916 54.3876055,48.3435605 C54.5336588,48.1263116 54.7133302,47.82383 54.6042681,47.7147055 C54.5180303,47.6283616 54.3732138,47.7544882 54.2464994,47.7259291 C54.1704932,47.7088159 54.1071922,47.5519077 54.0497378,47.4952341 C53.9542804,47.4007781 53.7587556,47.5043464 53.7126572,47.3827759 C53.6849981,47.3099892 53.7878763,47.1544145 53.8337499,47.0336219 C53.9559669,46.7113601 54.0185933,46.5636753 54.0999963,46.5134469 C54.1816243,46.4631074 54.2720222,46.3387588 54.2821413,46.2279674 C54.2870885,46.1725162 54.2282849,46.1007296 54.242789,46.0032732 C54.2572931,45.9058168 54.3454423,45.7828016 54.4166138,45.7373516 C54.559294,45.6468961 54.7203012,45.7544648 54.8528622,45.7444636 C54.9851984,45.7343513 54.9975663,45.694013 55.0689626,45.5329932 C55.1402465,45.3717512 55.1123626,45.2919636 55.1632958,45.2213994 C55.2150159,45.1497239 55.2442491,44.9767027 55.1520522,44.9221404 L55.1520522,44.9221404 L55.1392346,44.928919 C55.1392346,44.928919 54.8657923,44.7161151 54.7669618,44.650996 C54.6679064,44.5857658 54.6775758,44.5445385 54.5823432,44.4664178 L54.5823432,44.4664178 L54.5737982,44.4578612 C54.5359075,44.4387477 54.4805894,44.4018543 54.4438231,44.3815185 C54.3628698,44.3369575 53.9429244,44.3665166 53.8901923,44.3179551 C53.7362686,44.1767156 54.2097331,44.047033 54.3948014,43.9709125 C54.5218531,43.9186839 54.571437,43.7745551 54.6820732,43.6739872 C54.7322193,43.6282038 54.8501638,43.6118684 54.8973866,43.581198 C55.0622165,43.4834082 54.9194239,43.2770495 54.9194239,43.2770495 C54.9194239,43.2770495 54.7677488,43.1853716 54.6665572,43.0551334 C54.6408095,43.0219071 54.6423836,42.9623442 54.6223701,42.9291179 C54.5728987,42.8477746 54.4176257,42.859665 54.3254289,42.7449842 C54.233232,42.6304146 54.2041113,42.3890516 54.1656585,42.31282 C54.0887528,42.1606903 54.0423171,42.3540473 53.8883934,42.4191664 C53.8499405,42.4356129 53.8174468,42.4469476 53.7903499,42.4550597 L53.7903499,42.4550597 L53.699165,42.4138324 C53.699165,42.4138324 53.4613646,42.400942 53.3057543,42.3548252 C53.1502565,42.3087084 52.9285343,42.1165737 52.9908234,41.9319955 C53.0531125,41.7475284 53.0564855,41.7339712 53.0907783,41.6348479 C53.125071,41.5358358 53.3356621,40.8426395 53.3402719,40.5683836 C53.3445444,40.2999062 52.8806369,40.7039558 52.7873157,40.780743 C52.694107,40.8575302 52.2719129,41.3273657 52.1493586,41.3975966 C52.0266918,41.4677163 51.0806623,42.3914964 50.8785038,42.6992008 C50.676233,43.0065719 50.2395348,43.5636403 50.1637535,43.6574296 C50.0878597,43.7511077 50.0792022,43.7562195 49.9178578,43.8687889 C49.7565133,43.9814694 49.6995087,44.1125966 49.4718274,44.4690848 C49.2440338,44.8254619 49.1946747,45.0761593 48.9289904,45.0573792 C48.6633061,45.0385992 48.459686,44.9013601 48.4406845,45.0889387 C48.4215705,45.2765173 48.3673768,45.4129785 48.2439229,45.3943095 C48.1205816,45.3755294 48.0852769,45.3635279 48.104166,45.0540455 C48.12328,44.7445631 48.1559986,44.5858769 48.0326573,44.5483167 C47.9092034,44.5108677 47.5072477,44.5159794 47.289011,44.7505638 C47.0707744,44.985037 47.0154563,45.0061507 46.9015594,44.9405871 C46.787775,44.8749124 46.7850766,44.8723565 46.775632,44.6191032 C46.7661875,44.3658499 46.8005927,44.1799382 46.7056974,43.9547994 C46.6108021,43.7296607 46.4434986,43.2325996 46.5668399,43.0169065 C46.6902938,42.8012133 46.7006378,42.8524419 46.8808714,42.7209813 C47.0612174,42.5897429 47.4606995,42.4925088 47.55537,42.1642462 C47.6503777,41.8358726 47.7615761,41.4504919 47.6573487,41.4317119 C47.5528964,41.4130429 47.4658716,41.4743838 47.3235286,41.6808536 C47.1811857,41.8871011 47.1025935,41.9518868 46.9947682,42.0961268 C46.8870553,42.2401445 46.918762,42.38494 46.7859761,42.4037201 C46.6530777,42.4225002 46.577184,42.4319458 46.6057425,42.0661231 C46.6341886,41.7003004 46.6150746,41.3720379 46.5012902,41.2595796 C46.3873934,41.1468991 46.3889675,41.1273412 46.3796354,41.0710009 C46.3700784,41.0147718 46.1501552,40.9798786 45.9793662,41.2049062 C45.8084647,41.4301561 45.4237116,41.7157467 45.2813686,41.9783345 C45.1390257,42.2411446 45.2202039,42.3773835 45.0301885,42.4993985 C44.8405103,42.6213024 44.887958,42.6775315 44.8026197,42.7713208 C44.7171689,42.8653323 44.4989323,42.968345 44.4799307,42.8745557 C44.4609292,42.7807664 44.3279184,42.7337606 44.1856879,43.0902488 C44.043345,43.446737 44.043345,43.6156467 43.9198912,43.5217463 C43.7966622,43.427957 43.7966622,43.465406 43.7396576,43.4936317 C43.6827654,43.5217463 43.6257608,43.4936317 43.5877577,43.3810623 C43.549867,43.2686041 43.5782007,43.3341677 43.379078,43.3341677 C43.179618,43.3341677 43.1511719,43.3248332 43.0089414,43.249824 C42.866486,43.1747036 42.7621462,43.1934837 42.6672509,43.3154987 C42.5723556,43.4372914 42.5819126,43.5029662 42.3730081,43.4560715 C42.164216,43.4091769 42.1453269,43.3903968 42.1167683,43.2779385 C42.0882098,43.165258 42.0978792,43.1183634 41.9270902,43.1090289 C41.7561887,43.0996944 41.3860522,42.9871251 41.3007139,43.2686041 C41.2556274,43.4169556 41.2262818,43.5521944 41.1851305,43.6634303 L41.1851305,43.6634303 L41.1582585,43.7287717 C41.1485891,43.7487741 41.135659,43.7731105 41.124528,43.7907793 L41.124528,43.7907793 L41.0690974,43.8584543 C40.9876944,43.8673442 40.8883017,43.9567997 40.8431027,44.0731473 C40.8318592,44.1023731 40.8193789,44.1319323 40.8080229,44.1611581 L40.8080229,44.1611581 L40.7478701,44.1748264 C40.7015468,44.2223878 40.655336,44.2276107 40.5129931,44.206497 L40.546,44.21 L40.5468818,44.2936847 C40.5521416,44.2678334 40.5374571,44.2384386 40.5123964,44.2072226 C40.3220065,44.1778517 40.2278157,44.1322345 40.161858,44.2815062 C40.0954088,44.4315246 40.0954088,44.3471809 40.0099581,44.4597503 C39.9245074,44.5723197 39.8581706,44.5535396 39.801166,44.6473289 C39.7441614,44.7412293 39.6113754,44.7317837 39.7157153,44.4971994 C39.8201675,44.2628372 40.0289597,44.1125966 40.0099581,43.8875689 C39.9909566,43.6625413 40.0954088,43.568752 39.7917214,43.5029662 C39.6968262,43.4825192 39.5250252,43.7854453 39.4520548,43.762887 L39.4520548,43.762887 L39.4567118,42.8486426 C39.4165027,42.8571485 39.3580351,42.8696177 39.2687407,42.8883102 C38.9919916,42.9462627 39.1443944,42.9365856 38.9159024,42.869066 L38.9159024,42.869066 L38.8687675,42.8370657 C38.8578816,42.7879106 38.8340897,42.7460133 38.7903216,42.7174219 C38.6150247,42.6029466 38.3793502,42.6504522 38.408529,42.4356872 C38.4240161,42.3216518 38.4869749,42.1439456 38.5002175,41.9461155 C38.504931,41.8767265 38.4470224,41.4994307 38.3456824,41.5404483 C38.310219,41.5550739 38.3038222,41.5681599 38.2961908,41.5982908 L38.2961908,41.5982908 L38.291814,41.6526143 C38.2945074,41.7108967 38.3144836,41.7779764 38.3194216,41.835489 C38.3288485,41.9468852 38.2245907,41.9189537 38.2151637,41.8262518 C38.2056245,41.7333299 38.1299842,41.6776867 38.1299842,41.6776867 L38.1299842,41.6776867 L37.8861173,41.5772871 L37.7880318,41.4921729 C37.664471,41.4241035 37.5207096,41.3510856 37.4005157,41.3063292 C37.1257866,41.2042801 37.2205053,41.055825 37.315224,40.90726 C37.4099426,40.758695 37.3814373,40.758695 37.2205053,40.7773893 C37.0594611,40.7958637 36.9363492,40.7403305 36.8322036,40.6010027 C36.7279457,40.4616749 36.3641092,40.5530572 36.2973348,40.5167682 C36.2306726,40.4803692 36.1830888,40.3708424 36.1067752,40.3327939 C35.9796232,40.2694531 35.8516856,40.1981947 35.7652717,40.101424 C35.6267849,39.9463709 35.4554159,39.9024942 35.2380342,39.9218483 C35.1701376,39.9278965 35.1233393,39.9185493 35.0912427,39.902934 L35.0912427,39.902934 L35.0149291,39.8195793 C34.9580305,39.7574481 34.9668964,39.7470013 34.8939495,39.8066032 C34.8289707,39.8596072 34.7698277,39.9349344 34.6849849,40.0138905 C34.5443658,40.1448608 34.377598,40.1445309 34.2035356,40.107802 C34.1433825,40.1330944 34.1002878,40.1330944 34.0486638,40.0739323 C33.9970399,40.0147702 33.9109626,40.0232376 33.790432,40.0572173 C33.6701258,40.0908671 33.5840485,40.1415618 33.4378181,40.0654648 C33.2914755,39.9894778 33.270377,40.0626057 33.0809397,40.0904273 C32.8916145,40.1183588 32.9010415,40.0533685 32.8536822,39.8212288 C32.8063228,39.589199 32.5504477,39.6636465 32.446302,39.7563484 C32.388169,39.8080328 32.2796465,39.7991255 32.1952526,39.7812009 L32.1952526,39.7812009 L32.1243258,39.75107 C32.0854957,39.7401833 32.0597959,39.7301763 32.0597959,39.7301763 L32.0597959,39.7301763 L32.0375752,39.701695 C32.0375752,39.701695 31.9310728,39.5869997 31.8201936,39.612512 C31.7535314,39.6277973 31.6915827,39.7885687 31.633113,39.7885687 C31.4771189,39.7885687 31.4894638,39.8660952 31.4262806,39.8393733 C31.4051821,39.830466 31.347498,39.7552488 31.3297663,39.7440322 C31.2585028,39.6987259 31.2344865,39.6074535 31.2344865,39.5350954 C31.2344865,39.4443729 31.197003,39.374434 31.0711977,39.394558 C30.9957819,39.4066543 30.9760301,39.4609778 30.924294,39.4355755 C30.8724456,39.4101732 30.8321565,39.1799029 30.7624642,39.0824724 C30.7117381,39.0115439 30.607368,39.0998472 30.5552951,39.0599293 C30.4884085,39.0086848 30.4389168,38.8736457 30.4113093,38.839666 C30.3849362,38.8073357 30.3995255,38.7380567 30.4125437,38.671197 C30.4228685,38.6173133 30.4418347,38.637877 30.3463305,38.6350179 C30.2815761,38.6331485 30.1847251,38.6307292 30.0812528,38.6296295 L30.0812528,38.6296295 L30.0471361,38.6005983 C29.9746382,38.5589209 29.8991101,38.3731872 29.8394059,38.3543829 C29.6799329,38.3041281 29.1955658,38.2427667 28.9961403,38.248375 C28.7967148,38.2538733 28.4548746,38.175687 28.2781188,38.1646903 C28.1014752,38.1533637 26.8329855,38.0160153 26.6620654,37.9880838 C26.5552404,37.9706266 26.5448156,37.8788989 26.5533893,37.7730387 L26.5678432,37.6430718 L26.5678432,37.6430718 L26.5726214,37.5802173 C26.5783449,37.4183463 26.3353758,37.4016313 26.1416738,37.412738 C25.9479718,37.4239546 25.771216,37.3183865 25.6802008,37.2961732 C25.6403606,37.2863862 25.4750518,37.3819473 25.3171499,37.3926141 C25.1139087,37.4064699 24.8717252,37.3647925 24.7853112,37.3772187 C24.6315617,37.3996519 24.6562514,37.587695 24.7303205,37.6713797 C24.8043896,37.7550643 24.8649916,37.9001104 24.8422098,38.1122362 C24.8194279,38.324362 24.2617773,38.3320596 24.1819846,38.3487746 C24.102192,38.3655995 24.1528059,38.1646903 24.0388966,38.0361392 C23.9249873,37.9076981 23.7540672,37.8262128 23.5831471,37.8819659 C23.412227,37.937829 23.1158383,38.1087172 22.956253,38.1310405 C22.79678,38.1533637 22.5859075,38.1533637 22.386482,38.1423671 C22.1870565,38.1310405 22.1969324,38.1970205 22.1211799,38.122683 C22.0453152,38.0484555 22.0264612,38.0392183 22.007495,38.169089 C21.9885288,38.2989597 21.9222033,38.4475247 22.016922,38.5312093 C22.1116407,38.6145641 22.1021015,38.6332584 22.3957967,38.6795544 C22.6896042,38.7260703 22.6515596,38.8281194 22.556841,38.9396257 C22.4621223,39.050912 22.3252066,39.0297984 22.2494541,39.2989969 C22.1735894,39.5680854 22.1400339,39.589199 22.1495731,39.7099425 C22.1591123,39.830576 22.1779662,39.8676347 22.3011903,39.8583975 C22.4243021,39.8491603 22.4906277,39.7563484 22.4621223,39.9976154 C22.4337291,40.2389923 22.547414,40.5824183 22.6705258,40.5916555 C22.7936377,40.6010027 22.7936377,40.6010027 22.8314578,40.6753402 C22.8695024,40.7495677 22.9262887,40.6845774 23.0115804,40.6845774 C23.0967599,40.6845774 23.2673433,40.7680421 23.3147027,40.9629031 C23.362062,41.1578741 23.3999944,41.1300525 23.494713,41.2785076 C23.5893195,41.4271826 23.5042522,41.4827158 23.3147027,41.6591024 C23.1252653,41.835489 22.7274244,42.0675187 22.556841,42.1882622 C22.3863698,42.3088956 22.3011903,42.4109447 22.1591123,42.4017075 C22.1035604,42.3980786 22.0538443,42.380374 22.0138919,42.3599202 L22.0138919,42.3599202 L21.972705,42.337377 C21.946893,42.3189026 21.9127763,42.2903113 21.9127763,42.2903113 L21.9127763,42.2903113 L21.8660904,42.2804143 C21.8192921,42.1928808 21.6957314,42.1300898 21.6409651,42.188702 C21.5555612,42.2801943 21.5491643,42.5609393 21.5352483,42.6293386 C21.5116809,42.7445837 21.4276237,42.7286386 21.2550202,42.7823023 C21.0826412,42.836076 20.8266538,43.0273081 20.6933294,43.0502912 L20.6933294,43.0502912 L20.658876,43.0588686 C20.5256639,43.0817416 20.5247661,42.9005165 20.4697754,42.770096 C20.4352098,42.6877309 20.5423855,42.6724456 20.4190492,42.6795934 C20.3309519,42.6938891 20.2155836,42.7082947 20.1067245,42.7082947 C19.8893428,42.7082947 19.9555561,42.4572407 19.6985588,42.1085363 C19.5781403,41.9451258 19.2984733,41.7409176 18.9786294,41.5919127 C18.8767283,41.5444071 18.8372248,41.5482559 18.7339769,41.5107573 C18.7051348,41.5003104 18.6005403,41.7128761 18.5721471,41.703199 C18.4868554,41.6740578 18.4137963,41.3792371 18.3375949,41.3572437 C18.2068517,41.3194152 18.1133675,41.2549747 18.0369417,41.2383697 C17.6812977,41.1610631 17.1244326,41.4022201 16.828044,41.4602826 C16.6613885,41.4929427 16.586646,41.3859451 16.5055066,41.353065 C16.4423234,41.3277727 16.4389567,41.3437178 16.3004699,41.3437178 C16.1770213,41.3437178 15.995552,41.4360899 15.8216018,41.4434576 C15.6771671,41.4498357 15.7104982,41.3189753 15.5696546,41.3191953 C15.445645,41.3194152 15.1539698,41.4001308 15.0525175,41.4111274 C14.8695893,41.4309214 14.7388461,41.4514852 14.6550133,41.5194446 L14.6550133,41.5194446 L14.5954213,41.5367094 C14.5761185,41.5424277 14.5420018,41.5616719 14.5242701,41.5718988 L14.5242701,41.5718988 L14.4838688,41.5953217 C14.4540167,41.6368891 14.4285414,41.6717485 14.4154109,41.6958312 C14.3632259,41.7908425 14.4750029,41.6842847 14.5047428,41.881455 C14.5122619,41.9315999 14.4813998,41.9653596 14.4351627,41.9884526 C14.400036,42.0058274 14.3992504,41.9926314 14.4056473,42.0330991 C14.4056473,42.1512034 14.5966558,42.2006884 14.5174243,42.287892 C14.4019438,42.4154534 14.2260858,42.3654185 14.1088097,42.3999481 C13.9853612,42.4362371 14.0859156,42.5691868 14.0534823,42.6460536 C14.0340672,42.6919097 13.898835,42.7725153 13.9136488,42.8305777 C13.9530401,42.9855208 14.1236235,43.0452327 13.9835656,43.2135917 C13.9136488,43.2976063 13.8368863,43.2042446 13.6816778,43.2234887 C13.5998651,43.2334957 13.4950461,43.3611671 13.4190691,43.3169604 C13.34298,43.2728638 13.3553248,43.1196802 13.3163824,43.0544699 C13.2781134,42.9909091 13.1493902,42.9997065 13.0371643,42.9822218 C12.9809391,42.9735344 12.8060911,42.918881 12.7019455,42.9454929 C12.5976876,42.9721048 12.5640198,43.0799822 12.5250774,43.0990064 C12.4470804,43.1372748 12.2129771,43.1245187 12.2129771,43.1245187 C12.2129771,43.1245187 12.0568708,42.9717749 11.9399314,43.060848 C11.9070492,43.0859204 11.9294944,43.1484914 11.8700146,43.2046844 C11.8426315,43.2304166 11.7185096,43.2419631 11.7025736,43.2742934 C11.670028,43.3407132 11.7586865,43.4358344 11.7318645,43.506543 C11.7116639,43.559547 11.6959522,43.5717533 11.6731704,43.6203586 L11.6731704,43.6203586 L11.6461239,43.6767715 C11.6136906,43.7690336 11.6369214,43.7470402 11.5310923,43.7878379 C11.4552276,43.817089 11.3917077,43.8456804 11.3579277,43.9205677 C11.2812774,44.0906862 11.2753295,44.2139589 11.1617568,44.2240758 C11.0480719,44.2341927 10.9862355,44.2847774 10.9757984,44.3960637 C10.9655859,44.50735 10.9140742,44.4973431 10.8314759,44.517467 C10.7486532,44.5378108 10.6868167,44.5882855 10.6868167,44.7198057 C10.6868167,44.8513259 10.7385528,45.0335407 10.5835688,45.1346001 C10.428697,45.2357695 10.3358862,45.3065881 10.3460988,45.468569 C10.3517101,45.5569823 10.3759509,45.6848735 10.3967127,45.809026 C10.4148933,45.9183329 10.3629327,45.8733565 10.271693,45.8691777 C10.2233236,45.8669784 10.1719241,45.8658787 10.1214225,45.8838033 C10.0175012,45.9208621 10.0364674,45.9855225 9.99864729,46.1058261 C9.96093937,46.2260197 10.0364674,46.3832721 10.0080743,46.4758641 C9.97979333,46.5683461 10.0080743,46.5868205 10.0930293,46.6885397 C10.1143522,46.714052 10.1266971,46.7365951 10.1333184,46.7560592 L10.1333184,46.7560592 L10.1390419,46.8053243 C10.1355629,46.8319363 10.1004362,46.8540396 10.1004362,46.8540396 L10.1004362,46.8540396 L10.0483634,46.8462319 C9.976651,46.8354552 10.0134611,46.8452422 9.97440648,46.8949472 C9.92727159,46.955099 9.8887781,47.0258076 9.84388773,47.074083 C9.7887848,47.1340148 9.8342363,47.159747 9.76835968,47.2200088 C9.72425489,47.2601466 9.65961275,47.3193087 9.61562019,47.3392127 C9.35851059,47.4553375 9.09298404,47.4797501 9.11262358,47.7314639 C9.11744929,47.7943649 9.25694612,47.8224064 9.26109848,47.9280844 C9.26525084,48.0338724 9.2006087,48.1898052 9.19567076,48.3041705 C9.19129395,48.4042402 9.16873654,48.4044602 9.13675215,48.4926535 C9.1213772,48.5348807 9.320466,48.7922028 9.29263397,48.8273921 C9.22193163,48.9164652 9.05538835,48.847626 9.02071054,48.8680798 C8.82319291,48.9840947 8.74306359,48.8711589 8.62444079,48.5806268 C8.50581798,48.2900948 8.18709634,48.2263141 8.00910602,48.2456683 C7.83122792,48.2650224 7.45549551,47.8877266 7.59398231,47.6761507 C7.73235688,47.4646847 7.81630187,47.2228679 7.6779273,46.9323359 C7.64392285,46.8609675 7.48815326,46.9202395 7.47199272,46.8642665 C7.44494627,46.7711247 7.57041486,46.5710952 7.57007818,46.4778435 C7.56974151,46.3997671 7.57378164,46.3120137 7.57378164,46.198748 C7.57378164,45.9620996 7.46492249,45.7408466 7.29894034,45.6648596 C7.23407375,45.6351686 7.03509718,45.4927617 6.95272335,45.5326796 C6.85654573,45.5791955 6.81109423,45.8201326 6.68405448,45.9355976 C6.44108534,46.1561909 5.86357071,46.3610588 5.70218982,46.3863512 C5.45619059,46.4251694 5.48334926,46.370516 5.6020843,46.0412756 C5.72059488,45.7118154 5.82720951,45.2628213 5.6964663,45.1650609 C5.56572309,45.0673005 4.9689056,44.9120275 5.03220103,44.7182662 C5.0558807,44.6456882 5.17248344,44.4620438 5.23824783,44.2548665 C5.28280153,44.1146589 5.20289667,43.9340936 5.23836006,43.797405 C5.28998399,43.5977054 5.47414674,43.5520693 5.47122886,43.5090723 C5.46842321,43.4666251 5.52621957,43.3081631 5.45630281,43.2452621 C5.38649829,43.1823612 5.19840763,43.2799017 5.17629912,43.2107326 C5.15980191,43.1595981 5.2554184,42.9695756 5.24958265,42.9330667 C5.24385913,42.8965577 5.28628053,42.6919097 5.16339314,42.7013668 C5.04039352,42.710604 5.06878668,42.710604 4.97429245,42.6270293 C4.87979822,42.5434546 4.83243887,42.4599899 4.72851766,42.4599899 C4.62448423,42.4599899 4.63391121,42.4784643 4.62448423,42.5249802 C4.61505725,42.5713862 4.50159684,42.710604 4.37870944,42.710604 C4.25582205,42.710604 4.22754112,42.7013668 4.27467601,42.5528018 C4.32203535,42.4043467 4.34088931,42.3487036 4.31260837,42.2465445 C4.28410299,42.1444954 4.32203535,41.9683287 4.20857494,41.9683287 C4.09511452,41.9683287 3.80209262,41.9869131 3.96280015,42.079615 C4.12350768,42.172317 4.14236164,42.1444954 4.06672136,42.2280701 C3.99119331,42.3116448 4.05729438,42.3487036 4.02901345,42.4507527 C4.00062029,42.5528018 4.01947425,42.6084449 3.91555304,42.515633 C3.8115196,42.4229311 3.67920523,42.2558917 3.584711,42.1909014 C3.49010454,42.126021 3.47125058,42.1074366 3.48067756,42.0332091 C3.49010454,41.9590915 3.35779017,42.0238619 3.27272292,42.0425563 C3.18765566,42.0610307 3.14983552,41.9405072 3.16868948,41.7827049 C3.18765566,41.6249027 3.14040855,41.1518259 3.14040855,40.9476178 C3.14040855,40.7435196 3.20650962,40.6414704 3.06476827,40.5858273 C2.9229147,40.5301841 2.85681362,40.5115998 2.99855497,40.4466094 C3.14040855,40.3816191 3.05534129,40.0940562 2.9324539,40.084709 C2.80945428,40.0755818 2.77208305,40.127596 2.70553307,39.9640755 C2.68667911,39.9176696 2.6065498,39.8854493 2.6065498,39.8854493 L2.6065498,39.8854493 L2.30612099,39.9781513 L2.20006749,40.0578771 C2.19131386,40.0707432 2.16662416,40.0961455 2.15360595,40.1220977 L2.15360595,40.1220977 L2.13015073,40.1866481 C2.07111989,40.3409314 2.12027485,40.3697427 1.97280998,40.4660736 C1.85789063,40.5411808 1.71300696,40.715698 1.62681744,40.8438092 L1.62681744,40.8438092 L1.59786315,40.8886756 C1.58652833,40.90715 1.56857219,40.9361812 1.5612775,40.9508068 L1.5612775,40.9508068 L1.53299657,41.019426 L1.58933398,41.1501764 C1.58933398,41.1501764 1.82534511,41.1502864 1.72692297,41.2658614 C1.62861306,41.3815464 1.49798208,41.4227839 1.44882712,41.432351 L1.44882712,41.432351 L1.37543136,41.5142762 L1.43479888,41.6265522 C1.45814187,41.6722984 1.47250679,41.723103 1.43199323,41.7379485 C1.35332285,41.7668697 1.3041679,41.6609718 1.16657891,41.6031293 C1.02887769,41.5452868 0.969846855,41.448846 0.812506102,41.4392789 C0.65516535,41.4296018 0.546979555,41.3140268 0.615774049,41.1790977 C0.684680769,41.0442785 0.76323892,40.8997822 0.645401694,40.8901052 C0.527340017,40.8804281 0.379875147,40.7840973 0.438793759,40.6588452 C0.497824598,40.5334831 0.546979555,40.5046719 0.458545523,40.4275852 C0.369999265,40.3506085 0.271689351,40.177081 0.23229805,40.2926561 C0.193018975,40.408341 0.124224481,40.5046719 0.0553177603,40.408341 C-0.0134767341,40.3120102 -0.0232403899,40.2540577 0.0553177603,40.1289156 C0.133988136,40.0035536 0.163503556,39.9072227 0.252049814,39.9264669 C0.340483846,39.9458211 0.438793759,39.8687344 0.497824598,39.7917577 C0.556855436,39.7145611 0.586370856,39.589419 0.782990683,39.7242381 C0.979610511,39.8590573 1.12718761,39.9553882 1.22549752,39.8108919 C1.32380743,39.6663957 1.34344697,39.6086631 1.41235369,39.7434823 C1.45533622,39.8277168 1.47149676,39.8706038 1.48956513,39.8464112 C1.50033882,39.8316756 1.51189809,39.7928574 1.53030314,39.7242381 C1.5794581,39.5410336 1.64836482,39.4351357 1.59920986,39.2906394 C1.54994268,39.1461432 1.50078772,39.0402452 1.61873718,38.8184424 C1.73679885,38.5968595 1.76620205,38.5100957 1.71715932,38.3463553 C1.66800436,38.1825049 1.62861306,38.1344495 1.66800436,37.9898432 L1.66800436,37.9898432 L1.64836482,37.9127566 C1.64836482,37.9127566 1.75688729,37.6816066 1.62805193,37.7009607 C1.43154433,37.7305417 1.3314388,37.60408 1.52918088,37.4878452 C1.72681075,37.3716104 1.96439304,37.0716212 1.98403257,36.8003334 C1.98897051,36.7327038 2.0958096,36.6418713 2.09311618,36.5684136 C2.09031053,36.4948459 1.97774792,36.438323 1.97651344,36.362116 C1.97415669,36.2095922 2.01366022,36.1316258 2.07280328,35.9863598 C2.19131386,35.6957178 2.36907974,35.3177622 2.13183412,35.2598098 C1.89447628,35.2016374 1.78629049,35.0374571 1.68741944,34.8631599 C1.5885484,34.6887527 1.33087767,34.1749882 1.11349604,34.1169258 C1.0302244,34.0947125 0.72878556,34.0082787 0.64910515,33.9502162 C0.520494235,33.8565246 0.489856557,33.8128678 0.550795236,33.7294031 C0.587717567,33.6784885 0.753138586,33.5525766 0.740569282,33.3857571 C0.719807485,33.1083111 0.799151217,32.6239078 0.787143043,32.5382437 C0.767952409,32.4006754 0.999250048,32.4898584 1.18655512,32.4202494 C1.37374797,32.3508605 1.33929461,32.4321259 1.64398801,32.4302564 C1.79145288,32.4292667 1.92141051,32.4624767 2.01366022,32.5253776 C2.16763419,32.6302859 2.16987871,32.8193186 2.3797412,32.6257772 C2.47423543,32.5386836 2.60688648,32.431576 2.70575752,32.3602076 C2.80058843,32.2918083 2.82000352,32.2047147 2.89250147,32.1393945 C3.01336879,32.0303075 3.08059213,31.8991172 3.07172628,31.8121336 C3.05219897,31.6184822 3.08160216,31.3569814 3.27934425,31.3957996 C3.47708633,31.4343979 3.60524834,31.5118145 3.6842554,31.8409448 C3.76337468,32.1702951 3.72128995,32.5459414 4.15627765,32.5072331 C4.26491235,32.497666 4.3733226,32.4325657 4.47129584,32.4521398 C4.75197288,32.5082228 4.89865217,32.6080726 4.98764733,32.4774321 C5.10604569,32.3031349 6.34602998,31.0755766 6.5634116,31.0176241 C6.61761673,31.0032185 6.76092924,31.0985596 6.80469735,31.087343 C6.93622614,31.0540231 7.00546954,30.7764671 7.19816146,30.8054983 C7.31049961,30.8223232 7.3450652,30.8901727 7.43125471,30.9036986 C7.54213393,30.9212933 7.7471707,30.8609215 7.80272253,30.8609215 C7.90148135,30.8609215 8.01303393,30.7954913 7.93402687,31.0666692 C7.90439923,31.1683885 7.71922644,31.1514536 7.66951036,31.2714273 C7.58691207,31.4714567 7.69015993,31.7713359 7.81349622,31.916492 C8.01101386,32.1489616 8.18990199,32.3233688 8.42703538,32.1684257 C8.64733488,32.0245892 9.07783354,31.8189515 9.30004088,31.6762147 C9.38701597,31.6204616 9.35469491,31.5144537 9.43751764,31.4535321 C9.60058192,31.3337784 9.7312129,31.1510137 9.85511032,31.1528831 C9.91144774,31.1537629 10.0686763,31.199619 10.0994262,31.2842934 C10.1210858,31.3435654 9.9606027,31.3797445 9.97036635,31.4272501 C10.0052686,31.5969287 10.2129988,31.6103447 10.290098,31.7010672 C10.3888568,31.8170821 10.5047862,31.7735352 10.4258914,32.025469 C10.3937948,32.127628 10.3157978,32.1477519 10.2793243,32.2942276 C10.2259048,32.5081128 10.2087342,32.8834292 10.3964882,32.768514 C10.7127409,32.5748626 11.0984614,31.8215907 11.2564755,31.6472935 C11.2996825,31.5996779 11.3577033,31.4190026 11.4842941,31.3028777 C11.5772172,31.2175436 11.6874231,31.202918 11.7998734,31.1208828 C11.9256787,31.0292806 12.0255598,30.8704886 12.1162383,30.780206 C12.2295865,30.6674901 12.3236319,30.5567536 12.3641454,30.6019499 C12.3966909,30.638129 12.2637032,30.8643305 12.2986055,30.89919 C12.3452915,30.9459258 12.6581773,30.8899528 12.7276452,30.8894029 C12.8435746,30.8884132 12.7898184,30.7443568 12.8379633,30.6405483 C12.9366099,30.4274328 13.0160658,30.291184 13.1346886,30.291184 C13.2533114,30.291184 13.5200725,30.2427987 13.57944,30.0685014 C13.6386953,29.8940943 13.6683229,29.6611848 13.9055685,29.5062417 C13.95001,29.4772105 14.1419164,29.4460899 14.2042017,29.3977045 C14.3224879,29.3057724 14.298696,29.0646154 14.426858,28.9247377 C14.5917179,28.7448322 14.9181831,28.6626871 15.1711403,28.5476619 C15.7245264,28.2959481 16.0751202,28.1339671 16.2926141,28.1727854 C16.5153825,28.2123734 16.6934851,28.3716052 16.8516114,28.3135428 C17.0097377,28.2554803 17.1872792,28.0735954 17.286038,28.3254192 C17.3850212,28.5772429 17.4048852,28.9857692 17.5631238,29.08254 C17.7212501,29.1794206 17.9187678,29.273882 18.1756529,28.98324 C18.2781152,28.8674451 18.4182854,28.5686655 18.5410605,28.2427242 C18.5765239,28.1484827 18.7089505,28.1000974 18.7400371,28.0050862 C18.7803262,27.8828032 18.7177042,27.714774 18.7458729,27.6054671 C18.8101783,27.3555128 19.0522496,27.0635512 19.0054514,27.0176951 C18.9708858,26.9838253 18.9706614,27.0079081 18.9125284,26.961722 C18.8797584,26.93555 18.6891988,27.0306712 18.6611423,26.9979011 C18.6367219,26.9694857 18.6329691,26.9227542 18.6363305,26.8693826 L18.654204,26.7010226 L18.654204,26.7010226 L18.6537354,26.6237943 C18.6392582,26.5062399 18.511994,26.4391602 18.511994,26.3683417 C18.511994,26.1388412 18.3346771,25.9376021 18.5523954,25.653778 C18.6315146,25.5508492 18.866628,25.5074123 18.9975956,25.4619961 C19.146295,25.4105317 19.3120527,25.2335952 19.2701924,24.9558193 C19.2359635,24.7292879 19.0859174,24.5566402 19.0492195,24.35903 C19.0012991,24.1006082 18.9490018,23.8943107 18.8879509,23.8118357 C18.7798773,23.6661298 18.9868219,23.5494551 18.9077026,23.10398 C18.8286956,22.6582849 18.6805574,22.0382926 18.2654337,21.9995843 C17.8501977,21.9608761 17.9489565,22.1448504 17.7117109,21.9124907 C17.4744653,21.6800211 17.2470956,21.3021755 17.0296017,21.2634672 C17.0128714,21.2604812 16.9954392,21.2573813 16.9776381,21.254141 L16.8690671,21.2328023 C16.6896149,21.1937223 16.5398564,21.1352968 16.7527404,21.0309976 C17.0296017,20.8954086 17.0493535,20.6726161 16.8911149,20.7598197 C16.7328764,20.8470233 16.4657787,20.6819633 16.3471559,20.653152 C16.3101213,20.6441347 16.2177594,20.6775646 16.1141748,20.6224713 C15.8861317,20.501288 15.6738003,20.2683785 15.4970444,20.2948804 C15.4248832,20.3057671 15.3614755,20.3645993 15.2481273,20.3861528 C15.1032437,20.4136445 15.0986424,20.2713476 14.989671,20.2607908 C14.8806996,20.250234 14.6670215,20.3709774 14.6174176,20.3431558 C14.479043,20.2658492 14.3704083,20.2561722 14.5186588,20.0624108 C14.6669092,19.8686495 14.7361526,19.8977907 14.6966491,19.5490862 C14.6896911,19.4879447 14.6419951,19.3883149 14.6318948,19.3289329 C14.6149486,19.2300728 14.6517587,19.028064 14.6203355,18.9400906 C14.5636614,18.780309 14.516751,18.595345 14.3802842,18.502753 C14.1232868,18.3285657 14.0441676,18.2897475 13.8068097,18.3091016 C13.5696763,18.3284558 13.5399365,18.3382428 13.4015619,18.3188887 L13.4015619,18.3188887 L13.3564471,18.3169093 C13.3236771,18.3021737 13.257576,18.2894176 13.1247005,18.2732525 C12.8588373,18.2405924 13.1429934,18.2005645 13.1628573,17.9488507 C13.1824969,17.696917 13.0951851,17.4857809 13.312679,17.350192 C13.5301728,17.214493 13.7475544,17.3793331 13.6289316,17.0888011 C13.5696763,16.9435351 13.4757432,16.6552024 13.396624,16.5098264 C13.3177291,16.3645604 13.144789,16.2652604 13.144789,16.2652604 C13.144789,16.2652604 13.0556816,16.0521449 13.312679,15.916556 C13.3768722,15.8826862 13.4646329,15.9094082 13.5004329,15.8781776 C13.6078332,15.7847059 13.5646262,15.6355911 13.5499246,15.490435 C13.5400487,15.3936643 13.332543,15.3283441 13.2534237,15.0788296 C13.1743044,14.8294251 13.2235716,14.3956065 13.3322063,14.2601275 C13.5495879,13.9888396 13.6685474,13.9502413 13.5104211,13.6790634 C13.3521825,13.4077755 13.3522947,13.1751959 13.4114378,12.9620805 C13.4343319,12.8801553 13.495495,12.7514942 13.5078399,12.6691292 C13.5176035,12.6038089 13.4804567,12.5942418 13.3618339,12.5167153 C13.1245883,12.3617722 12.8578273,12.4876841 12.7788202,12.1195156 C12.6997009,11.751567 12.3340689,11.5480186 12.3240808,11.4996332 C12.3142049,11.4513578 12.3537084,11.2577065 12.57109,11.0832993 C12.6049823,11.0561375 12.4413569,10.7458115 12.4903996,10.714251 C12.5400034,10.6824706 12.3978132,10.4151416 12.4541506,10.3778628 C12.530352,10.3272782 12.6580651,10.3518007 12.7544672,10.3201303 C12.8868938,10.2764735 12.6595241,10.0676468 12.718106,9.97296543 C12.7531205,9.91611264 12.8770179,9.7887712 12.8976675,9.7075058 C12.9469347,9.5139644 13.014158,9.49757936 13.018647,9.42456146 C13.0232483,9.34791467 13.1024798,9.36638908 13.1839558,9.30106885 C13.4014497,9.12677162 13.3224426,8.91343621 13.480569,8.89408207 C13.6388075,8.87472793 13.8463133,8.84558675 13.8463133,8.61311713 C13.8463133,8.52591353 13.7634905,8.47895775 13.7365563,8.39901195 C13.7225281,8.35733457 13.7683162,8.29608311 13.7619194,8.23351206 C13.7478911,8.09583374 13.7022152,7.97333083 13.8266737,7.99301487 C14.1330505,8.04129025 14.2816376,8.04129025 14.4990193,7.96376372 C14.7165131,7.8862372 14.864988,7.94462952 15.0231143,8.0801085 C15.131749,8.1732503 15.4656212,8.2607838 15.7145383,8.27277017 C15.8277743,8.27837847 15.9492027,8.22152569 15.9860128,8.21734695 C16.2497437,8.18721607 16.4501793,7.94759862 16.735682,8.14828786 C16.8069455,8.19832271 16.8870748,8.263423 16.9709076,8.33149239 C16.9846552,8.34265401 17.0009911,8.34482586 17.0186509,8.3424925 L17.1303824,8.31030662 L17.1303824,8.31030662 L17.1791989,8.32093559 C17.382889,8.47818798 17.5512278,8.75530408 17.7017228,8.70988783 C17.894527,8.65193538 18.1651037,8.46290261 18.28844,8.29861235 C18.3294024,8.24384893 18.4727149,8.24022003 18.4727149,8.19656324 C18.4727149,8.13124302 18.3740684,8.02039658 18.3843931,7.94792852 C18.4016759,7.82718507 18.5567722,7.74152101 18.6802207,7.78979639 C18.7913244,7.83334321 18.9127528,8.0857168 19.0619011,8.14993736 C19.1779427,8.19986224 19.3402214,8.04755836 19.3920698,7.95441655 C19.5106926,7.74130108 19.7379501,7.70259279 19.560072,7.5476497 C19.471189,7.47023314 19.3623299,7.30044455 19.2585209,7.20840241 C19.1548241,7.11647024 19.0660534,7.10195464 19.1153206,6.94712152 C19.140347,6.86849532 19.2767015,6.75116084 19.2874752,6.63151707 C19.2981367,6.51198326 19.1952255,6.43841553 19.2446049,6.31239368 C19.2939843,6.18637184 19.2149772,6.05056295 19.1063425,6.09916824 C18.9975956,6.14755359 18.9779561,6.07970413 18.9087127,6.02153174 C18.8396937,5.96335935 18.8099539,5.85680161 18.898949,5.81798337 C18.9389015,5.80049866 19.0008502,5.75475251 19.0566265,5.70977613 L19.0566265,5.70977613 L19.126431,5.65160374 C19.1769327,5.60827686 19.2369735,5.56462007 19.1312567,5.56879881 C18.8155652,5.58177488 18.6050293,5.33676905 18.486631,5.25946246 C18.3681204,5.18215586 18.0656715,4.95012611 17.8947514,4.88568562 C17.7237191,4.82124513 17.5526868,4.69225418 17.1317273,4.65365587 C16.7106556,4.61494759 16.5792391,4.49893271 16.4082068,4.43449222 C16.2371744,4.37005173 16.0662544,4.46022443 15.7768237,4.5505071 C15.5235298,4.62946319 15.3610266,4.49123504 15.2537386,4.40370154 L15.2537386,4.40370154 L15.2336502,4.30968001 C15.2336502,4.30968001 15.3928988,3.50648318 15.4478895,3.2081435 C15.4860463,3.00129613 15.5495662,2.6634784 15.4419415,2.48863134 C15.3998568,2.42023205 15.4316167,2.51788248 15.3095149,2.45256226 C15.2144596,2.40175764 15.0417439,2.29959857 14.9493819,2.24329561 C14.6193255,2.04227647 14.5477253,1.82443243 14.1925302,1.88480415 C14.0149888,1.91504499 13.8917648,1.97728615 13.7171412,1.97442701 C13.6718917,1.97372323 13.6308619,1.95062142 13.5917175,1.92026005 L13.4776062,1.82253572 L13.4776062,1.82253572 L13.4204159,1.78572414 C13.2958451,1.72777169 13.1630818,1.7574627 13.0281862,1.69115278 C12.8268529,1.59196281 12.5361878,1.60746811 12.3643699,1.56183193 C12.2126404,1.52158411 11.9150172,1.49178314 11.9335345,1.38280613 C11.9458794,1.3102281 12.0563097,1.20477003 12.1263387,1.12735347 C12.1359901,1.1166867 12.1498079,1.11243236 12.1657072,1.11144266 L12.2694004,1.11949772 L12.2694004,1.11949772 L12.3087058,1.10569003 C12.4240741,0.989125317 12.4153204,0.871241007 12.4355211,0.791405178 C12.4576296,0.704311546 12.5669377,0.78931581 12.6379767,0.715748083 C12.6933041,0.658565395 12.543258,0.379909759 12.7160859,0.388597129 C12.8583884,0.395854932 13.0762189,0.438961881 13.2176236,0.444020349 C13.3207592,0.447759218 13.3912371,0.520997045 13.4777633,0.512859508 C13.5474556,0.506371472 13.6186068,0.508240906 13.6834734,0.451168185 C13.7223036,0.416858573 13.6786477,0.100264423 13.7007562,0.0825597827 Z" id="形状结合"></path>
            </g>
        </g>
    </g>
</svg>