<?xml version="1.0" encoding="UTF-8"?>
<svg width="120px" height="120px" viewBox="0 0 120 120" version="1.1" xmlns="http://www.w3.org/2000/svg" xmlns:xlink="http://www.w3.org/1999/xlink">
    <title>jdo_cn_ximalaya_radio_province_guangdong</title>
    <g id="jdo_cn_ximalaya_radio_province_guangdong" stroke="none" stroke-width="1" fill="none" fill-rule="evenodd">
        <g id="编组">
            <rect id="矩形" x="0" y="0" width="120" height="120"></rect>
            <g id="广东" transform="translate(23.999975, 33.000000)" fill="#FFFFFF" fill-opacity="0.189284" fill-rule="nonzero">
                <path d="M32.0000247,2 L32.0000247,34.8214481 L31.8997799,34.8807447 C31.8997799,34.8807447 31.6889827,35.1280998 31.5860195,35.2664587 C31.4830562,35.4048176 31.4781855,35.5334651 31.4684442,35.6224672 C31.4585897,35.7016437 31.6252112,35.8598824 31.6350658,35.9784757 C31.6448071,36.0970691 31.6546616,36.1367144 31.5664236,36.2653619 C31.4880401,36.3839552 31.6546616,36.5124885 31.6546616,36.5124885 C31.6546616,36.5124885 31.8115419,36.6904927 31.8507336,36.7794949 C31.8899254,36.8586713 31.752641,36.9970302 31.6252112,37.0365613 C31.4880401,37.0860324 31.4291392,37.3827442 31.3213053,37.5212173 C31.2036168,37.6596905 30.9291613,37.8178149 30.791877,37.857346 C30.6448513,37.9068171 30.5566133,37.6793418 30.4193289,37.5409829 C30.2918991,37.4124497 30.2428528,36.9970302 30.2232569,36.8387915 C30.203661,36.6805528 29.9977345,36.6707272 29.8899006,36.7991462 C29.7820666,36.9279079 29.7428749,36.8586713 29.4977566,36.9279079 C29.242897,36.9872046 29.0860168,37.4322152 29.0860168,37.4322152 C29.0860168,37.4322152 28.6546811,37.7980494 28.4586091,37.8375805 C28.2722784,37.8772258 28.2624239,38.0749957 28.2624239,38.3417735 C28.2624239,38.6188341 27.8506841,38.7573072 27.7331088,38.8166039 C27.6154203,38.8760148 27.3605607,38.7573072 27.0565416,38.4705353 C26.7526357,38.1837633 26.5664183,38.2035289 26.3507504,38.1540579 C26.125228,38.1045869 26.2330619,37.4618064 26.2330619,37.2442711 C26.2330619,37.0167958 26.4487298,37.0860324 26.5468224,37.0860324 C26.6350605,37.0860324 26.8800655,36.967439 26.9683035,36.8586713 C27.0663961,36.7597293 26.9683035,36.7597293 26.9389664,36.6114305 C26.9095159,36.4630175 26.7918274,36.532254 26.7918274,36.532254 C26.7918274,36.532254 26.7526357,36.6607873 26.801682,36.7597293 C26.8605829,36.8487314 26.8408737,36.8289659 26.6839935,36.8387915 C26.5272265,36.8487314 26.2722537,36.9080281 26.0957776,36.9574991 C25.9193015,37.0069701 25.8702551,36.6212562 25.8702551,36.5026628 C25.8702551,36.3839552 26.0467313,36.0377724 26.0565858,35.8796479 C26.0664404,35.721295 26.0860363,35.6520584 25.9977982,35.6520584 C25.8997056,35.6520584 25.8506593,35.7511147 25.7820171,35.8398883 C25.7232295,35.9389446 25.7232295,36.0774177 25.6644419,36.1861854 C25.5957997,36.304893 25.7134882,36.5718994 25.7134882,36.5718994 C25.7134882,36.5718994 25.7428254,36.7696692 25.7526799,36.917968 C25.7624212,37.0563269 25.7918717,37.0959723 25.8801097,37.1552689 C25.9584932,37.2145656 25.9390106,37.3234475 25.9390106,37.3234475 L25.9683478,37.5212173 C25.9683478,37.5212173 26.0075395,38.3517134 26.0075395,38.4605954 C26.0075395,38.5595374 26.0565858,38.7870127 26.0173941,38.9650169 C25.9683478,39.1429069 25.7036336,39.1032616 25.6349914,39.1032616 C25.5762038,39.1032616 25.3997277,39.1626725 25.2722979,39.2715544 C25.1448681,39.3702679 24.9193457,39.340791 24.7231605,39.3604423 C24.5272018,39.3803221 24.2918248,39.0341392 24.1349445,38.955077 C23.9781776,38.8660749 24.0369652,38.7177761 24.0369652,38.628774 C24.0369652,38.5298319 24.2035867,38.2628256 24.2231826,37.9958192 C24.2428917,37.7288128 24.0173693,37.916757 24.0173693,37.916757 C24.0173693,37.916757 23.968323,37.9659995 24.0271106,38.144118 C24.0761569,38.3221222 23.6937543,38.2628256 23.6937543,38.2628256 C23.6937543,38.2628256 23.3506566,38.2628256 23.1448433,38.3517134 C22.9486581,38.4507697 22.7820366,38.4308899 22.6251563,38.5002407 C22.4682761,38.579303 22.3996339,38.1639978 22.4781307,37.9958192 C22.5663687,37.8276406 22.3115091,37.7980494 22.2820587,37.9659995 C22.2526082,38.1342923 22.1643702,37.9365225 22.00749,37.9859935 C21.8604643,38.0354645 21.9192519,38.0749957 22.0369404,38.1342923 C22.1447743,38.193589 22.1741115,38.1342923 22.2231578,38.2824769 C22.2623495,38.4308899 22.1055826,38.4112386 21.8899147,38.2726512 C21.6643923,38.1342923 21.7918221,38.193589 21.8015634,38.0354645 C21.811418,37.8772258 21.8703189,38.0452902 21.7623717,37.9265826 C21.6545377,37.7980494 21.5761543,37.9464624 21.5761543,37.9464624 C21.5761543,37.9464624 21.5957501,38.0749957 21.6349419,38.2726512 C21.6741336,38.4705353 21.8899147,38.5298319 22.2428669,38.5595374 C22.5957059,38.5989543 22.2231578,38.6980105 22.2231578,38.6980105 C22.2231578,38.6980105 22.0369404,38.7870127 21.811418,38.856135 C21.5957501,38.9353115 21.615346,39.1528468 21.5467038,39.3308511 C21.4683203,39.5088553 21.7526304,39.6966852 21.8604643,39.7858016 C21.9585569,39.8648638 22.2231578,39.6274487 22.3115091,39.6571541 C22.4094885,39.6867453 22.380038,40.052808 22.380038,40.052808 C22.380038,40.052808 22.2428669,40.2011068 22.0466817,40.2703434 C21.8408684,40.32964 21.7231799,40.280169 21.6056047,40.2604035 C21.4879162,40.2308123 20.9976796,40.7944162 20.6448407,40.8537129 C20.2918885,40.9229495 20.4977018,40.6263519 20.6055357,40.5175842 C20.7133696,40.4186422 20.7624159,40.3691711 20.7232242,40.082285 C20.6741779,39.7858016 20.9976796,39.8549239 21.1055136,39.8648638 C21.2133475,39.8748038 21.3898236,39.7956273 21.3898236,39.6373886 C21.3898236,39.4791499 21.1644144,39.4693242 20.7624159,39.5385608 C20.3506761,39.6175088 20.8997003,39.0540191 20.8898457,38.7870127 C20.8799911,38.5100664 20.7624159,38.6090084 20.5956811,38.7274875 C20.4290596,38.856135 20.3408215,38.6385996 20.223133,38.5396576 C20.0957032,38.4507697 20.0761074,38.4803609 20.0074652,38.5595374 C19.9486776,38.6485395 19.8800354,38.628774 19.7917973,38.628774 C19.7134138,38.628774 19.5662749,38.628774 19.3899121,38.5495975 C19.2133227,38.4803609 19.2526277,38.4408298 19.3212699,38.6582509 C19.3996534,38.8760148 19.4486997,39.0638447 19.8311023,39.0935502 C20.223133,39.1133157 20.1546041,39.2616145 20.1546041,39.2616145 C20.1546041,39.2616145 20.1839413,39.9933971 20.1742,40.0428681 C20.1643454,40.1021648 20.1839413,40.2703434 20.0663661,40.1910526 C19.938823,40.1219303 19.7231551,40.1516358 19.4192492,40.2703434 C19.1153433,40.3791111 19.0858929,40.7745364 18.9879136,41.0020117 C18.8996755,41.2293727 18.8310333,41.1602504 18.781987,41.0614226 C18.7329407,40.9724205 18.5761737,40.7647108 18.497677,40.6757086 C18.4290348,40.5966464 18.3996976,40.5175842 18.2525587,40.665883 C18.105533,40.8141818 18.3310554,40.8240074 18.4094389,40.8734785 C18.4780811,40.9328894 18.6055109,40.9328894 18.6251068,41.0119516 C18.6447026,41.1009537 18.3603926,41.1207193 18.2525587,41.1602504 C18.1349835,41.1998958 18.0368908,41.1998958 17.9192023,41.1207193 C17.7917726,41.0317172 17.7624354,41.0910138 17.4192245,41.2097214 C17.0761268,41.3382546 17.1545103,41.2492525 17.2427484,41.0217772 C17.3212451,40.8042419 17.2526029,40.8734785 17.1545103,40.8834184 C17.0662723,40.8933583 17.0466764,40.7152398 17.0369351,40.458059 C17.0270805,40.1910526 17.0369351,40.3394657 16.7525118,40.4481191 C16.4584605,40.5471754 16.7819622,40.7745364 16.860459,40.8338331 C16.948697,40.8933583 16.9878888,41.0020117 16.8310085,41.0217772 C16.6741283,41.0416571 16.4879109,40.942715 16.4388646,40.7944162 C16.3799637,40.6461174 15.7428147,40.8240074 15.7721519,41.1503105 C15.8016023,41.4766135 15.9780785,41.1998958 16.2525339,41.0910138 C16.5172481,40.9724205 16.4388646,41.2097214 16.4388646,41.2097214 L16.0761711,41.4667879 C16.0761711,41.4667879 15.8016023,41.7042031 15.4290543,42.0006864 C15.0466516,42.2975125 15.2035318,41.8523876 15.2035318,41.8523876 C15.2035318,41.8523876 15.4191997,41.6349665 15.5564841,41.4569622 C15.7035097,41.2788437 15.3800079,41.328429 15.1740814,41.3481945 C14.9682681,41.3679601 15.0172012,41.1801302 15.0270557,41.0020117 C15.0369103,40.8240074 14.987864,40.9128953 14.8800301,41.0119516 C14.7820507,41.1207193 14.6741035,41.0910138 14.31141,41.0119516 C13.9487165,40.942715 14.2329133,41.1009537 14.3212646,41.170076 C14.3996481,41.2492525 14.6545077,41.3135763 14.7820507,41.3877257 C14.9094805,41.4618751 14.1067294,41.7239686 13.7832277,41.6844375 C13.4596126,41.6449064 13.7379193,41.5953211 13.8113189,41.4766135 C13.884945,41.3580202 13.7819817,41.427371 13.7034849,41.427371 C13.634956,41.427371 13.595651,41.4766135 13.5663138,41.2987235 C13.546718,41.1207193 13.399579,41.1306592 13.2525534,40.9623663 C13.0956731,40.7944162 13.115269,40.9128953 13.0368855,40.992186 C12.9682433,41.0811882 12.9290516,41.0811882 12.8212177,41.0614226 C12.7132705,41.051597 12.6937879,41.1899558 12.6937879,41.1899558 C12.6937879,41.1899558 12.7427209,41.1998958 12.6740787,41.6349665 C12.6054366,42.0602116 12.9486475,41.5953211 13.1937658,41.4471366 C13.4486254,41.2987235 13.4290295,41.5953211 13.4290295,41.5953211 C13.4290295,41.5953211 13.115269,41.8327363 13.0074351,41.9216242 C12.8996012,42.0006864 12.7868966,42.0750643 12.5760994,42.0305061 C12.3653022,41.9859479 11.7697237,42.4211329 11.6029889,42.4407842 C11.4363673,42.460664 11.1545492,42.3123652 11.0172649,42.2480415 C10.8799805,42.183832 10.6447168,42.3074524 10.4191944,42.3272179 C10.2035265,42.3469835 9.80152801,43.2172392 9.59560146,43.5235482 C9.39964276,43.8303142 9.42897993,43.3555981 9.46817167,43.1875338 C9.49762211,43.0193552 9.37019232,43.2172392 9.26224512,42.9205274 C9.16426577,42.6139899 9.15452447,43.0884775 9.09562359,43.1578283 C9.04669055,43.2270649 9.29169556,43.6720755 9.33100057,43.701781 C9.37019232,43.7313722 9.37257101,44.0922935 9.15690316,44.3741526 C8.94112204,44.6560117 8.94372727,44.7992834 8.840764,45.0169331 C8.73780072,45.2345827 8.66915854,45.2938793 8.4289109,45.2938793 C8.18877654,45.2938793 8.21256343,45.058635 8.222418,44.8808592 C8.2321593,44.7027407 8.20837241,44.7301611 7.83095367,44.7103956 C7.45353494,44.69063 7.75245692,44.4433892 7.84069497,44.4235094 C7.91919173,44.3940324 8.45836134,44.4038581 8.60550028,44.3940324 C8.76226724,44.3840925 8.89955161,44.3543871 8.98778966,44.2653849 C9.06628642,44.1665572 9.0172401,43.978613 8.88969704,43.8105486 C8.76226724,43.64237 8.73293007,43.8500798 8.68388376,43.9390819 C8.63483745,44.0182584 8.43876547,44.1071462 8.33093155,44.1169719 C8.21335633,44.1269118 8.13485957,44.0182584 8.04662152,43.978613 C7.96812477,43.9390819 7.63476843,43.9588474 7.53678907,43.9686731 C7.43880972,43.978613 7.27807827,43.4240349 7.42521721,43.285676 C7.75857355,43.3253214 7.89461194,43.5187496 7.97797934,43.2963014 C8.06134674,43.073739 7.89959586,43.1875338 7.76231149,43.2270649 C7.63476843,43.2765359 7.65447757,43.1282371 7.65447757,43.1282371 C7.65447757,43.1282371 7.77216606,43.0588863 7.86040411,43.039235 C7.9387876,43.0193552 7.89959586,42.8908219 7.89959586,42.8908219 L7.77216606,42.979824 C7.77216606,42.979824 7.67407344,42.9501186 7.73297432,42.8612307 C7.80150323,42.7820542 7.73297432,42.6139899 7.73297432,42.6139899 C7.73297432,42.6139899 7.73297432,42.7227576 7.50733863,43.0094152 C7.27207491,43.2963014 7.38976341,43.0687119 7.3309758,42.8710564 C7.26222034,42.6732865 7.35057167,42.554579 7.53678907,42.2679213 C7.72300648,41.9712094 7.49759733,42.1293339 7.49759733,42.1293339 C7.49759733,42.1293339 7.31126666,42.376689 7.2230286,42.4359856 C7.14464512,42.4854566 7.04666577,42.2777469 7.04666577,42.2777469 C7.04666577,42.2777469 7.02695663,41.8822073 7.11519468,41.6349665 C7.2132873,41.3777858 7.06626164,41.4371967 7.06626164,41.4371967 L6.65440854,41.8921472 C6.65440854,41.8921472 7.09559881,42.4755167 7.10545338,42.5348134 C7.11519468,42.60405 7.09559881,42.9600585 7.02695663,43.0588863 C6.94857314,43.1677682 6.70345485,42.8710564 6.70345485,42.8710564 C6.70345485,42.8710564 6.75250117,43.1973594 6.76224247,43.2863615 C6.77209704,43.365538 7.18383686,43.7511377 7.25247904,43.8400256 C7.3309758,43.9390819 7.18383686,44.3840925 7.18383686,44.3840925 C7.18383686,44.3840925 6.99761946,44.5323913 6.89952683,44.641159 C6.81128878,44.7499267 6.81128878,44.86852 6.7426466,44.9576364 C6.68385898,45.0366986 6.55642919,44.9971675 6.48778701,44.9675763 C6.40940353,44.9378708 6.26226459,44.9475822 6.3113109,45.2246428 C6.35050264,45.5113005 6.37009851,45.2345827 6.7329053,45.3433504 C7.09559881,45.452118 6.99761946,45.1455805 7.11519468,45.452118 C7.24273774,45.7586555 7.55638494,45.6795933 7.644623,45.7091845 C7.72300648,45.73889 7.98783391,45.6103567 8.27214394,45.5905912 C8.56630854,45.5608857 8.45836134,45.7784211 8.45836134,45.7784211 C8.45836134,45.7784211 8.39957373,46.065193 8.33093155,46.1541952 C8.25254807,46.2332574 8.29173981,46.5695003 8.29173981,46.7574445 C8.29173981,46.9354487 8.16431002,47.0244509 8.07607196,47.0046853 C7.99757521,46.9848055 7.98783391,46.7869214 7.92893303,46.6387369 C7.87999999,46.4904381 7.36031297,46.2826141 7.36031297,46.2826141 L6.65440854,46.2826141 C6.65440854,46.2826141 6.10538435,46.4904381 5.87012064,46.678268 C5.62500235,46.8662122 5.69364453,46.6189713 5.69364453,46.6189713 L5.89957108,46.1244897 C5.89957108,46.1244897 6.25252329,45.8574833 6.50738288,45.6795933 C6.75250117,45.5014748 6.45833657,45.4817093 6.38969438,45.5510601 C6.32116547,45.6301223 6.15443067,45.6004168 6.15443067,45.6004168 C6.15443067,45.6004168 6.14468937,45.6795933 6.15443067,45.402647 C6.16428524,45.1356406 5.85052477,45.1157608 5.85052477,45.1157608 L5.51716842,45.0961095 L5.51716842,45.6398337 C5.51716842,45.6398337 5.42893037,45.7882467 5.36028819,45.73889 C5.28190471,45.6993589 5.32109645,45.4322382 5.34069232,45.2345827 C5.36028819,45.0466385 5.12502447,45.0563499 5.12502447,45.0563499 L5.1054286,45.6498879 C5.1054286,45.6498879 5.01719055,45.7586555 5.02693185,46.0256619 C5.03678642,46.3024939 4.91909792,46.2826141 4.91909792,46.2826141 C4.91909792,46.2826141 4.58585485,46.0058964 4.41912005,45.8476577 C4.25249851,45.689419 4.35047786,45.9366598 4.35047786,46.0256619 C4.35047786,46.1244897 4.61519202,46.3619049 4.69368878,46.401436 C4.76221769,46.450907 4.8015227,46.7276248 4.77207226,46.8365067 C4.74273509,46.9452744 4.82111857,47.2617518 4.82111857,47.2617518 C4.82111857,47.2617518 5.08583273,47.5089926 4.96814424,47.5682893 C4.86031031,47.6375259 4.84071444,47.8352957 4.84071444,47.8352957 C4.84071444,47.8352957 4.96814424,47.8650011 5.04652772,47.8055902 C5.11528317,47.7363536 5.29175928,47.627586 5.29175928,47.627586 C5.29175928,47.627586 5.49757255,47.6769427 5.5367643,47.8154159 C5.57606931,47.9540033 5.90931238,47.8154159 5.90931238,47.8154159 C5.90931238,47.8154159 6.23292742,47.726528 6.23292742,47.7957646 C6.23292742,47.8550612 6.53683332,47.9935344 6.6054755,48.0231256 C6.68385898,48.052831 6.9191227,48.2308353 6.9191227,48.2308353 C6.9191227,48.2308353 6.92897727,48.6758459 6.9191227,48.7549081 C6.9093814,48.8241447 6.83088465,49.0713855 6.70345485,49.1999188 C6.57602506,49.3285663 6.49764158,48.9230867 6.49764158,48.9230867 C6.49764158,48.9230867 6.44859527,48.6264892 6.4387407,48.3988996 C6.42888613,48.1813643 6.25252329,48.1418332 6.28186046,48.3297773 C6.32116547,48.5176072 6.17402654,48.9230867 6.17402654,48.9230867 C6.17402654,48.9230867 6.34064807,49.1703276 6.24266872,49.2691553 C6.15443067,49.3581575 6.07604718,49.6351038 5.98780913,49.7438714 C5.88971651,49.8624648 6.08578848,49.8328736 6.14468937,49.7339315 C6.19362241,49.6449294 6.3113109,49.6746349 6.3113109,49.6746349 L6.27211916,49.990998 L6.37009851,49.9811724 L6.55642919,49.9021101 C6.55642919,49.9021101 6.64466724,50.0108778 6.72305073,49.9218757 C6.81128878,49.8229337 6.92897727,49.8031681 6.92897727,49.8031681 C6.92897727,49.8031681 7.05640707,50.376712 7.06626164,50.4854797 C7.07600294,50.5943616 7.24273774,50.6536583 7.44855102,50.5646561 C7.66421887,50.4854797 7.72300648,50.6239528 7.78190736,50.6536583 C7.85054954,50.6832495 8.03676695,51.3062644 8.05636282,51.3656753 C8.07607196,51.4349119 8.21335633,51.6227418 7.8210991,52.2655222 C7.41921385,52.8983628 6.96816901,53.2939024 6.96816901,53.2939024 L6.55642919,53.3433734 C6.55642919,53.3433734 6.18388111,53.5807886 5.97795456,53.7983239 C5.76228671,54.0059194 5.68378996,53.8872118 5.64459822,53.8179752 C5.59555191,53.738913 5.37014276,53.6696764 5.19366665,53.689442 C5.01719055,53.7093218 4.84071444,53.9960937 4.84071444,53.9960937 L4.5073581,53.9960937 L4.15440589,53.7784441 C4.15440589,53.7784441 3.85049999,53.7191475 3.76226194,53.6203197 C3.68387845,53.5114377 3.46821061,53.4027843 3.46821061,53.4027843 C3.46821061,53.4027843 3.23283362,53.5114377 3.19364188,53.5708487 C3.14459556,53.639971 2.94852359,53.5313175 2.94852359,53.5313175 C2.94852359,53.5313175 2.87014011,53.5412574 2.64461769,53.8279151 C2.42894984,54.1146871 2.35045309,53.9564484 2.35045309,53.9564484 C2.35045309,53.9564484 2.32111592,53.639971 2.41920854,53.4818465 C2.51718789,53.3236078 2.31126135,52.8785972 2.31126135,52.8785972 C2.31126135,52.8785972 1.98775958,52.7302984 1.94856783,52.6512362 C1.90937609,52.5621198 1.93871326,52.4435265 1.98775958,52.2259911 C2.04666046,52.0182814 2.28192418,52.028107 2.28192418,52.028107 C2.28192418,52.028107 2.5662342,52.2160512 2.68380943,52.2160512 C2.79175662,52.2160512 2.83094836,52.2457567 2.81123922,52.4435265 C2.80149792,52.6313564 3.00742447,52.8885371 3.00742447,52.8885371 C3.00742447,52.8885371 3.2917345,52.7698295 3.35052211,52.6808274 C3.39956842,52.6017652 3.45835603,52.5918253 3.35052211,52.5325286 C3.23283362,52.4830576 3.21323775,52.7105328 3.08580795,52.6808274 C2.95837816,52.6512362 2.9975699,52.6115908 2.95837816,52.4830576 C2.92892772,52.3545243 3.19364188,52.3149932 3.19364188,52.3149932 L3.25254276,51.9985158 C3.25254276,51.9985158 3.37985928,51.7315094 3.34078081,51.6720985 C3.2917345,51.6128019 3.16419143,51.7908061 3.16419143,51.7908061 C3.16419143,51.7908061 2.95837816,51.8205116 2.91918642,51.7315094 C2.87999468,51.652333 2.80149792,51.6919783 2.80149792,51.6919783 L2.63476312,51.8600427 L2.59557138,51.701804 L2.55637963,51.0986689 L2.40935397,51.0986689 C2.40935397,51.0986689 2.41920854,51.3062644 2.43869114,51.3755009 C2.45828701,51.4545632 2.53678376,51.800746 2.53678376,51.800746 C2.53678376,51.800746 2.37016223,51.9490448 2.37016223,51.8106859 C2.37016223,51.6720985 2.07599763,51.3062644 2.07599763,51.3062644 C2.07599763,51.3062644 1.84062064,51.2963245 1.71330412,51.2864988 C1.58576105,51.2765589 1.50737757,51.1382 1.50737757,51.1382 L1.46807256,50.7722516 L1.78183303,50.762426 C1.78183303,50.762426 1.80154217,50.376712 1.74264129,50.2975355 C1.68385367,50.2086476 1.59561562,50.6141272 1.59561562,50.6141272 L1.46807256,50.6141272 C1.46807256,50.6141272 1.50737757,50.7426604 1.46807256,50.3173011 C1.43873539,49.8823446 0.909307068,49.8921702 0.821069015,49.8624648 C0.742685533,49.8328736 0.762281404,49.5954584 0.762281404,49.4767508 C0.762281404,49.3581575 1.04659143,49.2394499 1.04659143,49.2394499 C1.04659143,49.2394499 1.41913952,49.3581575 1.73289999,49.1999188 C2.04666046,49.0416801 1.75249586,49.0318544 1.75249586,49.0318544 C1.75249586,49.0318544 1.29170972,49.0614456 1.11523362,49.1109167 C0.938644239,49.1504478 0.870115327,48.8736157 0.870115327,48.8736157 L0.938644239,48.3100118 C0.938644239,48.3100118 0.693639221,47.8253558 0.634738338,47.7165881 C0.585805298,47.6177603 0.566096156,47.7957646 0.566096156,47.9736546 C0.566096156,48.1517731 0.487825945,48.1517731 0.419183762,48.052831 C0.350428309,47.9638289 0.105423291,47.3507539 0.0269265381,47.2122808 C-0.0613115149,47.0738076 0.0955687206,46.6882079 0.0955687206,46.6882079 C0.0955687206,46.6882079 0.36028288,46.5002638 0.389733321,46.401436 C0.419183762,46.3124339 0.370024179,46.0256619 0.370024179,46.0256619 C0.370024179,46.0256619 0.419183762,45.6201824 0.409329191,45.5608857 C0.399474621,45.5113005 0.330945709,45.1751718 0.213257215,45.0169331 C0.0858274208,44.8586944 0.37987875,44.4927459 0.37987875,44.4927459 C0.37987875,44.4927459 0.693639221,44.1071462 0.713235092,44.2555593 C0.732830962,44.3940324 0.987803821,44.5818623 0.919048368,44.5323913 C0.850519457,44.4927459 0.928902939,44.1863227 0.899452498,44.1368517 C0.870115327,44.0873807 1.03673686,43.8105486 1.04659143,43.7114924 C1.05633273,43.6226045 1.11523362,43.3357183 1.09552447,42.9401787 C1.07604187,42.5348134 1.21321297,42.6139899 1.21321297,42.6139899 L1.87007108,42.5941101 L2.50744659,42.5941101 C2.50744659,42.5941101 2.88973598,42.60405 2.63476312,42.4952823 C2.3897581,42.3865146 2.50744659,42.0898028 2.48773745,42.0206805 C2.47788288,41.9612695 2.70351857,41.7535598 2.70351857,41.7535598 L2.5759755,41.6844375 C2.5759755,41.6844375 2.5759755,41.5657299 2.62502182,41.3877257 C2.68380943,41.2097214 2.5662342,41.3184891 2.51718789,41.3382546 C2.45828701,41.3581345 2.0955935,41.3184891 1.977905,41.2886694 C1.87007108,41.2591924 1.94856783,41.0614226 1.88966695,41.0811882 C1.82113804,41.0910138 1.91911739,41.0614226 1.75249586,41.3481945 C1.58576105,41.6349665 1.43873539,41.3086634 1.43873539,41.3086634 L1.46807256,40.6856485 L1.29012393,40.684049 C1.29012393,40.6823352 1.12973229,40.4440061 1.08442392,40.394535 C1.03900228,40.3451783 1.00558736,40.3088462 1.00468119,40.294222 C1.00162287,40.247493 0.913498093,40.1558631 0.918708555,40.1098196 C0.925164998,40.0506372 1.0580318,39.9536375 1.0615432,39.8960546 C1.0775144,39.6345323 1.13256407,39.603113 1.1733416,39.4794926 C1.2840073,39.1442779 1.40101617,39.6332755 1.5056785,39.7113095 C1.57760554,39.7647793 1.67094079,39.7203354 1.77118556,39.7098242 C1.8166072,39.7050256 1.869618,39.7372446 1.9120946,39.7359879 C1.93293645,39.7354166 1.92829234,39.6439009 1.94720858,39.6369316 C2.05255055,39.5977432 2.07724361,39.6809185 2.10986564,39.6602389 C2.14248766,39.6395594 2.19776388,39.5033713 2.22959301,39.4799496 C2.28022511,39.4430463 2.40504967,39.6608102 2.45251019,39.618537 C2.51356322,39.5641532 2.51866042,39.2099727 2.57076504,39.1505618 C2.72549313,38.9743856 2.81429754,38.823002 2.8167895,38.6741319 C2.819508,38.5022973 2.81123922,38.2197526 2.85564143,38.0225541 C2.92462342,37.7151026 2.98182524,37.6385539 3.06190779,37.5171043 C3.13451445,37.4066228 3.24506688,37.3946264 3.30362795,37.3592083 C3.47919789,37.2531827 3.54817988,37.3622931 3.61263104,37.3792024 C3.68410499,37.3979397 3.82807234,37.4337005 3.8808566,37.4532375 C4.11000368,37.5373268 4.24230413,37.4600926 4.37551074,37.2895148 C4.46510804,37.1750345 4.54813563,37.1096825 4.64147088,37.0734647 C4.68258823,37.0575837 4.7333336,37.2598093 4.78000122,37.2536397 C4.82666885,37.2474701 4.95964892,37.1464715 5.01481186,37.1464715 C5.13453923,37.1464715 5.32574056,37.1337896 5.47865631,37.1220217 C5.51241105,37.1193939 5.49156919,37.3061955 5.52034001,37.3042532 C5.55579381,37.3016254 5.80317752,37.3761176 5.94952356,37.2639224 C6.07842587,37.1653231 6.05633804,37.078149 6.07774625,37.0420454 C6.28967615,36.6848944 6.47498739,37.1963996 6.55495667,37.2390155 C6.61159213,37.2692922 6.6728717,37.157554 6.69983019,37.178005 C6.8162727,37.2671214 7.06546874,37.2957986 7.14623091,37.1064834 C7.17047089,37.0499288 7.17103725,36.9699526 7.15597221,36.8692967 C7.14691054,36.8087433 7.0644493,36.8242816 7.0457596,36.7493324 C7.03726428,36.7155139 7.09548554,36.5964635 7.08563097,36.5597887 C7.08110013,36.5428794 7.07634275,36.5257417 7.0714721,36.5084897 C7.06286351,36.4770704 7.05425492,36.447365 7.04598614,36.419259 C7.02378504,36.3433959 6.81480018,36.3623617 6.79554412,36.3075208 C6.77628806,36.25268 6.94664754,36.123804 6.93044979,36.0863294 C6.77934638,35.7374045 6.76043013,36.0559384 6.82646708,35.5196406 C6.84708239,35.3518048 6.79429814,35.221215 6.80789065,35.1282141 C6.81808503,35.0584062 6.89329693,35.029729 6.90417094,34.9872274 C6.9366797,34.8597224 6.89544908,34.7992832 6.82352204,34.6660657 C6.79746973,34.6177372 6.60060485,34.5810623 6.57251366,34.540046 C6.52584604,34.4716092 6.67355133,34.3286802 6.66652853,34.2778382 C6.6576934,34.2146569 6.66947358,34.1614156 6.81593289,34.1254263 C6.94064418,34.0946926 6.9358868,34.3356495 6.97247331,34.3572431 C7.01053234,34.3797507 7.10284815,34.382607 7.15268736,34.316798 C7.18259088,34.2774954 7.24375718,34.1896358 7.27422706,34.1602731 C7.3212345,34.1151436 7.32157431,34.0288836 7.37877613,34.0055762 C7.47403698,33.9665021 7.62049629,34.0067187 7.62049629,34.0067187 L8.06791646,34.4705809 C8.06791646,34.4705809 8.13701172,34.4972015 8.10744801,34.5189094 C8.02985742,34.5756925 7.9220235,34.6204792 8.13667191,34.684803 C8.16181805,34.6923436 8.17824234,34.6232212 8.21369614,34.6168231 C8.26319554,34.6079115 8.30000859,34.6644661 8.34033304,34.6552117 C8.45790826,34.6279056 8.47750413,34.4147118 8.65975705,34.2539595 C8.69294544,34.2245968 8.66632677,34.1466771 8.71854467,34.1425641 C8.74969417,34.1401648 8.85492286,34.2050598 8.89105629,34.2087158 C8.98756312,34.218313 9.09845536,34.2475614 9.21093339,34.2698405 C9.27742343,34.2829795 9.10853647,34.5456443 9.16834352,34.5534134 C9.18816593,34.555927 9.28172772,34.5218799 9.37075867,34.5385607 C9.43985394,34.5516996 9.50362547,34.6224215 9.54666842,34.5914593 C9.58268858,34.5656384 9.6480459,34.4966303 9.70422828,34.4174538 C9.76041066,34.3381631 9.80764464,34.2485897 9.80764464,34.2115721 C9.80764464,34.1731835 9.76267608,34.1031472 9.7286948,34.0380237 C9.67919541,33.942852 9.63603918,33.849394 9.64985824,33.8089489 C9.67285224,33.7417689 9.67466457,33.7328572 9.72439051,33.6653344 C9.77151121,33.6012392 9.93360191,33.6755028 9.99454167,33.6186055 C10.0418889,33.5742758 10.0242187,33.3359466 10.0745109,33.3001858 C10.1638817,33.2365475 10.2541586,33.1887903 10.331636,33.1670825 C10.4503439,33.133721 10.5393748,33.3255497 10.6340693,33.3263494 C10.8762426,33.3286345 10.9636877,33.4035836 10.8271963,33.1368057 C10.7414502,32.9691984 10.690365,32.8525474 10.6568368,32.7654875 C10.6380338,32.7168163 10.5568186,32.7835393 10.5460578,32.7494923 C10.4665416,32.5019087 10.5647475,32.5780004 10.4341461,32.4098218 C10.4093398,32.3778313 10.2200641,32.4652339 10.1755486,32.3696051 C10.146438,32.3074522 10.2415856,32.0911736 10.2130413,32.0310771 C10.177814,31.9572705 10.2213101,31.7689836 10.2046592,31.7019178 C10.196617,31.668899 10.081647,31.5529335 9.99556111,31.4435946 C9.86983038,31.2839848 9.87266215,31.2024091 10.2960689,31.3480801 C10.4845517,31.4129751 10.5441322,31.3651036 10.5748286,31.243197 C10.5851363,31.2020663 10.4417353,31.1977247 10.4493244,31.1411701 C10.4552145,31.0969547 10.5832107,31.0974117 10.6128877,30.9131236 C10.6947825,30.406417 10.6822095,30.2072762 10.7662565,30.1539206 C10.8188142,30.1205591 10.8884758,30.1405531 10.9726361,30.1648888 C11.0297247,30.1814553 11.041165,30.4887925 11.1110532,30.4942766 C11.1378984,30.4962189 11.1246457,30.3884795 11.1698408,30.2913655 C11.2051814,30.2156166 11.2997626,30.1464942 11.3228698,30.1407816 C11.5878105,30.0746299 11.3850556,30.1422669 11.8504858,30.1756284 C11.986864,30.1820265 11.9049691,29.9527232 12.0061201,29.9029095 C12.101834,29.8557235 12.3719852,29.9482674 12.4896737,29.919476 C12.5796108,29.8975396 12.6009057,29.8225905 12.6003394,29.7531254 C12.5998863,29.6836603 12.5775719,29.6196793 12.5802904,29.6194508 C12.6468937,29.6147665 12.8712834,29.6694931 12.9795704,29.6400161 C13.054216,29.6196793 13.1255767,29.548272 13.2135882,29.5255359 C13.2822304,29.5078269 13.3700153,29.5402744 13.4198545,29.5139964 C13.6103762,29.4133406 13.6889863,29.2040314 13.6889863,29.2040314 C13.7006532,29.0980058 13.6748274,29.0157445 13.6778857,28.9327977 C13.6799246,28.8780711 13.4290295,28.7687322 13.4429618,28.728287 C13.4435282,28.7268018 13.9288941,28.6227184 13.9922125,28.6267172 C14.1873783,28.6348291 14.3756346,28.6392849 14.5436154,28.6422555 C14.6093126,28.6436265 14.6652684,28.6850999 14.7272276,28.6657913 C14.8732338,28.6202049 15.005421,28.4336317 15.1445177,28.3469146 C15.2298107,28.2939018 15.2522383,28.1878762 15.3322076,28.1201249 C15.4120636,28.0523736 15.5946564,28.0078154 15.6693019,27.9253256 C15.7079273,27.8807674 15.6210485,27.7747418 15.6861793,27.7047055 C15.8626554,27.5149333 16.1608977,27.2723768 16.3403189,27.0818048 C16.3807566,27.0389604 16.3022598,26.9304212 16.3277458,26.8940892 C16.3703357,26.8334215 16.4790758,26.7605288 16.4603861,26.7264818 C16.4191554,26.5808108 16.3481346,26.4539914 16.381323,26.3411106 C16.4145113,26.2282299 16.5540611,26.223774 16.6407134,26.1306589 C16.6948569,26.0723904 16.5998226,25.979161 16.6454708,25.9108384 C16.7043716,25.8229788 16.9028223,25.7613971 16.963309,25.7100981 C16.9790536,25.5996166 16.9940054,25.4526889 16.9520952,25.3650578 C16.9440529,25.3486055 17.0130349,25.2966209 16.9950248,25.2847388 C16.8982915,25.2201865 16.5989164,25.2511487 16.5302742,25.1683162 C16.3944624,25.0044792 16.4740918,24.719421 16.5418279,24.3950602 C16.5466985,24.3728954 16.6772999,24.359985 16.6780928,24.327766 C16.6788857,24.295547 16.5498701,24.2441337 16.5476047,24.2055166 C16.5411482,24.0975486 16.595405,23.9635313 16.5794338,23.860362 C16.5648219,23.7661043 16.4543827,23.7018948 16.4313887,23.6269456 C16.4017117,23.5304029 16.4595932,23.4209497 16.4523438,23.2615685 C16.4501917,23.2119832 16.2523074,23.2292352 16.2507216,23.1773649 C16.2489092,23.1254946 16.5025228,22.8483198 16.4742051,22.8036474 C16.3852874,22.6634605 16.2764341,22.5109343 16.4021648,22.39097 C16.5156623,22.2825451 16.5972173,22.1195078 16.5908742,21.9427603 C16.6176061,21.8887192 16.583285,21.5499627 16.7584019,21.3039787 C16.9035019,21.1001535 17.2510171,20.8873025 17.3087853,20.8156666 C17.4794846,20.6169828 17.5054236,20.4230975 17.6052153,20.1993926 C17.6612844,20.0734871 17.4960222,19.7270758 17.5781436,19.6285908 C17.6474654,19.5455297 17.8555441,19.5519278 18.0509364,19.5566121 C18.1533334,19.5590114 18.1666993,19.4616689 18.2404387,19.450358 C18.3039837,19.4408751 18.4696991,19.4193958 18.5607689,19.4145972 C18.6315632,19.4109411 18.692503,19.4448739 18.7416626,19.4112839 C18.7856117,19.3812357 18.7250117,19.2303091 18.7712263,19.206202 C18.8328457,19.173983 19.2023354,18.9924369 19.2170606,18.9579329 C19.2294072,18.9292557 19.2792464,18.934397 19.2835507,18.9115467 C19.3201372,18.7190324 19.3481151,18.7544505 19.2495694,18.7232597 C19.1818334,18.7018947 19.0969935,18.6918405 19.044549,18.6864707 C18.9455502,18.6763023 18.8449656,18.6776733 18.8483638,18.5765605 C18.8498363,18.5342873 18.9437379,18.5304028 18.9590295,18.4794465 C19.0046777,18.3269204 19.0046777,18.0924757 18.9730751,18.0664263 C18.8965039,17.9969613 19.0292574,17.7040197 19.3856078,17.6122756 C19.4292171,17.6010789 19.4988787,17.6991069 19.5492843,17.6946511 C19.613962,17.6890527 19.6016154,17.5301285 19.6776202,17.5385832 C19.9324798,17.5708022 20.2073884,17.8247838 20.3776346,17.8227273 C20.6266041,17.8196425 20.7206189,17.5284148 20.7671733,17.3346438 C20.7941318,17.2225628 20.6423487,17.1325324 20.6860713,17.0196516 C20.7066866,16.9667531 20.7131431,16.8539866 20.7896009,16.8241669 C20.8490682,16.8008595 20.9776307,16.8607274 21.0156897,16.8253094 C21.0715323,16.7730963 21.0992837,16.7074016 21.1219378,16.6513039 C21.1317924,16.6267398 21.024185,16.5713277 21.0130845,16.5325963 C20.9989256,16.4828968 21.0803674,16.4507921 21.1007562,16.4426802 C21.1239767,16.4327403 21.2524259,16.5135163 21.2873134,16.5020911 C21.5331113,16.4218864 21.8612572,16.1824147 21.6725478,15.7757926 C21.5422863,15.5010171 21.401717,15.2857668 21.3062296,14.8957113 C21.2562772,14.6914291 21.3528973,14.4174534 21.3464408,14.2295092 C21.3438356,14.1559311 21.2537852,14.0675002 21.2272798,13.9775841 C21.1800458,13.8174031 21.1920525,13.6523093 21.2475553,13.5567948 C21.2865205,13.489729 21.4743237,13.5647924 21.6091161,13.5477689 C21.6539714,13.5420563 21.66258,13.4767043 21.6984869,13.458424 C21.7781163,13.4169506 21.8544609,13.3714784 21.9274074,13.3234927 C21.9840429,13.2861324 21.9904993,13.14983 22.0428305,13.1099561 C22.1116992,13.0574003 22.2189668,13.1782787 22.2816056,13.1267512 C22.6904004,12.7893657 22.9141105,12.3183056 22.9141105,12.3212762 C22.9141105,12.3212762 22.9412955,12.2840301 22.9641762,12.228161 C22.9870569,12.1721776 23.0141287,12.0950577 22.9884162,12.0226221 C22.9607781,11.9447024 22.8648376,11.8983161 22.8284776,11.8130843 C22.8080889,11.7654413 22.8289307,11.7000893 22.8112605,11.6516466 C22.7478287,11.4783266 22.6544935,11.3311704 22.5603654,11.2885545 C22.3990676,11.2044652 22.3476426,11.0720474 22.3161532,10.9793892 C22.2765084,10.8628524 22.3982747,10.8284626 22.4180971,10.7609398 C22.4335019,10.7086125 22.4303303,10.6535431 22.4279516,10.5883054 L22.4066567,10.5128992 C22.4058638,10.4915341 22.4026922,10.4695978 22.3965756,10.4468617 L22.3490018,10.3797959 C22.285117,10.352147 22.2327858,10.3176429 22.2083193,10.2743415 C22.1887234,10.2446361 22.1495317,10.195165 22.1102267,10.1458083 C21.9926515,9.99739524 21.8063208,9.79962543 21.8063208,9.79962543 L21.768375,9.75906605 L21.7610124,9.63236084 C21.7610124,9.63236084 21.7529702,9.40180077 21.8330527,9.39643094 L21.9097371,9.31416967 C21.9547057,9.26195661 21.9485891,9.15924427 21.9775864,9.11422907 C22.0245939,9.0414507 21.8551406,8.84608017 21.9084912,8.77113101 C22.163464,8.41272322 22.2583851,8.57039066 22.5457534,8.44025789 C22.6748823,8.38164674 22.7238153,8.2498002 22.8161311,8.17793584 C22.8161311,8.17793584 23.0362165,7.85803089 23.1976276,7.73818078 C23.3219991,7.64563685 23.2587939,7.66745894 23.3531486,7.55812 C23.4198652,7.4806573 23.5415181,7.41187773 23.6974922,7.41416277 C23.7330593,7.41461978 23.7458589,7.46888936 23.7859568,7.47517321 C23.8873343,7.49116846 23.9343417,7.32893095 23.9733069,7.23204545 C24.0123854,7.13515995 24.0217869,7.0222792 23.9828217,6.8924892 C23.9593746,6.81605476 24.0515771,6.61142985 24.0214471,6.55133342 C23.9713813,6.45090611 23.7630761,6.44222298 23.7115378,6.36818783 C23.5741402,6.17087503 23.5011937,6.09021328 23.6298695,5.77499266 C23.6700806,5.67456535 23.7433669,5.61732522 23.7838046,5.51164233 C23.8081579,5.4482326 23.8001157,5.33638012 23.8234495,5.27411291 C23.9598277,4.90896426 24.0710597,4.58346097 24.0710597,4.52907713 C24.0710597,4.3427325 24.0710597,4.28617787 24.0915618,4.18586482 C24.1023225,4.13319475 24.1887482,4.09857647 24.2072114,4.06441519 C24.252633,3.98009739 24.1303004,3.90617649 24.2849152,3.86241807 C24.3670367,3.83922496 24.4035099,3.90857578 24.5073793,3.89440856 C24.8273697,3.85042163 24.7002797,4.00888883 24.8169488,4.08966483 C25.046549,4.24870329 25.2221189,4.15044677 25.3564582,4.03745177 C25.4917037,3.93508219 25.6266094,3.82574325 25.7602691,3.8388822 C25.9464865,3.85727674 25.9565676,4.20265983 26.0581716,4.25647241 C26.145277,4.30263013 26.2446156,4.36501159 26.2917363,4.29017668 C26.3651358,4.17352563 26.3806539,3.88549692 26.5547514,3.9291411 C26.6274713,3.94742138 26.5837487,4.13330901 26.6851262,4.20677289 C26.7294151,4.23887764 26.8187859,4.2332793 26.9033993,4.23442182 C26.969323,4.23522158 27.0004725,4.32079616 27.0375121,4.35015886 C27.1401355,4.43150612 27.3336023,4.37963582 27.4315816,4.42956384 C27.5575389,4.49388759 27.6154203,4.56712297 27.6965223,4.55341276 C27.9306533,4.52050825 28.1156248,4.34867359 28.3466974,4.41276883 C28.4947426,4.45378522 28.7136953,4.65361156 28.8061243,4.84555453 C28.8318368,4.89742483 29.0207727,4.87697376 29.0671006,5.00710653 C29.1031207,5.10821934 28.9929081,5.34849081 29.0395757,5.47553877 C29.0596247,5.53015112 29.0740101,5.63549125 29.1218104,5.69661594 C29.1696107,5.75774064 29.2507127,5.77487841 29.2764252,5.84719977 C29.3202611,5.97070593 29.2675901,6.12288929 29.3322678,6.21006339 C29.4056674,6.30923392 29.5486153,6.26090542 29.6046844,6.35573439 C29.6322092,6.40234911 29.6681161,6.89420297 29.6737796,6.89751627 C29.7794614,6.96092601 30.0175569,6.88746212 30.1294686,6.81331272 C30.2035478,6.76544123 30.3626934,6.84347519 30.4441352,6.81731153 C30.56862,6.77755192 30.6404337,6.66535668 30.7638991,6.64536262 C31.2362388,6.56927095 31.6895491,6.61142985 31.6249846,5.90843872 C31.6164893,5.81520928 31.4385407,5.94294276 31.4105628,5.82137887 C31.4063718,5.80229883 31.4084106,5.72700691 31.3703516,5.66816725 C31.088307,5.23161125 31.4235889,5.41132928 31.4935904,5.1703723 C31.5109208,5.11096138 31.6124116,5.03624073 31.60924,4.96871793 C31.603803,4.85480892 31.5265522,4.82898802 31.4584764,4.73952889 C31.3470178,4.59305812 31.1551368,4.40797026 31.1786972,4.25704367 C31.2090538,4.06292992 31.5604202,3.90891853 31.7818649,3.79729456 C31.8093897,3.78187057 31.86342,3.74519575 31.8334032,3.696753 C31.8152798,3.6676188 31.7268152,3.63414303 31.6964586,3.59849648 C31.6624773,3.55850836 31.5963271,3.43568771 31.4726353,3.34897062 C31.3489434,3.26236778 31.157289,3.24340199 31.1077896,3.24808631 C30.9116043,3.26693785 30.6736221,3.36793641 30.5279557,3.34965613 C30.4226137,3.33640293 30.2817047,3.35479746 30.2378689,3.23894617 C30.2037743,3.14891578 30.2087582,2.94554763 30.1992435,2.78867995 C30.1925605,2.70630443 30.1912012,2.63821037 30.1942596,2.58256976 C30.1973179,2.52692915 30.0737393,2.40879282 30.0807621,2.38491421 C30.1016039,2.31304984 30.2716236,2.44204009 30.3555574,2.47357358 C30.3918041,2.48716954 30.4254455,2.34938191 30.4696212,2.36480589 C30.5175348,2.3816009 30.5870831,2.74137972 30.6438319,2.73201108 C30.6720363,2.72732675 30.7373937,2.791879 30.7926699,2.75931725 C30.9136432,2.6881384 30.9196466,2.47083153 31.0103766,2.39176931 C31.074941,2.33567169 31.1156053,2.24049997 31.1879854,2.20793822 C31.2604788,2.17537646 31.3649146,2.20531043 31.3649146,2.20531043 C31.7347442,2.18531637 31.7882081,2.11927885 31.8808637,2.06181021 C31.898836,2.0506897 31.9385563,2.0300863 32.0000247,2 Z M35.4444781,34.2788552 C35.4748578,34.3418619 35.5122571,34.433487 35.6063883,34.4391415 C35.7223837,34.4459499 35.8702548,34.4129464 35.9521881,34.4608361 C36.0341214,34.5087257 36.2251455,34.5087257 36.2659971,34.4676445 C36.3069637,34.4265632 36.3770443,34.3973678 36.3907382,34.3221291 C36.396607,34.2891256 36.3442479,34.0306366 36.3509223,33.9712073 C36.3536841,33.9467431 36.3679533,33.9286258 36.3902779,33.9153552 C36.4281375,33.892622 36.4334309,34.1229541 36.575088,34.0995286 C36.7283676,34.0741413 36.6769292,33.8648114 36.7367681,33.8570798 C36.7786553,33.8516562 36.8185863,33.8455401 36.8528785,33.8381547 C36.8761237,33.8330773 36.8971823,33.8269612 36.9159395,33.8201528 C37.0234194,33.7814949 37.05518,33.7174496 37.0029361,33.6534044 C36.9414861,33.5781656 36.7709453,33.2770953 36.8187013,33.2358986 C36.8664574,33.1948174 36.9279073,33.092345 37.0097255,33.119694 C37.0916588,33.1469277 37.1871708,33.0718043 37.1189315,32.9622927 C37.0506921,32.8528965 37.01663,32.6407971 37.1189315,32.661107 C37.2213481,32.6818784 37.3236495,32.5859836 37.2486208,32.5175533 C37.1734769,32.4492384 36.5253757,32.2439474 36.5253757,32.1002783 C36.5253757,31.9564939 36.5185863,31.915528 36.5526484,31.8605991 C36.5867105,31.8060164 36.8700247,31.3100408 36.842752,31.111789 C36.8154792,30.9131911 36.8632353,30.7450579 36.7949959,30.6631261 C36.7267566,30.5809636 36.7948808,30.5042247 36.4887819,30.5170337 C36.1826829,30.5298428 35.9275621,30.5426518 35.8510374,30.4914156 C35.7745126,30.4402948 35.5648463,30.2401967 35.5892422,30.1671505 C35.613523,30.0939889 35.735157,30.2892404 35.8447082,30.3380532 C35.9542594,30.3866353 36.3313596,30.4112148 36.4409108,30.4233315 C36.5503469,30.4355636 36.818126,30.3866353 36.7329706,30.3013571 C36.6478153,30.2159634 36.5017853,29.8376926 36.2948808,29.6303244 C36.0880914,29.4229563 35.9907382,29.1911241 35.8082295,29.0569176 C35.6257209,28.9225956 35.4918889,28.910479 35.3580569,28.8373174 C35.2242249,28.763925 35.1999441,28.7152275 35.3702548,28.6786467 C35.5405655,28.6420659 35.6257209,28.6420659 35.747355,28.5444402 C35.8691041,28.4466991 36.1367681,28.4466991 36.0636956,28.4102337 C35.9907382,28.3736529 35.7960316,28.2272143 35.9907382,28.2027502 C36.1854447,28.1784014 36.538264,28.3247246 36.5991386,28.4833953 C36.6598981,28.6420659 36.5991386,28.7029955 36.805928,28.7274596 C37.0127174,28.7518083 37.1587474,28.7274596 37.2318199,28.7274596 C37.3047773,28.7274596 37.3777347,28.6664147 37.2439027,28.581021 C37.1101858,28.4956273 36.9640408,28.2759118 36.93976,28.2149822 C36.9154792,28.1539373 36.9640408,28.0441949 36.818126,27.9464538 C36.672096,27.8489435 36.5747428,28.0198462 36.4044321,27.7147369 C36.2341214,27.4097431 36.2341214,27.1533313 36.1610489,26.982544 C36.0880914,26.8118721 36.0758935,26.6043886 36.1610489,26.4580654 C36.2463193,26.3116268 36.3557554,26.1894215 36.2097255,25.945588 C36.0636956,25.7014083 35.9663423,25.4453427 35.7960316,25.4575748 C35.6257209,25.4696915 35.4432123,25.4086465 35.3823377,25.5062723 C35.3215782,25.603898 35.2364229,25.8724264 35.1268716,25.860079 C35.0173204,25.8478469 34.4455138,25.8845431 34.2994838,25.8478469 C34.153569,25.8113815 33.9344666,25.530621 33.9344666,25.530621 C33.9344666,25.530621 33.5510374,25.1492345 33.478195,24.95456 C33.4054677,24.7598855 33.413523,24.6949171 33.413523,24.5569025 C33.413523,24.4191187 33.4215782,24.3299169 33.3163998,24.1675536 C33.2113365,24.005421 33.0170903,23.7701268 33.162775,23.77832 C33.3083446,23.7863978 33.4944206,24.1271647 33.510531,24.2894126 C33.5267566,24.4515452 33.510531,24.7598855 33.6319349,24.9626378 C33.7532238,25.1655054 34.1578268,25.5467766 34.4085748,25.5872808 C34.6593227,25.6279005 34.7482756,25.6279005 34.885905,25.5303902 C35.0234194,25.4332261 35.2256058,25.2871337 35.1932698,25.2142029 C35.1608187,25.1411567 34.9991386,24.95456 35.201325,25.0195284 C35.4035115,25.0843814 35.6543745,25.2222806 35.8727865,25.2547072 C36.0911985,25.2871337 36.2206576,25.4006842 36.2610489,25.4900013 C36.3015552,25.5792031 36.325836,25.6359783 36.3985632,25.5142346 C36.4714056,25.3926064 36.6332008,25.1979319 36.8516127,25.100537 C37.0700247,25.0032575 37.2964919,24.9708309 37.4907382,24.8813984 C37.6848693,24.792312 37.8628901,24.5976376 38.0245701,24.5976376 C38.1864804,24.5976376 38.3077692,24.5895598 38.518126,24.6787615 C38.7283676,24.7679633 38.8174355,24.7761565 38.9630051,24.7761565 C39.1086898,24.7761565 39.1733619,24.7679633 39.302821,24.8329317 C39.4321651,24.8977847 39.5374585,24.889707 39.6426369,24.9057471 C39.7477002,24.9221335 39.6991386,25.0600327 39.5940753,25.0600327 C39.488897,25.0600327 39.270485,24.9221335 39.1167451,24.8813984 C38.9630051,24.8410095 38.7526484,24.873436 38.6879764,24.873436 C38.6233043,24.873436 38.5019004,24.7436146 38.3158245,24.7436146 C38.1297485,24.7436146 37.9356173,24.8329317 37.8061582,24.9057471 C37.6768141,24.9789087 37.3855598,25.0761883 37.2399902,25.1330789 C37.0943055,25.1897387 36.9648463,25.2953268 36.8273319,25.3195602 C36.6898176,25.3439089 36.7707151,25.3600645 36.6817623,25.4413038 C36.5926944,25.5224278 36.4552951,25.5548543 36.4714056,25.741451 C36.4876311,25.9279323 36.5442479,26.1470709 36.5926944,26.3336676 C36.641256,26.5202643 36.7140983,26.7067456 36.7383791,26.8284892 C36.7626599,26.9502329 36.7546047,27.1286364 36.8111064,27.1449074 C36.8678383,27.1610629 36.9730166,27.0394346 37.0134079,27.1936048 C37.0537991,27.3476596 37.1023607,27.6558846 37.1752031,27.8749078 C37.2480454,28.0940463 37.3775046,28.2156746 37.5230742,28.2400233 C37.6686438,28.2643721 37.8386093,28.2479857 37.7253757,28.3861157 C37.612027,28.5238996 37.7334309,28.6375654 37.8952261,28.6456432 C38.0570212,28.653721 38.1945356,28.4671243 38.299714,28.4671243 C38.4048924,28.4671243 38.615134,28.442891 38.6394148,28.669992 C38.6636956,28.8970929 38.7040868,28.9782169 38.7063883,28.9724471 C38.6814171,29.075958 38.8315897,29.5755109 38.8861352,29.630209 C38.9406806,29.6847917 39.1386093,29.924471 39.1521881,29.9586284 C39.165882,29.9926705 39.2204275,30.3007801 39.3978728,30.4171001 C39.5752031,30.5334201 39.8345817,30.6497401 39.8754332,30.7249788 C39.9163998,30.8001022 39.9505771,30.9165376 39.8686438,31.01901 C39.7868256,31.1218286 39.636653,31.2654976 39.6911985,31.3682008 C39.745859,31.4707886 40.0665724,31.4297073 40.1006346,31.3682008 C40.1346967,31.3065789 40.2112215,31.0284725 40.2959165,30.983237 C40.3806116,30.9380014 40.71663,30.8913811 40.921233,30.9733128 C41.125836,31.05536 41.2076542,31.2112611 41.2076542,31.2112611 C41.2076542,31.2112611 41.3768141,31.2609972 41.4634654,31.1205592 C41.5501168,30.980352 41.6030512,30.9223074 41.6799211,30.8980741 C41.7569062,30.8738408 41.9108762,30.8691095 41.9541444,30.8594162 C41.9975276,30.8497228 42.0600132,30.8642628 42.1081145,30.7625982 C42.1562157,30.6609336 42.3534539,30.578771 42.4737071,30.5835023 C42.5939603,30.588349 42.7575966,30.5835023 42.8200822,30.6367003 C42.8826829,30.6900136 43.0221536,30.7577515 43.0174355,30.7237095 C43.0149039,30.7068615 43.0233043,30.6838976 43.0345817,30.6705115 C43.0367681,30.6758198 43.0379188,30.6541252 43.0528785,30.6188138 C43.0677232,30.5833869 43.0962617,30.5342279 43.1508072,30.4794144 C43.259783,30.369672 43.3794608,30.2727386 43.4869407,30.2727386 C43.7163998,30.2727386 44.0467796,30.2174636 44.1292882,30.1714202 C44.2119119,30.1252615 44.5238797,29.9138545 44.7533388,30.0518691 C44.9826829,30.1897683 44.9183561,30.180652 45.0284827,30.2727386 C45.1387243,30.3645945 45.221233,30.4750293 45.3038567,30.4750293 C45.3864804,30.4750293 45.4964919,30.6039276 45.487401,30.7787538 C45.478195,30.95358 45.478195,31.2112611 45.5239948,31.3675084 C45.5699096,31.5241019 45.6616242,31.6896964 45.7534539,31.5609135 C45.8451685,31.4320153 46.0470097,31.2571891 46.2122571,31.2571891 C46.3773895,31.2571891 46.7260661,31.1376379 46.7168601,31.0454359 C46.7077692,30.95358 46.5792307,30.7143623 46.3865955,30.6222757 C46.1938452,30.5303044 45.8635805,30.4473341 45.7717508,30.5117255 C45.6800362,30.5762323 45.468989,30.3186666 45.6800362,30.2727386 C45.8910834,30.2266953 46.1846392,30.1438404 46.2580569,30.0058258 C46.3315897,29.8676957 46.505813,29.6008982 46.3223837,29.6008982 C46.1388394,29.6008982 45.5056979,29.6745214 45.5699096,29.5642021 C45.6341214,29.4537673 45.8268716,29.3525643 45.8360776,29.2604776 C45.8451685,29.1685063 45.8543745,29.0948831 45.9369982,29.0948831 C46.0195069,29.0948831 46.2580569,29.1316947 46.1846392,29.0580715 C46.1113365,28.9844483 45.7809568,28.735999 45.9001743,28.7267672 C45.9734769,28.7211128 46.2684136,28.6529132 46.5657669,28.5585186 C46.6175506,28.5420169 46.6695644,28.5248227 46.7203124,28.5068208 C46.7837186,28.4846646 46.8455138,28.4613545 46.9032813,28.4376981 C46.9465494,28.4198116 47.065882,28.3613054 47.1218084,28.3336102 C47.1405655,28.324263 47.1595529,28.3144543 47.1785402,28.304761 C47.4497715,28.1659386 47.5634654,28.1315503 47.6619695,28.1563606 C47.772096,28.1839405 48.0932698,28.1747087 48.1299787,28.0549268 C48.1666875,27.9354911 48.1116818,27.6776946 48.2126024,27.7514331 C48.313523,27.8250563 48.6439027,27.9354911 48.5979879,28.0827375 C48.552073,28.2298684 48.1666875,28.5243612 48.047355,28.5886372 C47.9281375,28.653144 47.7355023,28.7728105 47.8180109,28.9568685 C47.9006346,29.1408111 47.9097255,29.1316947 47.8547197,29.2788257 C47.7995989,29.426072 47.8272169,30.1438404 48.0107612,30.2082318 C48.1941904,30.2727386 48.2860201,30.2450434 48.5703699,30.1714202 C48.8549499,30.097797 49.075088,30.0334056 49.1117968,30.1714202 C49.1485057,30.3094348 49.2586323,30.6407391 49.3687589,30.6130439 C49.4788855,30.5855795 49.5338912,30.5486525 49.5338912,30.4291014 C49.5338912,30.3094348 49.4879764,29.7849562 49.5613941,29.711333 C49.6348118,29.6377098 49.9559856,29.2880574 49.9192767,29.1776226 C49.8825678,29.0671879 49.7174355,28.9200569 49.4329706,28.8740136 C49.1485057,28.8279702 49.0199672,28.6716075 49.0291731,28.5243612 C49.0383791,28.3771148 49.0291731,28.2851435 49.1668026,28.4046946 C49.3045471,28.5243612 49.5613941,28.6347959 49.6073089,28.5796362 C49.6532238,28.5243612 49.7082295,28.3955783 49.8183561,28.5151294 C49.9284827,28.6347959 50.0661121,29.1685063 50.2496565,29.0764196 C50.4330857,28.9844483 50.5432123,28.9107098 50.5432123,28.8188539 C50.5432123,28.7267672 50.5983331,28.5704045 50.6625448,28.5427092 C50.7267566,28.5151294 50.7450535,28.450738 50.6992537,28.3863465 C50.6533388,28.3218397 50.5983331,28.2665646 50.6717508,28.2115203 C50.7450535,28.1563606 50.7175506,28.0735057 50.6349269,27.9997671 C50.5524182,27.9262593 50.3505771,27.7328542 50.5249154,27.7881293 C50.6992537,27.8434044 50.882798,28.0549268 50.9837186,28.0459259 C51.0846392,28.0366941 51.2497715,28.0089989 51.3323952,27.981419 C51.4150189,27.9538392 51.6260661,27.9538392 51.6993688,28.0182306 C51.7727865,28.0827375 52.0756634,28.2483319 52.0756634,28.1378971 C52.0756634,28.0274624 51.9379188,27.6776946 52.0664574,27.6594619 C52.1948808,27.6409984 52.405928,27.5858387 52.4518429,27.6409984 C52.4977577,27.6962734 52.6444781,27.742086 52.7180109,27.594955 C52.7913135,27.4478241 52.7546047,27.3005777 52.9656519,27.2178382 C53.176699,27.1349832 53.3510374,27.06136 53.3510374,27.1901429 C53.3510374,27.3189258 53.1491962,27.5213318 53.0482756,27.6041868 C52.947355,27.6869263 52.5527635,27.9079112 52.5160546,27.9723027 C52.4793458,28.0366941 52.3784252,28.2942599 52.5160546,28.2115203 C52.6536841,28.1286654 53.1307842,28.0089989 53.2226139,28.0274624 C53.3143285,28.0459259 53.5253757,28.119549 53.5712905,28.1471289 C53.6172054,28.1747087 53.70892,28.1471289 54.0024758,28.1747087 C54.2961467,28.2022886 54.4979879,28.2759118 54.4337761,28.3587667 C54.3695644,28.4415062 54.2778498,28.5796362 54.0024758,28.4967813 C53.7272169,28.4139264 53.5253757,28.4782024 53.5895874,28.6255642 C53.6539142,28.7728105 53.6355023,29.0764196 54.0483906,29.0764196 C54.4613941,29.0764196 54.9477002,28.9936801 55.0669177,29.0212599 C55.1862502,29.0488398 55.4707151,29.1223476 55.5441329,29.2697093 C55.6175506,29.4169557 55.75518,29.5733184 55.7918889,29.4444201 C55.8285978,29.3157527 55.6358475,29.0304917 55.7184712,28.8924771 C55.8009798,28.754347 56.1221536,28.3679984 56.0396449,28.3771148 C55.9570212,28.3863465 55.8468947,28.4415062 55.7367681,28.4415062 C55.6266415,28.4415062 55.6266415,28.4599697 55.6175506,28.5611727 C55.6083446,28.6623758 55.6266415,28.8464337 55.4707151,28.7728105 C55.3146737,28.6991874 55.1587474,28.4782024 55.241256,28.3679984 C55.3238797,28.2575637 55.498218,28.0089989 55.5716357,27.8342881 C55.6450535,27.6594619 55.6358475,27.6226503 55.7092652,27.5397953 C55.7826829,27.4569404 55.9754332,27.254419 55.8653066,27.3005777 C55.75518,27.346621 55.6542594,27.429476 55.5808417,27.4660568 C55.507424,27.5029837 55.2688739,27.6134185 55.2321651,27.355622 C55.1953411,27.0980562 55.3972974,26.8864184 55.4248003,26.9876215 C55.4523032,27.0889399 55.4432123,27.3189258 55.5899326,27.2729978 C55.7367681,27.2269545 56.2414861,27.0521283 56.3424067,27.0062004 L56.3276772,26.9968532 C56.3276772,26.9968532 56.6529936,26.7187468 56.7199672,26.6514705 C56.7869407,26.5843095 56.9399902,26.3780954 57.2222687,26.4020979 C57.5045471,26.4261005 57.7771593,26.4405251 57.4471248,26.5364198 C57.1169752,26.6323146 56.8825678,26.7906391 56.7916588,26.8289508 C56.7008647,26.867378 56.452073,26.9968532 56.5955713,27.049705 C56.7390696,27.1024413 57.4231892,27.4575174 57.5953411,27.4766733 C57.7676081,27.4958291 57.9829131,27.4766733 58.0403354,27.5726834 C58.0977577,27.6685782 58.1791156,27.8123627 58.1694493,27.8987949 C58.1598981,27.9851117 58.1503469,28.2298684 58.0738222,28.129127 C57.9972974,28.0283855 57.9589775,27.7597417 57.8968371,27.7980535 C57.8345817,27.8364806 57.8106461,27.8364806 57.8201973,27.93226 C57.8298636,28.0283855 57.9207727,28.311454 57.9733619,28.3210319 C58.025951,28.3306099 58.1791156,28.3497657 58.2268716,28.2970294 C58.2747428,28.244293 58.4373434,27.8604831 58.5856749,27.8557519 C58.7340063,27.8509052 58.9588624,27.8269027 59.1453987,27.7645884 C59.33205,27.7021587 59.6620845,27.5582588 59.7481605,27.4958291 C59.8343515,27.4335148 60.0496565,27.2703437 60.1070788,27.289615 C60.164386,27.3087709 60.4275621,27.3087709 60.3940753,27.2416099 C60.3605886,27.1744489 60.0639257,27.040127 60.1548348,27.040127 C60.2457439,27.040127 60.5710604,26.9775819 60.5806116,26.9585415 C60.5901628,26.9392702 60.6475851,26.9248456 60.5184712,26.8145262 C60.3892422,26.7043222 59.9108762,26.4212538 60.0399902,26.4165225 C60.1692192,26.4116759 60.2266415,26.3540928 60.3414861,26.4261005 C60.4562157,26.4979927 60.642867,26.6035808 60.7098406,26.6275833 C60.7768141,26.6514705 61.0447082,26.6562018 61.0063883,26.7473653 C60.9681835,26.8385288 60.9537991,26.8818026 60.7815322,26.9968532 C60.6093803,27.1121347 60.5615092,27.2176074 60.5806116,27.2944617 C60.5998291,27.3710852 60.7098406,27.4862512 60.8724413,27.4286682 C61.035157,27.3710852 61.2838337,27.1888736 61.3174355,27.0977101 C61.3508072,27.0064312 61.6952261,26.574847 61.7958014,26.4884147 C61.8962617,26.4020979 62.2646162,26.15261 62.3315897,26.1190295 C62.3985632,26.085449 62.4990235,25.9751296 62.4224988,25.9270091 C62.3459741,25.8791194 62.255065,25.7926872 62.3746277,25.7926872 C62.4941904,25.7926872 62.5372284,25.7544909 62.6569062,25.8694261 C62.7764689,25.9847076 62.9726714,26.2245022 63.1543745,26.267776 C63.3361927,26.3109344 63.5849844,26.1717658 63.6519579,26.1094515 C63.7189315,26.0471372 63.8959165,26.0038634 64.0107612,26.0518685 C64.1256058,26.0998736 64.2930397,26.1046049 64.3456288,26.0087101 C64.3983331,25.9125845 64.5417163,25.7016391 64.4795759,25.6440561 C64.4174355,25.5863577 64.2930397,25.3658343 64.3935,25.3754123 C64.4939603,25.3849902 64.6421766,25.4522665 64.6948808,25.4905783 C64.74747,25.52889 64.8958014,25.4665758 64.9580569,25.4138394 C65.0201973,25.3609876 65.0344666,25.2267811 64.9915437,25.0540321 C64.9483906,24.8811676 64.8814171,24.799582 64.8623147,24.4638926 C64.8432123,24.1280878 64.8479303,24.0130372 64.9676081,23.8930245 C65.0871708,23.7731272 65.3694493,23.6339586 65.3502318,23.5187925 C65.3311294,23.4037419 65.3215782,23.1782565 65.1971823,23.2309928 C65.0727865,23.2837292 64.7762387,23.4996367 64.7044321,23.3844706 C64.6326254,23.26942 64.484409,23.0295099 64.5895874,23.0295099 C64.6948808,23.0295099 64.9867105,23.019932 65.0680684,23.019932 C65.1493112,23.019932 65.5033964,22.9671957 65.53205,23.1686785 C65.5608187,23.3701614 65.5464344,23.7443934 65.6229591,23.7443934 C65.6994838,23.7443934 65.6421766,23.8258635 65.8478153,23.6052248 C66.053569,23.3844706 66.2496565,23.1638319 66.3788855,23.1302514 C66.5079994,23.0966709 66.5319349,23.077515 66.5607036,23.0630904 C66.5893573,23.0486658 66.6849844,22.9815049 66.7663423,23.0486658 C66.8477002,23.1158268 67.058172,23.3030004 67.1060431,23.2885758 C67.1539142,23.2741512 67.278195,23.2309928 67.2495414,23.1829877 C67.2208878,23.1349827 66.9529936,22.8136025 66.8524182,22.7417102 C66.7519579,22.6697026 66.6754332,22.5545366 66.7137531,22.5066469 C66.7519579,22.4586418 66.8572514,22.4154834 66.8093803,22.2907394 C66.8005195,22.2673138 66.7862502,22.2441191 66.7729016,22.2144621 C66.5963768,22.1778813 66.0371133,22.057407 65.9169752,22.036174 C65.779691,22.0119406 65.6019004,22.2629288 65.4808417,22.3277818 C65.3595529,22.3926348 65.3192767,22.3035484 65.2949959,22.2306176 C65.2708302,22.1576868 65.2465494,22.1415313 65.0849844,22.1091048 C64.9234194,22.0766783 64.8587474,21.9065833 64.8265264,21.7769927 C64.7994838,21.668635 64.7386093,21.3451777 64.7192767,21.2418975 C64.7137531,21.211779 64.7050074,21.2120098 64.7311294,21.2055475 C64.8811869,21.3079045 65.1359626,21.4900007 65.2303239,21.6068977 C65.3676081,21.7769927 65.5695644,21.8417303 65.6665724,21.8255747 C65.7150189,21.8173816 65.779691,21.7891093 65.8493112,21.7708766 C65.9190466,21.7527593 65.9937301,21.7445662 66.0587474,21.7776851 C66.0432123,21.7544903 66.1600132,21.7537979 66.2208878,21.7484897 C66.4158245,21.7317571 66.4937301,21.6815595 66.6718659,21.7484897 C66.8501168,21.8155352 66.9837186,21.9105068 67.1396449,21.7317571 C67.2955713,21.5531228 67.6631202,20.9221329 67.7298636,20.7602311 C67.796722,20.598214 67.913638,20.3022211 67.913638,20.1627063 C67.913638,20.0230761 67.8691041,19.6154945 67.9526484,19.4758643 C68.0361927,19.3363496 68.0083446,18.9510395 68.0974125,18.8672614 C68.1864804,18.7834833 68.4203124,18.632775 68.4092652,18.7443638 C68.4045471,18.7910995 68.3998291,18.8710695 68.4069637,18.9483854 C68.4142134,19.0254705 68.4172054,19.0592818 68.4308993,19.0860538 C68.4445932,19.1129413 68.4743975,19.1443292 68.4949959,19.153561 C68.5184712,19.1640621 68.5758935,19.1571383 68.6030512,19.1548303 C68.73205,19.1442138 68.8633504,19.1057867 68.9493112,19.0962087 C69.0495414,19.0850152 69.3056979,18.9677721 69.3837186,19.0291632 C69.4299787,19.0656286 69.6155943,19.2596107 69.770485,19.4076648 L69.750462,19.3905861 C69.750462,19.3905861 69.7707151,19.3296565 69.7639257,19.5191381 C69.7572514,19.7085044 69.7302088,19.7558171 69.8246852,19.7151974 C69.9190466,19.6745777 69.9932698,19.5799523 69.9932698,19.5799523 C70.0462042,19.5652969 70.1131777,19.4982513 70.1855598,19.4256667 C70.2578268,19.3530821 70.6477002,19.0012371 70.6994838,19.0268552 C70.8132928,18.9079965 70.961279,18.7921381 71.0000592,18.8016006 C70.9987934,18.7994081 70.9838337,18.7724052 70.9420615,18.736286 C70.9001743,18.7002822 70.718241,18.670279 70.6585172,18.67928 C70.5987934,18.6882809 70.5540293,18.6822803 70.5361927,18.6552774 C70.518241,18.6282746 70.5321651,18.5976944 70.3679533,18.5358417 C70.2036265,18.473989 69.967493,18.3734783 69.8578268,18.2398488 C69.8053527,18.1760344 69.827447,17.9075059 69.7573665,17.6590565 C69.693615,17.4329941 69.5365379,17.2281647 69.502821,17.1222304 C69.464271,17.0012946 69.6340063,17.0443376 69.6016703,16.9250172 C69.5803814,16.8465474 69.4798061,16.8660495 69.4723262,16.7901183 C69.4679533,16.7453444 69.3094953,16.5331296 69.2033964,16.4947024 C69.1208878,16.4650454 69.098218,16.6099839 69.0222687,16.570749 C68.9594378,16.5384378 68.9768141,16.5005877 68.9276772,16.4544289 C68.8899326,16.4190021 69.0442479,16.4220024 69.0618544,16.358765 C69.0829131,16.2836416 68.9556403,16.1279713 68.8717508,16.1234708 C68.7554102,16.1172394 68.8632353,16.0072662 68.8211179,15.9260268 C68.7900477,15.8659051 69.0221536,15.846403 68.9994838,15.7905509 C68.9445932,15.6551904 69.0396449,15.5352931 69.012027,15.4493225 C68.9806116,15.3519276 69.0056979,15.2723037 69.0056979,15.2723037 C68.9649614,15.1967188 69.0650765,15.1543682 69.0199672,15.0942464 C68.988897,15.0529343 68.8818774,15.0222388 68.870485,15.0041215 C68.8091501,14.9052264 68.7540293,14.869915 68.7163998,14.803908 C68.6891271,14.7561337 68.7911985,14.68528 68.7635805,14.585808 C68.7468947,14.5261478 68.6280224,14.4870283 68.596722,14.4204443 C68.521233,14.2599273 68.470485,14.0950252 68.4976426,14.0030539 C68.5645011,13.7765299 68.6313596,13.541582 68.7903929,13.4409559 C68.8847543,13.3811804 68.9968371,13.3214048 69.0617393,13.2459353 L69.1180109,13.0719168 C69.0529936,12.993447 68.922729,12.9606743 68.8317048,12.8822044 C68.7405655,12.8036192 68.5880914,12.8158513 68.5880914,12.8158513 C68.5880914,12.8158513 68.6490811,12.5211277 68.5784252,12.4582365 C68.5078843,12.3953452 68.5785402,12.2438291 68.5198521,12.1413567 C68.5114516,12.1268167 68.436653,12.1826688 68.4251455,12.1648977 C68.3561006,12.0579248 68.4275621,11.8918688 68.4042019,11.7662016 C68.3963768,11.7243126 68.3093803,11.7334289 68.2968371,11.7061953 C68.2466645,11.5971453 68.2198521,11.3762757 68.1701398,11.2136816 C68.1203124,11.050972 68.0092652,11.0581266 67.9821075,11.030893 C67.9533388,11.0020438 67.8870558,10.855836 67.7902779,10.7349001 C67.7239948,10.6521606 67.60892,10.629889 67.6185863,10.4720261 C67.6215782,10.4233286 67.8084597,10.439138 67.8100707,10.3630915 C67.8123722,10.2588881 67.6272169,10.0622519 67.6070788,10.024748 C67.5650765,9.9465089 67.4635805,10.0782921 67.376699,10.0298254 C67.2935,9.98332049 67.1937301,9.9392389 67.0854447,9.87657841 C66.9870558,9.81968777 67.0239948,9.69759792 66.9891271,9.62616728 C66.9122571,9.46911218 66.8620845,9.33086677 66.9037416,9.07191627 C66.964271,8.69526099 67.3498866,8.67079686 67.3015552,8.31849031 C67.2803814,8.16455093 67.168989,8.09715918 67.0479303,8.09889013 C66.9076542,8.10085188 66.8478153,8.21809507 66.7886668,8.29367999 C66.7532238,8.33891555 66.5357324,8.19593887 66.4833734,8.23009634 C66.2676081,8.37064968 66.0483906,8.3592254 65.9949959,8.3699573 C65.7994838,8.40919223 65.7731317,8.49297033 65.5732468,8.52355049 C65.5280224,8.5304743 65.3908532,8.38969016 65.3455138,8.40365318 C65.3000592,8.4175008 65.2941904,8.50116351 65.2510374,8.52493526 C65.1746277,8.5671705 65.1033964,8.62740765 65.0432123,8.71395528 C64.7645011,9.11495929 64.5410258,8.84377672 64.5410258,8.84377672 C64.5410258,8.84377672 64.43205,8.56428558 64.4562157,8.43077144 C64.4706001,8.35149381 64.3941904,7.98637822 64.2716357,7.83059249 C64.1877462,7.7240812 63.9466645,7.83163106 63.9466645,7.83163106 C63.8880914,7.77924089 63.7107612,7.6511504 63.5668026,7.47528562 C63.533546,7.43466594 63.6868256,7.33450148 63.650462,7.29503576 C63.541256,7.176754 63.4601283,7.11097781 63.3512675,7.07174288 C63.0483906,6.96234668 63.2261812,6.72209047 63.2261812,6.72209047 C63.2261812,6.72209047 63.2699096,6.78348158 63.3902779,6.59861585 C63.4006346,6.58269109 63.5594378,6.5530341 63.5668026,6.53618616 C63.5790005,6.50826013 63.4435575,6.43336758 63.4449384,6.4034798 C63.4494263,6.30793122 63.4027059,6.22346073 63.3425218,6.1882647 C63.2422917,6.12952771 63.0979879,6.21930644 63.0979879,6.21930644 L62.9183561,6.36378329 L62.8894723,6.66300728 L62.5902779,6.85121953 C62.5902779,6.85121953 62.0509223,7.2135656 61.8547197,6.97169382 C61.8297485,6.94099827 62.0295184,6.77113412 62.0129476,6.72405221 C62.0006346,6.68920237 61.8369982,6.73316856 61.8219234,6.69970348 C61.7402203,6.51853044 61.6220385,6.36193694 61.509035,6.28035137 C61.2977577,6.12791215 61.3388394,6.40740329 61.0795759,6.51726108 C60.970485,6.56353521 60.7922341,6.46406314 60.6618544,6.51864584 C60.6100707,6.54034045 60.6025909,6.59757728 60.5505771,6.59503855 C60.4465494,6.5896149 60.3457439,6.50110552 60.2640408,6.45483139 C60.0536841,6.33574185 59.9386093,6.10033231 59.8977577,6.01840055 C59.8749729,5.97247261 59.6306691,6.08059945 59.5249154,5.9983215 C59.4525333,5.94200784 59.5739372,5.86861546 59.4794608,5.83307323 C59.2739372,5.75564195 59.0809568,5.83434259 59.0809568,5.83434259 C59.0809568,5.83434259 58.8802663,5.79960815 58.7981029,5.76591227 C58.7160546,5.732101 58.687401,5.64670734 58.6533388,5.71098338 C58.5854447,5.83953545 58.5070788,5.92781403 58.6524182,6.12214231 C58.6755483,6.15295326 58.8402203,6.20384327 58.8399902,6.23223089 C58.8395299,6.28969852 58.7609338,6.26511899 58.6806116,6.30066121 C58.5471248,6.35985979 58.3810719,6.45702393 58.3621996,6.43163663 C58.3406806,6.40267202 58.3970673,6.19968898 58.3521881,6.15699215 C58.3214631,6.12802755 58.2410258,6.13979802 58.2042019,6.09790897 C58.0223837,5.89134863 57.8406806,6.06144357 57.8406806,6.06144357 C57.8104159,6.15687676 57.8977577,6.40590313 57.8582871,6.48275742 C57.8276772,6.54241759 57.668989,6.43025186 57.6475851,6.49729743 C57.6404505,6.51968441 57.7315897,6.70351157 57.7245701,6.72578316 C57.7130627,6.76294095 57.6291731,6.7426311 57.6184712,6.7792119 C57.5788855,6.91261064 57.555065,6.98565684 57.5303239,7.11582447 C57.5126024,7.20906512 57.5613941,7.27853402 57.5409108,7.37812149 C57.4946507,7.6039531 57.3680684,7.66788294 57.4165149,7.68957755 C57.4778498,7.7168112 57.5465494,7.92025583 57.648966,8.08838902 C57.6737071,8.1291241 57.8418314,8.04880791 57.8619695,8.08319616 C57.8740523,8.1038522 57.859668,8.29933444 57.8534539,8.3264527 C57.8472399,8.35368635 57.7480454,8.37134207 57.6578268,8.38992096 C57.5783101,8.40630731 57.5056979,8.42338604 57.5100707,8.44842715 C57.5223837,8.52020399 57.6165149,8.53970605 57.6712905,8.60686701 C57.7624298,8.71880194 57.8360776,8.87101037 57.9134079,8.94105625 C58.0716357,9.08437912 58.2001743,9.26947565 58.2460891,9.38544947 C58.261279,9.42422281 58.3449384,9.48642171 58.3401052,9.50557758 C58.3323952,9.53546536 58.2055828,9.51723266 58.1582871,9.52254092 C58.1111064,9.52796457 58.0656519,9.52577203 58.0656519,9.52577203 C57.9921191,9.54181219 57.8456288,9.4756898 57.7465494,9.49957695 C57.4958014,9.56004489 57.268989,9.71986951 57.2327405,9.73060141 C56.7907382,9.86215381 56.6162848,9.6944822 56.7975276,9.47130472 C56.8493112,9.40749027 56.7823377,9.32659709 56.7008647,9.23612597 C56.5147888,9.02956563 56.2048924,9.00163959 55.9625448,8.92882419 C55.9238797,8.9172845 55.8121421,9.05726087 55.7734769,9.03718182 C55.6577117,8.97729086 55.6195069,8.72457179 55.5426369,8.59728907 C55.4923492,8.51408795 55.6409108,8.39799874 55.3947658,8.28317888 C55.3470097,8.26090729 55.2650765,8.22155697 55.2682986,8.15035712 C55.2754332,7.99399441 55.1439027,8.07488759 55.0925794,7.98672441 C54.962775,7.76343153 54.6783101,7.53159928 54.6783101,7.53159928 C54.4494263,7.47643959 54.5349269,7.49974975 54.4198521,7.388738 C54.3508072,7.32215402 54.238149,7.26214766 54.1829131,7.25695481 C54.1150189,7.25049258 54.0357324,7.45474499 53.9717508,7.45624515 C53.8076542,7.45982245 53.7472399,7.49178737 53.742752,7.60106818 C53.7306691,7.89267598 53.7053527,7.82505344 53.7053527,7.82505344 C53.5792307,7.7862801 53.0941904,7.59933722 52.9986783,7.6294558 C52.9025909,7.65968977 52.8742825,7.86463455 52.7798061,7.88794471 C52.5613941,7.94218123 52.4091501,7.93698837 52.3941904,7.94425837 C52.3068486,7.98660901 52.161279,8.14781839 52.0357324,8.21659491 L52.0374585,8.29206444 C51.7010949,8.37861207 51.5981029,8.39511381 51.5411409,8.42984826 C51.519737,8.44288811 51.4907382,8.52158875 51.4119119,8.52297351 C51.3647313,8.52389668 51.2794608,8.51039525 51.222844,8.40111445 C51.1959165,8.34918587 51.2020155,8.2896411 51.1383791,8.23471221 C51.1007497,8.2021703 51.025836,8.22236475 50.9786553,8.1914384 L50.8926944,8.22709602 C50.7676081,8.27233158 50.7067336,8.35818683 50.6234194,8.47519922 C50.5402203,8.59209622 50.5299787,8.51374176 50.4480454,8.51501113 C50.3114516,8.51708827 50.1236495,8.52066557 50.013523,8.60075098 C49.61663,8.88993545 49.8213481,8.62798463 49.7433273,8.57397891 C49.7173204,8.5560924 49.6165149,8.56843986 49.5092652,8.62244558 C49.4487359,8.65291035 49.5311294,8.75942163 49.5038567,8.78677068 C49.4311294,8.85958608 49.3985632,9.28066914 49.3016703,9.49946155 C49.2506921,9.61462759 49.2352721,9.68167315 49.071981,9.61982045 C49.0273319,9.60285711 49.0649614,9.4501871 49.0453987,9.35221518 C49.0336611,9.2933628 48.9700247,9.2750147 48.9430972,9.25897454 C48.8871708,9.22562485 48.7433273,9.44199392 48.6940753,9.40506694 C48.6768141,9.39214249 48.6601283,9.37910265 48.644363,9.3662936 C48.5807266,9.31471121 48.4837186,9.21050787 48.3975276,9.18177406 C48.3490811,9.16573389 48.3075391,9.23647216 48.2586323,9.22989454 C48.1791156,9.21916263 48.1163998,9.15061691 48.0468947,9.14138516 C47.5302088,9.07272404 48.0527635,9.51030885 47.9039718,9.68190395 C47.8392997,9.75645031 47.7444781,9.72575475 47.7346967,9.79972412 C47.710531,9.98193573 47.4448233,10.02244 47.4084597,9.87657841 C47.372096,9.73083221 47.3485057,9.52346409 47.2395299,9.51134742 C47.1884367,9.50580837 46.9319349,9.57516187 46.8319349,9.62962918 C46.7187013,9.69125109 46.6646162,9.83861285 46.6325103,9.86434635 C46.5908532,9.89758064 46.4051225,9.9755889 46.2157094,9.93831572 C46.1296334,9.92146778 46.0897025,9.75425777 46.0101858,9.75806586 C46.0081145,9.75806586 45.4422917,10.1782257 45.4213481,10.192535 C45.187401,10.3520134 45.125836,10.3942486 45.0380339,10.4035958 C44.8132928,10.4278291 44.8662272,10.1032178 44.7556403,9.97858922 C44.695111,9.91027429 44.6937301,9.76545126 44.6424067,9.69979046 C44.5291731,9.55542901 44.3917738,9.51134742 44.3917738,9.51134742 C44.3267566,9.33998312 44.0630051,9.65767061 43.9027059,9.58762473 C43.8216933,9.5521979 43.825836,9.43160821 43.801325,9.37044788 C43.7605886,9.26797549 43.7785402,9.11022802 43.6624298,9.03337372 C43.5722111,8.97359816 43.4318199,8.97832943 43.2283676,8.90459085 C43.1525333,8.8771264 43.0714056,8.83916084 42.9929246,8.79611782 C42.9429821,8.76876877 42.6823377,8.87781879 42.6364229,8.84746942 C42.6006346,8.82392846 42.778195,8.66121892 42.747355,8.63733178 C42.6435575,8.55747716 42.5712905,8.47923811 42.5665724,8.42627096 C42.5608187,8.36107175 42.8262963,8.3956908 42.9035115,8.4139235 C42.9819925,8.4322716 43.4249154,8.32714508 43.5677232,8.20770935 C43.6235345,8.16108903 43.6371133,8.05803965 43.7069637,7.99964885 C43.8097255,7.91379361 43.8970673,7.93387266 43.9867105,7.89290678 C44.0882065,7.84663265 44.1860201,7.74496803 44.1860201,7.74496803 C44.1860201,7.74496803 44.2157094,7.75408438 44.2157094,7.62507072 C44.2157094,7.54763944 44.1580569,7.4360507 44.2079994,7.19914099 C44.3411409,6.5674587 44.750462,6.57045902 44.7670327,6.46844822 C44.7840638,6.36389868 44.6632353,6.29789169 44.6460891,6.12191151 C44.6392997,6.053135 44.7002894,5.98470467 44.701325,5.9218134 C44.7031662,5.82014878 44.6737071,5.732101 44.7490811,5.67774909 C44.8403354,5.61197289 45.0016703,5.56246765 44.907424,5.50776955 C44.859783,5.4801897 44.9940753,5.46264938 45.0501168,5.45930287 C45.1060431,5.45618716 45.1648463,5.45122509 45.2094953,5.3999889 C45.2494263,5.35406096 45.2355023,5.26358984 45.2804965,5.23047094 C45.4214631,5.12672919 45.6215782,5.16527173 45.6609338,5.16527173 C45.7138682,5.16527173 45.6978728,5.01110156 45.7865955,4.89582012 C45.8233043,4.84804583 45.8939603,4.93563203 45.9561006,4.89570472 C46.018241,4.85566202 46.071981,4.68799041 46.1076542,4.6192139 C46.2650765,4.31548942 46.3584021,4.25813719 46.4916588,4.37965006 C46.5175506,4.40319102 46.6175506,4.38865102 46.667493,4.36984133 C46.8230742,4.31133513 46.7414861,4.39742118 46.9838337,4.40503737 C47.109035,4.40896086 47.202821,4.35357038 47.2076542,4.32391339 C47.215134,4.27844704 47.2733619,4.13166226 47.4173204,4.04696098 C47.4604735,4.02157368 47.5302088,4.07142511 47.5863653,4.06830939 C47.6426369,4.06519368 47.7017853,3.98453129 47.7562157,3.97541494 C47.919737,3.94818129 47.9615092,3.82632223 47.9203124,3.70769428 C47.8883216,3.61537681 47.7850995,3.51694331 47.7850995,3.51694331 C47.7850995,3.51694331 47.5451685,3.46743806 47.4785402,3.39393028 C47.4481605,3.36046519 47.5273319,3.33265456 47.5514977,3.2836109 C47.5598981,3.26653217 47.4127174,3.22037343 47.4109913,3.19856343 C47.4075391,3.15794374 47.5663423,3.13128707 47.6005195,3.07428104 C47.6210028,3.04012357 47.568989,2.95380674 47.5831432,2.91364864 C47.6006346,2.86437419 47.7472399,2.80356006 47.7635805,2.75059291 C47.793615,2.65285179 47.9925794,2.82952435 48.0149039,2.73778386 C48.04747,2.60346194 47.8969522,2.21030492 47.8931547,2.14902919 C47.8870558,2.05186506 47.7931547,1.92573631 47.7007497,1.88938631 C47.6083446,1.85292091 47.4280224,1.94673854 47.4280224,1.94673854 C47.4280224,1.94673854 47.4235345,1.88280869 47.3260661,1.86261424 C47.250462,1.84692027 47.1725563,1.83295726 47.1355023,1.83295726 C47.0506921,1.83295726 46.7628901,1.51319262 46.7628901,1.51319262 L46.6369982,1.29070752 C46.636653,1.200121 46.5722111,1.16307862 46.5657669,1.12569004 C46.5511524,1.04098876 46.4231892,1.20508306 46.3588624,1.06314495 C46.2793458,0.887857159 46.0863653,0.861431283 45.9556403,0.963211293 C45.8871708,1.01629384 45.8222687,1.21223767 45.7724413,1.23727878 C45.7178958,1.26439704 45.6852146,1.29809292 45.6053527,1.31194054 C45.4724413,1.33490451 45.385905,1.12903655 45.2315897,1.24847228 C45.1559856,1.30709387 45.1078843,1.48988246 45.0178958,1.60989517 C44.9277922,1.72979248 44.7956864,1.78726011 44.747355,1.82349472 C44.6565609,1.89180964 44.6811869,1.97685711 44.4213481,1.81622472 C44.4040868,1.8057236 44.1326254,1.8788852 44.0122571,1.78541376 C44.005813,1.7804517 43.8098406,1.78449059 43.8341214,2.01539966 C43.8402203,2.07298268 43.8326254,2.11787205 43.8162848,2.15168332 C43.7979879,2.18964888 43.6791156,2.09133078 43.6457439,2.10413983 C43.5901628,2.12560364 43.6129476,2.23811555 43.567493,2.20972793 C43.5252606,2.18330206 43.3353872,2.19795745 43.171981,2.15883793 C43.073592,2.13529697 43.0253757,2.01851537 42.9311294,1.98805061 C42.8242249,1.95354695 42.672096,2.00616791 42.5743975,2.00616791 C42.2472399,2.00616791 41.9273319,2.22507571 41.5638107,2.40728732 C41.5482756,2.41501891 41.5981029,2.55234114 41.5836035,2.55776479 C41.364386,2.64050433 41.2586323,2.47202494 41.2772744,2.32950985 C41.2795759,2.31185413 41.2853296,2.27631191 41.2930397,2.23142254 C41.2963768,2.21180507 41.3485057,2.12883475 41.4067336,2.09213855 C41.4817623,2.04505664 41.5672629,2.04228712 41.5729016,2.01112997 C41.5829131,1.95597029 41.341256,1.96462505 41.3505771,1.91511981 C41.3626599,1.85130535 41.3731317,1.7986844 41.3784252,1.77456646 C41.3908532,1.71929137 41.5031662,1.68998058 41.5157094,1.62581993 C41.5691041,1.35475276 41.442752,1.40529658 41.3296334,1.38152483 C41.2869407,1.37263927 41.4636956,1.24235624 41.4312445,1.18581179 C41.4129476,1.15407766 41.1990235,1.28886117 41.1802663,1.24674132 C41.1564459,1.19308179 40.8310143,1.12176655 40.8069637,1.04733559 C40.7706001,0.935746846 41.0386093,0.860046521 41.0083446,0.796809054 C40.8772744,0.522856962 40.796607,0.636292053 40.7081145,0.557360616 C40.6462042,0.502085531 40.4264113,0.69041317 40.3009798,0.729878888 C40.13976,0.7805381 40.0650765,0.707607298 39.9511524,0.849430012 C39.793615,1.04537384 39.8271018,1.31597943 39.7993688,1.39571864 C39.7993688,1.39571864 39.5575966,1.43322261 39.4534539,1.53327167 C39.3970673,1.58750818 39.4959165,1.69482724 39.4333158,1.74548645 C39.3115667,1.84403535 39.1941904,1.91396584 39.1450535,1.86953805 C39.0921191,1.82176376 38.9402203,1.97212584 38.8780799,1.87496171 C38.7495414,1.67336343 38.7178958,1.55265834 38.6290581,1.57504533 C38.5886668,1.58531564 38.6139833,1.67694073 38.4768141,1.71271375 C38.4264113,1.72586899 38.3601283,1.58035358 38.2876311,1.60043263 C38.2421766,1.61301088 38.0803814,1.64959168 38.0321651,1.71132899 C38.0031662,1.74848677 38.0391846,1.83734234 38.0106461,1.8458817 C37.8825678,1.88465504 37.7695644,1.82753361 37.6989085,1.86088329 C37.5702548,1.92158203 37.4584021,2.00697569 37.3119119,1.94789251 C37.2680684,1.93023679 37.1106461,2.15156793 37.0685287,2.12237253 C37.0265264,2.09317713 37.0981029,1.81460916 37.0610489,1.77237392 C37.0175506,1.72286867 36.8374585,1.56569818 36.6964919,1.54227262 C36.5968371,1.52565548 36.5328555,1.64105232 36.4786553,1.62051168 C36.376699,1.58185374 36.5231892,1.50419167 36.4348118,1.48515119 C36.3482756,1.4665723 36.2837186,1.455725 36.2648463,1.455725 C36.2279073,1.455725 36.078195,1.52923278 35.9341214,1.51827008 C35.8418314,1.51123087 35.8234194,1.52403992 35.7887819,1.50511484 C35.7611639,1.48988246 35.6775046,1.44499309 35.576699,1.39052578 C35.507424,1.35313721 35.5681835,1.23762497 35.4949959,1.19769767 C35.3559856,1.12188194 35.1811869,1.17127179 35.1184712,1.11715067 C35.0376887,1.04768178 35.0834884,0.881741126 35.0106461,0.846891281 C34.9471248,0.816541913 34.9328555,0.762536193 34.8624298,0.718223807 C34.7594378,0.653486182 34.6656519,0.704491584 34.5899326,0.611712527 C34.5246852,0.531627121 34.61663,0.38680409 34.5636956,0.293909636 C34.3214631,-0.13132771 34.425836,0.415191712 34.0562157,0.119891205 C34.0493112,0.114352157 33.9830281,-0.0296630959 33.853569,0.00553293952 C33.7242249,0.0406135781 33.5314746,0.255136299 33.4016703,0.28098519 C33.2846392,0.304410748 33.2876311,0.22444074 33.1922341,0.250520425 C33.0633504,0.285716461 33.0027059,0.387958059 32.9968371,0.397997584 C32.9302088,0.51270204 32.8219234,0.581824746 32.8219234,0.751919684 C32.8219234,0.828773978 32.9836035,0.943132244 32.828943,0.997484154 C32.7363078,1.03002606 32.6676081,0.969558119 32.5815322,1.02252527 C32.5172054,1.06210638 32.5885517,1.22320037 32.5229591,1.25989656 C32.4161697,1.31978752 32.0833734,1.66909375 32.0000592,1.71421391 L32.0000592,32 C32.0939257,32.0343883 32.2068486,31.8609453 32.2223837,31.9180667 C32.2500017,32.019616 32.2315897,33.1840854 32.2223837,33.3780675 C32.2131777,33.572165 32.2574815,33.8837365 32.2948808,33.958629 C32.3321651,34.0335216 32.4680684,34.119146 32.5800362,34.0388298 C32.5849844,34.0572933 32.8559856,33.7473374 32.9002894,33.6695599 C32.9254907,33.6251322 33.0138682,33.3465642 33.0328555,33.1883551 C33.0518429,33.0300307 33.1717508,32.498282 33.1970673,32.6058319 C33.2222687,32.7136125 33.1907382,33.2580548 33.1590926,33.3592578 C33.1275621,33.4605763 33.0960316,33.6695599 32.9761237,33.8024971 C32.8561006,33.9353189 32.7360776,34.0810651 32.7172054,34.2076554 L32.7196219,34.2011932 C32.7154792,34.2391587 32.7097255,34.2833557 32.7022456,34.3341303 C32.6659971,34.5836183 32.6201973,35.1587561 32.6242249,35.4239381 C32.6256058,35.5204098 32.6410258,35.5906865 32.6850995,35.6761955 C32.7925794,35.8847176 33.0742825,36.2921839 33.1769292,36.2519104 C33.1838337,36.294838 33.2722111,36.6551069 33.3818774,36.8473581 C33.4147888,36.9051719 33.5123722,36.9858343 33.5485057,36.9991049 C33.5847543,37.0121447 33.6216933,36.8783998 33.6216933,36.8783998 C33.6611639,36.9021715 33.5349269,36.9080568 33.4826829,36.7863131 C33.4062733,36.6083712 33.3236495,36.3516132 33.3663423,36.3438816 C33.4068486,36.3364963 33.6112215,36.346882 33.7147888,36.2696815 C33.7952261,36.2097905 33.784294,36.0663523 33.784294,36.0175394 C33.784294,35.9698805 33.7653066,35.9615719 33.7434424,35.9179519 C33.7195069,35.8701776 33.7020155,35.8097097 33.7494263,35.78363 C33.875088,35.7169306 33.9907382,35.621959 33.9363078,35.5177557 C33.8491962,35.3510073 33.841256,34.8426842 33.9204275,35.0094326 C33.9557554,35.0836328 34.0004044,35.2098769 34.0462042,35.3264277 C34.0974125,35.4569416 34.0786553,35.4592495 34.0626599,35.6045341 C34.0419464,35.791477 34.0191616,36.0649675 34.0617393,36.0732761 C34.3619695,36.1312053 34.1169752,36.2841061 34.5917738,36.288722 C34.7993688,36.2539875 34.9434424,36.2999155 35.0940753,36.352421 C35.2445932,36.405042 35.3100707,36.1554386 35.3231892,35.9124129 C35.3363078,35.6695025 35.4017853,35.6497697 35.4280224,35.5841089 C35.4467796,35.5367962 35.3032813,35.513486 35.1709453,35.47829 L35.0329706,35.4013203 C35.0329706,35.4013203 34.5134079,35.2224552 34.6315897,34.8154505 C34.784294,34.7098624 34.9379188,34.6069285 34.9945356,34.5386135 C35.0510374,34.4702986 35.0303239,34.4372951 35.0303239,34.4372951 L35.4084597,34.2167717 L35.4444781,34.2788552 Z" id="形状结合"></path>
            </g>
        </g>
    </g>
</svg>