<?xml version="1.0" encoding="UTF-8"?>
<svg width="120px" height="120px" viewBox="0 0 120 120" version="1.1" xmlns="http://www.w3.org/2000/svg" xmlns:xlink="http://www.w3.org/1999/xlink">
    <title>jdo_cn_ximalaya_radio_province_xinjiang</title>
    <g id="jdo_cn_ximalaya_radio_province_xinjiang" stroke="none" stroke-width="1" fill="none" fill-rule="evenodd">
        <g id="编组">
            <rect id="矩形" x="0" y="0" width="120" height="120"></rect>
            <g id="新疆" transform="translate(26.000000, 31.335796)" fill="#FFFFFF" fill-opacity="0.189284" fill-rule="nonzero">
                <path d="M67.9120069,23.3742726 L67.9708455,23.3884083 C67.9708455,23.3884083 67.8594508,23.0260736 67.8315417,22.8727549 C67.8037535,22.7193154 67.7619503,22.6218149 67.6225257,22.5800117 C67.4829804,22.5382085 67.0371601,22.1897679 66.8559323,22.0643583 C66.6747046,21.9388279 66.2286427,21.6044023 66.2286427,21.6044023 C66.2286427,21.6044023 66.1171272,21.1444463 66.0615507,20.9353094 C66.0057325,20.7262934 65.5178674,20.0572005 65.4480343,19.9317909 C65.378322,19.8063813 65.183321,19.3045013 65.1137295,19.1372885 C65.0440172,18.9699548 64.9225946,18.5683541 64.7831701,18.5683541 L64.5418955,18.4364203 L64.3657422,18.3606671 C64.3657422,18.3606671 64.5338007,18.3483436 64.4918767,18.1671159 C64.4501943,17.9860089 64.354506,17.7795301 64.4799156,17.6401056 C64.6054461,17.5008018 64.1036868,17.5726888 63.9224591,17.6564161 C63.7412313,17.7400225 63.3565452,17.7545207 63.2171206,17.7545207 L62.8839032,17.621862 C62.7444787,17.621862 62.6326007,17.6288694 62.437358,17.517354 C62.2422361,17.4058385 62.1893176,17.3207823 62.0915755,17.2650849 C61.9941958,17.2093876 61.6466009,16.9760871 61.5350854,17.0038753 C61.42357,17.0317844 61.2773796,16.8372666 61.2773796,16.8372666 C61.2773796,16.8372666 61.1738381,16.6978421 60.1981079,16.0984615 C59.2226193,15.4992017 58.4562675,15.4959396 58.4562675,15.4959396 C58.1632826,15.7004853 58.2971496,15.3887736 58.1087935,15.4055674 C57.8977236,15.4245359 57.2646346,15.4421754 57.0870314,15.431785 C56.8502272,15.4178908 56.3965537,15.505001 56.2710233,15.5327892 C56.1456136,15.5606983 55.3925519,15.6521579 55.0998087,15.5964606 C54.8069446,15.5407633 54.3131594,15.4952147 54.1181583,15.5091088 C53.9230365,15.5230029 53.479995,15.6011725 53.3406913,15.5871576 C53.2011459,15.5732634 53.0312751,15.2379921 52.9754569,15.3215985 C52.9197596,15.4052049 52.4547292,15.3772958 52.1761217,15.2379921 C51.8972726,15.0986884 51.7048087,15.387807 51.5377167,15.4297311 C51.3705039,15.4715343 51.5499194,15.4023053 51.5639344,15.2628807 L51.3319628,14.8739659 C51.1941089,14.6428401 51.0738945,14.405311 50.9624999,14.2799014 C50.8585959,14.1630699 50.7563835,13.8880869 50.7153052,13.3946642 C50.7014111,13.2274514 51.0358367,12.8092985 51.1752612,12.6419649 C51.3146858,12.4747521 51.4400954,12.1122966 51.4262013,11.9729929 C51.4123071,11.8335683 51.1612463,11.3875064 51.1056698,11.2482027 C51.0776399,11.1784904 51.0673703,11.1052744 51.0706324,11.0355621 C51.074257,10.9658498 51.091534,10.8996413 51.1195639,10.8439439 C51.1752612,10.7324285 51.4262013,10.3560788 51.4262013,10.3560788 C51.4262013,10.3560788 51.4539895,10.1191537 51.3981714,10.0495623 C51.342474,9.97985001 51.2727618,9.85431958 51.2867767,9.7846073 C51.3007917,9.71489503 51.342474,9.43616674 51.2030495,9.24104486 C51.0638666,9.04592298 51.091534,8.99022565 50.9661244,8.75317974 C50.8407148,8.51625466 50.8686239,8.48834558 50.7014111,8.47445146 C50.5339566,8.46055733 50.422562,8.30723865 50.2552283,8.16781409 C50.0881363,8.02851036 49.8370755,7.49872122 49.7535899,7.34540254 C49.6699835,7.19208386 49.6839985,7.01097693 49.5862563,6.9272497 C49.4887558,6.8436433 49.4747408,6.60671821 49.3633461,6.43950541 C49.2518307,6.27217178 49.2518307,6.18856537 49.2518307,6.06315577 C49.2518307,5.93762534 49.265604,5.89582214 49.1403152,5.86803388 C49.0149056,5.84012481 49.0426938,5.74250346 48.7221623,5.58918478 C48.40151,5.4358661 48.40151,5.26865329 48.3597068,5.12922874 C48.3388052,5.05951646 48.328294,5.02822447 48.3073924,5.0160218 C48.2866116,5.00381913 48.2551988,5.0108266 48.1923732,5.01771326 C48.0669636,5.03172821 47.8161444,5.24074422 47.6488108,5.24074422 C47.4814771,5.24074422 47.3003702,4.96201593 47.1610665,4.78078817 C47.0216419,4.59956042 46.9102473,4.52996896 46.7708227,4.50205989 C46.6312773,4.47415081 46.1574272,4.61357537 46.0180026,4.73898497 C46.0007256,4.75457056 45.9819987,4.76641077 45.9629094,4.77474725 C45.8280759,4.83286095 45.6556679,4.72146629 45.5580466,4.59956042 C45.4466519,4.46025668 45.3211215,4.32083213 45.2375151,4.25111986 C45.1539087,4.1815284 44.6800585,4.13960438 44.5545281,4.11181612 C44.4291185,4.08390705 44.275679,3.63784513 44.2339966,3.47063232 C44.1921934,3.3032987 44.1782993,3.23370724 44.0528897,3.20579817 C43.9272384,3.17788909 43.3697818,2.82944853 43.3697818,2.82944853 C43.3697818,2.82944853 42.9238407,2.73182718 42.7565071,2.63432664 C42.5891735,2.53670529 42.5613852,2.29978021 42.6588858,2.27187114 C42.7565071,2.24408288 42.8260986,2.1325674 42.8541285,2.0209311 C42.8819167,1.90941563 42.5194612,1.77011189 42.3941724,1.78412684 C42.2687628,1.79802097 42.1013084,1.39376225 42.0595052,1.29626172 C42.0178228,1.19864037 42.0178228,1.11503397 42.1293383,1.11503397 C42.2407329,1.11503397 42.2407329,1.01741262 42.2407329,1.01741262 C42.2407329,1.01741262 42.2964303,0.613274723 42.2964303,0.487744298 C42.2964303,0.362334691 42.2407329,0.11139466 42.1990505,0 C42.1990505,0 41.836595,0.0279090743 41.6693822,0.11139466 C41.5020486,0.195121883 41.3905331,0.292622415 41.2791385,0.432046968 C41.2233203,0.501759244 41.1815171,0.519157108 41.1414054,0.50695444 C41.1012936,0.494751771 41.0628733,0.452948569 41.0141835,0.404137893 C40.9166829,0.306637361 40.4428328,0.320531489 40.2890308,0.319564941 C40.2193185,0.319444123 40.1621714,0.375503908 40.1059908,0.380940741 C39.861575,0.404741986 39.7338698,0.42540195 39.6983492,0.520123657 C39.6547337,0.636834331 39.6169175,0.79426084 39.5292033,0.881733437 C39.4417307,0.969206033 39.4065725,1.03348148 39.4650486,1.17943023 C39.5232831,1.32537898 39.6500218,1.48244303 39.5430974,1.61123556 C39.4364146,1.74002808 39.4888499,1.81674783 39.4802718,1.94916491 L39.4625114,2.06152612 C39.4625114,2.06152612 39.5507089,2.07674925 39.4809967,2.29978021 C39.4114052,2.52281117 39.0349348,2.63432664 38.9234193,2.75973625 C38.8120246,2.88514586 38.6167819,2.98276721 38.5052664,2.99666134 C38.3938718,3.01067628 38.2543264,3.19190404 38.1569467,3.21969229 C38.0592045,3.24760137 37.4878538,3.21969229 37.4041266,3.21280564 L37.1119875,3.17776827 C37.0854074,3.17511027 37.0579816,3.18223856 37.0303142,3.19709923 C36.9111871,3.26161631 36.7896437,3.47280706 36.7067622,3.67433232 C36.6046706,3.92237271 36.5170772,4.02446434 36.4151063,4.14117502 C36.3128939,4.25788569 36.2545385,4.53516416 36.2399195,4.63725579 C36.2251796,4.73934743 36.3573551,5.13188674 36.3573551,5.13188674 C36.3573551,5.13188674 36.4044743,6.01555328 36.4120859,6.11716164 C36.4200599,6.21889082 36.5685458,6.78975825 36.5720496,6.8077602 C36.5755533,6.82576216 36.6046706,6.91323476 36.6629051,7.11753885 C36.7213812,7.32184293 36.7213812,7.71571125 36.692264,7.96375164 C36.6793364,8.07224666 36.6167524,8.21589986 36.5503022,8.34300092 C36.4648836,8.50658918 36.3730615,8.64299327 36.3730615,8.64299327 C36.3730615,8.64299327 36.0368236,8.75257565 35.89607,8.78374682 C35.8102889,8.80283615 35.4509747,8.80307778 35.152553,8.82349611 C35.0747459,8.82893294 35.0388628,9.14221532 34.9451076,9.21712279 C34.8079786,9.32658436 34.6187768,9.20902796 34.5861558,9.20564504 C34.5204306,9.19875838 34.5723825,8.82905376 34.4780233,8.82881213 C34.3709781,8.82857049 34.2715444,8.83026195 34.2381985,8.83859842 C34.1757354,8.85418401 33.9255203,8.94020679 33.8082055,8.97149878 C33.6907699,9.00279077 33.4014096,8.99493757 33.3075336,8.94805999 C33.2138993,8.90106159 33.0260265,8.916768 32.9323922,8.92450038 C32.8385162,8.9324744 32.5883011,8.99493757 32.4944251,9.02622956 C32.4006699,9.05752155 32.0408724,9.04966835 31.9001189,9.02622956 C31.7593653,9.00279077 31.0947427,8.77601444 30.9930135,8.72901604 C30.8911635,8.68213846 30.6880676,8.47880092 30.4221461,8.29902299 C30.1562246,8.11912424 29.9920322,8.00966267 29.8199867,7.97051748 C29.7554696,7.95589844 29.7129415,7.95879808 29.6829785,7.97112157 C29.6328388,7.9915399 29.6176157,8.0379342 29.5930895,8.07224666 C29.554186,8.12697744 29.4993344,8.40848455 29.3233018,8.85817102 C29.1162189,9.35461425 29.0301961,9.5266598 28.9754654,9.65182777 C28.9206138,9.77699574 28.8034198,10.2539872 28.7642746,10.3947407 C28.7251294,10.5354943 28.6234002,10.9186098 28.5609371,11.0672165 C28.4984739,11.2158233 28.2091136,11.8727135 28.1308232,11.9743219 C28.0525328,12.076051 27.8650225,12.7093816 27.8494369,12.8032576 C27.8336097,12.8970128 27.8258773,13.0613259 27.7321221,13.0847647 C27.6382462,13.1082035 27.6335342,13.3764206 27.6247145,13.4368298 C27.6162572,13.4971183 27.4868606,14.0226788 27.4697044,14.1260994 C27.4527898,14.2278286 27.319527,14.606353 27.3846481,14.7709078 C27.3854939,14.7734449 27.4964052,14.6663997 27.4976134,14.6689369 C27.5663592,14.832646 27.6592686,14.9963551 27.7799663,15.0393665 C27.9005431,15.0824987 28.0779047,15.144841 28.1468921,15.2482617 C28.2156378,15.3516823 28.2242159,15.4992017 28.2413721,15.5854661 C28.2585284,15.6714889 28.1227284,15.9513045 28.079717,15.9943159 C28.0367056,16.0374481 27.7799663,16.0303198 27.6938227,16.0130428 C27.6075583,15.9957657 27.400717,16.0303198 27.2801401,16.0475969 C27.1595633,16.0647531 26.9614209,16.0130428 26.9614209,16.0130428 C26.9614209,16.0130428 26.8838554,15.909743 26.7888921,15.909743 C26.7446725,15.909743 26.6085101,15.8326608 26.5258702,15.8397891 C26.4322359,15.8480047 26.3903118,15.937652 26.316975,15.8780885 L26.2380805,15.6608568 C26.1989353,15.4698428 26.1600318,15.4443501 26.1600318,15.4443501 L25.6331423,15.5159955 C25.6331423,15.5159955 25.4707622,15.5391926 25.2983542,15.6597695 C25.126067,15.7804672 24.953659,15.8149004 24.8849133,15.8149004 C24.8158051,15.8149004 24.3162206,15.901044 24.3162206,15.901044 C24.3162206,15.901044 24.0145368,16.1078853 23.8853818,16.1508967 C23.7559852,16.1940289 23.4114108,16.202607 23.2477018,16.1336197 C23.0838719,16.0647531 23.0668365,16.1164634 23.0668365,16.1164634 L23.1185468,16.2801725 C23.1185468,16.2801725 22.5324562,16.2370403 22.4033012,16.2715944 C22.2741463,16.3060277 22.2827244,16.4094483 22.1447496,16.5473022 C22.0070165,16.6851561 21.6967546,16.5644584 21.4123479,16.5644584 C21.1279411,16.5644584 21.0676527,16.7110113 20.9212207,16.8747203 C20.7749095,17.0384294 20.7575116,17.1159949 20.8263781,17.1332719 C20.8954863,17.1504282 20.9039436,17.2968602 20.9039436,17.3917027 C20.9039436,17.4864244 21.0160632,17.4864244 21.1537963,17.4864244 C21.2916502,17.4864244 21.3520594,17.4864244 21.446902,17.4348349 C21.5416237,17.3830038 21.5503226,17.4175579 21.5491144,17.5053929 C21.5479062,17.593228 21.6937342,17.8266493 21.8688002,17.9724773 C22.0437454,18.118426 22.0437454,18.3226093 22.0291263,18.4247009 C22.0147489,18.5269134 21.9126573,18.6727413 21.9855109,19.0376132 C22.0218772,19.2199283 22.1376213,19.4108216 22.1140617,19.5985735 C22.0903813,19.7864463 21.9271555,19.9714194 21.9125365,20.0150349 C21.8832984,20.1026283 21.956152,20.2923134 21.956152,20.2923134 C21.956152,20.2923134 22.1167197,20.4236431 22.1314596,20.4964966 C22.1459578,20.569471 22.1605769,20.8467495 22.1751959,20.9342221 C22.1898149,21.0218155 22.386145,21.5621158 22.386145,21.5621158 L22.4808667,21.7258249 C22.4808667,21.7258249 22.687708,22.2082532 22.7392975,22.3029749 C22.7910078,22.3978174 22.8771514,22.7252356 22.8944285,22.8372343 C22.9117055,22.9493539 22.9201628,23.1474962 22.7910078,23.2680731 C22.661732,23.3887708 22.8686941,23.5180466 22.9201628,23.5180466 C22.9721148,23.5180466 22.9548377,23.6386234 22.9721148,23.7592003 C22.989271,23.8797772 22.9548377,24.0693414 22.9030066,24.1469069 C22.8514171,24.2244724 22.5584322,24.2244724 22.4205783,24.2244724 C22.2827244,24.2244724 22.0486989,24.321248 21.9323507,24.5667512 C21.8158817,24.8123752 22.1313388,24.9625526 22.191748,25.0142629 C22.2520365,25.0658524 22.4092213,25.1991152 22.1967016,25.2254537 C21.9838194,25.2517921 21.9075829,25.3520714 21.5463356,25.3641533 C21.2206089,25.5000741 21.200553,25.7738488 21.1203296,25.8941841 C21.0402269,26.0145193 21.1103016,26.3053294 21.1504134,26.3654971 C21.1905251,26.4256647 21.2407856,26.5861116 21.200553,26.6763631 C21.1604413,26.7666145 21.1103016,26.8267821 21.1504134,26.9270615 C21.1905251,27.0273408 21.200553,27.5388864 21.200553,27.7493522 C21.200553,27.8415367 21.1971701,27.8856355 21.1199671,28.1491406 L21.0948368,28.2374589 L20.3683552,28.3309725 C20.3683552,28.3309725 20.1276847,28.6219034 19.9268844,28.8625739 C19.7264465,29.1032443 19.7965212,29.0330488 19.6562509,29.0330488 C19.5158598,29.0330488 19.1747892,29.2135516 19.1747892,29.2135516 L18.8540161,29.153384 L18.232284,29.5043618 C18.232284,29.5043618 17.9714369,29.6146691 17.8912134,29.6146691 C17.8111107,29.6146691 17.490096,29.785144 17.490096,29.785144 L16.9186245,30.1461497 C16.9186245,30.1461497 16.868364,30.1561776 16.73788,30.1662055 C16.6075168,30.1762335 16.54747,30.246429 16.4873024,30.3266525 C16.4271348,30.406876 16.4069581,30.527332 16.2566599,30.527332 C16.0763987,30.527332 15.7215547,30.7312737 15.5346485,30.7780304 L15.8742693,30.6569703 C15.8742693,30.6569703 15.7162387,30.7062642 15.6075021,30.755679 C15.4988862,30.8050938 15.2717474,30.8150009 14.9950731,30.8150009 C14.7185195,30.8150009 14.7875069,31.0125391 14.688919,31.2300125 C14.5900895,31.4471233 14.362709,31.4965381 14.1454774,31.486631 C13.9282457,31.4767238 13.7404937,31.7237977 13.7305866,31.8521069 C13.7208003,31.980537 13.5726768,32.1188742 13.5133549,32.1089671 C13.4541539,32.0991808 13.2366806,32.2177037 13.147879,32.2177037 C13.0589566,32.2177037 12.9108331,32.1682889 12.7329882,32.1781961 C12.5550226,32.1879824 12.0945833,32.1418297 11.9643409,32.09169 C11.8340986,32.0415503 11.4431299,31.8309637 11.3227947,31.8409916 C11.2024594,31.8510196 10.5003831,32.1918486 10.4803272,32.3123046 C10.4602714,32.4327607 10.389955,32.6031147 10.2997036,32.72345 C10.2094522,32.8437852 10.1494054,33.0543719 10.1192007,33.2549306 C10.0892377,33.4554893 10.0090143,33.4957218 9.91876284,33.5557686 C9.82851142,33.6160571 9.81848348,33.8365508 9.71808331,33.9870907 C9.61780395,34.1375097 9.44744986,34.2678729 9.19675146,34.4182919 C8.94593225,34.568711 9.02615574,34.3079846 8.986044,34.1675935 C8.94593225,34.0270816 8.94593225,34.1073051 8.85556001,34.1073051 C8.76542941,34.1073051 8.66527087,34.1776215 8.51473101,34.1876494 C8.36431198,34.1976773 8.02336216,34.2879288 7.88285024,34.408264 C7.74257996,34.5285992 7.48185363,34.4684316 7.26111822,34.4283199 C7.04050364,34.3882081 7.09064332,34.3180126 7.14078299,34.1575656 C7.19092267,33.9969978 7.27114616,33.8667555 7.23103442,33.7864112 C7.19092267,33.7063085 7.12072712,33.525564 7.10067125,33.3953217 C7.0807362,33.2649585 7.10067125,33.0643998 7.10067125,32.9841763 C7.10067125,32.9440646 7.08810613,32.9289622 7.0630967,32.9240087 C7.03820809,32.9190551 7.00039189,32.9240087 6.95037303,32.9240087 C6.85009368,32.9240087 6.64953496,33.0643998 6.42879956,33.2148188 L5.92740277,33.626085 C5.92740277,33.626085 5.32572662,33.6359921 5.1754284,33.5657966 C5.02488855,33.4957218 4.77419015,33.2649585 4.66388286,33.2649585 C4.55345475,33.2649585 4.53339888,33.5859733 4.61362236,33.6462617 C4.69384585,33.7063085 4.82445065,33.7664761 4.85441364,33.8866905 C4.88449745,34.0071466 4.70387378,34.0071466 4.54342681,33.936951 C4.38297984,33.8667555 4.23268162,33.8566067 4.07211383,33.9870907 L3.68621953,34.27778 L3.5306053,34.3982361 C3.5306053,34.3982361 3.38103199,34.5185713 3.20064997,34.6589624 C3.0200263,34.7992327 2.86888236,34.6689903 2.69816581,34.558683 C2.52781172,34.4483757 2.02641493,34.6790183 1.87587508,34.7592417 C1.72557686,34.8394652 1.86596796,34.9096608 1.83600497,34.9999122 C1.80580035,35.0901636 1.50484145,35.3809738 1.39465498,35.501309 C1.28434769,35.6216442 1.47475765,35.8623147 1.51486939,36.0326688 C1.55498113,36.2032645 1.46472971,36.5041026 1.4346459,36.6043819 C1.40468292,36.7047821 1.12390071,36.9955922 1.00356548,37.0255552 C0.883109437,37.0557599 0.542280439,37.0457319 0.341721724,37.0958716 C0.278896102,37.1114572 0.279379376,37.1707791 0.23793863,37.2060581 C0.186349129,37.2499152 0.0460788466,37.2584933 0.00427564447,37.2981218 C-0.0282245329,37.3289305 0.135605358,37.463039 0.123644326,37.4870819 C0.0836534011,37.5673054 0.0307348967,37.6474081 0.241321548,37.7677433 C0.451908199,37.8880785 0.572364247,38.2490842 0.532252504,38.3694194 C0.492140761,38.4897547 0.68267154,38.600062 0.772802144,38.5899132 C0.863053566,38.5800061 0.893137373,38.6603504 0.893137373,38.7905927 C0.893137373,38.9209559 0.782709261,39.0011794 0.692578658,38.9710956 C0.602327236,38.9410118 0.512075814,38.9610677 0.492140761,39.0212353 C0.472084889,39.0814029 0.445504818,39.1250184 0.456982576,39.1733458 C0.46471496,39.2062084 0.447558733,39.3705216 0.482716917,39.4506242 L0.550737735,39.6132459 C0.550737735,39.6132459 0.589520474,39.7225867 0.595561399,39.7229491 C0.601723143,39.7233116 0.571880973,39.7863789 0.6229872,39.8798924 C0.673972608,39.9735267 0.631323676,39.9549207 0.747188621,40.1049772 C0.863053566,40.2547922 1.1538637,40.6358537 1.40492455,40.6619505 L1.55425622,40.5427027 C1.60524163,40.3350157 1.72557686,40.2347363 1.8257354,40.1844758 C1.92601476,40.134457 2.4976071,40.2747272 2.79856599,40.3650995 C3.09940406,40.4553509 3.40024213,40.7963007 3.52069818,40.8865521 C3.64103341,40.9768036 3.92096988,41.1873902 3.95093287,41.2475578 C3.9811375,41.3077254 3.73865476,41.6234242 3.66108928,41.7589826 C3.5835238,41.8945409 3.60092167,41.9595413 3.6109496,42.0297368 C3.62097754,42.0999324 3.68114515,42.621385 3.71122896,42.7719249 C3.74131277,42.9223439 3.93172273,43.0125953 3.98186241,43.0527071 C4.03200209,43.0928188 3.87155512,43.3535452 3.83156419,43.4939363 C3.79145245,43.6343274 4.00191828,43.8950537 4.04203002,43.9552213 C4.08214177,44.0153889 4.02197415,44.1457521 3.98186241,44.1958918 C3.94175067,44.2460314 3.7212569,44.5067578 3.68114515,44.5869813 C3.64103341,44.6672047 3.84159213,44.9478661 3.96192736,45.0485079 C4.08214177,45.1486665 4.25273749,45.2789088 4.30287717,45.3491044 C4.35301685,45.4194207 4.34298891,45.539756 4.35301685,45.6599704 C4.36304479,45.7804264 4.13240226,45.8906129 3.90175974,45.9007617 C3.67111722,45.9107896 3.57083786,46.0812645 3.46040975,46.1314042 C3.35010246,46.1815439 3.2498231,46.1314042 3.1897763,46.0511807 C3.12960869,45.9709572 3.08937613,45.9308455 2.8286498,45.9107896 C2.56780265,45.8906129 2.32725301,45.9507805 2.22697365,46.0511807 C2.12657347,46.1513392 2.17671315,46.4021585 2.16668522,46.5123449 C2.15665728,46.622773 2.26708539,46.7431083 2.31227151,46.7881736 L2.41762525,46.8133038 C2.41762525,46.8133038 2.4976071,46.7230524 2.61818396,46.7230524 C2.73827755,46.7230524 2.76848218,46.7531362 2.79856599,46.8333597 C2.8286498,46.9135832 2.9089941,46.8634435 2.98909677,46.8032759 C3.06932025,46.7431083 3.14954374,46.9135832 3.32509302,46.9637229 C3.50064231,47.0138625 4.07211383,46.8734714 4.25273749,47.0339184 C4.43311952,47.1943654 4.60359443,47.3347565 4.70387378,47.41498 C4.80427396,47.4952035 4.88449745,47.6357154 4.92956275,47.876265 C4.97474887,48.1169355 4.94454424,48.3577267 5.1754284,48.2372707 C5.40595011,48.1169355 5.55648996,48.0066282 5.69676024,48.1070284 C5.83727216,48.2071869 5.95748657,48.2773824 5.95748657,48.2773824 L5.97440116,48.3458865 C5.95108319,48.3638885 6.35630845,48.7883239 6.45284244,48.8463168 C6.5492556,48.9041888 6.45284244,49.19367 6.53004546,49.3287451 C6.60712767,49.4635785 6.62935827,49.6212467 6.61933033,49.721526 C6.6093024,49.8218054 6.42879956,50.0122153 6.57921859,50.2530066 C6.72975845,50.4936771 6.6093024,50.4936771 6.50902304,50.6039844 C6.4088645,50.7142917 6.27850134,50.9248783 6.25844547,51.0553623 C6.23814796,51.1856046 6.48896717,51.3360237 6.58924653,51.3261166 C6.6896467,51.3160886 6.73978638,51.3964329 6.82000987,51.446331 C6.90023335,51.4964706 6.88005666,51.8475692 6.86012161,51.9979882 C6.84006574,52.1484073 6.91026129,52.188519 7.05053157,52.2084541 C7.19092267,52.2286308 7.3615184,52.2486866 7.52196537,52.188519 C7.68229153,52.1283514 7.82268263,52.0480071 7.9733433,51.9478486 C8.12364152,51.8475692 8.19383707,51.9177648 8.26403262,51.9979882 C8.33410735,52.0782117 8.24409757,52.2386587 8.15372533,52.348966 C8.0634739,52.4592733 8.35416322,52.5494039 8.47461927,52.6096923 C8.5949545,52.6698599 8.6752988,52.9205583 8.88081108,53.0509215 C9.21680734,53.2414523 9.72811124,53.4921507 9.72811124,53.4921507 C9.72811124,53.4921507 10.049126,53.7127653 10.2595918,53.7027373 C10.4702993,53.6927094 10.5104111,53.7428491 10.5705787,53.8130446 C10.6308671,53.8832402 10.7109698,53.9935475 11.0820034,53.9935475 C11.4531578,53.9935475 11.6033352,54.0436871 11.7137633,54.0136033 C11.8241915,53.9835195 12.0147222,53.913324 12.1350575,53.9935475 L12.4760073,54.063743 C12.4760073,54.063743 12.526147,54.0236313 12.6966219,54.0236313 C12.866976,54.0236313 13.0877114,54.063743 13.0877114,54.063743 C13.0877114,54.063743 13.0475996,54.2342179 12.8069292,54.3947857 C12.5662587,54.5552327 12.6264263,54.9864339 12.6865939,55.1871135 C12.7467615,55.3875514 12.9672553,55.4878307 12.9471994,55.6482777 C12.9271436,55.8087247 12.9572274,56.1195907 13.0175158,56.2297771 C13.0776834,56.3400844 13.2279816,56.5207081 13.2080466,56.6209875 C13.1879907,56.7212668 13.0475996,56.9319743 13.0877114,57.0421608 C13.1278231,57.1524681 13.2682142,57.2729241 13.2682142,57.4333711 C13.2682142,57.593818 13.4485962,57.6640136 13.5689315,57.6841903 C13.6895083,57.7041253 13.8899462,57.8544236 13.9700489,57.8645723 C14.0503932,57.8746002 14.0905049,57.9045632 14.0905049,57.9748796 C14.0905049,58.0450752 14.2207473,58.1252986 14.4215476,58.0850661 C14.6221064,58.0450752 14.8125163,58.3960529 14.983112,58.5464719 C15.1987731,58.7366403 15.5044439,58.8412691 15.7562296,58.9838349 L15.5916748,58.9254796 C15.6842218,58.9660746 15.8294457,59.0228593 15.8613417,58.9903591 C15.8861095,58.9652289 15.7318243,58.7559712 15.7782186,58.7248001 C15.8706448,58.6628202 16.0170768,58.6128013 16.2332211,58.5568623 L16.3037791,58.6190839 C16.3460656,58.6758686 16.3506567,58.6854132 16.4074414,58.6758686 C16.4638636,58.6663239 16.4355921,58.6426435 16.5016798,58.6663239 C16.5676467,58.6900043 16.5722378,58.670915 16.5912063,58.6285077 C16.6099332,58.5859796 16.6380839,58.5954034 16.6804912,58.6095392 C16.7228985,58.6237958 16.7466997,58.6050689 16.8549531,58.6095392 C16.9634481,58.6143719 16.982175,58.6050689 17.0528538,58.6050689 C17.1234118,58.6050689 17.1518042,58.6050689 17.2694814,58.6001154 C17.3872794,58.5954034 17.4817595,58.5718438 17.4862298,58.5197711 C17.4910625,58.4678191 17.524046,58.4535625 17.5381817,58.5009234 C17.5523175,58.5481634 17.5993159,58.5718438 17.6561006,58.5622992 C17.712402,58.5528753 17.7076901,58.5528753 17.7690659,58.5812677 C17.8302001,58.60966 17.9575428,58.6001154 17.9952381,58.5387396 C18.0329335,58.4772429 18.0941885,58.4962114 18.1176273,58.5340276 C18.1413077,58.5718438 18.2165776,58.5387396 18.3250727,58.5291949 C18.4334469,58.5197711 18.4097664,58.4772429 18.4757333,58.3921867 C18.5418211,58.3071305 18.5935314,58.2550577 18.555836,58.2456339 C18.5182614,58.23621 18.4994138,58.1605776 18.5323972,58.1368972 C18.5652598,58.1133376 18.607788,58.004601 18.6407714,57.9667848 C18.673634,57.9289686 18.673634,57.8816077 18.673634,57.8816077 L18.6791917,57.8569607 C18.7005766,57.8255479 18.5721465,57.8191446 18.5786707,57.782899 C18.599089,57.6684839 18.7186993,57.7483449 18.7280024,57.7162072 C18.7569988,57.6150821 18.7396009,57.491968 18.7641271,57.4442447 C18.804118,57.3665584 18.8892951,57.2454983 18.8914698,57.1516223 C18.8924364,57.10257 18.7992853,57.0675326 18.819462,57.0355157 C18.8358933,57.0092981 18.8619901,56.9911754 18.9030684,56.9851344 C18.9620278,56.9765563 19.0097511,57.0128019 19.0606157,57.0312871 C19.0909412,57.0422816 19.0475673,56.9133682 19.0749931,56.9034611 C19.1209041,56.8867882 19.1578746,56.863591 19.176239,56.8306076 C19.204873,56.7787764 19.2001611,56.7089433 19.2029399,56.6813967 C19.2057187,56.6560248 19.2165924,56.5099553 19.2291575,56.4317857 C19.2430516,56.345038 19.1836089,56.3544618 19.1921871,56.3125378 C19.2026983,56.2620357 19.3219461,56.192565 19.3421228,56.1750464 C19.3827178,56.1401298 19.4612499,56.2376303 19.5005159,56.2045261 C19.5820684,56.1352971 19.6567342,56.0725923 19.7062698,56.0292184 C19.7436027,55.9965974 19.7967628,55.9523779 19.8569305,55.9052586 C19.8833897,55.8845987 19.8413449,55.8419497 19.8580178,55.7856483 C19.8708246,55.741912 19.9560016,55.6964843 19.9783531,55.6807779 C20.0368292,55.6403037 20.1049708,55.6834359 20.1764954,55.6888727 C20.252007,55.694672 20.3008176,55.6798113 20.2944143,55.6306382 C20.2903064,55.6004336 20.0531397,55.3735364 20.0402121,55.3475604 C20.0067454,55.2802645 20.0377958,55.0498636 20.1657426,54.9275953 C20.208029,54.8871211 20.3213568,54.9667405 20.3708924,54.9211919 C20.4371009,54.8600578 20.4727424,54.7827339 20.5478915,54.7203916 C20.5807541,54.6930866 20.5689139,54.7333192 20.606126,54.7777804 C20.6359682,54.8135426 20.6798253,54.8415725 20.7320189,54.8790263 C20.7630692,54.9014985 20.8095844,54.9365359 20.8237201,54.9529672 C20.8387016,54.9706067 20.8959696,54.8468886 20.9110719,54.8635615 C20.936323,54.8914706 20.9630239,54.9157551 20.9949199,54.9294076 C21.0404685,54.9487386 21.0537586,54.8896583 21.1054689,54.8827717 C21.1327739,54.8791471 21.1754228,54.9230042 21.2100977,54.9109224 C21.297087,54.8802345 21.317747,54.9457181 21.3113436,55.0061273 C21.3080815,55.0392316 21.3670409,55.0432186 21.3932585,55.0585626 C21.4313164,55.0807932 21.3687324,55.1505055 21.4108981,55.170803 C21.4563258,55.1925503 21.5978043,55.1418065 21.6451651,55.1577546 C21.7082324,55.1791394 21.7735952,55.1374571 21.8425826,55.1518345 C22.008708,55.1860261 22.059331,55.1985912 22.1747126,55.2394279 C22.278979,55.2761567 22.4138124,55.3294377 22.4691473,55.3009245 C22.4942776,55.2878761 22.5085342,55.1360072 22.504668,55.0900962 C22.4910155,54.9245749 22.6606446,54.8949743 22.7260075,54.9008944 C22.7535541,54.9034316 22.7262491,54.9714524 22.7564537,54.9865547 C22.7896788,55.0031069 22.8544375,55.0772894 22.8923745,55.0954122 C23.0055815,55.1497805 23.0976452,55.2728946 23.1034445,55.2751902 C23.1195133,55.2812311 23.2246254,55.2498183 23.242869,55.2376156 C23.2634082,55.2240839 23.2910756,55.1627081 23.3026742,55.1653661 C23.3584923,55.1778104 23.3886969,55.2132103 23.430621,55.2181638 C23.4661416,55.2223925 23.4878889,55.1759982 23.5121735,55.1728569 C23.5631589,55.166091 23.6114863,55.2162307 23.6824067,55.2271044 C23.7377416,55.2356825 23.7904185,55.1984704 23.8435786,55.2191304 C23.8967388,55.2397903 23.8851402,55.3184432 23.9239229,55.351185 C23.9415624,55.3660457 24.0089791,55.3964919 24.0217859,55.413769 C24.0261354,55.4194474 24.0560984,55.4501353 24.0567025,55.4654793 C24.0585147,55.5325336 24.0162283,55.5862978 24.0594813,55.6326921 C24.100922,55.6770325 24.2318893,55.5956008 24.2922985,55.6175898 C24.405143,55.6590305 24.4939446,55.7187149 24.5972444,55.6674878 C24.712022,55.6107031 24.8729523,55.5325336 24.971661,55.5286674 C25.1049238,55.5233514 25.1308998,55.6099782 25.2384282,55.5963257 C25.2753987,55.5917346 25.3002873,55.5479983 25.331096,55.5397827 C25.3622672,55.5314462 25.3993585,55.5586304 25.4231597,55.5447362 C25.4689499,55.5177937 25.476199,55.4658417 25.4993962,55.4115942 C25.5143777,55.3764361 25.5743037,55.3966127 25.6331423,55.3909343 C25.675912,55.3869473 25.7183193,55.3600047 25.7419998,55.3314916 C25.7639887,55.3051531 25.8207734,55.2929505 25.8167864,55.1776896 C25.813041,55.0623079 25.7488864,54.8437473 25.7742583,54.8204293 C25.823069,54.7756056 25.917549,54.7513211 25.9517407,54.7383935 C25.9652724,54.7333192 26.0239901,54.724137 26.0714718,54.7032354 C26.1085631,54.686804 26.1474667,54.6477797 26.1751341,54.6429469 C26.3221702,54.6174542 26.2663521,54.5975192 26.3122631,54.5873704 C26.3646983,54.5757718 26.4184626,54.5617569 26.4687231,54.544359 C26.5186211,54.5273236 26.5307029,54.4673976 26.5770973,54.451208 C26.6074227,54.4406967 26.6325529,54.4862453 26.6607037,54.4750092 C26.7179716,54.4522953 26.7460015,54.4086798 26.7868382,54.3829455 C26.8158346,54.3648227 26.7193006,54.2990975 26.737665,54.2773501 C26.8390318,54.1567733 26.7792266,54.1307973 26.8056859,54.0361964 C26.8198216,53.9853318 26.9303706,54.0527485 26.9737444,54.0121535 C26.9995996,53.987869 26.962025,53.8797364 26.9922296,53.8595597 C27.0374157,53.8293551 27.0874346,53.804829 27.1416821,53.7904516 C27.2113944,53.7719663 27.3277426,53.8569017 27.4032542,53.8602847 C27.4596764,53.8629427 27.4584682,53.8179982 27.4889145,53.8317715 C27.621694,53.8919391 27.591731,53.8683795 27.7037298,53.9121158 C27.867318,53.9760288 27.9610732,54.0558898 28.0615942,54.0815033 C28.1658606,54.1080834 28.2091136,53.9368836 28.2340022,53.9258891 C28.2959821,53.8985841 28.3196625,53.9273389 28.4030273,53.9343464 C28.4306947,53.936642 28.4785389,53.9121158 28.5082602,53.9167069 C28.5528422,53.9237144 28.6638744,53.9324133 28.688159,53.9377293 C28.847881,53.972525 28.8204552,54.0332968 28.8333828,54.1712715 C28.8402695,54.2464206 28.8699908,54.3375177 28.872528,54.4149624 C28.8759109,54.5279277 28.858513,54.6283279 28.9368034,54.7409307 C28.9754654,54.7962656 29.0930218,54.7782636 29.1501689,54.825987 C29.1997045,54.8673069 29.1721579,54.973748 29.2121488,55.0034693 C29.3320008,55.0922709 29.4232187,55.1288789 29.5668719,55.1119644 C29.6202737,55.1056818 29.6770584,55.026304 29.7503952,55.0195382 C29.8237321,55.0125307 30.0219952,55.1357656 30.0819212,55.1270667 C30.1420888,55.1183677 30.0993191,55.1782937 30.1492171,55.172132 C30.277768,55.1569088 30.3570249,55.1572713 30.4540422,55.2107939 C30.4918584,55.2314539 30.7144061,55.3047907 30.715131,55.3047907 C30.7878637,55.3051531 30.8380034,55.2835266 30.900829,55.2878761 C30.948794,55.2910174 30.9160522,55.3691869 30.9438404,55.3639918 C30.9725952,55.3586757 31.0043705,55.3544471 31.0383205,55.3475604 C31.0690084,55.3413987 31.0998171,55.2770024 31.1639717,55.2535636 C31.2025128,55.2394279 31.2712586,55.2673369 31.3085915,55.2550135 C31.3538984,55.2401528 31.3946142,55.228675 31.4222817,55.226017 C31.499968,55.2185263 31.5583233,55.2865471 31.5749963,55.2797813 C31.6612607,55.2449855 31.7083799,55.258638 31.796819,55.2303665 C31.8184456,55.223359 31.8401929,55.088888 31.8612153,55.0824846 C32.0034187,55.0397149 32.1299157,55.0122891 32.2175091,55.0214713 C32.2372025,55.023646 32.2500093,55.0623079 32.2666822,55.0712485 C32.3539132,55.117522 32.3215338,55.1303288 32.4178262,55.1688699 C32.4438021,55.1791394 32.4645829,55.1982288 32.4872968,55.2063236 C32.5652247,55.2344743 32.5299457,55.2458313 32.5649831,55.2364074 C32.5965167,55.2278293 32.6291377,55.262625 32.6819354,55.2698741 C32.7499562,55.2791772 32.8469735,55.2574298 32.9682753,55.1912213 L33.1015381,55.1589628 L33.1842987,55.1037487 L33.2535277,55.0473265 C33.2535277,55.0473265 33.4645977,54.9370192 33.543613,54.8300948 C33.597498,54.7569996 33.5085756,54.668198 33.5364847,54.6346104 C33.6052304,54.5518498 33.7127589,54.4797211 34.0349818,54.4280108 C34.2256334,54.3974437 34.4635251,54.2977685 34.6431822,54.1980932 C34.7658129,54.1299516 34.8555811,54.0632597 34.9087412,54.0233896 C34.9460742,53.9953597 35.0720879,53.9867816 35.1774416,53.938575 C35.2702302,53.8960469 35.3370428,53.8135279 35.4568948,53.7856188 C35.5568117,53.7625425 35.647788,53.78284 35.7585786,53.770879 C35.8401311,53.7619384 35.9234958,53.7131277 36.0063773,53.7182021 C36.0383942,53.7201352 36.0310243,53.6152647 36.0636453,53.6209432 C36.587756,53.7128861 36.403991,53.8490485 36.5325419,53.9455825 C36.5888433,53.9877482 36.9680926,53.964551 36.9893567,54.0620516 C37.0166617,54.1878236 37.1924526,54.238809 37.2539492,54.1677677 C37.32197,54.0887524 37.3608736,53.8849316 37.4325189,53.8106283 C37.4755303,53.7660462 37.6684775,53.7061202 37.8471681,53.611761 C37.9275124,53.5692329 38.1859431,53.5781735 38.3790111,53.5293628 C38.4754243,53.5049574 38.5129988,53.4254589 38.5903227,53.3749567 C38.6675257,53.3244546 38.7850821,53.3023448 38.8126287,53.2205507 C38.8293017,53.17174 38.8427125,53.0936913 38.8719506,53.0222875 C38.8893485,52.9795178 38.8895901,52.9119802 38.8975641,52.8735599 C38.9224527,52.7509292 39.0791543,52.6820626 39.0732342,52.5821457 C39.064052,52.4281021 39.0473791,52.3139286 39.0577695,52.2407126 C39.0632063,52.2020507 39.142584,52.201205 39.2252239,52.1643553 C39.2750011,52.1422455 39.3125757,52.0835278 39.3734682,52.0611763 C39.4274741,52.0412413 39.5258203,52.0788158 39.5797054,52.0582767 C39.6320198,52.0383416 39.6404771,51.9602929 39.6843342,51.9392705 C39.7101894,51.926947 39.7960913,51.9212685 39.8178387,51.8984338 C39.8540842,51.860376 39.8244837,51.8020206 39.8633872,51.7890931 C39.9244006,51.7689164 40.0836394,51.9128112 40.1259258,51.910274 C40.1719577,51.9074952 40.1172269,51.7563512 40.1706287,51.7749573 C40.239012,51.799121 40.2767073,51.8271509 40.3566892,51.8242512 C40.5178611,51.8183311 40.6738378,51.7045201 40.7582899,51.6218802 C40.849387,51.5325954 40.9565531,51.505532 41.0735054,51.4921212 C41.1435801,51.4841472 41.1579575,51.423013 41.2235619,51.4430689 C41.2412014,51.4483849 41.2804675,51.6146311 41.3499381,51.6236925 C41.4289534,51.6340829 41.6176719,51.44029 41.6436479,51.4443979 C41.6696239,51.4485057 41.7715947,51.5004577 41.8143644,51.4760523 C41.9078779,51.423013 41.949802,51.486926 42.0375162,51.4559964 C42.0592635,51.4483849 42.0950258,51.4405317 42.1274052,51.430987 C42.1657046,51.4196301 42.1750077,51.4162472 42.1648589,51.3709402 C42.1557975,51.3309493 42.1367082,51.280568 42.1632883,51.2711441 C42.2481029,51.2414228 42.3396833,51.2129096 42.4229272,51.1949077 C42.4881692,51.1807719 42.5354093,51.2059021 42.5902609,51.1842756 C42.6668598,51.154071 42.6929566,51.0541541 42.7433379,51.0348231 C42.7741466,51.0229829 42.7846578,50.9718767 42.8159498,50.9508543 C42.868385,50.9159377 42.9413594,50.9088094 42.9901701,50.8969692 C43.0138505,50.8911699 43.0788509,50.9405847 43.1034979,50.955687 C43.1190834,50.9653525 43.1538792,51.1605952 43.1836005,51.1868128 C43.217913,51.2170174 43.4148471,51.237315 43.4606374,51.23659 C43.5140391,51.2358651 43.576019,51.1656696 43.6364283,51.140781 C43.7538639,51.0924536 43.9001751,51.0772304 44.0963843,51.0748141 C44.1674256,51.0740892 44.2368962,51.0053434 44.299601,51.0030479 C44.3487742,51.0012356 44.4095459,50.9985776 44.4482078,50.9937449 C44.5069256,50.9864957 44.6409133,50.9768303 44.7167873,50.9591908 C44.7623359,50.9485587 44.679092,50.8546828 44.7272985,50.8481586 C44.76294,50.8433258 44.8046224,50.8641066 44.8407471,50.8584281 C44.9050226,50.8482794 44.9638612,50.8421176 45.0240288,50.829915 C45.0951909,50.8152959 45.1707024,50.8177123 45.2233793,50.7942735 C45.2860841,50.7663644 45.3498763,50.7200909 45.4429065,50.6944774 C45.5250631,50.6717635 45.5828144,50.6422838 45.6690788,50.6317726 C45.7656128,50.6204157 45.8593679,50.6384176 45.9369334,50.6333433 C45.989127,50.6298395 46.0113576,50.5420045 46.0535232,50.5488911 C46.1221482,50.5600064 46.2322138,50.5165118 46.3082087,50.5523949 C46.3809414,50.5867073 46.4182743,50.6399883 46.4914903,50.6427671 C46.5854871,50.6462708 46.6555619,50.623557 46.7021978,50.6138915 C46.7112592,50.6120792 46.776622,50.6598025 46.7844752,50.6960481 C46.7974028,50.7565781 46.7953489,50.8433258 46.8164921,50.8662813 C46.873156,50.9278988 47.0505175,50.9479546 47.0906293,51.0003899 C47.1737524,51.1082808 47.2377862,51.2149635 47.3203053,51.2327239 C47.377694,51.2450473 47.3703241,51.0690148 47.4337538,51.0419514 C47.4913843,51.0171836 47.7042665,50.9121924 47.8078079,50.9448134 C47.8990259,50.973689 47.9060334,51.1335319 47.983478,51.1427141 C48.0655138,51.152742 48.1058672,51.0953532 48.1807746,51.1144425 C48.2653476,51.136069 48.3824207,51.235261 48.4377556,51.2615995 C48.5019102,51.2921666 48.5501168,51.3349363 48.6792718,51.2826219 C48.7246995,51.2640158 48.7890958,51.1308739 48.8389938,51.1442847 C48.9031485,51.1613201 48.9652492,51.3514884 49.0329075,51.3688863 C49.0780937,51.3803641 49.1543301,51.3512468 49.197704,51.3653826 C49.3592383,51.417697 49.4871851,51.531508 49.5843232,51.5897425 C49.7457367,51.686639 50.0173367,51.7819648 50.2563157,51.8632756 C50.3294109,51.8881642 50.4052849,51.8607384 50.4694395,51.8725786 C50.5078598,51.8797069 50.549663,51.9623468 50.5826465,51.9630717 C50.6327862,51.9641591 50.6603328,51.9720123 50.6936787,51.9584806 C50.9076483,51.8716121 50.9042653,51.7528475 51.1245175,51.6599381 C51.1715159,51.6401238 51.1990625,51.6002537 51.2268507,51.5660621 C51.2836354,51.4963498 51.2587468,51.4941751 51.2340999,51.4034404 C51.2495646,51.3694904 51.2833938,51.2582166 51.2958381,51.1531045 C51.3081616,51.0479924 51.2866559,51.0696189 51.2432821,51.0355481 C51.2002707,51.0015981 51.2063116,50.9891537 51.2743324,50.9954363 C51.3422324,51.0015981 51.3574555,51.0170628 51.3790821,51.0448511 C51.4008294,51.0726393 51.4593055,51.0757806 51.4840733,51.0757806 C51.5087203,51.0757806 51.5951055,51.0974071 51.6323176,51.0974071 C51.6692881,51.0974071 51.675329,51.1128719 51.650682,51.1654279 C51.6259143,51.217984 51.6445203,51.2396105 51.684632,51.261237 C51.7248646,51.2828635 51.7495116,51.2921666 51.8205529,51.3014696 C51.8913525,51.3107726 51.9408881,51.3478639 51.9840203,51.3756521 C52.0271525,51.4034404 52.1815586,51.3911169 52.233873,51.3880964 C52.2865498,51.3849552 52.2834086,51.3942582 52.3235203,51.4158847 C52.363632,51.4375112 52.397582,51.443673 52.4531585,51.4282082 C52.5087351,51.4127434 52.533382,51.443673 52.6445351,51.4590169 C52.7555673,51.4746025 52.8111438,51.4590169 52.8512555,51.4067025 C52.8913673,51.3540256 52.9683286,51.3849552 53.0827438,51.4067025 C53.1967964,51.4282082 53.2615552,51.4375112 53.3141112,51.4067025 C53.3665464,51.3756521 53.5083874,51.4343699 53.567226,51.4714612 C53.6258229,51.5085525 53.6629142,51.5209968 53.7215112,51.5363407 C53.7799874,51.5518055 53.7770877,51.5735528 53.7954521,51.6075028 C53.8139374,51.6415737 53.8634729,51.7187767 53.8974229,51.7280797 C53.9312521,51.7373827 53.9591612,51.7683123 53.9838082,51.7899388 C54.008576,51.8115653 54.0515873,51.8208683 54.0794964,51.783777 C54.107043,51.7466858 54.1719226,51.7466858 54.2214582,51.7528475 C54.2707521,51.7590093 54.2922578,51.7280797 54.3138843,51.6786649 C54.3356316,51.6291294 54.3509756,51.5518055 54.3694608,51.4807642 C54.3879461,51.4096021 54.4682904,51.4250669 54.5084021,51.4343699 C54.5486347,51.443673 54.6133934,51.4714612 54.6410608,51.4559964 C54.6689699,51.4405317 54.6811726,51.4405317 54.7089608,51.4498347 C54.7366283,51.4590169 54.7583756,51.4590169 54.8232551,51.4375112 C54.8880138,51.4158847 54.8631252,51.3570461 54.8540638,51.3107726 C54.8447608,51.2643783 54.8139521,51.2088018 54.7800021,51.1808927 C54.7459313,51.1531045 54.7398904,51.1685692 54.7583756,51.1438014 C54.77674,51.1190336 54.7891843,51.1035689 54.7645373,51.0819424 C54.7398904,51.0603158 54.7430316,51.0511336 54.752093,50.9954363 C54.7613961,50.939739 54.7027991,50.939739 54.650243,50.9212537 C54.5979286,50.9026477 54.5886256,50.8717182 54.5732816,50.8254447 C54.5578169,50.7790504 54.5793226,50.7511413 54.6347783,50.6955648 C54.6903548,50.6398675 54.6535051,50.6244027 54.616293,50.6244027 C54.5793226,50.6244027 54.5824638,50.6398675 54.5732816,50.6027762 C54.5639786,50.5656849 54.5453726,50.5656849 54.5084021,50.5502201 C54.4714316,50.5347554 54.4836343,50.5069671 54.4990991,50.4853406 C54.514443,50.4635933 54.5115434,50.4605728 54.4960786,50.417199 C54.480493,50.3740667 54.4775934,50.3802285 54.4990991,50.3276724 C54.5208464,50.2751164 54.50514,50.2627929 54.4960786,50.2255808 C54.4868964,50.1883687 54.50514,50.1854691 54.5237461,50.1267513 C54.5423521,50.0679127 54.4990991,50.0928013 54.4682904,50.0679127 C54.4374816,50.0432657 54.4496843,49.9752449 54.4621286,49.9350123 C54.4743313,49.8947797 54.4743313,49.8947797 54.4496843,49.8330415 C54.4249165,49.7711824 54.4249165,49.7618794 54.4405021,49.7310707 C54.4558461,49.7001411 54.3819051,49.6753733 54.3294699,49.6660703 C54.2770347,49.6567673 54.1164669,49.6506056 54.0608904,49.6474643 C54.0053139,49.6444438 53.9838082,49.6414233 53.9375347,49.6506056 C53.8911404,49.6597878 53.8510286,49.662929 53.7954521,49.6597878 C53.7398756,49.6567673 53.7244108,49.6474643 53.7398756,49.610373 C53.7553404,49.5734025 53.7398756,49.5642203 53.7059256,49.5642203 C53.6720964,49.5642203 53.601176,49.5732817 53.5238521,49.5794435 C53.4466491,49.585726 53.4191025,49.4681696 53.4437495,49.4342196 C53.4682756,49.4001488 53.4374669,49.3198045 53.3973552,49.2796927 C53.3572434,49.2394602 53.3542229,49.2271367 53.3572434,49.1529541 C53.3603847,49.0787716 53.3818904,49.0756303 53.440729,49.0570242 C53.4992051,49.0384182 53.4622347,48.9766799 53.4374669,48.9550534 C53.4126991,48.9334269 53.4035169,48.9241239 53.3696877,48.8468 C53.3357377,48.7694762 53.3510817,48.707738 53.363526,48.6582024 C53.3758495,48.6087876 53.4035169,48.6211111 53.4345673,48.6149493 C53.465376,48.6087876 53.5394377,48.525302 53.5702464,48.466705 C53.601176,48.4078664 53.6287226,48.3862399 53.6659347,48.3058956 C53.7029051,48.2254305 53.7523199,48.213107 53.7924317,48.213107 C53.8325434,48.213107 53.8663726,48.213107 53.9127669,48.1976422 C53.9591612,48.1821775 53.9931112,48.1883392 54.0640317,48.1945009 C54.1350729,48.2006627 54.2120343,48.1790362 54.2707521,48.1419449 C54.3294699,48.1048536 54.3171464,48.0677623 54.3294699,48.0060241 C54.3417934,47.944165 54.4003904,47.9503268 54.4897961,47.9471855 C54.5793226,47.9440442 54.5854843,47.8823059 54.5761813,47.8266086 C54.5669991,47.7710321 54.6410608,47.7802143 54.6997786,47.7276583 C54.7583756,47.6751022 54.7984873,47.7216173 54.8261548,47.7368405 C54.8540638,47.7525469 54.9960256,47.7307995 55.100896,47.709173 C55.2057665,47.6875465 55.174837,47.6473139 55.1193813,47.6163844 C55.0638048,47.5855757 55.0824108,47.5608079 55.1039165,47.5328988 C55.1256638,47.5052314 55.1163608,47.4277867 55.0824108,47.3845337 C55.04834,47.3412807 55.0361373,47.2887246 55.01439,47.2020978 C54.9928843,47.1155917 54.9373078,47.0816417 54.9063783,47.0785004 C54.8756904,47.07548 54.8355786,47.0661769 54.8168517,47.0319853 C54.7984873,46.9981561 54.7583756,46.9919944 54.7151226,46.9919944 C54.6718695,46.9919944 54.6843138,46.8775793 54.6874551,46.8064172 C54.6903548,46.7353759 54.6781521,46.7074668 54.6347783,46.6858403 C54.5917669,46.6642138 54.5578169,46.614799 54.5453726,46.5592225 C54.5331699,46.5034044 54.5115434,46.4849191 54.4621286,46.4416661 C54.4127139,46.3984131 54.4127139,46.311907 54.4127139,46.259351 C54.4127139,46.2067949 54.3879461,46.0892385 54.3757434,46.033662 C54.3631783,45.9779647 54.2955199,45.9531969 54.2644695,45.9408734 C54.2337816,45.9284291 54.1564578,45.9254086 54.0886786,45.8974996 C54.0207786,45.8697113 53.9713639,45.9130852 53.8974229,45.9499348 C53.8233612,45.9872677 53.7987142,45.9254086 53.7862699,45.8944791 C53.7737048,45.8636704 53.6844199,45.8171553 53.601176,45.7833261 C53.5176904,45.7492553 53.5610642,45.7058814 53.576529,45.6471636 C53.5918729,45.5884458 53.5702464,45.5760015 53.5362964,45.5389102 C53.5022256,45.5016981 53.4775786,45.5049602 53.4374669,45.4894955 C53.3973552,45.4740307 53.3818904,45.4369394 53.3572434,45.4091512 C53.3327173,45.3812421 53.2585347,45.3225243 53.2214434,45.3225243 C53.1845938,45.3225243 53.1135525,45.3225243 53.091926,45.2853122 C53.0701786,45.2483417 53.0210055,45.2267152 52.9744904,45.223574 C52.9282169,45.2205535 52.8943877,45.2019474 52.8759025,45.1679974 C52.8574173,45.1341683 52.8419525,45.1402092 52.7986995,45.1618357 C52.7555673,45.1834622 52.6474347,45.1647353 52.607323,45.1184619 C52.5672112,45.0721884 52.4962908,45.0690471 52.4407142,45.0784709 C52.3851377,45.0876531 52.354329,45.0041676 52.354329,45.0041676 L52.2464381,44.1137352 L52.2030642,43.2481914 C52.2030642,43.2481914 52.2234826,42.9686174 52.2411221,42.8288304 C52.2506667,42.7521107 52.269152,42.7615345 52.1913449,42.7473987 C52.1600529,42.7417203 52.1210285,42.738579 52.0822457,42.75054 L51.752532,42.8648343 L51.6785911,43.1430793 L51.4747703,43.1492411 L51.3390911,42.9761082 L51.1137646,42.7287927 L51.1230676,42.6515897 C51.1230676,42.6515897 51.2495646,42.540195 51.2958381,42.515548 C51.3422324,42.4910219 51.3206059,42.4691537 51.2988586,42.4691537 C51.2772321,42.4691537 51.2063116,42.4721742 51.0952794,42.4783359 C50.9841264,42.4846185 50.9687824,42.5093863 50.9687824,42.5093863 C50.9687824,42.5093863 50.9656411,42.5063658 50.9408733,42.4753155 C50.9162264,42.4445067 50.9594794,42.4568302 50.9100646,42.3732238 C50.8606499,42.2897382 50.9285499,42.1970704 50.9594794,42.1538174 C50.9902881,42.1105644 51.0088942,42.1042818 51.0612086,42.1167261 C51.1137646,42.1290496 51.2002707,42.1042818 51.2617673,42.1012614 C51.2823064,42.100174 51.5920851,42.0303409 51.5427911,42.0981201 C51.5180233,42.1321909 51.6741208,42.147414 51.7173739,42.1166053 C51.8013427,42.0565585 52.397582,41.6924116 52.397582,41.5725596 C52.397582,41.5293066 52.422229,41.4798918 52.471523,41.455124 C52.5209377,41.430477 52.4900082,41.4210532 52.4378146,41.3593149 C52.3851377,41.2973351 52.4346733,41.2912941 52.471523,41.2881528 C52.5087351,41.2851324 52.6043025,41.2912941 52.6782434,41.3067589 C52.752426,41.3222237 52.7895173,41.3129206 52.8326495,41.3036176 C52.8759025,41.2943146 53.1721495,41.2171116 53.2307464,41.2016468 C53.2894642,41.186182 53.5238521,41.1181612 53.6195404,41.090373 C53.7152286,41.0625847 53.8109169,41.0163112 53.8480082,41.0163112 C53.8848578,41.0163112 53.9465961,41.0253726 53.9591612,41.0100287 C53.9713639,40.9944431 54.0794964,40.9327048 54.1411139,40.8954927 C54.2028521,40.8584014 54.3601578,40.7936427 54.4065521,40.8028249 C54.4528256,40.8121279 54.4929373,40.8213102 54.5208464,40.7750367 C54.5486347,40.7287632 54.5639786,40.7070158 54.6101313,40.6977128 C54.6564048,40.6885306 54.7273252,40.6265507 54.7583756,40.6019037 C54.7893051,40.577136 54.8201138,40.605045 54.8631252,40.5493477 C54.9063783,40.4936504 54.9960256,40.4813269 55.0361373,40.4721447 C55.0762491,40.4627208 55.2984343,40.3918004 55.3600517,40.36075 C55.42179,40.3298205 55.4525987,40.3452852 55.4928313,40.3112144 C55.532943,40.2772644 55.5607313,40.2712235 55.5946813,40.2741231 C55.6286313,40.2772644 55.6378135,40.2772644 55.6532782,40.2371527 C55.6686222,40.1969201 55.7243195,40.2185466 55.7767548,40.2030819 C55.8293108,40.1876171 55.8508165,40.1783141 55.9185957,40.1907584 C55.9866165,40.2030819 55.989637,40.2155262 56.0237078,40.1752936 C56.057537,40.1351819 56.0605574,40.1382023 56.1532252,40.1195963 C56.2457722,40.1011111 56.2364692,40.091808 56.2457722,40.0454137 C56.2550752,39.9990194 56.3568044,39.9680899 56.3969161,39.9309986 C56.4371487,39.8939073 56.5822517,39.8351895 56.6129396,39.8197248 C56.6438692,39.80426 56.7209514,39.7485627 56.7673457,39.7485627 C56.8136191,39.7485627 56.8475691,39.7548452 56.8846604,39.7269361 C56.9216309,39.6991479 56.9432574,39.6991479 57.0142987,39.6991479 C57.0852191,39.6991479 57.1438161,39.6682184 57.1623013,39.6218241 C57.1809074,39.5754297 57.2456661,39.5693888 57.3105457,39.5291563 C57.3753044,39.4889237 57.6406218,39.482762 57.7115423,39.4766002 C57.7827044,39.4704385 57.862807,39.3900942 57.8351396,39.3467203 C57.7843958,39.267705 57.9148798,39.3026216 57.7959944,39.2411249 L57.6854455,39.2493406 L57.6362723,39.1346838 L57.6732428,39.0896185 L57.5543574,38.7908344 L57.591207,38.6885011 L57.5381677,38.5288999 C57.5381677,38.5288999 57.914759,38.1442138 58.0251871,37.9846125 C58.1354944,37.8248905 58.254259,37.5589689 58.3197426,37.391152 C58.3852262,37.2233351 58.3811184,37.0596261 58.4057654,36.9204431 C58.4302915,36.781381 58.4671412,36.3843714 58.4753568,36.3351983 C58.4835725,36.286146 58.5663332,35.5955474 58.5670581,35.361522 C58.567783,35.1276174 58.6055992,34.8645955 58.5944839,34.8354782 C58.5758778,34.7871508 58.8785282,34.1832999 58.8724873,34.0425464 C58.8345503,33.182077 58.8117156,33.1059614 58.8130446,33.0651247 C58.8138903,33.039632 60.4620963,32.6032356 60.7468655,32.5282073 C60.7756203,32.5205957 61.2512828,32.4613946 61.2729093,32.432519 C61.3520454,32.3270445 61.4026684,31.9422375 61.4006144,31.8829156 C61.3998895,31.8594769 61.3138668,31.6427285 61.3458837,31.5579139 C61.4078636,31.3949297 61.4913491,31.2550219 61.5172043,31.1947334 C61.5861917,31.0336824 61.7488134,30.5105383 62.097858,30.1242815 C62.3819023,29.8097909 62.8236148,29.2396484 63.1555032,28.8568954 C63.1726594,28.8369604 63.7258874,28.6769967 63.8187968,28.6040223 C63.890563,28.5478417 64.0180265,28.0990009 64.0975251,28.0383501 C64.2557973,27.9176524 64.4248224,27.8009417 64.562193,27.7134691 C64.6543776,27.6548721 64.7505491,27.5938588 64.8510701,27.5373157 C64.9803459,27.4647038 65.3047436,28.353928 65.4551626,28.3389465 C65.4641032,28.3381008 65.4430807,28.1596518 65.5927749,27.9843442 C65.65258,27.9142694 65.6941416,27.7552723 65.7672368,27.6809689 C65.8245048,27.6230969 65.8568841,27.5483102 65.9174142,27.4996203 C66.1336793,27.3256417 66.3767661,27.2356319 66.4263017,27.2161801 C66.5553359,27.1655572 66.581916,27.152388 66.6825578,27.1058728 C66.7833204,27.0592369 66.9574199,26.9647568 67.0377642,26.9246451 L67.189633,26.8426093 C67.189633,26.8426093 67.6805186,26.5200239 67.6439106,26.2625597 C67.6394403,26.2305428 67.4155636,26.1094826 67.4115766,26.0850773 C67.4103684,26.0772241 67.3688069,25.9626882 67.3357026,25.9207641 C67.3106932,25.8888681 67.555109,25.6248796 67.543148,25.5751024 C67.5319118,25.5277416 67.1507295,25.2659279 67.1324859,25.2259369 C67.0787216,25.1094679 67.1229412,24.9106006 67.1195583,24.8592528 C67.1187126,24.8433047 66.8852912,24.84113 66.8873451,24.79389 C66.8898823,24.7320309 66.9289067,24.4639346 66.9421967,24.3471031 C66.9478752,24.2978092 67.0416304,24.2933389 67.0575784,24.2445282 C67.1109802,24.0805775 67.3025983,23.9546846 67.4607497,23.8314498 C67.7671455,23.5923902 67.9175645,23.4399978 67.9120069,23.3742726 Z" id="Fill-1"></path>
            </g>
        </g>
    </g>
</svg>