<?xml version="1.0" encoding="UTF-8"?>
<svg width="200px" height="200px" viewBox="0 0 200 200" version="1.1" xmlns="http://www.w3.org/2000/svg" xmlns:xlink="http://www.w3.org/1999/xlink">
    <title>jdo_cn_media_my_folder_favorite_saved</title>
    <defs>
        <linearGradient x1="10.4938272%" y1="0%" x2="65.3284486%" y2="100%" id="linearGradient-1">
            <stop stop-color="#BECBD4" stop-opacity="0.1" offset="0%"></stop>
            <stop stop-color="#8B9DAA" stop-opacity="0.00145406609" offset="100%"></stop>
            <stop stop-color="#899CA9" stop-opacity="0" offset="100%"></stop>
        </linearGradient>
    </defs>
    <g id="jdo_cn_media_my_folder_favorite_saved" stroke="none" stroke-width="1" fill="none" fill-rule="evenodd">
        <g id="2_IconFolder/ICN/Special/myfolder/45Format" transform="translate(-0.000000, 0.000000)">
            <rect id="矩形" fill-opacity="0.1" fill="#899CA9" x="2.7000624e-13" y="0" width="200" height="200"></rect>
            <polygon id="路径-2" fill="url(#linearGradient-1)" opacity="0.5" points="2.56539829 0 49.2770745 0 177.777778 200 -5.04870979e-29 200 -5.04870979e-29 0"></polygon>
            <g id="编组" transform="translate(65.000000, 65.000000)">
                <rect id="矩形" x="0" y="0" width="70" height="70"></rect>
                <g id="E9E3_media_mymusic" transform="translate(7.000000, 10.500000)" stroke="#FFFFFF" stroke-width="1.2">
                    <path d="M51.7315253,23.7152033 L27.7500853,48.2018683 L3.77186526,23.7184058 C-0.0314873541,19.6225186 -1.05957289,13.6681075 1.15013508,8.53400848 C3.35984304,3.3999094 8.39103002,0.0533994331 13.9802103,0 C20.3322284,-0.0154929541 25.9366039,4.15210117 27.7500853,10.2397658 L27.7500853,10.2397658 C29.5635666,4.15210117 35.1679422,-0.0154929541 41.5199603,0 C47.1083094,0.0534669577 52.1388875,3.39902745 54.3491069,8.53200227 C56.5593262,13.6649771 55.5329175,19.6186294 51.7315253,23.7152033 L51.7315253,23.7152033 Z" id="路径"></path>
                </g>
            </g>
        </g>
    </g>
</svg>