<?xml version="1.0" encoding="UTF-8"?>
<svg width="120px" height="120px" viewBox="0 0 120 120" version="1.1" xmlns="http://www.w3.org/2000/svg" xmlns:xlink="http://www.w3.org/1999/xlink">
    <title>jdo_cn_ximalaya_radio_province_beijing</title>
    <g id="jdo_cn_ximalaya_radio_province_beijing" stroke="none" stroke-width="1" fill="none" fill-rule="evenodd">
        <g id="编组">
            <rect id="矩形" x="0" y="0" width="120" height="120"></rect>
            <g id="北京-" transform="translate(24.000000, 23.000000)" fill="#FFFFFF" fill-opacity="0.189284" fill-rule="nonzero">
                <path d="M71.726478,17.8272572 C71.6873179,17.7813012 72.0956006,18.1859966 71.9789686,18.4195944 C71.8914593,18.5946514 71.8349104,18.6343856 71.7729894,18.7385996 C71.4295966,19.3163724 70.7792849,19.2033914 70.313888,18.79205 C70.1487654,18.6462635 69.9499962,18.7172478 69.8552769,18.7500533 C69.7088154,18.8006756 69.9044744,19.365015 69.7416137,19.675536 C69.7079672,19.7394502 69.4293227,19.8611982 69.3247074,19.7687206 C69.2817303,19.730966 69.2352189,19.5573231 69.1174559,19.485349 C69.0467698,19.4423625 68.9264622,19.3879223 68.8327325,19.5552021 C68.7920173,19.628166 68.8263707,19.7880928 68.8362668,19.881843 C68.8677928,20.1790722 68.6722752,20.8587965 68.6827367,21.0180163 C68.6933396,21.1772361 69.3886076,22.400655 68.8997429,22.416775 C68.4107368,22.4326121 68.4139883,22.2246083 68.0731402,22.3877873 C67.7325748,22.5509664 67.8325249,22.9020701 67.4717433,22.6581499 C67.2124668,22.4825274 66.8536644,22.0431882 66.472808,21.9412366 C66.3238018,21.9015024 66.1569827,22.1992971 65.965989,22.211175 C65.7871533,22.2222044 65.4994611,22.0877301 65.2759518,22.1386352 C65.1022055,22.1783695 64.9964592,22.3893428 64.820875,22.4881835 C64.3659396,22.7441229 63.9514366,22.8612046 63.9514366,22.8612046 C63.9514366,22.8612046 62.8737571,23.2108943 63.0647508,23.6885537 C63.2557445,24.1662131 63.4186052,24.487198 63.4186052,24.4941267 C63.4186052,24.5011969 63.6732163,25.1218147 63.2807674,25.0177421 C63.0600855,24.9593426 62.6653746,25.079111 62.3429048,25.0970692 C62.0921107,25.1112095 61.7051753,24.8445234 61.6172418,25.0860397 C61.4155039,25.6379357 61.6660152,25.8967032 61.8883935,26.1052727 C62.1109132,26.3135593 62.4445514,27.3081882 62.5931335,27.4354509 C62.6441688,27.4792858 62.7742311,27.6899763 62.9604182,27.8419846 C63.1466052,27.9939928 63.3886343,28.0876016 63.3702559,28.2637898 C63.353574,28.4239994 62.9503808,28.7493677 62.9106552,28.8920434 C62.8549546,29.0917045 62.6854494,29.1697589 62.6174495,29.3206359 C62.5300815,29.5144995 62.5494495,29.7554502 62.5494495,29.7554502 C62.5494495,29.7554502 62.7176823,29.9098623 62.6874286,30.0969385 C62.6485513,30.3374651 62.4027052,30.6320075 62.3371086,30.7215157 C62.2203352,30.880594 62.1008758,31.1659453 62.39804,31.3569808 C62.6952041,31.5480163 62.9102311,31.6420493 62.9632456,31.8012691 C63.0046676,31.9255624 63.0696988,32.2322655 63.2072539,32.5929846 C63.2239358,32.6371023 63.2818983,32.7379227 63.3705386,32.7817576 C63.4843432,32.8383188 63.6344803,32.8386016 63.655262,32.9012432 C63.7294824,33.1239529 63.6695406,33.2884047 63.6692579,33.4412613 C63.6686924,33.6981906 63.7412163,33.8668844 63.8274533,34.0999166 L64.3949209,34.6320161 L64.4767753,35.0344491 C64.4767753,35.0344491 64.374846,35.2475435 64.4928917,35.3032563 C64.5548127,35.3325267 64.6329915,35.3598175 64.7274281,35.3745234 C64.899902,35.4018142 65.8258893,34.7629553 65.8798934,34.9791605 C65.9044922,35.0777184 65.9782884,35.2498059 65.9413903,35.6682175 C65.9044922,36.086629 65.9905878,36.5788529 66.1752197,37.0833789 C66.3597103,37.5880462 66.5319015,37.5386966 66.9256228,37.4771863 C67.3193441,37.4158174 67.8606579,37.6617172 67.9098554,37.7724358 C67.9590529,37.8831543 67.8834188,38.0430812 67.6402588,38.0228605 C67.3969574,38.0024985 67.4375312,38.3270184 67.5794688,38.5299317 C67.7214064,38.7327037 67.8834188,38.7936484 67.6200426,38.7936484 C67.3563836,38.7936484 67.4577474,39.037003 67.5185374,39.3005782 C67.5794688,39.5641534 67.5589699,39.5033501 67.863344,39.4021056 C68.1674354,39.3005782 68.1674354,39.3005782 68.2687992,39.4221848 C68.3703043,39.5440742 68.309373,39.5440742 67.9850654,39.8684527 C67.6606164,40.1929727 67.3563836,40.030642 66.9711447,40.030642 C66.5857643,40.030642 66.4640429,40.2336967 66.6871281,40.5579338 C66.9102133,40.8824538 66.7886333,40.9230364 66.6669119,41.0853671 C66.5453319,41.2475564 66.4640429,41.3694458 66.5655481,41.5314936 C66.6669119,41.6939657 66.5857643,41.734407 66.4033943,41.8965962 C66.2208829,42.0590683 65.9155192,41.999679 65.643802,41.8364999 C65.3722262,41.6733209 65.100509,41.8229253 64.9237939,42.1217098 C64.7472202,42.4207772 64.638505,42.6654044 64.407503,42.6109643 C64.1766424,42.5565241 64.1766424,42.6246804 63.9184969,42.8420168 C63.6604928,43.0594946 63.6876363,43.1000773 63.4023474,42.937181 C63.1170585,42.774002 62.5871958,43.0865026 62.4377655,43.3175552 C62.2883352,43.5484663 62.3561938,43.7389362 62.0437615,43.7659441 C61.7313291,43.7930935 61.6265724,43.9339309 61.5858572,44.1515502 C61.5450007,44.3688866 61.5090922,44.4405779 61.4955205,44.6987798 C61.488876,44.8278808 61.3675787,44.9542951 61.2523605,44.9016932 C61.1371422,44.8490913 61.0424229,44.6900129 61.0017077,44.5676992 C60.9202774,44.323072 60.7192463,44.3038412 60.6785311,44.6026258 C60.6376746,44.9015518 60.780319,45.0432376 60.3184564,44.7987518 C59.8565937,44.5541246 59.8294503,44.5814153 59.8701654,44.7173036 C59.9108806,44.8530505 59.8158785,45.1248271 59.5305896,45.1521179 C59.2453007,45.1791259 58.7832967,45.0432376 58.2535755,44.8803413 C57.7237128,44.7173036 57.5199956,44.7987518 57.4519956,44.9346401 C57.384137,45.0705284 57.4384239,45.1927006 57.2752805,45.1112525 C57.1124199,45.0296629 57.0309895,45.0025135 56.8407027,45.1655512 C56.6505572,45.3285889 55.8898339,46.0760452 55.6722623,46.3748298 C55.4551147,46.6737558 55.4551147,46.8913751 55.2648279,46.7824947 C55.0746824,46.6737558 55.0882541,46.6601811 54.8979673,46.728196 C54.7078218,46.7962108 54.6806784,46.7417707 54.5041046,46.6330317 C54.3275309,46.5242928 54.2866743,46.4155539 53.9335268,46.4294114 C53.5802379,46.4429861 53.5530945,46.3341058 53.5123793,46.0623292 C53.4716642,45.7905526 53.3900925,45.8585674 53.0095188,46.0488959 C52.6293692,46.2389415 52.7243712,46.3478219 52.4935106,45.9537316 C52.2625086,45.5597828 52.1130783,45.681955 51.9500762,45.8992915 C51.7870742,46.1166279 51.7870742,46.1030532 51.4746419,45.9537316 C51.1622095,45.8041272 50.8769206,45.9264409 50.4827752,46.1439187 C50.0887712,46.3612551 49.8716236,46.2933817 49.6950499,45.8857168 C49.5183347,45.4780519 49.2924221,45.7926736 49.0656613,45.8727077 C48.8387591,45.9528832 48.3979608,45.9678719 48.3848132,46.3816172 C48.3713829,46.7955038 48.3580939,47.0090224 48.2246386,46.9022631 C48.091042,46.7955038 47.9977364,46.7286202 47.7441149,46.8087957 C47.4904933,46.8888298 47.3838988,47.0223143 47.2905932,46.8353795 C47.1971462,46.6487275 47.2706597,46.5438064 46.9237326,46.6772909 C46.8236411,46.6939764 46.7986183,46.7356903 46.8236411,46.8106339 C46.848664,46.8857189 46.840323,46.9608039 46.6235996,47.2024617 C46.4067348,47.4444023 46.4235581,47.5612012 46.4819448,47.6444875 C46.5401901,47.7279153 46.732032,47.8778025 46.8736869,48.0445167 C47.0153417,48.2113722 46.8153002,48.544942 46.5902358,48.9199428 C46.36503,49.2953678 46.2496704,49.6251196 46.2496704,49.6251196 C46.2496704,49.6251196 46.2028762,49.6485925 46.1528305,49.6966695 C46.1029262,49.7451708 46.0494875,49.8187003 46.0361985,49.9188137 C46.0094792,50.1190404 46.2363814,50.2125078 46.423134,50.0657314 C46.5865601,49.9371961 46.7193085,50.0333501 46.7875912,50.3628192 C46.8290133,50.562763 46.8124727,50.4588318 46.9153916,50.5873672 C46.9486141,50.629081 47.1070922,50.8959085 47.1237741,51.0709655 C47.140456,51.2460224 47.1485142,51.4379063 47.1237741,51.7631333 C47.1072336,51.9762276 46.9975288,52.1942711 46.884007,52.3000405 C46.8244894,52.3551877 46.7556411,52.3625407 46.7068678,52.3884174 C46.5652129,52.463361 46.6320819,52.5052163 46.6402815,52.6300752 C46.6483397,52.7550754 46.6819863,52.7383899 46.848664,52.9968746 C47.0153417,53.2553593 47.1571379,53.4554446 47.2404061,53.6723568 C47.2821109,53.7805301 47.371458,53.8379398 47.4500609,53.8676344 C47.6547677,53.9442748 47.5709341,53.8894105 47.5840817,53.7577642 C47.5905848,53.691022 47.6242313,53.6237142 47.7309673,53.615937 C47.9444391,53.6003827 47.9977364,53.7226963 48.1311917,53.922923 C48.2646469,54.1231496 48.3180856,54.2434836 48.5182685,54.3366682 C48.7184514,54.4301356 48.9186343,54.6838126 49.1186758,54.6838126 C49.3188587,54.6838126 49.4255946,54.7907133 49.4923223,55.0841246 C49.5591913,55.3778186 49.8926881,55.7648387 50.1952244,55.2935424 C50.3162389,55.2847754 50.3790081,55.329883 50.5497856,55.5192216 C50.7204217,55.7085603 50.8012865,55.8618412 50.9989247,56.0513212 C51.1964216,56.2406598 51.2234236,56.1773113 51.2234236,56.04213 C51.2234236,55.9069487 51.1875151,55.7446181 51.1875151,55.4742555 C51.1875151,55.2037515 51.1784673,55.2126599 51.2682386,55.0773372 C51.3581513,54.9421559 51.4210618,55.0144129 51.5557895,55.2577675 C51.6902343,55.5011221 51.8161969,55.9520563 51.9509245,56.2946758 C52.0856521,56.6371539 52.0227415,56.6101459 52.0766043,56.9437157 C52.1306084,57.2775682 52.4044462,57.2253905 52.3757476,57.2748815 C52.3471905,57.324514 52.3247123,57.3672177 52.307889,57.4049723 C52.2174109,57.6085927 52.2934691,57.6604876 52.4699015,57.8057085 C52.6789908,57.9779373 52.7775271,57.8550581 52.8144253,58.0271456 C52.8496269,58.1914559 52.6276727,58.232887 52.3084545,58.2574911 C52.2929036,58.2586223 52.2711323,58.2734696 52.2608121,58.2611676 C52.2284379,58.2225646 52.1884296,58.1889106 52.1529452,58.1733563 C52.054833,58.130087 52.0087457,58.1232996 51.9185503,58.177457 C51.8341511,58.2280793 51.5986252,58.4343863 51.6423092,58.5550031 C51.6621013,58.609726 51.6833071,58.6716605 51.6948996,58.740948 C51.7317977,58.9625266 51.5102676,59.1716616 51.2765796,58.9871307 C51.0428915,58.8025997 51.092089,58.9625266 51.0303094,59.0855472 C50.9689539,59.2085678 51.005852,59.442307 51.1043883,59.5653276 C51.2027833,59.6884897 51.4979683,59.7993496 51.608804,60.0822971 C51.719357,60.3653859 51.707199,60.4513589 51.4118727,60.5620775 C51.1165463,60.6727961 50.8828583,60.7837974 50.7229664,60.980489 C50.5629332,61.1774634 50.6368708,61.5219212 50.6614695,61.8296142 C50.6860683,62.1371657 50.8213614,62.1371657 50.7597232,62.3709049 C50.6983677,62.6049269 50.6614695,62.5309731 50.8705589,62.6293896 C51.0796482,62.7279475 51.092089,62.7156455 51.0303094,62.8878744 C50.9689539,63.0601032 50.8213614,63.207728 50.6121307,63.1708218 C50.5510579,63.1600752 50.535507,63.1087459 50.491823,63.105635 C50.4653864,63.1037968 50.4137856,63.1322188 50.3897524,63.1419756 C50.3781599,63.1467833 50.359216,63.1531464 50.3474821,63.1568229 C50.297295,63.1716702 50.2537524,63.2057483 50.20611,63.2695211 C50.095557,63.4171459 50.024871,63.4129038 49.9172868,63.4785148 C49.8101268,63.5441258 49.608106,63.4448608 49.4668753,63.5596801 C49.3570292,63.6490468 49.4216362,63.9140361 49.3614117,64.1183634 C49.2709336,64.4249252 48.9353162,64.4997274 48.7214202,64.6920355 C48.6726468,64.7360118 48.6216115,64.8178842 48.5794826,64.8980597 C48.3856615,65.2665559 48.6455034,65.1852492 48.6463516,65.5448371 C48.6469171,65.8502676 48.2512166,65.7838082 48.062909,65.7979485 C47.6013291,65.7979485 47.5170713,66.0164161 47.3898364,66.3269372 C47.2989341,66.5500711 47.0351338,66.8099699 46.8312752,66.7080183 C46.5126225,66.5487985 45.7866768,65.848995 45.5025188,65.9327056 C45.2185023,66.0162747 44.8174297,65.8823661 44.4162156,65.7485988 C44.015143,65.6151144 43.8648644,65.8990516 44.2158914,66.1832717 C44.5667769,66.4673504 44.7505606,66.5844321 44.8174297,66.7013724 C44.8842987,66.8183127 44.8174297,67.1359038 44.5332717,67.1192183 C44.2492552,67.1025327 44.2492552,67.1527308 43.9819205,66.8519666 C43.7143031,66.5509196 43.0293553,66.4508062 42.8622535,66.4172937 C42.6951517,66.3837812 42.645106,66.4004667 42.5780956,66.5175484 C42.5113679,66.6346301 42.5113679,66.8183127 42.2607152,66.5677465 C42.0100625,66.3168976 41.8595012,66.4673504 41.7592684,66.6346301 C41.6590356,66.8016271 41.3248319,66.5175484 41.1577301,66.1163881 C40.9906283,65.7153691 40.6564246,65.3976365 40.5225452,65.5647749 C40.38909,65.7319133 40.38909,65.7821113 40.1718011,65.6316585 C39.9545121,65.4812057 39.3529738,65.5480893 39.3696558,65.9659353 C39.386479,66.3837812 39.4198429,66.6513157 38.9519012,66.6513157 C38.4838182,66.6513157 37.9994774,66.4840359 37.8490574,67.1695578 C37.6986375,67.8546554 37.6651323,67.9549101 37.5482176,68.0888188 C37.4313029,68.2224446 37.414621,68.2056177 37.414621,68.4899792 C37.414621,68.7739164 37.1638269,69.074822 36.7795775,68.8241145 C36.3951868,68.5734069 36.0274779,68.3728975 36.1612159,68.8741712 C36.2949539,69.3757277 36.2279436,69.6598063 35.9607503,69.8270861 C35.6932743,69.9940831 35.5763596,69.9773975 35.2755197,69.9773975 C34.9746799,69.9773975 34.9413161,69.960712 35.024867,70.3785579 C35.1082765,70.7964038 34.9915032,70.946998 34.8075781,70.8467433 C34.6237943,70.7464885 34.4566925,70.6462338 34.4566925,70.3618723 C34.4566925,70.0776522 34.4066468,69.9940831 34.0556199,69.9773975 C33.7047343,69.960712 33.3538488,70.0442811 33.6545472,70.3453282 C33.9553871,70.6462338 34.1559941,71.0640797 34.0724431,71.4484131 C33.9888922,71.8327465 33.972069,71.9163157 34.2227217,71.7826898 C34.4733744,71.6489226 34.5402434,71.6320956 34.5402434,71.9163157 C34.5402434,72.2005358 34.5068796,72.3007905 34.8244014,72.1335107 C35.1417817,71.9665138 35.2588378,72.1837088 35.3757525,72.6183817 C35.4160436,72.7677033 35.4246673,72.8993495 35.4192952,73.0069572 C35.4096818,73.2042144 35.3784386,73.3808268 35.3686839,73.5848713 C35.3609085,73.747909 35.2677443,73.9423382 35.1666632,73.9813654 C35.0655822,74.0201098 34.8556446,73.9967783 34.762339,73.9267838 C34.6690334,73.8569307 34.4824222,73.794572 34.054913,73.5459855 C33.6272624,73.2971162 33.3162438,73.3748878 32.9509383,73.3903008 C32.5854914,73.4058551 32.088003,73.4215508 31.8158617,73.3825236 C31.5438618,73.3437792 30.9684773,72.698133 30.7585397,72.3327476 C30.5487435,71.9672208 30.4709889,71.881672 30.2455004,71.7651559 C30.0200119,71.6486398 29.6312386,71.4618464 29.3670142,71.329776 C29.1026483,71.1974228 28.5272639,70.676494 28.3717546,70.4742877 C28.2163866,70.2720814 28.2319376,70.1554239 28.2785904,69.6344952 C28.3252431,69.1135665 28.2112972,69.3255296 28.3307567,68.661501 C28.4503575,67.9971896 27.9708233,67.9782416 27.9681372,67.9687676 C27.7686612,67.9119236 27.6872309,67.7346042 27.6193722,67.6121492 C27.5513723,67.4894114 27.4671145,67.4672111 27.4208858,67.4646659 C27.3745158,67.4616964 27.3360626,67.4560403 27.3026987,67.4479803 C27.1587819,67.4124882 27.1142497,67.3284948 26.9638298,67.2182004 C26.7360794,67.051062 26.4171439,66.944727 26.1286034,67.0663336 C25.8399216,67.1879402 25.8399216,67.2788623 25.5817762,67.2942752 C25.3236307,67.3092639 25.3387575,67.3702086 25.2171775,67.5524771 C25.0957389,67.7346042 25.0198221,67.7194741 24.7160134,67.8106791 C24.4834563,67.8803907 23.9927538,67.8344348 23.7754648,67.8089822 C23.6290033,67.7920139 23.6536021,67.7737729 23.5682133,67.6455203 L23.5085543,67.5560122 C23.3912155,67.3799655 23.418783,67.4454351 23.2238309,67.5015721 C22.8613528,67.6062103 22.2280058,67.7156562 21.8454529,67.7651473 C21.3746838,67.8258092 21.0861434,67.7498758 20.7672079,67.5372056 C20.4481311,67.3245355 20.4026093,67.2788623 19.9622352,67.4006103 C19.5217197,67.5220755 19.5976365,67.3549371 19.5825097,67.0206604 C19.5673829,66.6865251 19.4002811,66.5346582 19.1876574,66.5649185 C18.9750338,66.5953201 19.0660774,66.7930015 19.0356824,67.2333305 C19.0054288,67.6739423 19.0660774,67.9321442 18.655957,68.068881 C18.2459779,68.2056177 17.8358574,67.5220755 17.5624438,67.0056717 C17.2890301,66.488985 16.8941778,66.4739963 16.787866,66.6257218 C16.6815542,66.7775886 16.6664274,67.0359319 16.787866,67.1879402 C16.909446,67.3396656 16.9853628,67.3092639 16.879051,67.6284106 C16.7727392,67.9474158 16.6360324,67.9474158 16.3322237,67.9778174 C16.0285565,68.0080777 16.0588101,68.0080777 16.0285565,68.2815511 C15.9981615,68.5551659 15.9981615,68.661501 15.7094796,68.7374344 C15.4209392,68.8132265 15.2235837,68.7980963 14.9046483,68.661501 C14.5855714,68.5247643 14.5249228,68.5854262 14.5096546,68.8132265 C14.4945278,69.0411681 14.2211142,69.0411681 14.0236173,69.0411681 C13.8262619,69.0411681 13.8717837,69.0714284 13.8413887,69.2538383 C13.8109937,69.4361068 13.7958669,69.3753035 13.6440333,69.5424418 C13.4920582,69.7097216 13.6591601,69.8919901 13.8109937,70.2716572 C13.9629687,70.6514657 13.9325737,70.6665958 13.5073264,70.4995989 C13.0819378,70.3324605 12.5807737,70.3779923 12.5807737,70.3779923 C12.5807737,70.3779923 12.2314432,70.4539257 11.8972396,70.3020588 C11.5633187,70.1500506 11.7150109,70.1500506 11.3505537,70.1957238 C10.9860964,70.2412555 11.07714,70.0741172 11.0012232,69.5879736 C10.925165,69.1021128 10.9100382,69.0411681 10.6822877,68.7828248 C10.4543959,68.5247643 10.0746705,68.3119528 9.51285773,68.1298257 C9.23180999,68.0384793 9.17865408,67.8827946 9.19717383,67.751007 C9.22148983,67.5784953 9.34914884,67.5182576 9.39099498,67.3596034 C9.3994773,67.3269393 9.40612179,67.291023 9.40838375,67.2534098 C9.4177143,67.1026741 9.47426315,66.7917289 9.28595551,66.4810665 C9.09764787,66.1701212 8.64129873,65.7122583 8.58630498,65.6989664 C8.53131123,65.6859573 8.48479981,65.6788871 8.44549837,65.6774731 C8.17081238,65.6679991 8.25210134,65.9287463 8.25210134,66.1547083 C8.25210134,66.4130516 7.66611398,66.4076783 7.33516189,66.403012 C7.00435118,66.3980629 6.65403111,66.2323386 6.36973182,66.3038885 C6.1473535,66.3594599 5.98336187,66.5975826 5.80240558,66.6226109 C5.15817292,66.711412 5.32060946,66.7586406 5.1430461,66.4253537 C4.96534137,66.092491 4.42261388,65.5321108 4.20065968,65.57637 C3.97842274,65.6209119 3.27000714,66.4762588 3.18136683,66.3209983 C3.07646874,66.1370329 3.49422329,65.3388129 3.43781582,64.6230308 C3.4120861,64.2978039 3.28343749,64.2978039 3.08664753,63.9533461 C2.94767875,63.7097087 2.19020704,63.9926561 2.05350022,63.8420619 C1.91651065,63.6910435 2.24717999,63.3303244 2.25283488,63.2897417 C2.25877251,63.2491591 2.62506762,62.2574997 2.6368015,62.083574 C2.64825264,61.9096483 2.27616127,61.2647091 2.37469763,61.1199124 C2.47323398,60.9748329 2.32818621,60.725398 2.27616127,60.5688649 C2.22399497,60.4123317 2.31673507,60.2730497 2.36890137,59.9772346 C2.42106768,59.6817023 2.19826525,59.4588512 1.81571234,59.4821827 C1.43315944,59.5053727 1.13161275,59.416006 1.01794958,59.3511021 C0.904427783,59.2861981 0.947263529,59.2583417 0.692086888,59.0609431 C0.436910247,58.8638273 -0.00827049803,58.5773447 0.293276192,58.1389954 C0.765459008,57.4520595 0.765176264,57.6576595 1.113093,57.5473651 C1.46100974,57.437495 1.69639429,57.3584507 1.99200335,57.1532749 C2.28775379,56.9479577 2.61814039,56.9756727 2.85592826,57.2658317 C3.09357476,57.5555665 3.20964125,57.5533041 3.37773268,57.4663412 C3.54582411,57.379237 3.78361198,57.5415676 3.83577829,57.4024271 C3.88794459,57.2632865 4.19514617,57.1937162 4.54306291,57.1995137 C4.89097965,57.2053112 4.80516678,56.8540661 5.21104608,56.6626065 C5.61692538,56.4712882 5.29685895,56.2600321 5.29685895,56.2600321 C5.29685895,56.2600321 4.32280517,55.7960888 4.26484261,55.7786962 C4.20688005,55.7613036 3.34069319,55.2764327 3.19578679,55.0504706 C3.05073901,54.8242258 3.21430653,54.68254 3.46354555,54.3404861 C3.71292593,53.9982908 3.64436046,53.5807277 3.54002785,53.4763722 C3.43569524,53.3721582 3.07392404,53.3014567 3.15507162,53.0982606 C3.23636058,52.8953472 3.59813179,52.6473263 3.61537918,52.386155 C3.63276795,52.1252664 3.00677229,51.8294513 2.94301347,51.7888686 C2.87911328,51.7482859 2.46164147,51.487256 2.37469763,51.2033187 C2.28775379,50.9189572 1.88413644,50.9236235 1.88413644,50.9236235 C1.88413644,50.9236235 1.55021554,50.7762816 1.17331752,50.364516 C0.796419498,49.9528918 0.514806274,50.1917215 0.195870815,50.1395438 C-0.122923272,50.0873661 0.0289103644,49.8622525 0.090265856,49.4403059 C0.15176272,49.0182179 0.299072449,48.69794 0.368627522,48.5703945 C0.438182595,48.4427076 0.73393303,48.0715246 0.994764555,47.9613717 C1.25559608,47.8513601 1.12228219,47.6771516 1.07011588,47.3523489 C1.01809095,47.0276876 1.07591214,47.0800067 1.26139234,46.7263577 C1.4470139,46.3727088 2.19713427,46.2566169 2.31305939,46.2508194 C2.42898452,46.2451633 3.46100085,44.9130054 3.65977002,44.7071226 C3.94124187,44.4155496 4.43067209,44.4224783 4.7067718,44.3021444 C4.90808567,44.2144745 4.97057214,43.7898412 5.18093382,43.6235513 C5.67941185,43.2291783 5.48191503,43.553981 5.96880054,43.4323744 C6.45582743,43.3103436 6.28985658,42.9137081 6.38839293,42.6180344 C6.48692929,42.3220779 7.5808666,42.6754441 7.66795182,42.6292053 C7.75503703,42.5826837 7.74005159,42.3519139 8.01827188,42.1779882 C8.11383942,42.1184576 8.38626346,42.0355954 8.75566876,42.0575129 C9.12521543,42.0795717 9.59160199,42.2062688 9.95408005,42.2010369 C10.1975228,42.1975018 10.1221715,41.9448147 10.3014313,41.8988587 C10.4088741,41.8714265 10.7345954,42.0249902 10.9219135,42.0521395 C11.4141711,42.1234067 11.4516347,41.8523371 11.6300463,41.72564 C11.8413976,41.5756114 11.7837178,41.2100846 11.7315515,40.9028158 C11.6793852,40.595547 12.5327072,40.1382497 13.0313266,39.9235999 C13.529946,39.7092329 13.2514429,40.6369781 13.2691144,40.7413336 C13.2863618,40.8458304 13.6228274,41.0487437 13.9474178,41.0893264 C14.2720081,41.1299091 14.4237004,41.410594 14.6491889,41.4627718 C14.8743946,41.5149495 15.1475255,41.3734051 15.2462033,41.2633935 C15.3447396,41.1530992 15.2576544,41.1679465 15.2112844,40.3585556 C15.1651971,39.5494475 15.369197,39.6327339 15.8155087,39.6433391 C16.2615377,39.6539443 16.2185606,38.9257188 16.5432923,38.2239356 C16.8678826,37.5222938 17.2288056,37.4351896 17.4374708,37.145172 C17.6462774,36.8551544 18.0465018,36.5427951 18.3015371,36.5542488 C18.5567137,36.5658438 18.8046804,36.5716413 19.135067,36.2410411 C19.465595,35.9105822 18.9857781,35.2727132 18.9336118,35.0232783 C18.8814455,34.7739848 18.4407886,34.1359743 18.2726972,33.9620486 C18.1044644,33.7881229 17.7856703,32.7848685 17.7856703,32.7848685 C17.7856703,32.7848685 17.9753917,32.2922204 17.8477327,31.9442276 C17.720215,31.5963761 16.751392,31.9316427 16.1367061,31.9027965 C15.5221616,31.873526 15.9245066,31.39318 15.9013216,31.2886832 C15.8781366,31.1841863 15.5026523,31.245838 15.038669,30.9153792 C14.5749685,30.5847789 14.2916588,29.9947041 14.2916588,29.9947041 C14.2916588,29.9947041 13.910661,29.6409138 13.8353097,29.1887069 C13.7600997,28.7363587 13.2558255,28.3943048 13.2558255,28.3943048 C13.2558255,28.3943048 13.0976301,28.0591796 12.9154014,27.6756946 C12.8356676,27.5079906 12.9169565,27.3108748 12.881048,27.14006 C12.8348193,26.9204611 12.6845408,26.7323951 12.7007986,26.5854774 C12.7297799,26.3245888 13.0186031,26.1071109 13.0012143,25.8984001 C12.9838255,25.6896892 12.5209733,25.4987952 12.3586781,25.4872001 C12.1962416,25.4756051 11.9407822,25.5744458 11.755302,25.4469002 C11.5698218,25.3193547 11.7322583,24.6768194 11.8019548,24.5320227 C11.8713685,24.3868018 11.9003498,24.3177971 12.1381376,23.7958786 C12.3757841,23.2741015 12.4060378,23.4812569 12.7829358,23.0000624 C13.1598338,22.5187265 13.5008233,22.6345356 14.0168315,22.8084613 C14.5328396,22.9825284 14.5895299,22.2127304 14.6357585,21.7661797 C14.68227,21.3196289 14.9204819,21.3654435 15.3495463,21.1741252 C15.7784692,20.9826655 16.2099369,21.1148774 16.4186021,21.1322699 C16.6272673,21.1495211 17.037105,20.5943729 17.367633,20.1768097 C17.698161,19.7592466 18.6553915,20.1947679 18.7249465,20.1889704 C18.7943602,20.1833143 19.23841,20.4239822 19.3485389,20.5457302 C19.4588091,20.6674782 19.6124806,21.2319591 19.9427258,21.5450253 C20.1284888,21.7207893 20.3245719,21.6331194 20.4455864,21.632271 C20.5395988,21.6317054 20.7124969,21.5140581 20.7655114,21.4559414 C20.8263014,21.3891992 20.9255447,21.2329489 21.0482556,21.1232201 C21.0790748,21.0956466 21.0971704,21.0409236 21.1315238,20.9802617 C21.2072993,20.8469186 21.247873,20.7067883 21.2731787,20.6244917 C21.3687462,20.3135465 21.4913158,20.4314766 21.4901848,20.5690617 C21.4893366,20.6905269 21.4151162,20.8429594 21.6271744,20.8496053 C21.6584176,20.8504537 21.8436151,20.6787905 21.8782512,20.6666298 C21.9712741,20.6345313 22.0614695,20.6022914 22.1372449,20.573021 C22.2072241,20.5461544 22.2681555,20.519005 22.3073156,20.5048647 C22.4225338,20.4624438 22.5443966,20.4157808 22.6309163,20.384248 C22.717436,20.3525737 22.7662094,20.3621891 22.7950493,20.2197963 C22.8053695,20.0174485 22.8130036,19.7434095 22.9687956,19.7203608 C23.0061179,19.6882623 23.0807623,19.6434375 23.1579515,19.5922497 C23.2672321,19.5195685 23.4128454,19.4335955 23.5812196,19.4269495 C23.9509076,19.4122436 24.4492443,19.6372158 24.5117307,19.5328604 C24.6229906,19.3471982 24.2675811,18.7897875 24.4905249,18.5561897 C24.7134687,18.322592 24.840845,17.8343273 25.3608116,17.8767482 C25.8809195,17.9191691 26.1461336,17.9191691 26.1886866,17.6858542 C26.2310982,17.452115 26.0507074,16.6454107 26.2204953,16.4543753 C26.3902832,16.2631984 26.4475389,15.5066922 26.8727862,14.9904298 C27.2980335,14.4738846 27.2221166,14.4891561 27.3131603,14.3067462 C27.4043453,14.1243363 27.3890771,14.0788046 27.5410521,14.0332728 C27.6928857,13.9875996 28.087738,13.6685944 28.1940498,13.395121 C28.3003617,13.1217889 28.3003617,12.954792 28.3611517,12.5445818 C28.4219417,12.1342302 28.4827317,11.9672333 28.6800871,11.8761697 C28.8775839,11.7848234 29.3636212,11.8761697 29.5913717,12.5598533 C29.8192635,13.2433955 29.9710971,13.1673207 30.1837208,13.1824508 C30.3963444,13.1977223 30.5634462,13.2433955 30.7152799,13.3799908 C30.8672549,13.516869 31.0190885,13.6685944 31.0342153,13.1977223 C31.0494835,12.7267089 31.0646103,12.666047 31.5202526,12.666047 L32.9175745,12.666047 C33.2669049,12.666047 33.4036117,12.7115788 33.8137322,12.6507755 C34.2237113,12.5899722 34.3604181,12.4836371 34.6793536,12.6507755 C34.9984304,12.8179138 34.9527672,12.8026423 35.1957859,12.8026423 C35.4388045,12.8026423 35.69695,12.8634456 35.8336568,12.9697807 C35.9703636,13.0761157 36.2741722,12.7267089 36.3044259,12.5140387 C36.3348209,12.3013686 36.3348209,12.1495018 36.3144633,12.1328162 C36.2939643,11.8826743 36.2743136,11.8331832 35.7225383,11.2175145 C35.4208502,10.8809753 34.7315199,10.6883844 34.4624888,10.3517038 C34.239545,10.0727156 34.2546718,9.76643669 34.2546718,9.76643669 C34.2546718,9.76643669 33.5859818,9.04471568 33.3737822,8.70492423 C33.1614413,8.36527418 32.9492418,7.98306182 32.4716869,7.62234272 C31.9939905,7.26119941 31.6862235,6.50752132 31.9303731,6.18908172 C32.1745227,5.87064212 33.0128593,5.22301629 33.2039943,5.46721931 C33.394988,5.71142232 34.0421895,6.91094413 34.2864805,6.99592734 C34.5306301,7.08076915 35.5813076,7.18682142 35.846663,7.30376171 C36.1118771,7.4204192 37.0033695,7.67536885 36.8229787,7.15500574 C36.6427293,6.63492544 35.9505715,5.46721931 35.9187628,4.91532332 C35.8869541,4.36314454 36.005848,3.86427469 36.005848,3.86427469 C36.005848,3.86427469 36.0321432,3.65443261 36.690089,3.80304718 C37.3481761,3.95180315 38.1072029,3.77929147 38.5423462,3.58825599 C38.9774895,3.39722052 39.7469779,3.03650141 40.1397096,3.29116825 C40.5324413,3.54597649 40.8242333,4.02349449 41.1320004,3.67323921 C41.4397674,3.32284253 41.843102,2.50567448 41.800549,2.12332072 C41.7581374,1.74110836 41.7263287,1.29526464 41.6307611,1.14665007 C41.535335,0.998176899 41.4290231,0.637174992 41.6307611,0.424787658 C41.8324991,0.212541727 42.0553016,0.116953286 42.0553016,0.116953286 C42.0553016,0.116953286 42.6178211,-0.201486312 42.9043824,0.212541727 C43.1909436,0.626569766 43.3395257,0.637174992 43.4987107,0.615964539 C43.6578957,0.594754087 44.3265857,0.934404138 44.2840327,1.30586987 C44.2549101,1.56138512 44.3582531,1.94600133 44.2604236,2.30120572 C44.2158914,2.46254656 44.0205151,2.56322551 43.9444569,2.73898946 C43.7004487,3.30163207 43.6259456,4.28890795 43.7958749,4.50129529 C43.9656627,4.71354122 44.0718332,5.15938494 44.294777,5.33981519 C44.5175794,5.52038684 44.8147436,5.72202755 44.8147436,5.72202755 C44.8147436,5.72202755 45.2640241,5.86371337 45.2004067,6.28834664 C45.1367892,6.7129799 45.0492799,7.03820685 45.2722237,7.23984755 C45.4950261,7.44162966 45.9410551,7.71241644 46.1429345,7.88224146 C46.2435914,7.96722468 46.2568804,8.21340733 46.3961319,8.35297211 C46.535242,8.49211268 46.8007388,8.52449398 46.9927222,8.73292203 C47.3768302,9.14935392 47.7264434,9.94686694 47.7476492,9.99989307 C47.768855,10.0530606 47.6790837,10.2583778 48.0760566,10.2358947 C48.4726053,10.213553 49.304156,10.0424554 49.5377027,10.3822468 C49.7711081,10.7218969 50.2646381,11.0909588 50.4135029,11.3032047 C50.4783927,11.3961065 50.3300933,11.7169499 50.4567627,11.9135001 C50.6196234,12.1663287 51.0574528,12.3044795 51.0871409,12.4417818 C51.1401555,12.685702 50.6560974,12.8835248 50.900247,13.0530671 C51.1443966,13.2230335 51.8307582,12.921138 51.9369286,13.4412183 C51.9635066,13.5713091 51.6216688,13.6550197 51.6919308,13.8411061 C51.7842468,14.0851677 51.8437644,14.391588 52.0552571,14.6579913 C52.1403631,14.764892 52.2927622,14.6944733 52.395257,14.7875165 C52.6206041,14.9924095 52.5442632,15.3279588 52.633469,15.4140733 C52.8281384,15.6018565 53.131947,16.2173838 53.4781673,16.3037811 C53.868637,16.4013491 54.8295432,16.8452132 55.1530025,16.8879169 C55.6759379,16.957063 56.1010439,16.6636517 56.5723784,16.5235213 C56.8948482,16.4276501 57.3215092,16.4768583 57.489742,16.4727577 C57.9036795,16.4621524 58.3996128,16.0615577 58.7287271,16.199567 C58.7832967,16.2224743 58.9614256,16.2114449 59.1579328,16.2029607 C59.304677,16.1905172 59.4675377,16.1738317 59.6319534,16.217101 C59.9804357,16.3088716 60.2893337,16.6062421 60.5607681,16.6745398 L60.5655748,16.4516886 L60.5951216,16.4017733 L60.8336163,16.4174691 L60.8635872,16.4453255 L60.8457743,16.724455 L61.1051921,16.7828545 L61.2025975,16.5103709 L61.4880277,16.6336743 L61.3647513,16.8802812 L61.6308136,17.0035846 L61.7475869,16.7374641 L62.0201523,16.854263 L61.9228883,17.1333926 L62.1953124,17.2306778 L62.2927177,16.9646988 L62.5650004,17.0749931 L62.4743809,17.3539813 L62.7404432,17.451408 L62.8440689,17.1982965 L63.1167757,17.3020864 L63.0128672,17.5682068 L63.2789295,17.6785012 L63.3957029,17.4123807 L63.655262,17.5421887 L63.5514949,17.7953001 L63.7915448,17.9055944 L63.9600603,17.6980148 L64.1872453,17.8343273 L64.0511039,18.0809342 L64.323528,18.2107422 L64.4209333,17.9251081 L64.7063636,18.0030211 L64.6414738,18.2820093 L64.9529166,18.3015229 L64.9659228,18.0030211 L65.2449913,17.9900121 L65.2773655,18.2624957 L65.5888083,18.2042376 L65.5109122,17.9446217 L65.7574652,17.8406905 L65.8742385,18.0872973 L66.1401595,17.9900121 L66.0365337,17.724033 L66.3349702,17.6266063 L66.4257311,17.8667086 L66.7111614,17.7694233 L66.6213901,17.5895587 C66.5885918,17.5240891 66.5610242,17.5178674 66.6475439,17.5245133 C66.7894815,17.5356842 66.9358016,17.5721661 66.9358016,17.5721661 C66.9358016,17.5721661 68.0925082,17.3067527 68.3278927,17.2796033 C68.3400507,17.2790377 68.3548948,17.2781893 68.37398,17.2797447 L68.3828865,17.1620974 L68.4168158,17.1380589 L68.6581379,17.1585623 L68.6793438,17.1739752 L68.6507866,17.451408 L68.941589,17.4815268 L68.9766493,17.1956099 L69.2723997,17.2257287 L69.2323914,17.5116456 L69.5281418,17.5467136 L69.5533061,17.2657458 L69.8439671,17.2958646 L69.8238923,17.5717419 L70.1146947,17.6068099 L70.1398589,17.320893 L70.4356094,17.3510118 L70.4206239,17.6418778 L70.6962995,17.6719967 L70.7364492,17.3862212 L71.014104,17.4191681 L71.0292308,17.4391059 L70.9871019,17.7070646 L71.2678669,17.7723928 L71.3279501,17.5092418 L71.3518419,17.4931218 L71.6252556,17.5901243 L71.6355757,17.6133144 L71.5701205,17.7435466 C71.6470269,17.7637672 71.6798252,17.7817254 71.6798252,17.7817254 C71.6798252,17.7817254 71.7181371,17.8160863 71.726478,17.8272572" id="北京"></path>
            </g>
        </g>
    </g>
</svg>