<?xml version="1.0" encoding="UTF-8"?>
<svg width="120px" height="120px" viewBox="0 0 120 120" version="1.1" xmlns="http://www.w3.org/2000/svg" xmlns:xlink="http://www.w3.org/1999/xlink">
    <title>jdo_cn_ximalaya_radio_province_shaanxi</title>
    <g id="jdo_cn_ximalaya_radio_province_shaanxi" stroke="none" stroke-width="1" fill="none" fill-rule="evenodd">
        <g id="编组">
            <rect id="矩形" x="0" y="0" width="120" height="120"></rect>
            <g id="陕西-" transform="translate(32.000000, 20.000000)" fill="#FFFFFF" fill-opacity="0.189284" fill-rule="nonzero">
                <path d="M46.9966585,0.0359793823 C47.1235743,0.128458829 47.0773943,0.209298986 47.0543571,0.38261859 C47.0370792,0.512608293 46.9901396,0.734733554 46.9678389,0.835395223 L46.9557622,0.887657948 L46.9557622,0.887657948 C46.9559735,0.882155739 47.2013512,1.12171348 47.1722905,1.42719193 C47.1429128,1.73267038 46.6450773,1.84504243 46.7950303,1.89107053 C46.8886409,1.91990422 46.9178923,1.77392813 47.0041766,1.75208487 L47.0637622,1.75626639 C47.1094138,1.77213815 47.1598209,1.78441231 47.2176252,1.79023195 C47.448314,1.81329891 47.4713512,1.82483239 47.448314,1.94037879 C47.4252768,2.05592519 47.4137582,2.14829883 47.5291555,2.07899215 C47.644447,2.00968547 47.5965762,2.27728332 47.527359,2.43906944 C47.4581418,2.60074976 47.6634686,2.66508329 47.8942631,2.72285649 C48.1250576,2.78062969 47.9196251,2.87808229 47.8273707,3.08600232 C47.7350106,3.29402817 47.4466232,3.52501517 47.4234803,3.72140173 C47.4004431,3.9178941 47.273633,4.61096089 47.2620087,4.74957425 C47.2504901,4.88818761 46.8235626,5.60453298 46.5927681,5.6507727 C46.3621849,5.69690661 45.9351517,5.85869274 45.9928503,6.15909222 C46.050549,6.4593859 46.1312848,6.67894522 46.1428034,6.84062554 C46.1544276,7.00241166 46.1774648,7.40671826 45.68132,8.3655841 C45.1851753,9.32455576 45.0812966,9.62484943 45.1044395,9.75192931 C45.1274766,9.879115 45.1621381,10.2371819 45.2198367,10.2718881 C45.2774297,10.3064886 45.3466469,10.6184215 45.3351283,10.7339679 C45.3236097,10.8495143 45.1966939,10.8610478 45.1621381,11.0343674 C45.1274766,11.2075812 45.069778,11.4618468 45.0120794,11.4964472 C44.9544865,11.5311534 44.7467291,11.5657539 44.6543691,11.5657539 C44.5621147,11.5657539 44.3428388,11.51962 44.2967644,11.6813003 C44.2505844,11.8430864 44.0429327,12.3282332 44.0429327,12.3282332 L43.546788,12.8712589 C43.546788,12.8712589 43.2005962,13.0214058 43.0160874,13.0098723 C42.831473,12.9983388 42.7506315,13.0329392 42.7506315,13.1600191 C42.7506315,13.2872048 42.7161814,13.7145784 42.7161814,13.7145784 C42.7161814,13.7145784 42.6468585,13.9341377 42.5199427,13.9687381 C42.3930268,14.0034444 42.2314495,14.0842845 42.2545924,14.3269108 C42.2776296,14.5695371 42.3006668,14.904537 42.2776296,15.0085499 C42.2545924,15.1124571 42.219931,15.3897896 42.2891482,15.6092431 C42.3583654,15.8288024 42.3238096,15.9211761 42.3238096,16.0713229 C42.3238096,16.2215755 42.3238096,16.4526683 42.4852812,16.5681089 C42.6468585,16.6836553 43.0621618,16.9840548 43.0968232,17.0880678 C43.131379,17.1920807 43.3621735,17.665694 43.4083535,17.8273743 C43.4544279,17.9891604 43.5814494,18.0237608 43.696741,18.1162403 C43.8121382,18.2086139 44.2160286,18.5437196 44.2275472,18.6014928 C44.2390658,18.659266 44.3428388,18.7631732 44.1006314,18.9017865 C43.8583183,19.0405057 43.7544396,18.9827325 43.8699425,19.1328793 C43.9852341,19.283132 44.3428388,19.3292659 44.4005374,19.4563458 C44.4583417,19.5834256 44.5390775,19.6874386 44.4698603,19.7914515 C44.4005374,19.8953586 44.2736216,20.0456112 44.4005374,20.2072916 C44.5275589,20.3690777 44.6543691,20.5192245 44.4928975,20.9814101 C44.3313202,21.4434899 44.308283,21.7669564 43.9275355,21.8131961 C43.546788,21.85933 43.3736921,21.7784898 43.3391363,22.0211161 C43.3044749,22.2637424 43.2070424,22.4819262 43.5532341,22.5512329 C43.8993202,22.6205395 43.8813554,22.7258222 43.8583183,22.8297293 L43.8451554,22.8872424 L43.8451554,22.8872424 L43.8150311,23.0131672 C43.8006196,23.0723821 43.7891011,23.1185953 43.7891011,23.1185953 C43.7891011,23.1185953 43.7083652,23.1533016 43.7544396,23.2919149 C43.8006196,23.4305283 43.8237625,23.6269149 43.6506666,23.6153814 C43.4775708,23.6038479 43.4058173,23.5923144 43.3596373,23.788701 C43.3134573,23.9850875 42.8303105,24.846395 42.8303105,24.846395 C42.8303105,24.846395 42.2378957,25.7667453 42.0187255,25.8128793 C41.7994496,25.859119 41.7828586,26.0212225 41.8405572,26.1020627 C41.8982558,26.1829029 41.8904359,26.4216141 41.7981815,26.3985472 C41.7058214,26.3753744 41.4226121,26.211472 41.4226121,26.211472 C41.4226121,26.211472 41.2984438,26.2316821 41.4367725,26.3472285 C41.5753126,26.4627749 41.6494966,26.5613914 41.6611208,26.7000048 C41.6726394,26.8386181 41.6430504,27.2430305 41.504616,27.3469376 C41.3661815,27.4509506 41.3315201,27.4394171 41.4814731,27.6358036 C41.6315318,27.8321902 41.700749,28.0170433 41.6430504,28.1094169 C41.5853518,28.2018964 41.4469173,28.5946695 41.4469173,28.5946695 C41.4469173,28.5946695 41.2969643,28.7679891 41.4814731,28.8256565 C41.6660876,28.8834297 41.7122676,28.9066024 41.6083889,29.0336823 C41.504616,29.1607622 41.5275475,29.310909 41.654569,29.2647751 C41.7814848,29.2185354 42.0122793,29.0221488 41.9776179,29.2300689 C41.9430621,29.4379889 41.9199192,29.5882416 41.7237862,29.599775 C41.5275475,29.6113085 41.3430387,29.6344813 41.5506903,29.7846281 C41.7584476,29.934775 42.3353282,30.6164141 42.3238096,30.8358676 C42.3121854,31.0554269 42.1507137,32.2915195 42.1507137,32.2915195 C42.1507137,32.2915195 42.0814965,32.9385582 42.0814965,33.2042514 L42.0812192,33.3993462 C42.0801101,33.6973087 42.0745642,34.1076719 42.0468351,34.1631173 C42.0122793,34.2324239 41.9199192,34.6715426 41.9545807,34.8447564 C41.9891365,35.018076 42.0930151,35.5033286 42.1160523,35.6303026 C42.1390895,35.7573825 42.3006668,36.5198618 42.3814026,36.7394211 C42.462244,36.9588746 42.5199427,37.074421 42.5199427,37.2246737 C42.5199427,37.3748205 42.4737626,37.7098204 42.6121971,37.7329932 C42.7506315,37.7560602 42.9237274,37.8600731 42.9122088,38.0102199 C42.9007959,38.1604726 42.9929446,39.0153255 42.9929446,39.0153255 C42.9929446,39.0153255 43.0507489,39.6160186 43.1083418,39.7316709 C43.1660405,39.8471115 43.281332,40.2283511 43.281332,40.2283511 L43.281332,40.4594439 L43.246,40.459 C43.2260999,40.5409147 43.1333129,40.9287506 43.0819547,41.1979674 C43.0247845,41.497203 42.6368511,42.4391389 42.6240644,42.5410356 C42.6175125,42.5951054 42.4993677,42.8090567 42.3617787,43.0340124 C42.2401466,43.2324094 42.1583541,43.5317508 42.0688472,43.645181 C41.8783149,43.8869607 41.6532269,44.6483819 41.6022915,44.7947195 C41.5514618,44.941163 41.3147494,45.1825195 41.3083033,45.2906591 C41.3018571,45.3989045 41.300589,46.2076235 41.2687808,46.3922649 C41.2368669,46.5769064 40.8441781,46.8502181 40.7743268,46.9837525 C40.7044755,47.1174985 40.7362838,47.6139671 40.7362838,47.8620956 L40.7369525,48.3069004 C40.738067,48.6155296 40.7410391,48.9760417 40.7489648,49.1352223 C40.7615401,49.3899111 40.6535401,49.650737 40.5963699,49.8290297 C40.5390939,50.0073225 40.7044755,50.3764996 40.7806673,50.4910937 C40.8568591,50.605582 41.1366868,50.7902234 41.3463463,50.7965721 C41.4662725,50.8001395 41.6131825,50.8016684 41.7253793,50.8023236 L41.8932151,50.802815 L41.8932151,50.802815 C41.9377044,50.802815 41.6272308,50.9344448 41.6335713,51.0043864 C41.6399118,51.0744337 41.7279392,51.4521816 41.6579823,51.6302627 C41.5879197,51.8085555 41.6134931,52.107791 41.708812,52.4195124 C41.804131,52.7315511 42.0584911,52.8142959 42.1791721,52.8650855 C42.2999587,52.9161926 42.5033834,52.9161926 42.5797865,52.92889 C42.6559783,52.9415874 42.8115321,53.4727623 42.906851,53.7020563 C43.0022757,53.9312445 42.6581975,53.9724052 42.486581,54.1697441 C42.3150703,54.3671888 42.26181,54.5328899 42.3953834,54.6219834 C42.5288511,54.7110769 42.6495321,54.7684268 42.8211485,54.7619723 C42.9928706,54.7556236 43.0945301,54.8447171 43.1899547,54.9146586 C43.2853794,54.9848118 43.488804,55.1948481 43.7748666,55.315685 C44.0609292,55.4366278 43.9019938,55.5131297 43.7811014,55.6785134 C43.6604204,55.8441088 43.5394224,56.2640755 43.501485,56.5888117 C43.4890154,56.6952583 43.7710623,56.6496535 43.8577159,56.7402283 C44.0351445,56.9261395 44.32871,57.3607082 44.4397746,57.4718105 C44.6050505,57.6374059 44.01644,57.8491352 43.8382717,57.9764267 C43.6604204,58.1035065 43.6922287,58.2373584 43.7303774,58.4472888 C43.7683148,58.6574309 44.1372267,58.6319303 44.391481,58.6128842 C44.6457354,58.5938381 44.7409487,58.8929678 44.8808626,58.9566665 C45.0207765,59.0201535 45.2495631,59.2876455 45.4212852,59.4276345 C45.5929017,59.5676234 45.6691991,59.809509 45.6755396,60.1531854 C45.6818801,60.4968619 45.8843537,60.3964466 46.4246706,60.6320893 C46.9648819,60.8675204 47.1506588,60.9784111 47.2841265,61.1440064 C47.4174885,61.309496 47.5127018,62.2473053 47.4935746,62.4509928 C47.4745531,62.6547862 47.4489797,62.641983 47.2583418,62.6610291 C47.0677038,62.680181 47.1248741,62.8011238 47.3473203,62.9602647 C47.5698721,63.1192997 47.5634259,63.5140832 47.5889993,63.5903735 C47.6143613,63.6666637 47.6016803,63.7877123 47.4616608,63.8131072 C47.3219582,63.8386078 47.3601069,64.0549928 47.3409797,64.2205881 C47.3219582,64.3860776 47.1503418,64.5642646 47.0295551,64.6343119 C46.9087684,64.7043593 46.8443066,65.140092 46.7870307,65.3182789 C46.7298604,65.4963601 46.4564789,65.2865354 46.2595004,65.2672777 C46.0623106,65.2483374 46.1610112,65.8962226 46.0783732,66.0170596 C45.9956296,66.1381082 45.6168899,66.0727165 45.4263576,66.0727165 C45.235614,66.0727165 45.364115,66.1868874 45.2559036,66.4478191 C45.1479037,66.708645 44.5928978,66.5916172 44.4784517,66.419779 C44.3640055,66.2479407 44.4147296,66.2796843 44.2368783,66.3497316 C44.0588157,66.419779 44.0015398,66.362429 43.9953049,66.165196 C43.9889644,65.9677513 43.8231601,66.5527843 43.7597551,66.4445389 C43.6961386,66.3363993 43.4863735,66.2918526 43.2765027,66.3363993 C43.0667375,66.3809461 43.0475047,65.5967754 43.0093559,65.7303098 C42.9712072,65.8640558 42.8566554,65.8704045 42.7359744,65.8258578 C42.6152933,65.781311 42.3419118,65.838661 41.9223815,65.8513584 C41.5027455,65.8641616 40.759955,65.9636246 40.5756575,65.976322 C40.3912544,65.9892311 40.289595,65.817287 40.206957,65.6326456 C40.124319,65.4480041 38.7970393,65.656559 38.4219983,65.6630135 C38.0470629,65.6693622 37.9642136,65.5546623 37.7354269,65.3892786 C37.5065346,65.2236833 37.1759827,65.401976 37.0615366,65.4400682 C36.9471961,65.4782663 36.9008047,65.4220802 36.672018,65.4285347 C36.4431257,65.4347776 35.8640259,65.2246356 35.7560259,65.2053778 C35.6479203,65.1864375 35.5144526,65.1926804 35.5017716,65.3645187 C35.4889849,65.5363569 35.1329653,65.4410205 34.8152002,65.4155199 C34.4973294,65.3900193 34.4604488,65.4750919 34.2697052,65.6724308 C34.0789615,65.8698755 34.4647815,65.9992832 34.6236112,66.1075286 C34.69621,66.1568368 34.9468714,66.1047775 35.1095055,66.1481603 C35.2359986,66.18202 35.3478029,66.0447822 35.4675328,66.0404439 C35.5306209,66.0381161 35.6368244,66.1997964 35.6807852,66.1973627 C35.9160181,66.1847711 36.0696697,66.1830782 36.1586482,66.2403223 C36.247521,66.2975664 36.5534505,66.683885 36.8394074,66.7729785 C37.12547,66.862072 36.9729808,67.2947361 36.9284916,67.4984237 C36.8840023,67.7021113 36.8456423,68.2623843 36.8456423,68.2623843 L36.8481785,68.5138988 C36.8481785,68.5138988 36.8779789,68.6636224 37.2369573,68.5138988 C37.5959357,68.3641752 37.8052782,68.30418 38.044421,68.4239588 C38.2838809,68.5437377 38.5231294,68.603733 38.5231294,68.603733 C38.5231294,68.603733 38.7650198,68.6353707 38.9654855,68.7096505 C39.0565775,68.7436161 39.1157555,68.8059392 39.1811685,68.8432907 C39.3334175,68.9304796 39.6754836,69.1125877 39.8507407,69.2054342 L39.9453347,69.2554548 C39.9540301,69.2600429 39.9587261,69.2625168 39.9587261,69.2625168 L39.9734149,69.2999741 C39.9734149,69.2999741 40.0878611,69.8090343 40.1450314,69.8917791 C40.2023073,69.9746297 40.2086478,70.1464679 40.1450314,70.5411456 C40.0815206,70.9357175 40.2593719,70.9038682 40.4374345,70.9802643 C40.6153914,71.0565545 40.4692427,71.3111375 40.3802642,71.457581 C40.2912858,71.6040244 40.3214032,72.0250492 40.1497867,71.9104551 C39.9781703,71.7959669 39.6707614,71.696398 39.6643152,71.8174466 C39.6580803,71.9381778 39.3862839,72.0691727 39.1890941,72.2154045 C38.9921156,72.3619538 38.6244718,72.47422 38.5228124,72.3214279 C38.4210472,72.1687416 38.2303036,72.0795423 37.8680492,71.9776456 C37.5056892,71.8758547 37.6022762,71.9096087 37.3988516,72.0559463 C37.195427,72.2022839 37.2208947,72.0177482 37.0111295,71.8267581 C36.8013644,71.6358737 36.6041746,71.9032599 36.4008556,71.979656 C36.197431,72.0559463 36.0258146,71.9032599 35.8414115,71.7950146 C35.6570083,71.6867692 35.9079868,72.2058815 35.8952001,72.3840684 C35.8826248,72.562467 35.7235837,72.6005592 35.6283704,72.6005592 C35.5329457,72.6005592 35.4757755,72.6897585 35.3676698,72.8042468 C35.2596698,72.9188409 35.0925974,73.169403 35.0848832,73.4817592 C35.0773802,73.7941155 34.983118,73.876437 34.7734585,73.9081805 C34.5636934,73.9400298 34.7845544,74.0951498 34.7782139,74.3751276 C34.7717677,74.6552113 34.8227031,74.617119 34.9307031,74.7189099 C35.0388088,74.8207008 34.991889,74.7694879 35.0300378,74.9540236 C35.0680808,75.1385592 35.3034193,75.2469104 35.5512275,75.2723052 C35.7991414,75.2978059 35.7335171,75.7454953 35.5555602,76.0192302 C35.3774976,76.2928593 35.5834584,76.2384721 35.7042451,76.3976129 C35.8249261,76.5567538 35.6379868,76.9379934 35.5616894,76.963494 C35.4852862,76.9888888 35.4663704,77.0397843 35.3646052,77.4216588 C35.2629458,77.8036391 35.5616894,78.077374 35.7079438,78.2301662 C35.8540925,78.3828525 35.6315406,78.5164927 35.3964135,78.6629361 C35.1611806,78.8093795 35.6888166,79.4458371 35.7842412,79.5794773 C35.8795602,79.7132233 35.765114,79.802211 35.5808166,79.8659096 C35.3964135,79.9296083 35.5522843,80.4522124 35.5459438,80.6048987 C35.5394976,80.7576908 35.2152863,80.6430967 35.0944996,80.6430967 C34.9737129,80.6430967 34.833799,80.6494454 34.7321396,80.6939922 C34.6304801,80.7386447 34.3222257,80.849218 34.0933334,80.8299602 C33.8645467,80.8110199 33.7690164,80.9000076 33.6101866,80.9637062 C33.4512512,81.0274049 33.3559323,80.9892069 32.9618697,80.9828582 C32.5677014,80.9764037 32.6121907,80.7982167 32.5295527,80.658122 C32.4469147,80.5181331 32.3298267,80.4306268 32.3807621,80.1569977 C32.4315918,79.8831569 32.1390831,79.9405069 32.0246369,79.9023088 C31.9101907,79.8641108 31.8594667,79.8386102 31.8149774,79.6477258 C31.7703825,79.4568415 31.4533571,79.2016236 31.3707192,79.1570769 C31.2880812,79.1125301 30.73223,78.7249418 30.5668484,78.5338458 C30.4016782,78.3429615 29.8040853,78.3239154 29.4163632,78.292066 C29.0286411,78.2602167 29.0067664,78.2277325 28.885874,78.043091 C28.765193,77.8584496 28.5300658,77.7757048 28.3011735,77.6993087 C28.0723868,77.6230185 28.0024299,77.4830296 27.8879837,77.2982823 C27.7735375,77.1137467 27.5520424,76.8488999 27.3930014,76.8042474 C27.2341716,76.7598065 26.7514476,76.5239521 26.7387666,76.4603593 C26.7259799,76.3966606 26.2619604,76.1483205 26.090344,76.1356231 C25.2248646,76.0715012 23.9968138,75.7039113 23.7997297,75.5192698 C23.6026456,75.3347342 23.4056671,75.6975626 23.3991153,75.8884469 C23.3928804,76.0794371 23.5077493,76.2799503 23.2916437,76.2927535 C23.0753267,76.3054509 22.9419646,76.2736016 22.7068375,76.2609042 C22.4716046,76.2482068 22.3063287,76.4836379 22.2934363,76.6554761 C22.280861,76.8273143 22.1600743,76.9165136 21.9757769,77.0820032 C21.8889492,77.1598806 21.6518566,76.9253579 21.4118938,76.6412854 L21.2336866,76.4230475 C21.0305241,76.1671806 20.8533764,75.9236884 20.8009864,75.8686601 C20.6738592,75.7350199 20.5403915,75.8368108 20.4069238,75.811416 C20.2734561,75.7858095 19.6166851,75.5690013 19.5467282,75.4606501 C19.4767713,75.3525105 19.2551705,74.9550817 19.1915541,74.8340331 C19.1280433,74.7131961 19.0908457,74.5979671 18.9192292,74.5852697 C18.7476128,74.5725723 18.6550414,74.2605335 18.5660629,74.0059505 C18.4769788,73.7513675 18.2617185,73.9104025 18.0901021,73.8149604 C17.9184857,73.7194124 17.7561687,73.6282027 17.5589789,73.7363423 C17.3617891,73.8445876 17.3683409,73.8254357 17.2665758,73.7745403 C17.1649163,73.723539 17.0059809,73.7553884 17.0059809,73.7553884 L16.7483449,73.8149604 L16.5688029,73.4555179 L16.3402275,72.7264752 L16.3216287,72.6245785 C16.3216287,72.6245785 16.4450573,72.6697601 16.3179301,72.396131 C16.2138305,72.172166 16.0768362,72.2701354 15.9434111,72.4038624 L15.85539,72.4951707 L15.85539,72.4951707 C15.6964546,72.6605545 15.3128539,73.3410297 15.1221103,73.627462 C14.931261,73.9138943 14.6094802,73.2335249 14.5649909,73.0871873 C14.520396,72.9407439 14.1835037,72.8134524 13.9800791,72.7751486 C13.7766544,72.7370563 13.6558677,72.6033103 13.4842513,72.4379266 C13.3889089,72.3459292 13.4249754,72.2696729 13.4878811,72.1960583 L13.5695583,72.1081503 C13.5966166,72.0787115 13.6212767,72.0488569 13.6368462,72.0177482 C13.7068032,71.8777593 13.7068032,71.3557901 13.687676,71.2031038 C13.6685488,71.0503116 13.4664979,71.0425874 13.4028815,70.9916919 C13.339265,70.9407965 13.1454568,71.0327469 13.1581378,70.7907555 C13.1709245,70.5489757 13.1282318,70.4391431 12.9820831,70.4455976 C12.835723,70.4519463 12.3018522,70.4519463 12.1365763,70.3945964 C11.9713004,70.3373522 11.812365,70.3438068 11.4055157,70.3945964 C10.9987721,70.4455976 10.9733044,70.8333976 10.7317311,70.648862 C10.4901577,70.4642205 9.92437301,70.4329002 9.65109711,70.6683313 C9.37771554,70.9038682 9.09799345,70.7701222 8.93271754,70.7255755 C8.76733595,70.6810287 8.70393087,70.7701222 8.64031444,70.8466241 C8.57669801,70.9229143 8.41786828,70.9612182 8.22712466,70.9485208 C8.03638103,70.9357175 8.05550823,71.0439629 7.89023232,71.2476505 C7.72495641,71.4513381 7.31166095,70.9547637 7.2544907,70.8466241 C7.19732046,70.7383787 6.99389582,70.7129839 6.73319526,70.6937261 C6.47260037,70.6747858 5.97867479,70.5757461 5.89603683,70.5183961 C5.81339888,70.461152 5.53177464,70.2928055 5.25839306,70.2419101 C4.98511716,70.1910146 4.92784124,70.0255251 4.8770115,69.9172797 C4.82618176,69.8090343 4.60088237,69.7148619 4.7660526,69.4985827 C4.93143419,69.2821977 4.93788037,69.1575515 4.74079625,68.9092114 C4.54381779,68.6610829 4.64177864,68.6951543 4.50197044,68.9305854 C4.36205656,69.1662281 4.1587376,69.051634 4.07599396,68.9433886 C3.99346168,68.835249 3.89169653,68.9305854 3.8280801,68.9625405 C3.79035407,68.9814808 3.62708599,68.9914271 3.43549697,69.001585 C3.3044598,69.0086744 3.16000189,69.0158696 3.03350875,69.0262392 C2.72197845,69.051634 2.86886689,69.2996567 2.83082384,69.5733916 C2.79267511,69.8471265 2.35972408,69.7644876 2.20712919,69.6246045 C2.05453429,69.4845098 1.5015363,69.9427803 1.36806861,70.0509199 C1.23449523,70.1591653 0.993027549,70.3183061 0.738667497,70.29926 C0.484413119,70.2800023 0.528902352,69.8662785 0.541583368,69.6118013 C0.554370059,69.3572182 0.338158731,69.089832 0.274647975,68.9752379 C0.211031543,68.8606438 0.172565793,68.607648 0.0454386047,68.2956092 C-0.0816885838,67.9837821 0.0839043542,67.9951039 0.223712559,68.0014526 C0.363626439,68.0078013 0.595266337,67.860723 0.69058531,67.9499223 C0.786009957,68.0390158 1.03381815,67.9754229 1.07207255,67.9244217 C1.1101156,67.8734204 1.18503927,68.096789 1.29314493,68.0777429 C1.40114492,68.0584851 1.62401379,67.8794517 1.87192765,67.911301 C2.11984152,67.9430446 2.48051076,67.8867527 2.56948923,67.7468696 C2.65846769,67.6067749 2.83008411,67.7276119 3.05263595,67.7276119 C3.27508211,67.7276119 3.50386878,67.4093302 3.63110164,67.2630984 C3.70374575,67.1794165 3.68919277,67.1082073 3.65746066,67.0387899 L3.60573037,66.9346724 C3.59787867,66.9170984 3.59114134,66.8993026 3.58661241,66.8811181 C3.55480419,66.7538266 3.66925037,66.5373358 3.70105858,66.3336482 C3.73276112,66.1300665 3.68193138,65.9518795 3.56748521,65.7990874 C3.45303904,65.6461895 3.59009969,65.4801709 3.68552434,65.2702404 C3.78084331,65.0600983 3.99356736,65.4280057 4.01258888,65.5679946 C4.03171608,65.7078777 4.06331295,65.7480862 4.10146167,65.6654472 C4.1396104,65.5827024 4.12692938,65.4681083 4.03150473,65.2262227 C3.93618576,64.9843371 3.85988831,64.9207443 3.5611447,64.888895 C3.26240109,64.8569398 3.07165747,64.7043593 2.9572113,64.6533581 C2.84276513,64.6023568 2.72831896,64.5961139 2.64578668,64.4751711 C2.56304304,64.3541225 2.47406458,64.3096816 2.30244816,64.2713777 C2.13083174,64.2332855 2.18800199,64.1186914 2.27063994,63.9787025 C2.3532779,63.8386078 2.18800199,63.6986189 2.09268301,63.6286773 C1.99736404,63.55863 1.94642863,63.367534 1.94642863,63.1958016 C1.94642863,63.0237517 2.18800199,63.1638464 2.59485126,63.2403483 C3.00170053,63.3167444 2.9763385,63.2149535 3.02082773,63.0939049 C3.06531696,62.9730679 3.05897646,62.6165882 3.07165747,62.3618994 C3.08433849,62.1072105 3.19878466,62.0881644 3.29410363,61.9863736 C3.38942261,61.8845827 3.31534434,61.6148686 3.35338739,61.4492732 C3.39153611,61.2838895 3.44247152,61.3346792 3.64589616,61.3093901 C3.84921512,61.2838895 3.92984525,61.4962537 4.03150473,61.2226245 C4.13326989,60.9488896 4.24126988,61.0251799 4.38752427,61.0379831 C4.53377865,61.0507863 4.8961387,61.0124825 5.09945766,60.9234948 C5.30298797,60.8342955 5.5812306,60.9628568 5.59380594,61.0836937 C5.60648696,61.2047424 5.74449869,61.2836779 5.82079613,61.2644202 C5.89709358,61.2454799 5.79236952,61.4645101 5.89413468,61.6363484 C5.99579416,61.8081866 6.48528139,61.432555 6.71417373,61.2671713 C6.94306608,61.1016817 6.93514044,60.8736575 7.18315999,60.9882516 C7.43086251,61.1028457 7.582612,60.9511117 7.83063155,60.8429721 C8.07854541,60.7347267 8.75729681,60.9704752 8.78276452,61.3014543 C8.80823223,61.6324333 8.51360995,61.7149665 8.71069408,61.708512 C8.90777821,61.7022691 8.81827137,62.1008618 8.97086626,62.1264683 C9.12346116,62.1518631 9.17418522,61.8845827 9.1934181,61.7127444 C9.21243962,61.5409062 9.26971555,61.5598465 9.44133197,61.349916 C9.61294839,61.139774 9.3332263,60.6687002 9.21867446,60.4396178 C9.10433396,60.2104296 8.93271754,60.2742341 8.80559035,60.2422789 C8.67846316,60.2104296 8.66578214,59.8667531 8.65944164,59.72687 C8.65299545,59.5867753 8.67846316,59.4721812 8.53865496,59.2174924 C8.39874108,58.9629094 8.61484673,58.98841 8.71650621,58.810223 C8.81827137,58.6319303 8.47503852,58.6574309 8.23980567,58.5046388 C8.00457282,58.3519525 8.3034221,57.9190767 8.36059235,57.696343 C8.41786828,57.4735035 8.67846316,57.1044322 8.67846316,57.0216875 C8.67846316,56.9388369 8.78847098,56.4405695 8.86476843,56.1286365 C8.9409602,55.8168094 9.18464706,55.9448416 9.42611475,55.9002948 C9.66758243,55.8556423 9.49797384,55.75237 9.45359028,55.6696253 C9.40910105,55.5869863 9.33914411,55.4085877 9.28831437,55.3131456 C9.26925322,55.2773944 9.26225884,55.28289 9.25861553,55.2939934 L9.25321454,55.3131177 C9.25016565,55.3158586 9.24465733,55.3004482 9.22797387,55.2312473 C9.18359031,55.0466058 8.97773515,55.1675486 8.83782127,55.1613057 C8.69790739,55.154957 8.92637703,54.6155289 8.84373907,54.5009348 C8.76110112,54.3863407 9.05350422,54.2910043 9.21867446,54.1955621 C9.38405604,54.0999083 9.68279965,54.4118413 9.7782243,54.4882374 C9.87354327,54.5647392 10.35669,54.4628426 10.4710305,54.335551 C10.585371,54.2082595 10.5919228,53.7371857 10.5919228,53.7371857 L10.5867448,53.5092673 C10.5867448,53.5092673 10.1979659,53.1500365 9.9886235,52.9403177 C9.77917538,52.7307046 9.71936325,52.4910411 9.27066662,52.1017597 C8.82197,51.7124784 7.92478809,51.862202 7.92478809,51.862202 L7.4266355,51.7732143 C7.4266355,51.7732143 7.60765701,51.6931149 7.4678488,51.5722779 C7.3280406,51.4513351 7.30447504,51.3186472 7.27911301,51.1148538 C7.2536453,50.911272 7.55249459,50.6846233 7.66672941,50.6846233 C7.78128126,50.6846233 7.88674504,50.4445365 7.95046715,50.3236995 C8.16604443,49.9132559 8.0467372,50.213867 8.11901899,50.1313338 C8.22712466,50.0078515 8.14438102,49.9977994 8.17618924,49.8767508 L8.20723461,49.7922039 L8.20723461,49.7922039 L8.29112086,49.6247767 C8.3050997,49.5931886 8.31826946,49.5584691 8.32941819,49.5186839 C8.37390742,49.3595431 8.45020487,49.436045 8.67265103,49.4168931 C8.89509719,49.397847 8.85060796,49.2896016 8.81890542,49.1559614 C8.78699153,49.0223211 8.93335159,48.926879 8.95871362,48.7549349 C8.98418133,48.5830967 9.33924979,48.4458589 9.16763337,48.286718 C8.99601694,48.1275772 9.06058445,47.8954263 9.04145725,47.7998783 C9.02243573,47.7044361 8.80094064,47.1555907 8.78191912,46.9965557 C8.76268624,46.8375207 8.97498759,46.3703619 9.07030657,46.3067691 C9.16573121,46.2429646 9.35404431,45.925212 9.3477038,45.7405705 C9.34136329,45.5560349 9.99295618,45.8666981 10.336189,45.8666981 C10.6795275,45.8666981 10.6822751,45.8110411 10.8413162,45.7091444 C11.0001459,45.6074594 11.0701028,45.6837496 11.3181224,45.7157048 C11.5659306,45.7474483 12.0730656,45.997164 12.4353199,45.9590717 C12.79768,45.9207679 12.8054999,45.8466997 12.9388619,46.012295 C12.9680705,46.0484403 13.1006886,46.0566852 13.2616175,46.0579685 L13.6397996,46.0579418 C13.7606637,46.0599061 13.8657703,46.0667881 13.9234372,46.0874214 C14.0826896,46.1442423 13.9766975,46.6499165 14.0428501,46.6642011 C14.1891045,46.6959446 14.0244626,46.8691584 14.0118873,47.1493478 C13.9992063,47.4293256 14.2788227,47.4676295 14.5458637,47.5503743 C14.8127991,47.633119 14.8637345,47.849504 14.8637345,48.0595403 C14.8637345,48.2695765 15.2704781,48.1232389 15.5184977,47.9387033 C15.7664116,47.7540618 15.6201572,47.8368066 15.7153705,47.6457106 C15.8109008,47.4547205 15.9761767,47.6457106 16.0969634,47.6968177 C16.2177501,47.7476073 16.4102902,47.5744993 16.5119496,47.5554532 C16.6136091,47.5364071 17.0468772,47.6262413 17.1803449,47.6262413 C17.3138126,47.6262413 17.4369241,47.5962965 17.5006462,47.4627621 C17.5642626,47.3290161 17.7448614,47.2207707 17.8720943,47.1889214 C17.9992215,47.1571779 18.480149,46.9590983 18.5819142,47.2073326 C18.6835737,47.4554611 18.7803721,47.2826706 18.8693506,47.1744252 C18.958329,47.0662856 19.2499924,47.5312223 19.3261842,47.4612808 C19.4025873,47.3912334 19.5805442,47.442023 19.7648417,47.4547205 C19.9492448,47.4676295 20.1842663,47.2893367 20.3624346,47.085755 C20.5403915,46.8819616 20.0255422,46.6019838 19.777417,46.3727956 C19.5296088,46.1437132 19.3833544,45.8061738 19.3707791,45.6661849 C19.3579924,45.5263018 19.0716128,45.268756 18.9698476,45.0779775 C18.8681881,44.8869873 18.4838477,44.258889 18.4838477,44.138052 C18.4838477,44.0171092 18.5982938,44.0553072 18.7190805,44.1442949 C18.8398672,44.2334941 18.9796754,43.9597592 19.0814406,43.9089696 C19.1831,43.8578625 19.0941216,43.8134216 19.0369513,43.7244339 C18.9796754,43.6352347 19.0814406,43.571536 19.0814406,43.571536 L19.3266069,43.4769403 L20.6864345,44.2355046 L21.075319,44.205454 C21.075319,44.205454 21.2547554,43.9959468 21.2846615,44.1456704 C21.3145675,44.2952882 21.4041801,44.1211221 21.4041801,44.1211221 L23.2090057,43.925582 C23.2090057,43.925582 23.5080663,43.925582 23.5977845,44.1351951 C23.6875027,44.3450197 23.8670448,44.2850245 23.8670448,44.2850245 L24.4500545,43.7912011 L25.3974321,43.8513022 L25.5057491,43.8537359 C25.7535573,43.8601904 25.7981522,43.8156436 25.9188332,43.669306 C26.0396199,43.5228626 26.1324027,43.6943834 26.3103596,43.6499425 C26.4884222,43.6053957 26.2846805,43.5370414 26.2718938,43.4098557 C26.2592128,43.28267 26.5524613,43.1470194 26.6542265,42.9622721 C26.755886,42.7777364 26.735385,42.8607986 26.7798742,42.6445195 C26.8242578,42.4281345 26.8146413,42.29915 26.7637059,42.0763105 C26.7129819,41.8535768 26.827428,41.5798419 26.8654711,41.4078979 C26.9035141,41.2360596 26.6509506,41.084114 26.3966962,40.925079 C26.1446913,40.7674117 26.027117,40.4528099 26.0249613,40.4469975 L25.9889698,40.4479104 L25.8788563,40.2898277 L25.8782701,40.2217988 C25.8777599,40.1567268 25.877038,40.0495036 25.8766169,39.9200879 L25.8767692,39.4852221 C25.8786185,39.0749768 25.8862536,38.6488466 25.9093964,38.5853066 C25.9554708,38.4582268 25.8392281,37.9232427 25.7931538,37.8654695 C25.7469737,37.8076963 25.9228172,37.4765056 26.049733,37.384132 C26.1766488,37.2916525 26.5420735,36.9485051 26.6343279,36.9832113 C26.7265823,37.0178118 26.939729,36.9033235 27.0549149,36.6260968 C27.1703121,36.34887 27.3936037,36.3351145 27.3936037,36.1963954 C27.3936037,36.057782 27.4167466,35.7920888 27.4744452,35.6765424 C27.5321438,35.5609959 27.6245039,35.2029291 27.5898424,35.0758492 C27.555181,34.9487693 27.3244922,34.4057435 27.3128679,34.3479703 C27.3013493,34.2901971 27.1283591,34.0592102 27.1512906,33.9436637 C27.1744335,33.8281173 27.0306096,33.4251863 27.0998268,33.3558796 C27.1689384,33.2865729 27.1584765,32.9198295 27.1584765,32.9198295 L27.1860577,32.4533056 C27.1860577,32.4533056 26.736093,32.1949134 26.5975529,32.1949134 C26.4591185,32.1949134 26.228324,31.9219191 26.1591068,31.841079 C26.0899952,31.760133 25.9914003,32.0134463 25.9567389,32.1173534 C25.9221831,32.2213663 25.4437918,32.2222128 25.3860932,32.1529061 C25.3283945,32.0837053 24.9361284,31.6908263 24.8669112,31.3673599 C24.797694,31.0438935 24.4515023,30.7665609 24.2553692,30.7782002 C24.0592361,30.7897337 23.6730992,30.9992409 23.6499563,30.872161 C23.6269192,30.7450811 23.4361755,30.2467079 23.3899955,30.3391874 C23.3439212,30.431561 23.550199,31.099233 23.3655846,30.9836866 C23.1809701,30.8681402 22.293933,30.2697749 22.2247158,30.2814142 C22.1554986,30.2929477 21.9824027,30.1080946 22.0285827,29.9694812 C22.0746571,29.8308679 21.8419604,29.7302409 21.703526,29.7187074 C21.5650916,29.7071739 21.3109429,29.6128957 21.2648685,29.3587359 C21.2186885,29.1045762 20.9016631,29.046803 20.70553,28.9890298 C20.509397,28.9312566 19.8088765,28.6000659 19.8088765,28.6000659 C19.8088765,28.6000659 19.3175928,27.9954577 19.2021955,28.1918442 C19.086904,28.3882308 18.8902425,28.0517495 18.7056281,28.0170433 C18.5210136,27.982337 18.0363874,27.774417 18.0595303,27.6358036 C18.0825675,27.4971903 18.0710489,27.3701104 17.9441331,27.277631 C17.8172172,27.1852573 17.1941566,27.2198578 17.1249394,27.2198578 C17.0557222,27.2198578 16.7788533,27.1043114 16.721049,27.0927779 C16.6633504,27.0812444 16.3172643,26.9888708 16.2019728,27.0234712 C16.0864698,27.0581774 16.2019728,26.6422316 16.2019728,26.5497521 C16.2019728,26.4573785 16.0685051,25.7340495 16.0685051,25.7340495 C16.0685051,25.7340495 16.1131,25.5062369 16.121237,25.3828604 C16.1273661,25.2905926 15.9755109,25.16055 15.9467673,25.0656369 L15.9403211,25.0279679 L15.9403211,25.0095567 L16.005734,24.9554869 C16.1328612,24.938557 16.4657379,24.8263966 16.4789473,24.6378401 C16.4837027,24.5698031 16.6074483,24.3510903 16.5394991,24.2591399 C16.4895148,24.191632 15.9480354,23.9388478 16.0403955,23.8117679 C16.1326499,23.6846881 16.3057457,23.7771675 16.3172643,23.6269149 C16.3287829,23.476768 16.092599,23.2428183 16.0118632,23.1619781 C15.9310217,23.081138 15.701601,22.7516403 15.8054797,22.4512408 C15.9092526,22.1509471 15.8536675,21.6422043 15.8421489,21.5843253 C15.8306303,21.5266579 16.0652291,20.8575046 16.1460706,20.7419582 C16.2268064,20.6264118 16.4682741,20.7085217 16.5836714,20.6507485 C16.6989629,20.5929753 16.6778279,20.3946841 16.562325,20.3022047 L16.533347,20.2801018 L16.533347,20.2801018 L16.4570169,20.2237248 C16.3034969,20.107544 16.1078238,19.9283643 16.4069825,19.8103918 C16.78773,19.6601391 17.0061605,19.3279961 16.9484619,19.1893828 C16.890869,19.0507694 16.9818553,19.0962685 17.1318083,19.1193354 C17.2817613,19.1424024 17.6471859,18.7617976 17.693366,18.588478 C17.739546,18.4152642 18.0133503,18.2663871 18.1056047,18.2663871 C18.1979647,18.2663871 18.7121799,18.1020615 18.8044343,17.9519147 C18.8967944,17.801662 19.0026809,17.6447432 18.9681251,17.5176634 L18.9650275,17.4747517 L18.9650275,17.4747517 L18.9671146,17.3480191 C18.9666655,17.3290606 18.9652455,17.3134203 18.961996,17.3044527 L18.9260664,17.1745159 L19.3863873,17.1112405 C19.5478589,17.1112405 19.790172,17.2035083 19.8940507,17.3075213 C19.9979293,17.4115342 20.1594009,17.5963873 20.4247512,17.6194542 C20.6901015,17.642627 21.0362932,17.7350006 21.1401719,17.8043073 C21.2439448,17.873614 21.4400779,17.9891604 21.5554751,17.9891604 C21.6708724,17.9891604 21.9247041,18.2086139 22.0285827,18.474413 C22.1323557,18.7401062 22.4904888,19.1694902 22.709659,19.2618638 C22.9289349,19.3543433 23.1708253,20.0456112 23.3554397,19.9185314 C23.5400542,19.7914515 24.0245747,19.3755056 24.2438506,19.514119 C24.4631265,19.6527323 24.6476353,19.7105055 24.8553926,19.5603587 C25.0630443,19.410106 25.2014787,19.4216395 25.363056,19.4794127 C25.5245276,19.5372917 26.0553338,19.3985726 26.0553338,19.3985726 C26.0553338,19.3985726 26.4129384,19.179119 26.6091772,19.3870391 C26.8053102,19.5949591 26.8629032,19.7335725 27.0706605,19.698972 C27.2783121,19.6642658 27.6937211,19.514119 27.751314,19.4332788 C27.8090127,19.3524386 27.9244099,19.1559463 28.0975058,19.2253588 C28.2706017,19.2946654 28.5129148,19.3524386 28.4782533,19.1906525 C28.4435919,19.0288664 28.4090361,18.5667866 28.4667347,18.4397067 C28.524539,18.3126268 28.6166877,18.1393072 28.5936506,17.9429207 C28.5705077,17.7465341 28.4782533,16.9378151 28.4782533,16.9378151 L28.3975175,16.7068281 C28.3975175,16.7068281 28.4090361,16.4988023 28.5359519,16.4642018 C28.6628678,16.4294956 28.8705194,16.3024157 28.7667464,16.1985086 C28.6628678,16.0944957 28.2049774,15.5414178 28.4818463,15.4836446 C28.7588208,15.4258714 29.1590125,15.8172689 29.2167112,16.0020162 C29.2743041,16.1869751 29.4474,16.8685084 29.6320144,16.8454415 C29.8166289,16.8222687 29.9550633,16.7762406 30.0359048,16.5912817 C30.1166406,16.4064286 30.6012668,15.6670163 30.4628324,15.3897896 C30.3242923,15.1124571 30.1166406,14.9161763 29.9205076,14.6273103 C29.7243745,14.3384443 29.7243745,14.0380448 29.8628089,13.8185913 C30.0012434,13.5991378 30.058942,13.2294316 30.0242805,13.1254187 C29.9897248,13.0214058 29.9781005,12.6864058 30.2204136,12.536259 C30.4628324,12.3860064 30.4743509,12.1087796 30.4858695,11.9700605 C30.4973881,11.8314471 30.6589654,11.6582333 30.8435799,11.5889266 C31.0280887,11.51962 31.2242217,11.2654602 31.2588832,11.149808 C31.2934389,11.0343674 31.431979,10.5491148 31.6627735,10.4335684 C31.8934623,10.318022 31.9223117,9.63215044 32.0722647,9.65521739 C32.2223234,9.67828435 32.4195132,9.5912013 32.4425504,9.24456209 C32.4655875,8.8980287 33.0011491,8.86237015 33.2088008,8.85083667 C33.4164524,8.83930319 33.5548868,8.53890371 33.6126911,8.34251715 C33.6702841,8.14613059 33.9434543,7.50194881 34.3358261,7.61749521 C34.7280922,7.73304162 34.7715247,7.78626491 34.8291176,7.50893238 C34.8868162,7.23170567 35.066464,7.33741158 35.2509728,7.1525585 C35.4355872,6.96770542 35.182601,6.14216235 35.2057438,6.02661594 C35.228781,5.91117535 35.7702604,5.89329317 35.7702604,5.89329317 C35.7702604,5.89329317 35.8048162,5.29260002 36.1163465,5.30413349 C36.4278768,5.31566697 36.4740568,5.26953306 36.5202368,5.18858709 C36.5663112,5.10774693 36.7226047,4.79528491 36.8033405,4.72587242 C36.8840763,4.65656574 37.2988512,4.31257183 37.3103698,4.24315934 C37.317133,4.20210439 36.7120372,3.08187567 36.943043,2.98103709 C37.1010274,2.91194204 38.1070547,3.84382589 38.1586241,3.84848161 C38.2854343,3.85990927 38.9201192,3.74446868 39.0123736,3.58278837 C39.1047336,3.42100224 39.6816142,3.2130822 39.6816142,3.2130822 L39.6813431,3.14854631 C39.6806653,3.05086635 39.678293,2.86813598 39.6699899,2.78560284 C39.6584713,2.67005644 39.6239156,2.34659 39.4969997,2.25421636 C39.3700839,2.16173692 39.1624323,1.8845102 39.150808,1.75743032 C39.1392894,1.63035044 38.9777121,1.46856431 39.2431681,1.39925763 C39.5085183,1.32995095 39.912303,1.23747151 40.0623617,1.61881696 C40.2123147,2.0000566 40.6277237,2.55451004 40.9045925,2.61228324 C41.1814614,2.67005644 41.3545573,2.72782964 41.4122559,2.48520336 C41.4699545,2.24257707 41.4584359,2.17327039 41.6892304,2.25421636 C41.9199192,2.33505652 42.0583537,2.26574984 42.1276766,2.17327039 C42.1968938,2.08089676 42.2776296,2.04619051 42.369884,2.20797664 C42.462244,2.36965695 42.6930385,3.13224205 42.7968115,3.2130822 C42.9007959,3.29402817 43.0160874,3.31709513 43.131379,3.23614916 C43.2467763,3.155309 43.3506549,3.17837596 43.4198721,3.17837596 C43.4890893,3.17837596 43.8237625,3.07446885 43.8121382,2.91268272 C43.8006196,2.75100241 44.0082713,2.13866996 44.20451,1.87297672 C44.4005374,1.60728348 44.7582477,1.04108495 44.7582477,1.04108495 C44.7582477,1.04108495 45.1507252,0.625244873 45.3466469,0.64841764 C45.5427799,0.671484596 45.6698014,0.57900515 45.8197545,0.417324835 C45.9697075,0.255538709 46.0966233,0.174698552 46.2121262,0.220938276 C46.3274178,0.267072187 46.5005137,0.232471754 46.6274295,0.139992307 C46.7543454,0.047618672 46.8697426,-0.0563942527 46.9966585,0.0359793823 Z" id="陕西"></path>
            </g>
        </g>
    </g>
</svg>