<?xml version="1.0" encoding="UTF-8"?>
<svg width="120px" height="120px" viewBox="0 0 120 120" version="1.1" xmlns="http://www.w3.org/2000/svg" xmlns:xlink="http://www.w3.org/1999/xlink">
    <title>jdo_cn_ximalaya_radio_province_jilin</title>
    <g id="jdo_cn_ximalaya_radio_province_jilin" stroke="none" stroke-width="1" fill="none" fill-rule="evenodd">
        <g id="编组">
            <rect id="矩形" x="0" y="0" width="120" height="120"></rect>
            <g id="吉林-" transform="translate(23.000000, 31.000000)" fill="#FFFFFF" fill-opacity="0.189284" fill-rule="nonzero">
                <polygon id="吉林" points="12.7349488 0.654675512 13.2932458 0.471905414 14.3230874 0.933944372 15.449187 0.558417396 16.0076044 0.933944372 18.2505388 4.54747351e-13 18.8088359 4.54747351e-13 18.8088359 0.558417396 19.1843629 0.182890421 19.28026 1.67513187 19.5595289 1.67513187 19.5595289 2.79136505 19.9350559 3.34978244 19.5595289 3.44616088 19.655787 3.82168786 19.1843629 4.19673354 20.2142044 5.31344801 19.655787 6.43016248 20.6861098 7.26724712 20.782007 8.10481306 21.4366825 8.00855494 21.715831 8.84612087 22.466524 8.94237899 22.842051 10.1549906 23.4967265 9.97222051 24.151041 10.5306379 24.3338111 9.97222051 24.7093381 10.251369 25.922431 9.87584207 26.0183281 10.251369 26.4902336 10.251369 27.1450294 8.95176416 27.4241779 9.51018155 28.1747506 9.51018155 28.1747506 10.251369 28.5502776 10.9061649 29.9556461 10.3477475 30.2347946 10.7232745 30.3306917 10.3477475 30.8025972 10.7232745 31.7365415 9.98208697 31.4572727 9.60655999 32.0152088 9.88570853 32.8527747 9.23103302 33.6038287 9.41380311 33.6038287 11.3680835 34.6336702 12.6770736 35.7597698 13.235491 38.0990827 13.6975299 38.5705068 13.1391125 39.1288039 13.1391125 39.6872213 12.6770736 40.7169425 12.397925 42.5848312 13.6975299 43.9901997 13.7939084 44.1729698 14.4481026 45.0100545 15.8440859 44.2594818 17.3358461 44.8177789 20.319968 45.751242 19.2995116 46.5888079 19.857929 46.6851863 19.4828834 47.811286 19.5787805 48.8416088 20.233456 48.8416088 20.8882518 48.1868129 20.9840287 48.5624602 21.7253365 48.2831914 22.1872551 49.495803 23.5832385 49.3130329 24.3244259 50.0636056 24.8828433 50.3427541 24.5073164 50.5261258 25.6240308 50.9011715 25.9990765 51.8351159 25.9990765 53.5196329 25.2583703 53.0477275 24.6035745 53.5196329 24.2280475 53.1441059 23.948899 53.5196329 23.48686 53.1441059 22.7456725 53.9816719 22.842051 54.453096 21.8215946 55.6661889 20.9840287 56.5995316 22.4763904 56.5995316 24.9693553 58.0918934 28.0398689 58.3710419 28.0398689 58.9388445 29.5321104 58.7460876 29.8113792 59.1216146 29.9072764 59.8727889 31.9579352 60.5269831 31.7745635 60.9988885 32.1500905 62.6834056 31.5917934 62.779784 29.1659685 63.0584512 28.88682 63.8960172 29.0701917 65.0221168 28.1362473 66.9859027 28.1362473 67.4578081 27.8570988 67.3614297 27.2986814 68.7667982 26.3652183 69.2385833 26.740264 69.3250952 28.4153959 69.9798911 28.5117743 72.0394538 26.2782251 71.9529418 27.3950599 73.5410804 30.9374788 74.4750248 31.0338573 74.4750248 31.408903 75.9766514 32.4293593 76.3518174 33.1705468 77.6611684 32.4293593 78.5946315 33.4496954 79.8171096 32.7085079 80 33.7288439 79.1530489 35.6827633 79.1530489 36.4239508 78.2191045 37.8198138 78.4982531 38.8402702 77.6611684 38.9366486 77.6611684 39.5908428 75.9766514 39.4944644 75.6011244 39.9565034 74.9464489 39.6778361 72.5113592 41.0732178 73.0696563 41.6316352 73.7239708 41.3524867 74.4750248 42.2863107 74.2921344 43.1233954 73.9166074 43.2197738 74.2921344 44.3364883 73.9166074 44.3364883 73.5410804 42.3822079 73.1275315 42.3822079 73.1275315 43.0370037 72.7520045 43.1332618 72.7520045 42.4884528 72.3764775 42.4884528 71.2596427 41.2753599 71.346636 39.2251823 70.1335431 39.1288039 70.3163132 38.3876164 70.1335431 38.2048463 69.286592 38.4839948 68.3526476 38.0219559 67.140036 41.2852263 67.3229264 42.497838 66.764509 44.3652454 66.2930849 44.3652454 66.0139364 43.9901997 65.3591405 45.0100545 64.6085679 44.2693483 63.7710019 44.1729698 63.4824682 44.9141573 62.8276724 45.0100545 63.0204293 45.5684719 62.4521454 46.4060378 62.7411604 46.9643349 60.6041099 48.2639398 60.5077315 48.9182543 58.8232144 48.6389854 58.3517903 49.1010244 57.7933729 48.8223572 56.955807 49.1974028 55.27129 48.6389854 53.211246 49.4765514 53.3946177 51.2480617 53.8660418 52.1815248 55.27129 53.4905148 53.8759082 55.9932258 53.5003813 56.0896043 52.0950128 55.2520383 51.4403373 55.6275653 49.6693083 55.6275653 48.8317423 54.9728898 47.8019008 55.0692682 47.7055224 54.8863778 46.5794227 54.8863778 46.6758012 54.5108508 45.2699514 54.2317023 45.9247472 53.5773878 44.6157572 52.7398218 44.9912841 52.4606733 44.8079124 52.0851463 43.7781912 51.6231074 43.7781912 51.2480617 43.1233954 52.1815248 42.7483497 51.9986343 42.5655796 52.4606733 41.7280137 51.9986343 42.1035406 52.3741613 41.8243921 52.8362003 41.2659747 52.8362003 40.7075573 53.4905148 40.9868262 54.1451903 40.3320303 55.3578019 40.4284088 56.2917463 39.8699914 56.2917463 38.5610013 58.4383023 37.0687599 59.2758682 37.3479084 59.5550168 36.7900926 60.3925827 36.0390387 61.0467769 36.3181872 61.1431554 35.6633914 61.4223039 35.3842428 61.0467769 34.6336702 61.5088159 34.3545216 61.1332889 33.7961043 61.5088159 33.2376869 61.0467769 32.5834926 61.1431554 33.4210586 60.4019679 33.8924827 59.2852534 33.6132138 59.0059845 34.3643881 58.2647971 33.8924827 58.1688999 33.9887408 57.5142244 33.1512952 57.1386974 33.1512952 56.3975099 32.2178321 55.5604253 32.2178321 54.9056294 31.4667782 53.5966394 31.6495483 52.7590735 30.4369366 52.5763034 30.7160852 51.8351159 30.2441798 50.9975499 30.6197067 49.9677084 30.3405582 49.5921814 31.8324387 47.7248943 30.8025972 47.1664769 30.3306917 47.7248943 30.2347946 46.0497624 29.9556461 45.6747168 29.3009706 45.7704936 29.3009706 44.557882 28.4634046 43.5281608 28.6461747 42.411326 28.0882386 42.411326 27.7127116 41.6701385 27.7127116 40.3706539 26.6829904 40.2742755 26.7788876 38.2240979 26.4996187 37.8485709 26.8751457 36.635839 25.2870071 37.4734049 24.9114801 38.406868 23.3233415 39.9950066 23.2269631 39.6199609 22.5727689 39.2444339 23.1305847 38.5032465 22.380012 38.1277195 22.9384294 37.1942564 22.004485 36.260312 21.8215946 35.6061178 21.3501705 35.2305908 20.5991165 35.3269693 20.319968 34.8649303 19.6656534 34.8649303 17.8750118 32.515751 17.1243189 33.8153559 16.2867529 33.8153559 15.2570317 32.7950198 14.8815048 33.2569385 13.9480417 32.4198538 13.9480417 31.7651783 14.8815048 31.9480687 14.6986143 31.2932729 15.449187 31.3896514 15.7284559 31.0146057 15.0741413 29.5222439 15.2570317 28.4055294 13.9480417 25.9803062 14.5059778 24.9598498 13.8516632 24.5843229 13.1006093 22.9961843 12.4462947 22.6206573 12.4462947 20.8496283 11.4160923 20.9455254 10.3092442 22.17787 7.03646829 24.1317894 5.25569314 23.7566234 5.43846324 21.426816 4.96703912 21.3309189 4.68789058 20.5897314 3.93683663 20.2142044 4.03321507 18.4431754 3.65756777 18.1640268 4.4951337 17.7884999 3.84093948 17.7884999 3.28252208 16.3925165 3.65756777 16.2966194 3.93683663 13.504773 4.96703912 12.6676884 4.96703912 12.1093913 4.21598516 11.7338644 4.3123636 10.2419839 3.18614364 9.58730837 2.81061667 8.74974243 3.08988553 7.81627935 2.81061667 7.25786196 1.78089547 6.88233498 0.750572661 7.25786196 -3.55271368e-15 6.42029602 0.933944372 5.95837739 1.49176015 4.46649691 1.11671447 3.53255254 1.67513187 3.34978244 2.70485306 3.8118214 2.88774348 3.71544296 3.82168786 4.92853587 5.03429947 5.86199895 6.06402067 5.12081146 6.06402067 4.56287535 6.43966797 4.56287535 7.46938917 6.23752593 8.87523895 7.25786196 9.62581161 6.23752593 9.90496015 5.12081146 9.52943318 2.79136505 11.6759892 2.41583807 12.1478946 1.95379911 12.1478946 1.57875343"></polygon>
            </g>
        </g>
    </g>
</svg>