<?xml version="1.0" encoding="UTF-8"?>
<svg width="120px" height="120px" viewBox="0 0 120 120" version="1.1" xmlns="http://www.w3.org/2000/svg" xmlns:xlink="http://www.w3.org/1999/xlink">
    <title>jdo_cn_ximalaya_radio_province_inner _mongolia</title>
    <g id="jdo_cn_ximalaya_radio_province_inner-_mongolia" stroke="none" stroke-width="1" fill="none" fill-rule="evenodd">
        <g id="编组">
            <rect id="矩形" x="0" y="0" width="120" height="120"></rect>
            <g id="内蒙古" transform="translate(20.000000, 31.000000)" fill="#FFFFFF" fill-opacity="0.189284" fill-rule="nonzero">
                <path d="M68.0052243,0 L69.1443439,0.0636835662 C69.1669981,0.084012888 69.2426963,0.145899387 69.2678922,0.164207008 C69.3220412,0.203630168 69.4093428,0.263494967 69.5152097,0.331895834 C69.6900339,0.444437163 69.6447255,0.570681128 69.6608597,0.667947387 C69.6765519,0.765213645 69.6382055,0.739717755 69.7816453,0.869331221 C69.925085,0.998944687 70.0273052,1.04364673 69.9134817,1.2425596 C69.7994371,1.44147247 69.6173194,1.58063285 69.5695798,1.82368618 C69.5217297,2.06673951 69.4123265,2.10582572 69.2369498,2.31641952 C69.0614627,2.52723796 68.2570727,2.9493241 68.5563292,3.04513024 C68.8555857,3.1410487 68.9091822,3.21517772 69.0365983,3.36096479 C69.1642354,3.50686418 69.1484327,3.5554973 69.3396121,3.60413043 C69.5310124,3.65265125 69.6267126,3.57167091 69.658539,3.83101016 C69.6903654,4.09023709 69.730922,4.17728253 69.9455291,4.25231008 C70.1600257,4.32733763 70.3316451,4.10753386 70.4543093,3.91199049 C70.4826674,3.86683918 70.5084597,3.80469482 70.5336213,3.73883603 L70.5836772,3.6061003 C70.6508264,3.43300764 70.7226659,3.29645181 70.8358945,3.44823486 C70.9281689,3.57200786 71.0128182,3.45542313 71.1205638,3.57605126 C71.1530533,3.61244187 71.188637,3.66320901 71.2268728,3.71936736 C71.2648877,3.77563803 71.3056652,3.83741221 71.3483214,3.89547994 C71.3717492,3.92760252 71.4229146,3.85156411 71.4424745,3.89604152 C71.4855728,3.99398168 71.4937504,4.21940129 71.5507727,4.24141536 C71.8857233,4.37091651 72.2892996,4.31711681 72.2574732,4.51153701 C72.2435492,4.59667307 72.2021086,4.68169681 72.1519378,4.75593814 C72.087401,4.85129502 71.9160026,4.82254194 71.8622956,4.85904487 C71.8323478,4.87926187 71.8931274,5.02010701 71.8683735,5.06132724 C71.8140034,5.15219144 71.8536759,5.28876854 71.9522493,5.36671633 C72.0956891,5.48015619 72.1033142,5.57719782 72.1033142,5.77161802 C72.1033142,5.96615053 72.1422131,6.28187276 72.1617731,6.47236188 C72.1812225,6.66285099 72.3990344,6.90994772 72.3990344,7.03956119 C72.3990344,7.16917466 72.4805895,7.6067605 72.5284396,7.72008805 C72.5764002,7.83364023 72.7038163,7.86598743 72.7038163,7.94708009 C72.7038163,8.02806042 72.6430367,8.0783783 72.9458294,8.14318504 C73.0689357,8.16946714 73.2402236,8.2653856 73.4052125,8.28796126 C73.6464521,8.32109468 73.8555338,8.26078062 73.9691363,8.24157446 C74.1604262,8.20922725 74.2879528,8.16048181 74.3358029,8.03086834 C74.383653,7.90125488 74.4202312,7.72693936 74.6274343,7.84026691 C74.8346373,7.95370677 74.8422624,8.12925777 75.1133393,8.08062464 C75.3843056,8.03199151 75.4463008,7.94708009 75.6536144,7.97953961 C75.8609279,8.01188682 75.795949,8.08444341 75.8917597,8.13307653 C75.9874599,8.18170966 75.9144139,8.22203136 76.1290211,8.22416537 C76.208587,8.22506391 76.1921213,8.01345925 76.2269314,7.95146044 C76.2615205,7.88957394 76.4000979,7.84318714 76.4478375,7.85936075 C76.5435377,7.89170796 76.5753641,8.08668974 76.846441,7.97324988 C76.9310903,7.93787012 76.9818136,7.84296251 77.0572908,7.79826047 C77.0989524,7.77366311 77.206035,7.81151384 77.2449339,7.79006135 C77.3615201,7.72570388 77.3910259,7.60911915 77.4073811,7.52566785 C77.439318,7.36370717 77.3680401,7.28261452 77.5613192,7.23791247 C77.7547087,7.19321043 77.7103949,7.088082 77.726308,6.94229493 C77.7422212,6.79650786 77.7344857,6.70317269 77.9417992,6.7516935 C78.1490023,6.80032663 78.5076017,6.89377412 78.6351283,7.088082 C78.7626549,7.28261452 79.1135188,7.8173543 79.1135188,7.8173543 L79.4801853,8.40083954 L79.5113486,8.43161431 C79.6447322,8.4685665 79.596219,8.55493804 79.6933558,8.64130958 C79.7903821,8.7275688 79.9117202,8.73992364 79.9602334,9.04823297 C80.0087465,9.35642998 80.0330583,9.44280152 79.9117202,9.67709414 C79.7903821,9.91138677 79.5720177,10.1334369 79.5354394,10.2196961 C79.4991927,10.3059553 79.4748809,10.3430198 79.5113486,10.5773125 C79.529472,10.6944588 79.582295,10.8563071 79.5535628,10.9812033 C79.5247201,11.1059871 79.4143224,11.1938188 79.3778546,11.255593 C79.3051401,11.3788044 78.8561449,11.4774185 78.8683008,11.7118234 C78.8804567,11.946116 78.8926127,11.8844542 78.7955864,12.0940371 C78.6984496,12.3038447 78.5406437,12.3777491 78.5406437,12.5134276 C78.5406437,12.6489939 78.5285983,12.6489939 78.4557733,12.6983009 C78.3829484,12.747608 78.1767399,12.6983009 78.2736557,12.8463343 C78.370903,12.9942554 78.4193056,13.0066103 78.3100129,13.1175792 C78.2009412,13.228548 78.0431353,13.3765815 78.1160708,13.4751955 C78.1887853,13.5738096 78.2979675,13.5492122 78.2374089,13.7341978 C78.1767399,13.9191834 78.1402721,13.9561356 78.2009412,14.1165238 C78.2616103,14.2767998 78.2374089,14.3877687 78.1402721,14.4740279 C78.0431353,14.5603994 77.9097518,14.4617854 78.0190445,14.6466586 C78.0360628,14.675524 78.0967319,14.7440372 78.1129766,14.7757105 C78.2008307,14.9466565 78.2309995,15.1080556 78.2616103,15.2016154 C78.2979675,15.3125843 78.4193056,15.6825555 78.370903,15.8551863 C78.3223898,16.027817 78.2009412,16.2868193 78.091759,16.4223856 C77.9825768,16.5580642 77.9097518,16.6566782 77.8248815,16.5334668 C77.7399006,16.4101431 77.6065171,16.3731909 77.4973348,16.4101431 C77.3880421,16.4470953 77.2910159,16.4964023 77.2910159,16.6566782 C77.2910159,16.7669732 77.0730935,17.4016749 76.9171663,17.8799193 C76.8463304,18.0972522 76.7882031,18.2822377 76.7693062,18.3708556 C76.7086371,18.6545676 76.6237667,18.6298579 76.6113898,18.9257001 C76.5994549,19.2216546 76.5266299,19.3449783 76.5751431,19.6163355 C76.6237667,19.8875803 76.7086371,20.0849207 76.6842148,20.1958896 C76.6698487,20.2626057 76.6156996,20.3472925 76.5537045,20.4309684 C76.5045283,20.4976846 76.5113798,20.4774676 76.4578938,20.4131101 C76.3635197,20.2993333 76.1671464,20.0632436 76.1066984,19.9942811 C76.0260273,19.9021814 76.0260273,19.7383114 76.0260273,19.6565448 C76.0260273,19.5745536 76.0463609,19.482454 76.0160816,19.3186962 C76.0044782,19.2555742 75.9600539,19.1654962 75.8909862,19.079237 C75.8742994,19.0584584 75.8830296,19.0572229 75.8479985,19.0626141 C75.8128568,19.0681177 75.788987,19.1376417 75.6854407,19.1771772 C75.5579142,19.225698 75.1114606,19.711917 74.8403838,19.9874298 C74.5694174,20.2629427 74.5215673,20.505996 74.4098434,20.6842426 C74.2983405,20.8624892 73.9794136,21.0083886 73.8040369,21.0407358 C73.6286602,21.073083 73.3555942,21.5581788 73.2600045,21.7201395 C73.1644149,21.8822125 72.7745416,22.0940418 72.5193779,22.2237675 C72.2643248,22.353381 71.8866074,22.6263106 71.6953175,22.8208431 C71.548231,22.9702243 71.5327598,23.1173592 71.422141,23.3264928 C71.388878,23.3895025 71.282569,23.4053392 71.2529528,23.4877796 C71.1542689,23.7635171 71.5081165,24.1625783 71.7626171,24.4009144 C71.8370997,24.4707753 71.8934589,24.499753 71.9297056,24.5364806 C72.0889481,24.6985536 72.3482006,24.5423211 72.300461,24.6881081 C72.2839952,24.7382014 72.1924944,24.7626864 72.1688456,24.8820791 C72.1238687,25.110082 72.1798964,25.1673635 72.1798964,25.1673635 C72.1798964,25.1673635 72.2316143,25.2238588 72.2961511,25.177135 C72.360467,25.1304113 72.4124059,25.0143881 72.4490946,25.2011708 C72.4576038,25.244862 72.420473,25.3492042 72.4464424,25.4414162 C72.4653394,25.5085816 72.4716383,25.6195505 72.5181623,25.6811 C72.5386064,25.708393 72.567228,25.7322041 72.593308,25.7557906 C72.6350801,25.7934167 72.5791629,25.8628285 72.5755161,25.8848425 C72.5719799,25.9068566 72.6430367,25.9462798 72.6734265,25.9616672 L72.7534345,26.0225428 C72.7534345,26.0225428 72.9447244,26.0737592 73.0554537,25.8997807 C73.1662935,25.7258021 73.2972458,25.4596115 73.4684232,25.5414904 C73.5111899,25.561932 73.5420217,25.5843954 73.5675492,25.6064094 L73.6274447,25.6134854 C73.6274447,25.6134854 73.7295543,25.4958898 73.7362953,25.4128878 C73.7430363,25.3298857 73.7566289,25.2814772 73.81122,25.2330688 C73.8418308,25.2058881 73.8746517,25.1742148 73.9106774,25.148045 L73.9163133,25.1452371 C73.9567594,25.1246831 74.0506914,25.168262 74.0441715,25.1834248 C74.0374304,25.1985875 74.0317945,25.213301 74.0271532,25.227116 C73.9907959,25.3381972 73.9787505,25.399859 74.0029519,25.4861183 C74.0272637,25.5723775 74.1064981,25.5811382 74.1551218,25.5071215 C74.2036349,25.4331048 74.2301569,25.2581154 74.3029819,25.3937939 C74.3574625,25.4954406 74.390836,25.5710297 74.4322766,25.6333655 L74.3939302,25.8050977 C74.4258671,25.9833443 74.3029819,26.0762302 74.031905,26.1248633 C73.7607177,26.1734964 73.7361848,26.1299176 73.5608081,26.1947243 C73.3854315,26.259531 73.5501993,26.5987274 73.152259,26.441821 C73.0154497,26.387909 72.886376,26.428343 72.8309008,26.4937113 C72.7247023,26.6186075 72.7786304,26.8710954 72.7995165,26.9880171 C72.8313428,27.1662637 72.9923534,27.4718774 73.1023092,27.57139 C73.1678406,27.6304686 73.1688352,27.745144 73.1354617,27.8929527 C73.112697,27.9941501 73.0845174,28.1107348 73.00683,28.2357433 C72.8155402,28.5437157 72.5826992,28.4258954 72.2797959,28.4907022 C72.2231052,28.5027201 72.1842062,28.4877819 72.1593419,28.5129409 C72.153927,28.6765863 72.2002299,28.856293 72.1954781,29.002417 C72.1896211,29.1870657 72.1655303,29.5016648 72.0395509,29.8789365 C72.0333624,29.8809582 71.9705937,29.9933872 71.9214175,29.9343087 C71.8580962,29.8586072 71.768916,29.7437072 71.755434,29.7115847 C71.7313432,29.6543031 71.6031536,29.6005034 71.5467944,29.4936903 C71.522151,29.4471912 71.5380642,29.4497744 71.3137323,29.1238314 C71.2238891,28.9933194 71.0322677,29.0258912 71.0001098,29.122259 C70.9878434,29.1587619 71.0091715,29.2596223 70.9707146,29.3226319 C70.9212069,29.4036123 70.8098145,29.4510099 70.7595332,29.513458 C70.6878133,29.6025251 70.6326697,29.4806615 70.5548718,29.3780041 C70.476853,29.2754589 70.3214783,29.2058226 70.3214783,29.2058226 C70.3214783,29.2058226 69.9293949,28.851688 69.6744522,28.7219623 C69.5788625,28.6735538 69.4679122,28.6928722 69.4486837,28.7537479 C69.4235984,28.8331558 69.4886878,28.9490666 69.5106789,29.0605971 C69.5167569,29.0919334 69.4670281,29.2151449 69.464818,29.2395176 C69.4490153,29.4177642 69.3293348,29.5554644 69.0901948,29.6849656 C68.8510549,29.8145791 69.3784005,29.9293667 69.6653905,29.9293667 C69.9523806,29.9293667 69.9614423,30.1642209 69.9455291,30.3262939 C69.9295054,30.4883669 69.9140342,30.6287628 70.0894109,30.7907235 C70.2318561,30.9223586 70.3859047,30.9609956 70.4545303,31.1216084 C70.4704435,31.1584483 70.3348498,31.333887 70.337944,31.3793753 C70.3537467,31.6224286 70.5992962,31.5254993 70.6471463,31.752379 C70.6650486,31.8375151 70.5671383,31.8806447 70.5006123,32.0354171 C70.4800577,32.0837133 70.3394912,31.9958816 70.3189366,32.05204 C70.2573835,32.2189426 70.1753863,32.5174803 70.1691979,32.7132483 C70.1666562,32.8020908 70.2426859,32.8379199 70.2326296,32.8866653 C70.1688663,33.1946377 70.024432,33.2310283 70.1998087,33.4093872 C70.3751853,33.5875215 70.4439215,33.7007367 70.3163949,33.8466361 C70.2605882,33.9103197 70.1756074,34.0684616 70.2315246,34.1987489 C70.2763909,34.3034281 70.3854626,34.4023791 70.4850306,34.5040257 C70.5222719,34.5422134 70.5200617,34.6587981 70.5469152,34.7059711 C70.562939,34.7342749 70.6730052,34.794589 70.6843876,34.8199726 C70.7734573,35.0200086 70.6794147,35.2672177 70.6794147,35.5750777 C70.6794147,35.8829378 71.3431276,35.7249082 71.5504411,35.6114683 C71.7576442,35.4980285 72.0528119,35.1851142 72.2442122,35.0555007 C72.4355021,34.9258872 72.5170572,34.8541169 72.820071,34.7082175 C73.1229743,34.5623181 73.1121444,34.9069057 73.0006416,35.0852646 C72.8890282,35.2633989 73.3736071,35.4308631 73.4054335,35.5605889 C73.4373704,35.6902023 73.3952667,35.8249824 73.5547302,35.9383099 C73.7140832,36.0517498 73.6821463,36.2759339 73.5706434,36.4055474 C73.4658815,36.527074 73.8412782,36.7711382 73.9178605,37.0064417 L73.9593011,37.1773877 C73.9741092,37.2808314 74.0333416,37.3673152 74.0397511,37.4934469 L74.0526806,37.6032926 C74.057764,37.675063 74.0628474,37.7160586 74.1284893,37.7880536 C74.1940207,37.8598239 74.1487123,38.019089 74.1284893,38.0705301 C74.1082663,38.1218588 74.077987,38.1885749 74.0526806,38.168021 C74.0274847,38.147467 73.8941012,38.0632295 73.8689053,38.0990585 C73.8433779,38.1346629 73.7999481,38.1999189 73.778841,38.2274365 C73.7368479,38.2824717 73.6644649,38.3863646 73.6946337,38.5085652 L73.7248025,38.6308781 C73.7248025,38.6308781 73.8991846,38.7836288 73.9593011,38.8325988 C74.0194176,38.8814566 74.3020978,39.0588047 74.3020978,39.0588047 L74.5026704,39.0989017 L74.4922826,39.1026082 C74.5276453,39.1076624 74.5832309,39.0974416 74.6033435,39.16427 C74.6235665,39.2309862 74.5832309,39.4980753 74.5832309,39.4980753 C74.5832309,39.4980753 74.5545487,39.6852893 74.5182801,39.9041768 L74.4724666,40.1720906 C74.4335045,40.3914306 74.3953945,40.5802279 74.3792326,40.5829422 C74.3405547,40.5893443 74.3196686,40.586761 74.2807697,40.575754 C74.1563374,40.5402619 73.9515655,40.3187734 73.851887,40.3086649 C73.692534,40.2923789 73.7722105,40.3410121 73.5330706,40.4221047 C73.2938201,40.503085 73.2938201,40.8273433 73.2938201,41.0055899 C73.2938201,41.1837242 73.24597,41.2647046 73.0387669,41.2647046 C72.8314534,41.2647046 72.7197295,41.3781444 72.4328499,41.4754107 C72.1458599,41.5725646 72.034136,41.3781444 71.9067199,41.3295113 C71.7790828,41.2811028 71.8110197,41.3619708 71.5718797,41.2647046 C71.3327398,41.1675506 71.3646767,41.1350911 71.0935998,41.1350911 C70.822523,41.1350911 70.9658522,41.2811028 71.1254262,41.3619708 C71.2848897,41.4429512 71.2848897,41.5402174 71.1412289,41.6861168 C70.9977891,41.8319039 70.822523,41.718464 70.6471463,41.6699432 C70.4717696,41.6211978 70.4604978,41.6771315 70.0733872,41.8478528 C70.0462021,41.864588 69.9894009,41.853244 69.9480708,41.8325778 C69.9159128,41.8166288 69.9011047,41.7948394 69.8647475,41.7766441 C69.7914805,41.7398042 69.6973274,41.7295834 69.6705844,41.7523837 C69.5875927,41.8231432 69.6260496,41.9305179 69.6035059,42.0462041 C69.5714585,42.2099619 69.5076952,42.3733827 69.4615027,42.425273 L69.4219407,42.5361296 C69.3830418,42.5459011 69.3443639,42.5767882 69.2851315,42.5936357 C69.1990455,42.6184577 69.0873216,42.6324973 69.0182539,42.6621489 C68.9348201,42.6977533 68.8023207,42.6486709 68.7015371,42.5984653 L68.6378843,42.564321 C68.5920234,42.5384882 68.5619651,42.5181589 68.5619651,42.5181589 L68.4916819,42.461102 C68.4417321,42.4742431 68.3842678,42.485924 68.314316,42.4906413 C68.2187264,42.4971557 68.1541895,42.4956955 68.0921944,42.4896304 L68.0800384,42.4963694 L67.9365987,42.6583301 C67.9365987,42.6583301 67.7611115,42.8690362 67.5379952,43.0472828 C67.3146579,43.2255294 67.155305,43.1770086 67.0118652,43.1607227 C66.8683149,43.1445491 66.7886384,43.1607227 66.5494985,43.2903362 C66.310248,43.4200619 66.0870212,43.4685828 65.784118,43.5983085 C65.4811042,43.727922 65.5290648,43.889995 65.5290648,44.0357821 C65.5290648,44.1815691 65.0985245,44.3922753 64.8593845,44.5868078 C64.620134,44.7813403 64.6520709,44.9920464 64.5404576,45.2675593 C64.4288442,45.5429598 64.2854044,45.3970604 64.2854044,45.3970604 C64.2854044,45.3970604 64.2387699,45.2747475 64.1751171,44.999347 C64.1114643,44.7238341 64.0621776,44.538287 64.0621776,44.3761017 C64.0621776,44.2140287 63.9186273,44.1653955 63.8389509,43.9548017 C63.7591639,43.7440956 63.8401664,43.8275469 63.8082295,43.6168408 C63.7762927,43.406247 63.5899757,43.345259 63.3029856,43.345259 C63.0159955,43.345259 62.8662568,42.674616 62.8662568,42.674616 L62.8395138,42.6701234 C62.7631525,42.7231368 62.6054572,42.7685128 62.5212499,42.841631 C62.4114046,42.9375494 62.2386801,43.001233 62.1602193,43.160835 C62.0816479,43.3203247 62.3014489,43.7830695 62.3172515,43.9426715 C62.3328332,44.1022735 62.1977921,44.6330823 62.1602193,44.900059 C62.1449691,45.0084446 62.1228674,45.1051493 62.096677,45.1930933 L62.1035285,45.2185892 L62.2381276,45.3513475 C62.2381276,45.3513475 62.3561505,45.4618671 62.4040006,45.6724609 C62.4517402,45.8831671 62.2604503,46.2721198 62.0850736,46.5799798 C61.9096969,46.8880645 61.7400667,46.9234443 61.5168399,46.9234443 C61.2936132,46.9234443 61.3202457,46.9757839 61.0811057,46.8788546 C60.9316985,46.8179789 60.9379974,46.8795285 60.798978,46.8180912 C60.7732296,46.8065226 60.7674831,46.6515256 60.7060405,46.6276021 C60.5704468,46.5750379 60.5228178,46.7695704 60.4488877,46.7529476 C60.4176139,46.7458716 60.2752792,46.6625326 60.2405796,46.6548951 C59.9576783,46.5923347 59.6038307,46.6964523 59.4192819,46.7108288 C59.2119683,46.7270024 59.3586128,46.4017333 59.2948495,46.2396603 C59.2310862,46.0778119 59.2788258,46.2560585 59.135386,46.0452401 C58.9919463,45.8345339 59.1514097,45.9479738 59.2468889,45.8831671 C59.3425891,45.8183603 59.1832361,45.7049205 59.1832361,45.7049205 C59.1832361,45.7049205 58.9919463,45.6887469 58.9280725,45.5429598 C58.8643092,45.3970604 58.8643092,45.170293 58.848396,44.8460347 C58.8324828,44.522001 59.0301821,44.7190045 59.0939454,44.8810775 C59.1578192,45.0430382 59.2853458,44.9295983 59.3491091,44.7027186 C59.4127619,44.4759512 59.3567342,44.5309864 59.254735,44.3903659 C59.1526253,44.2496331 59.3420366,44.2651328 59.3451308,44.1995398 C59.3463464,44.1739316 59.3435837,44.0813826 59.2681065,44.0166882 C59.2388218,43.9913047 59.2029066,43.9678305 59.1642287,43.9469396 C59.0920668,43.9078533 59.3713213,43.820471 59.3041322,43.8096886 C59.2903187,43.8076669 59.2457838,43.6440214 59.1773792,43.6522206 C59.1202464,43.6592965 59.1036702,43.8175507 59.0437747,43.8622528 C58.9667504,43.9199836 58.8516007,43.8667454 58.8427601,43.869778 C58.7711507,43.8940384 58.836019,43.8144059 58.8613254,43.7142194 C58.8866318,43.6139206 58.7433026,43.5638273 58.76231,43.457688 C58.8064028,43.2119391 58.6322417,43.2365365 58.488802,43.0906371 C58.3452517,42.9447377 58.6035096,43.0153849 58.635336,42.821077 C58.6671624,42.6264322 58.542951,42.2707252 58.3674638,42.0924786 C58.1921977,41.914232 58.2182776,41.8611062 58.0748379,41.6342265 C57.9311771,41.4074591 57.8687399,41.6438857 57.7080608,41.6504001 C57.5473817,41.6569145 57.3625014,41.6095168 57.2348643,41.5285365 C57.1074482,41.4475561 56.9090858,41.6387192 56.8772594,41.8009045 C56.8453225,41.9628651 56.9032289,42.0094766 56.7749287,42.0484505 C56.718901,42.0654103 56.6228693,41.972749 56.4440669,41.9629775 C56.3219552,41.9562385 56.1544246,41.9079423 56.0162892,41.9254637 C55.8943986,41.9409634 55.7988089,42.0221684 55.7233317,42.0264364 C55.4363417,42.0423854 55.3273805,42.3692269 55.3585438,42.6402471 C55.3819716,42.843428 55.4132454,42.9547339 55.3514713,42.9989867 C55.3311378,43.0135878 55.0907822,42.8988002 55.0498941,42.9255315 C54.947895,42.9921353 55.2251603,43.1361253 55.2569867,43.3305455 C55.2889236,43.5250781 55.2353271,43.7220815 55.1237137,43.7383675 C55.0645917,43.7467912 54.9231411,43.7418493 54.8477745,43.7817217 C54.781359,43.8171015 54.7717447,43.9074041 54.6582527,43.9139185 C54.5864539,43.9180581 54.506394,43.9198667 54.4383415,43.9205818 L54.2782147,43.9205451 L54.2782147,43.9205451 C54.1092475,43.6083047 53.9288979,43.6696296 53.90326,43.649525 C53.849774,43.6077431 53.8135273,43.5773053 53.7340718,43.6111126 C53.5046566,43.7087158 53.3349158,43.950646 53.1337907,44.1311389 C53.1126836,44.1501205 52.9548778,44.4339447 52.9344337,44.4462996 C52.8758643,44.4823532 52.7724286,44.4188943 52.7207107,44.3437544 C52.6864531,44.2937735 52.5943997,43.8364199 52.578155,43.7914933 C52.4666521,43.4837455 51.6557422,44.2204307 51.2123829,44.4004744 C51.0461784,44.468089 50.8401909,44.4925741 50.7784168,44.526606 C50.675423,44.5832136 50.9577717,44.8585019 50.8383123,44.9698077 C50.7427226,45.0588748 50.5199379,45.0853816 50.3979367,45.0119265 C50.2759355,44.9384713 50.1899601,44.8878165 50.1102836,44.8391834 C50.0007699,44.7725796 50.0178986,44.8908491 49.915789,44.8793928 C49.8693755,44.8741139 49.6553209,44.8140244 49.510555,44.8479441 C49.3639105,44.8822007 49.5439285,44.391489 49.5597312,44.2618756 C49.5628255,44.2376152 49.5129862,44.0723973 49.5220479,44.043195 C49.5414974,43.980073 49.6280254,44.0409486 49.6552104,43.932563 C49.6821744,43.8240651 49.696209,43.7500484 49.7123432,43.5665229 C49.7442801,43.2029538 49.7285879,43.2007074 49.6738863,43.1849831 C49.6191847,43.1692588 49.5777441,43.0156095 49.583822,42.8706087 C49.5899,42.7256078 49.5380716,42.5936357 49.4263477,42.6583301 C49.3706515,42.6906773 49.157923,42.7726685 49.0783571,42.7585166 C48.9985701,42.744477 48.8664021,42.6504679 48.7628559,42.6585547 C48.5557633,42.674616 48.4673567,42.8782462 48.4842644,43.0801916 C48.5012827,43.282137 48.5972039,43.2826986 48.3178389,43.2988722 C48.0382529,43.3150458 48.0701898,43.3714288 47.8309394,43.5820226 C47.5917994,43.7927287 47.5914679,44.5811919 47.5677086,44.8309843 C47.5441703,45.0810012 47.2094407,44.8025681 47.113851,44.7865069 C47.0182613,44.7702209 46.9221191,44.8135752 46.7626556,44.9108414 C46.6030816,45.0081077 46.5518058,45.0294479 46.5996559,45.1427754 C46.6114803,45.1710792 46.694693,45.1663619 46.7047493,45.2033141 C46.734918,45.3133845 46.6829791,45.4780407 46.6829791,45.4780407 C46.6829791,45.4780407 46.6888361,45.615741 46.7365757,45.7614158 C46.7517153,45.8079149 46.8784683,45.8645225 46.8355911,45.9240503 C46.7882836,45.9894717 46.6739261,46.0495841 46.5719866,46.1083453 C46.690126,46.290079 46.7751745,46.4141037 46.7751745,46.4141037 L46.7751745,46.4141037 L46.7868784,46.4373537 L46.8049358,46.4696577 L46.8277862,46.5095628 L46.8533117,46.5570687 L46.8796175,46.6132935 L46.9031367,46.6795783 L46.9191877,46.7592765 L46.9194106,46.8281323 L46.9091558,46.886369 L46.8967832,46.9291803 L46.8888691,46.9522067 L46.9050316,46.9800396 L46.9288852,47.0192739 L46.9574203,47.0722571 L46.9850637,47.144019 L47,47.2357894 L46.9877388,47.348686 L46.9398088,47.4426919 L46.8682481,47.5026053 L46.8122925,47.5288733 L46.8088371,47.5298793 L46.8032638,47.5428457 L46.7965759,47.5612892 L46.7844262,47.6017531 L46.7791873,47.6232146 L46.7746172,47.6444526 L46.7709389,47.6659141 L46.7677064,47.6870403 L46.7633592,47.7273924 L46.7621331,47.7455006 L46.7613529,47.7618203 L46.7610185,47.8110029 L46.7607955,47.8485606 L46.7595694,47.8894716 L46.7563369,47.933736 L46.7498719,47.9821362 L46.7374993,48.0356783 L46.7140916,48.095927 L46.6781998,48.1528224 L46.6444258,48.1890387 L46.6161136,48.2157539 L46.5859065,48.2413512 L46.5531357,48.2672839 L46.5176898,48.2931048 L46.4797916,48.3190374 L46.4394412,48.3449701 L46.3968614,48.3703439 L46.3520524,48.3948234 L46.3056828,48.4179616 L46.2575298,48.4394232 L46.207259,48.4586491 L46.1545359,48.4749688 L46.0986918,48.4875998 L46.0387235,48.495089 L45.9620354,48.4948654 L45.8376402,48.4609965 L45.7354265,48.372803 L45.7333087,48.3688908 L45.7296303,48.3720206 L45.7036589,48.3945999 L45.6753467,48.4186323 L45.6450282,48.4437825 L45.6124803,48.4696034 L45.5822732,48.4924063 L45.5327826,48.5305229 L45.5713496,48.6192752 L45.5233081,48.8269602 L45.2299315,48.9628831 L44.974899,49.0517473 L44.4744199,49.1037244 L44.4449931,48.935162 L44.2436868,48.7939854 L43.9314726,48.7441321 L43.7355166,48.7345191 L43.5173791,48.7150696 L43.4130476,48.7150696 L43.3051492,48.7639169 L43.206391,48.8485335 L43.0641613,48.9909396 L42.862855,49.1723565 L42.4453061,49.4023972 L42.2940478,49.2058902 L42.1204963,49.1795104 L41.9482825,48.9859096 L41.876053,48.9432101 L41.6708454,48.8877678 L41.5213705,48.9390743 L41.4071186,49.0097184 L41.2281054,49.1674383 L41.1588854,49.248925 L40.9797608,49.5066868 L40.823152,49.7591951 L40.722053,49.9185916 L40.6154922,50.1128631 L40.587403,50.1623811 L40.4408262,50.489334 L40.3865426,50.6086019 L40.4119567,50.6801403 L40.0704271,51.0352615 L39.9399012,51.0217362 L39.7382606,51.1989056 L39.253944,51.1085883 L39.1940871,50.9889851 L38.717796,50.8992267 L38.703417,50.9630524 L38.6817927,51.0243071 L38.6540379,51.0808672 L38.6208212,51.1327325 L38.5830345,51.1794561 L38.5416809,51.2205907 L38.4976521,51.2564716 L38.4515055,51.287099 L38.4036869,51.3126964 L38.3547536,51.3334872 L38.3049287,51.3498069 L38.266919,51.3585257 L38.2459635,51.4345352 L38.2024921,51.5305532 L38.1192275,51.6300363 L37.9726507,51.6845843 L37.8415675,51.6546276 L37.7664399,51.6085748 L37.7181755,51.5698993 L37.6802773,51.5372599 L37.6502931,51.5133392 L37.6233185,51.5228404 L37.6002452,51.5320063 L37.5728248,51.5431842 L37.5416145,51.5562623 L37.5063915,51.5706818 L37.5009297,51.5729173 L37.4504359,51.6702766 L37.2497984,51.6798896 L37.1806899,51.6404317 L37.1634128,51.6339485 L37.1019955,51.5911373 L37.0531737,51.5358068 L37.0175048,51.4697455 L36.9979984,51.3951891 L36.9964379,51.3168322 L37.013492,51.2393695 L37.0432533,51.1759909 L37.0712311,51.1319501 L37.1176006,51.0634297 L37.1400051,51.0300079 L37.1416771,51.0273252 L37.1068999,51.0283312 L37.0644317,51.0307903 L37.0235239,51.0342555 L36.9859601,51.0379442 L36.9531893,51.0418564 L36.9506256,51.04208 L36.9267721,51.057729 L36.8908802,51.0847795 L36.8476317,51.1204369 L36.7986985,51.1634717 L36.7457525,51.2122073 L36.6900198,51.2658611 L36.6323923,51.32298 L36.5740959,51.3826699 L36.5156881,51.4439246 L36.4580606,51.5057383 L36.402328,51.5669931 L36.349159,51.6269065 L36.2993341,51.684249 L36.2506237,51.7420386 L36.1986809,51.8001636 L36.142168,51.8531467 L36.0804163,51.8980818 L36.0079638,51.9341863 L35.9214668,51.9544183 L35.8263869,51.9483822 L35.7403357,51.913619 L35.6759088,51.863095 L35.6323259,51.809553 L35.602899,51.7591408 L35.5821665,51.7121937 L35.5665614,51.6683764 L35.554746,51.6275771 L35.54516,51.5904666 L35.5297778,51.522058 L35.5188542,51.4575616 L35.5160676,51.4170977 L35.5077077,51.4094968 L35.5060357,51.4081554 L35.4935516,51.4140797 L35.4698095,51.427046 L35.4407171,51.4443717 L35.4064972,51.4662804 L35.36715,51.4922131 L35.3150957,51.5278705 L35.2414172,51.5704582 L35.1449997,51.6014209 L35.0319739,51.600862 L34.9249673,51.5571565 L34.8499511,51.4875184 L34.8051421,51.4164271 L34.778056,51.3509247 L34.7603331,51.2897817 L34.7480719,51.2316568 L34.7388203,51.176438 L34.7313521,51.1240138 L34.72511,51.0758372 L34.7190909,51.0330259 L34.7131833,50.9983745 L34.7080559,50.9754598 L34.7025941,50.9589166 L34.6993616,50.9504214 L34.6825303,50.9504214 L34.680301,50.9593637 L34.683422,50.9791485 L34.6877692,51.0048576 L34.6928966,51.0348143 L34.6984698,51.0682362 L34.7041546,51.1045643 L34.7098393,51.1435751 L34.7149667,51.1849332 L34.7194253,51.2280798 L34.7225463,51.2730149 L34.7243298,51.3194031 L34.7239954,51.367468 L34.7210973,51.4168742 L34.7141864,51.4724282 L34.698024,51.5389366 L34.66425,51.610475 L34.6106352,51.6748596 L34.5428643,51.7214713 L34.4743132,51.7465098 L34.4133417,51.7558992 L34.3620677,51.7563463 L34.3189306,51.7528811 L34.2820356,51.7476275 L34.2511597,51.7422622 L34.2255227,51.737791 L34.205236,51.7346612 L34.1930863,51.7333199 L34.1768124,51.7412562 L34.1530703,51.7545578 L34.1248696,51.7718835 L34.0937708,51.7926744 L34.0604426,51.8162597 L34.0264457,51.841857 L33.9918915,51.8691311 L33.9576717,51.8971875 L33.9245665,51.9258029 L33.8929103,51.9541947 L33.863595,51.9819158 L33.8374006,52.0079603 L33.8148846,52.0317692 L33.7970502,52.0521129 L33.7782126,52.0756982 L33.7481169,52.1113556 L33.7068748,52.149584 L33.6626231,52.1817763 L33.6165879,52.2079325 L33.5702184,52.2281645 L33.5241832,52.2433664 L33.4791513,52.2545442 L33.4353454,52.262257 L33.3926542,52.2673988 L33.3510777,52.2705286 L33.3106158,52.2724289 L33.2708227,52.2732113 L33.1933543,52.2730995 L33.155679,52.272876 L33.1462045,52.272876 L33.1431949,52.2754469 L33.1261407,52.2959024 L33.1042935,52.3265298 L33.0795483,52.3657641 L33.0529081,52.4117052 L33.0244844,52.463347 L32.9945003,52.5192364 L32.9627327,52.5781438 L32.9289587,52.6393985 L32.8925095,52.7016593 L32.8530508,52.7643672 L32.8094679,52.8264044 L32.7636557,52.8836351 L32.7227479,52.9305822 L32.6878593,52.9694812 L32.6548656,53.0043562 L32.6222063,53.0365485 L32.5874291,53.066617 L32.5468557,53.0956795 L32.4964734,53.1220593 L32.435279,53.1409499 L32.3691801,53.1459799 L32.3094347,53.1374847 L32.2626193,53.1223946 L32.2269504,53.106522 L32.1988612,53.0916554 L32.1909471,53.0874078 L32.1782401,53.0946735 L32.1332081,53.1260833 L32.0800392,53.167665 L32.0220772,53.217183 L31.9608828,53.2724017 L31.8983508,53.3310855 L31.8354844,53.3916696 L31.774067,53.4522537 L31.7145446,53.5114965 L31.6580317,53.5671623 L31.6054201,53.6185805 L31.5564868,53.6646334 L31.5147988,53.7009615 L31.4974102,53.7156045 L31.4799102,53.73103 L31.4589547,53.7501441 L31.4351011,53.7724999 L31.4087953,53.7975383 L31.3802602,53.8251477 L31.3497187,53.8551044 L31.3175053,53.8871849 L31.2837313,53.9209421 L31.2488427,53.9561524 L31.2128394,53.9929276 L31.1758329,54.0309324 L31.1382691,54.0698314 L31.0620269,54.1496415 L31.0236828,54.1902171 L30.9855617,54.2306811 L30.9478864,54.2712568 L30.873985,54.3514021 L30.8384275,54.3904129 L30.8039848,54.4286413 L30.770991,54.46564 L30.7395578,54.5012975 L30.7097966,54.53539 L30.6822647,54.5673587 L30.6570735,54.5974272 L30.6341117,54.6251483 L30.6142709,54.6499632 L30.5974396,54.6717601 L30.5843982,54.6893093 L30.5783791,54.6979163 L30.5686816,54.7149067 L30.5617707,54.7310028 L30.5556401,54.7512348 L30.5506242,54.7760497 L30.5471688,54.8050004 L30.5458312,54.8377515 L30.5463885,54.8736325 L30.5489522,54.9121962 L30.5535223,54.9527719 L30.5598758,54.9948007 L30.5676784,55.0380591 L30.57693,55.0816528 L30.5871848,55.1251348 L30.6097008,55.2112044 L30.6228537,55.2581515 L30.636341,55.3149351 L30.6445894,55.3773076 L30.6461499,55.4392331 L30.6405767,55.4997054 L30.6285384,55.5573832 L30.6102581,55.6121548 L30.5869619,55.6622317 L30.5597644,55.7077257 L30.5300031,55.7484132 L30.4985699,55.7845177 L30.4664679,55.8164864 L30.434143,55.84499 L30.4022639,55.8700284 L30.3711651,55.892496 L30.3415154,55.9126162 L30.305735,55.935419 L30.254461,55.9619106 L30.1932665,55.9813601 L30.1329638,55.9906377 L30.0760051,55.9914202 L30.0236164,55.9860548 L29.9753519,55.9766654 L29.9308773,55.9644815 L29.8890778,55.9507327 L29.8497306,55.9357544 L29.8125012,55.9204407 L29.7768323,55.9052388 L29.7593323,55.897526 L29.7521985,55.9286005 L29.7453991,55.9622459 L29.7389341,55.9979034 L29.732915,56.0350139 L29.7272303,56.0731305 L29.7219914,56.112253 L29.7170869,56.1520463 L29.7125168,56.1917277 L29.7083926,56.2314092 L29.7046028,56.2707553 L29.7011474,56.309319 L29.6979149,56.3466531 L29.6950168,56.3826459 L29.6924531,56.4170737 L29.6901123,56.4499367 L29.6877715,56.4804523 L29.6858766,56.5086205 L29.6839817,56.534665 L29.6820868,56.5580268 L29.6800804,56.5818356 L29.6706059,56.6582923 L29.6529944,56.735755 L29.6202236,56.8176888 L29.5559081,56.9037585 L29.4495703,56.9673606 L29.3315285,56.9794327 L29.2364487,56.9564063 L29.2270856,56.9520469 L29.1906364,56.9710493 L29.0931043,56.9904988 L29.002706,56.9818918 L28.9322599,56.9618834 L28.8747439,56.9385217 L28.8263679,56.9157188 L28.7860175,56.895934 L28.7550302,56.8814027 L28.7330715,56.8727958 L28.7310651,56.8722369 L28.7258263,56.8710073 L28.7175778,56.8695542 L28.7053167,56.8677657 L28.6889313,56.8657537 L28.6685331,56.8632946 L28.6443452,56.8601648 L28.6162559,56.8560289 L28.5850456,56.8503282 L28.5511602,56.8431744 L28.5145996,56.8340085 L28.4753638,56.8227189 L28.4336758,56.8088583 L28.3895355,56.7924268 L28.3424972,56.7730891 L28.2996945,56.7538632 L28.2738346,56.7434677 L28.2634683,56.7406733 L28.2609046,56.7403379 L28.2545511,56.7434677 L28.2431816,56.7502862 L28.2273536,56.7616877 L28.2067325,56.7778956 L28.153675,56.8214893 L28.1202355,56.8477573 L28.081557,56.8753667 L28.0370824,56.9031996 L27.9878147,56.9285734 L27.9382127,56.9491407 L27.8890565,56.9656839 L27.8390086,56.9789856 L27.7880689,56.9890457 L27.7369064,56.9958642 L27.6854094,56.9994411 L27.6336895,57 L27.5818582,56.9974291 L27.5300268,56.9917284 L27.4785299,56.9832332 L27.4274788,56.97172 L27.3766506,56.9573005 L27.3263798,56.9397512 L27.2768892,56.9194075 L27.2282904,56.8961575 L27.1808062,56.8701131 L27.1361086,56.8426155 L27.0936403,56.8137766 L27.0532899,56.7827021 L27.0145,56.749392 L26.9779394,56.7139581 L26.9437195,56.6762887 L26.9121749,56.6363837 L26.8830824,56.5941313 L26.857111,56.5496433 L26.8342606,56.5038141 L26.8145313,56.4561963 L26.797923,56.4072372 L26.7845471,56.3572721 L26.7740694,56.3064128 L26.7662668,56.2543238 L26.7638146,56.2281676 L26.7514419,56.2197842 L26.7256935,56.2058119 L26.6914736,56.1901628 L26.6503429,56.1739549 L26.6038619,56.1572999 L26.5537025,56.1400859 L26.5005336,56.1222013 L26.4454698,56.1029754 L26.3891798,56.0817374 L26.3318867,56.0572579 L26.2738133,56.0276365 L26.210501,55.9873962 L26.1636856,55.9438024 L26.1299116,55.9007676 L26.1067268,55.8663398 L26.0898956,55.8398482 L26.0767427,55.8209576 L26.070835,55.8132448 L26.0363922,55.8097797 L25.9880163,55.8006138 L25.9316149,55.7819468 L25.8803408,55.7563494 L25.8397675,55.7322052 L25.805882,55.7120851 L25.7713278,55.6915178 L25.7361048,55.6703916 L25.7005474,55.6490418 L25.5920917,55.5830924 L25.4816296,55.5144602 L25.4446231,55.4909867 L25.4077281,55.4672896 L25.3339381,55.4193365 L25.2813265,55.3843497 L25.1880301,55.2960445 L25.1424408,55.1430194 L25.1761033,55.016374 L25.1861351,55.0001661 L25.1730937,54.9779221 L25.1554822,54.9445003 L25.1401,54.9118609 L25.1268356,54.8800039 L25.1154662,54.8490412 L25.1057687,54.8191963 L25.0978546,54.7913634 L25.0910553,54.7649836 L25.0853705,54.7403922 L25.082138,54.7253021 L25.0365488,54.7114415 L24.9543988,54.6755606 L24.863889,54.6099464 L24.7942233,54.5225354 L24.7632359,54.4692169 L24.7415002,54.4327771 L24.7268982,54.4106449 L24.6864363,54.4126569 L24.6808631,54.4137747 L24.653777,54.4182458 L24.6116431,54.4200343 L24.5623755,54.41411 L24.5135537,54.3991317 L24.5027416,54.3938781 L24.4700822,54.4574802 L23.9865459,54.2905945 L23.9745077,54.2511366 L23.9660363,54.2477832 L23.9263547,54.2590729 L23.5863856,54.073073 L23.5704461,54.0067882 L23.5066879,54.0134949 L23.2833115,53.8375551 L23.0896963,53.6526731 L22.8846002,53.4022886 L22.9242819,53.1849907 L22.9569412,53.1581638 L22.9530399,53.1512335 L22.9317501,53.0815953 L22.9261768,53.0143045 L22.9333106,52.9553971 L22.9473552,52.9113563 L22.9991865,52.8020366 L23.0995053,52.7718564 L23.1018461,52.7711857 L23.1075308,52.7693972 L23.1124353,52.7677206 L23.1192346,52.7652614 L23.1332793,52.7597843 L23.1584704,52.7482711 L23.1844418,52.7342987 L23.2100788,52.7178672 L23.2330407,52.6996473 L23.2517668,52.6808685 L23.2653656,52.6627603 L23.2743943,52.645211 L23.2839803,52.6134659 L23.2923402,52.574008 L23.3047128,52.5240429 L23.3182001,52.4760898 L23.3326906,52.4298134 L23.3479614,52.3849901 L23.3637894,52.342067 L23.3800634,52.3003735 L23.3966717,52.2596861 L23.413503,52.2200046 L23.4303342,52.1809938 L23.4471655,52.1425419 L23.4638853,52.10409 L23.4804936,52.0654146 L23.4969904,52.0264038 L23.5132644,51.9864988 L23.5325479,51.9369808 L23.5518314,51.8956226 L23.5781372,51.8512465 L23.6068952,51.8098883 L23.6381055,51.7694244 L23.6721024,51.7286252 L23.7085515,51.6874906 L23.7474529,51.6455735 L23.7888065,51.6027623 L23.8321665,51.5592803 L23.8774214,51.5151277 L23.9240139,51.470528 L23.9720554,51.4257047 L24.0705907,51.3359463 L24.1702407,51.2476411 L24.2196198,51.2044945 L24.2683301,51.1623539 L24.3161487,51.1216665 L24.3624068,51.0823203 L24.4069929,51.0447627 L24.4495726,51.009217 L24.4898116,50.9757952 L24.5271525,50.9449442 L24.5614838,50.9168878 L24.5924711,50.891514 L24.6196686,50.8693818 L24.6224553,50.8671462 L24.6468662,50.7551439 L24.6026145,50.7115502 L24.5657194,50.670192 L24.5513404,50.6521956 L24.4312923,50.6168735 L24.4076617,50.6094961 L24.3677571,50.5937353 L24.2996518,50.5484649 L24.2423587,50.4559121 L24.2337759,50.3729723 L24.2377886,50.3337379 L24.2404638,50.3180889 L24.2413555,50.3112704 L24.2432504,50.291262 L24.2443651,50.2644351 L24.2450339,50.2313486 L24.2449224,50.1939027 L24.2440307,50.1535506 L24.2426931,50.11141 L24.2407982,50.0688222 L24.2384574,50.0266817 L24.2360052,49.9857706 L24.2335529,49.9473187 L24.2311007,49.9126673 L24.2286485,49.8821517 L24.2266421,49.8566662 L24.2250816,49.8377755 L24.2240784,49.8270448 L24.2211803,49.7980941 L24.225193,49.7671314 L24.227088,49.752153 L24.2303205,49.7290148 L24.2347791,49.699617 L24.2405753,49.6649656 L24.2475976,49.6266254 L24.2560689,49.5852673 L24.2656549,49.5435738 L24.2682186,49.5332902 L24.270225,49.5249068 L24.2403523,49.5206592 L24.2149382,49.5159645 L24.1961006,49.5139525 L24.1715783,49.5126111 L24.1427087,49.5124993 L24.1109411,49.5137289 L24.0773901,49.5162998 L24.0429473,49.5204356 L24.0080587,49.5259128 L23.9740618,49.5327313 L23.9416254,49.5408911 L23.9118642,49.5499452 L23.8855584,49.55967 L23.8635997,49.5695065 L23.8472143,49.5785606 L23.8371824,49.5856026 L23.8218002,49.5990161 L23.785797,49.6309848 L23.7238223,49.6697721 L23.6374367,49.6954812 L23.5412421,49.6886627 L23.4673407,49.6560233 L23.4226431,49.6229368 L23.3971176,49.5990161 L23.3731525,49.5757661 L23.371592,49.5744248 L23.3681366,49.5739777 L23.3543149,49.5738659 L23.3252225,49.5771075 L23.2862096,49.5842613 L23.2515439,49.5918623 L23.2252381,49.5990161 L23.2071807,49.6050521 L23.2030565,49.6068406 L23.1970374,49.6211483 L23.1884546,49.6422745 L23.1800947,49.6629535 L23.1817667,49.6789379 L23.1865597,49.721861 L23.1906839,49.7783092 L23.1880087,49.853201 L23.1601424,49.9576024 L23.0779925,50.0554088 L22.9874827,50.0984436 L22.9153647,50.1128631 L22.8532785,50.1126395 L22.801893,50.1052621 L22.7594247,50.0949785 L22.7235329,50.0841359 L22.6927685,50.0741876 L22.6661283,50.0654689 L22.6439467,50.0587622 L22.6266696,50.0544028 L22.6146314,50.0521672 L22.6128479,50.0520554 L22.5903319,50.0690458 L22.5649178,50.0918487 L22.5431821,50.1148751 L22.5240101,50.138684 L22.5068444,50.1634989 L22.4912393,50.1898787 L22.4765259,50.2181587 L22.4624813,50.2483389 L22.4488825,50.2805312 L22.4352837,50.3149591 L22.4210162,50.3515108 L22.4052996,50.390298 L22.387911,50.431209 L22.3668441,50.4744674 L22.3410956,50.5195142 L22.3013025,50.5766332 L22.2512546,50.6219036 L22.203213,50.6537605 L22.1602989,50.6792461 L22.1189453,50.703055 L22.0808242,50.7257461 L22.0496139,50.7458662 L22.0304419,50.7602857 L22.0219705,50.7697869 L22.018961,50.776829 L22.0128304,50.7935958 L22.0027985,50.8224347 L21.9870819,50.8620044 L21.964343,50.9092868 L21.9354735,50.9564574 L21.9108396,50.9917795 L21.8878778,51.0234129 L21.8644701,51.054711 L21.8409509,51.0856737 L21.8172088,51.1161893 L21.7939126,51.1460342 L21.7710622,51.1752085 L21.749215,51.2033767 L21.728371,51.2304272 L21.708976,51.2562481 L21.691476,51.2799452 L21.6762052,51.3015185 L21.6634982,51.3205209 L21.6540237,51.3358346 L21.648116,51.3463418 L21.6446606,51.3537192 L21.6381956,51.3692564 L21.6281637,51.3954127 L21.6161255,51.4281638 L21.6024152,51.4666157 L21.5873674,51.5097623 L21.570982,51.5573801 L21.5535935,51.6089101 L21.5352017,51.6636817 L21.5161411,51.7213595 L21.4964118,51.7813847 L21.4762366,51.8436455 L21.4348829,51.9718557 L21.413816,52.0373581 L21.3928605,52.1029722 L21.372128,52.1683628 L21.3517298,52.2329709 L21.3315546,52.2967966 L21.3119367,52.3590574 L21.2929876,52.4191944 L21.2749303,52.4772076 L21.2577646,52.5323145 L21.2414907,52.5842916 L21.2264429,52.63258 L21.2128441,52.6766209 L21.2004715,52.7161906 L21.1897708,52.7510655 L21.1806307,52.7804633 L21.1733854,52.8040487 L21.1679236,52.8218215 L21.1646911,52.8319934 L21.1640223,52.8348996 L21.1619045,52.8423888 L21.1588949,52.8531195 L21.1460764,52.9010726 L21.1402802,52.9225342 L21.1340382,52.9464548 L21.1270159,52.9732817 L21.1194362,53.002456 L21.1111878,53.033754 L21.102382,53.0677348 L21.0931304,53.1039511 L21.0734011,53.1819727 L21.0298181,53.361154 L21.0032894,53.5945481 L20.9425408,53.8259301 L20.8684164,54.0506055 L20.7649767,54.2829935 L20.6061387,54.5508154 L20.6170622,54.5825606 L20.5797214,54.6961278 L20.5483996,54.7386038 L20.5368073,54.7515701 L20.5293391,54.7604006 L20.5068231,54.7861098 L20.4801829,54.8134955 L20.4519822,54.8392047 L20.4215522,54.8631253 L20.3888928,54.885034 L20.3542271,54.9041481 L20.3186697,54.9195736 L20.2826664,54.9318693 L20.2476663,54.940588 L20.2142268,54.9465123 L20.1824592,54.9503128 L20.1521406,54.9524366 L20.0949589,54.9541132 L20.0411212,54.9544486 L20.0388919,54.9561253 L20.0276339,54.9652911 L20.0109141,54.9798224 L19.9887325,54.9990483 L19.9608662,55.0216276 L19.9272037,55.0463307 L19.8875221,55.0714809 L19.8422672,55.0954016 L19.7917734,55.1168631 L19.7363751,55.1350831 L19.6751807,55.1498379 L19.6108653,55.1596744 L19.5474415,55.1628042 L19.4863585,55.1594508 L19.4289539,55.1501732 L19.3763423,55.1363126 L19.3291925,55.1197694 L19.2875045,55.1022201 L19.2503866,55.0848944 L19.2172814,55.0685747 L19.1870743,55.0538199 L19.158985,55.0409653 L19.1315646,55.0296757 L19.1038097,55.0198392 L19.0748288,55.0114557 L19.0428382,55.0045255 L19.0036025,54.9988247 L18.9609113,54.9942418 L18.9259112,54.9913356 L18.9016117,54.990106 L18.879876,54.9906649 L18.8776467,54.9910002 L18.8746371,54.9917827 L18.8660543,54.9945772 L18.8497804,55.000725 L18.8255924,55.0104497 L18.7929331,55.0231925 L18.7522483,55.0385062 L18.7030921,55.0556084 L18.6449072,55.0743872 L18.576579,55.0945074 L18.4978845,55.1158571 L18.4550819,55.127035 L18.3291261,55.1601215 L18.24118,55.1828126 L18.196371,55.1941022 L18.1508931,55.2053919 L18.1054153,55.2163462 L18.0596031,55.227077 L17.9674213,55.2473089 L17.9211632,55.2568101 L17.8749051,55.2656407 L17.8287585,55.2738005 L17.7806055,55.2817368 L17.7352392,55.2875493 L17.690653,55.2910144 L17.6487421,55.2915733 L17.608949,55.2901202 L17.5722769,55.2863197 L17.5395061,55.2812897 L17.5104137,55.2754772 L17.4852226,55.2697765 L17.4648244,55.2648582 L17.448439,55.2610577 L17.4350632,55.258375 L17.4234708,55.2564748 L17.4122128,55.2551335 L17.3998402,55.2544628 L17.3849038,55.2544628 L17.3720853,55.255357 L17.3689643,55.2559159 L17.3657318,55.2574808 L17.3491235,55.266982 L17.3157953,55.2852019 L17.2609544,55.3077813 L17.1860498,55.3214183 L17.1183903,55.3163882 L17.0725781,55.3077813 L17.0403647,55.3023041 L17.0064792,55.2971623 L16.9710333,55.2923558 L16.8974662,55.2828546 L16.8599024,55.2779363 L16.8220042,55.2729063 L16.7837716,55.2673173 L16.7456505,55.2610577 L16.7075294,55.2540157 L16.6692968,55.2458558 L16.6307298,55.2359075 L16.591494,55.2238354 L16.5513665,55.2084099 L16.5212709,55.1936551 L16.501653,55.1840422 L16.4868281,55.1784532 L16.4657612,55.1720818 L16.4396783,55.165934 L16.4095827,55.1603451 L16.3764775,55.1556504 L16.341143,55.1517381 L16.3040251,55.1487201 L16.2660154,55.1467081 L16.2278943,55.1455903 L16.1532126,55.145702 L16.1386106,55.1461492 L16.1230055,55.1772237 L16.0050752,55.2451851 L15.9219221,55.2570337 L15.915903,55.2578161 L15.9134508,55.2584868 L15.89818,55.2630697 L15.8749953,55.2707825 L15.8461258,55.2809544 L15.8130206,55.2929147 L15.7766829,55.3059928 L15.73767,55.3198534 L15.6964279,55.3339375 L15.6537367,55.3474627 L15.609485,55.3604291 L15.5636728,55.3718305 L15.5158542,55.3814435 L15.4654719,55.388262 L15.4108539,55.3906093 L15.3468728,55.3855793 L15.235519,55.3541694 L15.1325251,55.3025277 L15.0409006,55.238702 L14.9574132,55.1666047 L14.8803907,55.0882478 L14.8088299,55.0059786 L14.7422852,54.9213621 L14.6807564,54.8364102 L14.6245779,54.753135 L14.5739726,54.6737721 L14.5296094,54.6003334 L14.4917113,54.5348311 L14.4695297,54.4948143 L14.4213767,54.4740234 L14.3572841,54.4321064 L14.2955324,54.3685043 L14.2536214,54.2942832 L14.2365672,54.247895 L14.2257551,54.2133554 L14.2162806,54.1789275 L14.2006754,54.1104071 L14.1939875,54.0765381 L14.1878569,54.0430045 L14.1837327,54.0197545 L14.1825066,54.0146127 L14.1786053,54.0051115 L14.1683505,53.9847678 L14.1526339,53.957382 L14.1323472,53.9254133 L14.1087166,53.8903147 L14.0824108,53.8534277 L14.0543215,53.8153112 L13.9964711,53.7395252 L13.9680474,53.7028617 L13.940627,53.6675396 L13.9151014,53.6341178 L13.8914708,53.6025962 L13.8696236,53.5716335 L13.8541299,53.5472657 L13.8350693,53.5167501 L13.8160088,53.4905938 L13.7917094,53.4610843 L13.7628399,53.4292273 L13.7305149,53.3959172 L13.6954034,53.3622718 L13.6583969,53.3284029 L13.6199414,53.294981 L13.58104,53.2626769 L13.5423615,53.231826 L13.5046863,53.2028753 L13.468683,53.1763837 L13.4352434,53.1525749 L13.4053707,53.1323429 L13.3799566,53.116135 L13.3576636,53.1027215 L13.3422814,53.0937792 L13.3136348,53.0756711 L13.2621379,53.0292829 L13.2158798,52.9378478 L13.2154339,52.8560258 L13.2212301,52.8248395 L13.2224562,52.8191388 L13.2227906,52.8167914 L13.2255772,52.7885114 L13.2292556,52.7474886 L13.2330454,52.6975235 L13.2370582,52.6410752 L13.2410709,52.5799322 L13.2451951,52.5153241 L13.2490964,52.4493746 L13.2528862,52.3833134 L13.2565646,52.3187053 L13.2597971,52.2573387 L13.2629181,52.2005551 L13.2653703,52.1500311 L13.2674882,52.1072198 L13.2690487,52.0740215 L13.2700519,52.0528954 L13.2722812,51.9740913 L13.3417241,51.8756142 L13.4008007,51.836827 L13.4362466,51.8189424 L13.4692403,51.8045229 L13.5034602,51.7908859 L13.5394634,51.7773607 L13.5775846,51.7639472 L13.6167089,51.7506456 L13.656502,51.7375675 L13.6959607,51.72516 L13.7233811,51.7170002 L13.7234926,51.7129761 L13.7229353,51.6590988 L13.7212633,51.5997442 L13.7185881,51.5362539 L13.7102282,51.4023429 L13.7047664,51.334605 L13.6986359,51.2677613 L13.691725,51.2034885 L13.6843683,51.1427926 L13.677346,51.0922686 L13.6721071,51.067342 L13.6656421,51.0466629 L13.6570593,51.0256485 L13.6473618,51.0058636 L13.6378873,50.9887615 L13.6295274,50.9752363 L13.6218363,50.9634995 L13.5204029,50.8052208 L13.6643046,50.6528663 L13.6968524,50.631293 L13.7146869,50.6205622 L13.7328557,50.6103904 L13.752808,50.5994361 L13.7754354,50.5872522 L13.8008495,50.5738387 L13.8288273,50.559531 L13.8591458,50.5441056 L13.8916937,50.5275623 L13.9263594,50.5104602 L14.0007067,50.4739085 L14.0807388,50.4353448 L14.1220924,50.4157835 L14.1641148,50.3961105 L14.206806,50.3765492 L14.2496087,50.3569879 L14.2922999,50.337762 L14.3349911,50.3190949 L14.377125,50.300875 L14.4592749,50.2665589 L14.499068,50.2507981 L14.5377464,50.2358197 L14.5754217,50.2220709 L14.6116479,50.2095517 L14.6469824,50.1981503 L14.6815366,50.1880902 L14.7160908,50.179595 L14.7470782,50.1736707 L14.787763,50.1674111 L14.8214255,50.1618222 L14.8518555,50.1564568 L14.8797219,50.1509796 L14.9054703,50.1455025 L14.9296583,50.1395782 L14.9527316,50.1332068 L14.975582,50.126053 L14.9987668,50.1180049 L15.0231777,50.1087273 L15.0492605,50.0978847 L15.0775727,50.0848066 L15.108783,50.0697165 L15.1428914,50.0521672 L15.1805666,50.0319353 L15.2198024,50.0100266 L15.2566974,49.9876709 L15.291809,49.9637502 L15.327032,49.9372586 L15.3623665,49.9083079 L15.397478,49.8771217 L15.4322552,49.8438116 L15.4665865,49.8088248 L15.5003605,49.7721614 L15.5334657,49.7341566 L15.5657906,49.6951458 L15.5971123,49.6554644 L15.6276538,49.6150005 L15.6571921,49.5744248 L15.6855043,49.5339609 L15.7127018,49.4933852 L15.7405681,49.4506857 L15.7717784,49.404521 L15.8054409,49.3600331 L15.8409983,49.3191221 L15.8788965,49.2818997 L15.9196928,49.2487014 L15.962607,49.2201979 L16.0066357,49.1972832 L16.0499957,49.1797339 L16.0916837,49.1666558 L16.1301393,49.1576017 L16.1656967,49.150895 L16.1984675,49.1456414 L16.229009,49.1409467 L16.2586587,49.1361402 L16.288197,49.1306631 L16.3117162,49.1257448 L16.3213022,49.1227268 L16.3243118,49.1211619 L16.3296621,49.1174732 L16.338022,49.1097604 L16.3490571,49.0970177 L16.36221,49.0789095 L16.3767004,49.055436 L16.3919712,49.0270441 L16.4077992,48.994293 L16.4237388,48.9579649 L16.4400127,48.9188423 L16.456621,48.877037 L16.4738982,48.8332198 L16.4918441,48.7880611 L16.5111276,48.7418965 L16.5286276,48.7023268 L16.5396627,48.6751646 L16.5469079,48.6509086 L16.552927,48.6219579 L16.5573856,48.5890949 L16.5600608,48.5526551 L16.5607296,48.5140914 L16.5595035,48.4736275 L16.5563825,48.4321576 L16.5515894,48.3902405 L16.5453474,48.3486588 L16.5376563,48.3081949 L16.5288505,48.2691841 L16.5192645,48.2325207 L16.5091212,48.1988753 L16.4988664,48.1690303 L16.484153,48.131808 L16.4701083,48.087879 L16.4605223,48.0365725 L16.4558408,47.9892901 L16.4543917,47.944355 L16.4553949,47.9009849 L16.4584045,47.8594032 L16.463086,47.8192746 L16.4693281,47.7827229 L16.4765733,47.7499717 L16.4834842,47.721021 L16.4911753,47.6931881 L16.4989778,47.6666966 L16.5070033,47.6409874 L16.5153632,47.6168432 L16.5236117,47.593705 L16.5318601,47.5713493 L16.5369875,47.557824 L16.514583,47.5463108 L16.4590733,47.5151246 L16.4138184,47.4841618 L16.4016687,47.4754431 L16.390968,47.4691835 L16.371573,47.4587881 L16.345936,47.4462688 L16.3161748,47.43252 L16.2839613,47.4184359 L16.2150758,47.3903794 L16.180856,47.3773013 L16.1484196,47.3652292 L16.1187698,47.3548338 L16.0930213,47.3461151 L16.0768589,47.341085 L16.0628142,47.3416439 L16.0369543,47.3425381 L16.0060784,47.3433206 L15.9702981,47.3442148 L15.930505,47.345109 L15.8862532,47.3461151 L15.8386576,47.3471211 L15.7879409,47.3483506 L15.7344376,47.3495802 L15.678482,47.3508098 L15.620743,47.3522629 L15.5014751,47.3551691 L15.4407266,47.3569576 L15.3798665,47.3586343 L15.2595955,47.3624348 L15.2009648,47.364335 L15.1442289,47.3664588 L15.089611,47.3686944 L15.0376681,47.3710417 L14.988512,47.3735009 L14.9432571,47.37596 L14.9023493,47.3785309 L14.8662346,47.3812136 L14.8356931,47.3837845 L14.8121739,47.3863554 L14.8028108,47.3874732 L14.797349,47.3898206 L14.7801834,47.3965273 L14.7593394,47.4046871 L14.7350399,47.4141883 L14.7076195,47.4246955 L14.6775239,47.4362087 L14.6444187,47.4486162 L14.6093071,47.4620296 L14.5720777,47.4761138 L14.5331763,47.4907568 L14.492603,47.5060705 L14.4510264,47.5217195 L14.3221726,47.5696726 L14.2788126,47.5859923 L14.235787,47.6017531 L14.1936531,47.6174021 L14.1119491,47.6474706 L14.0733821,47.6616665 L14.0364871,47.6749682 L14.0015985,47.6875992 L13.9690506,47.699336 L13.9391779,47.7099549 L13.9120918,47.7194561 L13.8879039,47.7278395 L13.866614,47.7349934 L13.8477764,47.741253 L13.8281585,47.7469537 L13.8143368,47.7504189 L13.7899259,47.755896 L13.7743208,47.7615967 L13.7501328,47.7732217 L13.7202601,47.7901003 L13.686932,47.8114501 L13.6515975,47.8362649 L13.6155942,47.8633154 L13.5795909,47.8919308 L13.5445909,47.9209933 L13.5111513,47.9493851 L13.4804983,47.9764355 L13.4524091,48.001474 L13.4271065,48.0238297 L13.4035873,48.0442852 L13.3742719,48.0677588 L13.2901156,48.1188417 L13.1806567,48.1101229 L13.1307203,48.093915 L13.098061,48.0796073 L13.0682998,48.0650761 L13.0376468,48.0489799 L13.0057677,48.0316542 L12.9722167,48.0128754 L12.9366593,47.992867 L12.8622005,47.9505028 L12.8240793,47.9285942 L12.7856238,47.9070209 L12.7473912,47.8857829 L12.7103848,47.865551 L12.6748273,47.8466604 L12.5662602,47.7921123 L12.5270244,47.7723275 L12.4863396,47.7517602 L12.4445401,47.7302987 L12.4020718,47.7080547 L12.3147945,47.6606605 L12.2705428,47.6352867 L12.2260682,47.6091305 L12.1815935,47.5816329 L12.1370074,47.5530176 L12.0927557,47.5229491 L12.0489499,47.491651 L12.0057013,47.4587881 L11.9633445,47.4248073 L11.9231056,47.3901559 L11.8852074,47.3560634 L11.8493156,47.3223062 L11.8152072,47.2891079 L11.7834396,47.2568038 L11.7536784,47.2258411 L11.7263694,47.1965551 L11.7011782,47.1689457 L11.6920381,47.1587738 L11.656815,47.1667101 L11.6218149,47.1744229 L11.5491396,47.1904072 L11.5126904,47.1983435 L11.4769101,47.2058327 L11.4425788,47.2129865 L11.4096965,47.2195815 L11.3764799,47.2258411 L11.3317823,47.2329949 L11.2836293,47.2384721 L11.2343617,47.2423844 L11.1842023,47.2451788 L11.1332627,47.2469673 L11.0819886,47.2480851 L11.0304917,47.2487558 L10.9792177,47.2490911 L10.8331982,47.2497618 L10.7887235,47.2503207 L10.7477043,47.2512149 L10.7109208,47.2525562 L10.6794875,47.2544565 L10.6483887,47.2574745 L10.6038026,47.2613868 L10.5585477,47.2628399 L10.519089,47.2625045 L10.4862068,47.2616103 L10.4611271,47.2606043 L10.4403945,47.2606043 L10.3953626,47.2666404 L10.3468752,47.2579216 L10.3235789,47.2524445 L10.2982763,47.2462966 L10.2677348,47.2386957 L10.2322889,47.2302005 L10.1936104,47.22137 L10.1856964,47.2196933 L10.1878142,47.2251704 L10.2015245,47.2587041 L10.21412,47.2891079 L10.225601,47.3157112 L10.2348526,47.3376199 L10.2420978,47.353716 L10.2465564,47.3636643 L10.2636106,47.4023398 L10.2997254,47.4881859 L10.316891,47.5296558 L10.3328306,47.5676606 L10.3465408,47.5995175 L10.3564612,47.6214262 L10.3622574,47.6327158 L10.4262385,47.7441592 L10.4555538,47.7962481 L10.4818596,47.8456544 L10.5059361,47.8964019 L10.5285636,47.9608983 L10.5413821,48.08229 L10.4627991,48.2188837 L10.3742956,48.2630363 L10.3306012,48.2755555 L10.2971617,48.2802502 L10.2734196,48.2817033 L10.2572571,48.2820387 L10.2379736,48.2827093 L10.2306169,48.2832682 L10.2223685,48.2842742 L10.2125595,48.2860627 L10.2004098,48.2887454 L10.1851391,48.2931048 L10.16619,48.2994762 L10.1433396,48.3083067 L10.116365,48.3200434 L10.0863808,48.3346865 L10.0592948,48.349553 L10.0373361,48.3636372 L10.0184985,48.3774977 L10.0016672,48.3916936 L9.9860621,48.4064484 L9.97112575,48.4224328 L9.95607794,48.4400938 L9.94069573,48.4598787 L9.92419887,48.4820109 L9.90625296,48.5068258 L9.88641215,48.5342116 L9.86434202,48.5638329 L9.83959673,48.5952428 L9.81161895,48.6285528 L9.77996281,48.6626454 L9.74563151,48.6959554 L9.70594987,48.7309422 L9.66760582,48.7621285 L9.62825858,48.7907438 L9.58623617,48.8167883 L9.54020102,48.8395912 L9.48903846,48.8579229 L9.43308289,48.8691007 L9.37434069,48.8714481 L9.31715901,48.8640707 L9.2648818,48.8493159 L9.21906957,48.8293075 L9.17883061,48.8067282 L9.14316172,48.7824722 L9.11061387,48.7577691 L9.07973799,48.7325071 L9.05610735,48.7119398 L9.04574108,48.7119398 L9.03559774,48.7135047 L9.02378242,48.7158521 L9.01051805,48.7192054 L8.99602757,48.7232295 L8.97919631,48.7281477 L8.95857524,48.7339602 L8.92524712,48.7417847 L8.84833608,48.747709 L8.72628161,48.7009855 L8.67835155,48.6284411 L8.66831967,48.6111154 L8.65995978,48.5955781 L8.65115402,48.5793702 L8.64179094,48.5614856 L8.63187053,48.5427068 L8.62094693,48.5226984 L8.60913161,48.5013486 L8.59687043,48.47944 L8.58405193,48.4575313 L8.57078756,48.4355109 L8.55730026,48.4141612 L8.5437015,48.3937057 L8.5305486,48.3749268 L8.51806449,48.3582718 L8.5064721,48.3441877 L8.49521411,48.331892 L8.48306439,48.3194846 L8.4689083,48.3065182 L8.45263437,48.2928812 L8.43424261,48.2781264 L8.41362153,48.2628127 L8.39099408,48.246493 L8.36591439,48.2292791 L8.33882833,48.2109474 L8.31007029,48.1917214 L8.27930588,48.1711541 L8.24653509,48.1493573 L8.21220379,48.1261073 L8.17631197,48.1016277 L8.13885964,48.0753597 L8.09817482,48.0460737 L8.02605679,47.9902961 L7.94557886,47.9097036 L7.88806278,47.7148732 L7.92986226,47.6659141 L7.92707563,47.6645728 L7.80992563,47.5271967 L7.82408172,47.3720477 L7.82876326,47.3552809 L7.82898619,47.3502509 L7.82920912,47.3328134 L7.82876326,47.3096752 L7.82753714,47.2831836 L7.82586516,47.2542329 L7.82363585,47.2240526 L7.82129508,47.1936488 L7.81683647,47.1404421 L7.81561036,47.1264698 L7.78662939,47.1297114 L7.76355607,47.1317234 L7.73468657,47.1338472 L7.70247311,47.1355239 L7.66658129,47.1370888 L7.62801431,47.1386537 L7.58732948,47.1402186 L7.54575294,47.1414481 L7.50395346,47.143013 L7.46315717,47.1441308 L7.42436726,47.1453604 L7.38869837,47.1461428 L7.35693077,47.1472606 L7.3305135,47.1480431 L7.31089561,47.1487138 L7.30264718,47.1490491 L7.27444647,47.1515082 L6.91608562,47.0964013 L7.0195254,46.9071598 L6.95587873,46.8465757 L6.90337858,46.8142717 L6.85555998,46.7679953 L6.82267773,46.7192597 L6.80183372,46.6748836 L6.78979547,46.6386672 L6.78310756,46.6127346 L6.77931774,46.596862 L6.77162663,46.5676877 L6.76527311,46.5091157 L6.77006612,46.4519967 L6.77764576,46.409409 L6.78533686,46.3740869 L6.79180185,46.3451362 L6.7958146,46.3255749 L6.79626046,46.3223333 L6.79626046,46.2903646 L6.81966817,46.1898755 L6.8914518,46.1114068 L6.9206557,46.0917337 L6.92110156,46.0851388 L6.92801241,46.0243311 L6.93715256,45.9624057 L6.94818762,45.8996978 L6.9607832,45.836431 L6.97493929,45.7724936 L7.00681835,45.6443951 L7.02420694,45.5806812 L7.04237578,45.5177498 L7.06099048,45.4556008 L7.08005104,45.3947931 L7.09922306,45.3358857 L7.13489195,45.2309255 L7.14325185,45.2023101 L7.14470089,45.1923618 L7.11950974,45.1915793 L7.0907517,45.190238 L7.05853824,45.1885613 L7.02309228,45.1857668 L6.98530556,45.1821899 L6.94528953,45.177607 L6.90382444,45.1714592 L6.86079885,45.1641935 L6.81677007,45.1550277 L6.77184956,45.1436262 L6.72626027,45.1297657 L6.67944486,45.1128871 L6.6202568,45.0857248 L6.56296365,45.0544268 L6.50890299,45.0210049 L6.45807483,44.9859064 L6.41125942,44.9495783 L6.36767649,44.91135 L6.32398211,44.8646264 L6.2819597,44.7993476 L6.25498511,44.703665 L6.25219847,44.6149127 L6.25933225,44.5851795 L6.24907745,44.5790317 L6.17773967,44.5373382 L6.14273958,44.517218 L6.1089656,44.4979921 L6.07775533,44.4799957 L6.04933168,44.4632289 L6.02302588,44.4473563 L5.97799391,44.4172878 L5.92560523,44.3552506 L5.89684719,44.2891894 L5.88380576,44.2371004 L5.87678344,44.1911594 L5.87288216,44.1472303 L5.87065285,44.1037484 L5.8695382,44.0598193 L5.86976113,43.926579 L5.87020699,43.8833207 L5.87031846,43.8028399 L5.86964967,43.7675178 L5.86831208,43.7367787 L5.85493625,43.7248184 L5.83420371,43.7089458 L5.80778644,43.6908376 L5.77691056,43.6711646 L5.74269072,43.6503737 L5.70624158,43.6282415 L5.66800899,43.6046562 L5.62810443,43.5787235 L5.58753107,43.5495493 L5.54573159,43.5148978 L5.502706,43.4702981 L5.47528554,43.4305049 L5.47038107,43.4232392 L5.46659125,43.4185445 L5.45254663,43.403678 L5.43103383,43.38244 L5.40372484,43.3568427 L5.37162284,43.3275566 L5.3351737,43.295029 L5.29526913,43.2599305 L5.25257793,43.2225964 L5.20754596,43.1831385 L5.16084201,43.1422274 L5.11280048,43.0997515 L5.06386723,43.0561578 L5.01471104,43.0114463 L4.96555486,42.9659523 L4.9089305,42.9122985 L4.85988578,42.8545089 L4.81986975,42.7880005 L4.7917805,42.7262986 L4.77104796,42.6717506 L4.75566576,42.6256977 L4.74340458,42.621003 L4.70873888,42.6082603 L4.67139801,42.5946233 L4.63216224,42.5807627 L4.59270353,42.5669021 L4.55458241,42.5536004 L4.51869059,42.5415283 L4.48603127,42.5302387 L4.45805348,42.5208493 L4.43620629,42.5136954 L4.42271899,42.5092243 L4.40945463,42.5058709 L4.38760743,42.5017351 L4.35639716,42.4970404 L4.31827604,42.4921221 L4.27558484,42.4873156 L4.22988408,42.4826209 L4.1826228,42.4779262 L4.13435834,42.4733433 L4.08676267,42.4685368 L4.04072751,42.4636185 L3.9968102,42.4584767 L3.95478779,42.452776 L3.91388003,42.4457339 L3.869071,42.4353385 L3.79438927,42.4070585 L3.68080615,42.2958386 L3.6851533,42.1780238 L3.68816286,42.1527618 L3.69150682,42.1305178 L3.69563104,42.1072678 L3.70042404,42.0826765 L3.7066661,42.0559614 L3.71814702,42.0171741 L3.78513765,41.8840456 L3.95712856,41.8602368 L4.02969245,41.8755504 L4.0738327,41.8885168 L4.11228822,41.901036 L4.13959721,41.9095312 L4.15754312,41.9029362 L4.2118267,41.8848281 L4.23935862,41.8761093 L4.26700201,41.8676142 L4.294311,41.8595661 L4.34803726,41.8451466 L4.37434307,41.8385517 L4.39953422,41.8325156 L4.42439097,41.827262 L4.44891333,41.8226791 L4.47354716,41.8189904 L4.49238479,41.8168666 L4.5180218,41.8141839 L4.54220976,41.8104952 L4.56940729,41.8055769 L4.59727361,41.7997644 L4.62402527,41.7938402 L4.64776737,41.7881395 L4.66660501,41.783333 L4.68176428,41.7790854 L4.69736942,41.7748378 L4.71865929,41.769696 L4.74240139,41.7639952 L4.76859573,41.7578474 L4.79735377,41.7512525 L4.82778379,41.7439868 L4.85921699,41.7364977 L4.92108022,41.7209604 L4.95006119,41.7133595 L4.97614406,41.7058703 L4.99787979,41.6992753 L5.00389891,41.6971515 L5.02084163,41.6817261 L5.0793609,41.6419328 L5.13832603,41.6113054 L5.19673383,41.5877201 L5.25447284,41.5690531 L5.31132013,41.5542983 L5.36682983,41.5422262 L5.42077902,41.5321661 L5.47305624,41.5235591 L5.52288121,41.5157346 L5.56958516,41.508469 L5.61238782,41.5012034 L5.65006308,41.4942731 L5.68171922,41.4870075 L5.70546132,41.4804125 L5.72820024,41.4721409 L5.76910799,41.4555976 L5.81692659,41.4389426 L5.86329615,41.4241878 L5.90799372,41.4113332 L5.95057345,41.3997082 L5.99081242,41.3893128 L6.02826475,41.3796998 L6.06226165,41.3708693 L6.09224581,41.3625977 L6.11777136,41.354885 L6.13716632,41.3481782 L6.14240518,41.3325292 L6.15009629,41.3086085 L6.15856765,41.2808874 L6.16781926,41.2500365 L6.17807407,41.2150497 L6.19902954,41.1433995 L6.21051046,41.1039416 L6.22266018,41.0626953 L6.23536722,41.0204429 L6.24863159,40.9768492 L6.26245328,40.932473 L6.2768323,40.8875379 L6.29176865,40.842044 L6.32364771,40.7504972 L6.34047897,40.7047796 L6.35797902,40.6595092 L6.37625932,40.6145742 L6.39531988,40.570198 L6.41527216,40.5267161 L6.43622764,40.4839048 L6.45852069,40.4420995 L6.4819284,40.4014121 L6.50711955,40.3617306 L6.53398268,40.3232787 L6.56385537,40.2859446 L6.59250194,40.2547583 L6.6253842,40.2212247 L6.65291612,40.1916033 L6.67888753,40.1616466 L6.7027411,40.1315781 L6.72425389,40.1017332 L6.74309152,40.0718883 L6.75903106,40.042714 L6.77218396,40.0137633 L6.7823273,39.9849244 L6.78957254,39.9561972 L6.79391969,39.9266877 L6.7954802,39.8961721 L6.79358529,39.8629738 L6.78790056,39.826981 L6.77731136,39.7868524 L6.75981132,39.7391229 L6.75334633,39.7244799 L6.74197687,39.699665 L6.72715199,39.6689258 L6.70976341,39.6338273 L6.69025699,39.5955989 L6.66907859,39.555135 L6.64678553,39.5136651 L6.60030451,39.4311724 L6.57745413,39.3922734 L6.55538401,39.3567277 L6.5348744,39.3253179 L6.51692849,39.2998323 L6.50366412,39.2826184 L6.49875965,39.2771412 L6.4122626,39.2138745 L5.82484063,38.8892689 L5.51652769,39.1690512 L5.41576309,39.2089562 L5.32124054,39.2019141 L5.26539644,39.1859298 L5.22370843,39.1700572 L5.18781661,39.1544082 L5.15526875,39.1401005 L5.12584192,39.1278048 L5.09630362,39.1165152 L5.06453602,39.1053373 L5.02830981,39.0919238 L4.99108041,39.0778397 L4.95295928,39.0630849 L4.91405791,39.0475477 L4.83436024,39.0153554 L4.71163697,38.9642725 L4.67061775,38.9467232 L4.62959854,38.9291739 L4.58880225,38.9114011 L4.54856328,38.8939636 L4.50888165,38.8768615 L4.46953441,38.8596476 L4.43130182,38.842769 L4.35795767,38.8105767 L4.28974093,38.7803964 L4.2702345,38.7716777 L4.25663574,38.8047642 L4.23032994,38.8628891 L4.19945406,38.9232497 L4.16345078,38.984728 L4.12075958,39.0460945 L4.07037727,39.106008 L4.01040896,39.1627916 L3.93907119,39.2136509 L3.84733527,39.2583624 L3.77098156,39.2726701 L3.70543998,39.2697638 L3.65539207,39.2607098 L3.61381553,39.2498672 L3.57836957,39.2380187 L3.54849688,39.226729 L3.52219108,39.2152158 L3.43636282,39.1707279 L3.39322576,39.0720272 L3.38263656,39.032234 L3.37516838,38.9987003 L3.36758875,38.9613662 L3.35967471,38.919561 L3.35120335,38.8741788 L3.34250906,38.8266728 L3.33637847,38.7928038 L3.31921282,38.799287 L3.27328913,38.8169481 L3.22769983,38.8347209 L3.18322519,38.8522702 L3.14075692,38.8693723 L3.10163261,38.885692 L3.10218994,38.9024588 L3.1026358,38.9361042 L3.10107528,38.9772388 L3.09405297,39.0284335 L3.07488095,39.0914767 L3.03352733,39.1618973 L2.96575645,39.2229285 L2.86153642,39.2686461 L2.71038951,39.2589213 L2.60862172,39.1677098 L2.57228404,39.1001955 L2.56292096,39.0752688 L2.56002286,39.0738157 L2.49459275,39.0087604 L2.45022957,38.9388987 L2.4296085,38.8899396 L2.4161212,38.8946343 L2.39371668,38.9027942 L2.36640769,38.9130778 L2.33575474,38.924591 L2.30264955,38.937222 L2.26809532,38.9505237 L2.23342962,38.9638254 L2.17134346,38.9880814 L2.1362319,39.0018301 L2.10948024,39.0123373 L2.08696426,39.0211679 L2.07024446,39.027651 L2.04627943,39.0370405 L2.02677301,39.0447532 L2.00091307,39.0547015 L1.96959133,39.06655 L1.93392244,39.0798517 L1.89513253,39.0940476 L1.85422477,39.109026 L1.81186797,39.1240043 L1.72737729,39.1525079 L1.68646954,39.1653625 L1.64689937,39.1766521 L1.60777506,39.1864887 L1.56452653,39.1948721 L1.49419195,39.1997903 L1.34025841,39.1561966 L1.2825194,39.0187087 L1.27650028,38.9647196 L1.27650028,38.9337569 L1.27783786,38.907936 L1.28017863,38.8824504 L1.28307673,38.8562942 L1.28686655,38.8289084 L1.29099076,38.7991752 L1.2960067,38.7677654 L1.30135703,38.7349024 L1.30737615,38.7004746 L1.31384114,38.66437 L1.32086345,38.6270359 L1.32833163,38.5889194 L1.33602273,38.5500204 L1.34415969,38.5102271 L1.35274252,38.4696514 L1.36143681,38.4294111 L1.3704655,38.3889472 L1.37960565,38.348595 L1.3890802,38.30869 L1.39855475,38.2693439 L1.40802929,38.2310038 L1.41772677,38.1934461 L1.42742425,38.1567827 L1.43723319,38.1217959 L1.44704214,38.0879269 L1.45673962,38.0557347 L1.46677149,38.0251073 L1.4770263,37.9958212 L1.48772696,37.9674294 L1.4978703,37.9431734 L1.51280665,37.9098634 L1.52506783,37.8813598 L1.53621435,37.8540858 L1.54635769,37.8282649 L1.55538638,37.80345 L1.56341188,37.7799764 L1.57043419,37.7575089 L1.57645332,37.7354885 L1.58626226,37.6933479 L1.59005208,37.6727806 L1.59306164,37.6524369 L1.59707439,37.6105198 L1.59818905,37.5886112 L1.59807758,37.5661437 L1.59718586,37.562455 L1.59462216,37.5542951 L1.58971768,37.5424466 L1.58236098,37.5281389 L1.57299789,37.5127134 L1.56196283,37.4963937 L1.54947872,37.4801858 L1.53632582,37.464425 L1.52339585,37.4502291 L1.5113576,37.4384923 L1.50110279,37.4291029 L1.49853909,37.4268673 L1.48549766,37.4216137 L1.44481283,37.3922159 L1.41872996,37.3677364 L1.39621398,37.3450453 L1.37024257,37.3179948 L1.34014694,37.2856907 L1.30603857,37.248692 L1.26802891,37.2069985 L1.2263409,37.1610574 L1.1814204,37.1109805 L1.13382473,37.0573267 L1.08366536,37.0006549 L1.03149961,36.9411886 L0.97755042,36.8793749 L0.922375111,36.8157728 L0.866419546,36.7507176 L0.784158176,36.6549232 L0.144793386,34.9890842 L0,34.3389789 L1.03183401,33.6599229 L1.03149961,33.6567931 L1.02982763,33.6327607 L1.02882444,33.6110756 L1.02804419,33.5910672 L1.0273754,33.5726237 L1.02648367,33.5554097 L1.02514609,33.5375251 L1.02035308,33.4823064 L1.01477982,33.4206046 L1.00820337,33.3533137 L1.00106959,33.2807693 L0.993155558,33.2034184 L0.984572732,33.1213728 L0.97543258,33.0347443 L0.965512171,32.9443152 L0.955145901,32.8497504 L0.94433377,32.7517204 L0.933075777,32.6503371 L0.921260459,32.5459357 L0.909110744,32.4382928 L0.896738099,32.328526 L0.883808128,32.2163001 L0.870655226,32.1018387 L0.857390859,31.9855887 L0.843903561,31.8678857 L0.830193333,31.7487295 L0.816371639,31.6286791 L0.802438481,31.507511 L0.746705846,31.019932 L0.732884152,30.8984285 L0.719285389,30.7777074 L0.705798091,30.657657 L0.692533724,30.5388362 L0.679492288,30.4214685 L0.666785247,30.3056657 L0.654412602,30.1924338 L0.65374381,30.1870684 L0.651737435,30.1691838 L0.648393477,30.1410155 L0.644046332,30.103905 L0.638918929,30.0595288 L0.633122735,30.0095637 L0.62688068,29.9552392 L0.620192764,29.8983438 L0.613504848,29.8398835 L0.606928397,29.7819821 L0.600574876,29.725981 L0.594667217,29.6729979 L0.589316884,29.6245976 L0.584635343,29.5825688 L0.581068454,29.5479174 L0.578393287,29.5210905 L0.57527226,29.4834211 L0.57337735,29.4535761 L0.572151232,29.429879 L0.571482441,29.4114355 L0.569587531,29.3812553 L0.567692621,29.3609115 L0.565909177,29.3449272 L0.520765743,29.0488252 C0.691084676,28.8707616 1.72514799,29.226777 1.92154979,29.3646002 C2.1179516,29.5025352 2.70704555,29.7979665 3.23728584,30.093286 C3.76752614,30.3886055 5.14222731,30.9991411 5.8884873,31.2946842 C6.63463582,31.5898919 6.92923853,31.767173 7.4790967,31.8656501 C8.02895488,31.964239 8.08792001,31.9443424 8.67701396,31.9443424 C9.26621938,31.9443424 9.26621938,32.0823892 9.83569545,32.2202124 C10.4051715,32.3579238 11.1514315,32.751944 11.7798727,33.1260675 C12.4083139,33.500191 12.7408148,33.5341718 13.1368509,33.7224072 C13.5329985,33.9103073 13.5329985,34.3494861 13.6580625,34.6003177 C13.7831265,34.8510374 14.0958981,35.2484109 14.4710902,35.3946176 C14.8462823,35.540936 15.1380984,35.6455609 15.5132905,35.7917675 C15.888594,35.9381977 16.1178781,36.3562503 16.5764462,36.7743029 C17.0350143,37.1923555 17.6187579,37.6314225 18.1608136,37.7778526 C18.7027577,37.9240593 18.8486657,38.0494751 19.5990499,38.0286842 C20.3495456,38.0076698 20.0368855,37.9658645 20.2870136,38.1122947 C20.5371417,38.2586131 20.4746096,38.4676394 20.4954536,38.7810671 C20.5162976,39.0948301 20.5579857,38.9482881 20.7247377,39.1365236 C20.8914897,39.324759 21.4543894,39.2829537 21.787782,39.1365236 C22.1213975,38.9902051 22.9969572,38.6974566 23.4972134,38.5094447 C23.997581,38.321321 25.1441127,38.2586131 25.6443689,38.0286842 C26.1447365,37.7986435 26.8180982,37.8662697 27.2427808,37.8662697 C27.3489515,37.8662697 27.4494305,37.8586687 27.5470636,37.8472673 L28.121479,37.7636567 L28.121479,37.7636567 L28.4257618,37.7446544 C28.8504444,37.7446544 29.3357642,37.7141388 29.9727882,37.9879967 C30.6097008,38.2617429 30.7311979,37.9879967 31.3074734,38.1097238 C31.8838603,38.2312273 32.0962016,38.3226624 32.61184,38.4442777 C33.1275898,38.5660047 33.4308868,38.7180239 33.9162066,38.7180239 C34.4015264,38.7180239 34.5532306,38.7180239 34.9779133,38.5051971 C35.402596,38.292035 35.6149373,38.3226624 36.03962,38.292035 C36.4643027,38.2617429 37.1013267,37.8966735 37.4653722,37.5925235 C37.8294178,37.2883734 38.0417592,37.1058387 38.3753747,36.7103654 C38.7091017,36.3148922 39.4067629,36.041146 39.4067629,36.041146 C39.4067629,36.041146 39.5138772,36.1782979 39.6826354,36.3976139 C39.7748468,36.3603947 39.8696023,36.3371465 39.9630798,36.3371465 C40.4287618,36.3371465 40.6390591,36.0623076 41.0295955,35.8332938 C41.4202423,35.6042801 42.0963321,35.3142784 41.855866,34.9171265 C41.6155105,34.5201993 40.9245021,33.7567828 40.9394207,33.451506 C40.9545603,33.1460046 40.7893504,32.7185272 40.9545603,32.4284132 C41.1196597,32.1382992 41.2550324,31.8177473 41.4202423,31.4819204 C41.5855627,31.1458689 42.1563381,30.3824523 42.5770432,30.1993761 C42.9975273,30.0160752 43.373145,30.0313503 43.6585879,30.1382758 C43.9440309,30.2449766 44.5149168,30.5045405 44.7101849,30.7946545 C44.9055636,31.0847686 45.4312516,31.4359829 45.882015,31.4969708 C46.3326678,31.5580711 46.6331399,31.8330224 47.0387054,31.756647 C47.4443813,31.6802717 47.7297138,31.6038963 48.0001276,31.4359829 C48.2705414,31.2679571 49.1377,30.7353513 49.3739668,30.3750394 C49.6102335,30.0148397 50.2719572,29.4863897 50.7917883,29.5825328 C51.3117298,29.6785635 51.8552097,29.8226659 52.4695253,29.7025993 C53.084062,29.5825328 53.6511906,29.2222208 53.8402703,29.0781185 C54.02935,28.9340162 54.4073989,28.525745 54.5256428,28.1894688 C54.6437761,27.8531926 55.1399584,27.5409522 55.3526869,27.0846095 C55.5654154,26.6282667 55.8961667,26.4841644 56.5105929,26.4841644 C57.125019,26.4841644 57.4557704,26.6282667 57.597663,26.3881336 C57.7394452,26.1478882 57.6448501,25.7155813 58.235738,25.7155813 C58.3968591,25.7155813 58.521074,25.7334424 58.6261149,25.754551 L58.8158849,25.7967683 C58.9905973,25.8346555 59.1358984,25.846563 59.3936439,25.7155813 C59.8662879,25.4753359 60.4334165,25.3073101 61.0714915,25.3552693 C61.7095664,25.4033409 61.4496509,25.3313459 62.3003438,25.5474432 C63.1510367,25.7636528 63.9545425,25.8837194 64.1436222,25.6675097 C64.3325914,25.4514124 64.2854044,24.5866862 63.9308938,24.2264865 C63.5764936,23.8661746 63.174575,23.2657295 62.9147699,22.9294533 C62.6548544,22.5931771 62.3239926,22.3049725 62.064077,22.1369467 C61.804051,21.9686963 61.4969484,21.5363894 61.2605712,21.320292 C61.0243044,21.1040824 60.8586525,20.9840159 60.3388214,20.8879851 C59.8189904,20.791842 59.7245058,20.5997804 59.3699952,21.0080516 C59.015595,21.4163228 58.9211104,22.0888752 58.4720047,22.112911 C58.0230095,22.1369467 57.9521737,22.0888752 57.7394452,21.8486298 C57.5268272,21.6084967 57.4085833,21.1761897 56.9595881,21.1281182 C56.5105929,21.0801589 56.3688107,21.2241489 56.0144106,21.2481847 C55.6599,21.2722205 55.4943585,21.1281182 55.1399584,21.4163228 C54.7855583,21.7045275 54.4310477,21.824594 54.2892655,21.6325325 C54.1474834,21.4403586 53.9347549,21.2722205 53.6749499,20.9119085 C53.4149238,20.5517089 53.0368749,19.6149877 53.3204392,19.398778 C53.6040035,19.1826807 54.02935,18.9664711 54.076537,18.5822356 C54.1238346,18.1978879 54.3837501,17.7896167 54.5256428,17.4293048 C54.6674249,17.0691051 54.9036917,16.5406551 55.0927714,16.2284147 C55.2818511,15.9161742 56.2297913,13.9388388 56.4977739,13.5383175 C56.765646,13.1377962 57.0651235,12.8012953 57.1756318,12.8012953 C57.2858086,12.8012953 57.6326942,12.94551 57.8533792,13.2339392 C58.0740643,13.5222562 58.3893445,13.6664708 58.6889325,13.5703278 C58.98841,13.474297 59.2090951,13.4902459 59.3982853,13.7145424 C59.5874755,13.9388388 59.6189704,14.2433294 59.9972403,14.0510432 C60.3755102,13.858757 60.6909009,13.6825321 60.911586,13.474297 C61.132271,13.2659495 61.5578385,12.9615713 61.9204162,12.8813771 C62.282994,12.8012953 62.3459837,12.8974384 62.7874644,12.7212135 C63.2288345,12.5449886 63.4180247,12.2886819 63.354814,12.0803345 C63.2919348,11.8720993 63.0081494,11.743946 63.1027446,11.4235064 C63.1973397,11.1030669 63.354814,10.7345558 63.4337169,10.5583309 C63.5126198,10.3819937 63.9224951,9.59701234 64.1904778,9.24456255 C64.4584604,8.89200044 64.5057579,8.85999019 64.726443,8.39533602 C64.9471281,7.93068185 65.1362078,7.59429335 65.199308,7.28980279 C65.2624083,6.98542454 65.1835054,6.7611281 65.4515985,6.47269883 C65.7195811,6.18438187 65.751076,6.13631033 66.1766435,5.84788105 C66.6023214,5.5595641 66.6969165,5.54350281 66.8072038,5.28719611 C66.9176016,5.0307771 67.1067918,4.69438859 66.9332938,4.30981623 C66.7599063,3.92535618 66.9176016,3.76508026 66.9017989,3.55673279 C66.8859962,3.34849763 66.996394,3.17227274 66.6338163,3.17227274 C66.2712386,3.17227274 65.9244635,3.39656918 65.751076,3.18833403 C65.5776885,2.97998656 65.3884983,2.61147548 65.6406782,2.17894389 C65.8929687,1.74629998 66.097851,1.66621817 66.4604288,1.36183993 C66.8230065,1.05746169 67.0121967,0.993328853 67.2170791,0.608868805 C67.4219615,0.22429644 68.0052243,0 68.0052243,0 Z" id="形状结合"></path>
            </g>
        </g>
    </g>
</svg>