<?xml version="1.0" encoding="UTF-8"?>
<svg width="120px" height="120px" viewBox="0 0 120 120" version="1.1" xmlns="http://www.w3.org/2000/svg" xmlns:xlink="http://www.w3.org/1999/xlink">
    <title>jdo_cn_ximalaya_radio_province_hainan</title>
    <defs>
        <path d="M18.6645709,1.84320447e-06 C18.6674654,-0.000117355195 18.6621588,0.00557436485 18.6611939,0.00848077508 C18.6263388,0.0961574838 18.588951,0.183470891 18.5817146,0.201878156 C18.5677243,0.238208284 18.4299924,0.549920782 18.3997203,0.602720568 C18.3693276,0.655157052 18.3267538,0.697663302 18.270069,0.738110844 C18.2135048,0.778558387 18.1284777,0.950642093 18.0738432,1.06387099 C18.0189675,1.17722099 18.0374202,1.31479108 18.0392293,1.36335235 C18.0414002,1.41203472 18.0474305,1.6346173 18.0493602,1.66695112 C18.0515311,1.69928493 18.0575614,1.73573616 18.0434505,1.73367745 C18.029219,1.73173984 17.9886954,1.71345368 17.9584233,1.68317857 C17.9280307,1.65278237 17.8713459,1.65072366 17.8328726,1.64067232 C17.7945199,1.63049989 17.7783587,1.50310224 17.7520666,1.33913226 C17.725654,1.17528338 17.517247,1.08227826 17.3896459,1.01143451 C17.2621655,0.940469657 17.2599946,0.847464529 17.2560146,0.806895887 C17.2520346,0.766448344 17.2480546,0.701659616 17.2256219,0.594485739 C17.203551,0.487190761 17.0941615,0.394185633 17.0415773,0.329396905 C16.9888725,0.264729277 17.007084,0.137089428 17.0314464,0.0724218002 C17.0388034,0.0528035312 17.0448337,0.0351228689 17.0506227,0.0196220143 C17.0524318,0.0145357964 17.0511052,0.00484776229 17.05605,0.00484776229 C17.7418151,0.00569546527 18.1154522,0.00787527295 18.6645709,1.84320447e-06 M13.2055017,0.00402427939 C13.208155,0.00402427939 13.2017629,0.00826279431 13.1998332,0.0103215016 C13.1819835,0.0299397706 13.1635308,0.0468938303 13.1471284,0.0604570781 C13.1021424,0.0973927082 13.1232484,0.123913702 13.1524351,0.123913702 C13.1815011,0.123913702 13.2027277,0.174049278 13.2130998,0.197906062 C13.2237132,0.221641746 13.1708878,0.216434427 13.1312084,0.203234481 C13.0915291,0.190034534 13.0729558,0.213649118 13.0545031,0.24283432 C13.0360504,0.271898423 13.012291,0.234962793 13.012291,0.234962793 C13.012291,0.234962793 12.9787626,0.188460229 12.963325,0.183252911 C12.9477669,0.178045592 12.9477669,0.167873156 12.9271432,0.188460229 C12.9065196,0.209168402 12.8832427,0.232419684 12.9219572,0.229755474 C12.9909438,0.225153658 12.9525911,0.284613967 12.930279,0.316826681 C12.9065196,0.351219202 12.9275051,0.340683465 12.9250929,0.374954886 C12.922319,0.409347407 12.8931324,0.454275665 12.8429603,0.496418613 C12.7927883,0.538924863 12.7505762,0.5494606 12.6552976,0.5494606 C12.5600189,0.5494606 12.4993541,0.615581433 12.4782481,0.641981326 C12.4571421,0.668381219 12.4279554,0.681581165 12.3643961,0.681581165 C12.301078,0.681581165 12.1555067,0.789966047 12.1054553,0.800622885 C12.0551626,0.811158622 12.0260966,0.787301838 12.018016,0.753030417 C12.0101766,0.718516795 11.9969099,0.718516795 11.9653112,0.707981058 C11.9334712,0.697566422 11.9175513,0.678916956 11.8937919,0.649973954 C11.8701532,0.620788751 11.8648465,0.62611717 11.8276999,0.657724381 C11.7907945,0.689573793 11.7406224,0.745037789 11.7166218,0.774101891 C11.6929831,0.803287094 11.7193958,0.813822831 11.7590751,0.803287094 C11.7987545,0.792630256 11.7907945,0.808494412 11.7774072,0.842886933 C11.7643818,0.877279454 11.7351951,0.901015138 11.7008225,0.887815192 C11.6664498,0.874494145 11.6189311,0.877279454 11.5606784,0.864079508 C11.5025464,0.850758461 11.5263057,0.837558515 11.5633317,0.803287094 C11.6003578,0.768773472 11.5316124,0.771558782 11.4813197,0.768773472 C11.4311477,0.766230363 11.412695,0.760901945 11.3968956,0.73983047 C11.380855,0.718516795 11.3572163,0.700109531 11.3333363,0.713188377 C11.3094563,0.726509424 11.3041497,0.731837842 11.248671,0.742373579 C11.1930716,0.753030417 11.1509802,0.813822831 11.1272208,0.85608688 C11.1032202,0.898350929 11.0505155,0.85608688 11.0292888,0.832351196 C11.0080622,0.808494412 10.9868355,0.819030149 10.9605435,0.819030149 C10.9341308,0.819030149 10.9419702,0.842886933 10.9631968,0.858751089 C10.9844234,0.874494145 11.0027555,0.879822563 11.0266355,0.895686719 C11.0505155,0.911671976 11.0530482,0.96980018 11.0238616,1.0040716 C10.9949161,1.03846412 10.9764634,1.0596567 10.9472768,1.05166407 C10.9182108,1.04379254 10.8944514,1.0332568 10.8361988,1.01206423 C10.7780667,0.990871654 10.783494,0.89302251 10.7992934,0.861415299 C10.8150927,0.829565886 10.8759987,0.776766101 10.8679181,0.750366208 C10.8600787,0.723845214 10.8310127,0.753030417 10.7912128,0.789966047 C10.7515334,0.827022777 10.7013614,0.834894305 10.6486566,0.850758461 C10.59559,0.866622617 10.5930573,0.911671976 10.6141633,0.935286559 C10.6352694,0.959143343 10.6352694,0.97246439 10.616696,0.996200073 C10.5983639,1.01993576 10.5983639,1.03846412 10.6486566,1.07019243 C10.6988287,1.10192075 10.693522,1.12311332 10.664456,1.13631327 C10.6352694,1.14951321 10.5480713,1.21030563 10.4871653,1.21030563 C10.4263799,1.21030563 10.4371139,1.17591311 10.4263799,1.09404922 C10.4160078,1.01206423 10.3086686,1.0327724 10.2625971,1.04645675 C10.2164051,1.06002 10.2338929,1.07879056 10.2572905,1.09090061 C10.2748989,1.10010424 10.300588,1.09974094 10.3121662,1.11584729 C10.317714,1.12359772 10.3229001,1.13449676 10.3285686,1.146849 C10.3471419,1.18656994 10.2941959,1.18656994 10.2413705,1.18911305 C10.1884245,1.19177726 10.1699718,1.21563405 10.1884245,1.23670552 C10.2071184,1.25789809 10.2307572,1.25256968 10.2757432,1.24203394 C10.3207292,1.2314982 10.4080478,1.22338447 10.4052739,1.26589072 C10.4027412,1.30815477 10.3974345,1.31348319 10.3285686,1.33721887 C10.2598232,1.36095456 10.1593585,1.34775461 10.1171464,1.33189046 C10.0749343,1.3160263 10.0246417,1.32135472 9.96120299,1.32135472 C9.89764368,1.32135472 9.86604493,1.31348319 9.863271,1.28163378 C9.86073827,1.24990547 9.87907037,1.22883399 9.91091033,1.20752032 C9.94250907,1.18656994 9.97434903,1.15217742 9.95058967,1.13098485 C9.9267097,1.10979227 9.87400492,1.13897748 9.83951163,1.16017005 C9.80525956,1.18124152 9.7549669,1.0887208 9.72855421,1.0332568 C9.70202091,0.977671708 9.68356821,0.916879294 9.68610093,0.882486773 C9.68887487,0.848215352 9.65968824,0.840222724 9.6200089,0.848215352 C9.58032956,0.85608688 9.55934413,0.837558515 9.54065022,0.805830203 C9.52231812,0.774101891 9.50374481,0.745037789 9.48794544,0.726509424 C9.47202546,0.707981058 9.49035756,0.66583811 9.50374481,0.628781379 C9.51701146,0.591724649 9.49035756,0.559996337 9.44295944,0.536260654 C9.39532011,0.51240387 9.37409347,0.533596444 9.37156075,0.586517331 C9.36878681,0.639317117 9.37940013,0.676373847 9.42703946,0.745037789 C9.47455819,0.813822831 9.48830726,0.853543771 9.46020608,0.857055683 C9.43234612,0.860567596 9.41461705,0.857055683 9.42884855,0.892053706 C9.44283883,0.92705173 9.45670851,0.975976302 9.42523037,0.97258549 C9.39375223,0.969073578 9.37626438,0.990145052 9.40412434,1.03555771 C9.43234612,1.08109147 9.4462158,1.15108752 9.42185341,1.19662128 C9.39737041,1.24203394 9.40774252,1.27364115 9.42884855,1.29810344 C9.44971337,1.32268682 9.4706988,1.32268682 9.46382426,1.36446647 C9.45670851,1.40660942 9.4462158,1.4310717 9.45333155,1.46958164 C9.46020608,1.50809158 9.41461705,1.58159953 9.35238441,1.59588938 C9.30691599,1.58959216 9.26820149,1.54744921 9.24625122,1.55096113 C9.24190941,1.55180883 9.2479397,1.58293164 9.24685425,1.59370958 C9.24637183,1.5989169 9.24432153,1.63488372 9.25457303,1.67012395 C9.25903544,1.6850193 9.26518635,1.70197336 9.27218149,1.7150522 C9.28195057,1.73297507 9.28231238,1.74690162 9.27893542,1.75889056 C9.26783968,1.7981271 9.20174764,1.77620792 9.184501,1.77414921 C9.17593798,1.77318041 9.1661689,1.76676209 9.15929437,1.75658965 C9.1518168,1.74496401 9.1477162,1.72897875 9.14831923,1.71832192 C9.14880165,1.70766508 9.12805744,1.67823767 9.11816776,1.68392939 C9.11672048,1.6847771 9.10960474,1.69010552 9.10417747,1.70487977 C9.10092111,1.713599 9.09971505,1.72958426 9.09621748,1.73927229 C9.09175506,1.75114013 9.08355386,1.76179697 9.07885023,1.77439141 C9.07559387,1.78347395 9.07462903,1.79134547 9.074026,1.7986115 C9.07342297,1.80611973 9.07306115,1.81302245 9.07462903,1.82016737 C9.07872963,1.84111775 9.11985624,1.82246828 9.13396713,1.83760584 C9.14831923,1.85298559 9.15061074,1.87635797 9.15121377,1.89633954 C9.15205801,1.92758345 9.11430837,1.92152843 9.10755444,1.91922752 C9.10188596,1.91741102 9.08608659,1.90517987 9.07221691,1.884835 C9.06630722,1.87611577 9.06232722,1.86194702 9.05702056,1.85153239 C9.05316118,1.84426636 9.04423634,1.83373062 9.03699999,1.8284022 C9.02204485,1.81726096 9.01263759,1.82053068 9.00745154,1.80866283 C8.99925034,1.79001337 8.99973276,1.77354371 8.99828549,1.75259334 C8.9964764,1.72583014 8.98948126,1.71226689 8.98562187,1.70572747 C8.9820037,1.69979355 8.97271704,1.69264863 8.96728978,1.68974222 C8.96246554,1.68707801 8.95920918,1.68271839 8.95522919,1.67932758 C8.92712801,1.655713 8.91735893,1.61599206 8.91928863,1.58571695 C8.92194196,1.54587491 8.90626319,1.52492454 8.87707656,1.50373196 C8.84801054,1.48253939 8.85597053,1.3716114 8.8531966,1.32668314 C8.85078448,1.28163378 8.85597053,1.23404131 8.83209056,1.20752032 C8.80845181,1.18124152 8.81617058,1.26589072 8.82159785,1.30016214 C8.8267839,1.33443356 8.82159785,1.41387544 8.82955784,1.44548266 C8.83739722,1.47733207 8.85078448,1.52226033 8.84535721,1.55398864 C8.84017116,1.58571695 8.83739722,1.60678842 8.81098453,1.63330942 C8.78469245,1.65970931 8.7898785,1.70197336 8.81617058,1.73903009 C8.84270388,1.77596572 8.84801054,1.81302245 8.82425118,1.83942234 C8.80049182,1.86582224 8.76599853,1.90021476 8.74223917,1.92140733 C8.71847981,1.94247881 8.66830775,1.92395044 8.63924173,1.89234323 C8.6100551,1.86061492 8.57037576,1.84208655 8.53069642,1.85795071 C8.49101708,1.87381486 8.43300564,1.95834296 8.40381902,1.9980639 C8.37463239,2.03766374 8.32446034,2.10632768 8.27947434,2.09845615 C8.23460894,2.09046353 8.19505021,2.07472047 8.15537087,2.03245642 C8.11569153,1.98995017 8.13933028,1.90808628 8.15006421,1.87647907 C8.16067753,1.84475076 8.16586358,1.83942234 8.12630484,1.83155081 C8.0866255,1.82355819 8.09977155,1.80769403 8.07613279,1.75743735 C8.05213222,1.70718068 8.04417223,1.7415732 8.04694616,1.8262224 C8.04947889,1.91075049 8.09446489,2.01913538 8.08131884,2.05607101 C8.06793159,2.09324884 8.02053347,2.14871283 7.9597481,2.15404125 C7.89872151,2.15924857 7.85916278,2.10378457 7.84601674,2.07205626 C7.83262948,2.04020685 7.81960404,2.02979221 7.79572408,2.02979221 C7.77184411,2.02979221 7.73747143,2.03512063 7.69779209,2.03245642 C7.68271635,2.03136652 7.54631108,2.04638297 7.59479465,2.082592 C7.61590068,2.09845615 7.59756859,2.12219184 7.54980865,2.15404125 C7.50228993,2.18576956 7.55788924,2.20671994 7.61867462,2.2253694 C7.67945999,2.24389777 7.61867462,2.27816919 7.57091468,2.27816919 C7.52339596,2.27816919 7.50482265,2.29149023 7.47575663,2.31522592 C7.44669061,2.3390827 7.43354456,2.35748997 7.40713187,2.34695423 C7.38059857,2.33641849 7.43607729,2.27029766 7.46273119,2.23856935 C7.48902328,2.20671994 7.48383722,2.18843377 7.45983665,2.18044114 C7.43607729,2.17244852 7.43885122,2.16978431 7.41497125,2.13551289 C7.39109129,2.10099926 7.36214587,2.09567084 7.30919988,2.09567084 C7.2563745,2.09567084 7.26952054,2.10911299 7.31450654,2.14592752 C7.35937194,2.18310535 7.34091923,2.22803361 7.31450654,2.2544335 C7.28821446,2.2809545 7.25372117,2.31244061 7.2379218,2.3390827 C7.22200182,2.3654826 7.20342851,2.37081101 7.16905583,2.34961844 C7.13468315,2.32842586 7.14529647,2.34174691 7.12406983,2.37081101 C7.10296379,2.39987512 7.06075173,2.38667517 7.02360511,2.3654826 C6.98669971,2.34429002 6.94448764,2.3390827 6.89672771,2.34429002 C6.84932959,2.34961844 6.8598223,2.3680257 6.88346106,2.37868254 C6.90734103,2.38921828 6.87574228,2.41041085 6.83859566,2.4234897 C6.80156965,2.43681075 6.77781029,2.45001069 6.76466425,2.46321064 C6.75127699,2.47653169 6.71690431,2.50826 6.70918554,2.47386748 C6.70110494,2.43947496 6.71159765,2.44213916 6.74862366,2.39987512 C6.78577028,2.35748997 6.70629099,2.36015418 6.68011951,2.35494686 C6.65358622,2.34961844 6.66419954,2.37081101 6.6695062,2.39188249 C6.67469225,2.41307506 6.61113294,2.41307506 6.57422754,2.41307506 C6.53720152,2.41307506 6.46857677,2.42094659 6.40489685,2.43947496 C6.34157876,2.45800332 6.227968,2.47120327 6.16440869,2.46321064 C6.10096999,2.45533911 6.06129065,2.54265252 6.0296919,2.59000279 C5.99773134,2.63771635 5.86289394,2.68797303 5.81549583,2.68797303 C5.76773589,2.68797303 5.79426919,2.63238793 5.79680191,2.61131646 C5.79957585,2.59000279 5.80210857,2.56105978 5.78377648,2.55585247 C5.76520317,2.55052405 5.76520317,2.53199568 5.76773589,2.51346732 C5.77050983,2.49506005 5.79161586,2.47120327 5.75712257,2.46853906 C5.7229911,2.46587485 5.72805655,2.4526749 5.71503111,2.4234897 C5.70164386,2.3945467 5.68584449,2.39188249 5.68861842,2.42094659 C5.69103054,2.45001069 5.6963372,2.48973163 5.70972445,2.51879573 C5.7229911,2.54785984 5.73601654,2.5927881 5.74940379,2.66157314 C5.76242923,2.73035818 5.68584449,2.7646296 5.66196452,2.77770845 C5.63832576,2.79115059 5.63555183,2.84395038 5.66473845,2.85448612 C5.69392508,2.86502185 5.73601654,2.8783429 5.79426919,2.87289338 C5.85240123,2.86756496 5.83382792,2.97861405 5.82586793,3.01579189 C5.81802855,3.05272752 5.77834921,3.01833499 5.73070988,2.97861405 C5.68331176,2.93913532 5.64616515,2.94967105 5.61191307,2.962871 C5.57741978,2.97607095 5.55896708,3.01579189 5.53786105,2.99447821 C5.51663441,2.97340674 5.56162041,2.91007121 5.57476645,2.88342912 C5.58815371,2.85715033 5.58537977,2.83607885 5.55366042,2.82808622 C5.52194107,2.8200936 5.46911569,2.86756496 5.42400908,2.89687127 C5.37914369,2.92581427 5.40024972,2.962871 5.42690362,2.97861405 C5.45331631,2.99447821 5.44523572,3.00259194 5.43992906,3.02632762 C5.4346224,3.05006331 5.4346224,3.1056484 5.43992906,3.12671988 C5.44523572,3.14791245 5.46103509,3.15324087 5.50348837,3.14791245 C5.54570043,3.14258403 5.57524888,3.14209963 5.60925974,3.17164813 C5.70791537,3.25823494 5.69066872,3.40609856 5.6064858,3.26683307 C5.58031432,3.22360022 5.57741978,3.28015412 5.58272644,3.32241816 C5.58815371,3.36468221 5.59587249,3.39641053 5.62505911,3.40440315 C5.65424574,3.41227468 5.69103054,3.417482 5.71225718,3.46253136 C5.73348382,3.50745962 5.76520317,3.51012383 5.80210857,3.54173104 C5.83913458,3.57358045 5.82333521,3.64999482 5.79161586,3.68450844 C5.76001711,3.71890096 5.68584449,3.83261426 5.63555183,3.85901415 C5.58537977,3.88541405 5.38722428,3.91193504 5.33946434,3.88807826 C5.29194562,3.86434257 5.26553293,3.87742142 5.24430629,3.88541405 C5.22307965,3.89340668 5.18870697,3.92234968 5.15433429,3.91714236 C5.11996161,3.91193504 5.11730828,3.85901415 5.11465495,3.8140859 C5.11224283,3.76915764 5.0830562,3.75583659 5.08040287,3.71623675 C5.07762894,3.67663691 5.13322826,3.68450844 5.17821426,3.6739727 C5.22307965,3.66343697 5.20740089,3.64224439 5.15964095,3.63691597 C5.11224283,3.63170865 5.09101619,3.62105182 5.06195017,3.59453082 C5.03276354,3.56825203 5.02215023,3.5602594 5.01443145,3.52586688 C5.00647146,3.49159546 5.00912479,3.49159546 4.9746315,3.45453873 C4.94037943,3.417482 4.95087214,3.38321058 4.99839086,3.34094653 C5.04603019,3.29868248 5.03276354,3.29601827 4.99055148,3.29335406 C4.94821881,3.29068985 4.95087214,3.24564049 4.95087214,3.19816913 C4.95087214,3.15045556 4.94556548,3.16644082 4.89539343,3.17431234 C4.84510077,3.18230497 4.85824681,3.06072014 4.86886013,3.01833499 C4.87959405,2.97607095 4.87959405,2.93114269 4.88731283,2.87567869 C4.89539343,2.8200936 4.91384613,2.77770845 4.95087214,2.74089392 C4.98777754,2.70383719 4.98524482,2.68797303 4.99055148,2.64304477 C4.99585814,2.59811651 5.04868352,2.58225236 5.10693617,2.56372399 C5.16494761,2.54519563 5.16760094,2.51346732 5.16494761,2.46587485 C5.16241489,2.41828238 5.14372097,2.41828238 5.09885558,2.41828238 C5.05386958,2.41828238 5.03276354,2.41573927 5.01443145,2.38388986 C4.99585814,2.35228265 4.98777754,2.34429002 4.98777754,2.37868254 C4.98777754,2.41307506 4.94821881,2.4234897 4.90323281,2.40508243 C4.85824681,2.38667517 4.86355347,2.32309745 4.86355347,2.27816919 C4.86355347,2.23336203 4.85571409,2.24123356 4.80554203,2.25697661 C4.75524937,2.27284077 4.75524937,2.15646326 4.7577821,2.11698452 C4.76055603,2.07738468 4.76055603,2.06672784 4.73667606,2.09046353 C4.7129167,2.11432031 4.6863834,2.12219184 4.65743799,2.14871283 C4.62837197,2.17523383 4.63886468,2.20671994 4.67577008,2.22016208 C4.7129167,2.23336203 4.74994271,2.26751235 4.73414334,2.32055434 C4.71822336,2.37335412 4.62837197,2.41307506 4.56481266,2.44480337 C4.50125335,2.47653169 4.44046798,2.47120327 4.4060953,2.45001069 C4.37184322,2.42881812 4.36653656,2.44480337 4.34000326,2.48973163 C4.31359057,2.53453879 4.23953855,2.55052405 4.19985921,2.52933147 C4.16017987,2.50826 4.1260484,2.48706742 4.1260484,2.44480337 C4.1260484,2.40253933 4.1628332,2.37081101 4.21589979,2.34429002 C4.26860457,2.31776903 4.19455255,2.29669755 4.15752654,2.27562608 C4.12074174,2.2544335 4.09939449,2.25176929 4.04934305,2.2544335 C3.99905039,2.25697661 3.97782375,2.24656198 3.946225,2.21204835 C3.91450565,2.17777693 3.92753109,2.1408413 3.93295835,2.10632768 C3.93814441,2.07205626 3.91450565,2.05607101 3.88543963,2.02979221 C3.8561324,2.00327122 3.8561324,2.02979221 3.86421299,2.06152052 C3.87205238,2.09324884 3.86951965,2.09046353 3.86674572,2.11432031 C3.86421299,2.13817709 3.87205238,2.16179168 3.87482631,2.1963053 C3.87735904,2.23069782 3.86421299,2.25976192 3.80596034,2.26509034 C3.74794891,2.27029766 3.74264225,2.21737677 3.7293756,2.15646326 C3.71610895,2.09567084 3.71610895,2.10632768 3.64205693,2.09567084 C3.56812551,2.08525621 3.57873883,2.01647117 3.57596489,1.97687133 C3.57343217,1.93727149 3.56535158,1.90808628 3.52567224,1.87115065 C3.48599289,1.83421502 3.48080684,1.97154291 3.47815351,1.9980639 C3.47550018,2.02446379 3.49129955,2.08792042 3.50203348,2.11698452 C3.5126468,2.14592752 3.51783285,2.17244852 3.5126468,2.20671994 C3.50734014,2.24123356 3.4595802,2.27562608 3.42520752,2.29415444 C3.39095545,2.31244061 3.38034213,2.29149023 3.38034213,2.21483366 C3.38034213,2.13817709 3.33535613,2.16179168 3.29567679,2.15924857 C3.25611805,2.15646326 3.27203803,2.20950525 3.26142471,2.25976192 C3.25069079,2.3098975 3.16096,2.35494686 3.12128066,2.34961844 C3.08160132,2.34429002 3.115974,2.28882603 3.14757274,2.23602624 C3.17929209,2.18310535 3.10270735,2.20151262 3.06821406,2.21737677 C3.03396199,2.23336203 3.0261226,2.24922619 3.01020262,2.2809545 C2.99428265,2.31244061 2.94145726,2.32055434 2.90443125,2.32055434 C2.86740524,2.32055434 2.85148526,2.32309745 2.84376648,2.34174691 C2.83580649,2.36015418 2.70519031,2.33702399 2.45662155,2.31171401 C2.20805279,2.28628292 1.92523196,2.14132571 1.67967835,2.00157581 C1.43400413,1.86158372 1.22825047,1.84826267 1.18845053,1.72825215 C1.14865058,1.60836273 1.10885063,1.43494692 1.06893008,1.21527074 C1.02925074,0.99535237 1.04251739,0.895202318 0.830251006,0.755452425 C0.617743413,0.615581433 0.206477298,0.422305152 0.206477298,0.422305152 L0,0.371564074 L0.00361817696,0.00366097811 L9.97229873,0.00244997385 C10.2399232,0.00547748451 12.590894,0.0135912131 13.2055017,0.00402427939" id="path-1"></path>
        <filter x="-13.4%" y="-63.8%" width="126.8%" height="227.6%" filterUnits="objectBoundingBox" id="filter-2">
            <feGaussianBlur stdDeviation="2.5" in="SourceAlpha" result="shadowBlurInner1"></feGaussianBlur>
            <feOffset dx="0" dy="0" in="shadowBlurInner1" result="shadowOffsetInner1"></feOffset>
            <feComposite in="shadowOffsetInner1" in2="SourceAlpha" operator="arithmetic" k2="-1" k3="1" result="shadowInnerInner1"></feComposite>
            <feColorMatrix values="0 0 0 0 1   0 0 0 0 1   0 0 0 0 1  0 0 0 0.298978365 0" type="matrix" in="shadowInnerInner1"></feColorMatrix>
        </filter>
        <path d="M3.46287869,5.13753299 C3.36687628,5.18454568 3.28547665,5.2213899 3.27810297,5.26193175 C3.27072929,5.30207742 3.2818621,5.32558376 3.27072929,5.35925858 C3.25974107,5.3929334 3.27448842,5.40283776 3.28547665,5.43321113 C3.29646488,5.46332039 3.28547665,5.51376659 3.2635002,5.54730935 C3.24123458,5.58111623 3.23747545,5.60462258 3.25236739,5.64476825 C3.26697016,5.68517803 3.27072929,5.75899853 3.25583735,5.83308313 C3.24123458,5.90690363 3.22272809,5.9202415 3.27072929,5.98072412 C3.31887508,6.04120674 3.36297257,6.05480873 3.3595026,6.19254535 C3.35574347,6.33028197 3.33347786,6.3973675 3.38899732,6.40753598 C3.4443722,6.41770445 3.65126896,6.47132005 3.69927016,6.52189831 C3.74727136,6.57221246 3.77300695,6.58555033 3.83228554,6.58224888 C3.89141956,6.57881536 3.92828795,6.58555033 3.96515635,6.64603295 C4.0023139,6.70638351 4.02067581,6.73332337 4.06506247,6.72328695 C4.10930454,6.71325054 4.33832233,6.67284075 4.39008266,6.74005834 C4.44169842,6.80740798 4.44545755,6.81414294 4.50473614,6.80397447 C4.56372557,6.79380599 4.58584661,6.7704317 4.60420852,6.79737156 C4.622715,6.82417936 4.64498062,6.81414294 4.6819936,6.80054096 C4.71871741,6.78720309 4.7299948,6.78046812 4.77438146,6.7704317 C4.81862353,6.76026323 4.80387617,6.73688894 4.80387617,6.73688894 C4.80387617,6.73688894 4.78175514,6.70308206 4.81124985,6.67957571 C4.84088915,6.65606937 4.85563651,6.61909309 4.8628656,6.59902026 C4.87023928,6.57881536 4.87399841,6.56864689 4.9293733,6.56547749 C4.98474818,6.56217604 5.01814661,6.58224888 5.08075059,6.52506771 C5.14378831,6.4680186 5.15839109,6.4680186 5.15839109,6.51172984 C5.15839109,6.55530902 5.16215022,6.58898384 5.18803039,6.55861047 C5.21376597,6.52850122 5.22865791,6.51489923 5.27289998,6.50499487 C5.31743122,6.49495846 5.31367209,6.46115158 5.31743122,6.43447583 C5.32090119,6.40753598 5.36890239,6.29000425 5.42818099,6.27640226 C5.487315,6.26306439 5.49468868,6.25963088 5.53141249,6.21591964 C5.54905149,6.19531857 5.68047647,6.0892759 5.69045262,6.16217198 C5.69406717,6.18897978 5.7274656,6.18897978 5.75696031,6.16217198 C5.78631045,6.13523212 5.83821536,6.08491798 5.8899757,6.05124316 C5.94159145,6.01770039 5.95995336,5.9974955 5.97123075,5.94044639 C5.98236356,5.88352934 5.95272426,5.87996377 5.9379769,5.91350653 C5.92308496,5.94718135 5.8899757,5.96751831 5.87884289,5.93384348 C5.86771008,5.90030072 5.88245744,5.86992735 5.90848219,5.8398181 C5.93436235,5.80944473 5.96385707,5.75569707 5.96385707,5.71885286 C5.96385707,5.68174452 5.96385707,5.66840665 5.98597811,5.63473183 C6.00795456,5.60105701 6.01923195,5.60105701 6.01923195,5.54730935 C6.01923195,5.49369375 6.08573964,5.35252362 6.12260804,5.32241437 C6.15962101,5.292041 6.18897115,5.25176327 6.18550118,5.22838898 C6.18174205,5.20461852 6.15962101,5.15430437 6.20762222,5.13409948 C6.255768,5.11402665 6.36275864,5.0400741 6.36651777,4.9930614 C6.36998774,4.94604871 6.35162583,4.91593946 6.34049302,4.89230105 C6.32950479,4.86866265 6.30362463,4.85532478 6.34801128,4.8385534 C6.39239794,4.82178202 6.47726753,4.76129939 6.45890563,4.79814361 C6.44039914,4.83511989 6.40714529,4.88226464 6.42189265,4.91237389 C6.43664001,4.9426152 6.43664001,4.9662536 6.46252018,4.9662536 C6.48840034,4.9662536 6.48478579,4.95265162 6.49201489,4.91910885 C6.49953315,4.88543403 6.54753436,4.84172279 6.58064362,4.8117456 C6.61404205,4.78137223 6.6656578,4.77120375 6.64353676,4.73092603 C6.62141573,4.69078036 6.58816188,4.53627235 6.57702907,4.45545278 C6.56604084,4.37489732 6.5031477,4.27400491 6.44762824,4.26740201 C6.39239794,4.26066704 6.2149959,4.25723353 6.20010396,4.17654602 C6.18550118,4.09612262 6.18550118,4.06257986 6.12636717,4.10615904 C6.06723316,4.14987028 6.01185827,4.19675091 6.0156174,4.26066704 C6.01923195,4.32445112 5.98597811,4.35125892 5.95995336,4.31771615 C5.93436235,4.28417339 5.8899757,4.23029367 5.84182991,4.21022084 C5.79382871,4.190148 5.76433399,4.16320815 5.71633279,4.18671449 C5.66833159,4.21022084 5.59445022,4.20691939 5.51319517,4.190148 C5.43194012,4.17337662 5.39868627,4.18341304 5.3728061,4.21022084 C5.34692594,4.23702864 5.34692594,4.25393208 5.34692594,4.27400491 C5.34692594,4.29434187 5.30629841,4.32128172 5.27289998,4.3412225 C5.23978747,4.36142739 5.18803039,4.38163229 5.15492112,4.35799388 C5.12152269,4.33448754 5.07728062,4.31111325 5.05125587,4.33792105 C5.0253757,4.3648609 5.01424289,4.40857214 4.98113363,4.37489732 C4.9477352,4.3412225 4.92575875,4.32788463 4.87775754,4.32128172 C4.82975634,4.31428264 4.79274336,4.30081271 4.76671862,4.28073988 C4.74098303,4.26066704 4.72623567,4.25723353 4.66348711,4.29434187 C4.60073855,4.33131814 4.51933892,4.41174154 4.53047173,4.45545278 C4.54160454,4.49916402 4.55620731,4.52267036 4.51572437,4.53270678 C4.47509684,4.5427432 4.40121547,4.55621313 4.39008266,4.52610387 C4.37909444,4.49573051 4.36058795,4.46562125 4.28670658,4.46218774 C4.21268063,4.45888629 4.10930454,4.46892271 4.08703892,4.50933249 C4.06506247,4.54947816 4.04294143,4.5865865 4.02443494,4.62673217 C4.00592845,4.66714195 4.01330213,4.69078036 4.05768879,4.66714195 C4.10207544,4.64363561 4.13157016,4.63029773 4.13894384,4.65037057 C4.14617293,4.6704434 4.14255839,4.70081677 4.10207544,4.71758816 C4.06130334,4.73435954 4.05017053,4.73092603 4.02443494,4.76803436 C3.99855477,4.80501063 3.93204708,4.82508347 3.8766722,4.83511989 C3.77069364,4.85453243 3.76751284,4.91197771 3.70302929,4.95265162 C3.70302929,4.95265162 3.5588811,5.09038824 3.46287869,5.13753299 Z" id="path-3"></path>
        <filter x="-73.3%" y="-91.7%" width="246.7%" height="283.3%" filterUnits="objectBoundingBox" id="filter-4">
            <feGaussianBlur stdDeviation="2.5" in="SourceAlpha" result="shadowBlurInner1"></feGaussianBlur>
            <feOffset dx="0" dy="0" in="shadowBlurInner1" result="shadowOffsetInner1"></feOffset>
            <feComposite in="shadowOffsetInner1" in2="SourceAlpha" operator="arithmetic" k2="-1" k3="1" result="shadowInnerInner1"></feComposite>
            <feColorMatrix values="0 0 0 0 1   0 0 0 0 1   0 0 0 0 1  0 0 0 0.298978365 0" type="matrix" in="shadowInnerInner1"></feColorMatrix>
        </filter>
    </defs>
    <g id="jdo_cn_ximalaya_radio_province_hainan" stroke="none" stroke-width="1" fill="none" fill-rule="evenodd">
        <g id="编组-2">
            <rect id="矩形" x="0" y="0" width="120" height="120"></rect>
            <g id="海南" transform="translate(24.000000, 32.000000)">
                <g id="编组" transform="translate(53.000000, 32.000000)">
                    <path d="M1.64853791,1.78753081 C1.56954104,1.7577401 1.44121637,1.68495875 1.39200916,1.72467969" id="Stroke-7" stroke="#FFFFFF" stroke-width="0.5" stroke-dasharray="7.683,1.681,0.96,1.681"></path>
                    <path d="M0.548238233,0.369565917 C0.461401986,0.324637658 0.382887546,0.300901975 0.311006431,0.257669123" id="Stroke-9" stroke="#FFFFFF" stroke-width="0.5" stroke-dasharray="7.683,1.681,0.96,1.681"></path>
                    <path d="M2.60572662,2.21517275 C2.45135107,2.23963503 2.26055254,2.19446457 2.20410898,2.19131596" id="Stroke-11" stroke="#FFFFFF" stroke-width="0.5" stroke-dasharray="7.683,1.681,0.96,1.681"></path>
                    <path d="M1.53393818,0.745049899 C1.50993761,0.776051608 1.47544432,0.848469663 1.43467953,0.900058445" id="Stroke-13" stroke="#FFFFFF" stroke-width="0.5" stroke-dasharray="7.683,1.681,0.96,1.681"></path>
                    <path d="M4.99075651,10.4757719 C4.91935782,10.1451678 4.58973079,9.19594049 4.5,9" id="Stroke-15" stroke="#FFFFFF" stroke-width="0.5" stroke-dasharray="7.683,1.681,0.96,1.681"></path>
                    <path d="M5.28791738,15.345099 C5.44434323,15.0591809 6,14.5 5.5,13.5" id="Stroke-17" stroke="#FFFFFF" stroke-width="0.5" stroke-dasharray="7.683,1.681,0.96,1.681"></path>
                    <path d="M3.5,22.5 C3,22 3,20.5 3,20" id="路径" stroke="#FFFFFF" stroke-width="0.5" stroke-dasharray="7.683,1.681,0.96,1.681"></path>
                    <path d="M9.5,24 C9,24.5 8,25 7.5,25" id="路径" stroke="#FFFFFF" stroke-width="0.5" stroke-dasharray="7.683,1.681,0.96,1.681"></path>
                    <path d="M16.5,14 C16.5,14 16.0370869,14.8396742 16.0206845,14.8923529 C16.0041615,14.9451527 15.5,16 15.5,16" id="路径" stroke="#FFFFFF" stroke-width="0.5" stroke-dasharray="7.683,1.681,0.96,1.681"></path>
                    <path d="M16.1919087,9.17110858 C16.1919087,9.17110858 16.4986733,10.1092089 16.5,10.5" id="Stroke-25" stroke="#FFFFFF" stroke-width="0.5" stroke-dasharray="7.683,1.681,0.96,1.681"></path>
                    <line x1="16.5" y1="6.5" x2="17.5" y2="5.5" id="路径" stroke="#FFFFFF" stroke-width="0.5" stroke-dasharray="7.683,1.681,0.96,1.681"></line>
                    <line x1="19.5" y1="2" x2="18.5" y2="3.5" id="Stroke-29" stroke="#FFFFFF" stroke-width="0.5" stroke-dasharray="7.683,1.681,0.96,1.681"></line>
                    <line x1="13.5" y1="19" x2="12" y2="20.5" id="Stroke-31" stroke="#FFFFFF" stroke-width="0.5" stroke-dasharray="7.683,1.681,0.96,1.681"></line>
                    <g id="形状结合" fill-rule="nonzero">
                        <use fill-opacity="0.189284" fill="#FFFFFF" xlink:href="#path-1"></use>
                        <use fill="black" fill-opacity="1" filter="url(#filter-2)" xlink:href="#path-1"></use>
                    </g>
                    <g id="Fill-1" fill-rule="nonzero">
                        <use fill-opacity="0.189284" fill="#FFFFFF" xlink:href="#path-3"></use>
                        <use fill="black" fill-opacity="1" filter="url(#filter-4)" xlink:href="#path-3"></use>
                    </g>
                    <path d="M8.05062457,24.5258918 L8.05062457,24.5258918 C8.05062457,24.5258918 7.75827594,24.9182568 8.05062457,24.9182568 M9.06980479,21.7418531 C9.36215326,21.7418531 9.80164081,21.3499726 9.50832749,21.3499726 L9.06980479,21.3499726 M8.35995465,18.6418518 C8.65278581,18.6418518 9.09227376,18.2499712 8.79896018,18.2499712 L8.35995465,18.2499712 M10.4814768,17.1119784 C10.4814768,17.1119784 10.1886456,17.5038589 10.4814768,17.5038589 C10.7743079,17.5038589 11.2133134,17.1119784 10.9204823,17.1119784 M10.5237892,15.034004 C10.5237892,15.034004 10.2319232,15.4258846 10.5237892,15.4258846 C10.8166201,15.4258846 11.2565901,15.034004 10.9632767,15.034004 M13.2532253,15.7190085 L13.2519369,15.7299784 L13.3765571,15.7307553 C13.6489197,15.7307553 13.2894279,16.0686524 13.0022253,16.1169234 L12.9375515,16.1226359 L12.9375515,15.7307553 L13.2439369,15.7299784 L13.2532253,15.7190085 Z M13.19443,15.2698835 L13.19443,16.629114 M11.35437,15.8701415 C11.6472011,15.8701415 12.0866891,15.4782609 11.7933755,15.4782609 L11.35437,15.4782609 M8.90072329,17.3295837 L8.90072329,17.3295837 C8.90072329,17.3295837 8.60789224,17.7214643 8.90072329,17.7214643 M8.43270406,22.2724066 L8.43270406,22.2724066 C8.43270406,22.2724066 8.14035543,22.6647716 8.43270406,22.6647716 M5.68801539,19.5822208 C5.98036386,19.5822208 6.41985141,19.1898558 6.12653809,19.1898558 L5.68801539,19.1898558 M14.6307538,16.0492131 L14.6307538,16.0492131 C14.6307538,16.0492131 14.3388875,16.4415781 14.6307538,16.4415781 M10.6421239,16.4549722 C10.6421239,16.4549722 10.3492925,16.8473372 10.6421239,16.8473372 C10.9349552,16.8473372 11.3744435,16.4549722 11.0816121,16.4549722 M10.2398267,18.7011062 C10.5326579,18.7011062 10.9721458,18.3092256 10.6788323,18.3092256 L10.2398267,18.3092256 M14.6974971,10.1158251 C14.6974971,10.1158251 14.404666,10.5086745 14.6974971,10.5086745 C14.9903283,10.5086745 15.4293338,10.1158251 15.1369851,10.1158251 M7.86703834,8.51287888 C8.1598695,8.51287888 8.59935745,8.12051389 8.30604387,8.12051389 L7.86703834,8.12051389 M8.66813883,8.49386651 L8.66813883,8.49386651 C8.66813883,8.49386651 8.3757902,8.8857471 8.66813883,8.8857471 M7.25420762,8.64877817 C7.25420762,8.64877817 6.96137648,9.04162756 7.25420762,9.04162756 C7.54655633,9.04162756 7.98604426,8.64877817 7.69321312,8.64877817 M6.66672423,9.63029713 C6.66672423,9.63029713 6.37389309,10.0226621 6.66672423,10.0226621 C6.95907294,10.0226621 7.39856086,9.63029713 7.10572972,9.63029713 M10.8634678,9.47659608 C11.1562989,9.47659608 11.5957869,9.08423109 11.3024733,9.08423109 L10.8634678,9.08423109 M10.1356312,9.56608968 L10.1356312,9.56608968 C10.1356312,9.56608968 9.84280015,9.95845467 10.1356312,9.95845467 M10.8845497,9.96536951 C11.1768982,9.96536951 11.6163857,9.57300452 11.3230724,9.57300452 L10.8845497,9.57300452 M12.8924211,2.85323874 C13.1857348,2.85323874 12.7457642,3.24511932 12.4534154,3.24511932 C12.4312678,3.24511932 12.4124758,3.24287024 12.3966583,3.23871284 L12.3984431,3.52214866 C12.2124031,3.52214866 12.2631413,3.36325705 12.3246421,3.24769952 L12.3466674,3.21096594 C12.2577108,3.11557202 12.4534154,2.85323874 12.4534154,2.85323874 L12.4534154,2.85323874 Z M7.3810087,9.28971429 C7.3810087,9.28971429 7.08865985,9.68207928 7.3810087,9.68207928 C7.67335754,9.68207928 8.11332808,9.28971429 7.82001439,9.28971429 M4.67393687,20.3382629 C4.96580292,20.3382629 5.4057729,19.9458979 5.11245958,19.9458979 L4.67393687,19.9458979 M10.4741639,19.8042225 L10.4741639,19.8042225 C10.4741639,19.8042225 10.1818153,20.1961031 10.4741639,20.1961031 M13.3527253,17.5723533 C13.6450738,17.5723533 14.0845614,17.1799884 13.7917305,17.1799884 L13.3527253,17.1799884 M7.12844782,20.4068541 C7.42127923,20.4068541 7.86124999,20.0144892 7.56793615,20.0144892 L7.12844782,20.0144892 M10.3478776,15.6078626 C10.3478776,15.6078626 10.0555288,16.0002276 10.3478776,16.0002276 C10.6407089,16.0002276 11.080197,15.6078626 10.7868833,15.6078626 M13.625584,15.0156573 L13.625584,15.0156573 C13.625584,15.0156573 13.3332354,15.4085067 13.625584,15.4085067 M12.5348645,15.9182309 L12.5348645,15.9182309 C12.5348645,15.9182309 12.2429982,16.3110803 12.5348645,16.3110803 M6.93918098,8.32933908 C7.23201214,8.32933908 7.67150009,7.93697409 7.37818651,7.93697409 L6.93918098,7.93697409 M13.6602326,3.63951439 C13.1006209,3.47869301 13.1257069,4.51385956 13.5806327,4.36127301 C13.8199149,4.28134672 14.2193619,3.79985138 13.6602326,3.63951439" id="形状结合" fill-opacity="0.189284" fill="#FFFFFF" fill-rule="nonzero"></path>
                </g>
                <path d="M17.8327607,7.301281 L17.844696,7.26967338 C17.844696,7.26967338 17.844696,7.64244262 18.2220547,7.56392527 C18.5994133,7.48553336 18.8774804,7.40701601 19.056129,7.44614926 C19.2349045,7.48553336 19.5923287,7.67191798 19.7512967,7.86808591 C19.9102647,8.06425384 20.1286553,8.28989713 20.3272384,8.28989713 C20.5258215,8.28989713 20.6978676,8.32652184 20.7077713,8.10087855 C20.7176751,7.87523525 20.8238231,7.87786922 21.0125024,7.9269112 C21.2011817,7.97582776 21.509087,7.89743584 21.5884441,8.30946376 C21.6679281,8.72149167 21.6382168,8.88830967 21.6382168,8.88830967 C21.6382168,8.88830967 21.5660971,9.3426065 21.854068,9.02878798 C22.1420388,8.71471861 21.9558989,8.7902257 22.3233538,8.72149167 C22.6908087,8.65288306 22.7503582,8.59405777 22.8695842,8.52532374 C22.9886833,8.45658971 23.0597872,8.4287449 23.1194637,8.32087762 C23.1790132,8.21301034 23.4057839,8.00542855 23.3163961,8.33893912 C23.2270084,8.67244969 23.1674588,8.682233 23.1178131,8.73127498 C23.0681673,8.78031696 22.879488,9.03543562 23.2469429,8.88830967 C23.6143977,8.74118372 23.4487002,8.82835553 23.577703,8.67144627 C23.7068328,8.51453701 23.6541397,8.41745646 23.8327883,8.44680639 C24.0115639,8.47628176 24.2389694,8.35286152 24.0999359,8.2253022 C23.9609023,8.0978683 23.6342052,7.9857365 23.4753642,7.93669452 C23.3163961,7.88765253 23.0978786,7.9857365 22.9886833,7.90734458 C22.879488,7.82882724 22.6045952,7.90884971 22.8330165,7.48703848 C23.0614378,7.06522726 23.007475,7.0496743 23.2061851,6.70638042 C23.4047681,6.36296111 23.2459271,6.20191276 23.4941559,6.01552814 C23.7423848,5.82914352 23.7779367,5.896247 23.8971627,5.77859641 C24.0162618,5.6608204 24.3209929,5.06968263 24.5791255,4.94212331 C24.837385,4.81468941 25.1634473,4.67985531 25.6202899,4.67985531 C26.0771326,4.67985531 25.9480028,4.77793928 26.2956501,4.58164592 C26.6431705,4.38547799 26.9708834,4.41495335 27.3085,4.37569468 C27.6462436,4.33656143 27.7156968,4.13048476 28.0632172,4.61112128 C28.4108646,5.09188322 28.6193514,5.45486915 28.99671,5.45486915 C29.3740687,5.45486915 29.5231329,5.46465247 29.5727787,5.46465247 C29.6224245,5.46465247 29.8309113,5.32730983 29.8408151,5.77859641 C29.8507188,6.22975757 30.1388166,6.1710577 30.1686549,6.18071559 C30.1983662,6.1904989 30.4754175,6.00010061 30.376126,5.78424063 C30.2768344,5.56838065 30.1717022,5.41561048 30.221348,5.21931712 C30.2709937,5.02314919 30.2579157,4.81719795 30.5161753,5.01336588 C30.7743079,5.20953381 30.7743079,5.34687645 30.7743079,5.44496042 C30.7743079,5.54316981 30.8735994,5.99433097 31.1417627,6.03358964 C31.4099261,6.07284831 31.6952305,5.95507229 31.6952305,5.73933774 C31.6952305,5.52347776 31.6869774,4.90700373 32.0543053,4.91678704 C32.4217602,4.92657035 32.6313897,4.95454059 32.8299728,4.92506523 C33.0286828,4.89571529 33.4456565,4.66028869 33.544948,4.92506523 C33.6442396,5.18996719 33.9323374,5.63134504 34.0415327,5.70986238 C34.150728,5.78837972 34.4092415,5.93977019 34.4788218,5.97902886 C34.5482751,6.01828754 34.6675011,6.16541349 34.468918,6.30275612 C34.270208,6.44009876 34.2603042,6.58722471 34.0219791,6.57731597 C33.783654,6.56765809 33.5846901,6.63200217 33.8726609,6.78903686 C34.1607587,6.94594612 34.110986,6.85764546 34.349438,6.96551274 C34.5876362,7.07350545 34.6504869,7.11840834 34.6504869,6.83381432 C34.6504869,6.54934574 34.5678286,6.37700895 34.8061537,6.39657557 C35.0444788,6.41614219 35.0942515,6.40635888 35.2431888,6.30827491 C35.3921261,6.21019095 35.6675268,6.07134319 35.4292018,5.88483314 C35.1908767,5.69844852 35.2650279,5.69029576 35.4934492,5.6019951 C35.7218705,5.51369445 35.9299765,5.45637428 36.0589793,5.29946502 C36.1881091,5.14243033 36.3155882,4.92506523 36.6433011,5.10166654 C36.9710139,5.27826784 37.3881146,5.3665685 37.4775024,5.30761778 C37.5668901,5.24879248 37.8648917,5.37635181 37.9442488,5.31752652 C38.0237328,5.2585758 38.0269071,5.348507 38.3546199,4.90700373 C38.6823328,4.46562588 38.4308027,4.34634474 38.3216074,4.4346454 C38.2124121,4.52282062 38.1926046,4.77793928 37.8449572,4.88580655 C37.4974368,4.99379926 37.4775024,5.05262455 37.209466,5.04284124 C36.9413027,5.03305793 36.8121729,4.99379926 36.8121729,4.99379926 C36.8121729,4.99379926 36.7265942,4.93622823 36.7348474,4.88605741 C36.7396723,4.85582949 36.7637968,4.82823553 36.9015607,4.81719795 C37.2690155,4.78772259 37.2461607,4.92506523 37.5341315,4.78772259 C37.8221024,4.65050538 37.9549143,4.60133797 38.1833357,4.24826078 C38.411757,3.89505816 38.6071658,3.53282479 38.6469078,3.31709024 C38.6866498,3.10123025 38.6258306,2.83005694 39.1024807,2.8595323 C39.5792579,2.88888223 39.7515579,2.83557573 39.9502679,2.97291837 C40.148851,3.110261 40.8837607,3.84601617 41.4398949,3.84601617 C41.9960291,3.84601617 42.0430085,4.18027931 42.6288539,3.63090876 C43.2146994,3.08153821 42.8839392,2.24029887 43.1917176,2.22073225 C43.4996229,2.20116563 43.8828222,3.3359043 44.1112435,3.5713309 C44.3395379,3.8067575 44.3594724,3.91462478 44.4190219,3.99314212 C44.4785714,4.07165947 44.7712402,4.45421202 44.7215945,3.90484147 C44.6718217,3.35547092 44.5519608,3.35860659 44.4625731,3.24083058 C44.3731853,3.12305456 44.2314853,3.09069438 44.3208731,2.79631706 C44.4102609,2.50206516 44.2714813,2.32546385 44.2120587,2.51184847 C44.1850139,2.59626089 44.1120054,2.72532534 44.0274425,2.75831266 C43.9253576,2.79782218 43.8093059,2.72231509 43.77769,2.58359275 C43.7200451,2.32972837 43.6089452,2.14698113 44.011952,2.19790452 C44.4148319,2.24895334 44.3891837,2.30589723 44.9553486,2.62962449 C45.5213865,2.95335174 46.7031082,3.7381489 46.7031082,3.7381489 C46.7031082,3.7381489 47.3088881,4.03240079 47.8551185,3.98335881 C48.401222,3.93431683 48.3218649,3.99314212 48.4608985,3.90484147 C48.5998051,3.81654081 48.8481609,3.72824016 48.7587731,4.01283417 C48.6693853,4.29730276 48.5799975,4.41495335 48.5899013,4.78772259 C48.5998051,5.16049183 48.5521908,5.45675056 48.8402887,5.14293204 C49.1281325,4.82898809 49.028841,4.83839512 49.0885175,4.71096122 C49.1479401,4.5834019 49.324811,4.15996012 49.4539408,4.29730276 C49.5829436,4.4346454 49.6277645,4.45534086 49.6376683,4.53385821 C49.647572,4.61237555 49.5086654,4.96545274 49.5086654,5.04397008 C49.5086654,5.12248743 49.7518154,5.58242848 49.7617192,6.0042397 C49.771623,6.4259255 49.7281988,6.58296019 49.8474248,6.84786215 C49.9666508,7.11263869 50.0745764,7.60757389 50.1739949,7.12681195 C50.2732865,6.64617543 50.4675525,7.07902424 50.4378412,7.00050689 C50.407876,6.92198955 50.6562318,7.39484959 50.7355889,7.05155571 C50.8150729,6.7081364 50.8219293,6.56565125 50.5438622,6.05553937 C50.2657952,5.5454275 50.1083508,5.29369537 50.1479658,4.99944348 C50.1877078,4.70506615 50.1366654,4.1417732 50.0373738,3.96517189 C49.9380823,3.78869601 49.8212687,3.59089752 49.6028781,3.66941487 C49.3843606,3.74793221 49.0101762,3.88527485 49.099564,3.47324693 C49.1890787,3.06121902 49.293957,2.62962449 49.2642457,2.44311444 C49.2344075,2.25685524 49.2129493,2.04413094 49.4910164,1.82827096 C49.7690835,1.61241098 49.8312995,1.35428207 50.0696245,1.45236604 C50.3079496,1.55045001 50.4867252,1.63875066 50.7051158,1.64853397 C50.9236333,1.65831728 51.0600005,1.70485072 51.2089378,1.43994876 C51.358129,1.17517222 51.3605415,1.13854752 51.4400255,1.08950554 C51.5195095,1.04046355 51.6689547,1.06416927 51.6789854,0.681616718 C51.6888892,0.298938738 51.7254569,0.404297474 51.8643635,0.247262787 C52.003524,0.0903535271 52.1351932,-0.176053562 52.184839,0.167365746 C52.2344848,0.510659626 52.1748083,0.628310215 52.3436801,0.814820262 C52.5125518,1.00120488 52.5125518,1.38375744 52.5920359,1.57992537 C52.6713929,1.7760933 52.9395562,2.59036581 53.1678506,2.77675043 C53.3963989,2.96313505 53.9823713,3.12982763 54.1212779,3.53207223 C54.2603114,3.93431683 54.6475738,4.11091814 54.9554792,4.14026807 C55.2633845,4.16974343 55.5017096,4.22856873 55.6704544,4.34634474 C55.8393262,4.46399533 56.1967503,4.63081333 56.3755259,4.60133797 C56.5543014,4.57198803 56.8622068,4.54251267 57.0607899,4.41495335 C57.2593729,4.28739402 57.7234529,4.35926373 57.8525827,4.22192109 C57.9817125,4.08457845 57.9644444,3.72824016 58.2425115,4.14026807 C58.5205786,4.55229598 58.7463335,5.01186076 58.766268,5.20802869 C58.7862025,5.40419662 58.7887419,5.79816303 58.9973557,6.24944962 C59.2058426,6.7007362 59.3876654,7.45442745 59.5763447,8.15104937 C59.7650241,8.84754587 59.871172,9.13351958 59.8810758,9.57489743 C59.8909796,10.0164007 59.8114955,10.9973658 59.8810758,11.3015264 C59.9506561,11.6055616 60.0995934,12.4100508 60.2683382,12.5376102 C60.43721,12.6650441 60.6953426,12.5571768 60.7350846,12.978988 C60.7748266,13.4007992 60.6855658,13.45975 60.8444069,13.6068759 C61.0032479,13.7540019 61.122474,14.0679458 60.7748266,13.9894285 C60.4273062,13.9109111 60.476952,13.8716524 60.2089156,13.7932605 C59.9406253,13.7147432 59.6030087,13.6362258 59.3946489,14.0285617 C59.1859081,14.421023 58.7887419,14.9507015 58.5702244,15.0684775 C58.3517068,15.1862535 58.2128002,15.0684775 57.577182,15.8335826 C56.9415638,16.5988131 57.0906281,16.5497712 56.8521761,16.6871138 C56.613851,16.8244564 56.3489889,17.1367698 56.1502789,16.6070913 C55.9516958,16.0772874 56.1570083,16.3536032 55.9981673,16.1573099 C55.8393262,15.9611419 55.6056991,15.5785894 55.6652486,15.2941208 C55.7247981,15.0096522 55.5017096,14.8330509 56.1670391,14.8232676 C56.8323685,14.8133589 56.8224648,14.8820929 56.9316601,14.7644423 C57.0408554,14.6466663 57.1631287,14.5976243 57.1731594,14.1660298 C57.1831902,13.7343098 57.2186152,13.9248335 57.3676794,13.7679243 C57.5166167,13.6108896 57.3090187,13.5774005 57.1998234,13.6264425 C57.0906281,13.6754845 57.0111441,13.7049599 56.9316601,13.9796451 C56.8521761,14.2543304 56.9316601,14.440715 56.5443977,14.322939 C56.1570083,14.2052884 55.9882635,14.1463377 55.7101964,14.1660298 C55.4321293,14.1855964 55.1042895,14.3817643 54.9653829,14.3131557 C54.8263494,14.2444217 54.5979281,14.1267711 54.4588945,14.156121 C54.3199879,14.1855964 54.1113741,14.3033724 54.2901497,14.4014564 C54.4690522,14.4995403 54.7667999,14.6171909 54.9454484,15.0194355 C55.124351,15.4216801 55.4123218,15.5393307 55.6506469,16.0592259 C55.888972,16.5792465 55.9981673,16.5007292 55.7002927,16.5595545 C55.402418,16.6185052 55.2335463,16.6282885 55.203708,17.059883 C55.1738698,17.4914776 55.2930958,17.8544635 54.9853174,18.0898901 C54.6774121,18.3253167 54.1908582,18.6294773 54.2702152,18.8551206 C54.3496992,19.0807639 54.5284748,19.2573652 54.2306002,19.3847991 C53.9325986,19.5123585 53.6446277,19.5123585 53.5453362,19.7282184 C53.4460447,19.943953 53.3566569,19.9832117 53.0587823,19.9636451 C52.7607807,19.943953 52.5920359,19.8851277 52.3436801,20.1402464 C52.0954512,20.3952396 51.8074804,20.6404495 51.8272879,20.9740855 C51.8472224,21.3075961 51.9067719,21.5822813 52.0060634,21.7294073 C52.105355,21.8765332 52.1152587,22.4552537 51.6088973,22.5142044 C51.1024089,22.5730297 50.814438,22.6023797 50.8540531,22.8869737 C50.8937951,23.1714423 51.0328286,23.3773935 50.9533446,23.5932535 C50.8739876,23.8091135 50.4469832,24.7410366 50.3874336,24.9763378 C50.3277571,25.2118898 50.3376609,25.4570997 50.0994628,25.584659 C49.8610107,25.7122184 49.7120734,26.1143375 49.7320079,26.2418969 C49.7518154,26.3694562 49.811365,26.5950995 49.3843606,26.5851907 C48.9573562,26.575282 49.0467439,26.5656241 49.0467439,26.5656241 C49.0467439,26.5656241 48.6891928,26.5263654 48.7686769,26.810834 C48.8481609,27.095428 48.9871944,26.9483021 48.9672599,27.3994633 C48.9474524,27.8507498 48.8979336,27.9978758 48.9176142,28.0763931 C48.9375487,28.154785 48.9375487,28.3118197 48.9375487,28.3118197 C48.9375487,28.3118197 48.9408499,28.8668345 49.099564,28.3469393 C49.2584051,27.8269187 49.1549235,27.6545819 49.1649542,27.5858479 C49.174858,27.5172393 49.139306,27.4459967 49.4073424,27.2397946 C49.6755057,27.0339688 49.6028781,26.7912674 49.4737483,27.5760646 C49.3446186,28.3608617 49.2255195,28.7924563 49.245327,28.9297989 C49.2652615,29.0671415 49.4539408,29.3025681 48.8979336,29.5772534 C48.3416725,29.8519387 48.1429624,30.0677987 48.0537016,30.7054699 C47.9643138,31.3430156 47.7657308,32.5693161 47.8452148,32.9028266 C47.9245718,33.2363372 47.7358925,33.4129385 47.4381449,33.5699732 C47.1400163,33.7268825 46.6732699,34.3645537 46.6534624,34.6195469 C46.6336549,34.8745401 46.6137204,35.1098413 46.2561693,35.1296588 C45.8987451,35.1493508 45.8788107,35.1689175 45.8689069,35.4043441 C45.8590031,35.6397707 46.0775207,35.9242392 46.3455571,35.9242392 C46.6137204,35.9242392 46.8721069,35.8654139 47.0407248,36.0223232 C47.2095966,36.1793579 47.5770514,36.2872252 47.7259888,35.9732812 C47.8749261,35.6593373 47.4876637,35.7378546 47.5770514,35.3847774 C47.6664392,35.0315748 47.6652965,34.7610286 47.5064554,34.6432526 C47.3476144,34.525602 47.5022654,34.2131632 47.5717187,34.1543379 C47.6412989,34.095638 47.9245718,33.6483651 47.9742176,34.1977357 C48.0238634,34.7471062 48.0436709,34.8745401 48.1429624,35.2080507 C48.2423809,35.5416867 48.401222,36.0517986 48.520448,36.1497571 C48.6395471,36.2479665 48.7190311,36.6109524 48.3713837,36.4540432 C48.0238634,36.2970085 47.9841214,36.5619104 47.9841214,36.5619104 C47.9841214,36.5619104 47.9146681,36.7580784 47.6664392,36.679561 C47.4180834,36.6011691 47.4479217,37.0229803 47.1499201,36.8758544 C46.8520455,36.728603 46.7626577,36.8658202 46.6833006,36.9641551 C46.6038166,37.062239 46.3554608,37.6606516 46.3157188,37.7685188 C46.2761038,37.8763861 45.9881329,37.9549034 45.8291649,38.1315048 C45.6703238,38.3081061 45.7298734,38.6611833 45.7895498,38.8377846 C45.8490994,39.0143859 45.5710323,39.5931064 45.4419025,39.681407 C45.3127727,39.7697077 45.0645439,39.6225817 45.0645439,39.5637564 C45.0645439,39.5046803 44.5084097,39.4754558 44.4290526,39.5244978 C44.3495686,39.5734143 44.0218558,39.799183 43.8828222,39.6520571 C43.7437887,39.5046803 43.6842392,39.5538477 43.6047551,39.5538477 C43.5252711,39.5538477 43.3464956,39.4852391 43.5848206,39.3871551 C43.8232727,39.2890712 43.7536924,39.4067217 43.9623062,39.2890712 C44.1707931,39.1712951 44.2898921,39.2204625 44.5084097,39.1615118 C44.7269273,39.1025611 44.7170235,39.0829945 44.9553486,39.0241692 C45.1936737,38.9653439 45.4319987,38.9260852 45.422095,38.7592672 C45.4120643,38.5925747 45.3226765,38.504274 45.1042859,38.6318333 C44.8857683,38.7592672 44.9057028,38.8377846 44.5481517,38.8966099 C44.1906006,38.9554352 43.8033382,38.9554352 43.6246896,39.0437358 C43.4457871,39.1321619 43.1380087,39.3675885 43.1180742,39.5440644 C43.0982667,39.7206657 43.048621,39.8775749 42.6115858,39.7599244 C42.1746777,39.6421483 42.0953206,39.5538477 41.8172535,39.7108824 C41.5391864,39.8677916 41.0227943,40.3190782 40.913599,40.3681202 C40.8042767,40.4171622 40.6652432,40.7114141 40.3871761,40.7311061 C40.109109,40.7506728 39.8410726,41.2019593 39.7813961,41.2606592 C39.7218466,41.3197354 39.7714924,41.5354699 39.1459049,41.8689805 C38.5201905,42.2026165 38.7088698,42.3790924 38.5201905,42.536127 C38.3315111,42.6930363 38.2422503,42.7617703 38.0336365,42.781337 C37.8251497,42.8009036 37.5767939,42.9971969 37.3683071,43.7525187 C37.1598202,44.5078405 36.8618186,44.5470992 36.8798486,45.5226709 L36.8349007,46.0862147 C36.8349007,46.0862147 36.6203193,46.5357453 36.537534,46.0875944 L36.5212817,46.0873436 C36.5212817,46.0873436 36.511124,46.0942421 36.511124,46.0913572 C36.5115049,46.0458272 36.5577224,45.6655324 36.480143,45.6122258 C36.3974847,45.5554074 35.9200727,45.5823742 35.9308653,45.8633308 C35.9417848,46.1442875 35.905344,46.1366364 36.0145393,46.1464197 C36.1238616,46.1563285 36.1436691,46.1268531 36.1535729,46.3328043 C36.1634766,46.5390064 36.1834111,46.5780143 36.3521559,46.5682309 C36.5210277,46.5584476 36.511124,46.5193144 36.471382,46.7154823 C36.43164,46.9116503 36.3224447,47.1766776 36.0641851,47.1470769 C35.8060525,47.1176015 35.5677274,47.0784683 35.4783396,47.1568602 C35.3889519,47.2353775 35.1108848,47.4118534 34.9619475,47.2746362 C34.8130102,47.1372935 34.4753935,47.1568602 34.375975,47.0293008 C34.2766835,46.9018669 34.2416394,46.8821749 34.1721861,46.7055736 C34.1027329,46.5289723 34.0284547,46.4505804 34.296618,46.5584476 C34.5646544,46.6663149 34.8229139,46.8331329 34.9917857,46.7642735 C35.1605305,46.6957903 35.8306849,46.0778111 35.7810392,45.9012098 C35.7313934,45.7246085 35.6272769,45.4401399 35.6272769,45.4401399 C35.6272769,45.4401399 35.5180816,45.077154 35.3988556,45.5284406 C35.2797566,45.9798526 35.2797566,45.8913011 35.0513352,45.8816432 C34.8229139,45.8717344 34.7137186,45.6167412 34.5944926,45.9012098 C34.4753935,46.1856784 34.5349431,46.2445037 33.9291631,46.2837624 C33.3233832,46.323021 32.5785697,46.4015384 32.3617027,46.4602382 C32.3632264,46.4599874 31.936222,46.5287214 31.4595718,46.8328821 C30.9829217,47.1369173 30.8636957,47.1467006 30.7246621,47.2154346 C30.5856286,47.2840432 30.3870455,47.3330852 30.3075615,47.1369173 C30.2282044,46.9407493 30.1884624,46.646372 29.7514273,46.7053227 C29.3145191,46.7640226 29.2351621,46.862232 29.0761941,46.8426654 C28.917353,46.8230987 28.758385,46.5189381 28.7484812,47.0192667 C28.7385774,47.5194698 28.5797364,47.8334138 28.4704141,48.1375744 C28.3612188,48.4416096 28.1725395,48.8635463 28.0632172,49.0891896 C27.9540219,49.3147074 27.7455351,49.6776933 28.0335059,49.815036 C28.3214768,49.9522532 28.6392859,50.2074973 28.3016693,50.1878052 C27.9639257,50.1681132 27.8547304,50.2661971 27.7554389,50.0798125 C27.6561473,49.8935533 27.4872755,49.5796094 27.2191122,49.6874767 C26.9510758,49.7953439 26.7226545,50.0504626 26.8517843,50.2466305 C26.9807871,50.4429239 27.047701,50.5524217 27.127185,50.395387 C27.206669,50.2383523 27.1867345,50.1321156 27.3059605,50.0340316 C27.4251866,49.9359477 27.4773718,49.8935533 27.4973063,50.0603713 C27.5171138,50.2270639 27.5965978,50.5115325 27.8248921,50.4820571 C28.0533135,50.4527072 28.2122815,50.3937565 28.3511881,50.5507912 C28.4903486,50.7077004 28.5002524,50.9038683 28.4704141,50.943127 C28.4407028,50.9823857 28.152605,51.139295 28.1625088,51.374847 C28.1725395,51.6101482 28.0632172,51.6200569 27.9241837,51.5513229 C27.7851501,51.4827143 27.427726,51.4728055 27.5369213,51.6985742 C27.6462436,51.9240921 27.6858586,52.0615602 27.6263091,52.1104767 C27.5667595,52.1595187 27.3681765,52.2282527 27.2390467,51.9338754 C27.1099169,51.6397489 27.0634454,51.6747431 27.2222865,51.4883585 C27.3811275,51.3019739 27.2489504,51.0705609 26.7325583,51.1295116 C26.2161661,51.1883369 25.7494197,51.2472877 25.5310291,51.3845049 C25.3125115,51.5219729 25.2320118,51.5710149 25.2320118,51.6886655 C25.2320118,51.8064415 25.2419155,51.9830428 25.1228165,52.0221761 C25.0035904,52.0615602 24.8855071,52.1694274 25.1436397,52.2380361 C25.4018993,52.3067701 25.4674165,52.4299395 25.4674165,52.5084568 C25.4674165,52.5869742 25.4515451,52.6304973 25.2429313,52.601022 C25.0344445,52.5715466 24.7464736,52.5813299 24.7464736,52.5813299 C24.7464736,52.5813299 24.5040854,52.5802011 24.4047939,52.8449776 C24.3055024,53.1097542 24.077081,52.9779303 24.0175315,52.8701885 C23.957982,52.7623212 23.957982,52.8210211 24.0671773,52.4483772 C24.1763726,52.0754826 24.0414021,52.1476031 24.1332023,52.0872727 C24.2250026,52.0266914 24.1589775,51.92936 24.0059771,51.8083229 C23.8528498,51.6872858 23.6401729,51.4924976 23.6302691,51.4139802 C23.6203654,51.3355883 23.5110431,51.1197283 23.4216553,51.1883369 C23.3323945,51.257071 23.2131685,51.325805 23.3819133,51.4924976 C23.5507851,51.6591901 23.4997427,52.0615602 23.2713213,51.8750501 C23.043027,51.6886655 23.0585175,51.6004903 23.0585175,51.6004903 C23.0585175,51.6004903 22.800004,51.374847 22.6710012,51.5513229 C22.5418714,51.7279242 22.6669381,51.7057236 22.547839,51.7155069 C22.428613,51.7252902 22.388871,51.9116748 22.3293215,52.0294508 C22.2697719,52.1471014 22.0154485,52.4734627 21.7970579,52.1595187 C21.5785403,51.8457002 21.7703939,51.7646743 22.0286535,51.5094302 C22.1819078,51.3580398 22.2681213,50.9907893 22.145594,50.655899 C22.0619199,50.4267438 21.8690506,50.2192874 21.5785403,50.0798125 C20.8635651,49.7366441 20.9430491,49.6483434 19.5527136,49.6874767 C18.1623782,49.7268608 18.490091,49.4814 18.1226362,49.3735327 C17.7551813,49.2656654 17.7056625,49.2852321 17.4871449,49.3049241 C17.2686274,49.3246162 16.7919772,49.2460988 16.7919772,49.2460988 C16.7919772,49.2460988 16.6032979,49.0891896 16.1762935,49.3343995 C15.7492891,49.5796094 15.7989349,49.4324834 15.5307715,49.4127914 C15.2626082,49.3932248 15.0541214,49.4227001 14.8058925,49.550134 C14.5575367,49.6776933 14.3788881,49.864078 14.0312408,49.7070433 C13.6837204,49.550134 13.3036954,49.4462804 13.3236299,48.9952447 C13.3434374,48.5438327 13.2468123,48.539819 13.1871358,48.4613017 C13.1275862,48.3827843 12.9420812,48.239672 12.9816962,48.0435041 C13.0214383,47.8473362 12.7403239,47.8628891 12.6608398,47.8334138 C12.5813558,47.8039384 12.3133195,47.8039384 12.2039972,47.7157632 C12.0948019,47.6274625 11.9160263,47.6077705 11.5982172,47.5782951 C11.2805351,47.5489452 10.8931458,47.5685118 10.4959796,47.6274625 C10.0988135,47.6862878 9.9894912,47.8236305 9.81071564,47.8334138 C9.63194009,47.8433225 9.4705596,47.9831737 9.34142981,47.6692297 C9.21230003,47.3552858 9.16532066,47.5979872 9.01625638,47.3625606 C8.86731907,47.127134 8.54950998,46.5875467 8.31118489,46.5189381 C8.07285981,46.4502041 7.31814256,46.2932948 6.98052594,46.2245608 C6.64290932,46.1559522 6.40458424,45.9694421 6.25551996,45.9402176 C6.10658266,45.9107423 5.86571815,45.885406 5.85568742,45.55177 C5.84578366,45.2182594 5.22273562,44.9689104 5.21283186,44.8905185 C5.2029281,44.8120012 3.97156068,44.3313646 3.4154265,44.3018893 C2.85929232,44.2724139 2.3727384,44.2528473 2.26341613,44.2332807 C2.15422084,44.2134632 1.81393782,44.4980572 1.62525851,43.5268754 C1.43657919,42.5556937 1.33157395,42.2236882 1.5103495,42.0962543 C1.68899809,41.968695 1.96706518,41.0997363 2.07626047,40.825051 C2.18558274,40.5503657 2.11346306,39.8440859 2.13339755,39.6086593 C2.15320507,39.3731073 1.93887755,39.4124914 1.98852332,38.8533375 C2.03816909,38.2940582 1.97442951,37.8216999 1.7260737,37.3410634 C1.47784486,36.8603014 1.43238914,36.3657425 1.24370983,36.0812739 C1.05503051,35.7966799 0.898728876,35.5793148 0.52149722,35.5401816 C0.144011622,35.5009229 -0.0398427831,35.052772 0.228193577,34.5622267 C0.496229937,34.0718069 0.667768128,34.0030729 0.90609321,33.4243524 C1.14441829,32.8455065 1.14124401,32.4709813 1.05185623,32.3241062 C0.962595427,32.1768548 0.772900343,31.8294218 0.812515381,31.3487853 C0.85225739,30.8680233 0.61812236,30.1657572 0.518830823,29.8420299 C0.419412316,29.5184281 0.26641193,28.8456373 0.176897182,28.6396861 C0.0876363762,28.4336094 -0.254297265,28.2823444 0.351482684,27.9586171 C0.957262633,27.6348899 1.19469892,27.2542187 1.29411742,26.9795334 C1.39340896,26.7048482 1.41905716,26.4635265 1.56799446,26.3066172 C1.71705874,26.149708 1.52050721,25.6377147 1.36166614,25.5198132 C1.20282508,25.4021626 0.86330389,25.1432812 0.714239615,25.2216731 C0.56530231,25.3001904 0.21955953,25.5713638 0.418269574,25.0907272 C0.616852647,24.6099653 0.742300266,24.3868305 0.672846979,24.1808793 C0.603266721,23.9749281 0.348562345,23.1547605 0.993957332,23.1448517 C1.49828723,23.1373261 1.5589795,23.1063456 1.46197345,23.0258215 C1.43492857,23.0032446 1.38236246,22.9214661 1.33690674,22.8904856 C1.24739199,22.8296535 1.16194033,22.750509 1.13070539,22.6035085 C1.10658085,22.4893699 1.15597268,22.3732244 1.18454121,22.3101346 C1.20739604,22.2595875 1.14556103,22.1958706 1.23228241,22.2266002 C1.38591766,22.2806592 1.55618613,22.9619791 1.6389714,22.7903948 C1.6690636,22.7280576 1.64290751,22.637123 1.60887921,22.464159 C1.58488164,22.3423694 1.49498598,22.3401117 1.5147935,22.221834 C1.55529733,21.979258 1.77635432,21.5791457 1.8520292,21.4914721 C1.8776774,21.4617459 1.88237534,21.4326469 1.86637696,21.4051783 C1.85037858,21.3775844 1.7234073,21.2562964 1.73648534,21.2305838 C1.75299161,21.1974711 1.87869317,21.2583032 1.88935876,21.226821 C1.9638909,21.0060694 1.91335633,20.8349869 2.13428635,20.8955682 C2.43660495,20.97835 2.74997005,21.1604701 3.15716693,20.9543934 C3.56436381,20.7484422 4.21179033,20.4480444 4.33101636,20.3009184 C4.45011542,20.1537925 4.81757028,19.8143868 4.90695806,19.6770442 C4.99621887,19.5397016 5.15924998,19.3337503 5.46702835,19.206191 C5.77493369,19.0786317 6.46197526,18.857002 6.59110504,18.739226 C6.72023483,18.62145 6.97379646,18.3620668 7.4404159,18.1069482 C7.9071623,17.851955 7.72711703,17.8465616 7.84634306,17.7582609 C7.96556909,17.6699603 8.07882746,17.5994703 8.11856947,17.7956382 C8.15831148,17.9918061 8.0477195,18.0101185 8.18675305,18.0886358 C8.32578659,18.1671532 8.36603648,18.178567 8.40577849,17.9234484 C8.4455205,17.6684552 8.17596049,17.6268134 8.38457429,17.4894707 C8.59306112,17.3521281 8.61883629,17.3326869 8.49961026,17.2346029 C8.38051121,17.136519 8.30458239,17.0753106 8.52309995,16.9771012 C8.74161751,16.8790172 8.79672305,16.955026 9.06488638,16.6509908 C9.33304971,16.3468302 9.7543404,15.8254299 9.80398616,15.7469125 C9.85363193,15.6683952 10.5555291,15.1665615 11.0321793,15.0782608 C11.5088295,14.9900856 11.4890219,14.9311349 11.8861881,14.7447502 C12.2834812,14.5583656 12.9587144,14.2149463 13.2367815,14.0972957 C13.5148486,13.9796451 13.9220455,13.8716524 14.2497584,13.6754845 C14.5774712,13.4793166 14.9108978,13.24389 15.0697388,12.9004707 C15.2287069,12.5571768 15.1572221,12.2865052 15.1771565,12.1589458 C15.1969641,12.0313865 15.0640251,11.8704636 15.351996,11.9292889 C15.6400938,11.9881142 15.6102556,11.8900302 15.8982264,11.8214216 C16.1861973,11.752813 16.275585,11.7821629 16.4741681,11.7821629 C16.6728782,11.7821629 16.9508183,11.9489809 17.1792396,12.2236662 C17.4076609,12.4983515 17.5755169,12.729639 17.5953245,12.3862197 C17.615259,12.0429258 17.6659205,11.9391976 17.4076609,11.7723796 C17.1495283,11.6055616 16.9112032,11.4781277 16.8317192,11.4683444 C16.7522352,11.4584357 16.5443832,11.2874786 16.8919036,11.2187446 C17.239551,11.150136 17.230536,11.2302839 17.3298275,11.1222911 C17.4291191,11.0144239 17.5101267,10.805337 17.420739,10.5208684 C17.3313512,10.2363998 17.1083896,9.77846556 16.889999,10.1020674 C16.6714815,10.4256692 16.7013197,10.337494 16.6615777,10.5336619 C16.6218357,10.7299553 16.5139101,10.8306732 16.3847803,10.8207645 C16.2557775,10.8109812 15.8982264,10.7325893 15.7492891,10.9287572 C15.6002248,11.1249251 15.510964,11.2230091 15.4215763,11.2427011 C15.3321885,11.2622678 15.1978529,11.2327924 15.2474986,11.4781277 C15.2971444,11.7233376 15.0687231,11.801855 14.9693046,11.733121 C14.870013,11.6645124 14.6586059,11.5005792 14.4400883,11.7066558 C14.2215707,11.9127325 14.1918595,11.9911244 14.1918595,11.9911244 C14.1918595,11.9911244 13.9335999,12.1872924 14.092441,11.8439985 C14.251409,11.5005792 14.3124822,11.3293712 14.1337066,10.9370354 C13.9549311,10.5445741 13.7506343,10.2141992 14.0485089,9.97877258 C14.3463835,9.74334598 15.1027514,9.18820578 15.1225589,9.03129652 C15.1424934,8.87426184 15.0528517,8.50989621 15.6088589,8.29416165 C16.1649931,8.07830167 16.1694371,8.06475555 16.2786324,7.93732165 C16.3878276,7.80976232 16.435061,7.50096089 16.4449647,7.40287692 C16.4548685,7.30479296 16.275585,7.10285538 16.6032979,7.14211405 C16.9310108,7.18137272 16.8515267,7.25989007 16.9310108,7.25989007 C17.0104948,7.25989007 17.115754,7.31608139 17.1852072,7.11013015 C17.2547875,6.90405348 17.2222829,6.71478404 17.5499957,6.73435066 C17.8777086,6.75404271 17.8547268,6.83782799 17.9042456,6.85764546 C17.9293859,6.86767963 17.9085626,6.93653909 17.8940879,7.04428094 C17.8798671,7.15214822 17.8401251,7.30868119 17.8327607,7.301281" id="Fill-1" fill-opacity="0.189284" fill="#FFFFFF" fill-rule="nonzero"></path>
            </g>
        </g>
    </g>
</svg>