<?xml version="1.0" encoding="UTF-8"?>
<svg width="120px" height="120px" viewBox="0 0 120 120" version="1.1" xmlns="http://www.w3.org/2000/svg" xmlns:xlink="http://www.w3.org/1999/xlink">
    <title>jdo_cn_ximalaya_radio_province_shandong</title>
    <g id="jdo_cn_ximalaya_radio_province_shandong" stroke="none" stroke-width="1" fill="none" fill-rule="evenodd">
        <g id="编组">
            <rect id="矩形" x="0" y="0" width="120" height="120"></rect>
            <g id="山东" transform="translate(18.000000, 35.000000)" fill="#FFFFFF" fill-opacity="0.189284" fill-rule="nonzero">
                <path d="M34.4539058,0.384144832 C34.4539058,0.519782526 34.5368673,0.40503002 34.5368673,0.285056217 C34.5368673,0.165082414 34.6769441,0.264171029 34.7079825,0.326710564 C34.7392517,0.389366129 34.801444,0.394471397 34.8532517,0.457126961 C34.9051747,0.519782526 34.7443287,0.639756329 34.6561749,0.670968082 C34.5680211,0.702295864 34.5834826,0.733623647 34.6250211,0.785836617 C34.6665595,0.837933558 34.5368673,1.00489903 34.4330212,1.13009413 C34.3292905,1.25528923 34.422752,1.27617442 34.5005212,1.25006794 C34.5782903,1.22396145 34.7235595,1.02578422 34.7910594,0.94224347 C34.8585593,0.858818747 34.9673669,0.931916905 34.9673669,1.01534163 C34.9673669,1.09876635 34.9933285,1.13009413 35.0452515,1.13009413 C35.0792899,1.13009413 35.102713,1.16084177 35.155213,1.11419819 L35.1541745,1.12243623 C35.1541745,1.12243623 35.2222514,1.11825919 35.2390975,1.14390156 C35.2559436,1.16942791 35.2892898,1.21792795 35.2032129,1.23672462 C35.0511361,1.26990887 34.9097901,1.31225939 34.7650979,1.39614823 C34.6302134,1.47435165 34.6665595,1.53700722 34.8274055,1.5631137 C34.9881362,1.58910416 35.0556361,1.5735563 35.1074438,1.51612203 C35.1593668,1.45880379 35.397982,1.28139572 35.5484434,1.24484664 C35.6989048,1.20829756 35.8130201,1.30216488 35.7819817,1.41181212 C35.7507125,1.52134333 35.5899818,1.50567943 35.4550973,1.49523684 C35.3202128,1.48479425 35.4395204,1.59954675 35.4031743,1.65175972 C35.3669436,1.70397269 35.1489822,1.80306131 35.0244823,1.86037955 C34.8999824,1.91781381 34.9726746,1.96480549 35.0452515,1.97002678 C35.1178284,1.97524808 35.2216744,1.86560084 35.3202128,1.80306131 C35.4187512,1.74040574 35.6469818,1.8239465 35.7248663,1.87093817 C35.8026355,1.91781381 35.9064816,1.92825641 35.9894431,2.02212373 C36.0724045,2.11599104 36.2332505,1.97524808 36.3006351,1.90737122 C36.3681351,1.83961039 36.3940966,1.95958419 36.3421735,2.03778762 C36.2903659,2.11599104 36.2799813,2.1838679 36.2592121,2.38738246 C36.2384429,2.59078099 36.3265966,2.65332052 36.4303273,2.65332052 C36.5341734,2.65332052 36.492635,2.72641868 36.3992889,2.78385295 C36.3058274,2.84117119 36.274789,2.83072859 36.2280582,2.77863165 C36.1813275,2.72641868 36.1295199,2.77863165 36.0827891,2.84117119 C36.0360584,2.90382675 35.8959816,2.97158758 35.6989048,3.12811047 C35.5018281,3.28463335 35.6262126,3.27941205 35.6989048,3.25852686 C35.7714817,3.23764168 35.8597508,3.14899565 36.0100969,3.10200398 C36.1605583,3.05501231 36.2124813,3.09678268 36.2488275,3.13333176 C36.2850582,3.16988084 36.3681351,3.22719908 36.4510965,3.21675649 C36.5341734,3.20631389 36.5082119,3.47236798 36.4303273,3.75408597 C36.3525581,4.03580395 36.1970198,3.92105144 36.113943,3.94715793 C36.0309815,3.97326441 36.1087506,4.11400737 36.1191353,4.21321202 C36.1295199,4.31230063 36.0931737,4.59923991 36.0516353,4.63567296 C36.0100969,4.67222204 36.0100969,4.69832853 36.056943,4.72443501 C36.1035583,4.7505415 36.098366,4.76608936 36.0827891,4.89140049 C36.0672122,5.01659559 35.6573664,5.18878236 35.5120973,5.23043671 C35.3669436,5.27220709 35.3254051,5.30864014 35.4758665,5.31386143 C35.6262126,5.31919876 35.7300586,5.38695959 35.8700201,5.52259729 C36.0100969,5.65823498 35.9686738,5.4912695 35.9012893,5.3660744 C35.8337893,5.2408793 36.113943,5.06869253 36.2020967,4.9904891 C36.2903659,4.91228568 36.2540198,4.69310723 36.2384429,4.56791213 C36.2228659,4.44271703 36.2592121,4.33318582 36.2592121,4.19754813 C36.2592121,4.06191043 36.4147504,4.09845951 36.7000963,4.15055645 C36.9854422,4.20276942 36.7520194,3.96270579 36.6794425,3.92105144 C36.6067502,3.87928107 36.6430964,3.75408597 36.7000963,3.70721032 C36.7572117,3.66021865 36.7727886,3.48292661 36.814327,3.42027104 C36.85575,3.35761548 37.032173,3.38894326 37.1774421,3.40982845 C37.3227112,3.43071364 37.3382881,3.45682012 37.3590573,3.54546614 C37.3797112,3.63411216 37.3797112,3.67588254 37.4678649,3.67588254 C37.5561341,3.67588254 37.5820956,3.64977605 37.5872879,3.56635133 C37.5924802,3.48292661 37.6494802,3.43593493 37.7221724,3.41504975 C37.7947493,3.39416456 37.7377493,3.34717288 37.6754417,3.26896946 C37.6131341,3.19076603 37.6028648,3.13333176 37.5924802,2.92981721 C37.5820956,2.72641868 37.6494802,2.80473814 37.6910186,2.820286 C37.7324416,2.83594989 37.7532109,2.8150647 37.789557,2.76296776 C37.8259031,2.71075479 37.8466723,2.61688747 37.8466723,2.58033839 C37.8466723,2.54378931 37.7843647,2.40293032 37.7947493,2.27773522 C37.8051339,2.15254012 37.8051339,2.16820401 37.8880954,2.22563828 C37.9711722,2.28295652 37.9452107,2.1890892 37.8880954,2.0743367 C37.8310954,1.95958419 37.89848,1.92303511 37.9607876,1.91781381 C38.0230953,1.91259252 38.0645183,2.0691154 38.111249,2.15776142 C38.1578644,2.24652347 38.1630567,2.00645983 38.1370952,1.89170733 C38.111249,1.77695482 38.1734413,1.80306131 38.2409412,1.8239465 C38.3083258,1.84483168 38.3031335,1.9491416 38.3135181,2.0638941 C38.3239027,2.17864661 38.329095,2.24130217 38.4120565,2.24130217 C38.4951333,2.24130217 38.489941,2.1943105 38.4951333,2.12643364 C38.5003256,2.0586728 38.5780948,2.12643364 38.6092486,2.27773522 C38.6404025,2.42903681 38.6974024,2.3195056 38.7027101,2.1890892 C38.707787,2.0586728 38.7181716,1.89170733 38.6974024,1.78217612 C38.6767486,1.67264491 38.7441331,1.63609583 38.8270946,1.65698102 C38.9101715,1.67786621 38.9153638,1.87615947 38.9620945,2.03256632 C39.0087099,2.1890892 38.9308253,2.28295652 38.8738253,2.38216116 C38.81671,2.48124978 38.8063254,2.64287793 38.8634407,2.74208257 C38.9204407,2.84117119 38.977556,2.76296776 38.9567868,2.66898441 C38.936133,2.5751171 39.0501329,2.46036459 39.0865944,2.3247269 C39.1228251,2.1890892 39.1591713,2.24130217 39.205902,2.309063 C39.2525173,2.37693987 39.3822096,2.36649727 39.4600941,2.3247269 C39.5378633,2.28295652 39.6987093,2.08477929 39.80244,1.98557465 C39.9061707,1.88648603 40.1655551,1.98046938 40.3575549,2.0691154 C40.5494394,2.15776142 40.6739393,1.9439203 40.7777854,1.85005298 C40.881516,1.75618566 40.990439,1.80306131 41.1045543,1.88648603 C41.2186696,1.97002678 41.1772466,2.32994819 41.1720543,2.46558589 C41.1667466,2.60122358 41.1564774,2.74730387 41.3327849,2.79940081 C41.5092078,2.85161378 41.4470156,2.98725148 41.4520925,3.1854287 C41.4572848,3.38372196 41.5922847,3.41504975 41.6700539,3.40982845 C41.747823,3.40460715 41.8049384,3.23764168 41.7893615,3.09156139 C41.7737846,2.94559713 41.924246,3.10722528 42.0021305,3.22719908 C42.0798997,3.34717288 42.0695151,3.03946445 42.0591305,2.88816286 C42.0487459,2.73686128 42.2665918,2.6950909 42.3237072,2.63777266 C42.3808225,2.58033839 42.4897455,2.41337292 42.5259763,2.13687623 C42.5623224,1.86037955 42.2874764,1.61010538 42.2043996,1.51612203 C42.1213227,1.42225471 42.2925534,1.30216488 42.4741686,1.28661702 C42.6556685,1.27095313 42.7491299,1.27617442 42.8217068,1.1927497 C42.894399,1.10920895 43.1382065,1.00489903 43.2678987,1.01012033 C43.3975909,1.01534163 43.4079755,1.09876635 43.4182448,1.30216488 C43.4287448,1.50567943 43.5636293,1.25006794 43.6465907,1.08832376 C43.7295522,0.926695608 44.3416671,1.01534163 44.5337823,1.02578422 C44.7256668,1.03611079 44.6063592,1.15620062 44.4714747,1.37004174 C44.3367056,1.58399889 44.5284746,1.50045814 44.5284746,1.50045814 C44.5284746,1.50045814 44.6114361,1.40136952 44.7774744,1.26051053 C44.9435128,1.11965154 45.2028972,1.28661702 45.3533586,1.39614823 C45.50382,1.50567943 45.7113968,1.74040574 45.7268583,1.8082826 C45.7424352,1.87615947 45.7580121,2.20985836 45.8151275,2.3142843 C45.8721274,2.41859421 45.9602812,2.53868405 45.9655889,2.77341035 C45.9706658,3.00813666 46.3738193,3.26699697 46.5398576,3.39741336 C46.705896,3.52782976 46.9700111,3.51541468 47.0581649,3.66149497 C47.0844149,3.70483173 47.093386,3.78532673 47.0960399,3.87954213 L47.096011,4.17991175 L47.096011,4.17991175 C47.0978572,4.37646457 47.1743571,4.69403546 47.163511,4.8878036 C47.1524341,5.08157173 47.136511,5.20073333 47.1417033,5.2348458 C47.1468956,5.26895828 47.186011,5.37141173 47.2328571,5.33985189 C47.2797032,5.30829205 47.3188186,5.26373698 47.3683185,5.24273576 C47.4177031,5.22173455 47.4516261,5.20328597 47.5349338,5.30573942 C47.6183568,5.40807684 47.7563567,5.53408414 47.8448566,5.55775402 C47.9334719,5.58130787 48.029818,5.58919783 48.0923564,5.57353394 C48.1548948,5.55775402 48.1548948,5.53930544 48.2043948,5.49208171 C48.2538947,5.44485797 48.3137793,5.36340574 48.3527793,5.34774185 C48.3918946,5.33196193 48.4387407,5.32407197 48.4858176,5.3660744 C48.532433,5.40807684 48.5247022,5.34518922 48.5611637,5.33985189 C48.5976252,5.33463059 48.6548559,5.31362938 48.7043559,5.31885067 C48.7538559,5.32407197 48.7772789,5.31351335 48.8294327,5.35029448 C48.8714971,5.3800259 48.9152955,5.36343524 48.9388278,5.38785023 C48.9881195,5.31859631 49.0104193,5.38673249 49.0702213,5.48733625 C49.144573,5.61214477 49.1361449,5.59548033 49.4163491,5.60375428 C49.6965534,5.61214477 49.7294574,5.65386414 49.7213757,5.81176847 C49.7129477,5.96990587 49.5481964,6.01966613 49.2020685,6.16102256 C48.8560561,6.30249551 49.0784184,6.47718082 49.2679921,6.84309935 C49.4576813,7.20901787 49.3833296,7.23395627 49.3833296,7.44185393 C49.3833296,7.64998466 49.0126103,7.59171738 48.584049,7.52505961 C48.1556033,7.45851837 47.9331255,7.55838849 47.61182,7.65814208 C47.2903991,7.7580122 47.2985962,7.68319701 47.2326726,7.54172405 C47.1668645,7.40036762 47.1256478,7.45851837 47.0762339,7.63320368 C47.0267046,7.80788899 46.9525838,7.7745601 46.8042268,7.67480652 C46.6559853,7.57505293 46.5691647,7.60138974 46.3614649,7.75335081 C46.1538806,7.90531188 46.1538806,7.88969625 46.1538806,8.03629673 C46.1538806,8.18301374 46.0345022,8.33497481 45.8787562,8.46071561 C45.7230103,8.58633986 45.8165271,8.58121234 45.9047332,8.57596829 C45.9929392,8.57072423 46.0396976,8.56548018 46.1434898,8.64402447 C46.2473974,8.72280184 46.1227083,8.87989043 46.044893,9.00551468 C45.9669623,9.13137201 45.712735,9.2571128 45.577655,9.25186875 C45.4426906,9.24674123 45.447886,9.32516899 45.3752661,9.46139789 C45.3025307,9.59762679 45.4426906,9.55054683 45.6348042,9.41967852 C45.8268024,9.28869367 45.99825,9.65018388 45.9359054,10.1425424 C45.8736763,10.635134 46.0552838,10.9022312 46.0605946,11.1013888 C46.06579,11.3005464 45.8579747,11.2166415 45.7749641,11.117121 C45.6919534,11.0176004 45.5362074,10.9599158 45.3752661,10.9232074 C45.2144402,10.8866156 45.3544845,11.0018683 45.5258167,11.1851771 C45.6971488,11.3686025 45.5621843,11.609596 45.4168291,11.8192417 C45.2714739,12.0287708 45.4738629,11.939855 45.4738629,11.939855 C45.4738629,11.939855 45.7022287,11.7300927 45.8321133,11.6358163 C45.9618824,11.5416564 46.0293069,11.6567925 46.0085253,11.9187622 C45.9878593,12.1807319 45.686758,12.3484251 45.5415183,12.4951421 C45.3960476,12.6417426 45.5258167,12.6889391 45.5932412,12.6889391 L45.6619458,12.6887713 C45.6964515,12.6897782 45.7406746,12.6941832 45.8373087,12.7099153 C45.99825,12.7362522 46.1071221,12.7151594 46.3667757,12.7099153 C46.6263139,12.7046713 46.7820599,12.8146799 46.8546798,12.9037123 C46.9272997,12.9928613 46.8546798,13.2758072 46.8495998,13.4276517 C46.844289,13.5797293 46.756083,13.6268093 46.6781523,13.7265629 C46.600337,13.8259668 46.6365892,13.8259668 46.7456922,13.8731633 C46.8546798,13.9202433 47.0155057,13.8469431 47.1298041,13.7840144 C47.2441025,13.7210857 47.5243067,13.9151158 47.5814559,14.0092757 C47.6384896,14.1035522 47.7734541,14.0459841 47.8564647,14.0197638 C47.9394754,13.9936601 48.0226015,14.1664808 48.0277969,14.2450251 C48.0331077,14.323686 48.2094043,14.4861351 48.2717489,14.5857722 C48.3340935,14.6852927 48.4898395,14.763837 48.4898395,14.8844503 C48.4898395,15.0048305 48.5208963,14.962878 48.6610561,14.8999494 C48.801216,14.8371372 49.1697417,14.763837 49.2841555,14.7428608 C49.398223,14.7220011 49.7095995,14.9157981 49.8809317,14.9419018 C50.0521483,14.9681221 50.5609494,14.9314137 50.7115,14.9209256 C50.8620506,14.9104375 51.2668285,14.8844503 51.3654253,14.8215216 C51.4641375,14.7585929 51.7392618,14.7323727 51.8378586,14.7428608 C51.9365709,14.7533489 51.9728231,14.7061524 52.0662245,14.6484678 C52.1597414,14.5910162 52.3465442,14.6852927 52.4972103,14.7009083 C52.6476454,14.7166405 52.7462422,14.7323727 52.7618283,14.8056729 C52.7774145,14.8790897 52.9227697,14.7533489 52.9851143,14.7271286 C53.0473434,14.7009083 53.1667217,14.7220011 53.2446524,14.6799321 C53.3224677,14.6380962 53.4835245,14.5910162 53.550949,14.622364 C53.618489,14.6537118 53.7791995,14.7061524 53.8519348,14.669444 C53.9245547,14.6328522 54.0026009,14.6274916 54.0958868,14.6799321 C54.1737213,14.7236326 54.2445004,14.7636913 54.2629247,14.7212722 L54.2673344,14.6852927 C54.2620236,14.5910162 54.3606204,14.6380962 54.4228495,14.6380962 C54.4851941,14.6380962 54.599377,14.5804116 54.6773077,14.5541913 C54.755123,14.5279711 54.8796967,14.4284505 54.8796967,14.2869776 C54.8796967,14.1455046 55.0822011,13.9936601 55.1444302,13.9464636 C55.2067748,13.8992671 55.3157624,13.7315739 55.3365439,13.6636342 C55.35721,13.5954615 55.4351407,13.495941 55.5649098,13.4905804 C55.6946788,13.4854529 55.751828,13.401548 55.7881957,13.3438634 C55.8244479,13.2862953 56.0995722,13.0766496 56.0995722,12.9823732 C56.0995722,12.8879802 56.1567214,12.7413797 56.2085598,12.5580708 C56.2603981,12.3745289 56.2450429,12.0654792 56.2189505,12.0182827 C56.1929736,11.9712028 56.1307445,11.8979025 56.1307445,11.8139976 C56.1307445,11.7300927 56.0735953,11.7406974 55.9801939,11.7720452 C55.886677,11.8036261 55.8764017,11.8296133 55.8296433,11.751069 C55.7831158,11.6725247 55.6894835,11.6411769 55.6531158,11.6515485 C55.6167481,11.6620366 55.5285421,11.6725247 55.5077606,11.5938638 C55.4870945,11.5153195 55.5597144,11.4576349 55.6946788,11.3895788 C55.8296433,11.321406 56.1462152,11.2166415 56.2501228,11.1590734 C56.353915,11.1013888 56.7224407,11.0228445 56.7588084,10.9966242 C56.7951761,10.9705205 56.753613,10.9127193 56.6394301,10.9179634 C56.5251317,10.9232074 56.5668102,10.8603953 56.5822809,10.7974666 C56.597867,10.7346545 56.7276361,10.7346545 57.0183465,10.7346545 C57.3089415,10.7346545 57.2987817,10.635134 57.3349184,10.5408575 C57.3712861,10.4465811 57.4699984,10.4674408 57.7139504,10.4621967 C57.9579024,10.4569527 58.150016,10.2787713 58.217556,10.2107151 C58.2849805,10.1425424 58.4925649,10.0010694 58.6067478,9.97484917 C58.7209307,9.94886196 58.9492966,9.77056408 59.2400071,9.58725522 C59.530833,9.40382982 59.5411083,9.18894008 59.551499,9.0736874 C59.5618898,8.95855126 59.7228312,8.96892283 59.7955665,8.96892283 C59.8681864,8.96892283 59.9201402,8.99514311 59.9148294,8.9533072 C59.909634,8.91123822 59.9875647,8.72792936 60.0601846,8.66500069 C60.1328045,8.60218856 60.2262059,8.59682797 60.3146428,8.56035266 C60.4027334,8.52364427 60.3872627,8.38741537 60.4546872,8.31935918 C60.5221117,8.25106993 60.5428932,8.17252563 60.5376979,8.0520289 C60.5326179,7.93164869 60.6416055,7.55955384 60.6310993,7.46527738 C60.620824,7.37088438 60.3198382,7.23477201 60.1277245,7.22952796 C59.9356109,7.22416737 59.7694741,7.26611981 59.6449004,7.24514359 C59.5204422,7.22416737 59.509936,7.18745898 59.509936,7.0722063 C59.509936,6.95695362 59.6708773,7.05647413 59.8162326,7.08269441 C59.9614723,7.10891468 60.1483906,7.07745035 60.2730798,7.0722063 C60.397538,7.06696224 60.6674669,7.04074197 60.7609838,7.03573098 C60.8543852,7.03025386 61.1036481,6.92024523 61.2696694,6.87316527 C61.4359216,6.8260853 61.3994384,6.77877227 61.4876445,6.66888018 C61.575966,6.55875502 61.8769517,6.26007693 61.99633,6.17116106 C62.1157083,6.08189559 62.4375911,6.15531236 62.5466941,6.20250886 C62.6555662,6.24970536 62.7801399,6.16580047 62.8684614,6.1082324 C62.9566674,6.05054779 63.107218,6.07140748 63.2421825,6.07676807 C63.3771469,6.08189559 63.5017206,5.95102728 63.5692606,5.85663428 C63.6366851,5.76235782 63.7404773,5.74662565 63.8547757,5.7100338 C63.9688431,5.67332541 64.150566,5.59466458 64.3686566,5.41659977 C64.5867472,5.23853496 64.9812498,5.13365386 65.1681681,5.11792169 C65.3548554,5.10218952 66.0088962,5.25415059 66.107493,5.26988276 C66.2060898,5.28549839 66.3411697,5.08132984 66.4242958,5.02877275 C66.507191,4.97644873 66.5279725,4.99742495 66.5903171,5.07596925 C66.6525462,5.15463008 66.8030968,5.18085035 66.9276705,5.18085035 C67.0522442,5.18085035 67.104198,5.42184383 67.104198,5.57904895 C67.104198,5.73613754 67.1509565,5.75186971 67.3117824,5.90919137 C67.4728392,6.06627996 67.5974129,6.06627996 67.6855035,6.07140748 C67.773825,6.07676807 67.8308587,6.19726481 67.8464449,6.3230056 C67.8621465,6.44874639 67.9139848,6.49594289 67.9710186,6.50107041 C68.0281678,6.506431 68.0332477,6.55351096 68.0281678,6.63217179 C68.0247042,6.68453465 68.0673704,6.69732756 68.1269527,6.70003807 L68.2253613,6.70022798 C68.329269,6.70022798 68.4642334,6.70558857 68.5161872,6.66351959 C68.5679101,6.62156715 68.728967,6.60082399 68.7913115,6.60082399 C68.8535407,6.60082399 68.9728035,6.63729931 69.0039758,6.64778742 C69.0351481,6.65827553 69.1182742,6.64254337 69.1649172,6.56935966 C69.2116756,6.49594289 69.3570308,6.64778742 69.3621108,6.74742447 C69.3674216,6.84694499 69.2583186,6.87829279 69.2064802,6.99878952 C69.1545264,7.1194028 69.216871,7.23477201 69.2842955,7.29222355 C69.3518355,7.34990816 69.3984784,7.46527738 69.3778124,7.55419325 C69.3570308,7.64334219 69.2740202,7.62761002 69.2272618,7.73249113 C69.1806188,7.8372557 69.2740202,7.99958834 69.5438337,8.21972213 C69.8137626,8.43973938 70.2913913,8.4502275 70.5871817,8.41876316 C70.883203,8.38741537 70.8675014,8.56035266 70.862306,8.65451258 C70.8572261,8.74902211 70.883203,8.74354499 70.883203,8.74354499 C70.883203,8.74354499 70.9972705,8.6754888 71.0648104,8.6178042 C71.1322349,8.56035266 71.1478211,8.43449533 71.1582118,8.35606757 C71.1686026,8.27729021 71.3399347,8.31399859 71.4385315,8.31935918 C71.5371283,8.3244867 71.6045528,8.19874591 71.615059,8.09910886 C71.6253343,7.99958834 71.5319329,7.89494031 71.4489223,7.7428627 C71.3657962,7.59090163 71.4591976,7.61712191 71.5424391,7.64334219 C71.5755972,7.6538303 71.5963233,7.66765596 71.6172379,7.6868478 L71.6931671,7.76255052 C71.710123,7.77852694 71.730281,7.79635207 71.7552189,7.81627948 C71.8797926,7.91591653 72.0146416,7.97861212 72.0977677,7.98385618 C72.1807783,7.98910023 72.326249,8.01532051 72.3625012,8.04678484 C72.3989843,8.07824917 72.372892,8.14630536 72.3001566,8.14630536 C72.2275368,8.14630536 72.1894373,8.16739811 72.0019418,8.09374827 C71.8144462,8.02021496 71.7310892,8.15691 71.6998015,8.4094404 C71.6686292,8.66162119 71.8769062,8.70369017 72.074908,8.73527103 C72.2727943,8.76673537 72.3353698,9.02963734 72.4811868,9.26107498 C72.6271193,9.49227955 72.9499257,9.82883137 73.1270304,9.92345743 C73.3042507,10.0180835 73.4732737,10.0169181 73.5512045,10.0272897 C73.6290197,10.0377778 73.7328119,10.2736438 73.8055472,10.3049916 C73.8781671,10.3365725 73.9769948,10.2212032 73.9924655,10.0954624 C74.0079362,9.96960512 74.0858669,9.85435243 74.1896591,9.80727247 C74.2934513,9.76007597 74.4751742,9.55579089 74.5789663,9.50335033 C74.6827585,9.45102632 74.661977,9.57140652 74.5479095,9.64482329 C74.4337266,9.71824007 74.215636,9.94338484 74.12743,10.0325338 C74.0391085,10.1215662 74.2675898,10.2736438 74.3869681,10.2158426 C74.5063465,10.1582746 74.6205294,10.1164387 74.7243216,10.147903 C74.8282292,10.1793673 75.0255382,10.2368189 75.0980427,10.200227 C75.170778,10.1635186 75.1136288,10.0587541 74.9786644,9.94886196 C74.8436999,9.8387368 74.9215152,9.85435243 75.0980427,9.85959649 C75.2745702,9.86484055 75.3109379,9.88068925 75.5081314,9.88068925 C75.7054405,9.88068925 75.6950497,10.0010694 75.7468881,10.1635186 C75.7988419,10.3259678 75.9391172,10.3312119 76.0479893,10.3365725 C76.1569768,10.3417 76.1103339,10.2264473 76.0531847,10.1530305 C75.9960355,10.0798468 75.9391172,9.98557035 75.9700586,9.9172811 C76.0012309,9.84910838 76.1309999,9.82824869 76.3127228,9.8228881 C76.4944457,9.81776058 76.7383977,9.84910838 76.8110176,9.80202842 C76.883753,9.75483192 77.0861419,9.74434381 77.3094279,9.76532003 C77.5325984,9.78641278 77.6000229,9.62909113 77.6986197,9.57676711 C77.7973319,9.52432655 77.9168257,9.59238274 77.9685486,9.67104357 C78.0205024,9.7497044 77.9478825,9.85435243 77.7557689,9.8859333 C77.5637706,9.9172811 77.7245966,10.0954624 77.8494012,10.1897389 C77.9739749,10.2841319 78.2126161,10.1582746 78.2957422,10.1111946 C78.3787528,10.0639981 78.3319944,9.92776921 78.2904313,9.85435243 C78.2488683,9.7810522 78.1554669,9.72336759 78.0984331,9.57140652 C78.0413994,9.41967852 78.2282022,9.41967852 78.2800406,9.40382982 C78.3319944,9.38809765 78.482545,9.23613658 78.5136018,9.17845197 C78.5447741,9.1208839 78.6330956,8.97416689 78.7005201,8.91659881 C78.76806,8.85903074 78.861346,8.73841747 78.861346,8.6754888 C78.861346,8.61256014 78.8925183,8.54450396 79.0118966,8.54986455 C79.1313904,8.55499207 79.1626781,8.56035266 79.1365858,8.50266805 C79.1106089,8.44498344 79.0378735,8.34021887 79.0430689,8.30351048 C79.0483797,8.26680209 79.2040103,8.31935918 79.2403779,8.36119509 C79.2766301,8.403031 79.3233886,8.44498344 79.4324916,8.48693588 C79.5414791,8.52877179 79.6089036,8.50266805 79.6192944,8.36119509 C79.6296852,8.21972213 79.7126958,8.33497481 79.769845,8.35606757 C79.8268788,8.37681072 79.8892233,8.38741537 79.8892233,8.4502275 C79.8892233,8.51315616 79.8944187,8.54450396 79.9516834,8.5392599 C80.0086017,8.53401585 80.0605555,8.53401585 80.081337,8.61256014 C80.1021185,8.69122097 80.0968077,8.83793798 80.0501647,8.85378668 C80.0034063,8.86940232 79.9152002,8.88501795 79.8268788,8.9533072 C79.7386727,9.02147992 79.769845,9.1680804 79.8268788,9.20991631 C79.8841434,9.25186875 79.8736372,9.37760954 79.8841434,9.46664195 C79.8944187,9.55579089 80.1123938,9.74434381 80.2265768,9.86484055 C80.3409906,9.98557035 80.371932,9.99058134 80.4550581,9.91203704 C80.5381842,9.83349275 80.6211948,9.75483192 80.7664346,9.74434381 C80.9119053,9.7338557 80.927376,9.6553114 80.9429621,9.61860302 C80.9585483,9.58189463 80.9950314,9.55579089 81.0883173,9.60287085 C81.1817188,9.65018388 81.2336726,9.66055546 81.3530509,9.67104357 C81.4724292,9.68153168 81.4204754,9.81776058 81.3946139,9.94886196 C81.368637,10.0798468 81.6229798,10.147903 81.7475535,10.1897389 C81.8721272,10.2315748 82.0487702,10.2892594 82.1837346,10.2736438 C82.3185836,10.2577951 82.7130863,10.2107151 83.0348536,10.1582746 L83.2269798,10.1264188 C83.3749346,10.1004006 83.405977,10.087509 83.4605285,10.0482659 C83.5331483,9.99582539 83.5902975,10.0220457 83.6058837,10.1111946 C83.6215853,10.200227 83.4242762,10.3836524 83.3672425,10.4517086 C83.3099779,10.5197648 83.3723224,10.5931816 83.4242762,10.5669613 C83.4761146,10.5408575 83.4709192,10.5302529 83.5644361,10.5512291 C83.6578375,10.5722053 83.7978819,10.6298899 83.8654218,10.7084342 C83.9328464,10.7869785 83.9899955,10.7084342 84.0108925,10.635134 C84.0315586,10.5617172 83.9433526,10.4987886 83.8759281,10.3887799 C83.8082727,10.2787713 83.8654218,10.2577951 83.9744094,10.2736438 C84.0835124,10.2892594 84.1510524,10.2787713 84.327349,10.3155962 C84.5038765,10.3521881 84.545555,10.2630391 84.6076687,10.2158426 C84.6700132,10.1687627 84.8360345,10.0377778 84.9917805,10.0587541 C85.1475265,10.0798468 85.1735034,9.98020976 85.2047912,9.92252515 C85.235848,9.86484055 85.282491,9.91203704 85.282491,9.97484917 C85.282491,10.0377778 85.3188586,10.0587541 85.4070647,10.0639981 C85.4953861,10.0692422 85.5940984,10.0272897 85.6095691,9.95923354 C85.6251552,9.89106082 85.7133613,9.91203704 85.7497289,10.0272897 C85.7860966,10.1425424 85.7497289,10.1215662 85.9157502,10.2315748 C86.081887,10.3417 85.9625087,10.3731643 85.8950842,10.4202443 C85.8275442,10.4674408 85.8275442,10.5775659 85.7809012,10.5775659 C85.7341428,10.5775659 85.682189,10.5250088 85.6562121,10.4465811 C85.6303506,10.3679203 85.5887876,10.3679203 85.4590185,10.3782918 C85.3293649,10.3887799 85.2461233,10.5040326 85.1424466,10.5879375 C85.038539,10.6717259 84.8153685,10.7608748 84.6336456,10.7608748 C84.4519227,10.7608748 84.4675088,10.8603953 84.4624289,10.9913802 C84.4571181,11.122365 84.8153685,11.1643174 84.877713,11.2010258 C84.9400576,11.2377342 84.8257592,11.3633585 84.6959901,11.3948228 C84.5662211,11.4262871 84.524658,11.316162 84.4882903,11.2115139 C84.4519227,11.1067494 84.4571181,11.1380972 84.348246,11.1434578 C84.2392584,11.1484687 84.2962921,11.2166415 84.3014875,11.3423823 C84.3066829,11.4682396 84.4934857,11.5467839 84.6076687,11.6411769 C84.7218516,11.7354533 84.5972779,11.7930214 84.4882903,11.7982655 C84.3793028,11.8036261 84.4156705,11.9083906 84.5142672,11.9658422 C84.6129795,12.0235268 84.5194626,12.1703603 84.4986811,12.2541487 C84.478015,12.3380536 84.6232548,12.5005027 84.76861,12.6103948 C84.9139653,12.7204035 84.9711144,12.819924 85.1059635,12.8776086 C85.2409279,12.9352932 85.0697112,12.9876172 84.9813898,12.9615135 C84.8931837,12.9352932 84.8931837,12.9404207 84.877713,12.9771291 C84.8620114,13.0138375 84.8412299,13.3700836 84.7947024,13.6740058 C84.7478285,13.9778114 84.5558303,13.6687617 84.4675088,13.6583901 C84.3793028,13.6477855 84.1041785,13.6372974 83.9121803,13.6425414 C83.7200666,13.6477855 83.6110791,13.6740058 83.5902975,13.742062 C83.569516,13.8102347 83.4709192,13.8259668 83.3672425,13.8363384 C83.2632194,13.8469431 83.3151732,14.0302519 83.3047825,14.224282 C83.2945072,14.4179624 83.3411501,14.3969862 83.4085746,14.3761265 C83.4761146,14.3550338 83.5124823,14.3656384 83.5020915,14.517716 C83.4918162,14.669444 83.3723224,14.8999494 83.258024,15.0258067 C83.1438411,15.151664 82.8480507,15.2248477 82.7649246,15.251068 C82.681914,15.2772883 82.7286724,15.3558326 82.9362568,15.3505885 C83.1438411,15.3453445 83.1386457,15.3663207 83.0504397,15.4502256 C82.9622337,15.5338974 82.9051999,15.6807309 82.8998891,15.7750074 C82.8948092,15.8692839 82.9984859,15.8064717 83.0504397,15.7123118 C83.102509,15.6178023 83.2113811,15.591582 83.2997025,15.4710853 C83.3877931,15.3505885 83.3825977,15.3192407 83.5384592,15.3086361 C83.6942052,15.298148 83.7096759,15.4030291 83.7148712,15.539258 C83.7200666,15.6756034 83.7638233,15.4757466 83.8576865,15.3706325 C83.9514343,15.2654018 84.0764698,15.3390516 84.1389298,15.5073275 C84.2013898,15.6756034 84.2431838,15.4336777 84.2534591,15.3285635 C84.2639653,15.2233328 84.5140363,15.160171 84.6181749,15.0761496 C84.7223134,14.9920117 84.7223134,15.1077305 84.6389564,15.2024731 C84.5557148,15.2969826 84.4571181,15.3610766 84.4000843,15.4188778 C84.3429351,15.4764459 84.3117628,15.6282904 84.3221536,15.7278109 C84.3326598,15.8273314 84.327349,16.0841736 84.2392584,16.2308906 C84.1510524,16.3777242 84.1561323,16.3147955 84.1613277,16.5818927 C84.1665231,16.8491065 84.2287522,16.7914219 84.2962921,16.8125146 C84.3637166,16.8334908 84.2599245,16.9958235 84.1093739,17.0639962 C83.9589387,17.1319358 83.9951909,16.8805708 83.9951909,16.7600741 C83.9951909,16.6395773 83.9017895,16.6656811 83.8031927,16.7023894 C83.7044805,16.7389813 83.5799068,16.7389813 83.3723224,16.75483 C83.1646226,16.7705622 83.1905995,16.6395773 83.1854042,16.518964 C83.1802088,16.3987004 83.0556351,16.4718841 83.014072,16.5661605 C82.9810063,16.6415817 82.9842944,16.7069343 83.0135326,16.7488532 L83.0401644,16.7756897 C83.0921182,16.8125146 83.128255,16.9120351 83.128255,16.9120351 C83.128255,16.9120351 83.1178642,17.0900999 83.237358,17.142657 C83.3568517,17.1948645 83.4191963,17.294385 83.4553331,17.3678018 C83.4813925,17.4202423 83.3960633,17.475299 83.2997779,17.5254122 L83.1854042,17.5826915 L83.1854042,17.5826915 C83.0608305,17.6455037 82.8220738,17.5459831 82.5833172,17.5092748 C82.3445606,17.4726829 82.4794096,17.6087953 82.5313634,17.682212 C82.5833172,17.7555123 82.5782373,17.8864971 82.4949957,17.9338102 C82.4119851,17.9807736 82.214676,18.022726 82.0174824,17.9860176 C81.8201734,17.9493093 81.7216921,17.8812531 81.5451645,17.876009 C81.368637,17.8708815 81.1557418,17.8917412 80.9950314,17.9127174 C80.8339746,17.9338102 80.7197916,17.970402 80.6211948,17.9338102 C80.5224826,17.8971018 80.6731487,17.771361 80.6990101,17.7135598 C80.7248716,17.6559918 80.7094009,17.587819 80.6782286,17.5145188 C80.6470563,17.4412186 80.7145962,17.388778 80.7560438,17.336454 C80.7977223,17.2840134 80.7717454,17.2107132 80.7924115,17.1477845 C80.813193,17.0848559 80.9326868,17.1582727 80.968939,17.2369335 C81.0053067,17.3153612 81.1297649,17.2736419 81.1765234,17.2158407 C81.2231664,17.1582727 81.3738324,17.189737 81.4360615,17.2002251 C81.4984061,17.2107132 81.5970029,17.1740048 81.6229798,17.1163202 C81.6490722,17.0586356 81.5814168,17.0167997 81.4984061,16.9800913 C81.41528,16.9434995 81.3114878,16.9171626 81.2700402,16.9171626 C81.2284772,16.9171626 81.1297649,16.7861778 81.103788,16.8334908 C81.0779266,16.8805708 80.9897206,16.948627 80.8495607,16.9120351 C80.7094009,16.8754433 80.6938147,16.7966659 80.6731487,16.7233657 C80.6522517,16.6499489 80.6056087,16.5084759 80.5536549,16.3827351 C80.5017011,16.2571109 80.5796318,16.0002687 80.5848272,15.8485407 C80.5880743,15.7534922 80.6704247,15.7485304 80.7633846,15.7594555 L80.8756454,15.7754426 C80.8937431,15.7777951 80.9111693,15.7795959 80.927376,15.7802515 C81.0571451,15.7854955 81.0311682,15.7278109 81.0259728,15.6282904 C81.0207774,15.5287699 81.0207774,15.4396209 81.0105021,15.3348564 C81.0001113,15.2300918 80.9793298,15.2300918 80.8652623,15.2615561 C80.7508485,15.2929039 80.6938147,15.151664 80.6108041,15.0728867 C80.527678,14.9943424 80.5588503,15.1253272 80.5848272,15.2459405 C80.6108041,15.3663207 80.6782286,15.3872969 80.6782286,15.4605972 C80.6782286,15.5338974 80.5329888,15.5601177 80.481035,15.6282904 C80.4290812,15.6964631 80.371932,15.738299 80.3460705,15.8485407 C80.3199782,15.9584328 80.1488769,16.0736855 80.1021185,16.1366141 C80.0553601,16.1994263 80.2007153,16.3618755 80.2317721,16.4299316 C80.2629444,16.4981044 80.2421629,16.5346962 80.1123938,16.5451843 C79.9826247,16.5556724 80.0086017,16.3513873 79.9982109,16.2622384 C79.9878201,16.173206 79.9516834,16.0579533 79.9203956,15.979409 C79.8892233,15.9007482 79.7958219,16.0002687 79.7594543,16.0841736 C79.7230866,16.1679619 79.8321896,16.2517503 79.8684418,16.3251671 C79.9048095,16.3987004 79.8424649,16.4981044 79.7178912,16.5922643 C79.5933175,16.6866573 79.6765591,16.8176421 79.7491789,16.8961864 C79.8217988,16.9748473 79.6815235,16.9748473 79.54679,16.9643591 C79.4118255,16.953871 79.4169054,16.9748473 79.3649516,17.0167997 C79.3131133,17.0586356 79.2611595,17.1110762 79.1209996,17.1319358 C78.9808398,17.1529121 79.0534597,17.0586356 79.0794366,16.9591151 C79.1054135,16.8595946 79.1106089,16.6971454 79.1365858,16.608113 C79.1626781,16.518964 79.1158042,16.3827351 79.0794366,16.2779706 C79.0430689,16.173206 78.9912305,16.1052663 78.9082199,16.1052663 C78.8250938,16.1052663 78.7783354,16.0736855 78.7161062,16.0212449 C78.6538771,15.9688044 78.5966125,15.9898971 78.5863371,16.0946617 C78.5759464,16.1994263 78.482545,16.1785666 78.2957422,16.1994263 C78.1088239,16.220286 78.0880424,16.0212449 78.0776516,15.9269685 C78.0672608,15.832692 78.0205024,15.8851326 77.927101,15.9217244 C77.8335841,15.9584328 77.7973319,16.0161174 77.8233088,16.031733 C77.8494012,16.0474652 77.8803426,16.1103939 77.8647564,16.2517503 C77.8494012,16.3932233 77.7195166,16.4299316 77.6104136,16.4299316 C77.5014261,16.4299316 77.5449518,16.5068444 77.5891703,16.5235089 C77.6332733,16.5402899 77.7214793,16.5681416 77.7270211,16.6126578 C77.7325628,16.6572906 77.7822076,16.6795487 77.8373941,16.6350325 C77.8925806,16.5903997 78.0580246,16.49018 78.1076693,16.5235089 C78.1574296,16.5570708 78.2678025,16.673955 78.2235841,16.7352522 C78.1794811,16.7964328 78.0305468,16.8186909 77.9643923,16.8353554 C77.8980068,16.8521364 77.7159376,16.8186909 77.6553248,16.8911754 C77.5945966,16.9635434 77.4125273,17.0637631 77.4125273,17.0637631 C77.4125273,17.0637631 77.2874918,17.1097943 77.2641703,17.0587521 C77.2409643,17.0078265 77.2060975,16.8942053 77.1439838,16.9372066 C77.0821011,16.9804409 77.0317636,17.0509443 77.0123675,17.0705221 C76.9929714,17.0902165 76.9734599,17.0980243 76.895991,17.0666765 C76.8184066,17.0353287 76.7525984,17.0313665 76.6866748,17.0784465 C76.6207512,17.1254099 76.4385665,17.0863708 76.3377761,17.1451042 C76.3055855,17.1639214 76.1207369,17.1840372 75.8674484,17.2026974 C76.6210341,17.2438942 77.1930908,17.2759384 77.5539849,17.2976338 L77.615,17.301 L77.5955405,17.3243107 C77.5430239,17.3808683 77.5196831,17.3504948 77.4374503,17.3326896 L77.380339,17.3243107 C77.2491641,17.3141014 77.2176542,17.3660763 77.1652542,17.5070353 C77.1127376,17.6478782 77.1337443,17.6792024 76.9973177,17.720852 C76.8608912,17.7626176 76.687703,17.9294481 76.5985415,18.0025379 C76.5093799,18.0755117 76.5775348,18.2424581 76.6458064,18.2632249 C76.7139613,18.2842237 76.7139613,18.3625343 76.6824514,18.4094046 C76.6510581,18.4562749 76.6195481,18.4458334 76.5093799,18.4772737 C76.3992117,18.5085979 76.3729534,18.5920131 76.1630035,18.6389994 C75.9531704,18.6857537 75.6908207,18.8006091 75.5596458,18.8839083 C75.428471,18.9675556 75.4388576,19.0248673 75.4022126,18.8684782 C75.3653343,18.7118572 75.5333875,18.6597662 75.5964075,18.5659096 C75.6593107,18.472053 75.5018775,18.4823784 75.412716,18.5553522 C75.3234377,18.628558 75.2395278,18.7692849 75.2500311,19.0457501 C75.2605344,19.3220992 75.4914909,19.7238612 75.4965092,19.7604061 C75.521367,19.9322252 75.4914909,19.9169111 75.3653343,19.8699248 C75.2395278,19.8230545 75.2342761,19.8230545 75.1503662,19.8281592 C75.0664563,19.8333799 75.1136046,19.6716542 75.1293596,19.5934597 C75.1451146,19.5152652 75.0454497,19.4420593 75.008688,19.4420593 C74.9718097,19.4420593 74.8775132,19.4630581 74.8093582,19.43185 C74.7410866,19.4005257 74.6780667,19.3534234 74.6308017,19.3899683 C74.5836534,19.4265132 74.5154985,19.4577214 74.4104653,19.4733835 C74.305432,19.4891617 74.394827,19.588239 74.4472269,19.6508874 C74.4996268,19.7133038 74.3737036,19.7133038 74.2950454,19.7341866 C74.2163872,19.7551854 74.2111355,19.7551854 74.1481155,19.6559921 C74.0852123,19.5570308 74.0011857,19.4577214 73.8752625,19.4160718 C73.749456,19.3743062 73.9066557,19.3064371 74.0011857,19.2649035 C74.0958323,19.2231379 74.1953805,19.1604895 74.2478971,19.1292813 C74.3002971,19.0979571 74.4734852,19.0614122 74.4734852,19.0614122 C74.4734852,19.0614122 74.5836534,18.8580368 74.72008,18.8214919 C74.8565065,18.784947 74.992933,18.5449108 75.0139397,18.4407288 C75.0348296,18.3364307 74.9247781,18.3154319 74.8407515,18.3258733 C74.7568416,18.3364307 74.6519251,18.3519768 74.6308017,18.383185 C74.6099118,18.4145092 74.5102469,18.4562749 74.4367236,18.4668323 C74.363317,18.4772737 74.316052,18.5188073 74.3109171,18.5866764 C74.305432,18.6544295 74.2321421,18.7796103 74.1324772,18.8839083 C74.0326957,18.9883223 73.9487857,18.9727763 73.9330308,18.8736989 C73.9172758,18.7745056 73.9435341,18.6127799 73.9960507,18.5711303 C74.0484506,18.5293647 73.8543725,18.5398061 73.7283326,18.576351 C73.6025261,18.6127799 73.4974928,18.3625343 73.4396079,18.2215753 C73.3819563,18.0808484 73.329673,18.1902511 73.2719047,18.3364307 C73.2141365,18.4823784 73.3925763,18.6024545 73.4396079,18.6702076 C73.4871062,18.7380767 73.5710161,18.8839083 73.5605128,18.9622188 C73.5500095,19.0404133 73.6390543,19.1240606 73.6916877,19.1812563 C73.7442043,19.238684 73.7020743,19.3587601 73.6444227,19.4265132 C73.5867711,19.4943824 73.5447578,19.4630581 73.5131311,19.5830183 C73.4818546,19.7028624 73.3244214,19.6716542 73.1354782,19.6664335 C72.9465351,19.6613288 72.8626251,19.6768749 72.7524569,19.7551854 C72.6422887,19.8333799 72.6160304,19.9376779 72.6317854,19.9951056 C72.6474237,20.0525334 72.7367019,20.1516107 72.7733469,20.2035857 C72.8102252,20.2559087 72.7944702,20.3079997 72.7524569,20.3393239 C72.7104436,20.3706481 72.6632954,20.3341032 72.6002754,20.2871169 C72.5373722,20.2402466 72.5477588,20.0786369 72.5162488,20.005431 C72.4848555,19.9324572 72.4323389,20.005431 72.4270872,20.0733002 C72.4218356,20.1410533 72.4585972,20.1671568 72.2959124,20.198481 C72.1333442,20.2296892 72.0178076,20.2871169 71.7712129,20.2820122 C71.5246181,20.2766755 71.4615982,20.4018563 71.3776883,20.4802828 C71.2937784,20.5583613 71.2202551,20.6106844 71.1100869,20.6053477 C70.9999187,20.6001269 70.8005889,20.6836582 70.6274007,20.7515273 C70.4540958,20.8192804 70.5120975,20.7202031 70.5433741,20.6367879 C70.5748841,20.5532567 70.5591291,20.4802828 70.606394,20.3602067 C70.6535423,20.2402466 70.5329875,20.3185571 70.4699675,20.407077 C70.4069476,20.4957129 70.3440443,20.5322578 70.2391278,20.563582 C70.1340945,20.5949062 70.0344296,20.6887629 70.0344296,20.7617367 C70.0344296,20.8348265 70.1761078,20.808723 70.2548827,20.808723 C70.333541,20.808723 70.2810244,20.8870335 70.2286244,20.9286831 C70.1761078,20.9704487 70.0816946,21.0436546 69.9032547,21.1269537 C69.7248149,21.210485 69.4415752,21.5339364 69.331407,21.6172356 C69.2211221,21.7007669 69.1894954,21.5963528 69.1844771,21.5339364 C69.1792255,21.471288 69.1894954,21.4035349 69.2158704,21.3564326 C69.2421287,21.3096783 69.2158704,21.2679127 69.1265921,21.210485 C69.0375473,21.1529412 68.8642424,21.2679127 68.7016742,21.3043416 C68.5389894,21.3408865 68.6440227,21.3722107 68.8014558,21.4294064 C68.9587723,21.4868341 69.0006689,21.6851048 68.9850306,21.8937008 C68.9692757,22.1025288 68.8014558,22.0502058 68.6335193,22.0084402 C68.4654661,21.9667906 68.4708345,21.9721273 68.2189881,21.9824527 C67.967025,21.9928941 67.9513867,21.9093629 67.8831151,21.8153903 C67.8149601,21.7215336 67.8831151,21.7007669 67.9827799,21.7061036 C68.0825615,21.7112083 68.1403298,21.5651446 68.1664714,21.4973915 C68.1927298,21.4294064 68.1140715,21.3408865 68.0405482,21.2886795 C67.967025,21.2364725 67.8149601,21.2208104 67.6942886,21.1999276 L67.6942886,21.1999276 C67.6966227,21.2010877 67.5954406,21.2260311 67.5599627,21.2514385 C67.5244848,21.2763818 67.4788537,21.211065 67.4738355,21.165703 C67.4687005,21.1203409 67.4371905,21.0957456 67.3479122,21.0227717 C67.2587507,20.9497979 67.0698075,21.0225397 66.980646,21.0123303 C66.8914844,21.0018889 66.870361,21.0748627 66.9281293,21.1375112 C66.9858976,21.1999276 66.949136,21.2418092 66.9071227,21.2418092 C66.8652261,21.2418092 66.8494711,21.2679127 66.7182962,21.2679127 C66.5871213,21.2679127 66.5452247,21.3096783 66.4454431,21.4347431 C66.3456616,21.5598079 66.3090166,21.5443778 66.303765,21.6537805 C66.2985133,21.7634153 66.1883451,21.7841821 66.1149385,21.7841821 C66.0414152,21.7841821 65.9994019,21.8312844 65.9994019,21.9406871 C65.9994019,22.0502058 65.947002,22.081414 65.852472,22.1127382 C65.7580588,22.1440624 65.7685621,22.2483604 65.9102403,22.2953468 C66.0519185,22.3422171 66.0886802,22.4518518 66.0990668,22.5614865 C66.1096868,22.6708892 66.23561,22.6135775 66.2826416,22.5718119 C66.3300233,22.5301623 66.4873397,22.2222569 66.5242181,22.1492831 C66.560863,22.0763093 66.6501413,21.8990375 66.8284644,21.8259477 C67.0067876,21.7528579 67.0698075,21.8363891 67.1170725,21.9042582 C67.1643375,21.9721273 67.211369,22.0449851 67.3164023,22.0658679 C67.4214355,22.0866347 67.4056805,22.170282 67.3217706,22.2588018 C67.237744,22.3474378 67.3899256,22.483292 67.4319389,22.5248256 C67.4738355,22.5667072 67.5683654,22.4570725 67.5997587,22.3684366 C67.6312686,22.2796847 67.7151785,22.2953468 67.7571918,22.3320077 C67.7990884,22.3684366 67.8517218,22.4361897 67.8200951,22.6031361 C67.7887018,22.7699665 67.9251284,22.728433 68.0090383,22.7127709 C68.0930649,22.6969927 68.1979814,22.6031361 68.1927298,22.5039428 C68.1874781,22.4048655 68.1979814,22.3894354 68.260768,22.4361897 C68.3239046,22.483292 68.318653,22.5457084 68.3395429,22.6344603 C68.3606663,22.7232123 68.3134013,22.743979 68.1822264,22.8065115 C68.0510516,22.8690439 68.0510516,22.9944567 68.0300449,23.1560664 C68.0090383,23.3177922 68.0563032,23.3856613 68.1245748,23.4325316 C68.1927298,23.4794019 68.2242397,23.5108421 68.1822264,23.6984393 C68.1403298,23.8862686 68.0615549,23.7820866 67.93038,23.7245428 C67.7990884,23.6671151 67.6312686,23.6933346 67.5578621,23.7245428 C67.4843388,23.755983 67.4633321,23.844619 67.5000938,23.9644631 C67.5368554,24.0844232 67.6365203,24.1314095 67.6626619,24.20972 C67.6889202,24.2880305 67.5946237,24.3192387 67.5211004,24.3974332 C67.4476938,24.4757438 67.4895904,24.6270281 67.5263521,24.7418835 C67.5631137,24.8565069 67.5105971,24.8878311 67.300764,24.8460655 C67.0908142,24.8042999 67.0803108,24.6165867 67.0594209,24.5173934 C67.0384142,24.4183161 67.0540525,24.3766665 67.0594209,24.2826938 C67.0645559,24.1887212 67.0279109,24.1314095 66.964891,24.0481103 C66.9019877,23.9644631 66.8862327,23.8028533 66.8652261,23.6984393 C66.8442194,23.5941413 66.7655612,23.5681538 66.7130445,23.5523757 C66.6605279,23.5368296 66.5871213,23.4846226 66.5083464,23.3856613 C66.4296882,23.2864679 66.2303584,23.3490004 66.0676735,23.4378683 C65.9049887,23.5262722 65.8315821,23.6098034 65.7948205,23.7610877 C65.7580588,23.9124881 65.6636456,23.8914893 65.5428573,23.8758271 C65.4223025,23.860165 65.4012958,23.8810479 65.3960442,23.9331389 C65.3907925,23.9854619 65.4064308,24.0166701 65.4589474,24.1210841 C65.5114641,24.2253821 65.5324707,24.3714458 65.4852058,24.4236528 C65.4380575,24.4757438 65.3802892,24.4757438 65.3330242,24.5278348 C65.285876,24.5801578 65.2648693,24.6270281 65.2491143,24.7105593 C65.2333593,24.7938585 65.3802892,24.8460655 65.5062124,24.9557003 C65.6321356,25.065103 65.7160455,25.3206853 65.6951556,25.4406454 C65.6740322,25.5607216 65.6216323,25.5555009 65.5743673,25.5293974 C65.5272191,25.5034099 65.4589474,25.4929685 65.3382759,25.4825271 C65.2174876,25.4719696 65.1074361,25.4458661 65.0076545,25.3988798 C64.9081063,25.3521255 64.8293314,25.5085146 64.8031898,25.6285907 C64.7769315,25.7485508 64.8608414,25.8422914 64.918493,25.884173 C64.9762613,25.9258226 64.9238613,25.9310433 64.881848,26.0145746 C64.8398347,26.0979898 64.881848,26.1240933 64.9343647,26.2439374 C64.9867646,26.3638975 65.0391645,26.2543788 65.0287779,26.2075085 C65.0182746,26.1606382 65.0497845,26.1606382 65.0969328,26.181405 C65.1440811,26.2024038 65.1792089,26.285355 65.1897122,26.5050885 C65.2002155,26.725054 65.1685888,26.8714657 65.2423455,27.1331969 C65.3161022,27.3949281 65.4326891,27.6107171 65.4485608,27.7828842 C65.4643158,27.9548193 65.4799541,28.0592333 65.5324707,28.0592333 C65.5848706,28.0592333 65.579619,28.1062196 65.5534774,28.1583106 C65.5272191,28.2104016 65.3960442,28.2260637 65.222856,28.2156223 C65.0497845,28.205297 64.6822848,28.2834915 64.5879883,28.2939329 C64.4935751,28.3044903 64.4305551,28.3305938 64.4253035,28.3983469 C64.4200518,28.4661 64.3939102,28.5599566 64.3517802,28.6018382 C64.3098836,28.6434878 64.2521153,28.5495152 64.2678703,28.4609953 C64.2836253,28.3721274 63.9898823,28.4714367 63.8482041,28.4920875 C63.7064092,28.5132023 63.7326675,28.518307 63.7169125,28.6018382 C63.7012742,28.6851374 63.5228344,28.6903581 63.3864078,28.7528905 C63.2499813,28.815539 63.1555681,28.8259804 63.0190248,28.8050976 C62.882715,28.7843308 62.8564567,28.867862 62.7514234,28.9773807 C62.6465069,29.0867834 62.1638207,29.2486252 62.0746591,29.232847 C61.9854976,29.2171849 61.9119743,29.2224056 61.827831,29.284938 C61.7440378,29.3475865 61.5499597,29.3684693 61.4345398,29.3475865 C61.3190032,29.3268197 61.1406801,29.3684693 60.9990019,29.4154556 C60.8573237,29.4624419 60.9255953,29.3528072 60.9569886,29.232847 C60.9884985,29.1128869 61.1511834,28.9459405 61.2560999,28.8989542 C61.3608998,28.8520839 61.3242549,28.7685527 61.2560999,28.7528905 C61.1878283,28.7373445 61.2560999,28.6172683 61.3031315,28.570398 C61.3505132,28.5235277 61.4764364,28.2000763 61.5394563,28.0957782 C61.6023596,27.9914802 61.7440378,27.542964 61.7387861,27.3550187 C61.7335345,27.1671895 61.6128629,27.0630075 61.5026947,26.9900336 C61.3925265,26.9168278 61.4501781,26.7082318 61.4973263,26.635258 C61.544708,26.5621681 61.4869397,26.6613615 61.3872748,26.6038177 C61.2876099,26.5466221 61.3138682,26.2701569 61.3505132,26.0927691 C61.3872748,25.9153812 61.2926282,26.0041332 61.208835,26.1135359 C61.1249251,26.2231706 60.9884985,26.3064698 60.9255953,26.3118065 C60.8625753,26.3170272 60.899337,26.4369873 60.9359819,26.5882717 C60.9726268,26.739556 60.9412336,26.8907243 60.8834653,26.9742555 C60.8258137,27.0576707 60.836317,27.0994363 60.867827,27.2455 C60.899337,27.3916796 60.9937502,27.349914 61.0305118,27.3654601 C61.0671568,27.3812382 61.0305118,27.4594327 60.9517369,27.4750948 C60.8730787,27.4906409 60.8783303,27.5480686 60.8258137,27.5636147 C60.7734138,27.5792768 60.6527422,27.5219651 60.6527422,27.454096 C60.6527422,27.3863429 60.6054773,27.3185898 60.5163157,27.3132531 C60.4270374,27.3080324 60.3535141,27.3394726 60.2539659,27.3812382 C60.1916024,27.4072692 60.1846276,27.3009246 60.1843199,27.1869155 L60.1840327,27.0544071 L60.1840327,27.0544071 L60.1804427,27.000359 C60.164571,26.8752942 60.0650228,26.9794762 59.9967512,27.0212418 C59.9285963,27.0630075 59.8340663,27.1256559 59.776298,27.1256559 C59.7187631,27.1256559 59.6137299,27.1098778 59.5612133,27.1256559 C59.5088133,27.141318 59.4195351,27.2038504 59.2779736,27.2142918 C59.1362954,27.2246172 59.125792,27.1465387 59.0890304,27.05245 C59.0522688,26.9585934 58.9998688,26.9585934 58.9315972,26.9585934 C58.8634423,26.9585934 58.8634423,27.1046571 58.9105906,27.2455 C58.9578555,27.3863429 58.9212106,27.5480686 58.884449,27.6577034 C58.8476873,27.7671061 58.805674,27.9289478 58.7480224,28.1218817 C58.6902541,28.3149317 58.758409,28.4086723 58.8739456,28.5339691 C58.9893655,28.6591499 59.125792,28.7528905 59.188812,28.7581112 C59.2517152,28.7633319 59.3198702,28.8364218 59.43529,28.919953 C59.5508266,29.0033682 59.7344014,29.1859767 59.7974214,29.232847 C59.8603246,29.2798334 60.1174227,29.284938 60.2119526,29.2434045 C60.3063659,29.2015228 60.3588825,29.284938 60.3640175,29.3633646 C60.3693858,29.4415591 60.2906109,29.4884294 60.127926,29.5771813 C59.9652412,29.6657012 60.0072545,29.634609 59.9496029,29.5406364 C59.8918346,29.4467798 59.8498213,29.5146489 59.818428,29.6031688 C59.7869181,29.6918047 59.7187631,29.7909981 59.6925048,29.8432051 C59.6662465,29.8954121 59.6975231,30.0256976 59.6975231,30.0256976 C59.6975231,30.0256976 59.7869181,30.0777886 59.7869181,30.2186315 C59.7869181,30.3595905 59.9074729,30.2656178 59.9443512,30.192528 C59.9809962,30.1196702 60.0387645,30.1299956 60.0860294,30.1247749 C60.1331777,30.1196702 60.2591009,30.088346 60.2906109,30.0310343 C60.3221209,29.9736066 60.4585474,30.0204769 60.4532957,30.1040081 C60.4480441,30.1875393 60.3640175,30.2708385 60.3221209,30.3752526 C60.2801076,30.4795506 60.4585474,30.4273436 60.4950756,30.3595905 C60.531954,30.2917213 60.6736322,30.192528 60.7261488,30.1875393 C60.7786654,30.1823186 60.836317,30.1299956 60.8415687,30.0310343 C60.8468203,29.931725 61.0042535,29.9630492 61.0566535,30.0048148 C61.1090534,30.0466964 61.0725251,30.2186315 61.0619051,30.3179409 C61.0514018,30.4169022 60.789052,30.4325643 60.6368705,30.4638885 C60.4848057,30.4952127 60.3640175,30.698588 60.2643526,30.7924446 C60.164571,30.8865333 60.0545195,31.2359722 59.9233446,31.3349335 C59.7921697,31.4341269 59.7974214,31.3244921 59.8131764,31.2098687 C59.8288147,31.0951293 60.0072545,30.8497563 60.0545195,30.750679 C60.1017844,30.6516017 59.9338479,30.6672638 59.818428,30.6516017 C59.7028914,30.6360556 59.6609948,30.750679 59.6084782,30.8497563 C59.5560783,30.9489497 59.4457934,31.10035 59.4144001,31.1576617 C59.3828901,31.2149734 59.2621019,31.2515183 59.0837787,31.2618437 C58.9053389,31.2724011 58.9053389,31.3974659 58.8004223,31.501996 C58.6955058,31.606178 58.4960593,31.658269 58.3752711,31.658269 C58.2547162,31.658269 58.2914779,31.7053713 58.2757229,31.8044486 C58.2599679,31.9035259 58.1864446,31.8565396 58.1076697,31.7887865 C58.0291281,31.7209174 57.9923665,31.7887865 57.9818632,31.8722017 C57.9712431,31.955733 57.9712431,31.955733 57.9818632,32.0183814 C57.9923665,32.0809138 58.1235413,32.0809138 58.2023163,32.0861345 C58.2809745,32.0913552 58.2074512,32.3311594 58.1706896,32.4200273 C58.1340447,32.5085472 58.176058,32.6808304 58.2179546,32.7485835 C58.2599679,32.8164526 58.2809745,32.9676209 58.2652195,33.019828 C58.2495813,33.071919 58.1813096,33.12401 58.1813096,33.1919951 C58.1813096,33.2598642 58.1392963,33.3170599 58.0973997,33.3640462 C58.0553864,33.4110325 58.0238765,33.4265786 58.0238765,33.489111 C58.0238765,33.5518755 57.9766115,33.6560575 57.9398498,33.734484 C57.9032049,33.8126785 57.7825334,33.7552508 57.6932551,33.682277 C57.6040935,33.6093032 57.483422,33.43702 57.441292,33.3640462 C57.3995121,33.2909564 57.3522471,33.2701896 57.2105689,33.2544115 C57.0688907,33.2388654 56.9848641,33.2754103 56.9534708,33.332838 C56.9220776,33.3900337 56.9113408,33.43702 56.8695609,33.489111 C56.8275476,33.541434 56.7593927,33.5205512 56.7488894,33.5569801 C56.7383861,33.5936411 56.7802827,33.6405114 56.9009542,33.6457321 C57.0217425,33.6509528 57.1212906,33.8334453 57.1476657,33.9065351 C57.1738073,33.9795089 56.9954841,34.0787022 56.9534708,34.13613 C56.9113408,34.1934417 56.8327993,34.2613108 56.7016244,34.2613108 C56.5704496,34.2613108 56.6701145,34.344726 56.775031,34.396933 C56.8800643,34.448908 56.8643093,34.4699068 56.8590576,34.5585427 C56.8536892,34.6471786 56.9272125,34.6889443 56.9901158,34.6993857 C57.0531357,34.7098271 57.0531357,34.7411513 57.0374974,34.8141251 C57.0217425,34.8870989 56.9966512,34.9430184 56.9335145,34.9430184 C56.8703779,34.9430184 56.7966212,34.9743426 56.7333678,35.0266656 C56.6702312,35.0791047 56.5333378,35.1731933 56.4069478,35.2883968 C56.2805578,35.4036003 56.2911778,35.1419851 56.3331911,34.9954574 C56.3754378,34.8486977 56.2595511,34.9114622 56.1436644,34.9954574 C56.0277777,35.0791047 56.0277777,35.0163403 56.0173911,34.9011368 C56.0067711,34.7859333 56.1542844,34.7126114 56.1542844,34.597408 C56.1542844,34.4823205 56.0805278,34.5242021 55.9331311,34.5450849 C55.7856177,34.5661998 55.8067411,34.702286 55.8067411,34.8173735 C55.8067411,34.932577 55.6698477,34.932577 55.6170977,35.0163403 C55.5643476,35.0999875 55.4380743,35.2883968 55.311801,35.4872475 C55.1852943,35.6862143 55.1852943,35.497921 55.1852943,35.3721601 C55.1852943,35.2466312 55.1537843,35.1837507 55.0273943,35.0266656 C54.901121,34.8698126 54.8483709,34.9011368 54.7957376,34.9534598 C54.7431043,35.0058988 54.6588442,35.1208703 54.6165975,35.2047496 C54.5745842,35.2883968 54.4769033,35.3201851 54.3666184,35.4243671 C54.2563335,35.5287811 54.2145536,35.4662487 54.1567853,35.4191464 C54.099017,35.3723921 54.0780103,35.3827175 54.0413654,35.3776128 C54.0046037,35.3723921 53.9206938,35.3461726 53.9206938,35.4034843 C53.9206938,35.461028 53.8471706,35.461028 53.7894023,35.461028 C53.731634,35.461028 53.7370023,35.4662487 53.7370023,35.5026776 C53.7370023,35.5391065 53.731634,35.5599893 53.7685123,35.565326 C53.8051573,35.5704307 53.8366672,35.5757674 53.8786805,35.617417 C53.9206938,35.6591826 53.8681772,35.8939982 53.8156606,35.9511939 C53.7632607,36.0086216 53.7685123,36.0138423 53.7527573,36.1078149 C53.7370023,36.2015555 53.7685123,36.368618 53.8314156,36.4153723 C53.8944355,36.4623586 53.8366672,36.5094609 53.758009,36.5094609 C53.6793508,36.5094609 53.6320858,36.7546018 53.5899558,36.8119135 C53.5480592,36.8692252 53.5375559,37.0101842 53.4326393,37.187456 C53.327606,37.3649599 53.2070512,37.589102 53.1493996,37.8446843 C53.0916313,38.1003827 53.0601213,38.0011894 52.9971014,37.8655671 C52.9340814,37.7299449 52.9394498,37.8186968 52.9340814,37.9333202 C52.9288298,38.0480597 53.0076047,38.1315909 53.0233597,38.3245248 C53.0391147,38.5175748 52.9604565,38.4498217 52.8502882,38.3767318 C52.7400033,38.303758 52.7033584,38.3611857 52.6769834,38.408056 C52.6508417,38.4549263 52.5879385,38.5645611 52.5144152,38.8670137 C52.4410086,39.1695824 52.3203371,39.054843 52.2520655,39.054843 C52.1839106,39.054843 52.1208906,39.1017133 52.031729,39.1956859 C51.9425675,39.2896585 51.8427859,39.315646 51.774631,39.2792171 C51.7063593,39.2426722 51.5909395,39.315646 51.5070296,39.3575276 C51.423003,39.3990612 51.370603,39.4566049 51.370603,39.612994 C51.370603,39.769499 51.2707047,39.8476935 51.1921632,39.8634716 C51.1135049,39.8791337 51.081995,39.9312247 51.1343949,40.118938 C51.1869115,40.3066512 51.1816599,40.5049218 51.1869115,40.6353234 C51.1921632,40.7657249 51.081995,40.8439194 51.0137234,41.0369693 C50.9455684,41.2300193 51.0085884,41.1569294 51.09775,41.0891763 C51.1869115,41.0213072 51.1606532,41.0579681 51.1554015,41.1569294 C51.1501499,41.2562388 51.1030016,41.4543934 51.0506017,41.5900156 C50.9980851,41.7256379 50.9718268,42.0280905 50.8774135,42.1689334 C50.7828836,42.3097764 50.6569604,42.3618674 50.4731522,42.3462053 C50.3729038,42.3377361 50.2584175,42.3618674 50.1399633,42.3957439 C50.1399633,42.3957439 49.7786489,42.3335596 49.6568104,42.247128 C49.5352052,42.1606963 49.2916447,42.2125553 48.7176963,42.3507299 C48.1438646,42.4891365 48.2483144,42.6619997 48.0570371,42.8175766 C47.8657599,42.9732695 47.3962612,43.1287304 46.943918,43.1115601 C46.4919249,43.0942738 45.8310323,43.0942738 45.4658666,43.3017097 C45.1005843,43.5091455 45.3266392,43.4571706 45.2398117,44.0450216 C45.1528675,44.6327565 45.1528675,44.2871461 45.0135234,44.6673292 C44.8745294,45.0476283 44.7875852,45.2206075 44.6310856,45.566334 C44.4745861,45.9121765 44.4745861,46.0331807 44.2833088,46.2924756 C44.0919149,46.5516544 44.370253,46.7764926 44.4398084,47.0012148 C44.5093637,47.226053 44.0049707,47.8310743 43.7092437,47.9693649 C43.4137502,48.1076555 43.2920283,47.9693649 42.8225296,47.813788 C42.3529142,47.6582111 41.9181932,47.761929 41.5181332,47.917622 C41.1181899,48.0731989 41.0832955,48.2632324 40.8747462,48.6090749 C40.6660801,48.9548014 40.5087636,48.8346092 40.4707182,48.9861256 C40.4327896,49.1375259 40.5847377,49.8190015 40.556262,50.1693686 C40.5277863,50.5193876 40.3662685,51.0495789 40.1383463,51.2579429 C39.9103075,51.4661908 39.5587961,51.4471643 39.1599032,51.3620088 C38.7608935,51.2768534 38.7989389,51.4755881 38.5044956,51.5134092 C38.2099357,51.5512303 38.2479811,51.6744388 37.9345151,51.8636603 C37.6210492,52.0528817 37.5735508,51.9867528 37.421486,51.9961501 C37.2695379,52.0056633 37.1366125,51.5607435 37.2030169,51.3051612 C37.2695379,51.0495789 37.3170363,50.9549101 37.0225931,50.7276356 C36.7281498,50.5004771 36.7945542,50.2922291 36.8041239,50.150342 C36.8135769,50.0083389 36.8990039,49.8569386 37.0225931,49.5729324 C37.1460655,49.2889263 36.6806514,49.5824457 36.4052309,49.3362606 C36.1296937,49.0901915 36.3481628,48.9197646 36.4337066,48.6926061 C36.5191336,48.4654476 36.3102342,48.3612656 36.110671,48.3518683 C35.9112245,48.342355 35.5881889,48.2571996 35.2842926,48.096286 C34.9802797,47.9353724 34.8852829,48.0679782 34.6762668,48.1436203 C34.4673673,48.2193785 34.1348787,48.200352 33.8783641,48.2951367 C33.6219662,48.3898054 33.620099,49.2810372 33.5613971,49.748232 C33.5025784,50.2155428 33.326356,50.1960522 33.1305273,50.2738986 C32.9345819,50.3518611 32.6212327,50.001378 32.2687878,49.9235315 C31.9162261,49.8456851 31.7203974,50.3323705 31.3483463,50.507554 C30.9761785,50.6828536 30.4866068,50.8190559 30.0752265,50.7801907 C29.6639629,50.7413254 29.0176583,50.1570709 28.6456071,49.6703855 C28.2734393,49.1837001 28.2538331,49.3783743 28.1167063,49.3977489 C27.9796963,49.4172395 27.8229633,49.6508949 27.7054428,50.001378 C27.5879222,50.3518611 27.372604,50.6050071 27.3137854,50.8385465 C27.2549668,51.0722019 26.687087,51.0916925 26.2953129,51.0527113 C25.9036556,51.0138461 25.8779808,50.2892127 25.7996726,50.0868815 C25.7214812,49.8845503 25.7527578,49.666673 25.7527578,49.3087649 C25.7527578,48.9508568 25.5492267,48.81071 25.5492267,48.81071 C25.5492267,48.81071 25.439642,48.297109 25.1735577,48.1882863 C24.9073568,48.0793477 24.9073568,47.9236548 24.813527,47.7058935 C24.7195806,47.4880162 25.0326964,47.0988999 24.7978888,46.7409919 C24.5629644,46.3829677 24.4221031,46.2273908 24.0151576,46.0406057 C23.6080953,45.8539366 23.9524877,45.4338442 23.71768,45.1380044 C23.4828724,44.8422807 23.3575327,44.7022499 22.8253642,44.5154648 C22.5350268,44.413582 22.3657988,44.4599154 22.213515,44.5230868 L22.0630214,44.587005 C21.9867406,44.6169046 21.9060155,44.6400655 21.8078253,44.6400655 C21.4476779,44.6400655 21.4007631,44.5777651 21.0093391,44.4377343 C20.6180319,44.2977035 20.3832242,44.39098 20.2109696,44.5154648 C20.0388318,44.6400655 18.9013216,44.6749862 18.6553104,44.8305631 C18.4091824,44.986256 18.2973804,45.1641079 18.2302758,45.6310707 C18.1631712,46.0980334 18.1407641,46.2092924 17.9842646,46.6318212 C17.8276483,47.0542339 17.8723458,47.0765089 17.8947529,47.4323288 C17.91716,47.7880326 17.4474279,48.1215774 17.1790096,48.3217043 C16.9105912,48.5219472 16.8210796,48.4996722 16.4631496,48.7219581 C16.1053363,48.9443599 16.2618358,48.9666349 15.9263129,49.1667618 C15.59079,49.3668887 15.1881625,49.1667618 14.9197442,49.2334708 C14.6513259,49.3001798 14.6960233,49.0778939 14.3829075,48.810942 C14.069675,48.5441062 14.0025704,48.7219581 13.6447571,48.6552491 C13.2868271,48.5885401 13.175025,48.6330901 12.6828859,48.766508 C12.1907467,48.899926 11.9447355,48.855492 11.6763171,48.922201 C11.4078988,48.9889099 10.9828642,49.0333439 10.6473413,48.855492 C10.3118184,48.6775241 10.3341088,48.6775241 9.99858589,48.833217 C9.66317969,48.9889099 9.77498176,49.0778939 9.26043549,48.922201 C8.74600593,48.766508 8.20916927,48.899926 7.69462301,48.6330901 C7.18019345,48.3662543 7.31440261,48.2551113 7.11308887,47.8992915 C6.91177512,47.5434717 6.68805428,46.898657 6.73286847,46.3648693 C6.77756596,45.8311976 6.73228495,45.8171597 6.70240882,45.6690078 C6.6726494,45.5208559 6.64288998,45.417254 6.41928584,45.2395181 C6.19579841,45.0616662 5.94255155,44.8542303 5.59979301,44.7654784 C5.25703448,44.6764944 5.06330647,44.8690803 4.83981903,44.8838143 C4.6162149,44.8986643 4.69078851,44.5877425 4.67585045,44.4246246 C4.66091238,44.2616227 4.63115296,44.1579047 4.36296804,44.0395688 C4.09466641,43.9210009 4.18406139,43.698715 4.09466641,43.5209791 C4.00527144,43.3432433 3.94563589,43.3283933 3.36456856,42.9730375 C2.78338453,42.6174497 3.05156945,43.0469394 2.58965652,43.0914894 C2.12774359,43.1359234 2.21702186,43.0617894 2.06810804,43.0173555 C1.91907751,42.9730375 1.78498505,43.0025055 1.50174536,43.0914894 C1.21873908,43.1804734 1.15910353,43.1507734 1.01007301,43.0617894 C0.86115919,42.9730375 0.756709449,42.8840535 0.473586465,42.7064337 C0.190580184,42.5285818 0.0711923798,42.3506139 0.0616226829,42.2748557 C0.0521696896,42.1993295 0.15661943,41.9626577 0.0425999927,41.763807 C-0.071419445,41.5650723 0.0711923798,41.4229532 0.147049733,41.2716689 C0.223023791,41.1201525 0.327590235,41.0253678 0.432039976,40.8551729 C0.53660642,40.684746 0.365635615,40.5237164 0.318137242,40.1546708 C0.270638868,39.7853931 0.660078851,39.7759959 0.802457268,39.7476881 C0.945069093,39.7192642 1.25841832,39.2554339 1.32505608,39.1417386 C1.39157715,39.0282754 1.95198793,38.4035314 2.1989328,38.110128 C2.44587766,37.8164925 2.44587766,37.4380497 2.58837278,37.3148411 C2.7308679,37.1918646 3.07280951,37.0781693 3.21530463,36.9837326 C3.35779975,36.8889479 3.57626893,36.8605241 3.83278349,36.7280343 C4.08918134,36.5955445 4.09863434,36.4440281 4.40276397,36.3872965 C4.7066602,36.3305649 4.55471209,36.302141 4.74470558,36.4156043 C4.93458237,36.5292996 5.0676245,36.5577234 5.29554667,36.4818492 C5.52358555,36.406091 5.82759848,36.1128036 6.02704497,35.9234662 C6.22649146,35.7341287 6.15296818,35.5516362 5.98071363,35.3647351 C5.80857579,35.17795 5.96519205,34.9600727 6.12169161,34.7266493 C6.27819116,34.493342 6.54439212,34.3842873 6.82611466,34.15098 C7.10795391,33.9175566 7.51501614,33.4505938 7.64023912,33.310447 C7.76546211,33.1704162 8.34466218,32.6723613 8.73608612,32.5478765 C9.12739336,32.4235078 9.44050918,32.5635386 9.86320969,32.5635386 C10.2859102,32.5635386 10.2545169,31.8788146 10.4111332,31.7075756 C10.5676327,31.5363366 10.833717,31.3341214 11.0686414,31.1784285 C11.3034491,31.0229676 11.679118,30.9760973 11.9296807,30.9606672 C12.1801267,30.9451211 12.1644884,30.5249127 12.3679028,30.2758272 C12.5714339,30.0269738 12.8218799,29.7623422 13.0568043,29.6067653 C13.291612,29.4511884 13.8551737,29.5912192 14.0116733,29.5912192 C14.1682896,29.5912192 14.1368963,29.4667345 14.246481,29.0619561 C14.3560657,28.6572937 14.4030972,28.5484711 14.2778743,28.5484711 C14.1526513,28.5484711 13.7768656,28.9219253 13.3385268,29.1396865 C12.900188,29.3576798 12.4774875,29.3576798 11.9922338,29.4667345 C11.5069802,29.5754411 11.3190874,29.8246426 10.9434184,29.902373 C10.5676327,29.9801035 10.5207179,29.8400726 10.1919638,30.2914893 C9.86320969,30.74279 9.62840201,30.5093666 9.36220105,30.5715509 C9.09611679,30.6337353 8.79863926,30.7272439 8.37593875,30.9606672 C7.95335494,31.1939746 7.34276159,31.8942447 6.99836921,32.1899684 C6.65397682,32.4856922 6.77919981,32.5169004 6.43480742,32.3613235 C6.09041504,32.2056305 6.21563802,31.3341214 6.34086101,30.9760973 C6.46608399,30.6181892 6.43480742,30.3380116 6.49747727,29.8869429 C6.56003041,29.4354103 7.02964578,29.2019869 7.26445346,29.0775022 C7.49937785,28.9530174 7.53065442,28.4551945 7.73406883,28.0349861 C7.93759995,27.6147776 8.07846122,26.8676372 8.03154636,26.4474287 C7.9845148,26.0272203 7.82801525,25.7783668 7.53065442,25.6070118 C7.23317689,25.4358888 7.28020845,25.3270662 6.93569936,25.2025814 C6.59130698,25.0779807 6.71652996,24.797803 6.65397682,24.5489496 C6.59130698,24.2998641 6.54439212,24.3309563 6.34086101,24.113079 C6.13732989,23.8952018 6.30958444,23.770717 6.26255288,23.4594472 C6.21563802,23.1482934 6.10605332,22.8526857 6.23127631,22.3079925 C6.35649929,21.7631832 6.85750794,21.1873979 6.93569936,21.0161589 C7.01400749,20.8451519 7.49937785,20.1759739 7.74982382,19.9423186 C8.00026979,19.7090112 8.37593875,19.0708094 8.57946986,18.8529322 C8.78300098,18.6351709 9.06484022,18.479594 9.55009388,18.5262323 C10.0352308,18.5728705 10.0509858,18.2771468 10.3641016,18.2150784 C10.6772174,18.152662 10.7868021,18.0127472 10.7711639,17.6702692 C10.7555256,17.3279072 10.974695,17.2035385 11.3973955,16.9232448 C11.8199793,16.6431832 11.7574262,16.1451283 11.8357343,15.8184284 C11.9140424,15.4916124 12.1801267,15.242643 12.6184655,14.9313732 C13.0568043,14.6199873 12.8648268,14 12.8648268,14 C12.8648268,14 12.9166239,14.0025944 13.0172967,14.0076385 L13.0351322,14.0108901 C13.1339736,13.6972853 13.4154672,12.8331453 13.5419611,12.7484083 C13.6968071,12.6445625 13.9807684,12.5407167 14.0064992,12.2552858 C14.0323453,11.9698549 13.90323,11.4507419 14.5743064,11.0355908 C15.2452674,10.6203236 15.6065364,10.4646129 15.8646515,10.4646129 C16.1227667,10.4646129 16.8541892,10.5264563 16.8541892,10.2373125 C16.8541892,9.94816865 16.7608431,10.0565396 16.8254585,9.65171501 C16.8901892,9.24700647 16.8901892,9.04453618 17.0914198,8.97225022 C17.2927658,8.89996426 17.264035,8.83498812 17.3430734,8.56742566 C17.4221118,8.29997922 17.6090348,8.09031514 17.8246884,7.94585925 C18.0403421,7.80128734 18.3638803,7.59162326 18.4860725,7.77228013 C18.6082647,7.95305304 18.6801493,8.01814521 18.8023415,8.27108804 C18.9245337,8.52414691 18.895803,8.69761 19.0035721,8.79878713 C19.1114566,8.89996426 19.0826105,9.09512475 19.3055334,8.95774662 C19.5283409,8.82048452 19.5859178,8.72650117 19.7008408,8.62532404 C19.7583599,8.57473547 19.9346098,8.3972984 20.1397779,8.19126021 L20.4579922,7.87303304 C20.5638088,7.76799432 20.6656285,7.66808625 20.7522245,7.58558976 C21.0986089,7.25571981 21.4449932,6.9440664 21.60907,6.57729929 C21.7731468,6.21076423 21.9189928,6.11910146 22.1559926,5.95410848 C22.3929924,5.78911549 22.4476847,5.75245038 22.5570692,5.3491342 C22.6664538,4.94581801 22.794069,4.83582268 23.2679533,4.7074948 C23.7420683,4.57916693 23.6143376,4.45083905 24.5258753,4.52416926 C25.4374131,4.59749948 25.7291051,4.7074948 26.2395663,4.65249714 C26.749912,4.59749948 26.9686811,4.50583671 27.643219,4.52416926 C28.3177569,4.54250182 29.2839869,4.45083905 29.6121405,4.4691716 C29.9402941,4.48750416 29.9219479,4.37750883 30.1226016,4.15751818 C30.3231399,3.93752754 30.468986,3.58920901 30.5964858,3.27767162 C30.7241011,2.96590217 30.7058704,2.39770903 31.0522547,2.15938582 C31.398639,1.92106262 31.3804083,1.88439751 31.8179464,1.75606963 C32.2554845,1.62774176 32.5289458,1.62774176 32.8570994,1.33442089 C33.0682531,1.145642 33.2662529,0.976588002 33.4459066,0.816932341 C33.5972911,0.682338907 33.7240987,0.562365104 33.7599833,0.53022512 C33.7889448,0.504118635 33.8209063,0.436241773 33.8312909,0.337153158 C33.8520602,0.138975929 34.1425984,0.0397712852 34.2774829,0.00322220597 C34.4123674,-0.0332108444 34.4539058,0.248507138 34.4539058,0.384144832 Z" id="形状结合"></path>
            </g>
        </g>
    </g>
</svg>