<?xml version="1.0" encoding="UTF-8"?>
<svg width="120px" height="120px" viewBox="0 0 120 120" version="1.1" xmlns="http://www.w3.org/2000/svg" xmlns:xlink="http://www.w3.org/1999/xlink">
    <title>jdo_cn_ximalaya_radio_province_Jiangsu</title>
    <g id="jdo_cn_ximalaya_radio_province_Jiangsu" stroke="none" stroke-width="1" fill="none" fill-rule="evenodd">
        <g id="编组">
            <rect id="矩形" x="0" y="0" width="120" height="120"></rect>
            <g id="江苏-" transform="translate(22.916073, 26.000000)" fill="#FFFFFF" fill-opacity="0.2" fill-rule="nonzero">
                <path d="M41.3671511,64.1065558 C41.290644,64.2896168 41.3160581,64.1661201 41.3671511,64.4064952 L41.6391614,64.3682417 C41.6541187,64.3636089 41.6754295,64.3552699 41.6903867,64.3511666 C42.140693,64.2467305 41.7048145,64.6464732 43.0248921,64.6826089 C43.3728801,64.6908155 43.2921373,64.6335014 43.5134518,64.8014728 C43.5264236,64.8098118 43.5408514,64.8268869 43.5538232,64.835623 C43.7580626,64.9928728 43.8366875,64.931323 43.91518,65.2286151 C44.2104867,65.2033334 44.2658153,65.1540935 44.6650286,65.1540935 C44.6949431,65.0946616 44.7372999,64.9375442 44.7394178,64.9292052 C44.8308821,64.7420408 45.0393572,64.6231769 45.1902535,64.4783695 C45.4473066,64.6676516 45.2667605,64.7420408 45.7150812,64.7783089 L45.7999273,64.4804873 C46.2610874,64.4783695 46.4653269,64.4018624 46.8412439,64.4018624 L46.8412439,64.6272803 L47.0666617,64.6272803 C47.1808928,64.3403126 47.4384754,64.4064952 47.774021,64.5253591 C48.0547675,64.6251624 47.7186924,64.6738728 48.1353778,64.5781728 C48.3881953,64.5187409 48.1483496,64.4892234 48.5666235,64.4783695 C48.6157309,64.9266902 48.5242666,64.5125197 48.8112343,64.835623 C49.0578305,65.11584 48.8877413,64.9716944 48.9559094,65.3666719 C49.0154737,65.7130715 49.4104513,66.0594711 49.5143579,66.3805889 C49.570216,66.552796 49.5547293,66.6675566 49.695301,66.7988628 C49.7822649,66.880135 49.839579,66.8986661 49.9290579,66.9415524 C50.3329039,67.1349379 50.409411,67.1029055 50.725896,67.4193906 C51.4910989,68.1886968 51.3804417,68.1484578 52.4109043,68.2843968 C53.6776387,68.4503826 53.9046449,68.0956441 54.7164403,68.078569 C54.5913553,68.2652038 54.5230548,68.5480681 54.5654117,68.7544254 C54.6016797,68.9307357 54.6125337,68.6990967 54.6399333,69.0517175 C55.0163797,68.9643565 54.848276,68.9006889 55.3901789,68.9006889 C55.3901789,68.7989001 55.3818399,68.7032001 55.3798544,68.6075001 L55.3901789,68.3758611 C55.6326718,68.4395287 55.5540469,68.3800968 55.6093756,68.6075001 L55.6326718,68.8903644 C55.6771465,69.1194884 55.7686108,69.0961922 55.7536536,69.2895776 C55.7536536,69.2983137 55.7433291,69.3194922 55.7433291,69.3298166 C55.7195034,69.6251233 55.9237428,69.6400805 55.9491569,69.9311515 C55.9831747,70.3308942 55.9004465,69.9932307 56.0488278,70.2625938 L56.3658423,71 C56.7334203,70.9704826 56.6590311,70.8898722 56.8668444,70.5262652 C57.3301224,69.7165876 57.3580514,69.6550378 57.9335751,69.5656913 C58.0824859,69.5423951 58.0059788,69.5573523 58.1248427,69.52532 C58.4820962,69.4276345 58.2463539,69.457549 58.6904389,69.5744274 C58.7199564,69.2280279 58.7519887,69.370188 58.9154597,69.1241212 C59.1940883,69.197981 59.0131452,69.2006283 59.2897883,69.274488 C59.2111634,68.90691 59.3807232,68.9218673 59.374502,68.5227864 C59.3684132,68.1210582 59.3068634,68.0082831 58.9898489,67.9255549 C59.3321452,67.4131694 59.5022344,67.691798 59.8146161,67.7745262 C60.3414294,67.4219055 60.0544617,67.575052 60.1884153,67.2498308 C60.5648617,67.2176661 60.6775045,67.0119707 61.032243,67.152013 C61.0596426,67.1623375 61.7906953,67.6193943 61.9903019,66.7926416 C62.0927525,66.3676171 61.8481418,66.637642 61.9096916,66.1298894 C61.9520484,65.7792541 61.9758741,65.9747574 61.911677,65.6769358 L61.31246,65.4519151 C61.5932065,65.3775259 61.6206061,65.2901649 61.6867887,65.0010794 C62.3646305,65.0010794 63.4395679,64.8868483 63.9350106,65.0010794 C63.8667102,64.6763877 63.7969537,64.7761911 64.3088097,64.7761911 C64.3088097,64.0109882 64.1577811,63.7048276 64.1577811,62.9019007 L64.4577205,62.9019007 L64.6086168,62.5281015 C64.7043168,62.8827077 64.6552093,62.6893222 64.8444915,62.710633 C64.9359558,62.7209575 65.2223939,62.750872 65.2906944,62.7446509 C65.6582724,62.710633 65.4561508,62.6236691 65.4287512,62.5492799 C65.3542296,62.3578799 65.2736193,62.3087725 65.0569375,62.3046691 C65.0802338,62.0285554 65.1820226,61.8563484 64.9503836,61.6650808 C64.8361525,61.5693808 64.910674,61.61187 64.7569981,61.5570708 L64.7569981,61.331653 C64.8998201,61.2850604 64.8423736,61.2720887 64.8485948,61.2674559 C65.0528342,61.1274136 65.2373512,61.100014 65.3501263,60.8641393 C65.4670047,60.617543 65.4349724,60.6598999 65.2839437,60.4324966 C65.6324612,60.4029791 65.4157794,60.5131069 65.5838831,60.2814679 C65.3309334,60.1475144 65.443179,60.2752468 65.2839437,60.0565796 C65.711086,60.0203115 65.7280288,59.9882792 65.9788607,59.7758331 C66.3122885,59.4954837 66.4467715,59.7628613 66.4844956,59.306334 L66.6355242,59.306334 C66.688735,59.5250012 66.6251997,59.4148734 66.7864205,59.5317518 L67.188281,59.4081227 C67.460159,59.3104373 67.4348773,59.3999161 67.4622769,59.0809161 C67.700137,59.2065306 67.8257515,59.1723804 68.067715,59.015263 C68.2611005,58.8921634 68.4653399,58.6626423 68.5863216,58.4795813 C67.4110516,57.857068 67.6090698,57.5023294 66.7332097,56.6606195 C66.1913068,56.1420129 65.4349724,55.8002461 64.9188807,55.252122 C64.8377408,55.1667465 64.7528948,55.0541038 64.6893595,54.9564183 C65.394601,54.7676656 65.9834935,53.9279412 66.6588205,53.6265457 C66.8929744,53.5221096 67.2073416,53.3054279 67.4560557,53.3136345 C67.9849868,53.3287242 68.5713644,53.8644059 68.8138573,54.2040548 C69.3066527,54.8948685 69.1220034,55.0437793 70.0821801,55.1838216 C70.5815938,55.2562254 70.7729938,55.591771 71.2191967,55.6956776 C71.9269531,55.859678 72.5282879,56.2655096 73.2103655,56.5524772 C73.9031646,56.8435481 75.0252239,57.3621548 75.7795729,57.3555365 C76.1560194,57.3534187 76.5298185,57.3534187 76.9057355,57.3534187 C76.9057355,56.0297672 77.1311533,53.0504926 76.6529181,51.8328657 C76.4382218,51.2842122 76.1771978,51.1125346 75.8007513,50.7362205 L74.7893493,49.7972222 C74.1415543,49.1829156 72.6560203,49.0257982 71.7378033,48.9492911 C70.7522125,48.8665629 70.971012,48.8619301 70.0827096,48.6561023 C70.0827096,48.1396135 69.9357843,47.5128646 69.8763523,47.0620289 C69.7998453,46.471548 69.8592772,45.863992 69.7786668,45.2859534 C69.4916992,43.2244987 69.2901071,43.5497199 66.776096,42.8165494 L65.3837471,42.3340784 C64.8377408,42.0600826 63.4778214,40.8424557 63.2607425,40.7828913 C63.2607425,38.5559802 63.1842355,36.3673226 62.8042152,34.4930322 C62.6402148,33.6895758 62.028026,33.0033949 61.5353629,32.3871028 C61.3460808,32.1512281 61.320799,32.2086746 61.21676,31.8813356 C60.9511032,31.0483617 60.9231742,31.1968754 61.1082206,30.6870049 C61.4122634,29.8478099 60.9552065,29.8561489 60.453675,29.7965846 C59.6527335,29.701017 59.8864904,29.7051203 59.8884758,28.1136942 C59.8905937,26.082154 59.1465692,25.1132412 58.4541672,23.4001715 C58.1563456,22.6648832 57.7442929,22.1209948 57.3110618,21.4710819 C57.1915361,21.2926537 57.134222,21.1990716 57.0070191,21.0248791 C56.8177369,20.765311 56.8689622,20.8336114 56.7371266,20.544526 C56.2396984,19.462838 56.5457266,18.1475256 55.628039,17.0042879 C54.7779901,15.9458962 54.7904324,16.5854846 54.7159108,14.8430299 C54.6993652,14.4329626 54.6419187,13.122283 54.4397972,12.8714511 C54.0681158,12.4081731 53.5753204,12.2190233 53.0396387,11.9470129 C52.2619935,11.5515059 51.2925512,10.8782968 50.4745346,10.6890146 C50.2620886,10.6399072 49.9708853,10.6144931 49.7884861,10.5504283 C48.9937658,10.2721968 49.8649931,10.1067404 47.5996961,9.66477316 C46.6286654,9.47549101 46.1716086,9.21380512 45.4514099,8.74020265 C45.0941564,8.50657817 44.590507,8.32550266 44.358868,7.95792466 C43.9932755,7.37776825 44.446229,6.34942347 43.8258336,5.79256332 C43.683541,5.66536042 43.4876406,5.64418199 43.3010058,5.56966042 C42.5849104,5.27858947 42.0853643,4.88096459 41.2694656,4.52622601 C40.9081088,4.36910859 40.8506623,4.26718743 40.6613801,3.93375964 C40.5110133,3.66333765 40.6231266,3.33189534 40.6231266,2.99833518 C40.6231266,2.7476356 40.6169055,2.49270034 40.6190233,2.24398624 C40.6231266,1.67005099 40.6764698,1.93584019 40.7741552,1.57448336 C40.6764698,1.43020535 40.5745486,1.32153357 40.4405951,1.15819499 C39.8543499,0.43587841 40.4468162,0.273995843 39.2741935,0 C39.2147615,0.165985887 39.2804146,0.0724037323 39.157315,0.18253153 C38.9406333,0.37432862 38.5109761,0.295174265 38.2814549,0.357253517 C37.8864773,0.465395837 38.0311524,0.416685465 37.8884628,0.639588363 L37.739552,0.867124041 C37.6185703,1.05839167 37.6656923,0.722316576 37.6226736,1.12404478 C37.0535035,1.12404478 36.2225151,1.20266967 35.6957019,1.29836967 C35.3998658,1.35158046 34.9283811,1.27507341 34.8136206,1.31332693 C34.7220239,1.3453593 34.6625919,1.42596967 34.4883994,1.51293357 C34.1144679,1.70009788 34.1461032,1.4896373 34.1672816,2.02068625 C34.1740322,2.19276093 34.1822388,2.36496798 34.1651637,2.53717503 C34.0571538,3.61052396 33.349265,3.64877749 33.349265,4.64720775 L32.8244372,4.64720775 L32.8244372,4.87275795 C33.0432368,4.92596874 32.933109,4.8623011 33.0499874,5.02365421 C32.7820804,5.58051436 33.2366223,5.548482 32.2997418,5.548482 C32.4609625,5.78832763 32.422709,5.60169278 32.4506381,5.92228115 L32.1528165,6.00765667 L32.150831,6.29872762 L32.6036522,6.4449911 C33.0074982,6.54479441 32.7567986,6.47450852 33.0499874,6.67252678 L31.9279281,7.36069315 C31.4988003,7.55407862 31.6854352,7.26764045 31.3607435,7.18438278 C31.1817858,7.13990809 31.2883397,7.25056535 30.6528547,7.19735456 C30.6466335,6.9021803 30.6740331,7.02104419 30.5784655,6.8235554 C30.164295,6.8235554 30.336502,6.84883714 30.0726983,6.92124088 C29.701017,7.02316204 29.8963879,6.92746204 29.5309278,6.89794461 C29.5220593,7.23150477 29.3478668,7.41191846 29.0696353,7.48644003 C28.9822743,7.50960393 28.803846,7.49927945 28.7061606,7.49927945 L28.7061606,8.39790639 C28.1389759,8.38506697 28.3261403,8.18956366 28.1921867,8.86330223 C28.1007224,9.32247691 28.3494365,9.69839391 28.3405681,10.2019109 C28.3323614,10.8441466 27.9564444,10.586564 27.9564444,11.549388 C27.4269838,11.5938627 27.839566,11.8322524 27.2294951,11.7618341 C26.9425274,11.7303312 26.6875922,11.6237773 26.3049245,11.6237773 C26.2625677,12.004327 26.0883752,11.8705059 25.7377399,11.9635586 C25.5293972,12.0188872 25.5614295,12.108366 25.3297905,11.9977088 L25.3297905,12.3720374 L24.9559914,12.3720374 C24.887691,12.1507229 24.8857055,12.3460938 24.656052,12.3720374 C24.7496341,11.9722947 24.8070806,11.6730171 24.8070806,11.173471 C24.7134984,11.1113918 24.5841777,11.037532 24.4886101,10.9671138 L24.133342,10.7226354 L24.5862955,10.2743146 C24.7346769,10.1067404 24.8309063,9.82811175 24.8835877,9.59859059 C24.7264702,9.56232254 24.6778922,9.55821922 24.5076707,9.5199657 L24.2502205,9.44756196 C24.239896,9.44544412 24.2187175,9.4413408 24.2057458,9.43935533 L23.457618,9.29918064 L23.457618,9.07376281 C23.7533217,8.99513791 23.8381678,8.7764707 23.9084537,8.47441345 L23.6851537,8.10683545 C23.680918,8.01113545 23.9762246,7.82661844 23.4663541,7.79657156 C23.0584047,7.77340766 23.3092367,7.88552093 22.8965222,7.81788234 C22.7161085,7.78836492 22.7394047,7.77539313 22.6737516,7.80080724 C22.4570699,7.88141761 22.8753437,7.66063256 22.6034657,7.84726741 C22.1804267,8.13886781 22.8753437,7.79035039 22.4844695,7.94760018 C22.3889018,7.71132841 22.2652728,7.87307861 22.1846624,7.57380102 L21.1371247,7.6627504 L21.1350069,7.94760018 C20.8350674,7.94760018 19.7368339,7.95792466 19.5605235,7.87307861 C19.5605235,8.46832465 19.6877264,8.38917029 19.5605235,8.99725575 C19.4793837,9.37568769 19.6345156,9.5772798 19.6345156,10.046779 C19.096716,10.0023043 18.9059779,9.59647275 18.0600323,9.59647275 C18.0539435,9.84929017 18.0559289,9.83843623 17.9603613,10.0214972 C17.9541401,10.0339395 17.754004,10.3166715 17.7436796,10.3296433 C17.5120406,10.5804752 17.3398335,10.5716067 17.010509,10.4950997 C16.8445232,11.2070918 16.6511377,11.0560632 16.2602634,10.7950391 C15.9478817,11.0054997 16.1754174,10.9754528 15.8098248,10.8694283 C15.5208717,10.7841852 15.5762004,10.7185321 15.3616365,10.9459354 C15.3507825,10.4677001 15.3801676,10.7738607 15.1129224,10.5927852 C15.0001473,10.518396 15.0384008,10.5504283 14.9510398,10.4547283 L14.617612,10.0385723 C14.445405,9.78985822 14.521912,9.75372254 14.1630701,9.66887648 C14.1630701,8.58308523 13.3512747,9.21804081 12.5881897,9.21804081 L12.380244,10.3209072 C12.2695868,10.6781607 12.0653474,10.1554507 12.3652868,10.7185321 C11.9573374,10.6843818 12.1651507,10.5504283 11.9914876,10.7929213 C12.3569478,10.8332926 12.2225972,10.8203208 12.1418544,11.1667204 C11.1626171,11.1667204 11.8363557,11.2282702 11.4769843,10.7123109 C11.2965706,10.4547283 11.2965706,10.5716067 11.145542,10.4397711 C10.7929213,10.131625 10.8865034,9.36073043 10.729386,8.90565908 L10.4185926,7.9429674 C9.90872212,7.9429674 10.0706047,8.06037528 9.66887648,8.09386366 C9.42638354,7.59034667 9.50911176,7.35248651 9.96828643,7.04434046 C9.86014411,6.88298735 9.82189058,6.89542967 9.72420511,6.76557947 C9.50077275,6.47503799 9.67920096,6.63837657 9.54326196,6.34730562 C9.43723748,6.11976995 9.50752337,6.3090521 9.43048686,6.16014131 C9.32247691,5.94557742 9.33068354,5.75629527 9.06965949,5.62035627 C8.58096738,5.36542101 8.24489229,5.56343926 8.24489229,4.12251233 C7.89015371,3.88465217 7.47968941,3.85248744 7.07849066,3.56565218 C6.75115167,3.33189534 7.00185125,3.33864596 6.52163051,3.29774513 C6.17099526,3.26822771 6.12188779,3.17888123 5.77138489,3.14936381 L5.77138489,3.44877376 C5.10174964,3.44877376 3.96526254,2.93890323 3.34897044,3.34897044 C2.72645718,3.76314097 1.85311198,3.80814512 1.12404478,3.7485808 C1.09465972,4.09511274 1.02225599,4.0903476 0.839194996,4.28836585 C0.595113676,4.55164012 0.722846037,4.90624633 0.635485044,5.28891395 L0.599216995,6.2216911 C-0.301924887,6.2216911 0.131835681,6.25372347 0,6.8209081 C0.265789204,6.79972968 0.148910784,6.77855125 0.259038582,6.82302594 C0.497428201,6.92124088 0,6.64261225 0.331442314,6.87213341 C0.748127779,7.15910104 0.0594319485,6.81270146 0.448320734,6.97193673 L0.448320734,7.12296535 C0.250831943,7.20145788 0.338192936,6.9594944 0.272010365,7.35658983 C0.244610781,7.52257571 0.348517417,7.39484335 0.248714101,7.68181098 C0.146263481,7.97499977 -0.0956999972,7.7986894 0.29940995,8.17248856 C0.528931105,8.08976034 0.573405792,7.95580682 0.975133996,7.94760018 C1.04131657,8.22583171 1.05786221,8.31729602 1.29413399,8.45323502 C1.50869788,8.5763346 1.6085012,8.49148855 1.72537962,8.77183792 C1.91466177,9.22677691 1.56614435,8.97184165 1.88726219,9.28422338 L2.24398624,9.63684412 C2.24610408,9.64094744 2.24398624,9.66212586 2.2502074,9.6729798 L2.70104307,9.6729798 C2.85405718,9.96405075 2.86027834,10.1001221 3.22587086,10.1978076 L3.22587086,10.4232254 L2.8520717,10.574254 C3.61475965,10.574254 3.73574138,10.7970246 4.42642269,10.7991424 C4.87064011,10.8012603 5.16793221,10.8441466 5.50811063,11.0669171 C5.828699,11.2773777 5.60791394,11.077771 5.72691021,11.3730777 C5.76304589,11.4625565 5.78832763,11.5746698 5.86907037,11.6812237 C6.0629853,11.936159 6.43678446,12.2169055 6.80859814,12.1362951 C7.03189813,12.0870552 7.15910104,11.9470129 7.5670504,12.0002237 C7.82873629,12.0338445 8.0561396,12.156944 8.32814996,12.2210088 C8.30697154,12.475944 8.27070349,12.4950046 8.17712134,12.671315 L8.47441345,12.756161 C8.48116407,13.6915855 7.95382134,13.6745104 8.93980928,14.464995 C9.07164496,14.5710195 8.9439126,14.715827 9.30129848,14.5457377 C9.30129848,14.9494514 9.39898396,14.9154336 9.42228022,14.9494514 C9.76245864,15.4189506 9.35662711,14.6542772 9.52618686,15.0704332 C9.36073043,15.1832083 9.21804081,15.2851294 9.17356612,15.5507863 C9.08051343,16.1076464 9.66265532,16.1563568 10.0023043,16.3202248 C10.1999254,16.4159248 9.91348726,16.2711174 10.0958864,16.3775389 L10.5783574,16.5709244 C10.5422217,17.010509 10.4785541,16.6769489 10.3529395,17.021363 C11.0985524,17.021363 10.7205175,16.9939634 10.8735316,17.1976734 C11.0115885,17.3786165 11.781027,17.5761053 12.0638913,17.5419551 C12.2996337,17.5120406 12.2505262,17.4526086 12.4206154,17.425209 C12.7881934,17.3636592 12.6056619,17.3698804 12.6775361,17.5481763 L13.0518648,17.5481763 C13.0876034,17.2105128 13.0157291,17.3528053 13.4386357,17.2638559 L13.5999888,17.253002 C13.8848386,17.3316269 13.9019137,17.5632659 13.8021104,17.7735941 C14.1951025,17.7819331 14.0741208,17.8242899 14.1972203,18.0539435 C14.2121776,18.083858 14.2634029,18.4023285 14.7302548,18.2622862 C15.0047801,18.179558 15.0384008,18.0073509 15.2789083,17.8988115 L15.3895655,17.8589696 C15.7313323,17.7244866 15.535829,17.7271339 15.8269,17.6226978 L16.0967925,17.9541401 C16.1051315,17.9690974 16.1138676,17.9902758 16.1200887,18.0052331 L16.2581456,18.4659961 C16.3775389,18.7358887 16.4179103,18.5745356 16.4262493,18.9721604 C16.8491559,18.9634243 16.6641095,18.8527671 16.8744377,18.6577932 L17.1081945,18.3469999 C17.1019734,18.3108642 17.0740443,18.323836 17.0275841,18.1475256 C17.3056833,18.2219148 17.4013833,18.3852534 17.6076082,18.5403854 C17.6903364,18.6045824 17.7669758,18.6257609 17.852219,18.672221 C17.852219,18.914714 17.7968904,19.1335135 17.8139655,19.2607164 C17.8434829,19.4690592 17.996497,19.4969882 17.852219,19.7963982 C18.2514322,19.8899803 18.3025252,20.0662907 18.3025252,20.5466438 C18.7741422,20.536187 18.4747322,20.485094 18.7255642,20.4338687 C18.8910206,20.3997185 18.9463492,20.4126903 19.0166351,20.5765583 L18.7912173,22.6080985 C18.6401887,23.0134006 18.7317853,22.5931412 18.604053,22.945762 L18.90386,23.3960682 C19.6112193,23.3811109 19.1779882,22.9224657 19.9173799,22.9689259 C20.6825828,23.0180334 20.4276475,23.1116155 21.0031712,23.245569 C21.0325562,22.8965222 20.9224284,23.1137333 21.1540674,22.945762 C21.4178712,23.1220724 21.3180678,23.0966582 21.7534168,23.0966582 L21.7534168,22.646352 L22.0532238,22.646352 C22.155145,22.9012873 21.9297272,22.8096906 22.7353014,22.7310657 C23.1178367,22.6928122 23.1535753,22.6422487 23.4446462,22.5356948 C23.8717885,22.3805628 23.9591495,22.558991 24.1484317,22.6525732 L24.5010524,22.7481408 C24.6177985,22.7673338 24.7072773,22.7926155 24.9027806,22.7972483 L24.9027806,23.0966582 C24.6261375,23.1028794 24.1715956,23.2770719 24.6773628,23.3220761 L24.6602877,24.0765574 C24.6240196,24.3185209 24.7134984,24.1167964 24.5516159,24.316403 C24.384174,24.5289814 24.1096487,24.826803 23.8506101,24.8944416 C24.1758312,25.570298 23.8506101,26.468925 23.8506101,27.2935598 C23.5423317,27.1302212 23.506196,27.0681419 23.0258429,27.0681419 C22.9642931,27.3298278 22.9260396,27.2873386 22.8411935,27.4849598 C22.775011,27.6399594 22.7394047,27.8333448 22.6924151,28.0158764 C22.571301,28.4900083 22.6965184,28.5727365 22.8009545,29.0189394 C22.3650761,29.3101427 22.7244475,29.3188788 21.9761873,29.3188788 C22.0485911,29.5887713 21.9824085,29.5184854 22.2761267,29.5442966 C22.2291371,30.0986419 22.175794,30.5339908 21.6004027,30.6683414 C21.7528873,30.9889298 21.6598346,31.0866153 21.5258811,31.3441978 C21.7936558,31.3441978 22.0227799,31.2526012 22.1462765,31.3415505 C22.3567371,31.4904613 22.1587189,31.6818613 22.1804267,31.8368609 C22.212062,32.0773684 22.3670616,32.1259464 22.5330475,32.2872995 C22.7812321,32.5317779 22.8666076,32.3001389 22.8769321,32.7676526 L23.0279607,32.7676526 C23.130279,32.461492 22.9963255,32.7763887 23.4953421,32.6424351 C23.670064,32.5954455 23.9374416,32.4573887 24.0822491,32.3979567 C24.9296507,32.0411003 24.1861557,31.9238248 24.8277296,31.494697 C25.2424296,31.6052219 25.4673179,31.9195891 25.4016648,32.3575854 C25.2739325,33.1946625 25.4994827,33.6047297 25.6845291,34.314604 C25.7802291,34.6823143 25.6313183,34.8373139 25.7201353,35.1222961 C25.8540889,35.549306 26.2579349,35.4215737 26.6276308,35.6176064 C26.3282208,36.0653977 26.1540283,35.8316409 25.5779752,36.216294 C25.6121254,36.6181545 25.7925391,36.9686574 25.803393,37.4148603 C25.9797034,37.3744889 26.0241781,37.3451039 26.2538316,37.3404711 C26.3433104,37.6744284 26.602349,37.7954101 26.506649,38.1842989 C26.4171702,38.5415524 26.3365598,38.2928383 26.7320669,38.6625341 C26.8530486,38.7751769 26.8065884,38.6604163 26.8551664,38.8409624 C27.4161299,38.6899337 27.4801946,38.5539947 27.4373083,39.244676 C27.424866,39.4421648 27.4310872,39.312447 27.4543834,39.5910756 C28.1177975,39.5910756 28.2217042,39.7121897 28.504039,39.2912686 C29.0845925,39.6805544 29.0397207,39.4933901 29.7686556,39.4256192 C30.1746195,39.3869686 29.9682622,39.4805507 30.3038078,39.4996113 C30.3297514,39.5017291 30.6058651,39.4572544 30.6099684,39.4551366 C30.8312829,39.3656578 30.7670858,39.4489154 30.8291651,39.2172764 C31.2113032,39.2172764 31.1606074,39.2172764 31.4326178,39.2912686 L31.8042991,39.3362727 C31.9423559,39.3574511 31.7960924,39.3233009 31.9444738,39.3786296 L32.2485165,39.4489154 C32.5799588,39.399808 32.142492,39.3021225 32.70147,39.2896802 C32.6906161,38.7943698 32.6228451,39.1046337 32.5080845,38.7287167 C32.4164878,38.4328806 32.5313808,38.2586881 32.5479264,38.0058707 C32.5587804,37.8615927 32.5395874,37.7742317 32.5333663,37.642396 C32.5205269,37.3533105 32.4294596,37.5342537 32.5696343,37.402418 C32.7350907,37.2453006 32.9133866,37.4340533 33.1517762,37.4893819 C33.3405289,37.362179 33.3983725,37.2979819 33.4511862,37.0901686 C33.5255754,36.8010832 33.6000969,36.7499902 33.4511862,36.4397263 C33.8678716,36.2401197 33.8870646,36.7670653 33.9760139,35.6894807 L34.5752309,35.6894807 C34.6052778,35.9614911 34.4925027,35.9086774 34.911306,35.9614911 C35.3322272,36.0147019 36.4665964,35.2712069 36.3879716,36.0426309 C36.3879716,36.0488521 36.3838682,36.0700305 36.3838682,36.0767811 L36.2267508,36.5162334 L36.677057,36.5162334 C36.6920143,37.1832213 36.9106815,37.2241221 37.2550956,37.5875968 C37.6589416,38.009974 38.0435947,37.865696 38.6257366,37.865696 C38.6257366,38.2757632 38.7788831,38.8196516 38.8594935,39.2064225 C38.9660474,39.7168225 39.0802785,40.2731532 38.5513474,40.413725 C38.666108,40.5834171 38.7726619,40.63451 38.8657146,40.778788 C39.0064188,40.9959992 38.944869,41.1273054 39.0084043,41.2658917 L39.0911325,41.425127 C39.0911325,41.4292303 39.0870291,41.4504087 39.0870291,41.4546444 L39.0105221,41.5822444 C38.9402362,41.7224191 38.9913292,41.4970013 38.9639296,41.7033585 C38.9422217,41.8542548 38.9639296,41.8160013 39.0016536,41.9860905 C38.9210433,41.9328797 38.8635968,41.9008473 38.7870897,41.8268552 C38.674447,41.7183158 38.6894043,41.7818511 38.6278545,41.6117619 L38.4769582,41.6117619 C38.4665014,42.1113079 38.4939009,41.7969407 38.3093839,41.9690154 L38.1010412,42.1371191 C38.2090512,42.2984722 38.2731159,42.3579042 38.3259296,42.5874253 C37.739552,42.6510929 38.4536619,42.7043037 37.8585483,43.2440888 C37.5632416,43.5119958 37.3083064,43.5072307 37.2783919,43.8624987 C36.832189,43.826363 37.0720346,43.779241 36.8957242,43.4203991 C36.8151139,43.2565311 36.8047894,43.3138452 36.7215317,43.1464033 C36.6578641,43.0186709 36.668718,42.9509 36.6046533,42.814961 C36.0012006,42.8274033 36.3393935,43.0398494 35.7060263,43.0398494 C35.6976873,42.6319 35.6553305,42.7295855 35.4211766,42.5005938 C35.1790807,42.2622042 35.3042981,42.1495614 34.8817886,42.1391046 C34.8115027,42.3216361 34.9346023,42.2472469 34.7432023,42.2497618 C34.4185106,42.2518797 34.7645131,41.752466 34.8073994,41.6887984 C34.7200384,41.6887984 34.6817849,41.6820477 34.5969388,41.7033585 C34.3565637,41.7627905 34.2375675,41.9586909 33.9806467,41.9608087 C33.9020218,41.9608087 33.7018857,41.9136867 33.628026,41.8268552 C33.4428472,41.6144092 33.5855368,41.8309585 33.6833546,41.4654984 C33.0840053,41.6055407 33.6771335,41.764776 32.933109,41.764776 L32.933109,41.4654984 L32.2572526,41.6163946 L32.2572526,41.3165876 C31.5902646,41.4717195 32.1213136,41.6820477 31.7427493,41.6293664 C31.5281854,41.5993195 31.6601534,41.5952162 31.4304999,41.5420054 L31.1140149,41.8247374 C30.9099078,41.6929017 31.0101082,41.6629872 30.6999767,41.5911129 C30.4300842,41.5290336 30.444512,41.6226158 30.155956,41.6909162 C30.155956,41.9949589 30.1813701,41.9328797 30.0815668,42.1412224 C30.3255157,42.2068755 30.5975261,42.4070116 30.7060655,42.6407685 L30.8312829,42.9659896 C30.6999767,43.0295249 30.5893194,43.0528211 30.4574838,43.1168859 C30.81209,43.8542921 30.7144045,43.5673245 31.8069464,43.5673245 C31.8069464,44.1071095 31.8875567,44.5703875 31.6559177,44.9167871 C32.1657883,45.2590833 31.7898713,45.2802617 31.9620783,45.6814605 L32.0318347,45.8175319 C31.7407638,45.9581036 31.6580356,46.1872277 31.3561107,46.2678381 L31.3561107,46.4188667 C31.6518144,46.5382601 31.4728568,46.433824 31.4899319,46.8205949 C31.5007858,47.0821484 31.5902646,46.9969053 31.6559177,47.2435015 C30.8332684,48.4714529 30.4744265,47.7026762 29.3798991,48.1912359 L29.1824104,48.2931571 L29.3333066,48.8179849 C29.2294,49.1090558 29.0888282,48.8246031 29.1824104,49.2688206 L28.3152863,49.7506297 C28.0966191,49.848977 27.9756374,49.8168122 27.7987975,49.9931226 L27.6906552,50.1524902 C27.6886697,50.1612263 27.6819191,50.1824048 27.6819191,50.1907438 C27.6141482,50.5691757 27.8649801,51.0024068 27.5970731,51.4957317 L27.4844303,51.7739632 L27.452795,51.8778699 L27.3122233,52.3431333 C27.5888664,52.4176549 27.4269838,52.4093159 27.6586228,52.522091 C27.7651768,52.5727868 27.7671623,52.5576972 27.8669656,52.6130258 L28.3896755,52.9150831 C28.5955033,53.0065474 28.5640004,53.0380503 28.8105967,53.0954968 C28.7997427,53.5628781 28.7294568,53.6502391 29.2609029,53.6947138 C29.2548141,53.9925354 29.0634141,54.5344382 28.9610958,54.7443694 C29.5158381,54.7573411 29.0950494,54.9697872 29.8602522,54.9697872 C29.8028058,55.1864689 29.8431771,55.0736938 29.7092236,55.1932195 L29.4859236,55.3435863 L29.9367593,55.5690042 L31.0608041,55.0443088 C31.139429,55.2081768 31.1926398,55.3400125 31.2118327,55.5690042 C31.5261999,55.5690042 31.515346,55.5375013 31.7366605,55.6435258 C31.7366605,56.1833108 31.7578389,55.8792681 31.5747779,56.081522 C31.4093215,56.266039 31.4728568,56.3110432 31.1373111,56.3172643 C31.2200393,56.6718705 31.1497534,56.6275282 31.2118327,56.9164813 C32.0380559,56.9356743 31.9087352,57.1139701 32.4869061,57.06751 C32.51007,56.7784245 32.5612953,56.7722033 32.5612953,56.3916535 C33.0581941,56.3514145 32.8327762,56.2153432 33.3110115,56.4661751 C33.2515795,56.6910635 33.3110115,56.6295137 33.0861231,56.6910635 C33.2112082,56.9273353 33.2092227,57.0803494 33.3110115,57.2908099 C33.9061252,57.2779705 33.3684579,57.0184025 33.9423932,57.1735344 C34.371521,57.288295 34.2081824,57.5690415 34.227243,57.683802 C34.227243,57.6879054 34.2334641,57.7070983 34.2334641,57.7112016 L34.3352529,57.9216622 C34.4609998,58.3146543 34.3183102,58.3125365 34.2846895,58.7142647 L34.5101073,58.7142647 C34.5101073,59.1604676 34.4521314,59.3518676 34.3590787,59.692046 C34.2293608,60.155324 34.4014355,60.4463949 34.0018251,60.8352837 C33.9402754,60.8947156 33.9169791,60.9117908 33.8658861,60.9856505 L33.5002936,61.2985617 C33.2773907,61.3579936 33.1818231,61.3409185 32.9372123,61.3409185 L32.9372123,61.0409791 L32.7117945,61.0409791 C32.5716198,61.5663364 32.2593704,62.0952675 31.9620783,62.5414704 C32.3337596,62.7901845 32.6906161,62.7711239 32.9098127,63.1682193 C33.1217293,63.5528724 33.1900297,63.4085944 33.213326,63.4660409 L33.3917542,63.5166044 C33.7230642,63.5637264 33.8911679,63.4235517 34.1439853,63.376562 C34.7711313,63.2637869 35.3233587,63.4571724 35.8885579,63.4825865 C36.2034545,63.4975438 36.0798255,63.4256695 36.3264218,63.3868865 C36.4304608,63.3703409 37.2106209,63.4400973 37.507913,63.4400973 C37.5182375,63.3062762 37.4846167,63.3785475 37.5420632,63.2488297 C37.6014952,63.1107728 37.5973918,63.1449231 37.6738989,63.0812554 L38.1222196,62.7049413 C38.3109723,62.5265131 38.4981366,62.4733023 38.7829864,62.4670812 C38.7829864,62.7711239 38.8082682,62.7095741 38.7085972,62.9173874 C39.1567856,62.9282413 38.9804752,63.032148 39.273664,63.0942272 C39.2866358,63.096345 39.3078142,63.1004484 39.3202565,63.1004484 L39.6113275,63.0750343 C39.6325059,63.0771521 39.5647349,63.1216268 39.8006096,63.1024338 C40.2468125,63.0662982 40.2468125,62.9535231 40.7312689,63.0662982 C40.7394756,62.7266492 40.8056581,62.769006 40.8056581,62.3905741 C41.1603967,62.4861417 41.0632407,62.7793305 41.2560967,63.0662982 L40.9566868,64.0419616 C41.3987863,64.15884 40.9737619,64.207418 41.406993,64.1164832 L41.3671511,64.1065558 Z" id="江苏"></path>
            </g>
        </g>
    </g>
</svg>