<?xml version="1.0" encoding="UTF-8"?>
<svg width="120px" height="120px" viewBox="0 0 120 120" version="1.1" xmlns="http://www.w3.org/2000/svg" xmlns:xlink="http://www.w3.org/1999/xlink">
    <title>jdo_cn_ximalaya_radio_province_hebei</title>
    <g id="jdo_cn_ximalaya_radio_province_hebei" stroke="none" stroke-width="1" fill="none" fill-rule="evenodd">
        <g id="编组">
            <rect id="矩形" x="0" y="0" width="120" height="120"></rect>
            <g id="河北" transform="translate(34.000000, 18.000000)" fill="#FFFFFF" fill-opacity="0.189284" fill-rule="nonzero">
                <path d="M42.985652,55.8927006 C42.9569659,55.9859783 42.9800842,56.0620186 42.9735482,56.1122638 C42.9654386,56.1768125 42.9275534,56.2106761 42.8721177,56.304565 C42.8435526,56.3529765 42.8088145,56.4381856 42.7909008,56.55029 C42.7731081,56.6621499 42.8233391,56.7855014 42.7804914,56.8495611 C42.7181565,56.942961 42.5854981,56.9491958 42.5608062,57.0111772 C42.5482182,57.0428403 42.4841887,57.0624005 42.4504189,57.1196141 C42.3859053,57.2290289 42.3284119,57.3929678 42.228676,57.4617953 C42.1376549,57.5248769 42.0146796,57.4276872 41.9849041,57.4625288 C41.9482294,57.5058057 41.8828685,57.6390596 41.7583197,57.7089873 C41.6171885,57.7884506 41.3440042,57.7527533 41.3195544,57.7665676 C41.2736807,57.7932184 41.2615769,57.7558095 41.0178049,57.7890619 C40.774033,57.8223142 40.6661875,58.0267183 40.6471845,58.075741 C40.6279393,58.124886 40.5291717,58.3940833 40.4302831,58.5338164 C40.3313945,58.6734274 40.3051291,59.0811353 40.2787427,59.154486 C40.2524773,59.2275923 40.2285116,59.5372547 40.0373915,59.6104831 C39.8462714,59.6838339 39.7522243,59.9002186 39.7455672,60.0000979 C39.7391522,60.0998549 39.6747596,60.3927688 39.576113,60.4793227 C39.4772244,60.5657544 39.1922993,60.4992497 39.0671453,60.452672 C38.9418703,60.405972 38.5598722,60.3927688 38.5005632,60.432745 C38.4412543,60.4727212 38.0985937,60.5990067 37.99329,60.6388606 C37.8878653,60.6787145 37.248781,60.7086661 37.2158585,60.7152676 C37.182936,60.7219914 36.4866004,60.6895949 36.400905,60.6831156 C36.3153306,60.6763917 35.7233304,60.7972982 35.6387243,60.8493772 C35.5541183,60.9017008 35.2448644,60.8672259 34.8759385,60.780672 C34.5070125,60.6942404 33.9519291,60.7667354 33.8991562,60.7667354 C33.8646602,60.7667354 33.804625,60.7644126 33.6636149,60.7969315 C33.5896603,60.8141689 33.2972308,60.726637 33.2495415,60.7403291 C33.1761921,60.7614786 33.0671362,60.8117239 33.0395394,60.944611 C33.0152106,61.0619722 33.0700412,61.2605082 33.0453493,61.3199223 C32.9924554,61.4464523 32.9201953,61.6209048 32.8872727,61.7275079 C32.8717798,61.7772642 32.8353471,61.8794662 32.7791852,61.9732329 C32.7604242,62.0045292 32.522099,61.8344778 32.4991016,61.8614953 C32.444029,61.9267774 32.4531069,61.9035497 32.4236945,61.9508609 C32.4056598,62.0628431 32.4061439,62.1868058 32.3660801,62.2976877 C32.3527659,62.3344853 32.349982,62.3531898 32.3009613,62.3916989 C32.1494209,62.5116274 32.0970111,62.599037 32.0774028,62.6522163 C32.0576735,62.7056401 31.8457348,62.9671355 31.8126912,63.0404863 C31.7798897,63.1134703 31.6973413,63.2789984 31.6644188,63.3720316 C31.6314963,63.4651871 31.4230677,63.680227 31.3028762,63.7628689 C31.1975726,63.8027228 31.1840162,63.8233832 31.051963,63.9231402 C30.9070797,64.0697195 30.8873504,64.2493066 30.7819257,64.4158128 C30.676501,64.5819522 30.4656516,64.8357458 30.2071129,65.1710809 C29.9485743,65.5062938 29.9057266,65.4205957 29.7672583,65.447002 C29.6289111,65.4736528 29.437912,65.034404 29.4115256,64.9814693 C29.3851392,64.9280455 29.3324873,64.5554237 29.3522166,64.3224128 C29.3621418,64.2062741 29.3275247,64.1263218 29.281409,64.0671522 C29.2352933,64.0082271 29.1775578,63.9698402 29.1413672,63.9367101 C29.0689861,63.8702055 28.8581367,63.8700832 28.7856345,63.949791 C28.7766776,63.9598156 28.768326,63.9713072 28.7458128,63.9942905 C28.6986077,64.1115294 28.693282,64.3094542 28.6068604,64.3852499 C28.5079717,64.4718038 28.4666975,64.563859 28.36793,64.710316 C28.2691624,64.8565285 28.2718253,65.1209579 28.2982117,65.2874641 C28.3244771,65.4538481 27.9752805,65.4869781 27.8699768,65.5335559 C27.7645521,65.5801336 27.7552321,65.8890625 27.7552321,66.0486004 C27.7552321,66.2082605 28.1287575,66.4934726 28.1532073,66.5982419 C28.1776571,66.7032558 28.0067505,66.9527706 27.839354,67.0090061 C27.6720785,67.0651194 27.3720236,67.0475153 27.1414449,67.0009375 C26.9107451,66.9543598 26.6472439,66.9609614 26.5088967,66.9678075 C26.3706705,66.9742868 25.9798365,67.1627982 25.8876051,67.2093759 C25.7953736,67.2559536 25.5083908,67.415736 25.4293526,67.5888438 C25.3503143,67.7615848 25.3089191,68.0108551 25.3221123,68.323696 C25.3353055,68.6364147 25.2918526,68.6552414 25.252273,68.7351937 C25.2128143,68.8149015 25.0206049,68.9748061 24.9481027,69.0213838 C24.8756005,69.0678393 24.8070926,69.2590403 24.7741701,69.3387481 C24.7412476,69.4187004 24.7372533,69.5603896 24.6055632,69.7000005 C24.5541218,69.7546468 24.5331821,69.7458447 24.5064325,69.7894884 C24.4646742,69.8574601 24.4414347,69.973232 24.4414347,70.0581966 C24.4414347,70.198052 24.4230369,70.4728728 24.3967715,70.5792314 C24.3851517,70.6256869 24.3119233,70.831069 24.2664128,70.9041752 C24.2207812,70.9771592 23.9748306,71.3373114 23.910559,71.4167747 C23.8462875,71.4963603 23.832126,71.4963603 23.7679754,71.5469723 C23.7038249,71.597462 23.5611203,71.691351 23.5326762,71.9081024 C23.5041111,72.1248539 23.5255349,72.1900138 23.4542432,72.3200891 C23.3829514,72.4500422 23.3543862,72.4861063 23.3115385,72.6088466 C23.2688119,72.7318313 23.1760962,72.9556733 23.0406539,73.0929615 C22.9052116,73.2302496 22.7054978,73.3675378 22.6556298,73.4904003 C22.6056409,73.6132628 22.5272078,73.7723116 22.5700555,73.8878391 C22.6127821,74.003611 22.6057619,74.0611913 22.505905,74.1118033 C22.4060481,74.1624154 22.2421617,74.1552025 22.1351635,74.2202402 C22.0281653,74.2851556 21.9354496,74.328677 21.8355927,74.4080181 C21.7357358,74.4876037 21.6858678,74.5526413 21.4719925,74.5526413 C21.257996,74.5526413 21.0869684,74.516455 20.9871114,74.6032533 C20.8872545,74.6899295 20.9299812,74.7115679 20.8088215,74.7186585 C20.6876617,74.7259936 20.6020874,74.7332064 20.6020874,74.8416433 C20.6020874,74.9500801 20.6020874,75.0582725 20.4736653,75.1015494 C20.3453643,75.1449486 20.2383661,75.1522837 20.2242046,75.2533855 C20.209922,75.3544872 20.2170633,75.3618223 20.1386302,75.4773497 C20.0601971,75.5929994 20.0173494,75.7518038 20.0173494,75.7518038 C20.0173494,75.7518038 20.0030669,75.8240543 19.853342,75.8675757 C19.7036171,75.9108526 19.5681748,76.0048638 19.5325895,76.2071897 C19.496883,76.4093932 19.5110446,76.5827455 19.3400169,76.662331 C19.1688682,76.7417943 19.111859,76.7779807 19.0904351,76.8358055 C19.0690113,76.8935081 19.0690113,76.9369073 19.0690113,76.9801843 C19.0690113,77.0235835 19.111859,77.0162484 19.0475874,77.1392331 C18.9834369,77.2620956 18.9549928,77.2908247 18.9620131,77.4064743 C18.9691543,77.5222463 18.9835579,77.5581881 18.8908423,77.7026891 C18.7981267,77.8471901 18.6555431,78.0278774 18.6555431,78.0278774 C18.6555431,78.0278774 18.5912715,78.1291014 18.57711,78.2446289 C18.5628274,78.3601563 18.4558292,78.5552693 18.4558292,78.5552693 C18.4558292,78.5552693 18.3702549,78.7287438 18.4629705,78.7432917 C18.5556862,78.7575951 18.7624203,78.7575951 18.7411174,78.8803353 C18.7196936,79.0031978 18.6911285,79.0755706 18.755279,79.1549116 C18.8194295,79.2346194 18.839885,79.2491673 18.8379484,79.246111 C18.8361328,79.2432993 19.0261636,79.4415908 19.0385095,79.6025957 C19.0507344,79.7639673 19.6420084,80.5362284 19.7402919,80.5362284 C19.8384542,80.5362284 19.9774067,80.6191148 20.247444,81.1273132 C20.5173603,81.6353893 20.4049153,81.5507915 20.453936,81.8852709 C20.4846798,82.0944428 20.5088876,82.2642497 20.522807,82.3620507 C20.5339426,82.4412695 20.5580293,82.4398025 20.4972679,82.4772114 C20.3659409,82.5580195 19.9358904,82.8187814 19.8115837,82.8501999 C19.6644006,82.8873643 19.4557299,83.0980032 19.3575675,83.3707457 C19.2592841,83.643366 18.9034303,83.4575441 18.7562473,83.2962947 C18.6089432,83.1351676 18.4003935,82.6889506 18.2285186,82.3420015 C18.0567647,81.9949302 17.848094,82.0817286 17.6271983,82.1435878 C17.4063027,82.2055691 17.4922402,82.118893 17.1730612,81.9204792 C16.8541242,81.7221877 16.878574,82.1684048 16.7804116,82.2800201 C16.6822493,82.3916355 16.4245579,82.465842 16.2282331,82.4783117 C16.0317873,82.490659 16.0955747,83.2409149 16.0981165,83.2418929 C16.090128,83.3273465 16.0641046,83.3114539 15.980709,83.3327256 C15.8973133,83.3538751 15.9077227,83.3855381 15.9234577,83.4805274 C15.9390717,83.5753943 15.9234577,83.6019228 15.87129,83.5701375 C15.8192434,83.5387189 15.7983037,83.5544894 15.7722804,83.5701375 C15.746257,83.5860302 15.7358477,83.6019228 15.6838011,83.6071796 C15.6316334,83.6124364 15.6420427,83.6863984 15.6056101,83.7919013 C15.5691774,83.8975263 15.5066004,83.8342002 15.4337351,83.7549814 C15.3607488,83.6758848 15.2929671,83.7338319 15.2357158,83.8025371 C15.1784645,83.8711201 15.1523202,83.8606065 15.1054782,83.8289434 C15.0585152,83.7971581 15.0534315,83.7761309 15.0168779,83.8342002 C14.9804452,83.8921473 14.9388079,83.8868905 14.8814356,83.9132968 C14.8241843,83.9398253 14.8085703,83.9186758 14.7929563,83.9714883 C14.7772212,84.0241786 14.7461143,83.9926378 14.7147653,83.9661093 C14.6835373,83.939703 14.7268692,83.8489926 14.7268692,83.8489926 C14.7268692,83.8489926 14.9092745,83.4774711 14.8183744,83.2660987 C14.7311055,83.0637729 14.7119814,82.8810073 14.5977209,82.7973874 C14.4839445,82.7141343 14.3601219,82.7003199 14.2831413,82.7017869 C14.1921202,82.7034985 14.2129389,82.6954299 14.2085815,82.7697586 C14.2053134,82.8262387 14.1887311,82.9026457 14.1236123,82.9080248 C13.8958175,82.9268515 13.5013524,82.9931116 13.2545545,82.926118 C13.0003732,82.8571683 13.0388635,82.6437176 12.9390066,82.6215901 C12.8790924,82.6081425 12.8303139,82.7646241 12.7425608,82.7591228 C12.7084279,82.7570445 12.6128073,82.6910288 12.5256595,82.7006867 C12.4658663,82.7074105 12.4205979,82.7891966 12.3600785,82.7934754 C12.2440024,82.8017885 12.1593964,82.7756267 12.0588132,82.7956759 C11.7530695,82.8566793 11.5237012,83.0948247 11.4645132,83.0464132 C11.4382478,83.0250192 11.4070199,82.9938452 11.3720397,82.9561918 C11.3369384,82.9182939 11.3181774,82.8334515 11.2767822,82.7858958 C11.1938707,82.6910288 11.0802154,82.6234239 10.9852,82.5273344 C10.7949272,82.3352777 10.5838357,82.5088745 10.3497469,82.2577704 C10.1157791,82.0064219 10.0049076,82.0102117 9.85869288,81.9510421 C9.71235709,81.8918725 9.60669031,82.0369847 9.58671893,81.8234118 C9.56662651,81.6097166 9.48637785,81.6301325 9.42610058,81.7114296 C9.36594435,81.7928489 9.19515875,81.7928489 9.10486389,81.6404016 C8.9650642,81.4043345 8.85274029,81.3474877 8.60896836,81.4297628 C8.49603926,81.4677829 8.36689097,81.4133811 8.2809535,81.3370963 C8.19489499,81.2608115 8.13038136,81.2663128 8.05521633,81.2716919 C7.97993027,81.2771932 7.92606805,81.2499312 7.83468383,81.2281705 C7.74317858,81.2062875 7.63424376,81.3198589 7.58958048,81.3209591 C7.54479616,81.3219372 7.25853965,81.5875891 7.1926946,81.5875891 C7.15614091,81.5875891 7.25103525,81.3581235 7.118861,81.3413751 C6.98668674,81.3245044 6.90837471,81.1747467 6.76639632,81.1714459 C6.59609488,81.1676561 6.46246816,81.210444 6.39117637,81.2269479 C6.20102458,81.2712029 6.15321429,81.2740147 6.03278079,81.1723016 C5.91234729,81.0707109 5.67135925,80.8568934 5.79179275,80.7960123 C5.91234729,80.7350089 5.96415185,80.7987018 5.98714921,80.7244953 C6.04052727,80.7232728 6.02793925,80.646499 6.02793925,80.646499 C6.02793925,80.646499 5.90835302,80.5587226 5.79481872,80.5119004 C5.68116339,80.4649559 5.70391866,80.4077424 5.69556699,80.3182545 C5.68709428,80.2286443 5.67862158,80.2416029 5.59873604,80.2628746 C5.51872946,80.2842686 5.50190508,80.220209 5.46825632,80.1819443 C5.43460757,80.1434352 5.40095881,80.0964907 5.3336613,80.0923342 C5.26636378,80.0881776 5.23683034,80.0753412 5.20318158,80.1008917 C5.16953283,80.1264423 5.19059356,80.1989372 5.23259399,80.2798676 C5.27459441,80.3609201 5.30836421,80.4375717 5.3336613,80.5357394 C5.35883735,80.6337849 5.26200639,80.5997991 5.21576961,80.5400182 C5.16953283,80.4803596 5.04328947,80.3012615 4.98857998,80.1862231 C4.93387049,80.0710624 4.88351839,80.0837766 4.86233662,80.1008917 C4.84127589,80.1178847 4.84127589,80.1733867 4.81186349,80.3140979 C4.78245108,80.4546868 4.70668086,80.4887949 4.6730321,80.5101889 C4.63938335,80.5315829 4.57208583,80.5357394 4.56349209,80.5101889 C4.55514042,80.4846384 4.46690321,80.4035858 4.42054539,80.3309686 C4.37430861,80.2585958 4.30701109,80.1689857 4.21018014,80.1349998 C4.11347022,80.101014 4.02499094,80.0837766 3.92404467,80.1178847 C3.82297736,80.1519928 3.8525108,80.220209 3.87357153,80.3352474 C3.89451122,80.4505303 3.66320628,80.4249798 3.56637532,80.4077424 C3.46954437,80.3908717 3.42330759,80.3908717 3.38965883,80.3140979 C3.35588904,80.2373241 3.17784112,80.097591 3.11550619,80.0354873 C3.04070428,80.0331646 2.85890416,80.0015015 2.77562954,79.9463662 C2.74815375,79.9281507 2.73544469,79.9071235 2.72019381,79.8780277 C2.64841787,79.7413508 2.50789194,79.3749639 2.3654294,79.2516124 C2.3044259,79.1989221 2.13242992,79.2311964 1.95619758,79.121537 C1.80937764,79.0298486 1.70310567,78.8906044 1.55882754,78.8111411 C1.41467046,78.7314333 1.25695704,78.7859574 1.15467934,78.671408 L1.10638491,78.4166364 C1.10638491,78.4166364 0.87338542,78.2441399 0.810203222,78.1654101 C0.747021023,78.0866803 0.92434271,77.8672393 0.94661383,77.83741 C0.96888495,77.8073362 1.1808237,77.6234703 1.22911814,77.5256693 C1.27753362,77.4279906 1.05324892,77.2196744 1.02359444,77.1710185 C0.993818921,77.122118 0.77231811,77.1864221 0.737822083,77.006835 C0.703326055,76.8274925 0.833926806,76.6395923 0.838889392,76.6395923 C0.84373094,76.6395923 0.440430011,76.5084167 0.254514577,76.4670958 C0.0687201816,76.4257749 0.0859076762,76.1960648 0.152721035,76.1774826 C0.219655433,76.1585337 0.348077488,75.8810233 0.418764085,75.7646402 C0.436314696,75.7355444 0.527819948,75.5903099 0.425300174,75.5557128 C0.373858729,75.5383531 0.224860097,75.6107258 0.135291463,75.6211172 C0.045601791,75.6313863 0.0153421175,75.579674 0.00493278981,75.5625588 C-0.0369465983,75.4939759 0.200652358,75.2830925 0.234301115,75.2521629 C0.359455125,75.1372468 0.485698483,75.2503292 0.574782962,75.2951954 C0.664109518,75.3403061 0.7547675,75.1906706 0.855108577,75.0404238 C0.955449654,74.8902993 1.29605254,75.0513041 1.32933818,75.059984 C1.36238174,75.0690306 1.54853926,74.7165802 1.87425438,74.6812496 C2.19996951,74.6460413 2.10689075,74.2699965 2.06029085,74.0234157 C2.01393303,73.7765904 2.14622833,73.589057 2.47206449,73.4364875 C2.79765858,73.2837957 2.30394175,73.8919956 2.84510575,73.9155901 C3.38614871,73.9389401 3.10449167,72.8900244 3.01153395,72.6550575 C2.95767173,72.5188696 3.18413513,72.2902598 3.21669454,72.0016246 C3.2315823,71.8703268 3.07992081,71.7670245 3.10316024,71.6588322 C3.11671658,71.5946502 3.20289613,71.573623 3.21185299,71.523989 C3.24271786,71.3556491 3.02496925,71.2686062 2.97183326,71.0371846 C2.92487025,70.833025 3.04445648,70.7267887 3.02811625,70.5780089 C3.01068668,70.4194491 3.03949389,70.2314266 3.14358717,70.0913267 C3.2475594,69.9509823 3.42705979,69.8583158 3.51444972,69.8408339 C3.68886648,69.8056256 4.07534303,69.0914338 4.07534303,69.0914338 C4.07534303,69.0914338 4.21599,68.8689365 4.31161056,68.6010841 C4.36910394,68.4405682 4.33872323,68.2137921 4.40904671,68.059022 C4.47489176,67.9278465 4.46496659,67.9132986 4.49147406,67.8904376 C4.49450003,67.8878703 4.62982129,67.6373775 4.73294626,67.5650048 C4.79491807,67.5213611 4.8294141,67.6610943 4.8610052,67.6225851 C5.09957246,67.3830949 4.88327632,67.4884755 4.96207251,67.1467833 C5.04328947,66.7944552 5.29311333,66.6788055 5.3978118,66.6434749 C5.50251028,66.6081443 5.66167616,66.3966496 5.73308899,66.0490894 C5.80438078,65.7016513 6.11508711,65.3322081 6.11508711,65.3322081 C6.11508711,65.3322081 6.43027187,64.8603183 6.63930569,64.3810934 C6.68263754,64.2815809 6.54780044,64.1905037 6.59887877,64.0754653 C6.61352445,64.0424575 6.62853325,64.0089606 6.64378412,63.9747303 C6.96949925,63.2462351 6.93887646,63.2931796 6.66835498,63.1469671 C6.47457203,63.0419533 6.1917046,62.8148105 5.86477909,62.8775254 C5.81854231,62.8863275 5.80547013,62.9530766 5.76080685,62.9593114 C5.66228135,62.9727591 5.56968675,62.9774046 5.49234302,62.9623677 C5.19930835,62.9051541 5.39297026,62.6071056 5.59692046,62.4116259 C5.64412555,62.3663929 5.76165412,62.4443892 5.79433457,62.3981782 C5.96875132,62.1514752 5.56653974,61.7909563 5.28742452,61.7322757 C5.00818825,61.6734729 5.01496642,61.3814147 5.08480574,61.14657 C5.15464507,60.9116031 4.94319047,60.5527957 4.81537361,60.4353123 C4.78341939,60.4060942 4.70922267,60.3570715 4.64640359,60.2651386 C4.45758323,59.9892175 4.20207055,59.4941 4.14990287,59.3268603 C4.12157981,59.2362721 4.2047334,58.835777 4.14639275,58.6751389 C4.06142358,58.4399275 3.89027487,58.2523941 3.83508123,58.2105842 C3.77698265,58.1665737 3.63657777,58.0615599 3.57000649,57.8550775 C3.53018476,57.7309925 3.69310284,57.5202314 3.70399632,57.4232862 C3.73328768,57.1641135 3.38639079,57.2224274 3.23521346,57.2341635 C3.11235918,57.2438213 2.78567575,57.282086 2.66136901,57.1230371 C2.6325618,57.0863617 2.69368634,56.9990743 2.68049312,56.9441835 C2.61077483,56.6502915 2.33940608,56.7523713 2.23482865,56.7759658 C2.13013018,56.7993158 2.00219228,56.6348879 1.89749381,56.5057906 C1.83951628,56.4342736 1.6781717,56.4309728 1.54708679,56.4409974 C1.54841822,56.4397749 1.38138482,56.4771838 1.36891783,56.4644697 C1.35645085,56.451511 1.27922816,56.4357406 1.26385625,56.4180142 C1.15625285,56.2925844 0.986919715,56.0607961 0.895414462,55.9570047 C0.766992408,55.8109145 0.985346212,55.4316912 1.00144436,55.1881667 C1.0175425,54.9446422 0.752588803,54.633635 0.719666278,54.4990364 C0.686622715,54.3643156 0.904129248,53.8392465 1.18796499,53.6174827 C1.47192176,53.3954745 1.15346896,53.4891189 1.02492586,53.0345888 C0.948671488,52.7649025 1.02892014,52.4523061 1.08108782,52.2518141 C1.09621766,52.193867 1.13192407,52.1444775 1.1717458,52.1109806 C1.17501385,52.1156262 1.28649048,52.0342069 1.33212207,51.9838393 C1.37775366,51.9334718 1.45654985,51.830903 1.49310353,51.6903141 C1.51089622,51.6220979 1.46780645,51.4899443 1.48789887,51.4273517 C1.53026241,51.2956871 1.59114488,51.2374955 1.61523158,51.1729469 C1.68494986,50.9848022 2.18508175,51.1892063 2.4189285,51.0712338 C2.65277526,50.9530169 2.41771812,50.4323488 2.63970308,50.2680432 C2.72987691,50.2014162 2.94145255,50.621227 3.05934424,50.5152352 C3.23170334,50.3600983 3.36823498,49.7757374 3.40963022,49.761923 C3.45768258,49.7457858 3.64275074,49.8817292 3.77286734,49.7023866 C3.83205526,49.6209673 3.78424497,49.291867 3.87502399,49.1743835 C4.16575894,48.798461 3.85178457,48.6925914 3.54930887,48.5516357 C3.24683317,48.41068 3.3166725,48.340141 3.29331203,47.9995491 C3.2700726,47.6585904 3.1421347,47.2826678 3.07229538,47.0947676 C3.00257709,46.9067452 3.5725483,46.6483061 3.64238762,46.6247116 C3.71222695,46.6012394 4.02341743,46.2804521 4.18270435,46.026414 C4.34199128,45.7722537 4.25363303,45.7029372 4.57716946,45.8700547 C4.90082693,46.0370499 4.73294626,45.5316632 5.02380224,45.437652 C5.31465822,45.3438853 5.29420268,45.6614941 5.4337603,45.2266464 C5.57331791,44.791921 5.82931475,44.9861782 5.82931475,44.9861782 C5.82931475,44.9861782 6.23636788,45.6261635 6.480745,45.8727442 C6.72500109,46.1196917 6.87617841,46.0255583 6.91103756,45.9316693 C6.94601774,45.8376581 7.06403047,45.9316693 7.26180769,45.9432832 C7.45958492,45.9551415 7.58752282,45.8529395 7.69669972,45.7607621 C7.80587662,45.6687069 8.08329731,45.6805653 8.47243671,45.679465 C8.86169715,45.678487 8.94678735,45.4264049 8.94678735,45.0622185 C8.94678735,44.698032 9.0961491,44.4954617 9.16586739,44.4602533 C9.20302627,44.4415489 9.47814722,44.4713782 9.68814936,44.3498605 C9.87333856,44.2426461 10.0722051,44.0091463 9.84247369,43.8284589 C9.62254638,43.6557179 9.55355433,43.4031468 9.53854553,43.2128017 C9.52414192,43.0288135 9.55234394,42.9590081 9.60293811,42.8207419 C9.65401644,42.6814978 9.74503754,42.4931086 9.89657799,42.4547217 C10.031173,42.4208581 9.95431344,42.2552077 9.95189267,42.0438353 C9.9494719,41.8320961 10.0214899,41.5745128 10.028147,41.5405269 C10.0364987,41.4979835 10.162621,41.2888116 10.2368178,41.0537225 C10.3110145,40.8185111 10.2214458,40.7088517 10.2920114,40.3808516 C10.362577,40.053096 10.4613445,39.9248545 10.3766174,39.6397646 C10.2920114,39.3546747 10.1365977,39.2546732 9.92502208,39.1550384 C9.7133254,39.0551591 9.27577052,39.2121297 9.27577052,38.6275243 C9.27577052,38.0431633 8.95114475,37.8008614 9.07823538,37.4158922 C9.20520497,37.0309231 9.14880093,36.1615945 9.06419489,36.0046239 C8.9794678,35.8477755 8.81001363,36.1043809 8.34425674,36.0474118 C7.87862088,35.9904427 8.09019652,36.1471688 7.46926802,35.8335944 C6.84821848,35.5200199 6.62248131,35.4344441 6.43898665,35.3205059 C6.25549199,35.2064455 5.87446218,35.0922628 5.71916954,34.7645073 C5.56387689,34.4366294 5.57803842,34.3795381 5.18284708,34.2514188 C4.78777679,34.1229327 4.32189885,34.0516603 4.49135302,33.7382081 C4.66068616,33.4245114 5.05587749,33.1394215 5.05587749,32.9682697 C5.05587749,32.7973625 4.91474638,32.4553035 5.25341264,32.3127586 C5.59219995,32.1702136 5.73333106,32.39809 5.7897351,32.4693624 C5.84626017,32.5406349 5.88850267,32.1274257 5.86030065,31.8706981 C5.83209864,31.6140927 6.10019935,31.4858512 6.38246158,31.3860942 C6.66484485,31.2862149 6.9753091,31.2720338 7.22936932,31.2150647 C7.48342954,31.1579733 7.79389379,30.8159144 8.07615603,30.7446419 C8.35841826,30.6732472 8.41482229,30.5877935 8.95114475,30.5023399 C9.4874672,30.4167641 9.68512339,30.4594297 9.89669903,30.260038 C10.1085167,30.0602794 10.0943552,29.8036741 9.76972944,29.8036741 C9.4452247,29.8036741 9.23340698,29.9605224 8.93710426,29.8036741 C8.6406805,29.646948 8.35841826,29.6754325 8.21728714,29.3618581 C8.07615603,29.0482836 7.87862088,28.4496193 7.89266137,27.9934999 C7.90682289,27.5373805 8.019752,26.8246558 7.72332823,26.5108368 C7.42690447,26.1973847 7.13048071,25.6984773 6.96114758,25.3276893 C6.79181444,24.957268 6.21312845,24.3299969 6.0155933,24.1018761 C5.81793711,23.8737553 5.57803842,23.2750909 5.59219995,23.1183648 C5.60624044,22.9615165 5.49343237,22.3627299 5.3946648,22.2772763 C5.29577619,22.1917004 4.77361526,21.265036 4.42078747,20.9658872 C4.06795967,20.6664939 3.68680883,20.1960711 3.78569744,19.9394658 C3.88446501,19.6828604 4.15256572,19.3835894 4.44898948,19.1697719 C4.74541324,18.9558323 5.12644305,18.7991062 5.04183701,18.4997129 C4.95710992,18.2004418 4.81585776,18.114866 4.5901206,17.6587466 C4.3642624,17.2025049 4.35022191,16.9745064 4.46302997,16.6894165 C4.57595907,16.4043266 4.61832261,16.3472352 4.29369684,16.2046903 C3.96907106,16.0621453 3.96907106,15.6772984 4.19492926,15.3636017 C4.42078747,15.0500273 4.98531194,14.7220272 5.33813973,14.6082113 C5.69096752,14.4941509 6.22728998,14.451363 6.52371374,14.4656664 C6.82001646,14.4798475 6.9753091,14.6223925 7.13048071,14.2517267 C7.28577336,13.8811832 7.46926802,13.4392449 7.38454093,13.1256705 C7.29993488,12.8119738 7.00351112,11.7428867 7.08823821,11.3580398 C7.17296529,10.9730706 7.24340981,10.8306479 7.49747003,10.5883459 C7.75153025,10.3459217 7.6669242,10.4314976 7.99142894,10.0180439 C8.31605472,9.60471244 8.34425674,9.23404667 8.71136709,9.10580511 C9.07823538,8.97744131 9.47342671,9.09150172 9.61455783,8.63538233 C9.75568895,8.17926294 9.68512339,7.86556625 9.9532241,7.4522348 C10.2214458,7.0387811 10.2920114,6.81078253 10.7577683,6.82496367 C11.2234042,6.83926707 11.2799292,6.98181202 11.7597266,6.96750862 C12.239524,6.95332748 12.3666146,6.99611541 12.6489979,6.86775161 C12.9312601,6.7393878 13.0440682,6.56835831 13.3546535,6.72520666 C13.6651177,6.882055 14.031986,7.01029656 13.9896225,7.40944687 C13.94738,7.80859717 13.7780468,7.80859717 13.975582,8.09368707 C14.1731171,8.37877697 14.3566118,8.66386687 14.3707733,9.17695534 C14.3849348,9.69028831 14.3002078,9.98955935 14.3425713,10.2889526 C14.3849348,10.5883459 14.6530355,10.303256 14.3849348,10.844829 C14.1167131,11.3865243 14.1590766,11.4293122 14.1731171,11.7144021 C14.1872787,11.9993698 14.3002078,12.4557337 14.2014402,12.7408236 C14.1026726,13.0257912 14.0885111,13.1113671 14.4695409,13.2111241 C14.8505707,13.3110034 15.2035195,13.4107604 15.5139838,13.3537913 C15.824448,13.2967 16.2054778,13.253912 16.4878611,13.3822758 C16.7701233,13.5105174 16.9612434,13.5749438 17.1290031,13.4110049 C17.2967627,13.247066 17.4157437,13.2196817 17.5077331,13.1103891 C17.5997226,13.0010965 17.5618374,13.0611218 17.5618374,12.7933916 C17.5618374,12.5256614 17.6483801,12.3070762 17.810693,12.164898 C17.9730059,12.022842 18.0433294,12.0392237 18.3896211,11.9190507 C18.7359128,11.7987555 19.455972,11.6400734 19.7739406,11.3366458 C20.0919093,11.0333405 20.1979392,11.0333405 20.6396094,10.6764891 C21.0812796,10.3196377 21.2403244,10.248243 21.5229497,9.94493765 C21.8055751,9.64163231 21.8055751,9.73087572 22.2295736,9.49884286 C22.6535722,9.26693225 22.6535722,8.99920203 23.2188229,9.03477714 C23.7841946,9.07059676 23.7311797,9.10629412 23.9255678,9.4631455 C24.1198349,9.81999688 23.9962544,9.81999688 24.2081932,10.1768483 C24.420253,10.5338219 24.367238,10.7300351 24.4908185,10.9442193 C24.6145201,11.1582812 24.4555963,11.2118273 24.8442515,11.1761299 C25.2329068,11.1404326 24.9501604,10.6586404 25.0561903,10.3731838 C25.1622202,10.0877271 25.321144,9.98063501 25.5332038,9.87354292 C25.7451425,9.76645083 25.6038904,9.92708897 25.921859,9.53441797 C26.2398277,9.14199148 26.1869337,9.01705071 26.6284829,8.73159406 C27.0701531,8.44613741 27.0701531,8.14270982 27.47648,8.10713471 C27.8828069,8.07143735 28.13021,7.91079921 28.1654322,8.26765059 C28.2007755,8.62450197 27.9181502,8.85653483 28.3244771,8.6958967 C28.730804,8.53538081 28.730804,8.39259136 29.031101,8.58892686 C29.331519,8.7851401 29.2960547,8.89210994 29.6671593,8.90995862 C30.0381429,8.92792956 30.0027996,8.92792956 30.4267982,8.83868615 C30.8507967,8.74944274 30.6387369,8.67804802 30.9214833,8.46398609 C31.2041087,8.24980191 31.0298129,8.21361554 31.3157063,8.18158572 C31.6017208,8.14943364 31.718281,8.21361554 31.8877352,8.05322191 C32.0573104,7.89270603 32.2372949,7.9141 32.2585978,7.6144622 C32.2797795,7.3148244 32.2903099,7.17582474 32.0573104,6.88694505 C31.8243109,6.59806537 31.2309792,6.45894345 31.1357218,6.12727583 C31.0404643,5.79560821 31.0720554,5.57091042 31.4110848,5.49597041 C31.7501142,5.42115265 32.2797795,5.64572818 32.3433248,5.54951645 C32.4068702,5.45318248 32.5022486,5.33545453 32.322022,4.95036311 C32.1420375,4.56514945 32.0678408,4.09435991 32.1313861,3.80548022 C32.1949314,3.51660053 32.3009613,3.27050878 32.4704155,3.03517514 C32.6398696,2.79971924 33.1483532,2.47868748 33.4766101,2.29689988 C33.8052302,2.11499003 33.9216694,2.06144399 34.2287446,1.99726209 C34.5359408,1.93308018 34.8010155,1.93308018 35.224651,1.96523226 C35.6484074,1.99726209 36.0083765,2.0722021 36.3475269,2.09359606 C36.6865563,2.11499003 36.9090254,2.08296021 36.9090254,1.91156396 C36.9090254,1.74053447 36.7182684,1.40886685 36.8666619,1.17341096 C37.0149343,0.938077316 37.0572978,0.595651584 37.3963272,0.456529669 C37.7352355,0.317530006 37.9045687,0.317530006 38.1695224,0.317530006 C38.4344761,0.317530006 38.5722181,0.274742071 39.0276867,0.317530006 C39.4831553,0.360317941 39.7691698,0.370953799 40.0657146,0.231954136 C40.3623804,0.0928322211 40.6272131,-0.0784417704 40.8496822,0.0392861766 C41.0720303,0.157014124 41.0614999,0.424499843 41.2522569,0.670591596 C41.4428928,0.916683348 41.5064381,1.226957 41.8348161,1.48368461 C42.1633151,1.74053447 43.1060855,2.87465926 43.1589794,3.16353894 C43.2119944,3.45241863 43.0530706,3.52735864 43.2755397,3.81623833 C43.4980088,4.10511802 43.6145691,4.0194199 43.529842,4.39399771 C43.4451149,4.76845326 42.7988893,4.8112412 43.1906916,5.12151485 C43.5827359,5.43178851 44.0383255,5.20696847 44.1018709,5.71003234 C44.1654162,6.2128517 43.9746592,5.98815391 44.1547648,6.39476155 C44.3348703,6.80136918 44.3984157,7.0688549 44.5678698,6.88694505 C44.737445,6.7050352 44.8962478,6.37336758 45.1927926,6.40539741 C45.4895795,6.43754948 45.6166701,6.45894345 45.7118065,6.72642917 C45.8073061,6.99391489 45.7437607,7.27203647 45.860321,7.56103841 C45.9768813,7.84991809 45.9132149,8.15579071 45.9640512,8.49821644 C46.0150085,8.84064217 45.9132149,8.84064217 46.116681,9.06313943 C46.320026,9.28575894 46.3539168,9.54248655 46.3539168,9.85068194 C46.3539168,10.1587551 46.0997355,10.7579084 45.794597,10.9634128 C45.4895795,11.1687948 45.3708405,10.911945 45.2183318,10.7921388 C45.065823,10.6723325 44.659012,10.5696415 44.659012,10.9462976 C44.659012,11.3228314 44.7437391,11.3057162 44.9133143,11.5967964 C45.0827684,11.8877544 45.3200043,12.1274891 45.3877859,12.4013319 C45.4554466,12.6752969 45.4726341,12.8977942 45.6251428,13.0004852 C45.7776516,13.1031763 45.9640512,12.9149093 46.116681,13.1031763 C46.2691897,13.2915654 46.3708622,13.3942565 46.3876866,13.6682215 C46.4047531,13.9420643 46.4725347,14.2160293 46.4725347,14.4042962 C46.4725347,14.5925632 46.7437824,14.9521041 46.7776733,15.1917165 C46.8114431,15.4314512 46.6590553,16.0133671 47.0319756,15.9621438 C47.4047747,15.9107983 47.3539385,15.6711859 48.1167243,15.6711859 C48.8793892,15.6711859 48.91328,15.6711859 49.3539819,15.7396466 C49.7946838,15.807985 50.0149742,16.0133671 50.2692765,15.8594528 C50.5233367,15.705294 50.1844284,15.7396466 50.6929119,15.5341422 C51.2013955,15.3287601 51.4387523,15.311645 51.5404248,15.5341422 C51.6420973,15.7567617 51.387795,15.9963742 51.8115515,16.0133671 C52.235308,16.0306045 52.0827992,15.9963742 52.6929553,16.0133671 C53.3031113,16.0306045 53.6590861,16.0648349 54.0150609,16.1161804 C54.3709147,16.1676482 54.303133,16.08195 54.6081505,15.9963742 C54.9132891,15.9107983 55.0489735,15.7224091 55.1675914,15.876568 C55.2862093,16.0306045 55.3201001,16.1504107 55.3201001,16.3901454 C55.3201001,16.6297579 55.3370456,16.9037229 55.1675914,17.1775657 C54.9981372,17.4514085 54.7438349,17.7596039 54.5574353,17.9993385 C54.3709147,18.238951 54.1675697,18.5813767 53.9979945,18.7867588 C53.8285403,18.9922631 53.6590861,19.1634149 53.4895109,19.3345666 C53.3200568,19.5057184 52.7099007,19.4543728 52.8624095,19.6085317 C53.0150393,19.762446 53.0319847,19.762446 53.2353297,20.0021807 C53.4386747,20.2419153 53.1338992,20.7804321 52.9582721,20.8744433 C52.7824029,20.9683322 52.4002837,20.9057396 52.3279026,21.1979201 C52.2556425,21.4901005 52.1212895,21.6987834 52.069606,21.9701812 C52.0179225,22.2414567 52.069606,22.5232458 52.1729731,22.7320509 C52.2763401,22.9407338 52.4209813,22.8572362 52.648292,23.0659191 C52.8754816,23.2746019 53.017339,23.6939237 53.2289146,23.7819446 C53.4406113,23.8699655 53.614786,23.9076189 53.8640047,23.9076189 C54.1129812,23.9076189 54.1750741,23.8070061 54.6234014,23.819598 C55.0717287,23.8321899 55.0592618,23.8447817 55.0592618,24.0460073 C55.0592618,24.2472328 54.9336236,24.776703 55.053815,24.776703 C55.1741275,24.776703 55.5413589,24.9243825 55.6046621,25.0014007 C55.6679653,25.0782968 55.6679653,25.4375932 55.7881568,25.5595999 C55.9084692,25.6814844 55.8893451,25.662291 56.3198798,25.6302611 C56.7504144,25.5981091 56.915027,25.5979868 57.3263165,25.5532429 C57.7379691,25.5082544 58.1114945,25.3670542 58.3202863,25.3734113 C58.5293201,25.3800128 58.7469476,25.293948 58.8649604,25.6814844 C58.9832152,26.0692653 58.8158187,25.9797774 59.0225528,26.2185341 C59.2292868,26.4570463 59.2784286,26.4669486 59.3276913,26.8149979 C59.376833,27.1630472 59.2193617,27.1927543 59.3867582,27.6601208 C59.5540337,28.127365 59.5146961,28.196926 59.6230257,28.3958288 C59.7312343,28.5947315 59.8297598,28.9327562 59.9675018,29.0916828 C60.1052439,29.2508539 60.2431069,29.3998782 60.449841,29.5094153 C60.6565751,29.6188302 60.9421054,29.6188302 61.0109764,29.7777568 C61.0798474,29.9369279 61.1586436,30.1058791 61.2275146,30.4340015 C61.2963857,30.7621238 61.2077853,31.0304653 61.4047153,31.1797341 C61.6015242,31.3287583 61.7984542,31.5076119 61.9263921,31.6967346 C62.05433,31.8856127 61.9766231,32.0917283 61.9766231,32.0917283 C61.9766231,32.0917283 61.7098538,32.1420958 61.6424353,32.1851283 C61.5750167,32.2281607 61.5500828,32.2534667 61.5275696,32.2887973 C61.5051774,32.3242502 61.4177875,32.3621481 61.3779657,32.3748622 C61.338023,32.3874541 61.1201533,32.4364768 61.0388153,32.5303658 C60.9573563,32.624377 60.8645196,32.769856 60.7302877,32.8071426 C60.5960558,32.8441847 60.4861526,32.8488303 60.4648498,32.872058 C60.443426,32.8951635 60.3641456,32.9337949 60.2802658,32.9462645 C60.1961439,32.9586119 60.0558601,32.964969 60.0010296,32.964969 C59.946078,32.964969 59.855299,32.966925 59.8246762,33.0471218 C59.7940534,33.1274409 59.7352286,33.2543377 59.6662365,33.3139963 C59.5972445,33.3734104 59.4592604,33.409719 59.4056402,33.4174208 C59.3520201,33.4253671 59.3009418,33.4174208 59.2395751,33.4434603 C59.1782085,33.4693776 59.0351408,33.6169348 58.9585233,33.7257384 C58.8819058,33.8344198 58.8614503,33.9278198 58.8844476,34.0182857 C58.907445,34.1091183 58.9413358,34.3504423 58.9393992,34.4885862 C58.9375836,34.6269746 58.8491043,34.6756306 58.7772073,34.6737968 C58.7051893,34.6719631 58.5725309,34.6288084 58.5098328,34.6288084 C58.4471348,34.6288084 58.3510301,34.6289306 58.266424,34.6925013 C58.1815759,34.7559497 58.0340297,34.8868808 58.0082485,34.933703 C57.9822252,34.9802807 57.9715738,35.0722136 57.8661491,35.0975196 C57.7607244,35.1228257 57.6479163,35.1558335 57.6479163,35.1965432 C57.6479163,35.2370083 57.600106,35.3815093 57.5775928,35.4222189 C57.5549586,35.4625619 57.3176017,35.8522988 57.243526,35.9568236 C57.1693293,36.0611039 57.0504693,36.2713761 57.0354605,36.3752896 C57.0204517,36.4792032 57.0104055,36.7325078 57.0104055,36.8112376 C57.0104055,36.8898451 56.9601744,37.1990185 56.9451656,37.2294591 C56.9300358,37.2598996 56.8471243,37.3837401 56.8471243,37.4283618 C56.8471243,37.4731058 56.7121662,38.0080772 56.7121662,38.0080772 C56.7121662,38.0080772 56.6204188,38.4058828 56.577208,38.4888914 C56.5337551,38.5716555 56.4443075,38.8047886 56.395771,38.9601699 C56.3472345,39.1156735 56.3856038,39.1494148 56.4186473,39.1725203 C56.451933,39.1959926 56.5234668,39.1959926 56.6562463,39.2969721 C56.7892678,39.3978294 56.8684271,39.4755812 56.8812572,39.5326725 C56.8939663,39.5896416 56.8818624,39.6354858 56.8190433,39.6546792 C56.7561032,39.6736282 56.6745231,39.7469789 56.6713761,39.8074933 C56.6682291,39.8680077 56.6869901,39.9412361 56.6242921,39.9603073 C56.561352,39.9793785 56.3697477,39.9824348 56.3163696,39.9824348 C56.2628705,39.9824348 56.0538367,40.0085966 55.9647522,40.073512 C55.8756677,40.1383052 55.8485551,40.2817059 55.8156326,40.3875754 C55.78271,40.4935673 55.7401044,40.6879467 55.6645763,40.7211991 C55.5890481,40.7548182 55.5406326,40.7526176 55.5211454,40.7921048 C55.5019003,40.8313474 55.3934496,41.2121601 55.350844,41.2965134 C55.3082384,41.3811113 55.3237313,41.428178 55.2423933,41.4300118 C55.1610553,41.4320901 55.0524836,41.4143636 55.0466737,41.4478605 C55.0409849,41.4809906 55.0448582,41.5183994 54.9925694,41.5477397 C54.9402807,41.5772023 54.8918652,41.5792806 54.9131681,41.6206015 C54.9344709,41.6618001 54.9364075,41.6950525 54.9092948,41.7285493 C54.8821821,41.7618017 54.847323,41.7814841 54.8240836,41.7853962 C54.8008441,41.7894304 54.7794203,41.7952985 54.7756681,41.818893 C54.7717949,41.842243 54.7892244,41.8405315 54.8240836,41.8324629 C54.8589427,41.8247611 54.8956174,41.8069124 54.9189779,41.8265948 C54.9422173,41.8462773 54.9480272,41.8600917 54.9344709,41.893344 C54.9207935,41.9268408 54.806654,42.038823 54.7776047,42.0583832 C54.7485554,42.0779434 54.2612536,42.5663371 54.2118699,42.5997117 C54.1626071,42.6327195 54.0229285,42.7240412 53.924403,42.7676849 C53.8258775,42.8110841 53.7354616,42.823676 53.7108907,42.8069275 C53.6861988,42.7903014 53.6739739,42.7696409 53.6553339,42.8006927 C53.6369361,42.8318668 53.6287054,42.8443364 53.5610448,42.8651191 C53.4932631,42.8857796 53.445937,42.8961709 53.4254815,42.929301 C53.4049049,42.9625534 53.3823917,42.9709887 53.3391809,42.9977617 C53.2960911,43.0247793 53.1975656,43.0890834 53.1359569,43.0927509 C53.0743482,43.096174 53.0374314,43.0854159 52.9863531,43.0678117 C52.9352748,43.049963 52.9018681,43.02319 52.9018681,42.9876149 C52.9018681,42.952162 52.9123984,42.8703759 52.8789918,42.9006942 C52.845464,42.9310125 52.8329971,42.9718445 52.8349337,43.0108426 C52.8367493,43.049963 52.8329971,43.049963 52.7962013,43.0552198 C52.7592845,43.0605989 52.7310825,43.0411609 52.6747995,43.0854159 C52.6185165,43.1300376 52.570101,43.1995985 52.4303013,43.2568121 C52.2905016,43.3139034 52.2144893,43.343855 52.1580853,43.3412877 C52.1015602,43.3388427 52.0748107,43.3064461 52.0157438,43.343855 C51.9571611,43.3810194 51.9203653,43.413416 51.8197821,43.4257633 C51.71932,43.4381107 51.6395555,43.4553481 51.5262633,43.4357879 C51.4128501,43.4162277 51.3478523,43.3774741 51.3019786,43.3481338 C51.256226,43.3187935 51.2368598,43.3163485 51.2199144,43.2797953 C51.20309,43.2432422 51.1934069,43.2068114 51.1258673,43.1849284 C51.0583277,43.1629232 50.9570183,43.1191572 50.8918995,43.12148 C50.8267807,43.1240473 50.7904691,43.1606004 50.7424167,43.145808 C50.6941223,43.1312601 50.6821395,43.1093771 50.6459489,43.1165899 C50.6097583,43.1240473 50.5928129,43.1436075 50.5373772,43.1165899 C50.4818204,43.0898169 50.4987658,43.0729462 50.4577337,43.077714 C50.4167016,43.0826041 50.3575137,43.1170789 50.3656233,43.1535098 C50.3737329,43.1900629 50.3715542,43.2123127 50.3494041,43.2381077 C50.327254,43.2639027 50.2660084,43.2876194 50.2138408,43.3075464 C50.1616731,43.3274733 50.1013958,43.3449553 50.0805772,43.3475225 C50.0596375,43.3497231 50.0469284,43.3497231 50.0284095,43.3274733 C50.0098906,43.3051014 49.9970605,43.2779616 49.9482819,43.2874972 C49.8997453,43.2970328 49.8219175,43.3356642 49.7966204,43.3592587 C49.7712023,43.3826086 49.7897212,43.4330984 49.8244593,43.4801651 C49.8591974,43.5272319 49.939204,43.6209986 49.939204,43.6209986 L49.742153,43.7821257 L49.7028154,43.8738141 L49.457591,43.9344508 L49.3928353,44.03433 L49.5444968,44.1018127 L49.4717525,44.2486364 L49.194816,44.1323755 L49.1301813,44.2119611 L49.229191,44.2855563 L49.2150295,44.3526723 C49.2150295,44.3526723 49.2210814,44.4018173 49.2454102,44.4343361 C49.2696179,44.4669772 49.2777275,44.4669772 49.2472257,44.4936279 C49.2169661,44.5202787 49.2129718,44.526269 49.1422852,44.5752918 C49.0715986,44.6241923 48.6552255,44.9079374 48.6552255,44.9079374 L48.4712467,44.5916734 L48.1590879,44.8083026 L48.1071623,44.7634364 L47.9287512,44.9431458 C47.9287512,44.9431458 47.8362777,44.9881342 47.765349,44.963684 C47.6944203,44.9392337 47.6031572,44.8788416 47.5626092,44.8558584 C47.5220612,44.8326306 47.4346713,44.7998673 47.3638637,44.7976668 C47.2932981,44.795833 47.2589231,44.8161267 47.2103866,44.8222393 C47.1618501,44.8283518 47.1295328,44.8344644 47.0284654,44.7915542 C46.9272771,44.7488885 46.814227,44.6773716 46.7071077,44.5629444 C46.6001095,44.4487617 46.5330541,44.3459484 46.4598257,44.2501035 C46.3865972,44.1541362 46.2743944,43.962813 46.2352989,43.8664791 C46.1960823,43.7699006 46.0866634,43.4697738 46.0522884,43.4174502 C46.0177923,43.3653712 45.9506159,43.2911647 45.9161198,43.275272 C45.8817449,43.2595016 45.8332083,43.2373742 45.7972598,43.1883514 C45.7611903,43.1394509 45.7357722,43.0623104 45.7085385,43.021723 C45.6813048,42.9811356 45.6573391,42.9533845 45.6078343,42.9437267 C45.5582084,42.9339466 45.4700923,42.9193987 45.378708,42.8933592 C45.2876869,42.8674419 45.2573062,42.8579063 45.1884352,42.8530163 C45.1195642,42.848004 44.8795445,42.8560725 44.8795445,42.8560725 C44.8795445,42.8560725 44.5255063,42.633453 44.4090671,42.4730594 C44.2925068,42.3124213 44.2183101,42.3339375 43.9111139,42.1734216 C43.6037966,42.013028 43.5510238,41.9807536 43.2331762,41.8737838 C42.9153285,41.766814 42.7562837,41.74542 42.6187837,41.6171784 C42.4810417,41.4886924 42.2480422,41.4457822 42.2585726,41.1034787 C42.269224,40.7611752 42.5022235,40.8894168 42.6611473,40.718265 C42.8200711,40.5472356 42.7669351,40.3438095 42.872844,40.0229 C42.9789949,39.7019905 43.0425402,39.3058964 43.1272673,39.0705628 C43.2119944,38.8353514 43.2543579,38.770925 43.0954341,38.6425612 C42.9366314,38.5143196 42.9682224,38.4607736 42.6399655,38.5249555 C42.3115875,38.5891374 42.269224,38.4607736 42.1738455,38.7281371 C42.078467,38.9956228 42.0891184,39.2845025 41.9300736,39.3380485 C41.7712708,39.3914723 41.6760134,39.4557765 41.4852564,39.2096847 C41.2946204,38.963593 41.3793475,38.9743511 41.1039845,38.824471 C40.8285004,38.6748355 40.680228,38.6961072 40.6060313,38.3857113 C40.5319556,38.0755599 40.5213042,37.8080742 40.5743192,37.6048926 C40.6272131,37.4015888 40.4789407,37.2623447 40.35185,37.1553748 C40.2246384,37.048405 40.076366,36.952071 39.9174422,36.7059793 C39.7586394,36.4598875 39.5860382,36.4871495 39.6388111,36.1018136 C39.691584,35.7167222 39.5448851,35.5922704 39.5215246,35.3729517 C39.4979221,35.1537552 39.2221959,34.8811349 39.1988354,34.5671938 C39.1752329,34.2531303 39.1576823,34.0278213 39.216265,33.8086248 C39.2750898,33.5894283 39.4216677,33.2635065 39.5215246,33.1567812 C39.6211394,33.0500558 39.8852459,33.0383197 40.1961943,33.0798851 C40.5070216,33.1212061 40.6479107,33.316808 40.8121602,33.2515259 C40.9765307,33.1864882 41.0703357,33.192234 41.246326,33.0560461 C41.4224373,32.919736 41.4105755,32.8130107 41.4517287,32.6708325 C41.4927608,32.5286543 41.6441802,32.4583598 41.1791495,32.2912424 C40.7141188,32.1242472 40.6211611,32.1973534 40.4352457,31.9365915 C40.2492092,31.6755851 40.2699068,31.6442888 40.1872374,31.3835269 C40.104568,31.1223982 39.9599267,31.2164094 39.7533137,30.8719054 C39.5465796,30.5276459 39.629249,30.3814334 39.31939,30.3397458 C39.0091678,30.2980581 38.8750569,30.2667618 38.740704,30.3814334 C38.606351,30.4962274 38.7612806,30.579725 38.3480545,30.579725 C37.9347073,30.579725 37.8417496,30.6632226 37.7073966,30.579725 C37.5731647,30.4962274 37.5007836,30.4024607 37.3458541,30.2250741 C37.1908035,30.0475653 37.004767,29.8492738 36.9325069,29.7657762 C36.8601258,29.6824008 36.3952162,29.035325 36.3952162,28.7743186 C36.3952162,28.5135567 36.3952162,28.3778578 36.3022585,28.054381 C36.2091797,27.730782 36.0956454,27.5220991 36.1059337,27.3654953 C36.116222,27.2090137 36.1059337,26.9585209 36.2402866,26.6663404 C36.3745186,26.3741599 36.5295691,26.1966511 36.7051963,26.0818572 C36.8807024,25.9670633 37.1287107,25.9670633 37.4181142,25.8835657 C37.7073966,25.8001904 37.8727355,25.8939571 37.9863908,25.6852742 C38.1000462,25.4765913 38.1000462,25.3619197 38.1104555,25.2260985 C38.1207438,25.0905219 38.1516087,25.100791 37.8520379,25.100791 C37.5524671,25.100791 37.583453,25.100791 37.3043378,25.1426009 C37.0254646,25.1845331 36.9116883,25.2155849 36.7154846,25.1845331 C36.5191598,25.1529923 36.4674763,25.0383206 36.1988914,24.9965107 C35.9301855,24.9547008 35.7028748,24.8713254 35.5272477,24.8817168 C35.3516205,24.8921081 35.3619088,24.9653366 34.9176968,24.9340403 C34.4733638,24.9026217 34.5766098,24.9026217 34.2357648,24.7877056 C33.8946778,24.6730339 33.9567706,24.7044525 33.6673671,24.5790227 C33.3780846,24.4539597 32.7064409,23.4730157 32.6444691,23.3686131 C32.5824973,23.2642106 32.3551866,23.180713 32.2208337,23.0451363 C32.0864807,22.9094375 31.6732546,22.669336 31.6422687,22.6067434 C31.6112828,22.5441508 31.1360849,22.1475677 30.9913226,21.709297 C30.8466814,21.2709041 30.8156955,21.1874065 30.5883848,21.291809 C30.3609531,21.3962116 30.3196789,21.4484129 29.9787129,21.4901005 C29.6377469,21.5317882 29.4000269,21.3336189 29.3277668,21.5317882 C29.2555067,21.730202 29.3174785,21.6361908 29.265795,21.9492762 C29.2141115,22.2623616 29.1934139,22.3145629 29.1211538,22.4292346 C29.0487726,22.5441508 28.687109,22.5336371 28.821462,22.8050349 C28.9558149,23.0761882 29.1314421,23.2538192 29.1521397,23.3477082 C29.1727163,23.4417194 29.1934139,23.556391 29.1934139,23.671185 C29.1934139,23.7859789 29.1417303,24.0051754 29.0177867,24.088673 C28.8938431,24.1721706 28.821462,24.2347632 28.6148489,24.1825619 C28.4082359,24.1303606 28.4907842,24.015689 28.2015018,24.0364717 C27.9122193,24.0573766 27.9639028,24.0990643 27.5919509,24.140752 C27.219999,24.1825619 26.982279,24.3287744 26.8583354,24.4435683 C26.7342707,24.5583622 25.856014,25.8522694 25.7010844,25.9462806 C25.5460339,26.0402918 25.5564432,25.9774547 25.2877373,26.2175561 C25.0191524,26.4576575 25.1535054,26.5620601 24.7504465,26.6140169 C24.3475087,26.6663404 24.2442627,26.4367526 23.9445709,26.3844291 C23.6448791,26.3322278 23.882478,26.405334 23.5622097,26.5515465 C23.2419413,26.6976367 22.5805859,27.334199 22.6839529,27.4906806 C22.7871989,27.6474066 22.7769106,27.9395871 22.9732354,28.2422812 C23.1695601,28.5447308 23.2936248,28.8266421 23.4278567,28.9205311 C23.5622097,29.0142978 23.6861533,29.0561077 23.8514921,29.108309 C24.016831,29.1605103 24.1099098,29.1293362 24.1925792,29.3066005 C24.2751276,29.4839871 24.3887829,29.9222578 24.4197688,30.0475653 C24.4508758,30.1727506 24.6058053,30.3814334 24.5024382,30.5485509 C24.3991922,30.7154238 24.1718816,30.9866993 24.0375286,31.1536945 C23.9031757,31.3206897 23.8205062,31.4563886 23.7068509,31.6129925 C23.5931956,31.7695963 23.7068509,32.1660571 23.231653,32.134883 C22.756334,32.1033422 22.85958,31.8217976 22.6736646,32.1033422 C22.4876281,32.3851313 22.7046505,32.4374549 22.1983457,32.3851313 C21.6920408,32.3331745 21.5371113,32.3331745 21.1857359,32.5627624 C20.8344817,32.7923502 19.9562249,33.4289124 19.7701884,33.6272039 C19.584273,33.8253732 19.4189341,34.0131511 19.8321602,34.3472638 C20.2455074,34.6812542 20.472818,34.8689098 20.4935157,35.1195249 C20.5140922,35.3698954 20.3074792,35.3802868 20.5347898,35.6725895 C20.7621005,35.96477 20.948137,35.8604897 20.9171511,36.1004688 C20.8860441,36.340448 20.8442858,36.6134351 20.5990614,36.6886196 C20.353958,36.7635596 20.294407,36.3883705 20.2869026,36.8837326 C20.2795192,37.3792168 20.2795192,37.4691938 20.3240615,37.5893667 C20.3687248,37.7094175 20.3166781,38.4150516 20.4802014,38.527645 C20.6437247,38.6401162 20.829398,38.5951277 21.1713323,38.602585 C21.5131456,38.6101646 21.8549589,38.4299663 22.0779122,38.6552753 C22.3008654,38.8803399 22.3455287,38.9480671 22.4123421,39.0231293 C22.4792765,39.0979471 22.5827646,39.652112 22.6834687,39.652112 C22.7841729,39.652112 22.7639595,39.774241 22.9956275,39.5096893 C23.2272956,39.2452598 23.1466838,39.3978294 23.4186578,39.112984 C23.6906317,38.8282608 23.8316418,38.695985 24.1438006,38.6451285 C24.4560804,38.594272 24.3553762,38.6552753 24.6877485,38.6552753 C25.0201207,38.6552753 25.0201207,38.6858381 25.4229375,38.7875512 C25.8257543,38.889142 25.8963198,38.9604144 26.1480803,38.889142 C26.3999618,38.818114 26.1380341,38.7265478 26.5510181,38.7164009 C26.9638811,38.7062541 27.1552433,38.7469638 27.3265131,39.1435468 C27.4977828,39.5402521 27.3768651,39.5301052 27.7898492,39.8556603 C28.2027122,40.1810931 28.3739819,40.3846414 28.4847323,40.3743723 C28.5956038,40.3642254 28.6459559,40.4253511 28.6257424,40.0590863 C28.60565,39.6928216 28.4948996,39.7131153 28.7164004,39.4588327 C28.9380222,39.2045502 28.9581146,39.4689796 29.3712197,39.0214178 C29.7839617,38.573856 29.5624608,38.7164009 29.9250928,38.4314333 C30.2876037,38.1465879 30.2170381,38.1465879 30.4890121,38.136441 C30.760986,38.1262942 31.1134507,38.3398671 31.355286,38.2280072 C31.5970003,38.1160251 31.355286,37.9736024 31.9190842,38.0550217 C32.4831245,38.136441 32.4025128,38.1262942 32.6242557,38.2483009 C32.8458775,38.3704299 32.9767203,38.2483009 33.0170262,38.6654222 C33.0573321,39.0824212 32.9566279,39.112984 33.0875918,39.3266791 C33.2185556,39.5402521 33.3493985,39.6114023 33.3493985,39.7436781 C33.3493985,39.875954 33.0993325,40.0387926 33.3251907,40.2242478 C33.5510489,40.4094584 33.5792509,40.2952757 33.5792509,40.594669 C33.5792509,40.8940623 33.6780185,40.6945483 33.5792509,40.9796382 C33.4803623,41.2647281 33.2687867,41.2219402 33.5226048,41.4073953 C33.7767861,41.5924837 34.0168058,41.9632717 34.0168058,42.1626635 C34.0168058,42.3622998 33.7548781,42.6048462 33.9020611,42.9574188 C34.0491232,43.3102359 34.1317926,43.1432407 34.0123274,43.4680623 C33.8928622,43.7930061 33.6630097,43.6351797 33.8744643,43.8950859 C34.0857979,44.1551142 34.0949968,44.1365321 34.2145831,44.3685649 C34.3339272,44.6008423 34.4167177,44.7771286 34.3524461,44.8792084 C34.2880535,44.9812881 34.1961852,45.1391145 34.07672,45.3433963 C33.9571338,45.5476782 33.7182034,45.7704199 33.4975498,45.7984155 C33.2770173,45.8261665 33.1023585,45.7612511 32.9093018,45.9747017 C32.7162451,46.1882747 32.6151778,46.2068569 32.6059788,46.466763 C32.5967799,46.7266691 32.3670484,47.3209324 32.3670484,47.4138434 C32.3670484,47.5065098 32.5740246,47.9645852 32.5932697,48.236961 C32.6125149,48.5093368 32.4584326,49.0346504 32.7281069,49.2098364 C32.99766,49.3850224 32.9592908,49.2487123 33.3638021,49.3850224 C33.7683134,49.5212103 33.9802521,49.5212103 34.0379876,49.8131463 C34.0958441,50.1048377 34.0571117,50.1048377 34.4040086,50.1048377 C34.7507845,50.1048377 35.0012135,49.8518999 35.2901329,49.8907758 C35.5790523,49.929774 35.8296023,49.8518999 35.8488475,50.1632738 C35.8680927,50.4745255 35.8872168,51.0388372 36.1185217,51.0581529 C36.3495846,51.0775909 36.4074411,51.0193993 36.6963604,50.844091 C36.9852798,50.6690272 36.8698089,50.4940857 37.2358299,50.5328393 C37.6017299,50.5719597 37.5824847,50.4745255 37.7173218,50.7080254 C37.8521589,50.941403 38.0833428,51.116589 37.9677509,51.3110908 C37.8521589,51.5057147 37.8136686,51.6029045 38.1411993,51.6223424 C38.468609,51.6419026 38.6610605,51.4668388 39.0079574,51.2722149 C39.3547333,51.0775909 39.7592446,50.7858994 40.0867753,50.7469013 C40.414185,50.7080254 40.4544909,50.7247738 40.4567906,50.7352874 C40.4593324,50.7460455 40.4952809,50.8145062 40.5473275,50.8359002 C40.5996162,50.8572941 40.6149882,50.8656072 40.6329019,50.8918912 C40.6508156,50.9181753 40.7844423,51.1198898 40.8094973,51.1729469 C40.8343103,51.2257594 41.2051728,52.0346959 41.268113,52.148145 C41.3311741,52.2618387 41.8432888,53.2095303 41.9513764,53.3953522 C42.0592219,53.5815408 42.2114885,53.8328894 42.3368846,53.939248 C42.4621597,54.0456066 42.8318118,54.3148038 42.9915829,54.4816767 C43.151354,54.6486719 43.1934755,54.7252012 43.1681784,54.7819258 C43.1430023,54.8385281 43.0925292,54.9346176 42.9691908,55.0451327 C42.8458523,55.1556478 42.7176724,55.3054056 42.6170892,55.3554064 C42.516385,55.4055294 42.4235483,55.4034511 42.3781588,55.4615205 C42.3327693,55.5194675 42.3051725,55.6935533 42.3189709,55.7796182 C42.3327693,55.8656831 42.3643604,55.9698411 42.4433987,55.8777859 C42.5223159,55.7856085 42.5992965,55.6857292 42.6466226,55.6436748 C42.6940698,55.6016204 42.7710504,55.5794929 42.8419791,55.6915973 C42.9130288,55.8035794 42.985652,55.8927006 42.985652,55.8927006"></path>
            </g>
        </g>
    </g>
</svg>