<?xml version="1.0" encoding="UTF-8"?>
<svg width="170px" height="170px" viewBox="0 0 170 170" version="1.1" xmlns="http://www.w3.org/2000/svg" xmlns:xlink="http://www.w3.org/1999/xlink">
    <title>jdo_cn_iqiyi_gesture_guidance_swipe</title>
    <g id="jdo_cn_iqiyi_gesture_guidance_swipe" stroke="none" stroke-width="1" fill="none" fill-rule="evenodd">
        <g id="E573_textinput_btn_hwr_mirrored" transform="translate(56.000000, 45.000000)" stroke="#FFFFFF" stroke-width="1.2">
            <path d="M26.3331482,81 C26.3331482,81 26.7284928,73.5809256 24.0936112,72.9596011 C20.216539,72.0506264 14.6233121,58.0593199 14.6233121,58.0593199 C14.6233121,58.0593199 10.6631277,50.0120174 3.93553142,46.9652263 C-4.18026333,43.2902071 2.77196052,39.1112248 2.77196052,39.1112248 C9.00312981,35.2636154 15.42074,39.4126822 20.8791904,44.8734339 C21.9955895,44.6364101 21.7372678,41.24674 21.7372678,41.24674 L21.7934247,5.27665559 C21.7934247,2.7844541 23.0198913,0 25.5806458,0 L27.1260836,0 C29.6868381,0 31.0390962,2.7844541 31.0390962,5.27665559 L31.021126,35.259013" id="路径"></path>
            <path d="M49.0148965,31.2981846 C49.0148965,27.4137561 51.1222627,26.7326004 54.0985782,26.7326004 C57.2119166,26.7326004 58,28.5114293 58,31.0036308 L58,63.6622859 C58,66.6653541 54.5239105,69.5855791 55.2225023,72.6875991 L55.2225023,80.9995398" id="路径"></path>
            <path d="M40.3407,26.3823575 C40.2660384,25.1992469 40.7228775,24.0459799 41.581212,23.2507485 C42.4395465,22.4555171 43.6053902,22.1053976 44.7469723,22.3000256 C47.0223058,22.2298239 48.9273795,24.0520548 49.0148965,26.3823575 L49.0148965,39.0711838" id="路径"></path>
            <path d="M31.0384223,23.0541294 C31.1350122,20.2558681 33.6126545,19.2111225 35.8656692,19.2111225 C36.9610415,19.0902764 38.0572035,19.4317629 38.9014691,20.1568629 C39.7457348,20.8819628 40.2652479,21.9281034 40.3402507,23.0541294 L40.2885864,37.1650984" id="路径"></path>
        </g>
    </g>
</svg>