<?xml version="1.0" encoding="UTF-8"?>
<svg width="170px" height="170px" viewBox="0 0 170 170" version="1.1" xmlns="http://www.w3.org/2000/svg" xmlns:xlink="http://www.w3.org/1999/xlink">
    <title>jdo_cn_iqiyi_gesture_guidance_zoom_in</title>
    <defs>
        <linearGradient x1="113.604503%" y1="-3.25972559%" x2="0%" y2="93.4564698%" id="linearGradient-1">
            <stop stop-color="#FFFFFF" offset="0%"></stop>
            <stop stop-color="#FFFFFF" stop-opacity="0" offset="100%"></stop>
        </linearGradient>
        <linearGradient x1="100%" y1="6.54353018%" x2="0%" y2="93.4564698%" id="linearGradient-2">
            <stop stop-color="#FFFFFF" stop-opacity="0" offset="0%"></stop>
            <stop stop-color="#FFFFFF" offset="100%"></stop>
        </linearGradient>
    </defs>
    <g id="jdo_cn_iqiyi_gesture_guidance_zoom_in" stroke="none" stroke-width="1" fill="none" fill-rule="evenodd">
        <g id="编组-10" transform="translate(10.000000, 4.000000)">
            <g id="E573_textinput_btn_hwr_mirrored" transform="translate(93.720094, 107.187204) rotate(40.000000) translate(-93.720094, -107.187204) translate(59.456834, 60.464577)" stroke="#FFFFFF" stroke-width="1.2">
                <path d="M31.2103738,92.4887647 C31.2103738,92.4887647 31.6700363,84.0448307 28.6064904,83.3376774 C24.0986642,82.3031383 17.595485,66.3790941 17.595485,66.3790941 C17.595485,66.3790941 12.9910251,57.2201496 5.16892806,53.7524794 C-4.26721109,49.5697987 3.81605785,44.8135381 3.81605785,44.8135381 C11.0609651,40.4344259 18.5226451,45.1566384 24.8691212,51.37173 C26.1671453,51.1019641 25.8667976,47.2440501 25.8667976,47.2440501 L25.9320906,6.30511335 C25.9320906,3.46864296 27.3580889,0.299548633 30.3354481,0.299548633 L32.1323105,0.299548633 C35.1096696,0.299548633 36.6819242,3.46864296 36.6819242,6.30511335 L36.6610305,40.4291878" id="路径"></path>
                <path d="M57.5821759,35.9212166 C57.5821759,31.500199 60.0323857,30.7249495 63.4929128,30.7249495 C67.1127548,30.7249495 68.0290501,32.7495031 68.0290501,35.5859735 L68.0290501,72.7560452 C68.0290501,76.1739527 63.9874417,79.4975732 64.7996862,83.0281014 L64.7996862,92.4882408" id="路径"></path>
                <path d="M47.4967896,30.3263246 C47.4099814,28.9797809 47.9411429,27.6672034 48.9391183,26.7621199 C49.9370937,25.8570365 51.2926065,25.458552 52.6199106,25.6800656 C55.2654142,25.6001664 57.4804209,27.6741174 57.5821759,30.3263246 L57.5821759,44.767966" id="路径"></path>
                <path d="M36.6811407,26.5383402 C36.7934446,23.3535313 39.6741702,22.1644662 42.2937239,22.1644662 C43.5673003,22.0269267 44.841795,22.4155856 45.8234128,23.2408497 C46.8050305,24.0661138 47.4090623,25.2567666 47.4962672,26.5383402 L47.4361977,42.5985769" id="路径"></path>
            </g>
            <g id="编组-15" transform="translate(27.712931, 79.005029) scale(-1, -1) translate(-27.712931, -79.005029) translate(0.000000, 53.307584)">
                <polygon id="矩形备份-8" fill="#FFFFFF" transform="translate(49.023091, 5.674228) scale(-1, 1) translate(-49.023091, -5.674228) " points="43.3488625 -1.68303502e-12 54.6973191 -1.68051515e-12 43.3488625 11.3484566"></polygon>
                <line x1="0" y1="50.9158323" x2="49.0998011" y2="5.14150697" id="路径-5备份" stroke="url(#linearGradient-1)"></line>
            </g>
            <g id="编组-16" transform="translate(85.221075, 25.697445) scale(-1, -1) translate(-85.221075, -25.697445) translate(58.012015, 0.000000)">
                <polygon id="矩形备份-8" fill="#FFFFFF" transform="translate(5.674228, 44.738596) scale(1, -1) translate(-5.674228, -44.738596) " points="1.61109997e-14 39.0643672 11.3484566 39.0643672 1.61109997e-14 50.4128238"></polygon>
                <line x1="4.4680476" y1="45.7743253" x2="53.5678487" y2="3.66614748e-12" id="路径-5" stroke="url(#linearGradient-2)"></line>
            </g>
        </g>
    </g>
</svg>