<?xml version="1.0" encoding="UTF-8"?>
<svg width="120px" height="120px" viewBox="0 0 120 120" version="1.1" xmlns="http://www.w3.org/2000/svg" xmlns:xlink="http://www.w3.org/1999/xlink">
    <title>jdo_cn_ximalaya_radio_province_guangxi</title>
    <g id="jdo_cn_ximalaya_radio_province_guangxi" stroke="none" stroke-width="1" fill="none" fill-rule="evenodd">
        <g id="编组">
            <rect id="矩形" x="0" y="0" width="120" height="120"></rect>
            <g id="广西-" transform="translate(17.000000, 32.000000)" fill="#FFFFFF" fill-opacity="0.189284" fill-rule="nonzero">
                <path d="M44.9647059,9.76391564 L44.9668831,53.43416 L45.1588384,53.3817363 L45.5576265,53.3760196 L45.6191925,53.3394082 L45.478764,53.1368899 L45.3430526,52.7677349 L45.2471354,52.7130002 L45.1293254,52.6928092 L45.0173212,52.6364933 L44.9874454,52.5685007 L45.0895313,52.4274068 L45.1088841,52.2546885 L45.1675472,52.16614 L45.200084,52.1907098 L45.2206463,52.4449219 L45.360712,52.5058599 L45.4857793,52.4932101 L45.5367013,52.2365653 L45.6309251,52.0119098 L45.5353708,51.8846821 L45.2995089,51.7730234 L45.1818198,51.6807042 L45.1601689,51.48743 L45.2003259,51.4393851 L45.4764658,51.5242847 L45.7339787,51.7068552 L45.7960285,51.9907457 L45.8634003,52.0070445 L46.0886183,51.9339433 L46.2194914,51.8416242 L46.2356993,51.9749335 L46.4024961,52.0038821 L46.3102075,52.1154192 L46.1609493,52.1819522 L45.8273558,52.2473906 L45.7308338,52.3157481 L45.7295033,52.4649913 L45.8040115,52.5442958 L45.6530599,52.7778304 L45.6436254,52.866014 L45.6800328,52.9089504 L46.0256008,53.0629372 L46.1413546,53.2247086 L46.1597397,53.5443591 L46.1882851,53.618555 L46.3014988,53.6833852 L46.5640917,53.6708571 L46.7942688,53.753324 L47.0488787,53.7494317 L47.3706186,53.5897281 L47.6923585,53.5472783 L47.5123777,53.740066 L47.5473336,53.7822725 L47.7297335,53.8259386 L48.0560697,53.9268937 L48.3813173,53.9796823 L48.6307261,53.9815068 L48.7166041,53.9969541 L48.8611451,54.2504365 L48.9028745,54.5310429 L48.834656,54.7134918 L48.5799251,54.9531081 L47.97757,55.0906746 L47.8404072,55.1651137 L47.6600636,55.407041 L47.5832572,55.6045724 L47.5897888,55.6436164 L47.8058141,55.5616361 L48.3089863,55.8306874 L48.4346584,55.8490539 L48.8004258,56 L49.0106453,55.7991846 L49.4093125,55.750045 L49.5857856,55.4836695 L49.6547298,55.3909855 L49.6843638,55.1336109 L49.764073,55.1077031 L49.7993918,55.3519414 L49.8416051,55.4503422 L49.8937366,55.47029 L50.1813672,55.4577618 L50.460531,55.4361112 L50.6041044,55.2450264 L50.6660333,55.2585276 L50.7637648,55.474912 L50.816743,55.5039822 C50.8325881,55.504712 50.8652459,55.4936434 51.0526049,55.4796557 C51.0972373,55.4763716 51.1233635,55.423583 51.1759789,55.4196908 C51.3057634,55.4098386 51.4154694,55.4072843 51.5831129,55.3959724 C51.6290757,55.39281 51.7509982,55.3836875 51.8498183,55.3008557 C51.9320676,55.2322549 51.9907307,55.0890933 52.0449184,55.0720648 C52.0895508,55.0579554 52.0699561,55.1371382 52.0704399,55.1913864 C52.0705609,55.2365121 52.094268,55.2575545 52.0952357,55.257068 C52.1523263,55.2252002 52.2638467,55.1665733 52.4334254,55.0682942 C52.5223272,55.0169652 52.6142529,54.9149154 52.7508109,54.8859669 C52.8123769,54.8730738 52.9122856,54.8678436 52.9663524,54.8275832 C52.9685296,54.8258804 53.0733974,54.738913 53.0742441,54.6863678 C53.074607,54.6666633 53.0763004,54.6321196 53.0622696,54.6197131 C53.0315471,54.5923457 52.9697391,54.5899131 52.967441,54.5103654 C52.9653848,54.4292364 52.9717954,54.4176813 52.9705858,54.316483 C52.9697391,54.234381 53.2167289,54.0366063 53.2162451,53.9441655 C53.2157613,53.8396831 52.9052702,53.8435754 52.8988596,53.7344709 C52.8941424,53.6522473 52.887127,53.5443591 52.8533806,53.4635951 C52.8225371,53.3898857 52.7675027,53.3402596 52.7084767,53.3154466 C52.702187,53.3128923 52.5928439,53.2660637 52.4618498,53.2213029 C52.2938435,53.1635274 52.0957195,53.1008866 52.0974128,53.0550311 C52.0987433,53.0142842 52.3789957,53.0415299 52.5565574,53.0287585 C52.6371133,53.0229201 52.7012194,52.9917822 52.7000099,52.971956 C52.6979536,52.9371691 52.6934783,52.9037201 52.686342,52.8747716 C52.6689245,52.8042247 52.6046974,52.8322002 52.5575251,52.7886557 C52.5216015,52.7553284 52.4301596,52.7393945 52.4255633,52.6676312 C52.418427,52.5607162 52.5477277,52.5155905 52.5734911,52.4936966 C52.7788724,52.3202485 53.0435216,52.0392772 53.0679545,52.0392772 C53.0817433,52.0392772 53.1113773,51.9570535 53.2145517,51.9639866 C53.2440647,51.9658111 53.240678,52.084038 53.2778111,52.0989988 C53.2893018,52.1036208 53.3188148,52.1009449 53.3417962,52.0560625 C53.379897,51.98138 53.4161835,51.8461246 53.4378344,51.844665 C53.4954089,51.8411376 53.4896031,52.0948633 53.4986747,52.1185816 C53.5233495,52.1843849 53.2911162,52.4094052 53.24346,52.4609774 C53.208504,52.4989268 53.0928712,52.5451472 53.0135248,52.5905162 C52.9595789,52.6215325 52.9551036,52.6631308 52.9553455,52.700472 C52.9565551,52.8014271 53.1162155,52.8775691 53.1244404,52.9747536 C53.1365359,53.1131715 53.1745157,53.2757943 53.2094716,53.3554637 C53.2803512,53.5167485 53.5850364,52.9265871 53.6567626,53.1224156 C53.6971616,53.2326147 53.441584,53.3655592 53.4807734,53.4790424 C53.4968603,53.5257493 53.4313028,53.6809526 53.5106492,53.7232807 C53.5321792,53.7347142 53.615638,53.7241321 53.626282,53.8064774 C53.6347489,53.8700913 53.5853993,53.9768847 53.5792306,54.0479182 C53.5742714,54.1031394 53.6089855,54.1320879 53.6287011,54.1320879 C53.6487796,54.1319663 53.6983711,54.1600634 53.7264326,54.1221141 C53.7588485,54.0784479 53.7321175,54.0133745 53.7578809,53.9489092 C53.7956188,53.8545223 53.8799243,53.7647574 53.8840368,53.7776505 C53.902301,53.8328717 54.1295751,53.497044 54.1970679,53.557982 C54.2390392,53.596053 54.2043252,53.7736366 54.1981565,53.9064594 C54.1916249,54.0482831 54.2120663,54.1458324 54.2117035,54.1809842 C54.2104939,54.2964136 54.1549756,54.423398 54.1023603,54.4727809 C54.0484144,54.5233801 53.9573354,54.5560992 53.9760834,54.6135098 C54.0286988,54.7721188 54.2545215,54.9014142 54.2683103,54.9128477 C54.5965818,55.1844533 54.8398219,55.2260517 54.8607471,55.2277545 C54.9588415,55.235539 55.0020224,55.0106403 55.0842717,54.9565138 C55.1177762,54.9344983 55.1765602,54.9578518 55.21454,54.9399718 C55.2438111,54.9261056 55.2891692,54.8886428 55.2207087,54.7161677 C55.1523692,54.5435711 54.9809762,54.2444765 54.9466251,54.1064234 C54.9123948,53.9683704 54.8553042,53.8531843 54.7982135,53.7842186 C54.7410018,53.7151313 54.7752321,53.6461656 54.8553042,53.5425346 C54.9353763,53.4391469 54.9353763,53.2664286 55.0150855,53.0134328 C55.0950367,52.7601937 55.209218,52.8752581 55.209218,53.0823985 C55.209218,53.2894172 55.4605622,53.3010939 55.7232761,53.2549951 C55.9858691,53.2088964 56.0430807,53.2320066 56.1229109,53.105387 C56.202983,52.9788891 56.202983,52.9904442 56.2828132,53.0708434 C56.3627643,53.1513642 56.4428364,53.105387 56.4999271,52.9327903 C56.5571388,52.7601937 56.5341573,52.72565 56.465576,52.6797945 C56.3972365,52.6336957 56.636848,52.3114909 56.7511503,52.1159057 C56.8654527,51.9201988 56.8081201,51.5751271 56.8081201,51.402652 C56.8081201,51.2299337 56.8881922,51.1379795 56.8881922,50.9538277 C56.8881922,50.7697975 57.0594642,50.7927861 57.2307363,50.6317445 C57.4021293,50.4705813 57.4707107,50.5396686 57.6990734,50.6201894 C57.9275571,50.7007102 58.0416175,50.7352539 58.2587315,50.643178 C58.4756035,50.5511021 58.4985849,50.5511021 58.5899058,50.4016156 C58.6812267,50.2520075 58.7384384,50.2865512 58.7840383,50.3556385 C58.8296383,50.4246042 58.8869709,50.4705813 58.9325709,50.3786271 C58.9781709,50.2865512 59.1267034,50.2979846 59.3665569,50.2979846 C59.6064103,50.2979846 59.6748707,50.4591478 59.9490754,50.5165584 C60.2230381,50.5740907 60.3487102,50.2979846 60.4171706,50.1599316 C60.4858729,50.0218786 60.5428427,50.102521 60.6457752,50.1599316 C60.6954877,50.1877855 60.7208882,50.3026067 60.8457136,50.3462728 C60.978643,50.3926148 61.2130535,50.367072 61.3311054,50.367072 C61.5593472,50.367072 61.479396,50.1139545 61.4452867,49.9759015 C61.4109356,49.8378485 61.2853844,49.8378485 61.4109356,49.6997954 C61.5364867,49.5616208 61.5023774,49.5616208 61.308124,49.4235678 C61.1139914,49.2855147 61.1025007,49.343047 61.1824519,49.1820054 C61.262403,49.0209638 61.2280519,48.9288879 61.1253612,48.8252569 C61.0226705,48.7217476 61.0226705,48.7333027 61.04541,48.6182382 C61.0683915,48.5031738 61.1253612,48.2500563 61.09101,48.1579804 C61.0567798,48.0660261 60.9654589,48.054471 61.09101,47.9739503 C61.2166821,47.8934295 61.1938216,47.8588858 61.1824519,47.7553764 C61.1709612,47.6517455 61.0682705,47.5827798 60.8968775,47.4791488 C60.7257264,47.3756394 60.7142357,47.3296623 60.8855077,47.0879783 C61.0567798,46.8464159 61.1253612,46.9844689 61.1824519,47.0764232 C61.2395426,47.1684991 61.3767054,47.2374648 61.3994449,47.1570656 C61.4223053,47.0764232 61.3650937,46.9959024 61.4566565,46.9844689 C61.5479774,46.9729138 61.5707169,47.0074575 61.6050681,46.8233057 C61.6392983,46.6391539 61.9362424,46.8808379 62.1760959,47.0534346 C62.4159493,47.2260313 62.4273191,47.2490199 62.3589796,47.3870729 C62.2902773,47.5252475 62.518761,47.4677153 62.6671725,47.4447267 C62.8155841,47.4216166 62.907026,47.2374648 63.0326981,47.0190126 C63.1582492,46.8004388 63.2839213,46.9039481 63.4209631,46.9383702 C63.5581259,46.9729138 63.6721863,47.0304461 63.6264654,47.1570656 C63.5807445,47.2835635 63.6951677,47.3526509 63.900791,47.3410958 C64.1061723,47.3296623 64.0378328,47.2030427 64.1861234,47.122522 C64.3347769,47.0420012 64.4259769,46.9499253 64.3117955,46.8464159 C64.1977351,46.7427849 64.0948025,46.6622641 64.0948025,46.5356446 C64.0948025,46.4091467 64.2091049,46.2940822 64.3460257,46.2826487 C64.4830676,46.2710936 64.4830676,46.2020063 64.506049,46.0869419 C64.5287885,45.9718774 64.5860001,45.9604439 64.723042,45.8108358 C64.8599629,45.6613493 64.9056838,45.6613493 64.9742652,45.8108358 C65.0428466,45.9604439 65.2597186,45.9604439 65.4083721,45.9143452 C65.5566627,45.8683681 65.5223116,45.7994024 65.4311116,45.7187599 C65.3396698,45.6383608 65.3626512,45.5117412 65.2483488,45.3851217 C65.1340465,45.2586238 65.0428466,45.2586238 65.065707,45.0975822 C65.0883256,44.9362973 65.0428466,44.9249855 64.8714536,44.9249855 C64.7001815,44.9249855 64.6429699,44.7983659 64.6658303,44.6834231 C64.6886908,44.568237 64.6202304,44.3956404 64.6886908,44.2345988 C64.7571512,44.0734356 64.7115513,44.0390135 64.5631397,43.9584927 C64.4144862,43.8778503 64.3347769,43.7857744 64.4259769,43.6938202 C64.5172978,43.6017443 64.7115513,43.7629075 64.894314,43.8088846 C65.0769558,43.8549834 65.0884465,43.6708316 64.9856349,43.544212 C64.8829443,43.4177141 64.940035,43.4177141 65.111428,43.2910946 C65.2827,43.1645967 65.2139977,43.0380987 65.1340465,42.9114792 C65.0542163,42.7849813 65.065707,42.7158939 65.156907,42.7043388 C65.2483488,42.6929054 65.2139977,42.6353731 65.1912582,42.5432973 C65.1682767,42.4512214 65.1797675,42.4282328 65.2939488,42.4397879 C65.4083721,42.4512214 65.4083721,42.4973201 65.5223116,42.6468066 C65.6366139,42.7964147 65.6595953,42.7158939 65.6595953,42.6008295 C65.6595953,42.485765 65.7279348,42.508632 65.8652185,42.4166777 C66.0022604,42.3247234 66.1163208,42.3707006 66.3561742,42.3936891 C66.5960277,42.4166777 66.538937,42.3591455 66.5275672,42.1751153 C66.5161975,41.9910852 66.7787904,42.1636819 66.9959044,42.1291382 C67.2127764,42.0945945 67.2355159,42.0140737 67.1899159,41.8644656 C67.144195,41.7148575 67.3498182,41.7609563 67.4867391,41.8069334 C67.6239019,41.8529105 67.6010415,41.8414771 67.7267135,41.7264126 C67.8523856,41.6113482 67.9208461,41.6458918 68.1036088,41.6343367 C68.2863716,41.6229033 68.3206018,41.4388731 68.4232925,41.2545997 C68.5261041,41.0705696 68.3776925,40.9325165 68.2062995,40.8290072 C68.0349065,40.7253762 68.1493297,40.7139427 68.2520204,40.7139427 C68.354953,40.7139427 68.3890622,40.7484864 68.5375948,40.667844 C68.6860064,40.5873232 68.697618,40.6333003 68.8230482,40.6448554 C68.9487203,40.6564105 68.9717017,40.7023876 69.0972528,40.6333003 C69.2229249,40.5643346 69.2570342,40.6793991 69.519869,40.6218668 C69.782583,40.5643346 69.9081341,40.4262816 69.9765945,40.2306963 C70.0451759,40.0351111 70.1935875,40.0005674 70.3307503,39.9200466 C70.4677921,39.8395259 70.5021433,39.7934271 70.5021433,39.6783626 C70.5021433,39.5632982 70.5818525,39.505766 70.7417548,39.3332909 C70.9017781,39.1605726 70.947499,39.1377057 71.1757408,38.7694021 C71.4042245,38.4013418 71.2786734,38.3552431 71.2328315,38.1482243 C71.1872315,37.941084 71.2901641,37.9870611 71.4042245,37.9179738 C71.5184059,37.8490081 71.6097268,37.7339437 71.5527571,37.6304343 C71.4956664,37.5266817 71.4726849,37.4808262 71.6213384,37.4578376 C71.7696291,37.4348491 71.7467686,37.3082295 71.8495802,37.2392638 C71.9523918,37.1701765 71.9297733,37.0896557 71.8840524,36.9286141 C71.8383314,36.7674509 71.6327082,36.8940704 71.4614361,36.882637 C71.2901641,36.8710819 71.2901641,36.4568012 71.2786734,36.2266723 C71.2671827,35.996665 71.2786734,35.9736764 71.3701152,35.9045891 C71.4614361,35.8355018 71.5184059,35.8699238 71.4384547,35.7895247 C71.3585036,35.7090039 71.3356431,35.65135 71.3701152,35.4903084 C71.4042245,35.3292669 71.4157152,35.2832897 71.2901641,35.1336816 C71.1643711,34.9840735 71.1530013,34.9840735 71.209971,34.8460205 C71.2670617,34.7079675 71.1757408,34.6275683 71.0615594,34.6504352 C70.947499,34.6733022 71.0159595,34.5123822 71.1187711,34.3628957 C71.2214617,34.2132876 71.3243943,34.2017325 71.1415106,34.0982232 C70.9587478,33.9945922 71.2214617,33.5805547 71.2901641,33.4883572 C71.3585036,33.396403 71.381364,33.3274373 71.3356431,33.2008177 C71.2901641,33.0741982 71.2901641,32.9591337 71.3701152,32.6713509 C71.4500664,32.3839331 71.5300175,32.4758873 71.6669384,32.3839331 C71.8041012,32.2918572 71.9066709,32.0501732 72.1237849,31.8431545 C72.3406569,31.6360141 72.3180383,31.2332885 72.2950569,30.9340723 C72.2723174,30.6349777 72.3979895,30.5544569 72.5805103,30.5544569 C72.7632731,30.5544569 72.7862545,30.5888789 72.9003149,30.5084798 C73.0146173,30.427959 73.1289196,30.4854912 73.2202405,30.4162823 C73.3114404,30.3474382 73.3114404,30.3818602 73.5171846,30.4162823 C73.7225659,30.4509476 73.6541055,30.4162823 73.6085055,30.3013394 C73.5629055,30.186275 73.5742753,30.1402979 73.7684078,30.1402979 C73.9625403,30.1402979 73.8825892,29.9905681 74.0311217,29.9331575 C74.1795333,29.8756253 74.1680426,29.8871804 74.1794124,29.7375723 C74.1909031,29.5879642 74.0995822,29.541987 73.8598497,29.5535421 C73.6198753,29.5649756 73.7341776,29.3925005 73.7911473,29.1853602 C73.848359,28.9782199 73.8710985,28.7941897 73.9398008,28.5870494 C74.0081403,28.3800307 74.0995822,28.2649662 74.2251333,28.3684756 C74.3508054,28.4719849 74.4307565,28.4719849 74.4763565,28.345487 C74.5221984,28.2188674 74.6591193,28.379909 75.0817355,28.5295171 C75.5043517,28.6791253 75.5500726,28.5870494 75.664375,28.4949735 C75.7784354,28.4028976 75.7213447,28.0347157 75.664375,27.8736741 C75.6072843,27.7126325 75.618654,27.7010774 75.664375,27.5286023 C75.7099749,27.3560057 75.835647,27.4019828 75.9497074,27.4709485 C76.0638888,27.5400358 76.1097307,27.3674391 76.0182888,27.1602988 C75.9269679,26.9532801 76.1553306,27.0222458 76.2810027,27.0682229 C76.4065539,27.1143217 76.5665771,27.0108123 76.7605887,26.7806834 C76.9548421,26.5505545 76.7722003,26.3893913 76.6922492,26.2169162 C76.6121771,26.0443195 76.5093655,25.8487343 76.3495841,25.6186054 C76.1895609,25.3884765 76.2352818,25.1238039 76.269512,24.8362644 C76.3039841,24.5486033 76.3152329,24.6291241 76.2009306,24.5256147 C76.0869912,24.4219837 76.1209795,24.3300295 76.1438399,24.076912 C76.1669423,23.8237945 76.2810027,23.8582166 76.3495841,23.8813267 C76.4180446,23.9043153 76.5435957,24.0193798 76.5778259,23.9157488 C76.6121771,23.8122394 76.6121771,23.7317186 76.703498,23.7317186 C76.7948189,23.7317186 76.7722003,23.7317186 76.87477,23.5475669 C76.9777026,23.3635367 77.0461631,23.4210689 77.1604654,23.4670461 C77.2745258,23.5130232 77.263156,23.5591219 77.308877,23.3980804 C77.3544769,23.2369172 77.4457978,23.2254837 77.5714699,23.0758756 C77.697142,22.9263891 77.7428629,22.8688569 77.8913955,22.6501614 C78.0398071,22.431466 78.0398071,22.1439265 77.868535,22.0174286 C77.697263,21.890809 77.7884629,21.787178 77.6744025,21.5686042 C77.5601002,21.350152 77.4344281,21.3500304 77.2861375,21.2119774 C77.137484,21.0739244 77.091884,21.1199015 77.2975072,20.832362 C77.5031304,20.5447008 77.1488537,20.0384659 77.1488537,20.0384659 C77.1143816,19.9601345 77.1103901,19.9451737 77.0384219,19.8983451 C76.8611021,19.7824292 76.8156231,19.7444799 76.7187383,19.7231942 C76.6719288,19.6665134 76.6858386,19.6515526 76.6641877,19.578573 L76.6437463,19.4916057 C76.6266917,19.3826228 76.6314089,19.2602604 76.7149887,19.1985927 C76.7578067,19.1668466 76.7841749,19.1387494 76.7988104,19.1112605 C76.8438056,19.0269691 76.759621,18.8749283 76.7379701,18.7958671 C76.6807585,18.5886051 76.7835701,18.5657382 76.87477,18.404575 C76.9663329,18.2435334 77.091884,18.2895105 77.3318584,18.2205448 C77.5715909,18.1514575 77.4915188,18.1170355 77.4344281,18.0595033 C77.3774584,18.0018494 77.2175561,17.9328837 77.0461631,17.8523629 C76.87477,17.7718421 76.8405398,17.7487319 76.7379701,17.8178192 C76.6351585,17.8869066 76.5435957,17.9328837 76.4752562,17.8753515 C76.4066748,17.8179409 76.3382144,17.8062642 76.2009306,17.89834 C76.0638888,17.9904159 76.0069191,17.89834 75.9725679,17.7832756 C75.9383377,17.6683328 75.7099749,17.6797662 75.5500726,17.7487319 C75.3901703,17.8178192 75.2416378,17.7832756 75.1388262,17.6682111 C75.0360146,17.5532683 75.0931052,17.5647018 74.9218332,17.6567777 C74.7506821,17.7487319 74.6365007,17.7143099 74.3621751,17.7143099 C74.0882124,17.7143099 74.0424915,17.8062642 73.8939589,17.9444388 C73.7455474,18.0824918 73.6541055,18.3815864 73.6885776,18.6002819 C73.7225659,18.8188557 73.5970148,18.8418442 73.3343009,18.7497683 C73.0717079,18.6576925 73.0944475,18.9453536 73.025987,19.1409388 C72.9575266,19.3366457 72.8889452,19.3480792 72.8319754,19.3021021 C72.7748848,19.2560033 72.7519033,19.2330147 72.6034918,19.3250906 C72.4549592,19.4171665 72.4320987,19.4170449 72.3863778,19.2330147 C72.3406569,19.0489846 72.1237849,19.0488629 71.9753733,19.0488629 C71.8268407,19.0488629 71.8041012,19.0834066 71.7467686,18.9914524 C71.6896779,18.8993765 71.5871082,18.9683422 71.5527571,18.8762663 C71.5184059,18.784312 71.6896779,18.5887268 71.7696291,18.370153 C71.8495802,18.1514575 71.9638826,18.001971 72.032343,17.7372985 C72.1010453,17.4726259 71.986743,17.3230178 71.8267198,17.1619762 C71.6669384,17.0009346 71.6783082,16.9434024 71.7467686,16.8169045 C71.81535,16.6902849 71.8267198,16.6443078 71.7353989,16.5406768 C71.644078,16.4371674 71.7924895,16.3796352 71.86095,16.2415822 C71.9297733,16.1035292 71.9182826,16.0459969 71.8041012,15.9769096 C71.6897989,15.9079439 71.6097268,15.8734003 71.5300175,15.7237921 C71.4500664,15.5743057 71.5413873,15.4706747 71.6783082,15.3901539 C71.81535,15.3096331 71.86095,15.1945686 71.86095,15.0565156 C71.86095,14.9184626 71.81535,14.9530063 71.7126594,14.9759948 C71.6097268,14.9989834 71.4841757,14.9989834 71.381364,14.8839189 C71.2786734,14.7688545 71.3928548,14.5502807 71.4157152,14.4122277 C71.4384547,14.2741746 71.4500664,14.1820988 71.3243943,14.1589886 C71.1987222,14.1361216 71.2328315,14.1014563 71.1872315,13.9865135 C71.1415106,13.8714491 71.0957897,13.8714491 71.0159595,13.9404147 C70.9361293,14.0095021 70.9818502,14.0440457 70.8445665,14.1475551 C70.7075246,14.2511861 70.4677921,14.1935322 70.2965201,14.1589886 C70.1251271,14.1245665 70.0565457,14.0440457 70.0451759,13.8828825 C70.0338062,13.7218409 69.9308736,13.6987307 69.8395527,13.7218409 C69.7481108,13.7448295 69.5539783,13.9635249 69.4740272,14.0670343 C69.3943179,14.1705437 69.2114342,14.4006726 69.1429738,14.515737 C69.0742714,14.6308015 68.8346599,14.7114439 68.5834367,14.8723638 C68.4704648,14.9447352 68.2104119,15.0067679 68.1277998,15.0262291 C68.0958677,15.052745 68.1180024,15.1414152 68.1153414,15.1875139 C68.1100194,15.2890772 68.1051812,15.3674086 68.1049393,15.4751751 C68.1040926,15.626851 68.097803,15.8562501 68.0693786,16.0000198 C68.0237786,16.2300271 67.8067856,16.18405 67.7038531,16.2070385 C67.6010415,16.2300271 67.4641206,16.2875593 67.2355159,16.3106695 C67.0071532,16.3336581 66.9385718,16.2300271 66.9614323,16.0689855 C66.9842927,15.9079439 67.0186439,15.8849554 66.8814811,15.8734003 C66.7444393,15.8618452 66.7215788,15.8043129 66.7787904,15.7353472 C66.8358811,15.6662599 66.8131416,15.6662599 66.7215788,15.4822298 C66.6301369,15.298078 66.5960277,15.1830135 66.584537,14.9874283 C66.5731672,14.791843 66.6758579,14.5847027 66.7787904,14.4582048 C66.8814811,14.3317069 66.8929718,14.3661289 66.8357602,14.274053 C66.7787904,14.1820988 66.8587416,14.0440457 66.9614323,13.7909283 C67.0642439,13.5378108 67.2355159,13.491712 67.5324601,13.3882027 C67.8294042,13.2845717 67.8180344,13.2271611 68.0237786,13.0891081 C68.2291599,12.9509334 68.137839,12.8244355 68.0693786,12.4906756 C68.0007972,12.1570373 68.1493297,12.2145696 68.2863716,12.1226153 C68.4232925,12.0305394 68.6060552,11.7083346 68.697618,11.4782057 C68.788818,11.2481984 68.8573994,11.2941756 69.0059319,11.3401527 C69.1543435,11.3862515 69.0858831,11.3632629 69.2456644,11.2250882 C69.4055667,11.0871569 69.5539783,10.9720924 69.5539783,10.8339178 C69.5539783,10.6958647 69.6111899,10.7188533 69.7481108,10.626899 C69.8852736,10.5348232 69.9995759,10.3737816 69.9880852,10.2817057 C69.9765945,10.1896298 69.953855,10.0745653 70.0338062,9.95950088 C70.1136364,9.84455806 70.1935875,9.7869042 70.2165689,9.61430752 C70.2391875,9.44183247 70.2507991,9.45326594 70.1820968,9.28066926 C70.1136364,9.10807258 70.1136364,9.07365055 70.2850294,8.78586778 C70.4563014,8.49832828 70.2965201,8.50988338 70.170848,8.34872016 C70.0451759,8.18767858 69.9880852,8.11871289 70.0679154,7.90001744 C70.1479875,7.68144363 70.0565457,7.7159873 70.0108247,7.49729185 C69.9652248,7.27871805 70.1021456,7.11767646 70.2620479,7.17520869 C70.4220712,7.23274092 70.6275735,7.09456627 70.776106,7.09456627 C70.9245176,7.09456627 70.9245176,7.03715567 70.9818502,6.85300389 C71.038699,6.66885211 71.3356431,6.73793944 71.3014129,6.59988642 C71.2670617,6.4618334 71.2558129,6.33533548 71.1415106,6.23170449 C71.0274502,6.12819514 71.2214617,5.99014212 71.2901641,5.97858702 C71.3585036,5.96703192 71.6213384,5.86352257 71.7583803,5.77156831 C71.8953012,5.67949242 71.8495802,5.57586143 71.6327082,5.62196019 C71.4157152,5.66793732 71.4384547,5.66793732 71.4614361,5.5298843 C71.4840547,5.39183129 71.3014129,5.46079698 71.1074013,5.51832921 C70.9131479,5.57586143 70.7190153,5.54131777 70.6504339,5.46079698 C70.5819735,5.38039782 70.6275735,5.3113105 70.5135131,5.35728762 C70.3992107,5.40326475 70.2850294,5.35728762 70.1364968,5.39183129 C69.9880852,5.42637495 69.8509224,5.47235208 69.8166922,5.74845811 C69.782583,6.02468578 69.7481108,5.95559846 69.6796504,5.82897891 C69.6111899,5.70248099 69.6111899,5.70248099 69.519869,5.76001321 C69.4284272,5.81754544 69.348476,5.8520891 69.3369853,5.70248099 C69.3256156,5.5529945 69.2913854,5.54131777 69.177083,5.46079698 C69.0629017,5.38039782 69.0400412,5.38039782 69.1086226,5.2997554 C69.177083,5.21923461 69.177083,5.2307897 69.0742714,5.08105995 C68.9715808,4.93157347 69.0059319,4.92001837 68.8573994,4.82806412 C68.7089878,4.73610986 68.8687691,4.56339154 68.9029994,4.44832709 C68.9372296,4.33326264 68.9029994,4.10325536 69.0171807,3.99962437 C69.1314831,3.89611502 69.177083,3.89611502 69.1885737,3.78105056 C69.1999435,3.66610774 69.2798946,3.67754121 69.4284272,3.70052977 C69.5768388,3.72351834 69.4968876,3.59702042 69.3599667,3.4358572 C69.2229249,3.27481562 69.3828272,3.1252075 69.4856388,3.03313161 C69.5882085,2.94117736 69.519869,2.8261129 69.4170574,2.72248191 C69.3142458,2.61897256 69.2913854,2.56144033 69.4284272,2.42338731 C69.565469,2.2853343 69.4968876,2.25079063 69.4856388,2.04377192 C69.4740272,1.83650995 69.4968876,1.83663158 69.6452992,1.76754425 C69.7938318,1.69857856 69.6796504,1.49143822 69.6452992,1.28429787 C69.6111899,1.07727916 69.3943179,1.18078852 69.2798946,1.22676565 C69.1655923,1.27286441 69.0972528,1.29585297 68.9259808,1.28429787 C68.7547087,1.27286441 68.7773273,1.13481139 68.7773273,0.962214708 C68.7773273,0.789618027 68.8116785,0.766629463 68.6860064,0.82416169 C68.5604552,0.881572284 68.4120437,0.789618027 68.4120437,0.789618027 C68.4120437,0.789618027 68.3433413,0.85858372 68.1605785,0.85858372 C67.9779367,0.85858372 67.9322158,0.766629463 67.795174,0.85858372 C67.6581321,0.95065961 67.4525089,0.686108672 67.3154671,0.709097236 C67.1784252,0.7320858 67.1098438,0.686108672 67.0984741,0.582477684 C67.0871043,0.478846695 66.9385718,0.513390358 66.8357602,0.524945457 C66.7331905,0.536500555 66.6874695,0.524945457 66.7102091,0.46741323 C66.7331905,0.409881003 66.8131416,0.329360211 66.7102091,0.294816549 C66.6075184,0.260394519 66.6302579,0.237284322 66.5504277,0.0992313035 C66.4702346,-0.0388217146 66.4246347,-0.0157115178 66.2533626,0.0648092735 C66.0819696,0.145330065 66.1619208,0.225850856 66.1735324,0.409881003 C66.1849022,0.593911149 66.1619208,0.686108672 66.0705999,0.720530702 C65.9792789,0.755074364 66.0248789,0.801173126 66.0819696,0.973648174 C66.1391812,1.14624485 66.1391812,1.15779995 66.0479813,1.37637376 C65.9564185,1.59494757 65.9450487,1.46844965 65.8878371,1.33039663 C65.8308674,1.19222198 65.7279348,1.27286441 65.5566627,1.29585297 C65.3853907,1.31884154 65.2827,1.37637376 65.1912582,1.43390599 C65.0998163,1.49143822 64.940035,1.49143822 64.723042,1.38780723 C64.506049,1.28429787 64.4031164,1.54897044 64.4031164,1.54897044 C64.4031164,1.54897044 64.2776862,1.57195901 64.1633839,1.43390599 C64.0490816,1.29585297 64.0490816,1.29585297 64.1633839,1.19222198 C64.2774443,1.08883426 64.289056,1.01974693 64.2091049,0.904560848 C64.1290328,0.789618027 64.1290328,0.778184561 64.0034816,0.973648174 C63.8778095,1.16923342 63.8092282,0.996758371 63.6608166,0.904560848 C63.512284,0.812606591 63.5007933,0.812606591 63.3181515,0.85858372 C63.1355097,0.904682481 63.078298,0.893127383 62.9642376,0.697542137 C62.8498144,0.501956892 62.7584935,0.778184561 62.6785423,0.916115947 C62.5985912,1.05416897 62.518761,1.05416897 62.3359982,1.14624485 C62.1532354,1.23832074 62.2445563,1.3533852 62.2445563,1.47988312 C62.2445563,1.60650267 62.3132587,1.80208792 62.1875866,1.94014093 C62.0620355,2.07819395 62.0961447,2.18170331 61.8906425,2.34286652 C61.6850192,2.5039081 61.696389,2.56144033 61.6280495,2.48091954 C61.5593472,2.40039875 61.5935774,2.34286652 61.4566565,2.42338731 C61.3194937,2.5039081 61.2054333,2.66494969 61.04541,2.84910147 C60.8855077,3.03313161 60.5428427,3.30935928 60.531352,3.45884577 C60.5199822,3.60845388 60.5428427,3.63144245 60.4287823,3.70052977 C60.3144799,3.7696171 60.3831823,3.76949547 60.3831823,3.91910358 C60.3831823,4.0687117 60.2573893,4.31027407 60.1318381,4.51741442 C60.0061661,4.72443313 60.0061661,4.70144456 59.8119126,4.77053189 C59.617901,4.83961921 59.5721801,4.83961921 59.400908,4.85105268 C59.229636,4.86260778 59.2522545,4.73598823 59.2752359,4.54040298 C59.2979755,4.34481774 59.2752359,4.17222105 59.1609336,4.0571566 C59.0467523,3.94209215 58.9896616,3.99962437 58.9097104,3.89611502 C58.8296383,3.79248403 58.7611779,3.78105056 58.6355058,3.78105056 C58.5099547,3.78105056 58.4757245,3.93065868 58.4300035,4.0571566 C58.3842826,4.18365452 58.2587315,4.24130838 58.1216896,4.13767739 C57.9847688,4.03416804 57.973278,4.02273457 57.8818362,4.12624393 C57.7905153,4.22975328 57.7790246,4.25274185 57.7333036,4.14923249 C57.6877037,4.04572313 57.6990734,4.03416804 57.5506618,3.97663581 C57.4021293,3.91910358 57.3906386,3.89611502 57.4363595,3.81547259 C57.4820804,3.73507344 57.5391711,3.63144245 57.5506618,3.41286864 C57.5619106,3.19429483 57.6077525,3.21728339 57.6990734,3.09066384 C57.7905153,2.96416592 57.7561641,2.91818879 57.6990734,2.78013577 C57.6421037,2.64196112 57.6877037,2.53845177 57.5276804,2.54988523 C57.3678991,2.56144033 57.3108084,2.54988523 57.2081177,2.63040602 C57.1051852,2.71104845 57.0594642,2.69949335 56.9681433,2.5844289 C56.8767015,2.46936444 57.025355,2.42338731 56.8311015,2.43494241 C56.636969,2.44637588 56.6825689,2.42338731 56.5227876,2.31987796 C56.3627643,2.2163686 56.2370923,2.46948607 56.07719,2.64196112 C55.9175296,2.8145578 55.7918575,2.94117736 55.7918575,3.1367626 C55.7918575,3.33234785 55.814597,3.36676988 55.7232761,3.45884577 C55.6318342,3.55092166 55.6318342,3.76949547 55.5518831,3.99962437 C55.4720529,4.22975328 55.2320785,4.16078759 54.992346,4.08014516 C54.7524925,3.99962437 54.7982135,4.11468883 54.6954019,4.3793614 C54.5925902,4.64403397 54.6610507,4.66702253 54.7639833,4.72443313 C54.8666739,4.78208699 54.9237646,4.75897679 54.8896553,4.88559634 C54.8553042,5.01209426 54.9009041,5.05807139 54.992346,5.21923461 C55.0836669,5.38039782 55.0721762,5.56442797 54.9123948,5.81754544 C54.7524925,6.07066291 54.5012693,5.92105479 54.386967,5.80599034 C54.2727856,5.69092589 53.953102,5.80599034 53.7818299,5.80599034 C53.6104369,5.80599034 53.5533463,5.86352257 53.5989462,5.76001321 C53.6445462,5.65638222 53.6788974,5.66793732 53.6560369,5.5529945 C53.6332974,5.43780841 53.5874555,5.46079698 53.6331764,5.3113105 C53.6788974,5.16170238 53.7473578,4.9891057 53.8160602,4.97767223 C53.8845206,4.96611713 53.953102,4.85105268 54.0215624,4.71299966 C54.0900229,4.57494664 53.9872113,4.40234996 53.8386787,4.42533853 C53.6903881,4.44844872 53.6903881,4.42533853 53.5989462,4.3793614 C53.5075044,4.33326264 53.5303648,4.26429694 53.4048137,4.31027407 C53.2791416,4.35637283 53.3021231,4.32182917 53.2677719,4.16078759 C53.2334207,3.99962437 53.3362323,3.93065868 53.1650812,3.95364724 C52.9936882,3.97663581 52.9708277,4.0687117 52.8680161,4.19520962 C52.7652045,4.32182917 52.6281627,4.33326264 52.5139813,4.29871897 C52.399679,4.26429694 52.3769395,4.28728551 52.2626371,4.39079486 C52.1485767,4.49442585 52.1485767,4.54040298 51.965814,4.54040298 C51.7830512,4.54040298 51.965814,4.44832709 51.7603117,4.25274185 C51.5545675,4.05727823 51.6346396,4.31027407 51.5545675,4.43689362 C51.4746164,4.56339154 51.2233932,4.678456 51.0292606,4.80507555 C50.8350072,4.9316951 50.8807281,4.9891057 50.9949095,5.03508283 C51.1092118,5.08105995 51.1320723,5.18469094 51.097842,5.32274396 C51.0634909,5.46079698 51.097842,5.50689574 50.8464979,5.59897163 C50.5953956,5.69104752 50.7209468,5.90962133 50.5724142,6.10520657 C50.4240026,6.30079182 50.4240026,6.32378038 50.2527306,6.35832405 C50.0813376,6.39274608 50.1270585,6.72638434 50.0698468,6.89910265 C50.0127562,7.07169933 50.0471073,7.23274092 50.1155678,7.32481681 C50.1840282,7.41677106 50.1384282,7.56637918 50.0584771,7.55494571 C49.9785259,7.54339062 49.8985748,7.49729185 49.8072539,7.63534487 C49.715812,7.77351952 49.6815818,7.75053096 49.5216795,7.73897586 C49.3618982,7.72742076 49.327547,7.75053096 49.3161772,7.65833344 C49.3048075,7.56637918 49.1790144,7.54339062 48.9962517,7.52028042 C48.8136099,7.49729185 48.8022401,7.42832616 48.8364703,7.31326171 C48.8707006,7.19819725 48.722168,7.14066503 48.7907494,7.02560057 C48.8592098,6.91053612 48.7907494,6.83001533 48.5964959,6.760928 C48.4023634,6.69196231 48.4023634,6.80702676 48.505175,6.92209122 C48.6079866,7.03715567 48.5622657,7.12910993 48.4252239,7.24417438 C48.288303,7.35936047 48.2082309,7.4053376 48.1282797,7.30170661 C48.0483286,7.19819725 48.1282797,7.09456627 48.1854914,6.93352468 C48.2425821,6.7724831 47.9570077,6.72638434 47.7856147,6.69196231 C47.6143426,6.65741865 47.683045,6.72638434 47.6485728,6.86455899 C47.6143426,7.00261201 47.5343915,7.07169933 47.5343915,7.07169933 C47.500766,7.13288054 47.4275883,7.06354995 47.3488467,7.06403648 C47.2825635,6.96514916 47.2582516,6.96137855 47.1458845,6.92318591 C47.0071493,6.92318591 46.844586,6.92318591 46.8262009,6.98838099 C46.8075738,7.05357607 46.641019,7.04421036 46.7058508,7.1558691 C46.7666911,7.26083805 46.745524,7.28406988 46.6595251,7.35133272 C46.5761872,7.4165278 46.5853798,7.46311309 46.5021629,7.54679633 C46.418825,7.6306012 46.2429566,7.68643057 46.2244505,7.61199141 C46.2059445,7.53755225 46.1226066,7.52818654 46.0485822,7.57477183 C45.9745578,7.62123549 45.7245442,7.8446746 45.7245442,7.93772355 C45.7245442,8.03089414 45.7524848,8.23560183 45.8448943,8.19838225 C45.9351266,8.16213573 46.0162873,8.0538827 46.113414,8.14255288 C46.1516357,8.17746144 46.1870755,8.19534143 46.2181609,8.19923368 C46.2440452,8.20239612 46.2667847,8.19582796 46.2850489,8.18111042 C46.3185534,8.12065901 46.3583476,8.0602076 46.3895539,7.99866149 C46.5053077,7.87350153 46.4257194,8.05728841 46.5181289,7.98747129 C46.6072726,7.92008682 46.7077861,7.70637832 46.7524184,7.61624855 L46.7807219,7.55494571 C46.8295876,7.53937674 46.9977148,7.49862981 46.9977148,7.58936774 C46.9977148,7.6928771 47.1461264,7.69299873 47.2147078,7.53183552 C47.2831683,7.37079393 47.3403799,7.47430329 47.3631194,7.56637918 C47.3861008,7.65845507 47.5573729,7.66988854 47.5686217,7.72742076 C47.5801124,7.78507462 47.466052,8.026637 47.3287682,8.15313492 C47.1917264,8.27963284 47.1918474,8.52131684 47.1347567,8.6248262 C47.077666,8.72845718 47.1347567,8.82053307 47.2033381,8.8665102 C47.2716776,8.91248733 47.1803567,9.03910688 47.1574962,9.18859337 C47.1346357,9.33820148 47.3060287,9.45326594 47.4544403,9.53378673 C47.6029729,9.61430752 47.5458822,9.71793851 47.5458822,9.71793851 C47.5458822,9.71793851 47.4481507,9.96460945 47.3286473,10.009127 C47.2092649,10.0535229 47.0520236,10.0535229 46.9576788,9.9964772 L46.8947823,9.93651232 C46.8376916,9.85599153 46.7807219,9.74092707 46.6206986,9.77547074 C46.4607963,9.80989277 46.4381778,9.77547074 46.3352452,9.62586262 C46.2324336,9.4762545 46.1524824,9.56833039 45.9583499,9.64885118 C45.7640964,9.72949361 45.7298662,9.71793851 45.6727755,9.61430752 C45.6158058,9.51079817 45.5699639,9.55677529 45.3302314,9.57988549 C45.090257,9.60287406 45.0560268,9.61430752 44.9647059,9.76391564 M44.9647059,10.3194886 C44.9317684,10.3229846 44.9115179,10.3270833 44.9087121,10.3317848 C44.8857778,10.368794 44.8656494,10.3859122 44.8460088,10.3885643 L44.7562236,10.3217791 C44.7230421,10.2794657 44.684127,10.2234095 44.632281,10.1720548 C44.5976356,10.1378183 44.5767751,10.1108149 44.5665279,10.0870663 C44.5339564,10.0114809 44.6421622,9.91600447 44.6783935,9.86416754 C44.7819637,9.71588983 44.6783935,9.65898976 44.5861684,9.5905168 C44.4940654,9.52204384 44.4133075,9.46502322 44.5169997,9.4080026 C44.6208138,9.35110254 44.6208138,9.30541371 44.5169997,9.23694075 C44.4134295,9.16858834 44.2636248,9.16858834 44.0908858,9.20282482 C43.9181468,9.23694075 43.8720343,9.33965019 43.7222296,9.33965019 C43.5726689,9.33965019 43.5264344,9.39667081 43.5033781,9.54482797 C43.4803219,9.69310569 43.5033781,9.71588983 43.3882188,9.7614581 C43.2731815,9.80714693 43.3075829,9.81859927 43.2731815,10.0124453 C43.2385361,10.2062912 43.4803219,10.1833866 43.5264344,10.3317848 C43.5726689,10.479942 43.4688547,10.4343737 43.226947,10.4115896 C42.9850392,10.3886849 43.0196846,10.5141785 42.9158704,10.6167674 C42.8121782,10.7194768 42.8237674,10.8106134 42.881347,10.8790863 C42.9390487,10.9474387 42.9736941,10.9931276 42.9391707,11.0500276 C42.9044033,11.1071688 42.8584128,10.9361069 42.7547206,10.9702229 C42.6510284,11.0044593 42.7201972,11.1755212 42.6510284,11.4263878 C42.5819816,11.6772544 42.5935707,11.6887068 42.6970189,11.7000385 C42.8007111,11.7114909 42.8469456,11.7798433 42.8698799,11.9395734 C42.8929362,12.0991829 42.9158704,12.19044 42.9158704,12.2702447 C42.9158704,12.3500495 42.9850392,12.5781319 42.9044033,12.7719779 C42.8237674,12.9658239 42.7776549,12.8062144 42.7087301,12.6237002 C42.6394393,12.4414271 42.5128128,12.5097795 42.5357471,12.3615018 C42.5588034,12.2132241 42.5935707,12.2132241 42.4321769,12.121967 C42.2709051,12.0308305 42.2709051,12.0308305 42.1558678,11.8483163 C42.0404645,11.6659226 41.9715397,11.608902 41.8563803,11.608902 C41.7409771,11.608902 41.6835194,11.5290972 41.6835194,11.4036037 C41.6835194,11.2782306 41.6143506,11.1869735 41.3724429,11.1869735 C41.1305351,11.1869735 41.1765256,11.22121 40.9923195,11.3008942 C40.8081134,11.3808195 40.77359,11.3124671 40.7504118,11.0842641 C40.7274775,10.8563022 40.6697759,10.7878292 40.4854478,10.6965721 C40.3012417,10.6054356 40.24354,10.6054356 40.1744932,10.4686102 C40.1053244,10.3317848 40.0593339,10.2975483 39.8519495,10.3203325 C39.6446872,10.3431166 39.7021448,10.4571579 39.5294059,10.7194768 C39.3566669,10.9816752 39.1492825,11.06148 39.0802358,11.0957164 C39.011067,11.1299529 39.0227781,11.1527371 39.0917029,11.2895624 C39.1607497,11.4263878 39.0917029,11.4948608 38.9649545,11.4719561 C38.838206,11.4491719 38.8843185,11.4834084 38.8267389,11.3008942 C38.7691592,11.1185006 38.4466155,11.1755212 38.2393532,11.2895624 C38.0319688,11.4036037 38.2738766,11.4263878 38.4351484,11.5518814 C38.5964202,11.6772544 38.4582047,11.8483163 38.2738766,11.8369845 C38.0895485,11.8255321 38.0550251,11.8940051 38.1240719,11.9738098 C38.1932407,12.0536146 38.1701844,12.19044 38.1127267,12.315813 C38.0550251,12.4413066 38.0664922,12.4868748 38.1240719,12.5553478 C38.1817735,12.6237002 38.2162969,12.7036255 38.1011376,12.8289986 C37.9859783,12.9543716 37.9974454,13.0000604 38.043558,13.1141016 C38.0895485,13.2281429 38.0403862,13.3092737 37.9626781,13.5050485 C37.8850919,13.7008233 37.7870113,13.853682 37.6683143,13.9636245 C37.4956973,14.1235956 37.1496094,14.0968333 36.9554,14.0220917 C36.7610687,13.9474706 36.4049776,14.1714544 36.2217474,14.2566839 C36.0381512,14.342034 35.8877366,14.546609 35.736712,14.5785551 C35.5855654,14.6105011 35.4662584,14.5873553 35.2287423,14.8112185 C34.9913482,15.0352022 34.8942435,14.907177 34.7756685,14.8538935 C34.6568494,14.80061 34.6030515,14.932975 34.3411372,14.9491288 C34.079101,14.9652826 34.2561096,14.8056731 34.3345497,14.5947089 C34.4129898,14.3837447 34.3762706,14.1501168 34.2683087,14.1393878 C34.1604689,14.1287793 34.2036536,13.9047956 34.1281413,13.7128784 C34.052507,13.5209612 33.7288654,13.814744 33.5560045,14.0173902 C33.3833875,14.2199159 33.548441,13.9422869 33.3985143,13.7846062 C33.2488316,13.626805 33.3172685,13.6047442 33.1553867,13.4980565 C32.9935049,13.3914895 33.111592,13.2543024 33.1655119,12.9450892 C33.2194318,12.6357553 33.0813383,12.7745095 32.9194565,12.8171846 C32.7576967,12.8597391 32.5870315,13.0410477 32.5978887,13.1583439 C32.6086239,13.27564 32.5589737,13.4194573 32.3863567,13.4514033 C32.2137397,13.4833493 32.1718969,13.4518855 32.064179,13.5477235 C31.9763456,13.6255995 31.7649356,13.8541642 31.5296153,13.9072066 C31.4753294,13.9193822 31.4003051,13.8834581 31.3538266,13.889365 C31.1056973,13.9213111 31.1237519,13.7683319 31.2253703,13.405835 C31.2742886,13.2304333 31.2508663,12.9912602 31.1809656,12.9965644 C31.1111869,13.0017481 30.9622361,13.2456228 30.8923354,13.197764 C30.8506145,13.169314 30.777664,13.180043 30.7134969,13.1071097 C30.5616183,12.9344807 30.3831458,12.5267772 30.4286484,12.361984 C30.4934255,12.1273918 30.7661969,12.0216686 30.5719875,11.968385 C30.3776562,11.9151015 30.4376757,11.9341486 30.3835118,11.8702565 C30.3295918,11.806244 30.1891804,11.7849064 30.1029329,11.806244 C30.0165634,11.8275815 29.6732813,11.8290281 29.5820322,11.6952165 C29.4965167,11.5697229 29.6795029,11.4803946 29.7555031,11.2525533 C29.7730698,11.2001136 29.6422957,11.1376682 29.6604723,11.0917383 C29.757577,10.8465375 29.6037466,10.8730588 29.39868,10.6064 C29.1934915,10.3398617 29.0691829,10.355895 28.9130347,10.2964634 C28.8014131,10.2540294 28.8261772,10.2416127 28.8071467,10.1190123 C28.7882381,9.99641198 28.815564,9.81413888 28.7592043,9.68563153 C28.7028445,9.55700362 28.4095787,9.6214984 28.4598389,9.59244562 C28.3458995,9.62595879 28.4025032,9.62234226 28.3423617,9.70274977 C28.3175976,9.73566019 28.272339,9.7796613 28.1829198,9.85440291 C28.1215584,9.90563708 28.0773977,9.95458078 28.0460461,9.9995463 C27.9776092,10.0971926 27.9911502,10.0766989 27.8553745,10.0766989 C27.6331072,10.0581341 27.4023006,10.0575313 27.1799114,10.0701892 C27.079879,10.0610273 27.1131824,10.0915267 27.1083028,10.1877264 C27.0997635,10.3595116 27.0934199,10.4982657 27.0934199,10.5417846 C27.0934199,10.6851198 26.9549604,10.6605274 26.7375728,10.7859004 C26.5200632,10.9112734 26.641932,10.8118189 26.4970069,10.9370713 C26.4338157,10.991922 26.4578479,11.2161469 26.3941687,11.307404 C26.3120689,11.4248206 26.1442095,11.4120422 26.0933394,11.4825646 C26.0367356,11.5608022 26.0879718,12.0730233 26.1861744,12.2151529 C26.2450959,12.3003825 26.3883131,12.2721735 26.3883131,12.2721735 C26.4727308,12.2911 26.4626055,12.3187062 26.5139636,12.386697 C26.5525127,12.4378106 26.5895979,12.4807267 26.5998452,12.5162893 C26.6216815,12.592357 26.6216815,12.8097104 26.5667857,12.940026 C26.5117678,13.0703416 26.3027976,13.2442967 26.2919404,13.3093942 C26.283645,13.3582174 26.2258214,13.4316329 26.1975195,13.511076 C26.1476253,13.6507946 26.2110605,13.5676145 26.1010248,13.5089061 C26.0222187,13.4668338 25.8970562,13.4724997 25.8104427,13.462494 C25.6727151,13.4464607 25.3759115,13.7332515 25.3759115,13.7332515 C25.3759115,13.7332515 25.5025379,13.9028668 25.3890865,14.0390894 C25.2756351,14.1751914 24.9838331,14.1912247 24.8541568,14.1672351 C24.7246026,14.1431249 24.5949264,14.2713911 24.4895263,14.3673497 C24.3842483,14.4635494 24.1330692,14.2953808 24.0602407,14.2312477 C23.9870463,14.1672351 23.9142177,14.3112935 23.7602654,14.4475161 C23.7217163,14.4815115 23.6796294,14.4935666 23.6357128,14.491035 C23.5039627,14.4835609 23.3550119,14.3454094 23.2335091,14.2793475 C23.0715053,14.1913453 22.8525318,14.4715058 22.8525318,14.4715058 C22.8525318,14.4715058 22.4150728,14.9359887 22.3096728,15.0481012 C22.2042727,15.1602136 21.8641624,15.2402594 21.7586403,15.2402594 C21.6533623,15.2402594 21.4833071,15.4244613 21.272507,15.5605634 C21.0617069,15.6966655 20.6485241,15.872911 20.5917984,15.8969007 C20.5349506,15.9208903 19.7525017,16.1506605 19.5742731,16.2627729 C19.3960446,16.3748853 19.1573086,16.4334731 18.9710286,16.4174398 C18.7847487,16.4014065 18.7684019,16.4094835 18.6387257,16.337394 C18.5090495,16.2653045 18.3072767,16.3818773 18.1857738,16.5340126 C18.064271,16.686148 18.0867173,16.6110447 17.8437116,16.5389552 C17.600584,16.4668657 17.7788125,16.9313487 17.9165402,17.0434611 C18.0542678,17.1555735 18.1525924,17.4183747 18.1525924,17.4183747 C18.1525924,17.4183747 18.0399948,17.9632652 18.0155967,18.2675358 C17.9911985,18.5718065 17.8094322,18.6713817 17.6878074,18.7114046 C17.5663046,18.7515481 17.3394017,19.0558188 17.2989007,19.1198313 C17.2583998,19.1838439 17.0152721,19.2399001 16.8208188,19.2800436 C16.6262435,19.3200665 16.6181921,19.4482122 16.4643617,19.7764726 C16.3102873,20.1047329 16.2158664,20.0770062 16.0212911,19.9729707 C15.8268378,19.8688146 15.6322625,19.5084877 15.5107596,19.2523169 C15.3892568,18.9960255 15.306425,19.054131 15.2334745,19.0620874 C15.160646,19.0700438 15.0808641,19.0446075 14.9188603,18.9965077 C14.7567345,18.9485284 14.6027821,18.9778223 14.4163802,19.1779369 C14.2301002,19.3781721 13.8658357,19.2523169 13.8658357,19.2523169 C13.8658357,19.2523169 13.7604357,19.1701011 13.6216101,19.061123 C13.4729033,18.944068 13.3240746,18.8266513 13.1769537,18.7076675 C12.9095498,18.4915196 12.6127462,18.4520994 12.4913654,18.4680121 C12.3698625,18.4840454 12.1267349,18.2629549 11.9969367,18.1668758 C11.8673825,18.0707966 11.581924,18.1111812 11.4279716,18.1351709 C11.2738972,18.1592811 11.0284517,18.0962329 10.9556232,17.9680872 C10.8826727,17.8399415 10.6917571,17.6265662 10.5701323,17.4745514 C10.4486295,17.3224161 10.4648542,17.1461706 10.3919037,17.0180249 C10.3189533,16.8898792 10.3001667,16.7458207 10.1299895,16.6576979 C9.95981234,16.5695752 9.59249805,16.5112285 9.487098,16.5753616 C9.38169795,16.6393742 9.25446155,16.6937427 9.06805961,16.7258093 C8.88153568,16.7578758 8.66329414,16.7056772 8.64694737,16.6095981 C8.63084459,16.513519 8.32281782,16.2732608 8.32281782,16.2732608 C8.32281782,16.2732608 8.25999256,16.2092483 8.18411428,16.1401726 C8.10811402,16.0710968 8.01893874,16.0237203 7.96636071,16.0037088 C7.91366068,15.9836974 7.8286331,16.0231175 7.75055899,16.1001496 C7.67260687,16.1771817 7.60160822,16.2653045 7.57733205,16.2892941 C7.55305589,16.3132838 7.45997691,16.3713894 7.36165232,16.4264812 C7.26552357,16.4801263 7.17939807,16.4634903 7.08168344,16.4897704 C6.99250817,16.5137601 6.90467479,16.7297874 6.90467479,16.7857231 C6.90467479,16.8418999 6.77377867,16.7689665 6.56310056,16.9771581 C6.35230046,17.1853496 6.2032277,17.4647868 6.16272676,17.6649015 C6.12222581,17.8651366 6.26458908,18.0189597 6.20786335,18.139149 C6.15125962,18.2592178 5.60815659,18.4194301 5.49482714,18.4354634 C5.38125371,18.4514967 4.91122316,18.4834427 4.75727077,18.5555322 C4.60331839,18.6276217 4.54659267,18.8118236 4.48986695,19.0359278 C4.43326321,19.2602732 4.157686,19.2763065 4.10096028,19.2842629 C4.04423456,19.2923398 3.7281564,19.3723857 3.59848018,19.4684648 C3.46880396,19.5645439 3.28252402,19.7727355 3.18529735,19.8848479 C3.08794869,19.9969603 2.99072203,19.9569374 2.90972014,19.9409041 C2.82871825,19.9248708 2.73954297,19.7407895 2.63414292,19.6285565 C2.52886487,19.5164441 2.44786298,19.5964899 2.31818676,19.6126438 C2.18851054,19.6285565 2.04260954,19.5405543 1.92928009,19.4684648 C1.81582865,19.3964959 1.69225197,19.1898715 1.6374781,19.0679944 C1.60490656,18.9960255 1.36812242,18.7568523 1.11816328,18.7391313 C0.868326122,18.7214103 0.883818953,18.9560025 0.859542784,19.0679944 C0.835144625,19.1802274 0.626418369,19.0519611 0.512966927,19.2280861 L0.031469247,19.398063 C-0.0894236339,19.5066795 0.181639919,19.6731604 0.115642898,19.9773105 C0.0497678667,20.2815812 0.992878727,20.7953695 1.08083409,20.8822868 C1.1576883,20.958475 1.23466449,21.5918499 1.22331934,21.8217406 C1.21795175,21.9320448 1.23783625,21.9097429 1.31054277,22.0005178 C1.3405525,22.041264 1.38190738,22.0868323 1.39215461,22.1374637 C1.40728147,22.2124464 1.39215461,22.2650066 1.56672344,22.2949033 C1.74129227,22.3249205 1.86267312,22.4599376 1.74129227,22.5724116 C1.61991143,22.6850063 1.64260172,22.7973598 1.79448026,22.7973598 C1.94623681,22.7973598 2.06005423,22.7973598 2.19668392,22.9924113 C2.33319163,23.1874628 2.61401444,23.4424281 2.70514157,23.3523765 C2.7962687,23.2624455 2.87202498,23.1874628 2.84177126,23.0599198 C2.81139555,22.9323769 2.72026843,22.5874805 2.712705,22.3999032 C2.70514157,22.2124464 2.712705,22.0999723 2.78101985,22.0623604 C2.84933469,22.0249896 2.91008611,22.0099207 2.94802525,22.0924982 C2.98596439,22.174955 3.07696952,22.2349894 3.11503065,22.0999723 C3.15296979,21.9649552 3.16809665,21.9424122 3.22872607,21.9049208 C3.28959948,21.8674295 3.34266548,21.8974467 3.41854376,21.9724294 C3.49442203,22.0474121 3.759996,22.1449378 3.86624999,22.0999723 C3.97250397,22.0548863 4.08632138,21.9874983 4.19269736,22.0774293 C4.29882936,22.1674809 4.56452531,22.2424636 4.67834273,22.2574119 C4.79216014,22.2724808 4.92122641,22.3099721 4.95172411,22.3773601 C4.98197782,22.4449893 4.98197782,22.4823601 5.11860752,22.4524634 C5.25523721,22.4224462 5.27036407,22.4224462 5.33867892,22.4748859 C5.40699377,22.5274461 5.51336974,22.4449893 5.5815626,22.392429 C5.64987744,22.3398688 5.86226342,22.1598862 5.96095398,22.1598862 C6.05976653,22.1598862 6.20395965,22.1074465 6.27215251,22.1899034 C6.34046735,22.2724808 6.44672134,22.2574119 6.56810218,22.2724808 C6.68960502,22.2874291 6.77304672,22.3999032 6.81854929,22.4974289 C6.86417385,22.5949547 6.86417385,22.6249719 6.78817358,22.6774116 C6.7122953,22.7299718 6.68204159,22.737446 6.75035643,22.8349717 C6.81854929,22.9323769 6.93993013,22.9250233 7.03105726,22.9174286 C7.12218439,22.9099544 7.22099693,22.9250233 7.30431665,22.9998855 C7.38775835,23.0749887 7.4560732,23.2024111 7.5396369,23.2024111 C7.6230786,23.2024111 7.73689602,23.2249541 7.66101774,23.4948678 C7.58513947,23.764902 7.4560732,23.8849708 7.56989062,24.004919 C7.68383002,24.1248673 7.75983029,24.1923758 7.82058171,24.3199188 C7.88108914,24.4473412 7.89633799,24.5223239 8.00259198,24.589953 C8.10884596,24.6574615 8.10884596,24.7924787 8.07078483,24.9424441 C8.03284569,25.0924095 7.93415514,25.1974094 7.82802314,25.1448492 C7.72189115,25.0924095 7.57757604,25.0549182 7.55476376,25.1899353 C7.53207347,25.3249524 7.49401234,25.3924609 7.56232719,25.4674436 C7.63064203,25.5424264 7.85083542,25.81234 8.09359711,25.9699002 C8.33648079,26.1273397 8.38222734,26.2324602 8.47311048,26.1723053 C8.56423761,26.1123914 8.59449133,26.1049173 8.5869279,25.9623054 C8.57936447,25.8198142 8.54898876,25.7973917 8.67805503,25.7073401 C8.80712129,25.6174091 8.95131441,25.594866 9.0270707,25.7149348 C9.10307097,25.834883 9.17894924,25.9173399 9.30789352,25.9848485 C9.43695978,26.052357 9.70265574,26.1648311 9.76328517,26.3598826 C9.82403658,26.5549341 9.74047289,26.5998996 10.0744837,26.5998996 C10.4083725,26.5998996 10.4160579,26.6073738 10.5071851,26.6823565 C10.5867231,26.7479362 10.7651956,26.7216561 10.8543709,26.6036367 C10.8859665,26.561685 10.8970676,26.5270868 10.9118285,26.4788664 C10.9004834,26.4220869 10.8957257,26.3630169 10.905241,26.3067196 C10.9396424,26.1026268 11.0716365,25.6995043 11.1476367,25.630308 C11.290366,25.4999924 11.4205302,25.551106 11.6183992,25.5837753 C11.8162683,25.6163241 12.0252385,25.4641888 12.1461314,25.6271737 C12.191634,25.688293 12.218228,25.7494124 12.2387224,25.8014904 C12.2232296,25.9196304 12.1946838,26.0010023 12.2006613,26.1234821 C12.2122504,26.2298081 12.2515315,26.3597621 12.3405848,26.48622 C12.5132017,26.7314208 12.6966759,26.4241363 12.8153729,26.3495152 C12.93407,26.2748942 13.0158038,26.3187747 13.3610378,26.2867082 C13.7063937,26.2547621 13.9208536,26.2488551 13.888526,26.3874888 C13.8563204,26.5261224 13.7745866,26.6295552 13.8393637,26.6935677 C13.9041408,26.7575803 14.2270505,26.7345551 14.3457475,26.659934 C14.4644446,26.585313 14.444804,26.3144349 14.5743583,26.3891765 C14.7039125,26.4637976 14.8229755,26.5497504 14.9200802,26.4537918 C15.0171849,26.3578332 15.0053518,26.1626612 14.9404526,26.0241481 C14.8756755,25.8855145 15.041217,25.7656868 15.1706493,25.7125238 C15.2353044,25.685882 15.3215519,25.8061919 15.4463485,25.8213813 C15.5710231,25.8366913 15.7346127,25.7470014 15.9233325,25.7203596 C16.300894,25.6670761 16.4360598,26.1899057 16.4683874,26.3285393 C16.5008369,26.467173 16.4974212,26.5272074 16.7886132,26.6552325 C17.0800493,26.7832577 17.056505,27.0319544 17.0240555,27.1919255 C16.9916059,27.3518967 17.1547076,27.4306165 17.296095,27.5817874 C17.4376043,27.7330789 17.3989332,27.8140892 17.3667276,27.9528434 C17.3342781,28.0913565 17.5850912,28.3117237 17.8441996,28.3756157 C18.1030641,28.4396283 17.9725339,28.5676534 17.8429797,28.6102079 C17.7134255,28.652883 17.7641736,28.7212354 17.8180936,28.8065855 C17.8721355,28.891815 17.9555772,28.9393121 17.9016573,29.0246622 C17.8477373,29.1098918 17.5935085,29.1208619 17.4424839,29.206212 C17.3290325,29.2702246 17.3507468,29.502888 17.4050327,29.7096329 C17.4230874,29.7784675 17.3918577,29.9719519 17.4133281,30.0280081 C17.4401661,30.0979277 17.5375147,30.1345752 17.5508117,30.2164293 C17.5664266,30.3120262 17.5317812,30.3915899 17.5068951,30.510212 C17.4851807,30.6147297 17.4760314,30.7550511 17.4448017,30.8923587 C17.347941,31.3188681 17.2462007,31.4032538 17.149096,31.5099414 C17.0519914,31.616629 17.243029,31.7568298 17.3165894,31.8386839 C17.3440373,31.8693039 17.2810901,31.9194531 17.2143611,32.0080581 C17.1028615,32.155733 16.9098721,32.342346 16.8426552,32.3489763 C16.7753162,32.355486 16.6772356,32.3298087 16.6545453,32.4722999 C16.6318551,32.6147912 16.5484134,32.8097221 16.3661591,32.7947738 C16.1840268,32.7798255 16.1309608,32.7572825 16.0475191,32.9598081 C15.9639554,33.1622132 15.903204,33.1998251 15.79695,33.1847563 C15.6906961,33.1698079 15.6603203,33.0797564 15.7361986,32.9972995 C15.8120769,32.9149632 15.8803917,32.7496877 15.6755692,32.7197911 C15.4706247,32.6896534 15.4023098,32.6822997 15.333995,32.584774 C15.2656801,32.4872482 15.1366138,32.4647052 15.0607356,32.5398085 C14.9849793,32.6147912 14.8482276,32.5998429 14.8482276,32.494843 C14.8482276,32.3897225 14.8254153,32.3147398 14.5902171,32.2847226 C14.3548968,32.2548259 14.0134446,32.2772484 13.9830689,32.5097913 C13.9526932,32.7423341 13.9602566,32.8997737 13.7782463,32.9223168 C13.5959921,32.9447392 13.4062964,32.9223168 13.2773521,33.1247219 C13.1481638,33.327127 13.0115341,33.4773335 12.9129656,33.5523162 C12.814275,33.6272989 12.6472696,33.6573161 12.5562645,33.6272989 C12.4651374,33.5972817 12.4347617,33.5898076 12.3664468,33.6197042 C12.2982539,33.6497214 12.2148122,33.6122301 12.1540608,33.6047559 C12.0933094,33.5972817 11.9870554,33.6422473 12.1313705,33.6872128 C12.2755637,33.7322989 12.4043859,33.7922127 12.4120714,33.8596007 C12.4196348,33.9272298 12.4727008,33.9647212 12.5562645,33.9872642 C12.6397062,34.0099278 12.6852088,34.1522985 12.5638279,34.1297555 C12.4424471,34.1072124 12.4347617,34.1297555 12.5107619,34.2347554 C12.5866402,34.3397553 12.761209,34.4672982 12.6093305,34.4672982 C12.4575739,34.4672982 12.4500105,34.5122638 12.4196348,34.3771261 C12.3892591,34.2422295 12.2300611,34.1897899 12.1313705,34.2722467 C12.032558,34.3547036 11.8048012,34.5348068 11.6834203,34.5647034 C11.5621615,34.5947206 11.5544761,34.6021948 11.5544761,34.6698239 C11.5544761,34.7372119 11.5164149,34.7972463 11.4482221,34.8647548 C11.3799072,34.9322634 11.3495315,34.9472117 11.3267192,35.0372633 C11.3040289,35.1273149 11.2357141,35.2622115 11.1143333,35.2922286 C10.9928304,35.3222458 10.8562007,35.3072975 10.9169521,35.4722113 C10.9775816,35.6373661 11.0308915,36.1022107 11.0308915,36.1022107 C11.02528,36.2295126 11.0582175,36.2121532 11.131412,36.3146216 C11.2279067,36.449277 11.2673097,36.6064755 11.2553546,36.8423938 C11.2304685,37.3355679 11.0556557,37.7304929 11.554964,37.5577434 C12.0542724,37.3851144 11.9293538,37.335809 12.2289632,37.4591327 C12.5284506,37.5824563 12.7281495,37.5824563 12.7281495,37.5824563 C12.7281495,37.5824563 13.0027508,37.8291036 13.1025393,38.0018532 C13.2024497,38.1744822 13.5269453,38.2730929 13.7017581,38.3718242 C13.8764489,38.4704349 14.1260421,38.6431845 14.2758468,38.8405264 C14.4256515,39.037989 14.3507491,39.2104974 14.7251389,39.1117662 C15.0996506,39.0130349 15.1245368,38.9638501 15.2993496,39.037989 C15.4740404,39.1117662 15.6237231,38.9391372 15.6488532,38.7911005 C15.6738613,38.6431845 15.6237231,38.3964166 16.3976327,38.4458425 C17.1714204,38.4952684 17.521046,38.5197403 17.7206229,38.6678974 C17.9203219,38.8158135 18.369614,39.1857845 18.3448498,39.358534 C18.3197197,39.5311631 18.4696464,39.8025233 18.6194511,39.8025233 C18.7690119,39.8025233 18.79402,39.753218 18.9188166,39.8518287 C19.0436131,39.9505599 19.3182144,39.9998653 19.5429215,39.8765416 C19.7675065,39.753218 19.9672055,39.6791997 20.1420183,39.6544867 C20.3167091,39.6298943 20.7910093,39.5311631 20.9158059,39.2598028 C21.0406025,38.9884425 21.365098,38.9638501 21.5149027,39.0624608 C21.6647074,39.1611921 21.6897155,39.2352104 21.8395202,39.2598028 C21.989203,39.2843952 22.0889914,39.383247 22.213788,39.555876 C22.3387066,39.728505 22.4635032,39.8765416 22.6633241,39.753218 C22.8627791,39.6298943 23.0626,39.6051814 23.1375023,39.753218 C23.1722697,39.8220526 23.2265556,39.8436312 23.2699843,39.9851581 C23.3966108,40.0023969 23.552515,40.0397677 23.6751158,40.189492 C23.7685607,40.3035332 23.8125994,40.3551291 23.8591999,40.3877984 L23.9748472,40.5267937 C24.0360866,40.5564492 24.0923243,40.579595 24.135875,40.5918912 C24.3106878,40.6411966 24.3605821,40.7645202 24.2359075,40.9371492 C24.1111109,41.1098988 23.9613062,41.2332225 23.9613062,41.2332225 C23.9613062,41.2332225 23.8113795,41.1346118 23.6618188,41.4552774 C23.5120141,41.775943 23.287185,42.2939506 23.287185,42.2939506 C23.287185,42.2939506 23.0125838,42.6639216 23.1124942,42.8859765 C23.2122827,43.1080314 23.2773038,43.33527 23.0425935,43.3203217 C22.8077612,43.3053734 22.6184315,43.33527 22.5198629,43.2454596 C22.4215383,43.1556491 22.3532235,43.0508903 22.2093963,43.0508903 C22.0655692,43.0508903 21.9518738,43.0359419 21.9518738,43.0359419 L21.9567534,42.9563783 C22.0519062,43.1004367 21.7419276,43.3171874 21.7110639,43.4291793 C21.6802003,43.5411711 21.4919685,44.0672557 21.5360071,44.1650225 C21.4123085,44.3987709 21.4822092,44.390694 21.4822092,44.6601254 C21.4822092,44.7949014 21.6667813,44.9707853 21.8106084,45.0532422 C21.9544356,45.135458 21.7397318,45.363661 21.7019146,45.4534715 C21.6639755,45.543282 21.789504,45.6980694 21.9643168,45.6980694 C22.1390077,45.6980694 22.5384055,45.5994587 22.638194,45.7474953 C22.7379825,45.8954114 22.7379825,46.216077 22.8130068,46.3394007 C22.8877872,46.4628449 23.0125838,46.5861686 22.9378034,46.8821212 C22.8627791,47.1781945 22.7629906,47.3015181 22.9127953,47.4988601 C23.0626,47.6962021 23.0125838,47.7207945 23.0375919,48.0168677 C23.0626,48.3128204 23.0375919,48.6829119 22.9628115,48.8802539 C22.8877872,49.0775958 22.8627791,49.4968722 23.1124942,49.6696217 C23.3622094,49.8423713 23.5120141,49.8669637 23.5866725,49.5462981 C23.6618188,49.2255119 23.711591,49.1516141 23.9861923,49.3242432 C24.2606716,49.4968722 24.4604925,49.4722798 24.6101752,49.4475668 C24.7599799,49.4228539 24.7349718,49.4475668 24.984687,49.6449088 C25.2342802,49.8423713 25.5337676,50.0643057 25.7834827,50.0395927 C26.0330759,50.0150003 26.5822785,49.9408615 26.682067,50.0888981 C26.7819774,50.2369347 26.7320832,50.680924 26.5572704,50.8043682 C26.3825796,50.9275713 25.8084909,51.1003209 26.057962,51.2237651 C26.3077992,51.3469682 26.7569693,51.3716811 26.9566682,51.5197178 C27.1564892,51.6676338 27.7055698,52.0376048 27.8053582,52.1856414 C27.9052687,52.3337986 28.2047561,52.728362 28.5042435,52.6790566 C28.8038529,52.6297513 29.0784542,52.1117437 29.253267,52.3337986 C29.4279578,52.5556124 29.5277463,52.5556124 29.6525429,52.9997222 C29.7774615,53.4437115 29.7275672,53.7890901 29.9271442,53.8631084 C30.1268431,53.9370062 30.1518512,53.9124138 30.3766803,53.6410535 C30.6011433,53.3696932 30.6011433,52.9997222 30.8507365,53.1477589 C31.069222,53.2772306 31.3832263,53.7089237 31.4582507,53.8147675 C31.533275,53.9207318 31.9515815,54.0276605 32.1930013,53.9581026 C32.4344211,53.8885447 33.5407556,53.7594346 33.7419184,53.5904221 C33.9430813,53.4214096 34.3755386,53.2127358 34.3755386,53.2127358 C34.3755386,53.2127358 34.4963095,53.4016392 34.7074756,53.3419665 C34.9187637,53.2822938 35.3210893,53.2822938 35.4417382,53.4611914 C35.5625091,53.6400891 35.9145745,54.1272356 36.0452267,54.2066787 C36.1760008,54.2862424 36.2866465,54.3060128 36.3974141,54.3160185 C36.5079378,54.3259037 36.7493576,54.4750252 36.8701285,54.5743593 C36.9070917,54.6049792 36.6937298,54.4777979 36.796446,54.4499506 C36.9130692,54.4183663 37.3506502,54.4812939 37.4628818,54.4459725 C37.5736494,54.4111332 37.6594089,54.3928095 37.6750238,54.4271665 C37.6867349,54.4529644 37.9543827,54.7941237 38.1152885,54.7585612 C38.2442328,54.7299906 38.3700053,54.6805647 38.5622628,54.62704 C38.5909307,54.6190837 38.6814478,54.5571205 38.5932485,54.5272238 C38.493826,54.4935901 38.4229493,54.3714719 38.4179477,54.2997441 C38.4092864,54.1749738 38.3807405,54.0463459 38.4700378,53.9574998 C38.5015114,53.9262771 38.6197205,53.8122359 38.7507386,53.6875862 C38.8239331,53.6177872 38.8587005,53.5209847 38.9351887,53.4992855 C39.0209482,53.4745726 39.0430286,53.5718572 39.0568135,53.6412946 C39.0657188,53.6862601 39.0837735,53.88095 39.2162555,53.980284 C39.2174754,53.9812484 39.2804227,53.9831772 39.3072606,54.0744343 C39.315922,54.1038487 39.3065287,54.267557 39.2352861,54.4063112 C39.1204927,54.6299333 38.9198179,54.8635611 38.9367746,54.9225105 C38.9477537,54.9610868 38.9528774,55.0997205 39.0071633,55.0800707 C39.169899,55.0212418 39.4998841,54.634032 39.5580737,54.6158288 C39.6112617,54.5993133 39.752893,54.6407829 39.8094967,54.4934695 C39.8493877,54.3896751 40.0886117,54.1832918 40.1142298,54.0464665 C40.1275268,53.9760647 39.9357572,54.0016215 39.9189225,53.9514723 C39.9009898,53.8993943 39.9593014,53.8522588 39.9988265,53.8037973 C40.0226147,53.7748651 40.0254205,53.7306229 40.0417672,53.7254392 C40.0832441,53.7122991 40.1159376,53.5528102 40.0871478,53.4491363 C40.0615297,53.3576381 39.9752822,53.3282237 39.9869934,53.2100837 C39.9934589,53.1452273 40.0721429,53.0816969 40.1203293,53.0126212 C40.1786409,52.9293205 40.2092606,52.8451759 40.2273152,52.8358935 C40.2639125,52.8168464 40.3224681,52.9443893 40.42982,52.9822424 C40.5035024,53.0080403 40.6330566,52.9243779 40.6624564,52.9911631 C40.6836828,53.039263 40.5131397,53.1789816 40.4723947,53.2601124 C40.4608056,53.2828965 40.4964269,53.2982065 40.5043563,53.3089355 C40.561692,53.389343 40.6951499,53.4311742 40.7427264,53.4165876 C40.7654166,53.4094751 40.8458086,53.3636657 40.9043642,53.2842226 C40.9530385,53.2185223 40.9837802,53.113884 41.0194015,53.1131607 C41.0555108,53.112558 41.2636271,52.891588 41.2769241,52.9518635 C41.2797298,52.9652447 41.3235245,53.0069553 41.3082757,53.0462549 C41.2626511,53.1640332 41.1097967,53.3472707 41.1195559,53.3739125 C41.1305351,53.4036886 41.1685962,53.3830744 41.1807953,53.3784934 C41.3002243,53.3331663 41.3983049,53.2280458 41.4712554,53.203574 C41.543352,53.1794638 41.5915383,53.2184017 41.5982478,53.2152674 L41.7158469,53.0223858 L41.7955069,52.8730232 L41.9340885,52.8327591 L41.9621464,52.5759855 L42.0026473,52.4117951 L42.032779,52.3919042 L42.1811199,52.5005206 L42.2932294,52.4638731 L42.5201323,52.4724322 L42.5647809,52.3910603 L42.4656024,52.2373578 L42.3014028,52.1251248 L42.0607149,52.1246426 L42.01997,51.9889022 L41.9110322,51.7797462 L41.9393341,51.6513594 L41.9229873,51.5910839 L41.6958405,51.6959633 L41.6508259,51.6137475 L41.6636349,51.2188225 L41.7876995,51.1921807 L41.847719,51.0794655 L41.9061526,50.9984553 L42.0102107,51.0035184 L42.0293633,50.9016528 L42.1286638,50.8454761 L42.1692867,50.7680823 L42.1912451,50.6104017 L42.2485808,50.5322846 L42.4481577,50.5478357 L42.5570955,50.7175715 L42.7040944,50.7273361 L42.908551,50.7395118 L42.86805,50.8189549 L42.7510609,50.9584324 L42.7538666,51.1702404 L42.7952215,51.2372668 L42.8674401,51.2605331 L42.9391707,51.1619224 L43.0220024,51.0288341 L43.1487509,50.9490294 L43.1804685,50.9860385 L43.1700993,51.2822323 L43.1310622,51.4274963 L42.9823554,51.5867441 L42.7747271,51.8037359 L42.7181233,52.0016806 L42.7237349,52.1156013 L42.8109583,52.1923923 L43.0492064,52.3099295 L43.0851937,52.3928686 L43.1041022,52.6880979 L43.1148374,52.7190795 L43.1618039,52.7271565 L43.2257271,52.5849063 L43.305875,52.4017893 L43.3649186,52.2561637 L43.3205139,52.1094532 L43.2492713,52.0185577 L43.2321926,51.9336899 L43.2786711,51.8538851 L43.4323795,52.0541203 L43.4511661,52.0232592 L43.4589735,51.7701022 L43.5525404,51.6132653 L43.5737668,51.6331562 L43.5644955,51.8153088 L43.5859659,51.8532823 L43.7535812,51.7688967 L43.8788658,51.7197118 L43.8953345,51.7533456 L43.7663903,51.9391146 L43.7720018,52.0280813 L43.7401623,52.0900445 L43.610486,52.1295852 L43.5164311,52.3136666 L43.4895932,52.3664679 L43.5347297,52.3979317 L43.9330297,52.3980523 L44.0389177,52.4350614 L44.1612745,52.4718295 L44.247888,52.5595906 L44.2039713,53.3202673 L44.2053132,53.5295438 L44.2908287,53.7564208 L44.3820778,53.9094 L44.4680813,53.9694344 L44.5837286,53.9237456 L44.9403077,53.6258641 L44.9647059,10.3194886 Z" id="广西"></path>
            </g>
        </g>
    </g>
</svg>