<?xml version="1.0" encoding="UTF-8"?>
<svg width="170px" height="170px" viewBox="0 0 170 170" version="1.1" xmlns="http://www.w3.org/2000/svg" xmlns:xlink="http://www.w3.org/1999/xlink">
    <title>jdo_cn_iqiyi_gesture_guidance_swipe_between_screens</title>
    <g id="jdo_cn_iqiyi_gesture_guidance_swipe_between_screens" stroke="none" stroke-width="1" fill="none" fill-rule="evenodd">
        <g id="E573_textinput_btn_hwr_mirrored备份" transform="translate(56.000000, 43.000000)" stroke="#FFFFFF" stroke-width="1.2">
            <path d="M25.9140552,84.9818942 C25.9140552,84.9818942 26.3031078,77.6625428 23.7101605,77.0495699 C19.894792,76.1528131 14.3905815,62.3495699 14.3905815,62.3495699 C14.3905815,62.3495699 10.4934236,54.4104347 3.87289729,51.4045969 C-4.11373429,47.7789753 2.72784466,43.6561645 2.72784466,43.6561645 C8.85984466,39.8602726 15.1753183,43.9535699 20.5468973,49.3409212 C21.6455289,49.1070834 21.3913183,45.7629753 21.3913183,45.7629753 L21.4465815,10.2763807 C21.4465815,7.81767797 22.6535289,5.07065094 25.1735289,5.07065094 L26.694371,5.07065094 C29.214371,5.07065094 30.5451078,7.81767797 30.5451078,10.2763807 L30.5274236,39.855732" id="路径"></path>
            <path d="M48.2348226,35.9481428 C48.2348226,32.1159266 50.3086499,31.4439266 53.2375973,31.4439266 C56.3013868,31.4439266 57.0769278,33.1988455 57.0769278,35.6575482 L57.0769278,67.8772239 C57.0769278,70.8399266 53.6561605,73.7208996 54.3436341,76.7812239 L54.3436341,84.9814401" id="路径"></path>
            <path d="M39.6986762,9.09839148 C39.6252029,7.9311836 40.0747714,6.79341823 40.9194454,6.00887586 C41.7641195,5.22433349 42.9114088,4.87892012 44.0348226,5.07093202 C46.2739441,5.00167398 48.1486984,6.79941141 48.2348226,9.09839148 L48.2348226,43.6166618" id="路径"></path>
            <path d="M30.5444447,17.877097 L30.5444447,3.81489959 C30.6394973,1.05425094 33.0777078,0.023548241 35.2948657,0.023548241 C36.3728051,-0.0956734411 37.4515217,0.241222987 38.2823508,0.956576513 C39.1131799,1.67193004 39.6244249,2.70400899 39.6982341,3.81489959 L39.647392,37.7361969" id="路径"></path>
        </g>
    </g>
</svg>