<?xml version="1.0" encoding="UTF-8"?>
<svg width="40px" height="40px" viewBox="0 0 40 40" version="1.1" xmlns="http://www.w3.org/2000/svg" xmlns:xlink="http://www.w3.org/1999/xlink">
    <title>胎压异常</title>
    <defs>
        <polygon id="path-1" points="-1.0733808e-15 0 36.0773723 0 36.0773723 32 -1.0733808e-15 32"></polygon>
    </defs>
    <g id="胎压异常" stroke="none" stroke-width="1" fill="none" fill-rule="evenodd">
        <rect id="40px" x="0" y="0" width="40" height="40"></rect>
        <g id="编组" transform="translate(2.000000, 4.000000)">
            <path d="M18.0500334,1.59497143 C19.5304143,1.59497143 20.5071762,2.92525714 20.5071762,4.57325714 L20.5071762,14.2288762 C20.5071762,15.8723048 19.5304143,17.0799238 18.0500334,17.0799238 C16.5727,17.0799238 15.5982238,15.8723048 15.5982238,14.2288762 L15.5982238,4.57325714 C15.5982238,2.92525714 16.5727,1.59497143 18.0500334,1.59497143" id="Fill-1" fill="#FFDD02"></path>
            <path d="M15.3579953,21.7152762 C15.3168524,20.236419 16.4825667,19.004419 17.9621858,18.9632762 C19.4410429,18.9221333 20.6730429,20.0878476 20.7141858,21.5667048 C20.7553286,23.0463238 19.5888524,24.2783238 18.1099953,24.3194667 C18.0856143,24.3194667 18.0604715,24.3202286 18.0360905,24.3202286 C16.5778048,24.3408 15.3785667,23.1758476 15.3579953,21.7175619 C15.3579953,21.7168 15.3579953,21.7160381 15.3579953,21.7152762" id="Fill-3" fill="#FFDD02"></path>
            <g>
                <mask id="mask-2" fill="white">
                    <use xlink:href="#path-1"></use>
                </mask>
                <g id="Clip-6"></g>
                <path d="M28.7877096,32.0000107 L27.3248524,32.0000107 L27.3248524,30.0921905 L24.8852334,30.0921905 L24.8852334,32.0000107 L21.8833286,32.0000107 L21.8833286,30.0921905 L19.5419953,30.0921905 L19.5419953,32.0000107 L16.5355191,32.0000107 L16.5355191,30.0921905 L14.1941858,30.0921905 L14.1941858,32.0000107 L11.1397096,32.0000107 L11.1397096,30.0921905 L8.74885242,30.0921905 L8.74885242,32.0000107 L6.5218048,32.0000107 C5.94275718,32.0022857 5.42466194,31.6365714 5.23418575,31.0895238 C4.94694766,30.256 4.8250429,29.7394286 4.7130429,29.3089524 C4.6658048,29.1238095 4.6178048,28.96 4.56218575,28.8038095 C4.52713813,28.7055238 4.48370956,28.6110476 4.42961432,28.496 C4.33513813,28.2910476 4.19647147,28.024381 4.06999528,27.7660952 C3.93209051,27.4681905 3.77894766,27.1779048 3.61132861,26.896 C3.41932861,26.5965714 3.19761432,26.3299048 2.9850429,26.0304762 C2.73361432,25.6693333 2.50351909,25.2944762 2.29628099,24.9059048 C2.12028099,24.5859048 1.97399528,24.2994286 1.82694766,23.9710476 C1.62885242,23.5238095 1.42847147,23.0110476 1.2418048,22.5059048 C1.05132861,21.9931429 0.879900038,21.4925714 0.729042895,21.000381 C0.588852419,20.5325714 0.468471467,20.0693333 0.365614324,19.6137143 C0.261995276,19.1542857 0.177423848,18.6948571 0.114947657,18.1980952 C0.0418048,17.5535238 0.00447146667,16.9059048 0.00142384762,16.2575238 C-0.00467139048,15.6708571 0.0098048,15.1009524 0.0258048,14.5798095 C0.0410428952,14.1775238 0.0532333714,13.8041905 0.102757181,13.3859048 C0.158376229,12.8975238 0.26428099,12.343619 0.367138133,11.8590476 C0.450185752,11.4735238 0.532471467,11.1329524 0.63228099,10.7718095 C0.739709562,10.3740952 0.865423848,9.9512381 1.01018575,9.54514286 C1.15494766,9.14285714 1.31875718,8.75733333 1.50847147,8.3512381 C1.71951909,7.90019048 1.9610429,7.42019048 2.19266194,7.01790476 C2.36866194,6.71009524 2.5385667,6.45180952 2.70770956,6.15619048 C2.91647147,5.79961905 3.12294766,5.38895238 3.31951909,4.96228571 C3.53894766,4.50742857 3.71799528,4.03352381 3.85285242,3.54742857 C3.94047147,3.17333333 4.00599528,2.79542857 4.04942385,2.41447619 C4.09513813,2.09904762 4.14694766,1.8072381 4.17742385,1.4872381 C4.20866194,1.16342857 4.21932861,1.09790476 4.23532861,0.696380952 C4.25285242,0.332952381 4.55228099,0.0472380952 4.91570956,0.048 L8.10885242,0.048 C8.46161432,0.0495238095 8.75570956,0.32 8.78694766,0.671238095 C8.81742385,1.10247619 8.85094766,1.19619048 8.85475718,1.49180952 C8.86161432,1.70438095 8.84637623,1.91771429 8.8090429,2.1272381 C8.7130429,2.65447619 8.58047147,3.17409524 8.4105667,3.68228571 C8.31837623,3.95809524 8.20561432,4.22704762 8.0738048,4.48685714 C7.92370956,4.78171429 7.75532861,5.06666667 7.56866194,5.34019048 C7.3690429,5.632 7.15037623,5.91161905 6.91570956,6.1767619 C6.72370956,6.39466667 6.5370429,6.58285714 6.33894766,6.8007619 C6.08447147,7.08342857 5.81399528,7.42019048 5.56332861,7.74857143 C5.32332861,8.064 5.10694766,8.37638095 4.91266194,8.67580952 C4.73894766,8.9432381 4.57894766,9.22057143 4.43266194,9.504 C4.2490429,9.85752381 4.06466194,10.2514286 3.90313813,10.632381 C3.75075718,10.9897143 3.61361432,11.3302857 3.49628099,11.6708571 C3.37818575,12.0152381 3.27913813,12.359619 3.18618575,12.7245714 C3.06809051,13.192381 2.97894766,13.6662857 2.91951909,14.1447619 C2.86847147,14.599619 2.8425667,15.0567619 2.8410429,15.5146667 C2.83266194,15.9870476 2.83266194,16.4624762 2.85932861,16.9386667 C2.89132861,17.4186667 2.95761432,17.895619 3.05818575,18.3664762 C3.16637623,18.8419048 3.29894766,19.3112381 3.45513813,19.7737143 C3.58542385,20.176 3.71951909,20.5615238 3.87494766,20.9432381 C4.02123337,21.304381 4.18885242,21.6693333 4.36866194,22.0175238 C4.54618575,22.3664762 4.74123337,22.7070476 4.95609051,23.0438095 C5.19532861,23.4171429 5.39037623,23.9626667 5.68218575,24.3314286 C5.98999528,24.7169524 6.32066194,25.0948571 6.60637623,25.3897143 C6.83799528,25.632 7.03609051,25.8209524 7.26999528,26.0297143 C7.92294766,26.6773333 8.62694766,27.272381 9.37361432,27.8095238 L26.7016143,27.8095238 C27.4566619,27.272381 28.168281,26.6780952 28.8296143,26.0297143 C29.0635191,25.8209524 29.2639,25.632 29.4932334,25.3897143 C29.7789477,25.0948571 30.0395191,24.7169524 30.3435191,24.3314286 C30.6353286,23.9626667 30.8814238,23.4171429 31.1191381,23.0438095 C31.3324715,22.711619 31.528281,22.3695238 31.7065667,22.0175238 C31.8886619,21.6693333 32.0539953,21.304381 32.2025667,20.9432381 C32.3579953,20.5615238 32.4905667,20.176 32.6223762,19.7737143 C32.7778048,19.3112381 32.9096143,18.8419048 33.0178048,18.3664762 C33.1183762,17.896381 33.1839,17.4186667 33.2136143,16.9386667 C33.2448524,16.4624762 33.2448524,15.9870476 33.2364715,15.5146667 C33.2341858,15.0567619 33.2075191,14.599619 33.1579953,14.1447619 C33.0978048,13.6662857 33.0079,13.192381 32.8890429,12.7245714 C32.7983762,12.359619 32.6970429,12.0152381 32.5789477,11.6708571 C32.4616143,11.3302857 32.3267572,10.9897143 32.1743762,10.632381 C32.0105667,10.2514286 31.8269477,9.85752381 31.6425667,9.504 C31.4894238,9.20914286 31.336281,8.94628571 31.1625667,8.67580952 C30.9705667,8.37638095 30.7519,8.064 30.5119,7.74857143 C30.2612334,7.42019048 29.9930429,7.08342857 29.736281,6.8007619 C29.5397096,6.58285714 29.3499953,6.39466667 29.1595191,6.1767619 C28.9256143,5.91161905 28.7077096,5.632 28.5080905,5.34019048 C28.3214238,5.06666667 28.1530429,4.78171429 28.0037096,4.48685714 C27.8719,4.22704762 27.7591381,3.95809524 27.6669477,3.68228571 C27.4978048,3.17409524 27.3637096,2.65447619 27.2661858,2.1272381 C27.2296143,1.91771429 27.2143762,1.70438095 27.2204715,1.49180952 C27.2265667,1.19619048 27.2578048,1.05447619 27.2905667,0.624 C27.320281,0.271238095 27.6151381,0 27.9686619,0 L31.1618048,0 C31.5244715,0 31.8239,0.285714286 31.8399,0.648380952 C31.8581858,1.05066667 31.8688524,1.16342857 31.8955191,1.4872381 C31.9290429,1.8072381 31.9800905,2.09904762 32.0258048,2.41447619 C32.0715191,2.79542857 32.1370429,3.17333333 32.2223762,3.54742857 C32.3595191,4.03352381 32.5378048,4.50666667 32.7557096,4.96228571 C32.952281,5.38895238 33.1610429,5.79961905 33.3675191,6.15619048 C33.5374238,6.45180952 33.7065667,6.71009524 33.8825667,7.01790476 C34.1141858,7.42019048 34.3579953,7.90019048 34.5690429,8.3512381 C34.7572334,8.75733333 34.920281,9.14285714 35.0627572,9.54514286 C35.2098048,9.9512381 35.3378048,10.3740952 35.4452334,10.7718095 C35.5427572,11.1329524 35.6250429,11.4735238 35.7080905,11.8590476 C35.8117096,12.343619 35.9145667,12.8975238 35.9747572,13.3859048 C36.0219953,13.8041905 36.0364715,14.1775238 36.0494238,14.5798095 C36.0654238,15.1009524 36.0821858,15.6708571 36.0760905,16.2575238 C36.072281,16.9059048 36.0341858,17.5542857 35.960281,18.1980952 C35.9023762,18.6742857 35.8185667,19.1466667 35.7103762,19.6137143 C35.6090429,20.0693333 35.4848524,20.5325714 35.3439,21.000381 C35.1976143,21.4925714 35.0239,21.9931429 34.8334238,22.5066667 C34.6490429,23.0110476 34.4486619,23.5238095 34.248281,23.9710476 C34.1019953,24.2994286 33.9572334,24.5866667 33.7812334,24.9059048 C33.5732334,25.2937143 33.3431381,25.6693333 33.0924715,26.0304762 C32.8799,26.3299048 32.6543762,26.5965714 32.4661858,26.896 C32.2978048,27.1779048 32.1439,27.4681905 32.0052334,27.7660952 C31.8772334,28.024381 31.7423762,28.2910476 31.6433286,28.496 C31.5915191,28.6110476 31.5503762,28.7055238 31.5130429,28.8038095 C31.4543762,28.9691429 31.4040905,29.1382857 31.3621858,29.3089524 C31.2509477,29.7394286 31.1290429,30.256 30.8433286,31.0895238 C30.6513286,31.6350476 29.368281,32.0000107 28.7877096,32.0000107" id="Fill-5" fill="#FFDD02" mask="url(#mask-2)"></path>
            </g>
        </g>
    </g>
</svg>