<?xml version="1.0" encoding="UTF-8"?>
<svg width="44px" height="63px" viewBox="0 0 44 63" version="1.1" xmlns="http://www.w3.org/2000/svg" xmlns:xlink="http://www.w3.org/1999/xlink">
    <title>jdo_appshop_silvermedal</title>
    <defs>
        <polygon id="path-1" points="0 0 44 0 44 42.7584448 0 42.7584448"></polygon>
        <linearGradient x1="14.2113868%" y1="15.6519632%" x2="81.8710109%" y2="85.2473383%" id="linearGradient-3">
            <stop stop-color="#CFD8E1" offset="0%"></stop>
            <stop stop-color="#84929B" offset="100%"></stop>
        </linearGradient>
        <polygon id="path-4" points="0 0 22.1237964 0 22.1237964 17.3653013 0 17.3653013"></polygon>
        <polygon id="path-6" points="0 0 8.58577209 0 8.58577209 17.3653013 0 17.3653013"></polygon>
        <polygon id="path-8" points="0 0 8.58577209 0 8.58577209 17.3653013 0 17.3653013"></polygon>
        <polygon id="path-10" points="0 0 8.58577209 0 8.58577209 17.3653013 0 17.3653013"></polygon>
        <polygon id="path-12" points="0 0 8.58577209 0 8.58577209 17.3653013 0 17.3653013"></polygon>
        <radialGradient cx="50%" cy="50%" fx="50%" fy="50%" r="50%" gradientTransform="translate(0.500000,0.500000),scale(0.971788,1.000000),rotate(90.000000),scale(1.000000,1.024292),translate(-0.500000,-0.500000)" id="radialGradient-14">
            <stop stop-color="#000000" stop-opacity="0" offset="0%"></stop>
            <stop stop-color="#000000" stop-opacity="0" offset="87.4317089%"></stop>
            <stop stop-color="#000000" stop-opacity="0.05" offset="100%"></stop>
        </radialGradient>
    </defs>
    <g id="jdo_appshop_silvermedal" stroke="none" stroke-width="1" fill="none" fill-rule="evenodd">
        <g id="2备份" transform="translate(0.000000, 0.000000)">
            <g id="编组-18">
                <path d="M42.3391959,39.4305091 C42.3391959,51.2432409 32.5174292,60.8191131 20.4019597,60.8191131 C13.1717516,60.8191131 6.75904539,57.4089171 2.76228027,52.1485498 C6.66883459,58.0441165 13.4682729,61.9466507 21.2026472,61.9466507 C33.3181167,61.9466507 43.1398834,52.3707785 43.1398834,40.5580467 C43.1398834,35.7947015 41.5425119,31.394885 38.8417929,27.8400061 C41.0546263,31.1796822 42.3391959,35.1589816 42.3391959,39.4305091 Z" id="Fill-16" fill="#8997A0" fill-rule="nonzero"></path>
                <polygon id="Fill-1" fill="#AA312F" fill-rule="nonzero" points="21.4581048 2.60220986e-05 14.7491442 17.3653533 29.8442388 17.3653533 37.1123461 2.60220986e-05"></polygon>
                <path d="M31.1309622,18.0922892 L13.3493507,18.0922892 L13.3493507,17.3169102 C13.3493507,16.4733832 14.0530243,15.7895618 14.9210402,15.7895618 L29.5592726,15.7895618 C30.4272885,15.7895618 31.1309622,16.4733832 31.1309622,17.3169102 L31.1309622,18.0922892 Z M30.623482,14.3756201 L14.2304818,14.3756201 C13.1542278,14.3756201 12.281394,15.223569 12.281394,16.2697194 L12.281394,26.4144129 L32.5728374,26.4144129 L32.5728374,16.2697194 C32.5728374,15.223569 31.7000037,14.3756201 30.623482,14.3756201 L30.623482,14.3756201 Z" id="Fill-2" fill="#87949C" fill-rule="nonzero"></path>
                <g id="Fill-14-Clipped" transform="translate(0.000000, 20.187451)">
                    <mask id="mask-2" fill="white">
                        <use xlink:href="#path-1"></use>
                    </mask>
                    <g id="path-1"></g>
                    <path d="M43.5480685,25.7114516 C41.4873237,35.4419458 32.6228584,42.7584709 22.0000937,42.7584709 C9.84974515,42.7584709 -8.02974901e-05,33.1867931 -8.02974901e-05,21.3792354 C-8.02974901e-05,9.57167779 9.84974515,0 22.0000937,0 C34.1501746,0 44,9.57167779 44,21.3792354 C44,22.8634949 43.8443575,24.3124241 43.5480685,25.7114516 Z" id="Fill-14" fill="url(#linearGradient-3)" fill-rule="nonzero" mask="url(#mask-2)"></path>
                </g>
                <g id="Fill-4-Clipped" transform="translate(7.720416, 0.000000)">
                    <mask id="mask-5" fill="white">
                        <use xlink:href="#path-4"></use>
                    </mask>
                    <g id="path-4"></g>
                    <polygon id="Fill-4" fill="#FA342B" fill-rule="nonzero" mask="url(#mask-5)" points="0 -2.60220991e-05 7.02870179 17.3653013 22.1237964 17.3653013 15.2549652 -2.60220991e-05"></polygon>
                </g>
                <g id="Fill-6-Clipped" transform="translate(9.656718, 0.000000)">
                    <mask id="mask-7" fill="white">
                        <use xlink:href="#path-6"></use>
                    </mask>
                    <g id="path-6"></g>
                    <polygon id="Fill-6" fill="#FCE0E0" fill-rule="nonzero" mask="url(#mask-7)" points="8.58577209 17.3653013 0.873016273 -2.60220991e-05 0 -2.60220991e-05 7.71302271 17.3653013"></polygon>
                </g>
                <g id="Fill-8-Clipped" transform="translate(12.923844, 0.000000)">
                    <mask id="mask-9" fill="white">
                        <use xlink:href="#path-8"></use>
                    </mask>
                    <g id="path-8"></g>
                    <polygon id="Fill-8" fill="#FCE0E0" fill-rule="nonzero" mask="url(#mask-9)" points="8.58577209 17.3653013 0.873016273 -2.60220991e-05 0 -2.60220991e-05 7.71302271 17.3653013"></polygon>
                </g>
                <g id="Fill-10-Clipped" transform="translate(16.534491, 0.000000)">
                    <mask id="mask-11" fill="white">
                        <use xlink:href="#path-10"></use>
                    </mask>
                    <g id="path-10"></g>
                    <polygon id="Fill-10" fill="#FCE0E0" fill-rule="nonzero" mask="url(#mask-11)" points="8.58577209 17.3653013 0.873016273 -2.60220991e-05 0 -2.60220991e-05 7.71302271 17.3653013"></polygon>
                </g>
                <g id="Fill-12-Clipped" transform="translate(19.725764, 0.000000)">
                    <mask id="mask-13" fill="white">
                        <use xlink:href="#path-12"></use>
                    </mask>
                    <g id="path-12"></g>
                    <polygon id="Fill-12" fill="#FCE0E0" fill-rule="nonzero" mask="url(#mask-13)" points="8.58577209 17.3653013 0.873016273 -2.60220991e-05 0 -2.60220991e-05 7.71302271 17.3653013"></polygon>
                </g>
                <path d="M39.9646886,41.4148819 C39.9646886,51.0443035 31.9317277,58.8503749 22.0230174,58.8503749 C12.1137719,58.8503749 4.08134627,51.0443035 4.08134627,41.4148819 C4.08134627,31.7854604 12.1137719,23.9793889 22.0230174,23.9793889 C31.9317277,23.9793889 39.9646886,31.7854604 39.9646886,41.4148819" id="Fill-18" fill="#CFD8E1" fill-rule="nonzero"></path>
                <path d="M39.9646886,41.4148819 C39.9646886,51.0443035 31.9317277,58.8503749 22.0230174,58.8503749 C12.1137719,58.8503749 4.08134627,51.0443035 4.08134627,41.4148819 C4.08134627,31.7854604 12.1137719,23.9793889 22.0230174,23.9793889 C31.9317277,23.9793889 39.9646886,31.7854604 39.9646886,41.4148819" id="Fill-18" stroke-opacity="0.0528385189" stroke="#002E5C" stroke-width="0.5"></path>
                <path d="M39.9646886,41.4148819 C39.9646886,51.0443035 31.9317277,58.8503749 22.0230174,58.8503749 C12.1137719,58.8503749 4.08134627,51.0443035 4.08134627,41.4148819 C4.08134627,31.7854604 12.1137719,23.9793889 22.0230174,23.9793889 C31.9317277,23.9793889 39.9646886,31.7854604 39.9646886,41.4148819" id="path-14" fill="url(#radialGradient-14)" fill-rule="nonzero"></path>
                <path d="M15.7748502,49.96436 L15.7748502,47.6762741 L20.9418424,43.8466843 C21.3930143,43.5136764 21.8030078,43.2012578 22.1718229,42.9094284 C22.540638,42.617599 22.8700651,42.3383021 23.1601041,42.0715378 C23.4501432,41.8047735 23.7016894,41.5487513 23.9147428,41.3034714 C24.1277962,41.0581914 24.3041471,40.8173874 24.4437955,40.5810593 C24.583444,40.3447311 24.6872851,40.108403 24.755319,39.8720749 C24.8233528,39.6357468 24.8573698,39.3922572 24.8573698,39.1416061 C24.8573698,38.6975957 24.7920215,38.3055059 24.6613248,37.9653366 C24.5306282,37.6251673 24.3256315,37.3396042 24.0463346,37.1086472 C23.7670377,36.8776901 23.40986,36.7040248 22.9748014,36.5876511 C22.5397428,36.4712774 22.0160612,36.4130905 21.4037565,36.4130905 C21.0241992,36.4130905 20.620472,36.4372604 20.1925748,36.4856003 C19.7646777,36.5339401 19.3349902,36.6010788 18.9035123,36.6870163 C18.4720345,36.7729538 18.0504036,36.8767949 17.6386198,36.9985397 C17.2268359,37.1202845 16.8472786,37.2545619 16.4999479,37.4013718 L16.4999479,34.7158249 C16.8257942,34.5833379 17.1704394,34.4553268 17.5338834,34.3317917 C17.8973274,34.2082565 18.2894173,34.0981491 18.710153,34.0014694 C19.1308886,33.9047897 19.5838509,33.8278041 20.0690397,33.7705124 C20.5542285,33.7132207 21.0797005,33.6845749 21.6454557,33.6845749 C22.4511198,33.6845749 23.1797981,33.7382858 23.8314909,33.8457077 C24.4831836,33.9531296 25.0614713,34.1115768 25.5663541,34.3210495 C26.0712369,34.5305222 26.5062955,34.7874395 26.8715299,35.0918014 C27.2367643,35.3961634 27.5375455,35.7443893 27.7738737,36.1364792 C28.0102018,36.528569 28.1847623,36.9636276 28.2975553,37.441655 C28.4103483,37.9196823 28.4667448,38.4344121 28.4667448,38.9858444 C28.4667448,39.5086309 28.3951302,39.9982956 28.251901,40.4548386 C28.1086718,40.9113815 27.9108366,41.3419642 27.6583952,41.7465866 C27.4059537,42.151209 27.1096484,42.5334518 26.7694791,42.8933151 C26.4293099,43.2531784 26.0622851,43.5978236 25.6684049,43.9272507 C25.2745247,44.2566778 24.8627409,44.5762578 24.4330534,44.8859909 C24.0033659,45.195724 23.5736784,45.5027715 23.1439909,45.8071335 L20.9418424,47.3701218 L29.8739713,47.3701218 L29.8739713,49.96436 L15.7748502,49.96436 Z" id="路径" fill="#002336" fill-rule="nonzero"></path>
            </g>
            <path d="M26.4417533,20.4824382 C36.4157006,22.5024819 43.9127914,31.1531404 43.9127914,41.5184641 C43.9127914,53.3823888 34.0911562,63 21.9755552,63 C19.5746655,63 17.2638584,62.622322 15.1017132,61.9243281 L26.4417533,20.4824382 Z" id="形状结合" fill="#000000" fill-rule="nonzero" opacity="0.0456571164"></path>
        </g>
    </g>
</svg>