<?xml version="1.0" encoding="UTF-8"?>
<svg width="120px" height="120px" viewBox="0 0 120 120" version="1.1" xmlns="http://www.w3.org/2000/svg" xmlns:xlink="http://www.w3.org/1999/xlink">
    <title>jdo_cn_ximalaya_radio_province_zhejiang</title>
    <g id="jdo_cn_ximalaya_radio_province_zhejiang" stroke="none" stroke-width="1" fill="none" fill-rule="evenodd">
        <g id="编组">
            <rect id="矩形" x="0" y="0" width="120" height="120"></rect>
            <g id="浙江" transform="translate(29.000000, 26.000000)" fill="#FFFFFF" fill-opacity="0.189284" fill-rule="nonzero">
                <path d="M25,0 L25,0.073 L25.1585817,0.0558669202 C25.5035918,0.0171735142 25.8939983,-0.0215834381 26.329882,0.0141042229 C26.8529424,0.0570666763 27.572046,0.16440418 27.746353,0.42204164 C27.92066,0.679679101 28.9449054,2.3541167 29.0974763,2.59020431 C29.2499079,2.82629191 30.2741532,3.23422933 30.5139473,3.59920429 C30.753602,3.96417926 31.5597895,4.24322931 31.8649313,4.24322931 C32.1700731,4.24322931 33.7825872,3.9426294 34.2184245,4.13589181 C34.6542617,4.32915422 35.3516291,3.85684175 35.3297537,4.41494187 C35.3080175,4.97304198 35.7874664,5.91766692 35.8092025,6.19671697 C35.831078,6.47590429 36.0271211,6.79777954 36.3103874,6.34701693 C36.5936538,5.89625432 36.680877,5.76736696 37.247549,5.55269195 C37.8139423,5.33801694 37.9666525,5.2522293 38.1625564,5.14475453 C38.3588782,5.03741703 39.121454,4.93021679 38.9255502,4.50086677 C38.7293677,4.07151676 38.5331852,3.5777917 38.7727006,3.44890433 C39.012634,3.32015423 39.5574306,3.36311669 39.8189608,2.99814172 C40.080491,2.63316676 40.4944528,2.59020431 40.9084145,2.65457936 C41.3225156,2.71895441 41.3878634,3.01955432 41.8019645,2.80487931 C42.2160656,2.59020431 42.4119694,2.44004161 42.9351691,2.56879171 C43.4579509,2.69754181 43.8284404,2.80487931 43.8504552,3.23422933 C43.8721913,3.66357934 43.7851075,4.58665442 43.9156636,4.95162938 C44.0464983,5.31660435 43.8504552,5.72454177 44.1990692,5.70299191 C44.5476833,5.68157931 45.0707437,5.10192934 45.4412332,5.4883169 C45.7745484,5.83606571 45.8078799,6.00992775 45.8112131,6.26036001 L45.8115834,6.34701693 C45.8115834,6.64761684 45.8115834,6.71199189 46.2692961,6.66902944 C46.7268695,6.62606699 46.9010372,6.54027934 47.1190951,6.77636694 C47.3370137,7.01245455 47.9254219,7.27009201 47.9907696,7.59210452 C48.055978,7.91411703 48.1450125,8.3087402 48.1333084,8.32603499 C48.1216044,8.34346704 47.6747597,8.43652948 47.5327782,8.56061273 C47.3265637,8.74138446 46.4093269,9.23840377 46.4093269,9.23840377 C46.4093269,9.23840377 46.0881617,9.37387962 45.8818078,9.80322964 C45.6925224,10.1966747 45.484153,10.1914006 45.4507392,10.1877894 L45.3113956,10.1878543 C45.0663286,10.1899775 44.5632887,10.1984705 44.4600421,10.2324424 C44.32238,10.277601 43.6803282,10.5712007 43.6116365,10.7744831 C43.5428054,10.9779027 43.2217795,11.3844675 43.1299583,11.6782044 C43.0382764,11.9718041 42.7860816,12.3783689 42.9006143,12.513982 C43.0152863,12.6494579 43.2676204,12.7399124 43.0382764,12.9431948 C42.8089324,13.1464772 42.5107573,13.7338137 42.3503837,13.8016203 C42.1898707,13.8694268 42.0751987,13.9145854 41.8000138,14.0275506 C41.5246895,14.1405158 41.272634,14.253481 41.1348325,14.3437982 C40.9974491,14.4341154 40.768105,14.6826937 40.5616118,14.4567634 C40.3552579,14.230833 40.309417,14.4341154 40.1259139,14.3437982 C39.9425502,14.253481 39.7818979,14.1856744 39.7130668,14.0049027 C39.6443751,13.8242682 39.6903554,13.9145854 39.3921803,13.7338137 C39.0940052,13.5531792 38.4749435,13.4853727 38.1997586,13.4627248 C37.9244343,13.4402141 36.800983,13.5756899 36.800983,13.5756899 C36.800983,13.5756899 35.3333764,13.5078834 34.9435194,13.9372334 C34.5536624,14.3663089 34.0032925,15.7217537 33.6592765,15.4733127 C33.3152605,15.2248716 32.6961988,15.2473823 32.5585367,15.3376996 C32.4208745,15.4280168 32.3751729,15.5862778 32.1916699,15.7670496 C32.0083061,15.947684 31.6184491,16.4673513 31.6184491,16.4673513 C31.6184491,16.4673513 31.09093,16.9417227 30.7010731,17.0545506 L30.6782223,17.0545506 L30.861586,17.2353223 C30.861586,17.2353223 30.8698569,17.2393852 30.8764736,17.2487321 L30.879,17.257 L30.8809535,17.2556368 C30.8809535,17.2556368 31.3891051,16.9868813 31.5266279,16.8287575 C31.6642901,16.6706337 32.4668548,16.0380013 32.5126957,15.9025254 C32.5585367,15.7670496 32.7878807,15.3604848 32.9255428,15.5411192 C33.0630657,15.7217537 33.3152605,15.947684 33.5675946,15.9928427 C33.8197894,16.0380013 34.3014676,16.2865796 34.4848314,15.7895603 C34.6683344,15.2925409 35.0810422,14.5470806 35.3103862,14.4567634 C35.5397302,14.3663089 36.1587919,14.230833 36.5486489,14.2081851 C36.7679608,14.1955571 37.1105835,14.1756544 37.3807524,14.2250681 L37.3662617,14.2311075 C37.3662617,14.2311075 37.760438,14.1635755 37.8461285,14.3155226 C37.931819,14.4674697 37.8632666,14.7882468 37.8632666,14.9233109 C37.8632666,15.058375 37.8632666,15.4635672 37.9659559,15.5479822 C38.0689238,15.6325345 38.2060286,15.6831836 38.1546143,15.8013646 C38.1032,15.9195457 38.0173702,16.0714928 38.0860619,16.1727908 C38.1546143,16.2740889 38.1888905,16.594866 38.1717524,16.7131844 C38.1546143,16.8312282 38.3259953,17.2026544 38.274581,17.4221335 L38.3179139,17.4381929 C38.3215366,17.4738806 38.3141519,17.5176666 38.2914404,17.5742178 C38.1997586,17.8000109 38.1767684,17.9807826 38.1767684,17.9807826 C38.1767684,17.9807826 37.9474244,17.9807826 38.1997586,18.1389064 C38.4519534,18.2970302 38.5896155,18.3196782 38.6354565,18.4326433 C38.6812974,18.5456085 39.2773689,18.8392081 39.2773689,18.8392081 C39.2773689,18.8392081 39.9425502,19.0424906 40.0572222,19.0424906 C40.1718942,19.0424906 40.309417,18.9973319 40.2405859,18.8392081 C40.1718942,18.6810844 39.91956,18.8392081 39.91956,18.8392081 C39.91956,18.8392081 39.6903554,18.7940495 39.4381605,18.6810844 C39.1858264,18.5681192 38.9334922,18.6585737 38.8188202,18.4326433 C38.7042875,18.206713 38.7729793,18.184065 38.6584466,18.1163957 C38.5436353,18.0485892 38.5295625,17.8313062 38.7042875,17.8904654 C38.8241149,17.9310944 38.952999,17.9892928 39.236544,18.0385692 C39.3131778,18.0518834 39.2566081,17.6790846 39.3714195,17.4939206 C39.4500039,17.3670921 39.7334096,17.3050505 39.7874713,17.2733434 C39.8402789,17.2423226 39.9578769,17.2528916 40.0066439,17.2312045 C40.1441667,17.1699864 40.2554947,17.2198119 40.3601346,17.2232434 C40.813946,17.2379302 40.9589928,17.562688 40.8904404,17.8878575 C40.8119953,18.25997 41.7210113,17.8536797 42.2127215,17.5968658 C42.8074899,17.2859229 43.3701964,16.9053093 43.8055516,16.6025426 L44.0758759,16.4138499 C44.3252419,16.2399277 44.508596,16.1151738 44.5977043,16.0832972 C44.8498991,15.9928427 45.790126,15.4506647 45.9276488,15.3376996 C46.0651716,15.2248716 47.0512394,14.6600458 47.6704404,14.8181696 C48.2208412,14.9587241 49.3690372,15.5098798 49.6173968,15.6306236 L49.6654268,15.6540844 L49.6654268,15.6540844 C49.6654268,15.6540844 50.9496697,16.5350206 51.2478448,16.8739161 C51.5458805,17.2126744 52.1420914,18.2970302 52.2109224,18.4099954 C52.255171,18.4826159 52.5741431,18.9006342 52.7963364,19.1899559 L52.9260508,19.3585682 C52.9796624,19.4281386 53.0133478,19.4717033 53.0133478,19.4717033 C53.0133478,19.4717033 53.6326881,20.1041985 53.7472208,20.2171636 C53.8620322,20.3301288 54.068386,20.7368309 54.228899,20.8046374 C54.3894119,20.872444 54.6645969,20.8949547 54.7562788,20.7819895 C54.8479606,20.6690243 55.0544539,20.5109005 55.1461357,20.6238657 C55.2376783,20.7368309 55.4671616,20.8271481 55.4671616,20.8271481 C55.4671616,20.8271481 55.7422072,20.8271481 55.9028595,20.7819895 C56.0633725,20.7368309 56.4073885,20.7143202 56.3615476,20.8271481 C56.3157066,20.9401133 55.9716906,21.0755891 56.1322035,21.2113395 C56.2927165,21.3466781 56.4532294,21.4596433 56.7054242,21.4596433 C56.9577584,21.4596433 57.0951419,21.4596433 57.3934563,21.5952564 C57.6914921,21.7307322 57.9438262,21.9566626 58.0582195,21.9793105 C58.1730309,22.0018212 58.7234008,21.9566626 58.7234008,21.9566626 L58.7395923,21.9623093 L58.7395923,21.9623093 L58.8509559,21.9993523 C59.0281789,22.0562723 59.3379759,22.1463974 59.4341443,22.1147864 C59.5719458,22.0696278 59.8012898,22.0244692 59.9618028,21.9793105 C60.1223157,21.9341519 60.0993256,21.9793105 60.3975007,21.8211867 C60.6955364,21.663063 60.7183872,21.4596433 60.8560494,21.663063 C60.9937115,21.8663454 61.0853934,22.0922757 60.8790395,22.2277516 C60.6726856,22.3633647 60.0534846,22.6796123 60.0534846,22.6796123 C60.0534846,22.6796123 59.4112935,23.0636664 59.2509199,23.0183705 C59.090407,22.9732119 58.9067645,23.2217902 58.9067645,23.2217902 L58.4023749,23.6960243 C58.4023749,23.6960243 58.1043392,23.6960243 57.8978459,23.8769333 C57.6914921,24.0575677 57.3704662,24.0350571 57.2329434,24.2383395 C57.0951419,24.4416219 56.7054242,25.074117 56.7054242,25.074117 L56.3615476,25.3678539 L56.3824236,25.402561 C56.4237972,25.4771809 56.4990549,25.6489782 56.3385574,25.6841015 C56.1322035,25.7292601 56.1322035,25.864736 56.0175315,25.8873839 C55.9028595,25.9098946 55.7194958,25.9777012 55.6965056,26.0906663 C55.6735155,26.2036315 55.5130026,26.4973684 55.3294995,26.6103336 C55.1461357,26.7231615 55.0773047,26.6780029 55.0314637,26.8587746 C54.9856228,27.0394091 54.7562788,27.084705 54.7562788,27.084705 C54.7562788,27.084705 54.7104378,27.1750222 54.7104378,27.333146 C54.7104378,27.4912698 54.6416068,27.6042349 54.5269347,27.6493936 L54.4703226,27.6701266 L54.4703226,27.6701266 L54.3023401,27.726436 C54.1467049,27.7771914 53.9765648,27.8301653 53.9765648,27.8301653 C53.9765648,27.8301653 53.839042,27.5590763 53.7472208,27.6720415 C53.6555389,27.7848694 53.7013799,27.8301653 53.5867079,27.9204825 C53.4720359,28.010937 53.3575032,28.2367301 53.1281592,28.1012543 L52.990497,28.1012543 C52.990497,28.1012543 52.7154514,27.8979719 52.4631173,28.1464129 C52.2109224,28.3948539 51.8898965,28.6885908 51.7980753,28.4626605 C51.7063935,28.2367301 51.7752245,27.7623587 51.5000396,27.9882891 C51.2247153,28.2142194 51.2936857,28.1012543 51.2247153,28.2367301 C51.1558842,28.3723432 50.9726598,28.3496953 50.9726598,28.3496953 C50.9726598,28.3496953 50.7891567,28.2818887 50.8808386,28.6434322 C50.9726598,29.0048384 50.9955106,29.0048384 50.8349977,29.0951556 C50.6744847,29.1854729 50.4451407,29.1854729 50.4909816,29.4114032 C50.5369619,29.6373335 50.5828028,29.6373335 50.6973355,29.6824922 C50.7403375,29.6994266 50.7381953,29.7608527 50.7247669,29.8345888 L50.6928942,29.988939 C50.6794659,30.0647855 50.6773237,30.1314875 50.7203257,30.1568635 C50.8349977,30.2246701 51.0185007,30.1568635 51.0643417,29.9084225 C51.1100433,29.6599815 51.1558842,29.4565618 51.3623774,29.2759273 C51.5688707,29.0951556 51.6604132,29.0048384 51.7980753,29.1854729 C51.9357375,29.3662446 52.2109224,29.2532794 52.1191012,29.4340511 C52.0274194,29.6146856 52.0274194,29.7729467 51.8898965,29.8632639 C51.7522344,29.9535811 51.5458805,30.1568635 51.5458805,30.1568635 C51.5458805,30.1568635 51.2936857,30.3376353 51.4083577,30.518407 C51.5228904,30.6990415 51.8440556,30.6087242 51.9357375,30.4506004 C52.0274194,30.2924766 52.2339126,30.0891942 52.2797535,29.8859118 C52.3255944,29.6824922 52.4402665,29.298438 52.6694711,29.2081208 C52.8988152,29.1178036 53.2886721,28.7337494 53.4948867,28.7562601 C53.7013799,28.778908 54.0225451,28.8467146 54.0912368,28.6207842 C54.1600679,28.3948539 54.228899,28.2818887 54.4121234,28.259378 C54.5957658,28.2367301 54.9167917,28.0334477 55.0773047,28.1690608 C55.2376783,28.3045367 55.3294995,28.3045367 55.4671616,28.2142194 C55.6048238,28.1237649 55.8570186,28.1237649 55.7422072,28.2818887 C55.6276746,28.4400125 55.5130026,28.6434322 55.5818336,28.9143839 C55.6506647,29.1854729 55.7194958,29.1854729 55.9716906,29.1178036 C56.2237461,29.049997 56.2927165,28.9143839 56.2927165,28.7337494 C56.2927165,28.5529777 56.2927165,28.2142194 56.4762196,28.259378 C56.6595833,28.3045367 56.9806092,28.2367301 56.6595833,28.0559584 C56.3385574,27.8753239 56.3843984,27.8753239 56.1092134,27.8753239 C55.8340284,27.8753239 55.6506647,28.0334477 55.6506647,28.0334477 C55.6506647,28.0334477 55.1231456,28.0334477 55.2376783,27.852676 C55.3524896,27.6720415 55.5130026,27.6042349 55.7422072,27.333146 C55.9716906,27.062057 55.7422072,27.0168984 56.0405217,27.0394091 C56.3385574,27.062057 56.4762196,27.0168984 56.5679014,26.9039332 C56.6595833,26.7909681 57.1409828,26.6328443 57.3017744,26.6328443 C57.4622874,26.6328443 57.5308398,26.6554922 57.6456511,26.4747205 C57.7603231,26.2939487 57.6456511,26.2262795 57.9208361,26.3391074 C58.196021,26.4520725 58.2648521,26.4295619 58.2648521,26.4295619 L58.241862,26.6328443 C58.241862,26.6328443 58.2878422,26.6780029 58.425365,26.6780029 C58.5628879,26.6780029 58.7234008,26.7231615 58.7692417,26.8812853 C58.8150827,27.0394091 58.9984464,27.3106353 58.7692417,27.4234632 C58.5398977,27.5364284 58.356534,27.6493936 58.3795241,27.7848694 C58.4023749,27.9204825 58.2648521,27.9204825 58.1273293,27.9656411 C57.9896671,28.010937 57.7144822,28.1237649 57.8521443,28.3045367 C57.9896671,28.4851711 57.9896671,28.530467 58.1501801,28.530467 C58.310693,28.530467 58.241862,28.6434322 58.2878422,28.9143839 C58.3335438,29.1854729 58.2878422,29.1629622 58.471206,29.1854729 C58.6545697,29.2081208 58.8839137,29.321086 58.8610629,29.4792098 C58.8382121,29.6373335 58.7692417,29.6599815 58.6545697,29.7502987 C58.5398977,29.840616 58.5398977,29.9084225 58.5398977,29.9084225 C58.5398977,29.9084225 58.585878,30.1343529 58.3795241,29.9084225 C58.1730309,29.6824922 58.1273293,29.9535811 58.1273293,29.9535811 C58.1273293,29.9535811 57.8749951,30.1117049 57.8061641,30.3376353 C57.737333,30.5635656 57.622661,30.4279525 57.5996708,30.5862135 C57.5766807,30.7443373 57.5766807,30.7216894 57.7833133,30.766848 C57.9896671,30.8120066 58.1043392,30.8120066 58.0582195,30.9701304 C58.0126573,31.1283915 57.7833133,31.2185714 57.8291542,31.3316739 C57.8749951,31.4446391 57.8749951,31.3993432 58.0126573,31.3993432 C58.1501801,31.3993432 58.425365,31.3316739 58.425365,31.3316739 L58.1273293,31.557467 C58.1273293,31.557467 57.8291542,31.6930801 57.8521443,31.8060453 C57.8749951,31.9188732 57.7603231,32.0996449 57.7603231,32.0996449 C57.7603231,32.0996449 57.8291542,32.235258 57.9438262,32.3482232 C58.0582195,32.4610511 58.310693,32.5740163 58.471206,32.5288576 C58.6317189,32.483699 58.8150827,32.3255752 58.8839137,32.4610511 C58.9526055,32.5966642 58.8382121,32.6191749 58.7463909,32.7322773 C58.6545697,32.8451052 58.5398977,32.9129118 58.6317189,33.0710356 C58.7234008,33.2292966 58.8610629,33.274318 58.7234008,33.4324418 C58.585878,33.5905656 58.4023749,33.4324418 58.4023749,33.4324418 C58.4023749,33.4324418 58.3795241,33.6359987 58.1273293,33.7486894 C57.8749951,33.8616545 57.4851382,34.0875849 57.3934563,34.20055 C57.3017744,34.3135152 56.8660765,34.6071149 56.7972455,34.4489911 C56.7284144,34.2908673 56.3843984,34.0197783 56.3843984,34.0197783 C56.3843984,34.0197783 56.0405217,33.6810201 56.2467362,33.5002483 C56.4532294,33.3196139 56.6365932,33.2519446 56.4990704,32.9580704 C56.3615476,32.6644708 56.2237461,32.5966642 56.4073885,32.4385404 C56.5907522,32.2804166 56.5907522,32.0996449 56.3843984,32.0996449 C56.1780445,32.0996449 55.9487005,32.076997 56.2698657,31.8512039 C56.5907522,31.6252735 56.7054242,31.4219911 56.4762196,31.4219911 C56.2467362,31.4219911 56.0405217,31.7833973 55.9716906,31.3090259 C55.9028595,30.8346546 56.1092134,30.9024611 55.8800087,30.8571653 C55.6506647,30.8120066 55.4901518,30.8798132 55.5818336,30.9927784 C55.6735155,31.1057435 55.7880482,31.4219911 55.7880482,31.4219911 C55.7880482,31.4219911 55.8111776,31.557467 55.8570186,31.7155908 C55.9028595,31.8737145 55.9487005,31.7833973 55.7194958,31.8512039 C55.4901518,31.9188732 55.5130026,31.9188732 55.5588435,32.076997 C55.6048238,32.235258 55.8570186,32.4610511 55.8340284,32.7549253 C55.8111776,33.0483876 55.8111776,33.3196139 55.6735155,33.4099311 C55.5359927,33.5002483 55.4441715,33.7486894 55.4441715,33.7486894 C55.4441715,33.7486894 55.3983305,34.1780394 55.2376783,33.9294611 C55.2376783,33.9294611 55.1689865,33.5002483 55.0773047,33.6133508 C54.9856228,33.7263159 54.8021197,33.9294611 54.8021197,33.9294611 C54.6474588,34.0650742 54.2837966,34.1153114 54.0866388,33.9986402 L54.067886,33.9894878 L54.067886,33.9894878 L54.0275742,33.9732171 C53.966376,33.9443796 53.9081169,33.8762041 53.9368546,33.5068368 C53.9754502,33.0143471 53.9226425,32.3134963 53.9226425,32.3134963 L54.0187831,31.8967743 L53.8263626,32.0861934 C53.8263626,32.0861934 53.5765365,32.0483096 53.6340815,32.2187868 C53.6919052,32.389264 53.7303614,32.161961 53.7109939,32.5598785 C53.6919052,32.9575214 53.672677,33.5068368 53.672677,33.5068368 C53.7550235,33.7327672 53.8435007,34.0197783 53.5410063,34.0197783 C53.5410063,34.0197783 53.5180161,33.8616545 53.4033441,33.703668 C53.2886721,33.5454069 53.1053084,33.5228963 53.1969902,33.2969659 C53.2886721,33.0710356 53.3345131,32.6418228 53.3345131,32.6418228 C53.3345131,32.6418228 53.0361986,32.1899621 52.9218053,32.235258 C52.8071333,32.2804166 52.7612923,32.1899621 52.8988152,32.4160297 C53.0361986,32.6418228 53.2428312,32.8225946 52.8988152,32.7999466 C52.5547991,32.7772987 52.1879323,32.5966642 52.1879323,32.5966642 C52.1879323,32.5966642 52.0504095,32.7772987 52.0504095,32.9580704 C52.0504095,33.1388421 52.1191012,33.0483876 52.2567634,33.2067859 C52.3944255,33.3647725 52.1420914,33.5454069 52.1420914,33.5454069 C52.1420914,33.5454069 51.8669064,33.7263159 52.0045686,33.9746197 C52.1420914,34.223198 52.1420914,34.2908673 52.0045686,34.2908673 C51.8669064,34.2908673 51.7293836,34.4264804 51.7293836,34.4264804 C51.7293836,34.4264804 51.5458805,34.6297628 51.5228904,34.3813218 C51.5000396,34.1328808 51.6145723,33.7486894 51.4083577,34.20055 C51.2017252,34.6522735 51.3165365,34.7878866 51.0643417,34.5847414 C50.8120075,34.3813218 50.9496697,34.471639 50.7431765,34.3813218 C50.5369619,34.2908673 50.4222899,34.4489911 50.4222899,34.4489911 C50.4222899,34.4489911 50.2844884,34.6522735 50.3992998,34.72008 C50.5139718,34.7878866 50.9038287,34.6071149 50.8808386,34.7878866 C50.8579878,34.9687956 50.9266795,34.9687956 51.1100433,34.9687956 C51.2936857,34.9687956 51.2706956,35.1041342 51.3395266,35.2397473 C51.4083577,35.3752231 51.6604132,35.6236642 51.9357375,35.510699 C52.2109224,35.3978711 52.4631173,35.1944514 52.6236302,35.3074166 C52.7842825,35.420519 53.0593281,35.5786428 53.2199804,35.5786428 C53.3804933,35.5786428 53.5410063,35.2849059 53.6555389,35.420519 C53.770211,35.5559949 53.72437,35.5334842 53.6785291,35.7592773 C53.6441135,35.9287937 53.6098373,36.0601517 53.6140174,36.1722933 L53.6212627,36.18849 C53.6212627,36.18849 53.7472208,36.5047376 53.5638571,36.5273855 C53.432883,36.5434646 53.3018378,36.5480586 53.2376466,36.5493712 L53.1969902,36.5498962 C53.1969902,36.5498962 52.990497,36.5498962 52.9218053,36.3917724 C52.8529742,36.2336486 52.7612923,36.1206835 52.6236302,36.3467511 C52.4861074,36.5725442 52.6236302,36.3917724 52.4172763,36.369399 C52.2109224,36.3467511 51.9585883,36.3467511 52.073121,36.5725442 C52.1879323,36.7986118 52.2797535,36.7986118 52.1879323,36.9565983 C52.0961111,37.1147221 52.0045686,37.0920741 52.0961111,37.2050393 C52.1879323,37.3181418 52.1191012,37.3406524 52.3484452,37.1825286 C52.5776499,37.0242676 52.6236302,37.0242676 52.4861074,36.979109 C52.3484452,36.9339504 52.3255944,36.9339504 52.3944255,36.7986118 C52.4631173,36.6628614 52.1191012,36.6403507 52.3255944,36.6177028 C52.5319483,36.5951921 52.6694711,36.5725442 52.8299841,36.6628614 C52.990497,36.7533159 53.2658213,36.7533159 53.4260556,36.6855093 C53.5867079,36.6177028 53.770211,36.6403507 53.770211,36.4144204 L53.7842837,36.3836741 C53.8075525,36.3806544 53.8333293,36.3748894 53.8620322,36.369399 C53.9765648,36.3468883 54.068386,36.436931 54.068386,36.5951921 C54.068386,36.7533159 54.114227,36.70802 54.3205809,36.7533159 C54.5269347,36.7986118 54.7562788,36.979109 54.618756,37.0017569 C54.4810938,37.0242676 54.4352529,37.2278245 54.4352529,37.2278245 L54.0453959,37.3858111 C54.0453959,37.3858111 53.999555,37.7021959 54.2517498,37.8150238 C54.5040839,37.927989 54.8249705,37.905341 55.0084736,38.17643 C55.192116,38.447519 54.9397818,38.3572017 54.9397818,38.3572017 C54.9397818,38.3572017 54.733428,38.447519 54.733428,38.60578 C54.733428,38.7637665 54.5235907,38.6218395 54.5235907,38.6218395 C54.5235907,38.6218395 54.551413,38.6721755 54.5290125,38.6699618 L54.528,38.669 L54.5223367,38.6447619 L54.5223367,38.6447619 C54.5050593,38.5941129 54.2861653,38.7615704 54.2690272,38.7275298 C54.1490605,38.4892461 54.0310445,38.622663 53.9305846,38.5831321 C53.8161912,38.5379735 53.5867079,38.424871 53.4490457,38.4023603 C53.3116623,38.3797124 52.9218053,38.2893952 52.8529742,38.424871 C52.7842825,38.5604841 52.6006401,38.6734493 52.6006401,38.424871 C52.6006401,38.17643 52.5089582,37.8601824 52.3714354,37.9504997 C52.2339126,38.0408169 52.0961111,38.2893952 51.8898965,38.1086234 C51.6834033,37.927989 51.5000396,38.2215886 51.6145723,38.3572017 C51.7293836,38.4926776 51.9357375,38.3120431 52.0274194,38.5153255 C52.1191012,38.7186079 52.5547991,38.9896969 52.8071333,38.9896969 C53.0593281,38.9896969 53.15101,38.9218903 53.4720359,39.1704686 C53.7932011,39.4189096 53.884883,39.2156272 53.7472208,39.5320121 C53.609698,39.8481224 53.4490457,39.9835983 53.6785291,39.9385769 C53.9075944,39.893281 54.068386,39.7576679 54.228899,39.915929 C54.3894119,40.0740527 54.618756,40.0288941 54.343571,40.2321765 C54.068386,40.4355962 53.72437,40.5259134 53.8620322,40.6613893 C53.999555,40.7968651 53.9535747,40.7290586 54.1372171,40.6839 C54.3205809,40.6387414 54.618756,40.6613893 54.4352529,40.842161 C54.2517498,41.0227955 54.2977301,40.7290586 53.9765648,40.9776369 C53.6555389,41.2260779 53.6785291,41.2712365 53.6785291,41.5198148 C53.6785291,41.7683931 53.7932011,42.1071513 53.4490457,42.0845034 C53.1053084,42.0619927 52.8299841,42.1071513 52.6466203,42.2426272 C52.4631173,42.378103 52.0961111,42.4685575 51.8669064,42.4460469 C51.6374231,42.4233989 50.8349977,42.4460469 50.8349977,42.4460469 L50.6973355,42.6946251 C50.6973355,42.6946251 50.9955106,42.6946251 51.3395266,42.9880875 C51.6834033,43.2818244 51.7522344,43.2366658 51.7980753,43.5304027 C51.8440556,43.8240024 51.9357375,44.1854086 52.0274194,44.4113389 C52.1191012,44.6372692 52.1650815,44.7728824 52.2567634,44.9760275 C52.2790568,45.0257157 52.4295377,45.4519087 52.5949274,45.4263783 C52.8922665,45.3805334 53.2998189,44.921947 53.4848546,45.1222097 C53.5107708,45.1502107 53.2149644,45.5481282 53.2132923,45.6302098 C53.211481,45.7121541 53.1894662,45.7881963 53.1376339,45.7894317 C53.1107424,45.7898434 53.0314613,45.8367864 52.9349027,45.8495516 C52.810756,45.8660229 52.6665451,45.8527086 52.6619471,45.8918278 C52.6487103,46.00795 53.0536154,46.2072518 52.9675069,46.3766309 C52.8299841,46.6477199 52.5319483,46.8058437 52.6924613,47.031774 C52.8529742,47.2578416 53.0593281,47.4383389 53.0593281,47.6192478 C53.0593281,47.7998823 53.0823182,48.3194123 53.0823182,48.3194123 L53.4948867,48.2516057 C53.4948867,48.2516057 53.7013799,48.3420602 53.7472208,48.522832 C53.7932011,48.7034664 53.9765648,48.522832 53.9765648,48.522832 C53.9765648,48.522832 54.4121234,48.4097295 54.343571,48.5905013 C54.2747399,48.771273 54.114227,48.6132865 54.0453959,48.8615902 C53.9765648,49.1100313 53.839042,49.1778378 53.9075944,49.3586095 C53.9765648,49.539244 53.7472208,49.6522092 53.7472208,49.6522092 C53.7472208,49.6522092 53.4948867,49.6070506 53.6326881,49.7878223 C53.770211,49.9684568 53.8620322,49.9009247 53.6326881,50.0589113 C53.4033441,50.217035 53.15101,50.3976695 53.1281592,50.1943871 C53.1224465,50.1435665 53.1296222,50.0927459 53.1410911,50.0419232 L53.1797825,49.8894463 C53.2027029,49.787788 53.2084156,49.6861125 53.1281592,49.5844026 C52.9675069,49.3811202 52.9675069,48.9520447 52.7383022,48.9973406 C52.5089582,49.0424992 52.6924613,49.268155 52.3944255,49.0198513 C52.0961111,48.771273 52.0504095,48.771273 51.8440556,48.771273 C51.6374231,48.771273 51.4083577,48.6356599 51.3395266,48.8164316 C51.2706956,48.9973406 51.1558842,48.9293968 51.1330334,49.1778378 C51.1100433,49.4264161 50.9955106,49.6748571 50.9038287,49.449064 C50.8120075,49.2229964 50.5828028,49.0876578 50.5139718,49.2004857 C50.4451407,49.3134509 50.1929459,49.4039054 50.4681308,49.6522092 C50.7431765,49.9009247 50.9726598,49.8329809 50.7431765,50.1040699 C50.5139718,50.3752961 50.4451407,50.4429654 50.2614983,50.4429654 C50.0782739,50.4429654 49.9177609,50.5784412 49.9177609,50.7140544 C49.9177609,50.8496675 49.9636019,51.0979712 49.8029496,51.2110737 C49.642576,51.3240388 49.6654268,51.5498319 49.8029496,51.4368668 C49.9406117,51.3240388 50.3992998,50.9624954 50.1929459,51.3465495 C49.986592,51.7306037 49.87192,51.7306037 49.8029496,51.9112381 C49.7342578,52.0920099 49.527904,52.1823271 49.4362221,51.9790447 C49.3442616,51.7757623 49.252719,51.6176385 49.1151962,51.6401492 C48.9775341,51.6629344 48.9315538,51.5498319 48.9315538,51.5498319 C48.9315538,51.5498319 48.7253392,51.5498319 48.7253392,51.4368668 C48.7253392,51.3240388 48.74819,51.0528126 48.6106672,51.2337216 C48.4730051,51.4142188 48.1291284,51.3465495 48.1291284,51.685445 C48.1291284,52.0242033 47.8767942,52.1373057 48.1749693,52.3856095 C48.4730051,52.634325 48.6794983,52.6793464 48.7253392,52.7923116 C48.7711802,52.9052767 48.7253392,53.1537178 48.4959952,53.2215243 C48.2666512,53.2893309 48.2208103,53.4248067 48.1749693,53.2893309 C48.1291284,53.1537178 47.8081025,53.0635378 47.8081025,53.0635378 C47.8081025,53.0635378 47.7162813,53.0408899 47.8767942,53.244035 C48.0373072,53.4474547 48.0373072,53.5152612 47.9227745,53.4701026 C47.8081025,53.4248067 47.7851124,53.3344895 47.6245994,53.3796481 C47.4639471,53.4248067 47.5787585,53.3796481 47.3724046,53.4926133 C47.1659114,53.6055785 47.0052591,53.8540195 46.8678756,53.763565 C46.7302135,53.6732478 46.8450248,53.7185436 46.6383923,53.7410543 C46.4321777,53.763565 46.4321777,53.9669847 46.4321777,53.6507371 C46.4321777,53.3344895 46.2716648,53.5377719 46.3863368,53.3118416 C46.5010088,53.0860485 46.5468497,53.0860485 46.3863368,52.9052767 C46.2256845,52.724505 46.2256845,52.6793464 46.2486747,52.453416 C46.2716648,52.2274857 46.1797042,52.1823271 46.3633467,52.1373057 C46.5468497,52.0920099 46.5010088,52.0920099 46.7302135,51.9338861 C46.9595575,51.7757623 46.9365674,51.9790447 47.0970803,51.7306037 C47.2577326,51.4820254 47.2577326,51.7079557 47.3265637,51.2788802 C47.3448164,51.1646797 47.3613972,51.0761469 47.3790926,51.0084776 C47.3966487,50.9409455 47.4160162,50.8944143 47.4373343,50.8633935 C47.811543,50.3199591 47.9465273,50.1304133 48.0509543,49.953235 L48.1061383,49.8557661 L48.1061383,49.8557661 C48.1138016,49.8413538 48.1199323,49.8265297 48.1274564,49.8121174 C48.2000495,49.6748571 48.2986981,49.5590095 47.945486,49.3134509 C47.555629,49.0424992 47.3494145,49.1100313 47.440957,48.8842382 C47.5327782,48.6583078 47.4870766,48.4323775 47.7392714,48.5003213 C47.9913269,48.5678533 48.2208103,48.3872189 48.0143171,48.3420602 C47.8081025,48.2969016 47.6475896,48.3420602 47.4639471,48.2516057 C47.2805834,48.1612885 47.2347425,48.1161299 47.2347425,47.9353582 C47.2347425,47.7545864 47.1200705,47.7998823 46.9824083,47.8450409 C46.8621978,47.8845547 46.8295696,47.9068338 46.869309,48.0782222 L46.8907264,48.1612885 C46.9595575,48.4097295 46.9137166,48.4323775 46.7302135,48.5454799 C46.5468497,48.6583078 46.3633467,48.6808185 46.3175057,48.8842382 C46.2716648,49.0876578 46.1797042,49.1326792 46.1568534,49.3134509 C46.134142,49.4942227 45.8588177,49.7426637 45.5377918,49.6748571 C45.2166266,49.6070506 45.4232591,49.6296985 45.3314379,49.4942227 C45.2658513,49.3973561 45.2823013,49.3927901 45.2468361,49.3733276 L45.1707856,49.3359616 L45.1707856,49.3359616 C45.0334022,49.268155 44.9874219,49.1100313 44.89574,49.3134509 C44.8039188,49.5167333 44.8728892,49.5618919 44.7809287,49.5844026 C44.6893861,49.6070506 44.666396,49.6522092 44.941581,49.6973678 C45.2166266,49.7426637 45.3772789,49.7878223 45.3772789,49.7878223 C45.3772789,49.7878223 45.7211555,49.7651744 45.8818078,49.8782768 C46.0423208,49.9911047 46.1797042,50.1718764 46.0881617,50.329863 C45.9964798,50.488124 45.9964798,50.5784412 46.0193306,50.736565 C46.0423208,50.8946888 46.2028337,51.0979712 45.973629,51.0754606 C45.744285,51.0528126 45.4919509,50.9173368 45.5837721,51.1206192 C45.6753146,51.3240388 45.8359669,51.5949905 45.6066229,51.6176385 C45.3772789,51.6401492 45.125084,51.5724799 45.125084,51.7306037 C45.125084,51.8887274 45.2624675,52.0920099 45.010412,52.0920099 C44.7580779,52.0920099 44.666396,51.9338861 44.6205551,52.0468512 C44.5747141,52.1599537 44.4371913,52.1373057 44.4371913,52.3179402 C44.4371913,52.4985747 44.32238,52.724505 44.2078473,52.7696636 C44.0931753,52.8148222 43.9096722,52.7923116 44.1390162,52.9504354 C44.3683602,53.1086964 44.3452308,53.1988764 44.2763997,53.4021588 C44.2078473,53.6055785 44.1620064,53.763565 44.0701852,53.9446112 C43.9785033,54.1251084 44.0014934,54.1025978 43.8179903,54.3283909 C43.6344873,54.5543212 43.7033183,54.870706 43.5198152,54.7802515 C43.3364515,54.6899343 43.313322,54.6672864 42.8777635,54.6672864 L42.0520693,54.6672864 C42.0520693,54.6672864 41.4559978,54.8028995 41.3413257,54.5768319 C41.2267931,54.3510388 41.2036636,54.3423914 41.2036636,54.3423914 L41.1307918,54.3135667 C41.1307918,54.3135667 41.0463553,54.6896598 41.0090138,54.7580154 C40.9715329,54.826371 40.8327561,55.0737139 40.8994971,55.0737139 C40.9662382,55.0737139 41.1852715,55.1104997 41.4069521,55.1763846 C41.6286328,55.2422695 41.8235613,55.3763727 41.8850076,55.4658664 C41.946454,55.5552228 41.9677721,55.6368927 41.9785008,55.7366809 C41.9890902,55.8367436 42.0207191,56.4708859 41.9953603,56.5911258 C41.9701408,56.7113658 41.8482234,57.0822429 41.7467881,57.1674815 C41.6453529,57.2525829 41.5234355,57.3228601 41.38647,57.3530574 C41.2495045,57.3828429 41.219269,57.4225111 41.151692,57.4332174 C41.0839756,57.4437864 41.0198819,57.4400804 40.9984244,57.478925 C40.9771063,57.5176324 40.877343,57.6828937 40.7919312,57.8271542 C40.7062407,57.9712775 40.588782,58.1401076 40.5460064,58.189384 C40.5032308,58.2385232 40.4494478,58.3240363 40.3574873,58.4901212 C40.2653874,58.6562061 40.1477894,58.8877641 40.1530841,58.9985331 C40.1582394,59.1093021 40.132602,59.2552097 40.0609842,59.3105256 C39.9896451,59.3659787 39.9180274,59.4212946 39.8464096,59.4112746 C39.7749312,59.4011173 39.7034528,59.3860187 39.5910101,59.4011173 C39.4787068,59.4163532 39.407089,59.436256 39.3559534,59.426236 C39.3049571,59.4163532 39.3101124,59.3860187 39.2641322,59.406196 C39.2181519,59.426236 39.1186673,59.5316518 39.1479275,59.5562214 C39.1771877,59.5809283 39.2524281,59.6303419 39.2607882,59.7126981 C39.2691482,59.7951915 39.2649682,59.848723 39.2231679,59.9391775 C39.1813677,60.0299065 39.1728683,60.1946188 39.1103073,60.2522681 C39.0476069,60.3099174 39.0014873,60.3007209 38.9396229,60.3067604 C38.8777586,60.3129371 38.6864528,60.328173 38.8161729,60.4318044 C38.9457536,60.5354359 39.1458375,60.6726962 39.1342727,60.7831906 C39.1225687,60.8938224 39.0802111,60.9395301 39.0492789,60.9813944 C39.0184861,61.0233961 38.9914552,61.1338905 38.9411556,61.2099327 C38.8911346,61.2862494 38.8564404,61.3356631 38.7906747,61.3319571 C38.7251877,61.328251 38.6208264,61.3625661 38.6133023,61.4235096 C38.6054996,61.4843159 38.671126,61.5643386 38.5900335,61.5758685 C38.5090804,61.5872611 38.2504762,61.5720252 38.1346895,61.5797118 C38.0187635,61.5872611 37.7951322,61.6063403 37.7795268,61.682657 C37.7642,61.7586991 37.7951322,61.7586991 37.8452925,61.7969947 C37.8953134,61.8350158 38.0187635,61.8999399 38.0304676,62.0141404 C38.0420323,62.1284782 38.0474663,62.2091872 38.0104035,62.2914061 C37.9734799,62.3738995 37.9410151,62.4927669 37.931819,62.575123 C37.9224836,62.6573419 37.9039522,62.7214424 37.9688819,62.7532868 C38.0335329,62.7854057 38.1911199,62.9317251 38.2234454,63.0140812 C38.2557709,63.0963001 38.3069065,63.2427568 38.4828856,63.279268 C38.6588646,63.3159165 38.7467845,63.3477609 38.8948967,63.4118614 C39.0432875,63.4759619 39.071015,63.489688 39.1589349,63.5078063 C39.2469941,63.5261992 39.4459632,63.5764364 39.3349139,63.7364819 C39.2238646,63.8965273 39.117274,63.8828013 39.066417,63.9972763 C39.0154207,64.1116141 38.9922912,64.1846365 38.9181655,64.1526549 C38.8440397,64.1206733 38.7469238,64.0291207 38.7421864,64.1343993 C38.7374491,64.2395406 38.7653159,64.3081707 38.723655,64.3997233 C38.6819941,64.4911386 38.5893369,64.7014213 38.6309978,64.7929739 C38.672798,64.8843892 38.7097216,64.8863108 38.732851,64.9843147 C38.7561199,65.0823185 38.7693566,65.2816203 38.7229583,65.3436619 C38.6766994,65.4058408 38.6103763,65.464451 38.498073,65.4385088 C38.3856303,65.4122921 38.2333381,65.3307595 38.1771864,65.2816203 C38.1210348,65.2327557 38.0945613,65.190205 38.0945613,65.190205 C38.0945613,65.190205 38.0811852,65.1443601 38.0184848,65.1509486 C37.9556451,65.1575371 37.8298264,65.1869108 37.7338252,65.1020839 C37.6381026,65.0172571 37.5122839,64.8603687 37.4428955,64.8603687 C37.373507,64.8603687 37.3236254,64.8831539 37.3006353,64.9029193 C37.2775058,64.9224103 37.2245588,64.948627 37.1816439,64.954941 C37.1385897,64.9615295 36.9599633,65.0202768 37.0856427,65.0791615 C37.2113221,65.1379089 37.4462395,65.2000877 37.3833998,65.2588351 C37.3204207,65.3175825 37.2907426,65.3470935 37.2212148,65.3601332 C37.1518264,65.3730356 37.1385897,65.4024093 37.1220089,65.4385088 C37.1055675,65.4744709 37.07575,65.5756317 37.0524812,65.6442619 C37.0293517,65.712892 36.9860188,65.820504 36.9004676,65.8695059 C36.8150558,65.9186451 36.5372234,65.9923538 36.750962,66.058925 C36.9645613,66.1257708 37.2423936,66.2169116 37.2815465,66.2800513 C37.3206994,66.343191 37.3349115,66.4097622 37.2885132,66.5466106 C37.2700654,66.60135 37.2561431,66.6532564 37.245168,66.6974102 L37.219506,66.8016951 C37.2161765,66.8135598 37.2131892,66.8222566 37.2103467,66.8271706 C37.1961347,66.8518774 37.2209361,66.8798785 37.1497364,66.893879 L37.098866,66.9047522 L37.098866,66.9047522 L36.9784791,66.9327775 C36.9409302,66.9416127 36.9104439,66.9486733 36.9004676,66.9501557 C36.8756661,66.95345 36.797221,66.964019 36.7616908,67.0061579 C36.7260212,67.0481595 36.6619275,67.1184368 36.6619275,67.1184368 C36.6619275,67.1184368 36.5550582,67.1464379 36.6760003,67.2762861 C36.797221,67.4061342 36.9966082,67.6621246 36.9040903,67.7638344 C36.8114331,67.8655442 36.6503628,67.9244289 36.6709842,68.0316291 C36.691745,68.1391039 36.7850989,68.379172 36.6969004,68.4557632 C36.6088412,68.5324917 36.4947265,68.5987884 36.4116834,68.7062632 C36.3287796,68.8134634 36.2938067,68.8646615 36.1714713,68.8646615 C36.0489966,68.8646615 35.8079485,68.9070749 35.8727389,68.6873213 C35.9375293,68.4674304 36.0958128,68.2618145 36.0166711,68.20142 C35.9375293,68.1411628 35.8654935,68.1127499 35.7575095,68.1588694 C35.6495256,68.2049888 35.4731285,68.2759523 35.5271902,68.4532926 C35.5811125,68.6306328 35.6135773,68.6944588 35.5919805,68.7829916 C35.5703838,68.871799 35.5308129,69.0277266 35.4874799,68.995745 C35.4442863,68.9637634 34.8356748,68.6491629 34.8356748,68.2058124 C34.8356748,67.7623245 34.7122247,67.2524028 34.6897919,66.9973733 C34.6672198,66.742481 34.2968696,66.4097622 34.083549,66.0660626 C33.8703677,65.7225002 33.80293,65.4232729 33.4437266,65.3567017 C33.0843838,65.2901305 32.7251803,65.3344655 32.612877,65.046219 C32.5005737,64.7581098 32.3884097,64.7690906 31.9617685,64.7690906 C31.5351273,64.7690906 31.2656551,64.7358736 31.0973394,64.9465681 C30.9287451,65.1571253 30.5415355,65.3567017 30.2245503,65.6864008 C29.9074257,66.0160998 29.8723135,66.0679842 29.4143222,66.0160998 C28.9564701,65.9639409 28.6747365,65.773012 28.5161742,65.8251708 C28.3577513,65.8771925 28.2167451,66.2587759 28.1286859,66.4149781 C28.0407661,66.5711802 27.6004701,66.588475 27.3891002,66.6059071 C27.3256893,66.6111367 27.2274169,66.6226048 27.1209069,66.6360976 L26.9047921,66.6645343 C26.7286912,66.6884005 26.5790115,66.7100876 26.5790115,66.7100876 C26.5790115,66.7100876 25.7159757,66.9181741 25.4165466,66.8660152 C25.1171175,66.8139936 24.9939461,66.6579287 24.9762507,66.3282296 L24.9737935,66.2561556 L24.9737935,66.2561556 L24.9733945,66.1299102 C24.972135,65.9327609 24.9491984,65.7798011 24.6240139,65.3394069 C24.2014135,64.7667572 23.9900435,64.5412386 23.9372359,64.0903387 C23.8844283,63.6390271 24.0428512,63.1706952 23.8844283,62.7716797 C23.7835756,62.5178882 23.7967554,61.9833424 23.815191,61.5653795 C23.7688722,61.5632344 23.724841,61.558601 23.6843794,61.5512799 C23.4088464,61.5015906 23.6843794,61.0040071 23.7669018,60.8546631 C23.7811161,60.8290101 23.7977698,60.7989426 23.8142043,60.765472 C23.8063825,60.6273659 23.7949682,60.4378175 23.7810698,60.2049608 C23.7708539,60.1880884 23.7559172,60.1729779 23.7393943,60.1580463 C23.4638613,59.9091855 22.5824001,59.9838575 22.4172026,60.1083569 C22.252005,60.2327183 21.8937968,60.2825456 21.7561067,60.406907 C21.6182637,60.5312683 21.370391,61.2527298 21.3428835,61.4269186 C21.3153761,61.6011073 21.3775735,62.2944115 21.3662649,62.2487249 L20.6364003,63 L20.6269296,62.1646798 C20.5294549,62.0324001 20.3908284,61.871428 20.2681983,61.8297296 C20.0511204,61.7558703 19.8302951,62.0593627 19.4443192,62.6008161 C19.0583433,63.142133 18.671966,63.2611818 18.5512481,63.408764 C18.4306641,63.5563462 18.0301004,64.0863316 17.4752266,63.987898 C16.9204867,63.8896008 16.0869716,63.8164241 16.0145676,63.5704082 C15.9421637,63.3242558 15.7278962,62.909633 15.3901004,62.9343438 C15.0524385,62.958918 15.2746021,62.9370742 15.0333003,62.7402069 C14.7921323,62.5433396 14.3136774,63.0787859 13.7106236,63.2756533 C13.1075698,63.4725206 12.8622529,63.1093673 12.7416689,62.8386406 C12.6209511,62.5679139 11.9458948,62.0403859 11.9458948,62.0403859 C11.9458948,62.0403859 12.0177634,61.7311595 12.2590653,61.7558703 C12.5003671,61.780308 12.7656251,61.6327258 12.813939,61.2882762 C12.8622529,60.9436901 12.813939,60.254791 12.6691312,59.8856306 C12.5244571,59.5163337 12.3314692,59.2210328 12.3314692,58.9995911 C12.3314692,58.7781495 12.3555592,58.5319971 12.1866613,58.1875475 C12.0331178,57.8744116 11.9395228,57.3781532 11.9237745,57.2905123 L11.9214033,57.2770703 L11.7043253,56.2434485 C11.7043253,56.2434485 11.6560114,55.4559792 11.4630235,55.308397 C11.2701694,55.1606782 10.2051223,54.7139723 10.1569422,54.5169685 C10.1086283,54.3202377 9.81539908,53.0568464 10.032477,52.859979 C10.2496888,52.6631117 10.9081498,51.9862267 11.0287337,51.9123673 C11.1494516,51.8385079 11.2701694,51.5677812 11.0528238,51.2231951 C10.8357458,50.8787456 10.3611722,50.9799097 10.6507879,50.709183 C10.9402698,50.4384563 10.3465843,49.7668957 10.0811924,49.668462 C9.81580058,49.5698918 10.4256799,49.3282447 10.2808721,49.0329437 C10.136198,48.7376427 9.96730012,48.2456109 9.65372819,48.6393456 C9.34015625,49.0329437 9.25316447,49.3772567 8.9394587,49.4511161 C8.62588677,49.524839 8.47157672,49.5745336 8.20618486,49.1805259 C7.94106066,48.7869278 8.12869525,49.3775298 7.57395532,49.4758269 C7.01908155,49.5742606 7.14475123,49.7367239 7.07234729,49.9334547 C6.99994336,50.1303221 6.17981156,49.5989714 5.98682363,49.1805259 C5.89314017,48.977333 5.85633595,48.8554223 5.80444563,48.7922505 L5.795,48.784 L5.80448307,48.7764536 C5.88634119,48.6944533 6.41884447,48.1527348 6.42990739,47.9260973 L6.42124723,47.8764505 C6.32461943,47.6794467 6.32461943,47.4335673 6.1316315,47.1874149 C5.93864356,46.941399 5.91455353,46.69511 6.08345143,46.4245199 C6.2522155,46.1536566 6.32461943,45.6124763 5.98682363,45.4154724 C5.64916166,45.2187416 5.64916166,45.0710228 5.69734173,44.8250069 C5.74565563,44.5788545 5.69734173,44.2095576 5.57675773,44.0621119 C5.45617373,43.9143932 5.5043538,43.6682407 5.64916166,43.4715099 C5.79396953,43.2746426 6.08345143,42.5361853 5.89032966,42.290306 C5.69734173,42.0441535 5.17378501,41.9914553 5.19787504,41.6714435 C5.22209891,41.3517048 5.16682567,40.2722111 5.02188397,40.1000545 C4.87720993,39.9277615 4.52857362,40.2053144 4.21486785,40.2053144 C3.93265311,40.2053144 3.96307883,39.9662312 3.97198612,39.9184145 L3.97369985,39.9101499 L3.24818835,38.8396668 C3.24818835,38.8396668 3.17578442,38.4706429 2.76545085,38.5936509 C2.35538496,38.7167953 2.44063691,38.2789635 2.51304084,38.1313812 C2.58544477,37.9836625 2.78619505,37.828708 2.54502705,37.6072664 C2.30372522,37.3858247 2.06657222,37.3192011 1.82527039,37.2946268 C1.58410239,37.2700526 1.20254303,37.2580385 1.05773517,36.8890146 C0.9129273,36.5199908 0.679521645,35.8672704 0.727969378,35.6704031 C0.776015611,35.4736723 0.560275981,35.2746206 0.415735781,35.2007612 C0.270794081,35.1269018 0.0150382286,34.9345398 0.111666029,34.8113953 C0.207892328,34.6885239 0.213111835,34.1485722 0.0684378023,34.0008535 C-0.0763700641,33.8532713 0.025209576,33.2023257 0.218197509,33.054607 C0.411185442,32.9070248 0.920823478,32.8895497 0.896733444,32.6189595 C0.872643411,32.3480963 0.632010746,31.6305272 0.873312579,31.5566678 C1.11448058,31.4828084 1.74309661,31.7319644 1.96030841,31.535097 C2.17738638,31.3382297 2.39245684,30.9947358 2.60966864,30.9210129 C2.82674661,30.8471536 2.6538337,30.1871975 2.60538597,30.0396152 C2.5572059,29.8918965 2.85070281,29.7889575 3.01973454,29.6905239 C3.1884986,29.5919537 3.28499257,29.3459378 3.74323854,29.3952229 C4.20161834,29.4443715 4.24966457,29.5328389 4.24966457,29.1143934 C4.24966457,28.6959479 4.11636638,28.0960623 4.79182415,28.1453474 C5.46754958,28.1946325 5.43194987,28.4108862 5.86637346,28.2140189 C6.3005294,28.0171516 6.75877536,28.0417259 6.75877536,28.0417259 C6.75877536,28.0417259 6.90358323,27.8694328 6.95176329,27.6479912 C7.00007719,27.4265496 7.02416723,27.0819635 7.28955909,26.9835298 C7.55495096,26.8850962 8.01346459,26.1960605 8.10969089,26.0237675 C8.20618486,25.8514744 8.42339666,25.5315992 8.76105862,25.6054585 C9.09885442,25.6791814 9.12294446,25.8269002 9.60554812,25.4331655 C10.088018,25.0394308 10.481087,24.4602969 10.481087,24.3125781 C10.481087,24.1649959 10.4980839,23.4152071 10.594444,23.2676249 C10.6910718,23.1199061 10.6186679,22.6031635 11.1252277,22.4062962 C11.6317876,22.2094289 11.7043253,21.9879872 11.8489994,21.8648428 C11.9936734,21.7418348 12.0830742,21.3512402 12.059118,21.2282323 C12.0348941,21.1050878 11.9454933,20.6836388 12.4037393,20.7329239 C12.8622529,20.7820725 12.9346569,20.5606309 12.9587469,20.3391892 C12.9828369,20.1176111 12.8622529,19.1087002 12.7656251,18.8133992 C12.6691312,18.5180982 12.2157032,17.8119971 12.4809613,17.6398405 C12.7463531,17.4675475 12.5924446,17.4495264 12.3753666,17.4495264 C12.1581548,17.4495264 12.1866613,17.0661675 12.5244571,16.8693002 C12.8622529,16.6724328 13.3005577,16.4325605 13.0592559,16.1864081 C12.8180879,15.9403922 12.5672839,15.2700603 12.8084519,14.6303098 C13.0497537,13.9904227 13.3688128,13.7931458 13.8514165,13.8424309 C14.3338863,13.8915794 14.9368063,14.2853141 14.9851202,14.4084586 C15.0333003,14.53133 15.4192761,14.6790488 15.564084,14.5560408 C15.7088919,14.4330329 15.901746,14.3591735 16.2637656,14.5560408 C16.5893424,14.7332214 16.8955147,14.7509395 16.9534934,14.7527113 L16.9633134,14.7529081 L17.4772341,14.6542014 C17.4772341,14.6542014 17.8317591,14.9990606 17.8799392,14.6299002 C17.9283869,14.2607398 18.7958958,13.3352449 19.4473974,13.5074014 C19.8306756,13.6088834 19.9803125,13.7580803 20.0582069,13.7984665 L20.0509528,13.2466193 C20.0287664,13.2268112 20.00461,13.2043836 19.9787164,13.1779695 C19.7857285,12.9811022 19.5928744,12.6365161 19.4480665,12.119637 C19.3032587,11.6028943 19.2961655,11.4412502 18.9344135,11.3921016 C18.5723938,11.342953 17.8082044,11.2610387 17.8804745,10.818019 C17.9527446,10.3751358 17.9215614,9.82617353 17.8732475,9.70316558 C17.8250675,9.58015763 18.0729271,9.2897715 18.338319,9.31434578 C18.6037109,9.33892007 18.5050756,9.38806864 18.9876792,8.99433398 C19.4701491,8.60059932 20.0533955,7.83483729 20.1980696,8.03184115 C20.3105836,8.18469875 20.268695,8.69592272 20.4480684,8.8008736 L20.8405056,8.63833092 C20.8405056,8.63833092 21.5080811,8.2093678 21.4530662,7.58742299 C21.3980512,6.96547818 21.4805736,6.66679009 21.8111216,6.66679009 C22.1416695,6.66679009 22.4172026,6.19418933 22.4172026,6.19418933 C22.4172026,6.19418933 22.5584075,5.84829637 22.3930571,5.27604089 C22.2278596,4.70378542 22.775258,4.1291835 22.9406083,3.88032276 C23.1058059,3.63146202 23.8220695,2.38757241 23.8220695,2.38757241 C23.8220695,2.38757241 23.3874517,1.1405082 23.5251418,0.966319484 C23.6628319,0.79213077 23.9597596,0.272739223 24.0974498,0.272739223 C24.2007555,0.272739223 24.5675216,0.0768804389 25,0 Z" id="形状结合"></path>
            </g>
        </g>
    </g>
</svg>