<?xml version="1.0" encoding="UTF-8"?>
<svg width="120px" height="120px" viewBox="0 0 120 120" version="1.1" xmlns="http://www.w3.org/2000/svg" xmlns:xlink="http://www.w3.org/1999/xlink">
    <title>jdo_cn_ximalaya_radio_province_macao</title>
    <g id="jdo_cn_ximalaya_radio_province_macao" stroke="none" stroke-width="1" fill="none" fill-rule="evenodd">
        <g id="编组">
            <rect id="矩形" x="0" y="0" width="120" height="120"></rect>
            <g id="澳门" transform="translate(33.000000, 15.000000)" fill="#FFFFFF" fill-opacity="0.2">
                <path d="M47.6424435,58.0475992 L37.6171045,51.4686036 C38.3060834,50.6723291 39.0048543,48.3794681 39.0650689,47.4698499 L39.1235953,46.9585378 L42.3458086,45.8686948 L44.2288377,46.3130132 L48.0593312,57.3011622 L47.6424435,58.0475992 Z M22.5106089,42.7334343 C22.0915827,42.6363469 21.6812792,42.4521845 21.3892102,42.8423905 C21.0569606,43.286259 21.060506,43.3112339 20.4602169,43.227984 C19.4441657,43.0872466 18.303352,42.6795469 17.28837,43.0435404 C16.6998425,43.2546465 16.317733,43.8791898 15.6458054,43.6322525 L12.5138015,28.7546998 L12.9865143,28.6666123 L13.2961975,30.4354487 C14.3748832,30.4354487 15.990717,29.8185553 16.6521773,28.9348684 C16.8136875,28.7192061 17.4891604,27.4545381 17.4891604,26.6210824 C17.4891604,26.4510951 17.5341807,25.774408 17.7653035,25.774408 C17.9671631,25.774408 18.0664891,26.1405953 18.2088657,26.0930078 C18.4819699,26.0017704 18.2365532,25.7353143 18.468295,25.6403081 C18.934086,25.4493395 19.5830532,25.2759208 20.0836786,25.1541397 C20.2757464,25.1072834 20.6103032,24.8271586 20.744745,24.8271586 C20.8109248,25.092546 21.2557814,26.5400825 21.422694,26.5792325 C21.6956857,26.6434137 22.6470203,26.2414514 22.7115118,25.9672329 C22.7833754,25.6615706 22.7488787,25.1374334 23.1634591,25.1374334 C23.1634591,24.9963023 22.6604138,24.6502525 22.5776328,24.4331839 C22.4282218,24.0418529 22.6604138,23.9065717 22.8328977,23.5948907 C23.0332942,23.1931535 23.2726895,22.8631349 22.8370058,22.5553914 C22.4866919,22.3078353 22.6923219,21.8735856 22.4269274,21.5954858 C22.273352,21.4346109 22.2637852,21.2418985 22.2637852,21.0296674 C22.1722815,20.7953863 21.8346858,20.5489552 21.8453781,20.3045491 C21.8554514,20.070718 22.0892754,20.0420868 21.9708721,19.776362 C21.8125696,19.4213122 21.7778477,19.0510187 21.6904521,18.6824127 L22.1172443,18.0285069 L21.4226378,17.5590447 L21.8828575,16.7123702 L23.8496243,17.8859132 L24.9879055,15.21179 L25.5234779,15.1489588 C25.785102,14.9523651 26.2332788,15.146315 26.3854473,15.3460024 C26.7377872,15.8071396 26.6175831,13.9308096 26.8539958,42.3237658 L26.8708784,42.523847 C26.8223128,42.6821906 26.8581601,42.8742842 26.812352,43.0519216 C26.7817382,43.170609 26.7156147,43.239009 26.6783604,43.3369402 C26.5587753,43.6522775 26.0797597,43.3252964 25.9418851,43.2363652 C25.7417137,43.1072716 25.4386147,43.1248778 25.2055223,43.1106466 C24.8216682,43.0870778 24.5546417,42.7864218 24.1844063,42.7334343 C23.8590223,42.6868594 22.7815746,42.5873532 22.5106089,42.7334343 L22.5106089,42.7334343 Z M14.6269967,44.0579522 C14.4100553,44.0289272 13.8725695,43.61279 13.7732435,43.9070335 C13.6593985,44.2443646 13.6624374,44.2675396 13.26277,44.2675396 C12.8000178,44.2675396 12.3047386,44.1806896 11.8485707,44.2591583 C11.2700039,44.3519708 10.8820418,44.5357956 10.4048832,44.8626642 C10.037574,45.1143265 9.96047682,45.126814 9.5093737,45.126814 C9.5093737,44.9582891 9.28320312,44.5988518 9.21229619,44.4268395 L8.76873397,43.3495964 C8.69833353,43.1787653 8.50046944,42.9922404 8.47255687,42.8135343 C3.2524002,31.7235728 3.42724767,32.3019912 3.57975384,31.9360852 C3.87351111,31.6411104 4.61702088,31.7663228 5.00245067,31.7558041 L7.00258875,31.7012978 L8.58420714,31.5671979 L9.59699441,31.2234544 L12.1914001,30.6953798 L11.8817169,28.8845247 L12.3969176,28.7926685 L15.4303834,43.53809 C15.2809161,43.8668711 15.0095002,44.1090272 14.6269967,44.0579522 L14.6269967,44.0579522 Z M20.2259427,12.5124667 C20.8661309,12.4322543 21.6474577,11.5433361 22.2010945,11.7245173 C22.9231071,11.9608796 23.3273891,10.9163178 24.0757386,10.8694616 L24.7368613,10.8778428 L25.6073845,13.9544345 C25.8176291,14.6285904 25.0160995,14.6485028 24.5109721,14.775909 L22.418655,15.3040962 C22.3976643,15.3889211 21.791804,16.288133 21.7240485,16.3184517 C21.4924192,16.4220642 20.9305099,16.0629082 20.7615151,15.9077145 C20.5045056,15.6717459 20.1505337,12.8906915 20.2259427,12.5124667 L20.2259427,12.5124667 Z M53.9760077,68.1341738 L45.8105124,44.300952 C45.5866491,44.0318522 45.3823696,43.228434 44.9066179,43.3201777 C44.4445973,43.4093339 43.8616974,43.4554588 43.6344013,43.9405585 C43.4870162,44.2554458 43.6726685,44.5969956 43.7516791,44.8961891 L39.0147588,46.589538 L38.7467193,45.6129262 C38.6883055,45.2615327 38.7956226,44.9298266 38.8930915,44.6027893 C38.9289951,44.4824144 39.0700774,44.1430584 38.9684442,44.0411335 C38.8553307,43.9276773 38.8230287,43.8552273 38.8930915,43.6973899 C38.9374927,43.5975463 39.0647313,43.2558277 39.0647313,43.1567153 C39.0192045,43.1371966 38.6892622,43.1404591 38.621169,43.1567153 C38.5198172,43.1808465 38.5501496,43.4460089 38.5375439,43.5256026 C38.5218993,43.6239837 38.4609532,43.7402524 38.4370361,43.8483648 C38.3982062,44.023696 38.3482899,44.1649396 38.2028745,44.2758083 L36.3867567,43.7225337 L36.2111214,44.6027331 L34.445145,44.1585271 L34.851059,42.452522 L36.6545711,39.3214241 L36.6253079,38.8268744 L36.4202968,38.8143869 L36.5081989,39.2628679 L35.9893966,40.0969423 L34.2527396,39.7490925 L32.922053,44.384877 C32.2105639,44.384877 31.8126409,44.0248772 31.1811754,43.8903273 C30.3078947,43.7041962 29.6275821,43.6799524 28.7541889,43.8316023 C28.5105729,43.8739586 27.5631213,43.6151525 27.6745465,43.3622527 C27.973875,42.6826406 27.963239,42.4472345 27.1944616,42.4291783 C26.8876484,13.8061034 26.9591181,17.4768072 26.8209621,15.5388835 L26.2266383,14.3819343 L25.3981528,10.6095868 C25.1057461,9.79030604 25.1913972,9.06119403 25.0884696,8.21210084 C25.0545918,7.93191977 24.9065314,7.57906375 24.9378205,7.31508268 C24.847386,6.45468324 24.7480601,5.2272528 24.1929601,4.53200326 C23.7089922,3.92579741 22.7295762,3.72464754 22.3851711,3.05656673 C22.1268673,2.55532332 21.9507255,3.61580387 21.4645629,3.36672903 L20.7448576,2.99784177 C19.682548,2.45351088 18.8758973,1.59772395 17.6650209,1.48055527 C17.3125121,1.4464678 17.0074435,0.918899394 16.6941024,0.918899394 C16.722634,0.804711969 16.9297273,0.750824505 16.9702455,0.59203086 C16.9987771,0.480543433 17.1959096,0.322199788 17.2631587,0.239906092 C17.3113304,0.181068631 17.4127385,0.0938249381 17.5359252,0 L14.6994793,0.355893515 L14.6352692,0.491287176 C14.3552431,0.517612159 13.9204036,0.310387295 13.6142657,0.27337482 C11.9668615,0.0746437008 11.2677529,1.23035544 10.4423063,2.37757343 C10.3011114,2.5736608 9.81084069,3.63729135 9.63880698,3.59313513 L7.28711686,2.98951678 C6.41164142,2.98951678 5.40116145,2.89889809 4.58387471,3.2661541 C3.84194064,3.59960388 3.4395157,3.84654121 3.78048797,4.69962815 L4.3244454,6.73677681 L4.69259866,8.02782596 C5.07375153,8.30688202 5.59019031,8.44086943 5.8224949,7.94395726 C5.96802293,7.63250122 6.24540407,7.68104494 6.55058523,7.63368247 C7.0109175,7.56235751 7.5334903,7.15100153 8.03192097,7.03855786 C8.35893696,6.96464541 8.71364042,6.89793295 9.01944061,6.79550177 C8.92951262,6.43330826 8.7935514,6.03652102 8.70137239,5.62595254 C8.96586649,5.55474009 9.21921806,5.51103387 9.5007073,5.47936514 L10.0237866,7.69240743 C9.90200674,7.80018236 9.56227252,7.86115732 9.40042465,7.90621354 C9.18449618,7.9662885 8.98854545,8.11428215 8.77272952,8.15348837 C8.33524504,8.23285707 7.98577519,8.22290083 7.5718138,8.40914446 L6.78919267,8.76126922 C6.25795347,9.00027532 6.23881986,8.77499421 6.41676248,9.33552509 C6.59813789,9.90651847 7.13590503,9.81696853 7.609462,9.68753736 L7.70546773,9.65406863 L8.2495377,9.51147498 L8.36670296,9.7881123 L6.90213727,10.198962 C6.51271193,10.6356305 6.33308105,11.3077613 6.33308105,11.8839859 C6.33308105,12.2022482 6.3916074,12.4971105 6.3916074,12.8145291 C6.3916074,13.2626163 6.10510965,13.6949535 6.04005536,14.1306657 C5.84956334,14.419903 5.95969418,14.799984 5.80578113,15.1281463 C5.69542519,15.3634399 5.55704413,15.4797648 5.41236024,15.6730959 C5.25321358,15.885777 5.32614642,16.3275642 5.21156983,16.6287265 C5.03880454,17.0827762 5.47690805,17.2509636 5.24505366,17.777182 C4.91015912,18.537344 4.91702471,19.2163373 4.31606037,19.9316119 C3.86822123,20.3335741 3.61318139,20.8152988 3.30344193,21.289711 C3.01829479,21.7261544 2.33741947,23.0763785 1.93088642,23.3099846 C1.49351449,23.5611407 1.22682566,23.8244468 1.06053204,24.3243402 C0.893506835,24.8262024 1.17769729,25.0361272 1.17769729,25.4141832 C0.762047644,25.4969269 0.424451889,26.1053265 0.282187833,26.4620638 C-0.0381876686,26.8497385 -0.0362180317,28.0534878 0.0478010486,28.5410624 C0.204527866,29.4502306 1.08726283,30.3462925 1.79706367,30.8883171 C2.54558195,31.4598168 2.88908661,32.2023725 3.40389341,32.975697 L8.17260931,43.1236966 C8.43637183,43.8784023 8.55938972,44.8562517 8.55938972,45.6592761 C8.55938972,46.203607 8.51543868,46.6693005 8.63474239,47.2100876 C8.78015787,47.8695622 9.20357352,48.5440555 9.24572374,49.22198 C9.26913428,49.6143798 9.57746686,50.3447293 9.71444104,50.7478165 C10.3978487,52.759709 12.3102536,53.8449395 13.8655351,55.1571949 C13.9837696,55.3716197 14.1792138,55.6056758 14.3424686,55.7943382 L14.6688656,56.1715505 C14.8459641,56.3761316 15.0227249,56.6472001 15.1542966,56.8840687 C15.2589125,57.0723936 15.4668499,57.4206371 15.6397277,57.5462996 L15.9158708,57.3283872 C15.8129432,56.9501624 15.420479,56.6200314 15.2379218,56.2805066 C15.1034237,56.0300818 14.5008274,55.4376009 14.5684704,55.1655199 C15.0752861,55.1655199 15.5974086,55.2326261 16.11683,55.2326261 C16.3081662,55.2326261 16.5211683,55.2358886 16.7109288,55.2577136 C16.7804851,55.2657011 16.6266846,55.6502258 16.6775575,55.794282 C16.7376596,55.9644943 16.8621969,56.1912942 16.8699629,56.3727003 C16.8812742,56.6311689 16.6430607,56.6835376 16.6273036,56.8923937 C16.6170052,57.0284061 16.5430594,57.3945934 16.6440737,57.4960683 C16.9562892,57.8909993 16.8642791,58.5354552 16.9453718,59.0051423 C17.0581476,59.6592732 17.5112766,60.0930729 17.8492663,60.6565288 C17.9631113,60.8646536 17.969583,61.058491 17.9999154,61.2852908 C18.0339057,61.5401032 18.0249016,61.832153 18.0249016,62.0900028 L18.0919256,64.7307698 L18.1003106,65.0325509 L18.0919818,68.9726358 L18.041728,71.3533592 C18.0299664,71.9114151 18.0682899,72.5143022 17.8659801,73.0216206 C17.5290034,73.190033 17.5313107,73.8560326 17.5313107,74.1700761 C17.7695804,75.1851629 17.5094758,75.9966811 17.6400909,76.9784117 C17.7283306,77.6419926 17.6819597,78.2790234 17.6819597,78.9484542 C17.6819597,79.285504 18.1641268,79.8522786 17.8911352,80.004716 C16.0902681,81.0096216 16.7026,80.7173468 15.9662372,82.3854394 C15.821891,82.7125892 16.8302888,83.0320328 17.0207808,83.1399202 C17.3668741,83.3360076 16.8704694,85.8752434 16.6358575,86.1410807 C16.3805925,86.4302055 15.9939247,86.4322868 15.8323582,86.5937804 C15.8648853,86.7248428 16.087398,86.7765365 16.1085013,86.8620365 C16.2772147,86.9039989 16.5054675,87.649761 16.5269647,87.8176671 C16.6645016,88.7483227 17.7439189,88.2208668 18.1004231,88.6559603 C18.4035221,89.0259163 19.3063474,89.2937224 19.4562649,89.5361597 C19.6906517,89.9154532 19.7472647,90.0406656 20.3099055,89.9888594 L21.8582652,89.8464345 C22.650228,89.7735346 22.1377285,88.9526788 22.96295,88.6308728 C23.7399999,88.327798 23.2445518,87.2772175 24.6954426,87.2140487 C25.6986068,87.1705113 24.9463743,87.4821923 25.4654581,88.0021107 C25.882177,88.4195979 26.4561291,88.6407166 27.030419,88.2451668 C27.5186638,88.0394044 27.9985236,87.6835109 28.5369098,87.6835109 C29.0962866,87.6835109 29.3822779,88.1447044 29.9513341,88.1447044 C30.9779651,88.1447044 31.8381337,88.8279727 32.8136104,88.3038918 L34.3116036,87.4991798 C34.5354669,87.3789174 34.6562338,87.0217301 34.8305748,86.820074 C35.1716596,86.425593 35.1569718,86.6454741 35.1569718,86.1075557 L35.1569718,85.2104813 C34.8254537,85.0994439 34.8395226,84.7343816 34.3702425,84.6572067 C33.9447447,84.5873442 33.4425436,84.5529755 33.0227858,84.6069755 C31.6962073,84.7774691 31.9074649,83.3342638 32.1943003,82.4860144 C32.9924534,80.4857657 33.7870612,78.3922546 35.6841591,77.2047053 C36.504541,76.7119557 36.0872031,77.3831865 36.8308254,77.749655 C37.2582366,77.9603111 38.2014676,78.5599357 38.6386144,78.4118858 C39.17565,78.2301422 39.5792567,78.6954419 40.1367202,78.5879482 C40.4980079,78.5183107 41.1021236,77.8851611 41.6180559,77.7328925 C42.3369171,77.5206614 42.9848151,76.6744369 43.0659078,75.9389124 C43.4317538,75.886375 44.310043,75.1722817 44.4049795,74.7904569 C44.7035765,74.7404507 44.9946888,75.2299379 45.3675129,75.1844317 C46.3941439,75.3313566 48.0275919,76.3134809 48.1292814,74.5222009 C48.135134,74.4205009 48.8409956,74.0628074 48.9578795,74.0107762 C49.1610897,73.92027 49.3119639,74.0664637 49.5018369,73.960545 C49.6580572,73.8733013 49.4611498,72.5922084 49.4767381,72.3174273 C49.506958,71.7862027 49.353889,72.0263338 48.9579358,71.8563464 L48.6314825,71.1270094 L49.5521471,70.7833783 C49.5563677,70.7704971 49.551922,70.7749971 49.5689171,70.7749971 C49.5689171,70.7178471 49.5521471,70.6329097 49.5186632,70.5905535 C49.4681843,70.5265972 49.4455616,70.3998098 49.4266531,70.3222974 C49.4091514,70.2513099 49.3858534,70.179985 49.3512441,70.1210913 C49.3107259,70.0522976 49.276004,69.9759664 49.276004,69.8946852 C49.276004,69.731729 49.1289002,69.8071602 48.9996921,69.8108727 L49.2257501,70.6491659 L48.5479136,70.9256907 L48.1293377,70.1628287 C48.0234838,69.8296602 48.2799868,69.5907104 48.2799868,69.2659231 C48.2799868,69.0958232 47.6356341,69.3851167 47.6356341,69.0479545 C47.6356341,68.8950671 47.6006872,68.6920047 47.6356341,68.5449673 C47.6529669,68.4717861 47.7192593,68.3665424 47.7192593,68.2934175 C47.5069324,68.2934175 47.2713076,68.3289674 47.0831791,68.4276299 L46.0956595,69.8694852 L45.6437123,69.6181041 L45.8779865,69.1821669 L45.6771961,69.0144857 C44.8530438,68.959417 44.8811251,68.0133489 44.4301346,69.1989294 C44.3315402,69.4581292 43.2808233,68.4439986 43.0742929,68.4612111 C42.8066473,68.4835423 42.7244291,69.1796356 42.2707936,68.8384234 C41.8125435,68.4938361 42.0449044,67.9801052 42.0449044,67.530668 C41.3584578,67.6168429 41.7560993,68.0074989 41.5510883,68.4695924 C41.3840631,68.8463546 40.4909734,68.8969233 40.3794357,68.4779736 L40.1785328,67.7234928 C40.1466246,67.6035117 40.2920401,67.4339743 40.3291818,67.3127556 C40.5096006,66.7238185 40.2603571,66.715156 39.9610286,66.3151063 C39.7645151,66.0527564 39.9736343,66.1101877 40.1619315,65.896044 C40.6810153,65.4439631 41.1160799,64.8070448 41.5930134,64.3032701 C41.9777116,63.8968079 42.0523327,63.4670019 42.2876199,62.9955147 C42.3852013,62.8000461 42.6976983,62.3489214 42.6976983,62.1572215 C42.3442329,62.0685153 41.7970678,62.3362089 41.4842894,62.4842025 C40.9149518,62.7535836 40.1668275,63.281152 39.693158,63.6997642 C39.5300158,63.8496141 39.3426752,63.9593016 39.1826844,64.1021202 C39.0166158,64.2503951 38.7786837,64.2928639 38.6219569,64.4289888 C38.311317,64.6984823 38.8603955,65.0620258 38.772606,65.258957 C38.7213954,65.3734819 38.4451961,65.5772193 38.3206587,65.6110817 C38.0056294,65.6966379 37.7437802,66.1225064 37.4419193,66.2313501 C37.2801277,66.2897375 36.5925556,65.5013943 36.9229482,65.4266381 C37.6940328,64.808901 38.2033809,64.1872827 38.2033809,63.1548709 C38.2033809,62.5292588 37.6041611,61.5285719 37.0819823,61.2015909 C38.48442,60.8503099 37.8440629,61.0185535 38.697197,60.5644476 C39.0620863,60.5644476 39.5871352,60.6937662 39.8772346,60.4220227 C40.116855,60.1975853 40.3050397,60.0669729 40.6471938,60.0279354 C41.4182785,59.940073 41.8813682,60.0105542 42.6223456,60.1370041 C42.8440142,60.1747478 43.3865084,59.846023 43.4006898,59.6004357 C43.4167283,59.3209859 43.4053044,58.6568988 43.2416557,58.4519802 C43.1426111,58.3278365 42.8064785,58.1786054 42.8064785,57.982518 C42.6376525,57.982518 42.4192479,58.4874177 42.2374223,58.3428553 C42.1945405,58.3088803 42.1218327,57.6524432 42.0867732,57.5381433 C41.8424257,56.7427688 41.8041585,56.3080129 40.8397117,56.1046693 C40.4845018,56.0158506 40.0614801,55.9268069 39.9191035,55.5430134 C39.8184831,55.2716073 39.7523033,54.8486076 39.5174101,54.6710827 C38.8750271,54.185983 38.1571226,54.1294518 37.4083792,53.9166019 C36.8819234,53.766977 36.8420805,53.9590707 36.5713961,54.4112641 C36.4298636,54.6476265 35.7455555,55.1476886 35.4834813,55.0818762 C35.4424566,54.8756076 35.3382909,54.7080389 35.3286115,54.5034578 C35.517753,53.8969145 36.2237271,53.7726583 36.7178245,53.4891022 C36.8699368,53.4018585 37.0098936,53.5394459 37.0945317,53.3758711 C37.2019613,53.1683649 37.2999366,53.0315088 37.4835631,52.8855401 C37.5948757,52.7970589 37.2565484,52.7952589 37.2157487,52.8017277 L36.8894643,53.1704462 L35.1779625,54.0801206 L34.8389035,54.0004144 L34.3325943,54.2226017 L34.0606719,53.9963081 L36.4625033,52.705259 L37.3456322,51.7832096 L47.2840821,58.3512928 C47.3410327,58.4272302 47.2332092,58.6409238 47.2087294,58.7117988 C47.1726569,58.8163675 47.2325339,59.0601548 47.2840821,59.1476235 C47.3593222,59.2755359 47.4496441,59.3039984 47.5518964,59.3991733 C47.6044576,59.4480546 47.6455949,59.4887233 47.7025455,59.5332732 C47.7838634,59.597117 47.8625363,59.6390794 47.9427849,59.7084919 L50.9537969,68.7798671 C51.1110302,69.2269981 51.2209922,69.6726666 51.7697893,69.6726666 C52.1560632,69.6726666 52.5805481,69.5593229 52.9205637,69.3791543 C53.4688543,69.0881169 54.1353795,68.8590108 53.9760077,68.1341738 L53.9760077,68.1341738 Z" id="Fill-1"></path>
            </g>
        </g>
    </g>
</svg>