<?xml version="1.0" encoding="UTF-8"?>
<svg width="120px" height="120px" viewBox="0 0 120 120" version="1.1" xmlns="http://www.w3.org/2000/svg" xmlns:xlink="http://www.w3.org/1999/xlink">
    <title>jdo_cn_ximalaya_radio_province_liaoning</title>
    <g id="jdo_cn_ximalaya_radio_province_liaoning" stroke="none" stroke-width="1" fill="none" fill-rule="evenodd">
        <g id="编组">
            <rect id="矩形" x="0" y="0" width="120" height="120"></rect>
            <g id="辽宁" transform="translate(20.000000, 24.000000)" fill="#FFFFFF" fill-opacity="0.189284" fill-rule="nonzero">
                <path d="M50,58.5889462 C49.884337,58.6168921 49.7397955,58.7977522 49.6675991,58.9369085 C49.5952539,59.076208 49.4797398,58.9926569 49.4797398,58.9508097 C49.4797398,58.9091059 49.4797398,58.9369085 49.4218339,58.7838509 C49.3640768,58.6307934 49.3640768,58.6724973 49.3640768,58.6724973 C49.3640768,58.6724973 49.2917316,58.5889462 49.1760686,58.4080861 C49.0604056,58.2273693 49.031527,58.5055385 49.0024997,58.6446947 C48.9734723,58.7838509 48.915864,58.7421471 48.8290796,58.7700929 C48.742444,58.7977522 48.6123417,58.7421471 48.453212,58.6865419 C48.2942312,58.6307934 48.2942312,58.6724973 48.2942312,58.6724973 C48.2942312,58.6724973 48.2509134,58.7421471 48.1495408,58.7560483 C48.048466,58.7700929 48.1063719,58.7700929 48.0629052,58.6168921 C48.0304169,58.5019915 47.9979285,58.5594418 47.9837149,58.5953482 L47.9762696,58.6168921 L47.9762696,58.6168921 L47.9039244,58.6307934 L47.7738222,58.6168921 C47.7738222,58.6168921 47.8027007,58.658596 47.6292806,58.7560483 C47.4557117,58.8535007 47.5713747,58.9508097 47.5713747,58.9508097 C47.5713747,58.9508097 47.7157674,58.9786123 47.8606066,59.0204595 C48.0051482,59.0623067 47.8461674,59.1874183 47.7305044,59.2014629 C47.6148414,59.2153642 47.585814,59.3265746 47.4991784,59.4101256 C47.4123939,59.4936767 47.5136176,59.5772278 47.3546368,59.4936767 C47.195656,59.4101256 47.0365264,59.4101256 46.8773967,59.4101256 C46.7185647,59.4101256 46.6896862,59.4657308 46.5740232,59.4657308 C46.4583602,59.4657308 46.4583602,59.6189316 46.3715757,59.6884381 C46.2847913,59.7580879 46.2559127,59.6328329 46.2559127,59.6328329 C46.2559127,59.6328329 46.2270342,59.5631832 46.1692771,59.4380715 C46.1113712,59.3126733 46.0391749,59.4657308 46.0391749,59.4657308 C46.0391749,59.4657308 46.0536141,59.5631832 46.0536141,59.7719892 C46.0536141,59.9807952 45.8800452,59.9112887 45.7932607,59.9529926 C45.7066251,59.9948398 45.6198407,59.9807952 45.4608599,60.0365436 C45.3017302,60.0921488 45.3885147,60.1060501 45.3885147,60.2172604 C45.3885147,60.3287574 45.244122,60.2730089 45.244122,60.2730089 C45.244122,60.2730089 45.012796,60.4260664 44.8826937,60.5375634 C44.7525914,60.6487737 44.7670307,60.579124 44.6512189,60.4677703 C44.5357047,60.35656 44.5357047,60.5652227 44.5212654,60.6348724 C44.5068262,60.7045222 44.434481,60.78793 44.434481,60.78793 L44.2899394,60.9409875 L44.2321824,61.0106373 C44.2321824,61.0106373 44.1165194,61.0106373 44.0732016,61.0801437 C44.0297349,61.1497935 44.0008564,61.1080896 44.0008564,61.1080896 C44.0008564,61.1080896 43.9429504,60.871481 43.8996326,60.7740287 C43.8563148,60.6765763 43.8418756,60.8158759 43.6827459,60.9828347 C43.5237651,61.1497935 43.6249888,61.1219909 43.6249888,61.2053987 C43.6249888,61.2889497 43.6827459,61.302851 43.6394281,61.4282493 C43.5961103,61.5535042 43.5672318,61.5255583 43.5672318,61.5952081 C43.5672318,61.6647145 43.509177,61.6508133 43.4081021,61.6508133 C43.3068784,61.6508133 43.2489724,61.7623102 43.2489724,61.7623102 C43.2489724,61.7623102 43.1912154,61.8875652 43.061262,61.9013231 C42.9311597,61.9152244 42.8732538,61.8875652 42.8732538,61.8875652 C42.8732538,61.8875652 42.9019834,61.8318167 42.8588145,61.7064184 C42.8154967,61.5813068 42.6709552,61.943027 42.6709552,62.0404794 C42.6709552,62.138075 42.2804995,62.2216261 42.2804995,62.2216261 L42.1649853,62.3187918 C42.1649853,62.3187918 42.0060045,62.360639 41.8903415,62.3884416 C41.7746785,62.4162442 41.7602393,62.5275978 41.6878941,62.5972476 C41.6155489,62.6667541 41.4854466,62.5972476 41.3409051,62.6111489 C41.1962147,62.6250502 41.0373827,62.6111489 40.8926923,62.6111489 C40.7482997,62.6111489 40.7192723,62.6389515 40.6470759,62.6945567 C40.5747307,62.7503051 40.4590677,62.9172639 40.4590677,62.9172639 L40.1411061,63.0982674 C40.1411061,63.0982674 39.9097801,63.3347326 39.7652386,63.4182837 C39.620697,63.5018348 39.5627911,63.5853858 39.5627911,63.5853858 C39.5627911,63.5853858 39.5339126,63.7245421 39.331614,63.9611507 C39.1291665,64.1977592 39.0569702,64.058603 38.9413072,63.9055455 C38.8256442,63.7523447 38.8545227,63.975052 38.8545227,64.058603 C38.8545227,64.1421541 38.8978405,63.9611507 38.8545227,64.1281095 C38.8112049,64.2950683 38.8834012,64.2255618 39.0279428,64.2394631 C39.1726332,64.2533644 39.1436058,64.3367722 39.1291665,64.4482691 C39.1147272,64.5594795 39.0279428,64.6708331 38.9557464,64.698779 C38.8834012,64.7265816 38.7244204,64.7823301 38.7244204,64.7823301 C38.7244204,64.7823301 38.4930944,64.7962314 38.3918707,64.7962314 C38.290647,64.7962314 38.290647,64.907585 38.290647,65.0187953 C38.290647,65.1302923 38.1316662,65.2276014 37.9149283,65.2276014 C37.6980415,65.2276014 37.784826,65.3808022 37.784826,65.3808022 L37.6980415,65.4920125 C37.6980415,65.4920125 37.5679393,65.64507 37.5246215,65.7286211 C37.4811548,65.8120289 37.5101822,65.8677773 37.5101822,65.979131 C37.5101822,66.0904846 37.3799311,66.1182872 37.2499777,66.1460898 C37.1197265,66.1740357 37.0042124,66.0347362 36.9318672,65.9235258 C36.8596709,65.8120289 36.8596709,65.7842263 36.7151293,65.8677773 C36.5704389,65.9513284 36.7005412,66.0208349 36.7005412,66.0208349 L36.9463065,66.2296409 L37.0475302,66.3826984 L37.206511,66.3826984 L37.3945192,66.4662495 C37.3945192,66.4662495 37.5101822,66.5358992 37.7992653,66.5358992 C38.0883484,66.5358992 37.9582461,66.6332083 37.8570224,66.6610109 C37.7557986,66.6889568 37.5823785,66.8142117 37.4811548,66.8003104 C37.3799311,66.7862658 37.3077347,66.9532246 37.2353895,66.9950718 C37.1631932,67.0367757 36.9897731,67.1901198 36.8596709,67.1901198 C36.7294197,67.1901198 36.7728864,67.1482726 36.5994663,66.9115207 C36.4982178,66.7735827 36.4806484,66.8345123 36.4778232,66.9340971 L36.4774047,67.0251853 C36.4773931,67.071726 36.476472,67.1169589 36.4692152,67.1482726 C36.4403367,67.2735276 36.5126819,67.468289 36.5126819,67.468289 C36.5126819,67.468289 36.5848782,67.5240375 36.7584471,67.677095 C36.9318672,67.8301525 36.7005412,67.9274616 36.4547759,67.7883053 C36.2090107,67.6492924 36.3102344,67.7187989 36.1079358,67.7048976 C35.9054883,67.6909963 35.8042646,67.8718564 35.7320682,67.9833533 C35.6597231,68.0945637 35.7030409,68.192016 35.601966,68.317271 C35.5007422,68.4425259 35.37064,68.3450736 35.3128829,68.2755671 C35.254977,68.205774 35.0959962,67.9971113 34.9513058,67.8718564 C34.8067642,67.7466014 34.907988,67.8440538 34.792325,67.8301525 C34.6768108,67.8162512 34.8357916,68.1503122 34.8357916,68.1503122 C34.8357916,68.1503122 35.0526784,68.3450736 35.0959962,68.4425259 C35.139314,68.5399783 34.9513058,68.5537363 34.8357916,68.5537363 C34.7201286,68.5537363 34.6912501,68.4703285 34.7056894,68.3450736 C34.7172408,68.2448696 34.7103099,68.2694047 34.6626419,68.219023 L34.6189049,68.1640701 C34.5321204,68.0389585 34.4743634,68.1086083 34.1273744,68.1503122 C33.7805342,68.192016 33.9539543,68.4286246 34.0984958,68.6094847 C34.2430374,68.7904882 34.3153826,68.8599946 34.3153826,68.8599946 L34.5321204,68.9157431 L34.6623716,69.1245491 L34.8502309,69.4167629 C34.9224272,69.597623 34.6912501,69.6393268 34.402167,69.6810307 C34.1129351,69.7228779 34.0984958,69.6393268 34.1129351,69.5281165 C34.1273744,69.4167629 33.9828328,69.388817 33.9828328,69.388817 C33.9828328,69.388817 33.823852,69.180011 33.7226283,69.0548993 C33.6215534,68.9295011 33.592526,68.7487843 33.6069653,68.6372873 C33.6215534,68.526077 33.3612,68.4425259 33.3323215,68.4147233 C33.3034429,68.3867774 32.7108375,68.1503122 32.5228293,68.1781147 C32.33497,68.205774 32.5951745,68.4147233 32.7252768,68.4842298 C32.8553791,68.5537363 32.9275754,68.6652332 32.8698183,68.7764435 C32.8119124,68.8877972 32.7685946,68.8599946 32.5951745,68.8740392 C32.4216056,68.8877972 32.4795115,68.6930358 32.4504841,68.6235293 C32.4381076,68.593618 32.4310353,68.5867653 32.4144795,68.5908892 L32.3643415,68.6101925 C32.3404929,68.6191188 32.3080479,68.6293437 32.2626248,68.6372873 C32.103644,68.6652332 32.1469618,68.6094847 32.0024203,68.4564272 C31.8578787,68.3032264 31.872318,68.5537363 31.7277765,68.7069371 C31.6245325,68.8162639 31.6245021,68.8901282 31.6329128,68.9234118 L31.640992,68.9435457 L31.640992,68.9435457 C31.640992,68.9435457 31.8144121,68.9853929 32.0168595,68.9713483 C32.219307,68.957447 31.9601445,69.1357275 31.9601445,69.1357275 C31.9601445,69.1357275 31.929368,69.1686176 31.8900508,69.2081002 L31.806617,69.2880631 C31.7930095,69.3002579 31.7801002,69.3112372 31.7687125,69.3200271 C31.7003865,69.3726227 31.4543235,69.4515877 31.2767354,69.4647725 C31.0989984,69.4778139 31.1536295,69.7280371 31.1536295,69.7280371 L31.4133874,69.7806328 C31.4133874,69.7806328 31.6183655,69.7410786 31.7687125,69.7410786 C31.9190595,69.7410786 31.9464495,69.885824 31.9464495,69.885824 C31.9464495,69.885824 32.2882284,70.083165 32.4795115,70.214869 C32.6709435,70.3464297 32.4521216,70.5702835 32.3837956,70.6754747 C32.3154695,70.7806659 32.2608385,70.7938506 32.2062075,70.7280703 C32.1515764,70.66229 32.0832504,70.7806659 32.0832504,70.7806659 L32.0421655,70.8990419 L31.8370385,70.8990419 C31.8370385,70.8990419 31.5500395,70.8990419 31.3996925,70.8464462 C31.2493455,70.7938506 31.2902815,70.66229 31.1536295,70.5965096 C31.0169774,70.530586 30.8938715,70.7018441 30.8938715,70.7018441 L30.4291355,71.0571153 C30.4291355,71.0571153 30.1695264,71.2150454 30.0873565,71.2544563 C30.0053355,71.2940105 30.0601155,71.4519407 30.2241574,71.5045363 C30.3881994,71.5571319 30.1967675,71.6229122 30.0190305,71.5835013 C29.8412936,71.5439471 29.6500105,71.5045363 29.5816845,71.517721 C29.5621627,71.5214881 29.5236722,71.5338422 29.4786458,71.5495689 L29.3363918,71.6016527 C29.2678939,71.6275392 29.2126644,71.6492817 29.2126644,71.6492817 C29.2126644,71.6492817 28.8434955,71.6492817 28.5701914,71.5966861 C28.2967385,71.5439471 28.2830435,71.4913515 28.0780654,71.4913515 C27.8729385,71.4913515 27.7499815,71.6755078 27.7499815,71.6755078 C27.7499815,71.6755078 27.3946564,71.9519572 27.2852454,71.9519572 C27.1759834,71.9519572 27.0802674,71.8993616 26.9162254,71.7941704 C26.7521834,71.6886926 26.7521834,71.7808424 26.7521834,71.7808424 L26.6018364,72.0177376 L26.5966263,72.0254764 C26.4672684,72.1637728 26.6683761,72.1773875 26.6683761,72.1773875 C26.6683761,72.1773875 26.8191697,72.0461134 26.9842537,71.9701579 C27.1493377,71.8942024 26.9778528,72.13769 26.9778528,72.13769 C26.9778528,72.13769 26.9195003,72.1983111 26.8191697,72.2672443 C26.7877606,72.2888844 26.7765962,72.3303017 26.7676647,72.3482157 C26.7480154,72.3877699 26.759924,72.3978018 26.7401259,72.4263209 C26.711545,72.4677382 26.4888528,72.7510666 26.4099579,72.8202864 C26.330914,72.8893629 26.0869351,72.8962419 26.0437661,72.9170222 C26.000746,72.9376592 25.6274091,73 25.6274091,73 C25.6274091,73 25.6202639,72.8202864 25.6345543,72.7441876 C25.6489936,72.6680887 25.6345543,72.5230567 25.5340749,72.4194419 C25.4335954,72.3156838 25.1751772,72.1773875 25.2685114,72.1290912 C25.3525122,72.0856246 25.3026744,72.0084939 25.5953911,72.003532 L25.704,72.004 L25.7033788,71.9213972 C25.6945219,71.6644785 25.6426075,71.6880047 25.4900128,71.658597 C25.3839511,71.6382645 25.3839511,71.5455482 25.4016281,71.4443017 L25.4256687,71.3227981 C25.4292041,71.3032273 25.4320324,71.2843369 25.4334466,71.2666379 C25.4447598,71.1251886 25.3768804,71.0488032 25.3542539,70.9834528 C25.3316274,70.9182457 25.3995068,70.7984366 25.3995068,70.7984366 C25.3995068,70.7984366 25.636936,70.5808886 25.727442,70.5046464 C25.817799,70.428261 25.5916831,70.4064775 25.4900128,70.4173693 C25.3881936,70.428261 25.0941982,70.3739456 25.0150055,70.2432448 C24.9358128,70.112544 25.1958685,69.9057444 25.1958685,69.9057444 C25.1958685,69.9057444 25.5351169,69.5573522 25.727442,69.4920018 C25.9196182,69.4266514 26.1119433,69.5464605 26.1119433,69.5464605 C26.1119433,69.5464605 26.3721478,69.7423684 26.428714,69.73162 C26.4851314,69.7207282 26.5982638,69.9384196 26.6886208,69.7207282 C26.7791268,69.5027502 26.9714519,69.6225593 27.0619578,69.5027502 C27.1523149,69.3830845 27.4351459,69.3177341 27.4351459,69.3177341 C27.4351459,69.3177341 27.7065148,69.2743104 27.8649002,69.2523837 C28.0231367,69.2307435 28.1023294,69.1870333 28.226775,69.0129088 C28.3512207,68.8387844 28.1023294,68.7732907 28.0457632,68.7732907 C27.9893458,68.7732907 27.8534381,68.6863001 27.7517678,68.6754084 C27.6499486,68.6645167 27.7065148,68.5447076 27.7970207,68.5447076 C27.8875267,68.5447076 27.9214664,68.501284 28.0119723,68.3705831 C28.1023294,68.2398823 28.452891,68.0004075 28.6339028,68.0112992 C28.8147658,68.0220477 28.8600188,68.2072071 28.8600188,68.2834493 C28.8600188,68.3596914 29.1089101,68.5447076 29.1089101,68.5447076 C29.1089101,68.5447076 29.4820982,68.5555993 29.561142,68.5447076 C29.6403347,68.5339592 29.79872,68.4141501 29.79872,68.4141501 C29.79872,68.4141501 29.9908963,68.403115 30.0474625,68.3922233 C30.1040287,68.3814749 30.2624141,68.2616658 30.3981729,68.1854237 C30.533783,68.1093248 30.6808551,68.0439744 30.6808551,68.0439744 C30.6808551,68.0439744 31.2124286,67.8370315 31.415918,67.7825728 C31.6194075,67.7281142 31.8796121,67.5866649 31.8796121,67.5866649 C31.8796121,67.5866649 32.2641134,67.2708046 32.3997234,67.1729224 C32.5354823,67.0748967 32.3659325,67.0095463 32.3659325,67.0095463 L32.1170413,66.8354219 C32.1170413,66.8354219 31.7664796,66.6720459 31.6646605,66.5413451 C31.5629902,66.4106443 31.6646605,66.3345455 31.687287,66.1820612 C31.7099134,66.0297202 31.5629902,66.203988 31.4723354,66.2584466 C31.3819783,66.3129053 31.3254121,66.2800868 31.3254121,66.2800868 C31.3254121,66.2800868 31.1671756,66.0949273 31.0992962,65.9643698 C31.0314167,65.8338123 31.17834,65.8009938 31.2914724,65.8118856 C31.4046048,65.8229206 31.2575327,65.6813281 31.2575327,65.6813281 L31.1445491,65.5941942 C31.1445491,65.5941942 31.2237418,65.4634934 31.3819783,65.5397355 C31.5403637,65.6159777 31.5290504,65.517952 31.5969299,65.409178 C31.6646605,65.3002607 31.6646605,65.3547194 31.4949619,65.1913433 C31.3254121,65.0281106 31.3706651,65.0606425 31.2914724,65.0281106 C31.2124286,64.9952921 31.0992962,65.0606425 31.0653564,64.9083016 C31.0314167,64.7558173 31.2463683,64.7884925 31.2463683,64.7884925 C31.2463683,64.7884925 31.5743034,64.7123937 31.7438532,64.7123937 C31.9135518,64.7123937 32.1622942,64.7340338 32.2075472,64.5925846 C32.2528001,64.4509921 32.3772458,64.4509921 32.5015426,64.4074251 C32.6259882,64.3638582 32.6938677,64.4509921 32.8070001,64.3420747 C32.9199836,64.2331574 32.7843736,64.1460235 32.7730604,64.0915648 C32.7617471,64.0372495 32.7164942,64.1243834 32.6259882,63.9392239 C32.5354823,63.7542077 32.6938677,63.8522333 32.8409398,63.8522333 C32.9878631,63.8522333 32.8973571,63.7977746 32.8860439,63.6560388 C32.8747307,63.5145896 32.8860439,63.5690482 33.0444293,63.5581565 C33.2026658,63.5474081 33.0895334,63.4710226 33.1009955,63.3513569 C33.1121599,63.2316911 33.1462484,63.2968982 33.304485,63.3404651 C33.4628703,63.3840321 33.4854968,63.4056722 33.4854968,63.4056722 C33.4854968,63.4056722 33.7342392,63.3731403 33.9378776,63.3731403 C34.1413671,63.3731403 34.2884392,63.4167073 34.3336921,63.3622486 C34.3789451,63.3077899 34.5258684,63.1444139 34.6163743,63.100847 C34.7068802,63.0574234 34.9329962,63.0792068 35.159261,63.0246049 C35.385377,62.9702895 35.1366345,62.676356 35.1366345,62.676356 C35.1366345,62.676356 34.8990565,62.469413 34.7519843,62.4258461 C34.6050611,62.3824225 34.6616273,62.5347635 34.6616273,62.5347635 C34.6616273,62.5347635 34.7181935,62.51298 34.9216829,62.6653209 C35.1251724,62.8178052 34.9669359,62.828697 34.9669359,62.828697 C34.9669359,62.828697 34.7972373,62.8504804 34.5824346,62.828697 C34.367483,62.8070568 34.1753068,62.948506 34.0621744,62.992073 C33.9491908,63.0354966 34.0848009,63.111882 34.1074273,63.1772324 C34.1300538,63.2424395 34.0170703,63.2206561 34.0170703,63.2206561 C34.0170703,63.2206561 33.8926246,63.1772324 33.8586849,63.0899553 C33.8247452,63.0029647 33.7455525,63.0465316 33.7455525,63.0465316 L33.3384247,63.0899553 C33.3384247,63.0899553 33.259232,63.1444139 33.1121599,63.1444139 C32.9652366,63.1444139 32.8294777,63.0574234 32.8294777,63.0574234 C32.8294777,63.0574234 32.6825544,62.9376143 32.5015426,62.7633466 C32.3206796,62.5890788 32.3431572,62.8070568 32.3431572,62.8070568 C32.3431572,62.8070568 32.4336631,62.9702895 32.5354823,63.0792068 C32.6373015,63.1879809 32.5241691,63.1879809 32.5241691,63.1879809 L32.3206796,63.2968982 C32.3206796,63.2968982 31.9814312,63.4056722 31.8909253,63.3947805 C31.8004194,63.3840321 31.6082431,63.3622486 31.3932916,63.2860065 C31.17834,63.2097643 31.1671756,63.3077899 30.7939875,63.3077899 C30.4206506,63.3077899 30.5450962,63.3731403 30.48853,63.3731403 C30.4319638,63.3731403 30.2284743,63.3294301 30.1379684,63.2316911 C30.0474625,63.1335222 30.0814022,63.0246049 29.979583,63.0137131 C29.8779127,63.0029647 29.7760936,62.676356 29.7308406,62.6435375 C29.6855876,62.6108623 29.6890114,62.4421837 29.525416,62.3884416 C29.5197593,62.3865785 29.4039475,62.4107983 29.3438087,62.5447953 C29.297216,62.64884 29.308827,62.8506237 29.2732498,62.9573914 C29.2059658,63.160035 29.2317183,63.2735383 29.0891119,63.3811658 C28.9353411,63.4973921 28.4671814,63.1819617 28.4432152,63.1842547 C28.3186207,63.1964363 28.0802983,63.2268185 28.0581184,63.1915637 C27.9853266,63.076054 28.4396426,62.6256234 28.6136581,62.4241264 C28.6538499,62.3776932 28.6828772,62.3140625 28.6828772,62.3058937 C28.6828772,62.3033141 28.6906179,62.2643332 28.6596553,62.2446994 C28.6245247,62.222486 28.5466718,62.2183299 28.4819184,62.1962598 C28.4263942,62.1773426 28.3701257,62.1383617 28.2934636,62.1536961 C28.2270727,62.1670241 28.1527924,62.2393968 28.0728554,62.295002 C27.9393294,62.3880117 27.7955321,62.4848908 27.6886518,62.5479482 C27.6027605,62.598824 27.5776034,62.7439994 27.534881,62.8593658 C27.4921587,62.9747322 27.431871,63.0601463 27.3706902,63.0836495 C27.2792911,63.1184744 27.1078062,63.0823597 27.0917295,63.0644457 C27.0676144,63.0376463 27.1558875,62.8166587 27.1253715,62.6813719 C27.1161423,62.6411012 27.0592783,62.6416744 27.0251898,62.6226139 C26.9812765,62.5978209 26.9613295,62.555687 26.9808299,62.5169927 C27.0117925,62.4557984 27.2639587,62.546945 27.2977495,62.4959258 C27.3245441,62.4553684 27.303555,62.2355274 27.3337733,62.1948267 C27.4035879,62.1013871 27.5607824,62.193107 27.6408682,62.1204476 C27.70845,62.0589667 27.7742454,62.0035048 27.8355751,61.9391576 C27.9140235,61.8570396 27.9009239,61.7097146 27.9592764,61.6419279 C28.0319193,61.5576603 28.1687202,61.5603832 28.1906024,61.5477717 C28.3192161,61.4732493 28.7215804,61.5608131 29.0443055,61.6459406 C29.1505904,61.6740298 29.186763,61.8010045 29.2631274,61.8225014 C29.361374,61.8501607 29.4861173,61.7684726 29.4870105,61.7628835 C29.498026,61.6976764 29.6177082,61.761737 29.4820982,61.4894436 C29.4166005,61.3581696 29.3010863,61.2760516 29.1537165,61.228042 C29.116353,61.2158605 29.0635083,61.1520865 29.0155758,61.1108126 C28.8927676,61.0046181 28.753585,60.8753505 28.6307768,60.8754938 C28.5104992,60.8754938 28.2665202,60.9809716 28.095333,61.1086629 C27.9345659,61.2284719 27.846144,61.3702078 27.7312253,61.4037429 C27.6636436,61.4232333 27.6079705,61.4223735 27.5945733,61.3995868 C27.565397,61.3498575 27.6417614,61.225749 27.5472363,61.2064019 C27.410882,61.178456 27.2268929,61.2061152 27.0113459,61.1565292 C26.9290272,61.137612 26.8431359,61.1552394 26.8343533,61.1017839 C26.8236354,61.0381532 26.7434008,60.8471179 26.8773733,60.746656 C26.9193514,60.714984 26.9666884,60.735621 27.0181934,60.7032324 C27.0485605,60.6841719 27.1005121,60.6570858 27.1207569,60.5977546 C27.1466582,60.5213691 27.1410016,60.4095855 27.1872966,60.3843626 C27.2575578,60.3460982 27.3611632,60.3168625 27.4521157,60.2351745 C27.5229724,60.1716871 27.5828134,60.0589004 27.6355093,59.9979926 C27.6862701,59.9393779 27.6377422,59.8694415 27.6995185,59.8472281 C27.7837723,59.8171325 28.1699111,59.8833428 28.2571421,59.8744574 C28.7763603,59.8221485 28.9950334,59.7949191 28.9950334,59.7949191 C29.0045603,59.7638204 29.0465384,59.5818137 29.1404681,59.532371 C29.1910799,59.5057149 29.220405,59.6643616 29.2853073,59.6450145 C29.3467859,59.6266705 29.4207685,59.6150622 29.483289,59.5772278 C29.4944534,59.5704921 29.5904671,59.5025621 29.5819822,59.4316225 C29.5740927,59.3651256 29.4608114,59.2967656 29.4895411,59.2388674 C29.5191639,59.1789629 29.6153265,59.205619 29.6765073,59.1798228 C29.7375392,59.1541699 29.764036,59.0757781 29.7853228,59.0667494 C29.8024415,59.0595838 30.0298972,59.3840428 30.084826,59.4043931 C30.226688,59.4568454 30.349794,59.5730717 30.4127611,59.6845687 C30.4731976,59.791193 30.4286889,59.9250467 30.4861483,59.982085 C30.519046,60.0147602 30.5870743,60.0404131 30.6695419,60.0124672 C30.7016953,60.0012888 30.7386122,59.9495531 30.7727008,59.9356518 C30.8133391,59.9191709 30.8416222,59.9380881 30.8843446,59.9108588 C30.9520752,59.8672918 31.0766697,59.9108588 31.0540432,59.791193 C31.0314167,59.6713839 30.7939875,59.7803013 30.7034816,59.7583745 C30.6129757,59.736591 30.5903492,59.7039158 30.5677227,59.464441 C30.5450962,59.2248228 30.4998433,59.4210174 30.3867108,59.2466063 C30.2737273,59.0724819 30.4545903,59.0942653 30.4545903,59.0942653 C30.4545903,59.0942653 30.6808551,58.9308893 30.6921683,58.7784051 C30.7034816,58.6262074 30.4206506,58.4844716 30.4206506,58.4844716 C30.4206506,58.4844716 29.9908963,58.2014298 29.7874068,58.0055219 C29.5839173,57.809614 29.6855876,57.809614 29.6969009,57.7114451 C29.7082141,57.6135628 29.8552863,57.482862 30.0135228,57.4066198 C30.1719081,57.3303777 29.9231657,57.1780367 29.8779127,57.1235781 C29.8326598,57.0692627 29.7760936,56.9166351 29.7760936,56.9166351 C29.7760936,56.9166351 29.9231657,56.7859343 29.9457922,56.6662686 C29.9684187,56.5464595 29.9457922,56.6446284 30.0474625,56.5139276 C30.1492817,56.3832268 30.3301446,56.3939752 30.4545903,56.1327169 C30.5513814,55.929516 30.6002657,55.9303953 30.6172123,55.9408208 L30.6242889,55.9475574 C30.6242889,55.9475574 30.8730313,56.0129078 31.0201035,56.0129078 C31.1671756,56.0129078 31.4272313,55.9151689 31.5290504,55.8714586 C31.6307208,55.8278917 31.6533472,55.6537672 31.687287,55.5339582 C31.7212267,55.4141491 31.7438532,55.4250408 31.8343591,55.4250408 C31.9247162,55.4250408 31.9699691,55.337907 32.0717883,55.2507731 C32.1736075,55.1639258 32.3546193,55.0766487 32.479065,55.0112982 C32.5878246,54.9541166 32.9050958,54.9883526 32.9827142,54.9978051 L32.970221,54.9880692 C32.5868836,54.6681827 32.7656004,54.3787922 32.8048963,54.3809667 C32.8545245,54.383576 32.9124974,54.4601172 32.9318217,54.5066507 C32.951146,54.5528943 32.9731054,54.5559385 33.0310783,54.5695652 C33.0890511,54.5830469 33.2353009,54.5887005 33.3042534,54.5940642 C33.3733524,54.5995728 33.4257622,54.6105901 33.4948612,54.6242167 C33.5636674,54.6376984 33.5803565,54.5421669 33.5967529,54.509405 C33.6134421,54.4766431 33.743149,54.3700943 33.7762346,54.3263151 C33.8093201,54.2825359 33.8700745,54.1759872 33.8700745,54.115827 C33.8700745,54.0558118 33.8756375,53.9410001 33.8977434,53.8808399 C33.9197028,53.8208247 34.0107612,53.8372056 34.0577543,53.8372056 C34.1046011,53.8372056 34.198441,53.8563409 34.2454342,53.8590952 C34.2922809,53.8618496 34.3116052,53.8180703 34.3171683,53.7906721 C34.3225849,53.7634188 34.3695781,53.7361655 34.4026636,53.69775 C34.4357491,53.6594794 34.6455348,53.4982791 34.7035076,53.4600086 C34.7614805,53.421883 34.8138903,53.3696958 34.8111088,53.3098256 C34.8083273,53.2496654 34.7256135,53.2496654 34.6704221,53.2358938 C34.6152308,53.2222671 34.5323706,53.2031319 34.4801072,53.170225 C34.4275509,53.137608 34.3006255,53.0584575 34.2122022,53.003806 C34.1239254,52.9491544 34.328148,52.9026209 34.3998821,52.8971122 C34.4716162,52.8916036 34.628992,52.9079846 34.7365932,52.8916036 C34.8441943,52.8752226 34.9105118,52.6895234 34.9573585,52.5993556 C35.0043517,52.5090429 35.2305337,52.4107571 35.3658037,52.3260979 C35.5010738,52.2412938 35.4854094,52.01341 35.5019521,51.9455667 C35.5184949,51.8775784 35.5728079,51.8706202 35.6010623,51.8471359 C35.6293168,51.8237967 35.6482019,51.8097352 35.6789451,51.7675506 C35.7095418,51.7255109 35.7142265,51.6856457 35.7874246,51.5967826 C35.8604763,51.5077746 35.9854986,51.5450304 36.0797777,51.5428559 C36.1742032,51.5405365 36.3298222,51.4890742 36.3771082,51.4116632 C36.4241014,51.3343973 36.4444504,51.1153562 36.4614324,51.0540363 C36.4785607,50.9928614 36.4325923,50.8935609 36.3629078,50.8296316 C36.2932232,50.7655574 36.2030432,50.7404786 36.1594172,50.7048174 C36.1156447,50.6693011 36.0282462,50.6023276 36.068066,50.5472412 C36.1077393,50.4920098 36.2665791,50.4920098 36.3658357,50.4760637 C36.4652387,50.4604076 36.5844051,50.4722947 36.6915671,50.4486655 C36.7988754,50.4250363 36.9776251,50.235713 37.0490664,50.1451103 C37.1205077,50.0543626 37.358987,49.8021248 37.4383337,49.7310923 C37.5178268,49.6602048 37.4780071,49.6362857 37.5178268,49.5378549 C37.5575002,49.4394242 37.5516443,49.2705408 37.5636488,49.208641 C37.5755069,49.1465963 37.5516443,49.1229671 37.5160701,49.0848415 C37.4804958,49.046426 37.4011491,49.0226518 37.328683,48.9823518 C37.2560706,48.9419067 37.3605974,48.8153529 37.3982212,48.7892593 C37.4359914,48.7633107 37.4854733,48.7720086 37.5201692,48.7317085 C37.5550115,48.6914085 37.5724326,48.636612 37.6043469,48.6077641 C37.6362613,48.5789162 37.7582093,48.5300632 37.8016889,48.4839646 C37.845315,48.4378659 37.9158779,48.4440994 37.9659454,48.4020597 C38.0160129,48.3600201 38.0275782,48.3102973 38.0584677,48.2491224 C38.0892109,48.1879475 38.1430847,48.1841784 38.2009112,48.1459079 C38.258884,48.1076373 38.2817218,48.1038682 38.3317893,48.0350102 C38.3818568,47.9662971 38.4819917,47.7520399 38.5127349,47.694924 C38.5436245,47.6376631 38.6013046,47.5535838 38.6474194,47.4770426 C38.6936805,47.4006465 38.6244352,47.2593063 38.593692,47.2056695 C38.5628024,47.1521777 38.6360005,47.0643293 38.67055,47.0185206 C38.7052458,46.9725669 38.7668786,46.9840191 38.8785789,46.9611148 C38.9901327,46.9383554 39.0555718,46.9076229 39.1441414,46.7891871 C39.2327111,46.6704614 39.4176094,46.5789889 39.4790958,46.5025927 C39.5407286,46.4260516 39.5754244,46.1967181 39.5600528,46.124236 C39.5508299,46.0806597 39.548511,45.9819738 39.5481315,45.8860747 L39.5484875,45.7151467 L39.5484875,45.7151467 C39.5484875,45.604394 39.533116,45.5852587 39.4830485,45.5088626 C39.432981,45.4324664 39.3021029,45.2946054 39.1902562,45.2225581 C39.0781168,45.1503659 38.8943896,44.9646666 38.8943896,44.9646666 C38.8943896,44.9646666 38.8227287,44.898273 38.734946,44.8188507 L38.5981228,44.6966164 C38.5531128,44.6570615 38.5110148,44.6209201 38.478771,44.5948628 C38.349796,44.4903435 38.0864294,44.2456438 38.0084003,44.1724368 C37.9302247,44.0992299 37.9259792,44.01747 37.9173419,43.9655728 C37.9087045,43.9141105 38.0344588,43.6730349 38.0561254,43.6041768 C38.077792,43.5351738 38.1038505,43.4793626 38.1429383,43.2984472 C38.1818797,43.1176767 38.1255172,43.0573716 38.077792,42.9496631 C38.0300669,42.8420996 38.0908213,42.8035391 38.1124879,42.7948412 C38.1341545,42.7861434 38.2946047,42.812092 38.3553591,42.8721072 C38.4161135,42.9325573 38.4897507,42.9760466 38.5671943,43.0467892 C38.6444914,43.1175317 38.8230947,43.1056447 38.9182522,43.0820155 C39.0135561,43.0585313 39.0072611,42.9893833 38.9039054,42.9183508 C38.8006961,42.8473183 38.6497617,42.808033 38.5623632,42.7567156 C38.4749647,42.7055432 38.3598974,42.665968 38.284357,42.6188546 C38.208963,42.5715963 38.0937492,42.6188546 38.034166,42.6346557 C37.9744364,42.6504568 37.9309567,42.7488876 37.9189522,42.8238341 C37.9070941,42.8987806 37.9031414,42.9893833 37.8990424,43.0682439 C37.8950897,43.1471045 37.8236484,43.1313034 37.7520606,43.0641849 C37.6806193,42.9973564 37.497917,42.8435492 37.358987,42.7094573 C37.2199107,42.5753653 37.072929,42.4650475 36.9934359,42.401988 C36.9140892,42.3389286 36.9060374,42.2323798 36.898132,42.1888905 C36.8902266,42.1456912 36.7272877,42.0037712 36.602851,41.931434 C36.5343376,41.8834508 36.4899796,41.8715637 36.5109143,41.8193766 C36.5319953,41.7671894 36.574011,41.7097836 36.526725,41.7305135 C36.4794391,41.7515333 36.4164888,41.756752 36.4532342,41.7045649 C36.4899796,41.6525227 36.4899796,41.5951168 36.4532342,41.6264291 C36.4164888,41.6577414 36.3692028,41.6420853 36.400678,41.5846794 C36.4321531,41.5274185 36.3744731,41.5013249 36.3271871,41.574242 C36.2799012,41.647304 36.2326152,41.7150023 36.1538541,41.6628152 C36.075093,41.610773 36.0541583,41.6003356 36.0698227,41.5535121 C36.0856335,41.5063987 36.1276492,41.5013249 36.075093,41.4908875 C36.0225368,41.4804501 36.0594286,41.5481484 36.0330773,41.5585858 C36.0068724,41.5690233 35.9806675,41.5481484 35.9490459,41.5429297 C35.9175707,41.5378559 35.854474,41.5169811 35.8282691,41.4595752 C35.8020642,41.4023143 35.7967939,41.3449085 35.817875,41.2718465 C35.8388096,41.1987845 35.8702848,41.0842627 35.8388096,41.042513 C35.8073345,41.0007633 35.7862534,40.9487211 35.8439335,40.9487211 C35.90176,40.9487211 35.922841,40.9121901 35.9437757,40.8601479 C35.9648567,40.8079608 35.9123005,40.8079608 35.9123005,40.8079608 C35.9123005,40.8079608 35.8492038,40.8340543 35.8388096,40.7557736 C35.8282691,40.6776379 35.8913658,40.5890647 35.7915237,40.5576075 C35.6916815,40.5264401 35.644542,40.510784 35.702222,40.4481594 C35.7600485,40.3856798 35.8071881,40.328129 35.817875,40.2657944 C35.8282691,40.2031698 35.8020642,39.9945662 35.7915237,39.942524 C35.7809832,39.8904818 35.7600485,39.8591695 35.7127626,39.869317 C35.6654766,39.8800444 35.3766371,40.0051486 35.3766371,40.0051486 C35.3766371,40.0051486 35.3668285,40.4485943 35.3668285,40.5102041 C35.3668285,40.5719589 35.3535065,40.6026914 35.3135403,40.6467605 C35.2737206,40.6906847 35.2516148,40.8052065 35.2870426,40.8713102 C35.3224705,40.9374139 35.4067947,41.0649825 35.3580447,41.0826681 C35.3091484,41.1003537 35.2160405,41.0960048 35.1317163,41.0607785 C35.0475386,41.0254072 34.887674,40.9680013 34.8212101,40.8669612 C34.7547463,40.7656312 34.643778,40.4397515 34.5817061,40.307689 C34.5197805,40.1756266 34.4798144,40.0964761 34.4885981,40.0126867 C34.4973819,39.9290423 34.524026,39.7705964 34.524026,39.7705964 C34.524026,39.7705964 34.4442401,39.6998538 34.4663459,39.6692663 C34.4885981,39.6383889 34.5639921,39.6472318 34.5285643,39.6030176 C34.49299,39.5590935 34.4973819,39.5369139 34.5107039,39.4754491 C34.524026,39.4138393 34.5685304,39.3475906 34.6013232,39.2780077 C34.6342623,39.2087148 34.6424605,39.1228959 34.6013232,39.086075 C34.5601858,39.0493991 34.5355913,39.086075 34.469713,39.102456 C34.4038348,39.1188369 34.3297583,39.1352179 34.3338574,39.069839 C34.3379565,39.0043152 34.2843755,38.8244145 34.3666502,38.7877385 C34.4490712,38.7510626 34.4902085,38.7265636 34.5108503,38.6774207 C34.5313458,38.6285677 34.646706,38.5672478 34.6960414,38.514046 C34.7455233,38.460989 34.8812326,38.3138503 34.9100726,38.2075915 C34.9389126,38.1014776 34.9100726,37.9665159 34.9512099,37.897078 C34.9923472,37.8274951 35.0529552,37.6199062 35.0851624,37.5101683 C35.1172231,37.4002854 35.0993628,37.3541867 35.024408,37.2692376 C34.9494531,37.1841436 34.8602979,37.1239834 34.7603093,37.1593547 C34.6603208,37.194726 34.5032377,37.2408246 34.4069091,37.223139 C34.310434,37.2053084 34.2105919,37.1770404 34.2820332,37.0813639 C34.3533281,36.9856875 34.5068976,36.9608986 34.6032263,36.8900111 C34.699555,36.8191235 34.7888566,36.7730249 34.856638,36.7092406 C34.9245658,36.6456013 34.9673135,36.5677555 35.0102075,36.5709447 C35.0529552,36.5747138 35.0993628,36.6029818 35.1172231,36.638498 C35.1350834,36.6737244 35.1492839,36.6880758 35.2028648,36.6525596 C35.2564458,36.6171883 35.2848467,36.5852962 35.2921665,36.4896197 C35.2991935,36.3939433 35.3076845,36.2047649 35.3391596,36.1225702 C35.3706348,36.0402304 35.407673,36.0318225 35.4905332,36.0573362 C35.5733934,36.0828499 35.5990128,36.0602355 35.6446884,36.1308331 C35.690364,36.2018656 35.7132018,36.2018656 35.7303301,36.1991113 C35.7476048,36.196212 35.7275486,36.1311231 35.7047108,36.0914028 C35.681873,36.0515377 35.6132132,36.0119624 35.5332809,36.0063088 C35.4533486,36.0006552 35.364779,35.9864487 35.3049029,36.0742971 C35.2448805,36.1622904 35.2478085,36.2643452 35.236536,36.3635008 C35.2249707,36.4625114 35.1934955,36.5732641 35.1306916,36.5589127 L35.056423,36.5360918 C35.0176445,36.5262493 34.9731108,36.5255709 34.908023,36.5647112 C34.7993971,36.6299452 34.7652868,36.7348993 34.6909176,36.7376536 L34.644674,36.7387113 L34.644674,36.7387113 L34.5586867,36.7384469 C34.5353102,36.7380943 34.5197805,36.7376536 34.5197805,36.7376536 C34.5197805,36.7376536 34.365479,36.8878366 34.3025287,36.9332104 C34.2397247,36.9785843 34.145592,37.0977449 34.1712113,37.1713868 C34.196977,37.2451736 34.3511322,37.3017096 34.4310645,37.3075082 C34.5109967,37.3131618 34.7279558,37.2902575 34.8194534,37.2902575 C34.9108046,37.2902575 34.979318,37.2933017 35.0107931,37.3499828 C35.0421219,37.4066638 34.9627752,37.5719231 34.8935298,37.7094942 C34.8241381,37.8472102 34.7343972,38.0416074 34.6976518,38.1226424 C34.6610528,38.2035325 34.6487555,38.2360045 34.5834628,38.3251575 C34.5181702,38.4141656 34.416132,38.5317316 34.3468867,38.5843536 C34.2774949,38.6368307 34.0980133,38.7178657 34.0816169,38.7949867 C34.0653669,38.8718178 34.0816169,38.9487938 34.0571687,39.0095339 C34.0327206,39.0702739 33.9797252,39.1594269 34.0164706,39.280907 C34.053216,39.4022421 34.1265605,39.5277812 34.085716,39.5602532 C34.0450179,39.5925802 34.0123715,39.5602532 34.0123715,39.5602532 L34.0123715,39.6573793 L33.963871,39.6991236 C33.9067548,39.7483685 33.8151759,39.8276156 33.7797481,39.8598944 C33.7267527,39.9084574 33.6737573,39.9813744 33.64521,39.9328114 C33.6166628,39.8842484 33.5922146,39.8964254 33.5963137,39.8558354 C33.6002664,39.8152454 33.6002664,39.7908914 33.5556156,39.7787144 C33.5105256,39.7666823 33.4942756,39.7465323 33.4901765,39.7101463 C33.4860774,39.6736153 33.5308747,39.6372292 33.4778793,39.6372292 C33.4248839,39.6372292 33.3636903,39.6898513 33.3474403,39.6614383 C33.3310439,39.6331702 33.3270912,39.6291112 33.2942985,39.6412882 C33.2616522,39.6533203 33.216855,39.6737602 33.220954,39.6291112 C33.2250531,39.5844622 33.2253459,39.5741698 33.1629812,39.516329 C33.10047,39.4581983 33.0184882,39.4428321 33.0146819,39.4003576 C33.0107292,39.357883 32.9561235,39.3771633 32.9132294,39.3694802 C32.8701889,39.3616521 32.8741416,39.4003576 32.8741416,39.4545742 C32.8741416,39.5086459 32.8467655,39.7018833 32.8507182,39.833076 C32.8546709,39.9647035 32.8311012,40.0225443 32.8116305,40.0110921 C32.7921598,39.999495 32.7921598,39.8912066 32.7726891,39.9336812 C32.753072,39.9763007 32.7647837,39.9916669 32.7179369,39.9955809 C32.6710902,39.999495 32.6633312,39.9684726 32.6633312,39.9144009 C32.6633312,39.8603293 32.6516195,39.7906014 32.6321488,39.8178547 C32.6126781,39.8446731 32.6438605,39.8796095 32.6438605,39.9297671 C32.6438605,39.9800698 32.710178,40.1579409 32.6281961,40.1654791 C32.5462143,40.1733071 32.5034666,40.1540269 32.4838495,40.2236097 C32.4643789,40.2931926 32.4798968,40.3124729 32.4252911,40.3124729 C32.3706853,40.3124729 32.3315976,40.2969617 32.3315976,40.24289 C32.3315976,40.1888183 32.3550209,40.1965014 32.3121269,40.1733071 C32.2690864,40.1501129 32.2730391,40.0379105 32.3355503,40.0419695 C32.397915,40.0457386 32.4370028,40.0574807 32.4876558,40.0419695 C32.5384553,40.0264583 32.5618787,40.0187752 32.4838495,39.999495 C32.4058204,39.9800698 32.3512146,39.9878978 32.3627799,39.9297671 C32.374638,39.8719264 32.4330501,39.8446731 32.4330501,39.8446731 C32.4330501,39.8446731 32.4955612,39.833076 32.4488609,39.8139407 C32.4018677,39.7946604 32.347262,39.8487321 32.3004152,39.8639534 C32.2535684,39.8796095 32.1326452,39.9067178 32.1989627,39.9568755 C32.2652801,40.0071781 32.3043679,40.0574807 32.2380504,40.080385 C32.1715866,40.1037243 32.19501,40.0921271 32.1247398,40.0960412 C32.0544697,40.0999552 32.0115756,40.0883581 31.9764406,40.080385 C31.9413055,40.0728469 31.9335465,40.084444 31.8944587,40.1231495 C31.8555174,40.16171 31.8159904,40.3229103 31.7266888,40.3334927 C31.6375335,40.3439301 31.558626,40.3229103 31.4798649,40.3229103 C31.4011038,40.3229103 31.3118021,40.2397008 31.3065319,40.1824399 C31.301408,40.125034 31.3066783,40.015586 31.2227933,40.0206598 C31.1386155,40.0257335 30.9914874,40.1302527 30.8759809,40.1614201 C30.7604743,40.1927324 30.6029521,40.1979511 30.5766008,40.0935768 C30.5503959,39.9894924 30.5766008,39.9113567 30.6082223,39.8957005 C30.6396975,39.8800444 30.629157,39.8487321 30.6817132,39.8017637 C30.7342694,39.7547953 30.7761387,39.6817333 30.6921073,39.7182643 C30.6082223,39.7547953 30.5975354,39.833076 30.5609364,39.8122011 C30.5240446,39.7913263 30.5503959,39.7392841 30.476905,39.7547953 C30.4034141,39.7704514 30.3507115,39.7652327 30.3403174,39.7131905 C30.3297769,39.6610034 30.3351936,39.6088162 30.2773671,39.6034525 C30.2195406,39.5985238 30.2668266,39.6399835 30.2617027,39.6817333 C30.256286,39.7236279 30.2720968,39.7705964 30.1933357,39.7547953 C30.1144282,39.7392841 30.0882233,39.7445028 30.0724125,39.7182643 C30.0567481,39.6923156 30.082953,39.6923156 30.0147324,39.7392841 C29.9463654,39.7861075 29.9097664,39.7652327 29.8310053,39.760014 C29.7520978,39.7547953 29.757368,39.7079718 29.757368,39.6662221 C29.757368,39.6244724 29.7493162,39.5856219 29.7787419,39.5817079 C29.8081675,39.5777939 29.8642372,39.5631525 29.8241247,39.544597 C29.7840121,39.5260416 29.7613207,39.5301006 29.7466811,39.5525701 C29.7318951,39.5750395 29.7198906,39.597509 29.6958817,39.6122954 C29.6718727,39.6267918 29.6772893,39.6134551 29.5996994,39.5908406 L29.5695418,39.5776489 C29.4881455,39.5483661 29.4060173,39.49183 29.3411638,39.4686358 C29.1687092,39.4071709 29.0996102,39.4035468 29.0996102,39.4035468 L29.0480788,39.3361384 L29.0173356,38.8850096 L28.932133,38.9498086 L28.826435,39.1782723 L28.6535412,39.2935189 L28.564386,39.1856655 L28.5611653,39.1118787 L28.6381696,38.9432852 L28.5879557,38.8758768 L28.4007151,38.8950121 L28.3242963,38.9995313 L28.2936995,39.0037353 L28.2002988,38.8918229 L28.1699948,38.8389109 L28.0748373,38.8777613 L28.0379455,39.0204062 L27.9637227,39.1500043 L28.0074951,39.2124839 L28.2124497,39.2803272 L28.3849043,39.4216673 L28.3433278,39.4608077 L27.8233288,39.4394979 L27.70182,39.4422523 L27.6330138,39.2622066 L27.2772712,39.2104544 L27.0516748,39.1159377 L26.9800871,38.9940227 L26.8916638,38.9424154 L26.7378015,39.2223414 L26.4145588,39.6499861 L26.1099085,40.0995203 L25.6796502,40.113002 L25.4970943,40.3953924 L25.6086481,40.7222869 L25.4812835,40.8043367 L25.1290544,40.8259363 L25.0072528,40.7853463 L24.8648094,40.6703897 L24.8469491,40.5058552 L24.7747758,40.4085842 L24.7219268,40.3552373 L24.5717243,40.5006365 L24.5727491,40.6867706 L24.5273663,40.8630472 L24.2256439,40.9962694 L24.2101259,41.1400739 L24.4383575,41.2915616 L24.4601705,41.3941963 L24.3956098,41.4542116 L23.918944,41.5203153 L23.8663878,41.5901881 L23.8208586,41.8722885 L23.8318383,42.0008719 L23.9382683,42.1416322 L24.0252276,42.223392 L24.5204857,42.0991577 L24.8268928,42.4298212 L24.9049219,42.5717412 L24.8580752,42.6031985 L24.4768596,42.491431 L24.342468,42.4880968 L24.0143943,42.7130814 L23.6147328,42.8358661 L22.9174481,42.8561611 L22.5750275,43.1527581 L22.6045996,43.5946092 L22.4990479,43.8482967 L22.3630459,44.054146 L22.1517963,44.0931414 L22.0061322,44.2533269 L21.87745,44.261155 L21.8635423,44.5294839 L21.7576979,44.6696643 L21.4807165,44.6979324 L21.1293658,44.8137588 L21.0166407,44.8507247 L20.9971701,44.9695954 L21.0533862,45.0125049 L21.0472375,45.0874514 L20.8365735,45.263583 L20.7298507,45.4292772 L20.7398057,45.6390405 L20.6254703,45.8443099 L20.1116199,45.9515835 L19.874019,46.1713493 L19.828197,46.3482058 L19.9450211,46.6837981 L19.9002239,46.7619338 L19.691463,46.7996245 L19.4998304,46.7715015 L19.3698307,46.8299221 L19.2572521,46.9400949 L19.2945831,47.1337672 L19.2634007,47.2985916 L19.3228375,47.5309694 L19.4559116,47.6586829 L19.5816659,47.5396672 L19.8416654,47.3762925 L19.9526337,47.3970224 L19.9259896,47.5319841 L19.4829949,47.808431 L19.1853716,47.9794889 L18.8460253,48.2043285 L18.7961043,48.3966961 L18.7862957,48.8172374 L18.7081202,48.9162481 L18.5744605,49.0049662 L18.542107,49.0887556 L18.8546627,49.2460418 L18.7914196,49.3955 L18.4413864,49.7012297 L18.1733351,50.0129029 L17.9998557,50.2019363 L17.7903628,50.1066948 L17.5000593,50.1778722 L17.0100715,50.2128086 L16.8165358,50.4056111 L16.5607818,50.3812571 L16.4757256,50.3966233 L16.0792849,50.8684821 L15.5772926,50.9890923 L14.8167647,51.3309181 L13.8444016,51.7650862 L13.5583435,51.8172733 L12.5095617,52.0837177 L12.2232108,52.2375248 L12.0065446,52.4368506 L11.9185605,52.5865988 L11.9258803,52.8871097 L11.787536,53.007575 L11.5376378,53.1003522 L11.2684153,53.162107 L11.2492374,53.1677606 L11.2408928,52.6413953 C11.2408928,52.6413953 11.1404651,52.3263879 10.7715468,52.3472627 C10.4024822,52.3681376 10.3392391,52.2057776 10.244228,51.997029 L10.2103941,51.9140445 L10.2103941,51.9140445 L10.1702651,51.7944594 C10.1573214,51.7604937 10.1410187,51.7294829 10.1099827,51.692604 L10.0566945,51.3952823 L9.77649234,51.4348575 L9.74633473,51.1308674 L10.029904,51.1111523 L10.0032599,50.8368799 L9.72305775,50.840214 L9.71969064,50.5462265 L10.0099942,50.5462265 L10.0066271,50.2654306 L9.71969064,50.2620965 L9.7363798,49.9679639 L10.0233162,49.9813006 L10.0366383,49.7534168 L10.0375166,49.7238441 L9.79640221,49.6939814 L9.81309137,49.4427583 L9.53625629,49.4130407 L9.49951086,49.6939814 L9.21257445,49.6709321 L9.23936494,49.3899913 L8.9724848,49.3504161 L8.93734972,49.5427837 L8.92505245,49.5585848 L8.90265384,49.5226337 L8.85932059,49.2988088 C8.84878007,49.245317 8.85024403,49.2483612 8.86942192,49.1960291 C8.88830702,49.1447118 8.91480472,49.0709249 8.92358849,49.042367 C8.93778891,48.9967032 8.9497934,48.9479952 8.95579564,48.9011718 C8.97673028,48.7341729 8.62567237,48.2857984 8.58351028,48.1396744 C8.57296976,48.1031434 8.55699428,48.0549881 8.53896011,48.0033038 L8.48205776,47.8457593 C8.44450716,47.7444655 8.41222681,47.6614372 8.41222681,47.6614372 L8.41262772,47.5563405 C8.41317679,47.4696207 8.41447731,47.3384867 8.41755701,47.1986693 L8.42363944,46.9868968 C8.42619736,46.9171127 8.42932854,46.849624 8.43316146,46.7888972 C8.4542425,46.4550444 8.54251936,46.006235 8.54251936,46.006235 C8.54251936,46.006235 8.37006472,45.8143023 8.28574055,45.6678884 C8.26703438,45.6354486 8.23626228,45.6005391 8.20121275,45.564714 L8.09102045,45.4560465 C8.00148084,45.3657918 7.93388559,45.2795291 8.00993025,45.2215434 C8.14710342,45.1171691 8.31736212,45.0417876 8.27520003,44.9271209 C8.23318434,44.8123092 7.98650687,44.5864548 7.87056113,44.5970372 C7.75476179,44.6074747 7.41863628,44.6635758 7.26096765,44.7324339 C7.10329902,44.8014369 6.97886231,44.707645 6.76805188,44.6766226 C6.67596872,44.662851 6.33384096,44.922482 6.18905519,44.8956636 C6.07281666,44.874064 6.03490007,44.7415666 6.01557578,44.6525585 C5.98644295,44.5181767 5.89977644,44.618347 5.79583519,44.6887996 C5.67286244,44.772299 5.57697297,44.84942 5.57697297,44.84942 C5.57697297,44.84942 5.55667271,44.8483892 5.52289838,44.846442 L5.38797939,44.8379661 C5.25323872,44.8288029 5.07694886,44.8146286 4.96576914,44.7972329 C4.76549923,44.7659206 4.53346137,44.4469992 4.45982411,44.3946671 C4.38604046,44.3426249 4.24286505,44.1815696 4.24286505,44.0877777 C4.24286505,43.9938408 4.44869801,43.6494057 4.20641241,43.6598431 C3.96383403,43.6702806 3.64395849,43.7805984 3.53869967,43.6657867 C3.43314806,43.550975 3.43710075,43.0731727 3.57412753,42.9792358 C3.7113007,42.885299 3.94319217,42.6348007 3.75331639,42.4886767 C3.56358701,42.3426976 3.58642481,42.284277 3.37576078,42.4514209 C3.16495035,42.6184197 3.06613296,42.7120666 2.99220292,42.7120666 C2.95531109,42.7120666 2.61494009,42.7607746 2.43092016,42.7222141 C2.24675383,42.6833637 2.22742954,42.4554799 2.17472693,42.4409834 C2.17472693,42.4409834 1.55064023,42.0882853 1.44538142,41.9317239 C1.39926664,41.8633008 1.33016766,41.5906229 1.16766796,41.4536317 C0.958760684,41.2770652 0.653085566,41.2385047 0.653085566,41.2385047 L0.574910033,40.9801783 L0.224584096,40.6969181 C0.224584096,40.6969181 -0.0721608581,40.527165 0.0165551962,40.2272339 C0.105124854,39.9271578 0.4967345,39.4164486 0.538896585,39.3119294 C0.58105867,39.2077 0.528795252,38.7024995 0.528795252,38.7024995 L0.634200465,38.3060222 C0.634200465,38.3060222 0.59203838,38.1033621 1.01365923,38.1867166 C1.43513369,38.270216 1.55752085,38.286452 1.64184502,38.2657221 C1.72616919,38.2447023 2.0778127,37.8925841 2.11982838,37.8403969 C2.16213687,37.7882098 1.94268907,37.4891485 1.78458125,37.4579811 C1.62647343,37.4266689 1.22593362,37.259525 1.22593362,37.259525 C1.22593362,37.259525 1.05318619,36.8153545 1.16913192,36.6902503 L1.20126807,36.6503068 L1.20126807,36.6503068 L1.25773159,36.5640879 C1.32381407,36.4645003 1.40528352,36.3822447 1.65604545,36.4625114 C2.01442317,36.5774681 2.15144995,36.6505301 2.15144995,36.6505301 C2.15144995,36.6505301 2.41496298,36.6087804 2.50982767,36.5254259 C2.59415184,36.4512042 2.8146208,36.3862602 2.84211194,36.103449 L2.84273247,35.9867386 C2.81359964,35.6034531 3.06393702,35.6695568 3.33784418,35.4816831 C3.61189773,35.2938094 4.03776407,34.9308188 4.1010072,34.8057146 C4.14038776,34.7274339 3.98667182,34.5614498 3.95417188,34.4680928 C3.9345548,34.4118467 4.03395777,34.4099621 4.03395777,34.3903919 C4.03395777,34.3382048 4.14536523,34.4395348 4.33509461,34.345598 C4.44167099,34.292831 4.55717754,34.0526252 4.64721116,33.8451813 C4.71704211,33.6835461 4.77164787,33.5420609 4.79463206,33.5239404 C4.84733467,33.4821907 4.76549923,33.1334066 4.76549923,33.1334066 L4.73387767,32.9142206 C4.73387767,32.9142206 4.81805544,32.8514511 4.93400118,32.8307212 C5.05009331,32.8098464 5.3870972,32.7780992 5.3870972,32.7780992 C5.3870972,32.7780992 5.55794148,32.4596126 5.61064408,32.5013624 C5.63699539,32.5220922 5.67974306,32.6979339 5.72673622,32.7721556 C5.77372937,32.8462324 5.82467523,32.8185442 5.80886444,32.7820132 C5.77738928,32.7089512 5.74576771,32.1836006 5.74576771,32.1836006 C5.74576771,32.1836006 5.83126305,31.9539772 5.76626317,31.8768562 C5.70126329,31.7995903 5.54974329,31.690867 5.79232168,31.5864928 L5.87606971,31.5506116 L5.87606971,31.5506116 L6.05072169,31.4766635 C6.22297029,31.4041599 6.37366071,31.3417931 6.37366071,31.3417931 L6.46237676,30.7014858 C6.46237676,30.7014858 6.54962886,30.6656796 6.60833371,30.5937773 C6.66703855,30.5217301 6.69734255,30.3696626 6.70056327,30.2829739 C6.70261281,30.2291922 6.8163626,30.3208096 6.82324322,30.169032 C6.82631754,30.100029 6.73760149,29.9563694 6.7294033,29.9340449 C6.69807453,29.8480811 6.40103679,29.9730403 6.33691528,29.9083862 C6.22989971,29.8003878 6.33515853,29.7018121 6.33515853,29.7018121 C6.33515853,29.7018121 6.22155513,29.5161129 6.4005976,29.3282392 C6.57978646,29.1403654 6.98413257,29.4188418 6.98413257,29.2519879 C6.98413257,29.1579061 6.94460561,28.9404597 6.90961694,28.8443484 C6.87477466,28.748382 6.55050723,28.7704166 6.43280475,28.7559202 C6.31510226,28.7412788 6.12390891,28.6392239 6.12390891,28.6392239 C6.04587978,28.5844274 5.87196118,28.5051319 5.88660079,28.4078609 C5.75956555,28.1798683 5.67329248,27.9043365 5.62463178,27.7325063 L5.58839187,27.6008447 L5.58839187,27.6008447 C5.59322295,27.425438 5.621331,27.0366438 5.621331,27.0366438 L5.67740072,26.6340779 C5.67740072,26.6340779 5.66334669,25.9676771 5.621331,25.7593635 C5.57931531,25.5511947 5.83155584,25.1763171 5.88762556,24.884649 C5.94384167,24.5931258 5.90197238,23.926725 5.83155584,23.6212852 C5.7614321,23.3158455 6.02787305,22.8992181 6.02787305,22.8992181 C6.02787305,22.8992181 6.3363297,22.5660902 6.58871662,21.8441681 C6.84110355,21.122101 6.29372842,20.9543773 6.16812054,20.8860991 C6.04265906,20.817676 5.90651066,20.65923 5.78002441,20.5081772 L5.58209684,20.2470966 C5.42735613,20.0328394 5.28564468,19.8126386 5.24275061,19.733778 C5.14466521,19.5532975 5.29867393,19.3310673 5.3829981,19.2616294 C5.46702948,19.1921915 5.42501379,19.0811488 5.46702948,18.9283565 C5.50919157,18.775854 6.06988874,18.5120191 6.35053012,18.2897888 C6.63073231,18.0677035 6.7709798,18.053642 6.9112273,18.053642 C7.05147479,18.053642 7.27575366,17.9288277 7.33196977,17.8177851 C7.37208231,17.7379098 7.69503217,17.5720706 7.91521195,17.4643622 C8.00114648,17.4223225 8.07156302,17.3891257 8.10303818,17.3734696 C8.21517762,17.3179482 8.32746345,17.0680298 8.32746345,16.8875493 C8.32746345,16.7957869 8.34869089,16.8147772 8.40461421,16.8485539 C8.40461421,16.8485539 8.63548091,17.0207715 8.68789072,17.1593573 C8.70926456,17.2156035 8.84687692,17.3665113 8.83311568,17.5430778 C8.81320581,17.8011142 8.5827783,18.0407402 8.64514305,18.1951271 C8.75010908,18.4549031 9.04334052,18.2555772 9.20964652,18.4462053 C9.37595253,18.6368333 9.45471364,18.9390838 9.62965702,19.0604189 C9.80474679,19.181754 9.87033226,19.1600094 10.0890481,19.1946559 C10.3077639,19.2293023 10.6711191,19.4687833 10.9511749,19.5034298 C11.2310843,19.5380763 11.6980879,19.4532721 11.8032003,19.5225651 C11.9081664,19.591858 12.1324452,19.5769267 12.0974566,19.8023461 C12.0626143,20.0274757 11.9838532,20.2140447 11.9750694,20.3439327 C11.9662856,20.4739657 11.8437521,20.7340316 11.8787408,20.8292731 C11.9137294,20.9245147 12.0626143,21.3404172 12.1063867,21.4617523 C12.1500128,21.5830874 12.5963746,22.3370466 12.5963746,22.3370466 L12.9813964,23.0475166 C12.9813964,23.0475166 13.1132993,23.0872368 13.1308668,23.2864177 C13.148288,23.4857436 13.2176797,23.853518 13.2440311,23.9747082 C13.270236,24.0960433 13.375202,24.2175233 13.4014069,24.4254021 C13.4277582,24.6334259 13.5589291,24.8673982 13.6289065,24.9366911 C13.6990302,25.0059841 13.7640301,25.4774079 13.7640301,25.4774079 C13.7640301,25.4774079 13.9621041,25.3596969 13.9881626,25.4131887 C14.0658989,25.5735192 13.979818,25.9180993 13.9275546,26.1064079 C13.8575772,26.357776 13.82903,26.9892404 13.82903,26.9892404 L13.9827459,27.2104559 C13.9827459,27.2104559 14.0227121,27.3370097 14.3203354,27.3544055 C14.6178123,27.3716562 14.7841183,27.2936654 14.8890844,27.1724753 C14.9941968,27.0509952 15.1253677,26.869065 15.0553904,26.6958327 C14.985413,26.5224554 15.0291855,26.2451388 15.1429352,26.1151058 C15.1884095,26.0631905 15.2945582,25.9254291 15.4135236,25.7724989 L15.5593713,25.5862248 C15.5836837,25.5554735 15.607743,25.5252461 15.6311663,25.4961083 C15.7099275,25.3981125 15.6783059,25.3689746 15.6298488,25.314903 C15.5771462,25.2561924 15.6275064,25.1602261 15.6967518,25.1574717 C15.7960084,25.1532678 15.9366951,25.1370318 15.9809067,25.0800608 C16.0684516,24.9674236 16.2005009,24.8131816 16.3098588,24.6656079 C16.3397236,24.6253079 16.8023354,24.7228688 16.8275155,24.6844533 C16.8575267,24.6387895 16.9029095,24.5118008 16.8398128,24.4849824 C16.7383603,24.4416381 16.4849486,24.381333 16.4925612,24.356979 C16.5798133,24.0798073 16.7881349,23.86584 16.8493285,23.8226406 C16.8671889,23.8100287 17.0080219,24.0089197 17.0894182,24.0629914 C17.1165015,24.080967 17.1249924,24.0208068 17.1364113,24.0096445 C17.1634946,23.9826812 17.0146098,23.666804 17.0450602,23.6372313 C17.0938101,23.5899729 17.1447559,23.5425696 17.1907243,23.5069084 C17.3131115,23.4115219 17.4182239,23.2729361 17.435645,23.2034982 C17.4488207,23.151601 17.6953518,23.0370792 17.8903514,23.0070716 C17.9553513,22.997069 18.2349679,23.1872622 18.2780084,23.2013237 C18.3640893,23.2297367 18.2929408,23.0718706 18.3563303,22.9603931 C18.4197198,22.8486256 18.6454626,22.810355 18.774584,22.6965581 C18.8876018,22.5971126 19.0064755,22.5005664 19.0735249,22.3469042 C19.116419,22.2481835 18.943086,22.0720519 18.9653382,22.0024691 C18.9875904,21.9328862 19.1779054,21.9288272 19.1779054,21.9288272 L19.1553604,21.7363146 C19.3182992,21.5649669 19.4266324,21.5556892 19.1303266,21.5211877 L18.9539193,21.3414319 C18.8829172,21.2690948 18.9455747,21.2724289 19.0256534,21.2102393 C19.2024999,21.0729581 19.477139,20.8717477 19.6834112,20.7899878 C19.7371386,20.768823 19.8984671,20.8250692 19.9451675,20.7981058 C20.1490973,20.6808297 20.2404485,20.3943803 20.2404485,20.3943803 L20.6974972,20.5305017 C20.6974972,20.5305017 21.2169106,20.2521703 21.4466062,20.0531344 C21.6189144,19.9038211 21.7429119,19.8182922 21.9272247,19.7611763 C21.988711,19.742041 22.057078,19.535177 22.1358391,19.5209705 C22.2346565,19.5032848 22.3222014,19.665065 22.4063792,19.6304185 C22.5915703,19.5540223 22.7205453,19.384704 23.011288,19.2888826 C23.092977,19.2617743 23.1980895,19.222344 23.3115465,19.1775501 C23.3589788,19.1588497 23.6144401,19.4389207 23.6636292,19.4189156 C23.6820751,19.4113775 23.7265795,19.3615098 23.709012,19.3013496 C23.6794399,19.2007444 23.5746203,19.0708564 23.6050707,19.0582445 C23.8050478,18.975035 23.9918493,18.8944348 24.0889099,18.853265 L24.1856777,18.7702004 L24.2616573,18.7306252 C24.2986956,18.7583134 24.3612067,18.8000631 24.387558,18.8173138 C24.5269271,18.9095111 24.5556208,18.9530004 24.7263187,18.999099 C24.8475346,19.031716 25.0128159,19.0507063 25.1495499,19.1840735 C25.176194,19.210312 25.2085475,19.2301721 25.2357772,19.2546711 L25.4590313,19.09666 L25.6841885,19.2091523 L25.7172741,19.2152408 L25.7620713,19.1866828 L25.7671951,19.1360903 L25.8597175,18.8632675 L25.9269133,18.8178937 L26.1201562,18.7725199 L26.3808877,18.6555337 L26.8937133,18.1416353 C26.8937133,18.1416353 27.1193098,17.7600893 27.2630708,17.5890315 C27.4066854,17.4179736 27.7308064,17.383762 27.7308064,17.383762 C27.7308064,17.383762 28.0395558,17.2928694 28.2005916,17.1790725 C28.3109743,17.1012266 28.3109743,16.981921 28.3502084,16.9043651 C28.4465371,16.7133022 28.5553094,16.2218733 28.5553094,16.2218733 C28.5553094,16.2218733 28.8076963,15.9558638 28.980151,16.0411028 C29.0946328,16.0976389 29.2861189,16.0814029 29.4055781,15.9491955 C29.4600375,15.8891803 29.4874136,15.7707444 29.4982469,15.6662252 C29.5024924,15.62636 29.4940014,15.6234607 29.5327964,15.6428859 L29.8923453,15.8229316 L29.9558812,15.7411717 C29.9558812,15.7411717 30.1542479,15.7991574 30.2379865,15.7690049 C30.3217251,15.7387073 30.3914097,15.464 30.4913982,15.4742925 C30.5566909,15.4811058 30.6641457,15.6459302 30.7446635,15.6766626 C30.7944382,15.6956529 30.8464088,15.6175172 30.9076024,15.5985269 C30.9553276,15.5837405 31.0213522,15.6431759 31.0670278,15.6015711 C31.0933791,15.5727232 31.0122756,15.399056 31.1553047,15.3752819 C31.2113744,15.3660042 31.3015544,15.4486338 31.3599665,15.4403708 C31.4612726,15.4260194 31.5595044,15.4131176 31.6313849,15.4025352 C31.7410356,15.3862992 31.8436593,15.3087433 31.9675104,15.2333618 C31.9881522,15.2465329 31.973919,15.2988709 31.9518802,15.3618251 L31.9054158,15.493429 C31.8918057,15.5363757 31.882747,15.5755811 31.8862605,15.6025859 C31.8985578,15.6971026 32.0648638,15.6421611 32.0648638,15.7107292 C32.0648638,15.784661 32.2269243,15.7276901 32.2543004,15.805101 C32.2894355,15.9045465 32.284458,15.9961639 32.3036359,16.0389284 C32.3103701,16.0541496 32.299976,16.121558 32.3326223,16.1937502 C32.3579489,16.2498514 32.4324645,16.2950803 32.4716987,16.3213188 C32.550899,16.3745207 32.7076892,16.3313213 32.7587815,16.3703167 C32.9085447,16.4844036 32.8681394,16.4759957 32.9691527,16.4883177 C33.0659205,16.3266825 33.1256502,16.2536205 33.1978235,16.1325753 C33.2856611,15.9854366 33.3478795,15.7243559 33.3430484,15.7176875 C33.3368998,15.7092796 33.4210776,15.7081199 33.4885662,15.6776774 C33.5238476,15.6615863 33.5737687,15.6169373 33.6046583,15.6015711 C33.6998158,15.5548926 33.738318,15.5308286 33.8075633,15.5064746 C33.8768087,15.4819756 33.8506038,15.4086237 33.9110654,15.3468689 C33.9716734,15.2851141 34.0502881,15.4934278 34.1271461,15.4173215 C34.2038577,15.3413602 34.1394434,15.0628838 34.3039926,14.9977949 C34.3758731,14.9692369 34.4237446,15.0689723 34.4953324,15.0405593 C34.5355913,15.0244683 34.5957601,14.802673 34.646706,14.7341049 C34.7124378,14.6458216 34.8357034,14.5782682 34.8598587,14.5576833 C34.9077302,14.5170933 34.9291041,14.6990235 35.0053765,14.6384284 C35.0511985,14.6020424 35.0880903,14.5660912 35.0992164,14.5357937 C35.128642,14.4550486 35.1381578,14.1671495 35.1602636,14.1019156 C35.1710969,14.0692986 35.2109166,14.0811857 35.2396103,14.0640799 C35.2685967,14.0469741 35.286457,14.0005856 35.3028534,13.9734773 C35.3356461,13.9191157 35.2532251,13.8057536 35.2532251,13.6535411 C35.2532251,13.5013286 35.289385,13.5854079 35.3770762,13.3572341 C35.4101618,13.2717052 35.3088556,12.9909093 35.3277407,12.943651 C35.3595087,12.8650803 35.4512991,12.9279948 35.5060512,12.8737782 C35.5334273,12.8465249 35.5019521,12.7133027 35.5407471,12.6856146 C35.6262425,12.6244396 35.7259382,12.5706579 35.7786408,12.5634097 C35.8265124,12.5565963 35.8751159,12.5370262 35.9011744,12.5233995 L35.8967825,12.5200653 C35.9121541,12.5151366 36.0401043,12.5481884 36.0401043,12.5481884 C36.0398115,12.5502179 36.5959704,12.3408895 37.1783342,12.5112225 C37.2994038,12.5465938 37.4277932,12.692138 37.5453493,12.7551974 C37.6039078,12.7865097 37.6485586,12.8123133 37.6877927,12.8352177 C37.7271733,12.858412 37.7157544,12.740846 37.7564525,12.7566471 L37.7763624,12.7540377 L37.8179389,12.7344675 C37.9281752,12.777087 38.0004949,12.732728 38.0697402,12.7399762 C38.2464404,12.7586766 38.3055844,12.6859045 38.3348636,12.6419803 C38.3219808,12.6535775 38.4442215,12.4774458 38.4442215,12.3893076 C38.4442215,12.3011693 38.3544807,11.9773191 38.6102348,12.0874919 C38.8659888,12.1975198 39.6139266,12.8072396 39.7917979,12.8072396 C39.9698156,12.8072396 40.3731369,12.68373 40.4955241,12.6727127 C40.6177649,12.6616955 40.6110307,12.2933412 40.6332829,12.2382548 C40.6556815,12.1831684 40.9347125,12.1140204 41.0014691,12.0039925 C41.0682258,11.8938196 41.1797796,11.6846362 41.1464013,11.5964979 C41.1131694,11.5085046 41.0351402,11.3762972 40.8017848,11.2991762 C40.5681366,11.2222001 40.1747702,11.1894382 40.1747702,11.1894382 C40.1747702,11.1894382 39.9168202,10.5687011 40.0835654,10.3925695 C40.250457,10.2164379 40.4274499,10.195998 40.9057261,10.1739634 C41.3838558,10.1519288 42.3808135,10.3963386 42.480802,10.5394183 C42.5215001,10.597549 42.5248672,10.7484568 42.5913311,10.8400743 C42.6886845,10.9740213 42.823369,11.0699876 42.823369,11.0699876 C42.823369,11.0699876 42.9369724,11.1671137 43.1259698,11.1671137 C43.3148208,11.1671137 43.3593252,11.2330724 43.4705862,11.1891483 C43.5818473,11.1450791 44.0128375,11.0041738 44.3019699,11.1142017 C44.4283097,11.1621849 44.3019699,11.3167168 44.4120597,11.3755723 C44.5536248,11.4512437 44.819041,11.4029706 44.819041,11.4029706 C44.9516759,11.3922432 44.9879821,11.441676 44.9951555,11.6111393 L44.9956862,11.6921018 C44.9984128,11.712723 45.0077456,11.7305899 45.0358537,11.7565385 C45.1296936,11.8430821 45.3078577,11.8807729 45.3719792,11.9519503 C45.599186,12.2037533 45.8063365,12.1261974 45.8865616,11.7881407 C45.8755819,11.7888655 46.0172933,11.3213557 46.1282616,11.2661243 C46.2395226,11.2110379 46.5607157,11.3964472 46.8164698,11.4956028 C47.0722238,11.5947583 47.0240595,11.3783267 47.268541,11.3783267 C47.360185,11.3783267 47.4838897,11.4006512 47.731592,11.3620907 C47.9590916,11.3175866 47.9882244,11.2311879 48.0469292,11.202195 C48.2246541,11.1144917 48.4900703,10.7646928 48.601185,10.731641 C48.7125924,10.6985891 48.8163873,10.6326304 49.1055197,10.5665267 C49.394652,10.5005679 49.591994,10.5054967 49.68071,10.4724448 C49.7697189,10.439393 50.0780291,10.321682 49.9112839,10.1894746 C49.7940206,10.0966974 49.3527827,10.0893042 49.243132,9.95173314 C49.1968708,9.89374742 49.3655192,9.62019982 49.3754741,9.5484425 C49.4088524,9.30620718 49.4420844,8.83260887 49.4420844,8.83260887 C49.4420844,8.83260887 49.7200906,8.40618992 49.9942906,8 L50,57.501 L50.0017173,7.90561195 C50.004234,7.89777886 50.1475991,7.85564628 50.2168834,7.82939095 C50.4432416,7.74409737 50.9371139,7.57684654 51.0829366,7.55740889 C51.2733202,7.53202389 51.9898497,7.25757586 52.0503994,7.25757586 C52.1109491,7.25757586 52.490384,6.97863106 52.8798859,7.03795941 C53.2690916,7.09728776 53.1910728,7.21086747 53.390043,7.30413919 C53.5891612,7.3974109 53.6625907,7.62950226 53.8229215,7.34359472 C53.9831043,7.05783223 54.2549118,6.42436788 54.3237519,6.17878621 C54.3927401,5.93305948 54.4840828,5.78887272 54.4968145,5.53821405 C54.5203534,5.30409189 54.570244,5.00628967 54.570244,5.00628967 C54.570244,5.00628967 54.6718017,4.83686298 54.7123655,4.76709051 C54.7532255,4.69731805 54.7022986,4.577791 54.6718017,4.43824607 C54.6413048,4.29870113 54.7227286,4.21906479 54.7227286,4.21906479 L54.7735074,4.03977421 L54.7776691,3.99991574 C54.7814524,3.94898458 54.7837224,3.85376266 54.7632924,3.74081153 C54.7329435,3.57138484 54.8447162,3.49160343 54.925992,3.40195814 C55.0074158,3.31231286 55.2108272,2.94357771 55.2616061,2.8340596 C55.312533,2.72439643 55.1699673,2.64476008 55.1295515,2.57484256 C55.0886915,2.50521515 55.1699673,2.39555198 55.1699673,2.27602493 C55.1699673,2.15635283 55.0685576,2.15635283 55.0481277,2.05684365 C55.0276977,1.95718943 55.0481277,1.96705331 55.0380607,1.67809957 C55.0276977,1.38914582 55.0481277,1.35926406 55.0481277,1.27962771 C55.0481277,1.19984631 55.22726,1.01808976 55.2882539,0.948462354 C55.4121661,0.806886624 55.5245309,0.724494192 55.5970721,0.622664107 C55.6592503,0.535629847 55.6851579,0.432929421 55.7468919,0.281199694 C55.8078858,0.131210653 55.8644383,0.00936268876 56.0013783,0.00123949117 C56.1381703,-0.00688370643 56.1802146,0.0250288556 56.2388397,0.0937859209 C56.2850292,0.148037276 56.400355,0.25088276 56.4745246,0.307745143 C56.6443303,0.438006419 56.7518097,0.445114217 56.8752778,0.555067499 C56.9988939,0.664875724 56.8162085,1.11382745 56.800812,1.19027254 C56.7851194,1.26671763 56.9487073,1.25206686 57.1045968,1.48125708 C57.2604864,1.71059236 57.3829182,1.93586603 57.3829182,1.93586603 C57.3829182,1.93586603 57.4633057,1.93818695 57.6348878,1.99940104 C57.80647,2.06047008 58.1028526,2.16737716 58.1651789,2.3048913 C58.2276531,2.44240543 58.3268421,2.73527571 58.5296614,2.84218279 C58.7323326,2.94923493 58.685551,3.04091102 58.9351519,3.08674906 C59.1846049,3.13258711 59.506599,2.94676896 59.506599,2.94676896 C59.506599,2.94676896 59.7144517,2.75703428 59.8339227,3.52743253 C59.8915115,3.89718308 60.1836009,3.54585479 60.7643747,3.76402066 C61.3452965,3.98218654 61.6536706,4.19077865 61.6536706,4.30392319 L61.6465645,4.31813879 C61.6465645,4.31813879 61.6622571,4.73082624 61.9429472,4.9906235 C62.2237853,5.25042077 62.5201679,5.40331095 62.5201679,5.40331095 L63.0519394,5.81817426 C63.0519394,5.81817426 63.4830414,6.11974797 63.2178959,6.39492129 C63.1697145,6.44492642 63.1180486,6.49953503 63.0657581,6.55542005 L62.9098724,6.7235773 C62.7324926,6.9164651 62.5824941,7.08423263 62.5824941,7.08423263 C62.5824941,7.08423263 62.2548744,7.51215107 62.7071466,7.63443421 C62.7884223,7.65633783 62.8577066,7.67446997 62.9169239,7.6895559 C63.1879911,7.75860308 63.2790377,7.59062696 63.3555761,7.64081672 C63.4492875,7.70188576 63.5807499,8.0317456 63.4559495,8.21509778 C63.3310009,8.39844995 62.8631842,8.61255423 62.8476396,8.70423032 C62.8320951,8.79590641 62.7228392,9.11691777 62.8944213,9.13214876 C63.0658554,9.14737976 63.4189386,9.18320886 63.5850432,9.26821232 C63.7509997,9.35336084 63.6750535,9.44431164 63.7532204,9.61243282 C63.8310911,9.780554 63.9394588,9.95723355 64.0641112,9.74341938 C64.114742,9.65653018 63.9986761,9.5272843 64.0524158,9.43966981 C64.1313229,9.3115844 64.3868456,9.23571953 64.5163834,9.2084488 C64.7347473,9.16275581 65.0468225,8.84174445 65.1870195,8.67362327 C65.3275126,8.50550209 65.5614209,8.00128361 65.5614209,8.00128361 C65.5614209,8.00128361 65.842259,7.75657228 65.982456,7.57336517 C66.1229491,7.38986794 66.2476015,7.19128477 66.232057,7.03853964 C66.2165124,6.88564946 66.2632941,6.51894511 66.3880946,6.45773101 C66.512747,6.39666197 66.902545,6.22839574 66.9807118,6.18270275 C67.0587306,6.13686471 67.0837499,6.00181655 67.2862731,5.75739533 C67.367845,5.65890156 67.4686625,5.47670984 67.5711084,5.37284896 C67.6196666,5.32352955 67.7198919,5.40577692 67.7862153,5.38227767 C67.8438041,5.36182462 67.9062784,5.3510904 67.973342,5.35428165 C68.0204198,5.35660256 68.0698662,5.36574116 68.1218294,5.38300296 L68.1437398,5.3747347 C68.2016247,5.38546893 68.1811947,5.438995 68.2247195,5.47961099 C68.2421886,5.50789712 68.2418925,5.57520361 68.2546242,5.61828557 C68.2694285,5.66876544 68.2532918,5.71097706 68.2571409,5.76363279 C68.2638029,5.8579199 68.2873418,5.94234313 68.3151739,6.02343005 C68.322428,6.04446333 68.3185789,6.04330288 68.3068835,6.06288558 L68.2639509,6.13454379 C68.1705356,6.34806784 68.0731232,6.53098485 68.055358,6.57725806 C68.0186432,6.67328586 67.9449177,7.00996339 68.0063556,7.1062813 C68.0217521,7.13021573 68.2393758,7.42743772 68.2942998,7.53347446 L68.2784592,7.92411323 C68.2931155,8.00491004 68.2583253,8.26789856 68.222943,8.55554679 C68.2075465,8.68087612 68.2487025,8.82085623 68.2547723,8.94415476 C68.2624705,9.10299229 68.2390797,9.24007125 68.2457416,9.34088593 C68.2691325,9.70004731 68.1705356,9.64695641 68.3327911,10.103306 C68.2800877,10.3932752 68.6808408,10.43099 68.8056413,10.2782449 C68.9302937,10.1253547 69.133113,10.0030716 69.3357843,10.1407308 C69.5386035,10.2782449 69.8192936,10.5074351 69.8192936,10.8130704 C69.8192936,11.1187057 69.6727308,11.253899 69.6259491,11.4678582 C69.5790194,11.6816724 69.7469004,11.6897955 69.711074,11.9030295 C69.6967138,11.9896286 69.6753955,12.1068347 69.7095935,12.1577498 C69.7665902,12.242318 69.9442421,12.2343399 69.9442421,12.2343399 C69.9442421,12.2343399 70.0065683,12.249716 70.0688946,12.4178371 C70.1313688,12.5858133 70.1640864,12.8767978 70.3979948,12.9380119 C70.6319031,12.9990809 70.6287942,12.8608415 70.7380502,12.9068246 C70.8471581,12.9526627 71.1918028,12.9526627 71.113932,13.2276909 C71.0359132,13.5027192 70.9578944,13.9613897 70.9422018,14.0529208 C70.9266573,14.1445969 70.9601151,14.361022 71.0440556,14.5829594 C71.0754408,14.6660771 70.9980142,14.7536916 71.028363,14.8048968 C71.0789938,14.8903354 71.2030541,14.8951223 71.3003185,14.9714223 C71.4563561,15.0935604 71.7311245,15.1105321 71.7622136,15.2328152 C71.7933026,15.3549533 71.8051461,15.4564933 71.8051461,15.4564933 L72.0128508,15.6299816 C72.1284726,15.7265896 72.2329912,15.7528449 72.2368403,15.9785538 C72.2389129,16.1053337 72.2483877,16.2116605 72.2483877,16.3146511 C72.2482396,16.3948676 72.2294381,16.4731985 72.2800689,16.5576217 C72.3492051,16.672652 72.3782216,16.7534488 72.3540906,16.7897131 C72.2587507,16.9337548 72.1120398,17.0482048 72.1120398,17.0482048 C72.1120398,17.0482048 72.1577852,17.5868018 72.3204848,17.592314 C72.4830363,17.5978262 72.6563949,17.5704104 72.8540327,17.5544541 C73.0518185,17.5386429 73.1668482,17.4156345 73.3695194,17.5837556 C73.5723387,17.7517318 73.5313307,17.8429727 73.5313307,17.9192727 C73.5313307,17.9957178 73.5468753,18.0569319 73.5313307,18.2555151 C73.5157862,18.4542433 73.4066783,18.6528265 73.4066783,18.6528265 C73.4066783,18.6528265 73.2661852,18.8515547 73.4066783,18.8973927 C73.5468753,18.9432308 73.73415,18.9584618 73.7496945,19.0349069 C73.7653871,19.111352 73.7964762,19.172421 73.7964762,19.3711492 C73.7964762,19.5697324 73.7702726,19.5079381 73.7858171,19.7066663 C73.8015097,19.9053945 73.7870014,20.0027278 73.9926336,19.911777 C74.0998169,19.8644884 74.1923439,19.7934104 74.291681,19.6801208 C74.3769539,19.5830776 74.295234,19.3881209 74.3406833,19.37318 C74.4025654,19.352872 74.5020505,19.3334344 74.5774045,19.3717294 C74.7025011,19.4354095 74.8059833,19.6151353 74.8453628,19.6171661 C75.2857916,19.6400851 75.3562602,19.6615535 75.3562602,19.6615535 C75.3562602,19.6615535 75.8396215,19.8753677 75.7617507,20.0434889 C75.6837319,20.2116101 75.5589314,20.4866383 75.3718047,20.5020144 C75.184678,20.5172454 74.8262652,20.5004187 74.8573543,20.744985 C74.8885915,20.9894062 75.0286404,21.159123 74.9507696,21.2660301 C74.8726028,21.3730823 74.3892415,21.9995839 74.3892415,21.9995839 L73.9057322,22.4581094 C73.9057322,22.4581094 73.7029129,22.7179066 73.874495,22.7789757 C74.0459291,22.8401898 74.2175113,23.0083109 74.0616217,23.1610561 C73.9057322,23.3139463 73.6823348,23.4820674 73.6750807,23.4771355 L73.6297795,24.0058686 L73.6371816,24.4379937 L73.6429553,24.7606007 C73.6429553,24.7606007 73.6297795,24.862866 73.7473258,25.0675415 C73.8648722,25.2722171 74.0475576,25.4129225 74.0605854,25.5151877 C74.0736132,25.6175981 74.2564467,25.7838335 74.230095,25.9117739 C74.2170672,25.975744 74.2204722,26.0397142 74.1816848,26.3347604 C74.1396405,26.5690276 74.0773143,27.0580151 74.4203306,26.996946 C74.7634949,26.9357319 75.0598775,26.7371488 75.184678,26.7982178 C75.3091824,26.8592868 75.6680393,26.98157 75.7460581,27.0732461 C75.8240769,27.1649221 75.8553141,27.3942574 75.8240769,27.5317716 C75.7929878,27.6692857 75.5432388,27.7979513 75.6212576,27.9660725 C75.6989804,28.1341937 75.5604118,28.5051047 75.6695197,28.6273878 C75.7786276,28.749671 75.9937345,29.05197 75.9937345,29.05197 C75.9937345,29.05197 76.5259501,29.0141101 76.4791684,29.1363932 C76.4322387,29.2586763 76.2319362,29.3255476 76.2473327,29.5393618 C76.2631733,29.753321 76.4551854,29.8233836 76.4551854,29.8233836 C76.4551854,29.8233836 76.6637784,29.8434015 76.710412,29.9656846 C76.7573417,30.0879678 76.7869504,30.0364725 76.7712578,30.1127725 C76.7557133,30.1892176 76.7712578,30.2808937 76.7246242,30.3725698 C76.6778425,30.4643909 76.6039689,30.6252593 76.7597104,30.7780044 C76.8512012,30.8675046 76.8714831,31.0045836 76.9079017,31.0778374 C76.9150078,31.0917629 76.9178206,31.0927783 76.9305524,31.1007564 C77.2377422,31.2936824 77.2248624,31.620496 77.3804559,31.709416 C77.5148792,31.7861512 77.8641133,31.4372889 77.9089704,31.645736 C77.9538275,31.854183 77.9230345,32.1225387 77.9619699,32.2084125 L77.9548638,32.3069062 L78.1323677,32.5902027 C78.1323677,32.5902027 78.0584941,33.0472777 78.1832946,33.0777397 C78.3080951,33.1082016 78.3976612,32.819393 78.5380063,32.9263 C78.6780552,33.0333522 78.6650274,33.2393333 78.6961165,33.3157784 C78.7275017,33.3922234 78.9121116,33.3236114 79.0681492,33.3236114 C79.2241868,33.3236114 79.3002811,33.3342006 79.3002811,33.3342006 C79.3002811,33.3342006 79.3939925,33.3800387 79.3626073,33.5021767 C79.3316663,33.6246049 79.347951,33.6791464 79.3011694,33.8014295 C79.2545357,33.9237127 79.2141199,34.1882968 79.2610496,34.295349 C79.3078313,34.402256 79.7544779,34.4392456 79.7544779,34.4392456 C79.7544779,34.4392456 80.1444239,34.4698526 79.9414565,34.6225978 C79.7387853,34.775488 79.5047289,35.0505162 79.5047289,35.0505162 C79.5047289,35.0505162 79.3646799,35.2444576 79.2709685,35.3561515 C79.1772571,35.4678455 78.9497146,35.4550805 78.9810998,35.5621326 C79.0121889,35.6690397 79.3275211,35.8403521 79.2651948,35.9932423 C79.2027206,36.1459874 78.9590413,36.7009759 78.9121116,36.792652 C78.8965671,36.823259 78.8584706,36.8997041 78.814584,36.9880278 L78.7240571,37.1704511 L78.7240571,37.1704511 L78.6478885,37.3241782 C78.628203,37.3639298 78.615877,37.3888367 78.615877,37.3888367 C78.615877,37.3888367 78.3507315,37.7861481 78.2882573,37.8778241 C78.2260791,37.9695002 77.8515296,38.2445285 77.6059258,38.4309269 C77.5493733,38.6666447 77.5393063,38.7674593 77.6931233,38.7409139 C77.8467922,38.7142234 78.0618991,38.5729378 78.1218566,38.5433461 C78.1822583,38.5137545 78.437781,38.474444 78.4780487,38.4645801 C78.5180204,38.4547162 78.6232792,38.4348434 78.7334234,38.5778697 C78.8438637,38.720751 79.094649,38.8882919 79.159788,38.8882919 C79.2249271,38.8882919 79.3384763,38.9145472 79.3401047,38.9157077 L79.5846722,39.4190558 L79.0280295,40.8230635 L78.3904071,41.0098971 L77.723028,41.0748826 L76.9646023,41.8370126 L76.2277909,41.7189362 L76.2387461,42.3857636 L75.5843949,43.1483288 L74.8714184,43.1625444 L74.2457876,43.3363228 L73.5381407,43.7043327 L71.81166,45.1193647 L70.2558732,45.9234162 L68.4756528,47.5178838 L66.8356294,48.6597733 L65.2514183,50.0186682 L64.1615237,51.0120193 L64.0470863,50.9676318 L63.9363499,51.0345031 L63.8010383,51.2046551 L63.6694279,51.3888776 L63.5777891,51.5173982 L63.5256778,51.7975035 L63.5683143,51.9377737 L63.7259804,52.1161939 L63.8088846,52.3028824 L63.8090327,52.5327979 L63.687045,52.7648893 L63.4007293,53.1011316 L62.9921299,53.2660615 L62.9847277,53.6327659 L62.6630297,53.6794743 L62.3744933,53.7689745 L62.2687904,54.0126704 L62.1020937,54.671955 L61.528278,55.4052186 L61.2258255,55.368229 L60.6447557,55.2497174 L60.2280139,55.5758057 L59.7861047,55.8019498 L59.7122311,55.6351341 L59.5473109,55.5554978 L59.2288698,55.3280482 L58.8513594,55.314848 L58.3460877,55.3265976 L58.2775437,55.2930895 L58.1748017,55.0604179 L58.1361624,55.1040801 L58.0565151,55.1075614 L57.8887821,55.1793647 L57.7570235,55.2832256 L57.587662,55.2707507 L57.3060837,55.3573498 L56.7210167,55.5762409 L56.5063539,55.6139558 L56.2959844,55.5193785 L56.1964994,55.4178386 L55.9541525,55.2037343 L55.4328921,54.8483444 L55.2026849,55.1330915 L55.1684869,55.3541585 L55.1556071,55.5327238 L55.0191112,55.6316527 L54.9792876,55.8733179 L54.7662533,55.924378 L54.566987,56.0372324 L54.5210936,56.1350009 L54.522574,56.4924216 L54.4390776,56.47574 L54.3250843,56.1409482 L54.2211579,56.1027982 L53.9003482,56.1538583 L53.5774658,56.3045726 L53.4616959,56.4518056 L53.3913754,56.8576753 L53.2354858,57.0001214 L52.8985393,57.0697488 L52.7611551,57.0404473 L52.8338444,56.5231737 L52.6915748,56.2822338 L52.7618954,56.059136 L52.7456106,55.8843422 L52.6797313,56.0051748 L52.4709903,56.1278931 L52.4070356,56.2208747 L52.3685444,56.3682527 L52.1849707,56.4383153 L51.9118309,56.3261861 L51.662526,56.2784623 L51.2666583,56.3221245 L51.0620625,55.906826 L50.9351894,56.0880024 L50.7187501,56.0093814 L50.766124,56.1045389 L50.868866,56.1827247 L51.0179456,56.4153962 L51.1007018,56.6695363 L51.0139484,56.8453455 L50.8570225,56.9039486 L50.5821062,56.88219 L50.4029738,57.0629311 L50.2753605,57.1775262 L50.4025297,57.2396107 L50.8842625,57.154027 L50.971608,57.2075531 L51.0710931,57.35232 L51.091375,57.4705416 L51.1790167,57.6398232 L51.207589,57.740928 L51.1267574,57.7960497 L50.9588763,57.8326041 L50.5140063,57.7055341 L50.4459063,57.7013274 L50.3958677,57.7207651 L50.3930549,57.9582236 L50.3137037,58 L50.0229577,57.9394184 C50.0115633,57.9744535 50.0015277,57.9966746 50.0001588,57.9996564 L50,58 L50.0000401,57.9999137 L50,58.5889462 Z" id="形状结合"></path>
            </g>
        </g>
    </g>
</svg>