<?xml version="1.0" encoding="UTF-8"?>
<svg width="31px" height="16px" viewBox="0 0 31 16" version="1.1" xmlns="http://www.w3.org/2000/svg" xmlns:xlink="http://www.w3.org/1999/xlink">
    <title>Media/video/interaction_screen/choose_episode/episode_BTN/VIP_tag_no_gap</title>
    <g id="Media/video/interaction_screen/choose_episode/episode_BTN/VIP_tag_no_gap" stroke="none" stroke-width="1" fill="none" fill-rule="evenodd">
        <rect id="矩形" fill-opacity="0" fill="#000000" x="0" y="0" width="31" height="16"></rect>
        <path d="M5.86132812,15 L0.4609375,0.517578125 L1.86230469,0.517578125 L6.19824219,12.5390625 C6.36751302,13.0013021 6.50748698,13.421224 6.61816406,13.7988281 C6.74186198,13.3984375 6.88346354,12.9785156 7.04296875,12.5390625 L11.4228516,0.517578125 L12.7412109,0.517578125 L7.32128906,15 L5.86132812,15 Z M15.34375,15 L15.34375,0.517578125 L16.6035156,0.517578125 L16.6035156,15 L15.34375,15 Z M21.0029297,15 L21.0029297,0.517578125 L25.4023438,0.517578125 C26.4635417,0.517578125 27.3489583,0.696614583 28.0585938,1.0546875 C28.7682292,1.41276042 29.2963867,1.91731771 29.6430664,2.56835938 C29.9897461,3.21940104 30.1630859,3.98925781 30.1630859,4.87792969 C30.1630859,5.70800781 29.9962565,6.45100911 29.6625977,7.10693359 C29.3289388,7.76285807 28.7999674,8.28531901 28.0756836,8.67431641 C27.3513997,9.0633138 26.4261068,9.2578125 25.2998047,9.2578125 L22.2626953,9.2578125 L22.2626953,15 L21.0029297,15 Z M25.3583984,8.17871094 C26.1526693,8.17871094 26.8094076,8.04117839 27.3286133,7.76611328 C27.847819,7.49104818 28.2294922,7.1085612 28.4736328,6.61865234 C28.7177734,6.12874349 28.8398438,5.55664062 28.8398438,4.90234375 C28.8398438,4.22526042 28.7161458,3.64176432 28.46875,3.15185547 C28.2213542,2.66194661 27.8307292,2.28108724 27.296875,2.00927734 C26.7630208,1.73746745 26.0777995,1.6015625 25.2412109,1.6015625 L22.2626953,1.6015625 L22.2626953,8.17871094 L25.3583984,8.17871094 Z" id="形状结合" fill="#D8AB67" fill-rule="nonzero"></path>
    </g>
</svg>