<?xml version="1.0" encoding="UTF-8"?>
<svg width="44px" height="63px" viewBox="0 0 44 63" version="1.1" xmlns="http://www.w3.org/2000/svg" xmlns:xlink="http://www.w3.org/1999/xlink">
    <title>jdo_appshop_bronzemedal</title>
    <defs>
        <polygon id="path-1" points="0 0 22.187013 0 22.187013 17.3802273 0 17.3802273"></polygon>
        <polygon id="path-3" points="0 0 8.45773977 0 8.45773977 17.3802273 0 17.3802273"></polygon>
        <polygon id="path-5" points="0 0 8.45773977 0 8.45773977 17.3802273 0 17.3802273"></polygon>
        <polygon id="path-7" points="0 0 8.45773977 0 8.45773977 17.3802273 0 17.3802273"></polygon>
        <polygon id="path-9" points="0 0 8.45773977 0 8.45773977 17.3802273 0 17.3802273"></polygon>
        <polygon id="path-11" points="0 0 44 0 44 42.8139503 0 42.8139503"></polygon>
        <linearGradient x1="12.4467172%" y1="17.4663209%" x2="81.8466058%" y2="83.789257%" id="linearGradient-13">
            <stop stop-color="#F0CCAB" offset="0%"></stop>
            <stop stop-color="#BA6A1C" offset="100%"></stop>
        </linearGradient>
        <polygon id="path-14" points="0 0 37.8945499 0 37.8945499 36.87339 0 36.87339"></polygon>
        <radialGradient cx="50%" cy="50%" fx="50%" fy="50%" r="50%" gradientTransform="translate(0.500000,0.500000),scale(0.973048,1.000000),rotate(90.000000),scale(1.000000,1.024292),translate(-0.500000,-0.500000)" id="radialGradient-16">
            <stop stop-color="#000000" stop-opacity="0" offset="0%"></stop>
            <stop stop-color="#000000" stop-opacity="0" offset="87.4317089%"></stop>
            <stop stop-color="#000000" stop-opacity="0.05" offset="100%"></stop>
        </radialGradient>
    </defs>
    <g id="jdo_appshop_bronzemedal" stroke="none" stroke-width="1" fill="none" fill-rule="evenodd">
        <g id="3备份" transform="translate(0.000000, 0.000000)">
            <g id="编组-1">
                <g id="编组">
                    <polygon id="Fill-1" fill="#8E2323" fill-rule="nonzero" points="21.5196601 2.60444654e-05 14.7912617 17.3802794 29.9297567 17.3802794 37.2183643 2.60444654e-05"></polygon>
                    <g>
                        <path d="M31.1309811,18.088168 L13.3493588,18.088168 L13.3493588,17.3117824 C13.3493588,16.4671604 14.0530329,15.7824514 14.9210493,15.7824514 L29.5595583,15.7824514 C30.427307,15.7824514 31.1309811,16.4671604 31.1309811,17.3117824 L31.1309811,18.088168 Z M30.6237683,14.3666742 L14.2304904,14.3666742 C13.1542358,14.3666742 12.2816692,15.2157238 12.2816692,16.2632322 L12.2816692,26.4210948 L32.5728572,26.4210948 L32.5728572,16.2632322 C32.5728572,15.2157238 31.7002907,14.3666742 30.6237683,14.3666742 L30.6237683,14.3666742 Z" id="Fill-2" fill="#C95506" fill-rule="nonzero"></path>
                        <g transform="translate(7.742744, 0.000000)" id="Fill-4-Clipped">
                            <mask id="mask-2" fill="white">
                                <use xlink:href="#path-1"></use>
                            </mask>
                            <g id="path-1"></g>
                            <polygon id="Fill-4" fill="#FA342B" fill-rule="nonzero" mask="url(#mask-2)" points="0 -2.60444659e-05 7.04851796 17.3802273 22.187013 17.3802273 15.2985548 -2.60444659e-05"></polygon>
                        </g>
                        <g transform="translate(9.686051, 0.000000)" id="Fill-6-Clipped">
                            <mask id="mask-4" fill="white">
                                <use xlink:href="#path-3"></use>
                            </mask>
                            <g id="path-3"></g>
                            <polygon id="Fill-6" fill="#FFFFFF" fill-rule="nonzero" mask="url(#mask-4)" points="8.45773977 17.3802273 0.872566589 -2.60444659e-05 0 -2.60444659e-05 7.58517318 17.3802273"></polygon>
                        </g>
                        <g transform="translate(12.466916, 0.000000)" id="Fill-8-Clipped">
                            <mask id="mask-6" fill="white">
                                <use xlink:href="#path-5"></use>
                            </mask>
                            <g id="path-5"></g>
                            <polygon id="Fill-8" fill="#FFFFFF" fill-rule="nonzero" mask="url(#mask-6)" points="8.45773977 17.3802273 0.872566589 -2.60444659e-05 0 -2.60444659e-05 7.58517318 17.3802273"></polygon>
                        </g>
                        <g transform="translate(15.638320, 0.000000)" id="Fill-10-Clipped">
                            <mask id="mask-8" fill="white">
                                <use xlink:href="#path-7"></use>
                            </mask>
                            <g id="path-7"></g>
                            <polygon id="Fill-10" fill="#FFFFFF" fill-rule="nonzero" mask="url(#mask-8)" points="8.45773977 17.3802273 0.872566589 -2.60444659e-05 0 -2.60444659e-05 7.58517318 17.3802273"></polygon>
                        </g>
                        <g transform="translate(18.689975, 0.000000)" id="Fill-12-Clipped">
                            <mask id="mask-10" fill="white">
                                <use xlink:href="#path-9"></use>
                            </mask>
                            <g id="path-9"></g>
                            <polygon id="Fill-12" fill="#FFFFFF" fill-rule="nonzero" mask="url(#mask-10)" points="8.45773977 17.3802273 0.872566589 -2.60444659e-05 0 -2.60444659e-05 7.58517318 17.3802273"></polygon>
                        </g>
                        <g transform="translate(0.000000, 20.186050)" id="Fill-14-Clipped">
                            <mask id="mask-12" fill="white">
                                <use xlink:href="#path-11"></use>
                            </mask>
                            <g id="path-11"></g>
                            <path d="M44,21.4069882 C44,33.2298734 34.1501686,42.8139764 22.0000803,42.8139764 C9.84972437,42.8139764 -0.000107063385,33.2298734 -0.000107063385,21.4069882 C-0.000107063385,9.58410295 9.84972437,0 22.0000803,0 C34.1501686,0 44,9.58410295 44,21.4069882" id="Fill-14" fill="url(#linearGradient-13)" fill-rule="nonzero" mask="url(#mask-12)"></path>
                        </g>
                        <g transform="translate(6.105423, 26.126610)" id="Fill-16-Clipped">
                            <mask id="mask-15" fill="white">
                                <use xlink:href="#path-14"></use>
                            </mask>
                            <g id="path-14"></g>
                            <path d="M31.1048576,0 C34.8868717,3.84442359 37.2104148,9.05826519 37.2104148,14.800549 C37.2104148,26.6231738 27.3605834,36.2072767 15.2102275,36.2072767 C9.30916134,36.2072767 3.95090657,33.9466171 0,30.2667945 C4.00497358,34.3380654 9.64534037,36.8734942 15.8946302,36.8734942 C28.0447184,36.8734942 37.8945499,27.2891308 37.8945499,15.466506 C37.8945499,9.38564413 35.2888947,3.89703341 31.1048576,0" id="Fill-16" fill="#BC6D21" fill-rule="nonzero" mask="url(#mask-15)"></path>
                        </g>
                    </g>
                </g>
                <path d="M22.0000535,59.0511641 C12.0910696,59.0511641 4.05837144,51.2349595 4.05837144,41.5930379 C4.05837144,31.9511162 12.0910696,24.1349116 22.0000535,24.1349116 C31.9087698,24.1349116 39.9417356,31.9511162 39.9417356,41.5930379 C39.9417356,51.2349595 31.9087698,59.0511641 22.0000535,59.0511641 Z" id="Fill-18" fill="#F0CCAB" fill-rule="nonzero"></path>
                <path d="M22.0000535,59.0511641 C12.0910696,59.0511641 4.05837144,51.2349595 4.05837144,41.5930379 C4.05837144,31.9511162 12.0910696,24.1349116 22.0000535,24.1349116 C31.9087698,24.1349116 39.9417356,31.9511162 39.9417356,41.5930379 C39.9417356,51.2349595 31.9087698,59.0511641 22.0000535,59.0511641 Z" id="Fill-18" stroke-opacity="0.0528385189" stroke="#002E5C" stroke-width="0.502066116"></path>
                <path d="M22.0000535,59.0511641 C12.0910696,59.0511641 4.05837144,51.2349595 4.05837144,41.5930379 C4.05837144,31.9511162 12.0910696,24.1349116 22.0000535,24.1349116 C31.9087698,24.1349116 39.9417356,31.9511162 39.9417356,41.5930379 C39.9417356,51.2349595 31.9087698,59.0511641 22.0000535,59.0511641 Z" id="Fill-18" fill="url(#radialGradient-16)" fill-rule="nonzero"></path>
                <path d="M15.7873705,46.7236328 C16.138282,46.8453776 16.5241056,46.9635417 16.9448413,47.078125 C17.3655769,47.1927083 17.8140633,47.2956543 18.2903002,47.3869629 C18.7665372,47.4782715 19.2669441,47.5516764 19.7915209,47.6071777 C20.3160978,47.662679 20.8594734,47.6904297 21.4216479,47.6904297 C22.1019864,47.6904297 22.7062345,47.6313477 23.234392,47.5131836 C23.7625496,47.3950195 24.20656,47.2329915 24.5664233,47.0270996 C24.9262866,46.8212077 25.1993172,46.5786133 25.3855151,46.2993164 C25.571713,46.0200195 25.664812,45.7210286 25.664812,45.4023438 C25.664812,45.094401 25.5770841,44.7936198 25.4016284,44.5 C25.2261726,44.2063802 24.9585131,43.9458822 24.5986498,43.7185059 C24.2387866,43.4911296 23.784034,43.3076172 23.234392,43.1679688 C22.6847501,43.0283203 22.0357429,42.9584961 21.2873705,42.9584961 L19.2839526,42.9584961 L19.2839526,40.4072266 L21.2873705,40.4072266 C21.9139982,40.4072266 22.4555834,40.3570964 22.9121264,40.2568359 C23.3686694,40.1565755 23.7455411,40.0169271 24.0427416,39.8378906 C24.3399422,39.6588542 24.560157,39.4458008 24.7033862,39.1987305 C24.8466153,38.9516602 24.9182299,38.6795247 24.9182299,38.3823242 C24.9182299,38.1925456 24.8779467,38.0126139 24.7973803,37.8425293 C24.7168139,37.6724447 24.6004402,37.5157878 24.4482592,37.3725586 C24.2960782,37.2293294 24.113461,37.1004232 23.9004077,36.9858398 C23.6873543,36.8712565 23.4492358,36.7745768 23.1860522,36.6958008 C22.9228686,36.6170247 22.6364103,36.5561523 22.3266772,36.5131836 C22.0169441,36.4702148 21.6919929,36.4487305 21.3518237,36.4487305 C20.9292976,36.4487305 20.4879728,36.4764811 20.0278491,36.5319824 C19.5677254,36.5874837 19.1120776,36.6635742 18.6609057,36.7602539 C18.2097338,36.8569336 17.7719897,36.9724121 17.3476733,37.1066895 C16.9233569,37.2409668 16.5357429,37.3886719 16.1848315,37.5498047 L16.1848315,34.9072266 C16.3960945,34.796224 16.6261564,34.6905924 16.875017,34.590332 C17.1238777,34.4900716 17.3870613,34.3951823 17.6645678,34.3056641 C17.9420743,34.2161458 18.2347989,34.1355794 18.5427416,34.0639648 C18.8506844,33.9923503 19.1693692,33.9314779 19.4987963,33.8813477 C19.8282234,33.8312174 20.1683927,33.7918294 20.5193041,33.7631836 C20.8702156,33.7345378 21.2282885,33.7202148 21.5935229,33.7202148 C22.6713224,33.7202148 23.6408048,33.824056 24.5019702,34.0317383 C25.3631355,34.2394206 26.0953946,34.5330404 26.6987475,34.9125977 C27.3021004,35.2921549 27.7649096,35.7486979 28.0871752,36.2822266 C28.4094409,36.8157552 28.5705737,37.4065755 28.5705737,38.0546875 C28.5705737,38.4270833 28.5097013,38.7869466 28.3879565,39.1342773 C28.2662117,39.4816081 28.0818041,39.8074544 27.8347338,40.1118164 C27.5876635,40.4161784 27.2779304,40.6936849 26.9055346,40.9443359 C26.5331388,41.194987 26.0980802,41.4116211 25.6003588,41.5942383 C26.2448901,41.7840169 26.804379,42.0113932 27.2788256,42.2763672 C27.7532722,42.5413411 28.1462573,42.8394368 28.4577807,43.1706543 C28.7693041,43.5018717 29.0011564,43.8626302 29.1533373,44.2529297 C29.3055183,44.6432292 29.3816088,45.055013 29.3816088,45.4882812 C29.3816088,45.9287109 29.3108894,46.3548177 29.1694506,46.7666016 C29.0280118,47.1783854 28.8140633,47.564209 28.5276049,47.9240723 C28.2411466,48.2839355 27.8830737,48.6133626 27.4533862,48.9123535 C27.0236987,49.2113444 26.5215014,49.4673665 25.9467944,49.6804199 C25.3720873,49.8934733 24.7239754,50.059082 24.0024584,50.1772461 C23.2809415,50.2954102 22.4851245,50.3544922 21.6150073,50.3544922 C20.9489916,50.3544922 20.3331062,50.3276367 19.767351,50.2739258 C19.2015958,50.2202148 18.6788094,50.1477051 18.1989916,50.0563965 C17.7191739,49.9650879 17.2796394,49.8594564 16.8803881,49.739502 C16.4811368,49.6195475 16.1167976,49.4933268 15.7873705,49.3608398 L15.7873705,46.7236328 Z" id="路径" fill="#2E1700" fill-rule="nonzero"></path>
            </g>
            <path d="M26.4787134,20.4458399 C36.4813278,22.4675214 44,31.1256762 44,41.5 C44,53.3741221 34.1502645,63 22,63 C19.5925436,63 17.275405,62.6220923 15.1073086,61.9236668 L26.4787134,20.4458399 Z" id="形状结合" fill="#000000" fill-rule="nonzero" opacity="0.0483789937"></path>
        </g>
    </g>
</svg>