<?xml version="1.0" encoding="UTF-8"?>
<svg width="786px" height="420px" viewBox="0 0 786 420" version="1.1" xmlns="http://www.w3.org/2000/svg" xmlns:xlink="http://www.w3.org/1999/xlink" style="background: #000000;">
    <title>Cover/default/786*420</title>
    <defs>
        <path d="M145.750954,25.549571 L148.505046,28.450429 L27.3640461,143.462429 L24.6099539,140.561571 L145.750954,25.549571 Z M148.981,35.442 L148.981,133.987 L45.426,133.987 L50.369,129.466 L144.536,129.466 L144.536,40.007 L148.981,35.442 Z M128.017,34.982 L122.967,39.476 L27.487,39.476 L27.487,129.79 L23,133.924 L23,34.982 L128.017,34.982 Z M115.503,75.809 L140.237,124.001 L60.404,124.001 L87.492,97.855 L95.962,107.062 L115.503,75.809 Z M54.504,50.7869992 L54.499,50.79 C63.1698706,50.79 70.199,57.8191294 70.199,66.49 C70.199,75.1608706 63.1698706,82.19 54.499,82.19 C45.8281294,82.19 38.7989997,75.1608706 38.7989997,66.49 C38.7982039,62.3247149 40.4526413,58.3298297 43.3981302,55.3847158 C46.3436191,52.439602 50.338715,50.7856734 54.504,50.7869992 Z" id="path-1"></path>
    </defs>
    <g id="Cover/default/786*420" stroke="none" stroke-width="1" fill="none" fill-rule="evenodd">
        <rect fill="#000000" x="0" y="0" width="786" height="420"></rect>
        <path d="M781.005152,5.05536877 L781.005152,415 L514.817152,414.999369 L278.137152,5.05536877 L781.005152,5.05536877 Z" id="形状结合" fill="#23292B" opacity="0.499232701"></path>
        <g id="Form" transform="translate(308.000000, 125.000000)">
            <mask id="mask-2" fill="white">
                <use xlink:href="#path-1"></use>
            </mask>
            <use id="形状结合" fill="#FFFFFF" xlink:href="#path-1"></use>
            <rect id="矩形备份-5" fill="#A9C6D4" style="mix-blend-mode: multiply;" mask="url(#mask-2)" x="0" y="0" width="170" height="170"></rect>
        </g>
        <path d="M786,0 L786,420 L0,420 L0,0 L786,0 Z M781,5.05536877 L278.137,5.05536877 L514.818,414.999369 L781,415 L781,5.05536877 Z" id="形状结合" fill="#000000" opacity="0.254394531"></path>
    </g>
</svg>