<?xml version="1.0" encoding="UTF-8"?>
<svg width="120px" height="120px" viewBox="0 0 120 120" version="1.1" xmlns="http://www.w3.org/2000/svg" xmlns:xlink="http://www.w3.org/1999/xlink">
    <title>jdo_cn_ximalaya_radio_province_gansu</title>
    <g id="jdo_cn_ximalaya_radio_province_gansu" stroke="none" stroke-width="1" fill="none" fill-rule="evenodd">
        <g id="编组">
            <rect id="矩形" x="0" y="0" width="120" height="120"></rect>
            <g id="甘肃-" transform="translate(18.000000, 30.000000)" fill="#FFFFFF" fill-opacity="0.189284" fill-rule="nonzero">
                <path d="M21.8588702,0 L22.1613573,0.575735275 L25.6864598,7.29981461 L25.5375647,7.72213609 C25.5375647,7.72213609 25.406166,8.09867621 25.0915841,8.33394152 C25.0758491,8.34561808 25.3940712,8.8792715 25.4000599,8.88482076 C25.5178373,8.99175954 25.3225593,9.07153009 25.9013478,9.50703105 C26.5997925,10.0327074 26.4368064,10.7622033 26.6251563,10.7915681 C26.6251563,10.7915681 27.5691369,11.2742378 27.823832,11.3649912 C28.0784097,11.4557447 28.4249313,11.6215287 28.4338556,11.6702003 C28.4428973,11.7189875 28.6687059,13.576832 28.6687059,13.576832 L28.6687059,13.576832 L28.7856613,14.0253969 L29.9920871,13.0686127 L29.6967629,12.6200479 L30.1666983,12.4421249 L30.3375518,12.9028287 L30.4936098,13.1376316 L30.8829916,13.3051497 L30.8697225,12.7186628 C30.8697225,12.7186628 31.5898909,12.0680125 31.6225351,12.0418848 C31.6459027,12.0231561 32.0425648,12.6939223 32.0659324,12.7299925 C32.0772052,12.7474495 32.2728354,12.8259484 32.3418814,12.7465247 C32.3954273,12.6847892 32.5186062,12.4481366 32.5978682,12.3304461 C32.6239366,12.2918325 32.5853037,11.6224536 32.5853037,11.6224536 L32.5853037,11.6224536 L33.1700809,11.4832597 L34.6171108,11.5686951 C34.6171108,11.5686951 34.8759158,10.9240566 35.1225085,10.8259041 C35.4396738,10.6996586 36.7828999,10.8980445 36.9933258,11.0164286 C37.0273577,11.0355672 37.0619311,11.0538259 37.0967668,11.0716019 L37.3066926,11.1756463 C37.5848301,11.3151282 37.8439961,11.474589 37.9411814,11.8574877 C38.0163335,12.1535636 38.0365306,12.6061747 37.8809423,12.9688417 C37.7599944,13.2508133 37.4735945,13.478564 37.4034917,13.5361375 C37.243089,13.6677011 37.5664778,14.612115 37.4865113,15.1122417 C37.4640831,15.2527072 37.1382284,15.6150274 37.0804552,15.7321398 C37.0249131,15.8446278 36.6178002,16.5319263 36.6178002,16.5319263 C36.6178002,16.5319263 36.5672813,16.5511945 36.4936166,16.5799128 L36.3235367,16.6470402 C36.2003901,16.696313 36.0685376,16.7507494 35.9928636,16.7870764 C35.8821317,16.8402568 35.2447481,17.3357591 34.8707491,17.5218904 C34.7007175,17.6066321 34.5659134,17.5759956 34.5659134,17.5759956 L34.5659134,17.5759956 L34.5952697,17.7739191 L34.9536512,17.7622425 L35.7069334,17.58062 L36.1010122,17.5383069 C36.1092319,17.5374977 36.2503769,17.5503303 36.4024425,17.6203897 C36.6107547,17.7164611 36.6943614,17.8579672 36.7479072,17.9455992 C36.7871272,18.0097624 37.3158926,18.0736945 37.5665952,18.1649104 C37.9330791,18.2980925 38.190475,18.5367105 38.190475,18.5285022 C38.190475,18.5148603 38.6016978,18.4175171 38.6728574,18.4730097 C38.7128994,18.5042242 38.9028932,18.581567 38.9845037,18.7557905 C39.0480307,18.8910536 38.9624278,18.9755641 38.979337,18.9971831 C39.0178525,19.0467796 39.1493686,19.5158073 39.3168168,19.5158073 C39.4841477,19.5158073 40.0299397,19.5918783 40.0299397,19.5918783 L40.0299397,19.5918783 L40.1168343,19.992234 L40.5232426,20.0806753 L41.2012554,19.9855287 L41.7284942,19.8908445 C41.7284942,19.8908445 41.8787984,20.4223013 41.9467875,20.8961846 C41.9848333,21.1619709 42.149111,21.4350405 42.1263306,21.5201291 C42.062921,21.7571285 42.0887545,22.140374 42.0887545,22.140374 L42.0887545,22.140374 L42.6878575,22.1111248 L42.8196085,22.600731 L44.0072463,21.9765554 L44.0410648,22.2772556 L44.2896538,22.8327593 C44.2896538,22.8327593 44.4080183,22.8972694 44.4748332,22.946519 C44.4998447,22.9649009 44.6381716,22.858887 44.6873727,22.8661704 C44.7695703,22.8783094 44.7644036,23.0031677 44.7503126,23.059007 C44.6985281,23.2636358 44.6050577,23.3080299 44.6527323,23.3364698 C44.6951227,23.3616727 44.896272,23.3943902 44.8960371,23.4066448 C44.900742,23.4707707 44.9052879,23.5345245 44.9096749,23.5979258 C45.076811,23.6201317 45.2224159,23.6489829 45.2224159,23.6489829 L45.2224159,23.6489829 L45.8239791,22.4334816 L46.2560896,21.9224146 L45.106056,20.8511019 C45.106056,20.8511019 45.0113308,20.8850422 45.3308236,20.7011412 C45.5205078,20.5920474 46.4112751,20.254376 47.0202058,19.9157812 C47.4366457,19.6842021 47.7052675,19.4615122 47.7052675,19.4615122 L47.7052675,19.4615122 L48.5190853,19.8228494 L50.0039314,19.9756962 L50.5513492,20.05743 L50.984863,19.2652588 L51.9916394,18.3084657 C51.9916394,18.3084657 52.7897865,17.7855081 53.1083437,17.6443211 C53.4271348,17.503134 54.2369764,16.9510847 54.609796,17.0034959 C54.8895275,17.0429775 55.4129717,17.0807274 55.465246,17.1543802 C55.5064105,17.2127944 55.4933127,17.353866 55.4858282,17.4290195 C55.4562413,17.7299799 55.3307597,17.8311081 55.5321383,18.0522973 C55.6220687,18.1511166 55.8004093,18.2248848 55.9269434,18.3217417 C56.5440603,18.7943661 56.4881607,19.7171035 56.3796361,20.0731302 C56.329233,20.2389066 56.1199021,20.2813897 55.9702129,20.3700501 C55.6796799,20.5421654 55.6567317,20.6586543 55.6556127,20.8004279 L55.6550265,20.9127632 L55.6550265,20.9127632 L55.6506032,20.974857 C55.6239399,21.2114 55.3851389,21.8776227 55.1988461,22.1141657 C55.1721994,22.1479741 55.1138464,22.2103629 55.0333899,22.2924763 L54.8458506,22.4803787 C54.2823303,23.0375895 53.2721832,23.9879241 53.2721832,23.9879241 L53.2721832,23.9879241 L54.2271531,25.5118896 L53.3362688,26.0776766 L53.7869735,27.4760399 C53.7869735,27.4760399 54.9846035,27.7058873 55.22434,27.7585294 C55.4641935,27.811056 56.2899396,28.5735583 56.582769,28.7576902 C56.6926238,28.8266963 56.9294367,28.9592594 57.1825408,29.0980077 L57.4369765,29.2366928 C57.7725345,29.418689 58.0714742,29.5776831 58.0714742,29.5776831 L58.0714742,29.5776831 L59.3152974,29.272105 L59.4835807,29.3431026 C59.4835807,29.3431026 59.8159374,29.1605869 60.0022302,29.1870234 C60.1886399,29.213229 60.3156418,29.171554 60.528715,29.0927063 C60.741905,29.0137432 60.784122,29.1538912 60.6814447,29.267949 C60.5788842,29.381776 60.6814447,29.4830197 60.7585112,29.5084172 C60.8065754,29.5243484 60.8646969,29.5549408 60.9014175,29.5757206 C60.9648015,29.6215515 60.9652693,29.6065439 60.9041072,29.651105 C60.7892676,29.7345704 60.7024947,29.8029128 60.6822633,29.8278485 C60.5945548,29.9361342 60.5021685,30.0417647 60.4100161,30.1462408 C60.4070925,30.20073 60.4083789,30.2185082 60.4334051,30.2702268 L60.4334051,30.2702268 L60.4682546,30.3272557 C60.532925,30.4295384 60.6609793,30.5620672 60.8544058,30.4579374 C61.1473521,30.300242 61.3475613,29.8229999 61.6326723,30.1784494 C61.9177834,30.533899 62.3962039,31.145517 62.8224671,31.2243647 C63.2484964,31.3032124 63.6185093,31.2292133 63.6185093,31.4658718 C63.6185093,31.7025304 63.7112464,31.8796202 63.9776462,31.8534146 C64.2439292,31.827209 64.7441014,32.3619419 64.6258704,32.5633902 C64.5074055,32.764954 64.2509459,32.7620679 64.1976191,32.8934423 C64.1442924,33.0249321 64.1276862,33.2986479 64.2894206,33.4290987 C64.4131481,33.528957 64.4361862,33.6370118 64.571725,33.7401026 C64.6376818,33.7906667 64.4898638,33.9869201 64.5684506,34.0904727 C64.5982714,34.1297233 64.850638,34.0496058 64.8878264,34.1008625 C64.9122678,34.134572 64.9454801,34.0079308 64.9722604,34.0452189 C65.0772767,34.1918318 65.2340994,34.3301327 65.3501085,34.5211912 C65.5196782,34.8004483 65.6451598,35.1253054 65.7453814,35.1995353 C65.9583376,35.3572307 66.0149388,35.3696986 65.9882754,35.5800361 C65.961729,35.7902581 66.0331822,35.9168993 66.1929285,35.9694259 C66.3526749,36.022068 66.198308,36.0408853 66.3047276,36.2512228 C66.4111472,36.4617911 66.3046107,36.59305 66.0917714,36.6720132 C65.8785813,36.7507454 65.4830746,37.1453302 65.5095041,37.4869266 C65.5362844,37.8287539 65.5967448,38.037706 65.8024504,38.0918489 C66.187783,38.1930926 65.8334407,38.5919488 66.227778,38.5270697 C66.3875244,38.5008641 66.3806247,38.7812756 66.5217769,38.8115217 C66.662929,38.8416524 66.8261838,39.1571586 67.169884,38.9205001 C67.2772392,38.8467319 67.4787348,38.7354447 67.564923,38.6968866 C67.6716935,38.6494395 68.0310644,38.5158717 68.0220596,38.7840462 C68.0205393,38.8310316 67.7854806,38.8189101 67.7982276,38.9136889 C67.8406785,39.2291952 68.0370285,39.2730636 68.2501017,39.430759 C68.4630579,39.5885698 68.4887857,39.6168534 68.5687758,39.7745488 C68.6485321,39.9323596 68.6014034,40.1767528 68.8142426,39.9926209 C68.8908413,39.9265874 68.8526005,39.7668141 68.9603065,39.7090925 C69.1524465,39.6062326 69.5610511,39.6862347 69.6633776,39.8221114 C69.7025541,39.8740608 69.9151594,39.664416 69.985794,39.7250236 C70.0404071,39.7721245 69.9537512,39.9723029 69.9777248,40.0279466 C70.0316363,40.1529715 70.1320917,40.2380532 70.1668243,40.3530346 C70.1918505,40.4351147 70.2267,40.5589852 70.264707,40.5720303 C70.3482054,40.6010065 70.3949833,40.4146812 70.4361478,40.2726861 C70.4963743,40.0662737 70.847559,40.1826404 71.0339688,40.5243523 C71.2202616,40.8661795 71.5786969,41.2772727 71.9512825,40.8826879 C72.3243359,40.488334 72.3016487,40.0832438 72.1416684,39.6625689 L72.1416684,39.6625689 L71.9889387,39.4824775 C71.9889387,39.4824775 71.7953953,39.2263091 71.8181995,39.1457297 C71.9171347,38.7942052 71.8571421,38.7243621 71.6713171,38.4545714 C71.6713171,38.4545714 71.4452631,38.1443756 71.7915362,37.9867956 C72.1379262,37.8288693 72.6962199,37.9164907 72.9891662,37.8639641 C73.2821125,37.811322 73.8956041,37.2581182 73.851399,37.0186891 C73.8180698,36.838944 73.5776316,36.7244244 73.4788134,36.6340324 C73.4457181,36.6039017 73.4625581,36.4975785 73.4625581,36.4975785 C73.4625581,36.4975785 73.7380797,36.0954899 73.7111824,35.8061893 C73.684636,35.5170041 73.7029963,35.2397096 73.549448,35.1468932 C73.3962505,35.0540769 73.2565017,34.6998972 73.2565017,34.6998972 C73.2565017,34.6998972 73.1490295,34.5412783 72.8293029,34.5938049 C72.5099271,34.646447 72.1379262,34.4641623 71.9512825,34.4379566 C71.8729296,34.427105 71.5793986,34.3193965 71.4363753,34.3649966 C71.3888958,34.3801196 71.4323992,34.5869938 71.3897144,34.5957675 C71.2568653,34.6230121 71.2560467,34.5345826 71.1807343,34.5095314 C71.008124,34.4521562 71.1753549,34.0214376 71.1221451,33.8374212 C71.0984053,33.7549948 70.978654,33.7306363 70.9656731,33.5650907 C70.9557328,33.4362561 71.0152577,33.2992251 70.9564345,33.2073323 C70.9221697,33.1538821 70.6778724,33.1654264 70.6238439,33.1281383 C70.3574441,32.9441218 70.0117557,32.9203405 70.1351323,32.7494846 C70.1989841,32.6614015 70.4608231,32.8506129 70.5125127,32.7874654 C70.5640852,32.7245489 70.4187231,32.5443421 70.4318209,32.4524493 C70.4409425,32.3891864 70.638462,32.3011033 70.6505073,32.1589927 C70.6602137,32.0453966 70.6244287,31.8580323 70.6689846,31.7391259 C70.7266383,31.5862791 70.9087211,31.5201301 70.9776015,31.5201301 C71.0825008,31.5201301 71.2285647,31.6508118 71.2779153,31.5957454 C71.3163901,31.552916 71.2787339,31.3656672 71.2323069,31.1240446 C71.1590996,30.7444674 70.9350336,30.540941 70.7465189,30.4279222 C70.6606815,30.37655 70.5410471,30.3789743 70.5187107,30.3303727 C70.4699448,30.2232414 70.3731146,30.0760513 70.4693601,30.0594275 C70.5129804,30.0516928 70.6420873,30.0865567 70.7254688,30.0865567 C70.9916348,30.0865567 70.944857,29.955875 70.9777184,29.7929847 C71.0106968,29.6299789 70.7909578,29.4525427 70.7250011,29.3546469 C70.6589273,29.2568665 70.5892283,29.081162 70.8973775,29.1445403 C71.2056435,29.208034 71.460349,29.2694498 71.4107644,29.138999 C71.3612968,29.0086637 71.2988484,28.8637825 71.4805804,28.847505 C71.6621954,28.831112 71.8643927,29.0733118 72.0379385,29.0990557 C72.2616536,29.1323033 71.9722156,28.8400012 72.1216709,28.7556122 C72.2117183,28.7049326 72.4989343,28.9079972 72.5482849,28.8530462 C72.6803154,28.7064334 73.0893878,28.5939917 73.369821,28.5939917 C73.5737725,28.5939917 73.551553,28.5683633 73.6876765,28.6728394 C73.802867,28.7613843 73.8139767,28.723519 73.8661341,28.7087423 C73.9812076,28.6761873 74.0194485,28.6427088 74.0281024,28.6162723 L74.0281024,28.6162723 L74.0953456,28.6079604 C74.2292472,28.6742247 74.1976721,28.6298946 74.1310137,28.766233 C74.0756989,28.8792518 74.045761,29.0060085 74.0869255,29.1282628 C74.1335864,29.2663328 74.2763759,29.4150237 74.3426835,29.5633682 L74.3426835,29.5633682 L74.4108622,29.6240913 C74.4996232,29.6575698 74.6619423,29.7106737 74.7919848,29.7088266 C74.9812012,29.7061714 75.475994,29.7096347 75.5086215,29.8561321 C75.5211346,29.9108521 75.6581937,29.9939712 75.7132746,30.0095561 C75.7373652,30.0163672 76.115915,30.05227 76.1963729,30.0373779 L76.1963729,30.0373779 L76.2734394,30.049384 L76.2576519,30.206733 L76.5199587,30.2128515 L76.5444002,29.9900462 L76.7699864,30.0080553 L76.7578241,30.2428667 L77.0382574,30.2609913 L77.0139329,30.0261799 L77.2639605,30.044189 L77.2395191,30.2850035 L77.5018259,30.2970096 L77.5289571,30.2025771 L77.6023983,30.247369 L77.6425103,30.3022045 C77.7092857,30.4017166 77.8728913,30.6276389 77.9761534,30.6150556 C78.1083008,30.5986626 78.2734267,30.5498302 78.3559896,30.6801655 C78.4385525,30.8105009 78.2440736,30.897545 78.6897496,30.897545 C79.1356595,30.897545 78.988894,31.0531625 79.1412728,31.0075624 C79.2933009,30.9624241 79.3062817,30.8413242 79.4712906,30.8901567 C79.6364164,30.9391046 80.1059491,30.9083967 80.2213735,31.0061771 C80.3370318,31.103842 80.659682,31.6902934 80.8743924,31.5274031 C81.0085279,31.4256976 81.0975227,31.2961704 81.257503,31.3133714 C81.3535146,31.3237613 81.4680034,31.3425785 81.5366499,31.393489 C82.1935279,31.8826217 81.5402751,31.8430247 82.1695542,32.619611 C82.4338491,32.9456226 82.4630853,33.2225708 82.5091615,33.5035595 C82.5543021,33.7794687 82.3737396,34.1348028 82.2151627,34.3172031 C82.153182,34.3886624 82.0343662,34.3858918 81.9972948,34.427105 C81.8652643,34.5737178 81.6085708,34.6663033 81.7242291,34.861864 C81.768668,34.9371241 81.8320845,35.1580373 81.9008253,35.4088516 L81.9849961,35.7167734 C82.0699748,36.0242314 82.1547562,36.3080741 82.2157474,36.3682821 C82.3477779,36.4986175 82.8266662,36.6236425 82.8596446,37.1125444 C82.8758999,37.3569376 83.0696771,37.9007904 82.9731978,38.1660789 C82.8764846,38.4312519 82.5924261,38.5694374 82.320062,38.6101888 C82.1754015,38.6316612 81.9286483,38.5785574 81.7416538,38.6563661 C81.576528,38.7249393 81.417951,39.0208202 81.3063859,38.9525933 C81.1048903,38.8290691 80.8818768,38.853543 80.8325262,38.8779015 C80.7719489,38.898335 80.7494955,38.9097639 80.7029515,38.9554794 C80.5834341,39.0736932 80.2310799,39.3613776 80.0728538,39.4821312 C80.0107562,39.5294629 79.9776609,39.5647885 80.0160187,39.4746274 C80.0532071,39.3875832 79.9947348,39.3343639 79.9142769,39.3075811 C79.7965136,39.2680995 79.7002682,39.2941897 79.584493,39.3105826 C79.4047491,39.3360956 79.1020964,39.368766 79.0113473,39.3185482 C78.9650373,39.2928044 78.9124122,39.2699466 78.8585007,39.237738 C78.7028474,39.145268 78.6856565,39.2054139 78.5871891,39.3213188 C78.5101226,39.3972804 78.6898665,39.3467163 78.7027304,39.4986396 C78.7153604,39.6505628 78.6512748,39.7011269 78.5488313,39.6631461 C78.4461539,39.6252807 78.2767011,39.6151217 78.3855766,39.7888637 C78.4942181,39.9624903 78.695246,40.1982253 78.8934671,40.4262255 C79.0915714,40.6544567 79.2970431,40.7359596 79.4950304,40.8989654 C79.6931346,41.0618557 79.8618857,41.2160878 79.531634,41.2813132 C79.2013824,41.3464232 78.8511332,41.583428 78.7357088,41.6974859 C78.6201675,41.8116592 78.680394,41.5238594 78.4218294,41.5292852 C78.2804433,41.5321713 78.2174102,41.7810668 78.0819883,41.9115176 C77.9698384,42.0195724 77.7836625,42.0146083 77.679114,42.00722 C77.4477975,41.9909425 77.2498102,41.8768846 77.0350999,42.0723299 C76.8203895,42.2678907 76.6756121,42.6099488 76.4627728,42.3836802 C76.2498166,42.1574116 75.8758277,42.0939178 75.8758277,42.0939178 C75.8758277,42.0939178 75.8134962,41.7789888 75.5821797,41.7464338 C75.3510971,41.7138788 74.7731567,41.5182026 74.5585633,41.5508731 C74.3439699,41.583428 73.8266068,41.6866342 73.5130782,41.8169696 C73.1991988,41.9474204 73.1883229,41.7139943 73.0562924,41.8116592 C72.9737295,41.8727287 72.8828635,42.0723299 72.793167,42.1946997 C72.7392555,42.2681216 72.6331867,42.2333732 72.6765732,42.349509 C72.7921145,42.6591276 72.9406342,43.0828041 73.0726647,43.2620874 C73.0858794,43.2800388 73.1002297,43.2977847 73.1151746,43.3154477 L73.2076533,43.421409 C73.3137741,43.546155 73.3960283,43.6788373 73.2688978,43.8614684 C73.0872828,44.12237 72.8579543,44.6148506 72.6103825,44.8919143 C72.3629277,45.1689779 72.4104072,45.4099079 72.5425546,45.5729136 C72.6147095,45.6718484 72.5910867,45.6624975 72.715048,45.6388317 C72.8217015,45.6182828 72.9163097,45.5996964 72.9697534,45.5920772 C73.1326573,45.5692194 73.3535657,45.5692194 73.737495,45.7070586 C74.0311429,45.8124582 74.290877,46.0457689 74.5113176,46.139047 C74.592945,46.1735645 74.6014819,46.1438956 74.6082647,46.2320942 C74.6081478,46.2938563 74.6000786,46.3528478 74.5914247,46.4142636 C74.58242,46.5491012 74.7411138,46.8265112 74.6503648,46.9271776 C74.5183343,47.0737905 74.3576524,47.0919151 74.1926435,47.075753 C74.1308967,47.06975 73.9309214,46.89393 73.8252034,46.9093994 C73.648617,46.9350278 73.5344791,47.0629388 73.6893138,47.1953522 C73.9368856,47.4071904 74.3028053,47.576661 74.2182544,47.7894228 C74.1339373,48.0019537 73.8623918,48.317229 73.8295304,48.5941772 C73.796552,48.8713563 73.678204,49.3862329 73.7110655,49.5492387 C73.7441608,49.7122445 73.8613393,49.5405805 74.0138351,49.4428001 C74.166214,49.3450197 74.2534547,49.4563069 74.0745294,49.7288683 C73.8956041,50.0014297 74.2036363,50.3354068 74.2860823,50.4331872 C74.3686452,50.5309675 74.4760003,50.5961929 74.6577323,50.7101354 C74.8392304,50.8244241 74.9219103,51.1131475 74.9051872,51.3900957 C74.8888149,51.6670439 74.7667247,51.8490978 74.6017158,51.7514329 C74.43659,51.6536525 74.2650322,51.5484838 74.24866,51.4345414 C74.2320538,51.3205989 74.178844,51.0849794 74.0138351,51.2154302 C73.8487093,51.345881 73.7662633,51.4111064 73.6011375,51.4272684 C73.4358947,51.4436614 73.3810477,51.3767043 73.2984848,51.4907622 C73.2160388,51.6047046 73.1883229,51.8021125 72.8911666,51.7695575 C72.5940103,51.7370025 72.5425546,51.8400933 72.4929701,51.6772029 C72.4435025,51.5143126 72.1712554,51.5875036 71.9897573,51.6526135 C71.8081423,51.7179544 71.6859352,51.7371179 71.5702769,51.8673379 C71.4547356,51.9976732 71.3704185,52.1644886 71.3225882,52.3074073 C71.2748748,52.4504414 71.042038,52.4704131 71.1244839,52.6659738 C71.2070469,52.8615346 71.2896098,53.2057861 71.0585272,53.2382257 C70.8275615,53.2707807 70.4570809,53.2110965 70.6386959,53.4881602 C70.820194,53.7652238 71.2401422,54.2305753 71.5702769,54.1653499 C71.9005286,54.1002399 71.9336239,53.9860666 72.0986328,54.1653499 C72.2636417,54.3447486 72.2636417,54.5727489 72.1316112,54.491246 C71.9995807,54.4098586 71.8840394,54.3935811 71.9501131,54.5565869 C72.0160699,54.7195926 71.9832084,55.1759395 72.0986328,55.3388299 C72.2141741,55.5018357 72.2141741,55.8278472 71.9006455,55.8929572 C71.5867661,55.9580671 71.1741854,56.2352462 71.0090596,56.3493041 C70.8439338,56.4633619 70.6457126,56.5938127 70.3156948,56.4961478 C69.9854432,56.398252 69.6882868,56.3330266 69.5726286,56.6100902 C69.3982641,57.0279946 69.531698,57.1384737 69.7972792,57.3864457 C69.9105986,57.4184234 69.9786604,57.4026077 70.0966575,57.4712964 C70.186471,57.5237076 70.2572225,57.5298261 70.1581704,57.5967831 L70.1581704,57.5967831 L70.0378344,57.7063387 C69.8384438,57.8706144 69.9592476,57.8193576 69.8038281,57.9139056 C69.5892347,58.0442409 69.2975748,58.3756783 69.1489382,58.3267304 C69.0001846,58.2777825 68.9030036,58.3682899 68.8534191,58.5639661 C68.8038345,58.7595269 68.5583677,58.9878735 68.3800272,58.7596423 C68.2021544,58.5314112 68.0957347,58.5442254 67.8481629,58.6908382 C67.6003573,58.8375665 67.2630889,59.1776621 67.0629966,58.8845519 C66.8630213,58.5913262 66.7457258,58.8389518 66.5806,58.9042926 C66.4154742,58.969518 66.2047399,58.8265994 66.122177,58.7776515 C66.0396141,58.7287036 66.1549215,58.8373356 66.0062849,58.8862835 C65.8577652,58.935116 65.714625,58.8862835 65.5662222,58.7395552 C65.4174686,58.5930578 65.131422,58.4419427 64.8014043,58.4681483 C64.645751,58.4803853 64.4063653,58.3733694 64.1780894,58.2699323 C64.0586889,58.2157895 63.9329734,58.2084011 63.8438616,58.1208952 C63.7429384,58.0212677 63.7376758,57.7817231 63.6913658,57.6967569 C63.5368819,57.4139211 63.695108,57.4158837 63.9098184,57.4158837 C64.1242948,57.4158837 64.157624,57.4374715 64.1739963,57.2093558 C64.1863924,57.0383844 64.299244,56.9706193 64.2279078,56.8474414 C64.2040511,56.8065745 63.8792958,56.8816126 63.8421074,56.8451326 C63.7956804,56.7994171 63.9767107,56.3894783 63.9088828,56.2422882 C63.7596614,55.9184701 63.4702235,55.5692545 63.3907011,55.4348786 C63.2752767,55.2393179 63.443677,55.2102262 63.6418982,55.2102262 C63.8400024,55.2102262 64.0236055,55.0850858 63.8729808,54.916885 C63.749955,54.7792768 63.4766554,55.0443343 63.2845154,55.0279414 C63.1349432,55.0150117 62.9911013,54.8694379 62.9118128,54.748338 C62.7304317,54.4712743 62.3669677,54.060412 62.3339893,53.8650822 C62.301011,53.669406 62.3668508,53.4175089 62.1689805,53.3522835 C62.0698114,53.3197286 61.9045686,53.1721922 61.6664693,53.1140088 C61.4283701,53.0559409 61.1425574,53.1503734 60.8023654,53.2346469 C60.5546767,53.2958318 60.3423052,53.3724861 60.146306,53.3916497 C59.8600255,53.4197024 59.7389878,53.328964 59.6409882,53.2708961 C59.4758624,53.1731157 59.2999776,53.0880341 59.1843194,53.2019765 C59.1264318,53.2591209 58.9804849,53.472229 58.8905545,53.4788093 C58.8002732,53.4852741 58.7530276,53.3361215 58.8152421,53.2254115 C58.940139,53.0043378 58.5791309,52.4342793 58.412017,52.8940895 C58.3749455,52.9961413 58.291681,53.0853789 58.2244378,53.1334033 C57.9841166,53.3049518 57.7528001,53.2475766 57.4434815,53.1712686 C57.3784603,53.155222 57.3713267,52.9506567 57.3187016,52.9355336 C57.2664273,52.9204106 57.0913612,53.0821465 57.0499628,53.06483 C56.9431923,53.0201535 56.8184124,53.0508614 56.7649687,52.9513494 C56.7331598,52.8928197 56.798064,52.7434362 56.7775987,52.6496963 C56.6949189,52.2748523 56.6749213,52.2241727 56.5096786,52.2403348 C56.418007,52.2493778 56.4293116,52.1684892 56.4546608,52.0779962 L56.4861297,51.9699353 C56.495072,51.9358056 56.5005699,51.9052802 56.4969316,51.8834999 C56.4803255,51.7859504 56.2162645,51.4762163 56.3976456,51.3621585 C56.5794945,51.2482161 56.4913182,51.2245502 56.2602356,50.963764 C56.029153,50.7030933 55.9575829,50.6795429 55.8088293,50.7283754 C55.7439251,50.7496169 55.5507325,50.7492706 55.4785777,50.7117516 C55.3856067,50.6633809 55.3782392,50.5105341 55.3411677,50.4006322 C55.2753279,50.2050714 55.1760419,50.0746206 54.928587,50.0746206 C54.6808983,50.0746206 54.7138767,50.1235685 54.6147076,50.2213489 C54.5156555,50.3191293 54.466071,50.3317126 54.2017761,50.6574933 C54.0620273,50.8300808 53.838663,50.9437924 53.7080358,51.0936376 C53.5924945,51.2265127 53.4424546,51.2751143 53.4811632,51.3440339 C53.5637262,51.4906467 53.8718753,51.6392221 53.7398448,51.7370025 C53.6901433,51.773598 53.5349578,51.6694682 53.4304093,51.6987908 C53.2567465,51.7476233 53.1107996,51.9194027 52.9966616,51.9164012 C52.8145788,51.9113217 52.7668654,51.8234694 52.5344964,52.1282395 C52.463511,52.2212867 52.5004655,52.3127177 52.4925133,52.4173092 C52.4883033,52.4706439 52.4731005,52.5108182 52.4729835,52.5669236 C52.452986,52.6569692 52.4738021,52.6515434 52.3907714,52.6962199 C52.2516073,52.6894088 51.8812436,52.6526978 51.7820746,52.7628306 C51.6829055,52.8730789 51.7302681,52.8774657 51.6310991,52.8895873 C51.5037464,52.9052875 51.3214297,52.7780691 51.4925197,52.9668188 C51.5660778,53.0478599 51.6716789,53.1754246 51.7131942,53.2773609 C51.779034,53.4402513 51.8121294,53.4078117 51.9440429,53.4564133 C52.0761904,53.5053612 52.1422641,53.5379162 52.0761904,53.6682515 C52.0103505,53.7988178 51.8782031,53.9781011 52.0597012,53.9615927 C52.2411992,53.9454306 52.3075069,53.8965982 52.2907838,54.0594885 C52.2744115,54.2224943 52.2744115,54.2877197 52.406442,54.2714422 C52.5091324,54.2586921 52.5220483,54.2064847 52.5382341,54.2990629 L52.5550787,54.4181705 C52.5879401,54.6625637 52.6210354,54.9232344 52.8026505,54.9884598 C52.9843824,55.0536852 52.9676593,55.1514656 53.0833176,55.1678585 C53.1989758,55.1840206 53.3473786,55.1678585 53.3311233,55.2655235 C53.3145171,55.3633038 53.3145171,55.3633038 53.4135692,55.4937546 C53.5126214,55.62409 53.5291105,55.6893154 53.4630368,55.8033733 C53.4410123,55.8413925 53.4190137,55.8631215 53.3994709,55.875196 L53.38,55.883 C53.2925937,55.8341946 53.1796127,55.9796069 53.1631761,56.1030206 L53.1617874,56.1478557 C53.1752361,56.3053202 53.002158,56.2922751 52.8559772,56.2267034 C52.7096795,56.1609008 52.590162,56.1478557 52.4836255,56.3053202 C52.3880817,56.4468536 52.2372231,56.5885024 52.1025029,56.692863 L52.1025029,56.692863 L52.1055435,56.7735578 C52.1322068,56.9696958 52.3434089,57.4278898 52.3099627,57.5032742 C52.2199153,57.7073777 51.8898975,57.4684103 51.7279292,57.4411657 C51.7047742,57.4372407 51.7141298,57.816587 51.6990439,57.8231672 C51.5364908,57.9143673 51.2987424,57.6822111 51.2631912,57.7020673 C50.9355124,57.8852757 50.9641638,57.7482446 50.8173983,57.9954085 C50.6707497,58.2424569 50.3783881,58.7059613 50.3221377,58.2234087 C50.2755548,57.8215703 50.3065289,57.8179306 50.2609611,57.7712937 L50.2232026,57.7346223 C50.1489427,57.6613159 49.9648718,57.6450384 49.9902488,57.5442565 C49.9987858,57.510778 50.1191218,57.4394341 50.1480072,57.3743241 C50.2634315,57.113538 50.5203589,56.8055355 50.5533373,56.5938127 C50.5616403,56.5408243 50.5719315,56.4910683 50.5828073,56.4458146 C50.6190602,56.3264463 50.7051314,56.240672 50.6198788,56.1357342 C50.5362634,56.0329897 50.4490227,55.8360437 50.3693834,55.7276425 C50.304713,55.6397903 50.2199281,55.5223845 50.1305824,55.3996684 C50.0566734,55.2981939 50.0816995,55.297963 50.0029958,55.3929727 C50.0029958,55.3929727 49.9917691,55.4982569 49.9248768,55.6367887 C49.8847648,55.7199078 49.7146103,55.6632252 49.683503,55.7548871 C49.6010571,55.9992803 49.6302932,56.0683154 49.4194421,56.072125 C49.2085909,56.0758192 48.9501432,56.257065 48.8802103,55.9039243 C48.8392797,55.696242 48.7299365,55.4718204 48.66971,55.3362901 C48.5760373,55.1247982 48.4362885,55.1014787 48.4362885,55.1014787 L48.4362885,55.1014787 L48.3172388,54.9729904 C48.1938622,54.9605226 48.0604284,54.9746066 47.9405602,55.0042755 C47.7871288,55.0422563 47.8031502,55.0883182 47.7390645,55.2301978 L47.7390645,55.2301978 L47.6016546,55.3913565 C47.6016546,55.3913565 47.2605271,55.4348786 47.0459337,55.3859307 C46.8312233,55.3370982 46.6918253,55.3188582 46.6259855,55.4332624 C46.5597948,55.5470894 46.314328,55.5726023 46.3598195,55.289882 C46.3836762,55.1422301 46.3716309,55.0131647 46.3601703,54.86609 C46.3513995,54.7182073 46.3703445,54.5924897 46.2736313,54.4671184 C46.1270996,54.2774452 46.0340117,54.2177611 45.8083086,54.2177611 C45.6885572,54.2177611 45.7416501,54.2046006 45.6222496,54.1652345 C45.5323192,54.135681 45.4875294,54.0913508 45.448236,54.1319868 C45.3973651,54.1847444 45.4405177,54.2222634 45.3655562,54.1798957 C45.3162055,54.1481489 45.2854491,54.1120151 45.2486115,54.0688394 C45.0906193,53.9191096 44.8067947,53.6463173 44.7584965,53.5623901 C44.6924228,53.4482168 44.16395,52.7474767 43.9989411,52.6335343 C43.8339322,52.5192455 43.7843477,52.3074073 43.8669106,52.1442861 C43.910531,52.0578191 43.9067887,51.8206988 44.0354278,51.6045892 C44.1488641,51.4141079 44.3330519,51.2556044 44.3641592,51.1792965 C44.429999,51.0164061 44.6081057,51.0144436 44.806093,51.1610564 C45.0041972,51.3077847 45.2628788,51.3350293 45.4610999,51.3186364 C45.5725482,51.3095164 45.7431704,51.3403397 45.8709909,51.3689696 C45.9703938,51.391481 46.0440689,51.4124917 46.0440689,51.4124917 C46.1703692,51.4217272 46.1737606,51.4388128 46.2820513,51.4974579 C46.4240221,51.5744585 46.6216585,51.6478804 46.7704121,51.6663513 C46.9688671,51.6908252 47.2914005,51.7275362 47.4277579,51.8256629 C47.5642323,51.9234432 47.7628043,51.9356802 47.8867656,51.9112063 C48.0108439,51.8867323 48.3705656,52.0214545 48.4696177,52.1071134 L48.4696177,52.1071134 C48.5462164,52.1794962 48.6916956,52.3401931 48.8170602,52.4423604 L48.8170602,52.4423604 L48.9068737,52.4134996 C49.0273267,52.3595876 49.0738706,52.263308 49.1516388,52.1614871 C49.2194667,52.1254688 49.2451945,52.0698252 49.3125547,52.0364621 C49.4275112,51.9796641 49.5260956,52.0047152 49.6432741,51.9905157 C49.7753046,51.9744691 49.8247722,51.9725066 49.9404304,52.053894 C50.0560887,52.1353969 50.1550238,52.1517899 50.1550238,51.9235587 C50.1550238,51.8095008 50.4107818,51.6575776 50.4583782,51.555064 C50.5059747,51.4523196 50.3452928,51.3988694 50.3783881,51.3337595 C50.3968653,51.297164 50.4864449,51.2973949 50.5338075,51.2543345 C50.6546113,51.1440863 50.5574303,50.8542085 50.6642008,50.8893032 C50.8127205,50.9382511 51.0477792,50.9515271 51.0643853,50.7070184 C51.0807576,50.4626252 51.1331488,50.4387284 51.3311361,50.422451 C51.5292403,50.4062889 51.5329825,50.2092274 51.3182722,50.078892 C51.1036787,49.9485567 50.9164504,49.5042159 50.7184631,49.40632 C50.5203589,49.3086551 50.3552331,49.2761001 50.1405227,49.3249326 C49.9259293,49.3737651 49.7129731,49.230731 49.5975487,49.1003956 C49.4820074,48.9700602 49.3994445,48.9573615 49.449029,48.8270261 C49.4983797,48.6965753 49.294896,48.1931276 49.294896,47.9812894 C49.294896,47.7693357 49.1518727,47.5519562 49.2837863,47.258615 C49.4158168,46.9652739 49.9456929,47.3376936 49.934934,47.0989571 C49.9240582,46.8602206 49.907452,46.7407369 50.0890671,46.5125057 C50.270799,46.2842745 50.5184878,45.9620726 50.7330812,45.9620726 C50.9476746,45.9620726 50.9880205,45.8625606 50.9880205,45.6669998 C50.9880205,45.4713236 51.0082519,45.427917 51.1733777,45.2811887 C51.3383866,45.1345759 51.5454956,45.1035216 51.4465604,44.9406313 C51.3475083,44.7776255 51.0192447,44.5114135 50.870725,44.4788586 C50.7220884,44.4463036 50.744074,44.3809627 50.7771693,44.2832978 C50.8100308,44.1855174 50.85599,44.0985887 50.7239595,43.9845308 C50.591929,43.8703575 50.5038697,43.522989 50.7680476,43.522989 C51.0321086,43.522989 51.2505612,43.6077243 51.3659856,43.3307761 C51.4381404,43.1577268 51.5039802,42.743632 51.5978868,42.6348846 C51.654371,42.5697746 51.5844382,42.4356296 51.6836072,42.4601036 C51.7246548,42.4701471 51.9150406,42.583166 51.9689521,42.5945949 C52.2609629,42.6567033 52.69588,42.716272 52.8042877,42.5360652 C52.8716478,42.4232772 53.044492,42.4227 53.0794584,42.3052943 C53.1248329,42.1542946 52.959941,41.9119793 52.8391372,41.8569129 C52.6246607,41.7591326 52.319786,41.2900869 52.3365091,41.0945261 C52.3528814,40.8989654 52.4904083,40.7358442 52.4904083,40.7358442 C52.5178903,40.6047007 52.55426,40.6471838 52.6487513,40.5541366 C52.7412545,40.4627056 53.1905558,40.3452999 53.4680654,40.4365 C53.502798,40.4480443 53.538817,40.4576261 53.5758884,40.4660534 C53.6057093,40.4132959 53.5866473,40.341952 53.5808001,40.2822679 C53.5709767,40.2004187 53.5526164,40.0955963 53.5185855,40.0119 C53.4528626,39.8486633 53.4590607,39.6929304 53.4920391,39.4810922 C53.5251344,39.2692539 53.7549306,39.2932661 53.6060601,39.1792083 C53.4576574,39.065035 53.0454275,39.0799271 53.2600209,38.8679734 C53.4746143,38.6561352 53.6936517,38.1155148 53.6936517,38.1155148 C53.7579712,37.9797536 53.6860503,38.0799583 53.5921437,38.0245455 C53.5210414,37.9822933 53.0654251,37.75741 52.8235835,37.5467262 C52.6094579,37.36017 52.7119014,37.4655696 52.6503885,37.1306689 C52.6227896,36.9812855 52.6157729,37.054361 52.5074822,36.9728581 L52.5074822,36.9728581 L52.4335732,36.8989745 C52.4045709,36.8681511 52.3776736,36.8315556 52.33686,36.7864174 C52.2271659,36.6660101 52.2741776,36.6306845 52.2392112,36.4837253 C52.2042447,36.3366507 52.0075439,36.1938475 51.9287232,36.0137561 C51.8591411,35.8546754 51.7789171,35.74385 51.6550727,35.74385 C51.3910117,35.74385 51.493923,35.7785984 51.3286802,35.6154771 C51.1635544,35.4524714 51.1398146,35.3780105 51.1920889,35.1039484 C51.2241317,34.9356322 51.3489116,35.0967909 51.3928828,35.0461113 C51.4603599,34.9683026 51.5452617,34.7637373 51.5452617,34.7637373 L51.5452617,34.7637373 L51.5743809,34.6584531 C51.5417534,34.6255518 51.5083072,34.5943822 51.4752119,34.566214 C51.2989763,34.4153298 50.6760122,33.9626771 50.5113541,33.8697453 C50.4189679,33.8176804 50.315238,33.7728885 50.2025034,33.7105491 C50.1593508,33.6866524 50.0441603,33.6542129 50.1215777,33.6308933 C50.1406396,33.6177328 50.1692911,33.5915272 50.1846108,33.5753652 L50.1846108,33.5753652 L50.2317395,33.5124486 C50.2766463,33.4348708 50.2867035,33.3456332 50.2547776,33.2824858 C50.2060117,33.1863216 50.2304531,33.077805 50.1329213,32.9333856 C50.0356234,32.7888507 50.2304531,32.7647231 50.4251659,32.7647231 C50.6201127,32.7647231 50.5591845,32.8491121 50.7783388,32.8249845 C50.997493,32.8009723 50.9852138,32.7888507 50.8757536,32.6323098 C50.7660596,32.4757688 50.7295728,32.427629 50.5955543,32.3914953 C50.4616527,32.3553616 50.2912643,32.2229483 50.120876,32.1748084 C49.9503707,32.1266686 49.7191712,31.9218724 49.6215224,31.7894591 C49.5242245,31.6570458 49.4999,31.6329181 49.2807457,31.5847783 C49.0615915,31.5365231 48.7937882,31.3319578 48.5865623,31.2115505 C48.3798042,31.0910278 48.3554797,31.127277 48.2580648,31.0188758 C48.16065,30.9105901 48.0751634,30.8503288 47.9290996,30.8383227 C47.7831527,30.8262012 47.8316847,30.6335265 47.8440808,30.5011131 C47.8560092,30.3684689 47.6249266,30.2362865 47.4177007,30.0917516 C47.2109426,29.9472167 47.235267,29.7184084 47.1742219,29.5619828 C47.1135277,29.4054419 46.8457244,29.2851501 46.7602379,29.417448 C46.6751022,29.5498613 46.5533628,29.5741044 46.5533628,29.6943962 C46.5533628,29.8148034 46.5290384,29.8027973 46.4193443,29.8629432 C46.3098841,29.9232046 46.248956,29.7905603 46.1758656,29.6823901 C46.1027752,29.5741044 45.8349719,29.6462564 45.6401422,29.5741044 C45.4454293,29.5017215 45.4454293,29.4415756 45.4454293,29.3693082 C45.4454293,29.2970407 45.2505996,29.1284937 45.068049,28.9960803 C45.0204782,28.9616189 44.9589029,28.9328578 44.8906148,28.9091641 C44.8869313,29.0882148 44.8847496,29.2886503 44.8842946,29.2955611 C44.8837075,29.3087406 44.8443701,29.2766012 44.8316882,29.2713988 C44.6381716,29.1894316 44.455458,28.927923 44.2835477,28.8149725 C44.1185609,28.8338303 43.9937419,29.028243 43.9356741,29.2007611 C43.8747459,29.3814297 43.7528896,29.2126518 43.5580598,29.1888705 C43.443688,29.174671 43.325223,29.1424623 43.2183356,29.1106 L43.2183356,29.1106 L43.1130855,29.0888967 L43.1130855,29.0888967 L43.0230381,29.0763134 L43,28.647211 C43.000876,28.2566132 43.001748,27.8869219 43.002616,27.5381371 L42.9632195,27.5850031 C42.8409799,27.7416539 42.8409799,27.657259 42.7187403,27.5608407 C42.5963834,27.4643068 42.5842886,27.3678885 42.4619316,27.211122 C42.339692,27.0544711 42.156274,27.0906569 41.924007,27.0664945 C41.6917401,27.0423321 41.6673157,27.0906569 41.5817128,27.1508894 C41.4961099,27.211122 41.3493285,27.1990986 41.2270889,27.1508894 C41.1048493,27.1026803 41.0437883,27.0785179 40.848158,27.0664945 C40.6525277,27.0544711 40.6158911,26.8977046 40.5425004,26.9579372 C40.4692271,27.0182853 40.432473,26.994123 40.2613846,26.8977046 C40.0901788,26.8011707 40.0901788,26.8373565 40.102391,26.692729 C40.1146032,26.5479859 39.9189729,26.47573 39.7721915,26.5601249 C39.6255275,26.6445199 39.6622816,26.5118002 39.6255275,26.3189635 C39.5888909,26.1260113 39.4666513,26.1018489 39.3198699,26.0898255 C39.1732059,26.0778021 38.9653634,25.92092 38.7086721,25.8486641 C38.4519807,25.7762926 38.3541656,26.0776865 38.3541656,26.0776865 C38.2880553,26.1128318 38.3216388,26.1136411 38.3671998,26.171099 C38.491553,26.3279811 38.5745726,26.4312203 38.7220585,26.4948056 C38.8905636,26.5674083 38.9115827,26.5154997 38.9643066,26.67111 C39.0169131,26.8267204 39.0696369,27.0031405 39.1855355,27.0135454 C39.3014341,27.0238346 39.3224532,27.0342395 39.3014341,27.148346 C39.2842901,27.2409492 39.2811196,27.3269627 39.3256237,27.3948255 C39.3942,27.4995677 39.1909371,27.4056928 39.1393875,27.3865016 C39.0557808,27.3513563 39.0050531,27.2834935 38.6841302,27.211122 C38.2563505,27.1148193 38.2929871,27.0424477 37.8773021,26.9217514 C37.4616172,26.8011707 37.4127683,26.7289148 37.0948985,26.6323809 C36.7770287,26.5359625 36.6670013,26.5359625 36.5813984,26.4033585 C36.4959129,26.2706388 36.3735559,26.234453 36.1657134,26.0898255 C35.9579884,25.9450824 35.9456587,25.8606875 35.9334465,25.7401068 C35.9212343,25.6195261 35.7745703,25.5109688 35.6401185,25.5471546 C35.5055493,25.5833403 35.4200638,25.5471546 35.3343435,25.3663413 C35.248858,25.1855281 35.1388306,25.0889941 34.9186585,24.8840185 C34.6986038,24.6790429 34.4663369,24.5584622 34.2707066,24.5463232 C34.0751938,24.5342998 33.6961455,24.1363719 33.488303,23.967582 C33.2804605,23.7986766 33.4393367,23.7504674 33.5249396,23.6178633 C33.61066,23.4852592 33.2682483,23.4490735 32.9625907,23.4370501 C32.6570505,23.4250267 32.6325086,23.2682602 32.326851,23.0994704 C32.0213108,22.9306805 32.0579474,22.9065181 31.850105,22.8823557 C31.6422625,22.858309 31.5200229,23.1476795 31.3611467,23.3646785 C31.2021531,23.5816776 31.1287624,23.5937009 31.0309472,23.822839 C30.9332495,24.051977 30.8964955,23.9796054 30.7986803,23.8952105 C30.7009826,23.8108156 30.6520163,23.8348623 30.4563861,23.8831871 C30.2607558,23.9313963 30.1629407,23.7264206 29.9917348,23.5334684 C29.8206464,23.3406318 29.6984068,23.4370501 29.5394132,23.4490735 C29.380537,23.4610969 29.404844,23.5334684 29.3927492,23.7626064 C29.3875825,23.8584467 29.3568171,23.9460787 29.3226464,24.0153288 L29.3226464,24.0153288 L29.2853052,24.0808794 C29.2388049,24.1479329 29.1995849,24.1508231 29.2570058,24.2075874 L29.2570058,24.2075874 L29.3315707,24.281115 C29.3232335,24.3307115 29.3205328,24.3919845 29.2800211,24.4526795 C29.2584149,24.4851657 29.2292934,24.5122184 29.197119,24.5342998 C29.0748794,24.6186947 28.8058584,24.8960419 28.6958311,25.040785 C28.5858037,25.1855281 28.6102281,25.1372033 28.4147153,24.95639 C28.219085,24.7754612 27.9012152,24.7514144 27.4855302,24.5463232 C27.0698453,24.3414631 26.7519754,24.2087434 26.580887,24.2087434 C26.4097986,24.2087434 26.4341056,24.2087434 26.4218934,24.051977 C26.4096812,23.8952105 26.3608323,23.9313963 26.1774143,23.8348623 C25.9939962,23.738444 25.7984834,23.6298867 25.3460443,23.4731202 C24.8937227,23.3164694 24.8815105,23.1356561 24.6491262,23.075308 C24.4169767,23.0149598 24.3924348,23.0632846 24.1357435,23.0029364 C23.8789347,22.9427039 23.6833045,22.9667507 23.328798,22.9547273 C23.1294101,22.9480219 23.0189131,22.9563458 22.9321359,22.9716063 C22.8300934,22.9891789 22.853461,22.982936 22.8642642,23.0725334 C22.8803514,23.2053687 22.9079463,23.3206313 22.9353064,23.4078009 C22.9613747,23.4904617 22.903719,23.4664149 22.8590975,23.5136992 C22.8468852,23.5622552 22.8304457,23.606418 22.8154153,23.6540491 C22.7542368,23.8470013 22.8154153,23.8590247 22.7908734,24.051977 C22.766449,24.2449292 22.7298124,24.4257425 22.7174827,24.6066713 C22.7052705,24.7876002 22.7542368,24.95639 22.9009008,25.0045992 C23.0476822,25.0528084 23.03547,25.1131565 23.0476822,25.3663413 C23.0598944,25.6195261 23.0598944,25.6677353 23.1577096,25.7641536 C23.2555247,25.8606875 23.2677369,25.8486641 23.2187706,25.9932916 C23.1698044,26.1380347 23.1943462,26.1621971 23.3165858,26.2948011 C23.4388253,26.4275208 23.4388253,26.5721483 23.475462,26.7530772 C23.512216,26.9338904 23.3165858,27.006262 23.0843189,27.1147037 C22.8520519,27.2231454 22.5952432,27.0424477 22.4485792,26.9700762 C22.3019152,26.8977046 22.1918878,26.8494955 22.2407367,26.9820996 C22.2895856,27.1147037 22.2651611,27.1388661 22.167346,27.1268427 C22.0695309,27.1147037 22.0328942,27.1990986 22.1551338,27.3799118 C22.2774908,27.5608407 21.9106547,27.5488173 21.7150244,27.5608407 C21.5195115,27.5728641 21.5561482,27.6934448 21.6661755,27.7779553 C21.7762029,27.8623503 21.7884151,27.8381879 21.7517785,28.0069777 C21.7150244,28.1758832 21.6906,28.2482547 21.5561482,28.3808588 C21.421579,28.5134629 21.4827575,28.6220202 21.543936,28.7547399 L21.593427,28.8643088 C21.6455748,28.9829458 21.7028415,29.125384 21.7395662,29.2609939 C21.7884151,29.4419228 21.3238813,29.2249237 20.798169,29.1405288 C20.2723392,29.0560183 20.2846689,29.1405288 20.1502171,29.2609939 C20.0156479,29.3816902 19.9912234,29.5866658 19.9790112,29.7554557 C19.966799,29.9242456 19.783381,29.9966171 19.6733536,29.9001988 C19.5633263,29.8036649 19.5021478,29.8278272 19.4899356,29.948408 C19.4777233,30.0689887 19.367696,29.948408 19.2087024,29.8880598 C19.0498262,29.8278272 18.9153744,29.851874 18.7563808,29.8760364 C18.5975046,29.9001988 18.4629354,29.7434323 18.3774499,29.6107126 C18.2918469,29.4781085 18.2429981,29.4177604 18.0473678,29.4177604 C17.8517375,29.4177604 17.9127986,29.4058526 17.8517375,29.176599 C17.7906765,28.9475766 17.7661346,29.0441105 17.6438951,29.0441105 C17.5216555,29.0441105 17.5338677,28.9475766 17.2527519,28.8269959 C16.9715188,28.7064152 16.9593065,28.8993674 16.690403,29.104343 C16.421382,29.3092031 16.4091698,29.3453888 15.9934848,29.4298994 C15.7856423,29.4720968 15.6847742,29.4811144 15.586959,29.4826029 L15.429536,29.4823951 C15.3691648,29.4825812 15.2965667,29.4840913 15.1987515,29.4901319 C14.8076084,29.5141787 14.990909,29.4781085 14.8076084,29.3816902 C14.6241904,29.2851563 14.5752241,29.1525522 14.4651967,29.0078091 C14.3551694,28.8631816 14.1717513,28.7666477 14.0496292,28.8390193 C13.9272722,28.9113908 13.9272722,28.9113908 13.7806082,28.8390193 C13.6339442,28.7666477 13.5727657,28.7787867 13.2793203,28.7908101 C12.9859923,28.8029491 12.9859923,28.9113908 12.8515406,29.0441105 C12.7170888,29.176599 12.3624649,29.104343 12.0079584,29.1283898 C11.7419905,29.1464249 11.5448337,29.2391437 11.4629884,29.284347 C11.4203631,29.3078157 11.4398556,29.3192611 11.4022796,29.2859656 C11.285559,29.1710497 11.2136948,28.9941672 11.1777627,28.8349729 C11.1418306,28.6757787 10.9171964,28.3397019 10.7825097,28.0920663 C10.6850469,27.9129872 10.4606475,27.238059 10.3439269,26.8788603 C10.2988356,26.7403601 10.3197373,26.7647537 10.1768309,26.7844073 L10.1768309,26.7844073 L10.1308003,26.7941185 C9.93881017,26.8209399 9.56962555,26.8773574 9.19597878,26.9459138 C8.67026646,27.0423321 8.3279722,27.1990986 8.07128086,27.1990986 C7.8144721,27.1990986 7.69223254,27.1268427 7.50881448,27.0544711 C7.32539643,26.9822152 7.300972,26.8494955 7.22758129,26.7047524 C7.15430801,26.5601249 7.34982085,26.4997768 7.68002032,26.4997768 C8.01010237,26.4997768 7.85110874,26.4033585 7.85110874,26.4033585 L7.85110874,26.4033585 L7.06882251,25.92092 L7.06882251,25.92092 L7.00885456,25.9247656 C6.79998983,25.9380603 6.10764361,25.9812682 5.93167753,25.9812682 C5.72395247,25.9812682 5.28384308,26.0776865 5.05145874,26.1138723 C4.81919183,26.1500581 4.84361626,26.246592 4.75813076,26.1742204 C4.67252784,26.1018489 4.64810341,26.0898255 4.45247314,26.0656631 C4.25672545,26.0416164 4.26905509,25.9691292 4.29347951,25.8727109 C4.31790394,25.776177 4.29347951,25.5351312 4.31790394,25.3180165 C4.3424458,25.1010175 4.17123995,25.0166226 4.04900039,24.9080653 C3.92676083,24.799508 3.95130268,24.6308337 4.00003411,24.5342998 C4.04888296,24.4378815 3.9023364,24.3293242 3.79230905,24.4257425 C3.6822817,24.5221608 3.5477125,24.5584622 3.37650666,24.5946479 C3.20553567,24.6308337 3.08940221,24.5181145 3.08940221,24.5181145 C3.08940221,24.5181145 2.19767576,24.7408939 1.93135556,24.8325723 C1.66515278,24.9243662 1.21259632,25.0029807 1.05278072,25.0160445 C0.89308254,25.0291084 0.786577945,25.0029807 0.760039865,25.1602096 C0.744774598,25.2505006 0.659171676,25.4099261 0.498416671,25.5195239 C0.403419739,25.584034 0.423969137,25.5891208 0.390737825,25.4906215 L0.390737825,25.4906215 L0.332377534,25.3180165 L0.148959478,25.3059931 L0.0756861951,25.1372033 L0.0145077013,24.5704856 C0.0145077013,24.5704856 0.0756861951,24.4257425 0.0268373401,24.2931384 C-0.02212894,24.1605343 -0.00991672621,24.1725577 0.112322836,24.0881627 C0.234562399,24.0037678 0.931480558,23.2682602 0.931480558,23.2682602 L0.931480558,23.2682602 L1.4816173,22.2552898 C1.4816173,22.2552898 1.68945979,21.0495984 1.72609643,20.9289021 C1.76285049,20.8083214 2.00732962,19.2047022 2.00732962,19.2047022 L2.00732962,19.2047022 L2.22738432,18.3726606 L2.77752106,17.2874343 L2.76530885,15.5872811 L5.51610999,14.996401 L6.84865039,14.8637969 L7.10534173,14.007593 L6.9954318,13.4892 L8.63362982,10.9328429 L10.2840401,9.35327042 L11.298828,9.1361558 L11.7879037,8.25590512 L13.100247,7.50132196 C13.100247,7.50132196 13.2210775,7.7697672 13.343317,8.07173919 C13.4445375,8.32203375 13.5376556,8.59521898 13.6449822,8.75753471 C13.7174335,8.86713251 13.8914575,8.76042494 13.9028478,8.7745293 C13.9516966,8.83464624 14.0128751,8.85892423 14.0372996,8.67811098 C14.0618414,8.49706652 14.1352321,8.1473478 14.2696839,8.05092948 C14.2979833,8.03058221 14.3508247,7.98613036 14.4184028,7.92760306 L14.5703031,7.79475276 L14.5703031,7.79475276 L14.6555429,7.7198239 C14.7625172,7.62583338 14.8696089,7.53207408 14.9783446,7.44074258 L14.9783446,7.44074258 L15.0382314,7.3764637 C15.5260154,7.22559331 16.0283601,7.14027351 16.172793,7.09576385 C16.3322563,7.04674543 16.850336,6.71321204 17.149183,6.4484663 C17.25193,6.35748163 17.3628967,6.2559765 17.4647043,6.15955818 C17.4797347,6.09666661 17.4803218,6.02637604 17.4590679,5.96464057 C17.4468557,5.88163296 17.4365223,5.79492584 17.4398102,5.76047421 C17.4449769,5.70729384 17.4570717,5.66960515 17.4728066,5.62578915 C17.498875,5.55260834 17.5009887,5.48382069 17.4607119,5.42879057 C17.3018356,5.21179156 17.1293381,4.82149391 17.1293381,4.82149391 L17.1293381,4.82149391 L17.5572353,4.31570237 L16.9200865,3.74956269 C16.9200865,3.74956269 16.8101766,3.6290976 16.8468133,3.48435451 C16.8730662,3.38096659 16.9054899,3.24684778 16.9218746,3.17864829 L16.9324162,3.13463579 L16.5352844,3.01821703 L16.6905204,2.66977002 C16.6905204,2.66977002 16.6536489,2.37161314 16.7636763,2.22687005 C16.8737036,2.08212697 17.2159979,1.86512795 17.3872037,1.74454725 C17.5582921,1.62396655 18.1085463,1.2141309 18.1085463,1.2141309 L18.1085463,1.2141309 L18.4262987,0.997131877 L19.0711975,0.383476688 L20.5041364,0.500011057 L21.8588702,0 Z" id="甘肃"></path>
            </g>
        </g>
    </g>
</svg>