<?xml version="1.0" encoding="UTF-8"?>
<svg width="120px" height="120px" viewBox="0 0 120 120" version="1.1" xmlns="http://www.w3.org/2000/svg" xmlns:xlink="http://www.w3.org/1999/xlink">
    <title>jdo_cn_ximalaya_radio_province_tianjin</title>
    <g id="jdo_cn_ximalaya_radio_province_tianjin" stroke="none" stroke-width="1" fill="none" fill-rule="evenodd">
        <g id="编组">
            <rect id="矩形" x="0" y="0" width="120" height="120"></rect>
            <g id="天津-" transform="translate(34.000000, 18.000000)" fill="#FFFFFF" fill-opacity="0.189284" fill-rule="nonzero">
                <polygon id="天津" points="27.2369717 0 32.8229991 0.944898614 33.2431021 3.46510677 36.1831057 6.08990489 36.0782081 7.87511215 36.813209 7.35000897 37.1280043 8.29490759 38.2832108 7.66521444 40.9079064 9.45001154 39.8581102 10.0801148 39.6482125 11.4451165 41.1182143 11.2348086 41.7479074 11.8649119 41.1182143 14.0699146 37.8630052 13.0201184 35.3432072 13.9649145 33.8732054 12.5999128 31.6682027 12.5999128 32.1928957 13.5452216 30.7228939 15.3300187 31.1430995 16.3798149 30.5129962 16.4852252 31.1430995 18.9000231 32.1928957 20.0552296 31.6682027 20.6849227 31.8781004 21.3149235 32.9278966 22.3651298 31.8781004 24.3598247 34.0831031 25.0948256 33.3481022 26.0401343 34.2930008 27.0899305 35.973208 27.2998282 36.813209 28.9801379 36.7082089 30.2398318 34.9230016 32.0250391 35.0278992 32.6551424 35.5531049 32.1300392 36.1831057 33.4950409 37.1280043 32.76004 38.1782107 33.4950409 37.4432098 34.0201441 38.2832108 34.5449396 38.5980061 35.8050437 39.7532126 34.8601451 39.4379046 33.600041 40.5931111 32.3399369 44.4780133 32.4448345 46.7879136 33.3901433 45.8430149 35.4901459 46.1582204 36.4350445 45.6331172 36.7498398 45.6331172 38.5351496 44.4780133 39.4799457 44.5829109 41.6849483 43.6380123 41.7899485 44.3730132 43.2599503 42.4829083 43.3648479 41.9581127 44.0998488 43.2179092 44.6249519 43.84791 43.6800533 44.2681156 44.0998488 43.6380123 45.7801584 48.279141 46.3052616 49.3289372 47.6699557 50.4841437 47.5649555 50.9039391 48.9300597 51.9541455 49.3501628 51.9541455 50.4000615 48.5939363 51.7650632 48.1741408 53.4449627 44.6041365 55.9651709 43.6588277 57.6450704 43.2391348 59.1150722 43.8691356 63.7560983 45.6539327 64.8059971 43.6588277 69.1322279 41.0341321 68.397227 39.9839258 69.4470233 36.414229 69.5520234 35.2590225 72.2821293 34.8389195 75.2221328 35.6792281 80.2829544 32.2141214 80.8080576 31.3742229 81.6480587 31.163915 80.9130578 29.5889131 80.8080576 25.36799 83.3279582 25.36799 82.4879571 24.6329891 83.5381635 23.0368641 84 22.512171 83.1601015 20.9372717 83.8951024 20.4120659 82.8452037 21.252067 82.4251006 20.3071683 82.7398959 20.3071683 82.5299982 21.1470668 81.3753044 19.9919629 80.6403035 19.9919629 79.6949947 14.9310387 82.4251006 13.1458315 79.7998923 13.7759348 77.8051975 12.726036 77.4899921 12.9359338 76.6500936 11.78124 77.3849919 6.51000795 77.8051975 6.08990489 74.6548861 2.94000359 74.9701941 1.47000179 74.3400907 1.15520649 71.6099849 1.67989951 70.4551885 1.47000179 69.4049822 0.630103308 69.4049822 0 65.5201825 1.7847971 61.9500756 1.89020739 59.6401753 3.04490118 59.1150722 3.46510677 59.2199698 2.94000359 59.4302776 2.94000359 59.7450729 6.30011023 59.4302776 6.19480248 58.6948666 8.29490759 56.2799662 7.77011202 54.8099644 5.98490477 54.6000667 5.67010946 51.5551655 7.03511113 50.9251647 5.88000718 47.4600579 6.71990566 47.1451601 6.93021354 45.6751583 6.19480248 44.5200543 4.6199031 45.464953 4.41000538 44.5200543 4.91388295 44.0998488 4.17888205 43.6800533 5.12419083 43.5751557 4.91388295 41.7899485 6.38388475 40.6351521 3.33888103 40.0051514 2.91918813 39.0602528 4.28377964 38.3252519 3.96898434 37.3799431 4.49408752 36.7498398 4.38918993 35.7000436 3.75908662 35.9099413 3.02408572 34.9650427 3.96898434 33.600041 3.54877875 32.2349368 4.80888282 31.604936 4.49408752 30.5550373 5.43898613 29.8200364 5.43898613 29.0850355 7.5389887 28.5599323 8.06419441 27.0899305 9.32388833 27.0899305 9.11399062 28.8752403 10.164197 30.5550373 11.7390964 29.7151388 16.0650196 31.604936 17.7449191 30.5550373 17.2202261 29.1900356 17.639919 26.4599298 17.0099182 25.6199287 19.0050232 24.2549271 17.9551245 22.6800277 17.2202261 22.6800277 17.1148158 21.6301289 18.7951255 20.7902305 21.0001282 21.0001282 21.1050258 20.2651273 20.6849227 19.4251263 19.8449217 19.8449217 17.0099182 18.6901254 17.2202261 17.0099182 16.3798149 16.4852252 17.2202261 15.7502243 16.8000205 15.2250186 17.4300213 14.9098131 17.3251237 14.1748122 17.8498167 14.5950178 18.7951255 12.9151183 18.1650222 9.55501166 19.7400241 9.24011382 19.2149209 7.66521444 20.3700249 6.82490579 21.6301289 7.24500884 23.1001307 5.56510933 24.6751327 5.56510933 24.5701325 3.8849022 26.7751352 3.2547989 25.8298265 3.14990131 25.7669699 2.30990028 26.2920731 2.20500269 25.6620723 1.47000179"></polygon>
            </g>
        </g>
    </g>
</svg>