<?xml version="1.0" encoding="UTF-8"?>
<svg width="120px" height="120px" viewBox="0 0 120 120" version="1.1" xmlns="http://www.w3.org/2000/svg" xmlns:xlink="http://www.w3.org/1999/xlink">
    <title>jdo_cn_ximalaya_radio_province_guizhou</title>
    <g id="jdo_cn_ximalaya_radio_province_guizhou" stroke="none" stroke-width="1" fill="none" fill-rule="evenodd">
        <g id="编组">
            <rect id="矩形" x="0" y="0" width="120" height="120"></rect>
            <g id="贵州-" transform="translate(24.833357, 29.000000)" fill="#FFFFFF" fill-opacity="0.189284" fill-rule="nonzero">
                <path d="M70.2165247,30.5243615 C70.2165247,30.5243615 70.4463066,30.404089 70.5339141,30.3273698 C70.6213964,30.2506507 70.7200174,30.2179856 70.8295268,30.2725526 C70.9387858,30.3273698 70.9608129,30.2835661 70.9608129,30.1960838 C70.9608129,30.1084763 71.0813357,30.0975879 71.1360278,30.0756861 C71.1907199,30.053659 71.1578045,29.8456539 71.1250143,29.7252561 C71.0922241,29.6048584 71.0922241,29.5720682 71.0046166,29.5939701 C70.9171343,29.6158719 70.8842189,29.539278 70.9280226,29.4187551 C70.9718264,29.2983574 71.0593087,29.1450443 70.9171343,29.1123792 C70.7747095,29.0794639 70.7200174,28.8167666 70.7090039,28.6307884 C70.6981156,28.4446851 70.7419193,28.4007562 70.63241,28.3572028 C70.4290355,28.2757278 70.4589471,28.3729721 70.443303,28.5260349 C70.4267827,28.6135172 70.4524392,28.6292866 70.3670844,28.6066338 C70.291742,28.5862338 70.2490647,28.5480619 70.1853615,28.503257 C70.0428116,28.4025084 70.2822303,28.4536962 70.2822303,28.3132739 C70.2822303,28.214778 70.2931187,28.2803585 70.1618326,28.2803585 C70.0304214,28.2803585 70.0304214,28.3242874 70.0633368,28.1271706 C70.096127,27.9300537 70.172721,27.7768658 70.1946229,27.7221737 C70.2165247,27.6673564 70.1946229,27.6016508 69.9866177,27.7002718 C69.7786125,27.7987677 69.6582148,27.6564681 69.5597189,27.525182 C69.4612231,27.393896 69.4174194,27.2733731 69.3080352,27.2624847 C69.1985258,27.2515964 69.1438337,27.3280652 69.0124225,27.3827573 C68.8810113,27.4375745 68.6731313,27.3062885 68.5636219,27.4157978 C68.4542377,27.525182 68.4213223,27.6127895 68.3007995,27.6127895 C68.1805269,27.6127895 67.6441188,27.8425714 67.6660207,27.6236779 C67.6879226,27.4047843 67.6003151,27.2842615 67.469029,27.4813783 C67.3376178,27.6784951 67.1515145,27.8753616 67.1296126,28.0177864 C67.1078359,28.1599608 67.1296126,28.1599608 66.9764247,28.2366799 C66.8232367,28.3132739 66.8013349,28.2803585 66.7356293,28.3898678 C66.6699237,28.499252 66.6480218,28.5211539 66.4838203,28.499252 C66.3196189,28.4776005 66.3415208,28.4776005 66.2540384,28.5321674 C66.166431,28.5869847 65.7942243,28.6196498 65.9256355,28.3680911 C66.0569216,28.1162822 66.089837,28.0395631 66.166431,27.9630943 C66.2430249,27.8863751 66.2759403,27.7658523 66.0351449,27.8315579 C65.7942243,27.8973887 65.6409112,27.8863751 65.5643173,28.0177864 C65.4877233,28.1490724 65.3345354,28.1271706 65.1812223,28.1599608 C65.0279092,28.192751 64.9514404,28.2366799 64.7981273,28.3572028 C64.6448142,28.4776005 64.4478225,28.5650828 64.3821169,28.6635786 C64.3164113,28.7620745 64.1742369,28.8167666 64.0647275,28.8276549 C63.9552182,28.8386685 63.9552182,28.8825973 64.0319373,28.9480526 C64.1085313,29.0138834 64.2180406,29.0794639 64.0647275,29.2108751 C63.9115396,29.3422863 63.6707442,29.3968533 63.7145479,29.2655672 C63.7582265,29.1342811 63.8020302,29.0356601 63.6159269,29.1560578 C63.4298236,29.2764555 63.2657473,29.4954742 63.1781398,29.4844607 C63.0905323,29.4735724 63.1343361,29.4297686 63.2000417,29.3422863 C63.2657473,29.2545537 63.2000417,29.2437905 63.079644,29.1560578 C62.9592463,29.0685755 62.8825272,29.0248969 62.8825272,28.8825973 C62.8825272,28.7400475 62.8169467,28.7181456 62.6527453,28.6854805 C62.4884186,28.65244 62.2147079,28.4776005 62.2696503,28.3461893 C62.3243424,28.214778 62.4447401,28.2257916 62.521334,28.291372 C62.597928,28.3572028 62.7184509,28.4226581 62.8387234,28.2585818 C62.9592463,28.0943803 63.0686305,27.9411924 63.1671263,28.0066477 C63.2657473,28.0723533 63.3751315,28.0177864 63.4079217,27.8645984 C63.4408371,27.7111602 63.5503465,27.6784951 63.6269404,27.503155 C63.7035344,27.3280652 63.8676107,27.3390787 63.7801284,27.1638637 C63.692646,26.9887739 63.6269404,26.8354609 63.5831367,26.7697552 C63.5393329,26.7042999 63.5503465,26.4854064 63.6159269,26.4197008 C63.6816325,26.35387 63.7364498,26.3648835 63.845834,26.4197008 C63.9552182,26.4743929 63.9990219,26.507058 64.075741,26.4305891 C64.152335,26.35387 64.4150323,26.1786551 64.5463183,26.1021862 C64.6777296,26.0254671 64.9514404,25.7518815 65.0718381,25.6751624 C65.1921106,25.5986935 65.2469279,25.5109609 65.2360395,25.3687865 C65.225026,25.2263618 65.1921106,25.1607813 65.30162,25.182558 C65.4111293,25.204585 65.4658214,25.2483888 65.4987368,25.1278659 C65.531527,25.0074682 65.7395322,25.1390046 65.783336,24.9527761 C65.8271397,24.766798 65.8052378,24.6353867 65.8927202,24.5586676 C65.9802025,24.4821988 66.0351449,24.3506624 66.0459081,24.131894 C66.0569216,23.9130005 66.0459081,23.9237637 66.1007253,23.825393 C66.1554174,23.7268972 66.2430249,23.6611916 66.1554174,23.5735841 C66.0679351,23.4861018 66.3086054,23.2672082 66.396338,23.3219003 C66.4838203,23.3764672 66.5823162,23.4969901 66.4620436,23.6173878 C66.3415208,23.7376604 66.4072264,23.8471697 66.5933297,23.6939818 C66.779433,23.5407938 66.9217326,23.3764672 67.0092149,23.2561947 C67.0968224,23.1356718 67.1515145,23.2672082 67.2063317,23.3983691 C67.2610238,23.5299055 67.3267294,23.4640747 67.4143369,23.4750882 C67.5018192,23.4861018 67.5018192,23.4861018 67.5018192,23.6064995 C67.5018192,23.7268972 67.6113286,23.7048701 67.6660207,23.6282762 C67.7207128,23.5516822 67.753503,23.5516822 67.9069413,23.5956111 C68.0601292,23.6391645 68.0710176,23.6064995 68.1148213,23.4640747 C68.158625,23.3219003 68.1476115,23.1685872 68.1258348,23.0699662 C68.1039329,22.9715955 68.1805269,22.8184076 68.3556167,22.6868712 C68.5307065,22.5557103 69.0343244,22.0958962 69.1328202,21.9863869 C69.2313161,21.8770027 69.4174194,21.887891 69.483125,21.9315696 C69.5487054,21.9753733 69.5926343,21.8659891 69.7237952,21.7893952 C69.8553316,21.7126761 69.9100237,21.6688723 69.8443181,21.5594881 C69.7786125,21.4501039 69.8443181,21.3623713 69.9426888,21.2312104 C70.0413098,21.099674 70.1508191,20.7712711 70.0195331,20.7056907 C69.8881218,20.639985 69.8991354,20.5413641 69.8553316,20.4102031 C69.8115279,20.2787919 69.8881218,20.2898054 69.964841,20.2677784 C70.0413098,20.2460017 69.9209121,20.0598984 69.7677241,20.0271081 C69.6142859,19.9941928 69.483125,20.0709119 69.4174194,19.7863127 C69.3517138,19.5014633 69.2751198,19.6766782 69.1875123,19.6766782 C69.10003,19.6766782 68.9686188,19.6657899 68.8701229,19.6657899 C68.7716271,19.6657899 68.7059215,19.643888 68.7825154,19.5564057 C68.8592346,19.4687982 68.9029132,19.4141061 68.7387117,19.2499046 C68.5745103,19.0857032 68.5636219,18.9870822 68.410434,18.9544171 C68.2571209,18.9215018 68.2790227,18.8228808 68.3556167,18.7464119 C68.4322107,18.6695677 68.4870279,18.779077 68.4432242,18.4397858 C68.3994205,18.1004945 68.5089298,18.0787178 68.33384,17.8376721 C68.158625,17.5970018 68.1914153,17.5423097 68.1476115,17.3779831 C68.1039329,17.2137817 68.1039329,16.9182942 68.0163255,16.7868829 C67.928718,16.655722 67.9506199,16.557101 68.0163255,16.4805071 C68.0819059,16.4037879 68.1258348,16.3711229 68.1695134,16.2616135 C68.2133171,16.1521042 68.3447284,15.9879027 68.3447284,15.9879027 C68.3447284,15.9879027 68.6074256,16.0208181 68.7278234,15.8892817 C68.8480959,15.7581208 68.9358285,15.6924152 68.793529,15.5061867 C68.6512294,15.3202086 68.3447284,15.079288 68.2571209,15.2108244 C68.1695134,15.3419853 68.0710176,15.6156961 67.9723966,15.6048077 C67.8740259,15.5939194 67.9397315,15.48441 67.9616334,15.1998109 C67.9834101,14.9150866 68.1695134,14.466286 68.235219,14.3020845 C68.3007995,14.1380082 68.3666302,14.1927003 68.33384,14.0395124 C68.3007995,13.8863244 68.410434,13.5358945 68.4651261,13.3497912 C68.519693,13.163813 68.7387117,13.0544288 68.7497252,12.8571869 C68.7606136,12.6601952 68.793529,12.6491817 68.9358285,12.5618245 C69.0781281,12.4740919 69.2313161,12.3645825 69.1109183,12.3536942 C68.9905206,12.3428058 68.9358285,12.3428058 68.924815,12.2662118 C68.9139267,12.1894927 68.6512294,12.0801085 68.54172,12.0474434 C68.4322107,12.0145281 68.3775186,12.0252913 68.2571209,12.1787295 C68.1367232,12.3319174 68.0601292,12.3098904 67.9397315,12.167716 C67.8804087,12.09763 67.810573,11.9667194 67.7548797,11.8517033 L67.7118269,11.7630946 C67.6434931,11.6089054 67.6399888,11.6544613 67.7167079,11.4827507 C67.7749043,11.352591 67.833351,11.2126693 67.8272185,11.1694913 L67.8182074,11.1534717 C67.8076945,11.0796311 67.4284793,10.4896573 67.4705309,10.24736 C67.499191,10.0827831 67.5668991,9.65037764 67.6138317,9.36052204 C67.6204648,9.31934652 67.6384869,9.28880906 67.6113286,9.25601883 C67.6113286,9.25601883 67.469029,9.21208994 67.3158411,9.34362631 C67.162528,9.47503753 67.0747954,9.5077026 66.9326209,9.49668909 C66.7903214,9.48580073 66.5385124,9.67202921 66.4948338,9.81420363 C66.4510301,9.95662836 66.604218,10.0004321 66.4510301,10.15362 C66.297717,10.306808 66.2430249,10.3176963 66.1773193,10.5586169 C66.1116137,10.7994123 65.991216,11.0291942 66.0569216,11.095025 C66.1226272,11.1607306 66.2211231,11.302905 66.089837,11.3905125 C65.9584258,11.4779948 66.0569216,11.784621 65.9037337,11.8831168 C65.7504206,11.9817378 65.608121,12.3319174 65.5096252,12.3976231 C65.4111293,12.4632035 65.3673256,12.5944896 65.4439196,12.780718 C65.5205135,12.9666962 65.6738266,13.317001 65.608121,13.4044833 C65.5425405,13.4922159 65.5643173,13.6016001 65.3345354,13.4484122 C65.1045031,13.2950991 64.9623287,13.3280145 64.9623287,13.2186303 C64.9623287,13.1091209 64.6777296,13.1964781 64.6558277,13.3937201 C64.6339258,13.5907118 64.6668412,13.7659267 64.5353048,13.8423955 C64.4041439,13.9189895 64.5135281,13.8532839 64.2069019,13.7440249 C63.9005261,13.6345155 63.6159269,13.5796983 63.6487171,13.4484122 C63.6816325,13.317001 63.6707442,13.2186303 63.4626138,13.1855898 C63.2547338,13.1529247 63.2547338,13.141786 63.0248267,13.2842107 C62.7950448,13.4265103 62.521334,13.3827066 62.4884186,13.141786 C62.4555033,12.9011158 62.4447401,12.7917316 62.3790345,12.8024948 C62.3133288,12.8133831 62.2039446,12.7917316 62.1711544,12.9120041 C62.138239,13.0324018 62.1273507,13.0981074 62.0178413,13.1308977 C61.908332,13.163813 61.7770459,13.3389028 61.7660324,13.4484122 C61.755144,13.5579215 61.6347463,13.5796983 61.6347463,13.4265103 C61.6347463,13.2733224 61.7113403,13.0981074 61.5579021,13.0544288 C61.4048393,13.0106251 61.4595314,12.7917316 61.3501472,12.6713338 C61.2406378,12.550811 61.2516513,12.2772253 61.4704197,12.167716 C61.6894384,12.0582066 61.7222287,11.9817378 61.6894384,11.9159071 C61.6565231,11.8503266 61.6785501,11.7408173 61.7770459,11.5983925 C61.8755418,11.4562181 61.8645282,11.095025 61.7004519,11.018431 C61.5361253,10.941837 61.601831,10.7666221 61.6565231,10.6790146 C61.7113403,10.591282 61.7879343,10.405429 61.7879343,10.405429 C61.7879343,10.405429 61.7004519,10.2630042 61.5470137,10.2193256 C61.3938258,10.1755219 61.142142,9.94574 61.142142,9.80331527 C61.142142,9.66089054 61.1859457,9.57353337 61.1092266,9.52972963 C61.0326326,9.48580073 60.9341368,9.49668909 60.8903331,9.61733711 C60.8465293,9.73773482 60.6713144,9.85813252 60.4853362,9.84711901 C60.2992329,9.8361055 60.2883445,9.80331527 60.2664427,9.93472649 C60.2445408,10.0660126 60.2554291,10.0988028 60.353925,10.1426065 C60.4524208,10.1864103 60.5400283,10.3176963 60.5400283,10.3176963 L60.5619302,10.4051787 C60.6646812,10.5080549 60.8017244,10.7279496 60.8142397,10.8727523 C60.7651795,10.9097977 60.770436,10.8860186 60.708485,10.8975327 C60.653042,10.9077953 60.5749461,10.9452162 60.5072381,11.0622348 C60.3868404,11.2701148 60.3102464,11.4341911 60.4853362,11.4233027 C60.6605512,11.4124144 60.6605512,11.6313079 60.4415325,11.6968884 C60.2225138,11.762594 60.1569333,11.6968884 60.069451,11.784621 C59.9818435,11.8721033 59.8614458,11.8831168 59.8395439,11.7296786 C59.8176421,11.5766158 59.7081327,11.5548391 59.5987485,11.5437004 C59.4892392,11.5326869 59.3797298,11.4124144 59.4345471,11.2152975 C59.4892392,11.018431 59.5440564,10.821189 59.6752173,10.7338319 C59.8066285,10.6460992 59.8833477,10.4929113 59.7957402,10.2959196 C59.7081327,10.0988028 59.6534406,9.97840508 59.5549448,9.70469428 C59.4564489,9.43110864 59.3797298,9.12473277 59.4564489,9.03712529 C59.5330429,8.94951781 59.6425523,8.99332155 59.7081327,8.99332155 C59.7738383,8.99332155 59.8504323,9.07004067 59.7957402,8.75252613 C59.7410481,8.43501159 59.7300346,8.39120785 59.8176421,8.21611805 C59.8614458,8.12851057 59.9490533,8.06005158 60.0242706,7.99709935 C60.0994878,7.93414712 60.1624401,7.87682679 60.1569333,7.81112118 C60.1477971,7.69998484 60.0815909,7.62689517 59.9968619,7.55968772 C59.9401674,7.59022518 59.8714581,7.63064978 59.8112592,7.66631854 C59.7523119,7.70136153 59.4798526,7.66581792 59.511141,7.54829875 C59.5549448,7.38422245 59.4235336,7.23090936 59.3578279,7.36244574 C59.3169027,7.44429615 59.2587063,7.51788643 59.1968805,7.54829875 C59.1595847,7.56644601 59.1211626,7.56894908 59.0842423,7.54829875 C59.0135305,7.50912569 58.8463254,7.59122641 58.7484553,7.64541789 C58.6793706,7.67370259 58.6126637,7.69935907 58.5449557,7.72276278 C58.4129187,7.76806837 58.3950217,7.77269905 58.2612326,7.74679226 C58.1407097,7.72338855 58.0274458,7.71250019 57.9584862,7.71938364 C57.7478528,7.74040943 57.3579995,7.43490964 57.2947969,7.40337094 C57.2315944,7.37183225 57.0203352,7.06007478 56.925594,6.99674708 C56.8900504,6.97321822 56.669655,6.93980222 56.6816697,6.85269536 C56.7015692,6.70789271 56.7045728,6.37085422 56.7045728,6.37085422 L56.7622686,6.08550414 C56.7622686,6.08550414 57.2162005,5.65710357 56.8263472,5.29903928 C56.4366191,4.94084984 56.5849261,4.61582609 56.6586415,4.43685653 C56.7323569,4.25776181 56.8523792,4.14825246 56.7681508,4.14825246 C56.6837974,4.14825246 56.5680303,3.65314505 56.5680303,3.65314505 C56.5680303,3.65314505 56.3612767,3.36291398 56.2769232,3.32061208 C56.1925697,3.27843534 55.9803093,2.28721929 55.9803093,2.28721929 C55.9803093,2.28721929 56.0422603,2.06732451 56.1002064,1.83328739 C56.122734,1.74217561 56.1491414,1.74042346 56.0630358,1.71401606 C56.0630358,1.71401606 55.7566599,1.56070297 55.6909543,1.63742209 C55.6252487,1.71401606 55.7017175,1.7578198 55.6033468,1.87821751 C55.504851,1.99861522 55.4939626,2.05343247 55.4939626,2.16294182 C55.4939626,2.27232601 55.4610472,2.34904514 55.3515379,2.41462559 C55.2421537,2.48020605 55.1436579,2.39284887 55.19835,2.25042414 C55.2529169,2.10824972 55.1764481,2.06444598 55.0670639,2.02064224 C54.9575545,1.97671335 54.946541,1.85644079 54.9247643,1.79086034 C54.9028624,1.72502957 54.8042415,1.73604308 54.6072498,1.92202125 C54.4225232,2.09648529 54.3051291,2.13615896 54.0747215,2.03228152 C54.0593276,2.02539807 54.0434331,2.01788886 54.027038,2.00962873 C53.7643407,1.87821751 53.4797415,1.7031277 53.4797415,1.7031277 C53.4136604,1.68585651 53.4076531,1.73266394 53.3654763,1.78735604 C53.2764922,1.90287276 53.1825019,2.02502261 53.0960208,2.1304019 L53.0528428,2.16294182 C53.0528428,2.16294182 52.7901455,2.23953579 52.6478459,2.32714327 C52.5055463,2.41462559 52.1553667,2.39284887 51.9692634,2.38183536 C51.7831601,2.370947 51.7173293,2.44754097 51.6955526,2.57870189 C51.6736507,2.71023826 51.4766591,2.78683223 51.3562614,2.74302849 C51.2358637,2.6993499 51.1700329,2.62263078 51.0935641,2.80860894 C51.016845,2.99483741 51.038872,3.12612348 50.9731664,3.29045008 C50.9074608,3.45452637 50.3710527,3.08231974 50.3710527,3.08231974 L50.3136072,3.0366387 L50.3141078,2.91599068 L50.4380098,2.61412034 C50.5178578,2.41925627 50.5491462,2.46368578 50.3854453,2.372574 L50.2962109,2.31663037 C50.2018451,2.25067445 50.1030989,2.1551823 50.097467,2.04241896 C50.0865787,1.82365056 50.2287531,1.40764019 50.2834452,1.2435639 C50.3382625,1.07923729 50.3601643,1.13405455 50.1959629,0.947951228 C50.0317614,0.761722757 49.8347697,0.5318157 49.7799525,0.378752918 C49.7252604,0.225564982 49.5939743,0.137957502 49.5500454,0.312922154 C49.5062417,0.48801196 49.4406612,0.575744593 49.2873482,0.739946041 C49.1341602,0.904147488 49.10137,1.0353084 48.8494359,0.936812563 C48.5977521,0.838441879 48.5758503,0.84945539 48.4773544,0.783624627 C48.3788586,0.717919017 48.3569567,0.641325049 48.159965,0.652213408 C47.9628482,0.663352073 47.9737366,0.696142301 47.9847501,0.783624627 C47.9957636,0.871232107 47.7877584,1.0353084 47.7549682,0.827428367 C47.722178,0.619548333 47.6673607,0.159859372 47.5688649,0.0612383806 C47.470369,-0.0372574572 47.4155518,-0.0154807409 47.3280694,0.116055632 C47.240462,0.247341698 47.163868,0.323935666 46.9120591,0.378752918 C46.6603753,0.433319862 46.7916614,0.608534821 46.5180757,0.59752131 C46.2443649,0.586632951 46.3209589,0.586632951 46.3209589,0.356851048 C46.3209589,0.12694399 46.1020653,0.170622577 46.0035695,0.269118414 C45.9050737,0.367614252 45.8940602,0.389641276 45.7736625,0.378752918 C45.6531396,0.367614252 45.5985726,0.477123602 45.6970685,0.630436691 C45.7955643,0.783624627 45.7189704,0.794638139 45.7189704,0.904147488 C45.7189704,1.01353168 45.7627741,1.00264333 45.8284797,1.04632191 C45.8940602,1.09012565 45.8831718,1.2543271 45.8502564,1.44043042 C45.8174662,1.62653373 45.6861801,1.61564538 45.4671614,1.59361835 C45.2482679,1.57184164 45.2044641,1.52791274 45.2811833,1.74693144 C45.3577772,1.96595014 45.3686656,2.07533434 45.4671614,2.10824972 C45.5656573,2.14091479 45.5766708,2.33815678 45.4562731,2.46931769 C45.3358754,2.60072891 45.149772,2.80860894 45.3577772,2.87431455 C45.5656573,2.94014532 45.6861801,3.02750249 45.7189704,3.18094073 C45.7517606,3.33425382 45.8284797,3.38894592 45.6861801,3.56403572 C45.5438805,3.73900038 45.4890633,3.84850973 45.4781749,3.94713072 C45.4671614,4.04562656 45.4233577,4.13310888 45.3467637,4.1551359 C45.2701698,4.17691262 45.2920716,4.34123922 45.2592814,4.47240013 C45.226366,4.60393651 45.149772,4.8227049 44.8760612,4.8119417 C44.6024756,4.80105334 44.5366448,4.8119417 44.6352658,4.89942402 C44.7337617,4.9870315 44.7337617,5.08540219 44.613364,5.14021944 C44.4929663,5.19491153 44.5038546,5.27163066 44.3178764,5.29340737 C44.1317731,5.3154344 43.6282804,5.47963584 43.6391688,5.60003355 C43.6500571,5.72043126 43.6500571,5.90640942 43.464079,5.80803874 C43.2779757,5.7095429 43.2670873,5.87374435 43.2230333,5.53432794 C43.1794798,5.19491153 43.1027607,5.19491153 43.1903682,5.09654085 C43.2779757,4.99804501 43.2779757,4.91031238 43.1466896,4.91031238 C43.0152784,4.91031238 43.0152784,4.73522257 42.982363,4.56013277 C42.9495728,4.38504296 43.0480686,4.27553361 42.9604611,4.20970285 C42.8729788,4.14399724 42.8510769,4.17691262 42.7634695,4.28642197 C42.6759871,4.39593132 42.5445759,4.33035086 42.3146688,4.29731033 C42.0848869,4.26464525 41.833078,4.24261823 41.833078,4.24261823 C41.833078,4.24261823 41.6907784,4.11133217 41.6141845,4.27553361 C41.5375905,4.43973506 41.4937868,4.47240013 41.3842774,4.47240013 C41.2747681,4.47240013 41.2310895,4.35212758 41.3076834,4.29731033 C41.3842774,4.24261823 41.4280812,4.12222052 41.3295853,4.10031865 C41.2310895,4.07841678 41.1872857,4.12222052 41.1544955,4.23172987 C41.1215801,4.34123922 40.9463652,4.22084151 40.7821637,4.22084151 C40.6180874,4.22084151 40.7821637,4.31933735 40.6946814,4.47240013 C40.6070739,4.62571322 40.5742837,4.68040532 40.4647743,4.68040532 C40.3551398,4.68040532 40.3224748,4.71344586 40.3771669,4.86650864 C40.4319841,5.01969658 40.278671,4.9870315 40.3334883,5.24972879 C40.3881804,5.51242607 40.5195916,5.68751588 40.4209706,5.69840424 C40.3224748,5.7095429 40.3005729,5.64383729 40.2020771,5.73131962 C40.1035812,5.81905225 40.0378756,5.86273084 39.97217,5.66573916 C39.9064644,5.46862233 39.9283663,5.4358321 39.8079685,5.38114001 C39.6875708,5.32644791 39.5562848,5.33721111 39.512481,5.23871527 C39.4686773,5.14021944 39.3810698,5.18389802 39.3044758,5.32644791 C39.2278819,5.46862233 39.0965958,5.75322149 38.9870865,5.60003355 C38.8775771,5.44672046 38.7571794,5.50153771 38.6148798,5.66573916 C38.4725803,5.82994061 38.4615667,6.01591877 38.5820896,6.20202209 C38.7023622,6.38800025 38.8884655,6.4975096 38.8118715,6.57410357 C38.7352775,6.65082269 38.822885,6.72741666 38.9870865,6.67272456 C39.1512879,6.61790731 39.3154894,6.81502414 39.1074842,6.95732372 C38.899479,7.0996233 38.899479,7.20913265 38.9102422,7.43891455 C38.9213809,7.66869645 39.129386,7.7235137 38.8118715,7.70161183 C38.4944821,7.67983512 38.5273975,7.7782058 38.5054956,7.90974218 C38.4835938,8.04102824 38.3630709,8.23789476 38.2755886,8.06280496 C38.1879811,7.88771515 38.0785969,7.63603138 37.9690876,7.71250019 C37.8595782,7.78921931 37.6406847,7.88771515 37.7938726,8.04102824 C37.9471857,8.19421618 38.0458067,8.25992179 37.9909894,8.36943114 C37.9362973,8.47894049 37.9690876,8.45703862 37.7172786,8.50059205 C37.4654697,8.54452094 37.3998892,8.73062426 37.3560855,8.86203548 C37.3122818,8.99332155 37.3779874,9.15739784 37.4983851,9.26690719 C37.6187828,9.37641654 37.6625865,9.51871612 37.5640907,9.66089054 C37.4654697,9.80331527 37.3341836,9.92371298 37.2356878,9.93472649 C37.1369416,9.94574 37.0276826,9.96751672 37.0276826,9.77039989 C37.0276826,9.57353337 36.9838789,9.48580073 36.885383,9.47503753 C36.7868872,9.46402402 36.5460918,9.58442173 36.4146806,9.43110864 C36.2832693,9.2779207 36.3489749,9.2779207 36.195787,9.26690719 C36.0425991,9.25601883 35.9987953,9.21208994 35.9111879,9.16841135 C35.8235804,9.12473277 35.6812808,9.09181738 35.7469864,9.25601883 C35.8125669,9.42022028 35.7688883,9.45313566 35.6812808,9.47503753 C35.5936733,9.49668909 35.4404854,9.23411696 35.582785,9.08092903 C35.7250845,8.92761594 36.1083047,8.79632987 36.0753893,8.46792697 C36.0425991,8.13952408 36.0206972,7.80023283 36.1519833,7.75642909 C36.2832693,7.71250019 36.4256941,7.64691974 36.3161847,7.55931226 C36.2068005,7.47170478 36.2395907,7.38422245 36.4037922,7.36244574 C36.5679936,7.34041871 36.578882,7.318642 36.5352034,7.19824429 C36.4913997,7.07759627 36.4584843,7.03404284 36.3489749,7.1103865 C36.2395907,7.18710562 36.1083047,7.0010023 36.0096837,6.88072975 C35.9111879,6.76033204 35.7030575,6.67272456 35.5608831,6.38800025 C35.4185835,6.10352625 35.5280929,6.10352625 35.5280929,5.99414206 C35.5280929,5.88463271 35.4623873,5.87374435 35.3090742,5.86273084 C35.1558862,5.85171733 35.1558862,5.69840424 35.0573904,5.56711817 C34.9588946,5.4358321 34.8274833,5.39202836 34.6851838,5.28251901 C34.5430093,5.17300966 34.5100939,4.99804501 34.4773037,4.92132589 C34.4546509,4.86863625 34.3545281,4.88841051 34.304717,4.96638117 C34.2821893,5.00192477 34.2699243,5.04935797 34.2801869,5.10742921 C34.2866949,5.14372374 34.290074,5.17976796 34.2915759,5.21406003 L34.2910752,5.34509579 C34.2850679,5.38589584 34.2692985,5.44171432 34.2692985,5.44171432 L34.2590359,5.55360159 C34.2901992,5.65923118 34.3254925,5.83682405 34.4216104,5.95021316 C34.4677921,6.00478011 34.5486412,5.95972483 34.5642854,6.00665741 C34.6199788,6.17411285 34.9273559,6.74719092 34.9273559,6.74719092 L34.9369927,6.88072975 C34.9369927,6.88072975 35.0246002,7.12140001 34.8823006,7.19824429 C34.8110882,7.23641612 34.7591495,7.25018301 34.7276108,7.27608979 C34.6961973,7.30212173 34.6851838,7.34041871 34.6961973,7.42802619 C34.7180991,7.60299084 34.5209823,7.88771515 34.6194781,8.01900122 C34.7180991,8.15053759 34.7508894,8.24903343 34.8823006,8.31473904 C35.0135866,8.3803195 34.9261043,8.42412323 34.8712871,8.46792697 C34.816595,8.51173071 34.7508894,8.41323488 34.6742954,8.30372553 C34.5977014,8.19421618 34.4335,7.97532263 34.3350041,8.0519166 C34.2363832,8.12851057 34.2473967,8.15053759 34.4115981,8.30372553 C34.5757996,8.45703862 34.6851838,8.6647935 34.7508894,8.75252613 C34.816595,8.84013361 34.7836796,8.84013361 34.663407,8.86203548 C34.5430093,8.8838122 34.4773037,8.94951781 34.3020888,8.81810659 C34.1268738,8.68682052 34.0066012,8.53363258 33.9081054,8.56629766 C33.8094844,8.59921304 33.6562965,8.50059205 33.568689,8.43501159 C33.4810815,8.36943114 33.3059917,8.33651576 33.3170052,8.5554093 C33.3278936,8.774428 33.3389071,8.774428 33.262188,8.774428 C33.185594,8.774428 33.1088749,8.80721823 33.1528038,9.02623693 C33.1966075,9.24513047 33.3059917,9.57353337 33.1198884,9.57353337 C32.9337851,9.57353337 32.4302924,9.46402402 32.3536984,9.20132673 C32.2771044,8.93850429 32.1565816,8.79632987 32.0144072,8.74163777 L31.483631,8.52024116 C31.4260604,8.16330325 31.0000377,8.20935976 31.0000377,8.20935976 C31.0000377,8.20935976 30.6314605,7.62201418 30.7235735,7.46081642 C30.8156865,7.29974381 30.1045641,7.58133928 30.1045641,7.58133928 C30.1045641,7.58133928 29.7448728,7.2305339 29.7193415,7.07371651 C29.4631522,6.66283743 29.1400058,6.77810385 29.1169775,6.66283743 C29.0939492,6.54732071 28.9785577,6.29363448 28.6785646,5.94733463 C28.3786968,5.60128509 28.2171235,6.24732767 28.2171235,6.24732767 C28.2171235,6.24732767 27.7385364,7.06858522 27.5309067,7.11476687 C27.3232769,7.16082338 27.5178907,7.23115967 27.5640723,7.64666943 C27.6101288,8.06192888 27.2020031,8.07006386 27.2020031,8.07006386 L26.3251774,7.97795086 L25.9927696,8.04127855 L25.7223128,7.89409798 C25.588774,7.82150893 25.5524795,7.77069659 25.4305799,7.8700685 C25.3783909,7.91249555 25.3060521,7.97131772 25.2486067,8.0182503 C25.1463562,8.10197802 25.0161965,8.2321377 24.9324688,8.38107042 C24.9064369,8.42750238 24.8965497,8.47931595 24.8962994,8.53213074 L24.8665129,8.6101014 C24.8665129,8.6101014 24.7789054,8.85102197 24.6476193,8.89470055 C24.5162081,8.93850429 24.3411183,8.94951781 24.2754127,9.12473277 C24.2097071,9.29982257 24.1112113,10.0004321 24.2426225,10.054999 C24.3739086,10.1098163 24.5709002,10.1864103 24.4943063,10.4163173 C24.4177123,10.6460992 24.5051946,10.635336 24.53811,10.7556086 C24.5709002,10.8760063 24.5928021,11.2373246 24.4834179,11.4124144 C24.3739086,11.5875042 24.4066988,11.7955094 24.5819137,11.762594 C24.7570035,11.7296786 24.7570035,11.7517056 24.8774013,11.9379341 C24.997799,12.1239123 25.0526162,12.1787295 25.2715098,12.2005062 C25.4904033,12.2224081 25.610801,12.3428058 25.6218145,12.1130239 C25.6327029,11.8831168 25.6437164,11.8393131 25.8079178,11.7737326 C25.9719941,11.708027 25.9719941,11.6313079 25.9502174,11.5219237 C25.9283155,11.4124144 26.1034054,11.4124144 26.1910128,11.5875042 C26.2786203,11.762594 26.3333124,11.762594 26.475612,11.784621 C26.6179116,11.8063977 26.705519,12.167716 26.7493228,12.3098904 C26.7930014,12.4523151 26.9463145,12.528784 27.0667122,12.5836012 C27.1871099,12.6382933 27.2966192,12.8024948 27.2090117,12.9775846 C27.1214043,13.1529247 26.989993,13.5470332 27.0229084,13.7328862 C27.0556987,13.9189895 27.1762215,14.2475176 27.3951151,14.1488966 C27.6140086,14.0505259 27.8220138,13.9848203 27.9643134,13.9957086 C27.9909711,13.9978362 28.0148754,14.0013405 28.0364018,14.0068473 C28.123759,14.0300007 28.1703161,14.0865701 28.1904658,14.2107224 C28.1917174,14.2191077 28.2171235,14.2785556 28.2182499,14.2875667 L28.3021028,14.3612821 C28.3820759,14.4599031 28.406606,14.5202271 28.5327608,14.4831817 L28.669929,14.4426319 C28.669929,14.4426319 28.8466458,14.5636554 28.9860669,14.4799277 C29.0356277,14.4501411 29.0770535,14.3616576 29.1097186,14.2599078 C29.1471395,14.1440156 29.1278659,14.146769 29.2575249,14.1716745 L29.3833042,14.1960795 C29.3833042,14.1960795 29.4975694,13.9836939 29.8079502,13.8367636 C30.118331,13.6895831 30.0528757,13.8039734 30.3633816,13.7877034 C30.6736373,13.7714335 31.1473434,14.3920699 31.1962785,14.47367 C31.2238122,14.5194762 31.4565978,14.7602716 31.6558423,14.9631455 C31.6926374,15.0004413 31.7532117,15.0264732 31.7201712,15.0724046 C31.7201712,15.0724046 31.667857,15.3126994 31.6749908,15.3312221 C31.6822497,15.3494945 31.6871306,15.3655142 31.6903846,15.3797817 C31.7205466,15.5158236 31.5786225,15.475399 31.5983968,15.8128129 C31.6202987,16.1848944 32.0471974,16.0762611 32.162589,16.145471 C32.2778554,16.2146809 32.6008767,16.7223037 32.4162752,16.9069052 C32.2316737,17.0912564 32.2717228,17.4265427 32.2717228,17.4265427 C32.2717228,17.4265427 32.7757162,17.6923688 32.5911147,17.8999985 C32.4065132,18.1077534 32.5086385,18.5049908 32.5086385,18.5049908 C32.4856102,18.5952265 32.4634581,18.61037 32.3857377,18.669818 C32.2364295,18.783958 32.0894993,18.8895876 31.9967605,18.9491607 C31.7679798,19.0962161 31.5230544,19.2922065 31.1146783,19.3249968 C30.7063023,19.3575367 30.5103119,19.1124861 30.3469865,19.0962161 C30.1836611,19.0799461 30.2652613,19.1615462 29.8568852,19.014616 C29.4486344,18.8674354 29.5139645,19.0310111 29.3506392,19.2106064 C29.1873138,19.3903269 29.0566535,19.4228668 28.8605379,19.3903269 C28.6645474,19.3575367 28.468557,19.4228668 28.1908413,19.5536523 C27.9132507,19.6843126 27.9784557,19.5536523 27.8479206,19.4556571 C27.7172603,19.3575367 27.5048747,19.4556571 27.243429,19.488197 C26.9822335,19.5209872 26.9005083,19.7821827 26.769848,19.8966982 C26.6390625,20.0109633 26.361472,19.831368 26.0021561,19.7007077 C25.6428403,19.5700474 25.4793898,19.9619032 25.4793898,19.9619032 C25.4793898,19.9619032 25.3324595,20.2396189 24.9894137,20.2069538 C24.6463678,20.1744139 24.6790329,20.353884 24.5157075,20.4682744 C24.3523821,20.5825396 24.0583965,20.353884 24.0583965,20.1253537 C24.0583965,19.8966982 23.862406,19.9619032 23.7153506,19.8966982 C23.5684204,19.831368 23.4049698,19.7497679 23.3560348,19.6025873 C23.3069746,19.4556571 23.1272541,19.2431464 22.996719,19.1779414 C22.8659335,19.1124861 22.621008,19.1943365 22.3759574,19.0799461 C22.1309068,18.965681 21.9675814,19.0472811 21.8369211,19.1452763 C21.7062608,19.2431464 21.4613353,19.3412667 21.1836196,19.3086017 C20.9059039,19.2759366 20.7261834,19.6679175 20.7261834,19.6679175 C20.7261834,19.6679175 20.564485,19.8181017 20.425064,19.8316183 C20.326443,19.8415054 20.3379571,19.8010808 20.3581068,19.8861853 L20.5110445,20.5292242 C20.5110445,20.5292242 20.3726246,20.5983089 20.3956529,20.7368539 C20.4186812,20.8751486 20.3956529,21.2444767 20.1418415,21.3365897 C19.8881553,21.428953 19.6831538,21.5940305 19.6113157,21.7375816 C19.5394775,21.8812579 19.515448,22.0609784 19.4315952,22.1209269 C19.3478674,22.1807503 19.479529,22.1807503 19.5752714,22.1807503 C19.671139,22.1807503 19.8029257,22.3723604 19.6591243,22.5879999 C19.515448,22.8036395 19.3717718,22.8275438 19.4076908,23.055073 C19.4436099,23.2827272 19.4556246,23.2707125 19.3717718,23.3425506 C19.2879189,23.4143888 19.3118232,23.3906096 19.3357275,23.5103815 C19.359757,23.6301535 19.2519998,23.7857193 19.0722793,24.0252632 C18.892684,24.2646819 18.6890592,24.6241229 18.7249783,24.3366452 C18.7608973,24.0492927 18.7010739,24.0133736 18.4015815,23.8814618 C18.1022142,23.7498003 18.1022142,23.7738297 17.9704276,23.7857193 C17.8386409,23.7976089 17.7308837,23.7738297 17.5872074,23.7498003 C17.443406,23.7257708 17.3117445,23.8097488 16.9883477,24.0252632 C16.664951,24.2407776 16.5571938,24.4683068 16.3296646,24.4804466 C16.1021355,24.4923362 16.1021355,24.6480272 15.8146578,24.8397625 C15.5271801,25.0313725 15.5870035,25.0313725 15.5032758,25.1391297 C15.4194229,25.2470121 15.2278128,25.4027031 15.0960261,25.3427546 C14.9643646,25.2829312 14.8683719,25.1630341 14.8803866,25.0552769 C14.8924013,24.9473945 14.9762542,24.8156078 14.8325779,24.7559096 C14.6887765,24.6958359 14.4492326,24.504351 14.3653798,24.6480272 C14.2815269,24.7918287 14.090042,25.1630341 13.9582553,24.9595344 C13.8264686,24.7559096 13.8744024,24.6719316 13.7066967,24.7437697 C13.5391161,24.8156078 13.57491,24.8156078 13.4910571,24.7677992 C13.4073294,24.7199905 13.3114618,24.660042 13.143756,24.8276226 C12.9761754,24.9953283 12.8682931,24.9473945 12.7246168,24.9473945 C12.5808154,24.9473945 12.4730582,24.9236153 12.3412715,25.0313725 C12.20961,25.1391297 11.9221323,25.1510193 11.8382794,24.9595344 C11.7545517,24.7677992 11.6347798,24.7318801 11.4550593,24.8038434 C11.275464,24.8755564 11.3232726,24.8875711 11.275464,24.7437697 C11.2275302,24.6002186 11.1916111,24.504351 11.1077582,24.3844539 C11.0239053,24.2646819 10.9041334,24.1570499 10.9640819,24.0492927 C11.0239053,23.9412852 11.0118906,23.9054913 10.8561996,23.9412852 C10.7005086,23.9773294 10.6884938,23.9412852 10.7484424,23.8217636 C10.8082658,23.7019916 10.8682143,23.6539327 10.6047661,23.677837 C10.3411928,23.7019916 10.1495827,23.5702049 9.95797262,23.450433 C9.76636255,23.3306611 9.83820068,23.139051 9.58664206,23.1148963 C9.33520859,23.090992 9.21543665,23.019279 9.21543665,23.019279 C9.21543665,23.019279 8.83221651,22.9112715 8.7842827,23.090992 C8.73634889,23.2707125 8.58065789,23.7498003 8.42496688,23.7738297 C8.26927587,23.7976089 8.25726113,23.7857193 8.25726113,23.9054913 C8.25726113,24.0252632 8.23323165,24.2529175 8.05363632,24.300601 C7.87391583,24.34866 7.82610718,24.3965938 7.6943205,24.5641744 C7.56253382,24.7318801 7.55064423,24.6958359 7.64638669,24.8156078 C7.74225431,24.9353798 7.74225431,25.127115 7.63449711,25.1990783 C7.52661475,25.2707913 7.41885755,25.2948207 7.35903416,25.2348722 C7.29908561,25.1750488 7.21523274,25.1510193 7.21523274,25.2829312 C7.21523274,25.4144675 7.19132841,25.3666589 7.07155647,25.3547693 C6.95178453,25.3427546 6.85591692,25.4744161 6.78407879,25.558269 C6.67607128,25.5999451 6.68157804,25.5765414 6.60135461,25.4838026 C6.57131776,25.4490099 6.48759004,25.3035815 6.41124638,25.1677899 C6.34754323,25.0541505 6.25755783,24.8367588 6.17458103,24.739139 C6.04229374,24.5839486 5.90938068,24.7750581 5.7616995,24.6898285 C5.57997656,24.5848247 5.06572065,24.2341445 4.95170577,24.095224 C4.88549955,24.0150006 4.8748615,23.7883476 4.9174137,23.5524331 C4.93706281,23.4426735 4.97999047,23.3927372 4.83230929,23.3903593 C4.78662825,23.3986194 4.75358771,23.4032501 4.71203674,23.4265287 C4.52055182,23.5341607 4.46060327,23.5939841 4.31692701,23.4382931 C4.17312559,23.2827272 4.06536839,23.1509406 3.94559645,23.3185212 C3.82582451,23.4863521 3.63421443,23.8097488 3.63421443,23.989219 C3.63421443,24.1689395 3.61018495,24.3844539 3.46650869,24.504351 C3.32283242,24.6241229 3.27489861,24.54027 3.22696481,24.7437697 C3.179031,24.9473945 3.05925906,24.9953283 3.0712738,25.1510193 C3.08328854,25.3068355 3.03535473,25.2829312 2.97553134,25.2707913 C2.91558279,25.2587765 2.87966373,25.2829312 2.86764899,25.3905632 C2.8557594,25.4983204 2.77190653,25.5463794 2.65213459,25.5103351 C2.53236265,25.4744161 2.43649503,25.438497 2.41259071,25.5702837 C2.38856122,25.7019452 2.35264216,25.6302322 2.28080402,25.6180923 C2.20896589,25.6062028 2.19707631,25.7737834 2.08919395,25.9175848 C1.98143675,26.061261 2.0292454,26.1212096 1.89758388,26.1570035 C1.7657972,26.1930477 1.69395906,26.2769006 1.59809145,26.4327168 C1.50234899,26.5881575 1.47844466,26.8278265 1.35854757,26.8159369 C1.23877563,26.803797 1.14303317,26.8637456 1.2148713,26.9835175 C1.28670944,27.1034146 1.17895224,27.3547229 1.0591803,27.3069142 C0.939408358,27.2591056 0.867570225,27.1990319 0.735783544,27.2947744 C0.603996864,27.390642 0.412511945,27.3069142 0.316644331,27.390642 C0.220776718,27.4744948 0.113019518,27.6662301 0.280725264,27.737943 C0.448305858,27.8100315 0.663945411,27.7500829 0.663945411,27.8698549 C0.663945411,27.9896268 0.640041085,28.1214135 0.460320598,28.0495754 C0.280725264,27.9774869 0.160828171,27.8698549 0.0411813843,28.0374355 C-0.0785905557,28.2052664 0.101004778,28.372847 0.101004778,28.372847 L0.141304218,28.4854852 C0.24242828,28.6183982 0.223780403,28.6088865 0.35018548,28.4966238 C0.468205271,28.3917452 0.853427874,28.059087 1.04741586,28.1823633 C1.31587021,28.3530727 1.55979447,28.6703369 1.62074424,28.9019961 C1.68169402,29.1337805 1.87680839,29.5484142 1.87680839,29.6948438 C1.87680839,29.8411483 2.02323803,30.4754265 1.77931378,30.670666 C1.53538953,30.8657804 1.34027515,30.670666 1.21825045,30.97554 C1.09622575,31.2805392 0.88897148,31.4145787 0.98646609,31.634098 C1.08408585,31.8537424 1.01087103,32.2074264 1.23039034,32.3051713 C1.44990966,32.4026659 1.79145367,32.3294511 1.68169402,32.6708699 C1.57193436,33.0125391 1.49871954,33.061349 1.52312448,33.2076535 C1.54765457,33.353958 1.48657965,33.4759827 1.44990966,33.6466921 C1.43301393,33.7260394 1.44490352,33.8787268 1.44189983,34.0404251 C1.44039799,34.1239025 1.40798322,34.1581946 1.47907043,34.20738 L1.72987813,34.3971127 C1.72987813,34.3971127 1.84965007,34.4809656 2.01735582,34.5648185 C2.18506156,34.6485462 2.22098063,34.6967303 2.26878928,34.8762005 C2.31672309,35.055921 2.29281876,35.0439062 2.49644358,35.1517886 C2.69994324,35.2594206 2.87966373,35.2953397 3.25099429,35.3074796 C3.62232485,35.3193692 3.88577305,35.1517886 4.10128745,35.2474059 C4.19214892,35.2879556 4.34070618,35.3219974 4.49201681,35.3496563 C4.64320229,35.3771901 4.79701599,35.3983411 4.89876582,35.4132343 L4.9774874,35.4316319 C5.0852446,35.4472761 5.07936239,35.4688025 5.16834655,35.4020957 C5.23743131,35.3504073 5.30313692,35.2942133 5.28924488,35.23852 C5.26446447,35.1391481 5.23680554,34.6470444 5.28636634,34.5892234 C5.33592715,34.5314025 5.59124037,34.2150143 5.60776064,34.1490584 C5.61927477,34.1025013 5.77071055,33.9032568 5.91413651,33.7861131 C5.97458567,33.7368026 6.0337833,33.7021351 6.08046557,33.6995069 C6.10099075,33.7378039 6.18784731,33.694751 6.22126331,33.6814848 C6.31174932,33.6454406 6.39885618,33.6056417 6.55254473,33.6911216 C6.77594381,33.8150236 6.81724447,33.8812298 7.46266129,33.9723416 C8.10795296,34.0633282 8.26514581,34.0964939 8.36451772,34.0717135 C8.46363932,34.0469331 9.03458979,33.8647096 9.05111005,33.558584 C9.06775547,33.2525836 9.06775547,32.9878838 9.26624899,32.9547182 C9.46486766,32.9215525 9.72956741,33.1614718 9.8122939,33.2940094 C9.89502039,33.4262967 10.0853789,33.6247902 10.0274328,33.8068886 C9.96948675,33.9888619 9.83719945,34.3777139 10.0604734,34.5017411 C10.2839976,34.6258934 10.5072715,34.5596872 10.6314238,34.5515522 C10.7555761,34.5431669 11.2601952,34.6094983 11.2933609,34.7996065 C11.3264015,34.9900902 11.2767155,35.2713102 11.4091279,35.3456514 C11.5415404,35.4201178 11.8889666,35.6353819 11.9303924,35.7098482 C11.9716931,35.7841894 12.0296392,35.9661627 12.071065,36.1731666 C12.1123657,36.3800455 12.0545448,36.4296063 12.1620517,36.5618936 C12.2695585,36.6944312 12.4351367,36.851624 12.4351367,37.0335973 C12.4351367,37.1045593 12.4565379,37.1768981 12.4872006,37.2408515 C12.5052227,37.2783976 12.5571614,37.3287093 12.5396399,37.3632517 C12.545397,37.3632517 12.5231196,37.4000468 12.4860742,37.4562408 C12.4099808,37.5710066 12.2714359,37.7654952 12.182702,37.8852671 C12.0504147,38.0637361 11.9248857,38.0373287 11.7794573,38.0836355 C11.634154,38.1300674 11.3630714,38.2554713 11.2043767,38.4737391 C11.157319,38.5383183 11.0949926,38.6137859 11.0275348,38.690505 L10.9993752,38.7771113 L10.9634562,39.2799782 L10.7066411,40.0078712 C10.7066411,40.0078712 10.4922531,40.2507942 10.5350556,40.5504118 C10.5510753,40.6627997 10.6262925,40.6743138 10.6252913,40.7839483 C10.6236643,40.9667976 10.3829941,41.3233601 10.3829941,41.3233601 L10.3300541,41.3611564 C10.3300541,41.3611564 10.2424466,41.4049602 10.0891335,41.2954508 C9.9359456,41.1859415 9.76085579,41.1859415 9.79364602,41.3282411 C9.82643625,41.4706658 10.0125396,41.656644 9.9359456,41.7990687 C9.85935163,41.9412431 9.82643625,41.9522566 9.83744976,42.1163329 C9.84833812,42.2806595 10.0782452,42.4557493 9.8812535,42.5980489 C9.68413667,42.7403485 9.71705205,42.7294601 9.62944457,42.8389695 C9.54183709,42.9483537 9.53094873,43.0140593 9.51993522,43.1234435 C9.50904686,43.2329528 9.4324529,43.3094216 9.34484542,43.342337 C9.25736309,43.3752524 9.26825145,43.4628599 9.29015332,43.6051595 C9.31205519,43.7473339 9.37763564,43.7363204 9.4324529,43.725432 C9.48714499,43.7145436 9.53094873,43.9662274 9.41055103,44.0866251 C9.29015332,44.2070228 9.35573377,44.2290499 9.34484542,44.3604611 C9.33395706,44.4918723 9.33395706,44.4260415 9.23546122,44.5683411 C9.13684023,44.7106407 9.24634958,44.8528151 9.12595187,44.973338 C9.00555416,45.0937357 8.97263878,45.1485529 8.98352714,45.279839 C8.99454065,45.4111251 8.91794668,45.5096209 8.84135272,45.6191303 C8.76475875,45.7285145 8.74285688,45.8053587 8.61144566,45.7176261 C8.48003444,45.6300186 8.34874837,45.5645633 8.25025254,45.4987325 C8.1517567,45.4331521 8.14074319,45.4878442 8.11884132,45.662934 C8.09693945,45.8380238 8.05313571,46.1336365 8.04224735,46.2650477 C8.03123384,46.3963338 7.932738,46.8014558 8.03123384,46.9764204 C8.12985483,47.1515102 8.19543528,47.2501312 8.09693945,47.3487522 C7.99844361,47.4472481 8.12985483,47.4691499 8.18454693,47.5237169 C8.23936418,47.5785341 8.28304276,47.600436 8.23936418,47.6771551 C8.19543528,47.7537491 8.2721544,47.7975528 8.45813257,47.7975528 C8.64423589,47.7975528 8.68803963,47.8412314 8.63334753,47.9506156 C8.57865543,48.0601249 8.62233402,48.0930403 8.74285688,47.983531 C8.86325459,47.8741468 8.89604481,47.9397272 9.10405,47.983531 C9.31205519,48.0274599 9.44334125,48.0274599 9.35573377,48.1586208 C9.26825145,48.2899069 9.32294355,48.3885278 9.41055103,48.5089256 C9.49803335,48.6293233 9.51993522,48.8045382 9.45422961,48.9577262 C9.38864916,49.1110392 9.36674729,49.0890122 9.36674729,49.2532137 C9.36674729,49.4175403 9.49803335,49.5160361 9.56373896,49.3299328 C9.62944457,49.1437043 9.72794041,49.1437043 9.83744976,49.1657313 C9.86135409,49.170362 9.88425718,49.1737412 9.90628421,49.1744921 C9.98463033,49.1769952 10.051212,49.1479595 10.1110354,49.0452085 C10.1379434,48.9990268 10.1717349,48.9569752 10.2040245,48.9218071 L10.2592172,48.8664892 C10.2679779,48.8583542 10.3428198,48.7913971 10.3530824,48.8025358 C10.3610922,48.8095444 10.3692272,48.8160523 10.3774873,48.8224352 C10.4358088,48.8667395 10.5050188,48.8926463 10.6209109,48.8926463 C10.6650901,48.8926463 10.6717233,48.7946511 10.7123982,48.793775 C10.7912449,48.7918977 10.7955001,48.7895198 10.7914952,48.8624843 C10.7914952,48.8624843 10.6833626,49.416539 10.6593331,49.6214154 C10.6353036,49.8261666 10.6471932,50.0190282 10.611149,50.1513155 C10.5751047,50.2838531 10.4549573,50.4162655 10.5510753,50.4886043 C10.6471932,50.560943 10.7072669,50.5850977 10.8155247,50.5127589 C10.9237825,50.4404202 11.0679594,50.4765895 11.1281582,50.657061 C11.1883571,50.8379078 11.284475,50.8497974 11.4407918,50.8981067 C11.5971086,50.9462908 11.7773297,50.9340257 11.7773297,51.1390272 C11.7773297,51.3437784 11.8976022,51.6087285 11.813499,51.7049716 C11.7292707,51.8014649 11.6812117,51.8496491 11.813499,51.9458921 C11.8961004,52.0062161 11.936525,52.0099707 11.9933447,51.9895707 C12.0273864,51.9773057 12.0675607,51.956405 12.1261326,51.9338774 C12.1977204,51.9063436 12.2713107,51.8947043 12.3460274,51.8811877 C12.4539097,51.8692982 12.4803171,51.845519 12.5455221,51.9161056 C12.5934559,51.9676688 12.6386363,52.0214849 12.6771836,52.0749254 C12.7009628,52.107966 12.7219886,52.1415071 12.7398856,52.1739219 L12.7993335,52.1989526 C12.7993335,52.1989526 13.0879376,52.3795492 13.1480113,52.235122 C13.208085,52.0904445 13.2923133,52.0303708 13.3764165,52.1989526 C13.4606448,52.3674093 13.4364902,52.4035786 13.68905,52.3795492 C13.9414847,52.3555197 13.881411,52.3433798 13.9414847,52.4757922 C14.0016836,52.6083298 13.9414847,52.6444992 13.8693963,52.6686538 C13.7973078,52.6926833 13.7973078,52.7890515 13.7731532,52.9454935 C13.7491237,53.1021857 13.7491237,53.1985539 13.8093226,53.355121 C13.8693963,53.5116881 13.8573815,53.5116881 13.8693963,53.6441005 C13.881411,53.7766381 13.7851679,53.7527338 13.6288512,53.5840268 C13.4726596,53.4151947 13.3283575,53.0541267 13.2200997,52.9938027 C13.111967,52.9336039 13.0277387,52.9215891 12.919606,53.0179574 C12.8790563,53.0540016 12.8485188,53.090171 12.8262415,53.121209 C12.7835641,53.1810324 12.7660427,53.1900435 12.7929507,53.249992 C12.8100967,53.4352193 12.7879445,53.6430993 12.6849432,53.7901547 C12.5352595,54.0042924 12.3423979,54.4110415 12.3423979,54.4110415 C12.3423979,54.4110415 12.2750653,54.541076 12.2156174,54.7075302 C12.1877081,54.785626 12.2069818,54.7832481 12.1241301,54.7968898 L11.9739459,54.8219205 L11.8685666,54.8360629 L11.7830867,54.8510813 C11.7830867,54.8510813 11.5312778,54.8781145 11.3155131,54.9499526 C11.1672061,54.9995134 11.1080085,55.1210375 11.085606,55.192375 C11.0753434,55.2246646 11.0727152,55.2466917 11.0727152,55.2466917 C11.0292869,55.3150255 11.0249066,55.3052635 11.1076331,55.2898696 C11.3307818,55.2480683 11.8327727,55.1504486 11.9583017,55.1922499 C12.0838307,55.2340511 12.4325085,55.3595802 12.5301282,55.5548197 C12.627748,55.7501844 12.5457724,55.9578141 12.4780643,56.0460473 C12.4102311,56.1341554 11.8676905,56.6630543 11.8676905,56.6630543 C11.8676905,56.6630543 11.7063676,57.1191138 11.6166325,57.1639188 C11.5268974,57.2088489 11.1007496,57.3209865 11.033417,57.4667903 C10.9660844,57.6125942 10.8539468,57.9716597 10.6968791,58.1174636 C10.5399366,58.2632675 10.3716051,58.6220827 10.4052714,58.8801493 C10.4389377,59.1380908 10.3828689,59.3286996 10.3828689,59.3286996 C10.3986382,59.4541034 10.3774873,59.4100494 10.483242,59.4166825 C10.5391857,59.420312 10.6070189,59.4383341 10.6913724,59.4768814 C10.8629579,59.5552275 11.0503127,59.5790067 11.1762172,59.6831344 C11.3380407,59.8169236 11.4225194,60.0286834 11.4918544,60.0791202 C11.6151307,60.1688553 11.5630668,60.422917 11.9107433,60.422917 L11.9268881,60.4242937 C12.2745647,60.4242937 12.3232494,60.5738522 12.390582,60.6634621 C12.4579146,60.7531972 12.5476497,61 12.6485235,61 C12.7495224,61 12.8505213,61 12.8840624,60.8877373 C12.9177287,60.7757249 12.9963252,60.5401859 13.142129,60.4841171 C13.2879329,60.4279232 13.5458744,60.3717292 13.6916782,60.3494519 C13.8374821,60.3269242 14.1066874,60.2597168 14.2300888,60.0689828 C14.3534902,59.878374 14.4656278,59.5867662 14.544099,59.4970311 C14.6225703,59.4071709 14.6899029,59.2052982 15.2283134,59.1268269 C15.766724,59.0483557 16.0022629,59.1717571 16.1928718,58.9584954 C16.3836058,58.7454841 16.4957434,58.8128167 16.5070072,58.5771526 C16.518271,58.3417388 16.5294097,58.4090714 16.6078809,58.229476 C16.6864774,58.050131 16.5742146,57.6575243 16.7425462,57.534123 C16.9107525,57.4107216 17.0117514,57.1975851 17.0678202,57.0855727 C17.123889,56.9733099 17.5052318,56.6256334 17.6510357,56.5583008 C17.7968396,56.4910933 18.0997112,56.2890955 18.2342512,56.1769579 C18.3689164,56.0648204 18.6157192,55.941419 18.8175919,56.0534314 C19.0194645,56.1658193 19.1764071,56.266693 19.232601,56.4461632 C19.2885447,56.6256334 19.2998085,56.9396436 19.6587488,56.9509074 C20.0176892,56.9620461 20.118563,56.9733099 20.2308257,56.8947135 C20.3219375,56.8310104 20.642706,56.7745661 20.8738646,56.7978447 C20.9762402,56.8079821 21.0353127,56.8153662 21.1201668,56.8626742 C21.2733547,56.9479038 21.3804861,57.0808168 21.4167807,57.2720514 C21.4617108,57.5077156 21.3607119,57.6422556 21.4841133,57.7543932 C21.6075147,57.8665308 21.7981235,57.956391 21.8430536,58.1582637 C21.8878586,58.3600112 21.7420547,58.5731477 22.0225238,58.6292164 C22.3028677,58.6854104 22.7567996,58.7627553 22.8129936,58.7403528 C22.8690624,58.7178252 23.2278776,58.5945489 23.351279,58.6955478 C23.4746803,58.7964216 23.8896895,59.1553619 24.0354934,59.1216956 C24.1812972,59.0880293 24.5851677,59.1329595 24.6973053,59.2562357 C24.8094429,59.3797622 25.459991,59.9629777 25.5160598,60.0077827 C25.5721286,60.0527128 25.7628626,60.2545855 26.1105391,60.1200454 C26.4582156,59.9852551 26.4694795,59.7498413 26.6488245,59.7835076 C26.8284198,59.8171739 27.4115102,59.7722437 27.4789679,59.8619788 C27.5461754,59.9517139 27.658313,60.276988 27.8265193,60.3330568 C27.9948508,60.3891256 28.1069884,60.602262 28.2079873,60.7480659 C28.3088611,60.8938698 28.5219976,61.0173963 28.6117326,60.8603286 C28.7014677,60.703261 28.779939,60.4451943 28.925868,60.3444457 C29.0715468,60.2433217 29.4417509,60.1087816 29.5538885,60.086254 C29.6274788,60.071611 29.7692778,59.9324403 29.8580116,59.83845 C29.8989368,59.7951468 29.9464952,59.7763738 29.9240927,59.7229333 C29.9386105,59.6329479 29.9717762,59.5233134 30.0473689,59.4917747 C30.1820341,59.4357059 30.4287118,59.289902 30.4063093,59.099168 C30.3839068,58.9085592 30.5073082,58.6506177 30.563377,58.6056876 C30.6194458,58.5608826 30.8437209,58.3590099 30.6867784,58.0898047 C30.5297107,57.8205994 30.507183,57.4179805 30.4625032,57.3058429 C30.434594,57.2360072 30.3303411,57.133131 30.1978035,57.0153615 C30.1716464,56.9321344 30.0317247,56.7395231 30.1198328,56.7018519 C30.2115704,56.6626788 30.4155707,56.781825 30.5148174,56.7297611 C30.5775193,56.6967206 30.7246999,56.5049854 30.7843981,56.4703178 C30.8718805,56.4196307 31.1120501,56.5316431 31.1571054,56.5328946 C31.2891424,56.5368995 31.8308069,56.4635595 31.9990133,56.4410319 C32.1673448,56.4185043 32.5823539,56.2504231 32.716894,56.1381603 C32.8514341,56.0261479 32.8066291,56.1381603 33.3002347,55.9923565 C33.7937151,55.8465526 33.9395189,55.77922 34.1077253,55.6334161 C34.2759317,55.4876122 34.7022046,55.2408094 34.7022046,55.2408094 L34.7582734,55.1848658 L34.969032,55.1114007 C34.969032,55.1114007 35.294306,55.1338032 35.4177074,54.9881244 C35.5411088,54.8421954 36.0793942,54.5169214 36.090658,54.3598537 C36.1019219,54.2029111 36.0793942,54.0121771 36.2477257,53.967247 C36.4159321,53.922442 36.7300675,53.7766381 36.9206763,53.8552346 C37.11116,53.9337058 37.1786178,54.0569821 37.358088,53.8889009 C37.5375581,53.7205694 37.638557,53.6084318 37.8514432,53.7093055 C38.0647049,53.8104296 38.1543148,53.8327069 38.3227715,53.787902 C38.4909778,53.7429718 38.7376555,53.6981669 38.8723207,53.6869031 C39.0068607,53.6756392 39.2087334,53.6533619 39.2199972,53.507558 C39.231261,53.3617542 39.3209961,53.0476188 39.4555362,52.935356 C39.5902014,52.8233436 39.5676737,52.7784135 39.7584077,52.8568848 C39.8775539,52.905945 40.0437578,52.976907 40.1398757,53.0807845 C40.2435029,53.1452385 40.210963,53.1200827 40.258271,52.9951794 C40.2848035,52.9250934 40.3110858,52.8456209 40.303076,52.8078246 C40.2870563,52.7321067 40.590804,52.474791 40.590804,52.474791 C40.590804,52.474791 40.6059475,52.0659144 40.6512531,51.9903216 C40.696809,51.9144786 40.6412408,51.336895 40.5506297,51.2763207 C40.4597682,51.2156212 40.303076,51.2182494 40.2576452,51.0516701 C40.2122145,50.8852159 40.1185996,50.4501821 40.1337432,50.2685844 C40.1488868,50.0868614 40.4696553,50.0674626 40.4696553,50.0674626 C40.4696553,50.0674626 40.4999425,49.7041419 40.8935504,49.4618446 C41.2871583,49.2197977 41.3023018,49.1439546 41.3174454,49.0532183 L41.3384712,48.949466 C41.3384712,48.949466 41.3996713,48.7109234 41.4090578,48.6827638 C41.4184443,48.6542288 41.4549892,48.6447171 41.5123095,48.6254435 L41.4977917,48.6289478 C41.6850214,48.565495 42.0627348,48.5464716 42.2027816,48.5464716 L42.3320652,48.5430925 L42.4250543,48.5389624 L42.5592189,48.5269477 C42.5838741,48.5016666 42.6084042,48.4715046 42.6316828,48.438339 C42.6828706,48.3656247 42.794883,48.154741 42.8704757,47.9826549 L42.9227899,47.9822794 C42.9227899,47.9822794 43.2833573,48.1467312 43.3062604,48.3081793 C43.3194015,48.3987904 43.1791044,48.6138042 43.2878628,48.7243148 C43.3724666,48.8101701 43.6310338,48.9626071 43.7823444,49.0029066 C44.128394,49.0952699 44.4370226,49.8309224 44.4370226,49.8309224 C44.4370226,49.8309224 44.0626884,50.3188961 44.2011082,50.5727075 C44.2833341,50.7233923 44.5920879,50.6714536 44.8601667,50.6757088 C45.2445133,50.6814659 45.1601598,50.7390365 45.3893159,50.8713238 C45.535245,50.9558025 45.6278586,51.049167 45.6278586,51.049167 C45.6278586,51.049167 45.4512669,51.3312631 45.4512669,51.5024731 C45.4512669,51.673558 45.6381212,51.6423948 45.6848034,51.969421 C45.7314857,52.296322 45.7027004,52.3677847 45.8444994,52.4207247 C45.9237216,52.4503861 46.0412407,52.3879344 46.1595108,52.3242313 L46.2690202,52.2646582 C46.3061908,52.2492643 46.3416092,52.238376 46.3737737,52.2354974 L46.447364,52.1993281 C46.5222058,52.1993281 46.4900413,52.2637821 46.5008045,52.3602755 C46.5114426,52.456894 46.4456118,52.5487567 46.4456118,52.5487567 C46.4456118,52.5487567 46.2617613,52.8071988 46.2292213,52.9852923 C46.1874201,53.214073 46.335727,53.2940461 46.4319701,53.3641321 C46.6031801,53.4885347 46.8833989,53.1991797 46.9922825,53.090171 C47.1012912,52.9812874 47.6617288,53.0053169 47.8329388,53.0364801 C48.0041489,53.0676433 48.0663502,52.8099522 48.3310499,52.3585234 C48.5956245,51.9072197 48.8544421,52.2651588 48.7764714,52.3896866 C48.698751,52.5142144 48.7046333,52.8877977 48.7202775,53.0434887 C48.7357965,53.1991797 49.0160153,53.1368532 49.0782166,53.3859088 C49.1053749,53.4949175 49.0799687,53.7582406 49.1352866,53.7387166 C49.206499,53.7136859 49.4489214,53.4328414 49.4927251,53.3627554 C49.5704455,53.2383528 49.7631819,53.1058152 49.8565465,53.1991797 C49.9497859,53.2925442 49.7695648,53.6931607 49.8877097,53.755362 C49.9835773,53.8059241 50.0388952,53.8662481 50.1108585,54.074879 C50.1273787,54.1231883 50.1450254,54.1792571 50.1639236,54.2448376 C50.1830721,54.3105432 50.2725568,54.4308157 50.1521591,54.5622269 C50.0317614,54.693513 49.9113637,54.7920088 50.1411456,54.7920088 C50.3710527,54.7920088 50.4586602,54.7373167 50.4586602,54.7373167 L50.6034628,54.6865044 C50.8839319,54.8335598 51.226352,54.537822 51.226352,54.537822 C51.226352,54.537822 51.6197096,54.4147961 51.7661392,54.3191788 C51.8712682,54.2504695 52.2956639,54.0776324 52.5179365,53.9447194 C52.6050434,53.8926555 52.605544,53.8280763 52.6273207,53.8061744 C52.7051662,53.7283289 53.1565951,53.572763 53.2811228,53.6038011 C53.4056506,53.6349643 53.7170326,53.6349643 53.7120265,53.6466036 C53.7877444,53.6352146 54.1907388,53.3588756 54.3290335,53.3588756 C54.467203,53.3588756 54.4902312,52.6680281 54.5478018,52.5182193 C54.6053725,52.3685356 54.5362877,51.0903425 54.5478018,51.0327719 C54.559316,50.9752013 54.9047398,50.9061165 54.9047398,50.9061165 C54.9047398,50.9061165 55.3077342,50.6412916 54.9853386,50.5147614 C54.8644403,50.4673282 54.6521799,50.4554386 54.6392891,50.4045011 C54.618013,50.3195218 54.8586832,50.2036297 54.8586832,50.2036297 C54.8586832,50.2036297 55.0709437,49.9164023 55.4395208,50.2849795 C55.4798203,50.3254041 55.4716853,50.4539368 55.5030988,50.4754632 C55.5992168,50.5410436 55.676812,50.5145111 55.7360096,50.4508079 C55.7952072,50.3871048 55.6724316,50.1436811 55.6958353,50.0608295 C55.7114795,50.0052613 55.8725521,50.0126454 55.8725521,49.989492 C55.8725521,49.8858648 55.9900713,49.7126523 56.1690408,49.7399358 C56.3478852,49.7672193 56.4755419,49.4446986 56.5814218,49.1724896 C56.6874268,48.9000304 56.9543793,48.9946464 56.9543793,49.0639815 C56.9543793,49.1330663 57.2537466,49.5244214 57.4149443,49.5359355 C57.5761421,49.5475748 57.7205693,49.8375556 57.7205693,49.8375556 C57.7205693,49.8375556 57.7065521,50.179475 57.8408419,50.2795979 C57.9111781,50.3320372 58.1199343,50.207134 58.2583541,50.1714652 C58.4055346,50.1339191 58.6041533,50.054697 58.7159154,50.1594505 C58.8146616,50.2516886 58.8293045,50.5237724 58.9227942,50.5759615 C59.0135305,50.6265235 59.2458155,50.4685797 59.2458155,50.4685797 L59.6833523,51.0444112 C59.6833523,51.0444112 59.9481772,51.5855751 60.1324032,51.7814404 C60.3165041,51.9770554 60.353925,52.2306164 60.3977287,51.9789327 C60.4415325,51.7271237 60.4962246,51.5848242 60.4087422,51.4207479 C60.3211348,51.2564213 60.3211348,51.1142468 60.3211348,50.9828356 C60.3211348,50.8514244 60.3102464,50.7639421 60.1569333,50.7200132 C60.0037454,50.6763346 60.0037454,50.7200132 60.0584375,50.4246508 C60.1132547,50.1290382 60.1022412,49.8663409 60.2117506,49.8882427 C60.3211348,49.9101446 60.5072381,49.9868637 60.375952,49.767845 C60.2445408,49.5489515 60.353925,49.4285538 60.4524208,49.3299328 C60.5510418,49.231437 60.7261316,49.1220528 60.9013466,49.1547178 C61.0764364,49.1876332 61.1859457,49.231437 61.0983383,49.0673607 C61.0106056,48.9031592 60.7480335,48.8702438 60.7808237,48.7059172 C60.8137391,48.5418409 60.7808237,48.4323316 60.8903331,48.3557376 C60.9997173,48.2790185 61.0545345,48.2463534 61.0764364,48.0601249 C61.0983383,47.8741468 61.3063434,47.8850351 61.3938258,47.8412314 C61.4814332,47.7975528 61.6347463,47.6661416 61.8536399,47.6771551 C62.0725334,47.6880435 62.3899228,47.699057 62.2805386,47.906937 C62.1711544,48.1149422 62.2039446,48.0382231 62.3352307,48.1695091 C62.4666419,48.3009204 62.5323475,48.4105549 62.3899228,48.5418409 C62.2477484,48.6732522 62.2257214,48.6622386 62.3680209,48.8154266 C62.5103205,48.9687397 62.5870396,49.1876332 62.696549,49.0234318 C62.8059332,48.8592303 62.9592463,48.8154266 63.1453496,48.7826363 C63.3312026,48.7498461 63.4189352,48.7278191 63.5065427,48.8154266 C63.594025,48.9031592 63.7473381,48.979628 63.9115396,48.8373284 C64.075741,48.6950289 64.1742369,48.7278191 64.3056481,48.8702438 C64.4369342,49.0125434 64.458836,49.056222 64.612024,48.9906415 C64.765337,48.9248108 64.9294133,49.001655 64.9951189,49.1437043 C65.0608246,49.2860039 65.1703339,49.2751155 65.3564372,49.1986467 C65.5425405,49.1220528 65.9474123,48.8921457 65.7395322,48.7387075 C65.531527,48.5855195 65.3235218,48.5418409 65.3673256,48.2790185 C65.4111293,48.0164464 65.4220177,47.9397272 65.3454237,47.906937 C65.2688297,47.8741468 65.2360395,47.7317221 65.2907316,47.6441146 C65.3454237,47.5567574 65.2798433,47.3814173 65.4439196,47.2283545 C65.608121,47.0749163 65.7176303,47.0530144 65.7613089,46.7904423 C65.8052378,46.5276198 65.783336,46.5715487 65.6738266,46.4840664 C65.5643173,46.3963338 65.5096252,46.3963338 65.4987368,46.3307533 C65.4877233,46.2650477 65.3892275,46.275936 65.3673256,46.3963338 C65.3454237,46.5167315 65.148432,46.5605352 65.1156418,46.4620394 C65.0826013,46.3635435 65.0389227,46.3087263 64.9294133,46.3526552 C64.8593274,46.3202404 64.8770992,46.3338821 64.8373003,46.4008393 C64.7364266,46.5709229 64.6170301,46.7538974 64.5749785,46.7906926 C64.4926275,46.8552718 64.4643428,46.9224792 64.3853709,46.9898119 C64.324296,47.0423763 64.2381903,47.0838022 64.1304331,47.0530144 C63.9006512,46.9875591 63.9552182,47.0312377 63.8676107,47.0968181 C63.7801284,47.1625237 63.6596055,47.042126 63.6378288,46.9436302 C63.6159269,46.8451344 63.6269404,46.7795539 63.692646,46.7246115 C63.7582265,46.6700446 63.8567223,46.4840664 63.97712,46.429124 C64.0976429,46.374557 64.1194196,46.374557 64.228929,46.429124 C64.3384383,46.4840664 64.5135281,46.451151 64.5792337,46.3087263 C64.6448142,46.1664267 64.6339258,46.1664267 64.7541984,46.1008462 C64.870466,46.0375185 64.7917444,46.0189958 64.7762254,45.9257564 C64.7541984,45.7943452 64.8091408,45.7724433 64.918525,45.761555 C65.0614503,45.7472875 65.1908591,45.734647 65.331782,45.7058617 C65.331782,45.7058617 65.4787122,45.662934 65.5954805,45.6440358 C65.7945998,45.6121217 65.7024868,45.7104923 65.8300182,45.5395326 C65.9009803,45.4445411 66.0173731,45.3155078 66.1335156,45.3017409 C66.3196189,45.279839 66.604218,45.4331521 66.5167357,45.6300186 C66.4291282,45.8271354 66.4072264,45.9147429 66.4620436,45.9913369 C66.5167357,46.0678057 66.6918255,46.0899579 66.7247409,45.9913369 C66.7575311,45.8928411 66.7684195,45.8928411 66.8888172,45.8162471 C67.0092149,45.739528 67.0202284,45.640907 66.9217326,45.5424111 C66.8232367,45.4440405 66.7903214,45.3455446 66.9436345,45.3565581 C67.0968224,45.3674465 67.3705332,45.4987325 67.2610238,45.6191303 C67.1515145,45.739528 67.1734164,45.8162471 67.2610238,45.8380238 C67.3486313,45.8599257 67.3705332,45.9584215 67.2938141,46.0351406 C67.2172201,46.1118598 67.3595197,46.1773151 67.5127076,46.1992169 C67.6660207,46.2212439 67.8740259,46.2868244 67.852124,46.3635435 C67.8302221,46.4400123 68.0163255,46.4730529 68.1476115,46.4620394 C68.2790227,46.451151 68.4322107,46.451151 68.4979163,46.3416417 C68.5636219,46.2322575 68.694908,46.2541593 68.7825154,46.2541593 C68.8701229,46.2541593 68.8480959,46.0899579 68.7825154,45.9913369 C68.7168098,45.8928411 68.694908,45.7067377 68.7606136,45.5205093 C68.8263192,45.3346563 68.8263192,45.2031199 68.8480959,45.0718338 C68.8701229,44.9405478 68.8592346,44.8638286 69.0233109,44.8528151 C69.1875123,44.8419268 69.1438337,44.8528151 69.2860081,44.6230332 C69.4283077,44.3931262 69.5049017,44.3385592 69.483125,44.1961345 C69.4612231,44.0539601 69.5707325,44.0210447 69.6911302,43.9552139 C69.8115279,43.8896335 69.9319256,43.7693609 69.9538275,43.6159227 C69.9756042,43.4628599 69.9756042,43.3533505 69.8553316,43.3094216 C69.7346836,43.2658682 69.5269287,43.1781356 69.8224162,43.0468495 C70.1180289,42.9155634 70.4902355,42.7731387 70.4902355,42.5104414 C70.4902355,42.2478693 70.5777179,42.061766 70.3588243,42.0397389 C70.1398056,42.0179622 70.1508191,41.8974394 70.1508191,41.7660281 C70.1508191,41.6347421 70.1946229,41.4376253 70.2931187,41.4267369 C70.3916145,41.4157234 70.785723,41.4487639 70.8295268,41.2845625 C70.8733305,41.120361 70.6981156,40.8575386 70.5449276,40.7809446 C70.3916145,40.7044758 70.3260341,40.7590427 70.2931187,40.4964706 C70.2603285,40.2336482 70.1836094,40.2007328 70.2712168,40.1460407 C70.3588243,40.0912234 70.3807262,39.9818392 70.2822303,39.9818392 C70.1836094,39.9818392 70.1398056,39.9927276 70.0741,39.7629457 C70.0085195,39.5330386 69.9426888,39.5440522 70.0304214,39.4127661 C70.1180289,39.2813549 70.1508191,39.0843632 70.249315,38.9639655 C70.3478108,38.8435678 70.3916145,38.7340584 70.3260341,38.6682277 C70.2603285,38.6027724 70.0195331,38.6355626 70.0741,38.7558351 C70.1289173,38.8762329 70.1508191,38.9857422 70.0195331,38.952952 C69.8881218,38.9200366 69.6801167,38.952952 69.406531,39.0405595 C69.1328202,39.1281669 68.9905206,39.2375511 68.9686188,39.2923684 C68.9467169,39.3470605 68.8372075,39.3032567 68.7825154,39.2265376 C68.7278234,39.1500688 68.6074256,39.1500688 68.6074256,39.0295459 C68.6074256,38.9090231 68.3994205,38.8653445 68.2790227,38.8872464 C68.158625,38.9090231 68.027339,38.9420636 68.0382273,38.7558351 C68.0491157,38.5697318 67.8849142,38.2524676 68.1039329,38.2524676 C68.3228265,38.2524676 68.33384,38.2413289 68.2571209,38.0663643 C68.1805269,37.8911493 68.2462325,37.6722558 68.3556167,37.6612423 C68.4651261,37.6503539 68.4870279,37.4862776 68.519693,37.3110627 C68.5527335,37.1358477 68.8810113,36.938856 69.0233109,36.8732756 C69.1656104,36.8074448 69.3736156,36.7199625 69.1875123,36.6542569 C69.001409,36.5885513 69.0561011,36.45714 69.1547221,36.3476307 C69.2532179,36.2382465 69.4174194,36.1836795 69.2751198,36.0850586 C69.1328202,35.9865627 69.1109183,35.9318706 69.2860081,35.8988301 C69.4612231,35.866165 69.6035227,35.6690482 69.5378171,35.5815659 C69.4722366,35.4939584 69.4502096,35.406476 69.4283077,35.2860783 C69.406531,35.1655555 69.3627273,35.1764438 69.3189235,35.1107382 C69.2751198,35.0452829 69.2313161,34.9795773 69.2532179,34.8481661 C69.2751198,34.7167549 69.2642314,34.4868478 69.1764988,34.410379 C69.0890165,34.3336599 68.9905206,34.3008697 68.9576053,34.1256547 C68.924815,33.9504397 68.8263192,33.9943686 68.7606136,34.0819761 C68.694908,34.1695836 68.4651261,34.0710878 68.3119381,33.9176495 C68.158625,33.7645867 68.0710176,33.7206578 68.0601292,33.5346797 C68.0491157,33.3484512 68.1476115,33.4251703 68.2024288,33.4032684 C68.2571209,33.3812414 68.2571209,33.2828707 68.4432242,33.3375628 C68.6292024,33.3922549 68.9686188,33.5017643 69.0453379,33.414282 C69.1218067,33.3266745 69.3517138,33.2389418 69.2313161,33.1733614 C69.1109183,33.1077809 69.1328202,33.0530888 69.2423296,33.0530888 C69.3517138,33.0530888 69.4502096,33.0858791 69.483125,33.1623479 C69.5159152,33.2389418 69.6363129,33.0968926 69.5816208,32.9654814 C69.5269287,32.833945 69.5707325,32.7684897 69.7129069,32.7465878 C69.8553316,32.7246859 69.9209121,32.5385826 70.0741,32.5057924 C70.2274131,32.4727519 70.2822303,32.4727519 70.3369224,32.5821361 C70.3916145,32.6916454 70.5449276,32.5166808 70.6543118,32.374256 C70.7638212,32.2320816 70.7419193,32.2101797 70.6434235,32.0568666 C70.5449276,31.9036787 70.479222,31.7941694 70.5887314,31.6628833 C70.6981156,31.5314721 70.7419193,31.4985567 70.7309058,31.2686496 C70.7200174,31.0387426 70.8295268,30.8637779 70.6543118,30.8527644 C70.479222,30.8417509 70.4354183,30.8527644 70.4245299,30.7433802 C70.4077593,30.5754242 70.2080143,30.7631545 70.1836094,30.819849 C70.1180289,30.9732873 70.0085195,31.1155868 69.9209121,31.0060775 C69.9100237,30.9923106 69.9001366,30.9784186 69.8910004,30.9642762 L69.8528285,30.8929387 C69.8363083,30.8465067 69.8211647,30.7941926 69.8211647,30.7941926 C69.8025168,30.7371225 69.7905021,30.7462587 69.8374347,30.7102145 C69.9267943,30.6415052 70.0161539,30.6093408 70.0831111,30.5770512 C70.1463136,30.5463885 70.1465639,30.5191051 70.2165247,30.5243615" id="贵州"></path>
            </g>
        </g>
    </g>
</svg>