<?xml version="1.0" encoding="UTF-8"?>
<svg width="120px" height="120px" viewBox="0 0 120 120" version="1.1" xmlns="http://www.w3.org/2000/svg" xmlns:xlink="http://www.w3.org/1999/xlink">
    <title>jdo_cn_ximalaya_radio_province_fujian</title>
    <g id="jdo_cn_ximalaya_radio_province_fujian" stroke="none" stroke-width="1" fill="none" fill-rule="evenodd">
        <g id="编组">
            <rect id="矩形" x="0" y="0" width="120" height="120"></rect>
            <g id="福建" transform="translate(26.000000, 21.000000)" fill="#FFFFFF" fill-opacity="0.189284" fill-rule="nonzero">
                <path d="M42.3790006,0.348012035 C42.4944867,0.191741345 42.712014,-0.12395702 42.9043495,0.0516860705 C43.0971095,0.22747266 42.9252955,0.460084955 43.1370202,0.752823438 C43.1634858,0.789415749 43.1089978,1.04312243 43.1313591,1.0698133 C43.198443,1.15002938 43.3879479,1.01427908 43.4204991,1.05632437 C43.4638065,1.11243258 43.4778177,1.16854078 43.6414231,1.20742908 C43.7436057,1.23182396 43.820738,1.09808265 43.8902279,1.07153529 C44.0432188,1.01298759 44.1265783,1.02762451 44.1265783,1.2424429 C44.1265783,1.36259593 44.0190511,1.52280564 43.8943758,1.68424165 L43.7423185,1.87606834 C43.5935986,2.06351338 43.4722437,2.23035801 43.5344285,2.30950337 C43.5831139,2.37135155 43.9335352,2.30175441 44.0408128,2.41224884 C44.132664,2.50652785 44.0068463,2.71603677 44.0694013,2.81002878 C44.1360606,2.91033476 44.1671966,3.00102629 44.1228986,3.06244397 C43.9881647,3.24899301 43.6745405,3.36766689 43.5642908,3.51145315 C43.4541826,3.6553829 43.102063,3.74593093 43.0444614,4.17542421 C43.0252137,4.31921046 43.0222416,4.53819033 43.0134669,4.7752511 C43.0022863,5.07990002 42.9923794,5.41454029 43.0454521,5.65791503 C43.0744652,5.79022134 43.2167,5.91736168 43.2617056,5.96313795 C43.4541826,6.15844044 43.8848499,6.15442246 44.0194422,6.40827264 C44.0784591,6.51905407 44.299383,6.57243579 44.3857146,6.80834857 C44.4968134,7.1118495 44.533469,7.55956718 44.5657372,7.7682151 C44.5837111,7.8835885 44.8003892,8.16972602 44.8650672,8.39042787 C44.8945048,8.49073385 44.7777449,8.61399971 44.8115699,8.71832367 C44.9426241,9.12256108 45.1400545,9.58979466 45.2242632,9.66441427 C45.3782448,9.80102557 45.665828,9.8720577 45.538029,10.0316289 C45.4102299,10.1913435 45.2757791,9.9294574 45.1873246,9.98226513 C45.1069371,10.0303374 45.1290154,10.2342498 45.1910043,10.4080274 C45.3096041,10.7400847 45.5545876,11.0112983 45.5671836,11.1265282 C45.5864313,11.3021713 45.6438913,12.02469 45.6438913,12.02469 C45.6438913,12.02469 45.7002191,12.6491988 45.4499991,12.8833896 C45.332673,12.9931665 45.1305722,12.8191019 45.0218793,12.9528432 C44.9566353,13.0332028 44.9121957,13.1058134 44.9121957,13.1563252 C44.9121957,13.201097 45.1186839,13.1257598 45.1475554,13.1599127 C45.2630416,13.296524 45.3448443,13.4456197 45.4412244,13.6798105 C45.5374629,13.9141448 45.6044052,14.1926768 45.9508638,14.0755814 C46.1457467,14.0097153 46.3046818,14.4304551 46.4439445,14.3852528 C46.5475424,14.351674 46.402477,13.8533011 46.5372109,13.8449781 C46.5857547,13.8421081 46.6515649,13.8715255 46.6842577,13.8520096 C46.7684664,13.8020718 46.6977028,13.5863925 46.8063956,13.5143558 C46.8572039,13.4806335 46.9571221,13.677371 47.0411892,13.6261417 C47.2336662,13.5090464 47.1214352,13.4255298 47.3910445,13.581657 C47.5446015,13.6706265 47.599514,13.7938924 47.7441548,13.8689425 C47.8532723,13.9253377 48.2349711,14.0120113 48.317623,13.9617865 C48.5101,13.8448346 48.8288192,13.6513976 48.872268,13.8467001 C48.9159999,14.0420026 48.8358955,14.0678325 48.8265547,14.2417536 C48.817214,14.4158182 48.8157987,14.6346545 49.1239034,14.6151386 C49.4318665,14.5956227 49.6176917,14.6383855 49.925938,14.7164491 C50.2340427,14.7945127 50.6897602,14.8599484 50.9014849,14.5867258 C51.1132096,14.3133597 51.1674145,13.9686745 51.3985284,13.9296427 C51.6296423,13.8906109 51.922179,13.7821254 51.9799221,13.5477912 C52.0376652,13.3134569 51.7867375,13.2302273 52.0755944,13.0349248 C52.3644514,12.8396223 52.9397595,12.7535228 53.114404,12.9307444 C53.2891901,13.1078224 53.2540914,13.4047224 53.504453,13.1900475 C53.754673,12.9752291 53.9056825,12.4543268 53.9826733,12.1614448 C54.0598056,11.8685629 54.0598056,11.7318081 54.1560441,11.556165 C54.2522826,11.3803784 54.0300849,10.9329477 54.2033142,10.8744 C54.376685,10.8158523 54.6109125,10.8616286 54.6686556,10.6470972 C54.704462,10.5129254 54.649974,10.4411757 54.7646111,10.4179289 C54.8332517,10.4040094 54.8890135,10.5376072 54.9538329,10.5447822 C55.1270622,10.5641546 55.4040309,10.4127629 55.6930294,10.4127629 C55.9818864,10.4127629 56.2357862,10.4236688 56.2550339,10.6970349 C56.260978,10.782417 56.1964416,10.7901659 56.1871008,10.8497181 C56.167004,10.9808765 56.1794584,11.1243757 56.1371417,11.2101883 C56.0757189,11.3347456 56.0230708,11.8510559 56.2073392,11.8955407 C56.3917492,11.940169 56.8658652,11.931272 56.7079209,12.1714898 C56.549835,12.4119945 56.4884122,12.3940571 56.5410603,12.4742732 C56.5937085,12.5543458 56.5673844,12.6344184 56.5673844,12.6344184 L56.5673844,12.6344184 L56.6183342,12.6757462 C56.6941928,12.7143475 56.7608521,12.5728572 56.9001148,12.5984001 C57.039236,12.6240864 57.0865061,12.7914066 57.1373144,12.9453813 C57.1881227,13.0994995 57.1752437,13.3048469 57.2133145,13.4589651 C57.2512438,13.6129398 57.1878396,13.9079743 57.1626478,13.9850334 C57.1373144,14.0620925 56.9725767,14.2097532 57.0359809,14.3381851 C57.0991021,14.4666169 57.1752437,14.4730744 57.2260519,14.6528789 C57.2767187,14.83254 57.2673779,14.8643968 57.431974,14.8900832 C57.5965701,14.9157696 57.6943654,15.0378874 57.7577696,15.1534043 C57.8208907,15.2690647 57.6943654,15.4230394 57.8337697,15.5642427 C57.9730324,15.705446 57.9730324,15.7311323 58.0869618,15.7440473 C58.1224852,15.7480653 58.1507906,15.7482088 58.1727273,15.7506482 C58.1972115,15.7668637 58.1908428,15.7660027 58.191692,15.795707 C58.1949471,15.89056 58.2154685,15.888551 58.295856,15.9234213 C58.384452,15.9620226 58.4983814,15.9747941 58.3718561,16.1032259 C58.2451892,16.2315143 58.1059265,16.192913 58.1312598,16.3599461 C58.241368,17.0877743 58.2256585,16.3821885 58.561644,16.3984039 C58.8277151,16.4111753 59.0240134,16.6264242 59.1126094,16.5107638 C59.167805,16.4385837 59.1985164,16.372861 59.2046021,16.3084299 L59.2046021,16.3084299 L59.2138013,16.283174 C59.2263972,16.2254873 59.378539,16.186886 59.4719469,16.2285008 C59.5652133,16.2702591 59.5206323,16.3922334 59.5523344,16.4628351 C59.615597,16.6041818 59.8375116,16.3309592 60.0400371,16.2154423 C60.2425625,16.0999254 60.4326335,16.3055599 60.5972296,16.2283573 C60.638414,16.2091284 60.6737958,16.185164 60.7056394,16.1634956 L60.7056394,16.1634956 L60.7088946,16.1155669 C60.6587939,15.9297353 60.6251105,15.7869536 60.7227642,15.6955445 C60.8306079,15.5946646 60.8937291,15.6589522 60.9160904,15.6216424 C60.9654834,15.5394173 60.8819823,15.4259094 60.9497738,15.3733887 C61.0450216,15.2997736 61.1709808,15.3294779 61.2761355,15.3029306 C61.411294,15.2689212 61.5236666,15.1940146 61.6129702,15.2393604 C61.8440841,15.3564558 61.8995628,15.7340023 62.1306767,15.5778751 C62.2822523,15.4752732 62.4368,15.2953251 62.5832807,15.1769382 C62.6598469,15.1149465 62.6723013,15.1987501 62.7938731,15.0902647 C62.8578434,15.033152 62.7473107,14.827374 62.845106,14.7592119 C62.9427597,14.6909062 63.2294938,14.7735618 63.3168161,14.6930587 C63.4051291,14.6115511 63.1587302,14.4356211 63.2386931,14.3654499 C63.3185144,14.2954223 63.6723324,14.3397636 63.7671556,14.3251266 C63.9386866,14.2984358 64.2373089,14.252803 64.4852646,14.2433321 C64.669533,14.2365876 64.742561,14.1956903 64.8570565,14.1160482 C64.8680956,14.1082993 64.9251311,13.9968003 64.9722596,13.9824504 C64.9987252,13.9742709 65.1004833,13.973123 65.1401109,14.0243522 C65.1709638,14.064245 65.1613399,14.1124607 65.1665765,14.1223622 C65.2122897,14.2088922 65.1153436,14.449971 65.1452058,14.4849848 C65.3014519,14.6679464 65.3277759,14.7596424 65.4673217,14.8025487 C65.5511058,14.828235 65.7908529,14.7118571 65.9279927,14.7118571 C66.0218253,14.7118571 66.3426674,14.5484115 66.4004105,14.8022617 C66.4581536,15.0561118 66.2460043,15.3512898 66.5350029,15.6441718 C66.6376101,15.7483523 66.7577667,15.8617167 66.8544297,15.9714936 C66.9788321,16.1126969 67.136918,16.2272093 67.228203,16.3968254 C67.2439125,16.4260992 67.2269293,16.560845 67.2812757,16.675501 C67.2890597,16.6917164 67.384166,16.8243097 67.3971865,16.8320586 C67.4317191,16.8469826 67.5971644,16.8953418 67.602684,16.9669479 C67.6055145,17.0025358 67.605656,17.1392906 67.5534325,17.1616764 C67.4539389,17.2042957 67.2562254,17.050608 67.2420727,17.1444565 C67.2273539,17.2421795 67.2768884,17.3852483 67.3339238,17.5149716 C67.3984602,17.6620583 67.3064676,17.7577723 67.3064676,17.7864722 C67.3064676,17.9031371 67.5191829,18.2709257 67.6400472,18.3964875 C67.7607698,18.5219059 67.7636004,18.4723986 67.6799578,18.5359688 C67.6172613,18.5836106 67.5791905,18.5757181 67.5208813,18.5269284 C67.5016336,18.5107129 67.5050302,18.4864616 67.4710637,18.4626407 C67.3351976,18.3673572 67.2424973,18.2766657 67.2424973,18.0753362 C67.2424973,17.8738632 67.2947208,17.7573418 67.1587132,17.6089636 C67.0229886,17.4605854 66.9810966,17.439491 66.7928654,17.4712043 C66.6049173,17.5030612 66.5212747,17.5030612 66.4585782,17.5030612 C66.3958816,17.5030612 66.301766,17.5560124 66.2181235,17.5984882 C66.1346224,17.6408205 66.0405069,17.7467229 65.9778103,17.6302015 C65.9149722,17.5135366 65.9046408,17.4605854 65.8941677,17.2911128 C65.8836947,17.1214966 65.9046408,16.9201672 65.7792477,16.9943563 C65.653713,17.0685454 65.2880068,17.3122072 65.4238729,17.1427345 C65.559739,16.9731184 65.6746591,16.8778349 65.653713,16.7399321 C65.6329085,16.6023163 65.6329085,16.3160353 65.549266,16.4327002 C65.4656234,16.5492216 65.4132583,16.771789 65.3402303,16.771789 C65.2670608,16.771789 65.2043642,16.6975998 65.2043642,16.6975998 L65.208,16.702 C65.2116529,16.7214327 65.2107723,16.7402709 65.2054781,16.7736345 L65.1938912,16.8353591 C65.1624722,16.9837374 65.1207216,17.2698749 65.0475521,17.3015882 C64.9743825,17.333445 64.932632,17.3970152 64.8804085,17.2592559 C64.8280434,17.1214966 64.8385164,17.0473075 64.7862929,16.9624995 C64.7340694,16.8778349 64.7131233,16.7082188 64.5667842,16.76117 C64.4204451,16.8141212 64.2637745,16.8883104 64.3158565,17.0154507 C64.3682216,17.1427345 64.3786946,17.248637 64.3472756,17.3865398 C64.3158565,17.5241556 64.2637745,17.7043906 64.2637745,17.7891987 C64.2637745,17.8738632 64.274106,18.1070495 64.3890261,18.0647173 C64.5040877,18.022098 64.6817043,17.7998176 64.7548739,17.7150096 C64.8280434,17.6302015 64.8697939,17.5135366 65.0475521,17.5135366 C65.2250272,17.5135366 65.2461147,17.4605854 65.4029269,17.6089636 C65.559739,17.7573418 65.6433816,17.831531 65.8732217,17.9375769 C66.1032034,18.0434794 66.1658999,18.0964306 66.291293,17.9799092 C66.4168277,17.8633878 66.6153903,17.6195826 66.8034799,17.6937717 C66.9917111,17.7679608 67.0542661,17.7679608 67.0542661,17.926958 C67.0542661,18.0858116 67.0752121,18.2130955 66.939346,18.3508548 C66.8034799,18.4886141 66.5526938,18.5945165 66.5628837,18.6582302 C66.5734983,18.7218004 66.6153903,18.7535137 66.7407834,18.7322758 C66.8347574,18.7164909 66.9230704,18.7375853 66.9699159,18.6919525 C66.985767,18.6765981 66.9969476,18.6316828 67.0020426,18.6051355 C67.0229886,18.499233 67.0306311,18.4145684 67.1664972,18.5417088 C67.2683968,18.6371717 67.3953732,18.8158551 67.4524927,18.8992305 L67.4828104,18.9442242 C67.4828104,18.9442242 67.4871663,18.9451091 67.4951521,18.9466331 L67.580818,18.96148 C67.6396226,18.9707716 67.7180286,18.9813905 67.7964347,18.9867 C67.9532468,18.9973189 68.0367479,19.0502702 67.9843828,19.1138403 C67.9323008,19.1774105 67.8905503,19.2515996 67.8069077,19.2198863 C67.7232651,19.1880294 67.5978721,19.1138403 67.4723374,19.1880294 C67.3469443,19.2622186 67.2842478,19.3151698 67.4305869,19.3575021 C67.576926,19.3999778 67.9113548,19.4212157 67.6396226,19.5058803 C67.3678904,19.5906884 67.2737748,19.569594 67.2215513,19.5377371 C67.1693277,19.5058803 66.8347574,19.3999778 66.939346,19.4954048 C67.0439346,19.5906884 67.1902737,19.6861154 67.0961582,19.7178287 C67.0020426,19.7496855 66.928873,19.8557315 67.0542661,19.8980638 C67.1798007,19.9405395 67.4410599,20.0570609 67.1798007,20.035823 C66.9184,20.0145852 66.824426,20.0145852 66.5317477,19.9616339 C66.238928,19.9086827 66.1136764,19.8980638 65.9255868,19.8980638 C65.7373556,19.8980638 65.6119625,19.9086827 65.52832,19.7709234 C65.4446774,19.6331641 65.3819808,19.558975 65.3402303,19.6967343 C65.2983383,19.8344936 65.2043642,19.951015 65.3088113,19.9616339 C65.4132583,19.9722529 65.6224355,20.0145852 65.6433816,20.1735823 C65.6641861,20.3325795 65.6851321,20.7246195 65.6119625,20.6716683 C65.538793,20.618717 65.3819808,20.4914332 65.3507033,20.618717 C65.3192843,20.7458574 65.2670608,20.8519033 65.2670608,20.8519033 C65.2670608,20.8519033 65.2356417,20.8625223 65.2983383,21.010757 C65.3610348,21.1592787 65.6746591,21.4452727 65.52832,21.5406997 C65.3819808,21.6361268 65.2565877,21.8374562 64.911686,21.8480752 C64.5667842,21.8586941 64.0233198,21.773886 64.1590444,21.9116453 C64.1741563,21.9269519 64.1887494,21.9433037 64.2031393,21.9601343 L64.2895692,22.0623302 C64.378616,22.1612065 64.4830945,22.2365276 64.6712313,22.165926 C64.9534365,22.0600236 65.1207216,21.9327397 65.1102486,22.0812614 C65.0997756,22.2294962 65.0266061,22.6110607 64.8177119,22.6852498 C64.6085347,22.7594389 64.4936147,22.8759603 64.3472756,22.7911523 C64.2009364,22.7064877 64.0650703,22.5581095 63.8769807,22.6640119 C63.6887495,22.7700579 63.6157215,22.8759603 63.4901869,22.7806768 C63.3647938,22.6852498 63.1035346,22.5262526 63.1452851,22.6958688 C63.1870357,22.8653414 63.5111329,23.4588543 63.3020973,23.4588543 C63.0930616,23.4588543 62.9362495,23.3952841 62.7062678,23.5224245 C62.4762861,23.6495648 62.4346771,23.6814217 62.256919,23.6389459 C62.0791608,23.5966136 61.9642407,23.5224245 61.9956598,23.7026595 C62.0269373,23.8827511 62.1940809,24.4233128 62.4554816,24.4233128 C62.7167408,24.4233128 62.8527484,24.3597426 62.8944989,24.4973584 C62.9199738,24.5813055 62.9355418,24.7034234 63.0156462,24.7624016 C63.0670206,24.7999984 63.160004,24.7941149 63.2497322,24.7941149 C63.4797139,24.7941149 63.5736879,24.8259717 63.4378218,24.9849689 C63.3020973,25.1439661 63.0827301,25.3876278 63.0930616,25.440579 C63.0991473,25.4720054 63.1367935,25.5929753 63.2079817,25.7013172 C63.2568086,25.7755063 63.3086075,25.8538569 63.4274903,25.8538569 C63.7201686,25.8538569 63.9710963,25.8644759 63.9292042,25.9916162 C63.8874537,26.1187565 63.8874537,26.2565158 63.7515876,26.2460404 C63.6157215,26.2354214 63.4274903,26.0976621 63.3752668,26.2141835 C63.3230433,26.3308484 63.1870357,26.5321779 63.2706782,26.7864586 C63.3544623,27.0408828 63.4589094,27.1361663 63.3647938,27.1680231 C63.2706782,27.1997364 63.2603467,27.2528312 63.3544623,27.3270203 C63.4484364,27.4012094 63.5843025,27.485874 63.4065443,27.5495876 C63.2289277,27.6131578 62.7899104,27.8251062 62.8318024,27.6978224 C62.8735529,27.570682 63.0825886,27.4012094 62.9781415,27.3799715 C62.8735529,27.3587336 62.8108564,27.3270203 62.6854633,27.4116848 C62.5600702,27.4964929 62.1315259,27.8355816 62.0688293,27.8886764 C62.0061328,27.9416276 61.8074286,27.9522465 61.7552051,27.8991518 C61.7029815,27.8462006 61.5671154,27.7190602 61.5671154,27.8674385 C61.5671154,28.0158167 61.5982514,28.1323381 61.4207763,28.0687679 C61.2431597,28.0051978 61.2012676,27.9839599 61.0965375,28.058149 C60.992232,28.1323381 60.8354199,28.2700974 60.7725818,28.4078567 C60.7100268,28.5454725 60.6995538,28.5454725 60.8144738,28.5668539 C60.9295354,28.5880917 61.0549285,28.641043 60.8666974,28.7575644 C60.6784662,28.8742293 60.365125,29.0437019 60.2294004,29.2026991 C60.0933928,29.3616962 59.9992772,29.5419313 59.6124834,29.4675987 C59.2258311,29.3935531 59.2549857,29.3945576 59.2445127,29.214466 C59.2338982,29.0343744 59.157332,28.7598604 59.3140026,28.6962902 C59.4708147,28.63272 59.4637383,28.5799123 59.5057719,28.4102962 C59.5475224,28.24068 59.4872319,28.2383841 59.6543755,28.1112437 C59.8216606,27.9839599 60.1351433,27.5919199 60.354652,27.666109 C60.5741607,27.7402981 60.7100268,27.9203897 60.8877849,27.7720115 C61.0654015,27.6236332 61.0965375,27.5283497 61.0965375,27.475255 C61.0965375,27.4223038 61.1385711,27.3693526 61.2222137,27.3587336 C61.3058562,27.3481147 61.3580798,27.2633066 61.3161877,27.1680231 C61.2744372,27.0725961 61.2744372,26.9560747 61.3371338,26.9348368 C61.3998303,26.9135989 61.5356964,26.8500287 61.4834729,26.7864586 C61.4311078,26.7228884 61.2744372,26.5957481 61.3788843,26.51094 C61.4834729,26.4261319 61.5982514,26.2248025 61.7970971,26.1824702 C61.9956598,26.1399944 62.1837494,26.1612323 62.0688293,26.0022351 C61.9537677,25.843238 61.8493207,25.6525274 62.0791608,25.7267166 C62.3091425,25.8009057 62.4032581,25.7902867 62.4554816,25.6843843 C62.4864761,25.6215316 62.5225655,25.4974048 62.5750721,25.3869103 C62.61102,25.3112862 62.6619698,25.2507295 62.6957948,25.1862984 C62.7794373,25.0273012 62.8213294,24.6246423 62.6437128,24.7411637 C62.4659546,24.8576851 62.5391242,24.9107798 62.2046954,24.9318742 C61.8701251,24.9531121 61.7134545,24.9107798 61.5775884,25.0060633 C61.4417223,25.1014903 61.2222137,25.2709629 61.2534912,25.0908714 C61.2849102,24.9107798 61.2639642,24.7199258 61.0965375,24.7836394 C60.9295354,24.8472096 60.5427416,25.0590145 60.5427416,25.0590145 C60.5427416,25.0590145 60.365125,25.0908714 60.4905181,25.2922008 C60.6159112,25.4935303 60.8144738,25.7796678 60.6784662,25.8750948 C60.5427416,25.9705218 60.3129015,26.1506134 60.2397319,26.3731807 C60.1665624,26.5957481 60.0829198,26.7970775 60.1246703,26.8500287 C60.1665624,26.9031235 60.3129015,27.083215 60.1560894,27.093834 C59.9992772,27.1044529 59.9992772,27.2209743 59.9992772,27.2209743 C59.9992772,27.2209743 59.9365807,27.3374957 59.7797686,27.2633066 C59.6229564,27.189261 59.6021519,27.1361663 59.696126,27.0515017 C59.7902416,26.9666936 59.9283721,26.8557687 59.8465694,26.7831581 C59.7646251,26.7105475 59.7032023,26.6897401 59.7032023,26.6897401 C59.7032023,26.6897401 59.498554,26.6482688 59.4679842,26.5445188 C59.4372728,26.4407689 59.2940472,26.3474943 59.1712016,26.409773 C59.0484976,26.4719082 58.8437077,26.7416868 58.7722365,26.5756582 C58.7006237,26.409773 58.5573982,26.212605 58.7006237,26.1606583 C58.8437077,26.1088551 58.915462,26.0362445 58.8643707,25.9221626 C58.8131378,25.8080806 58.6904338,25.6005807 58.7722365,25.5279701 C58.8541807,25.4553595 58.8848921,25.4450275 58.8848921,25.3619415 C58.8848921,25.2789989 58.8848921,25.1441096 59.058829,25.164917 C59.2326244,25.1857244 59.4270828,25.2789989 59.4577942,25.0508351 C59.4885056,24.8225277 59.4781741,24.4388107 59.3451386,24.6358352 C59.2122445,24.8330032 59.1712016,24.9367532 58.905272,24.9367532 C58.6393425,24.9367532 58.4346941,24.9988883 58.5573982,24.8641425 C58.6802438,24.7292532 58.7109552,24.5114214 58.915462,24.4180033 C59.1201103,24.3247288 59.1406318,24.3558682 59.2633358,24.1795076 C59.3861814,24.003147 59.4474627,23.9098725 59.2428144,24.0342863 C59.0383076,24.1587002 59.1099204,24.1691756 58.8541807,24.1691756 C58.5982996,24.1691756 58.3834613,24.1691756 58.4346941,24.3039214 C58.485927,24.4388107 58.5268283,24.5322288 58.4141727,24.6255033 C58.3015171,24.7189213 58.1584331,24.7810565 58.1891445,24.9159458 C58.2198559,25.0508351 58.3118485,25.1752489 58.3118485,25.3516095 C58.3118485,25.5279701 58.2505673,25.9221626 58.1277217,25.9013552 C58.0050176,25.8806913 57.9946861,25.8806913 57.9946861,25.8806913 C57.9946861,25.8806913 57.7083766,25.8287445 57.8208907,25.6317201 C57.9334048,25.4346956 58.0253975,25.3101382 57.8617921,25.1752489 C57.6981866,25.0403596 57.6878552,25.0300277 57.6571438,24.9159458 C57.6264324,24.8018639 57.5446296,24.6981139 57.4524954,24.6358352 C57.3605028,24.5737 57.1865659,24.5322288 57.2070873,24.3247288 C57.2274672,24.1172289 57.1763759,23.899397 57.0331504,23.6712332 C56.8899249,23.4429259 56.8285021,23.4014546 56.7261779,23.318512 C56.6238537,23.2355695 56.5320026,23.1526269 56.6545651,23.0488769 C56.7774107,22.945127 56.9001148,22.8620409 56.8899249,22.5924058 C56.8795934,22.3227707 56.8490235,21.8454922 56.9615376,21.8144963 C57.0740517,21.783357 57.4423055,21.773025 57.2376572,21.7210783 C57.0331504,21.6691316 56.7876007,21.6381357 56.8079806,21.7210783 C56.8285021,21.8038774 56.8899249,21.9285782 56.8183121,22.0323282 C56.7466993,22.1360782 56.6854181,22.2501601 56.705798,22.364242 C56.7261779,22.4783239 56.7159879,22.7584344 56.6341852,22.841377 C56.552241,22.9243196 56.3170228,23.2252375 56.4908182,23.3599833 C56.6647551,23.4948726 56.9103048,23.6504258 56.9308262,23.805979 C56.9513477,23.9616757 56.8490235,24.2521182 56.9513477,24.3973395 C57.0535303,24.5425607 57.3605028,24.7707245 57.2785585,24.8641425 C57.1967558,24.957417 57.0535303,25.1234457 57.0535303,25.2168637 C57.0535303,25.3101382 57.0535303,25.4450275 57.1251431,25.5591094 C57.1967558,25.6731913 57.3196014,25.9013552 57.4423055,25.8598839 C57.5651511,25.8184126 57.6367638,25.7043307 57.739088,25.9118306 C57.8412706,26.119187 57.8617921,26.2022731 57.8003693,26.2540763 C57.739088,26.3060231 57.4833484,26.5548508 57.4014041,26.5445188 C57.3196014,26.5341869 57.2070873,26.4407689 57.1661859,26.2955476 C57.1251431,26.1503264 57.0331504,26.119187 56.9001148,26.0154371 C56.7670793,25.9118306 56.7568893,25.9013552 56.7568893,25.745802 C56.7568893,25.5902488 56.7670793,25.4450275 56.5931423,25.4968308 C56.419347,25.5487775 56.2248886,25.6317201 56.2146986,25.5279701 C56.2045087,25.4242201 56.2146986,25.3516095 56.2146986,25.2168637 C56.2146986,25.0819744 56.26579,24.6877819 56.0714731,24.8330032 C55.8770148,24.9782244 55.8361134,25.071499 55.7132678,25.0819744 C55.5905637,25.0923064 55.4985711,25.1441096 55.4985711,25.2271957 C55.4985711,25.3101382 55.4064369,25.4138882 55.4064369,25.4138882 L55.4064369,25.4138882 L55.3451556,25.6005807 L55.2017885,25.8287445 C55.2017885,25.8287445 55.1301758,25.8703593 55.1506972,26.0569084 C55.1710771,26.2437444 55.1710771,26.409773 55.3348241,26.2852157 C55.4985711,26.1606583 55.6110852,26.0673838 55.7439792,26.1917977 C55.8770148,26.316355 56.0714731,26.6586007 55.9998604,26.7208794 C55.9282476,26.7831581 55.8723444,26.7870326 55.969149,26.9075719 C56.0386388,26.9942455 56.0509517,27.0319858 56.0305718,27.1462112 C56.0100503,27.2602931 55.9896704,27.1980144 55.7850221,27.2083464 C55.5803738,27.2188218 55.5905637,27.1047399 55.3348241,26.9179039 C55.0790845,26.7312114 55.2837328,27.00099 55.3962469,27.0839325 C55.508761,27.1668751 55.4678597,27.2083464 55.508761,27.3225718 C55.5496624,27.4366537 55.4471967,27.4884569 55.2632113,27.6026823 C55.0790845,27.7166208 55.1814086,27.7270962 55.2632113,27.7893749 C55.3451556,27.8515101 55.3348241,27.8826494 55.3348241,27.9863994 C55.3348241,28.0901493 55.375867,28.0798174 55.518951,28.0070633 C55.6621765,27.9344526 55.7132678,28.0901493 55.7132678,28.0901493 C55.7132678,28.0901493 55.8464449,28.2975057 55.9486275,28.4635344 C56.0509517,28.629563 56.1327544,28.4635344 56.1839872,28.3079812 C56.2350786,28.1522845 56.3988255,28.1316206 56.6341852,27.9863994 C56.8694034,27.8411781 56.8490235,27.9449281 57.1251431,27.9863994 C57.4014041,28.0278706 57.3605028,27.9759239 57.6162424,27.8929813 C57.871982,27.8100388 58.2096659,28.1730919 58.485927,28.2768419 C58.7620465,28.3805918 58.6904338,28.5050057 58.6802438,28.6607024 C58.6700539,28.8162556 58.6700539,28.7851162 58.5268283,28.7021737 C58.3834613,28.6192311 58.4039827,28.7436449 58.3425599,28.8680588 C58.2811371,28.9924726 58.4654055,29.0858907 58.5370183,29.1585013 C58.6086311,29.2311119 58.5881096,29.3037225 58.7211452,29.4697512 C58.8541807,29.6356363 58.7722365,29.6046405 58.6495324,29.6772511 C58.5268283,29.7498617 58.7518566,29.8224723 58.9461734,29.8639436 C59.1406318,29.9054149 59.069019,30.0609681 59.0177862,30.17505 C58.9666948,30.2891319 59.0281176,30.2996074 59.1099204,30.372218 C59.1762966,30.4310527 59.2280956,30.4281827 59.1777119,30.4875914 C59.1661067,30.5012238 59.1310079,30.5640765 59.1099204,30.5797179 C58.9974062,30.6626605 59.0997304,30.7352711 59.2633358,30.7767424 C59.4270828,30.8182137 59.3349486,30.8390211 59.0997304,30.9322956 C59.0408551,30.955686 58.9877824,30.9526725 58.9335775,30.9708969 C58.7711043,31.0258571 58.6588732,31.0737859 58.5207427,31.1827018 C58.3366158,31.327923 58.3731298,31.0153817 58.3630814,30.849353 C58.3528914,30.6833244 58.2505673,30.6003818 58.0766304,30.4551606 C57.9026934,30.3099393 57.9844962,30.3928819 57.9539263,30.4862999 C57.9232149,30.5797179 57.9334048,30.5692425 57.8105592,30.6003818 C57.6878552,30.6315212 57.6981866,30.5692425 57.5242497,30.4136893 C57.3501713,30.2581361 57.4014041,30.3410787 57.2683686,30.3410787 C57.135333,30.3410787 57.1558545,30.3410787 57.1865659,30.2269968 C57.2172773,30.1127713 56.9717276,30.1832295 56.8795934,30.1728975 C56.7876007,30.1625656 56.8490235,29.9468862 56.8795934,29.8224723 C56.9103048,29.697915 56.8079806,29.7395298 56.6545651,29.7395298 C56.5011497,29.7395298 56.5216711,29.8534682 56.5216711,29.9468862 C56.5216711,30.0403042 56.4908182,30.0817755 56.4295369,30.1024394 C56.3681141,30.1232468 56.3272128,30.1335787 56.2759799,30.2581361 C56.2248886,30.3825499 56.1123745,30.2891319 56.1123745,30.2891319 C56.1123745,30.2891319 55.9998604,30.2165213 55.9998604,30.1232468 C55.9998604,30.0298288 55.6589214,29.9820435 55.5599939,29.9988329 C55.4609248,30.0154788 55.4777666,30.1044484 55.4985711,30.1439107 C55.519234,30.1835165 55.5496624,30.1958574 55.5496624,30.372218 C55.5496624,30.5485786 55.6316066,30.5692425 55.6316066,30.5692425 C55.6316066,30.5692425 55.6811411,30.6371176 55.6607612,30.8443306 C55.6402398,31.051974 55.7950705,30.8285456 55.8464449,30.7144637 C55.8975362,30.6003818 56.0305718,30.7041318 56.1327544,30.7041318 C56.2350786,30.7041318 56.2146986,30.7144637 56.2863114,30.8390211 C56.3579242,30.9634349 56.4295369,30.7975498 56.4908182,30.7041318 C56.552241,30.6107138 56.542051,30.6211892 56.6954665,30.6003818 C56.8490235,30.5797179 56.7976491,30.7249392 56.7365094,30.7664105 C56.6750866,30.8078817 56.7466993,30.9322956 56.8285021,31.0463775 C56.9103048,31.1606029 56.8592135,31.2435455 56.8183121,31.430238 C56.7774107,31.6169306 56.8899249,31.7206805 56.9308262,31.7932911 C56.9717276,31.8659018 56.9308262,31.9178485 56.7466993,31.9903156 C56.5625725,32.0629262 56.6647551,32.0525943 56.7976491,32.1252049 C56.9308262,32.1978155 57.1763759,32.2497623 57.3605028,32.2497623 C57.5446296,32.2497623 57.4833484,32.3015655 57.29908,32.4156474 C57.1149531,32.5297293 57.2376572,32.6334793 57.2274672,32.7372292 C57.2210985,32.802073 57.3226442,32.8101897 57.4421297,32.8071585 L57.5883649,32.8010873 L57.5883649,32.8010873 L57.6571438,32.7995079 C57.8310807,32.7995079 57.9128834,32.695758 57.9844962,32.5816761 C58.0561089,32.4675941 58.045919,32.5193974 58.1481016,32.5713441 C58.2505673,32.6231473 58.2402358,32.5193974 58.2300458,32.4053155 C58.2198559,32.2912336 58.2096659,32.1043975 58.1891445,31.907373 C58.1687646,31.7103486 58.2709472,31.8244305 58.4346941,31.8970411 C58.5982996,31.9696517 58.5982996,31.8347624 58.5573982,31.7621518 C58.5164969,31.6895412 58.5573982,31.7103486 58.6495324,31.7000166 C58.7416666,31.6895412 58.8401695,31.6935592 58.707134,31.5483379 C58.5740984,31.4031167 58.6495324,31.4094306 58.7722365,31.3782913 C58.8950821,31.3471519 58.9666948,31.3056807 59.0177862,31.2020742 C59.069019,31.0983242 59.2531459,31.1501275 59.3759915,31.1606029 C59.498554,31.1709349 59.5703083,31.1501275 59.6726325,31.0463775 C59.7748151,30.9426275 59.805668,30.9945743 59.958942,30.9945743 C60.1123575,30.9945743 60.0408862,31.0360456 59.948752,31.056853 C59.8567593,31.0775168 59.948752,31.2515814 60.0306963,31.2723888 C60.1123575,31.2930527 60.1226889,31.3990987 60.0306963,31.523656 C59.9385621,31.6480699 59.948752,31.7310125 59.948752,31.8762337 C59.948752,31.9624768 60.2335047,31.9132565 60.4581084,31.9149785 C60.6118069,31.9161265 60.6896469,31.9822797 60.8184366,31.9696517 C61.1354575,31.9385124 60.8695279,32.1874836 60.6343097,32.2807581 C60.39895,32.3741761 60.39895,32.4779261 60.39895,32.4779261 C60.39895,32.4779261 60.3886185,32.4884015 60.3784286,32.5816761 C60.3748904,32.6151114 60.3270542,32.6659101 60.2786519,32.6776771 C60.2301081,32.689444 60.1812812,32.6624661 60.1183016,32.6753811 C60.0691917,32.6852825 60.0805138,32.7356508 60.008335,32.7365118 C59.8189716,32.7386642 59.9112473,32.680547 59.7373104,32.597461 C59.5633735,32.5145184 59.529407,32.5402048 59.1917231,32.6128154 C58.8541807,32.685426 58.8950821,32.8513112 58.8541807,32.9965324 C58.8131378,33.1417537 58.0253975,33.2661675 57.6162424,33.3595855 C57.2070873,33.4530035 57.2785585,33.4530035 57.0126289,33.4530035 C56.7466993,33.4530035 56.5727624,33.5982248 56.3477342,33.743446 C56.1225644,33.8886673 56.4295369,33.847196 56.5625725,33.8263886 C56.6954665,33.8055812 56.9103048,33.9198066 57.002439,33.9819418 C57.0944317,34.0442205 57.0331504,34.1687778 56.9103048,34.2102491 C56.8285021,34.2378966 56.8102922,34.2793839 56.8072415,34.3347108 L56.8079806,34.428081 C56.8079806,34.531831 56.6854181,34.5628268 56.5829524,34.5941096 C56.4807698,34.6251055 56.3272128,34.8534128 56.2248886,34.9881586 C56.1225644,35.1230479 56.5829524,35.2371298 56.7670793,35.4031584 C56.9513477,35.5691871 56.7365094,35.6416542 56.4807698,35.7039329 C56.2248886,35.7660681 56.1941772,35.4756256 56.0509517,35.1333798 C55.9077262,34.7911341 55.9793389,35.4341543 55.969149,35.5691871 C55.9588175,35.7039329 55.9896704,35.7247403 55.8666833,35.7350722 C55.7439792,35.7454042 55.7543107,35.7039329 55.5496624,35.7870189 C55.3451556,35.8699615 54.9460489,36.4403711 54.761922,36.751621 C54.5777952,37.0627273 54.629028,37.0211126 54.629028,37.1872847 C54.629028,37.3531698 53.8514776,38.1104154 53.5955965,38.3074399 C53.3398568,38.5046079 53.4627024,38.0586122 53.4525125,37.8821081 C53.442181,37.705891 53.1966313,37.6644197 53.0941656,37.602141 C52.9921245,37.5400059 52.2861869,37.0317315 52.1429614,36.9175061 C51.9997359,36.8034242 52.0304473,36.9279815 51.9383131,36.9797848 C51.8461789,37.0317315 51.8052775,37.0420634 51.5495379,36.9901167 C51.2937982,36.9383135 50.8130304,36.3677604 50.7412761,36.2433466 C50.6698049,36.1186457 50.5572908,36.0877934 50.3628324,36.1084573 C50.168374,36.1292647 49.8820645,36.0981253 49.6467048,36.0150393 C49.4898927,35.9597442 49.4966231,35.8998572 49.5215948,35.838397 L49.5472654,35.7765242 L49.5472654,35.7765242 L49.5545706,35.7454042 C49.5649021,35.6519861 49.3807752,35.6519861 49.0636128,35.5587116 C48.7464504,35.4652936 48.4907107,35.0919085 48.419098,34.9260234 C48.3474852,34.7599948 48.2246396,34.6665768 48.0098013,34.5421629 C47.7949631,34.4176055 48.0712241,34.6977161 48.1223155,34.7391874 C48.1735483,34.7806587 48.265541,34.8948841 48.3269638,35.0296299 C48.3883866,35.1645192 48.408908,35.1956585 48.5725134,35.3615437 C48.7361189,35.5275723 49.6467048,36.160117 49.7694089,36.2122072 C49.892113,36.264154 50.1787055,36.2848179 50.3628324,36.2744859 C50.5468177,36.264154 50.4855365,36.357285 50.4446351,36.450703 C50.4037338,36.544121 50.4037338,36.5128382 50.3628324,36.6272071 C50.321931,36.7411455 50.3525009,36.8138996 50.3833538,36.9589774 C50.4140652,37.1043421 50.4037338,37.1146741 50.4242552,37.2702273 C50.4446351,37.4257805 50.6289035,37.6332804 50.7310861,37.7578377 C50.8334103,37.8821081 50.8334103,38.0586122 50.772129,38.1623621 C50.7107062,38.2661121 50.7208962,38.4629931 50.7002332,38.7329152 C50.6799948,39.0025503 50.5059164,39.1166322 50.3628324,39.2099067 C50.2196069,39.3033247 50.321931,39.2721854 50.3833538,39.2721854 C50.4446351,39.2721854 50.5878606,39.1374396 50.7310861,39.0127387 C50.8743117,38.8884684 50.8539317,38.5668865 50.8846431,38.5046079 C50.915213,38.4424727 51.1709526,38.4942759 51.4472137,38.5459357 C51.7234748,38.5980259 51.8667003,38.4318537 52.0097843,38.3903825 C52.1531513,38.3490547 52.11225,38.4424727 52.0815386,38.5772185 C52.0508272,38.7121078 52.0815386,38.7329152 52.0917285,38.8261897 C52.1019185,38.9196077 52.245144,38.6913004 52.3985595,38.6394972 C52.551975,38.5874069 52.5828279,38.6498291 52.4601238,38.7535791 C52.3372782,38.8571855 52.6442507,38.9196077 52.7056735,38.9196077 C52.7669548,38.9196077 52.8692789,38.8571855 52.9510816,38.8261897 C53.0330259,38.7950504 53.6059279,38.5874069 53.8309562,38.4318537 C54.0559844,38.2764441 54.8131549,37.4569198 54.8744362,37.3013666 C54.935859,37.1458134 55.1097959,37.1561454 55.518951,37.1458134 C55.9282476,37.135338 56.552241,37.4879156 56.6750866,37.5918091 C56.7976491,37.6955591 56.8899249,37.6850836 56.9819175,37.5918091 C57.0740517,37.4983911 57.2785585,37.5191985 57.5242497,37.4879156 C57.7696579,37.4569198 57.6469538,37.9860016 57.6264324,38.3282473 C57.6059109,38.6706365 57.5139182,38.6913004 57.3501713,38.7535791 C57.1865659,38.8158578 57.1865659,38.9091323 57.2683686,39.0233577 C57.3501713,39.1374396 57.2785585,39.2618534 57.1865659,39.3864108 C57.0944317,39.5108247 57.0433403,39.4796853 56.838692,39.3654599 C56.6341852,39.251378 56.6647551,39.344796 56.5011497,39.4693534 C56.3374027,39.5937672 56.2248886,40.216267 56.1327544,40.3302054 C56.0407617,40.4444308 55.9486275,40.1851277 55.969149,40.0917096 C55.9896704,39.9984351 55.969149,40.0087671 55.8259235,39.832263 C55.6826979,39.6560459 55.7337892,39.8011237 55.7439792,39.8635458 C55.7543107,39.9258245 55.7850221,39.9776277 55.7850221,40.1851277 C55.7850221,40.3924841 55.805402,40.4962341 55.8157335,40.693402 C55.8259235,40.8904265 56.1430859,40.9112339 56.26579,40.9941765 C56.3886356,41.077119 56.3374027,41.4401722 56.2863114,41.5750615 C56.2350786,41.7099508 56.2863114,41.7099508 56.3784456,41.6994753 C56.4704383,41.6891434 56.4088739,41.7928933 56.4397269,41.948303 C56.4704383,42.1041432 56.1634658,42.4152496 56.0714731,42.5293315 C55.9793389,42.6434134 56.0714731,42.6642208 56.1430859,42.7056921 C56.2146986,42.7471634 56.2045087,42.8199175 56.1839872,42.9546633 C56.1634658,43.0895526 56.0816631,43.0792207 55.7748321,43.0998846 C55.4678597,43.1205485 55.4576697,43.006323 55.4269583,42.913192 C55.3962469,42.8199175 55.2017885,42.7991101 55.1608872,42.8507699 C55.1199858,42.9028601 54.935859,43.016942 54.7517321,43.0376059 C54.5676052,43.0584133 54.2606327,43.0895526 54.1174072,43.006323 C53.9741817,42.9233805 53.7593434,42.6124176 53.6264494,42.5812783 C53.4934138,42.5501389 53.6673507,42.6952167 53.6673507,42.7471634 C53.6673507,42.7991101 53.8616676,43.0376059 53.9741817,43.1518313 C54.0866958,43.2659132 54.0457945,43.2970525 53.9230904,43.3280484 C53.8002448,43.3591877 53.8514776,43.6392983 53.8514776,43.7014334 C53.8514776,43.7637121 53.8309562,43.7532367 53.8309562,43.7532367 L53.8433041,43.7530857 C53.891085,43.7521795 54.067711,43.7458362 54.1992099,43.7014334 C54.3527669,43.6496302 54.3118656,43.8571301 54.2093999,43.9400727 C54.1072173,44.0231588 54.0866958,44.0438227 54.0559844,44.261511 C54.025273,44.4794864 54.17883,44.1993759 54.3015341,44.0231588 C54.4243797,43.8467982 54.4038582,43.9400727 54.485661,43.9608801 C54.5676052,43.9814005 54.5572737,44.1475726 54.4243797,44.3862119 C54.2913441,44.6247077 54.3834783,44.7077937 54.4141897,44.8840108 C54.4446181,45.0603714 54.772112,45.2472074 54.8642462,45.4026171 C54.9562389,45.5583138 54.9562389,45.4545639 54.935859,45.2780598 C54.9153375,45.1018427 54.9460489,45.1951172 55.0074717,45.1018427 C55.0688945,45.0085682 55.0790845,45.0708469 55.0892744,44.9253386 C55.0994644,44.7802609 55.1199858,44.8114002 55.2324999,44.8114002 C55.3451556,44.8114002 55.3553455,44.9048182 55.375867,45.0293756 C55.3962469,45.1537894 55.6826979,44.8633469 55.8873463,44.6868428 C56.091853,44.5106258 55.9896704,44.7907363 55.9588175,44.9253386 C55.9282476,45.0603714 55.9282476,45.039564 55.7645006,45.1744533 C55.6008952,45.3093426 55.6212751,45.4857032 55.672508,45.5789777 C55.7235993,45.6723957 55.7235993,45.6723957 55.641655,45.7448629 C55.5599939,45.8174735 55.7543107,45.8174735 55.9486275,45.8487563 C56.1430859,45.8797522 55.9896704,45.9418873 55.672508,46.014785 C55.3553455,46.0873956 55.4167683,46.1183914 55.3041127,46.2740881 C55.1915986,46.4296413 55.375867,46.3672191 55.4576697,46.4088339 C55.5394724,46.4503052 55.5803738,46.3052275 55.6826979,46.1703382 C55.7850221,46.0354489 55.9384376,46.0561128 56.102043,46.0769201 C56.26579,46.0977275 56.091853,46.2740881 55.9896704,46.3672191 C55.8873463,46.4607807 56.0305718,46.4193094 56.2248886,46.3672191 C56.419347,46.3155594 56.3477342,46.4088339 56.2759799,46.4814445 C56.2045087,46.5540552 56.2350786,46.6058584 56.2759799,46.7097519 C56.3170228,46.8133583 56.5113396,46.7512231 56.6341852,46.6889445 C56.7568893,46.6266658 56.7261779,46.6889445 56.7365094,46.7926944 C56.7466993,46.8964444 56.6442337,47.0000509 56.4704383,47.1141328 C56.2965014,47.2283582 56.3477342,47.2283582 56.3477342,47.3009688 C56.3477342,47.3735794 56.4602483,47.3632475 56.6136638,47.3009688 C56.6903715,47.2698295 56.7236304,47.2646276 56.746664,47.2659191 L56.7889413,47.2713987 L56.7889413,47.2713987 L56.8183121,47.2698295 C56.8899249,47.2594975 56.9001148,47.643358 56.8899249,47.8818538 C56.8795934,48.1204931 56.7774107,48.1516324 56.5216711,48.3486569 C56.26579,48.5456814 56.5113396,48.5042101 56.7774107,48.5143985 C57.0433403,48.524874 56.7568893,48.71171 56.5113396,48.7946526 C56.26579,48.8775951 56.1532758,48.81546 56.0611416,48.701378 C55.969149,48.5872961 56.1430859,48.5353494 56.2554585,48.4315994 C56.3681141,48.327706 56.26579,48.2137676 56.1634658,48.1204931 C56.0611416,48.027075 55.9486275,47.7469645 55.8666833,47.4773294 C55.7850221,47.2076943 55.8975362,47.166223 55.9179161,47.0208583 C55.9384376,46.875637 55.8975362,46.9379157 55.7235993,46.8861125 C55.5496624,46.8341657 55.5599939,46.9067763 55.508761,47.0208583 C55.4576697,47.1349402 55.3962469,47.0934689 55.3553455,47.0311902 C55.3144442,46.969055 55.2428314,47.0311902 55.1710771,47.0519976 C55.0994644,47.072805 55.0994644,47.1765549 55.0994644,47.3111572 C55.0994644,47.44619 55.1097959,47.6017432 55.0483731,47.7884358 C54.9869503,47.9751283 55.0587046,47.9335135 55.22231,47.9026612 C55.3860569,47.8715218 55.4167683,47.8194316 55.6212751,47.6122187 C55.8259235,47.4047188 55.5803738,47.9441325 55.5803738,47.9441325 L55.5803738,47.9441325 L55.4269583,48.1100176 C55.2734013,48.2760463 55.1097959,48.2034356 55.0176617,48.1827717 C54.925669,48.1619643 54.8131549,48.2449069 54.6494079,48.3175175 C54.485661,48.3901282 54.5267038,48.327706 54.5061824,48.2449069 C54.485661,48.1619643 54.7004992,48.0893537 54.772112,47.9959357 C54.8438663,47.9026612 54.8028234,47.8507145 54.7312106,47.7677719 C54.6595979,47.6848293 54.5881266,47.4047188 54.5267038,47.2283582 C54.465281,47.0519976 54.639218,47.0311902 54.7312106,46.8964444 C54.8233448,46.7614116 54.7926334,46.7512231 54.6595979,46.6992764 C54.5267038,46.6473297 54.2811542,46.6682806 54.0970273,46.7200838 C53.9127589,46.771887 53.9433288,46.9379157 53.9741817,47.1039443 C54.0048931,47.2698295 53.9741817,47.1765549 53.7900548,47.2491656 C53.6059279,47.3217762 53.728632,47.2076943 53.7490119,47.1556041 C53.7695334,47.1039443 53.7900548,47.1349402 53.8104347,47.062473 C53.8309562,46.9898624 53.8104347,46.9379157 53.8718575,46.875637 C53.9332803,46.8133583 53.882189,46.6889445 53.8718575,46.5955265 C53.8616676,46.5022519 53.9741817,46.4193094 54.0150831,46.2326168 C54.0559844,46.0459243 53.9536603,46.0043095 53.9332803,45.9525063 C53.9127589,45.9004161 53.6367809,45.8487563 53.5343152,45.8487563 C53.431991,45.8487563 53.4116111,45.8487563 53.2580541,45.807285 C53.1046386,45.7658138 53.0330259,45.7448629 52.8385675,45.7243425 C52.6442507,45.7035351 52.6339192,45.630781 52.6033493,45.5686458 C52.5726379,45.5063671 52.7976662,44.9774288 52.8796104,44.7907363 C52.9614131,44.6037568 52.7363849,44.7697854 52.6135393,44.8322076 C52.4908352,44.8944863 52.5930179,44.7387896 52.6749621,44.5832364 C52.7567648,44.4276832 52.551975,44.5417651 52.551975,44.5417651 C52.551975,44.5417651 52.4601238,44.5106258 52.4396024,44.3862119 C52.4192225,44.261511 52.3577997,44.2824619 52.1940527,44.2926504 C52.0304473,44.3031258 52.0610171,44.3862119 52.1633413,44.5417651 C52.2656655,44.6973183 52.1940527,44.749265 52.1019185,44.842396 C52.0097843,44.9359576 52.1531513,44.9359576 52.2656655,45.0085682 C52.3781796,45.0810353 52.4499339,45.5997851 52.4499339,45.5997851 C52.4499339,45.5997851 52.4396024,45.620449 52.4192225,45.6932031 L52.4061193,45.7392515 C52.3867222,45.8039616 52.3556768,45.8819334 52.2656655,45.9733137 C52.1531513,46.0873956 52.2247641,46.8341657 52.2247641,47.072805 C52.2247641,47.3111572 52.2043842,47.2594975 52.1326299,47.2180262 C52.0610171,47.1765549 52.0610171,47.2283582 51.9792144,47.2594975 C51.8974117,47.2906369 51.7848976,47.2698295 51.662052,47.2283582 C51.5393479,47.1867434 51.651862,46.9898624 51.6825734,46.9169648 C51.7132848,46.8444977 51.651862,46.7823625 51.5904392,46.7097519 C51.529158,46.6371412 51.5495379,46.5748626 51.5904392,46.4607807 C51.6313406,46.3466987 51.6109607,46.2429488 51.6007707,46.0561128 C51.5904392,45.8694202 51.6723835,45.8487563 51.7338063,45.7761457 C51.7950876,45.7035351 51.825799,45.6723957 51.815609,45.5375064 C51.8052775,45.4026171 51.8667003,45.3611459 51.9997359,45.1537894 C52.0843048,45.021744 52.0114932,45.0535143 51.9131096,45.1074302 L51.8255927,45.1557631 C51.7963824,45.171479 51.7681588,45.1856984 51.7439962,45.1951172 C51.6109607,45.2472074 51.6007707,45.0915107 51.4984466,45.0085682 C51.3961224,44.9253386 51.4575452,45.1225066 51.518968,45.3508139 C51.5802493,45.5789777 51.4984466,45.6827277 51.3859324,45.7346744 C51.2732768,45.7863341 51.2732768,45.911035 51.2425654,45.9733137 C51.2119955,46.0354489 51.1812841,46.0873956 51.0584385,46.1703382 C50.935876,46.2531372 50.8232203,46.4399733 50.7002332,46.5748626 C50.5776707,46.7097519 50.5265794,46.5125839 50.4753465,46.3258914 C50.4242552,46.1390553 50.3628324,46.3362233 50.2605082,46.5125839 C50.1581841,46.6889445 50.1990854,46.6058584 50.3424525,46.5851945 C50.4855365,46.5643871 50.3117411,46.7407477 50.03548,46.8444977 C49.7592189,46.9483911 49.4625779,47.2283582 49.3295424,47.3840549 C49.1965068,47.5396081 49.2477397,47.4876613 49.0430913,47.4773294 C48.8385846,47.4669974 49.0225699,47.6328826 49.0839927,47.7263006 C49.1454155,47.8194316 49.1863169,47.7989112 49.2170283,47.9233251 C49.2477397,48.0478824 49.3193524,48.037407 49.4727679,48.1306815 C49.4984652,48.1463387 49.5184273,48.1582144 49.5343815,48.1667462 L49.6129253,48.1685269 L49.6129253,48.1685269 L49.6483367,48.1324738 L49.6483367,48.1324738 L49.6876062,48.0996857 C49.7649596,48.042564 49.7746166,48.078635 49.7664758,48.1641129 L49.7973814,48.165394 C49.818318,48.2229661 49.8392546,48.280251 49.8604741,48.3379666 C49.8563363,48.392305 49.8026303,48.3837036 49.7873255,48.4238375 C49.8611758,48.5051788 50.0204855,48.5379971 50.1378042,48.5976281 L50.127,48.593 L50.1609423,48.5673933 L50.1674496,48.173434 C50.2441228,48.1735776 50.4608447,48.326768 50.5189862,48.3269116 C50.7249569,48.3271987 50.5648203,48 50.6272057,48 C50.6474349,48 50.7449032,48.0450814 50.803752,48.0938956 C50.8930154,48.168409 50.994869,48.4637349 51.0255666,48.5571998 C51.0699861,48.6925874 51.2568592,48.6838295 51.3814885,48.7108209 C51.5061177,48.7379559 51.4881519,48.8101722 51.4972055,48.8914335 C51.5061177,48.9726947 51.7374104,49.0177761 51.8886347,49.044911 C52.0398591,49.0719024 52.0221762,49.1442623 51.9242835,49.2615599 C51.8263908,49.3791447 51.7106738,49.3337762 51.5949567,49.3520098 C51.4792397,49.3699562 51.3459812,49.469451 51.3459812,49.4965859 C51.3459812,49.5234338 51.2746836,49.5688022 51.1501958,49.5326223 C51.0255666,49.4965859 50.9187617,49.5415237 50.6696447,49.5054874 C50.4206691,49.469451 50.6074008,49.5956501 50.7229764,49.6678664 C50.8388349,49.7402262 50.8030447,49.7494148 50.7942739,49.8667124 C50.7855032,49.9840101 50.8297812,50.0112886 50.9187617,50.2279375 C51.0077422,50.4445864 50.9454983,50.4445864 50.7942739,50.4537749 C50.6429081,50.4626764 50.6874691,50.5168027 50.5984886,50.6431453 C50.5095081,50.7696315 50.4650886,50.570929 50.3670545,50.4537749 C50.2693033,50.3363337 50.1318009,50.3498294 49.9716643,50.359018 C49.8113863,50.3677758 50.1059131,50.2730188 50.0614935,50.1828561 C50.026835,50.1123627 49.8321814,50.2496167 49.7202838,50.337913 C49.6891619,50.3627508 49.6578985,50.3548544 49.64644,50.3725137 C49.5929668,50.4537749 49.4861619,50.4987127 49.1926254,50.4445864 C48.8989474,50.3904601 48.9701035,50.1827126 48.8277913,50.0021 C48.6853377,49.8216311 48.6409182,49.8846588 48.4809231,49.857811 C48.320645,49.8305325 48.2494889,49.9660637 48.1871036,50.0835049 C48.1248597,50.2008025 48.0537036,50.2730188 47.9201622,50.2822074 C47.7867622,50.2911088 47.7956744,50.3544237 47.7956744,50.4806228 C47.7956744,50.607109 47.8846549,50.6251989 48.0180548,50.6974152 C48.1515963,50.7696315 48.0892109,50.6431453 48.2227524,50.6613789 C48.3561523,50.6793253 48.4451328,50.6793253 48.5964986,50.6793253 C48.747723,50.6793253 48.5964986,50.8418478 48.4629572,50.9411991 C48.3295572,51.0406939 48.4809231,51.0406939 48.5699035,50.995469 C48.6587425,50.9502441 48.7921425,50.815 48.8989474,50.8961177 C49.0057522,50.977379 48.9435084,51.1941715 48.8543864,51.3297027 C48.7654059,51.4652339 48.5964986,51.3024241 48.498606,51.2393964 C48.4007133,51.1760815 48.2138402,51.4017754 48.1337719,51.564298 C48.0537036,51.7268205 47.9379866,51.5012702 47.8579183,51.4290539 C47.77785,51.356694 47.6710451,51.2935227 47.5109086,51.2574864 C47.350772,51.2213064 47.3240354,51.3297027 47.3418598,51.4831802 C47.3596842,51.6365143 47.0927428,51.4290539 46.9771672,51.3386041 C46.8613087,51.2482978 46.9592013,51.2213064 47.0661477,51.1671801 C47.1729525,51.1130538 47.0927428,51.0768738 46.9948501,50.9865676 C46.8969574,50.8961177 46.9592013,50.8058115 47.0037623,50.6613789 C47.0481818,50.5168027 47.1906354,50.5529826 47.3951915,50.4806228 C47.599889,50.40855 47.6355378,50.3363337 47.599889,50.1196848 C47.5642403,49.9028924 47.6799573,49.7854511 47.6177134,49.64992 C47.555611,49.5145323 47.4486647,49.5867486 47.3329476,49.6410185 C47.2172306,49.6952884 47.0661477,49.6770549 46.9058696,49.7221363 C46.7457331,49.7675047 46.7546453,49.7313248 46.7011721,49.839721 C46.6478404,49.9479737 46.4787917,49.9300273 46.247499,49.9300273 C46.0160649,49.9300273 46.087221,49.8938474 46.0428015,49.7854511 C45.9982405,49.6770549 46.15866,49.6678664 46.2919185,49.63183 C46.4253185,49.5956501 46.3541624,49.469451 46.3186551,49.3699562 C46.2830063,49.2707485 46.2653234,49.22538 46.3630746,49.1171273 C46.4609673,49.0088747 46.5766843,49.1712537 46.7812404,49.3156863 C46.9859379,49.4602624 46.9592013,49.2888385 47.0749184,49.1712537 C47.1343841,49.1109757 47.085736,49.0530485 46.9966081,48.9975109 L45.7870356,48.9979396 C45.6977174,49.0357212 45.6019888,49.0748088 45.4910942,49.1080824 C45.2510309,49.1804422 45.0372797,49.2796499 44.8949675,49.4153247 C44.7525139,49.5507123 44.7970748,49.6048386 44.7970748,49.6952884 C44.7970748,49.7854511 44.9482992,49.7764062 45.0194553,49.6770549 C45.0907528,49.5777037 45.188504,49.61374 45.322187,49.6229286 C45.4554455,49.63183 45.4377625,49.7854511 45.4377625,49.9208388 C45.4377625,50.0562264 45.3398699,50.1285862 45.4643577,50.2008025 C45.5889869,50.2730188 45.9715039,50.2099911 46.202938,50.2549289 C46.4342307,50.3001538 46.1405527,50.4445864 46.1405527,50.4445864 C46.1405527,50.4445864 46.0961332,50.5079013 46.0604844,50.6162975 C46.0249771,50.7246937 46.1851136,50.7515416 46.2562697,50.83309 C46.3275673,50.9143513 46.1228698,50.977379 46.0517137,50.9053063 C45.9804161,50.83309 46.0160649,50.815 45.8737527,50.8058115 C45.7312991,50.79691 45.6779674,50.9143513 45.6244942,51.0587839 C45.5711625,51.2032165 45.8113674,51.3749276 45.9893283,51.5374502 C46.1672893,51.6999727 45.9982405,51.6546042 45.8737527,51.6546042 C45.7491235,51.6546042 45.7669479,51.7268205 45.6957918,51.8171268 C45.6244942,51.9075766 45.5978991,51.8444053 45.615865,51.7450541 C45.6335479,51.6457028 45.5711625,51.6637928 45.5,51.6818828 C45.4288503,51.6999727 45.3487821,51.7088741 45.1351723,51.7268205 C44.9217041,51.7450541 44.8860553,51.7180627 44.7436017,51.6907842 C44.6012895,51.6637928 44.6280261,51.8623517 44.5033968,51.9707479 C44.378909,52.0791442 44.2810164,52.0609106 44.3699969,52.1243691 C44.4589773,52.1873968 44.5745529,52.4584592 44.6191139,52.5757569 C44.6635334,52.6933417 45.1351723,53.0544232 45.2241528,53.1537744 C45.3131333,53.2529821 45.277626,53.2170893 45.6068113,53.135828 C45.9359966,53.0544232 45.6068113,53.135828 45.6244942,53.2621706 C45.6423186,53.3885133 45.7847722,53.4337382 45.953821,53.4426396 C46.1228698,53.4518282 46.1763429,53.3523333 46.1763429,53.2529821 C46.1763429,53.1537744 46.220621,53.1988558 46.3097429,53.0996481 C46.3987234,53.0001533 46.3097429,52.9460269 46.2740941,52.7836479 C46.2563405,52.7023149 46.3052868,52.6752158 46.3798026,52.659423 L46.5056122,52.6388474 C46.5505136,52.6312382 46.596666,52.6210895 46.6389282,52.6030354 C46.807977,52.5308191 46.719138,52.720333 46.6121916,52.7926929 C46.5053868,52.8649092 46.5677721,53.0182432 46.5232112,53.0996481 C46.4787917,53.1807658 46.5588599,53.2350357 46.6567526,53.4337382 C46.7546453,53.6324407 46.4253185,53.5329459 46.247499,53.5783144 C46.0693966,53.6233957 46.2119917,53.7859183 46.2653234,53.9124045 C46.3186551,54.0387471 46.5588599,54.1019184 46.7812404,54.120152 C47.0037623,54.1380984 46.8969574,54.2104582 46.7368209,54.2826745 C46.5766843,54.3548908 46.5588599,54.4360085 46.3630746,54.4360085 C46.1672893,54.4360085 46.202938,54.3457023 46.15866,54.1922247 C46.1139576,54.0387471 46.1851136,54.0569806 46.1050454,54.0297021 C46.0249771,54.0027107 45.953821,53.9935222 45.7847722,53.867036 C45.615865,53.7408369 45.5178308,53.9573423 45.4910942,54.0657385 C45.4643577,54.1742783 45.277626,54.2826745 45.1797333,54.3818822 C45.0818406,54.4812335 45.0283675,54.4090172 44.939387,54.3095223 C44.8504065,54.2104582 44.82367,54.3007645 44.8416358,54.4179186 C44.8593187,54.5355034 45.0017724,54.5444048 45.117348,54.5715397 C45.233065,54.5986747 45.2419772,54.652801 45.2419772,54.7792872 C45.2419772,54.9057734 45.2598016,54.8243686 45.5711625,55.086386 C45.8826649,55.3482598 45.9270844,55.0951438 46.1050454,55.1044759 C46.2830063,55.1133773 46.247499,55.2579535 46.2740941,55.4023861 C46.3008307,55.5469623 45.9270844,55.4835038 45.8025966,55.4835038 C45.6779674,55.4835038 45.6691967,55.5196837 45.5978991,55.5919 C45.526743,55.6642599 45.5089186,55.637125 45.4288503,55.5469623 C45.3487821,55.456656 45.3487821,55.4926924 45.1620504,55.4926924 C44.9750358,55.4926924 45.0194553,55.3751076 44.9037382,55.2487649 C44.7881626,55.1224223 44.7436017,55.212585 44.6635334,55.2760435 C44.5834651,55.3390712 44.4766603,55.3931975 44.263192,55.456656 C44.0497237,55.5196837 44.129792,55.5739537 44.1030554,55.7004399 C44.0763188,55.8267825 43.9252359,55.7185298 43.8184311,55.7093413 C43.7114848,55.7004399 43.6670653,55.6822063 43.5247531,55.7726562 C43.3822994,55.8629624 43.2578117,55.8629624 43.0263775,55.8810524 C42.7950849,55.8989988 42.6971922,55.9351787 42.5370557,56.007395 C42.3769191,56.0797549 42.2612021,56.0343864 42.145485,55.9440801 C42.0297679,55.8537739 42.2255533,55.6642599 42.3056216,55.5739537 C42.3856898,55.4835038 42.2344655,55.4293775 42.1010655,55.2939899 C41.9676655,55.1586023 41.9496997,55.086386 41.9764362,54.7700987 C42.0033143,54.4540985 41.9231045,54.3818822 41.7717387,54.2014132 C41.6205143,54.0208007 41.6028314,54.3457023 41.6294265,54.4721885 C41.6561631,54.5986747 41.6561631,54.6707474 41.5226217,54.7700987 C41.3892217,54.8695935 41.3981339,54.9326212 41.3446607,55.032116 C41.291329,55.1313237 41.6294265,55.2487649 41.8073875,55.3301698 C41.9853484,55.4112875 41.7540558,55.6731613 41.6294265,55.8267825 C41.5404056,55.9364093 41.5014022,55.958575 41.4377148,55.9622919 L41.3446607,55.9623137 L41.3446607,55.9623137 C41.2112607,55.9623137 41.1313339,55.7004399 41.0332998,55.5558637 C40.9354071,55.4112875 40.8107779,55.6101336 40.6684657,55.7364762 C40.5260121,55.8629624 40.5083291,55.9259902 40.7128852,55.8356839 C40.9175827,55.7453776 41.0067047,55.8810524 41.1401047,55.9713587 C41.2735046,56.0615214 41.0688071,56.2513224 41.0600364,56.3686201 C41.0511242,56.4860613 41.0956852,56.4679713 41.0866315,56.6124039 C41.0777193,56.7568365 41.1044559,56.7660251 41.1934364,56.802205 C41.2824168,56.8382414 41.3269778,56.8471428 41.3981339,56.9737726 C41.46929,57.1001152 41.5226217,57.1271066 41.6827582,57.1723315 C41.8428948,57.2174129 41.8874558,57.000764 41.9496997,56.9012691 C42.012085,56.802205 42.0654167,56.7928729 42.1098362,56.7928729 C42.1543972,56.7928729 42.1010655,56.8111064 42.2790264,56.7479351 C42.4569874,56.6846202 42.4035142,56.7928729 42.3680069,56.9104577 C42.3323581,57.0278989 42.3856898,57.0820252 42.4835825,57.2445478 C42.5814752,57.4070704 42.6615435,57.2807277 42.866241,57.1812329 C43.0709385,57.0820252 43.1686897,57.1812329 43.3466507,57.2353593 C43.5247531,57.2896292 43.3646165,57.4975202 43.2221629,57.6418092 C43.0797092,57.7863854 42.9997824,57.7954304 42.7772605,57.8857367 C42.5547386,57.9760429 42.5992996,57.9490515 42.5903874,58.1115741 C42.5814752,58.2740967 42.6082118,58.3102766 42.5903874,58.4094843 C42.5727044,58.508692 42.4035142,58.716583 42.3680069,58.8068893 C42.3323581,58.8971956 42.2433777,58.9422769 42.1367143,59.0233946 C42.0297679,59.1047995 42.0297679,59.0776645 41.9942606,59.0054482 C41.9586119,58.9332319 41.9409289,58.9603669 41.8696314,58.9422769 C41.7984753,58.9241869 41.7717387,58.8430692 41.7984753,58.7254844 C41.8252119,58.6081868 41.6916704,58.6531246 41.5760948,58.6804031 C41.4603778,58.7073945 41.4159583,58.8338807 41.3002412,58.9511783 C41.1845242,59.0687631 41.0866315,59.0414846 41.0866315,59.0414846 C41.0866315,59.0414846 41.1668412,59.2041507 41.2201729,59.3757183 C41.2735046,59.5474294 41.3269778,59.5201509 41.3892217,59.6556821 C41.4514656,59.7910697 41.7895631,59.6556821 41.8696314,59.691862 C41.9496997,59.7280419 41.896368,59.863286 41.7895631,59.9626372 C41.6827582,60.0621321 41.7806509,60.233556 41.7540558,60.3420958 C41.7273192,60.4504921 41.5671826,60.4773399 41.4514656,60.5857361 C41.33589,60.6942759 41.3535729,60.7033209 41.1490169,60.7122223 C40.9443193,60.7212673 41.0243876,60.7845822 41.0956852,60.9288712 C41.1668412,61.0734474 41.0866315,61.0823488 40.997651,61.0823488 C40.9086706,61.0823488 40.9264949,61.0915374 40.8286023,61.2180236 C40.7307096,61.3442226 40.6506413,61.3442226 40.454856,61.3442226 C40.2592121,61.3442226 40.1702316,61.1727986 40.1702316,61.0101325 C40.1702316,60.8476099 40.3926121,60.7845822 40.4815926,60.667141 C40.570573,60.5495562 40.454856,60.5133762 40.2947194,60.3689437 C40.1345829,60.2246546 40.1881975,60.3238623 40.0634268,60.3779886 C39.938939,60.432115 39.9566219,60.3779886 39.8409049,60.2154661 C39.7253293,60.0529435 39.1915879,59.8182046 39.1113781,59.7459883 C39.0313099,59.673772 38.8888562,59.6556821 38.7108953,59.6377357 C38.5330758,59.6196457 38.5685831,59.6645835 38.4262709,59.6377357 C38.2839588,59.6104571 38.4617782,59.5474294 38.630827,59.5201509 C38.7998757,59.4931595 38.5953197,59.3847633 38.497427,59.2674656 C38.3995343,59.1498808 38.452866,59.0956109 38.5063392,58.9692683 C38.5596709,58.8430692 38.6042319,58.7887993 38.5953197,58.5900968 C38.5864075,58.3915379 38.497427,58.3824929 38.38171,58.328223 C38.299257,58.2895613 38.2847209,58.3567468 38.2831454,58.4213162 L38.2839588,58.490602 L38.2839588,58.490602 C38.2839588,58.5540605 38.3017831,58.5989982 38.1770124,58.7616644 C38.0525246,58.9241869 38.0791198,59.0776645 38.0791198,59.2943134 C38.0791198,59.387286 38.0971,59.4320802 38.1204551,59.4642958 L38.1705967,59.5225037 C38.1872093,59.5433479 38.2024758,59.5691497 38.2126612,59.6104571 C38.24831,59.7548897 38.1949783,59.827106 38.1236807,59.9626372 C38.0525246,60.0981684 37.5808857,60.1884747 37.5808857,60.1884747 C37.5808857,60.1884747 36.9492516,60.3238623 36.851359,60.3689437 C36.7534663,60.4143121 36.6644858,60.3689437 36.4508761,60.2695924 C36.2374078,60.1705283 36.2907395,60.1611962 36.086042,60.1705283 C35.881486,60.1794297 36.0771298,60.3420958 36.0771298,60.4954299 C36.0771298,60.649051 35.9795201,60.6219161 35.7835933,60.649051 C35.5878079,60.6760424 35.6234567,60.8115736 35.4454958,61.0463124 C35.2675348,61.2810513 35.2497104,61.190745 35.2497104,61.190745 C35.2497104,61.190745 35.2229739,61.037411 35.1250812,60.9109248 C35.0271885,60.7845822 34.9916812,61.1277173 34.8404568,61.1818436 C34.689091,61.2361135 34.6535837,61.1545651 34.555691,61.0101325 C34.4577984,60.8656999 34.6446715,60.6760424 34.689091,60.6038261 C34.733652,60.5316098 34.7780715,60.4773399 34.733652,60.432115 C34.689091,60.3870336 34.6980032,60.3330509 34.6801788,60.251646 C34.6624959,60.1705283 34.689091,60.1794297 34.6179349,60.0981684 C34.5467788,60.0167636 34.5824276,59.9897722 34.5911983,59.8904209 C34.6001105,59.7910697 34.5964325,59.8888417 34.5821447,59.7485726 C34.5655935,59.5867679 34.5563983,59.6391714 34.7016813,59.5218737 C34.7340764,59.4956002 34.7833056,59.5085216 34.7630764,59.441761 C34.7442617,59.3793076 34.6527349,59.3026406 34.6268471,59.276367 C34.573374,59.2220971 34.4933057,59.0144932 34.4221496,58.8338807 C34.3509935,58.6531246 34.2441886,58.6262768 34.2441886,58.6262768 C34.2441886,58.6262768 34.2531008,58.8700606 34.2531008,59.0506731 C34.2531008,59.2312857 34.1730326,59.2401871 33.9595643,59.3668169 C33.7459546,59.4931595 33.8438472,59.709952 33.7814619,59.8904209 C33.719218,60.0708899 33.7370424,60.0621321 33.5235741,60.1973761 C33.3099644,60.3330509 33.4522766,60.4232136 33.5235741,60.4593935 C33.5947302,60.4954299 33.6658863,60.3962222 33.8527594,60.2695924 C34.0396326,60.1432498 34.0751399,60.2876824 34.2265057,60.3600422 C34.3777301,60.432115 34.2265057,60.8387085 34.1908569,60.9471048 C34.1552082,61.055501 34.3509935,61.1366187 34.2798374,61.2721499 C34.2086813,61.4075375 34.1908569,61.4256275 34.1730326,61.6332314 C34.1552082,61.8409789 34.306574,61.5882936 34.3866423,61.4798974 C34.4667106,61.3715011 34.5111301,61.3623126 34.6446715,61.3534112 C34.7780715,61.3442226 34.7158276,61.6695549 34.7247398,61.8862038 C34.733652,62.1029963 34.6179349,62.0487264 34.5200423,62.1571226 C34.4221496,62.2653753 34.439974,62.3196452 34.3599057,62.5182041 C34.2798374,62.7169066 34.262013,62.7530865 34.146296,62.7619879 C34.0307204,62.7710329 34.0573155,62.8073564 33.8438472,62.9426005 C33.6302375,63.0782752 33.6837107,62.987969 33.5235741,62.9246541 C33.3632961,62.8614828 33.4078571,62.9968704 33.2655449,63.0690867 C33.1230912,63.1414466 32.9896913,63.0060589 32.9274474,62.8884741 C32.865062,62.7710329 32.8384669,62.5635726 32.8561498,62.4640778 C32.8739742,62.3648701 32.9274474,62.0849063 32.9005693,61.9312851 C32.8739742,61.7778076 32.9807791,61.8228889 33.0519352,61.7236812 C33.1230912,61.62433 33.2120717,61.5610151 33.1853351,61.4164389 C33.15874,61.2721499 33.15874,61.3353212 33.2298961,61.226925 C33.3010522,61.1185287 33.3632961,61.1366187 33.3722083,61.0193211 C33.3811205,60.9018798 33.2209839,60.8747449 33.0162864,60.7755372 C32.8117303,60.6760424 32.8384669,60.7845822 32.6337694,60.7755372 C32.4290718,60.7663487 32.4913157,60.7301687 32.3133548,60.7484023 C32.1353938,60.7663487 32.1621304,60.9018798 32.188867,61.055501 C32.2078635,61.1651278 32.2723304,61.1964498 32.3659767,61.2152878 L32.4913157,61.2361135 L32.4913157,61.2361135 C32.6515938,61.2631049 32.6337694,61.3353212 32.615945,61.4437174 C32.5981206,61.5521137 32.6248572,61.5248352 32.7849937,61.6513214 C32.9451303,61.7778076 32.6871011,61.795754 32.4824035,61.8500239 C32.2778475,61.9042938 32.188867,62.03078 32.0553256,62.1118977 C31.9219256,62.1933025 31.9130134,62.2113925 31.9130134,62.3196452 C31.9130134,62.4278978 32.188867,62.3196452 32.3668279,62.4640778 C32.5446474,62.6085104 32.5002279,62.5904204 32.4645792,62.6718252 C32.4290718,62.7530865 32.2154621,62.8162578 32.0731499,62.7351401 C31.9308378,62.6538789 31.8862768,62.6266003 31.7261402,62.5362941 C31.5660037,62.4459878 31.4591988,62.4912127 31.2723257,62.4732663 C31.0854525,62.4551763 31.0854525,62.4278978 30.9787891,62.2834652 C30.8719843,62.1390326 30.7651794,62.2563303 30.5961307,62.2204375 C30.4270819,62.1842575 30.3470136,62.1118977 30.2312966,62.0668163 C30.1155795,62.0215914 30.0178283,62.0396814 29.8842869,62.0487264 C29.7507454,62.0576278 29.822043,62.1933025 30,62.2745638 C30.1779649,62.3556815 30.2047014,62.3196452 30.4538185,62.3286901 C30.7029355,62.3375916 30.613955,62.4551763 30.5515697,62.5454826 C30.4893258,62.6357889 30.5338868,62.6807267 30.5426575,62.7800779 C30.5515697,62.8795727 30.4893258,62.9336991 30.364838,62.969879 C30.2402088,63.0060589 30.1956478,62.8162578 30.0533356,62.7169066 C29.910882,62.6176989 29.9732673,62.743898 29.9643551,62.8522942 C29.955443,62.9606904 29.9021113,62.9246541 29.6974137,62.9336991 C29.4927162,62.9426005 29.5551015,62.9246541 29.5194528,63.0060589 C29.4839455,63.0873202 29.7241503,63.2406542 29.8664625,63.2860227 C30.0089161,63.3309605 30.026599,63.376329 30.249121,63.511573 C30.4715014,63.6471042 30.5249746,63.5569415 30.613955,63.5388516 C30.7029355,63.5207616 30.8008282,63.5569415 30.9609647,63.6742392 C31.1211013,63.7915368 31.1300135,63.6650506 31.1922574,63.5750315 C31.2546428,63.4845817 31.3791305,63.5207616 31.5304964,63.529663 C31.6817207,63.5388516 31.8862768,63.4574467 32.0109061,63.3850868 C32.1353938,63.3128705 32.5180523,63.3401491 32.6692767,63.3309605 C32.8205011,63.3220591 32.8028181,63.3942754 32.8117303,63.4753931 C32.8205011,63.5569415 32.6781889,63.6831406 32.6070328,63.8637531 C32.5358767,64.0443657 32.8028181,64.2159332 32.9362181,64.3243294 C33.0697595,64.4327257 33.0697595,64.3424194 33.1498278,64.2340232 C33.2298961,64.1257705 33.2566327,64.1346719 33.3900327,64.2700595 C33.5235741,64.4057343 33.5323448,64.6223832 33.541257,64.7579144 C33.5501692,64.893302 33.6391497,64.9024905 33.7370424,64.9112484 C33.834935,64.9204369 33.7814619,65.0378782 33.7013936,65.1642208 C33.6213253,65.290707 33.7281302,65.3176984 33.8971789,65.4983109 C34.0662277,65.679067 33.9060911,65.6428871 33.7281302,65.660977 C33.5501692,65.679067 33.1764229,65.7962211 33.043023,65.7962211 C32.909623,65.7962211 32.9185352,65.9138059 32.8294132,66.0130136 C32.7404328,66.1123648 32.731662,66.1304548 32.5981206,66.1845811 C32.4645792,66.238851 32.4824035,66.2929773 32.4734913,66.3832836 C32.4645792,66.4735899 32.4558084,66.4556435 32.3490036,66.4735899 C32.2421987,66.4918234 32.2600231,66.5186712 32.1177109,66.654346 C31.9752573,66.78959 32.0287304,66.6000761 32.0287304,66.3471037 C32.0287304,66.0942748 31.8151207,66.4646885 31.6906329,66.5640397 C31.5660037,66.6632474 31.6817207,66.636256 31.8418573,66.6451574 C32.0019939,66.654346 31.8684524,66.7806886 31.8684524,66.7806886 C31.8684524,66.7806886 31.7083159,66.9252648 31.5927403,67.0154275 C31.4770232,67.1055902 31.5392671,67.186995 31.5481793,67.3585626 C31.5570915,67.5301301 31.4147793,67.4758602 31.2901501,67.5029952 C31.1655208,67.5301301 31.174433,67.4488689 31.218994,67.3677511 C31.2634135,67.2863463 31.2368184,67.2863463 31.2457306,67.1690486 C31.2546428,67.0514638 31.2990623,67.0787424 31.3880427,67.0065261 C31.4770232,66.9341662 31.4770232,66.8709949 31.4591988,66.6811938 C31.4413744,66.4918234 31.3969549,66.6270675 31.2546428,66.6992838 C31.1121891,66.7715001 31.174433,66.6181661 31.1655208,66.4285085 C31.1566086,66.238851 31.0588574,66.3471037 31.0321208,66.4015172 C31.0053843,66.4556435 30.7830038,66.8529049 30.6672867,66.9703461 C30.5515697,67.0876438 30.613955,67.1236801 30.6228672,67.2774449 C30.6317794,67.4309225 30.7029355,67.2955348 30.7740916,67.17795 C30.8452477,67.0606524 30.8808965,67.1236801 30.925316,67.186995 C30.9698769,67.2501663 30.9698769,67.3677511 30.9609647,67.5482201 C30.9520526,67.7288326 30.8363355,67.764869 30.6851111,67.9907065 C30.5338868,68.2165439 30.5693941,68.0810127 30.4625892,68.0086529 C30.3559258,67.9364366 30.3470136,68.2346339 30.2402088,68.5233555 C30.1335454,68.8125078 30.1867356,68.7674265 30.1867356,69.0201118 C30.1867356,69.2730842 30.3113648,69.3722918 30.3291892,69.525913 C30.3470136,69.6793906 30.1956478,69.7065255 30.0800722,69.6614442 C29.9643551,69.6162193 30,69.5889407 29.910882,69.5709943 C29.822043,69.5529044 29.8042186,69.5982729 29.7152381,69.5167244 C29.6262576,69.4356067 29.6262576,69.4536967 29.5461894,69.4717867 C29.4661211,69.4898766 29.350404,69.6432106 29.2525114,69.7516069 C29.1546187,69.8598595 29.1546187,69.8780931 29.101287,70.0496606 C29.0479553,70.2212282 29.0033943,70.1399669 28.967887,70.0226693 C28.9322382,69.9050845 28.8254334,70.0948855 28.7009456,70.2845431 C28.5763163,70.474057 28.6563846,70.455967 28.6563846,70.6818045 C28.6563846,70.907642 28.5228432,70.7270294 28.5228432,70.7270294 C28.5228432,70.7270294 28.4873359,70.6818045 28.425092,70.6638581 C28.3627066,70.6457681 28.3093749,70.7179844 28.2915505,70.7900572 C28.2737261,70.8622735 28.3004627,70.871462 28.2382188,70.9979482 C28.1759749,71.1242909 28.2293066,71.1151023 28.2293066,71.3049034 C28.2293066,71.4945609 28.1403262,71.4131561 28.0335213,71.4404346 C27.9267164,71.467426 27.9090335,71.4764709 27.7754921,71.4945609 C27.6420921,71.5126509 27.7132482,71.3771197 27.7221604,71.259822 C27.7310726,71.1423808 27.6153555,71.1423808 27.570936,71.0339846 C27.526375,70.9255884 27.6775994,70.9617683 27.8111408,70.9438219 C27.9445408,70.9255884 28.0335213,70.8173357 28.131414,70.6546695 C28.2293066,70.492147 28.5228432,70.1129755 28.5852285,69.9953907 C28.6474724,69.8780931 28.6831212,69.8147782 28.6831212,69.7607954 L28.682731,69.7379412 L28.682731,69.7379412 L28.6824085,69.681843 C28.6836409,69.6341305 28.6894264,69.558196 28.7097163,69.4084718 C28.7453651,69.146598 28.6030529,69.4084718 28.4962481,69.4898766 C28.3894432,69.5709943 28.3983554,69.6162193 28.3271993,69.6162193 C28.2560432,69.6162193 28.247131,69.5889407 28.3361115,69.3814804 C28.425092,69.1737329 28.0067847,69.525913 27.953453,69.5620929 C27.9001213,69.5982729 27.7754921,69.498778 27.5975311,69.4264182 C27.4195702,69.3542019 27.4818141,69.3722918 27.3395019,69.2369042 C27.1970482,69.1015166 27.2239263,69.1015166 27.0814727,69.0743817 C26.9391605,69.0473903 26.8680044,69.0654802 26.8680044,69.0654802 C26.8680044,69.0654802 26.9302483,69.1737329 27.0014044,69.2188143 C27.0725605,69.2640392 27.2505214,69.2910306 27.3484141,69.4264182 C27.4463067,69.5620929 27.3573263,69.6432106 27.2150141,69.7698404 C27.0725605,69.896183 27.1526287,69.8598595 26.9746678,69.896183 C26.7967068,69.932363 26.9568434,70.085697 27.0458239,70.2212282 C27.1348044,70.3567594 27.1793653,70.4378771 27.1348044,70.6276782 C27.0903849,70.8173357 26.8412678,71.042886 26.6811313,71.2055521 C26.5208532,71.3682183 26.6098337,72.1084712 26.6098337,72.3343087 C26.6098337,72.5601461 26.6098337,72.6503088 26.5475898,72.82202 C26.4853459,72.9935875 26.4764337,72.975354 26.4586093,73.1018402 C26.4407849,73.2284699 26.4586093,73.363714 26.5208532,73.4903438 C26.5832386,73.6166864 26.601063,73.5985964 26.5921508,73.733984 C26.5832386,73.8695152 26.4764337,73.8062003 26.3607167,73.8334789 C26.2449996,73.8604702 26.1115996,74.1042541 26.0759509,74.2578753 C26.0404435,74.4113528 25.9247265,74.4024514 25.7913265,74.4205414 C25.6577851,74.4384878 25.6133656,74.6551367 25.5154729,74.709263 C25.4175802,74.7635329 25.3730193,74.6100553 25.3553363,74.4205414 C25.3375119,74.2305967 25.4976485,74.185659 25.5511217,74.185659 C25.6044534,74.185659 25.6222778,74.1223441 25.6222778,73.9960014 C25.6222778,73.8695152 25.835746,73.6978041 25.9247265,73.6347764 C26.013707,73.571605 26.0582679,73.4903438 26.1115996,73.381804 C26.1649313,73.2734077 26.2717362,72.1538397 26.2717362,71.9551372 C26.2717362,71.7564347 26.2094923,71.7023084 26.0582679,71.5575886 C25.9070436,71.4131561 25.835746,71.3682183 25.7112582,71.2325435 C25.586629,71.0971559 25.5422095,71.1331923 25.4709119,71.1331923 C25.3997558,71.1331923 25.2663559,71.1423808 25.1773754,71.1151023 C25.0883949,71.0882545 25.0349217,71.0520746 24.8747852,71.0520746 C24.7146486,71.0520746 24.6968242,71.0520746 24.616756,70.9798583 C24.5366877,70.907642 24.3765511,70.9438219 24.2253268,70.9438219 C24.0739609,70.9438219 24.0650487,70.9979482 23.9405609,71.0160382 C23.8159317,71.0339846 23.7358634,70.889552 23.6113756,70.7087959 C23.4867464,70.5281833 23.3888537,70.6095882 23.2554537,70.6095882 C23.1219123,70.6095882 23.1664733,70.7719672 23.1575611,70.8441835 C23.1486489,70.9165434 23.1841562,70.889552 22.9617757,71.0520746 C22.761506,71.1983449 23.0225569,71.198319 23.0767698,71.1968511 L23.1515416,71.1960567 C23.3354215,71.1953538 23.8523392,71.1974469 23.9760683,71.2417321 C24.1274341,71.296002 24.1274341,71.3950661 24.1807658,71.5488308 C24.2342389,71.7023084 24.3143072,71.7112098 24.3676389,71.7292998 C24.4209706,71.7473897 24.4298828,71.846741 24.3765511,71.9010109 C24.323078,71.9551372 24.3765511,71.9640386 24.323078,72.0816234 C24.2697463,72.1987775 23.9849804,72.1987775 23.7893366,72.1987775 C23.5935512,72.1987775 23.8337561,72.2892273 23.9494731,72.3254073 C24.0650487,72.3615872 24.0739609,72.3434972 24.1362048,72.5241098 C24.1985902,72.7045787 24.011717,72.6503088 23.9583853,72.5691911 C23.9049122,72.4879298 23.8337561,72.5241098 23.7269512,72.6053711 C23.6202878,72.6864888 23.7269512,72.8128314 23.8337561,72.9935875 C23.9405609,73.1742 23.5757268,73.2192814 23.3710293,73.2553178 C23.1664733,73.2914977 23.290961,73.4090825 23.4600098,73.4721102 C23.6292,73.5354251 23.4155903,73.6347764 23.1932098,73.7069927 C22.9706879,73.7793525 23.0329318,73.6166864 22.8817074,73.4632088 C22.7304831,73.3095877 22.748166,73.4721102 22.7749026,73.5354251 C22.8016392,73.5985964 22.9439513,73.8695152 22.9974245,74.0229928 C23.0507562,74.1764704 23.0240196,74.1945604 23.1040879,74.2486867 C23.1841562,74.3029566 23.2820488,74.2940552 23.3266098,74.2578753 C23.3710293,74.2218389 23.4245025,74.2037489 23.6202878,74.1764704 C23.8159317,74.149479 23.8070195,73.9506329 23.8337561,73.7972989 C23.8604927,73.6436778 23.9849804,73.770164 24.1274341,74.0140914 C24.2697463,74.2578753 24.438795,74.2940552 24.5812486,74.3662715 C24.7235608,74.4384878 24.5366877,74.4475328 24.4120584,74.4746677 C24.2875706,74.5018027 24.3676389,74.6370467 24.2608341,74.7184516 C24.1540292,74.7995693 24.145117,74.7003616 24.1274341,74.6281453 C24.1096097,74.555929 24.0917853,74.5286505 23.9672975,74.5376955 C23.8426683,74.5467404 23.6202878,74.9622354 23.5668147,75.0706317 C23.513483,75.1790279 23.7181805,75.2512442 23.7092683,75.4589917 C23.7003561,75.6665956 23.6468829,75.6575506 23.4867464,75.6483621 C23.3266098,75.6396042 23.2998732,75.6483621 23.1664733,75.5492979 C23.0329318,75.4499467 23.0596684,75.531208 22.9173562,75.6937305 C22.7749026,75.8562531 22.6591855,76.1270283 22.6058538,76.2714609 C22.5525221,76.4160371 22.8016392,76.5245769 22.8549709,76.5514247 C22.8995318,76.5741568 22.8575447,76.6406582 22.7598728,76.6882826 L22.6948343,76.7140909 C22.5525221,76.7593158 22.5614343,76.8315321 22.4012978,76.7864507 C22.2410197,76.7412258 22.2499319,76.8405771 22.0987076,76.9578747 C21.9474832,77.0754595 21.9207466,76.9216948 21.8583613,76.8043971 C21.8316853,76.7541267 21.7837552,76.7419876 21.7376884,76.7395452 L21.6548891,76.7391643 C21.6326838,76.7377303 21.6181564,76.7321808 21.6181564,76.7140909 C21.6181564,76.6509195 21.778293,76.4611185 21.8406783,76.3980907 C21.9029222,76.3349194 22.0097271,76.3798572 22.0630588,76.5425233 C22.116532,76.7050459 22.187688,76.5514247 22.1520393,76.4972984 C22.116532,76.4431721 22.0453759,76.4431721 22.0808832,76.2084332 C22.116532,75.9736943 22.4189807,75.6483621 22.4724538,75.6034243 C22.5257855,75.5581994 22.7215709,75.3323619 22.7749026,75.124758 C22.8069016,75.0001956 22.7332275,75.0251081 22.6480235,75.0668908 L22.562463,75.1093855 C22.5349863,75.1221507 22.5097153,75.1318791 22.4901368,75.1336594 C22.3923856,75.142848 22.2855807,75.0433531 22.2055124,74.9893704 C22.1254441,74.9351005 22.0808832,75.0344517 21.9919027,75.142848 C21.9029222,75.2512442 21.8763271,75.2782356 21.7695222,75.2601456 C21.6627174,75.2420556 21.6627174,75.1068116 21.6538052,74.9171541 C21.644893,74.727353 21.7071369,74.7814793 21.8583613,74.7546315 C22.0097271,74.727353 21.9829905,74.5376955 22.0630588,74.3934064 C22.1431271,74.2486867 21.9919027,74.2486867 21.8850978,74.2126503 C21.778293,74.1764704 21.8406783,74.0771191 21.8583613,73.9237851 C21.8763271,73.770164 21.3690394,73.8784166 21.3690394,73.8784166 C21.3690394,73.8784166 21.217815,73.8965066 21.0665906,73.8876052 C20.9153663,73.8784166 20.924137,73.9326865 20.7996492,74.0229928 C20.67502,74.1134427 20.7284931,74.2037489 20.7461761,74.4113528 C20.7640004,74.6189567 20.8529809,74.691173 20.9508736,74.8628842 C21.0161354,74.9772625 20.9824985,74.9953525 20.9106561,74.9973838 L20.8283263,74.9970336 C20.8132315,74.9970736 20.7976373,74.9974104 20.7818248,74.9984154 C20.6395127,75.0073168 20.67502,75.1790279 20.6928444,75.3234605 C20.7106687,75.4678931 20.9064541,75.6123257 20.9776102,75.702632 C21.0487663,75.7929382 20.9064541,75.8291182 20.7372639,75.8383067 C20.5682151,75.8472081 20.5594444,76.0006857 20.5148834,76.0820906 C20.4703224,76.1632083 20.4437273,76.2084332 20.3369225,76.1903432 C20.2301176,76.1723968 20.2390298,75.9284694 20.247942,75.6937305 C20.2568542,75.4589917 20.3012737,75.5039295 20.3991664,75.4137668 C20.497059,75.3234605 20.4080786,75.2782356 20.2923615,75.1971179 C20.1767859,75.1155694 20.1589615,75.0614431 20.0521567,74.9803254 C19.9453518,74.8990641 20.0166493,75.1609379 20.0343323,75.2782356 C20.0521567,75.3956768 20.0610688,75.6756406 20.0610688,75.8383067 C20.0610688,76.0006857 19.9631762,75.9464158 19.8030396,75.9554608 C19.753103,75.9584758 19.6778445,75.9762786 19.5877323,76.0212164 C19.5877323,76.0212164 19.6000397,75.9668029 19.5916933,75.9281823 C19.5832055,75.8895616 19.5157275,75.7907847 19.4482494,75.7563276 C19.3806299,75.7220141 19.1094446,75.6810963 19.00943,75.6431935 C18.9095568,75.6054343 18.7883227,75.5646601 18.6256398,75.5279058 C18.4195276,75.4815323 18.0887862,75.2533978 17.8842302,75.0775231 C17.7443229,74.9570669 17.6444497,74.8492449 17.5503765,74.7539136 C17.318801,74.5187441 17.3661912,74.1325376 17.3661912,73.9562322 C17.3661912,73.780214 17.0890644,73.2263164 17.0119669,72.9914339 C16.9831083,72.9034248 17.2013864,72.6841916 17.1896449,72.637531 C17.1701229,72.5595719 17.0467669,72.5147777 17.0488888,72.42361 C17.0521425,72.2778852 16.8856401,72.1033027 16.789162,72.0445821 C16.7349816,72.0114171 16.6858938,71.9486765 16.5223621,71.9615979 C16.5075084,71.9627465 16.4390401,72.1367548 16.3516158,72.1394826 C16.2643328,72.1419233 16.0548256,72.0526221 16.0634548,71.8635388 C16.0645865,71.8371217 16.3499182,71.8032389 16.341006,71.7748118 C16.3013963,71.6470335 16.2943231,71.4428753 16.2627767,71.3735304 C16.2415572,71.3267262 16.1776158,71.4186118 16.1254158,71.3567326 C16.0582207,71.2767634 16.0043231,71.0404453 16.0237036,70.9700954 C16.0351621,70.9284598 16.2862597,70.9314748 16.3013963,70.8909877 C16.3483621,70.7647886 16.3445426,70.7006123 16.3698645,70.6150439 C16.4277231,70.4192128 16.4241865,70.3445558 16.3470889,70.1293426 C16.3134206,70.0351599 16.4804889,69.8400467 16.4277231,69.7997032 C16.3598206,69.7475869 16.2766402,69.7147091 16.178889,69.6377549 C16.0814207,69.5608008 15.8979427,69.4302946 15.871489,69.2726534 C15.8509768,69.1501872 15.95085,69.0363353 15.95085,68.9504797 C15.95085,68.7547922 15.9017622,68.9880954 15.6895671,68.7334001 C15.477372,68.478992 15.6509476,68.0287528 15.7280451,67.6958113 C15.8052841,67.3628697 16.0754792,67.3238184 16.2104353,67.2455721 C16.3455328,67.1670386 16.5769669,66.9518255 16.6348255,66.7755201 C16.6928255,66.5993582 16.1911963,66.3641886 16.1911963,66.3641886 C16.1911963,66.3641886 15.9248207,66.1432326 15.8146207,66.060392 C15.7530841,66.0141621 15.7583183,66.0300985 15.7532256,65.936203 C15.7481329,65.8398667 15.7474256,65.6813642 15.7474256,65.5222873 C15.7474256,65.2678792 15.8843622,65.0630031 15.7106451,65.0042825 C15.6564646,64.986049 15.5966256,65.0539581 15.5539037,65.0170603 C15.459972,64.9352248 15.4148452,64.7202987 15.4545964,64.6126203 C15.4905281,64.5147048 15.5529134,64.471777 15.5475378,64.3628065 C15.5444256,64.2973381 15.4008403,64.2845602 15.3791964,64.247806 C15.3213379,64.1497469 15.2053379,63.9025173 15.2439574,63.7262119 C15.2825769,63.5500501 15.4335183,63.5464608 15.3178013,63.4682145 C15.2020842,63.3899682 15.0983916,63.2206978 15.0563769,63.2225643 C14.9853623,63.2258664 14.8856306,63.2054793 14.8293282,63.1489123 C14.735255,63.0542988 14.6452843,62.7664387 14.5125916,62.6439724 C14.4388892,62.5759197 14.3298209,62.3750636 14.4002697,62.2787274 C14.4623721,62.1937332 14.7010209,62.2177096 14.7010209,62.0926591 C14.7010209,61.9529644 14.4275721,61.7078884 14.3565575,61.5845608 C14.2411234,61.3851404 14.0872112,61.6971206 14.0111039,61.6755849 C13.8116405,61.6195921 13.5811967,61.1845715 13.3848455,60.8753192 C13.3194894,60.7720915 13.2023577,60.7475408 13.1631723,60.6509174 C13.1408211,60.5957861 13.2268309,60.4034007 13.2112699,60.3619087 C13.0867821,60.0289671 13.8127722,59.3012048 14.0057283,59.1052302 C14.1986844,58.9093991 13.9407966,58.5302277 13.6601332,58.4839977 C13.3793284,58.4377678 13.363626,58.7353909 13.1321919,58.8328757 C12.973187,58.9003541 12.8840651,58.673081 12.6012797,58.6864331 C12.4726895,58.6926066 12.418509,58.8215336 12.2377188,58.8275635 C12.0548067,58.8335935 11.8800994,58.8188057 11.6789384,58.9029384 C11.5223384,58.9684069 11.4497677,59.0562724 11.3196214,59.0689067 C11.0881873,59.0913038 10.9313044,58.8631692 10.8891483,58.871927 C10.817002,58.8862842 10.453441,59.4762181 10.1098265,59.59007 C9.99524111,59.6278293 9.82930455,59.6140464 9.72801676,59.6285471 C9.32286561,59.6872677 9.61215825,59.1783079 9.61215825,58.9629512 C9.61215825,58.7475944 9.40717779,58.2740967 9.25269976,57.9606808 C9.0983632,57.6472649 9.09129003,57.8273032 8.85985592,57.8664981 C8.80779739,57.8751124 8.63563644,57.8680774 8.55457792,57.7904054 C8.49162671,57.7301055 8.52515353,57.6095057 8.44508525,57.5339873 L8.38125471,57.4844323 L8.38125471,57.4844323 L8.23907607,57.3965552 C8.19360861,57.3660837 8.15350091,57.3319827 8.12905603,57.2869013 C8.07926092,57.1951593 8.24180236,57.0085168 8.19752431,56.9337162 C8.14065603,56.8378107 8.01687556,56.8126857 7.99169508,56.7697579 C7.91940728,56.6475789 7.93977801,56.654901 7.88630485,56.6092454 C7.85433412,56.5818233 7.79293901,56.6164239 7.69179268,56.5724912 C7.60733904,56.5357369 7.58781709,56.4306428 7.55796831,56.3722094 C7.49218784,56.2432825 7.510861,56.1350298 7.63025611,56.027495 C7.78204633,55.8905281 8.21973407,55.9255595 8.22567553,55.679622 C8.22652431,55.6447342 8.01390483,55.6078364 7.98985605,55.5772558 C7.8756951,55.431531 7.88630485,55.2401507 7.80411462,55.1863115 C7.69476342,55.1146695 7.49614881,55.2046886 7.34435859,55.2265114 C7.07430497,55.2658499 7.23910983,55.4972866 7.21987081,55.7321691 C7.20063178,55.9669079 7.12339277,55.9865772 6.9304367,56.00639 C6.7376221,56.0259157 6.75686112,56.0452978 6.62190504,56.2412725 C6.4868075,56.4371035 5.88502223,56.4869227 5.59558813,56.5064484 C5.40588572,56.5192262 5.41989059,56.4039386 5.50646619,56.2653924 C5.55159301,56.1930325 5.64877836,56.1269898 5.67820275,56.0418521 C5.7637881,55.7940483 5.44054425,56.0117022 5.35368572,55.9529815 C5.26668574,55.8941174 5.01516382,55.3653447 4.82234922,55.149988 C4.62939315,54.9346312 4.51891024,55.4579481 4.34519319,55.5755329 C4.17161761,55.6928306 4.11375908,55.7321691 3.94004204,55.6145843 C3.76646645,55.4972866 3.88218351,55.5950586 3.47703235,55.5558637 C3.07188119,55.5168123 3.07188119,55.5168123 2.80182758,55.3208377 C2.5316325,55.1250066 2.54733493,54.9418098 2.41237885,54.7459787 C2.32382277,54.6174825 2.18674474,54.6354289 2.10257402,54.6687374 C2.05928623,54.6858224 2.0300033,54.7073581 2.0300033,54.7139623 C2.0300033,54.7268837 1.87184723,54.7827329 1.77522773,54.6855352 C1.7247253,54.6345675 1.79276919,54.405715 1.68992531,54.3988236 C1.39115462,54.3787236 0.951203468,54.4641485 0.833930315,54.4005465 C0.706896188,54.3319194 0.623998639,54.2174932 0.492720611,54.087992 C0.300613323,53.8987652 0.0711596993,53.7708433 0.0359353144,53.7171477 C-0.0237622375,53.6265543 0.0953499395,53.402009 0.288306008,53.460586 C0.310798687,53.4674774 0.447452325,53.694607 0.494559635,53.7224598 C0.597969375,53.7837647 0.779466908,53.7663926 0.840720558,53.7837647 C0.98925712,53.8256875 0.954881516,53.6973349 0.846520557,53.5748687 C0.672944973,53.3791811 0.177823098,53.1636808 0.177823098,52.8502649 C0.177823098,52.5369927 0.734057159,52.3908372 0.888252258,52.3517858 C0.984730292,52.3273787 1.06706199,52.2449689 1.13284246,52.2159675 C1.18843758,52.1918476 1.19508636,52.1754804 1.11728149,52.1311169 C1.02830102,52.079862 0.883866893,51.9858229 0.870710797,51.9049924 C0.856988848,51.8205725 0.921779082,51.7021263 0.801676661,51.6200036 C0.754852278,51.5875565 0.454949885,51.6004779 0.39553526,51.5454901 C0.18334017,51.3498026 0.293681617,51.1892901 0.448018178,51.0326539 C0.60235474,50.8761613 0.400769405,50.7178023 0.169193831,50.5219713 C-0.0622402804,50.3259966 -0.0107476053,50.1598848 0.0587109207,49.8293839 C0.106808474,49.6008186 0.371062093,49.6436028 0.63276937,49.5831594 C0.75159862,49.5557373 0.761076667,49.4167604 0.839447387,49.3861797 C0.956862003,49.3403805 0.949505907,49.4349939 1.11077418,49.3805804 C1.29354488,49.3189884 1.4062912,49.0855417 1.48819851,48.9502976 C1.5604863,48.83099 1.66007653,48.743268 1.75315944,48.6760767 C1.85869113,48.6004147 1.61395946,48.3731415 1.84808138,48.3171488 C1.97653014,48.2594332 2.03679355,48.4819685 2.06692525,48.4597149 C2.15604719,48.3945336 2.29015448,48.291306 2.33655448,48.1527598 C2.45948616,48.1547698 2.57110078,48.1592205 2.57110078,48.1592205 L3.00277198,48.1585308 C2.99454902,47.9715018 3.00581937,47.8098366 3.02085516,47.753422 C3.04901907,47.648524 3.13478455,47.3732924 3.18927251,47.2861884 C3.29782387,47.1125543 3.47303453,46.9064893 3.37424855,46.8124973 C3.20809563,46.6543612 3.01024062,46.2583032 3.1642222,46.0434848 C3.2318722,45.9490623 3.21135076,45.8269444 3.31664698,45.7015261 C3.39123181,45.6128435 3.51549269,45.6827277 3.56672553,45.5692198 C3.60776841,45.4778107 3.60776841,45.1602469 3.63168651,45.1113136 C3.727925,44.9162982 3.90285261,45.1283901 3.93073346,45.0098597 C3.96116181,44.8814278 4.03418984,44.4395936 4.01225312,44.3510546 C3.99526986,44.2823184 3.85657321,44.3252247 3.7976979,44.2229097 C3.66296402,43.9885755 3.68617448,43.5302388 3.94021578,43.5321043 C4.19411556,43.5342568 4.0412662,43.3652147 3.97106871,43.2270249 C3.91813754,43.1228444 3.92606306,42.815182 4.00602593,42.6193056 C4.03277457,42.5540134 4.09674486,42.444093 4.14967602,42.4295995 C4.36154223,42.3710518 4.58218312,42.7058356 4.7361647,42.33489 C4.77947202,42.2305661 4.78541616,41.8877463 4.85094325,41.7966243 C5.01836992,41.5638685 5.23193445,41.4045843 5.35647837,41.474899 C5.52970765,41.5724785 5.61335022,41.7766779 5.70958871,41.6007478 C5.8058272,41.4252482 5.78120147,41.0205803 5.56933527,40.8056184 C5.40388998,40.6380113 5.21834784,40.4946556 5.07611301,40.3980806 C5.0287014,40.3657932 5.09408696,40.217989 5.08474617,40.1541318 C5.07031039,40.0541128 5.10569219,39.9685873 5.16895485,39.8918152 C5.28939448,39.7451589 5.51045996,39.629355 5.67477302,39.5012102 C5.92513462,39.3059077 5.94579759,39.1450451 6.46562696,39.1840769 C6.98573938,39.2231086 7.32894282,39.1497805 7.54066749,38.9349621 C7.7525337,38.7202873 7.79980378,38.4397462 8.05016538,38.3421667 C8.30052698,38.2444437 8.51932801,38.472177 8.57721263,38.1792951 C8.59004443,38.1142102 8.59310561,38.0461136 8.59285246,37.9769879 L8.58860625,37.7685061 C8.58754237,37.5955029 8.60611563,37.4284591 8.74520541,37.2983531 C8.99556701,37.0638753 9.44010391,36.5101117 9.65197011,36.3735004 C9.86369479,36.2367456 10.1613265,36.0877934 10.3049766,35.8996659 C10.4486267,35.7115383 10.5049545,35.7611891 10.4857068,35.585546 C10.4749507,35.4862445 10.3530958,35.3087359 10.3273379,35.1636582 C10.2847382,34.9217184 10.3058257,34.7219675 10.0648049,34.7743447 C9.79533716,34.8328924 9.76759783,34.7918516 9.76759783,34.7918516 C9.76759783,34.7918516 9.59422702,35.0494328 9.42085621,35.0302039 C9.29150036,35.0158539 9.12322453,34.9881586 9.08133248,34.9047855 C9.05614064,34.8548478 9.16256909,34.5576608 9.15124692,34.4599378 C9.1209601,34.1991997 9.029392,34.0532609 8.97164891,33.8581019 C8.91390582,33.6627995 9.0356192,33.5812919 9.22823771,33.3468141 C9.42085621,33.1126233 9.78684552,32.3510727 10.0563133,32.1363979 C10.2374681,31.9920376 10.4282467,31.8745117 10.5522246,31.6947071 C10.6126567,31.6067421 10.5904369,31.4836197 10.6726642,31.3748473 C10.9228843,31.0429335 11.0000166,30.7890833 11.1732459,31.0234176 C11.3466167,31.2576084 11.7073695,31.6608413 11.8807403,31.6413254 C12.0541111,31.621666 12.1979027,31.6022936 12.2274819,31.3679593 C12.2351244,31.3061112 12.1964875,31.1633294 12.214886,31.0864138 C12.2354074,30.9994532 12.1387444,30.8428956 12.1673329,30.7476121 C12.209508,30.6075568 12.3803313,30.5266232 12.4250539,30.3986219 C12.527378,30.1055964 12.7524063,29.695619 12.5212924,29.7541667 C12.2901785,29.8127144 12.2131877,29.8322303 12.1361969,29.6370713 C12.0590646,29.4417688 11.9820738,28.9731002 11.8473399,28.9340684 C11.7124645,28.8950367 11.2608512,28.5021357 11.3957266,28.150706 C11.5304605,27.7992763 11.6739691,27.3330472 11.6932168,27.2353242 C11.7124645,27.1376013 11.7895968,26.9814741 11.5005983,26.8643787 C11.2118828,26.7472833 11.0770074,26.8253469 11.0192643,26.4932896 C10.9613797,26.1615193 10.7881504,25.9662168 11.038512,25.7123666 C11.2888736,25.4585165 11.5584829,25.4390006 11.5392352,25.1851504 C11.5199875,24.9313002 11.3081213,24.5993864 11.3851121,24.3455362 C11.4621029,24.091686 11.5005983,23.8573517 11.8088445,23.5839857 C12.1169492,23.3106196 12.2869233,22.9646429 12.4794003,22.7694839 C12.6720188,22.5741814 13.0061645,22.0521311 13.39126,21.778765 C13.7763555,21.5053989 13.8690558,21.4505822 14.080922,21.4700981 C14.2927882,21.489614 14.2940619,21.7509262 14.5253174,21.594799 C14.7562897,21.4385283 15.1248265,21.1149375 15.4714266,21.1149375 C15.8180267,21.1149375 15.8335947,21.3191369 16.0647086,21.1628662 C16.2958225,21.0065955 16.5654318,20.7917771 16.7965457,20.8309524 C16.8506799,20.8400467 16.8963356,20.8943029 16.9387673,20.9562475 L17.0208884,21.0792846 C17.0613564,21.1348256 17.1021029,21.1730726 17.1483823,21.1565522 C17.2606134,21.1165159 17.1864531,20.8308089 17.3165166,20.7137135 C17.6631167,20.4013157 17.9154597,20.1173306 18.2043167,20.0586394 C18.4931737,20.0002352 18.7401386,19.9878943 18.778634,19.6950123 C18.8171294,19.4019868 18.5681831,19.0344852 18.9149247,18.7220874 C19.2613833,18.4096895 19.2279828,18.4455643 19.3051152,18.3479848 C19.3821059,18.2502618 19.4013536,18.1136505 19.6324675,18.0355869 C19.8635814,17.9575233 19.9057565,17.8807512 20.0791274,17.6464169 C20.2523566,17.4120826 20.6319326,16.9587685 20.5114929,16.757726 C20.4936605,16.7280217 20.4200664,16.7535645 20.3909118,16.7492596 C20.1868295,16.7186942 20.1014887,16.5210958 20.1014887,16.5210958 C20.1014887,16.5210958 20.1868295,16.3054164 20.04601,16.2092719 C19.999023,16.1772715 19.8390972,16.2959454 19.8007434,16.2424202 C19.7628141,16.1896125 19.6435067,16.2052539 19.6068511,16.1204458 C19.5879997,16.0768795 19.5826896,16.0160013 19.5816004,15.950421 L19.5816751,15.7521831 L19.5816751,15.7521831 L19.5737338,15.6661272 C19.541041,15.4890491 19.5424563,15.31111 19.6098232,15.1831087 C19.7638048,14.8902267 20.0036934,14.7801628 19.965198,14.5263126 C19.9267026,14.2724624 19.793667,14.1232232 19.7165347,13.7913094 C19.6605414,13.5499176 19.6490134,13.1797227 19.6468901,12.995753 L19.6466203,12.8839636 L19.6466203,12.8839636 L19.6383095,12.8431894 C19.602099,12.6767711 19.4462838,12.0696244 19.1458971,12.3234555 C19.0953247,12.3661226 19.0644089,12.4006262 19.0430802,12.4289859 L18.9977862,12.497653 C18.9855625,12.5157445 18.9728565,12.5297118 18.9495989,12.5415744 C18.8597291,12.5872071 18.687349,12.4480129 18.5681831,12.415295 C18.3563169,12.3567473 18.3370692,12.2395084 18.4142015,12.0443494 C18.4911923,11.849047 18.5894122,11.746445 18.4546783,11.6293496 C18.3199444,11.5122542 18.2583801,11.262996 18.2583801,11.262996 C18.2583801,11.262996 18.1641229,11.0341147 18.3565999,10.8192963 C18.5492184,10.6044779 18.8012784,10.3174794 19.05164,10.5126384 C19.239305,10.6590076 19.2543069,10.870382 19.3788508,11.0112983 C19.4203183,11.0582226 19.491648,11.2031568 19.5447207,11.2031568 C19.5843483,11.2031568 19.6244005,11.0824739 19.6435067,11.0519086 C19.7275738,10.9167323 19.8133393,10.7845695 19.6882293,10.689573 C19.5342477,10.5723341 19.3195509,10.3507712 19.473674,10.2725641 C19.6276556,10.1945005 19.6081249,10.1379618 19.9162296,10.1184459 C20.2243343,10.09893 20.5148896,10.2428598 20.6690127,10.2676851 C20.8229943,10.2927975 21.0243875,10.3388608 21.0436352,10.2022495 C21.0628829,10.0656382 21.1196353,9.77720469 21.2550768,9.75280982 C21.3721198,9.73185892 21.5612001,9.69985859 21.6472486,9.66800175 C21.9052527,9.57286175 22.0583851,9.41601706 22.0726794,9.28428474 C22.0824447,9.1964632 22.0684335,8.98551929 22.1277334,8.92955458 C22.1871748,8.87373337 22.3202104,8.97260436 22.377812,8.93457705 C22.4930151,8.85852245 22.4386687,8.76596543 22.4386687,8.62921064 C22.4386687,8.49259934 22.4579164,8.37550395 22.4771641,8.19971736 C22.4964118,8.02393077 22.4788624,7.82834128 22.4211193,7.71110239 C22.3868697,7.64179225 22.2290669,7.69316498 22.1287241,7.56186317 C22.0600834,7.47217613 22.123063,7.21502546 22.193402,7.15159879 C22.2258118,7.12246844 22.4110709,7.16164374 22.4494247,7.11601097 C22.6152946,6.918269 22.8244718,6.63083999 22.981567,6.80533508 C23.0780885,6.91281603 22.8863192,7.1696797 22.9463267,7.27515165 C23.0775224,7.50632895 23.2586772,7.31116996 23.3067964,7.24286432 C23.4028934,7.10625303 23.2971726,7.14872881 23.6630204,6.99260161 C23.8915868,6.89487862 23.9334788,6.87478872 24.0220749,6.82398999 C24.0751476,6.79342465 24.085479,6.70144162 24.1720937,6.63557546 C24.4032076,6.45993237 24.3103658,6.243392 24.6762135,6.1653284 C25.0422029,6.0871213 25.1242886,6.18312231 25.2782702,6.02685162 C25.4323933,5.87072443 25.4635293,5.25626061 25.675254,5.29529241 C25.797675,5.31767829 25.9053772,5.53493617 26.0592172,5.59735834 C26.1714483,5.64299111 26.1914036,5.61658724 26.2148971,5.67369995 C26.2467408,5.75162004 26.2335787,6.03991005 26.2904727,6.12084363 C26.3473666,6.20177721 26.5181899,5.94577454 26.588812,6.04407153 C26.729207,6.23951752 26.6598586,6.65408687 26.7303392,6.88095919 C26.7726558,7.01713999 26.786667,7.15748226 26.8577136,7.2260749 C27.101565,7.46141369 27.4075468,7.39712602 27.6770145,7.6314603 C27.8117484,7.7484122 27.8791154,8.02794875 27.9463408,8.06525856 C28.0135662,8.10242486 28.0809331,7.89779492 28.215667,7.93668322 C28.3419093,7.97313203 28.5080622,8.30117134 28.6180288,8.37851743 C28.7425728,8.46605198 28.9132545,8.31322527 28.9949157,8.18881142 C29.0622827,8.08635295 29.1423871,7.89262895 29.2307,7.81628735 C29.3443464,7.71799036 29.5221045,7.68441153 29.5221045,7.54162977 C29.5221045,7.44634626 29.4950728,7.40975395 29.47257,7.31073947 C29.4352068,7.14600232 29.436339,6.98126517 29.568667,6.83489593 C29.7805332,6.60070514 30.2455915,6.12055663 30.4574577,6.08138133 C30.6693239,6.04234954 30.701026,6.15069148 30.8544415,6.0693274 C31.0079985,5.98810682 31.1636784,6.04392803 31.3616749,5.87101142 C31.5595299,5.69809482 31.479001,5.67169096 31.671478,5.59362736 C31.7497425,5.56191403 32.0987485,5.76238249 32.1867785,5.72894716 C32.3157097,5.68015741 32.3713299,5.42128475 32.4970061,5.35183111 C32.5582873,5.31796529 32.5908386,5.43577818 32.6873601,5.45457658 C32.7623695,5.46921351 32.8937068,5.38182246 32.9954648,5.38871042 C33.1011856,5.39574189 33.1452006,5.4700745 33.2377594,5.48399393 C33.3366869,5.49877435 33.4291041,5.47653197 33.4820353,5.50580582 C33.6939015,5.62290121 33.657246,5.86383646 33.8113691,5.74659757 C33.9653506,5.62950218 33.9545946,5.49246039 33.8968515,5.33633319 C33.8391084,5.1800625 33.7338122,4.95261618 33.9647845,4.93310028 C34.1958984,4.91358438 34.3309154,5.02178282 34.3503046,4.67035314 C34.3695523,4.31892346 34.4556008,4.2339719 34.6867147,4.17542421 C34.9178286,4.11673301 35.2859409,4.32982941 35.6711779,4.15418632 C36.0562733,3.97839973 35.9816885,3.8879952 36.2514393,3.8683358 C36.5209071,3.8488199 36.4538232,3.91985203 36.6764455,3.77965326 C36.8990678,3.63959798 36.9885129,3.60745415 37.2194853,3.64648595 C37.4507408,3.68551775 37.6013257,3.6746118 37.6783165,3.38172982 C37.7554488,3.08884784 37.6399626,2.58100397 37.7939442,2.50308387 C37.9480673,2.42487678 38.1300713,2.1495017 37.8606035,2.03240631 C37.5908527,1.91516742 37.090271,1.70049253 37.1672618,1.46615824 C37.2442526,1.23182396 37.5367893,1.07081779 37.6909124,0.875515303 C37.844894,0.680212815 37.9990171,0.504569724 38.2686264,0.524085623 C38.5382357,0.543601522 38.5416323,0.317877192 38.7919939,0.51317968 C39.042214,0.708338669 39.1040614,1.02647652 39.2702143,1.08990319 C39.3532908,1.12161653 39.6611124,1.2420124 39.7144682,1.18891768 C39.8032057,1.10009164 39.5253878,0.678347324 39.8951984,0.610615675 C40.161128,0.561825928 40.2713776,0.680212815 40.4447485,0.58263332 C40.6179777,0.485053826 40.8655088,0.359204977 40.9930248,0.549054494 C41.1203993,0.738760511 41.176444,0.992610696 41.4268056,0.914547101 C41.5754092,0.868196841 41.7284001,0.666436886 41.8644077,0.599135735 C41.9575326,0.553072473 42.0425904,0.636302042 42.113071,0.612481165 C42.2863002,0.553933469 42.2633728,0.504282726 42.3790006,0.348012035 Z" id="形状结合"></path>
            </g>
        </g>
    </g>
</svg>