<?xml version="1.0" encoding="UTF-8"?>
<svg width="100px" height="90px" viewBox="0 0 100 90" version="1.1" xmlns="http://www.w3.org/2000/svg" xmlns:xlink="http://www.w3.org/1999/xlink">
    <title>jdo_cn_iqiyi_membership_privileges_audio_mode</title>
    <defs>
        <linearGradient x1="50%" y1="0%" x2="50%" y2="100%" id="linearGradient-1">
            <stop stop-color="#FDFDFD" offset="0%"></stop>
            <stop stop-color="#6D6D6D" offset="100%"></stop>
        </linearGradient>
        <linearGradient x1="50%" y1="0%" x2="50%" y2="100%" id="linearGradient-2">
            <stop stop-color="#FDFDFD" offset="0%"></stop>
            <stop stop-color="#6D6D6D" offset="100%"></stop>
        </linearGradient>
        <linearGradient x1="144.064958%" y1="-74.7622371%" x2="23.2832565%" y2="90.4710493%" id="linearGradient-3">
            <stop stop-color="#FFFFFF" stop-opacity="0.302256337" offset="0%"></stop>
            <stop stop-color="#FFFFFF" stop-opacity="0" offset="100%"></stop>
        </linearGradient>
    </defs>
    <g id="jdo_cn_iqiyi_membership_privileges_audio_mode" stroke="none" stroke-width="1" fill="none" fill-rule="evenodd">
        <g id="编组">
            <rect id="矩形" fill-opacity="0" fill="#000000" x="0" y="0" width="100" height="90"></rect>
            <g id="专属客服" transform="translate(2.000000, 15.000000)">
                <path d="M48,1.77350269 C48.6905989,1.77350269 49.3811978,1.95213549 50,2.30940108 L50,2.30940108 L70.9807621,14.4226497 C71.5995643,14.7799153 72.0995643,15.2886751 72.4448637,15.8867513 C72.7901632,16.4848276 72.9807621,17.1722202 72.9807621,17.8867513 L72.9807621,17.8867513 L72.9807621,42.1132487 C72.9807621,43.542311 72.2183664,44.8628191 70.9807621,45.5773503 L70.9807621,45.5773503 L50,57.6905989 C48.7623957,58.4051301 47.2376043,58.4051301 46,57.6905989 L46,57.6905989 L25.0192379,45.5773503 C24.4004357,45.2200847 23.9004357,44.7113249 23.5551363,44.1132487 C23.2098368,43.5151724 23.0192379,42.8277798 23.0192379,42.1132487 L23.0192379,42.1132487 L23.0192379,17.8867513 C23.0192379,17.1722202 23.2098368,16.4848276 23.5551363,15.8867513 C23.9004357,15.2886751 24.4004357,14.7799153 25.0192379,14.4226497 L25.0192379,14.4226497 L46,2.30940108 C46.6188022,1.95213549 47.3094011,1.77350269 48,1.77350269 Z" id="多边形" stroke-opacity="0.5" stroke="#B6B6B6" stroke-width="2" fill-opacity="0.053676792" fill="#FFFFFF"></path>
                <g transform="translate(35.250000, 17.250000)" fill="url(#linearGradient-1)" fill-rule="nonzero" id="形状结合" opacity="0.5">
                    <path d="M12.75,0 C18.1337879,0 22.6949056,3.52226944 24.2546649,8.38811997 L24.2921053,8.38815789 C24.9147336,8.38815789 25.4273329,8.78073348 25.4929122,9.28505898 L25.5,9.39473684 L25.5,14.7631579 C25.5,15.2820149 25.0289093,15.7091809 24.4237187,15.7638304 L24.2921053,15.7697368 L23.3526316,15.7697368 C22.7300032,15.7697368 22.2174039,15.3771613 22.1518246,14.8728358 L22.1447368,14.7631579 L22.1447368,9.39473684 C22.1447368,8.98326234 22.4410119,8.62945346 22.8654866,8.47337292 C21.385105,4.31719553 17.4149873,1.34210526 12.75,1.34210526 C8.08507616,1.34210526 4.11500299,4.3171146 2.63356392,8.47334984 C3.01644572,8.6138431 3.29471666,8.91447762 3.34654203,9.2731645 L3.35526316,9.39473684 L3.35526316,14.7631579 C3.35526316,15.2744868 2.89774333,15.6967662 2.30523814,15.7612173 C3.68540127,19.679811 7.21095434,22.5888286 11.4724726,23.0784116 C11.6449635,22.5361364 12.1517736,22.1447368 12.75,22.1447368 C13.4912243,22.1447368 14.0921053,22.7456178 14.0921053,23.4868421 C14.0921053,24.2280664 13.4912243,24.8289474 12.75,24.8289474 C12.0984803,24.8289474 11.5553901,24.3647055 11.4334806,23.748973 C6.81988229,23.2349973 3.01304884,20.0468581 1.59825197,15.7696386 L1.20789474,15.7697368 C0.58526635,15.7697368 0.0726670923,15.3771613 0.00708776187,14.8728358 L0,14.7631579 L0,9.39473684 C0,8.87587985 0.471090699,8.44871381 1.0762813,8.39406436 L1.20789474,8.38815789 L1.24527148,8.38831838 C2.80497039,3.52236519 7.36613896,0 12.75,0 Z M12.75,4.02631579 C17.1973456,4.02631579 20.8026316,7.63160175 20.8026316,12.0789474 C20.8026316,16.526293 17.1973456,20.1315789 12.75,20.1315789 C8.30265438,20.1315789 4.69736842,16.526293 4.69736842,12.0789474 C4.69736842,7.63160175 8.30265438,4.02631579 12.75,4.02631579 Z M13.4141201,9.70582569 L11.9411397,14.8452114 L9.58885912,12.3969519 C9.51039529,12.3152865 9.40397551,12.2694074 9.2930109,12.2694074 L7.12891887,12.2694074 C6.89784704,12.2694074 6.71052632,12.4643713 6.71052632,12.7048714 C6.71052632,12.9453716 6.89784704,13.1403355 7.12891887,13.1403355 L9.11970703,13.1403355 L11.8456361,15.9774893 C12.0697005,16.2106961 12.451839,16.1100912 12.5424188,15.7940486 L13.9437301,10.904724 L15.1293185,12.9730462 C15.2048074,13.1047406 15.3412857,13.1854012 15.4886248,13.1854012 L18.3710811,13.1854012 C18.602153,13.1854012 18.7894737,12.9904373 18.7894737,12.7499371 C18.7894737,12.509437 18.602153,12.3144731 18.3710811,12.3144731 L15.7262066,12.3144731 L14.1743609,9.60719552 C13.9877374,9.28162096 13.5182427,9.34253108 13.4141201,9.70582569 Z"></path>
                </g>
                <path d="M0,16.5 L17.9423077,16.5 L19.5,18 L19.5,24 L4.67307692,24 L0,18 L0,16.5 Z M4.5,26.25 L19.5,26.25 L19.5,33.75 L9.225,33.75 L4.5,27.75 L4.5,26.25 Z M9.75,36 L19.5,36 L19.5,42 L18,43.5 L14.25,43.5 L9.75,37.5 L9.75,36 Z" id="形状结合" fill="url(#linearGradient-2)" fill-rule="nonzero" opacity="0.5"></path>
                <path d="M76.5,16.5 L94.4423077,16.5 L96,18 L96,24 L81.1730769,24 L76.5,18 L76.5,16.5 Z M81,26.25 L96,26.25 L96,33.75 L85.725,33.75 L81,27.75 L81,26.25 Z M86.25,36 L96,36 L96,42 L94.5,43.5 L90.75,43.5 L86.25,37.5 L86.25,36 Z" id="形状结合备份" fill="url(#linearGradient-2)" fill-rule="nonzero" opacity="0.5" transform="translate(86.250000, 30.000000) scale(-1, 1) translate(-86.250000, -30.000000) "></path>
                <path d="M50.5,1.44337567 L61.4085142,7.74140927 L61.4085142,7.74140927 L34.1535261,52.0057346 L24.5192379,46.4433757 C22.9722325,45.5502117 22.0192379,43.8995766 22.0192379,42.1132487 L22.0192379,17.8867513 C22.0192379,16.1004234 22.9722325,14.4497883 24.5192379,13.5566243 L45.5,1.44337567 C47.0470054,0.550211698 48.9529946,0.550211698 50.5,1.44337567 Z" id="多边形备份" fill="url(#linearGradient-3)"></path>
            </g>
        </g>
    </g>
</svg>