<?xml version="1.0" encoding="UTF-8"?>
<svg width="120px" height="120px" viewBox="0 0 120 120" version="1.1" xmlns="http://www.w3.org/2000/svg" xmlns:xlink="http://www.w3.org/1999/xlink">
    <title>jdo_cn_ximalaya_radio_province_Jiangxi</title>
    <g id="jdo_cn_ximalaya_radio_province_Jiangxi" stroke="none" stroke-width="1" fill="none" fill-rule="evenodd">
        <g id="编组">
            <rect id="矩形" x="0" y="0" width="120" height="120"></rect>
            <g id="江西" transform="translate(36.000000, 26.000000)" fill="#FFFFFF" fill-opacity="0.189284" fill-rule="nonzero">
                <path d="M3.15,36 C3.21183138,35.8778282 3.25655362,35.8715032 3.26386097,35.6223881 C3.26521001,35.5773366 3.09579203,35.4964436 3.09815286,35.4528345 C3.09961433,35.4263141 3.21675669,35.2274658 3.24306314,35.1710959 C3.29601328,35.0578013 3.5057903,34.4143187 3.21990447,34.5138538 C3.20652641,34.5184033 3.13817463,34.5890877 3.0826388,34.5961894 C2.98989173,34.6078406 2.89433414,34.5565751 2.86870222,34.5591273 C2.82778109,34.5632329 2.86825254,34.6854048 2.83261518,34.7118143 C2.69118994,34.8158989 2.62508657,34.7396663 2.52064774,34.7003849 C2.36955433,34.6431273 2.22205838,34.7901551 2.06601845,34.8054682 C1.99991508,34.8120151 1.87827589,34.940179 1.81678177,34.9506097 C1.72583342,34.9660337 1.69795309,34.8668315 1.62240638,34.8960152 C1.49908088,34.9435079 1.53022141,35.0253997 1.31111348,35.1040734 C1.16136911,35.1580021 1.04276528,35.2032756 0.956426182,35.0755556 C0.951367251,34.9655899 0.799262049,34.8828104 0.727087962,34.8687179 C0.634228467,34.8505198 0.5909465,34.9746889 0.496063432,34.9410667 C0.372737929,34.8973468 0.312930119,34.8175634 0.277517599,34.7244642 C0.242217501,34.6313651 0.230975431,34.5250612 0.375998129,34.3723742 C0.785883986,33.9407227 0.208940975,34.2061495 0.208940975,34.0164004 C0.208940975,33.9470476 0.12260188,33.6177053 0.20174605,33.4874331 C0.208940975,33.4756709 0.125412398,33.3673696 0.147446854,33.3360776 C0.169481311,33.3046747 0.304386146,33.3145506 0.33417763,33.2707196 C0.465709844,33.0781964 0.639062557,32.8017841 0.554184932,32.7538474 C0.421191249,32.6980323 0.414221166,32.8335199 0.255932826,32.7120139 C0.117430528,32.60571 -0.0644661577,32.5758605 0.0227723024,32.2755909 C0.0352509996,32.2326477 0.126424184,32.2152262 0.147334433,32.1587454 C0.387352619,31.5102694 0.164085117,31.3603565 0.75418135,30.9345861 C0.982845045,30.769804 1.25287956,30.373772 1.3144861,30.2609212 C1.32988773,30.2327363 1.45220145,30.1491801 1.45849701,30.1110083 C1.47749611,29.9962711 1.42308449,29.9113834 1.64736378,29.7226329 C1.84252611,29.5582946 2.11514629,29.3542311 2.22790425,29.0967937 C2.29558151,28.9425532 2.21261504,28.8020723 2.14786072,28.6347379 C2.12312816,28.5711553 2.18068756,28.4969202 2.1222288,28.431895 C2.01666577,28.3147166 1.90559412,28.3232609 1.86399846,28.2505792 C1.82229038,28.1780085 1.84904651,28.0304258 1.88423419,27.874077 C1.90795495,27.7418074 2.02745815,27.6042116 2.0901889,27.5021243 C2.15067123,27.4036989 2.18866943,27.2511228 2.27984261,27.1783302 C2.31008378,27.15414 2.42992424,27.1795508 2.46331319,27.1580237 C2.52739299,27.116634 2.54605482,27.0967714 2.61890343,27.0640369 C2.68039755,27.0362958 2.69647371,26.9346524 2.76415097,26.9136801 C2.82609478,26.8945942 2.93919,26.9554027 3.00563063,26.9415322 C3.24306314,26.9068003 3.22552551,26.8373366 3.22552551,26.6985201 C3.22552551,26.0159781 3.58257364,27.166568 4.06991736,26.5652519 C4.0864432,26.5446125 4.12646497,26.4391963 4.19796453,26.4141184 L4.25706813,26.4024014 L4.25706813,26.4024014 L4.38381752,26.396965 C4.42462713,26.3930307 4.46177093,26.382893 4.48857203,26.3543086 C4.5937978,26.2421235 4.5514152,26.0339543 4.67080597,26.0522635 C4.77636901,26.1043058 5.09879156,26.1429214 5.24831109,26.0213044 C5.39625673,25.9011299 5.38321592,25.7074971 5.31452688,25.4913384 C5.29991219,25.4453992 5.20469186,25.4659276 5.18603002,25.4185458 C5.1657943,25.3670583 5.24639994,25.3686118 5.23122314,25.3102445 C5.18580518,25.1349208 5.06011884,24.8826987 5.01852319,24.7432164 C4.99109254,24.651116 4.83021852,24.488886 4.83887492,24.4162043 C4.84415869,24.3724844 5.00424576,24.4104342 5.02819137,24.3765901 C5.09227116,24.286376 5.20615333,24.2820484 5.45999926,24.2882624 C5.47472637,24.3215517 5.52396664,24.3558397 5.54217879,24.3786984 C5.55814253,24.398672 5.58939548,24.3906825 5.63751154,24.3698212 C5.65493675,24.3622756 5.68574002,24.3012452 5.70665027,24.2914804 C5.81356235,24.2417683 5.79220242,24.2879295 5.93070471,24.2346666 C6.00377817,24.2065926 6.11305108,24.2687327 6.15745726,24.2226824 C6.1935443,24.1850655 6.15048717,23.9956493 6.17420794,23.9438289 C6.20748447,23.8703705 6.62535219,23.3864547 6.68572211,23.3581588 C6.83007028,23.2902486 6.92922534,23.4442672 7.05446199,23.3337466 C7.08099327,23.3102222 7.03512563,23.2051389 7.06008303,23.1729592 C7.13551731,23.0755325 7.13562973,22.9528058 7.22905133,22.8668084 C7.2506361,22.8471677 7.34192171,22.9207371 7.36654184,22.8928851 C7.39678301,22.858819 7.43433152,22.8224227 7.48222274,22.7832522 C7.55181115,22.7264385 7.61915115,22.7168955 7.70425361,22.6004939 C7.72966069,22.565651 7.90323824,22.5434582 7.92718385,22.5057303 C8.00284298,22.3871093 7.75518019,22.2249903 7.7693452,22.1936984 C7.79306596,22.141767 7.95956101,22.0896138 7.9741757,22.0386811 C7.99306238,21.9728792 7.89581848,21.9377035 7.89401975,21.8787814 C7.89233344,21.8195264 7.98597988,21.7363031 7.95720018,21.6895871 C7.93269247,21.6499728 7.91751567,21.5109344 7.85973144,21.4949555 C7.79351565,21.4766464 7.67682296,21.4908499 7.59464343,21.453011 C7.49425175,21.4069608 7.47772591,21.2827916 7.39543396,21.209999 C7.27525624,21.1036951 7.10763698,21.0401125 7.09965511,20.9394678 C7.09482102,20.8776606 7.26356448,20.8501414 7.3239344,20.7781255 C7.53506047,20.5263473 7.70593992,20.2840011 7.44208855,20.1798055 C7.38486642,20.1553933 7.36519279,20.0758318 7.30931971,20.0448728 C7.21612295,19.9930524 7.0137657,20.0362175 6.92641482,19.9735227 C6.84558434,19.9154883 6.7720612,19.8501302 6.69954985,19.788434 C6.65615546,19.7514829 6.65019717,19.6350812 6.58319443,19.5811525 C6.49415724,19.5092476 6.34025331,19.4939345 6.26616807,19.4032766 C6.21625328,19.3419133 5.99444725,19.2985262 5.97578541,19.2333901 C5.96128314,19.1827903 6.14171836,19.1106635 6.15667031,19.0598418 C6.17240921,19.0069118 6.20692236,18.9543146 6.26515628,18.9031601 C6.40838025,18.7086395 6.51057066,18.6346262 6.51844011,18.5963435 C6.52608472,18.5577279 6.45334853,18.5063514 6.4428934,18.3429008 C6.43862142,18.2742138 6.52158789,18.3067264 6.54137393,18.227054 C6.5846559,18.0521741 6.57644919,17.8083853 6.57330141,17.7091831 C6.57195236,17.6624671 6.41062866,17.6119783 6.41310192,17.5729188 C6.41872295,17.4871433 6.61152445,17.4074709 6.64851086,17.3683005 C6.74834044,17.2590005 6.79274661,16.9363161 6.80938487,16.4951216 C6.81208297,16.4212193 6.66009019,16.3912589 6.66211376,16.3251241 C6.66380007,16.2736367 6.81961516,16.1834226 6.8209642,16.1397026 C6.82163873,16.1148466 6.82062694,16.0903235 6.8204021,16.0666881 C6.81804127,15.8528597 6.89527428,15.6794223 6.83130691,15.646133 C6.77172394,15.6131766 6.5944365,15.9263181 6.57701129,15.8436496 C6.50123975,15.487121 6.36071388,15.5499269 6.28067034,15.6477975 C6.13441101,15.8266721 5.81997033,15.6077393 5.81997033,15.3177893 C5.81997033,15.0919768 5.91193046,14.8642778 5.80636742,14.8033584 C5.70080439,14.7426608 5.61086783,14.9377363 5.47899836,14.8943492 C5.41311983,14.8724892 5.42784694,14.7780585 5.38107993,14.7176939 C5.33442534,14.6572183 5.22593937,14.6311416 5.22593937,14.5530227 C5.30227302,13.6765149 4.82943158,14.6969435 4.72948958,14.0416987 C4.74185585,13.9589193 4.70070988,13.8697039 4.69092928,13.7894766 C4.68328467,13.7270037 4.7100408,13.6728531 4.69542611,13.6117117 C4.66844514,13.4989718 4.63404441,13.3876746 4.60987396,13.2767102 C4.59525927,13.2100205 4.63404441,13.0943956 4.63055937,13.027706 C4.62673706,12.9564669 4.57850858,12.9346069 4.58604077,12.8642555 C4.60256661,12.709904 4.64775973,12.5589924 4.72746601,12.4161812 C4.75377245,12.3689104 4.73421125,12.273481 4.76827472,12.2279856 C4.80245061,12.1828231 4.89036359,12.1875946 4.93252135,12.1445404 C5.01526299,12.0602074 5.03898375,12.0318005 5.15556402,11.9574544 L5.20446175,11.9221868 L5.20446175,11.9221868 L5.33880799,11.8166562 C5.35909466,11.8007102 5.37627395,11.7874292 5.38726307,11.7795785 C5.66089504,11.5842811 5.49293852,11.5616444 5.67483521,11.3609098 C5.7448733,11.2835676 5.84683887,11.2676997 5.9094572,11.1894698 C6.07651436,10.9813006 5.99017526,10.8682278 6.23637659,10.8596836 C6.35970209,10.855356 6.56621891,10.873998 6.76374207,10.8860931 C7.18711841,10.9118369 7.42488818,10.6640534 7.75484293,10.6474087 C8.03893002,10.6330943 8.06905877,10.6062409 8.10863086,10.5419925 C8.19553205,10.4004019 7.97754832,10.1399685 8.13302615,9.87465261 C8.22982037,9.70987047 8.05388198,9.41470517 8.27377686,9.23239066 C9.08691575,8.55828193 8.85757753,9.65372249 9.34705724,9.43545551 C9.55998204,9.34046999 9.84272009,9.32304858 10.0273149,9.33647527 C10.0790284,9.34013709 10.1232097,9.18256765 10.2139332,9.19832459 C10.3098281,9.22062843 10.2501327,9.37364834 10.3610919,9.40172234 C10.4764356,9.43057308 10.6548472,9.39206843 10.7739007,9.40538416 C10.9478155,9.42480293 11.1687222,9.51390734 11.3167803,9.4407818 C11.4223433,9.38862854 11.457531,9.24981207 11.7125011,9.17158217 C11.8958593,9.11554515 12.038746,9.02233505 12.1791594,8.92967978 C12.2689835,8.87042479 12.2666227,8.79474707 12.3645411,8.74558984 C12.4905647,8.68234013 12.7228259,8.65171396 12.8998885,8.64217102 C13.2164652,8.62474961 13.4451289,8.55528589 13.5506919,8.64217102 C13.6562549,8.72894518 13.6650238,8.91114872 13.8233121,8.91991491 C13.9222423,8.92535217 13.9663112,8.88318569 14.0174626,8.84468105 C14.0482659,8.82148949 14.1314572,8.75036131 14.1809223,8.74059644 C14.25512,8.72594914 14.2740067,8.78520413 14.3479795,8.78120941 C14.4056513,8.77832434 14.4664709,8.766895 14.535722,8.72894518 C14.6940104,8.64217102 14.8963676,8.51189881 14.966743,8.53797545 C15.0018182,8.55095828 15.1226705,8.45086839 15.1776442,8.47683406 C15.2326179,8.50291069 15.1719108,8.68788835 15.2422861,8.64882888 C15.3170459,8.6073282 15.4545364,8.43056191 15.5787613,8.2332672 C15.6128247,8.17911658 15.7206362,8.26267277 15.7511022,8.20785635 C15.7789825,8.15770045 15.7929227,8.0459593 15.8203533,7.98060126 C15.8659961,7.87141229 15.919396,7.80350208 15.9198456,7.72316386 C15.9202953,7.622963 15.8916281,7.45962341 15.8519435,7.45252168 C15.6929807,7.42400383 15.5884294,7.51987707 15.5991094,7.6102021 C15.605405,7.66424176 15.7191747,7.69697626 15.7029861,7.75434485 C15.6932055,7.78963153 15.6113633,7.8452247 15.5823587,7.8695259 C15.2853432,8.0799144 15.0924293,7.84666723 15.077365,7.57136456 C15.0712942,7.46073305 15.2192399,7.56004619 15.2591492,7.45229975 C15.2683677,7.42733276 15.2257603,7.37817554 15.242511,7.34355464 C15.2702789,7.28574219 15.3594285,7.23902618 15.3702209,7.19796935 C15.4144022,7.0291925 15.3715699,6.79561243 15.4498147,6.91234698 C15.4916352,6.96050553 15.4981556,7.08378698 15.5608864,7.11607762 C15.6236171,7.14836826 15.7179381,7.00755444 15.786065,7.08445277 C15.8359798,7.14082268 15.7725745,7.31004339 15.8496951,7.3193644 C16.0196752,7.33978185 16.329057,7.12084909 16.1979745,7.0014514 C16.1329953,6.94230737 16.0258584,6.97171294 15.9947178,6.92366535 C15.9012962,6.7791897 16.0264205,6.59132697 16.3034251,6.45461883 C16.7307361,6.24367551 16.7187071,6.65479861 16.9446727,6.70051594 C17.020107,6.71582903 17.2555159,6.62217508 17.3671497,6.55626222 C17.8307726,6.57312881 17.5157698,6.73935348 17.4839548,6.86529808 C17.4235849,7.10320575 18.1129486,7.23636303 18.1855724,7.18276723 C18.22076,7.15669059 18.3726404,7.25334059 18.3687057,7.19175534 C18.3648834,7.13028107 18.1816376,6.88660324 18.2140148,6.82446318 C18.2669649,6.72304172 18.294508,6.41145368 18.3707292,6.25632545 C18.4301998,6.13581811 18.5485788,6.17099383 18.5413839,6.07733987 C18.5249704,5.86273472 18.3750012,6.10508097 18.3006911,5.98379688 C18.2963067,5.97181273 18.1113747,6.19840203 18.0434726,6.08277713 C18.0197518,6.04249705 17.8993493,6.02352214 17.911041,5.98634907 C17.9304898,5.92454189 18.0660692,5.84498042 18.0653946,5.7365682 C18.0649449,5.63803181 18.2360492,5.44240158 18.1389178,5.38703034 C18.0840565,5.35596031 17.7804082,5.34575158 17.755788,5.29637243 C17.6073927,4.99832205 17.7222867,4.95715425 17.8764154,4.98189932 C17.9464535,4.99310672 18.0366149,4.98533921 18.1118244,5.03039076 C18.1929921,5.0788822 18.1959151,5.17242519 18.2347002,5.23356657 C18.2649414,5.2811703 18.3366658,5.30247547 18.3572388,5.3089114 C18.4290756,5.33254682 19.1228237,5.37715451 19.2283867,5.33376743 C19.3504756,5.31490348 19.5467621,5.21514648 19.5907186,5.3366525 C19.6344503,5.4460634 19.4894276,5.41954291 19.4776234,5.49566449 C19.4622218,5.59342412 19.5551937,5.73379409 19.6067948,5.75021682 C19.6903234,5.77673731 19.7205645,5.7742961 19.8387187,5.73634627 C19.9228094,5.70927096 19.9309037,5.6028561 20.0256743,5.55136862 C20.0824468,5.52074244 20.2984069,5.54337918 20.3574278,5.50576225 C20.3943018,5.48257069 20.4314006,5.53971735 20.4687243,5.51430651 C20.5123435,5.48445708 20.5563,5.37116243 20.6001441,5.33898276 C20.7134641,5.25575945 20.8266718,5.16532347 20.9353826,5.07322302 C20.9649492,5.04825603 21.0026102,5.1540051 21.0315023,5.12892715 C21.0512883,5.1116167 21.0799556,5.04259684 21.1106464,5.05158496 C21.1619103,5.0661213 21.2186827,5.16598926 21.2484742,5.12082674 C21.3141279,5.02129168 21.3095187,4.73555835 21.369214,4.67663625 C21.4648841,4.58198362 21.5483002,4.49387788 21.6139539,4.41919884 C21.6438578,4.38524374 21.7281733,4.50952386 21.7500954,4.48178276 C21.7734789,4.45226623 21.734244,4.27893984 21.7475097,4.25774564 C21.828565,4.21957389 21.9119812,4.36094253 21.9330038,4.30534937 C21.9527899,4.25330706 22.032721,4.13235587 21.9572867,4.0964034 C21.8132758,4.02760547 21.9088334,3.87003603 21.9529023,3.7342156 C21.9729132,3.67263036 21.9363765,3.60882583 21.9427844,3.57131986 C21.9512535,3.52190372 21.9620708,3.48057564 21.9749034,3.44598763 L21.9811199,3.42928543 C22.0239522,3.3770212 22.1169241,3.33629726 22.1941571,3.2464161 C22.2404744,3.19270933 22.2346286,2.9721121 22.3129858,2.92650573 C22.3345706,2.91396676 22.5000538,2.94470389 22.5236622,2.93227588 C22.5528353,2.91725408 22.5875259,2.91218786 22.6389505,2.9107165 L22.8546427,2.91072625 C22.9187155,2.910298 22.9952108,2.90864046 23.087452,2.903869 C23.3180549,2.89187097 23.4422973,2.88347062 23.5457299,2.87650067 L23.6653354,2.86868461 C23.6854299,2.86745013 23.7060609,2.86623819 23.7279127,2.86503146 C23.9027268,2.85559948 23.990415,2.80744093 24.126444,2.79789799 C24.2623607,2.78835505 24.3205946,2.74030747 24.3886091,2.81709483 C24.4293504,2.86310067 24.4805332,2.91593748 24.514961,2.950846 L24.552,2.988 L24.5458856,2.97743839 C24.5826472,3.01305796 24.6258168,3.05866433 24.6785421,3.11558907 C24.9599311,3.4194096 24.8544805,3.38467774 25.3205767,3.63645596 C25.5536248,3.76217863 25.7866729,3.98710347 25.9899295,4.1129371 C26.1248343,4.19649329 26.6312896,4.37503501 26.8161092,4.4196427 C27.0791736,4.48311434 27.3372915,4.52350538 27.6913043,4.27405741 C27.9527948,4.08963457 28.2383434,4.00729899 28.4469962,3.84007564 C28.6312537,3.69249299 28.7944886,3.49286803 28.9195004,3.42118503 C29.2001025,3.26028665 29.4995912,3.17184802 29.701836,3.17184802 C29.9040809,3.17184802 30.195925,3.28758389 30.3805198,3.44382177 C30.5654518,3.60005964 30.654489,3.74220504 30.8916967,3.65531991 C31.129354,3.56854575 31.2572888,3.29057993 31.5387902,3.09106594 C31.7585727,2.93504999 32.025347,2.83828903 32.2375972,2.72077774 C32.3909391,2.635779 32.7139237,2.46500479 32.8823299,2.35614872 C33.1392112,2.18981308 33.3498876,2.31964143 33.5874325,2.29378672 C33.6763573,2.28402186 33.7920382,2.24185538 33.8490355,2.19491744 C33.9438061,2.11657658 33.9701126,2.01914983 34.0044009,1.87877987 C34.0344172,1.75572035 34.0545405,1.56685894 34.076575,1.40318645 C34.1189576,1.09059973 34.1747183,0.784559918 34.251614,0.569954768 C34.3687564,0.244718112 34.5468308,0.101685 34.6760021,0.0479782302 C34.8429469,-0.0213745199 34.9237773,-0.0129412255 35.2049415,0.056522489 C35.4425989,0.115111692 35.5677231,0.125431381 35.8296633,0.240168571 C35.8782291,0.261362772 35.9394983,0.279006111 36.0053769,0.286662655 C36.3801875,0.330382628 36.5656816,0.505151559 36.661464,0.742726339 C36.6790017,0.785891491 36.718911,0.881431839 36.7617433,0.892861172 C37.2379574,1.0190277 37.0639301,1.48163828 37.1524052,1.46310722 C37.1821967,1.45678225 37.3380118,1.23784949 37.3906247,1.23585213 C37.6016383,1.22719691 37.6924742,1.20256281 37.7627372,1.30675838 C37.833225,1.41084299 37.8859503,1.68004263 37.850875,1.7842382 C37.8157998,1.88832281 37.8244561,2.08805873 37.6134425,2.28768368 C37.3427335,2.54356759 37.3943346,2.68205116 37.2000716,2.88666951 C37.0680897,3.02548598 37.0777579,2.98265372 36.9723073,3.14754682 C36.8667442,3.31255088 36.6987877,3.46634754 36.5141929,3.50096843 C36.467988,3.50973462 36.3768148,3.42284949 36.3366807,3.43916126 C36.2159408,3.48787463 36.1533225,3.64622083 35.9424213,3.84162914 C35.6610323,4.10184066 35.5026315,4.24087905 35.4673314,4.37980648 C35.4555272,4.42718828 35.4200023,4.60118046 35.3459171,4.67619239 C35.2506967,4.77262046 35.1134311,4.77461782 35.1101709,4.86838273 C35.1087094,4.91498778 35.4147185,4.90522292 35.4147185,4.95271568 C35.4147185,5.16965108 35.2465372,5.1655454 35.1762742,5.30458379 C35.1060113,5.44328929 35.1981963,5.53405817 35.4267475,5.76841498 C35.5554692,5.90024069 35.691161,6.07356708 35.7723288,6.19862396 C35.8353968,6.29605071 35.8496742,6.41999794 35.9072336,6.38215908 C35.9814313,6.33333474 36.0112227,6.17254733 36.0804739,6.14003476 C36.1343234,6.11473488 36.2498919,6.01575463 36.319143,6.01198184 C36.4774314,6.00343758 36.4466281,6.16677718 36.5924377,6.32778652 C36.7380225,6.4886849 36.8425738,6.35175483 37.0412212,6.4497364 C37.2400934,6.54771797 37.3124923,6.32678784 37.373874,6.17054997 C37.435593,6.01409017 37.4641478,5.92986819 37.6524525,5.85174925 C37.8405323,5.77363031 37.8084924,5.78472675 37.9315931,5.67176499 C38.0545813,5.55902516 38.0530074,5.57777814 38.1675641,5.50831443 C38.4786322,5.31934206 38.6339976,5.23955865 38.9166232,5.00731016 C39.0749115,4.87703796 38.9765434,4.95271568 39.2406197,4.91809479 C39.6985091,4.85761919 39.7689969,4.8130115 40.1334648,4.63491364 C40.3398692,4.53393603 40.3895592,4.50819229 40.3750569,4.40588311 C40.3554957,4.26928594 40.2236262,4.21491338 40.2781503,3.93705852 C40.2953506,3.8501734 40.3928194,3.86260141 40.4244096,3.81732794 C40.4944477,3.71745998 40.5019799,3.62103191 40.4404857,3.57320626 C40.3506616,3.50374254 40.1024367,3.29468561 40.0057549,3.25995376 C39.9088483,3.2252219 39.7417911,3.10360492 39.873773,3.01694172 C40.0057549,2.92994563 39.8914231,2.93882278 40.2078873,2.7651635 C40.5245764,2.59150421 40.351561,2.47243941 40.457124,2.22066118 C40.5361558,2.03191074 40.5940524,1.9587852 40.7367143,1.90496747 C40.7840434,1.88699123 41.0401377,1.92305466 41.1104007,1.90563325 C41.2159637,1.87966758 41.2327144,1.81885909 41.2719492,1.80143768 C41.3376029,1.7726979 41.3929139,1.80276925 41.4919565,1.86235714 C41.6502448,1.95778652 41.8789085,2.09671395 41.8701397,2.27902846 C41.8612585,2.46134297 41.7558079,2.72166545 41.7909956,2.79989535 C41.8262957,2.87801429 41.8612585,2.99086508 42.0722721,3.0603288 C42.2835106,3.12979251 42.2427019,3.16441341 42.3044209,3.10360492 C42.3235324,3.08463 42.2619259,2.99619138 42.269458,2.97066956 C42.2862087,2.91441061 42.4747382,2.95335912 42.547362,2.947478 C42.5868217,2.94426004 42.6965443,2.63799829 42.7109341,2.82763645 C42.7154309,2.89177388 42.7881671,2.95946216 42.7935633,3.00817553 C42.8024446,3.08629447 42.7143067,3.20791145 42.8992388,3.2252219 C43.0838336,3.24264331 43.1717465,3.25995376 43.259772,3.15575818 C43.2982198,3.11015181 43.2485299,2.93349649 43.283043,2.88800109 C43.3269995,2.82963381 43.5385753,2.76050299 43.5977086,2.76538542 C43.7032716,2.77392968 43.7023722,2.93038949 43.6760658,3.0260408 L43.641216,3.1383523 C43.606654,3.25451876 43.5701173,3.41998027 43.6203051,3.58119569 C43.6905681,3.80689728 43.7435182,3.84162914 43.928113,4.04990932 C44.1128202,4.25830046 44.1176543,4.3102318 44.1088855,4.56212099 C44.1055128,4.65644073 44.1626226,4.7475425 44.1824086,4.86017137 C44.2155727,5.04825603 44.3075328,5.13957973 44.3623941,5.13957973 C44.450532,5.13957973 44.490891,5.23911479 44.6228729,5.17841727 C44.7548548,5.11771974 44.8163489,5.11771974 44.8691866,5.30868947 C44.9219119,5.49965921 44.8628911,5.74788657 44.9596853,5.88670303 C44.9776726,5.91277967 45.0650235,5.91311256 45.0889691,5.93619316 C45.140795,5.98634907 45.1941949,6.02418793 45.2619845,6.04860009 C45.4533246,6.11773091 45.6529837,6.17066093 45.7743981,6.00621169 C45.8981733,5.83832256 46.1438125,5.77296452 46.1892304,5.77152199 C46.282652,5.76852595 46.3451579,5.91699632 46.4290238,6.0108722 C46.4729803,6.05991846 46.5708987,6.07634119 46.5785433,6.08621703 C46.6697165,6.20494893 46.7052414,6.37683279 46.7776404,6.45461883 C46.8765706,6.56025694 46.8663403,6.56946699 47.0767918,6.56513938 C47.300509,6.56081176 47.166616,6.52918691 47.3767303,6.46904421 C47.4753232,6.44097021 47.5672833,6.48801912 47.6661011,6.46948806 C47.7283822,6.45794777 47.7893142,6.38792923 47.8573287,6.36640214 C48.1298365,6.27962797 48.0354031,6.34176804 48.3079109,6.41977601 C48.432473,6.45539558 48.5610823,6.46860035 48.6742899,6.52275098 C48.7002591,6.53517899 48.7132999,6.59288048 48.7391567,6.60453174 C48.8467433,6.65302318 48.9737787,6.60419884 49.1159908,6.57756739 C49.2683209,6.54938243 49.3761323,6.53750924 49.5208178,6.52241808 C49.6106419,6.51320804 49.6931587,6.37261614 49.781971,6.35597148 C49.8352585,6.34598469 49.9347508,6.44363336 49.9881506,6.42832027 C50.1088904,6.39314456 50.1927563,6.28051569 50.2819059,6.26109692 C50.4586312,6.22292517 50.6263629,6.31935323 50.704945,6.40290942 C50.8192768,6.52441544 50.8408616,6.71494132 51.0168,6.71494132 C51.1926259,6.71494132 51.3542869,6.74479074 51.5038064,6.86629676 C51.5235925,6.8823866 51.9850794,7.29595091 51.9818192,7.31015436 C51.9578736,7.4075811 51.7171809,7.46372909 51.7554039,7.60043723 C51.7995853,7.75656414 51.7820476,7.89560253 51.8258917,8.08657227 C51.8698482,8.27743103 52.042414,8.30983264 52.2446588,8.38806254 C52.4404957,8.46374026 52.6817505,8.6154286 52.7757342,8.84756612 C52.7770832,8.85078409 52.8468965,9.0168978 52.7667405,9.13918056 C52.718512,9.21297189 52.6186825,9.21430346 52.5506679,9.26368262 C52.4828783,9.31272889 52.4469036,9.41026659 52.4416199,9.42347136 C52.3625881,9.61433013 52.3623633,9.82272127 52.2921003,9.89218498 C52.2371266,9.94633561 52.1712481,9.97418768 51.952365,9.96719692 C51.8910957,9.96531052 51.807005,9.87620611 51.71853,9.86866053 C51.6680531,9.86433292 51.6366877,9.94433825 51.6012752,9.94023257 C51.3549614,9.91171472 51.4438862,9.89229595 51.2899823,9.92270019 C51.1140439,9.95732109 51.2043177,9.95687723 51.2745806,10.1044599 C51.320898,10.2012208 51.3117919,10.3835353 51.3248327,10.5392184 C51.3316903,10.6207772 51.3870013,10.7371789 51.369014,10.7877787 C51.3394474,10.8706691 51.2574927,10.7949913 51.1785733,10.814743 C51.1170792,10.8299451 51.0938081,10.7972106 50.9978009,10.86157 C50.8604228,10.9536704 50.8616594,11.0322332 50.8408616,11.1210048 C50.8286077,11.1742677 50.7605932,11.2156574 50.7836394,11.3100881 C50.8451336,11.5617553 50.9287746,11.749951 50.9023557,12.0362391 C50.8986458,12.0766302 50.8929124,12.1115839 50.8859423,12.1424321 C50.8562632,12.2760332 50.8066857,12.3318483 50.8207383,12.4063054 C50.8265842,12.4368206 50.9013439,12.4377083 50.9340583,12.4809844 C50.9917302,12.5568841 51.2284881,12.6068181 51.2495108,12.6836054 C51.2764918,12.7825857 51.1496812,12.9599068 51.193975,13.0770852 C51.228713,13.168187 51.3623812,13.1813917 51.4027402,13.2964618 C51.4416378,13.4075372 51.4334311,13.5743167 51.4894166,13.6776245 C51.507966,13.7119125 51.6293803,13.554454 51.6664792,13.570322 C51.6994184,13.5844144 51.6291555,13.7805995 51.6484919,13.7895876 C51.6722126,13.8004621 51.6963831,13.825651 51.7201038,13.8172177 C51.7353931,13.8115586 51.7966623,13.4614659 51.8593931,13.4837697 C51.8738954,13.488985 51.9475309,13.4908714 51.9598972,13.5558966 C51.9808074,13.6641978 51.9398863,13.8560553 51.9657431,13.8578307 C52.0112734,13.8606048 52.0786134,13.9443829 52.1241438,13.9469351 C52.1666388,13.9492654 52.1375219,13.875696 52.176307,13.8702587 C52.2619716,13.8580526 52.4099172,13.9127581 52.4942328,13.9635798 C52.5981095,14.0260527 52.6230669,14.0476908 52.653308,14.0976248 C52.6576924,14.1046155 52.6620769,14.112494 52.6669109,14.1208163 C52.6830995,14.1492232 52.6980515,14.2314478 52.7447061,14.277609 C52.7722491,14.3050172 52.8208149,14.2859314 52.8669074,14.3247689 C52.8984976,14.3516223 52.9351467,14.3814717 52.977979,14.414983 C53.1097361,14.5179579 52.555502,14.9168749 52.6431902,14.994661 C52.6759046,15.0238446 52.8100225,14.901118 52.9445901,14.8782593 C53.0480171,14.860727 53.2677996,14.6731971 53.435194,14.7342275 C53.5653771,14.7818313 53.6573373,15.0480349 53.6803835,15.2240244 C53.7065775,15.4235384 53.7256891,15.1651023 53.7519955,15.4218739 C53.7651487,15.5501488 53.7663853,15.5468198 53.7816746,15.6177261 C53.7925794,15.6676601 53.8645286,15.7007275 53.8754334,15.7367909 C53.910059,15.8498636 53.8026972,15.9102283 53.9630091,15.8993537 C54.2369784,16.0207488 54.6792414,15.9021279 54.7653557,16.1016418 C54.8513575,16.3011558 54.8162822,16.4896844 54.9216204,16.9410875 C54.9545597,17.0822343 54.9815407,17.1732251 55.0054863,17.2391379 C55.0187519,17.2753123 54.8823856,17.291846 54.8941898,17.3170349 C54.8992487,17.3280204 54.8709187,17.4020337 54.9080175,17.4146836 C54.955459,17.4309954 55.0709151,17.3860548 55.0773231,17.3987047 C55.0999196,17.4434234 55.1231907,17.49136 55.1503965,17.5748052 C55.1899686,17.6963112 55.3254356,17.7217221 55.3671436,17.7792016 C55.3880539,17.8079414 55.3853558,17.8447816 55.3759125,17.893384 C55.366694,17.9419864 55.3335298,18.002684 55.3438726,18.0783617 C55.3770367,18.323482 55.2639414,18.4425468 55.2230203,18.579033 C55.2043585,18.6410621 55.2443802,18.7458125 55.2424691,18.7988535 C55.2360611,18.9689619 55.1858091,19.208867 55.2826033,19.3825263 C55.3465707,19.4970415 55.3526414,19.6183256 55.3291454,19.7250734 C55.3238617,19.7495965 55.564442,19.7918739 55.5562352,19.8147326 C55.5511763,19.8287141 55.5858019,19.8959585 55.5212724,19.9198159 C55.4953707,19.9294032 55.4535502,19.9320486 55.4122873,19.9325457 L55.3066478,19.9323859 C55.2948122,19.9328831 55.287235,19.9340415 55.2859759,19.9364606 C55.215713,20.0667328 55.3199269,20.0176865 55.3991835,20.078384 C55.4782153,20.1393035 55.6305453,20.2598108 55.753646,20.3118531 C55.7766922,20.321507 55.9198038,20.2084343 55.9354303,20.228186 C55.9824221,20.2864423 55.811093,20.3929681 55.7968155,20.517803 C55.7764674,20.6988969 55.757131,20.7794571 55.6456097,21.0558694 C55.6341428,21.0837215 55.5663531,21.1297717 55.5186867,21.1807044 C55.4389805,21.2654812 55.3449968,21.3836583 55.4558436,21.3436001 C55.5449932,21.3115314 55.6833831,21.4633307 55.7430784,21.5695236 C55.8036732,21.6763823 55.7560068,21.8220786 55.8714629,21.9847524 C56.1176642,22.33196 55.9516188,22.297672 55.8550495,22.3845571 C55.7582552,22.4713313 55.458092,22.8268612 55.1855842,22.8701374 C54.9128516,22.9135244 54.5172432,23.3128853 54.3940301,23.4517018 C54.270817,23.5906292 54.2323691,23.5309304 54.2675568,23.6351259 C54.2917273,23.7068089 54.3341099,23.6784021 54.3850364,23.7379899 C54.4083075,23.7652872 54.3843619,23.8640455 54.4474299,23.9047694 C54.6495623,24.0349307 54.8043656,23.9333982 54.8483221,24.0635595 C54.8925035,24.1936098 54.7896385,24.3546191 54.7370256,24.5369336 C54.6844128,24.7191372 54.7457945,24.8580646 54.6755315,25.0836552 C54.6050437,25.3094678 54.4840791,25.3066937 54.3166847,25.2980384 C54.1496275,25.2892722 53.9434479,25.3598456 53.7061279,25.4293093 C53.4684705,25.4986621 53.4441876,25.4831271 53.3122057,25.6132883 C53.1802238,25.7435605 53.2316001,25.7190374 52.8886046,25.7365697 C52.5457214,25.7538802 52.1983415,25.7181497 52.1102037,25.8396557 C52.0224031,25.9612727 52.1147005,26.1044167 52.0091375,26.2691989 C51.979346,26.3156929 51.8867113,26.2897273 51.8516361,26.3256797 C51.7620368,26.4174473 51.7016668,26.633384 51.6763722,26.733252 C51.6412969,26.8720684 51.721228,27.0675877 51.6155526,27.1109748 C51.5099896,27.1544728 51.4212896,26.9849192 51.3333766,26.9415322 C51.2453512,26.8980341 51.2916686,26.9709377 51.1334927,26.9275506 C50.9750919,26.8841636 50.9373185,26.8591966 50.7700365,26.8940394 C50.602867,26.9287713 50.5330537,26.8373366 50.4803284,26.9588426 C50.4274907,27.0804596 50.4627908,27.1325019 50.1638641,27.1064253 C49.7401505,27.0694741 49.9213727,26.9021398 49.6306528,27.2845231 C49.551621,27.3886077 49.1874904,27.4623991 49.0643897,27.4536329 C48.9411767,27.4449776 48.7508484,27.4505259 48.6364042,27.6329513 C48.5219599,27.8151549 48.1846978,27.8790704 48.2023478,28.0961167 C48.2199979,28.3130521 48.2816044,28.5041328 48.0881284,28.7731106 C47.8944276,29.0423102 47.7411982,29.2684556 47.6132634,29.242379 C47.5251256,29.2247357 47.3732452,29.0440856 47.1995552,28.9661886 C47.1205235,28.930791 47.0131617,29.0005876 46.9468335,28.9354515 C46.7344708,28.7270603 46.8743222,28.6517155 46.6545397,28.6256389 C46.4345324,28.5994513 46.1576402,28.5884658 46.0610709,28.2848672 C45.9885595,28.0569463 45.9629276,28.0841326 45.8891796,27.9045922 C45.8645595,27.8446714 45.9433664,27.5923384 45.8636601,27.4901402 C45.7826048,27.3860556 45.6638885,27.5460662 45.6141986,27.4746051 C45.4649039,27.2602219 45.4374733,27.1262879 45.3494478,27.0548268 C45.2319682,26.9593974 45.1771069,26.6985201 45.0802003,26.8980341 C44.9834061,27.09777 44.9188766,27.4116883 44.6639064,27.5245391 C44.4088239,27.6375009 44.3354132,27.4878099 44.168356,27.6876568 C44.0012989,27.8872817 44.0952826,27.983266 43.752287,28.1395038 C43.4094039,28.2957417 43.4268291,28.3999373 43.2773096,28.5127881 C43.1277901,28.6256389 43.0397646,28.7210682 43.0309958,28.6429493 C43.022227,28.5648304 43.0750647,28.347784 43.004577,28.2089675 C42.934314,28.0700401 42.8390937,27.9934747 42.7071118,28.2364867 C42.6741725,28.2970733 42.4785605,28.3078368 42.4572006,28.3422358 C42.4108833,28.4161381 42.3090301,28.540973 42.3622051,28.6590391 C42.3828905,28.7053113 42.5769286,28.696767 42.5825497,28.7644553 C42.6087437,29.0856973 42.7055379,29.398173 42.6616938,29.5457557 C42.6506766,29.5827068 42.596265,29.7038799 42.5792895,29.7240755 C42.5285877,29.784662 42.4624844,29.681798 42.3833402,29.7730108 C42.2778896,29.8942948 42.3537736,29.9710822 42.265973,30.0753888 C42.1779476,30.1794734 42.1427599,30.2836689 41.9227526,30.3531326 C41.7029702,30.4225964 41.5709883,30.3617879 41.5622194,30.4920601 C41.5534506,30.6222213 41.5709883,30.89131 41.3863935,30.8652334 C41.2016863,30.8392677 41.1769537,30.7430615 40.8857841,30.7237537 C40.7678548,30.7158753 40.6400325,30.6752623 40.5276118,30.6841394 C40.3831512,30.6954578 40.2739907,30.8520286 40.247347,30.93503 C40.2415011,30.9531172 40.4218239,30.9978358 40.418901,31.0215822 C40.4108067,31.0892705 40.4745492,31.1400922 40.475561,31.2104436 C40.4778094,31.365017 40.4232854,31.5222536 40.3750569,31.5163725 C40.304794,31.5077172 40.1373995,31.377445 40.0760178,31.299437 C39.9543786,31.1448636 40.0627522,31.0383378 39.8180123,30.9933972 C39.7136859,30.9739785 39.6581501,31.041001 39.4865961,31.2386286 C39.2755825,31.4816406 39.2406197,31.498951 39.2668137,31.6292232 C39.2932325,31.7594955 39.2406197,31.7247636 39.4163332,31.9330438 C39.5922716,32.1414349 39.4515209,32.1587454 39.4427521,32.2802514 C39.4339832,32.4018684 39.5616932,32.5274801 39.8344258,32.5274801 C39.9876552,32.5274801 40.021269,32.3735724 40.151677,32.387554 C40.252968,32.3984285 40.3304259,32.5168275 40.3574068,32.5927271 C40.418901,32.7663864 40.4628575,33.0181646 40.4628575,33.2610657 C40.4628575,33.5042997 40.4628575,33.5042997 40.5596517,33.6865032 C40.6563335,33.8689287 40.7706653,33.9643581 40.7004024,34.1899487 C40.6601237,34.3189845 40.6284715,34.3671113 40.5906575,34.4073548 L40.5274666,34.4709358 C40.5155483,34.4835899 40.5027829,34.4980334 40.4889391,34.5154073 C40.3921448,34.6369133 40.2748901,34.7857166 40.4230605,35.1101765 C40.4694903,35.211487 40.4257586,35.295598 40.4681412,35.3367658 C40.5615628,35.4276456 40.7333417,35.4038992 40.805853,35.5530354 C40.9406454,35.8300025 41.0548648,35.7596511 41.1261396,35.9061241 C41.1423281,35.9389696 41.2996627,35.9790277 41.3,36 L41,36 C41.001077,36.0645382 40.9449008,36.0861648 40.9084986,36.1370441 C40.8459183,36.2241195 40.8003032,36.3501227 40.7727769,36.4286612 C40.7263753,36.5602418 40.6776144,36.6399186 40.4272932,36.846623 C40.3704428,36.8934047 40.2444958,36.9166248 40.2040489,36.9539591 C40.0665295,37.0815558 40.0422614,37.2645848 39.8626099,37.3881977 C39.6307145,37.5481204 39.6859919,37.9002919 39.6673414,38.0602147 C39.6488032,38.2200236 39.7009348,38.2746591 39.4597141,38.4814774 C39.2861296,38.6302454 39.1178257,38.5206328 38.9296354,38.6625714 C38.8560445,38.7181175 38.7734655,38.8871462 38.6506643,38.9586276 C38.2143999,39.2124552 38.5210096,39.487454 38.3911302,39.6095872 C38.2611385,39.731948 38.1453031,39.4676486 38.0062108,39.4489815 C37.8668938,39.4300867 37.6530872,39.5365122 37.5232078,39.6964349 C37.3933284,39.8562438 37.3035588,39.6968902 37.155703,39.6767434 C37.0079596,39.6567103 36.8962813,39.7028091 36.6662959,39.8363246 C36.6160743,39.8653497 36.5127101,39.8686506 36.4537251,39.9051882 C36.3779995,39.9524251 36.3463162,40.0315328 36.2899152,40.0439396 C36.1895845,40.0664768 36.1494747,39.9924912 36.0288082,39.9972718 C35.7876999,40.0067192 35.8619649,39.9597099 35.5925438,40.0723956 C35.3235721,40.1854229 35.2957087,40.3829075 34.8221432,40.8717817 C34.526544,41.1772854 34.4072257,41.4397635 34.2766722,41.572027 C34.2261136,41.6230202 34.1485905,41.6002554 34.1070201,41.6314432 C34.0817408,41.6502241 34.0867966,41.7115753 34.0706179,41.755739 C33.9645572,42.0432585 33.8423178,42.3076717 33.8699564,42.5144899 C33.8978199,42.7213081 34.0567985,42.9029713 33.9774777,43.1097895 C33.8982693,43.3167216 33.6587339,43.3473402 33.5169451,43.6482909 C33.3753811,43.9492416 33.6406452,44.1612957 33.8818658,44.5091419 C33.9196162,44.563436 34.1611739,44.4446037 34.1033124,44.6588205 C34.0456756,44.872582 34.0665732,44.8039461 33.9961282,45.0657414 C33.9127627,45.3760256 33.8657994,45.615739 33.9120886,45.7097577 C33.9586025,45.8037763 34.1818468,46.0436035 34.3117262,46.1658505 C34.3563301,46.2078516 34.4194721,46.228909 34.4432909,46.2948131 C34.4556496,46.3302124 34.3650936,46.3784738 34.3705988,46.4193366 C34.3841935,46.5237132 34.4800301,46.6249027 34.4973324,46.6736194 C34.5344087,46.7770855 34.6181112,46.7489709 34.7946169,46.7489709 C34.8824765,46.7489709 35.0617909,46.8112327 35.0433651,46.8852183 C35.0358375,46.9152678 34.9128116,46.8673479 34.861916,46.9033163 C34.7872016,46.9557892 34.7725958,47.0967033 34.7201272,47.171941 C34.6099095,47.3306116 34.5460933,47.4776723 34.5469921,47.5844392 C34.5474415,47.6484083 34.5994607,47.6751569 34.5994607,47.745614 C34.5994607,47.9336513 34.5715973,48.1500307 34.4789066,48.1780314 C34.4493579,48.1870235 34.4059899,48.180877 34.3547571,48.1630067 C34.3036368,48.1451363 34.2670099,48.1106476 34.199149,48.0924358 C34.1399393,48.0765004 34.0978072,48.0299464 34.0670226,47.9944333 C33.9548949,47.863991 34.0444398,47.8337138 33.9500637,47.7600697 C33.932312,47.7460693 33.5061593,47.6618395 33.4909917,47.6817587 C33.4559378,47.7284266 33.3161714,47.9442369 33.2960603,47.9868071 L33.2947805,48.0307023 L33.2947805,48.0307023 L33.326348,48.1464079 C33.329766,48.1639173 33.3303839,48.1789136 33.3253843,48.1889585 C33.2849374,48.2695459 33.265051,48.32771 33.2351653,48.3756299 C33.1829214,48.4594044 33.011584,48.4304931 32.8972092,48.5668543 C32.8164278,48.6636047 32.7293547,48.7601275 32.6514944,48.9233511 C32.6282375,48.9721816 32.3681416,49.022378 32.3473564,49.0862333 C32.3264589,49.1500885 32.5030769,49.2330662 32.4699329,49.2741567 C32.1360215,49.6877932 32.1187193,49.6493207 32.0536672,49.8466915 C32.0344549,49.9054247 32.0228826,49.9657514 32.028725,50.0250537 C32.0345673,50.0843561 32.1775919,50.1660817 32.1096187,50.1971557 C31.8876103,50.2992558 31.922889,50.337956 32.1438862,50.2928816 C32.2396105,50.2735316 32.1542226,50.3776805 32.1654579,50.4234378 C32.2025342,50.5739131 32.2268023,50.4704471 32.1434368,50.7054937 C32.0598466,50.9406541 32.3361212,50.9157267 32.493864,50.9346214 C32.5628484,50.9425891 32.6289116,50.7795931 32.705873,50.7550072 C32.7677792,50.7353156 32.9229379,50.6998025 33.0097863,50.7438524 C33.0619178,50.7701457 33.0534914,50.8783924 33.0866354,50.8862462 C33.2443782,50.9238082 33.1887637,51.4880338 33.1511257,51.5868331 C33.1136,51.6854047 32.9110285,51.8314409 32.6696955,51.9818024 C32.4284749,52.1321639 32.4025215,52.2260687 32.2656762,52.3807556 C32.231493,52.4193704 32.2028712,52.4502024 32.1755415,52.4789893 L32.0931591,52.5649513 C32.0351291,52.6258187 31.9651897,52.7014547 31.8491858,52.837759 C31.6172904,53.1103675 31.7870549,53.4439857 31.777842,53.5851275 C31.7686291,53.7261554 31.5272961,53.7072606 31.2766379,53.8671834 C31.1357479,53.9571044 31.0864252,54.1325072 30.9878921,54.2232249 C30.9112678,54.2937958 30.7802649,54.2811613 30.7113928,54.3427401 C30.55365,54.4838819 30.2835548,54.4407426 29.986495,54.4783045 C29.892456,54.4901422 29.8180787,54.5172323 29.7494314,54.5547943 C29.6808964,54.5923562 29.6184285,54.6406176 29.5484329,54.6949116 C29.525176,54.7128958 29.5819139,54.827289 29.4957396,54.8424276 C29.4645057,54.8477773 29.4230476,54.7901823 29.3945101,54.8101015 C29.3520409,54.8400373 29.3054146,54.8707697 29.2532831,54.9015022 C28.919147,55.0991007 29.1138538,55.3904902 29.1883434,55.5409655 C29.262496,55.6915547 29.4759656,55.8230215 29.5966321,55.9641632 C29.7172986,56.1051912 29.6857276,56.2574877 29.611575,56.3702873 C29.5374224,56.4832007 29.5802287,56.5432998 29.4595622,56.4400614 C29.3293457,56.3284001 29.5501182,56.0674016 29.083631,56.3228227 C28.9401569,56.4012475 28.8522973,56.7273533 28.8354445,56.8292258 C28.7983682,57.0549388 28.7903911,57.1019481 28.7055651,57.158291 C28.6632082,57.1865193 28.6038861,57.1864055 28.5407441,57.1840152 C28.5093977,57.1829908 28.4567044,57.1000131 28.430751,57.0927283 C28.4051347,57.0855574 28.4058088,57.1540795 28.3530032,57.1959667 C28.3230051,57.2195283 28.2004286,57.1378027 28.1786322,57.176389 C28.1657117,57.1994953 28.2506501,57.3388159 28.2416619,57.3665889 C28.2177308,57.4405745 28.2091921,57.5298126 28.2230114,57.628498 C28.2508748,57.8259827 28.3158145,57.8917729 28.195148,57.9670106 C28.0744815,58.0421345 28.0715603,58.0906235 28.0159459,58.2692134 C27.9602191,58.4479171 28.1939121,58.5133659 28.2402013,58.673061 C28.2633459,58.7529654 28.2791876,58.8749848 28.2108773,59.0206795 C28.1427918,59.1661466 27.9908913,59.3351753 27.9166264,59.5092122 C27.8980882,59.5525791 27.9086493,59.6404513 27.8650566,59.6364674 C27.7367501,59.6247436 27.6094548,59.7768125 27.5804679,59.9772566 C27.5631656,60.0977962 27.6531599,60.2284662 27.6343971,60.2960776 C27.5886696,60.4606671 27.6811357,60.4046657 27.8018022,60.5362463 C27.9224687,60.6678269 27.7774217,60.8162534 27.6938315,60.9855097 C27.6103537,61.154766 27.5511439,61.3297135 27.4896872,61.5402879 C27.4282304,61.7507485 27.6076572,62.054431 27.5732774,62.3206654 C27.5538404,62.4704578 27.4683402,62.4973203 27.4062093,62.4751246 C27.3578978,62.4577095 27.3426178,62.394651 27.2614994,62.439953 C27.1918409,62.4786531 27.1904927,62.5728994 27.1570116,62.6413076 C27.1013972,62.7553593 27.0278064,62.8556383 26.9235433,62.9319004 C26.7564753,63.0541473 26.825572,63.0890913 26.6491787,63.2395667 C26.6051365,63.2772424 26.4942447,63.240022 26.4459332,63.2610794 C26.3976216,63.2819092 26.4116657,63.3610169 26.3615565,63.3713749 C26.2613381,63.3918632 26.1597715,63.3974406 26.0669684,63.4114409 C25.9741653,63.4254413 25.8824858,63.530387 25.8483306,63.6738053 C25.8141755,63.8171097 25.8376572,63.9992281 25.8468701,64.1355893 C25.8499036,64.1803222 25.7637293,64.2404212 25.7972103,64.2711537 C25.8529371,64.3220331 26.0419139,64.3347813 26.0685414,64.3755303 C26.1234817,64.4593048 26.1705574,64.538754 26.2175207,64.6257155 C26.2484176,64.6830828 26.1298858,64.6704484 26.1041571,64.7347589 C26.0841584,64.7850692 26.0671932,64.9688949 26.0929219,65.0896622 C26.1248299,65.2394546 26.2604393,65.0502791 26.4306532,65.2076977 C26.5670491,65.3340424 26.7652387,65.6538879 26.6934455,65.7070437 C26.5803067,65.7911596 26.4403155,65.7818261 26.2922351,65.8509172 C26.2579676,65.8669664 26.2634728,65.992742 26.2286436,66.019263 C26.182242,66.0545484 26.1168529,65.9980917 26.1067412,66.055459 C26.0762937,66.2276747 26.1833656,66.4722825 26.2738093,66.6275385 C26.3227949,66.7115406 26.6009795,66.8645201 26.6474934,66.9296274 C26.6959655,66.9975153 26.6172385,67.0123241 26.5361531,67.0152443 L26.4457085,67.0156784 L26.4457085,67.0156784 C26.2971786,67.0156784 26.1438175,66.8343567 26.0603397,66.900147 C25.9768618,66.9659373 26.0788778,67.1070791 26.1716809,67.2104313 C26.2645964,67.3138973 26.2459459,67.4079159 26.1716809,67.5207155 C26.1346046,67.5771723 26.1346046,67.6265719 26.1531428,67.6876954 C26.1716809,67.7488189 26.1450534,67.8846109 26.2459459,67.9251323 C26.6045748,68.0692335 26.4968288,68.1164704 26.2947068,68.1343408 C26.2521252,68.138097 26.2459459,68.1978546 26.162468,68.2166356 C26.1441546,68.2206194 26.1260658,68.2189121 26.1083141,68.2125379 C26.081799,68.202749 25.9677613,68.2958571 25.9429314,68.2683117 C25.9182138,68.2409939 25.8894516,68.2086679 25.8719246,68.1681465 C25.8614759,68.1437882 26.005287,67.9351488 25.8947322,67.9022536 C25.7573252,67.8616185 25.8202425,67.8794888 25.7911433,67.8281542 C25.7291247,67.718997 25.5671125,67.610978 25.4012804,67.6618573 C25.2354482,67.7126228 25.2806139,68.0285983 25.2620757,68.1508453 C25.2574693,68.1812363 25.35398,68.2777591 25.3395989,68.3147519 C25.3213978,68.3613059 25.0856824,68.2123103 25.0373709,68.2857268 C25.0137768,68.3216951 25.1934284,68.5614085 25.163655,68.6119464 C25.1453415,68.6429065 25.0625378,68.6366462 25.0419773,68.6747772 L24.9693976,68.828212 L24.9693976,68.828212 C24.9471519,68.8738554 24.9240073,68.9237104 24.9000762,68.9783459 C24.865584,69.0568845 24.8373835,69.1304148 24.8146884,69.1993921 C24.7845779,69.2907928 24.8927733,69.3859497 24.8791786,69.4624394 C24.8653593,69.5387015 24.7296376,69.5966379 24.7276152,69.6603794 C24.7218853,69.8471646 24.8450235,69.9705498 24.8592923,70.0915448 C24.8722128,70.2018402 24.8521017,70.2947206 24.9431072,70.374056 C24.9882729,70.4133253 25.2223029,70.3355835 25.2612892,70.3666574 C25.3113984,70.406382 25.2241006,70.6005658 25.2324147,70.6258347 C25.3034214,70.8425556 24.9726559,70.7296422 24.902548,70.7417075 C24.8335636,70.7536591 24.7522204,70.8164899 24.7489622,70.8275308 C24.7309858,70.8896788 24.9056938,70.900492 24.9806329,71.0002019 C25.0741101,71.1246115 25.151858,71.3414463 25.1879231,71.4326193 C25.2620757,71.6205428 25.4374578,71.6683489 25.623064,71.8846145 C25.6811502,71.9521121 25.674072,72.0309922 25.7071036,72.0691232 C25.779571,72.1530115 25.8428254,72.1540359 25.7854133,72.2122 C25.7018231,72.2967712 25.3799334,72.1581336 25.1386004,72.1766869 C25.1009623,72.1797602 25.0686048,72.1490277 25.0206303,72.1654183 C24.7614333,72.2542011 24.5427955,72.4857191 24.4019056,72.5014268 C24.3487629,72.5073457 23.7929554,72.4299453 23.7865514,72.4169694 C23.7589127,72.3613095 23.8885674,72.0890424 23.8625016,72.0279189 C23.8159877,71.919217 23.7493627,71.8605976 23.7027364,71.7804655 C23.6093716,71.6200875 23.5235343,71.5387033 23.4278101,71.4940843 C23.3834309,71.4733683 23.2927625,71.5955015 23.2426533,71.5863956 C23.1923194,71.5771758 23.1825447,71.436717 23.1228856,71.4306843 C23.0762593,71.4259037 23.0260378,71.4207816 22.9717716,71.4134969 C22.9020007,71.4039357 22.652466,71.5470125 22.5522477,71.5140035 C22.4636016,71.4849784 22.4821397,71.3659184 22.4473105,71.3343892 C22.3273181,71.2260287 22.4400076,71.0831796 22.3197905,70.7930422 C22.2438403,70.6098993 22.1814847,70.5929396 22.1213761,70.5022218 C22.0937374,70.4603346 21.9432975,70.430968 21.9154341,70.4022843 C21.8874584,70.3736007 21.9819468,70.2357598 21.9516116,70.2165235 C21.9095918,70.1900025 21.807014,70.2499878 21.7740948,70.2054826 C21.7452202,70.166441 21.6756741,69.9722572 21.6299466,69.9266138 C21.4662492,69.7633901 21.3852431,69.6480864 21.3080569,69.589467 C21.2091868,69.5143432 21.120316,69.5517913 20.9811114,69.46722 C20.9545962,69.4511708 20.9531356,69.4049583 20.9269575,69.3754779 C20.8544902,69.2938661 20.7107915,69.2054248 20.6152919,69.206563 C20.5643963,69.2071322 20.4929401,69.3887953 20.4147428,69.4021127 C20.1363335,69.4488944 20.2592471,69.5424577 20.2128455,69.6741521 C20.166444,69.8058465 20.3148615,70.0125509 20.1756569,70.0032173 C20.0364522,69.9937699 19.9158981,69.8623032 19.6559146,69.7587233 C19.3960434,69.6552573 19.2475135,69.6647047 19.1175218,69.7963991 C18.9876424,69.9280935 18.7091207,70.059674 18.5236269,70.0877886 C18.3379083,70.1160169 18.2509476,70.1744086 18.037478,70.3343314 C17.8241207,70.4941403 17.71615,70.5224825 17.5584072,70.6072814 C17.4991975,70.6388106 17.3571841,70.6149076 17.3183101,70.6433636 C17.2533704,70.6906006 17.2974126,70.7818874 17.1873072,70.7760824 C17.0109139,70.766635 16.9708041,70.6013625 16.8965391,70.4793432 C16.8222742,70.3569824 16.6958777,70.2644434 16.5194844,70.3209002 C16.4396018,70.3465106 16.4222996,70.5616379 16.3151153,70.5817848 C16.1915277,70.6052325 16.2086052,70.7377237 16.1473732,70.7462605 C16.0861411,70.7549111 16.015022,70.6589575 15.9710922,70.6614616 C15.7949236,70.6717058 15.4494399,70.7287316 15.3247288,70.8743125 C15.3064153,70.8957114 15.2040623,70.9698109 15.1713677,70.9709491 C15.0766546,70.9745915 15.1530543,70.831287 15.1084503,70.7956601 C15.0103667,70.7173492 14.8422875,70.7214469 14.7892571,70.7916763 C14.7572367,70.833905 14.7815048,71.0408371 14.7328562,71.0694069 C14.5775852,71.1608076 14.6344355,71.5077432 14.5973592,71.7710181 C14.5834275,71.8697035 14.5180384,71.9138673 14.4912985,71.9565513 C14.4469193,72.0276913 14.4325382,72.0613832 14.3745643,72.0908636 C14.3398474,72.1083925 14.2751324,72.0967824 14.2001934,72.0624076 C14.1661506,72.0466999 14.2143498,71.8567276 14.1931152,71.7392612 C14.1835652,71.6859916 14.1148055,71.6876989 14.0960427,71.6571941 C14.0462706,71.5764929 13.8972912,71.6874713 13.8587544,71.6670968 C13.8032523,71.6377302 13.8354974,71.8511502 13.7898823,71.8180274 C13.6686541,71.7304968 13.6803387,71.7190005 13.522933,71.6845119 C13.4873173,71.676658 13.4028282,71.6554867 13.4070976,71.6117783 C13.4359722,71.3159497 13.2459843,71.4960193 13.1523947,71.6135995 C13.1305983,71.6412587 13.0843091,71.588672 13.0473452,71.5735334 C12.9985842,71.5537281 12.9572385,71.4362617 12.9220722,71.4239687 C12.8164609,71.3873174 12.697255,71.4743927 12.6678187,71.5104749 C12.6282706,71.5585087 12.6482694,71.6829183 12.7043332,71.86811 C12.8035404,72.195354 12.6947833,72.2419081 12.5192888,72.2306395 C12.340199,72.2191433 12.3349185,72.491638 12.2305431,72.5327284 C12.1104383,72.5800792 12.023927,72.3310323 11.9365168,72.1522147 C11.9023616,72.0824406 11.9240457,71.9219488 11.8876435,71.8955416 C11.8429272,71.8632156 11.7224854,71.9636083 11.6476587,71.9837552 C11.5762026,72.0031053 11.4574461,71.9217211 11.3743053,71.9711207 C11.2911645,72.0205204 11.2434147,72.2007038 11.1642062,72.2625102 C10.9224238,72.4506613 10.9728701,72.3994405 10.693899,72.3807734 C10.6328916,72.3766757 10.5808725,72.3775863 10.5336845,72.3837328 C10.4703177,72.3918143 10.3776269,72.1310435 10.3196531,72.157223 C10.22303,72.2008176 10.2369617,72.2184603 10.0736013,72.3104301 C9.97686586,72.3649518 9.88574804,72.4389374 9.79743904,72.5208907 C9.58037416,72.7222454 9.47689758,72.8386874 9.25545096,72.965032 C9.12006629,73.0420909 9.05029544,72.9732274 8.98434457,72.9352101 C8.93659479,72.9077786 8.84581403,72.9377143 8.8166024,72.8937782 C8.79379486,72.8597448 8.82772529,72.7584414 8.82075944,72.6957244 C8.81278242,72.6241291 8.80626598,72.5642577 8.7979519,72.5105327 C8.78716607,72.4418969 8.69750884,72.5007439 8.6727913,72.4384821 L8.66447363,72.3884214 L8.66447363,72.3884214 L8.66411949,72.2438595 C8.66255375,72.1929501 8.65616314,72.1440877 8.63481618,72.1115796 C8.54178838,71.9704378 8.43426711,71.843524 8.30764593,71.782059 C8.26034556,71.7591804 8.19270941,71.8867771 8.13956671,71.884956 C8.10777098,71.8838177 8.09215399,71.7454077 8.05822356,71.7531477 C7.81644115,71.8097183 7.72566039,72.1163602 7.59555629,71.7394889 C7.56499643,71.6512752 7.54162713,71.5822979 7.51825782,71.5251582 C7.46691277,71.3994965 7.53241423,71.2656395 7.36253737,71.190288 C7.25748785,71.1435063 7.09716095,70.9908683 7.06188229,70.969697 C7.01637956,70.9424931 6.93672169,71.0020231 6.86886083,71.0154543 C6.78133829,71.0327555 6.70538806,71.0087387 6.66539059,70.993031 C6.57427278,70.9570626 6.52551183,70.8984432 6.50281664,70.8341326 C6.49292963,70.8061319 6.21485738,70.9740224 6.14834475,70.9414687 C6.06284456,70.8994676 6.18654457,70.6569086 6.19362278,70.624355 C6.19867864,70.6004519 6.00947716,70.4648875 6.01172421,70.4087723 C6.01408361,70.3526571 6.2133968,70.389536 6.25833777,70.3632427 C6.37810545,70.2930133 6.46068448,70.3788366 6.5983162,70.36108 C6.64426834,70.3551612 6.70864628,70.2903953 6.75538488,70.2851594 C6.96750625,70.2604596 7.17760528,70.2412233 7.28411538,70.2269953 C7.40601775,70.2106047 7.30018177,69.9850055 7.47882212,69.8652626 C7.60791505,69.7785287 7.77071371,69.7641869 7.89879547,69.7040878 C7.99845207,69.6573061 8.07485172,69.5619216 8.11282684,69.5185547 C8.24753739,69.3643231 7.97620629,69.3219806 8.01597905,69.1990507 C8.02440548,69.172985 8.10833274,69.1621717 8.16113838,69.0954708 C8.2109105,69.0328676 8.10496217,68.9610446 8.09878278,68.9237104 C8.08496343,68.8389115 8.19158588,68.7780156 8.28191723,68.6503051 C8.3337117,68.5773439 8.3318017,68.441438 8.38809027,68.3591432 C8.49527448,68.2021799 8.66088195,68.0993968 8.73705689,68.0144841 C8.92300014,67.8073244 8.78772783,67.9260429 8.81851239,67.6642476 C8.82222002,67.6318078 8.66874662,67.5694322 8.66717368,67.5226506 C8.66503899,67.4626653 8.81514182,67.4166804 8.82941058,67.3709231 C8.85277988,67.2965961 8.71492346,67.0219387 8.76649322,66.9555793 C8.81199595,66.8970738 8.96940169,66.9696935 9.02220733,66.9108465 C9.08141706,66.8450562 9.01906146,66.8479018 9.06939535,66.7733471 C9.13815503,66.6721575 9.3431982,66.7498993 9.47442583,66.6806943 C9.57970005,66.6251482 9.41454199,66.4624937 9.51386153,66.3874836 C9.61812457,66.3087174 9.89215213,66.3453688 10.0674219,66.310311 C10.2461746,66.2745702 10.1947172,66.0083358 10.2241535,65.9908069 C10.2493205,65.9756684 10.3785258,66.0954112 10.4020074,66.0791344 C10.5285162,65.9912622 10.4687448,65.7726063 10.5372797,65.6624247 C10.5905348,65.5766014 10.7277171,65.4825827 10.7341212,65.3989221 C10.752547,65.1539728 10.8235537,65.294204 10.9724207,65.3129849 C11.052865,65.3233429 11.1261188,65.4066621 11.1706103,65.3978977 C11.2277977,65.3865152 11.2451,65.2806589 11.2490323,65.2815695 C11.5597991,65.3528233 11.227236,65.4281748 11.7000149,65.3848079 C11.7640558,65.3790029 11.8815765,65.3767264 11.87315,65.3112776 C11.8462978,65.1017276 11.9943783,65.245032 12.0594303,65.1907379 C12.1039219,65.1535175 12.0660591,65.0260346 12.0987537,64.9893833 C12.1486382,64.9331542 12.2457106,65.0201157 12.3331208,65.0106683 C12.4608655,64.9968956 12.5940032,64.8897872 12.7264667,64.7443202 C12.9217352,64.5299895 12.7468024,64.3445702 12.4881672,64.150045 C12.4513156,64.1221581 12.2788546,64.194664 12.2394189,64.1664356 C12.1702098,64.117036 12.2818881,64.0106105 12.2750346,63.95404 C12.2704282,63.9161366 12.1378523,63.9103316 12.1538064,63.8662817 C12.1741422,63.8100526 12.3091898,63.8403298 12.3713207,63.7719216 C12.3954764,63.7455144 12.4485068,63.7452868 12.4432262,63.6838218 C12.4404174,63.6489916 12.2466095,63.6558211 12.2673947,63.6252024 C12.2795287,63.6071044 12.3939035,63.472223 12.4743478,63.4446775 C12.605126,63.3997171 12.863649,63.3681878 12.9055564,63.320837 C13.0668945,63.1386048 12.9343186,63.1392877 12.9164546,62.9572831 C12.9073541,62.8642889 12.8964559,62.7742541 12.883423,62.6943496 C12.8661207,62.5882656 12.7344437,62.7181388 12.7089397,62.6639586 C12.6815257,62.6055669 12.6979291,62.3140636 12.5702968,62.2441756 C12.5329958,62.2240288 12.4927736,62.2037681 12.4505291,62.1845319 C12.4082846,62.1651818 12.3572766,62.1761089 12.3121109,62.1581247 C12.2984039,62.152775 12.2791917,62.1690518 12.2544741,62.2046787 C12.2162743,62.2596557 12.230206,62.2480457 12.1723445,62.2123049 L12.0511163,62.1372949 C12.0388698,62.1345631 11.9795478,62.132059 11.963032,62.1296687 L11.8900029,62.1168066 C11.8182097,62.1065624 11.8327031,62.1136195 11.7824816,62.1088389 C11.6268735,62.0943832 11.5848537,61.966445 11.4828377,61.8250756 C11.4082357,61.7217234 11.3106014,61.6582096 11.2213936,61.5377838 C11.1739809,61.4738147 11.2807157,61.3375674 11.2347636,61.2606223 C11.2239777,61.2426381 11.2048778,61.227841 11.1811715,61.2149789 C11.1574651,61.2023444 11.129377,61.1913035 11.1005024,61.181287 C11.0801666,61.1742299 11.0594938,61.1672866 11.0398321,61.1602295 C10.9966888,61.1448633 10.9589384,61.1290418 10.940962,61.1078705 C10.625027,60.731113 10.4760477,60.9193779 10.4760477,60.9193779 C10.4760477,60.9193779 10.3097661,61.0184048 10.2190977,61.1008134 C10.1652809,61.1497577 10.2020201,61.2690453 10.1313504,61.3203799 C10.1222499,61.3268679 9.88956802,61.4290819 9.85103114,61.4295372 C9.76912623,61.4302201 9.66171731,61.262102 9.57880123,61.2455976 C9.52206325,61.2342152 9.45802237,61.3031925 9.35780401,61.4397813 C9.13298682,61.7458541 9.30252662,61.8240512 9.0440037,61.9745266 C9.00355683,61.9979743 8.96299761,62.0157308 8.92153956,62.0282515 C8.85176871,62.0494228 8.72716987,62.1568726 8.6496467,62.1545961 C8.47875867,62.1498155 8.49673506,61.9639409 8.07676171,61.9557456 C7.99260974,61.9541521 7.9301418,61.9025898 7.88418966,61.9258099 C7.68543823,62.0258612 7.79779065,62.3702927 7.79779065,62.3702927 C7.79779065,62.3702927 7.74700735,62.443823 7.62263322,62.4760352 C7.61454385,62.4781978 7.57825402,62.4261802 7.53702068,62.400456 C7.48387798,62.3674471 7.4221965,62.3590241 7.40084954,62.3601623 C7.35456034,62.3631217 7.29647414,62.4917429 7.238725,62.4762628 C7.1945705,62.4645389 7.14491073,62.4522459 7.09120627,62.4397253 C7.03761416,62.4270908 6.97986502,62.4142287 6.91975647,62.4010251 C6.8861631,62.3937404 6.86886083,62.4455303 6.83380687,62.4380179 C6.79875292,62.4306194 6.74572257,62.3641462 6.7097698,62.3566338 L6.65145889,62.3445684 L6.65145889,62.3445684 C6.63202192,62.3405846 6.59887796,62.3516255 6.59292328,62.3323893 C6.50135606,62.0354224 6.39338538,62.1651818 6.29305467,62.2706966 C6.18047754,62.3890736 5.99374782,62.2069552 5.90083237,62.1818001 C5.6589376,62.1164651 5.40299879,62.4195785 5.07245797,62.6853575 C5.02178702,62.7262204 4.84134904,62.659861 4.78708282,62.6974229 C4.7424789,62.7281554 4.83112496,62.8574594 4.79696983,62.8728257 C4.62316063,62.9517057 4.39924226,62.8246781 4.41508395,62.63721 C4.4246339,62.524638 4.63608116,62.4019357 4.67326981,62.2572654 C4.68023566,62.2300615 4.8258444,62.2681925 4.83078791,62.2417853 L4.81259033,62.2118016 L4.81259033,62.2118016 L4.72281372,62.127803 C4.71064806,62.1151917 4.70279041,62.1046274 4.70360497,62.0981394 C4.70899788,62.0529513 4.54923274,62.0322353 4.5497945,61.9887546 C4.55069332,61.9317287 4.60428543,61.837141 4.66405691,61.8028799 C4.72394075,61.7686189 4.77618463,61.7881966 4.78135284,61.7361791 C4.7864087,61.6870071 4.82202442,61.5153605 4.74832123,61.4396675 C4.67753921,61.3668201 4.5035053,61.4038129 4.55990622,61.3591939 C4.72821015,61.2261337 4.67034865,61.0528935 4.52451521,61.2021168 C4.40609576,61.3229979 4.36407595,61.1058217 4.32722436,60.8614415 C4.32171909,60.8246763 4.23869065,60.8774907 4.17105449,60.8604171 C4.08420607,60.8387905 4.00859289,60.7487557 4.00825583,60.7043644 C4.00769407,60.625029 4.31183207,60.4603257 4.31992145,60.4106984 C4.33542608,60.3163383 4.02522105,60.1771315 3.80074091,60.1734892 C3.6911973,60.1715541 3.66513154,60.3118992 3.57682253,60.29198 C3.45424604,60.2640931 3.51188284,60.1086095 3.44211198,60.0598928 C3.40087864,60.0309815 3.78107924,59.9401499 3.74332882,59.9019051 C3.57333961,59.7296893 3.66838976,59.4249824 3.83568251,59.1907326 C3.87534292,59.1350727 3.97690951,59.2207821 4.0300522,59.1757078 C4.07139789,59.1408777 4.06656674,58.9724181 4.08982369,58.9468077 C4.2619476,58.7568355 4.02578281,58.6492718 3.9741007,58.5250898 C3.93320441,58.4269735 4.11027183,58.2711484 4.03600688,58.1635847 C3.98387536,58.0881194 3.71973481,58.0958594 3.70209548,58.0727531 C3.68232146,58.0464598 3.74231765,57.8899518 3.72557714,57.8638861 C3.56277848,57.6110829 3.53334215,57.3627189 3.46772833,57.1589739 C3.42896675,57.0388896 3.2807739,56.9911973 3.30066028,56.8406082 C3.30874966,56.7789155 3.25684284,56.6283264 3.27302159,56.5624223 C3.29178444,56.4860463 3.3336919,56.3765476 3.38234049,56.3315872 C3.42009091,56.2966432 3.46761598,56.3204324 3.47514359,56.3002855 C3.49255822,56.2538454 3.51154578,56.2261861 3.55143089,56.1658594 C3.58423779,56.1161183 3.74052001,56.0310918 3.77849513,55.9737244 C3.82736843,55.8999665 3.83141312,55.7102219 3.89219578,55.5871781 C4.01758108,55.3327814 4.02859162,55.1200443 4.10409245,55.0042853 C4.16285276,54.9142505 4.28756395,54.8648509 4.40148931,54.7001475 C4.53159341,54.511655 4.58496081,54.4399458 4.61282421,54.3186094 C4.64068761,54.1973869 4.63608116,54.084132 4.63608116,53.928876 C4.63608116,53.763945 4.5963084,53.5360693 4.61462185,53.3844557 C4.6308006,53.2508263 4.70809906,53.1908411 4.67326981,53.0811147 C4.64439524,52.9896002 4.47103545,52.955453 4.46890076,52.8939881 C4.46553019,52.7917741 4.66169751,52.6640635 4.76629762,52.4403994 C4.93359037,52.0825366 4.81674385,52.033137 4.94684796,51.9955751 C5.02010174,51.97429 5.27783819,52.1241962 5.47805021,52.1087162 C5.63365831,52.0968785 5.74028076,51.9304678 5.78915406,51.8562545 C5.83094916,51.7928545 5.56883096,51.7831795 5.62669246,51.7337799 C5.6844416,51.6843802 6.06261985,51.595256 6.15800706,51.5463117 C6.22159853,51.5136442 6.29608818,51.479497 6.38428484,51.4418213 L6.49311197,51.3960694 L6.49311197,51.3960694 L6.71745482,51.3025427 C6.97657759,51.1926468 7.20833367,51.0818642 7.22131037,50.9895984 C7.22704035,50.9483942 7.04884941,50.9322311 7.02379482,50.873498 C6.99626847,50.8089597 7.08210572,50.7420312 7.0812069,50.6589397 C7.08042044,50.5758482 6.99278555,50.4767074 6.96087746,50.4054536 C6.92278999,50.3205409 6.70943274,50.4224134 6.61584318,50.4027218 C6.55966696,50.3911118 6.63337015,50.2430267 6.57112691,50.2439373 C6.48416614,50.2450756 6.39619419,50.2548644 6.32147983,50.2618077 C6.10396554,50.2819545 6.09812322,50.3106382 5.82634271,50.4328852 C5.66590345,50.5051634 5.59478437,50.7050384 5.47861197,50.7661619 C5.42063812,50.7967806 5.35626018,50.8215942 5.29862339,50.7938211 C5.26974882,50.7800484 5.11391601,50.7908617 5.08976024,50.7718531 C5.07335678,50.758991 5.06809869,50.738958 5.06519101,50.716327 L5.05990362,50.6689562 C5.04762808,50.5887482 4.99632047,50.5135485 4.58024201,50.6127271 C4.44452028,50.645167 4.30554034,50.7153964 4.18610971,50.7602431 C4.15925749,50.7703734 4.22262425,50.8634814 4.19655849,50.8972872 C4.1530781,50.9539715 4.02173812,50.9576139 3.98870651,50.9546545 C3.94870905,50.9511259 3.77579867,50.8648473 3.75748523,50.7803899 C3.74647469,50.7296244 3.87837643,50.6807939 3.86950059,50.6505167 C3.84871539,50.5804011 3.77557397,50.5281559 3.78433746,50.4806913 C3.81107733,50.337956 4.02241224,50.2688648 4.13397819,50.1417234 C4.19206439,50.075364 4.12229354,49.9830527 4.1762227,49.8494233 C4.1972326,49.7971781 4.25262235,49.6299706 4.33081963,49.5926363 C4.39553463,49.5615623 4.46777723,49.6895005 4.50339295,49.6739067 C4.59215136,49.6352065 4.68551623,49.6033358 4.72236782,49.5310575 C4.73472659,49.5069268 4.68315683,49.3525815 4.69180796,49.331524 C4.74854594,49.193797 4.8931435,48.8798703 4.92651217,48.6185304 C4.94774678,48.4510953 4.86044895,48.3351086 4.88224532,48.2027312 C4.93797212,47.8635357 5.07537913,47.9473102 5.14975643,47.7589314 C5.18492274,47.6698072 5.41794166,47.7421993 5.49434131,47.6262126 C5.52905821,47.5736259 5.41423403,47.4091502 5.44513095,47.3503032 C5.49018427,47.2645937 5.52748527,47.1718271 5.5448999,47.0718897 C5.58051561,46.8667788 5.78297468,46.7070837 5.72556259,46.6551799 C5.6934298,46.6261548 5.53703523,46.6968395 5.49029662,46.7035551 C5.36019252,46.7223361 5.4358057,46.4862651 5.51029535,46.3166673 C5.58467265,46.1471834 5.69904742,45.7152212 5.75196541,45.5441437 C5.80499575,45.3730662 5.69904742,45.3875219 5.55018046,45.4064167 C5.40142585,45.4251976 5.17975453,45.4858658 4.86359481,45.3540576 C4.8093286,45.3314066 4.69641441,45.1546379 4.65315873,45.1104742 C4.570355,45.025903 4.58518551,44.8360445 4.5379975,44.7943849 C4.4659796,44.7308711 4.43137505,44.809182 4.3384596,44.7905149 C4.29273216,44.7812952 4.20004141,44.7090169 4.136787,44.7034395 C4.08757664,44.6991142 4.01297463,44.7608068 3.95859606,44.7578474 C3.79849386,44.7491968 3.68277087,44.7444162 3.55738557,44.7339444 C3.49536703,44.7288223 3.42346148,44.6464137 3.33784893,44.5816478 C3.27920097,44.5372565 3.20122839,44.5243944 3.16628679,44.4578073 C3.12359287,44.376537 3.13067107,44.2582738 3.11157116,44.1725643 C3.09617888,44.1037008 2.89810156,44.3924723 2.88742808,44.333853 C2.88484397,44.3197388 2.86124996,44.1839467 2.87945106,44.0953916 C2.9393349,43.800246 2.99101701,43.9064438 2.90641564,43.5685003 C2.83922889,43.2999894 2.85428411,43.1001145 2.85428411,42.7139096 C2.85428411,42.6462981 2.76339101,42.5143761 2.76058219,42.4660009 C2.75103224,42.302891 2.7050801,42.3088099 2.70182188,42.2299299 C2.70002424,42.1825791 2.81192725,42.0289166 2.85057648,41.9598255 C2.96337831,41.758357 3.1298846,41.5698644 3.25998871,41.4380562 C3.39020516,41.3061341 3.32358018,41.256393 3.37009408,40.9580603 C3.39211515,40.8164632 3.4475049,40.6243283 3.52907276,40.5314479 C3.64063871,40.4043065 3.76849577,40.40203 3.7332171,40.2973119 C3.70479194,40.2135374 3.51896104,40.2308387 3.43525848,40.1349988 C3.32773722,40.0114998 3.29953676,39.8487314 3.21594656,39.8381458 C3.06719195,39.819251 3.21763184,39.4802831 3.08752774,39.2917905 C3.04685616,39.2329435 2.92899847,39.2991891 2.84507122,39.2398868 C2.79462498,39.2042599 2.78676031,39.1143389 2.76822216,39.0674434 C2.71845004,38.9421232 2.62362459,39.0508251 2.52138389,38.9379117 C2.31690248,38.7118572 2.44127661,38.7798101 2.40431267,38.4971851 C2.39959387,38.4618996 2.40745853,38.2668053 2.39959387,38.243699 C2.34442883,38.0814998 2.20196596,38.351035 2.08815295,38.2522358 C1.9579365,38.1393224 1.98231697,37.9566348 2.09388293,37.7117994 C2.16545142,37.5548361 2.34600176,37.419044 2.47003883,37.250243 C2.53958498,37.1557691 2.56205547,37.0059767 2.60879407,36.9450808 C2.73901053,36.7755968 2.77192979,36.8491272 2.88349574,36.5100454 L2.90935486,36.4305473 L2.90935486,36.4305473 L2.96346392,36.2605281 C3.00745279,36.1208936 3.04463623,36 3.04463623,36 L3.15,36 Z"></path>
            </g>
        </g>
    </g>
</svg>