<?xml version="1.0" encoding="UTF-8"?>
<svg width="120px" height="120px" viewBox="0 0 120 120" version="1.1" xmlns="http://www.w3.org/2000/svg" xmlns:xlink="http://www.w3.org/1999/xlink">
    <title>jdo_cn_ximalaya_radio_province_shanxi</title>
    <g id="jdo_cn_ximalaya_radio_province_shanxi" stroke="none" stroke-width="1" fill="none" fill-rule="evenodd">
        <g id="编组">
            <rect id="矩形" x="0" y="0" width="120" height="120"></rect>
            <g id="山西" transform="translate(38.000000, 21.000000)" fill="#FFFFFF" fill-opacity="0.189284" fill-rule="nonzero">
                <path d="M8.27020918,22.1982833 C8.39392056,22.7777155 8.48617649,22.2211438 8.57933689,22.7438259 C8.67239679,23.2665081 8.64918206,23.2433468 8.57933689,23.3130311 C8.50949171,23.3827154 8.44537485,23.4465843 8.46869007,23.6498217 C8.4920053,23.8531594 8.46869007,24.2190269 8.29985569,24.3758416 C8.13102132,24.5326562 8.08449137,24.5153104 8.05534734,24.7359939 C8.05172946,24.7635668 8.04881505,24.7917413 8.04580015,24.8201164 C8.02489685,25.0193432 8.00509901,25.2340109 7.77596664,25.3864139 C7.51397186,25.5606747 7.57396837,25.7518803 7.57979717,25.8679873 C7.58562598,25.9840944 7.39930518,26.1781074 7.30493883,26.3883634 C7.21077346,26.5986194 7.17750907,26.7804001 7.38121579,27.006899 C7.41940451,27.0493112 7.51779074,26.981933 7.52904636,27.0309626 C7.57075247,27.2119412 7.52904636,27.4835595 7.50412319,27.5592597 C7.47819506,27.6380681 7.50814306,27.9246258 7.22876236,28.0407328 C6.94928117,28.1569401 7.11811555,28.2266244 7.15308838,28.3891542 C7.18796072,28.5518845 7.0774144,28.7957293 6.92023764,28.8189908 C6.76306087,28.8422524 6.52428082,28.6911528 6.52428082,28.6911528 C6.52428082,28.6911528 6.30891649,28.6215688 6.23917182,28.9293828 C6.16922615,29.2371967 6.08189455,29.7831404 5.72101107,29.8064019 C5.36002709,29.8295632 5.38334232,29.9748473 5.33681236,30.0387162 C5.30183953,30.0865427 5.0835608,30.3110363 4.81945559,30.4029795 C4.73142052,30.4336606 4.63815963,30.4496028 4.54509973,30.439476 C4.17245814,30.3987683 4.20160217,30.7240284 4.20160217,30.782082 C4.20160217,30.8402357 4.14924341,31.3048644 4.09678416,31.380364 C4.0444254,31.4558637 3.98623784,31.6301245 3.70675665,31.6301245 C3.42737595,31.6301245 3.42737595,32.0308842 3.43903356,32.0946529 C3.45069117,32.158622 3.56123749,32.5709123 3.55540869,32.6058045 C3.54957988,32.6406968 3.48556351,33.018195 3.46234879,33.0995101 C3.43903356,33.1808251 3.3807455,33.7500303 3.45069117,33.8777681 C3.52053635,34.0055059 3.6602267,34.1739513 3.5670663,34.458604 C3.4739059,34.7431565 3.63691147,34.9580247 3.72424306,34.9987323 C3.81157466,35.0394399 4.34732232,35.227036 4.53354261,35.7323723 C4.71986341,36.2377086 4.81242083,36.7905706 5.14184886,36.9549051 C5.38826665,37.0778302 5.41128039,37.0128584 5.48162804,37.0655978 C5.5520762,37.118237 5.71930263,37.0831442 5.81608091,37.2587085 C5.91285918,37.434373 5.83366782,37.6625765 5.5520762,37.6976693 C5.27038408,37.7328623 5.21772383,38.0139055 5.51690237,38.0752678 C5.81608091,38.1367303 6.20329451,38.1982931 6.20329451,38.3913035 C6.20329451,38.5846147 6.08008561,38.6372539 5.98330734,38.8215412 C5.88652906,39.0059288 5.97446363,39.1289541 6.0713424,39.2694256 C6.16812068,39.409897 6.01848117,39.9894295 5.9392898,40.1298007 C5.86009844,40.2703724 5.78975078,40.8058885 5.77206337,40.9113674 C5.75447646,41.0167461 5.67247119,41.248158 5.17079189,41.2042419 C4.6691126,41.1603258 4.61042255,41.1659406 4.60167935,41.6489178 C4.59283564,42.1317947 4.57514823,42.2899128 4.82166652,42.2986359 C5.06798382,42.3074592 5.20003642,42.4918468 5.10315765,42.5708557 C5.00647987,42.6498647 4.90960109,42.7376969 4.99763616,42.9045381 C5.08567123,43.0713793 4.97994875,43.2646905 4.87442726,43.2380199 C4.76106704,43.2096449 4.73734983,43.3038941 4.68066971,43.4163916 C4.58620286,43.6039877 4.45203983,43.8838277 4.23195216,44.0985956 C4.20079819,44.1290762 4.16321245,44.1567494 4.1284406,44.1875308 C4.02412508,44.2797747 3.92835177,44.3818446 3.94151683,44.4937405 C3.95920424,44.6430353 3.65992521,44.7922298 3.60716446,44.8537926 C3.55430322,44.9151549 3.4047642,45.0379797 3.48395557,45.2663837 C3.56314693,45.4946874 3.28145481,45.4683177 3.21995086,45.5825196 C3.15834641,45.6966214 3.05272443,45.5735961 2.94710244,45.9425718 C2.84158096,46.3112467 2.55104513,46.1093127 2.57747575,46.1532288 C2.60380587,46.1971449 1.91741373,46.1445057 2.29578363,46.3287931 C2.67425403,46.5131807 2.56863205,46.5395504 2.55988884,46.6098362 C2.55104513,46.6799216 2.35105679,46.739078 2.17317772,46.5470703 C1.99529864,46.3552631 1.62868685,46.4167256 1.87188875,46.6340001 C2.11509065,46.8512747 2.29296973,46.9238667 2.28925135,47.0578209 C2.28563347,47.1918754 2.2457363,47.5974478 2.25307255,47.6445725 C2.26030831,47.6915968 2.2457363,47.995701 2.03891419,48.0863407 C1.83199158,48.1768801 1.56537396,48.2605012 1.94384435,48.3395101 C2.32231475,48.4185191 2.44542315,48.5150744 2.35748858,48.6556461 C2.26945351,48.7961176 2.19026215,48.8751265 2.25186659,49.0419677 C2.31347104,49.2088089 2.20784906,49.4458356 2.03187942,49.4722054 C1.85580928,49.4984748 1.68858285,49.656593 1.96143127,49.6916858 C2.23427968,49.7267786 2.35748858,49.7091319 2.25186659,49.9199895 C2.14624461,50.1306465 2.1286577,50.2623949 2.36623179,50.1043771 C2.60380587,49.9463592 2.53345822,50.2799413 2.45426685,50.3677736 C2.37507549,50.4556058 2.32231475,50.5696073 2.35748858,50.6926326 C2.39266241,50.8155577 2.24302289,50.7804649 2.11107078,50.5785309 C1.97901818,50.3765969 1.64456532,50.6136237 1.8733962,50.789188 C2.10222708,50.9648525 2.09348387,50.8331041 2.19026215,50.9473061 C2.28704042,51.0614078 2.42783623,51.1404167 2.42783623,51.3072579 C2.42783623,51.4740991 2.55104513,51.6584867 2.70942786,51.7287726 C2.86791108,51.7989582 3.02629381,51.9921691 2.94710244,52.1852797 C2.86791108,52.3784906 2.7711328,52.475046 2.92951553,52.597971 C3.08789825,52.7207958 3.0175506,52.9051834 2.94710244,53.0545785 C2.87675479,53.2038733 2.58621896,53.4759928 2.71827156,53.721843 C2.85022367,53.9676931 2.85022367,54.1784504 2.71827156,54.4330236 C2.58621896,54.687697 2.39266241,54.8984543 2.54220143,55.3023223 C2.69184094,55.7061903 2.6390802,56.0310493 2.53345822,56.1890672 C2.42783623,56.347085 2.32231475,56.8388855 2.40150611,57.1725679 C2.48069747,57.50615 2.48944068,58.4895505 2.59506267,58.7355009 C2.70068465,58.9812507 2.79756342,59.3588492 2.91192861,59.4291351 C3.02629381,59.4993207 3.07905455,59.8329028 2.93825874,59.8943653 C2.79756342,59.9559281 2.92067182,60.2105013 2.93825874,60.3071569 C2.95594615,60.403612 2.73585848,60.7724874 3.0175506,60.7724874 C3.29914222,60.7724874 3.45752495,60.640739 3.41350741,60.9041355 C3.36948988,61.1676323 3.44878174,61.9050824 3.48395557,61.9664446 C3.51912939,62.0281077 3.76554719,63.4328223 3.79569618,63.5827187 C3.82976455,63.6967201 3.84755246,63.7884627 3.85609467,63.8308749 C3.89026354,64.0014259 3.82182531,64.2198033 3.69188314,64.4381808 C3.56184047,64.6565583 3.36356057,65.0728591 3.28145481,65.3389628 C3.19944954,65.6049662 3.15151264,65.7416276 3.09684246,65.9599048 C3.04217228,66.1783825 2.91906388,66.2124727 2.83012434,66.3216614 C2.7410843,66.4308501 2.62491017,66.737862 2.57697327,67.0040659 C2.52913686,67.2701696 2.44019732,67.5840998 2.25548447,67.7410147 C2.07087212,67.8979296 1.83832287,67.8911116 1.67411133,68.1300434 C1.5100003,68.368875 1.50316653,68.7373494 1.5100003,68.9761809 C1.51683407,69.2150125 1.50346802,69.453844 1.40377534,69.616073 C1.30408266,69.7784023 1.24107125,69.9617872 1.25684923,70.1450719 C1.2726272,70.3282563 1.28659624,70.5142481 1.16519628,70.6961291 C1.04369583,70.8779098 0.986513231,70.9063851 0.929330636,71.1702829 C0.87214804,71.4339802 0.79496661,71.6060352 0.600807075,71.8311304 C0.406647541,72.0562257 0.380317418,72.0668538 0.301628538,72.2763076 C0.222939659,72.4856612 0.186157883,72.5327859 0.133598134,72.5694829 C0.0811388806,72.6061799 0.0234538015,72.7160705 0.0444576021,72.9779631 C0.065360906,73.2397553 0.0496834281,73.2501829 0.102142681,73.5643136 C0.154702431,73.8785445 0.251983191,74.5535294 0.246757365,74.8601402 C0.241531539,75.1668513 0.205252248,75.4421793 0.127266845,75.6292741 C0.0493819381,75.8163688 -0.0545316015,75.9099162 0.0338049568,76.1177658 C0.122041019,76.3256155 0.23640621,76.3463704 0.319516943,76.4554588 C0.402627675,76.5646476 0.402627675,76.7050187 0.688440157,76.6790501 C0.974152143,76.6529811 1.0624887,76.5750751 1.26508995,76.7153461 C1.4677917,76.855617 1.66516713,76.8920132 1.84184025,76.8505035 C2.01851337,76.8089937 2.07047014,76.7620696 2.11720108,76.7308872 C2.16393202,76.699805 2.25226858,76.6581949 2.32502816,76.7101323 C2.39778774,76.7621699 2.46532149,76.7673837 2.54843222,76.7724972 C2.63154295,76.777711 2.66792274,76.7932521 2.79776442,76.8712583 C2.92770659,76.9491644 3.10960553,76.9700195 3.32778377,76.975133 C3.545962,76.9803468 3.63429856,76.9648057 3.74856325,76.9439506 C3.86292845,76.9231957 3.92533687,76.8400759 4.04995272,76.9180822 C4.17466906,76.9959882 4.2577798,77.0375982 4.37204449,76.9543781 C4.48640968,76.8712583 4.54349178,76.819321 4.67343396,76.7569561 C4.80337613,76.6945912 4.87603521,76.6530814 4.96437177,76.5594338 C5.05270833,76.4659867 5.08386229,76.2840054 5.19300165,76.2164267 C5.30214102,76.1489483 5.4319827,76.1437345 5.59307883,76.1956719 C5.75407447,76.2477095 5.91748203,76.3402542 6.10541077,76.2730765 C6.29333951,76.2057986 6.37835968,76.0643245 6.50247305,76.0254216 C6.62658642,75.9865188 6.74356452,76.0430683 6.8251678,75.9829092 C6.90667059,75.9228504 6.94566329,75.827398 6.97400335,75.6822141 C7.0024439,75.5372307 7.00957916,75.2683196 7.09108195,75.2153796 C7.17258473,75.1623393 7.28252807,75.1588301 7.32503816,75.2436544 C7.36754824,75.3285789 7.38895403,75.4275406 7.40664144,75.5054466 C7.42432885,75.5832524 7.43146411,75.6221553 7.50231425,75.5584869 C7.57326489,75.4947183 7.72722576,75.3175498 7.79566398,75.283961 C7.8642027,75.2503721 8.05172946,75.2336279 8.09785742,75.1832948 C8.14398539,75.1328614 8.245688,75.0065273 8.42175814,74.9929915 C8.59772778,74.979556 8.74666382,75.0092345 8.92534687,74.8606416 C9.10413041,74.7120486 9.21125984,74.6565017 9.26090519,74.5397931 C9.31055054,74.4230845 9.28924525,74.2567446 9.43114652,74.2355887 C9.5729473,74.2143325 9.62259265,74.239098 9.6899254,74.2603542 C9.75725816,74.2815101 9.89503907,74.3562076 10.0456836,74.3925036 C10.196328,74.4288999 10.3886786,74.366535 10.4717894,74.4185726 C10.5549001,74.4704096 10.6535878,74.4861513 10.7575014,74.3562076 C10.8614149,74.226264 10.9913571,73.9508357 11.1679297,74.0235279 C11.3446028,74.0963204 11.5003726,74.1094551 11.6519216,74.1136663 C11.7743265,74.1170753 11.8915056,74.0896026 11.9711994,74.0189157 C12.2162103,73.8016412 12.5337797,73.9102283 12.5337797,73.9102283 C12.5337797,73.9102283 12.824215,74.1185793 13.0874158,73.8378369 C13.3506165,73.5570945 13.5956273,73.7291495 13.5956273,73.7291495 C13.5956273,73.7291495 13.7589344,73.9012045 13.9041521,73.4213355 C14.0493697,72.9414666 14.3100581,72.7578811 14.4396987,72.7694116 C14.5367785,72.7780344 14.823194,72.7681081 14.9001744,72.5777046 C14.925801,72.5143371 14.8476147,72.4403414 14.8389719,72.3275431 C14.8039991,71.8762497 15.0749381,71.872941 15.1656866,71.872941 C15.256435,71.872941 15.7395225,71.7119152 15.8736855,71.5725466 C15.9053419,71.5398602 16.0549814,71.5427679 16.1493478,71.4925351 C16.2228109,71.4535319 16.2429102,71.3633936 16.2770791,71.3194774 C16.3956651,71.1669742 16.4609879,70.9240317 16.6631872,70.9402747 C16.9989465,70.9675468 17.2984265,70.9766709 17.4163091,70.9585229 C17.5343927,70.9402747 17.7432247,70.9008705 17.9972803,71.0129669 C18.2513358,71.1250633 18.4980551,70.9767712 18.531018,71.235756 C18.5437811,71.3360212 18.5710157,71.345045 18.6117168,71.359383 C18.7477893,71.3079469 18.8090922,71.0352258 18.8189409,70.926037 C18.8295936,70.8096292 18.8081878,70.4233076 18.8611495,70.3704679 C18.9142117,70.3174277 18.8678828,69.8813746 18.7829631,69.7861227 C18.7285944,69.7250612 18.6539254,69.597524 18.6744267,69.4511369 C18.6859838,69.3690197 18.7875859,69.3735317 18.8295936,69.3163805 C18.9463707,69.1575606 18.9937046,69.1107367 18.951295,68.8037249 C18.9397379,68.719803 18.9102924,68.6715754 18.8831583,68.6018912 C18.8559237,68.5319061 18.8310005,68.4695412 18.8310005,68.4421688 C18.8310005,68.4150972 18.8426581,68.3644633 18.9010467,68.3567429 C18.9592342,68.3489222 19.0020458,68.3683737 18.9975235,68.3682734 C19.0845536,68.3784002 19.1056579,68.3859201 19.2249474,68.4096829 C19.4372968,68.4519948 19.5438233,68.5060377 19.7242148,68.5119533 C19.8106419,68.5147608 20.0568587,68.5466451 20.1814745,68.5872525 C20.2259946,68.6016906 20.3238783,68.6306673 20.3473945,68.6645569 C20.3708102,68.6985468 20.3018695,68.7522889 20.3209639,68.7873817 C20.331516,68.8067328 20.3413647,68.826084 20.3503089,68.8449339 C20.4458812,69.046166 20.7664656,68.9768828 21.0929792,68.7510857 C21.4194928,68.5252886 21.1457399,69.1336974 21.1457399,69.1336974 C21.1457399,69.1336974 21.760277,69.1190587 21.834544,69.1190587 C21.9089115,69.1190587 22.0253871,69.1360035 22.0683997,69.0161867 C22.1114123,68.8963699 22.4430512,68.8092395 22.5826411,68.9096049 C22.7222309,69.0101708 23.1674311,69.0948948 23.3547569,69.0854699 C23.5422836,69.0761453 23.9029661,69.1745054 23.9562293,69.1745054 C24.0091911,69.1745054 24.6008149,69.06281 24.6751824,69.0262132 C24.70302,69.0125772 24.7649259,68.9827984 24.7647249,68.9192303 C24.7645239,68.8663906 24.7250287,68.7741467 24.715984,68.7135865 C24.7069393,68.6533272 24.7282446,68.6247516 24.762112,68.5975798 C24.8708494,68.5104494 25.1782686,68.5958753 25.1994734,68.8181631 C25.2166584,68.9989411 25.2942418,69.055992 25.5039783,69.1709961 C25.5524177,69.1974661 25.5334238,69.5267368 25.6010581,69.5663415 C25.6503014,69.5951176 25.7470797,69.2871031 25.8334063,69.3034463 C25.9445556,69.3246023 26.0919842,69.3308187 26.1568046,69.309763 C26.2721747,69.2723641 26.2521759,69.1050216 26.3442308,69.0298228 C26.4549781,68.9396844 26.5395963,68.846137 26.5752726,68.806432 C26.6707444,68.7005521 26.8608841,68.6518232 27.3279926,68.7683313 C27.795101,68.8847391 27.9067528,68.4686388 27.9810198,68.3733869 C28.0552868,68.2780348 28.2994937,68.2886629 28.3313511,68.2886629 C28.3532594,68.2886629 28.4781768,68.2966841 28.4907388,68.1353575 C28.4967686,68.0582536 28.4807897,67.8275435 28.4722474,67.7360014 C28.4606903,67.6122743 28.4785787,67.6250079 28.4827996,67.5619412 C28.4922463,67.4230739 28.560383,67.3776538 28.5967628,67.3776538 C28.6244999,67.3776538 28.9218695,67.3566984 29.1556247,67.4023191 C29.3694816,67.4442299 29.5160057,67.5474027 29.6478573,67.6637103 C29.9238211,67.907154 30.1361705,67.4517498 30.2210902,67.1870498 C30.2807852,67.0007572 30.4140438,66.7308434 30.5395641,66.5391365 C30.5924253,66.4582225 30.528208,66.2750381 30.5722255,66.2342302 C30.6092083,66.1999395 30.7807561,66.2696238 30.8435665,66.2356339 C30.8990406,66.2056546 30.9604441,66.1852006 31.0200386,66.1909157 C31.1637488,66.2048525 31.3058511,66.348733 31.4811173,66.4483965 C31.7388912,66.5949842 31.7416046,66.5713216 31.7186913,66.4254358 C31.7123601,66.3846279 31.6504541,66.3406115 31.6567854,66.2803522 C31.6611068,66.2361352 31.7253241,66.1894117 31.7486393,66.1238383 C31.7626084,66.0845344 31.7363788,66.024275 31.745323,65.9927918 C31.7595935,65.9423584 31.7800948,65.8999462 31.8105453,65.87869 C31.8661199,65.8399877 31.9781737,65.9391499 32.0410846,65.9200995 C32.1472091,65.8879144 32.2482082,65.8798932 32.2913213,65.8842046 C32.3975462,65.8948327 32.6501948,65.5801005 32.7669719,65.4953764 C32.8838495,65.4106524 33.0769036,65.5558363 33.3105583,65.4817404 C33.4162808,65.4481515 33.5838087,65.4587796 33.6768686,65.3388625 C33.7892239,65.1941799 33.8162575,64.9118333 33.7988716,64.8250037 C33.7670141,64.6661837 34.0324258,64.3801273 34.117446,64.2954033 C34.2023656,64.2106792 34.2978375,64.0730152 34.2234699,63.8823109 C34.1817638,63.7750272 34.1852812,63.593046 34.2565333,63.5813149 C34.312108,63.5721908 34.4358194,63.7234909 34.4358194,63.7234909 C34.4358194,63.7234909 34.7222348,63.856643 34.9452369,63.8671709 C35.1194981,63.8753926 35.0037259,63.4694191 34.8903657,63.2658808 C34.8586088,63.2089302 34.7977078,63.214144 34.7815278,63.2003074 C34.7072608,63.1367393 34.6588214,62.71723 34.6588214,62.71723 C34.6588214,62.71723 34.5650581,62.2671398 34.671283,62.235456 C34.7774075,62.203672 34.6333958,61.9298479 34.6333958,61.9298479 C34.6333958,61.9298479 34.6889704,61.7674184 34.6521887,61.6790848 C34.6355062,61.6389787 34.5134028,61.700341 34.5101869,61.6475012 C34.5045591,61.5574632 34.5279748,61.5390144 34.6366117,61.5008134 C34.6297779,61.5031195 34.6233461,61.5054255 34.6572135,61.4920903 C34.7981098,61.4501795 34.927248,61.440554 35.0515624,61.4355407 C35.316974,61.4250129 35.3806889,61.3189324 35.2746649,61.1707405 C35.16844,61.0224484 35.1062325,60.8206147 35.1062325,60.8206147 C35.1062325,60.8206147 35.2213012,60.4856288 35.2318534,60.1678886 C35.2400941,59.9196321 35.2467269,59.8701012 35.1764797,59.7174976 C35.1568828,59.6748849 35.1286433,59.6546314 35.0981928,59.584145 C35.048246,59.4682385 35.0199059,59.432143 35.062215,59.3986545 C35.1377885,59.3385957 35.3338575,59.3999579 35.4954561,59.4266285 C35.7477027,59.468439 35.6657979,59.3869235 35.6429852,59.1157063 C35.6371564,59.0459217 35.7171517,58.9800475 35.7122274,58.9474614 C35.7038861,58.8930174 35.5963547,58.9097617 35.5647988,58.9098619 C35.5255046,58.9100625 35.4745528,58.9295139 35.4281233,58.9110651 C35.3219988,58.868653 35.2895384,58.6919858 35.497466,58.6604023 C35.7054941,58.628919 35.5293234,58.2156261 35.5293234,58.2156261 C35.5293234,58.2156261 35.4837985,58.056004 35.4307362,57.8760281 C35.3892311,57.7354564 35.242506,57.5710216 35.361293,57.578742 C35.3945574,57.5809478 35.437168,57.6485265 35.5187713,57.6753976 C35.5923348,57.6996617 35.7197646,57.6918411 35.7796606,57.6523366 C35.8617664,57.5982937 35.8698061,57.4558169 35.8112166,57.4026764 C35.7324272,57.3313879 35.3915425,57.2805535 35.3265212,57.2018453 C35.1779871,57.0217691 35.3207929,57.1363722 35.5860036,57.0516482 C35.8514152,56.9668239 35.5187713,56.8809969 35.4338516,56.7962729 C35.3488315,56.7115488 35.391844,56.7124512 35.6148461,56.7336071 C35.8377477,56.7547631 35.752828,56.620107 35.5404786,56.5460111 C35.3281291,56.4718149 35.4161642,56.4294027 35.5860036,56.3870908 C35.7560439,56.3446787 35.7416729,55.927676 35.7416729,55.927676 C35.7416729,55.927676 35.514048,55.5716345 35.8302104,55.3796267 C35.9120147,55.3299955 35.9428672,55.2500842 35.9699008,55.1952391 C36.0278873,55.0770265 35.8765394,54.9896956 35.8765394,54.9896956 C35.8765394,54.9896956 35.9708052,54.831377 35.9279937,54.6901034 C35.8852826,54.5490303 35.8794538,54.536798 35.8772429,54.5362967 C35.8279995,54.3775769 35.8107141,54.2980667 35.7996594,54.2046196 C35.7785551,54.0246437 35.7012732,53.9479408 35.467719,53.8949006 C35.2341648,53.8420609 35.1088454,53.7669623 35.0664359,53.682138 C35.0239258,53.5974139 34.8518755,53.4502247 34.6820362,53.5031647 C34.5121968,53.5561047 34.3862745,53.4727844 34.3862745,53.3668041 C34.3862745,53.2608239 34.3210522,53.1853242 34.2680904,53.0265042 C34.2431673,52.9521075 34.0657907,53.0103615 34.0370486,52.912603 C34.0044877,52.8017098 34.1307115,52.5339016 34.2998474,52.4439638 C34.6183213,52.2744154 34.3236651,51.9160678 34.1537253,51.8737559 C33.9838859,51.8312435 33.8697217,51.7425089 33.9439887,51.5729605 C34.0183563,51.4035125 33.9601687,51.3105667 33.7371666,51.3000388 C33.514265,51.2894107 33.4505502,51.2576267 33.2807108,51.1411186 C33.1108715,51.0245102 33.5354698,50.7702378 33.7053092,50.5267941 C33.875249,50.2831498 33.0767026,50.6603473 33.1745864,50.2936776 C33.2723696,49.9271083 33.4358777,50.1027728 33.7646022,50.1227256 C33.8733396,50.1293431 33.981273,49.8128061 34.130008,49.7599663 C34.2190481,49.7282825 34.2783411,49.8979312 34.3747174,49.8535137 C34.5878708,49.7551536 34.8574028,49.5537209 35.0642249,49.4145529 C35.2284365,49.304161 35.2967742,49.1518583 35.287428,49.022817 C35.2701426,48.7844868 35.3122507,48.6076191 35.3190844,48.4718601 C35.3296366,48.2601001 35.5525382,47.9105759 35.7012732,48.3448242 C35.8499078,48.7790725 36.2466686,48.4205244 36.2963139,48.3425181 C36.3458588,48.2647123 36.2565172,47.6607151 36.1186358,47.5018952 C35.9979393,47.3629277 36.2013446,47.1348245 36.2963139,47.0505015 C36.4247486,46.9927488 36.3808316,46.8907792 36.339829,46.8324248 C36.2989268,46.7739703 36.2426487,46.5717355 36.2426487,46.5717355 L36.247171,46.4905207 C36.247171,46.4905207 36.2426487,46.4699664 36.2958114,46.3534583 C36.3488737,46.2368499 36.3085745,46.0777292 36.1068777,45.8446127 C36.0059791,45.7282049 36.1394386,45.5298805 36.1671757,45.3499045 C36.1950133,45.1698283 36.1791348,44.9976731 36.1895865,44.9128488 C36.2108917,44.743501 36.4971062,44.6683021 36.6351886,44.6365181 C36.7731705,44.604734 36.8614066,44.3416383 36.9448188,44.1930454 C37.0283315,44.0442519 37.1755591,43.7893779 37.2179687,43.6729701 C37.2604788,43.556462 37.3999682,43.0275634 37.3999682,42.8792713 C37.3999682,42.8421732 37.4138367,42.7879297 37.5292068,42.5730616 C37.6431701,42.3922835 37.6670883,42.3668162 37.6919109,42.3443568 C37.7412548,42.2995383 37.793513,42.2667516 37.8458718,42.2543187 C38.0687734,42.2012784 37.9732011,41.9471063 37.9732011,41.8941663 C37.9732011,41.8412263 38.0793255,41.6081099 38.0793255,41.6081099 C38.0793255,41.6081099 38.4509622,41.2269018 38.5040244,41.2162737 C38.5570866,41.2057459 38.8012935,40.8560211 38.7907413,40.6443614 C38.7799882,40.4325011 38.9711328,40.2100128 39.0455004,40.0829769 C39.1197674,39.9558407 39.4064843,39.4897081 39.491404,39.3944562 C39.5763237,39.299104 39.7143056,39.0343038 39.6399381,38.8542276 C39.565671,38.6742517 39.6824481,38.7059355 39.7356109,38.2505312 C39.7886731,37.7950267 39.4170365,37.8056548 39.3214642,37.7102024 C39.2259923,37.6149505 38.5556797,37.7601344 38.3858403,37.7496066 C38.2159005,37.7390788 38.1748978,37.4455024 38.4297574,37.3289944 C38.6845164,37.2124863 38.8012935,36.947686 38.769436,36.7464539 C38.7375786,36.5452218 38.3235324,36.4603975 38.0793255,36.3545175 C37.8352192,36.2486375 37.9732011,35.9095408 37.9625484,35.7613489 C37.9518958,35.6130568 37.8776287,35.2741606 37.7321096,35.1690828 C37.6805548,34.998632 37.5623707,35.1845236 37.5388545,34.9805843 C37.5152378,34.7767453 37.5317193,34.7640116 37.3881095,34.6317619 C37.2444998,34.4997127 37.2177677,34.440055 37.118879,34.3148238 C36.969943,34.1094808 37.090137,33.9402332 37.044612,33.721956 C37.0318489,33.6608946 36.8924601,33.4680847 36.8822094,33.4253718 C36.8292477,33.2028834 36.6029292,32.9670598 36.4754994,32.8187677 C36.3481702,32.6704756 36.4656508,32.647214 36.5717752,32.3188457 C36.638103,32.1137032 36.5110753,32.2112612 36.2632505,32.2367286 C36.1147165,32.2520691 35.8645803,32.1739626 35.7492101,32.1778729 C35.4412884,32.188501 35.5525382,32.0540455 35.5525382,31.9587936 C35.5525382,31.8992361 35.4799796,31.918487 35.4241034,31.834164 C35.3907386,31.7836304 35.4285253,31.595533 35.3092358,31.6112746 C35.2096436,31.6245096 35.1032176,31.7585641 35.0247297,31.7504427 C34.8520765,31.7322947 34.7564037,31.5457012 34.7564037,31.5457012 C34.7564037,31.5457012 34.6426415,31.365224 34.2393484,31.502888 C33.8359548,31.6406523 33.907408,31.2447053 33.7376691,31.1599813 C33.5677293,31.0752572 33.6734517,30.7195165 33.6734517,30.4971284 C33.6734517,30.2746401 33.8882131,30.200845 33.6758637,29.989085 C33.4636147,29.7772248 33.4612028,29.4484554 33.4612028,29.3531032 C33.4612028,29.2876301 33.6333536,29.1734281 33.7620898,29.0162124 C33.8207798,28.9448236 33.8054039,28.7997399 33.875249,28.7599347 C34.0981506,28.6327985 33.9295172,28.4503159 33.7808827,28.32328 C33.6322481,28.1961438 33.7159618,27.859654 33.7053092,27.7855581 C33.694757,27.7114621 33.7155598,27.3700593 33.7899274,27.2958631 C33.8641944,27.2217672 34.0891059,27.0992432 34.1527203,27.0463032 C34.2165357,26.9933632 34.1084013,26.5438746 34.191311,26.3744265 C34.2742207,26.2049784 34.6955027,26.2880982 34.9502617,26.2880982 C35.2050207,26.2880982 35.288031,25.6722698 35.2244166,25.5557617 C35.1606012,25.4392536 35.37687,25.4418605 35.5734415,25.5752131 C35.7701134,25.7084655 35.9348274,25.1162996 35.9136226,25.0315755 C35.8923174,24.9468515 36.2080778,24.8549084 36.3355076,24.8443805 C36.4151009,24.837763 36.4010314,24.5941188 36.428065,24.3735355 C36.4362052,24.3073605 36.535094,24.251212 36.5600171,24.1863404 C36.5850408,24.1213686 36.5358979,24.047373 36.5497665,24.0057629 C36.5914726,23.8807323 36.3046551,23.8163621 36.1462724,23.6905293 C36.0230635,23.5927708 36.0136168,23.4622256 35.9532183,23.4297397 C35.8152364,23.3556438 35.7543355,22.8601335 35.7861929,22.7330975 C35.8180503,22.6059614 35.7122274,22.262453 35.7188601,22.0721498 C35.7235835,21.9385966 35.9125172,21.9959483 36.1391371,21.835524 C36.2578237,21.7516021 36.2838523,21.5828559 36.3276689,21.5573885 C36.4549981,21.4831923 36.624938,21.4407802 36.7098576,21.1441959 C36.7947773,20.8477119 37.0586815,21.0688968 37.1753581,20.9418609 C37.2921352,20.8147247 37.3549457,20.7788298 37.5037812,20.5144306 C37.5364426,20.4562768 37.6772384,20.6567068 37.7812525,20.6214135 C37.9546092,20.5625579 38.1669586,20.1684156 38.2067553,20.0956231 C38.2704702,19.9792153 38.5570866,20.0744672 38.4933717,20.1804474 C38.4297574,20.2863274 38.7270265,20.5088157 38.7270265,20.5088157 C38.7270265,20.5088157 38.8543557,20.6040676 38.9711328,20.8688679 C39.0879099,21.1336681 39.3002594,21.12304 39.3002594,21.12304 C39.3002594,21.12304 39.4595466,20.8688679 39.6399381,20.9535919 C39.8205305,21.0383159 40.1177996,20.9006519 40.1602092,20.8477119 C40.2027193,20.7946716 40.3348724,20.6780633 40.4735578,20.6996203 C40.6122432,20.7211773 40.7465067,20.7500537 41.0810601,20.702929 C41.4155129,20.6558044 41.4872675,20.4769314 41.4872675,20.4769314 C41.4872675,20.4769314 41.3598378,20.0638391 41.4872675,19.7991391 C41.6146973,19.5343389 41.7102696,19.4283586 42.0818057,19.4388865 C42.2211946,19.4428971 42.2597853,19.3228797 42.3267161,19.2744516 C42.4381669,19.1935377 42.5089165,18.9778674 42.5023842,18.8919401 C42.4918321,18.7541758 42.2122504,18.6769717 42.0212063,18.6027755 C41.8300616,18.5287798 42.1465256,18.4954918 42.103111,18.1997096 C42.0531642,17.8604124 42.2920447,17.7993509 42.3277211,17.7632555 C42.4346495,17.6550694 42.5011783,17.4132299 42.5171572,17.3734246 C42.538362,17.3204846 42.5211771,16.8243727 42.510625,16.6654525 C42.5052986,16.5860425 42.5987605,16.4443679 42.6562446,16.25988 C42.7135277,16.0753922 42.7347325,15.8481914 42.7612636,15.7740954 C42.8143259,15.6258033 43.095214,15.4938544 43.1057661,15.2396823 C43.1083791,15.1777184 43.1981226,15.0098746 43.2335979,14.822479 C43.2495769,14.738156 43.2741985,14.6438065 43.2644504,14.5773308 C43.261335,14.5552724 43.2274676,14.5226863 43.2238497,14.5126597 C43.201439,14.4483898 42.9973303,14.7958085 42.9690907,14.7351481 C42.9239677,14.6379912 42.8762318,14.5485547 42.8403545,14.4770656 C42.7448827,14.2863613 42.7931211,14.1292459 42.3048078,14.1715578 C41.8773956,14.2086559 41.7124805,13.8102022 41.6265559,13.532568 C41.6143958,13.4929633 41.7367002,13.4556647 41.7208218,13.4225772 C41.593593,13.1577769 41.6487657,12.7889015 41.6621317,12.4754727 C41.6738898,12.1983399 41.7241382,12.1238429 41.7241382,12.1238429 L41.7241382,12.0184642 C41.6486652,11.9431651 41.6334902,11.8979455 41.5581177,11.762387 C41.5061609,11.6691405 41.5613336,11.5404 41.5976129,11.4732224 C41.594196,11.4774335 41.6350981,11.4263986 41.6810251,11.3956172 C41.7269521,11.3650363 41.6963006,11.3087876 41.6963006,11.3087876 C41.6963006,11.3087876 41.5585197,11.0941199 41.5278682,11.0584255 C41.4971162,11.0226309 41.5144016,10.9334951 41.4212412,10.962171 C41.3280808,10.9908468 41.1451769,10.9116373 40.9858897,11.0175173 C40.826703,11.1234976 40.5790793,11.1446535 40.5366697,11.0704573 C40.4941596,10.9963614 40.3833118,10.869927 40.3833118,10.869927 C40.3833118,10.869927 40.1886498,10.9362023 40.0268502,11.0360664 C39.972984,11.0693544 39.9495682,11.1466588 39.9024353,11.1727278 C39.8581163,11.1972927 39.7743021,11.0304515 39.7384248,11.0183195 C39.6169243,10.9772107 39.6627508,10.776881 39.6070757,10.776881 C39.5141162,10.776881 39.8882653,10.7162206 39.8832405,10.5818653 C39.8801251,10.5013524 39.7214408,10.376422 39.7214408,10.376422 C39.7214408,10.376422 39.4493964,10.6164568 39.3007619,10.6164568 C39.1521273,10.6164568 38.5253297,10.2979144 38.3978999,10.2556026 C38.350164,10.2397607 38.2355978,10.4552304 38.1666571,10.3820369 C38.0938975,10.304933 38.0399308,10.1050043 38.0102843,9.968744 C37.9804368,9.83238341 37.9541067,9.7587888 37.9505893,9.75146944 C37.8805431,9.60879215 37.7915031,9.42781358 37.3207768,9.37116378 C36.7050338,9.29706784 36.8762801,9.11448503 36.9930572,9.08270098 C37.1099348,9.0510172 37.3125361,8.96148043 37.3974557,8.87665612 C37.4823754,8.79193208 37.4438852,8.26955072 37.5074996,8.02590643 C37.5712144,7.78236242 37.5881984,8.02350007 37.7502995,7.98880833 C37.9125011,7.95421686 37.7910006,8.15935933 37.9501873,8.41353145 C38.109575,8.66770358 38.4443294,8.34454904 38.561006,8.07984908 C38.6777831,7.81494859 38.4732724,7.56959979 38.33519,7.26238741 C38.1972081,6.95517503 38.547037,6.84307861 38.547037,6.84307861 C38.547037,6.84307861 39.0455004,7.09905551 39.13042,6.97201958 C39.2153397,6.84488338 39.4383418,6.92960742 39.491404,6.8025715 C39.5444662,6.6754353 39.8562069,6.88649342 39.8880643,6.57928104 C39.9119825,6.34887175 40.0151926,6.31558372 40.2066387,6.31337789 C40.2705546,6.31267604 40.2167889,6.38506746 40.2963822,6.38506746 C40.4755677,6.38506746 40.7342461,6.18323374 40.9178535,6.12878977 C41.0606592,6.08637762 41.2394428,6.16027303 41.3091875,6.16027303 C41.4683742,6.16027303 41.7526792,6.1246789 41.8058419,6.06111081 C41.8589042,5.99754271 41.9852285,6.06391823 42.3332484,5.70867885 C42.6812683,5.35343947 42.7371444,5.02126107 42.7371444,4.90475298 C42.7371444,4.78814463 42.5914243,4.74773778 42.5277094,4.75826561 C42.4641955,4.76889372 42.2304403,4.89592965 42.1667254,4.73710967 C42.103111,4.57818943 41.9225185,4.53587754 41.8163941,4.63112942 C41.7102696,4.72648157 41.413101,4.83577057 41.3174282,4.71926248 C41.2218559,4.60275439 41.128394,4.67354157 40.8078097,4.66291347 C40.4873258,4.65238563 40.6666119,4.28170542 40.5771698,4.28160515 C40.4877278,4.28160515 40.391452,3.87914089 40.3725587,3.72022065 C40.3536653,3.56140067 40.2982916,3.41310853 40.3088438,3.36006828 C40.3137681,3.33530279 40.2620123,3.20576023 40.2785943,3.08223358 C40.2973872,2.94236372 40.3844173,2.80630392 40.3787895,2.76699999 C40.3681368,2.69280379 40.2557816,2.40684762 40.2769863,1.98312715 C40.2981911,1.55940668 40.0752896,1.57003478 39.8841449,1.53825074 C39.6931008,1.50646669 39.5405469,1.27294918 39.5405469,1.27294918 C39.5405469,1.27294918 39.6490833,1.03321524 39.4898966,0.895551206 C39.3306094,0.757786907 39.2181536,0.651405597 39.2181536,0.651405597 C39.2181536,0.651405597 39.2979479,0.575805684 39.2606637,0.450875323 C39.2383534,0.375877 39.0462038,0.20041301 39.026004,0.143863473 C39.0075126,0.0920263969 38.9881168,0.046104964 38.9532444,0 C38.5394997,-0.00452893022 38.3024281,0.371665864 38.2163025,0.608291588 C38.1300763,0.844817047 38.1084696,0.995315017 37.9792309,1.00604339 C37.8498917,1.01677176 38.1193232,1.89840311 38.1623358,1.9844306 C38.2055493,2.07045808 38.3563948,2.37145402 38.1300763,2.58652274 C37.9037579,2.8014912 37.5265939,2.81221957 37.3218823,2.78003446 C37.1171706,2.74774908 37.0043128,2.86776645 36.8979874,3.04453389 C36.7917624,3.22130133 36.6145868,3.42153081 36.3429444,3.48048671 C36.0714024,3.53934234 35.8943273,3.0916585 35.7643851,2.93845338 C35.6344429,2.78534851 35.4809846,2.95028466 35.4572673,3.20957031 C35.4338516,3.46865542 34.7723827,3.71610978 34.4653654,3.8457526 C34.1583481,3.97529516 33.8039969,4.31699875 33.6622966,4.59974643 C33.5205963,4.88249412 33.1191122,5.24776001 32.5049772,5.34200924 C31.8909426,5.43625847 31.7256256,5.42452745 31.3596168,5.34200924 C30.9935075,5.2595913 30.9816489,4.8353695 30.887182,4.61157772 C30.7927152,4.38768567 30.6155396,4.1520626 30.4384645,4.09310669 C30.2612889,4.03425106 29.8243294,4.25804285 29.3166203,4.41124797 C28.8088107,4.5644531 28.230151,4.8118072 27.7223414,4.98857463 C27.2145318,5.16524181 27.0728315,5.22419771 26.8012896,5.50694539 C26.5295466,5.78979335 26.7067222,6.36701974 26.4705551,6.72055461 C26.2342875,7.07398922 25.7149208,7.15640716 25.4667945,7.13284486 C25.2187688,7.10928255 24.7109592,6.69699231 24.4511754,6.48483128 C24.1913915,6.27277051 23.5419821,5.95462923 23.1758728,5.86038 C22.8097635,5.76613077 22.5779177,5.69955472 22.2513036,5.73204063 C21.9246895,5.76472706 21.6307368,5.94931518 21.608929,6.10141739 C21.5871212,6.2535196 21.2931685,6.56855267 21.1515687,6.74231215 C21.0100694,6.91607163 20.8249546,7.11158865 20.7269704,7.25286223 C20.6289861,7.39403554 20.3895026,7.99151549 20.2697106,8.1436177 C20.1499186,8.29571992 19.9572665,8.5065775 19.8811905,8.64564525 C19.8052151,8.78471299 19.3932793,9.53088614 19.3489603,9.64458681 C19.3045407,9.758488 18.9686809,10.2515919 18.9433558,10.4223435 C18.9179301,10.5929947 18.6708088,11.1051491 18.5440826,11.2632672 C18.4173563,11.421285 18.2436981,11.6854837 18.1196852,11.9161938 C17.9955718,12.1469038 17.9617045,12.7545106 17.916682,12.9514313 C17.871559,13.148352 17.8828146,13.4015215 17.7474456,13.5196338 C17.6121771,13.6378464 17.7644295,13.8629417 17.7700573,14.0935515 C17.7756851,14.3242616 17.6629279,14.2342235 17.5163033,14.1835896 C17.3696787,14.1329557 17.4090734,14.262398 17.1891867,14.2848574 C16.9691995,14.307417 16.7605685,14.2173789 16.5294261,14.2061492 C16.2981833,14.1949195 16.3828015,14.2904722 16.2812999,14.3298764 C16.1796978,14.3692806 15.8790118,14.3092218 15.6605321,14.2332208 C15.4420524,14.1572198 14.9034908,13.8682557 14.5934586,13.7770144 C14.2835269,13.6857732 13.411417,13.6294242 13.411417,13.6294242 C13.411417,13.6294242 13.1916308,13.6232077 13.0080234,13.7743073 C12.9621969,13.812007 12.9548607,13.8307565 12.945213,13.8486037 L12.9137576,13.9082615 C13.0009886,14.0002046 13.110329,14.1337578 13.0966615,14.2771369 C13.0775671,14.4765643 12.9062203,14.2961873 12.9062203,14.2961873 C12.9062203,14.2961873 12.7920561,14.0017086 12.8205972,14.3816132 C12.8491382,14.7615178 12.839591,14.8185687 12.8205972,14.8850445 C12.8015028,14.9515203 12.6873386,15.2078982 12.7920561,15.350375 C12.8966731,15.4928517 12.6492504,15.6353285 12.5636272,15.6828542 C12.5207151,15.7065167 12.4112743,15.7564488 12.3100742,15.835959 C12.2089745,15.9154693 12.1161156,16.0247583 12.1065684,16.167235 C12.0875746,16.4521886 12.2112859,16.6991416 11.8400513,16.7086668 C11.4687162,16.7180917 11.1451169,16.6136154 11.0879344,16.6325655 C11.0308523,16.6516159 10.1741183,16.3666624 9.95513607,16.8319929 C9.73615387,17.2974237 9.70459792,17.1681819 9.68932243,17.2408741 C9.67394644,17.3136666 9.60872411,17.3098565 9.63555672,17.3595881 C9.66238932,17.4093196 9.81202884,17.4438108 9.92709751,17.2867956 C10.0421662,17.1299809 10.1993429,17.3021361 10.1686915,17.3786384 C10.13804,17.455241 9.98840047,17.654167 10.1111069,17.6924683 C10.2339138,17.7307696 10.3105927,17.6273962 10.3412442,17.5317433 C10.3719962,17.4360904 10.6955954,17.5274319 10.5488703,17.6910646 C10.4021452,17.854597 10.3417467,18.0181295 10.466865,18.0569321 C10.5919834,18.0956344 10.9049299,18.0921251 10.9529673,18.1401521 C11.0011052,18.1880789 11.0438163,18.3320596 10.8194073,18.4013428 C10.5950988,18.470626 10.6538893,18.7104602 10.6592156,18.7903716 C10.6645419,18.8702829 10.6698683,18.9929071 10.4294803,19.2113849 C10.3994318,19.2387573 10.3728002,19.2694384 10.3492839,19.3021248 C10.1840674,19.5316317 10.1773342,19.8656149 10.1773342,19.8935889 C10.1773342,19.9086286 10.2059757,20.1285101 10.168792,20.2962537 C10.1423613,20.4149676 10.0286996,20.479037 9.97322547,20.5692756 C9.93996108,20.6233185 9.97473292,20.6124899 9.94106654,20.7049344 C9.92960992,20.7366181 9.91312847,20.8225454 9.86016674,20.9307314 C9.7591676,21.1374782 9.57867561,21.4132073 9.32994639,21.5049499 C9.24020288,21.5496681 8.1463973,21.6189513 8.27020918,22.1982833 Z" id="Fill-1"></path>
            </g>
        </g>
    </g>
</svg>