<?xml version="1.0" encoding="UTF-8"?>
<svg width="120px" height="120px" viewBox="0 0 120 120" version="1.1" xmlns="http://www.w3.org/2000/svg" xmlns:xlink="http://www.w3.org/1999/xlink">
    <title>jdo_cn_ximalaya_radio_province_sichuan</title>
    <g id="jdo_cn_ximalaya_radio_province_sichuan" stroke="none" stroke-width="1" fill="none" fill-rule="evenodd">
        <g id="编组">
            <rect id="矩形" x="0" y="0" width="120" height="120"></rect>
            <g id="四川" transform="translate(30.000000, 32.000000)" fill="#FFFFFF" fill-opacity="0.189284" fill-rule="nonzero">
                <path d="M19.2756084,46.016992 C19.3093595,46.0765926 19.3233566,46.1098922 19.3674926,46.1574146 C19.6029603,46.4110559 19.533652,46.3753859 19.606008,46.6652616 C19.6263264,46.7467609 19.7097447,46.8090707 19.7097447,46.8534325 C19.7097447,46.9277075 19.6075883,47.0493921 19.6811861,47.1549349 C19.7008272,47.183042 19.8447491,47.1691578 19.8668736,47.2059566 C19.889111,47.2426426 19.9208302,47.4038352 19.9456638,47.4376992 C20.144897,47.7094013 20.3469521,47.9369673 20.3287784,48.0456707 C20.3106047,48.154487 20.4022633,48.4279951 20.4384977,48.5547593 C20.4747322,48.6817493 20.4022633,48.9717379 20.692139,49.0079724 C20.9821276,49.044094 21.2358818,48.9535642 21.217821,49.1892576 C21.1996473,49.4247252 21.0545966,49.9866417 21.0545966,49.9866417 C21.0545966,49.9866417 20.987433,50.2929979 21.3791265,50.498778 C21.7709328,50.7045582 21.7153959,50.8021994 21.7334567,50.9472501 C21.7515175,51.092188 21.8918273,51.1302286 22.0549388,51.2025846 C22.1109273,51.2275311 22.2233557,51.2375774 22.309596,51.2831809 C22.4740621,51.3703242 22.6408987,51.538854 22.5618827,51.7160756 C22.4415527,51.9861973 22.2111647,52.0428631 22.464806,52.1878009 C22.5405484,52.231034 22.5220361,52.3302555 22.6062446,52.3597171 C22.7334603,52.4043047 22.9261464,52.3554277 22.9822477,52.3076795 C23.0132897,52.2810398 22.8943142,52.0513291 22.9214054,52.0152075 C23.0301088,51.8702696 23.3942596,51.9274997 23.2493217,52.2356621 C23.1859961,52.3703278 22.957527,52.497092 22.9268237,52.561095 C22.8996196,52.6177607 23.0842912,52.6293874 23.0611508,52.7195785 C23.050653,52.7606668 23.039365,52.8095438 23.0267224,52.8700474 C23.0149829,52.9255844 23.0188208,53.1317032 22.946239,53.192997 C22.8735443,53.2542908 22.6913561,53.1872401 22.6354805,53.2540651 C22.5638017,53.3398539 22.5812981,53.4351245 22.5833299,53.5188815 C22.5881838,53.7084069 22.9656544,53.8866444 23.084517,53.9375533 C23.3381583,54.0462567 23.4469745,54.0824911 23.5920253,54.2637764 C23.6643813,54.3543061 23.9186999,54.4989053 24.0208563,54.7076204 C24.1157883,54.9018868 24.1752761,55.131146 24.1391545,55.230819 C24.1030329,55.3303791 23.9860892,55.2527177 23.8782889,55.2730361 C23.7706014,55.2932416 23.7046795,55.386932 23.7046795,55.386932 C23.7046795,55.386932 23.7913713,55.8042492 24.008891,55.8042492 C24.2262978,55.8042492 24.5671953,55.7840437 24.7017482,56.0416358 C24.8017599,56.2329673 24.8901449,56.25306 24.9933172,56.3142409 C25.0552883,56.3510398 24.9171232,56.4124465 24.9477137,56.4704668 C24.9594532,56.492817 24.9559539,56.5211499 24.9693866,56.547338 C24.988802,56.5854915 25.0022347,56.6036651 25.0397108,56.6297404 L25.0848628,56.6598793 C25.1139858,56.6801977 25.1207586,56.6821167 25.1477369,56.6861804 C25.1748281,56.6899054 25.2243824,56.7528924 25.2176096,56.8346175 L25.2668253,56.9217609 C25.2668253,56.9217609 25.4116503,57.0092428 25.4305013,56.9991965 C25.4492393,56.9892631 25.5276909,56.8148635 25.5486866,56.8023339 C25.5522987,56.8000763 25.5559109,56.7979315 25.5595231,56.7956739 C25.7809935,56.6610081 25.8244523,56.7158678 25.9606984,56.7712919 C26.0809156,56.820056 26.3043051,56.8639663 26.3467479,56.8555003 C26.4372777,56.8373266 26.9810204,56.9278564 26.9810204,56.9278564 L27.0635357,56.927292 C27.109365,56.8351819 27.1549685,56.7474742 27.1748353,56.7195928 C27.3435909,56.484351 27.7621498,55.9339483 28.0592499,55.8176819 C28.4396553,55.6689061 28.423062,55.5200175 28.5720635,55.4538698 C28.7209522,55.3877222 28.6216178,55.255314 29.1178382,55.255314 C29.6141714,55.255314 29.6967995,55.1230186 29.8126143,55.0236843 C29.9284292,54.9244628 30.2757608,54.9906104 30.2591675,55.1890534 C30.242687,55.3877222 30.0607245,56.1318269 30.4907972,55.9334968 C30.9208698,55.7349409 30.7553878,55.5529784 31.0366847,55.4042026 C31.3178686,55.255314 31.6652003,54.9079823 31.8967171,55.0402776 C32.1283468,55.1724601 32.2772355,55.2387206 32.2772355,54.9410561 C32.2772355,54.6432788 32.1944944,54.3951686 32.4426046,54.1470585 C32.6907148,53.8988354 32.6576409,53.7500596 32.5418261,53.4358018 C32.4260112,53.1214311 32.5252327,52.674878 32.5252327,52.674878 L32.3930503,52.0960295 C32.3930503,52.0960295 32.2275683,51.6823245 32.0786796,51.550142 C31.9297909,51.4178467 31.6982741,50.8719592 31.7810151,50.7560315 C31.8636433,50.6403295 31.6816808,50.375626 31.6816808,50.2764045 C31.6816808,50.177183 31.7157705,49.5363635 31.7819182,49.3873619 C31.8108154,49.3223431 31.6698284,48.9969101 31.6637329,48.7331097 C31.656057,48.3940182 31.8813654,48.1124956 31.9463843,48.0103392 C32.0620862,47.8284896 32.063215,47.6706834 32.261658,47.8527588 C32.460101,48.0346084 32.7237886,47.7291553 32.8727901,47.7125619 C33.0215659,47.6960814 33.3688976,47.5637861 33.4350452,47.3321564 C33.5011929,47.1006396 33.6004144,46.6871603 33.8485245,46.4886045 C34.0967476,46.2900486 34.8080042,45.3968295 35.0064472,45.297608 C35.2048902,45.1983865 35.5688152,44.7353529 35.5854086,44.4705365 C35.6020019,44.205833 35.7838515,44.0404638 35.7838515,44.0404638 C35.7838515,44.0404638 36.0651484,44.00739 35.6681496,43.726206 C35.2712636,43.445022 35.2380769,43.2631724 35.2380769,43.2631724 C35.2380769,43.2631724 35.0064472,42.7834325 35.2545574,42.7006915 C35.5026675,42.6180634 35.68463,42.4361009 35.8004449,42.3533599 C35.9162597,42.2707317 36.246998,41.7248442 36.5778492,42.0391021 C36.9087004,42.3533599 36.9416613,42.1217302 37.0574762,42.0886564 C37.173291,42.0555825 37.4710683,41.7743985 37.619957,41.6255099 C37.7688457,41.4766212 37.8349933,41.4932145 37.6364375,40.9142532 C37.555051,40.6768666 37.4637311,40.3893614 37.2764633,40.1025334 C37.1491347,39.9075897 37.4069525,39.7954999 37.5220901,39.5870106 C37.6373405,39.3786342 37.6096849,39.0738583 37.6973927,39.0349147 C37.7902929,38.9936006 37.7791178,39.2492737 37.8538443,39.33653 C37.8987705,39.3889063 38.0218097,39.2625936 38.0847967,39.3058266 C38.2531007,39.4209642 38.4086493,39.3558324 38.4086493,39.3558324 C38.4924063,39.3654272 39.3710639,39.4244635 39.5612666,39.3451088 C39.8497878,39.2247788 40.317901,39.2265849 40.4619359,39.394776 C40.506975,39.4472652 40.704402,39.2256818 40.8236033,39.2277137 C40.9057799,39.2291811 40.9960839,39.275349 41.0816469,39.3095516 L41.0790506,39.3516559 C40.8842198,39.5075431 40.767389,39.6439021 40.3972556,39.9166201 C40.0271222,40.1893381 40.2024248,40.5594715 40.3192556,40.9100767 C40.3544741,41.0153937 40.336752,41.1209364 40.2920515,41.2206094 C40.2698142,41.2705024 40.2666535,41.2566181 40.3018721,41.3026732 C40.3018721,41.3026732 40.3181268,41.3109134 40.3585378,41.3918483 C40.3990617,41.4727833 40.4845119,41.4663491 40.4845119,41.4663491 C40.4845119,41.4663491 40.7349925,41.2965776 40.8916699,41.4248093 C41.0484602,41.5530409 40.9463038,41.7265374 41.016628,41.7902017 C41.1339103,41.8960831 41.2500638,41.771125 41.2885558,41.79562 C41.4027904,41.8680889 41.2858467,42.129406 41.1891086,42.2331427 C41.1067062,42.3214148 41.0544428,42.3676956 41.0544428,42.3676956 C41.0544428,42.3676956 41.106932,42.4301182 41.1546802,42.4993137 C41.1917048,42.5531574 41.3799886,42.4573223 41.3845038,42.4935568 C41.3886804,42.527195 41.3080841,42.7753052 41.2136035,42.8973284 C41.0755513,43.0755659 41.0555716,43.0816614 40.9908914,43.0683416 C40.9507061,43.0602142 40.8599506,43.2989553 40.8540809,43.2997455 C40.6951459,43.3228859 40.5017825,43.3184836 40.4848505,43.3384633 C40.4680314,43.3579915 40.4657738,43.38576 40.4948968,43.4245907 C40.5881357,43.5488716 40.7494411,43.5273115 40.8219101,43.6930193 C40.8944919,43.8588399 41.0440578,43.9945217 41.1062547,44.0463336 C41.1684516,44.0981455 41.3752476,44.2320211 41.4478295,44.3147621 C41.5202984,44.397616 41.6969555,44.4400589 41.8108514,44.4814858 C41.8819658,44.5074482 41.9614333,44.6993442 42.0710397,44.7277899 C42.1368488,44.7448348 42.1755666,44.6420011 42.2492772,44.6382761 C42.2934133,44.6361314 42.3633989,44.6862501 42.4369966,44.6554338 C42.5379113,44.6132167 42.6525973,44.4826146 42.7809418,44.4405104 C42.9771272,44.3761688 43.0698017,44.3328229 43.0698017,44.3328229 C43.0698017,44.3328229 43.0965542,44.4578939 43.2052576,44.4612803 C43.3142997,44.4647796 43.46443,44.3143106 43.5007774,44.3143106 C43.5732463,44.3143106 43.8684274,44.3837318 43.9511684,44.1971412 C44.0340223,44.0108893 44.2116954,44.0353842 44.3152063,43.7867096 C44.3571976,43.685795 44.4735769,43.6396271 44.5240342,43.5690771 C44.5977449,43.4657919 44.5886016,43.2507556 44.6255133,43.2199394 C44.6877102,43.1682403 44.983117,42.9760057 45.0867409,43.0069349 C45.1904775,43.0379768 45.8980092,43.1352794 45.8571466,43.3074213 C45.8163969,43.4795633 45.7817428,43.697986 45.8853666,43.697986 C45.9371785,43.697986 46.1277199,43.5778817 46.248953,43.6207761 C46.3699603,43.6637834 46.4217722,43.8702408 46.3907302,44.0049066 C46.3286462,44.2743511 46.1523277,44.3156652 46.1523277,44.3156652 C46.1523277,44.3156652 46.0571699,44.5620821 46.1919486,44.7487856 C46.3266144,44.9351504 46.4195146,44.8357032 46.4195146,45.0120217 C46.4195146,45.1439783 46.4312541,45.3338424 46.4476217,45.454624 L46.4768576,45.471556 C46.5563251,45.4672665 46.6450488,45.4408526 46.7571386,45.3909597 C46.9067045,45.3244734 47.1365281,45.2608091 47.3485167,45.2358626 C47.5602795,45.2109162 47.7543202,45.2248004 47.8317558,45.3134112 C47.9868529,45.4906327 48.4852179,46.0445347 48.7732876,45.8562509 C49.0614701,45.6678542 49.3603763,45.4241464 49.5377107,45.4353215 C49.7150451,45.4462709 50.213523,45.3134112 50.357445,45.3576601 C50.3933408,45.3687223 50.4612946,45.3778656 50.5447129,45.3823808 C50.7949677,45.3964908 51.1855324,45.3715443 51.2769652,45.2469249 C51.3986498,45.0807656 51.5871593,45.1250145 51.8528788,45.1250145 C52.0418398,45.1250145 52.3708849,45.085958 52.5851311,44.9716106 C52.6469893,44.9386497 52.6788215,44.9406815 52.6509401,44.875324 C52.6509401,44.875324 52.7442918,44.5934627 52.7254409,44.3644293 C52.7191196,44.2883482 52.5850182,44.2645305 52.5846796,44.186079 C52.5837765,44.0099862 52.6525204,43.8528573 52.6419097,43.7924665 C52.6291543,43.7198847 52.4896346,43.6239367 52.4184074,43.5020264 C52.4020398,43.4738064 52.3528241,43.3810191 52.3364565,43.3542665 C52.3200889,43.327514 52.3235882,43.2631724 52.299319,43.1578554 C52.2749369,43.0525384 52.2506677,43.004 52.2021294,42.9877453 C52.1534781,42.9716034 52.1129542,42.8743009 52.1129542,42.8743009 C52.1208558,42.8007032 52.1156633,42.8232792 52.0532407,42.7903182 C51.7497065,42.6300287 51.7919236,42.3723237 51.3765253,42.4554034 C51.3271968,42.4653368 51.321327,42.4672558 51.2802387,42.4986364 C51.2431012,42.5913108 50.963046,42.7126568 50.963046,42.7126568 C50.963046,42.7126568 50.9571762,42.8421301 50.8928347,42.8745267 C50.8284931,42.9069232 50.7057926,42.8421301 50.6666232,42.8421301 C50.5882845,42.8421301 50.3575579,42.6790186 50.2680441,42.6901937 C50.2178125,42.696515 50.1359745,42.8080404 50.0417197,42.7924629 C49.9685735,42.7803848 49.874996,42.6495569 49.8651755,42.6006799 C49.8428252,42.4887029 49.9955518,42.1981499 50.006727,42.097461 C50.0179021,41.9969978 49.9044577,41.933785 49.7814185,41.833209 C49.6582665,41.7324072 49.4722403,41.5436719 49.4498901,41.4430958 C49.4275399,41.342294 49.353152,41.3936544 49.2523502,41.5055185 C49.2145354,41.547284 49.1431952,41.7202162 49.0767089,41.7689803 C48.9659737,41.8502539 48.7586132,41.6759672 48.6118692,41.5711017 C48.3768532,41.4032492 48.4662541,41.2577469 48.4887172,41.1682331 C48.5110674,41.0787193 48.4856694,40.835463 48.4375826,40.6984267 C48.3893828,40.5612776 48.3561961,40.2908172 48.4116202,40.1611181 C48.4427751,40.0884234 48.6234959,40.0027475 48.6671804,39.9363741 C48.7075914,39.8923509 48.7056725,39.9107503 48.6844511,39.8595028 C48.6470878,39.7695375 48.6720343,39.6481915 48.833114,39.4421856 L48.8997131,39.4608108 C48.9563789,39.5123969 49.0744513,39.5196213 49.147146,39.5169121 C49.4327323,39.5060757 49.7735169,39.5868977 49.874093,39.5646604 C49.9175518,39.5549527 50.0325765,39.5146545 50.0419455,39.411708 C50.0492827,39.3315632 49.9509642,39.1976876 49.9733145,39.1141564 C50.0041307,38.9994704 50.1321366,38.993262 50.1681453,38.9004747 C50.2026866,38.8116381 50.2874594,38.7293486 50.3275318,38.661282 C50.3989848,38.5399361 50.4188517,38.4147522 50.531393,38.4244599 C50.7071471,38.4396986 50.6389676,38.713997 50.8938506,38.7810477 C51.1487335,38.8480984 51.2621779,39.2859597 51.482181,39.2585299 C51.7022969,39.2311001 51.8056949,39.6024752 51.8056949,39.6024752 C51.8056949,39.6024752 52.2976258,39.7251757 52.5588301,40.1102092 C52.7711573,40.4229996 52.995224,40.2462296 52.976373,40.0903424 C52.9720836,40.0545594 52.86259,39.9888633 52.8420459,39.9658358 C52.7321008,39.8420064 52.7238606,39.5051726 52.6827723,39.3539135 C52.6413453,39.2025414 52.5587172,38.8116381 52.5174031,38.7291229 C52.4762019,38.6464947 52.3514696,38.5528044 52.2828385,38.3189171 C52.2139818,38.0851427 52.1774087,37.7373595 52.0470323,37.5359817 C51.9167688,37.3346038 51.6919119,37.3120278 51.6093967,37.3257992 C51.5268814,37.3395705 51.1704065,37.4067341 50.9916046,37.3379902 C50.8631472,37.2886617 50.9732052,37.2082911 50.8571646,37.087058 C50.8117869,37.0397613 50.6703483,37.0271188 50.6279054,36.946071 C50.5239429,36.7475151 50.2546114,37.2725198 50.0572972,37.4098947 C49.9676705,37.4722045 49.9343709,37.1383055 49.8527587,37.1940682 C49.7387499,37.2721812 49.6875024,37.1762332 49.5719133,37.139773 C49.4234762,37.0928149 49.2397076,36.8862446 49.1559507,36.6137524 C49.0834817,36.3779461 49.1602401,36.2790633 49.0571807,36.14293 C48.9475743,35.9979922 48.983583,35.7862293 48.9482515,35.7012307 C48.8793948,35.5362002 48.8074902,35.1542144 48.7837854,34.8905268 C48.7599678,34.6269521 48.6907723,34.8097048 48.4432266,34.9197627 C48.1957937,35.0298207 48.1579789,34.8842056 48.1579789,34.8842056 C48.1579789,34.8842056 48.0131539,34.8195253 47.6062216,34.8516961 C47.1992894,34.8839798 47.1962416,34.5241185 47.1962416,34.5241185 C47.1962416,34.5241185 46.9691271,34.5583211 46.9535497,34.3606683 C46.9454223,34.2570445 47.0742184,34.1025118 47.0419347,33.9959531 C47.0111185,33.8943612 46.8924816,33.7957041 46.826334,33.7225578 C46.7867131,33.6786475 46.7866002,33.6489601 46.7777956,33.618934 C46.7325307,33.4645142 46.6179576,33.6131772 46.5237028,33.6548299 C46.4752773,33.6761642 46.4000992,33.6023407 46.4000992,33.6023407 C46.4000992,33.6023407 46.295911,33.2878571 46.2271671,32.9991102 C46.2251353,32.9901926 46.1828053,32.8434487 46.1813379,32.8346441 C46.1799833,32.8257265 46.3932136,32.6360882 46.454846,32.471735 L46.5003366,32.3725135 C46.5936884,32.3153962 46.649564,32.2489099 46.6797029,32.1798274 C46.7119866,32.1060039 46.7016016,32.1205654 46.7803918,32.0883946 C46.7902124,32.0468548 46.8652776,31.9975262 46.9296191,32.0001225 C47.0371937,32.0044119 47.1589912,32.0807188 47.2196078,32.0491124 C47.3295529,31.9915436 47.1931939,31.7691701 47.3385832,31.7206317 C47.4181636,31.693992 47.3636426,31.8393814 47.4494314,31.856652 C47.595498,31.8857751 47.620896,31.8467186 47.7194402,31.7369993 C47.8063578,31.6401483 47.8848094,31.2197833 47.9104331,31.1297051 C47.9655186,30.9371319 48.2083234,30.9032679 48.4696405,30.8207526 C48.6002426,30.7795514 48.7002543,30.880579 48.738069,30.8239133 C48.8081675,30.7185963 48.6704539,30.4554731 48.6499098,30.3660721 C48.6085957,30.1872703 48.7796089,30.039849 48.836839,29.7768387 C48.8940691,29.5138284 48.3092381,29.3004853 48.2542655,29.2044244 C48.2269486,29.1564504 47.9538919,29.0589221 47.8415764,28.9163548 C47.8022941,28.8665747 47.9603261,28.7613706 47.9108847,28.7197179 C47.8176458,28.6408148 47.5582477,28.8595761 47.5671652,28.5918249 C47.5712289,28.4704789 47.9490381,28.5489305 48.0763667,28.4931678 C48.2038082,28.4376308 48.2328183,28.3728377 48.3025781,28.3252024 C48.3348618,28.3030779 47.9818862,28.1752978 48.0204911,28.1728144 C48.0958949,28.1678477 48.0110092,27.9464901 48.1377734,27.914658 C48.3007721,27.8736825 48.6497969,28.0653527 48.7372789,27.930574 C48.7963151,27.8397057 48.6118692,27.8000848 48.618642,27.7731065 C48.6508128,27.6441976 48.6432499,27.5562641 48.7670792,27.3752046 C48.8018462,27.3244086 48.7871718,27.2291379 48.8595279,27.16886 C48.9934035,27.0572218 49.0710649,26.8054994 49.1828161,26.7768279 C49.3463792,26.7350623 49.4952678,26.9812535 49.4952678,26.9812535 C49.4952678,26.9812535 49.8642724,27.1494447 50.1781916,27.1188542 C50.4919979,27.0881509 50.8384265,27.4271294 51.0873268,27.498921 C51.3362272,27.5709385 51.4175007,27.6501802 51.5136745,28.0765278 C51.6099611,28.5029883 51.80942,28.4429362 51.9332493,28.3877379 C51.9873188,28.3638073 52.0834925,28.2211271 52.1743609,28.147868 C52.2914174,28.0537261 52.446063,28.0187333 52.5078083,28.0032687 C52.5970964,27.9811443 52.7032035,28.1014743 52.8768129,27.9891587 C52.9168853,27.9633092 52.8395625,27.8214191 52.8885524,27.7903771 C52.9823557,27.731228 53.0485033,27.5452018 53.2543964,27.623089 C53.3231403,27.6491643 53.7463273,27.535607 53.8234243,27.5858386 C53.9437543,27.6641773 54.0656647,27.7542555 54.1282002,27.8905016 C54.1664665,27.9739199 54.0552797,28.0827362 54.0778557,28.1748463 C54.120863,28.3501489 54.2872481,28.5075035 54.3561048,28.6119175 C54.6713786,29.0890611 54.6178735,29.2055532 54.7141601,29.3843551 C54.8103338,29.5631569 55.6332287,29.4243146 55.6332287,29.4243146 L55.9770611,29.3944014 C56.1366734,29.3804043 56.1409628,29.0956081 56.2129802,29.0396197 C56.2562133,29.0058686 56.3378255,29.1293592 56.3660455,29.172818 C56.4259847,29.265041 56.4240658,29.3173044 56.5300601,29.3338977 C56.7911514,29.374986 57.4273429,28.3241865 57.4273429,28.3241865 L57.8025559,27.8479459 L58.0371204,27.2684202 L58.3341076,26.8575371 C58.3341076,26.8575371 58.3065649,26.6634964 58.406125,26.5063675 C58.6606694,26.1045149 59.1231386,25.3712466 59.1927855,25.2371452 C59.2291329,25.1671596 59.3714745,25.086902 59.302392,25.0000973 C59.1870286,24.8548208 58.9447882,24.6184501 58.8722064,24.5411274 C58.7557143,24.4174109 59.1495525,24.1365656 59.2215699,23.983839 C59.293926,23.8309995 59.3570259,23.4306143 59.7147425,23.6002729 C59.8453446,23.6623568 59.9301174,23.8293063 60.0365632,23.7965711 C60.1843231,23.7511934 60.3222624,23.4514971 60.4339007,23.3512597 C60.7089892,23.1047298 60.5914811,23.4733958 60.9352006,23.7896854 C61.0642224,23.9082094 61.2544252,23.9859837 61.397557,23.909564 C61.6361852,23.7822354 61.8148742,23.3964116 61.8792158,23.3019311 C61.9035978,23.2662611 62.1126515,23.1781018 62.0921074,23.1010048 C62.072692,23.027407 61.9076615,23.0691726 61.8341767,22.9900438 C61.7606918,22.9110278 61.7787526,22.7108916 61.8011028,22.6398901 C61.8320319,22.5413459 62.0617427,22.6090739 62.1041855,22.5618901 C62.1687529,22.4899855 62.431989,22.2835281 62.4424868,22.1882574 C62.4529846,22.0928738 62.2634592,22.1629723 62.2356907,22.0692819 C62.1804924,21.8816754 62.4489209,21.3966302 62.5314362,21.3004565 C62.5649616,21.2611743 62.5581888,21.1039325 62.4835751,21.0202884 C62.4495982,20.9822479 62.2999194,21.088355 62.2693289,21.0499758 C62.202504,20.9658803 62.1628831,20.8875416 62.2354649,20.8439699 C62.4023015,20.7435067 63.0069995,20.4176223 63.0929011,20.2479637 C63.1642413,20.1072024 62.9897289,19.998499 63.0030487,19.9487189 C63.0173844,19.8951009 63.1821892,19.8502876 63.263237,19.7332311 C63.3001488,19.6800646 63.2693325,19.5671846 63.2921343,19.5117606 C63.3252081,19.4309385 63.157017,19.3722409 63.149454,19.2869037 C63.1272166,19.0387935 63.2520619,19.0661105 63.3621199,19.0386807 C63.4722907,19.0110251 63.8435529,19.0638529 63.9121839,19.0088803 C63.9659148,18.9658731 64.1746298,18.7578353 64.2633535,18.6689988 C64.3235185,18.6087209 64.2960887,18.6256529 64.300491,18.5326398 C64.3038774,18.4605095 64.3214867,18.3615137 64.3840222,18.2854327 C64.4952089,18.1502025 64.6271656,18.1602488 64.7096809,18.1258204 C64.8747114,18.0570765 65.1290299,17.8797421 65.1393088,17.7171949 C65.1500256,17.5304915 64.9524857,17.5781268 65.0229228,17.3291136 C65.0752991,17.144442 64.8586824,17.1489572 64.7416259,17.0703927 C64.6506446,17.0092118 64.6347286,16.8778195 64.6015419,16.8637095 C64.5629369,16.8473419 64.365397,16.8816574 64.2608701,16.7744215 C64.1264301,16.6363693 63.9434517,16.5189741 63.9434517,16.5189741 C63.9434517,16.5189741 63.604586,15.9897928 63.4808696,15.8247623 C63.4035468,15.72159 63.576366,15.6782441 63.7302214,15.6166117 C63.7821462,15.5958418 63.9790089,15.8171994 64.0719091,15.7312977 C64.1531826,15.6561197 63.9198598,15.4984264 63.9288902,15.4690776 C63.9485313,15.4049617 64.0397383,15.3865623 64.0529452,15.3347504 C64.0764243,15.2418502 64.028676,15.1297604 64.1432492,15.0857372 C64.3219382,15.0169933 64.5291858,15.1773957 64.5738863,15.0900266 C64.6185867,15.0025447 64.5869803,14.9731959 64.2568064,14.5606196 C63.9267454,14.1480433 64.4480251,14.2946744 64.5773855,14.2962547 C64.7065202,14.2980608 64.8978518,14.2509899 64.8466043,13.9144947 C64.7954696,13.5779995 64.0462853,13.8571517 63.8260565,13.9260085 C63.6061663,13.9947524 63.5642879,13.7980026 63.3992574,13.7705727 C63.2342269,13.74303 63.2554483,13.8077103 63.0077896,14.0278262 C62.9768605,14.0553689 62.9201948,14.0282777 62.8870081,14.0448711 C62.6552655,14.1609117 62.3870627,14.0360664 62.3063536,14.0480317 C62.2141306,14.0616902 62.0207672,14.4485298 61.938252,14.641103 C61.8557367,14.8336762 61.4877481,14.3114935 61.4051199,14.2840637 C61.3653862,14.2708567 61.1540749,14.3903966 60.9169141,14.1061649 C60.7395797,13.8936119 60.6083003,13.609493 60.5019673,13.5103844 C60.3794926,13.396037 60.3965374,13.5817246 60.2123173,13.3862165 C60.0862304,13.2524537 59.9994257,13.0482539 59.9715444,13.0036663 C59.9029134,12.8936083 59.8574227,12.8928181 59.7926296,12.9494839 C59.7279494,13.0061496 59.69544,12.9900078 59.6387743,12.9494839 C59.5819956,12.90896 59.5172025,12.8928181 59.3957437,12.9818804 C59.274172,13.0710556 59.1364584,13.1843871 59.0311414,13.0710556 C58.9258244,12.9576112 58.9178099,12.8441669 58.8367621,12.8522942 C58.7557143,12.8604216 58.7233177,12.9008326 58.7233177,12.7551046 C58.7233177,12.6092637 58.666652,12.6416602 58.6180007,12.5606124 C58.5694624,12.4795646 58.561335,12.3905023 58.561335,12.3905023 C58.561335,12.3905023 58.5360499,12.3420768 58.5563683,12.280783 C58.5767996,12.2194892 58.5700268,12.1445369 58.5700268,12.1445369 L58.5258907,12.1071736 C58.5258907,12.1071736 58.3023884,12.0003892 58.251028,12.0263515 C58.2285649,12.0376395 58.1957168,12.0937409 58.092093,12.2205051 C57.958556,12.3835038 57.668906,12.6021522 57.6611173,12.8110931 C57.6474588,13.1823553 57.2013572,12.693585 57.1602689,12.5974113 C57.1409664,12.5523722 56.9097883,12.5529366 56.818807,12.5021406 C56.6333452,12.3987425 56.5674233,12.213055 56.5164016,12.2057178 C56.420115,12.1920593 56.5392033,12.0479116 56.6023032,11.7356856 C56.6654031,11.4234597 56.398442,11.1211671 56.3172813,10.9808573 C56.2363464,10.8405475 55.9420683,10.9270136 55.749608,10.9406721 C55.6924907,10.9447357 55.6135876,10.9681019 55.5158336,10.9596359 C55.4183053,10.951057 55.3020389,10.9105331 55.170308,10.9161771 C55.0460272,10.9214825 54.8622586,11.0257835 54.7509589,10.9937256 C54.6520761,10.9652799 54.7394452,10.8299368 54.6896651,10.8144723 C54.2908602,10.6907558 54.1555171,11.0624695 54.0318007,11.1174421 C53.9079714,11.1724146 53.6458641,11.1332453 53.4534038,11.2431904 C53.2608305,11.3532483 53.1502082,11.380791 52.9439765,11.4082209 C52.7376319,11.4357636 52.8113425,11.508684 52.6738547,11.6186291 C52.5362541,11.7286871 52.317154,11.3426376 52.2209803,11.3014364 C52.1698457,11.2795377 51.9476979,11.2648633 51.7626877,11.225694 C51.5994632,11.1910398 51.4775529,11.1299718 51.348644,11.1299718 C51.0735555,11.1299718 50.9295207,10.9789384 50.7717145,10.9304 C50.6887477,10.9046633 50.5203308,10.7290221 50.5097201,10.5953722 C50.5046405,10.5304663 50.6280183,10.5259511 50.6704611,10.4480639 C50.6957462,10.4012187 50.6748635,10.303126 50.6711384,10.2769379 C50.6636883,10.2237714 50.5317317,10.2784053 50.5330862,10.2604574 C50.5386173,10.1878756 50.3835203,10.0290535 50.3584609,10.1017482 C50.3334016,10.1744429 50.0146285,10.2118061 49.9045706,10.1842634 C49.7945126,10.1568336 49.5745096,10.2530073 49.3545065,10.3080927 C49.1345035,10.3630653 49.1345035,10.3630653 49.1069608,10.5418671 C49.0795309,10.7207819 48.9007291,10.7756415 48.8181009,10.7482117 C48.7355857,10.7207819 48.6118692,10.7207819 48.6118692,10.7207819 C48.6118692,10.7207819 48.3367808,10.9907908 48.1304362,11.1008487 C47.9243174,11.2107938 47.6398599,11.1771556 47.6083664,10.9876301 C47.57676,10.7982175 47.5321724,10.6706632 47.4188409,10.4768483 C47.3056223,10.2831463 47.284288,9.97464533 47.2136251,9.84539777 C47.1429623,9.71603733 46.954227,9.41227735 46.7703455,9.63894032 C46.596849,9.85284785 46.5302498,9.82824001 46.5785625,10.0804139 C46.6267622,10.3325877 46.7258708,10.4625125 46.7258708,10.4625125 L46.7429157,10.5090191 C46.8984643,10.5437861 47.0371937,10.6430076 47.1019868,10.716944 C47.1320129,10.7510337 47.128175,10.744148 47.0944239,10.7732711 L47.0629304,10.800588 C47.0629304,10.800588 47.0452082,10.8084896 46.9882038,10.8431438 C46.9313123,10.8780237 46.636357,10.992484 46.3911817,11.2164378 C46.2533553,11.342299 46.0941945,11.4609358 45.9614477,11.487124 C45.8583883,11.5075552 45.7773405,11.4496478 45.6934707,11.4403917 C45.5015747,11.4190573 45.6325155,11.6736017 45.3167902,11.833101 C45.001065,11.9927133 45.0032097,11.879269 44.8214729,11.6689736 C44.6396233,11.4586782 44.1165376,11.8114281 43.8926966,11.875431 C43.6687428,11.9393211 43.5305777,11.6898564 43.4345168,11.5619634 C43.3385689,11.4339575 43.2951101,11.6109533 43.1350463,11.6322876 C42.9750954,11.6536219 42.765703,11.6109533 42.669868,11.5042817 C42.5738071,11.397723 42.4990806,11.4616131 42.296461,11.4829474 C42.0939544,11.5042817 42.0559138,11.240707 41.9492423,11.112814 C41.8425707,10.9848081 41.6669295,11.0188979 41.4751464,10.9550078 C41.2831376,10.890892 41.0595224,10.8431438 40.9849087,10.7365851 C40.9102951,10.6299135 40.5690589,10.427294 40.3984973,10.331346 C40.2279357,10.235398 40.2338055,10.1176642 40.1912497,9.85115465 C40.1484682,9.58453217 40.3306565,9.50867684 40.5836205,9.51544963 C40.8364716,9.52222243 40.7001126,9.46668549 40.8280056,9.24284452 C40.8646916,9.17861582 40.9815223,9.11630608 41.0271258,9.05219026 C41.0509435,9.01866491 41.0317539,8.96098325 41.0220462,8.95296878 C40.9853603,8.92282983 40.707224,8.91492823 40.5993108,8.90296295 C40.4075277,8.88162864 40.5950213,8.65090199 40.70158,8.49095108 C40.8082516,8.33100018 40.5882485,8.11517369 40.5455799,7.95533566 C40.5270676,7.88535008 40.517247,7.78409675 40.4866566,7.63216032 C40.4671283,7.53440627 40.5307926,7.45279406 40.5029113,7.3708432 C40.4749171,7.28889235 40.3550385,7.20660286 40.3609083,7.15682279 C40.3822426,6.97982701 40.6603788,7.06290666 40.8112993,7.12769976 C40.9624456,7.19260574 40.9691055,7.15208184 40.9905527,6.9387387 C41.0117742,6.72550845 40.5221009,6.79222051 40.36215,6.84549985 C40.2021991,6.8987792 40.2133742,6.75497012 40.1920399,6.62707712 C40.1707056,6.49918413 39.9817445,6.47051261 39.8432408,6.31056171 C39.7045113,6.1506108 39.8357907,6.09304202 39.6226733,5.86920105 C39.4094431,5.6452472 39.4627224,5.35898361 39.5219844,5.09281266 C39.5812464,4.8266417 39.1726209,4.67109311 39.0660622,4.53236364 C38.9593907,4.39374704 38.4234366,4.48800181 38.4019894,4.48326085 C38.3937492,4.48145477 38.0842323,4.44465591 37.764782,4.47106982 C37.5732247,4.48698589 37.4141768,4.58790058 37.2130247,4.55889043 C36.8909782,4.51238388 36.6420779,4.2830118 36.485852,4.1607628 C36.4434092,4.12757609 36.2936174,4.17679175 36.1741904,4.19191767 C36.0888532,4.20264126 36.0788069,4.48280933 35.991212,4.51012629 C35.9012467,4.5382334 35.8699789,4.4576371 35.8334058,4.3945372 C35.8024767,4.34114498 35.9682974,4.05375259 35.9413191,4.00668165 C35.8893943,3.91637768 35.9074551,3.63045273 35.8024767,3.55346859 C35.7205259,3.49352933 35.5224215,3.61442377 35.427038,3.70122847 C35.3755647,3.74807365 35.3713881,3.92145727 35.3288324,3.9579175 C35.2579438,4.01864692 35.0829798,3.95024167 35.0276687,3.98150942 C34.8013443,4.10962817 34.6764991,4.01097109 34.4183426,3.84277994 C34.3944121,3.82720251 34.4844903,3.58112418 34.3839142,3.54263212 C34.1780212,3.46406766 34.1158243,3.72933558 34.0272135,3.69976103 C33.9132048,3.6616076 33.8114999,3.63620961 33.7478356,3.59297658 C33.6347299,3.51587957 33.6413898,3.38222969 33.6866547,3.24620933 C33.7774102,2.97439438 33.8935637,2.71985006 33.7137459,2.73215398 C33.534041,2.74457077 33.4034389,2.57175155 33.5664375,2.2818758 C33.597028,2.22758054 33.71273,2.26189605 33.7374507,2.19157183 C33.7539311,2.14404937 33.5217371,2.02823452 33.5370887,1.86963817 C33.549957,1.7388103 33.7900527,1.73621406 33.7925361,1.65098969 C33.7945679,1.58495491 33.5890135,1.51790421 33.5796445,1.45503007 C33.5557139,1.29191852 33.5635026,1.16820208 33.4711668,1.08918611 C33.2175256,0.871892176 32.9108307,0.89175905 32.8201881,0.89175905 C32.7296583,0.89175905 32.6728797,0.903272806 32.6690418,0.54747516 C32.6653168,0.191451755 32.22215,0.0241636487 32.1315074,0.0784589112 C32.0408648,0.132867054 31.9152294,0.333680509 31.9152294,0.333680509 L31.5929571,0.302186999 C31.5929571,0.302186999 31.5715099,0.491035178 31.4867371,0.54973276 C31.4208152,0.595449145 31.3004851,0.501758775 31.2251942,0.570954193 C31.1580306,0.632925293 31.0817238,0.70358815 31.0002244,0.779895006 C30.7828176,0.98375622 30.600065,1.06175627 30.5303051,1.12034098 C30.4845888,1.15894592 30.4893297,1.14393289 30.5292892,1.18953639 L30.858673,1.47489694 L30.7787539,1.69038479 L30.3211386,1.44216175 L30.2115321,1.59274362 C30.2115321,1.59274362 29.8623944,1.69952807 29.7793147,1.6632936 C29.7247937,1.63958881 29.683141,1.54996212 29.5438471,1.63857289 C29.4708138,1.68496655 29.4616705,1.84570762 29.3733984,1.9776643 C29.2229294,2.20218255 29.2521653,2.3534417 29.2521653,2.3534417 C29.2521653,2.3534417 29.2332015,2.39464289 29.193242,2.41360672 C29.1342057,2.44171383 29.1184026,2.43550543 29.0758468,2.43516679 C28.9707556,2.34757194 28.6689145,2.23841702 28.5637104,2.34350826 C28.4586192,2.44871239 27.9167953,2.40965592 27.9167953,2.40965592 C27.8807866,2.43324783 27.8892526,2.42478184 27.9248098,2.44205247 C28.2714642,2.6103565 28.4322053,3.14281129 28.4322053,3.29519924 C28.4322053,3.47185638 28.4911286,3.72707798 28.4911286,3.72707798 L28.7267091,3.88409401 L28.7267091,4.1393156 C28.7267091,4.1393156 28.9622896,4.1393156 28.9230073,4.27669052 C28.8837251,4.41417832 29.0015718,4.74785149 29.1585878,4.84605706 C29.3156038,4.94414975 29.7474826,5.16008912 29.6885592,5.37602849 C29.6297488,5.59196786 29.7278415,6.0238466 29.5708254,6.18086263 C29.4138094,6.33787866 29.19787,6.47536645 28.8837251,6.396802 C28.5795136,6.32083378 28.5147205,6.46577166 28.1182861,6.72471829 C28.0556377,6.76569372 28.0909691,6.77969084 28.1181732,6.84617713 C28.1181732,6.84617713 28.2150242,6.98998621 28.2150242,7.31857978 C28.2150242,7.64706048 28.0644423,7.5787681 27.9686072,7.53756691 C27.8727722,7.4964786 27.6263552,7.263833 27.6263552,7.263833 C27.5944102,7.25186772 27.583235,7.23200085 27.5762365,7.26936412 C27.5318747,7.5043802 27.5008327,7.77732395 27.4728384,7.95702886 L27.3444939,7.94957878 C27.3444939,7.94957878 27.3400916,7.95262654 27.2608499,7.9505947 L27.193009,7.93433998 C27.1145574,7.92485807 26.9390291,7.78533843 26.8594487,7.75260324 C26.6326729,7.65925151 26.4283601,8.11415777 26.3749679,8.22082933 C26.3216886,8.32761378 26.0681602,8.40753279 26.0681602,8.40753279 C26.0681602,8.40753279 26.0282007,7.95409398 26.0014481,7.80735002 C25.9749213,7.66060607 25.9481688,7.62064656 25.8814567,7.50054228 C25.8580906,7.45843806 25.8030051,7.53508355 25.7423886,7.46848437 C25.7059284,7.42841199 25.7385507,7.22996901 25.7499516,7.20739302 C25.7735435,7.16020919 25.9539256,7.12216864 25.9829358,7.10467225 C26.049535,7.06471274 26.1215524,7.02035092 26.2549765,6.90035952 C26.3132226,6.84787033 26.2778911,6.66274719 26.3107392,6.5714273 C26.3528434,6.45414502 26.4387451,6.3849496 26.4387451,6.3849496 C26.4387451,6.3849496 26.4827683,6.33674986 26.5284847,6.2768106 C26.5716048,6.2199191 26.7140593,6.05454995 26.6730839,6.01075252 C26.5212603,5.84843113 26.4686583,5.70710542 26.4065743,5.46373622 C26.3845627,5.37727017 26.3611966,5.27782292 26.3317349,5.16008912 C26.3027247,5.04416139 26.2500098,4.93771559 26.1826205,4.83996154 C26.1385973,4.77607148 26.1490951,4.80858091 26.1251646,4.87280961 C26.0846406,4.92146087 26.0199604,5.01865052 26.0279749,5.17261879 C26.0361023,5.32647418 25.9226579,5.2779358 25.8335956,5.22928453 C25.7445333,5.18063327 25.7606752,5.22115718 25.7201512,5.24553925 C25.6796273,5.26980844 25.7087504,5.6925439 25.7087504,5.88714896 C25.7087504,6.08175402 25.5741975,5.92688271 25.351711,6.02407236 C25.1292246,6.12137489 25.0864431,6.59039114 25.0307933,6.78499619 C24.9752564,6.97971413 25.2301393,6.95544494 25.3413261,7.03886323 C25.4525129,7.1223944 25.4191004,7.22308333 25.391219,7.36215145 C25.3634506,7.50110668 25.4340005,7.59152353 25.2811611,7.66094471 C25.1282087,7.73047877 25.0586747,7.99461788 25.0586747,7.99461788 L24.9457947,8.2604502 L24.9181391,8.31135906 C24.8803243,8.38078024 24.8572968,8.33957905 24.7937454,8.31090754 L24.3635598,7.92508383 C24.3635598,7.92508383 24.2244917,7.67482895 24.0715394,7.57752642 C23.918587,7.48022389 23.5014956,7.48157845 23.4737271,7.56499674 C23.4580368,7.61184193 23.4391858,7.85317929 23.4282365,7.93513014 C23.4158197,8.02769171 23.3916634,8.03423875 23.3361264,7.90623287 C23.3147921,7.85713009 23.3116315,7.79391731 23.2790092,7.77224436 L23.1602594,7.59479705 C23.0469279,7.48135269 22.9982767,7.37603568 22.8929597,7.2627042 C22.7876427,7.14925984 22.6661838,7.19779822 22.479819,7.11686329 C22.2934542,7.03581547 22.2449158,7.10873593 22.1476133,7.22218029 C22.0504236,7.33551178 21.9613613,7.31936994 21.8884409,7.48135269 C21.8155204,7.64333544 21.8721862,7.6919867 21.953234,7.77292164 C22.0342818,7.85396945 22.087674,7.95420686 22.0420705,8.03728651 C21.996467,8.12047904 22.0051588,8.21710429 22.0138505,8.28663835 C22.0214135,8.34736777 21.9915003,8.40414639 21.9561689,8.47255165 C21.93348,8.51657484 21.9700531,8.54423043 22.0242355,8.5624041 C22.0797724,8.5810293 22.1335033,8.57899746 22.1757204,8.65124063 C22.2431097,8.7669426 22.1985221,8.99044492 22.1907334,9.02430891 C22.1761719,9.08763457 21.9703917,8.99134796 21.8891182,9.06697754 C21.8402411,9.11235528 21.8903598,9.25639012 21.8871992,9.32942345 C21.8806522,9.48102125 21.8163106,9.48023109 21.8285016,9.53542939 C21.8562701,9.66174207 22.0437637,9.63984335 22.1967161,9.75103012 C22.3496684,9.86232976 22.3752922,9.9967698 22.4727076,10.1219537 C22.5700101,10.2470247 22.4865918,10.5806979 22.4587105,10.6918846 C22.430942,10.8030714 22.275732,11.1554826 22.275732,11.1554826 L21.8334683,11.3805653 L21.8158591,11.4473902 C21.7739806,11.4528085 21.7639343,11.5304699 21.7205884,11.4962672 C21.6730659,11.458904 21.725668,11.2880037 21.6851441,11.2637345 C21.5770051,11.1989414 21.4127647,11.2752483 21.2665852,11.2626057 L21.1961481,11.2969212 C21.1961481,11.2969212 20.9606805,11.5598187 20.8354966,11.6154685 C20.7104256,11.6710054 20.4508017,11.5632051 20.4508017,11.5632051 C20.4508017,11.5632051 20.2898348,11.4705306 20.1090011,11.4566464 C19.9282803,11.4426493 19.6780254,11.3175783 19.4694233,11.2201628 C19.260934,11.1229732 19.3025867,11.2063915 19.3443523,11.3314625 C19.386005,11.4566464 19.5064479,11.5978592 19.3952611,11.583975 C19.2840744,11.5702036 19.1356372,11.4766261 19.1219787,11.5738158 C19.113287,11.6345452 19.1341698,11.9823284 19.0948875,12.1225253 C19.0873246,12.1597757 19.0975967,12.1665485 19.0620395,12.1471331 C18.8044474,12.0064847 18.5615297,11.8890895 18.4952692,11.8394223 C18.3494283,11.7300416 18.221761,11.5111674 18.221761,11.3287534 C18.221761,11.1464522 18.0211733,11.0735318 17.9299663,10.9094043 C17.9071646,10.868316 17.840001,10.809054 17.7495841,10.7409874 L17.7002556,10.7540815 C17.7002556,10.7540815 17.6453959,10.7753029 17.5724755,10.9048891 C17.499555,11.0344753 17.3733552,10.925659 17.454403,10.8121018 C17.535338,10.6987703 17.4738184,10.6037254 17.4738184,10.6037254 C17.4738184,10.6037254 17.377306,10.7659339 17.1459021,10.7036241 C16.914611,10.6412015 16.6856905,10.5613954 16.638168,10.8817487 C16.5907584,11.2022149 16.6116412,11.6158071 16.4494327,11.5424351 C16.3763994,11.5095871 16.413424,11.4224437 16.3245875,11.3860964 C16.1823587,11.3278503 15.782425,11.2558329 15.782425,11.1675608 C15.782425,11.0014015 15.7450617,10.9659572 15.8875162,10.9184347 C16.0299708,10.8710251 15.9961068,10.8693319 16.0605612,10.68308 C16.1250157,10.4967152 16.0180055,10.1944226 15.9705959,10.0639334 C15.9468911,9.99868876 15.9308622,9.88106784 15.8746479,9.8023905 C15.818208,9.72371317 15.7212441,9.6840923 15.6975393,9.61286504 C15.6798171,9.5595857 15.539846,9.57922681 15.4998865,9.5134178 C15.4331744,9.40369847 15.5912063,9.2390066 15.4688445,9.19836982 C15.3218748,9.14971855 15.1078543,9.39590975 15.0485924,9.122966 C14.9892175,8.84990937 15.0146155,8.93852014 14.9553535,8.87914528 C14.8959786,8.81977042 14.8393129,8.69390926 14.8036428,8.56342002 C14.7679728,8.4328179 14.5976369,8.46047349 14.5738192,8.70971245 C14.5501144,8.95895141 14.4406209,9.07375034 14.4406209,9.07375034 C14.4406209,9.07375034 14.3262735,9.16710207 14.2550462,9.13154488 C14.183819,9.09598769 13.9713789,9.00162004 13.9475612,9.13210928 C13.9238564,9.26259852 13.9595265,9.31012098 14.0187884,9.50009796 C14.0781633,9.68996206 14.0147248,9.77687963 13.9554628,9.88366408 C13.8530807,10.0681099 13.9258882,10.2042432 13.8153788,10.3771753 L13.7746291,10.4529177 L13.7231558,10.5331754 C13.6732629,10.5679424 13.6868085,10.5507847 13.6681833,10.4922 C13.6530574,10.4440002 13.6382701,10.3970422 13.6241601,10.352003 C13.6142267,10.320058 13.6140009,10.2873228 13.6055349,10.3349582 C13.6055349,10.3349582 13.3784204,10.314414 13.2751352,10.283372 C13.2042466,10.2621506 13.0663073,10.1807641 12.934915,10.1338061 C12.8036356,10.0869609 12.7436964,9.92509102 12.6958353,9.87722992 C12.6478613,9.82925593 12.5674908,9.82744985 12.5674908,9.82744985 C12.5229032,9.8159361 12.5410768,9.81751642 12.5085674,9.83535145 C12.3714183,9.91019087 12.1368537,9.74967556 11.7615278,9.37965504 L11.6934612,9.41780847 L11.364529,9.52131939 C11.364529,9.52131939 11.084248,9.57674346 11.0357096,9.41035839 C10.9871713,9.24386044 10.9710294,8.99778212 10.922491,8.94935662 C10.8739527,8.90081823 10.806902,8.77608587 10.8000163,8.71253445 C10.7930177,8.64898303 10.7755213,8.43383382 10.5467136,8.37152408 C10.317906,8.30910146 10.3684762,8.38123176 10.2735441,8.28618683 C10.1786121,8.19125478 9.84945411,8.01527492 9.84945411,8.01527492 C9.84945411,8.01527492 9.57334972,8.09959625 9.46645239,7.94528934 C9.35966795,7.79098243 9.28528005,7.85080881 9.13086026,7.79154683 C8.97666623,7.73217197 8.56962108,7.25920492 8.53406389,7.16438575 C8.50742422,7.09315849 8.56488012,6.93467503 8.49399151,6.7641134 C8.47039959,6.7072219 8.31722148,6.67064879 8.31722148,6.64987888 C8.31722148,6.61612777 8.30536909,6.62594832 8.30096677,6.47626949 C8.29453261,6.257621 8.37569331,6.0261042 8.37569331,6.0261042 C8.37569331,6.0261042 8.23786687,5.95216782 8.19102168,5.84278714 C8.08231828,5.58903298 8.20569608,5.6925439 8.17329953,5.40153936 C8.16156001,5.29475491 8.20400288,5.31360587 7.99799695,5.06493131 C7.79187813,4.81614387 7.67809513,4.94358535 7.67809513,4.74175597 C7.67809513,4.54003948 7.78273486,4.53676596 7.73521239,4.44194679 C7.68768993,4.34690186 7.41542345,4.21584822 7.47479832,4.15647336 C7.5340603,4.09721138 7.67425721,4.21584822 7.62684763,3.97846166 C7.57932516,3.74118797 7.42501825,3.72594918 7.42501825,3.72594918 C7.42501825,3.72594918 7.42682433,3.63767705 7.34103556,3.54184196 C7.21562592,3.4018708 6.98647959,3.22476214 6.97948103,3.11210794 C6.96762864,2.92224384 6.80790349,2.83577778 6.80790349,2.83577778 C6.80790349,2.83577778 6.61713635,2.67876175 6.44397849,2.58823202 C6.27082062,2.49792805 6.3453214,2.5291958 6.37286411,2.48336654 L6.41869337,2.38245185 C6.4737788,2.31833603 6.50132151,2.26325061 6.41869337,2.15330552 C6.336291,2.04324756 6.40966298,2.00656157 6.4737788,1.89661649 C6.53789462,1.78655852 6.58383676,1.73158598 6.56543733,1.56644259 C6.54715077,1.40141209 6.50132151,1.38312553 6.38212027,1.24575062 C6.26291903,1.10803706 6.31789157,1.12643649 6.3453214,1.02552181 C6.37286411,0.924719999 6.40966298,0.970549264 6.12531835,0.915576722 C5.8410866,0.8604913 5.85948603,0.95226271 5.51102559,0.961405987 C5.16267802,0.970549264 5.19936401,0.888034011 4.9058761,0.787232203 C4.61261396,0.686317516 4.69512921,0.658774804 4.46587,0.686317516 C4.2366108,0.713860227 4.26415351,0.613058419 4.15409554,0.503000455 C4.04403758,0.39294249 3.90654978,0.23705526 3.7966047,0.108710741 C3.68654673,-0.0196337772 3.28311374,-0.0104905002 3.10893996,0.0170522109 C2.93476618,0.0444820421 2.93476618,0.136253453 2.87968075,0.209512549 C2.82470821,0.282884525 2.44881793,0.457058309 2.26538799,0.530430286 C2.08207093,0.603802262 2.21041545,0.777976046 2.30207398,0.924719999 C2.39373251,1.07135107 2.37860659,1.30377092 2.1887425,1.31562331 C1.9988784,1.32736283 2.07213749,1.60154826 2.02472791,1.69636743 C2.00407088,1.73790726 2.01784223,1.86704194 1.94751801,1.9060984 C1.85710116,1.95644287 1.6754773,1.91219392 1.60876524,1.91219392 C1.4901284,1.91219392 1.03149711,2.02067157 1.03149711,2.02067157 C1.03149711,2.02067157 0.772098952,2.07824035 0.596006208,2.2159539 C0.46754881,2.31641707 0.368665961,2.46643454 0.411108828,2.52614804 C0.512023515,2.66747376 0.670055464,3.24620933 0.646350672,3.53111836 C0.622533,3.81614027 0.424654423,4.05950947 0.59081373,4.05950947 C0.65312347,4.05950947 0.675360823,4.15703776 0.759682156,4.18266151 C0.90021771,4.2255559 1.09899933,4.21528382 1.10656228,4.29678315 C1.1183018,4.42738527 1.08229309,4.66793247 1.22260289,4.91355928 C1.32735549,5.07610642 1.31855086,5.21212678 1.50739904,5.16291112 C1.69636009,5.11358257 1.76341079,5.18830911 1.861955,5.27037284 C1.96061209,5.35254945 2.0033936,5.37546409 2.14110715,5.41508495 C2.27882071,5.45459294 2.48019856,5.57176234 2.48019856,5.57176234 C2.53550974,5.60596497 2.56034334,5.59840202 2.50164576,5.63102432 C2.46067033,5.65393896 2.41506682,5.68012711 2.36415796,5.70563798 C2.25850231,5.7584658 2.19032282,5.79707075 2.12180468,5.81716338 L2.11785388,5.81513155 C2.11785388,5.81513155 2.11051668,5.85136601 2.07428221,5.88760048 C2.03804774,5.92394783 2.03127495,5.8886164 1.95090441,5.99664253 C1.88261203,6.08818818 1.72164521,5.99528797 1.72164521,5.99528797 C1.72164521,5.99528797 1.63134124,6.25671796 1.617457,6.36790473 C1.60357276,6.47920437 1.35331788,6.81287754 1.35331788,6.81287754 C1.35331788,6.81287754 0.833844292,7.16641759 0.847728527,7.34713841 C0.861612763,7.52797211 1.0045188,7.72607645 1.07405285,7.89291304 C1.11739876,7.99710124 1.07066646,8.1212692 0.985554963,8.24058333 C0.934646099,8.31214922 0.887349395,8.39376144 0.788240786,8.43541414 C0.524214551,8.54671379 0.143696194,8.53689323 0.018625194,8.8289137 L0,8.89156208 C0.049780064,8.9449543 0.0895138112,9.01922931 0.105091246,9.12251448 C0.15464555,9.45336565 0.171238905,9.99925316 0.320014697,10.1646223 C0.468903369,10.3301043 1.03127135,10.9255461 1.1802729,10.9916938 C1.32904869,11.0578415 1.57715885,11.2728778 1.82526901,11.4383598 C2.07349205,11.603729 2.83430301,11.8352458 3.71092881,12.4142071 C4.58766748,12.9931684 4.70336945,12.8608731 4.75303663,13.2743524 C4.80270381,13.6879446 4.78611046,13.8201271 4.93499913,14.1014239 C5.0838878,14.3826079 5.56351477,15.0111235 5.61318195,15.0938646 C5.66284914,15.1766056 5.74547727,15.4411962 5.7785511,15.5734915 C5.81173781,15.7058997 5.87788547,15.7058997 5.82821828,15.8546755 C5.7785511,16.0035642 5.49736711,16.1359724 5.7289968,16.400563 C5.9605136,16.6652665 6.50640111,17.5418923 6.62221595,17.6741877 C6.73803079,17.8065958 7.26721206,18.5674068 7.39962026,18.699815 C7.53191558,18.8321103 8.09428356,19.4772193 8.22657887,19.5599603 C8.35898707,19.6425885 8.32591324,19.9899201 7.96198824,20.188476 C7.66624273,20.3496685 7.69830064,20.4891882 7.54320357,20.3938046 C7.50742062,20.3720188 7.46159136,20.3372518 7.39962026,20.2876974 C7.06876909,20.0229939 6.82065893,20.0065135 6.91988041,20.2711041 C7.01921478,20.5358076 6.8371394,20.5027338 6.8371394,20.5854748 C6.8371394,20.6682158 6.73803079,20.8169916 6.91988041,21.0320279 C7.10184292,21.2470643 7.26721206,21.3794725 7.3334726,21.5779154 C7.39962026,21.7763584 7.61465659,22.1899506 7.71387808,22.3388393 C7.81309957,22.4877279 7.8793601,22.5537627 7.82969292,22.7689119 C7.78002574,22.9838354 7.74695191,23.1162436 7.92891441,23.2651323 C8.11087691,23.4140209 8.19350504,23.5131295 8.24317223,23.6124639 C8.29283941,23.7116854 8.30931989,23.8440936 8.45820856,23.9101284 C8.60709723,23.9763889 8.77246638,24.0425366 8.65665153,24.2740534 C8.54094957,24.5056831 8.32591324,24.5718307 8.42513473,24.902569 C8.52435622,25.2334202 8.54094957,26.192787 8.67324489,26.4740839 C8.80554021,26.7552678 8.68983824,27.681448 8.68983824,27.681448 C8.68983824,27.681448 8.68983824,28.045373 8.7559859,28.2439288 C8.82213356,28.4424847 8.98750271,28.7897034 9.03716989,29.0544069 C9.0867242,29.3189976 9.02057654,30.0634409 8.92135505,30.3776988 C8.82213356,30.6919566 8.64017106,31.4693609 8.64017106,31.4693609 C8.64017106,31.4693609 8.55743005,31.7011035 8.73939255,31.8828402 C8.92135505,32.0648027 9.05365037,32.2302847 9.02057654,32.3791734 C8.98750271,32.5280621 8.9379484,32.6769507 8.98750271,32.9912086 C9.03716989,33.3054664 9.07024372,33.4708355 9.05365037,33.7023523 C9.03716989,33.933982 9.0867242,34.380648 9.15298474,34.5294238 C9.21913239,34.6783125 9.35142771,34.8439074 9.2686867,35.4227559 C9.18605856,36.0016043 9.15298474,36.3986031 9.13639138,36.4978246 C9.11979803,36.5970461 9.28528005,36.7790086 9.21913239,36.9609711 C9.15298474,37.1430465 9.10331755,37.4737848 9.13639138,37.6722278 C9.16946521,37.8706708 9.2686867,38.0196723 9.20253904,38.1519676 C9.13639138,38.2842629 9.23561287,38.4827059 9.30176053,38.6812618 C9.36802107,38.8797047 9.59953787,39.1610016 9.53339021,39.3594446 C9.46724255,39.5578876 9.43416872,40.5172544 9.66568553,40.7985513 C9.89720234,41.0797352 10.0130172,41.1128091 10.0296105,41.2616977 C10.0462039,41.4104735 10.1454254,41.5593622 10.3438684,41.8074724 C10.4182562,41.9004855 10.4695038,41.9656172 10.5060769,42.0272497 L10.5179293,42.0380861 C10.5575501,41.9335593 10.6782188,41.6301379 10.8380568,41.3657731 L10.8307196,41.331006 C10.8307196,41.331006 10.8061118,41.1835848 10.7241609,41.1261289 C10.6422101,41.0687859 10.6257296,41.0360507 10.6995531,40.9869479 C10.7732637,40.9377322 10.7933564,40.8061142 10.7933564,40.8061142 C10.7933564,40.8061142 10.8789194,40.739515 10.9040916,40.4491878 C10.9156054,40.3171182 10.7707804,40.252438 10.7782305,40.2004003 C10.8019352,40.0339024 10.8512638,40.0279197 10.8355735,39.9246346 C10.8009193,39.697633 10.6749453,39.4526834 10.8149164,39.4206255 C10.920685,39.396695 11.0780396,39.4413954 11.1477995,39.3563968 C11.2401353,39.2439684 11.3284074,39.098579 11.4135189,39.0363821 C11.5313656,38.9503676 11.6156869,38.9428046 11.6234756,38.8873806 C11.6416493,38.7605035 11.7534005,38.3341559 11.7534005,38.3341559 C11.7534005,38.3341559 11.9385236,38.260671 12.0291662,38.2245494 C12.1198088,38.188315 12.0883153,37.6735823 12.2150795,37.6191742 C12.260683,37.5997588 12.3193806,37.6996576 12.4257135,37.614659 C12.4611578,37.5862132 12.5549611,37.640057 12.5901796,37.6151105 C12.7432449,37.5068586 12.8035228,37.4152001 12.7916704,37.600549 C12.7635633,38.0380717 12.8914563,38.3501848 13.0182205,38.4407146 C13.081659,38.4859794 13.2037951,38.4613716 13.2767156,38.5322602 C13.3497489,38.603036 13.439037,38.7283327 13.5025884,38.794819 L13.5924408,38.8970883 C13.682519,38.8724804 13.6907593,38.9216961 13.6988866,39.0446224 C13.7071269,39.1675487 13.7809504,39.1675487 13.8875091,39.1839162 C13.9939549,39.2002838 14.0757928,39.3011985 14.0904672,39.3268223 C14.1050287,39.3522203 14.1379897,39.3915025 14.1379897,39.4289787 L14.2163284,39.6052972 C14.2681403,39.8185274 14.314534,40.0668633 14.3851968,40.1093062 C14.4758394,40.1637143 14.7933708,40.2660965 14.8115444,40.4290951 C14.8296052,40.5922067 14.7295936,40.7255179 14.8745315,40.7980997 C14.9968933,40.8591678 15.2545983,40.9230579 15.344225,41.1418192 C15.3608183,41.1821174 15.3086678,41.236074 15.3176982,41.2874344 C15.3762829,41.6164795 15.4892757,41.9148212 15.0558167,41.9397677 C14.9937327,41.9433798 14.9252146,41.9964334 14.8690003,42.0038835 C14.5654661,42.0442945 14.3830521,42.1193597 14.566482,42.5015713 C14.7838888,42.9546714 14.8020625,43.0815485 15.0920511,43.4077716 C15.3820398,43.7339947 15.2913972,43.8246373 15.3276316,43.9695752 C15.3638661,44.1146259 15.6357939,44.2052686 15.7263237,44.2234422 C15.8169663,44.241503 16.1251286,44.241503 16.0526596,44.5495524 C15.9800778,44.8577147 15.962017,45.1115818 16.1251286,45.183825 L16.1826974,45.2183662 C16.2453457,45.1870985 16.3214268,45.1628293 16.4144399,45.1489451 C16.486796,45.1378828 16.54888,45.1332547 16.6010305,45.1343835 L16.6202201,45.1119204 C16.6774502,44.7687653 16.8310799,44.5329591 16.9768079,44.3557375 L17.0343767,44.3386927 C17.0999599,44.3550603 17.2638616,44.4206435 17.2556214,44.518962 C17.2473812,44.6173933 17.2638616,44.6418883 17.3621801,44.633648 C17.4604985,44.6255207 17.4441309,44.6009128 17.501474,44.6664961 C17.558817,44.7320793 17.6080327,44.6746234 17.6490081,44.6091531 C17.6899835,44.5435698 17.8777029,44.4505567 17.8906841,44.422111 C17.9036653,44.3936652 18.1920736,43.7561192 18.4457149,44.1004031 C18.5046382,44.180435 18.5673995,44.3049416 18.5689798,44.4350922 C18.5704472,44.550004 18.5098307,44.669431 18.5636744,44.7660562 C18.6099552,44.8491359 18.660977,44.9341345 18.7104184,45.0154081 C18.7598598,45.0967945 18.8227339,45.3196196 18.8667571,45.432951 C18.9108932,45.5461696 18.9306472,45.6241697 19.0124852,45.6618716 C19.0943231,45.6995735 19.1501987,45.7290352 19.1739035,45.75274 C19.1976083,45.7765576 19.2281988,45.813808 19.2485172,45.8613305 C19.2688356,45.9087401 19.2756084,46.016992 19.2756084,46.016992" id="Fill-1"></path>
            </g>
        </g>
    </g>
</svg>