<?xml version="1.0" encoding="UTF-8"?>
<svg width="120px" height="120px" viewBox="0 0 120 120" version="1.1" xmlns="http://www.w3.org/2000/svg" xmlns:xlink="http://www.w3.org/1999/xlink">
    <title>jdo_cn_ximalaya_radio_province_hongkong</title>
    <g id="jdo_cn_ximalaya_radio_province_hongkong" stroke="none" stroke-width="1" fill="none" fill-rule="evenodd">
        <g id="编组">
            <rect id="矩形" x="0" y="0" width="120" height="120"></rect>
            <g id="香港" transform="translate(10.000000, 24.000000)" fill="#FFFFFF" fill-opacity="0.2">
                <path d="M33.7673099,10.075399 L34.1613622,10.2400424 C34.7973836,10.483795 35.5955202,10.6335803 36.1067449,10.1577207 C36.4197396,9.86577987 36.3844274,9.34414138 36.4923704,8.95582389 C36.6621099,8.34503702 37.8835919,7.79609181 38.4786832,7.77882434 C39.0368571,7.76276156 39.0292329,8.1635277 39.3899794,8.28921889 C39.6901333,8.3936269 40.0669308,7.81536714 40.3173266,7.67200691 C40.7856149,7.27766588 40.6158754,6.84316792 40.489875,6.23960929 C40.3538426,5.58906707 41.4709931,4.37150902 42.1479445,4.49438921 C42.5997805,4.57671092 42.6130226,5.11401061 43.2642924,4.97988647 C43.8369122,4.86262824 43.7895618,4.80921953 43.7895618,5.29311051 C44.2863406,5.41719541 43.9219826,4.55703402 44.5034305,4.84817175 C44.6438769,4.91884794 44.9018969,5.43245505 45.0864835,5.59750002 C45.2983569,5.78663915 45.6683327,5.5533274 45.8577346,5.40795932 C46.2654304,5.09553842 45.7096641,4.68633933 46.3340484,4.78231439 C46.6618903,4.83331368 47.1386054,4.21128287 47.4094662,4.04182064 C48.0194047,3.79686338 48.0824049,3.49809584 48.7966749,3.61374779 C49.3460208,3.70289617 49.2348676,3.25876055 49.7484999,3.34188539 C50.3343619,3.43705731 50.6156559,3.58925206 51.0947786,3.58925206 C51.3078558,3.58925206 51.9081636,2.82948299 51.9896225,2.5849273 C51.7275897,2.71583888 51.4097797,2.56163628 51.6035957,2.24720754 C51.727991,2.04481662 51.9462848,1.88459048 52.0470049,1.68741996 C52.1071962,1.57016173 51.9382593,1.20473369 52.0879349,1.25131573 C52.7532494,1.45812391 52.6653701,1.08386134 53.064639,0.716425451 C53.1834165,0.606797038 53.394086,0.0188996155 53.5409528,-3.55271368e-15 C53.5734561,-0.00398983333 53.7640619,0.46102739 53.9675084,0.46102739 C54.3238409,0.46102739 54.0493686,0.156236308 54.6408484,0.156236308 C55.0597798,0.156236308 55.2965322,0.302407525 55.7896996,0.271486691 C56.3759628,0.422476739 56.0364839,1.02322438 56.5697787,1.22641843 C56.8683276,1.34046411 56.8065312,1.11237276 57.0047612,1.07823937 C57.3518643,1.01920869 57.7623689,1.22481216 58.1459881,1.18545837 L59.9922558,0.995917668 C60.2807727,0.966603111 61.3907002,0.726464683 61.5849174,0.881068855 C62.3357035,1.47820237 62.8256607,0.788707921 63.3577517,1.63802694 C63.5315039,1.91591288 64.0034037,1.75568674 64.2032388,2.03317111 C64.3918381,2.29539585 64.3456915,2.79414489 64.3456915,3.08488105 C64.1683278,3.13146309 64.0013973,3.12423484 63.8585433,2.93067845 C63.7457849,2.77808212 63.1988467,3.18888749 63.0704386,3.29249237 C62.7566413,3.54708729 62.4897932,3.89685413 62.2253528,4.19803109 L61.2482475,5.30917328 C61.1082024,5.46859628 61.3646173,5.77298579 61.1744128,5.92678683 C60.4477032,6.51468425 61.8168546,6.48617283 62.1511169,6.48617283 C62.5198889,6.48617283 62.6306409,6.34843457 62.9307948,6.32996238 C63.4267711,6.29984469 63.0921075,5.23448139 63.5547779,5.77017481 C63.7766831,6.02677758 63.9985884,5.67460132 64.2281178,5.72921474 C64.8545086,5.87819695 64.607323,4.61124587 65.0487258,5.07907408 C65.305542,5.35093648 65.5964666,5.3429051 65.6723076,4.89756477 C66.0840161,4.58835643 66.0904365,4.36749332 66.1072901,3.9181373 C66.1193283,3.60491326 66.3733356,3.38886899 66.518196,3.13628192 C66.6317569,2.93750513 66.5659477,2.65359565 66.6823176,2.45281101 C66.8632927,2.13958697 66.9050253,2.80418412 67.0101595,2.76603504 C67.3889634,2.62909992 66.9908983,2.03236797 67.45397,2.11549281 C67.6168877,2.14480737 67.5655245,2.33153709 67.5358301,2.45281101 C67.478849,2.68572119 67.5675309,2.69576042 67.6999517,2.83992379 C67.863672,3.01822055 68.1481762,2.9848903 68.2496989,2.74113775 C68.3070812,2.60339949 68.5225661,2.25282951 68.6192734,2.56846296 C68.7974397,3.14873057 69.1621989,2.15966543 69.2103519,2.17331879 C69.3275243,2.20624747 69.3937347,2.46807064 69.5714997,2.52710132 C69.5542449,2.59496653 69.4137985,2.71423261 69.3744735,2.79053077 C69.1810588,3.12945524 69.6517548,3.19450946 69.4647605,3.53142609 C69.4081807,3.63342468 69.112842,3.74787193 69.1445428,3.84424855 C69.1906894,3.98278995 69.3042504,4.15707102 69.456735,4.15707102 C69.6232642,4.15707102 70.0213293,3.75188762 70.0967691,3.79485553 C70.3563942,3.94223146 70.1304762,4.47190133 70.0967691,4.66746557 C69.9735776,5.38587301 70.7512491,4.10647329 70.8355169,4.64256828 C70.9029311,5.07305054 70.7492427,5.0919243 70.3756554,5.25174887 C70.2958016,5.28588226 70.0273484,6.29141173 70.0474122,6.321931 C70.2901838,6.68816218 70.7953894,6.20748375 71.0654476,6.23960929 C71.2753146,6.26450659 71.4049265,6.48496812 71.590717,6.54399881 C71.8182401,6.61668285 72.1713624,6.33197023 72.1404642,6.09946162 C72.1340438,6.04846232 72.0212854,5.77378893 72.0582027,5.77017481 C72.1444769,5.76254499 72.3671847,5.90510209 72.4526564,5.94325117 C72.6195869,6.01794305 72.7949442,6.04926546 72.9775244,6.00910853 C73.7808776,5.83201648 72.4213569,6.87971072 72.8627597,7.02949606 C73.3141944,7.18289553 73.2491878,6.67049313 73.568603,6.82389259 C73.7507819,6.91183627 73.826623,6.80983767 73.9626553,6.74157089 C73.9076806,6.9636387 73.6625014,7.08410949 73.478316,7.20257242 C73.093493,7.58928364 73.7792725,7.61699192 73.0926905,7.82821736 C72.6207907,7.97318387 72.9056962,8.52574319 72.747995,8.65143438 C72.5096374,8.84057351 72.2937513,7.45877362 71.9269857,8.25629021 C71.6224178,8.91968265 72.1581203,8.66107204 72.1159864,8.93935955 C72.0782665,9.18672622 71.8379026,9.33169273 72.1733687,9.49071417 C72.4398155,9.61720849 72.6059435,9.26302439 72.8298551,9.30157504 C73.0353081,9.33691313 73.7547947,9.23170198 73.7162723,9.31803938 C73.6279917,9.51601303 73.7459666,9.59793316 73.9626553,9.60596455 C74.2030192,9.61520064 74.2379302,9.58347667 74.1352037,9.83686688 C74.0541461,10.0356437 74.3928224,9.86417359 74.4714724,9.91075563 C74.5461096,9.95452668 74.6616769,10.2866245 74.7591868,9.9517157 C74.8153653,9.75655303 74.7880786,9.37225123 75.0545254,9.7216165 C75.230284,9.9517157 75.3534755,9.65174345 75.440151,9.93525136 C75.5549157,10.3111202 75.9610063,10.4107094 76.2118034,10.7255397 C76.2118034,10.5408178 76.0569111,10.3753713 75.9654203,10.2316095 C75.8534645,10.0565253 75.7932732,9.70515216 75.7683941,9.76257657 C75.808923,9.64130265 75.9762548,9.40076265 75.8751334,9.29354365 C75.8057127,9.22005647 75.4899091,9.03613774 75.5059601,8.97228823 C75.8450377,8.92972189 76.1941472,8.93413915 76.5235943,8.84900646 C76.9353027,8.7425906 76.6961426,8.97068195 76.8438119,9.23571768 C76.9120287,9.3581963 77.1319276,9.41562071 77.1720551,9.24415063 C77.237463,8.96546155 77.055284,8.92008422 77.3446035,8.7582518 C77.6600059,8.58196289 77.3935591,8.26873885 77.7302291,8.13300844 C78.1836702,7.94949128 78.0636889,7.51499332 78.0833513,7.08732204 C78.0945871,6.83152241 77.6736493,6.9062143 77.8778984,6.63475346 C77.9926631,6.48175557 77.8698729,6.48858225 77.8698729,6.38738679 C77.9693892,6.36289106 78.0801411,6.44360649 78.1900906,6.45364572 C78.3249191,6.6395723 78.4565374,6.53155016 78.6086207,6.62632051 C78.689277,6.67651667 78.7073344,6.77449957 78.7727423,6.84035693 C78.9440869,7.01222858 79.1744189,7.10338481 79.3469673,7.27646117 C79.4705601,7.40014451 79.2735339,7.57201616 79.2735339,7.69650263 C79.2735339,8.11092213 79.7225609,7.94547559 79.9219948,8.01775806 C80.049199,8.06353695 79.9508866,8.26070747 79.8642111,8.30568323 C79.7261724,8.37716256 79.5644585,8.39242219 79.5118914,8.55264833 C79.318878,9.13452222 79.0672784,9.18230896 78.4525246,9.2851107 C78.2470717,10.3854105 77.629509,9.20640312 77.3855336,9.6143975 C77.0729401,10.1368391 76.9698124,10.3552928 76.3020903,10.3552928 C76.3020903,10.7789484 76.9040032,11.0616532 77.2543166,11.0054335 C77.8895354,10.9038365 78.4372762,10.6572729 79.0191253,10.4046858 C79.3574004,10.2581131 79.869829,10.3340096 80.266289,10.2316095 C80.7389913,10.109934 81.2927512,9.62523987 81.7526127,9.70515216 C82.0660087,9.75936401 82.2489902,9.36502298 82.4664814,9.35096806 C82.6647114,9.33851941 82.6446477,9.65415286 82.5563671,9.76257657 C82.407494,9.9464953 82.220901,10.0862414 82.0479513,10.2810025 C81.3312736,10.82031 80.6719783,11.2789022 80.1515242,12.0097582 C80.0154919,12.2005037 79.8955106,12.556294 79.7578732,12.7012605 C79.5869299,12.8803604 78.75629,13.4770924 78.5512383,13.4911473 C78.4372762,13.4991787 78.6912834,13.181939 78.509907,13.2445838 C78.2936196,13.3192757 78.0717144,13.5441545 77.8285415,13.6477593 C77.4754193,13.7987494 78.1026126,13.7794741 78.1487592,13.7794741 C78.1487592,13.970621 77.2808007,14.5898409 77.1146728,14.7179415 C76.5685371,15.0460236 76.3305808,14.8837896 75.8835602,15.022331 C75.6207248,15.1038495 75.5272277,15.581717 75.0629522,15.7138333 C74.3759689,15.9089959 73.4847364,16.6591273 72.879212,16.4053356 C72.4971979,16.2451094 71.8423166,17.2181118 71.5497869,17.393196 C70.717542,17.8903387 70.1573616,18.1866969 69.6288821,19.0641257 C69.0903706,19.9576174 68.4366932,19.5331587 67.7412831,20.2330939 L67.7248308,20.224661 C67.7248308,19.1649196 67.7308499,19.7789191 68.2336479,18.9982684 C68.4346868,18.6854459 69.251282,17.8497802 69.251282,18.7348389 C69.251282,19.227966 69.7312073,18.7657598 69.8010292,18.5372669 C69.8901123,18.2461291 70.3592031,17.6269093 70.3592031,17.4096603 C70.0666734,17.4096603 69.3568174,17.6192795 69.7600991,17.1133022 C69.9715712,16.8482665 70.2460435,16.4189889 70.5068724,16.2242278 C70.694268,16.1688113 71.3194549,16.1089774 71.4101431,15.9363026 C71.5088568,15.7479667 71.5834941,15.6303069 71.8206478,15.7796906 C72.1232093,15.9708376 72.800562,15.6664481 73.1500728,15.5327255 C73.4426025,15.4210893 73.5477366,15.0797554 73.8639416,14.9235449 C74.3795803,14.6693516 74.1536623,14.3810248 74.4879247,14.0264392 C74.6063009,13.9015511 74.9369517,13.6092087 74.6030907,13.5983663 C74.418504,13.5923428 74.2672233,13.3032129 74.1352037,13.4256915 C73.9425915,13.6039883 73.6962085,14.2336489 73.6428389,13.6726566 C73.6263866,13.4999818 73.5389086,13.437337 73.5112206,13.3269055 C73.6781511,13.2851423 74.3286184,12.8715259 73.8559161,12.7341892 C73.4799211,12.6249624 73.2391559,12.9056593 72.8956643,12.956257 C72.6179818,12.9972171 72.4016944,12.9177064 72.0911073,13.0221144 C71.5325321,13.210852 71.4029202,12.7739446 70.9258038,12.8988326 C70.5979619,13.1064439 70.5136941,13.220088 70.3262985,13.5325089 C70.2179542,13.7136167 70.0345714,13.860591 69.8339338,13.7714427 C69.385308,13.5714612 69.0799375,13.4594233 68.7011336,13.1453962 C68.4230498,12.9148954 67.9948891,12.9426037 67.6590216,12.8494396 C67.0972362,12.6940323 67.1738798,12.5378218 66.9282993,12.1165757 L66.2469339,10.9480091 C65.9086588,10.3673399 66.776216,12.1470949 66.7477254,12.8739353 C66.7316744,13.2847407 66.8757322,13.7320889 66.8055091,14.1167922 C66.6827188,14.347293 66.3291953,14.6388323 66.2718129,14.8825849 C66.1947681,15.2086591 66.4656289,15.2737133 66.0254299,15.1540457 C65.8877925,15.1166997 65.9459774,15.4471913 65.9026396,15.5162612 C65.7730277,15.7210615 65.5495174,15.7507776 65.5495174,16.0346871 C65.5495174,16.35273 65.3235994,16.796464 65.3191854,16.7840154 C64.4700868,16.7840154 65.2654145,16.1061664 64.7943173,16.0844817 C64.2116655,16.057175 63.6699439,16.3149825 63.0455595,16.3149825 C62.3882706,16.3149825 62.5118634,16.1997321 62.085709,15.8784767 C61.9179759,16.0045694 60.7851758,17.7666554 60.7719337,17.9939436 C60.753475,18.3212226 61.3060311,18.4754252 61.3060311,18.677013 C60.4485058,18.8488846 60.2863906,18.1184301 59.3931518,18.3890878 C59.1812784,18.697493 59.3610497,19.0239688 59.278387,19.3604839 C59.2037498,19.6632671 58.8109013,19.7255103 58.5396392,19.755628 C57.9746436,19.8178713 57.0826086,19.329563 56.6432121,19.549623 C56.3306187,19.7066366 56.2315037,19.9748849 55.9706747,20.1672366 C55.8531011,20.2535739 55.7166675,20.1210561 55.6011002,20.2081966 C55.6011002,21.5602804 58.0276119,21.8783232 59.0324053,21.969881 L62.3236653,24.4146348 L62.3970986,24.4640278 L62.3565698,26.7276738 L62.2253528,27.221604 L62.8160301,27.7729587 L58.211396,33.0985704 L58.3755176,33.1973565 L63.0704386,28.0857811 C63.1506936,27.9512554 63.3485224,27.8115093 63.3577517,27.6412439 C63.3657772,27.4926633 63.4131277,27.3533188 63.4725164,27.221604 C63.5134465,27.1304478 63.5190644,27.0400947 63.5467524,26.9413087 C63.5824659,26.8112002 63.6370393,26.6802887 63.6615171,26.5465661 C63.76625,25.9152992 63.7421734,24.534704 64.4247427,24.1921654 C64.9580376,23.9251218 66.2060038,24.3106284 66.2060038,23.2785953 C66.2060038,22.3188447 65.702002,22.9464975 66.5097692,22.587093 C67.2577463,22.2537905 67.1008477,22.7766337 67.8640733,22.7766337 C67.8640733,22.9119626 67.1899308,23.5151196 67.8147164,23.4348058 C68.1750617,23.3886253 68.576337,23.2641388 68.8407774,22.9987015 C69.0578673,22.781051 69.1770461,22.9906701 69.4318559,22.9906701 C69.8860995,23.0693777 70.1027882,23.2328164 70.5811084,23.1717779 C70.8262876,23.1400539 71.0931356,22.8750182 71.2785248,22.8750182 C71.3619901,23.2111317 71.5578124,24.1102453 71.7877432,24.3403445 C72.2431906,24.7977319 72.148891,25.1362548 72.148891,25.7149161 C72.148891,25.9289525 71.8126222,26.6586039 72.2142988,26.2088463 C72.4105224,25.9891879 72.7259248,25.6269724 72.9530466,25.4434553 C73.144455,25.2888511 73.4546408,25.3093311 73.6015075,25.0812398 C73.7949222,24.780866 73.8218077,24.2009999 74.2744462,24.2909515 C74.6941802,24.3744779 73.8900245,23.5211432 73.831037,23.41031 C73.6119407,22.9946858 73.7283105,22.4320873 73.4373859,22.0112427 C73.2576146,21.7506242 73.6737371,21.8490087 73.8559161,21.7393803 C74.1384139,21.5695165 73.5365009,21.5012497 73.4289592,21.3936291 C73.1845825,21.1482703 73.1227861,21.4265578 72.9121166,21.4265578 C72.9121166,21.0442639 72.7648485,21.11494 73.0024035,20.8338416 C73.1841812,20.6515291 73.176557,20.4611853 73.3551245,20.2824869 C73.5312844,20.1057965 73.7395462,20.010223 73.9217252,19.8379497 C74.1588789,19.6134725 74.5172178,19.3122956 74.6933776,19.8214854 C74.8928114,20.398942 74.9297288,20.1632209 75.0954555,19.8050211 C75.2062075,19.5652842 75.2266725,19.4556558 75.2266725,19.1958405 C75.2266725,18.9561036 75.3041186,18.9095216 75.3414372,18.7597362 C75.3518704,18.7569252 75.3554819,18.7537127 75.3663163,18.7513033 C75.4120617,18.5220072 75.7551521,18.9336157 75.8097255,18.981804 C75.9802675,19.1344004 76.2037778,18.9087184 76.3678994,18.8665537 C76.5223904,18.8263967 76.6973465,18.9605209 76.8193342,18.8994823 C76.99108,18.8135465 76.8546464,18.6489031 76.884742,18.5123696 C76.9172453,18.3665999 77.0059272,17.9409365 76.9421244,17.8048045 C76.8522387,17.6116497 76.9565703,17.7072232 77.1226983,17.6317281 C77.2860173,17.3253308 77.7759745,16.5346409 78.0829501,16.3973042 C78.5977863,16.1668034 79.0082909,16.0435216 79.199298,15.4668682 C79.3425532,15.0363859 79.4484899,15.327122 79.7000895,15.327122 C79.9548993,15.327122 80.2791298,14.6858159 80.291168,14.7259728 C80.4288055,15.1745257 80.3979073,15.3210985 80.3979073,15.7306992 C80.3979073,16.8334084 81.809995,15.8559888 81.8344728,15.8704453 C81.7425808,16.0997413 82.1566969,16.5454832 81.6619245,16.5454832 C81.4608855,16.5454832 81.5018156,17.0767594 81.2843244,17.2944099 C81.0343299,17.5445876 80.980559,17.8305049 81.4319937,17.9035905 C81.7048609,17.9477632 82.0668112,17.7521989 82.2774808,17.8048045 C82.8111769,17.9381255 82.6498642,17.3964085 82.7702468,17.0554762 C82.8456866,16.8414398 83.0186362,16.6820168 83.0900632,16.4466972 C83.1955987,16.0997413 82.7714507,15.8367135 82.9668717,15.6150472 L83.5499247,14.9564736 C84.0992706,15.6937548 83.7930976,17.0366025 84.3456537,17.5907681 C84.6574446,17.9027874 84.2124303,18.4039459 83.8697412,18.3561591 C83.4953513,18.3039551 82.8781899,17.567477 82.9423939,18.2983331 C82.9704832,18.619187 82.863744,19.010717 82.9179161,19.2946265 C82.8878205,19.5664889 82.9167123,20.4226346 83.1474456,20.5868764 C83.6213517,20.9237931 83.6426193,21.1193573 83.3364463,21.6735229 C83.1305921,22.0461792 82.7501831,21.8955907 82.4335769,21.8955907 C82.4945707,22.1417527 82.7562022,22.3702456 82.7702468,22.6694147 C82.7822851,22.9340489 82.7722532,23.2577137 82.852107,23.5090961 C83.1189551,24.3483759 83.5222367,23.3617202 83.5988803,22.9742058 C83.744142,22.2429481 83.7481547,22.6882885 84.2637935,22.3401279 C84.4788771,22.1951614 84.7613749,23.1091331 84.7730119,23.303091 C84.7894641,23.5761581 84.8400248,23.8958073 84.9696367,24.1427724 C85.2770136,24.7274573 84.5783933,24.5130193 84.5511066,24.801346 C84.5178008,25.1466956 85.2505295,25.0366656 85.4210715,24.9410921 C85.8331812,24.7109929 85.6518048,24.5427354 85.5358362,24.085348 C85.4286957,23.6604877 85.3396126,22.9481038 85.6016453,22.5625973 C85.8540475,22.1911457 85.786232,22.108824 85.8484297,21.7064516 C85.7994741,21.4149123 85.3307845,21.3137168 85.3307845,21.097271 C85.3307845,20.9302182 85.5711484,20.671206 85.4704283,20.5623807 C85.4311033,20.5194128 85.1602425,20.410186 85.2408988,20.3563757 C85.4511671,20.2158264 85.6088683,20.169646 85.8484297,20.1258749 C86.0815706,20.0837101 86.2529152,19.7973912 86.4062023,19.8130524 C86.9711979,19.87128 86.8130955,19.4319632 86.7838024,19.0311971 C86.7725667,18.8790023 86.6008208,18.4091663 86.6357318,18.3232304 C86.6818784,18.2111926 87.1004086,18.4738189 87.2107593,18.4963068 C87.6754361,18.5894709 87.5289706,18.6175807 87.8423666,18.9079153 C88.0040806,19.0568975 88.2721325,19.1821871 88.2119412,19.4098769 C88.1437244,19.6680859 88.3034319,20.004601 88.1625843,20.2824869 C88.0506285,20.5041532 87.8070544,20.5254363 87.6866718,20.7350555 C87.6866718,21.2450485 88.0161188,22.1630359 88.5241333,22.3650252 C89.0750843,22.584282 89.4803724,22.1156507 89.9358198,22.4059853 C90.3122161,22.6461237 90.6143764,22.5212357 90.9205494,22.2907349 C91.0609958,22.1851222 91.2833023,22.3473562 91.4626724,22.2827035 C91.5830549,22.2385309 91.8836101,21.9646606 91.9056803,22.0766985 C91.9586486,22.3441436 91.9076867,22.5381016 92.2584013,22.3975523 C92.3474844,22.3626158 92.591861,22.728847 92.825002,22.7766337 C93.1070985,22.8344597 93.539272,22.6473284 93.2270798,23.0890546 C93.1829396,23.1516994 93.0300537,23.2822094 93.0300537,23.3360197 C93.0300537,23.6725348 93.0994743,23.8544457 92.6693072,23.9620662 C92.6693072,24.1696775 93.0007606,24.2154564 92.9233144,24.4804922 C92.8101548,24.8700144 92.8398492,24.9864695 93.1448184,25.3033076 C93.5252274,25.5442492 93.7800372,25.6076971 93.8839675,26.0771316 C93.9305154,26.288357 94.2695931,26.8481446 94.2695931,26.9332773 C93.4726603,27.1995177 92.9590279,27.0079692 92.4554274,26.3734897 C91.8591324,25.621752 90.9899701,25.1322391 90.2472095,26.0526359 C89.8371061,26.5618257 89.5333407,26.6497694 89.5333407,27.3858459 C89.5168884,27.3858459 89.5213025,27.3906647 89.5168884,27.3778145 C89.1986771,27.3778145 89.0770907,27.2613594 89.0409759,27.8139187 C89.0181032,28.1628824 88.9884089,28.7873227 88.6224458,28.9499582 C88.4398655,29.0314768 87.8828954,29.0656102 88.1625843,29.3121737 C88.323897,29.4539277 88.7849623,29.8514812 89.0000458,29.7237822 C89.4675316,29.4462978 89.490003,29.896457 89.8700107,30.160288 C90.1011453,30.3205142 90.0361387,30.6755014 90.2472095,30.7939643 C90.5678284,30.9726627 90.8904538,30.8385385 91.2162893,31.1148182 C91.8310431,31.7316286 91.3852262,32.2428263 91.6179659,32.933927 C91.6440488,33.0098236 91.8262278,33.2290804 91.7415587,33.2881111 C91.6207748,33.3716375 91.0437409,33.3463387 91.0437409,33.4198258 C91.3446974,33.5202182 91.5902779,34.1398396 91.7251064,34.3992533 C92.0521458,35.0297171 91.8021513,34.829334 91.552558,35.255399 C91.4899591,35.362618 91.642845,35.637693 91.3555319,35.4939312 C91.1773656,35.4047828 91.0048172,35.1638412 90.9125239,35.0004025 C90.787326,34.7787363 90.5144588,34.4430244 90.4526624,34.2101142 C90.3467258,33.8089465 90.4021017,33.7836476 89.9518709,33.8808274 C89.7183286,33.9310235 89.291773,33.7563409 89.213123,33.9796134 C89.1107978,34.2711527 89.335512,34.6321635 89.5911244,34.8192948 C90.0509859,35.1558098 90.1468907,35.1851244 89.9358198,35.7657936 C89.7688893,36.2243857 89.3920918,35.7441088 89.1312629,35.6091816 C89.0522116,35.5682215 88.5590443,35.4413256 88.6304713,35.3292878 C88.7344016,35.1662506 88.8563893,35.2682492 88.614019,35.0329296 C88.4242158,34.8486093 88.6188343,34.8494125 88.2693235,34.8028304 C88.1589728,34.7875708 87.6064167,34.779941 87.5550535,34.7285401 C87.3772885,34.5498418 87.431862,34.3141206 87.3419763,34.1603196 C87.265734,34.0306127 86.7749743,33.8691819 87.0871665,33.6254293 C87.353212,33.3591889 88.4579229,32.5146887 88.4579229,32.1440403 C88.125667,32.1440403 86.9531405,33.7792304 86.8002547,33.2057894 C86.7212034,32.9090297 86.4383043,32.8833293 86.3981768,32.7202922 C86.3436034,32.5002322 86.6915091,31.8842249 86.6521841,31.8147534 C86.6417509,31.7954781 86.3383868,31.7790138 86.2749853,31.7898562 C85.7449006,31.8802092 85.3933835,32.1207492 84.8877766,32.3002507 C84.1068949,32.5773335 84.315558,31.4031449 83.7714287,31.4031449 C83.7714287,32.3661081 82.9728909,30.8674515 82.8765848,30.8513888 C82.5892717,30.8040036 82.5122268,31.1112041 82.1791683,30.728107 C81.7726764,30.2606803 82.1771619,31.0501655 82.253003,31.1891085 C82.5262715,31.6894638 82.8159922,31.5589538 82.4989847,32.1769689 C82.5234625,32.4909961 82.8858141,32.7126624 83.1229678,32.8600383 C83.4536187,33.0652402 83.1691145,33.1736639 83.1558724,33.4113929 C83.1189551,34.0651477 83.8135626,34.241035 84.1325765,34.530968 C84.283456,34.6683047 84.557527,35.5240489 84.7730119,35.098787 C84.8259802,34.994379 84.7798335,34.4775593 84.8299929,34.4651107 C84.8777447,34.6076678 85.2786187,34.7871692 85.4210715,34.8273262 C85.5089507,34.8522235 85.5747599,35.2027934 85.6016453,35.2967607 C85.7501172,35.8135803 86.413024,35.5746466 86.7099677,35.930437 C87.0410198,36.3267859 87.0691091,35.8276352 87.2107593,35.930437 C87.3423776,36.0256089 87.388123,36.0521125 87.5386012,36.0946788 C87.7163662,36.1452765 87.5767224,36.3994699 87.7853855,36.3994699 C88.3864959,36.3994699 88.9077525,36.1115447 89.3202635,36.539216 C89.510468,36.8255349 88.6063948,36.568129 88.6063948,36.9921861 C88.6063948,37.3949601 88.7544654,37.4447547 88.2697248,37.4776834 C88.1304823,37.4873211 88.3162727,37.8166079 87.9330548,37.7166171 C87.7215827,37.6612006 87.4053778,37.3515906 87.2272116,37.3788974 C86.5891839,37.4776834 87.5313783,38.0599589 87.4077855,38.1197927 C86.742471,38.4430559 86.813898,37.5511706 86.3243422,37.7246485 C85.9744301,37.8487334 86.3275524,38.1579418 86.2914376,38.3832221 C86.2252272,38.7988463 85.9603855,38.800051 86.2998644,39.2638635 C86.6309165,39.7168337 86.1883098,39.6959521 86.127316,40.1942996 C86.1108637,40.3284237 85.9828569,40.6998753 85.8648819,40.7785829 C85.7019642,40.8874081 85.3773325,40.054955 85.3556636,39.9144058 C85.3043003,39.5774892 85.1899369,39.6441497 85.0354459,39.4204756 C84.9130569,39.2421788 85.0928283,38.956663 84.854872,38.6880132 C84.5198071,38.3089318 84.8821587,38.4245838 85.1831152,38.4245838 C85.1831152,38.3233883 85.1064716,38.2595388 85.0848028,38.1611543 C85.0787836,38.0800373 84.9042289,37.4861164 84.8793498,37.4861164 C84.592438,37.4861164 84.5029536,37.4499751 84.4776732,37.7411128 C84.4202909,38.3960723 83.6165364,37.8334738 83.4600391,38.6217543 L82.852107,37.9057562 C82.3994685,37.3724722 82.803954,37.4527861 83.2545861,37.362433 C83.2545861,37.1885535 82.8484955,36.8885813 82.7289155,36.7616854 C82.4997873,36.5175313 82.0684163,36.5765619 81.9737154,36.4243672 C81.8324665,36.1954727 81.725326,36.0151681 81.4978029,35.8481153 C81.1767826,35.6119925 81.6398543,35.4164283 81.7028545,35.14818 C81.812804,34.6803518 82.0246773,34.8686878 82.4745069,34.8686878 C82.4745069,34.7124774 82.1302127,34.6486278 82.0395245,34.5638967 C81.9199445,34.4522605 81.9985944,34.2908296 81.9985944,34.1438553 C81.9985944,33.893276 82.0611934,33.1507744 81.900282,33.041146 C81.3714011,33.276064 81.4191529,33.3334885 80.964508,32.991753 C80.699265,32.7925746 80.3862703,32.6632693 80.1025686,32.4893898 C79.8951093,32.3624939 80.0861164,32.105088 80.0861164,31.9460666 C79.8112428,31.8284068 79.5038659,32.2592906 79.2486548,32.2592906 C79.1772278,32.1147257 79.3040308,31.8846265 79.2651071,31.6995031 C79.2121388,31.4449081 79.3200818,31.3633896 79.5359679,31.2549659 C79.5359679,31.0622126 79.3204831,31.1453375 79.224177,31.0489608 C79.3874961,30.7758937 79.0516286,30.7461776 79.0516286,30.5305349 C79.0516286,30.3012388 79.6996882,30.3068608 79.6017771,30.110895 C79.097374,30.110895 78.592971,30.3707103 78.0749246,30.4152845 C77.7695541,30.5594479 77.5665088,30.8244836 77.6070376,31.1646128 C77.6210822,31.27906 77.8915418,31.7159674 77.6728467,31.7159674 C77.2334503,31.7159674 76.9641945,31.8284068 76.7290472,31.5922841 C76.472231,31.3344766 76.5175751,31.5573475 76.3189439,31.7569275 C76.2435041,31.8320209 76.064134,31.8480837 76.064134,31.7159674 C76.064134,31.319217 75.7009799,31.0867083 75.3992209,30.8678531 C75.1957743,30.7208787 75.0420859,31.1822818 74.8655247,31.0324965 C74.4401729,30.6710841 74.1183501,29.690452 73.5441252,29.9872117 C72.6356379,30.4566462 72.3703949,30.6216911 72.3703949,31.7159674 C72.3703949,31.8529025 72.5951091,32.2592906 72.5260897,32.275755 C72.3290636,32.3227386 72.0951201,32.1958427 71.9683171,32.3576751 C71.8531511,32.5046495 71.2745121,32.8106453 71.2704993,32.8271096 C71.5064492,32.9058172 71.8362975,33.1435462 71.8860556,33.4113929 C71.8860556,33.8896619 71.5385512,34.0595257 71.5249079,34.3582933 C71.5100607,34.6875801 71.5682456,34.9799225 71.6480994,35.2967607 C71.7544373,35.7184084 72.7447848,36.3548957 72.5674211,36.547649 C72.1508973,37.0002175 72.8130016,37.1038224 72.4362041,37.31304 C71.9659094,37.57406 71.979954,38.2980894 71.6974562,37.6587911 C71.6232203,37.4917383 71.4326145,37.3411498 71.369213,37.1732939 C71.2223463,36.7865827 71.5168824,36.6837809 71.5168824,36.3749742 C71.3784424,36.3749742 70.5811084,36.9877689 70.5317515,36.7946141 C70.424611,36.3749742 70.4153817,36.2191653 70.8106378,36.0621517 C71.7464118,35.6902985 70.4386556,33.8631583 70.1950815,34.2265785 C70.0871385,34.3876078 70.1136226,34.7582563 69.8997429,34.7699018 C69.4077794,34.7964053 69.6774364,35.0269061 69.5714997,35.3871137 C69.5036842,35.6176145 69.0297781,36.0155697 69.0297781,36.1854335 C69.0297781,36.3143372 69.2428552,36.5099014 69.1445428,36.5560819 C68.9968735,36.6251518 67.9647934,36.278196 68.3568394,36.7781497 C68.4623748,36.9134786 68.0153541,37.4792897 68.6277002,37.2226869 C68.8636501,37.1234993 68.8744845,37.0006191 69.1609951,37.0006191 C69.4487095,37.0006191 69.5598627,37.2098367 69.8010292,37.31304 C70.1348902,37.4559987 70.0121,37.7387034 70.2115338,37.9386849 C70.4177893,38.1450915 70.8551794,37.8977249 71.0734731,37.8977249 C71.0734731,38.5723613 71.0289316,38.2097442 70.523726,38.5478655 C70.4057511,38.6265731 70.9490778,39.7236604 70.9831862,39.8895085 C71.0116768,40.3460927 71.5501882,40.4099423 71.6725772,40.8693375 L71.9763426,42.0049754 C72.0429543,42.2551531 71.8716097,42.5583379 71.9518648,42.7952638 C72.1629356,43.4221134 73.7050366,44.0742619 74.1271782,43.4293417 C74.1564713,43.3839643 74.6054983,43.544592 74.7178554,43.544592 C74.7375179,43.544592 74.9313339,44.1891107 74.9313339,44.3264474 C74.9313339,44.6521201 75.2427235,44.8328263 75.2760294,45.0673427 C75.6744957,45.18179 75.0717802,45.8122538 75.103481,45.8491981 C75.2086151,45.9708736 75.8763372,45.984527 76.0312295,45.9066225 C76.2723959,45.7857502 76.4525685,45.5841624 76.6632381,45.4789513 C77.1877049,45.2159234 77.0970167,45.6295397 77.4264637,45.9728815 C77.7137768,46.3326875 78.505493,46.4884964 78.4854292,46.8370586 C78.470582,47.0996849 78.6026016,47.7265345 78.3622377,47.7919903 C78.0075103,47.8883669 78.0111218,48.0389554 78.403569,48.0389554 C78.2270079,48.7433079 77.8682678,48.5537672 77.4019859,48.9111639 C77.0267935,49.199089 76.8418056,49.8954102 76.3843517,49.4629201 C76.0878093,49.1826247 75.7744133,49.387425 75.5143869,49.0099499 C75.3077301,48.7107808 74.5637657,49.2733794 74.7014031,49.6195321 C74.8009194,49.8693082 75.1468187,49.7155071 74.9148816,49.9893774 C74.6773266,50.2708774 74.4164977,50.0275265 74.6520463,50.5824952 C74.7684161,50.8559639 75.1696914,50.946317 75.440151,50.9113804 C75.7816362,50.8676094 76.1881281,51.2988948 76.3430204,51.1009211 C76.6443781,50.7146115 76.7334612,50.7142099 77.1226983,50.9856708 C77.1840934,51.0282371 76.8281622,51.1097557 76.8028819,51.1258184 C76.59462,51.253919 76.6712636,51.4125389 76.6712636,51.6442444 C76.5256006,52.0831596 77.0067297,52.6080106 77.3530303,52.8377083 C77.7386559,53.0935079 77.6792671,53.6617284 77.1640296,53.6279966 C76.9220606,53.6119338 76.8458183,52.9911077 76.638359,53.4878489 C76.5396453,53.7243732 76.9742264,54.4423791 76.532021,54.3439946 C75.8566747,54.1938077 76.2888482,53.7203575 75.8012987,53.5705722 C75.2170419,53.389866 74.4827081,52.3040227 73.7905082,52.5493815 C73.4839339,52.6582068 73.7764636,52.8401177 73.6015075,52.9613916 C73.3679653,53.1228225 72.280108,53.6440594 72.280108,53.9327877 L71.8860556,53.2738125 C71.6830103,52.9344865 71.2512381,52.5746804 71.0983522,52.2365591 C71.0983522,52.0325619 71.4735446,51.9450198 71.3198562,51.8498478 C71.1798111,51.763912 70.9241987,51.8386039 70.7616822,51.7839905 C70.5273375,51.706086 70.8158544,50.7660124 70.9667339,50.6318882 C71.0939382,50.5186457 70.8543768,50.2957747 71.0899254,50.088565 C71.341525,49.8664972 71.2050914,49.424771 71.6480994,49.158129 C71.8527498,49.0352488 71.6890295,48.8236218 71.6890295,48.6152073 C71.5449716,48.5790661 71.2941746,48.6356873 71.1473078,48.6726317 C70.9771671,48.7155996 71.0831038,48.4453435 71.0489954,48.3268806 C70.931823,47.918083 70.7877651,47.8951936 70.523726,47.5859853 C70.3977255,47.4386093 70.4992482,47.0804095 70.4992482,46.9029159 C70.3981268,46.9029159 70.2071198,46.9715843 70.1047946,47.001702 C69.869246,47.0804095 69.55585,47.0611342 69.3086644,47.092055 C69.3086644,47.3908226 68.518152,48.0714825 68.3074825,48.334912 C68.0366217,48.6734349 67.2224341,49.5183366 67.1249242,49.9074572 C66.7870504,49.9074572 66.5033488,49.6271619 66.2060038,49.4958487 C65.702002,49.2729778 66.0996658,49.1308223 66.0996658,48.8123778 C65.736913,48.8123778 65.6959829,49.0312331 65.5659697,48.6067744 C65.4423769,48.2044019 64.971681,48.2554012 65.4837082,47.9397678 C66.2168382,47.4884039 64.7826803,47.7132827 64.5483355,47.3719488 C64.2550033,46.9458838 63.9335818,46.5868809 63.5547779,46.219445 L62.1426901,44.5898769 L61.6832299,44.836842 L60.1074218,43.2646983 L59.8445865,43.445806 L62.7506222,46.3595927 L62.4464555,46.6149907 C62.2133146,46.4973309 61.910753,46.0708644 61.7077077,45.8901582 L60.8381441,45.1167358 C60.507092,44.8227871 59.6411399,43.4678923 59.14717,43.5855521 C58.7442896,43.6815272 58.5901999,44.7505046 58.4818555,45.0838071 C58.7314488,45.6841532 58.8008694,46.0527938 58.564117,46.6479194 C58.3698997,47.1354245 57.7415026,47.1703611 57.3330044,47.3225558 C57.0023535,47.445436 56.8655186,47.3161307 56.6026833,47.4378062 C56.0766114,47.6811572 55.9104834,48.4525718 55.3302394,48.5160197 C55.1155571,48.5397123 53.9759352,48.3280853 53.9759352,48.0718841 C54.1845984,48.0196801 54.4141278,48.0891516 54.6239948,48.0469868 C54.6239948,47.8530288 54.4630834,47.4876008 54.4024909,47.2896271 C54.2913376,46.9258054 53.9370115,47.1591171 53.6472907,47.1743767 C52.8872753,47.2153368 52.3579932,48.1196708 52.2271775,46.7218082 C52.4322291,46.2073979 53.2420027,46.4876933 53.195856,45.6925861 L53.1139959,44.2686215 C53.0979449,43.9903339 52.5742806,44.1593946 52.4081526,44.1043796 C52.4081526,43.634142 52.4466751,43.5401748 52.2271775,43.1000549 C52.0602469,42.7639414 51.1706196,42.4234106 50.856421,42.1451231 C50.5667003,41.8877172 50.5847577,42.2788457 50.4218399,42.4085526 C50.3299479,42.4816382 50.2440749,42.2989241 50.1838836,42.2933022 C50.1140617,42.2868771 49.9102139,42.3647815 50.0687176,42.4169855 C50.1561956,42.4454969 50.3656614,42.614156 50.4134131,42.614156 C50.5089166,42.9020812 50.0249786,42.7787994 50.2737693,43.1410149 C50.5819487,43.5891662 50.8158922,42.8904357 51.0125171,42.9109157 C51.2043267,42.9301911 51.2404415,43.2161084 51.1361099,43.3550513 C50.9447016,43.6092447 50.4463177,44.158993 50.4463177,44.4501308 C50.3407823,44.4846657 50.1834824,44.3794546 50.0687176,44.3344788 C49.900182,44.2216378 49.8472137,44.0786792 49.6337352,43.9891292 C49.4816519,43.9248782 49.3540463,43.9208625 49.1987528,43.8819102 C49.0374401,43.8413517 48.5157822,43.8682569 48.3452402,43.9148389 C48.1325643,43.9722633 47.9531943,44.0188454 47.7541617,43.9148389 C47.5033646,43.7835258 47.2256821,43.5538281 47.0314649,43.3550513 L46.6787439,42.9928359 C46.8488846,42.9502695 47.0707899,42.8739714 47.2369178,42.8036967 L48.8131272,42.2519405 C49.2316574,42.1053678 49.0410516,42.112596 49.0177776,41.8074034 C48.9977139,41.5355409 47.7918816,41.9158271 47.5077787,41.8567964 C47.3994343,41.8347101 47.3633196,41.0175166 47.2369178,40.8693375 C46.9359614,40.5175628 48.1638638,40.8849987 48.0250225,40.3260143 C47.9431624,39.9963259 47.9736593,40.0196169 47.6141166,40.0870806 C47.1915737,40.1669929 47.1927776,40.2452989 46.9909361,39.8814771 C46.8123686,39.5602217 46.6241705,39.1180939 46.5230491,38.7699333 C46.3328446,38.1173833 45.9291617,38.878357 45.7839,38.2599404 C45.7465814,38.1005173 45.4801346,37.7840808 45.4801346,37.7001528 C46.0639902,37.7001528 45.850913,37.6672241 45.6936131,37.1154679 C45.5892815,36.774134 45.0535789,36.2717709 45.0535789,35.9878614 C45.0535789,35.574245 45.3156117,35.2212656 44.8156227,34.9674738 C44.4669145,34.7899802 44.3766275,34.7365715 44.2000664,34.3663246 C44.0046453,33.9579287 43.3698278,34.7297448 43.0997695,34.8767192 C42.2671233,35.0618426 41.239056,35.2011872 40.415639,34.9261122 C39.7735986,34.7116742 39.6287382,35.0273077 39.0533094,35.098787 C38.380772,36.0452858 37.6978014,35.5814733 36.8535182,35.4200424 C35.9650947,35.249777 34.8471417,36.429186 34.3174583,36.2597238 C34.045795,36.1725832 34.0698715,36.029223 33.7099275,36.2183621 C32.8082619,36.7263473 31.4037984,37.7848839 30.3279793,37.1074365 C29.7068051,36.7159065 29.1662873,35.681464 28.423928,35.823218 C28.1831628,35.8693984 28.248972,35.5204347 28.0543535,35.4774668 C27.7626263,35.4132157 27.432778,35.5686231 27.1759618,35.6834719 C25.9336135,36.238039 26.2209266,36.0440811 25.4440576,35.263832 C25.0660563,34.8835459 25.2093116,34.9939774 25.148719,34.5064723 C24.9862025,34.4133082 24.969349,34.1816028 24.8369281,34.1193595 C24.6286662,34.0213766 24.3453659,34.3590964 24.2952065,33.9547161 C23.9946513,33.266828 23.395146,33.4077788 22.9324756,32.8765026 C22.539627,32.4255403 21.8618731,32.8560226 21.405623,33.0082173 C21.4593939,33.2226553 22.0436508,34.1864216 22.0211793,34.2759715 C21.5898084,34.2759715 21.0468829,34.1241784 20.6339706,34.0041091 C20.1087013,33.8511113 19.5164189,34.0298096 19.0417103,34.3418289 C18.824219,34.5329759 18.78048,34.7943975 18.5657977,35.0004025 C18.391243,35.1670538 18.1424523,35.1473769 17.9666937,35.3706494 C17.7616421,35.6304647 18.319816,36.4930355 17.7447885,36.3255811 C17.526896,36.2621332 17.5734439,35.9199962 17.400093,35.9633657 C16.7082944,36.1360404 17.1440794,35.8445011 16.7516321,35.6834719 C16.3318982,35.5107971 16.3379173,35.1200702 16.0542157,35.7164005 C15.874043,36.0942772 16.086719,36.194268 16.1605536,36.4902245 L14.6995102,35.4445381 C13.9744058,34.9257106 13.4049961,34.4028674 12.7705799,33.7900727 C12.0936285,33.1359164 12.7216243,33.4812659 13.1152754,32.933927 C13.4639836,32.450036 13.4013847,31.5854574 13.1072499,31.0903225 C12.99088,30.8100271 12.3929798,30.4052453 12.3929798,30.2422082 C12.3929798,29.9141261 12.1682657,29.7534983 12.3440242,29.4603528 C12.4652094,29.2575603 12.6762802,29.2198128 12.6148851,28.9583912 C12.546267,28.6668519 12.030227,28.4961849 11.7774235,28.4150679 C11.3520717,28.2781328 10.6554578,28.3303368 10.3083547,28.0363881 C10.1109272,27.8689337 10.2706348,27.7878167 10.4315462,27.6167482 C10.6097124,27.426806 10.7465473,27.1774314 10.9483888,27.0071661 C11.1883514,26.7670276 11.5482953,26.4811103 11.7280667,26.2088463 C11.8945959,25.957464 12.1000489,25.5579025 12.3355975,25.3775979 C13.1092562,24.7856848 13.5763407,24.8860771 14.5353886,24.7354887 C15.219563,24.6282697 15.9338331,24.3226754 16.5630327,24.035955 C17.4775391,23.6191261 17.5092399,23.5829848 17.7343553,22.6336751 C17.7343553,22.2019881 18.0517641,21.6217205 18.3900392,21.3699365 C18.7146709,21.1285934 18.7933208,20.6880719 19.0132197,20.3692259 C19.4457945,19.7419747 20.4265113,19.2396115 21.1447941,19.1548804 C21.7980703,19.0781807 22.3506264,18.8737819 22.6038311,18.2196256 C22.9160233,17.413676 22.7446787,16.7422522 23.3185024,15.993727 C23.9521161,15.3182875 25.1703879,14.7315948 25.2309805,13.6642237 C25.2502417,13.3156615 25.3967072,13.2522136 25.6085805,12.9891857 C25.8790401,12.6534738 25.7072942,12.6763632 26.2321623,12.6763632 C26.8148141,12.6763632 26.9853561,13.0088626 27.4961795,13.121302 C27.9652703,13.1546323 27.9476142,13.1731044 27.9476142,13.581902 C27.9476142,13.8373 27.9066842,14.1079577 27.9066842,14.3721903 C27.9066842,15.0749365 27.5619887,15.408239 26.8641709,15.5821185 C27.0652099,15.5821185 27.4484278,15.5230879 27.6358233,15.4588368 C27.9106969,15.3640664 27.9660729,15.2757212 28.1855705,15.5491899 C28.2899021,15.6788967 28.5984828,15.2391784 28.6370052,15.178943 C28.7846745,15.0681099 29.5519129,14.3095455 29.6795184,14.4380477 C29.9644239,14.7243666 30.081195,15.0560628 30.426693,15.3106577 C31.1706574,15.8583982 30.5518909,16.5470895 31.0667271,17.2614813 C31.4094162,17.7369393 31.3620658,18.0501633 31.3620658,18.6360529 C31.4808432,18.0405257 31.5185631,17.9658338 31.2882311,17.3682987 C31.2609444,17.2980241 30.5221966,15.9664203 31.3131102,16.2406922 C32.1365271,16.5262079 33.6276661,17.0598935 33.6276661,18.1011626 C33.6525452,18.6810287 33.8588007,19.0825979 34.1613622,19.5415916 C34.359191,19.8419654 34.4205861,20.0973635 34.7275617,20.323447 C35.0237029,20.5414991 35.958273,21.251072 36.0654135,21.5747369 L36.0818658,21.5747369 C36.0818658,21.2394265 35.1713722,20.355171 34.8507532,20.3069827 C34.3234775,19.9544048 34.1926617,19.1890138 34.0297439,18.6360529 C33.8640172,18.0710449 33.6300737,17.3498265 33.2255882,16.9076987 C32.9398802,16.5948763 32.3604387,16.059986 31.9041887,16.1254418 C31.4820471,15.9957349 31.1217018,15.8387213 30.8861532,15.4668682 C30.6678595,15.1215186 30.5089545,14.8239557 30.1229276,14.6026911 L30.1229276,14.5613294 C30.6313434,14.3071361 31.4114226,14.3424742 31.4114226,13.5409419 C31.4114226,12.9654931 31.3885499,12.2804159 31.7316403,11.8121862 C32.0558707,11.3696568 31.9310741,11.2552096 31.5430409,10.9644734 C31.5454486,10.9540326 31.5482575,10.9504185 31.5510664,10.9395761 C31.7874176,10.8925925 32.1020174,10.7303585 32.3227188,10.6271552 C32.5903694,10.324372 32.7480706,10.144469 33.1597791,10.1163591 L33.7673099,10.075399 Z M80.0451863,6.71707517 C79.9761669,6.52151093 79.9175807,5.78422973 79.9958294,5.59750002 C80.0548169,5.45614763 80.1792122,5.26660694 80.1679765,5.11200276 C80.1563395,4.94695779 80.0299378,4.68031579 79.9874026,4.51085355 C79.8280963,4.51085355 79.7779369,5.12927024 79.7494464,5.26821321 C79.6980831,5.51879244 79.5187131,5.71556139 79.4705601,5.95971551 C79.2398268,6.01713992 78.8594178,5.32603919 78.7153599,5.16942717 C78.6503533,5.09875098 78.0552621,4.94735936 78.0091154,5.03771245 C77.9597586,5.13489221 78.1539758,5.78422973 78.1816638,5.94325117 C78.2386449,6.26691601 78.7891946,6.44521277 79.0680809,6.55243176 C79.3309162,6.65282408 79.5921465,7.0708577 79.8561856,7.02146468 L80.0451863,6.71707517 Z M76.6219067,4.65100123 C76.0922233,5.25375672 75.6295529,4.88110043 74.9642384,5.08710547 C74.7619957,5.14975028 74.6388042,5.27584303 74.3896122,5.20235585 C73.9502158,5.07264897 74.2780577,4.9377217 74.4879247,4.7991803 C74.7543715,4.62248981 74.7270847,4.43495696 74.881977,4.23939272 C75.1351817,3.91974358 75.7475278,4.06551323 75.2840549,3.52299313 C75.1155192,3.32582262 75.0079775,3.12383327 74.8161679,2.91421411 C74.3129686,2.36205635 75.3835711,2.79655431 74.9558117,2.18978313 C74.6765241,1.79343425 74.8932127,1.43925015 75.2511503,1.15252969 C75.3269913,1.25332357 75.2435261,1.45491135 75.3663163,1.59706688 C75.7896617,2.0869814 77.1852972,1.99863615 77.7795859,1.94241646 C77.9645739,1.92514898 79.5544266,1.93759762 79.1667947,2.2307432 C78.7205765,2.56806139 78.1620013,2.23114477 77.8863252,2.65881605 C77.6078401,3.09130616 77.0837746,3.03026763 76.6877159,2.83149084 C76.5484733,2.76161778 76.4987152,2.54557351 76.3514472,2.55199862 C76.082994,2.56324256 75.5348519,2.78209781 75.8835602,3.04592883 C76.0850004,3.19812359 76.1082743,3.53062295 76.2940648,3.69606949 L77.1885074,4.49438921 C77.237463,4.5377587 77.5725279,3.7285966 77.9192297,3.84424855 C78.081345,3.89846041 77.5412284,4.41728791 77.5412284,4.54378224 C77.5412284,4.95900487 77.4248586,5.03811402 77.1146728,5.28467755 C76.9557678,5.41117188 76.8594617,5.40474677 76.6712636,5.32563762 C76.4429379,5.22966256 76.8843408,4.89756477 76.7041681,4.80721168 L76.6219067,4.65100123 Z M57.7844391,62.1227931 L57.7764136,62.3701598 C57.6813113,62.4388281 57.4582023,62.5805821 57.3414311,62.5673303 C57.2342906,62.5552832 57.1359782,62.507898 57.160456,62.3942539 C57.1749019,62.3291997 57.1865389,62.2846255 57.1769083,62.2215791 C57.1640675,62.1360449 57.1319654,62.0396683 57.1769083,61.9581497 C57.2455264,61.8332617 57.4120556,61.9448979 57.497126,61.983047 C57.5733683,62.0171804 57.6379736,62.0489044 57.7021776,62.0982974 C57.7427064,62.1288166 57.7322733,62.1428716 57.7844391,62.1227931 L57.7844391,62.1227931 Z M58.0797777,58.6162902 L58.1945424,58.8467909 C58.1788927,58.9764978 58.1351537,59.1451569 58.0388476,59.2415335 C57.9501658,59.3302803 57.8097194,59.2748638 57.7021776,59.2579979 C57.5312344,59.2318959 57.0709716,59.5330728 56.9634298,59.3407211 C56.9120666,59.2475571 56.8992258,58.9242938 56.9309265,58.8222952 C56.994328,58.6142823 57.2439213,58.751619 57.3743357,58.7729022 C57.5954384,58.8082403 57.8971974,58.7468002 58.0797777,58.6162902 L58.0797777,58.6162902 Z M51.8170741,58.2456417 L52.0795082,58.4516468 C52.244031,58.539992 52.5177008,58.647211 52.6545357,58.7480049 C52.7865552,58.8451847 52.7957846,58.9981826 52.9005174,59.1098188 C53.0818939,59.3041783 53.1786012,59.9495002 53.5245005,59.9495002 C53.5245005,59.8001164 53.3684044,59.6973147 53.3684044,59.5712219 C53.3684044,59.4254523 53.3499458,59.3499572 53.2781175,59.2335022 C53.0774798,58.908231 53.0790849,58.8929714 53.2945698,58.5913929 C53.4438442,58.3825769 53.3848567,58.1902252 53.3025953,57.9741809 C53.2155185,57.7452864 53.131652,57.1537749 52.8760396,57.1015709 C52.6192234,57.0493669 52.3034198,57.0606108 52.0389794,57.0606108 C51.7612968,57.0606108 51.5008692,57.0027848 51.2179701,57.0027848 C51.0863518,57.0027848 50.4820312,56.8658497 50.4792223,56.9124317 C50.4619674,57.1774675 50.8712682,57.6183905 51.061874,57.7930732 C51.1922885,57.9127408 51.6208505,58.3500497 51.8170741,58.2456417 L51.8170741,58.2456417 Z M64.7285081,20.1917323 C64.6566798,20.2081966 64.3685642,19.9544048 64.3015512,19.8873428 C64.219691,19.8050211 64.1699329,19.7769112 64.2770734,19.706235 C64.563584,19.5166943 64.5683993,19.2026671 64.7285081,18.940844 C64.7931134,18.8352313 64.9736873,18.6272184 65.1061082,18.6195886 C65.2317073,18.6123603 65.2838731,18.700304 65.3853958,18.7597362 C65.586836,18.8769945 65.409071,19.0633226 65.3276121,19.2203362 C65.1923824,19.4817578 65.0118085,19.706235 64.8842029,19.9776959 L64.7285081,20.1917323 Z M78.8301247,51.8004548 C78.7683283,51.7205425 78.7065319,51.6358114 78.6495508,51.5534897 C78.6306909,51.5265846 78.5921684,51.4418535 78.6166462,51.4137436 C78.6511559,51.3747914 78.7133536,51.3494925 78.7566913,51.322989 C78.8782777,51.2478955 79.009896,51.1378655 79.1587691,51.1752115 C79.1587691,51.2318327 79.1752214,51.2916665 79.1752214,51.3559176 C79.1752214,51.4747821 79.1631832,51.5763792 79.199298,51.6852044 C79.2506612,51.8398086 79.0556414,51.8141082 78.9533162,51.8333835 L78.8301247,51.8004548 Z M35.9671011,38.4904411 C36.1809808,38.4904411 36.0678212,38.7867992 36.0818658,38.9430097 C36.2267262,39.1249206 36.6601035,39.7160306 36.9522319,39.3546182 C37.1472517,39.1128735 37.7616042,39.1136766 37.5100046,38.6880132 C37.3860105,38.4771893 37.4024628,38.3498919 37.1163535,38.3832221 C36.8366647,38.4161508 36.9446077,38.3707735 36.9847352,38.1776187 C37.0184424,38.0161878 36.8727794,37.9125829 36.9193274,37.7166171 C36.9642702,37.5262733 37.27887,37.4423453 37.214666,37.2556156 C37.1857742,37.171286 36.6657214,37.2660564 36.5581796,37.2391512 C36.3884401,37.1965849 36.0345153,36.8432039 36.1147704,37.321473 C36.1203882,37.3552048 36.1669362,37.6515629 36.1805795,37.6672241 C36.3956631,37.9109767 35.9069098,38.2157677 35.7042658,38.292869 C35.4755388,38.3800096 35.8764129,38.4904411 35.9671011,38.4904411 L35.9671011,38.4904411 Z M43.6089879,42.1366902 C43.4256051,42.2153977 42.8947178,42.1121944 42.6567616,42.1121944 C42.6379017,42.138698 42.6206468,42.138698 42.5909524,42.1531545 C42.5672772,42.344703 42.6736152,42.6679663 42.3529962,42.5073386 C42.3485822,42.489268 41.8558161,42.066014 41.77837,41.9230553 C41.6038152,41.599792 41.335362,41.4182827 41.6226751,41.0584766 C41.9152048,40.6918439 41.7619177,40.2537318 41.7619177,39.8320841 C41.7619177,39.2996032 41.6539746,39.2638635 41.1463614,39.2638635 C40.5332127,39.2638635 40.7466912,38.5177478 40.3257534,38.0952969 C40.0476696,37.8162063 39.8578664,36.892597 39.8578664,36.4982559 C40.2583391,36.2304092 40.9994946,36.0051289 41.4750058,35.773825 C42.1828555,35.4296801 42.4075696,36.3842103 42.9111701,35.6750389 C43.0897376,35.6453228 44.5531887,35.7581638 44.6430743,35.8481153 C44.7189153,35.9240119 44.6872146,37.0355556 44.7662658,37.2885443 L45.4965869,39.634512 C45.6948169,40.2701962 46.235736,40.8484559 46.235736,41.5443755 C45.9351808,41.744357 45.7036449,42.3643799 45.3489176,42.1037615 C45.0997256,41.9210475 44.5351313,42.428631 44.0355435,42.0792658 L43.6089879,42.1366902 Z M86.8957582,11.5575912 C86.9094015,11.3106261 86.9876502,11.0861489 87.0759308,10.8684984 C87.1056252,10.7958143 87.26132,10.5058813 87.3054603,10.4910232 C87.1630075,10.4299847 86.7809934,10.5721402 86.7809934,10.2613256 C86.6529866,10.2613256 86.4976931,10.5279676 86.3869411,10.6223364 C86.2517113,10.7387915 86.0683285,10.8150896 85.9118311,10.8849627 C85.6963463,10.9805362 86.2200106,11.2857288 86.2725776,11.344358 C86.3672786,11.4507738 86.4322852,11.5238594 86.5025084,11.6559757 C86.5807571,11.8045563 86.689904,11.8037533 86.8464013,11.8037533 L86.8957582,11.5575912 Z M86.4198457,16.3985089 C86.3375842,16.0403091 86.258533,15.5837248 86.1249083,15.2825479 C85.9736275,14.9420171 85.7152063,14.7942396 85.7152063,14.3802217 C86.037029,14.315569 86.1834945,14.2099563 86.3544378,13.9208264 C86.5968081,13.5104226 87.226409,13.8280639 87.1742432,14.2159799 C87.1573897,14.3412695 86.9559495,14.6340135 87.0759308,14.7412325 C87.189893,14.8424279 87.3676579,14.8356013 87.4695819,14.9869929 C87.5779262,15.1484237 87.8957362,15.5018047 87.8957362,15.6925501 C87.8957362,15.9025708 87.2946258,16.1431108 87.2725557,16.529822 C87.2653327,16.6583242 87.3664541,16.8631245 87.3223138,16.9727529 C87.2364409,17.1839784 86.8885352,17.3361731 86.7316366,17.1201289 L86.4198457,16.3985089 Z M53.8607692,49.9074572 C53.5293158,49.8785443 53.3086144,49.4548887 53.0237089,49.306308 C52.7508417,49.1641525 52.3720378,49.1533101 52.0795082,49.0183829 C51.4611429,48.7324655 50.6750446,48.8661881 49.994883,48.6641988 C49.5177666,48.5228464 49.2737913,48.8834556 48.8865606,49.108736 L47.5158042,49.9074572 C47.1855546,50.0998089 46.7333173,50.0656755 46.4572399,50.2447754 C46.1574873,50.4387334 46.148258,50.8820659 45.9809262,51.1832428 C45.8264352,51.4615304 46.1835702,51.8157145 46.3420739,52.0229242 C46.5194376,52.1835519 46.724088,52.3144635 46.8837956,52.4835242 C47.0976753,52.7100092 47.1265671,53.0388945 47.2533701,53.3151741 C47.3191793,53.4581328 47.4403644,53.5878397 47.5406833,53.7103183 C47.7080151,53.9139139 47.8508691,54.1568633 48.0414748,54.3359632 C48.028634,54.5415667 48.3219663,55.1121967 48.369718,55.389681 C48.4186736,55.6743936 48.9315034,55.8281947 49.1493959,55.9904287 C49.5550853,56.2924088 49.4511549,56.3116841 49.994883,56.3116841 C50.6156559,56.3116841 51.1991102,56.5012248 51.7841695,56.6815294 C52.009285,56.7510009 52.2548655,56.9220694 52.4980383,56.9039988 C53.0156834,56.8654481 53.274506,56.7746935 53.7460045,57.1015709 C53.8948776,57.2047742 54.0525788,57.444511 54.1974392,57.5790367 C54.4341916,57.7990967 53.5662331,58.3548686 54.1649359,58.4432138 C54.7712629,58.5331653 53.9679097,59.003403 54.4847523,59.1756762 C54.9867477,59.3993503 55.3462904,60.0109403 55.4779087,59.1841091 C55.5593675,58.6717067 55.9080758,58.3661125 56.1428218,57.9412522 C56.2595929,57.7296252 56.1600767,56.9325102 56.5778043,56.9947534 C56.8703339,57.0377213 57.2250613,56.9489745 57.497126,57.0192492 C57.6977636,57.0710516 57.6367698,57.3927086 57.6861266,57.5541394 C57.7832353,57.873387 58.0312234,57.8219861 58.1780901,58.056101 C58.2386827,58.1524777 58.231861,58.5580626 58.4164477,58.4926068 C58.9866599,58.2902159 58.9966918,58.4259463 59.3277439,58.8222952 C59.5018974,59.0307097 59.6230825,59.3013674 59.6230825,59.5712219 C59.6230825,59.8868554 59.4818336,59.6627797 59.3518204,59.8262184 C59.2434761,59.9631535 59.5701142,60.3510695 59.5083178,60.5996408 C59.428464,60.9200931 58.8349778,60.6128926 58.8349778,60.8715032 C59.1584057,60.9522187 59.5179484,61.3662366 59.8445865,61.5300769 C60.1110333,61.5991468 60.0741159,61.5244549 60.1154473,61.7935063 C60.1969062,62.3235777 59.4669864,62.1055256 59.4669864,62.7893981 C59.4669864,62.9363725 59.2595271,63.1379602 59.4918655,63.209038 C59.8168985,63.3094303 59.8811025,62.7159109 60.3698558,62.9050501 C60.8393479,63.0861578 61.4886114,63.1949831 61.9131606,62.8307597 C62.0267215,62.7327768 61.7101153,62.6612975 61.6422998,62.6082904 C61.5865225,62.5649209 61.3878913,62.2970742 61.3878913,62.2296105 C61.3878913,62.2059179 61.8617974,62.0922738 61.9380397,62.0734001 C61.9380397,62.3846163 61.9536894,62.5034808 62.1101868,62.7649024 C62.3561686,63.1761093 62.0086641,63.4395388 61.6748031,63.6210481 C61.5475988,63.6905196 61.7554594,63.9519412 61.8144469,64.0651837 C61.9520843,64.32781 61.9280078,64.5896332 61.8228737,64.863905 C61.6069876,65.2124671 61.7000834,65.5003923 61.9131606,65.7610108 C62.0295305,65.9035679 62.0716644,66.1529424 62.2907607,66.0822662 C62.5556024,65.9963304 62.8344887,66.1039509 63.1033432,66.0409045 C63.4472361,65.9597876 64.0262764,65.7859081 63.8007596,65.3329379 C63.7325428,65.1960028 63.6149692,65.1421925 63.5298988,65.0285484 C63.3665798,64.8100947 63.4556629,64.542248 63.2510125,64.3370461 C62.8120173,63.8965246 62.915145,63.7860931 63.1362477,63.316257 C63.2213181,63.1355508 63.3340765,62.8737277 63.374204,62.6825807 C63.4416182,62.3609237 63.1639357,62.2577204 62.9721261,62.0653687 C62.7261444,61.9553387 61.9320206,61.4654242 62.216926,61.1433656 C62.4580925,60.8707001 62.5965325,60.516516 62.8814379,60.2872199 C63.0913049,60.1185608 63.3834333,59.9992948 63.5134465,59.7519281 C63.5632047,59.658764 63.726925,59.1676448 63.8091864,59.1756762 C63.9809322,59.1933452 64.1643151,59.5973239 64.3344558,59.6864723 C64.9732861,60.0197748 64.4769085,59.2917297 64.5643865,58.945577 C64.7216864,58.3223415 64.6129408,58.6058494 64.1209773,58.4267495 C63.6358355,58.250059 64.1225824,57.5348641 63.5467524,57.7187828 C63.3192293,57.7914669 63.1896174,57.7758057 63.0539863,57.5790367 C62.8601703,57.2979382 62.9344063,57.2397107 62.6025516,56.9947534 C62.5921184,56.6618525 62.1591424,56.4494224 62.1591424,56.1221434 C62.3027989,56.1578831 62.6190039,56.7819217 62.7666732,56.6979937 C62.9067183,56.6188846 62.9364126,56.2799601 63.1775791,56.5417833 C63.2478023,56.6188846 63.298363,56.754615 63.3577517,56.83011 C63.6835872,57.2425217 63.4945866,56.6646635 63.8994734,56.7722841 C64.0756332,56.8188661 64.1494679,57.3312685 64.1952133,57.4802507 C64.2863027,57.7786167 65.1390128,57.6866573 65.4263259,57.9577166 C65.5286511,58.0544948 65.9945317,57.9484805 65.8284037,58.212713 C65.6398043,58.5130869 65.5138039,58.563283 65.4837082,58.9540099 C65.618938,59.1829044 65.9295251,59.4419166 65.8942129,59.719401 C65.8235884,60.2715587 65.9375506,60.3948405 66.1401946,60.8550389 C66.2023923,60.9959897 66.1610609,61.1666567 66.2224561,61.3160404 C66.3324055,61.5850918 66.7035851,61.6497445 66.8380124,61.875828 C66.9812677,62.1167696 66.9230827,62.5572911 67.0514908,62.8636884 C67.1811028,63.174503 67.0972362,63.020702 66.9531784,63.1845423 C66.7858466,63.3752877 66.8685093,63.5314981 67.0514908,63.6949368 C67.4194603,63.904556 67.6794867,63.9728228 68.0940041,63.9419019 C68.3496164,63.9230282 68.4912666,63.7824789 68.7669427,63.8435175 C68.870873,63.8660053 68.9735995,63.982862 69.0791349,63.8925089 C69.2544922,63.7419204 69.8190866,63.7692271 70.0554377,63.7692271 L70.0638645,63.7607942 C70.0638645,63.6776693 69.7974177,63.5314981 69.7516723,63.423476 C69.6842581,63.261242 69.3275243,63.3379417 69.1445428,63.1431806 C68.8648539,62.8468225 69.0783324,63.0745123 69.1120395,62.748438 C69.1999188,61.8866704 68.8628475,61.2859227 68.5125342,60.534185 C68.3512215,60.200481 68.200342,59.734259 68.7340382,59.9908618 C69.3042504,60.2647321 68.9563447,60.0069246 69.3495945,59.8756114 C69.3495945,59.8270215 68.8199111,59.6595672 68.7260127,59.5712219 C68.5309929,59.3873032 68.8247264,59.1234722 68.8247264,58.8552239 C68.8247264,58.5191104 68.5189546,58.4050647 68.3403871,58.1797844 C68.2131828,58.0199598 68.343196,57.777412 68.1433609,57.6284298 C67.9491437,57.4838648 67.3925748,56.7582291 67.9214557,56.8465744 C68.3652662,56.9204631 68.1614183,56.4927918 68.4631773,56.3361798 C68.644955,56.241811 68.8307455,56.4538396 68.9884467,56.3281484 C69.14053,56.2064729 68.8993636,55.844659 69.120065,55.5703872 C69.396945,55.2270455 69.2970274,54.919845 69.2183774,54.5251024 C69.198715,54.4447885 69.1445428,54.3271287 69.1445428,54.2452086 C69.3034478,54.2452086 69.4880344,54.1998313 69.5385951,54.0476365 C69.1854729,53.9592913 68.4788271,53.2320493 68.2007433,52.9529587 C67.9856597,52.7373159 67.7665634,52.8300785 67.45397,52.8132125 C67.3472307,52.807189 66.8576749,52.7734572 66.9531784,52.5823102 C67.0884082,52.3108494 67.5145625,52.1104663 67.1008477,51.7430304 C66.7328782,51.416153 66.7898593,50.815807 66.3540744,50.5824952 C66.2629849,50.4640323 65.8428496,49.9351655 65.7629958,49.9484173 C65.6723076,50.1303282 64.5800363,50.3351285 64.3838126,50.2692712 C64.0868689,50.1704851 63.8810147,49.8267418 63.7678551,49.5532731 C63.6093513,49.1685698 63.1603243,49.0557288 62.8080045,48.9111639 C62.1125945,48.3493685 61.6595546,48.1329226 60.7719337,48.0389554 C60.2996327,47.9887592 59.4665851,48.0184754 59.0324053,48.1871345 C58.4938938,48.3955489 58.2190202,49.3163473 57.7431077,49.7014522 C57.4818775,49.9134808 57.16487,50.0516206 56.823786,49.931953 C56.3715488,49.7729315 55.8185914,49.9648817 55.3466916,49.9648817 C55.1677229,49.9817476 55.0064102,50.0427861 54.8294478,50.0721007 C54.5934979,50.1110529 54.3627646,50.0861556 54.13163,50.030739 L53.8607692,49.9074572 Z M45.4560581,49.5697375 C45.3473125,49.5223523 45.2156942,49.4107161 45.1029358,49.5123131 C44.9998081,49.6050756 44.8866484,49.7689158 44.963292,49.92352 C45.0122476,50.0223061 45.0776555,50.0721007 45.1851972,50.0721007 C45.2441847,50.0721007 45.3264462,50.0733054 45.3818221,50.0556363 C45.4697014,50.0275265 45.5439374,49.90304 45.5788483,49.8251355 L45.4560581,49.5697375 Z M76.1459942,42.0218413 C75.9931083,41.9451416 75.785649,41.7491758 75.6616549,41.6266972 C75.583005,41.5483912 75.4277114,41.3062449 75.3253862,41.2805445 C75.3113416,41.2994182 75.3350168,41.5431708 75.3089339,41.6182642 C75.2270738,41.8503713 75.0192132,42.1346823 75.12836,42.3920882 C75.1684876,42.4868586 75.4240999,42.802492 75.5139856,42.8446568 C75.6235338,42.8960577 75.7110118,42.9763715 75.8422288,42.9763715 C76.0268154,42.9763715 76.2583513,43.0101033 76.4333073,42.9763715 C76.6804929,42.9285848 76.5745562,42.5760069 76.4742374,42.4250169 L76.1459942,42.0218413 Z M80.5206975,39.683905 C80.2743145,39.7618095 80.0235174,39.4770968 79.823281,39.5441589 C79.6238472,39.6104178 79.4356491,39.7200462 79.224177,39.7907224 C78.9404754,39.8854928 78.8838956,40.1027418 79.0516286,40.3260143 C79.2478523,40.5874359 79.2747377,40.7665358 79.2899862,41.0914053 C79.3000181,41.3194967 79.457318,41.4130623 79.4950378,41.6182642 C79.5335603,41.8286865 79.6435097,42.0045739 79.7085163,42.2025475 C79.798402,42.4768193 79.846555,42.2812551 80.028734,42.2439092 C80.259066,42.196524 80.844928,42.4740084 80.8902721,42.3920882 C81.1615342,41.9013706 81.8441034,41.918638 81.3910636,41.2231201 C81.1434768,40.8432355 80.6523158,40.3902654 80.6523158,39.8979414 L80.5206975,39.683905 Z M80.2008811,38.7125089 L80.2827413,38.9020496 C80.3613912,39.0590632 80.5893156,39.2429819 80.3730282,39.3875469 C80.2012824,39.5023957 79.9601159,39.393972 79.7743255,39.4040112 C79.2249796,39.4333258 79.1475334,39.0827558 78.731411,38.8361923 C78.3907282,38.6338014 78.4621552,39.4758921 78.0584723,39.1899748 C77.8999685,39.0775354 77.7695541,38.9096794 77.6154643,38.7863977 C77.4698014,38.6703442 77.3125015,38.5450545 77.2129852,38.3751907 C77.0139527,37.895717 76.5938174,37.3415514 77.1475773,36.9182974 C77.518757,36.6339863 77.0645134,36.1424656 77.1965329,36.1525048 C77.313304,36.1617409 77.6234899,36.5179328 77.6234899,36.2348265 C77.6234899,35.9328464 77.2386668,35.5236473 77.1636284,35.14818 C77.1038383,34.8457984 76.7908436,34.9305295 76.6632381,34.7534374 C76.5235943,34.559881 76.9212581,34.327774 77.0079335,34.2265785 C77.1688449,34.037841 76.896379,33.8306312 77.2872212,33.716184 C77.5954006,33.6254293 77.6961207,33.2716468 77.8778984,33.0246817 C77.9738032,32.8945732 78.4782062,32.4315639 78.5018815,32.8186766 C78.5203401,33.127885 78.2229951,33.4266525 78.2229951,33.7326483 C78.5155248,33.7326483 78.7117485,33.1431446 78.8710548,32.98332 C79.1860559,32.6680882 79.1928775,33.6840584 79.2077247,33.7900727 C79.1944826,33.927811 79.1282722,34.1968624 79.199298,34.3253646 C79.3469673,34.5924081 79.6266561,34.4811735 79.6098026,34.9096479 C79.5997707,35.1698648 79.485006,35.9782237 79.6756117,36.1854335 C79.7301852,36.2448657 80.0544156,36.3002823 80.159951,36.3665412 C80.3429326,36.4821932 80.7482206,36.7159065 80.8657943,36.8769358 C80.941234,36.9805406 80.7726984,37.278505 80.7755073,37.411826 L80.7835328,37.8234345 C80.7891507,38.0961001 80.4841815,37.9165986 80.6113857,38.3009004 C80.6667617,38.4683548 80.3016012,38.510118 80.2008811,38.7125089 L80.2008811,38.7125089 Z M81.0299159,33.658358 C80.8545586,33.6651847 80.4613088,33.4278572 80.3405249,33.2961425 C80.2060977,33.1499713 79.9183833,33.0885312 79.8397333,33.3619999 C79.8036186,33.4868879 79.9324279,33.7459001 79.9380458,33.8972917 C79.941256,33.9836291 79.8991221,34.3141206 80.0857151,34.2016812 C80.2839451,34.0828167 80.6523158,33.5033523 80.6523158,34.1438553 C80.6523158,34.2362162 80.6194112,34.3161285 80.6194112,34.4157177 C80.6194112,34.547834 80.7349785,34.7048475 80.759055,34.8522235 C80.8043991,35.1337235 80.9616991,35.4762621 81.0708459,34.9674738 C81.143878,34.6273447 81.0576039,34.3133175 81.095725,33.9711805 L81.0299159,33.658358 Z M77.1804819,33.4362902 C77.2920365,33.2724499 77.2872212,33.2194428 77.2872212,33.0327131 C77.2872212,32.9150533 77.2394694,32.7283236 77.106246,32.7283236 C76.928481,32.7283236 76.8767165,32.7006153 76.7370727,32.5966088 C76.631136,32.5179013 76.5119573,32.5994198 76.4826642,32.7202922 C76.4260844,32.9511945 76.6239131,33.0054064 76.6467858,33.2057894 C76.666047,33.3752517 76.6933337,33.6716098 76.9421244,33.608965 L77.1804819,33.4362902 Z M75.0135953,35.9055397 C74.8093462,35.5617964 74.6311799,35.3678384 74.3647332,35.0823227 C74.1018978,34.800421 74.3358413,34.8092556 74.5372815,34.6462184 C74.9786844,34.2884202 74.5416956,33.2913237 75.4730555,33.600532 C75.4730555,33.6310513 74.965041,33.8025214 75.1528378,33.9382518 C75.2455324,34.0053139 75.4449663,34.063943 75.4730555,34.1767839 C74.9293275,34.6116835 75.5753807,34.7943975 75.7603686,35.2140374 C75.8245727,35.3602086 75.7170309,35.5790639 75.6781072,35.7244319 C75.552508,36.1966774 75.8663053,36.8311569 75.8257765,37.321473 C75.817751,37.4210621 75.6367758,37.5820914 75.6367758,37.370866 C75.6367758,37.0953894 75.68212,36.8612746 75.3827686,36.7287567 C75.0966593,36.6018608 75.1363855,36.4364143 75.1363855,36.1444734 L75.0135953,35.9055397 Z M88.819472,41.6427599 C88.6441147,41.6166579 88.49163,41.4540224 88.4173941,41.2970088 C88.3776679,41.2126793 88.3070434,41.16168 88.261298,41.0833739 C88.2324062,41.0327762 88.2071259,40.9930209 88.1714124,40.9516592 C88.1589728,40.9376043 88.106807,40.8970458 88.1056032,40.8938332 C88.0670808,40.9034709 88.1088134,41.1207199 88.1136287,41.1572627 C88.134495,41.3194967 88.130081,41.5499974 88.1878646,41.7005859 C88.2492598,41.8632215 88.6517389,41.9262679 88.7949942,42.0049754 C88.8487651,42.0346916 89.0012497,42.0772579 89.0742818,42.0543685 C89.1099953,42.0431245 89.1541356,41.9728499 89.1561419,41.9310867 C89.1613585,41.8306944 89.1224348,41.8234661 89.0578295,41.7744747 L88.819472,41.6427599 Z M87.7524809,43.9806963 C87.6734297,43.8770914 87.5213464,43.5168838 87.4077855,43.4867661 C87.1662177,43.422515 86.7878151,43.3558545 86.5538716,43.4867661 C86.3243422,43.6152682 86.5787507,44.1120094 86.6365343,44.2850858 C86.7525029,44.6356558 87.1614024,44.7838348 87.1614024,45.1576958 C87.1614024,45.2693321 87.0947907,45.3986374 87.2191861,45.454054 C87.3359572,45.506258 87.4081867,45.8327338 87.4896456,45.8327338 C87.5723083,45.6672872 87.5666905,45.3504491 87.7524809,45.2484505 C87.8684495,45.184601 88.1465333,45.1440425 88.1465333,44.9685567 C87.6601876,44.8468812 87.9908385,44.4826579 87.8511947,44.2356928 L87.7524809,43.9806963 Z M85.6345499,42.8366254 C85.7204228,42.7639414 85.7966651,42.6466831 85.8319774,42.5402673 C85.8440156,42.5037245 85.7232318,42.4539299 85.6839068,42.4169855 C85.5077469,42.2495311 85.5823841,42.3776317 85.4704283,42.573196 C85.2657779,42.9313958 85.076376,42.8438537 84.8472478,42.573196 C84.7409098,42.4475048 84.5454888,42.8494756 84.502151,42.9269785 C84.3994245,43.1117004 84.3918003,43.263092 84.3215771,43.445806 C84.2248698,43.6975899 84.0101875,43.8413517 84.0507163,44.1288753 C84.0627546,44.2148112 84.1586594,44.2790623 84.1819333,44.3674075 C84.2023984,44.4445088 84.2148379,44.6537264 84.2148379,44.729623 C84.2806471,44.729623 84.2926853,44.190717 84.5595334,44.1698354 C84.7669927,44.1541742 84.7942794,44.1995515 84.9949171,44.0959467 C85.2713958,43.9525864 85.3673006,43.7526049 85.2160198,43.495199 C85.0948346,43.2879893 85.4274919,42.9856076 85.5936198,42.9024828 L85.6345499,42.8366254 Z M86.7922292,41.7086173 C86.6842861,41.7837108 86.4310814,41.8070018 86.4310814,41.6266972 C86.4310814,41.5134546 86.5362155,41.445991 86.504916,41.3219061 C86.4816421,41.2275373 86.433489,41.156058 86.4146291,41.0584766 C86.3829283,40.8910223 86.4952854,40.8135194 86.5703239,40.6797968 C86.5992157,40.6287975 86.6140629,40.5657511 86.6445598,40.5235864 C86.6686364,40.4890514 86.7404646,40.4593353 86.7512991,40.4167689 C86.9037837,40.332841 86.9968796,40.0862774 87.1533769,40.0376875 C87.2548996,40.0063651 87.3427789,40.1131826 87.44069,40.1284422 C87.8090608,40.1850635 87.4860341,40.4757996 87.3913332,40.6882298 C87.3451865,40.7922362 87.3174985,41.0034617 87.3174985,41.1163026 C87.3174985,41.3102606 87.4727921,41.5339347 87.4238365,41.7005859 C87.3929383,41.8070018 87.2705493,41.9254647 87.1862815,41.9885111 C87.0759308,42.0708328 86.9114079,41.9427322 86.8335605,41.848765 L86.7922292,41.7086173 Z M84.7974896,55.3567523 C84.7059989,55.2736275 84.604075,55.1495426 84.5840112,55.0190326 C84.5663551,54.9049869 84.5398709,54.7439576 84.6991772,54.8053977 C84.7990947,54.8431452 84.9724457,54.8688457 85.060325,54.8053977 C85.163854,54.7299027 85.0238089,54.4046316 85.2324721,54.3853563 C85.3335934,54.3757186 85.2890519,54.6086288 85.306708,54.6817144 C85.3287781,54.7764847 85.3327909,54.8820975 85.3640904,54.9696396 C85.4034153,55.0816774 85.4776513,55.2306596 85.4134472,55.340288 C85.3307845,55.4796325 85.0611275,55.4796325 84.9042289,55.4796325 L84.7974896,55.3567523 Z M84.3296026,53.5786036 C84.3568894,53.508329 84.391399,53.4320308 84.3950105,53.3561342 C84.4010296,53.2461042 84.3259912,53.1842626 84.4279151,53.1007361 C84.5868201,52.9726355 84.6060813,52.8642118 84.6907504,52.6979622 C84.7429162,52.5959636 84.7312792,52.5477752 84.8307955,52.4670598 C84.9126557,52.4008009 85.0306306,52.3883522 85.101255,52.3353451 C85.1277392,52.4148558 84.9660253,52.7124187 84.9291079,52.8132125 C84.8809549,52.9425178 84.8307955,53.0316662 84.8307955,53.1750265 C84.8307955,53.3083475 84.8773434,53.502707 84.7894641,53.6115323 C84.695967,53.7271842 84.534253,53.8906229 84.370934,53.8091044 L84.3296026,53.5786036 Z M75.7354896,54.7391388 C75.6708842,54.809815 75.5059601,54.7821067 75.4072464,54.8543892 C75.2182457,54.9933322 75.1861437,55.3089656 75.0380731,55.4226097 C74.8727477,55.5487025 74.6532501,55.282462 74.4879247,55.241502 C74.1829554,55.1648022 73.8210051,55.0636068 73.7491768,55.4141768 C73.6332083,55.9832004 72.8093901,56.7638511 73.4538382,57.2746472 C73.6773486,57.4513377 73.842674,57.4971166 74.1022991,57.5870681 C74.2539812,57.6400753 74.5144088,57.9006937 74.5786129,57.9083235 C74.7652059,57.931213 74.7832633,57.6119654 75.0300476,57.6119654 C75.3871826,57.6119654 75.6219287,57.9617323 75.9493693,57.6035325 C76.2073893,57.3208277 75.7511393,57.0975552 75.9493693,56.9124317 C76.5183777,56.3803524 76.3281732,56.4695008 76.0228027,55.9161384 C75.9666241,55.8133366 75.8835602,55.6434728 75.8835602,55.5290256 C75.8835602,55.447507 75.9409425,55.3724135 75.9409425,55.282462 C75.9409425,55.183676 75.8675091,55.0403158 75.8506556,54.9282779 L75.7354896,54.7391388 Z M74.7832633,68.5021226 C74.7198618,68.3210149 74.5882435,67.9784763 74.6440208,67.7861246 C74.7198618,67.5243015 74.7832633,67.3456031 74.7832633,67.0616937 C74.6211481,67.0616937 74.3691472,67.2267386 74.2335161,67.3335561 C74.0818341,67.4524206 73.8964449,67.5243015 73.7491768,67.6459769 C73.6360172,67.7403457 73.5678004,67.8792887 73.7411513,67.950768 C74.1035029,68.0997502 73.9425915,68.2105834 74.0039867,68.518587 C74.0388976,68.6952775 74.3153763,68.7904494 74.4714724,68.7904494 L74.7832633,68.5021226 Z M68.8407774,68.7655521 L68.6606048,68.8892354 C68.2501001,69.0823903 68.2946417,68.7868353 67.9623858,68.724592 C67.7958565,68.6932696 67.45397,68.7820164 67.3717085,68.625806 C67.3107147,68.5105556 67.2477145,68.455139 67.2404915,68.3045506 C67.2332685,68.1603872 67.299479,67.8098172 67.2404915,67.7038029 C67.1903321,67.6134498 67.0583125,67.5363485 67.0266118,67.4568378 C67.1080706,67.3753193 67.3853519,67.4785226 67.4780465,67.5062308 C67.6534038,67.5580333 67.8046846,67.5327344 67.978838,67.5062308 C68.2159917,67.4700896 68.5125342,67.4319405 68.7260127,67.3247215 C68.829943,67.2733207 68.9005674,67.185377 69.0213513,67.185377 C69.0265679,67.2050539 69.0791349,67.2363763 69.0955872,67.2676987 C69.1268867,67.3291388 69.1308994,67.4363578 69.1445428,67.5062308 C69.1714282,67.6411581 69.1938996,67.8563993 69.1938996,67.9921297 C69.1938996,68.3728173 69.064689,68.4796348 68.8407774,68.7655521 L68.8407774,68.7655521 Z M49.3135175,61.6782559 C49.3560527,62.6159202 49.1706635,62.9556478 48.3039089,63.415043 C48.0603348,63.5443483 47.5639572,63.6310873 47.7950918,63.9583663 C47.890194,64.0932936 48.0350544,64.8165198 48.238501,64.5595155 C48.4872917,64.2434805 48.7553436,63.7475424 49.190326,63.6620081 C49.9720103,63.5082071 50.2673489,64.0491209 50.955536,63.4644361 C51.0915684,63.3483825 51.4386715,63.261242 51.6200479,63.209038 C52.1910627,63.0455993 51.6617806,63.855163 52.4575095,63.5467578 C52.7801348,63.4218697 53.0445752,63.25562 53.1629515,63.6126151 C53.3134297,64.0643806 52.8595873,63.852352 52.8595873,64.2133628 C52.8595873,65.1522317 51.6336913,63.9491302 51.6035957,64.3780062 C51.5815255,64.6936396 51.1838617,64.5109256 51.1521609,65.0365798 C51.126078,65.4658573 50.0382207,65.4895499 49.9290738,65.7939394 C49.8640672,65.9758503 50.4792223,65.8858988 50.4792223,66.1975166 C50.4792223,66.5661572 50.6252865,66.6368334 50.7665354,66.9548762 C50.8512045,67.0604889 51.0402051,67.2741238 51.0783263,67.3990118 C51.1393201,67.5969855 51.0161286,67.7511881 51.2344224,67.9094064 C51.3676458,68.0061846 51.4398753,68.2113865 51.4398753,68.3868723 L51.4310473,68.3949037 C51.2155624,68.3949037 50.3793047,67.9082017 50.2079602,67.7367316 C49.9459274,67.4737037 49.5522763,67.3359655 49.3464221,67.1026537 C49.130536,66.8572949 48.7914584,67.0661109 48.9194652,67.2676987 C49.2440969,67.776487 49.6818882,68.6290185 49.5189705,69.283978 C49.2368739,69.283978 48.7011714,68.3326604 48.5498906,68.3704079 L48.0655513,68.9221641 C47.5450973,69.5152819 47.6064924,68.56798 47.0479172,68.8149451 C46.3641441,69.1169252 45.101732,67.8343129 45.6201797,67.5142622 C45.9636713,67.3022336 46.4853292,67.3106666 46.6049093,66.8062956 C46.7060306,66.3802306 46.6386164,65.8589937 46.8019354,65.3907639 C46.8685471,65.2650727 47.1253633,64.6121211 47.0069871,64.5181538 C46.4857305,64.1037344 47.0531338,63.8258484 46.8593178,63.1925737 C46.7489671,62.832366 46.7321135,62.1565249 46.3998576,61.9501183 C45.2381656,61.2280968 45.7770783,62.0517153 45.5379182,62.699045 C45.4380007,62.9701043 45.0571904,62.5002682 44.8645783,62.4520799 C44.6944376,62.409112 44.3027929,62.4356156 44.1093782,62.4356156 C44.1041616,62.4516783 44.1065692,62.4360171 44.1013527,62.4520799 C44.2566462,62.4906306 44.4227742,62.6251563 44.5447619,62.6661163 C44.5447619,62.7749416 44.6406667,63.1881564 44.5531887,63.217471 C44.3690033,63.2789111 44.1342572,63.1190865 43.9288043,63.1761093 C43.7646827,63.2222898 43.86139,62.7681149 43.8389186,62.6576834 C43.8016,62.4805913 43.6559371,62.3549001 43.5760833,62.1886505 C43.5070639,62.0448887 44.1186075,61.4754634 44.2654743,61.2911431 C44.5146662,60.9795254 45.7096641,60.5594839 44.8974829,60.386006 C44.4841693,60.2972592 44.9291836,60.2422442 45.0046234,59.9824289 C45.090095,59.6860707 44.776699,59.7306449 44.6430743,59.5298603 C44.490991,59.377264 44.3148311,59.2162347 44.2570475,59.003403 C44.2277544,58.8925698 44.7931513,58.7785242 44.9219607,58.7315406 C45.1575093,58.6456047 45.4046948,58.5877788 45.6362307,58.4926068 C45.7963395,58.427151 46.057971,58.3737423 46.1779523,58.2785704 C46.2935196,58.1870126 46.1562835,58.0071096 46.3998576,58.0071096 C46.3998576,58.2797751 46.8336362,58.1472573 47.0069871,58.270539 C47.381377,58.5363779 46.7012153,59.1592118 46.6871707,59.4889002 C46.6558712,60.2109218 47.2256821,60.0920573 47.5322565,60.4767606 C47.6442123,60.6309632 47.715238,60.7261352 47.7702127,60.9044319 C47.7991045,60.9983991 47.7565694,61.1116417 47.8115441,61.20079 C47.9142706,61.3678429 48.175902,61.3401346 48.254552,61.5381082 C48.330393,61.7280505 48.3925907,61.8135848 48.6161011,61.7690106 C48.7212352,61.7477274 48.8556624,61.6738387 48.9030129,61.5710369 C48.93672,61.4987544 48.9038154,61.4549834 48.9194652,61.3987637 C48.964408,61.2373328 49.0502809,60.8879676 49.2481096,60.8879676 C49.266167,60.9622579 49.305492,60.9931787 49.305492,61.0855397 C49.305492,61.1847273 49.2910461,61.3144341 49.321543,61.4067951 L49.3135175,61.6782559 Z M39.0288316,49.8086712 C39.0452839,49.9074572 39.3968011,49.7126961 39.4718395,49.6849879 C39.5886107,49.6424215 39.7619616,49.5617061 39.8823442,49.5617061 C39.8823442,49.7002475 39.7346749,49.8528438 39.8414141,49.9893774 C39.8919748,50.0544316 39.9818604,50.2431692 39.8823442,50.3021998 C39.7479169,50.3821121 39.6431841,50.3624352 39.4963173,50.3435615 C39.3149409,50.3202705 39.2158259,50.4503789 39.0452839,50.4423475 C38.9666339,50.4387334 38.8787547,50.3343254 38.8398309,50.2692712 C38.7776333,50.1652647 38.8137481,50.0459987 38.7659963,49.9403859 L39.0288316,49.8086712 Z M32.9627529,50.5411336 L33.1513523,50.656384 C33.5594493,50.9166008 34.7179311,50.5387242 34.3174583,49.9978103 C34.2685027,49.931953 34.1565469,49.6062803 34.1200309,49.6026662 C33.8571956,49.5753595 33.7107301,49.4862111 33.5373791,49.7014522 C33.4535126,49.8058602 33.3439645,49.9247247 33.2749451,49.7343809 C33.1308873,49.3396383 33.6786281,49.0862481 33.9968394,48.9934856 C34.2203497,48.9284314 34.0461962,48.7461189 34.0052661,48.5822786 C33.9081575,48.5822786 33.7520614,48.6738364 33.6356916,48.6890961 C33.4647483,48.7115839 33.308251,48.7866774 33.1433268,48.8372751 C33.0117085,48.8774321 32.9298483,48.8477159 32.8070581,48.8702038 C32.3058653,48.9617616 32.4808213,49.4215584 32.6180574,49.7508452 C32.6794526,49.8982212 32.9948549,50.0973995 32.8070581,50.2447754 C32.7059367,50.3242862 32.884103,50.5531806 32.9627529,50.5411336 L32.9627529,50.5411336 Z M35.6428706,54.4347493 L35.7451958,54.3560417 C35.7981642,54.2432007 35.926171,54.0211329 35.9297825,53.899859 C35.9337952,53.774971 35.7889348,53.7621207 35.695839,53.693854 C35.6468834,53.6577127 35.5738513,53.5292106 35.5236919,53.5171635 C35.4245769,53.4922662 35.2813216,53.5958711 35.2159137,53.656508 C35.0758686,53.787018 34.8744284,53.8781743 34.7070966,53.9697321 C34.3981147,54.1379896 34.6252365,54.2693027 34.4771659,54.4841423 C34.3993185,54.5969833 34.4639238,54.592566 34.6003574,54.6568171 C34.851957,54.77528 35.0566074,55.0977402 35.2773088,54.7351231 C35.3679971,54.5865425 35.5714436,54.5973848 35.6428706,54.4347493 L35.6428706,54.4347493 Z M33.1019954,56.6815294 L33.2171615,56.8915501 C33.4021494,57.0264774 33.2027155,57.2393091 33.3483785,57.3854803 C33.4611368,57.4987229 33.7006982,57.6007215 33.8411445,57.7023185 C34.2263688,57.9822123 34.2235599,57.5698006 34.3375221,57.2746472 C34.4667327,56.9397384 34.4470703,56.763048 34.2103178,56.4839573 C33.916183,56.1378046 34.0337567,55.7442667 34.1529355,55.3567523 C34.2492415,55.0427252 34.1312666,55.0804727 33.9230047,54.8913336 C33.6296725,54.6246916 33.5257422,54.7825083 33.1433268,54.7515874 C32.8074594,54.7242807 32.2300242,54.5166694 31.9162269,54.6528014 C31.7585257,54.7214697 31.703551,54.9061916 31.5101363,54.8130275 C31.3668811,54.7447608 31.2930464,54.7327137 31.2513138,54.9411281 C31.2212181,55.0917166 31.0229881,55.1290626 31.1610268,55.2455177 C31.4314864,55.473609 31.952743,55.3623743 32.1172659,55.5663715 C32.226814,55.7021019 32.413407,56.3542504 32.6096307,56.3610771 C32.7312171,56.3646912 32.8957399,56.1229465 32.9258356,56.2044651 L33.1019954,56.6815294 Z M30.8123186,62.4107183 L30.6562225,62.6247547 C30.3227627,63.1604481 31.3115051,62.8781449 31.3456135,63.522262 C31.3953716,64.4502886 30.4756486,63.8479347 30.3279793,64.6912302 C30.2160235,65.3281191 29.2425296,64.5920426 29.7288753,65.3823309 C29.9030288,65.6658388 30.4656167,65.9368981 30.7549362,65.7280821 C30.9744338,65.5694622 31.1746702,65.6513823 31.3456135,65.3413709 C31.5623021,64.9486361 31.6702452,65.0927995 31.9780233,64.8474407 C32.3853178,64.5221695 32.5181399,65.376709 32.7328222,65.1189015 C32.8002364,65.0381861 32.7440579,64.7900162 32.7986313,64.7900162 C32.9699759,64.7900162 33.1445306,64.8932196 33.1926837,64.6498686 C33.2263908,64.4796032 33.1678046,64.3370461 33.340353,64.2217957 C33.443882,64.1527258 33.0406003,63.4335152 32.6425352,63.8101872 C32.4471142,63.9957122 32.1196735,63.8937136 31.920641,63.7527628 C31.4206519,63.397374 31.4828496,62.4135293 31.8793096,62.0159757 C32.1999286,61.6939171 32.1493679,61.3855119 32.3556234,61.110437 C32.1136544,61.110437 30.9515611,61.6023593 30.9515611,61.7935063 C30.9515611,62.0055349 30.9623956,62.2436655 30.8123186,62.4107183 L30.8123186,62.4107183 Z M24.5821183,67.0042692 L24.6892588,67.1195196 C24.6892588,67.3833506 25.2518468,67.1974241 25.3621975,67.1026537 C25.6117907,66.8882157 25.4849877,66.5002998 25.5756759,66.205548 C25.6535234,65.9517562 25.4328219,66.0228339 25.2719105,65.9421185 C24.8188707,65.7152319 25.2787322,65.6164458 25.1077889,65.3823309 C25.0006484,65.2361597 24.9878076,65.0646896 24.8529791,64.9297624 C24.5532265,64.628987 23.9268357,65.1309486 23.7699371,65.4156612 C23.5997964,65.7228617 23.669217,65.9091898 23.745058,66.2139809 C23.8289246,66.5508975 23.9420842,66.5946686 24.2378241,66.7159425 C24.3618182,66.7669418 24.4809969,66.9022706 24.5821183,67.0042692 L24.5821183,67.0042692 Z M12.3520497,68.7820164 C12.0318321,69.022958 12.0366474,68.5153744 11.875736,68.3539436 C11.6313593,68.1089863 11.1855425,69.1799716 10.8581018,68.8892354 C10.8047322,68.8414487 10.9483888,68.4683908 10.9483888,68.361975 C10.9483888,68.1780562 10.9319365,67.990925 10.9319365,67.802589 C10.9319365,67.7282987 10.9086625,67.3415874 11.0141979,67.3415874 C11.0747905,67.3415874 11.2778358,67.6150561 11.3504666,67.6708742 C11.5791935,67.8459584 11.7990924,68.0768608 12.0976412,68.0001611 C12.2862406,67.9515712 12.4788527,67.9138237 12.5904073,68.0909157 C12.6650445,68.2097802 13.3094926,68.220221 13.2220146,68.4362653 C13.12932,68.6659629 12.7340638,68.469194 12.6477896,68.8727711 L12.3520497,68.7820164 Z M10.8500763,72.5684132 C10.7084261,72.8993062 10.7938978,73.2201601 10.3737625,72.7989139 C10.2614054,72.686073 9.99134716,72.7346628 9.86494545,72.4941228 C9.54593158,71.886147 10.0057931,71.7536291 10.5378841,71.7536291 C10.8107513,71.7536291 11.0218221,71.8299273 11.2770332,71.6793388 C11.4411548,71.5825606 11.4042375,71.2858009 11.5065627,71.2516675 C11.4824862,71.1544877 11.0555293,71.0055055 11.3753457,70.8480904 C11.5362571,70.7689812 11.3753457,70.3754433 11.6462065,70.4119861 C11.7625763,70.4276473 11.9896982,70.5617715 12.122119,70.6095582 C12.4945025,70.7436824 12.9575742,70.8360433 12.2782151,71.1609128 C11.7136207,71.431169 12.4784515,71.831132 12.4507635,72.231095 C12.4335086,72.4756507 11.8372135,72.4033682 11.6791111,72.4696271 C11.313148,72.6238297 11.3271926,72.5270515 10.964841,72.4941228 L10.8500763,72.5684132 Z M3.60224186,56.5088546 C3.47744524,56.2381969 3.59461763,55.2993279 3.38033662,55.1672116 C3.28764202,55.1097872 2.67369082,55.4181924 2.53525084,55.4796325 C2.15805206,55.6478901 1.62756611,55.2511396 1.91929325,54.9776709 L2.78965938,54.1628869 C3.46299933,53.5324231 3.72904485,55.0881025 4.43127662,53.9488505 C4.58897782,53.6930508 5.12066759,52.8059843 5.32612054,52.7144265 C5.51110845,52.6317032 5.75026853,52.7188438 5.94167685,52.6236718 L7.00024109,52.096813 C7.18924175,52.0028457 7.10698032,52.5815071 7.68963205,52.5493815 C8.06442318,52.5293031 7.69805883,52.0478215 7.62422418,51.9486339 C7.40873934,51.6603071 7.46411533,51.4197671 7.64870197,51.1422828 C8.48215077,50.4367256 8.91753447,50.1479972 9.14264991,49.0432802 C9.26584142,48.4405247 9.9062768,48.5983414 10.4066671,48.4585953 C10.813159,48.3449512 11.4319255,48.705962 11.6710856,48.5573813 C12.1859218,48.2369291 12.9403193,48.584688 13.4848499,48.7304577 C13.9715969,48.8601646 14.032992,50.0552347 14.8800841,50.1050293 C15.3808757,49.8958117 15.277748,50.1283204 15.4876149,49.5781704 C15.6292651,49.2063173 15.8632086,49.1834278 16.0457889,48.9195968 C16.5702557,48.1610325 17.5557878,47.424956 18.5657977,47.5365922 C19.2078382,47.5365922 19.4040618,47.8100609 20.092249,47.6189139 C21.0625327,47.3498625 22.0416444,47.2992648 22.7434749,46.4748431 C23.4332671,45.6648778 24.3128626,45.2978435 25.1816236,44.729623 C26.2847294,43.8220764 26.9552604,43.1659122 28.2842842,42.5976917 C28.5250494,42.49489 28.4223229,42.2467201 28.6289797,42.1366902 C29.4102627,41.721066 29.482091,41.8094112 30.0326407,41.074941 C30.0904243,41.0893975 30.1413863,41.2484189 30.2786224,41.2805445 C30.3813489,41.3050402 30.6811016,40.4047219 30.6811016,41.0090836 C30.6811016,41.5026123 30.2047878,41.8816937 30.2047878,42.3507266 L30.2296669,42.3507266 C30.2926671,42.1603827 30.8897647,41.8479618 31.0422493,41.6266972 C31.2376704,41.3419846 31.3640721,40.7428432 31.8383795,40.6304038 C32.044635,40.5818139 32.0775396,40.837212 32.3471966,40.6304038 C32.6381212,40.4075328 33.0129123,40.1143873 33.2504673,39.840517 C33.455519,39.5839143 33.9113677,39.4401525 33.9559093,39.1486132 C33.9936292,38.9020496 33.9603233,38.4281979 34.2516492,38.6301872 C34.6846252,38.930561 35.2841305,39.0096702 35.589501,39.4534042 C35.783317,39.7353059 35.8683874,40.0935057 36.057388,40.3673759 C36.294943,40.7115208 36.1175793,40.6934502 35.7945527,40.8444402 C35.6677497,40.9038725 35.760043,41.6182642 35.8848396,41.6182642 C36.1946242,41.6182642 35.6224056,42.5242045 35.6059533,42.7378394 C35.6151826,43.0619058 36.0248847,43.1639044 35.9915789,43.3960114 C35.0754674,43.3960114 35.6777816,43.7803132 35.8194318,44.4581622 C35.9747253,45.2010653 35.9691075,45.0789883 35.3844493,45.3881966 C34.7420076,45.7279242 34.1934643,46.0676518 33.4470922,46.1126276 C33.0401991,46.1371233 32.7428541,46.0110305 32.4210313,45.7339477 L31.4936841,44.935628 C31.3885499,45.3576773 30.4684257,45.2813792 30.1393799,45.2813792 C29.7064039,45.2813792 29.5234223,45.3175204 29.5234223,45.7010191 C29.5234223,46.0046054 28.7662158,46.2849008 29.5318491,46.5077717 C30.2477242,46.7161862 29.4371481,47.0816142 29.0968667,47.149881 C29.0968667,47.6658975 29.5202121,47.9020203 29.9832838,47.7341643 C30.7926561,47.4410187 30.4716359,46.9623482 30.8532487,47.9566337 C30.8825418,48.1963706 31.0434532,48.4850989 31.1405618,48.7055604 C31.2533201,48.96136 30.3556673,48.6224356 30.2541447,48.5822786 C29.8717293,48.4300839 29.8271877,48.0863406 29.8271877,48.6641988 C30.104469,48.6641988 29.958806,48.8248265 29.8520668,48.9111639 C29.6706904,49.0581382 29.6690853,49.7801598 29.8929969,49.8496313 C30.3299857,49.9849601 30.2457179,49.630776 30.2457179,50.2038154 C30.2457179,50.3616321 30.2553485,50.6571871 30.3364061,50.7880987 C30.5587126,51.1487079 30.1229276,51.0599611 30.1229276,51.4466723 C30.1229276,51.7586916 30.1883355,52.0988208 30.1883355,52.4260998 C30.1084817,52.7067967 30.3853617,52.5570113 30.3853617,52.7224579 C29.9495767,52.8316847 30.2934696,52.9589822 30.3035015,53.1750265 C30.3131321,53.3934801 30.0791886,53.3513154 29.933927,53.3067412 C29.7437225,53.2485136 29.8051176,53.2577497 29.6305628,53.3645672 C29.442766,53.479416 29.2613896,53.5621392 29.039083,53.5537063 C28.6466358,53.5388482 28.5242468,53.2288367 28.2594051,53.0107846 C28.2730485,53.0352804 28.1510608,52.6754743 27.972092,52.6072075 C27.7794799,52.5337203 27.5808486,52.6304985 27.4143194,52.4754928 C27.2758794,52.3473922 27.2606309,52.3859428 27.0776494,52.4425641 C26.9235597,52.4903508 26.4741313,52.4815163 26.3962839,52.6236718 C26.3718061,52.668246 26.8766105,52.7931341 26.9380056,52.8212439 C27.4107079,53.0372882 27.3717842,53.0714216 27.3565357,53.5456749 C27.3412873,54.0163141 27.5290841,54.3142785 27.7586136,54.6981787 C27.9090918,54.9491595 28.3729661,55.3053515 28.4074757,55.5454899 C27.93999,55.7017004 27.8444865,56.1474423 27.3071789,56.2373938 C27.0439423,56.2811648 26.8545403,56.1972368 26.6506925,56.4020372 C26.4303923,56.6233018 26.3228506,56.8228818 26.0515884,57.0441465 C25.7975812,57.2722378 25.2169358,57.3537564 25.5098668,57.9083235 C25.6274405,58.1315961 26.1932386,57.638469 26.4620931,57.9986766 L27.1679363,58.945577 C27.6394348,59.5772455 27.9732959,58.8214921 28.2349273,58.7560363 C28.4038643,59.4362946 28.8809806,59.5210258 29.5483014,59.6286463 C30.3063104,59.7507234 29.9567997,60.0599317 29.4824923,60.443832 C28.9110762,60.9060382 28.1691182,60.4157221 28.1691182,61.5136125 C28.1691182,61.7228301 27.5343007,61.5806746 27.3814148,61.9087567 C27.2132804,62.2693659 27.0166555,62.4271826 26.6177879,62.4271826 C26.6177879,61.75094 25.9962125,61.5505569 25.6988675,62.0653687 C25.4484717,62.4982604 25.1744006,61.9131739 24.8529791,62.5588973 C24.704106,62.858468 24.3429582,63.0006235 24.2378241,62.7155094 C23.9609441,61.9669842 24.037989,62.4761741 23.5400064,62.1312261 C22.6487739,61.5128094 24.4131814,61.5537694 23.6054142,60.6080738 C23.1965147,60.1290016 22.74508,59.9587363 22.9818324,59.3571855 C23.4196238,58.2436339 23.6623953,58.5833615 22.678067,57.9002922 C22.1042433,57.5015339 20.8045126,58.2231539 20.3635111,58.6656832 C19.7503624,59.7495187 19.306552,58.6769271 18.4426062,59.1098188 C18.1480702,59.2579979 17.7700688,59.2515728 17.4574754,59.4310742 C16.9450468,59.7258261 16.1216299,59.8278247 15.7010934,60.2213626 C15.266111,60.6281523 14.8519949,60.6811594 14.3632415,60.3615103 C13.9033801,60.0603333 13.3363781,61.1991838 13.4519453,61.2995761 C14.0237626,61.7967189 14.6196565,61.6706261 14.9623456,62.443647 C14.9856195,62.7480365 15.1982954,63.1736999 14.839154,63.258431 C14.4021652,63.3616343 13.9571509,63.8133998 13.4928754,63.7856915 C13.2416771,63.7704319 13.0410394,63.0038361 12.7131975,63.0038361 C12.6401654,63.2969817 12.4070245,63.6419297 12.2537373,63.9170046 C11.9752522,64.4177615 11.209619,63.397374 10.9812933,63.209038 C10.4407755,62.7645008 9.94680561,62.8383896 9.57763233,62.0982974 C9.58926932,62.1143602 9.59167697,62.124801 9.61053691,62.1312261 C9.56599535,61.9533309 9.6025114,61.9043394 9.6025114,61.7441133 C9.6025114,61.6348864 9.45444081,61.5501553 9.45444081,61.4393222 C9.45444081,61.1586253 9.43718598,61.1441688 9.17555448,61.102004 C8.98815892,61.0718863 8.81280161,60.8305432 8.67476291,60.8305432 C8.58567979,60.8305432 8.48054566,61.4260704 8.32164065,61.5051796 C8.21570397,61.5585883 8.03513008,61.4903215 7.93601508,61.4561881 C7.72935831,61.3839056 7.53473979,61.4638179 7.34493657,61.5465412 L6.45049393,62.3942539 C6.18364585,62.6472426 6.87022789,63.1628575 6.1796331,63.0777248 C5.47499368,62.9905843 5.03519595,63.8013527 4.8004499,64.3290147 C4.62950662,64.7129149 3.88393712,64.3185739 3.42166797,64.3780062 C3.23788389,64.4016988 2.38075985,64.5173507 2.29689331,64.6334042 C2.13638319,64.8562752 2.38397005,65.1711055 2.20660637,65.3164736 C2.07137659,65.4277083 1.66889747,65.5449665 1.50076312,65.6296976 C1.36272441,65.6987675 1.12637326,65.8152226 0.967468245,65.7445464 C0.788499462,65.6654373 1.2054245,65.402811 1.2054245,65.2835449 C0.881595331,65.2024279 1.5172154,64.5398386 1.5172154,64.2133628 C1.01241108,64.08727 0.715066082,63.9631851 0.392842017,63.522262 C0.0212610906,63.0134738 0.427351693,63.0078518 0.540511327,62.5673303 C0.642435253,62.1693751 0.0746307053,62.0079443 0.0561720416,61.5300769 C0.0345031754,60.9678799 -0.0585926939,60.4759575 0.0561720416,59.9001072 C0.0561720416,59.6684017 0.145656433,59.1559993 0.253198213,58.945577 C0.360739993,58.7351547 0.649658209,58.6150855 0.868754522,58.5584642 C1.08825211,58.5018429 1.38680093,59.4559715 1.62395463,59.4559715 C2.16728139,59.4559715 1.75517166,57.7902622 1.75517166,57.4308577 C1.75517166,56.9244788 2.13959339,57.0573982 2.48589398,56.9863205 C2.9565899,56.8899438 3.13756506,56.8409524 3.60224186,56.5088546 L3.60224186,56.5088546 Z M16.2343883,47.8000217 C16.1445026,47.3936336 15.881266,46.784453 16.4394399,46.6724151 C16.4394399,45.8419699 16.408943,45.4319677 16.8993014,44.68023 C17.2419905,44.1553789 17.5068322,43.5915757 17.5068322,42.9518758 C17.1830031,42.9518758 16.7347786,43.3088709 16.3411275,43.3305556 C15.9402535,43.3522404 16.0393685,42.7406504 15.4876149,42.9189471 L10.7678149,44.4416978 C10.29431,44.5946957 8.25222002,44.9292029 8.85533679,45.5693043 C9.13903843,45.8700797 9.94720688,46.6575571 9.41351073,47.1334167 C9.17715958,47.3442406 8.5921002,47.9313348 9.10974533,48.1622372 C9.65748612,48.4063913 10.1598828,48.1501901 10.702407,48.0224911 C11.4126643,47.8550367 12.0791825,48.091561 12.6558151,47.9891608 C12.7770003,48.0666637 13.0398356,48.1232849 13.18911,48.1542058 C13.5013022,48.2180553 13.8207173,48.3919348 14.1413363,48.4834926 C14.5915672,48.6115932 14.9703711,48.7922994 15.4466849,48.7220247 C15.7251699,48.6810647 16.1469102,48.3851081 16.2592673,48.1377414 L16.2343883,47.8000217 Z M8.5595969,39.6264806 C8.52990253,39.4923565 8.54234206,39.3542166 8.52267957,39.2188878 C8.50141198,39.0739213 8.67115143,39.03778 8.63744431,38.9020496 C8.54113823,38.878357 8.40992121,38.90727 8.32164065,38.8482393 C8.17557644,38.750658 8.01586887,38.6390218 7.9195628,38.4944568 C7.87863272,38.4334183 7.83449243,38.4189618 7.79637128,38.3462777 C7.752231,38.2623498 7.6499058,38.2876486 7.58289282,38.3298134 C7.58289282,38.4209696 7.8284733,38.6470531 7.89067098,38.7454376 C8.0234931,38.9558599 8.16233435,39.0674962 8.21490142,39.3257052 C8.25101619,39.5027973 8.2542264,39.8300762 8.52669232,39.7497624 L8.5595969,39.6264806 Z M7.32086005,34.2595072 C7.3573761,34.0996826 7.38105135,34.1053046 7.29598098,33.9876448 C7.22535653,33.8892603 7.41355465,33.55395 7.45207707,33.4443216 C7.49180333,33.3318822 7.45287962,33.3029692 7.42719801,33.2057894 C7.40151639,33.1062002 7.53955509,32.890156 7.40272021,32.9588243 C7.24501902,33.0379335 7.01187807,32.7347487 6.94326,32.6295375 C6.88387125,32.5391844 6.8505654,32.5480189 6.74623382,32.5801445 C6.61902955,32.6190967 6.46774877,32.5881759 6.33572919,32.5881759 C6.33934067,32.5998214 6.61742445,32.7500083 6.66437366,32.785748 C6.82247613,32.9070219 7.06645151,33.0640355 7.06645151,33.2716468 C7.06645151,33.4105898 7.04598647,33.522226 7.00866787,33.649925 C6.95008168,33.8543238 6.9448651,33.9157639 6.95931101,34.1109266 C6.96492886,34.1840122 6.9187822,34.2305942 6.89390313,34.2924359 C6.84013224,34.4249538 7.11299945,34.3281756 7.14831167,34.3253646 L7.32086005,34.2595072 Z M86.2914376,33.2387181 C86.1802843,33.0624292 86.0819719,32.8082358 86.0450545,32.6046402 C86.0161627,32.4448156 86.0418443,32.2456373 86.0041245,32.0942457 C85.9435319,32.0942457 85.9170477,32.1215524 85.8644807,32.1520716 C85.762958,32.2107008 85.4186638,32.270133 85.4294982,32.4070681 C85.4319059,32.4375874 85.5013265,32.5472158 85.5197852,32.5801445 C85.6261231,32.7728977 85.4928997,33.0226738 85.5936198,33.2142224 C85.6919323,33.400149 85.9680097,33.4190227 86.1517938,33.3704328 L86.2914376,33.2387181 Z M99.3096108,3.47400168 C99.2899483,3.5338355 99.3031904,3.48885974 99.2686807,3.51496175 C98.8790424,3.28004372 98.4099516,3.3547356 98.3658113,2.73270479 C98.3377221,2.33836376 98.3116392,1.90466894 98.1932629,1.54767386 C98.1134092,1.54767386 97.6246558,1.9496447 97.5612543,2.03317111 C97.3971328,2.24921538 97.3497823,2.25282951 97.4300373,2.52710132 C97.543197,2.91381254 97.3297185,3.3952941 97.6519426,3.73702956 C97.8409432,3.93861733 98.2959894,3.96712875 98.5463852,4.09924505 C98.7542458,4.20927503 98.8060103,4.34580858 99.0632278,4.41206751 C99.2787126,4.46748407 99.7313512,4.45463386 99.8842371,4.28838417 C100.134232,4.01692334 99.9496449,3.71936051 99.6133762,3.61374779 L99.3096108,3.47400168 Z M71.2460215,69.185192 C71.1152058,69.205672 70.9494791,68.5483031 70.8599947,68.8233781 C70.7673001,69.1105001 69.7388315,69.3514417 69.4483082,69.5148804 C68.9238414,69.8088291 68.8973572,70.066235 68.8162996,70.5930939 C68.7228024,71.1990619 67.8355828,71.9805157 68.9884467,72.1407419 C69.2962249,72.1833082 69.4860281,72.4780601 69.7765514,72.3953368 C69.9643482,72.3423297 70.2560754,72.0552076 70.4005345,71.9182725 C70.5799045,71.7484087 70.6035798,71.9070286 70.7203509,72.0170585 C70.8748419,72.1628282 71.625628,72.0005942 71.8944824,72.0415543 C72.5798606,72.1467654 71.6143923,71.1135277 71.8860556,70.6669826 C72.2070759,70.1385175 72.1039481,69.7903569 71.590717,69.4156928 L71.2460215,69.185192 Z" id="Fill-1"></path>
            </g>
        </g>
    </g>
</svg>