<?xml version="1.0" encoding="UTF-8"?>
<svg width="120px" height="120px" viewBox="0 0 120 120" version="1.1" xmlns="http://www.w3.org/2000/svg" xmlns:xlink="http://www.w3.org/1999/xlink">
    <title>jdo_cn_ximalaya_radio_province_hunan</title>
    <g id="jdo_cn_ximalaya_radio_province_hunan" stroke="none" stroke-width="1" fill="none" fill-rule="evenodd">
        <g id="编组">
            <rect id="矩形" x="0" y="0" width="120" height="120"></rect>
            <g id="湖南" transform="translate(30.000000, 26.000000)" fill="#FFFFFF" fill-opacity="0.189284" fill-rule="nonzero">
                <path d="M23.3503078,0.0825815651 C23.5051589,0.112317446 23.6445605,0.0890045155 23.7248977,0.106132383 C23.9640076,0.157159155 23.8027391,0.324393752 23.8231799,0.487822156 C23.8435019,0.651250559 23.8797487,0.718929425 24.318632,0.81087277 C24.7575153,0.902816115 25.3916559,0.921133418 25.4835207,0.921133418 C26.0541997,0.921133418 26.6348615,0.96775928 27.182604,1.08515654 C27.3430406,1.11965016 27.3143997,1.29330771 27.3915281,1.37014523 C27.4460766,1.42438347 27.5438835,1.43425579 27.6258844,1.43092537 L27.7056274,1.42450242 C27.744964,1.41938785 27.7712281,1.41344067 27.7712281,1.41344067 C27.8280346,1.42129094 27.810446,1.42176672 27.8172199,1.47600496 C27.8336201,1.60636707 27.8805627,1.71888764 27.9729029,1.80095867 C28.1604355,1.96783644 28.3063734,2.09308397 28.3063734,2.1972785 C28.3063734,2.30171092 28.6815574,2.15564827 28.6815574,2.34334115 C28.6815574,2.53115298 28.7440683,2.69803074 29.0359441,2.57290215 C29.117945,2.53769487 29.1900821,2.49582675 29.2515234,2.45395863 L29.2868194,2.46656664 C29.2868194,2.46656664 29.4106527,2.55517957 29.5965215,2.57290215 C29.7822715,2.59062474 29.8265995,2.56410033 30.0212626,2.46656664 C30.2159257,2.3691519 30.3132573,2.60834732 30.339759,2.79425605 C30.3663796,2.98028373 30.6052519,2.88286898 30.6052519,2.88286898 L30.739068,2.8337453 C30.9294527,2.85824767 31.2610218,2.89952107 31.4328672,2.91296169 C31.4685198,2.91581634 31.4972795,2.91748155 31.5164131,2.91748155 C31.6700757,2.91748155 32.143542,2.91748155 32.2458649,2.80210633 C32.2779523,2.76618538 32.3449791,2.72503092 32.4218699,2.68577956 C32.4536007,2.6694843 32.4871141,2.65354586 32.5205087,2.63832109 C32.5650744,2.62285843 32.5642425,2.64010525 32.6057183,2.66722437 C32.6466,2.69422455 32.6987716,2.7263393 32.7231342,2.73252436 C32.7665115,2.74358611 32.8210599,2.74418083 32.8884433,2.72336571 C32.931583,2.71016298 32.9678297,2.70409686 32.998491,2.70362109 C33.1314751,2.70183694 33.1588087,2.80698301 33.180438,2.90059157 C33.2069397,3.0157289 33.2335603,3.0157289 33.3219787,3.02453072 C33.410516,3.03345148 33.4901401,3.10422288 33.5874716,3.15739064 C33.684922,3.21055839 33.6935975,3.25480538 33.7290124,3.32569573 C33.7645461,3.39658607 33.985711,3.36994272 34.2068758,3.3876653 C34.4281595,3.40538789 34.3662429,3.36994272 34.445867,3.51160446 C34.5254911,3.65338514 34.6317358,3.65338514 34.8263989,3.64446437 C35.021062,3.63566255 34.8884344,3.75960171 34.8174857,3.89258057 C34.7466559,4.02532154 34.9326436,4.18482481 35.0652712,4.23787362 C35.1421619,4.26879894 35.260885,4.34730166 35.3470454,4.40784392 L35.4006432,4.44400275 C35.4391479,4.47171659 35.4545974,4.48587087 35.4545974,4.48587087 L35.5336273,4.49467269 C35.5648827,4.52167287 35.6061209,4.55224136 35.6366633,4.58019309 L35.6972726,4.59161166 C35.6972726,4.59161166 35.8050623,4.57353225 35.8142131,4.69949344 C35.8230074,4.82533569 35.9038199,4.87041529 35.9307971,4.7534938 C35.957893,4.63657232 35.8769617,4.50169036 35.9847513,4.46565047 C36.0253952,4.47813954 36.0099458,4.4963379 36.0176705,4.53630293 C36.0440534,4.67249326 36.1277182,4.7939346 36.1304515,4.93928359 C36.1318776,5.02278194 36.0725755,5.11222747 36.0782799,5.18537774 C36.0825582,5.23949705 35.9779773,5.31645351 35.9893861,5.36129522 C36.0086385,5.43634858 36.0861235,5.561834 36.1215384,5.59965804 C36.1612316,5.64212088 36.3151319,5.54232726 36.3491207,5.57230103 C36.418049,5.63331906 36.4577422,5.69255293 36.47747,5.755593 C36.4918499,5.8015052 36.4988615,5.83718826 36.5304735,5.84860684 C36.5622043,5.86002542 36.6179412,5.84753635 36.6657156,5.86145274 C36.7056465,5.86430739 36.7485485,5.86894618 36.7908562,5.87643962 C36.9413101,5.90296403 36.9148083,5.88524145 37.0740566,5.83207369 C37.1337152,5.81221012 37.1899274,5.81970356 37.2363946,5.83683143 L37.266224,5.85193726 C37.266224,5.92032979 37.2693139,5.98170464 37.2756125,6.03380191 C37.2817923,6.08399608 37.2884474,6.12705363 37.2958156,6.16392613 C37.3050853,6.21126565 37.2935576,6.25218222 37.3414509,6.22173268 C37.3773412,6.22173268 37.5093746,6.21269297 37.535401,6.19520827 C37.5720043,6.17094379 37.6065873,6.1332387 37.6050424,6.08007094 C37.6026655,5.9971673 37.6965506,5.91378789 37.8011316,5.86014436 C37.9039298,5.80757132 37.9282924,5.77486185 37.8941848,5.88298152 C37.8694657,5.96112741 37.850451,6.03915437 37.8397552,6.12277167 C37.8273956,6.21804543 37.8061229,6.25860517 37.8763585,6.32485672 C37.8890746,6.33805945 37.9134372,6.36613012 37.9307881,6.38004651 L37.9710755,6.41002028 C38.0253863,6.44736855 38.0979987,6.48721463 38.1950926,6.53015324 C38.6255381,6.72070077 38.6226859,6.90375485 38.5164412,7.10750511 C38.4103154,7.31125537 38.3305724,7.40867012 38.2775689,7.57685626 C38.244412,7.68200234 38.2422728,7.74230671 38.2584354,7.78560215 C38.2931372,7.87956753 38.3101316,7.84578757 38.3630163,7.79523657 L38.4216053,7.73933312 C38.4216053,7.73933312 38.7392699,7.44292585 38.8080793,7.33349781 C38.8770077,7.22395082 39.1072045,7.4099785 39.2386437,7.3318326 C39.3413231,7.27069563 39.3649727,7.15532041 39.452678,7.06480439 C39.5522676,6.96227507 39.71211,6.88401023 39.7499017,6.8147851 C39.8635146,6.60603921 39.7939921,6.27965818 39.9836638,6.20377221 C40.1732167,6.12776729 40.6220828,6.24552138 40.7167998,6.32140735 C40.8116356,6.39729332 40.6979039,6.54906526 41.133935,6.47317929 C41.2292462,6.45664614 41.2832005,6.34793176 41.3806509,6.34198458 C41.7286201,6.32009897 42.1216304,6.47793703 42.2992991,6.56678785 C42.5267626,6.68073574 42.6747208,6.86022152 42.8074672,6.27204579 C42.9400948,5.68375111 43.1765903,6.06829553 43.4988897,5.76475165 C43.8213078,5.46108883 43.896416,5.06798048 43.896416,5.06798048 L44.088108,4.76312823 C44.088108,4.76312823 44.2409387,4.62384536 44.407674,4.42913481 C44.5744092,4.23442426 44.810667,4.19267508 44.9495933,4.17887763 C45.0886383,4.1648423 45.1997555,4.49871677 45.1859699,4.69342732 C45.1720654,4.88813787 45.2275646,5.26364258 45.2275646,5.44443674 C45.2275646,5.6252309 45.5195592,5.36105733 45.561035,5.29147537 C45.6028674,5.22201235 45.8135742,4.98579051 45.8135742,4.98579051 C45.8135742,4.98579051 45.8386498,4.98043805 45.9162536,4.79893023 C45.9942139,4.61742241 46.1584535,4.41498053 46.2619648,4.46683991 C46.365595,4.51869928 46.1659405,5.25674386 46.1659405,5.25674386 L46.0293911,5.46905805 C45.9320596,5.5664728 45.5958557,5.80554928 45.4541961,5.9118848 C45.3126554,6.01810136 45.1267866,6.15096128 45.1002848,6.30154378 C45.0737831,6.45212629 45.2570374,7.09287506 45.2684462,7.24036503 C45.279855,7.38797394 45.374572,7.70983512 45.3833663,7.88694203 C45.3922795,8.06404894 45.374572,8.1437411 45.5339391,8.19690886 C45.6933061,8.24995767 45.9143521,7.95771343 46.0914266,7.80724987 C46.2683823,7.65666737 46.4807528,7.66546919 46.6310879,7.74516135 C46.7816606,7.82497246 46.7878404,8.1410054 46.7790461,8.28266714 C46.7702518,8.42432888 46.7019177,8.6397356 46.8614036,8.6397356 C47.0205329,8.6397356 46.9940312,8.50687569 47.0028255,8.36521395 C47.0116198,8.22343327 47.0382404,8.19690886 47.2064017,8.22343327 C47.3744443,8.24995767 47.3390294,8.29432361 47.5339301,8.28540284 C47.7284744,8.27660102 47.7195613,8.28540284 47.9143432,8.04632636 C48.1088875,7.80724987 48.1532155,7.66546919 48.2505471,7.49728304 C48.3478786,7.32897796 48.592693,7.02757506 48.7607355,6.90351697 C48.9288969,6.77957781 49.2774603,6.33413431 49.374673,6.13930482 C49.4720045,5.94459426 49.8230636,5.51937116 49.9644856,5.39531307 C50.1061451,5.27137391 50.4539955,4.76931329 50.6752792,4.62765155 C50.8964441,4.48587087 50.9141515,4.43282206 51.2327668,4.18482481 C51.5512632,3.93682756 51.6308873,3.76852247 51.8079618,3.60021738 C51.9849174,3.43203124 52.0733358,3.44083306 52.1441656,3.48508005 C52.2149954,3.52944598 52.2062011,3.65338514 52.1441656,3.7330773 C52.082249,3.81276946 52.0379209,4.03424231 51.9937117,4.31756578 C51.9495025,4.60112715 51.8786727,4.89337139 51.8256692,5.06155753 C51.7725469,5.22986262 51.8167561,5.30955478 51.9319139,5.44253364 C52.0468341,5.57527462 52.082249,5.53982945 52.2858252,5.55755203 C52.4892826,5.57527462 52.5513181,5.58419538 52.7370681,5.60191797 C52.8075413,5.63879046 52.8384403,5.63046441 52.9164006,5.59727917 C53.0351237,5.547085 53.1653744,5.45775842 53.1947284,5.52900559 C53.2466623,5.65591833 53.2230128,6.01691193 53.3424489,6.03189881 C53.4616474,6.0468857 53.5959388,6.0542602 53.5810836,6.15881155 C53.5662283,6.26324397 53.5274858,6.22351683 53.6094868,6.2608651 C53.6916066,6.29821337 53.7721814,6.37552666 53.7796684,6.43523631 C53.7871555,6.4950649 53.8661854,6.52765543 53.9108699,6.55001681 C53.9556734,6.57237819 53.9437892,6.77803155 53.8169848,6.81537981 C53.6902993,6.85284702 53.6306406,6.9424115 53.5857184,7.02448253 C53.5411527,7.10655356 53.5170277,7.21407851 53.34542,7.24393333 C53.1739311,7.27378816 52.6606527,7.62597994 52.9440907,7.65583476 C53.2275288,7.68580853 53.285286,7.64394041 53.285286,7.64394041 L53.3842813,7.64631928 C53.3977104,7.64667611 53.9486617,8.10829593 54.0202045,8.15266187 C54.2060733,8.2677992 54.152951,8.40946094 54.0998286,8.48023234 C54.0468251,8.55112268 54.0202045,8.76367476 53.9673199,8.93197985 C53.9139598,9.10028493 53.7813322,9.01167201 53.5865503,9.02059277 C53.3918872,9.02939459 53.3210574,9.03831536 53.2503464,9.1357301 C53.1795166,9.23314485 53.1176,9.39252918 53.1795166,9.57855685 C53.2415521,9.76446558 53.1707223,9.75566376 53.0467702,9.8265541 C52.9229369,9.8973255 52.8609014,9.93277067 52.8343996,10.0833532 C52.8080167,10.2339357 52.7370681,10.3757164 52.657444,10.5704269 C52.5778199,10.7653753 52.6751514,10.8185431 52.8080167,10.8096223 C52.9406443,10.8007016 52.9848535,10.8096223 53.0733908,10.99565 C53.1618092,11.1815587 53.2680539,11.1107873 53.4095946,11.0310952 C53.5513731,10.951403 53.5865503,11.2347265 53.577756,11.3233394 C53.5688428,11.4119523 53.4716301,11.5446933 53.2857613,11.8104132 C53.1000114,12.076133 53.2945556,12.2177947 53.4450095,12.3329321 C53.5954634,12.4480694 53.5513731,12.6518197 53.5159582,12.7846796 C53.4804244,12.9175395 53.5159582,12.9175395 53.5865503,12.9086187 C53.6573801,12.8998169 53.6485858,12.9086187 53.7901265,12.6872648 C53.9317861,12.465792 54.0024971,12.6340971 53.9847896,12.8201247 C53.9673199,13.0060335 54.0291177,13.1743386 54.1087418,13.1743386 C54.1883659,13.1743386 54.3299066,13.0503994 54.3742347,12.8555699 C54.4184439,12.6606215 54.5866052,12.6872648 54.8254775,12.6428989 C55.0644687,12.5986519 55.0821761,12.6960666 55.0910893,12.8732925 C55.0997647,13.0503994 55.1440928,13.0769238 55.4094668,13.068122 C55.6749597,13.0592012 55.6308694,13.2009819 55.5953356,13.3603662 C55.5599207,13.5197506 55.7280821,13.5197506 55.8608285,13.5197506 C55.993575,13.5197506 56.0556105,13.4488602 56.1617363,13.3249211 C56.2678622,13.2009819 56.338692,13.2894759 56.338692,13.3958114 C56.338692,13.502028 56.3918143,13.6171653 56.4095218,13.8121137 C56.4272292,14.0068243 56.5069722,13.9626962 56.4714384,14.060111 C56.4360235,14.1574068 56.5069722,14.2902667 56.5245608,14.4852152 C56.5423871,14.6800446 56.7280182,14.6268769 56.7900537,14.5471847 C56.8519703,14.4673736 56.8343817,14.3611571 56.9403887,14.4143248 C57.0466334,14.4673736 57.0377203,14.6002335 57.0023054,14.7153709 C56.9670093,14.8306272 56.9583339,14.8748741 57.0821672,14.9013985 C57.2060005,14.9280419 57.1793799,15.0254566 57.2235891,15.1228714 C57.2677983,15.2202861 57.2767114,15.2025636 57.3741618,15.1051488 C57.4713745,15.0077341 57.5687061,15.0254566 57.6219473,15.1140696 C57.6749508,15.2025636 57.6219473,15.2557313 57.5509986,15.3354235 C57.4802877,15.4151156 57.5953267,15.7517258 57.7368674,15.831418 C57.8784082,15.9111101 57.9846529,15.9642779 58.0996919,15.875665 C58.2148497,15.787171 58.3562717,15.8402198 58.3740979,15.919912 C58.3916865,15.9996041 58.4538409,15.9908023 58.524433,15.8933875 C58.5952628,15.7959728 58.6218834,15.8844668 58.5952628,16.0704945 C58.5686422,16.2565221 58.5863497,16.2476014 58.4980501,16.3539369 C58.409394,16.4602724 58.4980501,16.5754097 58.5776742,16.6461811 C58.6571794,16.7170715 58.6662114,16.911901 58.6040571,16.9827913 C58.5422593,17.0535627 58.5952628,17.1864226 58.5863497,17.2750355 C58.5776742,17.3636485 58.4802238,17.5318346 58.3474773,17.5672798 C58.2148497,17.602725 58.3032681,17.7975544 58.3740979,17.8329996 C58.4448089,17.8684448 58.4448089,18.2935489 58.3828922,18.3732411 C58.3208568,18.4529333 58.294355,18.5150218 58.3651848,18.5857932 C58.4360146,18.6566835 58.3916865,18.807266 58.294355,18.9224034 C58.1970234,19.0375407 58.0907788,19.0552633 58.0023603,19.196925 C57.9139419,19.3387057 57.9404437,19.3564283 58.0023603,19.4183979 C58.064277,19.4803674 58.0200678,19.49809 58.2412327,19.542337 C58.4625163,19.586703 58.524433,19.6839988 58.5952628,19.8257794 C58.6662114,19.9674412 58.9403798,20.0294108 59.0642131,20.0294108 C59.1881652,20.0294108 59.3916227,20.1357463 59.3916227,20.2951306 C59.3916227,20.4546339 59.2235801,20.5520486 59.0642131,20.6583841 C58.9049649,20.7646007 59.0907149,20.879738 59.1617823,20.879738 C59.2323745,20.879738 59.2856156,20.923985 59.3032043,21.0657657 C59.3209117,21.2074274 59.5332823,21.2516744 59.6925305,21.2516744 C59.8517787,21.2516744 59.8871936,21.4908698 59.8253957,21.5528394 C59.7633603,21.614809 59.7545659,21.6767786 59.7987752,21.7122237 C59.8429844,21.7476689 59.8606918,21.8185593 59.7899808,21.871727 C59.719151,21.9248948 59.674823,21.9956662 59.7721546,22.0576357 C59.8694861,22.1196053 59.8164826,22.217139 59.7456528,22.2436634 C59.674823,22.2701878 59.6218195,22.3410782 59.5066617,22.4384929 C59.3916227,22.5359077 59.4182433,22.6245206 59.3209117,22.5979962 C59.2235801,22.5713528 59.1881652,22.6155998 59.1881652,22.6864902 C59.1881652,22.7573805 59.1970784,22.8016275 59.1173355,22.8458745 C59.0377114,22.8902404 59.0554188,22.9167648 59.0554188,23.0319022 C59.0554188,23.1470395 58.9668816,23.1027925 58.8253408,23.0762681 C58.6836812,23.0496247 58.639472,23.1027925 58.6483851,23.1824847 C58.6571794,23.2621768 58.5509348,23.3950367 58.418426,23.5190948 C58.2854419,23.643034 58.2589401,23.6607566 58.2324383,23.8555861 C58.2059366,24.0504156 58.0111546,23.988446 57.8607007,24.032693 C57.7104845,24.0770589 57.6749508,24.1567511 57.6219473,24.0858607 C57.5687061,24.0150893 57.4094579,24.0681382 57.2767114,24.0504156 C57.143965,24.032693 57.1970873,24.1213059 57.0643409,24.1743547 C56.9315944,24.2275225 57.0200128,24.333858 57.1173444,24.4312727 C57.2147948,24.5286875 57.2677983,24.7856055 57.2767114,24.8830202 C57.2855057,24.980435 57.4448728,25.0513253 57.3475412,25.1132949 C57.2503285,25.1752645 57.4182522,25.2726792 57.5069083,25.2992036 C57.5953267,25.325847 57.6395359,25.4587069 57.559793,25.5560027 C57.4802877,25.6535364 57.4536671,25.6977834 57.383075,25.7951981 C57.3121263,25.8926129 57.0466334,25.6535364 56.8696778,25.6535364 C56.6926033,25.6535364 56.683809,25.7509512 56.7280182,25.8483659 C56.7723462,25.9457806 56.7103107,25.9723051 56.5776831,25.9635032 C56.4448178,25.9545825 56.4626441,25.9900276 56.3476051,26.0786406 C56.2325661,26.1672535 56.2678622,26.2203023 56.1352346,26.3001134 C56.0023693,26.3796866 55.878536,26.317717 55.763497,26.1760553 C55.648458,26.0343936 55.5511264,26.1318083 55.5070361,26.3443604 C55.4625892,26.5569125 55.3387559,26.5834369 55.2592506,26.5746351 C55.1795077,26.5658332 55.0821761,26.5834369 54.967256,26.6543272 C54.8519793,26.7252176 54.8519793,26.8403549 54.7900626,26.8137115 C54.728146,26.7871871 54.6308144,26.795989 54.5687789,26.8935227 C54.5069811,26.9908185 54.3653215,27.398319 54.26799,27.6196729 C54.1706584,27.8410268 54.3477329,27.9740056 54.4627719,27.9917282 C54.5776921,28.0094508 54.613107,28.1953595 54.6219013,28.3636646 C54.6308144,28.5319697 54.6396087,28.6205826 54.5866052,28.735601 C54.5334829,28.8507384 54.3034049,29.1785467 54.1175361,29.2936841 C53.9317861,29.4087024 53.9582879,29.4885135 53.9405804,29.6389771 C53.9229918,29.7895596 53.807834,29.8692518 53.7192967,29.9401421 C53.6308783,30.0110325 53.5246336,30.2146638 53.4893376,30.374167 C53.4538038,30.5335514 53.347678,30.5512739 53.1530149,30.6574905 C52.9583518,30.763826 52.9583518,31.064991 52.9052294,31.3572353 C52.8521071,31.6493606 52.7901904,31.6761229 52.7282738,31.7470132 C52.6663571,31.8176657 52.5956462,31.9948915 52.6663571,32.1189496 C52.7370681,32.2428888 52.8521071,32.2960565 53.0379759,32.2783339 C53.2238447,32.2606113 53.1707223,32.4643616 53.0910982,32.6503893 C53.0113553,32.836298 53.0113553,32.8450998 52.8787277,32.8540206 C52.7459812,32.8629414 52.7547755,32.9249109 52.8256053,33.0223257 C52.8963163,33.1197404 52.8698145,33.225957 52.8434316,33.3676187 C52.816811,33.5093994 52.8521071,33.5980123 52.9937667,33.5359238 C53.1354263,33.4740732 53.2061372,33.5537654 53.232639,33.6245367 C53.2592596,33.6954271 53.1176,33.7573967 52.9848535,33.8548114 C52.8521071,33.9523451 52.93185,34.1117294 53.002561,34.3065589 C53.0733908,34.5013884 53.2503464,34.474864 53.3210574,34.3862511 C53.3918872,34.2976382 53.4538038,34.3596077 53.5423411,34.4039737 C53.6308783,34.4482207 53.7105024,34.5988032 53.7547116,34.5900013 C53.7990397,34.5810806 54.1087418,34.5722788 54.1175361,34.5013884 C54.1263304,34.4304981 54.2593145,34.3330833 54.3299066,34.3508059 C54.4007364,34.3685285 54.4272382,34.4482207 54.4715662,34.3508059 C54.5157754,34.2533912 54.6485219,34.2799156 54.8963073,34.1825008 C55.1440928,34.0850861 55.1972151,34.129452 55.2768392,34.1825008 C55.3564633,34.2356686 55.41838,34.1026897 55.4094668,34.0320373 C55.4006725,33.9611469 55.5157115,33.9343846 55.5688339,34.0053939 C55.6219562,34.0762843 55.6838729,33.9787506 55.8077062,33.9434243 C55.9316583,33.9079792 55.922864,33.9523451 55.9050377,34.1825008 C55.8874491,34.4128944 55.7812044,34.6165258 55.7192878,34.7493857 C55.6572523,34.8822456 55.6926672,34.9175718 55.8077062,34.9619377 C55.922864,35.0061847 55.8874491,35.1390447 55.7990307,35.2275386 C55.7104935,35.3161516 55.7280821,35.4756548 55.7280821,35.5907922 C55.7280821,35.7059295 55.648458,35.9716493 55.5070361,36.0690641 C55.3652576,36.1664788 55.3210484,36.2637746 55.2856335,36.4321987 C55.2502186,36.6003848 55.0910893,36.7774917 54.9405165,36.9635194 C54.7900626,37.1495471 54.8254775,37.4240687 54.8608924,37.5037609 C54.8963073,37.583572 54.9759314,37.6011756 55.0468801,37.5216024 C55.1174722,37.4417913 55.1528871,37.4329895 55.2060094,37.4507121 C55.2592506,37.4684347 55.2856335,37.7341545 55.2944278,37.9909536 C55.303341,38.2477526 55.3652576,38.1680605 55.4537949,38.1592587 C55.5423321,38.1503379 55.5953356,38.1857831 55.6130431,38.3097222 C55.6308694,38.4337803 55.6308694,38.4692255 55.7722913,38.4248595 C55.9139509,38.3806126 55.9050377,38.4425821 55.9050377,38.5843628 C55.9050377,38.7260245 55.9404526,38.7879941 56.0289899,38.8323601 C56.1174083,38.8766071 56.1617363,38.9120522 56.1617363,39.0182688 C56.1617363,39.1246043 56.2502736,39.1246043 56.3653126,39.1246043 C56.4802327,39.1246043 56.5333551,39.1246043 56.5510625,39.1865739 C56.56877,39.2485435 56.56877,39.3371564 56.4272292,39.399126 C56.2855696,39.4612145 56.3653126,39.7268154 56.2855696,39.7977057 C56.2059455,39.8685961 56.2059455,39.912843 56.1794438,40.1431177 C56.1528232,40.3733924 56.0377842,40.4088375 55.9671921,40.4885297 C55.8962434,40.5682219 55.7901176,40.7896947 55.6661654,40.9313565 C55.5423321,41.0730182 55.5953356,41.1705519 55.7457895,41.3210154 C55.8962434,41.4715979 55.8608285,41.7639611 55.8608285,42.0030376 C55.8608285,42.1146066 55.8530642,42.1837979 55.8511593,42.2374956 C55.8541369,42.2739653 55.863863,42.3535583 55.8865222,42.3954442 C55.94832,42.5105815 55.9130239,42.7585788 55.8865222,42.9002405 C55.8599016,43.0420212 55.9307314,43.0685456 56.00168,42.9711309 C56.0722721,42.8737161 56.107687,42.9711309 56.107687,43.09507 C56.107687,43.2191281 56.1431019,43.2191281 56.222726,43.2279299 C56.3023501,43.2368507 56.337765,43.307741 56.4350966,43.3874332 C56.5324281,43.4671254 56.8952526,43.4759272 56.9572881,43.4228784 C57.0190859,43.3697106 57.0457065,43.3342654 57.1076231,43.3786314 C57.1695398,43.4228784 57.2086388,43.400517 57.3507737,43.4182396 C57.4930275,43.4360811 57.5463876,43.6588623 57.7063488,43.7836341 C57.8664289,43.9084058 58.1774383,43.8282379 58.3907596,43.8013567 C58.6040809,43.7747133 58.559634,43.9708512 58.4974796,44.0599399 C58.4352065,44.1490286 58.4262933,44.0420984 58.3730521,44.3361268 C58.3196921,44.6302741 58.2663321,44.7550459 58.2218852,44.9065799 C58.1774383,45.058114 58.3284864,45.0401535 58.4618271,44.9599855 C58.5951677,44.8798176 58.6219072,44.9689063 58.5685471,45.022312 C58.5151871,45.0758365 58.4796534,45.2006083 58.3818464,45.3343008 C58.2841584,45.4678744 58.3018658,45.6103687 58.364139,45.7798633 C58.4262933,45.9491199 58.2663321,45.9224766 58.1240783,45.9224766 C57.9819433,45.9224766 57.8664289,46.1451388 57.7952426,46.2700295 C57.7241751,46.3948013 57.7863295,46.5283749 57.8486026,46.715592 C57.910757,46.9026901 57.7597089,46.9205317 57.8130689,47.0006996 C57.8664289,47.0809865 57.8396895,47.1076298 57.7507957,47.2056393 C57.6619019,47.3037677 57.6263682,47.3928564 57.6529888,47.562113 C57.6797282,47.7314886 57.6263682,47.7048453 57.6263682,47.7048453 C57.6263682,47.7048453 57.4931464,47.8027358 57.3598057,47.8651812 C57.2264651,47.9276265 57.2264651,47.9987547 57.173105,48.221536 C57.119745,48.4444361 57.1019187,48.4265946 56.9774912,48.5067625 C56.8531825,48.5869305 56.7998225,48.6672173 56.8887163,48.7117022 C56.9774912,48.756306 56.8353562,48.8097117 56.9153369,48.9612457 C56.9953175,49.1127798 57.0486775,49.068176 57.1553976,49.068176 C57.2619988,49.068176 57.2797063,49.0591363 57.2797063,48.9435232 C57.2797063,48.8275532 57.4753201,48.7207419 57.4753201,48.7207419 C57.4753201,48.7207419 57.6619019,48.6672173 57.8308952,48.6582966 C57.9997696,48.6493758 58.0262713,48.6761381 58.0796314,48.8009099 C58.1329914,48.9255627 58.2130909,48.9078401 58.3552258,48.8810778 C58.4974796,48.8543155 58.4974796,48.8275532 58.559634,48.7117022 C58.6219072,48.5958512 58.7106821,48.5424456 58.861849,48.5067625 C59.0128972,48.4711984 59.0840835,48.4355154 59.2529579,48.3285851 C59.4218323,48.221536 59.4661603,48.2750605 59.4839866,48.3910305 C59.5018129,48.5068815 59.5373466,48.5156833 59.6706873,48.4355154 C59.804028,48.3553474 59.8572692,48.3641492 59.8750954,48.4265946 C59.8928029,48.488921 59.8928029,48.5781286 59.9462818,48.6135738 C60,48.6493758 60.0084361,48.7117022 59.9284555,48.7918702 C59.848356,48.872157 59.848356,48.9167609 59.9462818,48.952325 C60.0439698,48.988008 60.0084361,49.0860175 59.8395617,49.21971 C59.6706873,49.3534025 59.6351536,49.4157289 59.3950928,49.4335705 C59.155151,49.4512931 59.0928778,49.5849856 58.7995759,49.6563517 C58.5063928,49.7277178 58.6840615,49.8077668 58.7640421,49.8435688 C58.8441416,49.8791329 58.8263153,49.9593009 58.6396146,50.0574293 C58.4529139,50.1554387 58.4707402,50.0751519 58.1774383,50.0217462 C57.8841364,49.9683406 57.8841364,50.0840726 57.8841364,50.2089633 C57.8841364,50.3337351 57.7775352,50.4851502 57.6086608,50.6634465 C57.4397864,50.8416239 57.5730082,51.0019598 57.6797282,51.0644052 C57.7863295,51.1267316 57.7863295,51.1980977 57.7329694,51.2782656 C57.6797282,51.3585525 57.7063488,51.3585525 57.7329694,51.4653638 C57.7597089,51.5721751 57.8664289,51.7149073 57.7863295,51.8307583 C57.7063488,51.9466093 57.7329694,52.0001339 57.7418826,52.0892226 C57.7507957,52.1784302 57.6352814,52.4724586 57.6352814,52.4724586 C57.6352814,52.4724586 57.4931464,52.5881907 57.3864263,52.6952398 C57.2797063,52.8021701 57.173105,53.11404 57.1553976,53.2210892 C57.1375713,53.3279004 57.0752981,53.4705137 57.0575907,53.6486911 C57.0397644,53.8269875 56.7642888,54.0140856 56.6487744,54.0943725 C56.5331412,54.1745404 56.5863824,54.4953311 56.5775881,54.5577765 C56.5686749,54.6201029 56.5597618,54.7181124 56.6397424,54.7536765 C56.7198419,54.7893595 56.7553756,54.8696464 56.7642888,54.9498143 C56.7730831,55.0299823 56.7909093,55.0835069 56.8619768,55.1816353 C56.9331632,55.2795258 56.9953175,55.4756637 57.0042306,55.6270788 C57.0130249,55.7787318 57.0665038,55.8053751 57.2352594,55.814058 C57.4041338,55.8232167 57.3775132,55.9212261 57.2975326,56.0370771 C57.2175519,56.1529281 57.2797063,56.2508186 57.3953395,56.2954224 C57.5108538,56.3400263 57.4576126,56.4024716 57.4041338,56.5984906 C57.3507737,56.7946284 57.3953395,56.8034302 57.1641919,56.8480341 C56.9331632,56.8925189 56.9153369,57.1243399 56.9686969,57.1243399 C57.0220569,57.1243399 57.0842113,57.159904 57.0130249,57.2223493 C56.9419575,57.2846757 56.9597838,57.2935965 57.0397644,57.3738834 C57.119745,57.4539324 57.0665038,57.54314 56.92425,57.5787041 C56.782115,57.6145061 56.87089,57.5876249 56.9064237,57.7837628 C56.9420763,57.9797817 56.7553756,57.9351779 56.4620737,57.9351779 C56.1687718,57.9351779 56.3376462,58.3184139 56.2398393,58.549997 C56.1421512,58.7818179 56.0709649,58.8085802 55.9020905,58.817501 C55.7332161,58.8264217 55.7776629,59.0313614 55.679856,59.2184596 C55.582168,59.4056767 55.3421072,59.3253898 55.1199916,59.3343106 C54.8977572,59.3431124 54.9422041,59.1828955 54.9243778,59.0135199 C54.9065515,58.8442633 54.7910371,58.89755 54.7110565,58.9601142 C54.6310759,59.0224407 54.6221627,59.0938068 54.5421821,59.0045991 C54.4620826,58.9155104 54.3111534,59.0402822 54.2577933,59.0492029 C54.2044333,59.0581237 54.1333658,59.0492029 54.1067452,59.1650539 C54.0800058,59.2809049 53.9200445,59.1739747 53.8400639,59.2809049 C53.7600833,59.3877162 53.7333438,59.4235182 53.6711895,59.3521521 C53.6089163,59.2809049 53.5023151,59.3431124 53.3957139,59.3699936 C53.2889938,59.3967559 53.1911869,59.4235182 53.0401388,59.5392503 C52.8890907,59.6552202 52.8712644,59.4947654 52.9423319,59.316469 C53.0133994,59.1382916 52.7645443,59.1293709 52.6134962,59.0045991 C52.4623293,58.8798274 52.497863,58.8709066 52.3646412,58.9422727 C52.2313005,59.0135199 52.1868536,59.0135199 52.1957668,58.9065897 C52.2045611,58.7996594 52.0624261,58.7996594 51.9024649,58.7727782 C51.7423848,58.7462538 51.5291823,58.9244312 51.4846166,58.933352 C51.4401697,58.9422727 51.2002278,58.7727782 51.1380735,58.6036405 C51.0758003,58.4342649 50.7914116,58.4431857 50.6491578,58.4431857 C50.5069039,58.4431857 50.5159359,58.3451762 50.5070228,58.1580781 C50.4981096,57.9708609 50.364769,57.9797817 50.2580489,57.9085345 C50.1514477,57.8372874 50.1514477,57.8282477 50.0270202,57.9085345 C49.9025927,57.9887025 49.9115058,57.6500703 49.9203001,57.4808136 C49.9292133,57.311438 49.8492326,57.2401909 49.7603389,57.2579135 C49.6715639,57.275755 49.6092908,57.3382003 49.5559307,57.2668342 C49.5026895,57.195587 49.4581238,57.1688248 49.3870563,57.2311512 C49.3159888,57.2935965 49.2892494,57.2401909 49.26251,57.1777455 C49.2360082,57.1153002 49.26251,57.0439341 49.0759281,57.0618945 C48.8893463,57.0797361 48.8982594,57.2223493 48.7560056,57.3471211 C48.6137518,57.4717739 48.4448774,57.4896154 48.2938293,57.4094475 C48.1426623,57.3292796 48.1516943,57.3471211 48.1337492,57.5341003 C48.1160417,57.7214364 48.027148,57.6322287 47.8671867,57.7480797 C47.7073443,57.8640497 47.8139455,57.9976232 47.8493604,58.0688704 C47.8848942,58.1402365 47.9472862,58.1580781 47.9116336,58.2560875 C47.8760999,58.354097 47.7694986,58.2827309 47.6538654,58.2560875 C47.5383511,58.2293252 47.4760779,58.3005724 47.4583704,58.4163044 C47.4404253,58.5322744 47.3515315,58.5322744 47.3428561,58.6571651 C47.3339429,58.7818179 47.3073223,58.7282933 47.2183097,58.7282933 C47.1295348,58.7282933 47.084969,58.853184 46.9428341,58.8887481 C46.8005803,58.9244312 46.7739597,59.0758463 46.6495322,59.1204501 C46.5251047,59.1650539 46.3294908,59.1116483 46.1695296,59.0670445 C46.0094495,59.0225596 46.0094495,59.2096578 45.9740346,59.2809049 C45.9385008,59.3521521 45.9205557,59.3521521 45.8406939,59.3789144 C45.7607133,59.4056767 45.7696264,59.4590823 45.6985589,59.6016956 C45.6273726,59.74419 45.5740126,59.7621504 45.4407908,59.7352692 C45.3074501,59.7086258 45.3161256,59.6195371 45.3074501,59.4413597 C45.298537,59.2630634 45.20073,59.2273803 45.1296626,59.3076672 C45.0584762,59.3877162 45.0495631,59.3877162 44.8986338,59.3253898 C44.7474669,59.2630634 44.7385537,59.316469 44.8274475,59.4145975 C44.9163413,59.512488 44.8363606,59.5927749 44.8453926,59.74419 C44.8541869,59.895724 44.9340487,59.8778825 44.9784956,59.9849317 C45.0229425,60.0917429 44.9163413,60.2344752 44.8986338,60.3057223 C44.8806887,60.3769695 44.9695825,60.394811 45.1919357,60.4394149 C45.4140513,60.4840187 45.4497039,60.474979 45.600752,60.4215733 C45.7518001,60.3680488 45.9562083,60.3502072 46.1518221,60.3414054 C46.3473171,60.3324846 46.4895709,60.5640677 46.4895709,60.5640677 L46.4895709,60.5640677 L46.5961721,60.6621961 C46.6318247,60.7512848 46.6318247,60.858215 46.7739597,60.822532 C46.9160946,60.7869678 46.9162135,60.9117396 46.8184066,61.0365114 C46.7205997,61.1612831 46.4806578,61.1879265 46.3028702,61.2592926 C46.1250827,61.3304208 46.1784427,61.4017869 46.1161695,61.6156474 C46.0540152,61.8296268 46.196269,61.8296268 46.3116645,61.9632004 C46.4272977,62.0970118 46.4094714,62.2751892 46.5517252,62.2930308 C46.6939791,62.3108723 46.6939791,62.4267233 46.6318247,62.4444459 C46.5695515,62.4622874 46.5340178,62.5068912 46.4895709,62.631663 C46.445124,62.7564347 46.4717446,62.8276819 46.3206965,62.899048 C46.1695296,62.9702952 46.2228896,63.0503442 46.2940759,63.1129085 C46.3651434,63.1752349 46.4185034,63.2286405 46.3473171,63.3267689 C46.2763685,63.4247784 46.4272977,63.4781841 46.5428121,63.5405105 C46.6584453,63.6029558 46.6318247,63.7901729 46.5961721,63.8880634 C46.5606384,63.9861918 46.5785835,64.0752805 46.4984841,64.1198844 C46.4183846,64.1644882 46.4272977,64.1020428 46.4094714,64.2802202 C46.3918828,64.4585166 46.2763685,64.3605071 46.2051821,64.3515864 C46.1339958,64.3426656 46.0361889,64.3872694 45.9472951,64.3960712 C45.8584014,64.4051109 45.6273726,64.3872694 45.4051382,64.4051109 C45.1830226,64.4228335 45.0941288,64.5028825 45.0941288,64.6189714 L45.089105,64.6657553 C45.0726349,64.7263972 45.0170598,64.7065733 44.9430807,64.6991393 C44.8541869,64.6902186 44.5252324,64.7080601 44.2497568,64.7526639 C43.9740435,64.7971488 43.9564549,64.7169809 44.0096961,64.6456148 C44.063175,64.5743676 44.0186092,64.4228335 44.0364355,64.2357354 C44.054143,64.0486372 43.9564549,63.9861918 43.7964937,63.9772711 C43.6364136,63.9683503 43.5742592,63.7544899 43.5919667,63.6564804 C43.609793,63.5584709 43.609793,63.4871048 43.5564329,63.4068179 C43.5031917,63.3267689 43.4320054,63.3444915 43.3431116,63.2197198 C43.2542179,63.094948 43.2986648,63.094948 43.3075779,63.0057404 C43.316491,62.9167706 43.3520248,62.8455234 43.3520248,62.6761479 C43.3520248,62.5068912 43.316491,62.3821195 43.2365104,62.3731987 C43.1564109,62.3643969 43.0410154,62.3197931 43.0231891,62.2484269 C43.0053628,62.1771798 42.8898485,62.0880911 42.7920416,62.016725 C42.6942346,61.9454778 42.6231671,61.8385476 42.5076528,61.7404191 C42.3921384,61.6422907 42.3120389,61.7404191 42.223264,61.7671814 C42.1343702,61.7939437 42.0365633,61.8028645 41.7966214,61.9009929 C41.5566796,61.9990024 41.4944064,61.9097947 41.4143069,61.8385476 C41.3344451,61.7671814 41.3078245,61.7226966 41.2189308,61.7761022 C41.1299181,61.8296268 41.0766769,61.7226966 40.9611626,61.7404191 C40.8455294,61.7582607 40.8189088,61.7493399 40.8099956,61.6780927 C40.8012013,61.6067266 40.7301338,61.5711625 40.5256069,61.5976869 C40.3211987,61.6245682 40.3211987,61.3661039 40.276633,61.2146888 C40.2323049,61.0632737 40.1789449,61.1700849 40.1166717,61.321619 C40.0545174,61.473153 40.0100705,61.5976869 39.8857618,61.7404191 C39.7612155,61.8830324 39.6189617,61.6602512 39.6278748,61.5622417 C39.636788,61.4642323 39.5123605,61.3839454 39.4145535,61.2413321 C39.3167466,61.0988378 39.3167466,61.1256001 39.1390779,61.2146888 C38.9612904,61.3037775 38.9612904,61.3394605 38.8723966,61.3304208 C38.7836217,61.321619 38.7568822,61.3394605 38.7035222,61.4463908 C38.6501622,61.553202 38.5701815,61.5976869 38.4991141,61.5442813 C38.4281654,61.4909946 38.3568602,61.4285492 38.250259,61.4820738 C38.143539,61.5354795 38.0724715,61.5176379 38.0635583,61.3573021 C38.054764,61.1967283 37.8946839,61.1879265 37.8147033,61.2146888 C37.7348415,61.2413321 37.7079832,61.2771341 37.6369158,61.205768 L37.5979708,61.1740205 C37.5502134,61.1454969 37.516101,61.1683722 37.4592471,61.1967283 C37.3880607,61.2325303 37.3880607,61.2413321 37.3969739,61.3394605 C37.405887,61.43747 37.3969739,61.4909946 37.3437327,61.553202 C37.2902538,61.6156474 37.2459258,61.8296268 37.2102732,61.9722401 C37.1747394,62.1148534 37.2280995,62.3731987 37.0592251,62.5959799 C36.8903507,62.8187611 36.9347976,62.899048 36.9258844,63.094948 C36.9169713,63.2910859 36.9347976,63.3267689 36.75701,63.4781841 C36.5792225,63.6295992 36.6058431,63.7723314 36.6147562,63.941588 C36.6236694,64.1109636 36.9169713,64.3069825 37.0770514,64.3694279 C37.2370126,64.4318732 37.2725464,64.4851599 37.1747394,64.6368129 C37.0770514,64.788228 37.1925657,65.1447018 37.0947588,65.3495225 C36.9970707,65.5547001 36.908177,65.5456604 36.8280775,65.4744132 C36.7480969,65.4031661 36.6236694,65.5100963 36.4992418,65.6081058 C36.3748143,65.7061152 36.3571069,65.6882737 36.3038657,65.8041247 C36.2503868,65.9199757 35.9926186,66.0270249 35.7882105,66.1962815 C35.5838024,66.3654192 35.6726961,66.4815081 35.6015098,66.6418439 C35.5303235,66.8022988 35.4415486,66.6864478 35.3260342,66.5795175 C35.2105198,66.4725873 35.0948866,66.5170722 34.9615459,66.4279835 C34.8282053,66.3388948 34.7571378,66.329974 34.6416234,66.4012212 C34.5261091,66.4725873 34.472749,66.4992307 34.3394084,66.4279835 C34.2061866,66.3566174 34.1439134,66.3744589 34.0194859,66.4635476 C33.8950584,66.5527552 33.8416983,66.4725873 33.8416983,66.3833797 C33.8416983,66.294291 33.7972514,66.2229248 33.7172708,66.2586079 C33.6372902,66.294291 33.628377,66.3388948 33.5661039,66.2764494 C33.5039495,66.214123 33.4773289,66.1872418 33.326162,66.2498061 C33.1751139,66.3118946 32.9973263,66.2853702 32.9084325,66.142638 C32.8195388,66.0002626 32.8018313,66.0358267 32.7039056,66.1249154 C32.6063363,66.214123 32.4551694,66.2229248 32.3662756,66.2318456 C32.2775007,66.2408853 32.1085074,66.294291 32.1263337,66.17844 C32.1440412,66.062589 32.0374399,66.0358267 31.9929931,66.1338361 C31.9485462,66.2318456 31.9574593,66.2318456 31.8241187,66.214123 C31.690778,66.1962815 31.637418,66.3654192 31.5131093,66.445825 C31.3886818,66.5259929 31.3974761,66.6953685 31.2729297,66.829061 C31.1487399,66.9626346 31.2552223,66.909229 31.2641354,67.0340007 C31.2729297,67.1587725 31.2729297,67.1675743 31.246428,67.3012668 C31.2198074,67.4349594 31.0508141,67.3547914 30.8108723,67.2657027 C30.5709304,67.1764951 30.5531041,67.5062065 30.4731235,67.7646708 C30.3931428,68.0231351 30.2953359,67.987452 30.2598022,67.9162049 C30.2242684,67.8449577 30.144169,67.7914331 30.0643072,67.9162049 C29.9843265,68.0408577 29.8776065,68.0142143 29.8509859,67.9162049 C29.8242464,67.8181954 29.8242464,67.8092746 29.6731983,67.6489388 C29.5220314,67.488484 29.4154302,67.5329688 29.3176232,67.6132557 C29.2198163,67.6934236 29.0953888,67.6489388 29.1132151,67.5597311 C29.1310414,67.4705235 29.0598551,67.4528009 28.9977007,67.4617217 C28.9354276,67.4705235 28.8821864,67.5062065 28.8643601,67.4171178 C28.8465338,67.3280291 28.9177201,67.2477423 28.9977007,67.0695649 C29.0776814,66.8912685 29.0953888,66.829061 29.1842826,66.793378 C29.2731764,66.7576949 29.3088289,66.7487742 29.2287295,66.6686062 C29.1487488,66.5884383 29.1931957,66.5347948 29.2642632,66.5347948 C29.3353307,66.5347948 29.3265364,66.5259929 29.3176232,66.4635476 C29.3087101,66.4012212 29.3443627,66.329974 29.4420508,66.0803116 C29.5398577,65.830768 29.3265364,65.6170265 29.2198163,65.4922548 C29.1132151,65.367483 29.0776814,65.2783943 29.157662,65.1090187 C29.2376426,64.9397621 29.2287295,64.9308413 29.1487488,64.8328319 C29.0687682,64.7348224 29.0953888,64.7257827 29.1754883,64.6368129 C29.2554689,64.5476053 29.2553501,64.5476053 29.3088289,64.4228335 C29.3620701,64.2980618 29.353157,64.3069825 29.2642632,64.2802202 C29.1754883,64.2535769 29.2198163,64.1644882 29.0953888,64.0931221 C28.9709613,64.0218749 28.962167,64.0128352 28.9443407,63.8346578 C28.9266333,63.6564804 29.1132151,63.5761935 29.2287295,63.4604615 C29.3443627,63.3446105 29.3265364,63.3089274 29.3265364,63.1573934 C29.3265364,63.0057404 29.353157,63.0326216 29.1665751,63.0772254 C28.9798744,63.1218293 28.962167,63.1039877 28.8465338,63.0147801 C28.7310194,62.9256914 28.7488457,62.8455234 28.811,62.7296724 C28.8732732,62.6138215 28.8554469,62.4444459 28.8643601,62.3019515 C28.8732732,62.1593382 28.8643601,62.1771798 28.7754663,62.1861005 C28.6865725,62.1950213 28.6244182,62.1861005 28.615505,62.0701306 C28.6065919,61.9542796 28.5355244,61.9009929 28.455425,61.9097947 C28.3754443,61.9187155 28.3399106,61.9632004 28.3222031,62.0256457 C28.3043768,62.0879721 28.2688431,62.1147344 28.1444156,62.2038231 C28.0199881,62.2930308 27.6822393,62.1771798 27.5399855,62.1058137 C27.3978505,62.0344475 27.3266642,61.8742306 27.3178699,61.7671814 C27.3088379,61.6602512 27.3534036,61.6513304 27.1934424,61.6422907 C27.0334811,61.6334889 27.0422754,61.669172 27.015536,61.7493399 C26.9889154,61.8296268 26.9801211,61.8296268 26.873401,61.9009929 C26.7667998,61.9722401 26.7311472,61.9988834 26.6334591,62.1236552 C26.535771,62.2484269 26.5622728,62.2930308 26.4734979,62.3197931 C26.3846041,62.3463175 26.3667778,62.3554761 26.3223309,62.4712082 C26.277884,62.5870592 26.1534565,62.5781384 25.9135146,62.7564347 C25.6734539,62.9347311 25.6023864,62.9435329 25.3979783,62.9613744 C25.1935701,62.979097 25.2291039,63.0415424 25.2291039,63.2286405 C25.2291039,63.4158576 25.2912582,63.5495502 25.2112776,63.6475596 C25.131297,63.7455691 25.1758627,63.8614201 25.2023645,64.0128352 C25.2291039,64.1643692 25.0157826,64.1822108 24.8113745,64.2623787 C24.6069663,64.3426656 24.6246738,64.3872694 24.4291788,64.3248241 C24.2335649,64.2623787 24.2069443,64.4674374 24.1446712,64.4317543 C24.0825168,64.3960712 23.9937419,64.4763581 23.9047293,64.5297638 C23.8158355,64.5832883 23.8602824,64.4140317 23.9580893,64.3782297 C24.0557774,64.3426656 23.9225556,64.1822108 23.9580893,64.0486372 C23.9937419,63.9149447 23.895935,63.8880634 23.8248675,63.8971031 C23.7536812,63.9060239 23.6824948,63.7901729 23.744768,63.7455691 C23.8070412,63.7010842 23.8158355,63.6475596 23.691408,63.4959066 C23.5669805,63.3444915 23.6111897,63.193909 23.5892039,63.1221861 C23.5672182,63.0505821 23.5591369,62.9850442 23.5616326,62.9236693 C23.5724472,62.6577116 23.7813713,62.4704945 23.9055612,62.2027526 C23.9288542,62.1523206 23.8532707,62.0513375 23.8594505,61.9841344 C23.8657491,61.9168124 23.9300426,61.8237986 23.9479877,61.7652783 C23.9946926,61.6130306 24.0314148,61.4882589 24.1438393,61.3879895 C24.2562637,61.287839 24.4685155,61.2715438 24.593656,61.205768 C24.7543303,61.1216749 24.9037147,61.0586349 24.986191,60.9986873 C25.1972542,60.8448933 25.3700504,60.8641622 25.3316645,60.4798557 C25.3101541,60.2638542 25.246336,59.9892136 25.3112237,59.8840675 C25.3617315,59.8023533 25.5517598,59.8205517 25.5517598,59.8205517 C25.5517598,59.8205517 25.9075725,59.4424302 25.9268249,59.327174 C25.9459585,59.2119177 26.1000965,58.8619858 26.2246428,58.8798274 C26.3489515,58.89755 26.5267391,59.0224407 26.7134398,58.7907387 C26.9001404,58.5590367 27.0067417,58.6125613 27.0067417,58.5322744 L27.0067417,58.5322744 L27.0333623,58.3987008 C27.077928,58.2648893 27.1400823,58.2114837 27.3355773,58.1045535 C27.5310723,57.9976232 27.4955386,57.8014854 27.4867443,57.658991 C27.4778311,57.5163777 27.6199661,57.4004078 27.6822393,57.3382003 C27.7443936,57.275755 27.7534256,57.275755 27.7888405,57.1243399 C27.8243742,56.9728058 27.8332874,56.8569548 27.7534256,56.7054208 C27.6733261,56.5540057 27.717773,56.4380357 27.86894,56.1529281 C27.9864218,55.9310852 27.9264741,55.8440832 27.8438725,55.7660593 L27.771133,55.6984449 C27.664413,55.5913957 27.5755192,55.3775353 27.6377924,55.2171994 C27.7000656,55.0568635 27.6733261,54.9318539 27.6022586,54.7716369 C27.5311912,54.6111821 27.5755192,54.6468652 27.6556187,54.5043708 C27.7355993,54.3617576 27.8244931,54.3705594 27.86894,54.3794801 L27.86894,54.3794801 L27.9285266,54.3917067 C27.9960014,54.4022469 28.1075916,54.405002 28.2600488,54.3349953 C28.4732512,54.2369858 28.3932706,54.2814707 28.4732512,54.308233 C28.5532319,54.3349953 28.6244182,54.2637481 28.6865725,54.0497687 C28.7488457,53.8359082 28.8465338,53.9249969 28.9709613,53.8893139 C29.0953888,53.8537498 29.0687682,53.7645421 29.0332345,53.6576119 C28.9975819,53.5506817 29.0421476,53.3546627 28.962167,53.3189797 C28.8820675,53.2834156 28.8909807,53.3101779 28.8998938,53.1675646 C28.908807,53.0249513 28.9798744,53.0606343 29.104302,52.998189 C29.2287295,52.9358626 29.406517,52.882338 29.5220314,52.8289323 C29.6376646,52.7754078 29.7176452,52.7575662 29.655372,52.6684775 C29.5930989,52.5793888 29.5487708,52.5704681 29.3798964,52.6417152 C29.211022,52.7130814 29.2287295,52.6327945 29.2553501,52.5081417 C29.2820895,52.3833699 29.1487488,52.4635378 29.0332345,52.4456963 C28.9177201,52.4278548 28.8821864,52.4367755 28.8643601,52.5081417 C28.8465338,52.5793888 28.6688651,52.5081417 28.5710582,52.5081417 C28.4732512,52.5081417 28.3755632,52.534785 28.3755632,52.3833699 C28.3755632,52.2318359 28.2866694,52.2675189 28.2154831,52.3387661 C28.1444156,52.4098943 28.1088818,52.3566076 28.0466087,52.2764397 C27.9844543,52.1962717 27.9933675,52.2941623 27.7799273,52.3476868 C27.5667249,52.4012114 27.468918,52.5526265 27.4422974,52.7397247 C27.415558,52.9268229 27.3534036,52.918021 27.2911304,52.7843285 C27.2289761,52.650636 27.1756161,52.7041606 27.0955166,52.7486455 C27.0156548,52.7932493 26.9178479,52.8110908 26.9090536,52.6150719 L26.9014474,52.5431894 C26.8787149,52.4217547 26.8111788,52.4227742 26.7045266,52.3387661 C26.5800991,52.2407566 26.6067197,52.2318359 26.6956135,52.1338264 C26.7845072,52.0358169 26.6511666,51.9466093 26.5711859,51.839679 C26.4912053,51.7327488 26.5001185,51.6882639 26.4201378,51.6436601 C26.3401572,51.5991752 26.3312441,51.5634922 26.3933984,51.4653638 C26.4556716,51.3673543 26.4912053,51.0644052 26.5711859,50.8505447 C26.6511666,50.6366842 26.7134398,50.6366842 26.7845072,50.5029917 C26.8555747,50.3694181 26.9090536,50.4049822 26.9801211,50.3960615 C27.0511886,50.3871407 27.0511886,50.4851502 27.1133429,50.4762294 C27.1756161,50.4673087 27.1489955,50.3248143 27.0244491,50.2177651 C26.9001404,50.1108349 26.9356742,50.06635 27.0067417,49.9593009 C27.0778092,49.8522517 27.068896,49.7366386 27.1400823,49.6563517 C27.2111498,49.5761838 27.2022367,49.4424912 27.0601017,49.3266402 C26.9178479,49.2109082 27.0511886,49.1127798 27.1044297,49.0503344 C27.1577898,48.988008 27.220063,48.9346024 27.2022367,48.836474 C27.1845292,48.7385835 27.1667029,48.7472663 27.1934424,48.5246041 C27.220063,48.3018228 27.2468024,48.3819908 27.3534036,48.3375059 C27.4600048,48.2929021 27.415558,47.9899529 27.3889374,47.8384189 C27.3621979,47.6868848 27.3800242,47.7047263 27.2468024,47.678083 C27.1133429,47.6513207 27.077928,47.7047263 26.9712079,47.7582509 C26.8644879,47.8116566 26.6956135,47.7582509 26.5890122,47.7493302 C26.4822922,47.7404094 26.5001185,47.5442715 26.5001185,47.4017772 C26.5001185,47.2591639 26.5534785,47.2413224 26.4201378,47.2413224 C26.2867972,47.2413224 26.2957103,47.2859262 26.2068166,47.2145601 C26.1179228,47.1433129 26.082389,47.1433129 26.0201159,47.2324016 C25.9579615,47.3216092 25.7091065,47.2948469 25.6557465,47.2413224 C25.6023864,47.1879167 25.5313189,47.178877 25.4424252,47.2234808 C25.3535314,47.2680847 25.352343,47.2618996 25.2497824,47.2303796 C25.1472218,47.1987406 25.0552381,47.0881231 24.9656313,47.0655238 C24.825279,47.0301976 24.6970485,47.0664754 24.65379,47.0664754 C24.5923488,47.0664754 24.7341272,46.9572852 24.6383406,46.8636767 C24.5807023,46.8075353 24.3339864,46.8655798 24.2762292,46.7964736 C24.1897123,46.6928738 24.1077113,46.5832078 24.045557,46.4935244 C24.0091913,46.4408324 24.032009,46.3147523 23.9927912,46.2902499 C23.8459025,46.1983066 23.6363842,46.3682769 23.6363842,46.4441629 C23.6363842,46.5402692 23.6631236,46.8084869 23.5288322,47.0197306 C23.394422,47.2309743 23.547015,47.2056393 23.5127886,47.4939584 C23.5010232,47.5926815 23.4284108,47.8516216 23.3910944,47.8777892 C23.353778,47.9039567 23.2980412,47.6887879 23.2489594,47.6782019 C23.2042749,47.6684486 23.1307117,47.6684486 23.0872156,47.6565542 C22.947814,47.6181354 22.7814352,47.6707085 22.6059057,47.7614624 C22.5233105,47.8041631 22.329717,47.8122513 22.1543063,47.7925067 C22.0342759,47.7789471 21.9368256,47.7381495 21.8329577,47.7426693 C21.7431132,47.7465945 21.7040142,47.8815954 21.6368685,47.8815954 C21.504122,47.8815954 21.3478449,47.8462691 21.3064879,47.680105 C21.287592,47.6045759 21.4944958,47.3546755 21.4772638,47.2805737 C21.4558722,47.1874409 21.393599,47.1191674 21.3745843,47.0598145 C21.3482014,46.9773867 21.188359,47.3574112 21.0758157,47.341116 C21.0083135,47.3314816 20.9675507,47.1511632 20.8907788,47.1528284 C20.7681339,47.1550883 20.6706835,47.0500612 20.5786998,47.0500612 C20.5260528,47.0500612 20.4243241,47.1649606 20.3521871,47.1534231 C20.2801689,47.1417666 20.210884,47.1196431 20.1702401,47.0770614 C20.1070162,47.0112856 20.1546718,46.8645093 20.0953696,46.8369144 C20.0641142,46.8222843 19.9641681,46.9172013 19.9390925,46.9457477 C19.8468711,47.0505369 19.8715903,47.0027216 19.7443105,47.1962428 C19.6171497,47.3896449 19.50936,47.3657373 19.3558162,47.4040371 C19.2021536,47.4425748 19.2602673,47.7470702 19.2602673,47.9198952 C19.2602673,48.0927201 19.2072638,48.1636105 19.0344676,48.4516917 C18.8617903,48.7398918 18.7429483,49.0210743 18.5869089,48.8283858 C18.4308694,48.6356973 17.9701192,49.1420399 17.9754671,49.141921 C17.9758949,49.141921 17.9727266,49.1453834 17.9664707,49.1518236 L17.8405387,49.2770979 C17.7193199,49.3967646 17.5418841,49.5712833 17.4180984,49.6959599 C17.3603412,49.7540043 17.3059116,50.1059582 17.28452,50.1350994 C17.2403108,50.1956416 17.1610432,50.1933817 17.1332342,50.260228 C17.0647813,50.424489 17.0782104,50.5263046 17.0189083,50.635138 C16.9038693,50.8465006 16.8276916,51.1682428 16.6548954,51.2834991 C16.4822181,51.3986365 16.5195344,51.268988 16.1164226,51.4033942 C15.7133107,51.5378004 15.9254436,50.900501 15.9061912,50.8046325 C15.8870576,50.7084072 15.6954844,50.5472387 15.4651687,50.2783074 C15.2347342,50.0092571 15.0367435,50.3082812 14.9408381,50.6157502 C14.8658488,50.8558972 14.6929338,50.5766178 14.4659457,50.4868154 C14.4015333,50.4613615 14.3806171,50.7252972 14.3026568,50.6822396 C14.1470927,50.5964813 14.0836311,50.4663571 14.0106622,50.430674 C13.9537369,50.4028413 13.9054871,50.411881 13.870191,50.3584753 C13.7891408,50.2363203 13.9323453,49.9797591 13.9707313,49.8645029 C13.9826155,49.8285819 13.9815459,49.6769289 14.0271812,49.5779679 C14.0728165,49.4790069 14.201047,49.4235792 14.2229139,49.312486 C14.2490591,49.1792692 14.1772786,49.0994581 14.1701481,48.998594 C14.1510145,48.7296627 13.8718548,48.8436106 13.6799251,48.8181567 C13.6202664,48.8103064 13.5382655,48.9777789 13.4608994,48.9601752 C13.3969624,48.9455452 13.3387298,48.7635616 13.2727726,48.7357288 C13.1629626,48.6894598 13.0444772,48.7213366 12.9621197,48.6469969 C12.77019,48.4742909 12.6362551,48.6144064 12.4059394,48.8065002 C12.3267907,48.8723949 12.1488843,49.0377264 12.0642688,49.2689526 C12.0216046,49.3852794 12.0654573,49.5473994 12.0314685,49.6727659 C12.0050856,49.7701807 11.8997916,49.8314366 11.8737652,49.9224284 C11.8061441,50.1580555 11.7373347,50.3545502 11.7173692,50.4213965 C11.6598497,50.6136092 11.3905539,50.4656434 11.1118695,50.4348371 C10.833304,50.4039118 10.6736993,50.8619633 10.7383493,51.0233696 C10.7597408,51.0768942 10.9135223,51.1118636 10.9765085,51.2278336 C11.0396136,51.3436845 11.0299874,51.5320911 11.0804952,51.6605501 C11.1314784,51.7906743 11.2087257,51.8813093 11.1436003,52.0073894 C10.9491749,52.3825373 10.9649809,52.5324061 10.5908664,52.4677009 C10.5207497,52.4554497 10.4783231,52.3114091 10.4262703,52.3029641 C10.2003518,52.2663295 10.1226292,52.2643074 10.0135323,52.2954706 C9.87912204,52.3340083 9.86783206,52.3045103 9.63751637,52.3428102 C9.47921891,52.3692156 9.58855349,52.1927034 9.57868961,52.0320107 C9.57429246,51.9589794 9.48932047,51.9316224 9.49526257,51.8535954 C9.51439612,51.603933 9.66805875,51.5272144 9.66805875,51.5272144 C9.66805875,51.5272144 10.0327847,51.123639 10.0903042,50.969845 C10.1479425,50.816289 9.79355584,50.7365968 9.58237371,50.7365968 L9.58237371,50.7365968 L9.52378463,50.7079314 C9.52378463,50.7079314 9.42597772,50.6366842 9.31046335,50.6722483 C9.19483014,50.7079314 9.22156957,50.6008822 9.22156957,50.4673087 C9.22156957,50.3337351 9.24819017,50.262369 9.1326758,50.262369 C9.01716143,50.262369 8.91935451,50.2890123 8.77710071,50.4406653 C8.63496575,50.5920804 8.53715883,50.6722483 8.39490502,50.6008822 C8.25277006,50.5296351 8.10160311,50.6454861 8.03053562,50.761456 C7.95946814,50.877188 7.92381556,50.8683862 7.79938805,50.877188 C7.67496053,50.8861088 7.59509875,50.7345748 7.54173871,50.5920804 C7.48837868,50.4494671 7.47946554,50.4583879 7.39948491,50.4673087 C7.31950428,50.4762294 7.30167799,50.4673087 7.31950428,50.3515766 C7.33733057,50.2356067 7.31059114,50.1911218 7.24831796,50.1911218 C7.18616362,50.1911218 7.15062988,50.2356067 7.0795624,50.1732803 C7.00837608,50.1108349 7.02620237,49.8880537 7.00837608,49.718797 C6.99054978,49.5494215 7.12389044,49.6029461 7.12389044,49.6029461 C7.12389044,49.6029461 7.24831796,49.6206686 7.4173112,49.6029461 C7.5861856,49.5849856 7.59509875,49.6118668 7.68387368,49.5316989 C7.77276745,49.4512931 7.73723371,49.3177195 7.69278682,49.2286308 C7.64833994,49.1395421 7.55053302,49.0147703 7.39948491,49.0058496 C7.24831796,48.9969288 7.24831796,48.8009099 7.18616362,48.6315343 C7.12389044,48.4622776 7.13292243,48.4978418 7.21278422,48.3998323 C7.29276484,48.3018228 7.30167799,48.2484172 7.23061051,48.2305757 C7.21639701,48.2270074 7.19969259,48.22558 7.18206215,48.2251518 L7.0776866,48.2254373 C7.04753687,48.223439 7.02620237,48.2163024 7.02620237,48.1948926 C7.02620237,48.141368 7.01728922,48.0701208 6.97284233,47.9187057 C6.92851429,47.7670527 6.94622174,47.7850132 7.06173611,47.6067169 C7.17725048,47.4285395 7.22169736,47.3304111 7.26614425,47.2591639 C7.31059114,47.1879167 7.39948491,47.1879167 7.32841743,47.0897883 C7.25734995,46.9917788 7.23061051,46.9739373 7.14171674,47.0096204 C7.0529418,47.0453034 7.08847555,47.1254714 7.08847555,47.2056393 C7.08847555,47.2859262 7.0529418,47.2680847 6.99066863,47.2859262 C6.92839545,47.3037677 6.70616102,47.3216092 6.55511291,47.3304111 C6.40394596,47.3394508 6.40394596,47.4285395 6.29734473,47.4196187 C6.19062467,47.4106979 6.11064404,47.4997866 6.03066341,47.5799546 C5.95080163,47.6602415 5.81734213,47.642281 5.81734213,47.5265489 C5.81734213,47.4106979 5.66629402,47.4642225 5.65738087,47.3660941 C5.64846773,47.2680847 5.65738087,47.2324016 5.57740024,47.2324016 C5.49753846,47.2324016 5.42635213,47.1433129 5.27518518,47.1700752 C5.12413707,47.1967185 5.12413707,47.1343921 5.15967081,47.0720657 C5.19520456,47.0096204 5.17737826,47.0006996 5.12413707,46.7868392 C5.07077704,46.5729787 5.18629141,46.5640579 5.29301147,46.5462164 C5.39973154,46.5283749 5.41743899,46.4660485 5.3729921,46.3412767 C5.32842637,46.2165049 5.31071892,46.2342275 5.35528465,46.1540596 C5.39973154,46.0740106 5.43514644,46.0472483 5.51512707,46.0294068 C5.59522653,46.0115653 5.57740024,45.9135558 5.67520716,45.63725 C5.77301408,45.3609442 6.05740285,45.3609442 6.22627725,45.2628158 C6.39515165,45.1649252 6.42177225,45.0936781 6.26169215,45.0846384 C6.10173089,45.0757176 6.16400407,45.022312 6.17291722,44.942144 C6.18183036,44.8619761 6.19062467,44.8708968 6.36841221,44.7639666 C6.54619976,44.6570364 6.46621913,44.6035118 6.31517102,44.4965816 C6.16400407,44.3896513 6.31517102,44.3985721 6.40394596,44.4074929 C6.49295857,44.4164136 6.47513228,44.3807306 6.5817335,44.327206 C6.68845357,44.2738003 6.67954042,44.1311871 6.6083541,44.0688607 C6.53740546,44.0065342 6.50175287,43.8550002 6.47513228,43.7836341 C6.44851168,43.7123869 6.43959854,43.7213077 6.44851168,43.5697736 C6.45730599,43.4183585 6.51066602,43.4093188 6.43959854,43.3469924 C6.36841221,43.284666 6.36841221,43.0617658 6.29734473,43.0172809 C6.22627725,42.9726771 6.16400407,43.0172809 6.16400407,42.8211431 C6.16400407,42.6251241 6.10173089,42.669728 5.93297534,42.7766582 C5.76410094,42.8835884 5.5418665,42.5715996 5.39973154,42.3845014 C5.36407896,42.3378755 5.34530193,42.2999325 5.33805257,42.2693641 L5.34,42.275 L5.33897954,42.2754183 C5.3173503,42.1840697 5.40065851,42.1589726 5.4538997,42.1589726 C5.52508602,42.1589726 5.54279347,42.2301008 5.57844605,42.1143688 C5.61397979,41.9985178 5.85392168,42.0966462 6.04050353,42.14125 C6.22720422,42.1857349 6.24503051,42.1678933 6.35163173,42.0788046 C6.4583518,41.989597 6.47605925,42.0252801 6.40499176,41.9094291 C6.33392428,41.7935781 6.54712673,41.8114196 6.63613934,41.8917065 C6.72503312,41.9718744 6.78718745,41.8649442 6.75165371,41.758014 C6.71600113,41.6509648 6.82272119,41.5707968 6.90270182,41.5618761 C6.98268245,41.5529553 7.05374993,41.6154007 7.08940251,41.5084704 C7.12493625,41.4015402 7.31163695,41.4281836 7.41823817,41.3658571 C7.52495823,41.3034118 7.51592624,41.5084704 7.54266568,41.4549458 C7.56940512,41.4014213 7.61385201,41.3390949 7.71154008,41.3390949 C7.80922816,41.3390949 7.82717329,41.410342 7.80031501,41.5618761 C7.77369442,41.7132912 7.93377452,41.5797176 7.95148196,41.3480156 C7.96918941,41.1163136 7.89824077,41.0093834 7.8181413,40.8846116 C7.73816068,40.7598399 7.72924753,40.6885927 7.80031501,40.5549002 C7.87150134,40.4210887 7.88041448,40.3142774 7.88041448,40.1805849 C7.88041448,40.0470113 7.94256882,39.9667245 7.8447619,39.9488829 C7.74707382,39.9311603 7.65818005,39.9133188 7.63155945,39.7973489 C7.60482002,39.6816168 7.43594562,39.8330319 7.28489751,40.0113283 C7.1338494,40.1895057 7.11602311,40.0647339 7.08048937,39.9667245 C7.04495563,39.868715 7.06266308,39.8419527 7.15155685,39.7617848 C7.24045062,39.6816168 7.45377191,39.6459338 7.6492669,39.4497959 C7.77145128,39.3273584 7.84159588,39.3301369 7.90525291,39.3537943 L7.98144267,39.3855276 C7.99459374,39.3902609 8.00821414,39.3941601 8.02266829,39.3963903 C8.13818266,39.4142318 8.11156206,39.4943997 8.13818266,39.3339449 C8.16480325,39.173609 8.19142385,39.2359354 8.28923077,39.1914506 C8.38703768,39.1468467 8.37812454,39.057758 8.33367765,38.906224 C8.28923077,38.7546899 8.3159702,38.7457692 8.21816328,38.7546899 C8.12035637,38.7636107 8.12926951,38.7457692 8.09373577,38.6656012 C8.05820203,38.5854333 8.09373577,38.5854333 8.16480325,38.5497502 C8.23587073,38.5140672 8.24478388,38.4963446 8.1737164,38.3983351 C8.10264892,38.3000878 8.04037574,38.1487916 8.04037574,37.9706142 C8.04037574,37.7923179 8.004842,37.6051008 7.86258819,37.5427744 C7.72045323,37.480448 7.75598697,37.5784574 7.68491949,37.7298725 C7.61373316,37.8814066 7.35608383,37.7477141 7.30260496,37.6051008 C7.24936377,37.4624875 7.44485876,37.2130629 7.48930565,36.9635194 C7.53375254,36.7139759 7.45377191,36.8565892 7.28489751,36.9367571 C7.11602311,37.016925 7.03937005,36.8455274 6.93728483,36.6923282 C6.8351996,36.5391289 6.70447346,36.4092426 6.16160347,36.5736225 C5.61873347,36.7380025 5.2164535,37.0259647 5.1419396,36.6743677 C5.0674257,36.3230085 4.75760475,36.9172504 4.53323117,37.1828513 C4.45253749,37.278125 4.23862199,37.4386988 4.12453373,37.4916286 C3.92107632,37.5859509 3.65962405,37.6017703 3.5223616,37.6147352 C3.40197471,37.6260348 3.45723622,37.377205 3.51808329,37.2567152 C3.56538239,37.1631066 3.67958949,37.2061642 3.71072608,37.1124367 C3.78215009,36.8978626 3.52046013,36.9209376 3.25520491,36.9821935 L3.2083849,37.0136875 L3.2083849,37.0136875 L3.10035015,37.1318951 C3.08332233,37.1491754 3.06764262,37.162393 3.05459972,37.1672696 C3.0024281,37.1866574 2.87336575,37.233878 2.74905708,37.233878 C2.62451072,37.233878 2.58315373,37.1952214 2.47643366,37.3110724 C2.3697136,37.4269234 2.25419923,37.4624875 2.1920449,37.4714082 C2.12977172,37.480448 2.10303228,37.5160121 2.01413851,37.6317441 C1.92536358,37.7477141 1.79202292,37.7833971 1.72095543,37.7833971 C1.64988795,37.7833971 1.55208103,37.8012386 1.64988795,37.8992481 C1.74757603,37.9972576 1.72974974,38.1041878 1.62314852,38.1933954 C1.51654729,38.2824841 1.3564672,38.3091275 1.3298466,38.2378803 C1.30310716,38.1665142 1.30322601,38.1665142 1.34767289,38.1131086 C1.39211978,38.059584 1.33875975,37.9615745 1.19650594,38.1398709 C1.05425214,38.3181672 0.912117172,38.3626521 0.84104969,38.3537313 C0.769863367,38.3446916 0.778776513,38.3358898 0.849962836,38.2735634 C0.921030318,38.211118 0.867670286,38.1577124 0.814310253,38.1041878 C0.760950221,38.0507822 0.72541648,37.9616935 0.654348998,37.9527727 C0.583162675,37.9438519 0.503300889,37.8903273 0.547628934,37.7923179 C0.592075821,37.6943084 0.53883463,37.6943084 0.40549397,37.6140215 C0.272153311,37.5338536 0.174346392,37.4535667 0.0943657645,37.4180026 C0.014385137,37.3823195 -0.0300617496,37.364597 0.0232982827,37.2665875 C0.076658315,37.168578 0.174346392,37.132895 0.245532716,37.2130629 C0.316600197,37.2932308 0.281066456,37.328795 0.449940857,37.248627 C0.618815258,37.168578 0.663262144,37.2219837 0.681088436,37.0615289 C0.698795885,36.901193 0.84104969,36.901074 0.867670286,37.0081232 C0.894290881,37.1150534 1.01871839,37.0615289 1.03654469,36.9189156 C1.05425214,36.7764212 1.17867965,36.7318174 1.27648657,36.6515305 C1.37429349,36.5714815 1.48980786,36.5001154 1.498721,36.3040965 C1.50751531,36.1080776 1.48980786,36.1080776 1.42765352,35.9565435 C1.36538034,35.8050095 1.22312654,35.7605246 1.39211978,35.6802377 C1.56087534,35.6000698 1.78310977,35.4485357 2.01413851,35.3326847 C2.24528609,35.2168337 2.49414111,35.0743394 2.64530806,35.0297356 C2.79635617,34.9850128 3.03629806,34.9138846 3.01859061,34.8069543 C3.00088316,34.7000241 2.89416309,34.5217278 2.89416309,34.5217278 C2.90022403,34.4641591 2.89012247,34.4702252 2.9471666,34.4786702 C2.97224225,34.4822385 2.99814979,34.4860447 3.0245327,34.4898509 C3.11200037,34.50234 3.1676184,34.4034979 3.23749747,34.2928804 C3.27255584,34.2374527 3.26186006,34.2266289 3.3225883,34.2424484 C3.37808748,34.2568405 3.35729014,34.2550564 3.38830789,34.20736 C3.39377462,34.198915 3.40019208,34.1898753 3.4073226,34.1807167 L3.45961306,34.1412274 C3.54280242,34.0817557 3.61410758,33.9424728 3.61410758,33.9424728 C3.61410758,33.9424728 3.62179517,33.9194572 3.63205643,33.8853687 L3.64298617,33.8480316 C3.66271394,33.7792823 3.68517506,33.6895989 3.68517506,33.6395236 C3.68517506,33.5504349 3.67626192,33.5147519 3.78298198,33.4612273 C3.8895832,33.4078216 3.9074095,33.3899801 3.8895832,33.2652084 C3.87187576,33.1404366 3.75636139,33.2652084 3.71179566,33.318614 C3.66746761,33.3721386 3.58736814,33.4167424 3.56074755,33.3364555 C3.53412695,33.2562876 3.67626192,33.087031 3.83622317,32.9889026 C3.99630327,32.8908931 4.05857645,32.8998138 4.10290449,32.97118 C4.14747022,33.0424271 4.13843823,33.1225951 4.06737075,33.2741291 C3.99630327,33.4256632 4.33405207,33.2118027 4.52954707,32.9978233 C4.72504206,32.7838439 4.76069464,32.8196459 4.78731524,32.9087346 C4.81405468,32.9978233 4.9294502,33.0602687 4.99172338,33.087031 C5.05399656,33.1137933 5.10723775,33.1313969 5.1161509,33.238565 C5.12506404,33.3453763 5.16951093,33.3453763 5.2584047,33.2295253 C5.34729847,33.1137933 5.48063913,33.2473668 5.55170662,33.2741291 C5.6227741,33.3008914 5.68504728,33.2295253 5.70287357,33.087031 C5.72058102,32.9444177 5.79176734,32.9265761 5.74732045,32.7661213 C5.70287357,32.6057855 5.73840731,32.5701024 5.80056164,32.4987363 C5.86283482,32.4276081 6.32501114,32.1513022 6.52941928,31.892838 C6.73382742,31.6342547 6.95594301,31.6434134 7.00050874,31.6700567 C7.04495563,31.696819 7.10710996,31.7413039 7.12481741,31.6700567 C7.1426437,31.5988096 7.21383003,31.6255719 7.35608383,31.545285 C7.46268505,31.485159 7.47930807,31.4901993 7.44345494,31.4363123 L7.39149873,31.3581868 L7.39149873,31.3581868 C7.30260496,31.2155735 7.51592624,31.081881 7.56928628,30.9392677 C7.62264631,30.7966544 7.53375254,30.5918337 7.4982188,30.386775 C7.46268505,30.1818354 7.41823817,30.2709241 7.51592624,30.1729146 C7.61373316,30.0747862 7.58711257,30.0303013 7.32934439,29.8966088 C7.07157622,29.7630352 7.07157622,29.6827483 6.98280129,29.5847389 C6.89378867,29.4867294 6.63613934,29.5224124 6.47605925,29.5490558 C6.31609799,29.5758181 6.36054488,29.5134917 6.48497239,29.4154822 C6.60939991,29.3174728 6.41378607,29.2461066 6.42281806,29.2015028 C6.43161236,29.1570179 6.43303846,28.9494615 6.14021192,28.9123511 C5.84750421,28.8752407 5.96812878,28.8562098 6.05535877,28.6719662 C6.08090979,28.6178469 6.19666184,28.5801418 6.20177204,28.5623003 C6.20628804,28.5462429 6.07663148,28.4406211 6.09291282,28.4207575 C6.14163802,28.3614047 6.2251839,28.2706508 6.23647389,28.0591692 C6.23801883,28.030028 6.09754766,27.857441 6.09933029,27.8267536 C6.10301439,27.7683523 5.9877377,27.7199423 5.966465,27.6388228 C5.94234008,27.5464037 5.93936903,27.3658474 5.92986168,27.2722388 C5.90965855,27.0751494 5.80935595,26.9381265 5.80567185,26.8460642 C5.80483995,26.8240596 5.77215842,26.6404108 5.81066321,26.5471591 C5.84904916,26.4539074 5.93200083,26.442013 5.93140662,26.4247662 C5.9302182,26.3903915 6.13569592,26.231483 6.24063336,26.1564296 C6.34557079,26.0813763 6.53595558,26.0274948 6.53595558,26.0274948 L6.73596657,25.7973391 L6.73049985,25.6692369 C6.73049985,25.6692369 6.50089721,25.4798789 6.34557079,25.3737812 C6.19000669,25.2678026 6.18299502,25.3313184 6.12642625,25.4020898 C6.06997633,25.4728612 6.10527238,25.5435136 5.93568493,25.6709022 C5.76609748,25.7981717 5.82266624,25.6425936 5.85095063,25.3667636 C5.87911617,25.0909335 6.02053808,24.8858749 6.05583414,24.8080858 C6.09113019,24.7302968 6.14769896,24.4544667 6.21829107,24.3978496 C6.28900203,24.3413514 6.30314422,24.3130429 6.28199035,24.2494081 C6.26071765,24.1857733 6.22530275,24.1150019 6.2960137,24.0089043 C6.36672466,23.9029256 6.3314286,23.9029256 6.33844028,23.8179999 C6.34557079,23.7331932 6.36672466,23.5563242 6.47273167,23.4715174 C6.57861984,23.3865918 6.58575036,23.2168593 6.6139159,23.124916 C6.64220028,23.0329727 6.66347299,22.9834921 6.79764554,22.9127208 C6.93193694,22.8420683 7.03794395,22.7712969 6.93894861,22.7712969 C6.84007212,22.7712969 6.77649168,22.7359707 6.76936116,22.6581816 C6.76234949,22.5803925 6.6493308,22.6793536 6.60690422,22.7572616 C6.56447765,22.8350506 6.47273167,22.8137597 6.49388554,22.7147987 C6.5150394,22.6158377 6.50802773,22.5663572 6.44444729,22.4955858 C6.38086685,22.4248144 6.32429809,22.3611796 6.19000669,22.5237754 C6.05583414,22.6864902 5.89325836,22.7712969 5.86497398,22.651045 C5.83680844,22.530912 5.81553573,22.4318321 5.76609748,22.354162 C5.71665923,22.2763729 5.62479441,22.1985838 5.62479441,22.1985838 C5.58355626,22.1461297 5.61386095,22.1429183 5.62681472,22.0798782 C5.63263798,22.0520454 5.63442061,22.0250452 5.6315684,21.9989966 C5.61849579,21.8798152 5.62503209,21.8036913 5.64642364,21.7441006 C5.66793404,21.6845099 5.70441851,21.6414524 5.75064803,21.5885225 C5.8432259,21.4826627 5.90942086,21.3898868 5.79034124,21.2972298 C5.67126161,21.2045728 5.68457191,21.0721886 5.658189,20.8206231 C5.6315684,20.5690575 5.60518549,20.0659264 5.73745657,19.7746337 C5.82361698,19.5850377 5.97145636,19.2041806 6.10812459,19.0129194 C6.13070456,18.9812804 6.15589905,18.973668 6.14056844,18.9384607 L6.14057773,18.882758 C6.13926861,18.7806375 6.13002122,18.5671191 6.076988,18.4928983 C6.00639589,18.3938183 5.87341175,18.3458841 5.77762515,18.3382717 C5.68207623,18.3306593 5.52948317,18.491352 5.38283221,18.520969 C5.31616189,18.5344096 5.30415885,18.4145145 5.23736968,18.4266468 C5.15144695,18.4422284 5.01168883,18.5888857 4.93812567,18.5915025 C4.85980883,18.5942382 4.79242544,18.58615 4.74453214,18.5598635 C4.54048053,18.4474619 5.24319293,18.0844462 5.3144981,18.0231903 C5.34444627,17.9974985 5.55669798,17.9147138 5.61112759,17.7384395 C5.63774818,17.6525623 5.44855181,17.5281474 5.49989153,17.4539266 C5.59769845,17.3126217 5.93009936,17.3328421 5.98738118,17.1949865 C6.0733039,16.9882627 6.09933029,16.9032181 6.01007999,16.8109179 C5.94067629,16.7389571 5.70548809,16.7700013 5.60732464,16.6583134 C5.38283221,16.4029416 5.5468341,16.4123382 5.47541009,16.1161688 C5.41753406,15.8754271 5.3978063,15.5555879 5.41064123,15.2213566 C5.41349344,15.1442812 5.52472949,15.0195095 5.53744558,14.9343459 C5.60185792,14.5029377 5.63335103,14.3519984 5.69455463,14.2192574 C5.72699848,14.1488429 5.92344421,13.980062 6.01673514,13.8175851 C6.05274425,13.7549019 6.01364525,13.6300112 6.05321961,13.5575746 C6.10420281,13.4644418 6.23457242,13.3852254 6.28567445,13.2803172 C6.41283533,13.0188794 6.07995905,12.7851553 5.79521376,12.7155734 C5.64594828,12.6791767 5.57963447,12.73734 5.50607131,12.6390927 C5.29179929,12.3531525 5.28942245,12.2769097 5.55479651,12.2359931 C5.61065222,12.2273102 5.65747594,12.2048299 5.69633726,12.1731909 C5.73686236,12.1400057 5.85926956,12.2254071 5.90098309,12.189843 C6.00116684,12.1043226 5.87305523,12.0026259 5.83455044,11.9569516 C5.79889786,11.9147266 5.73210868,11.8362239 5.76288875,11.7424964 C5.77928894,11.6930159 5.88482058,11.5932223 5.88921773,11.5531383 C5.9095397,11.3692516 5.88125532,11.2200964 5.74732045,10.9509272 C5.62824083,10.7118508 6.16742672,10.5910041 6.3359446,10.4939462 L6.38764084,10.4448225 C6.42828478,10.4391133 6.4818825,10.3682229 6.58016479,10.2698566 C6.59062288,10.2593896 6.7961006,10.1729176 6.76116107,10.0915603 L6.77447136,10.047908 C6.77447136,10.047908 6.80988626,9.91516703 6.73026216,9.85307851 C6.65063806,9.79110893 6.59751571,9.78218816 6.65943236,9.69369418 C6.72134902,9.60508126 6.74796961,9.53430986 6.65943236,9.52538909 C6.57089512,9.51646833 6.64172491,9.15345269 6.72134902,9.09148311 C6.80109196,9.02939459 6.93371957,8.96742502 7.02237566,9.01167201 C7.11079406,9.05603794 7.19041816,8.90545544 7.10188092,8.78139734 L7.02427713,8.75487294 C6.98089982,8.70384616 6.94120661,8.65698242 6.92742094,8.62010992 C6.86859418,8.46274764 7.09831566,8.35534164 7.27527131,8.23723071 C7.45222696,8.11911979 7.31175579,8.08605349 7.29202802,7.92857227 C7.2724191,7.77109104 7.36666076,7.5936273 7.36666076,7.5936273 C7.36666076,7.5936273 7.65675395,7.646914 7.72306775,7.61253932 C7.74505351,7.60123968 7.58235889,7.38166994 7.58235889,7.33742295 C7.58235889,7.16031604 7.67683823,7.16721476 7.67683823,7.16721476 C7.67683823,7.16721476 7.80494985,7.35490764 7.88065217,7.36133059 C7.95623564,7.3676346 7.89990456,7.13129382 7.89027836,6.96405922 C7.88053332,6.79682462 8.00745652,6.8404769 8.16575399,6.84452098 L8.21091393,6.84475886 L8.21091393,6.84475886 C8.2519144,6.84416415 8.25001292,6.86355194 8.26997837,6.82406269 C8.26997837,6.82406269 8.34080817,6.71784612 8.39393052,6.62043138 C8.44705287,6.52289768 8.47343578,6.49637328 8.41151912,6.38123595 C8.34960247,6.26621756 8.33748059,6.25729679 8.47034589,6.24849497 C8.60297349,6.23957421 8.62068094,6.16844598 8.5675586,6.08875382 C8.51455509,6.00906166 8.48246776,6.03582395 8.62400852,6.00049772 C8.76554927,5.96493361 8.80975847,6.08007094 8.99562727,6.14215946 C9.18149607,6.20412904 9.19908468,6.1332387 9.31424252,5.98277514 C9.42928152,5.83207369 9.49119817,5.87643962 9.57973542,5.88536039 C9.66815383,5.89416221 9.79210597,5.95613179 9.92473358,5.97385437 C10.0575989,5.99157696 10.1549304,6.03582395 10.1018081,6.19520827 C10.0486857,6.35471154 10.2256414,6.35471154 10.3141786,6.26609861 C10.402597,6.17760463 10.5884658,6.24849497 10.7122991,6.23957421 C10.8362513,6.23065344 10.7654215,5.96493361 10.6415882,5.89416221 C10.5177549,5.82327187 10.5354623,5.77010411 10.747714,5.69933272 C10.8656977,5.65994919 10.8580536,5.61509574 10.8294819,5.56632236 L10.7918512,5.50601196 C10.7804264,5.48534744 10.7723539,5.46415493 10.7743346,5.44253364 C10.7831289,5.34499995 10.8716662,5.35392072 11.1459534,5.2918322 C11.4202406,5.22986262 11.3052016,5.16789304 11.2167832,5.07928012 C11.1282459,4.99078614 11.1902814,4.94653914 11.2521981,4.88445062 C11.3141147,4.82248105 11.3141147,4.7958377 11.1990757,4.69854189 C11.0840367,4.60112715 11.2521981,4.55676121 11.3318222,4.45054464 C11.4114463,4.34420913 11.437948,4.3531299 11.5619002,4.3531299 C11.6857335,4.3531299 11.7565633,4.23787362 11.9512264,4.23787362 C12.1458895,4.23787362 12.0927671,4.26451697 12.2875491,4.19362663 C12.4822122,4.12285523 12.4025881,4.19362663 12.588338,4.26451697 C12.7742068,4.33540731 12.8538309,4.32648655 12.9335739,4.2290718 C13.013198,4.13165705 13.0928221,4.20254739 13.2962795,4.18482481 C13.4998557,4.16710222 13.4998557,4.18482481 13.5617724,4.24679439 C13.6238079,4.30876396 13.6680171,4.33540731 13.7210206,4.29996214 C13.7742618,4.26451697 13.7299337,4.26451697 13.8803876,4.26451697 C14.0308415,4.26451697 14.1457617,4.25559621 14.278627,4.17590404 C14.4112546,4.09621188 14.7209567,4.04304413 15.0307776,4.06076671 C15.3404798,4.0784893 15.4820205,4.32648655 15.5351429,4.44162388 C15.5882652,4.55676121 15.7033042,4.56568198 15.7475134,4.45934646 C15.7917226,4.3531299 15.8537581,4.45054464 15.9421765,4.43282206 C16.0307138,4.41509947 16.0926304,4.43282206 16.1103379,4.53023681 C16.1280453,4.62765155 16.349329,4.71626448 16.535079,4.81356028 C16.7209478,4.91109397 16.9334372,5.24758521 16.9510258,5.46013729 C16.9687332,5.67268937 17.1279814,5.70813454 17.2430204,5.5929972 C17.3581783,5.47785987 17.5376296,5.62511196 17.5376296,5.62511196 L17.5402441,5.67411669 C17.5187337,5.71717424 17.513267,5.75368991 17.5307368,5.78092797 C17.6235523,5.92710957 17.5788677,6.0780489 17.8575521,5.98515401 C17.9618953,5.95018461 18.0945229,5.79377387 18.2321419,5.72478663 C18.4615069,5.60976824 18.6837413,5.56861378 18.6592598,5.49855605 C18.6055433,5.34476207 18.7073908,4.87790873 18.866639,5.11686627 C18.9047873,5.17419705 18.8983698,5.16491946 18.9675358,5.17419705 C18.9865506,5.18228521 19.0233916,5.19655843 19.0453773,5.20571709 L19.1473437,5.24829887 C19.214014,5.2743475 19.2785452,5.29789832 19.3226356,5.30955478 C19.356149,5.31847555 19.398219,5.3065812 19.4291179,5.29563839 C19.5964474,5.23616663 19.8539779,5.03455735 19.9597472,4.92869762 C20.0924937,4.7958377 20.2871568,4.76931329 20.4641124,4.60992897 C20.6411869,4.45054464 20.6853961,4.23787362 20.6322738,4.11393447 C20.5791514,3.98987637 20.5526497,3.94562938 20.5261479,3.8571354 C20.4995273,3.76852247 20.3137774,3.54704963 20.2252401,3.55597039 C20.1367029,3.56489115 20.0482845,3.59141556 19.9951621,3.51160446 C19.9420398,3.43203124 19.9066249,3.44963488 19.800499,3.40538789 C19.6942543,3.3611409 19.5615079,3.07769848 19.6057171,2.85634457 C19.6500451,2.63487173 19.6234245,2.60834732 19.455382,2.65259432 C19.2872207,2.69684131 19.3137224,2.47548741 19.2784264,2.27173715 C19.2430115,2.06798689 19.4995912,1.8289104 19.7031675,1.69605049 C19.9066249,1.56319057 19.7827916,1.41260806 19.5438004,1.39488548 C19.3049281,1.37716289 19.3580505,1.40380624 19.2251852,1.27094633 C19.0925576,1.13808641 19.1190593,1.04947348 19.1456799,0.881168394 C19.1721817,0.712982249 19.2518058,0.766150005 19.2607189,0.854643988 C19.2695132,0.943256914 19.3933465,0.881168394 19.4818838,0.801476232 C19.570421,0.72178407 19.6677526,0.766150005 19.7827916,0.774951826 C19.8978306,0.783753647 20.2775306,0.759845998 20.4121785,0.755801918 C20.5469453,0.751638895 20.7242574,0.578695009 20.8085164,0.574650929 C21.1394912,0.55883144 21.2113906,0.693951285 21.2520345,0.76733944 C21.3030177,0.859163842 21.2668898,1.08682175 21.4608398,1.09693195 C21.6547899,1.10716109 21.7669766,1.07647366 21.9711471,0.851789343 C22.1753176,0.627105024 21.9991938,0.411222525 21.907329,0.206877549 C21.8154642,0.00253257263 21.8664474,0.022990859 22.070499,0.0842467745 C22.2746694,0.14550269 22.5912644,0.0730660831 22.7250804,0.0147837557 C22.8184902,-0.0257759864 23.0440522,0.0238234637 23.3503078,0.0825815651 Z" id="形状结合"></path>
            </g>
        </g>
    </g>
</svg>