<?xml version="1.0" encoding="UTF-8"?>
<svg width="60px" height="32px" viewBox="0 0 60 32" version="1.1" xmlns="http://www.w3.org/2000/svg" xmlns:xlink="http://www.w3.org/1999/xlink">
    <title>tlkg_ktv_square_nps_tag_sss </title>
    <g id="tlkg_ktv_square_nps_tag_sss-" stroke="none" stroke-width="1" fill="none" fill-rule="evenodd">
        <g id="编组">
            <path d="M2,0 L58,0 C59.1045695,-2.02906125e-16 60,0.8954305 60,2 L60,30 C60,31.1045695 59.1045695,32 58,32 L2,32 C0.8954305,32 1.3527075e-16,31.1045695 0,30 L0,2 C-1.3527075e-16,0.8954305 0.8954305,2.02906125e-16 2,0 Z" id="矩形" fill="#DC8C42"></path>
            <path d="M14,23.12 C14.98,23.62 16.44,23.88 18.1,23.88 C21.46,23.88 23.26,22.1 23.28,19.84 C23.3,17.3 21.58,16.6 18.84,15.7 C16.58,14.96 15.56,14.46 15.56,12.84 C15.56,11.3 16.68,10.2 19.02,10.2 C20.72,10.2 21.76,10.44 22.8,11 L22.8,9.78 C21.86,9.24 20.76,9 19.04,9 C16,9 14.3,10.56 14.28,12.9 C14.26,15.44 16.04,16.08 18.7,16.94 C20.88,17.66 21.98,18.24 21.98,19.9 C21.98,21.44 20.62,22.7 18.16,22.7 C16.58,22.7 15.02,22.32 14,21.92 L14,23.12 Z M25.76,23.12 C26.74,23.62 28.2,23.88 29.86,23.88 C33.22,23.88 35.02,22.1 35.04,19.84 C35.06,17.3 33.34,16.6 30.6,15.7 C28.34,14.96 27.32,14.46 27.32,12.84 C27.32,11.3 28.44,10.2 30.78,10.2 C32.48,10.2 33.52,10.44 34.56,11 L34.56,9.78 C33.62,9.24 32.52,9 30.8,9 C27.76,9 26.06,10.56 26.04,12.9 C26.02,15.44 27.8,16.08 30.46,16.94 C32.64,17.66 33.74,18.24 33.74,19.9 C33.74,21.44 32.38,22.7 29.92,22.7 C28.34,22.7 26.78,22.32 25.76,21.92 L25.76,23.12 Z M37.52,23.12 C38.5,23.62 39.96,23.88 41.62,23.88 C44.98,23.88 46.78,22.1 46.8,19.84 C46.82,17.3 45.1,16.6 42.36,15.7 C40.1,14.96 39.08,14.46 39.08,12.84 C39.08,11.3 40.2,10.2 42.54,10.2 C44.24,10.2 45.28,10.44 46.32,11 L46.32,9.78 C45.38,9.24 44.28,9 42.56,9 C39.52,9 37.82,10.56 37.8,12.9 C37.78,15.44 39.56,16.08 42.22,16.94 C44.4,17.66 45.5,18.24 45.5,19.9 C45.5,21.44 44.14,22.7 41.68,22.7 C40.1,22.7 38.54,22.32 37.52,21.92 L37.52,23.12 Z" id="形状结合" fill="#FFFFFF" fill-rule="nonzero"></path>
        </g>
    </g>
</svg>