<?xml version="1.0" encoding="UTF-8"?>
<svg width="60px" height="32px" viewBox="0 0 60 32" version="1.1" xmlns="http://www.w3.org/2000/svg" xmlns:xlink="http://www.w3.org/1999/xlink">
    <title>tlkg_ktv_square_nps_tag_s </title>
    <g id="tlkg_ktv_square_nps_tag_s-" stroke="none" stroke-width="1" fill="none" fill-rule="evenodd">
        <g id="编组">
            <path d="M2,0 L58,0 C59.1045695,-2.02906125e-16 60,0.8954305 60,2 L60,30 C60,31.1045695 59.1045695,32 58,32 L2,32 C0.8954305,32 1.3527075e-16,31.1045695 0,30 L0,2 C-1.3527075e-16,0.8954305 0.8954305,2.02906125e-16 2,0 Z" id="矩形" fill="#5AAFCF"></path>
            <g id="S" transform="translate(25.000000, 9.000000)" fill="#FFFFFF" fill-rule="nonzero">
                <path d="M0,14.12 C0.98,14.62 2.44,14.88 4.1,14.88 C7.46,14.88 9.26,13.1 9.28,10.84 C9.3,8.3 7.58,7.6 4.84,6.7 C2.58,5.96 1.56,5.46 1.56,3.84 C1.56,2.3 2.68,1.2 5.02,1.2 C6.72,1.2 7.76,1.44 8.8,2 L8.8,0.78 C7.86,0.24 6.76,0 5.04,0 C2,0 0.3,1.56 0.28,3.9 C0.26,6.44 2.04,7.08 4.7,7.94 C6.88,8.66 7.98,9.24 7.98,10.9 C7.98,12.44 6.62,13.7 4.16,13.7 C2.58,13.7 1.02,13.32 0,12.92 L0,14.12 Z" id="路径"></path>
            </g>
        </g>
    </g>
</svg>