<?xml version="1.0" encoding="UTF-8"?>
<svg width="60px" height="32px" viewBox="0 0 60 32" version="1.1" xmlns="http://www.w3.org/2000/svg" xmlns:xlink="http://www.w3.org/1999/xlink">
    <title>tlkg_ktv_list_tag_cn_rating </title>
    <g id="tlkg_ktv_list_tag_cn_rating-" stroke="none" stroke-width="1" fill="none" fill-rule="evenodd">
        <path d="M58,0 C59.1045695,0 60,0.8954305 60,2 L60,30 C60,31.1045695 59.1045695,32 58,32 L2,32 C0.8954305,32 0,31.1045695 0,30 L0,2 C0,0.8954305 0.8954305,0 2,0 L58,0 Z M58,1.2 L2,1.2 C1.5581722,1.2 1.2,1.5581722 1.2,2 L1.2,30 C1.2,30.4418278 1.5581722,30.8 2,30.8 L58,30.8 C58.4418278,30.8 58.8,30.4418278 58.8,30 L58.8,2 C58.8,1.5581722 58.4418278,1.2 58,1.2 Z M37.8598318,14.8416634 L45.7668648,14.8416634 L45.6004009,16.4896126 L44.9345455,22.9166145 C44.7680817,23.6856575 44.33805,24.1937752 43.6444507,24.4409676 C42.9508513,24.6881599 42.2711239,24.839222 41.6052685,24.8941536 C41.6052685,24.3997688 41.4110607,23.8229866 41.022645,23.1638069 C42.132404,23.2187386 42.7982594,23.1363411 43.0202112,22.9166145 C43.242163,22.696888 43.4086269,22.3398323 43.5196028,21.8454475 L44.1022263,16.1600227 L40.2735577,16.1600227 C39.885142,18.7418098 39.1915426,20.6918831 38.1927595,22.0102425 C37.1939764,23.3286018 35.8345216,24.4272346 34.1143951,25.3061409 C33.8369554,24.8666878 33.4762837,24.4547005 33.0323801,24.070179 C34.1976271,23.6856575 35.1270502,23.150074 35.8206496,22.4634285 C36.514249,21.776783 37.1384885,20.8704109 37.693368,19.7443123 C38.2482475,18.6182137 38.5811752,17.4234505 38.6921511,16.1600227 C36.8055607,16.1600227 35.5293379,16.1874886 34.8634825,16.2424202 L34.8634825,14.7592659 C35.4738499,14.7592659 36.472633,14.7867317 37.8598318,14.8416634 Z M27.9402218,7.91295242 L27.9402218,9.3384285 C27.3851833,9.28563309 26.7468891,9.25923538 26.0253391,9.25923538 L23.9439449,9.25923538 L23.9439449,16.3074226 L26.2751064,16.3074226 C27.2741756,16.3074226 28.1344852,16.2810249 28.8560352,16.2282295 L28.8560352,17.7328987 C28.1899891,17.6801033 27.3296795,17.6537056 26.2751064,17.6537056 L23.9439449,17.6537056 L23.9439449,22.8012581 C23.9439449,23.8043709 23.9716969,24.6226997 24.0272007,25.2562447 L22.3620853,25.2562447 C22.4175892,24.6226997 22.4453411,23.8043709 22.4453411,22.8012581 L22.4453411,17.6537056 L19.8644123,17.6537056 C19.0318546,17.6537056 18.2270489,17.6801033 17.449995,17.7328987 L17.449995,16.2282295 C18.171545,16.2810249 18.9763508,16.3074226 19.8644123,16.3074226 L22.4453411,16.3074226 L22.4453411,9.25923538 L20.1141796,9.25923538 C19.4481335,9.25923538 18.8375912,9.28563309 18.2825527,9.3384285 L18.2825527,7.91295242 C18.8375912,7.96574783 19.4203815,7.99214554 20.0309238,7.99214554 L26.0253391,7.99214554 C26.802393,8.04494095 27.4406872,8.01854324 27.9402218,7.91295242 Z M11,13.2230682 L13.1925449,13.3049507 L15.4581747,13.3049507 C15.4094515,14.1783638 15.3850899,15.242836 15.3850899,16.4983673 L15.3850899,20.7562561 C16.067215,20.046608 16.627532,19.4188423 17.066041,18.8729591 C17.3583803,19.4188423 17.6019964,19.9101372 17.7968893,20.3468437 C17.631654,20.5082353 17.4723134,20.66488 17.3188675,20.8167779 L16.8762139,21.2582313 C15.5304766,22.6110722 14.7167344,23.5355135 14.4349871,24.0315552 C14.1426477,23.5402603 13.8015852,23.1308479 13.4117994,22.803318 C13.6554155,22.4211998 13.8259468,21.9844933 13.9233932,21.4931984 L13.9233932,14.7788353 L13.1194601,14.7788353 C12.3886118,14.7788353 11.6821251,14.8061295 11,14.8607178 L11,13.2230682 Z M36.9452724,7.58397293 C37.3426113,7.79230626 37.8641186,8.02668126 38.5097942,8.28709793 C37.5661144,10.1100146 36.6100178,11.6855354 35.6415043,13.0136604 C34.6729908,14.3417854 33.6672268,15.4745979 32.6242123,16.4120979 C32.2765408,15.9954313 31.8792019,15.6048063 31.4321957,15.2402229 C32.2765408,14.7193896 33.2947216,13.6907438 34.4867382,12.1542854 C35.6787548,10.6178271 36.4982662,9.0943896 36.9452724,7.58397293 Z M42.6818523,7.34959793 C43.0295238,8.49543126 43.7869511,9.81053543 44.954134,11.2949104 C46.1213169,12.7792854 47.4995861,13.8339729 49.0889416,14.4589729 C48.6419353,14.9798063 48.3190975,15.4745979 48.1204281,15.9433479 C46.8290768,15.2662646 45.6370602,14.3548063 44.5443783,13.2089729 C43.4516964,12.0631396 42.3838482,10.3183479 41.3408337,7.97459793 C41.9865093,7.7662646 42.4335155,7.55793126 42.6818523,7.34959793 Z M26.6913853,10.2095528 C27.135416,10.4207344 27.6627026,10.6847115 28.2732449,11.0014839 C27.5516949,12.42696 26.7191372,13.9844246 25.7755718,15.6738777 C25.2205334,15.3571053 24.7765026,15.1459236 24.4434795,15.0403328 C25.4425488,13.3508797 26.1918507,11.7406197 26.6913853,10.2095528 Z M19.2816219,10.5263252 C20.0031719,11.6878242 20.7524738,12.9813118 21.5295277,14.4067879 C21.0299931,14.6707649 20.5304585,14.9611397 20.0309238,15.2779121 C19.3648777,13.6412544 18.6988316,12.3213692 18.0327854,11.3182564 C18.4768162,11.1070747 18.893095,10.8430977 19.2816219,10.5263252 Z M13.6310539,7 C14.3619022,8.20094299 15.0440273,9.40188599 15.6774292,10.602829 C15.2389202,10.8757706 14.8004112,11.1760063 14.3619022,11.5035362 C13.6310539,10.1388283 12.9732904,8.96517944 12.3886118,7.98258972 C12.875844,7.70964813 13.2899914,7.38211823 13.6310539,7 Z" id="形状结合" fill="#24CC94" fill-rule="nonzero"></path>
    </g>
</svg>