<?xml version="1.0" encoding="UTF-8"?>
<svg width="60px" height="32px" viewBox="0 0 60 32" version="1.1" xmlns="http://www.w3.org/2000/svg" xmlns:xlink="http://www.w3.org/1999/xlink">
    <title>tlkg_ktv_list_tag_mv </title>
    <g id="tlkg_ktv_list_tag_mv-" stroke="none" stroke-width="1" fill="none" fill-rule="evenodd">
        <path d="M58,0 C59.1045695,0 60,0.8954305 60,2 L60,30 C60,31.1045695 59.1045695,32 58,32 L2,32 C0.8954305,32 0,31.1045695 0,30 L0,2 C0,0.8954305 0.8954305,0 2,0 L58,0 Z M58,1.2 L2,1.2 C1.5581722,1.2 1.2,1.5581722 1.2,2 L1.2,30 C1.2,30.4418278 1.5581722,30.8 2,30.8 L58,30.8 C58.4418278,30.8 58.8,30.4418278 58.8,30 L58.8,2 C58.8,1.5581722 58.4418278,1.2 58,1.2 Z M17.56,9 L22.04,16.48 C22.28,16.9 22.48,17.34 22.66,17.78 C22.82,17.34 23.02,16.9 23.3,16.48 L27.78,9 L29.32,9 L29.32,23.48 L28,23.48 L28,12.24 C28,11.78 27.98,11.16 28.04,10.62 C27.82,11.14 27.52,11.74 27.32,12.1 L23.1,19.06 L22.24,19.06 L18.06,12.1 C17.82,11.74 17.48,11.12 17.24,10.6 C17.3,11.14 17.32,11.78 17.32,12.24 L17.32,23.48 L16,23.48 L16,9 L17.56,9 Z M33.32,9 L37.46,20.18 C37.72,20.82 37.96,21.38 38.1,22.04 C38.26,21.38 38.52,20.82 38.76,20.18 L42.88,9 L44.22,9 L38.82,23.48 L37.38,23.48 L31.94,9 L33.32,9 Z" id="形状结合" fill="#8DB9FF" fill-rule="nonzero"></path>
    </g>
</svg>