<?xml version="1.0" encoding="UTF-8"?>
<svg width="60px" height="32px" viewBox="0 0 60 32" version="1.1" xmlns="http://www.w3.org/2000/svg" xmlns:xlink="http://www.w3.org/1999/xlink">
    <title>tlkg_ktv_square_left_tag_c </title>
    <g id="tlkg_ktv_square_left_tag_c-" stroke="none" stroke-width="1" fill="none" fill-rule="evenodd">
        <g id="编组">
            <path d="M0,0 L58,0 C59.1045695,-2.02906125e-16 60,0.8954305 60,2 L60,30 C60,31.1045695 59.1045695,32 58,32 L2,32 C0.8954305,32 1.3527075e-16,31.1045695 0,30 L0,0 L0,0 Z" id="矩形" fill="#865CD5"></path>
            <g id="C" transform="translate(25.000000, 9.000000)" fill="#FFFFFF" fill-rule="nonzero">
                <path d="M9.82,13.08 C8.98,13.44 7.84,13.72 6.18,13.72 C3.58,13.72 1.3,11.86 1.3,7.44 C1.3,3.44 2.86,1.22 6.1,1.22 C7.34,1.22 8.72,1.5 9.62,1.94 L9.62,0.74 C8.8,0.24 7.32,0 6,0 C2.16,0 0,2.9 0,7.44 C0,12.54 2.52,14.88 6.06,14.88 C7.78,14.88 8.96,14.64 9.82,14.22 L9.82,13.08 Z" id="路径"></path>
            </g>
        </g>
    </g>
</svg>