<?xml version="1.0" encoding="UTF-8"?>
<svg width="60px" height="32px" viewBox="0 0 60 32" version="1.1" xmlns="http://www.w3.org/2000/svg" xmlns:xlink="http://www.w3.org/1999/xlink">
    <title>tlkg_ktv_nps_quality_tag_vip </title>
    <g id="tlkg_ktv_nps_quality_tag_vip-" stroke="none" stroke-width="1" fill="none" fill-rule="evenodd">
        <path d="M2,0 L58,0 C59.1045695,-2.02906125e-16 60,0.8954305 60,2 L60,30 C60,31.1045695 59.1045695,32 58,32 L2,32 C0.8954305,32 1.3527075e-16,31.1045695 0,30 L0,2 C-1.3527075e-16,0.8954305 0.8954305,2.02906125e-16 2,0 Z" id="矩形" fill="#D8B46F"></path>
        <path d="M21.88,23.48 L27.28,9 L25.94,9 L21.82,20.18 C21.58,20.82 21.32,21.38 21.16,22.04 C21.02,21.38 20.78,20.82 20.52,20.18 L16.38,9 L15,9 L20.44,23.48 L21.88,23.48 Z M31.18,23.48 L31.18,9 L29.9,9 L29.9,23.48 L31.18,23.48 Z M36.9,23.48 L36.9,17.74 L39.94,17.74 C43.56,17.74 44.8,16.06 44.8,13.38 C44.8,10.74 43.38,9 40.14,9 L35.62,9 L35.62,23.48 L36.9,23.48 Z M36.9,16.66 L36.9,10.1 L39.84,10.1 C42.48,10.1 43.44,11.42 43.44,13.38 C43.44,15.48 42.5,16.66 39.78,16.66 L36.9,16.66 Z" id="形状结合" fill="#FFFFFF" fill-rule="nonzero"></path>
    </g>
</svg>