<?xml version="1.0" encoding="UTF-8"?>
<svg width="60px" height="32px" viewBox="0 0 60 32" version="1.1" xmlns="http://www.w3.org/2000/svg" xmlns:xlink="http://www.w3.org/1999/xlink">
    <title>tlkg_ktv_square_left_tag_ss </title>
    <g id="tlkg_ktv_square_left_tag_ss-" stroke="none" stroke-width="1" fill="none" fill-rule="evenodd">
        <g id="编组">
            <path d="M0,0 L58,0 C59.1045695,-2.02906125e-16 60,0.8954305 60,2 L60,30 C60,31.1045695 59.1045695,32 58,32 L2,32 C0.8954305,32 1.3527075e-16,31.1045695 0,30 L0,0 L0,0 Z" id="矩形" fill="#BB3FE2"></path>
            <path d="M19,23.12 C19.98,23.62 21.44,23.88 23.1,23.88 C26.46,23.88 28.26,22.1 28.28,19.84 C28.3,17.3 26.58,16.6 23.84,15.7 C21.58,14.96 20.56,14.46 20.56,12.84 C20.56,11.3 21.68,10.2 24.02,10.2 C25.72,10.2 26.76,10.44 27.8,11 L27.8,9.78 C26.86,9.24 25.76,9 24.04,9 C21,9 19.3,10.56 19.28,12.9 C19.26,15.44 21.04,16.08 23.7,16.94 C25.88,17.66 26.98,18.24 26.98,19.9 C26.98,21.44 25.62,22.7 23.16,22.7 C21.58,22.7 20.02,22.32 19,21.92 L19,23.12 Z M30.76,23.12 C31.74,23.62 33.2,23.88 34.86,23.88 C38.22,23.88 40.02,22.1 40.04,19.84 C40.06,17.3 38.34,16.6 35.6,15.7 C33.34,14.96 32.32,14.46 32.32,12.84 C32.32,11.3 33.44,10.2 35.78,10.2 C37.48,10.2 38.52,10.44 39.56,11 L39.56,9.78 C38.62,9.24 37.52,9 35.8,9 C32.76,9 31.06,10.56 31.04,12.9 C31.02,15.44 32.8,16.08 35.46,16.94 C37.64,17.66 38.74,18.24 38.74,19.9 C38.74,21.44 37.38,22.7 34.92,22.7 C33.34,22.7 31.78,22.32 30.76,21.92 L30.76,23.12 Z" id="形状结合" fill="#FFFFFF" fill-rule="nonzero"></path>
        </g>
    </g>
</svg>