<?xml version="1.0" encoding="UTF-8"?>
<svg width="60px" height="32px" viewBox="0 0 60 32" version="1.1" xmlns="http://www.w3.org/2000/svg" xmlns:xlink="http://www.w3.org/1999/xlink">
    <title>tlkg_ktv_square_left_tag_a </title>
    <g id="tlkg_ktv_square_left_tag_a-" stroke="none" stroke-width="1" fill="none" fill-rule="evenodd">
        <g id="编组">
            <path d="M0,0 L58,0 C59.1045695,-2.02906125e-16 60,0.8954305 60,2 L60,30 C60,31.1045695 59.1045695,32 58,32 L2,32 C0.8954305,32 1.3527075e-16,31.1045695 0,30 L0,0 L0,0 Z" id="矩形" fill="#865CD5"></path>
            <g id="A" transform="translate(24.000000, 9.000000)" fill="#FFFFFF" fill-rule="nonzero">
                <path d="M12.38,14.48 L6.88,0 L5.44,0 L0,14.48 L1.32,14.48 L2.8,10.42 L9.5,10.42 L10.98,14.48 L12.38,14.48 Z M9.12,9.34 L3.18,9.34 L5.68,2.46 C5.82,2.06 6.04,1.54 6.16,1 C6.26,1.54 6.44,2.06 6.62,2.46 L9.12,9.34 Z" id="形状"></path>
            </g>
        </g>
    </g>
</svg>