<svg id="Ebene_1" data-name="Ebene 1" xmlns="http://www.w3.org/2000/svg" viewBox="0 0 44 44"><defs><style>.cls-1{fill:#00f300;}</style></defs><g id="icid-pplonroad_d0_m-nar-2" data-name="icid-pplonroad d0 m-nar-2"><g id="Bildmaterial_1" data-name="Bildmaterial 1"><path class="cls-1" d="M22,41.8a1.60583,1.60583,0,0,1-1.1-.5L2.7,23.1a1.56944,1.56944,0,0,1,0-2.2L20.9,2.7a1.46,1.46,0,0,1,2.2,0L41.3,20.9a1.56944,1.56944,0,0,1,0,2.2L23.1,41.3A1.60583,1.60583,0,0,1,22,41.8Z"/><path d="M22,2.5a.97478.97478,0,0,1,.9.4L41.1,21.1a1.22152,1.22152,0,0,1,.4.9,1.08579,1.08579,0,0,1-.4.9L22.9,41.1a1.22152,1.22152,0,0,1-.9.4,1.08579,1.08579,0,0,1-.9-.4L2.9,22.9a1.39083,1.39083,0,0,1,0-1.9L21.1,2.9a.97478.97478,0,0,1,.9-.4M22,2a2.10618,2.10618,0,0,0-1.3.5L2.5,20.7a1.872,1.872,0,0,0,0,2.6L20.7,41.5A1.65588,1.65588,0,0,0,22,42a2.10618,2.10618,0,0,0,1.3-.5L41.5,23.3a1.872,1.872,0,0,0,0-2.6L23.3,2.5A2.10618,2.10618,0,0,0,22,2Z"/><path d="M21.8,40.4,3.6,22.2a.44638.44638,0,0,1,0-.5L21.8,3.6a.44638.44638,0,0,1,.5,0L40.5,21.8a.44638.44638,0,0,1,0,.5L22.2,40.4A.30417.30417,0,0,1,21.8,40.4Z"/></g><path class="cls-1" d="M27.79558,32.51851q-.22388-.90627-.44381-1.81352-.86994-3.55653-1.7385-7.11346a.28624.28624,0,0,1,.00465-.14886,4.71212,4.71212,0,0,0,.20658-1.10107,8.49708,8.49708,0,0,0-.143-2.1501,15.32654,15.32654,0,0,0-.77562-2.72247c-.00949-.025-.01545-.05138-.02644-.08856.39157.07913.76985.15749,1.14918.23021a.09233.09233,0,0,1,.08921.09538l-.00021.00392q.08307.87258.171,1.74466.12411,1.24806.24757,2.49618c.00595.06146.03.0807.08765.0898.21025.033.41958.07213.62938.10807.135.0231.27027.04458.41114.06769.00262-.03928.00582-.06455.00582-.08988q.00041-2.672-.00242-5.34387a.17809.17809,0,0,0-.06258-.12594,27.15532,27.15532,0,0,0-3.46109-2.16988,8.15355,8.15355,0,0,0-1.88448-.747,1.83718,1.83718,0,0,0-.863-.04033,1.6679,1.6679,0,0,0-.81456.535,5.28347,5.28347,0,0,0-.94685,1.59019,16.4116,16.4116,0,0,0-.778,2.51116.25885.25885,0,0,1-.1.14008q-1.53348,1.02783-3.0712,2.04949c-.16338.10886-.32618.21863-.49283.33037.02.03273.0341.05773.05.08163.161.24212.3246.48262.482.7271.04.06219.07645.067.1423.04524q1.9009-.63057,3.80273-1.25837a.27277.27277,0,0,0,.1211-.08549c.17621-.22321.34764-.45016.52078-.67579.08614-.11226.17255-.22439.26543-.34509.01166.02821.0203.04457.02534.06192q.37693,1.29577.75067,2.59234a.20758.20758,0,0,1-.02232.14191q-.991,1.7823-1.98646,3.5621a.59323.59323,0,0,0-.05924.13183q-.87759,3.27015-1.75506,6.54032c-.02056.07645.00713.09406.06657.11553q.73257.26492,1.464.53329c.1444.05263.2888.10512.44053.16037.01611-.04648.02913-.08228.041-.11841q1.0069-3.06529,2.01493-6.13022a.38518.38518,0,0,1,.08019-.13917q.67769-.72726,1.35884-1.4512a.43589.43589,0,0,0,.0487-.082l.03234.02127q1.61106,4.18386,3.2263,8.37845a.50069.50069,0,0,0,.04654-.02436q.7041-.49859,1.4086-.99659C27.80919,32.607,27.8086,32.57114,27.79558,32.51851Z"/><path class="cls-1" d="M20.46217,13.37849a1.74594,1.74594,0,1,0-1.74243-1.75736A1.74594,1.74594,0,0,0,20.46217,13.37849Z"/></g></svg>