<svg id="Ebene_1" data-name="Ebene 1" xmlns="http://www.w3.org/2000/svg" viewBox="0 0 44 44"><defs><style>.cls-1{fill:#00f300;}</style></defs><g id="icid-childonroad_d0_m-nar-2" data-name="icid-childonroad d0 m-nar-2"><path class="cls-1" d="M22,41.8a1.60583,1.60583,0,0,1-1.1-.5L2.7,23.1a1.56944,1.56944,0,0,1,0-2.2L20.9,2.7a1.46,1.46,0,0,1,2.2,0L41.3,20.9a1.56944,1.56944,0,0,1,0,2.2L23.1,41.3A1.60583,1.60583,0,0,1,22,41.8Z"/><path d="M22,2.5a.97478.97478,0,0,1,.9.4L41.1,21.1a1.22152,1.22152,0,0,1,.4.9,1.08579,1.08579,0,0,1-.4.9L22.9,41.1a1.22152,1.22152,0,0,1-.9.4,1.08579,1.08579,0,0,1-.9-.4L2.9,22.9a1.39083,1.39083,0,0,1,0-1.9L21.1,2.9a.97478.97478,0,0,1,.9-.4M22,2a2.10618,2.10618,0,0,0-1.3.5L2.5,20.7a1.872,1.872,0,0,0,0,2.6L20.7,41.5A1.65588,1.65588,0,0,0,22,42a2.10618,2.10618,0,0,0,1.3-.5L41.5,23.3a1.872,1.872,0,0,0,0-2.6L23.3,2.5A2.10618,2.10618,0,0,0,22,2Z"/><path d="M21.8,40.4,3.6,22.2a.44638.44638,0,0,1,0-.5L21.8,3.6a.44638.44638,0,0,1,.5,0L40.5,21.8a.44638.44638,0,0,1,0,.5L22.2,40.4A.30417.30417,0,0,1,21.8,40.4Z"/><path class="cls-1" d="M27.79331,32.36782q-.22386-.90627-.4438-1.81352-.86994-3.55653-1.73851-7.11346a.28645.28645,0,0,1,.00465-.14886,4.71152,4.71152,0,0,0,.20659-1.10107,8.498,8.498,0,0,0-.143-2.1501,15.32651,15.32651,0,0,0-.77561-2.72247c-.00949-.025-.01545-.05138-.02645-.08856.39157.07913.76986.15749,1.14919.23021a.09235.09235,0,0,1,.08922.09536l-.00022.00394q.08307.8726.171,1.74466.12411,1.24806.24756,2.49618c.006.06146.03.08071.08765.08981.21025.033.41959.07213.62938.10807.135.0231.27028.04457.41115.06768.00261-.03927.00582-.06454.00582-.08987q.00039-2.672-.00242-5.34387A.17809.17809,0,0,0,27.603,16.506a27.15361,27.15361,0,0,0-3.4611-2.16988,8.15241,8.15241,0,0,0-1.88447-.747,1.837,1.837,0,0,0-.863-.04033,1.66776,1.66776,0,0,0-.81456.535A5.28342,5.28342,0,0,0,19.633,15.674a16.41026,16.41026,0,0,0-.778,2.51117.259.259,0,0,1-.1.14008q-1.5336,1.0278-3.07129,2.04949c-.16339.10886-.32618.21863-.49284.33037.02.03273.03411.05773.05.08162.161.24213.32461.48263.482.72711.04.06219.07645.067.1423.04523q1.9009-.63055,3.80273-1.25836a.27274.27274,0,0,0,.12109-.08549c.17622-.22321.34765-.45016.52079-.67579.08614-.11226.17255-.22439.26543-.3451.01165.02822.02029.04458.02533.06193q.377,1.29577.75068,2.59234a.20758.20758,0,0,1-.02232.14191q-.991,1.7823-1.98646,3.5621a.59236.59236,0,0,0-.05924.13183q-.87761,3.27014-1.75506,6.54032c-.02056.07645.00713.09406.06657.11553q.73257.26491,1.464.53329c.1444.05263.2888.10512.44053.16037.0161-.04648.02913-.08228.041-.11841q1.0069-3.06531,2.01493-6.13022a.38532.38532,0,0,1,.08019-.13917q.67769-.72729,1.35885-1.4512a.43642.43642,0,0,0,.0487-.082l.03233.02127q1.611,4.18386,3.2263,8.37844a.503.503,0,0,0,.04654-.02435q.7041-.49858,1.40859-.9966C27.80693,32.45632,27.80634,32.42045,27.79331,32.36782Z"/><path class="cls-1" d="M20.45991,13.2278a1.74594,1.74594,0,1,0-1.74243-1.75736A1.74594,1.74594,0,0,0,20.45991,13.2278Z"/></g></svg>