<svg id="Ebene_1" data-name="Ebene 1" xmlns="http://www.w3.org/2000/svg" viewBox="0 0 44 44"><defs><style>.cls-1{fill:#00f300;}</style></defs><g id="icid-roadworks_d0_m-nar-2" data-name="icid-roadworks d0 m-nar-2"><g id="Bildmaterial_1" data-name="Bildmaterial 1"><path class="cls-1" d="M22,41.8a1.60583,1.60583,0,0,1-1.1-.5L2.7,23.1a1.56944,1.56944,0,0,1,0-2.2L20.9,2.7a1.46,1.46,0,0,1,2.2,0L41.3,20.9a1.56944,1.56944,0,0,1,0,2.2L23.1,41.3A1.60583,1.60583,0,0,1,22,41.8Z"/><path d="M22,2.5a.97478.97478,0,0,1,.9.4L41.1,21.1a1.22152,1.22152,0,0,1,.4.9,1.08579,1.08579,0,0,1-.4.9L22.9,41.1a1.22152,1.22152,0,0,1-.9.4,1.08579,1.08579,0,0,1-.9-.4L2.9,22.9a1.39083,1.39083,0,0,1,0-1.9L21.1,2.9a.97478.97478,0,0,1,.9-.4M22,2a2.10618,2.10618,0,0,0-1.3.5L2.5,20.7a1.872,1.872,0,0,0,0,2.6L20.7,41.5A1.65588,1.65588,0,0,0,22,42a2.10618,2.10618,0,0,0,1.3-.5L41.5,23.3a1.872,1.872,0,0,0,0-2.6L23.3,2.5A2.10618,2.10618,0,0,0,22,2Z"/><path d="M21.8,40.4,3.6,22.2a.44638.44638,0,0,1,0-.5L21.8,3.6a.44638.44638,0,0,1,.5,0L40.5,21.8a.44638.44638,0,0,1,0,.5L22.2,40.4A.30417.30417,0,0,1,21.8,40.4Z"/></g><path class="cls-1" d="M18.29054,24.58792l-.09.85037q-.10056.94916-.20095,1.89833c-.063.60384-.12358,1.20792-.18614,1.81181-.07039.6794-.1394,1.359-.218,2.03743a.18429.18429,0,0,1-.13267.11865q-.641.0135-1.28226-.001a.175.175,0,0,1-.11558-.12622c.01214-.71368.03378-1.4272.05383-2.14074.00164-.05839.009-.11662.01054-.175.02632-1.00024.05063-2.00055.07858-3.00074.01977-.70753.04443-1.41493.06669-2.12239.02411-.766.02776-1.53354.08279-2.29734a2.69244,2.69244,0,0,1,.25649-.79434.2972.2972,0,0,0-.08172-.39114c-.499-.46935-.98161-.95615-1.47649-1.43-.107-.10247-.12282-.16482-.00862-.27945q2.08325-2.091,4.1553-4.1931c.1087-.11021.18034-.11992.30279-.01684A2.5695,2.5695,0,0,0,21.55853,14.9c.14371-.01748.176.03947.1879.15341.09543.91155.18852,1.82335.28744,2.73452.09955.917.20765,1.833.30708,2.74992s.1922,1.83471.289,2.752c.04536.42958.08656.85984.14653,1.28742a.424.424,0,0,0,.15977.21544q1.1517.97719,2.30959,1.94711c.61709.51987,1.23342,1.04065,1.81413,1.53068-.11638-.397-.25781-.82217-.36317-1.25608a2.48193,2.48193,0,0,1,.00163-1.16527A1.27316,1.27316,0,0,1,28.421,24.81241c.94011.26176,1.87154.55475,2.8063.83561q1.00743.30269,2.01363.60941c.0589.01785.117.0383.2068.06785-.0625.07045-.101.11872-.1444.16207Q30.9539,28.834,28.60464,31.18082a.39752.39752,0,0,1-.30367.13875c-1.63981-.00454-3.27963-.00288-4.91945-.00329-.05731,0-.11461-.005-.20114-.0091.03494-.08665.05682-.15606.08957-.21988q.85359-1.66341,1.70872-3.326c.157-.30681.1529-.23511-.08619-.43559q-2.24757-1.88459-4.49579-3.76837c-.031-.026-.06273-.05118-.136-.11083.118.33794.21981.63017.3221.92223.116.33109.21442.66974.35263.99129a3.75728,3.75728,0,0,1,.1264,1.60991c-.0008.05829-.0121.11642-.0135.17474q-.03963,1.64979-.07849,3.29961c-.00591.23967-.02254.47909-.0272.71876-.00206.10553-.04809.14807-.14887.14781-.31624-.00081-.63251-.0022-.94872.00108-.12346.00128-.16013-.06033-.1644-.17358-.02074-.54926-.04714-1.09832-.06959-1.64752-.03678-.89979-.0715-1.79966-.1094-2.69942a.35316.35316,0,0,0-.03987-.15021q-.56517-1.03026-1.13507-2.05793Zm2.47082-4.5046-.03278-.006c-.19421.73275-.39037,1.465-.57786,2.19946a.216.216,0,0,0,.0733.15921c.18034.17513.368.34283.554.51207.1869.17.375.33873.60154.54315Zm-3.45574-1.13286.53607-1.32779-.03022-.015-.98993.94615Z"/><path class="cls-1" d="M21.11991,10.27011a2.097,2.097,0,1,1,.0001,4.194q-.00794,0-.01586-.00006a2.097,2.097,0,0,1-.0001-4.194Q21.112,10.27005,21.11991,10.27011Z"/></g></svg>