<svg id="Ebene_1" data-name="Ebene 1" xmlns="http://www.w3.org/2000/svg" viewBox="0 0 44 44"><defs><style>.cls-1,.cls-2{fill:#00f300;}.cls-2{fill-rule:evenodd;}</style></defs><g id="icid-fire_d0_m-nar-2" data-name="icid-fire d0 m-nar-2"><g id="Bildmaterial_1" data-name="Bildmaterial 1"><path class="cls-1" d="M22,41.8a1.60583,1.60583,0,0,1-1.1-.5L2.7,23.1a1.56944,1.56944,0,0,1,0-2.2L20.9,2.7a1.46,1.46,0,0,1,2.2,0L41.3,20.9a1.56944,1.56944,0,0,1,0,2.2L23.1,41.3A1.60583,1.60583,0,0,1,22,41.8Z"/><path d="M22,2.5a.97478.97478,0,0,1,.9.4L41.1,21.1a1.22152,1.22152,0,0,1,.4.9,1.08579,1.08579,0,0,1-.4.9L22.9,41.1a1.22152,1.22152,0,0,1-.9.4,1.08579,1.08579,0,0,1-.9-.4L2.9,22.9a1.39083,1.39083,0,0,1,0-1.9L21.1,2.9a.97478.97478,0,0,1,.9-.4M22,2a2.10618,2.10618,0,0,0-1.3.5L2.5,20.7a1.872,1.872,0,0,0,0,2.6L20.7,41.5A1.65588,1.65588,0,0,0,22,42a2.10618,2.10618,0,0,0,1.3-.5L41.5,23.3a1.872,1.872,0,0,0,0-2.6L23.3,2.5A2.10618,2.10618,0,0,0,22,2Z"/><path d="M21.8,40.4,3.6,22.2a.44638.44638,0,0,1,0-.5L21.8,3.6a.44638.44638,0,0,1,.5,0L40.5,21.8a.44638.44638,0,0,1,0,.5L22.2,40.4A.30417.30417,0,0,1,21.8,40.4Z"/></g><path class="cls-2" d="M26.383,31.44482h-1.63a8.01217,8.01217,0,0,0,1.574-2.424c-.269.236-1.66.351-1.277-.701.423-1.162.021-1.192,0-1.25.155.546-.664.615-.667.625a1.94564,1.94564,0,0,0,0-1.25.6844.6844,0,0,1,0-.625,2.942,2.942,0,0,0-.666.625,5.21389,5.21389,0,0,0,.116-1.474,3.92208,3.92208,0,0,0-.783-1.026c-.118.529.033.638-.283,1.026-.294.362-1.103.922-1.05,1.474-.258-.646-1.334-.625-1.334-.625a3.4312,3.4312,0,0,1,.667,1.875,2.19658,2.19658,0,0,0-1.333-.625,4.58809,4.58809,0,0,1,0,1.875,1.76978,1.76978,0,0,0-1.334-.625,13.30611,13.30611,0,0,0,2.669,3.125H18.383c-2.866-1.248-4.634-5.729-5.333-8.125a6.12464,6.12464,0,0,1,3.333.625,13.529,13.529,0,0,0-.666-3.75,3.84,3.84,0,0,1,2.666.625c.288-1.804-1.333-4.375-1.333-4.375s3.402-.3,4,1.25c-.123-1.324,1.56-2.129,2.243-2.997a4.97272,4.97272,0,0,0,1.09-2.628,12.87684,12.87684,0,0,1,1.334,2.5,7.82273,7.82273,0,0,1,0,2.5,21.0317,21.0317,0,0,1,2-1.25c.023.007-1.068,1.588-.667,2.5a5.26612,5.26612,0,0,1,0,3.125c.297-.138,2.359-.565,2-1.875.022.012,1.647.961.667,3.75-.917,2.605,1.041,1.466,1.303.765C30.886,25.09982,30.146,30.24883,26.383,31.44482Z"/></g></svg>