<svg id="Ebene_1" data-name="Ebene 1" xmlns="http://www.w3.org/2000/svg" viewBox="0 0 44 44"><defs><style>.cls-1{fill:#00f300;}.cls-2{fill:none;stroke:#00f300;fill-rule:evenodd;}</style></defs><g id="icid-heavyvehicle_d0_m-nar-2" data-name="icid-heavyvehicle d0 m-nar-2"><g id="Bildmaterial_1" data-name="Bildmaterial 1"><path class="cls-1" d="M22,41.8a1.60583,1.60583,0,0,1-1.1-.5L2.7,23.1a1.56944,1.56944,0,0,1,0-2.2L20.9,2.7a1.46,1.46,0,0,1,2.2,0L41.3,20.9a1.56944,1.56944,0,0,1,0,2.2L23.1,41.3A1.60583,1.60583,0,0,1,22,41.8Z"/><path d="M22,2.5a.97478.97478,0,0,1,.9.4L41.1,21.1a1.22152,1.22152,0,0,1,.4.9,1.08579,1.08579,0,0,1-.4.9L22.9,41.1a1.22152,1.22152,0,0,1-.9.4,1.08579,1.08579,0,0,1-.9-.4L2.9,22.9a1.39083,1.39083,0,0,1,0-1.9L21.1,2.9a.97478.97478,0,0,1,.9-.4M22,2a2.10618,2.10618,0,0,0-1.3.5L2.5,20.7a1.872,1.872,0,0,0,0,2.6L20.7,41.5A1.65588,1.65588,0,0,0,22,42a2.10618,2.10618,0,0,0,1.3-.5L41.5,23.3a1.872,1.872,0,0,0,0-2.6L23.3,2.5A2.10618,2.10618,0,0,0,22,2Z"/><path d="M21.8,40.4,3.6,22.2a.44638.44638,0,0,1,0-.5L21.8,3.6a.44638.44638,0,0,1,.5,0L40.5,21.8a.44638.44638,0,0,1,0,.5L22.2,40.4A.30417.30417,0,0,1,21.8,40.4Z"/></g><path class="cls-2" d="M17.00145,12.02483H27V23.0759H17.00145Z"/><rect class="cls-1" x="14.85037" y="24.07698" width="14.29926" height="1.13618"/><rect class="cls-1" x="14.85037" y="25.82282" width="2.27236" height="4.51702"/><rect class="cls-1" x="17.70468" y="25.82282" width="2.27236" height="4.51702"/><rect class="cls-1" x="24.02296" y="25.82282" width="2.27236" height="4.51702"/><rect class="cls-1" x="26.87727" y="25.82282" width="2.27236" height="4.51702"/><rect class="cls-1" x="21.16865" y="25.82282" width="1.64885" height="1.64885"/></g></svg>