<svg id="Ebene_1" data-name="Ebene 1" xmlns="http://www.w3.org/2000/svg" viewBox="0 0 44 44"><defs><style>.cls-1{fill:#00f300;}</style></defs><g id="icid-fog_d0_m-nar-2" data-name="icid-fog d0 m-nar-2"><g id="Bildmaterial_1" data-name="Bildmaterial 1"><path class="cls-1" d="M22,41.8a1.60583,1.60583,0,0,1-1.1-.5L2.7,23.1a1.56944,1.56944,0,0,1,0-2.2L20.9,2.7a1.46,1.46,0,0,1,2.2,0L41.3,20.9a1.56944,1.56944,0,0,1,0,2.2L23.1,41.3A1.60583,1.60583,0,0,1,22,41.8Z"/><path d="M22,2.5a.97478.97478,0,0,1,.9.4L41.1,21.1a1.22152,1.22152,0,0,1,.4.9,1.08579,1.08579,0,0,1-.4.9L22.9,41.1a1.22152,1.22152,0,0,1-.9.4,1.08579,1.08579,0,0,1-.9-.4L2.9,22.9a1.39083,1.39083,0,0,1,0-1.9L21.1,2.9a.97478.97478,0,0,1,.9-.4M22,2a2.10618,2.10618,0,0,0-1.3.5L2.5,20.7a1.872,1.872,0,0,0,0,2.6L20.7,41.5A1.65588,1.65588,0,0,0,22,42a2.10618,2.10618,0,0,0,1.3-.5L41.5,23.3a1.872,1.872,0,0,0,0-2.6L23.3,2.5A2.10618,2.10618,0,0,0,22,2Z"/><path d="M21.8,40.4,3.6,22.2a.44638.44638,0,0,1,0-.5L21.8,3.6a.44638.44638,0,0,1,.5,0L40.5,21.8a.44638.44638,0,0,1,0,.5L22.2,40.4A.30417.30417,0,0,1,21.8,40.4Z"/></g><path class="cls-1" d="M19.17876,14.76611H16.56158v1.39258h1.64648v.91162H16.56158v2.45606H15.667V13.87109h3.51172Z"/><path class="cls-1" d="M21.97173,19.62744a1.76212,1.76212,0,0,1-1.53125-.75537,3.72663,3.72663,0,0,1-.53613-2.17334,3.721,3.721,0,0,1,.53613-2.15234,1.92016,1.92016,0,0,1,3.07227,0,3.769,3.769,0,0,1,.52734,2.15234,3.77469,3.77469,0,0,1-.52734,2.17334A1.75984,1.75984,0,0,1,21.97173,19.62744Zm0-4.9541a.898.898,0,0,0-.86035.561,3.40641,3.40641,0,0,0-.27832,1.44775,3.37993,3.37993,0,0,0,.26562,1.51074.89285.89285,0,0,0,.873.50635.92445.92445,0,0,0,.88672-.53174,3.728,3.728,0,0,0,.26172-1.48535,3.3779,3.3779,0,0,0-.2832-1.46045A.96955.96955,0,0,0,21.97173,14.67334Z"/><path class="cls-1" d="M26.81646,18.72461q.76025-.01684.90332-1.04688h-.86914v-.94531h1.89062v.24512a3.26851,3.26851,0,0,1-.51953,1.979,1.64435,1.64435,0,0,1-1.37988.6709,1.79991,1.79991,0,0,1-1.55762-.77637,3.72019,3.72019,0,0,1-.53515-2.15234,3.72124,3.72124,0,0,1,.53515-2.15234,1.75708,1.75708,0,0,1,1.53223-.76807,1.83655,1.83655,0,0,1,1.73926,1.07227l-.83594.41357a.95264.95264,0,0,0-.90332-.59082.898.898,0,0,0-.86035.561,3.38582,3.38582,0,0,0-.27051,1.46435,3.38434,3.38434,0,0,0,.27051,1.46436A.89773.89773,0,0,0,26.81646,18.72461Z"/><path class="cls-1" d="M17.51177,29.65527h-.94531l-.55762-1.58691H14.24517l-.55664,1.58691h-.9541L14.67583,24h.89453Zm-1.82324-2.498-.55762-1.58692-.57324,1.58692Z"/><path class="cls-1" d="M21.94243,29.65527h-.9707l-.91113-2.45605H18.98833v2.45605H18.0938V24h2.23731a1.35679,1.35679,0,0,1,1.09277.502,1.68882,1.68882,0,0,1,.40039,1.085,1.60257,1.60257,0,0,1-.24414.84864,1.44026,1.44026,0,0,1-.63379.57812Zm-1.0039-4.043a.64558.64558,0,0,0-.19824-.50683.68914.68914,0,0,0-.44336-.18555h-1.3086V26.3125h1.34278a.57151.57151,0,0,0,.42968-.18555.71326.71326,0,0,0,.17774-.51465Z"/><path class="cls-1" d="M26.29009,29.65527H22.77837V24h3.334v.89453H23.6729v1.39258h1.64649v.91211H23.6729v1.54492h2.61719Z"/><path class="cls-1" d="M31.64946,29.65527h-.94531l-.55761-1.58691H28.38286l-.55664,1.58691h-.9541L28.81353,24h.89453Zm-1.82324-2.498-.55761-1.58692-.57325,1.58692Z"/></g></svg>