<svg id="Ebene_1" data-name="Ebene 1" xmlns="http://www.w3.org/2000/svg" viewBox="0 0 44 44"><defs><style>.cls-1{fill:#00f300;}</style></defs><g id="icid-badroad_d0_m-nar-2" data-name="icid-badroad d0 m-nar-2"><path class="cls-1" d="M22,41.8a1.60583,1.60583,0,0,1-1.1-.5L2.7,23.1a1.56944,1.56944,0,0,1,0-2.2L20.9,2.7a1.46,1.46,0,0,1,2.2,0L41.3,20.9a1.56944,1.56944,0,0,1,0,2.2L23.1,41.3A1.60583,1.60583,0,0,1,22,41.8Z"/><path d="M22,2.5a.97478.97478,0,0,1,.9.4L41.1,21.1a1.22152,1.22152,0,0,1,.4.9,1.08579,1.08579,0,0,1-.4.9L22.9,41.1a1.22152,1.22152,0,0,1-.9.4,1.08579,1.08579,0,0,1-.9-.4L2.9,22.9a1.39083,1.39083,0,0,1,0-1.9L21.1,2.9a.97478.97478,0,0,1,.9-.4M22,2a2.10618,2.10618,0,0,0-1.3.5L2.5,20.7a1.872,1.872,0,0,0,0,2.6L20.7,41.5A1.65588,1.65588,0,0,0,22,42a2.10618,2.10618,0,0,0,1.3-.5L41.5,23.3a1.872,1.872,0,0,0,0-2.6L23.3,2.5A2.10618,2.10618,0,0,0,22,2Z"/><path d="M21.8,40.4,3.6,22.2a.44638.44638,0,0,1,0-.5L21.8,3.6a.44638.44638,0,0,1,.5,0L40.5,21.8a.44638.44638,0,0,1,0,.5L22.2,40.4A.30417.30417,0,0,1,21.8,40.4Z"/><path class="cls-1" d="M34.704,22.72994c-.93541,0-1.60292-.54412-2.27314-1.66072a2.02778,2.02778,0,0,0-3.66763,0c-.67022,1.1166-1.33773,1.66072-2.27314,1.66072h-.00054c-.93541,0-1.60293-.54412-2.27314-1.66072a2.02777,2.02777,0,0,0-3.66764,0c-.67021,1.1166-1.33773,1.66072-2.27314,1.66072h-.00054c-.93541,0-1.60293-.54412-2.27314-1.66072a2.02778,2.02778,0,0,0-3.66763,0c-.67023,1.1166-1.33774,1.66072-2.27314,1.66072h-.00027v2.24742H34.70422V22.73Z"/></g></svg>