<svg id="Ebene_1" data-name="Ebene 1" xmlns="http://www.w3.org/2000/svg" viewBox="0 0 44 44"><defs><style>.cls-1{fill:#00f300;}.cls-2{fill:none;stroke:#00f300;stroke-miterlimit:10;stroke-width:2px;}</style></defs><path class="cls-1" d="M22,41.8a1.60583,1.60583,0,0,1-1.1-.5L2.7,23.1a1.56944,1.56944,0,0,1,0-2.2L20.9,2.7a1.46,1.46,0,0,1,2.2,0L41.3,20.9a1.56944,1.56944,0,0,1,0,2.2L23.1,41.3A1.60583,1.60583,0,0,1,22,41.8Z"/><path d="M22,2.5a.97478.97478,0,0,1,.9.4L41.1,21.1a1.22152,1.22152,0,0,1,.4.9,1.08579,1.08579,0,0,1-.4.9L22.9,41.1a1.22152,1.22152,0,0,1-.9.4,1.08579,1.08579,0,0,1-.9-.4L2.9,22.9a1.39083,1.39083,0,0,1,0-1.9L21.1,2.9a.97478.97478,0,0,1,.9-.4M22,2a2.10618,2.10618,0,0,0-1.3.5L2.5,20.7a1.872,1.872,0,0,0,0,2.6L20.7,41.5A1.65588,1.65588,0,0,0,22,42a2.10618,2.10618,0,0,0,1.3-.5L41.5,23.3a1.872,1.872,0,0,0,0-2.6L23.3,2.5A2.10618,2.10618,0,0,0,22,2Z"/><path d="M21.8,40.4,3.6,22.2a.44638.44638,0,0,1,0-.5L21.8,3.6a.44638.44638,0,0,1,.5,0L40.5,21.8a.44638.44638,0,0,1,0,.5L22.2,40.4A.30417.30417,0,0,1,21.8,40.4Z"/><line class="cls-2" x1="32.17437" y1="12.17437" x2="12.17437" y2="32.17437"/><polygon class="cls-1" points="26.866 14.655 26.866 9.673 17.677 9.673 17.677 23.844 26.866 14.655"/><polygon class="cls-1" points="17.677 29.5 17.677 34.954 26.866 34.954 26.866 20.311 17.677 29.5"/><path id="path3826" d="M22.27169,33.80421a3.44714,3.44714,0,1,0-3.44714-3.44714h0a3.44712,3.44712,0,0,0,3.44712,3.44714Z"/><path id="path3842" d="M22.27169,17.71682a3.44714,3.44714,0,1,0-3.44714-3.44714v0a3.44713,3.44713,0,0,0,3.44713,3.44713Z"/><path d="M21.50812,25.66913a3.42466,3.42466,0,0,0,4.11932-4.11933Z"/><path d="M22.61969,18.90131a3.37487,3.37487,0,0,0-.348-.0351,3.44722,3.44722,0,0,0-3.44715,3.44714,3.37479,3.37479,0,0,0,.0351.348Z"/></svg>