<svg id="Ebene_1" data-name="Ebene 1" xmlns="http://www.w3.org/2000/svg" viewBox="0 0 44 44"><defs><style>.cls-1{fill:#013f87;}.cls-2,.cls-3{fill:#00f300;}.cls-2{fill-rule:evenodd;}.cls-4{fill:none;stroke:#00f300;stroke-miterlimit:10;stroke-width:0.5px;}</style></defs><path class="cls-1" d="M4.31075,41.71088a2.02758,2.02758,0,0,1-2.02163-2.02163V4.31075A2.02758,2.02758,0,0,1,4.31075,2.28912h35.3785a2.02758,2.02758,0,0,1,2.02163,2.02163v35.3785a2.02758,2.02758,0,0,1-2.02163,2.02163Z"/><path d="M4.31075,41.71088a2.02758,2.02758,0,0,1-2.02163-2.02163V4.31075A2.02758,2.02758,0,0,1,4.31075,2.28912h35.3785a2.02758,2.02758,0,0,1,2.02163,2.02163v35.3785a2.02758,2.02758,0,0,1-2.02163,2.02163Z"/><path class="cls-2" d="M24.735,29.075a.57948.57948,0,0,1,.459.093c.218.133.222.237.275.459l1.792,7.441a1.57943,1.57943,0,0,1,.043.343.65083.65083,0,0,1-.109.377.7357.7357,0,0,1-.392.335l-1.47.32-2.02-8.955Z"/><path class="cls-2" d="M25.82147,13.754,27.272,6.569a.58894.58894,0,0,0-.013-.343,1.08044,1.08044,0,0,0-.18-.308.76908.76908,0,0,0-.45-.269L25.246,5.421,23.59,14.545l1.18005.25159Z"/><path class="cls-2" d="M21.497,29.283c-.237-.191-.664-.63-.664-.973v-.48786l-3.04108,3.01569L19.404,36.828a11.85843,11.85843,0,0,0,1.519.857,9.70765,9.70765,0,0,0,1.924.657,10.47769,10.47769,0,0,0,1.669.237l-2.025-8.843A2.40851,2.40851,0,0,1,21.497,29.283Z"/><path class="cls-2" d="M20.833,18.70068V16.519a1.9763,1.9763,0,0,1,.879-1.539,2.53419,2.53419,0,0,1,1.008-.44l1.657-9.119a8.62334,8.62334,0,0,0-1.779.253,6.74393,6.74393,0,0,0-1.902.813A8.31062,8.31062,0,0,0,19.359,7.54l-1.567,6.31a36.54564,36.54564,0,0,0-1.061,7.275c-.022.55389-.02539,1.10815-.01935,1.66254Z"/><path class="cls-3" d="M41.71088,3.84525a1.59553,1.59553,0,0,0-1.55613-1.55613H38.80353L2.28912,38.4984v1.65635a1.59553,1.59553,0,0,0,1.55613,1.55613H5.40732L41.71088,5.71068Z"/><rect class="cls-4" x="2.28912" y="2.28912" width="39.42175" height="39.42175" rx="1.5"/></svg>