<svg id="Ebene_1" data-name="Ebene 1" xmlns="http://www.w3.org/2000/svg" viewBox="0 0 44 44"><defs><style>.cls-1{fill:#00f300;}</style></defs><g id="icid-noferry_d0_m-nar-2" data-name="icid-noferry d0 m-nar-2"><g id="Bildmaterial_2" data-name="Bildmaterial 2"><path class="cls-1" d="M22,41.8a1.60583,1.60583,0,0,1-1.1-.5L2.7,23.1a1.56944,1.56944,0,0,1,0-2.2L20.9,2.7a1.46,1.46,0,0,1,2.2,0L41.3,20.9a1.56944,1.56944,0,0,1,0,2.2L23.1,41.3A1.60583,1.60583,0,0,1,22,41.8Z"/><path d="M22,2.5a.97478.97478,0,0,1,.9.4L41.1,21.1a1.22152,1.22152,0,0,1,.4.9,1.08579,1.08579,0,0,1-.4.9L22.9,41.1a1.22152,1.22152,0,0,1-.9.4,1.08579,1.08579,0,0,1-.9-.4L2.9,22.9a1.39083,1.39083,0,0,1,0-1.9L21.1,2.9a.97478.97478,0,0,1,.9-.4M22,2a2.10618,2.10618,0,0,0-1.3.5L2.5,20.7a1.872,1.872,0,0,0,0,2.6L20.7,41.5A1.65588,1.65588,0,0,0,22,42a2.10618,2.10618,0,0,0,1.3-.5L41.5,23.3a1.872,1.872,0,0,0,0-2.6L23.3,2.5A2.10618,2.10618,0,0,0,22,2Z"/><path d="M21.8,40.4,3.6,22.2a.44638.44638,0,0,1,0-.5L21.8,3.6a.44638.44638,0,0,1,.5,0L40.5,21.8a.44638.44638,0,0,1,0,.5L22.2,40.4A.30417.30417,0,0,1,21.8,40.4Z"/></g><path class="cls-1" d="M22.66616,27.53889l.29353-3.22357c.014-.23659.04193-.53233.06988-.85764s.05592-.695.09785-1.07946.06988-.7985.09784-1.22732.05591-.84286.08386-1.27168.04193-.84286.06989-1.2569c.014-.414.028-.7985.028-1.15339V11.421H20.55557v6.04789c0,.35489.014.73935.028,1.15339s.04193.82807.06988,1.2569.05592.85764.08387,1.27168c.028.42883.06988.82807.09784,1.22732.028.38447.06989.75414.09784,1.07946s.05591.62105.08386.85764l.29353,3.22357Z"/><polygon class="cls-1" points="23.444 32.567 23.444 29.76 20.589 29.76 20.589 32.579 23.444 32.579 23.444 32.567"/></g></svg>