<svg id="Ebene_1" data-name="Ebene 1" xmlns="http://www.w3.org/2000/svg" viewBox="0 0 44 44"><defs><style>.cls-1{fill:#00f300;}.cls-2{fill:none;}.cls-2,.cls-3{stroke:#00f300;stroke-miterlimit:10;stroke-width:1.3px;}</style></defs><g id="icid-accident_d0_m-nar-2" data-name="icid-accident d0 m-nar-2"><g id="Bildmaterial_1" data-name="Bildmaterial 1"><path class="cls-1" d="M22,41.8a1.60583,1.60583,0,0,1-1.1-.5L2.7,23.1a1.56944,1.56944,0,0,1,0-2.2L20.9,2.7a1.46,1.46,0,0,1,2.2,0L41.3,20.9a1.56944,1.56944,0,0,1,0,2.2L23.1,41.3A1.60583,1.60583,0,0,1,22,41.8Z"/><path d="M22,2.5a.97478.97478,0,0,1,.9.4L41.1,21.1a1.22152,1.22152,0,0,1,.4.9,1.08579,1.08579,0,0,1-.4.9L22.9,41.1a1.22152,1.22152,0,0,1-.9.4,1.08579,1.08579,0,0,1-.9-.4L2.9,22.9a1.39083,1.39083,0,0,1,0-1.9L21.1,2.9a.97478.97478,0,0,1,.9-.4M22,2a2.10618,2.10618,0,0,0-1.3.5L2.5,20.7a1.872,1.872,0,0,0,0,2.6L20.7,41.5A1.65588,1.65588,0,0,0,22,42a2.10618,2.10618,0,0,0,1.3-.5L41.5,23.3a1.872,1.872,0,0,0,0-2.6L23.3,2.5A2.10618,2.10618,0,0,0,22,2Z"/><path d="M21.8,40.4,3.6,22.2a.44638.44638,0,0,1,0-.5L21.8,3.6a.44638.44638,0,0,1,.5,0L40.5,21.8a.44638.44638,0,0,1,0,.5L22.2,40.4A.30417.30417,0,0,1,21.8,40.4Z"/></g></g><polyline class="cls-2" points="24.991 19.598 24.789 15.984 27.612 18.651 30.444 16.079 30.442 19.523 33.361 19.582 31.275 22.126"/><path class="cls-1" d="M27.71222,22.03131c-.59131-.13714-1.5741-.432-2.4466-.66888a7.13173,7.13173,0,0,1-1.982-.74732c-.24371-.24371-3.498-3.53814-3.74176-3.78186a2.78064,2.78064,0,0,0-1.7666-.80682c-.58484,0-4.768-.00025-4.768-.00025v11.9H28.7771c.5849,0,.74738-.93134.74738-1.36481,0-.5769.09777-2.52.09777-2.95343C29.62225,23.04749,29.1626,22.36774,27.71222,22.03131ZM14.49927,20.69647V17.47076h3.198a1.8305,1.8305,0,0,1,1.05957.51416c.124.124,2.16809,2.39942,2.50445,2.71155Z"/><circle class="cls-3" cx="23.49282" cy="26.96411" r="2.5"/></svg>