<svg id="Ebene_1" data-name="Ebene 1" xmlns="http://www.w3.org/2000/svg" viewBox="0 0 44 44"><defs><style>.cls-1,.cls-2{fill:#00f300;}.cls-2,.cls-3{fill-rule:evenodd;}</style></defs><g id="icid-wrongwaydriv_d0_m-nar-2" data-name="icid-wrongwaydriv d0 m-nar-2"><g id="Bildmaterial_1" data-name="Bildmaterial 1"><path class="cls-1" d="M22,41.8a1.60583,1.60583,0,0,1-1.1-.5L2.7,23.1a1.56944,1.56944,0,0,1,0-2.2L20.9,2.7a1.46,1.46,0,0,1,2.2,0L41.3,20.9a1.56944,1.56944,0,0,1,0,2.2L23.1,41.3A1.60583,1.60583,0,0,1,22,41.8Z"/><path d="M22,2.5a.97478.97478,0,0,1,.9.4L41.1,21.1a1.22152,1.22152,0,0,1,.4.9,1.08579,1.08579,0,0,1-.4.9L22.9,41.1a1.22152,1.22152,0,0,1-.9.4,1.08579,1.08579,0,0,1-.9-.4L2.9,22.9a1.39083,1.39083,0,0,1,0-1.9L21.1,2.9a.97478.97478,0,0,1,.9-.4M22,2a2.10618,2.10618,0,0,0-1.3.5L2.5,20.7a1.872,1.872,0,0,0,0,2.6L20.7,41.5A1.65588,1.65588,0,0,0,22,42a2.10618,2.10618,0,0,0,1.3-.5L41.5,23.3a1.872,1.872,0,0,0,0-2.6L23.3,2.5A2.10618,2.10618,0,0,0,22,2Z"/><path d="M21.8,40.4,3.6,22.2a.44638.44638,0,0,1,0-.5L21.8,3.6a.44638.44638,0,0,1,.5,0L40.5,21.8a.44638.44638,0,0,1,0,.5L22.2,40.4A.30417.30417,0,0,1,21.8,40.4Z"/></g><path class="cls-2" d="M31.51427,21.85944a.4851.4851,0,0,0-.40857-.25068H30.07091c-.12378-.21026-.662-1.55212-.8717-1.846a1.32327,1.32327,0,0,0-1.20423-.78931,22.25011,22.25011,0,0,0-2.24926-.12042h-.01319a22.24879,22.24879,0,0,0-2.25512.12042,1.32014,1.32014,0,0,0-1.20484.78931c-.21142.29388-.65967,1.63574-.78125,1.846H20.455a.48877.48877,0,0,0-.40857.25068,3.95939,3.95939,0,0,0-.24256.84979.33116.33116,0,0,0,.3154.34621l.001,0h.73218a2.9469,2.9469,0,0,0-.15784.499.26043.26043,0,0,0-.00745.03516,4.86266,4.86266,0,0,0-.212,1.21857,8.70868,8.70868,0,0,0,.09448,1.214c.01208.08868.02356.174.03918.24713v1.94854a.332.332,0,0,0,.31629.34345h1.16955c.17579,0,.2356-.155.2356-.34345V26.44965H29.2292v1.76818a.33291.33291,0,0,0,.31982.34345h.99438a.37935.37935,0,0,0,.374-.34345V26.26929c.01318-.07318.0271-.15845.04028-.24713a8.49453,8.49453,0,0,0,.09107-1.214,5.58561,5.58561,0,0,0-.11817-1.21857.2633.2633,0,0,1-.00928-.03516,2.05982,2.05982,0,0,0-.21191-.499h.73a.33291.33291,0,0,0,.31985-.34548l0-.00077A4.1061,4.1061,0,0,0,31.51427,21.85944Zm-9.04919-.02539c.20691-.33069.454-1.1529.749-1.56311a1.2601,1.2601,0,0,1,.34631-.10486,20.02319,20.02319,0,0,1,4.3534,0,1.16369,1.16369,0,0,1,.29089.05706,16.511,16.511,0,0,1,.81934,1.61091Z"/><path class="cls-2" d="M16.69433,20.28422a1.20106,1.20106,0,0,0-.34166.10313c-.291.40446-.53409,1.21454-.738,1.54064H18.2742v4.51245H15.417v1.782a.32708.32708,0,0,1-.31228.33878H13.99389a.32807.32807,0,0,1-.31112-.33878v-1.9209c-.01556-.072-.02708-.155-.03918-.24429a8.68633,8.68633,0,0,1-.09276-1.19609,5.46826,5.46826,0,0,1,.12042-1.20129.19627.19627,0,0,1,.00749-.03572c.05415-.23737.02592-.39985.0651-.49088H13.0225a.32643.32643,0,0,1-.31236-.33992l.00008-.00174a3.906,3.906,0,0,1,.2391-.83888.48293.48293,0,0,1,.40274-.246h1.0221c.11984-.20742.84233-1.53085,1.04975-1.82065a1.30146,1.30146,0,0,1,1.188-.77839c.30536-.03226.59459-.05531.85962-.07259.13367-.00864.25755-.01556.378-.02132a5.05683,5.05683,0,0,0,.89707,1.15346c-.27194.00115-.71673.011-1.27445.04955C17.23016,20.23352,16.96916,20.25484,16.69433,20.28422Z"/><path class="cls-2" d="M26.541,17.07643l-.27539-.00178-.55318-.00108a31.384,31.384,0,0,0-3.18078.1698,1.83046,1.83046,0,0,0-1.69947,1.1134c-.16593.247-.73412,1.70419-.98669,2.32357-.072.1408-.13573.30651-.16893.3695l-.15114-.08919a5.64138,5.64138,0,0,1-2.43469-4.64827,5.27051,5.27051,0,0,1,10.541-.02061q0,.0103,0,.02061c0,.175-.00512.58361-.02221.75457Z"/><path class="cls-3" d="M18.2776,15.34722h8.16716v1.184H18.2776Z"/></g></svg>