<svg id="Ebene_1" data-name="Ebene 1" xmlns="http://www.w3.org/2000/svg" viewBox="0 0 44 44"><defs><style>.cls-1,.cls-2{fill:#00f300;}.cls-2{fill-rule:evenodd;}</style></defs><g id="icid-weather_d0_m-nar-2" data-name="icid-weather d0 m-nar-2"><g id="Bildmaterial_1" data-name="Bildmaterial 1"><path class="cls-1" d="M22,41.8a1.60583,1.60583,0,0,1-1.1-.5L2.7,23.1a1.56944,1.56944,0,0,1,0-2.2L20.9,2.7a1.46,1.46,0,0,1,2.2,0L41.3,20.9a1.56944,1.56944,0,0,1,0,2.2L23.1,41.3A1.60583,1.60583,0,0,1,22,41.8Z"/><path d="M22,2.5a.97478.97478,0,0,1,.9.4L41.1,21.1a1.22152,1.22152,0,0,1,.4.9,1.08579,1.08579,0,0,1-.4.9L22.9,41.1a1.22152,1.22152,0,0,1-.9.4,1.08579,1.08579,0,0,1-.9-.4L2.9,22.9a1.39083,1.39083,0,0,1,0-1.9L21.1,2.9a.97478.97478,0,0,1,.9-.4M22,2a2.10618,2.10618,0,0,0-1.3.5L2.5,20.7a1.872,1.872,0,0,0,0,2.6L20.7,41.5A1.65588,1.65588,0,0,0,22,42a2.10618,2.10618,0,0,0,1.3-.5L41.5,23.3a1.872,1.872,0,0,0,0-2.6L23.3,2.5A2.10618,2.10618,0,0,0,22,2Z"/><path d="M21.8,40.4,3.6,22.2a.44638.44638,0,0,1,0-.5L21.8,3.6a.44638.44638,0,0,1,.5,0L40.5,21.8a.44638.44638,0,0,1,0,.5L22.2,40.4A.30417.30417,0,0,1,21.8,40.4Z"/></g><path class="cls-2" d="M30.26485,22.41148H23.00312c-5.16339-7.47942,3.64076-10.56247,5.13761-4.79818C30.422,15.70806,33.60217,20.67,30.26485,22.41148Z"/><path class="cls-2" d="M20.7459,15.39355a4.60316,4.60316,0,0,1,1.32886-1.36541c-1.06373-2.55646-7.239-3.2489-5.83326,3.45318-2.10791.0354-2.14331,4.93012.53675,4.93012,1.03186,0,3.90515-.00873,4.56237-.00006C19.15959,18.74371,20.17314,16.30835,20.7459,15.39355Z"/><polygon class="cls-2" points="17.957 23.77 14.598 27.832 12.997 27.832 16.355 23.77 17.957 23.77"/><polygon class="cls-2" points="21.387 23.77 18.028 27.832 16.427 27.832 19.785 23.77 21.387 23.77"/><polygon class="cls-2" points="23.05 26.91 21.161 26.91 23.807 23.752 25.686 23.752 24.3 25.313 26.128 25.313 20.44 32.149 19.58 32.149 23.94 26.91 23.05 26.91"/><polygon class="cls-2" points="31.356 23.77 27.997 27.832 26.397 27.832 29.755 23.77 31.356 23.77"/></g></svg>