<svg id="Ebene_1" data-name="Ebene 1" xmlns="http://www.w3.org/2000/svg" viewBox="0 0 44 44"><defs><style>.cls-1,.cls-2{fill:#00f300;}.cls-2{fill-rule:evenodd;}</style></defs><g id="icid-ice_d0_m-nar-2" data-name="icid-ice d0 m-nar-2"><g id="Bildmaterial_1" data-name="Bildmaterial 1"><path class="cls-1" d="M22,41.8a1.60583,1.60583,0,0,1-1.1-.5L2.7,23.1a1.56944,1.56944,0,0,1,0-2.2L20.9,2.7a1.46,1.46,0,0,1,2.2,0L41.3,20.9a1.56944,1.56944,0,0,1,0,2.2L23.1,41.3A1.60583,1.60583,0,0,1,22,41.8Z"/><path d="M22,2.5a.97478.97478,0,0,1,.9.4L41.1,21.1a1.22152,1.22152,0,0,1,.4.9,1.08579,1.08579,0,0,1-.4.9L22.9,41.1a1.22152,1.22152,0,0,1-.9.4,1.08579,1.08579,0,0,1-.9-.4L2.9,22.9a1.39083,1.39083,0,0,1,0-1.9L21.1,2.9a.97478.97478,0,0,1,.9-.4M22,2a2.10618,2.10618,0,0,0-1.3.5L2.5,20.7a1.872,1.872,0,0,0,0,2.6L20.7,41.5A1.65588,1.65588,0,0,0,22,42a2.10618,2.10618,0,0,0,1.3-.5L41.5,23.3a1.872,1.872,0,0,0,0-2.6L23.3,2.5A2.10618,2.10618,0,0,0,22,2Z"/><path d="M21.8,40.4,3.6,22.2a.44638.44638,0,0,1,0-.5L21.8,3.6a.44638.44638,0,0,1,.5,0L40.5,21.8a.44638.44638,0,0,1,0,.5L22.2,40.4A.30417.30417,0,0,1,21.8,40.4Z"/></g><path class="cls-2" d="M27.8285,27.9365a.75064.75064,0,0,1-.096.355.71774.71774,0,0,1-.9748.28295l-.0192-.01095a.88182.88182,0,0,1-.443-.728v-2.335l-3.596-2.208.001,4.479,2.07,1.042a.748.748,0,0,1-.324,1.412.72184.72184,0,0,1-.349-.09l-1.395-.698v2.319a.70736.70736,0,0,1-1.41271.07548q-.00184-.03471-.00029-.06948v-2.328l-1.4.701a.72472.72472,0,0,1-.349.09.73737.73737,0,0,1-.728-.744.74568.74568,0,0,1,.404-.668l2.073-1.042.021-4.487-3.602,2.216v2.335a.87617.87617,0,0,1-.454.717.71775.71775,0,0,1-.98306-.2528l-.01094-.0192a.76493.76493,0,0,1-.098-.355l-.095-1.566-1.963,1.16a.71843.71843,0,0,1-.98406-.25282l-.01094-.01918a.75494.75494,0,0,1,.262-1.014l1.97-1.166-1.283-.871a.72969.72969,0,0,1-.251-.263.75346.75346,0,0,1,.266-1.017.7149.7149,0,0,1,.768.025l1.907,1.294,3.796-2.243-3.793-2.239-1.905,1.294a.7155.7155,0,0,1-.766.025.75389.75389,0,0,1-.268-1.017.73815.73815,0,0,1,.253-.264l1.277-.868-1.963-1.16a.75519.75519,0,0,1-.266-1.019.71978.71978,0,0,1,.97856-.28033l.00944.00533,1.971,1.165.097-1.572a.77147.77147,0,0,1,.097-.357.72093.72093,0,0,1,.98022-.28043l.01478.00843a.89023.89023,0,0,1,.447.728v2.335l3.591,2.21-.002-4.482-2.069-1.038a.75262.75262,0,0,1-.404-.668.73615.73615,0,0,1,.727-.745.71551.71551,0,0,1,.35.091l1.395.698v-2.32a.70679.70679,0,0,1,1.41162-.07432q.00175.03314.00038.06632v2.331l1.401-.701a.71451.71451,0,0,1,.349-.091.73635.73635,0,0,1,.728.74458l0,.00042a.75262.75262,0,0,1-.404.668l-2.072,1.041-.021,4.485,3.606-2.216v-2.335a.87068.87068,0,0,1,.449-.717.71888.71888,0,0,1,.98388.256l.00912.016a.7532.7532,0,0,1,.098.355l.097,1.569,1.963-1.163a.72024.72024,0,0,1,.98556.25721l.00844.01479a.7537.7537,0,0,1-.261,1.014l-1.971,1.165,1.283.874a.72548.72548,0,0,1,.251.264.75421.75421,0,0,1-.266,1.017.719.719,0,0,1-.768-.025l-1.907-1.297-3.795,2.245,3.792,2.24,1.904-1.295a.705.705,0,0,1,.768-.024.75183.75183,0,0,1,.266,1.017.72405.72405,0,0,1-.252.263l-1.277.869,1.963,1.159a.75494.75494,0,0,1,.267,1.017.72038.72038,0,0,1-.97923.28109l-.01077-.00609-1.971-1.163Z"/></g></svg>