<svg id="Ebene_1" data-name="Ebene 1" xmlns="http://www.w3.org/2000/svg" viewBox="0 0 44 44"><defs><style>.cls-1{fill:#00f300;}.cls-2{stroke:#00f300;stroke-miterlimit:10;stroke-width:1.07915px;}</style></defs><path class="cls-1" d="M22,41.8a1.61,1.61,0,0,1-1.1-.5L2.7,23.1a1.57,1.57,0,0,1,0-2.2L20.9,2.7a1.46,1.46,0,0,1,2.2,0L41.3,20.9a1.57,1.57,0,0,1,0,2.2L23.1,41.3A1.61,1.61,0,0,1,22,41.8Z"/><path d="M22,2.484a.975.975,0,0,1,.9.4l18.2,18.2a1.22,1.22,0,0,1,.4.9,1.09,1.09,0,0,1-.4.9l-18.2,18.2a1.22,1.22,0,0,1-.9.4,1.09,1.09,0,0,1-.9-.4L2.9,22.884a1.39,1.39,0,0,1,0-1.9l18.2-18.1a.975.975,0,0,1,.9-.4m0-.5a2.11,2.11,0,0,0-1.3.5L2.5,20.684a1.87,1.87,0,0,0,0,2.6l18.2,18.2a1.66,1.66,0,0,0,1.3.5,2.11,2.11,0,0,0,1.3-.5l18.2-18.2a1.87,1.87,0,0,0,0-2.6L23.3,2.484A2.11,2.11,0,0,0,22,1.984Z"/><path d="M21.8,40.384,3.6,22.184a.446.446,0,0,1,0-.5l18.2-18.1a.446.446,0,0,1,.5,0l18.2,18.2a.446.446,0,0,1,0,.5l-18.3,18.1A.304.304,0,0,1,21.8,40.384Z"/><rect class="cls-1" x="13.6" y="21" width="3.96" height="0.99"/><rect class="cls-1" x="26.5" y="21" width="3.96" height="0.99"/><polygon class="cls-1" points="29.1 19.9 29.1 19.1 30.8 19.1 30.9 18.2 29 18.2 29 18.7 15 18.7 15 18.2 13.1 18.2 13.2 19.1 14.9 19.1 14.9 19.9 29.1 19.9"/><path class="cls-1" d="M29.3,19.1v-.825s-1.48-2.47-2.47-2.64a47.098,47.098,0,0,0-4.82-.165,46.399,46.399,0,0,0-4.79.165c-.99.33-2.47,2.64-2.47,2.64V19.1l-1.65.99v6.27a.604.604,0,0,0,.66.66H16.4a.71.71,0,0,0,.66-.66v-.825H27v.825a.604.604,0,0,0,.66.66H30.3a.709.709,0,0,0,.66-.66V20.09Zm.495,6.76h-1.65V24.38h-12.3v1.48h-1.65V20.75l1.65-.825v-1.32a9.66,9.66,0,0,1,1.48-1.81c.33-.165,1.16-.165,4.62-.165a23.166,23.166,0,0,1,4.66.165,9.66,9.66,0,0,1,1.48,1.81v1.32l1.65.825Z"/><path class="cls-2" d="M18.3,29.6a.231.231,0,0,1-.164-.0616.245.245,0,0,1-.103-.205.24.24,0,0,1,.0411-.144l3.74-6.47a.266.266,0,0,1,.3664-.0852l.0016.001a.275.275,0,0,1,.0842.0842l3.74,6.49a.292.292,0,0,1,.0411.123.285.285,0,0,1-.103.205.271.271,0,0,1-.164.0616Z"/></svg>