<svg id="Ebene_1" data-name="Ebene 1" xmlns="http://www.w3.org/2000/svg" viewBox="0 0 44 44"><defs><style>.cls-1{fill:#00f300;}</style></defs><g id="icid-animal_d0_m-nar-2" data-name="icid-animal d0 m-nar-2"><g id="Bildmaterial_1" data-name="Bildmaterial 1"><path class="cls-1" d="M22,41.8a1.60583,1.60583,0,0,1-1.1-.5L2.7,23.1a1.56944,1.56944,0,0,1,0-2.2L20.9,2.7a1.46,1.46,0,0,1,2.2,0L41.3,20.9a1.56944,1.56944,0,0,1,0,2.2L23.1,41.3A1.60583,1.60583,0,0,1,22,41.8Z"/><path d="M22,2.5a.97478.97478,0,0,1,.9.4L41.1,21.1a1.22152,1.22152,0,0,1,.4.9,1.08579,1.08579,0,0,1-.4.9L22.9,41.1a1.22152,1.22152,0,0,1-.9.4,1.08579,1.08579,0,0,1-.9-.4L2.9,22.9a1.39083,1.39083,0,0,1,0-1.9L21.1,2.9a.97478.97478,0,0,1,.9-.4M22,2a2.10618,2.10618,0,0,0-1.3.5L2.5,20.7a1.872,1.872,0,0,0,0,2.6L20.7,41.5A1.65588,1.65588,0,0,0,22,42a2.10618,2.10618,0,0,0,1.3-.5L41.5,23.3a1.872,1.872,0,0,0,0-2.6L23.3,2.5A2.10618,2.10618,0,0,0,22,2Z"/><path d="M21.8,40.4,3.6,22.2a.44638.44638,0,0,1,0-.5L21.8,3.6a.44638.44638,0,0,1,.5,0L40.5,21.8a.44638.44638,0,0,1,0,.5L22.2,40.4A.30417.30417,0,0,1,21.8,40.4Z"/></g><path class="cls-1" d="M30.05759,17.76158c1.20666-.02873,2.3415-.18674,2.35586,1.40777v4.72609l.44532.44532-.68952,1.53705a2.9002,2.9002,0,0,1-.43095-1.62324s.01436-4.16586.01436-4.71173c.01437-1.379-.96245-1.03428-.96245-1.03428a2.02478,2.02478,0,0,1,.30166,1.03428c0,.589-.07182,11.03233-.07182,11.03233H29.74156a2.8431,2.8431,0,0,0,.2873-1.91055,4.929,4.929,0,0,0-1.36468-3.00229c-.37349,1.04865-2.03983,4.91284-2.03983,4.91284H25.34587a3.8909,3.8909,0,0,0,.99118-1.91055,4.639,4.639,0,0,0-.99118-3.96474l-3.70618.73261.2873,5.14268H20.64851a3.514,3.514,0,0,0,.14365-1.7669,4.91091,4.91091,0,0,0-1.13484-2.78681c-.14365,1.32158-.5746,4.55371-.5746,4.55371H17.80424a17.23334,17.23334,0,0,0,.5746-1.91055,7.60506,7.60506,0,0,0-.99119-4.41006,24.21349,24.21349,0,0,0-2.6288-3.304H11.36871a1.0917,1.0917,0,0,1-.89063-.37349L10.03276,20.06c.56024-.66079,3.462-3.462,3.462-3.462L11.498,15.42008h2.72935l.80444.96245.73262-.73261a1.64754,1.64754,0,0,1,.21547.80444,3.14449,3.14449,0,0,1-.21547.80444l3.62.51714Z"/></g></svg>