<svg id="Ebene_1" data-name="Ebene 1" xmlns="http://www.w3.org/2000/svg" viewBox="0 0 44 44"><defs><style>.cls-1{fill:#013f87;}.cls-2{fill:#00f300;}.cls-3{fill:none;stroke:#00f300;stroke-miterlimit:10;stroke-width:0.5px;}</style></defs><path class="cls-1" d="M4.31075,41.71088a2.02758,2.02758,0,0,1-2.02163-2.02163V4.31075A2.02758,2.02758,0,0,1,4.31075,2.28912h35.3785a2.02758,2.02758,0,0,1,2.02163,2.02163v35.3785a2.02758,2.02758,0,0,1-2.02163,2.02163Z"/><path d="M4.31075,41.71088a2.02758,2.02758,0,0,1-2.02163-2.02163V4.31075A2.02758,2.02758,0,0,1,4.31075,2.28912h35.3785a2.02758,2.02758,0,0,1,2.02163,2.02163v35.3785a2.02758,2.02758,0,0,1-2.02163,2.02163Z"/><path class="cls-2" d="M41.71088,3.84525a1.59553,1.59553,0,0,0-1.55613-1.55613H38.80353L2.28912,38.4984v1.65635a1.59553,1.59553,0,0,0,1.55613,1.55613H5.40732L41.71088,5.71068Z"/><path class="cls-2" d="M29.09021,10.51263a3.124,3.124,0,0,0-1.92029-.69915v1a2.08929,2.08929,0,0,1,1.20343.41Z"/><path class="cls-2" d="M31,24.56738V17.74011l-1,.99164v5.85712a7.62123,7.62123,0,0,0,1.49023,4.22558,4.47139,4.47139,0,0,1,.76368,2.41211c0,1.3125-.50782,1.97754-1.50977,1.97754-.96,0-1.4834-1.53515-1.4834-2.32422,0-2.27539-.00586-6.86328-.00976-9.44873l-.002-1.85742a.76906.76906,0,0,0-.01715-.08026l-.982.97375.0011.9654c.0039,2.585.00976,7.17187.00976,9.44726,0,1.15918.72852,3.32422,2.4834,3.32422,1.57129,0,2.50977-1.11328,2.50977-2.9873a5.49869,5.49869,0,0,0-.94727-2.9795A6.6284,6.6284,0,0,1,31,24.56738Z"/><path class="cls-2" d="M24.39307,15.17041H17.83856a.82389.82389,0,0,1-.8161-.83136V8.68286a.8239.8239,0,0,1,.8161-.83136h7.50818a.82389.82389,0,0,1,.8161.83136l-.00006,4.73267L27.795,11.797V7.93463A1.64765,1.64765,0,0,0,26.16284,6.272h-9.222a1.64776,1.64776,0,0,0-1.63227,1.66266V24.17889Z"/><path class="cls-2" d="M27.795,35.03674V20.91833L15.30859,33.30042v1.73632c0,.02851.00684.055.00824.08313h-1.843l-2.17621,2.15808H33.49609V35.11987H27.7868C27.78815,35.09174,27.795,35.06525,27.795,35.03674Z"/><path class="cls-2" d="M41.71088,3.84525a1.59553,1.59553,0,0,0-1.55613-1.55613H38.80353L2.28912,38.4984v1.65635a1.59553,1.59553,0,0,0,1.55613,1.55613H5.40732L41.71088,5.71068Z"/><rect class="cls-3" x="2.28912" y="2.28912" width="39.42175" height="39.42175" rx="1.5"/></svg>