<?xml version="1.0" encoding="UTF-8"?>
<svg id="Ebene_1" data-name="Ebene 1" xmlns="http://www.w3.org/2000/svg" viewBox="0 0 44 44">
  <defs>
    <style>
      .cls-1 {
        fill: #00f300;
      }

      .cls-2 {
        fill: none;
        stroke: #00f300;
        stroke-miterlimit: 10;
        stroke-width: 3px;
      }

      .cls-3 {
        fill: #010101;
      }
    </style>
  </defs>
  <circle cx="22" cy="22.00024" r="20"/>
  <path class="cls-1" d="M22,3.09024C11.6,3.09024,3.1,11.55024,3.1,21.99024s8.46,18.9,18.9,18.9,18.9-8.46,18.9-18.9S32.44,3.09024,22,3.09024Zm0,32.9c-7.73,0-14-6.27-14-14S14.27,7.99024,22,7.99024s14,6.27,14,14-6.27,14-14,14Z"/>
  <line class="cls-2" x1="10.4" y1="10.40024" x2="33.6" y2="33.60024"/>
  <path d="M31.2,28.00024h-.827c-.17305,.01123-.32244-.11996-.33367-.29301-.00013-.00199-.00024-.00399-.00033-.00599v-1.05h-7.14v1.05c-.00572,.17388-.15131,.31019-.32518,.30448-.00327-.00011-.00655-.00027-.00982-.00048h-.826c-.09095,.00319-.1787-.03374-.24-.101-.06907-.08845-.10064-.2005-.0879-.312l-.00391-1.08c-.34213-.27371-.57602-.65998-.66-1.09,.0037-.02675,.01231-.05258,.0254-.0762-.14981-.19839-.2236-.44389-.208-.692h-.0478l-.0273-.104c-.09935-.47393-.06225-.96631,.107-1.42l.0381-.0781h.0527c.1911-.63277,.56302-1.19587,1.07-1.62l.635-1.93c.10554-.43855,.52063-.73027,.969-.681h6.22c.44922-.04918,.86487,.2435,.97,.683l.633,1.93c.50698,.42414,.8789,.98723,1.07,1.62h.0527l.0381,.0781c.16946,.45366,.20622,.94621,.106,1.42l-.0274,.104h-.0469c.0156,.24811-.05819,.49361-.208,.692,.01309,.02362,.0217,.04945,.0254,.0762-.08424,.43017-.31849,.81645-.661,1.09l-.00293,.0684v1.03c.01018,.10633-.02134,.21246-.0879,.296-.06087,.06798-.14882,.10535-.24,.102,0,0-.00136-.0104-.00135-.0104Zm-8.58-1.63h7.69v1.32c.002,.0137,.0117,.0264,.0566,.0264h.827c.03741-.02083,.05804-.06264,.0518-.105l-.001-1.05,.00879-.203,.0527-.04c.25945-.21636,.4623-.49265,.591-.805h-10.9c.1287,.31235,.33155,.58864,.591,.805l.0537,.04,.00684,.198v1.04c-.00568,.03804,.00083,.07689,.0186,.111l.859,.00879c.0449,0,.0557-.0127,.0576-.0352,0,0,.03637-1.31099,.03637-1.31099Zm2.9-1.13h1.88v-.601h-1.88v.601Zm2.16-.0967h4.27c.08316-.11195,.12836-.24755,.129-.387h-4.4s.001,.387,.001,.387Zm-6.71,0h4.27v-.387h-4.4c.00064,.13945,.04584,.27505,.129,.387h.001Zm-.238-.781h11.5c.05163-.3513,.02597-.70964-.0752-1.05h-11.3c-.10118,.34034-.12719,.69861-.0762,1.05h-.0486Zm.276-1.43h10.9c-.19025-.52431-.51887-.98735-.951-1.34l-.0303-.0254-.657-2.01c-.06966-.32326-.37773-.53738-.705-.49h-6.22c-.32641-.04745-.6339,.1657-.704,.488l-.659,2.01-.0293,.0254c-.4325,.35231-.76119,.81546-.951,1.34,0,0,.0066,.002,.0066,.002Zm9.66-1.32h-8.41l.455-1.86c.177-.51,.23-.545,.815-.545h5.87c.585,0,.639,.0356,.815,.545l.0186,.0552,.4364,1.8048Zm-8.06-.277h7.71l-.364-1.49c-.08333-.23933-.26767-.359-.553-.359h-5.87c-.28533,0-.46967,.11967-.553,.359l-.0195,.0562-.3505,1.4338Z"/>
  <path class="cls-1" d="M19.4,21.50024c-1.45,2.33-1.73,4.21,.0609,6.08,.822,.844,1.29,1.97,1.3,3.15v2.57h-4.32v-1.79c.00024-.257-.0361-.513-.108-.76-.211-.732-.575-1.41-1.07-1.99-2.35-2.72-1.36-7.02,.138-9,.219-.273,.368-.595,.432-.939,.0891-.743,.123-1.49,.101-2.24l-1.18,.666c-.895,.289-1.69-.17-1-1.34l3.6-5.66c.431-.547,.67-.542,1.1,.00315,0,0,2.56,4.2,3.32,5.41,.756,1.21,.393,1.94-.665,1.57l-1.3-.665s.604,3.36-.394,4.93"/>
  <path class="cls-1" d="M23.3,18.90024c-.38725-.04653-.74762,.20535-.837,.585l-.646,1.97c-.4998,.41011-.86548,.96037-1.05,1.58h11.3c-.18452-.61963-.5502-1.16989-1.05-1.58l-.646-1.97c-.08938-.37965-.44975-.63153-.837-.585h-6.234Zm.176,.409h5.87c.548,0,.526,.00039,.702,.508l.39,1.62h-8.06l.39-1.62c.176-.507,.155-.508,.702-.508h.006Zm-2.81,3.83c-.15692,.42535-.19068,.88633-.0974,1.33h11.7c.09328-.44367,.05952-.90465-.0974-1.33h-11.5052Zm-.0188,1.44c-.02606,.24167,.05173,.48303,.214,.664h4.47v-.664h-4.684Zm6.85,0v.664h4.47c.16227-.18097,.24006-.42233,.214-.664,0,0-4.684,0-4.684,0Zm-6.63,.761c-.155,.0586,.236,.762,.626,1.05l.00549,.132v1.04s-.0295,.259,.19,.259h.826c.09778,.01013,.18526-.06093,.19539-.15871,.00025-.00242,.00045-.00486,.0006-.00729v-1.18h7.42v1.18c.0061,.09812,.09059,.17271,.18871,.1666,.00243-.00015,.00486-.00035,.00729-.0006h.826c.22,0,.19-.259,.19-.259v-1.04l.0055-.132c.39-.293,.781-.996,.626-1.05,0,0-11.10699,0-11.10698,0Z"/>
  <path d="M22.3,23.80024c0-.292-.236-.528-.528-.528s-.528,.236-.528,.528,.236,.528,.528,.528,.528-.236,.528-.528Z"/>
  <path d="M23.6,23.80024c0-.292-.236-.528-.528-.528s-.528,.236-.528,.528,.236,.528,.528,.528,.528-.236,.528-.528Z"/>
  <path d="M30.5,23.80024c0-.292,.236-.528,.528-.528s.528,.236,.528,.528-.236,.528-.528,.528-.528-.236-.528-.528Z"/>
  <path d="M29.2,23.80024c0-.292,.236-.528,.528-.528s.528,.236,.528,.528-.236,.528-.528,.528-.528-.236-.528-.528Z"/>
  <path class="cls-3" d="M25.5,24.60024h1.86v.664h-1.86v-.664Z"/>
</svg>