<svg xmlns="http://www.w3.org/2000/svg" viewBox="0 0 40 40"><g id="EA45_flag_equador"><rect y="7" width="40" height="26" fill="#ed1c24" /><rect y="7" width="40" height="19.5" fill="#034ea2" /><rect y="7" width="40" height="13" fill="#fd0" /><path d="M17.16085,19.28382l.35283.35633.39642-1.8701-.73712-.755-.01213,2.26874Z" fill="#034ea2" /><path d="M17.71079,18.98225l.35021-1.06362-.36235-.35678.01213,1.4204Z" fill="#ed1c24" /><path d="M16.45557,15.99805c-.04639.0158-.24952.05328-.24952.05328v.00006a.7285.7285,0,0,0,.071.09467c-.0061.02014-.10889,1.20672-.10913,1.20843a.89409.89409,0,0,0,.03564.22119s.05835.03077.06812.00409.09253-1.36114.09253-1.36114a.14605.14605,0,0,0,.08886-.0025l.1128-.1203C16.62842,15.99048,16.51074,15.97919,16.45557,15.99805Z" fill="#ed1c24" /><path d="M16.19385,15.564l-.57154-.13581.01465.61255s.47041.12736.58658-.04277C16.29479,15.89365,16.19385,15.564,16.19385,15.564Z" fill="#b1babf" /><path d="M22.81227,19.28382l-.35282.35633-.54733-1.72152.888-.90355.01213,2.26874Z" fill="#034ea2" /><path d="M22.26233,18.98225l-.35021-1.06362.36235-.35678-.01213,1.4204Z" fill="#ed1c24" /><path d="M23.60254,15.80438s-.17749.05768-.17407.11328a.39488.39488,0,0,0,.0415.12781s.02417.03.10986.02753a.927.927,0,0,0,.17139-.02063l-.04648.00879s.096,1.20446.09995,1.28833l.00049.00506c.03588.05518.09863.01483.09863.01483.00976-.02514.02-.02044.0188-.0628C23.91943,17.18689,23.84629,15.71969,23.60254,15.80438Z" fill="#034ea2" /><path d="M24.35083,15.42822l-.57153.13581s-.08814.3323-.00977.43142c.10561.13356.56665.04532.56665.04532Z" fill="#b1babf" /><path d="M18.55518,16.75s-.45731-.51342-.67115-.54736a3.14736,3.14736,0,0,0-1.12573.43579l-.43771,2.14569.61813.43342C17.05493,19.147,18.55518,16.75,18.55518,16.75Z" fill="#39b54a" /><path d="M23.42842,18.88991a7.408,7.408,0,0,0-.50093-2.482l-1.16211-.25733-.09284.62591a5.81336,5.81336,0,0,1,1.07058,2.75116Z" fill="#009c4f" /><path d="M17.39681,23.58753c-.78835-.50715-.91732-2.05579-.90515-2.26712s.01942-2.6847.01942-2.6847l.23329.23424c-.42454-.43438-.9213-.94341-1.1735-1.20422-.08078-.08358-.02289,3.24052-.02289,4.71654,0,.69206.42259,3.13362,2.90107,1.905a4.17685,4.17685,0,0,0,1.6-1.00168,1.961,1.961,0,0,1-.25007-.01607,1.31827,1.31827,0,0,1-.12018.05772c-1.42958.98407-2.282.26022-2.282.26022Z" fill="#fd0" /><path d="M16.49182,21.32035c-.01217.2113.1168,1.76.90515,2.26711,0,0,.85245.72385,2.28206-.26019a1.597,1.597,0,0,1-1.01616.15079,2.46263,2.46263,0,0,1-1.53842-1.84943,21.44537,21.44537,0,0,1-.0876-2.44608l.10378.09246c-.11531-.11787-.2515-.25714-.39607-.40506l-.23329-.23424s-.00729,2.47334-.01945,2.68464Z" fill="#034ea2" /><path d="M17.8268,19.71246a2.44062,2.44062,0,0,1-.79011-.553,23.955,23.955,0,0,0,.08766,2.46943,2.43986,2.43986,0,0,0,1.51843,1.84947,3.40523,3.40523,0,0,0,1.12436-.21306A39.27958,39.27958,0,0,1,17.8268,19.71246Z" fill="#ed1c24" /><path d="M15.50928,17.13287,14.45,16.58716s-.17156,1.59248,1.11524,1.17334C15.62868,17.73982,15.50928,17.13287,15.50928,17.13287Z" fill="#b1babf" /><path d="M23.48892,18.63571l.94021-.97.02289,4.71654c0,.69206-.42259,3.13362-2.90107,1.905Z" fill="#fd0" /><path d="M23.50818,21.32035c.01217.2113-.1168,1.76-.90515,2.26711,0,0-.85245.72385-2.28206-.26019l2.64218-4.14472.52558-.54684s.00729,2.47334.01945,2.68464Z" fill="#034ea2" /><path d="M22.412,19.67741l.55135-.518a23.955,23.955,0,0,1-.08766,2.46943,2.43986,2.43986,0,0,1-1.51843,1.84947,3.85286,3.85286,0,0,1-1.12436-.21306Z" fill="#ed1c24" /><path d="M15.82593,17.62494c-.04639.01581-.24951.05328-.24951.05328l.00024.00006a.96119.96119,0,0,0,.06909.101c-.0061.02032-.103,1.11322-.10669,1.19708l.03491.22626s.05835.03076.06812.00409.09106-1.35248.09229-1.359a.104.104,0,0,0,.08935-.00476l.11255-.12024C15.999,17.61737,15.8811,17.60608,15.82593,17.62494Z" fill="#ed1c24" /><path d="M24.48,17.64126s.15262,1.22231.15577,1.342c.00115.04236-.00911.03764-.01876.06282,0,0-.06289.04034-.09884-.01487l-.11982-1.32475.08165-.0652Z" fill="#034ea2" /><path d="M24.38525,17.361a.14277.14277,0,0,0-.19873.0564.39126.39126,0,0,0,.00464.1297s.01709.042.09571.06409a.57025.57025,0,0,0,.18237.03253C24.48,17.599,24.51294,17.42627,24.38525,17.361Z" fill="#034ea2" /><path d="M25.55005,16.58716l-1.05933.54571s-.1225.62268-.05591.62763C26.00731,17.87723,25.55005,16.58716,25.55005,16.58716Z" fill="#b1babf" /><path d="M18.88867,24.22308a6.05471,6.05471,0,0,0-.65137,1.04114c-.01538.18-.01538.32874.40625.26618,0,0,.18457-.03522.34766-.04981-.05176.238-.11328.595-.11328.595.00122-.12091.249-.37.32056-.48291.03466-.05475.33667-1.3504.37085-1.39892C19.56982,24.18951,18.88867,24.22308,18.88867,24.22308Z" fill="#fd0" /><path d="M20.48975,26.49713a.3983.3983,0,0,0-.11719-.176.41959.41959,0,0,1-.09766-.2605c-.00683-.06836-.17065-1.96271-.17065-1.96271H19.762s-.16382,1.89435-.17065,1.96271a.41959.41959,0,0,1-.09766.2605.39839.39839,0,0,0-.11719.176C19.37549,26.51154,20.48975,26.49713,20.48975,26.49713Z" fill="#ed1c24" /><path d="M21.62891,25.26422a6.0541,6.0541,0,0,0-.65137-1.04114s-.365-.04663-.562-.05224a.27677.27677,0,0,0-.12012.01025c.00049.00415.31494,1.22766.33008,1.29328.00561-.00373.01782.04125.04223.08282.07154.12122.31934.38855.32056.51837,0,0-.05493-.34076-.10474-.594.16089.015.33912.04889.33912.04889C21.64429,25.593,21.64429,25.44427,21.62891,25.26422Z" fill="#fd0" /><path d="M22.61157,23.78735H17.89575l.20947-.54742.00074-.00018a.61744.61744,0,0,0-.32764-.25757c-.30933-.08075-.51465.2677-.51465.2677V23.25c0-.00012.1167.51172.05274.44672a4.83317,4.83317,0,0,1-.54029.20007c.01465-.00092.544.18378.544.18378l.57568-.0774h4.71558Z" fill="#b1babf" /><path d="M21.72559,23.87563c0-.04784-.0044-.14252-.0044-.14252-.00244-.05756-.03491-.33989-.03491-.33989-.01172-.06332-.04956-.16853-.10767-.16853H18.35327c-.06128,0-.11133.16853-.11133.16853-.00732.05544-.03344.33989-.03344.33989-.00147.047-.00245.09442-.00245.14206h0c0,.04069.02662.39944.03174.44092,0,0,.05567.13392.115.13392h3.22486c.05566,0,.09277-.07814.10717-.13392C21.68481,24.31609,21.72559,23.91619,21.72559,23.87563Z" fill="#a2550b" /><path d="M17.53806,19.89861c0,1.73809,4.89075,1.738,4.89075,0s-1.09481-3.14722-2.44536-3.14722-2.44539,1.409-2.44539,3.14722" fill="#1ea8d1" /><path d="M17.65267,20.12022l4.59858.067.02439-.50593L17.677,19.23768l-.02435.88254Z" fill="#557176" /><polygon points="17.639 20.058 17.931 21.738 21.951 21.664 22.334 20.151 17.639 20.058" fill="#6dbe45" /><path d="M18.49977,19.86137l.06254.32815.70579.58295a5.80926,5.80926,0,0,1-.23587.66672c-.03319.00752-.97123.26086-.97123.26086s.75345,1.52464,1.886,1.52464c1.178,0,2.00412-1.56026,2.00412-1.56026s-1.131-.32311-1.15311-.33817-.029-.54782-.05857-.55537-1.35335-.14893-1.35335-.14893l-.72635-.46218-.03334-.27813.37881-.354Z" fill="#0075af" /><path d="M17.53806,19.41529l4.00959.19077a14.93666,14.93666,0,0,0-2.41329-1.07832A11.67393,11.67393,0,0,0,17.53806,19.41529Z" fill="#fff" /><path d="M21.93993,18.34656c.02471.04568.1289.392.1289.392a2.96561,2.96561,0,0,0-2.09524-.66038,3.02189,3.02189,0,0,0-2.08677.64508,4.09668,4.09668,0,0,1,.27819-.67664,3.55774,3.55774,0,0,1,1.80858-.42581,3.54388,3.54388,0,0,1,1.81753.43131,1.66356,1.66356,0,0,1,.14881.29449Z" fill="#949699" /><path d="M18.96,21.98278c.01456.0926.12861.10222.12861.10222s1.87584-.00055,1.87584-.00861l-.01306-.07111c-.37752.03788-1.84917.01028-1.87417.01028a.52622.52622,0,0,1-.11722-.03278Z" fill="#ed1c24" /><path d="M21.00928,21.88818v-.00006H21.009c.00147-.02014-2.158-.03583-2.158-.03583a.094.094,0,0,0,.04248.067c.00245.0022.16309.0434.19849.04987.04053.00744,1.37256.00958,1.37256.00958l.52588-.03931.0188-.05121Z" fill="#fd0" /><path d="M22.7019,13.54547c-.136-.02112-.80859-.08447-1.31958-.13379a.3684.3684,0,0,0-.43994.43665s-.58056.266-.69238.31323a2.23023,2.23023,0,0,0-.59766-.08337.96.96,0,0,0-.39111.145s-.41357-.78956-.59351-.81073a4.5115,4.5115,0,0,0-1.37719-.01593c-.29346.07934-2.41211,1.13745-2.41211,1.13745.011-.00373,2.29541.26562,2.29541.26562s1.9873.90277,2.02734.88721a10.72565,10.72565,0,0,0-.64136,1.40015c.02759.00213,3.70312-2.0855,3.73951-2.09473.06288-.016,2.73144-.44684,2.62793-.51428C24.7771,14.38007,22.83765,13.56659,22.7019,13.54547Z" fill="#452c25" /><path d="M21.02694,16.78205a2.29444,2.29444,0,0,0-1.08258-.26943,2.63138,2.63138,0,0,0-.96028.26244,3.03655,3.03655,0,0,0-1.19769,1.5203,4.32822,4.32822,0,0,0-.29366,1.58559,3.25877,3.25877,0,0,0,2.05282,3.26918,1.09264,1.09264,0,0,0,.40148.07456,3.63666,3.63666,0,0,0,.44527-.02983,3.24452,3.24452,0,0,0,2.08037-3.29618,3.56989,3.56989,0,0,0-1.44634-3.10232m-.633,6.18538a2.90119,2.90119,0,0,1-.44352.04275,1.796,1.796,0,0,1-.40874-.05361,3.04091,3.04091,0,0,1-1.84228-3.03479,4.205,4.205,0,0,1,.28465-1.484A2.7437,2.7437,0,0,1,19.08414,17.084a2.05628,2.05628,0,0,1,.87015-.29491,1.71255,1.71255,0,0,1,.9684.31446,3.32789,3.32789,0,0,1,1.31112,2.82384,3.00216,3.00216,0,0,1-1.84052,3.0544" fill="#b1babf" /><path d="M20.87132,17.10223a1.77313,1.77313,0,0,0-.9275-.27109,2.36638,2.36638,0,0,0-.84284.26674l-.16162-.32151a2.53191,2.53191,0,0,1,1.00012-.32843,1.99072,1.99072,0,0,1,1.07985.32858" fill="#c69024" /><path d="M20.28861,15.93722a2.48094,2.48094,0,0,1-.02431.385,1.42155,1.42155,0,0,1-.25637.13478l.04423.06256s.17676-.05293.19889-.05293a.05971.05971,0,0,1,.03981.024s-.00446.24549.04416.24549c0,0,.10165-.00485.09283.0096l-.03538-.25509a2.07659,2.07659,0,0,0,.22542.12034.64.64,0,0,0,.0663-.04334s-.221-.16845-.24752-.19731a.16026.16026,0,0,1-.03535-.09626c-.00442-.03371.00118-.32464.00118-.32464l-.11389-.01227Z" fill="#bd8759" /><path d="M19.53806,16.48806s-.11005.08517-.12247.12531a.43314.43314,0,0,0-.01586.07879s.09852-.0119.08649.04243c0,0,.1816-.26846.21762-.26505s.16007.10612.2002.09458l.05155-.08953s-.228-.1232-.21084-.15463.10951-.27532.10951-.27532l-.12237-.17971s-.12976.49817-.14295.50988a1.30219,1.30219,0,0,0-.41068.26914l.1388-.01871Z" fill="#bd8759" /><circle cx="19.80802" cy="14.70303" r="0.46291" fill="#dcddde" /><path d="M18.76636,14.71271c-.22754.06915-.14551.21032-.14551.21032.00244-.04315.11548-.00372.17725-.049a.20033.20033,0,0,1,.12436-.03908Z" fill="#d9c0b9" /><path d="M19.75833,14.46028s-.416.069-.45679.069a.99315.99315,0,0,1-.14683-.04145c-.0435-.00888-.18489-.02368-.23653.02961s-.1824.16468-.185.19041.01644.06419.049.06419.1012.06942.10111.08393c-.00017.02421.08954.05026.17412.04978.15249-.00085.22755-.07779.45616-.05082a.61128.61128,0,0,0,.39425-.1421.16371.16371,0,0,0,.02446-.18947c-.04079-.06809-.163-.06109-.174-.06311Z" fill="#dba05f" /><circle cx="19.99988" cy="17.87723" r="0.57254" fill="#fd0" /></g></svg>