<svg xmlns="http://www.w3.org/2000/svg" xmlns:xlink="http://www.w3.org/1999/xlink" viewBox="0 0 44 53"><defs><linearGradient id="Hintergrund_weiss" x1="2.32028" y1="43.94779" x2="41.67972" y2="43.94779" gradientUnits="userSpaceOnUse"><stop offset="0" stop-color="#fff"/></linearGradient><linearGradient id="Rahmen_schwarz" x1="2" y1="44.004" x2="42" y2="44.004" gradientUnits="userSpaceOnUse"><stop offset="0" stop-color="#010101"/></linearGradient><linearGradient id="Beschriftung_schwarz" x1="10.74512" y1="43.92323" x2="33.25488" y2="43.92323" xlink:href="#Rahmen_schwarz"/></defs><title>zusatzschild_kmh_1</title><g id="zusatzschild_kmh"><path id="Hintergrund_weiss-2" data-name="Hintergrund_weiss" d="M2.32028,37.00507V48.41051a2.52563,2.52563,0,0,0,1.15625,2.10782,2.8114,2.8114,0,0,0,1.30255.37218H39.21972a2.46772,2.46772,0,0,0,1.73906-.72444,2.51642,2.51642,0,0,0,.72094-1.75556V37.00507Z" fill="url(#Hintergrund_weiss)"/><path id="Rahmen_schwarz-2" data-name="Rahmen_schwarz" d="M41,37.00507V48.50293a1.53789,1.53789,0,0,1-1.5,1.5H4.5a1.88394,1.88394,0,0,1-.79993-.2A1.70956,1.70956,0,0,1,3,48.50293V37.00507H2V48.50293a2.24515,2.24515,0,0,0,1.20007,2.1,3.25859,3.25859,0,0,0,1.29993.4h35a2.47568,2.47568,0,0,0,2.5-2.5V37.00507Z" fill="url(#Rahmen_schwarz)" stroke-width="0.5px" stroke="url(#Rahmen_schwarz)"/><path id="Beschriftung_schwarz-2" data-name="Beschriftung_schwarz" d="M14.76465,47.328H13.56543l-.96-2.33008-.66016.90039V47.328H10.74512v-6.2002l1.20019-.60937v3.60937l1.29-1.66015h1.47949l-1.29,1.55078Zm7.75,0H21.31543V44.41786a.9308.9308,0,0,0-.22559-.65527.79249.79249,0,0,0-.61523-.24414.8101.8101,0,0,0-.59961.25488.82158.82158,0,0,0-.25.59473v2.96H18.47461V44.41786a.87906.87906,0,0,0-.88965-.89941.73885.73885,0,0,0-.57519.25.89269.89269,0,0,0-.22461.61914V47.328H15.585V42.43837h1.2002v.39941a1.61835,1.61835,0,0,1,2.42968.24024,1.56991,1.56991,0,0,1,1.37989-.67969,1.78149,1.78149,0,0,1,1.41992.62988,2.04922,2.04922,0,0,1,.5,1.33008Zm6.21-6.7002L24.10449,47.328H22.97461l4.57031-6.7002Zm.41992.4502,1.12988-.55957v2.3291a1.6084,1.6084,0,0,1,1.19043-.44922,1.65649,1.65649,0,0,1,1.28516.54492,2.06069,2.06069,0,0,1,.50488,1.415V47.328H32.05469V44.41786a.89491.89491,0,0,0-.23535-.63965.82753.82753,0,0,0-.63477-.25.88528.88528,0,0,0-.63477.26465.81991.81991,0,0,0-.27539.60547V47.328H29.14453Z" fill="url(#Beschriftung_schwarz)"/></g></svg>