<svg xmlns="http://www.w3.org/2000/svg" viewBox="0 0 84 44"><defs><style>.cls-1,.cls-2{fill:#fff;}.cls-1{fill-rule:evenodd;}</style></defs><g id="E100_Bremse"><g id="Version_2-3" data-name="Version_2"><path class="cls-1" d="M41.917,35.003a2.82213,2.82213,0,1,1,2.955-2.819A2.89087,2.89087,0,0,1,41.917,35.003ZM42,27.009a2.92284,2.92284,0,0,1-3-2.594V11.59a3.03177,3.03177,0,0,1,6,0V24.415A2.92354,2.92354,0,0,1,42,27.009Z"/><path class="cls-2" d="M25.62079,21.997A16.37932,16.37932,0,1,0,41.99845,5.615,16.38083,16.38083,0,0,0,25.62079,21.997Zm-3.12068,0A19.5,19.5,0,1,1,41.99845,41.5,19.497,19.497,0,0,1,22.50011,21.997Z"/><g id="Versuch_3"><path class="cls-2" d="M61.46265,2.6131,57.92383,6.14166a22.44673,22.44673,0,0,1-.01911,31.73664l3.53882,3.52856A27.43783,27.43783,0,0,0,61.46265,2.6131Z"/><path class="cls-2" d="M22.60571,41.45563l3.53-3.53754a22.44759,22.44759,0,0,1-.02-31.81714l-3.5299-3.53753a27.43895,27.43895,0,0,0,.01989,38.89221Z"/></g></g></g></svg>