<svg xmlns="http://www.w3.org/2000/svg" viewBox="0 0 84 44"><defs><style>.cls-1,.cls-2{fill:#fff;}.cls-1{fill-rule:evenodd;}</style></defs><g id="E110_EPS"><path class="cls-1" d="M62.5,30.22935A2.80556,2.80556,0,0,1,59.5561,27.589V7.51256a2.96135,2.96135,0,0,1,5.8878,0V27.589A2.80556,2.80556,0,0,1,62.5,30.22935Z"/><circle class="cls-2" cx="62.5" cy="37" r="3.5046"/><path class="cls-1" d="M37.70442,40.5a18.5,18.5,0,1,1,18.4867-18.4972A18.50991,18.50991,0,0,1,37.70442,40.5Zm.015-33.8853a15.42959,15.42959,0,0,0-14.0265,9.0439A.94685.94685,0,0,0,24.64872,17h26.105a.94233.94233,0,0,0,.9528-1.3414A15.37282,15.37282,0,0,0,37.71942,6.6147Zm-.0271,30.7764a15.35648,15.35648,0,0,0,8.9085-2.8498.65586.65586,0,0,0,.1207-.1086c.4284-.3674.5488-.8857-.5429-1.9401l-2.482-2.1751a10.11137,10.11137,0,0,1-11.9938,0l-2.4789,2.1751c-1.0857,1.0544-.9592,1.5727-.546,1.9401a.86828.86828,0,0,0,.1265.1086A15.30652,15.30652,0,0,0,37.69232,37.3911Zm0-8.1459a5.28432,5.28432,0,1,0-5.0939-5.284A5.21168,5.21168,0,0,0,37.69232,29.2452Zm10.1601-8.0857.0062.9521a10.03994,10.03994,0,0,1-1.2427,4.874l3.2209,2.826c.5551.4155,1.164.0539,1.5353-.7533l.0633-.1386a15.29007,15.29007,0,0,0,1.6345-6.5854c-.0123-1.193-.5973-1.1627-1.2607-1.1627Zm-20.3024,0-3.9538.0121c-.6664,0-1.2485-.0303-1.2665,1.1627a15.292,15.292,0,0,0,1.6405,6.5854l.0633.1386c.3771.8072.9741,1.1688,1.532.7533l3.2242-2.826a10.07319,10.07319,0,0,1-1.2458-4.874Z"/></g></svg>