<svg xmlns="http://www.w3.org/2000/svg" viewBox="0 0 84 44"><defs><style>.cls-1{fill:#fff;fill-rule:evenodd;}</style></defs><g id="_114_Schluesselbatterie" data-name="114_Schluesselbatterie"><path class="cls-1" d="M5,37V9H21V37ZM17,13H14V10H12v3H9v2h3v3h2V15h3Zm1,7H8V34H18Z"/><path class="cls-1" d="M11,7h4V9H11Z"/><path class="cls-1" d="M10,30h6v2H10Z"/><path class="cls-1" d="M68.022,11.813a10.55931,10.55931,0,0,0-9.633,6.278v-.035H28.747l-3.77,2.753,5.627,5.953,2.919-4.311,3.274,4.311,3.164-4.311,2.414,2.414,1.609-1.609,2.509,2.271,2.488-2.483,3.679,3.718h5.703a10.58485,10.58485,0,1,0,9.659-14.949Zm3.815,13.796a3.15557,3.15557,0,1,1,3.135-3.156A3.14582,3.14582,0,0,1,71.837,25.609Z"/></g></svg>