<svg xmlns="http://www.w3.org/2000/svg" viewBox="0 0 84 44"><defs><style>.cls-1,.cls-3{fill:#fff;}.cls-2{fill:none;stroke:#fff;stroke-width:3px;}.cls-3{fill-rule:evenodd;}</style></defs><g id="E125_automatisches_Fernlicht"><g id="Version_4-2" data-name="Version_4"><path class="cls-1" d="M35.4385,5H21.0515V2h15.897A11.00169,11.00169,0,0,0,35.4385,5Zm-1.169,6H21.0515V8h13.619Q34.4215,9.3455,34.2695,11Zm-.218,6h-13V14h13C34.0405,14.401,34.0395,16.51,34.0515,17Zm.563,6H21.0515V20h13.19Q34.3795,21.6515,34.6145,23Zm2.12,6H21.0515V26h14.284A11.76609,11.76609,0,0,0,36.7345,29Z"/><path class="cls-2" d="M58.3745,22.69a15.13252,15.13252,0,0,1-2.258,1.726,11.87326,11.87326,0,0,1-1.037.59,25.551,25.551,0,0,1-3.835,1.644,20.80456,20.80456,0,0,1-7.444,1.087c-.807,0-5.392.221-5.392-12.151s4.627-12.151,5.392-12.151a20.42428,20.42428,0,0,1,7.44,1.277,25.53652,25.53652,0,0,1,3.832,1.643,11.88084,11.88084,0,0,1,1.04.589,15.167,15.167,0,0,1,2.259,1.727c1.602,1.492,3.422,3.383,3.422,7.009C61.7935,19.307,59.9775,21.196,58.3745,22.69Z"/><path class="cls-3" d="M49,43H47V34H44V32.005h8V34H49Zm-7.1125-3.153a4.32711,4.32711,0,0,1-.282,1.038,3.17783,3.17783,0,0,1-.531.859,2.87075,2.87075,0,0,1-.83.647,4.49015,4.49015,0,0,1-1.179.41,8.659,8.659,0,0,1-3.156,0,4.47982,4.47982,0,0,1-1.181-.41,2.83455,2.83455,0,0,1-.828-.647,3.17169,3.17169,0,0,1-.529-.859,4.277,4.277,0,0,1-.281-1.036,8.25543,8.25543,0,0,1-.081-1.183c-.001.03-.007-6.647-.007-6.647l2.189-.002s.006,6.397.006,6.368a5.18868,5.18868,0,0,0,.128,1.246,1.93475,1.93475,0,0,0,.405.822,1.55757,1.55757,0,0,0,.713.455,4.024,4.024,0,0,0,2.097,0,1.55757,1.55757,0,0,0,.713-.455,1.93475,1.93475,0,0,0,.405-.822,5.18868,5.18868,0,0,0,.128-1.246c-.002.029-.026-6.356-.026-6.356l2.236-.015s-.025,6.663-.025,6.652A7.97752,7.97752,0,0,1,41.8875,39.847Zm-13.533.722h-4.54L22.9715,43h-2.273l4.008-10.995h3l4,10.995h-2.494Zm-2.263-6.923c-.076.35-1.641,5.164-1.641,5.164h3.272S26.1685,33.996,26.0915,33.646Z"/><path class="cls-1" d="M58.5018,43.2a6.11549,6.11549,0,0,1-1.67312-.2061,4.141,4.141,0,0,1-1.25507-.57961,3.489,3.489,0,0,1-.887-.89416,4.73236,4.73236,0,0,1-.57061-1.15607,6.84662,6.84662,0,0,1-.30555-1.35992A12.16758,12.16758,0,0,1,53.72,37.49842a11.10541,11.10541,0,0,1,.09945-1.50571,6.81072,6.81072,0,0,1,.324-1.35812,4.8746,4.8746,0,0,1,.58726-1.15607,3.55478,3.55478,0,0,1,.89416-.89416,4.18983,4.18983,0,0,1,1.24427-.57826A5.89282,5.89282,0,0,1,58.5018,31.8a6.133,6.133,0,0,1,1.67312.2061,4.14062,4.14062,0,0,1,1.25327.57826,3.48407,3.48407,0,0,1,.88741.89416,4.716,4.716,0,0,1,.57061,1.15607,6.90221,6.90221,0,0,1,.3033,1.35812A12.16754,12.16754,0,0,1,63.28,37.49842a11.10545,11.10545,0,0,1-.09945,1.50572,6.94579,6.94579,0,0,1-.3222,1.35992,4.75783,4.75783,0,0,1-.58681,1.15607,3.63168,3.63168,0,0,1-.89641.89416,4.16343,4.16343,0,0,1-1.24247.57961A5.85582,5.85582,0,0,1,58.5018,43.2Zm0-1.796a2.68985,2.68985,0,0,0,.82441-.11791,1.99777,1.99777,0,0,0,.65341-.3474,2.2339,2.2339,0,0,0,.49366-.56476,3.30256,3.30256,0,0,0,.342-.76906,5.50276,5.50276,0,0,0,.1989-.96211,10.17557,10.17557,0,0,0,0-2.28513,5.464,5.464,0,0,0-.1989-.96031,3.34165,3.34165,0,0,0-.342-.76861,2.19056,2.19056,0,0,0-.49366-.56521,2.04984,2.04984,0,0,0-.65341-.3474,2.8986,2.8986,0,0,0-1.64882,0,2.07343,2.07343,0,0,0-.65521.3474,2.16173,2.16173,0,0,0-.495.56521,3.32313,3.32313,0,0,0-.34245.76861,5.464,5.464,0,0,0-.1989.96031,10.17557,10.17557,0,0,0,0,2.28513,5.50276,5.50276,0,0,0,.1989.96211,3.28447,3.28447,0,0,0,.34245.76906,2.20384,2.20384,0,0,0,.495.56476,2.02033,2.02033,0,0,0,.65521.3474A2.68985,2.68985,0,0,0,58.5018,41.404Z"/></g></g></svg>