<svg xmlns="http://www.w3.org/2000/svg" viewBox="0 0 84 44"><defs><style>.cls-1{fill:none;stroke:#fff;stroke-width:3px;}.cls-2{fill:#fff;fill-rule:evenodd;}</style></defs><g id="E131_Wischer_defekt"><g id="Version_2-3" data-name="Version_2"><path class="cls-1" d="M25.2653,10.902,37.28388,40.40215"/><path class="cls-2" d="M37.42685,37.90215a2.5,2.5,0,1,1-2.5,2.5A2.50012,2.50012,0,0,1,37.42685,37.90215Z"/><path class="cls-1" d="M37,28.46635c-4.45663,0-7.47747,2.40161-10.582,5.41034L7.0784,22.32128c4.02791-6.04186,8.63123-10.01222,12.748-12.1809l.004-.00291A33.70322,33.70322,0,0,1,37,5.6603a33.70322,33.70322,0,0,1,17.16961,4.47717l.004.00291c4.11673,2.16868,8.72005,6.139,12.748,12.1809L47.582,33.87669C44.47747,30.868,41.45663,28.46635,37,28.46635Z"/><path class="cls-2" d="M75,35.137a2.542,2.542,0,1,1,2.542-2.542A2.54188,2.54188,0,0,1,75,35.137Zm0-7.082a1.99945,1.99945,0,0,1-2-2V11.595a2,2,0,1,1,4,0v14.46A1.99945,1.99945,0,0,1,75,28.055Z"/></g></g></svg>