<svg xmlns="http://www.w3.org/2000/svg" viewBox="0 0 84 44"><defs><style>.cls-1{fill:#fff;}</style></defs><g id="E132_AFS"><g id="Version_4-2" data-name="Version_4"><path class="cls-1" d="M61.125,17.875h2.75V8.92529a4.53106,4.53106,0,0,0-4.49316-4.76074h-.002l-3.50488-.041V.26367L49.26953,5.665,55.875,10.74609V6.875h3.50684a2.028,2.028,0,0,1,1.74609,2.05029Z"/><path class="cls-1" d="M42.67676,8.26514A5.53654,5.53654,0,0,0,38.624,9.957c-2.22851,2.23047-3.3584,6.52735-3.3584,12.77149,0,6.25634,1.126,10.55566,3.34668,12.77783a5.40223,5.40223,0,0,0,4.01856,1.686h.083a25.215,25.215,0,0,0,8.68066-1.23388,29.9068,29.9068,0,0,0,4.40625-1.81983c.22656-.10888.68555-.34082,1.2793-.70312a18.11381,18.11381,0,0,0,2.71972-2.00928l.03711-.03223A11.16331,11.16331,0,0,0,63.875,22.79688c.00977-.24512.01172-.46534.00488-.67188H61.13281c.00879.228,0,.46387-.00781.63184v.15087c.10254,2.11915-.9834,4.17481-3.31836,6.27833a15.32454,15.32454,0,0,1-2.27051,1.67529c-.54.32861-.92773.51806-1.07422.58935a27.1273,27.1273,0,0,1-3.99414,1.64991,22.2217,22.2217,0,0,1-7.80664,1.085,2.49459,2.49459,0,0,1-1.93945-.80909c-.91992-.92236-2.46484-3.53173-2.46484-10.64794,0-7.1001,1.55175-9.71436,2.47656-10.64112a2.503,2.503,0,0,1,1.92383-.81592h.05664a21.88678,21.88678,0,0,1,5.15429.53565V8.73828A25.84491,25.84491,0,0,0,42.67676,8.26514Z"/><path class="cls-1" d="M33.318,10.45312,20,15.80658v3.23309L32.24359,14.1181A20.53486,20.53486,0,0,1,33.33685,10.5Z"/><path class="cls-1" d="M20,43.83948l14.93225-6.00305-.035-.087a11.89689,11.89689,0,0,1-1.47083-2.54071L20,40.60638Z"/><path class="cls-1" d="M20,37.63928l12.53522-5.03882a27.62477,27.62477,0,0,1-.59943-2.9566l-.01233-.03058L20,34.40619Z"/><path class="cls-1" d="M20,31.43958l11.614-4.669c-.07556-1.00574-.118-2.06922-.13354-3.17938L20,28.20648Z"/><path class="cls-1" d="M20,22.00677v3.2331l11.512-4.628c.04248-1.1695.11805-2.28217.23255-3.3266Z"/></g></g></svg>