<svg xmlns="http://www.w3.org/2000/svg" viewBox="0 0 84 44"><defs><style>.cls-1{fill:#fff;}.cls-2{fill:none;stroke:#fff;stroke-width:3px;}</style></defs><g id="E133_Lichtsensor"><g id="Version_3-2" data-name="Version_3"><path class="cls-1" d="M36.70139,27.42153c-.51064-5.7438-2.13323-12.41193-7.926-12.41193s-7.41538,6.66813-7.926,12.41193L20.3841,35H37.16664Z"/><path class="cls-2" d="M68.01507,25.75351a14.46115,14.46115,0,0,1-2.16236,1.58925c-.513.31032-.88541.49256-.993.5434a25.06206,25.06206,0,0,1-3.673,1.51265,20.645,20.645,0,0,1-7.12818,1.001c-.77251,0-5.16325.20336-5.16325-11.18681s4.431-11.18681,5.16325-11.18681a20.254,20.254,0,0,1,7.12422,1.17592,24.8976,24.8976,0,0,1,3.67039,1.51266c.10895.05018.48134.23307.99568.54208a14.54677,14.54677,0,0,1,2.163,1.58991c1.53445,1.374,3.41619,3.55154,3.27688,6.45339C71.428,22.202,69.55018,24.37819,68.01507,25.75351Z"/><path class="cls-1" d="M48.76,35.01715,48.9787,38H16.77264l.89307-11.97925C18.64544,17.11969,21.821,6.4375,32.93749,6.4375A13.83127,13.83127,0,0,1,41.03577,9.027l4.00982-1.60379A16.40148,16.40148,0,0,0,33.197,3.01746c-14.147,0-18.10962,12.595-19.35669,23.44415L12.704,40.98254H53.68988l-.4668-5.96539Z"/><path class="cls-1" d="M45.34353,29.43738l-9.22537,3.66455L37.056,35h2.36623l7.69816-3.04291A10.78533,10.78533,0,0,1,45.34353,29.43738Z"/><path class="cls-1" d="M44.13421,23.62994,33.6701,27.8158,34.78338,30.601l9.8982-3.95947A24.31406,24.31406,0,0,1,44.13421,23.62994Z"/><path class="cls-1" d="M43.89569,19.21277c0-.65778.023-1.28015.0498-1.89649L33.6701,21.42615l1.11328,2.78515,9.14746-3.65869C43.91742,20.10858,43.89569,19.67755,43.89569,19.21277Z"/><path class="cls-1" d="M45.02142,10.57263l-.02612-.06543L31.52411,15.89533l2.146,2.38426,10.5791-4.24352A21.67393,21.67393,0,0,1,45.02142,10.57263Z"/></g></g></svg>