<svg xmlns="http://www.w3.org/2000/svg" viewBox="0 0 84 44"><defs><style>.cls-1{fill:none;stroke:#fff;stroke-width:3.5px;}.cls-2,.cls-3{fill:#fff;}.cls-3{fill-rule:evenodd;}</style></defs><g id="E140_Verdeck"><g id="Version_5"><path class="cls-1" d="M38.40563,11.17084a83.9937,83.9937,0,0,0-11.53046,7.01884,4.95648,4.95648,0,0,1-.76.613,2.119,2.119,0,0,1-.47.117s-6.495.84-8.744,1.313c-4.042.85-5.208,1.694-6.229,2.943-.447.547-1.162,1.49-1.16,3.969.001,1.183.372,1.764,2.123,1.825l3.96938.10168"/><path class="cls-1" d="M67,29.07138l.93617-.0032c.201-.052,4.42725.30463,4.452-1.6425a23.383,23.383,0,0,0-1.096-7.232c-.76734-1.71068-2.39682-1.41276-5.89-1.41276H25.818"/><line class="cls-1" x1="27.10455" y1="29.07136" x2="55.5" y2="29.07138"/><path class="cls-2" d="M26.19434,27.3194a4.84553,4.84553,0,0,1-9.68946,0H13a8.35012,8.35012,0,0,0,16.69922,0Z"/><path class="cls-2" d="M66.08473,27.3194a4.84553,4.84553,0,0,1-9.68946,0H52.89039a8.35012,8.35012,0,0,0,16.69922,0Z"/><path class="cls-3" d="M40.5599,12.374,38.94945,9.30936C40.45533,9.26625,42,9.29842,43.59882,9.3645a59.96274,59.96274,0,0,1,8.932.742,18.39342,18.39342,0,0,1,6.437,2.285c.642.414,5.565,3.38849,5.565,3.38849s-6.878.001-8.182,0a11.326,11.326,0,0,0-1.867-1.69849,10.66339,10.66339,0,0,0-2.705-1.077c-2.844-.618-4.886-.561-9.252-.608C42.52686,12.39648,41.39639,12.3626,40.5599,12.374Z"/></g></g></svg>