<svg xmlns="http://www.w3.org/2000/svg" viewBox="0 0 84 44"><defs><style>.cls-1{fill:none;stroke:#fff;stroke-width:3px;}.cls-2,.cls-3{fill:#fff;}.cls-3{fill-rule:evenodd;}</style></defs><g id="E141_MKE_Pause"><path class="cls-1" d="M48.45848,30.79226a18.76685,18.76685,0,0,0,1.83-4.922,18.61584,18.61584,0,0,0,.305-3.37026h-23.529a18.56956,18.56956,0,0,0,.305,3.35326,22.11254,22.11254,0,0,0,1.831,4.921A19.13181,19.13181,0,0,0,34.11948,36.5h9.159A23.24766,23.24766,0,0,0,48.45848,30.79226Z"/><path class="cls-2" d="M47.18549,34.86621,46.7959,30.999c4.37618.664,8.4498-1.68476,9.25279-2.962a3.7017,3.7017,0,0,0,.52424-3.02808,1.75576,1.75576,0,0,0-1.65879-.892A6.13989,6.13989,0,0,0,51.755,25.6965l-2.017-1.42907c1.23438-1.33887,3.14971-3.26059,5.597-2.8397a4.56972,4.56972,0,0,1,3.30762,2.34766A5.37582,5.37582,0,0,1,58.54,28.751C56.487,32.83323,48.10736,34.62305,47.18549,34.86621Z"/><path class="cls-1" d="M32.23748,17.58625a6.48247,6.48247,0,0,0,2.053-4.599c-.034-2.818-3.084-3.846-3.051-6.896a4.60082,4.60082,0,0,1,.357-1.424"/><path class="cls-1" d="M45.43248,17.58625a6.48619,6.48619,0,0,0,2.054-4.599c-.035-2.818-3.085-3.846-3.052-6.896a4.60082,4.60082,0,0,1,.357-1.424"/><path class="cls-1" d="M38.90648,17.62326a5.83193,5.83193,0,0,0,2.077-4.368c0-3.083-3.52-4.22-3.52-7.14a4.68715,4.68715,0,0,1,1.668-3.789"/><path class="cls-3" d="M39.33748,40h-14.517s.268,3,4.018,3h20.999c3.75,0,4.018-3,4.018-3Z"/></g></svg>