<svg xmlns="http://www.w3.org/2000/svg" viewBox="0 0 84 44"><defs><style>.cls-1{fill:#fff;fill-rule:evenodd;}.cls-2{fill:none;stroke:#fff;stroke-width:3px;}</style></defs><g id="E143_Daempfer"><g id="Version_2-2" data-name="Version_2"><path class="cls-1" d="M42,43.838a4.73681,4.73681,0,0,1-4.727-4.736h0V33.976h9.454v5.126h0A4.73681,4.73681,0,0,1,42,43.838ZM42,36.5a2.60151,2.60151,0,1,0,2.596,2.602A2.60207,2.60207,0,0,0,42,36.5ZM37.273,4.899V4.898a4.727,4.727,0,1,1,9.454,0v.001h0v5.125H37.273ZM42,7.5a2.60151,2.60151,0,1,0-2.596-2.602A2.60143,2.60143,0,0,0,42,7.5Z"/><path class="cls-1" d="M47.3295,35.385H36.6705V25.719h10.659Z"/><path class="cls-2" d="M35.8,10.5H48.2a.2996.2996,0,0,1,.3.3V25.2a.2996.2996,0,0,1-.3.3H35.8a.2996.2996,0,0,1-.3-.3V10.8A.2996.2996,0,0,1,35.8,10.5Z"/></g></g></svg>