<svg xmlns="http://www.w3.org/2000/svg" viewBox="0 0 84 44"><defs><style>.cls-1,.cls-2{fill:#fff;}.cls-1{opacity:0.5;}.cls-3{fill:none;stroke:#fff;stroke-miterlimit:10;stroke-width:3px;}</style></defs><g id="E156_status_charging"><path class="cls-1" d="M55.4979,9.56966V26.50154H47.05076c-5.50482,0-10.00876-2.23791-10.00876-9.00154,0-6.20938,6.07565-7.93034,10.00876-7.93034Z"/><path class="cls-2" d="M65.5,15H56V12h9.5A1.50021,1.50021,0,0,1,67,13.5v-.00049A1.50063,1.50063,0,0,1,65.5,15Z"/><path class="cls-2" d="M65.5,24H56V21h9.5A1.50021,1.50021,0,0,1,67,22.5v-.00109A1.50115,1.50115,0,0,1,65.5,24Z"/><path class="cls-2" d="M57,18V8l-9.90959.03369C40.18239,8.0337,35.5,11.73716,35.5,18c0,6.249,4.592,10,11.5,10H57ZM47,25c-3.70892,0-8.5-1.27832-8.5-7,0-5.72248,4.79108-7,8.5-7h7V25Z"/><path class="cls-3" d="M35.84276,17.5c-4.58271,0-8.80874.12256-8.80874,3.84716s4.76189,4.14437,4.76189,7.869A5.111,5.111,0,0,1,26.64958,34.555H17"/></g></svg>