<svg xmlns="http://www.w3.org/2000/svg" viewBox="0 0 84 44"><defs><style>.cls-1{fill:#fff;fill-rule:evenodd;}.cls-2{fill:none;stroke:#fff;stroke-width:2px;}</style></defs><g id="E157_ESP"><g id="Version_4-2" data-name="Version_4"><path class="cls-1" d="M60.7685,32.882c-3.19,1.234-7.112,2.458-10.302,3.569-1.075.375-1.324.91-1.288,1.605.034.576,1.347,1.533,1.874,1.856A41.27793,41.27793,0,0,0,55.6655,43h-5.898c-1.355-.653-2.286-1.719-3.893-2.763-1.132-.736-2.546-2.058-2.546-2.742,0-.848.303-1.682,2.735-2.484,3.536-1.168,5.685-1.872,8.831-3.025,2.001-.735,2.647-.838,2.647-1.825,0-.551-.864-1.41-1.918-2.238-.6-.473-1.248-1.1-2.172-1.908h3.714c1.562.818,2.131,1.142,4.28,2.428a2.7905,2.7905,0,0,1,1.576,2.181C63.0215,31.431,62.4055,32.249,60.7685,32.882Zm-34.649,3.569c-1.077.375-1.326.91-1.287,1.605.031.576,1.344,1.533,1.873,1.856A40.81884,40.81884,0,0,0,31.3185,43h-5.897c-1.363-.653-2.292-1.719-3.894-2.763-1.134-.736-2.549-2.058-2.549-2.742,0-.848.304-1.682,2.736-2.484,3.538-1.168,5.685-1.872,8.83-3.025,2.002-.735,2.65-.838,2.65-1.825,0-.551-.866-1.41-1.92-2.238-.6-.473-1.246-1.1-2.17-1.908h3.712c1.565.818,2.133,1.142,4.282,2.428a2.79943,2.79943,0,0,1,1.576,2.181c0,.807-.618,1.625-2.256,2.258C33.2315,34.116,29.3065,35.34,26.1195,36.451Z"/><path class="cls-1" d="M60.003,5.8855l-.547,2.174H57.239l2.551,1.703v11.786a1.24328,1.24328,0,0,1-1.199,1.281H53.913a1.24328,1.24328,0,0,1-1.199-1.281v-1.409H33.286v1.409a1.248,1.248,0,0,1-1.199,1.281H27.41a1.24817,1.24817,0,0,1-1.2-1.281V9.7625l2.551-1.703H26.545l-.548-2.174h3.308c.325-.47,2.509-3.465,4.221-4.075.837-.297,2.588-.64,8.754-.64h1.44c6.165,0,7.917.343,8.755.64,1.572.599,3.779,3.498,4.204,4.075Zm-5.127,1.956v-.924a10.21531,10.21531,0,0,0-3.085-3.059c-.947-.336-3.677-.514-8.071-.514H42.28c-4.395,0-7.124.178-8.111.529a8.85125,8.85125,0,0,0-3.045,3.02v2.153l-.957.638-1.921,1.283v1.021h6.361v2.09H28.246v6.577H31.25v-2.69h23.5v2.69h3.005v-6.577H51.393v-2.09h6.362v-1.021l-1.922-1.283-.957-.638Z"/><path class="cls-2" d="M30.999,8.0785h24"/></g></g></svg>