<svg xmlns="http://www.w3.org/2000/svg" viewBox="0 0 84 44"><defs><style>.cls-1{fill:#fff;}</style></defs><g id="E194_car_battery_low"><g id="Version_5"><polygon class="cls-1" points="60 33 25 33 25 31 58 31 58 14 60 14 60 33"/><polygon class="cls-1" points="65 38 31 38 31 36 63 36 63 20 65 20 65 38"/><path class="cls-1" d="M55,28H19V8H55ZM21,26H53V10H21Z"/><rect class="cls-1" x="25" y="5" width="6" height="4"/><rect class="cls-1" x="43" y="5" width="6" height="4"/><polygon class="cls-1" points="49 17 49 15 46 15 46 12 44 12 44 15 41 15 41 17 44 17 44 20 46 20 46 17 49 17"/><rect class="cls-1" x="25" y="15" width="8" height="2"/></g></g></svg>