<svg xmlns="http://www.w3.org/2000/svg" viewBox="0 0 84 44"><defs><style>.cls-1,.cls-3{fill:none;stroke:#fff;}.cls-1{stroke-width:2.5px;}.cls-2{fill:#fff;fill-rule:evenodd;}.cls-3{stroke-width:3px;}</style></defs><g id="E22E_Kreuzungsassistent"><g id="Version_3-2" data-name="Version_3"><path class="cls-1" d="M39.188,15.06h5.838c1.602,0,4.231,2.387,4.231,4.025l1.45,14.167c0,1.637-1.16,5.827-2.764,5.827H36.27c-1.604,0-2.977-4.19-2.977-5.827l1.452-14.167C34.745,17.447,37.585,15.06,39.188,15.06Z"/><path class="cls-2" d="M44.92,31.318H39.082c-.413,0-1.933-.238-1.933-.645V29.201c0-.406,1.52-.713,1.933-.713H44.92c.412,0,1.931.307,1.931.713v1.472C46.851,31.08,45.332,31.318,44.92,31.318Z"/><path class="cls-2" d="M42,22.472H40.0555a.97342.97342,0,0,1-.902-.55533L38.1185,20.171c0-.423,1.547-1.532,1.937-1.532H42"/><path class="cls-3" d="M65.38581,38c-3.091-8.11-7.784-20.024-7.784-20.024-.35667-1.14267,0-2.976,2.918-2.976h15.392"/><path class="cls-2" d="M52.6515,12.791c-.383.273-.5.357-.922.658a14.843,14.843,0,0,0-6.64-3.314l.488-1.627a16.55667,16.55667,0,0,1,7.573,3.927Zm-20.391.671-1.411-1.007a16.5924,16.5924,0,0,1,7.569-3.948l.487,1.626A14.8395,14.8395,0,0,0,32.2605,13.462Z"/><path class="cls-2" d="M56.934,10.928A21.43,21.43,0,0,0,46.847,5.446l.532-1.775A23.28842,23.28842,0,0,1,58.473,9.829S57.194,10.742,56.934,10.928ZM25.527,9.866a23.36,23.36,0,0,1,11.07-6.192l.532,1.776a21.47947,21.47947,0,0,0-10.062,5.515Z"/><path class="cls-3" d="M18.61419,38c3.091-8.11,7.784-20.024,7.784-20.024.35667-1.14267,0-2.976-2.918-2.976H8.08819"/><path class="cls-2" d="M42,18.639h1.9445c.39,0,1.937,1.109,1.937,1.532l-1.035,1.74567a.97342.97342,0,0,1-.902.55533H42"/></g></g></svg>