<svg xmlns="http://www.w3.org/2000/svg" viewBox="0 0 84 44"><defs><style>.cls-1,.cls-2{fill:#fff;}.cls-1,.cls-3{stroke:#fff;}.cls-1{stroke-miterlimit:10;stroke-width:0.4px;}.cls-1,.cls-2,.cls-3{fill-rule:evenodd;}.cls-3{stroke-width:2.3px;}</style></defs><g id="E266_aLDW"><g id="Version_5"><path class="cls-1" d="M60.429,20.1605,64,22.26316v15.202C64,38.43416,62.924,39,62.178,39H56.5A1.50386,1.50386,0,0,1,55,37.4515V36H29v1.4515A1.52523,1.52523,0,0,1,27.47368,39H21.546A1.5424,1.5424,0,0,1,20,37.4515V22.2632l3.698-2.1027H26.63V21L22,23.7265V25h9v2H22V37h5V34H57v3h5V27H53V25h9V23.7265L57.37,21v-.8395Z"/><path class="cls-2" d="M57.37,21V18.7605c-1.282-1.791-3.204-3.92-3.992-4.211-1.226-.412-4.759-.63-10.447-.63H41.069c-5.689,0-9.221.218-10.498.649-.76.256-2.582,2.192-3.941,4.162V21l-2.932-.8395H20.703l-.709-2.666h4.279c.404-.599,3.073-4.427,5.296-5.178,1.083-.365,3.35-.661,11.331-.661h1.862c7.979,0,10.247.296,11.332.661,2.045.738,5.091,4.43,5.618,5.178h4.294l-.708,2.666H60.429Z"/><path class="cls-3" d="M26,19.993H58"/><path class="cls-2" d="M17.976,11.986H16.015l2.328-7.001h1.578ZM14.879,23.989l-3.171-.031,3.38-9.94h2.351ZM11.151,39,7,38.993l4.02-11.986h3.087Z"/><path class="cls-2" d="M72.849,39,69.893,27.014H72.98L76.983,39ZM66.561,14.018h2.351l3.38,9.94-3.171.031ZM64.079,4.985h1.578l2.328,7.001H66.024Z"/></g></g></svg>