<svg xmlns="http://www.w3.org/2000/svg" viewBox="0 0 84 44"><defs><style>.cls-1{fill:#fff;}.cls-2,.cls-3{fill:none;stroke:#fff;}.cls-2{stroke-linejoin:bevel;stroke-width:3.2px;}.cls-3{stroke-miterlimit:10;stroke-width:3px;}</style></defs><g id="neu"><path class="cls-1" d="M24.4248,13.41408a10.84,10.84,0,0,1-1.59951-3.10263.74769.74769,0,0,1,.36186-.93571,10.06526,10.06526,0,0,1,1.21931-.48361,8.99973,8.99973,0,0,1,2.63026-.43024,9.44454,9.44454,0,0,1,2.61163.43667,8.74849,8.74849,0,0,1,1.21618.48672.75276.75276,0,0,1,.365.94183,10.736,10.736,0,0,1-1.61225,3.08694s-1.72977-.12251-2.5869-.12251c-.87574,0-2.60554.12251-2.60554.12251"/><path class="cls-1" d="M24.27036,19.754c-.3371.00292-.61027.38971-.61376.869l.00483,2.73923.0001.01094c.00626.47523.28226.85326.61647.84436l5.40219-.02833q.00694.00018.01388.00016c.33384-.00157.60357-.38766.60247-.86237l-.01-2.736v-.00187c-.00169-.47755-.27531-.86273-.61115-.86033Z"/><path class="cls-2" d="M26.58768,1.78756a16.48288,16.48288,0,0,0-4.51822.66123,2.6481,2.6481,0,0,0-1.66867,2.30443c-.04949.512-.225,2.47267-.29309,6.14892-.0476,2.21008-.09708,5.66763.0391,10.17991l.12394,4.46411a2.19549,2.19549,0,0,0,2.08379,2.08307c.76807.10083,2.2963.197,2.61015.197l.54513.00673,1.14889.002h.75572c.00822,0,.54726-.00423.54726-.00423.33666.00224,2.844-.0919,3.62258-.19048a2.20624,2.20624,0,0,0,2.07958-2.116c.15479-3.1665.29119-7.06167.29119-11.00053,0-3.37216-.09915-6.777-.37177-9.7815a2.61747,2.61747,0,0,0-1.66441-2.28672,10.22454,10.22454,0,0,0-3.51691-.67627H26.8382C26.75227,1.7747,26.58768,1.78756,26.58768,1.78756Z"/><path class="cls-1" d="M54.37,41.29a10.83976,10.83976,0,0,1-1.59951-3.10263.74769.74769,0,0,1,.36186-.93571,10.06741,10.06741,0,0,1,1.2193-.48361,8.9995,8.9995,0,0,1,2.63027-.43023,9.44373,9.44373,0,0,1,2.61162.43667,8.74861,8.74861,0,0,1,1.21619.48672.75277.75277,0,0,1,.365.94182,10.73633,10.73633,0,0,1-1.61225,3.087s-1.72978-.12251-2.5869-.12251c-.87575,0-2.60554.12251-2.60554.12251"/><path class="cls-2" d="M63.89832,43.95005q.00669-.773.00682-1.55133c0-3.37216-.09915-6.777-.37177-9.7815A2.61745,2.61745,0,0,0,61.869,30.3305a10.22444,10.22444,0,0,0-3.5169-.67627H56.78832c-.08594-.00451-.25053.00835-.25053.00835a16.48294,16.48294,0,0,0-4.51822.66123,2.6481,2.6481,0,0,0-1.66867,2.30443c-.04949.512-.225,2.47267-.29309,6.14891-.02819,1.30917-.05705,3.05607-.04758,5.20063"/><path class="cls-3" d="M34.66125,32.93091a4.24568,4.24568,0,0,0,4.24567-4.24561"/><path class="cls-3" d="M34.66125,38.6853a10,10,0,0,0,10-10"/></g></svg>