<svg xmlns="http://www.w3.org/2000/svg" viewBox="0 0 84 44"><defs><style>.cls-1,.cls-2{fill:#fff;}.cls-1{fill-rule:evenodd;}</style></defs><g id="E270_Ortungsassistent"><g id="Version_4-2" data-name="Version_4"><path class="cls-1" d="M48.313,27.3015h.981L49.733,25H46.617l-.197-.2505c-.714-1.113-3.211-4.799-5.381-5.52a93.36537,93.36537,0,0,0-10.002-.364,91.66985,91.66985,0,0,0-10.048.376c-2.122.709-4.62,4.395-5.334,5.508L15.459,25H12.343l.439,2.3015h.98l-1.427.857V40.514A2.37745,2.37745,0,0,0,14.818,43h4.999a2.58324,2.58324,0,0,0,2.484-2.486v-.0965H39.774v.0965A2.58324,2.58324,0,0,0,42.258,43h4.999a2.3769,2.3769,0,0,0,2.483-2.486V28.1585ZM17.955,26c1.217-1.816,2.954-4.1295,3.627-4.3665a84.59536,84.59536,0,0,1,9.455-.296,88.21165,88.21165,0,0,1,9.404.282c.724.251,2.463,2.5645,3.679,4.3805H17.955ZM20,38v3c-.012.026-.221-.002-.183,0H14.803V33H21V30.4175H14.803v-.858L17.036,28H45.039l2.232,1.5595v.858H41V33h6.271v8H42.323c-.02-.009-.305,0-.323,0-.006,0,0-.01,0,0V38Z"/><path class="cls-1" d="M65.3365,4.5a3.6635,3.6635,0,1,1,3.663,3.668A3.66473,3.66473,0,0,1,65.3365,4.5Z"/><g id="Konzentrisch_2"><path class="cls-2" d="M63.75946,14.29613l1.70227-2.50507a8.3551,8.3551,0,0,1-4.79962-7.55133A9.05552,9.05552,0,0,1,60.757,3H57.72571a12.3808,12.3808,0,0,0-.0636,1.23973A11.35847,11.35847,0,0,0,63.75946,14.29613Z"/><path class="cls-2" d="M59.54126,20.50359l1.68585-2.4809a15.84876,15.84876,0,0,1-8.04742-13.783c0-.402.0307-.84514.06024-1.23973h-3c-.0249.39587-.06024.8377-.06024,1.23973A18.84139,18.84139,0,0,0,59.54126,20.50359Z"/><path class="cls-2" d="M46.14453,4.23973c0-.39947.01068-.8452.03095-1.23973h-3.0008c-.01794.39508-.03015.84032-.03015,1.23973a25.90183,25.90183,0,0,0,12.423,22.11158L57.25641,23.866A22.90094,22.90094,0,0,1,46.14453,4.23973Z"/></g></g></g></svg>