<svg xmlns="http://www.w3.org/2000/svg" viewBox="0 0 84 44"><defs><style>.cls-1,.cls-3{fill:#fff;}.cls-2{fill:none;stroke:#fff;stroke-width:2.5px;}.cls-3{fill-rule:evenodd;}</style></defs><g id="E273_ARA_off"><g id="Version_4-2" data-name="Version_4"><path class="cls-1" d="M41.99952,33.90194A4.09806,4.09806,0,1,0,46.1,38.00048,4.10337,4.10337,0,0,0,41.99952,33.90194Zm2.11175,4.09854a2.11176,2.11176,0,1,1-2.11175-2.11078A2.11338,2.11338,0,0,1,44.11127,38.00048Z"/><path class="cls-1" d="M52,33.90145a4.09855,4.09855,0,1,0,4.1,4.099A4.10386,4.10386,0,0,0,52,33.90145Zm2.112,4.099A2.112,2.112,0,1,1,52,35.88945,2.11364,2.11364,0,0,1,54.112,38.00048Z"/><path class="cls-2" d="M31,35V27"/><path class="cls-3" d="M31.00952,1.5A11.5,11.5,0,1,0,42.5,13.0015,11.53774,11.53774,0,0,0,31.00952,1.5ZM27.97875,14.20966a3.031,3.031,0,1,1,3.02376,3.13458A3.10434,3.10434,0,0,1,27.97875,14.20966ZM39.54141,9.45218c-.07218.12221-.25766.54782-.49627.54782H22.97191c-.23862,0-.42409-.42561-.49628-.54782a.29946.29946,0,0,1,.012-.29754l.007-.013a9.34225,9.34225,0,0,1,17.03771.019A.28985.28985,0,0,1,39.54141,9.45218Zm-2.17057,3.61544v-.46783l2.38312.003c.35892,0,.59452,0,.60154.59907A9.32484,9.32484,0,0,1,39.36,17.214l-.04111.08515c-.20152.44179-.52535.60408-.761.42476l-1.92294-1.681A6.31925,6.31925,0,0,0,37.37084,13.06762ZM25.37607,16.04393l-1.90288,1.669a.36072.36072,0,0,1-.30478.07714.8319.8319,0,0,1-.47121-.48987l-.04211-.09317a9.29062,9.29062,0,0,1-.99655-3.99412c.008-.61009.24663-.61009.60655-.61009l2.3781-.003-.002.46883A6.42008,6.42008,0,0,0,25.37607,16.04393Zm.15139,4.52306a.35431.35431,0,0,1-.14537-.26347c-.005-.18934.15339-.43778.48023-.75635l1.46275-1.28128a6.35178,6.35178,0,0,0,7.3669,0l1.45172,1.27126c.33787.32659.49828.577.49227.76737a.36229.36229,0,0,1-.1554.26848l-.02306.024-.03108.027a9.33231,9.33231,0,0,1-10.82978.003l-.03208-.023-.09926.07713.09424-.08214Z"/><path class="cls-2" d="M45,14h5"/><path class="cls-3" d="M70.4325,6.07262V9.58571h4.38v1.07164h-4.38V15h-1.32V5h6.078V6.07262Zm-7.103,3.51309h4.38v1.07164h-4.38V15h-1.32V5h6.078V6.07262h-4.758Z"/><path class="cls-3" d="M59.86359,12.67182a4.46234,4.46234,0,0,1-.56468,1.04515,3.37672,3.37672,0,0,1-.82126.79749,3.78754,3.78754,0,0,1-1.09963.50821,5.60056,5.60056,0,0,1-2.78476.003,3.699,3.699,0,0,1-1.09469-.50226,3.4065,3.4065,0,0,1-.81333-.79055,4.386,4.386,0,0,1-.55478-1.04119,6.11448,6.11448,0,0,1-.319-1.25418,9.53825,9.53825,0,0,1-.102-1.42755,9.37852,9.37852,0,0,1,.104-1.42359,6.14084,6.14084,0,0,1,.322-1.25517A4.453,4.453,0,0,1,52.69613,6.283a3.37323,3.37323,0,0,1,.82027-.79749,3.74837,3.74837,0,0,1,1.09568-.50722A5.03865,5.03865,0,0,1,56.00594,4.8a5.11155,5.11155,0,0,1,1.39288.17535,3.65582,3.65582,0,0,1,1.09765.50227,3.36381,3.36381,0,0,1,.81631.79055,4.29065,4.29065,0,0,1,.55676,1.04218,6.14724,6.14724,0,0,1,.32,1.25418,9.50472,9.50472,0,0,1,.10105,1.42556,9.40765,9.40765,0,0,1-.103,1.42557A6.05453,6.05453,0,0,1,59.86359,12.67182ZM58.866,8.87659a5.36024,5.36024,0,0,0-.21992-.99067,3.71954,3.71954,0,0,0-.3824-.82522,2.50035,2.50035,0,0,0-.55477-.6261,2.37147,2.37147,0,0,0-.749-.39924,3.36756,3.36756,0,0,0-1.913,0,2.39806,2.39806,0,0,0-.74993.39924,2.51481,2.51481,0,0,0-.55874.6261,3.67734,3.67734,0,0,0-.38339.82522,5.28171,5.28171,0,0,0-.21893.99067,9.28144,9.28144,0,0,0,0,2.24881,5.27485,5.27485,0,0,0,.21893.99165,3.7312,3.7312,0,0,0,.38339.82423,2.48044,2.48044,0,0,0,.55874.6261,2.43952,2.43952,0,0,0,.74993.39924,3.32864,3.32864,0,0,0,1.915,0,2.424,2.424,0,0,0,.747-.39924,2.46629,2.46629,0,0,0,.55477-.6261,3.77466,3.77466,0,0,0,.3824-.82423,5.353,5.353,0,0,0,.21992-.99165,9.02213,9.02213,0,0,0,0-2.24881Z"/><path class="cls-2" d="M21,35H35a.94949.94949,0,0,0,.90145-.39465L37.56881,31.938S38,31,40,31H54c2,0,2.43119.938,2.43119.938l1.66736,2.66735A.94949.94949,0,0,0,59,35h2a2,2,0,0,0,2-2V18"/></g></g></svg>