<svg xmlns="http://www.w3.org/2000/svg" viewBox="0 0 84 44"><defs><style>.cls-1,.cls-3{fill:#fff;}.cls-1{fill-rule:evenodd;}.cls-2{fill:none;stroke:#fff;stroke-width:2px;}</style></defs><g id="E277_Aussensound_defekt"><g id="Version_6"><polygon class="cls-1" points="61.723 7.274 66.672 7.274 66.672 8.505 61.723 8.505 61.723 13.491 60.233 13.491 60.233 2.009 67.098 2.009 67.098 3.24 61.723 3.24 61.723 7.274"/><polygon class="cls-1" points="69.597 7.274 74.545 7.274 74.545 8.505 69.597 8.505 69.597 13.491 68.106 13.491 68.106 2.009 74.972 2.009 74.972 3.24 69.597 3.24 69.597 7.274"/><path class="cls-1" d="M58.21552,6.362a6.96526,6.96526,0,0,0-.365-1.43,4.911,4.911,0,0,0-.635-1.189,3.83618,3.83618,0,0,0-.931-.902,4.22066,4.22066,0,0,0-1.251-.573,5.84507,5.84507,0,0,0-1.589-.199,5.75352,5.75352,0,0,0-1.588.203,4.29231,4.29231,0,0,0-1.251.579,3.79217,3.79217,0,0,0-.934.91,5.05,5.05,0,0,0-.64,1.194,7.02041,7.02041,0,0,0-.367,1.433,10.68253,10.68253,0,0,0-.119,1.623,10.88553,10.88553,0,0,0,.117,1.629,7.01075,7.01075,0,0,0,.364,1.43,4.99824,4.99824,0,0,0,.632,1.187,3.85768,3.85768,0,0,0,.928.901,4.16093,4.16093,0,0,0,1.247.573,6.35814,6.35814,0,0,0,3.176-.003,4.32355,4.32355,0,0,0,1.254-.579,3.88853,3.88853,0,0,0,.936-.91,5.08871,5.08871,0,0,0,.644-1.192,7.00343,7.00343,0,0,0,.37-1.433,11.45409,11.45409,0,0,0,.002-3.252Zm-1.509,2.921a6.1099,6.1099,0,0,1-.251,1.131,4.29522,4.29522,0,0,1-.436.94,2.81214,2.81214,0,0,1-.633.715,2.76087,2.76087,0,0,1-.852.454,3.78011,3.78011,0,0,1-2.183,0,2.77692,2.77692,0,0,1-.855-.454,2.82653,2.82653,0,0,1-.637-.715,4.25275,4.25275,0,0,1-.437-.94,6.03232,6.03232,0,0,1-.25-1.131,10.58128,10.58128,0,0,1,0-2.565,6.0577,6.0577,0,0,1,.25-1.13,4.21867,4.21867,0,0,1,.437-.941,2.85549,2.85549,0,0,1,.637-.714,2.71556,2.71556,0,0,1,.855-.455,3.819,3.819,0,0,1,2.181,0,2.68862,2.68862,0,0,1,.854.455,2.84082,2.84082,0,0,1,.633.714,4.26044,4.26044,0,0,1,.436.941,6.13618,6.13618,0,0,1,.251,1.13,10.31748,10.31748,0,0,1,0,2.565Z"/><path class="cls-2" d="M29,15l-2.0115,1.3562L22,20V3l7,5h5v7Z"/><path class="cls-3" d="M16.31641,11.50391A6.53184,6.53184,0,0,1,18.40918,6.7334l.2959-.27246L17.34082,4.99023l-.29.27442a8.477,8.477,0,0,0-.00488,12.47558l.293.27247,1.36133-1.46485-.293-.27539A6.531,6.531,0,0,1,16.31641,11.50391Z"/><path class="cls-3" d="M10.88281,11.50391A9.96706,9.96706,0,0,1,14.0791,4.2207l.29688-.27148L13.01074,2.47656l-.29.27442a11.89172,11.89172,0,0,0-.00488,17.50293l.292.26953,1.36231-1.46485-.294-.27343A9.97384,9.97384,0,0,1,10.88281,11.50391Z"/><path class="cls-3" d="M32.61808,39.10583h20.318l.06348.13721a6.4733,6.4733,0,0,0,11.6991-.01493l.06347-.13254.14748-.00374c1.85091-.04293,4.063-.50776,4.09011-2.47908a20.04881,20.04881,0,0,0-.93152-6.16224c-.67484-2.28961-2.20933-2.50989-3.69342-2.7227a18.9477,18.9477,0,0,1-1.89665-.34722,23.19237,23.19237,0,0,1-4.09572-1.90131,28.182,28.182,0,0,0-6.24157-2.7395c-3.545-.80552-10.17115-.98566-13.7339-.0196-2.52295.6823-4.93017,2.83657-6.68867,4.40933-.4443.39949-.90539.813-1.317,1.14713l-.36683.31642-.0728.00934c-.0504.00653-5.23912.67857-7.07883,1.065-3.46568.729-4.67162,1.53822-5.68341,2.7759A5.62439,5.62439,0,0,0,16,36.38313c.00187,1.73424.90819,2.57336,2.85244,2.63963l1.92839.04947.06253.13254a6.47461,6.47461,0,0,0,11.71218.03734Zm26.22825,1.48969a4.19722,4.19722,0,0,1-4.13118-3.83343H30.839a4.14225,4.14225,0,0,1-8.26144,0h-.5339l-3.11939-.08027a3.74512,3.74512,0,0,1-.37428-.02894l-.20722-.028v-.24361a3.32069,3.32069,0,0,1,.66924-2.45482c.60577-.743,1.27221-1.31888,4.35427-1.96665,1.65956-.34909,6.40492-.97072,6.94068-1.04073l.11668-.0196a2.04729,2.04729,0,0,0,1.2302-.61137l.23615-.20535c.42376-.34162.91566-.78218,1.39169-1.20687,1.584-1.41782,3.75316-3.35927,5.73848-3.8969,3.19126-.86432,9.39456-.686,12.59983.04387a27.26717,27.26717,0,0,1,5.65634,2.52108,23.5551,23.5551,0,0,0,4.64548,2.11413,20.9693,20.9693,0,0,0,2.11133.38549c1.39448.20068,1.54009.22215,1.7893,1.06873a17.68051,17.68051,0,0,1,.83445,5.21485l.00187.168-.15868.05787a6.1911,6.1911,0,0,1-2.00492.20348h-.04667a2.581,2.581,0,0,0-.26228.00467l-1.20874.00093A4.19722,4.19722,0,0,1,58.84633,40.59552Z"/></g></g></svg>