<?xml version="1.0" encoding="UTF-8"?><svg id="a" xmlns="http://www.w3.org/2000/svg" viewBox="0 0 40 40"><defs><style>.d,.e{fill:#fff;}.e{opacity:.3;}</style></defs><g id="b"><g id="c"><path class="d" d="M8.79107,22.28678c-.1625-.00031-.32176,.04551-.45925,.13213-.18615,.11193-.31767,.29591-.36334,.50826-.04311,.20185-.00151,.41254,.11508,.58285l.8226,1.23176c.26141,.37824,.77436,.48346,1.16357,.23868,.18448-.11328,.3149-.29679,.36123-.50826,.0435-.20472,.00155-.41833-.11615-.59138l-.81834-1.22532c-.1593-.23243-.42362-.37059-.70539-.36872Z"/><path class="d" d="M10.27289,17.98723c-.16214-.00018-.32106,.04528-.45859,.13118-.18556,.11361-.31656,.29819-.36257,.51084-.04279,.20217-.00077,.41304,.11624,.58337l.8244,1.22859c.25963,.37939,.7731,.48501,1.16139,.23889,.18603-.11183,.31763-.29553,.36366-.50765,.04353-.20353,.0015-.41601-.11625-.58763l-.82124-1.2275c-.15927-.2335-.42441-.37228-.70704-.37009Z"/><path class="d" d="M5.29916,17.98725c-.1601-.00083-.31712,.04398-.45266,.12919-.18706,.11377-.3191,.29946-.36514,.51351-.04319,.20155-.00149,.412,.1153,.58185l.82419,1.22988c.26111,.37871,.77438,.48419,1.16368,.23914,.18689-.11169,.3194-.29556,.36623-.50818,.04358-.20374,.0015-.41644-.11636-.58824l-.82526-1.22988c-.16099-.23272-.42702-.37033-.70998-.36726Z"/><path class="d" d="M15.30879,17.98724c-.16237-.00043-.32162,.04465-.45968,.13012-.18584,.11382-.3169,.29885-.36259,.51194-.04326,.20169-.0016,.41229,.11519,.58233l.82657,1.23292c.26225,.37749,.77554,.48099,1.16359,.23463,.1846-.11174,.315-.29461,.36048-.50554,.04306-.20272,.00145-.41422-.11519-.58553l-.82232-1.23401c-.1597-.23209-.42434-.3696-.70605-.36686Z"/><path class="d" d="M13.64493,22.28768c-.16075-.00097-.31841,.04418-.45428,.1301-.18596,.1114-.31757,.29473-.36364,.50655-.04496,.20273-.00405,.41502,.11303,.58652l.82322,1.23172c.26181,.37827,.77495,.48353,1.16454,.23888,.1846-.1134,.3151-.29705,.36146-.50868,.04294-.20338,.00136-.41547-.11517-.58759l-.82114-1.23172c-.16096-.23154-.42603-.36849-.70801-.36578Z"/><path class="d" d="M27.55586,15.9849c-.8098-.01236-1.61671,.09992-2.39283,.33298-.35768,.12163-.6435,.39652-.78059,.75072-.99439,2.30745-1.51618,4.79322-1.53414,7.3085,.01117,2.49324,.53237,4.95742,1.5311,7.23885,.13589,.358,.42372,.636,.7846,.75778,2.72955,.87686,6.4461-.24015,7.16356-.4722,1.92323-.56136,3.72095-1.49082,5.29475-2.73752,2.6417-2.03698,3.14338-5.84477,1.12054-8.50493-.32255-.42417-.69932-.80357-1.12054-1.12837h0c-1.56863-1.25548-3.36794-2.1868-5.29475-2.74056-1.54417-.49668-3.15109-.76786-4.7717-.80526Zm.21511,14.89842c-.52276,.00668-1.04449-.04828-1.55456-.16375l-.14828-.03661-.05644-.14257c-.80334-1.96595-1.23455-4.06583-1.27139-6.19139,.04077-2.1056,.46355-4.18595,1.24749-6.1384l.08946-.19871,.13535-.03538c1.88011-.30129,3.80531-.12005,5.59738,.52695,1.63331,.477,3.16285,1.25937,4.50871,2.30624,1.11234,.84126,1.77139,2.15682,1.78225,3.55762-.00849,1.39121-.66972,2.69647-1.78321,3.52005-1.35028,1.03842-2.87762,1.81967-4.50677,2.30525-1.30429,.43429-2.66638,.66717-4.03992,.69072h-.00006Z"/><path class="d" d="M9.4374,3.15406c-2.78494,.0621-5.14051,2.07779-5.63233,4.81966l-.03681,.1731-.17507,.02487c-.9271,.11227-1.79014,.53102-2.45209,1.18977C.43447,10.09388,.04337,11.07428,.05184,12.09198c-.00561,1.00443,.36813,1.97397,1.04648,2.71474,.83076,.77315,1.95021,1.1581,3.08077,1.05938h12.29524c1.22564,.11383,2.45504-.17423,3.50254-.82067,.78929-.54412,1.2759-1.42849,1.31309-2.38644-.00672-.77044-.37189-1.49379-.9878-1.9567-.39961-.29912-.85634-.51309-1.34193-.62868l-.23576-.05969,.04874-.23874c.04316-.20373,.0645-.41148,.06366-.61974-.00942-.93806-.4387-1.82254-1.16985-2.4103-.94644-.72478-2.13007-1.06868-3.31753-.96392l-.13827,.00697-.13827-.11042c-1.02697-1.54074-2.7416-2.48292-4.59279-2.52371-.01492,0-.03183,.00099-.04278,0Zm6.62248,10.84005H4.64259c-.61613,.06645-1.23183-.12896-1.69688-.53854h0c-.3842-.42435-.59488-.9776-.59024-1.55001-.00817-.56862,.20747-1.11768,.60042-1.52877,.37299-.36375,.85672-.59261,1.37451-.6503l1.2304-.1792,.25031-1.16944c.29712-1.85385,1.84732-3.24923,3.7221-3.35037h.05244c1.21536,.07137,2.32095,.72677,2.96684,1.75877l.57917,.81103,1.0198-.0702c.71081-.0884,1.42824,.10196,2.00172,.53114,.34159,.27337,.54454,.68401,.55424,1.12141-.00074,.09639-.01002,.19252-.02772,.28728l-.33069,1.59435,1.6313,.4046c.23895,.05478,.46429,.15754,.66232,.30205,.20565,.15744,.33084,.39801,.34177,.65677-.02894,.43371-.2616,.82809-.62721,1.06319-.69382,.40529-1.49743,.58237-2.29734,.50623Z"/><path class="d" d="M22.46304,32.51748c-.02868-.05634-.10046-.20209-.19842-.42853l-5.85232,4.86725h2.32251l4.31069-3.56391c-.23473-.26245-.43086-.55701-.58246-.87481Z"/><path class="d" d="M21.0935,27.91997l-10.77882,9.03623h2.32251l8.80931-7.37125c-.12723-.49823-.24829-1.05475-.353-1.66498Z"/><path class="d" d="M20.8721,24.43267l-.002-.05664,.002-.05567c.01551-.55682,.05036-1.08795,.09864-1.59472L4.2121,36.9562h2.32251l14.35258-12.19632c-.00464-.10968-.0119-.21552-.0151-.32721Z"/></g></g><path class="e" d="M28.09447,16.95703c-.73612-.01116-1.46961,.0902-2.17511,.30058-.32513,.10979-.58495,.35794-.70957,.67768-.90391,2.08294-1.37823,4.32686-1.39455,6.59741,.01015,2.25066,.48393,4.47509,1.39179,6.53454,.12352,.32317,.38517,.57412,.71321,.68405,2.4812,.79155,5.85959-.21678,6.51177-.42626,1.74824-.50674,3.3824-1.34577,4.813-2.47117,2.40134-1.83879,2.85737-5.27609,1.01858-7.67743-.2932-.3829-.63569-.72539-1.01858-1.01858h0c-1.4259-1.13332-3.0615-1.97403-4.813-2.47391-1.40368-.44836-2.86438-.69315-4.33754-.72691Z"/></svg>