<?xml version="1.0" encoding="UTF-8"?><svg id="a" xmlns="http://www.w3.org/2000/svg" viewBox="0 0 40 40"><defs><style>.c{fill:#fff;}.d{fill:none;stroke:#fff;stroke-miterlimit:10;stroke-width:2.8px;}</style></defs><g id="b"><path class="d" d="M14.95425,37.6534C5.17249,34.54689-.23887,24.09889,2.86764,14.31714c1.81899-5.72764,6.29549-10.22207,12.0158-12.06396,2.06817,5.70577,3.12289,11.72918,3.11653,17.79821,.00602,5.99895-1.02438,11.95386-3.04573,17.60201Z"/></g><rect class="c" x="23" y="10" width="16" height="2"/><rect class="c" x="23" y="19" width="16" height="2"/><rect class="c" x="23" y="28" width="16" height="2"/><path class="c" d="M29.07715,10.58722l.12402,.31885,.69727,1.02246,.17383,.50586c.33887,.95361,.53125,1.95117,.57031,2.87842-.03223,1.04004-.22656,2.06641-.57617,3.04688l-.18848,.52246-.58887,.87012-.25195,.5708c-.53809,1.38428-.83887,2.83838-.89648,4.32373l-.00195,.05566,.00293,.05566c.06641,1.32129,.35156,2.61426,.83691,3.81543l.1875,.49414,.67578,.88379,.17871,.48438c.38574,1.11328,.60059,2.27441,.6377,3.39648-.0166,1.30762-.43555,2.55566-1.21289,3.6084l-.06934,.09863c-.17188,.24414-.83073,1.14288-1.01139,1.41339h3.07316l.01929-.02765c1.08984-1.47656,1.67773-3.22656,1.7002-5.11719-.0459-1.43066-.30664-2.83984-.78223-4.21191l-.31641-.86328-.68555-.89453-.06641-.1748c-.38379-.95117-.60742-1.95215-.66602-2.97656,.05176-1.1875,.29688-2.35156,.73047-3.46875l.66504-1.06445,.38379-.95068c.43848-1.229,.68066-2.51221,.7207-3.8999-.04883-1.26709-.28906-2.51465-.70898-3.69385l-.29297-.85303-.66699-.90967-.06738-.17383c-.44238-1.11426-.71484-2.28418-.80859-3.47803,.04785-1.61182,1.60068-3.99298,2.67881-5.19464h-2.83922c-1.48926,1.66113-2.29272,2.96954-2.34057,5.20001l-.00098,.05908,.00391,.05908c.1084,1.46826,.43945,2.90771,.97949,4.26904Z"/></svg>