<?xml version="1.0" encoding="UTF-8"?><svg id="a" xmlns="http://www.w3.org/2000/svg" viewBox="0 0 40 40"><defs><style>.d{fill:#fff;}.e{fill:none;stroke:#fff;stroke-miterlimit:10;stroke-width:2.8px;}</style></defs><g id="b"><g id="c"><path class="e" d="M25.54776,2.32195c9.22843,3.08564,14.33368,13.46346,11.4029,23.17951-1.71609,5.68917-5.93937,10.15341-11.33609,11.98292-1.95118-5.66744-2.94623-11.65039-2.94023-17.67866-.00568-5.95865,.96643-11.87356,2.87344-17.48377h-.00001Z"/></g><path class="d" d="M10.40449,29.35089l-.12319-.31671-.69259-1.01559-.17266-.50246c-.33659-.9472-.52768-1.93806-.56648-2.85908,.03201-1.03305,.22504-2.05253,.5723-3.02641l.18721-.51895,.58491-.86427,.25026-.56697c.53448-1.37498,.83323-2.81931,.89046-4.29469l.00194-.05529-.00291-.05529c-.06596-1.31242-.3492-2.5967-.83129-3.7898l-.18624-.49082-.67124-.87785-.17751-.48113c-.38315-1.1058-.59656-2.25913-.63342-3.37366,.01649-1.29884,.43263-2.53849,1.20474-3.58416l.06887-.09797c.17073-.2425,.82515-1.1352,1.0046-1.4039h-3.05252l-.01916,.02746c-1.08252,1.46664-1.66646,3.20489-1.68878,5.08282,.04559,1.42105,.30458,2.82076,.77698,4.18362l.31428,.85748,.68095,.88852,.06596,.17363c.38121,.94478,.60334,1.93904,.66155,2.95657-.05141,1.17952-.29489,2.33576-.72556,3.44545l-.66057,1.0573-.38121,.94429c-.43554,1.22074-.67609,2.49533-.71586,3.8737,.0485,1.25858,.28712,2.49776,.70422,3.66904l.291,.8473,.66251,.90356,.06693,.17266c.43941,1.10678,.71004,2.26884,.80316,3.45467-.04753,1.60099-1.58993,3.96616-2.66082,5.15975h2.82015c1.47926-1.64997,2.27732-2.94959,2.32485-5.16508l.00097-.05868-.00388-.05868c-.10767-1.4584-.4365-2.88818-.97291-4.24037Z"/><polygon class="d" points="1 17.03247 17 7.29755 17 4.97217 1 14.70709 1 17.03247"/><polygon class="d" points="1 27.8033 17 18.06838 17 15.743 1 25.47793 1 27.8033"/><polygon class="d" points="1 38.57414 17 28.83921 17 26.51383 1 36.24876 1 38.57414"/></g></svg>