<svg xmlns="http://www.w3.org/2000/svg" viewBox="0 0 84 44"><defs><style>.cls-1{fill:#fff;}.cls-1,.cls-2{fill-rule:evenodd;}.cls-2{stroke:#fff;stroke-width:2px;}</style></defs><g id="E2EB_aLDW_off"><g id="Version_3"><path class="cls-1" d="M64.004,22.227l-.708,2.666H60.427l3.302,2.089V42.184a1.56659,1.56659,0,0,1-1.553,1.571H56.123a1.56659,1.56659,0,0,1-1.553-1.571V40.706H29.426v1.478a1.56634,1.56634,0,0,1-1.552,1.571H21.82a1.56634,1.56634,0,0,1-1.552-1.571V26.982l3.428-2.089H20.701l-.709-2.666h4.279c.404-.599,3.242-4.705,5.465-5.456,1.083-.365,3.35-.661,11.331-.661h1.862c7.979,0,10.247.296,11.332.661,2.045.738,4.922,4.708,5.449,5.456Zm-6.636,2.398V23.493c-1.282-1.791-3.204-3.92-3.992-4.211-1.226-.412-4.759-.63-10.447-.63H41.067c-5.689,0-9.221.218-10.498.649-.76.256-2.582,2.192-3.941,4.162v2.64l-1.238.783-2.737,1.573v1.094h8.483v2.112H22.653v9.959h4.138V38.415H57.205v3.209h4.139V31.665H52.861V29.553h8.483V28.459l-2.737-1.573-1.239-.783Z"/><path class="cls-2" d="M26,24.993H58"/><path class="cls-1" d="M17.976,16.986H16.015l2.328-7.001h1.578ZM14.879,28.989l-3.171-.031,3.38-9.94h2.351ZM11.151,44H7.017L11.02,32.014h3.087Z"/><path class="cls-1" d="M72.849,44,69.893,32.014H72.98L76.983,44ZM66.561,19.018h2.351l3.38,9.94-3.171.031ZM64.079,9.985h1.578l2.328,7.001H66.024Z"/><polygon id="F" class="cls-1" points="50.597 5.979 55.545 5.979 55.545 7.21 50.597 7.21 50.597 12.196 49.106 12.196 49.106 0.714 55.972 0.714 55.972 1.945 50.597 1.945 50.597 5.979"/><polygon id="F-2" data-name="F" class="cls-1" points="42.723 5.979 47.672 5.979 47.672 7.21 42.723 7.21 42.723 12.196 41.233 12.196 41.233 0.714 48.098 0.714 48.098 1.945 42.723 1.945 42.723 5.979"/><path id="O" class="cls-1" d="M39.21552,4.8172a6.96526,6.96526,0,0,0-.365-1.43,4.911,4.911,0,0,0-.635-1.189,3.83618,3.83618,0,0,0-.931-.902,4.22039,4.22039,0,0,0-1.251-.573,5.84467,5.84467,0,0,0-1.589-.199,5.75352,5.75352,0,0,0-1.588.203,4.29231,4.29231,0,0,0-1.251.579,3.79217,3.79217,0,0,0-.934.91,5.05,5.05,0,0,0-.64,1.194,7.02041,7.02041,0,0,0-.367,1.433,10.68253,10.68253,0,0,0-.119,1.623,10.88553,10.88553,0,0,0,.117,1.629,7.01075,7.01075,0,0,0,.364,1.43,4.99824,4.99824,0,0,0,.632,1.187,3.85768,3.85768,0,0,0,.928.901,4.16093,4.16093,0,0,0,1.247.573,6.35814,6.35814,0,0,0,3.176-.003,4.32355,4.32355,0,0,0,1.254-.579,3.88853,3.88853,0,0,0,.936-.91,5.08851,5.08851,0,0,0,.644-1.192,7.00326,7.00326,0,0,0,.37-1.433,10.87521,10.87521,0,0,0,.117-1.626A10.98276,10.98276,0,0,0,39.21552,4.8172Zm-1.509,2.921a6.1099,6.1099,0,0,1-.251,1.131,4.29522,4.29522,0,0,1-.436.94,2.81214,2.81214,0,0,1-.633.715,2.76087,2.76087,0,0,1-.852.454,3.78011,3.78011,0,0,1-2.183,0,2.77692,2.77692,0,0,1-.855-.454,2.82653,2.82653,0,0,1-.637-.715,4.25275,4.25275,0,0,1-.437-.94,6.03232,6.03232,0,0,1-.25-1.131,10.58128,10.58128,0,0,1,0-2.565,6.05788,6.05788,0,0,1,.25-1.13,4.21888,4.21888,0,0,1,.437-.941,2.85567,2.85567,0,0,1,.637-.714,2.716,2.716,0,0,1,.855-.455,3.819,3.819,0,0,1,2.181,0,2.689,2.689,0,0,1,.854.455,2.841,2.841,0,0,1,.633.714,4.26065,4.26065,0,0,1,.436.941,6.13637,6.13637,0,0,1,.251,1.13,10.31748,10.31748,0,0,1,0,2.565Z"/></g></g></svg>