<svg xmlns="http://www.w3.org/2000/svg" viewBox="0 0 84 44"><defs><style>.cls-1{fill:#fff;fill-rule:evenodd;}</style></defs><g id="E303_Airbag"><path id="Version_4-2" data-name="Version_4" class="cls-1" d="M56.724,12.358l7.806-7.45,1.992,2.099-8.286,7.904c-.024-.097-.051-.193-.08-.289A5.12612,5.12612,0,0,0,56.724,12.358ZM50.859,34.35l7.74,7.583L56.574,44l-8.003-7.845c.16-.086.318-.177.472-.273A8.29471,8.29471,0,0,0,50.859,34.35Zm-2.288,1.805a8.48772,8.48772,0,0,1-5.507.859q-4.1955-.7755-8.385-1.623a3.29521,3.29521,0,0,0-2.32.395q-3.9,2.2995-7.761,4.673a4.8331,4.8331,0,0,1-2.739.694,4.75272,4.75272,0,0,1-4.28-3.289A1.47265,1.47265,0,0,1,18.2,36.16q6.7365-4.1895,13.601-8.171a5.55,5.55,0,0,1,3.825-.635q2.4645.489,4.934.956ZM45.432,17.212a6.2292,6.2292,0,0,1,7.078-4.566l1.334.23a3.29264,3.29264,0,0,1,2.584,2.28,3.3062,3.3062,0,0,1,.045,1.789q-1.8,7.0575-3.773,14.067a8.52341,8.52341,0,0,1-1.841,3.338l-7.955-7.792Q44.212,21.896,45.432,17.212Zm-21.991-7.14A10.05951,10.05951,0,1,1,33.5,20.144,10.06426,10.06426,0,0,1,23.441,10.072ZM58.412,5.634a5.12451,5.12451,0,1,1-8.75-3.631,5.1255,5.1255,0,0,1,8.75,3.631Z"/></g></svg>