<svg xmlns="http://www.w3.org/2000/svg" viewBox="0 0 84 44"><defs><style>.cls-1{fill:none;stroke:#fff;stroke-width:3.5px;}.cls-2{fill:#fff;}</style></defs><g id="E311_NV_Tier"><g id="Version_2-2" data-name="Version_2"><path class="cls-1" d="M39.72,4.0265,19.891,37.3385a2.60488,2.60488,0,0,0,2.28,3.922H61.829a2.60488,2.60488,0,0,0,2.28-3.922L44.28,4.0265A2.66308,2.66308,0,0,0,39.72,4.0265Z"/><path class="cls-2" d="M56.55566,35.83984l-.2373.0293a.66432.66432,0,0,1-.66211-.33887l-1.45508-2.748-1.01562-.73633a2.39773,2.39773,0,0,1-1.25293-2.72656l.11816-.48145a1.13258,1.13258,0,0,0-.53711-1.25684l-1.12012-.64746a3.01461,3.01461,0,0,0-.63769-.27441L43.63965,24.835a3.32084,3.32084,0,0,1-2.25391-2.24121l-.73535-2.47754a2.06277,2.06277,0,0,0,1.373-.86133l.2539-.36523-1.42871-.08594,1.55664-.87695A2.46931,2.46931,0,0,0,43.667,15.90723a.41068.41068,0,0,0-.38769-.42481.40252.40252,0,0,0-.41407.30078l-.03027.11035a1.53453,1.53453,0,0,1-.708.9336l.15235-.62891a.38576.38576,0,0,0-.28614-.46094.39155.39155,0,0,0-.43261.2002l-.73633,1.45508a.411.411,0,0,1-.18848.18457l-.08886.04492.26464-1.08789a.3857.3857,0,0,0-.04785-.29492.37827.37827,0,0,0-.23633-.168.391.391,0,0,0-.43457.20019l-.80371,1.58887a1.3318,1.3318,0,0,1-.80273.668l-2.8125.84277v1.15332l2.39453.67579.67773,5.07519a2.86622,2.86622,0,0,0,.35743,1.05664l-2.86622-.458a.58838.58838,0,0,0-.66992.48536.60856.60856,0,0,0,.06543.376l1.25489,2.24512a2.50841,2.50841,0,0,0,1.92089,1.26465c.73243.08105,1.15235.124,1.15235.124l.50293.05078L39.333,29.57617l-.20313.09668a.8869.8869,0,0,1-1.1748-.40137l-.21387-.43554,3.43555.92187.11621-.41992a18.4756,18.4756,0,0,0,6.50781,1.25488,4.75045,4.75045,0,0,0,2.94238,2.85938l1.28028.43457a3.34371,3.34371,0,0,1,1.62207,1.17383l.94433,1.27148a3.83871,3.83871,0,0,0,1.90821,1.36524l.39257.12793Z"/></g></g></svg>