<svg xmlns="http://www.w3.org/2000/svg" viewBox="0 0 84 44"><defs><style>.cls-1,.cls-2{fill:#fff;}.cls-1{fill-rule:evenodd;}</style></defs><g id="E312_Motorsound"><g id="Version_2-2" data-name="Version_2"><path class="cls-1" d="M69.5443,14.61845l-20.012-6.191c-1.561-.528-4.869-.177-5.391,1.401l17.919,5.591-21.831,2.851a5.767,5.767,0,0,0-.695.136l-16.228-5.872c-1.961-.702-4.352-.104-5.199,1.227l18.29,6.698c-.183.231-.667,1.019-.667,1.019l-18.302-6.922-1.187,1.493,18.712,6.789-4.6,8.054-15.897-6.033a2.08522,2.08522,0,0,0-2.757,1.356l.006,1.769,20.02,7.163,1.739-3.075-.008-.003,4.462-7.811a5.87367,5.87367,0,0,1,4.335-2.92l29.564-3.86A2.82859,2.82859,0,0,0,69.5443,14.61845Z"/><path class="cls-2" d="M55.3418,21.87109a2.03293,2.03293,0,0,0-2.66407.44239l-5.9541,7.80761a1.94743,1.94743,0,0,1-1.3916.76368l-7.54394.60058A4.02448,4.02448,0,0,0,34.499,33.7002l-1.21679,2.40039L46.49805,35.0332a2.43532,2.43532,0,0,0,1.83789-1.08008l7.07519-11.749.12012-.19824Z"/><path class="cls-2" d="M72.10449,18.75586a2.03686,2.03686,0,0,0-2.63769.59277L63.957,27.48047a1.94881,1.94881,0,0,1-1.34863.83984l-7.499,1.02735a4.08357,4.08357,0,0,0-3.16016,2.39843l-1.08106,2.46485,13.13672-1.8125a2.448,2.448,0,0,0,1.77442-1.18262l6.52148-12.33594Z"/></g></g></svg>