<svg xmlns="http://www.w3.org/2000/svg" viewBox="0 0 84 44"><defs><style>.cls-1{fill:#fff;fill-rule:evenodd;}</style></defs><g id="E31B_Launch_control"><g id="Version_2"><path class="cls-1" d="M64.5,28.7555H66l.5-2H63.265c-.658-1.024-2.963-4.418-4.964-5.082a86.37737,86.37737,0,0,0-9.229-.335,84.78226,84.78226,0,0,0-9.27.346c-1.958.653-4.263,4.047-4.922,5.071H31.5l.5,2h1.5l-2,1v12c0,1.347,1.26,2.014,2.608,2.014h4.613a2.38046,2.38046,0,0,0,2.291-2.289v-.302H57.133v.302a2.38136,2.38136,0,0,0,2.292,2.289h4.613c1.348,0,2.462-.667,2.462-2.014v-12Zm-27.498-1.082c1.123-1.673,2.726-3.568,3.347-3.787a78.5401,78.5401,0,0,1,8.723-.273,81.57154,81.57154,0,0,1,8.677.261c.668.23,2.272,2.126,3.394,3.799l-12.071.003ZM59.5,40.7555v-2h-21V41.5c-.011.024-.036-.002,0,0l-4.392-.0065h-.014v-7.206H40V32H34.094v-.8175l2.06-1.234,12.918.003,12.92-.003,2.058,1.234V32H58v2.2875h6.05v7.206h-.012L59.5,41.5Z"/><path class="cls-1" d="M44.296,8.2785A24.48049,24.48049,0,0,0,41,7.0015l.864-2.874a26.12889,26.12889,0,0,1,3.552,1.532Zm-7.513.455.69-2.445A13.236,13.236,0,0,1,41,7.0015l-.73,2.59A16.47254,16.47254,0,0,0,36.783,8.7335Zm-3.297-2.406.916-2.845c.138-.004.27-.006.413-.01a27.95813,27.95813,0,0,1,3.55.052l-.892,2.764c-.895-.044-1.715.038-2.541.062C34.407,6.3645,34.02,6.3325,33.486,6.3275Zm-4.341,2.085.74-2.691a10.286,10.286,0,0,0,3.601.606l-.652,2.371A10.50807,10.50807,0,0,1,29.145,8.4125Zm-3.149-1.669a7.5859,7.5859,0,0,0,3.149,1.669l-.762,2.625a11.487,11.487,0,0,1-3.294-1.367l-.729,2.352.049-.04a8.675,8.675,0,0,0,3.257,1.74l-1.008,2.622a11.50283,11.50283,0,0,1-3.202-1.407L19.75,26.8935l-2.163-.669L25.649.2305l2.176.613a8.71833,8.71833,0,0,0,2.977,1.952l-.917,2.926a11.80111,11.80111,0,0,1-3.161-1.327Zm6.122,4.638-.738,2.687a9.33578,9.33578,0,0,1-3.714-.346l.717-2.685A11.16949,11.16949,0,0,0,32.118,11.3815Zm4.665-2.648-.769,2.527c-1.018-.064-2.015.061-2.941.086-.418.011-.531.033-.955.035l.716-2.683A35.25809,35.25809,0,0,1,36.783,8.7335Zm6.636,1.995-.883,2.298a22.70314,22.70314,0,0,0-2.905-.946l.639-2.489A23.08171,23.08171,0,0,1,43.419,10.7285Zm-4.569,4.119a17.00632,17.00632,0,0,0-3.611-.841l.775-2.746a13.72291,13.72291,0,0,1,3.617.82Zm1.886,3.404a15.468,15.468,0,0,0-2.626-.845l.74-2.559a15.5302,15.5302,0,0,1,2.801.992Zm-5.497-4.207-.875,2.687c-.926-.048-1.945-.046-2.798-.021-.496.013-.416.022-.921.02l.735-2.662A34.57529,34.57529,0,0,1,35.239,14.0445Z"/></g></g></svg>