<svg xmlns="http://www.w3.org/2000/svg" viewBox="0 0 84 44"><defs><style>.cls-1{fill:none;stroke:#fff;stroke-width:3px;}.cls-2{fill:#fff;}</style></defs><g id="E321_AC_DC_laden"><path class="cls-1" d="M10.26328,35.79418l0,0c2.70827-3.58989,6.76316-5.096,10.51387-3.69061q.50251.18828.99574.42353l4.24822,2.02736a8.54111,8.54111,0,0,0,4.27613.97911,8.9793,8.9793,0,0,0,6.04844-3.23869l.67457-.75142"/><path class="cls-2" d="M22.81382,26.96426l-1.755-4.80552H12.60288l-1.74862,4.80552H8.33343l7.2051-18.92852h2.6676L25.4559,26.96426ZM17.58709,12.54131q-.21657-.55521-.41482-1.16787a11.10164,11.10164,0,0,1-.32547-1.2636,11.85568,11.85568,0,0,1-.35738,1.26041q-.2106.60906-.40206,1.17106l-2.75695,7.53057h6.98173Z"/><path class="cls-2" d="M39.23348,26.33884a10.76766,10.76766,0,0,1-1.03705.39248,9.696,9.696,0,0,1-1.1934.29676,14.03841,14.03841,0,0,1-1.41358.18507q-.76583.06342-1.70395.06382a9.48348,9.48348,0,0,1-2.36447-.2808,7.42012,7.42012,0,0,1-2.00389-.82964,6.61958,6.61958,0,0,1-1.61461-1.37209,7.79624,7.79624,0,0,1-1.19021-1.91136,10.89521,10.89521,0,0,1-.7371-2.44105,16.1744,16.1744,0,0,1-.25209-2.96118,15.34248,15.34248,0,0,1,.23613-2.75376,11.05907,11.05907,0,0,1,.69881-2.374A8.35265,8.35265,0,0,1,27.81,10.40978a6.7881,6.7881,0,0,1,1.59865-1.45506,7.38911,7.38911,0,0,1,2.03581-.9126,8.98853,8.98853,0,0,1,2.4602-.31909q.74069,0,1.46144.0702a13.45083,13.45083,0,0,1,1.37847.20422,9.95812,9.95812,0,0,1,1.22851.32866,6.34475,6.34475,0,0,1,1.01152.43716v2.13791a7.89849,7.89849,0,0,0-1.03067-.41482,10.98241,10.98241,0,0,0-1.1934-.3159,13.04773,13.04773,0,0,0-1.31147-.201,13.4574,13.4574,0,0,0-1.38486-.0702,6.73577,6.73577,0,0,0-1.79968.22655,4.85879,4.85879,0,0,0-1.46463.67009,4.75765,4.75765,0,0,0-1.12958,1.0913,6.09608,6.09608,0,0,0-.80092,1.49016,9.27055,9.27055,0,0,0-.47864,1.87306,14.63549,14.63549,0,0,0-.15954,2.23045,13.51635,13.51635,0,0,0,.201,2.43787,8.82059,8.82059,0,0,0,.57437,1.94326,5.85181,5.85181,0,0,0,.903,1.471,5.03111,5.03111,0,0,0,1.19021,1.02428,5.10424,5.10424,0,0,0,1.43591.59989,6.68837,6.68837,0,0,0,1.63694.19465q.82925,0,1.54122-.06382.712-.06342,1.33061-.17869a10.35329,10.35329,0,0,0,1.1583-.2808q.53967-.16633,1.03067-.37015Z"/><path class="cls-2" d="M44.07908,27V8h5.864a10.3075,10.3075,0,0,1,2.69635.3235,7.23575,7.23575,0,0,1,2.09648.91925,6.249,6.249,0,0,1,1.55171,1.44454,7.71887,7.71887,0,0,1,1.05283,1.90256,10.82121,10.82121,0,0,1,.59375,2.28692,17.36724,17.36724,0,0,1,.18669,2.604,16.87035,16.87035,0,0,1-.19281,2.60081,10.7623,10.7623,0,0,1-.609,2.29333,7.82244,7.82244,0,0,1-1.07426,1.91217,6.35361,6.35361,0,0,1-1.58231,1.45735,7.43708,7.43708,0,0,1-2.13321.92886A10.48838,10.48838,0,0,1,49.7962,27ZM49.686,25.01416a7.51167,7.51167,0,0,0,1.922-.22741,5.19082,5.19082,0,0,0,1.52416-.663,4.576,4.576,0,0,0,1.15383-1.0794,5.82832,5.82832,0,0,0,.79881-1.47337,8.96978,8.96978,0,0,0,.46214-1.84491,15.10115,15.10115,0,0,0,.15-2.20684,15.5995,15.5995,0,0,0-.14691-2.21005,9.09591,9.09591,0,0,0-.456-1.86092,5.89664,5.89664,0,0,0-.78656-1.47977,4.45333,4.45333,0,0,0-1.14771-1.08261,5.19216,5.19216,0,0,0-1.53334-.66621,7.6341,7.6341,0,0,0-1.9404-.22741H46.43571V25.01416Z"/><path class="cls-2" d="M74.34974,26.34143a10.21159,10.21159,0,0,1-1.00587.39513,9.1227,9.1227,0,0,1-1.15753.29876,13.14226,13.14226,0,0,1-1.37109.18632q-.7428.06385-1.65273.06425a8.87957,8.87957,0,0,1-2.29339-.28269,7.05469,7.05469,0,0,1-1.94366-.83525,6.48926,6.48926,0,0,1-1.56607-1.38137A7.89981,7.89981,0,0,1,62.205,22.86231a11.27943,11.27943,0,0,1-.715-2.45755,16.88575,16.88575,0,0,1-.2445-2.98118,16.01687,16.01687,0,0,1,.229-2.77237,11.45332,11.45332,0,0,1,.6778-2.39009,8.48292,8.48292,0,0,1,1.1173-1.9564,6.67937,6.67937,0,0,1,1.55059-1.46489,7.04165,7.04165,0,0,1,1.97461-.91877,8.419,8.419,0,0,1,2.38624-.32125,14.015,14.015,0,0,1,1.41751.07068,12.60072,12.60072,0,0,1,1.337.2056,9.38133,9.38133,0,0,1,1.19158.33088,6.03874,6.03874,0,0,1,.98111.44011v2.15237a7.50137,7.50137,0,0,0-.99968-.41763,10.3384,10.3384,0,0,0-1.15753-.318,12.22833,12.22833,0,0,0-1.27205-.20239,12.58209,12.58209,0,0,0-1.34323-.07067,6.30822,6.30822,0,0,0-1.74558.22808,4.63372,4.63372,0,0,0-1.4206.67462A4.697,4.697,0,0,0,65.074,11.7921a6.21554,6.21554,0,0,0-.77684,1.50023,9.6197,9.6197,0,0,0-.46425,1.88573,15.28338,15.28338,0,0,0-.15475,2.24552,14.11051,14.11051,0,0,0,.195,2.45433,9.13483,9.13483,0,0,0,.5571,1.95641,5.93369,5.93369,0,0,0,.87588,1.481,4.93572,4.93572,0,0,0,1.15444,1.03121,4.8541,4.8541,0,0,0,1.39275.60394,6.262,6.262,0,0,0,1.58773.196q.80432,0,1.49489-.06425.69057-.06384,1.29061-.1799a9.73843,9.73843,0,0,0,1.12349-.28269q.52344-.16746.99968-.37265Z"/><line class="cls-1" x1="44" y1="31.5" x2="74" y2="31.5"/><line class="cls-1" x1="66" y1="36.5" x2="74" y2="36.5"/><line class="cls-1" x1="55" y1="36.5" x2="63" y2="36.5"/><line class="cls-1" x1="44" y1="36.5" x2="52" y2="36.5"/></g></svg>