<svg xmlns="http://www.w3.org/2000/svg" viewBox="0 0 84 44"><defs><style>.cls-1{fill:#fff;fill-rule:evenodd;}</style></defs><g id="E324_PowerLimit"><g id="Variante_1"><path class="cls-1" d="M79.16163,11.68083a4.01988,4.01988,0,0,1-1.00153.8996,4.40092,4.40092,0,0,1-1.19748.52947,2.43881,2.43881,0,0,1,.62546.42853,3.078,3.078,0,0,1,.50868.64228L81.58333,19.893H77.98988L74.89126,14.8141c-.099-.1633-.19-.30581-.27117-.42655a2.94209,2.94209,0,0,0-.2395-.31075,1.24889,1.24889,0,0,0-.2395-.2108,1.10615,1.10615,0,0,0-.27413-.12766,1.61786,1.61786,0,0,0-.34342-.06433c-.12766-.0099-.27512-.01584-.44237-.01584l-1.2064.003s-.00495,6.21506-.00495,6.24376H69V4l5.51914.102a9.2361,9.2361,0,0,1,2.40091.28206,4.59931,4.59931,0,0,1,1.74874.863A3.67745,3.67745,0,0,1,79.7386,6.7078,5.42672,5.42672,0,0,1,80.10379,8.792a4.8586,4.8586,0,0,1-.25534,1.624A4.33346,4.33346,0,0,1,79.16163,11.68083ZM76.77656,7.78752a1.90268,1.90268,0,0,0-.53838-.72246,2.36051,2.36051,0,0,0-.85705-.43644,4.10509,4.10509,0,0,0-1.145-.14647c.02375-.02078-2.32867-.01088-2.32867-.01088l-.03563,4.84438,2.3643.01089a3.94258,3.94258,0,0,0,1.13415-.15142,2.25086,2.25086,0,0,0,.86-.46712,2.03329,2.03329,0,0,0,.54333-.78876,3.0349,3.0349,0,0,0,.189-1.12425A2.5349,2.5349,0,0,0,76.77656,7.78752ZM56,4H66V7H59v4h6v2H59v4h7v3H56ZM45.50035,19.893,42.49278,8.05274,39.50005,19.893H36.01447L31.26212,4.102H34.531L37.69,16.70929,40.96474,4.102h3.07191l3.27379,12.60727L50.47537,4.102h3.26984L48.9889,19.893ZM29.37979,16.14222a6.84422,6.84422,0,0,1-.84912,1.67153,5.24424,5.24424,0,0,1-1.29646,1.29349,6.02235,6.02235,0,0,1-1.79722.83923,8.50773,8.50773,0,0,1-2.35836.29789,8.89376,8.89376,0,0,1-2.41972-.29789,5.98176,5.98176,0,0,1-1.815-.83923,5.02938,5.02938,0,0,1-1.28359-1.29349,6.85366,6.85366,0,0,1-.82537-1.67153,9.99215,9.99215,0,0,1-.44139-1.96744,17.60613,17.60613,0,0,1-.13064-2.17725,16.157,16.157,0,0,1,.1435-2.17725,9.84975,9.84975,0,0,1,.4691-1.96448,7.087,7.087,0,0,1,.84913-1.67252A5.14951,5.14951,0,0,1,18.9181,4.88979a6.02988,6.02988,0,0,1,1.7992-.83527,8.50585,8.50585,0,0,1,2.36133-.29888,8.853,8.853,0,0,1,2.41972.29888,5.96629,5.96629,0,0,1,1.81305.83527A5.04149,5.04149,0,0,1,28.594,6.18328a6.807,6.807,0,0,1,.82538,1.67252,9.98477,9.98477,0,0,1,.43941,1.96448,17.60592,17.60592,0,0,1,.13063,2.17725,16.15561,16.15561,0,0,1-.1435,2.17725A10.06673,10.06673,0,0,1,29.37979,16.14222Zm-2.66713-5.79446a7.927,7.927,0,0,0-.288-1.38849,4.81489,4.81489,0,0,0-.49483-1.11238,3.18069,3.18069,0,0,0-.71354-.81745,2.9759,2.9759,0,0,0-.94513-.50275,4.21546,4.21546,0,0,0-2.38508,0,3.00716,3.00716,0,0,0-.9471.50275,3.15351,3.15351,0,0,0-.71652.81745,4.81445,4.81445,0,0,0-.49482,1.11238,7.927,7.927,0,0,0-.288,1.38849,13.63367,13.63367,0,0,0-.093,1.65273,13.62863,13.62863,0,0,0,.093,1.65175,7.98177,7.98177,0,0,0,.288,1.39146,4.75845,4.75845,0,0,0,.49482,1.11237,3.19794,3.19794,0,0,0,.71652.81647,2.9121,2.9121,0,0,0,.9471.50374,4.2625,4.2625,0,0,0,2.38508,0,2.88257,2.88257,0,0,0,.94513-.50374,3.226,3.226,0,0,0,.71354-.81647,4.75888,4.75888,0,0,0,.49483-1.11237,7.9818,7.9818,0,0,0,.288-1.39146,14.71865,14.71865,0,0,0,0-3.30448ZM13.63431,12.045a4.03042,4.03042,0,0,1-.77787,1.02826,4.20174,4.20174,0,0,1-1.10149.75016,5.91592,5.91592,0,0,1-1.432.46019,9.172,9.172,0,0,1-1.76753.15735c.0386-.003-1.98526-.01484-1.98526-.01484L6.55231,19.9049h-2.969V4.07035L8.79488,4.102a8.71923,8.71923,0,0,1,1.69034.15142,5.67029,5.67029,0,0,1,1.37068.44733A3.90417,3.90417,0,0,1,13.6551,6.4396a4.87056,4.87056,0,0,1,.44534,1.26973,7.46213,7.46213,0,0,1,.14647,1.52012,7.2894,7.2894,0,0,1-.1524,1.53A4.9232,4.9232,0,0,1,13.63431,12.045Zm-2.68593-3.9527a2.273,2.273,0,0,0-.479-.865,2.14466,2.14466,0,0,0-.80954-.55124,3.08613,3.08613,0,0,0-1.147-.194l-1.96646.03266.00594,5.47282,1.6943.05245a3.75188,3.75188,0,0,0,1.3014-.19991,2.17477,2.17477,0,0,0,1.39443-1.45282,3.85117,3.85117,0,0,0,.16329-1.1579A3.83311,3.83311,0,0,0,10.94838,8.09233Z"/><path class="cls-1" d="M65,27V40H62V27H58l.025-3H69v3ZM52,24h3V40H52Zm-6,3.84151-4.614,8.0308H39.492L35,27.94088V40H32V24h4l4.46,8.76115L45,24h4V40H46ZM26,24h3V39.94932H26ZM14,24h3V37.019h6V40H14Z"/></g></g></svg>