<svg xmlns="http://www.w3.org/2000/svg" viewBox="0 0 84 44"><defs><style>.cls-1,.cls-2{fill:#fff;}.cls-1{fill-rule:evenodd;}</style></defs><g id="neu"><path id="Version_4-2" data-name="Version 4-2" class="cls-1" d="M44.00352,37.30214H66.99307v3.424H44.00352V43.93l-6.12316-4.94812,6.12316-4.94813Z"/><path class="cls-2" d="M55.96742,15.72124a30.47836,30.47836,0,0,1,5.95122.53079,23.014,23.014,0,0,1,5.01,2.21128,23.51689,23.51689,0,0,0,4.144,1.9237l.12413.04351.128.03024a19.51008,19.51008,0,0,0,1.93444.35554c1.13941.16339,1.13941.16339,1.30982.7399a15.59,15.59,0,0,1,.72369,4.403,5.19815,5.19815,0,0,1-1.25845.156l-.13333.00337-1.5305.03875-.66112,1.38088-.063.13155a3.36075,3.36075,0,0,1-1.59122,1.5953,3.3184,3.3184,0,0,1-1.43535.32616,3.3623,3.3623,0,0,1-3.01967-1.88969l-.05738-.124-.67091-1.45043H43.30339l-.66881,1.45708-.04225.09259a3.36064,3.36064,0,0,1-1.60763,1.5974,3.3208,3.3208,0,0,1-1.41657.31713,3.37212,3.37212,0,0,1-3.04457-1.94147L36.467,27.53l-.65719-1.393-1.53969-.0395-1.72219-.0441c-.06191-.00211-.11691-.00549-.1655-.00963l-.00605-.07607a2.556,2.556,0,0,1,.52762-1.78113c.39954-.48872.85239-1.04267,3.71606-1.645,1.241-.26067,4.60228-.72235,6.20357-.9297l.06581-.00845.74545-.09571.5691-.49091.30467-.26281c.42413-.34616.88448-.76007,1.25523-1.09343,1.40186-1.25379,3.3218-2.9709,5.03-3.43286a21.72909,21.72909,0,0,1,5.17351-.50646m0-2.5a23.97862,23.97862,0,0,0-5.82778.59359c-2.28068.61679-4.45674,2.5642-6.04641,3.98594-.40162.36113-.81845.73493-1.19054,1.037l-.3316.286-.06581.00845c-.04556.0059-4.736.61342-6.3991.96274-3.13289.659-4.223,1.39051-5.13769,2.50935a5.08438,5.08438,0,0,0-1.08422,3.56151c.00167,1.56772.821,2.32627,2.57854,2.38617l1.74321.04472.05652.11981a5.85293,5.85293,0,0,0,10.58757.03377l.05655-.1232h18.367l.05738.124a5.85172,5.85172,0,0,0,10.57572-.0135l.05736-.11981.13333-.00337c1.67318-.03882,3.6729-.459,3.69738-2.241a18.1241,18.1241,0,0,0-.84208-5.57053c-.61005-2.06976-1.99719-2.26888-3.33878-2.46126a17.12442,17.12442,0,0,1-1.71452-.31389A20.96454,20.96454,0,0,1,68.197,16.309a25.47549,25.47549,0,0,0-5.64225-2.47645,32.25108,32.25108,0,0,0-6.58736-.61131Z"/><path class="cls-1" d="M26.063,19.77609l4.21722-6.32583h7.38014L32.24867,8.75544l1.03417-8.714-4.49915,6.5072L24.8415,3.18292,25.642,9.15923l-7.703,2.864,7.83573,1.95894Z"/><path class="cls-2" d="M20.25507,18.34161a17.11707,17.11707,0,0,1-1.71454-.3139A20.962,20.962,0,0,1,14.83807,16.309a25.47716,25.47716,0,0,0-5.64221-2.47644A24.27066,24.27066,0,0,0,6.108,13.37714v2.51312a21.64764,21.64764,0,0,1,2.45172.36175,23.01562,23.01562,0,0,1,5.01,2.21131,23.51948,23.51948,0,0,0,4.14392,1.9237l.12415.04352.128.03021a19.51787,19.51787,0,0,0,1.93445.35553c1.1394.1634,1.1394.1634,1.30981.73993a15.58861,15.58861,0,0,1,.7237,4.403,5.19841,5.19841,0,0,1-1.25849.156l-.1333.00336-1.53033.03876L18.3504,27.538l-.06305.13178a3.36067,3.36067,0,0,1-1.59118,1.59528,3.31822,3.31822,0,0,1-1.43537.32617,3.36218,3.36218,0,0,1-3.01965-1.88971l-.05737-.124-.671-1.45043H6.108v2.5H9.91473l.05738.124a5.85173,5.85173,0,0,0,10.57574-.01349l.05737-.11981.13331-.00336c1.67315-.03882,3.67291-.459,3.69738-2.241a18.12471,18.12471,0,0,0-.8421-5.57055C22.98376,18.73309,21.59662,18.534,20.25507,18.34161Z"/></g></svg>