<svg xmlns="http://www.w3.org/2000/svg" viewBox="0 0 84 44"><defs><style>.cls-1{fill:#fff;fill-rule:evenodd;}.cls-2{fill:none;stroke:#fff;stroke-width:3px;}</style></defs><g id="E32D_Turtle_mode"><g id="Version_2"><path class="cls-1" d="M50.706,26c1.218-.059,1.916.955,1.719,1.463-.839,2.164-.026,2.526,1.459,1.933a1.79662,1.79662,0,0,0,1.039-2.167,9.83713,9.83713,0,0,0-1.039-2.047A4.2895,4.2895,0,0,0,57.744,22c-2.068,2.418-3.801.837-3.801.837-.386-3.264-3.742-5.786-5.553-6.261a13.10378,13.10378,0,0,0-6.39,0c-2.856.564-5.132,3.501-5.697,4.237-.564.735-.772,0-.772,0a6.43874,6.43874,0,0,0-6.592-3.258s-2.495.148-1.871,3.258c.623,3.109,8.463,4.369,8.463,4.369a2.15275,2.15275,0,0,1-.208,2.433c-1.574,1.859,0,2.463,1.485,1.751S37.729,26,37.729,26Z"/><path class="cls-2" d="M21.981,22A20.019,20.019,0,1,0,42,1.98,20.02009,20.02009,0,0,0,21.981,22Z"/></g></g></svg>