<svg xmlns="http://www.w3.org/2000/svg" viewBox="0 0 84 44"><defs><style>.cls-1,.cls-4{fill:#fff;}.cls-1{fill-rule:evenodd;}.cls-2,.cls-3{fill:none;stroke:#fff;}.cls-2{stroke-width:1.7px;}.cls-3{stroke-width:3.5px;}</style></defs><g id="E333_Tuerschloss_verrieglt"><g id="Version_7"><path class="cls-1" d="M40,17.46771v7.5H50v-7.5ZM45.83333,21.506V23.301H44.16667V21.50186a1.40831,1.40831,0,0,1-.692-1.26591,1.52574,1.52574,0,0,1,3.04974,0A1.39951,1.39951,0,0,1,45.83333,21.506Z"/><path class="cls-2" d="M41.61875,18.16979v-1.5175a3.31283,3.31283,0,0,1,3.38083-3.22h0a3.31283,3.31283,0,0,1,3.38084,3.22v1.5175"/><path class="cls-3" d="M67,28.07138l.93617-.0032c.201-.052,4.42725.30463,4.452-1.6425a23.383,23.383,0,0,0-1.096-7.232c-.787-2.676-2.31-1.936-5.89-2.809-2.986-.727-8.807-4.847-12.808-5.757-4.031-.916-12.038-1.204-16.344-.039-3.603.975-7.188,4.831-9.375,6.601a4.95648,4.95648,0,0,1-.76.613,2.119,2.119,0,0,1-.47.117s-6.495.84-8.744,1.313c-4.042.85-5.208,1.694-6.229,2.943-.447.547-1.162,1.49-1.16,3.969.001,1.183.372,1.764,2.123,1.825l3.96938.10168"/><line class="cls-3" x1="27.10455" y1="28.07136" x2="55.5" y2="28.07138"/><path class="cls-4" d="M26.19434,26.3194a4.84553,4.84553,0,0,1-9.68946,0H13a8.35012,8.35012,0,0,0,16.69922,0Z"/><path class="cls-4" d="M66.08473,26.3194a4.84553,4.84553,0,0,1-9.68946,0H52.89039a8.35012,8.35012,0,0,0,16.69922,0Z"/></g></g></svg>