<svg xmlns="http://www.w3.org/2000/svg" viewBox="0 0 84 44"><defs><style>.cls-1{fill:#fff;fill-rule:evenodd;}</style></defs><g id="E348_PreCrash"><path class="cls-1" d="M61.1335,31.2945l-.015-.012-1.86-3.45a13.03748,13.03748,0,0,0-.719-14.229c-.193-.287-.405-.566-.626-.84l1.294-2.196a19.41964,19.41964,0,0,1,3.432,5.015A14.65228,14.65228,0,0,1,61.1335,31.2945Zm-10.446-14.443a2.8297,2.8297,0,0,0-.772-1.233l4.202-4.068,1.072,1.148-4.461,4.314A1.58341,1.58341,0,0,0,50.6875,16.8515Zm-8.688-10.856a23.30126,23.30126,0,0,0-9.34,1.927l-2.586-1.155a26.7,26.7,0,0,1,23.85,0l-2.586,1.155A23.29527,23.29527,0,0,0,41.9995,5.9955Zm6.067,8.751a2.77483,2.77483,0,0,1-1.952-.819,2.83,2.83,0,0,1,0-3.96,2.73212,2.73212,0,0,1,3.901,0,2.8325,2.8325,0,0,1,0,3.96A2.76964,2.76964,0,0,1,48.0665,14.7465Zm-9.506,9.054q1.326.2685,2.655.523l4.31,4.277a4.49939,4.49939,0,0,1-2.96.471q-2.259-.423-4.515-.885a1.75308,1.75308,0,0,0-1.251.215q-2.094,1.2525-4.175,2.549a2.55723,2.55723,0,0,1-1.475.378,2.52942,2.52942,0,0,1-1.425-.533,2.62547,2.62547,0,0,1-.879-1.262.82276.82276,0,0,1,.011-.519.79742.79742,0,0,1,.326-.409q3.6225-2.289,7.319-4.458A2.95611,2.95611,0,0,1,38.5605,23.8005Zm8.199,3.817,4.165,4.138-1.09,1.127-4.309-4.282a2.47883,2.47883,0,0,0,.255-.147A4.49477,4.49477,0,0,0,46.7595,27.6175Zm-2.92-9.354a3.43376,3.43376,0,0,1,1.427-1.996,3.334,3.334,0,0,1,2.382-.491l.718.124a1.77873,1.77873,0,0,1,1.389,1.244,1.845,1.845,0,0,1,.025.975q-.9705,3.852-2.033,7.675a4.65136,4.65136,0,0,1-.988,1.823l-4.281-4.251C42.9455,21.6695,43.4015,19.9735,43.8395,18.2635Zm-19.098,9.569-1.862,3.45-.013.012a14.65028,14.65028,0,0,1-1.506-15.712,19.44062,19.44062,0,0,1,3.429-5.015l1.295,2.196c-.222.274-.433.553-.625.84A13.0374,13.0374,0,0,0,24.7415,27.8325Zm17.256,9.147h.002a22.733,22.733,0,0,0,9.012-1.821l3.707,1.722-.487.256a26.45773,26.45773,0,0,1-12.232,2.907h-.002a26.45773,26.45773,0,0,1-12.232-2.907l-.487-.256,3.707-1.722A22.75091,22.75091,0,0,0,41.9975,36.9795Z"/></g></svg>