<svg xmlns="http://www.w3.org/2000/svg" viewBox="0 0 84 44"><defs><style>.cls-1,.cls-2{fill:#fff;}.cls-2{fill-rule:evenodd;}</style></defs><g id="E350_ADA_Ablenkung"><g id="Version_2"><path class="cls-1" d="M66.82687,21.61091c-.07833-.15253-8.13087-15.32732-24.317-15.3603h-.055a26.0624,26.0624,0,0,0-18.05965,7.432v2.37316A24.77462,24.77462,0,0,1,42.45487,7.93808h.05222c13.7278.02885,21.25816,11.76,22.60346,14.06172-1.3398,2.30033-8.8523,14.03423-22.60346,14.06309h-.05222A24.75014,24.75014,0,0,1,24.39522,27.9595v2.37368a26.045,26.045,0,0,0,18.05965,7.41717h.055c15.90859-.033,24.41185-14.94118,24.41185-15.75055v-.20613Z"/><path class="cls-2" d="M19.37135,6.24293h.2573a2.12276,2.12276,0,0,1,2.12276,2.12276V26.63445a2.12262,2.12262,0,0,1-2.12262,2.12262h-.25744a2.12276,2.12276,0,0,1-2.12276-2.12276V8.36569A2.12276,2.12276,0,0,1,19.37135,6.24293Z"/><path class="cls-1" d="M42.50879,32.52832A10.52783,10.52783,0,1,1,53.03711,22,10.53961,10.53961,0,0,1,42.50879,32.52832Zm0-17.1543A6.626,6.626,0,1,0,49.13477,22,6.63361,6.63361,0,0,0,42.50879,15.374Z"/><path class="cls-1" d="M42.50928,12.41005A9.59011,9.59011,0,1,1,32.919,22.00014a9.601,9.601,0,0,1,9.59033-9.59009m0,17.15355a7.56346,7.56346,0,1,0-7.56348-7.56346,7.57169,7.57169,0,0,0,7.56348,7.56346m0-19.02974A11.46629,11.46629,0,1,0,53.9751,22.00014,11.4661,11.4661,0,0,0,42.50928,10.53386Zm0,17.15356a5.68728,5.68728,0,1,1,5.687-5.68728,5.68741,5.68741,0,0,1-5.687,5.68728Z"/><circle class="cls-1" cx="19.5" cy="35.5" r="2.5"/></g></g></svg>