<svg xmlns="http://www.w3.org/2000/svg" viewBox="0 0 84 44"><defs><style>.cls-1{fill:none;stroke:#fff;stroke-miterlimit:10;stroke-width:2.35001px;}.cls-2{fill:#fff;}</style></defs><g id="E358_ADA_MKE"><g id="Version_2"><path class="cls-1" d="M69.394,25.31011c0,2.37515-16.41558,9.34667-30.23922,9.34667-10.86648,0-16.19947-3.17691-20.80815-5.90041-1.25418-.74116-4.2472.34267-4.2472-2.03248s18.27778-5.01595,24.19137-5.01595C52.25847,21.70794,69.394,24.76543,69.394,25.31011Z"/><path class="cls-2" d="M35.21511,34.54321c1.24093.07358,2.55012.11352,3.93936.11352a35.82121,35.82121,0,0,0,4.28521-.27529,13.54781,13.54781,0,0,0,9.203-11.72942c-2.31782-.26939-4.73538-.50448-7.16213-.67313a6.47851,6.47851,0,0,1-12.92188.029c-2.32438.21189-4.79247.5263-7.14638.91135A13.646,13.646,0,0,0,35.21511,34.54321Z"/><path class="cls-1" d="M14.09946,20.70484c3.16137-3.16137,10.22373-8.82828,24.19137-8.82828S66.5141,18.90518,70.214,22.1451"/></g></g></svg>