<?xml version="1.0" encoding="UTF-8"?><svg id="a" xmlns="http://www.w3.org/2000/svg" viewBox="0 0 84 44"><defs><style>.b{fill:#fff;fill-rule:evenodd;}</style></defs><path class="b" d="M81.33333,26.31777l-14.16667-4.98444,9.44444-4.98444,4.72222,9.96887Z"/><path class="b" d="M6.83333,16.3489l9.44444,4.98444L2.11111,26.31777l4.72222-9.96887Z"/><path class="b" d="M58.9573,17.42917h2.6182v-1.6335h-3.934c-.701-1.1636-3.1567-5.3045-5.2885-6.059-3.2688-.3138-7.0614-.4409-10.3429-.3807-3.2963-.0613-7.1481,.07-10.4309,.3932-2.086,.742-4.5417,4.8829-5.2438,6.0465h-3.9109v1.6335h2.4407l-1.9532,1.4915v13.8494c0,1.5307,1.1648,2.2886,2.6009,2.2886h4.9146c1.3264-.0521,2.3907-1.1863,2.4408-2.6011v-.3432h18.2403v.3432c.0506,1.415,1.1153,2.5491,2.4419,2.6011h4.9145c1.4362,0,2.623-.7579,2.623-2.2886v-13.8494l-2.1307-1.4915Zm-30.3612-.8744c1.1965-1.9012,2.9042-4.0545,3.5659-4.3034,3.09-.287,6.7473-.3905,9.8481-.3102,3.0842-.0761,6.6805,.0229,9.7548,.2966,.7117,.2614,2.4205,2.4158,3.6159,4.317l-13.3707,.0034-13.414-.0034Zm1.7531,12.8062v3.4091c-.0117,.0273-.0383-.0023,0,0l-4.8363-.0136h-.0149v-8.6858h6.2495v-2.6307h-6.2495v-.8977l2.1947-1.4023,14.3174,.0034,14.2752-.0034,2.1925,1.4023v.8977h-6.2473v2.6307h6.2473v8.6858h-.0128l-4.7298,.0136c-.0192-.0102-.0671-.3273-.0841-.3273-.0064,0,.0841,.3159,.0841,.3273v-3.4091H30.3492Z"/></svg>