<svg xmlns="http://www.w3.org/2000/svg" viewBox="0 0 84 44"><defs><style>.cls-1,.cls-3,.cls-4{fill:#fff;}.cls-1{fill-rule:evenodd;}.cls-2{fill:none;stroke-width:3px;}.cls-2,.cls-4{stroke:#fff;stroke-miterlimit:10;}</style></defs><g id="neu"><path id="Scheibe2" class="cls-1" d="M56.71185,15.806a15.13692,15.13692,0,0,0-4.109-.506,14.64242,14.64242,0,0,0-4.04.506l-.457.135-1.201-6.352.299-.154a12.21307,12.21307,0,0,1,5.399-1.253,12.56991,12.56991,0,0,1,5.467,1.253l.299.154-1.2,6.352Zm-7.667,16.121a25.79559,25.79559,0,0,0,7.108,0l.408-.064.834,6.171-.319.114a13.62991,13.62991,0,0,1-4.477.87,13.62981,13.62981,0,0,1-4.477-.87l-.32-.114.835-6.171Z"/><path id="Scheibe1" class="cls-1" d="M56.99342,25.9645a27.56407,27.56407,0,0,1,.037-4.036l1.708-3.904v13.583l-.875-2.141C57.40042,27.6395,57.06142,26.5955,56.99342,25.9645Z"/><path class="cls-2" d="M29.53387,16.90289a6.46147,6.46147,0,0,0,0,9.13788"/><path class="cls-2" d="M25.01288,12.3819a12.855,12.855,0,0,0,0,18.17987"/></g><g id="Ebene_1" data-name="Ebene 1"><path class="cls-3" d="M52.64682,3.0787c2.46958.07418,5.36.737,6.12172,1.38595A11.82136,11.82136,0,0,1,60.083,8.01908c.22576,1.41345.28783,12.63765.21743,22.67244L60.3,30.74163l.00145.0501a37.22039,37.22039,0,0,1-.19907,5.97906,8.20137,8.20137,0,0,0-.34543,1.31442c-.25172,1.22747-.45834,1.86173-.92545,2.06275a20.44357,20.44357,0,0,1-5.69314.80819l-.248-.00138-.19251-.00127-.06011-.00118-.0572.00111-.22639.00152-.217.0012a20.44236,20.44236,0,0,1-5.69393-.80858c-.51651-.21882-.76056-.90982-1.04641-2.16784-.06476-.285-.12722-.55983-.207-.828-.15627-1.49568-.26573-3.69122-.31731-5.70044h2.65968V20.61853l-.24486-.54636-2.42261-5.4057c.024-2.2668.0974-5.58925.22043-6.65947a12.13364,12.13364,0,0,1,1.40024-3.51786c.38834-.32051,1.84493-1.03746,5.07656-1.33614.53753-.04973.936-.06847,1.08487-.0743M52.63771.2774s-.5306.01321-1.33367.08749c-1.99806.18468-5.681.74694-7.06033,2.42161a14.97083,14.97083,0,0,0-1.92017,4.74106c-.22016,1.60131-.26419,7.72566-.26419,7.72566l2.67284,5.964v7.434H42.04014c-.01476,2.44008.1185,6.6788.39905,9.10273.388.96766.461,4.10754,3.11514,5.05086a23.25315,23.25315,0,0,0,6.58282.95128q.12426,0,.248-.00138c.16293,0,.25265-.00192.25265-.00192s.08968.00192.2526.00192c.08257.00083.1654.00138.248.00138a23.25435,23.25435,0,0,0,6.58341-.95128c2.65361-.94325,2.61452-4.0832,3.00257-5.05086.54-1.34483.376-7.04284.376-7.04284s.147-20.93782-.26088-23.18351A14.72275,14.72275,0,0,0,61.03181,2.7865C59.09864.43893,52.63771.2774,52.63771.2774Z"/><path class="cls-4" d="M41.69355,18.84548l-7.16213,6.02564a.36163.36163,0,0,1-.50763-.05808l-.76619-.91076a.36159.36159,0,0,1,.02952-.51l7.51874-6.39813Z"/></g></svg>