<svg xmlns="http://www.w3.org/2000/svg" viewBox="0 0 84 44"><defs><style>.cls-1{fill:#fff;}</style></defs><g id="E78F_CAPA_AP_warning_off"><path class="cls-1" d="M25.87141,2.46066A7.50218,7.50218,0,0,0,20.81549,1H15.00907V20h2.47638V12.44736h3.19138c4.32961-.09673,6.7141-2.07933,6.7141-5.7826A5.80826,5.80826,0,0,0,25.87141,2.46066ZM24.7493,6.67282c0,1.867-.96914,3.22016-2.54855,3.22016-.15725,0-.31315.029-.47034.0248l-4.245.04837V3.401h4.54A2.99869,2.99869,0,0,1,24.7493,6.67282Z"/><path class="cls-1" d="M58.56152,33.89453c-.05175-.27148-.28222-.75683-1.248-.957l-.5791-.12012.00976-.00683-2.05078-.42383a.92331.92331,0,0,0-.11816-.01563L43.9151,30.16357a12.99153,12.99153,0,0,1-1.9873,1.13373l8.248,1.70758a1.22985,1.22985,0,0,1,.1709.06641.71709.71709,0,0,1-.27539.26367l-1.61914,1.05762a2.72932,2.72932,0,0,1-2.07227.42871l-6.10937-1.26465-.15821-.02344-3.10449-.64258.00391-.002L25.18066,30.44043,27.208,29.11621a2.46488,2.46488,0,0,1,.37152-.18457,13.1012,13.1012,0,0,1-1.00995-1.05975c-.0423.02563-.08942.03943-.1311.06659l-3.873,2.47851-8.04395,5.25684c-.96679.63183-1.01855,1.21972-.96289,1.51367.05176.27148.28223.75684,1.248.957l22.25781,4.6084,4.94629,1.07519a6.18214,6.18214,0,0,0,1.25488.13965,4.3716,4.3716,0,0,0,2.48926-.77343l1.292-.88672.00292.001,5.15723-3.373.00293.001,5.47656-3.58593h-.002C58.56934,34.74121,58.61523,34.17969,58.56152,33.89453ZM25.46387,38.80566,15.915,36.82812a1.13815,1.13815,0,0,1-.249-.083h-.001a.72536.72536,0,0,1,.28125-.27051l7.4375-4.86035,3.709.76758a1.24867,1.24867,0,0,1,.22364.0791.71336.71336,0,0,1-.27832.2666l-1.60938,1.05273c-.9668.63184-1.01855,1.21973-.96289,1.51368.05176.27148.28223.75683,1.249.957l3.47852.71679a1.16221,1.16221,0,0,1,.24219.08106.721.721,0,0,1-.28028.26953l-1.61035,1.05176A3.24253,3.24253,0,0,1,25.46387,38.80566Zm21.05761,2.1084-1.61035,1.05176a3.24379,3.24379,0,0,1-2.081.43555l-13.8916-2.877a1.16384,1.16384,0,0,1-.249-.083.73261.73261,0,0,1,.28125-.27051l2.06055-1.35742a1.39049,1.39049,0,0,1,1.34766-.18262l13.37793,2.76562-.03223.02247.86035.15234a1.21778,1.21778,0,0,1,.21387.07617A.715.715,0,0,1,46.52148,40.91406Zm9.65235-6.30664-3.88965,2.54785-.00781-.002-2.543,1.66211a3.33331,3.33331,0,0,1-1.98047.44824l-20.93164-4.3291a1.16389,1.16389,0,0,1-.249-.083.69744.69744,0,0,1,.27734-.26758l2.05664-1.3164a1.58662,1.58662,0,0,1,1.41406-.209l14.86328,3.07032.91016.17968a4.8477,4.8477,0,0,0,3.668-1.04l.00976.00293L51.877,33.88574a2.14575,2.14575,0,0,1,1.58985-.19824l2.73828.56641a1.16386,1.16386,0,0,1,.249.083A.71024.71024,0,0,1,56.17383,34.60742Z"/><path class="cls-1" d="M36.50911,8.5A11,11,0,1,0,47.5,19.50911v-.00767A11.03611,11.03611,0,0,0,36.50911,8.5Zm-2.899,12.15707a2.89922,2.89922,0,1,1,2.89229,2.99829A2.96936,2.96936,0,0,1,33.61011,20.65707ZM44.67,16.10644c-.069.11689-.24645.524-.47469.524H28.821c-.22825,0-.40565-.40711-.47471-.524a.28648.28648,0,0,1,.01148-.28461l.0067-.01243a8.93606,8.93606,0,0,1,16.29694.01817A.27725.27725,0,0,1,44.67,16.10644Zm-2.07619,3.45824v-.44749l2.2795.00287c.34332,0,.56867,0,.57539.573a8.91945,8.91945,0,0,1-.95222,3.8377l-.03932.08144c-.19276.42259-.50251.57782-.72792.4063L41.89,22.41061A6.04446,6.04446,0,0,0,42.59385,19.56468ZM31.12059,22.41159,29.30044,24.008a.345.345,0,0,1-.29152.07379.79575.79575,0,0,1-.45073-.46857l-.04028-.08912a8.88679,8.88679,0,0,1-.95322-3.82046c.00765-.58357.23591-.58357.58018-.58357l2.2747-.00287-.00191.44845A6.14089,6.14089,0,0,0,31.12059,22.41159Zm.14481,4.3264a.33889.33889,0,0,1-.13905-.252c-.00479-.18111.14672-.41875.45935-.72347l1.39915-1.22557a6.07562,6.07562,0,0,0,7.0466,0l1.3886,1.216c.32318.31239.47662.55191.47087.734a.34653.34653,0,0,1-.14864.2568l-.02206.023-.02973.02583a8.92656,8.92656,0,0,1-10.35892.00287l-.03068-.022-.095.07378.09015-.07857Z"/><path class="cls-1" d="M57.769,4.44068a4.14679,4.14679,0,0,0-.5419-1.01379,3.29967,3.29967,0,0,0-.80677-.78241,3.5824,3.5824,0,0,0-1.07772-.4932,5.23087,5.23087,0,0,0-1.33447-.16947,4.98727,4.98727,0,0,0-1.34259.17147,3.69859,3.69859,0,0,0-1.0757.49928,3.28871,3.28871,0,0,0-.8098.78952,4.27079,4.27079,0,0,0-.545,1.01582,5.8753,5.8753,0,0,0-.30647,1.19747,8.77691,8.77691,0,0,0-.09742,1.33446,8.92767,8.92767,0,0,0,.09539,1.34052,5.8049,5.8049,0,0,0,.30447,1.19543,4.25824,4.25824,0,0,0,.53886,1.01176,3.29851,3.29851,0,0,0,.80576.78241,3.58647,3.58647,0,0,0,1.07467.4932,4.92214,4.92214,0,0,0,1.27967.16846h.05582a5.72474,5.72474,0,0,0,1.33953-.17146,3.70128,3.70128,0,0,0,1.07874-.49929,3.33774,3.33774,0,0,0,.81083-.78748,4.29727,4.29727,0,0,0,.548-1.0148,5.79716,5.79716,0,0,0,.30849-1.1985,8.924,8.924,0,0,0,.09742-1.33649,9.02547,9.02547,0,0,0-.0954-1.33853A5.7789,5.7789,0,0,0,57.769,4.44068ZM56.35335,7.97524a4.59966,4.59966,0,0,1-.19072.85546,3.13326,3.13326,0,0,1-.32069.69514,2.00256,2.00256,0,0,1-.4455.50334,1.92389,1.92389,0,0,1-.59975.31966,2.30557,2.30557,0,0,1-.78748.11671H54.0011a2.47417,2.47417,0,0,1-.79054-.11671,1.90445,1.90445,0,0,1-.60082-.31964,1.97239,1.97239,0,0,1-.44956-.5033,3.2059,3.2059,0,0,1-.32372-.69514,4.60288,4.60288,0,0,1-.18875-.85446,8.34328,8.34328,0,0,1,0-1.987,4.5771,4.5771,0,0,1,.18977-.85446,3.10328,3.10328,0,0,1,.3217-.69312,1.98924,1.98924,0,0,1,.45056-.50541,1.884,1.884,0,0,1,.59569-.31966,2.78667,2.78667,0,0,1,1.58919-.001,1.85833,1.85833,0,0,1,.59873.31865,2.00136,2.00136,0,0,1,.44754.50537,3.09169,3.09169,0,0,1,.32169.69515,4.59972,4.59972,0,0,1,.19078.85547A8.01058,8.01058,0,0,1,56.35335,7.97524Z"/><polygon class="cls-1" points="59 11.831 60.709 11.831 60.709 7.846 64.659 7.846 64.659 6.342 60.709 6.342 60.709 3.637 65 3.637 65 2.134 59 2.134 59 11.831"/><polygon class="cls-1" points="72 3.637 72 2.134 66 2.134 66 11.831 67.71 11.831 67.71 7.846 71.66 7.846 71.66 6.342 67.71 6.342 67.71 3.637 72 3.637"/></g></svg>