<svg xmlns="http://www.w3.org/2000/svg" viewBox="0 0 84 44"><defs><style>.cls-1{fill:#fff;}.cls-2{fill:red;}</style></defs><g id="E135_Vwarn_MPH"><g id="Version_1-3" data-name="Version_1"><circle class="cls-1" cx="42" cy="22" r="22"/><path class="cls-2" d="M42,.85621a21.10169,21.10169,0,1,0,.08433,0Q42.04214.85612,42,.85621Zm0,36.75771A15.6139,15.6139,0,1,1,57.61387,22,15.61389,15.61389,0,0,1,42,37.61392Z"/><path d="M37.91349,26.99222V20.71243q0-.27026.01141-.61644t.04849-.7045c-.08748.247-.17829.4808-.27243.69944-.09414.22066-.18305.40995-.26673.56988L35.366,24.45359h-.71317l-2.05679-3.79278c-.04945-.08908-.09842-.1822-.14691-.28039s-.09747-.20244-.14692-.31378c-.04944-.10932-.09746-.22168-.14406-.335s-.09081-.22673-.13265-.3401c.02282.22674.03994.45044.05135.67312.01141.22067.01712.43728.01712.64782v6.27979H31.04421v-9.0067h1.21524l2.325,4.33026q.117.22471.22251.47372a5.526,5.526,0,0,1,.19683.54963,4.1005,4.1005,0,0,1,.19684-.54963q.11125-.249.23677-.47372l2.32494-4.33026h1.20384v9.0067Z"/><path d="M40.012,27.00781v-9.0067h2.75976a4.01062,4.01062,0,0,1,.85694.085,2.68906,2.68906,0,0,1,.69726.251,2.09707,2.09707,0,0,1,.53906.40692,2.20459,2.20459,0,0,1,.38379.55267,2.80146,2.80146,0,0,1,.23.6883,4.13965,4.13965,0,0,1,.07618.81585,4.41508,4.41508,0,0,1-.07178.8199,2.76815,2.76815,0,0,1-.22119.69033,2.04153,2.04153,0,0,1-.38379.55165,2.08917,2.08917,0,0,1-.55957.40388,2.94909,2.94909,0,0,1-.74561.249,4.78556,4.78556,0,0,1-.94482.085H41.11648v3.40712Zm2.51953-4.31508a2.61674,2.61674,0,0,0,.87158-.12754,1.42529,1.42529,0,0,0,.583-.37047,1.46674,1.46674,0,0,0,.32666-.59518,2.8585,2.8585,0,0,0,.10254-.79864,2.71225,2.71225,0,0,0-.10254-.76726,1.56676,1.56676,0,0,0-.3208-.5962,1.46977,1.46977,0,0,0-.55811-.38768,2.18921,2.18921,0,0,0-.81738-.13766h-1.5v3.78063Z"/><path d="M51.95388,27.00781V22.85367H48.0676v4.15414H47.02109v-9.0067H48.0676v3.90817h3.88628V18.00111H53.0004v9.0067Z"/><path class="cls-1" d="M42,.85A21.15,21.15,0,1,1,20.85,22,21.174,21.174,0,0,1,42,.85M42,0A22,22,0,1,0,64,22,22,22,0,0,0,42,0Z"/></g></g></svg>