<svg xmlns="http://www.w3.org/2000/svg" viewBox="0 0 84 44"><defs><style>.cls-1,.cls-2{fill:#fff;}.cls-2{fill-rule:evenodd;}</style></defs><g id="E15B_Halteassistent"><g id="Version_4-2" data-name="Version_4"><path class="cls-1" d="M25.62079,21.997A16.37932,16.37932,0,1,0,41.99845,5.615,16.38083,16.38083,0,0,0,25.62079,21.997Zm-3.12068,0A19.5,19.5,0,1,1,41.99845,41.5,19.497,19.497,0,0,1,22.50011,21.997Z"/><g id="Versuch_3"><path class="cls-1" d="M61.46265,2.6131,57.92383,6.14166a22.44673,22.44673,0,0,1-.01911,31.73664l3.53882,3.52856A27.43783,27.43783,0,0,0,61.46265,2.6131Z"/><path class="cls-1" d="M22.60571,41.45563l3.53-3.53754a22.44759,22.44759,0,0,1-.02-31.81714l-3.5299-3.53753a27.43895,27.43895,0,0,0,.01989,38.89221Z"/></g><path class="cls-2" d="M49.575,32.0795l-2.706-7.006H36.903l-2.696,7.006H30.968l9.258-23h3.428l9.316,23Zm-6.716-17.525q-.279-.675-.533-1.419a12.99519,12.99519,0,0,1-.419-1.536,13.66414,13.66414,0,0,1-.459,1.532q-.27.741-.516,1.423l-3.303,8.529h8.494Z"/></g></g></svg>