<svg xmlns="http://www.w3.org/2000/svg" viewBox="0 0 84 44"><defs><style>.cls-1,.cls-4{fill:#fff;}.cls-2,.cls-3{fill:none;stroke:#fff;stroke-miterlimit:10;stroke-width:2px;}.cls-2,.cls-4{fill-rule:evenodd;}</style></defs><g id="E150_fuel_phev_range_total"><g id="Version_3-2" data-name="Version_3"><path class="cls-1" d="M74.57761,10H76v4.51392a3.97126,3.97126,0,0,1-3.00684,4.10786l-.245.05345-1.10345.01788-.24966-.05163A4.26513,4.26513,0,0,1,68,14.61385V10h1.44641V6H71v4h2V6h1.57761Z"/><path class="cls-2" d="M45.0089,37.74879V7.24813C45.0089,6.12863,45.62745,5,46.74561,5H59.90543a2.27784,2.27784,0,0,1,2.08466,2.24813V37.74879"/><path class="cls-3" d="M59,17H48"/><path class="cls-3" d="M62.11093,18h2.36561C65.83805,18,67,19.74552,67,20.8704V30c0,2.13473.20624,4.15317,2.5,4.15317S72,32.16166,72,30V17"/><path class="cls-1" d="M42,37H65v2H42Z"/><path class="cls-2" d="M10.05052,37.74879V7.24813A2.03355,2.03355,0,0,1,11.88868,5H25.81716a2.33593,2.33593,0,0,1,2.20642,2.24813V37.74879"/><path class="cls-3" d="M25,17H13"/><path class="cls-3" d="M28.02358,18.24633s1.50754.00638,2.36562.00638A2.91861,2.91861,0,0,1,33,20.8704V30c0,2.13473.20624,4.15317,2.5,4.15317S38,32.16166,38,30V12"/><path class="cls-1" d="M7,37H31v2H7Z"/><path class="cls-4" d="M36.87885,7.93323A13.60543,13.60543,0,0,0,31.731,4.72552l-.0567-.00085L31.26074,5.866a18.28729,18.28729,0,0,1,4.25666,3.6579c1.99468,2.47412,2.16333,7.23346,2.16333,7.23346l2.94464-2.55579A19.90441,19.90441,0,0,0,36.87885,7.93323Z"/></g></g></svg>