<svg xmlns="http://www.w3.org/2000/svg" viewBox="0 0 84 44"><defs><style>.cls-1{fill:#fff;}.cls-2{fill:red;}</style></defs><g id="E134_Vwarn_KMH"><g id="Version_3-2" data-name="Version_3"><circle class="cls-1" cx="42" cy="22" r="22"/><path class="cls-2" d="M42,.85621a21.10169,21.10169,0,1,0,.08433,0Q42.04214.85612,42,.85621Zm0,36.75771A15.6139,15.6139,0,1,1,57.61387,22,15.61389,15.61389,0,0,1,42,37.61392Z"/><path class="cls-1" d="M42,.85A21.15,21.15,0,1,1,20.85,22,21.174,21.174,0,0,1,42,.85M42,0A22,22,0,1,0,64,22,22,22,0,0,0,42,0Z"/><g id="E134_Vwarn_KMH-2" data-name="E134 Vwarn KMH"><g id="Version_2-3" data-name="Version 2-3"><path d="M31.62931,22.393l3.52206,3.60266H33.80664l-2.74805-2.79493v2.79493H30.00391V16.899h1.05468V21.7196l2.24679-2.559H34.5625Z"/><path d="M42,25.99563V21.39475a2.71875,2.71875,0,0,0-.06513-.63983,1.229,1.229,0,0,0-.18941-.43469.74425.74425,0,0,0-.30845-.24746.5346.5346,0,0,0-.29671-.07609.97329.97329,0,0,0-.27512.03538,1.48705,1.48705,0,0,0-.3339.1156,1.74393,1.74393,0,0,0-.31594.19862.74344.74344,0,0,0-.22541.28654v5.36281h-.98784V21.39475a3.11764,3.11764,0,0,0-.02935-.65062,1.23476,1.23476,0,0,0-.20343-.43425.69877.69877,0,0,0-.283-.25752.826.826,0,0,0-.36947-.05774,1.70526,1.70526,0,0,0-.3616.03744,1.47436,1.47436,0,0,0-.3339.1156,1.19682,1.19682,0,0,0-.31444.19862c-.0877.08357-.08249.16442-.12136.28654v5.36281h-.99338V19.15454h.73667l.05391.62518a2.51962,2.51962,0,0,1,.30919-.324,1.94092,1.94092,0,0,1,.35037-.24746A1.6866,1.6866,0,0,1,38.274,18.995a1.79381,1.79381,0,0,1,.49636.06513,1.33679,1.33679,0,0,1,.7292.508,1.74856,1.74856,0,0,1,.22758.43957,3.07282,3.07282,0,0,1,.3339-.41841,2.08906,2.08906,0,0,1,.38331-.3191,1.786,1.786,0,0,1,.43946-.2035,1.692,1.692,0,0,1,.49862-.07164,1.81817,1.81817,0,0,1,.49486.0635,1.38061,1.38061,0,0,1,.408.18722,1.31389,1.31389,0,0,1,.31893.30933,1.78183,1.78183,0,0,1,.22983.43307,2.71752,2.71752,0,0,1,.13925.55191,4.48683,4.48683,0,0,1,.04642.66913v4.78648Z"/><path d="M44.14781,25.99563,48.06187,16.899H49.0814l-3.90234,9.09668Z"/><path d="M53.01771,25.99563V21.28909a2.2255,2.2255,0,0,0-.06537-.57568,1.0304,1.0304,0,0,0-.18035-.39111.75315.75315,0,0,0-.31764-.22266.71173.71173,0,0,0-.32893-.07031,1.35573,1.35573,0,0,0-.30687.03368,1.66262,1.66262,0,0,0-.343.104,1.981,1.981,0,0,0-.323.17577.37653.37653,0,0,0-.177.249v5.40385h-.96821V17.00011h.96821l-.032,2.55028A.73062.73062,0,0,1,51.119,19.393a2.01486,2.01486,0,0,1,.35534-.21826,1.93164,1.93164,0,0,1,.39839-.14063,1.57027,1.57027,0,0,1,.40123-.0498,2.11761,2.11761,0,0,1,.50838.05713,1.5193,1.5193,0,0,1,.41916.16846,1.28726,1.28726,0,0,1,.32763.27832,1.54913,1.54913,0,0,1,.23611.38965,2.20274,2.20274,0,0,1,.14306.49658c.03152.18261.07968,1.03363.07968,1.25238v4.36885Z"/></g></g></g></g></svg>