<svg id="SVG_Anpassung" data-name="SVG Anpassung" xmlns="http://www.w3.org/2000/svg" viewBox="0 0 84 44"><defs><style>.cls-1{fill:none;stroke:#fff;stroke-miterlimit:10;stroke-width:3px;}.cls-2{fill:#fff;}</style></defs><path class="cls-1" d="M47.44743,34.253a2.6542,2.6542,0,0,0-1.70788-.57829c-2.624,0-2.624,3-5.248,3s-2.624-3-5.24807-3c-2.62471,0-2.62471,3-5.24941,3-2.62329,0-2.62329-3-5.24657-3-2.62557,0-2.62557,3-5.25113,3-2.62737,0-2.62737-3-5.25474-3a2.65956,2.65956,0,0,0-1.708.57669"/><path class="cls-2" d="M59.15444,39.84473V33.81836c0-.19533-.01017-1.05175.00982-1.25684-.08469.19922-2.79511,4.84278-2.79511,4.84278h-.72953s-2.7665-4.74121-2.80982-4.84281c.01969.21485.0128,1.06158.0128,1.25684V39.8447H51.735V31.15527h1.276L55.53624,35.33c.09255.15234.16582.31366.254.4659.09045.156.15637.25607.21562.38411a3.82355,3.82355,0,0,1,.21266-.38606,4.76419,4.76419,0,0,1,.26583-.464l2.52532-4.17473H60.265v8.68946Z"/><path class="cls-2" d="M64.126,39.84474V31.15528h1.128v8.68946Z"/><path class="cls-2" d="M74.59515,39.84474,70.61279,33.9795c-.13284-.19336-.26971-.40625-.40859-.64062-.1409-.23242-.26972-.47364-.38852-.72168.01.12109.01911.24414.02716.36816s.0141.24707.01913.36914.00906.23926.01107.35254.003.21875.003.31641v5.82129H68.73V31.15528h1.25177l3.98236,5.86524c.06441.09764.12985.20019.19625.30664s.13385.2168.20229.33007c.06842.11523.13485.23145.20128.35058.06441.11914.12779.23926.1882.36035q-.01512-.17577-.02718-.36035c-.008-.123-.01509-.24511-.02013-.36426-.005-.12109-.00805-.23632-.01007-.3496-.002-.11133-.003-.2168-.003-.31446V31.15528H75.83v8.68946Z"/><path class="cls-2" d="M73.25443,22.32181a2.48272,2.48272,0,0,1-4.96544,0c0-1.37117,2.48272-6.574,2.48272-6.574S73.25443,20.95064,73.25443,22.32181Z"/><polyline class="cls-1" points="64.711 10.42 50.299 26.5 23.505 26.5 23.505 12.401 44.055 12.401 47.19 15.536 68.427 9.335 71.889 12.81"/><polygon class="cls-2" points="39 4 39 7 36 7 36 13.013 33 13.013 33 7 30 7 30 4 39 4"/><path class="cls-2" d="M25,16.70783,10.89681,12.85,13.3335,4.36012,25,7.62414ZM14.00012,10.6471,22,12.85V9.8L14.76973,7.89939Z"/></svg>