<svg xmlns="http://www.w3.org/2000/svg" viewBox="0 0 84 44"><defs><style>.cls-1,.cls-3{fill:none;stroke:#fff;}.cls-1{stroke-width:3px;}.cls-2,.cls-4{fill:#fff;}.cls-2{fill-rule:evenodd;}.cls-3{stroke-width:3.5px;}</style></defs><g id="E109_LWR"><g id="Version_4-3" data-name="Version_4"><path class="cls-1" d="M60.88456,30.622a17.56036,17.56036,0,0,1-2.618,1.907c-.621.372-1.071.591-1.202.652a30.525,30.525,0,0,1-4.446,1.814,25.18939,25.18939,0,0,1-8.628,1.201c-.935,0-6.25.244-6.25-13.421,0-13.666,5.364-13.422,6.25-13.422a24.71071,24.71071,0,0,1,8.624,1.411,30.22126,30.22126,0,0,1,4.442,1.815c.132.06.583.28,1.205.65a17.61954,17.61954,0,0,1,2.619,1.908c1.857,1.648,4.135,4.261,3.966,7.742C65.01556,26.361,62.74256,28.972,60.88456,30.622Z"/><path class="cls-2" d="M46.9995,32.626a2.27124,2.27124,0,1,1,2.238-2.271A2.25464,2.25464,0,0,1,46.9995,32.626Zm0-6.233a1.97315,1.97315,0,0,1-1.958-1.987v-8.78a1.95821,1.95821,0,1,1,3.916,0v8.78A1.97315,1.97315,0,0,1,46.9995,26.393Z"/><path class="cls-3" d="M28.93956,35.606a41.87508,41.87508,0,0,0,2.562,5.254"/><path class="cls-3" d="M31.50156,3.349a24.429,24.429,0,0,0-2.946,6.004"/><path class="cls-2" d="M33.64856.096l2.086,6.258-9.388-4.172Zm0,43.808-7.302-2.086,9.388-4.172Z"/><path class="cls-4" d="M19,37.954l14.72058-5.83679a30.87982,30.87982,0,0,1-.60681-3.48633l-.01318-.03326L19,34.1886Z"/><path class="cls-4" d="M19,27.71649v3.76538l13.88318-5.50464c-.05817-1.01971-.0907-2.08349-.0907-3.20233,0-.18.0047-.35211.00623-.52954Z"/><path class="cls-4" d="M19,21.24335v3.76538L32.88824,19.5025q.12424-2.10846.4159-3.93023Z"/><path class="cls-4" d="M35.92627,8.06055,19,14.77167v3.76538l14.936-5.922a15.41189,15.41189,0,0,1,1.9953-4.54193Z"/></g></g></svg>