<svg xmlns="http://www.w3.org/2000/svg" viewBox="0 0 84 44"><defs><style>.cls-1{fill:#fff;}.cls-2{fill:none;stroke:#fff;stroke-miterlimit:10;stroke-width:1.5px;}</style></defs><g id="E11C_HDC"><g id="Version_6"><polygon class="cls-1" points="26.677 17.238 26.677 21.645 25.442 20.41 23.514 22.338 22.546 21.369 21.577 20.401 23.505 18.473 22.27 17.238 26.677 17.238"/><path class="cls-1" d="M37.88962,11.95781a1.50882,1.50882,0,0,0-.57054.11308L34.27536,9.02715l-.99489-.1804.1723.95558L36.507,12.8566a1.51523,1.51523,0,1,0,1.38265-.89879Z"/><line class="cls-2" x1="25.83915" y1="43.28023" x2="62.06154" y2="27.89193"/><path class="cls-1" d="M31.26758,21.36493l.54638-.54633.03174-.0318a10.15944,10.15944,0,0,1,1.63672-1.8894l-.95776-.95776-1.28589,1.28564a8.76482,8.76482,0,0,1-2.25684-4.93237h1.62842V12.75958H28.95068a8.79619,8.79619,0,0,1,2.05371-5.16675l1.22266,1.2226,1.08423-1.08417L32.08887,6.509a8.79745,8.79745,0,0,1,5.1665-2.04754V5.83209h1.53345V4.49939a8.80124,8.80124,0,0,1,4.92383,2.252l-.97657.97675,1.08423,1.08423.93408-.93421a8.78418,8.78418,0,0,1,1.82984,4.88141H44.92041l.00977,1.20578c.90844-.175,1.82617-.36536,2.72607-.559.165-.03546.3252-.06958.48755-.10437a.1459.1459,0,0,0,0-.02309,10.37635,10.37635,0,1,0-16.87622,8.08606Z"/><path class="cls-1" d="M32.24121,38.19385a5.88055,5.88055,0,0,1-3.27832-1.0293c-.314.13428-.77441.32324-1.43555.57227l-.17773.06689-.19043-.00293a3.01393,3.01393,0,0,1-2.91162-1.77246,5.67962,5.67962,0,0,1-.54248-3.606c.3418-1.249.96-2.23,3.24267-3.83447,1.18848-.83447,4.04737-2.60889,4.17481-2.68848l.02539-.0542.126-.26855c.17285-.33887.33252-.68457.5-1.04639a12.11613,12.11613,0,0,1,3.1997-4.67041,22.32932,22.32932,0,0,1,6.977-3.18994c.39844-.12842.78077-.25146,1.13868-.37207a69.56672,69.56672,0,0,1,7.30908-1.92724c.18994-.02881.32422-.05957.43847-.08545a3.19959,3.19959,0,0,1,1.27247-.0669c.74267.08643,4.51025.59766,5.74072,2.1499a20.2556,20.2556,0,0,1,2.061,4.88819l.04639.19189-.03027.19483a6.32629,6.32629,0,0,1-.64991,2.15576,3.1535,3.1535,0,0,1-1.30664,1.19726,5.242,5.242,0,0,1-8.37793,3.52539c-1.51123.63477-6.07226,2.54981-12.374,5.17872a5.2976,5.2976,0,0,1-1.959,3.47509A4.86435,4.86435,0,0,1,32.24121,38.19385Zm-2.93506-3.34619.46582.415a3.45316,3.45316,0,0,0,4.2627.33154,3.32884,3.32884,0,0,0,1.2334-2.59229l.00732-.6582.60791-.25342c8.10059-3.37842,13.47656-5.64062,13.47754-5.64111l.583-.24512.47168.42188a3.41075,3.41075,0,0,0,4.36133.2705A3.3652,3.3652,0,0,0,56.021,24.3042l.00683-.481.37988-.29492a1.25783,1.25783,0,0,1,.36036-.188,1.49368,1.49368,0,0,0,.78125-.54883,4.34051,4.34051,0,0,0,.36865-1.25586,19.23648,19.23648,0,0,0-1.689-4c-.41211-.51269-2.60009-1.12646-4.35156-1.33105a1.3023,1.3023,0,0,0-.59765.03076c-.15186.03467-.33008.07471-.583.11279A67.6937,67.6937,0,0,0,43.729,18.19238c-.36621.124-.75732.25-1.165.38135a20.85285,20.85285,0,0,0-6.34521,2.85156,10.38958,10.38958,0,0,0-2.62988,3.94532c-.17871.38623-.3501.75585-.523,1.09423l-.103.22022a2.02969,2.02969,0,0,1-.32031.53906,1.938,1.938,0,0,1-.39551.32861c-.09863.064-3.00635,1.86915-4.14941,2.67188-1.97364,1.38721-2.26612,2.00488-2.46387,2.72607a4.32027,4.32027,0,0,0,.458,2.3042c.05175.12256.1997.47608.92285.5376.85693-.32715,1.3164-.53271,1.5415-.63379Zm1.7749-8.86231Z"/></g></g></svg>