<svg xmlns="http://www.w3.org/2000/svg" viewBox="0 0 84 44"><defs><style>.cls-1,.cls-2,.cls-3{fill:#fff;}.cls-2{fill-rule:evenodd;}.cls-3{stroke:#fff;stroke-miterlimit:10;stroke-width:0.25px;}</style></defs><g id="E167_ACA_LF_inactive"><g id="Version_8"><polygon class="cls-1" points="68.2 16.311 64.6 12.611 61.1 16.211 59.2 14.311 59.2 21.611 66.5 21.611 64.7 19.811 68.2 16.311"/><path class="cls-1" d="M57.30625,38.47136h6.44043c.03223-.46289.05176-.83593.05176-1.2207a19.72412,19.72412,0,1,0-39.44824,0c0,.40234.02343.80762.0498,1.2207h6.44043c-.03223-.39355-.04687-.79492-.04687-1.2207,0-.41309.01562-.81543.04589-1.19727l-4.02539.00489.02246-.27246a17.16168,17.16168,0,0,1,4.00586-9.67871l.17579-.209,2.74121,2.76563a17.834,17.834,0,0,1,1.72168-1.71387l-2.75586-2.7627.208-.1748a17.10712,17.10712,0,0,1,9.65723-4.00733l.27246-.02294-.001.10937-.01172,3.78125c.38379-.02734.84375-.044,1.22656-.044.37207,0,.82226.01661,1.20117.044l.001-3.89062.27148.02294a17.13044,17.13044,0,0,1,9.668,4.00831l.208.17578-.07715.07617-2.67383,2.66992a18.38876,18.38876,0,0,1,1.71778,1.7168l2.74414-2.75293.17578.208A17.19044,17.19044,0,0,1,61.317,35.82l.02246.2705H57.31211c.0293.36328.043.74414.043,1.16016C57.35508,37.66277,57.33848,38.072,57.30625,38.47136Z"/><path class="cls-2" d="M44.08469,34.15143a3.11888,3.11888,0,1,1-3.14317,3.08879,2.98073,2.98073,0,0,1,.1442-.899L36.804,31.99888l-1.01053-3.12169,3.09436,1.07329L43.15867,34.282a3.07141,3.07141,0,0,1,.926-.13054"/><path class="cls-2" d="M16.576,26.21574l23.8005-24.1425,1.8045,1.7793L18.38054,27.995Z"/><path class="cls-3" d="M18.4,9.6109v.1l-2.5,1.6v10.5a1.87435,1.87435,0,0,0,1.34082,1.91565l1.71991-1.74463-1.16076.029v-6.3h5.1v-2.1H17.8v-1.2l1.6-1h9.98175l1.77448-1.8H20.3V9.31085c1-1.5,2.3-3.3,2.9-3.5a59.15944,59.15944,0,0,1,7.5-.2c1.74005,0,3.17871.01959,4.351.0492l1.92956-1.95734C34.9071,3.61127,31.85583,3.6109,30.7,3.6109a71.32856,71.32856,0,0,0-7.9.3c-1.3.5-2.8,2.5-3.6,3.7H15.8l.4,2Z"/><path class="cls-3" d="M42.9,9.6109h2.2l.4-2h-3.2c-.24671-.38379-.54138-.81976-.86383-1.25726L40.05841,7.75122c.34717.478.70319,1.00586,1.04163,1.55963V9.6109H38.225l-1.77454,1.8H41.8l1.7,1v1.1H38.3v2.1h7.1V11.31085l-2.5-1.6Z"/><polygon class="cls-3" points="26.493 21.511 28.2 21.511 30.7 19.511 28.465 19.511 26.493 21.511"/></g></g></svg>