<svg xmlns="http://www.w3.org/2000/svg" viewBox="0 0 84 44"><defs><style>.cls-1,.cls-2{fill:#fff;}.cls-1{fill-rule:evenodd;}</style></defs><g id="E142_Hybridfehler"><g id="Version_4-2" data-name="Version_4"><path id="_2" data-name="2" class="cls-1" d="M42.606,27.669l2.163.623-5.395,5.451-.901-7.265,2.155.621,1.585-8.582-6.917,2.316L38.887,2h5.375L38.587,17.747l8.782-4.366ZM24,14.029V10.421l7.63,4.938-.047.033.047.033L24,20.363V14.029Z"/><path id="_1" data-name="1" class="cls-1" d="M66,30V26H77v4ZM16,22v4h4v4H16v4H12V30H8V26h4V22Z"/><path class="cls-2" d="M25.0199,14.02441H24.5A13.9614,13.9614,0,0,0,13.05786,20h3.87921A10.97458,10.97458,0,0,1,24.5,16.97559h.5199Z"/><path class="cls-2" d="M59.5,14.02441H51v2.95118h8.5A11.03341,11.03341,0,0,1,69.762,24h3.12317A13.99555,13.99555,0,0,0,59.5,14.02441Z"/><path class="cls-2" d="M59.5,39.02441h-35A10.97458,10.97458,0,0,1,16.93707,36H13.05786A13.9614,13.9614,0,0,0,24.5,41.97559h35A13.99555,13.99555,0,0,0,72.88519,32H69.762A11.03341,11.03341,0,0,1,59.5,39.02441Z"/></g></g></svg>