<svg xmlns="http://www.w3.org/2000/svg" viewBox="0 0 40 40"><defs><style>.cls-1,.cls-3{fill:#fff;}.cls-1,.cls-2{stroke:#fff;stroke-miterlimit:10;}.cls-1{stroke-width:0.5px;}.cls-2{fill:none;stroke-width:1.5px;}</style></defs><g id="E2C1_Nebelschlussleuchte"><path class="cls-1" d="M31.32715,28.45312l-.12207-.32226a10.61134,10.61134,0,0,1-.75781-3.43652,12.12732,12.12732,0,0,1,.8125-3.91895l.12207-.32227.67675-1,.24121-.66992a11.24269,11.24269,0,0,0,.64942-3.43164,11.26649,11.26649,0,0,0-.6416-3.33594l-.23145-.67382-.65234-.88868-.124-.31933a13.18071,13.18071,0,0,1-.89746-3.90723A8.0887,8.0887,0,0,1,32.46658,1H30.86111a7.91709,7.91709,0,0,0-2.00955,5.22656,11.29531,11.29531,0,0,0,.61328,3.54785l.26075.67871.78027,1,.12305.31934a10.40305,10.40305,0,0,1,.76855,3.5791,11.91778,11.91778,0,0,1-.74609,3.77539l-.1211.32617-.67675,1-.249.67286a11.18947,11.18947,0,0,0-.708,3.56836,9.40136,9.40136,0,0,0,.624,3.085l.249.67382.70508,1,.124.31836a12.51937,12.51937,0,0,1,.81641,4.07227C31.41016,35.23828,30.2462,37.62012,29.32042,39h1.624c.19239-.28906.38282-.55859.56446-.81738a7.456,7.456,0,0,0,1.45692-4.335,12.9433,12.9433,0,0,0-.707-3.82129l-.251-.68457Z"/><path class="cls-2" d="M15.03826,37.95324a18.898,18.898,0,0,1-.072-36A52.95049,52.95049,0,0,1,18.13559,20.053,52.96666,52.96666,0,0,1,15.03826,37.95324Z"/><rect class="cls-3" x="23.5" y="10.25" width="15" height="1.5"/><rect class="cls-3" x="23.5" y="19.25" width="15" height="1.5"/><rect class="cls-3" x="23.5" y="28.25" width="15" height="1.5"/></g></svg>