<svg xmlns="http://www.w3.org/2000/svg" viewBox="0 0 84 44"><defs><style>.cls-1,.cls-2{fill:#fff;fill-rule:evenodd;}.cls-2{stroke:#fff;stroke-miterlimit:10;stroke-width:0.50962px;}</style></defs><g id="E269_Presense_notbremsfunktion"><g id="Version_6"><path class="cls-1" d="M56.95388,15.73089l2.33317-1.73822a19.056,19.056,0,0,1,3.29756,7.85017l-2.84842.50941A16.08756,16.08756,0,0,0,56.95388,15.73089Zm-7.8385-5.7542L50,7.17786a18.56582,18.56582,0,0,1,7.20077,4.38734l-2.00945,2.11638A15.67968,15.67968,0,0,0,49.11538,9.97669Zm-9.66421.03111L38.549,7.21188a18.3741,18.3741,0,0,1,8.3586-.75245L46.50806,9.372A15.52111,15.52111,0,0,0,39.45117,10.0078ZM38.62,43.06987A18.56237,18.56237,0,0,1,31.428,38.668l2.01237-2.1125A15.67776,15.67776,0,0,0,39.51047,40.273ZM26.06555,28.37962l2.84842-.50455a16.06748,16.06748,0,0,0,2.7687,6.62719l-2.33512,1.73433A19.01443,19.01443,0,0,1,26.06555,28.37962Zm-.27512-3.21492v-.035a19.18181,19.18181,0,0,1,.46566-4.22305H29.261a16.11969,16.11969,0,0,0-.57844,4.22305ZM49.17565,40.26229,50.07,43.06015a18.26371,18.26371,0,0,1-5.74253.92161,18.45944,18.45944,0,0,1-2.617-.18665l.40636-2.91259A15.54819,15.54819,0,0,0,49.17565,40.26229Zm7.8142-5.78433,2.338,1.72946a18.77607,18.77607,0,0,1-6.33749,5.59282l-1.35421-2.59858A15.87686,15.87686,0,0,0,56.98985,34.478Z"/><path class="cls-1" d="M40.28326,16.23609,31.90191.57608a.98785.98785,0,0,0-1.79614,0l-8.38136,15.66A1.33924,1.33924,0,0,0,23.03272,18H38.99338A1.37476,1.37476,0,0,0,40.28326,16.23609ZM32,16H30V14h2Zm0-4H30V4h2Z"/><path class="cls-1" d="M60.8043,33.595l-2.63-1.142a13.78547,13.78547,0,0,0,2.163-7.081c0-.086-.004-.172-.00665-.255l3.02242-.239c.00532.164.008.328.008.494A15.60514,15.60514,0,0,1,60.8043,33.595Z"/><path class="cls-2" d="M43.30988,28.04026H39.34281a3.07552,3.07552,0,0,1-5.59356.11941c-.119,0-.51572-.0398-1.50748-.07961-.79342-.0398-.99177-.87571-.99177-1.47278a3.86533,3.86533,0,0,1,.47605-2.14948c.47605-.59707.99176-.99512,2.81661-1.39317.99177-.23883,3.45135-.63688,3.45135-.63688a.52921.52921,0,0,1,.19835-.03981c.07935-.0398.119-.11941.357-.27864.99177-.8359,2.14222-2.18927,3.76871-2.66693a16.48545,16.48545,0,0,1,6.982.07961c1.78518.43785,3.96706,2.10966,5.31587,2.46791,1.62649.39805,2.22155,0,2.57859,1.27376a15.46824,15.46824,0,0,1,.55539,3.9009c0,1.03493-2.18189.8359-2.26123.87571a2.99551,2.99551,0,0,1-2.0232,1.75142,3.12223,3.12223,0,0,1-3.53069-1.75143Zm7.5771-1.37478a2.8162,2.8162,0,0,1,.03967.3,1.85152,1.85152,0,0,0,1.82485,1.67182,1.82279,1.82279,0,0,0,1.82484-1.67182c0-.07961.03967-.22043,0-.3,0,0,.87276-.0582,1.66617-.13781a.10537.10537,0,0,0,.119-.11942,14.17308,14.17308,0,0,0-.3967-2.62713c0-.03981-.03967-.07961-.119-.07961a11.52857,11.52857,0,0,1-1.50748-.31844,5.98216,5.98216,0,0,1-1.46781-.59708c-.43638-.23883-.91243-.51746-1.38848-.7961a9.39343,9.39343,0,0,0-2.45958-1.07474,15.13024,15.13024,0,0,0-6.268-.07961,5.06656,5.06656,0,0,0-1.58683.91552c-.59506.47766-1.11077,1.03493-1.62649,1.433a7.77665,7.77665,0,0,1-.63473.55727,3.56258,3.56258,0,0,1-.51572.07961c-1.3488.199-1.66617.27864-2.6976.47766a9.18915,9.18915,0,0,0-2.3009.63689,2.09968,2.09968,0,0,0-.39671.23883,2.843,2.843,0,0,0-.27769,1.35337.10537.10537,0,0,0,.119.11941,7.86135,7.86135,0,0,1,.87275.07961H34.741v.11942a1.82561,1.82561,0,0,0,3.6497.07961v-.26024Z"/></g></g></svg>