<svg xmlns="http://www.w3.org/2000/svg" viewBox="0 0 84 44"><defs><style>.cls-1{fill:#fff;fill-rule:evenodd;}</style></defs><g id="E317_Fahrwerkfehler"><g id="Version_4"><path id="Version_4-2" data-name="Version_4" class="cls-1" d="M52.18126,23.44085l-9.62988-.00555H25.54321l0,9.07224a36.48065,36.48065,0,0,1,5.91135,2.27763.375.375,0,0,1,.184.429l-.95284,3.56194a.37749.37749,0,0,1-.37887.28131,37.03154,37.03154,0,0,1-6.972-1.16931,36.85448,36.85448,0,0,1-6.63108-2.48188.3692.3692,0,0,1-.184-.42487l.95813-3.56166a.36991.36991,0,0,1,.3736-.28436,36.77661,36.77661,0,0,1,4.75785.651V11.502A36.60894,36.60894,0,0,1,16.66053,9.215a.36059.36059,0,0,1-.184-.42764l.95256-3.56305a.376.376,0,0,1,.3736-.28158,37.23252,37.23252,0,0,1,6.97755,1.17069,36.70605,36.70605,0,0,1,6.62556,2.47772.36756.36756,0,0,1,.184.429L30.637,12.58208a.371.371,0,0,1-.37334.28131,37.48871,37.48871,0,0,1-4.72041-.63856v8.28209l16.3638,0H52.15964a7.92039,7.92039,0,0,0-.11918,1.40183A8.46719,8.46719,0,0,0,52.18126,23.44085Z"/><path id="Version_4-3" data-name="Version_4" class="cls-1" d="M59.897,16.79262A5.135,5.135,0,1,1,54.76,21.931,5.13355,5.13355,0,0,1,59.897,16.79262Zm7.43234,20.20317a.36842.36842,0,0,1-.28685.36805,37.06388,37.06388,0,0,1-7.0424.67514,36.836,36.836,0,0,1-7.03713-.67514.37285.37285,0,0,1-.29239-.36806V33.308a.37926.37926,0,0,1,.28685-.36806,37.07931,37.07931,0,0,1,5.46181-.64271V29.8611a8.45768,8.45768,0,0,0,1.47777.13414,8.16274,8.16274,0,0,0,1.45615-.13414l0,2.42922a36.59647,36.59647,0,0,1,5.68935.64965.36931.36931,0,0,1,.28685.368ZM58.41927,13.99534l0-2.29093a36.40163,36.40163,0,0,1-5.45627-.64022.378.378,0,0,1-.29239-.36667V7.00726a.3653.3653,0,0,1,.28685-.36279,36.77252,36.77252,0,0,1,14.08507-.00554.37075.37075,0,0,1,.28685.36833v3.69026a.3627.3627,0,0,1-.28685.3639,36.93646,36.93646,0,0,1-5.68935.6538v2.28012a7.93739,7.93739,0,0,0-1.45615-.138A8.22412,8.22412,0,0,0,58.41927,13.99534Z"/></g></g></svg>