<svg xmlns="http://www.w3.org/2000/svg" viewBox="0 0 84 44"><defs><style>.cls-1{fill:#fff;fill-rule:evenodd;}</style></defs><g id="E341_ACA_QF_Lenkrad"><path id="Version_2" class="cls-1" d="M42.01386,4.81247a17.18753,17.18753,0,1,0,17.15331,17.188A17.2326,17.2326,0,0,0,42.01386,4.81247ZM28.79819,16.00415a14.49252,14.49252,0,0,1,26.43308.00829.745.745,0,0,1,.0091.74575,1.13379,1.13379,0,0,1-1.01852.44682H29.80328a1.13379,1.13379,0,0,1-1.01852-.44682A.75051.75051,0,0,1,28.79819,16.00415Zm18.12243,7.8342A5.01574,5.01574,0,0,1,42.003,28.9144h-.00086a5.08027,5.08027,0,1,1,4.91845-5.07605Zm-16.70664,5.77c-.41806,0-.8214-.34307-1.106-.94114l-.06022-.12888a14.49853,14.49853,0,0,1-1.54707-6.21918c.01647-1.22935.68841-1.22935,1.22778-1.22935h.04722l.04722.00006,3.692-.0058.13386-.00016-.00086.13387-.0039.88525a9.44263,9.44263,0,0,0,1.14546,4.5025l.05069.09353-.07972.07018-3.01008,2.64032A.87182.87182,0,0,1,30.214,29.60838Zm20.322,4.13366-.0195.02a.90811.90811,0,0,1-.09574.08432,14.46826,14.46826,0,0,1-16.805.00547.538.538,0,0,1-.10441-.08416l-.02945-.02876a.84154.84154,0,0,1-.32363-.62206c-.00953-.38352.256-.82444.83527-1.38747l2.32384-2.03976.08059-.0705.08621.0633A9.33955,9.33955,0,0,0,47.541,29.68235l.08621-.06314.08058.07045L50.026,31.72481c.587.56819.85346,1.00932.84263,1.39268A.84284.84284,0,0,1,50.53593,33.742Zm4.38082-5.075c-.2751.59775-.67844.94136-1.106.94136a.86068.86068,0,0,1-.53027-.19328l-3.02395-2.64573-.081-.07073.052-.0939a9.31063,9.31063,0,0,0,1.145-4.50228V21.08393l.133.00016,3.70064.0058.04679-.00006h.04679c.53764,0,1.20741,0,1.22084,1.22475a14.453,14.453,0,0,1-1.54489,6.22724Z"/></g></svg>