<svg xmlns="http://www.w3.org/2000/svg" viewBox="0 0 84 44"><defs><style>.cls-1{fill:#fff;fill-rule:evenodd;}</style></defs><g id="E32E_Oled"><g id="Version_1"><path id="LED" class="cls-1" d="M78.22609,24.6343a11.90962,11.90962,0,0,1-.72276,2.60633A8.789,8.789,0,0,1,76.229,29.41589a8.17817,8.17817,0,0,1-1.88357,1.66156A15.316,15.316,0,0,1,71.767,32.47718a8.05454,8.05454,0,0,1-3.01351.45C68.18506,32.92717,61,33,61,33V11l7.75351.02524a12.26992,12.26992,0,0,1,3.124.20209A9.02381,9.02381,0,0,1,74.448,12.2856a7.19551,7.19551,0,0,1,1.86863,1.66056,8.63412,8.63412,0,0,1,1.24145,2.17626,11.93072,11.93072,0,0,1,.68592,2.60633,19.77653,19.77653,0,0,1,.21206,2.95277A18.27365,18.27365,0,0,1,78.22609,24.6343Zm-4.3077-5.24451a9.94641,9.94641,0,0,0-.50375-1.84972,7.45127,7.45127,0,0,0-.82132-1.41865,2.36181,2.36181,0,0,0-.92884-.679,3.45245,3.45245,0,0,0-1.575-.3345c-.5366-.02887-1.72826-.10055-2.33156-.10055H64.77134V28.945l3.60984.08761a6.7846,6.7846,0,0,0,1.67848-.19712,4.91007,4.91007,0,0,0,1.40969-.59434,4.52819,4.52819,0,0,0,1.124-1.0035,5.57507,5.57507,0,0,0,.82132-1.42263,8.73362,8.73362,0,0,0,.50375-1.84972,15.36863,15.36863,0,0,0,0-4.57551ZM43,11H57v3H47v6h8v3H47v7H57v3H43ZM27,11h4V30h9l-.11722,3H27Z"/><path id="O" class="cls-1" d="M23.24,27.55124a9.26717,9.26717,0,0,1-1.105,2.23,6.92269,6.92269,0,0,1-1.68645,1.72527,7.753,7.753,0,0,1-2.33853,1.118,10.78425,10.78425,0,0,1-3.06826.39723,11.26357,11.26357,0,0,1-3.14791-.39723,7.70148,7.70148,0,0,1-2.36242-1.118,6.6712,6.6712,0,0,1-1.66952-1.72527,9.225,9.225,0,0,1-1.0732-2.23A13.48776,13.48776,0,0,1,6.21322,24.928,24.03919,24.03919,0,0,1,6.044,22.024a21.9491,21.9491,0,0,1,.18616-2.904,13.48845,13.48845,0,0,1,.61027-2.61927,9.49171,9.49171,0,0,1,1.105-2.23,6.77384,6.77384,0,0,1,1.68247-1.72528,7.82568,7.82568,0,0,1,2.34151-1.115,10.82821,10.82821,0,0,1,3.07225-.39722,11.26394,11.26394,0,0,1,3.1479.39722,7.72694,7.72694,0,0,1,2.35944,1.115,6.65406,6.65406,0,0,1,1.66853,1.72528,9.15244,9.15244,0,0,1,1.07419,2.23A13.63662,13.63662,0,0,1,23.86319,19.12a24.03919,24.03919,0,0,1,.16924,2.904,21.94738,21.94738,0,0,1-.18617,2.904A13.78588,13.78588,0,0,1,23.24,27.55124Zm-3.47046-7.7274a10.785,10.785,0,0,0-.37433-1.85171,6.518,6.518,0,0,0-.64411-1.48335,4.17562,4.17562,0,0,0-.92785-1.08913,3.82641,3.82641,0,0,0-1.22949-.671,5.33014,5.33014,0,0,0-3.1041,0,3.85159,3.85159,0,0,0-1.23248.671,4.13234,4.13234,0,0,0-.93183,1.08913,6.5184,6.5184,0,0,0-.64412,1.48335,10.786,10.786,0,0,0-.37432,1.85171,20.05088,20.05088,0,0,0,0,4.40727,10.89374,10.89374,0,0,0,.37432,1.85569,6.42322,6.42322,0,0,0,.64412,1.48336,4.21331,4.21331,0,0,0,.93183,1.08912,3.776,3.776,0,0,0,1.23248.671,5.41959,5.41959,0,0,0,3.1041,0,3.75158,3.75158,0,0,0,1.22949-.671,4.25848,4.25848,0,0,0,.92785-1.08912,6.42278,6.42278,0,0,0,.64411-1.48336,10.89275,10.89275,0,0,0,.37433-1.85569,20.05252,20.05252,0,0,0,0-4.40727Z"/></g></g></svg>