<svg xmlns="http://www.w3.org/2000/svg" viewBox="0 0 84 44"><defs><style>.cls-1{fill:#fff;}</style></defs><g id="E30A_E85"><g id="Version_2-2" data-name="Version_2"><path class="cls-1" d="M19,12V9H13.63714V3.54988a2.72968,2.72968,0,0,0-2.811-2.85944A2.62264,2.62264,0,0,0,8.2948,3.54988v29.486l.0969-.00025a5.33352,5.33352,0,1,0,5.16838-.01381l.07706-.00025V26H19V23H13.63714V19H19V16H13.63714V12Z"/><path class="cls-1" d="M28,42V20H42v3H31v6H41v3H31v7H42v3Z"/><path class="cls-1" d="M55.77051,30.46q4.582,2.11963,4.583,5.72461a5.64388,5.64388,0,0,1-2.00586,4.5,7.80613,7.80613,0,0,1-5.26661,1.7207,7.781,7.781,0,0,1-5.251-1.7207,5.64385,5.64385,0,0,1-2.00586-4.5q0-3.605,4.583-5.72461-3.72657-2.14746-3.72657-5.37891a4.96019,4.96019,0,0,1,1.76563-3.92089,6.818,6.818,0,0,1,4.63476-1.53223,6.81141,6.81141,0,0,1,4.64258,1.53223,4.96861,4.96861,0,0,1,1.75782,3.92089Q59.48145,28.3125,55.77051,30.46Zm1.65332,5.72461a3.33918,3.33918,0,0,0-1.03711-2.456,11.20006,11.20006,0,0,0-3.30567-2.03614,11.23271,11.23271,0,0,0-3.29,2.03614,3.33915,3.33915,0,0,0-1.03711,2.456,3.73629,3.73629,0,0,0,1.1875,2.92969,5.16275,5.16275,0,0,0,6.28711,0A3.72531,3.72531,0,0,0,57.42383,36.18457Zm-4.34278-6.89648q3.48633-1.56153,3.48633-4.207a3.075,3.075,0,0,0-.9248-2.373,4.23691,4.23691,0,0,0-5.1084,0,3.07787,3.07787,0,0,0-.92383,2.373Q49.61035,27.72657,53.08105,29.28809Z"/><path class="cls-1" d="M67.126,28.73242a6.3,6.3,0,0,1,4.08691-1.32226,6.72416,6.72416,0,0,1,4.793,1.94629,6.8309,6.8309,0,0,1,2.043,5.19043,7.99479,7.99479,0,0,1-2.05078,5.627,7.06088,7.06088,0,0,1-5.46094,2.23144,6.34944,6.34944,0,0,1-4.49728-1.61274A7.26069,7.26069,0,0,1,63.98916,35.937h2.74347a4.70671,4.70671,0,0,0,1.27474,3.10968,3.61351,3.61351,0,0,0,2.6049.77593,4.179,4.179,0,0,0,3.23734-1.18883,6.03367,6.03367,0,0,0,1.26953-3.83106,5.03337,5.03337,0,0,0-1.292-3.65136,4.45105,4.45105,0,0,0-3.35059-1.33692c-1.57226,0-3.65387,2.02718-4.26376,3.19108H63.98916l1.01393-13.0026h11.994v2.61426H67.60645Z"/></g></g></svg>