<svg xmlns="http://www.w3.org/2000/svg" viewBox="0 0 84 44"><defs><style>.cls-1{fill:#fff;fill-rule:evenodd;}</style></defs><g id="E302_Kindersicherung"><path id="Version_2-2" data-name="Version_2" class="cls-1" d="M57.296,15.1938a11.31959,11.31959,0,0,0-.905-7.861A13.064,13.064,0,0,0,49.414.9888c-5.857-2.308-12.398-.198-15.218,4.908l3.383,1.913c1.885-3.402,6.366-4.768,10.427-3.164a9.21162,9.21162,0,0,1,4.924,4.443,7.31877,7.31877,0,0,1,.356,5.937l-.463,1.197h.009l-1.649,4.338H46.185a6.272,6.272,0,1,0-9.252,0H28.594a2.61588,2.61588,0,0,0-1.861.692,2.43165,2.43165,0,0,0-.684,1.768v17.24a1.99684,1.99684,0,0,0,.397,1.186,1.93081,1.93081,0,0,0,1.034.692,55.04091,55.04091,0,0,0,28.161,0,1.90023,1.90023,0,0,0,1.029-.692,2.0026,2.0026,0,0,0,.396-1.186v-17.24a2.40752,2.40752,0,0,0-.684-1.768,2.27422,2.27422,0,0,0-1.091-.564Zm-15.735-3.163a4.2798,4.2798,0,1,1-4.229,4.274A4.25159,4.25159,0,0,1,41.561,12.0308Zm10.467,19.061a2.07473,2.07473,0,0,1-1.304-.443l-3.157-2.889c-.284-.262-.382.134-.382.134a10.695,10.695,0,0,1-.15,1.238,24.86714,24.86714,0,0,0,.101,3.524l1.008,6.501a2.05581,2.05581,0,0,1-.465,1.529,2.523,2.523,0,0,1-3.335.43,2.211,2.211,0,0,1-.899-1.274l-1.448-4.36a.658.658,0,0,0-.672-.442.64059.64059,0,0,0-.667.442l-.988,4.378a2.198,2.198,0,0,1-.896,1.279,2.51862,2.51862,0,0,1-3.332-.43,2.05431,2.05431,0,0,1-.474-1.535l1.008-6.495a23.24542,23.24542,0,0,0,.098-3.524,11.19945,11.19945,0,0,1-.143-1.238s-.098-.396-.38-.134l-3.154,2.89a2.09422,2.09422,0,0,1-1.309.442,1.93474,1.93474,0,0,1-2.017-1.849,1.76536,1.76536,0,0,1,.534-1.256s4.062-4.047,4.93-4.757a9.92337,9.92337,0,0,1,3.366-1.325,5.86385,5.86385,0,0,1,1.488-.047,6.56465,6.56465,0,0,0,2.131.355,6.79043,6.79043,0,0,0,2.218-.372,5.73111,5.73111,0,0,1,1.482.04,10.27332,10.27332,0,0,1,3.361,1.32c.873.715,4.929,4.768,4.929,4.768a1.75508,1.75508,0,0,1,.534,1.25A1.93649,1.93649,0,0,1,52.028,31.0918Z"/></g></svg>