<svg xmlns="http://www.w3.org/2000/svg" viewBox="0 0 84 44"><defs><style>.cls-1,.cls-2{fill:#fff;}.cls-2{fill-rule:evenodd;}</style></defs><g id="E334_Handsoff"><g id="Version_3"><path class="cls-1" d="M63.21447,35.86331s-3.7809-7.51333-5.96219-9.11295-2.85991-3.63548-3.39311-6.3015.21237-2.22976-1.22683-4.45952,0-2.18129,0-2.18129a4.35505,4.35505,0,0,1,2.681,3.0538c.38778,2.22976,1.86841,2.10659,1.86841,2.10659s2.1338.34986,1.80126-4.69368c0,0,1.68683-.4851,2.10609,1.8844a4.77317,4.77317,0,0,0,.5793,1.84433s.3629.15091.3629-.51417.01386-.87292.01386-.87292,1.84283-.1247,1.75969,2.14766a1.02705,1.02705,0,0,0,.49882.83135c.4711.2217.91448.36026.88677,1.49644S65.0519,27.521,65.0519,27.521a3.10033,3.10033,0,0,1,.74822,3.49168A20.12442,20.12442,0,0,1,63.21447,35.86331Z"/><path class="cls-1" d="M20.78553,35.86331s3.7809-7.51333,5.96219-9.11295,2.85991-3.63548,3.39311-6.3015-.21237-2.22976,1.22683-4.45952,0-2.18129,0-2.18129a4.35505,4.35505,0,0,0-2.681,3.0538c-.38778,2.22976-1.86841,2.10659-1.86841,2.10659s-2.1338.34986-1.80126-4.69368c0,0-1.68683-.4851-2.10609,1.8844a4.77317,4.77317,0,0,1-.5793,1.84433s-.3629.15091-.3629-.51417-.01386-.87292-.01386-.87292-1.84283-.1247-1.75969,2.14766a1.02705,1.02705,0,0,1-.49882.83135c-.4711.2217-.91448.36026-.88677,1.49644s.13856,6.42913.13856,6.42913a3.10033,3.10033,0,0,0-.74822,3.49168A20.12442,20.12442,0,0,0,20.78553,35.86331Z"/><path class="cls-2" d="M56.66113,27.55664a9.01432,9.01432,0,0,1-.94543-.80151,14.58739,14.58739,0,0,1-.74,1.78662l-.059.12524c-.27509.59778-.67841.94141-1.106.94141a.8605.8605,0,0,1-.53027-.19336l-3.02393-2.64575-.081-.07068.052-.09387a9.31028,9.31028,0,0,0,1.145-4.50232V21.084l.133.00013,1.46723.00232c-.031-.1471-.06427-.2931-.09381-.44092a12.80312,12.80312,0,0,1-.25733-2.0625,2.38737,2.38737,0,0,0-.41333-1.37793H31.79175a2.38737,2.38737,0,0,0-.41333,1.37793,12.80312,12.80312,0,0,1-.25733,2.0625c-.02954.14782-.0628.29382-.09381.44092l1.48761-.00232.13385-.00013-.00085.13379L32.644,22.103a9.44215,9.44215,0,0,0,1.14545,4.50244l.05072.0935-.07971.07032-3.01007,2.64026a.87139.87139,0,0,1-.53638.19885c-.418,0-.82141-.343-1.106-.94116l-.06024-.12891a14.57859,14.57859,0,0,1-.74493-1.80322,8.96261,8.96261,0,0,1-.96393.82153,6.47929,6.47929,0,0,0-1.12329,1.18726,17.15162,17.15162,0,0,0,31.57019.00171A6.48445,6.48445,0,0,0,56.66113,27.55664ZM42.013,18.75928a5.08028,5.08028,0,0,1-.00995,10.155H42.0022a5.08059,5.08059,0,0,1,.0108-10.155Zm8.523,14.98266-.01953.02014a.91725.91725,0,0,1-.0957.08436,14.46832,14.46832,0,0,1-16.805.00537.54075.54075,0,0,1-.10443-.08411l-.02942-.02869a.842.842,0,0,1-.32367-.62207c-.00952-.38354.25605-.82446.83527-1.38745l2.32385-2.03979.08063-.07056.08618.06323a9.33965,9.33965,0,0,0,11.05689,0l.08624-.06323.08056.07056L50.026,31.72485c.587.56812.85352,1.00928.84265,1.39258A.84229.84229,0,0,1,50.536,33.74194Z"/><path class="cls-2" d="M26.58057,17.88867c.02929.02637.02734.11426.07617.09278l.12158-.01954.123.01075c.24414-.00782.6372-.34668.7998-1.28125a5.16593,5.16593,0,0,1,2.886-3.62867,14.45253,14.45253,0,0,1,22.86389.0188,5.15679,5.15679,0,0,1,2.84772,3.60987c.1626.93457.55566,1.27343.84228,1.27832l.123-.00977.0542.01465c-.00586-.01074.06494-.03906.15527-.1416a3.32752,3.32752,0,0,0,.52954-1.99634,17.12618,17.12618,0,0,0-32.00335-.00293C26.07648,17.28186,26.4433,17.76355,26.58057,17.88867Z"/></g></g></svg>