<svg xmlns="http://www.w3.org/2000/svg" viewBox="0 0 84 44"><defs><style>.cls-1{fill:none;stroke:#fff;stroke-miterlimit:10;stroke-width:2.5px;}.cls-1,.cls-2,.cls-3{fill-rule:evenodd;}.cls-2,.cls-3{fill:#fff;}.cls-2{opacity:0.5;}</style></defs><g id="E337_Anhaengerblinker"><g id="Version_6"><polygon class="cls-1" points="30 22 30 16.5 19 27 30 37.5 30 32 37 32 37 22 30 22"/><polygon class="cls-2" points="30 22 30 16.5 19 27 30 37.5 30 32 37 32 37 22 30 22"/><polygon class="cls-1" points="54 22 54 16.5 65 27 54 37.5 54 32 47 32 47 22 54 22"/><polygon class="cls-2" points="54 22 54 16.5 65 27 54 37.5 54 32 47 32 47 22 54 22"/><path class="cls-3" d="M43.11559,20.06V3.9664L40.917,3.95213,37.34941,6.62786V8.41167L40.917,6.62786V20.00649Z"/></g></g></svg>