<svg xmlns="http://www.w3.org/2000/svg" viewBox="0 0 84 44"><defs><style>.cls-1{fill:none;stroke:#fff;stroke-width:3.5px;}.cls-2,.cls-3{fill:#fff;}.cls-3{fill-rule:evenodd;}</style></defs><g id="E30D_Luftfederung"><g id="Version_5"><path class="cls-1" d="M68,25.07138l.93617-.0032c.201-.052,4.42725.30463,4.452-1.6425a23.383,23.383,0,0,0-1.096-7.232c-.787-2.676-2.31-1.936-5.89-2.809-2.986-.727-8.807-4.847-12.808-5.757-4.031-.916-12.038-1.204-16.344-.039-3.603.975-7.188,4.831-9.375,6.601a4.95648,4.95648,0,0,1-.76.613,2.119,2.119,0,0,1-.47.117s-6.495.84-8.744,1.313c-4.042.85-5.208,1.694-6.229,2.943-.447.547-1.162,1.49-1.16,3.969.001,1.183.372,1.764,2.123,1.825l3.96938.10168"/><line class="cls-1" x1="50" y1="25.07137" x2="56.5" y2="25.07138"/><line class="cls-1" x1="28.10455" y1="25.07136" x2="38.00002" y2="25.07136"/><path class="cls-2" d="M27.19434,23.3194a4.84553,4.84553,0,0,1-9.68946,0H14a8.35012,8.35012,0,0,0,16.69922,0Z"/><path class="cls-2" d="M67.08473,23.3194a4.84553,4.84553,0,0,1-9.68946,0H53.89039a8.35012,8.35012,0,0,0,16.69922,0Z"/><path class="cls-3" d="M46.87782,23.84482H41V19H38l6-7s6,6.987,6,7H46.87782ZM41,27h6v5h3c0,.013-6,7-6,7l-6-7h3Z"/></g></g></svg>