<?xml version="1.0" encoding="UTF-8"?><svg id="a" xmlns="http://www.w3.org/2000/svg" viewBox="0 0 84 44"><defs><style>.b{fill:#fff;}</style></defs><path class="b" d="M41.9986,2.875c-10.56848,0-19.1236,8.5592-19.1236,19.125,0,10.57129,8.55511,19.125,19.1236,19.125s19.1264-8.55652,19.1264-19.12781c0-10.56573-8.55792-19.12219-19.1264-19.12219Zm0,35.19659c-8.87616,0-16.07153-7.1983-16.07153-16.07434S33.12244,5.92267,41.9986,5.92267c8.87921,0,16.07452,7.19824,16.07452,16.07458s-7.19531,16.07434-16.07452,16.07434Z"/><path class="b" d="M31.32656,30.2794l9.18529-21.2794,3.15939,.01265,8.51058,21.37624h-3.35546l-2.14108-5.57996-9.89496,.00755-2.33196,5.48643-3.13181-.02351Zm6.48374-8.23774l7.94232,.02083-3.73181-10.13189-4.21051,10.11106Z"/><path class="b" d="M14.89879,21.88314c0-7.47022,2.91997-14.23465,7.82298-19.1263l3.60198,3.59644c-3.98366,3.97211-6.44672,9.46463-6.44672,15.52986,0,6.07086,2.46592,11.5693,6.45235,15.53549l-3.59903,3.60208c-4.90865-4.89127-7.83157-11.66171-7.83157-19.13757Z"/><path class="b" d="M69.13197,21.89441c0,7.47022-2.91997,14.23465-7.82298,19.1263l-3.60198-3.59644c3.98366-3.97211,6.44672-9.46463,6.44672-15.52986,0-6.07086-2.46592-11.5693-6.45235-15.53549l3.59903-3.60208c4.90865,4.89127,7.83157,11.66171,7.83157,19.13757Z"/></svg>