<svg xmlns="http://www.w3.org/2000/svg" viewBox="0 0 84 44"><defs><style>.cls-1{fill:none;stroke:#fff;stroke-width:3px;}.cls-2{fill:#fff;fill-rule:evenodd;}</style></defs><g id="E32F_Wischer"><g id="Version-2"><path class="cls-1" d="M30.2653,9.902,42.28388,39.40215"/><path class="cls-2" d="M42.42685,36.90215a2.5,2.5,0,1,1-2.5,2.5A2.50012,2.50012,0,0,1,42.42685,36.90215Z"/><path class="cls-1" d="M42,27.46635c-4.45663,0-7.47747,2.40161-10.582,5.41034L12.0784,21.32128c4.02791-6.04186,8.63123-10.01222,12.748-12.1809l.004-.00291A33.70322,33.70322,0,0,1,42,4.6603,33.70322,33.70322,0,0,1,59.16961,9.13747l.004.00291c4.11673,2.16868,8.72005,6.139,12.748,12.1809L52.582,32.87669C49.47747,29.868,46.45663,27.46635,42,27.46635Z"/></g></g></svg>