<svg xmlns="http://www.w3.org/2000/svg" viewBox="0 0 84 44"><defs><style>.cls-1{fill:#fff;fill-rule:evenodd;}.cls-2,.cls-3{fill:none;stroke:#fff;}.cls-2{stroke-width:2.5px;}.cls-3{stroke-width:2.2px;}</style></defs><g id="E322_Drucktank"><g id="Version_5"><path class="cls-1" d="M69,26v2.7l-8.001-6.595L69,15.7V19h5v7ZM15,26H10V19h5V15.7l8,6.405L15,28.7Z"/><path class="cls-1" d="M24.91271,37.25H48.07646v2.5H24.91271Z"/><path class="cls-2" d="M29.76852,4.75552h13.888c1.24827,0,1.84624.96923,1.84624,2.20622V38.5H27.48646V6.90458A2.19449,2.19449,0,0,1,29.76852,4.75552Z"/><path class="cls-2" d="M42,17.5H31"/><path class="cls-3" d="M45.88191,19.63944a12.81619,12.81619,0,0,1,1.455-.043c2.26171.03338,3.31328,1.55935,3.31328,2.74563v9.16012s-.14756,4.56115,3.87177,4.56115c4.15489,0,4.12487-3.12816,4.12487-4.31443,0,0-1.13589-8.885-1.13589-14.55769A12.34864,12.34864,0,0,0,49.98875,5.32846"/><path class="cls-1" d="M57.24072,15.15565l2.84657-1.65907A16.16751,16.16751,0,0,0,54.08187,5.76,13.91647,13.91647,0,0,0,50.44107,4l-.22223.67243a19.90745,19.90745,0,0,1,4.69435,4.08592C56.53037,10.96242,57.24072,15.15565,57.24072,15.15565Z"/></g></g></svg>