<svg xmlns="http://www.w3.org/2000/svg" viewBox="0 0 84 44"><defs><style>.cls-1,.cls-2,.cls-3{fill:#fff;}.cls-2{stroke:#fff;stroke-miterlimit:10;stroke-width:0.5px;}.cls-3{fill-rule:evenodd;}</style></defs><g id="E332_ORU"><g id="Version_3"><path class="cls-1" d="M20.20056,13.00238l-1.57344-1.06319c.95371-1.41293,5.8373-8.498,8.22993-9.2291,3.71-1.1374,18.27637-.98525,22.72856-.02041,2.35831.51026,6.86338,7.21963,8.18819,9.26436L56.18,12.98753c-2.52251-3.89091-5.93472-8.21137-6.996-8.44052-4.18038-.90733-18.33482-1.07154-21.77115-.02041C26.25681,4.88006,22.76945,9.20145,20.20056,13.00238Z"/><polygon class="cls-1" points="60.44 25.134 60.412 33.212 54.846 27.304 60.44 25.134"/><path class="cls-2" d="M40.47645,35.707a9.55141,9.55141,0,0,0,16.581,1.0036l1.202.785A10.98077,10.98077,0,0,1,39.1521,36.25386Z"/><path class="cls-2" d="M58.51732,25.88015a10.99793,10.99793,0,0,0-18.67687-.40875l1.2221.79763a9.53418,9.53418,0,0,1,16.09079.14029Z"/><polygon class="cls-1" points="42.501 34.871 37.201 29.231 37.181 37.068 42.501 34.871"/><path class="cls-1" d="M35.04709,26H23.27878v3.48729a1.85441,1.85441,0,0,1-.02691.36,1.83206,1.83206,0,0,1-.36088.02783H18.87761c-.07979,0-.0937-.01391-.10484-.026-.359-.36739-.321-1.97886-.2978-2.94185.00742-.31172.01484-.61509.01484-.899,0-3.34077.0167-10.0084.02227-11.96128a32.53514,32.53514,0,0,1,3.79907-1.88423c1.87124-.27554,29.886-.46294,31.86768.1104A38.67886,38.67886,0,0,1,58,14.06927c.00278.98445-.0051,3.12252,0,5.42638a15.58181,15.58181,0,0,1,1.954,1.70094c-.00649-3.46445.04742-7.09154.046-7.63015a1.10973,1.10973,0,0,0-.62586-.93887,44.792,44.792,0,0,0-4.52734-2.13379c-2.03638-.76352-32.15157-.50468-33.14331-.13266a35.9859,35.9859,0,0,0-4.56817,2.28594,1.05688,1.05688,0,0,0-.52139.91289c-.00278.80434-.02412,8.70864-.02412,12.44834,0,.27-.00742.55757-.01391.85351-.03989,1.65879-.08072,3.37417.83774,4.31489a1.99463,1.99463,0,0,0,1.464.59839H22.891a2.0112,2.0112,0,0,0,2.28779-2.28779V28h9.27595A16.32937,16.32937,0,0,1,35.04709,26Z"/><path class="cls-1" d="M35.4423,25.15477a14.97378,14.97378,0,0,1,1.05159-1.89948l-2.074.00041c-1.78125-.07793-2.73867-2.23677-3.08657-3.235L33.00051,18.373H41.737a14.91054,14.91054,0,0,1,3.055-1.28636V16.473H32.22121l-3.017,2.97989.12895.52324c.0501.205,1.27285,5.01347,5.045,5.17861Z"/><path class="cls-1" d="M56.57349,18.80507a2.98919,2.98919,0,0,0,.39453-2.9048l-6.63563.65382A14.27471,14.27471,0,0,1,56.57349,18.80507Z"/><path class="cls-1" d="M20.14688,19.07341c1.39058,1.48623,3.57881,0,3.57881,0h3.58016l2.98361-2.115L19.54989,15.90027A2.952,2.952,0,0,0,20.14688,19.07341Z"/><path class="cls-3" d="M67,29.631a2.2194,2.2194,0,1,1,2.14182-2.218A2.18083,2.18083,0,0,1,67,29.631Zm0-5.87623a1.87424,1.87424,0,0,1-1.98175-1.74512V12.11414a1.99779,1.99779,0,0,1,3.9635,0v9.89549A1.87424,1.87424,0,0,1,67,23.75475Z"/></g></g></svg>