<?xml version="1.0" encoding="UTF-8"?>
<svg id="Ebene_1" data-name="Ebene 1" xmlns="http://www.w3.org/2000/svg" viewBox="0 0 84 44">
  <defs>
    <style>
      .cls-1 {
        fill: #fff;
      }
    </style>
  </defs>
  <path class="cls-1" d="M27.13281,43.20996c-1.05078,0-2.09863-.52246-2.71484-1.43652l-2.46582-3.93457c-.70605-1.6377,.4707-3.44922,2.01172-4.11328l4.52441-1.9502c2.38477-1.02734,4.45898-1.26172,6.46582-1.4873,2.29883-.25977,4.67383-.52832,7.87891-1.90918,.17383-.0752,.18359-.0791,.3623-.14062,.43359-.15527,.89648-.08398,1.26562,.1875,.38281,.28125,.61914,.76074,.60254,1.22266l.06836,3.94141c-.03027,1.32812-.7793,2.47266-1.90723,2.95898l-14.90918,6.4248c-.37891,.15918-.78027,.23633-1.18262,.23633Zm-3.17871-6.29492l2.30566,3.65625c.25195,.37207,.78613,.54883,1.19824,.37598l14.89551-6.41797c.33105-.14355,.56934-.53223,.5791-.94727l-.0498-2.84473c-3.08789,1.21777-5.41895,1.48047-7.67969,1.73633-1.93457,.21777-3.75879,.42383-5.84277,1.32129l-4.52637,1.95117c-.54102,.23242-.96777,.8125-.87988,1.16895Zm19.96777-6.60059q-.00098,0-.00195,.00098,.00098-.00098,.00195-.00098Zm-1.05762-.68652c-.00098,.02441-.00098,.04883,.00098,.07324l-.00098-.07324Z"/>
  <path class="cls-1" d="M38.45508,27.5625c-.98438,0-1.55762-.57129-1.8457-.9873l-.91602-1.44727-.03125-.24121c-.25391-1.94922-.86328-4.28809-1.8125-6.95312-.5459-1.54102-1.1709-3.0166-1.85645-4.38477-.97949-1.71191-.48926-4.00879,1.14453-5.17578l.88477-.68164c1.24902-.82812,2.87402-.51465,3.68262,.65918,1.25488,1.8291,2.5127,4.23633,3.54492,6.7793,1.25488,3.08789,2.15723,6.40137,2.41309,8.86328,.13184,.86523-.24707,1.75684-.99609,2.27344l-.27637,.1377-2.75488,.9209c-.44629,.16797-.83887,.2373-1.18066,.2373Zm-.01074-2.2002c.00586,.00098,.12988,.01367,.42773-.10059l.04492-.01562,2.55176-.85352c.02051-.0459,.0166-.09668,.0127-.12207-.24219-2.31738-1.08789-5.40625-2.26953-8.31348-.97461-2.40039-2.15332-4.65918-3.32031-6.36035-.13086-.18848-.40332-.24121-.59082-.11621l-.85254,.66016c-.75879,.54199-.97168,1.57324-.5166,2.36914,.75488,1.50293,1.41504,3.0625,1.99121,4.6875,.96191,2.70215,1.59668,5.11035,1.8877,7.16211l.63379,1.00293Z"/>
  <path class="cls-1" d="M29.92578,8.51367c-.12695,0-.25488-.0127-.38086-.03906-.49902-.10547-.93652-.41406-1.20508-.84668-.37695-.55957-.71582-1.04492-1.03516-1.50293l-.06152-.08691c-.3291-.47168-.64062-.91895-.97852-1.42383-.60352-.9082-.35938-2.03418,.5791-2.68066l.10742-.07227c2.42578-1.67285,4.94238-1.12891,6.89355,1.49512,.55566,.75098,.41016,1.87598-.32422,2.51074-.92383,.80078-2,1.85449-2.20605,2.05762-.10254,.09766-.19531,.17383-.29102,.23926-.33301,.23047-.71289,.34961-1.09766,.34961Zm.25586-2.08789c.00195,.00293,.00391,.00586,.00586,.00879-.00195-.00293-.0039-.00586-.00586-.00879Zm-1.9248-2.79199c.26758,.39551,.52344,.76172,.79102,1.14453l.06055,.08691c.27246,.39062,.55859,.80078,.88184,1.27734,.38477-.37402,1.14746-1.10645,1.87402-1.74902-1.46582-1.78418-2.6875-1.375-3.60742-.75977Zm3.82422,.56934l-.00098,.00098,.00098-.00098Z"/>
  <path class="cls-1" d="M51.10059,41.86328c2.58691-2.74023,3.95215-6.32324,3.84375-10.08984-.06024-2.11157-.59479-4.13135-1.52222-5.96094l-3.46448,1.45459c.75848,1.40411,1.19171,2.97247,1.23865,4.61377,.0791,2.76562-.92285,5.39648-2.82227,7.40723-.24762,.26227-.50775,.50812-.77704,.74066l2.44446,2.84375c.36707-.31683,.72168-.65186,1.05914-1.00922Z"/>
  <path class="cls-1" d="M60.95508,18.0918h-14.02148c-.31934,0-.63672-.08203-.91699-.23828-.44238-.24707-.75879-.64941-.89551-1.13379-.13672-.4834-.07617-.99219,.16992-1.43066l7.01074-12.51953c.1709-.30371,.4209-.55371,.72363-.72266,.90527-.50586,2.05469-.18359,2.5625,.72363l7.00977,12.51953c.15625,.27441,.24023,.59375,.24023,.91895,0,1.03809-.84473,1.88281-1.88281,1.88281Zm-7.01074-14.16211l-6.81934,12.17676,13.64746-.01465-6.82812-12.16211Z"/>
  <rect class="cls-1" x="52.94434" y="7.14941" width="2" height="5"/>
  <rect class="cls-1" x="52.94428" y="13.14961" width="2" height="2"/>
  <path class="cls-1" d="M46.00444,37.50021l-.00345,6.47197,7.00574-.0019-7.00229-6.47007Z"/>
</svg>