<svg xmlns="http://www.w3.org/2000/svg" viewBox="0 0 84 44"><defs><style>.cls-1{fill:none;stroke:#fff;stroke-width:3px;}.cls-2{fill:#fff;}</style></defs><g id="E31F_AC_laden"><g id="Version_3"><path class="cls-1" d="M24.1585,38.14413h0c3.655-4.788,9.128-6.796,14.191-4.922q.678.2505,1.344.565l5.734,2.703a11.63311,11.63311,0,0,0,5.772,1.306,12.16151,12.16151,0,0,0,8.163-4.319l.911-1.002"/><path class="cls-2" d="M39.84668,26.10742,38.2041,21.61914H29.50977l-1.61426,4.48828H23.541l8.18457-21h4.46777l8.19141,21ZM34.97559,12.60547q-.3252-.92726-.60547-1.83692-.27979-.90966-.499-1.873-.21972.96387-.499,1.876-.27978.91407-.60547,1.834l-2.03906,5.64258h6.26562Z"/><path class="cls-2" d="M60.93164,25.35742q-.67236.28272-1.3623.50977a12.45474,12.45474,0,0,1-1.49024.38183,17.28787,17.28787,0,0,1-1.75976.24121q-.95947.085-2.16993.084a11.4803,11.4803,0,0,1-2.94921-.35352,8.44974,8.44974,0,0,1-2.38575-1.02343,7.62906,7.62906,0,0,1-1.83691-1.63184A8.808,8.808,0,0,1,45.67773,21.374a12.55989,12.55989,0,0,1-.76855-2.69336,18.36625,18.36625,0,0,1-.25391-3.14355,16.49821,16.49821,0,0,1,.26172-2.999,11.77808,11.77808,0,0,1,.7959-2.62989,9.28529,9.28529,0,0,1,1.3418-2.18457,7.99782,7.99782,0,0,1,1.88379-1.65625,8.81584,8.81584,0,0,1,2.43164-1.05176,11.41777,11.41777,0,0,1,2.99121-.36816,18.19851,18.19851,0,0,1,1.9082.0957,15.504,15.504,0,0,1,1.69629.26954,12.05466,12.05466,0,0,1,1.47559.417,9.37525,9.37525,0,0,1,1.24316.542V9.41211a10.37834,10.37834,0,0,0-1.21484-.49121,12.37349,12.37349,0,0,0-1.41993-.38281A15.69138,15.69138,0,0,0,56.42871,8.29a17.9718,17.9718,0,0,0-1.81933-.08789,6.07256,6.07256,0,0,0-1.74122.2334A4.79756,4.79756,0,0,0,51.459,9.1084a4.54433,4.54433,0,0,0-1.083,1.0791,6.19046,6.19046,0,0,0-.76563,1.45508,9.04919,9.04919,0,0,0-.45312,1.79492,14.0894,14.0894,0,0,0-.14844,2.09961,16.601,16.601,0,0,0,.15234,2.35351,9.15092,9.15092,0,0,0,.46387,1.89454,5.62646,5.62646,0,0,0,.77832,1.44726,4.23952,4.23952,0,0,0,1.10547,1.0166,4.76655,4.76655,0,0,0,1.44043.59766,7.55422,7.55422,0,0,0,1.78027.19531q.95655,0,1.78418-.07129.82911-.07031,1.5791-.209A13.68556,13.68556,0,0,0,59.544,22.415a14.14522,14.14522,0,0,0,1.38769-.49219Z"/></g></g></svg>