<svg xmlns="http://www.w3.org/2000/svg" viewBox="0 0 84 44"><defs><style>.cls-1{fill:none;stroke-width:3.5px;}.cls-1,.cls-2{stroke:#fff;}.cls-2,.cls-3{fill:#fff;}.cls-2{stroke-miterlimit:10;stroke-width:0.5px;fill-rule:evenodd;}</style></defs><g id="E318_Aktive_Frontklappe"><g id="Version_5"><path class="cls-1" d="M29.44249,28.53576l1.01665-1.13244c2.10625-2.37044,10.29693-7.94646,10.29693-7.94646"/><path class="cls-2" d="M28,15.916a1.89327,1.89327,0,0,1-2-1.9776V3.06159a2.00013,2.00013,0,0,1,4,0V13.93841A1.82441,1.82441,0,0,1,28,15.916Z"/><path class="cls-2" d="M28,22a2,2,0,1,1,2-2A1.92084,1.92084,0,0,1,28,22Z"/><path class="cls-3" d="M41.744,34.6194a4.84553,4.84553,0,0,1-9.68946,0H28.54965a8.35012,8.35012,0,0,0,16.69922,0Z"/><rect class="cls-3" x="42.6543" y="34.62109" width="17.3457" height="3.5"/><path class="cls-3" d="M60,16.38055a34.51661,34.51661,0,0,0-8.65723.81867c-3.19629.86523-6.21484,3.56543-8.41894,5.53808-.59082.52832-1.12891,1.01075-1.62988,1.417l-.3584.30761c-.01172.01075-.02344.02149-.03516.03125-.74414.09668-6.61914.86622-8.80957,1.32618-4.38867.92382-5.9248,1.96-7.22363,3.54882a7.24607,7.24607,0,0,0-1.55567,5.07715c.002,2.28418,1.28418,3.48535,3.82813,3.57324l3.96973.10157.08984-3.498-3.9541-.10156a4.27138,4.27138,0,0,1-.4336-.03418v-.043c-.002-1.92285.47852-2.50977.76465-2.86035.71582-.874,1.50977-1.55469,5.23535-2.33789,2.15528-.45313,8.543-1.28125,8.60743-1.29l.125-.02051a3.46656,3.46656,0,0,0,.86621-.248,3.42475,3.42475,0,0,0,.82714-.58789l.28809-.249c.50977-.41211,1.09277-.93262,1.73145-1.50391,1.94336-1.73828,4.60546-4.12011,7-4.76758A30.96352,30.96352,0,0,1,60,19.87109Z"/></g></g></svg>