<svg xmlns="http://www.w3.org/2000/svg" viewBox="0 0 84 44"><defs><style>.cls-1,.cls-3{fill:#fff;}.cls-1{fill-rule:evenodd;opacity:0.302;isolation:isolate;}.cls-2{fill:none;stroke:#fff;stroke-width:3px;}</style></defs><g id="E346_Wischwasser"><g id="Version_4"><path class="cls-1" d="M71.44444,21l-18.446,11.62786a6.27029,6.27029,0,0,1-2.23176-.86086c-2.88-2.844-4.9125-4.65589-9.0445-4.65589a8.89161,8.89161,0,0,0-6.032,2.2415L20.86035,12.5129A38.23869,38.23869,0,0,1,26.002,9.01977c4.767-2.808,10.73333-3.90825,16.49133-3.90825C42.49333,5.11152,58.61111,3.11111,71.44444,21Z"/><path class="cls-2" d="M42,27.46635c-4.45663,0-7.47747,2.40161-10.582,5.41034L12.0784,21.32128c4.02791-6.04186,8.63123-10.01222,12.748-12.1809l.004-.00291A33.70322,33.70322,0,0,1,42,4.6603,33.70322,33.70322,0,0,1,59.16961,9.13747l.004.00291c4.11673,2.16868,8.72005,6.139,12.748,12.1809L52.582,32.87669C49.47747,29.868,46.45663,27.46635,42,27.46635Z"/><rect class="cls-3" x="40.5" y="22" width="3" height="3"/><rect class="cls-3" x="40.5" y="30" width="3" height="3"/><rect class="cls-3" x="40.5" y="34" width="3" height="3"/><rect class="cls-3" x="40.5" y="38" width="3" height="3"/><path id="Variante_1" data-name="Variante 1" class="cls-3" d="M41.99844,14.8751l2.37814,1.89048a6.87778,6.87778,0,0,0-.87357,3.36225,6.80535,6.80535,0,0,0,.05391.86131H40.44308a6.80538,6.80538,0,0,0,.05388-.86131,6.87776,6.87776,0,0,0-.87354-3.36225Zm-18.3329,5.25273a9.90273,9.90273,0,0,1,1.50726-5.26468l2.417,1.9205a6.86836,6.86836,0,0,0-.86434,3.34418,6.74829,6.74829,0,0,0,.05391.86131h-3.075C23.67748,20.70792,23.66554,20.41483,23.66554,20.12783Zm36.66892,0c0,.287-.0147.58009-.03893.86131H57.21787a6.92732,6.92732,0,0,0-.80775-4.20549l2.417-1.9205A9.90251,9.90251,0,0,1,60.33446,20.12783ZM57.3943,13.06855l-2.42008,1.92631a6.87535,6.87535,0,0,0-3.39505-1.65126V10.25086A9.92038,9.92038,0,0,1,57.3943,13.06855Zm-11.579,1.91437L43.3955,13.05656a9.94447,9.94447,0,0,1,5.752-2.79984v3.09883A6.78914,6.78914,0,0,0,45.81526,14.98292Zm-7.63056,0a6.80207,6.80207,0,0,0-3.33219-1.62737V10.25672a9.95336,9.95336,0,0,1,5.752,2.79984Zm-11.579-1.91437a9.9203,9.9203,0,0,1,5.81506-2.81769V13.3436a6.89792,6.89792,0,0,0-3.39805,1.65126Z"/></g></g></svg>