<?xml version="1.0" encoding="UTF-8"?>
<svg id="Ebene_1" data-name="Ebene 1" xmlns="http://www.w3.org/2000/svg" viewBox="0 0 84 44">
  <defs>
    <style>
      .cls-1 {
        fill: #fff;
      }
    </style>
  </defs>
  <path class="cls-1" d="M31.34137,7.53198v2.87842h3.42914v-2.87842c-.00049-.51801-.05994-1.70618-.17712-2.21075l-3.35608,1.31079c.06927,.29498,.10431,.59698,.10406,.89996Zm-11.04028,21.91241h3.42914v-3.89258h-3.42914v3.89258Zm0-6.99341h3.42914v-3.81818h-3.42914v3.81818ZM9.28339,7.53198v2.87842h3.42914v-2.87842c-.00024-.30298,.03467-.60498,.10406-.89996l-3.35608-1.31079c-.11719,.50458-.17664,1.69275-.17712,2.21075Zm3.2807-5.3725l1.6795,2.55792c.67633-.50983,1.71942-1.0036,2.56641-1.00201l.24463,.00732,.49518-3.27942-1.00543-.03778c-1.58429-.09851-2.71405,.79669-3.98029,1.75397Zm19.1131,0c-1.26617-.95728-2.42719-1.85248-4.01147-1.75397l-.97412,.03778,.49524,3.27942,.24457-.00732c.84698-.00159,1.89001,.49219,2.56628,1.00201l1.6795-2.55792Zm-11.3761,13.28674h3.42914v-4.04584h-3.42914v4.04584Zm1.75372-11.92914c-.22662-.30603-.47034-.59918-.73273-.87219l-1.94708,2.03369c.67352,.63831,1.06262,1.49341,1.16858,2.41528v1.56714h2.97552v-1.56604c.10602-.92188,.5332-1.77686,1.20667-2.41528l-1.93146-2.03369c-.26221,.27264-.50873,.56543-.7395,.87109Zm48.71497,10.29309h-26.86859c-1.86688,0-3.14441,1.30884-3.14441,3.17572v5.05383l-9.47235-4.59521c-.38672-.18939-.84613-.16895-1.21283,.05957-.36719,.22754-.59039,.62988-.59039,1.06152v19.84277c0,.43164,.22272,.83301,.58942,1.06152,.2016,.125,.4306,.18848,.66058,.18848,.18848,0,.3775-.04297,.55182-.12799l9.47375-4.57782v5.03442c0,1.86688,1.27753,3.14441,3.14441,3.14441h27.36859c1.867,0,2.89453-1.21503,2.89453-3.08191V16.9234c0-1.86688-1.52753-3.11322-3.39453-3.11322Zm-30.013,17.96088l-8.52557,4.22327v-15.01184l8.52557,4.24011v6.54846Zm30.55334,7.61176c0,.4848-.40961,.89441-.89453,.89441h-25.91022c-.4848,0-.89435-.40961-.89435-.89441V17.56921c0-.4848,.40955-.89441,.89435-.89441l25.91022-.03131c.48492,0,.89453,.40961,.89453,.89441v21.84491Z"/>
</svg>