<svg xmlns="http://www.w3.org/2000/svg" viewBox="0 0 84 44"><defs><style>.cls-1,.cls-3{fill:#fff;}.cls-2{fill:none;stroke-linejoin:bevel;stroke-width:2.25px;}.cls-2,.cls-3{stroke:#fff;}.cls-3{stroke-miterlimit:10;stroke-width:0.5px;}</style></defs><g id="Icon_neu" data-name="Icon neu"><path class="cls-1" d="M64.9873,41.549V27.631h5.251a9.2995,9.2995,0,0,1,2.20313.23731,6.18076,6.18076,0,0,1,1.70507.6748,4.79169,4.79169,0,0,1,1.25293,1.06348,5.60159,5.60159,0,0,1,.84278,1.39355,7.32636,7.32636,0,0,1,.47363,1.6709,11.69155,11.69155,0,0,1,.14746,1.89551,10.86981,10.86981,0,0,1-.15918,1.89355,7.51412,7.51412,0,0,1-.49512,1.67969,5.67378,5.67378,0,0,1-.86328,1.40527,5.03219,5.03219,0,0,1-1.2666,1.0752,6.20507,6.20507,0,0,1-1.7041.6875,8.94139,8.94139,0,0,1-2.16992.24121Zm5.0586-2.2334a5.07638,5.07638,0,0,0,1.20312-.13379,3.5996,3.5996,0,0,0,.98536-.39453,2.99173,2.99173,0,0,0,.76953-.65429,3.50781,3.50781,0,0,0,.54882-.91993,5.47358,5.47358,0,0,0,.32911-1.17968,9.49463,9.49463,0,0,0,0-2.88672,5.45783,5.45783,0,0,0-.32911-1.17969,3.4799,3.4799,0,0,0-.54882-.918,2.99982,2.99982,0,0,0-.76953-.65137,3.56963,3.56963,0,0,0-.98536-.39453,5.0769,5.0769,0,0,0-1.20312-.13379H67.75977v9.44629Z"/></g><g id="Ebene_1" data-name="Ebene 1"><g id="alt-2" data-name="alt"><path class="cls-2" d="M36.50189,31.50115C18.90667,31.47286,9.504,18.69375,9.504,18v-.17668l.1049-.15665a34.11157,34.11157,0,0,1,53.79019,0l.10491.15665V18c0,.69375-9.40478,13.4723-27,13.50059Z"/><path class="cls-1" d="M36.50424,11.78732A6.25,6.25,0,1,0,42.754,18.0376v-.00028a6.24992,6.24992,0,0,0-6.24975-6.25Z"/><path class="cls-3" d="M36.504,6.97632a11.061,11.061,0,1,1-11.061,11.061h0a11.07352,11.07352,0,0,1,11.061-11.061m0-1.6803a12.7413,12.7413,0,1,0,12.74129,12.7413h0A12.74128,12.74128,0,0,0,36.504,5.296Z"/></g></g></svg>