<?xml version="1.0" encoding="UTF-8"?>
<svg id="Ebene_1" data-name="Ebene 1" xmlns="http://www.w3.org/2000/svg" viewBox="0 0 84 44">
  <defs>
    <style>
      .cls-1, .cls-2 {
        fill: #fff;
      }

      .cls-2 {
        fill-rule: evenodd;
      }
    </style>
  </defs>
  <g>
    <path class="cls-1" d="m49.64478,9.86728l-.69146-3.43726.28621-.16449c1.01451-.48741,2.14801-.7593,3.34105-.7593,4.25918,0,7.71075,3.44868,7.71075,7.71062,0,4.2507-3.45158,7.70232-7.71075,7.70232-.23523,0-.47608-.01124-.70564-.03113l-.17002-.03978-.65462-3.47133.08786.02266c.45342.16155.94082.2437,1.44241.2437,2.44555,0,4.43491-1.98075,4.43491-4.42643,0-2.44827-1.98936-4.4349-4.43491-4.4349-1.08819,0-2.08285.39401-2.85646,1.04572l-.07935.03961Z"/>
    <path class="cls-1" d="m61.94861,25.76883c1.73428-.59793,2.98397-2.24711,2.98397-4.19103,0-1.9299-1.24121-3.57355-2.95851-4.18272l.69712-3.21639c3.20221.94074,5.53728,3.90218,5.53728,7.39911,0,3.56491-2.41727,6.56579-5.69597,7.44426l-.5639-3.25323Z"/>
    <path class="cls-1" d="m49.92165,33.99919l-.70279,3.49693.40806.27207c1.08252.55832,2.08285.72557,3.2787.72557,4.25637,0,7.70509-3.44885,7.70509-7.70526,0-4.26194-3.44872-7.71062-7.70509-7.71062-.24089,0-.47608.01124-.70845.0339l-.17287.03978-.64895,3.4741.08786-.02543c.45056-.15584.93801-.2437,1.44241-.2437,2.4484,0,4.42924,1.98646,4.42924,4.43196,0,2.44567-1.98084,4.42366-4.42924,4.42366-1.08819,0-2.08851-.38259-2.85931-1.03725l-.12466-.17573Z"/>
    <polygon class="cls-1" points="42.46623 16.91874 49.44021 15.66339 48.90745 12.71907 42.46623 13.88673 42.46623 16.91874"/>
    <polygon class="cls-1" points="24.53648 17.12353 15.26428 18.80125 15.79419 21.73987 24.53648 20.16142 24.53648 17.12353"/>
    <polygon class="cls-1" points="24.53648 25.64706 15.74602 24.34069 15.30678 27.29642 24.53648 28.66801 24.53648 25.64706"/>
    <polygon class="cls-1" points="42.46623 28.31482 42.46623 31.33005 48.73457 32.26802 49.17381 29.31246 42.46623 28.31482"/>
  </g>
  <g>
    <path class="cls-2" d="m33.50421,3.52796c-1.65498,0-2.99535,1.52742-2.99535,3.4204v21.22578c0,1.88735,1.34036,3.4204,2.99535,3.4204,1.64919,0,2.98964-1.53304,2.98964-3.4204V6.94836c0-1.89298-1.34045-3.4204-2.98964-3.4204"/>
    <path class="cls-2" d="m30.50973,37.48517c0,1.64927,1.34036,2.98687,2.99526,2.98687,1.64927,0,2.98687-1.3376,2.98687-2.98687,0-1.65489-1.3376-2.99526-2.98687-2.99526-1.6549,0-2.99526,1.34036-2.99526,2.99526"/>
  </g>
</svg>