<?xml version="1.0" encoding="UTF-8"?>
<svg id="Ebene_1" data-name="Ebene 1" xmlns="http://www.w3.org/2000/svg" viewBox="0 0 84 44">
  <defs>
    <style>
      .cls-1, .cls-2, .cls-3, .cls-4, .cls-5 {
        fill: #fff;
      }

      .cls-2 {
        fill-rule: evenodd;
      }

      .cls-3 {
        stroke-width: .75px;
      }

      .cls-3, .cls-4, .cls-5 {
        stroke: #fff;
        stroke-miterlimit: 10;
      }

      .cls-4 {
        stroke-width: .2334px;
      }

      .cls-5 {
        stroke-width: .53451px;
      }

      .cls-6 {
        fill: red;
      }
    </style>
  </defs>
  <g id="V2">
    <circle class="cls-6" cx="63.01036" cy="7.00325" r="6.73664"/>
  </g>
  <g id="E476_Trained_parking" data-name="E476 Trained parking">
    <g id="Version_2" data-name="Version 2">
      <path class="cls-2" d="M49.99121,35.17047c-1.06179,.00459-2.12252-.06785-3.17383-.21673l-.53271,3.54882c2.42461,.6858,4.99189,.6858,7.4165,0l-.53517-3.54882c-1.05164,.14882-2.11268,.22126-3.17479,.21673Zm.00049-10.44433c1.08193,.00855,2.15637,.18039,3.187,.5097l1.05713-4.37329c-1.3475-.53842-2.79317-.78744-4.24316-.7309-1.44999-.05649-2.89565,.19253-4.24317,.7309l1.05518,4.37329c1.03065-.32927,2.10509-.50111,3.18702-.5097Zm4.76611,9.12c-.02539-.9458,.03907-4.58447,.023-8.32428l-.01025-.80163c-.41087,.91199-.89899,1.78718-1.459,2.616-.15365,1.52884-.18304,3.06761-.08789,4.6012,.42273,1.56227,.93596,3.09864,1.53711,4.60132l-.001-.11023c-.0049-.76275,.02342-1.6527-.00197-2.58233v-.00005Zm-8.01806-1.90832c.0954-1.5336,.06601-3.07242-.08789-4.60126-.54168-.83253-1.01539-1.70736-1.41651-2.616l-.01025,.80164c.02783,3.72033,.02734,7.37848,.002,8.32422-.0249,.92962,.00293,1.81958-.002,2.58239l-.00049,.11023c.59315-1.5033,1.09904-3.03958,1.51514-4.60117v-.00005Z"/>
      <path class="cls-1" d="M50,15.56281c1.73527-.05869,3.46334,.25022,5.0708,.90646,.3035,.4563,.54472,.95107,.71729,1.47121,.06494,.63662,.03466,3.24853,.00781,5.561-.02686,2.3261-.05762,4.96257-.0376,7.49463,.0127,1.5598,.02246,2.792,.03565,3.26527,.01025,.38571,.02636,.76456,.042,1.1341,.09874,.9074,.0708,1.82413-.083,2.72384l-.01221,.029-.01123,.0293c-.07872,.21794-.14089,.4415-.186,.66879-.23242,1.01786-.481,1.57853-1.19434,1.81763-1.40816,.42734-2.87931,.60939-4.34916,.5382-1.46932,.07117-2.93994-.1107-4.34766-.53766-.71484-.23968-.96338-.80035-1.20263-1.849-.04368-.21685-.10358-.43012-.1792-.638l-.01123-.0293-.01221-.029c-.15388-.90097-.18182-1.81895-.083-2.7276,.01563-.36578,.03174-.74463,.042-1.13067,.01319-.473,.023-1.70514,.03565-3.26488,.02-2.53212-.01074-5.16859-.0376-7.49469-.02685-2.33282-.05762-4.97046,.00537-5.55367,.17266-.52283,.41473-1.02012,.71973-1.47854,1.60746-.65624,3.33552-.96514,5.07078-.90642m0-2.1c-2.11372-.05927-4.21442,.34927-6.15186,1.19639-.852,.42322-1.63183,2.50548-1.6997,2.87342-.1875,1.01507,.03955,7.6136-.00684,13.44685-.01221,1.5405-.022,2.75739-.03467,3.22452-.01025,.37482-.02588,.743-.041,1.09842-.16032,1.2178-.07566,2.45537,.249,3.64,.022,.05619,.06348,.2381,.09424,.37091,.17224,1.50558,1.16369,2.79214,2.57568,3.34235,1.62199,.50284,3.31867,.72158,5.01515,.64658,1.69648,.075,3.39316-.14375,5.01514-.64658,1.41199-.55021,2.40344-1.83677,2.57568-3.34235,.03076-.13281,.07227-.31472,.09424-.37091,.32466-1.18463,.40932-2.4222,.249-3.64-.01513-.35544-.03076-.7236-.041-1.09842-.0127-.46713-.02246-1.684-.03467-3.22452-.04639-5.83325,.18066-12.43178-.00684-13.44685-.06787-.36794-.84765-2.4502-1.6997-2.87342-1.93744-.84713-4.03814-1.25566-6.15185-1.1964h0Z"/>
      <path class="cls-5" d="M24.34586,21.89606l-.21-.00119,.032-1.82955,.16191,.00119c.6659,.00167,1.32951-.07791,1.97612-.237l.42225,1.77714c-.77941,.19279-1.57938,.28998-2.38228,.28941Zm-2.78713-.38592c-.84898-.23734-1.66092-.5913-2.41264-1.05176l.926-1.56512c.61225,.37421,1.27348,.66162,1.96476,.854l-.47812,1.76288Zm7.62406-1.41743l-1.33489-1.21732c.4553-.57058,.8386-1.19505,1.14124-1.85933l1.5958,.82664c-.36963,.80667-.84083,1.5628-1.40215,2.25001Zm-12.07193-1.46745c-.61657-.80494-.95862-1.78646-.97586-2.80026h1.7892c.01658,.6191,.23305,1.2162,.61706,1.7021l-1.4304,1.09816Zm14.54252-2.92061l-1.56145-.89334c.40793-.76645,.89308-1.48924,1.44788-2.15711l1.35527,1.1935c-.47573,.57532-.89177,1.1975-1.2417,1.85695Zm16.179-2.12611c-.11376-.72172-.4222-1.39875-.89211-1.95822l1.27664-1.28164c.7312,.82464,1.20732,1.8438,1.37056,2.93377l-1.75509,.30609Zm-13.34238-1.18043l-.99592-1.51986c.71932-.48699,1.49416-.88645,2.30809-1.18992l.61911,1.71759c-.6812,.25214-1.32961,.58526-1.93128,.99219Zm4.07979-1.5818l-.32323-1.79858c.42661-.08099,.87643-.14809,1.34944-.2013l.22161-.025c.25568-.02978,.54776-.06432,.86692-.09648l.17589,1.82c-.30868,.031-.59144,.06432-.839,.0941l-.22888,.0262c-.43155,.04766-.83747,.1096-1.22275,.18106Zm6.7056-.1203c-.69902-.18489-1.41849-.28133-2.14153-.28706l.04193-1.82955c.8708,.01039,1.73692,.12922,2.57834,.35376l-.47874,1.76285Z"/>
      <path class="cls-3" d="M20.22363,1.25h-4.1692v.00208h-1.6897V15.25h1.998v-6.50084h3.738v.00018l.00342-.00018h.11939c1.9567-.13243,3.46127-1.78361,3.41173-3.74416,.05026-1.96273-1.4531-3.61739-3.41164-3.755Zm-.12281,5.99934v.00066h-3.738V2.74955h3.738v-.00005c1.13306,.09842,1.97181,1.09674,1.87339,2.2298-.00074,.00855-.00154,.01711-.00239,.02565,.11178,1.12604-.71045,2.12948-1.83648,2.24126-.0115,.00114-.023,.00219-.03452,.00313Z"/>
      <path id="Lenkrad" class="cls-4" d="M29.5,26c-4.69442,0-8.5,3.80558-8.5,8.5s3.80558,8.5,8.5,8.5,8.5-3.80558,8.5-8.5h0c-.03131-4.68139-3.81861-8.46869-8.5-8.5Zm-6.3,5.6c1.54603-3.44133,5.58908-4.97777,9.03041-3.43173,.02326,.01045,.04646,.02102,.06959,.03173,1.553,.70291,2.7971,1.947,3.5,3.5,.1,.1,.1,.2,0,.4s-.3,.2-.5,.2h-11.6c-.18542-.00376-.36314-.07484-.5-.2v-.5Zm8.6,3.8c.02874,1.2967-.99914,2.37117-2.29583,2.39991-.00139,.00003-.00278,.00006-.00417,.00009h0c-1.32548,.05523-2.44477-.97452-2.5-2.3s.97452-2.44477,2.3-2.5c1.28687-.09119,2.40401,.8781,2.4952,2.16497,.00554,.07821,.00714,.15666,.0048,.23503Zm-7.9,2.7c-.22416-.03893-.41281-.18985-.5-.4v-.1c-.48873-.92268-.72991-1.9563-.7-3,0-.6,.3-.6,.6-.6h1.9v.5c.01144,.7281,.1821,1.44487,.5,2.1h0l-1.5,1.4c-.0798,.07687-.19004,.11361-.3,.1Zm9.7,2h0c-2.39491,1.77959-5.66188,1.81992-8.1,.1h0c-.1-.1-.1-.2-.2-.3,0-.2,.1-.4,.4-.7l1.1-1h0c1.59544,1.1,3.70456,1.1,5.3,0h0l1.1,1c.3,.3,.4,.5,.4,.7,.1,0,.1,.1,0,.2Zm2.1-2.4c-.05188,.23432-.26001,.40083-.5,.4-.10996,.01361-.2202-.02313-.3-.1l-1.4-1.3h0c.35308-.64207,.52585-1.36771,.5-2.1v-.5h1.9c.3,0,.6,0,.6,.6-.12527,1.03245-.39455,2.04226-.8,3Z"/>
    </g>
  </g>
</svg>