<svg xmlns="http://www.w3.org/2000/svg" viewBox="0 0 84 44"><defs><style>.cls-1{fill:none;stroke-width:1.96887px;}.cls-1,.cls-4{stroke:#fff;stroke-miterlimit:10;}.cls-1,.cls-2{fill-rule:evenodd;}.cls-2,.cls-3,.cls-4{fill:#fff;}.cls-4{stroke-width:0.2px;}</style></defs><g id="E74B_Reversing_Assist_off"><g id="Version_4"><path class="cls-1" d="M30.39273,40.13185c0-4.86232-4.46615-2.04459-4.46615-7.4941s4.2107-2.81628,4.2107-6.31606"/><g id="Auto"><path class="cls-2" d="M29.99268,19.85565a17.35952,17.35952,0,0,1-2.64991-.19128l-.44433,3.132a9.40472,9.40472,0,0,0,3.0957.45392,9.409,9.409,0,0,0,3.0957-.45392l-.44629-3.132A17.38286,17.38286,0,0,1,29.99268,19.85565Zm.00048-9.21753a8.53926,8.53926,0,0,1,2.66065.44983l.88281-3.85962a8.23177,8.23177,0,0,0-3.54248-.64508,8.23269,8.23269,0,0,0-3.543.64508l.88135,3.85962A8.53662,8.53662,0,0,1,29.99316,10.63812Zm3.979,8.04877c-.021-.83466.03271-4.046.019-7.3465l-.0083-.70746a15.71646,15.71646,0,0,1-1.21826,2.30872,26.47627,26.47627,0,0,0-.07324,4.06079,38.38081,38.38081,0,0,0,1.2832,4.06085l-.001-.09729C33.96973,20.29279,33.99316,19.50739,33.97217,18.68689Zm-6.69385-1.68414a26.54188,26.54188,0,0,0-.07324-4.06079,16.54818,16.54818,0,0,1-1.18262-2.30866l-.00879.7074c.02344,3.28345.02246,6.51184.00147,7.34656-.021.82037.00244,1.60583-.00147,2.279l-.00049.09729A38.54258,38.54258,0,0,0,27.27832,17.00275Z"/><path class="cls-3" d="M30,2.64058a10.7313,10.7313,0,0,1,4.39355.78052,5.52281,5.52281,0,0,1,.60059,1.245c.05518.57365.02881,2.86534.00537,4.89494-.02392,2.05183-.05078,4.37744-.0332,6.61192l.00244.25978c.01025,1.25338.01855,2.23172.0293,2.62441.0083.30611.0205.60728.03271.89957l.00391.0969a8.83234,8.83234,0,0,1-.06592,2.37241l-.00977.02318-.00927.02344a4.15923,4.15923,0,0,0-.16992.6082c-.19727.86647-.40479,1.34246-.98877,1.539A11.00977,11.00977,0,0,1,30,25.08948a11.00784,11.00784,0,0,1-3.78955-.46919c-.58545-.197-.793-.673-.99268-1.54845a4.0538,4.0538,0,0,0-.16748-.59918l-.00927-.02344-.00977-.02318a8.83334,8.83334,0,0,1-.06543-2.37534l.00342-.094c.01221-.29229.02441-.59346.03271-.90114.01075-.39112.01905-1.36946.0293-2.62284l.00244-.26052c.01758-2.23374-.00928-4.55935-.0332-6.61118-.02344-2.04956-.05029-4.36644.00342-4.88766a5.50523,5.50523,0,0,1,.60254-1.25232A10.73155,10.73155,0,0,1,30,2.64058M30,.69777a12.57477,12.57477,0,0,0-5.40869,1.05586c-.74951.37351-1.43506,2.2112-1.49463,2.53591-.165.89584.03467,6.71931-.00586,11.86738-.01123,1.35957-.01953,2.43352-.03076,2.84577-.00928.33081-.023.65573-.03565.96942a8.16293,8.16293,0,0,0,.21827,3.21246c.01953.04959.05615.21013.083.32735a3.606,3.606,0,0,0,2.26514,2.94975A12.91045,12.91045,0,0,0,30,27.03229a12.91045,12.91045,0,0,0,4.40918-.57062,3.606,3.606,0,0,0,2.26514-2.94975c.02685-.11722.06347-.27776.083-.32735a8.16293,8.16293,0,0,0,.21827-3.21246c-.0127-.31369-.02637-.63861-.03565-.96942-.01123-.41225-.01953-1.4862-.03076-2.84577-.04053-5.14807.15918-10.97154-.00586-11.86738-.05957-.32471-.74512-2.1624-1.49463-2.53591A12.57477,12.57477,0,0,0,30,.69777Z"/></g><path class="cls-3" d="M59.98724,26.35034a3.6135,3.6135,0,0,0,1.00751-2.612c-.00673-2.4332-1.26611-3.55223-4.08387-3.62722-.2038-.00576-.45568-.00865-.75659-.01249L51.00524,20.09V31.10812H53.324V27.54339H55.4996c.58644,0,1.95253.02019,2.43225.08172.61816.07883.62681.43934.62969.55951.01154.422.00865,2.43032.00865,2.43032l-.001.49511,2.20441-.00962.0048-.48549c.00289-.25764.024-2.52838-.02884-3.01675A1.627,1.627,0,0,0,59.98724,26.35034ZM55.4996,25.24958H53.324V22.38953c1.269.01827,4.31363.05768,4.52225.05768a.756.756,0,0,1,.571.18362,1.68208,1.68208,0,0,1,.2961,1.10942c.00192,1.42762-.60374,1.45165-.82966,1.4603C57.77515,25.2044,55.99951,25.24958,55.4996,25.24958Z"/><path class="cls-3" d="M48.71484,4.31641a3.9906,3.9906,0,0,0-.52148-.97559,3.17527,3.17527,0,0,0-.77637-.75293,3.44747,3.44747,0,0,0-1.03711-.47461A5.03366,5.03366,0,0,0,45.0957,1.9502a4.79952,4.79952,0,0,0-1.292.165,3.55946,3.55946,0,0,0-1.03516.48047,3.16478,3.16478,0,0,0-.77929.75977,4.11016,4.11016,0,0,0-.52442.97754,5.65412,5.65412,0,0,0-.29492,1.15234,8.44727,8.44727,0,0,0-.09375,1.28418,8.59123,8.59123,0,0,0,.0918,1.29,5.58576,5.58576,0,0,0,.293,1.15039,4.09747,4.09747,0,0,0,.51855.97363,3.17433,3.17433,0,0,0,.77539.75293,3.45131,3.45131,0,0,0,1.03418.47461,4.73612,4.73612,0,0,0,1.23145.16211h.05371a5.50874,5.50874,0,0,0,1.28906-.165,3.56189,3.56189,0,0,0,1.03809-.48047,3.21211,3.21211,0,0,0,.78027-.75781,4.13494,4.13494,0,0,0,.52734-.97656A5.57836,5.57836,0,0,0,49.00586,8.04a8.58685,8.58685,0,0,0,.09375-1.28613,8.6861,8.6861,0,0,0-.0918-1.28809A5.56093,5.56093,0,0,0,48.71484,4.31641Zm-1.3623,3.40136A4.42638,4.42638,0,0,1,47.169,8.541a3.01518,3.01518,0,0,1-.3086.66894,1.927,1.927,0,0,1-.42871.48438,1.85153,1.85153,0,0,1-.57715.30761,2.21852,2.21852,0,0,1-.75781.11231h-.00781a2.381,2.381,0,0,1-.76075-.11231A1.83258,1.83258,0,0,1,43.75,9.69434,1.89823,1.89823,0,0,1,43.31738,9.21a3.08459,3.08459,0,0,1-.31152-.66894,4.429,4.429,0,0,1-.18164-.82227,8.02857,8.02857,0,0,1,0-1.91211,4.40444,4.40444,0,0,1,.18262-.82226,2.98643,2.98643,0,0,1,.30957-.667A1.91443,1.91443,0,0,1,43.75,3.83105a1.81294,1.81294,0,0,1,.57324-.30761,2.68161,2.68161,0,0,1,1.5293-.001,1.78833,1.78833,0,0,1,.57617.30664,1.92581,1.92581,0,0,1,.43067.48633,2.97509,2.97509,0,0,1,.30957.66895,4.4261,4.4261,0,0,1,.18359.82324A7.71755,7.71755,0,0,1,47.35254,7.71777Z"/><polygon class="cls-2" points="26.834 39.855 30.31 43.331 33.785 39.855 26.834 39.855"/><polygon class="cls-3" points="50.062 11.428 51.708 11.428 51.708 7.593 55.513 7.593 55.513 6.146 51.708 6.146 51.708 3.543 55.841 3.543 55.841 2.097 50.062 2.097 50.062 11.428"/><polygon class="cls-3" points="62.841 3.543 62.841 2.097 57.061 2.097 57.061 11.428 58.708 11.428 58.708 7.593 62.513 7.593 62.513 6.146 58.708 6.146 58.708 3.543 62.841 3.543"/><path id="Lenkrad" class="cls-4" d="M41,26.7A7.3,7.3,0,1,0,48.3,34h0A7.40707,7.40707,0,0,0,41,26.7Zm-5.4,4.9a5.90931,5.90931,0,0,1,10.8,0,.47514.47514,0,0,1,.00863.2579C46.32887,32,46.10656,31.99736,46,32H36a.552.552,0,0,1-.42544-.1538A.40393.40393,0,0,1,35.6,31.6ZM43,34.7a2.16479,2.16479,0,0,1-2,2.1h0a2.05061,2.05061,0,0,1-.1-4.1,1.967,1.967,0,0,1,2.1,2Zm-6.8,2.4c-.2,0-.32472-.19285-.5-.5h0a5.73359,5.73359,0,0,1-.6-2.5c0-.5.3-.5.5-.5h1.6v.5a3.7426,3.7426,0,0,0,.5,1.8h0L36.4,37a.25867.25867,0,0,1-.2.1Zm8.2,1.76959A5.701,5.701,0,0,1,37.6,38.8h0a.42406.42406,0,0,1-.12524-.31355c0-.15137.02524-.30779.32524-.58645l.9-.8h0a3.75,3.75,0,0,0,4.5,0h0l.8392.7961c.15743.17577.12816.114.32363.34726a.46663.46663,0,0,1,.03717.62623M46.3,36.7a.66441.66441,0,0,1-.5.4c-.1,0-.13609-.04653-.2-.1l-1.2-1.1h0a4.07477,4.07477,0,0,0,.5-1.8v-.4h1.6c.2,0,.5,0,.5.5a7.82689,7.82689,0,0,1-.7,2.5Z"/></g></g></svg>