<?xml version="1.0" encoding="UTF-8"?>
<svg id="Ebene_1" data-name="Ebene 1" xmlns="http://www.w3.org/2000/svg" viewBox="0 0 84 44">
  <defs>
    <style>
      .cls-1 {
        fill: #fff;
      }

      .cls-2 {
        fill: red;
      }
    </style>
  </defs>
  <g id="E794_capa_ap" data-name="E794 capa ap">
    <path class="cls-1" d="M30.87141,2.46066c-1.45364-1.08142-3.24953-1.60025-5.05592-1.46066h-5.80642V20h2.47638v-7.55264h3.19138c4.32961-.09673,6.7141-2.07933,6.7141-5.7826,.07465-1.54797-.47243-3.06157-1.51952-4.2041Zm-1.12211,4.21216c0,1.867-.96914,3.22016-2.54855,3.22016-.15725,0-.31315,.029-.47034,.0248l-4.245,.04837V3.401h4.54c1.64983,.1443,2.87031,1.59872,2.72602,3.24856-.00068,.00776-.00139,.01551-.00213,.02326Z"/>
    <path class="cls-1" d="M63.50146,33.89453c-.05175-.27148-.28222-.75683-1.248-.957l-.5791-.12012,.00976-.00683-2.05078-.42383c-.03901-.00775-.07848-.01297-.11816-.01563l-10.66018-2.20755c-.6278,.43562-1.29281,.815-1.9873,1.13373l8.248,1.70758c.05854,.01785,.11567,.04005,.1709,.06641-.06632,.11113-.16148,.20224-.27539,.26367l-1.61914,1.05762c-.605,.41577-1.35197,.5703-2.07227,.42871l-6.10937-1.26465-.1582-.02344-3.1045-.64258,.00391-.002-11.831-2.44824,2.02736-1.32417c.11843-.07185,.24271-.1336,.37152-.18457-.35614-.33415-.69331-.68795-1.00995-1.05975-.0423,.02563-.08942,.03943-.1311,.06659l-3.873,2.47851-8.04394,5.25684c-.9668,.63183-1.01856,1.21972-.96289,1.51367,.05175,.27148,.28222,.75684,1.248,.957l22.25781,4.6084,4.94629,1.07519c.41243,.08926,.83292,.13605,1.25489,.13965,.8891,.00132,1.75746-.26849,2.48925-.77343l1.292-.88672,.00293,.001,5.15722-3.373,.00293,.001,5.47656-3.58593h-.002c.88476-.60945,.93066-1.17097,.87694-1.45613Zm-33.09765,4.91113l-9.54881-1.97754c-.08592-.01797-.16948-.04582-.249-.083h-.001c.06728-.11417,.16455-.20773,.28125-.27051l7.4375-4.86035,3.709,.76758c.07689,.01921,.15178,.0457,.22364,.0791-.06655,.11272-.16284,.20496-.27832,.2666l-1.60938,1.05273c-.96683,.63184-1.01859,1.21973-.96293,1.51373,.05176,.27148,.28223,.75683,1.249,.957l3.47851,.71679c.08346,.01804,.16468,.04522,.24219,.08106-.06698,.11382-.16393,.20705-.28028,.26953l-1.61035,1.05176c-.62501,.37493-1.35811,.52835-2.08102,.43552Zm21.05762,2.1084l-1.61036,1.05176c-.62504,.37484-1.3581,.52827-2.081,.43555l-13.8916-2.877c-.08587-.01819-.1694-.04604-.249-.083,.06758-.11393,.16477-.20742,.28125-.27051l2.06055-1.35742c.38677-.29139,.89729-.36057,1.34766-.18262l13.37793,2.76562-.03223,.02247,.86035,.15234c.07351,.01868,.14511,.04418,.21387,.07617-.06637,.11256-.16232,.20478-.27742,.26664Zm9.65234-6.30664l-3.88965,2.54785-.00781-.002-2.543,1.66211c-.59747,.35175-1.28976,.50843-1.98047,.44824l-20.93164-4.3291c-.08587-.01819-.1694-.04604-.249-.083,.06548-.11347,.1616-.2062,.27734-.26758l2.05664-1.3164c.4115-.29007,.93624-.36763,1.41406-.209l14.86329,3.07032,.91015,.17968c1.31339,.16886,2.63869-.20691,3.668-1.04l.00977,.00293,2.10546-1.38574c.48448-.26887,1.05418-.3399,1.58985-.19824l2.73828,.56641c.08587,.01819,.1694,.04603,.249,.083-.06639,.11453-.16346,.20823-.28027,.27052Z"/>
    <path class="cls-1" d="M41.44906,8.5c-6.07513-.005-11.00405,4.91581-11.00905,10.99094s4.91581,11.00405,10.99094,11.00905c6.07511,.005,11.00402-4.91578,11.00905-10.99088v-.00767c-.019-6.06395-4.92701-10.97665-10.99094-11.00144Zm-2.899,12.15707c.05472-1.60025,1.39635-2.85315,2.9966-2.79843,1.60025,.05472,2.85315,1.39635,2.79843,2.9966-.05347,1.56373-1.33809,2.80294-2.90274,2.80012-1.62106-.04201-2.90863-1.37677-2.89228-2.99829h-.00001Zm11.05994-4.55063c-.069,.11689-.24646,.524-.47469,.524h-15.3744c-.22824,0-.40565-.40711-.4747-.524-.04696-.09018-.04259-.1985,.01148-.28461l.00669-.01243c2.0309-4.49802,7.32364-6.49801,11.82166-4.46711,1.98952,.89829,3.58144,2.49375,4.47529,4.48528,.05286,.08463,.05617,.19112,.00867,.27887Zm-2.0762,3.45824v-.44749l2.27951,.00287c.34331,0,.56867,0,.57538,.573-.02629,1.33436-.35169,2.64581-.95221,3.8377l-.03932,.08144c-.19276,.42259-.50251,.57782-.72792,.4063l-1.83933-1.60792c.46461-.8765,.70635-1.85388,.70389-2.8459Zm-11.47325,2.84691l-1.82015,1.59641c-.08078,.06788-.18818,.09507-.29153,.07379-.21011-.08489-.37405-.25533-.45072-.46857l-.04028-.08912c-.59943-1.18619-.92516-2.49172-.95322-3.82046,.00765-.58357,.2359-.58357,.58018-.58357l2.2747-.00287-.00191,.44845c.00113,.99148,.24231,1.96795,.70293,2.84594Zm.1448,4.3264c-.08149-.05917-.13244-.15151-.13905-.252-.00478-.18111,.14672-.41875,.45935-.72347l1.39916-1.22557c2.109,1.50123,4.9376,1.50123,7.0466,0l1.3886,1.216c.32318,.31239,.47661,.55191,.47087,.734-.00854,.10356-.0631,.19781-.14864,.2568l-.02206,.023-.02973,.02583c-3.09926,2.20926-7.25844,2.21041-10.35892,.00287l-.03068-.022-.095,.07378,.09014-.07857-.03064-.03067Z"/>
  </g>
  <g id="V2">
    <circle class="cls-2" cx="58.0106" cy="6.97325" r="6.73664"/>
  </g>
</svg>