<svg xmlns="http://www.w3.org/2000/svg" viewBox="0 0 84 44"><defs><style>.cls-1,.cls-4,.cls-5{fill:none;}.cls-1,.cls-2,.cls-3,.cls-4,.cls-5{stroke:#fff;stroke-miterlimit:10;}.cls-1{stroke-width:2.15364px;}.cls-2,.cls-3,.cls-6{fill:#fff;}.cls-2{stroke-width:0.78409px;}.cls-3{stroke-width:1.04546px;}.cls-4{stroke-width:2.06px;}.cls-5{stroke-width:2px;}</style></defs><g id="E770_Child_presence_detection"><g id="Version_4"><path class="cls-1" d="M32.93654,39.10537a2.26263,2.26263,0,0,1-2.20627-1.82891L29.983,33.059c0-1.20335,1.33184-2.04214,2.57892-2.04214l3.81792.00269,1.53094-.00269a21.6894,21.6894,0,0,1,6.73684,1.24234,28.00438,28.00438,0,0,0,9.02182,1.53295c.16446,0,.33128-.00134.49473-.004a.34469.34469,0,0,1,.29428.13183.87207.87207,0,0,1-.19035.39148l-.03061.03565-1.61905,3.4372a2.27993,2.27993,0,0,1-2.06833,1.32242ZM51.823,29.87151a1.3702,1.3702,0,0,1-1.35639-1.38026V26.509a44.97745,44.97745,0,0,0,2.7838-6.46477,23.4077,23.4077,0,0,0,1.14343-3.42206,3.1577,3.1577,0,0,1,3.04775-2.892l1.25279-.06693a1.67109,1.67109,0,0,1,1.62909,1.66448,22.13811,22.13811,0,0,1-.977,5.98528,27.88074,27.88074,0,0,1-2.99124,7.76219,1.38589,1.38589,0,0,1-1.24473.7964ZM55.40957,9.42a.86822.86822,0,0,1-.65046-.2647.83011.83011,0,0,1-.22667-.61647c.00942-.83274.005-1.5148.001-2.16086-.0037-.61682-.0074-1.201.00135-1.85247a.86483.86483,0,0,1,.975-.862l.12208.00236c2.556,0,3.96187,1.53228,4.06579,4.4307a.87534.87534,0,0,1-.77186.81423c-1.41994.15912-3.1301.45908-3.3168.49237a1.21408,1.21408,0,0,1-.19909.0168Z"/><path class="cls-2" d="M47.17078,6.94908a2.85515,2.85515,0,1,0,3.55607,1.92129,2.85782,2.85782,0,0,0-3.55607-1.92129"/><path class="cls-3" d="M48.2106,14.478a3.56838,3.56838,0,0,0-1.44533.16042l-5.45492,1.02313a1.55993,1.55993,0,0,0,.9235,2.98l3.48286-.57264a33.97088,33.97088,0,0,0-1.26835,4.41374l-2.50755.26049a4.49236,4.49236,0,0,0-2.2232.27858l-3.28333,1.158a1.56011,1.56011,0,0,0,1.23805,2.86407l2.55348-.92862a4.947,4.947,0,0,1,1.636-.14147l3.79394.11481c1.26442-.37751,1.36152-.60524,1.7273-1.46154l.06037-.14389c-.00032.00541,2.76514-7.52457,2.76514-7.52457a1.83913,1.83913,0,0,0-1.998-2.48051"/><path class="cls-4" d="M26.22979,4.10907,19.21873,16.62826a.88276.88276,0,0,0,.77021,1.31409H34.01106a.88276.88276,0,0,0,.77021-1.31409L27.77021,4.10907A.88277.88277,0,0,0,26.22979,4.10907Z"/><line class="cls-5" x1="27" y1="8" x2="27" y2="13"/><rect class="cls-6" x="26" y="14" width="2" height="2"/></g></g></svg>