<svg xmlns="http://www.w3.org/2000/svg" viewBox="0 0 84 44"><defs><style>.cls-1{fill:#fff;}</style></defs><g id="E794_capa_ap"><path class="cls-1" d="M31.87141,2.46066A7.50218,7.50218,0,0,0,26.81549,1H21.00907V20h2.47638V12.44736h3.19138c4.32961-.09673,6.7141-2.07933,6.7141-5.7826A5.80826,5.80826,0,0,0,31.87141,2.46066ZM30.7493,6.67282c0,1.867-.96914,3.22016-2.54855,3.22016-.15725,0-.31315.029-.47034.0248l-4.245.04837V3.401h4.54A2.99869,2.99869,0,0,1,30.7493,6.67282Z"/><path class="cls-1" d="M64.50146,33.89453c-.05175-.27148-.28222-.75683-1.248-.957l-.5791-.12012.00976-.00683-2.05078-.42383a.92331.92331,0,0,0-.11816-.01563L49.855,30.16357a12.99105,12.99105,0,0,1-1.9873,1.13373l8.248,1.70758a1.22921,1.22921,0,0,1,.1709.06641.71709.71709,0,0,1-.27539.26367l-1.61914,1.05762a2.72931,2.72931,0,0,1-2.07227.42871l-6.10937-1.26465-.1582-.02344-3.1045-.64258.00391-.002-11.831-2.44824L33.148,29.11621a2.46488,2.46488,0,0,1,.37152-.18457,13.1012,13.1012,0,0,1-1.00995-1.05975c-.0423.02563-.08942.03943-.1311.06659l-3.873,2.47851-8.04394,5.25684c-.9668.63183-1.01856,1.21972-.96289,1.51367.05175.27148.28222.75684,1.248.957l22.25781,4.6084,4.94629,1.07519a6.18223,6.18223,0,0,0,1.25489.13965,4.3716,4.3716,0,0,0,2.48925-.77343l1.292-.88672.00293.001,5.15722-3.373.00293.001,5.47656-3.58593h-.002C64.50928,34.74121,64.55518,34.17969,64.50146,33.89453ZM31.40381,38.80566,21.855,36.82812a1.13815,1.13815,0,0,1-.249-.083h-.001a.72536.72536,0,0,1,.28125-.27051l7.4375-4.86035,3.709.76758a1.24829,1.24829,0,0,1,.22364.0791.71327.71327,0,0,1-.27832.2666l-1.60938,1.05273C30.40186,34.41211,30.3501,35,30.40576,35.294c.05176.27148.28223.75683,1.249.957l3.47851.71679a1.16221,1.16221,0,0,1,.24219.08106.721.721,0,0,1-.28028.26953l-1.61035,1.05176A3.24253,3.24253,0,0,1,31.40381,38.80566Zm21.05762,2.1084-1.61036,1.05176a3.24377,3.24377,0,0,1-2.081.43555l-13.8916-2.877a1.1641,1.1641,0,0,1-.249-.083.73279.73279,0,0,1,.28125-.27051l2.06055-1.35742a1.39049,1.39049,0,0,1,1.34766-.18262l13.37793,2.76562-.03223.02247.86035.15234a1.21778,1.21778,0,0,1,.21387.07617A.715.715,0,0,1,52.46143,40.91406Zm9.65234-6.30664-3.88965,2.54785-.00781-.002-2.543,1.66211a3.33331,3.33331,0,0,1-1.98047.44824l-20.93164-4.3291a1.16416,1.16416,0,0,1-.249-.083.69744.69744,0,0,1,.27734-.26758l2.05664-1.3164a1.58662,1.58662,0,0,1,1.41406-.209l14.86329,3.07032.91015.17968a4.8477,4.8477,0,0,0,3.668-1.04l.00977.00293,2.10546-1.38574a2.14576,2.14576,0,0,1,1.58985-.19824l2.73828.56641a1.16386,1.16386,0,0,1,.249.083A.71024.71024,0,0,1,62.11377,34.60742Z"/><path class="cls-1" d="M42.44906,8.5A11,11,0,1,0,53.44,19.50911l0-.00767A11.03611,11.03611,0,0,0,42.44906,8.5Zm-2.899,12.15707a2.89921,2.89921,0,1,1,2.89229,2.99829A2.96935,2.96935,0,0,1,39.55007,20.65707ZM50.61,16.10644c-.069.11689-.24646.524-.47469.524H34.76091c-.22824,0-.40565-.40711-.4747-.524a.28643.28643,0,0,1,.01148-.28461l.00669-.01243a8.93607,8.93607,0,0,1,16.29695.01817A.27727.27727,0,0,1,50.61,16.10644Zm-2.0762,3.45824v-.44749l2.27951.00287c.34331,0,.56867,0,.57538.573a8.91958,8.91958,0,0,1-.95221,3.8377l-.03932.08144c-.19276.42259-.50251.57782-.72792.4063l-1.83933-1.60792A6.04445,6.04445,0,0,0,48.5338,19.56468ZM37.06055,22.41159,35.2404,24.008a.345.345,0,0,1-.29153.07379.79574.79574,0,0,1-.45072-.46857l-.04028-.08912a8.88665,8.88665,0,0,1-.95322-3.82046c.00765-.58357.2359-.58357.58018-.58357l2.2747-.00287-.00191.44845A6.14089,6.14089,0,0,0,37.06055,22.41159Zm.1448,4.3264a.33892.33892,0,0,1-.13905-.252c-.00478-.18111.14672-.41875.45935-.72347l1.39916-1.22557a6.07562,6.07562,0,0,0,7.0466,0l1.3886,1.216c.32318.31239.47661.55191.47087.734a.34653.34653,0,0,1-.14864.2568l-.02206.023-.02973.02583a8.92656,8.92656,0,0,1-10.35892.00287l-.03068-.022-.095.07378.09014-.07857Z"/></g></svg>