<?xml version="1.0" encoding="UTF-8"?>
<svg id="Ebene_1" data-name="Ebene 1" xmlns="http://www.w3.org/2000/svg" viewBox="0 0 44 44">
  <defs>
    <style>
      .cls-1 {
        fill: #00f300;
      }
    </style>
  </defs>
  <circle class="cls-1" cx="22" cy="22.00024" r="19.8"/>
  <path class="cls-1" d="M22,2.50024c10.76955,0,19.5,8.73045,19.5,19.5s-8.73045,19.5-19.5,19.5S2.5,32.7698,2.5,22.00024,11.23045,2.50024,22,2.50024m0-.5C10.9543,2.00024,2,10.95455,2,22.00024s8.9543,20,20,20,20-8.9543,20-20c-.05471-11.02296-8.97704-19.94529-20-20Z"/>
  <circle cx="22" cy="22.00024" r="18.5"/>
  <path class="cls-1" d="M26.5,11.70024l7,14.5-5.6,2.6-7.8-17.1h6.4Zm-7.6,0h-3.2l-6.5,13.9,5.7,2.7,5.7-12.8-1.7-3.8Zm9.7,19.2c.22127,.39656,.52885,.73832,.9,1l.4,.6,1.8-.7v-.9s1.6-.1,1.8-.1c1.19166-.17212,2.30539-.69418,3.2-1.5,1-1.1,.1-1.5-.7-1.3-.6558,.18284-1.32432,.31655-2,.4-.65709,.05693-1.30849-.1602-1.8-.6-.47705,.47-1.01522,.87363-1.6,1.2-.64592,.20809-1.32146,.30942-2,.3-.10587,.52808-.10587,1.07192,0,1.6Zm-20.3-3.3c-.1222,.42188-.15624,.8644-.1,1.3l-.2,.7,1.7,.8,.7-.6,1.3,1.3c.97081,.70826,2.10697,1.15584,3.3,1.3,1.5,0,1.2-.9,.5-1.4-.55799-.36603-1.09238-.76682-1.6-1.2-.48198-.43784-.76984-1.04954-.8-1.7-.67948-.05846-1.3503-.19263-2-.4-.60058-.34329-1.14104-.78241-1.6-1.3-.45012,.34653-.85348,.74988-1.2,1.2Z"/>
</svg>