<svg xmlns="http://www.w3.org/2000/svg" viewBox="0 0 40 40"><g id="t11_1p600"><rect id="rect4" y="7" width="40" height="26" fill="#0038a8" /><rect id="rect6" y="7" width="40" height="17.33333" fill="#fff" /><rect id="rect8" y="7" width="40" height="8.66667" fill="#d52b1e" /><path id="path2542" d="M23.57857,19.99907a3.53629,3.53629,0,1,1-3.53639-3.53535A3.53636,3.53636,0,0,1,23.57857,19.99907Z" fill="#fff" stroke="#000" stroke-miterlimit="10" stroke-width="0.15585" /><g id="g4938"><path id="path2462" d="M17.82406,21.41412l-.03025-.05018a.2046.2046,0,0,0-.02362-.02858.03459.03459,0,0,0-.02341-.01152.042.042,0,0,0-.02756.00555.03907.03907,0,0,0-.02072.02859.08058.08058,0,0,0,.01658.05059l.03066.05224Zm.2994-.01727-.38476.22889-.11748-.19743a.33354.33354,0,0,1-.0402-.08966.10086.10086,0,0,1,.00663-.06787.12365.12365,0,0,1,.052-.05552.1333.1333,0,0,1,.06257-.01933.12628.12628,0,0,1,.06029.01542.19241.19241,0,0,1,.04041.03249.14615.14615,0,0,1-.00477-.03948.24347.24347,0,0,1,.00932-.03085.29159.29159,0,0,1,.01326-.03085l.0777-.1238.07936.1345-.07936.13346a.11041.11041,0,0,0-.01678.03887.06286.06286,0,0,0,.00829.03414l.00663.0109.15581-.09275Z" /><path id="path2466" d="M17.4461,21.08356l-.11748-.351.09054-.03044.07356.22005.06795-.02283-.0692-.20421.087-.02838.06838.20319.08329-.027-.07521-.22642.09614-.0327.11934.35763Z" /><path id="path2470" d="M17.45865,20.369l-.00476-.0329a.08626.08626,0,0,0-.01989-.05429.04787.04787,0,0,0-.03792-.01193.05469.05469,0,0,0-.03336.01768.06852.06852,0,0,0-.00808.05409l.00373.03948Zm-.174.1602-.02673-.22806a.16067.16067,0,0,1,.02217-.11558.13563.13563,0,0,1,.097-.04874.13824.13824,0,0,1,.11.02776.18144.18144,0,0,1,.05221.11928l.0085.07506.16471-.01912.01617.138Z" /><path id="path2474" d="M17.26905,19.65646l.0143-.13737.26562.02858a.23364.23364,0,0,1,.07231.02036.15013.15013,0,0,1,.0576.04545.15827.15827,0,0,1,.03108.059.27375.27375,0,0,1,.00435.09769.50559.50559,0,0,1-.01243.06992.18162.18162,0,0,1-.02507.0621.1626.1626,0,0,1-.0431.0436.14054.14054,0,0,1-.05449.02324.24721.24721,0,0,1-.07666.00473l-.26438-.028.01429-.13758.27122.02941a.0714.0714,0,0,0,.08557-.06745.07584.07584,0,0,0-.01429-.058.07713.07713,0,0,0-.0547-.02632Z" /><path id="path2478" d="M17.714,19.28049l.02383-.06622a.08093.08093,0,0,0,.00435-.05224.04147.04147,0,0,0-.02715-.02447.03858.03858,0,0,0-.035.00288.07879.07879,0,0,0-.02839.0436l-.02362.06663Zm-.166-.0582.02009-.05614a.06673.06673,0,0,0,.00373-.04669.03685.03685,0,0,0-.0259-.022.03847.03847,0,0,0-.03273.00144.0665.0665,0,0,0-.02445.03784l-.02093.05779Zm-.21114.07424.08495-.24493a.14467.14467,0,0,1,.06382-.08329.10641.10641,0,0,1,.08619-.00638.108.108,0,0,1,.05594.04628.11811.11811,0,0,1,.01244.05531.11923.11923,0,0,1,.0605-.05326.11037.11037,0,0,1,.07521.00165.124.124,0,0,1,.05325.03557.13169.13169,0,0,1,.02673.05635.1565.1565,0,0,1-.00373.05409c-.007.03146-.01119.05141-.01471.06067l-.07874.22539Z" /><path id="path2482" d="M17.56486,18.7234l.07231-.11805.288.1746.11209-.18426.09386.05738-.18274.3021Z" /><path id="path2486" d="M17.86028,18.28337l.08888-.10591.34125.28853-.08909.10591Z" /><path id="path2490" d="M18.48,18.043l.11623-.04977a.23264.23264,0,0,1,.02466.09028.17234.17234,0,0,1-.01658.08124.27179.27179,0,0,1-.06485.0767.29486.29486,0,0,1-.10567.05985.19745.19745,0,0,1-.1096-.00638.26107.26107,0,0,1-.11251-.08329.23552.23552,0,0,1-.06361-.16863.2658.2658,0,0,1,.21424-.2112.19577.19577,0,0,1,.122.03413l-.07646.09913a.09176.09176,0,0,0-.02962-.0144.067.067,0,0,0-.03709-.00041.07881.07881,0,0,0-.034.01687.0813.0813,0,0,0-.03129.07547.16408.16408,0,0,0,.04123.07959.17022.17022,0,0,0,.08267.06375.08825.08825,0,0,0,.09842-.07424A.13715.13715,0,0,0,18.48,18.043" /><path id="path2494" d="M18.93247,17.77426l-.11686-.12093.02942.166Zm.06961.07341-.14006.07116.0143.07588-.12577.064-.05325-.47485.13447-.06869.35285.32226-.12867.06581Z" /><path id="path2498" d="M19.546,17.38144l.03439.24144.03357-.00494a.139.139,0,0,0,.06029-.01789.06647.06647,0,0,0,.023-.03784.1956.1956,0,0,0-.00021-.07794.15128.15128,0,0,0-.03646-.09275.099.099,0,0,0-.08019-.01481Zm-.15042-.08082.20305-.0292a.24745.24745,0,0,1,.09862.00247.16247.16247,0,0,1,.06858.038.19464.19464,0,0,1,.04476.06581.31414.31414,0,0,1,.0232.08452.27539.27539,0,0,1-.00041.11167.18871.18871,0,0,1-.03523.07259.14929.14929,0,0,1-.05677.0434.31043.31043,0,0,1-.08018.02447l-.20347.02859Z" /></g><path id="path2502" d="M20.00406,17.21394l.369.02735-.00684.09521-.231-.01727-.00539.07095.21424.01583-.00766.0907-.21321-.01522-.00621.0872.23765.01768-.00746.10077-.37606-.02776Z" /><path id="path2506" d="M20.57262,17.26615l.13281.037-.09179.32493.20741.05861-.03026.10529-.34042-.09645Z" /><path id="path2510" d="M21.327,17.7622l.02859.01851a.08949.08949,0,0,0,.05408.01933.04147.04147,0,0,0,.03294-.02056.05488.05488,0,0,0,.0085-.03784.07472.07472,0,0,0-.03647-.04072l-.03294-.02221Zm-.011-.23547.19207.12668a.15534.15534,0,0,1,.07355.09152.131.131,0,0,1-.02465.1057.13613.13613,0,0,1-.092.0654.17682.17682,0,0,1-.12473-.03619l-.06319-.042-.09075.13841-.11583-.07671Z" /><path id="path2514" d="M21.801,18.20845l.07791-.1491-.14794.08Zm-.04724.08884-.11209-.11023-.06755.037-.10049-.09872.20655-.09541.22753-.1051.10691.10571-.19435.437-.10277-.102Z" /><path id="path2518" d="M22.16907,18.49122l.03149.04976a.18749.18749,0,0,0,.02466.02777.0368.0368,0,0,0,.024.01049.0385.0385,0,0,0,.02652-.00659.04207.04207,0,0,0,.02051-.0292.08209.08209,0,0,0-.01844-.04976l-.03191-.051Zm-.299.02653.37689-.24062.12369.19393a.38114.38114,0,0,1,.04455.088.10926.10926,0,0,1-.0058.06787.12357.12357,0,0,1-.04952.05676.11719.11719,0,0,1-.063.02118.13685.13685,0,0,1-.06071-.01234.23131.23131,0,0,1-.04082-.03188.15919.15919,0,0,1,.006.03908.246.246,0,0,1-.00787.03085.16333.16333,0,0,1-.01347.03167l-.07293.12627-.08454-.13183.07584-.13531a.09411.09411,0,0,0,.01512-.04011.0493.0493,0,0,0-.00953-.03393l-.006-.01028-.15332.09768Z" /><path id="path2522" d="M22.39852,19.11983l.134-.10118-.16762.00926Zm-.08143.05985-.05366-.14787-.07625.00535-.04869-.13265.47779.00556.05159.14107-.3628.31095-.04972-.13655Z" /><path id="path2526" d="M22.53106,19.65525l.092-.01214.02673.21306-.18917.02282a.424.424,0,0,1-.0694-.10035.3529.3529,0,0,1-.02922-.109.25745.25745,0,0,1,.01139-.132.18672.18672,0,0,1,.07-.088.27152.27152,0,0,1,.11851-.04215.25021.25021,0,0,1,.13012.01439.19639.19639,0,0,1,.09262.07712.27664.27664,0,0,1,.03646.11887.308.308,0,0,1,.00042.11125.13374.13374,0,0,1-.03378.066.17284.17284,0,0,1-.06568.04483L22.6819,19.711a.07219.07219,0,0,0,.03481-.03291.092.092,0,0,0,.00725-.051.09486.09486,0,0,0-.0402-.06827.15461.15461,0,0,0-.103-.0144.16136.16136,0,0,0-.09946.03969.10229.10229,0,0,0-.02113.08.14436.14436,0,0,0,.012.04257.277.277,0,0,0,.02859.04586l.04206-.00576Z" /><path id="path2530" d="M22.81413,20.32563l-.01575.137-.26438-.02982a.2245.2245,0,0,1-.07293-.02077.16123.16123,0,0,1-.05719-.04545.15948.15948,0,0,1-.03045-.05861.29129.29129,0,0,1-.00373-.0983c.0029-.02139.007-.045.01222-.07033a.18034.18034,0,0,1,.02611-.0619.17552.17552,0,0,1,.04268-.043.15435.15435,0,0,1,.05511-.02282.23313.23313,0,0,1,.07667-.00411l.26479.03023-.01575.13655-.2708-.03105a.07786.07786,0,0,0-.05946.01377.07565.07565,0,0,0-.02632.05327.07437.07437,0,0,0,.01388.058.0809.0809,0,0,0,.05408.02735Z" /><path id="path2534" d="M22.40258,20.83453l.16845.006-.13592-.09913Zm-.09987-.00514.051-.14827-.06236-.04463.04641-.13347.36756.3054-.05055.14292-.47634.01173.04682-.137Z" /><path id="path2538" d="M22.54948,21.241l-.0777.13224-.17611.00061.08433.15465-.07729.13059-.13592-.28153-.1612-.095.07086-.11948.161.09563Z" /><path id="path2546" d="M23.00353,19.99907a2.961,2.961,0,1,1-2.96081-2.96035A2.96119,2.96119,0,0,1,23.00353,19.99907Z" fill="none" stroke="#000" stroke-miterlimit="10" stroke-width="0.06234" /><path id="path2550" d="M22.246,19.989a2.20351,2.20351,0,1,1-2.20331-2.20253A2.203,2.203,0,0,1,22.246,19.989Z" fill="none" stroke="#000" stroke-miterlimit="10" stroke-width="0.06234" /><path id="path2554" d="M20.04291,19.19615l.185.52976.56005.01254-.4463.33933.16223.537-.461-.31917-.46122.31917.1614-.537-.44691-.33933.56108-.01254Z" fill="#fcde09" /><path d="M21.24263,18.70906a1.76247,1.76247,0,1,1-2.44637.0445" fill="none" stroke="#039a39" stroke-width="0.5" /></g></svg>