<svg xmlns="http://www.w3.org/2000/svg" viewBox="0 0 44 44"><g id="d0_t15_cc-nzl_1p0_2p1023_1s1"><circle id="Hintergrund" cx="22" cy="22" r="20" fill="#010101"/><path id="Piktogramm" d="M32.87316,26.36774a.80012.80012,0,0,0-.82837-.35254L30,26.42V19.46667a8,8,0,0,0-16,0V33.53333h4V19.46667a4,4,0,0,1,8,0V26.42l-2.0448-.40478a.8.8,0,0,0-.80432,1.2525L28,34l4.84912-6.7323A.8002.8002,0,0,0,32.87316,26.36774Z" fill="#00f300"/><path id="Rahmen" d="M22,2.37555A19.62445,19.62445,0,1,0,41.62438,22,19.62439,19.62439,0,0,0,22,2.37555ZM22,7a14.92626,14.92626,0,0,1,9.3562,3.2868L10.28673,31.3562A14.98968,14.98968,0,0,1,22,7Zm0,30a14.926,14.926,0,0,1-9.35608-3.2868L33.71325,12.6438A14.98968,14.98968,0,0,1,22,37Z" fill="#00f300" stroke="#000" stroke-miterlimit="10" stroke-width="0.5"/></g></svg>