<svg id="Icon" xmlns="http://www.w3.org/2000/svg" viewBox="0 0 40 40"><defs><style>.cls-1{fill:#fff;}.cls-2{fill:none;stroke:#fff;stroke-miterlimit:10;}</style></defs><polygon class="cls-1" points="14 17.584 14 15.879 29 10.674 29 12.379 14 17.584"/><polygon class="cls-1" points="14 9.633 29 4.428 29 6.133 14 11.338 14 9.633"/><path class="cls-1" d="M25.81067,30.44454c-2.1921.73232-3.81414.379-4.42328-.93417-.40472-.87482.90169-2.70859,3.09379-3.44191,2.19211-.73133,3.97845-.69372,4.42329.57795C29.38336,28.014,28.00278,29.71321,25.81067,30.44454Z"/><path class="cls-1" d="M11.81718,35.39269c-2.19211.73232-3.81415.379-4.42329-.93421-.40475-.87483.90169-2.7086,3.0938-3.44191,2.1921-.73133,3.97845-.69373,4.42328.57793.4789,1.36762-.90169,3.06683-3.09379,3.79816Z"/><line class="cls-2" x1="28.5" y1="5.94941" x2="28.5" y2="27.15993"/><line class="cls-2" x1="14.5" y1="10.01611" x2="14.5" y2="32.15529"/></svg>