<?xml version="1.0" encoding="UTF-8"?>
<svg id="Ebene_1" data-name="Ebene 1" xmlns="http://www.w3.org/2000/svg" viewBox="0 0 40 40">
  <defs>
    <style>
      .cls-1, .cls-2 {
        fill: #fff;
      }

      .cls-2 {
        fill-rule: evenodd;
      }

      .cls-3 {
        fill: none;
        stroke: #fff;
        stroke-miterlimit: 10;
        stroke-width: 1.8px;
      }
    </style>
  </defs>
  <path class="cls-3" d="M11.52778,38.77351l28.14529-11.866"/>
  <line class="cls-3" x1="8.57386" y1="10.485" x2="11.02178" y2="10.485"/>
  <line class="cls-3" x1="24.4" y1="10.485" x2="22.09178" y2="10.485"/>
  <line class="cls-3" x1="16.61178" y1="2.09541" x2="16.61178" y2="4.935"/>
  <line class="cls-3" x1="11.17295" y1="5.16958" x2="12.82705" y2="6.83042"/>
  <line class="cls-3" x1="21.8894" y1="4.97611" x2="20.3106" y2="6.72389"/>
  <path class="cls-3" d="M13.50073,14.63086l-2.00073,1.86914c-1.78392-1.48734-2.83184-3.6777-2.87054-6-.06813-4.34961,3.4027-7.9309,7.75231-7.99904,.03941-.00062,.07882-.00094,.11823-.00096,4.41083-.00745,7.99255,3.56219,8,7.97302,.00002,.009,.00002,.01799,0,.02698-.14027,2.32534-1.22389,4.49258-3,6-.35649-.32754-1.8688-1.9561-1.8688-1.9561"/>
  <path class="cls-1" d="M13.841,12.4312l-1.54685-.1127,.99831-1.17553,2.08977-.89838c-.01539-.10184-.00571-.20589,.02821-.30314,.27055-.68686,1.04667-1.02434,1.73353-.7538,.34591,.13625,.61944,.4104,.7549,.75662,.25214,.60466,.04271,1.30324-.5005,1.66945l-.362,.1705c-.29421,.09414-.61253,.07874-.89628-.04335-.12299-.05185-.23743-.122-.33944-.20806l-1.95962,.89838h-.00003Z"/>
  <path class="cls-3" d="M17.37909,34.74317c-.98115,.00088-1.86996-.57859-2.265-1.4767-.19792,.0671-.41349,.13338-.65273,.19276-.1243,.03184-.26677,.06282-.41607,.0895-.33121,.0707-.66645,.12099-1.00383,.15059l-.67468,.05162-.22416-.63853-.12262-.36572c-.23699-.63057-.33601-1.30462-.2904-1.9767,.0172-.31694,.15553-.61516,.38638-.833,1.8318-1.51268,3.77208-2.88895,5.80525-4.11773l.3296-.191c.65057-1.46207,1.64537-3.68013,1.79682-3.931l.10413-.17125,.16782-.10972c1.86566-1.21854,9.75691-3.79288,11.27922-4.00242l.06024-.00817,.10241-.0022c.0319,0,3.40433,.27624,4.091,1.2771,.09295,.13647,.17112,.28244,.2332,.43544,.11187,.24268,.21514,.4875,.31668,.73276l.25387,.63121c.11789,.29689,.22374,.56366,.30894,.74954,.06419,.14293,.10459,.2954,.11961,.45136,.01035,.07555,.01524,.15175,.01463,.228-.00157,.16163-.01567,.32289-.04216,.48234-.09975,.70053-.38199,1.36251-.8184,1.9195l-.10327,.08778-.98618,.41306c.46149,1.26287-.14199,2.6665-1.376,3.20039-1.23373,.52265-2.65941-.03063-3.21759-1.2487l-10.8317,4.59448c.44688,1.26123-.15679,2.6534-1.38289,3.1892-.30424,.12946-.63148,.1962-.96212,.19621Z"/>
  <path class="cls-2" d="M5.0455,19.54637l-.72869-1.86132-2.92674,1.3142L.11761,15.94925l2.93239-1.26801-.64487-1.94619,4.26665,2.2-1.62628,4.61132Z"/>
</svg>