<svg xmlns="http://www.w3.org/2000/svg" viewBox="0 0 40 40"><defs><style>.cls-1{fill:none;stroke:#fff;stroke-miterlimit:10;stroke-width:1.2px;}.cls-2{fill:#fff;}</style></defs><g id="Ebene_1" data-name="Ebene 1"><path class="cls-1" d="M40,23.6H33.02862a19.93606,19.93606,0,0,0,.73125-4.687c0-7.20679-6.15229-12.513-13.74145-12.513H2"/><path class="cls-1" d="M0,16.4H7.00821A15.70044,15.70044,0,0,0,6.277,20.968c0,7.20679,6.15223,12.63139,13.74146,12.63139.05945,0,.17608.00057.17608.00057H38"/><path class="cls-2" d="M23.09884,28.83521a.54679.54679,0,0,1-.05937-.00324,4.90222,4.90222,0,0,1-4.38111-4.883,2.04789,2.04789,0,0,1,.0259-.29466l.02159-.18025a4.67906,4.67906,0,0,0-1.82412,4.49444.55262.55262,0,0,1-.9779.42419,4.9,4.9,0,0,1,.35511-6.54955,1.97026,1.97026,0,0,1,.22127-.18672l.14787-.1155a4.89891,4.89891,0,0,0-.57745-.04749,4.826,4.826,0,0,0-3.89217,1.93745.55909.55909,0,0,1-.64438.18133.55154.55154,0,0,1-.34647-.57314,4.90382,4.90382,0,0,1,4.883-4.38165,2.10271,2.10271,0,0,1,.28711.02428l.18888.02321a5.0782,5.0782,0,0,0-.37453-.442,4.88948,4.88948,0,0,0-4.13179-1.3751.54466.54466,0,0,1-.58285-.32651.553.553,0,0,1,.15758-.64977,5.01034,5.01034,0,0,1,6.56143.34647,1.98255,1.98255,0,0,1,.191.22829l.11118.14139a4.7378,4.7378,0,0,0,.04857-.57745,4.82447,4.82447,0,0,0-1.93853-3.89163.55269.55269,0,0,1,.39181-.99085,4.90107,4.90107,0,0,1,4.38219,4.88248,1.90187,1.90187,0,0,1-.02482.28441l-.01943.18727a4.67606,4.67606,0,0,0,1.82088-4.49337.55275.55275,0,0,1,.9779-.42365,4.90326,4.90326,0,0,1-.35511,6.55117,2.23656,2.23656,0,0,1-.217.18241l-.15327.11981a4.68128,4.68128,0,0,0,4.46962-1.88942.55269.55269,0,0,1,.99085.39181,4.903,4.903,0,0,1-4.883,4.38165,2.05576,2.05576,0,0,1-.27307-.02266l-.20184-.02591a4.7801,4.7801,0,0,0,.37453.44254,4.84553,4.84553,0,0,0,4.12747,1.3751.55266.55266,0,0,1,.42851.97574,5.00783,5.00783,0,0,1-6.56143-.34539,2.06861,2.06861,0,0,1-.17485-.20724l-.12737-.163a4.68867,4.68867,0,0,0,1.89,4.46962.55274.55274,0,0,1-.33244.99409Z"/></g></svg>