<svg id="V2" xmlns="http://www.w3.org/2000/svg" viewBox="0 0 40 40"><defs><style>.cls-1{fill:#fff;}.cls-2{fill:none;stroke:#fff;stroke-miterlimit:10;stroke-width:2.37197px;}</style></defs><path class="cls-1" d="M31.22035,2.25,32.714,6.7069,28.15755,7.90346Z"/><path class="cls-2" d="M29.773,5.14353A21.35448,21.35448,0,0,0,10.2091,5.157"/><path class="cls-1" d="M5.48967,30.13583c.24273.68337.454,1.27642.58832,1.81844a24.78432,24.78432,0,0,0,4.36427,4.62031c1.22773.91666,1.63619,1.07614,4.54491,1.23953,2.32269.1296,4.57864.13589,5.00675.13589.43361,0,2.69347-.00629,5.0162-.13589,2.90793-.16339,3.3164-.32287,4.54413-1.23953a24.75036,24.75036,0,0,0,4.36422-4.62031c.13433-.542.34563-1.13425.58837-1.81844a15.69,15.69,0,0,0,.98972-9.38988,17.7873,17.7873,0,0,0-5.22122-9.08115A9.75229,9.75229,0,0,0,26.3714,9.55025a28.62336,28.62336,0,0,0-6.37354-.55065,28.61157,28.61157,0,0,0-6.37276.55065A9.75235,9.75235,0,0,0,9.72116,11.6648a17.78021,17.78021,0,0,0-5.222,9.08115A15.69537,15.69537,0,0,0,5.48967,30.13583ZM6.98212,19.39412A13.07211,13.07211,0,0,1,8.54447,17.4178c.12019-.13195.205-.22465.22938-.25843a6.9303,6.9303,0,0,0,.3024-.648,14.38674,14.38674,0,0,1,1.35656-2.556,5.86514,5.86514,0,0,1,3.61489-2.61807,30.33623,30.33623,0,0,1,5.95016-.49015,30.3441,30.3441,0,0,1,5.95094.49015,5.87124,5.87124,0,0,1,3.61486,2.61807,14.38868,14.38868,0,0,1,1.3566,2.556,6.555,6.555,0,0,0,.30712.65432c.0196.0275.10446.11942.22384.25215a12.93435,12.93435,0,0,1,1.56239,1.97632,1.69329,1.69329,0,0,1,.01882,1.78939,1.62087,1.62087,0,0,1-1.82313.44692c-.86106-.20275-1.87683-.455-2.81284-.688a1.08307,1.08307,0,0,1,.2032.98927c-.01249.06115-.11111.52073-.236,1.09143l-.41881,1.93564a1.95541,1.95541,0,0,0-.03945.20973c.04865.13084.1098.2939.15516.41225a.73152.73152,0,0,1,.03214.06961c.96572-.0164,3.4278-.04857,3.90686-.05313a.68813.68813,0,0,1,.6936.36683c.073.16417.15.34563.21993.5428a1.01687,1.01687,0,0,1,.02515.55376,20.83349,20.83349,0,0,1-1.919,4.55042,9.642,9.642,0,0,1-3.0336,3.65648,2.51163,2.51163,0,0,1-1.32907.44931l-.22938.02827c-.26348.03686-1.48431.09973-2.76789.1532l-.03612.06085a2.08513,2.08513,0,0,1-1.88106.89068c-.91851.03419-1.39716.03419-1.74694.03419-.34913,0-.82843-.004-1.73642-.03353a2.0675,2.0675,0,0,1-1.88435-.88542l-.04155-.06176c-1.30576-.05453-2.49183-.12016-2.76431-.15821L13.34,35.71681a2.51153,2.51153,0,0,1-1.32907-.44931A9.64166,9.64166,0,0,1,8.9773,31.611,20.81684,20.81684,0,0,1,7.05752,27.0606a1.0213,1.0213,0,0,1,.02593-.55454c.0699-.19639.14687-.37785.21993-.542a.665.665,0,0,1,.69361-.36683c.48091.00456,2.96.037,3.9064.05264.02441-.06263.05273-.13495.08359-.21443.03879-.0973.07758-.19593.10454-.26759-.00658-.06049-.02236-.13019-.04077-.21434l-.41816-1.93038c-.1236-.5707-.22354-1.02962-.236-1.09143a1.083,1.083,0,0,1,.20308-.989c-.93647.23275-1.9513.4844-2.81322.68773A1.62135,1.62135,0,0,1,6.964,21.18351,1.69654,1.69654,0,0,1,6.98212,19.39412Z"/><path class="cls-1" d="M15.12581,30.04038c.021.26271.048.49757.0697.6324a9.59782,9.59782,0,0,0,.84092,2.76638c.13544.30006.44841.96159.56149,1.18188l.05129.10192c.38857.766.62526,1.12524,1.63516,1.15689.87709.02785,1.34127.03165,1.71275.03165.34387,0,.814,0,1.71933-.03165.9665-.03355,1.2216-.35166,1.62925-1.155l.05325-.10445c.11243-.21966.42539-.88119.56084-1.18125a9.584,9.584,0,0,0,.83961-2.76638c.02235-.14053.05128-.37919.07363-.6343-.19921.10761-.33531.23155-.38331.25181a2.31434,2.31434,0,0,1-.83369.20384c-.03879.0038-.30508.02342-.574.02849l-.53716.01392c-.75611.01836-1.81335.03925-2.54184.045-.6542.007-1.53391-.01773-2.23808-.03672l-.84355-.02215c-.27023-.00507-.53651-.02469-.5753-.02849a2.36914,2.36914,0,0,1-.835-.20384C15.46245,30.26813,15.32174,30.14546,15.12581,30.04038Zm1.97571,1.16222H22.8993l-.02593.21934a10.44744,10.44744,0,0,1-.692,2.31653c-.32837.83193-.51687,1.06184-1.2207,1.09357-.33146.01591-.71637.01816-.88288.01816h-.07935c-.02984-.00075-.53807.00151-.95829-.01816-.70384-.03173-.89233-.26164-1.2207-1.09357a10.44863,10.44863,0,0,1-.692-2.31653Z"/><path class="cls-1" d="M19.83779,23.57593a.97306.97306,0,0,0,.15961.53607.98014.98014,0,0,0,.00051-1.07142A.97325.97325,0,0,0,19.83779,23.57593Z"/><path class="cls-1" d="M18.11953,22.79016a.97959.97959,0,1,0,.00039,1.572,1.30972,1.30972,0,0,1-.00039-1.572Z"/><path class="cls-1" d="M18.197,23.57593a.97339.97339,0,0,0,.16025.53533.97684.97684,0,0,0-.00052-1.06984A.97384.97384,0,0,0,18.197,23.57593Z"/><path class="cls-1" d="M19.17727,22.59594h-.00013a.97334.97334,0,0,0-.58317.19422,1.3115,1.3115,0,0,1,.00052,1.572.97419.97419,0,0,0,1.16556.00038,1.31071,1.31071,0,0,1,.00052-1.57285A.97206.97206,0,0,0,19.17727,22.59594Z"/><path class="cls-1" d="M21.87653,22.79016a.97959.97959,0,1,1-.00039,1.572,1.30972,1.30972,0,0,0,.00039-1.572Z"/><path class="cls-1" d="M21.79905,23.57593a.9734.9734,0,0,1-.16026.53533.97684.97684,0,0,1,.00052-1.06984A.97385.97385,0,0,1,21.79905,23.57593Z"/><path class="cls-1" d="M20.81879,22.59594h.00013a.97334.97334,0,0,1,.58317.19422,1.31154,1.31154,0,0,0-.00052,1.572.97419.97419,0,0,1-1.16556.00038,1.31071,1.31071,0,0,0-.00052-1.57285A.97206.97206,0,0,1,20.81879,22.59594Z"/><path class="cls-1" d="M12.132,21.94485c.03518.17161.08317.40764.13479.672.10092.51679.239,1.11707.35011,1.599.08777.382.15747.68378.17785.81265a.78854.78854,0,0,1-.0263.39449c-.06148.16569-.11046.29127-.17522.43328a.267.267,0,0,0,.00657.29193A27.8348,27.8348,0,0,0,14.158,28.58874a.77525.77525,0,0,0,.33992.29127c.31658.16108.713.33626,1.0036.50063.15484.08744.30113.16963.32907.18212a2.20121,2.20121,0,0,0,.91917.15714c.22782.00986,2.00632.06575,3.247.06575,1.242,0,3.01917-.05589,3.24666-.06575a2.19593,2.19593,0,0,0,.91884-.15714c.0286-.01249.17555-.09534.331-.18344.29028-.16371.68877-.33823,1.00469-.49931a.77417.77417,0,0,0,.34025-.29127,28.03225,28.03225,0,0,0,1.55791-2.44058.26784.26784,0,0,0,.00691-.29193c-.06641-.14464-.11605-.27285-.17522-.43262a.79169.79169,0,0,1-.0263-.39515c.02038-.12887.09007-.43131.17818-.81463.11078-.48193.24885-1.0809.34978-1.597.04964-.25444.09566-.48128.13051-.65157.0332-.16371.05589-.27285.05884-.29849.02466-.18673-.02794-.27155-.24491-.3945a17.11722,17.11722,0,0,0-2.60035-1.20056l-.48786-.15649c-.39778-.06509-.72915-.08876-1.11312-.11571-.164-.01184-.33729-.02433-.52467-.04077-.02269-.00065-2.27819-.08876-2.94981-.08876-.67195,0-2.92713.08811-2.94521.08876-.192.01644-.36523.02893-.52927.04077-.384.02695-.71568.05062-1.09866.11177l-.502.16043a17.08485,17.08485,0,0,0-2.60036,1.20056c-.2173.12295-.27022.20777-.24557.3945C12.08,21.69106,12.10105,21.79166,12.132,21.94485Zm4.08492,1.63106a1.3178,1.3178,0,0,1,2.13987-1.03164,1.31233,1.31233,0,0,1,.82042-.28785h.00012a1.30816,1.30816,0,0,1,.82075.28728,1.30811,1.30811,0,0,1,.82074-.28728h.00017a1.31226,1.31226,0,0,1,.82038.28785,1.31908,1.31908,0,1,1-.00066,2.06389,1.31435,1.31435,0,0,1-1.64.00049h-.00127a1.3144,1.3144,0,0,1-1.64-.00049,1.3187,1.3187,0,0,1-2.14052-1.03225Z"/></svg>