<svg id="V2" xmlns="http://www.w3.org/2000/svg" viewBox="0 0 40 40"><defs><style>.cls-1{fill:#fff;}.cls-2{fill:none;stroke:#fff;stroke-miterlimit:10;stroke-width:2.37197px;}</style></defs><path class="cls-1" d="M8.77965,2.25,7.286,6.7069l4.55645,1.19656Z"/><path class="cls-2" d="M10.227,5.14353A21.35448,21.35448,0,0,1,29.7909,5.157"/><path class="cls-1" d="M35.50084,20.746a17.78021,17.78021,0,0,0-5.222-9.08115A9.75235,9.75235,0,0,0,26.3749,9.55025a28.61157,28.61157,0,0,0-6.37276-.55065,28.62336,28.62336,0,0,0-6.37354.55065A9.75229,9.75229,0,0,0,9.72466,11.6648,17.7873,17.7873,0,0,0,4.50344,20.746a15.69,15.69,0,0,0,.98972,9.38988c.24274.68419.454,1.27642.58837,1.81844a24.75036,24.75036,0,0,0,4.36422,4.62031c1.22773.91666,1.6362,1.07614,4.54413,1.23953,2.32273.1296,4.58259.13589,5.0162.13589.42811,0,2.68406-.00629,5.00675-.13589,2.90872-.16339,3.31718-.32287,4.54491-1.23953A24.78432,24.78432,0,0,0,33.922,31.95427c.13429-.542.34559-1.13507.58832-1.81844A15.69537,15.69537,0,0,0,35.50084,20.746Zm-2.46488.43756a1.62135,1.62135,0,0,1-1.82238.44692c-.86192-.20333-1.87675-.455-2.81322-.68773a1.083,1.083,0,0,1,.20308.989c-.01249.06181-.11243.52073-.236,1.09143l-.41816,1.93038c-.01841.08415-.03419.15385-.04077.21434.027.07166.06575.17029.10454.26759.03086.07948.05918.1518.08359.21443.94636-.01566,3.42549-.04808,3.9064-.05264a.665.665,0,0,1,.69361.36683c.07306.16417.15.34563.21993.542a1.0213,1.0213,0,0,1,.02593.55454A20.81684,20.81684,0,0,1,31.0227,31.611a9.64166,9.64166,0,0,1-3.03359,3.65648,2.51153,2.51153,0,0,1-1.32907.44931l-.22856.02827c-.27248.038-1.45855.10368-2.76431.15821l-.04155.06176a2.0675,2.0675,0,0,1-1.88435.88542c-.908.02958-1.38729.03353-1.73642.03353-.34978,0-.82843,0-1.74694-.03419a2.08513,2.08513,0,0,1-1.88106-.89068l-.03612-.06085c-1.28358-.05347-2.50441-.11634-2.76789-.1532l-.22938-.02827a2.51163,2.51163,0,0,1-1.32907-.44931A9.642,9.642,0,0,1,8.98079,31.611a20.83349,20.83349,0,0,1-1.919-4.55042,1.01687,1.01687,0,0,1,.02515-.55376c.0699-.19717.1469-.37863.21993-.5428a.68813.68813,0,0,1,.6936-.36683c.47906.00456,2.94114.03673,3.90686.05313a.73152.73152,0,0,1,.03214-.06961c.04536-.11835.10651-.28141.15516-.41225a1.95541,1.95541,0,0,0-.03945-.20973l-.41881-1.93564c-.12493-.5707-.22355-1.03028-.236-1.09143a1.08307,1.08307,0,0,1,.2032-.98927c-.936.233-1.95178.48527-2.81284.688a1.62087,1.62087,0,0,1-1.82313-.44692,1.69329,1.69329,0,0,1,.01882-1.78939A12.93435,12.93435,0,0,1,8.54878,17.4178c.11938-.13273.20424-.22465.22384-.25215a6.555,6.555,0,0,0,.30712-.65432,14.38868,14.38868,0,0,1,1.3566-2.556,5.87124,5.87124,0,0,1,3.61486-2.61807,30.3441,30.3441,0,0,1,5.95094-.49015,30.33623,30.33623,0,0,1,5.95016.49015,5.86514,5.86514,0,0,1,3.61489,2.61807,14.38674,14.38674,0,0,1,1.35656,2.556,6.9303,6.9303,0,0,0,.3024.648c.02437.03378.10919.12648.22938.25843a13.07211,13.07211,0,0,1,1.56235,1.97632A1.69654,1.69654,0,0,1,33.036,21.18351Z"/><path class="cls-1" d="M24.4889,30.29029a2.36914,2.36914,0,0,1-.835.20384c-.03879.0038-.30507.02342-.5753.02849l-.84355.02215c-.70417.019-1.58388.04368-2.23808.03672-.72849-.0057-1.78573-.02659-2.54184-.045l-.53716-.01392c-.26891-.00507-.5352-.02469-.574-.02849a2.31434,2.31434,0,0,1-.83369-.20384c-.048-.02026-.1841-.1442-.38331-.25181.02235.25511.05128.49377.07363.6343a9.584,9.584,0,0,0,.83961,2.76638c.13545.30006.44841.96159.56084,1.18125l.05325.10445c.40765.80333.66275,1.12144,1.62925,1.155.90536.03165,1.37546.03165,1.71933.03165.37148,0,.83566-.0038,1.71275-.03165,1.0099-.03165,1.24659-.39091,1.63516-1.15689l.05129-.10192c.11308-.22029.42605-.88182.56149-1.18188a9.59782,9.59782,0,0,0,.84092-2.76638c.0217-.13483.04866-.36969.0697-.6324C24.67826,30.14546,24.53755,30.26813,24.4889,30.29029Zm-1.61634,1.13165a10.44863,10.44863,0,0,1-.692,2.31653c-.32837.83193-.51686,1.06184-1.2207,1.09357-.42022.01967-.92845.01741-.95829.01816h-.07935c-.16651,0-.55142-.00225-.88288-.01816-.70383-.03173-.89233-.26164-1.2207-1.09357a10.44744,10.44744,0,0,1-.692-2.31653l-.02593-.21934h5.79778Z"/><path class="cls-1" d="M20.16221,23.57593a.97306.97306,0,0,1-.15961.53607.98014.98014,0,0,1-.00051-1.07142A.97325.97325,0,0,1,20.16221,23.57593Z"/><path class="cls-1" d="M21.88047,22.79016a.97959.97959,0,1,1-.00039,1.572,1.30972,1.30972,0,0,0,.00039-1.572Z"/><path class="cls-1" d="M21.803,23.57593a.97339.97339,0,0,1-.16025.53533.97684.97684,0,0,1,.00052-1.06984A.97384.97384,0,0,1,21.803,23.57593Z"/><path class="cls-1" d="M20.82273,22.59594h.00013a.97334.97334,0,0,1,.58317.19422,1.3115,1.3115,0,0,0-.00052,1.572.97419.97419,0,0,1-1.16556.00038,1.31071,1.31071,0,0,0-.00052-1.57285A.97206.97206,0,0,1,20.82273,22.59594Z"/><path class="cls-1" d="M18.12347,22.79016a.97959.97959,0,1,0,.00039,1.572,1.30972,1.30972,0,0,1-.00039-1.572Z"/><path class="cls-1" d="M18.201,23.57593a.9734.9734,0,0,0,.16026.53533.97684.97684,0,0,0-.00052-1.06984A.97385.97385,0,0,0,18.201,23.57593Z"/><path class="cls-1" d="M19.18121,22.59594h-.00013a.97334.97334,0,0,0-.58317.19422,1.31154,1.31154,0,0,1,.00052,1.572.97419.97419,0,0,0,1.16556.00038,1.31071,1.31071,0,0,1,.00052-1.57285A.97206.97206,0,0,0,19.18121,22.59594Z"/><path class="cls-1" d="M27.923,21.66674c.02465-.18673-.02827-.27155-.24557-.3945A17.08485,17.08485,0,0,0,25.077,20.07168l-.502-.16043c-.383-.06115-.71469-.08482-1.09866-.11177-.164-.01184-.33729-.02433-.52927-.04077-.01808-.00065-2.27326-.08876-2.94521-.08876-.67162,0-2.92712.08811-2.94981.08876-.18738.01644-.36063.02893-.52467.04077-.384.02695-.71534.05062-1.11312.11571l-.48786.15649a17.11722,17.11722,0,0,0-2.60035,1.20056c-.217.12295-.26957.20777-.24491.3945.003.02564.02564.13478.05884.29849.03485.17029.08087.39713.13051.65157.10093.51613.239,1.1151.34978,1.597.08811.38332.1578.68576.17818.81463a.79169.79169,0,0,1-.0263.39515c-.05917.15977-.10881.288-.17522.43262a.26784.26784,0,0,0,.00691.29193,28.03225,28.03225,0,0,0,1.55791,2.44058A.77417.77417,0,0,0,14.502,28.88c.31592.16108.71441.3356,1.00469.49931.15549.0881.30244.171.331.18344a2.19593,2.19593,0,0,0,.91884.15714c.22749.00986,2.00467.06575,3.24666.06575,1.24067,0,3.01917-.05589,3.247-.06575a2.20121,2.20121,0,0,0,.91917-.15714c.02794-.01249.17423-.09468.32907-.18212.29061-.16437.687-.33955,1.0036-.50063a.77525.77525,0,0,0,.33992-.29127,27.8348,27.8348,0,0,0,1.55824-2.44058.267.267,0,0,0,.00657-.29193c-.06476-.142-.11374-.26759-.17522-.43328a.78854.78854,0,0,1-.0263-.39449c.02038-.12887.09008-.43065.17785-.81265.11112-.48194.24919-1.08222.35011-1.599.05162-.26431.09961-.50034.13479-.672C27.899,21.79166,27.92,21.69106,27.923,21.66674Zm-5.45931,3.22882a1.30882,1.30882,0,0,1-.821-.2874,1.3144,1.3144,0,0,1-1.64.00049h-.00127a1.31435,1.31435,0,0,1-1.64-.00049,1.32006,1.32006,0,1,1-.00066-2.06389,1.31226,1.31226,0,0,1,.82038-.28785h.00017a1.30811,1.30811,0,0,1,.82074.28728,1.30816,1.30816,0,0,1,.82075-.28728h.00012a1.31233,1.31233,0,0,1,.82042.28785,1.319,1.319,0,1,1,.82038,2.35129Z"/></svg>