<svg id="Icon" xmlns="http://www.w3.org/2000/svg" viewBox="0 0 40 40"><defs><style>.cls-1{fill:#fff;}.cls-2{fill:none;stroke:#fff;stroke-miterlimit:10;stroke-width:1.2px;}</style></defs><polygon class="cls-1" points="29.112 12.522 29.112 11.802 31.893 11.802 31.691 13.002 29.314 13.002 29.112 12.522"/><rect class="cls-1" x="26.01755" y="14.98688" width="4.5" height="1.2"/><line class="cls-2" x1="10.45329" y1="12.56547" x2="28.98451" y2="12.57009"/><polygon class="cls-1" points="9.652 13.002 7.275 13.002 7.073 11.802 9.854 11.802 9.854 12.522 9.652 13.002"/><rect class="cls-1" x="8.44755" y="14.98688" width="4.5" height="1.2"/><path class="cls-1" d="M1.51039,16.31353A12.11906,12.11906,0,0,1,5.13173,7.88872L4.47865,6.796A16.71232,16.71232,0,0,0,1.47731,11.1176,12.48052,12.48052,0,0,0,2.79506,24.66668l.01117-.00886.8924-1.62835A11.65348,11.65348,0,0,1,1.51039,16.31353Z"/><path class="cls-1" d="M19.47889,2.26293a21.891,21.891,0,0,1,9.00623,1.89551l1.4508-.64039a23.233,23.233,0,0,0-10.436-2.42181A23.252,23.252,0,0,0,9.05952,3.51805l1.43262.63117A21.897,21.897,0,0,1,19.47889,2.26293Z"/><path class="cls-1" d="M25.57324,21.718A1.33732,1.33732,0,0,0,26.77246,23.179a.89747.89747,0,0,0,.2041.00293l1.55084-.00183.4339-1.197-2.0697.00153a.13535.13535,0,0,1-.09326-.04883c-.0166-.02051-.03516-.05469-.02783-.15918V19.96753H12.19482l.00293,1.8667c.00635.06445-.05908.14453-.20947.14843l-2.60156.00293a.32676.32676,0,0,1-.33887-.209V14.40552L10.57227,13.196V12.06616c.80712-1.30762,1.98193-2.71142,2.52246-2.80176A58.40523,58.40523,0,0,1,19.48291,9.071a58.38213,58.38213,0,0,1,6.38721.19336c.55664.09278,1.71826,1.499,2.52246,2.80225V13.196L29.918,14.40552l.00232,4.93219,1.19739-3.303V13.82544L29.59277,12.616v-.88379l-.08545-.14258c-.32714-.54492-2.0288-3.27344-3.43994-3.50879a57.28982,57.28982,0,0,0-6.58447-.21,57.31191,57.31191,0,0,0-6.58545.21c-1.41113.23535-3.11279,2.96387-3.43994,3.50879l-.08545.14258V12.616L7.84766,13.82544l.0039,8.01855a1.51241,1.51241,0,0,0,1.4585,1.34571,1.29935,1.29935,0,0,0,.13769-.00782l2.479-.00293a1.30758,1.30758,0,0,0,.2622.001,1.33539,1.33539,0,0,0,.9043-.48144,1.28859,1.28859,0,0,0,.30176-.92188v-.60889H25.57178Z"/><path class="cls-1" d="M35.9577,21.97638l.74433,2.0534a12.441,12.441,0,0,0,.86267-12.91217A16.71707,16.71707,0,0,0,34.56085,6.796l-.66833,1.11822a12.111,12.111,0,0,1,3.59692,8.39936A11.436,11.436,0,0,1,35.9577,21.97638Z"/><path class="cls-1" d="M26.3067,29.30591a22.27491,22.27491,0,0,1-6.82782,1.05816,21.909,21.909,0,0,1-8.94983-1.86877l-2.16327.99249.42609.21851a23.42,23.42,0,0,0,10.70575,2.50653h.00226a24.47917,24.47917,0,0,0,6.02575-.75238Z"/><path class="cls-1" d="M26,39l6.5-18L39,39l-6.5-5Z"/></svg>