<svg id="Icon" xmlns="http://www.w3.org/2000/svg" viewBox="0 0 40 40"><defs><style>.cls-1{fill:#fff;}</style></defs><polygon class="cls-1" points="25.769 10.975 26.657 9.791 28.276 10.75 27.096 12.522 25.769 10.975"/><path class="cls-1" d="M26.8142,10.58107l.61211.36274-.39112.58666-.49762-.58055.27663-.36885M26.5,9,25,11l2.155,2.5141,1.97175-2.95752L26.5,9Z"/><polygon class="cls-1" points="34.354 20.99 36.914 15.869 39.262 17.26 36.795 23.839 34.354 20.99"/><path class="cls-1" d="M37.16224,16.71324l1.3612.80664-1.934,5.15726-1.52159-1.7752,2.09436-4.1887m-.497-1.68938-3.027,6.05408L37,25l3-8-3.33472-1.97614Z"/><polygon class="cls-1" points="29.596 15.44 31.464 12.639 33.291 13.722 31.387 17.53 29.596 15.44"/><path class="cls-1" d="M31.64762,13.44531l.857.50783-1.25,2.49993-.90684-1.058,1.29987-1.94979m-.36723-1.61249-2.43536,3.653,2.67462,3.12036,2.55792-5.11579-2.79718-1.65759Z"/><polygon class="cls-1" points="11.723 10.75 13.343 9.791 14.231 10.975 12.905 12.522 11.723 10.75"/><path class="cls-1" d="M13.1858,10.58107l.27663.36885-.49762.58055-.39112-.58666.61211-.36274M13.5,9l-2.6267,1.55658L12.845,13.5141,15,11,13.5,9Z"/><polygon class="cls-1" points="6.709 13.722 8.536 12.639 10.403 15.44 8.613 17.53 6.709 13.722"/><path class="cls-1" d="M8.35238,13.44531,9.65225,15.3951l-.90684,1.058-1.25-2.49993.857-.50783m.36723-1.61249L5.92243,13.49041,8.48035,18.6062,11.155,15.48584l-2.43536-3.653Z"/><polygon class="cls-1" points="0.738 17.26 3.086 15.869 5.647 20.99 3.205 23.839 0.738 17.26"/><path class="cls-1" d="M2.83776,16.71324l2.09436,4.1887-1.52159,1.7752-1.934-5.15726,1.3612-.80664m.497-1.68938L0,17l3,8,3.36176-3.92206-3.027-6.05408Z"/><polygon class="cls-1" points="26.002 26.2 29.585 26.2 31.635 29.8 28.015 29.8 28.686 31 34 31 30.25 25 25.331 25 26.002 26.2"/><polygon class="cls-1" points="12.018 29.8 8.365 29.8 10.415 26.2 14.061 26.2 14.742 25 9.75 25 6 31 11.337 31 12.018 29.8"/><polygon class="cls-1" points="16.383 15.161 17.336 13.6 22.664 13.6 23.617 15.161 16.383 15.161"/><path class="cls-1" d="M22.327,14.19994l.22049.3608h-5.095l.22049-.3608h4.654m.673-1.2H17l-1.68719,2.7608h9.37438L23,12.99994Z"/><polygon class="cls-1" points="12.229 21.958 14.122 18.861 25.878 18.861 27.771 21.958 12.229 21.958"/><path class="cls-1" d="M25.542,19.46074l1.1593,1.89706H13.29873l1.1593-1.89706H25.542m.673-1.2H13.785l-2.626,4.29706H28.84094l-2.626-4.29706Z"/></svg>