<svg id="Icon" xmlns="http://www.w3.org/2000/svg" viewBox="0 0 40 40"><defs><style>.cls-1{fill:#fff;}.cls-2{fill:none;stroke:#fff;stroke-miterlimit:10;stroke-width:1.2px;}</style></defs><path class="cls-1" d="M14.4873,5.89945c.979,2.50586-.89306,3.99219-3.06884,5.4165l-.38575.25391C8.36157,13.34446,2.50635,17.0246.46039,25h1.8482a21.12122,21.12122,0,0,1,9.44287-12.46725l.32422-.21289c1.84912-1.21045,4.94385-3.23633,3.52979-6.85694C14.98163,3.86606,11.97876,1.65405,9.43976,0H8.10223C11.0141,1.99042,13.991,4.62876,14.4873,5.89945Z"/><path class="cls-1" d="M24.60107,4.61673c-.672-.58941-3.83819-2.7532-6.57464-4.61673H16.44818a63.69972,63.69972,0,0,1,7.3609,5.51908c2.15277,2.0462,2.3999,3.85156.54346,6.13574A15.73574,15.73574,0,0,0,20.41132,20h1.726a13.14052,13.14052,0,0,1,3.14593-7.58835C27.54883,9.625,27.31885,7.00248,24.60107,4.61673Z"/><path class="cls-1" d="M15.4295,1.15268C14.91669.772,14.37274.37894,13.80023-.01986l-.385.3c.58429.40711,1.13086.83661,1.64136,1.26538Z"/><path class="cls-1" d="M20.50079,5.89505l-.88726.465a3.58522,3.58522,0,0,1,.27563,1.57068,2.99283,2.99283,0,0,1-.15478.9458l1.13964.375a4.21443,4.21443,0,0,0,.21534-1.3208A4.9772,4.9772,0,0,0,20.50079,5.89505Z"/><path class="cls-1" d="M17.36279,11.91751a26.14372,26.14372,0,0,0-2.69824,2.78809l.93164.75586a25.25271,25.25271,0,0,1,2.58252-2.66406l.14746-.13672-.8164-.87988Z"/><path class="cls-1" d="M16.37555,2.72281c.7196.68036,1.31457,1.29859,1.74164,1.73688l.694-.59943c-.49616-.43811-1.16864-.999-1.96875-1.62823Z"/><g id="E469_car_inclination_right" data-name="E469 car inclination right"><polygon class="cls-1" points="15.808 27.414 15.808 26.747 12.415 26.747 12.638 27.86 15.586 27.859 15.808 27.414"/><polygon class="cls-1" points="36.112 27.416 36.112 26.749 39.504 26.749 39.281 27.862 36.335 27.862 36.112 27.416"/><line class="cls-2" x1="16" y1="27.75" x2="36.37619" y2="27.75"/><rect class="cls-1" x="13.27653" y="30.53047" width="5.41822" height="1.33552"/><rect class="cls-1" x="33.17837" y="30.53266" width="5.41822" height="1.33552"/><path class="cls-2" d="M36.2172,27.86167l.00013-1.11293s-2.00291-3.639-3.33841-3.86176-5.56462-.22322-6.90016-.22334-5.56466-.00061-6.9002.22182c-1.33556.445-3.33919,3.861-3.33919,3.861l-.00012,1.11293-2.226,1.33528L13.5123,37.653a.81535.81535,0,0,0,.89025.89045l3.5614.00035a.95748.95748,0,0,0,.89045-.89025l.00011-1.11294,14.24554.00157-.00012,1.11293a.81534.81534,0,0,0,.89025.89045l3.56021.00039a.81535.81535,0,0,0,.89045-.89025l.00092-8.45824L36.216,27.86169"/></g><path class="cls-1" d="M12.06488,25a21.35644,21.35644,0,0,1,1.08991-5.40133l-1.11036-.45411A23.70529,23.70529,0,0,0,10.26068,25Z"/></svg>