<svg id="Icon" xmlns="http://www.w3.org/2000/svg" viewBox="0 0 40 40"><defs><style>.cls-1,.cls-3{fill:none;}.cls-1,.cls-2,.cls-3{stroke:#fff;}.cls-1{stroke-width:1.2px;}.cls-2{fill:#fff;stroke-width:0.1px;}.cls-2,.cls-3{stroke-miterlimit:10;}.cls-3{stroke-width:1.35px;}</style></defs><path class="cls-1" d="M40,32.5H.43973l39.4014-12.09284"/><polygon class="cls-2" points="8.938 15.195 8.742 14.557 5.498 15.549 6.037 16.548 8.855 15.686 8.938 15.195"/><polygon class="cls-2" points="28.355 9.261 28.16 8.623 31.404 7.631 31.516 8.76 28.698 9.622 28.355 9.261"/><line class="cls-3" x1="9.13778" y1="15.4826" x2="28.70681" y2="9.50744"/><rect class="cls-2" x="7.5049" y="18.09432" width="5.41822" height="1.33552" transform="translate(-5.03755 3.80442) rotate(-16.9937)"/><rect class="cls-2" x="26.53776" y="12.27768" width="5.41822" height="1.33552" transform="translate(-2.50651 9.11312) rotate(-16.9937)"/><path class="cls-3" d="M28.586,9.65617l-.32527-1.06433s-2.97934-2.89442-4.3216-2.717-5.38674,1.41348-6.664,1.80383-5.32168,1.62637-6.53384,2.22956c-1.14709.81606-2.06443,4.66858-2.06443,4.66858l.32527,1.06434L7.26386,17.56894l2.47207,8.089a.81537.81537,0,0,0,1.11169.59126l3.40588-1.04092a.95748.95748,0,0,0,.59126-1.11169l-.32528-1.06434L28.143,18.86872l.32527,1.06434a.81536.81536,0,0,0,1.1117.59126l3.40476-1.04053a.81539.81539,0,0,0,.59126-1.1117l-2.47207-8.08892-2.519-.62663"/></svg>