<?xml version="1.0" encoding="UTF-8"?>
<svg id="Icon" xmlns="http://www.w3.org/2000/svg" viewBox="0 0 40 40">
  <defs>
    <style>
      .cls-1 {
        fill: #fff;
      }

      .cls-2 {
        stroke-width: 1.35px;
      }

      .cls-2, .cls-3, .cls-4 {
        fill: none;
        stroke: #fff;
        stroke-miterlimit: 10;
      }

      .cls-3 {
        stroke-width: 1.25px;
      }

      .cls-4 {
        stroke-width: 1.2px;
      }
    </style>
  </defs>
  <g id="E31B_Launch_control" data-name="E31B Launch control">
    <g id="Version_2" data-name="Version 2">
      <path class="cls-1" d="M21.61977,8.12782c-.84507-.39979-1.71793-.73797-2.61177-1.01189l.68463-2.27734c.9669,.33455,1.90767,.74031,2.81458,1.21395l-.88744,2.07528Zm-5.95325,.36054l.54675-1.9374c.95297,.06023,1.89324,.25032,2.79477,.565l-.57844,2.0523c-.8935-.32665-1.82003-.55464-2.76308-.6799Zm-2.61252-1.9065l.72583-2.25436c.10935-.00317,.21395-.00475,.32726-.00792,.93759-.04588,1.87715-.03212,2.813,.0412l-.70682,2.19022c-.70919-.03487-1.359,.03011-2.01347,.04912-.416,.01106-.72266-.0143-1.1458-.01826Zm-3.43978,1.65214l.58637-2.13233c.91489,.32896,1.88125,.49159,2.85341,.48019l-.51664,1.87876c-.98011,.09795-1.96983,.02122-2.92314-.22662Zm-3.75277,2.82884c.75136,.63948,1.63157,1.10972,2.58082,1.37877l-.79873,2.07765c-.89763-.24013-1.75327-.61611-2.53724-1.1149l.75515-2.34152Zm1.25755-4.15135c.71491,.63273,1.57026,1.08608,2.49522,1.32251l-.6038,2.08c-.92113-.22298-1.80179-.58845-2.61014-1.0832l.71872-2.31931Zm1.44927-4.67511c.67158,.67235,1.47465,1.19891,2.359,1.54675l-.72663,2.31854c-.88167-.22671-1.7255-.58095-2.5048-1.05151l.87243-2.81378Zm3.40173,8.35023l-.58479,2.12916c-.98944,.10751-1.9904,.01426-2.94295-.27416l.56816-2.12761c.96411,.25705,1.96474,.34922,2.95958,.27261Zm3.69651-2.09825l-.60935,2.00237c-.80666-.05071-1.59667,.04834-2.33043,.06815-.33122,.00872-.42076,.02615-.75673,.02773l.56735-2.126c1.04276-.04922,2.08745-.03995,3.12916,.02775Zm5.25832,1.58082l-.69968,1.82092c-.7496-.30127-1.51864-.55171-2.3019-.7496l.50634-1.97227c.85246,.23952,1.68641,.54063,2.49524,.90095Zm-3.62043,3.26387c-.92664-.32575-1.88612-.54921-2.86133-.6664l.6141-2.17592c.98037,.0859,1.94453,.30448,2.86609,.64977l-.61886,2.19255Zm1.49445,2.6973c-.67228-.28472-1.36866-.5088-2.08082-.66957l.58637-2.02773c.76325,.19046,1.50648,.45366,2.21949,.786l-.72504,1.9113Zm-4.35578-3.33359l-.69335,2.12916c-.73375-.038-1.5412-.03645-2.21711-.01664-.393,.0103-.32964,.01743-.72979,.01584l.5824-2.10935c1.01813-.06326,2.03901-.06961,3.05785-.01901Z"/>
    </g>
  </g>
  <line class="cls-4" x1="8.02101" y1="2.05682" x2="1.6356" y2="22.98391"/>
  <g id="E11A_GRA" data-name="E11A GRA">
    <line class="cls-4" x1="14.22621" y1="29.476" x2="16.99059" y2="29.476"/>
    <line class="cls-4" x1="17.51544" y1="21.49856" x2="19.47015" y2="23.45327"/>
    <line class="cls-4" x1="25.51921" y1="18.18349" x2="25.51921" y2="20.94738"/>
    <line class="cls-4" x1="33.45963" y1="21.47272" x2="31.50492" y2="23.42743"/>
    <line class="cls-4" x1="36.7747" y1="29.476" x2="34.06405" y2="29.476"/>
    <line class="cls-4" x1="33.48547" y1="37.41691" x2="31.53076" y2="35.4622"/>
    <line class="cls-4" x1="17.54128" y1="37.44275" x2="19.49599" y2="35.48804"/>
    <circle class="cls-1" cx="25.51279" cy="29.46658" r="1.57938"/>
    <line class="cls-2" x1="25.50085" y1="29.45843" x2="20.9291" y2="24.87645"/>
    <path class="cls-3" d="M17.91846,37.9146l-.15565-.15656c-4.53487-4.2787-4.74254-11.42352-.46384-15.9584,4.2787-4.53488,11.42352-4.74254,15.9584-.46384,4.53487,4.2787,4.74254,11.42352,.46384,15.9584-.15015,.15915-.42435,.4778-.5835,.62795"/>
  </g>
</svg>