<svg id="Ebene_1" data-name="Ebene 1" xmlns="http://www.w3.org/2000/svg" viewBox="0 0 40 40"><defs><style>.cls-1{fill:#fff;}</style></defs><path class="cls-1" d="M33.0202,37.13408a4.50464,4.50464,0,0,1-1.75391-.31787,3.461,3.461,0,0,1-1.25879-.88379,3.773,3.773,0,0,1-.76074-1.33545,5.25993,5.25993,0,0,1-.25391-1.65771,5.02,5.02,0,0,1,.27149-1.67237,3.86663,3.86663,0,0,1,.78613-1.3374,3.63246,3.63246,0,0,1,1.26465-.88623A4.30565,4.30565,0,0,1,33.0202,28.723a4.51209,4.51209,0,0,1,1.75976.32031,3.469,3.469,0,0,1,1.26172.88672,3.75914,3.75914,0,0,1,.75488,1.33789,5.3816,5.3816,0,0,1,.251,1.67139A5.01114,5.01114,0,0,1,36.779,34.598a3.86131,3.86131,0,0,1-.78028,1.335,3.56639,3.56639,0,0,1-1.26465.8833A4.38511,4.38511,0,0,1,33.0202,37.13408Zm-10.335-.09482H20.568l.05078-.07715L31.2184,20.88984h2.10547l-.05078.07715Zm10.335-6.81a2.10345,2.10345,0,0,0-.92481.18995,1.75181,1.75181,0,0,0-.64746.53955,2.45109,2.45109,0,0,0-.38672.85107,4.58159,4.58159,0,0,0-.1289,1.1294,4.506,4.506,0,0,0,.1289,1.11621,2.42475,2.42475,0,0,0,.38672.84521,1.75955,1.75955,0,0,0,.64746.53711,2.3559,2.3559,0,0,0,1.85352,0,1.7137,1.7137,0,0,0,.63867-.53662,2.41186,2.41186,0,0,0,.375-.84522,4.69813,4.69813,0,0,0,.124-1.11669,4.77722,4.77722,0,0,0-.124-1.12989,2.42162,2.42162,0,0,0-.376-.85107,1.70187,1.70187,0,0,0-.63867-.53906A2.09885,2.09885,0,0,0,33.0202,30.22929ZM20.9625,29.16521a4.24489,4.24489,0,0,1-1.708-.35031,3.5082,3.5082,0,0,1-1.25976-.88672,3.77267,3.77267,0,0,1-.75977-1.33252,5.23386,5.23386,0,0,1-.2539-1.65527,5.09309,5.09309,0,0,1,.26855-1.67481,3.826,3.826,0,0,1,.7832-1.34033,3.58793,3.58793,0,0,1,1.26758-.8833,4.34625,4.34625,0,0,1,1.70215-.31787,4.5433,4.5433,0,0,1,1.7627.31787,3.44456,3.44456,0,0,1,1.25879.88379,3.75756,3.75756,0,0,1,.75488,1.34033,5.842,5.842,0,0,1,.14379,2.80811,4.22349,4.22349,0,0,1-.36254,1.00976,3.92836,3.92836,0,0,1-.5791.84717,3.39058,3.39058,0,0,1-.791.64795,3.86023,3.86023,0,0,1-.99512.41162A4.96723,4.96723,0,0,1,20.9625,29.16521Zm.04-6.93478a2.10344,2.10344,0,0,0-.9248.18994,1.75184,1.75184,0,0,0-.64746.53955,2.40723,2.40723,0,0,0-.38379.85107,4.683,4.683,0,0,0-.126,1.1294,4.60555,4.60555,0,0,0,.126,1.11621,2.38243,2.38243,0,0,0,.38379.84521,1.75148,1.75148,0,0,0,.64746.53711,2.10344,2.10344,0,0,0,.9248.18994,2.12547,2.12547,0,0,0,.93164-.18994,1.72879,1.72879,0,0,0,.6416-.53662,2.41163,2.41163,0,0,0,.375-.84521,4.69826,4.69826,0,0,0,.124-1.1167,4.77711,4.77711,0,0,0-.124-1.12988,2.43362,2.43362,0,0,0-.376-.85108,1.70666,1.70666,0,0,0-.64063-.53906A2.12547,2.12547,0,0,0,21.0025,22.23043Z"/><path class="cls-1" d="M14.981,24.94037a7.07955,7.07955,0,0,1,.37811-2.32764,5.81589,5.81589,0,0,1,1.19653-2.03589,5.57361,5.57361,0,0,1,1.96473-1.37652,6.24093,6.24093,0,0,1,2.218-.4643l2.531-3.20764a.30472.30472,0,0,0,.046-.29407.24733.24733,0,0,0-.236-.1502H15.21844l1.2851-12.06458a.24878.24878,0,0,0-.16858-.27289.311.311,0,0,0-.334.11353L3.14844,19.32483a.29643.29643,0,0,0-.04291.29425.24764.24764,0,0,0,.236.15021h7.85175l-1.41669,12.052a.26115.26115,0,0,0,.17773.27588.33481.33481,0,0,0,.08277.01214.32941.32941,0,0,0,.24823-.12548l4.7713-6.04694A7.66048,7.66048,0,0,1,14.981,24.94037Z"/></svg>