<?xml version="1.0" encoding="UTF-8"?>
<svg id="Ebene_1" data-name="Ebene 1" xmlns="http://www.w3.org/2000/svg" viewBox="0 0 44 44">
  <defs>
    <style>
      .cls-1 {
        fill: #ffb723;
      }

      .cls-2 {
        fill: #c50000;
      }

      .cls-3 {
        fill: #010101;
      }
    </style>
  </defs>
  <path class="cls-2" d="M41.671,37.73481L23.16363,5.90213c-.24085-.69541-.99983-1.06391-1.69524-.82306-.37443,.12968-.67172,.41927-.81118,.79017L2.25559,37.70191v-.00006c-.65886,1.12102-.03204,2.07282,1.44886,2.07282H40.40193c1.32196-.00004,2.00937-.88941,1.32196-2.00937l-.05288-.0305Zm-34.47659-1.57577L22.00031,10.98901l14.48863,25.17002H7.19442Z"/>
  <path class="cls-1" d="M22.00031,10.98901l14.48863,25.17002H7.19442L22.00031,10.98901"/>
  <path class="cls-3" d="M27.28813,34.66787h-3.32075v-6.74726c0-2.17858-.92431-2.17858-1.97765-2.17858v.75722c-.16498,.69165-.75933,.75722-1.35368,.49388l-4.5158-2.83427c-.52561-.59224-.3289-.59224,0-1.02055l4.41004-2.27376c.43043-.36274,1.18447-.49388,1.44886,.26333v1.05333c2.33722,0,5.2984,.39553,5.2984,4.54752v7.93173"/>
</svg>