<svg id="E012_mic_on" xmlns="http://www.w3.org/2000/svg" viewBox="0 0 60 60"><defs><style>.cls-1{fill:none;stroke:#fff;stroke-width:2px;}</style></defs><path id="Micro" class="cls-1" d="M29.20189,1.00392h1.7627C36.84355,1.00392,40,5.39241,40,10.19843V32.226C40,37.76194,35.49079,41,30.82061,41H29.34687c-4.66918,0-9.34336-2.379-9.34336-8.774V10.19843a8.94468,8.94468,0,0,1,8.68612-9.195Q28.94573.99633,29.20189,1.00392Z"/><path class="cls-1" d="M20,28h6m8,0h6M20,20h6m8,0h6M20,13h6m8,0h6"/><path id="Line" class="cls-1" d="M30,46V59"/><path id="Line-2" class="cls-1" d="M38,59H22"/><path id="Micro-2" data-name="Micro" class="cls-1" d="M45,29.5974v3.04191c0,8.30535-6.765,13.16329-13.7715,13.16329h-2.211C22.0125,45.8026,15,42.2335,15,32.63931V29.5974"/></svg>