<svg xmlns="http://www.w3.org/2000/svg" viewBox="0 0 60 60"><defs><style>.cls-1{fill:#fff;}</style></defs><g id="Fertig"><g id="E13D_RDK_Sommerreifen"><g id="Reifen"><path class="cls-1" d="M17.16968,44.4502c-.23-1.04548-.42249-2.14765-.58014-3.29981H11.57941c.173,1.1189.38739,2.222.6394,3.29981Z"/><path class="cls-1" d="M9.5614,16.5498q.458-1.05249.975-1.99987l-3.0307.00024A20.25078,20.25078,0,0,0,6.30011,16.5498Z"/><path class="cls-1" d="M11.043,32.75h5.0896c.02154-1.24542.06921-2.45526.16284-3.6001H11.23059Q11.077,30.87577,11.043,32.75Z"/><path class="cls-1" d="M18.719,49.5498a30.133,30.133,0,0,1-1.02667-3h-4.9212c.3042,1.0387.64783,2.04194,1.02991,3Z"/><path class="cls-1" d="M18.25525,11.4502A14.93992,14.93992,0,0,0,16.94464,12.85l4.92236-.00031a16.59738,16.59738,0,0,1,1.29535-1.39978Z"/><path class="cls-1" d="M20.707,53.4502a21.92647,21.92647,0,0,1-1.13782-2H14.63983a22.39312,22.39312,0,0,0,1.105,2Z"/><path class="cls-1" d="M11.28308,38.84961h5.04706c-.10132-1.14966-.16187-2.354-.19067-3.59961H11.041C11.07709,36.44812,11.15741,37.65222,11.28308,38.84961Z"/><path class="cls-1" d="M11.57178,12.84967a16.92517,16.92517,0,0,1,1.06146-1.39984L10.33105,11.45a12.59869,12.59869,0,0,0-1.48962,1.39984Z"/><path class="cls-1" d="M9.50879,33.81445c-.00025-7.21533,1.29071-12.93463,3.27978-17.1972V16.5498h.03351A18.72519,18.72519,0,0,1,18.207,9.5H17.6676a11.62441,11.62441,0,0,0-5.28381,4.92145v.12835h-.07892C9.60614,19.022,7.97772,25.82391,7.978,33.81543,7.97852,46.24249,11.99432,56.12659,17.72888,58.5h.53351C12.96405,54.42725,9.50922,45.11438,9.50879,33.81445Z"/><path class="cls-1" d="M11.49408,26.8501h5.04681c.15155-1.15924.34681-2.25336.57221-3.3003H12.08136C11.84619,24.591,11.6554,25.69946,11.49408,26.8501Z"/><path class="cls-1" d="M12.62207,21.4502h5.00507a29.25651,29.25651,0,0,1,1.02026-3H13.676A30.004,30.004,0,0,0,12.62207,21.4502Z"/><path class="cls-1" d="M15.68524,14.55029a21.85661,21.85661,0,0,0-1.14508,1.99951h4.95136a21.29457,21.29457,0,0,1,1.15466-1.99987Z"/><path class="cls-1" d="M9.67389,51.4502H6.39447a20.58943,20.58943,0,0,0,1.20825,2h3.0542Q10.13746,52.50226,9.67389,51.4502Z"/><path class="cls-1" d="M21.91388,55.14941H16.94073A13.94635,13.94635,0,0,0,18.2204,56.5498h4.96692A16.524,16.524,0,0,1,21.91388,55.14941Z"/><path class="cls-1" d="M7.89258,21.4502c.26861-1.05475.584-2.04474.92206-3H5.39911a29.46383,29.46383,0,0,0-1.0788,3Z"/><path class="cls-1" d="M20.25568,9.95007l4.70044-.0003c.21582-.1532.43011-.31079.65063-.44977H21.15063A9.83634,9.83634,0,0,0,20.25568,9.95007Z"/><path class="cls-1" d="M20.20294,58.0498a9.386,9.386,0,0,0,.90821.4502H25.6076c-.21948-.13831-.4328-.29669-.64764-.4502Z"/><path class="cls-1" d="M12.95123,9.94983l1.14637-.00006c.16455-.14331.33941-.25885.50823-.39093A7.52094,7.52094,0,0,0,12.95123,9.94983Z"/><path class="cls-1" d="M8.91852,49.5498q-.51279-1.42666-.92529-3H4.40167a30.11388,30.11388,0,0,0,1.09,3Z"/><path class="cls-1" d="M6.49359,32.75c.02142-1.23083.07581-2.43341.16931-3.6001H2.8725q-.15785,1.74463-.18756,3.6001Z"/><path class="cls-1" d="M6.9,26.8501c.142-1.13568.31086-2.24225.52137-3.3003H3.76068q-.36931,1.58038-.619,3.3003Z"/><path class="cls-1" d="M6.689,38.84961q-.15435-1.75443-.2008-3.59961H2.68964q.03992,1.85175.21289,3.59961Z"/><path class="cls-1" d="M7.50214,44.4502q-.33015-1.59312-.55841-3.29981H3.189q.25973,1.71606.64129,3.29981Z"/><path class="cls-1" d="M10.40985,56.5498H12.7644a16.54711,16.54711,0,0,1-1.07257-1.40039H8.9292A12.60732,12.60732,0,0,0,10.40985,56.5498Z"/><path class="cls-1" d="M13.02014,58.0498a7.329,7.329,0,0,0,1.67145.40119c-.157-.12531-.30866-.26611-.46228-.40119Z"/><path class="cls-1" d="M40.7887,39h-3.713c-1.05328,9.04266-4.973,15.39423-9.94732,15.39447a5.75363,5.75363,0,0,1-1.64874-.24866A12.28141,12.28141,0,0,0,29.49329,58.5S39.15625,55.71875,40.7887,39Z"/></g><g id="Sonne"><rect class="cls-1" x="29.39342" y="5.39329" width="1.99979" height="6.00005" transform="translate(2.96703 23.94966) rotate(-45)"/><rect class="cls-1" x="50.60655" y="26.60677" width="1.99979" height="5.99936" transform="translate(-5.81974 45.16279) rotate(-45)"/><rect class="cls-1" x="27.39346" y="28.60655" width="5.9997" height="1.99979" transform="translate(-12.03292 30.16284) rotate(-45)"/><rect class="cls-1" x="48.60659" y="7.39342" width="5.9997" height="1.99979" transform="translate(9.18021 38.94961) rotate(-45)"/><rect class="cls-1" x="40" y="1" width="2" height="6"/><rect class="cls-1" x="40" y="31" width="2" height="6"/><rect class="cls-1" x="23" y="18" width="6" height="2"/><rect class="cls-1" x="53" y="18" width="6" height="2"/><path id="Sonne-2" data-name="Sonne" class="cls-1" d="M41,10.5498A8.4502,8.4502,0,1,0,49.4502,19,8.46013,8.46013,0,0,0,41,10.5498Zm0,15A6.5498,6.5498,0,1,1,47.5498,19,6.55721,6.55721,0,0,1,41,25.5498Z"/></g></g></g></svg>