<svg xmlns="http://www.w3.org/2000/svg" viewBox="0 0 60 60"><defs><style>.cls-1{fill:#fff;}</style></defs><g id="Fertig"><g id="E181_RDK_AllSeasons"><g id="Reifen"><path class="cls-1" d="M40.7887,39h-3.713c-1.05328,9.04266-4.973,15.39423-9.94732,15.39447a5.75363,5.75363,0,0,1-1.64874-.24866A12.28141,12.28141,0,0,0,29.49329,58.5S39.15625,55.71875,40.7887,39Z"/><path class="cls-1" d="M20.90967,53.77448a21.65339,21.65339,0,0,1-1.20661-2.0727A14.82456,14.82456,0,0,0,14.9245,54.6875a17.65213,17.65213,0,0,0,1.26056,1.69318A20.70687,20.70687,0,0,1,20.90967,53.77448Z"/><path class="cls-1" d="M18.97357,50.15735q-.49923-1.15907-.9201-2.45538a13.3488,13.3488,0,0,0-5.03479,3.42846c.31341.72162.64434,1.41522,1.00091,2.06568A16.56538,16.56538,0,0,1,18.97357,50.15735Z"/><path class="cls-1" d="M14.292,14.30823a34.87439,34.87439,0,0,1,7.58478-1.46967c.31677-.38714.6449-.74823.98022-1.09216a39.17008,39.17008,0,0,0-7.39392.77557A19.54848,19.54848,0,0,0,14.292,14.30823Z"/><path class="cls-1" d="M12.29462,18.61267a26.80644,26.80644,0,0,1,7.1585-2.06189l.00873.06165a21.46727,21.46727,0,0,1,1.09375-1.92108c-3.07007.38208-6.14093,1.1184-7.51019,2.05255Q12.64634,17.64331,12.29462,18.61267Z"/><path class="cls-1" d="M17.517,45.86786c-.24451-.93109-.46491-1.90027-.64881-2.92413a11.56019,11.56019,0,0,0-5.23938,4.29571c.191.66687.40107,1.30823.62183,1.93475A16.05766,16.05766,0,0,1,17.517,45.86786Z"/><path class="cls-1" d="M16.5368,40.79913c-.12725-.98779-.21881-2.02527-.28949-3.09082-2.2539.98853-4.65576,2.79456-5.64886,4.85657q.16919,1.03107.37891,2.018A15.65912,15.65912,0,0,1,16.5368,40.79913Z"/><path class="cls-1" d="M9.77979,18.78162a27.33878,27.33878,0,0,1,1.10034-2.77814A18.1721,18.1721,0,0,0,7.54944,14.488a20.02264,20.02264,0,0,0-1.19531,1.95819A15.03792,15.03792,0,0,1,9.77979,18.78162Z"/><path class="cls-1" d="M13.222,12.1684a18.33716,18.33716,0,0,0-2.96673-.65711,12.93115,12.93115,0,0,0-1.6117,1.56683A19.434,19.434,0,0,1,11.65247,14.486,16.22731,16.22731,0,0,1,13.222,12.1684Z"/><path class="cls-1" d="M10.39642,26.57037c-.07293.533-.14,1.07135-.19653,1.61957a18.19655,18.19655,0,0,1,6.67493-3.46612q.18659-1.02036.4162-1.9737C14.76764,23.394,11.47406,24.75476,10.39642,26.57037Z"/><path class="cls-1" d="M11.00623,23.12048a21.55415,21.55415,0,0,1,6.85168-2.65271l.02679.13587q.32264-1.03464.69642-1.982c-2.8783.54212-5.92579,1.60462-7.17695,2.85224Q11.1904,22.28,11.00623,23.12048Z"/><path class="cls-1" d="M16.13977,35.26672c-.01123-.47931-.028-.95147-.02795-1.44506-.00006-.52973.01709-1.036.03-1.54816-2.32543,1.01587-5.23242,3.12311-6.08673,5.67431.02936.415.071.81922.10932,1.22663A15.85276,15.85276,0,0,1,16.13977,35.26672Z"/><path class="cls-1" d="M9.917,33.58929a16.4504,16.4504,0,0,1,6.35425-4.04c.05841-.78736.13129-1.55408.2215-2.29554-2.491.89283-5.67768,2.75721-6.55121,4.92951C9.92834,32.64838,9.919,33.11627,9.917,33.58929Z"/><path class="cls-1" d="M2.71631,36.05664a16.1198,16.1198,0,0,1,5.055,2.72778c-.02276-.28485-.04016-.57507-.0589-.86419-.73456-2.14923-2.9472-3.9856-5.02783-5.11389-.00452.33789-.00885.6759-.00653,1.01892C2.673,34.5816,2.68848,35.32385,2.71631,36.05664Z"/><path class="cls-1" d="M21.809,55.02289a19.39344,19.39344,0,0,0-4.592,2.46338c.22577.21643.45972.41375.69446.60913a33.0203,33.0203,0,0,1,5.09045-1.72913A16.72514,16.72514,0,0,1,21.809,55.02289Z"/><path class="cls-1" d="M10.34937,56.50421a8.18606,8.18606,0,0,0,4.84716,1.983A19.83145,19.83145,0,0,0,10.34937,56.50421Z"/><path class="cls-1" d="M18.16992,9.71582a13.20264,13.20264,0,0,0-1.11358.98663,62.17105,62.17105,0,0,1,7.49786-.46832c.34473-.26263.69519-.50891,1.05255-.73413H18.44727Z"/><path class="cls-1" d="M13.36932,55.93384c-.24359-.2923-.4776-.6059-.70758-.92932a32.09987,32.09987,0,0,0-5.43737-2.12683,17.89681,17.89681,0,0,0,1.13238,1.59912A33.91716,33.91716,0,0,1,13.36932,55.93384Z"/><path class="cls-1" d="M14.26013,11.04224A10.27166,10.27166,0,0,1,16.31262,9.5h-.84045a7.59427,7.59427,0,0,0-3.39417.82965A8.64266,8.64266,0,0,1,14.26013,11.04224Z"/><path class="cls-1" d="M20.42773,58.5H25.6076a13.956,13.956,0,0,1-1.45532-1.07477A35.56809,35.56809,0,0,0,20.42773,58.5Z"/><path class="cls-1" d="M7.846,28.33533c.08978-.91541.20959-1.83173.34784-2.74524a14.54437,14.54437,0,0,0-4.19239-3.012q-.369,1.3992-.64141,2.91816A16.6498,16.6498,0,0,1,7.846,28.33533Z"/><path class="cls-1" d="M7.58344,33.31171c.00506-.53925.01635-1.083.03759-1.635A10.54959,10.54959,0,0,0,3.0058,27.87836c-.0857.71588-.15692,1.44574-.20935,2.19256A16.8062,16.8062,0,0,1,7.58344,33.31171Z"/><path class="cls-1" d="M8.63477,23.11542c.15637-.75818.32721-1.50812.52215-2.24225A12.06874,12.06874,0,0,0,5.52618,18.152q-.49667,1.132-.91778,2.3894A17.56856,17.56856,0,0,1,8.63477,23.11542Z"/><path class="cls-1" d="M3.25977,41.52637a28.45823,28.45823,0,0,1,5.20605,2.512c-.069-.36829-.14172-.73187-.20288-1.11035a9.98089,9.98089,0,0,0-5.38538-4.36432c.09351,1.02435.21674,2.02246.37238,2.98773Z"/><path class="cls-1" d="M11.1402,52.44153c-.16358-.32831-.32373-.66205-.47687-1.00971a25.64107,25.64107,0,0,0-5.40948-2.44976q.36813.91818.77917,1.76129C7.77948,51.2569,9.53741,51.80536,11.1402,52.44153Z"/><path class="cls-1" d="M9.62067,48.68964c-.13086-.40607-.24976-.83051-.36872-1.25513a14.99161,14.99161,0,0,0-5.53289-3.45728q.32739,1.44938.74615,2.78254A29.74006,29.74006,0,0,1,9.62067,48.68964Z"/></g><g id="Sonne"><rect class="cls-1" x="40" y="1" width="2" height="6"/><rect class="cls-1" x="23" y="18" width="6" height="2"/><rect class="cls-1" x="29.39342" y="5.39329" width="1.99979" height="6.00005" transform="translate(2.96703 23.94966) rotate(-45)"/><rect class="cls-1" x="27.39346" y="28.60655" width="5.9997" height="1.99979" transform="translate(-12.03292 30.16284) rotate(-45)"/><path class="cls-1" d="M35.75061,25.60974l.96606-1.66608a6.538,6.538,0,0,1,6.44684-11.11859l.96674-1.66723a8.44048,8.44048,0,0,0-8.37964,14.4519Z"/></g><polygon id="Flocke" class="cls-1" points="54.871 21.965 53.983 20.426 51 22.096 51 16.904 53.853 18.499 54.74 16.96 51.562 15.12 57.497 11.694 56.609 10.154 51 13.341 51 10.1 49.3 10.1 49.3 13.822 49.15 13.735 46.01 11.917 45.121 13.46 49.3 15.875 49.3 23.125 49.25 23.153 42.2 27.214 42.15 27.186 38.432 25.074 37.541 26.621 40.421 28.257 40.198 28.387 37.112 30.168 37.999 31.707 41.3 29.797 41.3 36.65 43 36.65 43 29.797 46.401 31.707 47.288 30.168 43.979 28.257 44.129 28.171 49.3 25.177 49.3 28.9 51 28.9 51 25.659 56.607 28.846 57.497 27.307 51.562 23.879 54.871 21.965"/></g></g></svg>