<svg id="E26B_Antrieb_BEV" xmlns="http://www.w3.org/2000/svg" viewBox="0 0 60 60"><defs><style>.cls-1{fill:#fff;fill-rule:evenodd;}</style></defs><path class="cls-1" d="M22,48H17.798a42.39451,42.39451,0,0,0-.7011-6.1554.397.397,0,0,0-.3949-.3125H13.6926a.4106.4106,0,0,0-.4036.3125,34.19529,34.19529,0,0,0-.7333,7.0546,36.216,36.216,0,0,0,.7333,7.2565.40195.40195,0,0,0,.4036.3122H16.702a.398.398,0,0,0,.3979-.3122A39.03665,39.03665,0,0,0,17.8067,50H22Z"/><path class="cls-1" d="M29,14V41h2V14Z"/><path class="cls-1" d="M38,50h4.1933a39.03665,39.03665,0,0,0,.7068,6.1557.398.398,0,0,0,.3979.3122h3.0094a.40195.40195,0,0,0,.4036-.3122,36.216,36.216,0,0,0,.7333-7.2565,34.19529,34.19529,0,0,0-.7333-7.0546.4106.4106,0,0,0-.4036-.3125H43.298a.397.397,0,0,0-.3949.3125A42.39451,42.39451,0,0,0,42.202,48H38Z"/><path class="cls-1" d="M29,55l-6-6,6-6Z"/><path class="cls-1" d="M31,43l6,6-6,6Z"/><path class="cls-1" d="M43.345,10H17.3l-.73287,1.98H42.62Z"/><path class="cls-1" d="M34,15H26V7h8Z"/><path class="cls-1" d="M48.21636,4.23712,45.3239,3.40636a.40968.40968,0,0,0-.47575.19442,40.58671,40.58671,0,0,0-2.30023,5.47985l-.60626,2.09994a40.1839,40.1839,0,0,0-1.04261,6.16972.40461.40461,0,0,0,.30174.41149l2.89832.83245a.39611.39611,0,0,0,.46276-.19191,36.05724,36.05724,0,0,0,2.71387-6.77041A33.86907,33.86907,0,0,0,48.511,4.6528a.40411.40411,0,0,0-.2946-.41568"/><path class="cls-1" d="M18.72986,4.23712,15.8374,3.40636a.4097.4097,0,0,0-.47576.19442,40.588,40.588,0,0,0-2.30022,5.47985l-.60626,2.09994a40.1839,40.1839,0,0,0-1.04261,6.16972.40461.40461,0,0,0,.30173.41149l2.89833.83245a.39611.39611,0,0,0,.46276-.19191,36.05792,36.05792,0,0,0,2.71387-6.77041A33.86907,33.86907,0,0,0,19.02446,4.6528a.40411.40411,0,0,0-.2946-.41568"/></svg>