<svg id="V2" xmlns="http://www.w3.org/2000/svg" viewBox="0 0 110 60"><defs><style>.cls-1{fill:#fff;}</style></defs><path class="cls-1" d="M90.07111,40.91355a8.36284,8.36284,0,0,0,2.4539-1.13179,7.57352,7.57352,0,0,0,1.83284-1.7792,9.92381,9.92381,0,0,0,1.25723-2.33179,13.54108,13.54108,0,0,0,.72338-2.80121,21.07894,21.07894,0,0,0,.231-3.17969,21.33136,21.33136,0,0,0-.22723-3.17976,13.7929,13.7929,0,0,0-.71207-2.79742,9.64182,9.64182,0,0,0-1.242-2.32419,7.51391,7.51391,0,0,0-1.82153-1.764,8.23811,8.23811,0,0,0-2.4463-1.12047,11.45141,11.45141,0,0,0-3.109-.38995,11.20588,11.20588,0,0,0-3.10534.39747,8.38094,8.38094,0,0,0-2.4463,1.13187,7.51748,7.51748,0,0,0-1.82905,1.77912,9.88509,9.88509,0,0,0-1.2497,2.33559,13.793,13.793,0,0,0-.71943,2.80121,20.99672,20.99672,0,0,0-.231,3.176,21.38553,21.38553,0,0,0,.22723,3.18348,13.696,13.696,0,0,0,.71191,2.79741A9.73661,9.73661,0,0,0,79.608,38.03667a7.47858,7.47858,0,0,0,1.81393,1.764,8.188,8.188,0,0,0,2.4387,1.12047,11.41313,11.41313,0,0,0,3.10534.38988A11.25634,11.25634,0,0,0,90.07111,40.91355ZM84.8726,38.559a5.41608,5.41608,0,0,1-1.67314-.88959A5.52075,5.52075,0,0,1,81.954,36.27267a8.326,8.326,0,0,1-.85549-1.83975,11.73489,11.73489,0,0,1-.48833-2.21062,20.84426,20.84426,0,0,1,0-5.01563,11.82705,11.82705,0,0,1,.48833-2.2107,8.2237,8.2237,0,0,1,.85549-1.83975,5.61206,5.61206,0,0,1,1.24544-1.39677,5.31667,5.31667,0,0,1,1.67314-.8896,7.47106,7.47106,0,0,1,4.26232,0,5.2715,5.2715,0,0,1,1.66942.8896,5.58839,5.58839,0,0,1,1.23777,1.39677,8.33836,8.33836,0,0,1,.85176,1.83975,12.03633,12.03633,0,0,1,.492,2.2107,20.33768,20.33768,0,0,1,0,5.01563,11.94029,11.94029,0,0,1-.492,2.21062,8.44336,8.44336,0,0,1-.85176,1.83975,5.49766,5.49766,0,0,1-1.23777,1.39677,5.37732,5.37732,0,0,1-1.66562.88959,7.39739,7.39739,0,0,1-4.26612,0Z"/><path class="cls-1" d="M67.95735,40.94006v-20.055h6.92732V18.48511H58.11533v2.39994h6.92724v20.055Z"/><path class="cls-1" d="M49.98508,33.36928a7.99953,7.99953,0,0,1-.32583,2.40746,4.20676,4.20676,0,0,1-1,1.71485,4.15056,4.15056,0,0,1-1.71221,1.022,8.007,8.007,0,0,1-2.4622.33692,7.904,7.904,0,0,1-2.447-.33692,4.12244,4.12244,0,0,1-1.70082-1.022,4.22924,4.22924,0,0,1-.99628-1.71485,8.00219,8.00219,0,0,1-.32576-2.40746V18.48511H36.10021V33.86893a10.55641,10.55641,0,0,0,.227,2.27125,6.911,6.911,0,0,0,.68106,1.85486A5.50075,5.50075,0,0,0,38.151,39.441a6.13936,6.13936,0,0,0,1.61942,1.0372,8.98275,8.98275,0,0,0,2.11116.62462,16.35845,16.35845,0,0,0,5.2027,0,9.05666,9.05666,0,0,0,2.11131-.62462,6.25014,6.25014,0,0,0,1.63082-1.0372,5.55829,5.55829,0,0,0,1.15775-1.446,6.75576,6.75576,0,0,0,.68866-1.85486,10.56085,10.56085,0,0,0,.227-2.27125V18.48511H49.98508Z"/><path class="cls-1" d="M32.15624,40.94006l-8.60365-22.455H20.388l-8.54426,22.455h2.99045l2.07333-5.7008H26.93888l2.083,5.7008Zm-6.10362-8.17648H17.77016L21.039,23.83007q.22687-.66611.4767-1.38925a14.02333,14.02333,0,0,0,.42375-1.49522,13.0273,13.0273,0,0,0,.38631,1.499q.23478.72679.49236,1.38545Z"/></svg>