<svg id="E288_001_Standlicht" xmlns="http://www.w3.org/2000/svg" viewBox="0 0 60 60"><defs><style>.cls-1{fill:#fff;fill-rule:evenodd;}</style></defs><path class="cls-1" d="M52,31.68412V29.28129H43.93412a15.22262,15.22262,0,0,1-.009,2.40283ZM50.09488,41.99519l.84034-2.30491L43.34939,36.928a5.32946,5.32946,0,0,1-1.18883,2.1011Zm.906-20.7853-.838-2.30508-7.87543,2.94358a5.22167,5.22167,0,0,1,1.11188,2.12823ZM32.10394,30.36628a7.89741,7.89741,0,0,0,5.54091,7.5172A2.07268,2.07268,0,0,0,40.317,36.43879a20.564,20.564,0,0,0,0-12.145,2.0672,2.0672,0,0,0-2.67213-1.44A7.88287,7.88287,0,0,0,32.10394,30.36628Zm2.44093-.00907a5.28926,5.28926,0,0,1,2.95274-4.81373c.23558-.11779.6362-.095.71324.2265a20.839,20.839,0,0,1,.582,4.5963,20.78845,20.78845,0,0,1-.582,4.58723c-.077.3216-.47766.34428-.71324.22188A5.29072,5.29072,0,0,1,34.54487,30.35721ZM8,31.68412V29.28129h8.06588a15.45348,15.45348,0,0,0,.0113,2.40283Zm2.25089,10.31107L9.4108,39.69028,16.99638,36.928a5.32946,5.32946,0,0,0,1.18883,2.1011Zm-.906-20.7853.838-2.30508,7.87543,2.94358a5.24876,5.24876,0,0,0-1.11394,2.12823Zm18.622,9.15639a7.89658,7.89658,0,0,1-5.54321,7.5172,2.06774,2.06774,0,0,1-2.66751-1.44469,20.5146,20.5146,0,0,1,0-12.145,2.06227,2.06227,0,0,1,2.66751-1.44A7.882,7.882,0,0,1,27.96691,30.36628ZM25.526,30.35721a5.28522,5.28522,0,0,0-2.95274-4.81373c-.23557-.11779-.63628-.095-.71323.2265a20.82941,20.82941,0,0,0-.582,4.5963,20.77883,20.77883,0,0,0,.582,4.58723c.077.3216.47766.34428.71323.22188A5.28668,5.28668,0,0,0,25.526,30.35721Z"/></svg>