<svg id="E288_002_Standlicht_vergrößert" xmlns="http://www.w3.org/2000/svg" viewBox="0 0 60 60"><defs><style>.cls-1{fill:#fff;fill-rule:evenodd;}</style></defs><path class="cls-1" d="M57,30.9646V28.01568H47.101a18.68161,18.68161,0,0,1-.011,2.94892ZM54.6619,43.6191l1.03133-2.82876-9.30988-3.39007a6.54083,6.54083,0,0,1-1.459,2.57862Zm1.11191-25.50924-1.0285-2.829L45.08,18.89348a6.40826,6.40826,0,0,1,1.36457,2.61192ZM32.58211,29.34725a9.69228,9.69228,0,0,0,6.8002,9.22566,2.54373,2.54373,0,0,0,3.27943-1.773,25.23756,25.23756,0,0,0,0-14.90524,2.537,2.537,0,0,0-3.27943-1.76727A9.67444,9.67444,0,0,0,32.58211,29.34725Zm2.99569-.01113a6.49136,6.49136,0,0,1,3.62382-5.90776c.28911-.14456.78078-.11662.87533.278a25.57515,25.57515,0,0,1,.71427,5.64091,25.51308,25.51308,0,0,1-.71427,5.62978c-.09455.3947-.58622.42254-.87533.27231A6.49312,6.49312,0,0,1,35.5778,29.33612ZM3,30.9646V28.01568h9.899a18.96346,18.96346,0,0,0,.01387,2.94892ZM5.76245,43.6191l-1.031-2.82876L14.041,37.40027A6.54068,6.54068,0,0,0,15.5,39.97889ZM4.65055,18.10986,5.679,15.2809l9.6653,3.61258a6.44166,6.44166,0,0,0-1.36711,2.61192ZM27.50484,29.34725a9.69126,9.69126,0,0,1-6.803,9.22566,2.53768,2.53768,0,0,1-3.27376-1.773,25.17687,25.17687,0,0,1,0-14.90524,2.531,2.531,0,0,1,3.27376-1.76727A9.67343,9.67343,0,0,1,27.50484,29.34725Zm-2.99568-.01113a6.48643,6.48643,0,0,0-3.62382-5.90776c-.28911-.14456-.78088-.11662-.87533.278a25.56312,25.56312,0,0,0-.71428,5.64091A25.50106,25.50106,0,0,0,20.01,34.977c.09445.3947.58622.42254.87533.27231A6.4882,6.4882,0,0,0,24.50916,29.33612Z"/></svg>