<svg id="E2FC_hourglass" xmlns="http://www.w3.org/2000/svg" viewBox="0 0 60 60"><defs><style>.cls-1{fill:#fff;fill-rule:evenodd;}.cls-2,.cls-3{fill:none;}.cls-2{stroke:#fff;stroke-width:2px;}</style></defs><path id="Boden" class="cls-1" d="M10,56H50v2H10ZM10,2H50V4H10Z"/><path id="path-2" class="cls-2" d="M13,57c0-6.876,2.687-17.084,9.944-21.078a8.088,8.088,0,0,0,3.3-5.874,7.467,7.467,0,0,0-3.3-6.017C15.592,20.217,13,9.877,13,3"/><path id="path-2-2" data-name="path-2" class="cls-2" d="M47,3c0,6.877-2.544,17.314-9.944,21.031a7.335,7.335,0,0,0-3.349,5.92c.001,2.712,2.417,5.458,3.349,5.971C44.313,39.916,47,50.124,47,57"/><path id="path" class="cls-1" d="M31.539,20.769C34.9,19.743,38,15.9,38,14H22c0,1.9,3.241,5.978,6.461,6.769C28.86,20.867,30,25,30,25S31.169,20.881,31.539,20.769ZM28,48c-4.722,1.014-9,3.125-9,5H41c0-1.875-4.309-3.96-9-5-.464-.1-2-14-2-14S28.438,47.906,28,48Z"/><path id="path-2-3" data-name="path" class="cls-3" d="M31.539,20.769C34.9,19.743,38,15.9,38,14H22c0,1.9,3.241,5.978,6.461,6.769C28.86,20.867,30,25,30,25S31.169,20.881,31.539,20.769ZM28,48c-4.722,1.014-9,3.125-9,5H41c0-1.875-4.309-3.96-9-5-.464-.1-2-14-2-14S28.438,47.906,28,48Z"/></svg>