<svg id="E31F_AC_laden" xmlns="http://www.w3.org/2000/svg" viewBox="0 0 60 60"><defs><style>.cls-1{fill:#fff;}</style></defs><g id="AC"><path class="cls-1" d="M53.35963,34.84606a16.64356,16.64356,0,0,1-1.5731.592,14.70821,14.70821,0,0,1-1.81.44708,21.14668,21.14668,0,0,1-2.14289.28058q-1.16124.09482-2.58416.09559a14.39378,14.39378,0,0,1-3.58438-.424,11.28387,11.28387,0,0,1-3.03936-1.25182,10.04518,10.04518,0,0,1-2.44791-2.072,11.71536,11.71536,0,0,1-1.80535-2.886,16.43317,16.43317,0,0,1-1.11789-3.68609,24.42927,24.42927,0,0,1-.38089-4.47078,23.02867,23.02867,0,0,1,.35766-4.15629,16.6669,16.6669,0,0,1,1.05906-3.58433,12.53921,12.53921,0,0,1,1.74651-2.93376,10.27838,10.27838,0,0,1,2.42468-2.1984A11.21143,11.21143,0,0,1,41.549,7.22124a13.65549,13.65549,0,0,1,3.72992-.48254q1.12176,0,2.21566.10638a20.66358,20.66358,0,0,1,2.09024.30833,15.12521,15.12521,0,0,1,1.86264.49641,9.633,9.633,0,0,1,1.53439.65983v3.22821a12.04906,12.04906,0,0,0-1.56226-.62745,17.47235,17.47235,0,0,0-1.81-.47637,19.97823,19.97823,0,0,0-1.9896-.30371,20.49866,20.49866,0,0,0-2.09953-.10483,10.29051,10.29051,0,0,0-2.72815.34071,7.39557,7.39557,0,0,0-2.22185,1.01286A7.18229,7.18229,0,0,0,38.858,13.02555a9.16791,9.16791,0,0,0-1.21389,2.25081,13.90079,13.90079,0,0,0-.72617,2.82739,21.99359,21.99359,0,0,0-.24154,3.367,20.20448,20.20448,0,0,0,.305,3.68146,13.23779,13.23779,0,0,0,.87016,2.93376,8.85979,8.85979,0,0,0,1.37027,2.22151,7.59165,7.59165,0,0,0,1.8038,1.54628,7.73137,7.73137,0,0,0,2.17695.905,10.14406,10.14406,0,0,0,2.482.29445q1.2588,0,2.338-.09712c.71842-.06321,1.39195-.15417,2.01747-.26825a15.90426,15.90426,0,0,0,1.7558-.42549q.81751-.24975,1.56381-.55808Z"/><path id="Welle" class="cls-1" d="M39.52789,50.81694h-.04783c-4.34507-.01637-7.68121-1.88709-10.90825-3.6953-.39161-.21877-.78023-.45987-1.17931-.70841A12.5757,12.5757,0,0,0,19.61563,44.166c-4.28677,0-8.65276,4.5317-9.97257,6.27889L6.58493,48.153c.24064-.31848,5.97726-7.79691,13.0307-7.79691a16.21187,16.21187,0,0,1,9.80517,2.82618c.34826.21728.68606.42861,1.02685.61911,3.05813,1.713,5.69775,3.19228,9.04735,3.20567h.03139c5.93093,0,10.557-6.63458,10.60333-6.70156L53.294,42.44855C53.06081,42.79085,47.49608,50.81694,39.52789,50.81694Z"/><path class="cls-1" d="M27.79531,35.90524l-2.68326-7.31348H12.18566L9.51354,35.90524H5.65963L16.67419,7.09476h4.07817L31.83372,35.90524ZM19.806,13.95214q-.33162-.84332-.63463-1.7769a16.69577,16.69577,0,0,1-.49784-1.9226,17.92264,17.92264,0,0,1-.54556,1.91785c-.21472.61764-.4199,1.2131-.61554,1.78165L13.299,25.41488H23.97163Z"/></g></svg>