<svg id="E320_DC_laden" xmlns="http://www.w3.org/2000/svg" viewBox="0 0 60 60"><defs><style>.cls-1{fill:#fff;}</style></defs><g id="DC"><rect class="cls-1" x="7" y="42" width="46" height="3"/><rect class="cls-1" x="41" y="48" width="12" height="3"/><path class="cls-1" d="M53.35963,34.84606a16.64356,16.64356,0,0,1-1.5731.592,14.70821,14.70821,0,0,1-1.81.44708,21.14668,21.14668,0,0,1-2.14289.28058q-1.16124.09482-2.58416.09559a14.39378,14.39378,0,0,1-3.58438-.424,11.28387,11.28387,0,0,1-3.03936-1.25182,10.04518,10.04518,0,0,1-2.44791-2.072,11.71536,11.71536,0,0,1-1.80535-2.886,16.43317,16.43317,0,0,1-1.11789-3.68609,24.42927,24.42927,0,0,1-.38089-4.47078,23.02867,23.02867,0,0,1,.35766-4.15629,16.6669,16.6669,0,0,1,1.05906-3.58433,12.53921,12.53921,0,0,1,1.74651-2.93376,10.27838,10.27838,0,0,1,2.42468-2.1984A11.21143,11.21143,0,0,1,41.549,7.22124a13.65549,13.65549,0,0,1,3.72992-.48254q1.12176,0,2.21566.10638a20.66358,20.66358,0,0,1,2.09024.30833,15.12521,15.12521,0,0,1,1.86264.49641,9.633,9.633,0,0,1,1.53439.65983v3.22821a12.04906,12.04906,0,0,0-1.56226-.62745,17.47235,17.47235,0,0,0-1.81-.47637,19.97823,19.97823,0,0,0-1.9896-.30371,20.49866,20.49866,0,0,0-2.09953-.10483,10.29051,10.29051,0,0,0-2.72815.34071,7.39557,7.39557,0,0,0-2.22185,1.01286A7.18229,7.18229,0,0,0,38.858,13.02555a9.16791,9.16791,0,0,0-1.21389,2.25081,13.90079,13.90079,0,0,0-.72617,2.82739,21.99359,21.99359,0,0,0-.24154,3.367,20.20448,20.20448,0,0,0,.305,3.68146,13.23779,13.23779,0,0,0,.87016,2.93376,8.85979,8.85979,0,0,0,1.37027,2.22151,7.59165,7.59165,0,0,0,1.8038,1.54628,7.73137,7.73137,0,0,0,2.17695.905,10.14406,10.14406,0,0,0,2.482.29445q1.2588,0,2.338-.09712c.71842-.06321,1.39195-.15417,2.01747-.26825a15.90426,15.90426,0,0,0,1.7558-.42549q.81751-.24975,1.56381-.55808Z"/><path class="cls-1" d="M7.011,35.90524V7.09476h9.34489a17.243,17.243,0,0,1,4.29862.49111A11.88649,11.88649,0,0,1,23.9947,8.97992a9.769,9.769,0,0,1,2.474,2.18977,11.62643,11.62643,0,0,1,1.67793,2.886,15.77165,15.77165,0,0,1,.94588,3.46727,25.1343,25.1343,0,0,1,.29657,3.94749,24.4139,24.4139,0,0,1-.30593,3.94439,15.82246,15.82246,0,0,1-.97086,3.47814A11.72064,11.72064,0,0,1,26.4,31.79145a9.99019,9.99019,0,0,1-2.52235,2.21,12.1124,12.1124,0,0,1-3.39956,1.408,17.4916,17.4916,0,0,1-4.35637.49577Zm8.93594-3.01191a12.51755,12.51755,0,0,0,3.06242-.34346,8.53731,8.53731,0,0,0,2.43026-1.00552,7.18491,7.18491,0,0,0,1.8387-1.6365,8.70687,8.70687,0,0,0,1.2721-2.23484,12.94854,12.94854,0,0,0,.73673-2.79744,21.86138,21.86138,0,0,0,.24037-3.346,22.5131,22.5131,0,0,0-.23413-3.35071,13.25547,13.25547,0,0,0-.72736-2.8223,8.84855,8.84855,0,0,0-1.25337-2.24416,7.01475,7.01475,0,0,0-1.82933-1.64117A8.50847,8.50847,0,0,0,19.039,10.461a12.72812,12.72812,0,0,0-3.09207-.345H10.54722V32.89333Z"/><rect class="cls-1" x="7" y="48" width="12" height="3"/><rect class="cls-1" x="24" y="48" width="12" height="3"/></g></svg>