<svg id="E341_ACA_QF_Lenkrad" xmlns="http://www.w3.org/2000/svg" viewBox="0 0 60 60"><defs><style>.cls-1{fill:#fff;}</style></defs><path class="cls-1" d="M30.00067,5.76508A24.23564,24.23564,0,1,0,54.207,30.00067,24.221,24.221,0,0,0,30.00067,5.76508ZM10.38281,20.90918a21.648,21.648,0,0,1,39.292.0498,1.5347,1.5347,0,0,1,.00684,1.53418,2.27408,2.27408,0,0,1-2.01758.957H12.37012a2.27581,2.27581,0,0,1-2.01758-.957A1.55813,1.55813,0,0,1,10.38281,20.90918ZM37.457,33.33984a7.579,7.579,0,0,1-7.44629,7.666h-.00293a7.67263,7.67263,0,1,1,7.44922-7.666ZM12.96191,41.60352a1.62674,1.62674,0,0,1-.41357-.05079,2.80229,2.80229,0,0,1-1.731-1.65429l-.09033-.19336a21.53771,21.53771,0,0,1-2.29346-9.23c.0293-2.02149,1.08887-3.48633,2.51953-3.48633l6.13917-.00977L17.085,30.1499a13.0415,13.0415,0,0,0,1.58154,6.21729l.30664.55957-.12109.10547L14.14111,41.166A1.91308,1.91308,0,0,1,12.96191,41.60352Zm29.77442,5.82617a1.25664,1.25664,0,0,1-.18164.16211,21.522,21.522,0,0,1-25.02686.03125,1.21677,1.21677,0,0,1-.23144-.18946,1.81766,1.81766,0,0,1-.68506-1.35058A3.553,3.553,0,0,1,18.00342,43.627l3.86426-3.39257.51806.3789a12.88071,12.88071,0,0,0,15.26367-.001l.51856-.37792.12012.10546L42.001,43.59961a3.603,3.603,0,0,1,1.4248,2.4873A1.79684,1.79684,0,0,1,42.73633,47.42969Zm6.48437-7.53907a2.76318,2.76318,0,0,1-1.72754,1.66114,1.68331,1.68331,0,0,1-.42285.05176,1.85461,1.85461,0,0,1-1.13769-.40625l-4.88574-4.27051.3125-.56543A12.84994,12.84994,0,0,0,42.93945,30.148V26.979l6.14844.00977c1.43359,0,2.48731,1.45459,2.50586,3.459a21.50719,21.50719,0,0,1-2.29785,9.27979Z"/></svg>