<svg id="E347_timerladen" xmlns="http://www.w3.org/2000/svg" viewBox="0 0 60 60"><defs><style>.cls-1{fill:none;stroke:#fff;stroke-width:2px;}.cls-2,.cls-3{fill:#fff;}.cls-2{fill-rule:evenodd;}</style></defs><path id="Rechteck_1" data-name="Rechteck 1" class="cls-1" d="M48,58H39a7,7,0,0,1,0-14h9Z"/><path id="Stecker" class="cls-2" d="M48,46h7.5a1.5,1.5,0,0,1,0,3H48Zm0,7h7.5a1.5,1.5,0,0,1,0,3H48Z"/><path id="Zeigwe" class="cls-1" d="M28,9V27H12"/><path id="Center" class="cls-2" d="M28,22.7A4.3,4.3,0,1,1,23.7,27h0A4.3,4.3,0,0,1,28,22.7Z"/><path class="cls-3" d="M28,50.5A23.52634,23.52634,0,1,1,47.56458,40h2.36077A25.49232,25.49232,0,1,0,28,52.5Z"/><rect class="cls-3" x="27.9" y="50.5" width="4" height="2"/></svg>