<svg id="E34C_incomming_recommendation" xmlns="http://www.w3.org/2000/svg" viewBox="0 0 60 60"><defs><style>.cls-1{fill:#fff;fill-rule:evenodd;}</style></defs><path id="DA_Recommendation" data-name="DA Recommendation" class="cls-1" d="M59.986,38.215l-.028,2.622-.047,1.9-.065,1.543-.083,1.32-.1,1.161L59.539,47.8l-.14.948-.16.87-.179.8-.2.747-.219.7-.239.653-.261.612-.282.575-.3.541-.326.509-.349.479-.373.45-.4.423-.423.4-.45.373-.478.349-.509.326-.541.3-.575.282-.612.26-.653.239-.7.219-.747.2-.8.179-.87.16-.948.14-1.042.121-1.161.1-1.319.084-1.543.065-1.9.046-2.621.028L29.908,60l-8.123-.009-2.622-.028-1.9-.046-1.543-.065-1.32-.089-1.161-.1L12.2,59.54l-.948-.14-.87-.16-.8-.179-.747-.2-.7-.219L7.476,58.4l-.612-.26-.575-.282-.541-.3-.508-.327-.479-.349-.45-.373-.423-.4-.4-.423-.373-.45-.347-.476-.326-.509-.3-.541-.282-.575-.26-.611-.239-.653-.219-.7-.2-.747-.179-.8-.16-.87L.46,47.8.339,46.762.236,45.6.153,44.282.088,42.739l-.046-1.9L.014,38.215,0,29.879l.009-8.094.028-2.622.046-1.9L.148,15.72.236,14.4l.1-1.161L.46,12.2l.14-.952.16-.87.179-.8.2-.747.219-.7L1.6,7.476l.26-.612.282-.575.3-.541.326-.508.349-.479.373-.45.4-.423.423-.4.45-.373.477-.347.509-.326.541-.3.575-.282.611-.26.653-.239.7-.219.747-.2.8-.179.87-.16L12.2.46,13.242.339l1.161-.1L15.722.155,17.265.09l1.9-.046L21.787.016,30.138,0l8.077.009,2.621.028,1.9.046,1.543.065L45.6.237l1.161.1L47.8.46l.952.14.87.16.8.179.747.2.7.219.655.242.612.26.575.282.541.3.508.326.478.349.45.373.423.4.4.423.373.45.347.477.326.509.3.541.282.575.261.611.239.653.219.7.2.747.179.8.16.87.143.954.121,1.042.1,1.161.084,1.319.065,1.543.047,1.9.028,2.622L60,30ZM29.984,10a15.65244,15.65244,0,0,0-1.724.1,15.228,15.228,0,0,0-8.847,26.042,12.85305,12.85305,0,0,1,3.917,9.145v1.955A3.765,3.765,0,0,0,27.087,51H32.88a3.764,3.764,0,0,0,3.757-3.764V45.283a12.548,12.548,0,0,1,3.819-9.052A15.224,15.224,0,0,0,29.984,10ZM37,37H34.358a3.96269,3.96269,0,0,0,.4-.961L36.9,27.895a5.325,5.325,0,0,0-.576-3.667l-1-1.575c-.6-.946-1.444-.882-1.876.142l-.545,1.29c-.433,1.025-1.14,1.025-1.573,0L30.793,22.8c-.432-1.025-1.14-1.025-1.573,0l-.545,1.29c-.433,1.025-1.14,1.025-1.573,0l-.544-1.29c-.433-1.025-1.277-1.089-1.876-.142l-1,1.575a5.325,5.325,0,0,0-.576,3.667l2.149,8.145a3.9214,3.9214,0,0,0,.4.955H22.738a14.95378,14.95378,0,0,0-1.931-2.294,13.228,13.228,0,0,1,7.673-22.62A13.552,13.552,0,0,1,29.98,12a13.2254,13.2254,0,0,1,9.092,22.788A15.338,15.338,0,0,0,37,37Zm-9.635-.958-2-7.4a4.98094,4.98094,0,0,1-.061-2.822c.255-.483.817-.04,1.25.985L27.1,28.1c.433,1.024,1.14,1.024,1.573,0l.545-1.29c.432-1.025,1.14-1.025,1.573,0l.544,1.29c.433,1.025,1.14,1.025,1.573,0l.545-1.29c.432-1.025.995-1.468,1.25-.985a4.982,4.982,0,0,1-.061,2.822l-2,7.4a3.13729,3.13729,0,0,0-.115.953H27.479A3.138,3.138,0,0,0,27.365,36.042ZM36,39c.026,0,.047-.013.073-.015A14.32009,14.32009,0,0,0,35.292,41c-.09377-.03424-2.35893.00419-2.45867,0H25a1.087,1.087,0,0,0-.36024,0,14.29642,14.29642,0,0,0-.77876-2.032A.94966.94966,0,0,0,24,39Zm-1.348,6H25.316a14.53664,14.53664,0,0,0-.2-2H34.84a15.00082,15.00082,0,0,0-.189,2Zm-.014,2.237A1.766,1.766,0,0,1,32.882,49h-5.8a1.763,1.763,0,0,1-1.756-1.766V47h9.307v.237Z"/></svg>