<svg id="E353_audi_assistant_listening_speaking" xmlns="http://www.w3.org/2000/svg" viewBox="0 0 60 60"><defs><style>.cls-1{fill:#fff;fill-rule:evenodd;}</style></defs><g id="V1"><path class="cls-1" d="M59.984,21.787l-.028-2.622-.046-1.9-.065-1.543-.084-1.319-.1-1.161L59.54,12.2l-.14295-.954-.16-.87-.179-.8-.2-.747L58.639,8.129,58.4,7.476l-.26-.611-.282-.575-.3-.541-.326-.509-.347-.477-.373-.45-.4-.423-.423-.4-.45-.373-.479-.349-.508-.326-.541-.3-.575-.282-.612-.26-.655-.242-.7-.219-.747-.2-.8-.179L48.752.6,47.8.46,46.761.337,45.6.237,44.279.148,42.736.083l-1.9-.046L38.215.009,30.138,0,21.787.016,19.165.044l-1.9.046L15.722.155,14.403.239l-1.161.1L12.2.46l-.954.142-.87.16-.8.179-.747.2L8.129,1.36l-.653.24-.611.26-.575.282-.541.3-.509.326-.476.347-.45.373-.423.4-.4.423-.373.45-.349.479-.327.508-.3.541-.282.575-.26.612-.242.655-.219.7-.2.747-.179.8-.16.87L.46,12.2.337,13.239.237,14.4.148,15.72.083,17.263l-.046,1.9L.009,21.785,0,29.879l.014,8.336.028,2.624.046,1.9.065,1.543L.237,45.6l.102,1.162L.46,47.8l.142.954.16.87.179.8.2.747.219.7.24.653.261.611.282.575.3.541.326.509.346.477.373.45.4.423.423.4.45.373.479.349.508.326.541.3.575.282.612.26.659.242.7.21905.747.19995.80005.179.87.16.948.14,1.039.123,1.161.1,1.32.089,1.543.065,1.9.046,2.622.028L29.908,60l8.311-.021,2.621-.028,1.9-.046,1.543-.065,1.319-.084,1.161-.1,1.042-.121.948-.14.87-.16.8-.179.747-.2.7-.219.653-.24.612-.26.575-.282.541-.3.509-.326.479-.349.45-.373.423-.4.4-.423.373-.45.349-.479.326-.509.3-.541.282-.575.26-.612.239-.653.219-.7.2-.747.179-.8.16-.87.141-.948.123-1.039.1-1.161.089-1.32.065-1.543.046-1.9.028-2.62195L60,30ZM23,17a7,7,0,0,1,14,0V29a7,7,0,0,1-14,0ZM43,29A12.99225,12.99225,0,0,1,31,41.94946V49h6v2H23V49h6V41.94946A12.99225,12.99225,0,0,1,17,29V24h2v5a11,11,0,0,0,22,0V24h2Z"/><path class="cls-1" d="M30,34a5,5,0,0,0,5-5V17a5,5,0,0,0-10,0V29A5,5,0,0,0,30,34Z"/></g></svg>