<svg id="V2" xmlns="http://www.w3.org/2000/svg" viewBox="0 0 60 60"><defs><style>.cls-1{fill:#fff;}</style></defs><path class="cls-1" d="M21.43311,44.06152l-6.21338-8.291c-1.41748-1.56934-5.60352-3.209-7.0918-3.70215l.62891-1.89844c.23877.0791,5.87548,1.96387,8.00634,4.332l6.27051,8.36035Z"/><path class="cls-1" d="M18.87939,40h-5.6289c-3.83838,0-7.52393-3.2959-9.72559-5.26465L3.376,34.60254A5.87607,5.87607,0,0,1,1,30V19H3V30c0,.95117.29053,1.84375,1.7085,3.11035l.14941.13379C6.71631,34.90625,10.17578,38,13.25049,38h5.6289Z"/><path class="cls-1" d="M38.2852,22.5283a2.42233,2.42233,0,1,0,1.0084-4.0299L33.7783,12.983l-2.4136-.8018.804,2.4138,5.5133,5.5195A2.42791,2.42791,0,0,0,38.2852,22.5283Z"/><path class="cls-1" d="M48.70508,30.97217l3.45117,3.45752A18.26678,18.26678,0,1,0,26.29443,8.71777,18.79211,18.79211,0,0,0,21.75537,21.8999H26.583v-2.124H23.834l.00733-.10693a16.18886,16.18886,0,0,1,3.91748-9.47706l.07031-.08105L29.832,12.11572l1.47266-1.47021L29.29736,8.64014l.08057-.07032a16.19852,16.19852,0,0,1,9.47363-3.92334l.10645-.00732V7.46924h2.0791V4.63867l.10644.00781A16.19739,16.19739,0,0,1,50.6084,8.57422l.081.07031-1.99218,1.99219,1.47168,1.4707,1.99023-1.99267.07031.081a16.203,16.203,0,0,1,3.91309,9.46045l.00781.10693H53.34277v2.07813h2.80762l-.00781.10693a16.227,16.227,0,0,1-3.915,9.45215l-.07031.08106-.0752-.07618-1.90625-1.90381Z"/><path class="cls-1" d="M19.4253,29.7093l.7677-.6685.3049.3569a3.56252,3.56252,0,0,1,.6886-.4798c1.0661-.9798,2.7039-3.5905,6.8417-.3662,8.7974,6.863,17.1313,7.2142,17.3463,8.0997,1.2051,5.0377,6.3714,9.2967,7.9064,10.5594.8078.6731-4.7502,6.8982-7.4411,7.4463-.4254.0821-.2304.584-.3546.9651l-2.1158,1.8206L35.6285,48.493l2.2792-1.8559c-2.0424-2.3959-5.2668-3.8179-8.1671-5.0427Z"/></svg>