<svg id="Ebene_1" data-name="Ebene 1" xmlns="http://www.w3.org/2000/svg" viewBox="0 0 108 108"><defs><style>.cls-1{fill:none;stroke:#fff;stroke-width:2px;}.cls-2{fill:#fff;}</style></defs><g id="Icon"><path class="cls-1" d="M32.60965,45.48773a22.31644,22.31644,0,0,1,21.412-16.03244A21.40736,21.40736,0,0,1,74.79428,45.48773"/><path class="cls-2" d="M35.10875,46.998a.90141.90141,0,0,1,.89822.89829V62.10221a.90049.90049,0,0,1-.896.89975h-4.2202a.90037.90037,0,0,1-.89774-.89756V47.89877a.90155.90155,0,0,1,.896-.90073h4.21969M35.11094,45H30.88906A2.8961,2.8961,0,0,0,28,47.89633V62.1044A2.89508,2.89508,0,0,0,30.88906,65h4.22188A2.89493,2.89493,0,0,0,38,62.1044V47.89633A2.89579,2.89579,0,0,0,35.11094,45Z"/></g><g id="Logo"><path class="cls-2" d="M77.111,45H72.889A2.89609,2.89609,0,0,0,70,47.8963v4.506l1.74115-1.20538s.09247-.055.25189-.13178v-3.1664a.90153.90153,0,0,1,.896-.90069h4.21971a.9014.9014,0,0,1,.89821.89825V62.10223l-.0011.00544v2.73559A2.88812,2.88812,0,0,0,80,62.10443V47.8963A2.89578,2.89578,0,0,0,77.111,45Z"/><polygon class="cls-1" points="64.625 71.978 74.006 78.478 74.006 54.494 64.625 60.988 60.984 60.988 60.984 71.984 64.625 71.978"/><polyline class="cls-1" points="57.98 60.988 54.984 60.988 54.984 71.984 57.98 71.984"/></g></svg>