<svg id="Ebene_1" data-name="Ebene 1" xmlns="http://www.w3.org/2000/svg" viewBox="0 0 108 108"><defs><style>.cls-1,.cls-2{fill:none;stroke:#fff;stroke-width:2px;}.cls-1{stroke-linejoin:round;}.cls-2{stroke-miterlimit:10;}.cls-3{fill:#969696;}</style></defs><g id="Ebene_1-2" data-name="Ebene 1"><line class="cls-1" x1="54.01798" y1="29.09341" x2="54.01798" y2="44.11948"/><polygon class="cls-2" points="54.012 80.966 54.006 80.966 54 80.966 54.012 80.966"/><path class="cls-1" d="M59.67966,50.22508a24.06039,24.06039,0,0,0-3.67539-.30823l-.00179-.94185h1.00808a1.00288,1.00288,0,0,0,1-1V45.97888a1.003,1.003,0,0,0-1-1H51.00674a1.003,1.003,0,0,0-1,1V47.975a1.00288,1.00288,0,0,0,1,1h.9927l-.002.94185a23.91453,23.91453,0,0,0-3.66515.30823c-1.17749.1958-1.1001.436-1.1001,1.61767,0,2.09094,2.08624,4.31128,4.94024,4.9596l-.9207,23.44652s.68383.71546,2.75439.71692c2.07056-.00146,2.75415-.71692,2.75415-.71692l-.9207-23.44652c2.854-.64844,4.94023-2.86866,4.94023-4.9596C60.77976,50.66111,60.85715,50.42088,59.67966,50.22508Z"/><path class="cls-3" d="M39.26826,52.5918a14.70018,14.70018,0,0,1,4.89942-10.947l-.70044-1.387a16.18588,16.18588,0,0,0-.2395,24.45044l.76611-1.32763A14.69657,14.69657,0,0,1,39.26826,52.5918Z"/><path class="cls-3" d="M35.26826,52.5918a18.71359,18.71359,0,0,1,7.04322-14.62256l-.68555-1.35767a20.19885,20.19885,0,0,0-.43848,31.63233l.76343-1.323A18.70977,18.70977,0,0,1,35.26826,52.5918Z"/><path class="cls-3" d="M28.76826,52.5918A25.22938,25.22938,0,0,1,39.33272,32.071l-.68335-1.35339A26.71381,26.71381,0,0,0,37.90694,73.929l.75683-1.31177A25.21888,25.21888,0,0,1,28.76826,52.5918Z"/><path class="cls-3" d="M66.37227,36.615l-.68579,1.35754a18.702,18.702,0,0,1,.36011,28.94471l.7639,1.32348A20.19945,20.19945,0,0,0,66.37227,36.615Z"/><path class="cls-3" d="M70.2253,52.5918a16.209,16.209,0,0,0-5.69483-12.33033L63.83,41.64868a14.67873,14.67873,0,0,1,1.1596,20.72645q-.4687.52426-.986,1.00187l.76611,1.32764A16.19651,16.19651,0,0,0,70.2253,52.5918Z"/><path class="cls-3" d="M69.34883,30.721l-.68359,1.35339a25.21124,25.21124,0,0,1,.66894,40.53955l.75684,1.31165A26.71365,26.71365,0,0,0,69.34883,30.721Z"/></g></svg>