<svg id="Ebene_1" data-name="Ebene 1" xmlns="http://www.w3.org/2000/svg" viewBox="0 0 108 108"><defs><style>.cls-1,.cls-2,.cls-3,.cls-4{fill:none;stroke-linejoin:round;}.cls-1,.cls-2,.cls-3{stroke:#fff;}.cls-1{stroke-width:2px;}.cls-2{stroke-width:2px;}.cls-3{stroke-width:2px;}.cls-4{stroke:#969696;stroke-width:1.5px;}</style></defs><g id="Ebene_1-2" data-name="Ebene 1"><line class="cls-1" x1="45.66549" y1="56.48786" x2="58.90605" y2="54.84351"/><polyline class="cls-1" points="45.015 73.815 45.015 51.754 62.964 49.487 62.964 71.502"/><ellipse class="cls-2" cx="40.30941" cy="75.1149" rx="4.8298" ry="3.37803" transform="translate(-17.50125 12.46488) rotate(-14.47981)"/><ellipse class="cls-3" cx="58.40355" cy="73.24698" rx="4.82978" ry="3.37801" transform="translate(-16.45937 16.92968) rotate(-14.47973)"/><line class="cls-4" x1="81.50362" y1="47.10925" x2="81.50362" y2="58.83549"/><line class="cls-4" x1="75.50362" y1="40.24409" x2="75.50362" y2="65.96693"/><line class="cls-4" x1="69.50362" y1="42.09528" x2="69.50362" y2="62.9685"/><line class="cls-4" x1="63.50362" y1="44.01811" x2="63.50362" y2="35.09449"/><line class="cls-4" x1="57.50362" y1="45.39921" x2="57.50362" y2="30.09213"/><line class="cls-4" x1="51.50362" y1="37.02598" x2="51.50362" y2="45.96614"/><line class="cls-4" x1="45.50362" y1="46.99449" x2="45.50362" y2="31.09843"/><line class="cls-4" x1="39.50362" y1="36.09213" x2="39.50362" y2="66.94646"/><line class="cls-4" x1="33.50362" y1="67.96772" x2="33.50362" y2="40.02205"/><line class="cls-4" x1="27.50362" y1="47.0748" x2="27.50362" y2="61.14409"/></g></svg>