<svg xmlns="http://www.w3.org/2000/svg" viewBox="0 0 108 108"><defs><style>.cls-1{fill:#969696;}.Icon-graue-Kontur-5,.Icon-weisse-Kontur-6{fill:none;stroke-linejoin:round;}.Icon-graue-Kontur-5{stroke:#969696;stroke-width:1.5px;fill-rule:evenodd;}.Icon-weisse-Kontur-6{stroke:#fff;stroke-width:2px;}</style></defs><g id="Ebene_1" data-name="Ebene 1"><circle class="cls-1" cx="52.06653" cy="57.48631" r="1"/><circle class="cls-1" cx="53.35714" cy="57.48631" r="1"/><circle class="cls-1" cx="54.64776" cy="57.48631" r="1"/><circle class="cls-1" cx="55.93838" cy="57.48631" r="1"/><line class="Icon-graue-Kontur-5" x1="35.38689" y1="46.61172" x2="31.11375" y2="45.58783"/><polyline class="Icon-graue-Kontur-5" points="75.425 54.744 69.911 55.817 67.442 53.348 77.299 52.205"/><path class="Icon-graue-Kontur-5" d="M62.14165,64.35665c.65294,0,1.02431-.68222,1.14117-.84314a28.74821,28.74821,0,0,0,3.59995-5.92729,1.34058,1.34058,0,0,0-.29995-1.11486,13.72489,13.72489,0,0,0-3.08-2.72353l-19.0038-.00725a13.72489,13.72489,0,0,0-3.08,2.72353,1.34061,1.34061,0,0,0-.3,1.11487,28.749,28.749,0,0,0,3.6,5.92729c.11687.16091.48824.84313,1.14118.84313Z"/><polyline class="Icon-graue-Kontur-5" points="32.571 54.744 38.085 55.817 40.554 53.348 30.697 52.205"/><path class="Icon-weisse-Kontur-6" d="M53.998,68.06641h-.04166c-5.00853,0-14.19608-.0523-14.19608-.0523s-.09412,1.41765-.09412,1.85294a.753.753,0,0,1-.72353.79683c-.6366,0-8.47059.00317-8.92941.00317a.59521.59521,0,0,1-.57516-.66372c.00129-.46769.51574-16.108.68649-16.9048a9.27883,9.27883,0,0,1,1.753-2.75821A9.78344,9.78344,0,0,1,35.359,47.94986s3.75117-7.08555,5.27125-8.87532a2.42134,2.42134,0,0,1,2.035-1.21362c1.68226-.2302,8.05868-.54039,11.33444-.54039s9.64917.31023,11.33114.54039a2.42133,2.42133,0,0,1,2.03495,1.21362c1.52008,1.78977,5.27126,8.87532,5.27126,8.87532a9.78353,9.78353,0,0,1,3.48148,2.39046,9.279,9.279,0,0,1,1.753,2.75821c.17074.79681.6852,16.43711.68649,16.9048a.59521.59521,0,0,1-.57516.66372c-.45883,0-8.29282-.00317-8.92942-.00317a.753.753,0,0,1-.72353-.79683c0-.43529-.09411-1.85294-.09411-1.85294s-9.18756.0523-14.19608.0523Z"/><line class="Icon-graue-Kontur-5" x1="72.60915" y1="46.61172" x2="76.8823" y2="45.58783"/></g></svg>