<svg xmlns="http://www.w3.org/2000/svg" viewBox="0 0 40 40"><g id="EA45_flag_malaysia"><rect id="red" y="7" width="40" height="26" fill="#cc0001" /><rect id="white" y="31.14286" width="40" height="1.85714" fill="#fff" /><g id="use3035"><rect id="white-2" data-name="white" y="27.42857" width="40" height="1.85714" fill="#fff" /></g><g id="use3038"><rect id="white-3" data-name="white" y="23.71429" width="40" height="1.85714" fill="#fff" /></g><g id="use3062"><rect id="white-4" data-name="white" y="20" width="40" height="1.85714" fill="#fff" /></g><g id="use3064"><rect id="white-5" data-name="white" y="16.28571" width="40" height="1.85714" fill="#fff" /></g><g id="use3066"><rect id="white-6" data-name="white" y="12.57143" width="40" height="1.85714" fill="#fff" /></g><g id="use3068"><rect id="white-7" data-name="white" y="8.85714" width="40" height="1.85714" fill="#fff" /></g><rect id="blue" y="7" width="20" height="14.85714" fill="#010066" /><path id="path4945" d="M7.96286,9.78571a4.92858,4.92858,0,1,0,2.67665,9.07214,4.36984,4.36984,0,1,1,.08758-8.2299A4.9324,4.9324,0,0,0,7.96286,9.78571Z" fill="#fc0" /><path id="path4959" d="M16.16346,17.28l-2.083-1.08679.61587,2.22423-1.3932-1.86059-.43465,2.26458L12.441,16.55555l-1.39908,1.85639.62291-2.22237L9.57844,17.27009l1.54991-1.7387L8.76786,15.622l2.17-.91066-2.16706-.91719,2.3602.09775L9.58654,12.14857l2.083,1.0868-.61588-2.22424,1.39321,1.86059.43465-2.26458L13.309,12.873l1.39908-1.85639L14.08515,13.239l2.08641-1.08052-1.54992,1.7387,2.3605-.09064-2.17.91066,2.16706.91719-2.3602-.09775Z" fill="#fc0" /></g></svg>