<svg xmlns="http://www.w3.org/2000/svg" xmlns:xlink="http://www.w3.org/1999/xlink" viewBox="0 0 44 44"><defs><linearGradient id="Beschriftung_weiss" x1="7.48706" y1="8.12763" x2="37.07007" y2="8.12763" gradientUnits="userSpaceOnUse"><stop offset="0" stop-color="#fff"/></linearGradient></defs><title>NIGHT</title><g id="NIGHT"><path id="Beschriftung_weiss-2" data-name="Beschriftung_weiss" d="M11.80737,11.37665,8.37866,5.93183v5.44482h-.8916v-6.498H8.7478l3.42871,5.4541V4.87861h.89063v6.498Zm2.96973,0v-6.498h.93652v6.498Zm8.53222-.43213a6.47694,6.47694,0,0,1-1.35937.46387,6.91026,6.91026,0,0,1-1.43066.13916,4.0413,4.0413,0,0,1-1.55762-.27,2.92753,2.92753,0,0,1-1.06641-.7334,2.87253,2.87253,0,0,1-.61133-1.08886,4.439,4.439,0,0,1-.19433-1.32764,4.24956,4.24956,0,0,1,.18457-1.23291A3.08479,3.08479,0,0,1,17.864,5.79658a3.02345,3.02345,0,0,1,1.03516-.7876,3.50194,3.50194,0,0,1,1.52051-.30127,3.84489,3.84489,0,0,1,1.98046.44092,1.83713,1.83713,0,0,1,.873,1.41308h-.97265a1.2419,1.2419,0,0,0-.64356-.86865,2.84157,2.84157,0,0,0-2.21387-.04492,2.075,2.075,0,0,0-.75586.5625,2.5034,2.5034,0,0,0-.459.85058,3.64811,3.64811,0,0,0-.00391,2.106,2.398,2.398,0,0,0,.46289.855,2.19417,2.19417,0,0,0,.77832.57617,2.63342,2.63342,0,0,0,1.08985.21143,4.2536,4.2536,0,0,0,.96289-.11279,5.2251,5.2251,0,0,0,.918-.30127h-.03614V8.72187H20.573V7.98359h2.76269v2.96093Zm6.07422.43213V8.35273H25.82007v3.02392h-.93653v-6.498h.93653V7.61445h3.56347V4.87861h.93653v6.498Zm5.26563-5.706v5.706h-.93555V5.6706h-2.4209v-.792h5.77735v.792Z" fill="url(#Beschriftung_weiss)"/></g></svg>