<svg xmlns="http://www.w3.org/2000/svg" xmlns:xlink="http://www.w3.org/1999/xlink" viewBox="0 0 44 44"><defs><linearGradient id="Hintergrund_schwarz" x1="2.19645" y1="22.00003" x2="41.80394" y2="22.00003" gradientUnits="userSpaceOnUse"><stop offset="0" stop-color="#010101"/></linearGradient><linearGradient id="Beschriftung_weiss" x1="7.53008" y1="26.32369" x2="37.23027" y2="26.32369" gradientUnits="userSpaceOnUse"><stop offset="0" stop-color="#fff"/></linearGradient><linearGradient id="Rahmen_weiss" x1="2" y1="22" x2="42" y2="22" xlink:href="#Beschriftung_weiss"/></defs><title>speedlimit_usa_can_night_50</title><g id="speedlimit_usa_can_night_50"><path id="Hintergrund_schwarz-2" data-name="Hintergrund_schwarz" d="M4.67072,41.80347H39.32847A2.473,2.473,0,0,0,41.80394,39.328V4.67206a2.4751,2.4751,0,0,0-2.47547-2.47547H4.67072A2.4751,2.4751,0,0,0,2.19645,4.67206V39.328a2.51609,2.51609,0,0,0,1.16362,2.104,2.84683,2.84683,0,0,0,1.31065.37147Z" fill="url(#Hintergrund_schwarz)"/><path id="Beschriftung_weiss-2" data-name="Beschriftung_weiss" d="M21.03008,28.93648a5.49345,5.49345,0,0,1-1.97461,4.33789,7.47032,7.47032,0,0,1-5.0752,1.71191,12.20481,12.20481,0,0,1-6.45019-1.875l1.57519-2.52441a10.12073,10.12073,0,0,0,4.875,1.375,4.69146,4.69146,0,0,0,3.04981-.86328,2.689,2.689,0,0,0,1.125-2.1875,2.5423,2.5423,0,0,0-1.02442-2.21192,4.49684,4.49684,0,0,0-2.77539-.8623,9.64276,9.64276,0,0,0-3.59961.77441l-2.60058-.75.4248-7.9248H19.75566v2.97461h-8.375l-.15039,2.45019a11.778,11.778,0,0,1,3.22461-.47461,6.68742,6.68742,0,0,1,4.72559,1.71192A5.65641,5.65641,0,0,1,21.03008,28.93648Zm16.20019-2.7002a9.99721,9.99721,0,0,1-1.88769,6.33789,6.07183,6.07183,0,0,1-5.03711,2.41211,6.23785,6.23785,0,0,1-5.40039-2.77441,9.99033,9.99033,0,0,1-1.7002-5.92578,9.65611,9.65611,0,0,1,1.90039-6.3125,6.37062,6.37062,0,0,1,5.2002-2.3125,6.1368,6.1368,0,0,1,5.01172,2.36328A9.5655,9.5655,0,0,1,37.23027,26.23628Zm-2.97558.04981a7.21147,7.21147,0,0,0-1.03711-4.14942,3.33886,3.33886,0,0,0-2.91211-1.5,3.458,3.458,0,0,0-2.97559,1.5,7.01581,7.01581,0,0,0-1.07519,4.14942,7.12144,7.12144,0,0,0,1.07519,4.1875,3.44813,3.44813,0,0,0,2.97559,1.51269,3.33,3.33,0,0,0,3.14941-1.875A7.99578,7.99578,0,0,0,34.25469,26.28609Z" fill="url(#Beschriftung_weiss)"/><path id="Rahmen_weiss-2" data-name="Rahmen_weiss" d="M39.5,3h0A1.538,1.538,0,0,1,41,4.5v35A1.538,1.538,0,0,1,39.5,41H4.5a1.88389,1.88389,0,0,1-.8-.2A1.70937,1.70937,0,0,1,3,39.5V4.5A1.538,1.538,0,0,1,4.5,3h35m0-1H4.5A2.47572,2.47572,0,0,0,2,4.5v35a2.24512,2.24512,0,0,0,1.2,2.1,3.25851,3.25851,0,0,0,1.3.4h35A2.47572,2.47572,0,0,0,42,39.5h0V4.5A2.54,2.54,0,0,0,39.5,2Z" fill="url(#Rahmen_weiss)" stroke-width="0.5px" stroke="url(#Rahmen_weiss)"/></g></svg>