<svg xmlns="http://www.w3.org/2000/svg" xmlns:xlink="http://www.w3.org/1999/xlink" viewBox="0 0 44 44"><defs><linearGradient id="Hintergrund_schwarz" x1="2.15488" y1="22.00003" x2="41.84551" y2="22.00003" gradientUnits="userSpaceOnUse"><stop offset="0" stop-color="#010101"/></linearGradient><linearGradient id="Beschriftung_weiss" x1="7.53203" y1="26.31562" x2="37.15703" y2="26.31562" gradientUnits="userSpaceOnUse"><stop offset="0" stop-color="#fff"/></linearGradient><linearGradient id="Rahmen_weiss" x1="2" y1="22" x2="42" y2="22" xlink:href="#Beschriftung_weiss"/></defs><title>speedlimit_usa_can_night_100</title><g id="speedlimit_usa_can_night_100"><path id="Hintergrund_schwarz-2" data-name="Hintergrund_schwarz" d="M4.63434,41.845h34.7305a2.47823,2.47823,0,0,0,2.48067-2.48066V4.63569A2.48029,2.48029,0,0,0,39.36484,2.155H4.63434A2.48029,2.48029,0,0,0,2.15488,4.63569V39.36438A2.52134,2.52134,0,0,0,3.321,41.47279a2.85266,2.85266,0,0,0,1.31339.37225Z" fill="url(#Hintergrund_schwarz)"/><path id="Beschriftung_weiss-2" data-name="Beschriftung_weiss" d="M11.30742,34.67841H8.95684V20.903H7.532V19.0036a2.3845,2.3845,0,0,0,2.02539-1.07519h1.75Zm8.29981.2998a4.01518,4.01518,0,0,1-3.77442-2.16211,13.806,13.806,0,0,1-1.20019-6.51269,13.74794,13.74794,0,0,1,1.20019-6.47461A4.01144,4.01144,0,0,1,19.60723,17.653a4.01289,4.01289,0,0,1,3.77539,2.17578,13.76017,13.76017,0,0,1,1.20019,6.47461,13.81822,13.81822,0,0,1-1.20019,6.51269A4.01664,4.01664,0,0,1,19.60723,34.97821Zm0-2.34961a2.0179,2.0179,0,0,0,1.97558-1.52539,14.43027,14.43027,0,0,0,.59961-4.84961,13.76983,13.76983,0,0,0-.59961-4.75,2.05033,2.05033,0,0,0-3.95019,0,13.74112,13.74112,0,0,0-.60059,4.75,14.40005,14.40005,0,0,0,.60059,4.84961A2.01606,2.01606,0,0,0,19.60723,32.6286Zm12.57421,2.34961A4.01518,4.01518,0,0,1,28.407,32.8161a13.806,13.806,0,0,1-1.20019-6.51269A13.74794,13.74794,0,0,1,28.407,19.8288,4.01144,4.01144,0,0,1,32.18144,17.653a4.01289,4.01289,0,0,1,3.7754,2.17578A13.76017,13.76017,0,0,1,37.157,26.30341a13.81822,13.81822,0,0,1-1.20019,6.51269A4.01664,4.01664,0,0,1,32.18144,34.97821Zm0-2.34961A2.0179,2.0179,0,0,0,34.157,31.10321a14.43053,14.43053,0,0,0,.59961-4.84961,13.77007,13.77007,0,0,0-.59961-4.75,2.05033,2.05033,0,0,0-3.95019,0,13.74087,13.74087,0,0,0-.60059,4.75,14.39979,14.39979,0,0,0,.60059,4.84961A2.01606,2.01606,0,0,0,32.18144,32.6286Z" fill="url(#Beschriftung_weiss)"/><path id="Rahmen_weiss-2" data-name="Rahmen_weiss" d="M39.5,3h0A1.538,1.538,0,0,1,41,4.5v35A1.538,1.538,0,0,1,39.5,41H4.5a1.88389,1.88389,0,0,1-.8-.2A1.70937,1.70937,0,0,1,3,39.5V4.5A1.538,1.538,0,0,1,4.5,3h35m0-1H4.5A2.47572,2.47572,0,0,0,2,4.5v35a2.24512,2.24512,0,0,0,1.2,2.1,3.25851,3.25851,0,0,0,1.3.4h35A2.47572,2.47572,0,0,0,42,39.5h0V4.5A2.54,2.54,0,0,0,39.5,2Z" fill="url(#Rahmen_weiss)" stroke-width="0.5px" stroke="url(#Rahmen_weiss)"/></g></svg>