<svg xmlns="http://www.w3.org/2000/svg" data-name="Ebene 1" viewBox="0 0 44 44"><circle cx="22" cy="22" r="20" fill="#fff" /><path d="m3.1 22c0 10.4 8.46 18.9 18.9 18.9s18.9-8.46 18.9-18.9-8.46-18.9-18.9-18.9-18.9 8.46-18.9 18.9zm4.9 0c0-7.73 6.27-14 14-14s14 6.27 14 14-6.27 14-14 14-14-6.27-14-14z" fill="#e52421" /><path d="m29.3 27.7v-11.5h-0.0332c-0.18-3.98-3.55-7.05-7.53-6.87s-7.05 3.55-6.87 7.53v16.2h3.6v-16.2c0-1.99 1.61-3.6 3.6-3.6s3.6 1.61 3.6 3.6v10.9c-0.831-0.0412-1.64-0.291-2.35-0.725l4.15 7.16 4.15-7.16c-0.71 0.435-1.52 0.684-2.35 0.725l0.0332-0.0216z" fill="#010101" /><line x1="34.2" x2="9.23" y1="9.61" y2="34.2" fill="none" stroke="#e52421" stroke-miterlimit="10" stroke-width="4px" /></svg>