<svg xmlns="http://www.w3.org/2000/svg" data-name="Ebene 1" viewBox="0 0 44 44"><circle cx="22" cy="22" r="20" fill="#fff" /><path d="m3.1 22c0 10.4 8.46 18.9 18.9 18.9s18.9-8.46 18.9-18.9-8.46-18.9-18.9-18.9-18.9 8.46-18.9 18.9zm4.9 0c0-7.73 6.27-14 14-14s14 6.27 14 14-6.27 14-14 14-14-6.27-14-14z" fill="#e52421" /><path d="m20.8 21c-0.111-0.15-0.205-0.312-0.28-0.483l-1.05-2.43c-0.107-0.243-0.347-0.4-0.612-0.4h-6.67c-0.265 2.1e-4 -0.505 0.157-0.612 0.4l-1.05 2.43c-0.0748 0.171-0.169 0.333-0.28 0.483l-0.16 0.213c-0.104 0.138-0.161 0.307-0.161 0.48v1.73c0 0.368 0.299 0.667 0.667 0.667h9.87c0.368 0 0.667-0.299 0.667-0.667v-1.73c-2.9e-4 -0.173-0.0564-0.341-0.16-0.48l-0.169-0.213zm-9.62-0.374 0.917-2.11c0.0424-0.0975 0.139-0.16 0.245-0.16h6.35c0.106-1.5e-4 0.202 0.0627 0.245 0.16l0.917 2.11h-8.67zm7.67 3.74h1.6v1.47c-5.5e-4 0.221-0.18 0.4-0.401 0.4h-0.801c-0.221 0-0.4-0.179-0.401-0.4l3e-3 -1.47zm-8.27 0h1.6v1.47c-5.5e-4 0.221-0.179 0.399-0.4 0.4h-0.801c-0.221-5.5e-4 -0.399-0.179-0.4-0.4l1e-3 -1.47zm23.3-3.15-0.159-0.213c-0.111-0.15-0.206-0.312-0.281-0.483l-1.05-2.43c-0.106-0.243-0.346-0.4-0.611-0.4h-6.67c-0.265 9e-5 -0.505 0.157-0.611 0.4l-1.06 2.43c-0.0749 0.171-0.169 0.333-0.28 0.483l-0.161 0.213c-0.103 0.139-0.159 0.307-0.159 0.48v1.73c-5.5e-4 0.368 0.297 0.666 0.665 0.667h2e-3 9.87c0.368 0 0.667-0.299 0.667-0.667v-1.73c0-0.173-0.0565-0.342-0.161-0.48h-1e-3zm-9.78-0.587 0.917-2.11c0.043-0.097 0.139-0.16 0.245-0.16h6.35c0.106-1e-5 0.202 0.0628 0.244 0.16l0.918 2.11h-8.67zm-0.6 3.74h1.6v1.47c-5.5e-4 0.221-0.18 0.4-0.401 0.4h-0.8c-0.221-5.5e-4 -0.399-0.179-0.4-0.4l1e-3 -1.47zm8.27 0h1.6v1.47c-5.5e-4 0.221-0.179 0.399-0.4 0.4h-0.801c-0.221 0-0.4-0.179-0.4-0.4l1e-3 -1.47z" fill="#010101" /><line x1="13.3" x2="30.5" y1="6.65" y2="37.1" fill="none" stroke="#e52421" stroke-miterlimit="10" stroke-width="4px" /></svg>