<svg xmlns="http://www.w3.org/2000/svg" viewBox="0 0 44 44"><g id="d0_t5_cc-esp_1p0_2p1014_1s1"><polygon id="Hintergrund" points="16.692 22 4.181 15.078 2.228 11.125 6.569 10.517 21.985 19.073 37.432 10.517 41.772 11.125 39.818 15.078 27.308 22 39.818 28.922 41.772 32.876 37.432 33.483 22.016 24.927 6.569 33.483 2.228 32.876 4.181 28.922 16.692 22" fill="#010101" fill-rule="evenodd"/><path id="Rahmen" d="M6.8399,33.855a.53866.53866,0,0,1-.07911-.00586l-4.26367-.5957a.57422.57422,0,0,1-.43554-.82226l1.91894-3.88477a.5708.5708,0,0,1,.23731-.24805l11.38183-6.29785L4.21783,15.70169a.57078.57078,0,0,1-.23731-.248L2.06158,11.57083a.57439.57439,0,0,1,.43457-.82226l4.26367-.59766a.57125.57125,0,0,1,.3584.06641l14.86621,8.251,14.89746-8.251a.57619.57619,0,0,1,.3584-.06641l4.26367.59766a.57439.57439,0,0,1,.43457.82226l-1.91992,3.88282a.5741.5741,0,0,1-.23633.248L28.40044,22.00052,39.7813,28.29837a.5708.5708,0,0,1,.23731.24805l1.91992,3.88477a.57422.57422,0,0,1-.43555.82226l-4.26367.5957a.56909.56909,0,0,1-.35742-.0664l-14.86621-8.251-14.89746,8.251A.58242.58242,0,0,1,6.8399,33.855ZM3.44243,32.22708l3.28711.459,15.00782-8.3125a.5755.5755,0,0,1,.55664,0l14.97656,8.3125,3.28711-.459-1.48828-3.01171-12.13184-6.7129a.57324.57324,0,0,1-.001-1.0039L39.06939,14.7847l1.48828-3.00976L37.27056,11.314,22.26275,19.6265a.5755.5755,0,0,1-.55664,0L6.72954,11.314l-3.28711.46094L4.92974,14.7847l12.13281,6.71387a.57278.57278,0,0,1,0,1.0039L4.92974,29.21537Z" fill="#00f300"/></g></svg>