<svg xmlns="http://www.w3.org/2000/svg" viewBox="0 0 65 56"><defs><style>.cls-1,.cls-2{fill:#fff;}.cls-1{fill-rule:evenodd;}</style></defs><g id="E100_Bremse"><g id="V1"><path class="cls-1" d="M32.50052,41.42312A2.92637,2.92637,0,1,1,35.56466,38.5,2.99764,2.99764,0,0,1,32.50052,41.42312Z"/><path class="cls-1" d="M32.5,33.33915a3.03079,3.03079,0,0,1-3.1108-2.68981V17.35066a3.14375,3.14375,0,0,1,6.2216,0V30.64934A3.03151,3.03151,0,0,1,32.5,33.33915Z"/><path class="cls-2" d="M15.51583,27.99691A16.98428,16.98428,0,1,0,32.4984,11.00979,16.98585,16.98585,0,0,0,15.51583,27.99691Zm-3.23594,0A20.22022,20.22022,0,1,1,32.4984,48.22022,20.2171,20.2171,0,0,1,12.27989,27.99691Z"/><g id="Versuch_3"><path class="cls-2" d="M52.68149,7.89705,49.012,11.55594a23.27579,23.27579,0,0,1-.01981,32.90881l3.66952,3.65889a28.45123,28.45123,0,0,0,.01981-40.22659Z"/><path class="cls-2" d="M12.3894,48.17421,16.04974,44.506a23.27666,23.27666,0,0,1-.02069-32.99229L12.36876,7.84554a28.45238,28.45238,0,0,0,.02064,40.32867Z"/></g></g></g></svg>