<svg id="E110_EPS" xmlns="http://www.w3.org/2000/svg" viewBox="0 0 65 56"><defs><style>.cls-1,.cls-2{fill:#fff;}.cls-1{fill-rule:evenodd;}</style></defs><path class="cls-1" d="M53,36.17855a2.80556,2.80556,0,0,1-2.9439-2.64031V13.46176a2.96135,2.96135,0,0,1,5.8878,0V33.53824A2.80556,2.80556,0,0,1,53,36.17855Z"/><circle class="cls-2" cx="53" cy="43" r="3.5046"/><path class="cls-1" d="M27.60556,46.4977a18.5,18.5,0,1,1,18.4867-18.4972A18.50991,18.50991,0,0,1,27.60556,46.4977Zm.015-33.8853a15.42959,15.42959,0,0,0-14.0265,9.0439A.94843.94843,0,0,0,14.54986,23h26.105a.9439.9439,0,0,0,.9528-1.3437A15.37282,15.37282,0,0,0,27.62056,12.6124Zm-.0271,30.7764A15.35648,15.35648,0,0,0,36.502,40.539a.65586.65586,0,0,0,.1207-.1086c.4284-.3674.5488-.8857-.5429-1.9401l-2.482-2.1751a10.11137,10.11137,0,0,1-11.9938,0l-2.4789,2.1751c-1.0857,1.0544-.9592,1.5727-.546,1.9401a.86828.86828,0,0,0,.1265.1086A15.30652,15.30652,0,0,0,27.59346,43.3888Zm0-8.1459a5.28432,5.28432,0,1,0-5.0939-5.284A5.21168,5.21168,0,0,0,27.59346,35.2429Zm10.1601-8.0857.0062.9521a10.03994,10.03994,0,0,1-1.2427,4.874l3.2209,2.826c.5551.4155,1.164.0539,1.5353-.7533l.0633-.1386a15.29007,15.29007,0,0,0,1.6345-6.5854c-.0123-1.193-.5973-1.1627-1.2607-1.1627Zm-20.3024,0-3.9538.0121c-.6664,0-1.2485-.0303-1.2665,1.1627a15.292,15.292,0,0,0,1.6405,6.5854l.0633.1386c.3771.8072.9741,1.1688,1.532.7533l3.2242-2.826a10.07319,10.07319,0,0,1-1.2458-4.874Z"/></svg>