<svg id="E11A_GRA" xmlns="http://www.w3.org/2000/svg" viewBox="0 0 65 56"><defs><style>.cls-1{fill:#fff;fill-rule:evenodd;}</style></defs><g id="E11A_GRA-2" data-name="E11A GRA"><path class="cls-1" d="M32.28626,34.11491a2.46756,2.46756,0,0,1-.61321-2.45283L26.07056,26.0532l-.817-2.45281,2.45283.81474,5.60449,5.60472a2.46147,2.46147,0,1,1-1.02465,4.09506ZM12.67881,17.94453l1.7474-1.74544L10.99787,12.7686l3.42834-3.42609,3.4261,3.42609,1.74741-1.74519v6.92114ZM25.35656,42.704l-3.66408,3.65352A18.66442,18.66442,0,1,1,46.392,46.349l-3.64718-3.65359,1.63807-1.638L46.392,43.06422a16.2838,16.2838,0,0,0,3.95345-9.54544H47.50028V31.20322h2.84516A16.26648,16.26648,0,0,0,46.394,21.64945L44.3765,23.669l-1.64025-1.638,2.01957-2.01968a16.26238,16.26238,0,0,0-9.55817-3.9666v2.86884H32.88212v-2.8688A16.26253,16.26253,0,0,0,23.3154,20.007l2.0348,2.03262-1.64027,1.63807-2.0304-2.03261a16.25457,16.25457,0,0,0-3.95588,9.5711h2.87114v2.31561H17.72365a16.2929,16.2929,0,0,0,3.97519,9.55377l2.02187-2.01963Z"/></g></svg>