<svg xmlns="http://www.w3.org/2000/svg" viewBox="0 0 65 56"><defs><style>.cls-1,.cls-2{fill:#fff;}.cls-2{fill-rule:evenodd;}</style></defs><g id="E11B_ACC"><g id="E11B_ACC-2" data-name="E11B ACC"><polygon class="cls-1" points="56.7 22.946 53.298 19.543 49.961 22.886 48.23 21.152 48.23 28 55.09 28 53.358 26.288 56.7 22.946"/><path class="cls-2" d="M27.03859,37.63721l4.24376,4.32329.04244.0439-.01854.05759a2.63021,2.63021,0,0,0-.12784.79927,2.78325,2.78325,0,0,0,2.753,2.80477h.02586a2.778,2.778,0,0,0,.02308-5.55581l-.00356,0H33.934a2.76713,2.76713,0,0,0-.7817.11612l-.05758.01757-.042-.04294-4.234-4.3125L26.1754,34.971Z"/><path class="cls-2" d="M33.05981,16.453h2.1168l.37426-1.987H32.4124c-.84379-1.34285-2.344-3.41215-3.709-3.65332a71.52882,71.52882,0,0,0-7.55793-.26736,66.28853,66.28853,0,0,0-7.70286.30547,10.07694,10.07694,0,0,0-3.53109,3.61525H6.7l.37426,1.987H9.23v.09857L6.84249,18.073v10.1792a1.85322,1.85322,0,0,0,1.71839,1.97888q.08437.00594.169.00418h3.82021a1.98788,1.98788,0,0,0,1.88694-1.98306v-.2996H18.781l2.36354-1.9362H12.573l.00389,2.2036c-.00926.02635-.05366.07515-.02683.07807l-3.83332.05759a.34062.34062,0,0,1-.00976-.10344V22.268h4.98538V20.27612H8.707V19.15626l1.51363-.96488h21.701l1.65978.97365-.00073,1.11108H28.50907V22.268h6.13958l.79768.00055V18.073l-2.38664-1.52095ZM13.90072,12.72113a61.20968,61.20968,0,0,1,7.24467-.24008,61.2328,61.2328,0,0,1,7.24465.24008,9.08108,9.08108,0,0,1,2.80574,3.37128v.25186H11.09446v-.23575a12.09407,12.09407,0,0,1,2.80629-3.38739Z"/><path class="cls-1" d="M23.39929,30.81785l.25081-.21183a15.841,15.841,0,0,1,8.949-3.71429l.325-.02827v3.565c.34687-.02635.6997-.041,1.052-.041.3499,0,.69678.01464,1.03936.041v-3.565l.325.02827a15.8739,15.8739,0,0,1,8.9589,3.71429l.24886.20889L42.0738,33.31417a14.82659,14.82659,0,0,1,1.48011,1.48265l2.46962-2.50357.21128.25081a15.92844,15.92844,0,0,1,3.71038,8.9988l.02736.325H46.56992c.02344.31522.03514.646.03514,1.00221,0,.35327-.01364.7076-.04048,1.0569h5.489c.02342-.35035.042-.7016.042-1.0569a18.04789,18.04789,0,0,0-4.629-12.06345l.00567.00124a18.02423,18.02423,0,0,0-25.44352-1.5406q-.0585.05181-.11654.10413l-.00568-.00127A18.07862,18.07862,0,0,0,15.84052,42.87c0,.35137.01811.6998.041,1.0569h5.49681c-.02535-.3425-.03806-.69093-.03806-1.0569,0-.35327.01271-.70061.03806-1.03633l-3.41027.00481.02781-.32591a15.89886,15.89886,0,0,1,3.71132-8.96869l.20935-.24787,2.50957,2.44856a14.25916,14.25916,0,0,1,1.48049-1.48049l-1.35595-1.32063Z"/></g></g></svg>