<?xml version="1.0" encoding="UTF-8"?><svg id="a" xmlns="http://www.w3.org/2000/svg" viewBox="0 0 68 56"><defs><style>.b{fill:#fff;fill-rule:evenodd;}</style></defs><path class="b" d="M24.1455,17.88361c.40936,.16522,.83545,.20471,1.32617,.06274l.53473-.24634c.32788-.21729,.58466-.52637,.74127-.89618,.2027-.49072,.20062-1.02948-.00189-1.51819-.20471-.49292-.58679-.87512-1.07764-1.0777-.99225-.4093-2.18896,.0835-2.60236,1.07556-.08154,.21735-.03351,.43652-.03351,.43652l-3.09302,1.30109-1.47681,1.69794,2.289,.1651,2.89502-1.30115c.17108,.1377,.33618,.23584,.49902,.3006Zm-18.08423,2.8877l-4.25061,1.79773,1.84473,4.32452,4.2406-1.79773,.93365,2.19897,2.51642-6.21228-6.22058-2.5144,.93579,2.20319Zm13.33832-.18176l-.14642-.17761-1.86841,1.76788c-1.16516-1.44531-1.8775-3.16821-2.07581-5.01038l2.24243-.03339-.02094-.22565c-.02295-.26099-.03955-.5304-.03955-.80829,0-.2735,.0166-.5387,.03955-.8103l.0188-.22559-2.24249-.01672c.04382-.35907,.11279-.70789,.19-1.0567l.03552-.23395c.33429-1.35333,.97119-2.63995,1.85046-3.73431l1.75995,1.67151,.18988,.23175,.1319-.25897c.34021-.41559,.72443-.79767,1.14038-1.13397l.18152-.14624-1.90399-1.8678c1.44928-1.16748,3.17682-1.88391,5.01868-2.08429l.02502,2.18707,.22778-.02087c.53473-.05011,1.07959-.05011,1.61029,0l.22552,.02087,.03131-2.18707c1.83789,.20038,3.56091,.91681,5.01447,2.08429l-1.83771,1.89783,.17963,.14618c.41559,.33838,.79559,.71838,1.1297,1.10272l.12762,.26117,1.90247-1.90417c.87939,1.09869,1.51831,2.38501,1.85059,3.73431l.0354,.21295c.07721,.35504,.14624,.71222,.19012,1.0777l-2.151,.01672,.02081,.22559c.02301,.27161,.03979,.5368,.03979,.8103,0,.27789-.01678,.5473-.03979,.80829l-.02081,.22565,2.1488,.03339c-.19849,1.84216-.91278,3.56506-2.07611,5.01038l-1.86871-1.86346-.14606,.17969c-.33221,.40717-.71429,.78931-1.13409,1.13391l-.17975,.1463,3.33704,3.41528,.15039-.12762c.4386-.37366,.85229-.78717,1.22797-1.22577,1.85474-2.14923,2.8761-4.89563,2.8761-7.73602,0-.44476-.06689-1.30731-.06689-1.31781-.0188-.14819-.05231-.29846-.0835-.44696l-.0564-.28809c-.03351-.2005-.06696-.39075-.11066-.5849-.16724-.73096-.36554-1.36792-.66412-2.11761-.24463-.5495-.55792-1.11133-.98792-1.76923l-.21301-.28796c-.33826-.48254-.71021-.9295-1.20105-1.44324l-.24023-.25067c-.57208-.54944-1.07751-.9649-1.59967-1.31781-.52222-.35522-1.12793-.68311-1.84192-1.00049-.10028-.0459-.20898-.08569-.48889-.1922-.50342-.19421-1.01923-.35291-1.62274-.49713-.16907-.04169-.33215-.08136-.50336-.11481-1.55402-.29016-2.76929-.29016-4.31494,0-.17969,.03552-.35077,.07721-.5744,.13153-.53448,.1275-1.04626,.28619-1.71259,.54297-.11066,.03979-.22131,.08154-.32581,.12964-.72058,.31738-1.31989,.64526-1.85449,1.00891-.51611,.34668-1.03387,.77478-1.5874,1.30939l-.33209,.3446c-.40521,.4198-.77478,.86676-1.11517,1.34711l-.211,.29016c-.4259,.64343-.73932,1.2052-1.04211,1.94043-.24011,.57208-.43872,1.20917-.60559,1.94641-.03772,.15869-.06482,.31757-.11304,.5849l-.06268,.29858c-.0271,.1441-.05841,.29016-.07928,.4491,0,0-.06464,.86041-.06464,1.30518,0,2.84039,1.02332,5.58899,2.87793,7.73602,.37592,.4386,.76007,.84436,1.19208,1.21082l.1474,.125,3.37543-3.30212-.17932-.1463c-.40747-.33411-.79181-.71619-1.13617-1.13599Zm9.6767,23.83148c.83118,1.21631,2.20709,1.9411,3.68146,1.9411,.58142,0,1.15704-.11469,1.69952-.3399,1.8017-.74927,2.90961-2.59216,2.73352-4.51697l14.48456-6.01984c.83533,1.01141,2.10712,1.61353,3.42963,1.61353,.5835,0,1.159-.11462,1.7016-.34003,1.80792-.74939,2.91382-2.6004,2.72742-4.53729l.76978-.3114c1.09973-.54871,1.82648-2.30139,2.03333-3.69379,.1391-.9458,.06958-1.78949-.20483-2.37909-.12878-.27869-.29681-.68823-.48108-1.1427-.39923-.987-.8559-2.10492-1.2265-2.6413-.66351-.94189-2.51019-1.53583-3.94568-1.86761-.06354-.01208-1.56641-.36438-2.7132-.40521l-.33185-.00818-.22705,.01221c-2.26263,.3031-14.53772,4.28357-17.26721,6.17139-.33582,.2785-2.94861,5.87262-2.94861,5.87262-1.61963,.91309-7.06201,4.48419-9.02563,6.37994-.17206,.164-.29688,.3728-.35217,.58173-.45251,1.68298-.0575,3.50952,.71661,5.36469,.13507,.31934,.36859,.56921,.67377,.72064,.20453,.10645,.42981,.15979,.66724,.15979,1.07721-.01239,2.5495-.29901,3.4054-.61432Zm-3.22931-4.48828c.0061-.13501,.07599-.26599,.18219-.36444,1.68951-1.5235,6.52179-4.74219,8.14563-5.64319l.4093-.22931,.44427-.2785s2.45929-5.4137,2.68042-5.77417c2.45697-1.56848,13.71887-5.19672,15.81335-5.48328,.37482-.04932,4.45374,.58136,4.93481,1.26935,.07971,.10651,.15973,.28271,.25201,.4751,.13489,.28662,.27832,.61835,.4176,.95001,.3194,.7699,.6225,1.54803,.83527,2.00262,.0329,.06537,.05334,.15558,.06555,.25787,.0083,.05322,.01227,.11072,.01227,.1803,0,.1474-.01642,.3111-.04492,.4873l-.00629,.04913-.00806,.04095c-.14331,.7821-.51404,1.69135-.73523,1.87561l-.42987,.17615-.99921,.40948-.97473,.4137,.41779,1.0033c.49341,1.19147-.0697,2.5553-1.2572,3.04669-1.19586,.49548-2.56158-.06958-3.05896-1.2572l-.41174-1.00739-18.03296,7.49011,.41357,.98688c.49133,1.19159-.07379,2.5553-1.26361,3.0509-1.19135,.49127-2.55316-.06561-3.04266-1.25323l-.44421-.98688-.18018,.06561c-.52002,.18408-1.06891,.40527-1.75684,.56909-.1637,.04498-.3399,.08203-.52618,.11462-.48523,.09015-.83331,.15558-1.32269,.19666-.04114-.1189-.1004-.28656-.16589-.49146-.35834-1.20813-.41364-1.47021-.36261-2.34241Zm38.80408-6.33112L25.66088,49.7735l.98071,2.37091,38.99219-16.17578-.98273-2.367Z"/></svg>