<svg xmlns="http://www.w3.org/2000/svg" viewBox="0 0 65 56"><defs><style>.cls-1{fill:#fff;}.cls-1,.cls-2,.cls-3{fill-rule:evenodd;}.cls-2,.cls-3{fill:none;}.cls-3{stroke:#fff;stroke-miterlimit:10;stroke-width:2.93536px;}</style></defs><g id="E126_hint"><path class="cls-1" d="M32.42926,17.58042a3.18211,3.18211,0,0,0-2.87587,3.42V32.73722A3.18074,3.18074,0,0,0,32.42926,36.153,3.18217,3.18217,0,0,0,35.309,32.73722V21.0004A3.18353,3.18353,0,0,0,32.42926,17.58042Z"/><path class="cls-1" d="M29.66034,40.63313a2.88,2.88,0,1,0,2.87772-2.9923A2.934,2.934,0,0,0,29.66034,40.63313Z"/><path class="cls-2" d="M52.554,40.03285l1.45261,2.56355.07583.12152A3.237,3.237,0,0,1,54.5,44.31417a3.28468,3.28468,0,0,1-3.23408,3.28691H13.74914A3.309,3.309,0,0,1,10.5,44.288a3.12943,3.12943,0,0,1,.47631-1.71767l18.621-32.393a3.23008,3.23008,0,0,1,2.88311-1.77843,3.28205,3.28205,0,0,1,2.864,1.7393S52.54085,40.03285,52.554,40.03285Z"/><path class="cls-3" d="M54.0824,42.71792a3.21668,3.21668,0,0,1-2.81648,4.80166H13.74914A3.23882,3.23882,0,0,1,10.5,44.288a3.12943,3.12943,0,0,1,.47631-1.71767l18.621-32.393a3.23008,3.23008,0,0,1,2.88311-1.77843,3.28205,3.28205,0,0,1,2.864,1.7393Z"/></g></svg>