<svg id="E145_ready" xmlns="http://www.w3.org/2000/svg" viewBox="0 0 130 56"><defs><style>.cls-1{fill:#fff;}</style></defs><path class="cls-1" d="M5,17h9.19423c1.384.02223,2.46.04919,3.22962.05985q1.15287.01689,1.81226.033.65889.0169,1.07094.06619.4116.049.97206.11517a4.605,4.605,0,0,1,3.79,2.43841,6.59623,6.59623,0,0,1,.52707,1.6478A12.87851,12.87851,0,0,1,25.761,23.634a16.34129,16.34129,0,0,1-.16486,2.53769,4.561,4.561,0,0,1-.56,1.664A2.71862,2.71862,0,0,1,23.932,28.8409a7.284,7.284,0,0,1-1.79566.59306,5.72875,5.72875,0,0,1,1.30148.4119,3.17043,3.17043,0,0,1,.93928.70853,3.25172,3.25172,0,0,1,.52717.67553,2.82839,2.82839,0,0,1,.29643.90628,10.90208,10.90208,0,0,1,.13207,1.43356q.03243.87344.03279,2.29034v3.13055h-2.933V35.46138q0-.5931-.0164-.95557-.01691-.36211-.04949-.57656c-.02193-.14263-.04426-.32389-.06578-.544a2.53211,2.53211,0,0,0-2.33964-2.43851q-.39575-.06547-.67563-.09887-.28018-.03214-.8239-.04949-.54348-.016-1.51594-.03289-.97211-.01615-2.75153-.0165H8V39H5Zm9.19423,10.72339q1.74642,0,2.801-.0164,1.05435-.01614,1.71369-.033a10.35512,10.35512,0,0,0,1.03784-.066,5.52536,5.52536,0,0,0,.74153-.14837A2.67643,2.67643,0,0,0,22.268,26.25714a5.16183,5.16183,0,0,0,.49428-2.656,5.99874,5.99874,0,0,0-.28024-1.93438c-.23567-.71969-.69716-.99369-1.483-1.26557a7.437,7.437,0,0,0-1.40026-.21686q-.82425-.08208-2.12548-.11538-1.30209-.03213-3.279-.033H8.02448v7.6874Z"/><path class="cls-1" d="M115,30v9h-3V30L101.87376,17.01046h3.65339l7.94339,9.96708,7.93594-9.96708h3.654Z"/><path class="cls-1" d="M30,17H49v2.64863H33v6.61465H48V29H33v7.35137H49V39H30Z"/><path class="cls-1" d="M70.9595,34.42011H57.1269l-1.99563,4.57054H51.613l9.87414-21.98019h5.05908L76.387,38.99065H72.93532ZM64.59974,19.58084H63.56522L58.30838,31.698H69.8086Z"/><path class="cls-1" d="M79,17l10.37657.01046q2.53674,0,4.20128.08238a18.7979,18.7979,0,0,1,2.78463.31292,5.8993,5.8993,0,0,1,1.81256.64285,6.21755,6.21755,0,0,1,1.31828,1.07084,6.56126,6.56126,0,0,1,.906,1.31818,6.78614,6.78614,0,0,1,.59346,1.76287,18.84028,18.84028,0,0,1,.31293,2.43882q.09867,1.40106.09887,3.34479a24.50082,24.50082,0,0,1-.56016,5.84938,6.80556,6.80556,0,0,1-1.77977,3.34469,5.48754,5.48754,0,0,1-1.2687.90608,6.43139,6.43139,0,0,1-1.73.544,20.27307,20.27307,0,0,1-2.60327.27993q-1.54908.08284-3.85567.08249L79,39ZM89.23173,35.965h2.4717q.92262,0,1.46655-.03289a6.64052,6.64052,0,0,0,.87308-.09887q.32937-.06549.79081-.16486a3.22323,3.22323,0,0,0,1.516-.77452,4.38036,4.38036,0,0,0,1.03815-1.56512,9.4816,9.4816,0,0,0,.59315-2.45521,21.37755,21.37755,0,0,0,.18116-3.0213c0-3.42717-.43956-5.24567-1.31828-6.3662a3.331,3.331,0,0,0-1.40046-.972,8.63317,8.63317,0,0,0-2.35593-.4121q-.2313-.0323-.52738-.04919-.29662-.0166-.7908-.0168H82V35.965Z"/></svg>