<svg id="E146_BRAKE" xmlns="http://www.w3.org/2000/svg" viewBox="0 0 100 56"><defs><style>.cls-1{fill:#fff;fill-rule:evenodd;}</style></defs><path id="Version_1" class="cls-1" d="M97,35v4H84V17s12.97823-.001,13,0v4H88v5h8v4H88v5ZM76.14081,38.99911,68,28.96317V38.99911C68.18335,38.99711,64,39,64,39V17s3.8029.001,4,0v9.972c.0126,0,7.67442-9.972,7.67442-9.972h5.17844L71.941,27.99556l9.47221,11.00355Zm-21.20533-5.057H46.68941c-.02178-.001-1.54127,5.057-1.54127,5.057H40.79936L47.86742,17.015h5.89L61.4959,38.99911H56.79073ZM50.77921,20.97339l-2.91179,9.982h5.89C53.75289,30.96436,50.77921,20.97339,50.77921,20.97339Zm-16.94478,10.037,4.95039,7.98877H33.67514L29.25989,31.896q-.21141-.34187-.38732-.59576a4.16872,4.16872,0,0,0-.34148-.43582,1.79175,1.79175,0,0,0-.34149-.29388,1.603,1.603,0,0,0-.3919-.17793,2.27038,2.27038,0,0,0-.49046-.09c-.1822-.015-.39191-.022-.63026-.022H25V39c.0149.002-4,0-4,0V17s8.0055.014,8.01925.015a11.41257,11.41257,0,0,1,3.13525.29588,6.62668,6.62668,0,0,1,2.497,1.20552,5.16747,5.16747,0,0,1,1.52637,2.04417,7.45583,7.45583,0,0,1,.52025,2.91482,6.67327,6.67327,0,0,1-.3644,2.27109,5.98335,5.98335,0,0,1-.97977,1.76828,5.68655,5.68655,0,0,1-1.429,1.25749,6.31193,6.31193,0,0,1-1.70857.7417,3.46972,3.46972,0,0,1,.89268.59876A4.25694,4.25694,0,0,1,33.83443,31.01034ZM31.95053,22.07a3.39714,3.39714,0,0,0-.87893-1.16553c-.38159-.22091-.58786-.32886-1.01643-.55777A6.74822,6.74822,0,0,0,27.84124,20H25v7l3.326.019a5.71108,5.71108,0,0,0,1.618-.21191,3.22466,3.22466,0,0,0,1.22729-.65274,2.86643,2.86643,0,0,0,.77464-1.10255,4.1655,4.1655,0,0,0,.27044-1.57337A3.44408,3.44408,0,0,0,31.95053,22.07ZM17.55886,36.13227a4.85521,4.85521,0,0,1-1.03362,1.19851,5.92323,5.92323,0,0,1-1.48856.90064,8.85286,8.85286,0,0,1-1.97557.56977,14.29046,14.29046,0,0,1-2.48895.19792C10.52976,38.99811,3,39,3,39V17H9.51218a15.48173,15.48173,0,0,1,3.61768.30288,6.31326,6.31326,0,0,1,2.31248,1.13154A4.59507,4.59507,0,0,1,16.814,20.26668a6.40881,6.40881,0,0,1,.45264,2.479,6.8978,6.8978,0,0,1-.17074,1.58936,5.01753,5.01753,0,0,1-.49848,1.29947,4.50089,4.50089,0,0,1-.801,1.03858,5.377,5.377,0,0,1-1.0829.80068,6.501,6.501,0,0,1,1.54241.90463,5.37942,5.37942,0,0,1,1.85411,2.78088,6.64555,6.64555,0,0,1,.24294,1.83126,7.07539,7.07539,0,0,1-.19367,1.68232A5.19272,5.19272,0,0,1,17.55886,36.13227ZM13.08059,21.80006a2.226,2.226,0,0,0-.57411-.86765,2.6305,2.6305,0,0,0-.98779-.55877A5.00846,5.00846,0,0,0,10,20H7v6H9.84679a5.24758,5.24758,0,0,0,1.59627-.23254,2.63042,2.63042,0,0,0,1.0554-.59876,2.28169,2.28169,0,0,0,.58557-.95661,4.202,4.202,0,0,0,.1822-1.28848A3.23928,3.23928,0,0,0,13.08059,21.80006Zm.93049,9.32823a2.90194,2.90194,0,0,0-.636-1.15153,2.93126,2.93126,0,0,0-1.13561-.7507,4.69514,4.69514,0,0,0-1.68566-.26789L7,29v7l3.91823-.07764a4.27176,4.27176,0,0,0,1.50345-.23491,2.57661,2.57661,0,0,0,1.01987-.66573,2.69108,2.69108,0,0,0,.581-1.04758,4.77253,4.77253,0,0,0,.18564-1.37844A5.17958,5.17958,0,0,0,14.01108,31.12829Z"/></svg>