<svg xmlns="http://www.w3.org/2000/svg" viewBox="0 0 65 56"><defs><style>.cls-1,.cls-2{fill:#fff;}.cls-1{stroke:#fff;stroke-miterlimit:10;stroke-width:2px;fill-rule:evenodd;}</style></defs><g id="Ebene_1" data-name="Ebene 1"><g id="V1"><path class="cls-1" d="M9.08178,46.4518l-.5591-.8291,41.5422-28.5422.5592.829Z"/><path class="cls-2" d="M32.773,25.62457c1.4754-3.35339,3.5799-8.1369,3.5799-8.1369H31.13177s-1.61431,6.64118-2.70355,11.12213Z"/><path class="cls-2" d="M39.72412,28.7356l-5.999,4.1217c-.67957,1.79053-1.38068,3.6377-1.38068,3.6377l-2-1,2,7,5-4-2-1S37.94708,32.28979,39.72412,28.7356Z"/><path class="cls-2" d="M17.7865,35.92151l14.53723-24.3219A1.93682,1.93682,0,0,1,34,10.48877a1.96806,1.96806,0,0,1,1.70312,1.16016l5.06922,8.47949,1.65045-1.134-4.97552-8.32257a3.81082,3.81082,0,0,0-6.86768-.04932L13.83429,38.637Z"/><path class="cls-2" d="M55.8623,41.47461,45.76508,24.585l-1.65058,1.134L54.13184,42.47559a2.07922,2.07922,0,0,1,.26269,1.02343,2.10323,2.10323,0,0,1-2.13281,2.0127H15.73877a2.15528,2.15528,0,0,1-.37744-.03717l-1.932,1.32739a4.1488,4.1488,0,0,0,2.30945.70978H52.26172a4.03519,4.03519,0,0,0,3.60058-6.03711Z"/></g></g></svg>