<svg xmlns="http://www.w3.org/2000/svg" viewBox="0 0 65 56"><defs><style>.cls-1,.cls-2{fill:#fff;}.cls-1{opacity:0.5;}.cls-3{fill:none;stroke:#fff;stroke-miterlimit:10;stroke-width:3px;}</style></defs><g id="E156-001_status_charging"><g id="Stecker"><path class="cls-1" d="M45.4979,15.58811V32.52H37.05076c-5.50482,0-10.00876-2.23791-10.00876-9.00154,0-6.20938,6.07565-7.93034,10.00876-7.93034Z"/><path class="cls-2" d="M55.5,21H46V18.01845h9.5a1.50021,1.50021,0,0,1,1.5,1.5V19.518A1.485,1.485,0,0,1,55.5,21Z"/><path class="cls-2" d="M55.5,30H46V27.01845h9.5a1.50021,1.50021,0,0,1,1.5,1.5v-.00109A1.4855,1.4855,0,0,1,55.5,30Z"/><path class="cls-2" d="M47,24.01845V14H37.09041C30.18239,14,25.5,17.75561,25.5,24.01846,25.5,30.26746,30.092,34,37,34H47Zm-10,7c-3.70892,0-8.5-1.27832-8.5-7,0-5.72247,4.79108-7,8.5-7h7v14Z"/><path class="cls-3" d="M25.84276,23.51845c-4.58271,0-8.80874.12256-8.80874,3.84715s4.76189,4.14438,4.76189,7.869a5.111,5.111,0,0,1-5.14633,5.33884H7"/></g></g></svg>