<svg xmlns="http://www.w3.org/2000/svg" viewBox="0 0 65 56"><defs><style>.cls-1{fill:#fff;fill-rule:evenodd;}</style></defs><g id="E158_ESP_off"><path class="cls-1" d="M27.93,31.59793a5.878,5.878,0,0,1-.76859,1.40933,4.47824,4.47824,0,0,1-1.14086,1.0718,5.36164,5.36164,0,0,1-1.55321.68091,8.41973,8.41973,0,0,1-3.9819.0025,5.2314,5.2314,0,0,1-1.53807-.67925A4.47966,4.47966,0,0,1,17.819,33.01643a5.80436,5.80436,0,0,1-.7588-1.40017,8.01613,8.01613,0,0,1-.4266-1.68353A13.16667,13.16667,0,0,1,16.5,28.01834a12.98831,12.98831,0,0,1,.13626-1.92107,8.20725,8.20725,0,0,1,.42928-1.69353,5.65571,5.65571,0,0,1,.76413-1.40934,4.526,4.526,0,0,1,1.13819-1.07179A5.28587,5.28587,0,0,1,20.51574,21.24a8.41964,8.41964,0,0,1,3.98188-.0025,5.26317,5.26317,0,0,1,1.54342.67841,4.51365,4.51365,0,0,1,1.13285,1.0668,5.70747,5.70747,0,0,1,.76146,1.40266,8.11932,8.11932,0,0,1,.42928,1.68437A12.86534,12.86534,0,0,1,28.5,27.98166a13.04184,13.04184,0,0,1-.13537,1.92357A7.942,7.942,0,0,1,27.93,31.59793Zm-1.49532-5.124a7.12835,7.12835,0,0,0-.29123-1.33932,4.86025,4.86025,0,0,0-.51477-1.11013,3.21056,3.21056,0,0,0-1.79189-1.37517,4.82058,4.82058,0,0,0-2.66291,0,3.23465,3.23465,0,0,0-1.799,1.37517,4.79106,4.79106,0,0,0-.51744,1.11013,7.19839,7.19839,0,0,0-.29212,1.33932,13.0108,13.0108,0,0,0,0,3.05454,7.20209,7.20209,0,0,0,.29212,1.341,4.79125,4.79125,0,0,0,.51744,1.11013,3.23469,3.23469,0,0,0,1.799,1.37516,4.82984,4.82984,0,0,0,2.66558,0,3.21663,3.21663,0,0,0,1.78922-1.37516,4.86045,4.86045,0,0,0,.51477-1.11013,7.13217,7.13217,0,0,0,.29123-1.341,12.88421,12.88421,0,0,0,0-3.05454Z"/><path class="cls-1" d="M32.5,27h5v1.5h-5V35h-2V21h8v1.5h-6Z"/><path class="cls-1" d="M42.5,27h5v1.5h-5V35h-2V21h8v1.5h-6Z"/></g></svg>