<svg xmlns="http://www.w3.org/2000/svg" viewBox="0 0 65 56"><defs><style>.cls-1{fill:#fff;}</style></defs><g id="Ebene_1" data-name="Ebene 1"><path class="cls-1" d="M15.51583,27.99691A16.98428,16.98428,0,1,0,32.4984,11.00979,16.98585,16.98585,0,0,0,15.51583,27.99691Zm-3.23594,0A20.22022,20.22022,0,1,1,32.4984,48.22022,20.2171,20.2171,0,0,1,12.27989,27.99691Z"/><path class="cls-1" d="M52.68149,7.89705,49.012,11.55594a23.27579,23.27579,0,0,1-.01981,32.90881l3.66952,3.65889a28.45123,28.45123,0,0,0,.01981-40.22659Z"/><path class="cls-1" d="M12.3894,48.17421,16.04974,44.506a23.27666,23.27666,0,0,1-.02069-32.99229L12.36876,7.84554a28.45238,28.45238,0,0,0,.02064,40.32867Z"/><path class="cls-1" d="M36.15972,16.03019V16H28.94623v.00371h-2.9235V40h3.457V29.39136h6.46752v.00033l.00591-.00033h.20656v-.01144a6.44618,6.44618,0,0,0,5.90278-6.67465A6.44659,6.44659,0,0,0,36.15972,16.03019Zm-.21247,10.68292v.00117H29.47973V18.67776h6.46752V18.697c1.88014,0,3.23708,1.79792,3.23708,4.00827C39.18433,24.91518,37.82739,26.71311,35.94725,26.71311Z"/></g></svg>