<svg id="E162_motor" xmlns="http://www.w3.org/2000/svg" viewBox="0 0 65 56"><defs><style>.cls-1,.cls-2{fill:#fff;}.cls-1{fill-rule:evenodd;opacity:0.99;}</style></defs><path class="cls-1" d="M18.39492,34.8449c0,.64671.18033.79835.18033.79835l6.42617,4.69793a2.94022,2.94022,0,0,0,1.86783.55339H52.14179l1.04566-1.41265V36H56v4.78314l-2.81913,2.90471H25.87311A3.74241,3.74241,0,0,1,23.259,42.59893l-7.24214-5.21226a1.48053,1.48053,0,0,1-.42221-1.19611l-.02071-5.63971h-2.821l-.0442,6.47391a1.03741,1.03741,0,0,1-.22756.65448.99558.99558,0,0,1-.59429.33758.97575.97575,0,0,1-.662-.13917l-.866-.5642c-.13635-.16362-.14763-.21628-.14763-.26988l.04419-7.27556c-.06676-.20687-.10438-.24542-.14669-.27458l-.96009-.61686C9.01505,28.713,9,28.65559,9,28.602V21.49586a1.321,1.321,0,0,1,.158-.62721,1.28643,1.28643,0,0,1,.43161-.46735L11.269,19.318a.9587.9587,0,0,1,1.25629.19747,1.13076,1.13076,0,0,1,.22756.69162v6.58237h2.821V21.1a1.87892,1.87892,0,0,1,.42221-1.36819,1.78269,1.78269,0,0,1,1.32682-.465h4.535v-2.821H14.99162a.54823.54823,0,0,1-.23133-.21675.72532.72532,0,0,1-.063-.347l.16926-.98975a1.31536,1.31536,0,0,1,.40247-.83878,1.24457,1.24457,0,0,1,.84724-.34135H31.40993a1.24351,1.24351,0,0,1,.84536.34135,1.31431,1.31431,0,0,1,.40153.83878l.17208.98975a.66623.66623,0,0,1-.06677.347.53054.53054,0,0,1-.2285.21675,2.20915,2.20915,0,0,1-.33194,0H25.61932v2.821H29v2.81679H18.64035a.32906.32906,0,0,0-.22474.09591c-.0583.0583-.02069.14481-.02069.22662Z"/><polygon class="cls-2" points="29.7 26 36.7 26 33.681 20 29.7 26"/><path class="cls-2" d="M43.5,12.73145a11.72208,11.72208,0,0,0-8.19061,3.33526l1.76581,1.81812A9.22184,9.22184,0,1,1,34.26855,24.5c0-.0293.00416-.0575.0044-.08673l-2.53589-.02387c-.00037.03724-.00561.07325-.00561.1106A11.76855,11.76855,0,1,0,43.5,12.73145Z"/></svg>