<svg xmlns="http://www.w3.org/2000/svg" viewBox="0 0 65 56"><defs><style>.cls-1{fill:#fff;}</style></defs><g id="E164_EV-Mode"><g id="_1" data-name="1"><path class="cls-1" d="M20.09571,32.02921h9.3704v1.87653h-7.468v4.69114h6.55849v1.89787H21.99807v4.64307h7.46037V47H20.09571Z"/><path class="cls-1" d="M39.3389,47H36.40536L30.88024,32H33.308l4.58864,13.00851L42.568,32h2.33625Z"/><path class="cls-1" d="M23.73678,26.058H41.75465l.05629.12168a5.74047,5.74047,0,0,0,10.37468-.01325l.05628-.11753.13078-.00331c1.64138-.03808,3.60308-.45029,3.62708-2.19844a17.77919,17.77919,0,0,0-.82606-5.46462c-.59845-2.03041-1.95922-2.22575-3.2753-2.41447a16.80011,16.80011,0,0,1-1.68194-.30792,20.56632,20.56632,0,0,1-3.632-1.68607,24.99167,24.99167,0,0,0-5.535-2.42936c-3.14369-.71433-9.0197-.87408-12.17912-.01739-2.23733.60507-4.372,2.51545-5.93146,3.91017-.394.35426-.80289.72094-1.16792,1.01727l-.32529.2806-.06456.00827c-.0447.0058-4.646.60176-6.27746.94444-3.07333.64645-4.14275,1.36408-5.04,2.46164A4.98772,4.98772,0,0,0,9,23.64356c.00166,1.53791.80538,2.282,2.52953,2.3408l1.71007.04387.05546.11754a5.74163,5.74163,0,0,0,10.38627.03311Zm23.259,1.321a3.72207,3.72207,0,0,1-3.6635-3.39946H22.15914a3.67331,3.67331,0,0,1-7.32618,0H14.3595l-2.76625-.07119a3.31867,3.31867,0,0,1-.33192-.02566l-.18375-.02483v-.216a2.94464,2.94464,0,0,1,.59348-2.17691c.53719-.65887,1.12818-1.16958,3.86132-1.744,1.4717-.30956,5.67984-.86083,6.15495-.92291l.10347-.01738a1.81553,1.81553,0,0,0,1.09094-.54216l.20941-.1821c.37579-.30294.812-.69363,1.23414-1.07024,1.40464-1.25731,3.32827-2.979,5.08884-3.45575a29.70249,29.70249,0,0,1,11.17343.03891,24.18012,24.18012,0,0,1,5.016,2.23568,20.88884,20.88884,0,0,0,4.11958,1.87479,18.59759,18.59759,0,0,0,1.87231.34185c1.23662.178,1.36574.197,1.58674.94774a15.67934,15.67934,0,0,1,.74,4.62449l.00165.149-.14071.05132a5.49038,5.49038,0,0,1-1.77795.18044h-.04138a2.28852,2.28852,0,0,0-.23259.00414l-1.07191.00083A3.72206,3.72206,0,0,1,46.99579,27.37908Z"/></g></g></svg>