<svg xmlns="http://www.w3.org/2000/svg" viewBox="0 0 80 56"><defs><style>.cls-1,.cls-2{fill:#fff;}.cls-2{fill-rule:evenodd;}</style></defs><g id="x"><g id="_2" data-name="2"><path class="cls-1" d="M7.61345,43.12945s3.7083-6.2054,4.8524-7.9385c2.0671-3.1383,2.0671-2.5285,2.9231-3.2655a9.24051,9.24051,0,0,0,2.4347-3.8713c.334-1.3467.4759-2.6121.6765-3.2969a5.6686,5.6686,0,0,1,.5678-1.8082,2.206,2.206,0,0,0,.4093-.9771,7.94015,7.94015,0,0,1,.5512-1.5264,1.10817,1.10817,0,0,0-.1461-1.0669,1.35076,1.35076,0,0,0-.7727-.3737,1.08654,1.08654,0,0,0-.9687.6994,6.51709,6.51709,0,0,1-.6849,1.3405,4.461,4.461,0,0,0-.4594,1.0858,5.10688,5.10688,0,0,1-.6263,1.4406,1.01453,1.01453,0,0,1-.4969.566c-.1505.096-.8644-.1923-1.0399-.2173-.1754-.025-1.8916-1.3842-2.0629-1.4427-.1712-.0606.167-.1566.1377-.7308a2.98277,2.98277,0,0,0-.2756-1.0753l.7351-1.2424a4.80189,4.80189,0,0,0-1.3113-.3278,1.86543,1.86543,0,0,0-1.0523.3885,53.33445,53.33445,0,0,0-4.3513,4.9443,2.30592,2.30592,0,0,0-.2505,1.3592c.1836,1.3739.2046,3.7709.2963,4.8943a2.70756,2.70756,0,0,1-.6513,2.4282,26.004,26.004,0,0,0-1.5618,2.6914Z"/><path class="cls-1" d="M72.38655,43.12945s-3.7083-6.2054-4.8483-7.9385c-2.071-3.1383-2.071-2.5285-2.9232-3.2655a9.247,9.247,0,0,1-2.4387-3.8713c-.3299-1.3467-.4719-2.6121-.6765-3.2969a5.67688,5.67688,0,0,0-.5679-1.8082,2.3057,2.3057,0,0,1-.4092-.9771,7.681,7.681,0,0,0-.5512-1.5264,1.10711,1.10711,0,0,1,.1462-1.0669,1.34933,1.34933,0,0,1,.7723-.3737,1.08284,1.08284,0,0,1,.969.6994,6.743,6.743,0,0,0,.6848,1.3405,4.29109,4.29109,0,0,1,.4593,1.0858,5.10931,5.10931,0,0,0,.6264,1.4406,1.03039,1.03039,0,0,0,.4971.566c.1544.096.8642-.1923,1.0396-.2173.1755-.025,1.8917-1.3842,2.063-1.4427.1713-.0606-.1627-.1566-.1379-.7308a2.98277,2.98277,0,0,1,.2756-1.0753l-.7349-1.2424a4.84962,4.84962,0,0,1,1.3113-.3278,1.85231,1.85231,0,0,1,1.0524.3885,53.38185,53.38185,0,0,1,4.3512,4.9443,2.30817,2.30817,0,0,1,.2506,1.3592c-.1796,1.3739-.2044,3.7709-.2963,4.8943a2.71874,2.71874,0,0,0,.6512,2.4282,26.009,26.009,0,0,1,1.5619,2.6914Z"/><path id="Lenkrad" class="cls-2" d="M40.0123,46.5A18.5,18.5,0,1,1,58.499,28.0028,18.50991,18.50991,0,0,1,40.0123,46.5Zm.015-33.8853a15.42959,15.42959,0,0,0-14.0265,9.0439.94843.94843,0,0,0,.9558,1.3437h26.105a.9439.9439,0,0,0,.9528-1.3437A15.37282,15.37282,0,0,0,40.0273,12.6147Zm-.0271,30.7764a15.35648,15.35648,0,0,0,8.9085-2.8498.65586.65586,0,0,0,.1207-.1086c.4284-.3674.5488-.8857-.5429-1.9401l-2.482-2.1751a10.11137,10.11137,0,0,1-11.9938,0l-2.4789,2.1751c-1.0857,1.0544-.9592,1.5727-.546,1.9401a.86828.86828,0,0,0,.1265.1086A15.30652,15.30652,0,0,0,40.0002,43.3911Zm0-8.1459a5.28432,5.28432,0,1,0-5.0939-5.284A5.21168,5.21168,0,0,0,40.0002,35.2452Zm10.1601-8.0857.0062.9521a10.03994,10.03994,0,0,1-1.2427,4.874l3.2209,2.826c.5551.4155,1.164.0539,1.5353-.7533l.0633-.1386a15.29007,15.29007,0,0,0,1.6345-6.5854c-.0123-1.193-.5973-1.1627-1.2607-1.1627Zm-20.3024,0-3.9538.0121c-.6664,0-1.2485-.0303-1.2665,1.1627a15.292,15.292,0,0,0,1.6405,6.5854l.0633.1386c.3771.8072.9741,1.1688,1.532.7533l3.2242-2.826a10.07319,10.07319,0,0,1-1.2458-4.874Z"/></g></g></svg>