<svg id="E26C_LIM_" data-name="E26C_LIM!" xmlns="http://www.w3.org/2000/svg" viewBox="0 0 65 56"><defs><style>.cls-1{fill:#fff;fill-rule:evenodd;}</style></defs><path class="cls-1" d="M7,17H4.5V39H17V36.5H7ZM19.5,39H22V17H19.5ZM37.04257,29.393,28.62619,17.00184,26.5,17V39H29V22l7.227,11.00286h1.625L45,22V39h2.5V17l-2.2461.00184Z"/><path class="cls-1" d="M56.49319,14.00209c-1.4224,0-2.51314,1.00585-2.51314,2.92841V30.9694c0,1.91733,1.09075,3.01967,2.51314,3.01967a2.67584,2.67584,0,0,0,2.59009-2.75893q-.00413-.1308-.021-.26074V16.93056a2.59153,2.59153,0,0,0-2.56906-2.92847Zm0,23.00973a2.31473,2.31473,0,0,0-2.57387,2.43507,2.57152,2.57152,0,0,0,5.14288,0,2.31332,2.31332,0,0,0-2.569-2.43512Z"/></svg>