<?xml version="1.0" encoding="UTF-8"?>
<svg id="Ebene_1" data-name="Ebene 1" xmlns="http://www.w3.org/2000/svg" viewBox="0 0 55 43">
  <defs>
    <style>
      .cls-1 {
        fill: #fff;
      }

      .cls-2 {
        fill: none;
        stroke: #fff;
        stroke-miterlimit: 10;
        stroke-width: 2px;
      }
    </style>
  </defs>
  <path class="cls-1" d="M6.00077,6H48.99978c.55204,0,1.00022,.44818,1.00022,1.00022v10.99901c0,.55234-.44843,1.00077-1.00077,1.00077H6.00022c-.55204,0-1.00022-.44818-1.00022-1.00022V7.00077c0-.55234,.44843-1.00077,1.00077-1.00077Z"/>
  <g id="E2FF-001_reku_segeln" data-name="E2FF-001 reku segeln">
    <path class="cls-2" d="M4,2H51c1.65682-.00003,2.99997,1.34306,3,2.99988v15.00012c.00003,1.65682-1.34306,2.99997-2.99988,3H4c-1.65685,0-3-1.34315-3-3V5c0-1.65685,1.34315-3,3-3Z"/>
  </g>
</svg>