<svg id="Ebene_1" data-name="Ebene 1" xmlns="http://www.w3.org/2000/svg" viewBox="0 0 75 56"><defs><style>.cls-1{fill:#fff;fill-rule:evenodd;}</style></defs><path id="V2" class="cls-1" d="M73,39H68.18644L61,29.375V39H57V17h4v9.625l7.18644-9.60661H73L64.492,28.08476ZM48.74808,29.95869a4.85062,4.85062,0,0,1,.65706.8985L53.74576,39H48.9322l-3.56684-7.27866q-.18774-.34-.34658-.59076a4.04723,4.04723,0,0,0-.31047-.43276,1.50571,1.50571,0,0,0-.3165-.29126,1.4345,1.4345,0,0,0-.36583-.17448,2.33276,2.33276,0,0,0-.45969-.08792,5.88941,5.88941,0,0,0-.59568-.02611L42,30.17026V39H38V17.01839h7.322a7.785,7.785,0,0,1,2.55841.18409,5.76366,5.76366,0,0,1,2.25275,1.209,5.14773,5.14773,0,0,1,1.37908,2.036,8.01818,8.01818,0,0,1,.46932,2.87822,7.44814,7.44814,0,0,1-.31408,2.23525,6.07345,6.07345,0,0,1-.858,1.75578,5.3216,5.3216,0,0,1-1.27439,1.26395,7.227,7.227,0,0,1-1.80629.80232A1.86045,1.86045,0,0,1,48.74808,29.95869Zm-.94466-5.08462a4.53319,4.53319,0,0,0,.23587-1.53322,3.68916,3.68916,0,0,0-.23948-1.38622,2.57348,2.57348,0,0,0-.69917-.99467,3.02534,3.02534,0,0,0-1.13-.59762,5.3838,5.3838,0,0,0-1.53793-.20058H42v6.47358h2.11864a16.941,16.941,0,0,0,2.00726-.125,2.15433,2.15433,0,0,0,.98076-.54679A2.81411,2.81411,0,0,0,47.80342,24.87407ZM29.92466,34.87845H21.83427L20.48647,39H16.44068l6.74259-21.98161h5.39359L35.31825,39H31.27366ZM25.88007,21.13994l-2.6968,9.61695h5.39359ZM15.61275,27.8567a5.58677,5.58677,0,0,1-1.01085,1.42605,5.4521,5.4521,0,0,1-1.42722,1.03863,3.35389,3.35389,0,0,1-1.54756.43551C10.82446,30.8146,9.93979,30.75,9.107,30.75H6V39H2V17l7.22034.01839a15.28274,15.28274,0,0,1,2.55239.06732A5.11478,5.11478,0,0,1,13.295,17.627a5.27032,5.27032,0,0,1,1.36584,1.00978,5.46439,5.46439,0,0,1,.97355,1.39584,7.06108,7.06108,0,0,1,.58364,1.77089,11.168,11.168,0,0,1,.19014,2.12809,10.77448,10.77448,0,0,1-.19736,2.13909A7.14866,7.14866,0,0,1,15.61275,27.8567Zm-3.33821-5.50228a3.08314,3.08314,0,0,0-.63057-1.187,2.74867,2.74867,0,0,0-1.08065-.746,4.21,4.21,0,0,0-1.55478-.25966L6,20.21809v7.50946l2.69205.07007a5.03849,5.03849,0,0,0,1.74131-.26653,2.89932,2.89932,0,0,0,1.1721-.76935,3.08608,3.08608,0,0,0,.66307-1.21449,5.69666,5.69666,0,0,0,.21059-1.61565A5.6142,5.6142,0,0,0,12.27454,22.35442Z"/></svg>