<svg id="E33C_Motorkaltleuchte" xmlns="http://www.w3.org/2000/svg" viewBox="0 0 65 56"><defs><style>.cls-1{fill:#fff;fill-rule:evenodd;}</style></defs><path class="cls-1" d="M43,13V11H39V9a1.8752,1.8752,0,0,0-2-2,1.96955,1.96955,0,0,0-2,2V30.79466a3.92344,3.92344,0,1,0,4-.01455V27h4V25H39c.00086.00856,0-5,0-5h4s.00257-1.97545,0-1.99086L39,18V13Z"/><path class="cls-1" d="M41.7024,45.68785H25.87311A3.74241,3.74241,0,0,1,23.259,44.59893l-7.24214-5.21226a1.48053,1.48053,0,0,1-.42221-1.19611l-.02071-5.63971h-2.821l-.0442,6.47391a1.03741,1.03741,0,0,1-.22756.65448.99558.99558,0,0,1-.59429.33758.97575.97575,0,0,1-.662-.13917l-.866-.5642c-.13635-.16362-.14763-.21628-.14763-.26988l.04419-7.27556c-.06676-.20687-.10438-.24542-.14669-.27458l-.96009-.61686C9.01505,30.713,9,30.65559,9,30.602V23.49586a1.321,1.321,0,0,1,.158-.62721,1.28643,1.28643,0,0,1,.43161-.46735L11.269,21.318a.9587.9587,0,0,1,1.25629.19747,1.13076,1.13076,0,0,1,.22756.69162v6.58237h2.821V23.1a1.87892,1.87892,0,0,1,.42221-1.36819,1.78269,1.78269,0,0,1,1.32682-.465h4.535v-2.821H14.99162a.54823.54823,0,0,1-.23133-.21675.72532.72532,0,0,1-.063-.347l.16926-.98975a1.31536,1.31536,0,0,1,.40247-.83878,1.24457,1.24457,0,0,1,.84724-.34135H31.40993a1.24351,1.24351,0,0,1,.84536.34135,1.31431,1.31431,0,0,1,.40153.83878l.17208.98975a.66623.66623,0,0,1-.06677.347.53054.53054,0,0,1-.2285.21675,2.20915,2.20915,0,0,1-.33194,0H25.61932v2.821H31v2.81679H18.64035a.32906.32906,0,0,0-.22474.09591c-.0583.0583-.02069.14481-.02069.22662V36.8449c0,.64671.18033.79835.18033.79835l6.42617,4.69793a2.94022,2.94022,0,0,0,1.86783.55339H41.653V39.7073a.60331.60331,0,0,1,.09994-.4535.5828.5828,0,0,1,.446-.13059h6.36794a.58165.58165,0,0,1,.44691.13059.65748.65748,0,0,1,.182.4535v3.18727H51.033l1.04844-1.41641V29.27042L51.033,27.752H46.95645l.00005-2.82852h5.12492l2.82,3.274V42.78284l-2.82663,2.905H46.99139a.62385.62385,0,0,1-.44691-.18581.649.649,0,0,1-.17726-.4535V42.13511a.33913.33913,0,0,0-.09711-.22722.30551.30551,0,0,0-.22251-.09617H44.69274a.30553.30553,0,0,0-.22251.09617.33529.33529,0,0,0-.09334.22722v2.26565a1.31344,1.31344,0,0,1-.36771.91361,1.23446,1.23446,0,0,1-.88721.37343H41.70242Z"/></svg>