<svg xmlns="http://www.w3.org/2000/svg" viewBox="0 0 65 56"><defs><style>.cls-1,.cls-2{fill:#fff;}.cls-2{fill-rule:evenodd;}</style></defs><g id="E342_LIM__Auto" data-name="E342_LIM!_Auto"><path class="cls-1" d="M19.602,27.473H9.53617V8H7V30H19.602ZM24.60175,8H22V30h2.60175ZM31.5,12.98179l7.38333,11.02159H40.5167L47.5,12.98179V29.99528L50,30V8H47.95764L39.70332,20.39294,31.2429,8H29V30h2.5ZM7.35355,34.04143,2.1,47.77253H3.938l1.27519-3.48634h6.165l1.28,3.48634H14.584l-5.2859-13.7311Zm-1.6102,8.73121,2.00994-5.46281q.1397-.4071.29354-.84938a8.619,8.619,0,0,0,.26048-.91477,7.896,7.896,0,0,0,.23751.91718q.14411.44436.30216.84691l1.98709,5.46287ZM25.56,43.143a4.87084,4.87084,0,0,1-.20059,1.47214,2.4398,2.4398,0,0,1-1.66572,1.67344,8.94169,8.94169,0,0,1-2.014.20616,4.87039,4.87039,0,0,1-1.50259-.20616,2.53523,2.53523,0,0,1-1.04483-.62467,2.58712,2.58712,0,0,1-.61169-1.04877,4.87273,4.87273,0,0,1-.19985-1.47214V34.04143h-1.7966v9.40716a6.42628,6.42628,0,0,0,.13995,1.3888,4.20074,4.20074,0,0,0,.41843,1.13395,3.35983,3.35983,0,0,0,.70274.88447,3.774,3.774,0,0,0,.99561.63408,5.52763,5.52763,0,0,0,1.298.382,9.29407,9.29407,0,0,0,1.60067.12764,16.24093,16.24093,0,0,0,2.10034-.12764,5.57468,5.57468,0,0,0,1.29794-.382,3.8481,3.8481,0,0,0,1.003-.63408,3.3913,3.3913,0,0,0,.71162-.88447,4.11719,4.11719,0,0,0,.42376-1.13395,6.4177,6.4177,0,0,0,.13906-1.3888V34.04143H25.55988Zm4.88709-7.62937h4.25777V47.77254h1.78675V35.51365h4.25777V34.04143H30.447Zm23.51406,3.4351a8.40766,8.40766,0,0,0-.43789-1.71056A5.85848,5.85848,0,0,0,52.76,35.81677a4.59427,4.59427,0,0,0-1.11868-1.07848,5.07125,5.07125,0,0,0-1.50259-.68517,7.07081,7.07081,0,0,0-1.91019-.23832,6.93225,6.93225,0,0,0-1.90818.24271,5.17669,5.17669,0,0,0-1.50278.692A4.61637,4.61637,0,0,0,43.694,35.8377a6.06606,6.06606,0,0,0-.768,1.42831,8.456,8.456,0,0,0-.44177,1.71292,12.73376,12.73376,0,0,0-.142,1.94193,13.01347,13.01347,0,0,0,.14016,1.94667,8.37959,8.37959,0,0,0,.43683,1.71056,5.96021,5.96021,0,0,0,.7612,1.419,4.5892,4.5892,0,0,0,1.11372,1.07847,5.04312,5.04312,0,0,0,1.49878.68517,7.03706,7.03706,0,0,0,1.90725.23868,6.96452,6.96452,0,0,0,1.90836-.24306,5.15832,5.15832,0,0,0,1.50736-.69257,4.62907,4.62907,0,0,0,1.12559-1.08763,6.06478,6.06478,0,0,0,.773-1.42589,8.277,8.277,0,0,0,.44471-1.71278A13.58355,13.58355,0,0,0,53.96113,38.94875Zm-1.81229,3.493a7.27555,7.27555,0,0,1-.30273,1.35178,5.16628,5.16628,0,0,1-.52315,1.12471,3.37889,3.37889,0,0,1-.76122.85432,3.30336,3.30336,0,0,1-1.02351.54381,4.57344,4.57344,0,0,1-2.62237,0,3.333,3.333,0,0,1-1.02757-.54381,3.37212,3.37212,0,0,1-.76594-.85432,5.02772,5.02772,0,0,1-.52517-1.12471,7.18751,7.18751,0,0,1-.3007-1.35178,12.69738,12.69738,0,0,1,0-3.0672,7.23877,7.23877,0,0,1,.3007-1.35169,4.97237,4.97237,0,0,1,.52517-1.12527,3.43008,3.43008,0,0,1,.76594-.85386A3.26425,3.26425,0,0,1,46.91586,35.5a4.61281,4.61281,0,0,1,2.62034,0,3.22411,3.22411,0,0,1,1.02554.5438,3.43725,3.43725,0,0,1,.76122.85386,5.10784,5.10784,0,0,1,.52315,1.12527,7.32707,7.32707,0,0,1,.30273,1.35169A12.43062,12.43062,0,0,1,52.14884,42.44177Z"/><path class="cls-2" d="M59.49319,14.00209c-1.4224,0-2.51314,1.00585-2.51314,2.92841V30.9694c0,1.91733,1.09075,3.01967,2.51314,3.01967a2.67584,2.67584,0,0,0,2.59009-2.75893q-.00413-.1308-.021-.26074V16.93056a2.59153,2.59153,0,0,0-2.56906-2.92847Zm0,23.00973a2.31473,2.31473,0,0,0-2.57387,2.43507,2.57152,2.57152,0,0,0,5.14288,0,2.31332,2.31332,0,0,0-2.569-2.43512Z"/></g></svg>