<svg id="E34E_on" xmlns="http://www.w3.org/2000/svg" viewBox="0 0 65 56"><defs><style>.cls-1{fill:#fff;fill-rule:evenodd;}</style></defs><path class="cls-1" d="M29.75183,25.03168q-.03278-.66687-.08179-1.25318-.04888-.5862-.08111-1.00921a11.63858,11.63858,0,0,0-.50446-2.68561,4.06794,4.06794,0,0,0-1.02569-1.611A4.24828,4.24828,0,0,0,26.77356,17.61a8.11377,8.11377,0,0,0-2.03461-.53711,41.83757,41.83757,0,0,0-5.99011-.3581,51.13285,51.13285,0,0,0-5.92981.3255,11.568,11.568,0,0,0-1.383.244,4.71452,4.71452,0,0,0-1.0257.37451,7.86133,7.86133,0,0,0-.86249.52076,3.97334,3.97334,0,0,0-.99249,1.15551,6.31038,6.31038,0,0,0-.65131,1.8067A19.0054,19.0054,0,0,0,7.54584,23.811c-.07587,1.04163-.11371,2.61652-.11371,4.07,0,1.758.03784,3.32929.11371,4.41419a20.41032,20.41032,0,0,0,.37469,2.95349,4.46217,4.46217,0,0,0,1.25312,2.2785,4.61127,4.61127,0,0,0,2.29492,1.23712,32.03742,32.03742,0,0,0,7.28027.52088c1.64893,0,2.14868-.02747,3.32092-.08136a23.26388,23.26388,0,0,0,2.9458-.29309,7.89192,7.89192,0,0,0,1.92029-.55341,4.24037,4.24037,0,0,0,1.22089-.83014,4.10451,4.10451,0,0,0,.76483-1.22058,11.65655,11.65655,0,0,0,.50446-2.05829,22.98933,22.98933,0,0,0,.29333-2.55517c.06488-.98731.0976-2.30353.0976-3.64924,0-.412-.00568-1.17828-.01673-1.64508Q29.78421,25.69907,29.75183,25.03168Zm-2.99206,4.39868q-.03315.79788-.0813,1.52972-.04908.73279-.11432,1.38349-.06528.65167-.13019,1.07434A2.86277,2.86277,0,0,1,24.22064,35.883a29.39548,29.39548,0,0,1-5.4718.42327,33.76619,33.76619,0,0,1-5.05316-.30926,8.6137,8.6137,0,0,1-1.07391-.1955,3.10075,3.10075,0,0,1-.73255-.27642,2.30564,2.30564,0,0,1-.52106-.39093,4.0432,4.0432,0,0,1-.43933-1.06525,6.70419,6.70419,0,0,1-.27649-1.39972q-.098-.87882-.147-2.14838c-.03253-.84643-.04852-1.27722-.04852-2.493a37.55493,37.55493,0,0,1,.26013-5.0954,3.87965,3.87965,0,0,1,.8465-2.16449,2.73894,2.73894,0,0,1,.92785-.5047,7.56435,7.56435,0,0,1,1.59522-.32537,43.91332,43.91332,0,0,1,4.66229-.24421c2.19012,0,3.51843.11957,3.97418.16278q.68436.06583,1.30213.16279A2.52968,2.52968,0,0,1,26.46643,22.135q.06528.3588.13031,1.009.065.65159.1142,1.44849.04879.79833.06518,1.7254c.01032.61853.01606,1.18372.01606,1.791C26.79218,28.60828,26.78082,28.8988,26.75977,29.43036ZM54.65088,17.23468V34.06989L38.60852,17.29181H35.69177v21.4104h2.91675V21.82159L54.65088,38.66211h2.917V17.23468Z"/></svg>