<svg id="Flaechen" xmlns="http://www.w3.org/2000/svg" viewBox="0 0 55 54"><defs><style>.cls-1{fill:none;stroke:#fff;stroke-miterlimit:10;stroke-width:2px;}.cls-2{fill:#fff;}</style></defs><g id="E355_HV_Batterie_Temp" data-name="E355 HV Batterie Temp"><polygon class="cls-1" points="43 26.421 33.44 51.5 43 45.038 52.56 51.5 43 26.421"/></g><path class="cls-1" d="M20.16667,13.20833a34.86733,34.86733,0,0,1,7.33333-.75,34.86733,34.86733,0,0,1,7.33333.75"/><path class="cls-1" d="M18.05556,8.71528a32.07054,32.07054,0,0,1,9.47222-1.19445A32.07054,32.07054,0,0,1,37,8.71528"/><path class="cls-1" d="M15,4.51389a39.44865,39.44865,0,0,1,12.5-1.75,39.44865,39.44865,0,0,1,12.5,1.75"/><polygon class="cls-2" points="45.333 27.527 52.206 24.389 53.889 30.167 45.333 27.527"/><polygon class="cls-2" points="9.611 27.444 2.739 24.306 1.056 30.083 9.611 27.444"/><polygon class="cls-2" points="38.795 23.189 38.795 22.328 41.972 22.328 41.741 23.763 39.026 23.763 38.795 23.189"/><polygon class="cls-2" points="34 26 40.151 26 39.278 28 34 28 34 26"/><line class="cls-1" x1="17" y1="23" x2="38" y2="23"/><polygon class="cls-2" points="15.981 23.751 13.265 23.751 13.034 22.327 16.211 22.327 16.211 23.182 15.981 23.751"/><rect class="cls-2" x="14.85525" y="26" width="6.14475" height="1.96286"/><path class="cls-2" d="M35.96289,34.00488V32H19l.00342,1.89355a.51181.51181,0,0,1-.24219.07862H16.00244L16,33.95459V25.68213L17.4585,23.915v-.98486c.92285-1.79737,2.15918-3.522,2.63574-3.67774a59.24745,59.24745,0,0,1,7.23926-.22461,60.15251,60.15251,0,0,1,7.22216.22071c.49122.16015,1.71875,1.88378,2.63184,3.67919v1.04981L39,25.74463V29.348l1.77374-4.66772L39.1875,23.13379V22.4585l-.103-.209c-.688-1.39551-2.47119-4.67334-4.17041-4.96777a63.0439,63.0439,0,0,0-7.58056-.25391,63.03247,63.03247,0,0,0-7.58057.25391c-1.69775.29394-3.49561,3.56933-4.18945,4.96387l-.105.21044v.74024L14,24.96338v9.05176l.00586.1084c.15869,1.45654,1.07178,1.9082,1.897,1.84863l2.75977-.00488a1.87258,1.87258,0,0,0,.3623,0c.875-.08887,2.08057-.86768,1.9751-1.95167L33.96338,34a1.87154,1.87154,0,0,0,1.65918,1.99512A1.26006,1.26006,0,0,0,35.88428,36h.588l.759-1.99731Z"/></svg>