<svg id="Ebene_4" data-name="Ebene 4" xmlns="http://www.w3.org/2000/svg" viewBox="0 0 51 60"><defs><style>.cls-1{fill:#fff;fill-rule:evenodd;}</style></defs><g id="Ebene_4-2" data-name="Ebene 4"><g id="E338_MIL" data-name="E338 MIL"><path class="cls-1" d="M37.50118,43.49V40.13717a.64005.64005,0,0,1,.106-.481.61826.61826,0,0,1,.47305-.13851H44.8349a.617.617,0,0,1,.47405.13851.69738.69738,0,0,1,.193.481V43.6h.88808l1.11211-1.64106V30.07049l-1.11211-1.61066H45.502l-.01386,3.30044a.72335.72335,0,0,1-.193.487c-.12486.12735-.29572.30274-.47406.30269H38.11238c-.17792-.00053-.34825-.18975-.47305-.31658a.67629.67629,0,0,1-.13812-.487V28.45983H35.501s-2.51724-3.31383-3.91639-5.01l-5.54453.005H10.75955a.3499.3499,0,0,0-.239.102c-.062.062-.022.154-.022.241V37.02717c0,.087-.04.18.022.241.063.062.149.19252.239.19252h3.20431a3.97384,3.97384,0,0,1,2.77927,1.14861l3.9724,4.26342c.244.241.57694.61725.923.61725Zm2.93411-15.68467v1.66608a1.16558,1.16558,0,0,0,.00835.31253c.04687.16147.12559.21606.2136.21606h1.56259a.48219.48219,0,0,0,.26455-.15136.51808.51808,0,0,0,.07937-.30476V26.54361c0-.179-.03868-.62736.08331-.75537a.72572.72572,0,0,1,.47964-.24366h4.37543L50.48,28.93238V43.34277l-2.98484,3.08939H43.16374a.66959.66959,0,0,1-.474-.205.68845.68845,0,0,1-.188-.481V42.6557a.35977.35977,0,0,0-.103-.241.32407.32407,0,0,0-.236-.102H40.72549a.324.324,0,0,0-.236.102.35565.35565,0,0,0-.099.241V45.059a1.39319,1.39319,0,0,1-.39.96909,1.31724,1.31724,0,0,1-.9411.404H21.64262A3.9802,3.9802,0,0,1,18.86234,45.274L14.889,41.32359c-.243-.241-.96613-.86257-1.30815-.86257H9.24837c-.524,0-.93407.0705-1.30113-.30954A1.57333,1.57333,0,0,1,7.5,38.87936V32.46023H4.49791l-.04705,6.88534a1.10337,1.10337,0,0,1-.242.69607,1.05888,1.05888,0,0,1-.63206.359,1.03776,1.03776,0,0,1-.70407-.148l-.92109-.60006c-.145-.174-.157-.23-.157-.287l.047-7.73794c-.071-.22-.111-.261-.156-.29208l-1.0211-.65606c-.142-.174-.158-.235-.158-.292V23.12245a1.405,1.405,0,0,1,.168-.66706,1.36835,1.36835,0,0,1,.459-.49706l1.78618-1.44478a1.01964,1.01964,0,0,1,1.33613.21,1.20262,1.20262,0,0,1,.242.73558v7.00068H7.5V22.45a2.09816,2.09816,0,0,1,.44727-1.49641A1.865,1.865,0,0,1,9.35841,20.5h10.141v-3H12.41667a.83644.83644,0,0,1-.3-.2722.76125.76125,0,0,1-.05-.369L12.275,14.743a1.39906,1.39906,0,0,1,.428-.89209A1.31207,1.31207,0,0,1,13.60417,13.5H29.65841a1.31091,1.31091,0,0,1,.89909.35089,1.39782,1.39782,0,0,1,.427.89209l.183,2.11621a.70835.70835,0,0,1-.071.369.66821.66821,0,0,1-.243.27178,2.34789,2.34789,0,0,1-.353,0H23.49981v3h9.659s1.40114,2.13779,3.78136,5.01808c0,0,1.9212.03,3.09331.005.3-.005.40186.051.40186.276Z"/></g></g></svg>