<svg xmlns="http://www.w3.org/2000/svg" viewBox="0 0 68 54"><defs><style>.cls-1,.cls-2{fill:#fff;}.cls-1,.cls-2,.cls-3{stroke:#fff;stroke-miterlimit:10;}.cls-1{stroke-width:0.5px;}.cls-3{fill:none;stroke-width:2px;}</style></defs><g id="a"><polygon class="cls-1" points="35.682 1.583 34.382 1.583 33.982 6.788 35.982 6.788 35.682 1.583"/><polygon class="cls-1" points="33.082 27.965 32.278 38.32 37.633 38.32 36.83 27.965 33.082 27.965"/><polygon class="cls-1" points="35.902 12.224 33.894 12.224 33.487 16.619 36.315 17.578 35.902 12.224"/><path class="cls-2" d="M13.06037,20.62928l-3.803-.016,4.462-8.65159,2.3.009Z"/><path class="cls-2" d="M18.17737,6.37167l-1.949-.007L18.94267.996l1.23.004Z"/><path class="cls-2" d="M6.45237,37.65318H.98637l4.923-10.0535,4.326.017Z"/><path class="cls-2" d="M55.06137,20.62727l3.803-.016-4.462-8.6516-2.3.009Z"/><path class="cls-2" d="M49.94437,6.36968l1.949-.007L49.36768.998l-1.231.004Z"/><path class="cls-2" d="M61.66938,37.65117h5.466l-5.423-10.0535-3.826.017Z"/><polygon class="cls-3" points="51.979 26.091 42.419 51.17 51.979 44.708 61.539 51.17 51.979 26.091"/><path class="cls-1" d="M48.33917,24.51538,26.03,16.95575a.69455.69455,0,0,1-.52869-.741l.78583-3.98877h5.93018L25.7522,7.84326,17.98169,12.226h5.49872l-1.3581,4.91169a1.81906,1.81906,0,0,0,.78321,1.89062l21.14935,7.80426a1.21732,1.21732,0,0,1,.80341,1.02979l.73156,4.80633,3.36573-7.80817A3.16055,3.16055,0,0,0,48.33917,24.51538Z"/></g></svg>