<svg xmlns="http://www.w3.org/2000/svg" viewBox="0 0 42 63"><defs><style>.cls-1,.cls-3{fill:#fff;}.cls-2{fill:none;stroke:#fff;stroke-miterlimit:10;stroke-width:2.25px;}.cls-3{fill-rule:evenodd;}</style></defs><g id="Ebene_1" data-name="Ebene 1"><path class="cls-1" d="M5.75,44.00012H2.25v-7h3.5Zm0-9H2.25v-7h3.5Zm0-9H2.25v-7h3.5Zm0-9H2.25v-7h3.5Zm0-9H2.25v-7h3.5Z"/><path class="cls-1" d="M32.25,37.68115v6.319h3.5V31.0437C34.78668,32.94836,33.62561,35.17456,32.25,37.68115Z"/><path class="cls-1" d="M34.2251,7.1012l1.5249.87341v-6.954h-3.5V6.34992C32.97418,6.582,34.2251,7.1012,34.2251,7.1012Z"/><path class="cls-1" d="M33.252,21.33008a10.94654,10.94654,0,0,0-.93762-1.0542A9.83569,9.83569,0,0,0,29.996,18.58173a10.32524,10.32524,0,0,0-2.71832-.86469,9.51112,9.51112,0,0,0-1.40247-.13409.79421.79421,0,0,0-.80481.7124,11.34172,11.34172,0,0,0,.05988,3.7099s1.72021.73053,2.54321,1.1499c.84088.42841,2.443,1.39081,2.443,1.39081a11.45305,11.45305,0,0,0,3.0318-2.15332A.78945.78945,0,0,0,33.252,21.33008ZM25.91492,34.577l-6.4256-3.30042a.81278.81278,0,0,0-1.09583.3512L17.21411,33.913a.80775.80775,0,0,0,.366,1.09583l6.4209,3.30151a.809.809,0,0,0,1.09936-.34222l1.17444-2.29089A.82534.82534,0,0,0,25.91492,34.577Z"/><path class="cls-2" d="M38.10394,13.60754a14.20374,14.20374,0,0,0-3.50543-2.68975c-.09351-.05463-.16852-.09913-.16852-.09913l-.94677-.48254A13.92251,13.92251,0,0,0,29.0564,9.00684a3.21483,3.21483,0,0,0-3.18451,1.5094c-1.9787,3.10662-4.61859,8.21429-6.48688,11.88092-2.18189,4.28271-4.18292,8.5982-5.75891,12.13177a2.78,2.78,0,0,0,1.22381,3.52161c.84241.56439,2.5271,1.55139,2.91608,1.74682,0,0,.61884.321.62824.32569l.87078.44391.1728.0852.63171.31256c.36157.18421,2.17572.97693,3.11639,1.31824a2.766,2.766,0,0,0,3.55493-1.04169l2.61585-4.781c2.6568-4.82642,4.51532-8.61493,5.685-11.0459,1.95825-4.037,3.48163-7.73584,3.70831-8.32141A3.25268,3.25268,0,0,0,38.10394,13.60754Z"/></g><g id="E2EB_aLDW_off" data-name="E2EB aLDW off"><path class="cls-3" d="M14.43727,57.60153a5.87794,5.87794,0,0,1-.76859,1.40933,4.47821,4.47821,0,0,1-1.14086,1.0718,5.36151,5.36151,0,0,1-1.5532.68091,8.41976,8.41976,0,0,1-3.9819.0025,5.23129,5.23129,0,0,1-1.53807-.67925A4.47981,4.47981,0,0,1,4.32627,59.02a5.80448,5.80448,0,0,1-.7588-1.40017,8.01617,8.01617,0,0,1-.4266-1.68353,13.16687,13.16687,0,0,1-.1336-1.91439,12.98858,12.98858,0,0,1,.13626-1.92107,8.20739,8.20739,0,0,1,.42928-1.69353A5.65561,5.65561,0,0,1,4.33694,48.998a4.526,4.526,0,0,1,1.13819-1.07179A5.28594,5.28594,0,0,1,7.023,47.2436a8.41967,8.41967,0,0,1,3.98188-.0025,5.26305,5.26305,0,0,1,1.54342.67841,4.51372,4.51372,0,0,1,1.13285,1.0668,5.70711,5.70711,0,0,1,.76146,1.40266,8.11966,8.11966,0,0,1,.42928,1.68437,12.86518,12.86518,0,0,1,.13537,1.91192,13.04108,13.04108,0,0,1-.13537,1.92357A7.94124,7.94124,0,0,1,14.43727,57.60153Zm-1.49532-5.124a7.1275,7.1275,0,0,0-.29123-1.33932,4.85984,4.85984,0,0,0-.51477-1.11013A3.21055,3.21055,0,0,0,10.34407,48.653a4.82059,4.82059,0,0,0-2.66291,0,3.23465,3.23465,0,0,0-1.799,1.37517,4.79131,4.79131,0,0,0-.51744,1.11013,7.19833,7.19833,0,0,0-.29212,1.33932,13.01117,13.01117,0,0,0,0,3.05454,7.20251,7.20251,0,0,0,.29212,1.341,4.79131,4.79131,0,0,0,.51744,1.11013,3.23474,3.23474,0,0,0,1.799,1.37516,4.82989,4.82989,0,0,0,2.66558,0A3.21656,3.21656,0,0,0,12.136,57.98325a4.85984,4.85984,0,0,0,.51477-1.11013,7.13177,7.13177,0,0,0,.29123-1.341,12.88422,12.88422,0,0,0,0-3.05454Z"/><path class="cls-3" d="M19.00727,53.0036h5v1.5h-5v6.5h-2v-14h8v1.5h-6Z"/><path class="cls-3" d="M29.00727,53.0036h5v1.5h-5v6.5h-2v-14h8v1.5h-6Z"/></g></svg>