<?xml version="1.0" encoding="UTF-8"?>
<svg id="Ebene_1" data-name="Ebene 1" xmlns="http://www.w3.org/2000/svg" viewBox="0 0 44 44">
  <defs>
    <style>
      .cls-1 {
        fill: #00f300;
      }
    </style>
  </defs>
  <path class="cls-1" d="M14.6,42.00024c-.529-.00117-1.03599-.21188-1.41-.586L2.69,30.91424c-.37339-.37433-.58336-.88128-.584-1.41V14.60424c.00064-.52872,.21061-1.03567,.584-1.41L13.19,2.69424c.37984-.35925,.88746-.55186,1.41-.535h14.9c.52273-.01798,1.03077,.17478,1.41,.535l10.5,10.5c.37339,.37433,.58336,.88128,.584,1.41v14.9c-.00064,.52872-.21061,1.03567-.584,1.41l-10.5,10.5c-.374,.37412-.881,.58483-1.41,.586H14.6Z"/>
  <path d="M40.3,14.40024L29.6,3.70024H14.5L3.8,14.40024v15.2l10.7,10.7h15.1l10.7-10.7s0-15.2,0-15.2Z"/>
  <path class="cls-1" d="M32.2,17.30024v4.25h1.18c.64043,.01667,1.17312-.489,1.18979-1.12943,.00044-.01685,.00051-.03371,.00021-.05057v-1.89c.01126-.64055-.49887-1.16895-1.13943-1.18021-.01686-.0003-.03372-.00023-.05057,.00021h-1.18Zm-1.89,11.3V15.40024h3.07c1.65072-.04479,3.02521,1.25708,3.07,2.9078,.00147,.05406,.00147,.10814,0,.1622v1.89c.04479,1.65072-1.25708,3.02521-2.9078,3.07-.05406,.00147-.10814,.00147-.1622,0h-1.18v5.2h-1.89v-.03Zm-6.37-3.07c0,.71797,.58203,1.3,1.3,1.3s1.3-.58203,1.3-1.3v-7.09c0-.71797-.58203-1.3-1.3-1.3-.71797,0-1.3,.58203-1.3,1.3h0v7.09Zm-1.89,0v-7.09c-.09861-1.75903,1.24743-3.26494,3.00645-3.36355,1.75903-.09861,3.26494,1.24743,3.36355,3.00645,.00667,.11894,.00667,.23816,0,.35709v7.09c.09861,1.75903-1.24743,3.26494-3.00645,3.36355-1.75903,.09861-3.26494-1.24743-3.36355-3.00645-.00667-.11894-.00667-.23816,0-.35709Zm-5.07,3.07v-11.3h-2.24v-1.89h6.37v1.89h-2.24v11.3h-1.89Zm-9.44-3.78h1.89v.708c0,.71797,.58203,1.3,1.3,1.3h.118c.71797,0,1.3-.58203,1.3-1.3v-1.42c-.00184-.52749-.32224-1.00159-.811-1.2l-1.68-.683c-1.20449-.48902-1.99176-1.66002-1.99-2.96v-.828c-.0986-1.75903,1.24743-3.26493,3.00646-3.36354s3.26493,1.24743,3.36354,3.00646c.00667,.11893,.00667,.23814,0,.35708v.709h-1.89v-.709c.00041-.71797-.58128-1.30033-1.29925-1.30075-.71797-.00041-1.30034,.58128-1.30075,1.29925v.8295c.00167,.52725,.32164,1.00127,.81,1.2l1.68,.684c1.20449,.48902,1.99176,1.66002,1.99,2.96v1.42c0,1.76179-1.42821,3.19-3.19,3.19h-.118c-1.76179,0-3.19-1.42821-3.19-3.19h0"/>
</svg>