<?xml version="1.0" encoding="UTF-8"?>
<svg id="Ebene_1" data-name="Ebene 1" xmlns="http://www.w3.org/2000/svg" viewBox="0 0 44 44">
  <defs>
    <style>
      .cls-1 {
        fill: #00f300;
      }
    </style>
  </defs>
  <path d="M22,40.99999c-10.47656,0-19-8.52344-19-18.99951S11.52344,3.00048,22,3.00048s19,8.52344,19,19-8.52344,18.99951-19,18.99951Z"/>
  <path class="cls-1" d="M22,2.50048c-10.76953,.02148-19.48254,8.76933-19.46106,19.53886,.02148,10.76953,8.76933,19.48255,19.53886,19.46106,10.76953-.02149,19.48254-8.76933,19.46106-19.53886-.02142-10.73916-8.7219-19.43964-19.46106-19.46106-.02593-.00005-.05187-.00005-.0778,0Zm0,33.9c-7.9529,0-14.4-6.4471-14.4-14.4S14.0471,7.60048,22,7.60048s14.4,6.4471,14.4,14.4-6.4471,14.4-14.4,14.4h0Z"/>
  <path class="cls-1" d="M11,26.10048v-3.7l3.7,3.7V14.10048h2.85v12l3.7-3.7v3.7l-5.12,5.12-5.12-5.12s-.01,0-.01,0Z"/>
  <path class="cls-1" d="M33,17.90048v3.7l-3.7-3.7v12h-2.85v-12l-3.7,3.7v-3.7l5.12-5.12,5.13,5.12Z"/>
</svg>