<?xml version="1.0" encoding="UTF-8"?>
<svg id="Ebene_1" data-name="Ebene 1" xmlns="http://www.w3.org/2000/svg" viewBox="0 0 44 44">
  <defs>
    <style>
      .cls-1 {
        fill: #00f300;
      }

      .cls-2 {
        fill: #010101;
      }
    </style>
  </defs>
  <g>
    <path d="M22.06348,41.50781c-.13574,0-.27051-.02148-.39941-.06641-.24463-.08496-.47705-.22656-.66992-.40723L2.90527,22.94433c-.27588-.27344-.41406-.64941-.38184-1.03418,.02783-.35986,.17529-.70166,.41602-.96533L20.92334,2.96093c.27197-.28125,.64453-.43945,1.02734-.43945l.11768,.00488c.37207,.02783,.72119,.18213,.9873,.43604l17.93945,17.94043,.06055,.03369c.25195,.24121,.43262,.63379,.44922,1.05713-.00098,.37988-.1709,.76904-.46484,1.04541-6.00391,5.99707-12.00391,11.99707-18.01074,18.01074-.26123,.30078-.604,.45801-.96533,.45801,0,0-.00049,0-.00049,0Z"/>
    <path class="cls-1" d="M21.95038,3.02185c.02546,0,.05103,.00106,.08669,.00398,.25141,.01838,.49034,.12432,.65582,.28177l17.9,17.89999,.13226,.11552c.1711,.18961,.26976,.42695,.2795,.64657-.00089,.26567-.11252,.5223-.32872,.72584-5.99359,5.98693-11.99386,11.98719-18.00079,18.00079l-.02623,.02626-.02422,.02814c-.14076,.16355-.3453,.25736-.56116,.25736-.08103,0-.16123-.01333-.23112-.03711-.18544-.06478-.35196-.16594-.47366-.28004L3.25584,22.58804c-.16863-.16725-.25384-.39892-.23312-.64376,.01877-.24547,.12059-.48112,.25439-.62969L21.28903,3.30246c.17237-.17833,.41342-.28061,.66135-.28061m0-1c-.51818,0-1.01711,.2098-1.38038,.58564L2.57,20.60748l-.00037,.00054c-.31667,.34765-.50814,.79112-.544,1.26-.045,.53104,.14762,1.05471,.526,1.43001l18.1,18.1c.24422,.23016,.53418,.40632,.851,.51699,.18399,.06269,.37338,.09305,.56089,.09305,.49779,0,.98251-.21394,1.31911-.60505,6.00667-6.01333,12.00667-12.01333,18-18,.3952-.37082,.62019-.88807,.622-1.43-.02231-.55199-.26124-1.07295-.665-1.45l-.03963-.02254L23.4,2.60049c-.35068-.33446-.80669-.53666-1.29-.572-.05331-.00444-.10659-.00665-.15962-.00665h0Z"/>
  </g>
  <path class="cls-1" d="M22,33.10048l11.1-11.1-11.1-11.1-11.1,11.1s11.1,11.1,11.1,11.1Z"/>
  <path class="cls-2" d="M22,33.40048l-11.4-11.4,11.4-11.4,11.4,11.4s-11.4,11.4-11.4,11.4Zm0-.692l10.7-10.7-10.7-10.7-10.7,10.7,10.7,10.7Z"/>
</svg>