<svg xmlns="http://www.w3.org/2000/svg" xmlns:xlink="http://www.w3.org/1999/xlink" viewBox="0 0 44 44"><defs><linearGradient id="Beschriftung_schwarz" x1="14.23047" y1="22.13342" x2="30.43555" y2="22.13342" gradientUnits="userSpaceOnUse"><stop offset="0" stop-color="#010101"/><stop offset="0"/></linearGradient></defs><g id="Speedlimit_10"><path id="Beschriftung_schwarz-2" data-name="Beschriftung_schwarz" d="M16.53613,30.24621V16.51379l-2.30566,1.68457V15.73742l2.30566-1.67334h2.32715V30.24621Zm4.72168-4.544V18.57531a4.31628,4.31628,0,0,1,1.39649-3.44189,4.79853,4.79853,0,0,1,6.3789,0,4.30435,4.30435,0,0,1,1.40235,3.44189v7.12695a4.28479,4.28479,0,0,1-1.40235,3.43555,4.81155,4.81155,0,0,1-6.3789,0A4.29662,4.29662,0,0,1,21.25781,25.70226Zm6.86133-.13281V18.70812a2.51938,2.51938,0,0,0-.627-1.81787,2.405,2.405,0,0,0-3.29688,0,2.53383,2.53383,0,0,0-.62109,1.81787v6.86133a2.53,2.53,0,0,0,.62109,1.82324,2.41952,2.41952,0,0,0,3.29688,0A2.51559,2.51559,0,0,0,28.11914,25.56945Z" fill="url(#Beschriftung_schwarz)"/></g></svg>