<svg xmlns="http://www.w3.org/2000/svg" xmlns:xlink="http://www.w3.org/1999/xlink" viewBox="0 0 44 44"><defs><linearGradient id="Beschriftung_schwarz" x1="12.08496" y1="22.13317" x2="32.04199" y2="22.13317" gradientUnits="userSpaceOnUse"><stop offset="0" stop-color="#010101"/><stop offset="0"/></linearGradient></defs><g id="Speedlimit_20"><path id="Beschriftung_schwarz-2" data-name="Beschriftung_schwarz" d="M12.085,30.213V28.04113l6.31055-7.90381a2.58082,2.58082,0,0,0,.47656-.85351,2.75907,2.75907,0,0,0,.11035-.75342,2.42058,2.42058,0,0,0-.59765-1.56836,1.99729,1.99729,0,0,0-1.62793-.72607,2.27449,2.27449,0,0,0-1.61036.62646,2.48461,2.48461,0,0,0-.748,1.7124H12.085a4.56457,4.56457,0,0,1,1.33887-3.30859,4.28532,4.28532,0,0,1,3.15625-1.34668A4.541,4.541,0,0,1,19.94043,15.277a4.48573,4.48573,0,0,1,1.34473,3.27539,4.39172,4.39172,0,0,1-.96289,2.83789l-5.19239,6.51807h6.15528V30.213Zm10.79-4.51075V18.57482a4.31822,4.31822,0,0,1,1.39453-3.44189,4.78956,4.78956,0,0,1,6.37207,0A4.30934,4.30934,0,0,1,32.042,18.57482v7.12744a4.28973,4.28973,0,0,1-1.40039,3.43555,4.80255,4.80255,0,0,1-6.37207,0A4.29854,4.29854,0,0,1,22.875,25.70226Zm6.85352-.13281V18.70763a2.5232,2.5232,0,0,0-.626-1.81787,2.40133,2.40133,0,0,0-3.294,0,2.53773,2.53773,0,0,0-.62011,1.81787v6.86182a2.53389,2.53389,0,0,0,.62011,1.82324,2.41579,2.41579,0,0,0,3.294,0A2.51938,2.51938,0,0,0,29.72852,25.56945Z" fill="url(#Beschriftung_schwarz)"/></g></svg>