<svg xmlns="http://www.w3.org/2000/svg" xmlns:xlink="http://www.w3.org/1999/xlink" viewBox="0 0 44 44"><defs><linearGradient id="Beschriftung_schwarz" x1="10.98926" y1="21.59533" x2="32.75098" y2="21.59533" gradientUnits="userSpaceOnUse"><stop offset="0" stop-color="#010101"/><stop offset="0"/></linearGradient></defs><g id="Speedlimit_200"><path id="Beschriftung_schwarz-2" data-name="Beschriftung_schwarz" d="M15.84961,21.93566l-2.46,4.74121h3.68066v2.04h-6.081V26.797l3.70019-6.98242a3.2583,3.2583,0,0,0,.34082-1.78027c0-.83985-.04-1.64063-1.001-1.64063a.92144.92144,0,0,0-1,1.02051v1.16015h-2.04v-.83984a3.62112,3.62112,0,0,1,.16015-1.28027,3.09668,3.09668,0,0,1,2.90039-2.10059c1.91993,0,3.02051,1.37988,3.02051,3.62109C17.07031,19.85461,16.91016,19.87512,15.84961,21.93566ZM24.71,25.83605a3.04079,3.04079,0,0,1-6.081,0V17.35461a3.04079,3.04079,0,0,1,6.081,0Zm-4.041-.01953a1.00069,1.00069,0,0,0,2.001,0V17.37414a.97412.97412,0,0,0-1.001-.98047.991.991,0,0,0-1,1.001Zm12.082.01953a3.04128,3.04128,0,0,1-6.082,0V17.35461a3.04128,3.04128,0,0,1,6.082,0Zm-4.041-.01953a1.00019,1.00019,0,0,0,2,0V17.37414a.97327.97327,0,0,0-1-.98047.991.991,0,0,0-1,1.001Z" fill="url(#Beschriftung_schwarz)"/></g></svg>