<svg xmlns="http://www.w3.org/2000/svg" xmlns:xlink="http://www.w3.org/1999/xlink" viewBox="0 0 44 44"><defs><linearGradient id="Beschriftung_schwarz" x1="12.07422" y1="22.13903" x2="32.04199" y2="22.13903" gradientUnits="userSpaceOnUse"><stop offset="0" stop-color="#010101"/><stop offset="0"/></linearGradient></defs><g id="Speedlimit_25"><path id="Beschriftung_schwarz-2" data-name="Beschriftung_schwarz" d="M12.07422,30.213V28.04113L18.3916,20.1383a2.56322,2.56322,0,0,0,.47656-.85352,2.72405,2.72405,0,0,0,.11133-.75341,2.42167,2.42167,0,0,0-.59863-1.56836,2.00116,2.00116,0,0,0-1.62988-.72608,2.27915,2.27915,0,0,0-1.61231.62647,2.48457,2.48457,0,0,0-.748,1.7124H12.07422A4.56228,4.56228,0,0,1,13.415,15.26721a4.2886,4.2886,0,0,1,3.15918-1.34668A4.54821,4.54821,0,0,1,19.93848,15.278a4.48368,4.48368,0,0,1,1.34668,3.27539,4.38783,4.38783,0,0,1-.96485,2.83789l-5.19824,6.51709h6.16309V30.213ZM31.7373,21.87316a9.40687,9.40687,0,0,1,.30469,2.86426,8.81818,8.81818,0,0,1-.12695,1.541,6.88223,6.88223,0,0,1-.32715,1.23046,4.64582,4.64582,0,0,1-.49316.95313,4.40442,4.40442,0,0,1-.59864.7207,3.795,3.795,0,0,1-.665.50391,4.65262,4.65262,0,0,1-.665.33789,4.40512,4.40512,0,0,1-.63184.20019,4.55644,4.55644,0,0,1-.52637.09961c-.13281.01465-.26269.02539-.38867.03321h-.09961a5.38061,5.38061,0,0,1-3.02051-.96973,4.19557,4.19557,0,0,1-1.71191-3.23144h2.32715a2.15419,2.15419,0,0,0,2.31738,1.88476,2.04841,2.04841,0,0,0,1.42969-.45508,2.69024,2.69024,0,0,0,.71972-1.42968,9.668,9.668,0,0,0,.13379-1.59571,5.32909,5.32909,0,0,0-.12793-1.22461,3.04164,3.04164,0,0,0-.32128-.85888,2.331,2.331,0,0,0-.45411-.54883,1.895,1.895,0,0,0-.48242-.32129,2.23963,2.23963,0,0,0-.46582-.13867,3.54962,3.54962,0,0,0-.47656-.03321h-.02246a2.29138,2.29138,0,0,0-2.083,1.3418H23.08594V14.0089H31.7207v2.32764H25.28125v3.65772a4.02764,4.02764,0,0,1,2.59375-.88672,4.03658,4.03658,0,0,1,2.89258,1.19726A4.59593,4.59593,0,0,1,31.7373,21.87316Z" fill="url(#Beschriftung_schwarz)"/></g></svg>