<svg xmlns="http://www.w3.org/2000/svg" xmlns:xlink="http://www.w3.org/1999/xlink" viewBox="0 0 44 44"><defs><linearGradient id="Beschriftung_schwarz" x1="12.0957" y1="22.13366" x2="32.05273" y2="22.13366" gradientUnits="userSpaceOnUse"><stop offset="0" stop-color="#010101"/><stop offset="0"/></linearGradient></defs><g id="Speedlimit_30"><path id="Beschriftung_schwarz-2" data-name="Beschriftung_schwarz" d="M15.79785,22.9093V20.87023h.79785A2.51285,2.51285,0,0,0,18.419,20.2218a2.19166,2.19166,0,0,0,.67089-1.646,2.22233,2.22233,0,0,0-.69824-1.6626,2.30866,2.30866,0,0,0-1.66308-.67627A2.27267,2.27267,0,0,0,14.501,18.18762H12.18457a4.59777,4.59777,0,0,1,1.42969-2.98682,4.17271,4.17271,0,0,1,3.02637-1.28027,4.46521,4.46521,0,0,1,3.46289,1.42431,4.60765,4.60765,0,0,1,1.30273,3.18653,4.679,4.679,0,0,1-.36621,1.812,3.38482,3.38482,0,0,1-1.36328,1.52441,3.83588,3.83588,0,0,1,1.46387,1.60693,4.53942,4.53942,0,0,1,.44335,1.92774A4.72309,4.72309,0,0,1,20.165,29.005a4.87623,4.87623,0,0,1-3.48047,1.3418,4.59048,4.59048,0,0,1-2.9541-1.0586,4.7414,4.7414,0,0,1-1.63477-3.08691h2.31641a3.53059,3.53059,0,0,0,.86426,1.335,2.17876,2.17876,0,0,0,1.541.50488,2.45289,2.45289,0,0,0,1.707-.68164,2.4249,2.4249,0,0,0,.74317-1.87891,2.44606,2.44606,0,0,0-.73731-1.88964,2.49767,2.49767,0,0,0-1.75683-.68164Zm7.07715,2.793V18.5758a4.31382,4.31382,0,0,1,1.39746-3.4419,4.79857,4.79857,0,0,1,6.37891,0,4.30689,4.30689,0,0,1,1.40136,3.4419v7.12646a4.28727,4.28727,0,0,1-1.40136,3.43555,4.81157,4.81157,0,0,1-6.37891,0A4.29414,4.29414,0,0,1,22.875,25.70226Zm6.86133-.13281V18.70861a2.52319,2.52319,0,0,0-.626-1.81787,2.40623,2.40623,0,0,0-3.29786,0,2.53772,2.53772,0,0,0-.62011,1.81787v6.86084a2.53389,2.53389,0,0,0,.62011,1.82324,2.42076,2.42076,0,0,0,3.29786,0A2.51938,2.51938,0,0,0,29.73633,25.56945Z" fill="url(#Beschriftung_schwarz)"/></g></svg>