<svg xmlns="http://www.w3.org/2000/svg" xmlns:xlink="http://www.w3.org/1999/xlink" viewBox="0 0 44 44"><defs><linearGradient id="Beschriftung_schwarz" x1="12.3457" y1="22.13976" x2="32.05176" y2="22.13976" gradientUnits="userSpaceOnUse"><stop offset="0" stop-color="#010101"/><stop offset="0"/></linearGradient></defs><g id="Speedlimit_50"><path id="Beschriftung_schwarz-2" data-name="Beschriftung_schwarz" d="M21.2959,21.87316a9.41465,9.41465,0,0,1,.30469,2.86524,8.72067,8.72067,0,0,1-.12793,1.541,6.88578,6.88578,0,0,1-.32618,1.23047,4.64813,4.64813,0,0,1-.49414.95313,4.35412,4.35412,0,0,1-.59765.7207,3.86971,3.86971,0,0,1-.665.50391,4.65321,4.65321,0,0,1-.665.33789,4.445,4.445,0,0,1-.63184.20019,4.56879,4.56879,0,0,1-.52734.09961c-.13281.01465-.26172.02539-.3877.0332h-.0996a5.38065,5.38065,0,0,1-3.02051-.96972,4.19564,4.19564,0,0,1-1.71192-3.23145h2.32715a2.15385,2.15385,0,0,0,2.31641,1.88477A2.04512,2.04512,0,0,0,18.419,27.587a2.684,2.684,0,0,0,.7207-1.42969,9.66631,9.66631,0,0,0,.13281-1.5957,5.33273,5.33273,0,0,0-.12695-1.22461,3.0453,3.0453,0,0,0-.32129-.85938,2.29168,2.29168,0,0,0-.45508-.54882,1.87893,1.87893,0,0,0-.48144-.32129,2.21054,2.21054,0,0,0-.46582-.13867,3.48138,3.48138,0,0,0-.47657-.03321h-.02246a2.29374,2.29374,0,0,0-2.084,1.3418H12.64453V14.0089H21.2793V16.337H14.83887v3.65723a4.03142,4.03142,0,0,1,2.59375-.88672,4.04191,4.04191,0,0,1,2.89355,1.19726A4.59611,4.59611,0,0,1,21.2959,21.87316Zm1.5791,3.83008v-7.127a4.31553,4.31553,0,0,1,1.39746-3.44239,4.8,4.8,0,0,1,6.37891,0,4.31112,4.31112,0,0,1,1.40039,3.44239v7.127a4.28978,4.28978,0,0,1-1.40039,3.43555,4.8116,4.8116,0,0,1-6.37891,0A4.29415,4.29415,0,0,1,22.875,25.70324Zm6.86035-.13281V18.7091a2.52819,2.52819,0,0,0-.625-1.81836,2.40877,2.40877,0,0,0-3.29883,0,2.54282,2.54282,0,0,0-.61914,1.81836v6.86133a2.53776,2.53776,0,0,0,.61914,1.82324,2.422,2.422,0,0,0,3.29883,0A2.52316,2.52316,0,0,0,29.73535,25.57043Z" fill="url(#Beschriftung_schwarz)"/></g></svg>