<svg xmlns="http://www.w3.org/2000/svg" xmlns:xlink="http://www.w3.org/1999/xlink" viewBox="0 0 44 44"><defs><linearGradient id="Beschriftung_schwarz" x1="12.7334" y1="22.13439" x2="32.05176" y2="22.13439" gradientUnits="userSpaceOnUse"><stop offset="0" stop-color="#010101"/><stop offset="0"/></linearGradient></defs><g id="Speedlimit_70"><path id="Beschriftung_schwarz-2" data-name="Beschriftung_schwarz" d="M12.7334,18.7091V14.06457h9.18848V16.381L16.457,30.214H13.86426l5.47461-13.833H15.0498V18.7091ZM22.875,25.70324v-7.127a4.31553,4.31553,0,0,1,1.39746-3.44239,4.8,4.8,0,0,1,6.37891,0,4.31112,4.31112,0,0,1,1.40039,3.44239v7.127a4.28978,4.28978,0,0,1-1.40039,3.43555,4.8116,4.8116,0,0,1-6.37891,0A4.29415,4.29415,0,0,1,22.875,25.70324Zm6.86035-.13281V18.7091a2.52819,2.52819,0,0,0-.625-1.81836,2.40877,2.40877,0,0,0-3.29883,0,2.54282,2.54282,0,0,0-.61914,1.81836v6.86133a2.53776,2.53776,0,0,0,.61914,1.82324,2.422,2.422,0,0,0,3.29883,0A2.52316,2.52316,0,0,0,29.73535,25.57043Z" fill="url(#Beschriftung_schwarz)"/></g></svg>