<svg xmlns="http://www.w3.org/2000/svg" xmlns:xlink="http://www.w3.org/1999/xlink" viewBox="0 0 44 44"><defs><linearGradient id="Beschriftung_schwarz" x1="12.12891" y1="22.09728" x2="32.0791" y2="22.09728" gradientUnits="userSpaceOnUse"><stop offset="0" stop-color="#010101"/><stop offset="0"/></linearGradient></defs><g id="Speedlimit_80"><path id="Beschriftung_schwarz-2" data-name="Beschriftung_schwarz" d="M12.12891,25.46691a4.11687,4.11687,0,0,1,1.90625-3.63574,5.71721,5.71721,0,0,1-1.16895-1.4248,3.63488,3.63488,0,0,1-.44922-1.84571,4.55731,4.55731,0,0,1,1.33594-3.31347A4.4303,4.4303,0,0,1,17.0498,13.8839a4.43248,4.43248,0,0,1,3.29786,1.36329,4.55734,4.55734,0,0,1,1.33593,3.31347,3.60739,3.60739,0,0,1-.45507,1.84571,6.07968,6.07968,0,0,1-1.15235,1.4248,4.13951,4.13951,0,0,1,1.89551,3.63574,4.54361,4.54361,0,0,1-1.458,3.49707,5.13442,5.13442,0,0,1-6.93262,0A4.54914,4.54914,0,0,1,12.12891,25.46691Zm2.3164-.02246a2.3955,2.3955,0,0,0,.78125,1.834,2.65092,2.65092,0,0,0,3.64649,0,2.52409,2.52409,0,0,0,0-3.67383,2.63808,2.63808,0,0,0-3.64649,0A2.41385,2.41385,0,0,0,14.44531,25.44445Zm.28809-6.92773a2.10948,2.10948,0,0,0,.71484,1.72949,2.47864,2.47864,0,0,0,3.20313,0,2.10948,2.10948,0,0,0,.71484-1.72949,2.11162,2.11162,0,0,0-.71484-1.72364,2.46,2.46,0,0,0-3.20313,0A2.11162,2.11162,0,0,0,14.7334,18.51672Zm8.16894,7.14941V18.53918A4.31551,4.31551,0,0,1,24.2998,15.0968a4.8,4.8,0,0,1,6.37891,0,4.3111,4.3111,0,0,1,1.40039,3.44238v7.12695a4.28978,4.28978,0,0,1-1.40039,3.43555,4.8116,4.8116,0,0,1-6.37891,0A4.29415,4.29415,0,0,1,22.90234,25.66613Zm6.86036-.13281V18.672a2.52823,2.52823,0,0,0-.625-1.81836,2.40877,2.40877,0,0,0-3.29883,0,2.54282,2.54282,0,0,0-.61914,1.81836v6.86133a2.53776,2.53776,0,0,0,.61914,1.82324,2.422,2.422,0,0,0,3.29883,0A2.5232,2.5232,0,0,0,29.7627,25.53332Z" fill="url(#Beschriftung_schwarz)"/></g></svg>