<?xml version="1.0" encoding="UTF-8"?>
<svg id="Ebene_1" data-name="Ebene 1" xmlns="http://www.w3.org/2000/svg" xmlns:xlink="http://www.w3.org/1999/xlink" viewBox="0 0 44 44">
  <defs>
    <style>
      .cls-1 {
        fill: url(#Rahmen_schwarz);
      }
    </style>
    <linearGradient id="Rahmen_schwarz" x1="3" y1="22" x2="41" y2="22" gradientUnits="userSpaceOnUse">
      <stop offset="1" stop-color="#fff"/>
      <stop offset="1" stop-color="#fff"/>
    </linearGradient>
  </defs>
  <circle cx="22" cy="22.00024" r="20"/>
  <path class="cls-1" d="m22,3C11.50659,3,3,11.50659,3,22s8.50659,19,19,19,19-8.50659,19-19S32.49341,3,22,3Zm-13.05273,30.61591c-.43774-.49139-.85156-1.00299-1.23248-1.54156L32.07434,7.71478c.53857.38092,1.05017.79474,1.54156,1.23248l-24.66864,24.66864Zm26.07336-23.26721c.43903.49011.85339,1.00104,1.23566,1.53839l-24.3692,24.3692c-.53735-.38226-1.04828-.79663-1.53839-1.23566l24.67194-24.67194Zm-13.02063-5.84869c3.02405,0,5.87079.77197,8.35522,2.12775L6.62775,30.35522c-1.35577-2.48444-2.12775-5.33118-2.12775-8.35522,0-9.64954,7.85046-17.5,17.5-17.5Zm0,35c-3.04156,0-5.90265-.78284-8.39722-2.15326l23.74396-23.74396c1.37042,2.49457,2.15326,5.35565,2.15326,8.39722,0,9.64954-7.85046,17.5-17.5,17.5Z"/>
</svg>