<svg xmlns="http://www.w3.org/2000/svg" xmlns:xlink="http://www.w3.org/1999/xlink" viewBox="0 0 44 53"><defs><linearGradient id="Zusatzschild_Hintergrund_weiss" x1="7" y1="43.125" x2="37" y2="43.125" gradientUnits="userSpaceOnUse"><stop offset="0" stop-color="#fff"/></linearGradient><linearGradient id="Zusatzschild_Rahmen_schwarz" x1="7.24969" y1="43.125" x2="36.74969" y2="43.125" gradientUnits="userSpaceOnUse"><stop offset="0" stop-color="#010101"/><stop offset="0"/></linearGradient><linearGradient id="Zusatzschild_Piktogramm_schwarz" x1="17.16659" y1="43.11785" x2="26.83341" y2="43.11785" xlink:href="#Zusatzschild_Rahmen_schwarz"/></defs><g id="Icy"><path id="Zusatzschild_Hintergrund_weiss-2" data-name="Zusatzschild_Hintergrund_weiss" d="M34.49243,35.125l-24.98508.002A2.515,2.515,0,0,0,7,37.63452v10.9833A2.51451,2.51451,0,0,0,9.50735,51.125l24.98548-.002A2.51477,2.51477,0,0,0,37,48.61568V37.63237A2.51471,2.51471,0,0,0,34.49243,35.125Z" fill="url(#Zusatzschild_Hintergrund_weiss)"/><path id="Zusatzschild_Rahmen_schwarz-2" data-name="Zusatzschild_Rahmen_schwarz" d="M34.49286,35.375l-24.98535.002a2.26018,2.26018,0,0,0-2.25782,2.25782V48.61816A2.26,2.26,0,0,0,9.50751,50.875l24.98535-.002a2.26,2.26,0,0,0,2.25683-2.25782V37.63281A2.26,2.26,0,0,0,34.49286,35.375ZM35.5,48.61523a1.02142,1.02142,0,0,1-1.00732,1.00782l-24.98536.002A1.02057,1.02057,0,0,1,8.5,48.61816V37.63477A1.02142,1.02142,0,0,1,9.50732,36.627l24.98536-.002A1.00859,1.00859,0,0,1,35.5,37.63281Z" fill="url(#Zusatzschild_Rahmen_schwarz)"/><path id="Zusatzschild_Piktogramm_schwarz-2" data-name="Zusatzschild_Piktogramm_schwarz" d="M22,37.53711l.64427.37154v.65162l.564-.32581.64451.37227v.74309l-1.20847.69735V42.002l1.69279-.97741v-1.3947l.6436-.37228.64427.37228v.65161l.5642-.32581.64428.37155v.74381l-.564.32581.564.3258V42.466l-.64428.37155-1.20847-.69735-1.6926.97742,1.6926.97741,1.20848-.69759.64427.37179V44.513l-.564.32581.564.32581v.74308l-.64427.37228-.5642-.32581v.65161l-.64428.37155-.6436-.37155V45.21038L22.64427,44.233V46.1878l1.20848.69808V47.629l-.64452.37227-.564-.32629v.6521L22,48.69859l-.64354-.37154V47.675l-.56469.32629L20.148,47.629v-.74309l1.20847-.69808V44.233l-1.69351.97741v1.39543l-.6436.37155-.64428-.37155V45.9542l-.5642.32581-.64427-.37228v-.74308l.56469-.32581-.56469-.32581v-.74381l.64427-.37179,1.20848.69759,1.69284-.97741-1.69284-.97742-1.20848.69735-.64427-.37155v-.74333l.56469-.3258-.56469-.32581v-.74381l.64427-.37155.5642.32581v-.65161l.64428-.37228.6436.37228v1.3947l1.69351.97741V40.04717L20.148,39.34982v-.74309l.64379-.37227.56469.32581v-.65162" fill="url(#Zusatzschild_Piktogramm_schwarz)"/></g></svg>