<svg xmlns="http://www.w3.org/2000/svg" xmlns:xlink="http://www.w3.org/1999/xlink" viewBox="0 0 44 44"><defs><linearGradient id="Beschriftung_schwarz" x1="11.43262" y1="22.72961" x2="32.66113" y2="22.72961" gradientUnits="userSpaceOnUse"><stop offset="0" stop-color="#010101"/><stop offset="0"/></linearGradient></defs><g id="Ebene_49" data-name="Ebene 49"><path id="Beschriftung_schwarz-2" data-name="Beschriftung_schwarz" d="M11.43262,25.76769v-6.082h1.22461v.65039h.02343a1.92187,1.92187,0,0,1,1.582-.7207,1.93858,1.93858,0,0,1,1.01367.22852,3.644,3.644,0,0,1,.70312.5625,2.4737,2.4737,0,0,1,1.92188-.791,2.13994,2.13994,0,0,1,1.36816.53906,1.91086,1.91086,0,0,1,.65918,1.57031v4.043H18.7041V22.1466a1.29881,1.29881,0,0,0-.3457-.96094,1.16194,1.16194,0,0,0-.85547-.3457,1.17365,1.17365,0,0,0-.87012.3457,1.30527,1.30527,0,0,0-.34277.96094v3.62109H15.07129V22.1466a1.29885,1.29885,0,0,0-.3457-.96094,1.16194,1.16194,0,0,0-.85547-.3457A1.17363,1.17363,0,0,0,13,21.18566a1.30523,1.30523,0,0,0-.34277.96094v3.62109Zm10.14843,2.46094v-8.543h1.22461v.63867a2.03163,2.03163,0,0,1,1.57032-.709,1.942,1.942,0,0,1,.96093.22559,2.17186,2.17186,0,0,1,.668.56543,1.85782,1.85782,0,0,1,.34278.76464,8.93745,8.93745,0,0,1,.09082,1.56153,8.94349,8.94349,0,0,1-.09082,1.55859,1.81207,1.81207,0,0,1-.34278.76172,2.07051,2.07051,0,0,1-.668.56543,1.984,1.984,0,0,1-.96093.21973,1.84472,1.84472,0,0,1-.85254-.19336,3.00929,3.00929,0,0,1-.71778-.52149v3.10547Zm2.42579-3.60937q.86132,0,1.03418-.5918a4.9479,4.9479,0,0,0,0-2.59277Q24.86816,20.84,24.00684,20.84t-1.03125.61523a4.87478,4.87478,0,0,0,0,2.55176Q23.14551,24.61925,24.00684,24.61926Zm3.79687,1.14843V17.23058h1.22461v3.10547h.02344a1.9015,1.9015,0,0,1,1.582-.7207,2.13992,2.13992,0,0,1,1.36816.53906,1.91083,1.91083,0,0,1,.65918,1.57031v4.043H31.43652V22.1466a1.30523,1.30523,0,0,0-.34277-.96094,1.15225,1.15225,0,0,0-.85254-.3457,1.17365,1.17365,0,0,0-.87012.3457,1.30527,1.30527,0,0,0-.34277.96094v3.62109Z" fill="url(#Beschriftung_schwarz)"/></g></svg>