<svg id="Sectional_control" xmlns="http://www.w3.org/2000/svg" xmlns:xlink="http://www.w3.org/1999/xlink" viewBox="0 0 44 53"><defs><style>.cls-1{fill:url(#Zusatzschild_Hintergrund_weiss);}.cls-2{fill:url(#Zusatzschild_Rahmen_schwarz);}.cls-3{fill:url(#Unbenannter_Verlauf_2);}</style><linearGradient id="Zusatzschild_Hintergrund_weiss" x1="7" y1="43.125" x2="37" y2="43.125" gradientUnits="userSpaceOnUse"><stop offset="0" stop-color="#fff"/></linearGradient><linearGradient id="Zusatzschild_Rahmen_schwarz" x1="7.24969" y1="43.125" x2="36.74969" y2="43.125" gradientUnits="userSpaceOnUse"><stop offset="0" stop-color="#010101"/><stop offset="0"/></linearGradient><linearGradient id="Unbenannter_Verlauf_2" x1="827.3805" y1="-744.73011" x2="857.08051" y2="-744.73011" gradientTransform="matrix(0.63, 0, 0, -0.63, -508.60519, -426.07996)" xlink:href="#Zusatzschild_Rahmen_schwarz"/></defs><path id="Zusatzschild_Hintergrund_weiss-2" data-name="Zusatzschild_Hintergrund_weiss" class="cls-1" d="M34.49243,35.125l-24.98508.002A2.515,2.515,0,0,0,7,37.63452v10.9833A2.51451,2.51451,0,0,0,9.50735,51.125l24.98548-.002A2.51477,2.51477,0,0,0,37,48.61568V37.63237A2.51471,2.51471,0,0,0,34.49243,35.125Z"/><path id="Zusatzschild_Rahmen_schwarz-2" data-name="Zusatzschild_Rahmen_schwarz" class="cls-2" d="M34.49286,35.375l-24.98535.002a2.26018,2.26018,0,0,0-2.25782,2.25782V48.61816A2.26,2.26,0,0,0,9.50751,50.875l24.98535-.002a2.26,2.26,0,0,0,2.25683-2.25782V37.63281A2.26,2.26,0,0,0,34.49286,35.375ZM35.5,48.61523a1.02142,1.02142,0,0,1-1.00732,1.00782l-24.98536.002A1.02057,1.02057,0,0,1,8.5,48.61816V37.63477A1.02142,1.02142,0,0,1,9.50732,36.627l24.98536-.002A1.00859,1.00859,0,0,1,35.5,37.63281Z"/><path class="cls-3" d="M26.6,38.2,12.7,41.3,19.8,46l8.1-3.7Zm3.6,4.9-2.9,2.3-.8-1.7-1.8.9L27,48l4.3-3.9Z"/></svg>