<svg id="Speedlimit_questionmark" xmlns="http://www.w3.org/2000/svg" viewBox="0 0 44 44"><g id="V1"><path d="M20.84373,25.66132,20.668,23.342l1.7041-1.65576q.4585-.45411.874-.86914a8.08011,8.08011,0,0,0,.72559-.8252,4.16972,4.16972,0,0,0,.49512-.835,2.22729,2.22729,0,0,0,.18554-.90332,1.38582,1.38582,0,0,0-.18554-.72266,1.576,1.576,0,0,0-.51758-.5249,2.53495,2.53495,0,0,0-.78125-.31982,4.18781,4.18781,0,0,0-.97656-.10742q-.34131,0-.67383.02441-.33252.02416-.6543.07324-.32226.04908-.63183.12207-.31056.07324-.60547.166-.2959.093-.57617.21-.28125.11718-.54981.24414V15.778a5.79775,5.79775,0,0,1,.79785-.36133,7.4328,7.4328,0,0,1,.93555-.27344,9.20283,9.20283,0,0,1,1.0498-.1709,10.9217,10.9217,0,0,1,1.15235-.05859,6.58285,6.58285,0,0,1,.98633.07568,5.34641,5.34641,0,0,1,.96.23682,4.30917,4.30917,0,0,1,.86328.41259,3.038,3.038,0,0,1,.70117.59571,2.651,2.651,0,0,1,.46875.791,2.78358,2.78358,0,0,1,.1709,1.00342,3.90411,3.90411,0,0,1-.11719.97412,4.2444,4.2444,0,0,1-.32519.8667,5.4216,5.4216,0,0,1-.48047.78125,7.82323,7.82323,0,0,1-.584.70313q-.30908.33179-.63672.63965-.32666.30761-.63476.5957l-1.4502,1.29931-.12207,1.77247Zm-.4541,3.97461V27.40936h2.26074v2.22657Z"/></g></svg>