<svg xmlns="http://www.w3.org/2000/svg" xmlns:xlink="http://www.w3.org/1999/xlink" viewBox="0 0 44 53"><defs><linearGradient id="Zusatzschild_Hintergrund_weiss" x1="7" y1="43.125" x2="37" y2="43.125" gradientUnits="userSpaceOnUse"><stop offset="0" stop-color="#fff"/></linearGradient><linearGradient id="Zusatzschild_Rahmen_schwarz" x1="7.24969" y1="43.125" x2="36.74969" y2="43.125" gradientUnits="userSpaceOnUse"><stop offset="0" stop-color="#010101"/><stop offset="0"/></linearGradient><linearGradient id="Zusatzschild_Piktogramm_schwarz" x1="16.15399" y1="43.06226" x2="27.85126" y2="43.06226" xlink:href="#Zusatzschild_Rahmen_schwarz"/></defs><g id="Time"><path id="Zusatzschild_Hintergrund_weiss-2" data-name="Zusatzschild_Hintergrund_weiss" d="M34.49243,35.125l-24.98508.002A2.515,2.515,0,0,0,7,37.63452v10.9833A2.51451,2.51451,0,0,0,9.50735,51.125l24.98548-.002A2.51477,2.51477,0,0,0,37,48.61568V37.63237A2.51471,2.51471,0,0,0,34.49243,35.125Z" fill="url(#Zusatzschild_Hintergrund_weiss)"/><path id="Zusatzschild_Rahmen_schwarz-2" data-name="Zusatzschild_Rahmen_schwarz" d="M34.49286,35.375l-24.98535.002a2.26018,2.26018,0,0,0-2.25782,2.25782V48.61816A2.26,2.26,0,0,0,9.50751,50.875l24.98535-.002a2.26,2.26,0,0,0,2.25683-2.25782V37.63281A2.26,2.26,0,0,0,34.49286,35.375ZM35.5,48.61523a1.02142,1.02142,0,0,1-1.00732,1.00782l-24.98536.002A1.02057,1.02057,0,0,1,8.5,48.61816V37.63477A1.02142,1.02142,0,0,1,9.50732,36.627l24.98536-.002A1.00859,1.00859,0,0,1,35.5,37.63281Z" fill="url(#Zusatzschild_Rahmen_schwarz)"/><path id="Zusatzschild_Piktogramm_schwarz-2" data-name="Zusatzschild_Piktogramm_schwarz" d="M26.13837,38.92871a5.84457,5.84457,0,1,0,1.71289,4.13379A5.85756,5.85756,0,0,0,26.13837,38.92871Zm-.63672,7.63086a4.90288,4.90288,0,0,1-3.10156,1.40924v-.70319H21.5993v.70264a4.85131,4.85131,0,0,1-4.50579-4.50537h.71185v-.80078h-.71185a4.84946,4.84946,0,0,1,4.50579-4.50446v.70758h.80079V38.1571a4.84977,4.84977,0,0,1,4.51165,4.505h-.7138v.80078h.7138A4.89351,4.89351,0,0,1,25.50165,46.55957Zm-3.09571-3.05566,1.97364,1.12793-.39649.69531-2.37793-1.3584V39.4375h.80078Z" fill="url(#Zusatzschild_Piktogramm_schwarz)"/></g></svg>