<svg xmlns="http://www.w3.org/2000/svg" xmlns:xlink="http://www.w3.org/1999/xlink" viewBox="0 0 44 53"><defs><linearGradient id="Zusatzschild_Hintergrund_weiss" x1="7" y1="43.125" x2="37" y2="43.125" gradientUnits="userSpaceOnUse"><stop offset="0" stop-color="#fff"/></linearGradient><linearGradient id="Zusatzschild_Rahmen_schwarz" x1="7.24969" y1="43.125" x2="36.74969" y2="43.125" gradientUnits="userSpaceOnUse"><stop offset="0" stop-color="#010101"/><stop offset="0"/></linearGradient><linearGradient id="Zusatzschild_Piktogramm_schwarz" x1="14.92643" y1="43.26861" x2="29.18242" y2="43.26861" xlink:href="#Zusatzschild_Rahmen_schwarz"/></defs><g id="Wet"><path id="Zusatzschild_Hintergrund_weiss-2" data-name="Zusatzschild_Hintergrund_weiss" d="M34.49243,35.125l-24.98508.002A2.515,2.515,0,0,0,7,37.63452v10.9833A2.51451,2.51451,0,0,0,9.50735,51.125l24.98548-.002A2.51477,2.51477,0,0,0,37,48.61568V37.63237A2.51471,2.51471,0,0,0,34.49243,35.125Z" fill="url(#Zusatzschild_Hintergrund_weiss)"/><path id="Zusatzschild_Rahmen_schwarz-2" data-name="Zusatzschild_Rahmen_schwarz" d="M34.49286,35.375l-24.98535.002a2.26018,2.26018,0,0,0-2.25782,2.25782V48.61816A2.26,2.26,0,0,0,9.50751,50.875l24.98535-.002a2.26,2.26,0,0,0,2.25683-2.25782V37.63281A2.26,2.26,0,0,0,34.49286,35.375ZM35.5,48.61523a1.02142,1.02142,0,0,1-1.00732,1.00782l-24.98536.002A1.02057,1.02057,0,0,1,8.5,48.61816V37.63477A1.02142,1.02142,0,0,1,9.50732,36.627l24.98536-.002A1.00859,1.00859,0,0,1,35.5,37.63281Z" fill="url(#Zusatzschild_Rahmen_schwarz)"/><path id="Zusatzschild_Piktogramm_schwarz-2" data-name="Zusatzschild_Piktogramm_schwarz" d="M18.59976,48.18121l3.2158-3.53434.87976.68414-3.21576,3.53434Zm3.46232,0,3.21576-3.53434.87976.68414-3.21576,3.53434Zm-7.07164,0,3.21581-3.53434.87975.68414-3.21576,3.53434Zm10.90084-4.11969H17.35221c-1.51757,0-2.4248-.80273-2.42578-2.14746a2.41569,2.41569,0,0,1,.73438-1.71679,3.06885,3.06885,0,0,1,2.11523-.81055,2.86143,2.86143,0,0,1,.7168.10547,3.62536,3.62536,0,0,1,3.46484-1.82032,4.03745,4.03745,0,0,1,3.085,1.25782,3.95566,3.95566,0,0,1,1.8916-.02344,2.71391,2.71391,0,0,1,2.23536,2.71191C29.17155,43.01172,27.79167,44.06152,25.89128,44.06152Zm-8.13282-3.6748a1.94549,1.94549,0,0,0-1.39355.52051,1.42079,1.42079,0,0,0-.43848,1.00683c.001.53418.16309,1.14746,1.42578,1.14746h8.53907c1.09863,0,2.28027-.46875,2.28125-1.49609.10156-.9834-.90235-1.52441-1.51172-1.69824a3.3493,3.3493,0,0,0-1.6377.10254l-.32031.10156-.21484-.25781a3.0316,3.0316,0,0,0-2.53028-1.14161,2.64909,2.64909,0,0,0-2.74023,1.623l-.18946.47461-.4707-.20019a2.37938,2.37938,0,0,0-.76758-.18262Z" fill="url(#Zusatzschild_Piktogramm_schwarz)"/></g></svg>