<?xml version="1.0" encoding="UTF-8"?>
<svg id="Ebene_1" data-name="Ebene 1" xmlns="http://www.w3.org/2000/svg" viewBox="0 0 44 44">
  <defs>
    <style>
      .cls-1 {
        fill: #00f300;
      }
    </style>
  </defs>
  <path class="cls-1" d="M2.59,23.40048c-.78556-.79151-.78556-2.06849,0-2.86L20.59,2.54048c.79151-.78556,2.06849-.78556,2.86,0l18,18c.78556,.79151,.78556,2.06849,0,2.86l-18,18c-.79151,.78556-2.06849,.78556-2.86,0L2.59,23.40048Z"/>
  <g>
    <path d="M21.98047,41.15722c-.31445,0-.60986-.12305-.83203-.34473L3.14844,22.81201c-.22314-.22363-.34521-.51855-.34473-.83252,0-.31396,.12256-.60889,.34473-.83057L21.14844,3.14892c.22363-.22314,.51807-.34473,.83154-.34473,.31445,0,.60938,.12207,.83154,.34473l18,18c.45898,.45898,.45898,1.20508,.00098,1.66309l-18.00098,17.99951c-.22314,.22363-.51807,.3457-.83105,.3457h0Z"/>
    <path class="cls-1" d="M21.97999,2.92896c.2808,0,.5447,.10944,.74323,.3083l18.00138,18.00137c.19816,.19848,.30716,.46225,.30692,.74272-.00023,.28046-.10967,.54405-.3083,.74235l-18.00137,18.00138c-.19824,.19792-.4617,.30692-.74184,.30692-.2808,0-.5447-.10944-.74323-.3083L3.2354,22.72232c-.40905-.40973-.4085-1.07586,.00138-1.48506L21.23815,3.23589c.19824-.19792,.4617-.30692,.74184-.30692m0-.25c-.33237,0-.66467,.12662-.91847,.38-.00051,.0005-.00101,.00101-.00152,.00152L3.06,21.06048c-.5081,.50726-.50878,1.33037-.00152,1.83847,.0005,.00051,.00101,.00102,.00152,.00153l18,18c.25388,.2543,.58699,.38152,.92001,.38152,.33237,0,.66467-.12662,.91847-.38,.00051-.00051,.00101-.00101,.00152-.00152l18-18c.5081-.50726,.50879-1.33038,.00152-1.83848-.00051-.00051-.00101-.00101-.00152-.00152L22.9,3.06049c-.25388-.2543-.58699-.38153-.92001-.38153h0Z"/>
  </g>
  <path class="cls-1" d="M14.1,17.00048l-2.12,.374,3.91-5.4,3.63,5.39-1.8-.322v4.79c.246-.101,.466-.182,.677-.28,2.99333-1.39333,5.98333-2.78667,8.97-4.18,.202-.0943,.407-.183,.613-.27,1.25-.532,2.12,.0166,2.13,1.39,.0238,1.74,.00935,3.48,.0099,5.21,.00077,2.46,.00081,4.91667,.00014,7.37v1.02c-1.11,0-3.53-.0322-3.53-.0322,0,0,.00068-6.55,.00062-9.48v-.943c-.404,.182-.73,.325-1.05,.475-3.04,1.41333-6.07667,2.82667-9.11,4.24-1.44,.664-2.32,.0892-2.33-1.51-.00928-2.31-.00257-4.62-.00267-6.93-.00008-.267-.00007-.535-.00007-.916,0,0,.00208,.0042,.00208,.0042Z"/>
</svg>