<?xml version="1.0" encoding="UTF-8"?>
<svg id="Layer_1" data-name="Layer 1" xmlns="http://www.w3.org/2000/svg" viewBox="0 0 40 40">
  <defs>
    <style>
      .cls-1 {
        fill: #fff;
      }
    </style>
  </defs>
  <g id="Logo">
    <path class="cls-1" d="M33.14395,28.73198c.4339,.36158,.50622,1.01243,.14463,1.44633-.65085,.79548-1.37401,1.51864-2.16949,2.16949s-1.66328,1.22938-2.53107,1.73559-1.88022,.8678-2.82034,1.22938c-1.01243,.28927-2.02486,.50622-3.03729,.65085-.50622,.07232-1.08475,.07232-1.66328,.07232-.50622,0-1.08475,0-1.59096-.07232-1.08475-.07232-2.16949-.28927-3.18192-.65085-1.01243-.28927-1.95254-.72316-2.89266-1.22938-.8678-.50622-1.73559-1.08475-2.53107-1.73559s-1.51864-1.37401-2.16949-2.16949-1.22938-1.66328-1.73559-2.53107c-.50622-.94011-.8678-1.88022-1.22938-2.82034-.28927-1.01243-.50621-2.02486-.65085-3.03729-.14463-1.08475-.14463-2.16949,0-3.25424,.07232-1.08475,.28927-2.16949,.65085-3.18192,.28927-1.01243,.72316-1.95254,1.22938-2.89266,.50622-.8678,1.08475-1.73559,1.73559-2.53107s1.37401-1.51864,2.16949-2.16949,1.66328-1.22938,2.53107-1.73559c.8678-.50621,1.88023-.8678,2.82034-1.22938,1.01243-.28927,2.02486-.50621,3.03729-.65085,1.08475-.14463,2.16949-.14463,3.18192,0,1.08475,.07232,2.16949,.28927,3.18192,.65085,1.01243,.28927,1.95254,.72316,2.89266,1.22938,.8678,.50622,1.73559,1.08475,2.53107,1.73559s1.51864,1.37401,2.16949,2.16949c.36158,.4339,.28927,1.08475-.14463,1.44633-.07232,.14463-.28927,.21695-.50622,.21695-.28927,0-.57853-.14463-.79548-.36158-.57853-.72316-1.22938-1.30169-1.88022-1.88023-.65085-.57853-1.44633-1.08475-2.24181-1.51864s-1.66328-.79548-2.53107-1.08475-1.80791-.4339-2.74802-.57853c-.94011-.07232-1.88022-.07232-2.82034,0-.94011,.07232-1.80791,.28927-2.67571,.57853s-1.66328,.65085-2.45876,1.01243c-.79548,.4339-1.51864,.94011-2.24181,1.51864s-1.30169,1.22938-1.88023,1.88023c-.57853,.72316-1.08475,1.44633-1.51864,2.24181s-.79548,1.66328-1.08475,2.53107-.4339,1.80791-.57853,2.74802c-.07232,.94011-.07232,1.88022,0,2.82034,.07232,.94011,.28927,1.80791,.57853,2.67571s.65085,1.66328,1.01243,2.45876c.4339,.79548,.94011,1.51864,1.51864,2.24181,.57853,.65085,1.22938,1.30169,1.88023,1.88022,.72316,.57853,1.44633,1.08475,2.24181,1.51864,.79548,.43389,1.66328,.79548,2.53107,1.08475s1.80791,.4339,2.74802,.57853c.94011,.07232,1.88022,.07232,2.82034,0,.94011-.07232,1.80791-.28927,2.67571-.57853,.8678-.28927,1.66328-.65085,2.45876-1.01243,.79548-.4339,1.51864-.94011,2.24181-1.51864s1.30169-1.22938,1.88022-1.88022c.21695-.21695,.50622-.36158,.79548-.36158,.21695-.07232,.50621,0,.65085,.14463h.00002Zm-15.11412-15.54803c-.21695-.14463-.4339-.14463-.65085,0s-.36158,.36158-.36158,.57853v12.3661c0,.21695,.14463,.4339,.36158,.57853,.07232,.07232,.21695,.07232,.36158,.07232s.21695,0,.36158-.07232l10.70282-6.14689c.21695-.14463,.36158-.36158,.36158-.57853s-.14463-.4339-.36158-.57853l-10.77514-6.21921h.00001Z"/>
  </g>
</svg>