<svg xmlns="http://www.w3.org/2000/svg" viewBox="0 0 40 40"><g id="EA45_flag_india"><rect y="7" width="40" height="26" fill="#f93" /><rect y="15.66667" width="40" height="8.66667" fill="#fff" /><rect y="24.33333" width="40" height="8.66667" fill="#128807" /><circle cx="20" cy="20" r="3.94716" fill="#008" /><circle cx="20" cy="20" r="3.45377" fill="#fff" /><circle cx="20" cy="20" r="0.69075" fill="#008" /><g id="b"><g id="a"><circle cx="23.42422" cy="20.45081" r="0.17269" fill="#008" /><path d="M20,23.45377l.11841-2.07226L20,20.39472l-.11841.98679Z" fill="#008" /></g><g id="a-2" data-name="a"><circle cx="23.19086" cy="21.3217" r="0.17269" fill="#008" /><path d="M19.1061,23.33608l.65072-1.971.141-.98381-.36978.92251Z" fill="#008" /></g></g><g id="c"><g id="b-2" data-name="b"><g id="a-3" data-name="a"><circle cx="22.74006" cy="22.10252" r="0.17269" fill="#008" /><path d="M18.27312,22.99105l1.13868-1.73542.39084-.9138-.59594.79538Z" fill="#008" /></g><g id="a-4" data-name="a"><circle cx="22.10252" cy="22.74006" r="0.17269" fill="#008" /><path d="M17.55782,22.44218l1.549-1.38158.614-.78149-.78149.614Z" fill="#008" /></g></g></g><g id="d"><g id="b-3" data-name="b"><g id="a-5" data-name="a"><circle cx="21.3217" cy="23.19086" r="0.17269" fill="#008" /><path d="M17.009,21.72688l1.85384-.93358.79538-.59594-.9138.39084Z" fill="#008" /></g><g id="a-6" data-name="a"><circle cx="20.45081" cy="23.42422" r="0.17269" fill="#008" /><path d="M16.66392,20.8939l2.0323-.422.92251-.36978-.98381.141Z" fill="#008" /></g></g><g id="c-2" data-name="c"><g id="b-4" data-name="b"><g id="a-7" data-name="a"><circle cx="19.54919" cy="23.42422" r="0.17269" fill="#008" /><path d="M16.54623,20l2.07226.11841L19.60528,20l-.98679-.11841Z" fill="#008" /></g><g id="a-8" data-name="a"><circle cx="18.6783" cy="23.19086" r="0.17269" fill="#008" /><path d="M16.66392,19.1061l1.971.65072.98381.141-.92251-.36978Z" fill="#008" /></g></g></g></g><g id="b-5" data-name="b"><g id="a-9" data-name="a"><circle cx="17.89748" cy="22.74006" r="0.17269" fill="#008" /><path d="M17.009,18.27312l1.73542,1.13868.9138.39084-.79538-.59594Z" fill="#008" /></g><g id="a-10" data-name="a"><circle cx="17.25994" cy="22.10252" r="0.17269" fill="#008" /><path d="M17.55782,17.55782l1.38158,1.549.78149.614-.614-.78149Z" fill="#008" /></g></g><g id="c-3" data-name="c"><g id="b-6" data-name="b"><g id="a-11" data-name="a"><circle cx="16.80914" cy="21.3217" r="0.17269" fill="#008" /><path d="M18.27312,17.009l.93358,1.85384.59594.79538-.39084-.9138Z" fill="#008" /></g><g id="a-12" data-name="a"><circle cx="16.57578" cy="20.45081" r="0.17269" fill="#008" /><path d="M19.1061,16.66392l.422,2.0323.36978.92251-.141-.98381Z" fill="#008" /></g></g></g><g id="d-2" data-name="d"><g id="b-7" data-name="b"><g id="a-13" data-name="a"><circle cx="16.57578" cy="19.54919" r="0.17269" fill="#008" /><path d="M20,16.54623l-.11841,2.07226L20,19.60528l.11841-.98679Z" fill="#008" /></g><g id="a-14" data-name="a"><circle cx="16.80914" cy="18.6783" r="0.17269" fill="#008" /><path d="M20.8939,16.66392l-.65072,1.971-.141.98381.36978-.92251Z" fill="#008" /></g></g><g id="c-4" data-name="c"><g id="b-8" data-name="b"><g id="a-15" data-name="a"><circle cx="17.25994" cy="17.89748" r="0.17269" fill="#008" /><path d="M21.72688,17.009,20.5882,18.74437l-.39084.9138.59594-.79538Z" fill="#008" /></g><g id="a-16" data-name="a"><circle cx="17.89748" cy="17.25994" r="0.17269" fill="#008" /><path d="M22.44218,17.55782l-1.549,1.38158-.614.78149.78149-.614Z" fill="#008" /></g></g></g></g><g id="b-9" data-name="b"><g id="a-17" data-name="a"><circle cx="18.6783" cy="16.80914" r="0.17269" fill="#008" /><path d="M22.99105,18.27312l-1.85384.93358-.79538.59594.9138-.39084Z" fill="#008" /></g><g id="a-18" data-name="a"><circle cx="19.54919" cy="16.57578" r="0.17269" fill="#008" /><path d="M23.33608,19.1061l-2.0323.422-.92251.36978.98381-.141Z" fill="#008" /></g></g><g id="c-5" data-name="c"><g id="b-10" data-name="b"><g id="a-19" data-name="a"><circle cx="20.45081" cy="16.57578" r="0.17269" fill="#008" /><path d="M23.45377,20l-2.07226-.11841L20.39472,20l.98679.11841Z" fill="#008" /></g><g id="a-20" data-name="a"><circle cx="21.3217" cy="16.80914" r="0.17269" fill="#008" /><path d="M23.33608,20.8939l-1.971-.65072-.98381-.141.92251.36978Z" fill="#008" /></g></g></g><g id="d-3" data-name="d"><g id="b-11" data-name="b"><g id="a-21" data-name="a"><circle cx="22.10252" cy="17.25994" r="0.17269" fill="#008" /><path d="M22.99105,21.72688,21.25563,20.5882l-.9138-.39084.79538.59594Z" fill="#008" /></g><g id="a-22" data-name="a"><circle cx="22.74006" cy="17.89748" r="0.17269" fill="#008" /><path d="M22.44218,22.44218l-1.38158-1.549-.78149-.614.614.78149Z" fill="#008" /></g></g><g id="c-6" data-name="c"><g id="b-12" data-name="b"><g id="a-23" data-name="a"><circle cx="23.19086" cy="18.6783" r="0.17269" fill="#008" /><path d="M21.72688,22.99105l-.93358-1.85384-.59594-.79538.39084.9138Z" fill="#008" /></g><g id="a-24" data-name="a"><circle cx="23.42422" cy="19.54919" r="0.17269" fill="#008" /><path d="M20.8939,23.33608l-.422-2.0323-.36978-.92251.141.98381Z" fill="#008" /></g></g></g></g></g></svg>