<?xml version="1.0" encoding="UTF-8"?>
<svg id="Ebene_1" data-name="Ebene 1" xmlns="http://www.w3.org/2000/svg" xmlns:xlink="http://www.w3.org/1999/xlink" viewBox="0 0 44 53">
  <defs>
    <style>
      .cls-1 {
        fill: url(#Zusatzschild_Rahmen_schwarz);
      }

      .cls-2 {
        fill: url(#Unbenannter_Verlauf);
      }

      .cls-3 {
        fill: url(#Zusatzschild_Hintergrund_weiss);
      }

      .cls-4 {
        fill: url(#Zusatzschild_Rahmen_schwarz-2);
      }
    </style>
    <linearGradient id="Unbenannter_Verlauf" data-name="Unbenannter Verlauf" x1="7" y1="10.8435" x2="37" y2="10.8435" gradientTransform="translate(0 53.96875) scale(1 -1)" gradientUnits="userSpaceOnUse">
      <stop offset="0" stop-color="#fff"/>
      <stop offset="1" stop-color="#000"/>
    </linearGradient>
    <linearGradient id="Zusatzschild_Hintergrund_weiss" x1="7.3999" y1="10.84399" x2="36.59961" y2="10.84399" gradientTransform="translate(0 53.96875) scale(1 -1)" gradientUnits="userSpaceOnUse">
      <stop offset="1" stop-color="#fff"/>
      <stop offset="1" stop-color="#000"/>
    </linearGradient>
    <linearGradient id="Zusatzschild_Rahmen_schwarz" x1="6.99969" y1="43.12524" x2="36.99969" y2="43.12524" gradientUnits="userSpaceOnUse">
      <stop offset="1" stop-color="#000"/>
      <stop offset="1" stop-color="#010101"/>
    </linearGradient>
    <linearGradient id="Zusatzschild_Rahmen_schwarz-2" data-name="Zusatzschild_Rahmen_schwarz" x1="16.16212" y1="10.906" x2="27.85126" y2="10.906" gradientTransform="translate(0 53.96875) scale(1 -1)" xlink:href="#Zusatzschild_Rahmen_schwarz"/>
  </defs>
  <path id="Zusatzschild_Hintergrund_weiss-2" data-name="Zusatzschild Hintergrund weiss-2" class="cls-2" d="M34.49243,35.12524l-24.98508,.002c-1.38309,.0042-2.50325,1.12443-2.50735,2.50752v10.9833c.00403,1.38307,1.12428,2.50325,2.50735,2.50718l24.98548-.002c1.383-.00417,2.50308-1.12432,2.50717-2.50732v-10.98331c-.00403-1.38319-1.12438-2.50345-2.50757-2.50737Z"/>
  <path class="cls-3" d="M9.5083,50.72436c-1.15918-.00293-2.10498-.94824-2.1084-2.10742v-10.98242c.00342-1.1582,.94922-2.10352,2.1084-2.10645l24.98389-.00293c1.1582,.00391,2.10449,.9502,2.10742,2.1084v10.98242c-.00293,1.1582-.94824,2.10352-2.10742,2.10645l-24.98389,.00195Z"/>
  <path id="Zusatzschild_Rahmen_schwarz-2" data-name="Zusatzschild Rahmen schwarz-2" class="cls-1" d="M34.70253,36.62524c.43911,.00067,.79672,.37391,.79715,.83064v11.33522c-.00043,.45818-.35807,.83145-.7952,.83208l-25.40724,.00206c-.43915-.00043-.79693-.37353-.79756-.82964v-11.3361c.00047-.45841,.35831-.83173,.79621-.8322l25.40664-.00206m.00208-1.5l-25.40883,.00206c-1.26755,.00135-2.29477,1.04403-2.29609,2.33066v11.33764c.00177,1.28627,1.02889,2.3284,2.29609,2.32964l25.40883-.00206c1.26719-.00181,2.29386-1.04439,2.29508-2.33066v-11.33664c-.00122-1.28627-1.02789-2.32884-2.29508-2.33064h0Z"/>
  <g id="Time">
    <path id="Zusatzschild_Piktogramm_schwarz-2" data-name="Zusatzschild Piktogramm schwarz-2" class="cls-4" d="M26.13837,38.92895c-2.28303-2.28186-5.98361-2.28092-8.26547,.00211-2.28186,2.28303-2.28092,5.98361,.00211,8.26547s5.98361,2.28092,8.26547-.00211c1.09542-1.09598,1.71078-2.58212,1.71078-4.13168-.00142-1.55031-.61738-3.03683-1.71289-4.13379Zm-.63672,7.63086c-.83217,.82537-1.9325,1.32532-3.10156,1.40924v-.70319h-.80079v.70264c-2.4159-.16671-4.33885-2.08949-4.50579-4.50537h.71185v-.80078h-.71185c.16659-2.41589,2.08986-4.33858,4.50579-4.50446v.70758h.80079v-.70813c2.41835,.16324,4.34484,2.08689,4.51165,4.505h-.7138v.80078h.7138c-.08447,1.16767-.58477,2.26637-1.41009,3.09669Zm-3.09571-3.05566l1.97364,1.12793-.39649,.69531-2.37793-1.3584v-4.53125h.80078v4.06641Z"/>
  </g>
</svg>