<?xml version="1.0" encoding="UTF-8"?>
<svg id="Ebene_1" data-name="Ebene 1" xmlns="http://www.w3.org/2000/svg" xmlns:xlink="http://www.w3.org/1999/xlink" viewBox="0 0 44 53">
  <defs>
    <style>
      .cls-1 {
        fill: url(#Zusatzschild_Rahmen_schwarz);
      }

      .cls-2 {
        fill: url(#Unbenannter_Verlauf);
      }

      .cls-3 {
        fill: url(#Zusatzschild_Hintergrund_weiss);
      }

      .cls-4 {
        fill: url(#Zusatzschild_Rahmen_schwarz-2);
      }
    </style>
    <linearGradient id="Unbenannter_Verlauf" data-name="Unbenannter Verlauf" x1="7" y1="10.8435" x2="37" y2="10.8435" gradientTransform="translate(0 53.96875) scale(1 -1)" gradientUnits="userSpaceOnUse">
      <stop offset="0" stop-color="#fff"/>
      <stop offset="1" stop-color="#000"/>
    </linearGradient>
    <linearGradient id="Zusatzschild_Hintergrund_weiss" x1="7.3999" y1="10.84399" x2="36.59961" y2="10.84399" gradientTransform="translate(0 53.96875) scale(1 -1)" gradientUnits="userSpaceOnUse">
      <stop offset="1" stop-color="#fff"/>
      <stop offset="1" stop-color="#000"/>
    </linearGradient>
    <linearGradient id="Zusatzschild_Rahmen_schwarz" x1="6.99969" y1="43.12524" x2="36.99969" y2="43.12524" gradientUnits="userSpaceOnUse">
      <stop offset="1" stop-color="#000"/>
      <stop offset="1" stop-color="#010101"/>
    </linearGradient>
    <linearGradient id="Zusatzschild_Rahmen_schwarz-2" data-name="Zusatzschild_Rahmen_schwarz" x1="9.52654" y1="10.84361" x2="34.47354" y2="10.84361" gradientTransform="translate(0 53.96875) scale(1 -1)" xlink:href="#Zusatzschild_Rahmen_schwarz"/>
  </defs>
  <path id="Zusatzschild_Hintergrund_weiss-2" data-name="Zusatzschild Hintergrund weiss-2" class="cls-2" d="M34.49243,35.12524l-24.98508,.002c-1.38309,.0042-2.50325,1.12443-2.50735,2.50752v10.9833c.00403,1.38307,1.12428,2.50325,2.50735,2.50718l24.98548-.002c1.383-.00417,2.50308-1.12432,2.50717-2.50732v-10.98331c-.00403-1.38319-1.12438-2.50345-2.50757-2.50737Z"/>
  <path class="cls-3" d="M9.5083,50.72436c-1.15918-.00293-2.10498-.94824-2.1084-2.10742v-10.98242c.00342-1.1582,.94922-2.10352,2.1084-2.10645l24.98389-.00293c1.1582,.00391,2.10449,.9502,2.10742,2.1084v10.98242c-.00293,1.1582-.94824,2.10352-2.10742,2.10645l-24.98389,.00195Z"/>
  <path id="Zusatzschild_Rahmen_schwarz-2" data-name="Zusatzschild Rahmen schwarz-2" class="cls-1" d="M34.70253,36.62524c.43911,.00067,.79672,.37391,.79715,.83064v11.33522c-.00043,.45818-.35807,.83145-.7952,.83208l-25.40724,.00206c-.43915-.00043-.79693-.37353-.79756-.82964v-11.3361c.00047-.45841,.35831-.83173,.79621-.8322l25.40664-.00206m.00208-1.5l-25.40883,.00206c-1.26755,.00135-2.29477,1.04403-2.29609,2.33066v11.33764c.00177,1.28627,1.02889,2.3284,2.29609,2.32964l25.40883-.00206c1.26719-.00181,2.29386-1.04439,2.29508-2.33066v-11.33664c-.00122-1.28627-1.02789-2.32884-2.29508-2.33064h0Z"/>
  <path id="Zusatzschild_Piktogramm_schwarz-2" data-name="Zusatzschild Piktogramm schwarz-2" class="cls-4" d="M13.517,45.00851c-.00005,.71069-.57622,1.28678-1.28691,1.28673s-1.28678-.57622-1.28673-1.28691c.00005-.71069,.57622-1.28678,1.28691-1.28673h.00006c.71067,.00008,1.28673,.57624,1.28667,1.28691Zm12.50052-.24527c-.0575,.12476-.12525,.23132-.24579,.24243h-.718c.01351-.86889-.67991-1.58422-1.54881-1.59773s-1.58422,.67991-1.59773,1.54881c-.00025,.01631-.00025,.03262,0,.04893H13.82319c.0038-.8755-.70286-1.58831-1.57836-1.59211-.8755-.0038-1.58831,.70286-1.59211,1.57836-.00002,.00459-.00002,.00917,0,.01375h-.876c-.07476-.035-.142-.00262-.24072-.25354l-.00946-1.56531c.0325-.09999,.09445-.18783,.17773-.252l4.55042-.75586,2.081-2.08484c.06602-.09385,.17623-.14644,.29071-.13873h6.22541l3.09393,2.45667c.0275,.05513,.04765,.11363,.05994,.174l.01184,2.17718Zm-6.69391-4.152h-2.75733c-.06085-.009-.08825,.032-.12329,.06153l-1.55072,1.53033h.00006c-.06823,.11932-.046,.21753,.11811,.28241h4.31317v-1.87427Zm4.28412,1.40033l-1.3288-1.33833c-.03509-.02978-.06256-.0708-.12341-.06182h-2.31958v1.87432h3.95331c.18707-.03738-.0589-.2897-.18152-.47415v-.00002Zm-.14064,1.70953c-.71069,.00005-1.28678,.57622-1.28673,1.28691,.00005,.71069,.57622,1.28678,1.28691,1.28673,.71061-.00005,1.28667-.5761,1.28673-1.28671,.00008-.71066-.57595-1.28683-1.28661-1.28691h-.0003v-.00002Zm6.1103,.633h-2.031v.33121h-1.25712v.33546h3.18067c.00281-.2263,.03902-.45095,.10745-.66667Zm1.45031-.63206c-.71067,.00006-1.28674,.57623-1.28667,1.28691,.00006,.71067,.57623,1.28674,1.28691,1.28667,.71058-.00007,1.2866-.57609,1.28667-1.28667-.00003-.71072-.57619-1.28685-1.28691-1.28686v-.00005Zm-1.249,.34588c.42221-.68806,1.32227-.90357,2.01033-.48136,.1961,.12033,.36102,.28526,.48136,.48136h2.201v-2.95238c-.10036-.45145-.29872-.48606-.46091-.52794h-5.94963c-.28801,.03203-.50684,.27393-.50994,.5637v2.91667l2.22779-.00006Zm2.6349,.28618c.09116,.21171,.14707,.43691,.16552,.66667h1.57454l.31988-.66667h-2.05994Z"/>
</svg>