<?xml version="1.0" encoding="UTF-8"?>
<svg id="Ebene_1" data-name="Ebene 1" xmlns="http://www.w3.org/2000/svg" xmlns:xlink="http://www.w3.org/1999/xlink" viewBox="0 0 44 53">
  <defs>
    <style>
      .cls-1 {
        fill: url(#Zusatzschild_Rahmen_schwarz);
      }

      .cls-2 {
        fill: url(#Zusatzschild_Hintergrund_weiss);
      }

      .cls-3 {
        fill: url(#Unbenannter_Verlauf_5);
      }

      .cls-4 {
        fill: url(#Zusatzschild_Rahmen_schwarz-2);
      }
    </style>
    <linearGradient id="Unbenannter_Verlauf_5" data-name="Unbenannter Verlauf 5" x1="0" y1="10.8435" x2="44" y2="10.8435" gradientTransform="translate(0 53.96875) scale(1 -1)" gradientUnits="userSpaceOnUse">
      <stop offset="0" stop-color="#fff"/>
      <stop offset="1" stop-color="#000"/>
    </linearGradient>
    <linearGradient id="Zusatzschild_Hintergrund_weiss" x1=".3999" y1="10.84399" x2="43.59961" y2="10.84399" gradientTransform="translate(0 53.96875) scale(1 -1)" gradientUnits="userSpaceOnUse">
      <stop offset="1" stop-color="#fff"/>
      <stop offset="1" stop-color="#000"/>
    </linearGradient>
    <linearGradient id="Zusatzschild_Rahmen_schwarz" x1="-.00031" y1="43.12524" x2="43.99969" y2="43.12524" gradientUnits="userSpaceOnUse">
      <stop offset="1" stop-color="#000"/>
      <stop offset="1" stop-color="#010101"/>
    </linearGradient>
    <linearGradient id="Zusatzschild_Rahmen_schwarz-2" data-name="Zusatzschild_Rahmen_schwarz" x1="3.73916" y1="10.78712" x2="40.733" y2="10.78712" gradientTransform="translate(0 53.96875) scale(1 -1)" xlink:href="#Zusatzschild_Rahmen_schwarz"/>
  </defs>
  <path id="Zusatzschild_Hintergrund_weiss-2" data-name="Zusatzschild Hintergrund weiss-2" class="cls-3" d="M41.49243,35.12524l-38.98508,.002c-1.38309,.0042-2.50325,1.12443-2.50735,2.50752v10.9833c.00403,1.38307,1.12428,2.50325,2.50735,2.50718l38.98548-.002c1.383-.00417,2.50308-1.12432,2.50717-2.50732v-10.98331c-.00403-1.38319-1.12438-2.50345-2.50757-2.50737Z"/>
  <path class="cls-2" d="M2.5083,50.72436c-1.15918-.00293-2.10498-.94824-2.1084-2.10742v-10.98242c.00342-1.1582,.94922-2.10352,2.1084-2.10645l38.98389-.00293c1.1582,.00391,2.10449,.9502,2.10742,2.1084v10.98242c-.00293,1.1582-.94824,2.10352-2.10742,2.10645l-38.98389,.00195Z"/>
  <path id="Zusatzschild_Rahmen_schwarz-2" data-name="Zusatzschild Rahmen schwarz-2" class="cls-1" d="M41.70253,36.62524c.43911,.00067,.79672,.37391,.79715,.83064v11.33522c-.00043,.45818-.35807,.83145-.7952,.83208l-39.40724,.00206c-.43915-.00043-.79693-.37353-.79756-.82964v-11.3361c.00047-.45841,.35831-.83173,.79621-.8322l39.40664-.00206m.00208-1.5l-39.40883,.00206C1.02823,35.12865,.00101,36.17133-.00031,37.45796v11.33764c.00177,1.28627,1.02889,2.3284,2.29609,2.32964l39.40883-.00206c1.26719-.00181,2.29386-1.04439,2.29508-2.33066v-11.33664c-.00122-1.28627-1.02789-2.32884-2.29508-2.33064h0Z"/>
  <path class="cls-4" d="M21.9995,38.7401l.52186,.301v.52781l.45684-.2639,.52205,.30153v.60191l-.97886,.56485v1.58341l1.37116-.7917v-1.12976l.52132-.30155,.52186,.30155v.5278l.457-.26391,.52186,.301v.60249l-.45684,.2639,.45684,.2639v.6021l-.52186,.301-.97886-.56485-1.371,.79171,1.371,.7917,.97887-.565,.52186,.30115v.60245l-.45684,.26391,.45684,.26391v.60174l-.52186,.30155-.457-.26391v.52781l-.52187,.301-.52132-.301v-1.13024l-1.37119-.79167v1.58338l.97887,.56545v.60193l-.52206,.30153-.45684-.26429v.5282l-.52183,.30092-.52127-.301v-.52816l-.4574,.2643-.52145-.30155v-.60191l.97886-.56544v-1.58335l-1.37174,.7917v1.1303l-.52132,.301-.52187-.301v-.52783l-.457,.2639-.52186-.30154v-.6019l.4574-.26391-.4574-.2639v-.60249l.52186-.30115,.97887,.565,1.3712-.7917-1.3712-.79171-.97887,.56485-.52186-.301v-.60209l.4574-.2639-.4574-.26391v-.60248l.52186-.301,.457,.2639v-.52768l.52187-.30155,.52132,.30155v1.12971l1.37174,.7917v-1.58341l-.97886-.56485v-.60191l.52147-.30153,.4574,.2639v-.52781l.52125-.30094Zm-13.14425,5.998l-1.56349,3.54063,.8515,.29979,1.56346-3.54064-.85147-.2998v.00003Zm3.02242-1.52621l-1.56345,3.54064,.85147,.2998,1.56346-3.54064-.85148-.2998Zm-2.93254-4.42717c.72116,.03158,1.37989,.41819,1.75909,1.03241l.32361,.46076,.55927-.03027c.05981-.00324,.1181-.0069,.17651-.0069,.36929-.01353,.73129,.10516,1.02087,.33472,.20796,.17313,.32873,.42936,.3299,.69995,.00015,.05644-.00558,.11274-.01709,.168l-.18683,.92529,.913,.23987c.14582,.03457,.28283,.09918,.40228,.18969,.12894,.10094,.20538,.25473,.208,.41846-.01875,.26432-.15737,.50555-.37629,.65485-.22355,.15717-.47932,.26255-.74871,.30847l-.47183,1.06822c.65912,.00362,1.3023-.2026,1.83643-.58881,.46231-.33714,.74296-.86894,.76038-1.44086-.00106-.46912-.2165-.91201-.5849-1.20245-.22808-.17747-.49083-.30514-.77131-.37476,.02526-.12332,.03762-.24893,.03687-.37481-.00316-.55911-.25098-1.0888-.67816-1.44953-.47013-.38693-1.06392-.59152-1.67261-.57629-.07806,0-.15607,.00433-.23614,.00867-.56422-.88668-1.53177-1.43547-2.58234-1.46467l-.02313,.00007c-1.58459,.06047-2.90689,1.22961-3.161,2.79486-1.1706,.13958-2.0447,1.14392-2.02138,2.32258-.00411,.59118,.20908,1.16328,.59906,1.6076,.27513,.29972,.62799,.51728,1.01935,.62848l.41553-.94092c-.26193-.04075-.50372-.16492-.68945-.35406-.22626-.26089-.34885-.59579-.34449-.9411-.00572-.34591,.12129-.68086,.35492-.936,.21871-.22104,.506-.36126,.81482-.3977l.68988-.10352,.14112-.68316c.15963-1.1041,1.07827-1.94088,2.19244-1.99707l.01233-.00007Zm-1.86252,4.42815l-1.56349,3.54065,.8515,.29979,1.56346-3.54063-.85147-.29981Zm33.0654-.50518c-.22808-.17745-.49083-.3051-.7713-.37469,.02526-.12334,.03761-.24898,.03686-.37488-.00314-.55911-.25096-1.08881-.67816-1.44953-.47011-.3869-1.06388-.59147-1.67254-.57623-.07813,0-.15613,.00433-.23621,.00867-.5061-.95477-1.52226-1.52697-2.60107-1.46466-1.56749,.10447-2.86759,1.25243-3.16535,2.79492-1.17067,.13947-2.04483,1.14391-2.02136,2.32263-.00415,.59118,.20901,1.16329,.599,1.60761,.19991,.2223,.44386,.40059,.71637,.52355l-.00925-1.25457c-.19809-.24925-.30597-.55821-.30609-.87659-.00574-.34589,.12125-.68085,.35486-.936,.21872-.22108,.50603-.36132,.81488-.39777l.68988-.10352,.141-.68316c.19934-1.08005,1.09238-1.89593,2.186-1.99713,.75021-.06157,1.45948,.35028,1.77789,1.03235l.3241,.46075,.55926-.03027c.05963-.00324,.11774-.00684,.176-.00684,.36927-.01355,.73126,.10514,1.02081,.33472,.20802,.17307,.32883,.42929,.33,.69989,.00009,.05644-.00564,.11274-.01709,.168l-.18689,.92529,.913,.23987c.14582,.03459,.28283,.09919,.40228,.1897,.12894,.10097,.2054,.25476,.20807,.41851-.01877,.2643-.15738,.5055-.37628,.65479-.39518,.27418-.87001,.40984-1.3504,.3858h-.67128l.00427,1h.66706c.70381,.02599,1.39604-.18451,1.96624-.5979,.4623-.33715,.74296-.86893,.76043-1.44085-.00114-.46912-.21661-.912-.585-1.20245h.00001Zm-8.01157,.34565l5.11175-.00174,.00378,.90028-5.10889,.00177-.00664-.90031Zm-.8504,1.97145l5.11176-.00173,.00377,.90028-5.10889,.00176-.00664-.90031Zm1.41733,2.00551l5.11175-.00173,.00378,.90028-5.10891,.00176-.00663-.90031Z"/>
</svg>