<svg xmlns="http://www.w3.org/2000/svg" viewBox="0 0 44 44"><defs><style>.cls-1,.cls-4,.cls-5{fill:#fff;}.cls-2{fill:#1f4aff;}.cls-3{fill:#005bac;}.cls-4,.cls-5,.cls-6{stroke:#000;}.cls-4,.cls-5{stroke-miterlimit:10;}.cls-4,.cls-6{stroke-width:1.2px;}.cls-6{fill:none;stroke-linejoin:round;}</style></defs><circle class="cls-1" cx="22" cy="22" r="20" /><circle class="cls-2" cx="22" cy="22" r="19.3" /><ellipse class="cls-1" cx="25.5" cy="22" rx="6.5" ry="13" /><path class="cls-3" d="m25.5 9.5c3.25 0 6 5.72 6 12.5s-2.75 12.5-6 12.5-6-5.72-6-12.5 2.75-12.5 6-12.5m0-1c-3.87 0-7 6.04-7 13.5s3.13 13.5 7 13.5 7-6.04 7-13.5-3.13-13.5-7-13.5z" /><path class="cls-4" d="m25.5 8.5h-7c-3.87 0-7 6.04-7 13.5s3.13 13.5 7 13.5h7" /><ellipse class="cls-4" cx="25.5" cy="22" rx="7" ry="13.5" /><line class="cls-4" x1="25.5" x2="25.5" y1="8.5" y2="35.5" /><line class="cls-4" x1="18.5" x2="32.5" y1="22" y2="22" /><line class="cls-4" x1="21.5" x2="29.5" y1="10.9" y2="33.1" /><line class="cls-4" x1="19.3" x2="31.7" y1="15.9" y2="28.1" /><line class="cls-5" x1="29.5" x2="21.5" y1="10.9" y2="33.1" /><line class="cls-5" x1="31.7" x2="19.3" y1="15.9" y2="28.1" /><path class="cls-1" d="m25.5 29.9c-1.37 0-2.9-3.25-2.9-7.9 0-4.66 1.53-7.9 2.9-7.9 1.37 0 2.9 3.24 2.9 7.9 0 4.66-1.53 7.9-2.9 7.9z" /><path d="m25.5 14.7c0.688 0 2.3 2.48 2.3 7.3s-1.61 7.3-2.3 7.3-2.3-2.48-2.3-7.3 1.61-7.3 2.3-7.3m0-1.2c-1.93 0-3.5 3.81-3.5 8.5s1.57 8.5 3.5 8.5 3.5-3.81 3.5-8.5-1.57-8.5-3.5-8.5z" /><path d="m22.8 26.9c1.14 0 2.06-2.19 2.06-4.89s-0.922-4.89-2.06-4.89l-0.733 2.41-0.156 3.32 0.226 2.13z" /><polyline class="cls-6" points="17.3 8.7 21.5 10.9 13.9 11.8 19.3 15.9 11.8 18.2 18.5 22" /><polyline class="cls-6" points="17.3 35.3 21.5 33.1 13.9 32.2 19.3 28.1 11.8 25.8 18.5 22" /></svg>