<svg xmlns="http://www.w3.org/2000/svg" viewBox="0 0 44 44"><title>icid-wrongwaydriv_d0</title><g id="icid-wrongwaydriv_d0"><g id="Ebene_1-2" data-name="Ebene 1-2"><path d="M3.83508,39.59545a1.50391,1.50391,0,0,1-1.1-.4,1.74623,1.74623,0,0,1-.7-1.4,1.884,1.884,0,0,1,.2-.8l18.3-31.7a1.85862,1.85862,0,0,1,1.5-.9,1.64981,1.64981,0,0,1,1.5.9l18.2,31.6a1.486,1.486,0,0,1,.2.9,1.97434,1.97434,0,0,1-.6,1.4,1.50386,1.50386,0,0,1-1.1.4Z" fill="none"/><path d="M3.83508,39.09545a1.13548,1.13548,0,0,1-.8-.3,1.2308,1.2308,0,0,1-.5-1,1.07829,1.07829,0,0,1,.2-.7l18.2-31.5a1.30833,1.30833,0,0,1,2.2,0l18.2,31.6a1.4214,1.4214,0,0,1,.2.6,1.38856,1.38856,0,0,1-.5,1,1.32985,1.32985,0,0,1-.8.3Z" fill="#e52421"/><polygon points="8.135 35.295 22.035 11.295 35.935 35.295 8.135 35.295" fill="#fff"/></g><path d="M28.33233,33.13415v.914a.67074.67074,0,0,0,.659.68229l.00659.00008.583-.00762a.67075.67075,0,0,0,.66565-.6758l-.00009-.00663v-.90632Z"/><path d="M20.66279,33.13415v.914a.67069.67069,0,0,0,.65887.68229l.00663.00008.567-.00465a.67079.67079,0,0,0,.66565-.67588l-.00009-.00655v-.90929Z"/><path d="M30.53753,29.44037l-1.744-3.13407H22.22208l-1.744,3.13407c-.25272.08428-.41279.1685-.41279.5055v1.77765c0,.39987.22824.86942.46031.91752H30.55551v.00931c.246-.02373.47909-.50759.47909-.92683V29.94587a.49986.49986,0,0,0-.4942-.50547Zm-9.05685-.58978,1.0784-2.12308h5.90585l1.07841,2.12308Z"/><path d="M20.44535,27.28485l1.03533-1.704,4.2158.00119a4.91392,4.91392,0,0,0,.99843-2.95854,4.80053,4.80053,0,1,0-9.59916-.19093q-.00189.09545,0,.19093A4.91583,4.91583,0,0,0,20.44535,27.28485Z" fill="#e52421"/><rect x="18.66963" y="21.83528" width="6.65398" height="1.28993" fill="#fff"/><path d="M14.87658,32.29745v.00029h1.56995v-.00029l3.14-.0317a1.68257,1.68257,0,0,1-.16355-.973v-2.106a.76026.76026,0,0,1,.05124-.2921l-3.93975.022.95242-1.875h1.987v-.37207h-2.2846l-1.54021,2.768c-.22323.07445-.36456.14884-.36456.44646V31.454c0,.372.22317.82592.439.82592Zm1.32258-2.58a.78576.78576,0,1,0,0,.00007Z"/><path d="M14.87658,32.69066v.827a.59237.59237,0,0,0,.58192.60262l.00588.00007h.39435a.59239.59239,0,0,0,.58787-.59689l-.00007-.0058v-.827Z"/></g></svg>