<svg xmlns="http://www.w3.org/2000/svg" viewBox="0 0 44 44"><title>icid-slowtraffic_d0</title><g id="icid-slowtraffic_d0"><g id="Ebene_1-2" data-name="Ebene 1-2"><path d="M3.83508,39.59545a1.50391,1.50391,0,0,1-1.1-.4,1.74623,1.74623,0,0,1-.7-1.4,1.884,1.884,0,0,1,.2-.8l18.3-31.7a1.85862,1.85862,0,0,1,1.5-.9,1.64981,1.64981,0,0,1,1.5.9l18.2,31.6a1.486,1.486,0,0,1,.2.9,1.97434,1.97434,0,0,1-.6,1.4,1.50386,1.50386,0,0,1-1.1.4Z" fill="none"/><path d="M3.83508,39.09545a1.13548,1.13548,0,0,1-.8-.3,1.2308,1.2308,0,0,1-.5-1,1.07829,1.07829,0,0,1,.2-.7l18.2-31.5a1.30833,1.30833,0,0,1,2.2,0l18.2,31.6a1.4214,1.4214,0,0,1,.2.6,1.38856,1.38856,0,0,1-.5,1,1.32985,1.32985,0,0,1-.8.3Z" fill="#e52421"/><polygon points="8.135 35.295 22.035 11.295 35.935 35.295 8.135 35.295" fill="#fff"/></g><path d="M16.45508,33.13545a.79616.79616,0,0,0,.78218.8099l.00782.0001h.53a.79615.79615,0,0,0,.7901-.80217l-.00009-.00783v-1.32l-2.11.01Zm8.95,0a.79616.79616,0,0,0,.78218.8099l.00782.0001h.53a.79615.79615,0,0,0,.7901-.80217l-.0001-.00783v-1.28l-2.11.01Zm2.5-5.46-2.07-3.72h-7.8l-2.07,3.72c-.3.1-.49.2-.49.6v2.11c0,.5.3,1.11.59,1.11h11.84c.3,0,.59-.6.59-1.11v-2.11a.59326.59326,0,0,0-.58649-.6Zm-10.75-.7,1.28-2.52h7.01l1.28,2.52Z" fill-rule="evenodd"/></g></svg>