<svg xmlns="http://www.w3.org/2000/svg" viewBox="0 0 44 44"><defs><style>.cls-1,.cls-3{fill:#fff;}.cls-2{fill:#e52421;}.cls-3{stroke:#e52421;stroke-miterlimit:10;}</style></defs><g data-name="icid-accident d0"><g data-name="Ebene 1-2"><path class="cls-2" d="m3.84 39.1a1.12 1.12 0 0 1-0.8-0.3 1.19 1.19 0 0 1-0.5-1 1.17 1.17 0 0 1 0.2-0.7l18.2-31.5a1.3 1.3 0 0 1 1.79-0.41 1.34 1.34 0 0 1 0.41 0.41l18.2 31.6a1.42 1.42 0 0 1 0.2 0.6 1.39 1.39 0 0 1-0.5 1 1.32 1.32 0 0 1-0.8 0.3z" /><polygon class="cls-1" points="8.14 35.3 22 11.3 35.9 35.3" /></g></g><g data-name="Ebene 1"><rect height=".777" width="3.11" x="15.4" y="27.4" /><rect height=".777" width="3.11" x="25.5" y="27.4" /><polygon points="27.6 26.5 27.6 25.8 28.9 25.8 29 25.2 27.5 25.2 27.5 25.6 16.6 25.6 16.6 25.2 15 25.2 15.1 25.8 16.4 25.8 16.4 26.5" /><path d="m27.7 25.8v-0.648s-1.17-1.94-1.94-2.07a37 37 0 0 0-3.79-0.13 36.5 36.5 0 0 0-3.76 0.13c-0.777 0.259-1.94 2.07-1.94 2.07v0.648l-1.3 0.777v4.92a0.474 0.474 0 0 0 0.518 0.518h2.07a0.557 0.557 0 0 0 0.518-0.518v-0.648h7.81v0.648a0.474 0.474 0 0 0 0.518 0.518h2.07a0.557 0.557 0 0 0 0.518-0.518v-4.92zm0.389 5.31h-1.3v-1.17h-9.62v1.17h-1.3v-4.02l1.3-0.648v-1.04a7.59 7.59 0 0 1 1.17-1.42c0.259-0.13 0.911-0.13 3.63-0.13a18.1 18.1 0 0 1 3.66 0.13 7.59 7.59 0 0 1 1.17 1.42v1.04l1.3 0.648z" /><g data-name="Ebene 1-2"><path class="cls-3" d="m19.1 33.5a0.181 0.181 0 0 1-0.129-0.0484 0.192 0.192 0 0 1-0.0806-0.161 0.188 0.188 0 0 1 0.0323-0.113l2.93-5.08a0.209 0.209 0 0 1 0.289-0.0661 0.216 0.216 0 0 1 0.0661 0.0661l2.93 5.1a0.23 0.23 0 0 1 0.0322 0.0968 0.224 0.224 0 0 1-0.0806 0.161 0.213 0.213 0 0 1-0.129 0.0484z" /></g></g></svg>