<?xml version="1.0" encoding="utf-8"?>
<!-- Generator: Adobe Illustrator 24.3.0, SVG Export Plug-In . SVG Version: 6.00 Build 0)  -->
<svg version="1.1" id="icid-accident_d0" xmlns="http://www.w3.org/2000/svg" xmlns:xlink="http://www.w3.org/1999/xlink" x="0px"
	 y="0px" viewBox="0 0 44 44" style="enable-background:new 0 0 44 44;" xml:space="preserve">
	<defs>
		<linearGradient gradientUnits="userSpaceOnUse" id="Hintergrund_weiss" x1="2" x2="42.0039" y1="22.00195" y2="22.00195">
			<stop offset="0" stop-color="#FFFFFF" />
		</linearGradient>
		<linearGradient gradientUnits="userSpaceOnUse" id="Rahmen_rot" x1="3.09257" x2="40.90743" y1="22" y2="22">
			<stop offset="0" stop-color="#e52421" />
		</linearGradient>
		<linearGradient gradientUnits="userSpaceOnUse" id="Beschriftung_schwarz" x1="18.66309" x2="10.00195" y1="20.30566" y2="1.30566">
			<stop offset="0" stop-color="#000000" />
			<stop offset="0" />
		</linearGradient>
	</defs>
<g id="Ebene_1-2_1_">
	<path d="M3.84,39.6c-0.41,0.02-0.8-0.12-1.1-0.4c-0.45-0.32-0.71-0.85-0.7-1.4c0.01-0.28,0.08-0.55,0.2-0.8l18.3-31.7
		c0.32-0.53,0.88-0.86,1.5-0.9c0.63-0.02,1.22,0.33,1.5,0.9l18.2,31.6c0.16,0.27,0.23,0.59,0.2,0.9c-0.01,0.53-0.22,1.03-0.6,1.4
		c-0.3,0.28-0.69,0.42-1.1,0.4L3.84,39.6z" fill="none"/>
	<path d="M3.84,39.1c-0.3,0.01-0.58-0.1-0.8-0.3c-0.32-0.23-0.51-0.6-0.5-1c-0.01-0.25,0.06-0.49,0.2-0.7l18.2-31.5
		c0.38-0.61,1.18-0.79,1.79-0.41c0.17,0.11,0.3,0.24,0.41,0.41l18.2,31.6c0.11,0.18,0.18,0.39,0.2,0.6c-0.02,0.39-0.2,0.75-0.5,1
		c-0.23,0.19-0.51,0.29-0.8,0.3H3.84z" fill="url(#Rahmen_rot)"/>
	<polygon points="8.14,35.3 22.04,11.3 35.94,35.3" fill="url(#Hintergrund_weiss)"/>
</g>
<path d="M29.4,34.41H16v-0.93h5.77c-0.29-0.08-2-0.38-2.37-0.53c-0.6-0.12-1.08-0.56-1.25-1.15
	c-0.52-1.18-0.87-2.17-1.02-2.62l-0.01-0.01c-0.15-0.44-0.47-1.44-0.78-2.69c-0.22-0.57-0.1-1.21,0.29-1.68
	c0.21-0.35,1.38-1.76,1.53-1.98l-0.36-0.9c-0.08-0.2-0.07-0.43,0.03-0.62c0.13-0.15,0.28-0.28,0.45-0.38
	c0.2-0.06,0.41,0.05,0.47,0.25c0,0,0,0.01,0,0.01l0.34,0.7c0.2-0.16,0.4-0.3,0.62-0.43c0.01-0.01,0.13-0.12,0.14-0.13
	c0.34-0.23,0.71-0.41,1.1-0.54c0.4-0.17,0.81-0.31,1.23-0.4c0.09-0.01,0.17-0.02,0.26-0.03l1.91-0.65c0.2-0.06,0.41,0.06,0.47,0.26
	l0.49,1.44c0.07,0.19-0.02,0.41-0.21,0.49l-1.29,0.44l2.76,8.15l1.29-0.44c0.2-0.06,0.41,0.06,0.47,0.26l0.49,1.45
	c0.07,0.19-0.02,0.41-0.21,0.49l-1.91,0.65c-0.07,0.04-0.15,0.08-0.23,0.13c-0.35,0.19-0.71,0.35-1.08,0.48h4.02v0.91H29.4z
	 M18.75,23.84c-0.56,0.5-1.06,1.06-1.48,1.68c0.01,0.14,0.03,0.27,0.06,0.4c0.31,1.32,0.66,2.39,0.82,2.86s0.53,1.52,1.09,2.76
	c0.07,0.15,0.16,0.29,0.27,0.41c0.69,0.2,1.4,0.32,2.11,0.36L18.75,23.84z M21.24,22.19l-1.1,0.37l0.81,2.25l1.1-0.37L21.24,22.19z
	 M23.84,29.82l-1.1,0.37l0.76,2.3l1.1-0.37L23.84,29.82z" fill="url(#Beschriftung_schwarz)"/>
</svg>
