<svg xmlns="http://www.w3.org/2000/svg" viewBox="0 0 44 44"><title>icid-police_d0</title><g id="icid-police_d0"><g id="Ebene_1-2" data-name="Ebene 1-2"><path d="M3.85,39.6a1.50387,1.50387,0,0,1-1.1-.4,1.74962,1.74962,0,0,1-.7-1.4,1.88389,1.88389,0,0,1,.2-.8L20.55,5.3a1.85862,1.85862,0,0,1,1.5-.9,1.6498,1.6498,0,0,1,1.5.9l18.2,31.6a1.48611,1.48611,0,0,1,.2.9,1.97434,1.97434,0,0,1-.6,1.4,1.50387,1.50387,0,0,1-1.1.4Z" fill="none"/><path d="M3.85,39.1a1.1355,1.1355,0,0,1-.8-.3,1.23077,1.23077,0,0,1-.5-1,1.854,1.854,0,0,1,.2-.7L20.95,5.6a1.30269,1.30269,0,0,1,1.8-.4.78076.78076,0,0,1,.4.4l18.2,31.6a1.42132,1.42132,0,0,1,.2.6,1.23077,1.23077,0,0,1-.5,1,1.1355,1.1355,0,0,1-.8.3Z" fill="#e52421"/><polygon points="8.15 35.3 22.05 11.3 35.95 35.3 8.15 35.3" fill="#fff"/></g><path d="M25.15,24a21.85285,21.85285,0,0,0-3.4-1c-.7-.2-1.7-.5-1.4-1.4.1-.3.5-.5.8-.6a9.0042,9.0042,0,0,1,4.6.5v-2c-2.3-.9-5.7-1.1-7.6.8a2.53945,2.53945,0,0,0,.2,3.6c-2.3.8-2.8,3.7-.4,4.7.7.3,2.7.8,3.4,1,.6.2,1.5.3,1.5,1.1-.3,1.8-4.7.8-5.9.4v2a9.75373,9.75373,0,0,0,5.1.6c2.5-.1,4.9-2.7,2.7-4.9C27.15,28,27.55,25,25.15,24Zm-1.5,4a10.37482,10.37482,0,0,0-1-.4,28.046,28.046,0,0,1-3.1-.9c-1-.3-.8-1.7-.1-2.2a4.17917,4.17917,0,0,0,1,.4l2.6.7A1.29188,1.29188,0,0,1,23.65,28Z"/></g></svg>