<svg xmlns="http://www.w3.org/2000/svg" viewBox="0 0 44 44"><defs><style>.cls-1{fill:#b9b9b9;}.cls-2{fill:#fff;stroke:#fff;stroke-miterlimit:10;stroke-width:0.8px;}.cls-3{fill:#c4121e;fill-opacity:0.98824;}</style></defs><g id="d0_t5_cc-fra_1p0_2p1014_1s0"><path id="Rahmen" class="cls-1" d="M3.73914,8.95653H40.26086A1.73917,1.73917,0,0,1,42,10.69566V33.30434a1.73918,1.73918,0,0,1-1.73914,1.73914H3.73914A1.73918,1.73918,0,0,1,2,33.30434V10.69566A1.73917,1.73917,0,0,1,3.73914,8.95653Z" /><polygon id="Hintergrund" class="cls-2" points="27.348 22 38.894 14.577 39.675 10.637 35.766 9.711 22 18.562 8.234 9.711 4.325 10.637 5.106 14.577 16.652 22 5.106 29.423 4.325 33.363 8.234 34.289 22 25.438 35.766 34.289 39.675 33.363 38.894 29.423 27.348 22" /><path id="Piktogramm" class="cls-3" d="M36.40477,27.94662l2.345,1.50757-3.01514,4.68988L33.38976,32.6365ZM31.715,24.93148l-3.01514,4.68988,2.345,1.50757,3.01514-4.68988ZM27.155,22l2.215-1.424-3.01513-4.68988-2.345,1.50757L26.97118,22l-2.9613,4.60633,2.345,1.50756L29.37,23.42391ZM19.9901,17.3937l-2.345-1.50757L14.63,20.576,16.84484,22,14.63,23.42391l3.01514,4.68994,2.345-1.50756L17.02868,22ZM12.285,19.06844l3.01514-4.68988-2.345-1.50756L9.94005,17.56094Zm-1.6748-7.705-2.345-1.50757L5.25011,14.5458l2.345,1.50757ZM5.25011,29.45419l3.01514,4.68988,2.345-1.50757L7.59508,27.94662Zm4.68994-3.01514,3.01514,4.68988,2.345-1.50757L12.285,24.93148Zm14.74-2.8479L23.65709,22l1.023-1.59118-2.345-1.50757L22,19.42245l-.33508-.52124-2.345,1.50757L20.34288,22l-1.02294,1.59119,2.345,1.50757L22,24.57748l.33508.52124Zm9.37989-6.03021L31.04479,12.871l-2.345,1.50756L31.715,19.06844Zm4.68982-3.01514L35.73461,9.85586l-2.34485,1.50757,3.015,4.68994Z" /></g></svg>