<svg xmlns="http://www.w3.org/2000/svg" viewBox="0 0 44 44"><title>left_curve_aus Kopie</title><g id="Ebene_45" data-name="Ebene 45"><path id="Hintergrund" d="M2.57957,20.60322,20.60477,2.57978a1.97017,1.97017,0,0,1,2.79047,0L41.42039,20.60322a1.97219,1.97219,0,0,1,0,2.79223L23.39524,41.41889a1.967,1.967,0,0,1-2.79047,0L2.57957,23.39545A1.9723,1.9723,0,0,1,2.57957,20.60322Z" fill="#010101" fill-rule="evenodd"/><path id="Rahmen" d="M2.82871,23.07172,20.91581,41.1576a1.53178,1.53178,0,0,0,2.16748,0L41.17088,23.07172a1.537,1.537,0,0,0,0-2.16919L23.08329,2.81672a1.53167,1.53167,0,0,0-2.16748,0L2.82871,20.90253A1.537,1.537,0,0,0,2.82871,23.07172Zm.52442-1.60815L21.47691,3.33979a.7213.7213,0,0,1,1.04577,0L40.64646,21.46357a.72337.72337,0,0,1,0,1.04755L22.52268,40.6349a.72345.72345,0,0,1-1.04577,0L3.35313,22.51112A.72327.72327,0,0,1,3.35313,21.46357Z" fill="#00f300" fill-rule="evenodd"/><path id="Piktogramm" d="M28.48114,29.13778a13.84978,13.84978,0,0,0-9.9373-13.1789l1.4777-2.42794a.8448.8448,0,0,0-.51438-1.02571.91023.91023,0,0,0-.47468.03665L9.75921,15.89649l6.4313,7.2201a1.68423,1.68423,0,0,0,.438.27661.758.758,0,0,0,.92623-.48864L17.317,20.101a9.34739,9.34739,0,0,1,6.88286,9.0368v3.49029h4.28128V29.13778" fill="#00f300" fill-rule="evenodd"/></g></svg>