<svg xmlns="http://www.w3.org/2000/svg" viewBox="0 0 44 44"><title>right_curve_kor Kopie</title><g id="Ebene_37" data-name="Ebene 37"><path id="Rahmen" d="M2.5684,36.24148,20.15473,5.87181c.93539-1.68328,2.65029-1.68328,3.64632,0l17.6816,30.432c1.02634,1.7149.18622,3.08682-1.90544,3.08682H4.49982c-2.24322,0-3.02272-1.31-1.93143-3.14917" fill="#010101"/><path id="Rahmen-2" data-name="Rahmen" d="M40.64285,36.62625,23.14554,6.486A1.26463,1.26463,0,0,0,20.78,6.45486L3.37357,36.564v-.00006c-.62274,1.05915-.03028,1.9621,1.37085,1.9621h34.653C40.64285,38.526,41.29587,37.68533,40.64285,36.62625ZM8.07437,35.13211,22.05576,11.37454,35.78635,35.13211Z" fill="#00f300"/><path id="Hintergrund" d="M22.05576,11.37454,35.78633,35.1321H8.07437L22.05576,11.37454" fill="#010101"/><path id="Piktogramm" d="M16.13972,33.66867h3.144v-6.3831c0-2.055.87357-2.055,1.86822-2.055v.71615c.15569.65388.71788.71616,1.27576.46706L26.69605,23.736c.49732-.56047.31136-.56047,0-.96525l-4.17323-2.14846c-.40651-.34251-1.12007-.46706-1.3709.24909v.996c-2.20986,0-5.0122.37408-5.0122,4.29735v7.504" fill="#00f300"/></g></svg>