<svg xmlns="http://www.w3.org/2000/svg" viewBox="0 0 44 44"><title>s_curve_first_left_irl Kopie</title><g id="Ebene_53" data-name="Ebene 53"><path id="Rahmen" d="M2.58921,23.43163a2.03386,2.03386,0,0,1,0-2.86326L20.56837,2.58921a2.03386,2.03386,0,0,1,2.86326,0L41.41079,20.56837a2.03386,2.03386,0,0,1,0,2.86326L23.43163,41.41079a2.03386,2.03386,0,0,1-2.86326,0Z" fill="#00f300"/><path id="Hintergrund" d="M40.893,22.91766a1.29773,1.29773,0,0,0,0-1.83532L22.91766,3.10705a1.29773,1.29773,0,0,0-1.83532,0L3.10705,21.08234a1.29773,1.29773,0,0,0,0,1.83532L21.08234,40.893a1.29772,1.29772,0,0,0,1.83531,0Z" fill="#010101"/><path d="M14.05071,16.9582l-2.12407.37369,3.91215-5.39831,3.62563,5.39L17.669,17.00205v4.79c.24618-.10138.4657-.18191.67692-.28026q4.48684-2.08918,8.972-4.18208c.20229-.09428.40739-.18271.61267-.27039,1.24649-.53239,2.11512.01665,2.13386,1.3862.02378,1.73788.00935,3.47629.0099,5.21448q.00115,3.68745.00014,7.3749c0,.31682,0,.63364,0,1.02485-1.11358,0-3.53059-.03221-3.53059-.03221s.00068-6.552.00062-9.4821c0-.27171,0-.54342,0-.94347-.40366.18194-.72976.32493-1.05255.475q-4.55525,2.1184-9.11046,4.23691c-1.43573.66445-2.32162.08916-2.32806-1.51135-.00928-2.30928-.00257-4.61862-.00267-6.92793C14.0507,17.60726,14.05071,17.33993,14.05071,16.9582Z" fill="#00f300"/></g></svg>