<svg xmlns="http://www.w3.org/2000/svg" viewBox="0 0 44 44"><title>s_curve_first_left_chn Kopie</title><g id="Ebene_49" data-name="Ebene 49"><path d="M41.70476,36.35681,23.92352,5.43146a2.21866,2.21866,0,0,0-3.847,0L2.29527,36.35681a2.21867,2.21867,0,0,0,1.9235,3.32469H39.78125a2.21886,2.21886,0,0,0,1.92351-3.32469Z" fill="#010101"/><path d="M39.78125,39.01585H4.21877a1.553,1.553,0,0,1-1.34638-2.32732L20.65363,5.76317a1.553,1.553,0,0,1,2.69277,0L41.12764,36.68853a1.55321,1.55321,0,0,1-1.34639,2.32732ZM6.90356,35.90949H37.09669L22,9.65322Z" fill="#00f300"/><path d="M29.00142,25.53231a1.55292,1.55292,0,0,0-1.40625-.89258H19.88991l3.506-4.26562-2.40039-1.97266L15.1899,25.46493A1.5532,1.5532,0,0,0,16.39009,28.004h7.68054l-3.661,4.40723,2.38867,1.98437,5.99122-7.21093A1.55315,1.55315,0,0,0,29.00142,25.53231Z" fill="#00f300"/></g></svg>