<?xml version="1.0" encoding="UTF-8"?>
<svg id="Ebene_1" data-name="Ebene 1" xmlns="http://www.w3.org/2000/svg" xmlns:xlink="http://www.w3.org/1999/xlink" viewBox="0 0 50 58">
  <defs>
    <style>
      .cls-1 {
        fill: url(#Background);
      }

      .cls-2 {
        fill: #009538;
        stroke: #009538;
        stroke-miterlimit: 10;
        stroke-width: 1.5px;
      }

      .cls-3 {
        fill: url(#Background-2);
      }
    </style>
    <linearGradient id="Background" x1="5.25173" y1="25.59502" x2="24.11057" y2="25.59502" gradientUnits="userSpaceOnUse">
      <stop offset="1" stop-color="#fff"/>
      <stop offset="1" stop-color="#000"/>
    </linearGradient>
    <linearGradient id="Background-2" data-name="Background" x1="26.24313" y1="25.13151" x2="45.19309" y2="25.13151" xlink:href="#Background"/>
  </defs>
  <path class="cls-2" d="M44.2,2.75H5.7c-1.65685,0-3,1.34315-3,3V44.25c0,1.65685,1.34315,3,3,3h7.78l11.5,9.43,11.5-9.43h7.78c1.65685,0,3-1.34315,3-3V5.75c0-1.65685-1.34315-3-3-3h-.06Z"/>
  <g>
    <path class="cls-1" d="M13.24331,38.06074V15.76895H5.25173v-2.63965H24.11057v2.63965h-7.90654v22.29179h-2.96073Z"/>
    <path class="cls-3" d="M42.25192,25.93007h-6.91406v-2.62305h9.85523v12.9758c-.36523,.17188-.49781,.33008-.90699,.47363s-.83691,.27246-1.28223,.38574-.91309,.21484-1.40332,.30273c-.48926,.08887-1.00098,.16211-1.53516,.2207-.53418,.05762-1.0918,.10254-1.67285,.13281s-1.1881,.07241-1.81836,.04492c-1.22174-.05329-2.35352-.2627-3.76563-.78809-1.41016-.52539-2.60156-1.31934-3.57324-2.38184-.9707-1.0625-1.71289-2.39551-2.22461-3.99707-.51172-1.60254-.76758-3.47949-.76758-5.63184,0-1.3335,.11621-2.57178,.34863-3.71436,.23242-1.14307,.57422-2.18213,1.02539-3.11719s1.00781-1.76367,1.67188-2.48633c.66406-.72168,1.43359-1.32812,2.30859-1.81738,.87402-.49023,1.84766-.8623,2.92188-1.1167,1.07324-.25439,2.28985-.38184,2.75465-.38184,.4375,0,.63017,.01367,1.06767,.0415,.43652,.02783,.86719,.06787,1.29004,.12012,.42383,.05273,.83496,.11768,1.2334,.19531s.77832,.16602,1.14062,.26562,.70117,.21191,1.01758,.33594c.31445,.125,.59961,.25635,.85449,.39453v2.78076c-.4043-.19922-.85938-.37891-1.36523-.53955-.50684-.16064-1.04785-.29736-1.62305-.41113-.5752-.11328-1.17285-.2002-1.79297-.26123s-1.24219-.09131-1.86816-.09131c-.85441,0-1.69147,.19775-2.77545,.59375-1.08496,.39551-1.99414,.99854-2.72754,1.80957-.7334,.81055-1.28613,1.83008-1.66016,3.05859-.37305,1.22852-.55957,2.67578-.55957,4.34131,0,1.20654,.0918,2.29199,.27734,3.25781s.45117,1.81934,.79688,2.56055,.7666,1.37891,1.26172,1.91309,1.05469,.97168,1.67676,1.31152c.62305,.34082,1.24702,.59082,1.9853,.75195,.73926,.16016,1.30139,.22936,1.6321,.22936,.29528,0,.81133-.00573,1.31523-.03893,.50293-.0332,.98047-.0791,1.43164-.13672,.45117-.05859,.87402-.12988,1.26953-.21582s.7627-.18164,1.09961-.28711v-8.46017Z"/>
  </g>
</svg>