<?xml version="1.0" encoding="UTF-8"?>
<svg id="Ebene_1" data-name="Ebene 1" xmlns="http://www.w3.org/2000/svg" viewBox="0 0 44 44">
  <defs>
    <style>
      .cls-1 {
        fill: #00f300;
      }
    </style>
  </defs>
  <path class="cls-1" d="M41.57904,37.54714L23.06066,5.66608c-.27398-.69151-1.05667-1.02999-1.74818-.756-.34552,.1369-.61911,.41049-.756,.756L2.14333,37.54714c-.62815,1.12583,0,2.11488,1.45201,2.11488H40.31642c1.28366,0,2.00966-.92381,1.31523-2.04123,0,0-.05261-.07365-.05261-.07365Zm-34.40629-1.57827L21.90327,10.82177l14.52008,25.1471s-29.2506,0-29.2506,0Z"/>
  <path d="M22.00848,10.82177l14.52009,25.14711H7.27797L22.00849,10.82177"/>
  <path class="cls-1" d="M17.91699,19.76529h3.23019v9.56432h1.38888l-2.99871,4.94525-3.10393-4.94525h1.48357v-9.56432m9.14078,15.13938v-9.39597h1.45201l-3.09341-4.97681-3.00924,4.97681h1.35731v9.39597h3.30384"/>
</svg>