<?xml version="1.0" encoding="UTF-8"?>
<svg id="Ebene_1" data-name="Ebene 1" xmlns="http://www.w3.org/2000/svg" viewBox="0 0 44 44">
  <defs>
    <style>
      .cls-1 {
        fill: #fff;
      }

      .cls-2 {
        fill: none;
        opacity: .5;
      }
    </style>
  </defs>
  <path id="Hintergrund" d="m42,22.00024c0,11.0457-8.9543,20-20,20S2,33.04594,2,22.00024,10.9543,2.00024,22,2.00024s20,8.9543,20,20Z"/>
  <g id="km_h" data-name="km h">
    <path class="cls-1" d="m9.34929,25.72073v-8.5461h1.22578v5.31868h.02346l2.34013-2.86216h1.46624l-2.09966,2.38285,2.38705,3.70667h-1.53662l-1.61873-2.84535-.96186,1.09592v1.74944l-1.22578.00006h-.00001Zm6.29898,0v-6.08952h1.22578v.65184h.02346c.65686-.72958,1.71985-.93114,2.59819-.49266.257.15855.49388.3476.70547.56304.49326-.53454,1.19705-.82453,1.92371-.79262.50517.01295.98949.20407,1.36738.53958.45369.39192.69796.97348.66022,1.57181v4.04851h-1.22656v-3.62621c.02096-.35428-.10374-.70174-.34519-.96186-.48325-.46029-1.24272-.46029-1.72598,0-.24145.2601-.36616.60757-.34519.96186v3.62623h-1.21991v-3.62623c.02096-.35428-.10374-.70174-.34519-.96186-.4836-.46027-1.24322-.46027-1.72681,0-.24025.26074-.36424.60791-.34353.96186v3.62623h-1.22585Zm9.46103.07038l2.86715-8.69358h.9384l-2.86713,8.69355-.93842.00003Zm4.69198-.07038v-8.5461h1.22496v3.10844h.02346c.38033-.48223.97007-.7512,1.58354-.72223.50567.01292.99054.20402,1.36904.53958.45432.39146.69873.97334.66022,1.57181v4.04852h-1.2248v-3.62624c.01991-.35383-.10397-.7007-.34353-.96186-.22457-.22773-.5332-.35263-.85293-.34519-.32569-.0104-.64115.11456-.87136.34519-.24025.26074-.36424.60791-.34353.96186v3.62623s-1.22507,0-1.22506,0h-.00002Z"/>
  </g>
  <path class="cls-1" d="m22.00347,6.32409c8.65579,0,15.67269,7.01691,15.67267,15.67269,0,8.65579-7.01691,15.67269-15.6727,15.67267-8.65578,0-15.67267-7.01691-15.67267-15.67269.00978-8.65173,7.02096-15.66291,15.6727-15.67269m0-3.22574c-10.43731.00002-18.89842,8.46113-18.89843,18.89844s8.4611,18.89842,18.89841,18.89843,18.89842-8.46111,18.89843-18.89841h0c0-10.43731-8.4611-18.89842-18.8984-18.89843h0v-.00003Z"/>
  <g id="Unbegrenzt" class="cls-2">
    <rect class="cls-1" x="1.06227" y="18.2165" width="36.2285" height="1.98425" transform="translate(-7.96587 19.18592) rotate(-45)"/>
    <rect class="cls-1" x="3.85237" y="21.0066" width="36.2285" height="1.98425" transform="translate(-9.12157 21.97602) rotate(-45)"/>
    <rect class="cls-1" x="6.64247" y="23.7967" width="36.2285" height="1.98425" transform="translate(-10.27727 24.76612) rotate(-45)"/>
  </g>
</svg>