<svg id="Ebene_1" data-name="Ebene 1" xmlns="http://www.w3.org/2000/svg" xmlns:xlink="http://www.w3.org/1999/xlink" viewBox="0 0 44 53"><defs><style>.cls-1{fill:url(#Zusatzschild_Hintergrund_weiss);}.cls-2{fill:url(#Zusatzschild_Rahmen_schwarz);}.cls-3{fill:url(#Zusatzschild_Piktogramm_schwarz);}</style><linearGradient id="Zusatzschild_Hintergrund_weiss" x1="7" y1="11.2687" x2="37" y2="11.2687" gradientTransform="translate(44 54.39373) rotate(180)" gradientUnits="userSpaceOnUse"><stop offset="1" stop-color="#fff"/><stop offset="1"/></linearGradient><linearGradient id="Zusatzschild_Rahmen_schwarz" x1="7.24969" y1="11.2687" x2="36.74969" y2="11.2687" gradientTransform="translate(44 54.39373) rotate(180)" gradientUnits="userSpaceOnUse"><stop offset="0" stop-color="#010101"/><stop offset="0"/></linearGradient><linearGradient id="Zusatzschild_Piktogramm_schwarz" x1="17.00684" y1="42.99155" x2="28.00116" y2="42.99155" gradientTransform="matrix(1, 0, 0, 1, 0, 0)" xlink:href="#Zusatzschild_Rahmen_schwarz"/></defs><path id="Zusatzschild_Hintergrund_weiss" data-name="Zusatzschild Hintergrund weiss" class="cls-1" d="M7,37.63239V48.6157A2.51478,2.51478,0,0,0,9.50717,51.123l24.98548.002A2.51451,2.51451,0,0,0,37,48.61784V37.63455A2.515,2.515,0,0,0,34.49265,35.127L9.50757,35.125A2.51472,2.51472,0,0,0,7,37.63239Z"/><path id="Zusatzschild_Rahmen_schwarz" data-name="Zusatzschild Rahmen schwarz" class="cls-2" d="M7.25031,37.63283V48.6152A2.26,2.26,0,0,0,9.50714,50.873l24.98535.002a2.26,2.26,0,0,0,2.25782-2.25684V37.63484A2.26018,2.26018,0,0,0,34.49249,35.377L9.50714,35.375A2.26,2.26,0,0,0,7.25031,37.63283Zm1.24969,0A1.00859,1.00859,0,0,1,9.50732,36.625l24.98536.002A1.02142,1.02142,0,0,1,35.5,37.63479V48.61818a1.02056,1.02056,0,0,1-1.00732,1.00689l-24.98536-.002A1.02141,1.02141,0,0,1,8.5,48.61525Z"/><path class="cls-3" d="M25.32831,38.00153H22.75586l1.781,1.99859h-5.53a2.00229,2.00229,0,0,0-2,2v5.98145h2V42.00012h5.53161l-1.78259,2.00043h2.57245L28.00116,41.001Z"/></svg>