<svg id="Ebene_1" data-name="Ebene 1" xmlns="http://www.w3.org/2000/svg" xmlns:xlink="http://www.w3.org/1999/xlink" viewBox="0 0 44 53"><defs><style>.cls-1{fill:url(#Zusatzschild_Hintergrund_weiss);}.cls-2{fill:url(#Zusatzschild_Rahmen_schwarz);}.cls-3{fill:url(#Zusatzschild_Piktogramm_schwarz);}</style><linearGradient id="Zusatzschild_Hintergrund_weiss" x1="0.00001" y1="11.2687" x2="44.00159" y2="11.2687" gradientTransform="translate(44 54.39373) rotate(180)" gradientUnits="userSpaceOnUse"><stop offset="1" stop-color="#fff"/><stop offset="1"/></linearGradient><linearGradient id="Zusatzschild_Rahmen_schwarz" x1="0.24969" y1="11.2687" x2="43.75126" y2="11.2687" gradientTransform="translate(44 54.39373) rotate(180)" gradientUnits="userSpaceOnUse"><stop offset="0" stop-color="#010101"/><stop offset="0"/></linearGradient><linearGradient id="Zusatzschild_Piktogramm_schwarz" x1="3.73962" y1="43.18138" x2="40.73301" y2="43.18138" gradientTransform="matrix(1, 0, 0, 1, 0, 0)" xlink:href="#Zusatzschild_Rahmen_schwarz"/></defs><path id="Zusatzschild_Hintergrund_weiss" data-name="Zusatzschild Hintergrund weiss" class="cls-1" d="M-.00159,37.63239V48.6157A2.51478,2.51478,0,0,0,2.50558,51.123l38.98706.002A2.51451,2.51451,0,0,0,44,48.61784V37.63455A2.515,2.515,0,0,0,41.49264,35.127L2.506,35.125A2.51472,2.51472,0,0,0-.00159,37.63239Z"/><path id="Zusatzschild_Rahmen_schwarz" data-name="Zusatzschild Rahmen schwarz" class="cls-2" d="M.24874,37.63283V48.6152A2.26,2.26,0,0,0,2.50557,50.873l38.98692.002a2.26,2.26,0,0,0,2.25782-2.25684V37.63484A2.26018,2.26018,0,0,0,41.49249,35.377L2.50557,35.375A2.26,2.26,0,0,0,.24874,37.63283Zm1.24969,0A1.00859,1.00859,0,0,1,2.50575,36.625l38.98693.002A1.02142,1.02142,0,0,1,42.5,37.63479V48.61818a1.02056,1.02056,0,0,1-1.00732,1.00689l-38.98693-.002a1.02141,1.02141,0,0,1-1.00732-1.00782Z"/><path class="cls-3" d="M21.9995,38.73986l.52186.301v.52781l.45684-.2639.52205.30153v.60191l-.97886.56485v1.58341l1.37116-.7917V40.435l.52132-.30155.52186.30155v.5278l.457-.26391.52186.301v.60249l-.45684.2639.45684.2639v.6021l-.52186.301-.97886-.56485-1.371.79171,1.371.7917.97887-.565.52186.30115v.60245l-.45684.26391.45684.26391V45.52l-.52186.30155-.457-.26391v.52781l-.52187.301-.52132-.301V44.95521l-1.37119-.79167v1.58338l.97887.56545v.60193l-.52206.30153-.45684-.26429v.5282l-.52183.30092-.52127-.301v-.52816l-.4574.2643-.52145-.30155v-.60191l.97886-.56544V44.16354l-1.37174.7917v1.1303l-.52132.301-.52187-.301v-.52783l-.457.2639-.52186-.30154v-.6019l.4574-.26391-.4574-.2639v-.60249l.52186-.30115.97887.565,1.3712-.7917-1.3712-.79171-.97887.56485-.52186-.301v-.60209l.4574-.2639-.4574-.26391v-.60248l.52186-.301.457.2639V40.435l.52187-.30155.52132.30155v1.12971l1.37174.7917V40.773l-.97886-.56485v-.60191l.52147-.30153.4574.2639v-.52781Zm-13.14425,5.998L7.29176,48.27849l.8515.29979,1.56346-3.54064-.85147-.2998Zm3.02242-1.52621-1.56345,3.54064.85147.2998,1.56346-3.54064-.85148-.2998ZM8.94513,38.78448a2.17936,2.17936,0,0,1,1.75909,1.03241l.32361.46076.55927-.03027c.05981-.00324.1181-.0069.17651-.0069a1.55187,1.55187,0,0,1,1.02087.33472.91593.91593,0,0,1,.3299.69995.81307.81307,0,0,1-.01709.168l-.18683.92529.913.23987a1.07777,1.07777,0,0,1,.40228.18969.54249.54249,0,0,1,.208.41846.86689.86689,0,0,1-.37629.65485,1.83911,1.83911,0,0,1-.74871.30847L12.83691,45.248a3.10506,3.10506,0,0,0,1.83643-.58881,1.85314,1.85314,0,0,0,.76038-1.44086,1.53563,1.53563,0,0,0-.5849-1.20245,2.06678,2.06678,0,0,0-.77131-.37476,1.81388,1.81388,0,0,0,.03687-.37481,1.91136,1.91136,0,0,0-.67816-1.44953,2.53239,2.53239,0,0,0-1.67261-.57629c-.07806,0-.15607.00433-.23614.00867a3.16505,3.16505,0,0,0-2.58234-1.46467l-.02313.00007a3.33108,3.33108,0,0,0-3.161,2.79486A2.29335,2.29335,0,0,0,3.73962,42.902a2.41161,2.41161,0,0,0,.59906,1.6076,2.19986,2.19986,0,0,0,1.01935.62848l.41553-.94092a1.23161,1.23161,0,0,1-.68945-.35406,1.4092,1.4092,0,0,1-.34449-.9411,1.35283,1.35283,0,0,1,.35492-.936,1.37256,1.37256,0,0,1,.81482-.3977l.68988-.10352.14112-.68316A2.334,2.334,0,0,1,8.9328,38.78455ZM7.08261,43.21263,5.51912,46.75328l.8515.29979,1.56346-3.54063-.85147-.29981Zm33.0654-.50518a2.06655,2.06655,0,0,0-.7713-.37469,1.81488,1.81488,0,0,0,.03686-.37488,1.91122,1.91122,0,0,0-.67816-1.44953,2.53226,2.53226,0,0,0-1.67254-.57623c-.07813,0-.15613.00433-.23621.00867a2.76355,2.76355,0,0,0-2.60107-1.46466,3.458,3.458,0,0,0-3.16535,2.79492,2.29309,2.29309,0,0,0-2.02136,2.32263,2.41135,2.41135,0,0,0,.599,1.60761,2.15595,2.15595,0,0,0,.71637.52355L30.345,44.47027a1.40972,1.40972,0,0,1-.30609-.87659,1.35286,1.35286,0,0,1,.35486-.936,1.37257,1.37257,0,0,1,.81488-.39777l.68988-.10352.141-.68316a2.45275,2.45275,0,0,1,2.186-1.99713,1.79963,1.79963,0,0,1,1.77789,1.03235l.3241.46075.55926-.03027c.05963-.00324.11774-.00684.176-.00684a1.55151,1.55151,0,0,1,1.02081.33472.91564.91564,0,0,1,.33.69989.822.822,0,0,1-.01709.168l-.18689.92529.913.23987a1.0781,1.0781,0,0,1,.40228.1897.5428.5428,0,0,1,.20807.41851.8669.8669,0,0,1-.37628.65479,2.178,2.178,0,0,1-1.3504.3858H37.335l.00427,1h.66706a3.15168,3.15168,0,0,0,1.96624-.5979A1.85338,1.85338,0,0,0,40.733,43.9099,1.536,1.536,0,0,0,40.148,42.70745Zm-8.01157.34565,5.11175-.00174.00378.90028-5.10889.00177Zm-.8504,1.97145,5.11176-.00173.00377.90028-5.10889.00176Zm1.41733,2.00551,5.11175-.00173.00378.90028L32.71,47.93037Z"/></svg>