<svg xmlns="http://www.w3.org/2000/svg" viewBox="0 0 40 40"><defs><style>.cls-1,.cls-2{fill:#fff;}.cls-2{fill-rule:evenodd;}</style></defs><g id="E10B_FAS_Resume"><path class="cls-1" d="M12.15153,11.10759l-2.2734-3.3555c-.06919-.10054-.133-.19026-.19026-.27026a2.092,2.092,0,0,0-.173-.20756,1.18922,1.18922,0,0,0-.17728-.15134A1.04207,1.04207,0,0,0,9.143,7.02131.94345.94345,0,0,0,8.916,6.964a2.09306,2.09306,0,0,0-.27134-.01622H7.54852v4.15979H6.25777V1.16432H9.45a5.51988,5.51988,0,0,1,1.48966.17837,2.71861,2.71861,0,0,1,1.04967.53294,2.15127,2.15127,0,0,1,.61943.88752A3.50554,3.50554,0,0,1,12.812,4.01066a3.20844,3.20844,0,0,1-.173,1.10264,2.42792,2.42792,0,0,1-1.21291,1.37831,3.72482,3.72482,0,0,1-.92752.31782,1.632,1.632,0,0,1,.39241.2908,3.06176,3.06176,0,0,1,.36539.4443l2.4269,3.56306Zm-2.95661-5.163a3.90555,3.90555,0,0,0,.99238-.11243,1.83062,1.83062,0,0,0,.71672-.35025,1.466,1.466,0,0,0,.43457-.60321,2.33456,2.33456,0,0,0,.14594-.86806,2.29173,2.29173,0,0,0-.12756-.80429,1.31809,1.31809,0,0,0-.3989-.56537,1.79615,1.79615,0,0,0-.6951-.333A4.07373,4.07373,0,0,0,9.23816,2.1967H7.54852V5.94461Z"/><path class="cls-1" d="M15.04543,11.10759V1.16432h6.31968V2.23021H16.33618V5.49274H20.657V6.55215H16.33618v3.49279h5.0419v1.06265Z"/><path class="cls-1" d="M23.138,9.619a6.1485,6.1485,0,0,0,.59565.20756c.22377.067.46376.12648.71888.1762.254.05081.51889.08973.79239.11892a7.75957,7.75957,0,0,0,.82374.04432,4.08633,4.08633,0,0,0,1.08535-.12973,2.39137,2.39137,0,0,0,.78591-.36,1.56854,1.56854,0,0,0,.481-.547,1.45261,1.45261,0,0,0,.16432-.68645,1.622,1.622,0,0,0-.05621-.44646,1.1742,1.1742,0,0,0-.17621-.36215,1.44916,1.44916,0,0,0-.29837-.29944,2.50316,2.50316,0,0,0-.427-.25512,5.3021,5.3021,0,0,0-.56321-.22594c-.2108-.07134-.44323-.14485-.69727-.21836-.31566-.08973-.61078-.18162-.88752-.27783a6.332,6.332,0,0,1-.75564-.31674,3.52116,3.52116,0,0,1-.60969-.387,2.23685,2.23685,0,0,1-.45295-.48647,2.11341,2.11341,0,0,1-.28215-.614,2.75339,2.75339,0,0,1-.093-.774,3.18639,3.18639,0,0,1,.093-.78158,2.4013,2.4013,0,0,1,.28755-.67456,2.30226,2.30226,0,0,1,.48214-.55565,2.75358,2.75358,0,0,1,.681-.41512,3.95881,3.95881,0,0,1,.88644-.2616A6.12687,6.12687,0,0,1,26.81564,1q.44592,0,.83671.03567a6.46659,6.46659,0,0,1,.72537.10378,4.353,4.353,0,0,1,.62159.173,3.599,3.599,0,0,1,.52862.23782V2.67343a4.251,4.251,0,0,0-.56862-.24,5.51186,5.51186,0,0,0-.63672-.173,6.32919,6.32919,0,0,0-.7124-.10486q-.37618-.03568-.79779-.03568a3.56536,3.56536,0,0,0-.974.11783,1.99581,1.99581,0,0,0-.68753.32972,1.36948,1.36948,0,0,0-.41079.5124,1.595,1.595,0,0,0-.13729.66592,1.53209,1.53209,0,0,0,.05621.43565,1.09958,1.09958,0,0,0,.17081.35025,1.30444,1.30444,0,0,0,.293.28863,2.54433,2.54433,0,0,0,.42593.24324,5.52271,5.52271,0,0,0,.56645.21944c.21189.07027.45187.14378.71781.21945.32322.09405.62591.19026.9059.28864a5.93392,5.93392,0,0,1,.7632.3243A3.55706,3.55706,0,0,1,29.1085,6.51a2.09812,2.09812,0,0,1,.71563,1.11237A3.05989,3.05989,0,0,1,29.809,9.178a2.38521,2.38521,0,0,1-.31674.69078,2.63,2.63,0,0,1-.53078.58051,3.15513,3.15513,0,0,1-.74159.44214,4.36569,4.36569,0,0,1-.95454.28106,6.43373,6.43373,0,0,1-1.17075.09946q-.45889,0-.88645-.03568a7.81307,7.81307,0,0,1-.80428-.10486,6.01491,6.01491,0,0,1-.69942-.173,3.34948,3.34948,0,0,1-.56646-.2335Z"/><polygon class="cls-2" points="7.623 34.422 13.247 34.422 14.654 27.987 22.47 27.987 23.675 34.422 29.329 34.422 18.481 38.467 7.623 34.422"/><path class="cls-1" d="M22.05543,28.4875l1.05174,5.61821.15276.816h3.29693l-8.07624,3.01111-8.083-3.01111H13.6495l.17193-.78642,1.2348-5.64778h6.9992m.83018-1H14.25125l-1.40674,6.4342h-7.996L18.48076,39,32.1015,33.9217H24.0901l-1.20449-6.4342Z"/><path class="cls-1" d="M35.15146,20.9356c-3.87075.00682-8.12823.01534-8.54476.02068a7.37116,7.37116,0,0,0-2.85283,1.32263c-.51133.30809-.99454.59889-1.29183.73294a5.18463,5.18463,0,0,1-2.55987.2562c-.25728-.053-1.13615-.16-2.79715-.36-2.10151-.254-4.9792-.60213-6.36724-.8432-1.27021-.22161-2.02368-.63889-2.24259-1.247a30.16747,30.16747,0,0,1-1.21777-4.53112.94581.94581,0,0,1,.0935-.69239c.19081-.227.68159-.24.89131-.2454.08162-.00216.14594-.0054.18756-.01026.51565-.06108,4.33437-.08757,7.4034-.10919,2.23664-.01513,4.31275-.02973,5.15379-.05513a5.93881,5.93881,0,0,1,2.34475.58537,11.663,11.663,0,0,0,4.60409.99022c2.04631,0,4.74219.05223,7.19564.113V15.534c-2.4542-.06061-5.1473-.11257-7.19564-.11257a10.37072,10.37072,0,0,1-4.11979-.89887,7.00177,7.00177,0,0,0-2.868-.67564c-.83672.02486-2.9004.03892-5.12407.05459-4.20519.02919-7.00288.053-7.61636.11945a2.43747,2.43747,0,0,0-1.87342.71835,2.11771,2.11771,0,0,0-.39133,1.74207,31.14685,31.14685,0,0,0,1.2848,4.79327c.1454.4043.587,1.63235,3.262,2.09827,1.42209.24755,4.32032.59781,6.43643.854,1.27183.1535,2.47339.29836,2.689.34268a5.267,5.267,0,0,0,1.0086.08432,6.05558,6.05558,0,0,0,2.36312-.43133,15.70415,15.70415,0,0,0,1.43236-.80644A10.73838,10.73838,0,0,1,26.624,22.28432c.40539-.00521,4.66017-.01358,8.52747-.02041Z"/></g></svg>