<svg id="Ebene_1" data-name="Ebene 1" xmlns="http://www.w3.org/2000/svg" viewBox="0 0 40 40"><defs><style>.cls-1,.cls-3{fill:#fff;}.cls-2,.cls-4{fill:none;stroke:#fff;stroke-miterlimit:10;}.cls-2{stroke-width:1.2px;}.cls-3{fill-rule:evenodd;}.cls-4{stroke-width:1.2px;}</style></defs><polygon class="cls-1" points="20.554 11.319 20.554 10.641 23.174 10.641 22.983 11.771 20.744 11.771 20.554 11.319"/><rect class="cls-1" x="1.75095" y="14.18159" width="4.23966" height="1.13058"/><rect class="cls-1" x="18.0185" y="14.18159" width="4.23966" height="1.13058"/><polygon class="cls-1" points="3.245 11.771 1.006 11.771 0.815 10.641 3.435 10.641 3.435 11.319 3.245 11.771"/><line class="cls-2" x1="3.28009" y1="11.71688" x2="21.03381" y2="11.72123"/><path class="cls-1" d="M13.303,18.15948H5.00684L5.00977,20.136c.00488.05225-.03321.09961-.1626.10156l-2.45362.00293a.26806.26806,0,0,1-.28222-.16259V13.58087l1.32959-1.05518L3.87354,11.491c.74218-1.34521,1.91894-2.90283,2.42187-2.98681a53.69846,53.69846,0,0,1,5.38916-.18164h.62012a53.69846,53.69846,0,0,1,5.38916.18164c.50927.085,1.66357,1.61328,2.395,2.93017l.46,1.09131,1.33008,1.05518.001,1.74664c.20777-.00787.4115-.03137.62122-.03137.19476,0,.38385.02234.577.02911V13.00079l-1.54394-1.22461-.36719-.86475c-.43408-.78662-1.95263-3.37011-3.27588-3.59082a49.80849,49.80849,0,0,0-5.58642-.19824h-.62012a49.80868,49.80868,0,0,0-5.58643.19824c-1.32324.22071-2.84179,2.8042-3.30273,3.648l-.34082.80811L.91113,13.00079l.00391,7.145a1.461,1.461,0,0,0,1.40723,1.29883c.04394,0,.0874-.00245.13134-.00684l2.335-.00293a1.35242,1.35242,0,0,0,.25147,0,1.282,1.282,0,0,0,1.167-1.35693v-.71826h5.57556A16.28055,16.28055,0,0,1,13.303,18.15948Z"/><polygon class="cls-1" points="21.567 31.79 17.09 27.323 16.304 25.466 18.151 26.263 22.628 30.729 21.567 31.79"/><path class="cls-3" d="M22.50118,29.53029a2,2,0,1,1-2,2A2,2,0,0,1,22.50118,29.53029Z"/><line class="cls-4" x1="12.75016" y1="31.53029" x2="9.63976" y2="31.53029"/><line class="cls-4" x1="12.99016" y1="31.53029" x2="9.63976" y2="31.53029"/><line class="cls-4" x1="32.01786" y1="31.53029" x2="35.3626" y2="31.53029"/><line class="cls-4" x1="22.50118" y1="22.08927" x2="22.50118" y2="18.66887"/><line class="cls-4" x1="15.77818" y1="24.80728" x2="13.40679" y2="22.43589"/><line class="cls-4" x1="29.22418" y1="24.80728" x2="31.59557" y2="22.43589"/><path class="cls-1" d="M9.93567,32.13029c-.00952-.20019-.0304-.3974-.0304-.59991a12.5962,12.5962,0,0,1,25.19239,0c0,.20251-.02088.39972-.0304.59991h1.19922c.00867-.20038.0304-.3974.0304-.59991a13.7959,13.7959,0,1,0-27.5918,0c0,.20251.02173.39953.03039.59991Z"/><polygon class="cls-1" points="39.317 16.876 37.189 14.747 34.442 17.444 33 16 33 21 38 21 36.566 19.572 39.317 16.876"/></svg>