<svg id="Hilfe" xmlns="http://www.w3.org/2000/svg" viewBox="0 0 40 40"><defs><style>.cls-1,.cls-2{fill:#fff;}.cls-2{fill-rule:evenodd;}</style></defs><polygon class="cls-1" points="21.011 11.982 20.01 11.982 20.241 8.398 20.818 8.398 21.011 11.982"/><polygon class="cls-1" points="22.12 31 18.9 31 19.383 24.403 21.637 24.403 22.12 31"/><polygon class="cls-1" points="32.74 20 34.876 20 32.193 15 30.961 15 32.74 20"/><polygon class="cls-1" points="29.663 11.982 30.685 11.978 28.804 8.001 28.214 8.004 29.663 11.982"/><polygon class="cls-1" points="36.713 31 40 31 36.739 24.284 34.439 24.295 36.713 31"/><polygon class="cls-1" points="10.056 15 8.824 15 6.141 20 8.277 20 10.056 15"/><polygon class="cls-1" points="12.803 8.004 12.213 8.001 10.332 11.978 11.354 11.982 12.803 8.004"/><polygon class="cls-1" points="6.578 24.295 4.278 24.284 1.017 31 4.304 31 6.578 24.295"/><polygon class="cls-1" points="21.401 18.157 21.154 15 19.947 15 19.705 17.583 21.401 18.157"/><path class="cls-2" d="M29.71967,23.54663a1.89936,1.89936,0,0,0-1.0868-1.21735L15.5305,17.78369a.41765.41765,0,0,1-.318-.44543L15.72087,15h3.57159l-3.88733-2.72339L10.71275,15h3.33392l-.86586,2.89319a1.09393,1.09393,0,0,0,.4709,1.13681L26.0569,23.72257a.73192.73192,0,0,1,.483.6192L27.30817,29H30.8869Z"/></svg>