<svg id="E334_Handsoff" xmlns="http://www.w3.org/2000/svg" viewBox="0 0 40 40"><defs><style>.cls-1{fill:#fff;}</style></defs><path class="cls-1" d="M36.78806,30.54877s-2.992-5.94567-4.71817-7.21152-2.2632-2.87694-2.68515-4.98669.16806-1.76452-.97084-3.52905,0-1.72616,0-1.72616A3.44637,3.44637,0,0,1,30.53552,15.512c.30687,1.76452,1.47856,1.667,1.47856,1.667s1.68859.27687,1.42543-3.71434c0,0,1.33487-.38387,1.66666,1.49122a3.77713,3.77713,0,0,0,.45842,1.45951s.28719.11943.28719-.40688.011-.69079.011-.69079,1.45832-.09868,1.39253,1.69955a.81274.81274,0,0,0,.39474.65789c.3728.17544.72368.28509.70175,1.18421s-.10965,5.08768-.10965,5.08768a2.45345,2.45345,0,0,1,.5921,2.76314A15.92545,15.92545,0,0,1,36.78806,30.54877Z"/><path class="cls-1" d="M3.21194,30.54877s2.992-5.94567,4.71817-7.21152,2.2632-2.87694,2.68515-4.98669-.16806-1.76452.97084-3.52905,0-1.72616,0-1.72616A3.44637,3.44637,0,0,0,9.46448,15.512c-.30687,1.76452-1.47856,1.667-1.47856,1.667s-1.68859.27687-1.42543-3.71434c0,0-1.33487-.38387-1.66666,1.49122a3.77713,3.77713,0,0,1-.45842,1.45951s-.28719.11943-.28719-.40688-.011-.69079-.011-.69079-1.45832-.09868-1.39253,1.69955a.81274.81274,0,0,1-.39474.65789c-.3728.17544-.72368.28509-.70175,1.18421s.10965,5.08768.10965,5.08768a2.45345,2.45345,0,0,0-.5921,2.76314A15.92545,15.92545,0,0,0,3.21194,30.54877Z"/><path class="cls-1" d="M8.02061,15.976a1.1402,1.1402,0,0,0,.27435-.66693,4.56147,4.56147,0,0,1,2.89028-3.33155l.17542-.0626.18625-.00618a1.65028,1.65028,0,0,1,.54019.08216,11.1714,11.1714,0,0,1,15.75936.02048,1.68988,1.68988,0,0,1,.607-.10264l.18625.00618.17619.06337a4.55867,4.55867,0,0,1,2.88874,3.33078,1.14022,1.14022,0,0,0,.27434.66693,3.23443,3.23443,0,0,0,.29753-1.64481,13.54216,13.54216,0,0,0-24.5554-.2062A3.44678,3.44678,0,0,0,8.02061,15.976Z"/><path class="cls-1" d="M31.36851,24.29446a7.43685,7.43685,0,0,1-.78865-.6705,11.22963,11.22963,0,0,1-.59,1.44176l-.04791.09892c-.19243.41808-.46291.65765-.74189.65765a.51982.51982,0,0,1-.32458-.11669l-2.35009-2.05643a7.41633,7.41633,0,0,0,.90186-3.5688v-.66l.97605.00154q-.09912-.42013-.18238-.83849a10.52934,10.52934,0,0,1-.211-1.68934,1.497,1.497,0,0,0-.204-.78749H12.19452a1.49282,1.49282,0,0,0-.2048.78826,10.51343,10.51343,0,0,1-.211,1.68857q-.08346.41754-.18238.83835l.88872-.0014-.00387.66a7.537,7.537,0,0,0,.90264,3.56957l-2.33232,2.04561a.51323.51323,0,0,1-.44591.11129,1.07727,1.07727,0,0,1-.63215-.643l-.04868-.10278A11.278,11.278,0,0,1,9.356,23.6896a7.49022,7.49022,0,0,1-.72411.60486,6.11365,6.11365,0,0,0-1.08309,1.23238,13.562,13.562,0,0,0,24.84366-.0895A5.73077,5.73077,0,0,0,31.36851,24.29446ZM19.95731,17.5989a3.84257,3.84257,0,1,1-3.70713,3.84083A3.79884,3.79884,0,0,1,19.95731,17.5989Zm6.585,11.49853-.03091.03014a.34833.34833,0,0,1-.04714.03941,11.193,11.193,0,0,1-13.00549.00464.32977.32977,0,0,1-.06723-.05487l-.02551-.02319a.52365.52365,0,0,1-.20634-.38872c-.00772-.25734.18548-.56955.6082-.98223l1.79986-1.57883a7.452,7.452,0,0,0,8.78135.00077l1.79135,1.57188c.42968.41577.626.72952.61747.98841A.53479.53479,0,0,1,26.54236,29.09743Z"/></svg>