<svg xmlns="http://www.w3.org/2000/svg" viewBox="0 0 40 40"><g id="EA45_flag_albania"><rect y="7" width="40" height="26" fill="#e41e20" /><path d="M27.10175,22.83472c-.22974-.27021-.48591-.28913-.80689.05554-.33618.01025-.571.01617-.90814.02771.1806-.15253.27673-.26923.45734-.42139.27758.08814.54882.05823.66644-.25152a.50048.50048,0,0,1,.41974-.17475.45365.45365,0,0,0-.57819-.049c-.42322-.19018-.4585.07965-.53412.25641-.28674.18823-.51843.34772-.80523.53577-.58454-.17054-1.059-.26612-1.64313-.43616.12677-.13117.25378-.25061.38055-.3822.03327-.111-.02514-.16754-.12085-.18457a2.08758,2.08758,0,0,1-1.813-1.51081c-.13751-.39611.15906-.51373.2613-.27118a1.97785,1.97785,0,0,0,.72033.99146c.14649.09875.58136.01855.325-.22211a1.17117,1.17117,0,0,1-.51452-.82812c.00006-.26593.27649-.3844.43121-.13068a2.38232,2.38232,0,0,0,.47858,1.07965,1.17858,1.17858,0,0,0,.66638.42139c.26416-.00513.52881-.28235.17645-.48346a1.14127,1.14127,0,0,1-.78076-.74152c-.08313-.45892.00739-.68158.29071-.45569.4021.44581,1.16889,1.2779,1.56964,1.66437a1.05951,1.05951,0,0,0,1.37854.00653c.23481-.26446.15113-.5509-.21722-.4884-.83075.06873-1.46149-.33569-2.15112-1.4259-.1366-.248-.17383-.60041.12579-.33808a3.05726,3.05726,0,0,0,1.31317,1.0094c.46722.16565.90009.1084,1.00452-.07025.17328-.29632.134-.62225-.17963-.51446a1.48708,1.48708,0,0,1-.998-.03266,2.93317,2.93317,0,0,1-1.18743-.98163c-.14228-.29852-.095-.55066.19274-.39691.6836.56714,1.56446,1.02631,2.01551.7497.33038-.20258.33667-.72034-.08332-.68763-.84692.11445-1.16711-.07043-1.97955-.77258-.18591-.13507-.17267-.47626.12085-.25806a2.37828,2.37828,0,0,0,1.9845.374c.32989-.20239.28107-.81848-.27442-.59943-.44366.264-.93548.25611-1.91912-.43121-.24793-.20062-.06318-.46466.14044-.35114.791.44092,1.943.629,2.2442-.26623.11554-.34339-.09448-.54328-.40509-.30542a1.44074,1.44074,0,0,1-1.87994.00323c-.11274-.00439-.35163-.43194.04736-.36584,1.03027.231,2.0487.03113,2.23279-.68274.10858-.23157-.10291-.64032-.47858-.2973a2.09867,2.09867,0,0,1-1.67743.49005c-.33624-.068-.339-.43048-.05884-.48346a2.97963,2.97963,0,0,0,1.4455-.43775,1.59334,1.59334,0,0,0,.83954-.98c.06488-.39276-.32111-.80945-.5553-.39361a2.73324,2.73324,0,0,1-1.95514,1.287c-.0437-.07209-.156-.25739-.29236-.20575a14.87305,14.87305,0,0,0-1.7558.81988c-.12323.06812.02149.39777.049.52429a.84987.84987,0,0,1-.17309.64844.64448.64448,0,0,1-.53736.1568c-.31359-.08362-.48223-.35577-.42956-.83954a1.17851,1.17851,0,0,1,.28583-.58636,2.02659,2.02659,0,0,1,.59454-.50141,5.2144,5.2144,0,0,1,1.238-.35443c.31653-.06213.47729-.18127.49652-.30871a1.66864,1.66864,0,0,1-.56348.13232.77473.77473,0,0,1-.3136-.15356,3.87,3.87,0,0,1,.53412.00329,2.74012,2.74012,0,0,0,.48346-.06042.68536.68536,0,0,0,.54553-.35773c.04938-.237-.10913-.27991-.25805-.12738a1.98467,1.98467,0,0,1-.23194.23846.89905.89905,0,0,1-.312.12738,1.443,1.443,0,0,1-.63861.01307,1.17877,1.17877,0,0,1,.26135-.22376.43127.43127,0,0,1,.294-.07678.35774.35774,0,0,1,.21228.16986c.04163-.26013-.03211-.55249-.73987-.43115.00946-.19507-.41229-.28034-.66638-.27607l-.00031-.00036a2.05018,2.05018,0,0,0-.65167.18616,4.69112,4.69112,0,0,1-1.0617.20416,5.36706,5.36706,0,0,0,.49816.36261,1.64775,1.64775,0,0,0-.73169.55536,1.856,1.856,0,0,1,.50306.03265,1.6296,1.6296,0,0,0-.83136.41486,1.999,1.999,0,0,1,.245.05389c.05152.01935.03015.04584-.00488.08331-.09619.06012-.46405.49341-.57306.59424-.10907-.10083-.47687-.53412-.573-.59424-.03509-.03747-.05646-.064-.00488-.08331a1.99393,1.99393,0,0,1,.245-.05389,1.6296,1.6296,0,0,0-.83136-.41486,1.85546,1.85546,0,0,1,.50306-.03265,1.64762,1.64762,0,0,0-.73175-.55536,5.35907,5.35907,0,0,0,.49816-.36261,4.68994,4.68994,0,0,1-1.06164-.20416,2.05089,2.05089,0,0,0-.65173-.18616l-.00025.00036c-.25409-.00427-.67584.081-.66638.27607-.70782-.12134-.78149.171-.73993.43115a.35782.35782,0,0,1,.21234-.16986.43134.43134,0,0,1,.294.07678,1.18015,1.18015,0,0,1,.26135.22376,1.44333,1.44333,0,0,1-.63867-.01307.89876.89876,0,0,1-.31195-.12738,1.98,1.98,0,0,1-.23194-.23846c-.14892-.15253-.30749-.10962-.25805.12738a.68527.68527,0,0,0,.54553.35773,2.74012,2.74012,0,0,0,.48346.06042,3.87,3.87,0,0,1,.53412-.00329.77514.77514,0,0,1-.3136.15356,1.66863,1.66863,0,0,1-.56354-.13232c.01923.12744.18006.24658.49652.30871a5.21487,5.21487,0,0,1,1.2381.35443,2.02739,2.02739,0,0,1,.59454.50141,1.17912,1.17912,0,0,1,.28583.58636c.05268.48377-.116.75592-.42956.83954a.64436.64436,0,0,1-.53736-.1568.84985.84985,0,0,1-.17315-.64844c.02752-.12652.17224-.45617.049-.52429a14.86917,14.86917,0,0,0-1.75586-.81988c-.13629-.05164-.2486.13366-.29236.20575a2.73324,2.73324,0,0,1-1.95508-1.287c-.23419-.41584-.62024.00085-.55536.39361a1.59353,1.59353,0,0,0,.83954.98,2.97963,2.97963,0,0,0,1.4455.43775c.28021.053.2774.41546-.05878.48346a2.0986,2.0986,0,0,1-1.67743-.49005c-.37567-.343-.58722.06573-.47858.2973.184.71387,1.20246.91376,2.23273.68274.399-.0661.1601.36145.04743.36584a1.44084,1.44084,0,0,1-1.88-.00323c-.31061-.23786-.52057-.038-.405.30542.30115.8952,1.45319.70715,2.24414.26623.20362-.11352.38837.15052.14051.35114-.98365.68732-1.47547.69519-1.91919.43121-.55542-.219-.60431.397-.27436.59943a2.37828,2.37828,0,0,0,1.9845-.374c.29346-.2182.30676.123.12085.25806-.81244.70215-1.13269.887-1.97961.77258-.42-.03271-.41364.48505-.08332.68763.451.27661,1.33191-.18256,2.01557-.7497.28772-.15375.335.09839.19275.39691a2.93364,2.93364,0,0,1-1.18744.98163,1.48708,1.48708,0,0,1-.998.03266c-.3136-.10779-.353.21814-.17969.51446.1045.17865.5373.2359,1.00452.07025A3.05657,3.05657,0,0,0,15.4234,19.078c.29968-.26233.26239.09009.12579.33808-.68963,1.09021-1.32037,1.49463-2.15112,1.4259-.36835-.0625-.452.22394-.21722.4884a1.05952,1.05952,0,0,0,1.37854-.00653c.40082-.38647,1.16754-1.21856,1.56964-1.66437.28338-.22589.3739-.00323.29071.45569a1.14116,1.14116,0,0,1-.7807.74152c-.35242.20111-.08777.47833.17639.48346a1.17837,1.17837,0,0,0,.66638-.42139,2.38169,2.38169,0,0,0,.47858-1.07965c.15478-.25372.43121-.13525.43121.13068a1.17079,1.17079,0,0,1-.51452.82812c-.25635.24066.17852.32086.32507.22211a1.9777,1.9777,0,0,0,.72027-.99146c.10224-.24255.39881-.12493.26136.27118a2.08758,2.08758,0,0,1-1.813,1.51081c-.09577.017-.15418.07354-.12091.18457.12683.13159.25378.251.38061.3822-.5841.17-1.05865.26562-1.64319.43616-.28674-.188-.51843-.34754-.80523-.53577-.07562-.17676-.11084-.44659-.53406-.25641a.45373.45373,0,0,0-.57825.049.5007.5007,0,0,1,.4198.17475c.11762.30975.3888.33966.66638.25152.18061.15216.2768.26886.45734.42139-.3371-.01154-.5719-.01746-.90814-.02771-.32092-.34467-.57709-.32575-.80682-.05554a.38337.38337,0,0,0-.36915.24334c.18842-.07733.30695-.10052.38874-.01629.34125.19781.56415.15362.73334,0,.32922.02008.62591.03711.9555.05877-.12109.10291-.28723.15754-.40832.26136-.49445-.14148-.75251.04895-.83954.45239a.92216.92216,0,0,0-.06861.5047.63121.63121,0,0,1,.26624-.3822c.44073.112.60644-.06794.63049-.33155.2124-.17334.53278-.21154.74475-.38708.24793.07934.36774.12848.61743.2074a.461.461,0,0,0,.61579.30706c.38818.01221.3197.17151.35113.299a.3513.3513,0,0,0-.13879-.5227.3434.3434,0,0,0-.53247-.2074c-.23792-.06756-.30042-.16461-.53742-.23193.59943-.1911,1.0246-.23407,1.62354-.42468.15.14141.2688.24292.4198.36914.07959.04748.15576.05944.20251,0a11.462,11.462,0,0,1,.89179-1.38019,1.21116,1.21116,0,0,1,.4884-.39691.28388.28388,0,0,1,.281.07025.5577.5577,0,0,1,.10614.44592,1.48462,1.48462,0,0,1-.19928.60266,2.26754,2.26754,0,0,1-.30707.44916,2.52514,2.52514,0,0,1-.68762.57007c-.34638.22589-.49292.127-.76111.11267-.34668.03894-.43891.20776-.15515.441a1.06618,1.06618,0,0,0,.69738.1192c.16639-.03076.36109-.24548.49982-.361.15613-.18042.415.03351.23847.24335a1.38548,1.38548,0,0,1-1.03717.62719c-.41578.056-.338.28955-.06208.40345a1.0924,1.0924,0,0,0,1.17273-.43122c.17572-.19226.30054-.1997.26953.098-.1745.53906-.4129.74731-.802.77417-.31561-.0293-.319.21435-.08819.379.52581.36395.90661-.25586,1.08453-.63049.12677-.33789.32123-.17719.34137.10132a1.33757,1.33757,0,0,1-.61572,1.05676c.34448.54877.746,1.10706,1.091,1.65772v.00012l.00006-.00006v-.00006c.345-.55066.74652-1.109,1.091-1.65772a1.3375,1.3375,0,0,1-.61578-1.05676c.02014-.27851.2146-.43921.34137-.10132.17792.37463.55872.99444,1.08453.63049.23084-.16461.22742-.40826-.08819-.379-.3891-.02686-.6275-.23511-.80194-.77417-.03107-.29773.09375-.29029.26947-.098a1.0924,1.0924,0,0,0,1.17273.43122c.27594-.1139.3537-.34748-.06208-.40345a1.38568,1.38568,0,0,1-1.03717-.62719c-.17657-.20984.08234-.42377.23847-.24335.13873.11548.33343.3302.49982.361a1.06635,1.06635,0,0,0,.69744-.1192c.28376-.23328.19153-.4021-.15515-.441-.26825.01434-.41473.11322-.76117-.11267a2.52691,2.52691,0,0,1-.68762-.57007,2.27009,2.27009,0,0,1-.30707-.44916,1.48552,1.48552,0,0,1-.19928-.60266.55745.55745,0,0,1,.1062-.44592.28385.28385,0,0,1,.281-.07025,1.21093,1.21093,0,0,1,.48834.39691,11.45466,11.45466,0,0,1,.89179,1.38019c.04675.05944.123.04748.20257,0,.151-.12622.26984-.22773.41974-.36914.59894.19061,1.02417.23358,1.62354.42468-.23694.06732-.2995.16437-.53736.23193a.34339.34339,0,0,0-.53247.2074.35137.35137,0,0,0-.13885.5227c.03149-.12744-.037-.28674.35119-.299a.461.461,0,0,0,.61579-.30706c.24963-.07892.36944-.12806.61737-.2074.212.17554.53235.21374.74481.38708.024.26361.18976.44355.63043.33155a.631.631,0,0,1,.26624.3822.92216.92216,0,0,0-.06861-.5047c-.087-.40344-.345-.59387-.83947-.45239-.1211-.10382-.2873-.15845-.40839-.26136.32965-.02166.62628-.03869.9555-.05877.16926.15362.39216.19781.7334,0,.08173-.08423.20032-.061.38874.01629A.38336.38336,0,0,0,27.10175,22.83472ZM22.57086,12.46954c.20593,0,.33643.0644.33649.15027,0,.08747-.13056.165-.33649.165-.20679,0-.33484-.071-.33484-.15845C22.236,12.54047,22.36407,12.46954,22.57086,12.46954Zm-5.14166.31525c-.20593,0-.33649-.07751-.33649-.165.00006-.08587.13056-.15027.33649-.15027.20679,0,.33484.07093.33484.1568C17.764,12.71375,17.636,12.78479,17.4292,12.78479Z" /></g></svg>