<svg xmlns="http://www.w3.org/2000/svg" xmlns:xlink="http://www.w3.org/1999/xlink" viewBox="0 0 44 44"><defs><linearGradient id="Hintergrund_schwarz" x1="2.23802" y1="22.00003" x2="41.76237" y2="22.00003" gradientUnits="userSpaceOnUse"><stop offset="0" stop-color="#010101"/></linearGradient><linearGradient id="Beschriftung_weiss" x1="7.49722" y1="26.31494" x2="37.22183" y2="26.31494" gradientUnits="userSpaceOnUse"><stop offset="0" stop-color="#fff"/></linearGradient><linearGradient id="Rahmen_weiss" x1="2" y1="22" x2="42" y2="22" xlink:href="#Beschriftung_weiss"/></defs><title>speedlimit_usa_can_night_150</title><g id="speedlimit_usa_can_night_150"><path id="Hintergrund_schwarz-2" data-name="Hintergrund_schwarz" d="M4.70709,41.76191h34.585a2.46785,2.46785,0,0,0,2.47027-2.47027V4.70843A2.46988,2.46988,0,0,0,39.2921,2.23816H4.70709A2.46988,2.46988,0,0,0,2.238,4.70843V39.29164A2.51079,2.51079,0,0,0,3.3992,41.39122a2.84065,2.84065,0,0,0,1.30789.37069Z" fill="url(#Hintergrund_schwarz)"/><path id="Beschriftung_weiss-2" data-name="Beschriftung_weiss" d="M11.27261,34.67773H8.922V20.90234H7.49722V19.00293a2.38447,2.38447,0,0,0,2.02539-1.0752h1.75Zm12.97461-5.97461a6.62011,6.62011,0,0,1-1.5625,4.4375,4.7324,4.7324,0,0,1-3.71191,1.83692,6.96956,6.96956,0,0,1-3.875-1l1.34961-2a4.58885,4.58885,0,0,0,2.40039.60058,3.10237,3.10237,0,0,0,2.16211-1.22558,4.01714,4.01714,0,0,0,.8623-2.67481,3.34636,3.34636,0,0,0-.64941-2.0498,2.11959,2.11959,0,0,0-1.80078-.875,2.16845,2.16845,0,0,0-1.72461,1.07519h-2.125l.125-8.90039h7.875v2.34961H17.97281L17.922,23.80273a3.90927,3.90927,0,0,1,1.72558-.375,4.17766,4.17766,0,0,1,3.34961,1.54981A5.68744,5.68744,0,0,1,24.24722,28.70312Zm7.999,6.27442a4.01518,4.01518,0,0,1-3.77442-2.16211,13.80609,13.80609,0,0,1-1.20019-6.5127,13.74794,13.74794,0,0,1,1.20019-6.47461,4.01146,4.01146,0,0,1,3.77442-2.17578,4.0129,4.0129,0,0,1,3.77539,2.17578,13.76017,13.76017,0,0,1,1.20019,6.47461,13.81829,13.81829,0,0,1-1.20019,6.5127A4.01664,4.01664,0,0,1,32.24625,34.97754Zm0-2.34961a2.01791,2.01791,0,0,0,1.97558-1.52539,14.43031,14.43031,0,0,0,.59961-4.84961,13.76983,13.76983,0,0,0-.59961-4.75,2.05033,2.05033,0,0,0-3.95019,0,13.74112,13.74112,0,0,0-.60059,4.75,14.40009,14.40009,0,0,0,.60059,4.84961A2.01607,2.01607,0,0,0,32.24625,32.62793Z" fill="url(#Beschriftung_weiss)"/><path id="Rahmen_weiss-2" data-name="Rahmen_weiss" d="M39.5,3h0A1.538,1.538,0,0,1,41,4.5v35A1.538,1.538,0,0,1,39.5,41H4.5a1.88389,1.88389,0,0,1-.8-.2A1.70937,1.70937,0,0,1,3,39.5V4.5A1.538,1.538,0,0,1,4.5,3h35m0-1H4.5A2.47572,2.47572,0,0,0,2,4.5v35a2.24512,2.24512,0,0,0,1.2,2.1,3.25851,3.25851,0,0,0,1.3.4h35A2.47572,2.47572,0,0,0,42,39.5h0V4.5A2.54,2.54,0,0,0,39.5,2Z" fill="url(#Rahmen_weiss)" stroke-width="0.5px" stroke="url(#Rahmen_weiss)"/></g></svg>