<svg xmlns="http://www.w3.org/2000/svg" xmlns:xlink="http://www.w3.org/1999/xlink" viewBox="0 0 44 44"><defs><linearGradient id="Hintergrund_schwarz" x1="2.19645" y1="22.00003" x2="41.80394" y2="22.00003" gradientUnits="userSpaceOnUse"><stop offset="0" stop-color="#010101"/></linearGradient><linearGradient id="Beschriftung_weiss" x1="7.52617" y1="26.31562" x2="37.22637" y2="26.31562" gradientUnits="userSpaceOnUse"><stop offset="0" stop-color="#fff"/></linearGradient><linearGradient id="Rahmen_weiss" x1="2" y1="22" x2="42" y2="22" xlink:href="#Beschriftung_weiss"/></defs><title>speedlimit_usa_can_night_90</title><g id="speedlimit_usa_can_night_90"><path id="Hintergrund_schwarz-2" data-name="Hintergrund_schwarz" d="M4.67072,41.80347H39.32847A2.473,2.473,0,0,0,41.80394,39.328V4.67206a2.4751,2.4751,0,0,0-2.47547-2.47547H4.67072A2.4751,2.4751,0,0,0,2.19645,4.67206V39.328a2.51609,2.51609,0,0,0,1.16362,2.104,2.84683,2.84683,0,0,0,1.31065.37147Z" fill="url(#Hintergrund_schwarz)"/><path id="Beschriftung_weiss-2" data-name="Beschriftung_weiss" d="M7.52617,22.8288a4.59279,4.59279,0,0,1,1.78711-3.71289A7.05069,7.05069,0,0,1,13.92559,17.653a7.61567,7.61567,0,0,1,5.05078,1.71289,5.92557,5.92557,0,0,1,2.0498,4.8125,10.58841,10.58841,0,0,1-3.26269,7.4248,10.837,10.837,0,0,1-7.8877,3.375V32.153q5.2251-.82471,7.35059-4.82422a10.20177,10.20177,0,0,1-3.42578.5498,6.96575,6.96575,0,0,1-4.5-1.4248A4.45,4.45,0,0,1,7.52617,22.8288Zm2.97461-.02539a1.76772,1.76772,0,0,0,.97559,1.5625,4.89361,4.89361,0,0,0,2.5498.58789,5.4112,5.4112,0,0,0,2.61231-.5127,1.53224,1.53224,0,0,0,.88769-1.4375,1.75379,1.75379,0,0,0-.9248-1.63769,4.58223,4.58223,0,0,0-2.5752-.66211,4.89386,4.89386,0,0,0-2.5498.58691A1.73491,1.73491,0,0,0,10.50078,22.80341Zm26.72559,3.4248a9.99721,9.99721,0,0,1-1.8877,6.33789,6.07183,6.07183,0,0,1-5.03711,2.41211,6.23786,6.23786,0,0,1-5.40039-2.77441A9.99032,9.99032,0,0,1,23.201,26.278a9.65611,9.65611,0,0,1,1.90039-6.3125,6.37062,6.37062,0,0,1,5.20019-2.3125,6.13677,6.13677,0,0,1,5.01172,2.36328A9.5655,9.5655,0,0,1,37.22637,26.22821Zm-2.97559.04981a7.21139,7.21139,0,0,0-1.03711-4.14942,3.33885,3.33885,0,0,0-2.91211-1.5,3.45794,3.45794,0,0,0-2.97558,1.5,7.01573,7.01573,0,0,0-1.0752,4.14942,7.12136,7.12136,0,0,0,1.0752,4.1875,3.4481,3.4481,0,0,0,2.97558,1.51269,3.33,3.33,0,0,0,3.14942-1.875A7.99588,7.99588,0,0,0,34.25078,26.278Z" fill="url(#Beschriftung_weiss)"/><path id="Rahmen_weiss-2" data-name="Rahmen_weiss" d="M39.5,3h0A1.538,1.538,0,0,1,41,4.5v35A1.538,1.538,0,0,1,39.5,41H4.5a1.88389,1.88389,0,0,1-.8-.2A1.70937,1.70937,0,0,1,3,39.5V4.5A1.538,1.538,0,0,1,4.5,3h35m0-1H4.5A2.47572,2.47572,0,0,0,2,4.5v35a2.24512,2.24512,0,0,0,1.2,2.1,3.25851,3.25851,0,0,0,1.3.4h35A2.47572,2.47572,0,0,0,42,39.5h0V4.5A2.54,2.54,0,0,0,39.5,2Z" fill="url(#Rahmen_weiss)" stroke-width="0.5px" stroke="url(#Rahmen_weiss)"/></g></svg>