<svg xmlns="http://www.w3.org/2000/svg" xmlns:xlink="http://www.w3.org/1999/xlink" viewBox="0 0 44 44"><defs><linearGradient id="Hintergrund_schwarz" x1="2.19645" y1="22.00003" x2="41.80394" y2="22.00003" gradientUnits="userSpaceOnUse"><stop offset="0" stop-color="#010101"/></linearGradient><linearGradient id="Beschriftung_weiss" x1="7.52812" y1="26.31382" x2="37.22832" y2="26.31382" gradientUnits="userSpaceOnUse"><stop offset="0" stop-color="#fff"/></linearGradient><linearGradient id="Rahmen_weiss" x1="2" y1="22" x2="42" y2="22" xlink:href="#Beschriftung_weiss"/></defs><title>speedlimit_usa_can_night_40</title><g id="speedlimit_usa_can_night_40"><path id="Hintergrund_schwarz-2" data-name="Hintergrund_schwarz" d="M4.67072,41.80347H39.32847A2.473,2.473,0,0,0,41.80394,39.328V4.67206a2.4751,2.4751,0,0,0-2.47547-2.47547H4.67072A2.4751,2.4751,0,0,0,2.19645,4.67206V39.328a2.51609,2.51609,0,0,0,1.16362,2.104,2.84683,2.84683,0,0,0,1.31065.37147Z" fill="url(#Hintergrund_schwarz)"/><path id="Beschriftung_weiss-2" data-name="Beschriftung_weiss" d="M22.82793,31.27622H20.35234v3.40039H17.40312V31.27622h-9.875v-2.6748l9.97461-10.67481h2.84961V28.577h2.47559ZM17.40312,28.577v-6.4502L11.37773,28.577Zm19.8252-2.35059a9.99717,9.99717,0,0,1-1.8877,6.33789,6.07181,6.07181,0,0,1-5.0371,2.41211,6.23789,6.23789,0,0,1-5.4004-2.77441,9.9904,9.9904,0,0,1-1.70019-5.92579,9.65615,9.65615,0,0,1,1.90039-6.3125,6.37065,6.37065,0,0,1,5.2002-2.3125,6.13677,6.13677,0,0,1,5.01171,2.36329A9.56546,9.56546,0,0,1,37.22832,26.22642Zm-2.97559.0498a7.21138,7.21138,0,0,0-1.03711-4.14941,3.33884,3.33884,0,0,0-2.9121-1.5,3.458,3.458,0,0,0-2.97559,1.5,7.01572,7.01572,0,0,0-1.0752,4.14941,7.12136,7.12136,0,0,0,1.0752,4.1875,3.44814,3.44814,0,0,0,2.97559,1.5127,3.33,3.33,0,0,0,3.14941-1.875A7.99592,7.99592,0,0,0,34.25273,26.27622Z" fill="url(#Beschriftung_weiss)"/><path id="Rahmen_weiss-2" data-name="Rahmen_weiss" d="M39.5,3h0A1.538,1.538,0,0,1,41,4.5v35A1.538,1.538,0,0,1,39.5,41H4.5a1.88389,1.88389,0,0,1-.8-.2A1.70937,1.70937,0,0,1,3,39.5V4.5A1.538,1.538,0,0,1,4.5,3h35m0-1H4.5A2.47572,2.47572,0,0,0,2,4.5v35a2.24512,2.24512,0,0,0,1.2,2.1,3.25851,3.25851,0,0,0,1.3.4h35A2.47572,2.47572,0,0,0,42,39.5h0V4.5A2.54,2.54,0,0,0,39.5,2Z" fill="url(#Rahmen_weiss)" stroke-width="0.5px" stroke="url(#Rahmen_weiss)"/></g></svg>