<svg xmlns="http://www.w3.org/2000/svg" xmlns:xlink="http://www.w3.org/1999/xlink" viewBox="0 0 44 44"><defs><linearGradient id="Hintergrund_schwarz" x1="2.27959" y1="22.00003" x2="41.7208" y2="22.00003" gradientUnits="userSpaceOnUse"><stop offset="0" stop-color="#010101"/></linearGradient><linearGradient id="Beschriftung_weiss" x1="7.57598" y1="26.30406" x2="37.20098" y2="26.30406" gradientUnits="userSpaceOnUse"><stop offset="0" stop-color="#fff"/></linearGradient><linearGradient id="Rahmen_weiss" x1="2" y1="22" x2="42" y2="22" xlink:href="#Beschriftung_weiss"/></defs><title>speedlimit_usa_can_night_20</title><g id="speedlimit_usa_can_night_20"><path id="Hintergrund_schwarz-2" data-name="Hintergrund_schwarz" d="M4.74347,41.72034H39.25573a2.46266,2.46266,0,0,0,2.46507-2.46507V4.7448a2.4647,2.4647,0,0,0-2.46507-2.46508H4.74347A2.4647,2.4647,0,0,0,2.27959,4.7448V39.25527a2.50551,2.50551,0,0,0,1.15873,2.09516,2.83482,2.83482,0,0,0,1.30515.36991Z" fill="url(#Hintergrund_schwarz)"/><path id="Beschriftung_weiss-2" data-name="Beschriftung_weiss" d="M21.076,34.66685H7.576q.4995-6.57421,6.85058-9.25a19.58052,19.58052,0,0,0,2.69922-1.3125,1.60941,1.60941,0,0,0,.97559-1.4873,1.64668,1.64668,0,0,0-.8252-1.3877,4.77713,4.77713,0,0,0-2.57519-.58789,6.67931,6.67931,0,0,0-4.64942,2.10059l-2.42578-1.9502a9.68687,9.68687,0,0,1,7-3.15039,7.09916,7.09916,0,0,1,4.7002,1.46289,4.43558,4.43558,0,0,1,1.75,3.5127,4.1616,4.1616,0,0,1-.9502,2.8125,10.43439,10.43439,0,0,1-3.52441,2.16211q-4.125,1.97607-4.92481,4.07519H21.076Zm16.125-8.45019a9.99723,9.99723,0,0,1-1.8877,6.33789,6.07183,6.07183,0,0,1-5.03711,2.41211,6.23787,6.23787,0,0,1-5.40039-2.77442,9.99028,9.99028,0,0,1-1.70019-5.92578A9.65609,9.65609,0,0,1,25.076,19.954a6.37065,6.37065,0,0,1,5.20019-2.3125,6.1368,6.1368,0,0,1,5.01172,2.36328A9.56551,9.56551,0,0,1,37.201,26.21666Zm-2.97559.0498a7.21138,7.21138,0,0,0-1.03711-4.14941,3.33886,3.33886,0,0,0-2.91211-1.5,3.45794,3.45794,0,0,0-2.97558,1.5,7.01572,7.01572,0,0,0-1.0752,4.14941,7.12136,7.12136,0,0,0,1.0752,4.1875,3.44811,3.44811,0,0,0,2.97558,1.5127,3.33,3.33,0,0,0,3.14942-1.875A7.99592,7.99592,0,0,0,34.22539,26.26646Z" fill="url(#Beschriftung_weiss)"/><path id="Rahmen_weiss-2" data-name="Rahmen_weiss" d="M39.5,3h0A1.538,1.538,0,0,1,41,4.5v35A1.538,1.538,0,0,1,39.5,41H4.5a1.88389,1.88389,0,0,1-.8-.2A1.70937,1.70937,0,0,1,3,39.5V4.5A1.538,1.538,0,0,1,4.5,3h35m0-1H4.5A2.47572,2.47572,0,0,0,2,4.5v35a2.24512,2.24512,0,0,0,1.2,2.1,3.25851,3.25851,0,0,0,1.3.4h35A2.47572,2.47572,0,0,0,42,39.5h0V4.5A2.54,2.54,0,0,0,39.5,2Z" fill="url(#Rahmen_weiss)" stroke-width="0.5px" stroke="url(#Rahmen_weiss)"/></g></svg>