<svg xmlns="http://www.w3.org/2000/svg" viewBox="0 0 40 40"><defs><style>.cls-1{fill:none;stroke:#fff;stroke-miterlimit:10;stroke-width:2px;}</style></defs><g id="Icon"><path class="cls-1" d="M22.20446,7H37.58737a1.30323,1.30323,0,0,1,.89389,2.3066,27.62763,27.62763,0,0,1-2.41788,1.63144s-.29247.02984-.29227.66934c.00034,1.08579.00249,3.38354.00249,3.38354a1.3727,1.3727,0,0,1-.7808,1.49134l-9.38465,4.88548a1.5,1.5,0,0,0-.65586,2.03818l2.2367,4.64532a1.5,1.5,0,0,1-.35368,1.83765L20.58577,35.2122a1.61656,1.61656,0,0,1-2.4613-.44042l-.802-1.43523a1.60931,1.60931,0,0,1,.1045-1.73855l.60083-.92806a3.235,3.235,0,0,0-5.60316-3.23485l-.42306.81563a1.62178,1.62178,0,0,1-2.22321.69535L1.82171,24.59032a1.49825,1.49825,0,0,1,.44363-2.78655L5.2641,21.234a1.5,1.5,0,0,0,1.20637-1.27179l.14322-1.05462a1.5,1.5,0,0,1,1.34709-1.29167L18.5582,16.61376a1.3973,1.3973,0,0,0,.40671-2.42825c-.81373-.64426-6.27755-3.98088-7.41387-4.87889A1.30323,1.30323,0,0,1,12.44494,7h9.55952"/></g></svg>