<svg xmlns="http://www.w3.org/2000/svg" viewBox="0 0 40 40"><g id="EA45_flag_angola"><rect y="7" width="40" height="26" fill="#252525" /><rect y="7" width="40" height="13" fill="#ce1126" /><path d="M26.9,20.67957a6.93527,6.93527,0,0,0,0-1.35914l-.54254.05341a6.42815,6.42815,0,0,0-.23346-1.23151l.51087-.155a6.93639,6.93639,0,0,0-.52014-1.25568l-.47059.25153a6.35221,6.35221,0,0,0-.69726-1.043l.41272-.33869a6.93383,6.93383,0,0,0-.96106-.96112l-.3385.41248-.003-.00281a6.37733,6.37733,0,0,0-1.04712-.681l.25854-.4837a6.93132,6.93132,0,0,0-1.25567-.52015l-.15894.52393A6.37868,6.37868,0,0,0,20.669,13.635l-.12543,1.19342a5.2,5.2,0,1,1-3.83991,9.19324l-.76074.9281a6.39762,6.39762,0,0,0,1.04364.68793l-.25494.47692a6.92991,6.92991,0,0,0,1.25574.52015l.15924-.52509a6.35149,6.35149,0,0,0,1.22821.238l-.05439.55218a6.926,6.926,0,0,0,1.35914,0l-.05457-.554a6.40344,6.40344,0,0,0,1.22717-.24018l.16046.52906a6.93376,6.93376,0,0,0,1.25574-.52015l-.25659-.48a6.32791,6.32791,0,0,0,1.04791-.6878l.33875.41278a6.93755,6.93755,0,0,0,.96112-.96112l-.41248-.3385.00269-.003a6.38277,6.38277,0,0,0,.68439-1.04541l.48053.25683a6.93464,6.93464,0,0,0,.52008-1.25574l-.51416-.15594a6.3757,6.3757,0,0,0,.23962-1.23029Z" fill="#f9d616" /><polygon points="20.872 17.883 22.282 16.858 20.539 16.858 20 15.2 19.461 16.858 17.718 16.858 19.128 17.883 18.59 19.541 20 18.517 21.41 19.541 20.872 17.883" fill="#f9d616" /><path d="M25.58922,25.89463c.34118.33016.80058.65563,1.13378.95134a3.8873,3.8873,0,0,1,.79514.87748c.30286.49235-.03723,1.04995-.50882.72266-.255-.177-.41527-.65481-.80595-1.0502a2.10939,2.10939,0,0,0-1.24466-.62918c-.03492-.006-.04513-.07976-.01768-.112Z" fill="#f9d616" /><path d="M20.56538,24.25289l1.79977,1.06421.39125,1.51806,2.06581-.1565.90771-1.06421-3.36477-2.33186Z" fill="#252525" /><path d="M24.859,26.55017c-2.31424-1.539-3.78585-2.37006-6.00372-3.63111a2.68191,2.68191,0,0,1-1.157-3.824c.06719,1.36776,5.47278,5.12206,7.7569,6.75446Z" fill="#f9d616" /><path d="M25.23524,26.18713a.06663.06663,0,0,1-.0401-.01345c-.66276-.50131-1.3645-.99549-2.04314-1.47344a36.22283,36.22283,0,0,1-3.99011-3.09445.06666.06666,0,1,1,.09141-.097,36.13164,36.13164,0,0,0,3.97543,3.08246c.6796.47856,1.38229.97344,2.04679,1.476a.06667.06667,0,0,1-.04028.11988Z" fill="#252525" /><circle id="c" cx="25.81333" cy="26.4264" r="0.0896" /><circle id="c-2" data-name="c" cx="26.47285" cy="27.00112" r="0.0896" /><circle id="c-3" data-name="c" cx="27.05228" cy="27.58998" r="0.0896" /></g></svg>