<svg xmlns="http://www.w3.org/2000/svg" id="t11_1p68" viewBox="0 0 40 40"><rect id="rect4" y="7" width="40" height="26" fill="#007934" /><rect id="rect6" y="7" width="40" height="17.33333" fill="#ffe000" /><path d="M21.0269,16.208a1.31793,1.31793,0,0,1,.43328.9707,1.45254,1.45254,0,0,1-2.89935,0,1.3208,1.3208,0,0,1,.45987-.99463" fill="none" stroke="#007934" stroke-miterlimit="10" stroke-width="0.5" /><path id="path2383" d="M21.56606,18.873s-2.1053,3.63568-2.13025,3.70467c-.00539-.00781-.47887.87253-.47887.87253a3.30831,3.30831,0,0,1-.59051-.29187c.25929-.41476.88106-1.05123.86842-1.09185.17478-.29585,2.07345-3.20779,2.07345-3.20779.08923-.02937.25712-.00785.25776.01431Z" fill="#a05a2c" /><path id="path2390" d="M21.622,18.22441c-.02769.05872.19737.12058.198.14278L20.1191,21.84577c-.07188.05565-.14055-.01451-.16262-.00563,0,0,1.61534-3.21218,1.73291-3.44438l-.15427-.066c-.04791-.0114-.06226-.04346-.04119-.092l.7143-1.22825L21.622,18.22441" fill="#cce5e5" /><path id="path3483" d="M18.44975,18.82674l2.63548,4.62343a3.34189,3.34189,0,0,0,.59647-.29482c-.2619-.41895-1.8835-2.18207-1.89272-2.1867l-1.07887-2.15637c-.09013-.02966-.25971-.00793-.26036.01446Z" fill="#a05a2c" /><path id="path3491" d="M18.39325,18.17162c.028.05932-.19936.1218-.2.14424l1.71806,3.51371c.0726.05621.142-.01467.16426-.00569l-1.17821-2.40072s-.45341-.84389-.5722-1.07845l.15583-.06665c.04839-.01151.06289-.04389.0416-.09293l-.72151-1.24066.59215,1.22715" fill="#e7e7e7" /><path d="M18.099,19.074l-.68219-.69519a2.968,2.968,0,0,1-.15912.5647l-.31-.23175s-.01141.25855-.03711.63715l-.54242-.33869s-.20971,2.5719-.15,2.9195a1.49406,1.49406,0,0,0,.36859.90588c.35419.36658,1.11694.15479,1.11694.15479a2.18309,2.18309,0,0,0,1.67591-.782S18.10211,19.2995,18.099,19.074Z" fill="#d52b1e" /><path d="M18.30585,19.26965l-.43915-.43274a1.801,1.801,0,0,1-.14154.4535l-.15308-.1117a2.93056,2.93056,0,0,0-.12616.481l-.46209-.26471a7.57984,7.57984,0,0,0-.17585,2.61023c.15326.66186.67151.63495,1.373.57672a8.55112,8.55112,0,0,0,1.56744-.67725A18.98067,18.98067,0,0,1,18.30585,19.26965Z" fill="#ffe000" /><path d="M21.89937,19.09476l.68219-.69519a2.968,2.968,0,0,0,.15912.5647l.31-.23176s.01141.25855.03711.63715l.54242-.33868s.20972,2.5719.15,2.91949a1.494,1.494,0,0,1-.36859.90589c-.35418.36657-1.11694.15478-1.11694.15478a2.18306,2.18306,0,0,1-1.6759-.782S21.89626,19.32028,21.89937,19.09476Z" fill="#d52b1e" /><path d="M20.2499,21.92551a8.55121,8.55121,0,0,0,1.56744.67724c.70154.05823,1.21979.08515,1.373-.57672a7.57981,7.57981,0,0,0-.17584-2.61023l-.4621.26471a2.93082,2.93082,0,0,0-.12616-.481l-.15307.1117a1.80154,1.80154,0,0,1-.14155-.45349l-.43914.43274A18.98169,18.98169,0,0,1,20.2499,21.92551Z" fill="#ffe000" /><path d="M18.70905,19.6554l-.40577-.3891a2.56217,2.56217,0,0,0-.09875.37329c-.051-.038-.10291-.07678-.144-.1034-.1377.5315-.81264,2.77491.91125,2.527A20.59328,20.59328,0,0,1,18.70905,19.6554Z" fill="#007934" /><path d="M21.28933,19.67618l.40576-.3891a2.56155,2.56155,0,0,1,.09875.37329c.051-.038.10291-.07678.144-.10339.13769.53149.81264,2.77491-.91126,2.527A20.59336,20.59336,0,0,0,21.28933,19.67618Z" fill="#007934" /><path id="path4790-9" d="M21.8648,20.62942a1.99182,1.99182,0,0,1-1.86432,2.09844A1.99153,1.99153,0,0,1,18.1352,20.6305v-.00108A1.99168,1.99168,0,0,1,20,18.53152,1.99168,1.99168,0,0,1,21.8648,20.62942Z" fill="#e8a30e" /><circle cx="19.99022" cy="19.89399" r="0.62847" fill="#d52b1e" /><path d="M21.38855,20.73938c-.03906-.03741-1.31995-.85626-1.36774-.84326-.08551.02307-1.31634.79254-1.42181.84326h-.4613a1.97745,1.97745,0,0,0,1.86236,1.98791,1.9773,1.9773,0,0,0,1.86218-1.98791Z" fill="#007934" /><path id="path4014-9" d="M20,18.53152a1.99168,1.99168,0,0,0-1.8648,2.0979A1.99168,1.99168,0,0,0,20,22.72732a1.99168,1.99168,0,0,0,1.8648-2.0979A1.99168,1.99168,0,0,0,20,18.53152Zm0,.46853a1.52374,1.52374,0,0,1,1.40108,1.62937A1.5236,1.5236,0,0,1,20,22.25865a1.5236,1.5236,0,0,1-1.40108-1.62923A1.52374,1.52374,0,0,1,20,19.00005Z" fill="#00a6de" /><path id="path7858" d="M18.48282,19.63137l.07162.03888a.2883.2883,0,0,0,.0254-.07065.15569.15569,0,0,0-.06984-.03739c-.0104.00229-.03841.04865-.0382.05463a.0178.0178,0,0,0,.011.01453m.09342.05072.092.05a.0184.0184,0,0,0,.01891.00094.277.277,0,0,0,.0342-.05966.03394.03394,0,0,0-.00095-.02305.10537.10537,0,0,0-.02925-.02676q-.06442-.035-.0943.02056l-.02064.038m-.08137-.15452a.08055.08055,0,0,1,.03221-.02163.07848.07848,0,0,1,.02815-.00414.057.057,0,0,1,.02421.00693.05532.05532,0,0,1,.02437.02954.097.097,0,0,1,.00733.04232.12724.12724,0,0,1,.05256-.03337.06928.06928,0,0,1,.05541.00625.07791.07791,0,0,1,.03852.05691c.0152.04368-.08245.20675-.08245.20675l-.00142-.00025c-.02033-.01536-.23926-.13421-.26427-.14347l-.00077-.00145" fill="#e8a30e" /><path id="path7860" d="M18.93324,19.023q-.06117.051.02124.14979a.15832.15832,0,0,0,.08294.05887.0838.0838,0,0,0,.07477-.01912.065.065,0,0,0,.02572-.06119.17712.17712,0,0,0-.0448-.08388.18574.18574,0,0,0-.08411-.0656.08089.08089,0,0,0-.07576.02113m.21185-.01048a.15368.15368,0,0,1,.03914.11617.1609.1609,0,0,1-.06287.10941.16482.16482,0,0,1-.11544.04179.13853.13853,0,0,1-.104-.05285.15933.15933,0,0,1-.03946-.118.15459.15459,0,0,1,.059-.10975.16523.16523,0,0,1,.118-.04366.14546.14546,0,0,1,.10558.05687" fill="#e8a30e" /><path id="path7862" d="M19.61949,18.92136c.018-.005.12576-.04566.12576-.04566l.00136.00151c.00076.005.0095.03635.0124.04452l-.00051.00156c-.00741.00111-.20065.05588-.20065.05588l-.001-.00113c-.00274-.02114-.07125-.26711-.08112-.28956l.00073-.00162c.01369-.00287.07258-.02022.07258-.02022l.00081.00119" fill="#e8a30e" /><path id="path7864" d="M20.12987,18.60839l.001-.00126c.01468.00252.05074.00644.07649.00833l.0003.00141c-.00643.024-.03343.27183-.03256.29894l-.00106.00126c-.01468-.00252-.05074-.00644-.07648-.00833l-.00031-.00141" fill="#e8a30e" /><path id="path7866" d="M20.68486,18.99922a2.03913,2.03913,0,0,0,.1789-.15224l.04352.02337q-.19548.148-.26555.2039l-.02828-.01519c.00252-.02586.03131-.31382.0319-.32935.00425.00331.06763.03734.0726.039a1.98384,1.98384,0,0,0-.03309.23053" fill="#e8a30e" /><path id="path7868" d="M21.23123,19.15081l.00163-.00024c.00934.01161.03376.03842.05181.05688l-.00071.00126c-.02073.01375-.205.18159-.22232.20248l-.00162.00025c-.00934-.01161-.03376-.03843-.05181-.05689l.0007-.00125" fill="#e8a30e" /><path id="path7870" d="M21.44917,19.78623q.04416-.0454.0753-.08047l-.00125-.00268-.1106.00349c.005.01223.02943.06506.03655.07966m-.0651-.07843a.93909.93909,0,0,0-.10946.01024l-.01988-.04272q.23633-.00147.33519-.00427l.01766.038q-.17139.1799-.22324.24493c-.00142-.0052-.03083-.06843-.03389-.07286q.03183-.02711.07953-.07515c-.00753-.01726-.03537-.07694-.04591-.09815" fill="#e8a30e" /><path id="path6841" d="M20.27972,22.30731l-.04361.12547-.13282.00271.10586.08025-.03847.12715.109-.07588.109.07588-.03847-.12715.10586-.08025-.13281-.00271Z" fill="#e8a30e" /><path id="path6843" d="M20.79881,22.08617l-.04361.12548-.13281.0027.10585.08026-.03846.12715.109-.07588.109.07588-.03847-.12715.10586-.08026-.13281-.0027Z" fill="#e8a30e" /><path id="path6845" d="M21.60057,20.668l-.04362.12547-.13281.00271.10586.08025-.03847.12715.109-.07587.109.07587-.03846-.12715.10585-.08025-.13281-.00271Z" fill="#e8a30e" /><path id="path6847" d="M21.21991,21.67974l.04361.12548.13281.0027-.10585.08026.03846.12714-.109-.07587-.109.07587.03847-.12714-.10586-.08026.13281-.0027Z" fill="#e8a30e" /><path id="path6849" d="M21.48884,21.21717l.04362.12547.13281.00271-.10586.08025.03847.12715-.109-.07588-.109.07588.03846-.12715-.10585-.08025.13281-.00271Z" fill="#e8a30e" /><path id="path6853" d="M19.72028,22.30731l.04361.12547.13282.00271-.10586.08025.03847.12715-.109-.07588-.109.07588.03847-.12715-.10586-.08025.13282-.00271Z" fill="#e8a30e" /><path id="path6855" d="M19.20119,22.08617l.04361.12548.13281.0027-.10585.08026.03846.12715-.109-.07588-.109.07588.03847-.12715-.10586-.08026.13281-.0027Z" fill="#e8a30e" /><path id="path6857" d="M18.39943,20.668l.04362.12547.13281.00271-.10586.08025.03847.12715-.109-.07587-.109.07587.03846-.12715-.10585-.08025.13281-.00271Z" fill="#e8a30e" /><path id="path6859" d="M18.78009,21.67974l-.04361.12548-.13281.0027.10585.08026-.03846.12714.109-.07587.109.07587-.03847-.12714.10586-.08026-.13281-.0027Z" fill="#e8a30e" /><path id="path6861" d="M18.51116,21.21717l-.04362.12547-.13281.00271.10586.08025-.03847.12715.109-.07588.109.07588-.03846-.12715.10585-.08025-.13281-.00271Z" fill="#e8a30e" /><path d="M22.47791,17.52008a1.62,1.62,0,0,0-.22052-.12793c-.077-.028-.81543-.32391-.88276-.33435s-.40081-.04193-.65417-.06634-.58594.35418-.60016.35015a1.8088,1.8088,0,0,0-.42334.05622c-.00964-.00147-.23309-.39539-.32233-.40589a2.23436,2.23436,0,0,0-.6828-.00787c-.2149.058-1.19592.56384-1.19592.56384.00543-.00183,1.31586.17121,1.32379.18677.00849.0166.80133.38922.82062.3822a4.67338,4.67338,0,0,0-.31915.69678c.02453.00189.52978-.24353.54083-.23615,0,0,.27631-.34.28809-.34375l.10034.10791a1.65438,1.65438,0,0,0,.14032-.25317l.00329.00061s.21283-.02789.23755-.03137c.02387-.0033.53436-.26636.5434-.28265C21.18286,17.76093,22.52917,17.55353,22.47791,17.52008Z" fill="#452c25" /><path id="path6819-9-5" d="M19.73307,17.494a1.0779,1.0779,0,0,1,.2473-.09064,1.24212,1.24212,0,0,1,.11822.04729.71379.71379,0,0,1,.06633.21148.41389.41389,0,0,1-.04221.13267.32738.32738,0,0,1-.09651.06437.848.848,0,0,1-.18575-.00788.10925.10925,0,0,1-.06634-.05255c-.00363-.00657-.06273-.08276-.05912-.109S19.71257,17.5019,19.73307,17.494Z" fill="#dcddde" /><path id="path7155-7-8" d="M19.91536,17.51134s-.20626.03422-.22647.03422a.49189.49189,0,0,1-.07279-.02055c-.02157-.0044-.09166-.01174-.11727.01468s-.09043.08164-.09171.0944.00815.03182.02432.03182.03562.0304.03557.03759c-.00014.012.05894.02894.10088.0287a1.537,1.537,0,0,0,.42161-.09564.08117.08117,0,0,0,.01212-.09393c-.02022-.03376-.08083-.03029-.08626-.03129" fill="#dba05f" /><rect id="rect8" y="7" width="40" height="8.66667" fill="#d52b1e" /></svg>