<?xml version="1.0" encoding="UTF-8"?>
<svg id="Ebene_1" data-name="Ebene 1" xmlns="http://www.w3.org/2000/svg" viewBox="0 0 175 40">
  <defs>
    <style>

      .cls-2 {
        fill: #000;
        fill-rule: evenodd;
      }

    </style>
  </defs>
  <path class="cls-2" d="M19.64623,39.2075c-1.58506,0-2.87-1.28494-2.87-2.87V3.6025c0-1.5961,1.2939-2.89,2.89-2.89h0s135.75755,0,135.75755,0c1.57401,0,2.85,1.27599,2.85,2.85V36.3975c0,1.56849-1.27151,2.84-2.84,2.84l-135.78755-.03Z"/>
<text transform="translate(109 27.8)" font-family="AudiTypeDisplayHigh-Normal, Audi Type Display High" font-size="22px" fill="#fff" text-anchor="middle" isolation="isolate">{value}</text>  
  <g>
    <polygon points="25.64562 32.90448 37.64562 32.90448 38.64562 7.20447 34.2456 7.20447 25.64562 32.90448" fill="#fff"/>
    <path d="M50.84564,7.04553l3.92023,3.35492c-2.65216,1.34601-5.43005,3.01428-7.71722,5.07251l-2.76685-8.26849h-4.40002l1,25.70001h12l-4.03876-12.06934c.85358-3.18481,5.19763-6.93805,8.15686-8.39215l2.74573,3.50256,3.5-8.90002h-12.39996Z" fill="#fff"/>
  </g>
  <path d="M155.41377,1.5025c1.1598,0,2.07,.9102,2.07,2.07V36.4075c0,1.15427-.93572,2.08999-2.09,2.09H19.63623c-1.17084,0-2.12-.94915-2.12-2.12V3.6425c0-1.18189,.95811-2.14,2.14-2.14H155.41377ZM155.41377,.0025H19.65623c-2.01032,0-3.64,1.62968-3.64,3.64h0V36.3775c0,1.99927,1.62073,3.62,3.62,3.62H155.39378c1.9827,0,3.59-1.6073,3.59-3.59V3.5725c0-1.98822-1.58177-3.57-3.57-3.57h0Z" fill="#fff"/>
</svg>