<svg xmlns="http://www.w3.org/2000/svg" viewBox="0 0 44 44"><g id="d0_t5_cc-swe_1p0_2p1014_1s0"><g id="Rahmen"><polygon points="21.608 12.196 22.549 12.196 22.549 11.255 21.608 11.255 21.608 10.627 19.724 10.627 19.724 16.679 21.608 17.766 21.608 12.196" fill="#fff" /><polygon points="42 13.738 40.587 11.291 40.273 10.747 38.861 8.3 25.176 16.201 24.433 16.63 24.433 10.627 22.549 10.627 22.549 17.718 23.09 17.405 22.036 18.014 18.897 16.201 5.139 8.258 3.727 10.705 3.413 11.249 2 13.696 15.758 21.639 2.157 29.491 3.57 31.938 3.884 32.482 5.296 34.929 18.897 27.076 22.036 25.264 22.69 25.641 22.549 25.56 22.549 35.742 24.433 35.742 24.433 26.648 25.176 27.076 38.704 34.887 40.116 32.44 40.43 31.896 41.843 29.449 28.315 21.639 42 13.738" fill="#fff" /><polygon points="19.724 35.742 21.608 35.742 21.608 25.511 19.724 26.599 19.724 35.742" fill="#fff" /></g><g id="Piktogramm"><path d="M3.8774,11.51772l13.41373,7.74435-1.37742,2.38575L2.5,13.90336l1.3774-2.38564" fill="#ce252c" /><path d="M5.56091,8.60178l13.41366,7.74435L17.59726,18.732,4.1835,10.98753,5.56091,8.60178" fill="#ffd100" /><polyline points="19.781 10.911 19.781 16.812 21.617 17.872 21.617 10.911 19.781 10.911" fill="#9ea5a8" /><polyline points="22.536 10.911 22.536 17.825 24.372 16.764 24.372 10.911 22.536 10.911" fill="#9ea5a8" /><rect x="21.61742" y="11.5232" width="0.91827" height="0.91831" fill="#9ea5a8" /><path d="M26.47368,18.732l-1.3773-2.38585L38.439,8.64281l1.37742,2.38575L26.47368,18.732" fill="#ffd100" /><polyline points="41.5 13.944 28.157 21.648 26.78 19.262 40.123 11.559 41.5 13.944" fill="#ce252c" /><polyline points="41.347 29.263 28.157 21.648 26.78 24.034 39.97 31.649 41.347 29.263" fill="#ce252c" /><path d="M25.09638,26.94948l1.3773-2.38572,13.18976,7.615L38.286,34.56452l-13.18965-7.615" fill="#ffd100" /><polyline points="22.536 35.398 22.536 25.471 24.372 26.531 24.372 35.398 22.536 35.398" fill="#9ea5a8" /><polyline points="21.617 35.398 21.617 25.424 19.781 26.484 19.781 35.398 21.617 35.398" fill="#9ea5a8" /><path d="M15.91371,21.64782,2.65307,29.30387l1.3774,2.38577,13.26066-7.65607-1.37742-2.38575" fill="#ce252c" /><path d="M17.59726,24.56376l-13.26073,7.656,1.37741,2.38573,13.26063-7.656-1.37731-2.38572" fill="#ffd100" /><polyline points="28.157 21.648 26.78 24.034 28.157 21.648 26.78 19.262 40.123 11.559 39.816 11.029 26.474 18.732 25.096 16.346 22.036 18.113 18.975 16.346 17.597 18.732 4.184 10.988 3.877 11.518 17.291 19.262 15.914 21.648 17.291 24.034 4.03 31.69 4.337 32.22 17.597 24.564 18.975 26.949 22.036 25.182 25.096 26.949 26.474 24.564 39.663 32.179 39.97 31.649 26.78 24.034 28.157 21.648" fill="#9ea5a8" /></g></g></svg>