<svg xmlns="http://www.w3.org/2000/svg" viewBox="0 0 44 44"><path d="m22 41.5a0.975 0.975 0 0 1-0.9-0.4l-18.2-18.2a1.39 1.39 0 0 1 0-1.9l18.2-18.1a1.22 1.22 0 0 1 0.9-0.4 0.975 0.975 0 0 1 0.9 0.4l18.2 18.2a1.39 1.39 0 0 1 0 1.9l-18.2 18.1a0.975 0.975 0 0 1-0.9 0.4z" fill="#ffc600" /><path d="m22 3a1.42 1.42 0 0 1 0.6 0.2l18.2 18.2a0.735 0.735 0 0 1 0.2 0.6 1.42 1.42 0 0 1-0.2 0.6l-18.2 18.2a1.42 1.42 0 0 1-0.6 0.2 1.42 1.42 0 0 1-0.6-0.2l-18.2-18.2a0.912 0.912 0 0 1 0-1.2l18.2-18.2a1.42 1.42 0 0 1 0.6-0.2m0-1a2.11 2.11 0 0 0-1.3 0.5l-18.2 18.2a1.87 1.87 0 0 0 0 2.6l18.2 18.2a1.66 1.66 0 0 0 1.3 0.5 2.11 2.11 0 0 0 1.3-0.5l18.2-18.2a1.87 1.87 0 0 0 0-2.6l-18.2-18.2a2.11 2.11 0 0 0-1.3-0.5z" fill="#010101" /><rect x="32.6" y="27.2" width="1.33" height=".5" fill="#010101" /><rect x="30.7" y="27.2" width="1.33" height=".5" fill="#010101" /><rect x="28.8" y="27.2" width="1.33" height=".5" fill="#010101" /><rect x="26.9" y="27.2" width="1.33" height=".5" fill="#010101" /><rect x="25" y="27.2" width="1.33" height=".5" fill="#010101" /><rect x="23.1" y="27.2" width="1.33" height=".5" fill="#010101" /><rect x="21.2" y="27.2" width="1.33" height=".5" fill="#010101" /><rect x="19.4" y="27.2" width="1.33" height=".5" fill="#010101" /><rect x="17.5" y="27.2" width="1.33" height=".5" fill="#010101" /><rect x="15.6" y="27.2" width="1.33" height=".5" fill="#010101" /><rect x="13.7" y="27.2" width="1.33" height=".5" fill="#010101" /><rect x="11.8" y="27.2" width="1.33" height=".5" fill="#010101" /><rect x="9.9" y="27.2" width="1.33" height=".5" fill="#010101" /><rect x="29.3" y="19.9" width="1.35" height=".5" fill="#010101" /><rect x="27.4" y="19.9" width="1.35" height=".5" fill="#010101" /><rect x="25.5" y="19.9" width="1.35" height=".5" fill="#010101" /><rect x="23.6" y="19.9" width="1.35" height=".5" fill="#010101" /><rect x="21.7" y="19.9" width="1.34" height=".5" fill="#010101" /><rect x="19.8" y="19.9" width="1.34" height=".5" fill="#010101" /><rect x="17.9" y="19.9" width="1.35" height=".5" fill="#010101" /><rect x="16" y="19.9" width="1.35" height=".5" fill="#010101" /><rect x="14.1" y="19.9" width="1.35" height=".5" fill="#010101" /><rect x="12.2" y="19.9" width="1.35" height=".5" fill="#010101" /><path d="m25.2 17.4a4.44 4.44 0 0 0 1.8 0.2c0.3 0 0.1-0.7 0-0.7a1.54 1.54 0 0 1-0.8-0.2 5.79 5.79 0 0 1-1.7-2.4 4.99 4.99 0 0 0-1.8-2.7l0.1-0.6a1.25 1.25 0 0 0 0.9-1.3c0-1.4-2.3-1.4-2.5-0.3a1.42 1.42 0 0 0 0.4 1.5l-0.1 0.6a8.61 8.61 0 0 0-2.8 1.7c-1.1 1.1-1 3.3-1 4.4 0 0.2 0.8 0.4 0.8 0.3a4.93 4.93 0 0 1 0.4-2.9c0.7-1.4 1.1-1 1.1-1l-0.1 2.4a6.71 6.71 0 0 1-0.5 1.6c-0.2 0.3-0.8 1.9-1.1 2.3a17.8 17.8 0 0 1-2.2 2.7c-0.3 0.2-0.6 0.4-0.3 1a8.65 8.65 0 0 0 0.7 1c0.2 0.2 1.2 1.1 0.9 0a5.6 5.6 0 0 1-0.2-1.2s2.2-2.5 2.4-2.8c0.5-0.8 1.2-2 1.4-2.4 0.1-0.2 0.3-0.1 0.4 0.1a8.21 8.21 0 0 1 1.1 3.1 7.54 7.54 0 0 0 1 3.2c0.1 0.3 0.1 1.2 0.4 1.2a9.44 9.44 0 0 1 1.4-0.1c1.1 0 1.3-0.8 0.2-0.8s-1-0.2-1-0.2-0.7-3.5-0.9-5a9.55 9.55 0 0 0-0.8-2.7v-3.1a12.7 12.7 0 0 0 2.4 3.1z" fill="#010101" /></svg>