<?xml version="1.0" encoding="UTF-8"?>
<svg id="Ebene_1" data-name="Ebene 1" xmlns="http://www.w3.org/2000/svg" viewBox="0 0 44 44">
  <defs>
    <style>
      .cls-1 {
        fill: #00f300;
      }

      .cls-2 {
        fill: #010101;
      }
    </style>
  </defs>
  <path d="M4.39,2.83048c-.88366,0-1.6,.71634-1.6,1.6V39.63048c0,.88366,.71635,1.6,1.6,1.6H39.59c.88366,0,1.6-.71634,1.6-1.6V4.43048c0-.88365-.71634-1.6-1.6-1.6,0,0-35.2,0-35.2,0Z"/>
  <path class="cls-1" d="M5.28,35.70048H38.68L21.98,6.80048"/>
  <path class="cls-2" d="M19.9,13.60048c0-.85604,.69396-1.55,1.55-1.55s1.55,.69396,1.55,1.55-.69396,1.55-1.55,1.55h0c-.85604,0-1.55-.69396-1.55-1.55Zm-1.24,8.49l2.01-3.1v3.72h3.1v-4.5l1.36,1.14v3.17c.75111,0,1.36-.60889,1.36-1.36h0v-1.9c.0003-.34399-.15208-.67037-.416-.891l-2.6-2.18c-.06083-.05029-.12425-.09735-.19-.141-.89774-.58116-2.09647-.3262-2.68,.57l-3.82,5.88c.6297,.40817,1.47101,.22917,1.88-.4,0,0-.004-.008-.004-.008Zm7.67,9.34c.75142-.40828,1.0302-1.348,.623-2.1l-3.08-5.67c-.06212-.11303-.09437-.24003-.0937-.369v-.192h-3.1v.192c.00005,.12888-.03213,.25573-.0936,.369l-4.12,7.59c.75148,.40752,1.69102,.12968,2.1-.621l3.66-6.75s4.1043,7.551,4.1043,7.551Zm5.28-2.84h-2.52l2.51,5.67h3.41s-3.4-5.67-3.4-5.67Zm-4.57,0l.288,.532c.51871,.95954,.16368,2.15787-.794,2.68l-.374,.203-.982-1.81,.74,4.07h3.41l-1.92-5.67s-.368-.005-.368-.005Zm-6.35,0l-.442,5.67h3.41l-.443-5.67s-2.525,0-2.525,0Zm-4.42,3.02l-.373-.203,1.53-2.82h-.933l-1.92,5.67h3.41l.527-2.9c-.62308,.53968-1.51534,.63687-2.24,.244l-.001,.009Zm-3.98-3.02l-3.39,5.67h3.4l2.51-5.67s-2.52,0-2.52,0Z"/>
  <path class="cls-1" d="M39.66109,3.2794l.03294,.0005c.59524,.01817,1.06472,.51721,1.04597,1.15058l.00058,35.23797v.06608c-.01792,.58714-.49151,1.04707-1.07818,1.04707l-.0724-.00111H4.31693l-.01603,.00042c-.29106-.00756-.56175-.12802-.7622-.33917-.20046-.21115-.30669-.48773-.2987-.81126l-.00043-35.23269v-.05642c.01522-.58546,.50348-1.06173,1.08842-1.0617l.06201,.00081,35.23797-.00058,.03312-.0005m0-1.25c-.0237,0-.04739,.00036-.07108,.00108H4.39c-.02066-.00054-.04139-.0008-.06194-.0008-1.2642-.00007-2.30503,1.00798-2.33806,2.27922-.00106,.04052-.00106,.08106,0,.12158V39.63048c-.03358,1.29191,.9865,2.36643,2.27842,2.40001,.02026,.00052,.04052,.00079,.06079,.00079s.04053-.00026,.06079-.00079H39.59c.02418,.00074,.04838,.00111,.0724,.00111,1.25394,0,2.28907-.9969,2.3276-2.25894,.00144-.04738,.00144-.0948,0-.14218V4.43048c.03926-1.28622-.97161-2.36074-2.25783-2.4-.02369-.00072-.04739-.00108-.07109-.00108h.00001Z"/>
</svg>