<?xml version="1.0" encoding="UTF-8"?>
<svg id="Ebene_1" data-name="Ebene 1" xmlns="http://www.w3.org/2000/svg" viewBox="0 0 44 44">
  <defs>
    <style>
      .cls-1 {
        fill: #00f300;
      }

      .cls-1, .cls-2 {
        fill-rule: evenodd;
      }
    </style>
  </defs>
  <path class="cls-2" d="M5.33,2.00048c-1.83911,0-3.33,1.49089-3.33,3.33V38.63048c0,1.83911,1.49089,3.33,3.33,3.33H38.63c1.83911,0,3.33-1.49089,3.33-3.33h0V5.33048c0-1.83911-1.49089-3.33-3.33-3.33H5.33"/>
  <path class="cls-1" d="M4.85918,1.98048c-1.59013,0-2.87918,1.28905-2.87918,2.87918h0V39.1013c0,1.59013,1.28905,2.87918,2.87918,2.87918H39.10082c1.59013,0,2.87918-1.28905,2.87918-2.87918V4.85966c0-1.59013-1.28905-2.87918-2.87918-2.87918H4.85917m0,1.10026H39.10082c.98247,0,1.77892,.79645,1.77892,1.77892V39.1013c0,.98247-.79645,1.77892-1.77892,1.77892H4.85917c-.98247,0-1.77892-.79645-1.77892-1.77892V4.85966c0-.98247,.79645-1.77892,1.77892-1.77892"/>
  <path class="cls-1" d="M7.38,24.50048c-.23062,.54644-.33619,1.13751-.309,1.73-.02685,.59246,.07871,1.18346,.309,1.73,.18164,.26786,.54604,.33775,.81389,.15611,.06146-.04168,.11443-.09465,.15611-.15611,.23064-.54646,.33654-1.13746,.31-1.73,.02074-.44592-.03369-.89214-.161-1.32-.02087-.07067-.04373-.141-.0686-.211-.0124-.0346-.0256-.0691-.0388-.103-.0134-.0346-.0269-.0678-.0414-.102-.02444-.04044-.05417-.07743-.0884-.11-.10623-.10191-.25001-.15515-.397-.147v-.751c.48761-.01701,.94055,.25124,1.16,.687,.53851,1.31708,.53851,2.79292,0,4.11-.21945,.43576-.67239,.70401-1.16,.687-.48761,.01701-.94055-.25124-1.16-.687-.52091-1.32048-.52091-2.78952,0-4.11,.21974-.43537,.67262-.7032,1.16-.686v.751c-.1969-.01013-.38336,.08906-.485,.258m4.04-.944h-.73v5.33h.733v-3.43l1.44,3.43h.733v-5.33h-.733v3.44s-1.443-3.44-1.443-3.44Zm6.36,3.91h-.729v.118c-.00353,.15423-.06205,.30212-.165,.417-.10157,.11354-.24155,.18549-.393,.202-.31499,.03204-.60431-.17615-.674-.485-.28223-.97329-.28223-2.00671,0-2.98,.06993-.33464,.39789-.54922,.73253-.4793,.13072,.02732,.2491,.09618,.33747,.1963,.10288,.11493,.16138,.26279,.165,.417h.729c-.00669-.22705-.06664-.44936-.175-.649-.1073-.19804-.26018-.36771-.446-.495-.49778-.33802-1.16182-.29348-1.61,.108-.20715,.18939-.35861,.43179-.438,.701-.31147,1.10514-.31147,2.27486,0,3.38,.07939,.26921,.23085,.51161,.438,.701,.33396,.2997,.79808,.40762,1.23,.286,.06923-.01971,.13678-.04492,.202-.0754,.03193-.01507,.06307-.03117,.0934-.0483l.0443-.0264,.0216-.014,.0108-.00686,.00263-.0019,.00264-.00169,.00528-.0038,.00422-.00291,.00422-.00264,.00395-.00317,.00422-.00264,.0164-.0119,.0327-.0245c.0216-.0166,.0428-.0338,.0636-.052,.12833-.11176,.23568-.24552,.317-.395,.10802-.19978,.16794-.422,.175-.649v-.118m2-2.96l.00448-.00711,.00475-.00766,.00977-.0142,.0211-.0282c.01483-.01878,.03097-.0365,.0483-.053,.10624-.10191,.25001-.15515,.397-.147v-.751c-.48738-.0172-.94026,.25063-1.16,.686-.52091,1.32048-.52091,2.78952,0,4.11,.3479,.64065,1.14927,.87798,1.78992,.53008,.22421-.12175,.40833-.30587,.53008-.53008,.46601-1.14863,.52806-2.42148,.176-3.61-.0248-.0836-.0525-.168-.0818-.25-.0145-.0406-.0301-.0823-.0456-.123l-.024-.061-.0124-.0301-.00292-.00764-.00316-.00738-.00317-.00764-.00289-.00766-.00264-.00475-.00236-.00449-.00475-.00951-.01-.0187-.0214-.0369c-.0145-.0245-.0303-.0491-.0467-.0731-.24172-.35003-.64486-.5531-1.07-.539v.751c.19695-.01035,.38352,.08889,.485,.258,.23063,.54646,.33654,1.13746,.31,1.73,.02654,.59254-.07936,1.18354-.31,1.73-.16852,.26786-.52227,.34839-.79013,.17987-.07268-.04572-.13415-.10719-.17987-.17987-.23029-.54654-.33585-1.13754-.309-1.73-.02036-.4459,.03406-.89207,.161-1.32,.0211-.071,.0438-.141,.0689-.21,.0124-.0346,.0253-.0688,.0385-.103l.0206-.0509,.0103-.0256,.00528-.0127,.00263-.00633,.00264-.00633m6.04,1.32v3.07h.735v-5.33h-.774l-.959,2.95-.959-2.95h-.774v5.33h.735v-3.07l.998,3.07,.998-3.07Zm2.39,3.07h.747v-5.33h-.747m3.13,0h-.73v5.33h.733v-3.43l1.44,3.43h.733v-5.33h-.733v3.44l-1.443-3.44Zm6.36,4.03v-1.39h-1.33v.819h.6v.568c-.00353,.15121-.06017,.29636-.16,.41-.22547,.25624-.61597,.28117-.87221,.0557-.09062-.07974-.15591-.18428-.18779-.3007-.07114-.24679-.12593-.498-.164-.752-.0193-.128-.034-.255-.0448-.383s-.0172-.257-.0195-.384c.00468-.25713,.02619-.51368,.0644-.768,.019-.128,.0422-.254,.0697-.379,.0274-.126,.0588-.25,.0942-.373,.02032-.06952,.05223-.13511,.0944-.194,.04454-.06254,.10012-.11642,.164-.159,.25705-.17054,.60072-.12389,.803,.109,.09976,.11329,.15641,.2581,.16,.409l.726-.00169c.00317-.17444-.027-.34788-.0889-.511-.06711-.17668-.1703-.33743-.303-.472-.13168-.13317-.29019-.2368-.465-.304-.41988-.15278-.88733-.0975-1.26,.149-.16994,.11908-.30967,.27627-.408,.459-.0158,.0296-.0306,.0591-.0438,.0889l-.0193,.0451-.009,.0224-.00422,.0113-.001,.00264-.00106,.00291-.001,.00291-.00106,.00264-.00238,.00686-.00237,.00711-.00236,.00686-.0116,.0346-.0182,.0562c-.0119,.0377-.0232,.0739-.0346,.112-.0222,.0752-.0427,.151-.062,.227-.03827,.15267-.07,.30667-.0952,.462-.14709,.93828-.0686,1.89809,.229,2.8,.18696,.52847,.68946,.87942,1.25,.873,.17097,.0049,.34122-.02398,.501-.085,.17495-.06692,.33352-.17059,.465-.304,.1327-.13457,.23589-.29532,.303-.472,.0317-.08387,.05521-.1706,.0702-.259,.01404-.08324,.0203-.1676,.0187-.252m-27.4,4.37h-3.25v.853h1.21v4.48h.84v-4.48h1.21l-.01-.853Zm1.3,5.33h.835v-2.33h.971l.874,2.33h.894l-.909-2.52c.29168-.15099,.52438-.39532,.661-.694,.1388-.3011,.17465-.63951,.102-.963-.07118-.32175-.24702-.61083-.5-.822-.2499-.20863-.56351-.32575-.889-.332h-1.2v.853h1.2c.33597,.02826,.59328,.31086,.59,.648,.0004,.16367-.06021,.32162-.17,.443-.10847,.11974-.25887,.19315-.42,.205h-1.2v-2.15h-.835v5.33m4.56,0h.891l.493-1.47h1.71l-.287-.853h-1.14l.57-1.7,1.35,4.02h.891l-1.79-5.33h-.896l-1.79,5.33s-.002,.003-.002,.003Zm9.12-5.33h-3.25v5.33h.84v-2.35h1.53v-.854h-1.53v-1.28h2.41v-.846Zm4.55,0h-3.25v5.33h.84v-2.35h1.53v-.854h-1.53v-1.28h2.41v-.846Zm1.3,5.33h.827v-5.33h-.827v5.33Zm5.03-1.46c-.11796,.45894-.58564,.73536-1.04458,.6174-.24973-.06419-.45736-.23729-.56542-.4714-.43931-.84286-.43931-1.84714,0-2.69,.15192-.31729,.47855-.51326,.83-.498,.17155,.00816,.33685,.06696,.475,.169,.13926,.10274,.24559,.24382,.306,.406l.784-.316c-.11634-.30761-.31701-.57621-.579-.775-.53025-.40023-1.24504-.45491-1.83-.14-.28868,.15625-.52696,.3914-.687,.678-.15744,.27529-.27782,.57018-.358,.877-.03998,.15422-.06984,.31089-.0894,.469-.0095,.0786-.0166,.158-.0211,.237-.0045,.07867-.00635,.15733-.00556,.236-.00042,.039-.00021,.0784,.00085,.118,.001,.0385,.00264,.0797,.00475,.118,.00447,.0789,.0116,.158,.0211,.237,.01956,.15811,.04942,.31478,.0894,.469,.08018,.30682,.20056,.60171,.358,.877,.16106,.29129,.40318,.52959,.697,.686,.59809,.31572,1.32719,.24202,1.85-.187,.25798-.21222,.449-.49458,.55-.813l-.78-.309M11.3795,9.62421l-.397-2.89h-.847l.734,5.33h.784l.815-3.38,.815,3.38h.784l.734-5.33h-.847l-.397,2.89-.695-2.89h-.786s-.697,2.89-.697,2.89Zm4.35,2.45h.891l.493-1.47h1.71l-.287-.854h-1.14l.57-1.7,1.35,4.02h.891l-1.79-5.33h-.896l-1.79,5.33s-.002,.004-.002,.004Zm8.58-5.33h-3.25v.853h1.21v4.48h.84V7.59721h1.21l-.01-.853Zm3.7,3.87c-.11796,.45894-.58564,.73536-1.04458,.6174-.24973-.06419-.45736-.23729-.56542-.4714-.23121-.40775-.34508-.87153-.329-1.34-.01638-.46837,.09714-.93215,.328-1.34,.20724-.43472,.72765-.61914,1.16237-.4119,.04829,.02302,.09436,.05044,.13763,.0819,.1391,.10291,.24539,.24393,.306,.406l.783-.316c-.11586-.30787-.31662-.57659-.579-.775-.74759-.56799-1.81408-.4224-2.38207,.32519-.05121,.0674-.09732,.13854-.13793,.21281-.64008,1.12892-.64008,2.51108,0,3.64,.1606,.29164,.40284,.53006,.697,.686,.59755,.31849,1.32827,.24462,1.85-.187,.25835-.21208,.44973-.49446,.551-.813l-.78-.308m2.25-3.87v5.33h.835v-2.35h1.9v2.35h.835V6.75121h-.835v2.13h-1.9v-2.13h-.835Zm-11.5,8.4h-3.25v5.33h.84v-2.35h1.53v-.854h-1.53v-1.28h2.41s0-.846,0-.846Zm2.78,.793v-.859c-.40082,.00332-.78864,.14258-1.1,.395-.16026,.12959-.29693,.28589-.404,.462-.10143,.16676-.17537,.34875-.219,.539-.215,.88378-.215,1.80622,0,2.69,.04346,.1903,.11741,.37232,.219,.539,.26603,.44183,.71154,.74565,1.22,.832,.0475,.00792,.095,.0142,.142,.0182,.0232,.0021,.047,.00348,.0702,.00474l.0348,.00127,.0174,.00022h.00422l.00422,.00021h.0171l.00448-.00021h.00449l.0172-.00022,.0348-.00127c.0237-.0013,.0462-.00263,.0702-.00474,.0467-.00395,.0944-.0103,.142-.0182,.09685-.0165,.19217-.04095,.285-.0731,.39071-.13702,.72185-.40525,.937-.759,.10143-.16676,.17537-.34875,.219-.539,.21194-.88414,.21194-1.80586,0-2.69-.04362-.19025-.11757-.37224-.219-.539-.10723-.17599-.24388-.33226-.404-.462-.31137-.25242-.69918-.39168-1.1-.395v.859c.18519-.00561,.36735,.04799,.52,.153,.15348,.1056,.26995,.2567,.333,.432,.1301,.4207,.1909,.85977,.18,1.3,.00526,.21931-.00718,.43869-.0372,.656-.01534,.10867-.03493,.21667-.0588,.324-.01187,.05353-.0248,.10653-.0388,.159-.0142,.0533-.029,.106-.0454,.158-.015,.0419-.03298,.08267-.0538,.122-.02204,.04048-.04707,.07926-.0749,.116-.31469,.39892-.89319,.4672-1.29211,.1525-.12903-.10179-.22844-.23628-.28789-.3895-.06494-.20944-.11276-.42381-.143-.641-.01507-.10867-.0257-.218-.0319-.328-.00638-.11-.00822-.21933-.00553-.328-.00516-.21932,.00738-.4387,.0375-.656,.0153-.109,.0346-.217,.0586-.325,.0121-.0536,.0248-.106,.039-.159,.014-.053,.029-.106,.0454-.158,.0149-.04166,.03299-.08212,.0541-.121,.02173-.04055,.0466-.07934,.0744-.116,.05725-.07539,.1261-.14121,.204-.195,.07796-.05352,.16407-.09404,.255-.12,.04387-.01262,.08868-.02171,.134-.0272,.0227-.00237,.0443-.00422,.0665-.00528l.0327-.00084h.0243l.004,.00021h.00422m3.29,4.54h.835v-2.33h.971l.874,2.33h.894l-.908-2.52c.29168-.15099,.52438-.39532,.661-.694,.13808-.30129,.1739-.63946,.102-.963-.07098-.32211-.24683-.61157-.5-.823-.25003-.20921-.56405-.3267-.89-.333h-1.2v.854h1.2c.3366,.02729,.59473,.31032,.591,.648,.00017,.16351-.06083,.32117-.171,.442-.10847,.11974-.25887,.19314-.42,.205h-1.2v-2.15h-.834v5.33"/>
</svg>