<?xml version="1.0" encoding="UTF-8"?>
<svg id="Ebene_1" data-name="Ebene 1" xmlns="http://www.w3.org/2000/svg" xmlns:xlink="http://www.w3.org/1999/xlink" viewBox="0 0 44 53">
  <defs>
    <style>
      .cls-1 {
        fill: url(#Zusatzschild_Rahmen_schwarz);
      }

      .cls-2 {
        fill: url(#Zusatzschild_Rahmen_schwarz-3);
      }

      .cls-3 {
        fill: url(#Unbenannter_Verlauf);
      }

      .cls-4 {
        fill: url(#Zusatzschild_Hintergrund_weiss);
      }

      .cls-5 {
        fill: url(#Zusatzschild_Rahmen_schwarz-2);
      }
    </style>
    <linearGradient id="Unbenannter_Verlauf" data-name="Unbenannter Verlauf" x1="7" y1="10.8435" x2="37" y2="10.8435" gradientTransform="translate(0 53.96875) scale(1 -1)" gradientUnits="userSpaceOnUse">
      <stop offset="0" stop-color="#fff"/>
      <stop offset="1" stop-color="#000"/>
    </linearGradient>
    <linearGradient id="Zusatzschild_Hintergrund_weiss" x1="7.3999" y1="10.84399" x2="36.59961" y2="10.84399" gradientTransform="translate(0 53.96875) scale(1 -1)" gradientUnits="userSpaceOnUse">
      <stop offset="1" stop-color="#fff"/>
      <stop offset="1" stop-color="#000"/>
    </linearGradient>
    <linearGradient id="Zusatzschild_Rahmen_schwarz" x1="6.99969" y1="43.12524" x2="36.99969" y2="43.12524" gradientUnits="userSpaceOnUse">
      <stop offset="1" stop-color="#000"/>
      <stop offset="1" stop-color="#010101"/>
    </linearGradient>
    <linearGradient id="Zusatzschild_Rahmen_schwarz-2" data-name="Zusatzschild_Rahmen_schwarz" x1="7.24969" y1="10.95032" x2="36.74969" y2="10.95032" gradientTransform="translate(0 53.96875) scale(1 -1)" xlink:href="#Zusatzschild_Rahmen_schwarz"/>
    <linearGradient id="Zusatzschild_Rahmen_schwarz-3" data-name="Zusatzschild_Rahmen_schwarz" x1="7.24969" y1="11.03382" x2="36.74969" y2="11.03382" gradientTransform="translate(0 53.96875) scale(1 -1)" xlink:href="#Zusatzschild_Rahmen_schwarz"/>
  </defs>
  <path id="Zusatzschild_Hintergrund_weiss-2" data-name="Zusatzschild Hintergrund weiss-2" class="cls-3" d="M34.49243,35.12524l-24.98508,.002c-1.38309,.0042-2.50325,1.12443-2.50735,2.50752v10.9833c.00403,1.38307,1.12428,2.50325,2.50735,2.50718l24.98548-.002c1.383-.00417,2.50308-1.12432,2.50717-2.50732v-10.98331c-.00403-1.38319-1.12438-2.50345-2.50757-2.50737Z"/>
  <path class="cls-4" d="M9.5083,50.72436c-1.15918-.00293-2.10498-.94824-2.1084-2.10742v-10.98242c.00342-1.1582,.94922-2.10352,2.1084-2.10645l24.98389-.00293c1.1582,.00391,2.10449,.9502,2.10742,2.1084v10.98242c-.00293,1.1582-.94824,2.10352-2.10742,2.10645l-24.98389,.00195Z"/>
  <path id="Zusatzschild_Rahmen_schwarz-2" data-name="Zusatzschild Rahmen schwarz-2" class="cls-1" d="M34.70253,36.62524c.43911,.00067,.79672,.37391,.79715,.83064v11.33522c-.00043,.45818-.35807,.83145-.7952,.83208l-25.40724,.00206c-.43915-.00043-.79693-.37353-.79756-.82964v-11.3361c.00047-.45841,.35831-.83173,.79621-.8322l25.40664-.00206m.00208-1.5l-25.40883,.00206c-1.26755,.00135-2.29477,1.04403-2.29609,2.33066v11.33764c.00177,1.28627,1.02889,2.3284,2.29609,2.32964l25.40883-.00206c1.26719-.00181,2.29386-1.04439,2.29508-2.33066v-11.33664c-.00122-1.28627-1.02789-2.32884-2.29508-2.33064h0Z"/>
  <g id="Text">
    <path class="cls-5" d="M14.80859,42.20935h4.56641v.63281c-.31931,.07203-.6279,.18528-.918,.33691-.42187,.19727-.93163,.45411-1.5293,.77051v.51366h2.8125c.51758,0,1.01954-.01269,1.50977-.03906v.71191c-.46289-.02539-.96615-.03841-1.50977-.03906h-2.8125v2.01758c.02868,.28894-.11513,.56776-.36718,.71191-.42777,.17757-.88165,.28411-1.34375,.31543-.07632-.33411-.23021-.64557-.44922-.90918,.35507,.07336,.71909,.09343,1.08008,.05957,.23046-.04,.34765-.25781,.34765-.65234v-1.543h-3.13962c-.48925,0-.93782,.01302-1.3457,.03906v-.71182c.40723,.02637,.85579,.03939,1.3457,.03906h3.13965c.03494-.28273-.00758-.56963-.123-.83008,.5742-.22634,1.13272-.49059,1.67187-.791h-2.89457c-.46191,0-.92415,.01334-1.38672,.04v-.71289c.46191,.02732,.91048,.04067,1.3457,.04002Zm5.29883-3.75586c-.16922,.1929-.31964,.40151-.44922,.623-.209,.33008-.44922,.73829-.71679,1.22461h2.19726c-.0337,.28518-.0487,.57225-.04492,.85938,0,.34375,.01367,.6875,.04492,1.03125h-.85156v-1.20309h-7.5332v1.20313h-.89649c.0293-.34375,.04492-.6875,.04492-1.03125,.0028-.28711-.0122-.57412-.04492-.85938h6.1875c.17969-.28613,.35742-.58691,.53711-.90234,.23515-.43121,.44452-.876,.627-1.332,.29879,.11521,.59826,.24411,.89839,.38669Zm-6.5459-.34375c.40423,.5342,.74965,1.11045,1.03028,1.71875-.26286,.07855-.50682,.21017-.7168,.38672-.27571-.60178-.60586-1.17709-.98633-1.71875,.14844-.08594,.37272-.21485,.67285-.38672Zm2.73536-.21485c.13521,.3088,.25451,.62431,.35742,.94532,.08984,.28711,.17968,.60221,.26953,.94531-.29883,.08594-.56836,.1582-.8086,.21484-.13211-.63935-.3427-1.25994-.627-1.84765,.27488-.06821,.54501-.15434,.80865-.25782Z"/>
    <path class="cls-2" d="M24.91016,45.93982c0,.62304,.01269,1.24511,.03808,1.86621h-.75586c.02539-.65039,.03809-1.27246,.03809-1.86621v-3.09571c-.1767,.4795-.3984,.94119-.66211,1.37891-.21131,.3602-.44484,.70689-.69922,1.03808-.17774-.19497-.36722-.37891-.56738-.55078,.43924-.53733,.8078-1.12873,1.09668-1.75976,.30012-.61903,.54079-1.26516,.71875-1.92969-.73145,0-1.23569,.014-1.5127,.042v-.80562c.35254,.02832,.89454,.04265,1.626,.043v-1.06062c0-.42382-.0127-.81933-.03809-1.18652h.75586c-.02539,.31054-.03808,.70605-.03808,1.18652v1.06055c.47851,0,.91959-.01433,1.32324-.043v.80566c-.35352-.02832-.7946-.04232-1.32324-.042l-.00002,4.91899Zm.49218-4.15528c.37696,.56543,.70411,1.07422,.98145,1.52637-.25195,.19824-.46615,.38184-.64258,.55078-.25197-.55644-.54205-1.09483-.86816-1.61133,.22656-.19726,.40234-.35254,.52929-.46582Zm2.71192,.916c.1769,.45382,.38474,.89496,.62207,1.32031,.17278,.32436,.36587,.63748,.57812,.9375,.21715-.38499,.40992-.78323,.57715-1.19238,.15489-.39754,.25954-.81286,.31152-1.23633,.27659,.09996,.55823,.18536,.84376,.25586-.11107,.466-.25967,.92224-.44434,1.36426-.19883,.49493-.45201,.96624-.75488,1.40527,.3416,.3195,.71347,.60503,1.11035,.85254,.4702,.29558,.97889,.52496,1.51172,.68164-.17871,.25488-.34179,.51041-.48926,.7666-.48777-.22355-.95617-.48714-1.40039-.78809-.44236-.29169-.86514-.61205-1.26563-.959-.41344,.38616-.8598,.73548-1.334,1.044-.47028,.32211-.97748,.58669-1.51074,.78808-.12514-.25194-.29-.48209-.48828-.68164,.59525-.18673,1.16304-.45175,1.68847-.78808,.3966-.23678,.75597-.53097,1.06641-.873-.30834-.45133-.57598-.92915-.79979-1.42784-.208-.46875-.38574-.85839-.5332-1.17187,.24729-.07259,.48574-.17247,.71094-.29781v-.00002Zm.57715-1.49121c-.23633,.25586-.53256,.611-.88868,1.06543-.35546,.4541-.66666,.83756-.93359,1.15039-.19517-.20291-.41966-.3754-.666-.51172,.34316-.30236,.65585-.63763,.9336-1.001,.2959-.38379,.57715-.78873,.84375-1.21484,.21881,.19449,.45704,.36598,.71092,.51176v-.00002Zm-1.35547-1.40528h3.31152c.62207,0,1.12565-.01433,1.51074-.043v.80957l-.5332-.043h-3.86621c-.5625,0-.99219,.01434-1.28906,.043v-.80957c.29687,.02837,.58496,.04302,.86621,.04302v-.00002Zm1.7998-.08593c-.27152-.48939-.61596-.9346-1.02148-1.32032,.23108-.14342,.45377-.29993,.667-.46875,.47363,.56836,.8291,1.00846,1.06641,1.32032-.26831,.10314-.51117,.26305-.71193,.46877v-.00002Zm2.44531,3.32324c-.29687-.3125-.62304-.639-.97851-.97949-.35546-.3418-.68131-.6403-.97754-.89551,.23879-.1459,.44948-.33344,.62207-.55371,1.06641,.99414,1.73307,1.61881,2,1.874-.14844,.11429-.37045,.29921-.66602,.55474v-.00003Z"/>
  </g>
</svg>