<?xml version="1.0" encoding="UTF-8"?>
<svg id="Ebene_1" data-name="Ebene 1" xmlns="http://www.w3.org/2000/svg" viewBox="0 0 44 44">
  <defs>
    <style>
      .cls-1, .cls-2 {
        fill: #00f300;
      }

      .cls-1, .cls-3 {
        fill-rule: evenodd;
      }
    </style>
  </defs>
  <g>
    <path class="cls-3" d="M21.9751,41.46972c-.39209,0-.76074-.15234-1.03809-.42871l-.03467-.03516-.04492-.03125L2.93359,23.0371c-.57422-.57324-.57568-1.50586-.00342-2.07959L20.93359,2.9541c.27832-.2793,.64795-.43262,1.0415-.43262,.39209,0,.76074,.15234,1.0376,.4292l18.00391,18.00342c.27832,.27783,.43164,.64648,.43262,1.03955,.00098,.39258-.15137,.76172-.42871,1.03955l-18.00391,18.00391c-.27832,.2793-.64844,.43262-1.0415,.43262v-.00002Z"/>
    <path class="cls-2" d="M21.97514,3.02148h-.00002c.25849,.00001,.5017,.10056,.68777,.28611l18.00102,18.00101c.18347,.18295,.28472,.42639,.28509,.68549,.00037,.25909-.10017,.50283-.28611,.68928l-18.00101,18.00102c-.18332,.18384-.42726,.28509-.6869,.28509-.25856,0-.50179-.10055-.68787-.28611L3.28609,22.68236c-.18347-.18295-.28472-.42639-.28509-.68549-.00037-.25909,.10017-.50283,.28611-.68928L21.28812,3.30657c.18331-.18383,.42729-.28508,.68702-.28509m-.00012-1c-.50509,.00002-1.0102,.19308-1.39502,.579L2.58,20.60048c-.00134,.00133-.00267,.00266-.004,.004-.76823,.77044-.76644,2.01777,.004,2.786l18,18c.00133,.00133,.00267,.00267,.004,.004,.38452,.38341,.88774,.575,1.39098,.575,.50509,0,1.0102-.19308,1.39502-.579l18-18c.00134-.00133,.00267-.00267,.004-.004,.76823-.77044,.76644-2.01777-.004-2.786L23.37,2.60048c-.00133-.00134-.00266-.00267-.004-.004-.38452-.38342-.88774-.57502-1.39098-.575h0Z"/>
  </g>
  <path class="cls-1" d="M2.83,23.10048l18.1,18.1c.59577,.59923,1.56451,.60203,2.16374,.00626,.00209-.00208,.00418-.00417,.00626-.00626l18.1-18.1c.59617-.60049,.59617-1.56951,0-2.17L23.1,2.83048c-.59577-.59923-1.56451-.60203-2.16374-.00626-.00209,.00208-.00418,.00417-.00626,.00626L2.83,20.93048c-.59617,.60049-.59617,1.56951,0,2.17Zm.524-1.61L21.454,3.39048c.27293-.28995,.72923-.30375,1.01918-.03082,.01058,.00996,.02086,.02024,.03082,.03082l18.1,18.1c.28995,.27454,.30244,.73215,.0279,1.02209-.00904,.00955-.01835,.01886-.0279,.0279l-18.1,18.1c-.27454,.28995-.73215,.30244-1.02209,.0279-.00955-.00904-.01886-.01835-.0279-.0279L3.354,22.54048c-.28995-.27454-.30244-.73215-.0279-1.02209,.00905-.00955,.01835-.01886,.0279-.02791Z"/>
  <path class="cls-1" d="M28.5,29.10048c-.0218-6.11666-4.06744-11.48914-9.94-13.2l1.48-2.43c.12518-.42499-.09914-.87451-.514-1.03-.15877-.0302-.32273-.01756-.475,.0366l-9.27,3.35,6.43,7.22c.13079,.11443,.27855,.20788,.438,.277,.38975,.11067,.79763-.10472,.926-.489l-.238-2.8c4.0709,1.11501,6.89,4.81918,6.88,9.04v3.49h4.28v-3.49"/>
</svg>