<?xml version="1.0" encoding="UTF-8"?>
<svg id="Ebene_1" data-name="Ebene 1" xmlns="http://www.w3.org/2000/svg" viewBox="0 0 44 44">
  <defs>
    <style>
      .cls-1, .cls-2 {
        fill: #00f300;
      }

      .cls-1, .cls-3 {
        fill-rule: evenodd;
      }
    </style>
  </defs>
  <g>
    <path class="cls-3" d="M22.00537,41.46972c-.39355,0-.76367-.15332-1.0415-.43262L3.02051,23.09374l-.02344-.0459-.11377-.07715c-.49561-.51123-.49463-1.44385,.07959-2.01611L20.96338,2.9541c.28076-.28027,.64941-.43262,1.0415-.43262,.39355,0,.76367,.15332,1.04199,.43213l17.96387,17.96484,.01953,.0293,.07324,.05615c.51855,.52783,.51758,1.46045-.05664,2.0332l-17.94238,17.94238-.03027,.01562-.07324,.09375c-.23535,.22852-.604,.38086-.99561,.38086h0Z"/>
    <path class="cls-2" d="M22.00498,3.02148c.25964,0,.50358,.10125,.68791,.28611l18.00299,18.00298c.18295,.18347,.28349,.42721,.28312,.6863-.00037,.2591-.10162,.50254-.28611,.6865l-18.00298,18.00299c-.1831,.18257-.42633,.28312-.68489,.28312-.25964,0-.50358-.10125-.68791-.28611L3.31412,22.68039c-.18295-.18347-.28349-.42721-.28312-.6863,.00037-.2591,.10162-.50254,.28611-.6865L21.32009,3.3046c.1831-.18257,.42633-.28312,.68489-.28312m0-1c-.50324,0-1.00647,.19159-1.39098,.575-.00133,.00133-.00267,.00266-.004,.004L2.61,20.60048c-.77044,.76823-.77223,2.01556-.004,2.786,.00133,.00133,.00266,.00267,.004,.004l18,18c.38482,.38593,.88993,.579,1.39502,.579,.50324,0,1.00647-.19159,1.39098-.575,.00133-.00133,.00267-.00267,.004-.004l18-18c.77044-.76823,.77223-2.01556,.004-2.786-.00133-.00134-.00266-.00267-.004-.004L23.4,2.60048c-.38482-.38593-.88993-.579-1.39502-.579h0Z"/>
  </g>
  <path class="cls-1" d="M41.2,20.90048L23.1,2.80048c-.59577-.59923-1.56451-.60203-2.16374-.00626-.00209,.00208-.00418,.00417-.00626,.00626L2.83,20.90048c-.59617,.60049-.59617,1.56951,0,2.17l18.1,18.1c.59577,.59923,1.56451,.60203,2.16374,.00626,.00209-.00208,.00418-.00417,.00626-.00626l18.1-18.1c.59617-.60049,.59617-1.56951,0-2.17Zm-.524,1.61l-18.1,18.1c-.27454,.28995-.73215,.30244-1.02209,.0279-.00955-.00904-.01886-.01835-.0279-.0279L3.426,22.51048c-.28995-.27454-.30244-.73215-.0279-1.02209,.00905-.00955,.01835-.01886,.0279-.0279L21.526,3.36048c.27293-.28995,.72923-.30375,1.01918-.03082,.01058,.00996,.02086,.02024,.03082,.03082l18.1,18.1c.28995,.27454,.30244,.73215,.0279,1.02209-.00904,.00955-.01835,.01886-.0279,.02791Z"/>
  <path class="cls-1" d="M15.5,29.10048c.0218-6.11666,4.06744-11.48914,9.94-13.2l-1.48-2.43c-.12518-.42499,.09914-.87451,.514-1.03,.15877-.0302,.32273-.01756,.475,.0366l9.27,3.35-6.43,7.22c-.13079,.11443-.27855,.20788-.438,.277-.38975,.11067-.79763-.10472-.926-.489l.238-2.8c-4.0709,1.11501-6.89,4.81918-6.88,9.04v3.49h-4.28v-3.49"/>
</svg>