<?xml version="1.0" encoding="UTF-8"?>
<svg id="Ebene_1" data-name="Ebene 1" xmlns="http://www.w3.org/2000/svg" viewBox="0 0 39.948 39.948">
  <defs>
    <style>
      .cls-1, .cls-2 {
        fill: #00f300;
      }

      .cls-1, .cls-3, .cls-4 {
        fill-rule: evenodd;
      }

      .cls-3 {
        fill: #fee011;
      }
    </style>
  </defs>
  <g>
    <path class="cls-3" d="M19.97351,39.44836c-.39355,0-.7627-.15332-1.04053-.43164L.89734,20.98059l-.04492-.03125c-.49561-.51123-.49414-1.44385,.07959-2.01611L18.96765,.89758l.03125-.04541c.21436-.19971,.58301-.35205,.97461-.35205,.39355,0,.76318,.15332,1.04053,.43213l18.04688,18.04639c.53027,.56641,.51758,1.4751-.0459,2.03711l-18,18c-.28076,.28027-.64941,.43262-1.0415,.43262h-.00001Z"/>
    <path class="cls-2" d="M19.97398,1c.25964,0,.50358,.10125,.68791,.28611l18.00299,18.00298c.18295,.18347,.28349,.42721,.28312,.6863-.00037,.2591-.10162,.50254-.28611,.6865l-18.00298,18.00299c-.1831,.18257-.42633,.28312-.68489,.28312-.25964,0-.50358-.10125-.68791-.28611L1.28312,20.65891c-.18295-.18347-.28349-.42721-.28312-.6863,.00037-.2591,.10162-.50254,.28611-.6865L19.28909,1.28312c.1831-.18257,.42633-.28312,.68489-.28312m0-1c-.50324,0-1.00647,.19159-1.39098,.575-.00133,.00133-.00267,.00266-.004,.004L.579,18.579c-.77044,.76823-.77223,2.01556-.004,2.786,.00133,.00134,.00266,.00267,.004,.004l18,18c.38482,.38593,.88993,.579,1.39502,.579,.50324,0,1.00647-.19159,1.39098-.575,.00133-.00133,.00267-.00266,.004-.004l18-18c.77044-.76823,.77223-2.01556,.004-2.786-.00133-.00133-.00266-.00267-.004-.004L21.369,.579c-.38482-.38593-.88993-.579-1.39502-.579h0Z"/>
  </g>
  <g>
    <path class="cls-1" d="M.794,20.97424l18.1,18.1c.52812,.60199,1.44425,.66188,2.04624,.13376,.04745-.04163,.09213-.08631,.13376-.13376l18.1-18.1c.59095-.56471,.61221-1.50155,.0475-2.0925-.01547-.01619-.03131-.03203-.0475-.0475L21.074,.73424c-.60823-.58673-1.57177-.58673-2.18,0L.794,18.83424c-.58184,.59469-.58184,1.54531,0,2.14"/>
    <path class="cls-4" d="M1.344,20.47424l18.1,18.1c.29003,.27055,.73997,.27055,1.03,0l18.2-18.1c.29823-.28346,.31021-.75502,.02675-1.05325-.00869-.00914-.01761-.01806-.02675-.02675L20.474,1.29424c-.25361-.28443-.68979-.3094-.97421-.05579-.01965,.01752-.03827,.03614-.05579,.05579L1.344,19.39424c-.29823,.28266-.31086,.75356-.0282,1.0518,.00915,.00965,.01855,.01906,.0282,.0282"/>
    <path class="cls-1" d="M21.974,12.07424c.02824,.51638,.30133,.98825,.735,1.27,2.261,.78004,3.79454,2.88866,3.84,5.28-.0176,2.60676-1.85642,4.84586-4.41,5.37l-2.49,.474c-.61809,.07377-1.08969,.58785-1.11,1.21,.01249,.44305,.25866,.84636,.647,1.06,1.74644,.97938,2.82558,2.8277,2.82,4.83v3.31h-4.3v-3.34c.01715-.37296-.15606-.72917-.46-.946-1.87128-.91658-3.04984-2.82639-3.03-4.91-.01806-2.59465,1.77027-4.85294,4.3-5.43l2.54-.474c.701-.122,1.16-.51,1.16-1.17,.00793-.53036-.33899-1.00082-.848-1.15-2.21681-.86185-3.67247-3.00158-3.66-5.38l-2.75,.834c-.41783-.03696-.74301-.37884-.759-.798,.01284-.15303,.06865-.29931,.161-.422L19.92,3.49224l5.48,8.14c.09419,.1449,.14963,.31155,.161,.484,.00504,.43269-.33938,.78871-.772,.798l-2.8-.846"/>
  </g>
</svg>