<svg xmlns="http://www.w3.org/2000/svg" xmlns:xlink="http://www.w3.org/1999/xlink" viewBox="0 0 44 53"><defs><linearGradient id="Hintergrund_schwarz" x1="2.3424" y1="43.8746" x2="41.6576" y2="43.8746" gradientUnits="userSpaceOnUse"><stop offset="0" stop-color="#010101"/></linearGradient><linearGradient id="Beschriftung_weiss" x1="10.74512" y1="44.11683" x2="33.25488" y2="44.11683" gradientUnits="userSpaceOnUse"><stop offset="0" stop-color="#fff"/></linearGradient><linearGradient id="Rahmen_weiss" x1="2" y1="44.00085" x2="42" y2="44.00085" xlink:href="#Beschriftung_weiss"/></defs><title>zusatzschild_kmh_night</title><g id="zusatzschild_kmh_night"><path id="Hintergrund_schwarz-2" data-name="Hintergrund_schwarz" d="M2.3424,36.9939V49.03512a1.71937,1.71937,0,0,0,1.15506,1.46206,3.78107,3.78107,0,0,0,1.301.25811h34.402a3.094,3.094,0,0,0,1.73709-.5025,1.53026,1.53026,0,0,0,.72013-1.21767V36.9939Z" fill="url(#Hintergrund_schwarz)"/><path id="Beschriftung_weiss-2" data-name="Beschriftung_weiss" d="M14.76465,47.52162H13.56543l-.96-2.33008-.66016.90039v1.42969H10.74512v-6.2002l1.20019-.60937v3.60937l1.29-1.66016h1.47949l-1.29,1.55079Zm7.75,0H21.31543V44.61146a.9308.9308,0,0,0-.22559-.65527.79249.79249,0,0,0-.61523-.24414.8101.8101,0,0,0-.59961.25488.82156.82156,0,0,0-.25.59473v2.96H18.47461V44.61146a.87906.87906,0,0,0-.88965-.89941.73882.73882,0,0,0-.57519.25.89268.89268,0,0,0-.22461.61914v2.94043H15.585V42.632h1.2002v.39941a1.61835,1.61835,0,0,1,2.42968.24024,1.56989,1.56989,0,0,1,1.37989-.67969,1.78143,1.78143,0,0,1,1.41992.62988,2.04922,2.04922,0,0,1,.5,1.33008Zm6.21-6.7002-4.62012,6.7002H22.97461l4.57031-6.7002Zm.41992.4502,1.12988-.55957v2.3291a1.60836,1.60836,0,0,1,1.19043-.44922,1.65649,1.65649,0,0,1,1.28516.54492,2.06069,2.06069,0,0,1,.50488,1.415v2.96973H32.05469V44.61146a.89488.89488,0,0,0-.23535-.63965.82753.82753,0,0,0-.63477-.25.88528.88528,0,0,0-.63477.26465.81991.81991,0,0,0-.27539.60547v2.92969H29.14453Z" fill="url(#Beschriftung_weiss)"/><path id="Rahmen_weiss-2" data-name="Rahmen_weiss" d="M41,37.0016V48.49615a1.53915,1.53915,0,0,1-1.5,1.50237H4.5a1.88066,1.88066,0,0,1-.79993-.20033A1.71277,1.71277,0,0,1,3,48.49615V37.0016H2V48.49615a2.24934,2.24934,0,0,0,1.20007,2.10336A3.25591,3.25591,0,0,0,4.5,51.0001h35a2.47764,2.47764,0,0,0,2.5-2.504V37.0016Z" fill="url(#Rahmen_weiss)" stroke-width="0.5px" stroke="url(#Rahmen_weiss)"/></g></svg>