<svg xmlns="http://www.w3.org/2000/svg" viewBox="0 0 40 40"><defs><style>.cls-1{fill:none;stroke:#fff;stroke-width:1.5px;}.cls-2{isolation:isolate;}.cls-3{fill:#fff;}</style></defs><g id="E030_radio_sirius"><path class="cls-1" d="M.75,8.5h38.5v23H.75Z"/><g class="cls-2"><path class="cls-3" d="M5.11032,23.57911a6.66223,6.66223,0,0,0,.64539.223q.36494.1077.77887.18838.41434.08109.85912.12756a8.50457,8.50457,0,0,0,.89206.04646A4.51223,4.51223,0,0,0,9.4625,24.026a2.608,2.608,0,0,0,.85152-.38606,1.69043,1.69043,0,0,0,.52121-.58457,1.55129,1.55129,0,0,0,.17825-.73663,1.69806,1.69806,0,0,0-.06167-.47728,1.23962,1.23962,0,0,0-.19091-.38775,1.53461,1.53461,0,0,0-.32355-.321,2.65668,2.65668,0,0,0-.46292-.27286,5.59566,5.59566,0,0,0-.60992-.242q-.34212-.11532-.75605-.23358-.51193-.14382-.96049-.29778a6.81787,6.81787,0,0,1-.81942-.33959,3.784,3.784,0,0,1-.6606-.41477,2.37039,2.37039,0,0,1-.4908-.52037,2.26114,2.26114,0,0,1-.305-.65722,2.9171,2.9171,0,0,1-.10137-.82913,3.32758,3.32758,0,0,1,.10137-.83673,2.54979,2.54979,0,0,1,.31087-.72312,2.522,2.522,0,0,1,.52291-.59428,3.002,3.002,0,0,1,.73747-.44519,4.3722,4.3722,0,0,1,.96049-.28,6.74059,6.74059,0,0,1,1.19195-.09714q.48278,0,.90558.038a7.12193,7.12193,0,0,1,.78647.11109,4.81607,4.81607,0,0,1,.67411.185,3.999,3.999,0,0,1,.5719.25469v1.20294a4.6263,4.6263,0,0,0-.61582-.25681,5.90309,5.90309,0,0,0-.69017-.185,7.06049,7.06049,0,0,0-.77126-.11278c-.27117-.02534-.56008-.03759-.865-.03759a3.94052,3.94052,0,0,0-1.05511.12545,2.15443,2.15443,0,0,0-.74423.35353,1.46006,1.46006,0,0,0-.44518.54951,1.66722,1.66722,0,0,0-.14868.71256,1.63985,1.63985,0,0,0,.06.46672,1.1874,1.1874,0,0,0,.185.37508,1.40939,1.40939,0,0,0,.31763.30875,2.71037,2.71037,0,0,0,.46124.26019,5.90715,5.90715,0,0,0,.61413.23526q.34467.11342.77718.23527.52713.15078.98245.30876a6.29476,6.29476,0,0,1,.82617.34846,3.83313,3.83313,0,0,1,.65807.42153A2.24384,2.24384,0,0,1,12.3558,21.441a3.17661,3.17661,0,0,1,.09968.83124,3.13657,3.13657,0,0,1-.11658.83462,2.56608,2.56608,0,0,1-.343.74,2.82354,2.82354,0,0,1-.57528.6209,3.3938,3.3938,0,0,1-.80336.4739,4.79668,4.79668,0,0,1-1.03483.30158,7.01532,7.01532,0,0,1-1.268.1056c-.332,0-.65215-.01183-.96049-.03717q-.46377-.038-.87179-.1132a6.38306,6.38306,0,0,1-.75774-.185,3.71216,3.71216,0,0,1-.61414-.2492Z"/><path class="cls-3" d="M20.9664,25.17317,18.47775,21.49c-.03379-.05491-.07012-.114-.109-.17656-.038-.06166-.07518-.12671-.11066-.19345q-.05194-.10009-.10137-.20274t-.0887-.19894c-.0321.0642-.0642.13052-.09884.19894q-.05069.10264-.10137.20274c-.03379.06674-.06927.13179-.10559.19345-.03633.06252-.07265.12165-.109.17656l-2.48443,3.68314H13.5562l3.70172-5.46388L13.76654,14.525h1.62785l2.2555,3.38536q.05448.083.109.17782c.03632.06336.0718.12883.10559.19556q.0507.10074.10138.20317c.03377.068.06673.13685.098.20654.027-.06969.0566-.13854.08954-.20654q.04815-.10265.10137-.20317c.03548-.06673.07181-.1322.109-.19556s.07433-.12249.11066-.17782L20.74845,14.525h1.60927l-3.48716,5.17371,3.72707,5.47445Z"/><path class="cls-3" d="M33.52371,25.17317V17.78873q0-.35923.01267-.76113c.00845-.26821.02534-.528.049-.77929q-.15586.36621-.35058.76113-.19386.39471-.36493.675l-2.77165,4.49833h-.89713L26.44043,17.6844c-.06-.098-.12334-.20528-.18839-.32143-.06589-.11616-.13009-.23569-.19429-.359s-.1284-.24878-.19091-.37676q-.095-.192-.17487-.37888.03675.39471.05322.78816.01647.39282.016.75226v7.38444H24.39949V14.525h1.56872l3.10617,5.11627c.11319.18669.21794.37676.31256.57063.09376.19387.18245.39366.26441.59936a6.505,6.505,0,0,1,.26187-.60105,5.867,5.867,0,0,1,.32692-.57274L33.34631,14.525h1.54337V25.17317Z"/></g></g></svg>