<svg xmlns="http://www.w3.org/2000/svg" viewBox="0 0 40 40"><defs><style>.cls-1{fill:none;stroke:#fff;stroke-width:1.5px;}.cls-2{isolation:isolate;}.cls-3{fill:#fff;}</style></defs><g id="E033_radio_dab"><path class="cls-1" d="M.75,8.5h38.5v23H.75Z"/><g class="cls-2"><path class="cls-3" d="M5.68739,25.34912v-11H9.28192a6.66583,6.66583,0,0,1,1.65281.18719,4.56763,4.56763,0,0,1,1.28546.53233,3.74807,3.74807,0,0,1,.95121.83645,4.42153,4.42153,0,0,1,.64578,1.10131,6.0485,6.0485,0,0,1,.3639,1.32428,9.566,9.566,0,0,1,.11432,1.50753,9.16064,9.16064,0,0,1-.11868,1.50536,6.0005,6.0005,0,0,1-.37263,1.3282,4.46451,4.46451,0,0,1-.65887,1.10655,3.803,3.803,0,0,1-.97041.84387,4.66467,4.66467,0,0,1-1.30725.53756,6.76692,6.76692,0,0,1-1.67553.18937ZM9.124,24.19982a4.8872,4.8872,0,0,0,1.179-.13178,3.29038,3.29038,0,0,0,.93376-.384,2.73941,2.73941,0,0,0,.70773-.62483,3.32063,3.32063,0,0,0,.48957-.85347,4.997,4.997,0,0,0,.28362-1.06815,8.303,8.303,0,0,0,.09163-1.27715,8.51524,8.51524,0,0,0-.08989-1.27934,5.01729,5.01729,0,0,0-.28013-1.07774,3.32735,3.32735,0,0,0-.48171-.85653,2.67407,2.67407,0,0,0-.70337-.627,3.28369,3.28369,0,0,0-.93987-.38572A4.94652,4.94652,0,0,0,9.124,15.50235H7.13166v8.69747Z"/><path class="cls-3" d="M23.93927,25.34912l-1.03236-2.79254h-4.9716l-1.028,2.79254H15.42464l4.23681-11h1.56818l4.263,11Zm-3.07354-8.38155c-.08465-.21512-.16668-.44157-.24347-.67894a6.41362,6.41362,0,0,1-.192-.73392,6.92548,6.92548,0,0,1-.20944.73217q-.12436.35409-.2365.68069l-1.62142,4.376h4.105Z"/><path class="cls-3" d="M27.354,25.34912v-11h3.29782a6.51864,6.51864,0,0,1,1.68861.19461,3.36623,3.36623,0,0,1,1.2008.56767,2.30907,2.30907,0,0,1,.71733.91979,3.13772,3.13772,0,0,1,.23649,1.25141,2.99526,2.99526,0,0,1-.09948.79587,2.31984,2.31984,0,0,1-.28536.64883,2.21019,2.21019,0,0,1-.45641.51008,2.81809,2.81809,0,0,1-.61523.38223,3.45724,3.45724,0,0,1,.83863.4263,2.75283,2.75283,0,0,1,.62833.60432,2.56465,2.56465,0,0,1,.39444.76751,2.99006,2.99006,0,0,1,.13527.91282,3.51922,3.51922,0,0,1-.10123.86045,2.5812,2.5812,0,0,1-.31155.73566,2.42906,2.42906,0,0,1-.53494.59952,3.06978,3.06978,0,0,1-.7697.44681,4.75436,4.75436,0,0,1-1.01055.28013,7.63959,7.63959,0,0,1-1.2645.096Zm3.24895-6.134a4.288,4.288,0,0,0,1.10218-.12261,1.92208,1.92208,0,0,0,.74439-.363,1.411,1.411,0,0,0,.42237-.5956,2.29839,2.29839,0,0,0,.13264-.81377,1.75957,1.75957,0,0,0-.15533-.75311,1.461,1.461,0,0,0-.473-.56549,2.30164,2.30164,0,0,0-.80285-.3543,4.71617,4.71617,0,0,0-1.14233-.12218H28.7983v3.69009Zm.29322,4.962a4.89747,4.89747,0,0,0,1.19119-.12741,2.334,2.334,0,0,0,.8238-.36914,1.48311,1.48311,0,0,0,.47822-.59167,1.94194,1.94194,0,0,0,.15621-.79588,2.19026,2.19026,0,0,0-.14486-.81245,1.5305,1.5305,0,0,0-.4503-.61873,2.12261,2.12261,0,0,0-.78017-.39313,4.12177,4.12177,0,0,0-1.13534-.137H28.7983v3.84542Z"/></g></g></svg>