<svg xmlns="http://www.w3.org/2000/svg" viewBox="0 0 40 40"><defs><style>.cls-1{fill:none;stroke:#fff;stroke-width:1.5px;}.cls-2{fill:#fff;}</style></defs><g id="E035_connect_app_radio_online"><g id="Version_3"><g id="Version_3-2" data-name="Version_3"><path class="cls-1" d="M.75,8.5h38.5v23H.75V25L5,20,.75,15Z"/></g><path class="cls-2" d="M15.36712,25.38354l-2.16-7.39168c-.03263-.10829-.06824-.23142-.10384-.36889q-.05489-.20547-.10681-.44307c-.03363-.15823-.06725-.32142-.0989-.48954-.03264-.16813-.06132-.33626-.088-.50439-.02868.16813-.06033.33626-.093.50439q-.05045.25218-.10088.48954c-.03462.15824-.06923.30609-.10286.44307-.03461.13747-.06824.2606-.10186.36889l-2.153,7.39168H8.91794l-3.26069-11H7.024l2.2361,7.9925c.03066.10879.0623.21757.09395.32636.03264.10879.06231.21758.091.32835.02967.10977.05736.22054.08505.33131.02769.11175.05341.22549.07813.3412.01978-.11571.04154-.22945.06626-.3412.02473-.11077.04945-.22154.07616-.33131.0267-.11077.05439-.21956.08505-.32835.02967-.10879.06132-.21757.09395-.32636l2.249-7.9925h1.26392l2.25291,8.00338c.03363.11076.06429.22153.09494.33032.02967.10879.05835.21757.08605.32834.02769.10978.05241.22055.07615.33329.02275.11274.04549.22549.06824.33922.02176-.11373.04648-.22648.07219-.33922.02671-.11274.05539-.22351.08506-.33329.02967-.11077.06131-.21955.09494-.32834.03264-.10879.06626-.21956.0989-.33032L18.611,14.38354h1.351l-3.25772,11Z"/><path class="cls-2" d="M21.32346,25.38354v-11h6.25237v1.17937H22.60024v3.60881h4.27638v1.17195H22.60024v3.864h4.98944v1.1759Z"/><path class="cls-2" d="M29.354,25.3491v-11H32.6518a6.51872,6.51872,0,0,1,1.68862.19461,3.36618,3.36618,0,0,1,1.20079.56767,2.309,2.309,0,0,1,.71733.91979,3.13772,3.13772,0,0,1,.2365,1.25141,2.99525,2.99525,0,0,1-.09949.79587,2.31984,2.31984,0,0,1-.28536.64883,2.21038,2.21038,0,0,1-.45641.51008,2.81785,2.81785,0,0,1-.61523.38223,3.45731,3.45731,0,0,1,.83864.4263,2.753,2.753,0,0,1,.62832.60432,2.56491,2.56491,0,0,1,.39445.76751,2.99037,2.99037,0,0,1,.13526.91282,3.51922,3.51922,0,0,1-.10123.86045,2.58146,2.58146,0,0,1-.31154.73566,2.42928,2.42928,0,0,1-.535.59952,3.06989,3.06989,0,0,1-.76969.44681,4.75462,4.75462,0,0,1-1.01056.28013,7.63956,7.63956,0,0,1-1.26449.096Zm3.249-6.134a4.2879,4.2879,0,0,0,1.10218-.12261,1.922,1.922,0,0,0,.74439-.363,1.411,1.411,0,0,0,.42237-.59559,2.29839,2.29839,0,0,0,.13265-.81377,1.75958,1.75958,0,0,0-.15534-.75311,1.461,1.461,0,0,0-.473-.56549,2.30164,2.30164,0,0,0-.80285-.3543A4.71617,4.71617,0,0,0,32.431,15.525H30.79825v3.69009Zm.29322,4.962a4.89747,4.89747,0,0,0,1.19119-.12741,2.33377,2.33377,0,0,0,.8238-.36913,1.48309,1.48309,0,0,0,.47822-.59167,1.94194,1.94194,0,0,0,.15621-.79588,2.19026,2.19026,0,0,0-.14486-.81245,1.53031,1.53031,0,0,0-.4503-.61873,2.12253,2.12253,0,0,0-.78017-.39313,4.12172,4.12172,0,0,0-1.13534-.137H30.79825V24.1771Z"/></g></g></svg>