<svg xmlns="http://www.w3.org/2000/svg" viewBox="0 0 40 40"><defs><style>.cls-1,.cls-2{fill:none;stroke:#fff;stroke-miterlimit:10;stroke-width:1.5px;}.cls-1{fill-rule:evenodd;}</style></defs><g id="E051_phone_missed_call"><path class="cls-1" d="M21.78963,22.89387c5.27117.13441,12.51583,1.11419,13.92341,2.30992,1.60341,1.362,2.67926,6.4991,2.32828,7.52206s-8.93288,1.039-9.41078-.004-.1167-1.75326-.46145-2.93247c-.30471-1.04225-1.558-1.52445-6.3866-1.69969-1.16951-.04239-2.21919-.04876-3.56494.00005-4.82864.17515-6.08185.65739-6.3866,1.69959-.34479,1.17926.01646,1.88949-.4614,2.93252-.47795,1.043-9.05989,1.027-9.41087.004s.72491-6.16,2.32832-7.5221c1.40763-1.19569,8.65224-2.17543,13.92342-2.30993C19.5572,22.8595,20.61547,22.86387,21.78963,22.89387Z"/><line class="cls-2" x1="13.5" y1="6" x2="26.5" y2="19"/><line class="cls-2" x1="26.5" y1="6" x2="13.5" y2="19"/></g></svg>