<svg xmlns="http://www.w3.org/2000/svg" viewBox="0 0 40 40"><defs><style>.cls-1,.cls-3,.cls-5{fill:#fff;}.cls-1,.cls-4{fill-rule:evenodd;}.cls-2,.cls-4{fill:none;}.cls-2,.cls-3,.cls-4{stroke:#fff;stroke-width:1.5px;}.cls-3{stroke-miterlimit:10;}</style></defs><g id="E07C_media_ami_usb"><path class="cls-1" d="M20.5,12l3,5h-6Z"/><path class="cls-2" d="M20.5,27.29221a27.50327,27.50327,0,0,0,3.4-1.29386c1.75155-.87725,1.6-2.11588,1.6-2.11588V20.75"/><path class="cls-2" d="M20.5,16.5v18"/><path class="cls-2" d="M12.5,9.5V.75h15V9.5"/><line class="cls-3" x1="16.5" y1="3" x2="16.5" y2="7"/><line class="cls-3" x1="23.5" y1="3" x2="23.5" y2="7"/><path class="cls-4" d="M28.5,39.25h-17a2,2,0,0,1-2-2V9.5h21V37.25A2,2,0,0,1,28.5,39.25Z"/><circle class="cls-5" cx="15.5" cy="22.5" r="1.75"/><circle class="cls-5" cx="20.5" cy="34.5" r="1.75"/><rect class="cls-5" x="23.9" y="18.9" width="3.2" height="3.2"/><path class="cls-2" d="M20.5033,29.3711a27.50254,27.50254,0,0,1-3.4-1.29385c-1.75156-.87725-1.6-2.11588-1.6-2.11588V22.8289"/></g></svg>