<svg xmlns="http://www.w3.org/2000/svg" viewBox="0 0 40 40"><defs><style>.cls-1{fill:#fff;fill-rule:evenodd;}.cls-2{fill:none;stroke:#fff;stroke-miterlimit:10;stroke-width:1.5px;}</style></defs><g id="E099_media"><polygon class="cls-1" points="13.365 16.523 13.343 14.38 31.469 8.111 31.455 10.268 13.365 16.523"/><polygon class="cls-1" points="12.838 6.64 31.99 0.048 31.99 2.2 12.838 8.793 12.838 6.64"/><path class="cls-1" d="M27.9338,32.88359c-2.78943.92425-4.85345.47837-5.62858-1.179-.515-1.10411,1.14739-3.41849,3.93682-4.344,2.78943-.923,5.06253-.87554,5.62858.72942C32.48,29.81606,30.72323,31.96058,27.9338,32.88359Zm-17.65839,6.245c-2.78943.92425-4.85345.47836-5.62858-1.17905-.515-1.10411,1.14739-3.4185,3.93682-4.344,2.78943-.923,5.06254-.87554,5.62858.72941C14.82162,36.061,13.06484,38.20555,10.27541,39.12856Z"/><line class="cls-2" x1="31.24485" y1="2.01795" x2="31.24485" y2="28.7875"/><line class="cls-2" x1="13.58669" y1="7.1011" x2="13.58669" y2="35.04271"/></g></svg>