<svg xmlns="http://www.w3.org/2000/svg" viewBox="0 0 40 40"><defs><style>.cls-1{fill:#fff;fill-rule:evenodd;}.cls-2{fill:none;stroke:#fff;stroke-width:1.5px;}</style></defs><g id="E0A9_google_android_auto"><path class="cls-1" d="M21.122,16.05849c.33071.55034.67164,1.21942,1.07258,1.94853,2.43885,4.43589,6.3359,11.52,8.76709,15.94063.41627.75591.80188,1.42628,1.10451,2.00726.99852,1.91405-.86956,1.98683-.8287,1.98683-.56311,0-.44308-.02937-1.13515-.33454-3.076-1.35478-10.104-4.50358-10.104-4.50358s-7.40147,3.23257-10.28148,4.48953a4.1489,4.1489,0,0,1-.93723.34859c-.02811.00851-1.79786-.27581-.87212-2.00471.31923-.595.71123-1.29348,1.14154-2.07621,2.435-4.43079,6.2976-11.46,8.71857-15.8653.40477-.73548.74825-1.4084,1.07769-1.96129A1.22266,1.22266,0,0,1,21.122,16.05849Z"/><path class="cls-2" d="M6.9915,33.6668l-2.69926,0a2.167,2.167,0,0,1-1.222-3.24583c.44728-.81177.97857-1.77181,1.59759-2.82945C12.44821,14.31663,17.58446,4.8905,17.58446,4.8905c.86614-1.41349,3.95629-1.40608,4.82612,0,0,0,5.34012,9.394,12.92774,22.82091.58195,1.02923,1.12066,1.94231,1.54446,2.73307,1.39742,2.60828-1.159,3.22236-1.159,3.22236l-2.711,0"/></g></svg>