<svg xmlns="http://www.w3.org/2000/svg" viewBox="0 0 40 40"><defs><style>.cls-1,.cls-3{fill:#fff;}.cls-2{fill:none;stroke:#fff;stroke-width:1.5px;}.cls-3{fill-rule:evenodd;}</style></defs><g id="E0BE_006_zwischenzielflagge"><path class="cls-1" d="M23.40381,28.48193q-.249-.0769-.50391-.14648c-.16894-.04639-.34765-.08594-.53418-.11914-.18652-.03272-.38574-.05908-.5957-.07861s-.43555-.0293-.67676-.0293a4.2305,4.2305,0,0,0-1.5039.24365,2.76734,2.76734,0,0,0-1.08692.73389,3.49321,3.49321,0,0,0-.69824,1.227,6.99324,6.99324,0,0,0-.3291,1.71728,3.83484,3.83484,0,0,1,.56738-.41552,4.03217,4.03217,0,0,1,.65332-.31495,4.26522,4.26522,0,0,1,.72754-.19921,4.43045,4.43045,0,0,1,.79785-.06983,5.078,5.078,0,0,1,1.14063.12061,3.88348,3.88348,0,0,1,.94336.34472,3.02476,3.02476,0,0,1,1.26855,1.252,3.37669,3.37669,0,0,1,.32227.85888,4.27487,4.27487,0,0,1,.10839.97608,3.952,3.952,0,0,1-.10253.90088,3.41413,3.41413,0,0,1-.31153.833,3.19654,3.19654,0,0,1-.52539.72315,3.16137,3.16137,0,0,1-.74707.56982,3.92891,3.92891,0,0,1-.97558.37354,5.11976,5.11976,0,0,1-1.2129.13379,4.41517,4.41517,0,0,1-1.75781-.33155,3.39052,3.39052,0,0,1-1.29785-.978,4.43223,4.43223,0,0,1-.80371-1.602,7.98665,7.98665,0,0,1-.27441-2.20459,9.9409,9.9409,0,0,1,.31152-2.61817,5.15333,5.15333,0,0,1,.93848-1.91357,3.98139,3.98139,0,0,1,1.5791-1.17383,5.69773,5.69773,0,0,1,2.2207-.39893c.27148,0,.51855.00879.74316.02735q.33691.02709.623.07519.28564.04761.53027.11328c.16407.04395.31739.09278.46192.14649Zm-5.9834,4.62159a8.13986,8.13986,0,0,0,.10059,1.26513,4.73855,4.73855,0,0,0,.26367.99073,2.93418,2.93418,0,0,0,.41113.73437,2.28364,2.28364,0,0,0,.541.5,2.16088,2.16088,0,0,0,.64941.28369,3.00874,3.00874,0,0,0,.74316.08936,2.97659,2.97659,0,0,0,1.05372-.17188,2.05316,2.05316,0,0,0,.76171-.4873,2.08092,2.08092,0,0,0,.46289-.75244,2.86524,2.86524,0,0,0,.15723-.97217,2.94467,2.94467,0,0,0-.15527-.98535,1.989,1.989,0,0,0-.46192-.74854,2.01417,2.01417,0,0,0-.7705-.47607,3.20841,3.20841,0,0,0-1.084-.167,4.54466,4.54466,0,0,0-.72168.05713,4.31745,4.31745,0,0,0-.69043.16846,4.2386,4.2386,0,0,0-.65136.28027A4.40384,4.40384,0,0,0,17.42041,33.10352Z"/><path class="cls-2" d="M34.16667,25.38205c-6.59476.62662-10.06682-1.12163-13.15415-2.50892s-5.79-2.41359-10.84585-.34308V4.72905c5.05589-2.07051,7.75851-.8512,10.84584.729s6.5594,3.52116,13.15416,2.894v17.03Z"/><path class="cls-1" d="M16.19663,9.79051v5.49081s-.21568-.02359-.58964-.04313-.90619-.035-1.53929-.01879a9.7555,9.7555,0,0,0-2.55447.53153c-.77408.25287-1.3469.50058-1.3469.50058l.00067-2.91818v-2.662a3.83336,3.83336,0,0,0,.80285-.16c.683-.20184,1.17817-.39031,2.01441-.58548a7.92974,7.92974,0,0,1,3.21237-.13533"/><path class="cls-1" d="M17.111,9.96046c-.52368-.11311-.91434-.17-.91434-.17l-.0015-2.84976-.0017-3.23421a2.67288,2.67288,0,0,1,.61121.09984c.34551.096.83024.19829,1.18235.31188a12.78694,12.78694,0,0,1,1.70935.6893c.72506.35866,1.45162.76026,2.19474,1.10086,0,0-.00177,1.94313-.00611,3.33015s-.01127,2.77661-.02159,2.78693c-.6851-.3849-1.24031-.68762-1.72664-.93744A10.81834,10.81834,0,0,0,17.111,9.96046Z"/><path class="cls-1" d="M21.89382,12.08526l.59895.264.59895.264c.34922.13174.83707.3394,1.42551.55749a16.57837,16.57837,0,0,0,2.029.62l.52032.08672.52032.08672.00041,2.66887.00042,2.66886-.41658-.108-.41658-.108c-.49541-.11872-1.41343-.41187-2.358-.75248a24.28626,24.28626,0,0,1-2.51749-1.03726v-.03086l.00737-2.59Z"/><polygon class="cls-3" points="6.5 5 7 5 8 5 8 22 8 39 7 39 6.5 39 6.5 22 6.5 5"/><path class="cls-3" d="M16.19363,15.28132s.3562.03888.84137.13057a8.76526,8.76526,0,0,1,1.61526.44741c.37786.15471,1.07969.44886,1.74124.73272s1.28283.55742,1.49958.67095v6.00662l-3.45449-1.42065-2.243-.45647V15.28132Z"/><path class="cls-1" d="M30.4404,8.43676l3.31369-.02763.02064,2.8971.02064,2.8971s-.55161.02463-1.22478.04809-1.46789.04575-1.95411.04105a16.8339,16.8339,0,0,1-1.98708-.17173c-.59716-.082-1.03577-.16255-1.03577-.16255v-5.9Z"/><path class="cls-1" d="M33.74814,25.419c-.00949-.61374-.02251-2.173-.03494-3.46085s-.02429-2.42585-.03146-2.44016a21.112,21.112,0,0,1-4.128.02837c-1.16737-.09547-1.97608-.23479-1.97608-.23479l.0055,3.09384.00492,2.76578.74018.12143.74441.09384c.88951.01691,1.4854.17276,2.23392.12587A12.082,12.082,0,0,0,33.74814,25.419Z"/></g></svg>