<svg id="E10E_ice_crystal" xmlns="http://www.w3.org/2000/svg" viewBox="0 0 40 40"><defs><style>.cls-1{fill:#fff;}</style></defs><path class="cls-1" d="M21.22461,18.59668l0-8.86279.02053-.01416,3.47265-1.72315a.76287.76287,0,0,0,.42578-.688.7814.7814,0,0,0-.10156-.38183.76618.76618,0,0,0-.65918-.38184.79138.79138,0,0,0-.37988.10254L21.21875,8.02734,21.2168,3.749a.77424.77424,0,0,0-.10352-.37548.71981.71981,0,0,0-.6582-.32374h-.002a.66843.66843,0,0,0-.70214.70411V8.02148L16.9043,6.6416a.7689.7689,0,0,0-.91114.12988.7548.7548,0,0,0-.2207.53858.74922.74922,0,0,0,.42578.68359L19.75391,9.73l.001,8.93945.002,2.647.002,8.95117-.02832.01367-3.53516,1.72559a.76507.76507,0,0,0-.32226,1.06347.77062.77062,0,0,0,1.043.28223l2.8457-1.37988-.001,4.28222c0,.0293,0,.05762-.001.08692a.52617.52617,0,0,0,.042.28418.68271.68271,0,0,0,.63965.32422.72363.72363,0,0,0,.76757-.70508V31.97461l.07227.03613,2.71289,1.34766a.76251.76251,0,0,0,.36328.0957.7445.7445,0,0,0,.54395-.22363.76458.76458,0,0,0-.2002-1.22559l-3.47658-1.73535V21.32617Z"/><path class="cls-1" d="M34.90216,27.47217,31.2038,25.33691l.06744-.04449,2.52356-1.6756a.76328.76328,0,0,0,.26453-.26678.74478.74478,0,0,0,.0783-.58289.76451.76451,0,0,0-1.16149-.43939l-3.33808,2.20245L11.93573,14.31006l.2569-4.00086a.76289.76289,0,0,0-.38294-.7127.78114.78114,0,0,0-.38147-.103.76629.76629,0,0,0-.66028.37994.79155.79155,0,0,0-.10113.38025l-.19708,3.10114L6.76367,11.21735a.77479.77479,0,0,0-.37695-.09809.71984.71984,0,0,0-.6095.40814l-.001.00171a.66847.66847,0,0,0,.25872.96015l3.6958,2.13379L7.11243,16.39838a.76893.76893,0,0,0-.34308.854.75477.75477,0,0,0,.35608.46045.749.749,0,0,0,.80487-.027l3.37274-2.2738L29.00653,25.62762,28.72491,29.695a.76507.76507,0,0,0,.75983.81085.77072.77072,0,0,0,.76593-.76215l.22785-3.15442,3.708,2.142c.02539.01465.04987.02881.07477.04431a.526.526,0,0,0,.26709.10572.68275.68275,0,0,0,.60065-.39185A.72362.72362,0,0,0,34.90216,27.47217Z"/><path class="cls-1" d="M34.15112,11.22639l-3.69836,2.13525L30.448,13.281l-.18934-3.02326a.76319.76319,0,0,0-.09877-.36248A.74478.74478,0,0,0,29.6942,9.536a.76452.76452,0,0,0-.96128.78619l.23835,3.99208L11.26919,24.53484l-3.3364-2.2229a.76289.76289,0,0,0-.80869-.02472.78116.78116,0,0,0-.2799.27887.76624.76624,0,0,0-.0011.76179.79136.79136,0,0,0,.27874.27771L9.709,25.32684,6.00479,27.46762a.77487.77487,0,0,0-.27342.27741.71984.71984,0,0,0,.04871.73191l.001.0017a.66846.66846,0,0,0,.96087.256l3.69581-2.13376.22831,3.15522a.76894.76894,0,0,0,.56805.72411.75478.75478,0,0,0,.5768-.07815.749.749,0,0,0,.37907-.71052l-.2828-4.05778,17.6987-10.22389,3.38165,2.27758a.76508.76508,0,0,0,1.08213-.2526.77073.77073,0,0,0-.27708-1.04439l-2.61788-1.77453,3.709-2.14025c.02538-.01466.04988-.02878.07576-.04259a.52613.52613,0,0,0,.2251-.17845.68273.68273,0,0,0-.039-.7161A.72362.72362,0,0,0,34.15112,11.22639Z"/><rect class="cls-1" x="19.99023" y="9.65266" width="1" height="20.67618"/></svg>