<svg xmlns="http://www.w3.org/2000/svg" viewBox="0 0 40 40"><defs><style>.cls-1,.cls-3{fill:#fff;}.cls-1{fill-rule:evenodd;}.cls-2{fill:none;stroke:#fff;stroke-miterlimit:10;stroke-width:1.5px;}</style></defs><g id="E116_laptimer_zwischenzeit"><g id="V1"><path class="cls-1" d="M15,2h9V4H15Z"/><path class="cls-1" d="M18.75005,3.5h1.5v5h-1.5Z"/><polygon class="cls-1" points="28.596 11.193 32.056 7.754 33.139 8.837 29.789 12.176 28.596 11.193"/><polygon class="cls-1" points="5.861 8.837 6.954 7.764 10.474 11.254 9.331 12.246 5.861 8.837"/><polygon class="cls-1" points="19.447 21.775 20.526 22.817 12.177 30.743 11.818 30.395 19.447 21.775"/><circle class="cls-2" cx="19.5" cy="22.8" r="14.75"/><circle class="cls-3" cx="19.5" cy="22.8" r="1.9"/><path class="cls-3" d="M22.28943,25.28888l6.34021,5.657a12.2305,12.2305,0,0,0-9.12958-20.38727v8.49854a3.734,3.734,0,0,1,2.78937,6.23169Z"/></g></g></svg>