<svg xmlns="http://www.w3.org/2000/svg" viewBox="0 0 40 40"><defs><style>.cls-1,.cls-4{fill:none;stroke:#fff;stroke-miterlimit:10;stroke-width:1.5px;}.cls-2,.cls-3{fill:#fff;}.cls-2,.cls-4{fill-rule:evenodd;}</style></defs><g id="E151_phev_range_electric"><g id="V1"><path class="cls-1" d="M33.5,28.5m-10-11s.41325.00618,1.23943,0A2.58543,2.58543,0,0,1,27.5,20v9.5a3,3,0,0,0,6,0v-13"/><path class="cls-2" d="M36.25,8V4h-1.5V8h-2.5V4h-1.5V8H29v6a4.012,4.012,0,0,0,3.24072,4.01044h2.51856A4.012,4.012,0,0,0,38,14V8Z"/><path class="cls-1" d="M20,16.5H9"/><path class="cls-3" d="M3,36.5H26V38H3Z"/><path class="cls-4" d="M5.5,37V5.5a2.06135,2.06135,0,0,1,2.11765-2h13.7647A2.06135,2.06135,0,0,1,23.5,5.5V37"/></g></g></svg>