<svg xmlns="http://www.w3.org/2000/svg" viewBox="0 0 40 40"><defs><style>.cls-1,.cls-3,.cls-4{fill:#fff;}.cls-1,.cls-3{fill-rule:evenodd;}.cls-2{fill:none;stroke:#fff;stroke-width:1.37138px;}.cls-3{fill-opacity:0.502;}</style></defs><g id="E187_AdBlue_defekt"><g id="V4"><g id="V4-2" data-name="V4"><path id="Version_3" class="cls-1" d="M33.35982,27.90442c.42-.09693.703-.43749.63079-.75775a.7009.7009,0,0,0-.89468-.40063L18.769,30.1316c-.42123.09974-.70382.43726-.63038.75786a.69961.69961,0,0,0,.89291.4006Zm6.61125-3.25131-3.02145.003-1.06893,1.87746,1.0654,1.89986,3.00016.00292a.50657.50657,0,0,1-.18723.46115A3.60421,3.60421,0,0,1,37.046,30.15011a3.55544,3.55544,0,0,1-2.61367-1.14543L18.513,33.174a4.47138,4.47138,0,0,1-7.58778,1.172,1.28381,1.28381,0,0,1-.24257-.88222l4.0409.00077L15.88223,31.446l-1.1549-2.047-4.03666-.00322a1.36044,1.36044,0,0,1,.12381-.779,4.432,4.432,0,0,1,7.1016.00335L33.60535,25.444a3.57962,3.57962,0,0,1,6.0521-1.4615.90893.90893,0,0,1,.31377.66175Z"/></g><path class="cls-2" d="M5.91489,35.24627H.76156c.276-7.86823,3.23268-13.23187,6.09694-15.37L8.8212,23.311S5.91489,26.66378,5.91489,35.24627Z"/><path class="cls-3" d="M.52878,35.24627c.23217-6.77905,4.40837-13.8765,6.32972-15.37L8.8212,23.311A23.70379,23.70379,0,0,0,5.91489,35.24627Z"/><path class="cls-3" d="M18.473,22.10351l-6.61236-.16073L9.01956,17.44524l1.58872-1.20475L13.595,14.62808l15.08517.00313,1.242,1.3316Z"/><path class="cls-4" d="M14.1101,22.035l.125.11249a4.53108,4.53108,0,0,0,5.3266.54418l11.63083-6.82922a3.7519,3.7519,0,0,0,1.34013-5.08776L29.1792,4.91549a3.86822,3.86822,0,0,0-5.31945-1.42942l-12.046,7.073a3.99358,3.99358,0,0,0-1.7535,4.6293l.05535.17187L8.28977,16.495a.84988.84988,0,0,0-.27856,1.15442l3.107,5.16187a.84833.84833,0,0,0,1.14639.29463Zm3.16953-.11919A3.18169,3.18169,0,0,1,14.727,20.62608a.565.565,0,0,0-.71872-.14821L12.0325,21.6256,9.48616,17.3945l2.01421-1.25174a.54167.54167,0,0,0,.21607-.28169l.06249-.16428.24107.02143a2.68917,2.68917,0,0,0,2.22938-.89729l.17142-.18972.17142.18972a2.74026,2.74026,0,0,0,4.07843,0l.17142-.18972.17142.18972a2.73825,2.73825,0,0,0,4.07664,0l.17142-.18972.17143.18972a2.73925,2.73925,0,0,0,4.07753,0l.17142-.18972.17142.18972a2.75368,2.75368,0,0,0,.72141.554l.35445.19687L18.85546,21.48721A3.10587,3.10587,0,0,1,17.27963,21.91577Zm12.612-7.28769a1.67436,1.67436,0,0,1-1.658-1.68654.55132.55132,0,1,0-1.10264,0,1.65953,1.65953,0,1,1-3.31863,0,.55088.55088,0,1,0-1.10175,0,1.65865,1.65865,0,1,1-3.31684,0,.55132.55132,0,1,0-1.10264,0,1.66,1.66,0,1,1-3.31952,0,.55088.55088,0,1,0-1.10175,0,1.67454,1.67454,0,0,1-1.65887,1.68654,1.621,1.621,0,0,1-.81426-.22588l-.10356-.05982-.01161-.11919A2.56971,2.56971,0,0,1,12.52,11.76345L24.566,4.69139a2.42337,2.42337,0,0,1,1.8794-.25714,2.47961,2.47961,0,0,1,1.524,1.17541l3.35345,5.85916a2.35683,2.35683,0,0,1-.36159,2.807l-.07589.05134A2.94041,2.94041,0,0,1,29.89167,14.62808Z"/></g></g></svg>