<svg xmlns="http://www.w3.org/2000/svg" viewBox="0 0 40 40"><defs><style>.cls-1,.cls-2{fill:#fff;}.cls-1{fill-rule:evenodd;}</style></defs><g id="E2B2_messaging_resend_sms"><path class="cls-1" d="M32.82568,24.75879a7.83241,7.83241,0,0,0-4.33917,1.04156l-1.525-1.45239-2.57123,6.94855,6.67078-3.04413-1.4289-1.3609a6.70746,6.70746,0,0,1,3.1261-.63464,5.75818,5.75818,0,0,1,5.48584,6.00488,5.82609,5.82609,0,0,1-5.937,5.48828c-.0293,0-.05859-.001-.0874-.001a5.24578,5.24578,0,0,1-3.769-1.65527,6.3348,6.3348,0,0,1-1.35052-2.1864l-1.35169.61688a7.77305,7.77305,0,0,0,1.62067,2.60956A6.7066,6.7066,0,0,0,32.19922,39.249c.03662,0,.07226.001.1084.001a7.25055,7.25055,0,0,0,.51806-14.49121Z"/><path class="cls-2" d="M21.69312,28.5H13.59521L6.25,35.71289V28.5H1.5v-18h33V21.96069c.04083.00812.08032.01947.121.028.16492.03479.329.07074.49219.11358.225.05677.44568.12323.66382.19556.03979.01337.08038.02368.12.03754.03388.01178.06934.02.103.03222V9H0V30H4.75v9.28711L14.2085,30h6.92956Z"/></g></svg>