<svg xmlns="http://www.w3.org/2000/svg" viewBox="0 0 40 40"><defs><style>.cls-1,.cls-3{fill:#fff;}.cls-1,.cls-2{fill-rule:evenodd;}.cls-2{fill:none;stroke:#fff;stroke-miterlimit:10;stroke-width:1.5px;}</style></defs><g id="E2FC_hourglass"><g id="V1-2" data-name="V1"><path class="cls-1" d="M21.04383,13.16412C23.32,12.46987,25.23465,10.28434,25.23465,9H14.76535c0,1.28434,2.01463,3.62882,4.1952,4.16412C19.23033,13.23037,20,16.39018,20,16.39018A17.8888,17.8888,0,0,1,21.04383,13.16412Z"/><path class="cls-1" d="M18.78165,31.55024C15.58486,32.23647,13,33.73055,13,35H27c0-1.26945-2.60579-2.74582-5.78165-3.44976C20.90409,31.48055,20,22.45964,20,22.45964S19.0781,31.48659,18.78165,31.55024Z"/><path class="cls-2" d="M8.92622,38.09951a21.03463,21.03463,0,0,1,2.9731-10.82883,11.31142,11.31142,0,0,1,3.48412-3.41718,4.7843,4.7843,0,0,0,2.1608-3.84361,4.69939,4.69939,0,0,0-2.1608-3.93693A11.36656,11.36656,0,0,1,11.728,12.50478,20.817,20.817,0,0,1,8.92622,1.85806m22.14756,0a20.12385,20.12385,0,0,1-2.82344,10.71813A11.1991,11.1991,0,0,1,24.61656,16.073a4.57374,4.57374,0,0,0-2.1912,3.87331,5.16907,5.16907,0,0,0,2.1912,3.90723,13.61237,13.61237,0,0,1,3.44814,3.37857,21.01949,21.01949,0,0,1,3.00908,10.86744"/><path class="cls-3" d="M7,1H33V2.5H7Z"/><path class="cls-3" d="M7,37.5H33V39H7Z"/></g></g></svg>