<svg xmlns="http://www.w3.org/2000/svg" viewBox="0 0 40 40"><defs><style>.cls-1{fill:#fff;}</style></defs><g id="E31F_AC_laden"><path id="Welle" class="cls-1" d="M25.44188,34.96292h-.03125c-2.83887-.01075-5.01855-1.23828-7.127-2.42481-.25586-.14355-.50977-.30176-.77051-.46484a8.19184,8.19184,0,0,0-5.081-1.47461c-2.80079,0-5.65332,2.97363-6.51563,4.12012l-1.998-1.50391c.15723-.209,3.90528-5.11621,8.51368-5.11621a10.5605,10.5605,0,0,1,6.40625,1.85449c.22753.14258.44824.28125.67089.40625,1.998,1.124,3.72266,2.09473,5.91114,2.10352h.0205c3.875,0,6.89747-4.35352,6.92774-4.39746L34.436,29.47171C34.28368,29.69632,30.64794,34.96292,25.44188,34.96292Z"/><path class="cls-1" d="M18.09192,25l-1.66919-4.56926H8.3815L6.71923,25H4.3218L11.17371,7h2.53694l6.89347,18Zm-4.97-13.7157q-.20629-.52688-.39479-1.11016A10.4663,10.4663,0,0,1,12.41745,8.973a11.23787,11.23787,0,0,1-.33938,1.19821c-.13358.38589-.26122.75792-.38292,1.11313l-2.621,7.16161h6.63918Z"/><path class="cls-1" d="M34.96029,24.453a9.99817,9.99817,0,0,1-.99114.37515,9.15222,9.15222,0,0,1-1.14139.28361,13.373,13.373,0,0,1-1.35237.17713q-.7314.0612-1.629.0617a9.07635,9.07635,0,0,1-2.2619-.26868,7.10113,7.10113,0,0,1-1.91659-.7941,6.31736,6.31736,0,0,1-1.54342-1.31156,7.43712,7.43712,0,0,1-1.13841-1.828,10.40941,10.40941,0,0,1-.70554-2.33454,15.54116,15.54116,0,0,1-.24082-2.8321,14.67394,14.67394,0,0,1,.22589-2.63407,10.57705,10.57705,0,0,1,.66872-2.27085A7.94741,7.94741,0,0,1,24.0359,9.21879a6.49018,6.49018,0,0,1,1.5285-1.39217,7.08271,7.08271,0,0,1,1.94745-.87271A8.61734,8.61734,0,0,1,29.8643,6.6494q.70754,0,1.39814.06667A13.04072,13.04072,0,0,1,32.58,6.91112a9.68924,9.68924,0,0,1,1.17523.31445,6.10977,6.10977,0,0,1,.96726.41795v2.045a7.57564,7.57564,0,0,0-.98517-.39705,10.83941,10.83941,0,0,0-1.1414-.30152,12.31583,12.31583,0,0,0-1.25484-.19206,12.927,12.927,0,0,0-1.32449-.06766,6.432,6.432,0,0,0-1.72056.21693,4.65993,4.65993,0,0,0-1.40112.64086,4.51341,4.51341,0,0,0-1.0797,1.04387,5.80479,5.80479,0,0,0-.76624,1.425,8.85286,8.85286,0,0,0-.45775,1.7912,13.8674,13.8674,0,0,0-.15325,2.13353,12.91486,12.91486,0,0,0,.193,2.33156A8.35062,8.35062,0,0,0,25.1803,20.171a5.59129,5.59129,0,0,0,.86376,1.40709,4.76274,4.76274,0,0,0,1.13741.97919,4.90019,4.90019,0,0,0,1.37326.57418,6.40256,6.40256,0,0,0,1.56631.18609q.79262,0,1.47377-.0607.68066-.0612,1.27275-.17116a9.92327,9.92327,0,0,0,1.10756-.26868c.34332-.10549.6727-.2239.98517-.35426Z"/></g></svg>