<svg xmlns="http://www.w3.org/2000/svg" viewBox="0 0 40 40"><defs><style>.cls-1{fill:#fff;}</style></defs><g id="E320_DC_Laden"><rect class="cls-1" x="27" y="32.5" width="8" height="2.5"/><rect class="cls-1" x="5" y="32.5" width="8" height="2.5"/><rect class="cls-1" x="5" y="28.5" width="30" height="2.5"/><path class="cls-1" d="M5.014,25,5,7h5.86063a10.86858,10.86858,0,0,1,2.68945.25684,7.41938,7.41938,0,0,1,2.08985.876,6.12076,6.12076,0,0,1,1.54785,1.376,7.31285,7.31285,0,0,1,1.0498,1.81348,9.94356,9.94356,0,0,1,.5918,2.17871,15.8598,15.8598,0,0,1,.18555,2.48047A15.40557,15.40557,0,0,1,18.82352,18.46a9.975,9.975,0,0,1-.60742,2.18555,7.37183,7.37183,0,0,1-1.07129,1.82129,6.25889,6.25889,0,0,1-1.57812,1.38867,7.56036,7.56036,0,0,1-2.127.88476A11.02131,11.02131,0,0,1,10.71415,25Zm5.59082-1.84082a7.79947,7.79947,0,0,0,1.916-.21582,5.32876,5.32876,0,0,0,1.52051-.63184,4.5014,4.5014,0,0,0,1.15039-1.02832,5.47724,5.47724,0,0,0,.79589-1.40429,8.16427,8.16427,0,0,0,.46094-1.75782,13.79543,13.79543,0,0,0,.15039-2.10254,14.20771,14.20771,0,0,0-.14648-2.10546,8.35859,8.35859,0,0,0-.45508-1.77344,5.56694,5.56694,0,0,0-.78418-1.41016,4.39533,4.39533,0,0,0-1.14453-1.03125,5.31054,5.31054,0,0,0-1.5293-.63476,7.93069,7.93069,0,0,0-1.93457-.2168H7.36356v14.3125Z"/><path class="cls-1" d="M34.96045,24.4541a10.46665,10.46665,0,0,1-.99219.375,9.241,9.241,0,0,1-1.1416.2832A13.28272,13.28272,0,0,1,31.4751,25.29q-.73242.06006-1.62989.06055a9.04131,9.04131,0,0,1-2.26074-.26856,7.1,7.1,0,0,1-1.917-.793,6.34226,6.34226,0,0,1-1.54394-1.3125,7.42577,7.42577,0,0,1-1.13868-1.82812,10.44315,10.44315,0,0,1-.70507-2.335,15.54,15.54,0,0,1-.24024-2.832,14.64908,14.64908,0,0,1,.22559-2.63282,10.5917,10.5917,0,0,1,.668-2.27051,7.95,7.95,0,0,1,1.10156-1.85839A6.49252,6.49252,0,0,1,25.564,7.82715a7.05606,7.05606,0,0,1,1.94727-.87207,8.57779,8.57779,0,0,1,2.35254-.30567q.70752,0,1.39746.06739a12.98266,12.98266,0,0,1,1.31836.19531,9.507,9.507,0,0,1,1.1748.31445,6.0626,6.0626,0,0,1,.96778.418V9.68945a7.58273,7.58273,0,0,0-.98535-.39746,10.98378,10.98378,0,0,0-1.14161-.30176,12.55081,12.55081,0,0,0-1.25488-.19238,12.87311,12.87311,0,0,0-1.32422-.0664,6.464,6.464,0,0,0-1.7207.21582,4.65511,4.65511,0,0,0-1.40137.6416,4.53863,4.53863,0,0,0-1.08008,1.043,5.81554,5.81554,0,0,0-.76562,1.42578,8.83608,8.83608,0,0,0-.458,1.791,13.99111,13.99111,0,0,0-.15234,2.13282,12.85239,12.85239,0,0,0,.19238,2.332,8.41279,8.41279,0,0,0,.54883,1.8584,5.61641,5.61641,0,0,0,.86426,1.40722,4.79359,4.79359,0,0,0,1.13769.97949,4.865,4.865,0,0,0,1.37305.57325,6.37179,6.37179,0,0,0,1.56543.18652q.79395,0,1.47461-.06152c.45312-.04.87793-.09766,1.27246-.16993a9.99293,9.99293,0,0,0,1.10742-.26953q.51563-.15821.98633-.35351Z"/><rect class="cls-1" x="16" y="32.5" width="8" height="2.5"/></g></svg>