<svg xmlns="http://www.w3.org/2000/svg" viewBox="0 0 40 40"><defs><style>.cls-1,.cls-2{fill:#fff;}.cls-1{stroke:#fff;stroke-miterlimit:3.86369;stroke-width:0.24357px;}</style></defs><g id="E347_timerladen"><g id="V2"><path class="cls-1" d="M18.50167,1.00024a16.49976,16.49976,0,1,0,0,32.99952h3.26589V32.92842H18.50167a15.44252,15.44252,0,1,1,13.17868-7.41854l-.04519.07421H32.8654l.01379-.02474A16.47351,16.47351,0,0,0,18.50167,1.00024Z"/><circle class="cls-2" cx="18.5" cy="17.5" r="2.5"/><rect class="cls-2" x="17.75" y="5.16841" width="1.5" height="12.55078"/><rect class="cls-2" x="8.00394" y="16.75" width="10.21387" height="1.5"/><path class="cls-2" d="M31.49814,29.84406l.002.17282.00546.48312H31.5v6.65594H26.78671a3.65594,3.65594,0,0,1,0-7.31188h4.71143M33,28.34406h0Zm-.01865,0H26.78671a5.15594,5.15594,0,0,0,0,10.31188H33V37h4.3187a1.00122,1.00122,0,1,0,0-2H33V32h4.3187a1.00122,1.00122,0,1,0,0-2H33l-.01865-1.65594Z"/></g></g></svg>