<svg xmlns="http://www.w3.org/2000/svg" viewBox="0 0 40 40"><defs><style>.cls-1,.cls-2{fill:#fff;}.cls-1{fill-rule:evenodd;}</style></defs><g id="E3B1_sirius_xm"><g id="V2-2" data-name="V2"><path class="cls-1" d="M36.89,19.52661c0-.8056-.01811-1.13061-.5914-1.13061h-.00426c-.61273.00107-.60953.55358-.60953,1.21426V22.36H33.53607V19.52661c0-.80773-.08046-1.11729-.66174-1.13221l-.024-.00053c-.576,0-.55838.56477-.55838,1.21639V22.36H30.34139V16.698h1.74013v.951a1.89388,1.89388,0,0,1,1.55578-.97449,1.73645,1.73645,0,0,1,1.72361,1.00592,1.88366,1.88366,0,0,1,1.68152-1.00539H37.044c1.37516,0,1.82218.89137,1.82964,2.37522V22.36H36.89ZM30.00679,22.36H27.60493l-.77629-1.60693L26.03157,22.36H23.683l1.97242-2.907L23.77356,16.698h2.35871l.75924,1.50729.80133-1.50729h2.35977l-1.94525,2.745Zm-1.828-14.11282A14.79062,14.79062,0,0,0,11.47706,8.26a.9468.9468,0,0,1-1.07253-1.56058,16.68838,16.68838,0,0,1,18.84462-.01278.94619.94619,0,1,1-1.07039,1.56057ZM11.32841,17.9314a2.10061,2.10061,0,0,1,.22963.02558V19.5623l-.0325-.00586v.00586h0v-.00586a2.1262,2.1262,0,0,0-.33353-.04582c-.72461,0-1.15618.341-1.15618,1.30377v1.54192H8.36071v-4.264l1.61119-.033v.7358h.017A1.17907,1.17907,0,0,1,11.32841,17.9314Zm-5.011.16091H7.99254v4.29757H6.31742Zm0-1.576H7.99254v.84609H6.31742ZM5.71908,20.5645c0,1.14392-.94465,1.91968-2.95917,1.91968C1.50037,22.48418.11562,22.0963,0,20.61725H2.07792a.61.61,0,0,0,.2307.5035.88007.88007,0,0,0,.53547.16783c.33566,0,.69264-.105.69264-.49284,0-.88125-3.3689-.17849-3.3689-2.307,0-1.40553,1.45881-1.81525,2.6022-1.81525,1.19667,0,2.60273.27333,2.729,1.73107H3.51542a.57335.57335,0,0,0-.20993-.39907.69382.69382,0,0,0-.44062-.13586c-.37776,0-.61912.11561-.61912.38788C2.24575,19.02311,5.71908,18.509,5.71908,20.5645ZM26.8963,28.71582a.948.948,0,0,1-.18275,1.32667,11.4359,11.4359,0,0,1-13.77076.03676.94679.94679,0,1,1,1.137-1.51421,9.5407,9.5407,0,0,0,11.48931-.032A.94845.94845,0,0,1,26.8963,28.71582ZM24.58981,25.446a.9465.9465,0,0,1-.162,1.3304,7.34874,7.34874,0,0,1-4.56717,1.57123,7.42882,7.42882,0,0,1-4.64442-1.6341.93684.93684,0,1,1,1.154-1.47532,5.55086,5.55086,0,0,0,3.49037,1.21585,5.46474,5.46474,0,0,0,3.40087-1.17056A.94421.94421,0,0,1,24.58981,25.446ZM23.26154,14.71648a5.52338,5.52338,0,0,0-6.85874.04529.94685.94685,0,1,1-1.18655-1.47586,7.432,7.432,0,0,1,4.64442-1.6341,7.34926,7.34926,0,0,1,4.56717,1.57177.94723.94723,0,0,1-1.1663,1.4929ZM18.639,18.09231Zm0,0v4.29757h0L17.324,22.35631v-.65588a1.69453,1.69453,0,0,1-1.583.78375h-.04795c-.96064-.008-1.349-.60473-1.349-1.87386v-2.518h1.50676v2.21112c0,.61325.18008.80932.60579.80932.511,0,.706-.38361.706-1.07306V18.09231H18.639v0ZM19.8042,7.634a11.31642,11.31642,0,0,1,6.90935,2.32354.94712.94712,0,0,1-1.14445,1.50942,9.5386,9.5386,0,0,0-11.48931-.032.94678.94678,0,1,1-1.137-1.51421A11.33244,11.33244,0,0,1,19.8042,7.634ZM11.9683,22.32381V18.12374h1.64209v4.20007Zm0-5.60826h1.64209v.84609H11.9683Zm11.866,4.20966c0,.92334-.75764,1.58508-2.37469,1.592h-.05382c-1.016-.0048-2.12321-.358-2.217-1.54939h1.68791a.4948.4948,0,0,0,.18755.40866.71247.71247,0,0,0,.43476.13693c.2728,0,.56264-.08578.56264-.40067,0-.71555-2.73593-.14492-2.73593-1.87386,0-1.13646,1.17376-1.47106,2.10083-1.47425h.02878c.96863.00266,2.0987.228,2.20046,1.40552H22.04462a.4681.4681,0,0,0-.17049-.32394.56341.56341,0,0,0-.35805-.11029c-.30689,0-.503.09324-.503.31489C21.01312,19.67313,23.8343,19.25541,23.8343,20.92521ZM11.47706,31.74a14.78937,14.78937,0,0,0,16.7017.01226.94641.94641,0,0,1,1.07039,1.5611,16.68838,16.68838,0,0,1-18.84462-.01278A.9468.9468,0,0,1,11.47706,31.74Z"/><circle class="cls-2" cx="39.4" cy="16.5" r="0.6"/></g></g></svg>