<svg xmlns="http://www.w3.org/2000/svg" viewBox="0 0 40 40"><defs><style>.cls-1{fill:none;stroke:#fff;stroke-miterlimit:10;stroke-width:1.5px;fill-rule:evenodd;}.cls-2{fill:#fff;}</style></defs><g id="E420_radio_sat"><g id="V1-3" data-name="V1"><path class="cls-1" d="M.75,8.5h38.5v23H.75Z"/><path class="cls-2" d="M5.777,26.10161a3.96968,3.96968,0,0,0,.68078.28928,6.84565,6.84565,0,0,0,.83992.21439,9.25355,9.25355,0,0,0,.9668.13111q.5136.04354,1.0655.0436a7.48494,7.48494,0,0,0,1.40588-.12274,5.21391,5.21391,0,0,0,1.148-.34963,3.73661,3.73661,0,0,0,.89028-.54933,3.22044,3.22044,0,0,0,.63852-.72,3.052,3.052,0,0,0,.3806-.85732,3.79623,3.79623,0,0,0,.129-.96766,3.84282,3.84282,0,0,0-.1108-.96354,2.7313,2.7313,0,0,0-.32628-.76991,2.6186,2.6186,0,0,0-.53382-.61184,4.22909,4.22909,0,0,0-.72908-.489,6.94441,6.94441,0,0,0-.9164-.40376q-.50565-.183-1.0897-.35789-.47943-.14149-.8621-.27255a6.53513,6.53513,0,0,1-.68072-.27265,2.97263,2.97263,0,0,1-.5116-.30179,1.59353,1.59353,0,0,1-.35248-.35789,1.411,1.411,0,0,1-.2055-.43486,2.18331,2.18331,0,0,1,.0987-1.36729,1.68676,1.68676,0,0,1,.4935-.63675,2.35961,2.35961,0,0,1,.8258-.41,4.18948,4.18948,0,0,1,1.1702-.14567q.50757,0,.9588.0437a7.47463,7.47463,0,0,1,.856.13111,6.32515,6.32515,0,0,1,.7654.21438,5.0241,5.0241,0,0,1,.6828.29755V14.71042a4.31973,4.31973,0,0,0-.63452-.29548,5.21486,5.21486,0,0,0-.7472-.21438,7.64826,7.64826,0,0,0-.8722-.12894q-.46932-.04371-1.005-.04371a7.15685,7.15685,0,0,0-1.32132.11231,4.6903,4.6903,0,0,0-1.06548.32462,3.31141,3.31141,0,0,0-.81782.51617,2.8781,2.8781,0,0,0-.58.68871,3.038,3.038,0,0,0-.34448.83873,4.00719,4.00719,0,0,0-.11282.96973,3.52645,3.52645,0,0,0,.11282.96136,2.66421,2.66421,0,0,0,.33838.76165,2.71328,2.71328,0,0,0,.54382.60347,4.18185,4.18185,0,0,0,.73318.48073,7.31252,7.31252,0,0,0,.9084.39323q.4974.179,1.06552.34549.45912.13731.8379.27048a6.07494,6.07494,0,0,1,.6767.28092,2.98588,2.98588,0,0,1,.5136.31636,1.751,1.751,0,0,1,.3585.37245,1.4629,1.4629,0,0,1,.2115.44953,2.06037,2.06037,0,0,1,.0685.55347,1.86734,1.86734,0,0,1-.1974.85329,1.94469,1.94469,0,0,1-.578.67838,2.8422,2.8422,0,0,1-.9447.44736,4.79211,4.79211,0,0,1-1.30518.16025,9.043,9.043,0,0,1-.9889-.05414q-.4935-.05394-.9527-.14774-.45933-.09361-.8641-.21852a7.17751,7.17751,0,0,1-.715-.258Z"/><path class="cls-2" d="M26,27,21.4011,14.43H19.71728L15,27h1.7622l1.1032-3.6554h5.33748L24.3113,27Zm-3.2686-4.9726h-4.407l1.7393-4.7534q.12075-.35445.2536-.7392a7.45283,7.45283,0,0,0,.2255-.7956,6.92942,6.92942,0,0,0,.20558.7976q.1248.3867.2619.7372Z"/><path class="cls-2" d="M29.94768,26.96811V15.74067H26.06961V14.39811h9.38814v1.34256H31.57968V26.96811Z"/></g></g></svg>