<svg xmlns="http://www.w3.org/2000/svg" viewBox="0 0 40 40"><defs><style>.cls-1,.cls-3{fill:#fff;}.cls-2{fill:none;stroke:#fff;stroke-miterlimit:10;stroke-width:1.5px;}.cls-3{fill-rule:evenodd;}</style></defs><g id="E743_time_remaining"><path class="cls-1" d="M27,24.662s.86556-.2219,1.59059-.4851A2.25553,2.25553,0,0,1,30,24.11991v3.0339a6.39721,6.39721,0,0,0-.95567-.0341A6.79126,6.79126,0,0,0,27,27.68991Z"/><path class="cls-1" d="M33.0266,22.28351c-.8213-.3764-1.6702-.9238-2.0238-1.0379-.3891-.1255-1.0294-.2749-1.0294-.2749l.0016,3.1492a7.86129,7.86129,0,0,1,1.5226.3744,14.27334,14.27334,0,0,1,1.5137.8605C33.0227,25.34341,33.0266,22.28351,33.0266,22.28351Z"/><path class="cls-1" d="M32.9784,25.38791l.6619.2917a12.09851,12.09851,0,0,0,1.8139.6507l.575.0958.0005,2.9493-.4604-.1194a16.45235,16.45235,0,0,1-2.599-.9888v-.0171Z"/><path class="cls-1" d="M29.9734,27.15381a6.62863,6.62863,0,0,1,1.4285.3194c.4176.1709,1.3851.6501,1.6247.7756V31.431L31.5,30.625l-1.5266-.038Z"/><path class="cls-1" d="M36.03835,23.34431v3.0785a12.10206,12.10206,0,0,0,1.6703.1846c.5373.0052,1.253-.0492,1.253-.0492v-3.2016l-2.7814-.0123"/><path class="cls-1" d="M38.96508,32.68821c-.0105-.6782.0079-3.1777,0-3.1935a10.23268,10.23268,0,0,1-2.9322-.114l.0061,3.419.7264.1041A6.454,6.454,0,0,0,38.96508,32.68821Z"/><path class="cls-2" d="M39.3,32.735c-7.2879.6924-6.9061-3.8327-12.4932-1.5446v-9.8359c5.5871-2.2881,5.2053,2.6636,12.4932,1.9706Z"/><path class="cls-1" d="M23.5,21H25V40H23.5Z"/><path class="cls-3" d="M14.04383,13.16412C16.32,12.46987,18.23465,10.28434,18.23465,9H7.76535c0,1.28434,2.01463,3.62882,4.1952,4.16412C12.23033,13.23037,13,16.39018,13,16.39018A17.8888,17.8888,0,0,1,14.04383,13.16412Z"/><path class="cls-3" d="M11.78165,31.55024C8.58486,32.23647,6,33.73055,6,35H20c0-1.26945-2.60579-2.74582-5.78165-3.44976C13.90409,31.48055,13,22.45964,13,22.45964S12.0781,31.48659,11.78165,31.55024Z"/><path class="cls-1" d="M0,1H26V2.5H0Z"/><path class="cls-1" d="M0,37.5H20V39H0Z"/><path class="cls-1" d="M20,24.83844A20.67651,20.67651,0,0,0,18.06055,23.25a4.44157,4.44157,0,0,1-1.88477-3.30371,3.84807,3.84807,0,0,1,1.82715-3.23047,12.0011,12.0011,0,0,0,3.874-3.72754c2.56446-3.90039,2.94727-8.64746,2.94727-11.12988h-1.5c0,1.86328-.2627,6.59863-2.70117,10.30566a10.36021,10.36021,0,0,1-3.39356,3.2666,5.304,5.304,0,0,0-2.55371,4.51563,5.89116,5.89116,0,0,0,2.4961,4.51172A14.51142,14.51142,0,0,1,20,27.06915Z"/><path class="cls-1" d="M8.77051,15.43066a10.62153,10.62153,0,0,1-3.41016-3.32812C2.86914,8.18848,2.67578,3.27246,2.67578,1.8584h-1.5c0,1.51562.21094,6.79394,2.919,11.0498a12.14023,12.14023,0,0,0,3.90234,3.80762A3.94731,3.94731,0,0,1,9.794,20.01172,4.05162,4.05162,0,0,1,7.98828,23.2168a12.04616,12.04616,0,0,0-3.71777,3.64453A21.88512,21.88512,0,0,0,1.17578,38.09961h1.5A20.28972,20.28972,0,0,1,5.52832,27.67969a10.53438,10.53438,0,0,1,3.252-3.18946A5.5558,5.5558,0,0,0,11.294,20.00781,5.42472,5.42472,0,0,0,8.77051,15.43066Z"/></g></svg>