<svg xmlns="http://www.w3.org/2000/svg" viewBox="0 0 40 40"><defs><style>.cls-1{isolation:isolate;}.cls-2{fill:#fff;}</style></defs><g id="E784_radio_dab_source"><g class="cls-1"><path class="cls-2" d="M5.68739,36.72224v-11H9.28192a6.66583,6.66583,0,0,1,1.65281.18719,4.56763,4.56763,0,0,1,1.28546.53233,3.74787,3.74787,0,0,1,.95121.83645,4.42135,4.42135,0,0,1,.64578,1.10131,6.04856,6.04856,0,0,1,.3639,1.32427,9.56627,9.56627,0,0,1,.11432,1.50754,9.16064,9.16064,0,0,1-.11868,1.50536,6.0005,6.0005,0,0,1-.37263,1.3282,4.46427,4.46427,0,0,1-.65887,1.10654,3.80279,3.80279,0,0,1-.97041.84388,4.66467,4.66467,0,0,1-1.30725.53756,6.76692,6.76692,0,0,1-1.67553.18937ZM9.124,35.57293a4.88722,4.88722,0,0,0,1.179-.13177,3.29038,3.29038,0,0,0,.93376-.384,2.73926,2.73926,0,0,0,.70773-.62484,3.32063,3.32063,0,0,0,.48957-.85347,4.99688,4.99688,0,0,0,.28362-1.06814,8.30317,8.30317,0,0,0,.09163-1.27716,8.5152,8.5152,0,0,0-.08989-1.27933,5.01754,5.01754,0,0,0-.28013-1.07775,3.32745,3.32745,0,0,0-.48171-.85652,2.67407,2.67407,0,0,0-.70337-.627,3.28369,3.28369,0,0,0-.93987-.38572A4.94652,4.94652,0,0,0,9.124,26.87547H7.13166v8.69746Z"/><path class="cls-2" d="M23.93927,36.72224,22.90691,33.9297h-4.9716l-1.028,2.79254H15.42464l4.23681-11h1.56818l4.263,11Zm-3.07354-8.38156c-.08465-.21511-.16668-.44157-.24347-.67893a6.41417,6.41417,0,0,1-.192-.73392,6.92616,6.92616,0,0,1-.20944.73217q-.12436.35409-.2365.68068l-1.62142,4.376h4.105Z"/><path class="cls-2" d="M27.354,36.72224v-11h3.29782a6.51864,6.51864,0,0,1,1.68861.19461,3.36623,3.36623,0,0,1,1.2008.56767,2.309,2.309,0,0,1,.71733.91979,3.13772,3.13772,0,0,1,.23649,1.25141,2.99531,2.99531,0,0,1-.09948.79587,2.31984,2.31984,0,0,1-.28536.64883,2.2106,2.2106,0,0,1-.45641.51008,2.81809,2.81809,0,0,1-.61523.38223,3.45724,3.45724,0,0,1,.83863.4263,2.75283,2.75283,0,0,1,.62833.60432,2.56465,2.56465,0,0,1,.39444.76751,2.99006,2.99006,0,0,1,.13527.91282,3.51922,3.51922,0,0,1-.10123.86045,2.58144,2.58144,0,0,1-.31155.73566,2.42924,2.42924,0,0,1-.53494.59952,3.06978,3.06978,0,0,1-.7697.44681,4.75436,4.75436,0,0,1-1.01055.28013,7.63959,7.63959,0,0,1-1.2645.096Zm3.24895-6.134a4.288,4.288,0,0,0,1.10218-.12261,1.922,1.922,0,0,0,.74439-.363,1.411,1.411,0,0,0,.42237-.59559,2.29839,2.29839,0,0,0,.13264-.81377,1.75957,1.75957,0,0,0-.15533-.75311,1.461,1.461,0,0,0-.473-.56549,2.30164,2.30164,0,0,0-.80285-.3543,4.71617,4.71617,0,0,0-1.14233-.12218H28.7983v3.69009Zm.29322,4.962a4.89747,4.89747,0,0,0,1.19119-.12741,2.33377,2.33377,0,0,0,.8238-.36913,1.48318,1.48318,0,0,0,.47822-.59167,1.94194,1.94194,0,0,0,.15621-.79588,2.19026,2.19026,0,0,0-.14486-.81245,1.5305,1.5305,0,0,0-.4503-.61873,2.12261,2.12261,0,0,0-.78017-.39313,4.12139,4.12139,0,0,0-1.13534-.137H28.7983v3.84541Z"/></g><path class="cls-2" d="M13.87891,16.6543l-.1045.10547a8.71505,8.71505,0,0,0-1.582,2.15039l-.06933.13476,1.34082.66992.06836-.13183a7.17109,7.17109,0,0,1,1.31347-1.77783l.10742-.10743Z"/><path class="cls-2" d="M9.60059,12.49854l-.1045.106a14.73335,14.73335,0,0,0-2.63964,3.63916l-.06836.13477,1.34082.66992.06738-.13232a13.19306,13.19306,0,0,1,2.37207-3.26612l.10644-.10791Z"/><path class="cls-2" d="M5.31641,8.33691l-.1045.106a20.73078,20.73078,0,0,0-3.71875,5.12061l-.06836.13476,1.33985.67041.06836-.13232A19.19317,19.19317,0,0,1,6.2832,9.48828l.10645-.10742Z"/><path class="cls-2" d="M18.92383,14.2251l-.14844.02148a8.801,8.801,0,0,0-3.06348,1.04248l-.13183.07422.74121,1.29932.12988-.07276a7.34012,7.34012,0,0,1,2.53711-.86035l.14844-.02148Z"/><path class="cls-2" d="M18.08105,8.33105l-.14843.021a14.6602,14.6602,0,0,0-5.17578,1.75684l-.13086.07373.74121,1.30127.12988-.07325a13.18233,13.18233,0,0,1,4.64746-1.5747l.14942-.021Z"/><path class="cls-2" d="M17.23926,2.43994l-.14746.021A20.66123,20.66123,0,0,0,9.80469,4.93066l-.13184.07422.74121,1.30176L10.544,6.2334a19.19139,19.19139,0,0,1,6.75878-2.28858l.14942-.021Z"/><path class="cls-2" d="M27.80762,18.91016a8.7321,8.7321,0,0,0-1.53516-2.103l-.10351-.106-1.083,1.03467.10644.1084A7.23169,7.23169,0,0,1,26.46875,19.583l.06738.13135,1.34082-.66944Z"/><path class="cls-2" d="M24.34961,15.314a8.71442,8.71442,0,0,0-3.14551-1.07373l-.14844-.0205-.209,1.48437.14941.02a7.22759,7.22759,0,0,1,2.60352.88672l.12891.07324.75293-1.29541Z"/><path class="cls-2" d="M33.14355,16.24365a14.72342,14.72342,0,0,0-2.57421-3.54638l-.10352-.10694-1.08105,1.03418.10546.1084A13.219,13.219,0,0,1,31.80371,16.916l.06836.13232,1.33984-.66992Z"/><path class="cls-2" d="M27.33594,10.16992a14.6084,14.6084,0,0,0-5.30371-1.82471l-.14844-.0205-.209,1.48437.14942.02051a13.15306,13.15306,0,0,1,4.76269,1.63574l.12891.07471.751-1.29541Z"/><path class="cls-2" d="M30.333,5.0083a20.60114,20.60114,0,0,0-7.47266-2.55713l-.14844-.02051-.209,1.48438.14941.02051A19.13515,19.13515,0,0,1,29.583,6.30518l.1289.07373.752-1.2959Z"/><path class="cls-2" d="M38.50684,13.56348a20.67833,20.67833,0,0,0-3.60059-5.01465l-.10352-.10645-1.083,1.03516.10547.1084A19.16105,19.16105,0,0,1,37.167,14.23633l.06836.13232,1.33985-.67041Z"/></g></svg>