<svg xmlns="http://www.w3.org/2000/svg" viewBox="0 0 40 40"><defs><style>.cls-1{fill:#0398b9;stroke:#fff;stroke-linecap:round;stroke-miterlimit:10;stroke-width:1.5px;fill-rule:evenodd;opacity:0.98;}.cls-2{fill:#fff;}</style></defs><g id="E93A_013_navigation_map_preview_pin"><g id="Pin"><path class="cls-1" d="M20,36.55872,16.09094,24.6709a11.375,11.375,0,1,1,7.81812,0Z"/><path d="M20,1.375a12.61784,12.61784,0,0,0-4.91357,24.24268l4.43847,13.498a.5002.5002,0,0,0,.9502,0l4.43847-13.498A12.61784,12.61784,0,0,0,20,1.375Zm4.51025,23.86816L20,38.95947,15.48975,25.24316a12.125,12.125,0,1,1,9.0205,0Z"/></g><g id="_13" data-name="13"><path class="cls-2" d="M15.21914,19.24294V9.211l-2.88062.48853V8.50344l3.449-.66577h.88111V19.24294Z"/><path class="cls-2" d="M19.56606,17.55837c.1897.08277.40137.16187.63647.23877a7.54183,7.54183,0,0,0,.75147.20215q.3999.0857.83789.13843a7.62965,7.62965,0,0,0,.89209.052,3.69076,3.69076,0,0,0,1.11548-.15234,2.21431,2.21431,0,0,0,.79175-.42481,1.73032,1.73032,0,0,0,.47314-.64819,2.098,2.098,0,0,0,.1582-.82471,2.26975,2.26975,0,0,0-.17358-.90161,1.82947,1.82947,0,0,0-.51929-.6958A2.42243,2.42243,0,0,0,23.661,14.094a4.28016,4.28016,0,0,0-1.22681-.15747H21.41176V12.72146h1.02246a3.65971,3.65971,0,0,0,1.02906-.13037,1.98758,1.98758,0,0,0,.74414-.38892,1.62018,1.62018,0,0,0,.45117-.63647,2.3222,2.3222,0,0,0,.15234-.87451,1.95916,1.95916,0,0,0-.06958-.53614,1.56924,1.56924,0,0,0-.2-.44238,1.47559,1.47559,0,0,0-.3208-.3479,1.80223,1.80223,0,0,0-.43066-.24975,2.53106,2.53106,0,0,0-.531-.15235,3.54309,3.54309,0,0,0-.62036-.052,6.16027,6.16027,0,0,0-.82544.0542,6.61076,6.61076,0,0,0-.75366.14429,5.52584,5.52584,0,0,0-.65552.20727,4.452,4.452,0,0,0-.52295.24024V8.28a3.66,3.66,0,0,1,.33838-.16552c.126-.05347.26147-.104.408-.15161.14575-.04761.30029-.09009.46289-.12891q.245-.05714.50757-.09815.26367-.03954.54052-.063c.18457-.01538.37134-.02344.56177-.02344a5.83,5.83,0,0,1,1.56079.18823,3.07536,3.07536,0,0,1,1.12867.56177,2.336,2.336,0,0,1,.68627.93091,3.36783,3.36783,0,0,1,.23072,1.29565,3.117,3.117,0,0,1-.10181.80347,2.71463,2.71463,0,0,1-.30176.71484,2.76358,2.76358,0,0,1-.498.60571,3.08042,3.08042,0,0,1-.68628.47535,3.37382,3.37382,0,0,1,.88769.49218,2.86128,2.86128,0,0,1,.62549.6709,2.80181,2.80181,0,0,1,.36694.81885,3.59805,3.59805,0,0,1,.11939.93237,3.70555,3.70555,0,0,1-.1062.90015,2.97037,2.97037,0,0,1-.3208.794,2.76523,2.76523,0,0,1-.54419.66137,3.20737,3.20737,0,0,1-.77051.50391,4.3473,4.3473,0,0,1-1.002.3208,6.39079,6.39079,0,0,1-1.24.11133q-.51526,0-.97339-.04029a7.76773,7.76773,0,0,1-.85327-.12085,5.66712,5.66712,0,0,1-.73243-.19848,3.70887,3.70887,0,0,1-.60937-.271Z"/></g></g></svg>