<svg xmlns="http://www.w3.org/2000/svg" viewBox="0 0 40 40"><defs><style>.cls-1{fill:#0398b9;stroke:#fff;stroke-linecap:round;stroke-miterlimit:10;stroke-width:1.5px;fill-rule:evenodd;opacity:0.98;}.cls-2{fill:#fff;}</style></defs><g id="E93A_003_navigation_map_preview_pin"><g id="Pin"><path class="cls-1" d="M20,36.55872,16.09094,24.6709a11.375,11.375,0,1,1,7.81812,0Z"/><path d="M20,1.375a12.61784,12.61784,0,0,0-4.91357,24.24268l4.43847,13.498a.5002.5002,0,0,0,.9502,0l4.43847-13.498A12.61784,12.61784,0,0,0,20,1.375Zm4.51025,23.86816L20,38.95947,15.48975,25.24316a12.125,12.125,0,1,1,9.0205,0Z"/></g><path id="_3" data-name="3" class="cls-2" d="M16.71987,17.55837c.18969.08277.40136.16187.63647.23877a7.54183,7.54183,0,0,0,.75147.20215q.3999.0857.83789.13843a7.62965,7.62965,0,0,0,.89209.052,3.69085,3.69085,0,0,0,1.11548-.15234,2.21417,2.21417,0,0,0,.79174-.42481,1.73024,1.73024,0,0,0,.47315-.64819,2.098,2.098,0,0,0,.1582-.82471,2.26975,2.26975,0,0,0-.17358-.90161,1.82947,1.82947,0,0,0-.51929-.6958,2.42243,2.42243,0,0,0-.86865-.44824,4.28021,4.28021,0,0,0-1.22681-.15747H18.56557V12.72146H19.588a3.65959,3.65959,0,0,0,1.02905-.13037,1.98755,1.98755,0,0,0,.74415-.38892,1.62028,1.62028,0,0,0,.45117-.63647,2.3222,2.3222,0,0,0,.15234-.87451,1.95916,1.95916,0,0,0-.06958-.53614,1.56924,1.56924,0,0,0-.2-.44238,1.47559,1.47559,0,0,0-.3208-.3479,1.8023,1.8023,0,0,0-.43067-.24975,2.531,2.531,0,0,0-.531-.15235,3.54317,3.54317,0,0,0-.62036-.052,6.16027,6.16027,0,0,0-.82544.0542,6.61076,6.61076,0,0,0-.75366.14429,5.52584,5.52584,0,0,0-.65552.20727,4.452,4.452,0,0,0-.52295.24024V8.28a3.65876,3.65876,0,0,1,.33838-.16552c.126-.05347.26147-.104.408-.15161.14575-.04761.30029-.09009.46289-.12891q.245-.05714.50757-.09815.26367-.03954.54052-.063c.18457-.01538.37134-.02344.56177-.02344a5.83,5.83,0,0,1,1.56079.18823,3.07531,3.07531,0,0,1,1.12866.56177,2.336,2.336,0,0,1,.68628.93091,3.36783,3.36783,0,0,1,.23072,1.29565,3.11739,3.11739,0,0,1-.10181.80347,2.715,2.715,0,0,1-.30176.71484,2.76335,2.76335,0,0,1-.498.60571,3.08013,3.08013,0,0,1-.68627.47535,3.37382,3.37382,0,0,1,.88769.49218,2.86128,2.86128,0,0,1,.62549.6709,2.80208,2.80208,0,0,1,.36694.81885,3.59848,3.59848,0,0,1,.11939.93237,3.70555,3.70555,0,0,1-.1062.90015,2.97037,2.97037,0,0,1-.3208.794,2.76523,2.76523,0,0,1-.54419.66137,3.20737,3.20737,0,0,1-.77051.50391,4.34723,4.34723,0,0,1-1.002.3208,6.39071,6.39071,0,0,1-1.24.11133q-.51525,0-.97338-.04029a7.76826,7.76826,0,0,1-.85328-.12085,5.667,5.667,0,0,1-.73242-.19848,3.70887,3.70887,0,0,1-.60937-.271Z"/></g></svg>