<svg xmlns="http://www.w3.org/2000/svg" viewBox="0 0 40 40"><defs><style>.cls-1{fill:#0398b9;stroke:#fff;stroke-linecap:round;stroke-miterlimit:10;stroke-width:1.5px;fill-rule:evenodd;opacity:0.98;}.cls-2{fill:#fff;}</style></defs><g id="E93A_019_navigation_map_preview_pin"><g id="Pin"><path class="cls-1" d="M20,36.55872,16.09094,24.6709a11.375,11.375,0,1,1,7.81812,0Z"/><path d="M20,1.375a12.61784,12.61784,0,0,0-4.91357,24.24268l4.43847,13.498a.5002.5002,0,0,0,.9502,0l4.43847-13.498A12.61784,12.61784,0,0,0,20,1.375Zm4.51025,23.86816L20,38.95947,15.48975,25.24316a12.125,12.125,0,1,1,9.0205,0Z"/></g><g id="_19" data-name="19"><path class="cls-2" d="M15.21914,19.24294V9.211l-2.88062.48853V8.50344l3.449-.66577h.88111V19.24294Z"/><path class="cls-2" d="M19.81948,17.79348c.16406.0564.33178.1084.50171.15528q.256.0714.53686.12524.28016.05383.59546.085.31531.03076.68115.03076a3.86324,3.86324,0,0,0,1.51905-.27539,2.74862,2.74862,0,0,0,1.084-.821,3.93237,3.93237,0,0,0,.68042-1.363,8.50524,8.50524,0,0,0,.30762-1.905,3.83115,3.83115,0,0,1-1.207.7478,4.088,4.088,0,0,1-.71924.20362,4.20658,4.20658,0,0,1-.78443.071,4.64451,4.64451,0,0,1-1.64941-.2688,3.29186,3.29186,0,0,1-1.188-.7478,3.08046,3.08046,0,0,1-.71777-1.14258,4.39476,4.39476,0,0,1-.13843-2.37378,3.47718,3.47718,0,0,1,.312-.85034A3.20874,3.20874,0,0,1,20.16,8.732a3.13921,3.13921,0,0,1,.74781-.57276,3.92485,3.92485,0,0,1,.97631-.375,5.0862,5.0862,0,0,1,1.21143-.13476,4.21136,4.21136,0,0,1,1.75562.3501A3.42321,3.42321,0,0,1,26.15273,9.03a4.77038,4.77038,0,0,1,.80713,1.68457,8.69863,8.69863,0,0,1,.27685,2.30713,11.0034,11.0034,0,0,1-.30908,2.74878,5.51723,5.51723,0,0,1-.936,2.009,3.984,3.984,0,0,1-1.57911,1.23266,5.50515,5.50515,0,0,1-2.23168.419q-.4076,0-.74634-.02857-.33838-.02856-.62476-.0791a5.27173,5.27173,0,0,1-.52881-.11865q-.24169-.07032-.46142-.15015Zm5.95239-5.072a8.53783,8.53783,0,0,0-.11865-1.25391,5.29886,5.29886,0,0,0-.26953-.988,3.04074,3.04074,0,0,0-.40577-.73975,2.27919,2.27919,0,0,0-.52661-.50757,2.055,2.055,0,0,0-.63281-.29077,2.7616,2.7616,0,0,0-.7229-.09228,2.84967,2.84967,0,0,0-1.0459.17724A1.97975,1.97975,0,0,0,20.85,10.2781a2.9779,2.9779,0,0,0-.14941.96314,3.0726,3.0726,0,0,0,.148.98071,1.96025,1.96025,0,0,0,.45117.75513,2.04919,2.04919,0,0,0,.76392.48632,3.04512,3.04512,0,0,0,1.07812.17359,4.336,4.336,0,0,0,.698-.0564,3.94928,3.94928,0,0,0,.67529-.17065,4.36523,4.36523,0,0,0,1.25684-.68848Z"/></g></g></svg>