<?xml version="1.0" encoding="UTF-8"?>
<svg id="Ebene_1" data-name="Ebene 1" xmlns="http://www.w3.org/2000/svg" viewBox="0 0 44 44">
  <defs>
    <style>
      .cls-1 {
        fill: #ffeb00;
      }

      .cls-2 {
        fill: #010101;
      }
    </style>
  </defs>
  <path class="cls-2" d="M41.4,23.40024c.78556-.79151,.78556-2.06849,0-2.86L23.4,2.54024c-.79151-.78556-2.06849-.78556-2.86,0L2.54,20.54024c-.78556,.79151-.78556,2.06849,0,2.86l18,18c.79151,.78556,2.06849,.78556,2.86,0l18-18Z"/>
  <g>
    <path class="cls-1" d="M22.02979,41.15698c-.31348,0-.6084-.12207-.83008-.34375L3.19824,22.81177c-.4585-.45801-.45898-1.20312-.00146-1.66162L21.19824,3.14868c.22217-.22266,.51758-.34473,.83154-.34473,.31348,0,.6084,.12158,.83008,.34326l18.00146,18.00146c.22266,.22168,.34473,.5166,.3457,.83057,0,.31396-.12207,.60889-.34473,.83105l-18.00049,18.00098c-.22217,.22266-.51758,.3457-.83203,.3457Z"/>
    <path d="M22.03014,2.92872h0c.28004,.00002,.54349,.10901,.74309,.3083l18.00015,18.00014c.19848,.19816,.30792,.46174,.30815,.74221,.00024,.28046-.10876,.54423-.3083,.74409l-18.00014,18.00015c-.19839,.19871-.46229,.30815-.74309,.30815-.28014,0-.5436-.109-.74321-.3083L3.28663,22.72332c-.40973-.40906-.41028-1.07519,.00015-1.4863L21.28692,3.23687c.19837-.1987,.46232-.30813,.74322-.30815m-.00013-.25c-.33302,.00003-.66613,.12723-.92001,.38153L3.11,21.06024c-.00051,.00051-.00102,.00101-.00152,.00152-.50726,.5081-.50658,1.33122,.00152,1.83848l18,18c.00051,.00051,.00101,.00101,.00152,.00152,.2538,.25339,.58609,.38,.91847,.38,.33302,0,.66613-.12723,.92001-.38152l18-18c.00051-.00051,.00101-.00102,.00152-.00153,.50727-.5081,.50658-1.33121-.00152-1.83847L22.95,3.06025c-.00051-.00051-.00101-.00102-.00152-.00152-.2538-.25339-.58609-.38003-.91847-.38h0Z"/>
  </g>
  <path d="M21.4,19.10024c2.74297,1.2819,4.67202,3.84024,5.15,6.83,.22252,2.41986,.29533,4.85116,.218,7.28h-3.49c.0474-1.48,.0246-3.7,.011-5.18,.12848-1.96315-.75389-3.85609-2.34-5.02-.577-.392-1.18-.748-1.79-1.09-1.15-.648-2.37-1.28-3.54-1.94-.31,.702-.558,1.26-.907,2.06-.822-2.01-1.55-3.8-2.32-5.69l.0167-.00358-.00638-.0158c2-.422,3.89-.82,6.02-1.27-.458,.732-.785,1.25-1.19,1.9l4.16768,2.13939Z"/>
</svg>