<?xml version="1.0" encoding="UTF-8"?>
<svg id="Ebene_1" data-name="Ebene 1" xmlns="http://www.w3.org/2000/svg" viewBox="0 0 44 44">
  <defs>
    <style>
      .cls-1 {
        fill: #ffeb00;
      }

      .cls-2 {
        fill: #010101;
      }
    </style>
  </defs>
  <path class="cls-2" d="M41.4,23.40024c.78556-.79151,.78556-2.06849,0-2.86L23.4,2.54024c-.79151-.78556-2.06849-.78556-2.86,0L2.54,20.54024c-.78556,.79151-.78556,2.06849,0,2.86l18,18c.79151,.78556,2.06849,.78556,2.86,0l18-18Z"/>
  <g>
    <path class="cls-1" d="M22.02979,41.15698c-.31348,0-.6084-.12207-.83008-.34375L3.19824,22.81177c-.4585-.45801-.45898-1.20312-.00146-1.66162L21.19824,3.14868c.22217-.22266,.51758-.34473,.83154-.34473,.31348,0,.6084,.12158,.83008,.34326l18.00146,18.00146c.22266,.22168,.34473,.5166,.3457,.83057,0,.31396-.12207,.60889-.34473,.83105l-18.00049,18.00098c-.22217,.22266-.51758,.3457-.83203,.3457Z"/>
    <path d="M22.03014,2.92872h0c.28004,.00002,.54349,.10901,.74309,.3083l18.00015,18.00014c.19848,.19816,.30792,.46174,.30815,.74221,.00024,.28046-.10876,.54423-.3083,.74409l-18.00014,18.00015c-.19839,.19871-.46229,.30815-.74309,.30815-.28014,0-.5436-.109-.74321-.3083L3.28663,22.72332c-.40973-.40906-.41028-1.07519,.00015-1.4863L21.28692,3.23687c.19837-.1987,.46232-.30813,.74322-.30815m-.00013-.25c-.33302,.00003-.66613,.12723-.92001,.38153L3.11,21.06024c-.00051,.00051-.00102,.00101-.00152,.00152-.50726,.5081-.50658,1.33122,.00152,1.83848l18,18c.00051,.00051,.00101,.00101,.00152,.00152,.2538,.25339,.58609,.38,.91847,.38,.33302,0,.66613-.12723,.92001-.38152l18-18c.00051-.00051,.00101-.00102,.00152-.00153,.50727-.5081,.50658-1.33121-.00152-1.83847L22.95,3.06025c-.00051-.00051-.00101-.00102-.00152-.00152-.2538-.25339-.58609-.38003-.91847-.38h0Z"/>
  </g>
  <path d="M29.9,17.00024l2.12,.374-3.91-5.4-3.63,5.39,1.8-.322v4.79c-.246-.101-.466-.182-.677-.28-2.99333-1.39333-5.98333-2.78667-8.97-4.18-.202-.0943-.407-.183-.613-.27-1.25-.532-2.12,.0166-2.13,1.39-.0238,1.74-.00935,3.48-.0099,5.21-.00077,2.46-.00081,4.91667-.00014,7.37v1.02c1.11,0,3.53-.0322,3.53-.0322,0,0-.00068-6.55-.00062-9.48v-.943c.404,.182,.73,.325,1.05,.475,3.04,1.41333,6.07667,2.82667,9.11,4.24,1.44,.664,2.32,.0892,2.33-1.51,.00928-2.31,.00257-4.62,.00267-6.93,.00004-.267,.00003-.535,.00003-.916l-.00204,.0042Z"/>
</svg>