<svg xmlns="http://www.w3.org/2000/svg" viewBox="0 0 40 40"><g id="EA45_flag_lebanon"><rect y="7" width="40" height="26" fill="#ed1c24" /><rect y="13.5" width="40" height="13" fill="#fff" /><path d="M19.83222,13.68532a3.98841,3.98841,0,0,1-1.26949,1.3473c-.08027.07011-.27984.20588-.13506.30921.124-.13863.46448.045.26662.194a4.91487,4.91487,0,0,1-.61806.36353,1.91907,1.91907,0,0,0-.48926.3385c-.00941.22643.28094.10109.39877.19542.15344.164-.06506.44058-.26643.37733a.66745.66745,0,0,0-.53267.45058c-.20141.31145-.58306.40368-.8869.58091a5.865,5.865,0,0,0-.50439.33174.20429.20429,0,0,0,.1949.3558c.23966-.02389.45529-.21219.70342-.15793a.4482.4482,0,0,1,.21149.57847,1.35689,1.35689,0,0,1-.30471.40861,1.34167,1.34167,0,0,1-.66.35526,1.31024,1.31024,0,0,0-.60954.4236,4.90234,4.90234,0,0,1-.57135.52117c-.06595.16828.12017.31162.27534.30715.327-.02058.55354-.28818.832-.42568a.34283.34283,0,0,1,.44649.38592c-.01788.2342-.23715.353-.43212.4251a5.64519,5.64519,0,0,0-1.5126,1.16692c-.09139.1864-.34262.13153-.4779.26147-.08813.16445.13305.25116.265.23425a4.69085,4.69085,0,0,0,1.59738-.57156c.1864-.08912.36144-.2064.55523-.27743.182-.045.43586.03416.46843.24133-.00026.2187-.21692.33984-.38851.42528a10.53455,10.53455,0,0,1-1.67544.61549c-.21173-.0592-.37124.3175-.139.38523a2.02735,2.02735,0,0,0,.75795.00566,11.26719,11.26719,0,0,0,2.18242-.81111.68978.68978,0,0,1,.80723.3218.80225.80225,0,0,1-.0219.8287,3.03025,3.03025,0,0,1-1.13818,1.33148,4.02129,4.02129,0,0,0-.96679.46112c-.25339.08352.127.42592.182.15417a.83108.83108,0,0,1,.6644-.27832,1.80816,1.80816,0,0,0,1.03932-.36081c.255-.198.50633-.47123.85261-.47549.19138.02269.38066.17647.575.08264.17-.07783.43681-.03222.48122.17687.0812.2446.33331.35589.53325.48678.07236.10162.31283.36372.36829.13264-.04475-.16481.01919-.417.23538-.36193.18885.00844.36881.07807.55729.08949a1.00171,1.00171,0,0,1,.60289.4313c.098.1354.31282.36805.47239.18851.099-.18569-.09-.34055-.24387-.40685a4.54032,4.54032,0,0,1-.61243-.49957,1.706,1.706,0,0,1-.58481-1.017,4.30336,4.30336,0,0,1,.023-1.21372.43985.43985,0,0,1,.62727-.26205,2.201,2.201,0,0,0,1.0202.33742,6.0608,6.0608,0,0,1,1.61758.06452c.51194.16126.87795.59328,1.37664.78023a.20531.20531,0,0,0,.29536-.116.24119.24119,0,0,0-.08869-.3053,12.59906,12.59906,0,0,0-2.03652-1.32266.27517.27517,0,0,1-.05424-.49.707.707,0,0,1,.84493.09234,1.27328,1.27328,0,0,0,.63261.19663c.23039-.07213.11869-.40551-.08759-.43058a6.72658,6.72658,0,0,1-.96529-.83181,1.27276,1.27276,0,0,0-.64106-.34832,1.6913,1.6913,0,0,0-.41583-.02108c-.13014-.14143.04331-.358.21158-.34028a2.50346,2.50346,0,0,0,.51682.00043c.19273-.01412.38528-.03407.57869-.03539.15612.10632.46809-.07734.32719-.26064-.15392-.13488-.3765-.12316-.56043-.19238a8.643,8.643,0,0,0-.98491-.25889c-.23294-.01389-.20421-.32045.00052-.35426.134-.05.25045.053.37906.06891.21966.04721.44645.0466.666.09446.18615-.0919.04225-.36386-.12615-.37971a4.27355,4.27355,0,0,1-1.07636-.64794c-.37062-.27873-.70685-.60105-1.082-.87334-.13612-.08435-.35923-.10864-.395-.29558-.01263-.172.1898-.2503.3333-.2101.20359.06013.3933.16483.60081.21623a1.70806,1.70806,0,0,0,.48757.05532c.19918-.12515-.08543-.20514-.18845-.24856a5.78837,5.78837,0,0,1-.74055-.516c-.202-.1724.17131-.24856.29971-.18218.21468.08981.23915-.223.07867-.30174a3.20865,3.20865,0,0,1-.52313-.33026,2.33,2.33,0,0,0-1.04147-.44357,1.4184,1.4184,0,0,1-1.052-.65355A4.08339,4.08339,0,0,1,19.83222,13.68532Zm-1.40215,2.39529c.22005.00652.18622.40311-.03043.37665C18.18925,16.44372,18.20213,16.038,18.43007,16.08061Zm2.07565.21357c.21413-.03831.25948.35244.04554.37079C20.32836,16.70487,20.24575,16.26945,20.50572,16.29418Zm-.60794.05093c.21708.0427.17846.42087-.04062.42417-.16028.0357-.333.14509-.4952.0631-.13187-.13947.05873-.34571.20593-.391C19.6808,16.41858,19.78468,16.36731,19.89778,16.34511Zm1.39917.00164a.23569.23569,0,0,1-.08525.4409.21755.21755,0,0,1-.11125-.4027A.525.525,0,0,1,21.297,16.34675Zm-2.36026.41893a.31438.31438,0,0,1-.1267.49643c-.13672.076-.32311.25594-.472.10793-.0808-.1808.122-.31694.2413-.41729A.91465.91465,0,0,1,18.93669,16.76568Zm1.75678.8165a.2599.2599,0,0,1-.13328.47622.22134.22134,0,0,1,.02736-.41795A.53463.53463,0,0,0,20.69347,17.58218Zm-.69884.03943c.206.09643.04871.44017-.15876.39064-.21511-.02526-.21114-.40345.02609-.36931A.37873.37873,0,0,0,19.99463,17.62161Zm1.50646.19714a.34418.34418,0,0,1,.42429.3984.42652.42652,0,0,1-.52763.13766c-.20465-.0101-.3423-.31777-.16-.44805A.5009.5009,0,0,1,21.50109,17.81875Zm-3.33476.05914c.18666-.10155.38486.20368.22611.33831a.31271.31271,0,0,1-.49424.04584C17.79929,18.09412,17.95922,17.812,18.16633,17.87789Zm-.86126.14457a.60543.60543,0,0,1,.428.40444.26929.26929,0,0,1-.45386.18325.43108.43108,0,0,1-.21826-.50318A.228.228,0,0,1,17.30507,18.02246Zm5.15264.80665a.25351.25351,0,0,1,.19932.43956c-.18042.16388-.53123-.05323-.43714-.28705A.3022.3022,0,0,1,22.45771,18.82911Zm-2.925.41893c.1927.02454.13027.35851-.04791.3473C19.29358,19.55989,19.33736,19.2292,19.53271,19.248Zm-.97748.17742c.15717-.1112.35987.16022.22914.2867C18.62767,19.82252,18.42442,19.5554,18.55523,19.42546Zm1.55414.03286a.70166.70166,0,0,1,.313.52536.255.255,0,0,1-.46249-.05954A.386.386,0,0,1,20.10937,19.45832Zm.54238.322c.23476-.059.15052.43173-.0455.26153A.19172.19172,0,0,1,20.65175,19.78032Zm-3.40628.34172c.15545-.04554.382.00232.425.18073.01812.16768-.16626.25491-.30137.29646a1.8741,1.8741,0,0,1-.6612.16178.81052.81052,0,0,1-.29943-.482c.16845-.15794.4165-.11161.62532-.15114C17.10426,20.12429,17.17487,20.12257,17.24547,20.122Zm5.28376.76885c.1983-.09722.41155.21754.24556.36456a.64065.64065,0,0,1-.85575.08263c-.02985-.21152.18143-.36514.36911-.3955A.76574.76574,0,0,1,22.52923,20.89089Zm1.11457.2415a.28026.28026,0,0,1,.24188.449.50066.50066,0,0,1-.72305.10161.36676.36676,0,0,1,.258-.44977C23.49579,21.20126,23.56691,21.16028,23.6438,21.13239Zm-5.60413.34172a.35946.35946,0,0,1,.37243.39214c.151.14865-.11643.42557-.26692.27164a1.39361,1.39361,0,0,1-.18328-.571C17.9596,21.5242,17.99122,21.46887,18.03967,21.47411Zm1.60182.11993c.21571-.09326.49479.1648.37735.38328-.08387.17794-.411.1183-.40009-.08782A.92232.92232,0,0,1,19.64149,21.594Zm-.7793.13964a.28893.28893,0,0,1,.29455.4179C18.94109,22.17075,18.82914,21.91482,18.86219,21.73368Z" fill="#00a651" /></g></svg>