<?xml version="1.0" encoding="UTF-8"?>
<svg id="Ebene_1" data-name="Ebene 1" xmlns="http://www.w3.org/2000/svg" viewBox="0 0 44 44">
  <defs>
    <style>
      .cls-1 {
        fill: #00f300;
      }
    </style>
  </defs>
  <path class="cls-1" d="M2.26425,37.70976c-.6308,1.12681-.03222,2.08512,1.42168,2.08512H40.43888c1.25318,0,1.99035-.89513,1.3269-2.02194L23.23133,5.86423c-.24777-.68967-1.00771-1.0479-1.69738-.80014-.3613,.1298-.64868,.40972-.78792,.76749L2.31691,37.7403"/>
  <path d="M22.10452,11.06651L7.36122,36.23543h29.27599L22.10453,11.06651"/>
  <path class="cls-1" d="M27.26468,22.2293c.33172,.39807,.49706,1.12681-.23063,1.39008h-1.06362v3.05397c0,5.46555-4.24397,5.89732-6.49758,3.54892-1.02887-1.02887-1.52699-1.45327-1.52699,.79508v4.07547h-3.22246v-5.1075c0-5.00219,3.18034-5.43396,5.92891-2.68539,2.59061,2.59061,2.19043-1.02782,2.19043-3.67529h-1.18999c-.62554-.16639-.69504-.72874-.46441-1.2953l2.55902-4.50724c.3591-.3591,.60342-.35805,.96147,0l2.54849,4.41246"/>
</svg>