<?xml version="1.0" encoding="UTF-8"?>
<svg id="Ebene_1" data-name="Ebene 1" xmlns="http://www.w3.org/2000/svg" viewBox="0 0 44 44">
  <defs>
    <style>
      .cls-1 {
        fill: #00f300;
      }
    </style>
  </defs>
  <path class="cls-1" d="M41.69194,37.73944L23.26385,5.83252c-.26578-.68289-1.03483-1.02101-1.71771-.75523-.35775,.13924-.63766,.4266-.76745,.78788L2.2453,37.77208c-.66236,1.12675,.06908,2.02182,1.32682,2.02182H40.323c1.46372,0,2.05342-.96142,1.42159-2.08501"/>
  <path d="M21.89491,11.09769L7.36304,36.26519h29.27433L21.8949,11.09769"/>
  <path class="cls-1" d="M16.73504,22.25984l2.54834-4.41221c.35803-.35803,.60234-.35908,.96142,0l2.55887,4.50698c.23061,.56337,.16111,1.12675-.46439,1.29523h-1.18993c0,2.65365-.40015,6.26555,2.19031,3.67509,2.74842-2.74842,5.92858-2.31667,5.92858,2.68524v5.10721h-3.22228v-4.07524c0-2.25349-.49387-1.82175-1.5269-.79504-2.25349,2.34826-6.49722,1.92705-6.49722-3.54872v-3.0538h-1.06356c-.72765-.26537-.56127-.99406-.23061-1.39"/>
</svg>