<svg xmlns="http://www.w3.org/2000/svg" viewBox="0 0 44 44"><defs><linearGradient id="Fl&#228;che" x1="2" y1="29.62326" x2="42" y2="29.62326" gradientUnits="userSpaceOnUse"><stop offset="0" stop-color="#666" stop-opacity="0.15" /></linearGradient><linearGradient id="Kontur" x1="2" y1="19.86022" x2="42" y2="19.86022" gradientUnits="userSpaceOnUse"><stop offset="0" stop-color="#666" /><stop offset="0.00559" stop-color="#666" /></linearGradient></defs><g id="Slope"><rect id="Hintergrund" x="2" y="2" width="40" height="40" rx="5" opacity="0.35" /><path d="M2,37a4.99961,4.99961,0,0,0,4.99274,4.99927H37.00726A4.99961,4.99961,0,0,0,42,37V33.34113L2,17.24725Z" fill="url(#Fl&#228;che)" /><path id="Kontur-2" data-name="Kontur" d="M22.95489,12.36271a2.80093,2.80093,0,0,0,.71942-.2974,2.44032,2.44032,0,0,0,.57073-.46758,2.8014,2.8014,0,0,0,.41814-.61258,3.02544,3.02544,0,0,0,.25573-.73128,4.08628,4.08628,0,0,0-.09722-2.03736,2.69119,2.69119,0,0,0-.545-.96923,2.483,2.483,0,0,0-.90961-.63814,3.27859,3.27859,0,0,0-1.27645-.22981,3.13792,3.13792,0,0,0-1.23275.22981,2.58612,2.58612,0,0,0-.91554.63814,2.755,2.755,0,0,0-.56684.96923,3.68516,3.68516,0,0,0-.19425,1.215,3.78978,3.78978,0,0,0,.18425,1.2009,2.70923,2.70923,0,0,0,.54907.96331,2.52422,2.52422,0,0,0,.9096.64017,3.21318,3.21318,0,0,0,1.26646.23185A3.3698,3.3698,0,0,0,22.95489,12.36271ZM21.397,11.2944a1.31435,1.31435,0,0,1-.4874-.40425,1.77,1.77,0,0,1-.2874-.6322,3.38826,3.38826,0,0,1-.09314-.82647,3.44906,3.44906,0,0,1,.09314-.83646,1.78952,1.78952,0,0,1,.2874-.63609,1.30573,1.30573,0,0,1,.4874-.40629,1.76641,1.76641,0,0,1,1.39145,0,1.27543,1.27543,0,0,1,.48351.40629,1.81236,1.81236,0,0,1,.28147.63609,3.52889,3.52889,0,0,1,.09111.83646,3.46665,3.46665,0,0,1-.09111.82647,1.79237,1.79237,0,0,1-.28147.6322,1.28358,1.28358,0,0,1-.48351.40425,1.76641,1.76641,0,0,1-1.39145,0Zm9.90958,7.05169a2.56485,2.56485,0,0,0,.91369-.63813,2.77775,2.77775,0,0,0,.5648-.96535,3.62871,3.62871,0,0,0,.19425-1.20293,3.89182,3.89182,0,0,0-.18222-1.21294,2.69637,2.69637,0,0,0-.54517-.9672,2.49826,2.49826,0,0,0-.91164-.64017,3.25308,3.25308,0,0,0-1.27423-.23184,3.10776,3.10776,0,0,0-1.23479.23184,2.612,2.612,0,0,0-.91368.64017,2.78469,2.78469,0,0,0-.56888.9672,3.6389,3.6389,0,0,0-.1961,1.21294,3.803,3.803,0,0,0,.18425,1.20293,2.70566,2.70566,0,0,0,.54906.96535,2.50259,2.50259,0,0,0,.90961.63813,3.25171,3.25171,0,0,0,1.27053.22981A3.159,3.159,0,0,0,31.30654,18.34609Zm-1.93421-.94349a1.31172,1.31172,0,0,1-.48758-.40425,1.798,1.798,0,0,1-.28944-.63221,3.32983,3.32983,0,0,1-.09518-.82646,3.3906,3.3906,0,0,1,.09518-.83647,1.81794,1.81794,0,0,1,.28944-.63609,1.3065,1.3065,0,0,1,.48758-.40629,1.76113,1.76113,0,0,1,1.38923,0,1.27977,1.27977,0,0,1,.48165.40629,1.81245,1.81245,0,0,1,.28148.63609,3.52892,3.52892,0,0,1,.09111.83647,3.4655,3.4655,0,0,1-.09111.82646,1.79243,1.79243,0,0,1-.28148.63221,1.28468,1.28468,0,0,1-.48165.40425,1.76113,1.76113,0,0,1-1.38923,0Zm-6.56411,1.03071L30.55749,6.67655H29.09882L21.34955,18.43331ZM2,15.66986l40,16v1.67126L2,17.24723Z" fill="url(#Kontur)" /></g></svg>