<svg id="Ebene_1" data-name="Ebene 1" xmlns="http://www.w3.org/2000/svg" viewBox="0 0 16 39">
	<g id="Ampel_vertikal_rot_oben_unbekannt" data-name="Ampel vertikal rot oben unbekannt">
		<defs>
			<linearGradient gradientUnits="userSpaceOnUse" id="Frame">
				<stop offset="0" stop-color="#878787" />
			</linearGradient>
		</defs>
		<g id="Ampel">
			<path id="Hintergrund" fill="#191919" d="M14.49329,35.19373a2.39645,2.39645,0,0,1-2.43592,2.35632L12.05476,37.55H3.83182A2.38345,2.38345,0,0,1,1.45,35.19373V6.86237A2.44348,2.44348,0,0,1,3.88853,4.45h8.22294A2.44371,2.44371,0,0,1,14.55,6.86237Z" />
			<path id="Rahmen" fill="url(#Frame)" d="M1.506,6.90366A2.42941,2.42941,0,0,1,3.92369,4.49834H12.0763A2.42951,2.42951,0,0,1,14.494,6.90366l-.05623,28.24862a2.38228,2.38228,0,0,1-2.41469,2.34942l-.003,0H3.86747A2.36965,2.36965,0,0,1,1.506,35.15228V6.90366m-1.506,0V35.15228A3.862,3.862,0,0,0,3.86747,39h8.15261A3.93988,3.93988,0,0,0,16,35.15228V6.90663A3.91876,3.91876,0,0,0,12.0763,3H3.92369A3.91814,3.91814,0,0,0,0,6.90366Z" />
			<circle id="rot" fill="#ff0000" cx="7.97138" cy="10.92" r="4.032" />
			<circle id="gelb" fill="#5a5a5a" cx="7.97138" cy="21" r="4.032" />
			<path id="gruen" fill="#5a5a5a" d="M7.97138,27.048a4.032,4.032,0,1,0,4.032,4.032h0A4.01524,4.01524,0,0,0,8.005,27.048Q7.98817,27.04793,7.97138,27.048Z" />
		</g>
	</g>
</svg>
