<svg id="Ebene_1" data-name="Ebene 1" xmlns="http://www.w3.org/2000/svg" viewBox="0 0 36 36">
	<g id="Ampel_horizontal_rot_rechts_unbekannt" data-name="Ampel horizontal rot rechts unbekannt">
		<defs>
			<linearGradient gradientUnits="userSpaceOnUse" id="Frame">
				<stop offset="0" stop-color="#4d4d4d" />
			</linearGradient>
		</defs>
		<g id="Ampel">
			<path id="Hintergrund" fill="#191919" d="M3.80627,24.49329A2.39644,2.39644,0,0,1,1.45,22.05737l0-.00261V13.83182A2.38345,2.38345,0,0,1,3.80627,11.45H32.13763A2.44348,2.44348,0,0,1,34.55,13.88853v8.22294A2.44371,2.44371,0,0,1,32.13763,24.55Z" />
			<path id="Rahmen" fill="url(#Frame)" d="M32.09634,11.506a2.4294,2.4294,0,0,1,2.40532,2.41767V22.0763a2.42951,2.42951,0,0,1-2.40532,2.4177L3.84772,24.43775A2.38228,2.38228,0,0,1,1.4983,22.02306l0-.003V13.86747A2.36964,2.36964,0,0,1,3.84772,11.506H32.09634m0-1.506H3.84772A3.862,3.862,0,0,0,0,13.86747v8.15261A3.93989,3.93989,0,0,0,3.84772,26H32.09337A3.91876,3.91876,0,0,0,36,22.0763V13.92369A3.91814,3.91814,0,0,0,32.09634,10Z" />
			<circle id="rot" fill="#ff0000" cx="28.08" cy="17.97138" r="4.032" />
			<circle id="gelb" fill="#333" cx="18" cy="17.97138" r="4.032" />
			<path id="gruen" fill="#333" d="M11.952,17.97138a4.032,4.032,0,1,0-4.032,4.032h0A4.01524,4.01524,0,0,0,11.952,18.005Q11.95208,17.98817,11.952,17.97138Z" />
		</g>
	</g>
</svg>
