<?xml version="1.0" encoding="utf-8"?>
<!-- Generator: Adobe Illustrator 22.1.0, SVG Export Plug-In . SVG Version: 6.00 Build 0)  -->
<svg version="1.1" xmlns="http://www.w3.org/2000/svg" xmlns:xlink="http://www.w3.org/1999/xlink" x="0px" y="0px"
	 viewBox="0 0 100 100" style="enable-background:new 0 0 100 100;" xml:space="preserve">
<style type="text/css">
	.st0{opacity:0.15;fill:#899CA9;}
	.st1{fill:none;stroke:#FFFFFF;stroke-width:1.2;stroke-miterlimit:10;}
	.st2{fill-rule:evenodd;clip-rule:evenodd;fill:none;stroke:#FFFFFF;stroke-width:1.2;stroke-miterlimit:10;}
</style>
<g id="hintergrund">
</g>
<g id="Ebene_1">
	<g>
		<circle class="st0" cx="50" cy="50" r="50"/>
	</g>
</g>
<g id="Ebene_2">
	<g>
		<g>
			<path class="st1" d="M68.7,30.1c-1.4-5.3-8.7-12-18.7-12c-9.9,0-17.3,6.7-18.7,12c-2.2,8.3-2.6,20.4,1.3,34.1
				c0.9,3.1,6.7,17.7,17.4,17.7c10.7,0,16.5-14.6,17.4-17.7C71.2,50.6,70.8,38.4,68.7,30.1z"/>
		</g>
	</g>
	<path class="st2" d="M70.3,43.9c1.8-0.3,3.4,0.2,3.3,2.6c-0.1,2.9-1,8.5-1.9,10.6c-1.1,2.4-3.2,1.7-3.2,1.7"/>
	<path class="st2" d="M29.7,43.9c-1.8-0.3-3.4,0.2-3.3,2.6c0.1,2.9,1,8.5,1.9,10.6c1.1,2.4,3.2,1.7,3.2,1.7"/>
</g>
</svg>
