<?xml version="1.0" encoding="UTF-8"?>
<svg id="Layer_1" data-name="Layer 1" xmlns="http://www.w3.org/2000/svg" viewBox="0 0 72 72">
  <defs>
    <style>
      .cls-1 {
        fill: #fff;
      }
    </style>
  </defs>
  <g id="Logo">
    <path class="cls-1" d="M58.23026,50.13107c.70508,.58757,.8226,1.6452,.23503,2.35028-1.05763,1.29265-2.23277,2.46779-3.52542,3.52542-1.29265,1.05763-2.70282,1.99774-4.11299,2.82034s-3.05537,1.41017-4.58305,1.99774c-1.6452,.47006-3.29039,.8226-4.93559,1.05763-.8226,.11751-1.76271,.11751-2.70282,.11751-.8226,0-1.76271,0-2.58531-.11751-1.76271-.11751-3.52542-.47006-5.17062-1.05763-1.6452-.47006-3.17288-1.17514-4.70056-1.99774-1.41017-.8226-2.82034-1.76271-4.11299-2.82034s-2.4678-2.23277-3.52542-3.52542-1.99774-2.70282-2.82034-4.11299c-.8226-1.52768-1.41017-3.05537-1.99774-4.58305-.47006-1.6452-.8226-3.29039-1.05763-4.93559-.23503-1.76271-.23503-3.52542,0-5.28814,.11751-1.76271,.47006-3.52542,1.05763-5.17062,.47006-1.6452,1.17514-3.17288,1.99774-4.70056,.8226-1.41017,1.76271-2.82034,2.82034-4.11299,1.05763-1.29266,2.23277-2.4678,3.52542-3.52542s2.70282-1.99774,4.11299-2.82034c1.41017-.8226,3.05537-1.41017,4.58305-1.99774,1.6452-.47006,3.29039-.8226,4.93559-1.05763,1.76271-.23503,3.52542-.23503,5.17062,0,1.76271,.11751,3.52542,.47006,5.17062,1.05763,1.6452,.47006,3.17288,1.17514,4.70056,1.99774,1.41017,.8226,2.82034,1.76271,4.11299,2.82034,1.29265,1.05763,2.46779,2.23277,3.52542,3.52542,.58757,.70509,.47006,1.76271-.23503,2.35028-.11751,.23503-.47006,.35254-.8226,.35254-.47006,0-.94011-.23503-1.29265-.58757-.94011-1.17514-1.99774-2.11525-3.05537-3.05537-1.05763-.94011-2.35028-1.76271-3.64294-2.4678s-2.70282-1.29266-4.11299-1.76271-2.93785-.70509-4.46554-.94011c-1.52768-.11751-3.05537-.11751-4.58305,0-1.52768,.11751-2.93785,.47006-4.34802,.94011s-2.70282,1.05763-3.99548,1.6452c-1.29266,.70509-2.4678,1.52768-3.64294,2.4678s-2.11525,1.99774-3.05537,3.05537c-.94011,1.17514-1.76271,2.35028-2.4678,3.64294s-1.29266,2.70282-1.76271,4.11299-.70509,2.93786-.94011,4.46554c-.11751,1.52768-.11751,3.05537,0,4.58305,.11751,1.52768,.47006,2.93785,.94011,4.34802s1.05763,2.70282,1.6452,3.99548c.70509,1.29265,1.52768,2.46779,2.4678,3.64294,.94011,1.05763,1.99774,2.11525,3.05537,3.05537,1.17514,.94011,2.35028,1.76271,3.64294,2.46779s2.70282,1.29265,4.11299,1.76271,2.93785,.70508,4.46554,.94011c1.52768,.11751,3.05537,.11751,4.58305,0,1.52768-.11751,2.93785-.47006,4.34802-.94011,1.41017-.47006,2.70282-1.05763,3.99548-1.6452,1.29265-.70508,2.46779-1.52768,3.64294-2.46779s2.11525-1.99774,3.05537-3.05537c.35254-.35254,.8226-.58757,1.29265-.58757,.35254-.11751,.8226,0,1.05762,.23503Zm-24.56045-25.26553c-.35254-.23503-.70509-.23503-1.05763,0s-.58757,.58757-.58757,.94011v20.09491c0,.35254,.23503,.70508,.58757,.94011,.11751,.11751,.35254,.11751,.58757,.11751s.35254,0,.58757-.11751l17.39209-9.9887c.35254-.23503,.58757-.58757,.58757-.94011s-.23503-.70508-.58757-.94011l-17.5096-10.10621Z"/>
  </g>
</svg>