<svg xmlns="http://www.w3.org/2000/svg" viewBox="0 0 44 44"><g id="d0_t5_cc-svk_1p0_2p1014_1s0"><path id="Rahmen" d="M2,11.47567a1.62853,1.62853,0,0,1,.14549-.72771,1.73563,1.73563,0,0,1,.4077-.61151,1.9322,1.9322,0,0,1,1.33913-.58213H40.07865a2.03681,2.03681,0,0,1,.72771.14549,2.335,2.335,0,0,1,.61117.43673A1.93058,1.93058,0,0,1,42,11.47576V32.52433a2.028,2.028,0,0,1-.14574.72737,1.805,1.805,0,0,1-.43673.61117,1.87653,1.87653,0,0,1-1.33888.58281H3.89241a2.16523,2.16523,0,0,1-.728-.14608,1.81377,1.81377,0,0,1-.61125-.43672A1.84733,1.84733,0,0,1,2,32.52433" fill="#010101" fill-rule="evenodd" /><path id="Hintergrund" d="M2.43673,11.47567a1.60515,1.60515,0,0,1,.90249-1.33922A1.26884,1.26884,0,0,1,3.89241,10.02H40.07873a1.49972,1.49972,0,0,1,1.33939.90291,1.265,1.265,0,0,1,.116.55277V32.52433a1.49767,1.49767,0,0,1-.90266,1.33854,1.18054,1.18054,0,0,1-.55277.11646H3.89241a1.53152,1.53152,0,0,1-1.33914-.90215,1.88138,1.88138,0,0,1-.11654-.55285" fill="#fff" fill-rule="evenodd" /><polyline id="Rahmen-2" data-name="Rahmen" points="21.418 19.802 7.997 13.543 5.93 14.562 6.396 16.92 17.284 21.985 6.454 27.051 6.017 29.409 8.055 30.428 21.505 24.169 35.596 30.719 37.517 29.758 37.051 27.313 25.639 21.956 36.993 16.658 37.459 14.212 35.537 13.223" fill="#d9261c" fill-rule="evenodd" /><polyline id="Hintergrund-2" data-name="Hintergrund" points="8.026 14.911 7.298 15.29 7.473 16.163 19.962 21.985 7.473 27.924 7.298 28.798 8.026 29.176 21.476 22.829 35.45 29.438 36.119 29.088 35.974 28.157 22.932 21.985 36.032 15.872 36.178 14.94 35.508 14.591 21.418 21.141" fill="#fff" fill-rule="evenodd" /></g></svg>