<svg xmlns="http://www.w3.org/2000/svg" viewBox="0 0 44 44"><defs><style>.cls-1{fill:#010101;}.cls-2{fill:#00f300;}.cls-3{fill:#f7fbf5;}</style></defs><g id="d0_t5_cc-nld_1p0_2p1014_1s1"><path class="cls-1" d="M2.09116,13.23423l1.21311-1.18874L42,28.93821l-.27347,1.80884-1.03314,1.20746L2,15.0618l.09116-1.82757"/><path class="cls-2" d="M2,15.0618l.09116-1.82757,1.21311-1.18874,8.65656,3.779-1.24275,3.04485"/><path class="cls-2" d="M33.19981,25.09634,42,28.93821l-.27347,1.80884-1.03314,1.20746-8.73487-3.81346,1.24129-3.04471"/><path class="cls-3" d="M33.27914,18.86435,42,15.0618l-.09116-1.82757-1.21545-1.18874L32.038,15.82l1.24115,3.04438"/><path id="path108" class="cls-1" d="M41.90884,13.23423l-1.21545-1.18874L2,28.93821l.27347,1.80884,1.0308,1.20746L42,15.0618l-.09116-1.82757"/><path class="cls-2" d="M42,15.0618l-.09116-1.82757-1.21545-1.18874L32.038,15.82l1.25159,3.04438"/><path class="cls-2" d="M10.791,25.07949,2,28.93821l.27347,1.80884,1.0308,1.20746,8.735-3.81327L10.791,25.07949"/><path class="cls-2" d="M40.69332,12.04546l1.21545,1.18872L42,15.06176,26.10677,22,42,28.93816l-.2735,1.80884-1.03314,1.20752-18.694-8.16144L3.30422,31.95452,2.27339,30.747,2,28.93816,17.89211,22,2,15.06176l.09112-1.82758,1.21314-1.18872,18.69513,8.16138,18.694-8.16138M3.19515,11.45229l-.24085.236L1.74117,12.87705l-.13971.13688-.00977.19535-.09112,1.82758-.01721.34494.31652.13818L16.64247,22,1.79988,28.47992l-.35168.15354.05737.37944L1.779,30.82173l.02136.14125.09278.10865,1.03076,1.20752.24066.2819.33972-.1483,18.49506-8.0741,18.49389,8.0741.3393.14812.24072-.2813,1.03314-1.20752.093-.10876.02142-.14154.2735-1.80884.05737-.37945L42.2,28.47992,27.35646,22,42.2,15.52l.31653-.13819-.01721-.345-.09119-1.82759-.00977-.19559-.14-.13694L41.04293,11.688l-.24091-.23558-.30878.13481-18.49389,8.074L3.50423,11.58721l-.30908-.13492Z"/></g></svg>