<svg xmlns="http://www.w3.org/2000/svg" viewBox="0 0 44 44"><defs><linearGradient id="Fl&#228;che" x1="1.98323" y1="22.05987" x2="41.92682" y2="22.05987" gradientUnits="userSpaceOnUse"><stop offset="0" stop-color="#666" stop-opacity="0.15" /></linearGradient><linearGradient id="Kontur" x1="1.99917" y1="22.07025" x2="41.92682" y2="22.07025" gradientUnits="userSpaceOnUse"><stop offset="0" stop-color="#666" /><stop offset="0.00559" stop-color="#666" /></linearGradient></defs><g id="Roundabout_Road_Shape"><rect id="Hintergrund" x="2" y="2" width="40" height="40" rx="5" opacity="0.35" /><path id="Fl&#228;che-2" data-name="Fl&#228;che" d="M41.92682,16.57873,34.54706,4.94706l-5.27712,3.099a15.279,15.279,0,0,0-7.90436-2.20361,14.58241,14.58241,0,0,0-12.9437,7.45439L2.0004,13.22656,1.98323,27.33729l6.56121.06958A14.7145,14.7145,0,0,0,14,32.95313l.04688,6.21956H28.73725l-.05788-6.10837A14.57575,14.57575,0,0,0,35.95865,20.4347c0-.10956-.00172-.21826-.00345-.327Z" opacity="0.15" fill="url(#Fl&#228;che)" /><path id="Kontur-2" data-name="Kontur" d="M27.24756,39.17269V32.45605l.39941-.21289a13.25258,13.25258,0,0,0,7.04346-11.71679c0-.25782-.00879-.51172-.021-.76367l-.07275-.56055,6.53863-3.87146.79151,1.248-5.74664,3.39393s.019.49511.019.55371a14.823,14.823,0,0,1-7.36865,12.78418l-.07422.043v5.81917ZM9.27783,14.73438l.20557-.42579C11.62354,9.89746,16.08789,7.2627,21.42676,7.2627a13.19927,13.19927,0,0,1,7.41553,2.26464l.39306.26563,6.10548-3.591-.79736-1.2627L29.28711,8.01758l-.07617-.04688a14.72531,14.72531,0,0,0-7.78418-2.21582,14.60717,14.60717,0,0,0-13.042,7.39258l-.04248.0791H2.0004v1.50782ZM15.4624,39.17269v-6.7889l-.39209-.21484A13.245,13.245,0,0,1,9.541,26.416l-.20752-.418H2.0004v1.50683H8.40625l.04248.07813a14.80127,14.80127,0,0,0,5.43262,5.64355l.07275.043v5.90316ZM26.938,20.4375a5.67725,5.67725,0,1,0-5.67725,5.67773A5.68378,5.68378,0,0,0,26.938,20.4375Zm-1.5,0a4.17725,4.17725,0,1,1-4.17725-4.17725A4.18224,4.18224,0,0,1,25.438,20.4375Zm6.133-4.68423,2.89836-1.70138-.75732-1.30372-2.89885,1.70139Zm4.10251-2.31972,3.11706-1.799-.80811-1.27441-3.06627,1.76974ZM22.1001,34.65123l.019-3.36643L20.61035,31.275l-.01855,3.36643Zm0,4.55.019-3.39559-1.50879-.00977-.01855,3.40536ZM6.82378,21.10449l3.36605-.0039-.00244-1.50879-3.36605.00488Zm-4.82265,0,3.36726-.0039L5.366,19.5918l-3.36678.00488Z" fill="url(#Kontur)" /></g></svg>