<svg xmlns="http://www.w3.org/2000/svg" viewBox="0 0 40 40"><g id="t11_1p795"><rect y="7" width="40" height="26" fill="#28ae66" /><path id="crescent" d="M19.85871,9.62411a3.31817,3.31817,0,1,1-3.45755,5.5768,3.31819,3.31819,0,0,0,3.45755-5.57679Z" fill="#fff" /><polygon points="16.838 11.621 17.302 11.621 16.926 11.348 17.07 10.906 16.694 11.179 16.318 10.906 16.462 11.348 16.086 11.621 16.55 11.621 16.694 12.063 16.838 11.621" fill="#fff" /><polygon points="16.838 9.914 17.302 9.914 16.926 9.641 17.07 9.199 16.694 9.473 16.318 9.199 16.462 9.641 16.086 9.914 16.55 9.914 16.694 10.356 16.838 9.914" fill="#fff" /><polygon points="18.524 10.789 18.988 10.789 18.612 10.516 18.756 10.074 18.38 10.347 18.004 10.074 18.148 10.516 17.772 10.789 18.236 10.789 18.38 11.231 18.524 10.789" fill="#fff" /><polygon points="15.151 12.453 15.616 12.453 15.24 12.18 15.384 11.738 15.008 12.011 14.632 11.738 14.775 12.18 14.4 12.453 14.864 12.453 15.008 12.895 15.151 12.453" fill="#fff" /><polygon points="16.838 13.328 17.302 13.328 16.926 13.055 17.07 12.613 16.694 12.886 16.318 12.613 16.462 13.055 16.086 13.328 16.55 13.328 16.694 13.77 16.838 13.328" fill="#fff" /><rect x="4.79991" y="7" width="7.2" height="26" fill="#ca3745" /><path d="M4.79991,9.78771v.20716l1.53954,1.52542-1.5396,1.52542v.20716l1.73022-1.73258L4.79985,9.78771Zm0,1.26884V11.984l.4402-.46375-.4402-.46374Z" fill="#f7ac2a" /><path d="M4.79991,14.801v.20716l1.53954,1.52542L4.79985,18.059v.20716l1.73022-1.73258L4.79985,14.801Zm0,1.26883v.9275l.4402-.46375-.4402-.46375Z" fill="#f7ac2a" /><path d="M4.79991,19.81415v.20716l1.53954,1.52542-1.5396,1.52542v.20716l1.73022-1.73258L4.79985,19.81415Zm0,1.26884v.92749l.4402-.46374-.4402-.46375Z" fill="#f7ac2a" /><path d="M4.79991,24.82734v.20715l1.53954,1.52542-1.5396,1.52543v.20715l1.73022-1.73258L4.79985,24.82733Zm0,1.26883v.92749l.4402-.46374-.4402-.46375Z" fill="#f7ac2a" /><path d="M11.99991,9.78771v.20716l-1.53954,1.52542L12,13.04571v.20716l-1.73022-1.73258L12,9.78771Zm0,1.26884V11.984l-.4402-.46375.4402-.46374Z" fill="#f7ac2a" /><path d="M11.99991,14.801v.20716l-1.53954,1.52542L12,18.059v.20716l-1.73022-1.73258L12,14.801Zm0,1.26883v.9275l-.4402-.46375.4402-.46375Z" fill="#f7ac2a" /><path d="M11.99991,19.81415v.20716l-1.53954,1.52542L12,23.07215v.20716l-1.73022-1.73258L12,19.81415Zm0,1.26884v.92749l-.4402-.46374.4402-.46375Z" fill="#f7ac2a" /><path d="M11.99991,24.82734v.20715l-1.53954,1.52542L12,28.08534v.20715l-1.73022-1.73258L12,24.82733Zm0,1.26883v.92749l-.4402-.46374.4402-.46375Z" fill="#f7ac2a" /><path d="M5.56861,30.68164a.81823.81823,0,0,0,.07086-.48018c-.0283-.12814-.13608-.21952-.14856-.3512a.40062.40062,0,0,0-.10691.40859A1.82455,1.82455,0,0,1,5.56861,30.68164Z" fill="#f7ac2a" /><path d="M5.35421,30.89335a.99133.99133,0,0,0,.39126.31139c-.03014-.11971.2016-.53166.14-.66339a.80644.80644,0,0,1-.11259.18392.54034.54034,0,0,0-.1213.28976c-.07744-.05738-.31787-.44413-.43488-.50906a1.03169,1.03169,0,0,0,.13754.38738Z" fill="#f7ac2a" /><path d="M6.3864,32.09615a5.27333,5.27333,0,0,1-.88069-.454A.68149.68149,0,0,0,6.011,32.136a4.07347,4.07347,0,0,1,.53885.11315,1.48736,1.48736,0,0,0-.13624-.43173,1.57832,1.57832,0,0,1-.1449-.29163.35233.35233,0,0,0-.04494.26976S6.332,31.997,6.3864,32.09615Z" fill="#f7ac2a" /><path d="M7.5024,32.53928a7.73394,7.73394,0,0,1-1.09251.12929,8.28649,8.28649,0,0,0,1.79648-.08052A1.38445,1.38445,0,0,1,9.08922,33l.1311-.09246a2.20925,2.20925,0,0,0-1.7179-.36829Z" fill="#f7ac2a" /><path d="M11.233,30.68164a.81814.81814,0,0,1-.07085-.48018c.02829-.12814.13608-.21952.14856-.3512a.40061.40061,0,0,1,.1069.40859A1.82455,1.82455,0,0,0,11.233,30.68164Z" fill="#f7ac2a" /><path d="M11.4474,30.89335a.99137.99137,0,0,1-.39125.31139.36809.36809,0,0,0-.08915-.30488.342.342,0,0,1-.05083-.35851.80644.80644,0,0,0,.11259.18392.54036.54036,0,0,1,.12131.28976.57032.57032,0,0,0,.15288-.226.71256.71256,0,0,1,.282-.283,1.03171,1.03171,0,0,1-.13755.38738Z" fill="#f7ac2a" /><path d="M10.57788,31.79551a1.38042,1.38042,0,0,1-.16266.30064,5.2741,5.2741,0,0,0,.88069-.454.68152.68152,0,0,1-.50525.49378,4.07359,4.07359,0,0,0-.53886.11315c.02454-.14483.24832-.61933.28115-.72336A.71712.71712,0,0,1,10.57788,31.79551Z" fill="#f7ac2a" /><path d="M9.29922,32.53928a7.73363,7.73363,0,0,0,1.0925.12929,8.28649,8.28649,0,0,1-1.79648-.08052A1.38445,1.38445,0,0,0,7.71239,33l-.13109-.09246a2.20922,2.20922,0,0,1,1.71789-.36829Z" fill="#f7ac2a" /><path d="M7.51413,7.01035l-.82862.4661H6.25237l-.532.32015v.44962l-.57674.35311v.82862l.57674.35311v.452l.52966.32015h.4355l.82862.4661H9.28438l.82862-.4661h.4355l.532-.32015v-.452l.57674-.35311V8.59933l-.57674-.35311V7.7966l-.532-.32015H10.113l-.82862-.4661Zm.04944.17184H9.2373l.82862.4661h.43314l.40255.24247v.44962l.57909.35311v.6403l-.57909.35311v.44962l-.40255.24247h-.43314l-.82862.4661H7.56357L6.735,10.379H6.3018l-.40489-.24247V9.6869l-.57675-.35311v-.6403l.57675-.35311V7.89076l.40489-.24247H6.735Z" fill="#2dab67" /><path d="M8.39036,7.20074H7.56788l-.82883.46616H6.307l-.39088.23539V8.3512L5.33918,8.705v.29935l3.07026,1.82262h.82248l.8288-.46616h.4321l.39086-.23539V9.6765l.57693-.35378V9.02336Z" fill="#f7ac2a" /><path d="M5.33916,9.02335l0,.29936.57693.35379v.44888l.39085.23538H6.739l.8288.46616h.82251V9.00428l3.07025,0V8.705l-.57693-.35376V7.90228L10.4928,7.6669h-.43211l-.8288-.46616H8.40941v1.8226Z" fill="#fff" /><path d="M6.46166,8.70154v.62459L5.98,9.45573l-.34947-.44189L5.98,8.57192Z" fill="#c93745" /><polygon points="8.752 7.201 8.048 7.201 7.999 7.935 8.409 7.697 8.8 7.935 8.752 7.201" fill="#c93745" /><polygon points="8.8 10.093 8.409 10.331 8.004 10.093 8.055 10.827 8.752 10.827 8.8 10.093" fill="#c93745" /><path d="M10.33806,8.70154v.62459l.48168.1296.34947-.44189-.34947-.44192Z" fill="#c93745" /><path d="M8.40941,7.76359,6.66893,9.02335,8.39035,10.2641l1.7404-1.25979Z" fill="#2dab67" /><path d="M6.66893,9.02335,8.39035,10.2641V9.00428l1.7404,0L8.40941,7.76359V9.02334Z" fill="#c93745" /><path d="M8.40942,8.45479l-.8436.56856,1.66811-.019-.82451-.54952L8.39036,9.57287l.84357-.56856-1.66811.019.82454.54952Z" fill="#fff" /><polygon points="8.4 8.663 7.864 9.015 8.4 9.365 8.927 9.015 8.4 8.663" fill="#c93745" /><path d="M6.39081,13.14332v1.76746H5.6992V13.14332Z" fill="#2dab67" /><path d="M7.81194,12.65534v2.74344H7.12041V12.65534Z" fill="#2dab67" /><path d="M8.98791,12.65534v2.74344h.69155V12.65534Z" fill="#2dab67" /><path d="M10.409,13.14332v1.76746h.69159V13.14332Z" fill="#2dab67" /><path d="M7.10135,12.90677v2.24056H6.4098V12.90677Z" fill="#f7ac2a" /><path d="M7.831,12.38965v3.27478H8.96878V12.38965Z" fill="#f7ac2a" /><path d="M9.69846,12.90677v2.24056H10.39V12.90677Z" fill="#f7ac2a" /><path d="M7.81076,13.37569l-.6662.4355H6.20294V14.242h.94162l.6662.43785H8.99013L9.654,14.242h.944v-.43079H9.654l-.66384-.4355Z" fill="#c93745" /><path d="M9.23242,13.8053H9.09894l-.22864.17163-.40369-.3031.17841-.13391h-.4903l.17847.134-.40375.3031-.22863-.17169H7.56738v.44348h.13343l.22863-.17163.40375.3031-.17847.134H8.645l-.17841-.134.40375-.3031.22858.17163h.13348Zm-.83252.52484-.40375-.3031.40375-.3031.40369.3031Z" fill="#f7ac2a" /><path d="M9.48342,17.5804c.005.00368,1.15624.854,1.1639.85963v1.20045c-.00766.00568-1.15888.856-1.1639.85965H7.31633c-.005-.0037-1.15621-.854-1.16387-.85965V18.44l1.16387-.85963Z" fill="#2dab67" /><path d="M6.43836,19.75969v-.27254h3.92306v.27254Z" fill="#f7ac2a" /><path d="M10.36142,18.904v.27251h-3.923V18.904Z" fill="#f7ac2a" /><path d="M10.36142,18.59342v-.27251H6.43836v.27251Z" fill="#f7ac2a" /><path d="M6.4384,19.46809v-.27253h3.923v.27253Z" fill="#c93745" /><path d="M6.4384,18.885v-.27254h3.923V18.885Z" fill="#c93745" /><path d="M7.42936,17.926l-.51083.43079v1.3677l.51083.42843H9.3691l.51318-.42843v-1.3677L9.3691,17.926Z" fill="#c93745" /><path d="M8.39036,18.54836v.19042l-.27.292H7.69886v-.12918l.406-.35322Z" fill="#f7ac2a" /><path d="M8.40942,19.53222V19.3418l.26995-.292h.42155V19.179l-.406.35325Z" fill="#f7ac2a" /><path d="M8.67938,19.03075l-.26995-.292v-.19043H8.6949l.406.35323v.12917Z" fill="#fff" /><path d="M7.69889,19.04982h.42152l.27.292v.19042H8.10492l-.406-.35325Z" fill="#fff" /><path d="M8.39924,22.29289l-.532.32015H6.34181v.52024H5.84746v.47317H5.34369V24.501h.50377v.47316h.49435v.52025H7.86723l.532.31779.532-.31779h1.52542v-.52025h.4967V24.501h.50377v-.89454h-.50377v-.47317h-.4967V22.613H8.93126Zm0,.13183.50142.30131H10.346v.52025h.49671v.47081h.50141v.6709h-.50141v.47316H10.346v.52025H8.90066l-.50142.30132-.49905-.30132H6.4548v-.52025H5.9581V24.388H5.45433v-.6709H5.9581v-.47081h.4967V22.726H7.90019Z" fill="#f7ac2a" /><path d="M10.32631,24.8424v.52075H8.89519l-.49531.2976-.4953-.2976H6.47348V24.8424H5.97722v-.47235H5.47428v-.63314h.50294v-.47235h.49626v-.52072h1.4311l.4953-.2976.49531.2976h1.43112v.52072h.49624v.47235h.50293v.63314h-.50293v.47235Z" fill="#2dab67" /><rect x="6.66541" y="23.67694" width="0.9798" height="0.75305" fill="#f7ac2a" /><rect x="9.1546" y="23.67694" width="0.9798" height="0.75305" fill="#f7ac2a" /><rect x="7.90997" y="22.97058" width="0.97986" height="0.75305" fill="#c93745" /><rect x="7.90997" y="24.38336" width="0.97986" height="0.75305" fill="#c93745" /><path d="M7.54947,26.98449l-1.855.99811v1.63368l1.855.99811H9.25139l1.85506-.99811V27.9826l-1.85506-.99811Zm.03292.13416H9.21847l1.75616.944v1.476l-1.75616.944H7.5814l-1.7561-.944v-1.476Z" fill="#2dab67" /><path d="M8.40942,28.7904v1.6729h.80424l1.74147-.9372v-.71664H8.39038V27.13658H7.58617l-1.74149.93717v.71664Z" fill="#f7ac2a" /><path d="M8.39036,28.7904v1.6729H7.58614l-1.74149-.9372v-.71664H8.4094V27.13658h.80424l1.74146.93717v.71664Z" fill="#fff" /><path d="M7.39342,29.30924l1.00646.488,1.00645-.488v-1.0185l-1.00645-.488-1.00646.488Z" fill="#c93745" /><polygon points="9.218 28.436 8.965 28.436 8.965 28.19 8.862 28.293 8.862 28.458 8.4 28.74 7.937 28.458 7.937 28.293 7.835 28.19 7.835 28.436 7.582 28.436 7.684 28.539 7.873 28.539 8.301 28.8 7.873 29.061 7.684 29.061 7.582 29.164 7.835 29.164 7.835 29.41 7.937 29.307 7.937 29.142 8.4 28.86 8.862 29.142 8.862 29.307 8.965 29.41 8.965 29.164 9.218 29.164 9.116 29.061 8.927 29.061 8.499 28.8 8.927 28.539 9.116 28.539 9.218 28.436" fill="#fff" /><polygon points="12 7.464 12 7 11.56 7 12 7.464" fill="#f7ac2a" /><polygon points="10.46 7 10.27 7 12 8.399 12 8.232 10.46 7" fill="#f7ac2a" /><polygon points="5.24 7 4.8 7 4.8 7.464 5.24 7" fill="#f7ac2a" /><polygon points="6.53 7 6.339 7 4.8 8.232 4.8 8.399 6.53 7" fill="#f7ac2a" /></g></svg>