<svg xmlns="http://www.w3.org/2000/svg" xmlns:xlink="http://www.w3.org/1999/xlink" viewBox="0 0 44 44"><defs><linearGradient id="Beschriftung_schwarz" x1="11.09668" y1="22.1339" x2="32.86719" y2="22.1339" gradientUnits="userSpaceOnUse"><stop offset="0" stop-color="#010101"/><stop offset="0"/></linearGradient></defs><g id="Speedlimit_100"><path id="Beschriftung_schwarz-2" data-name="Beschriftung_schwarz" d="M15.72852,14.0509v16.166H13.41211V16.50305l-2.31543,1.70312V15.754l2.31543-1.70312Zm8.58007,12.89648a3.45147,3.45147,0,0,1-6.90234,0V17.32043a3.45147,3.45147,0,0,1,6.90234,0Zm-4.58593-.02246a1.13549,1.13549,0,0,0,2.2705,0v-9.582a1.10479,1.10479,0,0,0-1.13574-1.11231,1.124,1.124,0,0,0-1.13476,1.13477Zm13.14453.02246a3.45147,3.45147,0,0,1-6.90235,0V17.32043a3.45147,3.45147,0,0,1,6.90235,0Zm-4.58692-.02246a1.13549,1.13549,0,0,0,2.27051,0v-9.582A1.10455,1.10455,0,0,0,29.416,16.23058a1.12363,1.12363,0,0,0-1.13575,1.13477Z" fill="url(#Beschriftung_schwarz)"/></g></svg>