<svg xmlns="http://www.w3.org/2000/svg" xmlns:xlink="http://www.w3.org/1999/xlink" viewBox="0 0 44 44"><defs><linearGradient id="Beschriftung_schwarz" x1="10.9917" y1="22.1339" x2="33.32813" y2="22.1339" gradientUnits="userSpaceOnUse"><stop offset="0" stop-color="#010101"/><stop offset="0"/></linearGradient></defs><g id="Speedlimit_120"><path id="Beschriftung_schwarz-2" data-name="Beschriftung_schwarz" d="M15.62354,14.0509v16.166H13.30713V16.50305L10.9917,18.20617V15.754l2.31543-1.70312Zm7.53564,8.46875L20.3667,27.90051H24.544v2.3164H17.64209V28.03722l4.2002-7.92382a3.7076,3.7076,0,0,0,.38623-2.02149c0-.95312-.04541-1.86133-1.13526-1.86133A1.04552,1.04552,0,0,0,19.958,17.38879v1.3164H17.64209v-.95312a4.10911,4.10911,0,0,1,.18164-1.45313,3.51544,3.51544,0,0,1,3.292-2.38476c2.1792,0,3.42823,1.56738,3.42823,4.11035C24.544,20.15832,24.3623,20.18078,23.15918,22.51965Zm10.169,4.42773a3.45147,3.45147,0,0,1-6.90235,0V17.32043a3.45147,3.45147,0,0,1,6.90235,0Zm-4.58594-.02246a1.13549,1.13549,0,0,0,2.27051,0v-9.582A1.1048,1.1048,0,0,0,29.877,16.23058a1.124,1.124,0,0,0-1.13476,1.13477Z" fill="url(#Beschriftung_schwarz)"/></g></svg>