<svg xmlns="http://www.w3.org/2000/svg" xmlns:xlink="http://www.w3.org/1999/xlink" viewBox="0 0 44 44"><defs><linearGradient id="Beschriftung_schwarz" x1="10.99219" y1="22.1339" x2="33.32813" y2="22.1339" gradientUnits="userSpaceOnUse"><stop offset="0" stop-color="#010101"/><stop offset="0"/></linearGradient></defs><g id="Speedlimit_150"><path id="Beschriftung_schwarz-2" data-name="Beschriftung_schwarz" d="M15.62305,14.0509v16.166H13.30664V16.50305l-2.31445,1.70312V15.754l2.31445-1.70312Zm8.92187,0v2.17968H19.958V20.59a2.82262,2.82262,0,0,1,1.93066-.749,2.54839,2.54839,0,0,1,2.65625,2.81543v4.291a3.45147,3.45147,0,1,1-6.90234-.09082v-.6582H19.958v.6123a1.1285,1.1285,0,0,0,1.18066,1.22656,1.04385,1.04385,0,0,0,1.08985-1.1582V22.99621a1.12368,1.12368,0,0,0-1.08985-1.11231,1.22769,1.22769,0,0,0-1.18066.88575h-2.044V14.0509Zm8.78321,12.89648a3.45147,3.45147,0,0,1-6.90235,0V17.32043a3.45147,3.45147,0,0,1,6.90235,0Zm-4.58594-.02246a1.136,1.136,0,0,0,2.27148,0v-9.582A1.105,1.105,0,0,0,29.877,16.23058a1.124,1.124,0,0,0-1.13476,1.13477Z" fill="url(#Beschriftung_schwarz)"/></g></svg>