<svg xmlns="http://www.w3.org/2000/svg" xmlns:xlink="http://www.w3.org/1999/xlink" viewBox="0 0 44 44"><defs><linearGradient id="Beschriftung_schwarz" x1="10.99219" y1="22.1339" x2="33.32813" y2="22.1339" gradientUnits="userSpaceOnUse"><stop offset="0" stop-color="#010101"/><stop offset="0"/></linearGradient></defs><g id="Speedlimit_180"><path id="Beschriftung_schwarz-2" data-name="Beschriftung_schwarz" d="M15.62305,14.0509v16.166H13.30664V16.50305l-2.31445,1.70312V15.754l2.31445-1.70312Zm7.76367,7.67382a2.57035,2.57035,0,0,1,.97656,1.29493,10.41788,10.41788,0,0,1,.18164,2.63379,7.06354,7.06354,0,0,1-.36328,2.81543,3.4719,3.4719,0,0,1-6.17578,0,6.91359,6.91359,0,0,1-.36328-2.81543,10.956,10.956,0,0,1,.18164-2.63379,2.4667,2.4667,0,0,1,.97656-1.29493c-1.06836-.9082-1.1582-1.40722-1.1582-3.40527a6.48255,6.48255,0,0,1,.29491-2.293,3.44026,3.44026,0,0,1,3.15626-2.1123,3.39458,3.39458,0,0,1,3.17773,2.20312,5.87108,5.87108,0,0,1,.27344,2.17969C24.54492,20.24914,24.52148,20.7716,23.38672,21.72472Zm-1.1582-4.33593a1.13583,1.13583,0,0,0-2.27051-.06836v2.38379a1.14255,1.14255,0,0,0,1.13574,1.1582,1.16159,1.16159,0,0,0,1.13477-1.08984Zm0,6.42578a1.1375,1.1375,0,1,0-2.27051-.13672V26.7882a1.13744,1.13744,0,0,0,1.13574,1.249,1.16159,1.16159,0,0,0,1.13477-1.08984Zm11.09961,3.13281a3.45147,3.45147,0,0,1-6.90235,0V17.32043a3.45147,3.45147,0,0,1,6.90235,0Zm-4.58594-.02246a1.136,1.136,0,0,0,2.27148,0v-9.582A1.105,1.105,0,0,0,29.877,16.23058a1.124,1.124,0,0,0-1.13476,1.13477Z" fill="url(#Beschriftung_schwarz)"/></g></svg>