<svg xmlns="http://www.w3.org/2000/svg" xmlns:xlink="http://www.w3.org/1999/xlink" viewBox="0 0 44 44"><defs><linearGradient id="Beschriftung_schwarz" x1="12.12891" y1="22.10265" x2="32.06934" y2="22.10265" gradientUnits="userSpaceOnUse"><stop offset="0" stop-color="#010101"/><stop offset="0"/></linearGradient></defs><g id="Speedlimit_85"><path id="Beschriftung_schwarz-2" data-name="Beschriftung_schwarz" d="M12.12891,25.46691a4.11687,4.11687,0,0,1,1.90625-3.63574,5.71721,5.71721,0,0,1-1.16895-1.4248,3.63488,3.63488,0,0,1-.44922-1.84571,4.55731,4.55731,0,0,1,1.33594-3.31347A4.4303,4.4303,0,0,1,17.0498,13.8839a4.43248,4.43248,0,0,1,3.29786,1.36329,4.55734,4.55734,0,0,1,1.33593,3.31347,3.60739,3.60739,0,0,1-.45507,1.84571,6.07968,6.07968,0,0,1-1.15235,1.4248,4.13951,4.13951,0,0,1,1.89551,3.63574,4.54361,4.54361,0,0,1-1.458,3.49707,5.13442,5.13442,0,0,1-6.93262,0A4.54914,4.54914,0,0,1,12.12891,25.46691Zm2.3164-.02246a2.3955,2.3955,0,0,0,.78125,1.834,2.65092,2.65092,0,0,0,3.64649,0,2.52409,2.52409,0,0,0,0-3.67383,2.63808,2.63808,0,0,0-3.64649,0A2.41385,2.41385,0,0,0,14.44531,25.44445Zm.28809-6.92773a2.10948,2.10948,0,0,0,.71484,1.72949,2.47864,2.47864,0,0,0,3.20313,0,2.10948,2.10948,0,0,0,.71484-1.72949,2.11162,2.11162,0,0,0-.71484-1.72364,2.46,2.46,0,0,0-3.20313,0A2.11162,2.11162,0,0,0,14.7334,18.51672Zm17.03125,3.31933a9.41465,9.41465,0,0,1,.30469,2.86524,8.81706,8.81706,0,0,1-.127,1.541,6.96056,6.96056,0,0,1-.32812,1.23047,4.643,4.643,0,0,1-.49219.95313,4.45705,4.45705,0,0,1-.59961.7207,3.78875,3.78875,0,0,1-.66406.50391,4.65934,4.65934,0,0,1-.666.33789,4.43231,4.43231,0,0,1-.63086.20019,4.60763,4.60763,0,0,1-.52734.09961c-.13281.01465-.26172.02539-.38867.0332H27.5459a5.37765,5.37765,0,0,1-3.01953-.96972,4.19563,4.19563,0,0,1-1.71192-3.23145H25.1416A2.15325,2.15325,0,0,0,27.458,28.005a2.04512,2.04512,0,0,0,1.42969-.45508,2.69769,2.69769,0,0,0,.7207-1.42969,9.77372,9.77372,0,0,0,.13281-1.5957,5.38774,5.38774,0,0,0-.12695-1.22461,3.07368,3.07368,0,0,0-.32227-.85937,2.308,2.308,0,0,0-.45312-.54883,1.899,1.899,0,0,0-.48242-.32129,2.219,2.219,0,0,0-.4668-.13867,3.46169,3.46169,0,0,0-.47656-.03321H27.3916a2.29171,2.29171,0,0,0-2.084,1.3418H23.11328V13.9718h8.63379v2.32812H25.30762v3.65723a4.02952,4.02952,0,0,1,2.59375-.88672,3.922,3.922,0,0,1,1.67968.35547,3.87021,3.87021,0,0,1,1.2129.84179A4.59922,4.59922,0,0,1,31.76465,21.83605Z" fill="url(#Beschriftung_schwarz)"/></g></svg>