<svg xmlns="http://www.w3.org/2000/svg" xmlns:xlink="http://www.w3.org/1999/xlink" viewBox="0 0 44 44"><defs><linearGradient id="Rahmen_schwarz" x1="3" y1="22" x2="41" y2="22" gradientUnits="userSpaceOnUse"><stop offset="0" stop-color="#010101"/><stop offset="0"/></linearGradient></defs><g id="Unbegrenzt"><path id="Rahmen_schwarz-2" data-name="Rahmen_schwarz" d="M22,3a19.00241,19.00241,0,0,0-9.05243,35.70874l.00775.00806.00293-.00293A19.00119,19.00119,0,1,0,22,3Zm15.23639,9.447L12.44708,37.23633c-.4107-.25806-.808-.53284-1.19549-.82233L36.41406,11.25159C36.70349,11.639,36.97833,12.03632,37.23639,12.447ZM33.46387,8.12317,8.12323,33.46381c-.287-.34705-.55035-.71338-.81116-1.08161L32.3822,7.31207C32.75043,7.57281,33.11682,7.83612,33.46387,8.12317ZM22,4a17.88812,17.88812,0,0,1,9.17285,2.53271L6.53271,31.17279A17.97341,17.97341,0,0,1,22,4ZM9.07007,34.50568,34.50568,9.07007c.35638.34479.69366.70746,1.02069,1.08044l-25.3758,25.3758C9.77759,35.19928,9.41486,34.86212,9.07007,34.50568ZM22,40a17.90474,17.90474,0,0,1-8.2934-2.03448L37.96552,13.7066A17.98443,17.98443,0,0,1,22,40Z" fill="url(#Rahmen_schwarz)"/></g></svg>