<svg xmlns="http://www.w3.org/2000/svg" viewBox="0 0 40 40"><g id="EA45_flag_uruguay"><rect y="7" width="40" height="26" fill="#fff" /><rect x="14.81481" y="9.88889" width="25.18519" height="2.88889" fill="#0038a8" /><rect x="14.81481" y="15.66667" width="25.18519" height="2.88889" fill="#0038a8" /><rect y="21.44444" width="40" height="2.88889" fill="#0038a8" /><rect y="27.22222" width="40" height="2.88889" fill="#0038a8" /><path d="M7.072,15.52264l.49042.73231c-2.01519,1.45835-.78489,2.32074-2.213,2.78754.88822-.86681-.13986-.93988.6085-2.74658" fill="#fcd116" stroke="#000" stroke-linecap="square" stroke-miterlimit="20" stroke-width="0.02667" /><path d="M6.72141,15.73021c-1.11184,1.83253-.38266,2.84013-1.372,3.31228" fill="none" stroke="#000" stroke-miterlimit="20" stroke-width="0.02667" /><path d="M7.40741,14.07407h.97778l-.97778,5.37778-.97778-5.37778h.97778v5.37778" fill="#fcd116" stroke="#000" stroke-miterlimit="20" stroke-width="0.02667" /><path d="M6.14593,14.86118l-.171.8646c-2.45616-.39374-2.196,1.086-3.5359.40628,1.241.01513.5657-.76349,2.3724-1.51185" fill="#fcd116" stroke="#000" stroke-linecap="square" stroke-miterlimit="20" stroke-width="0.02667" /><path d="M5.75127,14.76007c-2.082.50961-2.27886,1.73769-3.31228,1.372" fill="none" stroke="#000" stroke-miterlimit="20" stroke-width="0.02667" /><path d="M7.40741,14.07407l.69139.6914L3.60474,17.87674,6.716,13.38268l.6914.69139L3.60474,17.87674" fill="#fcd116" stroke="#000" stroke-miterlimit="20" stroke-width="0.02667" /><path d="M5.95884,13.73864l-.73231.49042c-1.45835-2.01518-2.32073-.78489-2.78754-2.213.86682.88821.93988-.13986,2.74658.6085" fill="#fcd116" stroke="#000" stroke-linecap="square" stroke-miterlimit="20" stroke-width="0.02667" /><path d="M5.75127,13.38808c-1.83253-1.11184-2.84013-.38266-3.31228-1.372" fill="none" stroke="#000" stroke-miterlimit="20" stroke-width="0.02667" /><path d="M7.40741,14.07407v.97778l-5.37778-.97778,5.37778-.97777v.97777H2.02963" fill="#fcd116" stroke="#000" stroke-miterlimit="20" stroke-width="0.02667" /><path d="M6.6203,12.8126l-.8646-.171c.39374-2.45617-1.086-2.196-.40628-3.5359-.01513,1.241.76349.5657,1.51185,2.37239" fill="#fcd116" stroke="#000" stroke-linecap="square" stroke-miterlimit="20" stroke-width="0.02667" /><path d="M6.72141,12.41793c-.5096-2.082-1.73768-2.27885-1.372-3.31227" fill="none" stroke="#000" stroke-miterlimit="20" stroke-width="0.02667" /><path d="M7.40741,14.07407l-.6914.6914L3.60474,10.27141,8.0988,13.38268l-.69139.69139L3.60474,10.27141" fill="#fcd116" stroke="#000" stroke-miterlimit="20" stroke-width="0.02667" /><path d="M7.74284,12.62551l-.49042-.73231c2.01518-1.45835.78489-2.32074,2.213-2.78754-.88821.86681.13986.93988-.6085,2.74657" fill="#fcd116" stroke="#000" stroke-linecap="square" stroke-miterlimit="20" stroke-width="0.02667" /><path d="M8.0934,12.41793c1.11184-1.83252.38267-2.84012,1.372-3.31227" fill="none" stroke="#000" stroke-miterlimit="20" stroke-width="0.02667" /><path d="M7.40741,14.07407H6.42963L7.40741,8.6963l.97778,5.37777H7.40741V8.6963" fill="#fcd116" stroke="#000" stroke-miterlimit="20" stroke-width="0.02667" /><path d="M8.66889,13.287l.171-.8646c2.45616.39374,2.196-1.086,3.5359-.40628-1.241-.01513-.56571.76349-2.3724,1.51185" fill="#fcd116" stroke="#000" stroke-linecap="square" stroke-miterlimit="20" stroke-width="0.02667" /><path d="M9.06355,13.38808c2.082-.50961,2.27885-1.73769,3.31228-1.372" fill="none" stroke="#000" stroke-miterlimit="20" stroke-width="0.02667" /><path d="M7.40741,14.07407l-.6914-.69139,4.49406-3.11127L8.0988,14.76547l-.69139-.6914,3.80266-3.80266" fill="#fcd116" stroke="#000" stroke-miterlimit="20" stroke-width="0.02667" /><path d="M8.856,14.40951l.7323-.49043c1.45835,2.01519,2.32074.78489,2.78755,2.213-.86682-.88822-.93988.13986-2.74658-.6085" fill="#fcd116" stroke="#000" stroke-linecap="square" stroke-miterlimit="20" stroke-width="0.02667" /><path d="M9.06355,14.76007c1.83253,1.11184,2.84012.38266,3.31228,1.372" fill="none" stroke="#000" stroke-miterlimit="20" stroke-width="0.02667" /><path d="M7.40741,14.07407V13.0963l5.37778.97777-5.37778.97778v-.97778h5.37778" fill="#fcd116" stroke="#000" stroke-miterlimit="20" stroke-width="0.02667" /><path d="M8.19451,15.33555l.8646.171c-.39374,2.45616,1.086,2.196.40628,3.5359.01514-1.241-.76349-.5657-1.51185-2.3724" fill="#fcd116" stroke="#000" stroke-linecap="square" stroke-miterlimit="20" stroke-width="0.02667" /><path d="M8.0934,15.73021c.50961,2.082,1.73769,2.27886,1.372,3.31228" fill="none" stroke="#000" stroke-miterlimit="20" stroke-width="0.02667" /><path d="M7.40741,14.07407l.69139-.69139,3.11127,4.49406L6.716,14.76547l.6914-.6914,3.80266,3.80267" fill="#fcd116" stroke="#000" stroke-miterlimit="20" stroke-width="0.02667" /><circle cx="7.40741" cy="14.07407" r="1.79259" fill="#fcd116" stroke="#000" stroke-miterlimit="20" stroke-width="0.02667" /><g id="right"><path d="M8.72741,13.357c-.11408.13037-.17926-.09778-.58667-.09778s-.47259.24444-.53778.19555.34223-.34222.4726-.35851a1.15126,1.15126,0,0,1,.65185.26074m-.4726.14666a.18836.18836,0,0,1-.09777.30963c-.11408,0-.32593-.19555-.22815-.32592" /><path d="M7.717,13.65037c.01629-.19556.17926-.22815.44-.22815s.37481.19556.47259.24445c-.11407,0-.21185-.163-.47259-.163s-.26074,0-.44.163m.04889.03259c.06518-.09778.14666.09778.32592.09778a.59464.59464,0,0,0,.39111-.13037c.11408-.08148-.163.19555-.34222.19555s-.4237-.09778-.37481-.163" /><path d="M8.32,13.797a.1626.1626,0,0,0,0-.30963c.03259.03259.163.19555,0,.30963m-.91259.97777c.09778,0,.13037-.03259.26074-.03259s.44.17926.61926.11408c-.37482.14666-.22815.04889-.88.04889H7.32593m1.02666.09777a1.8997,1.8997,0,0,0-.17926-.26074c.13037.09778.163.14667.17926.26074m-.94518.163c.4074,0,.34222-.08149.88-.30963a5.26466,5.26466,0,0,1-.88.17926H7.32593m.08148-.4726c.11407,0,.14666-.08148.277-.08148a.73781.73781,0,0,1,.39112.11408.23265.23265,0,0,0-.17926-.14667c-.13037-.0163-.08149-.22815-.22815-.26074,0,.06518.04889.04889.06518.14666,0,.08149-.14666.08149-.17926,0,.0326.13038-.06518.13038-.14666.13038" /></g><g id="right-2" data-name="right"><path d="M6.08741,13.357c.11407.13037.17926-.09778.58666-.09778s.4726.24444.53778.19555-.34222-.34222-.47259-.35851a1.15123,1.15123,0,0,0-.65185.26074M6.56,13.5037a.18836.18836,0,0,0,.09778.30963c.11407,0,.32592-.19555.22815-.32592" /><path d="M7.09778,13.65037c-.0163-.19556-.17926-.22815-.44-.22815s-.37482.19556-.47259.24445c.11407,0,.21185-.163.47259-.163s.26074,0,.44.163m-.04889.03259c-.06519-.09778-.14667.09778-.32593.09778a.59466.59466,0,0,1-.39111-.13037c-.11407-.08148.163.19555.34222.19555s.42371-.09778.37482-.163" /><path d="M6.49481,13.797a.1626.1626,0,0,1,0-.30963c-.03259.03259-.163.19555,0,.30963m.9126.97777c-.09778,0-.13037-.03259-.26074-.03259s-.44.17926-.61926.11408c.37481.14666.22815.04889.88.04889h.08148M6.46222,15.003a1.90064,1.90064,0,0,1,.17926-.26074c-.13037.09778-.163.14667-.17926.26074m.94519.163c-.40741,0-.34222-.08149-.88-.30963a5.26446,5.26446,0,0,0,.88.17926h.08148m-.08148-.4726c-.11408,0-.14667-.08148-.277-.08148a.73775.73775,0,0,0-.39111.11408.23263.23263,0,0,1,.17926-.14667c.13037-.0163.08148-.22815.22815-.26074,0,.06518-.04889.04889-.06519.14666,0,.08149.14667.08149.17926,0-.03259.13038.06519.13038.14667.13038" /></g><path d="M7.40741,15.31259c-.08148,0-.29334.04889,0,.04889s.08148-.04889,0-.04889" /></g></svg>