<svg xmlns="http://www.w3.org/2000/svg" xmlns:xlink="http://www.w3.org/1999/xlink" viewBox="0 0 44 53"><defs><linearGradient id="Hintergrund_weiss" x1="1.99982" y1="45.35782" x2="42.00018" y2="45.35782" gradientUnits="userSpaceOnUse"><stop offset="0" stop-color="#fff"/></linearGradient><linearGradient id="Rahmen_schwarz" x1="1.99322" y1="44.77871" x2="42.00678" y2="44.77871" gradientUnits="userSpaceOnUse"><stop offset="0" stop-color="#010101"/></linearGradient><linearGradient id="Beschriftung_schwarz" x1="10.74512" y1="45.10298" x2="33.25488" y2="45.10298" xlink:href="#Rahmen_schwarz"/></defs><title>zusatzschild_school_work_kmh</title><g id="zusatzschild_kmh"><path id="Hintergrund_weiss-2" data-name="Hintergrund_weiss" d="M1.99982,39.7156v9.06292a2.21615,2.21615,0,0,0,2.21069,2.22153h35.579a2.21615,2.21615,0,0,0,2.21069-2.22153V39.7156Z" fill="url(#Hintergrund_weiss)"/><path id="Rahmen_schwarz-2" data-name="Rahmen_schwarz" d="M40.99322,38.55738,41.00678,48.8a1.15538,1.15538,0,0,1-1.20007,1.2h-35.6a1.15535,1.15535,0,0,1-1.2-1.2L2.99322,38.55738h-1L2.00678,48.8a2.21952,2.21952,0,0,0,2.2,2.2h35.6a2.21955,2.21955,0,0,0,2.20007-2.2l-.01356-10.24266Z" fill="url(#Rahmen_schwarz)" stroke-width="0.5px" stroke="url(#Rahmen_schwarz)"/><path id="Beschriftung_schwarz-2" data-name="Beschriftung_schwarz" d="M14.76465,48.50776H13.56543l-.96-2.33008-.66016.90039v1.42969H10.74512V42.30757l1.20019-.60938v3.60938l1.29-1.66016h1.47949l-1.29,1.55078Zm7.75,0H21.31543V45.59761a.93083.93083,0,0,0-.22559-.65528.79253.79253,0,0,0-.61523-.24414.8101.8101,0,0,0-.59961.25488.8216.8216,0,0,0-.25.59473v2.96H18.47461V45.59761a.87906.87906,0,0,0-.88965-.89942.73885.73885,0,0,0-.57519.25.89271.89271,0,0,0-.22461.61914v2.94043H15.585V43.61811h1.2002v.39942a1.61834,1.61834,0,0,1,2.42968.24023,1.56991,1.56991,0,0,1,1.37989-.67969,1.78147,1.78147,0,0,1,1.41992.62989,2.04921,2.04921,0,0,1,.5,1.33007Zm6.21-6.70019-4.62012,6.70019H22.97461l4.57031-6.70019Zm.41992.45019,1.12988-.55957v2.3291a1.6084,1.6084,0,0,1,1.19043-.44922A1.65646,1.65646,0,0,1,32.75,44.123a2.06068,2.06068,0,0,1,.50488,1.415v2.96973H32.05469V45.59761a.89488.89488,0,0,0-.23535-.63965.82749.82749,0,0,0-.63477-.25.88528.88528,0,0,0-.63477.26465.81987.81987,0,0,0-.27539.60546v2.92969H29.14453Z" fill="url(#Beschriftung_schwarz)"/></g></svg>