<svg xmlns="http://www.w3.org/2000/svg" viewBox="0 0 65 56"><defs><style>.cls-1,.cls-2{fill:none;stroke:#fff;stroke-miterlimit:10;stroke-width:2px;}.cls-1,.cls-4{fill-rule:evenodd;}.cls-3,.cls-4{fill:#fff;}</style></defs><g id="E10C_fuel"><g id="V1"><path class="cls-1" d="M18,44V13.75a2.1603,2.1603,0,0,1,2-2.25H34a2.1603,2.1603,0,0,1,2,2.25V44"/><path class="cls-2" d="M33,24H21"/><path class="cls-2" d="M35.9109,24.5h2.36561A2.8506,2.8506,0,0,1,41,27.3704V36.5c0,2.13473-.04455,4.15317,2.5,4.15317,2.5,0,2.5-1.99151,2.5-4.15317v-18"/><path class="cls-3" d="M15,43H39v2H15Z"/><path class="cls-4" d="M44.76616,14.43323a13.60535,13.60535,0,0,0-5.14789-3.20771l-.0567-.00085L39.14806,12.366a18.28705,18.28705,0,0,1,4.25665,3.6579c1.99469,2.47412,2.16333,7.23346,2.16333,7.23346l2.94464-2.55579A19.90441,19.90441,0,0,0,44.76616,14.43323Z"/></g></g></svg>