<svg xmlns="http://www.w3.org/2000/svg" viewBox="0 0 65 56"><defs><style>.cls-1{fill:#fff;}</style></defs><g id="E125-001_automatisches_fernlicht"><path class="cls-1" d="M11.75355,21.13431,6.5,34.86541H8.338l1.27519-3.48634h6.165l1.28,3.48634H18.984l-5.2859-13.7311Zm-1.6102,8.73121,2.00994-5.46281q.1397-.4071.29354-.84938a8.61922,8.61922,0,0,0,.26048-.91478,7.89611,7.89611,0,0,0,.23751.91719q.1441.44436.30216.84691l1.98709,5.46287ZM29.96,30.23589a4.8709,4.8709,0,0,1-.20059,1.47215,2.4398,2.4398,0,0,1-1.66572,1.67344,8.94169,8.94169,0,0,1-2.014.20616,4.87039,4.87039,0,0,1-1.50259-.20616,2.53523,2.53523,0,0,1-1.04483-.62467,2.58712,2.58712,0,0,1-.61169-1.04877,4.87279,4.87279,0,0,1-.19985-1.47215V21.13431h-1.7966v9.40716a6.42641,6.42641,0,0,0,.13995,1.3888,4.20055,4.20055,0,0,0,.41843,1.13394,3.35951,3.35951,0,0,0,.70274.88447,3.77382,3.77382,0,0,0,.99561.63409,5.52761,5.52761,0,0,0,1.298.382,9.29309,9.29309,0,0,0,1.60067.12765,16.23916,16.23916,0,0,0,2.10034-.12765,5.57465,5.57465,0,0,0,1.29794-.382,3.84788,3.84788,0,0,0,1.003-.63409,3.39113,3.39113,0,0,0,.71162-.88447,4.11713,4.11713,0,0,0,.42376-1.13394,6.41776,6.41776,0,0,0,.13906-1.3888V21.13431H29.95988Zm4.88709-7.62936h4.25777V34.86542h1.78675V22.60653h4.25777V21.13431H34.847Zm23.51406,3.43509a8.40774,8.40774,0,0,0-.43789-1.71055A5.85873,5.85873,0,0,0,57.16,22.90964a4.59441,4.59441,0,0,0-1.11868-1.07847,5.07125,5.07125,0,0,0-1.50259-.68517,7.07081,7.07081,0,0,0-1.91019-.23832,6.93224,6.93224,0,0,0-1.90818.2427,5.177,5.177,0,0,0-1.50278.692A4.61632,4.61632,0,0,0,48.094,22.93057a6.06646,6.06646,0,0,0-.768,1.42831,8.45613,8.45613,0,0,0-.44177,1.71292,12.734,12.734,0,0,0-.142,1.94193,13.0136,13.0136,0,0,0,.14016,1.94668,8.3795,8.3795,0,0,0,.43683,1.71055,5.96,5.96,0,0,0,.7612,1.419,4.58924,4.58924,0,0,0,1.11372,1.07848,5.04312,5.04312,0,0,0,1.49878.68517,7.03745,7.03745,0,0,0,1.90725.23868,6.96415,6.96415,0,0,0,1.90836-.24307,5.158,5.158,0,0,0,1.50736-.69256,4.62907,4.62907,0,0,0,1.12559-1.08763,6.06465,6.06465,0,0,0,.773-1.4259,8.27691,8.27691,0,0,0,.44471-1.71277A13.58362,13.58362,0,0,0,58.36113,26.04162Zm-1.81229,3.493a7.27548,7.27548,0,0,1-.30273,1.35179,5.1665,5.1665,0,0,1-.52315,1.12471,3.37923,3.37923,0,0,1-.76122.85432,3.30336,3.30336,0,0,1-1.02351.54381,4.57344,4.57344,0,0,1-2.62237,0,3.333,3.333,0,0,1-1.02757-.54381,3.37212,3.37212,0,0,1-.76594-.85432,5.02772,5.02772,0,0,1-.52517-1.12471,7.18761,7.18761,0,0,1-.3007-1.35179,12.6973,12.6973,0,0,1,0-3.06719,7.23887,7.23887,0,0,1,.3007-1.3517,4.9725,4.9725,0,0,1,.52517-1.12526,3.4299,3.4299,0,0,1,.76594-.85386,3.26425,3.26425,0,0,1,1.02757-.5438,4.61263,4.61263,0,0,1,2.62034,0,3.22391,3.22391,0,0,1,1.02554.5438,3.43725,3.43725,0,0,1,.76122.85386,5.10755,5.10755,0,0,1,.52315,1.12526,7.32735,7.32735,0,0,1,.30273,1.3517A12.43054,12.43054,0,0,1,56.54884,29.53464Z"/></g></svg>