<svg xmlns="http://www.w3.org/2000/svg" viewBox="0 0 65 56"><defs><style>.cls-1{fill:none;stroke:#fff;stroke-miterlimit:10;stroke-width:2.5px;}</style></defs><g id="E12B_Gurtschloss_offen"><rect class="cls-1" x="27.5" y="1.25" width="10" height="8" rx="1"/><path class="cls-1" d="M21.05323,44.48805c-.9633-.82569-2.60127-6.14746-2.27072-11.33943a78.97084,78.97084,0,0,1,2.76613-15.99079c1.07423-3.18584,1.78246-3.36677,3.726-3.77064A48.23833,48.23833,0,0,1,32.5,13a48.23833,48.23833,0,0,1,7.22533.38719c1.94357.40387,2.6518.5848,3.726,3.77064a78.97084,78.97084,0,0,1,2.76613,15.99079c.33055,5.192-1.30742,10.51374-2.27072,11.33943"/><path class="cls-1" d="M32.5,54.75c-16.04858.05505-14.42108-4.48215-14.39172-8.17021.018-2.25748,1.48623-2.09174,1.48623-2.09174L32.5,44.5l12.90549-.01195s1.46826-.16574,1.48623,2.09174C46.92108,50.26785,48.54858,54.80505,32.5,54.75Z"/></g></svg>