<svg xmlns="http://www.w3.org/2000/svg" viewBox="0 0 65 56"><defs><style>.cls-1{fill:#fff;}</style></defs><g id="E12C_Gurtschloss_geschlossen"><path class="cls-1" d="M32.449,11.38733a5.69367,5.69367,0,1,0-5.69348-5.6969A5.69452,5.69452,0,0,0,32.449,11.38733Z"/><path class="cls-1" d="M23.05164,36.21478a36.01726,36.01726,0,0,1,21.9071,1.02039c.25513-2.03491.34821-3.82367.4054-5.58838a21.02136,21.02136,0,0,0-.28522-4.80841A59.98461,59.98461,0,0,0,42.70471,17.45a5.7904,5.7904,0,0,0-3.04638-3.51758l-.138-.05407L22.82056,33.19543C22.86853,34.16174,22.94067,35.15814,23.05164,36.21478Z"/><path class="cls-1" d="M45.208,7.28741,42.88788,4.99432l-6.85529,7.92975s2.61737.654,3.48773.95429Z"/><path class="cls-1" d="M20.42542,40.50684a137.22859,137.22859,0,0,0,3.54187,14.66485A.98577.98577,0,0,0,24.87946,56h4.30706a.74178.74178,0,0,0,.62427-.93646c-1.19745-5.25836-1.72577-6.9632-2.539-11.86743-.039-.31226.07776-.52832.32086-.56434a43.84649,43.84649,0,0,1,4.83545-.40814,43.89968,43.89968,0,0,1,4.83514.40814c.24616.036.36017.25208.32117.56434-.80438,4.856-1.6477,7.61749-2.527,11.80133A.8253.8253,0,0,0,35.78949,56h3.88086A1.3471,1.3471,0,0,0,40.967,54.91351a126.4991,126.4991,0,0,0,3.45453-14.43066,32.61222,32.61222,0,0,0-23.99609.024Z"/><path class="cls-1" d="M19.501,32.06073,36.03259,12.92407a6.38782,6.38782,0,0,1-3.58947,1.1344,6.48532,6.48532,0,0,1-3.65278-1.17071c-.18316.04828-2.95941.75641-3.60168,1.00872A5.79208,5.79208,0,0,0,22.14227,17.414a60.06463,60.06463,0,0,0-2.37121,9.38843,20.90482,20.90482,0,0,0-.288,4.808Z"/><path class="cls-1" d="M48.78766,38.89667a36.20482,36.20482,0,0,0-3.8169-1.65534l-.54614,3.23542c.91242.3598,1.79566.77435,2.66486,1.213Z"/><path class="cls-1" d="M17.778,41.72229c.865-.43909,1.74316-.85461,2.6474-1.21545-.29236-1.50476-.48243-2.73633-.61536-3.87067l-3.00879,3.47394Z"/></g></svg>