<svg xmlns="http://www.w3.org/2000/svg" viewBox="0 0 65 56"><defs><style>.cls-1{fill:#fff;fill-rule:evenodd;}</style></defs><g id="Ebene_1" data-name="Ebene 1"><path class="cls-1" d="M52.15025,44.84069l2.365-2.377c-.38418-.29412-.76836-.58241-1.17033-.86455a35.94243,35.94243,0,0,0-8.37416-4.35781l-.54615,3.23539A32.28874,32.28874,0,0,1,52.15025,44.84069ZM45.208,7.2874,42.8879,4.99432l-6.85529,7.92975s2.61734.654,3.48773.9543Zm-5.68765,6.591L22.82053,33.19548c.048.96628.12017,1.96269.23112,3.01933a36.01741,36.01741,0,0,1,21.90712,1.02038c.2551-2.03492.34819-3.82365.40535-5.58841a21.02166,21.02166,0,0,0-.28518-4.80838A59.99418,59.99418,0,0,0,42.70472,17.45a5.79033,5.79033,0,0,0-3.04638-3.51754ZM20.42544,40.50685a32.6124,32.6124,0,0,1,23.99606-.024A126.49459,126.49459,0,0,1,40.967,54.91354,1.34715,1.34715,0,0,1,39.67032,56H35.78951a.82529.82529,0,0,1-.73213-1.00255c.87931-4.18386,1.72266-6.94533,2.527-11.80135.039-.31226-.075-.52832-.32117-.56428a43.88663,43.88663,0,0,0-4.83512-.40819,43.8335,43.8335,0,0,0-4.83542.40819c-.24311.036-.3599.252-.3209.56428.81326,4.90427,1.34155,6.6091,2.539,11.86743A.74179.74179,0,0,1,29.18652,56H24.87945a.98575.98575,0,0,1-.91219-.82829A137.22633,137.22633,0,0,1,20.42544,40.50685ZM19.501,32.06077,10.48475,42.49382l2.31429,2.3229a32.867,32.867,0,0,1,7.6264-4.30987A50.39694,50.39694,0,0,1,19.501,32.06077ZM26.75547,5.69045A5.69215,5.69215,0,1,0,32.449,0,5.69506,5.69506,0,0,0,26.75547,5.69045Zm2.03489,7.19731c-.18318.0483-2.95941.75641-3.60172,1.00874A5.792,5.792,0,0,0,22.14226,17.414a60.06171,60.06171,0,0,0-2.37118,9.3884,20.90222,20.90222,0,0,0-.288,4.80807l.01786.45026,16.53165-19.1367a6.38789,6.38789,0,0,1-3.58949,1.1344A6.48508,6.48508,0,0,1,28.79036,12.88776Z"/></g></svg>