<svg xmlns="http://www.w3.org/2000/svg" viewBox="0 0 65 56"><defs><style>.cls-1,.cls-2{fill:#fff;}.cls-2{fill-rule:evenodd;}</style></defs><g id="E13F_Oeltemperatur"><path class="cls-1" d="M57,41.91427a1.9756,1.9756,0,1,1-3.95119,0c0-1.09109,1.97559-5.23115,1.97559-5.23115S57,40.82318,57,41.91427Z"/><path class="cls-1" d="M18,37.128,6.93625,34.11148,8.84153,27.4731,18,30.02529ZM9.36277,32.389,16,34.21842V31.84551l-6.03546-1.605Z"/><path class="cls-2" d="M35,16V14H29.5V10.81243a1.79981,1.79981,0,0,0-1.85273-1.924,1.76639,1.76639,0,0,0-1.70852,1.924V30.6558s.04561.00786-.08255.08727a3.58592,3.58592,0,1,0,5.5006,3.02942A3.697,3.697,0,0,0,29.5,30.72971V26H35V24H29.5c.00079.00786,0-3,0-3H35s.00236-1.98585,0-2H29.5V16Z"/><path class="cls-1" d="M53.08887,30.13086,36.167,35.07129,33.7998,32.85352h-.53649a4.94463,4.94463,0,0,1,.09411.91894,5.5601,5.5601,0,0,1-.15057,1.2666l2.425,2.27246L46.834,34.04,37.919,44H18V35H22.265a7.19116,7.19116,0,0,1-.10724-1.22754A3.94153,3.94153,0,0,1,22.24084,33H16V46H38.82715l11.57519-13.002,2.10645-.61524,2.335,2.34571,1.418-1.41211Z"/></g></svg>