<svg xmlns="http://www.w3.org/2000/svg" viewBox="0 0 65 56"><defs><style>.cls-1,.cls-5{fill:#fff;}.cls-2,.cls-3,.cls-4{fill:none;stroke:#fff;stroke-miterlimit:10;}.cls-2{stroke-width:2.04646px;}.cls-2,.cls-5{fill-rule:evenodd;}.cls-3{stroke-width:1.89324px;}.cls-4{stroke-width:2px;}</style></defs><g id="E150_fuel_phev_range_total"><path class="cls-1" d="M56.75,18H58v4.64644a3.47484,3.47484,0,0,1-2.631,3.59437l-.21438.04677-.96551.01564-.21846-.04517A3.732,3.732,0,0,1,51,22.73388V18h1.25V14H53.5v4h2V14h1.25Z"/><path class="cls-2" d="M8,39.81913V18.12739a1.53381,1.53381,0,0,1,1.43182-1.67255h8.8495A1.778,1.778,0,0,1,20,18.12739V39.81913"/><path class="cls-3" d="M18,25H10"/><path class="cls-4" d="M20.97388,25.5s1.12226.02958,1.76,0A1.5754,1.5754,0,0,1,24.5,27.262V35c0,1.58819.2935,3.14408,2,3.14408s2-1.53586,2-3.14408V20.66267"/><path class="cls-1" d="M6,39H22v2H6Z"/><path class="cls-5" d="M27.82656,17.38645A10.122,10.122,0,0,0,23.99666,15l-.24666.45484-.36776.6443a13.60524,13.60524,0,0,1,3.16685,2.72139c1.484,1.84068,1.60946,5.38151,1.60946,5.38151L30.61388,22.05A14.80848,14.80848,0,0,0,27.82656,17.38645Z"/><path class="cls-2" d="M34,39.81913V18.12739a1.53381,1.53381,0,0,1,1.43182-1.67255h8.8495A1.778,1.778,0,0,1,46,18.12739V39.81913"/><path class="cls-3" d="M44,25H36"/><path class="cls-4" d="M46.97388,25.5s1.12226.02958,1.76,0A1.5754,1.5754,0,0,1,50.5,27.262V35c0,1.58819.2935,3.14408,2,3.14408s2-1.53586,2-3.14408V20.66267"/><path class="cls-1" d="M32,39H48v2H32Z"/></g></svg>