<svg id="E10C_fuel" xmlns="http://www.w3.org/2000/svg" viewBox="0 0 65 56"><defs><style>.cls-1{fill:none;stroke:#fff;stroke-miterlimit:10;stroke-width:2px;}.cls-2{fill:#fff;}</style></defs><g id="E10C_fuel-2" data-name="E10C_fuel"><path class="cls-1" d="M16.99995,44V13.75a2.1603,2.1603,0,0,1,2-2.25H33a2.16028,2.16028,0,0,1,2,2.25V44"/><path class="cls-1" d="M32,24h-12"/><path class="cls-1" d="M34.91085,24.5h1.36561A2.85059,2.85059,0,0,1,39,27.3704V36.5c0,2.13473.95545,4.15317,3.5,4.15317,2.5,0,3.5-1.99151,3.5-4.15317v-18"/><path class="cls-2" d="M14,43H38v2H14Z"/><path class="cls-2" d="M49,16h2l-.00612,5.05687a4.959,4.959,0,0,1-3.75471,5.12957l-.30594.06676-1.3779.02231-.31176-.06446a5.326,5.326,0,0,1-4.23947-5.0294L41,16h2V11h2v5h2V11h2Z"/></g></svg>