<svg xmlns="http://www.w3.org/2000/svg" viewBox="0 0 65 56"><defs><style>.cls-1{fill:#fff;}.cls-2{fill:none;stroke:#fff;stroke-miterlimit:10;stroke-width:2px;fill-rule:evenodd;}</style></defs><g id="E153_spannungsfreiheit_ein"><g id="Version-2"><path class="cls-1" d="M50.43268,42.24377,32.8302,12.79156c-.04559-.0874-.16931-.29156-.3302-.29156-.16095,0-.28461.20416-.3302.29156l-.066.11768L14.55615,42.2652a.54456.54456,0,0,0-.05255.24646c0,.26324.332.48834.60364.48834h34.786c.2716,0,.60272-.2251.60272-.48834A.55858.55858,0,0,0,50.43268,42.24377ZM36.69366,36.5l-5.20459,5.495L29.2099,36.5h2.87469l1.55127-6.87891L26.241,33.40167,30.33313,18h4.37616L30.07861,28.75732,38.759,25.5509,33.74792,36.5Z"/><path class="cls-2" d="M32.5,46.01147H14.2387A3.10922,3.10922,0,0,1,11.105,42.999a3.07636,3.07636,0,0,1,.391-1.51169L29.93822,10.6357a2.8157,2.8157,0,0,1,5.12356,0L53.504,41.48736a3.07636,3.07636,0,0,1,.391,1.51169,3.10922,3.10922,0,0,1-3.13372,3.01242Z"/></g></g></svg>