<svg xmlns="http://www.w3.org/2000/svg" viewBox="0 0 65 56"><defs><style>.cls-1{fill:#fff;fill-rule:evenodd;}.cls-2{fill:none;stroke:#fff;stroke-width:2px;}</style></defs><g id="E157_ESP"><g id="V1"><path class="cls-1" d="M52.2685,38.79531c-3.19,1.2351-7.112,2.46018-10.302,3.57216-1.075.37533-1.324.9108-1.288,1.60641.034.57651,1.347,1.53436,1.874,1.85764a41.27477,41.27477,0,0,0,4.613,3.09073h-5.898c-1.355-.65358-2.286-1.72052-3.893-2.76544-1.132-.73665-2.546-2.05982-2.546-2.74442,0-.84875.303-1.68349,2.735-2.48619,3.536-1.169,5.685-1.87366,8.831-3.02768,2.001-.73565,2.647-.83874,2.647-1.82661,0-.55148-.864-1.41124-1.918-2.24-.6-.47342-1.248-1.101-2.172-1.90969h3.714c1.562.81872,2.131,1.143,4.28,2.43014a2.79289,2.79289,0,0,1,1.576,2.18293C54.5215,37.343,53.9055,38.16176,52.2685,38.79531Zm-34.649,3.57216c-1.077.37533-1.326.9108-1.287,1.60641.031.57651,1.344,1.53436,1.873,1.85764a40.81573,40.81573,0,0,0,4.613,3.09073h-5.897c-1.363-.65358-2.292-1.72052-3.894-2.76544-1.134-.73665-2.549-2.05982-2.549-2.74442,0-.84875.304-1.68349,2.736-2.48619,3.538-1.169,5.685-1.87366,8.83-3.02768,2.002-.73565,2.65-.83874,2.65-1.82661,0-.55148-.866-1.41124-1.92-2.24-.6-.47342-1.246-1.101-2.17-1.90969h3.712c1.565.81872,2.133,1.143,4.282,2.43014a2.80184,2.80184,0,0,1,1.576,2.18293c0,.80771-.618,1.62644-2.256,2.26C24.7315,40.03041,20.8065,41.25549,17.6195,42.36747Z"/><path class="cls-1" d="M51.5,12l-.544,2.0595H48.739l2.551,1.703v11.786a1.24328,1.24328,0,0,1-1.199,1.281H45.413a1.24328,1.24328,0,0,1-1.199-1.281V26H24.786v1.5485a1.248,1.248,0,0,1-1.199,1.281H18.91a1.24817,1.24817,0,0,1-1.2-1.281V15.7625l2.551-1.703H18.045L17.497,12h3.308c.325-.47,2.509-3.5795,4.221-4.1895.837-.297,2.588-.64,8.754-.64h1.44c6.165,0,7.917.343,8.755.64,1.572.599,3.779,3.6125,4.204,4.1895Zm-5.124,1.8415v-.924a10.21531,10.21531,0,0,0-3.085-3.059c-.947-.336-3.677-.514-8.071-.514H33.78c-4.395,0-7.124.178-8.111.529a8.85125,8.85125,0,0,0-3.045,3.02v2.153l-.957.638-1.921,1.283V18H26v2H19.746v6.6555H22.75V24h23.5v2.6555h3.005V20H43V18h6.255V16.9675l-1.922-1.283-.957-.638Z"/><path class="cls-2" d="M21.499,13.99325h26"/></g></g></svg>