<?xml version="1.0" encoding="UTF-8"?><svg id="a" xmlns="http://www.w3.org/2000/svg" viewBox="0 0 65 56"><defs><style>.d{fill:#fff;}.e{fill:none;stroke:#fff;stroke-miterlimit:10;stroke-width:3.5px;}</style></defs><g id="b"><g id="c"><path class="e" d="M50.78864,34.74434c-.84332,.75006-1.7546,1.42004-2.72205,2.00127-.64645,.39079-1.11506,.61986-1.25063,.68438-1.48866,.75613-3.03496,1.39296-4.62436,1.90449-2.89498,.94245-5.93303,1.36893-8.97561,1.25999-.9725,0-6.50095,.25654-6.50095-14.08511s5.579-14.08535,6.50095-14.08535c3.05461-.04762,6.09293,.45394,8.97017,1.48078,1.58859,.51115,3.13404,1.14777,4.62174,1.90384,.13666,.06386,.60574,.29381,1.25324,.68329,.96766,.5817,1.87935,1.2518,2.72338,2.00169,1.93217,1.73013,4.30201,4.47134,4.12589,8.12516,.17607,3.65358-2.18829,6.39419-4.12179,8.12557Z"/><path class="d" d="M8.5,45.92975l14.80746-5.6242c-.37589-.89381-.69831-1.80918-.96554-2.74126l-13.84191,5.24177v3.12369Z"/><path class="d" d="M8.5,39.51395l13.11103-4.93978c-.1281-.82673-.24942-2.03543-.336-2.98718l-12.77502,4.80527v3.12169Z"/><path class="d" d="M8.5,29.9427v3.13789l12.6483-4.52503c-.02058-.68738-.11219-2.2366-.11219-2.97923,0-.22398,.00609,.10187,.00804-.11696l-12.54415,4.48333Z"/><path class="d" d="M8.5,24.09969v2.66628l12.73749-4.48819c.07021-1.039,.10735-2.78562,.22463-3.22193l-12.96213,5.04384Z"/><path class="d" d="M8.5,17.73525v3.12854l13.77052-4.89913c.25802-1.20528,.60503-2.38978,1.03817-3.54376l-14.8087,5.31434Z"/></g></g></svg>