<svg xmlns="http://www.w3.org/2000/svg" viewBox="0 0 65 56"><defs><style>.cls-1{fill:#fff;fill-rule:evenodd;}</style></defs><g id="Ebene_1" data-name="Ebene 1"><path id="V1" class="cls-1" d="M57.5,29.40643v-2.797H48.29064a18.06987,18.06987,0,0,1-.00978,2.797ZM54.93252,41.15617l.959-2.62619-8.66064-3.14782a6.06368,6.06368,0,0,1-1.35713,2.39436Zm1.03422-23.6854-.95669-2.62694-8.99183,3.35406A5.95358,5.95358,0,0,1,47.288,20.62311ZM35.098,27.90478a9.0005,9.0005,0,0,0,6.3265,8.5658,2.36676,2.36676,0,0,0,3.05072-1.64617,23.39171,23.39171,0,0,0,0-13.84,2.36124,2.36124,0,0,0-3.05072-1.64089A8.985,8.985,0,0,0,35.098,27.90478Zm2.78727-.01053a6.02727,6.02727,0,0,1,3.37062-5.48573c.26947-.134.72636-.10839.81443.25818a23.67478,23.67478,0,0,1,.66464,5.23808,23.61545,23.61545,0,0,1-.66464,5.22755c-.08807.36656-.545.39216-.81443.25291A6.02858,6.02858,0,0,1,37.88523,27.89425ZM7.5,29.40643v-2.797h9.2086a18.35684,18.35684,0,0,0,.0128,2.797Zm2.56974,11.74974L9.11,38.53l8.66063-3.14782a6.071,6.071,0,0,0,1.35788,2.39436ZM9.03552,17.47077l.95669-2.62694,8.99107,3.35406A5.98237,5.98237,0,0,0,17.712,20.62311Zm20.868,10.434a8.99967,8.99967,0,0,1-6.32875,8.5658,2.36117,2.36117,0,0,1-3.04545-1.64617,23.34358,23.34358,0,0,1,0-13.84,2.35565,2.35565,0,0,1,3.04545-1.64089A8.98423,8.98423,0,0,1,29.90354,27.90478ZM27.117,27.89425a6.02268,6.02268,0,0,0-3.37137-5.48573c-.26871-.134-.72636-.10839-.81443.25818a23.72322,23.72322,0,0,0-.66388,5.23808,23.6638,23.6638,0,0,0,.66388,5.22755c.08807.36656.54572.39216.81443.25291A6.024,6.024,0,0,0,27.117,27.89425Z"/></g></svg>