<svg xmlns="http://www.w3.org/2000/svg" viewBox="0 0 65 56"><defs><style>.cls-1{fill:#fff;}.cls-2{fill:none;stroke:#fff;stroke-miterlimit:10;stroke-width:2px;}</style></defs><g id="E355_HV_Batterie_Temp"><rect class="cls-1" x="11" y="27.5" width="28" height="1.5"/><rect class="cls-1" x="11" y="2" width="5" height="3.5"/><rect class="cls-1" x="33" y="2" width="5" height="3.5"/><polygon class="cls-2" points="47 26.5 37.5 51.5 47 45 56.5 51.5 47 26.5"/><rect class="cls-1" x="15" y="31.5" width="22" height="1.5"/><polyline class="cls-2" points="41 5 8 5 8 24 41 24"/><path class="cls-1" d="M42.42024,14.98848a3.67682,3.67682,0,0,1-1.45288-.26625,2.89229,2.89229,0,0,1-1.04475-.73473,3.10382,3.10382,0,0,1-.63016-1.10556,4.34948,4.34948,0,0,1-.211-1.37825,4.21949,4.21949,0,0,1,.22295-1.39485,3.158,3.158,0,0,1,.65044-1.11246A2.96544,2.96544,0,0,1,41.00605,8.264,3.597,3.597,0,0,1,42.42024,8,3.764,3.764,0,0,1,43.886,8.264a2.84929,2.84929,0,0,1,1.04383.73243,3.09367,3.09367,0,0,1,.62556,1.11246,4.50035,4.50035,0,0,1,.20913,1.39485,4.44387,4.44387,0,0,1-.09765.94386,3.50379,3.50379,0,0,1-.293.8393,3.24768,3.24768,0,0,1-.48.703,2.8032,2.8032,0,0,1-.656.53711,3.22711,3.22711,0,0,1-.82548.34134A3.87361,3.87361,0,0,1,42.42024,14.98848Zm0-1.18294a1.81791,1.81791,0,0,0,.80153-.16353,1.47347,1.47347,0,0,0,.55462-.46433,2.055,2.055,0,0,0,.32337-.72552,4.01125,4.01125,0,0,0,.10411-.94847,4.08523,4.08523,0,0,0-.10411-.96045,2.0862,2.0862,0,0,0-.32337-.73013,1.46582,1.46582,0,0,0-.55462-.46618,2.02729,2.02729,0,0,0-1.59753,0,1.50116,1.50116,0,0,0-.55922.46618,2.04443,2.04443,0,0,0-.32983.73013,3.93826,3.93826,0,0,0-.10687.96045,3.86677,3.86677,0,0,0,.10687.94847,2.01416,2.01416,0,0,0,.32983.72552,1.50925,1.50925,0,0,0,.55922.46433A1.80416,1.80416,0,0,0,42.42024,13.80554ZM41.56989,21.836,50.465,8.34134h1.674L43.24388,21.836ZM51.57515,22a3.72928,3.72928,0,0,1-1.45841-.264,2.8648,2.8648,0,0,1-1.04383-.73243,3.10423,3.10423,0,0,1-.63016-1.10832,4.34413,4.34413,0,0,1-.2119-1.38056,4.17176,4.17176,0,0,1,.2248-1.39208,3.1998,3.1998,0,0,1,.65319-1.11016,2.99533,2.99533,0,0,1,1.04844-.73519,3.57179,3.57179,0,0,1,1.41787-.26579,3.73541,3.73541,0,0,1,1.4621.26579,2.86688,2.86688,0,0,1,1.04659.73519,3.08744,3.08744,0,0,1,.62556,1.11016,4.44727,4.44727,0,0,1,.20913,1.39208,4.14781,4.14781,0,0,1-.22295,1.38056,3.18248,3.18248,0,0,1-.64767,1.10832,2.95,2.95,0,0,1-1.04936.73243A3.62108,3.62108,0,0,1,51.57515,22Zm0-1.18294a1.7984,1.7984,0,0,0,.79784-.164,1.47774,1.47774,0,0,0,.55278-.46388,2.06088,2.06088,0,0,0,.32337-.726,3.95907,3.95907,0,0,0,.105-.94847,4.031,4.031,0,0,0-.105-.96,2.0824,2.0824,0,0,0-.32337-.73013A1.46809,1.46809,0,0,0,52.373,16.358a2.0258,2.0258,0,0,0-1.59476,0,1.50216,1.50216,0,0,0-.55922.46663,2.10944,2.10944,0,0,0-.33259.73013,3.8859,3.8859,0,0,0-.10872.96,3.81661,3.81661,0,0,0,.10872.94847,2.0878,2.0878,0,0,0,.33259.726,1.51238,1.51238,0,0,0,.55922.46388A1.80547,1.80547,0,0,0,51.57515,20.81706Z"/></g></svg>