<svg id="E2EB_aLDW_off" xmlns="http://www.w3.org/2000/svg" viewBox="0 0 75 56"><defs><style>.cls-1,.cls-2{fill:#fff;}.cls-1,.cls-3{stroke:#fff;}.cls-1{stroke-miterlimit:10;stroke-width:0.39996px;}.cls-1,.cls-2,.cls-3{fill-rule:evenodd;}.cls-3{fill:#010101;stroke-width:2.29977px;}</style></defs><path class="cls-1" d="M55.93347,32.135l3.57187,2.10173v15.1953c0,.96857-1.07626,1.53416-1.82244,1.53416H52.00352a1.5037,1.5037,0,0,1-1.50036-1.54782V47.96754H24.49684V49.4184a1.525,1.525,0,0,1-1.52668,1.54782H17.041a1.54222,1.54222,0,0,1-1.54637-1.54782V34.2368L19.19355,32.135h2.93272v.83913l-4.63113,2.72529v1.27294h9.00219v1.99912H17.49514V48.9671h5.00122V46l2.42859-.03157H52.50364V48.9671h5.00122V38.97151H48.50267V36.97239h9.00219V35.69945l-4.63113-2.72529V32.135Z"/><path class="cls-2" d="M52.87373,32.97416V30.73565c-1.28231-1.79022-3.20477-3.91828-3.993-4.20915-1.22629-.41182-4.76015-.62972-10.44953-.62972H36.56877c-5.69038,0-9.22324.2179-10.50055.64871-.76018.25589-2.58262,2.191-3.94195,4.16017v2.2685L19.19355,32.135H16.19783l-.70918-2.66483h4.28c.4041-.59873,3.07375-4.425,5.29729-5.17571,1.08326-.36484,3.35081-.66071,11.33375-.66071h1.86245c7.98094,0,10.24949.29587,11.33476.66071,2.04549.73767,5.09223,4.428,5.61936,5.17571h4.29505L58.80317,32.135h-2.8697Z"/><path class="cls-3" d="M21.49611,31.9676H53.50389"/><path class="cls-2" d="M13.47867,23.99791H11.51719L13.84575,17h1.57839ZM10.38091,35.99562l-3.17177-.031L10.59,26.029h2.35157ZM6.652,51,2.5,50.993,6.521,39.01229H9.60873Z"/><path class="cls-2" d="M68.365,51,65.40828,39.01929H68.496L72.5,51ZM62.07547,26.029H64.427l3.38082,9.93561-3.17177.031ZM59.59286,17h1.57839l2.32856,6.99791H61.53833Z"/><path class="cls-2" d="M33.43,15.59793a5.878,5.878,0,0,1-.76859,1.40933,4.47824,4.47824,0,0,1-1.14086,1.0718,5.36164,5.36164,0,0,1-1.55321.68091,8.41973,8.41973,0,0,1-3.9819.0025,5.2314,5.2314,0,0,1-1.53807-.67925A4.47966,4.47966,0,0,1,23.319,17.01643a5.80436,5.80436,0,0,1-.7588-1.40017,8.01613,8.01613,0,0,1-.4266-1.68353A13.16667,13.16667,0,0,1,22,12.01834a12.98831,12.98831,0,0,1,.13626-1.92107,8.20725,8.20725,0,0,1,.42928-1.69353,5.65571,5.65571,0,0,1,.76413-1.40934,4.526,4.526,0,0,1,1.13819-1.07179A5.28587,5.28587,0,0,1,26.01574,5.24a8.41964,8.41964,0,0,1,3.98188-.0025,5.26317,5.26317,0,0,1,1.54342.67841,4.51365,4.51365,0,0,1,1.13285,1.0668,5.70747,5.70747,0,0,1,.76146,1.40266,8.11932,8.11932,0,0,1,.42928,1.68437A12.86534,12.86534,0,0,1,34,11.98166a13.04184,13.04184,0,0,1-.13537,1.92357A7.942,7.942,0,0,1,33.43,15.59793Zm-1.49532-5.124a7.12835,7.12835,0,0,0-.29123-1.33932,4.86025,4.86025,0,0,0-.51477-1.11013A3.21056,3.21056,0,0,0,29.3368,6.64936a4.82058,4.82058,0,0,0-2.66291,0,3.23465,3.23465,0,0,0-1.799,1.37517,4.79106,4.79106,0,0,0-.51744,1.11013,7.19839,7.19839,0,0,0-.29212,1.33932,13.0108,13.0108,0,0,0,0,3.05454,7.20209,7.20209,0,0,0,.29212,1.341,4.79125,4.79125,0,0,0,.51744,1.11013,3.23469,3.23469,0,0,0,1.799,1.37516,4.82984,4.82984,0,0,0,2.66558,0,3.21663,3.21663,0,0,0,1.78922-1.37516,4.86045,4.86045,0,0,0,.51477-1.11013,7.13217,7.13217,0,0,0,.29123-1.341,12.88421,12.88421,0,0,0,0-3.05454Z"/><path class="cls-2" d="M38,11h5v1.5H38V19H36V5h8V6.5H38Z"/><path class="cls-2" d="M48,11h5v1.5H48V19H46V5h8V6.5H48Z"/></svg>