<svg xmlns="http://www.w3.org/2000/svg" viewBox="0 0 65 56"><defs><style>.cls-1{fill:#fff;}</style></defs><g id="E300_ABS"><g id="V1"><path class="cls-1" d="M15.51572,27.99691A16.98428,16.98428,0,1,0,32.49828,11.00979,16.98585,16.98585,0,0,0,15.51572,27.99691Zm-3.23594,0a20.22022,20.22022,0,1,1,20.2185,20.22331A20.2171,20.2171,0,0,1,12.27978,27.99691Z"/><g id="V1-2" data-name="V1"><path class="cls-1" d="M52.68149,7.89705,49.012,11.55594a23.27579,23.27579,0,0,1-.01981,32.90881l3.66952,3.65889a28.45123,28.45123,0,0,0,.01981-40.22659Z"/><path class="cls-1" d="M12.3894,48.17421,16.04974,44.506a23.27666,23.27666,0,0,1-.02069-32.99229L12.36876,7.84554a28.45238,28.45238,0,0,0,.02064,40.32867Z"/></g><path class="cls-1" d="M46.74529,30.04046c0,3.165-2.32088,3.543-4.26683,3.543-3.16505,0-3.75857-1.86613-3.62282-3.9802h2.557c0,1.16921.05019,2.14974,1.45553,2.14974a1.224,1.224,0,0,0,1.28743-1.3878c0-2.20269-5.14638-2.33875-5.14638-5.97634,0-1.9133.91226-3.43687,4.02736-3.43687,2.48929,0,3.72622,1.116,3.55509,3.673H44.10543c0-.91519-.15354-1.84826-1.18674-1.84826A1.19222,1.19222,0,0,0,41.59861,24.082C41.59861,26.40253,46.74529,26.196,46.74529,30.04046ZM20.49577,33.37694H17.97443l3.38668-12.2242h3.36883l3.319,12.2242H25.35612l-.67631-2.71061H21.18967Zm3.64065-4.58857L22.89949,23.509l-1.20186,5.27938Zm7.6151-.76193V31.499h1.42016a1.5231,1.5231,0,0,0,1.76273-1.73038c0-1.08061-.40727-1.7422-1.6947-1.7422Zm0-4.99577v3.11788H33.461a1.36946,1.36946,0,0,0,1.33762-1.55894,1.46632,1.46632,0,0,0-1.47337-1.55894ZM33.715,33.37694h-4.5205V21.15274h4.53532c1.94867,0,3.5578.56087,3.5578,3.16535a2.49092,2.49092,0,0,1-2.08443,2.69277c1.81292.28936,2.28822,1.45856,2.28822,3.13572C37.49142,33.24088,34.79865,33.37694,33.715,33.37694Z"/></g></g></svg>