<?xml version="1.0" encoding="utf-8"?>
<!-- Generator: Adobe Illustrator 22.1.0, SVG Export Plug-In . SVG Version: 6.00 Build 0)  -->
<svg version="1.1" id="Ebene_1" xmlns="http://www.w3.org/2000/svg" xmlns:xlink="http://www.w3.org/1999/xlink" x="0px" y="0px"
	 viewBox="0 0 65 56" style="enable-background:new 0 0 65 56;" xml:space="preserve">
<style type="text/css">
	.st0{fill:#FFFFFF;}
</style>
<g id="E307_002_pACC_Offset">
	<path class="st0" d="M43.6,34.8c-0.5-0.5-1-1-1.5-1.5l2.5-2.5l-0.2-0.2c-2.5-2.1-5.7-3.4-9-3.7l-0.3,0v3.6c-0.3,0-0.7,0-1,0
		c-0.4,0-0.7,0-1.1,0v-3.6l-0.3,0c-3.3,0.3-6.4,1.6-8.9,3.7l-0.3,0.2l-1.5-1.4c7.4-6.7,18.8-6.1,25.5,1.3c0,0,0.1,0.1,0.1,0.1
		L43.6,34.8z"/>
</g>
</svg>
