<svg xmlns="http://www.w3.org/2000/svg" viewBox="0 0 65 56"><defs><style>.cls-1,.cls-2{fill:#fff;}.cls-1{fill-rule:evenodd;}</style></defs><g id="E323_etron_warnung"><g id="V1"><path class="cls-1" d="M34.49836,29.92988A3.49992,3.49992,0,0,1,31.217,26.25121V8.74988a3.50024,3.50024,0,0,1,3.28136-3.67976A3.50061,3.50061,0,0,1,37.783,8.74988V26.25121A3.50028,3.50028,0,0,1,34.49836,29.92988Z"/><path class="cls-1" d="M34.5,38.783a3.283,3.283,0,1,1,3.283-3.28356A3.28148,3.28148,0,0,1,34.5,38.783Z"/><path class="cls-2" d="M60.48022,35.28418c-.73846-2.50562-2.4179-2.74664-4.0418-2.97955a20.72252,20.72252,0,0,1-2.07593-.38A25.38061,25.38061,0,0,1,49.88043,29.844a30.83864,30.83864,0,0,0-6.8305-2.99792c-.64038-.14551-1.37714-.27051-2.17249-.37555v2.58917c.57831.08454,1.12854.17682,1.60291.28479a29.84633,29.84633,0,0,1,6.18982,2.759,25.77315,25.77315,0,0,0,5.08374,2.31348,22.93008,22.93008,0,0,0,2.31048.42188c1.52606.2196,1.6853.24316,1.95783,1.16955a19.32746,19.32746,0,0,1,.9132,5.70679l.00214.1839-.17364.06329a6.77239,6.77239,0,0,1-2.194.22272H56.5191a2.79542,2.79542,0,0,0-.28692.00513l-1.32306.001a4.53343,4.53343,0,0,1-9.04157,0H19.73871a4.5329,4.5329,0,0,1-9.04059,0h-.584L6.7002,42.10333a4.10841,4.10841,0,0,1-.40986-.03167L6.06378,42.041v-.26661a3.6308,3.6308,0,0,1,.73261-2.68634c.66253-.81311,1.392-1.44336,4.76471-2.15222,1.81622-.382,7.00952-1.06225,7.5957-1.13891l.12768-.02143a2.24,2.24,0,0,0,1.346-.66906l.25867-.22468c.46381-.3739,1.00189-.856,1.52283-1.3208,1.58325-1.41723,3.69983-3.29889,5.71057-4.06475V26.80029c-.03259.00855-.06952.01557-.10156.02429-2.76148.74671-5.39582,3.10413-7.32,4.82532-.48627.4372-.99066.88971-1.4411,1.25531l-.40186.34632-.0791.01019c-.05554.00714-5.73346.74261-7.74689,1.16547C7.23932,35.225,5.91949,36.11053,4.81238,37.465A6.15653,6.15653,0,0,0,3.5,41.77643c.00214,1.89789.9939,2.81616,3.12164,2.88867l2.11011.05414.06842.14508a7.08556,7.08556,0,0,0,12.81726.04077l.06842-.14905H43.92041l.06946.15015a7.08406,7.08406,0,0,0,12.80285-.01636l.06946-.14508.16138-.00409c2.0257-.04693,4.44623-.55566,4.4762-2.71295A21.96477,21.96477,0,0,0,60.48022,35.28418Z"/></g></g></svg>