<svg id="x" xmlns="http://www.w3.org/2000/svg" viewBox="0 0 65 56"><defs><style>.cls-1,.cls-2{fill:#fff;}.cls-2{fill-rule:evenodd;}</style></defs><g id="_3" data-name="3"><path class="cls-1" d="M8.80452,43.12945s3.70829-6.2054,4.85239-7.9385c2.0671-3.1383,2.0671-2.5285,2.92321-3.2655a9.24122,9.24122,0,0,0,2.43459-3.8713c.334-1.3467.476-2.6121.67651-3.2969a5.66919,5.66919,0,0,1,.5679-1.8082,2.20587,2.20587,0,0,0,.4092-.9771,7.93948,7.93948,0,0,1,.5512-1.5264,1.10818,1.10818,0,0,0-.146-1.0669,1.35076,1.35076,0,0,0-.7727-.3737,1.08676,1.08676,0,0,0-.96881.6994,6.52058,6.52058,0,0,1-.68479,1.3405,4.45718,4.45718,0,0,0-.45951,1.0858,5.1045,5.1045,0,0,1-.62619,1.4406,1.01525,1.01525,0,0,1-.4969.566c-.1506.096-.86451-.1923-1.04-.2173-.17531-.025-1.89161-1.3842-2.0628-1.4427-.1713-.0606.167-.1566.1377-.7308a2.98277,2.98277,0,0,0-.2756-1.0753l.735-1.2424a4.80073,4.80073,0,0,0-1.3112-.3278,1.86545,1.86545,0,0,0-1.05239.3885,53.338,53.338,0,0,0-4.35121,4.9443,2.30671,2.30671,0,0,0-.25059,1.3592c.18369,1.3739.20459,3.7709.2963,4.8943a2.70755,2.70755,0,0,1-.65121,2.4282,25.99217,25.99217,0,0,0-1.5619,2.6914Z"/><path class="cls-1" d="M56.19552,43.12945s-3.70831-6.2054-4.8483-7.9385c-2.07111-3.1383-2.07111-2.5285-2.92321-3.2655a9.24809,9.24809,0,0,1-2.43869-3.8713c-.32991-1.3467-.47191-2.6121-.6765-3.2969a5.67372,5.67372,0,0,0-.5678-1.8082,2.30562,2.30562,0,0,1-.4093-.9771,7.67535,7.67535,0,0,0-.5512-1.5264,1.1076,1.1076,0,0,1,.1461-1.0669,1.35032,1.35032,0,0,1,.77249-.3737,1.08262,1.08262,0,0,1,.9689.6994,6.75109,6.75109,0,0,0,.6849,1.3405,4.28992,4.28992,0,0,1,.4592,1.0858,5.112,5.112,0,0,0,.6265,1.4406,1.0302,1.0302,0,0,0,.49691.566c.15459.096.8644-.1923,1.03969-.2173.1756-.025,1.89181-1.3842,2.06311-1.4427.1712-.0606-.163-.1566-.1379-.7308a2.98287,2.98287,0,0,1,.27559-1.0753l-.73489-1.2424a4.84952,4.84952,0,0,1,1.31129-.3278,1.85324,1.85324,0,0,1,1.05241.3885,53.38057,53.38057,0,0,1,4.35119,4.9443,2.30817,2.30817,0,0,1,.25061,1.3592c-.17961,1.3739-.2047,3.7709-.2966,4.8943a2.71893,2.71893,0,0,0,.6515,2.4282,26.00588,26.00588,0,0,1,1.5618,2.6914Z"/><path class="cls-1" d="M56.19552,43.12945s-3.70831-6.2054-4.8483-7.9385c-2.07111-3.1383-2.07111-2.5285-2.92321-3.2655a9.24809,9.24809,0,0,1-2.43869-3.8713c-.32991-1.3467-.47191-2.6121-.6765-3.2969a5.67372,5.67372,0,0,0-.5678-1.8082,2.30562,2.30562,0,0,1-.4093-.9771,7.67535,7.67535,0,0,0-.5512-1.5264,1.1076,1.1076,0,0,1,.1461-1.0669,1.35032,1.35032,0,0,1,.77249-.3737,1.08262,1.08262,0,0,1,.9689.6994,6.75109,6.75109,0,0,0,.6849,1.3405,4.28992,4.28992,0,0,1,.4592,1.0858,5.112,5.112,0,0,0,.6265,1.4406,1.0302,1.0302,0,0,0,.49691.566c.15459.096.8644-.1923,1.03969-.2173.1756-.025,1.89181-1.3842,2.06311-1.4427.1712-.0606-.163-.1566-.1379-.7308a2.98287,2.98287,0,0,1,.27559-1.0753l-.73489-1.2424a4.84952,4.84952,0,0,1,1.31129-.3278,1.85324,1.85324,0,0,1,1.05241.3885,53.38057,53.38057,0,0,1,4.35119,4.9443,2.30817,2.30817,0,0,1,.25061,1.3592c-.17961,1.3739-.2047,3.7709-.2966,4.8943a2.71893,2.71893,0,0,0,.6515,2.4282,26.00588,26.00588,0,0,1,1.5618,2.6914Z"/><path class="cls-2" d="M16.48529,22.74854c.02783.00732.05664.01562.08643.02441.023-.04053.04541-.07959.06738-.11768a3.023,3.023,0,0,0,.34668-.8667,5.53178,5.53178,0,0,1,.64062-1.46484,4.42113,4.42113,0,0,0,.481-.93066c.03809-.09473.06934-.16944.09375-.22119a2.30159,2.30159,0,0,1,2.2666-1.40577,3.28741,3.28741,0,0,1,.47345.11866,15.33539,15.33539,0,0,1,23.13428-.00647,3.24012,3.24012,0,0,1,.44214-.11023,2.31419,2.31419,0,0,1,2.2832,1.40869c.0166.03222.05567.12256.10254.2373a4.403,4.403,0,0,0,.46973.90918,5.47506,5.47506,0,0,1,.64355,1.47168,3.00434,3.00434,0,0,0,.34473.86035c.02148.03809.04394.07715.06738.11768.0293-.00879.05859-.0166.08594-.02441.20215-.13477.6289-.45264.89941-.65284q.12891-.09594.23731-.17627c-.00293-.07275-.00293-.14843,0-.228a3.71037,3.71037,0,0,1,.05121-.46393,18.478,18.478,0,0,0-34.40448.00744,3.70989,3.70989,0,0,1,.05047.458c.00391.0791.00391.15479.001.22754.07275.05322.15137.11182.2373.17578C15.85687,22.29639,16.28363,22.61377,16.48529,22.74854Z"/><path class="cls-2" d="M48.2832,33.36328a5.00546,5.00546,0,0,1-.67675-.49121c-.13215-.114-.26966-.246-.40986-.39233a15.23393,15.23393,0,0,1-.9533,2.43994l-.0633.13861c-.37127.80719-.98016,1.16882-1.53528.75329l-3.22088-2.826a10.04061,10.04061,0,0,0,1.24267-4.874l-.00622-.95209,1.856.00568c-.05469-.28357-.10627-.5625-.152-.81848-.08887-.49512-.17285-.96289-.25293-1.23047C44.07617,25,44.04,24.83105,44.002,24.63086a3.33371,3.33371,0,0,0-.28613-.96729,4.10583,4.10583,0,0,1-.36163-.66131H21.64954a3.92116,3.92116,0,0,1-.364.66034,3.3107,3.3107,0,0,0-.28711.96679c-.03906.20166-.07519.37159-.11035.48877-.07422.25391-.15185.68653-.2417,1.187-.04834.27-.10186.5614-.15973.86l1.87122-.00574-.0061.95209a10.07321,10.07321,0,0,0,1.24579,4.874l-3.22419,2.826c-.55792.41553-1.1549.0539-1.532-.75329l-.06329-.13861a15.18554,15.18554,0,0,1-.96-2.45331c-.14361.15076-.28466.28748-.42016.40472a5.09394,5.09394,0,0,1-.67871.49219c-.24713.15436-.51184.33161-1.367,1.55512a18.48763,18.48763,0,0,0,34.29889-.00061C48.79492,33.6958,48.53027,33.51843,48.2832,33.36328ZM32.51233,24.683a5.28432,5.28432,0,1,1-5.106,5.2782A5.21215,5.21215,0,0,1,32.51233,24.683Zm9.01709,15.7497a.65443.65443,0,0,1-.12073.10858,15.3165,15.3165,0,0,1-17.79639,0,.86712.86712,0,0,1-.12652-.10858c-.41321-.36737-.53967-.88568.546-1.94007l2.47888-2.17511a10.11152,10.11152,0,0,0,11.99384,0l2.482,2.17511C42.07819,39.547,41.95782,40.06531,41.52942,40.43268Z"/></g></svg>