<svg xmlns="http://www.w3.org/2000/svg" viewBox="0 0 65 56"><defs><style>.cls-1{fill:none;stroke:#fff;stroke-miterlimit:10;stroke-width:2.5px;}.cls-1,.cls-2,.cls-3{fill-rule:evenodd;}.cls-2,.cls-3{fill:#fff;}.cls-2{opacity:0.5;}</style></defs><g id="E337_Anhaengerblinker"><g id="V1"><polygon class="cls-1" points="20.5 28.024 20.5 22.524 9.5 33.024 20.5 43.524 20.5 38.024 27.5 38.024 27.5 28.024 20.5 28.024"/><polygon class="cls-2" points="20.5 28.024 20.5 22.524 9.5 33.024 20.5 43.524 20.5 38.024 27.5 38.024 27.5 28.024 20.5 28.024"/><polygon class="cls-1" points="44.5 28.024 44.5 22.524 55.5 33.024 44.5 43.524 44.5 38.024 37.5 38.024 37.5 28.024 44.5 28.024"/><polygon class="cls-2" points="44.5 28.024 44.5 22.524 55.5 33.024 44.5 43.524 44.5 38.024 37.5 38.024 37.5 28.024 44.5 28.024"/><path class="cls-3" d="M33.61559,26V9.99034L31.417,9.97606l-3.56763,2.67573v1.78382L31.417,12.65179V26Z"/></g></g></svg>