<svg xmlns="http://www.w3.org/2000/svg" viewBox="0 0 65 56"><defs><style>.cls-1{fill:#fff;fill-rule:evenodd;}</style></defs><g id="E338_MIL"><path class="cls-1" d="M44.74441,41.975V38.52561a.65294.65294,0,0,1,.10816-.4908.63073.63073,0,0,1,.48263-.14132h6.89156a.62949.62949,0,0,1,.48366.14132.71158.71158,0,0,1,.19693.4908V41.975h.90608l1.13465-1.53288V28.31275l-1.13465-1.6433h-.90608l-.01414,3.36733a.738.738,0,0,1-.19692.49691.67708.67708,0,0,1-.48366.20306L45.368,30.72257a.68.68,0,0,1-.48264-.20305.69.69,0,0,1-.14092-.49692V26.66945H42.70367s-2.56826-3.381-3.99576-5.11153L33.051,21.563H17.46081a.357.357,0,0,0-.24387.10408c-.06326.06326-.02245.15713-.02245.24591V35.41042c0,.08878-.04081.18367.02245.24591.06428.06327.152.19643.24387.19643h3.26925a4.05434,4.05434,0,0,1,2.8356,1.17189l4.0529,4.34982c.249.24591.58864.60049.94169.60049Zm3.0611-15.97334v1.168a1.1888,1.1888,0,0,0,.00851.31887c.04783.16474.12814.19918.21793.19918h1.46627a.35178.35178,0,0,0,.24081-.10408c.06224-.06326.10722.195.10722.10624V24.69963c0-.18265-.03946-.72684.085-.85745a.87806.87806,0,0,1,.55269-.23383h4.46411L58,27.15157V41.85405L54.94094,45.006H50.52173a.68311.68311,0,0,1-.48365-.20918.70241.70241,0,0,1-.19183-.49079V41.15305a.36708.36708,0,0,0-.1051-.24591.33067.33067,0,0,0-.24081-.10407H48.03407a.33065.33065,0,0,0-.2408.10407.36283.36283,0,0,0-.101.24591V43.605a1.42144,1.42144,0,0,1-.39794.98873,1.34392,1.34392,0,0,1-.96017.41223H28.56444a4.06087,4.06087,0,0,1-2.83662-1.18159L21.6739,39.79392c-.24795-.24591-.98571-.88006-1.33467-.88006H15.919c-.53467,0-.953.07193-1.3275-.31581a1.60654,1.60654,0,0,1-.45814-1.2979V30.75092h-3.0611l-.048,7.02489a1.12571,1.12571,0,0,1-.24693.71017,1.08035,1.08035,0,0,1-.64487.36632,1.05883,1.05883,0,0,1-.71834-.151l-.93976-.61222c-.14795-.17754-.1602-.23468-.1602-.29284l.048-7.89476c-.07245-.22448-.11326-.26631-.15918-.298l-1.04179-.66936C7.01633,28.75661,7,28.69437,7,28.63621V20.92529a1.43348,1.43348,0,0,1,.17142-.68058,1.396,1.396,0,0,1,.46835-.50713l1.82238-1.17546a1.0403,1.0403,0,0,1,1.36321.21428,1.22694,1.22694,0,0,1,.24693.75048v7.14257h3.0611V20.49572a2.03889,2.03889,0,0,1,.45814-1.48464,1.93443,1.93443,0,0,1,1.43974-.50457H26.3778v-3.0611H18.92707a.595.595,0,0,1-.251-.2352.78692.78692,0,0,1-.06836-.37651l.18367-2.1591a1.42739,1.42739,0,0,1,.43671-.91017,1.35053,1.35053,0,0,1,.91935-.37039H36.74269a1.34937,1.34937,0,0,1,.91731.37039,1.42615,1.42615,0,0,1,.43569.91017l.18673,2.1591a.72283.72283,0,0,1-.07245.37651.57576.57576,0,0,1-.24794.2352,2.39608,2.39608,0,0,1-.36019,0H30.45927v3.0611H40.314s1.42954,2.13614,3.858,5.0748c0,0,1.96013.03061,3.156.0051.30611-.0051.47753.052.47753.28162Z"/></g></svg>