<?xml version="1.0" encoding="UTF-8"?><svg id="a" xmlns="http://www.w3.org/2000/svg" viewBox="0 0 65 56"><defs><style>.b{fill:#fff;}</style></defs><path class="b" d="M16.27991,11.22986l-3.77301-3.76721C7.37109,12.58655,4.3125,19.67218,4.3125,27.49707c0,7.83075,3.06171,14.92267,8.20343,20.0462l3.7699-3.77313c-4.17572-4.15448-6.75873-9.914-6.75873-16.27307,0-6.35321,2.58002-12.10651,6.75281-16.26721Zm36.26788-3.71259l-3.77008,3.77307c4.13647,4.15479,6.6922,9.88391,6.6922,16.20673,0,6.3288-2.55872,12.06409-6.698,16.21851l3.7699,3.76715c5.10541-5.11755,8.18042-12.1853,8.18042-19.98566,0-7.79449-3.0719-14.85602-8.17444-19.9798Zm-20.04932-.51727c-11.32825,0-20.49847,9.17462-20.49847,20.5,0,11.3313,9.17023,20.5,20.49847,20.5s20.50153-9.17169,20.50153-20.50299c0-11.32544-9.17322-20.49701-20.50153-20.49701Zm0,37.72705c-9.51428,0-17.22699-7.71582-17.22699-17.22998s7.71271-17.23035,17.22699-17.23035c9.51764,0,17.23022,7.71582,17.23022,17.23035s-7.71259,17.22998-17.23022,17.22998Zm-1.4151-29.71979l-9.63806,22.54706,3.22418,.02423,2.47083-5.81311,10.48407-.008,2.4104,5.89081,3.41339,.02142-9.01727-22.64905-3.34753-.01337Zm-2.86237,14.00452l4.37579-10.89941,4.03943,10.94501-8.41522-.04559Z"/></svg>