<svg id="E33D_PEA" xmlns="http://www.w3.org/2000/svg" viewBox="0 0 65 56"><defs><style>.cls-1,.cls-2{fill:#fff;}.cls-2{fill-rule:evenodd;}</style></defs><path class="cls-1" d="M48.21263,42.93876c-.51938-.31574-9.9493-6.23988-9.9493-6.23988l1.38522-2.6921a49.41047,49.41047,0,0,0-9.74316-3.07111,3.24423,3.24423,0,0,1-1.29467-.65353C13.47581,20.339,11.75888,18.742,11.69609,18.70052a1.44619,1.44619,0,0,1-.5706-2.21273,3.21727,3.21727,0,0,1,1.72419-1.24764c1.33132-2.02575,4.45672-1.32254,6.83589-.21307a112.86125,112.86125,0,0,0,22.216,6.47041c2.1945.26914,3.06.12658,3.35485.68182.16635.31336.61912,2.96853,5.29667,6.04264,4.18857,2.75274,6.35576,1.72846,6.29646,2.91553-.045.90122-3.54722,5.57906-4.791,7.47154a11.09191,11.09191,0,0,1-1.99382,2.08406,1.27157,1.27157,0,0,1,.10381.61159,8.084,8.084,0,0,1-.84747,1.30853.78985.78985,0,0,1-1.06012.352Q48.23636,42.95282,48.21263,42.93876Z"/><path class="cls-2" d="M21.83053,38.54221,17.6088,36.94588l-1.98886,5.25965-5.25966-1.98877L12.34905,34.957l-4.1998-1.58815,9.86008-5.3643Z"/></svg>