<svg id="Ebene_1" data-name="Ebene 1" xmlns="http://www.w3.org/2000/svg" viewBox="0 0 65 56"><defs><style>.cls-1,.cls-3{fill:#fff;}.cls-1{opacity:0.5;}.cls-2{fill:none;stroke:#fff;stroke-width:3.5px;}</style></defs><g id="V2"><path class="cls-1" d="M50.97192,36.52148a17.83911,17.83911,0,0,1-2.66025,2.04563,13.96385,13.96385,0,0,1-1.22174.69926,30.01168,30.01168,0,0,1-4.51819,1.94845,24.37735,24.37735,0,0,1-8.77011,1.28829c-.95076,0-6.35256.26193-6.35256-14.40118s5.45128-14.40119,6.35256-14.40119a23.93542,23.93542,0,0,1,8.7654,1.51348,29.995,29.995,0,0,1,4.51465,1.94726,13.973,13.973,0,0,1,1.22527.69808,17.8804,17.8804,0,0,1,2.66144,2.04681C52.85577,21.67467,55,23.91585,55,28.21333,55,32.512,52.86049,34.75082,50.97192,36.52148Z"/><path class="cls-2" d="M50.97192,36.41955a17.83843,17.83843,0,0,1-2.66025,2.04563,13.96385,13.96385,0,0,1-1.22174.69926,30.01168,30.01168,0,0,1-4.51819,1.94845,24.37734,24.37734,0,0,1-8.77011,1.2883c-.95076,0-6.35256.26192-6.35256-14.40119s5.45128-14.40119,6.35256-14.40119A23.9352,23.9352,0,0,1,42.567,15.1123a29.99388,29.99388,0,0,1,4.51465,1.94726,13.97174,13.97174,0,0,1,1.22527.69807,17.8804,17.8804,0,0,1,2.66144,2.04681C52.85577,21.57274,55,23.81393,55,28.11141,55,32.41007,52.86049,34.64889,50.97192,36.41955Z"/><path class="cls-3" d="M24.58344,41H7v3H26.43317A13.11272,13.11272,0,0,1,24.58344,41Z"/><path class="cls-3" d="M22.7793,34H7v3H23.28632Q22.97357,35.59576,22.7793,34Z"/><path class="cls-3" d="M22.44922,28.10205c0-.37494.00677-.7384.01337-1.102H7v3H22.48273C22.46283,29.38226,22.44922,28.75391,22.44922,28.10205Z"/><path class="cls-3" d="M23.12372,20H7v3H22.69257C22.80035,21.94147,22.94238,20.93915,23.12372,20Z"/><path class="cls-3" d="M25.845,13H7v3H24.25378A14.46675,14.46675,0,0,1,25.845,13Z"/></g></svg>