<svg xmlns="http://www.w3.org/2000/svg" viewBox="0 0 65 56"><defs><style>.cls-1,.cls-2{fill:#fff;}.cls-2{fill-rule:evenodd;}</style></defs><g id="E355_HV_Batterie_Temp"><polygon class="cls-1" points="50 42 15 42 15 40.5 48.5 40.5 48.5 22 50 22 50 42"/><rect class="cls-1" x="15" y="15" width="5" height="3.5"/><rect class="cls-1" x="15" y="24" width="6" height="2"/><rect class="cls-1" x="37" y="15" width="5" height="3.5"/><rect class="cls-1" x="36" y="24" width="6" height="2"/><rect class="cls-1" x="38" y="22" width="2" height="6"/><polygon class="cls-1" points="54 46 19 46 19 44.5 52.5 44.5 52.5 26 54 26 54 46"/><path class="cls-2" d="M29,31V26h5V24H29c.00068.00677,0-3,0-3h5s.002-1.98781,0-2H29V16h5V14H29V12.0921a1.52388,1.52388,0,0,0-1.56472-1.6576A1.49186,1.49186,0,0,0,26,12.0921V31Z"/><polygon class="cls-1" points="36 17 36 19 44 19 44 36 13 36 13 19 24 19 24 17 11 17 11 38 46 38 46 17 36 17"/><circle class="cls-1" cx="27.5" cy="31.5" r="2.5"/></g></svg>