<?xml version="1.0" encoding="UTF-8"?>
<svg id="Ebene_1" data-name="Ebene 1" xmlns="http://www.w3.org/2000/svg" viewBox="0 0 65 56">
  <defs>
    <style>
      .cls-1 {
        fill: #fff;
      }
    </style>
  </defs>
  <rect class="cls-1" x="12" y="12" width="5" height="3.5"/>
  <rect class="cls-1" x="34" y="12" width="5" height="3.5"/>
  <path class="cls-1" d="M55.70941,27.12262c-.12909-.40955-.3421-.78766-.62555-1.11017-.28906-.32074-.64685-.57208-1.04663-.73517-.4646-.18567-.96185-.27606-1.4621-.26581-.48578-.00879-.9682,.08167-1.41785,.26581-.39838,.16663-.75604,.41742-1.04846,.73517-.29071,.32196-.51294,.69965-.6532,1.11017-.15338,.44788-.22937,.91864-.22479,1.39209-.00427,.46857,.06726,.93481,.21191,1.38055,.1311,.40906,.3457,.78644,.63019,1.10834,.28845,.31946,.64526,.56976,1.04382,.73242,.46356,.18469,.95947,.27441,1.45837,.26398,.48743,.00873,.97156-.08112,1.4234-.26398,.39917-.16443,.75739-.41449,1.04938-.73242,.28894-.32166,.50928-.69873,.64764-1.10834,.15192-.44427,.22736-.91107,.22296-1.38055,.00464-.47223-.06592-.94214-.20911-1.39209Zm-1.46027,2.34058c-.05969,.26068-.16949,.50726-.32336,.72601-.14313,.19788-.33301,.3573-.5528,.46387-.24988,.11493-.52283,.17108-.79785,.164-.27466,.00665-.54718-.04938-.79688-.16394-.22137-.10693-.41327-.26611-.55927-.46393-.15649-.21832-.26947-.46484-.33258-.72595-.07574-.31036-.1123-.62903-.1087-.94849-.00385-.3233,.03271-.64575,.1087-.96002,.06317-.26239,.17609-.51025,.33258-.7301,.14532-.1991,.3374-.35931,.55927-.46667,.50922-.21802,1.08551-.21802,1.59473,0,.22028,.10699,.41034,.2674,.5528,.46661,.15387,.22021,.26367,.46814,.32336,.7301,.07336,.31464,.10858,.63696,.10498,.96002,.00336,.31921-.03186,.6377-.10498,.94849Z"/>
  <polygon class="cls-1" points="51.46503 18.34137 42.56989 31.836 44.2439 31.836 53.13898 18.34137 51.46503 18.34137"/>
  <path class="cls-1" d="M46.44623,19.85651l-1.26135,1.25769c.01105,.12952,.02039,.25928,.01898,.38947,.00317,.31921-.0318,.63763-.10413,.94849-.05957,.26056-.16937,.50702-.32336,.72552-.14337,.19849-.33405,.35803-.55463,.46436-.25128,.11469-.52539,.17059-.80151,.16351-.26752,.00653-.53247-.04852-.77679-.15723l-.93481,.93207c.08679,.04663,.16724,.10419,.25873,.14185,.4613,.1861,.95557,.27667,1.45288,.26624,.33453,.00299,.66803-.03741,.99219-.12018,.28967-.07495,.56744-.18982,.8255-.34131,.24463-.14478,.46582-.32587,.65601-.53711,.19012-.21228,.3515-.44861,.47998-.70294,.13287-.26624,.23138-.54828,.29297-.83936,.06616-.31018,.09888-.62665,.09766-.94385,.00403-.47302-.06653-.94379-.20911-1.39484-.02765-.08795-.07397-.1676-.10919-.25238Z"/>
  <g>
    <polygon class="cls-1" points="24.81177 33.00018 10 33.00018 10 16.00018 41.86078 16.00018 42 15.86139 42 14.00018 8 14.00018 8 35.00018 22.80597 35.00018 24.81177 33.00018"/>
    <polygon class="cls-1" points="31.25861 35.00018 41 35.00018 41 33.00018 33.2644 33.00018 31.25861 35.00018"/>
  </g>
  <polygon class="cls-1" points="49.5 41.5 24.73987 41.5 23.23553 43 51 43 51 35 49.5 35 49.5 41.5"/>
  <g>
    <polygon class="cls-1" points="45.5 37.5 28.75153 37.5 27.24713 39 47 39 47 35 45.5 35 45.5 37.5"/>
    <polygon class="cls-1" points="20.29901 37.5 12 37.5 12 39 18.79468 39 20.29901 37.5"/>
  </g>
  <rect class="cls-1" x="3.88281" y="30.8387" width="52.66501" height="1.99979" transform="translate(-13.66172 30.6274) rotate(-44.91727)"/>
</svg>