<?xml version="1.0" encoding="UTF-8"?>
<svg id="Ebene_1" data-name="Ebene 1" xmlns="http://www.w3.org/2000/svg" viewBox="0 0 84 44">
  <defs>
    <style>
      .cls-1 {
        fill: #fff;
      }

      .cls-2 {
        fill: none;
        stroke: #fff;
        stroke-miterlimit: 10;
        stroke-width: 2px;
      }
    </style>
  </defs>
  <path class="cls-2" d="M18.8956,3.04575h47c1.65682-.00003,2.99997,1.34306,3,2.99988v15.00012c.00003,1.65682-1.34306,2.99997-2.99988,3H18.8956c-1.65685,0-3-1.34315-3-3V6.04575c0-1.65685,1.34315-3,3-3Z"/>
  <rect class="cls-1" x="19.90559" y="7.04571" width="44.99" height="12.99" rx="1" ry="1"/>
  <g id="E125-001_automatisches_fernlicht" data-name="E125-001 automatisches fernlicht">
    <path class="cls-1" d="M22.15791,29.07572l-5.25355,13.7311h1.838l1.27519-3.48634h6.165l1.28,3.48634h1.92581l-5.2859-13.7311h-1.94455Zm-1.6102,8.73121l2.00994-5.46281c.09313-.2714,.19098-.55453,.29354-.84938,.1036-.2999,.19056-.60529,.26048-.91478,.06074,.31021,.14005,.61649,.23751,.91719,.09607,.29624,.19679,.57854,.30216,.84691l1.98709,5.46287h-5.09072Zm20.01665,.37037c.00881,.49809-.05884,.99458-.20059,1.47215-.23038,.80723-.85956,1.43933-1.66572,1.67344-.66136,.14474-1.33703,.21391-2.014,.20616-.50856,.01017-1.01557-.0594-1.50259-.20616-.39384-.12028-.75245-.33468-1.04483-.62467-.2842-.29612-.49387-.65561-.61169-1.04877-.14147-.47762-.20887-.9741-.19985-1.47215v-9.10158h-1.7966v9.40716c-.00391,.46664,.04301,.93232,.13995,1.3888,.08408,.39617,.22502,.77811,.41843,1.13394,.18264,.33237,.42025,.63142,.70274,.88447,.29655,.26228,.63253,.47626,.99561,.63409,.41539,.18001,.85132,.3083,1.298,.382,.52887,.08865,1.06443,.13136,1.60067,.12765,.70214,.0029,1.40372-.03974,2.10034-.12765,.44655-.07417,.88241-.20244,1.29794-.382,.36511-.15823,.70346-.37214,1.003-.63409,.28522-.25274,.5258-.55175,.71162-.88447,.19635-.35504,.33915-.73714,.42376-1.13394,.0967-.4565,.14333-.92219,.13906-1.3888v-9.40716h-1.79536l.00012,9.10158Zm4.68709-7.62936h4.25777v12.25889h1.78675v-12.25889h4.25777v-1.47222h-10.30238l.00009,1.47222Zm23.51406,3.43509c-.08552-.58397-.23229-1.15732-.43789-1.71055-.18765-.50674-.4445-.98508-.76326-1.42143-.30896-.4204-.68726-.7851-1.11868-1.07847-.46006-.30896-.96766-.54041-1.50259-.68517-.62289-.16615-1.26557-.24633-1.91019-.23832-.64425-.00817-1.28649,.07352-1.90818,.2427-.53478,.14861-1.04219,.38227-1.50278,.692-.4337,.29618-.81368,.66419-1.12358,1.08819-.31877,.43959-.57708,.91998-.768,1.42831-.20674,.55396-.3548,1.12807-.44177,1.71292-.09682,.64274-.1443,1.29194-.142,1.94193-.00208,.65149,.04478,1.30221,.14016,1.94668,.08497,.58397,.23139,1.15734,.43683,1.71055,.18837,.50526,.44444,.98261,.7612,1.419,.30739,.42005,.68401,.78475,1.11372,1.07848,.45864,.30902,.965,.5405,1.49878,.68517,.62184,.16642,1.26358,.24672,1.90725,.23868,.6443,.00765,1.28655-.07415,1.90836-.24307,.53653-.14801,1.04556-.38189,1.50736-.69256,.43422-.29602,.81485-.66382,1.12559-1.08763,.32035-.43855,.58034-.91813,.773-1.4259,.20901-.55339,.3581-1.1276,.44471-1.71277,.18715-1.28945,.18781-2.59911,.00194-3.88874h.00002Zm-1.81229,3.493c-.05769,.4592-.15905,.91185-.30273,1.35179-.12858,.39455-.30423,.77218-.52315,1.12471-.20333,.32597-.46076,.61489-.76122,.85432-.30645,.24017-.65296,.42428-1.02351,.54381-.85538,.25598-1.76699,.25598-2.62237,0-.37174-.11967-.71955-.30374-1.02757-.54381-.30224-.23893-.56131-.52788-.76594-.85432-.22084-.35177-.39724-.72955-.52517-1.12471-.14351-.43987-.24421-.89256-.3007-1.35179-.12394-1.01864-.12394-2.04855,0-3.06719,.05681-.45914,.15751-.91178,.3007-1.3517,.12735-.39556,.30378-.77359,.52517-1.12526,.20557-.3256,.46451-.61425,.76594-.85386,.30722-.24129,.65527-.42548,1.02757-.5438,.85508-.25331,1.76526-.25331,2.62034,0,.37193,.11773,.71941,.30198,1.02554,.5438,.29965,.2401,.55695,.52872,.76122,.85386,.21947,.35243,.39515,.7303,.52315,1.12526,.14337,.44,.24473,.89258,.30273,1.3517,.12661,1.01846,.12629,2.04872-.00001,3.06721l.00002-.00002Z"/>
  </g>
</svg>