<?xml version="1.0" encoding="UTF-8"?><svg id="a" xmlns="http://www.w3.org/2000/svg" viewBox="0 0 65 56"><defs><style>.b{fill:#fff;fill-rule:evenodd;}.c{stroke-width:2px;}.c,.d{fill:none;stroke:#fff;stroke-miterlimit:10;}.d{stroke-width:2.5px;}</style></defs><path class="b" d="M10.00286,35.59547h14.9826v2.786H10.00286v-2.786Z"/><path class="b" d="M18.04436,12.98087l-3.5382-7.248-3.5381,7.248h7.0763Z"/><path class="b" d="M26.93526,12.98087l-3.4111-7.248-3.6334,7.248h7.0445Z"/><path class="b" d="M35.99516,12.94957l-3.5063-7.2479-3.5064,7.2479h7.0127Z"/><path class="d" d="M33.63036,20.32467l-.5664-1.4269c-.4671-1.2839-.66-2.6513-.5663-4.0143-.0155-1.059,.078-2.1167,.2788-3.1567"/><path class="d" d="M24.56246,33.04527c1.6264-2.2627,2.3734-3.017,2.3734-5.7681,0-1.9038-.7141-4.0026-2.1957-6.9525l-.5671-1.4269c-.4673-1.2839-.6602-2.6513-.5664-4.0143-.0153-1.059,.0783-2.1168,.2795-3.1567"/><path class="d" d="M15.58016,33.04527c1.6264-2.2627,2.3734-3.017,2.3734-5.7681,0-1.9038-.7134-4.0026-2.1957-6.9525l-.567-1.4269c-.4669-1.284-.6598-2.6513-.5665-4.0143-.0154-1.0591,.0784-2.1168,.2796-3.1567"/><path class="c" d="M38.23726,22.35927c1.0936-.032,2.1204,.524,2.6912,1.4572,.363,1.0318,.3572,2.1576-.016,3.1857-.5345,1.9163-.5523,3.94-.0512,5.8653l.2097,.3782,1.394,.2443,.3754-.5875c-.1194-1.9485,.5457-3.8639,1.8475-5.3188,.961-.9601,2.2667-1.495,3.6253-1.4851,2.8472,.1099,5.2971,2.0475,6.0602,4.7929,.612,1.4572,.0953,3.1436-1.2279,4.0079-.4009,.1858-.838,.28-1.2797,.2758-.6231-.0287-1.2412-.1259-1.8431-.2901-1.0009-.2619-2.0297-.4039-3.0643-.4233-.9232,.0038-1.8419,.1284-2.7329,.3707l-.3712,.252-.1977,1.3934,.6553,.3471c4.2889,.0332,6.1828,2.3589,6.5396,4.5366,.346,3.1895-1.6762,6.1579-4.7712,7.0033-.4212,.1458-.8632,.2222-1.3089,.2264-1.0938,.0322-2.1211-.5238-2.6922-1.4571-.3614-1.0021-.3564-2.0998,.0143-3.0985,.5324-1.864,.5562-3.8365,.0693-5.7128l-.1693-.4739-1.524-.2821-.3136,.6867c.122,1.9132-.5265,3.7956-1.8009,5.2277-.945,.9418-2.2283,1.4652-3.5627,1.4529-2.8941-.1134-5.3833-2.0841-6.1579-4.875-.6124-1.4573-.0955-3.144,1.2283-4.008,.4005-.1857,.8374-.2799,1.2788-.2757,.6233,.0286,1.2416,.1259,1.8434,.29,1.0012,.262,2.0298,.4041,3.0643,.4235,.9233-.0038,1.8422-.1285,2.733-.3707l.3479-.1532,.2463-1.3307-.5599-.4959c-4.3668,0-6.2967-2.3524-6.6573-4.5543-.3461-3.1875,1.6751-6.154,4.7681-6.9985,.4217-.146,.864-.2225,1.31-.2264Z"/></svg>