<svg xmlns="http://www.w3.org/2000/svg" viewBox="0 0 65 56"><defs><style>.cls-1,.cls-4,.cls-5{fill:none;}.cls-1,.cls-2,.cls-3,.cls-4,.cls-5{stroke:#fff;stroke-miterlimit:10;}.cls-1{stroke-width:2.15364px;}.cls-2,.cls-3,.cls-6{fill:#fff;}.cls-2{stroke-width:0.78409px;}.cls-3{stroke-width:1.04546px;}.cls-4{stroke-width:2.06px;}.cls-5{stroke-width:2px;}</style></defs><g id="E770_Child_Presence_Detection"><g id="V1"><path class="cls-1" d="M23.72233,45.22387A2.26264,2.26264,0,0,1,21.51606,43.395l-.74731-4.21748c0-1.20335,1.33185-2.04214,2.57892-2.04214l3.81793.00269,1.53093-.00269a21.68929,21.68929,0,0,1,6.73684,1.24234,28.00439,28.00439,0,0,0,9.02183,1.53295c.16446,0,.33128-.00134.49472-.004a.34472.34472,0,0,1,.29429.13183.872.872,0,0,1-.19036.39148l-.03061.03565-1.61905,3.4372a2.27993,2.27993,0,0,1-2.06833,1.32242ZM42.60883,35.99a1.37019,1.37019,0,0,1-1.35638-1.38026v-1.9823a44.97857,44.97857,0,0,0,2.7838-6.46477,23.40851,23.40851,0,0,0,1.14342-3.42206,3.15771,3.15771,0,0,1,3.04775-2.892l1.2528-.06693a1.67109,1.67109,0,0,1,1.62909,1.66448,22.13773,22.13773,0,0,1-.977,5.98528,27.881,27.881,0,0,1-2.99123,7.76219,1.38591,1.38591,0,0,1-1.24473.7964Zm3.58653-20.45156a.86818.86818,0,0,1-.65045-.2647.83012.83012,0,0,1-.22668-.61647c.00942-.83274.005-1.5148.001-2.16086-.0037-.61682-.0074-1.201.00135-1.85247a.86476.86476,0,0,1,.975-.862l.12207.00236c2.556,0,3.96188,1.53228,4.06579,4.4307a.87534.87534,0,0,1-.77185.81423c-1.41995.15912-3.1301.45908-3.31681.49237a1.214,1.214,0,0,1-.19908.0168Z"/><path class="cls-2" d="M37.95658,13.06758a2.85515,2.85515,0,1,0,3.55607,1.92129,2.85781,2.85781,0,0,0-3.55607-1.92129"/><path class="cls-3" d="M38.9964,20.5965a3.56843,3.56843,0,0,0-1.44534.16042l-5.45492,1.02313a1.55993,1.55993,0,0,0,.9235,2.98l3.48287-.57264a33.96929,33.96929,0,0,0-1.26835,4.41374l-2.50755.26049a4.49234,4.49234,0,0,0-2.2232.27858l-3.28334,1.158a1.56011,1.56011,0,0,0,1.23805,2.86407l2.55349-.92862a4.947,4.947,0,0,1,1.636-.14147l3.79394.11481c1.26443-.37751,1.36153-.60524,1.7273-1.46154l.06037-.14389c-.00031.00541,2.76515-7.52457,2.76515-7.52457a1.83914,1.83914,0,0,0-1.998-2.48051"/><path class="cls-4" d="M18.01559,10.22757,11.00453,22.74676a.88275.88275,0,0,0,.7702,1.31409H25.79686a.88275.88275,0,0,0,.7702-1.31409L19.556,10.22757A.88276.88276,0,0,0,18.01559,10.22757Z"/><line class="cls-5" x1="18.7858" y1="14.1185" x2="18.7858" y2="19.1185"/><rect class="cls-6" x="17.7858" y="20.1185" width="2" height="2"/></g></g></svg>