<svg xmlns="http://www.w3.org/2000/svg" viewBox="0 0 40 40"><g id="EA45_flag_brunei"><rect y="7" width="40" height="26" fill="#f7e017" /><path d="M0,8.80556V20.36111l40,5.41667V19.63889Z" fill="#fff" /><path d="M0,14.94444v5.41667L40,31.19444V25.77778Z" fill="#252525" /><path d="M19.23041,26.65286a3.71947,3.71947,0,0,1-1.56837-.54467.87864.87864,0,0,0-.15829-.09454c-.01142,0-.02062.05774-.02062.12911a.32286.32286,0,0,1-.2855.35688.93447.93447,0,0,1-.73533-.25219,2.16672,2.16672,0,0,0-.78387-.42984,1.26581,1.26581,0,0,0-.66205.02062,1.49415,1.49415,0,0,0-.22745.09453.276.276,0,0,1-.08755.03965c-.03427,0-.02951-.21729.00634-.28677a.55967.55967,0,0,1,.29946-.2303c.06852-.02506.12467-.0571.12467-.07138a.4316.4316,0,0,0-.05139-.11579.31584.31584,0,0,1,.10627-.44.7458.7458,0,0,1,.68838-.05361,1.0172,1.0172,0,0,0,.12816.04282c.03236,0,.01269-.04536-.07645-.1751a.51287.51287,0,0,1-.11039-.40351.46673.46673,0,0,1,.4273-.42826c.18462-.01332.29946.04885.572.30834a4.5736,4.5736,0,0,0,2.73036,1.31935,5.37851,5.37851,0,0,0,1.09189-.03268,4.9491,4.9491,0,0,0,2.59459-1.29491c.20239-.19066.29978-.2411.46569-.24173a.42731.42731,0,0,1,.349.1602.43859.43859,0,0,1,.1161.3629.45531.45531,0,0,1-.08375.25061c-.08946.14561-.07423.15893.10278.09041a.69138.69138,0,0,1,.69283.10088.3126.3126,0,0,1,.04441.446.78865.78865,0,0,0-.072.13768c0,.01808.03013.02664.17542.05012a.35157.35157,0,0,1,.29883.38733c0,.06472-.00793.11738-.01776.11738a1.29242,1.29242,0,0,1-.15989-.05869,1.30809,1.30809,0,0,0-.60621-.11325,1.07341,1.07341,0,0,0-.40225.0552,1.82365,1.82365,0,0,0-.61859.36481.70025.70025,0,0,1-.526.23538.41377.41377,0,0,1-.37369-.15925c-.03521-.05583-.04029-.08978-.03172-.216a.45857.45857,0,0,0-.00222-.14941,1.34254,1.34254,0,0,0-.1583.10056,2.55546,2.55546,0,0,1-.58592.31183,5.75971,5.75971,0,0,1-2.60886.30929Z" fill="#cf1126" /><path d="M19.56667,25.23962A4.328,4.328,0,0,1,16.45979,23.474a4.85622,4.85622,0,0,1-.78072-3.71916,3.0538,3.0538,0,0,1,.81032-1.572,3.63262,3.63262,0,0,0-.27694,2.35667,3.94,3.94,0,0,0,3.21477,3.14549,3.23879,3.23879,0,0,0,1.88737-.206,3.76282,3.76282,0,0,0,2.46728-3.143,3.87991,3.87991,0,0,0-.35551-2.24964,2.26877,2.26877,0,0,1,.58969.78377,4.50285,4.50285,0,0,1-2.5441,6.14219,5.25246,5.25246,0,0,1-1.90519.22738Z" fill="#cf1126" /><path d="M14.94287,23.312c-.07715.02612-.06055.0119-.02856-.118.02856-.08179.00683-.20068-.06031-.20709-.03711-.00281-.0498-.02851-.03881-.08222a.35633.35633,0,0,0-.04395-.18078c-.012-.833-.01978-1.66632-.031-2.49915-.0852-.25751-.85546-.8866-.9934-1.06628-.08326-.14014-.40821-.19062-.29053.05322a3.58855,3.58855,0,0,0,.2207.43921c-.02173-.00647-.04565-.01038-.0686-.016a3.587,3.587,0,0,1-.231-.47193l-.00439-.00726c.01806-.09723.04-.19269.11279-.1861.01807-.00317.04468.006.03418-.02166A1.69707,1.69707,0,0,0,13.43115,18.5a.32258.32258,0,0,0-.08838-.1402.19616.19616,0,0,0-.10742.05744.18062.18062,0,0,0-.00293.08258.27415.27415,0,0,1-.00244.13452.57792.57792,0,0,0-.12378-.27283.15479.15479,0,0,0-.09375-.05487.10983.10983,0,0,0-.06885.14337.55241.55241,0,0,1-.00561.15192.87373.87373,0,0,0-.07056-.26929c-.02441-.04584-.0603-.10034-.11792-.10309-.0686.01111-.12085.10358-.12768.17737a.50083.50083,0,0,0-.15747-.21789l-.0293-.00678v.00006c-.10327.1034-.02442.29407-.03.42957a5.0803,5.0803,0,0,0,.27588,1.23309c.19092.38391.59619.58917.8418.92847a11.01039,11.01039,0,0,1,.07641,1.88342c-.06811-.00922-.08984.27435-.10766.2702-.08106-.01855-.15088.12482-.11695.23926.02051.04608.0459.08887.02783.08533-.08007-.01941-.1687.10272-.13842.23065a.61113.61113,0,0,0,.24731.25433,1.19083,1.19083,0,0,0,.68115.177,3.4013,3.4013,0,0,0,.59473-.14637c.0957-.05206.21777-.09936.25684-.2633C15.08228,23.39722,15.01294,23.29059,14.94287,23.312Z" fill="#cf1126" /><path d="M25.03116,23.312c.07715.02612.06055.0119.02857-.118-.02857-.08179-.00684-.20068.0603-.20709.03711-.00281.04981-.02851.03882-.08222a.35635.35635,0,0,1,.04394-.18078c.012-.833.01978-1.66632.031-2.49915.08521-.25751.85547-.8866.99341-1.06628.08325-.14014.4082-.19062.29053.05322a3.59,3.59,0,0,1-.22071.43921c.02173-.00647.04566-.01038.06861-.016.03418-.06745.23364-.47705.23535-.47919-.01807-.09723-.15747-.18012-.147-.20776A1.69666,1.69666,0,0,1,26.54288,18.5a.32267.32267,0,0,1,.08838-.1402c.009-.00641.11572.10993.11035.14a.27427.27427,0,0,0,.00244.13452.578.578,0,0,1,.12378-.27283.15482.15482,0,0,1,.09375-.05487c.06543.01941.06958.24219.07447.29529a.87372.87372,0,0,1,.07055-.26929c.02442-.04584.06031-.10034.11792-.10309.06861.01111.12085.10358.12769.17737a.50083.50083,0,0,1,.15747-.21789l.0293-.00678v.00006c.10327.1034.02441.29407.03.42957a5.0803,5.0803,0,0,1-.27588,1.23309c-.19092.38391-.59619.58917-.8418.92847a11.01024,11.01024,0,0,0-.07642,1.88342c.06812-.00922.08985.27435.10767.2702.08105-.01855.15088.12482.11694.23926-.0205.04608-.0459.08887-.02783.08533.08008-.01941.1687.10272.13843.23065a.61109.61109,0,0,1-.24732.25433,1.19081,1.19081,0,0,1-.68115.177,3.40128,3.40128,0,0,1-.59472-.14637c-.09571-.05206-.21778-.09936-.25684-.2633C24.89176,23.39722,24.9611,23.29059,25.03116,23.312Z" fill="#cf1126" /><path d="M20.53271,23.22034a.10854.10854,0,0,1-.11425-.03607.61575.61575,0,0,0,.24682-.3523,1.53443,1.53443,0,0,0-.17871-.96576.8142.8142,0,0,1-.08618-.49072.57929.57929,0,0,1,.19629-.33728c.05225-.04572-.07593-.13074-.165-.15711a.26118.26118,0,0,0,.05054-.0827,1.27137,1.27137,0,0,0,.01538-.54431,4.387,4.387,0,0,0-.14771-.45789.647.647,0,0,1,.11866-.57452c.032-.061.14257-.11945.11572-.18964a.25265.25265,0,0,0-.24683.01575c-.07178.03778-.10937.1214-.186.14972-.08008-.04285-.01612-.17914-.07813-.24786-.0415-.10822-.14209-.00861-.144.067-.02637.05377-.00342.168-.05982.18506-.07934-.06665-.14331-.16095-.24975-.188-.04785-.00928-.17554-.03589-.18237.01288a1.16294,1.16294,0,0,1,.27172.39954.72378.72378,0,0,1-.00805.43249,1.72357,1.72357,0,0,0-.17407.68482.52071.52071,0,0,0,.11157.34c-.10059.01367-.26587.111-.17554.18183a.48155.48155,0,0,1,.14038.40429,1.46065,1.46065,0,0,1-.15088.5426c-.0813.20746-.26168.81078.01294,1.03315.03443.03979.10547.13989.15821.12677a.09651.09651,0,0,1-.14307.02777c-.10767-.058-.55689-.3523-.564-.28192a1.12954,1.12954,0,0,0,.94629.76135,1.63872,1.63872,0,0,0,.41895-.0199,1.21843,1.21843,0,0,0,.833-.73321C21.09521,22.87622,20.6604,23.16425,20.53271,23.22034Z" fill="#cf1126" /><path d="M23.96411,17.08185c-.012,0-.08813.0152-.16943.03363a2.037,2.037,0,0,1-.79907-.03272,2.86166,2.86166,0,0,1-.75831-.38159,1.97388,1.97388,0,0,0-.53222-.30139,1.67793,1.67793,0,0,0-1.18286.0108,1.33961,1.33961,0,0,0-.31055.27771v-.60284h1.00269a2.01435,2.01435,0,0,1-.31543-1.04181c-.01978.01477-.18335-.13-.281-.15546a1.79953,1.79953,0,0,0-.40723-.03991l-.05151-.00025-.00147-.54242.688.32563-.40307-.5221.55029-.17291-.8374-.41815v-.0539l-.2002.00159v1.38147l-.052-.00025a1.876,1.876,0,0,0-.4248.0412c-.093.0246-.25977.18372-.27515.171a2.79708,2.79708,0,0,1-.28491,1.02625h.98437v.61719a2.10056,2.10056,0,0,0-.95019-.39264,1.82477,1.82477,0,0,0-1.16748.43048,2.67824,2.67824,0,0,1-.76123.38641,9.45575,9.45575,0,0,1-.97535.00537c-.02758.02759.11329.26679.21265.361.15186.14367,1.82813.94659,1.89795,1.02935.136.16211.43433.12946.74634-.08117.05444-.03681.4519-.288.45434-.21857a4.155,4.155,0,0,0,.47168.79749c.001.0003.02857-.04157.06128-.09327.094-.14813.17847-.1491.27515-.0025.02734.04151.06055.0755.07349.0755.01342,0,.39941-.62622.4353-.71252.04053-.09735.65478.28583.92871.31469a10.84053,10.84053,0,0,0,2.16211-1.13659C23.91309,17.32385,24.03662,17.08185,23.96411,17.08185Z" fill="#cf1126" /><path d="M18.76562,25.6391a9.1003,9.1003,0,0,1-1.87646-.77551l-.574.00488A5.69233,5.69233,0,0,0,18.66943,26.023Z" fill="#f7e017" /><path d="M21.77905,25.51416a5.06081,5.06081,0,0,1-2.00171.31464,5.0592,5.0592,0,0,1-.73437-.12293v.39563a5.8343,5.8343,0,0,0,.95044.09027,6.26774,6.26774,0,0,0,1.904-.26452Z" fill="#f7e017" /><path d="M21.99927,25.43066l-.06079.48529a3.78164,3.78164,0,0,0,1.37793-.71484l.35522-.6026A9.567,9.567,0,0,1,21.99927,25.43066Z" fill="#f7e017" /><path d="M17.80957,23.54382a6.0693,6.0693,0,0,1-.99683-.85644l-.49633.31988a5.28519,5.28519,0,0,0,1.2666,1.0481Z" fill="#f7e017" /><path d="M23.65625,22.22919a7.95808,7.95808,0,0,1-2.49292,1.84845l-.4436.3269-.24952.06928h-.60742V24.319a3.93219,3.93219,0,0,1-1.78174-.60321l-.12524.54462a4.89888,4.89888,0,0,0,2.05249.53021,4.74743,4.74743,0,0,0,3.75342-2.12915Z" fill="#f7e017" /></g></svg>