<svg id="Ebene_1" data-name="Ebene 1" xmlns="http://www.w3.org/2000/svg" viewBox="0 0 44 44"><defs><style>.cls-1{fill:#00f300;}</style></defs><g id="icid-police_d0-2" data-name="icid-police d0-2"><g id="Ebene_1-2" data-name="Ebene 1-2"><path class="cls-1" d="M3.85,39.1a1.13552,1.13552,0,0,1-.8-.3,1.23074,1.23074,0,0,1-.5-1,1.854,1.854,0,0,1,.2-.7L20.95,5.6a1.30269,1.30269,0,0,1,1.79806-.40124L22.75,5.2a.78076.78076,0,0,1,.4.4l18.2,31.6a1.4214,1.4214,0,0,1,.2.6,1.23077,1.23077,0,0,1-.5,1,1.13551,1.13551,0,0,1-.8.3Z"/><polygon points="8.15 35.3 22.05 11.3 35.95 35.3 8.15 35.3"/></g><path class="cls-1" d="M25.15,24a21.852,21.852,0,0,0-3.4-1c-.7-.2-1.7-.5-1.4-1.4.1-.3.5-.5.8-.6a9.00425,9.00425,0,0,1,4.6.5v-2c-2.3-.9-5.7-1.1-7.6.8a2.53945,2.53945,0,0,0,.185,3.58656L18.35,23.9c-2.3.8-2.8,3.7-.4,4.7.7.3,2.7.8,3.4,1,.6.2,1.5.3,1.5,1.1-.3,1.8-4.7.8-5.9.4v2a9.75382,9.75382,0,0,0,5.1.6c2.5-.1,4.9-2.7,2.7-4.9C27.15,28,27.55,25,25.15,24Zm-1.5,4a10.37425,10.37425,0,0,0-1-.4,28.0441,28.0441,0,0,1-3.1-.9c-1-.3-.8-1.7-.1-2.2a4.17887,4.17887,0,0,0,1,.4l2.6.7a1.29188,1.29188,0,0,1,.6,2.4Z"/></g></svg>