<svg id="Ebene_1" data-name="Ebene 1" xmlns="http://www.w3.org/2000/svg" viewBox="0 0 44 44"><defs><style>.cls-1,.cls-2{fill:#00f300;}.cls-2{fill-rule:evenodd;}</style></defs><g id="icid-queuetraffic_d0-2" data-name="icid-queuetraffic d0-2"><g id="Ebene_1-2" data-name="Ebene 1-2"><path class="cls-1" d="M3.83508,39.09545a1.13548,1.13548,0,0,1-.8-.3,1.2308,1.2308,0,0,1-.5-1,1.07829,1.07829,0,0,1,.2-.7l18.2-31.5a1.30833,1.30833,0,0,1,2.2,0l18.2,31.6a1.4214,1.4214,0,0,1,.2.6,1.38856,1.38856,0,0,1-.5,1,1.32985,1.32985,0,0,1-.8.3Z"/><polygon points="8.135 35.295 22.035 11.295 35.935 35.295 8.135 35.295"/></g><path class="cls-2" d="M20.30344,33.10723a.70517.70517,0,0,0,.698.71208h.4654a.70524.70524,0,0,0,.69811-.71208V31.94394l-1.8615.013Zm7.91133,0a.70525.70525,0,0,0,.69811.71208h.4653a.70518.70518,0,0,0,.69811-.71208v-1.13l-1.86151.00982Zm2.20672-4.82073-1.83111-3.291H21.70213L19.871,28.2865c-.2615.08887-.43591.17786-.43591.53368V30.688c0,.44475.2615.97837.52316.97837H30.42148c.26155,0,.52316-.53362.52316-.97837V28.82018A.52845.52845,0,0,0,30.42149,28.2865Zm-9.50417-.62266,1.13353-2.22369h6.19083l1.13353,2.22369Z"/><path class="cls-1" d="M21.24577,24.47716H16.02108l.92676-1.81811h5.06165l.85858,1.68426H23.434l-1.1394-2.04786H16.66277l-1.4972,2.6908c-.2138.07263-.35638.14538-.35638.43634v1.5271c0,.36365.21381.79992.42773.79992h4.10022Z"/><path class="cls-1" d="M15.51915,28.92773a.57657.57657,0,0,0,.57068.58215h.38055a.57657.57657,0,0,0,.57074-.58215v-.95118l-1.522.01068Z"/></g></svg>