<svg id="Ebene_1" data-name="Ebene 1" xmlns="http://www.w3.org/2000/svg" viewBox="0 0 44 44"><defs><style>.cls-1,.cls-2{fill:#00f300;}.cls-2{fill-rule:evenodd;}</style></defs><g id="icid-tornado_d0-2" data-name="icid-tornado d0-2"><g id="Ebene_1-2" data-name="Ebene 1-2"><path class="cls-1" d="M3.83508,39.09545a1.13548,1.13548,0,0,1-.8-.3,1.2308,1.2308,0,0,1-.5-1,1.07829,1.07829,0,0,1,.2-.7l18.2-31.5a1.30833,1.30833,0,0,1,2.2,0l18.2,31.6a1.4214,1.4214,0,0,1,.2.6,1.38856,1.38856,0,0,1-.5,1,1.32985,1.32985,0,0,1-.8.3Z"/><polygon points="8.135 35.295 22.035 11.295 35.935 35.295 8.135 35.295"/></g><path class="cls-2" d="M25.25084,19.80413c-.14386-.2088-.536-.496-1.55292-.51764a10.37367,10.37367,0,0,0-4.08935.56934c-2.92054,1.166-1.86921,2.15582-1.70819,2.27758s2.13208,1.35358,2.13208,2.64124S18.89635,26.28954,17.533,29.2401c-.69012,1.49341.28992,3.2005,1.17072,4.17878.8598.95452,2.50262,1.14764,1.52991-.16169-1.9693-2.651,1.395-4.33087,3.06146-5.62182A6.48377,6.48377,0,0,0,26.12865,22.526,5.43059,5.43059,0,0,0,25.25084,19.80413ZM21.9287,21.93969c-1.79462.34613-3.51679.08746-3.60828-.42273-.10761-.59973,1.26007-1.23139,3.05469-1.57745s3.35681-.14411,3.45831.45654C24.90294,20.80736,23.72325,21.59362,21.9287,21.93969Z"/></g></svg>