<svg id="Ebene_1" data-name="Ebene 1" xmlns="http://www.w3.org/2000/svg" viewBox="0 0 44 44"><defs><style>.cls-1,.cls-2{fill:#00f300;}.cls-2,.cls-3{fill-rule:evenodd;}</style></defs><g id="icid-heavyvehicle_d0-2" data-name="icid-heavyvehicle d0-2"><g id="Ebene_1-2" data-name="Ebene 1-2"><path class="cls-1" d="M3.85,39.1a1.13552,1.13552,0,0,1-.8-.3,1.23074,1.23074,0,0,1-.5-1,1.854,1.854,0,0,1,.2-.7L20.95,5.6a1.30269,1.30269,0,0,1,1.79806-.40124L22.75,5.2a.78076.78076,0,0,1,.4.4l18.2,31.6a1.4214,1.4214,0,0,1,.2.6,1.23077,1.23077,0,0,1-.5,1,1.13551,1.13551,0,0,1-.8.3Z"/><polygon points="8.15 35.3 22.05 11.3 35.95 35.3 8.15 35.3"/></g><rect class="cls-1" x="16.05" y="30.9" width="2.1" height="3.6"/><rect class="cls-1" x="18.65" y="30.9" width="2.1" height="3.6"/><rect class="cls-1" x="23.35" y="30.9" width="2.1" height="3.6"/><rect class="cls-1" x="25.95" y="30.9" width="2.1" height="3.6"/><rect class="cls-1" x="21.25" y="30.9" width="1.6" height="1.6"/><polygon class="cls-2" points="26.95 29.3 26.95 20.5 17.15 20.5 17.15 29.3 16.05 29.3 16.05 30.4 28.05 30.4 28.05 29.3 26.95 29.3"/><path class="cls-3" d="M18.15,21.6h7.8v7.7h-7.8Z"/></g></svg>