<svg id="Ebene_1" data-name="Ebene 1" xmlns="http://www.w3.org/2000/svg" viewBox="0 0 44 44"><defs><style>.cls-1,.cls-2{fill:#00f300;}.cls-2{fill-rule:evenodd;}</style></defs><path class="cls-1" d="M4.5,41.5a2,2,0,0,1-2-2V4.5a2,2,0,0,1,2-2h35a2,2,0,0,1,2,2v35a2,2,0,0,1-2,2Z"/><path d="M39.5,3A1.5,1.5,0,0,1,41,4.5v35A1.5,1.5,0,0,1,39.5,41H4.5A1.5,1.5,0,0,1,3,39.5V4.5A1.5,1.5,0,0,1,4.5,3h35m0-1H4.5A2.5,2.5,0,0,0,2,4.5v35A2.5,2.5,0,0,0,4.5,42h35A2.5,2.5,0,0,0,42,39.5V4.5A2.5,2.5,0,0,0,39.5,2Z"/><rect x="8.3" y="8.3" width="27.4" height="27.4"/><path class="cls-2" d="M19.33093,20.3H16.8V14.7h6.6v1.56555l1.5-1.48724V14.3a1.1,1.1,0,0,0-1.1-1.1H16.5a1.1,1.1,0,0,0-1.19543.99542Q15.2998,14.24762,15.3,14.3v9.99664Z"/><polygon class="cls-2" points="24.9 23.67 17.607 30.9 26 30.9 26 29.4 24.9 29.4 24.9 23.67"/><path class="cls-2" d="M30.9,21.1a17.70846,17.70846,0,0,0-.1-2.4c0-.3,0-.3.3-.5.27648-.18426.20788-.37573.03979-.71649l-1.447,1.43463c.10278,1.30072.23279,3.06238.30725,3.88184a24.99889,24.99889,0,0,0,.2,3.3c0,1.1-.2,2.2-1.2,2.2a1.8,1.8,0,0,1-1.8-1.8V21.8c0-.13263-.00281-.26728-.00964-.40088L26.0907,22.48938c-.022,1.09583-.07172,3.20044.00928,4.01062a2.80006,2.80006,0,0,0,2.59283,2.99286h.00006q.10337.00741.20715.00714A2.19987,2.19987,0,0,0,31.3,27S31.1,23.4,30.9,21.1Z"/><path class="cls-1" d="M41,4.5A1.5,1.5,0,0,0,39.5,3H38.2L3,37.9v1.6A1.5,1.5,0,0,0,4.5,41H6L41,6.3Z"/></svg>