<svg id="Ebene_1" data-name="Ebene 1" xmlns="http://www.w3.org/2000/svg" viewBox="0 0 44 44"><defs><style>.cls-1{fill:#00f300;}.cls-2{stroke:#00f300;stroke-miterlimit:10;}</style></defs><path class="cls-1" d="M3.84,39.1a1.12,1.12,0,0,1-.8-.3,1.19,1.19,0,0,1-.5-1,1.17,1.17,0,0,1,.2-.7L20.94,5.6a1.3,1.3,0,0,1,1.79-.41,1.34,1.34,0,0,1,.41.41l18.2,31.6a1.42,1.42,0,0,1,.2.6,1.39,1.39,0,0,1-.5,1,1.32,1.32,0,0,1-.8.3Z"/><polygon points="8.14 35.3 22 11.3 35.9 35.3 8.14 35.3"/><rect class="cls-1" x="15.4" y="27.4" width="3.11" height="0.777"/><rect class="cls-1" x="25.5" y="27.4" width="3.11" height="0.777"/><polygon class="cls-1" points="27.6 26.5 27.6 25.8 28.9 25.8 29 25.2 27.5 25.2 27.5 25.6 16.6 25.6 16.6 25.2 15 25.2 15.1 25.8 16.4 25.8 16.4 26.5 27.6 26.5"/><path class="cls-1" d="M27.7,25.8v-.648s-1.17-1.94-1.94-2.07a36.99924,36.99924,0,0,0-3.79-.13,36.50109,36.50109,0,0,0-3.76.13c-.777.259-1.94,2.07-1.94,2.07V25.8l-1.3.777v4.92a.474.474,0,0,0,.518.518h2.07a.557.557,0,0,0,.518-.518v-.648h7.81v.648a.474.474,0,0,0,.518.518h2.07a.557.557,0,0,0,.518-.518v-4.92Zm.389,5.31h-1.3V29.94h-9.62v1.17h-1.3V27.09l1.3-.648v-1.04a7.59,7.59,0,0,1,1.17-1.42c.259-.13.911-.13,3.63-.13a18.099,18.099,0,0,1,3.66.13,7.58959,7.58959,0,0,1,1.17,1.42v1.04l1.3.648Z"/><path class="cls-2" d="M19.1,33.5a.181.181,0,0,1-.129-.0484.192.192,0,0,1-.0806-.161.188.188,0,0,1,.0323-.113l2.93-5.08a.209.209,0,0,1,.28793-.06677l.00107.00067a.2161.2161,0,0,1,.0661.0661l2.93,5.1a.22989.22989,0,0,1,.0322.0968.224.224,0,0,1-.0806.161.213.213,0,0,1-.129.0484Z"/></svg>