<svg id="Ebene_1" data-name="Ebene 1" xmlns="http://www.w3.org/2000/svg" viewBox="0 0 44 44"><defs><style>.cls-1,.cls-2{fill:#00f300;}.cls-2{fill-rule:evenodd;}</style></defs><g id="icid-badroad_d0-2" data-name="icid-badroad d0-2"><g id="Ebene_1-2" data-name="Ebene 1-2"><path class="cls-1" d="M3.83934,39.10147a1.1,1.1,0,0,1-.8-.3,1.2,1.2,0,0,1-.5-1,1.10008,1.10008,0,0,1,.2-.7l18.2-31.5a1.3,1.3,0,0,1,2.2,0l18.2,31.6a1.15109,1.15109,0,0,1-.3,1.6,1.3,1.3,0,0,1-.8.3Z"/><polygon points="8.139 35.301 22.039 11.301 35.939 35.301 8.139 35.301"/><path class="cls-2" d="M11.33934,31.30147h.9c1,0,1.4-2.8,4.3-2.8s3.8,2.8,5.2,2.8h0c1.5,0,2.5-2.8,5.1-2.8s3.6,2.8,4.3,2.8h.9v2.2h-20.7Z"/></g></g></svg>