<svg id="Ebene_1" data-name="Ebene 1" xmlns="http://www.w3.org/2000/svg" viewBox="0 0 44 44"><defs><style>.cls-1{fill:#00f300;}</style></defs><g id="icid-weather_d0-2" data-name="icid-weather d0-2"><g id="Ebene_1-2" data-name="Ebene 1-2"><path class="cls-1" d="M3.83508,39.09545a1.13548,1.13548,0,0,1-.8-.3,1.23074,1.23074,0,0,1-.5-1,1.07817,1.07817,0,0,1,.2-.7l18.2-31.5a1.30833,1.30833,0,0,1,2.2,0l18.2,31.6a1.4214,1.4214,0,0,1,.2.6,1.38856,1.38856,0,0,1-.5,1,1.32992,1.32992,0,0,1-.8.3Z"/><polygon points="8.135 35.295 22.035 11.295 35.935 35.295 8.135 35.295"/></g><path class="cls-1" d="M22.52882,29.37326l.21272-2.17752q.02014-.24309.05061-.57979t.06839-.73179q.038-.395.07343-.82544t.06332-.86339q.02778-.43294.04553-.84821t.01773-.7799V18.48058H21.0248v4.08664q0,.36465.01774.7799t.04558.84821q.02776.43293.06332.86339.03538.43053.07088.82544t.06835.73179q.0329.33679.05823.57979l.20763,2.17752Z"/><rect class="cls-1" x="20.86276" y="31.19127" width="2.34465" height="2.30918"/></g></svg>