<svg id="Ebene_1" data-name="Ebene 1" xmlns="http://www.w3.org/2000/svg" viewBox="0 0 44 44"><defs><style>.cls-1{fill:#00f300;}.cls-2{fill:none;stroke:#00f300;stroke-miterlimit:10;stroke-width:1.5px;}</style></defs><g id="icid-narrowlanes_d0-2" data-name="icid-narrowlanes d0-2"><g id="Ebene_1-2" data-name="Ebene 1"><g id="Ebene_1-2-2" data-name="Ebene 1-2"><path class="cls-1" d="M3.85,39.1a1.13552,1.13552,0,0,1-.8-.3,1.23074,1.23074,0,0,1-.5-1,1.07816,1.07816,0,0,1,.2-.7L20.95,5.6a1.30833,1.30833,0,0,1,2.2,0l18.2,31.6a1.4214,1.4214,0,0,1,.2.6,1.38856,1.38856,0,0,1-.5,1,1.32985,1.32985,0,0,1-.8.3Z"/><polygon points="8.15 35.3 22.05 11.3 35.95 35.3 8.15 35.3"/></g><polyline class="cls-2" points="20.15 18.6 20.15 23.5 18.05 26.7 18.05 33.7"/><polyline class="cls-2" points="23.95 18.6 23.95 23.5 26.05 26.7 26.05 33.7"/></g></g></svg>