<svg id="Ebene_1" data-name="Ebene 1" xmlns="http://www.w3.org/2000/svg" viewBox="0 0 44 44"><defs><style>.cls-1,.cls-3{fill:#00f300;}.cls-2{fill:#020202;}.cls-2,.cls-3{fill-rule:evenodd;}</style></defs><path class="cls-1" d="M3.83508,39.09545a1.13548,1.13548,0,0,1-.8-.3,1.2308,1.2308,0,0,1-.5-1,1.07829,1.07829,0,0,1,.2-.7l18.2-31.5a1.30833,1.30833,0,0,1,2.2,0l18.2,31.6a1.4214,1.4214,0,0,1,.2.6,1.38856,1.38856,0,0,1-.5,1,1.32985,1.32985,0,0,1-.8.3Z"/><polygon points="8.135 35.295 22.035 11.295 35.935 35.295 8.135 35.295"/><path class="cls-2" d="M21.99128,29.0291a2.78608,2.78608,0,1,1-2.78608,2.78608h0a2.786,2.786,0,0,1,2.78592-2.78608Z"/><path class="cls-2" d="M21.99128,22.19945a2.78608,2.78608,0,1,1-2.78608,2.78608h0v-.00008a2.786,2.786,0,0,1,2.786-2.786Z"/><path class="cls-2" d="M21.99128,15.52918a2.786,2.786,0,1,1-.00016,0Z"/><path class="cls-3" d="M21.99128,16.0291a2.28724,2.28724,0,1,1-.00212,0Z"/><path class="cls-3" d="M22.98309,29.765,19.71069,31.739c-.00085.02588-.00769.05011-.00769.07624A2.28618,2.28618,0,1,0,22.98309,29.765Z"/><path class="cls-3" d="M23.12909,23.01813a2.263,2.263,0,0,0-1.144-.31885H21.983a2.28619,2.28619,0,0,0-2.28619,2.28619c0,.03327.00836.06421.00976.09711Z"/><rect class="cls-1" x="6.32677" y="26.86337" width="25.75687" height="3.70162" transform="translate(-12.07084 14.04609) rotate(-31.09779)"/></svg>