<svg id="Ebene_1" data-name="Ebene 1" xmlns="http://www.w3.org/2000/svg" viewBox="0 0 44 44"><defs><style>.cls-1{fill:#00f300;}</style></defs><g id="icid-animal_d0-2" data-name="icid-animal d0-2"><g id="Ebene_1-2" data-name="Ebene 1-2"><path class="cls-1" d="M3.84,39.1a1.125,1.125,0,0,1-.8-.3,1.19211,1.19211,0,0,1-.5-1,1.148,1.148,0,0,1,.2-.7L20.94,5.6a1.29854,1.29854,0,0,1,1.79-.41,1.33619,1.33619,0,0,1,.41.41l18.2,31.6a1.42324,1.42324,0,0,1,.2.6,1.38971,1.38971,0,0,1-.5,1,1.31886,1.31886,0,0,1-.8.3Z"/><polygon points="8.14 35.3 22.04 11.3 35.94 35.3 8.14 35.3"/></g><path class="cls-1" d="M28.25,25.77c.84-.02,1.63-.13,1.64.98v3.29l.31.31-.48,1.07a2.019,2.019,0,0,1-.3-1.13s.01-2.9.01-3.28c.01-.96-.67-.72-.67-.72a1.40949,1.40949,0,0,1,.21.72c0,.41-.05,7.68-.05,7.68h-.89a1.97921,1.97921,0,0,0,.2-1.33,3.43121,3.43121,0,0,0-.95-2.09c-.26.73-1.42,3.42-1.42,3.42h-.89a2.70848,2.70848,0,0,0,.69-1.33,3.22939,3.22939,0,0,0-.69-2.76l-2.58.51.2,3.58H21.7a2.44612,2.44612,0,0,0,.1-1.23,3.41868,3.41868,0,0,0-.79-1.94c-.1.92-.4,3.17-.4,3.17h-.89a11.99543,11.99543,0,0,0,.4-1.33,5.29406,5.29406,0,0,0-.69-3.07,16.85792,16.85792,0,0,0-1.83-2.3H15.24a.76.76,0,0,1-.62-.26l-.31-.36c.39-.46,2.41-2.41,2.41-2.41l-1.39-.82h1.9l.56.67.51-.51a1.147,1.147,0,0,1,.15.56,2.18885,2.18885,0,0,1-.15.56l2.52.36h7.43Z"/></g></svg>