<svg id="Ebene_1" data-name="Ebene 1" xmlns="http://www.w3.org/2000/svg" viewBox="0 0 44 44"><defs><style>.cls-1,.cls-3{fill:#00f300;}.cls-2{fill:none;stroke:#00f300;stroke-miterlimit:10;stroke-width:0.84px;}.cls-3{fill-rule:evenodd;}</style></defs><g id="icid-delay_d0-2" data-name="icid-delay d0-2"><g id="Ebene_1-2" data-name="Ebene 1-2"><path class="cls-1" d="M3.83934,39.10147a1.1,1.1,0,0,1-.8-.3,1.2,1.2,0,0,1-.5-1,1.10008,1.10008,0,0,1,.2-.7l18.2-31.5a1.3,1.3,0,0,1,2.2,0l18.2,31.6a1.15109,1.15109,0,0,1-.3,1.6,1.3,1.3,0,0,1-.8.3Z"/><polygon points="8.139 35.301 22.039 11.301 35.939 35.301 8.139 35.301"/></g><path class="cls-2" d="M25.43934,19.70147h-6.9v4.1l1.8,2.1a1.4,1.4,0,0,1,.1,1.5c-.6.9-1.9,2.5-1.9,2.5v4.1h6.9v-4.1l-2-2.5a1.8,1.8,0,0,1,.1-1.6l1.9-2Z"/><polygon class="cls-3" points="21.739 28.201 20.139 30.101 20.139 32.401 23.839 32.401 23.839 30.101 22.239 28.201 21.739 28.201"/><polygon class="cls-3" points="20.139 21.401 20.139 22.901 21.439 24.501 21.439 25.601 22.539 25.601 22.539 24.501 23.839 22.901 23.839 21.401 20.139 21.401"/></g></svg>