<svg id="Ebene_1" data-name="Ebene 1" xmlns="http://www.w3.org/2000/svg" viewBox="0 0 44 44"><defs><style>.cls-1,.cls-2{fill:#00f300;}.cls-2{fill-rule:evenodd;}</style></defs><g id="icid-slowtraffic_d0-2" data-name="icid-slowtraffic d0-2"><g id="Ebene_1-2" data-name="Ebene 1-2"><path class="cls-1" d="M3.83508,39.09545a1.13548,1.13548,0,0,1-.8-.3,1.2308,1.2308,0,0,1-.5-1,1.07829,1.07829,0,0,1,.2-.7l18.2-31.5a1.30833,1.30833,0,0,1,2.2,0l18.2,31.6a1.4214,1.4214,0,0,1,.2.6,1.38856,1.38856,0,0,1-.5,1,1.32985,1.32985,0,0,1-.8.3Z"/><polygon points="8.135 35.295 22.035 11.295 35.935 35.295 8.135 35.295"/></g><path class="cls-2" d="M16.45508,33.13545a.79617.79617,0,0,0,.78218.8099h0l.00782.0001h.53a.79615.79615,0,0,0,.7901-.80216v0l-.00009-.00784v-1.32l-2.11.01Zm8.95,0a.79616.79616,0,0,0,.78218.8099h0l.00782.0001h.53a.79615.79615,0,0,0,.7901-.80216v0l-.0001-.00784v-1.28l-2.11.01Zm2.5-5.46-2.07-3.72h-7.8l-2.07,3.72c-.3.1-.49.2-.49.6v2.11c0,.5.3,1.11.59,1.11h11.84c.3,0,.59-.6.59-1.11v-2.11a.59325.59325,0,0,0-.58644-.6h-.00356Zm-10.75-.7,1.28-2.52h7.01l1.28,2.52Z"/></g></svg>