<?xml version="1.0" encoding="UTF-8"?>
<svg id="Layer_1" data-name="Layer 1" xmlns="http://www.w3.org/2000/svg" viewBox="0 0 44 44">
  <defs>
    <style>
      .cls-1 {
        isolation: isolate;
        opacity: .2;
      }

      .cls-1, .cls-2 {
        fill: lime;
      }

      .cls-3 {
        fill: none;
        opacity: .5;
        stroke: lime;
        stroke-miterlimit: 10;
        stroke-width: 1.025px;
      }
    </style>
  </defs>
  <rect id="Hintergrund" class="cls-3" x="1.5" y="1.5" width="41" height="41" rx="3.075" ry="3.075"/>
  <g id="Curve_Road_Shape" data-name="Curve Road Shape">
    <path id="Fläche-2" class="cls-1" d="m36.99635,2.01721c-3.70074-.00007-7.71849-.00019-12.99863-.00019,0,6.20867-4.99431,8.97309-10.99074,16.98571-5.72937,7.65574-8.71232,14.83059-8.9673,21.9807.48988.36981.05782.72165.15975.8885.07581.1241.72951.1113.77549.1113h14.02701c0-7.48195,5.99344-14.96789,11.98987-22.9805,5.73407-7.66207,8.09111-12.17415,8.28694-16.40555-.35315-.18813-.36102-.48763-.74615-.58502-.06065-.01534-.59454.00712-.59454.00712,0,0-.60841.00066-.94171-.00207Z"/>
    <path id="Kontur-2" class="cls-2" d="m12.75687,41.98295h-1.49879c.00169-1.72107.19378-3.43667.57278-5.11549l1.46171.32884c-.35641,1.5706-.53609,3.17612-.5357,4.78665Zm1.03822-6.6572l-1.43048-.44593c.51387-1.62748,1.16173-3.20958,1.93691-4.73006l1.33876.67329c-.73785,1.44761-1.35501,2.95363-1.84519,4.50273v-.00002Zm2.77315-6.22836l-1.30168-.74159c.78062-1.37189,1.67052-2.76876,2.72143-4.26998l1.22753.85965c-1.02359,1.4627-1.8891,2.8205-2.64728,4.15192Zm3.80356-5.75706l-1.20412-.89184c.68596-.9265,1.42072-1.87983,2.24618-2.91414l.83333-1.04847,1.17483.92991-.83721,1.05384c-.77669.97285-1.51436,1.92976-2.21301,2.87073v-.00002Zm4.2856-5.50629l-1.18654-.91626c1.14653-1.48366,2.11059-2.78774,2.94975-3.98701l1.22753.85868c-.85185,1.21877-1.83055,2.54191-2.99074,4.04461v-.00002Zm4.1265-5.7185l-1.25484-.81965c.90504-1.35449,1.71023-2.7731,2.40918-4.24457l1.36023.62742c-.72876,1.53833-1.5692,3.02122-2.51457,4.43679Zm3.28834-6.36497l-1.42072-.47714c.37305-1.04592.57249-2.14582.59039-3.25614h1.49879c-.01718,1.2726-.24298,2.53377-.66841,3.73328h-.00005Zm6.15744-3.55968c-.00088.06588-.00227.13183-.00416.19787-.12188,4.25179-2.34944,8.83623-7.83356,16.16489l-1.1036,1.47049c-5.67505,7.55301-11.03594,14.68689-11.03594,21.95882h1.49879c0-6.77137,5.21453-13.71107,10.73546-21.05815l1.10555-1.47342c5.50016-7.34924,7.79594-11.94564,8.1034-16.3821.0055-.07936.0146-.23794.0146-.23794l.03949-.78659s-.08772-.03694-.30241-.03001-1.2152.00365-1.2152.00365l-.00238.1725h-.00005Zm-20.56369,10.06028c-1.57588,1.76566-3.36154,3.76649-5.25942,6.30252-5.63489,7.52989-8.61197,14.59285-9.07273,21.52605-.00546.08218-.01532.24649-.01532.24649,0,0-.07019,1.23608.03884,1.29969.66417.38743,1.42674.32594,1.42674.32594l-.00601-.51733s.00329-.14726.00539-.22092c.19822-6.9654,3.0844-14.09305,8.82335-21.76221,1.85885-2.48432,3.62207-4.45928,5.17745-6.2025,3.462-3.87918,5.96291-6.68258,5.96291-11.23161h-1.49879c0,3.97771-2.22086,6.46643-5.58239,10.23388Z"/>
  </g>
</svg>