<?xml version="1.0" encoding="UTF-8"?>
<svg id="Ebene_1" data-name="Ebene 1" xmlns="http://www.w3.org/2000/svg" viewBox="0 0 44 44">
  <defs>
    <style>
      .cls-1, .cls-2 {
        fill: #00f300;
      }

      .cls-2 {
        isolation: isolate;
        opacity: .15;
      }
    </style>
  </defs>
  <path id="Fläche-2" class="cls-2" d="m39.34161,2.00092s-10.05724-.00019-15.34166-.00019c0,6.21369-4.99835,8.98035-10.99963,16.99945-5.734,7.66193-8.71937,14.84259-8.97455,21.99848-.03477.26866-.07741,1.00061-.07741,1.00061h15.05177c0-7.488,5.99829-14.98,11.99957-22.99909,5.73871-7.66827,8.09766-12.184,8.29364-16.41882.05946-.52193.04827-.58044.04827-.58044Z"/>
  <path class="cls-1" d="m12.75,41.999h-1.5c.00169-1.72246.19394-3.43945.57324-5.11963l1.46289.32911c-.3567,1.57187-.53652,3.17869-.53613,4.79052Z"/>
  <path class="cls-1" d="m13.78906,35.33641l-1.43164-.44629c.51429-1.6288,1.16267-3.21218,1.93848-4.73389l1.33984.67383c-.73845,1.44878-1.3561,2.95601-1.84668,4.50637v-.00002Z"/>
  <path class="cls-1" d="m16.56445,29.10301l-1.30273-.74219c.78125-1.373,1.67187-2.771,2.72363-4.27344l1.22852.86035c-1.02442,1.46389-1.89063,2.82278-2.64942,4.15528Z"/>
  <path class="cls-1" d="m20.37109,23.34129l-1.20509-.89256c.68652-.92725,1.42187-1.88135,2.248-2.9165l.834-1.04932,1.17578.93066-.83789,1.05469c-.77732.97363-1.51558,1.93132-2.2148,2.87305v-.00002Z"/>
  <path class="cls-1" d="m24.66016,17.83055l-1.1875-.917c1.14746-1.48486,2.1123-2.79,2.95214-3.99023l1.22852.85937c-.85254,1.21975-1.83203,2.54397-2.99316,4.04788v-.00002Z"/>
  <path class="cls-1" d="m28.79,12.10742l-1.25586-.82031c.90578-1.35559,1.71162-2.77534,2.41113-4.248l1.36133.62793c-.72935,1.53957-1.57047,3.02367-2.5166,4.44038Z"/>
  <path class="cls-1" d="m32.081,5.7373l-1.42187-.47753c.37336-1.04676.57295-2.14756.59087-3.25877h1.5c-.01719,1.27363-.24317,2.53582-.66895,3.7363h-.00005Z"/>
  <path class="cls-1" d="m23,2.00073v.00043c0,3.88525-2.19727,6.34766-5.52344,10.07568-1.58008,1.77051-3.37109,3.77686-5.27734,6.32422-5.74414,7.67627-8.73535,14.84814-9.14551,21.93213-.00879.28906-.07715,1.64648-.07715,1.64648l-.00098.02032h2.00513c.00317-.04327.02228-.30792.03394-.54474.14258-6.99805,3.0166-14.14746,8.78613-21.85596,1.84863-2.4707,3.60449-4.43896,5.16797-6.19092,3.50098-3.92334,6.03125-6.75781,6.03125-11.40723v-.00043h-2Z"/>
  <path class="cls-1" d="m37.9953,2.00073l-.00214.17035c-.05664,4.26074-2.24219,8.81152-7.79395,16.22998l-1.10547,1.47314c-5.70508,7.5918-11.09375,14.76367-11.09375,22.125v.00079h2v-.00079c0-6.69434,5.19434-13.60645,10.69434-20.92529l1.10645-1.47461c5.64062-7.53613,7.93262-12.23828,8.1748-16.77051l.00781-.14551.01257-.68256h-2.00067Z"/>
</svg>