<?xml version="1.0" encoding="UTF-8"?>
<svg id="Ebene_1" data-name="Ebene 1" xmlns="http://www.w3.org/2000/svg" viewBox="0 0 44 44">
  <defs>
    <style>
      .cls-1 {
        fill: #fff;
      }

      .cls-2 {
        fill: #010101;
        fill-rule: evenodd;
      }

      .cls-3 {
        fill: #c1121c;
      }
    </style>
  </defs>
  <path class="cls-1" d="M3.31162,38.48075c-.14002,0-.27703-.04-.39705-.11501-.34904-.21903-.45405-.68108-.23503-1.03012L20.27857,6.81661l1.07012-1.82721c.13502-.23553,.37704-.37854,.63807-.38354l.001,.0035c.19602,.0005,.38804,.08001,.52606,.21853,.15002,.15302,.28003,.33404,.38104,.53106l18.45913,31.99969c.06601,.11601,.10101,.24503,.10101,.37604,0,.41005-.33604,.74609-.74809,.74609H3.31162Z"/>
  <path class="cls-3" d="M22.00031,4.03288c-.33412-.00799-.66056,.10082-.92307,.30769-.10256,.10256-.10256,.20513-.20513,.30769L2.20566,37.05815c-.11377,.1871-.18388,.39744-.20513,.61538-.01177,.45914,.22297,.88951,.61538,1.12819,.1871,.11377,.39744,.18388,.61538,.20513H40.66675c.30305,.00768,.59723-.10264,.8205-.30769,.32542-.23994,.51611-.62133,.51281-1.02563-.02124-.21794-.09136-.42828-.20513-.61538L23.12849,4.64826c-.22149-.40998-.66359-.65112-1.12819-.61538Zm14.25625,31.17913H7.74406L22.00031,10.49435l14.25625,24.71766Z"/>
  <path class="cls-2" d="M17.17985,33.46844v-7.28197l1.9487-1.9487v-5.33327h2.05126v6.15378l-1.9487,1.9487v6.3589l-2.05126,.10256Zm7.69222-14.56394h-2.05126v14.56394h2.05126v-14.56394Z"/>
</svg>