<svg xmlns="http://www.w3.org/2000/svg" viewBox="0 0 44 44"><g id="d0_t15_cc-gbr_1p0_2p1023_1s1"><path id="Hintergrund" d="M39.36416,22a17.36416,17.36416,0,1,1-34.72832.00748V22a17.36417,17.36417,0,0,1,34.72833-.00748Z" fill="#010101" fill-rule="evenodd"/><path id="Piktogramm" d="M21.99168,10.42027a8.52546,8.52546,0,0,0-6.07281,2.51109,8.41345,8.41345,0,0,0-1.81414,2.66713,8.9872,8.9872,0,0,0-.71567,3.42024V33.9126l2.61719-2.61719,2.61719,2.61719V21.896a22.05274,22.05274,0,0,1,.08738-3.64493,3.39856,3.39856,0,0,1,.90707-1.62274,3.33854,3.33854,0,0,1,2.37379-.97573,3.33539,3.33539,0,0,1,3.36823,3.36407v3.07073l-.00208,3.69694v5.45907L27.975,33.9126l2.6172-2.66921V28.801l.00207-3.6803v-6.104a8.57705,8.57705,0,0,0-8.60261-8.59638Z" fill="#00f300"/><path id="Rahmen" d="M22.00832,2.10059A19.89941,19.89941,0,1,0,41.8994,22,19.90432,19.90432,0,0,0,22.00832,2.10059Zm0,4.11511A15.768,15.768,0,0,1,36.40288,28.47017L22.79473,20.62275v-.00208L9.20113,12.75661a15.76894,15.76894,0,0,1,12.80719-6.5409ZM7.59711,15.52983l13.60816,7.84742,13.61024,7.86614A15.79671,15.79671,0,0,1,6.21778,22,15.533,15.533,0,0,1,7.59711,15.52983Z" fill="#00f300" stroke="#000" stroke-miterlimit="10" stroke-width="0.25"/><path id="Rahmen-2" data-name="Rahmen" d="M22.00875,41.97168a19.97217,19.97217,0,1,1,0-39.94434h0a19.97217,19.97217,0,0,1,0,39.94434Zm0-39.79883A19.82938,19.82938,0,1,0,41.82711,22,19.85663,19.85663,0,0,0,22.00875,2.17285Z" fill="#010101"/></g></svg>