<svg xmlns="http://www.w3.org/2000/svg" viewBox="0 0 44 44"><g id="d0_t15_cc-gbr_1p0_2p1020_1s1"><path id="Hintergrund" d="M22,42A20,20,0,1,1,42,22,20,20,0,0,1,22,42Z" fill="#010101"/><path id="Rahmen" d="M22,2.38354A19.61646,19.61646,0,1,0,41.61643,22,19.61643,19.61643,0,0,0,22,2.38354ZM22,38A16,16,0,1,1,38,22,16,16,0,0,1,22,38Z" fill="#00f300"/><path id="Piktogramm_linkesAuto" d="M12.22751,17.73077a.66873.66873,0,0,0-.61237.40033l-1.05492,2.42551a2.47145,2.47145,0,0,1-.28029.48325l-.16025.2127a.80261.80261,0,0,0-.16067.48025v1.73455a.66672.66672,0,0,0,.66665.66665h9.87392a.667.667,0,0,0,.667-.66665V21.73281a.80446.80446,0,0,0-.16033-.48025l-.16067-.2127a2.47549,2.47549,0,0,1-.28029-.48325L19.51035,18.1311a.66851.66851,0,0,0-.61228-.40033Zm.16125.66664h6.348a.26685.26685,0,0,1,.24525.16034l.91664,2.10783H11.22687l.91673-2.10783A.26612.26612,0,0,1,12.38876,18.39741Zm6.5093,6.00391h1.60186v1.46757a.401.401,0,0,1-.40067.40034h-.8006a.40076.40076,0,0,1-.40059-.40034Zm-8.27207,0h1.60152v1.46757a.4007.4007,0,0,1-.40034.40034h-.80093a.40068.40068,0,0,1-.40025-.40034" fill="#00f300"/><path id="Piktogramm_rechtesAuto" d="M25.10193,17.73077a.66733.66733,0,0,0-.61137.40033l-1.05583,2.42551a2.48,2.48,0,0,1-.28029.48325l-.16067.2127a.80348.80348,0,0,0-.15934.48025v1.73455a.66637.66637,0,0,0,.667.66665h9.87293a.66672.66672,0,0,0,.66665-.66665V21.73281a.79606.79606,0,0,0-.16067-.48025l-.15933-.2127a2.48463,2.48463,0,0,1-.2813-.48325L32.38486,18.1311a.66732.66732,0,0,0-.61137-.40033H25.10193Zm.16134.66664h6.34888a.2658.2658,0,0,1,.24425.16034l.91764,2.10783H24.10138l.91664-2.10783A.2686.2686,0,0,1,25.26327,18.39741Zm6.51022,6.00391H33.374v1.46757a.40068.40068,0,0,1-.40026.40034h-.80059a.39992.39992,0,0,1-.39967-.40034Zm-8.27208,0h1.60052v1.46757a.40075.40075,0,0,1-.40058.40034h-.79968a.40069.40069,0,0,1-.40026-.40034" fill="#00f300"/></g></svg>