<?xml version="1.0" encoding="UTF-8"?>
<svg id="Ebene_1" data-name="Ebene 1" xmlns="http://www.w3.org/2000/svg" viewBox="0 0 44 44">
  <defs>
    <style>
      .cls-1 {
        fill: #e52421;
      }

      .cls-2 {
        fill: #fff;
      }

      .cls-3 {
        fill: #010101;
      }
    </style>
  </defs>
  <path class="cls-2" d="M22,2.04024c11.0457,0,20,8.9543,20,20s-8.9543,20-20,20S2,33.08594,2,22.04024C2,10.99455,10.9543,2.04024,22,2.04024"/>
  <path class="cls-1" d="M22,2.05024C10.95431,2.05024,2,11.00455,2,22.05024s8.95431,20,20,20,20-8.9543,20-20h0c0-11.04569-8.9543-20-20-20Zm0,36.41026c-9.06313,0-16.41026-7.34712-16.41026-16.41026S12.93687,5.63999,22,5.63999s16.41026,7.34712,16.41026,16.41026-7.34712,16.41026-16.41026,16.41026Z"/>
  <path class="cls-1" d="M16.4,26.00024V15.40024l2.63,2.64v-3.95l-4-4.01-4,4.01v3.95l2.63-2.64v10.6h2.74"/>
  <path class="cls-3" d="M29.2,11.40024V27.40024l3.95-3.97v5.94l-6.01,6.01-6.02-6.01v-5.94l3.97,3.97V11.40024h4.11"/>
</svg>