<svg xmlns="http://www.w3.org/2000/svg" viewBox="0 0 40 40"><g id="EA45_flag_belarus"><rect y="7" width="40" height="26" fill="#c8313e" /><rect y="24.33333" width="40" height="8.66667" fill="#4aa657" /><rect y="7" width="5.77778" height="26" fill="#fff" /><g id="h"><g id="q"><path d="M1.00483,7h.75362v.42623h.25121v.42623h.25121v.42623h.25121v.42623h.25121v.42623H2.51208v.42623H2.26087v.42623H2.00966v.42623H1.75845v.42623h-.2512v.42623H1.256v-.42623H1.00483v-.42623H.75362V9.98361H.50242V9.55738H.25121V9.13115H0V8.70492H.25121V8.27869H.50242V7.85246h.2512V7.42623h.25121Zm.25121.85246h.25121v.42623h.2512v.42623h.25121v.42623H1.75845v.42623h-.2512v.42623H1.256V9.55738H1.00483V9.13115H.75362V8.70492h.25121V8.27869H1.256Zm0,.85246h.25121v.42623H1.256ZM0,7.42623H.25121v.42623H0ZM0,9.98361H.25121v.42623H0ZM2.76329,7H2.914v.85246H2.76329Zm0,2.98361H2.914v.85246H2.76329Zm-2.26087.85246h.2512v.42623h.25121v.42622H1.256v.42623H1.00483V12.541H.75362v.42623H.50242V12.541H.25121v-.42623H0v-.42623H.25121V11.2623H.50242Zm0,.85245h.2512v.42623H.50242Zm1.50724-.85245h.25121v.42623h.25121v.42622h.25121v.42623H2.51208V12.541H2.26087v.42623H2.00966V12.541H1.75845v-.42623h-.2512v-.42623h.2512V11.2623h.25121Zm0,.85245h.25121v.42623H2.00966ZM0,13.39344H.25121v.42623H0Zm2.76329-.42623H2.914v.85246H2.76329Z" fill="#c8313e" /><path d="M0,14.67213H.25121V14.2459H.50242v-.42623h.2512v-.42623h.25121v-.42623H1.256V12.541h.25121v.42623h.2512v.42623h.25121v.42623h.25121v.42623h.25121v.42623h.25121v.42623H2.914v1.70492H2.76329v.42623H2.51208v.42623H2.26087V18.082H2.00966v.42623H1.75845v.42623h-.2512v1.10819H1.00483v-.25573H.75362v-.42623H.50242v-.42623H.25121V18.5082H0V17.22951H.25121v.42623H.50242V18.082h.2512v.42623h.25121V18.082H1.256v-.42623h.25121v-.42623h.2512v-.42623h.25121v-.42623h.25121v-.42623H2.00966v-.42623H1.75845v-.42623H1.00483v.42623h.50242v.42623H1.256v.42623H1.00483v.42623H.75362v-.42623H.50242v-.42623H.25121v-.42623H0Zm0,1.70492H.25121v.42623H0Zm2.76329,1.27869H2.914V18.082H2.76329Zm-.50242.85246h.25121v.42623h.25121v.42623H2.914v.682H2.76329v-.25573H2.51208v-.42623H2.26087Zm-.50242,1.27869h.25121v.25573H1.75845Z" fill="#c8313e" /></g><g id="q-2" data-name="q"><path d="M4.773,7H4.01932v.42623h-.2512v.42623H3.51691v.42623H3.2657v.42623H3.01449v.42623H3.2657v.42623h.25121v.42623h.25121v.42623h.2512v.42623h.25121v.42623h.25121v-.42623H4.773v-.42623h.2512V9.98361h.25121V9.55738h.25121V9.13115h.25121V8.70492H5.52657V8.27869H5.27536V7.85246H5.02415V7.42623H4.773Zm-.25121.85246H4.27053v.42623H4.01932v.42623h-.2512v.42623h.2512v.42623h.25121v.42623h.25121V9.55738H4.773V9.13115h.2512V8.70492H4.773V8.27869H4.52174Zm0,.85246H4.27053v.42623h.25121Zm1.256-1.27869H5.52657v.42623h.25121Zm0,2.55738H5.52657v.42623h.25121ZM3.01449,7H2.86377v.85246h.15072Zm0,2.98361H2.86377v.85246h.15072Zm2.26087.85246H5.02415v.42623H4.773v.42622H4.52174v.42623H4.773V12.541h.2512v.42623h.25121V12.541h.25121v-.42623h.25121v-.42623H5.52657V11.2623H5.27536Zm0,.85245H5.02415v.42623h.25121Zm-1.50724-.85245H3.51691v.42623H3.2657v.42622H3.01449v.42623H3.2657V12.541h.25121v.42623h.25121V12.541h.2512v-.42623h.25121v-.42623H4.01932V11.2623h-.2512Zm0,.85245H3.51691v.42623h.25121Zm2.00966,1.70492H5.52657v.42623h.25121Zm-2.76329-.42623H2.86377v.85246h.15072Z" fill="#c8313e" /><path d="M5.77778,14.67213H5.52657V14.2459H5.27536v-.42623H5.02415v-.42623H4.773v-.42623H4.52174V12.541H4.27053v.42623H4.01932v.42623h-.2512v.42623H3.51691v.42623H3.2657v.42623H3.01449v.42623H2.86377v1.70492h.15072v.42623H3.2657v.42623h.25121V18.082h.25121v.42623h.2512v.42623h.25121v1.10819H4.773v-.25573h.2512v-.42623h.25121v-.42623h.25121V18.5082h.25121V17.22951H5.52657v.42623H5.27536V18.082H5.02415v.42623H4.773V18.082H4.52174v-.42623H4.27053v-.42623H4.01932v-.42623h-.2512v-.42623H3.51691v-.42623h.25121v-.42623h.2512v-.42623H4.773v.42623H4.27053v.42623h.25121v.42623H4.773v.42623h.2512v-.42623h.25121v-.42623h.25121v-.42623h.25121Zm0,1.70492H5.52657v.42623h.25121ZM3.01449,17.65574H2.86377V18.082h.15072Zm.50242.85246H3.2657v.42623H3.01449v.42623H2.86377v.682h.15072v-.25573H3.2657v-.42623h.25121Zm.50241,1.27869h-.2512v.25573h.2512Z" fill="#c8313e" /></g></g><g id="h-2" data-name="h"><g id="q-3" data-name="q"><path d="M1.00483,33h.75362v-.42623h.25121v-.42623h.25121v-.42623h.25121v-.42623h.25121v-.42623H2.51208v-.42623H2.26087v-.42623H2.00966v-.42623H1.75845v-.42623h-.2512V28.7377H1.256v.42623H1.00483v.42623H.75362v.42623H.50242v.42623H.25121v.42623H0v.42623H.25121v.42623H.50242v.42623h.2512v.42623h.25121Zm.25121-.85246h.25121v-.42623h.2512v-.42623h.25121v-.42623H1.75845v-.42623h-.2512v-.42623H1.256v.42623H1.00483v.42623H.75362v.42623h.25121v.42623H1.256Zm0-.85246h.25121v-.42623H1.256ZM0,32.57377H.25121v-.42623H0Zm0-2.55738H.25121v-.42623H0ZM2.76329,33H2.914v-.85246H2.76329Zm0-2.98361H2.914v-.85246H2.76329ZM.50242,29.16393h.2512V28.7377h.25121v-.42622H1.256v-.42623H1.00483V27.459H.75362v-.42623H.50242V27.459H.25121v.42623H0v.42623H.25121v.42622H.50242Zm0-.85245h.2512v-.42623H.50242Zm1.50724.85245h.25121V28.7377h.25121v-.42622h.25121v-.42623H2.51208V27.459H2.26087v-.42623H2.00966V27.459H1.75845v.42623h-.2512v.42623h.2512v.42622h.25121Zm0-.85245h.25121v-.42623H2.00966ZM0,26.60656H.25121v-.42623H0Zm2.76329.42623H2.914v-.85246H2.76329Z" fill="#c8313e" /><path d="M0,25.32787H.25121v.42623H.50242v.42623h.2512v.42623h.25121v.42623H1.256V27.459h.25121v-.42623h.2512v-.42623h.25121v-.42623h.25121V25.7541h.25121v-.42623h.25121v-.42623H2.914V23.19672H2.76329v-.42623H2.51208v-.42623H2.26087V21.918H2.00966V21.4918H1.75845v-.42623h-.2512V19.95738H1.00483v.25573H.75362v.42623H.50242v.42623H.25121v.42623H0v1.27869H.25121v-.42623H.50242V21.918h.2512V21.4918h.25121V21.918H1.256v.42623h.25121v.42623h.2512v.42623h.25121V23.623h.25121v.42623H2.00966v.42623H1.75845v.42623H1.00483v-.42623h.50242v-.42623H1.256V23.623H1.00483v-.42623H.75362V23.623H.50242v.42623H.25121v.42623H0ZM0,23.623H.25121v-.42623H0Zm2.76329-1.27869H2.914V21.918H2.76329Zm-.50242-.85246h.25121v-.42623h.25121v-.42623H2.914v-.682H2.76329v.25573H2.51208v.42623H2.26087Zm-.50242-1.27869h.25121v-.25573H1.75845Z" fill="#c8313e" /></g><g id="q-4" data-name="q"><path d="M4.773,33H4.01932v-.42623h-.2512v-.42623H3.51691v-.42623H3.2657v-.42623H3.01449v-.42623H3.2657v-.42623h.25121v-.42623h.25121v-.42623h.2512v-.42623h.25121V28.7377h.25121v.42623H4.773v.42623h.2512v.42623h.25121v.42623h.25121v.42623h.25121v.42623H5.52657v.42623H5.27536v.42623H5.02415v.42623H4.773Zm-.25121-.85246H4.27053v-.42623H4.01932v-.42623h-.2512v-.42623h.2512v-.42623h.25121v-.42623h.25121v.42623H4.773v.42623h.2512v.42623H4.773v.42623H4.52174Zm0-.85246H4.27053v-.42623h.25121Zm1.256,1.27869H5.52657v-.42623h.25121Zm0-2.55738H5.52657v-.42623h.25121ZM3.01449,33H2.86377v-.85246h.15072Zm0-2.98361H2.86377v-.85246h.15072Zm2.26087-.85246H5.02415V28.7377H4.773v-.42622H4.52174v-.42623H4.773V27.459h.2512v-.42623h.25121V27.459h.25121v.42623h.25121v.42623H5.52657v.42622H5.27536Zm0-.85245H5.02415v-.42623h.25121Zm-1.50724.85245H3.51691V28.7377H3.2657v-.42622H3.01449v-.42623H3.2657V27.459h.25121v-.42623h.25121V27.459h.2512v.42623h.25121v.42623H4.01932v.42622h-.2512Zm0-.85245H3.51691v-.42623h.25121Zm2.00966-1.70492H5.52657v-.42623h.25121Zm-2.76329.42623H2.86377v-.85246h.15072Z" fill="#c8313e" /><path d="M5.77778,25.32787H5.52657v.42623H5.27536v.42623H5.02415v.42623H4.773v.42623H4.52174V27.459H4.27053v-.42623H4.01932v-.42623h-.2512v-.42623H3.51691V25.7541H3.2657v-.42623H3.01449v-.42623H2.86377V23.19672h.15072v-.42623H3.2657v-.42623h.25121V21.918h.25121V21.4918h.2512v-.42623h.25121V19.95738H4.773v.25573h.2512v.42623h.25121v.42623h.25121v.42623h.25121v1.27869H5.52657v-.42623H5.27536V21.918H5.02415V21.4918H4.773V21.918H4.52174v.42623H4.27053v.42623H4.01932v.42623h-.2512V23.623H3.51691v.42623h.25121v.42623h.2512v.42623H4.773v-.42623H4.27053v-.42623h.25121V23.623H4.773v-.42623h.2512V23.623h.25121v.42623h.25121v.42623h.25121Zm0-1.70492H5.52657v-.42623h.25121ZM3.01449,22.34426H2.86377V21.918h.15072Zm.50242-.85246H3.2657v-.42623H3.01449v-.42623H2.86377v-.682h.15072v.25573H3.2657v.42623h.25121Zm.50241-1.27869h-.2512v-.25573h.2512Z" fill="#c8313e" /></g></g></g></svg>