<svg xmlns="http://www.w3.org/2000/svg" xmlns:ns1="http://www.w3.org/1999/xlink" data-name="Ebene 1" viewBox="0 0 50 58"><defs><style>.cls-1{fill:url(#Background);}.cls-2{fill:none;stroke:url(#Frame);}.cls-2,.cls-3{stroke-miterlimit:10;stroke-width:1.5px;}.cls-3{fill:url(#Background-2);stroke:url(#Frame-2);}.cls-4{fill:url(#Pictogram);}.cls-5{fill-rule:evenodd;fill:url(#Pictogram-2);}.cls-6{fill:url(#Pictogram-3);}.cls-7{fill:url(#Pictogram-4);}.cls-8{fill:url(#Pictogram-5);}.cls-9{fill:url(#Pictogram-6);}.cls-10{fill:url(#Pictogram-7);}.cls-11{fill:url(#Pictogram-8);}</style><linearGradient gradientTransform="matrix(44.5 0 0 -44.5 351 2540)" gradientUnits="userSpaceOnUse" id="Background" x1="-7.82" x2="-6.82" y1="56.5" y2="56.5"><stop offset="1" stop-color="#2155d6" /><stop offset="1" /></linearGradient><linearGradient gradientTransform="matrix(44.5 0 0 -44.5 351 2540)" gradientUnits="userSpaceOnUse" id="Frame" x1="-7.82" x2="-6.82" y1="56.5" y2="56.5"><stop offset="1" stop-color="#2155d7" /><stop offset="1" /></linearGradient><linearGradient gradientTransform="matrix(23.6 0 0 -9.5 194 590)" id="Background-2" x1="-7.66" x2="-6.66" y1="56.6" y2="56.6" ns1:href="#Background" /><linearGradient gradientTransform="matrix(23.6 0 0 -9.5 194 590)" id="Frame-2" x1="-7.66" x2="-6.66" y1="56.1" y2="56.1" ns1:href="#Frame" /><linearGradient gradientUnits="userSpaceOnUse" id="Pictogram" x1="6.23" x2="43.8" y1="18.2" y2="18.2"><stop offset="1" stop-color="#fff" /><stop offset="1" /></linearGradient><linearGradient gradientTransform="translate(2.81 -1.62) rotate(4)" id="Pictogram-2" x1="6.3" x2="43.5" y1="39.3" y2="39.3" ns1:href="#Pictogram" /><linearGradient id="Pictogram-3" x1="5.77" x2="11.1" y1="39.5" y2="39.5" ns1:href="#Pictogram" /><linearGradient id="Pictogram-4" x1="39.9" x2="45.2" y1="39.5" y2="39.5" ns1:href="#Pictogram" /><linearGradient id="Pictogram-5" x1="12.5" x2="19.4" y1="39.4" y2="39.4" ns1:href="#Pictogram" /><linearGradient id="Pictogram-6" x1="25.8" x2="30.9" y1="39.5" y2="39.5" ns1:href="#Pictogram" /><linearGradient id="Pictogram-7" x1="33.1" x2="38.3" y1="39.5" y2="39.5" ns1:href="#Pictogram" /><linearGradient gradientTransform="translate(-16.9 62) rotate(-90)" id="Pictogram-8" x1="21.9" x2="23.2" y1="39.5" y2="39.5" ns1:href="#Pictogram" /></defs><rect class="cls-1" height="44.5" rx="3" width="44.5" x="2.75" y="2.75" /><rect class="cls-2" height="44.5" rx="3" width="44.5" x="2.75" y="2.75" /><polygon class="cls-3" points="36.8 47.2 25 56.7 13.2 47.2" /><path class="cls-4" d="m14.7 9.68a3.53 3.53 0 0 0 0.591-1.72 3.25 3.25 0 0 0-0.773-2.09 2.59 2.59 0 0 0-2.14-0.841h-4.07v11h1.74v-4.65h1.74l2.33 4.65h1.74l-2.33-5.23a2.76 2.76 0 0 0 1.16-1.16zm-2.33 0h-2.33v-2.91h2.33a1.15 1.15 0 0 1 0.825 0.261 1.06 1.06 0 0 1 0.338 0.901 1.56 1.56 0 0 1-0.297 1.07c-0.228 0.239-0.54 0.676-0.866 0.676zm11.6 4.65h-4.65v-2.91h2.91v-1.74h-2.91v-2.91h4.65v-1.74h-6.39v11h6.39zm5.8-4.97c-1.09-0.17-1.73-0.716-1.73-1.43a1.42 1.42 0 0 1 1.42-1.47c0.868 0.0131 1.65 0.514 1.65 1.14l1.41-0.714a3.24 3.24 0 0 0-2.95-1.87 3.11 3.11 0 0 0-3.1 2.92c0 1.62 1.06 2.57 3.31 2.9 1.56 0.286 2.03 1.02 2.03 1.76a1.99 1.99 0 0 1-2.03 2.03 2.07 2.07 0 0 1-2.1-1.88l-1.39 0.773a4.33 4.33 0 0 0 3.5 2.56 3.47 3.47 0 0 0 3.49-3.48c-2e-5 -2.11-1.03-2.79-3.5-3.22zm7.86 6.9h1.73v-9.49h2.63v-1.75h-6.98v1.75h2.62zm-27.6 4-3.82 11h1.84l1.07-3.48h3.4l0.997 3.49h1.74l-3.49-11zm-0.308 5.79 1.19-2.91 0.99 2.91zm14.4-2.6a3.03 3.03 0 0 0-2.88-3.21l-4.26 0.0187v11h1.74v-4.65h2.33l1.74 4.65h1.74l-2.11-5.25a3 3 0 0 0 1.69-2.6zm-3.07 1.44h-2.33v-2.88h2.33a1.37 1.37 0 0 1 1.36 1.46 1.36 1.36 0 0 1-1.36 1.41zm5.24 6.41h6.39v-1.74h-4.65v-2.91h2.91v-1.74h-2.91v-2.91h4.65v-1.74h-6.39zm14-11h-1.74l-3.82 11h1.84l1.24-3.48h3.34l0.9 3.49h1.74zm-2.05 5.79 1.17-2.91 1.17 2.91z" /><path class="cls-5" d="m6.26 44.6-0.295-1.17 37.6-9.48 0.295 1.17z" /><polygon class="cls-6" points="7.78 44 7.78 36.1 5.77 36.1 5.77 35 11.1 35 11.1 36.1 9.12 36.1 9.12 44" /><polygon class="cls-7" points="41.9 44 41.9 36.1 39.9 36.1 39.9 35 45.2 35 45.2 36.1 43.2 36.1 43.2 44" /><path class="cls-8" d="m16 44c-2.11 0-3.48-1.84-3.48-4.69 0-2.8 1.36-4.61 3.48-4.61s3.48 1.81 3.48 4.61c-5e-5 2.85-1.36 4.69-3.48 4.69zm0-8.09c-1.29 0-2.09 1.3-2.09 3.4 0 2.15 0.801 3.48 2.09 3.48 1.29 0 2.09-1.33 2.09-3.48 0-2.1-0.802-3.4-2.09-3.4z" /><polygon class="cls-9" points="25.8 44 25.8 35 27.2 35 27.2 42.8 30.9 42.8 30.9 44" /><polygon class="cls-10" points="33.1 44 33.1 35 38.1 35 38.1 36.1 34.4 36.1 34.4 38.7 37.2 38.7 37.2 39.8 34.4 39.8 34.4 42.8 38.3 42.8 38.3 44" /><rect class="cls-11" height="1.35" transform="translate(62 16.9) rotate(90)" width="8.98" x="18.1" y="38.8" /></svg>