<svg xmlns="http://www.w3.org/2000/svg" version="1.1" viewBox="0 0 50 58"><defs>
<linearGradient id="Background"><stop offset="0" stop-color="#5a9fba"/></linearGradient>
<linearGradient id="Frame"><stop offset="0" stop-color="#5a9fba"/></linearGradient>
<linearGradient id="Pictogram"><stop offset="0" stop-color="#fff"/></linearGradient></defs>
<path d="m44.2 2.75h-38.5a3 3 0 0 0-3 3v38.5a3 3 0 0 0 3 3h7.78l11.5 9.43 11.5-9.43h7.78a3 3 0 0 0 3-3v-38.5a3 3 0 0 0-3-3z" fill="url(#Background)" stroke="url(#Frame)" stroke-miterlimit="10" stroke-width="1.5"/><polygon fill="none" points="27 14.9 19.6 12 13.8 15.8 6.37 34.7 21.3 40.6 28.7 21.7" stroke-miterlimit="10" stroke-width="1.5" stroke="url(#Pictogram)"/><g aria-label="$" transform="rotate(21.4 -76.2 41.1)"><path d="m5.27 1.22v-1.64q-0.547-0.0139-1.07-0.0835-0.515-0.0742-0.974-0.176-0.459-0.107-0.849-0.237-0.385-0.135-0.668-0.278v-1.43q0.209 0.0928 0.482 0.186 0.278 0.0881 0.598 0.176 0.32 0.0835 0.673 0.158 0.353 0.0696 0.714 0.125 0.362 0.051 0.724 0.0835 0.366 0.0325 0.71 0.0325 0.793 0 1.44-0.139 0.654-0.144 1.12-0.417 0.469-0.274 0.724-0.673 0.26-0.399 0.26-0.918 0-0.348-0.102-0.612-0.102-0.269-0.297-0.478-0.19-0.209-0.469-0.366-0.274-0.162-0.626-0.292-0.353-0.135-0.77-0.246-0.417-0.116-0.891-0.237-1.01-0.26-1.79-0.561-0.775-0.302-1.3-0.724-0.52-0.422-0.789-0.997-0.264-0.575-0.264-1.38 0-0.682 0.232-1.26 0.237-0.58 0.696-1.02 0.464-0.445 1.16-0.738 0.691-0.297 1.6-0.408v-1.8h1.52v1.73q0.506 0.0186 0.965 0.0881 0.464 0.0649 0.872 0.172 0.413 0.102 0.761 0.241 0.353 0.135 0.635 0.297v1.42q-0.334-0.167-0.747-0.311-0.413-0.148-0.881-0.255-0.464-0.107-0.974-0.167-0.506-0.0649-1.03-0.0649-0.705 0-1.27 0.148-0.557 0.148-0.951 0.422-0.39 0.269-0.598 0.654-0.209 0.38-0.209 0.844 0 0.353 0.102 0.622 0.102 0.264 0.292 0.473 0.19 0.204 0.464 0.366 0.278 0.158 0.631 0.292 0.353 0.13 0.77 0.246t0.895 0.232q1 0.255 1.77 0.557t1.29 0.728q0.529 0.422 0.798 1 0.269 0.575 0.269 1.37 0 0.687-0.288 1.28-0.288 0.594-0.826 1.06-0.533 0.464-1.3 0.775-0.77 0.311-1.73 0.431v1.69z" fill="url(#Pictogram)"/></g><circle cx="22.2" cy="16.2" r="1.35" fill="url(#Pictogram)"/><path d="m34.3 16.2a34.2 34.2 0 0 1 7.83 8.63c3.05 5.07 2.41 10.2-0.908 11.6-6.39 2.65-6.83-4.9-6.83-4.9-0.0985-0.788-0.394-16.5-0.443-17.2s-0.739-6.31-4.83-5.91-6.87 7.78-6.87 7.78" fill="none" stroke-miterlimit="10" stroke-width="1.5" stroke="url(#Pictogram)"/></svg>