<svg xmlns="http://www.w3.org/2000/svg" version="1.1" viewBox="0 0 50 50"><defs><linearGradient id="Background"><stop offset="0" stop-color="#006b54" /></linearGradient><linearGradient id="Pictogram"><stop offset="0" stop-color="#fff" /></linearGradient></defs><rect fill="url(#Background)" height="44.5" rx="3" width="44.5" x="2.75" y="2.75" /><rect fill="none" height="44.5" rx="3" stroke="url(#Background)" stroke-miterlimit="10" stroke-width="1.5" width="44.5" x="2.75" y="2.75" /><g aria-label="P" fill="url(#Pictogram)" transform="translate(10.5 41)"><path d="m4.6 0v-31.9h10.6q1.85 0 3.36 0.312 1.53 0.301 2.72 0.892t2.07 1.45q0.881 0.859 1.46 1.97 0.591 1.1 0.87 2.43 0.29 1.33 0.29 2.86 0 1.54-0.279 2.88-0.269 1.33-0.849 2.44-0.569 1.11-1.47 1.97-0.892 0.859-2.15 1.45-1.25 0.58-2.87 0.892-1.61 0.312-3.63 0.312h-5.95v12zm9.67-15.3q2.03 0 3.45-0.44 1.42-0.451 2.29-1.3 0.881-0.859 1.27-2.09 0.397-1.24 0.397-2.8 0-1.49-0.397-2.71-0.387-1.22-1.25-2.08t-2.22-1.33q-1.35-0.473-3.28-0.473h-5.79v13.2z" /></g></svg>