<?xml version="1.0" encoding="UTF-8"?>
<svg id="Ebene_1" data-name="Ebene 1" xmlns="http://www.w3.org/2000/svg" xmlns:xlink="http://www.w3.org/1999/xlink" viewBox="0 0 50 50">
  <defs>
    <style>
      .cls-1 {
        fill: url(#Background);
      }

      .cls-2 {
        fill: none;
        stroke: url(#Frame);
        stroke-miterlimit: 10;
        stroke-width: 1.5px;
      }

      .cls-3 {
        fill: url(#Pictogram);
      }
    </style>
    <linearGradient id="Background" x1="69.22835" y1="25" x2="69.72835" y2="25" gradientUnits="userSpaceOnUse">
      <stop offset="1" stop-color="#fff"/>
    </linearGradient>
    <linearGradient id="Frame" x1="-454.55056" y1="316.66321" x2="-453.55056" y2="316.66321" gradientTransform="translate(20230.25 14116.51303) scale(44.5 -44.5)" gradientUnits="userSpaceOnUse">
      <stop offset="0" stop-color="#000"/>
    </linearGradient>
    <linearGradient id="Pictogram" x1="14.00391" y1="24.90594" x2="36.5625" y2="24.90594" gradientUnits="userSpaceOnUse">
      <stop offset="1" stop-color="#000"/>
    </linearGradient>
  </defs>
  <rect class="cls-1" x="2.75" y="2.75" width="44.5" height="44.5" rx="3" ry="3"/>
  <rect class="cls-2" x="2.75" y="2.75" width="44.5" height="44.5" rx="3" ry="3"/>
  <path class="cls-3" d="M35.94434,27.88983c-.41113-.68945-1.04785-1.30762-1.9082-1.85352-.86133-.54639-1.95605-1.03613-3.28223-1.46973-1.22028-.3985-2.66406-.77405-4.31097-1.12799v-7.5069c.77338,.00684,1.5376,.02936,2.27875,.08801,.83887,.06592,1.63672,.15576,2.39355,.26904,.75684,.11279,1.4668,.24561,2.13184,.39697,.66504,.15186,1.26367,.31348,1.79492,.48438v-2.64062c-.49316-.17676-1.05078-.34082-1.6709-.49268-.62109-.15137-1.29492-.28271-2.02344-.39307s-1.50391-.19727-2.32715-.26074-1.68066-.10059-2.57422-.11182v-3.7915h-3.14355v3.93213c-1.51953,.12695-2.83984,.36035-3.96094,.69971-1.12012,.33936-2.05176,.76172-2.79199,1.2666-.74121,.50488-1.29395,1.08008-1.65723,1.72607-.36426,.64551-.54688,1.33545-.54688,2.06934,0,.88867,.18848,1.6709,.56543,2.34668,.37695,.67627,.9834,1.2832,1.81934,1.82129,.83496,.53809,1.92285,1.02783,3.2627,1.46924,.95282,.31451,2.06122,.6214,3.31079,.92157v7.90961c-.46497-.00525-.93353-.01337-1.42114-.04016-.60449-.0332-1.20801-.07812-1.80957-.13672-.60156-.05762-1.19141-.125-1.77148-.20215-.5791-.07715-1.13184-.16016-1.65723-.24902-.52539-.08789-1.0127-.17871-1.46289-.27246-.44922-.09375-.8418-.18555-1.17773-.27344v2.60742c.5127,.1543,1.09863,.30078,1.75781,.43848,.6582,.13867,1.37793,.2627,2.16016,.37305s1.62402,.20312,2.52637,.27734,1.85352,.12012,2.85449,.13672v4.03125h3.14355v-4.10645c1.61523-.12695,3.05078-.36816,4.30762-.72363,1.25684-.35645,2.31445-.79883,3.17285-1.3291,.85742-.5293,1.51172-1.12793,1.96094-1.7959s.6748-1.37402,.6748-2.11914c0-.88867-.20605-1.67773-.61816-2.36816Zm-14.375-5.69482c-.57324-.19873-1.06348-.40576-1.47266-.62061-.4082-.21533-.74512-.44727-1.01074-.6958-.2666-.24805-.46094-.51416-.58398-.79883-.12402-.28418-.18555-.59717-.18555-.93945,0-.47461,.16602-.90918,.49805-1.30371,.33301-.39453,.82812-.73389,1.4873-1.01807,.6582-.28418,1.47461-.50488,2.4502-.6626,.17688-.02856,.36481-.05157,.552-.07495v6.63037c-.63953-.16797-1.22485-.3396-1.73462-.51636Zm10.41504,9.44092c-.40527,.41113-.99316,.76562-1.76172,1.06348-.76953,.29785-1.70898,.53125-2.81641,.7002-.30133,.04565-.6405,.06946-.96332,.10272v-7.05505c.30603,.07294,.61084,.14587,.89203,.21796,.73145,.1875,1.38281,.38086,1.95605,.5791,.57324,.19922,1.06738,.40527,1.48242,.62109,.41406,.21484,.75586,.44727,1.02539,.69531s.46875,.51562,.59863,.80273,.19434,.59863,.19434,.93555c0,.48047-.20215,.92578-.60742,1.33691Z"/>
</svg>