<svg xmlns="http://www.w3.org/2000/svg" version="1.1" viewBox="0 0 50 50"><defs><linearGradient id="Background"><stop offset="0" stop-color="#006b54" /></linearGradient><linearGradient id="Pictogram"><stop offset="0" stop-color="#fff" /></linearGradient></defs><rect fill="url(#Background)" height="44.5" rx="3" width="44.5" x="2.75" y="2.75" /><rect fill="none" height="44.5" rx="3" stroke="url(#Background)" stroke-miterlimit="10" stroke-width="1.5" width="44.5" x="2.75" y="2.75" /><g aria-label="P" fill="url(#Pictogram)" transform="translate(15.5 43)"><path d="m3.34 0v-23.2h7.68q1.34 0 2.45 0.227 1.11 0.219 1.98 0.648 0.867 0.43 1.51 1.05t1.06 1.43q0.43 0.797 0.633 1.77 0.211 0.969 0.211 2.08 0 1.12-0.203 2.09-0.195 0.969-0.617 1.77-0.414 0.805-1.07 1.43-0.648 0.625-1.56 1.05-0.906 0.422-2.09 0.648-1.17 0.227-2.64 0.227h-4.33v8.74zm7.03-11.1q1.48 0 2.51-0.32 1.03-0.328 1.66-0.945 0.641-0.625 0.922-1.52 0.289-0.898 0.289-2.04 0-1.09-0.289-1.97-0.281-0.891-0.906-1.52t-1.62-0.969q-0.984-0.344-2.38-0.344h-4.21v9.62z" /></g><polyline fill="none" points="40 18.5 25 7 10 18.5" stroke="url(#Pictogram)" stroke-miterlimit="10" stroke-width="1.5" /></svg>