<svg xmlns="http://www.w3.org/2000/svg" viewBox="0 0 50 50"><defs><linearGradient id="Background"><stop offset="0" stop-color="#fff" /></linearGradient><linearGradient id="Frame"><stop offset="0" stop-color="#fff7" /></linearGradient></defs><rect fill="url(#Background)" height="44.5" rx="3" width="44.5" x="2.75" y="2.75" /><rect fill="none" height="44.5" rx="3" stroke="url(#Frame)" stroke-miterlimit="10" stroke-width="1.5" width="44.5" x="2.75" y="2.75" /><path d="m2 26h22v22h-18.4a3.72 3.72 0 0 1-3.6-3.6z" fill="#006b54" /><path d="M5.6,2H24V24H2V5.6A3.71929,3.71929,0,0,1,5.6,2Z" fill="#2155d6" /><path d="m26 2h18.4a3.72 3.72 0 0 1 3.6 3.6v18.4h-22z" fill="#2155d6" /><line fill="none" stroke="#fff" stroke-miterlimit="10" x1="42.1" x2="42.1" y1="15" y2="21" /><path d="m40.3 35.6v3.5a3.95 3.95 0 0 1-2.6 3.5h-5.4a3.95 3.95 0 0 1-2.6-3.5v-3.5h10.6m1.1-1.2h-12.9v4.7c0 3.4 3.5 4.7 3.5 4.7h5.9s3.5-1.3 3.5-4.7v-4.7z" /><path d="M41.4,36.2h1.3c1.1,0,2.6-.5,3.1.4,1.4,2.8-4.5,5.2-5.1,5.4l-1.9.7" fill="none" stroke="#000" stroke-miterlimit="10" stroke-width="1.18" /><line fill="none" stroke="#000" stroke-miterlimit="10" stroke-width="1.18" x1="27.3" x2="42.6" y1="44.4" y2="44.4" /><path d="m42.6 15.4h-3.2s-0.1-5.2 0.5-7.4a5.49 5.49 0 0 1 2.6-3.2l0.1 10.6z" fill="#fff" /><path d="m38.7 33.2a3.25 3.25 0 0 1 1.1-2.4 3.25 3.25 0 0 0 1.1-2.4" fill="none" stroke="#000" stroke-miterlimit="10" /><path d="m35.2 33.2a3.25 3.25 0 0 1 1.1-2.4 3.25 3.25 0 0 0 1.1-2.4" fill="none" stroke="#000" stroke-miterlimit="10" /><path d="m31.6 33.2a3.25 3.25 0 0 1 1.1-2.4 3.25 3.25 0 0 0 1.1-2.4" fill="none" stroke="#000" stroke-miterlimit="10" /><path d="M33.6,10.5H32.4a.76385.76385,0,0,1-.5-.2c-.4-.3-.4-1.1-.4-1.2v1.4c0,.1,0,.9.4,1.2.1.1,2,1.4,2,1.4" fill="#fff" stroke="#fff" stroke-miterlimit="10" /><line fill="none" stroke="#fff" stroke-miterlimit="10" x1="31.5" x2="31.5" y1="10.4" y2="6" /><path d="M33.7,13.1s1.9-1.3,2-1.4c.4-.3.4-1.1.4-1.2V9.1c0,.1,0,.9-.4,1.2a.76385.76385,0,0,1-.5.2H34" fill="#fff" stroke="#fff" stroke-miterlimit="10" /><line fill="none" stroke="#fff" stroke-miterlimit="10" x1="36.1" x2="36.1" y1="6" y2="10.4" /><path d="m33.8 6v15.3" fill="none" stroke="#fff" stroke-miterlimit="10" stroke-width=".949" /><path d="m19.7 9.2 0.7-0.5a5.87 5.87 0 0 0-1.5-2.7 5.76 5.76 0 0 0-2.5-1.5l-0.2 0.5a4.95 4.95 0 0 1 2.2 1.7 11.8 11.8 0 0 1 1.3 2.5z" fill="#fff" /><path d="m18 20.5a2.54 2.54 0 0 1-1.8-0.6 3.82 3.82 0 0 1-0.7-2.7v-4.6a0.472 0.472 0 0 0-0.5-0.5h-1.2v-1h1.2a1.42 1.42 0 0 1 1.5 1.5v4.6a3.29 3.29 0 0 0 0.4 2 1.42 1.42 0 0 0 1.1 0.4c0.9 0 1.1-1.3 1.1-2v-6.7c0-4.2-3.1-5.3-3.2-5.3l0.5-1.1a6.93 6.93 0 0 1 3.6 6.5v6.7c0 1.4-0.5 2.8-2 2.8z" fill="#fff" /><path d="m13.4 6v14.5h-6.3v-14.5zm-0.1-1h-6.2a1.03 1.03 0 0 0-1 1.1v15.4h8.3v-15.4a1.11 1.11 0 0 0-1.1-1.1z" fill="#fff" /><rect fill="#fff" height="1.2" width="10.6" x="5" y="20.3" /><rect fill="#fff" height="1" width="3.7" x="8.4" y="11.1" /><g data-name="Ebene 2"><path d="m9 44.1v-14.1h4.8a4.14 4.14 0 0 1 4.6 4.4c0 4.6-3.8 4.5-4.4 4.5h-3.2v5.2zm5-6.9a2.56 2.56 0 0 0 2.7-2.8 2.4 2.4 0 0 0-2.6-2.7h-3.3v5.5z" fill="#fff" /></g></svg>