<svg xmlns="http://www.w3.org/2000/svg"
    xmlns:xlink="http://www.w3.org/1999/xlink" viewBox="0 0 44 44">
    <defs>
        <linearGradient id="Hintergrund_weiss" x1="1.99805" y1="22" x2="42.00195" y2="22" gradientUnits="userSpaceOnUse">
            <stop offset="0" stop-color="#fff"/>
        </linearGradient>
        <linearGradient id="Rahmen_rot" x1="3.085" y1="22" x2="40.915" y2="22" gradientUnits="userSpaceOnUse">
            <stop offset="0" stop-color="#e52421"/>
        </linearGradient>
        <linearGradient id="Beschriftung_schwarz" x1="13.95361" y1="18.36035" x2="29.77441" y2="18.36035" gradientUnits="userSpaceOnUse">
            <stop offset="0" stop-color="#010101"/>
        </linearGradient>
    </defs>
    <g id="Speedlimit_80">
        <circle id="Hintergrund_weiss-2" data-name="Hintergrund_weiss" cx="22" cy="22" r="19.99989" fill="url(#Hintergrund_weiss)"/>
        <path id="Rahmen_rot-2" data-name="Rahmen_rot" d="M22,3.085A18.915,18.915,0,1,0,40.915,22,18.87732,18.87732,0,0,0,22,3.085Zm0,32.883A13.968,13.968,0,1,1,35.968,22,13.97155,13.97155,0,0,1,22,35.968Z" fill="url(#Rahmen_rot)"/>
        <path id="Beschriftung_schwarz-2" data-name="Beschriftung_schwarz" d="M13.95361,21.03223a3.264,3.264,0,0,1,1.51172-2.88282,4.55124,4.55124,0,0,1-.92724-1.12988,2.886,2.886,0,0,1-.356-1.46289,3.61531,3.61531,0,0,1,1.05908-2.62793,3.70268,3.70268,0,0,1,5.22949,0,3.61528,3.61528,0,0,1,1.05909,2.62793,2.858,2.858,0,0,1-.36036,1.46289,4.83932,4.83932,0,0,1-.91406,1.12988,3.28278,3.28278,0,0,1,1.50293,2.88282,3.60422,3.60422,0,0,1-1.15576,2.77343,4.07307,4.07307,0,0,1-5.49756,0A3.61092,3.61092,0,0,1,13.95361,21.03223Zm1.83692-.01758a1.90126,1.90126,0,0,0,.61963,1.45508,2.10468,2.10468,0,0,0,2.8916,0,2.00333,2.00333,0,0,0,0-2.91407,2.09183,2.09183,0,0,0-2.8916,0A1.914,1.914,0,0,0,15.79053,21.01465Zm.22851-5.49317a1.67166,1.67166,0,0,0,.5669,1.3711,1.96421,1.96421,0,0,0,2.54,0,1.67165,1.67165,0,0,0,.56689-1.3711A1.67521,1.67521,0,0,0,19.126,14.1543a1.95176,1.95176,0,0,0-2.54,0A1.67522,1.67522,0,0,0,16.019,15.52148Zm6.478,5.66895V15.53906a3.42235,3.42235,0,0,1,1.10742-2.72949,3.805,3.805,0,0,1,5.05762,0,3.416,3.416,0,0,1,1.1123,2.72949v5.65137a3.40158,3.40158,0,0,1-1.1123,2.72461,3.81659,3.81659,0,0,1-5.05762,0A3.40785,3.40785,0,0,1,22.49707,21.19043ZM27.9375,21.085V15.64453a2.00287,2.00287,0,0,0-.49609-1.4414,1.90795,1.90795,0,0,0-2.61524,0,2.0097,2.0097,0,0,0-.49219,1.4414V21.085a2.00377,2.00377,0,0,0,.49219,1.44531,1.91852,1.91852,0,0,0,2.61524,0A1.99694,1.99694,0,0,0,27.9375,21.085Z" fill="url(#Beschriftung_schwarz)"/>
    </g>
</svg>