<svg xmlns="http://www.w3.org/2000/svg"
    xmlns:xlink="http://www.w3.org/1999/xlink" viewBox="0 0 44 44">
    <defs>
        <linearGradient id="Hintergrund_weiss" x1="1.99805" y1="22" x2="42.00195" y2="22" gradientUnits="userSpaceOnUse">
            <stop offset="0" stop-color="#fff"/>
        </linearGradient>
        <linearGradient id="Rahmen_rot" x1="3.085" y1="22" x2="40.915" y2="22" gradientUnits="userSpaceOnUse">
            <stop offset="0" stop-color="#e52421"/>
        </linearGradient>
        <linearGradient id="Beschriftung_schwarz" x1="14.13379" y1="18.37744" x2="29.76953" y2="18.37744" gradientUnits="userSpaceOnUse">
            <stop offset="0" stop-color="#010101"/>
        </linearGradient>
    </defs>
    <g id="Speedlimit_95">
        <circle id="Hintergrund_weiss-2" data-name="Hintergrund_weiss" cx="22" cy="22" r="19.99989" fill="url(#Hintergrund_weiss)"/>
        <path id="Rahmen_rot-2" data-name="Rahmen_rot" d="M22,3.085A18.915,18.915,0,1,0,40.915,22,18.87732,18.87732,0,0,0,22,3.085Zm0,32.883A13.968,13.968,0,1,1,35.968,22,13.97155,13.97155,0,0,1,22,35.968Z" fill="url(#Rahmen_rot)"/>
        <path id="Beschriftung_schwarz-2" data-name="Beschriftung_schwarz" d="M21.00684,17.9248l-3.44532,6.89063H15.50488l2.707-5.42285h-.03515a2.72712,2.72712,0,0,1-.97559.167,3.04271,3.04271,0,0,1-2.14453-.85254,3.53484,3.53484,0,0,1-.92285-2.72461,3.84119,3.84119,0,0,1,1.16894-3.15527,4.05,4.05,0,0,1,2.61915-.958,3.53163,3.53163,0,0,1,2.46093,1.05469A3.75328,3.75328,0,0,1,21.499,15.78906,4.63873,4.63873,0,0,1,21.00684,17.9248Zm-3.19043,0a1.81862,1.81862,0,0,0,1.30078-.50976,2.06918,2.06918,0,0,0,.53613-1.59082q0-2.11817-1.83691-2.11817a1.951,1.951,0,0,0-1.23926.4834,1.98943,1.98943,0,0,0-.60645,1.63477,2.08655,2.08655,0,0,0,.53614,1.59082A1.81031,1.81031,0,0,0,17.81641,17.9248Zm11.71093.23243a7.434,7.434,0,0,1,.24219,2.27246,6.82385,6.82385,0,0,1-.10156,1.22168,5.35909,5.35909,0,0,1-.25781.97558,3.63849,3.63849,0,0,1-.39258.75586,3.36274,3.36274,0,0,1-.47461.57129,3.0249,3.0249,0,0,1-.52734.40039,3.73261,3.73261,0,0,1-.52735.26758,3.54618,3.54618,0,0,1-.5.1582,3.69374,3.69374,0,0,1-.418.07911c-.10547.01171-.207.0205-.30664.02636h-.08008a4.25779,4.25779,0,0,1-2.39453-.76953,3.32483,3.32483,0,0,1-1.3584-2.56152h1.84571a1.70785,1.70785,0,0,0,1.83691,1.49414,1.62853,1.62853,0,0,0,1.13477-.36035,2.13371,2.13371,0,0,0,.57031-1.13379,7.68637,7.68637,0,0,0,.10547-1.26563,4.1823,4.1823,0,0,0-.10156-.97168,2.41675,2.41675,0,0,0-.25391-.68066,1.81891,1.81891,0,0,0-.36133-.43457,1.50049,1.50049,0,0,0-.38086-.25586,1.79053,1.79053,0,0,0-.36914-.10938,2.81131,2.81131,0,0,0-.3789-.02636h-.01758A1.8182,1.8182,0,0,0,24.4082,18.874H22.668V11.92188h6.84766v1.8457H24.4082V16.668a3.19469,3.19469,0,0,1,2.05664-.70313,3.20077,3.20077,0,0,1,2.29493.94922A3.6242,3.6242,0,0,1,29.52734,18.15723Z" fill="url(#Beschriftung_schwarz)"/>
    </g>
</svg>