<svg xmlns="http://www.w3.org/2000/svg"
    xmlns:xlink="http://www.w3.org/1999/xlink" viewBox="0 0 44 44">
    <defs>
        <linearGradient id="Hintergrund_weiss" x1="1.99805" y1="22" x2="42.00195" y2="22" gradientUnits="userSpaceOnUse">
            <stop offset="0" stop-color="#fff"/>
        </linearGradient>
        <linearGradient id="Rahmen_rot" x1="3.085" y1="22" x2="40.915" y2="22" gradientUnits="userSpaceOnUse">
            <stop offset="0" stop-color="#e52421"/>
        </linearGradient>
        <linearGradient id="Beschriftung_schwarz" x1="13.75098" y1="18.43262" x2="29.76563" y2="18.43262" gradientUnits="userSpaceOnUse">
            <stop offset="0" stop-color="#010101"/>
        </linearGradient>
    </defs>
    <g id="Speedlimit_45">
        <circle id="Hintergrund_weiss-2" data-name="Hintergrund_weiss" cx="22" cy="22" r="19.99989" fill="url(#Hintergrund_weiss)"/>
        <path id="Rahmen_rot-2" data-name="Rahmen_rot" d="M22,3.085A18.915,18.915,0,1,0,40.915,22,18.87732,18.87732,0,0,0,22,3.085Zm0,32.883A13.968,13.968,0,1,1,35.968,22,13.97155,13.97155,0,0,1,22,35.968Z" fill="url(#Rahmen_rot)"/>
        <path id="Beschriftung_schwarz-2" data-name="Beschriftung_schwarz" d="M13.751,22.90186V21.17041L18.04,11.99463h2.04785l-4.333,9.17578h3.33985V17.479h1.83691v3.69141H21.96v1.73145H20.93164v1.89843H19.09473V22.90186ZM29.52344,18.186a7.49746,7.49746,0,0,1,.24219,2.27246,7.00844,7.00844,0,0,1-.10157,1.22168,5.51389,5.51389,0,0,1-.25976.97558,3.72906,3.72906,0,0,1-.39063.75586,3.55575,3.55575,0,0,1-.47461.57129,3.17932,3.17932,0,0,1-.52734.40039,3.95434,3.95434,0,0,1-.52734.26758,3.62936,3.62936,0,0,1-.5.1582,3.69333,3.69333,0,0,1-.418.0791c-.10547.01172-.209.02051-.3086.02637h-.07812a4.26079,4.26079,0,0,1-2.39551-.76953,3.32447,3.32447,0,0,1-1.35791-2.56152H24.272a1.70833,1.70833,0,0,0,1.83741,1.49414,1.62324,1.62324,0,0,0,1.13281-.36035,2.13467,2.13467,0,0,0,.57226-1.13379,7.68528,7.68528,0,0,0,.10547-1.26563,4.29085,4.29085,0,0,0-.10156-.97168,2.47784,2.47784,0,0,0-.25391-.68066,1.86551,1.86551,0,0,0-.36132-.43457,1.54183,1.54183,0,0,0-.38282-.25586,1.79034,1.79034,0,0,0-.36914-.10938,2.7813,2.7813,0,0,0-.377-.02636h-.01758a1.81887,1.81887,0,0,0-1.65283,1.06347H22.66357V11.95068h6.8462v1.84571h-5.106v2.90039a3.19694,3.19694,0,0,1,2.05713-.70313,3.11253,3.11253,0,0,1,1.332.28125,3.07872,3.07872,0,0,1,.96094.668A3.66036,3.66036,0,0,1,29.52344,18.186Z" fill="url(#Beschriftung_schwarz)"/>
    </g>
</svg>