<svg xmlns="http://www.w3.org/2000/svg"
    xmlns:xlink="http://www.w3.org/1999/xlink" viewBox="0 0 44 44">
    <defs>
        <linearGradient id="Hintergrund_weiss" x1="1.99805" y1="22" x2="42.00195" y2="22" gradientUnits="userSpaceOnUse">
            <stop offset="0" stop-color="#fff"/>
        </linearGradient>
        <linearGradient id="Rahmen_rot" x1="3.085" y1="22" x2="40.915" y2="22" gradientUnits="userSpaceOnUse">
            <stop offset="0" stop-color="#e52421"/>
        </linearGradient>
        <linearGradient id="Beschriftung_schwarz" x1="14.23633" y1="18.43701" x2="29.81152" y2="18.43701" gradientUnits="userSpaceOnUse">
            <stop offset="0" stop-color="#010101"/>
        </linearGradient>
    </defs>
    <g id="Speedlimit_65">
        <circle id="Hintergrund_weiss-2" data-name="Hintergrund_weiss" cx="22" cy="22" r="19.99989" fill="url(#Hintergrund_weiss)"/>
        <path id="Rahmen_rot-2" data-name="Rahmen_rot" d="M22,3.085A18.915,18.915,0,1,0,40.915,22,18.87732,18.87732,0,0,0,22,3.085Zm0,32.883A13.968,13.968,0,1,1,35.968,22,13.97155,13.97155,0,0,1,22,35.968Z" fill="url(#Rahmen_rot)"/>
        <path id="Beschriftung_schwarz-2" data-name="Beschriftung_schwarz" d="M20.56445,18.12061a3.55664,3.55664,0,0,1,.92285,2.71582,3.82924,3.82924,0,0,1-1.16015,3.14648,3.9916,3.9916,0,0,1-2.5752.94043,3.4475,3.4475,0,0,1-2.42578-1.03223,3.74155,3.74155,0,0,1-1.08984-2.85254,4.7434,4.7434,0,0,1,.4834-2.13574l3.39257-6.85547H20.125l-2.6543,5.39649h.03516a2.45994,2.45994,0,0,1,.958-.167A3.0273,3.0273,0,0,1,20.56445,18.12061Zm-2.54,4.9746a2.135,2.135,0,0,0,.52735-.11035,1.34571,1.34571,0,0,0,.3999-.21093,1.74282,1.74282,0,0,0,.29-.28516,1.48857,1.48857,0,0,0,.20215-.3252,3.11546,3.11546,0,0,0,.12744-.334,1.72305,1.72305,0,0,0,.07031-.31641q.01758-.14941.02637-.26367a.86133.86133,0,0,0,0-.17578v-.07031a2.14352,2.14352,0,0,0-.52734-1.59082,1.77759,1.77759,0,0,0-1.28321-.50977,1.75853,1.75853,0,0,0-1.2832.50977,2.16184,2.16184,0,0,0-.52734,1.59082v.09668a1.918,1.918,0,0,0,.01318.21972c.00879.07618.02637.17774.05273.30372a2.51765,2.51765,0,0,0,.10108.35546,1.90407,1.90407,0,0,0,.18017.35547,1.82567,1.82567,0,0,0,.26367.334,1.40153,1.40153,0,0,0,.37354.25976,1.55712,1.55712,0,0,0,.501.14942,1.43352,1.43352,0,0,0,.28125.02636h.04394Q17.93653,23.104,18.02441,23.09521ZM29.56934,18.186a7.49753,7.49753,0,0,1,.24218,2.27246A7.00847,7.00847,0,0,1,29.71,21.68018a5.51475,5.51475,0,0,1-.25976.97558,3.72906,3.72906,0,0,1-.39063.75586,3.55575,3.55575,0,0,1-.47461.57129,3.17932,3.17932,0,0,1-.52734.40039,3.9538,3.9538,0,0,1-.52735.26758,3.62893,3.62893,0,0,1-.5.1582,3.69292,3.69292,0,0,1-.418.0791c-.10546.01172-.209.02051-.30859.02637h-.07812a4.26076,4.26076,0,0,1-2.39551-.76953,3.32444,3.32444,0,0,1-1.35791-2.56152h1.8457a1.70833,1.70833,0,0,0,1.8374,1.49414,1.62326,1.62326,0,0,0,1.13282-.36035,2.13474,2.13474,0,0,0,.57226-1.13379,7.68637,7.68637,0,0,0,.10547-1.26563,4.29142,4.29142,0,0,0-.10156-.97168,2.47816,2.47816,0,0,0-.25391-.68066A1.8653,1.8653,0,0,0,27.249,18.231a1.54161,1.54161,0,0,0-.38281-.25586,1.79053,1.79053,0,0,0-.36914-.10938,2.78152,2.78152,0,0,0-.377-.02636h-.01758a1.81936,1.81936,0,0,0-1.65283,1.06347H22.70947V11.95068h6.84619v1.84571H24.44971v2.90039a3.19694,3.19694,0,0,1,2.05713-.70313,3.1126,3.1126,0,0,1,1.332.28125,3.07855,3.07855,0,0,1,.96093.668A3.66024,3.66024,0,0,1,29.56934,18.186Z" fill="url(#Beschriftung_schwarz)"/>
    </g>
</svg>