<svg id="Speedlimit_5"
    xmlns="http://www.w3.org/2000/svg"
    xmlns:xlink="http://www.w3.org/1999/xlink" viewBox="0 0 44 44">
    <defs>
        <linearGradient id="Hintergrund_weiss" x1="2" y1="22.00195" x2="42.0039" y2="22.00195" gradientUnits="userSpaceOnUse">
            <stop offset="0" stop-color="#fff"/>
        </linearGradient>
        <linearGradient id="Rahmen_rot" x1="3.09257" y1="22" x2="40.90743" y2="22" gradientUnits="userSpaceOnUse">
            <stop offset="0" stop-color="#e52421"/>
        </linearGradient>
        <linearGradient id="Beschriftung_schwarz" x1="18.66309" y1="18.30566" x2="26.00195" y2="18.30566" gradientUnits="userSpaceOnUse">
            <stop offset="0" stop-color="#010101"/>
        </linearGradient>
    </defs>
    <circle id="Hintergrund_weiss-2" data-name="Hintergrund_weiss" cx="22.00195" cy="22.00195" r="19.99989" fill="url(#Hintergrund_weiss)"/>
    <path id="Rahmen_rot-2" data-name="Rahmen_rot" d="M22,3.09257A18.90743,18.90743,0,1,0,40.90743,22,18.86976,18.86976,0,0,0,22,3.09257Zm0,32.86984A13.96241,13.96241,0,1,1,35.96241,22,13.966,13.966,0,0,1,22,35.96241Z" fill="url(#Rahmen_rot)"/>
    <path id="Beschriftung_schwarz-2" data-name="Beschriftung_schwarz" d="M25.75977,18.05908a7.46574,7.46574,0,0,1,.24218,2.27246,6.91531,6.91531,0,0,1-.10156,1.22168,5.43511,5.43511,0,0,1-.25879.97559,3.68362,3.68362,0,0,1-.3916.75586,3.40954,3.40954,0,0,1-.47461.57129,3.10057,3.10057,0,0,1-.52734.40039,3.84056,3.84056,0,0,1-.52735.26758,3.56071,3.56071,0,0,1-.501.1582,3.646,3.646,0,0,1-.417.0791q-.15819.01758-.30761.02637H22.416a4.26076,4.26076,0,0,1-2.39551-.76953,3.32408,3.32408,0,0,1-1.35742-2.56153h1.8457a1.70785,1.70785,0,0,0,1.83691,1.49414,1.62582,1.62582,0,0,0,1.13379-.36035,2.13415,2.13415,0,0,0,.57129-1.13379,7.68625,7.68625,0,0,0,.10547-1.26562,4.23609,4.23609,0,0,0-.10156-.97168,2.41538,2.41538,0,0,0-.25489-.68067,1.81508,1.81508,0,0,0-.36035-.43457,1.52148,1.52148,0,0,0-.38183-.25586,1.79131,1.79131,0,0,0-.36914-.10937,2.79575,2.79575,0,0,0-.37793-.02637H22.293a1.81817,1.81817,0,0,0-1.65234,1.06348H18.90039V11.82373h6.84668v1.8457H20.64063v2.90039a3.19464,3.19464,0,0,1,2.05664-.70312,3.20073,3.20073,0,0,1,2.29394.94922A3.64244,3.64244,0,0,1,25.75977,18.05908Z" fill="url(#Beschriftung_schwarz)"/>
</svg>