<svg xmlns="http://www.w3.org/2000/svg"
    xmlns:xlink="http://www.w3.org/1999/xlink" viewBox="0 0 44 44">
    <defs>
        <linearGradient id="Hintergrund_weiss" x1="1.99805" y1="22.00195" x2="42.00195" y2="22.00195" gradientUnits="userSpaceOnUse">
            <stop offset="0" stop-color="#fff"/>
        </linearGradient>
        <linearGradient id="Rahmen_rot" x1="3.085" y1="22" x2="40.915" y2="22" gradientUnits="userSpaceOnUse">
            <stop offset="0" stop-color="#e52421"/>
        </linearGradient>
        <linearGradient id="Beschriftung_schwarz" x1="15.76563" y1="18.39209" x2="28.61523" y2="18.39209" gradientUnits="userSpaceOnUse">
            <stop offset="0" stop-color="#010101"/>
        </linearGradient>
    </defs>
    <g id="Speedlimit_10">
        <circle id="Hintergrund_weiss-2" data-name="Hintergrund_weiss" cx="22" cy="22.00195" r="19.99989" fill="url(#Hintergrund_weiss)"/>
        <path id="Rahmen_rot-2" data-name="Rahmen_rot" d="M22,3.085A18.915,18.915,0,1,0,40.915,22,18.87732,18.87732,0,0,0,22,3.085Zm0,32.883A13.968,13.968,0,1,1,35.968,22,13.97155,13.97155,0,0,1,22,35.968Z" fill="url(#Rahmen_rot)"/>
        <path id="Beschriftung_schwarz-2" data-name="Beschriftung_schwarz" d="M17.59375,24.82568V13.936L15.76563,15.272V13.3208l1.82812-1.32715h1.8457v12.832Zm3.74414-3.60351V15.5708a3.4213,3.4213,0,0,1,1.10742-2.729,3.80353,3.80353,0,0,1,5.05762,0,3.415,3.415,0,0,1,1.1123,2.729v5.65137a3.40158,3.40158,0,0,1-1.1123,2.72461,3.81659,3.81659,0,0,1-5.05762,0A3.40785,3.40785,0,0,1,21.33789,21.22217Zm5.44043-.10547V15.67627a2.00291,2.00291,0,0,0-.49609-1.44141,1.908,1.908,0,0,0-2.61524,0,2.00974,2.00974,0,0,0-.49219,1.44141V21.1167A2.00379,2.00379,0,0,0,23.667,22.562a1.91852,1.91852,0,0,0,2.61524,0A1.997,1.997,0,0,0,26.77832,21.1167Z" fill="url(#Beschriftung_schwarz)"/>
    </g>
</svg>