<svg xmlns="http://www.w3.org/2000/svg"
    xmlns:xlink="http://www.w3.org/1999/xlink" viewBox="0 0 44 44">
    <defs>
        <linearGradient id="Hintergrund_weiss" x1="1.99805" y1="22" x2="42.00195" y2="22" gradientUnits="userSpaceOnUse">
            <stop offset="0" stop-color="#fff"/>
        </linearGradient>
        <linearGradient id="Rahmen_rot" x1="3.085" y1="22" x2="40.915" y2="22" gradientUnits="userSpaceOnUse">
            <stop offset="0" stop-color="#e52421"/>
        </linearGradient>
        <linearGradient id="Beschriftung_schwarz" x1="12.95996" y1="18.38232" x2="30.67383" y2="18.38232" gradientUnits="userSpaceOnUse">
            <stop offset="0" stop-color="#010101"/>
        </linearGradient>
    </defs>
    <g id="Speedlimit_160">
        <circle id="Hintergrund_weiss-2" data-name="Hintergrund_weiss" cx="22" cy="22" r="19.99989" fill="url(#Hintergrund_weiss)"/>
        <path id="Rahmen_rot-2" data-name="Rahmen_rot" d="M22,3.085A18.915,18.915,0,1,0,40.915,22,18.87732,18.87732,0,0,0,22,3.085Zm0,32.883A13.968,13.968,0,1,1,35.968,22,13.97155,13.97155,0,0,1,22,35.968Z" fill="url(#Rahmen_rot)"/>
        <path id="Beschriftung_schwarz-2" data-name="Beschriftung_schwarz" d="M16.63379,11.97266V24.792H14.79688V13.917L12.96,15.26758V13.32324l1.83692-1.35058Zm6.40723,0-2.08789,5.38379.03613.03515a1.35838,1.35838,0,0,1,.77344-.16211,1.87006,1.87006,0,0,1,1.76464,1.27832A10.172,10.172,0,0,1,23.708,21.0293a8.44889,8.44889,0,0,1-.126,1.94433,2.58553,2.58553,0,0,1-2.61133,1.92676,2.67252,2.67252,0,0,1-2.5205-1.65723,5.72229,5.72229,0,0,1-.21582-2.19628,11.09659,11.09659,0,0,1,.07128-1.63868,5.90289,5.90289,0,0,1,.34278-1.18847l2.34082-6.24707Zm-1.16993,7.84961a.90185.90185,0,1,0-1.80078-.08985v2.377a.89867.89867,0,0,0,.90039.9541.88812.88812,0,0,0,.90039-.88184Zm8.80274,2.377a2.73705,2.73705,0,0,1-5.47363,0V14.56543a2.73705,2.73705,0,0,1,5.47363,0Zm-3.63672-.01758a.90008.90008,0,0,0,1.7998,0V14.583a.87539.87539,0,0,0-.90039-.88184.89061.89061,0,0,0-.89941.90039Z" fill="url(#Beschriftung_schwarz)"/>
    </g>
</svg>