<svg xmlns="http://www.w3.org/2000/svg"
    xmlns:xlink="http://www.w3.org/1999/xlink" viewBox="0 0 44 44">
    <defs>
        <linearGradient id="Hintergrund_weiss" x1="1.99805" y1="22" x2="42.00195" y2="22" gradientUnits="userSpaceOnUse">
            <stop offset="0" stop-color="#fff"/>
        </linearGradient>
        <linearGradient id="Rahmen_rot" x1="3.085" y1="22" x2="40.915" y2="22" gradientUnits="userSpaceOnUse">
            <stop offset="0" stop-color="#e52421"/>
        </linearGradient>
        <linearGradient id="Beschriftung_schwarz" x1="12.97021" y1="18.38232" x2="30.68359" y2="18.38232" gradientUnits="userSpaceOnUse">
            <stop offset="0" stop-color="#010101"/>
        </linearGradient>
    </defs>
    <g id="Speedlimit_180">
        <circle id="Hintergrund_weiss-2" data-name="Hintergrund_weiss" cx="22" cy="22" r="19.99989" fill="url(#Hintergrund_weiss)"/>
        <path id="Rahmen_rot" d="M22,3.085A18.915,18.915,0,1,0,40.915,22,18.87732,18.87732,0,0,0,22,3.085Zm0,32.883A13.968,13.968,0,1,1,35.968,22,13.97155,13.97155,0,0,1,22,35.968Z" fill="url(#Rahmen_rot)"/>
        <path id="Beschriftung_schwarz" d="M16.64355,11.97168V24.792H14.80713V13.917L12.97021,15.2666V13.32227l1.83692-1.35059Zm6.15577,6.08594a2.03418,2.03418,0,0,1,.77441,1.02636,8.26513,8.26513,0,0,1,.144,2.08887,5.60782,5.60782,0,0,1-.28808,2.23242,2.75284,2.75284,0,0,1-4.89746,0,5.48038,5.48038,0,0,1-.28809-2.23242,8.67045,8.67045,0,0,1,.144-2.08887,1.96058,1.96058,0,0,1,.77393-1.02636c-.84619-.71973-.918-1.11621-.918-2.7002a5.15973,5.15973,0,0,1,.23389-1.81933A2.72809,2.72809,0,0,1,20.981,11.86426a2.69253,2.69253,0,0,1,2.5205,1.74609,4.67251,4.67251,0,0,1,.21631,1.72852C23.71777,16.8877,23.69971,17.30176,22.79932,18.05762Zm-.91846-3.43848a.90061.90061,0,0,0-1.80029-.05469v1.89063a.90611.90611,0,0,0,.90039.91894.92189.92189,0,0,0,.8999-.86425Zm0,5.0957a.90193.90193,0,1,0-1.80029-.10839v2.46679a.90184.90184,0,0,0,.90039.99024.92117.92117,0,0,0,.8999-.86426Zm8.80273,2.48438a2.73705,2.73705,0,0,1-5.47363,0V14.56445a2.73706,2.73706,0,0,1,5.47363,0Zm-3.63671-.01758a.90008.90008,0,0,0,1.7998,0V14.583a.87617.87617,0,0,0-.90039-.88281.8912.8912,0,0,0-.89941.90039Z" fill="url(#Beschriftung_schwarz)"/>
    </g>
</svg>