<?xml version="1.0" encoding="UTF-8"?>
<svg id="Ebene_1" data-name="Ebene 1" xmlns="http://www.w3.org/2000/svg" xmlns:xlink="http://www.w3.org/1999/xlink" viewBox="0 0 44 44">
  <defs>
    <style>
      .cls-1 {
        fill: url(#Rahmen_rot);
      }

      .cls-2 {
        fill: url(#Beschriftung_schwarz);
      }

      .cls-3 {
        fill: url(#Hintergrund_weiss);
      }
    </style>
    <linearGradient id="Hintergrund_weiss" x1="2.00011" y1="24" x2="41.99989" y2="24" gradientTransform="translate(0 46) scale(1 -1)" gradientUnits="userSpaceOnUse">
      <stop offset="1" stop-color="#fff"/>
      <stop offset="1" stop-color="#000"/>
    </linearGradient>
    <linearGradient id="Rahmen_rot" x1="3.085" y1="24.00002" x2="40.91504" y2="24.00002" gradientTransform="translate(0 46) scale(1 -1)" gradientUnits="userSpaceOnUse">
      <stop offset="1" stop-color="#e52421"/>
      <stop offset="1" stop-color="#000"/>
    </linearGradient>
    <linearGradient id="Beschriftung_schwarz" x1="13.95111" y1="18.36036" x2="30.00549" y2="18.36036" gradientUnits="userSpaceOnUse">
      <stop offset="1" stop-color="#000"/>
      <stop offset="1" stop-color="#000"/>
    </linearGradient>
  </defs>
  <circle id="Hintergrund_weiss" data-name="Hintergrund weiss" class="cls-3" cx="22" cy="22" r="19.99989"/>
  <path id="Rahmen_rot" data-name="Rahmen rot" class="cls-1" d="M22,3.085C11.55353,3.085,3.085,11.55353,3.085,22s8.46853,18.915,18.915,18.915,18.915-8.46853,18.915-18.915h0c.02083-10.42563-8.41393-18.89417-18.83956-18.915-.02515-.00005-.05029-.00005-.07544,0Zm0,32.883c-7.71431,0-13.968-6.25368-13.968-13.968s6.25368-13.968,13.968-13.968,13.968,6.25368,13.968,13.968h0c-.00196,7.7135-6.2545,13.96604-13.968,13.968Z"/>
  <path id="Beschriftung_schwarz" data-name="Speedlimit 82" class="cls-2" d="M13.95361,21.03223c-.0454-1.16158,.53041-2.25964,1.51172-2.88282-.36793-.32421-.68105-.70576-.92724-1.12988-.24601-.44754-.36886-.95235-.356-1.46289-.01922-.98359,.36321-1.93253,1.05908-2.62793,1.4452-1.4414,3.7843-1.4414,5.22949,0,.69588,.69539,1.07832,1.64434,1.05909,2.62793,.01288,.51108-.11156,1.01627-.36036,1.46289-.24607,.42049-.55424,.80141-.91406,1.12988,.97504,.62799,1.54636,1.72386,1.50293,2.88282,.03682,1.04864-.38516,2.06126-1.15576,2.77343-1.5562,1.42319-3.94136,1.42319-5.49756,0-.76821-.71349-1.18839-1.72565-1.15133-2.77343Zm1.83692-.01758c-.01456,.55199,.21159,1.08305,.61963,1.45508,.81131,.76692,2.08029,.76692,2.8916,0,.8047-.75934,.84147-2.02725,.08212-2.83195-.02658-.02816-.05396-.05555-.08212-.08212-.80871-.77343-2.08289-.77343-2.8916,0-.40768,.37393-.63364,.90597-.61963,1.45899Zm.22851-5.49317c-.03531,.52045,.17436,1.02755,.5669,1.3711,.73277,.62107,1.80723,.62107,2.54,0,.39254-.34355,.60221-.85065,.56689-1.3711,.03353-.51901-.1759-1.02415-.56683-1.36718-.73085-.62628-1.80915-.62628-2.54,0-.39099,.343-.60049,.84814-.567,1.36718h.00004Zm6.68979,9.2474v-1.72266l5.0044-6.2666c.16757-.19963,.29565-.42929,.37744-.67676,.05676-.1942,.08634-.39534,.08789-.59766-.0047-.45782-.17285-.89889-.47413-1.24364-.31613-.38387-.79417-.59704-1.291-.57568-.47451-.00887-.93342,.16953-1.27734,.49658-.36655,.35835-.57901,.84545-.59226,1.3579h-1.835c-.01659-.98237,.36673-1.92932,1.062-2.62353,.64893-.68908,1.55595-1.07613,2.50245-1.06788,.99916-.02668,1.96441,.36335,2.66455,1.07666,.69673,.6828,1.08245,1.62177,1.06689,2.59717,.01725,.81644-.25326,1.61293-.76416,2.25l-4.11768,5.168h4.88184v1.82813l-7.29589-.00003Z"/>
</svg>