<svg xmlns="http://www.w3.org/2000/svg"
    xmlns:xlink="http://www.w3.org/1999/xlink" viewBox="0 0 44 44">
    <defs>
        <linearGradient id="Hintergrund_weiss" x1="1.99805" y1="22" x2="42.00195" y2="22" gradientUnits="userSpaceOnUse">
            <stop offset="0" stop-color="#fff"/>
        </linearGradient>
        <linearGradient id="Rahmen_rot" x1="3.085" y1="22" x2="40.915" y2="22" gradientUnits="userSpaceOnUse">
            <stop offset="0" stop-color="#e52421"/>
        </linearGradient>
        <linearGradient id="Beschriftung_schwarz" x1="14.35156" y1="18.39795" x2="29.97852" y2="18.39795" gradientUnits="userSpaceOnUse">
            <stop offset="0" stop-color="#010101"/>
        </linearGradient>
    </defs>
    <g id="Speedlimit_50">
        <circle id="Hintergrund_weiss-2" data-name="Hintergrund_weiss" cx="22" cy="22" r="19.99989" fill="url(#Hintergrund_weiss)"/>
        <path id="Rahmen_rot-2" data-name="Rahmen_rot" d="M22,3.085A18.915,18.915,0,1,0,40.915,22,18.87732,18.87732,0,0,0,22,3.085Zm0,32.883A13.968,13.968,0,1,1,35.968,22,13.97155,13.97155,0,0,1,22,35.968Z" fill="url(#Rahmen_rot)"/>
        <path id="Beschriftung_schwarz-2" data-name="Beschriftung_schwarz" d="M21.44824,18.18652a7.46534,7.46534,0,0,1,.24219,2.27246,6.91531,6.91531,0,0,1-.10156,1.22168,5.436,5.436,0,0,1-.25879.97559,3.68362,3.68362,0,0,1-.3916.75586,3.45743,3.45743,0,0,1-.47461.57129,3.101,3.101,0,0,1-.52735.40039,3.84106,3.84106,0,0,1-.52734.26758,3.56085,3.56085,0,0,1-.501.1582,3.6437,3.6437,0,0,1-.417.0791q-.1582.01758-.30762.02637h-.0791a4.26079,4.26079,0,0,1-2.39551-.76953A3.32414,3.32414,0,0,1,14.35156,21.584h1.84571a1.70785,1.70785,0,0,0,1.83691,1.49415,1.62583,1.62583,0,0,0,1.13379-.36036,2.13415,2.13415,0,0,0,.57129-1.13379,7.68625,7.68625,0,0,0,.10547-1.26562,4.23556,4.23556,0,0,0-.10157-.97168,2.41489,2.41489,0,0,0-.25488-.68066,1.81492,1.81492,0,0,0-.36035-.43457,1.521,1.521,0,0,0-.38184-.25586,1.79034,1.79034,0,0,0-.36914-.10938,2.79553,2.79553,0,0,0-.37793-.02637h-.01757a1.81821,1.81821,0,0,0-1.65235,1.06348H14.58887V11.95117h6.84668v1.84571H16.3291v2.90039a3.19469,3.19469,0,0,1,2.05664-.70313,3.20073,3.20073,0,0,1,2.294.94922A3.64226,3.64226,0,0,1,21.44824,18.18652Zm1.25293,3.03711V15.57227a3.42131,3.42131,0,0,1,1.10742-2.729,3.80485,3.80485,0,0,1,5.0586,0,3.4175,3.4175,0,0,1,1.11133,2.729v5.65136a3.40406,3.40406,0,0,1-1.11133,2.72461,3.81788,3.81788,0,0,1-5.0586,0A3.40784,3.40784,0,0,1,22.70117,21.22363Zm5.44141-.10547V15.67773a2.00283,2.00283,0,0,0-.4961-1.4414,1.90794,1.90794,0,0,0-2.61523,0,2.00582,2.00582,0,0,0-.49316,1.4414v5.44043a2,2,0,0,0,.49316,1.44532,1.91851,1.91851,0,0,0,2.61523,0A1.99693,1.99693,0,0,0,28.14258,21.11816Z" fill="url(#Beschriftung_schwarz)"/>
    </g>
</svg>