<svg xmlns="http://www.w3.org/2000/svg" xmlns:xlink="http://www.w3.org/1999/xlink" viewBox="0 0 44 44"><defs><linearGradient id="Beschriftung_schwarz" x1="14.63086" y1="29.56836" x2="29.38281" y2="29.56836" gradientUnits="userSpaceOnUse"><stop offset="0" stop-color="#010101"/><stop offset="0"/></linearGradient></defs><g id="km_h"><path d="M14.63086,32.06055V27.08008h.71435v3.09961h.01368l1.36377-1.668h.85449l-1.22363,1.38867,1.39111,2.16016h-.89551l-.94336-1.65821-.56055.63868v1.01953Zm3.6709,0V28.51172h.71435v.37988h.01368a1.27258,1.27258,0,0,1,1.51416-.28711,2.18206,2.18206,0,0,1,.41113.32813,1.43956,1.43956,0,0,1,1.12109-.46192,1.24844,1.24844,0,0,1,.79688.31446,1.11753,1.11753,0,0,1,.38476.916v2.35938H22.543V29.94727a.75813.75813,0,0,0-.20117-.56055.72921.72921,0,0,0-1.00586,0,.75809.75809,0,0,0-.20117.56055v2.11328h-.71094V29.94727a.75813.75813,0,0,0-.20117-.56055.72984.72984,0,0,0-1.00635,0,.76156.76156,0,0,0-.2002.56055v2.11328Zm5.51367.041,1.6709-5.0664h.54687l-1.6709,5.0664Zm2.73437-.041V27.08008h.71387V28.8916h.01367a1.10877,1.10877,0,0,1,.92286-.4209,1.25087,1.25087,0,0,1,.79785.31446,1.11468,1.11468,0,0,1,.38476.916v2.35938H28.669V29.94727a.76557.76557,0,0,0-.2002-.56055.676.676,0,0,0-.49707-.20117.68652.68652,0,0,0-.50781.20117.76156.76156,0,0,0-.2002.56055v2.11328Z" fill="url(#Beschriftung_schwarz)"/></g></svg>