<svg xmlns="http://www.w3.org/2000/svg" xmlns:xlink="http://www.w3.org/1999/xlink" viewBox="0 0 44 44"><defs><linearGradient id="Beschriftung_schwarz" x1="15.83545" y1="30.28809" x2="28.21924" y2="30.28809" gradientUnits="userSpaceOnUse"><stop offset="0" stop-color="#010101"/><stop offset="0"/></linearGradient></defs><g id="mph"><path d="M15.83545,32.06055V28.51172h.71435v.37988h.01368a1.27258,1.27258,0,0,1,1.51416-.28711,2.116,2.116,0,0,1,.41015.32813,1.44312,1.44312,0,0,1,1.1211-.46192,1.25309,1.25309,0,0,1,.79834.31446,1.11722,1.11722,0,0,1,.38427.916v2.35938h-.71435V29.94727a.76031.76031,0,0,0-.20166-.56055.72984.72984,0,0,0-1.00635,0,.76156.76156,0,0,0-.20019.56055v2.11328H17.958V29.94727a.76031.76031,0,0,0-.20166-.56055.72984.72984,0,0,0-1.00635,0,.76156.76156,0,0,0-.2002.56055v2.11328Zm5.91992,1.43554V28.51172h.71387v.373a1.18616,1.18616,0,0,1,.916-.41407,1.13029,1.13029,0,0,1,.56055.13184,1.27435,1.27435,0,0,1,.38965.33008,1.088,1.088,0,0,1,.20019.44629,5.22736,5.22736,0,0,1,.05274.91015,5.2585,5.2585,0,0,1-.05274.91016,1.059,1.059,0,0,1-.20019.44336,1.19864,1.19864,0,0,1-.38965.33008,1.15116,1.15116,0,0,1-.56055.1289,1.07378,1.07378,0,0,1-.49707-.11328,1.7338,1.7338,0,0,1-.41894-.30469v1.8125Zm1.41406-2.10546c.33594,0,.53614-.11524.60352-.34571a2.86713,2.86713,0,0,0,0-1.51269c-.06738-.23145-.26758-.34668-.60352-.34668-.334,0-.53515.11914-.60156.35937a2.8565,2.8565,0,0,0,0,1.48828C22.63428,31.27148,22.83545,31.39063,23.16943,31.39063Zm2.2168.66992V27.08008h.71387V28.8916h.01367a1.10875,1.10875,0,0,1,.92285-.4209,1.25087,1.25087,0,0,1,.79785.31446,1.11465,1.11465,0,0,1,.38477.916v2.35938h-.71387V29.94727a.76557.76557,0,0,0-.20019-.56055.676.676,0,0,0-.49707-.20117.68656.68656,0,0,0-.50782.20117.76156.76156,0,0,0-.20019.56055v2.11328Z" fill="url(#Beschriftung_schwarz)"/></g></svg>