<svg xmlns="http://www.w3.org/2000/svg" xmlns:xlink="http://www.w3.org/1999/xlink" viewBox="0 0 50 50"><defs><linearGradient id="Hintergrund_weiss" x1="2.75" y1="25" x2="47.25" y2="25" gradientUnits="userSpaceOnUse"><stop offset="0" stop-color="#fff"/></linearGradient><linearGradient id="Rahmen_schwarz" x1="2" y1="25" x2="48" y2="25" gradientUnits="userSpaceOnUse"><stop offset="0" stop-color="#010101"/></linearGradient><linearGradient id="Piktogrammkontur_schwarz" x1="8.5" y1="16.25" x2="19.5" y2="16.25" gradientUnits="userSpaceOnUse"><stop offset="0" stop-color="#010101"/>
</linearGradient><linearGradient id="Piktogrammkontur_schwarz-2" x1="18.94254" y1="11.6" x2="39.55173" y2="11.6" xlink:href="#Piktogrammkontur_schwarz"/><linearGradient id="Beschriftung_schwarz" x1="7.84473" y1="34.4324" x2="24.80957" y2="34.4324" xlink:href="#Rahmen_schwarz"/><linearGradient id="Beschriftung_schwarz-2" x1="26.8893" y1="34.43257" x2="40.27637" y2="34.43257" xlink:href="#Rahmen_schwarz"/></defs><g id="d0_t33_2s0"><rect x="2.75" y="2.75" width="44.5" height="44.5" rx="3" fill="url(#Hintergrund_weiss)"/><rect x="2.75" y="2.75" width="44.5" height="44.5" rx="3" fill="none" stroke-miterlimit="10" stroke-width="1.5" stroke="url(#Rahmen_schwarz)"/><path d="M19.5,11.5H17.3c-.8,0-3.1.2-3.1,1.9s1.1,2,2.8,3.9c2,2.2.5,3.7-1,3.7H8.5" fill="none" stroke-miterlimit="10" stroke-width="1.5" stroke="url(#Piktogrammkontur_schwarz)"/><path d="M38.2,15.1a.6.6,0,0,0,0-1.2H32.7V9.2h5.5a.64522.64522,0,0,0,.6-.6.64522.64522,0,0,0-.6-.6H32.7V5.6H25.5A6.138,6.138,0,0,0,20.1,9a4.63821,4.63821,0,0,0-.4,2.1v1a4.37834,4.37834,0,0,0,.4,2.1,6.413,6.413,0,0,0,5.5,3.4h7.1V15.1Z" fill="none" stroke-miterlimit="10" stroke-width="1.5" stroke="url(#Piktogrammkontur_schwarz-2)"/><path d="M22.19189,43.794l-1.73974-4.753H12.07373l-1.73144,4.753H7.84473L14.981,25.0708h2.643L24.80957,43.794ZM17.01025,29.52734q-.21532-.54931-.41113-1.15527a10.829,10.829,0,0,1-.32275-1.249,11.58027,11.58027,0,0,1-.354,1.24609q-.208.60351-.398,1.1582l-2.73,7.44922H19.7119Z" fill="url(#Beschriftung_schwarz)"/><path d="M40.27637,43.17578a10.58433,10.58433,0,0,1-1.02735.3877,9.64375,9.64375,0,0,1-1.18261.29394q-.64161.11865-1.40039.18262-.75879.063-1.68848.06348a9.40128,9.40128,0,0,1-2.34277-.27832,7.33179,7.33179,0,0,1-1.98536-.82032,6.564,6.564,0,0,1-1.59961-1.35742,7.70055,7.70055,0,0,1-1.17968-1.89062,10.76532,10.76532,0,0,1-.73047-2.41407,16.04651,16.04651,0,0,1-.25-2.92968,15.10553,15.10553,0,0,1,.23437-2.72364,10.965,10.965,0,0,1,.69239-2.34765A8.25614,8.25614,0,0,1,28.958,27.419a6.72926,6.72926,0,0,1,1.584-1.439,7.31887,7.31887,0,0,1,2.0166-.90283,8.93256,8.93256,0,0,1,2.4375-.31543q.73389,0,1.44825.06933a13.33944,13.33944,0,0,1,1.36621.20215,9.92321,9.92321,0,0,1,1.21679.3252,6.2866,6.2866,0,0,1,1.002.43213v2.11474a7.81854,7.81854,0,0,0-1.02051-.41015,10.92554,10.92554,0,0,0-1.18262-.3125,13.07911,13.07911,0,0,0-1.2998-.19922,13.54448,13.54448,0,0,0-1.37207-.06934,6.67167,6.67167,0,0,0-1.78321.22461A4.852,4.852,0,0,0,31.92,27.8008a4.69513,4.69513,0,0,0-1.11914,1.08008,5.98773,5.98773,0,0,0-.793,1.47363A9.18191,9.18191,0,0,0,29.5332,32.207a14.41292,14.41292,0,0,0-.1582,2.20606,13.34557,13.34557,0,0,0,.19922,2.41211,8.68066,8.68066,0,0,0,.56933,1.92187,5.7973,5.7973,0,0,0,.89454,1.45508,4.94142,4.94142,0,0,0,1.17968,1.01269,5.03188,5.03188,0,0,0,1.42188.59375,6.632,6.632,0,0,0,1.62207.19239q.82178,0,1.52734-.0625.70459-.063,1.31836-.17676a10.3994,10.3994,0,0,0,1.14746-.27832q.53469-.16407,1.02149-.36621Z" fill="url(#Beschriftung_schwarz-2)"/></g></svg>