<svg xmlns="http://www.w3.org/2000/svg" viewBox="0 0 60 60"><defs><style>.cls-1{fill:#fff;}</style></defs><g id="Fertig"><g id="E13E_RDK_Winterreifen"><g id="Reifen"><path class="cls-1" d="M40.7887,39h-3.713c-1.05328,9.04266-4.973,15.39423-9.94732,15.39447a5.75363,5.75363,0,0,1-1.64874-.24866A12.28141,12.28141,0,0,0,29.49329,58.5S39.15625,55.71875,40.7887,39Z"/><path class="cls-1" d="M16.14349,35.45813c-.01434-.54065-.03173-1.07745-.03167-1.63647,0-.24531.01117-.47547.01391-.717a15.69454,15.69454,0,0,0-5.46454,3.82421c.36158.39405.69355.78022.9859,1.14911A16.61882,16.61882,0,0,1,16.14349,35.45813Z"/><path class="cls-1" d="M16.51923,40.67456c-.11255-.89313-.19434-1.82892-.261-2.78509A17.32547,17.32547,0,0,0,10.9519,41.876a15.85757,15.85757,0,0,1,1.19776,1.38647A21.53755,21.53755,0,0,1,16.51923,40.67456Z"/><path class="cls-1" d="M8.90515,35.18994c.21881-.23566.43341-.476.65985-.69525-.24194-.38794-.53106-.804-.85522-1.23407a12.19888,12.19888,0,0,0-.87921.99884C8.20184,34.56378,8.55865,34.87549,8.90515,35.18994Z"/><path class="cls-1" d="M13.73419,18.89111a20.92,20.92,0,0,1,5.08893-.894c.25366-.59912.5271-1.16223.81006-1.70721a23.12,23.12,0,0,0-6.51752,1.4577A12.9754,12.9754,0,0,1,13.73419,18.89111Z"/><path class="cls-1" d="M18.5708,49.15833q-.39084-1.01625-.727-2.12537a25.40647,25.40647,0,0,0-4.522,3.309,13.29323,13.29323,0,0,1,1.81543,1.35431A19.94514,19.94514,0,0,1,18.5708,49.15833Z"/><path class="cls-1" d="M8.95471,29.96161q.451-.34946.91541-.66895c-.23407-.42791-.51349-.88891-.82691-1.366A10.75853,10.75853,0,0,0,8.04138,29.0108C8.35809,29.32379,8.66205,29.64178,8.95471,29.96161Z"/><path class="cls-1" d="M8.55817,23.8374c.31183.35633.60888.71717.89288,1.07813.41357-.28406.83795-.54535,1.26752-.7912a13.59355,13.59355,0,0,0-.71839-1.42658A13.55183,13.55183,0,0,0,8.55817,23.8374Z"/><path class="cls-1" d="M10.6272,20.15979c.51068-.26257,1.02569-.50214,1.54895-.71222-.16443-.33075-.35266-.66211-.56055-.99414a10.46227,10.46227,0,0,0-1.51984,1.00879C10.27618,19.69415,10.4599,19.92517,10.6272,20.15979Z"/><path class="cls-1" d="M11.35095,15.36273c.28565.32324.56073.65033.81647.98529a19.41082,19.41082,0,0,1,2.31726-.82513A9.31382,9.31382,0,0,0,13.746,14.486,16.66277,16.66277,0,0,0,11.35095,15.36273Z"/><path class="cls-1" d="M17.32971,45.13153c-.17816-.74268-.34369-1.50494-.48474-2.30377A20.87522,20.87522,0,0,0,11.621,46.47681a19.0914,19.0914,0,0,1,1.651,1.38855A28.511,28.511,0,0,1,17.32971,45.13153Z"/><path class="cls-1" d="M12.00256,10.97144a15.91937,15.91937,0,0,1,1.81061-.56684c-.2655-.15741-.54822-.31109-.83942-.46191a8.63713,8.63713,0,0,0-1.47546.70129C11.66705,10.75269,11.83984,10.85858,12.00256,10.97144Z"/><path class="cls-1" d="M10.30927,14.27429a14.20769,14.20769,0,0,1,2.329-.95227,14.70963,14.70963,0,0,0-2.42681-1.77533,12.82948,12.82948,0,0,0-1.4477,1.39276A19.737,19.737,0,0,1,10.30927,14.27429Z"/><path class="cls-1" d="M13.54462,56.02881c.76007.16662,1.49725.34454,2.19317.53039l.0213-.0249a16.87447,16.87447,0,0,0-1.82556-1.06146C13.79315,55.66193,13.66943,55.84467,13.54462,56.02881Z"/><path class="cls-1" d="M7.34674,37.131a21.24747,21.24747,0,0,0-4.66858-3.32031c.00006.00488-.00018.0097-.00012.01459-.00787,1.18786.02948,2.34478.10156,3.47332a18.63479,18.63479,0,0,1,3.66022,1.308A17.08642,17.08642,0,0,1,7.34674,37.131Z"/><path class="cls-1" d="M13.803,53.05206a11.70339,11.70339,0,0,0-1.827-1.31378,10.633,10.633,0,0,0-.71808.95935,18.96563,18.96563,0,0,1,2.19324.74738C13.56335,53.31409,13.68457,53.18317,13.803,53.05206Z"/><path class="cls-1" d="M12.41174,23.258a19.84211,19.84211,0,0,1,5.155-1.574q.24618-.90033.52869-1.74a18.43158,18.43158,0,0,0-6.454,1.79614A15.73035,15.73035,0,0,1,12.41174,23.258Z"/><path class="cls-1" d="M11.65417,28.18213a17.573,17.573,0,0,1,4.9795-1.94324q.1745-1.20181.40435-2.31933a18.87492,18.87492,0,0,0-6.3515,2.69366C11.058,27.16766,11.38379,27.69781,11.65417,28.18213Z"/><path class="cls-1" d="M11.33606,32.99921A17.1346,17.1346,0,0,1,16.21918,30.41c.03436-.59265.07409-1.17779.12616-1.7453a18.80067,18.80067,0,0,0-5.906,3.069C10.77332,32.17163,11.07343,32.596,11.33606,32.99921Z"/><path class="cls-1" d="M12.39117,54.794a18.32139,18.32139,0,0,0-4.603-1.0741,15.97219,15.97219,0,0,0,1.19873,1.4906c.89978.12518,1.85339.28113,2.81421.46271C11.97809,55.38806,12.17792,55.09338,12.39117,54.794Z"/><path class="cls-1" d="M21.07037,54.01422a13.84531,13.84531,0,0,0-3.79705,2.99091c.4577.14648.87487.29474,1.24444.44342a18.66574,18.66574,0,0,1,3.7453-1.89234A18.09728,18.09728,0,0,1,21.07037,54.01422Z"/><path class="cls-1" d="M14.74878,57.80377c-1.175-.29211-2.46283-.56274-3.72528-.79046a8.174,8.174,0,0,0,3.30469,1.387C14.43774,58.2384,14.5705,58.04663,14.74878,57.80377Z"/><path class="cls-1" d="M9.29535,52.26752a10.97688,10.97688,0,0,1,.936-1.379,18.694,18.694,0,0,0-4.66986-1.17182A24.18151,24.18151,0,0,0,6.68958,51.9834,23.21222,23.21222,0,0,1,9.29535,52.26752Z"/><path class="cls-1" d="M7.63092,48.1424a10.321,10.321,0,0,1,.80524-1.24366,17.78075,17.78075,0,0,0-4.4455-1.801q.35642,1.37575.79761,2.63623A24.23219,24.23219,0,0,1,7.63092,48.1424Z"/><path class="cls-1" d="M5.98639,32.88171a14.72226,14.72226,0,0,1,1.23407-1.39935A19.65667,19.65667,0,0,0,2.9986,27.94049c-.121,1.02295-.21173,2.0755-.264,3.16065A17.807,17.807,0,0,1,5.98639,32.88171Z"/><path class="cls-1" d="M6.8056,43.78247a13.48277,13.48277,0,0,1,.9986-1.66284,14.57067,14.57067,0,0,0-4.80261-2.3703q.18832,1.59531.47833,3.08929A17.55225,17.55225,0,0,1,6.8056,43.78247Z"/><path class="cls-1" d="M15.58215,9.99744C16.45789,9.817,17.3974,9.65009,18.34979,9.5H15.47217c-.20624,0-.4115.01007-.616.02765C15.10248,9.68372,15.3584,9.8382,15.58215,9.99744Z"/><path class="cls-1" d="M19.28693,58.5H25.6076a14.37342,14.37342,0,0,1-2.38092-1.91125A17.947,17.947,0,0,0,19.28693,58.5Z"/><path class="cls-1" d="M16.90515,11.06067a9.36172,9.36172,0,0,1,.94379,1.004,43.80688,43.80688,0,0,1,5.35046-.65076,15.25782,15.25782,0,0,1,1.56934-1.33472A65.2154,65.2154,0,0,0,16.90515,11.06067Z"/><path class="cls-1" d="M17.16876,58.49683c-.28467-.09577-.59021-.19086-.91284-.2854-.07916.10186-.14844.19494-.21851.28857h1.12818Z"/><path class="cls-1" d="M13.22986,11.92053q.53109.45237.99487.93549c.689-.18207,1.40979-.35047,2.14313-.50421a10.65915,10.65915,0,0,0-1.09015-.96247C14.50159,11.56085,13.81134,11.73981,13.22986,11.92053Z"/><path class="cls-1" d="M11.69312,49.26892a17.05584,17.05584,0,0,0-1.48969-1.22522q-.2568.33307-.46454.65765a17.42424,17.42424,0,0,1,1.8161.699C11.59912,49.35632,11.64825,49.31281,11.69312,49.26892Z"/><path class="cls-1" d="M20.28827,52.78027c-.37946-.6474-.73316-1.34582-1.06891-2.07788a18.64208,18.64208,0,0,0-4.20807,3.46686,18.394,18.394,0,0,1,1.88764,1.14044A14.623,14.623,0,0,1,20.28827,52.78027Z"/><path class="cls-1" d="M6.48132,27.59674a13.06129,13.06129,0,0,1,1.327-1.3844,19.38714,19.38714,0,0,0-3.78-3.73321q-.38818,1.4544-.672,3.03851A16.69426,16.69426,0,0,1,6.48132,27.59674Z"/><path class="cls-1" d="M15.26239,14.08044a10.11149,10.11149,0,0,1,.69183,1.07148,25.43816,25.43816,0,0,1,4.67267-.57178A19,19,0,0,1,21.77051,12.971,48.87539,48.87539,0,0,0,15.26239,14.08044Z"/><path class="cls-1" d="M10.38947,44.74567c-.2815-.37653-.574-.7229-.873-1.05a10.75748,10.75748,0,0,0-.62116,1.04675c.31635.16687.62958.35358.94294.54053Q10.10532,45.01209,10.38947,44.74567Z"/><path class="cls-1" d="M7.25836,22.46191A15.04122,15.04122,0,0,1,8.979,21.13147a17.72209,17.72209,0,0,0-3.24768-3.433A27.69434,27.69434,0,0,0,4.662,20.38568,16.53056,16.53056,0,0,1,7.25836,22.46191Z"/><path class="cls-1" d="M9.03149,18.2016a12.0692,12.0692,0,0,1,1.62574-1.10492A17.64651,17.64651,0,0,0,7.727,14.2356a19.30656,19.30656,0,0,0-1.1192,1.75317A18.15354,18.15354,0,0,1,9.03149,18.2016Z"/><path class="cls-1" d="M9.78461,39.75208c-.20117-.26282-.4198-.53321-.66358-.81263q-.28125.43881-.541.91614c.21844.15076.43548.31134.65246.47821C9.41132,40.137,9.59619,39.94342,9.78461,39.75208Z"/></g><path id="Flocke" class="cls-1" d="M56.60723,28.8457l.88965-1.53906L51.5623,23.87939l3.3086-1.91455-.8877-1.53906L51,22.09619V16.9043L53.85332,18.499,54.74,16.96045,51.5623,15.11963l5.93458-3.42578-.8877-1.53955L51,13.34082V10.1001H49.29961v3.72217l-.14941-.08692-5.1709-2.99316,3.17968-1.835-.88867-1.53907L43,9.21729V2.3501H41.29961V9.21729l-.21973-.147L38.12969,7.36816,37.241,8.90723l3.17968,1.835-.22265.13037L35,13.82227V10.1001H33.29961v3.24072l-.14941-.08691L27.7918,10.1543l-.88868,1.53955,5.93458,3.42578L32.615,15.25,29.66,16.96045l.88721,1.53857,2.75244-1.59472v5.19189l-2.88184-1.67041-.88867,1.53906,3.3086,1.91455-.22266.13038-5.71192,3.29687.89063,1.53906,5.50586-3.18652V28.8999H35V25.17725l5.4207,3.07959-.22265.13037-3.08594,1.78125.88672,1.53857,3.30078-1.91015v6.85351H43V29.79688L46.40117,31.707l.88672-1.53857L43.9793,28.25684l.14941-.08594,5.1709-2.99365V28.8999H51V25.65918ZM42.2,27.21436l-.0498-.02881L35,23.12451V15.875l7.2-4.10352.0498.0293L49.29961,15.875v7.24951l-.04981.02881Z"/></g></g></svg>