<svg id="V2" xmlns="http://www.w3.org/2000/svg" viewBox="0 0 60 60"><defs><style>.cls-1{fill:#fff;}</style></defs><path class="cls-1" d="M37.13049,15.07935a4.69856,4.69856,0,0,0-2.5437-.87409,6.715,6.715,0,0,0,1.47034-3.864,6.68129,6.68129,0,0,0-2.07526-4.5611,6.44708,6.44708,0,0,0-9.71716,8.42511,3.863,3.863,0,0,0-2.27643.87409A3.20161,3.20161,0,0,0,21,16.97333V35h4V51.515a4.50108,4.50108,0,1,0,9-.02569V35h4V16.97333A3.05956,3.05956,0,0,0,37.13049,15.07935ZM29.495,5.79993a4.4704,4.4704,0,1,1-4.47,4.47021A4.49154,4.49154,0,0,1,29.495,5.79993Zm.0393,48.47052a2.7873,2.7873,0,1,1,2.78693-2.7873A2.78755,2.78755,0,0,1,29.5343,54.27045ZM36,33H23V17H36Z"/></svg>