<svg id="V3" xmlns="http://www.w3.org/2000/svg" viewBox="0 0 60 60"><defs><style>.cls-1{fill:none;stroke:#fff;stroke-miterlimit:10;stroke-width:2px;fill-rule:evenodd;}.cls-2{fill:#fff;}</style></defs><path class="cls-1" d="M40.884,47.86777,20.15826,11.97068"/><path class="cls-2" d="M9.044,29.15527l1.85888,3.249a19.6421,19.6421,0,0,0,2.85694-3.06543l-2.001-3.46338C10.93945,26.93115,9.83105,28.29346,9.044,29.15527Z"/><path class="cls-2" d="M26.33142,28.04944l-.52588-.94043C24.9574,25.59344,18.847,15.0072,18.19537,13.94385l-.29254-.47718-.19482-.31781-.36017.096-.54053.14405c-4.81756,1.28442-7.00635,4.37518-9.123,7.36413-1.70258,2.40473-3.31067,4.676-6.2931,5.93006l-.78411.32959-.52289.21978.28363.49115L8.131,41.16992l.20105.34827.38324-.12171.5752-.18261c4.449-1.41608,6.61126-4.34522,8.519-6.92951,1.96686-2.6651,3.51922-4.76855,7.09869-5.33044l1.06415-.16651.70978-.111ZM18.967,29.781,16.835,26.09766a7.027,7.027,0,0,0-1.58984,1.95654c-.2461.39307-.52246.834-.88574,1.32226l2.015,3.48627c-.05719.07739-.1156.15467-.17267.232a23.32445,23.32445,0,0,1-3.294,3.81768L10.74658,33.1377A16.12132,16.12132,0,0,1,6.984,35.184L4.76324,31.33734a15.31471,15.31471,0,0,0,3.66108-2.25629L6.40271,25.58313a30.17381,30.17381,0,0,0,2.9137-3.67444c.13446-.18982.26873-.37634.40289-.56433l2.09564,3.6283c.147-.20411.2832-.4043.41846-.60254a10.28726,10.28726,0,0,1,2.17578-2.47022l-2.1319-3.6878a10.88384,10.88384,0,0,1,4.50446-2.73358c.48968.832,1.452,2.48913,2.5216,4.33789-.43115.21-.86981.39569-1.2965.57568a10.98869,10.98869,0,0,0-2.95362,1.623l1.93067,3.34131a11.34213,11.34213,0,0,1,4.29638-2.117c.90937,1.57733,1.74176,3.02509,2.27149,3.952A9.99282,9.99282,0,0,0,18.967,29.781Z"/><path class="cls-1" d="M39.84174,11.97068,19.116,47.86777"/><path class="cls-2" d="M49.09717,32.4043l1.85888-3.249c-.7871-.86181-1.8955-2.22412-2.71484-3.27978l-2.001,3.46338A19.6421,19.6421,0,0,0,49.09717,32.4043Z"/><path class="cls-2" d="M59.39294,27.0127l-.78411-.32959c-2.98243-1.254-4.59052-3.52533-6.2931-5.93006-2.11669-2.989-4.30548-6.07971-9.123-7.36413l-.54053-.144-.36023-.096-.19482.31781-.29254.47718c-.65155,1.06335-6.762,11.64959-7.61017,13.16516l-.52588.94043-.35065.627.70978.111,1.06421.16651c3.57941.56189,5.13177,2.66534,7.09863,5.33044,1.90778,2.58429,4.07,5.51343,8.519,6.92951l.5752.18261.38324.12171.20105-.34827L59.6322,27.72363l.28363-.49115Zm-15.5946,6.082c-.05707-.07733-.11548-.15461-.17267-.232l2.01495-3.48627c-.36328-.48828-.63964-.92919-.88574-1.32226A7.027,7.027,0,0,0,43.165,26.09766L41.033,29.781a9.99282,9.99282,0,0,0-4.58472-2.5896c.52973-.92688,1.36212-2.37464,2.27149-3.952a11.34213,11.34213,0,0,1,4.29638,2.117l1.93067-3.34131a10.98869,10.98869,0,0,0-2.95362-1.623c-.42669-.18-.86535-.36572-1.2965-.57568,1.06964-1.84876,2.03192-3.50586,2.5216-4.33789a10.88384,10.88384,0,0,1,4.50446,2.73358l-2.1319,3.6878a10.28726,10.28726,0,0,1,2.17578,2.47022c.13526.19824.27149.39843.41846.60254l2.09564-3.6283c.13416.188.26843.37451.40289.56433a30.17381,30.17381,0,0,0,2.9137,3.67444l-2.02161,3.49792a15.31471,15.31471,0,0,0,3.66108,2.25629L53.016,35.184a16.12132,16.12132,0,0,1-3.76257-2.04626l-2.16107,3.77471A23.32445,23.32445,0,0,1,43.79834,33.09473Z"/></svg>