<svg id="E150_fuel_phev_range_total" xmlns="http://www.w3.org/2000/svg" viewBox="0 0 60 60"><defs><style>.cls-1,.cls-4{fill:#fff;}.cls-2,.cls-3{fill:none;stroke:#fff;stroke-miterlimit:10;stroke-width:2px;}.cls-2,.cls-4{fill-rule:evenodd;}</style></defs><path class="cls-1" d="M59,19h1v4a3.6653,3.6653,0,0,1-2.816,3.6122L57,26.66H56l-.20571-.04878A3.6891,3.6891,0,0,1,53,23V19h1V15h1.5v4h2V15H59Z"/><path class="cls-2" d="M3,44V17c0-.97348.47089-2,1.5-2h12c1.02911,0,1.5,1.02652,1.5,2V44"/><path class="cls-3" d="M15,25H6"/><path class="cls-1" d="M0,43H21v2H0Z"/><path class="cls-4" d="M21.011,14.84362a13.35988,13.35988,0,0,1,4.81445,2.94244,17.30825,17.30825,0,0,1,3.25785,5.45076L26.17888,25.46s-.14665-4.13855-1.88116-6.29a15.9017,15.9017,0,0,0-3.70144-3.18078Z"/><path class="cls-3" d="M18.5,27h2a2,2,0,0,1,2,2v8.5h0c0,1.38071.61929,2.5,2,2.5s2-1.11929,2-2.5h0V21.32312"/><path class="cls-2" d="M33,44V17c0-.97348.47089-2,1.5-2h12c1.02911,0,1.5,1.02652,1.5,2V44"/><path class="cls-3" d="M45,25H36"/><path class="cls-1" d="M30,43H51v2H30Z"/><path class="cls-3" d="M48.5,27h2a2,2,0,0,1,2,2v8.5h0c0,1.38071.61929,2.5,2,2.5s2-1.11929,2-2.5h0V21.32312"/></svg>