<svg id="E157_ESP" xmlns="http://www.w3.org/2000/svg" viewBox="0 0 60 60"><defs><style>.cls-1{fill:#fff;}</style></defs><g id="V2"><path class="cls-1" d="M41.77051,55h5.51074c-4.33789-2.70026-7.36035-5.28854-7.38965-6.33957-.10058-.59624.38672-1.055,1.582-1.47439.13575-.05206,7.39515-2.64,11.05078-4.2326,1.671-.728,2.59571-1.55493,2.59571-2.58533-.07246-.9989-.4973-1.305-1.41332-2.138-.10449-.09429-.40548-.35079-.52072-.45687C50.91923,36.00563,49.60156,35.16306,49.36816,35H46.34277c1.52735,1.35062,4.60965,4.18382,4.7793,4.79741.23753.85909-.54883,1.3182-3.56445,2.37316-1.42774.5265-2.542.94986-3.61914,1.35946-1.69043.64241-3.3128,1.18214-5.78711,2.13742-3.171,1.22428-3.39322,1.57294-3.12891,2.44684C35.39633,49.35043,40.61816,54.08354,41.77051,55Z"/><path class="cls-1" d="M52.5347,11.4123l-.6411,2.0936H49.2811L52,15.846V29.4847a1.4348,1.4348,0,0,1-1.3757,1.5096H45.3617A1.42357,1.42357,0,0,1,44,29.4847V27H21v2.4847a1.42627,1.42627,0,0,1-1.3582,1.5096H14.4637A1.513,1.513,0,0,1,13,29.4847V15.846l2.7224-2.3401H13.1111l-.6458-2.0936h3.8982c.383-.5539,2.9566-4.2181,4.974-4.937.9864-.3499,3.0497-.7541,10.3158-.7541h1.6969c7.2649,0,9.3294.4042,10.3169.7541,1.8525.7059,4.4532,4.257,4.9541,4.937Zm-6.0382,2.17V12.4935a12.03764,12.03764,0,0,0-3.6354-3.6048c-1.1159-.3959-4.333-.7724-9.5109-.7724H31.6533c-5.1791,0-8.395.3765-9.5581.7901a10.43248,10.43248,0,0,0-3.5882,3.5588v2.5371l-1.1277.7518L15.1155,17.266v.7167h6.9531v2.0235H15V29h4V25H46v4h4V20.0062H43.0182V17.9827h6.9543V17.266l-2.3483-1.5119-1.1277-.7518Z"/><path class="cls-1" d="M47.7696,15H17.131V13H47.7696Z"/><path class="cls-1" d="M11.77051,55h5.51074c-4.33789-2.70026-7.36035-5.28854-7.38965-6.33957-.10058-.59624.38672-1.055,1.582-1.47439.13575-.05206,7.39515-2.64,11.05078-4.2326,1.671-.728,2.59571-1.55493,2.59571-2.58533-.07246-.9989-.4973-1.305-1.41332-2.138-.10449-.09429-.40548-.35079-.52072-.45687C20.91923,36.00563,19.60156,35.16306,19.36816,35H16.34277c1.52735,1.35062,4.60965,4.18382,4.7793,4.79741.23753.85909-.54883,1.3182-3.56445,2.37316-1.42774.5265-2.542.94986-3.61914,1.35946-1.69043.64241-3.3128,1.18214-5.78711,2.13742-3.171,1.22428-3.39322,1.57294-3.12891,2.44684C5.39633,49.35043,10.61816,54.08354,11.77051,55Z"/></g></svg>