<svg xmlns="http://www.w3.org/2000/svg" viewBox="0 0 60 60"><defs><style>.cls-1{fill:#fff;}.cls-2{fill:none;stroke:#fff;stroke-width:1.62852px;}</style></defs><g id="Fertig"><g id="E183_RDK_Rennreifen"><g id="Reifen_Kopie_2" data-name="Reifen Kopie 2"><path class="cls-1" d="M45.21313,34.39172H41.52472c-.14227,11.29688-4.4812,19.75238-10.22211,19.75257a5.74956,5.74956,0,0,1-1.64874-.24866A24.85618,24.85618,0,0,0,33.66748,58.5S44.69444,55.27778,45.21313,34.39172Z"/><path class="cls-1" d="M20.22351,33.82147C20.22192,20.64325,24.28192,12.92627,29.71844,9.5H19.30573l-.24921.19531C13.77087,13.835,10.18768,23.148,10.18817,33.999v.002c-.00049,10.85156,3.5827,20.16406,8.86835,24.30371l.24939.19531H29.7193C24.28259,55.07391,20.22235,46.99988,20.22351,33.82147ZM18.15625,13.38428l3.70947-.78223a1.00008,1.00008,0,0,1,.41309,1.957l-3.70947.78223a1.00008,1.00008,0,1,1-.41309-1.957Zm-4.07861,7.46631a.99679.99679,0,0,1,1.32324-.498l3.37451,1.52881a.99976.99976,0,1,1-.82519,1.82129l-3.37452-1.52881A.99952.99952,0,0,1,14.07764,20.85059ZM12.49072,35.38086a.99866.99866,0,0,1,.479-1.33008l3.896-1.834a.99952.99952,0,1,1,.85157,1.80859l-3.896,1.834a.98645.98645,0,0,1-.42529.0957A.99966.99966,0,0,1,12.49072,35.38086Zm1.06641,8.33691a1.0003,1.0003,0,0,1,1.2959-.56543l4.03955,1.58594a.99977.99977,0,1,1-.73047,1.86133l-4.03955-1.58594A.99954.99954,0,0,1,13.55713,43.71777Zm8.41748,10.30762-2.74365,1.292a.98843.98843,0,0,1-.42578.09571.99985.99985,0,0,1-.42676-1.9043l2.74365-1.292a.99973.99973,0,1,1,.85254,1.80859Z"/><path class="cls-1" d="M7.6,34c-.00049-10.40027,3.63427-20.31757,8.89666-24.5H12.88391C5.97485,9.5.78967,22.11755.78967,33.82526c0,11.70764,5.18708,24.675,12.095,24.67474h3.6131C11.23474,54.3186,7.59949,44.40106,7.6,34Zm.68029-21.71484a.99912.99912,0,0,1,1.36817-.35645l1.84228,1.08106A.99973.99973,0,1,1,10.479,14.73438L8.63672,13.65332A.99912.99912,0,0,1,8.28027,12.28516ZM3.75439,22.01172l3.24122-1.58545a1.00015,1.00015,0,1,1,.8789,1.79687L4.6333,23.80859a1.00015,1.00015,0,0,1-.87891-1.79687ZM1.67383,32.53223a.9985.9985,0,0,1,1.36865-.35645l3.12647,1.834a.99977.99977,0,0,1-.50684,1.8623.98943.98943,0,0,1-.50488-.13769l-3.12647-1.834A.99957.99957,0,0,1,1.67383,32.53223ZM4.4707,47.72949A1.00016,1.00016,0,0,1,3.978,45.8584l2.708-1.52832a1.00029,1.00029,0,0,1,.98339,1.74219l-2.708,1.52832A.99288.99288,0,0,1,4.4707,47.72949Zm7.47657,6.9375a.99875.99875,0,0,1-1.22168.71289L7.749,54.59766a.99971.99971,0,1,1,.50879-1.9336l2.97657.78223A.99949.99949,0,0,1,11.94727,54.667Z"/></g><g id="E0BE_zwischenzielflagge_001" data-name="E0BE zwischenzielflagge 001"><path class="cls-2" d="M49.9039,30.51617a18.35,18.35,0,0,1-7.6021-7.817c-1.41134-2.36724-2.73471-4.314-7.074-5.2943L43.54161,5.53154c4.33931.98027,5.5725,3.05579,6.89374,5.55171a16.93462,16.93462,0,0,0,7.42226,8.07384Z"/><path class="cls-1" d="M40.58126,9.46527s.3206.12467.79551.29819,1.10413.39593,1.72138.59141a5.24466,5.24466,0,0,1,1.40965.73258,2.63432,2.63432,0,0,1,.6919.63635l-2.56443,3.66239s-.13284-.11646-.37315-.30415-.58809-.44658-1.01794-.73145a7.94375,7.94375,0,0,0-1.95209-.83851c-.63441-.19286-1.13218-.29517-1.13218-.29517l1.21068-1.87581Z"/><path class="cls-1" d="M50.55009,12.16663c-.3366-.57425-.69557-1.24112-1.01164-1.81895a13.72054,13.72054,0,0,0-.75458-1.285c-.18181-.2402-.41288-.52567-.5985-.75107s-.32576-.3908-.32576-.3908l-1.33,1.90151-1.33,1.9015s.234.22037.53047.54043a8.26037,8.26037,0,0,1,.90513,1.13834c.19225.30686.37871.63316.58644,1.02693s.43665.855.71385,1.43169c.01171-.00206.66532-.9257,1.316-1.84881S50.55009,12.16663,50.55009,12.16663Z"/><path class="cls-1" d="M47.928,15.91523l.2762.45582.2762.45583c.17141.251.39982.61732.69045,1.03762a13.5005,13.5005,0,0,0,1.06379,1.36117l.30655.30085.30656.30085-1.2462,1.78034-1.24619,1.78034-.22742-.2666-.22742-.26659c-.275-.31057-.7504-.93485-1.22136-1.6032A19.77767,19.77767,0,0,1,45.48444,19.384l.01441-.02059,1.21456-1.7241Z"/><polygon class="cls-1" points="40.082 3.488 40.985 4.125 41.385 4.405 33.434 15.761 25.482 27.117 25.082 26.836 24.179 26.2 32.131 14.844 40.082 3.488"/><path class="cls-1" d="M42.63327,15.38479s.21942.19229.50021.48a7.13719,7.13719,0,0,1,.86843,1.05281c.17978.27967.51052.80365.8192,1.302s.59531.97094.68687,1.14789l-2.68977,3.84139L41.2748,21.369l-1.5434-1.8399Z"/><path class="cls-1" d="M53.45712,16.11041l-2.60205,3.71612s.255.25855.615.59217a13.709,13.709,0,0,0,1.24518,1.04259c.32212.23022.86261.58652,1.32257.88527s.8394.54.8394.54l1.33929-1.942,1.3393-1.942-1.96368-1.386L53.6284,16.23036"/><path class="cls-1" d="M49.66427,30.26424c.28031-.4138.9431-1.37884,1.53629-2.24365s1.11677-1.62939,1.11867-1.64229a17.19063,17.19063,0,0,1-2.76664-1.909c-.73405-.60889-1.2084-1.07952-1.2084-1.07952l-1.44128,2.06617-1.44128,2.06618.39442.36981.39441.36981c.5854.42672,1.067.77607,1.58816,1.09439A12.19746,12.19746,0,0,0,49.66427,30.26424Z"/></g></g></g></svg>