<svg id="E287_001_Abblendlicht" xmlns="http://www.w3.org/2000/svg" viewBox="0 0 60 60"><defs><style>.cls-1{fill:#fff;fill-rule:evenodd;}</style></defs><path class="cls-1" d="M23.378,35.7383,10,39.98789V37.29152l12.77063-4.06076C22.957,34.147,23.16762,34.98732,23.378,35.7383Zm-1.03562-5.14222L10,34.51517V31.8191l12.11965-3.85771C22.16326,28.882,22.24088,29.76033,22.34239,30.59608Zm-.14267-5.42523L10,29.04255V26.34648l12.54564-3.99C22.40041,23.23484,22.28193,24.16975,22.19972,25.17085ZM23.925,16.44493l-.087.29271c-.22275.73668-.455,1.60071-.67284,2.56871L10,23.57014V20.87387ZM25.194,27.2671a29.6185,29.6185,0,0,1,2.19562-11.02531,2.05955,2.05955,0,0,1,1.25612-1.19933c3.52844-1.13795,8.28624-.09907,10.79837.70839a23.18834,23.18834,0,0,1,7.96922,4.13622,9.31369,9.31369,0,0,1,0,14.68958,23.35377,23.35377,0,0,1-7.96922,4.13613c-2.51213.80755-7.26993,1.84633-10.79837.70838A2.0649,2.0649,0,0,1,27.38963,38.217,28.98579,28.98579,0,0,1,25.194,27.2671Zm23.19724,0a6.95788,6.95788,0,0,0-2.74458-5.49121,20.9742,20.9742,0,0,0-7.02532-3.59809c-3.38811-1.10027-6.82464-1.34589-8.87207-.79316a28.28922,28.28922,0,0,0-1.93192,9.84477,28.49152,28.49152,0,0,0,1.93192,9.84508c2.04743.55723,5.484.3116,8.87207-.79326a20.8941,20.8941,0,0,0,7.02532-3.5981A6.81371,6.81371,0,0,0,48.39125,27.2671Zm-23.186,13.38659L10,45.4602V42.76413l14.20109-4.5186C24.38247,38.72228,25.20524,40.65369,25.20524,40.65369Z"/></svg>