<svg id="E287_002_Abblendlicht_Vergrößert" xmlns="http://www.w3.org/2000/svg" viewBox="0 0 60 60"><defs><style>.cls-1{fill:#fff;fill-rule:evenodd;}</style></defs><path class="cls-1" d="M22.33577,37.57805,7,42.44953v-3.091l14.63951-4.655C21.85317,35.75386,22.09459,36.71718,22.33577,37.57805ZM21.1486,31.68331,7,36.17593V33.08531l13.89325-4.42225C20.94324,29.71839,21.03222,30.72526,21.1486,31.68331ZM20.985,25.46414,7,29.90244V26.81182L21.38158,22.238C21.2151,23.24482,21.07929,24.31655,20.985,25.46414Zm1.97779-10.00288-.09975.33555c-.25534.84448-.52158,1.835-.7713,2.94462L7,23.62918V20.53834Zm1.45469,12.4059A33.95273,33.95273,0,0,1,26.93446,15.2284a2.36091,2.36091,0,0,1,1.43994-1.37485c4.0448-1.30448,9.49886-.11356,12.37862.812a26.58207,26.58207,0,0,1,9.13545,4.74153,10.67668,10.67668,0,0,1,0,16.83928A26.77147,26.77147,0,0,1,40.753,40.98782c-2.87976.92573-8.33382,2.11653-12.37862.812a2.367,2.367,0,0,1-1.43994-1.38035A33.22752,33.22752,0,0,1,24.41752,27.86716Zm26.592,0a7.97614,7.97614,0,0,0-3.14623-6.2948,24.04385,24.04385,0,0,0-8.05342-4.12464c-3.88394-1.26128-7.82336-1.54285-10.17042-.90923A32.42883,32.42883,0,0,0,27.42478,27.824a32.661,32.661,0,0,0,2.21464,11.28582c2.34706.63877,6.28648.3572,10.17042-.90935a23.95168,23.95168,0,0,0,8.05342-4.12464C49.5973,32.53306,50.97881,30.86049,51.00949,27.86716ZM24.4304,43.21276,7,48.72267V45.63205l16.27929-5.17986C23.48722,40.99871,24.4304,43.21276,24.4304,43.21276Z"/></svg>