<svg id="E289_001_Licht_aus" xmlns="http://www.w3.org/2000/svg" viewBox="0 0 66 60"><defs><style>.cls-1{fill:#fff;}</style></defs><g id="Version_2"><path class="cls-1" d="M18.9711,40.8362a8.09011,8.09011,0,0,0,2.374-1.095A7.33068,7.33068,0,0,0,23.1183,38.02a9.59914,9.59914,0,0,0,1.2162-2.2559,13.0965,13.0965,0,0,0,.6998-2.7099,20.38678,20.38678,0,0,0,.2235-3.0762,20.63492,20.63492,0,0,0-.2198-3.0762,13.34831,13.34831,0,0,0-.6888-2.7063,9.33283,9.33283,0,0,0-1.2016-2.2485,7.26991,7.26991,0,0,0-1.7622-1.7065,7.96713,7.96713,0,0,0-2.3666-1.084,11.08158,11.08158,0,0,0-3.0078-.3772,10.84323,10.84323,0,0,0-3.0042.3845,8.10552,8.10552,0,0,0-2.3666,1.095A7.27034,7.27034,0,0,0,8.8707,21.98a9.55908,9.55908,0,0,0-1.2089,2.2595,13.33392,13.33392,0,0,0-.6961,2.7099,20.31721,20.31721,0,0,0-.2235,3.0726,20.69284,20.69284,0,0,0,.2199,3.0798,13.24457,13.24457,0,0,0,.6887,2.7063A9.42327,9.42327,0,0,0,8.8487,38.053a7.237,7.237,0,0,0,1.7549,1.7065,7.92,7.92,0,0,0,2.3593,1.084,11.04153,11.04153,0,0,0,3.0042.3772A10.89158,10.89158,0,0,0,18.9711,40.8362Zm-5.0292-2.2779a5.23714,5.23714,0,0,1-1.6186-.8606,5.34009,5.34009,0,0,1-1.2049-1.3513,8.05354,8.05354,0,0,1-.8276-1.7798,11.34688,11.34688,0,0,1-.4724-2.1386,20.16267,20.16267,0,0,1,0-4.8523,11.436,11.436,0,0,1,.4724-2.1387,7.95506,7.95506,0,0,1,.8276-1.7798,5.42843,5.42843,0,0,1,1.2049-1.3513,5.144,5.144,0,0,1,1.6186-.8606,6.61023,6.61023,0,0,1,2.0655-.3003,6.58545,6.58545,0,0,1,2.0581.3003,5.10156,5.10156,0,0,1,1.615.8606,5.40712,5.40712,0,0,1,1.1975,1.3513,8.06482,8.06482,0,0,1,.8239,1.7798,11.64356,11.64356,0,0,1,.4761,2.1387A18.7492,18.7492,0,0,1,22.3282,30a18.83583,18.83583,0,0,1-.1502,2.428,11.55061,11.55061,0,0,1-.4761,2.1386,8.16589,8.16589,0,0,1-.8239,1.7798,5.31929,5.31929,0,0,1-1.1975,1.3513,5.20144,5.20144,0,0,1-1.6114.8606,6.501,6.501,0,0,1-2.0617.304A6.535,6.535,0,0,1,13.9419,38.5583Z"/><path class="cls-1" d="M31.8269,40.8618V31.4282h9.3604V29.1064H31.8269V21.4599h10.166V19.1382H29.0071V40.8618Z"/><path class="cls-1" d="M48.8269,40.8618V31.4282h9.3604V29.1064H48.8269V21.4599h10.166V19.1382H46.0071V40.8618Z"/></g></svg>