<svg id="E289_002_Licht_aus_vergrößert" xmlns="http://www.w3.org/2000/svg" viewBox="0 0 66 60"><defs><style>.cls-1{fill:#fff;}</style></defs><g id="Version_2"><path class="cls-1" d="M16.31906,43.98479a10.38,10.38,0,0,0,3.05155-1.41317,9.44034,9.44034,0,0,0,2.27927-2.22131,12.40435,12.40435,0,0,0,1.56331-2.91138,16.95664,16.95664,0,0,0,.89952-3.49729,26.41347,26.41347,0,0,0,.28729-3.97,26.7358,26.7358,0,0,0-.28253-3.97,17.28273,17.28273,0,0,0-.88539-3.49265,12.06037,12.06037,0,0,0-1.54454-2.90183,9.36177,9.36177,0,0,0-2.26513-2.20234,10.22152,10.22152,0,0,0-3.042-1.399,14.19045,14.19045,0,0,0-3.86623-.4868,13.88564,13.88564,0,0,0-3.86161.49622,10.39957,10.39957,0,0,0-3.042,1.41317A9.36249,9.36249,0,0,0,3.336,19.64969a12.35274,12.35274,0,0,0-1.55392,2.916A17.26364,17.26364,0,0,0,.88729,26.063,26.32327,26.32327,0,0,0,.6,30.02839a26.81072,26.81072,0,0,0,.28266,3.97468,17.14808,17.14808,0,0,0,.88526,3.49264A12.177,12.177,0,0,0,3.3077,40.3929a9.31957,9.31957,0,0,0,2.25575,2.20234,10.16169,10.16169,0,0,0,3.03265,1.399,14.13929,14.13929,0,0,0,3.86161.4868A13.94749,13.94749,0,0,0,16.31906,43.98479ZM9.85451,41.045A6.723,6.723,0,0,1,7.774,39.93436a6.88261,6.88261,0,0,1-1.54878-1.74394,10.41271,10.41271,0,0,1-1.0638-2.29694,14.69348,14.69348,0,0,1-.60722-2.76,26.12374,26.12374,0,0,1,0-6.2622,14.809,14.809,0,0,1,.60722-2.76013,10.28548,10.28548,0,0,1,1.0638-2.29694A6.99639,6.99639,0,0,1,7.774,20.07029a6.60336,6.60336,0,0,1,2.08055-1.11066,8.46544,8.46544,0,0,1,2.655-.38756,8.43375,8.43375,0,0,1,2.64549.38756,6.549,6.549,0,0,1,2.07592,1.11066,6.96907,6.96907,0,0,1,1.53927,1.74393,10.42748,10.42748,0,0,1,1.059,2.29694,15.07826,15.07826,0,0,1,.612,2.76013A24.29285,24.29285,0,0,1,20.63428,30a24.40533,24.40533,0,0,1-.19306,3.13349,14.95781,14.95781,0,0,1-.612,2.76,10.558,10.558,0,0,1-1.059,2.29694,6.856,6.856,0,0,1-1.53927,1.74394A6.67733,6.67733,0,0,1,15.15963,41.045a8.32554,8.32554,0,0,1-2.65012.39233A8.369,8.369,0,0,1,9.85451,41.045Z"/><path class="cls-1" d="M32.5,44V32H44V29H32.5V18.99249H45V16H29V44Z"/><path class="cls-1" d="M53.5,44V32H65V29H53.5V19L66,18.99249V16H50V44Z"/></g></svg>