<?xml version="1.0" encoding="utf-8"?>
<!-- Generator: Adobe Illustrator 25.1.0, SVG Export Plug-In . SVG Version: 6.00 Build 0)  -->
<svg version="1.1" id="E296_shiftlock" xmlns="http://www.w3.org/2000/svg" xmlns:xlink="http://www.w3.org/1999/xlink" x="0px"
	 y="0px" viewBox="0 0 60 60" style="enable-background:new 0 0 60 60;" xml:space="preserve">
<style type="text/css">
	.st0{fill:#FFFFFF;}
</style>
<path class="st0" d="M30,50.9c11.5,0,20.9-9.4,20.9-20.9c0-11.5-9.4-20.9-20.9-20.9h0C18.5,9.1,9.1,18.5,9.1,30v0
	C9.1,41.5,18.5,50.9,30,50.9L30,50.9z M30,49.1c-10.5,0-19.1-8.6-19.1-19.1l0,0c0-10.5,8.6-19.1,19.1-19.1h0
	c10.5,0,19.1,8.5,19.1,19.1S40.6,49.1,30,49.1L30,49.1z"/>
<path class="st0" d="M49.1,9l-2,2c10.5,10.5,10.5,27.6,0,38.2l2,2C60.7,39.4,60.7,20.6,49.1,9z"/>
<path class="st0" d="M11,51.1l2-2C2.4,38.6,2.4,21.5,12.9,11l0.1-0.1l-2-2C-0.7,20.5-0.7,39.4,11,51.1L11,51.1z"/>
<path class="st0" d="M15.3,24.9l0.5-0.6l0.3,0.3c0.1-0.2,0.3-0.3,0.5-0.4c0.8-0.9,1.8-3.1,5.4-1c7.6,4.6,14.3,4.1,14.5,4.7
	c1.4,3.9,5.9,6.8,7.3,7.6c0.7,0.5-3.1,5.9-5.2,6.6c-0.3,0.1-0.1,0.5-0.2,0.8l-1.5,1.6l-7-6.3l1.2-1.3c-1.8-1.7-4.1-2.9-6.5-3.6
	L15.3,24.9z"/>
</svg>
