<?xml version="1.0" encoding="UTF-8"?>
<svg id="Icon" xmlns="http://www.w3.org/2000/svg" viewBox="0 0 60 60">
  <defs>
    <style>
      .cls-1, .cls-2 {
        fill: #fff;
      }

      .cls-3 {
        opacity: .45;
      }

      .cls-2 {
        opacity: .15;
      }
    </style>
  </defs>
  <path class="cls-2" d="M60,29.99988l-.00933,8.21694-.02777,2.62191-.04621,1.90196-.06511,1.54351-.08355,1.319-.10245,1.16148-.12135,1.04223-.14049,.94795-.15962,.87023-.17946,.80442-.19906,.74748-.21913,.69754-.23944,.65273-.26044,.61236-.28168,.57502-.30338,.54072-.32578,.50875-.34889,.47864-.37292,.4504-.39743,.42333-.42333,.39743-.4504,.37292-.47864,.34889-.50875,.32578-.54072,.30338-.57526,.28168-.61213,.26044-.65273,.23967-.69754,.21913-.74772,.19906-.80442,.17923-.87,.15962-.94795,.14049-1.04223,.12135-1.16148,.10245-1.31924,.08355-1.54327,.06511-1.90196,.04621-2.62191,.02777-8.30889,.00933-8.12476-.00933-2.62191-.02777-1.90196-.04621-1.54351-.06511-1.31924-.08355-1.16125-.10245-1.04246-.12135-.94771-.14049-.87023-.15962-.80442-.17923-.74748-.19906-.69754-.21913-.65273-.23967-.61236-.26044-.57502-.28168-.54072-.30338-.50875-.32578-.47887-.34889-.45017-.37292-.42333-.39743-.39743-.42333-.37292-.4504-.34889-.47864-.32578-.50875-.30361-.54072-.28168-.57502-.26021-.61236-.23967-.65273-.21913-.69754-.19906-.74748-.17923-.80466-.15962-.87-.14049-.94795-.12135-1.04223-.10245-1.16148-.08378-1.319-.06488-1.54351-.04644-1.90196-.02754-2.62214L0,29.87853l.00933-8.09535,.02754-2.62191,.04644-1.90196,.06488-1.54351,.08378-1.319,.10245-1.16148,.12135-1.04246,.14049-.94771,.15962-.87023,.17923-.80442,.19906-.74748,.21913-.69754,.23967-.65273,.26044-.61236,.28144-.57502,.30361-.54072,.32578-.50875,.34889-.47864,.37292-.4504,.39743-.42333,.42333-.39743,.4504-.37292,.47864-.34889,.50875-.32578,.54072-.30338,.57502-.28191,.61236-.26021,.65273-.23967,.69754-.21913,.74748-.19883,.80442-.17946,.87023-.15962,.94771-.14049,1.04246-.12135,1.16148-.10245,1.319-.08355,1.54351-.06511,1.90196-.04621,2.62214-.02777L30.13827,0l8.07855,.00933,2.62191,.02777,1.90196,.04621,1.54351,.06511,1.319,.08355,1.16148,.10245,1.04223,.12135,.94795,.14049,.87023,.15962,.80442,.17946,.74748,.19883,.69754,.21913,.65273,.23967,.61213,.26044,.57526,.28168,.54072,.30338,.50875,.32578,.47864,.34889,.4504,.37292,.42333,.39743,.39743,.42333,.37292,.4504,.34889,.47864,.32578,.50875,.30338,.54072,.28168,.57526,.26044,.61213,.23944,.65273,.21913,.69754,.19906,.74748,.17946,.80466,.15962,.87,.14049,.94795,.12135,1.04223,.10245,1.16148,.08355,1.31924,.06511,1.54351,.04621,1.90196,.02777,2.62191,.00933,8.21647Z"/>
  <g class="cls-3">
    <path class="cls-1" d="M30.13822,1.5l8.06272,.00924,2.60138,.02742,1.87516,.04531,1.51191,.06345,1.28202,.08074,1.11979,.09819,.99583,.11522,.92255,.13671,.81677,.14981,.7471,.16668,.68568,.18239,.63174,.19846,.58408,.21446,.54054,.22999,.5018,.24571,.46593,.26142,.43387,.27784,.40475,.29502,.37865,.31353,.3548,.33309,.33309,.3548,.31353,.37865,.29502,.40475,.27784,.43387,.26142,.46593,.24571,.5018,.22995,.54045,.21415,.5838,.19864,.63229,.18259,.68565,.16666,.74722,.14993,.81719,.13046,.87548,.11709,1.00055,.09966,1.12448,.08188,1.28765,.06422,1.51671,.04585,1.88142,.02769,2.60772,.00933,8.21308-.00924,8.20275-.02742,2.60138-.04531,1.87516-.06345,1.51191-.08074,1.28202-.09819,1.11979-.11522,.99583-.13671,.92255-.14981,.81677-.16663,.74686-.18262,.68574-.19864,.63229-.21413,.58375-.22997,.54071-.24572,.50161-.26141,.46592-.27784,.43387-.29502,.40475-.31353,.37865-.33309,.3548-.3548,.33309-.37865,.31353-.40475,.29502-.43387,.27784-.46593,.26142-.5018,.24571-.54054,.22999-.58408,.21446-.63179,.19848-.68605,.18265-.74677,.16638-.81745,.14999-.87537,.13045-1.00057,.11708-1.12448,.09966-1.28767,.08188-1.51647,.06422-1.88142,.04584-2.60771,.02769-8.30548,.00933-8.11059-.00924-2.60138-.02742-1.87516-.04531-1.51193-.06344-1.2822-.08074-1.11964-.0982-.99594-.11519-.92251-.13675-.81681-.14983-.74679-.16638-.68566-.1826-.63193-.19852-.58403-.21444-.5408-.23001-.50161-.24572-.46592-.26141-.43405-.27795-.40473-.29486-.3784-.31348-.35491-.33318-.33309-.3548-.31353-.37865-.29502-.40475-.27799-.43409-.2616-.4659-.24551-.50119-.2298-.54079-.21452-.58426-.19852-.63193-.18257-.68556-.16641-.74715-.14999-.81743-.13045-.87537-.11708-1.00057-.09967-1.12476-.08209-1.28691-.064-1.51714-.04608-1.88108-.02746-2.60808-.00933-8.33465,.00926-8.08133,.02717-2.60104,.04557-1.87559,.06319-1.51142,.08099-1.28228,.0982-1.11984,.11519-.99594,.13675-.92251,.14983-.8168,.16638-.74679,.1826-.68566,.19852-.63192,.21444-.58403,.23015-.54113,.24531-.5012,.26153-.46577,.27799-.43409,.29502-.40475,.31353-.37865,.33309-.3548,.3548-.33309,.37865-.31353,.40475-.29502,.43387-.27784,.46619-.26156,.50127-.24575,.54063-.22973,.58426-.21452,.63174-.19846,.68568-.18239,.74711-.16668,.81749-.14995,.87515-.13045,1.00082-.11709,1.1245-.09966,1.2874-.08188,1.51671-.06422,1.88142-.04585,2.60793-.02769,8.35313-.00933m.00005-1.5l-8.35486,.00933-2.62214,.02777-1.90196,.0462-1.54351,.06511-1.319,.08355-1.16148,.10246-1.04247,.12135-.94771,.14048-.87023,.15962-.80442,.17947-.74749,.19883-.69754,.21913-.65273,.23967-.61236,.26021-.57502,.28191-.54072,.30338-.50874,.32579-.47864,.34888-.4504,.37293-.42333,.39742-.39742,.42334-.37293,.4504-.34888,.47865-.32579,.50874-.30361,.54072-.28144,.57502-.26044,.61235-.23967,.65273-.21913,.69755-.19907,.74749-.17922,.80442-.15963,.87023-.14049,.94771-.12134,1.04247-.10246,1.16148-.08378,1.319-.06488,1.54351-.04644,1.90195-.02753,2.62191-.00933,8.09535,.00933,8.33806,.02753,2.62214,.04644,1.90196,.06488,1.54351,.08378,1.319,.10246,1.16148,.12134,1.04223,.14049,.94794,.15963,.87,.17922,.80466,.19907,.74749,.21913,.69754,.23967,.65273,.26021,.61236,.28168,.57502,.30361,.54072,.32579,.50874,.34888,.47864,.37293,.4504,.39742,.42333,.42333,.39742,.45017,.37293,.47888,.34888,.50874,.32579,.54072,.30338,.57502,.28168,.61236,.26044,.65273,.23967,.69754,.21913,.74749,.19907,.80442,.17922,.87023,.15963,.94771,.14049,1.04247,.12134,1.16124,.10246,1.31923,.08354,1.54351,.06511,1.90196,.0462,2.62191,.02778,8.12476,.00933,8.30889-.00933,2.62191-.02778,1.90195-.0462,1.54328-.06511,1.31923-.08354,1.16148-.10246,1.04223-.12134,.94794-.14049,.87-.15963,.80442-.17922,.74772-.19907,.69755-.21913,.65273-.23967,.61212-.26044,.57526-.28168,.54072-.30338,.50874-.32579,.47865-.34888,.4504-.37293,.42334-.39742,.39742-.42333,.37293-.4504,.34888-.47864,.32579-.50874,.30338-.54072,.28168-.57502,.26044-.61236,.23943-.65273,.21914-.69754,.19907-.74749,.17947-.80442,.15962-.87023,.14048-.94794,.12135-1.04223,.10246-1.16148,.08355-1.319,.06511-1.54351,.0462-1.90196,.02777-2.62191,.00933-8.21693-.00933-8.21648-.02777-2.62191-.0462-1.90196-.06511-1.54351-.08355-1.31923-.10246-1.16148-.12135-1.04223-.14048-.94794-.15962-.87-.17947-.80466-.19907-.74749-.21914-.69755-.23943-.65273-.26044-.61212-.28168-.57526-.30338-.54072-.32579-.50874-.34888-.47865-.37293-.4504-.39742-.42334-.42334-.39742-.4504-.37293-.47865-.34888-.50874-.32579-.54072-.30338-.57526-.28168-.61212-.26044-.65273-.23967-.69755-.21913-.74749-.19883-.80442-.17947-.87023-.15962-.94794-.14048-1.04223-.12135-1.16148-.10246-1.319-.08355-1.54351-.06511-1.90195-.0462-2.62191-.02777-8.07855-.00933h0Z"/>
  </g>
  <path class="cls-1" d="M29.98376,9.99548c-.57129,0-1.15167,.03192-1.72437,.09564-7.25427,.80396-13.02997,6.9339-13.43555,14.25916-.24432,4.41742,1.42755,8.71375,4.58734,11.78632,2.49005,2.42096,3.91803,5.75464,3.91803,9.14667v1.95563c0,2.07678,1.68518,3.76562,3.75726,3.76562h5.79407c2.0719,.0014,3.75775-1.68817,3.75775-3.76489v-1.95447c0-3.43475,1.39227-6.73438,3.82001-9.05292,3.03711-2.901,4.70966-6.81342,4.70966-11.01691,0-8.3924-6.81134-15.21985-15.1842-15.21985Zm4.65411,37.24414c0,.4707-.18347,.91406-.51764,1.24805-.33209,.33325-.77173,.51666-1.23755,.51666h-5.7962c-.96851,0-1.75684-.79205-1.75684-1.76569v-.2359h9.30823v.23688Zm.01422-2.23737h-9.33691c-.01794-.67181-.08771-1.33905-.19788-2.00018h9.72589c-.10638,.65906-.17358,1.32599-.1911,2.00018Zm.63989-3.94183c-.09357-.02917-.18811-.05878-.2915-.05878h-10.00146c-.12042,0-.23248,.0296-.33936,.0686-.22192-.71503-.47772-1.42004-.80347-2.09778,.04852,.00751,.09216,.02893,.14282,.02893h12.00171c.0257,0,.04736-.01282,.07257-.01471-.31665,.66699-.56543,1.36475-.78131,2.07373Zm-7.9278-5.0174l-1.99554-7.39899c-.2887-1.06934-.31598-2.33911-.06116-2.8219,.25488-.48285,.81726-.03967,1.24994,.98505l.54468,1.29053c.43268,1.02448,1.1405,1.02448,1.57318-.00024l.54486-1.29028c.43243-1.02472,1.1405-1.02472,1.57294,0l.54468,1.29028c.43243,1.02472,1.1405,1.02472,1.57318,0l.54468-1.29028c.43262-1.02472,.99481-1.4679,1.24988-.98505,.25488,.48279,.22736,1.75281-.0611,2.82208l-1.99579,7.3988c-.0943,.34955-.12671,.67371-.11456,.95795h-5.0553c.01239-.28424-.02002-.6084-.11456-.95795Zm11.71283-1.25745c-.70477,.67285-1.33441,1.41656-1.88239,2.21539h-2.83636c.16406-.28473,.30499-.61005,.39764-.96057l2.14935-8.14618c.28259-1.07074,.02332-2.72113-.57593-3.66742l-.99744-1.57526c-.59955-.94629-1.44366-.88239-1.87628,.14258l-.54468,1.2901c-.43268,1.02496-1.14075,1.02496-1.57318,0l-.54468-1.2901c-.43243-1.02496-1.1405-1.02496-1.57294,0l-.54486,1.2901c-.43268,1.02496-1.1405,1.02496-1.57318,.00024l-.54468-1.29059c-.43268-1.02472-1.27698-1.08862-1.87628-.14233l-.99768,1.57526c-.59906,.94629-.85834,2.59668-.57568,3.66742l2.14929,8.14618c.09265,.35052,.2334,.67584,.39771,.96057h-2.9176c-.56195-.82263-1.20721-1.5946-1.93158-2.29846-2.74445-2.66925-4.19696-6.40204-3.98456-10.24188,.35211-6.36096,5.36444-11.6839,11.65863-12.38116,.49713-.05579,1.00256-.08356,1.50409-.08356,7.26971,0,13.18378,5.93018,13.18378,13.21924,0,3.65198-1.45251,7.05121-4.09052,9.57043Z"/>
</svg>