<?xml version="1.0" encoding="UTF-8"?>
<svg id="Icon" xmlns="http://www.w3.org/2000/svg" viewBox="0 0 60 60">
  <defs>
    <style>
      .cls-1, .cls-2 {
        fill: #fff;
      }

      .cls-3, .cls-4 {
        fill: none;
        stroke: #fff;
        stroke-miterlimit: 10;
        stroke-width: 2px;
      }

      .cls-5 {
        opacity: .45;
      }

      .cls-4 {
        fill-rule: evenodd;
      }

      .cls-2 {
        opacity: .15;
      }
    </style>
  </defs>
  <path class="cls-2" d="M60,29.99988l-.00933,8.21694-.02777,2.62191-.04621,1.90196-.06511,1.54351-.08355,1.319-.10245,1.16148-.12135,1.04223-.14049,.94795-.15962,.87023-.17946,.80442-.19906,.74748-.21913,.69754-.23944,.65273-.26044,.61236-.28168,.57502-.30338,.54072-.32578,.50875-.34889,.47864-.37292,.4504-.39743,.42333-.42333,.39743-.4504,.37292-.47864,.34889-.50875,.32578-.54072,.30338-.57526,.28168-.61213,.26044-.65273,.23967-.69754,.21913-.74772,.19906-.80442,.17923-.87,.15962-.94795,.14049-1.04223,.12135-1.16148,.10245-1.31924,.08355-1.54327,.06511-1.90196,.04621-2.62191,.02777-8.30889,.00933-8.12476-.00933-2.62191-.02777-1.90196-.04621-1.54351-.06511-1.31924-.08355-1.16125-.10245-1.04246-.12135-.94771-.14049-.87023-.15962-.80442-.17923-.74748-.19906-.69754-.21913-.65273-.23967-.61236-.26044-.57502-.28168-.54072-.30338-.50875-.32578-.47887-.34889-.45017-.37292-.42333-.39743-.39743-.42333-.37292-.4504-.34889-.47864-.32578-.50875-.30361-.54072-.28168-.57502-.26021-.61236-.23967-.65273-.21913-.69754-.19906-.74748-.17923-.80466-.15962-.87-.14049-.94795-.12135-1.04223-.10245-1.16148-.08378-1.319-.06488-1.54351-.04644-1.90196-.02754-2.62214-.00933-8.33806,.00933-8.09535,.02754-2.62191,.04644-1.90196,.06488-1.54351,.08378-1.319,.10245-1.16148,.12135-1.04246,.14049-.94771,.15962-.87023,.17923-.80442,.19906-.74748,.21913-.69754,.23967-.65273,.26044-.61236,.28144-.57502,.30361-.54072,.32578-.50875,.34889-.47864,.37292-.4504,.39743-.42333,.42333-.39743,.4504-.37292,.47864-.34889,.50875-.32578,.54072-.30338,.57502-.28191,.61236-.26021,.65273-.23967,.69754-.21913,.74748-.19883,.80442-.17946,.87023-.15962,.94771-.14049,1.04246-.12135,1.16148-.10245,1.319-.08355,1.54351-.06511,1.90196-.04621,2.62214-.02777,8.35486-.00933,8.07855,.00933,2.62191,.02777,1.90196,.04621,1.54351,.06511,1.319,.08355,1.16148,.10245,1.04223,.12135,.94795,.14049,.87023,.15962,.80442,.17946,.74748,.19883,.69754,.21913,.65273,.23967,.61213,.26044,.57526,.28168,.54072,.30338,.50875,.32578,.47864,.34889,.4504,.37292,.42333,.39743,.39743,.42333,.37292,.4504,.34889,.47864,.32578,.50875,.30338,.54072,.28168,.57526,.26044,.61213,.23944,.65273,.21913,.69754,.19906,.74748,.17946,.80466,.15962,.87,.14049,.94795,.12135,1.04223,.10245,1.16148,.08355,1.31924,.06511,1.54351,.04621,1.90196,.02777,2.62191,.00933,8.21647Z"/>
  <g class="cls-5">
    <path class="cls-1" d="M30.13822,1.5l8.06272,.00924,2.60138,.02742,1.87516,.04531,1.51191,.06345,1.28202,.08074,1.11979,.09819,.99583,.11522,.92255,.13671,.81677,.14981,.7471,.16668,.68568,.18239,.63174,.19846,.58408,.21446,.54054,.22999,.5018,.24571,.46593,.26142,.43387,.27784,.40475,.29502,.37865,.31353,.3548,.33309,.33309,.3548,.31353,.37865,.29502,.40475,.27784,.43387,.26142,.46593,.24571,.5018,.22995,.54045,.21415,.5838,.19864,.63229,.18259,.68565,.16666,.74722,.14993,.81719,.13046,.87548,.11709,1.00055,.09966,1.12448,.08188,1.28765,.06422,1.51671,.04585,1.88142,.02769,2.60772,.00933,8.21308-.00924,8.20275-.02742,2.60138-.04531,1.87516-.06345,1.51191-.08074,1.28202-.09819,1.11979-.11522,.99583-.13671,.92255-.14981,.81677-.16663,.74686-.18262,.68574-.19864,.63229-.21413,.58375-.22997,.54071-.24572,.50161-.26141,.46592-.27784,.43387-.29502,.40475-.31353,.37865-.33309,.3548-.3548,.33309-.37865,.31353-.40475,.29502-.43387,.27784-.46593,.26142-.5018,.24571-.54054,.22999-.58408,.21446-.63179,.19848-.68605,.18265-.74677,.16638-.81745,.14999-.87537,.13045-1.00057,.11708-1.12448,.09966-1.28767,.08188-1.51647,.06422-1.88142,.04584-2.60771,.02769-8.30548,.00933-8.11059-.00924-2.60138-.02742-1.87516-.04531-1.51193-.06344-1.2822-.08074-1.11964-.0982-.99594-.11519-.92251-.13675-.81681-.14983-.74679-.16638-.68566-.1826-.63193-.19852-.58403-.21444-.5408-.23001-.50161-.24572-.46592-.26141-.43405-.27795-.40473-.29486-.3784-.31348-.35491-.33318-.33309-.3548-.31353-.37865-.29502-.40475-.27799-.43409-.2616-.4659-.24551-.50119-.2298-.54079-.21452-.58426-.19852-.63193-.18257-.68556-.16641-.74715-.14999-.81743-.13045-.87537-.11708-1.00057-.09967-1.12476-.08209-1.28691-.064-1.51714-.04608-1.88108-.02746-2.60808-.00933-8.33465,.00926-8.08133,.02717-2.60104,.04557-1.87559,.06319-1.51142,.08099-1.28228,.0982-1.11984,.11519-.99594,.13675-.92251,.14983-.8168,.16638-.74679,.1826-.68566,.19852-.63192,.21444-.58403,.23015-.54113,.24531-.5012,.26153-.46577,.27799-.43409,.29502-.40475,.31353-.37865,.33309-.3548,.3548-.33309,.37865-.31353,.40475-.29502,.43387-.27784,.46619-.26156,.50127-.24575,.54063-.22973,.58426-.21452,.63174-.19846,.68568-.18239,.74711-.16668,.81749-.14995,.87515-.13045,1.00082-.11709,1.1245-.09966,1.2874-.08188,1.51671-.06422,1.88142-.04585,2.60793-.02769,8.35313-.00933m.00005-1.5l-8.35486,.00933-2.62214,.02777-1.90196,.0462-1.54351,.06511-1.319,.08355-1.16148,.10246-1.04247,.12135-.94771,.14048-.87023,.15962-.80442,.17947-.74749,.19883-.69754,.21913-.65273,.23967-.61236,.26021-.57502,.28191-.54072,.30338-.50874,.32579-.47864,.34888-.4504,.37293-.42333,.39742-.39742,.42334-.37293,.4504-.34888,.47865-.32579,.50874-.30361,.54072-.28144,.57502-.26044,.61235-.23967,.65273-.21913,.69755-.19907,.74749-.17922,.80442-.15963,.87023-.14049,.94771-.12134,1.04247-.10246,1.16148-.08378,1.319-.06488,1.54351-.04644,1.90195-.02753,2.62191-.00933,8.09535,.00933,8.33806,.02753,2.62214,.04644,1.90196,.06488,1.54351,.08378,1.319,.10246,1.16148,.12134,1.04223,.14049,.94794,.15963,.87,.17922,.80466,.19907,.74749,.21913,.69754,.23967,.65273,.26021,.61236,.28168,.57502,.30361,.54072,.32579,.50874,.34888,.47864,.37293,.4504,.39742,.42333,.42333,.39742,.45017,.37293,.47888,.34888,.50874,.32579,.54072,.30338,.57502,.28168,.61236,.26044,.65273,.23967,.69754,.21913,.74749,.19907,.80442,.17922,.87023,.15963,.94771,.14049,1.04247,.12134,1.16124,.10246,1.31923,.08354,1.54351,.06511,1.90196,.0462,2.62191,.02778,8.12476,.00933,8.30889-.00933,2.62191-.02778,1.90195-.0462,1.54328-.06511,1.31923-.08354,1.16148-.10246,1.04223-.12134,.94794-.14049,.87-.15963,.80442-.17922,.74772-.19907,.69755-.21913,.65273-.23967,.61212-.26044,.57526-.28168,.54072-.30338,.50874-.32579,.47865-.34888,.4504-.37293,.42334-.39742,.39742-.42333,.37293-.4504,.34888-.47864,.32579-.50874,.30338-.54072,.28168-.57502,.26044-.61236,.23943-.65273,.21914-.69754,.19907-.74749,.17947-.80442,.15962-.87023,.14048-.94794,.12135-1.04223,.10246-1.16148,.08355-1.319,.06511-1.54351,.0462-1.90196,.02777-2.62191,.00933-8.21693-.00933-8.21648-.02777-2.62191-.0462-1.90196-.06511-1.54351-.08355-1.31923-.10246-1.16148-.12135-1.04223-.14048-.94794-.15962-.87-.17947-.80466-.19907-.74749-.21914-.69755-.23943-.65273-.26044-.61212-.28168-.57526-.30338-.54072-.32579-.50874-.34888-.47865-.37293-.4504-.39742-.42334-.42334-.39742-.4504-.37293-.47865-.34888-.50874-.32579-.54072-.30338-.57526-.28168-.61212-.26044-.65273-.23967-.69755-.21913-.74749-.19883-.80442-.17947-.87023-.15962-.94794-.14048-1.04223-.12135-1.16148-.10246-1.319-.08355-1.54351-.06511-1.90195-.0462-2.62191-.02777-8.07855-.00933h0Z"/>
  </g>
  <path class="cls-1" d="M30.0047,12.02825h-.00011c2.80066,.00027,4.99508,2.23384,4.99543,5.08492v10.78652c-.00035,2.85116-2.1948,5.08484-4.99564,5.08518-2.80584,0-5.00403-2.23368-5.00438-5.08493v-10.78652c.00035-2.85116,2.19867-5.08483,5.0047-5.08517m-.00025-2h-.00091c-3.9127,.00048-7.00306,3.17223-7.00354,7.08492v10.78677c.00048,3.9129,3.09168,7.08493,7.00438,7.08493h.00091c3.9127-.00048,6.99425-3.17223,6.99473-7.08493v-10.78677c-.00048-3.9129-3.08287-7.08492-6.99557-7.08492h0Z"/>
  <path class="cls-4" d="M41.00275,25.02245v3.21589c.00733,6.02722-4.96938,10.91919-10.9966,10.92652-6.02722,.00733-11.01046-4.87276-11.01778-10.89998-.00001-.00884,0-3.24243,0-3.24243"/>
  <line class="cls-3" x1="22.00759" y1="50" x2="38" y2="50"/>
  <line class="cls-3" x1="30" y1="49.22847" x2="30" y2="39.1745"/>
</svg>