<?xml version="1.0" encoding="UTF-8"?>
<svg id="E2CC_charging_power" data-name="E2CC charging power" xmlns="http://www.w3.org/2000/svg" viewBox="0 0 60 60">
  <defs>
    <style>
      .cls-1 {
        fill: #fff;
      }
    </style>
  </defs>
  <path class="cls-1" d="M.58813,22.83496c.20203,3.10529,2.92731,5.46179,6.0871,5.26331,1.52472,.06085,3.03052-.3501,4.30493-1.17535l.23907,.94025h1.7937V12.58545h-2.1524v5.1709c-1.21417-.63422-2.57129-.95758-3.94617-.94019-5.0224,0-6.4574,3.4082-6.33783,5.64099-.00049,.1261,.00342,.25201,.0116,.37781Zm6.56543-4.37354l-.00012,.00012c1.30688,.0387,2.5824,.40259,3.70721,1.05768v5.87604c-1.08069,.74976-2.3858,1.12207-3.70709,1.05768-.099,.00781-.1983,.01208-.29761,.0127-2.19989,.013-3.99402-1.729-4.00732-3.89087,0-1.9978,.95673-3.99573,4.30493-4.11334Zm17.94257,.58759v-1.88019c-.66376-.18451-1.34491-.30261-2.0329-.35266-1.6015-.02271-3.09851,.77979-3.94611,2.11536l-.2392-1.88025h-1.91339v10.81189h2.15253l.00006-7.05133c.63409-.90228,1.56195-1.56537,2.6308-1.88031,1.11151-.19916,2.25391-.15906,3.34821,.11749Zm4.93823-1.99774h-2.1524v10.81189h2.1524v-10.81189Zm0-4.46582h-2.1524v2.35046h2.1524v-2.35046Zm14.1106,4.46582l-4.1853,8.46149-4.30493-8.46149h-2.3916l5.6203,10.81189h2.0329l5.6203-10.81189h-2.39166Zm10.04498,11.047c3.46771-.11755,4.30493-.7052,4.90283-1.05774v-1.76276c-1.4585,.67969-3.04962,1.04059-4.66382,1.05768-1.5545,0-4.30493-.70508-4.1853-3.40808h9.56647s1.19592-5.75854-5.85938-6.11121c-5.2616,.11755-5.97906,3.99567-5.97906,5.5235-.01752,.31061-.00812,.62219,.02808,.93127,.35291,3.01282,3.12439,5.17419,6.19019,4.82733Zm-.35876-9.63672c1.86096-.20978,3.57568,1.01569,3.94604,2.8205h-7.6532c.34515-1.71838,1.92786-2.92273,3.70715-2.8205ZM8.02588,42.48065c-2.86993-1.52783-5.85956-.94019-5.73993-2.70312,0-.23499-.11963-1.41016,3.10907-1.2926,1.09723,.13019,2.17871,.36639,3.22882,.7052v-1.64539c-1.10828-.56128-2.34088-.84387-3.58746-.82269-4.90295-.11749-4.90295,2.703-4.90295,3.17322,0,.46997-.11945,1.88025,2.51135,2.8205,.89319,.31641,1.81366,.55237,2.75024,.70508,2.39172,.3526,2.63086,2.46802-.59784,2.82062-1.61206-.01544-3.21692-.21252-4.7832-.58759v1.64514c1.28467,.37811,2.60815,.61475,3.94617,.7052,.11951,0,5.14203,.35254,5.3811-3.40814,.00879-.89423-.50171-1.71521-1.31537-2.11542Zm17.03229,2.46802v-12.45734h-2.0329v12.69238c0,1.4101,.2392,1.7627,.47827,1.99774,.47839,.70526,1.79382,.82275,2.27222,.82275,.7301-.02399,1.4538-.14246,2.1524-.35266v-1.64532c-.54651,.14404-1.10858,.22302-1.67432,.23511-.23907,0-1.19568,.11749-1.19568-1.29266Zm21.56268,1.05768c-2.27197-.70508-2.27197-3.29059-2.27197-3.8783-.10095-1.47211,.76526-2.84351,2.15234-3.40808,1.60181-.39093,3.29205-.22473,4.78333,.47015v-1.76288c-1.0899-.48053-2.27338-.72119-3.4679-.7052-.17499-.01013-.3504-.0119-.5257-.00543-2.99341,.11182-5.32788,2.5871-5.21429,5.52905-.11682,2.27698,1.21826,4.38556,3.34839,5.28845,1.9621,.664,4.11188,.53729,5.97913-.35266v-1.76282c-1.48975,.69263-3.16595,.89862-4.78333,.58771Zm13.37689-7.15393v-1.89526h-2.97321v-2.8905h-1.79376l-.2392,2.8905h-2.15253v1.89526h2.15253v5.74365c-.2605,1.41534,.62146,2.79218,2.03296,3.1731,1.13574,.4209,1.90588,.33508,2.97211-.23505v-1.64526c-.95398,.45337-1.57971,.40936-2.49377-.11761-.47833-.3526-.47833-1.17511-.47833-1.52771v-5.39111h2.97321Zm-44.32397-2.13037c-4.6637-.11749-5.2616,3.99579-5.2616,5.52362,0,1.52765,.2392,5.75854,5.38116,5.75854,1.61243,.10596,3.22394-.21906,4.6637-.94025v-1.88025c-1.33575,.66644-2.80725,1.02795-4.30499,1.05762-1.95996,.01031-3.58691-1.48547-3.70697-3.40808h8.6098s.8371-6.11121-5.3811-6.11121Zm-3.2287,4.46588c.20135-1.45166,1.36298-2.59326,2.84009-2.7912,1.81622-.24341,3.48932,1.00629,3.73688,2.7912h-6.57697Zm22.13879-4.46588c-4.66364-.11749-5.2616,3.99579-5.2616,5.52362,0,1.52765,.2392,5.75854,5.38116,5.75854,1.61243,.10596,3.224-.21906,4.6637-.94025v-1.88025c-1.33557,.66644-2.80719,1.02795-4.30487,1.05762-1.9599,.01031-3.58691-1.48547-3.70703-3.40808h8.6098s.8371-6.11121-5.38116-6.11121Zm-3.22864,4.46588c.20142-1.45166,1.36292-2.59326,2.84003-2.7912,1.81622-.24341,3.48932,1.00629,3.737,2.7912h-6.57703Z"/>
</svg>