<svg id="E2FC_hourglass" xmlns="http://www.w3.org/2000/svg" viewBox="0 0 60 60"><defs><style>.cls-1,.cls-4{fill:#fff;}.cls-1{fill-rule:evenodd;}.cls-2,.cls-3{fill:none;}.cls-2{stroke:#fff;stroke-width:2px;}</style></defs><path id="Boden" class="cls-1" d="M0,56H31v2H0ZM0,2H40V4H0Z"/><path id="Form_1" data-name="Form 1" class="cls-1" d="M34,32h2V60H34.009Z"/><path id="Form_1_Kopie" data-name="Form 1 Kopie" class="cls-2" d="M59.076,48.926C48.045,49.974,47.453,43.077,39,46.541V31.653c8.457-3.463,9.049,4.079,20.079,3.03V48.926Z"/><path id="Form_1_Kopie_2" data-name="Form 1 Kopie 2" class="cls-1" d="M39.452,36.707s1.541-.336,2.81-.734a4.534,4.534,0,0,1,2.467-.086v4.592a12.93656,12.93656,0,0,0-1.673-.052,12.34,12.34,0,0,0-3.431.863Zm9.9-3.6c-1.243-.57-2.528-1.4-3.063-1.571-.589-.19-1.558-.416-1.558-.416v4.767a11.912,11.912,0,0,1,2.3.567,21.62683,21.62683,0,0,1,2.291,1.3c.02-.016.026-4.647.026-4.647Zm0,4.7,1,.442a18.29887,18.29887,0,0,0,2.746.985l.87.145v4.464l-.7-.181a24.90981,24.90981,0,0,1-3.934-1.5v-.025ZM44.728,40.48a10.04017,10.04017,0,0,1,2.162.483c.632.259,2.1.984,2.459,1.174v4.817l-4.621-1.278V40.48Zm9.247-5.766v4.66a18.34384,18.34384,0,0,0,2.528.28c.813.008,2.365-.075,2.365-.075L58.7,34.731l-4.511-.019M59.12,48.855c-.016-1.027-.044-4.81-.056-4.834a20.4608,20.4608,0,0,1-5.105-.173l.009,5.175,1.1.158A14.38584,14.38584,0,0,0,59.12,48.855Z"/><path id="path-2" class="cls-3" d="M27.056,35.922C34.313,39.916,37,50.124,37,57c-1.164,0-34-.091-34,0,0-6.876,2.687-17.084,9.944-21.078a8.088,8.088,0,0,0,3.3-5.874,7.467,7.467,0,0,0-3.3-6.017C5.592,20.217,3,9.877,3,3H37c0,6.877-2.544,17.314-9.944,21.031a7.335,7.335,0,0,0-3.349,5.92C23.708,32.663,26.124,35.409,27.056,35.922Z"/><path id="path" class="cls-1" d="M21.539,20.769C24.9,19.743,28,15.9,28,14H12c0,1.9,3.241,5.978,6.461,6.769C18.86,20.867,20,25,20,25S21.169,20.881,21.539,20.769ZM18,48c-4.722,1.014-9,3.125-9,5H31c0-1.875-4.309-3.96-9-5-.464-.1-2-14-2-14S18.438,47.906,18,48Z"/><path id="path-2-2" data-name="path" class="cls-3" d="M21.539,20.769C24.9,19.743,28,15.9,28,14H12c0,1.9,3.241,5.978,6.461,6.769C18.86,20.867,20,25,20,25S21.169,20.881,21.539,20.769ZM18,48c-4.722,1.014-9,3.125-9,5H31c0-1.875-4.309-3.96-9-5-.464-.1-2-14-2-14S18.438,47.906,18,48Z"/><path class="cls-4" d="M31,56c-17.84211.07895-24.421.02632-27,0,.25146-7.0791,3.2373-15.7959,9.42627-19.20215l.106-.06738a9.08025,9.08025,0,0,0,3.70849-6.60059l.0044-.05273-.00147-.05371a8.4791,8.4791,0,0,0-3.74219-6.82276l-.09716-.05761C6.39746,19.5083,4.22021,9.79131,4,3.95H36c-.21875,5.89453-2.39062,15.67012-9.39258,19.18721l-.09424.05371A8.35242,8.35242,0,0,0,22.707,29.95166a9.28922,9.28922,0,0,0,3.86719,6.84619A14.2682,14.2682,0,0,1,31,40.74744V37.68073a15.53937,15.53937,0,0,0-3.46191-2.63483,7.46147,7.46147,0,0,1-2.83155-5.062,6.33883,6.33883,0,0,1,2.84961-5.08545C35.79883,20.71533,38,9.17236,38,3V2.1H2V3C2,9.10791,4.19873,20.57617,12.43018,24.89062a6.47937,6.47937,0,0,1,2.813,5.12842,7.08323,7.08323,0,0,1-2.83935,5.05908C4.19238,39.64453,2,50.99805,2,57H3.03613l.06739.99219C3.726,57.9519,13.1059,57.95026,31,57.98724Z"/></svg>