<svg id="E77B_quattro_getriebe" xmlns="http://www.w3.org/2000/svg" viewBox="0 0 60 60"><defs><style>.cls-1{fill:#fff;}</style></defs><path class="cls-1" d="M0,40.968V18.0007H8.44445a19.50547,19.50547,0,0,1,3.902.3665,13.89669,13.89669,0,0,1,3.2519,1.0557,10.76907,10.76907,0,0,1,2.5776,1.6947,9.77379,9.77379,0,0,1,1.8749,2.2767,10.51588,10.51588,0,0,1,1.146,2.8081,13.2908,13.2908,0,0,1,.389,3.282,12.47163,12.47163,0,0,1-.4003,3.1996,10.59669,10.59669,0,0,1-1.176,2.7829,10.16725,10.16725,0,0,1-1.9068,2.2908,11.37993,11.37993,0,0,1-2.5925,1.7346,13.836,13.836,0,0,1-3.2333,1.0952,18.19545,18.19545,0,0,1-3.8325.3805Zm8.67935-2.6644a13.10749,13.10749,0,0,0,2.8893-.298,9.68783,9.68783,0,0,0,2.3578-.8474,7.39185,7.39185,0,0,0,1.8298-1.3358,7.49932,7.49932,0,0,0,1.3057-1.7666,8.45552,8.45552,0,0,0,.7814-2.1369,11.57016,11.57016,0,0,0,0-4.8725,8.47615,8.47615,0,0,0-.7814-2.1331,7.4902,7.4902,0,0,0-1.3057-1.7668,7.38932,7.38932,0,0,0-1.8298-1.3358,9.82157,9.82157,0,0,0-2.3634-.8474,13.07909,13.07909,0,0,0-2.8837-.298H3.39275V38.3036Z"/><path class="cls-1" d="M39.59805,37.3196c.558.1653,1.1667.3232,1.8317.474q.99765.2208,2.1098.395,1.116.1668,2.3051.2693,1.192.10245,2.4141.1006a21.50427,21.50427,0,0,0,3.3798-.2335,10.26014,10.26014,0,0,0,2.4875-.6751,4.08413,4.08413,0,0,0,1.5384-1.088,2.2413,2.2413,0,0,0,.5259-1.465,2.78537,2.78537,0,0,0-.1577-.9588,2.283,2.283,0,0,0-.4979-.7972,3.80772,3.80772,0,0,0-.8755-.6787,9.43875,9.43875,0,0,0-1.2962-.6139q-.761-.3018-1.7566-.5998c-.665-.201-1.4164-.4094-2.2525-.6319q-1.3611-.3555-2.585-.7218-1.2231-.361-2.2636-.7828a12.58535,12.58535,0,0,1-1.877-.9407,6.26145,6.26145,0,0,1-1.4127-1.1816,4.59722,4.59722,0,0,1-.8791-1.5046,5.28549,5.28549,0,0,1-.2765-1.9068,5.14542,5.14542,0,0,1,.3288-1.7558,4.96689,4.96689,0,0,1,.9115-1.5011,6.37232,6.37232,0,0,1,1.482-1.2245,9.6665,9.6665,0,0,1,2.0462-.9084,15.26029,15.26029,0,0,1,2.5997-.5673,23.043,23.043,0,0,1,3.1486-.1974q1.2966,0,2.4499.0897c.7703.0644,1.4956.1471,2.1754.2585q1.0233.1671,1.8957.3986a6.91016,6.91016,0,0,1,1.1404.359v2.826c-.0733-.025-.6445-.1974-1.2401-.3553-.5973-.1616-1.2304-.298-1.901-.4167-.6689-.1149-1.3847-.2047-2.1417-.2728q-1.1385-.10245-2.4442-.1006a19.07284,19.07284,0,0,0-3.0133.2083,8.19654,8.19654,0,0,0-2.1662.6212,3.37416,3.37416,0,0,0-1.3132,1.0161,2.30832,2.30832,0,0,0-.4415,1.3971,3.5736,3.5736,0,0,0,.1128.937,2.12354,2.12354,0,0,0,.402.7792,3.25511,3.25511,0,0,0,.7815.6823,7.68482,7.68482,0,0,0,1.2437.6283q.7497.3126,1.7941.6322c.697.2154,1.5105.4417,2.4385.6858q1.52445.404,2.816.7793c.8605.2476,1.6421.5134,2.3409.7899a11.53956,11.53956,0,0,1,1.8468.9086,5.43733,5.43733,0,0,1,1.33,1.1346,4.2882,4.2882,0,0,1,.7892,1.4615,5.90429,5.90429,0,0,1,.2347,1.9034,5.14123,5.14123,0,0,1-.34,1.7808,5.00652,5.00652,0,0,1-.9638,1.544,6.83986,6.83986,0,0,1-1.5969,1.2749,10.36477,10.36477,0,0,1-2.2317.9588,17.55168,17.55168,0,0,1-2.8801.6032,27.3894,27.3894,0,0,1-3.5412.2084q-1.2795,0-2.4911-.0864-1.20915-.0915-2.3089-.2512-1.0962-.1668-2.0498-.3915a15.42416,15.42416,0,0,1-1.7057-.5098Z"/><path class="cls-1" d="M27.02525,21.8563l.0143,16.2874,8.3328-8.1393-8.3471-8.1481Z"/></svg>