<?xml version="1.0" encoding="UTF-8"?>
<svg id="Ebene_1" data-name="Ebene 1" xmlns="http://www.w3.org/2000/svg" viewBox="0 0 44 44">
  <defs>
    <style>
      .cls-1 {
        fill-rule: evenodd;
      }

      .cls-1, .cls-2 {
        fill: #00f300;
      }

      .cls-3 {
        fill: #fff;
      }

      .cls-4 {
        fill: #010101;
      }
    </style>
  </defs>
  <g>
    <path d="M22.00098,39.07543c-.75781,0-1.46191-.40527-1.83984-1.05859L2.96094,8.21801c-.28223-.49121-.35645-1.06396-.20801-1.61182,.14746-.54785,.50098-1.00537,.99316-1.28809,.32031-.18457,.68457-.28174,1.05469-.28223H39.2002c.56641,.00098,1.09961,.22266,1.5,.62451,.40137,.40234,.62109,.93604,.62012,1.50391-.00098,.36963-.09863,.73438-.28223,1.05518l-17.19922,29.79834c-.37793,.65234-1.08203,1.05762-1.83594,1.05762h-.00195Z"/>
    <path class="cls-2" d="M39.19798,5.66072c.40067,.00065,.77709,.15729,1.05995,.44106,.28285,.28377,.43827,.6607,.43762,1.06138-.00042,.26098-.06936,.51853-.19816,.7427l-17.19859,29.79758c-.26742,.46094-.76457,.74728-1.30015,.74728-.53288,0-1.03002-.28634-1.29604-.74486L3.50384,7.90799c-.41205-.71716-.16383-1.63583,.55332-2.04788,.2263-.13002,.48387-.19897,.74284-.19939H39.19798m.00202-1.25H4.8c-.47926,.00078-.95,.12679-1.36556,.36555-1.31689,.75663-1.77107,2.43756-1.01444,3.75445l17.2,29.8c.49202,.84809,1.39824,1.37,2.37865,1.37h.00271c.98034,0,1.88666-.52196,2.37865-1.37L41.57999,8.53072c.23877-.41555,.36478-.88629,.36555-1.36555,.00246-1.51878-1.22677-2.75199-2.74555-2.75445h0Z"/>
  </g>
  <path class="cls-1" d="M18.5,15.60072c0,.24742-.20058,.448-.448,.448h-6.25c-.24742,.00012-.4481-.20035-.44822-.44778s.20035-.4481,.44778-.44822h1.03044v-2.68c-.00012-.24742,.20035-.4481,.44778-.44822s.4481,.20035,.44822,.44778v2.68044h1.04v-5.8c-.00012-.24742,.20035-.4481,.44778-.44822s.4481,.20035,.44822,.44778v2.14044l1.08-.599c.2165-.12012,.48938-.042,.6095,.1745,.12012,.2165,.04199,.48938-.1745,.6095l-1.5,.833-.0163,.00805v2.63h2.39l.00007-.00007c.24742,0,.448,.20058,.448,.448l-.00077,.00402Zm4.26-.496c-.22546,.62508-.84938,1.01472-1.51,.943-.463,0-1.55,0-1.55-1.08-.02039-.34972,.17289-.67701,.489-.828,.33609-.13529,.69864-.19207,1.06-.166,.21147,.00013,.42277,.01165,.633,.0345v-1.09h-1.79c-.24742-.00012-.4479-.2008-.44778-.44822,.00012-.24725,.20053-.44765,.44778-.44778h1.79v-.921h-1.79c-.24742-.00012-.4479-.2008-.44778-.44822,.00012-.24725,.20053-.44765,.44778-.44778h1.79v-.86c-.00012-.24742,.20035-.4481,.44778-.44822,.24742-.00012,.4481,.20035,.44822,.44778v.86044h1.38c.24742,.00012,.4479,.2008,.44778,.44822-.00012,.24725-.20053,.44765-.44778,.44778h-1.38v.921h1.38c.24742,.00012,.4479,.2008,.44778,.44822-.00012,.24725-.20053,.44765-.44778,.44778h-1.38v1.25c.57176,.15256,1.11771,.38913,1.62,.702v-.00006c.21014,.13062,.27462,.40686,.144,.617s-.40686,.27462-.617,.144h0c-.36575-.2277-.75888-.40814-1.17-.537,0,0,.005,.01056,.005,.01056Zm-.845-.112c0-.09002-.07298-.163-.163-.163h-1.03c-.09002,0-.163,.07298-.163,.163s.07298,.163,.163,.163h1.03c.09002,0,.163-.07298,.163-.163h0Zm10.9-.467l-.00048-.00208c-.13431-.20751-.41131-.26702-.619-.133l-.283,.183v-3.24c.00006-.2471-.09605-.48453-.268-.662l-.012-.0135c-.07509-.07535-.1623-.13754-.258-.184l-.00488-.00257-.0306-.0137-.0151-.00653-.0211-.0083-.0258-.00977-.011-.00384-.0362-.0115-.00086-.00024c-.08795-.02621-.17923-.03952-.271-.0395l-.0162,.00079c-.24761,.00365-.48404,.10375-.659,.279l-1.22,1.22v-2.52c.00012-.24742-.20035-.4481-.44778-.44822-.24742-.00012-.4481,.20035-.44822,.44778v3.42044l-.782,.781,.606-1.95c.07388-.23614-.05766-.48745-.2938-.56133-.01842-.00576-.03719-.01033-.0562-.01367l-1.03-.181c-.24354-.04299-.47584,.11949-.519,.363-.00449,.02586-.00677,.05205-.00683,.0783,.00048,.21713,.15626,.4028,.37,.441,0,0,.263,.0465,.526,.0928-.228,.733-.995,3.19-.995,3.19l-.00061,.00226-.00378,.0145-.00611,.0253-.0025,.0129-.00421,.03-.00116,.00842c-.0011,.0135-.002,.027-.002,.0404,.00005,.01373,.0008,.02745,.00226,.0411l.00086,.00665,.0047,.0325,.00256,.0121,.00629,.0263,.00409,.0142,.00879,.0247,.00488,.0135c.00464,.0114,.01,.0226,.0156,.0338l.00788,.014,.0126,.0212,.00873,.0132,.0167,.0229,.00739,.00928c.01804,.02174,.03806,.04176,.0598,.0598l.00769,.006,.0253,.0186,.011,.00738,.0239,.014,.0126,.007,.0261,.0122,.0239,.00952,.0216,.00763,.00171,.00055,.0326,.00842,.0114,.00281,.0446,.00653h.00086c.04072,.00384,.08177,.00203,.122-.00537l.00531-.00086,.0199-.00494,.023-.00562,.0014-.00061c.04736-.01461,.09196-.03698,.132-.0662l.019-.014,.00977-.00867,.0241-.0217,.0014-.00141,1.43-1.43v1.56c-.00012,.24742,.20035,.4481,.44778,.44822,.24742,.00012,.4481-.20035,.44822-.44778v-2.45044l1.85-1.85c.01111-.0111,.0262-.01729,.0419-.0172l.0113,.0011,.00354,.00116,.00763,.00251,.00281,.0014,.00739,.004,.00054,.00055c.01585,.01093,.02531,.02895,.0253,.0482v4.06c.0002,.24742,.20095,.44783,.44837,.44763,.08608-.00007,.17031-.02494,.24263-.07163l.974-.629c.2075-.13431,.26702-.41131,.133-.619,0,0,.01075-.00235,.01075-.00235Zm-15.1,5.22c-.05484-.18979-.15388-.36388-.289-.508-.17099-.18834-.39241-.32369-.638-.39-.4275-.11946-.88627-.03215-1.24,.236-.17144,.13206-.30749,.30453-.396,.502-.06115,.12547-.09716,.2617-.106,.401-.0048,.02334-.00675,.04719-.0058,.071v.46c0,.0179,.0058,.0356,.0058,.0472,.01544,.19606,.08048,.38498,.189,.549,.0956,.14746,.22011,.27401,.366,.372,.07731,.05791,.16295,.10376,.254,.136,.0118,.00586,.0237,.00586,.0356,.0117l.732,.284c.01628,.00667,.03206,.01453,.0472,.0235,.03956,.01666,.07554,.04076,.106,.071,.04944,.04469,.08954,.09873,.118,.159,.03102,.0546,.05109,.11472,.0591,.177v.679c0,.0119-.0058,.0296-.0058,.0414-.00709,.03226-.01696,.06384-.0295,.0944-.0332,.10005-.09997,.18555-.189,.242-.08583,.06264-.18877,.09753-.295,.1-.10418,.01333-.21002-.00088-.307-.0412-.08648-.03386-.16192-.09097-.218-.165-.06609-.08487-.10511-.18766-.112-.295v-.319h-.809v.378c.00819,.11471,.03204,.22776,.0709,.336,.06905,.21952,.20292,.413,.384,.555,.21807,.18533,.48802,.29882,.773,.325,.21575,.02534,.43443-.00098,.638-.0768,.19551-.05816,.3726-.166,.514-.313,.16181-.14517,.27874-.33357,.337-.543,.02621-.09864,.04395-.19934,.053-.301,0-.0118,0-.0238,.006-.0296v-.685c-.00491-.01108-.00698-.02322-.006-.0353-.01196-.15171-.05197-.29989-.118-.437-.06255-.13726-.15317-.25989-.266-.36-.08849-.08939-.18997-.1649-.301-.224-.0886-.0414-.177-.0709-.266-.112l-.0356-.0177-.614-.23-.0353-.0176c-.03422-.01977-.06595-.04357-.0945-.0709-.04887-.04521-.08888-.09913-.118-.159-.03396-.06196-.05412-.13052-.0591-.201-.00419-.00925-.00617-.01935-.0058-.0295v-.348c.00134-.00994,.00328-.01979,.0058-.0295,.00013-.03802,.0061-.07579,.0177-.112,.02726-.10126,.0901-.18931,.177-.248,.10843-.09138,.2487-.13599,.39-.124,.09875,.00509,.19451,.03561,.278,.0886,.0857,.05289,.15522,.1283,.201,.218,.02263,.05865,.03648,.12031,.0411,.183,.00485,.00903,.00694,.01929,.006,.0295v.289h.809v-.348c-.00478-.01724-.00673-.03514-.0058-.053-.00728-.08014-.02317-.15927-.0474-.236,0,0-.0016-.00021-.0016-.00021Zm1.17-.177h.962v4.66h.809v-4.66h.957v-.72h-2.73s.002,.72,.002,.72Zm6.32-.218c.14861,.18321,.23729,.40769,.254,.643v3.03c.00137,.01598-.00067,.03207-.006,.0472-.0139,.15784-.05589,.31193-.124,.455-.12361,.26668-.33656,.48175-.602,.608-.19492,.10157-.41225,.15247-.632,.148-.22363,.00818-.44545-.04288-.643-.148-.17788-.08794-.33347-.21514-.455-.372-.13316-.15803-.21911-.35038-.248-.555-.00868-.04896-.01459-.09837-.0177-.148,.00093-.01395-.00104-.02795-.0058-.0411v-2.96c.00474-.01319,.00672-.02721,.0058-.0412,.06628-.62952,.56106-1.12846,1.19-1.2,.22966-.03213,.46374-.00366,.679,.0826,.24095,.08934,.4503,.24757,.602,.455,0,0,.0027-.0035,.0027-.0035Zm-.555,.697c-.01172-.08422-.0419-.16481-.0884-.236-.06809-.09549-.16582-.1658-.278-.2-.11511-.04502-.24219-.04918-.36-.0118-.10507,.02956-.19815,.0915-.266,.177-.04687,.05485-.08102,.11939-.1,.189-.01152,.03209-.01751,.0659-.0177,.1-.00436,.0092-.00644,.01932-.00605,.0295v2.88c0,.0119,.00605,.0295,.00605,.0414,.01125,.10168,.04768,.19895,.106,.283,.07061,.09326,.17071,.15987,.284,.189,.11346,.03653,.23582,.03449,.348-.0058,.09979-.03361,.18791-.09502,.254-.177,.04829-.05846,.0825-.12723,.1-.201,.01158-.03013,.01758-.06212,.0177-.0944v-2.96s.0004-.0029,.0004-.0029Zm4.9-.0709c.00469,.01933,.00671,.03922,.006,.0591v.915c-.00427,.15104-.04474,.29885-.118,.431-.09204,.19186-.23227,.35655-.407,.478-.16486,.11831-.35478,.19701-.555,.23-.04468,.01125-.09014,.01911-.136,.0235h-.602v2.12h-.803v-5.38h1.37c.0198-.00131,.03967,.00072,.0588,.006,.14658,.01142,.29022,.04725,.425,.106,.19484,.08169,.36557,.2118,.496,.378,.09346,.11419,.16561,.24426,.213,.384,.02323,.08341,.04093,.16826,.053,.254,0,0-.0008-.0046-.0008-.0046Zm-.75,.0944c0-.0177-.00605-.0412-.00605-.0588-.01335-.0927-.05449-.17917-.118-.248-.06797-.07721-.15583-.13428-.254-.165-.04265-.01127-.08611-.01919-.13-.0237h-.555v1.82h.555c.09008-.00682,.1772-.03522,.254-.0828,.07279-.04338,.13362-.10421,.177-.177,.04265-.06549,.06899-.14024,.0768-.218v-.844s.00025-.0027,.00025-.0027Z"/>
  <g>
    <path class="cls-3" d="M41.5,20.80072c0,1.60163-1.29837,2.9-2.9,2.9s-2.9-1.29837-2.9-2.9,1.29837-2.9,2.9-2.9c1.59935,.00549,2.89452,1.30065,2.9,2.9Zm-2.9-3.84c1.37519,0,2.49-1.11481,2.49-2.49h0V3.97072c.00058-1.37519-1.11377-2.49047-2.48896-2.49104-1.37519-.00058-2.49047,1.11377-2.49104,2.48896V14.47072c0,1.37519,1.11481,2.49,2.49,2.49h0Z"/>
    <path class="cls-4" d="M38.6,23.70072c-1.60163,0-2.9-1.29838-2.9-2.9s1.29837-2.9,2.9-2.9,2.9,1.29838,2.9,2.9c-.00549,1.59935-1.30066,2.89451-2.9,2.9Zm0-4.81c-1.04934,0-1.9,.85066-1.9,1.9s.85066,1.9,1.9,1.9,1.9-.85066,1.9-1.9-.85066-1.9-1.9-1.9h0Zm0-1.94c-1.37519,0-2.49-1.11481-2.49-2.49h0V3.96072c-.00058-1.37519,1.11377-2.49047,2.48896-2.49104,1.37519-.00058,2.49047,1.11377,2.49104,2.48896V14.46072c0,1.37519-1.11481,2.49-2.49,2.49h0Zm0-14.5c-.8229,0-1.49,.66709-1.49,1.49h0V14.44072c.00043,.8229,.66788,1.48965,1.49078,1.48922,.8223-.00043,1.48879-.66692,1.48922-1.48922V3.94072c0-.8229-.6671-1.49-1.49-1.49h0Z"/>
  </g>
</svg>