<?xml version="1.0" encoding="UTF-8"?>
<svg id="Ebene_1" data-name="Ebene 1" xmlns="http://www.w3.org/2000/svg" viewBox="0 0 44 44">
  <defs>
    <style>
      .cls-1, .cls-2 {
        fill: #00f300;
      }

      .cls-1, .cls-3 {
        fill-rule: evenodd;
      }
    </style>
  </defs>
  <path class="cls-2" d="M41.495,20.70524L23.295,2.50524c-.71715-.7105-1.87285-.7105-2.59,0L2.505,20.70524c-.7105,.71715-.7105,1.87285,0,2.59l18.2,18.2c.71715,.7105,1.87285,.7105,2.59,0l18.2-18.2c.7105-.71715,.7105-1.87285,0-2.59"/>
  <path class="cls-1" d="M41.095,21.10524L22.895,2.90524c-.52614-.52111-1.37386-.52111-1.9,0L2.795,21.10524c-.52111,.52614-.52111,1.37386,0,1.9l18.2,18.2c.52614,.52111,1.37386,.52111,1.9,0l18.2-18.2c.52111-.52614,.52111-1.37386,0-1.9"/>
  <path class="cls-3" d="M40.595,21.60524L22.395,3.40524c-.23848-.23602-.62252-.23602-.861,0L3.334,21.60524c-.23711,.23803-.23711,.62297,0,.861l18.2,18.2c.23803,.23711,.62297,.23711,.861,0l18.2-18.2c.23776-.23712,.23828-.62208,.00116-.85984l-.00116-.00116"/>
  <path class="cls-2" d="M18.2,13.90048c.314,0,2.27,3.97,2.27,3.97,.314,.704,.505,1.69-1.13,.588v11.4c-.00109,.14866-.12134,.26891-.27,.27h-1.73c-.14866-.00109-.26891-.12134-.27-.27v-11.4c-1.64,1.11-1.45,.116-1.13-.588,0,0,1.95-3.97,2.27-3.97,0,0-.01,0-.01,0Zm7.56,16.2c.314,0,2.27-3.97,2.27-3.97,.314-.704,.505-1.69-1.13-.588V14.14248c-.00109-.14866-.12134-.26891-.27-.27h-1.73c-.14866,.00109-.26891,.12134-.27,.27v11.4c-1.64-1.11-1.45-.116-1.13,.588-.00006,0,1.95,3.97,2.27,3.97,0,0-.01,0-.01,0Z"/>
</svg>