<svg xmlns="http://www.w3.org/2000/svg" viewBox="0 0 134 66"><defs><style>.cls-1{fill:none;stroke:#fff;stroke-miterlimit:10;stroke-width:4.5px;}.cls-2{fill:#fff;}</style></defs><g id="E105_Oel_min"><path class="cls-1" d="M73.767,51.496a3.98131,3.98131,0,0,0-2.56182-.86744c-3.936,0-3.936,4.5-7.872,4.5-3.936,0-3.936-4.5-7.87208-4.5-3.93706,0-3.93706,4.5-7.87412,4.5-3.93493,0-3.93493-4.5-7.86986-4.5-3.93834,0-3.93834,4.5-7.87669,4.5-3.94105,0-3.94105-4.5-7.88211-4.5a3.98933,3.98933,0,0,0-2.562.86505"/><path class="cls-2" d="M92.18105,60V50.98415q0-.4383.01461-.92919.01534-.4909.0599-.95112c-.12564.29805-.26736.60778-.42223.9292-.15778.32142-.30389.59609-.44122.824L88.04788,56.349H86.96527l-3.33108-5.4919c-.07305-.11981-.149-.24983-.22792-.39155s-.15779-.28782-.23376-.4383c-.07889-.15049-.15487-.30389-.23084-.46168-.076-.15487-.1461-.30973-.21039-.46168.02923.32142.04968.64284.06429.96134.01169.32142.019.62677.019.919V60H81.17094V47H83.0644l3.74747,6.24579q.206.34186.37694.69689t.32.732c.0935-.2513.19869-.49528.31557-.73489a7.21325,7.21325,0,0,1,.39447-.69836L91.96628,47h1.86278V60Z"/><path class="cls-2" d="M98.15627,60V47h1.68746V60Z"/><path class="cls-2" d="M112.903,60l-5.78119-8.77478c-.19285-.28928-.39154-.60778-.59316-.95842-.20454-.34772-.39155-.70858-.564-1.07968.01461.18117.02776.36525.03945.5508s.02045.36963.02776.55226.01315.35794.01607.52742.00438.32726.00438.47336V60h-1.648V47h1.80142l5.78118,8.77478c.09351.1461.18847.29951.2849.45876s.19431.32434.29366.49381c.09935.1724.19577.34626.2922.5245.0935.17825.18555.358.27321.53911q-.02192-.263-.03945-.53911c-.01169-.18408-.02192-.36671-.02922-.54495-.00731-.18116-.01169-.35356-.01461-.523-.00292-.16655-.00438-.32434-.00438-.47044V47h1.65239V60Z"/><path class="cls-2" d="M112.83784,34.16216a3.83784,3.83784,0,0,1-7.67568,0C105.16216,32.04258,109,24,109,24S112.83784,32.04258,112.83784,34.16216Z"/><polyline class="cls-1" points="99.662 15.747 78 40 38 40 38 19 68.678 19 73.381 23.421 105.237 14.119 110.429 19.332"/><polygon class="cls-2" points="61 6 61 10 57 10 57 19 52 19 52 10 48 10 48 6 61 6"/><path class="cls-2" d="M39.97739,25.17818,18.82261,19.39146l3.655-12.73484,17.49975,4.896ZM23.47756,16.08709,35.8125,19.39146v-4.575L24.632,11.96553Z"/></g></svg>