<svg xmlns="http://www.w3.org/2000/svg" viewBox="0 0 134 66"><defs><style>.cls-1{fill:#fff;fill-rule:evenodd;}.cls-2{fill:none;stroke:#fff;stroke-width:3.01223px;}</style></defs><g id="E157_ESP"><path class="cls-1" d="M97.26088,48.51175c-4.88314,1.889-10.88679,3.76261-15.76992,5.46329-1.64557.574-2.02673,1.393-1.97162,2.45687.052.88172,2.06194,2.34666,2.86865,2.84109,2.01142,1.24451,4.27542,3.42126,7.06141,4.727H80.421c-2.07418-.99959-3.49932-2.63138-5.95926-4.2295-1.73282-1.12664-3.89732-3.1503-3.89732-4.19735,0-1.29808.46382-2.57474,4.18664-3.80241,5.41277-1.78793,8.70238-2.86559,13.51816-4.63056,3.063-1.12511,4.05193-1.28278,4.05193-2.79364,0-.84345-1.32259-2.15837-2.936-3.42584-.91847-.72406-1.9104-1.68384-3.32482-2.9207h5.68525c2.391,1.25216,3.26206,1.74813,6.55166,3.71669a4.27157,4.27157,0,0,1,2.41248,3.3386C100.70968,46.29061,99.76673,47.54277,97.26088,48.51175ZM44.22149,53.975c-1.64863.574-2.02979,1.393-1.97009,2.45687.04745.88172,2.05734,2.34666,2.86712,2.84109,2.00683,1.24451,4.27236,3.42126,7.0614,4.727H43.153c-2.08643-.99959-3.50851-2.63138-5.96079-4.2295-1.73589-1.12664-3.90191-3.1503-3.90191-4.19735,0-1.29808.46535-2.57474,4.18816-3.80241,5.41584-1.78793,8.70239-2.86559,13.51663-4.63056,3.06459-1.12511,4.05652-1.28278,4.05652-2.79364,0-.84345-1.32564-2.15837-2.93906-3.42584-.91846-.72406-1.90733-1.68384-3.32175-2.9207H54.473c2.39564,1.25216,3.26511,1.74813,6.55472,3.71669a4.28526,4.28526,0,0,1,2.41248,3.3386c0,1.23532-.946,2.48748-3.4534,3.45646C55.10827,50.40071,49.1,52.27436,44.22149,53.975Z"/><path class="cls-1" d="M95.906,9.18385l-.83342,3.31234H91.69477l3.88674,2.59472V33.04825A1.89428,1.89428,0,0,1,93.75469,35H86.62722a1.89428,1.89428,0,0,1-1.82682-1.95175V30.90147H55.19959v2.14678A1.90149,1.90149,0,0,1,53.37278,35H46.24683a1.90174,1.90174,0,0,1-1.82834-1.95175V15.09091l3.88674-2.59472H44.9289L44.094,9.18385h5.04012c.49517-.7161,3.82275-5.27933,6.43118-6.20874C56.84053,2.5226,59.50838,2,68.903,2h2.194c9.39309,0,12.06247.5226,13.33926.97511,2.39513.91265,5.75775,5.32961,6.40528,6.20874ZM88.09446,12.164V10.75622c-1.5099-2.22448-3.77247-4.29964-4.70035-4.66074-1.44287-.51193-5.60234-.78314-12.29711-.78314H68.903c-6.6963,0-10.85425.27121-12.35805.806-.89437.31844-3.03962,2.15287-4.63942,4.60132V14l-1.4581.97207-2.92686,1.9548v1.55561h9.69172v3.18436H47.52057V31.68766h4.57694V27.58913h35.805v4.09853H92.481V21.66684H82.78771V18.48248H92.481V16.92687l-2.92839-1.9548L88.09446,14Z"/><path class="cls-2" d="M50.93735,12.40424H89.08409"/></g></svg>