<svg xmlns="http://www.w3.org/2000/svg" viewBox="0 0 134 66"><defs><style>.cls-1{fill:#fff;}</style></defs><g id="E168_handsfree_available"><g id="V2"><path class="cls-1" d="M67.02158,7h-.0018a25.91436,25.91436,0,1,0,.0018,0ZM59.899,35.75592a7.08014,7.08014,0,1,1,7.06123,7.33557A7.25439,7.25439,0,0,1,59.899,35.75592ZM55.15764,47.76584l3.44726-3.01479a14.20463,14.20463,0,0,0,16.72658,0l3.43114,3.00051c.81255.78337,1.20135,1.40435,1.187,1.89863a1.01854,1.01854,0,0,1-.41657.76106l-.04658.04728a1.09122,1.09122,0,0,1-.10751.09458,21.42252,21.42252,0,0,1-24.80454.00714.60941.60941,0,0,1-.12721-.10082l-.052-.05086a1.03112,1.03112,0,0,1-.40582-.75838C53.9769,49.155,54.36212,48.53582,55.15764,47.76584ZM67.03777,11.49152A21.5998,21.5998,0,0,1,86.609,24.13851a.87945.87945,0,0,1,.018.88639A1.78611,1.78611,0,0,1,85.29974,26H48.738a1.78609,1.78609,0,0,1-1.32723-.9751.89389.89389,0,0,1,.02428-.89939l.00719-.01435A21.59439,21.59439,0,0,1,67.03777,11.49152ZM81.24094,33.15329V31.85716l5.57793.00855c.80154,0,1.55959,0,1.57734,1.60093a21.71328,21.71328,0,0,1-2.26259,9.24315l-.087.18819-.00089.0018c-.36748.81127-.88853,1.27678-1.42821,1.27678a1.02392,1.02392,0,0,1-.63378-.23321l-4.45152-3.94919A14.35335,14.35335,0,0,0,81.24094,33.15329ZM52.70809,31.85716l-.00532,1.292a14.4793,14.4793,0,0,0,1.70531,6.81328l-4.41077,3.91675c-.72376.56235-1.537.12825-2.07826-1.02426l-.09213-.19821a21.63375,21.63375,0,0,1-2.2581-9.18154c.02215-1.60948.78134-1.60948,1.58483-1.60948Z"/><path class="cls-1" d="M112.91809,53.15522s-5.71829-11.36326-9.0173-13.78254-4.32536-5.49835-5.13179-9.53047.32119-3.37232-1.85546-6.74464,0-3.299,0-3.299,3.46831,1.24629,4.0548,4.61861,2.8258,3.186,2.8258,3.186,3.2272.52913,2.72426-7.09878c0,0,2.55118-.73366,3.18528,2.85a7.21892,7.21892,0,0,0,.87613,2.78939s.54886.22824.54886-.77764.021-1.32021.021-1.32021,2.78712-.1886,2.66139,3.24815a1.55332,1.55332,0,0,0,.75441,1.25735c.71249.33529,1.38308.54485,1.34117,2.26322s-.20956,9.7235-.20956,9.7235,2.26323,1.71837,1.13161,5.28086A30.43632,30.43632,0,0,1,112.91809,53.15522Z"/><path class="cls-1" d="M21.08191,53.15522S26.8002,41.792,30.09921,39.37268s4.32536-5.49835,5.13179-9.53047-.32119-3.37232,1.85546-6.74464,0-3.299,0-3.299-3.46831,1.24629-4.0548,4.61861-2.8258,3.186-2.8258,3.186-3.2272.52913-2.72426-7.09878c0,0-2.55118-.73366-3.18528,2.85a7.21892,7.21892,0,0,1-.87613,2.78939s-.54886.22824-.54886-.77764-.021-1.32021-.021-1.32021-2.78712-.1886-2.66139,3.24815a1.55332,1.55332,0,0,1-.75441,1.25735c-.71249.33529-1.38308.54485-1.34117,2.26322s.20956,9.7235.20956,9.7235-2.26323,1.71837-1.13161,5.28086A30.43632,30.43632,0,0,0,21.08191,53.15522Z"/></g></g></svg>