<?xml version="1.0" encoding="UTF-8"?>
<svg id="Ebene_1" data-name="Ebene 1" xmlns="http://www.w3.org/2000/svg" viewBox="0 0 134 66">
  <defs>
    <style>
      .cls-1 {
        fill: #fff;
        fill-rule: evenodd;
      }

      .cls-2 {
        fill: none;
        stroke: #fff;
        stroke-width: 4.5px;
      }
    </style>
  </defs>
  <g id="E30F_Sitz_eingeklappt" data-name="E30F Sitz eingeklappt">
    <g id="Version_5" data-name="Version 5">
      <path class="cls-2" d="m30.85,63.56c-1.95.03-3.67-1.26-4.19-3.14l-1.42-7.86c0-1.99,2.53-3.37,4.9-3.37h7.25s2.91,0,2.91,0c4.34.09,8.64.78,12.79,2.05,5.56,1.66,11.33,2.51,17.13,2.53.31,0,.63,0,.94,0,.21-.02.42.06.56.22-.06.24-.19.47-.36.65l-.06.06-3.07,6.57c-.8,1.42-2.3,2.3-3.93,2.3H30.85Z"/>
      <path class="cls-2" d="m69.61,45.51c-.95,1.01-2.54,1.05-3.55.09,0,0,0,0,0,0l-2.9-2.48c-2.23-4.72-4.9-9.22-7.98-13.43-1.98-2.77-4.12-5.42-6.39-7.94-2.17-2-2.5-5.31-.77-7.7l1.32-1.76c1.16-1.19,3.06-1.23,4.28-.1,3.87,3.42,7.4,7.2,10.56,11.29,3.75,4.58,6.91,9.6,9.41,14.96.45.86.36,1.9-.25,2.66l-3.72,4.41Z"/>
      <path class="cls-1" d="m41.03,14.6c-.37.46-.92.75-1.51.79-.55.03-1.09-.17-1.49-.55-1.52-1.33-2.78-2.4-3.98-3.41-1.14-.96-2.22-1.88-3.41-2.92-.88-.75-1-2.08-.25-2.97.06-.07.12-.14.19-.2l.19-.22c4-4.74,9.03-4.93,14.53-.55.74.72.86,1.86.29,2.71-1.93,2.88-4.06,6.53-4.29,6.93-.08.14-.18.27-.28.4Z"/>
      <path class="cls-1" d="m103.2,14.65c-1.88-1.9-4.31-3.17-6.94-3.64v-6.95c5.17.43,9.08,1.82,12.18,5.31l3.56-3.12v11.75h-11.5l2.7-3.35Z"/>
      <path class="cls-1" d="m81.73,14.65c1.88-1.9,4.31-3.17,6.94-3.64v-6.95c-5.17.43-9.08,1.82-12.18,5.31l-3.49-3.12v11.75h11.43l-2.7-3.35Z"/>
    </g>
  </g>
</svg>