<?xml version="1.0" encoding="UTF-8"?>
<svg id="Ebene_1" data-name="Ebene 1" xmlns="http://www.w3.org/2000/svg" viewBox="0 0 134 66">
  <defs>
    <style>
      .cls-1 {
        fill: #fff;
      }
    </style>
  </defs>
  <path class="cls-1" d="m44.7,64.81c-1.58,0-3.15-.78-4.07-2.15l-3.7-5.9c-1.06-2.46.71-5.17,3.02-6.17l6.79-2.93c3.58-1.54,6.69-1.89,9.7-2.23,3.45-.39,7.01-.79,11.82-2.86.26-.11.28-.12.54-.21.65-.23,1.34-.13,1.9.28.57.42.93,1.14.9,1.83l.1,5.91c-.05,1.99-1.17,3.71-2.86,4.44l-22.36,9.64c-.57.24-1.17.35-1.77.35Zm-4.77-9.44l3.46,5.48c.38.56,1.18.82,1.8.56l22.34-9.63c.5-.22.85-.8.87-1.42l-.07-4.27c-4.63,1.83-8.13,2.22-11.52,2.6-2.9.33-5.64.64-8.76,1.98l-6.79,2.93c-.81.35-1.45,1.22-1.32,1.75Zm29.95-9.9s0,0,0,0c0,0,0,0,0,0Zm-1.59-1.03s0,.07,0,.11v-.11Z"/>
  <path class="cls-1" d="m61.68,41.34c-1.48,0-2.34-.86-2.77-1.48l-1.37-2.17-.05-.36c-.38-2.92-1.29-6.43-2.72-10.43-.82-2.31-1.76-4.52-2.78-6.58-1.47-2.57-.73-6.01,1.72-7.76l1.33-1.02c1.87-1.24,4.31-.77,5.52.99,1.88,2.74,3.77,6.35,5.32,10.17,1.88,4.63,3.24,9.6,3.62,13.29.2,1.3-.37,2.64-1.49,3.41l-.41.21-4.13,1.38c-.67.25-1.26.36-1.77.36h0Zm-.02-3.3s.19.02.64-.15l.07-.02,3.83-1.28c.03-.07.02-.15.02-.18-.36-3.48-1.63-8.11-3.4-12.47-1.46-3.6-3.23-6.99-4.98-9.54-.2-.28-.6-.36-.89-.17l-1.28.99c-1.14.81-1.46,2.36-.77,3.55,1.13,2.25,2.12,4.59,2.99,7.03,1.44,4.05,2.4,7.67,2.83,10.74l.95,1.5h0Z"/>
  <path class="cls-1" d="m48.89,12.77c-.19,0-.38-.02-.57-.06-.75-.16-1.4-.62-1.81-1.27-.57-.84-1.07-1.57-1.55-2.25l-.09-.13c-.49-.71-.96-1.38-1.47-2.14-.91-1.36-.54-3.05.87-4.02l.16-.11c3.64-2.51,7.41-1.69,10.34,2.24.83,1.13.62,2.81-.49,3.77-1.39,1.2-3,2.78-3.31,3.09-.15.15-.29.26-.44.36-.5.35-1.07.52-1.65.52h0Zm-2.5-7.32c.4.59.79,1.14,1.19,1.72l.09.13c.41.59.84,1.2,1.32,1.92.58-.56,1.72-1.66,2.81-2.62-2.2-2.68-4.03-2.06-5.41-1.14h0Zm5.74.85h0s0,0,0,0Z"/>
  <path class="cls-1" d="m80.65,62.79c3.88-4.11,5.93-9.48,5.77-15.13-.09-3.17-.89-6.2-2.28-8.94l-5.2,2.18c1.14,2.11,1.79,4.46,1.86,6.92.12,4.15-1.38,8.09-4.23,11.11-.37.39-.76.76-1.17,1.11l3.67,4.27c.55-.48,1.08-.98,1.59-1.51Z"/>
  <path class="cls-1" d="m95.43,27.14h-21.03c-.48,0-.96-.12-1.38-.36-.66-.37-1.14-.97-1.34-1.7-.21-.73-.11-1.49.25-2.15l10.52-18.78c.26-.46.63-.83,1.09-1.08,1.36-.76,3.08-.28,3.84,1.09l10.51,18.78c.23.41.36.89.36,1.38,0,1.56-1.27,2.82-2.82,2.82Zm-10.52-21.24l-10.23,18.27,20.47-.02s-10.24-18.24-10.24-18.24Z"/>
  <rect class="cls-1" x="83.42" y="10.72" width="3" height="7.5"/>
  <rect class="cls-1" x="83.42" y="19.72" width="3" height="3"/>
  <path class="cls-1" d="m73.01,56.25v9.71s10.5,0,10.5,0c0,0-10.5-9.71-10.5-9.71Z"/>
</svg>