<svg xmlns="http://www.w3.org/2000/svg" viewBox="0 0 134 66"><defs><style>.cls-1{fill:#fff;fill-rule:evenodd;}</style></defs><g id="E348_PreCrash"><path id="V2" class="cls-1" d="M95.63105,46.90814l-.02244-.018-2.78327-5.16252c3.72-6.77264,3.64519-14.95636-1.0759-21.292-.2888-.42946-.606-.84695-.93674-1.257L92.749,15.89259A29.059,29.059,0,0,1,97.88461,23.397,21.92544,21.92544,0,0,1,95.63105,46.90814ZM79.99983,25.29587a4.23418,4.23418,0,0,0-1.15521-1.845l6.28781-6.08729,1.60413,1.71785-6.67538,6.4554A2.36633,2.36633,0,0,0,79.99983,25.29587ZM66.99925,9.05113A34.86753,34.86753,0,0,0,53.023,11.93466l-3.86965-1.72833a39.95347,39.95347,0,0,1,35.68875,0l-3.86965,1.72833A34.85856,34.85856,0,0,0,66.99925,9.05113ZM76.07781,22.146a4.15223,4.15223,0,0,1-2.92094-1.22554,4.23475,4.23475,0,0,1,0-5.92568,4.08829,4.08829,0,0,1,5.83739,0,4.23851,4.23851,0,0,1,0,5.92568A4.14446,4.14446,0,0,1,76.07781,22.146ZM61.85319,35.69424q1.9842.40178,3.9729.78261l6.44941,6.4a6.73283,6.73283,0,0,1-4.4293.7048q-3.38032-.633-6.75617-1.3243a2.6232,2.6232,0,0,0-1.872.32172q-3.13343,1.87422-6.2474,3.81428a3.82667,3.82667,0,0,1-2.20717.56564,3.785,3.785,0,0,1-2.13235-.79758A3.92871,3.92871,0,0,1,47.31582,44.273a1.23115,1.23115,0,0,1,.01646-.77663,1.19326,1.19326,0,0,1,.48782-.612q5.42066-3.42522,10.952-6.67088A4.42347,4.42347,0,0,1,61.85319,35.69424ZM74.122,41.40594l6.23244,6.192-1.63106,1.68642L72.2755,42.87688a3.708,3.708,0,0,0,.38158-.22A6.72588,6.72588,0,0,0,74.122,41.40594ZM69.7526,27.40876A5.13819,5.13819,0,0,1,71.88794,24.422a4.989,4.989,0,0,1,3.56438-.73473l1.07441.18556a2.66165,2.66165,0,0,1,2.07847,1.8615,2.76073,2.76073,0,0,1,.03741,1.459Q77.19037,32.95736,75.60047,38.678A6.96036,6.96036,0,0,1,74.122,41.40594l-6.406-6.36113C68.41483,32.50545,69.09718,29.96758,69.7526,27.40876ZM41.17466,41.72766,38.3884,46.89018l-.01946.018A21.92246,21.92246,0,0,1,36.11539,23.397a29.09036,29.09036,0,0,1,5.1311-7.50437l1.93782,3.28606c-.3322.41-.64794.8275-.93524,1.257C37.52947,26.7713,37.45316,34.955,41.17466,41.72766Zm25.8216,13.68742h.003a34.0173,34.0173,0,0,0,13.48541-2.72492l5.5471,2.57678L85.303,55.65A39.59086,39.59086,0,0,1,66.99925,60h-.003a39.59086,39.59086,0,0,1-18.30377-4.35l-.72874-.38307,5.5471-2.57678A34.04407,34.04407,0,0,0,66.99626,55.41508Z"/></g></svg>