<svg xmlns="http://www.w3.org/2000/svg" viewBox="0 0 134 66"><defs><style>.cls-1{fill:none;stroke:#fff;stroke-miterlimit:10;stroke-width:3.52501px;}.cls-2{fill:#fff;}</style></defs><g id="E358_ADA_MKE"><g id="V2"><path class="cls-1" d="M108.091,34.96516c0,3.56273-24.62336,14.02-45.35883,14.02-16.29972,0-24.2992-4.76536-31.21221-8.85062-1.88129-1.11174-6.37082.514-6.37082-3.04871s27.41668-7.52393,36.28707-7.52393C82.38771,29.56191,108.091,34.14814,108.091,34.96516Z"/><path class="cls-2" d="M56.82266,48.81481c1.86141.11037,3.82518.17029,5.90905.17029a53.73239,53.73239,0,0,0,6.4278-.41293A20.32174,20.32174,0,0,0,82.964,30.978c-3.47672-.40408-7.10306-.75672-10.74319-1.0097a9.71777,9.71777,0,0,1-19.38283.04356c-3.48656.31782-7.1887.78944-10.71956,1.367A20.469,20.469,0,0,0,56.82266,48.81481Z"/><path class="cls-1" d="M25.14918,28.05726c4.74206-4.74206,15.33561-13.24243,36.28707-13.24243s42.3349,10.543,47.88476,15.40282"/></g></g></svg>