<svg xmlns="http://www.w3.org/2000/svg" viewBox="0 0 134 66"><g id="E35A_LGI_Pannenfahrzeug"><path d="M34,65a2.73428,2.73428,0,0,1-2-.72728,3.1749,3.1749,0,0,1-1.27273-2.54545,3.42524,3.42524,0,0,1,.36364-1.45454L64.36363,2.63636A3.37932,3.37932,0,0,1,67.09091,1a2.99962,2.99962,0,0,1,2.72727,1.63636l33.09091,57.45455a2.702,2.702,0,0,1,.36364,1.63636,3.58971,3.58971,0,0,1-1.09091,2.54546,2.73433,2.73433,0,0,1-2,.72727Z" fill="#fff"/><path d="M34,64.09091a2.06458,2.06458,0,0,1-1.45455-.54545,2.23778,2.23778,0,0,1-.90909-1.81819A1.96037,1.96037,0,0,1,32,60.45455L65.09091,3.18182a2.37879,2.37879,0,0,1,4,0l33.09091,57.45454a2.58424,2.58424,0,0,1,.36364,1.09091,2.52472,2.52472,0,0,1-.90909,1.81818,2.41784,2.41784,0,0,1-1.45455.54545Z" fill="red"/><polygon points="41.818 57.182 67.091 13.545 92.364 57.182 41.818 57.182" fill="#fff"/><line x1="59.81818" y1="42.48024" x2="53.86536" y2="42.48024" fill="none" stroke="#000" stroke-miterlimit="10" stroke-width="1.36364"/><line x1="80.40776" y1="42.48024" x2="74.36673" y2="42.48024" fill="none" stroke="#000" stroke-miterlimit="10" stroke-width="1.36364"/><path d="M67.14062,35.382l.56861.00031c4.73022,0,6.06079.2401,6.4436.38732a9.38771,9.38771,0,0,1,2.624,2.74555V39.964l.60717.40481,1.6687,1.11244v5.089l-.01,1.88248v.61143H76.1936v-1.975l-1.36352,0-15.37866-.00032-1.36353,0v1.9751H55.23877V48.4453L55.229,46.57721V41.48089l1.66871-1.11243.60717-.40481V38.51478a9.344,9.344,0,0,1,2.63452-2.7496c.37207-.14312,1.70264-.38323,6.43287-.38323h.56835m.00074-1.36364h-.56909c-1.51709,0-5.6897,0-6.92237.47414-1.51733.569-3.50854,3.60346-3.50854,3.60346v1.13794L53.86548,40.7511v5.82611l.00976,1.87519v1.0268a.95109.95109,0,0,0,.94825.94828h3.67968a.95093.95093,0,0,0,.94825-.94828V48.4524l15.37866.00032v1.02679a.95108.95108,0,0,0,.94824.94828H79.458a.95092.95092,0,0,0,.94824-.94828V48.45272l.01-1.8752v-5.8261l-2.27588-1.51725V38.09623s-1.99145-3.0345-3.50879-3.60347c-1.23266-.47414-5.405-.47414-6.92236-.47414l-.56787-.00031Z"/><polyline points="56.802 37.754 56.71 37.754 53.957 37.754 53.865 37.754 54.15 39.082 54.242 39.082 56.138 39.082"/><line x1="77.47772" y1="39.36664" x2="56.8023" y2="39.36664" fill="none" stroke="#000" stroke-miterlimit="10" stroke-width="1.36364"/><polyline points="78.141 39.082 80.038 39.082 80.13 39.082 80.415 37.754 80.323 37.754 77.57 37.754 77.478 37.754"/><path d="M67.178,45.72606l4.585,7.96083H62.58252L67.178,45.72606m.00122-3.021a.67574.67574,0,0,0-.54541.32727L59.97925,54.55962a.6847.6847,0,0,0-.07276.2909.63538.63538,0,0,0,.2544.5091.54722.54722,0,0,0,.40015.14545H73.79736a.54631.54631,0,0,0,.39991-.14545.7179.7179,0,0,0,.21826-.5091.54023.54023,0,0,0-.07276-.32728L67.72461,43.03233a.59984.59984,0,0,0-.54541-.32727Z" fill="red"/><path d="M60.56155,56.41376a1.43126,1.43126,0,0,1-1.044-.41194,1.46781,1.46781,0,0,1-.52024-1.15056,1.60635,1.60635,0,0,1,.16868-.6978l6.68146-11.57493a1.58056,1.58056,0,0,1,1.33167-.783,1.50432,1.50432,0,0,1,1.36009.83452l6.59268,11.43821a1.3815,1.3815,0,0,1,.19354.783,1.6205,1.6205,0,0,1-.48473,1.15056,1.43293,1.43293,0,0,1-1.044.41194Z" fill="#fff"/><path d="M67.178,45.72606l4.585,7.96083H62.58252L67.178,45.72606m.00122-3.021a.67574.67574,0,0,0-.54541.32727L59.97925,54.55962a.6847.6847,0,0,0-.07276.2909.63538.63538,0,0,0,.2544.5091.54722.54722,0,0,0,.40015.14545H73.79736a.54631.54631,0,0,0,.39991-.14545.7179.7179,0,0,0,.21826-.5091.54023.54023,0,0,0-.07276-.32728L67.72461,43.03233a.59984.59984,0,0,0-.54541-.32727Z" fill="red"/></g></svg>