<svg xmlns="http://www.w3.org/2000/svg" viewBox="0 0 134 66"><defs><style>.cls-1{fill:none;stroke-linejoin:bevel;stroke-width:3.375px;}.cls-1,.cls-3{stroke:#fff;}.cls-2,.cls-3{fill:#fff;}.cls-3{stroke-miterlimit:10;stroke-width:0.75px;}</style></defs><g id="alt"><path class="cls-1" d="M58.00782,47.17013c-26.39283-.04244-40.5-19.26536-40.5-20.306v-.265l.15735-.235a51.1674,51.1674,0,0,1,80.68529,0l.15736.235v.265c0,1.04062-14.10541,20.26293-40.49824,20.30537Z"/><path class="cls-2" d="M58.00823,17.54513a9.375,9.375,0,1,0,9.37459,9.37542v-.00042a9.37485,9.37485,0,0,0-9.37461-9.375Z"/><path class="cls-3" d="M58.00782,10.32863a16.5915,16.5915,0,1,1-16.5915,16.5915h0a16.61028,16.61028,0,0,1,16.5915-16.5915m0-2.52045a19.112,19.112,0,1,0,19.112,19.112A19.11195,19.11195,0,0,0,58.00782,7.80818Z"/></g><g id="Icon_neu" data-name="Icon neu"><path class="cls-2" d="M100.99438,61.92786V41.0509h7.877a13.93971,13.93971,0,0,1,3.30468.35547,9.27938,9.27938,0,0,1,2.5586,1.01368,7.16974,7.16974,0,0,1,1.8789,1.59375,8.39457,8.39457,0,0,1,1.26367,2.09082,10.91082,10.91082,0,0,1,.71094,2.50586,17.597,17.597,0,0,1,.22168,2.84375,16.34259,16.34259,0,0,1-.23926,2.83984,11.30312,11.30312,0,0,1-.74218,2.52051,8.50633,8.50633,0,0,1-1.2959,2.10742,7.5425,7.5425,0,0,1-1.90039,1.6123,9.31269,9.31269,0,0,1-2.55469,1.03125,13.44611,13.44611,0,0,1-3.25586.36231Zm7.58789-3.35059a7.596,7.596,0,0,0,1.80567-.20019,5.38457,5.38457,0,0,0,1.47851-.5918,4.49379,4.49379,0,0,0,1.1543-.98145A5.26455,5.26455,0,0,0,113.844,55.424a8.09869,8.09869,0,0,0,.49317-1.77051,14.27132,14.27132,0,0,0,0-4.32812,8.09884,8.09884,0,0,0-.49317-1.77051,5.19353,5.19353,0,0,0-.82324-1.376,4.52108,4.52108,0,0,0-1.1543-.97851,5.38457,5.38457,0,0,0-1.47851-.5918,7.596,7.596,0,0,0-1.80567-.20019h-3.42773V58.57727Z"/></g></svg>