<?xml version="1.0" encoding="UTF-8"?>
<svg id="Layer_1" data-name="Layer 1" xmlns="http://www.w3.org/2000/svg" viewBox="0 0 134 66">
  <defs>
    <style>
      .cls-1 {
        fill: #fff;
      }
    </style>
  </defs>
  <g id="E4B3_experience_streering_wheel_hands_off" data-name="E4B3 experience streering wheel hands off">
    <path class="cls-1" d="M86.79527,22.80613c.00861,.02279-1.12275,2.1323-.81876,2.7998,.20266,.44501,.80001,2.68213,.816,2.80761,.39384,3.54777,1.86848,6.88879,4.22421,9.57063,.28771,.2956,.60477,.56114,.94629,.79249,1.57531,1.16741,2.85224,2.69079,3.72656,4.44579,1.27294,2.14306,4.292,7.59082,5.60742,9.97266l4.95562-9.9624c-.28857-.52588-.93164-1.70655-1.40625-2.64258-.68706-1.26718-.90787-2.73522-.624-4.14845,.05272-.6621,.08348-1.55346,.11865-2.52099,.05712-1.61352,.483-3.44164,.66029-4.80907,.00734-1.03515-.07845-2.06886-.25634-3.08863-.1875-.83496-.67641-.91113-1.53481-1.04004,.1845,.85914,.31788,2.45086,.00734,2.757-.16802,.1622-.40978,.2225-.63429,.15821-.39258-.11573-.4746-.47973-.54638-.80053-.00586-.02637-.61232-3.29314-.81885-3.99261-.33398-1.13598-.435-1.48169-1.872-1.6245,.13331,.66798,.32373,2.19672,.47607,2.99065,.26806,1.38867,.1275,1.63404-.10107,1.8296-.17891,.14922-.42285,.19395-.64307,.11791-.38087-.13697-.50391-.43359-.73682-1.7622-.15847-1.88787-.53549-3.75098-1.1235-5.55194-.3003-.3501-2.0085-.1545-3.10864,.26294,.54624,1.32181,.93901,2.70193,1.17059,4.11329,.02087,.19914-.05288,.39654-.19921,.5332-.3501,.32739-.98877,1.08326-1.55127,1.74975-.98438,1.16529-1.19678,1.40333-1.43262,1.51026-.34658,.18482-.75976,.19648-1.11621,.0315-.5874-.29736-.83837-.70327-1.7329-2.0152-.69364-.94164-1.5195-1.7783-2.45204-2.48413Z"/>
    <path class="cls-1" d="M44.731,25.29027c-.89454,1.31193-1.14552,1.71784-1.73292,2.0152-.35645,.16498-.76963,.15332-1.11621-.0315-.23585-.10693-.44825-.345-1.43262-1.51026-.5625-.6665-1.20117-1.42236-1.55127-1.74975-.14632-.13668-.22007-.33407-.19922-.5332,.23159-1.41136,.62435-2.79148,1.17058-4.11329-1.1001-.41748-2.80833-.61304-3.10863-.26294-.58802,1.80095-.96504,3.66406-1.1235,5.55193-.23292,1.32861-.35597,1.62524-.73682,1.7622-.22022,.07604-.46417,.03131-.64308-.11791-.22851-.19555-.36913-.441-.10107-1.8296,.15234-.79394,.34278-2.32268,.47607-2.99065-1.437,.14283-1.53809,.48854-1.872,1.6245-.20655,.69946-.813,3.96624-.81885,3.99261-.07177,.3208-.15381,.68481-.54639,.80053-.22451,.06429-.46626,.00399-.63427-.15821-.3105-.30615-.17724-1.89787,.00732-2.757-.85839,.12891-1.3473,.20508-1.5348,1.04004-.1779,1.01977-.26369,2.05348-.25635,3.08863,.17725,1.36743,.60316,3.19555,.6603,4.80908,.03514,.9675,.06591,1.85889,.11865,2.52099,.28386,1.41323,.06304,2.88126-.624,4.14845-.4746,.936-1.11766,2.1167-1.40625,2.64258l4.95562,9.9624c1.3155-2.38184,4.33448-7.8296,5.60742-9.97266,.87432-1.755,2.15126-3.27838,3.72657-4.44579,.34151-.23136,.65858-.49689,.94629-.79249,2.35572-2.68185,3.83035-6.02287,4.22419-9.57063,.01602-.12548,.61337-2.3626,.816-2.80761,.30399-.6675-.82736-2.77701-.81876-2.79979-.93254,.70583-1.75838,1.54249-2.45202,2.48413Z"/>
    <path class="cls-1" d="M74.99025,46.46099c-.47187,.22065-.98145,.34941-1.5015,.37939-.0645,.00732-.54199,.04248-1.02393,.05274l-.95214,.0249c-1.34619,.03514-3.22559,.07325-4.52197,.08349-1.1704,.01611-2.74218-.03222-3.999-.06885l-1.48388-.03954c-.48048-.01026-.95655-.04542-1.0298-.05274-.52124-.03149-1.03176-.16173-1.50439-.38379-.07617-.03516-.27538-.14355-.561-.30323,.03516,.41895,.07764,.79102,.1128,1.02246,.24408,1.76005,.74553,3.47466,1.48827,5.08887,.23877,.54932,.79248,1.76074,.9975,2.17676l.0923,.1905c.67821,1.38867,1.0869,2.22656,2.83593,2.28222,1.59228,.05274,2.43018,.05859,3.04101,.05859,.61232,0,1.44728,0,3.05421-.05859,1.67724-.06,2.10351-.78222,2.83593-2.28077l.09375-.1905c.20508-.41748,.75732-1.62891,.99609-2.17822,.7424-1.61423,1.24337-3.32886,1.48683-5.08887,.03514-.23143,.08057-.60938,.11865-1.02538-.29001,.16261-.49362,.27394-.57565,.31056Zm-2.89592,1.85568c-.24857,1.4672-.66122,2.90184-1.23018,4.27689-.58365,1.536-.91874,1.9605-2.16981,2.0191-.58932,.02938-1.2735,.03351-1.56948,.03351h-.14109c-.05301-.00138-.95645,.00282-1.70352-.03351-1.251-.05859-1.58615-.48312-2.16979-2.0191-.56895-1.37506-.9816-2.80968-1.23019-4.27689l-.03231-.28382h10.27868l-.03229,.28382Z"/>
    <path class="cls-1" d="M82.64691,32.68117l-.7793,3.59912c-.03075,.13915-.06,.2666-.07323,.37939,.05565,.14355,.13915,.34131,.2168,.52881,.0595,.14337,.1125,.27081,.15564,.37747,1.56381-.02601,4.94988-.07115,6.51498-.08991-1.67692-2.38329-2.78576-5.11895-3.2415-7.99722-.89841-.2205-1.81614-.4485-2.69925-.66825,.39745,.52245,.52595,1.20145,.34689,1.833-.02344,.11718-.20949,.97263-.44103,2.03759Z"/>
    <path class="cls-1" d="M40.24948,23.24794c.35211,.37482,.79752,.89841,1.3455,1.54779,.31065,.36777,.67905,.80384,.89594,1.04123,.3068-.36672,.58819-.75397,.84221-1.15905l.15847-.23274c.69093-.95263,1.5057-1.80896,2.4228-2.5464,.06876-.07699,.11938-.13541,.14118-.1657,.20863-.39288,.39688-.79625,.564-1.2085,.68087-1.66985,1.52839-3.26679,2.52969-4.76659,1.51583-2.45225,3.93852-4.20688,6.74121-4.88232,3.65971-.66878,7.37647-.97496,11.09628-.91407,3.72025-.06089,7.43742,.24528,11.09757,.91407,2.80217,.67657,5.22446,2.43092,6.74121,4.88232,1.00137,1.49979,1.84895,3.09673,2.52987,4.7666,.16837,.41693,.35955,.82429,.57267,1.22022,.0165,.02316,.06481,.07773,.1257,.14594,.92108,.73933,1.73923,1.59843,2.43273,2.5545l.15912,.23374c.25409,.40457,.535,.79167,.84083,1.15869,.2168-.23721,.58557-.67365,.89611-1.04133,.5475-.64883,.99253-1.17197,1.34574-1.54788-.21168-1.01124-.50415-2.00386-.8746-2.96832-1.72559-3.28569-3.99073-6.25825-6.70093-8.79365-2.0913-1.8567-4.58261-3.20613-7.28027-3.9434-3.91108-.78532-7.89787-1.12974-11.88568-1.02681-3.98736-.10301-7.97369,.24143-11.88428,1.02685-2.69765,.73726-5.18896,2.08667-7.28028,3.94335-2.70197,2.52672-4.96172,5.48808-6.6855,8.76123-.3763,.97447-.67304,1.97784-.88728,3.00024Z"/>
    <path class="cls-1" d="M94.4005,43.98949c-.766-1.55601-1.88445-2.91186-3.26641-3.95976-.00797,.05576-.00256,.1125-.01557,.16755-.85213,2.96052-2.05344,5.80914-3.57861,8.48583-1.28746,2.70924-3.23224,5.05336-5.65723,6.81885-.72981,.50906-1.58952,.7997-2.47851,.8379l-.42774,.05272c-.50684,.07086-2.91137,.1935-5.38623,.29517-.71925,1.15401-1.99989,1.83622-3.35888,1.78931-1.70947,.0615-2.59717,.0615-3.249,.0615h-.0015c-.65038,0-1.53954-.00734-3.2329-.0615-1.36132,.06364-2.64954-.6181-3.36255-1.77951-2.52686-.1035-4.86401-.23172-5.38842-.30496l-.42627-.05264c-.88899-.03829-1.7487-.32895-2.47853-.83799-2.42494-1.76553-4.36968-4.10964-5.65715-6.81885-1.52587-2.67652-2.72767-5.52518-3.58002-8.48585-.01263-.0542-.00723-.10986-.015-.16461-1.37986,1.04726-2.49667,2.40168-3.26184,3.9558-.05897,.09925-.13907,.23859-.20535,.35175,.189,.55262,.37774,1.08426,.55837,1.59192,.45264,1.27441,.84667,2.38037,1.09717,3.39111,2.33182,3.2095,5.0672,6.10537,8.13867,8.61621,2.28955,1.70947,3.05127,2.00684,8.47558,2.3115,4.33154,.24169,8.53857,.25341,9.33691,.25341,.80859,0,5.02294-.01171,9.35449-.25341,5.42285-.30469,6.1845-.60206,8.47412-2.3115,3.07191-2.51035,5.80734-5.40629,8.13867-8.61618,.2505-1.01075,.64454-2.11523,1.09717-3.39111,.18099-.50866,.37005-1.04123,.5595-1.59503-.06549-.11163-.14468-.2496-.20296-.34764Z"/>
    <path class="cls-1" d="M51.93509,37.24122c.09228-.21533,.1875-.4365,.24462-.583-.01318-.11278-.04248-.23583-.07031-.36621l-.78224-3.61083c-.23143-1.065-.41748-1.92042-.441-2.03321-.17917-.63259-.05108-1.3126,.34597-1.83665-.88184,.21918-1.79747,.44633-2.69412,.66613-.45564,2.87877-1.56459,5.61493-3.2418,7.9986,1.56931,.01877,4.9606,.06381,6.50172,.0888,.04211-.09997,.08889-.20974,.13715-.32364Z"/>
    <path class="cls-1" d="M66.68213,33.51027c.00929,.36357,.11933,.71742,.31787,1.02215,.42382-.61553,.42382-1.42876,0-2.04429-.19852,.30473-.30856,.65858-.31787,1.02214Z"/>
    <path class="cls-1" d="M68.70655,31.48589c-.42216,.00977-.83005,.15469-1.16373,.41346,.7001,.95991,.7001,2.26209,0,3.222,.65253,.53344,1.5849,.5526,2.25879,.04641-.7511-.97727-.7511-2.33749,0-3.31476-.32008-.22916-.70153-.35704-1.09506-.36711Z"/>
    <path class="cls-1" d="M65.29345,31.48589c-.39349,.01006-.77493,.13792-1.095,.36703,.7511,.97724,.7511,2.33743,0,3.31467,.67385,.50627,1.60626,.48715,2.25879-.04632-.70005-.95993-.70005-2.26207,0-3.222-.33373-.25873-.74163-.40361-1.16379-.41338Z"/>
    <ellipse class="cls-1" cx="63.64038" cy="33.51031" rx=".37134" ry="1.10137"/>
    <path class="cls-1" d="M61.9873,31.48589c-1.11805,0-2.02441,.90636-2.02441,2.02442s.90636,2.02441,2.02441,2.02441c.3935-.01005,.77494-.1379,1.095-.36703-.75108-.97728-.75108-2.33748,0-3.31476-.32007-.22913-.7015-.35698-1.095-.36703Z"/>
    <path class="cls-1" d="M81.54435,30.324c.0596-.45675-.12882-.66842-.53613-.89886-1.51858-.86171-3.10683-1.59438-4.74802-2.1903l-.91086-.29142c-1.0361-.16936-1.82272-.18402-2.9903-.28464,0,0-4.11849-.16187-5.35382-.16187-1.2356,0-5.35419,.16187-5.35419,.16187-1.16784,.10062-1.95419,.11528-2.99056,.28464l-.91059,.29142c-1.64121,.59586-3.22947,1.32853-4.74801,2.1903-.40742,.23044-.59565,.44211-.53586,.89886,.01209,.09321,.16699,.81802,.34562,1.73264,.32784,1.68056,.87414,3.85035,.95589,4.365,.03977,.20787,.02654,.42242-.03845,.62383-.1095,.29571-.19694,.51957-.31229,.77133-.12344,.21244-.11872,.47585,.01227,.68372,.87001,1.53284,1.81904,3.01947,2.84327,4.45386,.16507,.25653,.4015,.45923,.68024,.58319,.924,.47086,2.27086,1.26462,2.42862,1.3335,.5489,.22282,1.1393,.32505,1.73116,.29974,.41318,.01749,3.62055,.12039,5.89288,.12039,2.27197,0,5.47962-.1029,5.8926-.12039,.59184,.02531,1.18221-.07691,1.73109-.29974,.15792-.06885,1.50458-.8626,2.4285-1.3335,.27876-.12391,.51521-.32662,.68024-.58319,1.0243-1.4343,1.97328-2.92093,2.84307-4.45386,.13107-.20781,.13594-.4712,.01265-.68372-.11572-.25176-.20289-.47562-.31219-.77133-.0651-.20139-.07842-.41594-.03873-.62383,.08175-.51462,.62805-2.68441,.95591-4.365,.17864-.91461,.33354-1.63937,.34599-1.73264Zm-9.53165,5.96073c-.59719-.00199-1.17748-.19849-1.653-.55976-.99584,.76254-2.38423,.74431-3.3597-.04413-.97545,.7884-2.3638,.80663-3.35962,.04413-.47552,.36127-1.05581,.55777-1.653,.55976-1.53227,0-2.77441-1.24215-2.77441-2.77442s1.24215-2.77441,2.77441-2.77441c.59719,.00199,1.17748,.19849,1.653,.55976,.99582-.76251,2.38417-.74428,3.35962,.04411,.97545-.7884,2.3638-.80663,3.35962-.04413,.47552-.36127,1.05581-.55777,1.653-.55976,1.53227,0,2.77441,1.24215,2.77441,2.77442s-1.24215,2.77441-2.77441,2.77441l.00007,.00002Z"/>
    <ellipse class="cls-1" cx="70.35962" cy="33.51031" rx=".37134" ry="1.10137"/>
    <path class="cls-1" d="M72.0127,31.48589c-.3935,.01006-.77493,.13791-1.095,.36703,.75108,.97725,.75108,2.33742,0,3.31467,.32006,.22915,.70149,.35704,1.095,.36712,1.11805,0,2.02441-.90636,2.02441-2.02442s-.90636-2.02441-2.02441-2.02441Z"/>
  </g>
</svg>