<svg xmlns="http://www.w3.org/2000/svg" viewBox="0 0 134 66"><defs><style>.cls-1,.cls-2,.cls-4{fill:#fff;}.cls-1,.cls-3,.cls-4{stroke:#fff;stroke-miterlimit:10;}.cls-1,.cls-4{stroke-width:1.49998px;}.cls-1{fill-rule:evenodd;}.cls-3{fill:none;stroke-width:5.09993px;}</style></defs><g id="neu"><path class="cls-1" d="M102.69481,25.82767l-9.0885,4.382-.29083,5.47783-4.38443-3.018-8.91478,1.85779,6.31982-5.24008L82.4999,25.51649l6.25064.28668,3.72306-7.68988,1.27486,7.3906Z"/></g><g id="Ebene_1" data-name="Ebene 1"><path class="cls-2" d="M67.94785,9.06353a42.722,42.722,0,0,1-6.19134-.3034l-1.254,7.52364a22.89431,22.89431,0,0,0,7.44173,1.254,23.98752,23.98752,0,0,0,7.60559-1.254l-1.254-7.52364A45.032,45.032,0,0,1,67.94785,9.06353Z"/><path class="cls-2" d="M75.07987.00045V2.72676s1.79542,6.88861,2.22077,8.5413V.00045Z"/><path class="cls-2" d="M58.747.00045V11.26806c.42526-1.65269,2.22076-8.5413,2.22076-8.5413V.00045Z"/><path class="cls-2" d="M67.91306,54.0098a21.11874,21.11874,0,0,0-8.69565,1.65861L61.7253,64.446a19.88458,19.88458,0,0,1,6.18986-1.02574A20.99453,20.99453,0,0,1,74.26475,64.446l2.508-8.77763A21.993,21.993,0,0,0,67.91306,54.0098Z"/><polygon class="cls-2" points="58.716 63.192 58.716 65.998 59.834 65.998 58.716 63.192"/><polygon class="cls-2" points="77.269 65.998 77.269 63.192 76.151 65.998 77.269 65.998"/><path class="cls-3" d="M35.99665,12.92755V23.86028l32.01146,9.12224V38.9919"/><polygon class="cls-4" points="29.86 14.222 36.046 4.322 42.232 14.222 29.86 14.222"/><path class="cls-2" d="M79.37958,6.25208a47.288,47.288,0,0,1-.25989,7.77172,10.60776,10.60776,0,0,0-.44745,1.70252c-.32953,1.60669-.60162,2.43689-1.223,2.70245a26.56863,26.56863,0,0,1-7.40045,1.05091c-.10291,0-.91712-.00062-1.0719-.00184L68.34,19.479l-.34082.00068-.3407-.00068-.67163-.001c-.12012.001-.93427.00165-1.03754.00165a26.56636,26.56636,0,0,1-7.40008-1.05091c-.6214-.26556-.89356-1.09576-1.223-2.70245a10.6138,10.6138,0,0,0-.44738-1.70227A47.45862,47.45862,0,0,1,56.61963,6.223c.04-1.944.08758-4.05511.14038-6.223H53.1604c-.08759,3.60632-.14,6.14886-.14,6.14886s-.21289,7.39533.48791,9.14075c.50366,1.25592.45294,5.33118,3.897,6.55542a30.18308,30.18308,0,0,0,8.54407,1.23462h.00037c.10724,0,.96472-.00073,1.0719-.00177.21142,0,.87011.00177.9776.00177h.00006c.10748,0,.76611-.00177.9776-.00177.10718.001.96466.00177,1.0719.00177A30.18122,30.18122,0,0,0,78.5932,21.845c3.444-1.22424,3.39331-5.2995,3.897-6.55542.70081-1.74542.48792-9.14075.48792-9.14075S82.92566,3.60632,82.83807,0H79.2384C79.2915,2.17725,79.33936,4.29816,79.37958,6.25208Z"/><path class="cls-2" d="M81.88953,51.80957a19.10817,19.10817,0,0,0-2.34613-6.15338c-2.509-3.04688-10.89447-3.25653-10.89447-3.25653H67.34955s-8.3855.20965-10.89447,3.25653A19.10771,19.10771,0,0,0,54.109,51.80957c-.24066,1.32532-.48737,7.66748-.68506,14.18927H57.0257c.20611-6.75146.43518-12.44293.61779-13.50561a15.45981,15.45981,0,0,1,1.72254-4.6814c.99792-.85938,4.74273-1.71613,8.03406-1.8122h1.20166c3.22735.08759,7.03363.9599,8.03137,1.81348A15.38367,15.38367,0,0,1,78.347,52.45032c.18708,1.08667.41816,6.78784.62525,13.54852h3.60235C82.37689,59.47705,82.13019,53.13489,81.88953,51.80957Z"/></g></svg>