<svg id="Ebene_1" data-name="Ebene 1" xmlns="http://www.w3.org/2000/svg" viewBox="0 0 134 66"><defs><style>.cls-1{fill:#fff;}.cls-2{fill:#c1121c;}</style></defs><path class="cls-1" d="M55.03278,65a3.21272,3.21272,0,0,1-2.26494-.94131L35.90128,47.19213a3.21265,3.21265,0,0,1-.9381-2.26493V20.99275a3.21261,3.21261,0,0,1,.9381-2.26494L52.76784,1.86125a3.14836,3.14836,0,0,1,2.26494-.85939H78.96723a3.13233,3.13233,0,0,1,2.26493.85939L98.09872,18.72781a3.21265,3.21265,0,0,1,.9381,2.26494V44.9272a3.21269,3.21269,0,0,1-.9381,2.26493L81.23216,64.05869A3.21272,3.21272,0,0,1,78.96723,65Z"/><path class="cls-2" d="M96.36568,20.744,79.17786,3.55614H54.92214L37.73431,20.744V45.16032L54.92214,62.34815H79.17786L96.36568,45.16032Z"/><path class="cls-1" d="M83.35434,25.40235v6.82694h1.89548a1.86335,1.86335,0,0,0,1.9112-1.81424h0q.00105-.04062.00034-.08124v-3.036a1.86335,1.86335,0,0,0-1.8303-1.89582q-.0406-.00072-.08124.00034ZM80.31836,43.554V22.35031h4.93146a4.803,4.803,0,0,1,4.93145,4.67091q.00354.13024,0,.26055v3.036a4.803,4.803,0,0,1-4.67091,4.93146q-.13025.00352-.26055,0H83.35434v8.353h-3.036ZM70.086,38.62252a2.08825,2.08825,0,0,0,4.17649,0V27.23358a2.08825,2.08825,0,1,0-4.17649-.00873v.00873h0Zm-3.036,0V27.23358a5.12422,5.12422,0,1,1,10.23238,0V38.62252a5.12422,5.12422,0,1,1-10.23238,0ZM58.90587,43.554V25.40235h-3.5982v-3.036H65.54v3.036H61.9418V43.554ZM43.742,37.482h3.036v1.13729a2.08824,2.08824,0,0,0,2.08824,2.08824h.18955A2.08823,2.08823,0,0,0,51.144,38.61931v-2.281a2.08823,2.08823,0,0,0-1.30274-1.9276l-2.69865-1.09713A5.12421,5.12421,0,0,1,43.946,28.5588v-1.33a5.12422,5.12422,0,1,1,10.23238,0v1.1389h-3.036V27.2288a2.08824,2.08824,0,1,0-4.17648-.00241h0V28.5588A2.08826,2.08826,0,0,0,48.267,30.48641l2.69865,1.09874a5.12422,5.12422,0,0,1,3.19661,4.75476v2.281a5.12421,5.12421,0,0,1-5.12422,5.12421h-.18955a5.12422,5.12422,0,0,1-5.12422-5.12422h0"/></svg>