<?xml version="1.0" encoding="UTF-8"?>
<svg id="Ebene_1" data-name="Ebene 1" xmlns="http://www.w3.org/2000/svg" viewBox="0 0 134 66">
  <defs>
    <style>
      .cls-1 {
        fill: #fff;
      }

      .cls-2 {
        fill: rgba(255, 255, 255, .15);
        fill-rule: evenodd;
      }
    </style>
  </defs>
  <polygon class="cls-1" points="133.82322 51.88304 126.01699 51.88304 119.34174 41.62637 126.42388 41.64389 133.82322 51.88304"/>
  <polygon class="cls-1" points="120.8165 33.88444 114.28308 33.85364 108.44514 24.88351 114.3453 24.92963 120.8165 33.88444"/>
  <polygon class="cls-1" points="108.27386 16.52801 102.96783 16.46751 98.38584 9.42719 103.19486 9.49972 108.27386 16.52801"/>
  <polygon class="cls-1" points=".0738 51.88304 7.88003 51.88304 14.55528 41.62637 7.47313 41.64389 .0738 51.88304"/>
  <polygon class="cls-1" points="13.08051 33.88444 19.61394 33.85364 25.45188 24.88351 19.55171 24.92963 13.08051 33.88444"/>
  <polygon class="cls-1" points="25.62316 16.52801 30.92919 16.46751 35.51118 9.42719 30.70216 9.49972 25.62316 16.52801"/>
  <path class="cls-1" d="m89.39879,51.88306h4.65503c-16.4986-10.48938-20.44458-13.02222-23.82068-20.9859-.97955-2.31128-2.35553-8.67627-1.33008-13.75122h-2.53979c-1.0127,5.82581.61932,12.48962,1.56812,14.72729,3.42096,8.0694,7.54834,11.12817,21.46741,20.00983Z"/>
  <path class="cls-1" d="m31.49748,51.88306h2.51306c-.06635-.72943-.14191-1.4646-.22467-2.23151-.4834-4.4375-1.03027-9.46777.74121-17.12891,1.23267-5.33337,3.99847-10.70062,6.633-15.37671h-2.86737c-2.49963,4.52728-5.00452,9.63696-6.20117,14.81323-1.86719,8.07422-1.27051,13.55762-.79102,17.96289.073.67371.13672,1.31757.19696,1.961Z"/>
  <path class="cls-2" d="m91.72463,51.88304c-15.15887-9.64705-19.24081-12.47295-22.64218-20.49764-.9642-2.27463-2.46349-8.80034-1.4491-14.23948h-27.90932c-2.55219,4.57667-5.20233,9.85212-6.41482,15.09499-2.11309,9.13799-1.00562,14.72201-.55142,19.64213h58.96685Z"/>
  <path class="cls-1" d="m97.92574,23.60492l-18.92528.01421c-1.99823.0033-3.51143-.60526-3.37402-1.35691l2.10176-5.63444c.13742-.75165,1.46189-1.3585,2.95321-1.35311l14.12428.00003c1.49132.00539,2.92364.66636,3.19368,1.41103l3.0599,5.546c.27004.74467-1.13531,1.36992-3.13354,1.37321Zm-17.39121-6.96913l-1.44356,4.43717,18.38588-.01355-2.28379-4.41574-14.65853-.00788Z"/>
  <path class="cls-1" d="m97.57518,22.44635l-.00824,6.12128h-18.42084l-.00824-6.12128-3.51825-.008.00684,6.13348c0,1.43604,1.3786,2.53876,3.38098,2.53546h18.69818c2.00238.0033,3.38098-1.09943,3.38098-2.53546l.00684-6.13348-3.51825.008Z"/>
</svg>