<svg xmlns="http://www.w3.org/2000/svg" viewBox="0 0 44 44"><g id="d0_t5_cc-chn_1p0_2p1014_1s0"><polygon id="Rahmen" points="31.753 21.969 40.457 19.051 42 15.39 38.593 13.313 21.961 18.889 5.819 13.812 2.018 15.871 3.956 19.547 12.234 22.15 3.886 24.949 2 28.858 5.75 30.687 22.026 25.23 38.617 30.449 41.998 28.391 40.481 24.714 31.753 21.969" fill="#af3c2a" /><polygon id="Hintergrund" points="40.423 27.966 39.62 26.195 26.401 22.022 39.561 17.624 40.412 15.998 38.72 15.037 21.989 20.629 5.131 15.306 3.453 16.167 4.29 17.893 17.6 22.095 4.418 26.5 3.566 28.182 5.258 29.087 22.012 23.488 38.779 28.781 40.423 27.966" fill="#fff" /></g></svg>