<svg xmlns="http://www.w3.org/2000/svg" viewBox="0 0 44 44"><path d="m14.6 42a2 2 0 0 1-1.41-0.586l-10.5-10.5a2 2 0 0 1-0.584-1.41v-14.9a2 2 0 0 1 0.584-1.41l10.5-10.5a1.96 1.96 0 0 1 1.41-0.535h14.9a1.95 1.95 0 0 1 1.41 0.535l10.5 10.5a2 2 0 0 1 0.584 1.41v14.9a2 2 0 0 1-0.584 1.41l-10.5 10.5a2 2 0 0 1-1.41 0.586z" fill="#fff" /><path d="m40.3 14.4-10.7-10.7h-15.1l-10.7 10.7v15.2l10.7 10.7h15.1l10.7-10.7v-15.2z" fill="#c1121c" /><path d="m32.2 17.3v4.25h1.18a1.16 1.16 0 0 0 1.19-1.18v-1.89a1.16 1.16 0 0 0-1.19-1.18zm-1.89 11.3v-13.2h3.07a2.99 2.99 0 0 1 3.07 3.07v1.89a2.99 2.99 0 0 1-3.07 3.07h-1.18v5.2h-1.89zm-6.37-3.07a1.3 1.3 0 1 0 2.6 0v-7.09a1.3 1.3 0 1 0-2.6 0v7.09zm-1.89 0v-7.09a3.19 3.19 0 1 1 6.37 0v7.09a3.19 3.19 0 1 1-6.37 0zm-5.07 3.07v-11.3h-2.24v-1.89h6.37v1.89h-2.24v11.3zm-9.44-3.78h1.89v0.708a1.3 1.3 0 0 0 1.3 1.3h0.118a1.3 1.3 0 0 0 1.3-1.3v-1.42a1.3 1.3 0 0 0-0.811-1.2l-1.68-0.683a3.19 3.19 0 0 1-1.99-2.96v-0.828a3.19 3.19 0 1 1 6.37 0v0.709h-1.89v-0.709a1.3 1.3 0 1 0-2.6 0v0.828a1.3 1.3 0 0 0 0.81 1.2l1.68 0.684a3.19 3.19 0 0 1 1.99 2.96v1.42a3.19 3.19 0 0 1-3.19 3.19h-0.118a3.19 3.19 0 0 1-3.19-3.19" fill="#fff" /></svg>