<svg xmlns="http://www.w3.org/2000/svg" viewBox="0 0 44 44"><g id="d0_t15_cc-chn_1p0_2p1021_1s1"><path id="Hintergrund" d="M42,22A20,20,0,1,1,22,2,20,20,0,0,1,42,22Z" fill="#010101"/><path id="Rahmen" d="M22,2.66669A19.33331,19.33331,0,1,0,41.33331,22,19.33327,19.33327,0,0,0,22,2.66669ZM32.76782,10.103c.18146.16437.36957.32141.54334.49377L10.5968,33.31116c-.17236-.17371-.32941-.36182-.49377-.54328ZM9.59863,32.21167c-.157-.19037-.29541-.39569-.4436-.59326L31.61822,9.15491c.19764.14825.403.28668.59345.44372ZM33.82068,11.14819c.16559.1803.33642.35553.49377.54328l-22.62292,22.623c-.18781-.15735-.36316-.3283-.54352-.49395Zm.95593,1.142c.14954.19647.303.38977.4436.59326L12.88342,35.22021c-.20349-.14056-.39679-.29406-.59326-.4436ZM22,5.93542a15.988,15.988,0,0,1,9.01147,2.76569L8.70117,31.01147A16.06436,16.06436,0,0,1,22,5.93542Zm0,32.12916a15.96636,15.96636,0,0,1-8.46845-2.43165L35.63281,13.53137A16.0417,16.0417,0,0,1,22,38.06458Z" fill="#00f300"/><path id="Piktogramm" d="M29.44245,24.87653v3.67205l-2.22052-2.45587-.07879,5.76-2.24671.014.01178-5.77234-2.40631,2.453V24.87659l3.53583-4.14411ZM16.87831,28.707V22.43518a.99747.99747,0,0,1,.49878-.86389l8.42468-4.864c.753-.45453.64313-1.10456.64276-1.76874l-.00128-2.33563,2.098,2.50958h.06818l-.00068-3.3421L25.33015,7.95483l-3.40387,3.84693-.00293,3.31073,2.293-2.50958-.02911,2.27844a.33461.33461,0,0,1-.109.25445l.0404-.02331-8.68731,5.01562a1.54767,1.54767,0,0,0-.7602,1.15644h-.0155v8.00824a2.21356,2.21356,0,0,0,1.09381,1.9049l7.70618,4.42688.00976-2.56628L17.377,29.57086A.99755.99755,0,0,1,16.87831,28.707Z" fill="#00f300" stroke="#010101" stroke-miterlimit="10" stroke-width="0.5" fill-rule="evenodd"/></g></svg>