<svg xmlns="http://www.w3.org/2000/svg" viewBox="0 0 44 44"><g id="d0_t15_cc-chn_1p0_2p1020_1s1"><path id="Hintergrund" d="M42,22A20,20,0,1,1,22,2,20,20,0,0,1,42,22Z" fill="#010101"/><path id="Rahmen" d="M22,2.66669A19.33331,19.33331,0,1,0,41.33332,22,19.33333,19.33333,0,0,0,22,2.66669ZM5.93544,22A16.05773,16.05773,0,0,1,20.64009,6.00409l.21563,32.00268A16.05356,16.05356,0,0,1,5.93544,22ZM23.76637,37.96271l-.21527-31.949a16.0603,16.0603,0,0,1,.21527,31.949Z" fill="#00f300"/><path id="Piktogramm" d="M29.44245,24.87653v3.67205l-2.22052-2.45587-.07879,5.76-2.24671.014.01178-5.77234-2.40631,2.453V24.87659l3.53583-4.14411ZM16.87831,28.707V22.43518a.99747.99747,0,0,1,.49878-.86389l8.42468-4.864c.753-.45453.64313-1.10456.64276-1.76874l-.00128-2.33563,2.098,2.50958h.06818l-.00068-3.3421L25.33015,7.95483l-3.40387,3.84693-.00293,3.31073,2.293-2.50958-.02911,2.27844a.33461.33461,0,0,1-.109.25445l.0404-.02331-8.68731,5.01562a1.54767,1.54767,0,0,0-.7602,1.15644h-.0155v8.00824a2.21356,2.21356,0,0,0,1.09381,1.9049l7.70618,4.42688.00976-2.56628L17.377,29.57086A.99755.99755,0,0,1,16.87831,28.707Z" fill="#00f300" stroke="#010101" stroke-miterlimit="10" stroke-width="0.5" fill-rule="evenodd"/></g></svg>