<svg xmlns="http://www.w3.org/2000/svg" viewBox="0 0 44 44"><title>icid-danger_d0</title><g id="icid-danger_d0"><g id="Ebene_1-2" data-name="Ebene 1-2"><g id="Ebene_1-3" data-name="Ebene 1-3"><path d="M3.84,39.1a1.125,1.125,0,0,1-.8-.3,1.19211,1.19211,0,0,1-.5-1,1.148,1.148,0,0,1,.2-.7L20.94,5.6a1.29855,1.29855,0,0,1,1.79-.41,1.3362,1.3362,0,0,1,.41.41l18.2,31.6a1.42324,1.42324,0,0,1,.2.6,1.38969,1.38969,0,0,1-.5,1,1.31884,1.31884,0,0,1-.8.3Z" fill="#e52421"/><polygon points="8.14 35.3 22.04 11.3 35.94 35.3 8.14 35.3" fill="#fff"/></g></g><path d="M22.53,29.38l.21-2.18c.01-.16.03-.36.05-.58s.04-.47.07-.73.05-.54.07-.83.04-.57.06-.86.03-.57.05-.85c.01-.28.02-.54.02-.78V18.48H21.02v4.09c0,.24.01.5.02.78s.03.56.05.85.04.58.06.86c.02.29.05.56.07.83.02.26.05.51.07.73s.04.42.06.58l.21,2.18Z"/><polygon points="23.21 33.5 23.21 31.2 20.87 31.2 20.87 33.51 23.21 33.51 23.21 33.5"/></g></svg>