<svg xmlns="http://www.w3.org/2000/svg" viewBox="0 0 44 44"><title>icid-childonroad_d0</title><g id="icid-childonroad_d0"><g id="Ebene_1-2" data-name="Ebene 1-2"><path d="M3.84,39.1a1.125,1.125,0,0,1-.8-.3,1.19211,1.19211,0,0,1-.5-1,1.148,1.148,0,0,1,.2-.7L20.94,5.6a1.29855,1.29855,0,0,1,1.79-.41,1.3362,1.3362,0,0,1,.41.41l18.2,31.6a1.42324,1.42324,0,0,1,.2.6,1.38969,1.38969,0,0,1-.5,1,1.31884,1.31884,0,0,1-.8.3Z" fill="#e52421"/><polygon points="8.14 35.3 22.04 11.3 35.94 35.3 8.14 35.3" fill="#fff"/></g><path d="M29.84,31.5c-.2-.5-.6-.6-1.2-.8l-1.5-.7-1-2.5-.5-3.4,1.5.5.5.9a1.80571,1.80571,0,0,0,.5.6,1.99921,1.99921,0,0,0,1,.1l-1.2-2.5-2.4-.8-.5.4a2.33864,2.33864,0,0,1-1.3.2l-.5-.3-4.3,2.5a1.10129,1.10129,0,0,0,.8.5,1.40036,1.40036,0,0,0,1.1-.4l2.2-1.3.4,3.2-1.2,6.9a1.54319,1.54319,0,0,0,.9-.3c.3-.2.4-.4.6-1.2s1.1-5.3,1.1-5.3l1.2,2.6c.1.4.2.5.7.7l3.2,1.3A.99221.99221,0,0,0,29.84,31.5Z" fill-rule="evenodd"/><path d="M19.64,30.8h-.9l-.8-3h.9a4.979,4.979,0,0,0,.4.8.91173.91173,0,0,0,.7.4h.4l-.9-1.9-1.8-.5-.5.3h-.8l-.5-.2-2.8,2.6a.68861.68861,0,0,0,.6.3,1.08616,1.08616,0,0,0,.7-.3l1.4-1.2.2,6.4a.889.889,0,0,0,.7-.3,2.00579,2.00579,0,0,0,.2-.9V31.1l.8-.3.4.5s0,.2.4.3h2.6a.889.889,0,0,0-.3-.7C20.44,30.7,20.04,30.8,19.64,30.8Z" fill-rule="evenodd"/><path d="M16.54,26.2a1.20353,1.20353,0,0,0,1.2-1.2h0a1.20353,1.20353,0,0,0-1.2-1.2h0a1.20353,1.20353,0,0,0-1.2,1.2h0A1.307,1.307,0,0,0,16.54,26.2Z" fill-rule="evenodd"/><circle cx="24.14" cy="21.4" r="1.3"/></g></svg>