<svg xmlns="http://www.w3.org/2000/svg" viewBox="0 0 44 44"><title>icid-lowfriction_d0</title><g id="icid-lowfriction_d0"><g id="Ebene_1-2" data-name="Ebene 1-2"><path d="M3.83508,39.09545a1.13548,1.13548,0,0,1-.8-.3,1.2308,1.2308,0,0,1-.5-1,1.07829,1.07829,0,0,1,.2-.7l18.2-31.5a1.30833,1.30833,0,0,1,2.2,0l18.2,31.6a1.4214,1.4214,0,0,1,.2.6,1.38856,1.38856,0,0,1-.5,1,1.32985,1.32985,0,0,1-.8.3Z" fill="#e52421"/><polygon points="8.135 35.295 22.035 11.295 35.935 35.295 8.135 35.295" fill="#fff"/></g><path d="M17.90206,27.71761l-1.78344-.29676s-1.98213.59631-1.98213,1.61471,1.1497,1.88609,8.62159,2.16371c0,0,1.15252.02957,2.37314.06869s4.98619.01793,4.98619,1.34757a5.29306,5.29306,0,0,1-1.21754,2.06515l2.48486.01971s1.11348-2.39606-.07331-3.52439c-1.10243-1.04813-3.79927-.99678-4.46589-.99678a91.56635,91.56635,0,0,1-9.54283-.46467c-1.07235-.21943-1.28419-.39163-1.28419-.69815S16.65,28.212,17.90206,27.71761Z"/><path d="M22.98194,28.56677l1.67285.35053s-1.31387.408-1.6187.52628a2.68248,2.68248,0,0,0-.98033.70168,1.05284,1.05284,0,0,0,.55513,1.09791,7.36323,7.36323,0,0,1,1.54277.61872,2.62614,2.62614,0,0,1,1.32882,1.39739c.1543.521-.42782,1.14753-.63848,1.43622l-2.37512-.01618s.97815-.6475.97815-1.11127c0-.37137-.18671-.62175-1.01953-1.03265a3.64224,3.64224,0,0,1-1.728-1.38745L20.48365,30.09a2.88236,2.88236,0,0,1,1.41479-1.10134C22.88226,28.60735,22.98194,28.56677,22.98194,28.56677Z"/><path d="M16.87655,26.325a.62271.62271,0,0,0,.492.73039l.006.00114.40819.07225a.62271.62271,0,0,0,.71787-.51009l.001-.006.18-1.01662-1.62642-.27994Zm6.893,1.2201a.62272.62272,0,0,0,.492.7304l.006.00114.40819.07225a.62271.62271,0,0,0,.71786-.5101l.001-.006.17449-.98581L23.94269,26.567Zm2.66975-3.8643-1.08711-3.14721-6.00731-1.06334-2.10137,2.58283c-.24469.03612-.40465.08724-.45918.3953l-.28765,1.62506c-.06816.38508.07973.89578.30308.93532l9.11878,1.61408c.231.0409.5362-.38167.60572-.77445l.28765-1.62506a.464.464,0,0,0-.36991-.542Zm-8.18387-2.00461,1.32935-1.76632,5.39888.95563.64228,2.11532Z" fill-rule="evenodd"/></g></svg>