<svg xmlns="http://www.w3.org/2000/svg" viewBox="0 0 44 44"><title>icid-wind_d0</title><g id="icid-wind_d0"><g id="Ebene_1-2" data-name="Ebene 1-2"><path d="M3.83508,39.09545a1.13548,1.13548,0,0,1-.8-.3,1.2308,1.2308,0,0,1-.5-1,1.07829,1.07829,0,0,1,.2-.7l18.2-31.5a1.30833,1.30833,0,0,1,2.2,0l18.2,31.6a1.4214,1.4214,0,0,1,.2.6,1.38856,1.38856,0,0,1-.5,1,1.32985,1.32985,0,0,1-.8.3Z" fill="#e52421"/><polygon points="8.135 35.295 22.035 11.295 35.935 35.295 8.135 35.295" fill="#fff"/></g><path d="M17.411,22.63345c0,3.90557-.01426,11.78369-.01426,11.78369h-.62978L16.81537,21.87h.58133v.09688l4.0453-1.08465,8.69563,6.70423a.34691.34691,0,0,1,.20238.38878,5.45626,5.45626,0,0,1-.39616,1.16144,4.75547,4.75547,0,0,1-.92045,1.16267.45415.45415,0,0,1-.48444.04845L18.41408,26.1815s-.34086-1.2858-.90789-3.39668c-.01417-.05273-.0343-.10386-.05165-.15573Zm5.60531,5.09833a4.884,4.884,0,0,1,2.10515-3.67733c-.49534-.382-1.73169-1.344-1.73169-1.344s-.16436.11538-.27757.19745a5.03221,5.03221,0,0,0-2.07488,3.33343,3.47438,3.47438,0,0,0-.00723.66689s1.356.56484,1.98622.82351Zm4.06935,1.64712a7.84768,7.84768,0,0,1,.48318-1.40718,3.19332,3.19332,0,0,1,1.0186-1.20883c-.93274-.71908-1.59867-1.25956-1.59867-1.25956a1.18308,1.18308,0,0,0-.23166.11759,2.63346,2.63346,0,0,0-.57675.57588,6.264,6.264,0,0,0-.94927,2.06691,1.35882,1.35882,0,0,0-.03477.38852s1.33628.49922,1.88934.72662Zm-8.57469-3.68179a5.39487,5.39487,0,0,1,2.616-4.40846c-1.10651.29624-2.416.62047-3.53645.92045.296,1.10468.6316,2.41016.92045,3.488Zm11.685,2.27112c.009-.09722-.02931-.17208-.04791-.169a.53769.53769,0,0,0-.25816.12883,4.92443,4.92443,0,0,0-1.133,1.95813c-.0325.20233-.02482.24275.019.2942a.46139.46139,0,0,0,.2476-.12329,3.35589,3.35589,0,0,0,.77153-1.04829,4.59639,4.59639,0,0,0,.40092-1.04063Z"/></g></svg>