<svg xmlns="http://www.w3.org/2000/svg" viewBox="0 0 44 44"><title>icid-narrowlanes_d0</title><g id="icid-narrowlanes_d0"><g id="Ebene_1" data-name="Ebene 1"><g id="Ebene_1-2" data-name="Ebene 1"><path d="M3.85,39.1a1.1355,1.1355,0,0,1-.8-.3,1.23077,1.23077,0,0,1-.5-1,1.07822,1.07822,0,0,1,.2-.7L20.95,5.6a1.30833,1.30833,0,0,1,2.2,0l18.2,31.6a1.42132,1.42132,0,0,1,.2.6,1.38859,1.38859,0,0,1-.5,1,1.32984,1.32984,0,0,1-.8.3Z" fill="#e52421"/><polygon points="8.15 35.3 22.05 11.3 35.95 35.3 8.15 35.3" fill="#fff"/></g><polyline points="20.15 18.6 20.15 23.5 18.05 26.7 18.05 33.7" fill="none" stroke="#000" stroke-miterlimit="10" stroke-width="1.5"/><polyline points="23.95 18.6 23.95 23.5 26.05 26.7 26.05 33.7" fill="none" stroke="#000" stroke-miterlimit="10" stroke-width="1.5"/></g></g></svg>