<svg xmlns="http://www.w3.org/2000/svg" viewBox="0 0 44 44"><title>icid-roadworks_d0</title><g id="icid-roadworks_d0"><g id="Ebene_1-2" data-name="Ebene 1-2"><path d="M3.83508,39.09545a1.13548,1.13548,0,0,1-.8-.3,1.2308,1.2308,0,0,1-.5-1,1.07829,1.07829,0,0,1,.2-.7l18.2-31.5a1.30833,1.30833,0,0,1,2.2,0l18.2,31.6a1.4214,1.4214,0,0,1,.2.6,1.38856,1.38856,0,0,1-.5,1,1.32985,1.32985,0,0,1-.8.3Z" fill="#e52421"/><polygon points="8.135 35.295 22.035 11.295 35.935 35.295 8.135 35.295" fill="#fff"/></g><path d="M33.13875,33.64532q-.60775-.78765-1.21316-1.57711c-.79591-1.03524-1.58618-2.07488-2.38946-3.10437a1.75742,1.75742,0,0,0-2.76145-.06228c-.44609.51845-.88482,1.04324-1.325,1.56676a1.39961,1.39961,0,0,1-.50034.405c-.16283.07117-.33433.12313-.50354.1789a.81992.81992,0,0,0-.38876.24026q-1.008,1.19343-2.01486,2.38774a.40263.40263,0,0,0-.08664.19278.34616.34616,0,0,0,.38478.3978q2.63.00046,5.26.00016h3.52733q.87668,0,1.75335-.00043a.35375.35375,0,0,0,.37209-.32515A.42593.42593,0,0,0,33.13875,33.64532Z"/><path d="M24.72714,30.69715c.02737.0225.079.04648.10437.03545a1.0934,1.0934,0,0,0,.43283-.32638c-.04079-.03476-.07436-.064-.10856-.09241q-1.56587-1.30224-3.13277-2.60329a.15446.15446,0,0,1-.06773-.147c.01943-.23287.03228-.4663.04756-.69952q.07884-1.20381.15756-2.40762c.04422-.67909.0791-1.35893.134-2.03716a1.40784,1.40784,0,0,0-1.23646-1.56051q-.07-.0081-.14054-.00919c-1.05188-.01677-2.10425-.009-3.15635-.00212a.84462.84462,0,0,0-.77591.47836q-.50727.94944-1.00873,1.902a1.2039,1.2039,0,0,0-.12957.79837,1.24069,1.24069,0,0,0,.63821.88374l.37591-.70634.83366.68754.278-.52623-.83325-.68961c.2759-.52111.5462-1.03427.82153-1.54471a.14424.14424,0,0,1,.1094-.04675c.34725-.00351.69454-.00208,1.04182-.00208h.27l-1.964,3.70883,2.18545,1.15793,1.2925-2.43985.02.00927L20.7759,26.678l-.57682-.47534-.27628.52187c.02688.0246.04845.04614.07184.06546.21464.17735.42765.35674.64563.5299a.1881.1881,0,0,1,.083.19041,1.27349,1.27349,0,0,0,.30129,1.04549,1.22563,1.22563,0,0,0,.84076.41268l.04341-.59549c.27648.22767.53356.43888.79012.65072Q23.71261,29.86087,24.72714,30.69715Z"/><path d="M20.89578,29.67025a.60333.60333,0,0,0-.1021-.318c-.4389-.67336-.87421-1.34906-1.3132-2.02236a.33594.33594,0,0,0-.11817-.10809c-.4722-.25261-1.87355-.9921-2.107-1.11576-.02046.03625-2.84383,5.35352-3.31546,6.2575a1.40517,1.40517,0,0,0,.581,1.90036l.00807.00426,3.48984-6.59107c.02007.02717.97,1.49015,1.4324,2.20964a.29894.29894,0,0,1,.04178.1441q.056,1.43217.10669,2.86456a1.41164,1.41164,0,0,0,1.12749,1.34619,3.27837,3.27837,0,0,0,.33206.03492c0-.0728.00163-.12414-.00025-.17535C21.04122,33.61681,20.931,30.663,20.89578,29.67025Z"/><path d="M23.34579,21.46282a1.32,1.32,0,1,0-.00748-.00008Z"/></g></svg>