<svg xmlns="http://www.w3.org/2000/svg" viewBox="0 0 40 40"><g id="EA45_flag_uzbekistan"><rect y="7" width="40" height="26" fill="#1eb53a" /><rect y="7" width="40" height="13" fill="#0099b5" /><rect y="15.32" width="40" height="9.36" fill="#ce1126" /><rect y="15.84" width="40" height="8.32" fill="#fff" /><circle cx="6.1671" cy="11.23419" r="3.16485" fill="#fff" /><circle cx="7.22206" cy="11.23419" r="3.16485" fill="#0099b5" /><polygon points="13.272 13.57 13.13 13.133 12.988 13.57 12.528 13.57 12.9 13.841 12.758 14.278 13.13 14.008 13.502 14.278 13.36 13.841 13.732 13.57 13.272 13.57" fill="#fff" /><polygon points="10.709 13.57 10.567 13.133 10.425 13.57 9.965 13.57 10.337 13.841 10.195 14.278 10.567 14.008 10.939 14.278 10.797 13.841 11.169 13.57 10.709 13.57" fill="#fff" /><polygon points="8.146 13.57 8.004 13.133 7.862 13.57 7.402 13.57 7.774 13.841 7.632 14.278 8.004 14.008 8.376 14.278 8.234 13.841 8.606 13.57 8.146 13.57" fill="#fff" /><polygon points="13.13 10.601 12.988 11.039 12.528 11.039 12.9 11.309 12.758 11.746 13.13 11.476 13.502 11.746 13.36 11.309 13.732 11.039 13.272 11.039 13.13 10.601" fill="#fff" /><polygon points="10.567 10.601 10.425 11.039 9.965 11.039 10.337 11.309 10.195 11.746 10.567 11.476 10.939 11.746 10.797 11.309 11.169 11.039 10.709 11.039 10.567 10.601" fill="#fff" /><polygon points="15.835 13.57 15.693 13.133 15.55 13.57 15.091 13.57 15.463 13.841 15.321 14.278 15.693 14.008 16.065 14.278 15.923 13.841 16.295 13.57 15.835 13.57" fill="#fff" /><polygon points="15.693 10.601 15.551 11.039 15.091 11.039 15.463 11.309 15.321 11.746 15.693 11.476 16.065 11.746 15.923 11.309 16.295 11.039 15.835 11.039 15.693 10.601" fill="#fff" /><polygon points="13.13 8.069 12.988 8.507 12.528 8.507 12.9 8.777 12.758 9.214 13.13 8.944 13.502 9.214 13.36 8.777 13.732 8.507 13.272 8.507 13.13 8.069" fill="#fff" /><polygon points="15.693 8.069 15.55 8.507 15.091 8.507 15.463 8.777 15.321 9.214 15.693 8.944 16.065 9.214 15.923 8.777 16.295 8.507 15.835 8.507 15.693 8.069" fill="#fff" /><polygon points="18.398 13.57 18.255 13.133 18.113 13.57 17.654 13.57 18.026 13.841 17.883 14.278 18.256 14.008 18.628 14.278 18.485 13.841 18.858 13.57 18.398 13.57" fill="#fff" /><polygon points="18.255 10.601 18.113 11.039 17.654 11.039 18.026 11.309 17.883 11.746 18.256 11.476 18.628 11.746 18.485 11.309 18.858 11.039 18.398 11.039 18.255 10.601" fill="#fff" /><polygon points="18.026 8.777 17.883 9.214 18.256 8.944 18.628 9.214 18.485 8.777 18.858 8.507 18.398 8.507 18.255 8.069 18.113 8.507 17.654 8.507 18.026 8.777" fill="#fff" /></g></svg>