<svg xmlns="http://www.w3.org/2000/svg" xmlns:xlink="http://www.w3.org/1999/xlink" viewBox="0 0 44 44"><defs><linearGradient id="Hintergrund_weiss" x1="1.9998" y1="29.69681" x2="42.0002" y2="29.69681" gradientUnits="userSpaceOnUse"><stop offset="0" stop-color="#fff"/></linearGradient><linearGradient id="Rahmen_schwarz" x1="2" y1="29.55" x2="42" y2="29.55" gradientUnits="userSpaceOnUse"><stop offset="0" stop-color="#010101"/></linearGradient><linearGradient id="Beschriftung_schwarz" x1="7.53203" y1="30.05265" x2="37.20684" y2="30.05265" xlink:href="#Rahmen_schwarz"/></defs><title>speedlimit_school_work_usa_can_60</title><g id="speedlimit_school_work_usa_can_60"><rect id="Hintergrund_weiss-2" data-name="Hintergrund_weiss" x="1.9998" y="17.39363" width="40.00039" height="24.60637" rx="2.2107" fill="url(#Hintergrund_weiss)"/><path id="Rahmen_schwarz-2" data-name="Rahmen_schwarz" d="M39.8,18.1A1.15536,1.15536,0,0,1,41,19.3V39.8A1.15536,1.15536,0,0,1,39.8,41H4.2A1.15536,1.15536,0,0,1,3,39.8V19.3a1.15536,1.15536,0,0,1,1.2-1.2H39.8m0-1H4.2A2.21953,2.21953,0,0,0,2,19.3V39.8A2.21953,2.21953,0,0,0,4.2,42H39.8A2.21953,2.21953,0,0,0,42,39.8V19.3a2.21953,2.21953,0,0,0-2.2-2.2Z" fill="url(#Rahmen_schwarz)" stroke-width="0.5px" stroke="url(#Rahmen_schwarz)"/><path id="Beschriftung_schwarz-2" data-name="Beschriftung_schwarz" d="M21.032,33.54045a4.595,4.595,0,0,1-1.78809,3.71289,7.04838,7.04838,0,0,1-4.6123,1.46191,7.61056,7.61056,0,0,1-5.0498-1.71191A5.92265,5.92265,0,0,1,7.532,32.19084a10.58241,10.58241,0,0,1,3.2627-7.42578,10.84069,10.84069,0,0,1,7.88671-3.375v2.82519q-5.22508.82471-7.3496,4.8252a10.19186,10.19186,0,0,1,3.4248-.54981,6.9602,6.9602,0,0,1,4.5,1.42481A4.45089,4.45089,0,0,1,21.032,33.54045Zm-2.97559.02539a1.76668,1.76668,0,0,0-.9746-1.5625,4.89608,4.89608,0,0,0-2.54981-.58789,5.406,5.406,0,0,0-2.6123.51269,1.53065,1.53065,0,0,0-.8877,1.4375,1.753,1.753,0,0,0,.92481,1.6377,4.58006,4.58006,0,0,0,2.57519.66211,4.88669,4.88669,0,0,0,2.54981-.58789A1.73131,1.73131,0,0,0,18.05644,33.56584Zm19.1504-3.60059a9.99723,9.99723,0,0,1-1.8877,6.33789A6.07183,6.07183,0,0,1,30.282,38.71525a6.23785,6.23785,0,0,1-5.40039-2.77441,9.99033,9.99033,0,0,1-1.7002-5.92578,9.65606,9.65606,0,0,1,1.9004-6.3125,6.37062,6.37062,0,0,1,5.20019-2.3125,6.13677,6.13677,0,0,1,5.01172,2.36328A9.5655,9.5655,0,0,1,37.20684,29.96525Zm-2.97559.04981a7.21139,7.21139,0,0,0-1.03711-4.14942,3.33886,3.33886,0,0,0-2.91211-1.5,3.458,3.458,0,0,0-2.97559,1.5,7.01581,7.01581,0,0,0-1.07519,4.14942,7.12146,7.12146,0,0,0,1.07519,4.1875A3.44813,3.44813,0,0,0,30.282,35.71525a3.33,3.33,0,0,0,3.14941-1.875A7.99578,7.99578,0,0,0,34.23125,30.01506Z" fill="url(#Beschriftung_schwarz)"/></g></svg>