<svg xmlns="http://www.w3.org/2000/svg" viewBox="0 0 40 40"><defs><style>.cls-1{fill:none;stroke:#fff;stroke-width:1.2px;}</style></defs><g id="E054_phone_call"><path class="cls-1" d="M12.54,24.238c-3.96856-4.17456-8.81574-10.5229-8.98759-12.526-.19576-2.2819,2.90785-7.04713,3.96173-7.55928,1.055-.51215,7.697,6.10592,7.26793,7.27362s-1.253,1.43287-1.88925,2.60284c-.56337,1.0334.03642,2.37067,3.63282,6.23566.87065.93553,1.67643,1.75154,2.75421,2.75421,3.865,3.59641,5.20227,4.195,6.23567,3.63283,1.17-.63734,1.434-1.46019,2.60284-1.88925,1.16769-.43021,7.78576,6.2129,7.27361,7.26678-.51214,1.055-5.27852,4.15749-7.56041,3.96174-2.00307-.17072-8.35027-5.01789-12.526-8.9876C14.23917,25.98949,13.42429,25.16892,12.54,24.238Z"/></g></svg>