<svg xmlns="http://www.w3.org/2000/svg" viewBox="0 0 40 40"><g id="E07C_media_ami_usb"><path d="M24.00572,22.25326V18.98768h3.28191v3.26558ZM20.4964,11.95149l2.89854,5.02639-5.88263.03788ZM15.40359,24.18241a1.63279,1.63279,0,1,1,1.63279-1.63279A1.63255,1.63255,0,0,1,15.40359,24.18241Zm5.05,8.25456a1.63279,1.63279,0,1,1-1.63279,1.63279A1.633,1.633,0,0,1,20.45362,32.437Z" fill="#fff" fill-rule="evenodd"/><path d="M25.63755,21.88247s.2073,3.147-1.35489,3.93435A34.75121,34.75121,0,0,1,20.218,27.29221" fill="none" stroke="#fff" stroke-width="1.2"/><path d="M15.41192,23.82141S15.22265,27,16.64894,27.79529A29.77933,29.77933,0,0,0,20.36,29.2855" fill="none" stroke="#fff" stroke-width="1.2"/><path d="M20.45362,16.71093V34.76875" fill="none" stroke="#fff" stroke-width="1.2"/><path d="M23.00773,7.00748V3.00431H24.001V7.00748ZM16.00632,3.00431h.99328V7.00748h-.99328Z" fill="#fff"/><path d="M12.41756.59738H27.58244V9.40532H12.41756Z" fill="none" stroke="#fff" stroke-width="1.2"/><path d="M9.54427,9.40532H30.45573v27.709a2.23106,2.23106,0,0,1-2.19912,2.26131H11.7434a2.23106,2.23106,0,0,1-2.19913-2.26131Z" fill="none" stroke="#fff" stroke-width="1.2"/></g></svg>