<svg xmlns="http://www.w3.org/2000/svg" viewBox="0 0 40 40"><g id="E099_media"><polygon points="12.993 16.652 12.993 14.501 31.99 7.931 31.99 10.083 12.993 16.652" fill="#fff" fill-rule="evenodd"/><polygon points="12.989 6.618 31.99 0.048 31.99 2.2 12.989 8.77 12.989 6.618" fill="#fff" fill-rule="evenodd"/><path d="M27.9338,32.88359c-2.78943.92425-4.85345.47837-5.62858-1.179-.515-1.10411,1.14739-3.41849,3.93682-4.344,2.78943-.923,5.06253-.87554,5.62858.72942C32.48,29.81606,30.72323,31.96058,27.9338,32.88359Zm-17.80654,6.245c-2.78943.92425-4.85346.47836-5.62858-1.17905-.51505-1.10411,1.14739-3.4185,3.93682-4.344,2.78943-.923,5.06253-.87554,5.62858.72941C14.67347,36.061,12.91669,38.20555,10.12726,39.12856Z" fill="#fff" fill-rule="evenodd"/><line x1="31.393" y1="1.96857" x2="31.393" y2="28.73812" fill="none" stroke="#fff" stroke-miterlimit="10" stroke-width="1.2"/><line x1="13.58669" y1="7.1011" x2="13.58669" y2="35.04271" fill="none" stroke="#fff" stroke-miterlimit="10" stroke-width="1.2"/></g></svg>