<svg xmlns="http://www.w3.org/2000/svg" viewBox="0 0 40 40"><g id="E09C_media_ami_usb1"><g style="isolation:isolate"><path d="M33.13281,38.8623V28.69824l-3.07033.53125V27.99121l3.64846-.71484h.92578V38.8623Z" fill="#fff"/></g><path d="M18.90864,22.26678V19.00119h3.28191v3.26559ZM15.39933,11.965l2.89853,5.02639-5.88262.03788ZM10.30651,24.19593a1.63279,1.63279,0,1,1,1.63279-1.63279A1.63255,1.63255,0,0,1,10.30651,24.19593Zm5.05,8.25456a1.63279,1.63279,0,1,1-1.6328,1.63279A1.633,1.633,0,0,1,15.35655,32.45049Z" fill="#fff" fill-rule="evenodd"/><path d="M20.54047,21.896s.2073,3.147-1.35489,3.93435a34.75053,34.75053,0,0,1-4.06468,1.47539" fill="none" stroke="#fff" stroke-width="1.2"/><path d="M10.31484,23.83492s-.18927,3.17862,1.237,3.97389A29.77933,29.77933,0,0,0,15.26292,29.299" fill="none" stroke="#fff" stroke-width="1.2"/><path d="M15.35655,16.72445V34.78226" fill="none" stroke="#fff" stroke-width="1.2"/><path d="M17.91065,7.021V3.01783h.99328V7.021ZM10.90924,3.01783h.99328V7.021h-.99328Z" fill="#fff"/><path d="M7.32048.6109H22.48536V9.41884H7.32048Z" fill="none" stroke="#fff" stroke-width="1.2"/><path d="M4.44719,9.41884H25.35865v27.709a2.23106,2.23106,0,0,1-2.19912,2.26131H6.64632a2.23106,2.23106,0,0,1-2.19913-2.26131Z" fill="none" stroke="#fff" stroke-width="1.2"/></g></svg>