<svg xmlns="http://www.w3.org/2000/svg" viewBox="0 0 40 40"><g id="E09D_media_ami_usb2"><g style="isolation:isolate"><path d="M29.05374,38.8623V37.71387l2.98047-2.86719q.48486-.46436.89258-.875.40869-.41016.74219-.7832.334-.37354.58789-.7168a5.46265,5.46265,0,0,0,.42773-.67188,3.15825,3.15825,0,0,0,.26172-.65039,2.47378,2.47378,0,0,0,.08789-.65429,2.42237,2.42237,0,0,0-.14648-.86328,1.663,1.663,0,0,0-.44531-.65625,2.0255,2.0255,0,0,0-.75782-.41407,3.61082,3.61082,0,0,0-1.084-.14453q-.4922,0-.93164.03906a7.651,7.651,0,0,0-.83594.11915,6.39726,6.39726,0,0,0-.752.19921,4.998,4.998,0,0,0-.67969.28321V27.7373a4.12817,4.12817,0,0,1,.625-.28125,5.59491,5.59491,0,0,1,.74023-.20507,7.46471,7.46471,0,0,1,.85743-.125q.457-.041.98437-.041a6.90328,6.90328,0,0,1,1.27149.10742,4.44713,4.44713,0,0,1,1.01171.3086,2.839,2.839,0,0,1,.76172.49414,2.6628,2.6628,0,0,1,.52539.66406,2.98971,2.98971,0,0,1,.30469.81836,4.46943,4.46943,0,0,1,.09766.959,3.64752,3.64752,0,0,1-.125.959,4.40409,4.40409,0,0,1-.35352.89453,6.20588,6.20588,0,0,1-.54687.85547q-.31788.42041-.70508.83984-.38672.42042-.834.84766-.44677.42773-.92382.873l-2.01172,1.918h5.96484V38.8623Z" fill="#fff"/></g><path d="M18.90864,22.26678V19.00119h3.28191v3.26559ZM15.39933,11.965l2.89853,5.02639-5.88262.03788ZM10.30651,24.19593a1.63279,1.63279,0,1,1,1.63279-1.63279A1.63255,1.63255,0,0,1,10.30651,24.19593Zm5.05,8.25456a1.63279,1.63279,0,1,1-1.6328,1.63279A1.633,1.633,0,0,1,15.35655,32.45049Z" fill="#fff" fill-rule="evenodd"/><path d="M20.54047,21.896s.2073,3.147-1.35489,3.93435a34.75053,34.75053,0,0,1-4.06468,1.47539" fill="none" stroke="#fff" stroke-width="1.2"/><path d="M10.31484,23.83492s-.18927,3.17862,1.237,3.97389A29.77933,29.77933,0,0,0,15.26292,29.299" fill="none" stroke="#fff" stroke-width="1.2"/><path d="M15.35655,16.72445V34.78226" fill="none" stroke="#fff" stroke-width="1.2"/><path d="M17.91065,7.021V3.01783h.99328V7.021ZM10.90924,3.01783h.99328V7.021h-.99328Z" fill="#fff"/><path d="M7.32048.6109H22.48536V9.41884H7.32048Z" fill="none" stroke="#fff" stroke-width="1.2"/><path d="M4.44719,9.41884H25.35865v27.709a2.23106,2.23106,0,0,1-2.19912,2.26131H6.64632a2.23106,2.23106,0,0,1-2.19913-2.26131Z" fill="none" stroke="#fff" stroke-width="1.2"/></g></svg>