<svg xmlns="http://www.w3.org/2000/svg" viewBox="0 0 40 40"><g id="E09E_media_ami_usb_part3"><g style="isolation:isolate"><path d="M29.18426,37.14143c.20605.083.43261.16309.68164.24024s.51367.14453.79492.20312.57715.10547.88867.14063a8.54461,8.54461,0,0,0,.959.05273,4.18362,4.18362,0,0,0,1.168-.14843,2.51614,2.51614,0,0,0,.85352-.418,1.78542,1.78542,0,0,0,.52539-.64844,1.94173,1.94173,0,0,0,.17969-.84375,2.17912,2.17912,0,0,0-.18555-.91016,1.88044,1.88044,0,0,0-.55469-.70312,2.625,2.625,0,0,0-.92383-.45117,4.7513,4.7513,0,0,0-1.29687-.15821H31.17254v-1.25H32.2741a4.05458,4.05458,0,0,0,1.08008-.13086,2.14792,2.14792,0,0,0,.78906-.38867,1.66485,1.66485,0,0,0,.48437-.64062,2.21642,2.21642,0,0,0,.166-.88672,1.81411,1.81411,0,0,0-.07812-.54492,1.60473,1.60473,0,0,0-.22071-.44922,1.558,1.558,0,0,0-.34961-.35352,1.98246,1.98246,0,0,0-.46484-.252A2.8889,2.8889,0,0,0,33.1159,28.45a3.939,3.939,0,0,0-.65039-.05078A7.01409,7.01409,0,0,0,31.61,28.45a7.71327,7.71327,0,0,0-.80274.14062,6.70307,6.70307,0,0,0-.7207.209,5.00784,5.00784,0,0,0-.59766.252V27.743q.16847-.08643.375-.16993t.44532-.1582c.15917-.0498.32519-.09375.5-.13281s.35449-.07129.541-.09766.377-.04687.57227-.0625.39355-.02343.59375-.02343a6.28294,6.28294,0,0,1,1.63867.19335,3.32111,3.32111,0,0,1,1.19922.57618,2.4461,2.4461,0,0,1,.73633.95117,3.234,3.234,0,0,1,.25,1.31445,3.097,3.097,0,0,1-.10743.82031,2.68988,2.68988,0,0,1-.31836.72657,2.86007,2.86007,0,0,1-.52148.61328,3.28307,3.28307,0,0,1-.7168.48047,3.627,3.627,0,0,1,.92578.498,2.98764,2.98764,0,0,1,.65821.67969,2.83473,2.83473,0,0,1,.39453.832,3.39422,3.39422,0,0,1,.13086.94727,3.50266,3.50266,0,0,1-.11719.918,2.86467,2.86467,0,0,1-.93945,1.47265,3.48435,3.48435,0,0,1-.82422.50782,4.77691,4.77691,0,0,1-1.06055.32421,6.94492,6.94492,0,0,1-1.30078.11329c-.36426,0-.708-.01465-1.0293-.043a8.713,8.713,0,0,1-.90234-.125,6.29084,6.29084,0,0,1-.77734-.20118,4.44308,4.44308,0,0,1-.65039-.27148Z" fill="#fff"/></g><path d="M18.90864,22.26678V19.00119h3.28191v3.26559ZM15.39933,11.965l2.89853,5.02639-5.88262.03788ZM10.30651,24.19593a1.63279,1.63279,0,1,1,1.63279-1.63279A1.63255,1.63255,0,0,1,10.30651,24.19593Zm5.05,8.25456a1.63279,1.63279,0,1,1-1.6328,1.63279A1.633,1.633,0,0,1,15.35655,32.45049Z" fill="#fff" fill-rule="evenodd"/><path d="M20.54047,21.896s.2073,3.147-1.35489,3.93435a34.75053,34.75053,0,0,1-4.06468,1.47539" fill="none" stroke="#fff" stroke-width="1.2"/><path d="M10.31484,23.83492s-.18927,3.17862,1.237,3.97389A29.77933,29.77933,0,0,0,15.26292,29.299" fill="none" stroke="#fff" stroke-width="1.2"/><path d="M15.35655,16.72445V34.78226" fill="none" stroke="#fff" stroke-width="1.2"/><path d="M17.91065,7.021V3.01783h.99328V7.021ZM10.90924,3.01783h.99328V7.021h-.99328Z" fill="#fff"/><path d="M7.32048.6109H22.48536V9.41884H7.32048Z" fill="none" stroke="#fff" stroke-width="1.2"/><path d="M4.44719,9.41884H25.35865v27.709a2.23106,2.23106,0,0,1-2.19912,2.26131H6.64632a2.23106,2.23106,0,0,1-2.19913-2.26131Z" fill="none" stroke="#fff" stroke-width="1.2"/></g></svg>