<svg xmlns="http://www.w3.org/2000/svg" viewBox="0 0 40 40"><g id="E0A4_media_ami_audioplayer1_ipod"><g style="isolation:isolate"><path d="M33.13281,38.8623V28.69824l-3.07031.53125V27.99121l3.64844-.71484h.92578V38.8623Z" fill="#fff"/></g><path d="M13.4801,26.92037a1.49475,1.49475,0,1,0,1.5028,1.49473A1.50093,1.50093,0,0,0,13.4801,26.92037Z" fill="#fff" fill-rule="evenodd"/><ellipse cx="13.4801" cy="28.4151" rx="7.18009" ry="7.04196" fill="none" stroke="#fff" stroke-miterlimit="10" stroke-width="1.2"/><path d="M24.448,39.39661H2.50606A1.00465,1.00465,0,0,1,1.5,38.4005V1.59626A1.00465,1.00465,0,0,1,2.50606.60015H24.448a1.04538,1.04538,0,0,1,1.052.99611V38.4005A1.04538,1.04538,0,0,1,24.448,39.39661Z" fill="none" stroke="#fff" stroke-miterlimit="10" stroke-width="1.2"/><line x1="23" y1="17.5" x2="4" y2="17.5" fill="none" stroke="#fff" stroke-width="1.2"/></g></svg>