<svg xmlns="http://www.w3.org/2000/svg" viewBox="0 0 40 40"><g id="E0A5_media_ami_audioplayer2_ipod"><g style="isolation:isolate"><path d="M29.05374,38.8623V37.71387l2.98047-2.86719q.48486-.46436.89258-.875.40869-.41016.74219-.7832.334-.37354.58789-.7168a5.46265,5.46265,0,0,0,.42773-.67188,3.15825,3.15825,0,0,0,.26172-.65039,2.47378,2.47378,0,0,0,.08789-.65429,2.42237,2.42237,0,0,0-.14648-.86328,1.663,1.663,0,0,0-.44531-.65625,2.0255,2.0255,0,0,0-.75782-.41407,3.61082,3.61082,0,0,0-1.084-.14453q-.4922,0-.93164.03906a7.651,7.651,0,0,0-.83594.11915,6.39726,6.39726,0,0,0-.752.19921,4.998,4.998,0,0,0-.67969.28321V27.7373a4.12817,4.12817,0,0,1,.625-.28125,5.59491,5.59491,0,0,1,.74023-.20507,7.46471,7.46471,0,0,1,.85743-.125q.457-.041.98437-.041a6.90328,6.90328,0,0,1,1.27149.10742,4.44713,4.44713,0,0,1,1.01171.3086,2.839,2.839,0,0,1,.76172.49414,2.6628,2.6628,0,0,1,.52539.66406,2.98971,2.98971,0,0,1,.30469.81836,4.46943,4.46943,0,0,1,.09766.959,3.64752,3.64752,0,0,1-.125.959,4.40409,4.40409,0,0,1-.35352.89453,6.20588,6.20588,0,0,1-.54687.85547q-.31788.42041-.70508.83984-.38672.42041-.834.84766-.44677.42773-.92382.873l-2.01172,1.918h5.96484V38.8623Z" fill="#fff"/></g><path d="M13.4801,26.92037a1.49475,1.49475,0,1,0,1.5028,1.49473A1.50093,1.50093,0,0,0,13.4801,26.92037Z" fill="#fff" fill-rule="evenodd"/><ellipse cx="13.4801" cy="28.4151" rx="7.18009" ry="7.04196" fill="none" stroke="#fff" stroke-miterlimit="10" stroke-width="1.2"/><path d="M24.448,39.39661H2.50606A1.00465,1.00465,0,0,1,1.5,38.4005V1.59626A1.00465,1.00465,0,0,1,2.50606.60015H24.448a1.04538,1.04538,0,0,1,1.052.99611V38.4005A1.04538,1.04538,0,0,1,24.448,39.39661Z" fill="none" stroke="#fff" stroke-miterlimit="10" stroke-width="1.2"/><line x1="23" y1="17.5" x2="4" y2="17.5" fill="none" stroke="#fff" stroke-width="1.2"/></g></svg>