<svg xmlns="http://www.w3.org/2000/svg" viewBox="0 0 40 40"><defs><style>.cls-1,.cls-5{fill:#fff;}.cls-1{fill-rule:evenodd;}.cls-2,.cls-3{fill:none;stroke:#fff;stroke-width:1.2px;}.cls-2{stroke-miterlimit:10;}.cls-4{isolation:isolate;}</style></defs><g id="E0E1_media_ami_audioplayer4_ipod"><path class="cls-1" d="M13.4801,26.92037a1.49475,1.49475,0,1,0,1.5028,1.49473A1.50093,1.50093,0,0,0,13.4801,26.92037Z"/><ellipse class="cls-2" cx="13.4801" cy="28.4151" rx="7.18009" ry="7.04196"/><path class="cls-2" d="M24.448,39.39661H2.50606A1.00465,1.00465,0,0,1,1.5,38.4005V1.59626A1.00465,1.00465,0,0,1,2.50606.60015H24.448a1.04538,1.04538,0,0,1,1.052.99611V38.4005A1.04538,1.04538,0,0,1,24.448,39.39661Z"/><line class="cls-3" x1="23" y1="17.5" x2="4" y2="17.5"/><g class="cls-4"><path class="cls-5" d="M34.35,38.8623V36.292H28.29922l-.0039-1.21094,6.08984-7.80468h1.46875V35.0498h2.00391V36.292H35.85391V38.8623Zm0-8.20312q0-.293.00977-.66016.01026-.36767.0293-.75c-.14356.2002-.28809.40235-.43555.60547s-.29.3916-.42773.56641l-3.58985,4.6289H34.35Z"/></g></g></svg>