<svg xmlns="http://www.w3.org/2000/svg" viewBox="0 0 40 40"><defs><style>.cls-1,.cls-3,.cls-4{fill:none;stroke:#fff;}.cls-1{stroke-width:1.2px;}.cls-2{fill:#fff;fill-rule:evenodd;}.cls-3{stroke-miterlimit:10;}.cls-3,.cls-4{stroke-width:1.2px;}</style></defs><g id="E0E2_media_bt_audioplayer1_ipod"><path class="cls-1" d="M28.5,32.7,39,23l-5.5-5.3V37.9L39,32.6,28.5,22.9"/><path class="cls-2" d="M13.4801,26.92037a1.49475,1.49475,0,1,0,1.5028,1.49473A1.50093,1.50093,0,0,0,13.4801,26.92037Z"/><ellipse class="cls-3" cx="13.4801" cy="28.4151" rx="7.18009" ry="7.04196"/><path class="cls-3" d="M24.448,39.39661H2.50606A1.00465,1.00465,0,0,1,1.5,38.4005V1.59626A1.00465,1.00465,0,0,1,2.50606.60015H24.448a1.04538,1.04538,0,0,1,1.052.99611V38.4005A1.04538,1.04538,0,0,1,24.448,39.39661Z"/><line class="cls-4" x1="23" y1="17.5" x2="4" y2="17.5"/></g></svg>