<svg xmlns="http://www.w3.org/2000/svg" viewBox="0 0 26 31"><g id="E10B_FAS_Resume"><path d="M6.34283,8.32414,4.47108,5.56146c-.057-.08277-.10947-.15665-.15665-.22251a1.72173,1.72173,0,0,0-.1424-.17089.97926.97926,0,0,0-.146-.1246.857.857,0,0,0-.16021-.08367.77648.77648,0,0,0-.18691-.04717,1.72317,1.72317,0,0,0-.2234-.01335H2.553V8.32414H1.49034V.13756H4.11862A4.54507,4.54507,0,0,1,5.3451.28441,2.23835,2.23835,0,0,1,6.20933.7232a1.77115,1.77115,0,0,1,.51.73072A2.88613,2.88613,0,0,1,6.88665,2.481a2.64145,2.64145,0,0,1-.14241.90784,1.999,1.999,0,0,1-.99862,1.1348,3.06673,3.06673,0,0,1-.76366.26167,1.34382,1.34382,0,0,1,.32309.23943,2.52115,2.52115,0,0,1,.30083.3658L7.604,8.32414ZM3.90857,4.07331a3.216,3.216,0,0,0,.81706-.09256,1.50729,1.50729,0,0,0,.5901-.28837,1.207,1.207,0,0,0,.35779-.49665,1.9221,1.9221,0,0,0,.12016-.7147,1.88666,1.88666,0,0,0-.105-.66219,1.08516,1.08516,0,0,0-.32842-.46549,1.47877,1.47877,0,0,0-.5723-.27413A3.35359,3.35359,0,0,0,3.94418.98754H2.553V4.07331Z" fill="#fff"/><path d="M8.72547,8.32414V.13756h5.20318v.87757H9.78818V3.70128h3.55749v.87223H9.78818V7.44923h4.15115v.87491Z" fill="#fff"/><path d="M15.38831,7.09856a5.06581,5.06581,0,0,0,.49041.17089c.18424.05518.38183.10413.59188.14507.20916.04183.42722.07388.6524.09791a6.38728,6.38728,0,0,0,.67821.03649,3.36433,3.36433,0,0,0,.8936-.10681,1.96886,1.96886,0,0,0,.64706-.29638,1.29148,1.29148,0,0,0,.39607-.45036,1.19609,1.19609,0,0,0,.13528-.56517,1.33533,1.33533,0,0,0-.04628-.36759.96645.96645,0,0,0-.14507-.29816,1.19315,1.19315,0,0,0-.24566-.24655,2.06237,2.06237,0,0,0-.35156-.21,4.36543,4.36543,0,0,0-.46371-.186c-.17356-.05875-.36492-.11927-.57408-.17979-.25989-.07388-.50287-.14953-.73072-.22874a5.21527,5.21527,0,0,1-.62214-.26078,2.89839,2.89839,0,0,1-.502-.31864,1.84174,1.84174,0,0,1-.37293-.40052,1.74013,1.74013,0,0,1-.2323-.50554,2.267,2.267,0,0,1-.07654-.63727,2.6237,2.6237,0,0,1,.07654-.6435,1.97722,1.97722,0,0,1,.23675-.55538,1.89548,1.89548,0,0,1,.397-.45748,2.26732,2.26732,0,0,1,.56072-.34178A3.25972,3.25972,0,0,1,17.51106.077a5.04484,5.04484,0,0,1,.90517-.07476q.36714,0,.68889.02937a5.32239,5.32239,0,0,1,.59722.08544,3.58539,3.58539,0,0,1,.51177.14241,2.96343,2.96343,0,0,1,.43523.19581v.92475a3.50149,3.50149,0,0,0-.46816-.19759,4.53838,4.53838,0,0,0-.52424-.1424,5.21,5.21,0,0,0-.58653-.08634q-.30973-.02937-.65685-.02937a2.93543,2.93543,0,0,0-.80193.097,1.64318,1.64318,0,0,0-.56606.27147,1.12742,1.12742,0,0,0-.33822.42188,1.31321,1.31321,0,0,0-.113.54826,1.26133,1.26133,0,0,0,.04628.35869.90533.90533,0,0,0,.14062.28837,1.07415,1.07415,0,0,0,.24121.23764,2.09429,2.09429,0,0,0,.35067.20026,4.54854,4.54854,0,0,0,.46638.18068c.17445.05785.372.11837.591.18068.26612.07743.51533.15664.74585.23764a4.88413,4.88413,0,0,1,.62837.267,2.92813,2.92813,0,0,1,.49931.32486,1.72746,1.72746,0,0,1,.58921.91585,2.51939,2.51939,0,0,1-.01246,1.28077,1.96356,1.96356,0,0,1-.26078.56874,2.16522,2.16522,0,0,1-.437.47795,2.59749,2.59749,0,0,1-.61057.364,3.59484,3.59484,0,0,1-.78591.23141,5.297,5.297,0,0,1-.96391.08188q-.37782,0-.72983-.02937a6.43188,6.43188,0,0,1-.66219-.08634,4.95292,4.95292,0,0,1-.57586-.1424,2.75757,2.75757,0,0,1-.46638-.19225Z" fill="#fff"/><polygon points="2.487 27.207 7.226 27.207 8.385 21.91 14.857 21.91 15.849 27.207 20.612 27.207 11.554 30.585 2.487 27.207" fill="#fff" fill-rule="evenodd"/><path d="M14.53491,22.29921l.87281,4.66279.11889.63467h2.92908l-6.902,2.5733L4.646,27.59667H7.53943l.13379-.61165,1.02453-4.68581h5.83716m.64563-.77779H8.07166L6.91333,26.81889H.33008L11.55383,31l11.21436-4.18112h-6.596l-.9917-5.29747Z" fill="#fff"/><path d="M25.66993,16.12612c-3.28439.00593-7.07358.01359-7.42575.018A6.08331,6.08331,0,0,0,15.872,17.24042c-.41425.24946-.7976.48291-1.05622.59963a4.234,4.234,0,0,1-2.08155.20941c-.21628-.04463-.95095-.135-2.33788-.3021-1.71994-.20827-4.07613-.49321-5.21132-.69-1.031-.17966-1.641-.515-1.81491-.999a25.18336,25.18336,0,0,1-1.00244-3.72539.74624.74624,0,0,1,.06866-.539c.14647-.17394.53783-.18366.706-.18824l.15792-.00858c.42226-.05035,3.57377-.07267,6.105-.08983,1.83666-.01316,3.53943-.02461,4.22947-.04521a4.75534,4.75534,0,0,1,1.91562.47891,9.6285,9.6285,0,0,0,3.80492.8182c1.79375,0,4.195.04856,6.3146.10256V11.68959c-2.12046-.05392-4.519-.1022-6.3146-.1022a8.51651,8.51651,0,0,1-3.37923-.73753,5.82566,5.82566,0,0,0-2.37564-.55958c-.6866.0206-2.37793.03262-4.20315.0452-3.47192.024-5.78234.04406-6.28585.099a2.07124,2.07124,0,0,0-1.57231.60535,1.77569,1.77569,0,0,0-.32957,1.46476,25.89756,25.89756,0,0,0,1.05851,3.95368c.1213.33815.48977,1.36577,2.71551,1.75255,1.16608.2037,3.44217.47834,5.272.69919,1.0608.12817,2.06324.24947,2.24176.28723a4.408,4.408,0,0,0,.83308.06866,5.06212,5.06212,0,0,0,1.966-.357,13.31674,13.31674,0,0,0,1.18095-.66486,9.00713,9.00713,0,0,1,1.78059-.92806c.35189-.00443,4.13249-.01216,7.412-.018Z" fill="#fff"/></g></svg>