<svg id="E116_laptimer_zwischenzeit" xmlns="http://www.w3.org/2000/svg" viewBox="0 0 40 40"><defs><style>.cls-1,.cls-2{fill:#fff;}.cls-1{fill-rule:evenodd;}.cls-3{fill:none;stroke:#fff;stroke-miterlimit:10;stroke-width:1.2px;}</style></defs><path class="cls-1" d="M15,2.75h9v1.5H15Z"/><path class="cls-1" d="M18.90005,3.5h1.2v5h-1.2Z"/><path class="cls-2" d="M28.81885,11.18262l.96045.791,3.147-3.13672-.87109-.87109Z"/><path class="cls-2" d="M6.0752,8.83691,9.3374,12.042l.917-.7959L6.9541,7.97461Z"/><circle class="cls-3" cx="19.5" cy="22.8" r="14.75"/><polygon class="cls-1" points="19.447 21.775 20.526 22.817 12.177 30.743 11.818 30.395 19.447 21.775"/><circle class="cls-2" cx="19.5" cy="22.8" r="1.9"/><path class="cls-2" d="M22.28943,25.28888l6.34021,5.657a12.2305,12.2305,0,0,0-9.12958-20.38727v8.49854a3.734,3.734,0,0,1,2.78937,6.23169Z"/></svg>