<svg xmlns="http://www.w3.org/2000/svg" viewBox="0 0 40 40"><defs><style>.cls-1{fill:#fff;fill-rule:evenodd;}</style></defs><g id="E11A_GRA"><path class="cls-1" d="M20.29147,24.10526a1.64823,1.64823,0,0,1-.4096-1.6384l-3.74226-3.74652-.5457-1.63839,1.6384.54422,3.74359,3.74374a1.64417,1.64417,0,1,1-.68443,2.73535ZM7.19442,13.30405l1.1672-1.16589-2.29-2.29144,2.29-2.2885,2.28851,2.2885L11.81733,8.681v4.62306Zm8.46827,16.53838-2.44747,2.44042a12.46719,12.46719,0,1,1,16.49835-.0057l-2.43618-2.44046,1.09417-1.09415,1.342,1.34053a10.877,10.877,0,0,0,2.64076-6.376H30.45387V22.16036h1.90046a10.86536,10.86536,0,0,0-2.63944-6.38156l-1.34759,1.349-1.09563-1.09415,1.349-1.34907a10.86267,10.86267,0,0,0-6.3845-2.64954v1.91628H20.68948V12.03507a10.86277,10.86277,0,0,0-6.39021,2.64661l1.35917,1.35772L14.5628,17.13357l-1.35623-1.35771A10.85741,10.85741,0,0,0,10.56419,22.169H12.482v1.54674H10.56419a10.883,10.883,0,0,0,2.65528,6.38156L14.57,28.74826Z"/></g></svg>