<svg xmlns="http://www.w3.org/2000/svg" viewBox="0 0 40 40"><defs><style>.cls-1{fill:#fff;}</style></defs><g id="E11D_pLIM"><path class="cls-1" d="M14.3527,19.56869H7.66349V6.56222H5.97159V21.29507H14.3527ZM17.67521,6.56222h-1.6919V21.29507h1.6919ZM22.2963,9.88967l4.86963,7.36158h1.08545l4.76025-7.36158V21.25338h1.6521V6.56222H33.1962l-5.48535,8.27753L22.08854,6.56222H20.6486V21.25338h1.6477ZM6.21305,23.9559,2.72184,33.12722H3.94327l.84742-2.32861H8.88761l.85059,2.32861H11.018L7.50529,23.9559ZM5.143,29.78768l1.33569-3.64874q.09284-.27191.19507-.56732a5.77794,5.77794,0,0,0,.1731-.611,5.29514,5.29514,0,0,0,.15784.61261q.09576.2968.2008.56567L8.526,29.78768Zm13.169.24738a3.26912,3.26912,0,0,1-.1333.98328,1.715,1.715,0,0,1-.40809.7005,1.69151,1.69151,0,0,1-.69885.41723,5.91325,5.91325,0,0,1-1.33838.1377,3.22137,3.22137,0,0,1-.99853-.1377,1.68314,1.68314,0,0,1-.69434-.41723,1.7301,1.7301,0,0,1-.40649-.7005,3.27,3.27,0,0,1-.13281-.98328V23.9559H12.30729v6.28326a4.31365,4.31365,0,0,0,.093.92761,2.81469,2.81469,0,0,0,.27807.75739,2.24208,2.24208,0,0,0,.467.59076,2.50639,2.50639,0,0,0,.66162.42352,3.65931,3.65931,0,0,0,.86255.25513,6.146,6.146,0,0,0,1.06372.08526,10.73917,10.73917,0,0,0,1.39576-.08526,3.69039,3.69039,0,0,0,.86254-.25513,2.55535,2.55535,0,0,0,.66651-.42352,2.26307,2.26307,0,0,0,.4729-.59076,2.75876,2.75876,0,0,0,.28161-.75739,4.30761,4.30761,0,0,0,.09241-.92761V23.9559H18.31193Zm3.24768-5.09583h2.82947v8.188h1.18737v-8.188h2.82947V23.9559H21.55961Zm15.6261,2.29438a5.639,5.639,0,0,0-.291-1.14252,3.91977,3.91977,0,0,0-.5072-.9494,3.06018,3.06018,0,0,0-.74341-.72034,3.362,3.362,0,0,0-.99854-.45764,4.67625,4.67625,0,0,0-1.2694-.15918,4.5848,4.5848,0,0,0-1.26807.16211,3.43212,3.43212,0,0,0-.99866.46222,3.075,3.075,0,0,0-.7467.72681,4.05854,4.05854,0,0,0-.51038.954,5.67134,5.67134,0,0,0-.29358,1.1441,8.5479,8.5479,0,0,0-.09436,1.29706,8.735,8.735,0,0,0,.09314,1.30023,5.62026,5.62026,0,0,0,.29029,1.14252,3.98752,3.98752,0,0,0,.50585.94781,3.05672,3.05672,0,0,0,.74012.72034,3.34327,3.34327,0,0,0,.996.45764,4.65427,4.65427,0,0,0,1.26745.15942,4.6059,4.6059,0,0,0,1.26819-.16235,3.41966,3.41966,0,0,0,1.00171-.46258,3.08337,3.08337,0,0,0,.748-.72645,4.05742,4.05742,0,0,0,.51367-.95239,5.55122,5.55122,0,0,0,.29553-1.144,9.1188,9.1188,0,0,0,.00135-2.59741Zm-1.20435,2.33307a4.88014,4.88014,0,0,1-.20117.90289,3.4589,3.4589,0,0,1-.34766.75122,2.25331,2.25331,0,0,1-.50586.57062,2.19154,2.19154,0,0,1-.68017.36322,3.02455,3.02455,0,0,1-1.74268,0,2.21123,2.21123,0,0,1-.68286-.36322,2.24847,2.24847,0,0,1-.509-.57062,3.366,3.366,0,0,1-.349-.75122,4.822,4.822,0,0,1-.19983-.90289,8.524,8.524,0,0,1,0-2.04865,4.85612,4.85612,0,0,1,.19983-.90283,3.32892,3.32892,0,0,1,.349-.75159,2.287,2.287,0,0,1,.509-.57031,2.16554,2.16554,0,0,1,.68286-.36322,3.0505,3.0505,0,0,1,1.74133,0,2.13891,2.13891,0,0,1,.68152.36322,2.2921,2.2921,0,0,1,.50586.57031,3.41972,3.41972,0,0,1,.34766.75159,4.91536,4.91536,0,0,1,.20117.90283,8.34435,8.34435,0,0,1,0,2.04865Z"/></g></svg>