<svg id="E264_PLA" xmlns="http://www.w3.org/2000/svg" viewBox="0 0 40 40"><defs><style>.cls-1{fill:#fff;fill-rule:evenodd;}</style></defs><path class="cls-1" d="M5,13.42968H9.22652c.37129,0,4.06462.10008,4.06462-3.58673s-3.69333-3.665-4.06462-3.665H5ZM2,25V4H8.5c4.06462-.17839,7.248,1.188,7.248,5.87921,0,4.4845-3.21182,5.63681-7.24671,5.726H5V25Z"/><path class="cls-1" d="M26.50952,15.10968A11.39034,11.39034,0,1,0,37.87671,26.50031,11.42075,11.42075,0,0,0,26.50952,15.10968ZM18.47729,31.98859a1.2229,1.2229,0,0,1-1.03271-.817l-.042-.09058A10.16152,10.16152,0,0,1,16.321,26.72455c.01514-1.15344.77833-1.15344,1.145-1.15344l2.57715-.00391.40235-.00061-.002.40259-.00293.60254a6.12015,6.12015,0,0,0,.74219,2.91552l.15283.28089-.24072.21093-2.04883,1.79737A.91931.91931,0,0,1,18.47729,31.98859Zm14.03614,2.73816a.64116.64116,0,0,1-.08447.076,10.15566,10.15566,0,0,1-11.81543.01684.554.554,0,0,1-.11329-.09326.88425.88425,0,0,1-.32812-.65173,1.69542,1.69542,0,0,1,.66211-1.17347L22.428,31.50189l.24121-.212.25928.1903a6.04861,6.04861,0,0,0,7.16113-.00036l.25879-.1897.2417.21191,1.57763,1.38538a1.70824,1.70824,0,0,1,.67872,1.189A.8778.8778,0,0,1,32.51343,34.72675Zm-9.11212-6.97549a3.10846,3.10846,0,1,1,3.10263,3.20412h-.0025A3.16442,3.16442,0,0,1,23.40131,27.75126Zm13.29278-1.04075A10.15028,10.15028,0,0,1,35.60962,31.092l-.0376.07959a1.205,1.205,0,0,1-1.03223.817.89985.89985,0,0,1-.54931-.19556l-2.07373-1.8136-.24317-.21252.15625-.28223a6.02808,6.02808,0,0,0,.74073-2.91492V25.56659l.40039.00061,2.583.00391C35.91968,25.57111,36.68091,25.57111,36.69409,26.71051Zm-.91553-3.62012a1.06678,1.06678,0,0,1-.959.45508H18.19751a1.06678,1.06678,0,0,1-.959-.45508.814.814,0,0,1,.00244-.81884,10.17387,10.17387,0,0,1,18.54736.025A.79723.79723,0,0,1,35.77856,23.09039Z"/></svg>