<svg xmlns="http://www.w3.org/2000/svg" viewBox="0 0 40 40"><defs><style>.cls-1{fill:#fff;fill-rule:evenodd;}</style></defs><g id="E26C_LIM_" data-name="E26C_LIM!"><path class="cls-1" d="M3.32885,12.57362H1.63695V27.30647h8.38123V25.58009H3.32885Zm8.31982,14.73285h1.6919V12.57362h-1.6919Zm11.72742-6.45532-5.62232-8.27753H16.31408V27.26479h1.64758V15.90108l4.86963,7.36157h1.08557l4.76-7.36157V27.26479h1.65222V12.57362H28.86144ZM36.647,10.56972c-.95019,0-1.67883.67193-1.67883,1.95624v9.37829c0,1.28082.72864,2.01721,1.67883,2.01721a1.78752,1.78752,0,0,0,1.71619-2.01721V12.526A1.73119,1.73119,0,0,0,36.647,10.56972Zm0,15.371A1.54629,1.54629,0,0,0,34.9276,27.5674a1.71783,1.71783,0,0,0,3.43555,0A1.54535,1.54535,0,0,0,36.647,25.94069Z"/></g></svg>