<svg xmlns="http://www.w3.org/2000/svg" viewBox="0 0 40 40"><defs><style>.cls-1{fill:#fff;}</style></defs><g id="E296_shiftlock"><g id="Version_5"><path class="cls-1" d="M6.04883,19.99805v.00488a13.95606,13.95606,0,1,0,13.958-13.959h-.002A13.97217,13.97217,0,0,0,6.04883,19.99805ZM20.00391,32.71A12.71494,12.71494,0,0,1,7.291,19.99805h0A12.73,12.73,0,0,1,20.00391,7.28223h.00195a12.71387,12.71387,0,0,1,.002,25.42773Z"/><path class="cls-1" d="M32.70789,5.97573l-1.31527,1.3122A17.9925,17.9925,0,0,1,31.37736,32.727l1.3166,1.31173A19.84828,19.84828,0,0,0,32.70789,5.97573Z"/><path class="cls-1" d="M7.34162,34.074l1.31314-1.31513a17.99327,17.99327,0,0,1-.07334-25.4462l.05734-.0574L7.32722,5.9398a19.84908,19.84908,0,0,0-.04913,28.07073Z"/><path class="cls-1" d="M10.18636,16.5848l.3626-.40247.184.16887a1.88955,1.88955,0,0,1,.33286-.2978c.50007-.58613,1.19727-2.07067,3.5906-.63373,5.089,3.05933,9.51407,2.70853,9.68467,3.16246.9608,2.58367,3.964,4.50107,4.85613,5.06934.47007.3036-2.0654,3.94973-3.4516,4.41246-.2196.0708-.08426.32334-.12533.53267l-1.00053,1.09787-4.66514-4.2296.77087-.84047a10.75274,10.75274,0,0,0-4.32513-2.425Z"/></g></g></svg>