<svg xmlns="http://www.w3.org/2000/svg" viewBox="0 0 40 40"><defs><style>.cls-1,.cls-2{fill:#fff;}.cls-2{fill-rule:evenodd;}</style></defs><g id="E307_001_pACC_Offset"><polygon class="cls-1" points="36.676 16.479 34.407 14.209 32.181 16.439 31.026 15.282 31.026 19.865 35.602 19.865 34.447 18.708 36.676 16.479"/><path class="cls-2" d="M16.89047,26.27851l2.83078,2.88383.02831.02929-.01237.03841a1.75435,1.75435,0,0,0-.08527.53315,1.85655,1.85655,0,0,0,1.8364,1.87091h.01725a1.85725,1.85725,0,0,0,1.84975-1.839,1.85074,1.85074,0,0,0-1.83673-1.867H21.49a1.8458,1.8458,0,0,0-.52143.07746l-.03841.01172-.028-.02864L18.07785,25.112,16.31468,24.5Z"/><path class="cls-2" d="M20.9069,12.14766h1.412l.24965-1.32539H20.47505c-.56285-.89574-1.56356-2.27606-2.47411-2.43693A47.71264,47.71264,0,0,0,12.95945,8.207a44.218,44.218,0,0,0-5.13816.20376,6.72175,6.72175,0,0,0-2.3554,2.41154H3.32369l.24965,1.32539h1.438v.06575L3.41874,13.22828v6.79a1.23618,1.23618,0,0,0,1.259,1.32279H7.226a1.326,1.326,0,0,0,1.25867-1.32279v-.19985h2.89757l1.57659-1.29153H7.24127l.0026,1.4699c-.00618.01758-.0358.05013-.0179.05208l-2.557.03841a.22709.22709,0,0,1-.00651-.069V16.0265H7.98794V14.69786H4.66243v-.747l1.00966-.64362h14.4756l1.10715.64947-.00049.74114h-3.383V16.0265h4.09538l.53209.00037V13.22828l-1.592-1.01454Zm-12.78-2.48933a40.82914,40.82914,0,0,1,4.83253-.16014,40.84473,40.84473,0,0,1,4.83252.16014,6.05757,6.05757,0,0,1,1.87156,2.2488v.168H6.255v-.15725A8.06733,8.06733,0,0,1,8.12692,9.65833Z"/><path class="cls-1" d="M13.46711,20.76394A12.05932,12.05932,0,0,0,9.42085,29.769c0,.23437.01208.46679.02734.705h3.66663c-.01691-.22845-.0254-.46087-.0254-.705,0-.23566.00849-.46735.0254-.69129L10.84,29.081l.01856-.21741a10.60523,10.60523,0,0,1,2.47565-5.98248l.13964-.16535,1.674,1.6333a9.51039,9.51039,0,0,1,.98754-.98754l-.90448-.88092Z"/><path class="cls-1" d="M30.51685,21.72213A12.03884,12.03884,0,0,1,33.60462,29.769c0,.237-.01239.47131-.028.705H29.91523c.01788-.233.027-.46936.027-.705,0-.23761-.00781-.45825-.02344-.66852h2.26965l-.01825-.2168a10.625,10.625,0,0,0-2.475-6.00262l-.14093-.1673Z"/></g></svg>