<svg xmlns="http://www.w3.org/2000/svg" viewBox="0 0 40 40"><defs><style>.cls-1{fill:#fff;}</style></defs><g id="E342_LIM__Auto" data-name="E342_LIM!_Auto"><path class="cls-1" d="M38.25977,9.89111c-.9502,0-1.67872.67194-1.67872,1.95624v9.3783c0,1.28082.72852,2.01721,1.67872,2.01721a1.7875,1.7875,0,0,0,1.71606-2.01721v-9.3783A1.73118,1.73118,0,0,0,38.25977,9.89111Zm0,15.371a1.54614,1.54614,0,0,0-1.71924,1.62664,1.71771,1.71771,0,0,0,3.4353,0A1.54526,1.54526,0,0,0,38.25977,25.26215ZM11.63086,19.56866H4.94165V6.56219H3.24976V21.295h8.3811ZM14.95337,6.56219h-1.6919V21.295h1.6919Zm4.62109,3.32746,4.86963,7.36163h1.08545l4.76-7.36163V21.25336h1.65234V6.56219H30.47412l-5.48535,8.27759L19.3667,6.56219H17.92676V21.25336h1.6477ZM3.49121,23.95593,0,33.1272H1.22119l.84766-2.32855H6.16577l.85034,2.32855H8.2959L4.78345,23.95593ZM2.421,29.78766,3.75684,26.139q.09264-.272.19482-.56739a5.74892,5.74892,0,0,0,.17334-.6109,5.29951,5.29951,0,0,0,.15771.61261q.09578.29673.20093.56568L5.8042,29.78766Zm13.16882.24737a3.2702,3.2702,0,0,1-.13305.98334,1.718,1.718,0,0,1-.40821.70044,1.692,1.692,0,0,1-.69873.4173,5.915,5.915,0,0,1-1.33838.13763,3.22257,3.22257,0,0,1-.99877-.13763,1.6808,1.6808,0,0,1-.6941-.4173,1.72613,1.72613,0,0,1-.40649-.70044,3.27061,3.27061,0,0,1-.13281-.98334v-6.0791H9.58545v6.28321a4.31429,4.31429,0,0,0,.093.92767,2.81625,2.81625,0,0,0,.27807.75738,2.24188,2.24188,0,0,0,.4668.59076,2.50713,2.50713,0,0,0,.66187.42347,3.659,3.659,0,0,0,.86254.25518,6.1499,6.1499,0,0,0,1.06372.08527,10.755,10.755,0,0,0,1.39576-.08527,3.68821,3.68821,0,0,0,.8623-.25518,2.5562,2.5562,0,0,0,.66675-.42347,2.26373,2.26373,0,0,0,.4729-.59076,2.76368,2.76368,0,0,0,.28149-.75738,4.31555,4.31555,0,0,0,.09253-.92767V23.95593H15.58984Zm3.24781-5.09582H21.667v8.188h1.1875v-8.188h2.82959v-.98328H18.83765Zm15.3352,1.15192a3.91641,3.91641,0,0,0-.50732-.94947,3.05567,3.05567,0,0,0-.74341-.72033,3.36147,3.36147,0,0,0-.99854-.45758,4.67552,4.67552,0,0,0-1.26928-.15925,4.58422,4.58422,0,0,0-1.26831.16217,3.43266,3.43266,0,0,0-.99854.46222,3.07552,3.07552,0,0,0-.74658.72675,4.06522,4.06522,0,0,0-.5105.954,5.647,5.647,0,0,0-.29346,1.1441,8.53224,8.53224,0,0,0-.09448,1.29706,8.753,8.753,0,0,0,.093,1.3003,5.63518,5.63518,0,0,0,.29053,1.14245,3.98884,3.98884,0,0,0,.50586.94788,3.054,3.054,0,0,0,.74.72033,3.345,3.345,0,0,0,.99609.45758,4.652,4.652,0,0,0,1.26733.15949,4.602,4.602,0,0,0,1.26807-.16241,3.42256,3.42256,0,0,0,1.002-.46253,3.08788,3.08788,0,0,0,.748-.7265,4.06335,4.06335,0,0,0,.51367-.95233A5.55224,5.55224,0,0,0,34.4624,29.831a9.10087,9.10087,0,0,0,.00122-2.59741A5.63716,5.63716,0,0,0,34.17285,26.09113Zm-.91357,3.47558a4.87234,4.87234,0,0,1-.20117.90289,3.44779,3.44779,0,0,1-.34766.75116,2.249,2.249,0,0,1-.50562.57062,2.18848,2.18848,0,0,1-.68042.36322,3.02293,3.02293,0,0,1-1.74267,0,2.20848,2.20848,0,0,1-.68262-.36322,2.25291,2.25291,0,0,1-.50928-.57062,3.37211,3.37211,0,0,1-.34887-.75116,4.83244,4.83244,0,0,1-.2-.90289,8.52443,8.52443,0,0,1,0-2.0487,4.86689,4.86689,0,0,1,.2-.90284,3.33527,3.33527,0,0,1,.34887-.75158,2.2926,2.2926,0,0,1,.50928-.57026,2.16349,2.16349,0,0,1,.68262-.36322,3.04953,3.04953,0,0,1,1.74145,0,2.13735,2.13735,0,0,1,.68164.36322,2.28861,2.28861,0,0,1,.50562.57026,3.40927,3.40927,0,0,1,.34766.75158,4.90755,4.90755,0,0,1,.20117.90284,8.329,8.329,0,0,1,0,2.0487Z"/></g></svg>