<svg xmlns="http://www.w3.org/2000/svg" viewBox="0 0 40 40"><g id="E34B_assistent_offline"><line x1="5.24642" y1="35.28944" x2="35.66382" y2="4.83194" fill="none" stroke="#fff" stroke-miterlimit="10" stroke-width="1.2"/><path d="M30.85532,16.10547a7.93115,7.93115,0,0,0-1.457.13965,9.60922,9.60922,0,0,0-.95172-1.70166l-.86206.86316a8.29311,8.29311,0,0,1,.77275,1.46057l.30471.75488.8164-.169a6.743,6.743,0,0,1,1.377-.14843A5.16388,5.16388,0,0,1,36.036,22.29c0,4.12695-2.52344,5.58984-9.64258,5.58984H15.12784L13.93021,29.0791H26.3934c5.2461,0,10.8418-.52441,10.8418-6.78906A6.38225,6.38225,0,0,0,30.85532,16.10547Z" fill="#fff"/><path d="M9.09708,28.94885l1.082-1.08337c-3.18427-.14972-5.8208-2.63379-5.8208-5.56568,0-3.02636,2.79394-5.583,6.10156-5.583l.40722-.001c.37207,0,1.22168.0332,1.84864.10156l.78808.10547.31739-.751c.76074-2.10253,3.88183-4.35351,7.31445-4.35351a7.34569,7.34569,0,0,1,3.94684,1.124l.87134-.8725a8.52789,8.52789,0,0,0-4.81818-1.45068c-3.57715,0-7.30859,2.24219-8.38672,4.99512-.66992-.06641-1.50488-.09766-1.88281-.09766l-.40723.001c-3.957,0-7.2998,3.10547-7.2998,6.78222A7.05111,7.05111,0,0,0,9.09708,28.94885Z" fill="#fff"/></g></svg>