<svg xmlns="http://www.w3.org/2000/svg" viewBox="0 0 40 40"><defs><style>.cls-1{fill:#fff;}</style></defs><g id="E350_ADA_Ablenkung"><g id="V2"><path class="cls-1" d="M38.43652,20.83008c-.05566-.1084-5.77832-10.89258-17.28125-10.916h-.03906A18.5216,18.5216,0,0,0,8.28186,15.19568V16.8822a17.60646,17.60646,0,0,1,12.83435-5.76892h.03711c9.75586.02051,15.10742,8.35742,16.06348,9.99317-.95215,1.63476-6.291,9.97363-16.06348,9.99414h-.03711A17.58906,17.58906,0,0,1,8.28186,25.3418v1.68689A18.5093,18.5093,0,0,0,21.11621,32.2998h.03906c11.30567-.02343,17.34864-10.61816,17.34864-11.19335V20.96Z"/><path class="cls-1" d="M21.1543,28.65625a7.54932,7.54932,0,1,1,7.5498-7.5498A7.558,7.558,0,0,1,21.1543,28.65625Zm0-12.19141a4.64161,4.64161,0,1,0,4.6416,4.64161A4.64642,4.64642,0,0,0,21.1543,16.46484Z"/><path class="cls-1" d="M21.15472,14.158a6.94868,6.94868,0,1,1-6.94862,6.94868A6.95652,6.95652,0,0,1,21.15472,14.158m0,12.19043A5.24175,5.24175,0,1,0,15.913,21.10669a5.24769,5.24769,0,0,0,5.24174,5.24175m0-13.39043a8.14868,8.14868,0,1,0,8.14862,8.14868A8.14866,8.14866,0,0,0,21.15472,12.958Zm0,12.19043a4.04175,4.04175,0,1,1,4.04175-4.04175,4.04177,4.04177,0,0,1-4.04175,4.04175Z"/><circle class="cls-1" cx="4.5" cy="29.5" r="1.5"/><rect class="cls-1" x="3" y="9" width="3" height="16" rx="1.5"/></g></g></svg>