<svg xmlns="http://www.w3.org/2000/svg" viewBox="0 0 40 40"><g id="E3B1_sirius_xm"><path d="M35.34605,19.56988c0-.732-.01645-1.02725-.53734-1.02725h-.00387c-.55671.001-.55381.503-.55381,1.10325V22.1443H32.29868V19.56988c0-.73389-.0731-1.01515-.60125-1.0287l-.02179-.00048c-.5233,0-.50733.51314-.50733,1.10518V22.1443H29.396V16.99982H30.9771v.86411a1.72075,1.72075,0,0,1,1.41355-.88541,1.57771,1.57771,0,0,1,1.566.914,1.71148,1.71148,0,0,1,1.52781-.91348H35.486c1.24945,0,1.6556.80989,1.66238,2.15809v3.0072H35.34605ZM29.092,22.1443h-2.1823l-.70533-1.46-.7242,1.46H23.34631l1.79212-2.64122L23.4286,16.99982h2.14309l.68984,1.36951.72808-1.36951h2.14405l-1.76743,2.49406ZM27.4311,9.32159a13.43854,13.43854,0,0,0-15.17492.01162.86025.86025,0,0,1-.97449-1.41791,15.16284,15.16284,0,0,1,17.122-.01162.8597.8597,0,0,1-.97255,1.41791Zm-15.31,8.79891a1.90884,1.90884,0,0,1,.20865.02324v1.45858l-.02953-.00533v.00533h0V19.597a1.93127,1.93127,0,0,0-.30305-.04163c-.65836,0-1.05048.30982-1.05048,1.18458v1.401H9.4247V18.2667l1.46391-.03v.66854h.01549A1.07127,1.07127,0,0,1,12.12111,18.1205Zm-4.55291.1462h1.522v3.90471H7.5682Zm0-1.432h1.522v.76875H7.5682ZM7.02456,20.5129c0,1.03935-.8583,1.74419-2.68866,1.74419-1.1444,0-2.40257-.35242-2.50761-1.69627h1.888a.55416.55416,0,0,0,.20961.45747.79955.79955,0,0,0,.48651.15249c.305,0,.62933-.09536.62933-.44778,0-.8007-3.06093-.16218-3.06093-2.09614,0-1.277,1.32545-1.64931,2.36432-1.64931,1.08727,0,2.3648.24834,2.47953,1.57283H5.02234a.52094.52094,0,0,0-.19073-.36259.63043.63043,0,0,0-.40035-.12344c-.34322,0-.56251.105-.56251.35242C3.86875,19.11241,7.02456,18.64526,7.02456,20.5129Zm19.24132,7.40617a.86136.86136,0,0,1-.166,1.20539,10.3905,10.3905,0,0,1-12.51192.03341.86024.86024,0,1,1,1.03306-1.3758A8.66851,8.66851,0,0,0,25.06,27.753.86176.86176,0,0,1,26.26588,27.91907Zm-2.09564-2.97089a.86.86,0,0,1-.14717,1.20878,6.677,6.677,0,0,1-4.14966,1.4276,6.74981,6.74981,0,0,1-4.21986-1.48472.8512.8512,0,1,1,1.04855-1.34046,5.04345,5.04345,0,0,0,3.17131,1.1047,4.96513,4.96513,0,0,0,3.09-1.06355A.8579.8579,0,0,1,24.17024,24.94818Zm-1.20685-9.74871a5.01846,5.01846,0,0,0-6.23176.04115.86029.86029,0,1,1-1.07808-1.34094A6.75265,6.75265,0,0,1,19.87341,12.415,6.67744,6.67744,0,0,1,24.02307,13.843a.86064.86064,0,0,1-1.05968,1.35643Zm-4.2,3.06723Zm0,0v3.90471h0l-1.19475-.0305V21.545a1.53961,1.53961,0,0,1-1.43824.7121h-.04357c-.87282-.00726-1.22573-.54944-1.22573-1.70256V18.2667h1.369v2.009c0,.55719.16363.73534.55042.73534.46424,0,.64142-.34855.64142-.975V18.2667h1.34143v0ZM19.8221,8.7644a10.28194,10.28194,0,0,1,6.27774,2.11114A.86054.86054,0,0,1,25.06,12.247a8.66661,8.66661,0,0,0-10.439-.029.86024.86024,0,1,1-1.03306-1.3758A10.29651,10.29651,0,0,1,19.8221,8.7644Zm-7.11959,13.347V18.29526h1.492v3.81612Zm0-5.09558h1.492v.76874h-1.492Zm10.78128,3.82483c0,.83894-.68838,1.44018-2.15761,1.44648h-.0489c-.92316-.00436-1.92911-.32532-2.01431-1.40775h1.53361a.44957.44957,0,0,0,.1704.3713.64732.64732,0,0,0,.395.12441c.24786,0,.51121-.07794.51121-.364,0-.65014-2.48583-.13167-2.48583-1.70256,0-1.03257,1.06646-1.33659,1.90879-1.33949h.02614c.88008.00242,1.90685.20719,1.99931,1.277h-1.4639a.42535.42535,0,0,0-.15491-.29433.512.512,0,0,0-.32532-.10021c-.27884,0-.457.08472-.457.2861C20.92051,19.703,23.48379,19.32348,23.48379,20.84063ZM12.25618,30.66679a13.43738,13.43738,0,0,0,15.17492.01113.8599.8599,0,0,1,.97255,1.4184,15.16284,15.16284,0,0,1-17.122-.01162.86025.86025,0,0,1,.97449-1.41791Z" fill="#fff" fill-rule="evenodd"/><circle cx="37.63243" cy="16.83475" r="0.47009" fill="none" stroke="#fff" stroke-miterlimit="10" stroke-width="0.1"/><path d="M37.60375,16.79225a.09572.09572,0,0,0,.06321-.017.08377.08377,0,0,0,0-.10782.09931.09931,0,0,0-.06321-.01594h-.05949v.14076h.05949m-.05949.09721v.20715H37.403V16.549h.21565a.27073.27073,0,0,1,.15829.03665.13013.13013,0,0,1,.05046.11474.14458.14458,0,0,1-.026.08924.15052.15052,0,0,1-.07915.051.10894.10894,0,0,1,.05206.03027.26169.26169,0,0,1,.04621.07065l.077.1551h-.15032l-.06693-.136a.1465.1465,0,0,0-.0409-.05577.092.092,0,0,0-.05524-.0154h-.03984" fill="#fff"/></g></svg>