<svg id="V1" xmlns="http://www.w3.org/2000/svg" viewBox="0 0 82 40"><defs><style>.cls-1{fill:#fff;}</style></defs><path class="cls-1" d="M60.26883,15.0766a22.11388,22.11388,0,0,0-6.49121-11.29,12.12527,12.12527,0,0,0-4.85351-2.62891A35.58931,35.58931,0,0,0,41.00028.47308a35.57423,35.57423,0,0,0-7.92285.68457,12.12524,12.12524,0,0,0-4.85352,2.62891,22.10526,22.10526,0,0,0-6.49219,11.29c-1.15625,4.96093.22364,8.84082,1.23145,11.67382.30176.84961.56445,1.58692.73144,2.26075a30.81061,30.81061,0,0,0,5.42578,5.74414c1.52637,1.13965,2.03418,1.33789,5.6504,1.541,2.88769.16114,5.69238.16895,6.2246.16895.53907,0,3.34864-.00781,6.23633-.16895,3.61524-.20312,4.123-.40136,5.64942-1.541a30.77091,30.77091,0,0,0,5.42578-5.74414c.167-.67383.42969-1.41016.73144-2.26075C60.04618,23.91742,61.42606,20.03753,60.26883,15.0766Zm-3.06347.54394a2.01515,2.01515,0,0,1-2.26661.55567c-1.10742-.26075-2.42285-.58789-3.61914-.88575q-.16113-.03954-.31933-.0791a1.10915,1.10915,0,0,1,.48926,1.29785c-.01563.07618-.13868.64551-.293,1.3545L50.677,20.26312a2.162,2.162,0,0,0-.0586.3418c.06641.17773.15625.417.21875.5791.02832-.002.05957-.00488.09277-.00781,1.09278-.01954,4.373-.0625,4.99122-.06836a.85553.85553,0,0,1,.8623.45605c.09082.2041.18652.42969.27344.67481a1.264,1.264,0,0,1,.03125.68847,25.89926,25.89926,0,0,1-2.38574,5.65723,11.98758,11.98758,0,0,1-3.77149,4.5459,3.12278,3.12278,0,0,1-1.65234.55859l-.28516.03516c-.33789.04724-1.94092.129-3.59082.19677a2.53563,2.53563,0,0,1-2.23926,1.19288c-1.13965.041-1.73144.041-2.166.041h-.001c-.43359,0-1.02637-.00488-2.15527-.041a2.49391,2.49391,0,0,1-2.2417-1.18634c-1.68457-.069-3.24268-.15448-3.59229-.20331l-.28418-.03516a3.12278,3.12278,0,0,1-1.65234-.55859,11.98756,11.98756,0,0,1-3.77148-4.5459,25.87729,25.87729,0,0,1-2.38672-5.65723,1.27,1.27,0,0,1,.03222-.68945c.08692-.24414.18262-.46973.27344-.67383a.82671.82671,0,0,1,.86231-.45605c.61816.00586,3.89843.04882,4.97558.06738.03906.00293.0752.00684.1084.00976.06152-.16308.15234-.40234.21875-.58007a2.16308,2.16308,0,0,0-.05859-.3418L30.805,17.86371c-.15429-.709-.27734-1.27832-.293-1.35352a1.109,1.109,0,0,1,.48925-1.29883c-.10937.02735-.21875.05469-.33007.082-1.19434.29688-2.50391.62207-3.60938.88282a2.01563,2.01563,0,0,1-2.26562-.55567,2.1092,2.1092,0,0,1,.02246-2.22461,16.25132,16.25132,0,0,1,1.94238-2.457c.14941-.16406.25488-.2793.28516-.32129a8.62411,8.62411,0,0,0,.376-.80566,17.88567,17.88567,0,0,1,1.68653-3.17774,7.29171,7.29171,0,0,1,4.49414-3.25488A37.71657,37.71657,0,0,1,41.00028,2.77a37.72649,37.72649,0,0,1,7.39843.60937,7.29961,7.29961,0,0,1,4.49415,3.25488A17.88618,17.88618,0,0,1,54.57938,9.812a8.16433,8.16433,0,0,0,.38183.81347c.02442.03418.12989.14844.27833.31348a16.08232,16.08232,0,0,1,1.94238,2.457A2.10525,2.10525,0,0,1,57.20536,15.62054Z"/><path class="cls-1" d="M40.99611,34.55511c.42963,0,1.01637.00006,2.14453-.041,1.35742-.04943,1.71582-.73047,2.21-1.74219l.06543-.13379c.14453-.293.5332-1.14648.70215-1.53418a12.91481,12.91481,0,0,0,1.05859-3.624c.041-.26563.09375-.76465.1211-1.22266l-.3086.17188c-.25488.14355-.43359.24316-.498.27246a2.60988,2.60988,0,0,1-.96875.24316c-.04688.00488-.37012.0293-.69727.03613l-.667.01758c-.93945.02442-2.252.05078-3.15723.0586-.93847.00781-2.22168-.03321-3.16113-.0586l-.66406-.01758c-.32813-.00683-.65137-.03125-.7002-.03613a2.62972,2.62972,0,0,1-.96777-.24316c-.06348-.03028-.25-.13379-.51563-.28223l-.2832-.1582c.02637.51172.08008.99414.11426,1.21875a12.93319,12.93319,0,0,0,1.05957,3.624c.16894.3877.55762,1.24121.70215,1.53418l.06445.13184c.49414,1.01269.83906,1.69943,2.21094,1.74414C39.97891,34.55055,40.56648,34.55511,40.99611,34.55511Zm.10059-1.88965h-.09864c-.03711-.001-.66894.002-1.1914-.02343-.875-.041-1.10938-.33789-1.51758-1.41211a13.89625,13.89625,0,0,1-.86035-2.99121l-.03223-.28321h7.208l-.03223.28321a13.89625,13.89625,0,0,1-.86035,2.99121h0c-.4082,1.07422-.64258,1.37109-1.51758,1.41211C41.78224,32.66253,41.30373,32.66546,41.0967,32.66546Z"/><path class="cls-1" d="M40.80228,19.00042a1.20972,1.20972,0,0,0,.19843.66645,1.21858,1.21858,0,0,0,.00064-1.332A1.21,1.21,0,0,0,40.80228,19.00042Z"/><path class="cls-1" d="M42.7455,18.02343a1.20891,1.20891,0,0,0-1.44923-.00053,1.63217,1.63217,0,0,1-.00032,1.95547,1.20818,1.20818,0,0,0,.72421.24017h.00032a1.2079,1.2079,0,0,0,.72534-.24085,1.62843,1.62843,0,0,1-.00032-1.95426Z"/><path class="cls-1" d="M38.66608,18.02351a1.21786,1.21786,0,1,0,.00048,1.95438,1.62829,1.62829,0,0,1-.00048-1.95438Z"/><path class="cls-1" d="M38.76241,19.00042a1.21013,1.21013,0,0,0,.19923.66553,1.21444,1.21444,0,0,0-.00064-1.33006A1.21069,1.21069,0,0,0,38.76241,19.00042Z"/><path class="cls-1" d="M39.9811,17.78205h-.00017a1.21008,1.21008,0,0,0-.725.24146,1.63053,1.63053,0,0,1,.00064,1.95438,1.21118,1.21118,0,0,0,1.44907.00048,1.62953,1.62953,0,0,1,.00064-1.95542A1.20846,1.20846,0,0,0,39.9811,17.78205Z"/><path class="cls-1" d="M50.73544,17.42641c.12247-.62743.22877-1.12447.23723-1.18848.04091-.31331-.08825-.45844-.36765-.61657a21.41225,21.41225,0,0,0-3.25665-1.50223l-.62471-.19983c-.7107-.11618-1.25019-.12616-2.051-.19535,0,0-2.82485-.111-3.67215-.111-.84743,0-3.67228.111-3.67228.111-.801.06919-1.34033.07917-2.05115.19535l-.62459.19983a21.39655,21.39655,0,0,0-3.25652,1.50223c-.27953.15813-.40869.30326-.36765.61657.00833.064.11464.56105.23711,1.18848.22486,1.15255.59958,2.64083.65564,2.99384a.86448.86448,0,0,1-.02639.42788c-.07512.20277-.13509.35636-.21425.529a.45312.45312,0,0,0,.00846.469A34.952,34.952,0,0,0,33.639,24.901a1.07317,1.07317,0,0,0,.46664.39989c.63368.323,1.55749.86744,1.66569.9146a2.83432,2.83432,0,0,0,1.18731.20557c.28345.012,2.48333.08267,4.04183.08264,1.55838,0,3.75838-.07064,4.0417-.08264a2.8339,2.8339,0,0,0,1.18731-.20557c.10833-.04716,1.032-.59161,1.6657-.9146a1.07323,1.07323,0,0,0,.46664-.39989,34.88823,34.88823,0,0,0,1.95-3.05485.45289.45289,0,0,0,.00858-.469c-.07928-.17268-.13913-.32627-.21413-.529a.86452.86452,0,0,1-.02651-.42788C50.13585,20.06724,50.51058,18.579,50.73544,17.42641Zm-6.67525,3.2144a1.631,1.631,0,0,1-1.019-.35725,1.62743,1.62743,0,0,1-1.02074.35725h-.00032a1.62678,1.62678,0,0,1-1.01945-.35645,1.63419,1.63419,0,0,1-2.03891-.00064,1.64112,1.64112,0,1,1-.0008-2.56589A1.6314,1.6314,0,0,1,39.98093,17.36h.00017a1.62665,1.62665,0,0,1,1.02041.35713,1.63212,1.63212,0,0,1,2.03891.0006,1.63824,1.63824,0,0,1,2.66021,1.28259A1.57981,1.57981,0,0,1,44.06019,20.64081Z"/><path class="cls-1" d="M44.06019,17.78193a1.21,1.21,0,0,0-.72485.2415,1.63035,1.63035,0,0,1,.00064,1.95426,1.21064,1.21064,0,0,0,.72421.24085,1.27391,1.27391,0,0,0,1.21837-1.21824A1.21971,1.21971,0,0,0,44.06019,17.78193Z"/><path class="cls-1" d="M42.84183,19.0003a1.20971,1.20971,0,0,0,.19923.66549,1.21439,1.21439,0,0,0-.00064-1.33A1.21067,1.21067,0,0,0,42.84183,19.0003Z"/><path class="cls-1" d="M2.91049,18.92882l.00019.00024H2.91037ZM20.07675,13.413c-.376.20068-1.0957.53027-1.791.84912-.7959.36426-1.54688.708-1.88965.90332a41.80415,41.80415,0,0,0-3.51269,3.18994l.28515.40283s3.40723-1.65039,4.63086-2.23633c.20606-.09814.58106-.22021.77442.06543a.87938.87938,0,0,1-.2002,1.07032,9.101,9.101,0,0,1-1.37793.82373c-1.50488.81054-3.56738,1.92089-4.31738,3.34326-2.88379,5.46631-6.57715,5.3789-6.623,5.38232-.49805-.043-1.14844.689-2.04785,1.82031-.126.1587-.24707.311-.3584.44629-.51367-1.25683-2.1709-5.32422-2.84082-7.186.34918-.624,1.299-1.90869,2.29041-3.21607l.01135.00855c.02337-.03076.04071-.072.06238-.106l.08221-.1084-.02051.00391A9.87278,9.87278,0,0,0,3.76621,15.038c.03222-1.3169.06836-2.80909.45312-3.1294A17.50273,17.50273,0,0,0,7.25351,8.83336c.00489-.0127.09375-.05127.27344-.002a1.45682,1.45682,0,0,1,.918,1.7295,2.96071,2.96071,0,0,1-.78418,1.665c-.1416.18165-.29981.38526-.47656.63721-.41309.5874-.72852,3.395-.335,5.34619l.49023-.09863a10.71216,10.71216,0,0,1,.24963-4.95215,36.61017,36.61017,0,0,1,3.1283-3.27441c.98633-.83057,4.50488-3.20069,5.7168-3.91651a.44514.44514,0,0,1,.67675.1294,1.54682,1.54682,0,0,1,.20313,1.331c-.17578.15381-.75488.58643-1.36816,1.04444-.86426.6455-1.84375,1.377-2.30567,1.77685a41.218,41.218,0,0,0-3.09082,3.7749l.39258.31006a31.631,31.631,0,0,1,3.26758-3.47461A32.948,32.948,0,0,1,18.84433,8.7025a.528.528,0,0,1,.75391.25537,1.71423,1.71423,0,0,1-.02149,1.48584c-.22949.15283-1.11914.53613-1.90429.87451-.82031.35352-1.59571.6875-1.917.875A35.30757,35.30757,0,0,0,12.2789,15.9774l.38282.3208a27.154,27.154,0,0,1,2.60742-2.773,18.91234,18.91234,0,0,1,2.38574-.91748c.7666-.26562,1.55957-.54,2.10449-.7666.39844-.168.54688.02051.6211.17725A1.24513,1.24513,0,0,1,20.07675,13.413Z"/><path class="cls-1" d="M79.059,18.92906h-.0003l.00018-.00024ZM61.58889,12.01842c.07422-.15674.22265-.34522.62109-.17725.54492.22656,1.33789.501,2.10449.7666a18.91265,18.91265,0,0,1,2.38575.91748,27.15617,27.15617,0,0,1,2.60742,2.773l.38281-.3208a35.30742,35.30742,0,0,0-3.47656-3.78418c-.32129-.1875-1.09668-.52148-1.917-.875-.78516-.33838-1.67481-.72168-1.9043-.87451a1.71427,1.71427,0,0,1-.02149-1.48584A.528.528,0,0,1,63.125,8.7025a32.94813,32.94813,0,0,1,4.63477,2.15722,31.63008,31.63008,0,0,1,3.26757,3.47461l.39258-.31006a41.218,41.218,0,0,0-3.09082-3.7749c-.46191-.3999-1.4414-1.13135-2.30566-1.77685-.61328-.458-1.19238-.89063-1.36817-1.04444a1.54686,1.54686,0,0,1,.20313-1.331.44515.44515,0,0,1,.67676-.1294c1.21191.71582,4.73047,3.08594,5.71679,3.91651a36.61017,36.61017,0,0,1,3.1283,3.27441,10.71216,10.71216,0,0,1,.24963,4.95215l.49024.09863c.39355-1.95117.07812-4.75879-.335-5.34619-.17676-.25195-.335-.45556-.47657-.63721a2.9607,2.9607,0,0,1-.78417-1.665,1.4568,1.4568,0,0,1,.918-1.7295c.17969-.04931.26856-.01074.27344.002A17.50308,17.50308,0,0,0,77.75,11.90855c.38477.32031.4209,1.8125.45313,3.1294a9.87261,9.87261,0,0,0,.53216,3.83154l-.02051-.00391.08222.1084c.02167.03394.039.0752.06238.106l.01135-.00855c.99139,1.30738,1.94122,2.592,2.2904,3.21607-.66992,1.86181-2.32714,5.9292-2.84082,7.186-.11132-.13525-.23242-.28759-.35839-.44629-.89942-1.13134-1.54981-1.86328-2.04786-1.82031-.04589-.00342-3.73925.084-6.623-5.38232-.75-1.42237-2.8125-2.53272-4.31739-3.34326a9.10153,9.10153,0,0,1-1.37793-.82373.87936.87936,0,0,1-.20019-1.07032c.19336-.28564.56836-.16357.77441-.06543,1.22364.58594,4.63086,2.23633,4.63086,2.23633l.28516-.40283a41.806,41.806,0,0,0-3.5127-3.18994c-.34277-.19531-1.09375-.53906-1.88965-.90332-.69531-.31885-1.415-.64844-1.791-.84912A1.24513,1.24513,0,0,1,61.58889,12.01842Z"/></svg>