<?xml version="1.0" encoding="UTF-8"?>
<svg id="Ebene_1" data-name="Ebene 1" xmlns="http://www.w3.org/2000/svg" viewBox="0 0 40 40">
  <defs>
    <style>
      .cls-1 {
        fill: #fff;
      }
    </style>
  </defs>
  <g>
    <path class="cls-1" d="M34.98438,16.58221l1.48828-.18359c-.92285-7.49854-6.80664-13.42578-14.22266-14.39697l-.12109-.02051-.1582,1.4917c6.82227,.89795,12.17383,6.28857,13.01367,13.10938Z"/>
    <path class="cls-1" d="M36.45801,20.55145l-1.49316-.14355c-.40155,3.05298-1.70862,5.80731-3.63623,7.99908,.70233,.24597,1.18066,.41486,1.51392,.5351,1.90143-2.3219,3.19006-5.16162,3.59985-8.28223l.01562-.1084Z"/>
    <path class="cls-1" d="M8.52966,28.24945c-1.8739-2.18774-3.13312-4.91699-3.50916-7.92798l-1.48828,.18555c.38843,3.1106,1.64087,5.94214,3.49823,8.26898,.37036-.13123,.85651-.30188,1.49921-.52655Z"/>
    <path class="cls-1" d="M18.1582,3.45233l-.18164-1.48926c-7.50684,.91748-13.43994,6.80127-14.4292,14.31299l-.00732,.05859,1.49512,.13281c.89893-6.8291,6.29541-12.18115,13.12305-13.01514Z"/>
  </g>
  <path class="cls-1" d="M33.57349,32.33539c-.27271-.34082-.64758-.64752-.9884-.81793s-6.74817-2.35162-7.46387-2.65839c-.7157-.3067-1.26105-1.09058-1.39734-1.39734-.13635-.30676-.57941-1.22693-.74982-1.73816s-.41083-.65601-1.05652-.78387c-.72742-.14404-.88611-.17041-2.21362-.17041s-1.48627,.02637-2.21368,.17041c-.64569,.12787-.88611,.27264-1.05652,.78387s-.61346,1.4314-.74982,1.73816c-.13629,.30676-.68164,1.09064-1.39734,1.39734-.7157,.30676-7.12305,2.48798-7.46387,2.65839s-.71576,.47711-.9884,.81793-.47711,1.12469-.47711,1.12469c0,0,2.51703,3.94562,14.34711,3.95349,11.82941-.00806,14.34631-3.95349,14.34631-3.95349,0,0-.20447-.78387-.47711-1.12469Zm-7.72125,3.44226l-1.85175-1.73175H15.40717l-1.85168,1.73168c-4.19965-.67981-6.1684-1.96265-6.94257-2.63116l1.01318-.53192s8.57806-.67254,12.07831-.68054c3.50006,.008,12.07715,.68054,12.07715,.68054l1.01331,.53198c-.77423,.66852-2.74298,1.95135-6.94263,2.63116Z"/>
</svg>