<svg id="E76E_sxm_ip_loss" xmlns="http://www.w3.org/2000/svg" viewBox="0 0 40 40"><defs><style>.cls-1,.cls-2{fill:#fff;}.cls-2{fill-rule:evenodd;}</style></defs><path class="cls-1" d="M16.33447,5.87927A27.49911,27.49911,0,0,0,.06787,14.16211l.86426.832A26.33279,26.33279,0,0,1,16.03369,7.126,3.8474,3.8474,0,0,1,16.33447,5.87927Z"/><path class="cls-1" d="M23.666,5.87927A3.83481,3.83481,0,0,1,23.9668,7.1261a26.33209,26.33209,0,0,1,15.10107,7.868l.86426-.832A27.49857,27.49857,0,0,0,23.666,5.87927Z"/><path class="cls-1" d="M23.99805,14.97742v1.23523A18.18207,18.18207,0,0,1,32.95117,21.126l.84863-.84766A19.37219,19.37219,0,0,0,23.99805,14.97742Z"/><path class="cls-1" d="M16.00244,14.97729a19.372,19.372,0,0,0-9.80224,5.301l.84863.84766a18.18382,18.18382,0,0,1,8.95361-4.91346Z"/><path class="cls-1" d="M16.00244,25.45728V24.178a11.06469,11.06469,0,0,0-3.85791,2.50561l.84863.84766a9.89949,9.89949,0,0,1,3.01075-2.0575Z"/><path class="cls-1" d="M23.99805,24.17822v1.27906l-.002.01672a9.89488,9.89488,0,0,1,3.01075,2.05725l.84863-.84766A11.06551,11.06551,0,0,0,23.99805,24.17822Z"/><path class="cls-2" d="M19.87143,5.5h.25714A2.09826,2.09826,0,0,1,22.25,7.57429V25.42585A2.09812,2.09812,0,0,1,20.12871,27.5h-.25728A2.09826,2.09826,0,0,1,17.75,25.42571V7.57429A2.09826,2.09826,0,0,1,19.87143,5.5Z"/><circle class="cls-1" cx="20" cy="34" r="2.25"/></svg>