<svg xmlns="http://www.w3.org/2000/svg" viewBox="0 0 40 40"><defs><style>.cls-1{fill:#fff;}</style></defs><g id="E157_ESP"><path class="cls-1" d="M0,27.65577V12.34423H5.62963a13.00321,13.00321,0,0,1,2.60134.24434,9.26386,9.26386,0,0,1,2.16793.7038,7.17928,7.17928,0,0,1,1.7184,1.1298A6.5154,6.5154,0,0,1,13.36723,15.94a7.01011,7.01011,0,0,1,.764,1.87206A8.86039,8.86039,0,0,1,14.39057,20a8.31428,8.31428,0,0,1-.26687,2.13307,7.06448,7.06448,0,0,1-.784,1.85527,6.7783,6.7783,0,0,1-1.2712,1.5272,7.58678,7.58678,0,0,1-1.72833,1.1564,9.2242,9.2242,0,0,1-2.15554.73013,12.13047,12.13047,0,0,1-2.555.25367ZM5.78623,25.8795a8.73832,8.73832,0,0,0,1.9262-.19867A6.45814,6.45814,0,0,0,9.2843,25.1159a4.92828,4.92828,0,0,0,1.21987-.89053,4.99933,4.99933,0,0,0,.87046-1.17774,5.637,5.637,0,0,0,.52094-1.4246,7.71357,7.71357,0,0,0,0-3.24833,5.65085,5.65085,0,0,0-.52094-1.42207,4.99325,4.99325,0,0,0-.87046-1.17786,4.92629,4.92629,0,0,0-1.21987-.89054,6.54761,6.54761,0,0,0-1.5756-.56493,8.71958,8.71958,0,0,0-1.92247-.19867H2.26183V25.8795Z"/><path class="cls-1" d="M26.3987,25.22343c.372.1102.7778.21547,1.22113.316q.6651.14721,1.40654.26334.744.11119,1.53673.17953.7947.0683,1.6094.06707a14.33618,14.33618,0,0,0,2.2532-.15567,6.84008,6.84008,0,0,0,1.65833-.45007,2.72268,2.72268,0,0,0,1.0256-.72533,1.49421,1.49421,0,0,0,.3506-.97667,1.857,1.857,0,0,0-.10513-.6392,1.52191,1.52191,0,0,0-.33193-.53146,2.53817,2.53817,0,0,0-.58367-.45247,6.2936,6.2936,0,0,0-.86413-.40927q-.5073-.2012-1.17107-.39986c-.44333-.134-.94427-.27294-1.50167-.42127q-.9074-.237-1.72333-.4812-.8154-.2407-1.50907-.52187a8.39019,8.39019,0,0,1-1.25133-.62713,4.17463,4.17463,0,0,1-.9418-.78773A3.06483,3.06483,0,0,1,26.891,17.4671a3.52375,3.52375,0,0,1-.18433-1.2712,3.43023,3.43023,0,0,1,.2192-1.17053,3.31126,3.31126,0,0,1,.60767-1.00074,4.2483,4.2483,0,0,1,.988-.81633,6.4439,6.4439,0,0,1,1.36413-.6056,10.1737,10.1737,0,0,1,1.73313-.3782,15.36214,15.36214,0,0,1,2.09907-.1316q.86441,0,1.63327.0598c.51353.04293.99706.09807,1.45026.17233q.6822.1114,1.2638.26574a4.60582,4.60582,0,0,1,.76027.23933v1.884c-.04887-.01667-.42967-.1316-.82673-.23687-.3982-.10773-.82027-.19866-1.26734-.2778-.44593-.0766-.92313-.13646-1.4278-.18186q-.759-.06831-1.62946-.06707a12.71447,12.71447,0,0,0-2.00887.13887,5.464,5.464,0,0,0-1.44413.41413,2.24943,2.24943,0,0,0-.87547.6774,1.5389,1.5389,0,0,0-.29433.9314,2.38218,2.38218,0,0,0,.0752.62467,1.41562,1.41562,0,0,0,.268.51946,2.17,2.17,0,0,0,.521.45487,5.12383,5.12383,0,0,0,.82913.41887q.4998.2084,1.19607.42146c.46466.1436,1.007.29447,1.62566.4572q1.01631.26931,1.87734.51954c.57366.16506,1.09473.34226,1.5606.5266a7.693,7.693,0,0,1,1.2312.60573,3.62484,3.62484,0,0,1,.88666.7564,2.85892,2.85892,0,0,1,.52614.97433,3.93624,3.93624,0,0,1,.15646,1.26894,3.42754,3.42754,0,0,1-.22666,1.1872,3.3376,3.3376,0,0,1-.64254,1.02933,4.55967,4.55967,0,0,1-1.0646.84993,6.9089,6.9089,0,0,1-1.4878.6392,11.70155,11.70155,0,0,1-1.92006.40214,18.25974,18.25974,0,0,1-2.3608.13893q-.853,0-1.66074-.0576-.8061-.061-1.53926-.16747-.7308-.11119-1.36654-.261a10.28277,10.28277,0,0,1-1.13713-.33986Z"/><path class="cls-1" d="M18.01683,14.57087l.00954,10.85826,5.5552-5.4262-5.56474-5.43206Z"/></g></svg>