<svg xmlns="http://www.w3.org/2000/svg" viewBox="0 0 40 40"><defs><style>.cls-1{fill:#fff;}.cls-2{fill:none;}</style></defs><g id="E77D_best_round"><g id="V1-2" data-name="V1"><polygon class="cls-1" points="21.552 12.943 27.769 2 32.324 2 23.829 16.954 21.552 12.943"/><polygon class="cls-1" points="12.231 2 21.69 18.67 17.135 18.67 7.676 2 12.231 2"/><path class="cls-1" d="M19.66686,33.358V26.25639l-2.34961.4336V25.24565l2.94727-.57715h1.13672V33.358Z"/><circle class="cls-2" cx="19.52524" cy="28.85893" r="9"/><path class="cls-1" d="M10.81833,34.64259a2.96357,2.96357,0,0,1,2.0243-.17121,2.97526,2.97526,0,0,1,1.7053.851,3.028,3.028,0,0,1-1.90878.19493A2.91126,2.91126,0,0,1,10.81833,34.64259Z"/><path class="cls-1" d="M9.90943,32.11678a2.96353,2.96353,0,0,1,2.01425.26439,2.97514,2.97514,0,0,1,1.48462,1.195,3.02787,3.02787,0,0,1-1.90644-.21657A2.91107,2.91107,0,0,1,9.90943,32.11678Z"/><path class="cls-1" d="M9.88133,28.78413a2.96349,2.96349,0,0,1,1.67428,1.15059,2.97521,2.97521,0,0,1,.7797,1.739,3.028,3.028,0,0,1-1.6-1.059A2.9111,2.9111,0,0,1,9.88133,28.78413Z"/><path class="cls-1" d="M13.01231,37.16654a2.81848,2.81848,0,0,1,1.82029-.74788,2.9754,2.9754,0,0,1,1.85078.29446,2.87775,2.87775,0,0,1-1.70572.73632A2.90933,2.90933,0,0,1,13.01231,37.16654Z"/><path class="cls-1" d="M16.05809,38.47493a2.7824,2.7824,0,0,1,1.64308-1.12544,3.07324,3.07324,0,0,1,1.92055-.08943,2.83923,2.83923,0,0,1-1.53125,1.09012A3.00284,3.00284,0,0,1,16.05809,38.47493Z"/><path class="cls-1" d="M10.21251,25.58442a2.73782,2.73782,0,0,1,1.36572,1.4132,2.54321,2.54321,0,0,1,.2929,1.77814A2.802,2.802,0,0,1,10.55448,27.463,2.48972,2.48972,0,0,1,10.21251,25.58442Z"/><path class="cls-1" d="M11.41384,22.63758a2.73775,2.73775,0,0,1,.98416,1.70109,2.5432,2.5432,0,0,1-.145,1.79627,2.802,2.802,0,0,1-.96079-1.5918A2.48962,2.48962,0,0,1,11.41384,22.63758Z"/><path class="cls-1" d="M13.58034,20.53788a2.51463,2.51463,0,0,1,.42753,1.86276,2.62348,2.62348,0,0,1-.69659,1.677,2.56992,2.56992,0,0,1-.43871-1.75284A2.56338,2.56338,0,0,1,13.58034,20.53788Z"/><path class="cls-1" d="M16.52486,19.40343a2.51465,2.51465,0,0,1-.39976,1.86892,2.62346,2.62346,0,0,1-1.34,1.22543,2.56989,2.56989,0,0,1,.34317-1.774A2.56336,2.56336,0,0,1,16.52486,19.40343Z"/><path class="cls-1" d="M19.92361,19.24988a2.51467,2.51467,0,0,1-1.20972,1.47962,2.62349,2.62349,0,0,1-1.752.47754A2.57,2.57,0,0,1,18.078,19.786,2.56344,2.56344,0,0,1,19.92361,19.24988Z"/><path class="cls-1" d="M29.18167,23.46628a2.96354,2.96354,0,0,1-2.0243.1712,2.97528,2.97528,0,0,1-1.7053-.851,3.02791,3.02791,0,0,1,1.90878-.19494A2.91118,2.91118,0,0,1,29.18167,23.46628Z"/><path class="cls-1" d="M30.09057,25.99208a2.96355,2.96355,0,0,1-2.01425-.26438,2.97512,2.97512,0,0,1-1.48462-1.195,3.028,3.028,0,0,1,1.90644.21657A2.91116,2.91116,0,0,1,30.09057,25.99208Z"/><path class="cls-1" d="M30.11867,29.32474a2.96355,2.96355,0,0,1-1.67428-1.1506,2.97522,2.97522,0,0,1-.7797-1.739,3.02791,3.02791,0,0,1,1.6,1.059A2.9111,2.9111,0,0,1,30.11867,29.32474Z"/><path class="cls-1" d="M26.98769,20.94233a2.81848,2.81848,0,0,1-1.82029.74788,2.97527,2.97527,0,0,1-1.85078-.29447,2.87775,2.87775,0,0,1,1.70572-.73632A2.90922,2.90922,0,0,1,26.98769,20.94233Z"/><path class="cls-1" d="M23.94191,19.63393a2.78238,2.78238,0,0,1-1.64308,1.12545,3.07324,3.07324,0,0,1-1.92055.08943,2.83921,2.83921,0,0,1,1.53125-1.09013A3.003,3.003,0,0,1,23.94191,19.63393Z"/><path class="cls-1" d="M29.78749,32.52444a2.73777,2.73777,0,0,1-1.36572-1.41319,2.54323,2.54323,0,0,1-.2929-1.77815,2.802,2.802,0,0,1,1.31665,1.31277A2.48969,2.48969,0,0,1,29.78749,32.52444Z"/><path class="cls-1" d="M28.58616,35.47129a2.7378,2.7378,0,0,1-.98416-1.7011,2.54316,2.54316,0,0,1,.145-1.79626,2.802,2.802,0,0,1,.96079,1.59179A2.48965,2.48965,0,0,1,28.58616,35.47129Z"/><path class="cls-1" d="M26.41966,37.571a2.51463,2.51463,0,0,1-.42753-1.86276,2.62345,2.62345,0,0,1,.69659-1.67695,3.04468,3.04468,0,0,1-.26906,3.53971Z"/><path class="cls-1" d="M23.47514,38.70544a2.51465,2.51465,0,0,1,.39976-1.86892,2.62345,2.62345,0,0,1,1.34-1.22544,3.04466,3.04466,0,0,1-1.73979,3.09436Z"/><path class="cls-1" d="M20.07639,38.859a2.51466,2.51466,0,0,1,1.20972-1.47961,2.62335,2.62335,0,0,1,1.752-.47754,2.56993,2.56993,0,0,1-1.116,1.42106A2.56338,2.56338,0,0,1,20.07639,38.859Z"/></g></g></svg>