<svg xmlns="http://www.w3.org/2000/svg" viewBox="0 0 40 40"><defs><style>.cls-1,.cls-2{fill:none;}.cls-1{stroke:#fff;stroke-miterlimit:10;stroke-width:1.5px;}.cls-3{fill:#fff;}</style></defs><g id="E77E_not_best_round"><g id="V1"><line class="cls-1" x1="4.09195" y1="35.60227" x2="35.96638" y2="3.72672"/><circle class="cls-2" cx="19.52524" cy="28.85893" r="9"/><path class="cls-3" d="M10.81833,34.64259a2.96357,2.96357,0,0,1,2.0243-.17121,2.97526,2.97526,0,0,1,1.7053.851,3.028,3.028,0,0,1-1.90878.19493A2.91126,2.91126,0,0,1,10.81833,34.64259Z"/><path class="cls-3" d="M13.01231,37.16654a2.81848,2.81848,0,0,1,1.82029-.74788,2.9754,2.9754,0,0,1,1.85078.29446,2.87775,2.87775,0,0,1-1.70572.73632A2.90933,2.90933,0,0,1,13.01231,37.16654Z"/><path class="cls-3" d="M16.05809,38.47493a2.7824,2.7824,0,0,1,1.64308-1.12544,3.07324,3.07324,0,0,1,1.92055-.08943,2.83923,2.83923,0,0,1-1.53125,1.09012A3.00284,3.00284,0,0,1,16.05809,38.47493Z"/><path class="cls-3" d="M29.18167,23.46628a2.96354,2.96354,0,0,1-2.0243.1712,2.97528,2.97528,0,0,1-1.7053-.851,3.02791,3.02791,0,0,1,1.90878-.19494A2.91118,2.91118,0,0,1,29.18167,23.46628Z"/><path class="cls-3" d="M30.09057,25.99208a2.96355,2.96355,0,0,1-2.01425-.26438,2.97512,2.97512,0,0,1-1.48462-1.195,3.028,3.028,0,0,1,1.90644.21657A2.91116,2.91116,0,0,1,30.09057,25.99208Z"/><path class="cls-3" d="M30.11867,29.32474a2.96355,2.96355,0,0,1-1.67428-1.1506,2.97522,2.97522,0,0,1-.7797-1.739,3.02791,3.02791,0,0,1,1.6,1.059A2.9111,2.9111,0,0,1,30.11867,29.32474Z"/><path class="cls-3" d="M26.98769,20.94233a2.81848,2.81848,0,0,1-1.82029.74788,2.97527,2.97527,0,0,1-1.85078-.29447,2.87775,2.87775,0,0,1,1.70572-.73632A2.90922,2.90922,0,0,1,26.98769,20.94233Z"/><path class="cls-3" d="M29.78749,32.52444a2.73777,2.73777,0,0,1-1.36572-1.41319,2.54323,2.54323,0,0,1-.2929-1.77815,2.802,2.802,0,0,1,1.31665,1.31277A2.48969,2.48969,0,0,1,29.78749,32.52444Z"/><path class="cls-3" d="M28.58616,35.47129a2.7378,2.7378,0,0,1-.98416-1.7011,2.54316,2.54316,0,0,1,.145-1.79626,2.802,2.802,0,0,1,.96079,1.59179A2.48965,2.48965,0,0,1,28.58616,35.47129Z"/><path class="cls-3" d="M26.41966,37.571a2.51463,2.51463,0,0,1-.42753-1.86276,2.62345,2.62345,0,0,1,.69659-1.67695,3.04468,3.04468,0,0,1-.26906,3.53971Z"/><path class="cls-3" d="M23.47514,38.70544a2.51465,2.51465,0,0,1,.39976-1.86892,2.62345,2.62345,0,0,1,1.34-1.22544,3.04466,3.04466,0,0,1-1.73979,3.09436Z"/><path class="cls-3" d="M20.07639,38.859a2.51466,2.51466,0,0,1,1.20972-1.47961,2.62335,2.62335,0,0,1,1.752-.47754,2.56993,2.56993,0,0,1-1.116,1.42106A2.56338,2.56338,0,0,1,20.07639,38.859Z"/><polygon class="cls-3" points="18.146 25.083 17.317 25.912 17.317 26.69 19.667 26.256 19.667 33.358 21.401 33.358 21.401 24.669 20.265 24.669 18.146 25.083"/><path class="cls-3" d="M22.5827,20.6463a2.62836,2.62836,0,0,0,1.35919-1.01239,1.421,1.421,0,0,0-.274-.07281Z"/><polygon class="cls-3" points="17.489 18.67 20.169 15.99 12.231 2 7.676 2 17.135 18.67 17.489 18.67"/><polygon class="cls-3" points="29.911 6.247 32.324 2 27.769 2 21.552 12.943 22.155 14.004 29.911 6.247"/><path class="cls-3" d="M16.55829,19.60046a1.2921,1.2921,0,0,0-.03345-.19708,2.56379,2.56379,0,0,0-1.39661,1.32037,2.93889,2.93889,0,0,0-.23742.54426Z"/><path class="cls-3" d="M14.01276,22.14606a2.42,2.42,0,0,0-.43244-1.60822,2.56354,2.56354,0,0,0-.70776,1.78687,2.88386,2.88386,0,0,0,.066.8955Z"/><path class="cls-3" d="M11.367,24.79187l.89789-.89789a2.4553,2.4553,0,0,0-.85107-1.25641,2.49,2.49,0,0,0-.12164,1.90558C11.31311,24.63214,11.34082,24.71075,11.367,24.79187Z"/><path class="cls-3" d="M10.4538,25.70514a1.38157,1.38157,0,0,0-.24128-.12073,1.42234,1.42234,0,0,0-.05535.41736Z"/><path class="cls-3" d="M11.77222,31.45709a2.32012,2.32012,0,0,0,.56311.21668,2.33994,2.33994,0,0,0-.13935-.64051Z"/><path class="cls-3" d="M11.92371,32.38116a4.62892,4.62892,0,0,0-.81916-.2564l-.63385.63391a4.23734,4.23734,0,0,0,1.03113.60095,3.02838,3.02838,0,0,0,1.9065.21655A2.97526,2.97526,0,0,0,11.92371,32.38116Z"/></g></g></svg>