<svg xmlns="http://www.w3.org/2000/svg" viewBox="0 0 40 40"><defs><style>.cls-1{fill:#ff0;}.cls-2{fill:#fff;}</style></defs><g id="SOC_20_yellow_white"><path class="cls-1" d="M34.7992,34.30332V38.8H7.2V40H35.9992V33.79058A3.582,3.582,0,0,1,34.7992,34.30332Z"/><path class="cls-1" d="M31.5992,33.46367V35.6H4v1.2H32.7992V34.17886A3.58388,3.58388,0,0,1,31.5992,33.46367Z"/><circle class="cls-2" cx="33.9992" cy="30.8" r="2.4"/><path class="cls-1" d="M21.6,12.8h3.9992v2.8H21.6Z"/><path class="cls-1" d="M28.3992,16.4V32.4H2V16.4H28.3992m1.2-1.2H.8V33.6H29.5992V15.2Z"/><path class="cls-2" d="M35.1992,12.8a1.1996,1.1996,0,1,0-2.3992,0v18h2.3992V26.4h4v-2h-4c.00061.00609,0-2.8,0-2.8h4s.0018-1.989,0-2h-4V16.8h4v-2h-4Z"/><rect class="cls-1" x="4" y="18" width="3.1992" height="12.8"/><path class="cls-1" d="M5.6,12.8H9.5992v2.8H5.6Z"/></g></svg>