<svg xmlns="http://www.w3.org/2000/svg" viewBox="0 0 44 44"><title>icid-parking_d0_1</title><g id="icid-parking_d0-2" data-name="icid-parking_d0"><g id="Ebene_1-2" data-name="Ebene 1-2"><path d="M4.5,41.5a2,2,0,0,1-2-2V4.5a2,2,0,0,1,2-2h35a2,2,0,0,1,2,2v35a2,2,0,0,1-2,2Z" fill="#7c7c7c"/><path d="M39.5,3A1.5,1.5,0,0,1,41,4.5v35A1.5,1.5,0,0,1,39.5,41H4.5A1.5,1.5,0,0,1,3,39.5V4.5A1.5,1.5,0,0,1,4.5,3h35m0-1H4.5A2.5,2.5,0,0,0,2,4.5v35A2.5,2.5,0,0,0,4.5,42h35A2.5,2.5,0,0,0,42,39.5V4.5A2.5,2.5,0,0,0,39.5,2Z" fill="#fff"/></g><path d="M17.3,34.4V24.9h5a12.89969,12.89969,0,0,0,2.9-.3,7.1,7.1,0,0,0,2.2-.6,6.90012,6.90012,0,0,0,1.7-1,5.29979,5.29979,0,0,0,1.1-1.5,6.1999,6.1999,0,0,0,.7-1.9,16.39853,16.39853,0,0,0,.2-2.2,16.39859,16.39859,0,0,0-.2-2.3,10.69986,10.69986,0,0,0-.7-1.9l-1.1-1.5a9.10006,9.10006,0,0,0-1.6-1.1,8.1,8.1,0,0,0-2.2-.7,10.29986,10.29986,0,0,0-2.6-.3H14.5V34.4Zm0-12.4V12.5h4.9a9.8,9.8,0,0,1,2.6.3,4.2,4.2,0,0,1,1.7,1.1,3.4,3.4,0,0,1,1,1.6,4.3,4.3,0,0,1,.3,1.7,5.79987,5.79987,0,0,1-.3,1.9,5.39977,5.39977,0,0,1-1,1.6,7.69965,7.69965,0,0,1-1.8,1A10.1,10.1,0,0,1,22,22Z" fill="#fff"/><path d="M41,4.5A1.5,1.5,0,0,0,39.5,3H38.2L3,37.9v1.6A1.5,1.5,0,0,0,4.5,41H6L41,6.3Z" fill="red"/></g></svg>