<svg xmlns="http://www.w3.org/2000/svg" viewBox="0 0 44 44"><title>icid-heavyvehicle_d0_1</title><g id="icid-heavyvehicle_d0-2" data-name="icid-heavyvehicle_d0"><g id="Ebene_1-2" data-name="Ebene 1-2"><path d="M3.85,39.6a1.50387,1.50387,0,0,1-1.1-.4,1.74962,1.74962,0,0,1-.7-1.4,1.88389,1.88389,0,0,1,.2-.8L20.55,5.3a1.85862,1.85862,0,0,1,1.5-.9,1.6498,1.6498,0,0,1,1.5.9l18.2,31.6a1.48611,1.48611,0,0,1,.2.9,1.97434,1.97434,0,0,1-.6,1.4,1.50387,1.50387,0,0,1-1.1.4Z" fill="none"/><path d="M3.85,39.1a1.1355,1.1355,0,0,1-.8-.3,1.23077,1.23077,0,0,1-.5-1,1.854,1.854,0,0,1,.2-.7L20.95,5.6a1.30269,1.30269,0,0,1,1.8-.4.78076.78076,0,0,1,.4.4l18.2,31.6a1.42132,1.42132,0,0,1,.2.6,1.23077,1.23077,0,0,1-.5,1,1.1355,1.1355,0,0,1-.8.3Z" fill="#666"/><polygon points="8.15 35.3 22.05 11.3 35.95 35.3 8.15 35.3" fill="#fff"/></g><rect x="16.05" y="30.9" width="2.1" height="3.6"/><rect x="18.65" y="30.9" width="2.1" height="3.6"/><rect x="23.35" y="30.9" width="2.1" height="3.6"/><rect x="25.95" y="30.9" width="2.1" height="3.6"/><rect x="21.25" y="30.9" width="1.6" height="1.6"/><polygon points="26.95 29.3 26.95 20.5 17.15 20.5 17.15 29.3 16.05 29.3 16.05 30.4 28.05 30.4 28.05 29.3 26.95 29.3" fill-rule="evenodd"/><path d="M18.15,21.6h7.8v7.7h-7.8Z" fill="#a8a8a8" fill-rule="evenodd"/></g></svg>