<svg xmlns="http://www.w3.org/2000/svg" viewBox="0 0 44 44"><title>icid-nopetrol_d0_1</title><g id="icid-nopetrol_d0-2" data-name="icid-nopetrol_d0"><g id="Ebene_1-2" data-name="Ebene 1-2"><path d="M4.5,41.5a2,2,0,0,1-2-2V4.5a2,2,0,0,1,2-2h35a2,2,0,0,1,2,2v35a2,2,0,0,1-2,2Z" fill="#7c7c7c"/><path d="M39.5,3A1.5,1.5,0,0,1,41,4.5v35A1.5,1.5,0,0,1,39.5,41H4.5A1.5,1.5,0,0,1,3,39.5V4.5A1.5,1.5,0,0,1,4.5,3h35m0-1H4.5A2.5,2.5,0,0,0,2,4.5v35A2.5,2.5,0,0,0,4.5,42h35A2.5,2.5,0,0,0,42,39.5V4.5A2.5,2.5,0,0,0,39.5,2Z" fill="#fff"/><rect x="8.3" y="8.3" width="27.4" height="27.4" fill="#fff"/></g><path d="M30.9,21.1a17.70063,17.70063,0,0,0-.1-2.4c0-.3,0-.3.3-.5s.2-.4,0-.8A8.5,8.5,0,0,0,29,14.3a5.30007,5.30007,0,0,0-1.8-1.2l-.4.4-.2.4A11.50012,11.50012,0,0,1,28,15a6.3,6.3,0,0,1,1.6,2.8c.1,1.1.3,3.9.4,5a24.99923,24.99923,0,0,0,.2,3.3c0,1.1-.2,2.2-1.2,2.2a1.8,1.8,0,0,1-1.8-1.8V21.8c0-.8,0-1.7-1.5-1.7h-.8V14.3a1.1,1.1,0,0,0-1.1-1.1H16.5a1.1,1.1,0,0,0-1.19545.99543q-.00477.05216-.00455.10457V29.4h-1v1.5H26V29.4H24.9V21.1h.6c.5,0,.6.2.6.8s-.1,3.6,0,4.6a2.8,2.8,0,0,0,2.59284,2.99286q.10341.00739.20716.00714A2.2,2.2,0,0,0,31.3,27S31.1,23.4,30.9,21.1Zm-7.5-.8H16.8V14.7h6.6Z" fill-rule="evenodd"/><path d="M41,4.5A1.5,1.5,0,0,0,39.5,3H38.2L3,37.9v1.6A1.5,1.5,0,0,0,4.5,41H6L41,6.3Z" fill="red"/></g></svg>