<svg xmlns="http://www.w3.org/2000/svg" viewBox="0 0 44 44"><defs><style>.cls-1,.cls-3{fill:#fff;}.cls-2{fill:#666;}.cls-3{stroke:#666;stroke-miterlimit:10;}</style></defs><g id="icid-accident_d0" data-name="icid-accident d0"><g id="Ebene_1-2" data-name="Ebene 1-2"><path class="cls-2" d="M3.84,39.1a1.125,1.125,0,0,1-.8-.3,1.19211,1.19211,0,0,1-.5-1,1.16728,1.16728,0,0,1,.2-.7L20.94,5.6a1.29654,1.29654,0,0,1,1.79-.41,1.33663,1.33663,0,0,1,.41.41l18.2,31.6a1.42324,1.42324,0,0,1,.2.6,1.38971,1.38971,0,0,1-.5,1,1.31885,1.31885,0,0,1-.8.3Z"/><polygon class="cls-1" points="8.14 35.3 22.04 11.3 35.94 35.3 8.14 35.3"/></g></g><g id="Ebene_1" data-name="Ebene 1"><rect x="15.38405" y="27.39211" width="3.10837" height="0.77709"/><rect x="25.52243" y="27.39211" width="3.10837" height="0.77709"/><polygon points="27.595 26.486 27.595 25.838 28.89 25.838 29.019 25.19 27.465 25.19 27.465 25.579 16.55 25.579 16.55 25.19 14.996 25.19 15.125 25.838 16.42 25.838 16.42 26.486 27.595 26.486"/><path d="M27.72419,25.83793v-.64758s-1.16564-1.94273-1.94273-2.07225a37.02438,37.02438,0,0,0-3.78821-.12951,36.47371,36.47371,0,0,0-3.75986.12951c-.77709.259-1.94273,2.07225-1.94273,2.07225v.64758L14.9955,26.615v4.92159a.47442.47442,0,0,0,.51806.51806h2.07225a.55712.55712,0,0,0,.51806-.51806V30.889H25.911v.64758a.47442.47442,0,0,0,.51807.51806h2.07224a.55711.55711,0,0,0,.51806-.51806V26.615Zm.38855,5.31013H26.81758V29.98242H17.19726v1.16564H15.90211v-4.015l1.29515-.64758V25.44938a7.5873,7.5873,0,0,1,1.16564-1.42467c.259-.12952.91052-.12952,3.63035-.12952a18.14074,18.14074,0,0,1,3.65869.12952,7.58651,7.58651,0,0,1,1.16564,1.42467V26.4855l1.29516.64758Z"/><g id="Ebene_1-2-2" data-name="Ebene 1-2"><path class="cls-3" d="M19.065,33.5209a.18143.18143,0,0,1-.129-.04838.19224.19224,0,0,1-.08063-.16125.18825.18825,0,0,1,.03226-.11288l2.93479-5.07945a.20907.20907,0,0,1,.28864-.06611.21552.21552,0,0,1,.06611.06611l2.9348,5.09558a.22952.22952,0,0,1,.03225.09675.22408.22408,0,0,1-.08063.16125.21271.21271,0,0,1-.129.04838Z"/></g></g></svg>