<svg xmlns="http://www.w3.org/2000/svg" viewBox="0 0 44 44"><title>icid-tlightdefect_d0_1</title><g id="icid-tlightdefect_d0-2" data-name="icid-tlightdefect_d0"><g id="Ebene_1-2" data-name="Ebene 1-2"><path d="M3.83508,39.59545a1.50391,1.50391,0,0,1-1.1-.4,1.74623,1.74623,0,0,1-.7-1.4,1.884,1.884,0,0,1,.2-.8l18.3-31.7a1.85862,1.85862,0,0,1,1.5-.9,1.64981,1.64981,0,0,1,1.5.9l18.2,31.6a1.486,1.486,0,0,1,.2.9,1.97434,1.97434,0,0,1-.6,1.4,1.50386,1.50386,0,0,1-1.1.4Z" fill="none"/><path d="M3.83508,39.09545a1.13548,1.13548,0,0,1-.8-.3,1.2308,1.2308,0,0,1-.5-1,1.07829,1.07829,0,0,1,.2-.7l18.2-31.5a1.30833,1.30833,0,0,1,2.2,0l18.2,31.6a1.4214,1.4214,0,0,1,.2.6,1.38856,1.38856,0,0,1-.5,1,1.32985,1.32985,0,0,1-.8.3Z" fill="#666"/><polygon points="8.135 35.295 22.035 11.295 35.935 35.295 8.135 35.295" fill="#fff"/></g><path d="M21.99128,29.0291a2.78608,2.78608,0,1,1-2.78608,2.78608h0a2.786,2.786,0,0,1,2.78592-2.78608Z" fill="#020202" fill-rule="evenodd"/><path d="M21.99128,29.529a2.28617,2.28617,0,1,1-2.2883,2.28617,2.28617,2.28617,0,0,1,2.2883-2.28617Z" fill="#00ff42" fill-rule="evenodd"/><path d="M21.99128,22.19945a2.78608,2.78608,0,1,1-2.78608,2.78608v-.00008a2.786,2.786,0,0,1,2.786-2.786Z" fill="#020202" fill-rule="evenodd"/><path d="M21.98508,22.69931a2.28617,2.28617,0,1,1-2.2883,2.28614,2.28617,2.28617,0,0,1,2.2883-2.28614Z" fill="#fff900" fill-rule="evenodd"/><path d="M21.99128,15.52918a2.786,2.786,0,1,1-.00016,0Z" fill="#020202" fill-rule="evenodd"/><path d="M21.99128,16.0291a2.28617,2.28617,0,1,1-2.2883,2.28616,2.28617,2.28617,0,0,1,2.2883-2.28616Z" fill="red" fill-rule="evenodd"/><rect x="6.32677" y="26.86336" width="25.75687" height="3.70162" transform="translate(-12.07084 14.0461) rotate(-31.09779)" fill="#666"/></g></svg>