<svg xmlns="http://www.w3.org/2000/svg" viewBox="0 0 44 44"><title>icid-danger_d0_1</title><g id="icid-danger_d0-2" data-name="icid-danger_d0"><g id="Ebene_1-2" data-name="Ebene 1-2"><path d="M3.83508,39.59545a1.50391,1.50391,0,0,1-1.1-.4,1.74623,1.74623,0,0,1-.7-1.4,1.884,1.884,0,0,1,.2-.8l18.3-31.7a1.85862,1.85862,0,0,1,1.5-.9,1.64981,1.64981,0,0,1,1.5.9l18.2,31.6a1.486,1.486,0,0,1,.2.9,1.97434,1.97434,0,0,1-.6,1.4,1.50386,1.50386,0,0,1-1.1.4Z" fill="none"/><path d="M3.83508,39.09545a1.13548,1.13548,0,0,1-.8-.3,1.2308,1.2308,0,0,1-.5-1,1.07829,1.07829,0,0,1,.2-.7l18.2-31.5a1.30833,1.30833,0,0,1,2.2,0l18.2,31.6a1.4214,1.4214,0,0,1,.2.6,1.38856,1.38856,0,0,1-.5,1,1.32985,1.32985,0,0,1-.8.3Z" fill="#666"/><polygon points="8.135 35.295 22.035 11.295 35.935 35.295 8.135 35.295" fill="#fff"/></g><path d="M22.52882,29.37326l.21272-2.17752q.02014-.24308.05061-.57979t.06839-.73179q.038-.395.07343-.82544t.06332-.86339q.02778-.43294.04553-.84821t.01773-.7799V18.48058H21.0248v4.08664q0,.36465.01774.7799t.04558.84821q.02776.43293.06332.86339.03538.43053.07088.82544t.06835.73179q.0329.33679.05823.57979l.20763,2.17752Z"/><rect x="20.86276" y="31.19127" width="2.34465" height="2.30918"/></g></svg>