<svg xmlns="http://www.w3.org/2000/svg" viewBox="0 0 44 44"><title>icid-ice_d0_1</title><g id="icid-ice_d0-2" data-name="icid-ice_d0"><g id="Ebene_1-2" data-name="Ebene 1-2"><path d="M3.83508,39.59545a1.50391,1.50391,0,0,1-1.1-.4,1.74623,1.74623,0,0,1-.7-1.4,1.884,1.884,0,0,1,.2-.8l18.3-31.7a1.85862,1.85862,0,0,1,1.5-.9,1.64981,1.64981,0,0,1,1.5.9l18.2,31.6a1.486,1.486,0,0,1,.2.9,1.97434,1.97434,0,0,1-.6,1.4,1.50386,1.50386,0,0,1-1.1.4Z" fill="none"/><path d="M3.83508,39.09545a1.13548,1.13548,0,0,1-.8-.3,1.2308,1.2308,0,0,1-.5-1,1.07829,1.07829,0,0,1,.2-.7l18.2-31.5a1.30833,1.30833,0,0,1,2.2,0l18.2,31.6a1.4214,1.4214,0,0,1,.2.6,1.38856,1.38856,0,0,1-.5,1,1.32985,1.32985,0,0,1-.8.3Z" fill="#666"/><polygon points="8.135 35.295 22.035 11.295 35.935 35.295 8.135 35.295" fill="#fff"/></g><path d="M26.37008,31.24489a.53531.53531,0,0,1-.06813.25057.50458.50458,0,0,1-.68454.20151l-.0159-.00905a.62274.62274,0,0,1-.31238-.5148V29.52206L22.754,27.96066l.001,3.16761,1.45865.73642a.52943.52943,0,0,1-.22812.99889.50332.50332,0,0,1-.24606-.06411l-.9837-.49356v1.64a.49849.49849,0,1,1-.99559.00391v-1.646l-.98744.4956a.50352.50352,0,0,1-.24612.06411.52106.52106,0,0,1-.51315-.52663.5273.5273,0,0,1,.28514-.47226l1.46157-.73642.01425-3.1735L19.23527,29.522v1.65106a.61838.61838,0,0,1-.31976.507.50458.50458,0,0,1-.69139-.17655l-.009-.01591a.53712.53712,0,0,1-.06923-.25063l-.06715-1.10769-1.384.82013a.50547.50547,0,0,1-.69258-.177l-.00879-.01545a.53518.53518,0,0,1,.18464-.71705l1.3886-.824-.904-.616a.51585.51585,0,0,1-.177-.18652.53375.53375,0,0,1,.18734-.71908.50451.50451,0,0,1,.54155.0175l1.34407.91523,2.67625-1.58562-2.67416-1.5838-1.34231.9153a.50314.50314,0,0,1-.54055.01749.53426.53426,0,0,1-.18839-.719.51867.51867,0,0,1,.178-.18657l.90022-.614-1.384-.82013a.53586.53586,0,0,1-.18746-.72091.5072.5072,0,0,1,.68926-.19853l.00743.0042,1.38965.82388.06813-1.11149a.54168.54168,0,0,1,.06836-.25267.50706.50706,0,0,1,.68878-.19952l.0127.00723a.62866.62866,0,0,1,.31491.51485v1.65106L21.76691,26.132l-.001-3.16943L20.30708,22.228a.53175.53175,0,0,1-.28513-.4722.51981.51981,0,0,1,.5129-.52663h.00023a.50323.50323,0,0,1,.24623.06406l.98353.49356v-1.64a.49853.49853,0,1,1,.99576-.00584v1.648l.98744-.49565a.50353.50353,0,0,1,.24612-.06406.51981.51981,0,0,1,.51309.52644v.00019a.53171.53171,0,0,1-.285.4722l-1.46069.73654-.01431,3.1714,2.54183-1.56714V22.91783a.61463.61463,0,0,1,.31624-.50715.506.506,0,0,1,.69283.17907l.00755.01328a.53641.53641,0,0,1,.06912.2508l.06813,1.10951,1.384-.822a.50633.50633,0,0,1,.69318.17958l.00731.01283a.53406.53406,0,0,1-.1836.71705l-1.38975.82393.90412.618a.50254.50254,0,0,1,.177.18652.53422.53422,0,0,1-.18734.71909.50481.50481,0,0,1-.54154-.0175L25.962,25.46356l-2.67491,1.58759L25.96025,28.635l1.34237-.91529a.49664.49664,0,0,1,.54132-.01755.533.533,0,0,1,.18756.71909.51181.51181,0,0,1-.178.18657l-.90016.61408,1.38381.82008a.53448.53448,0,0,1,.1885.71893.50678.50678,0,0,1-.68832.19969l-.00942-.00531-1.38959-.822Z"/></g></svg>