<svg xmlns="http://www.w3.org/2000/svg" viewBox="0 0 44 44"><title>icid-animal_d0_1</title><g id="icid-animal_d0-2" data-name="icid-animal_d0"><g id="Ebene_1-2" data-name="Ebene 1-2"><path d="M3.84,39.6a1.48909,1.48909,0,0,1-1.1-.4,1.69743,1.69743,0,0,1-.7-1.4,2.00981,2.00981,0,0,1,.2-.8L20.54,5.3a1.88311,1.88311,0,0,1,1.5-.9,1.61551,1.61551,0,0,1,1.5.9l18.2,31.6a1.49573,1.49573,0,0,1,.2.9,1.994,1.994,0,0,1-.6,1.4,1.48909,1.48909,0,0,1-1.1.4Z" fill="none"/><path d="M3.84,39.1a1.125,1.125,0,0,1-.8-.3,1.19211,1.19211,0,0,1-.5-1,1.148,1.148,0,0,1,.2-.7L20.94,5.6a1.29855,1.29855,0,0,1,1.79-.41,1.3362,1.3362,0,0,1,.41.41l18.2,31.6a1.42324,1.42324,0,0,1,.2.6,1.38969,1.38969,0,0,1-.5,1,1.31884,1.31884,0,0,1-.8.3Z" fill="#666"/><polygon points="8.14 35.3 22.04 11.3 35.94 35.3 8.14 35.3" fill="#fff"/></g><path d="M28.25,25.77c.84-.02,1.63-.13,1.64.98v3.29l.31.31-.48,1.07a2.019,2.019,0,0,1-.3-1.13s.01-2.9.01-3.28c.01-.96-.67-.72-.67-.72a1.40952,1.40952,0,0,1,.21.72c0,.41-.05,7.68-.05,7.68h-.89a1.97924,1.97924,0,0,0,.2-1.33,3.43122,3.43122,0,0,0-.95-2.09c-.26.73-1.42,3.42-1.42,3.42h-.89a2.7086,2.7086,0,0,0,.69-1.33,3.22941,3.22941,0,0,0-.69-2.76l-2.58.51.2,3.58H21.7a2.44618,2.44618,0,0,0,.1-1.23,3.41863,3.41863,0,0,0-.79-1.94c-.1.92-.4,3.17-.4,3.17h-.89a11.99586,11.99586,0,0,0,.4-1.33,5.2941,5.2941,0,0,0-.69-3.07,16.85663,16.85663,0,0,0-1.83-2.3H15.24a.76.76,0,0,1-.62-.26l-.31-.36c.39-.46,2.41-2.41,2.41-2.41l-1.39-.82h1.9l.56.67.51-.51a1.14692,1.14692,0,0,1,.15.56,2.18851,2.18851,0,0,1-.15.56l2.52.36h7.43Z"/></g></svg>