<svg id="V2" xmlns="http://www.w3.org/2000/svg" viewBox="0 0 44 44"><defs><style>.cls-1,.cls-4{fill:#fff;}.cls-2{fill:#656565;}.cls-3{fill:#005bac;}.cls-4,.cls-5,.cls-6,.cls-7{stroke:#000;}.cls-4,.cls-5,.cls-6{stroke-miterlimit:10;}.cls-4,.cls-5,.cls-7{stroke-width:1.2px;}.cls-5,.cls-6,.cls-7{fill:none;}.cls-7{stroke-linejoin:round;}</style></defs><circle class="cls-1" cx="22" cy="22.00002" r="20"/><circle class="cls-2" cx="22" cy="22.00002" r="19.3"/><ellipse class="cls-1" cx="25.5" cy="22.00002" rx="6.5" ry="13"/><path class="cls-3" d="M25.5,9.5c3.25234,0,6,5.7243,6,12.5s-2.74766,12.5-6,12.5-6-5.7243-6-12.5,2.74766-12.5,6-12.5m0-1c-3.866,0-7,6.04416-7,13.5s3.134,13.5,7,13.5,7-6.04415,7-13.5S29.366,8.5,25.5,8.5Z"/><path class="cls-4" d="M25.5,8.5h-7c-3.866,0-7,6.04416-7,13.5s3.134,13.5,7,13.5h7"/><ellipse class="cls-4" cx="25.5" cy="22.00002" rx="7" ry="13.5"/><line class="cls-5" x1="25.5" y1="8.50002" x2="25.5" y2="35.50002"/><line class="cls-5" x1="18.5" y1="22.00002" x2="32.5" y2="22.00002"/><line class="cls-5" x1="21.48407" y1="10.94178" x2="29.51556" y2="33.05726"/><line class="cls-5" x1="19.25185" y1="15.90696" x2="31.74815" y2="28.09309"/><line class="cls-6" x1="29.51556" y1="10.94274" x2="21.48407" y2="33.05822"/><line class="cls-6" x1="31.74815" y1="15.90694" x2="19.25184" y2="28.09308"/><path class="cls-1" d="M25.5,29.90041c-1.37158,0-2.8999-3.24512-2.8999-7.90039,0-4.65576,1.52832-7.8999,2.8999-7.8999,1.37207,0,2.90039,3.24414,2.90039,7.8999C28.40039,26.65529,26.87207,29.90041,25.5,29.90041Z"/><path d="M25.5,14.7c.68784,0,2.3,2.48366,2.3,7.3s-1.61216,7.3-2.3,7.3-2.3-2.48366-2.3-7.3,1.61216-7.3,2.3-7.3m0-1.2C23.567,13.5,22,17.3056,22,22s1.567,8.5,3.5,8.5S29,26.69444,29,22,27.433,13.5,25.5,13.5Z"/><path d="M22.83333,26.88891c1.13687,0,2.05848-2.18883,2.05848-4.88889s-.92161-4.88889-2.05848-4.88889l-.73309,2.41169-.1558,3.31764.22608,2.12677Z"/><polyline class="cls-7" points="17.295 8.7 21.484 10.942 13.912 11.804 19.252 15.907 11.808 18.165 18.5 22"/><polyline class="cls-7" points="17.295 35.3 21.484 33.059 13.912 32.197 19.252 28.094 11.808 25.835 18.5 22"/></svg>