<svg xmlns="http://www.w3.org/2000/svg" viewBox="0 0 44 44"><title>icid-fallingrocks_d0_1</title><g id="icid-fallingrocks_d0-2" data-name="icid-fallingrocks_d0"><g id="Ebene_1-2" data-name="Ebene 1-2"><path d="M3.83934,39.60147a1.5,1.5,0,0,1-1.1-.4,1.7,1.7,0,0,1-.7-1.4,1.90019,1.90019,0,0,1,.2-.8l18.3-31.7a1.9,1.9,0,0,1,1.5-.9,1.6,1.6,0,0,1,1.5.9l18.2,31.6a1.50011,1.50011,0,0,1,.2.9,2.0001,2.0001,0,0,1-.6,1.4,1.5,1.5,0,0,1-1.1.4Z" fill="none"/><path d="M3.83934,39.10147a1.1,1.1,0,0,1-.8-.3,1.2,1.2,0,0,1-.5-1,1.10008,1.10008,0,0,1,.2-.7l18.2-31.5a1.3,1.3,0,0,1,2.2,0l18.2,31.6a1.15109,1.15109,0,0,1-.3,1.6,1.3,1.3,0,0,1-.8.3Z" fill="#666"/><polygon points="8.139 35.301 22.039 11.301 35.939 35.301 8.139 35.301" fill="#fff"/></g><polygon points="25.539 18.501 23.239 19.601 22.739 22.901 23.139 23.501 22.439 24.001 22.939 28.801 22.339 29.301 21.639 33.601 17.139 33.601 18.939 32.601 19.139 31.301 18.039 30.401 16.339 29.901 15.539 30.101 14.839 30.101 13.139 31.901 13.839 33.101 14.339 33.101 14.939 33.701 9.739 33.701 9.139 34.701 34.939 34.701 25.539 18.501" fill-rule="evenodd"/><polygon points="22.739 19.401 24.239 17.601 23.739 17.001 23.439 17.001 22.439 16.401 20.639 16.801 20.639 17.601 19.739 18.301 20.439 19.701 22.739 19.401" fill-rule="evenodd"/><polygon points="19.639 26.201 20.139 26.201 21.039 25.101 20.839 24.801 20.839 23.601 19.939 23.401 18.339 24.601 18.339 26.001 19.239 26.801 19.639 26.201" fill-rule="evenodd"/><polygon points="16.539 28.601 17.739 27.801 18.039 26.601 17.339 25.901 16.839 26.201 16.439 25.801 15.239 26.701 15.439 28.301 16.539 28.601" fill-rule="evenodd"/></g></svg>