<svg xmlns="http://www.w3.org/2000/svg" viewBox="0 0 44 44"><title>icid-ecalldefect_d0_1</title><g id="icid-ecalldefect_d0-2" data-name="icid-ecalldefect_d0"><g id="Ebene_1-2" data-name="Ebene 1-2"><path d="M4.5,41.5a2.00588,2.00588,0,0,1-2-2V4.5a2.00588,2.00588,0,0,1,2-2h35a2.00588,2.00588,0,0,1,2,2v35a2.00588,2.00588,0,0,1-2,2Z" fill="#003f87"/><path d="M4.5,41.5a2.00588,2.00588,0,0,1-2-2V4.5a2.00588,2.00588,0,0,1,2-2h35a2.00588,2.00588,0,0,1,2,2v35a2.00588,2.00588,0,0,1-2,2Z" fill="#666"/><path d="M39.5,3A1.498,1.498,0,0,1,41,4.5v35A1.498,1.498,0,0,1,39.5,41H4.5A1.498,1.498,0,0,1,3,39.5V4.5A1.498,1.498,0,0,1,4.5,3h35m0-1H4.5A2.50091,2.50091,0,0,0,2,4.5v35A2.50091,2.50091,0,0,0,4.5,42h35A2.50091,2.50091,0,0,0,42,39.5V4.5A2.50091,2.50091,0,0,0,39.5,2Z" fill="#fff"/><rect x="8.3" y="8.3" width="27.4" height="27.4" fill="#fff"/></g><path d="M25.09,27.72a1.42784,1.42784,0,0,1-.99-.19l-7.14-7.14a1.67931,1.67931,0,0,1-.4-1.46,2.30718,2.30718,0,0,1,.34-.88l-4.52-6.52a6.92007,6.92007,0,0,0-.92,1.23,5.81763,5.81763,0,0,0-.66,1.64,7.08927,7.08927,0,0,0-.17,1.45l2.87,4.77a31.9947,31.9947,0,0,0,3.76,5.05c.56.6,1.14,1.18,1.75,1.74.79.73,1.61,1.43,2.46,2.09a7.1917,7.1917,0,0,0,.86.58l6.05,3.48a10.24088,10.24088,0,0,0,1.44-.4,8.08152,8.08152,0,0,0,1.56-.77,8.8991,8.8991,0,0,0,1.15-.87l-6.58-4.13A1.9583,1.9583,0,0,1,25.09,27.72Z"/><path d="M33.69,29.42a.52226.52226,0,0,0-.16-.29,1.30148,1.30148,0,0,0-.23-.18l-5.59-3.42c-.17-.1-.23-.16-.44-.11a.48232.48232,0,0,0-.33.22l-.61,1.11,6.64,4.2.7-1.08A.6957.6957,0,0,0,33.69,29.42Z"/><path d="M18.39,16.91l.15-.12a.44225.44225,0,0,0,.15-.23.56122.56122,0,0,0-.11-.45l-3.62-5.52a.473.473,0,0,0-.22-.2.94689.94689,0,0,0-.3-.08.69217.69217,0,0,0-.44.11l-.98.7,4.4,6.41Z"/><path d="M41,4.5A1.498,1.498,0,0,0,39.5,3H38.2L3,37.9v1.6A1.498,1.498,0,0,0,4.5,41H6L41,6.3Z" fill="red"/></g></svg>