<svg xmlns="http://www.w3.org/2000/svg" viewBox="0 0 40 40"><g id="EA45_flag_southkorea"><rect y="7" width="40" height="26" fill="#fff" /><path id="b" d="M6.59474,15.06933l3.698-5.547M7.9815,15.99383l3.698-5.547m-2.31125,6.4715,3.698-5.547" stroke="#000" stroke-width="0.88889" /><line x1="26.93375" y1="28.62867" x2="30.63175" y2="23.08167" /><polygon points="27.304 28.875 26.563 28.383 30.262 22.836 31.002 23.328 27.304 28.875" /><line x1="28.3205" y1="29.55317" x2="32.0185" y2="24.00617" /><polygon points="28.69 29.799 27.95 29.307 31.648 23.76 32.389 24.252 28.69 29.799" /><line x1="29.70725" y1="30.47767" x2="33.40526" y2="24.93067" /><polygon points="30.077 30.724 29.337 30.231 33.035 24.685 33.775 25.177 30.077 30.724" /><path d="M27.85825,25.23884l4.6225,3.08166" stroke="#fff" stroke-width="0.88889" /><circle cx="20" cy="20" r="6.66667" fill="#c60c30" /><path d="M14.453,16.302A3.33333,3.33333,0,1,0,20,20a3.33333,3.33333,0,0,1,5.547,3.698,6.66666,6.66666,0,1,1-11.094-7.396Z" fill="#003478" /><line x1="10.29275" y1="30.47767" x2="6.59475" y2="24.93067" stroke="#000" stroke-width="0.88889" /><line x1="11.6795" y1="29.55317" x2="7.9815" y2="24.00617" /><polygon points="11.31 29.799 7.611 24.252 8.352 23.76 12.05 29.307 11.31 29.799" /><line x1="13.06625" y1="28.62867" x2="9.36825" y2="23.08167" stroke="#000" stroke-width="0.88889" /><line x1="30.63175" y1="16.91833" x2="26.93375" y2="11.37133" /><polygon points="30.262 17.164 26.563 11.617 27.304 11.125 31.002 16.672 30.262 17.164" /><line x1="32.0185" y1="15.99383" x2="28.3205" y2="10.44683" stroke="#000" stroke-width="0.88889" /><line x1="33.40525" y1="15.06933" x2="29.70725" y2="9.52233" stroke="#000" stroke-width="0.88889" /><path d="M9.13712,27.24192l1.38675-.9245M27.85825,14.76116l1.61788-1.07858m1.38675-.9245,1.38675-.9245" stroke="#fff" stroke-width="0.88889" /></g></svg>