<svg xmlns="http://www.w3.org/2000/svg" viewBox="0 0 44 44"><title>icid-delay_d0_m-nar</title><g id="icid-delay_d0_m-nar"><path d="M22,41.8a1.60584,1.60584,0,0,1-1.1-.5L2.7,23.1a1.56944,1.56944,0,0,1,0-2.2L20.9,2.7a1.46,1.46,0,0,1,2.2,0L41.3,20.9a1.56944,1.56944,0,0,1,0,2.2L23.1,41.3A1.60584,1.60584,0,0,1,22,41.8Z"/><path d="M22,2.5a.97479.97479,0,0,1,.9.4L41.1,21.1a1.22153,1.22153,0,0,1,.4.9,1.08577,1.08577,0,0,1-.4.9L22.9,41.1a1.22153,1.22153,0,0,1-.9.4,1.08577,1.08577,0,0,1-.9-.4L2.9,22.9a1.39083,1.39083,0,0,1,0-1.9L21.1,2.9a.97479.97479,0,0,1,.9-.4M22,2a2.10617,2.10617,0,0,0-1.3.5L2.5,20.7a1.872,1.872,0,0,0,0,2.6L20.7,41.5A1.65586,1.65586,0,0,0,22,42a2.10617,2.10617,0,0,0,1.3-.5L41.5,23.3a1.872,1.872,0,0,0,0-2.6L23.3,2.5A2.10617,2.10617,0,0,0,22,2Z" fill="#ffc600"/><path d="M21.8,40.4,3.6,22.2a.44637.44637,0,0,1,0-.5L21.8,3.6a.44637.44637,0,0,1,.5,0L40.5,21.8a.44637.44637,0,0,1,0,.5L22.2,40.4A.30417.30417,0,0,1,21.8,40.4Z" fill="#ffc600"/><path d="M24.63847,22.29044l2.27647,3.47395.032,4.008-9.11446.0063-.05266-4.032,2.29536-3.5186.01316-1.05094-2.3131-2.33944v-5.115h9.15625l.01373,5.12878-2.29364,2.32684Zm-1.31482,3.45563h.76553l-.00194,1.71437,1.75271-.004-.00629-1.71952-2.51-3.61247Zm-4.37646-.00057.001,1.82026H20.6226l.02389-1.81969h.75386V22.12444Zm6.86014-9.72007-6.86948-.00916L18.92411,17.18l6.87463-.03091Z" fill-rule="evenodd"/></g></svg>