<svg xmlns="http://www.w3.org/2000/svg" viewBox="0 0 44 44"><title>icid-fire_d0_m-nar</title><g id="icid-fire_d0_m-nar"><g id="Bildmaterial_1" data-name="Bildmaterial 1"><path d="M22,41.8a1.60584,1.60584,0,0,1-1.1-.5L2.7,23.1a1.56944,1.56944,0,0,1,0-2.2L20.9,2.7a1.46,1.46,0,0,1,2.2,0L41.3,20.9a1.56944,1.56944,0,0,1,0,2.2L23.1,41.3A1.60584,1.60584,0,0,1,22,41.8Z"/><path d="M22,2.5a.97479.97479,0,0,1,.9.4L41.1,21.1a1.22153,1.22153,0,0,1,.4.9,1.08577,1.08577,0,0,1-.4.9L22.9,41.1a1.22153,1.22153,0,0,1-.9.4,1.08577,1.08577,0,0,1-.9-.4L2.9,22.9a1.39083,1.39083,0,0,1,0-1.9L21.1,2.9a.97479.97479,0,0,1,.9-.4M22,2a2.10617,2.10617,0,0,0-1.3.5L2.5,20.7a1.872,1.872,0,0,0,0,2.6L20.7,41.5A1.65586,1.65586,0,0,0,22,42a2.10617,2.10617,0,0,0,1.3-.5L41.5,23.3a1.872,1.872,0,0,0,0-2.6L23.3,2.5A2.10617,2.10617,0,0,0,22,2Z" fill="#ffc600"/><path d="M21.8,40.4,3.6,22.2a.44637.44637,0,0,1,0-.5L21.8,3.6a.44637.44637,0,0,1,.5,0L40.5,21.8a.44637.44637,0,0,1,0,.5L22.2,40.4A.30417.30417,0,0,1,21.8,40.4Z" fill="#ffc600"/></g><path d="M26.383,31.44482h-1.63a8.01207,8.01207,0,0,0,1.574-2.424c-.269.236-1.66.351-1.277-.701.423-1.162.021-1.192,0-1.25.155.546-.664.615-.667.625a1.9456,1.9456,0,0,0,0-1.25.68439.68439,0,0,1,0-.625,2.94192,2.94192,0,0,0-.666.625,5.21376,5.21376,0,0,0,.116-1.474,3.922,3.922,0,0,0-.783-1.026c-.118.529.033.638-.283,1.026-.294.362-1.103.922-1.05,1.474-.258-.646-1.334-.625-1.334-.625a3.43117,3.43117,0,0,1,.667,1.875,2.19655,2.19655,0,0,0-1.333-.625,4.588,4.588,0,0,1,0,1.875,1.76979,1.76979,0,0,0-1.334-.625,13.30621,13.30621,0,0,0,2.669,3.125H18.383c-2.866-1.248-4.634-5.729-5.333-8.125a6.12464,6.12464,0,0,1,3.333.625,13.52927,13.52927,0,0,0-.666-3.75,3.84,3.84,0,0,1,2.666.625c.288-1.804-1.333-4.375-1.333-4.375s3.402-.3,4,1.25c-.123-1.324,1.56-2.129,2.243-2.997a4.97271,4.97271,0,0,0,1.09-2.628,12.877,12.877,0,0,1,1.334,2.5,7.82282,7.82282,0,0,1,0,2.5,21.03153,21.03153,0,0,1,2-1.25c.023.007-1.068,1.588-.667,2.5a5.26618,5.26618,0,0,1,0,3.125c.297-.138,2.359-.565,2-1.875.022.012,1.647.961.667,3.75-.917,2.605,1.041,1.466,1.303.765C30.886,25.09982,30.146,30.24883,26.383,31.44482Z" fill-rule="evenodd"/></g></svg>