<svg xmlns="http://www.w3.org/2000/svg" viewBox="0 0 44 44"><title>icid-ice_d0_m-nar</title><g id="icid-ice_d0_m-nar"><g id="Bildmaterial_1" data-name="Bildmaterial 1"><path d="M22,41.8a1.60584,1.60584,0,0,1-1.1-.5L2.7,23.1a1.56944,1.56944,0,0,1,0-2.2L20.9,2.7a1.46,1.46,0,0,1,2.2,0L41.3,20.9a1.56944,1.56944,0,0,1,0,2.2L23.1,41.3A1.60584,1.60584,0,0,1,22,41.8Z"/><path d="M22,2.5a.97479.97479,0,0,1,.9.4L41.1,21.1a1.22153,1.22153,0,0,1,.4.9,1.08577,1.08577,0,0,1-.4.9L22.9,41.1a1.22153,1.22153,0,0,1-.9.4,1.08577,1.08577,0,0,1-.9-.4L2.9,22.9a1.39083,1.39083,0,0,1,0-1.9L21.1,2.9a.97479.97479,0,0,1,.9-.4M22,2a2.10617,2.10617,0,0,0-1.3.5L2.5,20.7a1.872,1.872,0,0,0,0,2.6L20.7,41.5A1.65586,1.65586,0,0,0,22,42a2.10617,2.10617,0,0,0,1.3-.5L41.5,23.3a1.872,1.872,0,0,0,0-2.6L23.3,2.5A2.10617,2.10617,0,0,0,22,2Z" fill="#ffc600"/><path d="M21.8,40.4,3.6,22.2a.44637.44637,0,0,1,0-.5L21.8,3.6a.44637.44637,0,0,1,.5,0L40.5,21.8a.44637.44637,0,0,1,0,.5L22.2,40.4A.30417.30417,0,0,1,21.8,40.4Z" fill="#ffc600"/></g><path d="M27.8285,27.9365a.75058.75058,0,0,1-.096.355.71774.71774,0,0,1-.994.272.88182.88182,0,0,1-.443-.728v-2.335l-3.596-2.208.001,4.479,2.07,1.042a.748.748,0,0,1-.324,1.412.7218.7218,0,0,1-.349-.09l-1.395-.698v2.319a.70736.70736,0,1,1-1.413.006v-2.328l-1.4.701a.72472.72472,0,0,1-.349.09.73739.73739,0,0,1-.728-.744.7457.7457,0,0,1,.404-.668l2.073-1.042.021-4.487-3.602,2.216v2.335a.87617.87617,0,0,1-.454.717.71774.71774,0,0,1-.994-.272.765.765,0,0,1-.098-.355l-.095-1.566-1.963,1.16a.71843.71843,0,0,1-.995-.272.75494.75494,0,0,1,.262-1.014l1.97-1.166-1.283-.871a.72972.72972,0,0,1-.251-.263.75347.75347,0,0,1,.266-1.017.71488.71488,0,0,1,.768.025l1.907,1.294,3.796-2.243-3.793-2.239-1.905,1.294a.7155.7155,0,0,1-.766.025.7539.7539,0,0,1-.268-1.017.73812.73812,0,0,1,.253-.264l1.277-.868-1.963-1.16a.75518.75518,0,0,1-.266-1.019.71978.71978,0,0,1,.988-.275l1.971,1.165.097-1.572a.7714.7714,0,0,1,.097-.357.72093.72093,0,0,1,.995-.272.89024.89024,0,0,1,.447.728v2.335l3.591,2.21-.002-4.482-2.069-1.038a.75261.75261,0,0,1-.404-.668.73614.73614,0,0,1,.727-.745.71546.71546,0,0,1,.35.091l1.395.698v-2.32a.70679.70679,0,1,1,1.412-.008v2.331l1.401-.701a.71449.71449,0,0,1,.349-.091.73634.73634,0,0,1,.728.745.75261.75261,0,0,1-.404.668l-2.072,1.041-.021,4.485,3.606-2.216v-2.335a.87066.87066,0,0,1,.449-.717.71887.71887,0,0,1,.993.272.75321.75321,0,0,1,.098.355l.097,1.569,1.963-1.163a.72024.72024,0,0,1,.994.272.7537.7537,0,0,1-.261,1.014l-1.971,1.165,1.283.874a.72547.72547,0,0,1,.251.264.7542.7542,0,0,1-.266,1.017.719.719,0,0,1-.768-.025l-1.907-1.297-3.795,2.245,3.792,2.24,1.904-1.295a.705.705,0,0,1,.768-.024.75183.75183,0,0,1,.266,1.017.724.724,0,0,1-.252.263l-1.277.869,1.963,1.159a.75494.75494,0,0,1,.267,1.017.72038.72038,0,0,1-.99.275l-1.971-1.163Z" fill-rule="evenodd"/></g></svg>