<svg xmlns="http://www.w3.org/2000/svg" viewBox="0 0 44 44"><defs><style>.cls-1{fill:#ffc600;}.cls-2{fill:#fff;stroke:#e52421;stroke-miterlimit:10;stroke-width:1.07915px;}</style></defs><g data-name="Ebene 1"><path d="m22 41.8a1.61 1.61 0 0 1-1.1-0.5l-18.2-18.2a1.57 1.57 0 0 1 0-2.2l18.2-18.2a1.46 1.46 0 0 1 2.2 0l18.2 18.2a1.57 1.57 0 0 1 0 2.2l-18.2 18.2a1.61 1.61 0 0 1-1.1 0.5z" /><path class="cls-1" d="M22,2.484a.975.975,0,0,1,.9.4l18.2,18.2a1.22,1.22,0,0,1,.4.9,1.09,1.09,0,0,1-.4.9l-18.2,18.2a1.22,1.22,0,0,1-.9.4,1.09,1.09,0,0,1-.9-.4L2.9,22.884a1.39,1.39,0,0,1,0-1.9l18.2-18.1a.975.975,0,0,1,.9-.4m0-.5a2.11,2.11,0,0,0-1.3.5L2.5,20.684a1.87,1.87,0,0,0,0,2.6l18.2,18.2a1.66,1.66,0,0,0,1.3.5,2.11,2.11,0,0,0,1.3-.5l18.2-18.2a1.87,1.87,0,0,0,0-2.6L23.3,2.484A2.11,2.11,0,0,0,22,1.984Z" /><path class="cls-1" d="M21.8,40.384,3.6,22.184a.446.446,0,0,1,0-.5l18.2-18.1a.446.446,0,0,1,.5,0l18.2,18.2a.446.446,0,0,1,0,.5l-18.3,18.1A.304.304,0,0,1,21.8,40.384Z" /><rect height=".99" width="3.96" x="13.6" y="21" /><rect height=".99" width="3.96" x="26.5" y="21" /><polygon points="29.1 19.9 29.1 19.1 30.8 19.1 30.9 18.2 29 18.2 29 18.7 15 18.7 15 18.2 13.1 18.2 13.2 19.1 14.9 19.1 14.9 19.9" /><path d="m29.3 19.1v-0.825s-1.48-2.47-2.47-2.64a47.1 47.1 0 0 0-4.82-0.165 46.4 46.4 0 0 0-4.79 0.165c-0.99 0.33-2.47 2.64-2.47 2.64v0.825l-1.65 0.99v6.27a0.604 0.604 0 0 0 0.66 0.66h2.64a0.71 0.71 0 0 0 0.66-0.66v-0.825h9.94v0.825a0.604 0.604 0 0 0 0.66 0.66h2.64a0.709 0.709 0 0 0 0.66-0.66v-6.27zm0.495 6.76h-1.65v-1.48h-12.3v1.48h-1.65v-5.11l1.65-0.825v-1.32a9.66 9.66 0 0 1 1.48-1.81c0.33-0.165 1.16-0.165 4.62-0.165s3.83 0 4.66 0.165a9.66 9.66 0 0 1 1.48 1.81v1.32l1.65 0.825z" /><g data-name="Ebene 1-2"><path class="cls-2" d="m18.3 29.6a0.231 0.231 0 0 1-0.164-0.0616 0.245 0.245 0 0 1-0.103-0.205 0.24 0.24 0 0 1 0.0411-0.144l3.74-6.47a0.266 0.266 0 0 1 0.368-0.0842 0.275 0.275 0 0 1 0.0842 0.0842l3.74 6.49a0.292 0.292 0 0 1 0.0411 0.123 0.285 0.285 0 0 1-0.103 0.205 0.271 0.271 0 0 1-0.164 0.0616z" /></g></g></svg>