<?xml version="1.0" encoding="UTF-8"?>
<svg id="Ebene_1" data-name="Ebene 1" xmlns="http://www.w3.org/2000/svg" xmlns:xlink="http://www.w3.org/1999/xlink" viewBox="0 0 44 53">
  <defs>
    <style>
      .cls-1 {
        fill: url(#Zusatzschild_Rahmen_schwarz);
      }

      .cls-2 {
        fill: url(#Zusatzschild_Rahmen_schwarz-3);
      }

      .cls-3 {
        fill: url(#Unbenannter_Verlauf);
      }

      .cls-4 {
        fill: url(#Zusatzschild_Hintergrund_weiss);
      }

      .cls-5 {
        fill: url(#Zusatzschild_Rahmen_schwarz-2);
      }
    </style>
    <linearGradient id="Unbenannter_Verlauf" data-name="Unbenannter Verlauf" x1="7" y1="10.8435" x2="37" y2="10.8435" gradientTransform="translate(0 53.96875) scale(1 -1)" gradientUnits="userSpaceOnUse">
      <stop offset="0" stop-color="#fff"/>
      <stop offset="1" stop-color="#000"/>
    </linearGradient>
    <linearGradient id="Zusatzschild_Hintergrund_weiss" x1="7.3999" y1="10.84399" x2="36.59961" y2="10.84399" gradientTransform="translate(0 53.96875) scale(1 -1)" gradientUnits="userSpaceOnUse">
      <stop offset="1" stop-color="#fff"/>
      <stop offset="1" stop-color="#000"/>
    </linearGradient>
    <linearGradient id="Zusatzschild_Rahmen_schwarz" x1="6.99969" y1="43.12524" x2="36.99969" y2="43.12524" gradientUnits="userSpaceOnUse">
      <stop offset="1" stop-color="#000"/>
      <stop offset="1" stop-color="#010101"/>
    </linearGradient>
    <linearGradient id="Zusatzschild_Rahmen_schwarz-2" data-name="Zusatzschild_Rahmen_schwarz" x1="7.24969" y1="10.6188" x2="36.74969" y2="10.6188" gradientTransform="translate(0 53.96875) scale(1 -1)" xlink:href="#Zusatzschild_Rahmen_schwarz"/>
    <linearGradient id="Zusatzschild_Rahmen_schwarz-3" data-name="Zusatzschild_Rahmen_schwarz" x1="7.24969" y1="10.54357" x2="36.74969" y2="10.54357" gradientTransform="translate(0 53.96875) scale(1 -1)" xlink:href="#Zusatzschild_Rahmen_schwarz"/>
  </defs>
  <path id="Zusatzschild_Hintergrund_weiss-2" data-name="Zusatzschild Hintergrund weiss-2" class="cls-3" d="M34.49243,35.12524l-24.98508,.002c-1.38309,.0042-2.50325,1.12443-2.50735,2.50752v10.9833c.00403,1.38307,1.12428,2.50325,2.50735,2.50718l24.98548-.002c1.383-.00417,2.50308-1.12432,2.50717-2.50732v-10.98331c-.00403-1.38319-1.12438-2.50345-2.50757-2.50737Z"/>
  <path class="cls-4" d="M9.5083,50.72436c-1.15918-.00293-2.10498-.94824-2.1084-2.10742v-10.98242c.00342-1.1582,.94922-2.10352,2.1084-2.10645l24.98389-.00293c1.1582,.00391,2.10449,.9502,2.10742,2.1084v10.98242c-.00293,1.1582-.94824,2.10352-2.10742,2.10645l-24.98389,.00195Z"/>
  <path id="Zusatzschild_Rahmen_schwarz-2" data-name="Zusatzschild Rahmen schwarz-2" class="cls-1" d="M34.70253,36.62524c.43911,.00067,.79672,.37391,.79715,.83064v11.33522c-.00043,.45818-.35807,.83145-.7952,.83208l-25.40724,.00206c-.43915-.00043-.79693-.37353-.79756-.82964v-11.3361c.00047-.45841,.35831-.83173,.79621-.8322l25.40664-.00206m.00208-1.5l-25.40883,.00206c-1.26755,.00135-2.29477,1.04403-2.29609,2.33066v11.33764c.00177,1.28627,1.02889,2.3284,2.29609,2.32964l25.40883-.00206c1.26719-.00181,2.29386-1.04439,2.29508-2.33066v-11.33664c-.00122-1.28627-1.02789-2.32884-2.29508-2.33064h0Z"/>
  <path class="cls-5" d="M11.26074,47.81871c.45869-.6294,.80252-1.33492,1.01563-2.084,.15601-.60655,.26474-1.22429,.32519-1.84766,.05371-.58691,.082-1.05957,.082-1.418v-1.5254h-.52926c-.21766-.00581-.43539,.00859-.65039,.043v-.77341c.32389,.03579,.64979,.05016,.97558,.043h2.39844c.56836-.02832,.86654-.04265,.89453-.043v.77343c-.29688-.03426-.59573-.04862-.89453-.043h-1.50393v1.76172h1.91016c-.05467,.57325-.08169,1.03159-.08106,1.375l-.2041,2.96485c.00946,.32706-.16214,.6327-.44629,.79492-.35921,.20109-.76746,.29782-1.17871,.2793-.00677-.29339-.06153-.58369-.16211-.85938,.27733,.04252,.56102-.00254,.81153-.12891,.21183-.16116,.32073-.42372,.28515-.6875l.20313-3.00781h-1.1377c-.02543,.55482-.08675,1.10741-.18359,1.6543-.09196,.52111-.23456,1.03199-.42578,1.52539-.23797,.57515-.53791,1.12266-.89453,1.63281-.15845-.19791-.36973-.34687-.60936-.42965Zm1.666-9.36718c.41454,.37926,.80803,.7809,1.17871,1.20312-.20948,.165-.40038,.35231-.56934,.5586-.31512-.45747-.6836-.87578-1.09765-1.2461,.20479-.12654,.37308-.30425,.4883-.51562h-.00002Zm5.34375,.39551c-.18262,.26074-.42546,.63641-.72852,1.127h1.86623c.667,0,1.22787-.01433,1.68262-.043v.78027c-.45508-.02832-.87988-.04394-1.27344-.04394h-2.59375c-.36425,.52148-.75845,1.05631-1.18261,1.60449-.30372-.17383-.54688-.30273-.72852-.39063,.44792-.49296,.84449-1.03023,1.18359-1.60351,.34857-.57616,.63812-1.18602,.86426-1.82031,.28625,.16672,.59194,.29758,.91016,.38963h-.00002Zm-1.95606,4.3789c0-.376-.0153-.7663-.0459-1.1709h.86426c-.03027,.31836-.04492,.65137-.04492,.99707l1.0459-.30273c0-.63574-.0153-1.21387-.0459-1.73438h.86426c-.03027,.26075-.04524,.79525-.04492,1.60352l1.95605-.56348c-.03125,.60742-.04655,1.09896-.0459,1.47461v1.55959c.02335,.30549-.1376,.5955-.40918,.73731-.29925,.15366-.62204,.25631-.95508,.30371-.07068-.2809-.19431-.54572-.36425-.78028,.63672,.02933,.95508-.12952,.95508-.47656v-1.82131l-1.13672,.30371v1.73342c0,.376,.01497,.91083,.04492,1.60449h-.86426c.03027-.69334,.04557-1.22816,.0459-1.60449v-1.60353l-1.0459,.30371v3.12109c-.03125,.4336,.16569,.6504,.59082,.65039h2.09277c.14859,.00053,.29576-.02903,.43262-.08691,.13574-.05762,.24935-.40429,.34082-1.04,.30773,.12177,.62807,.2089,.95508,.25976-.06208,.42979-.22579,.83857-.47754,1.19239-.21148,.17584-.47606,.27526-.751,.28222h-3.04781c-.45596,.04627-.86309-.28584-.90936-.7418-.00571-.0563-.00565-.11304,.00018-.16933v-3.29399l-.54687,.17285-.18164-.69336,.72849-.21679Z"/>
  <path class="cls-2" d="M24.60156,39.30309h5.58594l1.332-.0459v.86035l-1.20312-.04492h-2.36326v6.70508h2.707l1.76172-.04492v.86035l-1.71872-.04489h-6.57421l-1.50391,.04492v-.86035l1.54688,.04492h2.83593v-6.70511h-2.36328l-1.20312,.04492v-.8603l1.16015,.04585Z"/>
</svg>