<svg xmlns="http://www.w3.org/2000/svg" xmlns:xlink="http://www.w3.org/1999/xlink" viewBox="0 0 44 53"><defs><linearGradient id="Hintergrund_weiss" x1="2.32028" y1="43.94779" x2="41.67972" y2="43.94779" gradientUnits="userSpaceOnUse"><stop offset="0" stop-color="#fff"/></linearGradient><linearGradient id="Rahmen_schwarz" x1="2" y1="44.004" x2="42" y2="44.004" gradientUnits="userSpaceOnUse"><stop offset="0" stop-color="#010101"/></linearGradient><linearGradient id="Beschriftung_schwarz" x1="10.51025" y1="43.64296" x2="33.48975" y2="43.64296" xlink:href="#Rahmen_schwarz"/></defs><title>zusatzschild_mph</title><g id="Zusatzschild_mph"><path id="Hintergrund_weiss-2" data-name="Hintergrund_weiss" d="M2.32028,37.00507V48.41051a2.52563,2.52563,0,0,0,1.15625,2.10782,2.8114,2.8114,0,0,0,1.30255.37218H39.21972a2.46772,2.46772,0,0,0,1.73906-.72444,2.51642,2.51642,0,0,0,.72094-1.75556V37.00507Z" fill="url(#Hintergrund_weiss)"/><path id="Rahmen_schwarz-2" data-name="Rahmen_schwarz" d="M41,37.00507V48.50293a1.53789,1.53789,0,0,1-1.5,1.5H4.5a1.88394,1.88394,0,0,1-.79993-.2A1.70956,1.70956,0,0,1,3,48.50293V37.00507H2V48.50293a2.24515,2.24515,0,0,0,1.20007,2.1,3.25859,3.25859,0,0,0,1.29993.4h35a2.47568,2.47568,0,0,0,2.5-2.5V37.00507Z" fill="url(#Rahmen_schwarz)" stroke-width="0.5px" stroke="url(#Rahmen_schwarz)"/><path id="Beschriftung_schwarz-2" data-name="Beschriftung_schwarz" d="M17.40771,47.328h-1.2871V42.829l-2.167,4.499-2.15625-4.499v4.499H10.51025V39.9579h1.28711l2.15625,4.37793,2.167-4.37793h1.2871Zm5.96192-2.89258H21.25732V47.328H19.937V39.9579h3.38867a2.4993,2.4993,0,0,1,1.26465.3086,2.12121,2.12121,0,0,1,1.13281,1.94628A2.08524,2.08524,0,0,1,24.59033,44.204,3.06772,3.06772,0,0,1,23.36963,44.43544Zm1.0332-2.22266a.86432.86432,0,0,0-.28515-.68164,1.12218,1.12218,0,0,0-.77051-.25293H21.25732v1.83692h2.08985a1.13965,1.13965,0,0,0,.77051-.248A.8225.8225,0,0,0,24.40283,42.21278ZM33.48975,47.328H32.18018V44.09364l-3.31055.03321V47.328H27.54932V39.9579h1.32031v2.84863h3.31055V39.9579h1.30957Z" fill="url(#Beschriftung_schwarz)"/></g></svg>