<svg xmlns="http://www.w3.org/2000/svg" viewBox="0 0 40 40"><g id="EA45_flag_taiwan"><rect y="7" width="40" height="26" fill="#fe0000" /><rect y="7" width="20" height="13" fill="#000095" /><path d="M12.49408,14.00159,15,13.33325,12.494,12.665l1.83618-1.83179-2.5044.67432L12.5,9.00317l-1.83167,1.83606L10,8.33325l-.66833,2.506L7.5,9.00317l.67426,2.5044-2.5044-.67432L7.506,12.665,5,13.33325l2.50592.66834L5.66986,15.83325l2.5044-.67419L7.5,17.66345l1.83167-1.83606L10,18.33325l.66833-2.50586L12.5,17.66345l-.67426-2.50439,2.5044.67419ZM11.15472,14l-.24414.24475-.24389.24329-.324.08716L10,14.66663l-.333-.08875L9.33337,14.488l-.24157-.241L8.84534,14l-.10883-.40417-.07-.26258.07209-.27026.10675-.39636.245-.24561.243-.24243.30823-.083L10,12l.36163.09644.30506.08215.24475.24414.24328.2439.10028.37243.0785.29419-.07654.287Z" fill="#fff" /><circle cx="10" cy="13.33333" r="2.83333" fill="#000095" /><circle cx="10" cy="13.33333" r="2.5" fill="#fff" /></g></svg>