<svg xmlns="http://www.w3.org/2000/svg" viewBox="0 0 40 40"><g id="EA45_flag_papuaneuginea"><rect y="7" width="40" height="26" fill="#252525" /><path d="M0,7H40V33Z" fill="#ce1126" /><polygon points="12.166 25.487 11.948 24.78 11.728 25.487 11.031 25.487 11.595 25.915 11.386 26.588 11.94 26.176 12.51 26.607 12.296 25.911 12.866 25.487 12.166 25.487" fill="#fff" /><polygon points="9.316 17.081 8.898 18.426 10.005 17.603 11.145 18.466 10.717 17.073 11.856 16.226 10.456 16.226 10.021 14.811 9.581 16.226 8.186 16.226 9.316 17.081" fill="#fff" /><polygon points="6.14 21.744 5.705 20.329 5.265 21.744 3.87 21.744 5 22.599 4.581 23.944 5.689 23.121 6.829 23.983 6.401 22.591 7.54 21.744 6.14 21.744" fill="#fff" /><polygon points="15.012 22.199 16.152 21.351 14.752 21.351 14.317 19.937 13.877 21.351 12.481 21.351 13.611 22.207 13.193 23.552 14.3 22.728 15.44 23.591 15.012 22.199" fill="#fff" /><polygon points="10.456 29.199 10.021 27.784 9.581 29.199 8.186 29.199 9.316 30.054 8.898 31.399 10.005 30.576 11.145 31.439 10.717 30.046 11.856 29.199 10.456 29.199" fill="#fff" /><path d="M24.8813,13.82358c-.27965.36121-.94141-.36334-1.73419-.37989s-1.35435.75973-1.58554,1.024a8.41211,8.41211,0,0,0-.95792,1.80023c.0165.14865.46249-.41288.62763-.512.0165.19819-.18169.42944-.13214.49548s.578-.39638.75972-.41288c.04955.13214-.0991.26424-.04955.46243.0661.06605.36339-.33034.56158-.41288.033.14864-.18169.42943-.0661.61107.0826.0165.578-.56153.74323-.62762s-.0826.545,0,.59458c.14864-.0991.61112-.62763.75977-.69368s-.0165.67718.04955.67718a4.94369,4.94369,0,0,0,.69367-.85882c.04955-.0991-.04955.95791.46244,1.51949A7.42292,7.42292,0,0,0,26.3843,18.316c.09909-.1817-.033-.56153.04954-.545a2.7831,2.7831,0,0,0,.75973.61108c.09909,0-.0661-.39639.066-.39639a5.56843,5.56843,0,0,0,2.51046,1.66814c-.09909-.28079-.31383-.52853-.33034-.66063a4.5167,4.5167,0,0,0,.512.16515c.066-.01655-.72673-.991-.67718-1.12311.18169-.0165.26429.09909.33034.0165-.0826-.1321-.77627-.90837-.77627-1.09006s.21474.033.28079,0-.26424-.72673-.1982-.80927.79273.44593.97442.44593.04955-.64413.13214-.67718.69373.34684.82583.34684.11559-.28079.16514-.24774a3.45346,3.45346,0,0,1,.991,3.15459,2.12234,2.12234,0,0,1-2.93984,1.3213,1.84158,1.84158,0,0,0,1.70114.545,2.25828,2.25828,0,0,0,1.75069-2.54346,3.279,3.279,0,0,0-.74323-2.13057c-.08255-.24774.1322.06605.31384.13214s-.03305-.34688-.0826-.52858.545.37989.69368.42944-.34684-1.3543-.49548-1.4534.14864.033.24774.06605-.90842-1.536-1.12311-1.536.18164-.08259.29729-.08259a4.90734,4.90734,0,0,0-1.3708-1.024c-.21474,0,.46238-.26429.52848-.28079a3.01887,3.01887,0,0,0-2.8903.0165c-.0826-.066.669-.58625.69368-.80922.00827-.05782-.24769-.18169-.26424-.24774s.39638-.26424.41288-.41288c-.09909-.13215-.28079-.0826-.37989-.1156-.02472-.12387.34689-.42943.31384-.56153-.02477-.07432-.29734-.0991-.36338-.04955s.17346-.34684.13214-.46243c-.033-.04955-.16514-.0165-.29729.0165-.08259-.0165.42944-.72673.33034-.82582a4.03651,4.03651,0,0,0-1.99848,1.65159,3.27907,3.27907,0,0,0-.18164,1.98193c-.0661.31379-.14869.62762-.36339.62762a2.036,2.036,0,0,1-.87532-.49548c-.16519-.16514-.19819-.28079-.42943-.34684a3.63116,3.63116,0,0,0-.95792.14865c-.19819.0165-.97446-.14865-1.024-.0991a6.49919,6.49919,0,0,0,.94142.44594c.18169.09909.19824.23124.33034.31378S25.27769,13.3116,24.8813,13.82358Zm4.83923,2.32877c.39638.39638,3.072,2.18012,3.072,4.36024a2.0101,2.0101,0,0,1-2.51046,2.048,2.04315,2.04315,0,0,0,3.00594-2.048c0-2.18012-3.072-4.36024-3.46838-4.55844S29.32414,15.756,29.72053,16.15235Z" fill="#fcd116" /></g></svg>