<?xml version="1.0" encoding="UTF-8"?>
<svg id="Ebene_1" data-name="Ebene 1" xmlns="http://www.w3.org/2000/svg" viewBox="0 0 44 44">
  <defs>
    <style>
      .cls-1 {
        fill: #00f300;
      }

      .cls-2 {
        fill: none;
        stroke: #00f300;
        stroke-miterlimit: 10;
        stroke-width: 4px;
      }
    </style>
  </defs>
  <circle cx="22" cy="22.00024" r="20"/>
  <path class="cls-1" d="M22,3.09024C11.6,3.09024,3.1,11.55024,3.1,21.99024s8.46,18.9,18.9,18.9,18.9-8.46,18.9-18.9S32.44,3.09024,22,3.09024Zm0,32.9c-7.73,0-14-6.27-14-14S14.27,7.99024,22,7.99024s14,6.27,14,14-6.27,14-14,14Z"/>
  <path class="cls-1" d="M20.8,21.00024c-.111-.15-.205-.312-.28-.483l-1.05-2.43c-.106-.243-.347-.4-.612-.4h-6.67c-.265,.00021-.505,.157-.612,.4l-1.05,2.43c-.0748,.171-.169,.333-.28,.483l-.16,.213c-.104,.138-.161,.307-.161,.48v1.73c0,.368,.299,.667,.667,.667h9.87c.368,0,.667-.299,.667-.667v-1.73c-.00029-.173-.0564-.341-.16-.48l-.169-.213Zm-9.62-.374l.917-2.11c.0424-.0975,.139-.16,.245-.16h6.35c.106-.00015,.202,.0627,.245,.16l.917,2.11H11.18Zm-.601,3.74h1.6v1.47c-.00055,.221-.179,.399-.4,.4h-.801c-.221-.00055-.399-.179-.4-.4,0,0,.001-1.47,.001-1.47Zm8.27,0h1.6v1.47c-.00055,.221-.18,.4-.401,.4h-.801c-.221,0-.4-.179-.401-.4,0,0,.003-1.47,.003-1.47Zm15-3.15l-.159-.213c-.111-.15-.206-.312-.281-.483l-1.05-2.43c-.106-.243-.346-.4-.611-.4h-6.67c-.265,.00009-.505,.157-.611,.4l-1.06,2.43c-.0749,.171-.169,.333-.28,.483l-.161,.213c-.103,.139-.159,.307-.159,.48v1.73c-.00055,.368,.297,.666,.665,.667h9.872c.368,0,.667-.299,.667-.667v-1.73c0-.173-.0565-.342-.161-.48h-.001Zm-9.78-.587l.917-2.11c.043-.097,.139-.16,.245-.16h6.35c.106,0,.202,.0628,.244,.16l.918,2.11h-8.674Zm7.67,3.74h1.6v1.47c-.00055,.221-.179,.399-.4,.4h-.801c-.221,0-.4-.179-.4-.4l.001-1.47Zm-8.27,0h1.6v1.47c-.00055,.221-.18,.4-.401,.4h-.8c-.221-.00055-.399-.179-.4-.4,0,0,.001-1.47,.001-1.47Z"/>
  <line class="cls-2" x1="25.1" y1="7.00024" x2="34.6" y2="33.20024"/>
</svg>