<svg xmlns="http://www.w3.org/2000/svg" viewBox="0 0 40 40"><g id="EA45_flag_hongkong"><rect y="7" width="40" height="26" fill="#de2910" /><g id="petal"><path d="M19.9984,19.99615c-4.67836-1.97717-2.60452-8.0703,1.86976-7.764a1.37724,1.37724,0,0,0-.51942,2.13734,2.0944,2.0944,0,0,1-.83582,2.70078,1.70218,1.70218,0,0,0-.51452,2.92591Z" fill="#fff" /><path d="M19.74542,15.59643l-.2631.41306-.09532-.48063-.47458-.12264.42776-.23953-.02982-.48887.35935.33287.45581-.17968-.20491.44486.31117.378Z" fill="#de2910" /><path d="M20.02489,19.94485a2.5743,2.5743,0,0,1-1.22082-1.61917,3.07729,3.07729,0,0,1,.35925-2.44612l-.09813-.06195a3.19481,3.19481,0,0,0-.3727,2.53862A2.6539,2.6539,0,0,0,19.97192,20.048Z" fill="#de2910" /></g><g id="petal-2" data-name="petal"><path d="M20.00317,19.99729c.4347-5.06036,6.87047-4.97091,7.96182-.621a1.37725,1.37725,0,0,0-2.19325.16647,2.09439,2.09439,0,0,1-2.82687.03968,1.70218,1.70218,0,0,0-2.9417.41482Z" fill="#fff" /><path d="M24.10937,18.3971l-.47414-.12258.42765-.23917-.03-.48925.36.3328.45573-.17943-.20553.44462.31174.378-.48641-.05741-.26336.41276Z" fill="#de2910" /><path d="M20.06014,20.00663a2.57427,2.57427,0,0,1,1.16267-1.66142,3.0773,3.0773,0,0,1,2.43742-.41423l.02858-.11246a3.19473,3.19473,0,0,0-2.52953.43,2.65389,2.65389,0,0,0-1.21359,1.73959Z" fill="#de2910" /></g><g id="petal-3" data-name="petal"><path d="M20.00355,20.00217c4.947-1.1503,6.85071,4.99812,3.05092,7.38025A1.37724,1.37724,0,0,0,22.2184,25.348a2.09439,2.09439,0,0,1-.91129-2.67625,1.7022,1.7022,0,0,0-1.30356-2.66955Z" fill="#fff" /><path d="M22.79431,23.41292l-.02993-.48882.35961.33282.456-.17974-.20527.44522.31148.378-.48637-.05807-.26315.41328-.09571-.48035-.47394-.12292Z" fill="#de2910" /><path d="M20.01228,20.05925a2.57427,2.57427,0,0,1,1.93939.59236,3.07724,3.07724,0,0,1,1.14715,2.19011l.1158-.00757A3.19482,3.19482,0,0,0,22.024,20.5613a2.65394,2.65394,0,0,0-2.02946-.61663Z" fill="#de2910" /></g><g id="petal-4" data-name="petal"><path d="M19.999,20.00405c2.62272,4.34943-2.6365,8.05992-6.07625,5.18222a1.37724,1.37724,0,0,0,1.67652-1.42384A2.0944,2.0944,0,0,1,17.863,22.06874,1.70219,1.70219,0,0,0,19.999,20.00405Z" fill="#fff" /><path d="M17.61761,23.7122l.45564-.17952-.2054.44486.31187.37817-.48686-.05765-.26322.413-.09507-.48051L16.8602,24.108l.42726-.23946-.02955-.48872Z" fill="#de2910" /><path d="M19.94744,20.03a2.57425,2.57425,0,0,1,.03594,2.02751A3.07731,3.07731,0,0,1,18.255,23.8253l.043.10779a3.19478,3.19478,0,0,0,1.79368-1.83472,2.65387,2.65387,0,0,0-.04069-2.12068Z" fill="#de2910" /></g><g id="petal-5" data-name="petal"><path d="M19.99585,20.00033c-3.32609,3.8384-8.48016-.01681-6.80625-4.17746a1.37724,1.37724,0,0,0,1.87222,1.15447,2.0944,2.0944,0,0,1,2.31031,1.62949,1.70219,1.70219,0,0,0,2.62372,1.3935Z" fill="#fff" /><path d="M15.73329,18.88134l.31154.37787-.48656-.05788-.26329.41346-.09563-.48084-.47415-.1227.42762-.23891-.03-.489.35977.33235.45567-.17913Z" fill="#de2910" /><path d="M19.95524,19.95928a2.57427,2.57427,0,0,1-1.91718.66072,3.0773,3.0773,0,0,1-2.21538-1.09756l-.08924.07419a3.1948,3.1948,0,0,0,2.2992,1.13893,2.65388,2.65388,0,0,0,2.00431-.694Z" fill="#de2910" /></g></g></svg>