<?xml version="1.0" encoding="UTF-8"?>
<svg id="Ebene_1" data-name="Ebene 1" xmlns="http://www.w3.org/2000/svg" viewBox="0 0 44 44">
  <defs>
    <style>
      .cls-1 {
        fill: #fff;
      }

      .cls-2 {
        fill: #c1121c;
      }

      .cls-3 {
        fill: #010101;
      }
    </style>
  </defs>
  <g>
    <path class="cls-1" d="M10.65381,22.72095h21.7002c.57967,0,1.05029,.47062,1.05029,1.05029v15.49902c0,.57994-.47084,1.05078-1.05078,1.05078H10.65381c-.5794,0-1.0498-.4704-1.0498-1.0498v-15.50049c0-.5794,.4704-1.0498,1.0498-1.0498Z"/>
    <path d="M32.35394,23.22108c.30327,0,.55,.24673,.55,.55v15.5c0,.30327-.24673,.55-.55,.55H10.65394c-.30327,0-.55-.24673-.55-.55v-15.5c0-.30327,.24673-.55,.55-.55h21.7m0-1H10.65394c-.85604,0-1.55,.69396-1.55,1.55v15.5c0,.85604,.69396,1.55,1.55,1.55h21.7c.85604,0,1.55-.69396,1.55-1.55v-15.5c0-.85604-.69396-1.55-1.55-1.55h0Z"/>
  </g>
  <path class="cls-3" d="M20.50394,24.77108v2.64h-.486v-2.64h-.702v-.431h1.9v.431h-.712Zm3.19,1.81c-.04518,.19526-.12955,.37932-.248,.541-.08175,.11229-.19088,.2018-.317,.26-.13452,.0588-.28023,.08757-.427,.0843-.1878,.00749-.37382-.03901-.536-.134-.15382-.10259-.27523-.24689-.35-.416-.07112-.15279-.1235-.31363-.156-.479-.03874-.1835-.05874-.37046-.0597-.558-.00113-.23827,.02916-.47565,.0901-.706,.04979-.195,.13266-.38002,.245-.547,.08608-.11293,.19923-.20235,.329-.26,.14445-.0596,.29978-.08832,.456-.0843,.17654-.00552,.35079,.04109,.501,.134,.15259,.10478,.27445,.24839,.353,.416,.06957,.1533,.12028,.31448,.151,.48,.03655,.18645,.055,.376,.0551,.566,.0009,.23705-.0282,.47326-.0866,.703h.0001Zm-.4-.703c.00097-.16219-.01478-.32404-.047-.483-.02559-.13303-.07181-.26124-.137-.38-.03981-.07137-.09732-.1313-.167-.174-.07136-.03898-.15075-.06095-.232-.0642h-.0275c-.10103-.00336-.19995,.0294-.279,.0924-.08706,.07826-.15221,.17787-.189,.289-.04259,.10713-.07243,.2189-.0889,.333-.02024,.12834-.03041,.25807-.0304,.388-.00042,.16018,.01532,.31999,.047,.477,.02419,.13246,.07051,.25991,.137,.377,.08184,.15532,.24671,.24869,.422,.239,.1019,.00389,.20175-.02933,.281-.0935,.08813-.08114,.15419-.18333,.192-.297,.03833-.10435,.0664-.2122,.0838-.322,.02233-.12547,.03424-.25257,.0356-.38l-.0006-.0017Zm-9.85,6.4c-.04518,.19527-.12955,.37932-.248,.541-.08175,.11229-.19088,.2018-.317,.26-.13451,.0588-.28023,.08757-.427,.0843-.18781,.00755-.37384-.03896-.536-.134-.15382-.1026-.27523-.24689-.35-.416-.07112-.15279-.1235-.31363-.156-.479-.03874-.1835-.05874-.37046-.0597-.558-.00113-.23827,.02916-.47565,.0901-.706,.04979-.195,.13266-.38002,.245-.547,.08608-.11293,.19923-.20235,.329-.26,.14445-.0596,.29978-.08832,.456-.0843,.17654-.00552,.35079,.04109,.501,.134,.15259,.10478,.27445,.24839,.353,.416,.06957,.1533,.12028,.31448,.151,.48,.03655,.18645,.055,.376,.0551,.566,.0009,.23705-.0282,.47326-.0866,.703h.0001Zm-.4-.703c.00097-.16219-.01478-.32404-.047-.483-.02559-.13303-.07181-.26124-.137-.38-.03981-.07137-.09732-.1313-.167-.174-.07136-.03898-.15075-.06095-.232-.0642h-.0275c-.10103-.00336-.19995,.0294-.279,.0924-.08706,.07826-.15221,.17787-.189,.289-.04259,.10713-.07243,.2189-.0889,.333-.02024,.12834-.03041,.25807-.0304,.388-.00042,.16018,.01532,.31999,.047,.477,.02419,.13246,.07051,.25991,.137,.377,.08184,.15532,.24671,.24868,.422,.239,.1019,.00389,.20175-.02933,.281-.0935,.08813-.08113,.15419-.18333,.192-.297,.03833-.10435,.0664-.2122,.0838-.322,.02233-.12547,.03424-.25257,.0356-.38l-.0006-.0017Zm3.26,1.53v-3.07h-.486v1.96l-1.12-1.96h-.486v3.07h.486v-2.08l1.17,2.08h.436Zm2.76-.624l-.463-.174c-.04571,.10596-.11639,.19929-.206,.272-.07829,.05793-.17363,.08819-.271,.086-.09382,.00291-.18691-.01739-.271-.0591-.07792-.04318-.14389-.10503-.192-.18-.06716-.11753-.11478-.24519-.141-.378-.03457-.15934-.05187-.32195-.0516-.485-.00023-.12894,.00994-.25769,.0304-.385,.01683-.11176,.04666-.22117,.0889-.326,.03863-.11539,.11025-.21691,.206-.292,.09208-.06248,.20183-.09365,.313-.0889,.09642-.00662,.1926,.01596,.276,.0648,.09328,.07025,.17092,.15913,.228,.261l.454-.193c-.08154-.19082-.21405-.35551-.383-.476-.17224-.10777-.37298-.1611-.576-.153-.1568-.00305-.31249,.02686-.457,.0878-.12981,.05758-.24399,.14535-.333,.256-.11928,.16183-.20527,.34571-.253,.541-.11061,.41495-.12103,.85024-.0304,1.27,.03428,.16626,.08938,.32753,.164,.48,.08255,.17142,.2123,.31574,.374,.416,.17334,.09529,.36934,.14161,.567,.134,.20036,.00587,.3971-.0542,.56-.171,.167-.13209,.29406-.30796,.367-.508l-.0003,.0004Zm2.79-.909c.0009,.23705-.0282,.47326-.0866,.703-.04518,.19527-.12955,.37932-.248,.541-.08175,.11229-.19088,.2018-.317,.26-.13452,.0588-.28023,.08757-.427,.0843-.1878,.0075-.37382-.03901-.536-.134-.15382-.1026-.27523-.24689-.35-.416-.07112-.15279-.1235-.31363-.156-.479-.03874-.1835-.05874-.37046-.0597-.558-.00113-.23827,.02916-.47565,.0901-.706,.04979-.195,.13266-.38002,.245-.547,.08608-.11293,.19923-.20235,.329-.26,.14445-.0596,.29978-.08832,.456-.0843,.17654-.00552,.35079,.04109,.501,.134,.15259,.10478,.27445,.24839,.353,.416,.06957,.1533,.12028,.31448,.151,.48,.03655,.18645,.055,.376,.0551,.566h.0001Zm-.486,0c.00097-.16219-.01478-.32404-.047-.483-.02559-.13303-.07181-.26124-.137-.38-.03981-.07137-.09732-.1313-.167-.174-.07136-.03898-.15075-.06095-.232-.0642h-.0275c-.10103-.00336-.19995,.0294-.279,.0924-.08706,.07826-.15221,.17787-.189,.289-.04259,.10713-.07243,.2189-.0889,.333-.02024,.12834-.03041,.25807-.0304,.388-.00043,.16018,.01532,.31999,.047,.477,.02419,.13246,.07051,.25991,.137,.377,.08184,.15532,.24671,.24869,.422,.239,.1019,.00389,.20175-.02933,.281-.0935,.08813-.08113,.15419-.18333,.192-.297,.03833-.10435,.0664-.2122,.0838-.322,.02233-.12547,.03424-.25257,.0356-.38l-.0006-.0017Zm3.56,1.53v-3.07h-.486l-.711,1.73-.711-1.73h-.486v3.07h.486v-1.78l.711,1.78,.711-1.78v1.78h.486Zm1.23,0v-3.07h-.496v3.07h.496Zm2.82,0v-3.07h-.486v1.96l-1.12-1.96h-.486v3.07h.486v-2.08l1.17,2.08h.436Zm2.76-.918v-.615h-1.05v.486h.56v.129c.00236,.13123-.05281,.25692-.151,.344-.10762,.09027-.24459,.13794-.385,.134-.08525,.00198-.16948-.01884-.244-.0603-.07524-.04542-.13676-.11039-.178-.188-.05402-.11905-.0917-.24485-.112-.374-.02669-.15524-.03993-.31249-.0396-.47,0-.12993,.01016-.25966,.0304-.388,.01647-.1141,.04631-.22587,.0889-.333,.03863-.11539,.11025-.21691,.206-.292,.09208-.06248,.20183-.09365,.313-.0889,.10235-.00496,.2034,.02455,.287,.0838,.09098,.07633,.16231,.17338,.208,.283l.463-.184c-.07552-.20547-.20718-.38563-.38-.52-.17121-.11316-.37401-.16885-.579-.159-.1568-.00305-.31249,.02686-.457,.0878-.12981,.05758-.24399,.14535-.333,.256-.11618,.16362-.20096,.34741-.25,.542-.06301,.23174-.09483,.47085-.0946,.711-.00008,.18593,.0176,.37144,.0528,.554,.03007,.16351,.08011,.3227,.149,.474,.07381,.17302,.19693,.32049,.354,.424,.1716,.09705,.36705,.14384,.564,.135,.52053,.01684,.95616-.39148,.973-.91201,.00066-.02032,.00066-.04066,0-.06099l.0041,.0016Zm-16.2,3.97v-.431h-1.9v.431h.702v2.64h.486v-2.64h.712Zm2.02,2.64l-.496-1.34h-.583v1.34h-.486v-3.07h1.01c.10306-.00163,.20608,.00526,.308,.0206,.08426,.01326,.16612,.03876,.243,.0757,.13918,.07005,.2549,.17917,.333,.314,.17429,.27992,.17362,.63474-.00173,.914-.08101,.13681-.20119,.24619-.345,.314l.542,1.44-.52427-.0083Zm-.0229-2.21c-.00813-.1759-.13171-.32518-.303-.366-.05588-.00882-.11247-.01226-.169-.0103h-.583v.753h.583c.05618,.00161,.11239-.00165,.168-.00975,.03932-.00732,.07716-.02107,.112-.0407,.05842-.03399,.10701-.08258,.141-.141,.03323-.05603,.05103-.11986,.0516-.185l-.0006-.00025Zm2.88,2.21l-.303-.863h-.959l-.303,.863h-.519l1.06-3.07h.482l1.06,3.07h-.518Zm-.776-2.22l-.317,.863h.615l-.298-.863Zm3.67-.367v-.486h-1.91v3.07h.486v-1.34h.895v-.496h-.895v-.753l1.424,.005Zm2.37,0v-.486h-1.91v3.07h.486v-1.34h.895v-.496h-.895v-.753l1.424,.005Zm.953,2.59v-3.07h-.496v3.07h.496Zm2.76-.624l-.464-.174c-.04571,.10596-.11639,.19929-.206,.272-.07829,.05793-.17363,.08819-.271,.086-.09382,.00291-.18691-.01739-.271-.0591-.07792-.04318-.14389-.10503-.192-.18-.06716-.11753-.11478-.24519-.141-.378-.03457-.15934-.05187-.32195-.0516-.485-.00023-.12894,.00994-.25769,.0304-.385,.01683-.11176,.04666-.22117,.0889-.326,.03863-.11539,.11025-.21691,.206-.292,.09208-.06248,.20183-.09365,.313-.0889,.09643-.00668,.19262,.0159,.276,.0648,.09328,.07025,.17092,.15913,.228,.261l.454-.193c-.08154-.19083-.21405-.35551-.383-.476-.17224-.10778-.37298-.1611-.576-.153-.1568-.00305-.31249,.02686-.457,.0878-.12981,.05758-.24399,.14535-.333,.256-.11928,.16183-.20527,.34571-.253,.541-.11061,.41494-.12103,.85024-.0304,1.27,.03428,.16626,.08938,.32753,.164,.48,.08255,.17142,.2123,.31574,.374,.416,.17334,.09529,.36934,.14161,.567,.134,.20036,.00587,.3971-.0542,.56-.171,.167-.13209,.29406-.30796,.367-.508l.0007,.0004Z"/>
  <path class="cls-1" d="M21.47854,22.02327c-.19531-.00293-.3291-.05908-.42676-.15625-.09473-.09766-.17578-.20947-.23633-.33008L10.20218,3.01351c-.04688-.08203-.07031-.1709-.07031-.26074,0-.14355,.05371-.27686,.1543-.37744,.09961-.1001,.23242-.15576,.37402-.15625h21.59766c.09863,0,.19434,.02686,.27734,.07812,.24902,.15332,.32715,.48047,.17383,.72998l-10.21387,17.81982-.5332,.91406c-.0918,.15918-.25684,.25928-.43555,.26758l-.04785-.00537Z"/>
  <path class="cls-2" d="M21.50394,22.22903c.26805,.00373,.51802-.13476,.657-.364L32.96094,3.16503c.05832-.11286,.08897-.23797,.0894-.365,.00015-.22717-.10015-.44277-.274-.589-.13778-.11725-.31308-.18113-.494-.18H10.68234c-.13617-.00298-.27005,.03537-.384,.11-.22554,.13631-.36354,.38047-.364,.644,.00346,.13314,.03805,.26363,.101,.381l10.8,18.7,.00311,.00493,.00329,.005c.03839,.06093,.08595,.11558,.141,.162,.12536,.10871,.28251,.17396,.448,.186,.0186,.00165,.0371,.00273,.0556,.00287l.0176,.0022Zm0-3.7L13.26394,4.22903H29.76394l-8.26,14.3Z"/>
</svg>