<?xml version="1.0" encoding="UTF-8"?>
<svg id="Ebene_1" data-name="Ebene 1" xmlns="http://www.w3.org/2000/svg" viewBox="0 0 44 44">
  <defs>
    <style>
      .cls-1 {
        fill: #fff;
      }

      .cls-2 {
        fill: #1e50a3;
      }
    </style>
  </defs>
  <g>
    <path class="cls-2" d="M6.25488,41.41382c-.34766,0-.7627-.17188-1.00781-.41797-.24121-.24023-.39941-.62305-.41211-.99902l.00977-7.88574L20.69629,3.41626c.11816-.1875,.28809-.375,.49023-.52979,.20215-.14209,.46191-.23438,.7334-.25293,.33594,.01807,.5957,.11084,.81738,.26758,.18262,.14014,.35156,.3252,.4834,.53809l15.91016,28.72559v7.8584c-.01562,.4043-.11914,.67383-.35547,.90723-.28906,.28516-.72852,.4834-1.06934,.4834H6.25488Z"/>
    <path class="cls-1" d="M21.97591,3.26002c.14338,.0149,.2785,.06503,.36476,.12543,.13962,.10637,.25741,.23586,.33813,.36525l.02768,.04511,15.79968,28.5306,.00085,7.64981c-.01239,.32835-.08121,.4212-.16987,.50843-.19088,.18779-.47613,.30409-.65498,.30409-.00014,0-.0003,0-.00043,0l-31.42708,.00022c-.18295,0-.43688-.1051-.56607-.23428-.12929-.12929-.22142-.36257-.22845-.53403l.00937-7.74817L21.22589,3.75144c.09196-.14187,.20477-.26454,.3022-.34034,.11858-.08376,.25638-.13562,.40038-.15096h.0463l.00114-.00013m-.00871-1.25322c-.02036,0-.04073,.00111-.06099,.00335h-.02931c-.3848,.02601-.755,.15748-1.07,.37999-.26078,.19984-.48335,.44511-.657,.72401L4.3499,31.71415l-.13,.235-.00976,8.07c.01885,.52406,.23541,1.06026,.59457,1.41942,.35314,.35314,.91888,.6004,1.44994,.6004,.00907,0,.01804-.00007,.02708-.00022h31.4c.0079,.00013,.01588,.00019,.0238,.00019,.53269,0,1.12142-.28263,1.50827-.66323,.39259-.38627,.52269-.832,.54232-1.35236v-8.02L23.8,3.19025l-.0478-.0801c-.17253-.27739-.39415-.52103-.654-.719-.31466-.22334-.685-.35521-1.07-.381-.02027-.00223-.04063-.00335-.061-.00335h0Z"/>
  </g>
  <path class="cls-1" d="M11.9,37.30024h.159l1.45-.0922-.0632-.536h-.0632c-.252,0-.474,.0303-.6,.0303-.17801,.02341-.35748,.03384-.537,.0312v-.382c.22925-.00194,.45157-.07885,.633-.219,.14007-.07318,.22593-.22004,.221-.378-.00507-.18894-.11442-.35952-.284-.443-.29132-.11599-.60366-.16981-.917-.158h-.0316c-.29266-.0131-.58444,.04095-.853,.158-.15931,.08998-.25645,.26007-.253,.443-.00336,.14973,.06783,.29136,.19,.378,.17897,.12192,.38555,.1972,.601,.219v.413l-1.3,.0307,.0953,.474c.0316,.0663,.0628,.128,.0944,.128,0,.0308,.0632,.0308,.127,0,.03446,.00428,.06905-.00697,.0944-.0307h.158l1.0789-.0663Zm-.442-1.55c0-.0307,.032-.0659,.126-.0966,.1002-.04128,.20763-.06219,.316-.0615,.11874-.00039,.23659,.02044,.348,.0615,.0632,.0307,.0948,.0659,.0948,.0966,0,.0615-.0316,.0922-.0948,.123-.11047,.04484-.22878,.06721-.348,.0658-.1089,.00172-.21683-.02076-.316-.0658-.094-.0308-.126-.0615-.126-.123Zm2.69,1.99c-.02376-.00334-.04579-.01429-.0628-.0312-.44598-.19775-.93312-.28489-1.42-.254-.25484-.01362-.51032,.00856-.759,.0659-.22045,.02322-.43471,.08695-.632,.188-.24762,.08572-.42108,.3098-.442,.571,.01768,.2767,.18816,.52046,.442,.632,.20311,.08596,.41505,.14935,.632,.189,.25126,.03817,.50488,.05872,.759,.0615,.48569,.01669,.96947-.06882,1.42-.251,0-.0347,.0316-.0347,.0628-.0654,.23047-.09323,.38097-.31738,.38-.566-.00002-.224-.127-.382-.38-.54v.0002Zm-.632,.79c-.27762,.07617-.56538,.10876-.853,.0966-.25449,.00135-.50856-.02071-.759-.0659-.0316,0-.0628-.0307-.0948-.0307-.158-.0615-.253-.127-.253-.219,0-.0966,.0948-.189,.253-.255h.0948c.2509-.04117,.50475-.06174,.759-.0615,.28552-.00221,.57075,.01836,.853,.0615,.19,.0659,.284,.158,.284,.255-.00006,.0922-.0948,.158-.284,.219Zm.98-4.55c.032,0,.032,.0659,.032,.0966-.01756,.02949-.02848,.06245-.032,.0966,0,.0614-.0316,.0922-.0316,.123v3.2h-.316v-.00006h-.379v-3.54h.411c.19,0,.284,0,.316,.0307l-.0004-.00684Zm-2.59,1.08h-1.36v-.505h2.75v.505h-1.39Zm0-.663h-.695v-.474h1.39v.474h-.695Zm8.41,3.89h.41v.663h-3.57v-1.65h.411c.189,0,.284,0,.316,.0351,.0316,.0308,.0316,.0615,0,.158v.0615c0,.0303-.0316,.0961-.0316,.127v.601l2.4646,.0044Zm-2.91-1.36h-.6v-2.72h2.47v.663h-1.74v1.36h.189c.28468,.00511,.56943-.00514,.853-.0307,.32863-.02548,.65573-.06787,.98-.127l.0637,.663c-.37707,.072-.75756,.12473-1.14,.158-.348-.00002-.727,.0307-1.07,.0307l-.0057,.003Zm3.19-1.2h.6v.694h-.601v1.33h-.695v-3.79h.6c.04361,.00185,.08643,.01228,.126,.0307,.032,0,.032,.0352,.032,.0659v.0922c-.02058,.02802-.03178,.06183-.032,.0966-.02551,.04853-.03648,.10339-.0316,.158l.0016,1.3226Zm4.9,1.51v-.127c.0312-.0308,.0312-.0615,.0312-.127,.01678,.00066,.03091-.0124,.03158-.02917,.00002-.00051,.00003-.00102,.00002-.00153v-.0308h1.49v-2.5c.032-.0615,.032-.127,0-.127-.10179-.03336-.20969-.04384-.316-.0307h-.411v.729h-2.21v-.54c.01711-.01639,.02824-.03804,.0316-.0615v-.0966c-.10229-.03093-.20967-.04136-.316-.0307h-.411v2.66h1.39v.852h-1.93v.698h4.65v-.698h-2.02l-.0104-.539Zm-1.39-.948v-.663h2.21v.663h-2.21Zm9.32,.347h-3.7v-2.34h3.6v.667h-2.88v1.01h2.97l.01,.663Zm.411,1.14v.698h-4.61v-.698h1.9v-.948h.411c.19,0,.316,0,.348,.0351,.0316,0,.0316,.0615,0,.123,0,.0659-.0316,.0966-.0316,.127v.663l1.9826-.0001Z"/>
  <path class="cls-1" d="M21.1,11.90024c-.17763,.08168-.25541,.29189-.17373,.46952,.00961,.02091,.02124,.04083,.03473,.05948,.02439,.03747,.05297,.07202,.0852,.103,.00007,.00017,.0717,.157-.0974,.444-.0598,.09573-.09393,.20525-.0991,.318-.00869,.08136,.02809,.16091,.0957,.207,.11,.0557,.155,.245,.155,.245,.0245,.09314,.04135,.18812,.0504,.284,.00348,.103-.00869,.113,.0348,.179,.0437,.0664,.613,.271,.508,.507-.0339,.0769,0,.0928-.241,.178-.32203,.14985-.63108,.32611-.924,.527-.10367,.08031-.17758,.19293-.21,.32-.08,.242-.123,.442-.123,.442-.10081,.55122-.24731,1.09309-.438,1.62-.17056,.48973-.5079,.90389-.953,1.17-.598,.355-1.79,.87-1.79,.87-.05988,.03693-.09461,.10378-.0904,.174v.187c-.25872-.03019-.49822,.14057-.554,.395-.06808,.25186,.02962,.51932,.244,.668,0,0,.543,.403,.895-.325h.00013l.0973,.111s.0812,.118,.253-.00695c.147-.107,1.66-.705,1.67-.705l1.04-.883h.00012v1.91c-.1109,.50543-.33218,.9801-.648,1.39-.28319,.54487-.52617,1.1097-.727,1.69-.118,.197-.275,.606-.417,.808-.12044,.33109-.19121,.67819-.21,1.03-.00943,.09327-.03655,.18388-.0799,.267-.262,.503-1.21,2.32-1.36,2.45-.0974,.0904-.984-.132-.984-.132,0,0-.372-.115-.219,.25,.13139,.25082,.33476,.45663,.584,.591,.30397,.12184,.58679,.29092,.838,.501,.362,.32,.501-.16,.501-.16,.87786-1.17225,1.63189-2.43232,2.25-3.76,.0348-.145,.289-.336,.289-.336,.72573-.69595,1.34564-1.49442,1.84-2.37l.00007-.00014c.0036,.00747,1.1,2.27,1.39,2.63,.10901,.25071,.33122,.43427,.598,.494,.452,.101,1.35,.904,2.77,2.5,.0742,.0835-.278,.788-.408,.9-.0675,.12-.566,.807,.334,.436,.19162-.07775,.36075-.2022,.492-.362,.17559-.21087,.3749-.40079,.594-.566,.241-.148,.0743-.491,.0742-.492-.09667-.12198-.22501-.21503-.371-.269-.042-.0113-.056-.165-.056-.165-.01693-.1138-.05673-.223-.117-.321-.57128-1.06661-1.34187-2.01373-2.27-2.79-.49602-1.12201-.91043-2.27834-1.24-3.46-.03719-.13441-.05437-.27358-.051-.413l-.0464-2.55c-.0172-.27684-.05903-.55159-.125-.821v-.00019c.34515,.27451,.6041,.64245,.746,1.06,.01277,.03539,.02227,.07188,.0284,.109l.343,2.01s.0371,.227,.209,.204h.00012c-.10591,.21991-.10591,.47609,0,.696,.13578,.18286,.35725,.28146,.584,.26,.27994-.01862,.49179-.26065,.47317-.54059-.00005-.0008-.00011-.0016-.00017-.00241,.01724-.18199-.04724-.36224-.176-.492v-.00012l.0932-.0492s.0522-.00695,.00348-.134c-.0426-.111-.512-2.09-.628-2.58-.01715-.0729-.0415-.14392-.0727-.212l-1.01-2.2c-.14261-.31213-.32441-.60482-.541-.871-.24194-.302-.53098-.56301-.856-.773v-.00006l-.00468-.445c.20875-.08649,.36368-.26742,.417-.487,.0696-.232,.102-.334,.102-.334,.09206-.26421,.09206-.55179,0-.816-.15979-.62013-.70992-1.06023-1.35-1.08-.36692-.02724-.73337,.05862-1.05,.246l-.00554-.00634Z"/>
  <path class="cls-1" d="M13.3,32.00024h-4.57l2.87-4.48,4.13,.0629-2.43,4.4171Zm17.5,.233l4.42,.0559-3.03-4.37-3.74-.0533,2.35,4.3674Zm-6.4-.0723l3.46,.042-1.5-4.25-3.17-.0673,1.21,4.2753Zm-3.26-4.3l-3.09-.115-1.69,4.31,3.7,.0443,1.08-4.2393Z"/>
</svg>