<?xml version="1.0" encoding="UTF-8"?>
<svg id="Ebene_1" data-name="Ebene 1" xmlns="http://www.w3.org/2000/svg" viewBox="0 0 44 44">
  <defs>
    <style>
      .cls-1 {
        fill: #ffd033;
      }

      .cls-1, .cls-2 {
        fill-rule: evenodd;
      }
    </style>
  </defs>
  <path d="M41.5,20.70024L23.3,2.50024c-.71715-.7105-1.87285-.7105-2.59,0L2.51,20.70024c-.7105,.71715-.7105,1.87285,0,2.59l18.2,18.2c.71715,.7105,1.87285,.7105,2.59,0l18.2-18.2c.7105-.71715,.7105-1.87285,0-2.59"/>
  <path class="cls-2" d="M41.1,21.10024L22.9,2.90024c-.52614-.52111-1.37386-.52111-1.9,0L2.8,21.10024c-.52111,.52614-.52111,1.37386,0,1.9l18.2,18.2c.52614,.52111,1.37386,.52111,1.9,0l18.2-18.2c.52111-.52614,.52111-1.37386,0-1.9"/>
  <path class="cls-1" d="M40.6,21.60024L22.4,3.40024c-.23882-.23613-.62318-.23613-.862,0L3.338,21.60024c-.23711,.23803-.23711,.62297,0,.861l18.2,18.2c.23837,.23722,.62363,.23722,.862,0l18.2-18.2c.23776-.23712,.23828-.62208,.00116-.85984-.00039-.00039-.00077-.00077-.00116-.00116"/>
  <path class="cls-2" d="M16.4,16.80024v.69c-.00032,1.86927,.86345,3.63372,2.34,4.78l5.75,4.36c.46194,.3435,.73533,.88435,.738,1.46v4.21h4.24v-4.21c.0032-1.11126-.30176-2.20164-.881-3.15-.35404-.59599-.81511-1.12147-1.36-1.55l-5.85-4.44c-.4753-.34298-.75633-.89388-.755-1.48v-.738l2.81,.808c.04351,.01018,.08759,.01779,.132,.0228,.1957,.02459,.39348-.02539,.554-.14,.17765-.12262,.30009-.31005,.341-.522,.0475-.22268-.00115-.45508-.134-.64l-5.8-8.15-5.28,8.17c-.08677,.13521-.13325,.29234-.134,.453,.00718,.40058,.29002,.74314,.682,.826,.13737,.02538,.27904,.01311,.41-.0355l2.197-.7243Z"/>
</svg>