<?xml version="1.0" encoding="UTF-8"?>
<svg id="Ebene_1" data-name="Ebene 1" xmlns="http://www.w3.org/2000/svg" viewBox="0 0 44 44">
  <defs>
    <style>
      .cls-1 {
        fill: #00f300;
      }
    </style>
  </defs>
  <path d="M22,2.04048c11.0457,0,20,8.9543,20,20s-8.9543,20-20,20S2,33.08618,2,22.04048,10.9543,2.04048,22,2.04048"/>
  <path class="cls-1" d="M22,2.05048C10.95431,2.05048,2,11.00479,2,22.05048s8.95431,20,20,20,20-8.9543,20-20h0c0-11.04569-8.9543-20-20-20Zm0,36.41026c-9.06313,0-16.41026-7.34712-16.41026-16.41026S12.93687,5.64023,22,5.64023s16.41026,7.34712,16.41026,16.41026-7.34712,16.41026-16.41026,16.41026h0Z"/>
  <path class="cls-1" d="M16.4,26.00048V15.40048l2.63,2.64v-3.95l-4-4.01-4,4.01v3.95l2.63-2.64v10.6h2.74"/>
  <path class="cls-1" d="M29.2,11.40048V27.40048l3.95-3.97v5.94l-6.01,6.01-6.02-6.01v-5.94l3.97,3.97V11.40048h4.11"/>
</svg>