<?xml version="1.0" encoding="UTF-8"?>
<svg id="Ebene_1" data-name="Ebene 1" xmlns="http://www.w3.org/2000/svg" viewBox="0 0 44 44">
  <defs>
    <style>
      .cls-1 {
        fill: #fff;
      }

      .cls-2 {
        fill: red;
      }
    </style>
  </defs>
  <polygon class="cls-1" points="22.0498 25.06714 6.90918 33.7771 3.22461 32.79175 4.20801 29.10913 16.65625 21.95044 4.20801 14.79077 3.22461 11.10815 6.90918 10.1228 22.0498 18.83423 37.19043 10.1228 40.875 11.10815 39.8916 14.79077 27.44434 21.95044 39.8916 29.10913 40.875 32.79175 37.19043 33.7771 22.0498 25.06714"/>
  <path class="cls-2" d="M2.45,33.30024l4.54,1.22,15-8.66,15,8.66,4.54-1.22-1.22-4.54-11.7-6.74,11.7-6.74,1.22-4.54-4.54-1.22-15,8.66L6.99,9.52024l-4.54,1.22,1.22,4.54,11.7,6.74L3.67,28.76024l-1.22,4.54Zm1.81-1.04l.676-2.52,13.4-7.72L4.936,14.30024l-.676-2.52,2.52-.676,15.2,8.78,15.2-8.78,2.52,.676-.676,2.52-13.4,7.72,13.4,7.72,.676,2.52-2.52,.676-15.2-8.78-15.2,8.78-2.52-.676Z"/>
</svg>