<?xml version="1.0" encoding="UTF-8"?>
<svg id="Ebene_1" data-name="Ebene 1" xmlns="http://www.w3.org/2000/svg" xmlns:xlink="http://www.w3.org/1999/xlink" viewBox="0 0 44 53">
  <defs>
    <style>
      .cls-1 {
        fill: url(#Zusatzschild_Rahmen_schwarz);
      }

      .cls-2 {
        fill: url(#Zusatzschild_Hintergrund_gelb);
      }

      .cls-3 {
        fill: url(#Zusatzschild_Schrift_schwarz);
        fill-rule: evenodd;
      }
    </style>
    <linearGradient id="Zusatzschild_Hintergrund_gelb" x1="10.99072" y1="4241.12524" x2="33.00781" y2="4241.12524" gradientTransform="translate(0 -4197.99951)" gradientUnits="userSpaceOnUse">
      <stop offset="1" stop-color="#ffd033"/>
      <stop offset="1" stop-color="#000"/>
    </linearGradient>
    <linearGradient id="Zusatzschild_Rahmen_schwarz" x1="9.99393" y1="10.84331" x2="34.00606" y2="10.84331" gradientTransform="translate(0 53.96875) scale(1 -1)" gradientUnits="userSpaceOnUse">
      <stop offset="1" stop-color="#000"/>
      <stop offset="1" stop-color="#000"/>
    </linearGradient>
    <linearGradient id="Zusatzschild_Schrift_schwarz" x1="13.75085" y1="4241.16655" x2="30.23864" y2="4241.16655" gradientTransform="translate(0 -4197.99951)" gradientUnits="userSpaceOnUse">
      <stop offset="1" stop-color="#010101"/>
      <stop offset="1" stop-color="#000"/>
    </linearGradient>
  </defs>
  <polygon class="cls-2" points="32.41309 50.12573 11.59375 50.12573 11.5083 50.12085 11.40186 50.09741 11.32764 50.06421 11.23975 50.0105 11.1582 49.94116 11.09375 49.86206 11.04834 49.78003 11.01318 49.68335 10.99512 49.58862 10.99072 49.53198 10.99414 36.72534 10.99854 36.6355 11.021 36.54077 11.05908 36.44604 11.1167 36.35522 11.17969 36.28784 11.25342 36.22925 11.34229 36.17944 11.44043 36.14233 11.52832 36.12866 11.62402 36.12475 32.40625 36.12573 32.50098 36.12964 32.64844 36.17163 32.77344 36.24585 32.8418 36.30932 32.89941 36.38159 32.9502 36.46753 32.97461 36.52221 33.00781 36.67065 33.00586 49.52514 33.00195 49.62768 32.96191 49.7605 32.8877 49.88843 32.82227 49.96069 32.74316 50.02417 32.66211 50.07007 32.61035 50.09253 32.46191 50.12573 32.36133 50.12671 32.41309 50.12573"/>
  <g id="Zusatzschild_Hintergrund_gelb-2-2" data-name="Zusatzschild Hintergrund gelb-2-2">
    <path class="cls-1" d="M32.37526,36.62548l.0387,.0016,.00677,.00084,.01299,.00273,.01151,.00334,.00008,.00003,.00653,.00322,.00546,.00322,.0075,.00541,.00843,.00706,.0045,.0045,.01047,.01229,.00302,.00413,.00194,.00326,.00319,.00645,.00205,.00527,.00483,.01607,.00129,.00583,.00156,.03787,.00072,12.73013-.0019,.06119-.00105,.00496-.00345,.01146-.00268,.00695-.00313,.00633-.00654,.01107-.0042,.00592-.00422,.00502-.00388,.00388-.00879,.00748-.00821,.00592-.00609,.00367-.00056,.00028-.00895,.00344-.01781,.00541-.0029,.00064-.00853,.00106-.03979,.00206H11.62497l-.03811-.00159-.0086-.00106-.00494-.00104-.00917-.00276-.01548-.00602-.00358-.00171-.00235-.00142-.00768-.00544-.00826-.00703-.00812-.008-.00393-.00462-.00195-.0027-.00329-.00558-.00629-.01273-.00374-.00945-.00109-.0036-.00205-.00974-.00107-.00802-.00131-.03176v-12.74454l.00163-.03936,.00097-.00785,.00249-.01183,.00231-.00797,.00583-.01179,.00383-.00657,.00309-.00428,.00692-.00825,.00454-.00453,.00757-.00644,.0034-.00244,.00863-.00513,.01322-.00653,.00602-.00241,.0021-.00063,.01337-.00281,.00708-.00096,.03459-.00143h20.75373m.03099-1.5H11.59372v.00015h-.00681l-.13184,.00545-.13049,.01766-.12912,.02717-.1264,.03799-.12233,.04892-.11827,.05842-.11417,.06792-.106,.07606-.10058,.08558-.09379,.09374-.08426,.10052-.07749,.10733-.06659,.11411-.05845,.11817-.04757,.12227-.03671,.12634-.02717,.129-.01631,.13178-.00544,.13176v12.8063l.00544,.13176,.01766,.13178,.02719,.129,.03806,.125,.04893,.12363,.05844,.11818,.06661,.11275,.07747,.10733,.08563,.10052,.09379,.09239,.10058,.08557,.10738,.07607,.11281,.06792,.11962,.057,.12233,.04754,.1264,.038,.12913,.02717,.13185,.0163,.13049,.00545h20.81926l.13193-.00684,.13185-.0163,.12912-.02853,.125-.038,.12369-.04754,.11826-.05841,.11281-.06792,.10739-.07742,.10058-.08558,.09242-.09239,.08564-.10188,.07611-.10732,.0666-.11275,.05845-.11818,.04757-.12362,.03806-.12633,.02718-.12901,.01631-.1304,.00409-.13179v-12.80755l-.00544-.13179-.01632-.1304-.02855-.12908-.03799-.12634-.04758-.12226-.05845-.1182-.068-.11411-.07748-.106-.08563-.10053-.09379-.09374-.10058-.08422-.10738-.07745-.11282-.06657-.11825-.05841-.12369-.04753-.12641-.03669-.12913-.02717-.13049-.0163-.13184-.00545h.00003Z"/>
  </g>
  <path id="Zusatzschild_Schrift_schwarz-2" data-name="Zusatzschild Schrift schwarz-2" class="cls-3" d="M13.75086,40.89569v-2.77344h.62988v2.77344c.03085,.37634,.34355,.66707,.72113,.67049,.37453,.01854,.69511-.26585,.72137-.63991v-2.804h.61961v2.72256c.02346,.72808-.54776,1.33733-1.27584,1.36079-.02171,.0007-.04344,.00086-.06516,.00049-.72804-.00587-1.32293-.58288-1.351-1.3104m3.60637-2.77322v4.00263h.6196v-2.59045l1.534,2.59047h.5384v-4.00265h-.63991v2.60074l-1.52373-2.60074h-.52837m3.60636,4.00263h1.11743c.96257-.10794,1.66221-.96563,1.57458-1.93026,0-1.20888-.579-2.07237-1.57458-2.07237h-1.1174l-.00003,4.00263Zm.63991-.65019v-2.73281h.45719c.78227,0,.97527,.89406,.97527,1.45276,0,.41658-.22357,1.28007-.97527,1.28007h-.45719m2.76341-3.35246v4.00263h2.43811v-.61986h-1.8185v-1.1377h1.16828v-.61961h-1.16828v-.98555h1.67635v-.63991h-2.296m4.63227,.61961c.26298-.00438,.48465,.19519,.50782,.45718,.0033,.27748-.21066,.50926-.48752,.52812h-.86342v-.9853h.84312Zm-1.45272-.61961v4.0024h.6096v-1.75731h.772l.65018,1.75731h.66046l-.72137-1.8894c.36961-.18924,.60134-.57031,.59931-.98555-.00019-.6031-.47435-1.09956-1.07681-1.12745h-1.49338m-12.34276,9.05149c.23316,.58316,.77598,.98438,1.40188,1.03619,.67786,.03494,1.2557-.48624,1.29064-1.1641,.00234-.0454,.00216-.09089-.00054-.13627-.00823-.47773-.29962-.90487-.74143-1.08682-.28546-.08173-.57802-.1362-.87376-.16267-.16875-.06675-.28359-.22517-.29452-.40631,.01555-.33013,.29579-.58515,.62592-.5696,.25031,.01179,.46677,.1783,.54237,.41721l.5993-.183c-.12486-.52364-.59958-.88813-1.1377-.87352-.67545-.00933-1.23057,.53067-1.2399,1.20611-.00025,.01788-.0001,.03577,.00044,.05365-.00908,.27849,.1063,.54656,.31481,.7314,.16844,.14234,.37191,.23702,.58928,.27421,.78228,.08122,1.00586,.28449,1.00586,.70107-.03158,.29279-.26566,.52245-.559,.54843-.40601,.0457-.78812-.20062-.91412-.58928l-.60958,.20327m3.37274-3.04765v4.00263h.61968v-2.59045l1.534,2.59047h.5384v-4.00263h-.63991v2.60074l-1.52371-2.60074h-.52837m6.20682,2.00116c0-1.168-.48752-2.0824-1.40189-2.0824-.88379,0-1.41216,.62988-1.41216,2.0824,0,1.47307,.57925,2.08265,1.41216,2.08265,1.13766,.00003,1.40189-1.08704,1.40189-2.08265Zm-1.40189,1.44274c-.49779,0-.78228-.45719-.78228-1.44274,0-1.03619,.26419-1.43222,.78228-1.43222,.50782,0,.7517,.48752,.7517,1.43222,0,1.02616-.24388,1.44274-.7517,1.44274m1.89966-3.4439l.569,4.00263h.5587l.62989-2.50926,.62963,2.50926h.559l.5587-4.00263h-.62992l-.30479,2.09268-.50782-2.09268h-.569l-.569,2.09268-.30479-2.09268h-.6196"/>
</svg>