<svg xmlns="http://www.w3.org/2000/svg" viewBox="0 0 44 44"><g id="d0_t5_cc-gbr_1p0_2p1014_1s1"><path id="Rahmen" d="M6.2325,30.8041l15.76555-5.25769a.04194.04194,0,0,1-.02684,0L37.73687,30.8041a.04321.04321,0,0,0,.03225-.00235l4.20754-2.10713a.04245.04245,0,0,0,.01872-.05685l-2.107-4.21449a.04315.04315,0,0,0-.02472-.02142L32.5272,21.95645a.0423.0423,0,0,1,0,.08028l7.33645-2.44552a.04243.04243,0,0,0,.02472-.02119l2.107-4.21449a.04162.04162,0,0,0,.00247-.03225.04231.04231,0,0,0-.02142-.02448L37.769,13.19862a.043.043,0,0,0-.03214-.00236L21.97121,18.44678a.04144.04144,0,0,1,.02672,0L6.23239,13.19626a.04182.04182,0,0,0-.03214.00236L1.98577,15.29868a.04215.04215,0,0,0-.01907.05685L4.07394,19.57a.04294.04294,0,0,0,.0246.02119l7.34352,2.44552a.04227.04227,0,0,1,.00011-.08028L4.09854,24.40186a.0429.0429,0,0,0-.0246.02142L1.9667,28.63777a.04233.04233,0,0,0,.01883.05685L6.2,30.80175A.04384.04384,0,0,0,6.2325,30.8041Z" fill="#00f300"/><path id="Hintergrund" d="M17.75672,21.95645,5.7405,25.96661a.04227.04227,0,0,0-.02683.05332l.83864,2.52332a.04271.04271,0,0,0,.02118.02449.04321.04321,0,0,0,.03225.00235l15.39219-5.13081a.04532.04532,0,0,1-.02684,0l15.385,5.13081a.04281.04281,0,0,0,.03213-.00235.04233.04233,0,0,0,.02143-.02449l.83863-2.52332a.04224.04224,0,0,0-.02695-.05332l-12.0161-4.01016a.0423.0423,0,0,1,0,.08028l12.0161-4.00309a.04259.04259,0,0,0,.02695-.05356l-.83863-2.53a.04246.04246,0,0,0-.05356-.02672l-15.385,5.13045a.04363.04363,0,0,1,.02684,0L6.60586,15.42345a.041.041,0,0,0-.03225.00223.04156.04156,0,0,0-.02119.02449l-.83863,2.53a.04256.04256,0,0,0,.02683.05355l12.01622,4.0031a.04241.04241,0,0,1-.00012-.0804Z" fill="#010101"/></g></svg>