<svg xmlns="http://www.w3.org/2000/svg" id="svg2" viewBox="0 0 50 40"><defs /><rect height="40" id="Hintergrund" rx="2.23607" width="50" /><g id="Form"><path d="M41.45773,37.78447c.12538-.2638-.05156-.60594-.49456-.95627-.88013-.69606-1.0105-.85093-1.0105-1.20043A.60847.60847,0,0,0,39.756,35.115a.85622.85622,0,0,1-.23868-.54563c-.03763-.32018-.079-.38264-.40033-.604-.33743-.23249-.3553-.26225-.30622-.50984a.575.575,0,0,1,.27216-.39629,5.9018,5.9018,0,0,0,.53209-.38888c.24169-.19789.36478-.25052.54591-.23341.19919.01881.25072.06859.3477.33587a.72922.72922,0,0,0,.58205.51983.41787.41787,0,0,0,.36252-.39006.58967.58967,0,0,1,.1318-.331,1.46714,1.46714,0,0,0,.16429-.89845L41.65544,3.34256H8.32455V17.78594l7.96594,5.02031-7.96594-.02067v7.22169H28.462l12.31366,7.70107C41.24177,37.99988,41.34725,38.01692,41.45773,37.78447Z" fill="#fff" id="path2226" /></g><g id="Nevada"><path d="M12.07493,28.90958l-1.81041-3.05167v3.05167H9.43225V23.916h.83227l1.66454,2.77423V23.916h.83228v4.99363Z" id="path3274" /><path d="M13.70273,28.90958V23.916h2.94254v.83227h-1.942v1.10969h1.38712v.83227H14.7033V28.0773l2.21939.02734v.80494Z" id="path3272" /><path d="M19.55709,28.90958h-.58L17.47754,23.916h.78508l1.01148,3.33166.99726-3.33166h.79931Z" id="path3270" /><path d="M24.16868,28.90958l-.4669-1.40109H22.2236l-.46689,1.40109H20.9574l1.634-4.99363H23.334l1.634,4.99363Zm-1.19541-3.60733-.48806,1.40131h.94784Z" id="path3268" /><path d="M28.85193,26.40537a3.72666,3.72666,0,0,1-.21575,1.32295,2.07175,2.07175,0,0,1-.619.89808.86821.86821,0,0,1-.31482.20118,1.36014,1.36014,0,0,1-.36425.082H25.62639V23.916h1.52783q.177,0,.3078.01125a1.28758,1.28758,0,0,1,.23692.04107.74812.74812,0,0,1,.19091.082q.08484.0522.18391.12657a2.20631,2.20631,0,0,1,.57656.91309,3.93848,3.93848,0,0,1,.20161,1.31545Zm-.76392,0a3.59824,3.59824,0,0,0-.10263-.90184,1.38732,1.38732,0,0,0-.27944-.58886.83217.83217,0,0,0-.21218-.149.59694.59694,0,0,0-.26874-.05959h-.84875v3.39854H27.126a.9141.9141,0,0,0,.3077-.0447.575.575,0,0,0,.22287-.14909,1.442,1.442,0,0,0,.32183-.61491,3.30556,3.30556,0,0,0,.10966-.89057Z" id="path3264" /><path d="M32.49139,28.90958l-.46689-1.40109H30.54633l-.46691,1.40109h-.79931l1.634-4.99363h.74254l1.634,4.99363ZM31.296,25.30225l-.48805,1.40131h.94782Z" id="path3260" /></g><text font-family="AudiTypeDisplayHigh-Bold, Audi Type Display High" font-size="15px" font-weight="700" transform="translate(9.43243 17.67314)">{value}</text></svg>