<svg xmlns="http://www.w3.org/2000/svg" viewBox="0 0 64 34"><g id="ri_octagon_green_white_3dig"><g id="Schild"><path d="M.7803,30.20477.75,3.71844,31.99856.7536,63.27248,3.7951,63.25,30.20868l-31.2373,3.0371Zm62.4331.09863.03662-.0459v.0459Z" fill="#409d27" fill-rule="evenodd" /><path d="M31.99941,1.50708,62.5,4.47355V29.52836L32.01265,32.49292,1.5,29.52135V4.47368l30.49941-2.9666M31.9994,0,.65594,3.04871a.64824.64824,0,0,0-.46411.19662A.67442.67442,0,0,0,0,3.71867V30.22928A.73006.73006,0,0,0,.20721,30.74a.6973.6973,0,0,0,.50051.2113L32.0125,34l31.35275-3.04871a.63049.63049,0,0,0,.44871-.189A.65444.65444,0,0,0,64,30.30371V3.71564a.66831.66831,0,0,0-.19182-.471.64465.64465,0,0,0-.46273-.19591L31.9994,0Z" fill="#fff" /></g><text fill="#fff" font-family="AudiTypeDisplayHigh-Normal, Audi Type Display High" font-size="22" id="Text" transform="translate(9.85014 25.43917)">{value}</text></g></svg>