<svg xmlns="http://www.w3.org/2000/svg" id="Icon" viewBox="0 0 40 40"><defs /><path d="M20,39.25c-6.9917,0-12.17773-1.52344-14.99707-4.40625a7.21118,7.21118,0,0,1-2.25342-4.82324c0-.21094-.04834-18.9253.00049-22.51026A7.08407,7.08407,0,0,0,1.94482,3.75H13.75v-3h12.5v3H38.05566A7.08351,7.08351,0,0,0,37.25,7.51025c.04785,3.585.001,22.29932,0,22.4878a7.20089,7.20089,0,0,1-2.25293,4.8457C32.17773,37.72656,26.99121,39.25,20,39.25Z" fill="#fff" /><path d="M25.5,1.5v3H36.89531a9.37757,9.37757,0,0,0-.39517,3.02027c.04836,3.57916.00036,22.28727.00026,22.51291a6.544,6.544,0,0,1-2.07661,4.32325C31.74034,37.06718,26.75267,38.5,20,38.5S8.25966,37.06718,5.57621,34.35643A6.55362,6.55362,0,0,1,3.49917,30.05l.0009-.02693L3.5,29.9961c-.00049-.18856-.04849-18.89667-.00013-22.47583A9.37757,9.37757,0,0,0,3.10469,4.5H14.5v-3h11M27,0H13V3H0s2.05505.42661,2,4.5C1.95091,11.13269,2,30,2,30S1.66667,40,20,40,38,30,38,30s.04909-18.86731,0-22.5C37.945,3.42661,40,3,40,3H27V0Z" fill="#0b3dff" /><path d="M16,6h8V8.5a7.48918,7.48918,0,0,1-4.05556,1.77778A6.41245,6.41245,0,0,1,16,8.61111Z" fill="#ff2500" /><line fill="none" stroke="#adbdff" stroke-miterlimit="10" x1="5" x2="14.5" y1="7.5" y2="7.5" /><line fill="none" stroke="#adbdff" stroke-miterlimit="10" x1="25.5" x2="35" y1="7.5" y2="7.5" /><rect fill="#fcfc4f" height="3.5" width="8" x="16" y="3" /><path d="M23,4V8.01665a5.99283,5.99283,0,0,1-3.08182,1.26147l-.07406.001A5.093,5.093,0,0,1,17,8.14115V4h6m1-1H16V8.61111a6.48221,6.48221,0,0,0,3.84412,1.668q.05,0,.10032-.00131A7.4891,7.4891,0,0,0,24,8.5V3Z" fill="#0b3dff" /><text font-family="AudiTypeDisplayHigh-Bold, Audi Type Display High" font-size="15px" font-weight="700" isolation="isolate" transform="translate(4.33887 26.35496)">{value}</text></svg>