<svg xmlns="http://www.w3.org/2000/svg" viewBox="0 0 64 35">
<g id="ri_rectangle_blue_white_3dig">
<g id="Schild">
<path d="M3.67371,34.25a2.86192,2.86192,0,0,1-2.058-.87109,3.01469,3.01469,0,0,1-.86084-2.123V3.771a3.03937,3.03937,0,0,1,.86768-2.14209A2.89426,2.89426,0,0,1,3.70044.75H60.349a2.85339,2.85339,0,0,1,2.04993.86768,3.00028,3.00028,0,0,1,.856,2.1123V31.2793a2.99518,2.99518,0,0,1-.85437,2.10742A2.83968,2.83968,0,0,1,60.3584,34.25Z" fill="#1f4aff" fill-rule="evenodd" />
<path d="M60.34912,1.5a2.11,2.11,0,0,1,1.51367.6416,2.25616,2.25616,0,0,1,.64209,1.58854V31.27946a2.244,2.244,0,0,1-.64013,1.582A2.09491,2.09491,0,0,1,60.3584,33.5H3.67383a2.11989,2.11989,0,0,1-1.523-.64631,2.26825,2.26825,0,0,1-.646-1.59774V3.77075a2.29264,2.29264,0,0,1,.65283-1.61616A2.14849,2.14849,0,0,1,3.70068,1.5H60.34912m0-1.5H3.70068A3.65087,3.65087,0,0,0,1.08691,1.10409a3.79772,3.79772,0,0,0-1.082,2.66666V31.256a3.77271,3.77271,0,0,0,1.07471,2.64746A3.61877,3.61877,0,0,0,3.67383,35H60.3584a3.59561,3.59561,0,0,0,2.57812-1.08919,3.748,3.748,0,0,0,1.06836-2.63135V3.73014a3.76053,3.76053,0,0,0-1.07031-2.63775A3.611,3.611,0,0,0,60.34912,0Z" fill="#fff" />
</g>
<text fill="#fff" font-family="AudiTypeDisplayHigh-Normal, Audi Type Display High" font-size="22" id="Text" text-anchor="middle" transform="translate(32 25.22952)">{value}</text>
</g>
</svg>