<svg xmlns="http://www.w3.org/2000/svg" id="Icon" viewBox="0 0 40 40"><defs /><rect height="40" id="Hintergrund" rx="2" width="40" /><path d="M28.47377,38.33252c-.48286,0-.061-.76187.50092-1.77144.80555-1.351,1.44-3.4296.49412-3.46654H6.09129c-.61977,0-.61977,0-.62565-.57913s.00587-.17844.00587-9.28261V14.48845l-.25139-.73136a5.56306,5.56306,0,0,0-.45837-.98862c-.1392-.21267-.16455-.48643-.16455-1.77727V9.46532L3.822,7.91521A12.82907,12.82907,0,0,1,2.51758,4.70689,6.19378,6.19378,0,0,0,2.0279,3.44952c-.495-.9875-.07675-1.78285.39117-1.78285H29.47291c.22066,0,.72721.22936.79491.543.19843.91951-.15905,1.03229.18658,1.77958.43281.93576.15284,1.16761.46564,1.6542.18829.29291.55988.93666.82576,1.43056s.63438,1.14788.81889,1.4533a6.93866,6.93866,0,0,1,.81884,2.2518,4.95065,4.95065,0,0,0,.90674,1.82546,18.55454,18.55454,0,0,1,1.28915,2.59867c.17071.47216.19006.79762.21084,3.54472.01352,1.78677.0688,3.29566.13509,3.68651a10.9999,10.9999,0,0,0,.996,2.88,1.21892,1.21892,0,0,1,.21129.9075,2.141,2.141,0,0,0,.18975,1.03979,8.189,8.189,0,0,1,.8448,2.388,2.42442,2.42442,0,0,1-.52358,1.93861A5.39547,5.39547,0,0,0,37.081,32.721,3.3789,3.3789,0,0,1,35.8209,34.7739a5.09177,5.09177,0,0,0-.83361,1.7454,2.48059,2.48059,0,0,0-.30721,1.00106c-.00723.87055.05985.81216-.81277.81216Z" fill="#fff" id="Form" /><text font-family="AudiTypeDisplayHigh-Bold, Audi Type Display High" font-size="21px" font-weight="700" transform="translate(5.38322 26.53152)">{value}</text></svg>