<svg xmlns="http://www.w3.org/2000/svg" viewBox="0 0 34 34"><g id="ri_kuwait_ring_1dig"><g id="Schild"><path d="M2.60474,33.25a1.85466,1.85466,0,0,1-1.8545-1.85059V2.60059A1.85466,1.85466,0,0,1,2.60474.75h28.79a1.85486,1.85486,0,0,1,1.85546,1.85059V31.39941A1.85486,1.85486,0,0,1,31.39478,33.25Z" fill="#fff" fill-rule="evenodd" /><path d="M31.39478,1.5A1.10409,1.10409,0,0,1,32.5,2.60039V31.39961A1.10409,1.10409,0,0,1,31.39478,32.5H2.605A1.10389,1.10389,0,0,1,1.5,31.39961V2.60039A1.10389,1.10389,0,0,1,2.605,1.5h28.7898m0-1.5H2.605A2.60268,2.60268,0,0,0,0,2.60039V31.39961A2.60268,2.60268,0,0,0,2.605,34h28.7898A2.60288,2.60288,0,0,0,34,31.39961V2.60039A2.60288,2.60288,0,0,0,31.39478,0Z" fill="#4b70eb" /></g><text fill="#4b70eb" font-family="AudiTypeDisplayHigh-Normal, Audi Type Display High" font-size="23.99999" id="Text" transform="translate(9.06763 25.68262)">{value}</text></g></svg>