<svg xmlns="http://www.w3.org/2000/svg" viewBox="0 0 53 47"><path d="m11 2-8 7.5c3.33 2.05 5 4.71 5 8 0 2.32-0.327 4.47-1.5 6.75-1.32 2.56-4.5 4.83-4.5 9.25 0 7.5 5 10.2 11 10.2 2.4 0 4-1 7-1 0.601 0 2.6 0.75 6 2.25h1.02c3.32-1.5 5.32-2.25 5.99-2.25 3 0 4.6 1 7 1 6 0 11-2.75 11-10.2 0-4.5-3.14-6.6-4.5-9.25-1.11-2.16-1.5-4.51-1.5-6.75 0-3.32 1.67-5.99 5-8l-8-7.5c-4 1.33-6.67 2-8 2-2 0-4 0-7.5-2-3.5 2-5.5 2-7.5 2-1.33 0-4-0.667-8-2z" fill="#FFF" stroke="#FFF" stroke-width="4" /><path d="m45.1 16c-0.0805 0.485-0.121 0.985-0.121 1.5 0 2.24 0.388 4.59 1.5 6.75 1.36 2.65 4.5 4.75 4.5 9.25 0 7.5-5 10.2-11 10.2-2.4 0-4-1-7-1-0.667 0-2.66 0.75-5.99 2.25h-1.02c-3.4-1.5-5.4-2.25-6-2.25-3 0-4.6 1-7 1-6 0-11-2.75-11-10.2 0-4.42 3.18-6.69 4.5-9.25 1.17-2.27 1.5-4.42 1.5-6.75 0-0.517-0.0411-1.02-0.123-1.5z" fill="#0F448C" /><path d="m42 2 8 7.5c-2.07 1.25-3.49 2.75-4.28 4.5l-38.5 1.4e-4c-0.787-1.74-2.21-3.24-4.27-4.5l8-7.5c4 1.33 6.67 2 8 2 2 0 4 0 7.5-2 3.5 2 5.5 2 7.5 2 1.33 0 4-0.667 8-2z" fill="#B33229" /><text fill="#FFF" font-family="AudiTypeDisplayHigh-Normal, Audi Type Display High" font-size="22" font-weight="500" text-anchor="middle" x="26.5" y="36.0">{value}</text></svg>