<svg xmlns="http://www.w3.org/2000/svg" viewBox="0 0 34 34.00001"><g id="ri_india_district_2dig"><g id="Schild"><path d="M1.12891,33.25044A.37948.37948,0,0,1,.75,32.87055V8.59858C.75,5.84174,7.45117.75,17,.75c9.5293,0,16.2168,5.09179,16.2168,7.84863L33.25,32.84223c0,.12012-.03027.40235-.31543.40235Z" fill="#fff" fill-rule="evenodd" /><path d="M17,1.5c9.46411,0,15.4668,4.9914,15.4668,7.10056l.03271,23.89395L1.5,32.49994V8.59851C1.5,6.55122,7.67749,1.5,17,1.5M17,0C7.40918,0,0,5.19648,0,8.59851v24.2724A1.12918,1.12918,0,0,0,1.12915,34h.00024l31.80542-.00558A1.07062,1.07062,0,0,0,34,32.84155l-.0332-24.243C33.9668,5.19648,26.65723,0,17,0Z" /><path d="M12.74634,12.06473s.04536-4.68165.063-4.90966c-.08818.228-1.772,3.35093-1.772,3.35093h-.75837S8.56482,7.29406,8.517,7.1706c.01764.22928.05963,4.89413.05963,4.89413H7.43273V5.52579h1.2799s1.90054,3.49958,1.96185,3.673c.05543-.16881,1.95933-3.673,1.95933-3.673h1.25891v6.53894Z" /><path d="M15.4506,12.06473V5.52579h2.281a3.74672,3.74672,0,0,1,.95741.1117,2.55139,2.55139,0,0,1,.74157.31746,2.12618,2.12618,0,0,1,.54421.49928,2.66464,2.66464,0,0,1,.36617.65465,3.61858,3.61858,0,0,1,.20576.78482,5.93259,5.93259,0,0,1,.06466.89064,5.509,5.509,0,0,1-.0697.88938,3.73381,3.73381,0,0,1-.215.78945,2.69249,2.69249,0,0,1-.3754.6601,2.23158,2.23158,0,0,1-.55009.50474,2.58388,2.58388,0,0,1-.74074.32334,3.61126,3.61126,0,0,1-.94313.11338Zm2.19869-1.04937a2.04,2.04,0,0,0,.52321-.063A1.48638,1.48638,0,0,0,18.6,10.76719a1.31309,1.31309,0,0,0,.33425-.3078,1.67976,1.67976,0,0,0,.23851-.4321,2.72689,2.72689,0,0,0,.14277-.55471,4.82758,4.82758,0,0,0,0-1.35632,2.73114,2.73114,0,0,0-.14277-.55513,1.65762,1.65762,0,0,0-.23851-.43084,1.33277,1.33277,0,0,0-.33425-.307,1.498,1.498,0,0,0-.42748-.18518,2.04059,2.04059,0,0,0-.52321-.06257h-.99185v4.43978Z" /><path d="M25.43789,12.06473,24.19326,9.9748c-.03863-.0676-.07559-.12639-.10834-.17636a1.23689,1.23689,0,0,0-.09826-.12891.487.487,0,0,0-.09994-.08735.4624.4624,0,0,0-.11506-.05165.7501.7501,0,0,0-.14529-.02645c-.05375-.005-.11674-.00756-.18728-.00756H23.0704v2.56821h-1.201V5.52579h2.14493a3.63518,3.63518,0,0,1,.97169.118,1.85787,1.85787,0,0,1,.70966.36071,1.53849,1.53849,0,0,1,.43419.6072,2.28428,2.28428,0,0,1,.14781.85872,2.1003,2.1003,0,0,1-.0991.66683,1.7702,1.7702,0,0,1-.27042.52364,1.63671,1.63671,0,0,1-.40144.37708,1.84213,1.84213,0,0,1-.493.22928,1.01,1.01,0,0,1,.24524.18182,1.48458,1.48458,0,0,1,.20743.26791l1.40084,2.34775ZM23.90016,8.5156a1.70957,1.70957,0,0,0,.48542-.063.915.915,0,0,0,.35693-.19316A.824.824,0,0,0,24.9617,7.934a1.28624,1.28624,0,0,0,.07391-.45813A1.0493,1.0493,0,0,0,24.96,7.06227a.7572.7572,0,0,0-.22-.29688.96031.96031,0,0,0-.35609-.17889,1.77319,1.77319,0,0,0-.48374-.05963H23.0704V8.5156Z" /></g><text font-family="AudiTypeDisplayHigh-Bold, Audi Type Display High" font-size="19.97362" font-weight="700" id="Text" transform="translate(3.12439 30.25629)">{value}</text></g></svg>