<svg xmlns="http://www.w3.org/2000/svg" viewBox="0 0 71 39"><g id="ri_saudiarabia_national4th_4dig"><g id="Schild"><path d="M2.08813,38.24981A1.37383,1.37383,0,0,1,.75024,36.84649V2.15361A1.374,1.374,0,0,1,2.08813.74981H68.91138a1.37411,1.37411,0,0,1,1.33886,1.4038V36.84649a1.374,1.374,0,0,1-1.33886,1.40332Z" fill="#50a556" fill-rule="evenodd" /><path d="M68.91187,1.5A.62432.62432,0,0,1,69.5,2.15377V36.84623a.62432.62432,0,0,1-.58813.65377H2.08813A.62432.62432,0,0,1,1.5,36.84623V2.15377A.62432.62432,0,0,1,2.08813,1.5H68.91187m0-1.5H2.08813A2.12166,2.12166,0,0,0,0,2.15377V36.84623A2.12166,2.12166,0,0,0,2.08813,39H68.91187A2.12182,2.12182,0,0,0,71,36.84623V2.15377A2.12182,2.12182,0,0,0,68.91187,0Z" fill="#fff" /><path d="M35.49246,34.99219c-18.89746,0-31.59473-6.15821-31.59473-15.32325,0-9.23632,12.99219-15.687,31.59473-15.687,18.60351,0,31.5957,6.45069,31.5957,15.687C67.08816,28.834,54.3909,34.99219,35.49246,34.99219Z" fill="#50a556" fill-rule="evenodd" /><path d="M35.493,4.73205c18.16162,0,30.8457,6.14232,30.8457,14.93705,0,8.71654-12.396,14.573-30.8457,14.573S4.64724,28.38564,4.64724,19.6691c0-8.79473,12.68409-14.937,30.84571-14.937m0-1.5c-19.26075,0-32.34571,6.754-32.34571,16.43705s13.085,16.073,32.34571,16.073,32.3457-6.38995,32.3457-16.07295-13.085-16.437-32.3457-16.437Z" fill="#fff" /><path d="M36.02439,6.46381c16.66706,0,28.70786,5.38086,28.70786,13.09554S52.69145,32.54071,36.02439,32.54071,6.29164,27.274,6.29164,19.55935,19.35733,6.46381,36.02439,6.46381Z" fill="#fff" fill-rule="evenodd" /><path d="M36.7574,9.0104c.1002.32317-.02227.10976-.30064-.14025a.4703.4703,0,0,0-.55112-.08536,2.20566,2.20566,0,0,1,.34515.37805c.167.2317.08908.78049.02784.47561s-.65413-.57318-.65413-.57318l.08629,2.80492h-.34516l.08629-2.80492s-.59289.2683-.65414.57318-.13917-.24391.02784-.47561a2.20592,2.20592,0,0,1,.34516-.378.47034.47034,0,0,0-.55115.08536c-.27834.25-.40082.46342-.30062.14025s.27836-.73172.501-.75.26722-.04877-.1002-.15854a.63225.63225,0,0,0-.57342.061.65063.65063,0,0,1,.31177-.45122.63749.63749,0,0,1,.56783,0c.10021.05487-.039-.18293-.32288-.30489s-.37857-.128-.08909-.17682a1.0203,1.0203,0,0,1,.68476.14634c.07237.06707.23938-.36586.23938-.36586s.167.43293.2394.36586a1.02025,1.02025,0,0,1,.68474-.14634c.28949.04877.19485.05487-.08907.17682s-.42309.35976-.32289.30489a.63751.63751,0,0,1,.56784,0,.6506.6506,0,0,1,.31176.45122.63223.63223,0,0,0-.57341-.061c-.36742.10977-.3229.14025-.10021.15854S36.65719,8.68722,36.7574,9.0104Zm1.50868,2.17076c.31176-.04878.76825-.13415.76825-.13415a2.89576,2.89576,0,0,0-1.44744-.08537,4.24576,4.24576,0,0,0-1.64229.90855,2.50136,2.50136,0,0,0-.4064.38415,2.50115,2.50115,0,0,0-.40638-.38415,4.2459,4.2459,0,0,0-1.6423-.90855,2.89576,2.89576,0,0,0-1.44744.08537s.4565.08537.76826.13415a6.87277,6.87277,0,0,1,1.38063.5061,6.4118,6.4118,0,0,1,1.02435.7866l-.45664.40968-.15905-.32116-.15257.131.13361.36586-.43424.43293-.27835-.1189-.1002.07013v.189l.34515.372.72372-.60367s.11691.34147.16145.28049-.0501-.439-.0501-.439l.5901-.5.59012.5s-.09465.37805-.05011.439.16145-.28049.16145-.28049l.72371.60367.34516-.372v-.189l-.1002-.07013-.27835.1189-.43423-.43293.13361-.36586-.15258-.131-.159.32116-.45664-.40968a6.41131,6.41131,0,0,1,1.02435-.7866A6.87277,6.87277,0,0,1,38.26608,11.18116Z" fill="#50a556" /></g><text font-family="AudiTypeDisplayHigh-Bold, Audi Type Display High" font-size="17" font-weight="700" id="Text" transform="translate(11.83447 28.10068)">{value}</text></g></svg>