<svg xmlns="http://www.w3.org/2000/svg" viewBox="0 0 64 35"><g fill-rule="evenodd"><path d="m0 3.79a3.82 3.82 0 0 1 1.09-2.68 3.67 3.67 0 0 1 2.63-1.11h56.6a3.63 3.63 0 0 1 2.6 1.1 3.78 3.78 0 0 1 1.08 2.65v27.5a3.77 3.77 0 0 1-1.07 2.65 3.62 3.62 0 0 1-2.59 1.1h-56.6a3.64 3.64 0 0 1-2.61-1.1 3.79 3.79 0 0 1-1.08-2.66z" fill="#e52421" /><path d="m2 5.9a0.711 0.711 0 0 1 0.198-0.495 0.663 0.663 0 0 1 0.478-0.206l29.5-3.19 29.1 3.19a0.658 0.658 0 0 1 0.476 0.205 0.705 0.705 0 0 1 0.198 0.492v23.2a0.69 0.69 0 0 1-0.192 0.48 0.644 0.644 0 0 1-0.462 0.198l-29.4 3.19-29.3-3.19a0.712 0.712 0 0 1-0.515-0.221 0.769 0.769 0 0 1-0.213-0.534z" fill="#fff" /></g><text fill="#e52421" font-family="AudiTypeDisplayHigh-Bold, Audi Type Display High" font-size="24" font-weight="700" text-anchor="middle" transform="translate(32 26.2)">{value}</text></svg>