<svg xmlns="http://www.w3.org/2000/svg" viewBox="0 0 54 34"><g id="ri_australia_state_3dig"><g id="Schild"><path d="M27.13943,33.22358c-1.7002-.46485-14.79834-4.32129-22.3916-14.69873C-.89182,10.81684.80691,5.43647,1.79958,3.4809c.9668-1.90625,2.24073-2.731,2.67676-2.731H49.80886c.39111,0,1.53858.74951,2.41748,2.48145.99512,1.96142,2.68506,7.3789-3.10644,15.29346C41.53249,28.89447,28.81081,32.75287,27.13943,33.22358Z" fill="#4b70eb" /><path d="M49.75686,1.5A5.10708,5.10708,0,0,1,51.937,4.44755c.81494,2.23153,1.4541,6.97021-3.42188,13.63436C41.31643,27.92,29.36648,31.79153,27.13674,32.44407c-2.2749-.64626-14.57934-4.51587-21.78393-14.36216C.584,11.56446,1.26662,6.87727,2.09792,4.66336A5.57085,5.57085,0,0,1,4.52371,1.5H49.75686m.052-1.5H4.47634c-2.18164,0-8.6897,7.54836-.334,18.96768C12.49783,30.387,27.1426,34,27.1426,34s14.2273-3.613,22.583-15.03232C58.08108,7.54836,51.99026,0,49.80886,0Z" fill="#fff" /></g><text fill="#fff" font-family="AudiTypeDisplayHigh-Bold, Audi Type Display High" font-size="19" font-weight="700" id="Text" transform="translate(7.12783 20.26107)">{value}</text></g></svg>