<svg xmlns="http://www.w3.org/2000/svg" data-name="Layer 1" id="Layer_1" viewBox="0 0 50 40"><defs /><path d="M25,1.00034a11.71813,11.71813,0,0,1-7.05078,2.243A11.71737,11.71737,0,0,1,10.89844,1L1.25,8.993A7.44008,7.44008,0,0,1,5.20833,15.2773a6.751,6.751,0,0,1-1.69347,4.4A9.00332,9.00332,0,0,0,1.25,25.54167c0,5.71851,5.77424,10.358,12.9129,10.39043A19.97043,19.97043,0,0,1,25,39a19.97,19.97,0,0,1,10.8371-3.0679C42.9757,35.89963,48.75,31.26018,48.75,25.54167a9.00363,9.00363,0,0,0-2.26486-5.8644,6.751,6.751,0,0,1-1.69347-4.4A7.44008,7.44008,0,0,1,48.75,8.993L39.10156,1a11.71737,11.71737,0,0,1-7.05078,2.24338A11.71813,11.71813,0,0,1,25,1.00034Z" fill="#fff" stroke="#000" stroke-width=" 1.5px" id="Hintergrund" transform="translate(0 0)" /><text font-family="AudiTypeDisplayHigh-Bold, Audi Type Display High" font-size="18px" font-weight="700" id="Nummer" transform="translate(25.2 26.62166)" text-anchor="middle">{value}</text></svg>