<svg xmlns="http://www.w3.org/2000/svg" id="Icon" viewBox="0 0 31 40"><defs /><path d="M15.5,40,2.39317,34.61413A3.99352,3.99352,0,0,1,0,31.11594V11H31V31.11594a3.99354,3.99354,0,0,1-2.39317,3.49819Z" fill="#003882" id="path5807-2" /><path d="M0,0H31V10H0Z" fill="#003882" id="rect3294" /><path d="M4.90458,5.68116l-.245,3.07246" fill="none" id="path3170" stroke="#fff" stroke-width="0.28844px" /><path d="M5.38939,5.68116,5.21122,8.75362" fill="none" id="path3172" stroke="#fff" stroke-width="0.28844px" /><path d="M5.852,5.68116,5.7858,8.75362" fill="none" id="path3174" stroke="#fff" stroke-width="0.28844px" /><path d="M6.326,5.68116l.04892,3.07246" fill="none" id="path3176" stroke="#fff" stroke-width="0.28844px" /><path d="M6.78709,5.68116l.15953,3.07246" fill="none" id="path3178" stroke="#fff" stroke-width="0.28844px" /><path d="M7.26691,5.68116l.26866,3.07246" fill="none" id="path3180" stroke="#fff" stroke-width="0.28844px" /><path d="M4.9297,5.47826C5.21831,2.5826,7.23015,2.10588,7.91186,2.01168" fill="none" id="path3182" stroke="#fff" stroke-width="0.28844px" /><path d="M5.40579,5.47826A2.9668,2.9668,0,0,1,8.306,2.42949" fill="none" id="path3184" stroke="#fff" stroke-width="0.28844px" /><path d="M5.85485,5.47826a2.61826,2.61826,0,0,1,2.80994-2.619" fill="none" id="path3186" stroke="#fff" stroke-width="0.28844px" /><path d="M6.325,5.47826A2.278,2.278,0,0,1,8.92294,3.301" fill="none" id="path3188" stroke="#fff" stroke-width="0.28844px" /><path d="M6.77738,5.47826c-.035-1.5109,1.7339-1.88388,2.308-1.66649" fill="none" id="path3190" stroke="#fff" stroke-width="0.28844px" /><path d="M7.24553,5.47826c-.091-1.13365,1.40441-1.46311,1.93542-1.108" fill="none" id="path3192" stroke="#fff" stroke-width="0.28844px" /><path d="M3.01613,4.33232a1.3706,1.3706,0,0,1,1.64492.39751" fill="none" id="path3194" stroke="#fff" stroke-width="0.28844px" /><path d="M3.0895,3.82829a1.5407,1.5407,0,0,1,1.731.40837" fill="none" id="path3196" stroke="#fff" stroke-width="0.28844px" /><path d="M3.26673,3.29205A2.13677,2.13677,0,0,1,5.018,3.79353" fill="none" id="path3198" stroke="#fff" stroke-width="0.28844px" /><path d="M3.47754,2.82214a2.38907,2.38907,0,0,1,1.76057.59808" fill="none" id="path3200" stroke="#fff" stroke-width="0.28844px" /><path d="M3.84349,2.40693a2.29562,2.29562,0,0,1,1.64133.64824" fill="none" id="path3202" stroke="#fff" stroke-width="0.28844px" /><path d="M4.26218,2.01283a2.075,2.075,0,0,1,1.56222.70388" fill="none" id="path3204" stroke="#fff" stroke-width="0.28844px" /><path d="M4.84979,1.67242a2.52126,2.52126,0,0,1,1.31435.73783" fill="none" id="path3206" stroke="#fff" stroke-width="0.28844px" /><path d="M5.5753,1.42613a3.0504,3.0504,0,0,1,.98746.68656" fill="none" id="path3208" stroke="#fff" stroke-width="0.28844px" /><path d="M14.39138,5.68116l-.245,3.07246" fill="none" id="path3170-5" stroke="#fff" stroke-width="0.28844px" /><path d="M14.87618,5.68116,14.698,8.75362" fill="none" id="path3172-7" stroke="#fff" stroke-width="0.28844px" /><path d="M15.33875,5.68116,15.2726,8.75362" fill="none" id="path3174-6" stroke="#fff" stroke-width="0.28844px" /><path d="M15.8128,5.68116l.04891,3.07246" fill="none" id="path3176-1" stroke="#fff" stroke-width="0.28844px" /><path d="M16.27389,5.68116l.15953,3.07246" fill="none" id="path3178-8" stroke="#fff" stroke-width="0.28844px" /><path d="M16.7537,5.68116l.26866,3.07246" fill="none" id="path3180-9" stroke="#fff" stroke-width="0.28844px" /><path d="M14.41649,5.47826c.28861-2.89566,2.30045-3.37238,2.98216-3.46658" fill="none" id="path3182-2" stroke="#fff" stroke-width="0.28844px" /><path d="M14.89258,5.47826a2.96681,2.96681,0,0,1,2.90016-3.04877" fill="none" id="path3184-7" stroke="#fff" stroke-width="0.28844px" /><path d="M15.34164,5.47826a2.61826,2.61826,0,0,1,2.80994-2.619" fill="none" id="path3186-9" stroke="#fff" stroke-width="0.28844px" /><path d="M15.81174,5.47826a2.278,2.278,0,0,1,2.598-2.17731" fill="none" id="path3188-5" stroke="#fff" stroke-width="0.28844px" /><path d="M16.26417,5.47826c-.035-1.5109,1.7339-1.88388,2.308-1.66649" fill="none" id="path3190-4" stroke="#fff" stroke-width="0.28844px" /><path d="M16.73232,5.47826c-.091-1.13365,1.40441-1.46311,1.93543-1.108" fill="none" id="path3192-3" stroke="#fff" stroke-width="0.28844px" /><path d="M12.50292,4.33232a1.3706,1.3706,0,0,1,1.64492.39751" fill="none" id="path3194-1" stroke="#fff" stroke-width="0.28844px" /><path d="M12.57629,3.82829a1.5407,1.5407,0,0,1,1.731.40837" fill="none" id="path3196-2" stroke="#fff" stroke-width="0.28844px" /><path d="M12.75353,3.29205a2.13675,2.13675,0,0,1,1.75128.50148" fill="none" id="path3198-3" stroke="#fff" stroke-width="0.28844px" /><path d="M12.96433,2.82214a2.38906,2.38906,0,0,1,1.76057.59808" fill="none" id="path3200-3" stroke="#fff" stroke-width="0.28844px" /><path d="M13.33028,2.40693a2.29562,2.29562,0,0,1,1.64133.64824" fill="none" id="path3202-4" stroke="#fff" stroke-width="0.28844px" /><path d="M13.749,2.01283a2.075,2.075,0,0,1,1.56221.70388" fill="none" id="path3204-1" stroke="#fff" stroke-width="0.28844px" /><path d="M14.33658,1.67242a2.52122,2.52122,0,0,1,1.31435.73783" fill="none" id="path3206-1" stroke="#fff" stroke-width="0.28844px" /><path d="M15.0621,1.42613a3.0504,3.0504,0,0,1,.98746.68656" fill="none" id="path3208-3" stroke="#fff" stroke-width="0.28844px" /><path d="M23.70751,5.68116l-.245,3.07246" fill="none" id="path3170-4" stroke="#fff" stroke-width="0.28844px" /><path d="M24.19231,5.68116l-.17817,3.07246" fill="none" id="path3172-2" stroke="#fff" stroke-width="0.28844px" /><path d="M24.65489,5.68116l-.06616,3.07246" fill="none" id="path3174-7" stroke="#fff" stroke-width="0.28844px" /><path d="M25.12893,5.68116l.04892,3.07246" fill="none" id="path3176-7" stroke="#fff" stroke-width="0.28844px" /><path d="M25.59,5.68116l.15953,3.07246" fill="none" id="path3178-9" stroke="#fff" stroke-width="0.28844px" /><path d="M26.06983,5.68116l.26866,3.07246" fill="none" id="path3180-3" stroke="#fff" stroke-width="0.28844px" /><path d="M23.73262,5.47826c.28862-2.89566,2.30045-3.37238,2.98216-3.46658" fill="none" id="path3182-1" stroke="#fff" stroke-width="0.28844px" /><path d="M24.20871,5.47826a2.96681,2.96681,0,0,1,2.90017-3.04877" fill="none" id="path3184-9" stroke="#fff" stroke-width="0.28844px" /><path d="M24.65777,5.47826a2.61826,2.61826,0,0,1,2.80994-2.619" fill="none" id="path3186-8" stroke="#fff" stroke-width="0.28844px" /><path d="M25.12788,5.47826a2.27794,2.27794,0,0,1,2.598-2.17731" fill="none" id="path3188-6" stroke="#fff" stroke-width="0.28844px" /><path d="M25.5803,5.47826c-.035-1.5109,1.7339-1.88388,2.308-1.66649" fill="none" id="path3190-5" stroke="#fff" stroke-width="0.28844px" /><path d="M26.04845,5.47826c-.091-1.13365,1.40441-1.46311,1.93543-1.108" fill="none" id="path3192-0" stroke="#fff" stroke-width="0.28844px" /><path d="M21.81905,4.33232a1.3706,1.3706,0,0,1,1.64492.39751" fill="none" id="path3194-2" stroke="#fff" stroke-width="0.28844px" /><path d="M21.89242,3.82829a1.5407,1.5407,0,0,1,1.731.40837" fill="none" id="path3196-8" stroke="#fff" stroke-width="0.28844px" /><path d="M22.06966,3.29205a2.13679,2.13679,0,0,1,1.75129.50148" fill="none" id="path3198-6" stroke="#fff" stroke-width="0.28844px" /><path d="M22.28046,2.82214a2.38906,2.38906,0,0,1,1.76057.59808" fill="none" id="path3200-0" stroke="#fff" stroke-width="0.28844px" /><path d="M22.64641,2.40693a2.2956,2.2956,0,0,1,1.64133.64824" fill="none" id="path3202-2" stroke="#fff" stroke-width="0.28844px" /><path d="M23.06511,2.01283a2.075,2.075,0,0,1,1.56221.70388" fill="none" id="path3204-4" stroke="#fff" stroke-width="0.28844px" /><path d="M23.65271,1.67242a2.52122,2.52122,0,0,1,1.31435.73783" fill="none" id="path3206-8" stroke="#fff" stroke-width="0.28844px" /><path d="M24.37823,1.42613a3.0504,3.0504,0,0,1,.98746.68656" fill="none" id="path3208-6" stroke="#fff" stroke-width="0.28844px" /><text fill="#fff" font-family="AudiTypeDisplayHigh-Bold, Audi Type Display High" font-size="14px" font-weight="700" isolation="isolate" transform="translate(0.88317 27.35489)">{value}</text></svg>