<svg xmlns="http://www.w3.org/2000/svg" viewBox="0 0 64 35"><g id="ri_jordan_3dig"><g id="Schild"><path d="M3.63313,34.25a2.8013,2.8013,0,0,1-2.02832-.873,3.065,3.065,0,0,1-.85449-2.1416V3.791a3.08813,3.08813,0,0,1,.86133-2.16016A2.832,2.832,0,0,1,3.66047.75H60.37922a2.79476,2.79476,0,0,1,2.02149.86914,3.05146,3.05146,0,0,1,.84961,2.13135V31.25977a3.03793,3.03793,0,0,1-.84864,2.125A2.77954,2.77954,0,0,1,60.389,34.25Z" fill="#50a556" fill-rule="evenodd" /><path d="M60.37922,1.5a2.04993,2.04993,0,0,1,1.481.63973,2.30306,2.30306,0,0,1,.63965,1.61056V31.2594a2.29244,2.29244,0,0,1-.6377,1.60424A2.03553,2.03553,0,0,1,60.389,33.5H3.63362a2.05689,2.05689,0,0,1-1.48975-.64449,2.31459,2.31459,0,0,1-.644-1.61982V3.7912a2.34436,2.34436,0,0,1,.65039-1.63858A2.08883,2.08883,0,0,1,3.66,1.5H60.37922m0-1.5H3.66A3.58927,3.58927,0,0,0,1.07161,1.11009,3.85056,3.85056,0,0,0-.00017,3.7912V31.23569A3.822,3.822,0,0,0,1.06477,33.8975,3.55556,3.55556,0,0,0,3.63362,35H60.389a3.534,3.534,0,0,0,2.55273-1.0951,3.79833,3.79833,0,0,0,1.05811-2.6455V3.75029a3.8092,3.8092,0,0,0-1.06006-2.652A3.54874,3.54874,0,0,0,60.37922,0Z" fill="#f1c61b" /></g><text fill="#f1c61b" font-family="AudiTypeDisplayHigh-Bold, Audi Type Display High" font-size="24" font-weight="700" id="Text" transform="translate(3.77522 26.0459)">{value}</text></g></svg>