<svg xmlns="http://www.w3.org/2000/svg" id="Icon" viewBox="0 0 40 40"><defs /><rect fill="#fff" height="39" rx="1.5" width="39" x="0.5" y="0.5" /><path d="M38,1a1.00113,1.00113,0,0,1,1,1V38a1.00113,1.00113,0,0,1-1,1H2a1.00113,1.00113,0,0,1-1-1V2A1.00113,1.00113,0,0,1,2,1H38m0-1H2A2,2,0,0,0,0,2V38a2,2,0,0,0,2,2H38a2,2,0,0,0,2-2V2a2,2,0,0,0-2-2Z" /><ellipse cx="20" cy="25" rx="16" ry="10" /><path d="M33.9966,11.76573H33.127v-.244c-.04933.06741-.20242.28557-.74239.27l.00633.00425H32.3391c-.77613,0-1.451-.58664-1.573-1.69759a.70133.70133,0,0,0-.14268.08293.848.848,0,0,0-.07294.0572.54633.54633,0,0,0-.0959.07783,1.96027,1.96027,0,0,1-1.90786,1.47954,1.2,1.2,0,0,1-1.29529-1.28227l.00634-.52434a1.83772,1.83772,0,0,0-.30888.16076.49.49,0,0,1-.07527.05188c-.12971.104-.244.19223-.34.28033a1.77281,1.77281,0,0,1-1.61713,1.30828A1.93025,1.93025,0,0,1,23.17728,9.714a2.34953,2.34953,0,0,1,.32445-1.20959h-.88515l-.00637,2.28427c0,.4828.17139.70086.514.74239l-.17139.27516c-.815-.07782-1.48466-.41014-1.4691-1.22515l-.00426-.56068a1.23324,1.23324,0,0,0-.31408.161.54438.54438,0,0,0-.07018.0572,1.55248,1.55248,0,0,0-.6541,1.16292v.35821H19.33786V10.02051a1.45376,1.45376,0,0,0-.32447.161.41336.41336,0,0,0-.07251.0572,1.613,1.613,0,0,0-.65672,1.05388v.46723H17.19133V8.93039c0-.23894-.12716-.3634-.31145-.3634h-.03105c-.17649,0-.46983.17139-.475,1.13169l.00212,2.061H15.26758V10.02053a1.30016,1.30016,0,0,0-.30629.15586c-.024.02127-.04955.03637-.07293.0572a1.53507,1.53507,0,0,0-.65411,1.194l-.00212.33744h-.867v-.244c-.04955.06762-.205.28555-.74759.27l.01064.00426h-.05444a1.62129,1.62129,0,0,1-1.55222-1.547,1.577,1.577,0,0,0-.63856,1.17847V11.759H9.176l.00637-2.928-.989,1.94676L7.21215,8.91929V11.759H6V6.19381H7.10059L8.196,8.33783,9.255,6.19381h1.12913v4.00776a1.79517,1.79517,0,0,0,.392-.16076.45274.45274,0,0,1,.07293-.05189c.044-.04146.09335-.08293.135-.1246a4.409,4.409,0,0,1,.04678-.55549,2.00074,2.00074,0,0,1,.17905-.50358c.01063-.02126.01913-.031.02849-.05188a1.94055,1.94055,0,0,1,1.72093-1.00715h1.2745v2.45553a1.72951,1.72951,0,0,0,.38937-.16607c.02127-.01488.04679-.03636.07251-.05188a1.5224,1.5224,0,0,0,.57365-1.05906V7.74626h1.10318v.17649a1.19651,1.19651,0,0,1,.75019-.17649h.02849c.79428,0,1.13692.38416,1.13692,1.23038l.00212,1.2356a1.8972,1.8972,0,0,0,.38416-.1714c.024-.02126.04955-.03636.07017-.05188A1.56209,1.56209,0,0,0,19.339,8.826V7.74623h1.10318v2.47109a2.03352,2.03352,0,0,0,.38938-.17649.29428.29428,0,0,1,.07017-.05189A1.55256,1.55256,0,0,0,21.491,8.83647V8.50422h-.44647V8.00583H21.491V6.194h1.12658V8.00583h1.30828a1.58063,1.58063,0,0,1,.99154-.3738,1.93726,1.93726,0,0,1,1.74172,2.08179,2.32507,2.32507,0,0,1-.01914.27511c.01488-.01064.02657-.02126.04147-.031a1.53835,1.53835,0,0,0,.571-1.13692V6.19407h1.14214V7.69962a1.01174,1.01174,0,0,1,.18181-.01064,1.95343,1.95343,0,0,1,1.90785,1.58335,2.66385,2.66385,0,0,1,.031.57106,1.61222,1.61222,0,0,0,.257-.35821,1.73915,1.73915,0,0,1,.02658-.17649,1.89317,1.89317,0,0,1,.17649-.50356c.00857-.02126.017-.031.02657-.05188a1.94658,1.94658,0,0,1,1.72093-1.00714H34v4.01821ZM31.87592,9.75141c0,.86179.29071,1.18881.584,1.18881.148,0,.43349-.12972.43868-.63336l.00422-1.77027H32.7187c-.45424,0-.84359.52433-.84359,1.21482ZM28.569,8.50025a.41187.41187,0,0,0-.17372.03636l.00211,1.99865c-.01488.29073.13248.40492.28035.40492.37118,0,.71641-.49317.71641-1.18882,0-.69047-.36858-1.25116-.82544-1.25116Zm-3.64956-.031c-.35044,0-.63595.56066-.63595,1.24594,0,.69045.28551,1.25116.63595,1.25116.34784,0,.63335-.56068.63335-1.25116C25.55277,9.02983,25.26726,8.4692,24.91942,8.4692ZM12.11219,9.75148c0,.86178.29074,1.18881.58145,1.18881.148,0,.43608-.12971.44125-.63336l.00426-1.77027h-.18691c-.45422,0-.841.52431-.841,1.21482Z" fill="#369141" id="path14" /><text fill="#fff" font-family="AudiTypeDisplayHigh-Bold, Audi Type Display High" font-size="14px" font-weight="700" isolation="isolate" transform="translate(5.38319 29.85481)">{value}</text></svg>