<svg xmlns="http://www.w3.org/2000/svg" viewBox="0 0 96 35">
<g id="ri_rectangle_blue_white_5dig">
<g id="Schild">
<path d="M3.61621,34.25039A2.86741,2.86741,0,0,1,.75,31.38515V3.641A2.891,2.891,0,0,1,3.64258.7499h88.754A2.85157,2.85157,0,0,1,95.25,3.60146V31.40761a2.843,2.843,0,0,1-2.844,2.84278Z" fill="#1f4aff" fill-rule="evenodd" />
<path d="M92.39648,1.5A2.10206,2.10206,0,0,1,94.5,3.60158V31.40772A2.09346,2.09346,0,0,1,92.40576,33.5H3.61621A2.11613,2.11613,0,0,1,1.5,31.385V3.6408A2.14015,2.14015,0,0,1,3.64258,1.5h88.7539m0-1.5H3.64258A3.64039,3.64039,0,0,0,0,3.6408V31.385A3.61642,3.61642,0,0,0,3.61621,35H92.40576A3.59329,3.59329,0,0,0,96,31.40772V3.60158A3.60176,3.60176,0,0,0,92.39648,0Z" fill="#fff" />
</g>
<text fill="#fff" font-family="AudiTypeDisplayHigh-Normal, Audi Type Display High" font-size="22" id="Text" text-anchor="middle" transform="translate(48 25.22952)">{value}</text>
</g>
</svg>