<svg xmlns="http://www.w3.org/2000/svg" viewBox="0 0 35 35"><g id="ri_thailand_highway_2dig"><g id="Schild"><path d="M2.2688.75H32.73413a1.51611,1.51611,0,0,1,1.51611,1.51611V32.731a1.519,1.519,0,0,1-1.519,1.519H2.26685a1.5166,1.5166,0,0,1-1.5166-1.5166V2.26855A1.51855,1.51855,0,0,1,2.2688.75Z" fill="#fff" /><path d="M32.73138,1.5A.76826.76826,0,0,1,33.5,2.26616V32.73384a.76826.76826,0,0,1-.76862.76616H2.26868A.76831.76831,0,0,1,1.5,32.73384V2.26616A.76831.76831,0,0,1,2.26868,1.5h30.4627m0-1.5H2.26868A2.26742,2.26742,0,0,0,0,2.26616V32.73384A2.26736,2.26736,0,0,0,2.26868,35h30.4627A2.2673,2.2673,0,0,0,35,32.73384V2.26616A2.26737,2.26737,0,0,0,32.73138,0Z" /><path d="M15.70273,7.56949c-.30471-.0338-.25091-.0507-.25091-.0507l-.141-.0608.0155.1115-.18851-.0951c-.2041-.0505-.2326-.1563-.3405-.2371l-.18791-.091.018-.0847-.0896-.0508v-.0677l-.1076-.0665-.08-.0079.0084-.11191-.0717-.0508c-.0017-.0518.0109-.1063-.0516-.1466l-.0022-.0565.25091-.20321.0359-.1186a.57487.57487,0,0,0,.28671-.20311c.0575-.0154.0677-.1205.0717-.2371a.375.375,0,0,0-.0538-.30471l-.11371-.0906-.0093.2055a.49009.49009,0,0,0-.1458-.2504c-.0097.0289-.025.042,0,.1693l-.0605.1273-.10081.09281-.1254-.0338-.018-.06781v.15241l.0359.0508a.33884.33884,0,0,0-.184.0702l-.22821.1499-.1434.13551-.0371-.17391-.21381-.3171-.0649-.22371-.1032.1267c-.053-.1899-.14011-.40471-.19711-.61421a7.40062,7.40062,0,0,1-.1903-.745l-.002-.48351a3.40838,3.40838,0,0,1,.0916-.37531c.0001-.044.1263-.16381.0896-.20781l-.1279-.006-.26641.1753a1.77455,1.77455,0,0,0-.32261.50792,2.52608,2.52608,0,0,0-.0717.57571,3.707,3.707,0,0,0,.16141.81272l.2867.64342.10751.1524-.32261-.42331-.26881-.59261-.0717-.508-.14331.30481-.0538.508.0358.40631a3.61581,3.61581,0,0,0,.20151.46821l.30031.39541.1972.25391a2.49524,2.49524,0,0,1-.43021-.37251,1.35161,1.35161,0,0,1-.215-.37251.19947.19947,0,0,0-.07761.2073,2.75356,2.75356,0,0,0,.13741.52661,1.36321,1.36321,0,0,0,.2151.32171,2.65955,2.65955,0,0,0,.33441.31591l.43011.28781-.2509-.0846a3.90742,3.90742,0,0,1-.39431-.21891l-.167-.124c-.0489.0139-.0058.1244.0595.2582a1.69226,1.69226,0,0,0,.30471.40641,4.09305,4.09305,0,0,0,.448.33861l.30471.11861.25091.0677c-.10241.0006.0129.0869-.48392-.0677l-.43011-.15241-.1792-.1693c-.0056.0615-.0269.1104.0896.27091l.215.2539.3226.20321.28681.1355.25091.0338.233.0339-.0359.0169h-.34051a2.443,2.443,0,0,1-.57351-.1693c.0884.0974.0713.1617.30471.30481a1.6757,1.6757,0,0,0,.41221.2201,2.17553,2.17553,0,0,0,.46591.1016c.283.0217.43261.03191.57772.04171l.0496.026-.59142.017a3.40164,3.40164,0,0,1-.39431-.0508c-.1189-.01821-.28271-.10021-.35461-.05171l.14181.16231.2329.1863.19491.09251.1972.0508-.1434.1524-.0358.37241a1.21805,1.21805,0,0,0,.0896.40641,1.62862,1.62862,0,0,0,.64512.60962c.2194.1226.41031.2182.59141.3047l.233.11851.0717.1186-.0717.0508.1075.0508-.233.20321.018.0169-.1613.1016-.0179.0677a.71092.71092,0,0,0-.19721.13551h-.0896l-.0358.1016-.1434-.0678-.17921-.22011c-.0872-.1356-.2344-.266-.2867-.33861l-.25091-.202a1.24961,1.24961,0,0,0-.1792-.0859l-.17.0473-.1706.139.1076.0508-.16131.1355-.0179.20311.07161.0339.0402-.0911.1032.0064-.0896.1186V12.7l.1075-.08471.0538.017h.17921l.0896.06771.0896.0169.063.1355.09831.0508c.0808.1051.08.12521.0717.163.0162.0065.0312.0138.0347.0277l.0259.0545.1007.0677.0765.134.13861.061v.11851l.0537.017.0122.0904.0595.1297-.0787.08011.0179.0789c.0382-.0195.0629-.0647.1242-.0405l.118-.10161c.05911-.0297.10251-.1334.14951-.2201-.038-.1005-.0536-.15851-.08-.237-.0366.0133-.024-.1127-.0358-.1693l.0896-.017.0716.017.0538-.1016.17921.0846.2448.0079-.0061-.0665a.26437.26437,0,0,1-.1014-.09831c-.0461-.0293-.0323-.101-.0297-.1648l.1971-.1185.12541-.11851L15.919,12.823l-.0013.1818a.39517.39517,0,0,0,.14341.13541l.0537-.18621.024.30351.0656.1198.1076.06771.05371-.08471.018-.1524.0358-.0846-.0179.0677v.23711l.0634.2189a.63222.63222,0,0,0,.1779.123l.09921-.0371-.03591-.1355.018-.18631.03911.00791.0068.2374.0407.1218.0544.12191.1086.0642.0883.0449h.22411l.0475-.0449v-.0578l-.1222-.0769-.0272-.16041.0204-.1091.0475-.1283h.034v.2117l.0339.19891.0612.1027.0543.1219.10861.0449.0815-.0513.0204-.1091h.0408l.0747.0962.163.0321.1493-.0642.1427-.1668.0339-.08341.0272-.0834.02711.0962.1698-.0192a.459.459,0,0,0,.1834-.2181l.0067-.13481-.0203-.1091-.0747-.1603.0475.0256.06791.1347.0204.16041.0136.0321.129-.12831.0679-.1412.0136-.1603-.0611-.14761-.0408-.0706.1087.0706.0339.14111.0272.0963.10191-.0963a.2453.2453,0,0,0,.0339-.20531.392.392,0,0,0-.10471-.232.60155.60155,0,0,0-.2144-.1658l-.1087-.032.0136-.0963.129.0898.23771.1797.2513.19891.0814.0577-.0271.0963-.0815.0577-.0136.077.1562.0064.14261-.0513.1019-.03851.1358.08981.07471.0834-.0272.1155-.06111.1027-.0068.08981-.0543.0898.0271.1604.0612.08341.129.1027.1494.0064.0475-.0642-.1154-.11551.0815-.0962.0339-.0898.10871-.14761.1154-.1155.0136-.0769.0679-.0257.16981-.19251.0136-.077.0407-.0064.0951-.077.0136-.0834.1222-.0321.0611-.0641.19021-.0129.0611-.03851.1018.12191.0476-.0513v-.14761l-.0544-.0641.0068-.0706.08151.0577v.0321l.0679-.077-.0543-.1475-.10191-.11551-.0271-.0385.0815-.0193-.0408-.109-.1426-.0578-.1426-.0128-.16291.0385-.2174.154-.0203.0449-.08831.0513-.0611.09631-.0747.0385-.0748.1411-.0407.0449-.0883.0321-.04751.0641-.0747.0193-.0136.04491-.0815-.0064-.0407-.077H19.86l-.0067-.0898-.14951-.0257-.0475-.1091-.095-.0064-.0408-.0577-.0068-.0513-.09511-.02571-.095-.0513-.0408-.0578.0475-.0449-.0339-.0513.0747-.1219.40751-.16681.0679-.0193.43462-.2374.1654-.08721.1235-.0937a.75677.75677,0,0,0,.10451-.1213l.0887-.14051.1358-.2438.0408-.308-.0068-.21171-.0407-.1411-.1087-.1605.1833-.032.231-.09631.129-.1155.0407-.0256.14261-.17321.0428-.0324c-.0244-.0802-.1257-.0149-.21061.0192l-.2532.06451-.25131.0257h-.24451v-.0321l.29211-.0321.40741-.10911.326-.1411.24451-.17971.061-.0449.0272-.0577.1019-.1155a.18914.18914,0,0,0-.1698.0256l-.21731.0835-.2512.0385-.30561.0449-.12231-.0065.11551-.0384.2173-.0257.19011-.0513.28521-.1027.2038-.12831.19011-.1604.163-.1668.0575-.13961c-.1007-.0107-.2013.0759-.302.11391l-.36671.1155-.2425.0393-.22611.0249.57732-.20531.36671-.2374.258-.26311.18341-.2631.1086-.28041c-.0435-.0095-.1596.0954-.23761.1989a.769.769,0,0,1-.2106.11361l-.29881.1348-.0475.0064.35991-.25031a3.23185,3.23185,0,0,0,.27841-.2758l.163-.23741a1.31756,1.31756,0,0,0,.1426-.30161l.0408-.28871-.0144-.2214c-.0361-.0368-.11.1408-.169.23421l-.23091.231-.2376.21821.0271-.08351.2309-.2374.163-.24371.1494-.308.09511-.2631.0203-.58382-.03391-.2759a2.14242,2.14242,0,0,0-.0895-.23511l-.0882-.0456-.0057.146-.0543.26941-.129.29521-.06111.1476-.0136-.154.129-.308.0475-.33361.0136-.42351-.1222-.43631-.163-.27591-.2105-.186-.23771-.11551-.0815-.0385h-.0475l.0136.0962.0882.10911.068.1925.0339.27591.0068.52611-.0715.394-.0576.254-.13571.37851-.0544.1733-.0815-.0706-.0204-.077-.0611.0256-.0271.1669-.0815.231-.07471.1218-.0951.16691-.0068.0513-.0747-.0128-.20371-.21181a.70471.70471,0,0,0-.1766-.0962l-.0959-.0332.054-.0914-.0667-.023-.0815.0449-.10191-.0705-.0203-.12841-.0951-.0898.0407-.0642-.0136-.0384-.095.0192-.0136.0962-.0068.0899L20.288,5.572v-.1732l-.06111.0514-.0136.109-.0408-.0257-.0543-.0385-.0204.154.0272.2246.1086.17961.292.2182.20381.21811.0679.1091-.0679.0128-.0068.0899-.0068.0641-.08831.0257v.05131l.07471.0192.0068.045-.11551-.0065-.069.0605-.0939.1256h-.0543l.0067.0642.0408.0128-.1834.09631-.16971.0833-.1019.1027-.0883.0834-.07471-.0064-.0951.0256.0068-.0962-.0882.0257-.0544.077-.20371.0128-.2309.13471-.10861.0449-.0679-.0385-.1019.0385-.1426.0129.1018-.1348V7.50969l.0883-.0192.0611-.0898.034-.0898.0407-.0578-.1018-.0128-.0747.0898h-.129l-.12911.0321-.0747.077-.0271.1026.0068.04491-.068-.01281-.0679-.0834.034-.1091.0339-.0962-.0067-.0449.0882-.0128-.0271-.05781-.0136-.0449.0407-.0449v-.077h.0612l.0339-.0834.0475-.0578.01361-.07051.034-.1091.0272-.0321-.09521-.0706-.0882.0065.0543-.0449.0408-.045v-.0513h-.0883l.0136-.06421.0068-.1732.0339-.0064-.0068-.077h-.1494l-.0543.0513.0136-.1411L18.4,5.97625l-.0271-.0898-.10191.0706-.0543.08341-.034-.04491-.0068-.0834-.0543-.154V5.61054l-.1019.06421-.0407.0642-.08151.0064-.0068-.0321.07471-.11551.0136-.1155h-.07471l.00681-.0642-.06121-.0962V5.23843l-.1018.03851.0136-.06421.0068-.1475-.034-.1347.0204-.08351-.0611-.0449-.0476-.0962-.0679-.41061.0204-.0578.0068-.0706-.0476-.0513h-.15611l-.034.0257-.0068.1219.0408.0256-.0476.37861-.0407.1347-.0612.16041-.0271.1412.0611.186-.0068.045-.0747-.0706h-.095l.02031.1219-.06111.0064-.0271.231.10181.14111h-.08831l-.0883-.077-.0679-.06411-.0611.08341.0136.1668-.0272-.0129v.17331l-.0679-.02571-.07471-.077-.0815.0321v.14111l-.0339-.0128.0068.077-.0815-.0449-.0475-.0385-.034.0642.0204.0192V6.387l-.0068.05771-.08151.0128.02041.0642.0543.077-.15621-.0128-.034.0513.0815.1475.0136.077.07471.0642.0408.077.0135.1283.0544.11551.0339.0257.034.0834.0271.0834v.0513l-.0543.0128-.0068.0706-.0883-.0192-.0407-.1219-.09511-.1027-.1222-.0128-.0543.0321-.0204.0128-.034-.0578-.0339-.0385h-.0476l-.0136.0385.034.0514.0204.0641.0747.0898.0611.0257.0475.0064.0068.122.0475.0448-.0543.0514-.1561-.0193-.11551-.0385c-.0566.0111-.1132-.0395-.1698-.077Z" /></g><text font-family="AudiTypeDisplayHigh-Bold, Audi Type Display High" font-size="18" font-weight="700" id="Text" transform="translate(4.97095 29.49301)">{value}</text></g></svg>