<svg xmlns="http://www.w3.org/2000/svg" id="Icon" viewBox="0 0 50 40"><defs /><rect fill="#260d0d" height="40" rx="2.23607" width="50" /><rect fill="#ffca08" height="38" rx="2.23607" width="47.5" x="1.25" y="1" /><polygon fill="#260d0d" id="polygon2379" points="7.921 10.208 6.836 10.208 6 6.542 5.164 10.208 4.04 10.208 2.655 3.188 3.883 3.188 4.641 6.926 5.49 3.188 6.496 3.188 7.333 6.926 8.103 3.188 9.345 3.188 7.921 10.208" /><polygon fill="#260d0d" id="polygon2381" points="13.601 7.03 13.601 10.208 12.333 10.208 12.333 7.03 10.152 3.188 11.484 3.188 12.974 5.722 14.437 3.188 15.796 3.188 13.601 7.03" /><path d="M22.04076,6.68744a6.80134,6.80134,0,0,1-.11758,1.37071,3.86836,3.86836,0,0,1-.39195,1.06958,2.22239,2.22239,0,0,1-.8231.91381,2.48321,2.48321,0,0,1-1.24119.29075,2.54793,2.54793,0,0,1-1.29344-.29075,2.29,2.29,0,0,1-.8231-.91381,4.06143,4.06143,0,0,1-.392-1.08,6.80138,6.80138,0,0,1-.11758-1.37072,6.9468,6.9468,0,0,1,.11758-1.37072,3.75015,3.75015,0,0,1,.392-1.06957,2.23535,2.23535,0,0,1,.83617-.90343A2.57429,2.57429,0,0,1,19.46694,3.053a2.50283,2.50283,0,0,1,1.25425.28037,2.19059,2.19059,0,0,1,.8231.9242,5.54514,5.54514,0,0,1,.23517.51921,3.906,3.906,0,0,1,.15678.55036c.0392.18692.06533.3946.09146.62306C22.0277,6.17861,22.04076,6.41745,22.04076,6.68744Zm-1.215,0c0-.19731-.01306-.37384-.02613-.54a4.37455,4.37455,0,0,0-.05226-.44653,3.6322,3.6322,0,0,0-.09145-.3946l-.11759-.37383a1.65427,1.65427,0,0,0-.43115-.68536,1.0286,1.0286,0,0,0-.65325-.20768,1.12359,1.12359,0,0,0-1.1236.87227,3.65775,3.65775,0,0,0-.2221.79959,6.94142,6.94142,0,0,0-.06533.9865c0,.18692,0,.36345.01307.51921a4.16216,4.16216,0,0,0,.05226.43614c.02613.135.05226.27.09145.405l.11759.405a1.13365,1.13365,0,0,0,1.1236.87227,1.02862,1.02862,0,0,0,.65325-.20768,1.56669,1.56669,0,0,0,.43115-.66459c.05226-.14538.09145-.27.13065-.405a3.31849,3.31849,0,0,0,.09145-.405,2.4081,2.4081,0,0,0,.0392-.44652A2.05812,2.05812,0,0,0,20.82571,6.68744Z" fill="#260d0d" id="path2383" /><polygon fill="#260d0d" id="polygon2385" points="28.338 10.208 28.338 6.272 26.718 10.208 25.072 6.272 25.072 10.208 23.805 10.208 23.805 3.188 25.072 3.188 26.718 7.124 28.338 3.188 29.632 3.188 29.632 10.208 28.338 10.208" /><rect fill="#260d0d" height="7.01973" id="rect2387" width="1.24118" x="31.55213" y="3.18795" /><polygon fill="#260d0d" id="polygon2389" points="38.738 10.208 36.007 5.504 36.007 10.208 34.74 10.208 34.74 3.188 36.007 3.188 38.437 7.404 38.437 3.188 39.705 3.188 39.705 10.208 38.738 10.208" /><path d="M46.34178,8.8785a1.70914,1.70914,0,0,1-.196.47768,1.782,1.782,0,0,1-.77085.72689,2.51235,2.51235,0,0,1-1.17585.25961,2.92013,2.92013,0,0,1-1.35877-.30114,2.15461,2.15461,0,0,1-.90149-.90343,4.044,4.044,0,0,1-.33969-1.06957A8.09871,8.09871,0,0,1,41.56,5.39979a3.843,3.843,0,0,1,.32662-1.06957,1.75506,1.75506,0,0,1,.3397-.50883,2.18279,2.18279,0,0,1,.50953-.405,2.5621,2.5621,0,0,1,.64019-.27,2.86934,2.86934,0,0,1,.73165-.09346,2.75619,2.75619,0,0,1,.88842.135,2.31365,2.31365,0,0,1,.70551.36345,1.84474,1.84474,0,0,1,.48341.56075,1.67923,1.67923,0,0,1,.209.71651H45.12673a.7277.7277,0,0,0-.31356-.57113,1.16477,1.16477,0,0,0-.74471-.21807,1.14174,1.14174,0,0,0-1.006.51921,2.19306,2.19306,0,0,0-.28743.79959,6.55728,6.55728,0,0,0-.10452,1.17341c0,.29076.01306.5919.03919.893a5.81743,5.81743,0,0,0,.14372.86189,1.49739,1.49739,0,0,0,.47034.7892,1.24024,1.24024,0,0,0,.83616.27c.64019,0,.96682-.36344.96682-1.09034v-.4569h-1.006v-.9865H46.394v1.4434A2.81536,2.81536,0,0,1,46.34178,8.8785Z" fill="#260d0d" id="path2391" /><path d="M24.33629,30.11423a.70617.70617,0,0,1,.54351-.24923l.25085-.30114s.36582.11423.36582.31153c0,0-.08361.15576.5226-.07269l.10453.0623-.28221.30115s-.68984.05192-.93023.35306a.58423.58423,0,0,0-.2613.3946l.40763.35306.24039-.405.209.25961.09407.02076s.18814-.42575.45989-.38421c0,0,.45989.20768.45989.4569,0,0-.35537.09346-.36582.24922l-.22994.08308-.09407.02077-.05226-.03116v.12461l.07316.03116s.19859-.05192.54351,1.36033l.22994-.14538.18814.04154s.15678-.05193.15678-.17653c0,0,.10452-.03116.09407.0623a.2828.2828,0,0,1-.17769.24922c-.14632.08307-.13587-.10384-.209-.07269-.08361.03116-.13587.06231-.13587.10384s.25085.09346.31356.21807-.03136.10384-.04181.08307-.15678-.03115-.16723-.01038-.25085.11423-.18814.20769a.32345.32345,0,0,0,.29266.17653c.115-.02077.13587-.09346.209-.07269s.08361.135.08361.135l.09407.02077.01046-.0623a.23257.23257,0,0,1,.115.31152c-.08362.22845.35537-.03115.33446-.0623s.05226.135,0,.18691.30311.15577.324.20769.04181.11422-.02091.10384c-.07316-.01038-.24039-.10384-.25085-.0623s.01046.08307.19859.17653l.209-.10385a.0549.0549,0,0,1,.05227.06231c0,.07269-.26131.12461-.12543.23883a.30331.30331,0,0,0,.28221.06231s.01045.09346.01045.18692.12542.09346.12542.09346l-.15678.16614.14633-.04154a.94714.94714,0,0,1,.06271.55037l.19859.07269-.01045.36345-.17769-.03116-.01045.18692.25085.22845-.07316.08307-.2613-.03115s-.08362-.01038-.115.20769a5.6516,5.6516,0,0,0-1.087.72689c-.09407.16615-.40763.01039-.40763.01039v-.15577l.09407-.10384-.08362-.0623-.115.01038-.0209.07269-.04181-.01038a.44146.44146,0,0,1,.2613-.42576.46281.46281,0,0,0-.10452-.34268,2.87531,2.87531,0,0,1-.15678-.95534s-.15678-.12462-.209-.04154a.45458.45458,0,0,0-.13588.3946c0,.30114.08362,1.568.08362,1.568s.21949.47767.30311.4569-.01046.1973-.06272.25961-.14633.11422-.44943-.11423c-.30311-.21807-.19859-1.13188-.19859-1.13188a3.58322,3.58322,0,0,1-.45989-1.48494l-.324-.15576-.10452.0623a.60783.60783,0,0,1-.439-.34268l-.18814.01039.03135-.44653s-.08361-.05192-.12542,0a5.73133,5.73133,0,0,0-.42853.64383c0,.05192.0209.12461.19859.12461.17768-.01039.324.27.33446.31152s.03136.1973.03136.1973l-.115.04154a.76224.76224,0,0,1-.47034-.24922s-.2822.07269-.12542.12461c.15678.0623.2613.27.439.31152.17769.03116.15678.22846.17769.28038s.39718.31153.33446.64382l-.554-.20768-.02091-.20769-.10452-.04154-.0209-.15576a3.23594,3.23594,0,0,0-.972-.68536l.16723-.2596a1.90127,1.90127,0,0,1-.7421-.32191c-.17768-.1973.33447-.46729.33447-.46729l.09407-.54-.2195-.3946s.02091-.85151.53306-.95535c0,0-.29266-.61267-.4808-.02077s-.115,1.24611-.67938,1.11111c0,0,.209-.37383.16723-.54l-.17768.01038a.961.961,0,0,1,.115-.16615c.03136-.03115,0-.17653,0-.17653l-.19859.01038s.17769-.11422.17769-.20768a.446.446,0,0,1,.08361-.20768L22.0891,32.648s.12543-.893.49125-.91381.70029.54.62712.74767c-.06271.20768.19859.32191.25085.34268a4.20239,4.20239,0,0,1,1.07656.24922l.08362-.27s.14633-.03115.19859.08307.08361-.15576.08361-.15576l-.115-.06231-.01045-1.00727s-.554-.42575-.57486-.63343.324-.57114.34492-.5919a.35721.35721,0,0,0,.03135-.12462l-.30311-.15576Z" fill="#260d0d" id="path2393" /><polygon fill="#ffca08" id="polygon2395" points="25.8 32.741 25.632 33.063 25.894 33.344 26.019 33.333 26.092 33.261 25.988 32.939 25.894 32.741 25.8 32.741" /><polygon fill="#ffca08" id="polygon2397" points="23.239 35.119 23.103 35.286 23.27 35.306 23.291 35.182 23.239 35.119" /><text font-family="AudiTypeDisplayHigh-Bold, Audi Type Display High" font-size="21px" font-weight="700" transform="translate(3.07486 27.86764)">{value}</text></svg>