<svg xmlns="http://www.w3.org/2000/svg" viewBox="0 0 64 35">
<g id="ri_hexagon_blue_white_blue_3dig">
<g id="Schild">
<path d="M0,3.65662A3.53992,3.53992,0,0,1,1.082,1.10369,3.56836,3.56836,0,0,1,3.65811,0H60.30668A3.69137,3.69137,0,0,1,64,3.691V31.28118A3.683,3.683,0,0,1,60.27867,35H3.66882a3.61866,3.61866,0,0,1-2.59391-1.09609A3.68285,3.68285,0,0,1,0,31.29508Z" fill="#1f4aff" fill-rule="evenodd" />
<path d="M3.67429,34.002a2.61385,2.61385,0,0,1-1.87842-.7959,2.67708,2.67708,0,0,1-.78955-1.90917V3.65527a2.55266,2.55266,0,0,1,.7959-1.853A2.56633,2.56633,0,0,1,3.66355.99805H60.30124a2.69149,2.69149,0,0,1,2.69238,2.6914V31.28223a2.68322,2.68322,0,0,1-2.7207,2.71972Z" fill="#fff" fill-rule="evenodd" />
<path d="M2.02535,6.162a.73576.73576,0,0,1,.2322-.4842.65479.65479,0,0,1,.4709-.2012l29.3048-2.9811,29.3898,2.9811a.65115.65115,0,0,1,.4694.2004.744.744,0,0,1,.1572.5194V28.9241a.5941.5941,0,0,1-.6066.6624l-29.3993,2.9186L2.78095,29.5865a.70477.70477,0,0,1-.5078-.2162.793.793,0,0,1-.2478-.5223Z" fill="#1f4aff" fill-rule="evenodd" />
</g>
<text fill="#fff" font-family="AudiTypeDisplayHigh-Normal, Audi Type Display High" font-size="22" id="Text" text-anchor="middle" transform="translate(32 25.22772)">{value}</text>
</g>
</svg>