<svg xmlns="http://www.w3.org/2000/svg" data-name="Layer 1" id="Layer_1" viewBox="0 0 46 46"><defs /><path d="M6.19106,0a28.7468,28.7468,0,0,0,8.40451,1.24789A28.74788,28.74788,0,0,0,23,0a28.74788,28.74788,0,0,0,8.40443,1.24785A28.747,28.747,0,0,0,39.80894,0,28.75682,28.75682,0,0,1,23,46,28.75682,28.75682,0,0,1,6.19106,0Z" fill="#fff" id="Hintergrund_Weiss" transform="translate(0)" /><path d="M.95833,17.71832A28.055,28.055,0,0,1,1.886,10.54169H44.11405A27.9934,27.9934,0,0,1,23,45.04174,27.91935,27.91935,0,0,1,.95833,17.71832Z" fill="#003f87" id="Hintergrund_Blau" transform="translate(0)" /><path d="M2.10833,9.58336A28.45879,28.45879,0,0,1,6.39113,1.085a29.95411,29.95411,0,0,0,8.08481,1.10531A29.93487,29.93487,0,0,0,23,.95835a29.93487,29.93487,0,0,0,8.52406,1.23191A29.95462,29.95462,0,0,0,39.60891,1.085a28.46033,28.46033,0,0,1,4.28276,8.49841Z" fill="#af1e2d" id="Hintergrund_Rot" transform="translate(0)" /><path d="M8.32217,8.625V3.83339h.67127V8.625Zm3.89356,0L10.73742,5.41394V8.625h-.68565V3.83339h.68565l1.314,2.875v-2.875h.68565V8.625ZM14.96857,4.47V8.625H14.276V4.47h-.87134V3.83339h2.4353V4.47Zm1.52735,4.155V3.83339h2.24961v.67242h-1.564V5.71425h.99273v.658h-.99273V7.95282h1.74965V8.625Zm5.2143,0-.63575-2.25276h-.65688V8.625h-.68565V3.83339h1.42841a1.36183,1.36183,0,0,1,.51064.093,1.20282,1.20282,0,0,1,.39992.25754A1.08951,1.08951,0,0,1,22.328,4.588a1.49485,1.49485,0,0,1,.08924.52565,1.45038,1.45038,0,0,1-.17141.7295.95736.95736,0,0,1-.51424.429L22.41722,8.625Zm.03574-3.5114a.58572.58572,0,0,0-.17141-.44337.62285.62285,0,0,0-.44995-.16445h-.707V5.71425h.707a.64037.64037,0,0,0,.46063-.15375.58978.58978,0,0,0,.16073-.44687Zm3.90838,2.20256a1.43491,1.43491,0,0,1-.10353.54715,1.34922,1.34922,0,0,1-.28561.43977,1.4204,1.4204,0,0,1-.42139.29682,1.21675,1.21675,0,0,1-.51784.11087,1.27283,1.27283,0,0,1-.56414-.12157,1.24672,1.24672,0,0,1-.42129-.3289,1.50994,1.50994,0,0,1-.26425-.47916,1.73567,1.73567,0,0,1-.09285-.56494h.67127a1.14238,1.14238,0,0,0,.03923.29671.83869.83869,0,0,0,.12139.26463.63087.63087,0,0,0,.20716.18955.60224.60224,0,0,0,.30348.07147.61994.61994,0,0,0,.26077-.05718.64.64,0,0,0,.21424-.15735.79344.79344,0,0,0,.14276-.23244.72786.72786,0,0,0,.0535-.27543.77131.77131,0,0,0-.08565-.36818,1.06481,1.06481,0,0,0-.29989-.32541q-.03574-.03579-.02855-.03939t-.04283-.03929q-.05-.03568-.21075-.13946t-.52492-.35389A1.3637,1.3637,0,0,1,23.3655,5.582a1.2107,1.2107,0,0,1-.14646-.58992,1.25434,1.25434,0,0,1,.09284-.48277,1.23589,1.23589,0,0,1,.26066-.39688,1.223,1.223,0,0,1,.38925-.26823,1.18368,1.18368,0,0,1,.47839-.09657,1.19764,1.19764,0,0,1,.475.093,1.15809,1.15809,0,0,1,.37846.25754,1.25312,1.25312,0,0,1,.25707.39339,1.37113,1.37113,0,0,1,.10363.50055h-.6571a.57585.57585,0,0,0-.1713-.40049.53729.53729,0,0,0-.38576-.15015.55645.55645,0,0,0-.39982.15736.5222.5222,0,0,0-.16422.39328.48026.48026,0,0,0,.09284.30031,1.21675,1.21675,0,0,0,.357.27172,3.4091,3.4091,0,0,1,1.01061.81526,1.501,1.501,0,0,1,.31776.93683ZM27.64765,4.47V8.625H26.955V4.47h-.87133V3.83339H28.519V4.47Zm3.527,4.155L30.839,7.31619H29.81052L29.49646,8.625h-.69284l1.19259-4.79164h.67148L31.86028,8.625Zm-.857-3.36124L29.982,6.644h.68565ZM33.71519,4.47V8.625h-.69262V4.47h-.87134V3.83339h2.4353V4.47Zm1.52735,4.155V3.83339h2.24962v.67242h-1.564V5.71425h.99273v.658h-.99273V7.95282h1.74965V8.625Z" fill="#fff" id="Interstate" transform="translate(0)" /><text fill="#fff" font-family="AudiTypeDisplayHigh-Bold, Audi Type Display High" font-size="19px" font-weight="700" id="Nummer" transform="translate(3.16235 31.90969)">{value}</text></svg>