<svg xmlns="http://www.w3.org/2000/svg" id="Icon" viewBox="0 0 40 40"><defs /><rect height="40" id="Hintergrund_Schwarz" rx="2" width="40" /><path d="M3,1.00014H37a2,2,0,0,1,2,2V36.9997a2,2,0,0,1-2,2H3a2,2,0,0,1-2-2V3.00011a2,2,0,0,1,2-2Z" fill="#fff" /><path d="M5.55594,9.73352V7.0152L4.39344,9.73352,3.23094,7.0152V9.73352h-.795v-4.694h.795l1.1625,2.63425,1.1625-2.63425h.795v4.694h-.795m4.9548,0-.495-1.31713H8.44824l-.495,1.31713h-.8475l1.7325-4.694h.7875l1.7325,4.694h-.8475m-1.2675-3.3909-.5175,1.31713h1.005l-.4875-1.31713m5.43281,3.3909-.81-2.04575h-.9525V9.73352h-.795v-4.694h1.6575a3.10439,3.10439,0,0,1,.5025.035,1.42816,1.42816,0,0,1,.3975.11209,1.15053,1.15053,0,0,1,.3.20318,1.11413,1.11413,0,0,1,.24.28024,1.16755,1.16755,0,0,1,.1575.33628,1.07542,1.07542,0,0,1,.06.3503,1.18,1.18,0,0,1-.06.37132,1.29557,1.29557,0,0,1-.1575.33629,1.214,1.214,0,0,1-.2475.28024,1.09318,1.09318,0,0,1-.315.19616l.885,2.19288h-.8625m-.0375-3.37689a.52376.52376,0,0,0-.0825-.28024.57632.57632,0,0,0-.2325-.21018.64824.64824,0,0,0-.18-.063,1.26752,1.26752,0,0,0-.2775-.021h-.9525v1.149h.9525a1.81088,1.81088,0,0,0,.27-.014.63731.63731,0,0,0,.1875-.06305.57625.57625,0,0,0,.2325-.21018.55955.55955,0,0,0,.0825-.28725m3.9477,1.33114V9.73352h-.795V7.68777l-1.7625-2.64826h.9525l1.2,1.81455,1.215-1.81455h.9375l-1.7475,2.64826m2.61434,2.04575v-4.694h.795V9.03992h2.325v.6936h-3.12m6.82968,0-.495-1.31713h-1.5675l-.495,1.31713h-.8475l1.7325-4.694h.7875l1.7325,4.694h-.8475m-1.2675-3.3909-.5175,1.31713h1.005l-.4875-1.31713m5.59032,3.3909-1.92-3.18072V9.73352h-.795v-4.694h.795l1.83,2.99856V5.03951h.795v4.694h-.705m5.31925-2.354a3.12739,3.12739,0,0,1-.2325,1.24706,1.94,1.94,0,0,1-.6525.84072.93744.93744,0,0,1-.3375.18916,1.542,1.542,0,0,1-.3825.07707h-1.815v-4.694h1.62a3.18266,3.18266,0,0,1,.3225.014,1.33054,1.33054,0,0,1,.255.035.85218.85218,0,0,1,.2025.07707q.09.049.195.1191a2.02933,2.02933,0,0,1,.6075.86173,3.2427,3.2427,0,0,1,.2175,1.23306m-.81,0a2.92489,2.92489,0,0,0-.1125-.84773,1.22238,1.22238,0,0,0-.2925-.55347.891.891,0,0,0-.225-.14012.70115.70115,0,0,0-.285-.056h-.9V8.97687h.795a1.046,1.046,0,0,0,.3225-.042.61584.61584,0,0,0,.24-.14011,1.2858,1.2858,0,0,0,.3375-.5745,2.72889,2.72889,0,0,0,.12-.84071" id="Maryland" transform="translate(0 0)" /><text font-family="AudiTypeDisplayHigh-Bold, Audi Type Display High" font-size="23.35355px" font-weight="700" id="Nummer" transform="translate(2.59912 34.39491) scale(1.0705 0.99999)">{value}</text><rect height="1.95122" width="38.58333" x="0.70833" y="12.14413" /></svg>