<svg xmlns="http://www.w3.org/2000/svg" id="svg3155" viewBox="0 0 46 37"><defs /><rect height="37" rx="2" width="46" /><rect fill="#fff" height="35" rx="2" width="44" x="1" y="1" /><g id="g4152"><polyline fill="none" id="polyline37" points="5.988 28.631 5.924 28.589 5.754 28.694 5.583 28.841 5.583 29.368 5.455 29.431 5.157 29.452 4.945 29.516 4.966 29.6 5.157 29.747 5.222 29.853 4.966 29.832 4.71 29.853 4.646 30.042 4.838 30.232 5.03 30.442 4.945 30.611 4.582 30.906 4.455 31.032 4.455 31.18 4.668 31.474 4.71 31.58 4.668 31.643 4.391 31.622 4.199 31.664 4.327 31.854 4.433 32.043 4.199 32.191 3.624 32.359 3.369 32.444 3.22 32.57 3.22 32.844 3.411 32.949 3.603 33.012 3.56 33.075 3.284 33.139 3.113 33.202 3.347 33.497 3.262 33.518 3.028 33.433 2.836 33.455 2.751 33.771 2.815 33.897 2.815 34.171 2.496 34.276 2.197 34.55 2.048 34.845 2.197 34.971 2.411 35.119 2.474 35.329 2.474 35.54 2.325 35.687 2.006 35.814 2.112 35.772 2.325 35.687 2.474 35.54 2.474 35.329 2.411 35.119 2.197 34.971 2.048 34.845 2.197 34.55 2.496 34.276 2.815 34.171 2.815 33.897 2.751 33.771 2.836 33.455 2.943 33.412 3.177 33.476 3.347 33.497 3.113 33.202 3.198 33.16 3.475 33.096 3.582 33.054 3.603 33.012 3.411 32.949 3.22 32.844 3.22 32.57 3.454 32.401 4.008 32.254 4.263 32.17 4.433 32.043 4.327 31.854 4.199 31.664 4.306 31.622 4.582 31.643 4.689 31.643 4.71 31.58 4.668 31.474 4.455 31.18 4.497 30.99 4.817 30.716 4.987 30.569 5.03 30.442 4.838 30.232 4.646 30.042 4.71 29.853 4.966 29.832 5.222 29.853 5.2 29.79 5.03 29.642 4.945 29.516 5.072 29.473 5.371 29.452 5.583 29.368 5.583 28.841 5.818 28.631 5.924 28.589 5.988 28.631 12.675 28.631 12.675 28.125 44.191 28.125 44.169 28.694 44.105 29.242 43.956 29.368 43.318 29.368 43.169 29.41 42.955 29.705 42.764 30.316 42.636 30.611 42.466 30.8 42.082 30.843 41.721 30.864 41.593 31.053 41.486 31.432 41.337 31.727 40.975 31.791 40.613 31.875 40.485 32.233 40.379 32.612 40.145 32.675 39.91 32.76 39.847 32.991 39.91 33.391 39.91 33.581 39.847 33.749 39.548 33.981 39.229 34.213 38.761 34.74 38.356 35.203 38.122 35.561 38.015 35.793 37.994 36.045" stroke="#000" stroke-linecap="round" stroke-linejoin="round" /><g id="g41"><path d="M12.50324,29.90129l.052.931h-.13784a.94974.94974,0,0,0-.109-.35026.67011.67011,0,0,0-.2995-.2495,1.26418,1.26418,0,0,0-.492-.0802h-.6934v3.02433a.68439.68439,0,0,0,.09763.4568.62088.62088,0,0,0,.42342.123h.17016v.10764H9.41883v-.10764h.1765a.56878.56878,0,0,0,.44862-.15215.73151.73151,0,0,0,.08092-.42761V30.15236H9.53344a2.03358,2.03358,0,0,0-.49.04083.66375.66375,0,0,0-.323.213.74908.74908,0,0,0-.15966.42615h-.138l.052-.931Z" fill-rule="evenodd" id="path43" /><path d="M12.50324,29.90129l.052.931h-.13784a.94974.94974,0,0,0-.109-.35026.67011.67011,0,0,0-.2995-.2495,1.26418,1.26418,0,0,0-.492-.0802h-.6934v3.02433a.68439.68439,0,0,0,.09763.4568.62088.62088,0,0,0,.42342.123h.17016v.10764H9.41883v-.10764h.1765a.56878.56878,0,0,0,.44862-.15215.73151.73151,0,0,0,.08092-.42761V30.15236H9.53344a2.03358,2.03358,0,0,0-.49.04083.66375.66375,0,0,0-.323.213.74908.74908,0,0,0-.15966.42615h-.138l.052-.931Z" fill="none" id="path45" /></g><g id="g47"><path d="M13.06673,32.52609a.95945.95945,0,0,0,.28828.74622.97307.97307,0,0,0,.68436.27051.87715.87715,0,0,0,.45573-.11488.86406.86406,0,0,0,.32479-.39826l.08946.0468a1.04645,1.04645,0,0,1-.35487.587,1.06244,1.06244,0,0,1-.73584.2629,1.20214,1.20214,0,0,1-.8216-.30043,1.02178,1.02178,0,0,1-.34177-.808,1.08037,1.08037,0,0,1,.35044-.85716,1.28564,1.28564,0,0,1,.8798-.3075,1.11844,1.11844,0,0,1,.73588.23748.78132.78132,0,0,1,.288.63528Zm0-.13425h1.23435a.75645.75645,0,0,0-.06112-.29.509.509,0,0,0-.21689-.20583.64528.64528,0,0,0-.30133-.07488.67818.67818,0,0,0-.43227.15086A.60125.60125,0,0,0,13.06673,32.39184Z" fill-rule="evenodd" id="path49" /><path d="M13.06673,32.52609a.95945.95945,0,0,0,.28828.74622.97307.97307,0,0,0,.68436.27051.87715.87715,0,0,0,.45573-.11488.86406.86406,0,0,0,.32479-.39826l.08946.0468a1.04645,1.04645,0,0,1-.35487.587,1.06244,1.06244,0,0,1-.73584.2629,1.20214,1.20214,0,0,1-.8216-.30043,1.02178,1.02178,0,0,1-.34177-.808,1.08037,1.08037,0,0,1,.35044-.85716,1.28564,1.28564,0,0,1,.8798-.3075,1.11844,1.11844,0,0,1,.73588.23748.78132.78132,0,0,1,.288.63528Zm0-.13425h1.23435a.75645.75645,0,0,0-.06112-.29.509.509,0,0,0-.21689-.20583.64528.64528,0,0,0-.30133-.07488.67818.67818,0,0,0-.43227.15086A.60125.60125,0,0,0,13.06673,32.39184Z" fill="none" id="path51" /></g><g id="g53"><path d="M16.40436,32.10324a1.33538,1.33538,0,0,1,.89175-.44991.75359.75359,0,0,1,.37473.088.60945.60945,0,0,1,.24984.2896,1.10029,1.10029,0,0,1,.0639.43166v.91708a.62817.62817,0,0,0,.04053.27474.21466.21466,0,0,0,.10283.09075.71046.71046,0,0,0,.26217.03258v.08635H17.07224v-.08635h.05513a.53138.53138,0,0,0,.25962-.04533.238.238,0,0,0,.10292-.13389,1.08816,1.08816,0,0,0,.01164-.21885v-.88295a.75462.75462,0,0,0-.09407-.42743.3614.3614,0,0,0-.317-.13306,1.03471,1.03471,0,0,0-.68614.30567v1.13777a.65008.65008,0,0,0,.03213.26776.24305.24305,0,0,0,.11246.09892.86037.86037,0,0,0,.2907.03139v.08635H15.51584v-.08635h.05833a.35746.35746,0,0,0,.27568-.08259.50167.50167,0,0,0,.07148-.31548v-.796a2.78659,2.78659,0,0,0-.02182-.47037.19.19,0,0,0-.06677-.11471.21278.21278,0,0,0-.1205-.03037.671.671,0,0,0-.19453.03514l-.04363-.08625.80485-.26382h.12543Z" fill-rule="evenodd" id="path55" /><path d="M16.40436,32.10324a1.33538,1.33538,0,0,1,.89175-.44991.75359.75359,0,0,1,.37473.088.60945.60945,0,0,1,.24984.2896,1.10029,1.10029,0,0,1,.0639.43166v.91708a.62817.62817,0,0,0,.04053.27474.21466.21466,0,0,0,.10283.09075.71046.71046,0,0,0,.26217.03258v.08635H17.07224v-.08635h.05513a.53138.53138,0,0,0,.25962-.04533.238.238,0,0,0,.10292-.13389,1.08816,1.08816,0,0,0,.01164-.21885v-.88295a.75462.75462,0,0,0-.09407-.42743.3614.3614,0,0,0-.317-.13306,1.03471,1.03471,0,0,0-.68614.30567v1.13777a.65008.65008,0,0,0,.03213.26776.24305.24305,0,0,0,.11246.09892.86037.86037,0,0,0,.2907.03139v.08635H15.51584v-.08635h.05833a.35746.35746,0,0,0,.27568-.08259.50167.50167,0,0,0,.07148-.31548v-.796a2.78659,2.78659,0,0,0-.02182-.47037.19.19,0,0,0-.06677-.11471.21278.21278,0,0,0-.1205-.03037.671.671,0,0,0-.19453.03514l-.04363-.08625.80485-.26382h.12543Z" fill="none" id="path57" /></g><g id="g59"><path d="M19.74372,32.10324a1.33548,1.33548,0,0,1,.89175-.44991.75353.75353,0,0,1,.37472.088.60942.60942,0,0,1,.24985.2896,1.09923,1.09923,0,0,1,.06394.43166v.91708a.62756.62756,0,0,0,.04053.27474.21433.21433,0,0,0,.10279.09075.71046.71046,0,0,0,.26217.03258v.08635H20.4116v-.08635h.05513a.53138.53138,0,0,0,.25962-.04533.23822.23822,0,0,0,.103-.13389,1.09148,1.09148,0,0,0,.01164-.21885v-.88295a.75458.75458,0,0,0-.09411-.42743.36141.36141,0,0,0-.317-.13306,1.03471,1.03471,0,0,0-.68613.30567v1.13777a.65008.65008,0,0,0,.03213.26776.24305.24305,0,0,0,.11246.09892.86053.86053,0,0,0,.2907.03139v.08635H18.8552v-.08635h.05833a.35759.35759,0,0,0,.27573-.08259.50206.50206,0,0,0,.07143-.31548v-.796a2.78659,2.78659,0,0,0-.02182-.47037.19.19,0,0,0-.06677-.11471.21267.21267,0,0,0-.1205-.03037.671.671,0,0,0-.19453.03514l-.04363-.08625.80485-.26382h.12543Z" fill-rule="evenodd" id="path61" /><path d="M19.74372,32.10324a1.33548,1.33548,0,0,1,.89175-.44991.75353.75353,0,0,1,.37472.088.60942.60942,0,0,1,.24985.2896,1.09923,1.09923,0,0,1,.06394.43166v.91708a.62756.62756,0,0,0,.04053.27474.21433.21433,0,0,0,.10279.09075.71046.71046,0,0,0,.26217.03258v.08635H20.4116v-.08635h.05513a.53138.53138,0,0,0,.25962-.04533.23822.23822,0,0,0,.103-.13389,1.09148,1.09148,0,0,0,.01164-.21885v-.88295a.75458.75458,0,0,0-.09411-.42743.36141.36141,0,0,0-.317-.13306,1.03471,1.03471,0,0,0-.68613.30567v1.13777a.65008.65008,0,0,0,.03213.26776.24305.24305,0,0,0,.11246.09892.86053.86053,0,0,0,.2907.03139v.08635H18.8552v-.08635h.05833a.35759.35759,0,0,0,.27573-.08259.50206.50206,0,0,0,.07143-.31548v-.796a2.78659,2.78659,0,0,0-.02182-.47037.19.19,0,0,0-.06677-.11471.21267.21267,0,0,0-.1205-.03037.671.671,0,0,0-.19453.03514l-.04363-.08625.80485-.26382h.12543Z" fill="none" id="path63" /></g><g id="g65"><path d="M22.74916,32.52609a.95959.95959,0,0,0,.28823.74622.97329.97329,0,0,0,.68445.27051.877.877,0,0,0,.45569-.11488.86467.86467,0,0,0,.32479-.39826l.08946.0468a1.04582,1.04582,0,0,1-.35492.587,1.062,1.062,0,0,1-.73575.2629,1.20227,1.20227,0,0,1-.82165-.30043,1.0218,1.0218,0,0,1-.34176-.808,1.08033,1.08033,0,0,1,.35044-.85716,1.28553,1.28553,0,0,1,.87979-.3075,1.1187,1.1187,0,0,1,.73594.23748.78157.78157,0,0,1,.28791.63528Zm0-.13425h1.2343a.75587.75587,0,0,0-.06107-.29.50859.50859,0,0,0-.21689-.20583.64531.64531,0,0,0-.30133-.07488.67849.67849,0,0,0-.43232.15086A.60135.60135,0,0,0,22.74916,32.39184Z" fill-rule="evenodd" id="path67" /><path d="M22.74916,32.52609a.95959.95959,0,0,0,.28823.74622.97329.97329,0,0,0,.68445.27051.877.877,0,0,0,.45569-.11488.86467.86467,0,0,0,.32479-.39826l.08946.0468a1.04582,1.04582,0,0,1-.35492.587,1.062,1.062,0,0,1-.73575.2629,1.20227,1.20227,0,0,1-.82165-.30043,1.0218,1.0218,0,0,1-.34176-.808,1.08033,1.08033,0,0,1,.35044-.85716,1.28553,1.28553,0,0,1,.87979-.3075,1.1187,1.1187,0,0,1,.73594.23748.78157.78157,0,0,1,.28791.63528Zm0-.13425h1.2343a.75587.75587,0,0,0-.06107-.29.50859.50859,0,0,0-.21689-.20583.64531.64531,0,0,0-.30133-.07488.67849.67849,0,0,0-.43232.15086A.60135.60135,0,0,0,22.74916,32.39184Z" fill="none" id="path69" /></g><g id="g71"><path d="M27.029,31.65333v.72887h-.09539a.89468.89468,0,0,0-.2828-.46625.73758.73758,0,0,0-.43953-.1236.56355.56355,0,0,0-.32771.08662.23969.23969,0,0,0-.12479.1917.30909.30909,0,0,0,.09193.22454,1.04813,1.04813,0,0,0,.36541.20353l.42483.166q.59085.23166.5908.61087a.5417.5417,0,0,1-.275.47166,1.10337,1.10337,0,0,1-.61562.17912,2.66849,2.66849,0,0,1-.55894-.06827.70641.70641,0,0,0-.157-.02276.11869.11869,0,0,0-.10479.05745h-.09548v-.76723h.09548a.83189.83189,0,0,0,.31183.49515.85773.85773,0,0,0,.51557.16664.53355.53355,0,0,0,.32789-.0947.27793.27793,0,0,0,.12671-.228.33147.33147,0,0,0-.14186-.27107,2.62254,2.62254,0,0,0-.56432-.2774,1.692,1.692,0,0,1-.55282-.30364.46382.46382,0,0,1-.13035-.33769.54417.54417,0,0,1,.22529-.44322.91093.91093,0,0,1,.58294-.17829,1.6346,1.6346,0,0,1,.38093.05515,1.07051,1.07051,0,0,0,.19772.036.13407.13407,0,0,0,.07266-.01679.236.236,0,0,0,.06107-.07433Z" fill-rule="evenodd" id="path73" /><path d="M27.029,31.65333v.72887h-.09539a.89468.89468,0,0,0-.2828-.46625.73758.73758,0,0,0-.43953-.1236.56355.56355,0,0,0-.32771.08662.23969.23969,0,0,0-.12479.1917.30909.30909,0,0,0,.09193.22454,1.04813,1.04813,0,0,0,.36541.20353l.42483.166q.59085.23166.5908.61087a.5417.5417,0,0,1-.275.47166,1.10337,1.10337,0,0,1-.61562.17912,2.66849,2.66849,0,0,1-.55894-.06827.70641.70641,0,0,0-.157-.02276.11869.11869,0,0,0-.10479.05745h-.09548v-.76723h.09548a.83189.83189,0,0,0,.31183.49515.85773.85773,0,0,0,.51557.16664.53355.53355,0,0,0,.32789-.0947.27793.27793,0,0,0,.12671-.228.33147.33147,0,0,0-.14186-.27107,2.62254,2.62254,0,0,0-.56432-.2774,1.692,1.692,0,0,1-.55282-.30364.46382.46382,0,0,1-.13035-.33769.54417.54417,0,0,1,.22529-.44322.91093.91093,0,0,1,.58294-.17829,1.6346,1.6346,0,0,1,.38093.05515,1.07051,1.07051,0,0,0,.19772.036.13407.13407,0,0,0,.07266-.01679.236.236,0,0,0,.06107-.07433Z" fill="none" id="path75" /></g><g id="g77"><path d="M29.71,31.65333v.72887H29.6146a.8941.8941,0,0,0-.2828-.46625.73729.73729,0,0,0-.43944-.1236.56364.56364,0,0,0-.3278.08662.23956.23956,0,0,0-.1247.1917.30869.30869,0,0,0,.09193.22454,1.04741,1.04741,0,0,0,.36532.20353l.42492.166q.5907.23166.5907.61087a.5417.5417,0,0,1-.275.47166,1.10327,1.10327,0,0,1-.61553.17912,2.66779,2.66779,0,0,1-.55893-.06827.70787.70787,0,0,0-.1571-.02276.1188.1188,0,0,0-.10479.05745h-.09549v-.76723h.09549a.83188.83188,0,0,0,.31182.49515.858.858,0,0,0,.51567.16664.53347.53347,0,0,0,.3278-.0947.278.278,0,0,0,.12679-.228.33155.33155,0,0,0-.14194-.27107,2.62254,2.62254,0,0,0-.56432-.2774,1.69176,1.69176,0,0,1-.55282-.30364.46382.46382,0,0,1-.13035-.33769.54441.54441,0,0,1,.22529-.44322.91108.91108,0,0,1,.58294-.17829,1.63527,1.63527,0,0,1,.381.05515,1.06785,1.06785,0,0,0,.19772.036.13433.13433,0,0,0,.07266-.01679.23608.23608,0,0,0,.061-.07433Z" fill-rule="evenodd" id="path79" /><path d="M29.71,31.65333v.72887H29.6146a.8941.8941,0,0,0-.2828-.46625.73729.73729,0,0,0-.43944-.1236.56364.56364,0,0,0-.3278.08662.23956.23956,0,0,0-.1247.1917.30869.30869,0,0,0,.09193.22454,1.04741,1.04741,0,0,0,.36532.20353l.42492.166q.5907.23166.5907.61087a.5417.5417,0,0,1-.275.47166,1.10327,1.10327,0,0,1-.61553.17912,2.66779,2.66779,0,0,1-.55893-.06827.70787.70787,0,0,0-.1571-.02276.1188.1188,0,0,0-.10479.05745h-.09549v-.76723h.09549a.83188.83188,0,0,0,.31182.49515.858.858,0,0,0,.51567.16664.53347.53347,0,0,0,.3278-.0947.278.278,0,0,0,.12679-.228.33155.33155,0,0,0-.14194-.27107,2.62254,2.62254,0,0,0-.56432-.2774,1.69176,1.69176,0,0,1-.55282-.30364.46382.46382,0,0,1-.13035-.33769.54441.54441,0,0,1,.22529-.44322.91108.91108,0,0,1,.58294-.17829,1.63527,1.63527,0,0,1,.381.05515,1.06785,1.06785,0,0,0,.19772.036.13433.13433,0,0,0,.07266-.01679.23608.23608,0,0,0,.061-.07433Z" fill="none" id="path81" /></g><g id="g83"><path d="M31.115,32.52609a.95961.95961,0,0,0,.28827.74622.97307.97307,0,0,0,.68436.27051.87731.87731,0,0,0,.45578-.11488.8646.8646,0,0,0,.32479-.39826l.08946.0468a1.0468,1.0468,0,0,1-.35491.587,1.06231,1.06231,0,0,1-.73585.2629,1.20223,1.20223,0,0,1-.82164-.30043,1.02178,1.02178,0,0,1-.34177-.808,1.08026,1.08026,0,0,1,.35053-.85716,1.28555,1.28555,0,0,1,.8798-.3075,1.11841,1.11841,0,0,1,.73584.23748.78138.78138,0,0,1,.288.63528Zm0-.13425h1.23434a.75534.75534,0,0,0-.06116-.29.50859.50859,0,0,0-.21689-.20583.64465.64465,0,0,0-.30124-.07488.67816.67816,0,0,0-.43232.15086A.60157.60157,0,0,0,31.115,32.39184Z" fill-rule="evenodd" id="path85" /><path d="M31.115,32.52609a.95961.95961,0,0,0,.28827.74622.97307.97307,0,0,0,.68436.27051.87731.87731,0,0,0,.45578-.11488.8646.8646,0,0,0,.32479-.39826l.08946.0468a1.0468,1.0468,0,0,1-.35491.587,1.06231,1.06231,0,0,1-.73585.2629,1.20223,1.20223,0,0,1-.82164-.30043,1.02178,1.02178,0,0,1-.34177-.808,1.08026,1.08026,0,0,1,.35053-.85716,1.28555,1.28555,0,0,1,.8798-.3075,1.11841,1.11841,0,0,1,.73584.23748.78138.78138,0,0,1,.288.63528Zm0-.13425h1.23434a.75534.75534,0,0,0-.06116-.29.50859.50859,0,0,0-.21689-.20583.64465.64465,0,0,0-.30124-.07488.67816.67816,0,0,0-.43232.15086A.60157.60157,0,0,0,31.115,32.39184Z" fill="none" id="path87" /></g><g id="g89"><path d="M34.11856,32.52609a.96.96,0,0,0,.28837.74622.97307.97307,0,0,0,.68436.27051.87756.87756,0,0,0,.45578-.11488.86393.86393,0,0,0,.3247-.39826l.08946.0468a1.04615,1.04615,0,0,1-.35483.587,1.06227,1.06227,0,0,1-.73584.2629,1.20243,1.20243,0,0,1-.82165-.30043,1.022,1.022,0,0,1-.34167-.808,1.08046,1.08046,0,0,1,.35034-.85716,1.28581,1.28581,0,0,1,.87989-.3075,1.11845,1.11845,0,0,1,.73585.23748.78131.78131,0,0,1,.28791.63528Zm0-.13425H35.353a.75759.75759,0,0,0-.06107-.29A.5096.5096,0,0,0,35.075,31.896a.64593.64593,0,0,0-.30142-.07488.67825.67825,0,0,0-.43223.15086A.60167.60167,0,0,0,34.11856,32.39184Z" fill-rule="evenodd" id="path91" /><path d="M34.11856,32.52609a.96.96,0,0,0,.28837.74622.97307.97307,0,0,0,.68436.27051.87756.87756,0,0,0,.45578-.11488.86393.86393,0,0,0,.3247-.39826l.08946.0468a1.04615,1.04615,0,0,1-.35483.587,1.06227,1.06227,0,0,1-.73584.2629,1.20243,1.20243,0,0,1-.82165-.30043,1.022,1.022,0,0,1-.34167-.808,1.08046,1.08046,0,0,1,.35034-.85716,1.28581,1.28581,0,0,1,.87989-.3075,1.11845,1.11845,0,0,1,.73585.23748.78131.78131,0,0,1,.28791.63528Zm0-.13425H35.353a.75759.75759,0,0,0-.06107-.29A.5096.5096,0,0,0,35.075,31.896a.64593.64593,0,0,0-.30142-.07488.67825.67825,0,0,0-.43223.15086A.60167.60167,0,0,0,34.11856,32.39184Z" fill="none" id="path93" /></g></g><text font-family="AudiTypeDisplayHigh-Bold, Audi Type Display High" font-size="24px" font-weight="700" transform="translate(6.29487 23.55151)">{value}</text></svg>