<svg xmlns="http://www.w3.org/2000/svg" viewBox="0 0 53 30">
<g id="ri_kuwait_state_green_3dig">
<g id="Schild">
<path d="M1.99951,29.25a1.252,1.252,0,0,1-1.25-1.251V2.001A1.25168,1.25168,0,0,1,1.99951.75H50.99365a1.25138,1.25138,0,0,1,1.249,1.25049l.00683,25.99658a1.24865,1.24865,0,0,1-1.249,1.252Z" fill="#fff" fill-rule="evenodd" />
<path d="M50.99341,1.5a.501.501,0,0,1,.49975.50074L51.5,27.99768a.50049.50049,0,0,1-.49976.50108L1.99976,28.5A.50085.50085,0,0,1,1.5,27.99911V2.00088A.50084.50084,0,0,1,1.99976,1.5H50.99341m0-1.5H1.99976A2.00028,2.00028,0,0,0,0,2.00088V27.99911A2.00026,2.00026,0,0,0,1.99976,30l49.00048-.00124A2.00033,2.00033,0,0,0,53,27.99734l-.00684-25.997A2.00042,2.00042,0,0,0,50.99341,0Z" fill="#50a556" />
</g>
<text fill="#50a556" font-family="AudiTypeDisplayHigh-Bold, Audi Type Display High" font-size="21.99577" font-weight="700" id="Text" text-anchor="middle" transform="translate(26.5 23.05178)">{value}</text>
</g>
</svg>