<svg xmlns="http://www.w3.org/2000/svg" id="Icon" viewBox="0 0 50 40"><defs /><rect height="40" id="Hintergrund" rx="2" width="50" /><path d="M35.59221,38.33252c-.60357,0-.07626-.76187.62616-1.77144,1.00694-1.351,1.8-3.4296.61764-3.46654H7.61411c-.77471,0-.77471,0-.78206-.57913s.00734-.17844.00734-9.28261V14.48845l-.31424-.73136a5.15271,5.15271,0,0,0-.573-.98862c-.174-.21267-.20569-.48643-.20569-1.77727V9.46532l-.969-1.55011A11.45983,11.45983,0,0,1,3.147,4.70689a5.50469,5.50469,0,0,0-.61209-1.25737c-.61882-.9875-.09594-1.78285.489-1.78285h33.8173c.27582,0,.909.22936.99363.543.248.91951-.19881,1.03229.23324,1.77958.541.93576.191,1.16761.582,1.6542.23536.29291.69985.93666,1.0322,1.43056s.793,1.14788,1.02361,1.4533a6.12931,6.12931,0,0,1,1.02355,2.2518,4.62457,4.62457,0,0,0,1.13342,1.82546,17.40394,17.40394,0,0,1,1.61145,2.59867c.21338.47216.23757.79762.26355,3.54472a32.21567,32.21567,0,0,0,.16885,3.68651,9.6396,9.6396,0,0,0,1.245,2.88,1.04075,1.04075,0,0,1,.26411.9075,1.77454,1.77454,0,0,0,.23718,1.03979,7.13893,7.13893,0,0,1,1.056,2.388,2.08493,2.08493,0,0,1-.65447,1.93861,5.043,5.043,0,0,0-.70327,1.13261,3.38012,3.38012,0,0,1-1.57509,2.05292c-.45056.26848-.823,1.29185-1.042,1.7454a2.14777,2.14777,0,0,0-.384,1.00106c-.009.87055.07482.81216-1.016.81216Z" fill="#fff" id="Form" /><text font-family="AudiTypeDisplayHigh-Bold, Audi Type Display High" font-size="17px" font-weight="700" transform="translate(7.88129 26.53152)">{value}</text></svg>