<svg xmlns="http://www.w3.org/2000/svg" viewBox="0 0 35 35"><g id="ri_argentina_provincial_2dig"><g id="Schild"><rect fill="#fff" height="33.5" rx="1.53516" width="33.5" x="0.75" y="0.75" /><path d="M32.71509,1.5A.78577.78577,0,0,1,33.5,2.28494V32.71516a.78573.78573,0,0,1-.78491.78484H2.28467A.78568.78568,0,0,1,1.5,32.71516V2.28494A.78572.78572,0,0,1,2.28467,1.5H32.71509m0-1.5H2.28467A2.2847,2.2847,0,0,0,0,2.28494V32.71516A2.28468,2.28468,0,0,0,2.28467,35H32.71509A2.28488,2.28488,0,0,0,35,32.71516V2.28494A2.2849,2.2849,0,0,0,32.71509,0Z" /></g><text font-family="AudiTypeDisplayHigh-Bold, Audi Type Display High" font-size="19" font-weight="700" transform="translate(4.2749 24.25342)">{value}</text></g></svg>