<?xml version="1.0" encoding="UTF-8"?>
<svg id="Layer_1" data-name="Layer 1" xmlns="http://www.w3.org/2000/svg" viewBox="0 0 72 35">
  <defs>
    <style>
      .cls-1 {
        font-family: AudiTypeDisplayHigh-Bold, 'Audi Type Display High';
        font-size: 24px;
        font-weight: 700;
        isolation: isolate;
      }

      .cls-1, .cls-2 {
        fill: #8b6831;
      }

      .cls-3 {
        fill: #fff;
      }

      .cls-3, .cls-2 {
        fill-rule: evenodd;
      }
    </style>
  </defs>
  <path class="cls-2" d="M0,3.7912C-.00305,2.78927,.38794,1.82631,1.0886,1.1101,1.77969,.40084,2.72782,.00056,3.7181,0H68.3219c.97964,.00047,1.91759,.39651,2.6011,1.0983,.69288,.70856,1.07966,1.66097,1.077,2.652V31.2594c.00272,.98872-.38334,1.93888-1.0749,2.6455-.68124,.7002-1.61668,1.09517-2.5936,1.0951H3.6912c-.98307-.00012-1.92431-.39776-2.6097-1.1025-.69579-.71099-1.08422-1.667-1.0815-2.6618V3.7912Z"/>
  <path class="cls-3" d="M1.9956,5.8968c-.00085-.18437,.06997-.36185,.1975-.495,.12463-.13084,.2973-.20511,.478-.2056L36.1923,2.0082l33.1382,3.188c.18014,.00026,.35231,.07431,.4764,.2049,.1275,.13215,.19836,.30887,.1975,.4925V29.1266c.00063,.17859-.06802,.35047-.1915,.4795-.12092,.12573-.28765,.19707-.4621,.1977l-33.35079,3.188L2.7243,29.8038c-.19476-.00011-.38098-.07998-.5153-.221-.13746-.1437-.21394-.33504-.2134-.5339V5.8968Z"/>
  <text fill="#8b6831" font-family="AudiTypeDisplayHigh-Bold, Audi Type Display High" font-size="24" font-weight="700" id="Text" transform="translate(35.94197 26.15434)" text-anchor="middle">{value}</text>
</svg>