<svg xmlns="http://www.w3.org/2000/svg" id="svg2" viewBox="0 0 40 40"><defs /><rect height="40" rx="2" width="40" /><g id="g911"><path d="M23.832,3.8828l.50365.0438.4949.11825.46862.1708.43358.2365.4073.28467.36351.33285.31971.36351.26277.41168.2146.43358.15767.45986.36351.17956.37226.2146.346.24526.32409.27154.311.30657.28468.32409.2365.34161.2146.35912.16642.36789.12263.37227.38978.289.37227.30657.346.34161.31533.37665.28467.38978.24964.4292.20146.43358.14891.4511.11825.46862.05255.47737.381.33285.33285.35037.30219.37665.24526.38978.20584.4073.16642.42921.127.44233.07884.46862.04379.48614.01752.49489.33723.37227.28905.41168.23212.42482.17519.4511.12262.47738.092.47737.04379.4949v.50365l-.035.4949-.06132.50365.27154.30657.24088.34161.18394.37227.13139.39416.10073.41606.035.4292v.42483l-.04379.41606-.092.42044-.12263.38978.09635.31534.08321.31533.07008.32409.04379.32409.035.32409.00876.33285L36.8,28.64506l-.035.33285-.06131.32409-.092.32409L38.5,31.159V38H1.5V30.69033l1.59022-1.53286-.10511-.28467L2.915,28.575l-.0438-.31533-.00876-.3241.00876-.32409.0438-.31533.07007-.31533.08759-.28905.13139-.27154.15328-.24964-.18832-.4073-.11387-.43358-.05255-.43358v-.438l.06131-.42482.11387-.42482.15329-.42044.1927-.40731.23212-.37664.26278-.36351-.07884-.49489-.035-.4949.00876-.49489.06131-.48614.09635-.46862.14453-.46861.18394-.44234.24088-.4292.28029-.39855.33723-.3854.02628-.4511.06131-.45986.09636-.4511.13576-.4511.16643-.438.20584-.41606.24526-.38978.29343-.36789.32409-.33285.38979-.289.092-.45986.12262-.45986.16643-.46861.20584-.44672.24526-.43358.27591-.40731.31534-.37664.35474-.35037.39855-.30657.43358-.254.11387-.35037.162-.35037.1927-.35036.22336-.32409.254-.31534.29343-.289.311-.254.32409-.22336.3635-.17956.37227-.13577.16642-.46861.23212-.44234.2803-.41606.33723-.37665.381-.33285.41606-.28029.4511-.23212.47738-.17081.49489-.10073.52117-.035.26716-.35036.289-.32847.32847-.311.346-.27153.37227-.24526.38978-.20584.40293-.17956.43358-.13577.43358-.092.4511-.05256.47737.035.473.08321.4511.127.4292.1708.4073.22336.39854.24526.36351.29344.346.31533.30657.35474.28468.36789" fill="#fff" id="path913" /></g><g id="g933"><path d="M20.092,2.639l-.43357.00866-.32409.07453-.32847.1051-.3197.1358-.3197.15322-.289.18829-.28474.21032-.24529.24079-.22336.254-.18392.289-.13579.30666-.49485.01743-.50372.08768-.49484.15322-.46865.21021-.45111.28474-.40727.33285-.346.38974-.28024.43358-.20583.47741-.10511.51238-.43357.08757-.38984.14456-.35039.19268-.3197.2409-.27587.289-.254.31543-.22336.34151-.17514.36793-.1621.36354-.11387.38535-.24518.10949-.23213.1358-.22775.15333-.2146.17075-.19278.18829-.18829.20583-.17514.20594-.15772.219-.14445.22325-.12264.219-.11388.21471-.07014.21459-.04811.24518-.03507.24089-.01754.23652-.04373.2409-.05261.219-.08757.21459-.14018.19706-.18829.15334-.346.23641-.289.28035-.24967.32408-.219.35039-.17075.38536-.13141.39861-.08757.41165-.0438.41606v.40727l.03507.41177-.3723.33274-.32847.36354-.26282.41166-.2146.44234-.14884.46865-.10511.47741-.04383.49485.01753.50372.0788.49484.14018.48619-.346.31532-.26271.35478-.20594.38535-.1313.40727-.07891.42919-.01743.43358.035.43358.0788.43357.13141.42053.17963.38973-.22337.276-.15771.29778L3.997,27.2304l-.07.32408-.03069.34162.01754.33285.05689.32847.09644.33286.12254.31532.16648.2934-.19268.184-.19278.17076-.18829.15333-.18391.162-.19706.14456-.184.15322-.19267.14456-.1883.16209-.19267.162L2.5,31.115V37h35V31.50042l-.22243-.17076-.19267-.15332-.19706-.1621-.184-.15322-.19267-.15333-.18829-.162-.18391-.16209-.1884-.17075-.18394-.17957-.18391-.19706.16637-.29779.12264-.32408.08757-.34162.04823-.33724.00876-.34162-.03945-.35039-.0788-.34162-.11387-.33275-.14895-.31542-.18829-.29778.15333-.23652.12253-.27586.09645-.28036.06126-.29778.03507-.29778v-.30655l-.0263-.30666-.04384-.2934-.0788-.289-.09634-.27158-.04384-.15322-.09195-.14456-.11388-.1358-.12263-.14456-.12264-.12692-.11826-.14018-.08757-.13579-.04374-.1358.00877-.13569.07-.15333.10072-.4511.0526-.46865-.00877-.451-.057-.44673-.11387-.42481-.14884-.40738-.2146-.39412-.23651-.36793-.29351-.32847-.31532-.31093.0263-.47742-.0263-.46854-.06565-.46864-.10511-.45111-.15771-.43358-.20584-.40727-.254-.38545-.31093-.35039-.35467-.31532-.40738-.289-.01753-.49484-.07-.48619-.13141-.45111-.18391-.44234-.23212-.41166-.28464-.38984-.31532-.359-.37231-.33286-.3985-.28912-.42492-.26271-.08757-.38546-.12264-.381-.17956-.35037-.219-.33285-.25844-.30655-.30216-.276-.31532-.22775L27.638,7.82876l-.3722-.14456-.39861-.09195-.06126-.34162-.10511-.34152-.13141-.34162-.17952-.31532-.20155-.29789-.24079-.27148L25.676,5.43313l-.30217-.19706L25.074,5.02981l-.315-.14253-.27843-.09784-.31522-.09067-.45967-.06312-.38523-.03022-.17708-.2695-.2178-.2911-.25833-.31532-.30228-.27159-.31532-.2409L21.695,3.01119l-.37231-.162-.39851-.11826-.40738-.06576Zm-.16637.98979.35466.00866.35039.04822.33724.08757.32847.127.31093.17075.27159.19717.26709.22775.23652.25833.19706.28036.17525.29778.0525.08319.03507.0788V5.5689l-.01753.0788-.04374.06565-.0526.07891-.06127.0525-.07891.057-.07.04373-.07.0263L22.076,6.182l-.3985.16209-.42481.11388-.44235.06565-.45988.04383-.45986-.00876-.44234-.05255-.44233-.08321-.41605-.11826L18.2,6.14268l-.08757-.04384L18.02486,6.055l-.08757-.03935-.092-.0526-.07891-.0525-.08757-.057-.07-.06127-.07014-.06137-.08319-.06565L17.403,5.58646l.10949-.30666.1576-.289.19279-.26282.24079-.24956.26282-.21021.28463-.1884.31093-.162.31543-.127.3197-.09634Zm-3.93727,2.4263h.45111l.416.07891.40726.11826.38108.162.381.17952.37231.17963.37659.162.40727.11826.41615.07014h.45977l.55621.03935.52555-.08321.50365-.17081.48619-.20593.47731-.219.46865-.19706.47741-.127.49485-.04373.50361.10072.54745.2671.20593.13579.19268.15333.17075.17076.14895.17963.13141.18391.11826.20583.08757.20583.07.21021.04384.21459.02631.2146-1.12118.50372-1.20439.38973-1.27452.28036-1.3095.162-1.327.04384-1.31815-.07014-1.29209-.18391-1.25251-.31532-1.16941-.42919-1.06862-.55183-.08757-.08757.08757-.28912L14.07,7.53975l.15772-.27159.18829-.2409.21021-.22764.2409-.20593.24528-.17952.28463-.15334.28463-.11815ZM13.24672,8.73982l1.18688.59995,1.292.46864,1.37087.33286,1.42337.21021,1.44959.0788,1.45846-.04374L22.86,10.21568l1.38828-.289,1.3095-.42481,1.22191-.54745.31093.07.28912.10072.2671.1621.2409.19706.21021.219.1839.24967.1621.27148.11387.28035.09634.289.07.2934.46864.16209.43358.219.38107.289.3197.34162.2671.38546.21021.42481.14017.43357.092.46865.00877.46854-.06565.46865.40727.25844.37231.31532.32847.37658.28024.416.23213.44235.16638.44234.10072.438.03507.41615-.04373.37659-.1358.31532.381.30655.31093.35478.26282.39422.19706.42482.14018.44234.0788.46416.02631.46865-.03508.46865-.08757.45988-.14018.43357.32409.31532.276.35916.22336.381.15761.40289.10521.41615.04373.43358-.0263.438-.09634.42481-.15761.40727-.23212.38546.16637.24518.15333.2672.12264.27148.08757.28912.04384.29777.00866.289-.04373.29351-.08757.27148-.15771.254-.22337.23212-1.13864.54307-1.16941.49485-1.19125.44673-1.21315.39861-1.23066.33285-1.23937.289-1.25262.24966-1.26565.19267-1.26576.15323-1.26565.11387L22.295,32.1663v-.50371l.01754-.51238V30.6466l-.03507-.495-.08757-.46854-.14018-.43357-.23213-.39861-.33724-.34162-.451-.289-.14018-.05261-.14894-.06126L20.587,28.067l-.14895-.04373-.14894-.0263-.162-.02631-.15772-.00877H19.803l-.1621.01754-.1576.0263-.60006.2146-.45988.29778-.32847.38984-.232.45977-.14018.50372-.0788.53868-.03507.55183v.55621l.01753.5343v.51238l-1.31825-.127-1.292-.17075-1.27452-.2146-1.25689-.254-1.2351-.30655-1.21315-.35913-1.20439-.4073-1.165-.46862-1.16059-.51241L5.3766,29.15744l-.13579-.13569-.12264-.16209-.08757-.17075-.07891-.17963L4.89038,28.321l-.03508-.19707-.01753-.19706.00877-.20154.0263-.19706.06137-.20584.0262-.127.06137-.11826.0788-.10511.08757-.10072.10072-.10072.09634-.09634.08768-.09195.06127-.09635.04384-.10949.01754-.11826-.149-.17962-.13141-.19707L5.20569,25.68l-.09634-.23213-.06126-.22336-.04384-.24518-.0263-.2409v-.24528l.0263-.24529.06126-.24967.04384-.15322.07-.15333.07014-.14446.09195-.13579.10511-.1358.1051-.127.12264-.11388.127-.127.1313-.10949.14894-.12254-.13141-.45988-.0788-.47741L5.85385,21.261l.03507-.46854.07881-.46865.14017-.45111L6.305,19.4391l.24529-.40289.31093-.36354.37231-.34162-.0526-.45111.00877-.44235.0526-.42919.10511-.416.16637-.39412.2146-.38107.254-.35039.31093-.32409.35478-.29778.3985-.26282-.01753-.49485.06137-.49485.12264-.47741.18829-.45111.22775-.42919.30217-.39851.33724-.36792.38535-.30655.43358-.28036.47741-.22336.057-.25395.08757-.24966.12264-.22775.14007-.22337.17087-.20144.18391-.18829.21459-.17086.219-.15322.23212-.127ZM5.02183,30.13416l2.19418.99855,2.29929.83656,2.37807.67446,2.46139.49485,2.492.32847,2.52265.15332,2.527-.01315,2.51389-.1884,2.46566-.38535,2.4263-.55183.57373-.17076.57373-.17963.57367-.17952.56935-.19706.55621-.1884.5562-.20145.55621-.20583.56059-.22336.54745-.219.54745-.2409.10511.12264.11826.10071.09634.092.11387.09644.10511.07442.10949.07.1051.07452.10511.0525.10511.06138.1051.03935-2.46139.66569L36.5,32.43778V36H3.5V32.09625l2.97136-.46865-2.584-.57816Z" id="path935" /></g><text font-family="AudiTypeDisplayHigh-Bold, Audi Type Display High" font-size="16px" font-weight="700" transform="translate(8.86316 25.97695)">{value}</text></svg>