<svg xmlns="http://www.w3.org/2000/svg" id="Icon" viewBox="0 0 50 40"><defs /><rect height="40" rx="2" width="50" /><path d="M7.64664,35.63661V32.9399H2.93537V12.965L2.01986,7.47893C1.51633,4.4616,1.09024,1.91948,1.073,1.82977l-.03134-.1631H44.0251l.27625.10341a1.09108,1.09108,0,0,1,.77294.80514,1.0153,1.0153,0,0,1,.0526.65243c-.03229.15817-.08955.47352-.12725.70078a2.30766,2.30766,0,0,1-.32163.86991,1.42982,1.42982,0,0,0-.27125.89166l-.01818.30162.20761.25294.20761.11962h4.14495V8.47569l.0096.0722a1.35508,1.35508,0,0,0-.15705.71926l-.33326.78038-.54929,1.10372a4.596,4.596,0,0,0-.75462,1.54151,15.60649,15.60649,0,0,1-.62816,2.27349c-.08886.22174-.2526.68934-.36386,1.03909a2.94118,2.94118,0,0,1-.796,1.47559,1.95759,1.95759,0,0,0-.46714.75549,3.77962,3.77962,0,0,1-.50911,1.04105,11.11169,11.11169,0,0,0-.74554,1.30972,31.94789,31.94789,0,0,1-2.40148,3.52313,11.26246,11.26246,0,0,0-1.29157,2.06034,11.07529,11.07529,0,0,0-.721,1.52234c-.04285.17059-.11336.43739-.15667.59289a6.63425,6.63425,0,0,0-.07984,1.46916l-.00108,1.05312.18076.578c.09942.24455.23056.60962.29142.81128s.14548.55591.188.62428a7.14182,7.14182,0,0,1,.06192,2.06863l-.01545,1.94431-.17405.41816a2.9811,2.9811,0,0,1-.40569.50484,1.57359,1.57359,0,0,0-.23165.24874.333.333,0,0,1-.19256.154.58726.58726,0,0,0-.17386.086c-.12919.084-.32786.08507-15.50793.086l-15.377.001Z" data-name="Arkansas Form" fill="#fff" id="Arkansas_Form" transform="translate(0 0)" /><text font-family="AudiTypeDisplayHigh-Bold, Audi Type Display High" font-size="18px" font-weight="700" id="Nummer" isolation="isolate" transform="translate(3.55157 25.59851)">{value}</text></svg>