<svg xmlns="http://www.w3.org/2000/svg" id="svg2" viewBox="0 0 50 40"><defs /><rect height="40" rx="2.23607" width="50" /><g id="g911"><path d="M29.79,3.8828l.62957.0438.61862.11825.58577.1708.542.2365.50913.28467.45439.33285.39963.36351.32847.41168.26826.43358.19708.45986.45438.17956.46533.2146.43249.24526.40511.27154.38869.30657.35584.32409.29563.34161.26825.35912.208.36789.15328.37227.48723.289.46534.30657.43248.34161.39417.37665.35584.38978.312.4292.25182.43358.18614.4511.14781.46862.06569.47737.47628.33285.41607.35037.37774.37665.30657.38978.2573.4073.208.42921.15876.44233.09854.46862.05475.48614.0219.49489.42153.37227.36132.41168.29015.42482.219.4511.15328.47738.115.47737.05474.4949v.50365l-.04379.4949-.07665.50365.33942.30657.3011.34161.22993.37227.16424.39416.12591.41606.0438.4292v.42483l-.05475.41606-.115.42044-.15329.38978.12044.31534.104.31533.08759.32409.05474.32409.0438.32409.011.33285L46,28.64506l-.0438.33285-.07664.32409-.115.32409L48,31.159V38H2V30.69033l1.86277-1.53286-.13138-.28467-.0876-.29781-.05474-.31533-.01095-.3241.01095-.32409.05474-.31533.0876-.31533.10949-.28905.16423-.27154.19161-.24964-.2354-.4073L3.819,25.3297l-.06569-.43358v-.438l.07664-.42482.14233-.42482.19161-.42044.24088-.40731.29015-.37664.32847-.36351-.09854-.49489-.0438-.4949.011-.49489.07665-.48614.12043-.46862.18066-.46861.22993-.44234.3011-.4292.35037-.39855.42153-.3854.03285-.4511.07664-.45986.12044-.4511.16971-.4511.208-.438.2573-.41606.30658-.38978.36679-.36789.40511-.33285.48723-.289.115-.45986.15328-.45986.208-.46861.2573-.44672.30658-.43358.34489-.40731.39416-.37664.44344-.35037.49818-.30657.542-.254.14234-.35037.20256-.35037.24088-.35036.2792-.32409.31752-.31534.36679-.289.38869-.254.40511-.22336.45438-.17956.46534-.13577.208-.46861.29015-.44234.35036-.41606.42154-.37665L17.2753,4.658l.52008-.28029.56387-.23212.59672-.17081.61862-.10073.65147-.035L20.56,3.48864l.36132-.32847.41058-.311.43249-.27153.46533-.24526.48723-.20584.50366-.17956.542-.13577.542-.092.56387-.05256.59672.035.59125.08321.56387.127.5365.1708.50913.22336.49818.24526.45438.29344.43249.31533.38321.35474L29.79,3.8828" fill="#fff" id="path913" /></g><g id="g933"><path d="M25.115,2.639l-.542.00866-.40511.07453-.41058.1051-.39963.1358-.39962.15322-.36127.18829-.35593.21032-.3066.24079-.27921.254-.22989.289-.16974.30666-.61856.01743-.62965.08768-.61856.15322-.58581.21021-.56389.28474-.50908.33285-.43251.38974-.35031.43358-.25728.47741-.13139.51238-.542.08757-.48731.14456-.438.19268-.39962.2409-.34483.289-.31756.31543-.27921.34151-.21893.36793-.20261.36354-.14235.38535-.30647.10949-.29016.1358-.28469.15333-.26824.17075-.241.18829-.23536.20583-.21893.20594-.19714.219-.18057.22325-.1533.219-.14235.21471-.08767.21459-.06015.24518-.04384.24089-.02191.23652-.05467.2409-.06576.219-.10946.21459-.17522.19706-.23537.15334-.4325.23641L9.02,14.75729l-.31209.32408-.27372.35039-.21345.38536-.16426.39861-.10946.41165-.05475.41606v.40727l.04384.41177-.46539.33274-.41058.36354-.32853.41166-.26824.44234-.18605.46865-.13138.47741-.0548.49485.02192.50372.0985.49484.17522.48619-.4325.31532-.32839.35478-.25742.38535-.16413.40727-.09863.42919-.02179.43358.04371.43358.0985.43357.16426.42053.22454.38973-.27921.276-.19714.29778-.14234.31533-.08755.32408-.03835.34162.02192.33285.0711.32847.12056.33286.15317.31532.2081.2934-.24085.184-.241.17076L4.728,30.0071l-.22989.162-.24632.14456-.23.15322-.24084.14456-.23537.16209-.24085.162L3,31.115V37H47V31.50042l-.403-.17076-.24084-.15332-.24632-.1621-.23-.15322-.24085-.15333-.23536-.162-.22988-.16209-.2355-.17075-.22993-.17957-.22989-.19706.208-.29779.1533-.32408.10946-.34162.06028-.33724.011-.34162-.04932-.35039-.0985-.34162-.14234-.33275L44.544,26.8537l-.23536-.29778.19166-.23652.15317-.27586.12055-.28036.07658-.29778.04384-.29778v-.30655l-.03288-.30666-.05479-.2934-.0985-.289-.12043-.27158-.0548-.15322-.11494-.14456-.14234-.1358-.1533-.14456-.1533-.12692-.14783-.14018-.10946-.13579-.05466-.1358.011-.13569.08755-.15333.1259-.4511.06576-.46865-.011-.451-.07124-.44673-.14234-.42481-.18606-.40738-.26824-.39412-.29565-.36793-.36688-.32847-.39415-.31093.03288-.47742-.03288-.46854-.08206-.46864-.13139-.45111-.19714-.43358-.25729-.40727-.31757-.38545-.38866-.35039-.44334-.31532-.50922-.289-.02192-.49484-.08754-.48619-.16427-.45111-.22988-.44234-.29016-.41166-.35579-.38984-.39415-.359-.46539-.33286-.49813-.28912L36.8468,10.277l-.10946-.38546-.1533-.381-.22445-.35037-.27373-.33285-.323-.30655-.37771-.276L34.991,8.01705l-.44347-.18829-.46525-.14456L33.584,7.59225l-.07658-.34162L33.376,6.90911l-.16427-.34162-.2244-.31532-.25194-.29789-.301-.27148-.33949-.24967-.3777-.19706-.37477-.20626-.39375-.14253-.348-.09784-.394-.09067-.57459-.06312-.48155-.03022-.22134-.2695-.27225-.2911L28.334,3.72951l-.37784-.27159L27.562,3.217l-.44333-.20583-.46539-.162-.49813-.11826L25.646,2.66518Zm-.208.98979.44333.00866.438.04822.42155.08757.41058.127.38867.17075.33948.19717.33387.22775.29565.25833.24632.28036.21907.29778.06562.08319.04384.0788V5.5689l-.02192.0788-.05467.06565-.06575.07891-.07659.0525-.09863.057-.08755.04373-.08754.0263L27.595,6.182l-.49813.16209-.531.11388-.55293.06565-.57485.04383-.57483-.00876-.55292-.05255-.55292-.08321-.52-.11826-.48731-.162-.10946-.04384L22.53107,6.055l-.10946-.03935-.11494-.0526-.09864-.0525-.10946-.057L22.011,5.79229l-.08767-.06137-.104-.06565-.06563-.07881.13687-.30666.197-.289.241-.26282.301-.24956.32853-.21021.35579-.1884.38866-.162.39428-.127.39963-.09634Zm-4.92158,2.4263h.56389l.52.07891.50909.11826.47634.162.47622.17952.46538.17963.47074.162.50908.11826.52019.07014h.57471l.69526.03935.65695-.08321.62956-.17081.60773-.20593.59664-.219.58582-.19706.59676-.127.61856-.04373.62951.10072.68432.2671.25741.13579.24085.15333.21344.17076.18618.17963.16426.18391.14783.20583.10946.20583.08755.21021.0548.21459.03288.2146-1.40148.50372-1.50549.38973-1.59314.28036-1.63688.162-1.65877.04384-1.64769-.07014-1.61511-.18391L20.2427,9.16894l-1.46176-.42919-1.33578-.55183-.10946-.08757.10946-.28912.14234-.27148.19715-.27159.23536-.2409.26276-.22764.30113-.20593.3066-.17952.35579-.15334.35579-.11815Zm-3.427,2.68475,1.48359.59995,1.615.46864,1.71359.33286,1.77921.21021,1.812.0788,1.82308-.04374,1.79016-.17086,1.73535-.289,1.63687-.42481,1.52739-.54745.38867.07.3614.10072.33387.1621.30112.19706.26276.219.22989.24967.20262.27148.14234.28035.12042.289.08755.2934.5858.16209.542.219.47634.289.39963.34162.33387.38546.26276.42481.17522.43357.11494.46865.011.46854-.08206.46865.50908.25844.46539.31532.41059.37658.3503.416.29016.44235.208.44234.1259.438.04384.41615-.05467.37659-.16974.31532.47621.30655.38867.35478.32852.39422.24633.42482.17522.44234.0985.46416.03288.46865-.04384.46865-.10946.45988-.17523.43357.40511.31532.345.35916.2792.381.197.40289.13151.41615.05467.43358-.03288.438-.12043.42481-.197.40727-.29017.38546.208.24518.19166.2672.15329.27148.10947.28912.0548.29777.01082.289-.05466.29351-.10947.27148-.19713.254-.27921.23212-1.4233.54307-1.46176.49485-1.48907.44673-1.51643.39861-1.53833.33285-1.54922.289-1.56577.24966-1.58206.19267-1.5822.15323-1.58206.11387-.02192-.48608v-.50371l.02192-.51238V30.6466l-.04384-.495-.10946-.46854-.17523-.43357-.29016-.39861-.42155-.34162-.56376-.289-.17523-.05261-.18618-.06126-.19152-.03946-.18618-.04373-.18618-.0263-.20249-.02631-.19715-.00877h-.208l-.20261.01754-.197.0263-.75008.2146-.57485.29778-.41058.38984-.29.45977-.17522.50372-.0985.53868-.04384.55183v.55621l.02192.5343v.51238l-1.64782-.127-1.615-.17075-1.59315-.2146-1.57111-.254L14.062,31.49182l-1.51644-.35913-1.50548-.4073-1.45622-.46862-1.45074-.51241-1.41236-.58692L6.551,29.02175l-.1533-.16209-.10946-.17075-.09864-.17963L6.113,28.321l-.04384-.19707-.02192-.19706.011-.20154.03288-.19706.07672-.20584.03274-.127.07672-.11826.0985-.10511.10946-.10072.1259-.10072.12043-.09634.1096-.09195.07659-.09635.05479-.10949.02192-.11826-.18618-.17962L6.644,25.88148,6.50712,25.68l-.12043-.23213-.07658-.22336-.0548-.24518-.03288-.2409v-.24528l.03288-.24529.07658-.24967.0548-.15322.08755-.15333.08767-.14446.11494-.13579.13139-.1358.13138-.127.1533-.11388.15878-.127.16412-.10949.18619-.12254-.16427-.45988-.0985-.47741L7.31732,21.261l.04384-.46854.0985-.46865.17522-.45111.24633-.43357.3066-.40289.38867-.36354.46539-.34162-.06576-.45111.011-.44235.06576-.42919.13138-.416.208-.39412.26824-.38107.31756-.35039.38867-.32409.44347-.29778.49813-.26282-.02192-.49485.07672-.49485.1533-.47741.23536-.45111.28469-.42919.37771-.39851.42155-.36792.48169-.30655.542-.28036.59677-.22336.07124-.25395.10946-.24966.1533-.22775.17509-.22337.21358-.20144.22989-.18829.26824-.17086.27372-.15322.29015-.127ZM6.27729,30.13416,9.02,31.13271l2.87411.83656,2.97259.67446,3.07673.49485,3.115.32847,3.15331.15332,3.15879-.01315,3.14236-.1884,3.08208-.38535,3.03287-.55183.71716-.17076.71716-.17963.71709-.17952.71169-.19706.69526-.1884.69526-.20145.69526-.20583.70073-.22336.68431-.219.68432-.2409.13138.12264.14783.10071.12042.092.14235.09644.13138.07442.13686.07.13138.07452.13139.0525.13138.06138.13138.03935-3.07674.66569L46,32.43778V36H4V32.09625l4.0892-.46865-3.23-.57816Z" id="path935" /></g><text font-family="AudiTypeDisplayHigh-Bold, Audi Type Display High" font-size="15px" font-weight="700" transform="translate(9.33874 25.97695)">{value}</text></svg>