<svg xmlns="http://www.w3.org/2000/svg" id="svg2998" viewBox="0 0 40 40"><defs /><g id="layer1"><rect height="40" rx="2" width="40" /><rect fill="#fff" height="38" rx="2" width="38" x="1" y="1" /><g id="text3785"><path d="M16.77338,11.992a3.57693,3.57693,0,0,1-.26219,1.41692,2.20191,2.20191,0,0,1-.73582.95522,1.05517,1.05517,0,0,1-.38059.21492,1.72782,1.72782,0,0,1-.43135.08757H12.91667V9.33333h1.82686a3.56868,3.56868,0,0,1,.36368.01592,1.49046,1.49046,0,0,1,.28756.0398.95642.95642,0,0,1,.22836.08757q.10149.05572.2199.13532a2.30561,2.30561,0,0,1,.68508.97911,3.70913,3.70913,0,0,1,.24527,1.401m-.91343,0a3.3469,3.3469,0,0,0-.12687-.96318A1.39212,1.39212,0,0,0,15.40323,10.4a1.00351,1.00351,0,0,0-.25373-.1592.78554.78554,0,0,0-.32139-.06369H13.81318V13.807h.89652a1.1716,1.1716,0,0,0,.36368-.04776A.69326.69326,0,0,0,15.344,13.6a1.46321,1.46321,0,0,0,.38059-.65273A3.12248,3.12248,0,0,0,15.86,11.992" id="path3832" /><path d="M22.47811,13.58408a1.749,1.749,0,0,1-1.70846,1.17811,2.13615,2.13615,0,0,1-1.04875-.23085,1.77625,1.77625,0,0,1-.68508-.72438,3.29581,3.29581,0,0,1-.30447-.83582,4.44436,4.44436,0,0,1,.0592-2.197,2.59883,2.59883,0,0,1,.46517-.93931,1.64422,1.64422,0,0,1,.609-.44577,2.19023,2.19023,0,0,1,.84577-.15124,1.9432,1.9432,0,0,1,1.05721.26269,2.015,2.015,0,0,1,.71045.82786l-.83731.33433a2.95191,2.95191,0,0,0-.2199-.27861.76629.76629,0,0,0-.203-.17512.65251.65251,0,0,0-.22835-.08757,1.42985,1.42985,0,0,0-.27911-.02388.91674.91674,0,0,0-.95572.6607,2.36134,2.36134,0,0,0-.16915.56517,4.3452,4.3452,0,0,0-.05075.66866,3.76614,3.76614,0,0,0,.093.84378,1.99938,1.99938,0,0,0,.26219.65274,1.01268,1.01268,0,0,0,.35523.31045,1.09031,1.09031,0,0,0,.499.10348.868.868,0,0,0,.499-.14329,1.31866,1.31866,0,0,0,.38059-.47761l.85423.30249h0" id="path3834" /></g><path d="M17.241,1.30333l-.88541.00167L4.55833,13.24833l1.90188,1.98A10.45829,10.45829,0,0,0,8.26468,16.606a1.72033,1.72033,0,0,0,.379.19667c.4268.17876.89739.37483,1.399.54333a13.82173,13.82173,0,0,1,1.88146.47072,5.60193,5.60193,0,0,1,.61043.18431c.16328.07476.33789.13794.38416.35569l.0425.19333h1.44146l-.04781-.18833a1.36457,1.36457,0,0,0-.871-1.14364c-.23363-.07661-.50792-.16735-.80263-.27874a5.3948,5.3948,0,0,0-.74729-.235c-.62852-.19721-1.51962-.36344-1.93375-.51834-.34995-.1605-1.03293-.48635-1.47048-.6959a2.3441,2.3441,0,0,1-.703-.52485c-.46994-.50539-.96889-.98579-1.44608-1.48522L16.33083,3.40167l.53657-.54334.37718.32667,16.282,13.00769L32.29624,17.7904l1.1174.83667,2.03078-2.54938L17.241,1.30333Zm-1.97271,29.98a2.14138,2.14138,0,0,1-.1452.46,5.04952,5.04952,0,0,0-.29219.50667c-.05089.151-.12086.345-.15584.43167a2.28051,2.28051,0,0,0-.06375.59833c0,.44422.02635.51978.55782,1.59833a7.51631,7.51631,0,0,1,.33468.915,8.64627,8.64627,0,0,1,.16292.98667c.069.41522.15251.90793.18594,1.09667a4.74111,4.74111,0,0,1,.06552.56666l.00531.25334,1.39542-.015,5.54979-6.585-1.08729-.81L17.31541,36.61l-.24083.28667L16.96833,36.5a6.3781,6.3781,0,0,1-.14167-.815,2.46624,2.46624,0,0,0-.24968-.85833,4.95575,4.95575,0,0,1-.27625-.62167c-.04195-.13212-.13084-.37886-.19657-.54833A1.19313,1.19313,0,0,1,16.40521,32.35a2.73969,2.73969,0,0,0,.46572-1.06667h-.86239c-.52964,0-.73974.00048-.74021,0Z" id="path2026" /></g><text font-family="AudiTypeDisplayHigh-Bold, Audi Type Display High" font-size="14px" font-weight="700" transform="translate(5.38286 30.4132)">{value}</text></svg>