<svg xmlns="http://www.w3.org/2000/svg" data-name="Layer 1" id="Layer_1" viewBox="0 0 40 32"><defs /><rect height="32" rx="2" width="40" /><rect fill="#fff" height="30" rx="1.88746" width="38" x="1" y="1" /><rect height="4.82707" width="0.7781" x="7.50849" y="2.75313" /><polygon fill-rule="evenodd" points="9.438 7.58 9.438 2.753 10.202 2.753 10.202 6.867 12.435 6.867 12.435 7.58 9.438 7.58" /><polygon fill-rule="evenodd" points="13.151 7.58 13.151 2.753 13.915 2.753 13.915 6.867 16.148 6.867 16.148 7.58 13.151 7.58" /><rect height="4.82707" width="0.7781" x="16.8634" y="2.75313" /><polygon fill-rule="evenodd" points="21.401 7.58 19.557 4.309 19.557 7.58 18.793 7.58 18.793 2.753 19.557 2.753 21.315 5.837 21.315 2.753 22.078 2.753 22.078 7.58 21.401 7.58" /><path d="M26.54388,5.17389A4.35962,4.35962,0,0,1,26.407,6.27618a2.32633,2.32633,0,0,1-.3891.85017,1.36735,1.36735,0,0,1-1.16709.54032,1.55555,1.55555,0,0,1-.843-.2089,1.53848,1.53848,0,0,1-.54748-.65567,3.25759,3.25759,0,0,1-.245-.75286,4.307,4.307,0,0,1,.0468-1.98487,2.71942,2.71942,0,0,1,.38543-.85734A1.35456,1.35456,0,0,1,24.1627,2.8a1.75256,1.75256,0,0,1,.71686-.13331,1.41917,1.41917,0,0,1,.78532.20894,1.65858,1.65858,0,0,1,.55481.65562,3.34365,3.34365,0,0,1,.23773.75643A4.51394,4.51394,0,0,1,26.54388,5.17389Zm-.76375,0a3.7671,3.7671,0,0,0-.072-.76009,1.93741,1.93741,0,0,0-.21617-.59438.78106.78106,0,0,0-.263-.2738.82024.82024,0,0,0-.36387-.10086.68478.68478,0,0,0-.46824.1297,1.03624,1.03624,0,0,0-.30975.4683,2.134,2.134,0,0,0-.14059.52235,4.03447,4.03447,0,0,0-.04679.60878,3.814,3.814,0,0,0,.072.74926,1.7669,1.7669,0,0,0,.21617.59077.8094.8094,0,0,0,.27374.281.75282.75282,0,0,0,.3891.09364.67773.67773,0,0,0,.44311-.14409,1.088,1.088,0,0,0,.299-.4683,2.34819,2.34819,0,0,0,.072-.22694q.036-.13329.06123-.281.02533-.1477.03968-.299T25.78013,5.17389Z" fill-rule="evenodd" /><rect height="4.82707" width="0.7781" x="27.61505" y="2.75313" /><path d="M32.49146,6.18972a1.51533,1.51533,0,0,1-.12248.61238,1.39674,1.39674,0,0,1-.82489.76732,1.69945,1.69945,0,0,1-.57994.09725,1.72318,1.72318,0,0,1-1.06994-.335,2.20837,2.20837,0,0,1-.68807-.8898l.72774-.26662a1.21224,1.21224,0,0,0,.41789.52958,1.05252,1.05252,0,0,0,.61238.18372.7352.7352,0,0,0,.54393-.20533.69031.69031,0,0,0,.20538-.508.58741.58741,0,0,0-.12614-.389,1.04387,1.04387,0,0,0-.32776-.25574,2.9896,2.9896,0,0,0-.44311-.18377q-.2414-.07918-.47913-.17288-.108-.04326-.26652-.12248a1.27045,1.27045,0,0,1-.30619-.21972,1.24578,1.24578,0,0,1-.25228-.34943,1.13654,1.13654,0,0,1-.10437-.51153,1.42178,1.42178,0,0,1,.11525-.6016,1.07564,1.07564,0,0,1,.31342-.40344,1.28519,1.28519,0,0,1,.47546-.22695,2.38847,2.38847,0,0,1,.60161-.07207,1.34689,1.34689,0,0,1,.85367.26657,1.66975,1.66975,0,0,1,.52236.72047l-.67718.20172a.79951.79951,0,0,0-.15137-.20889.755.755,0,0,0-.21972-.1441.88978.88978,0,0,0-.34221-.07207,1.16258,1.16258,0,0,0-.27018.018.72962.72962,0,0,0-.24852.09008.48771.48771,0,0,0-.17293.1765.4627.4627,0,0,0-.05045.2774.42037.42037,0,0,0,.1946.3422,1.86935,1.86935,0,0,0,.43945.20534q.2594.08636.55837.17649a2.03663,2.03663,0,0,1,.55115.2594,1.39593,1.39593,0,0,1,.42144.45385A1.47874,1.47874,0,0,1,32.49146,6.18972Z" fill-rule="evenodd" /><text font-family="AudiTypeDisplayHigh-Bold, Audi Type Display High" font-size="18px" font-weight="700" transform="translate(1.20679 25.59842)">{value}</text></svg>