<svg xmlns="http://www.w3.org/2000/svg" id="Icon" viewBox="0 0 30 40"><defs /><path d="M13.5332,39.5a3.00653,3.00653,0,0,0-.63086-1.85156A3.5974,3.5974,0,0,0,10.00732,36.5c-1.19482-.0166-2.31689-.02246-3.28173-.02246-1.93116,0-3.23438.02246-3.23438.02246h0a3.35948,3.35948,0,0,1-2.18408-.86133A3.1619,3.1619,0,0,1,.5,33.30176C.5127,30.44141.502,4.45117.5.5h29c-.002,3.95117-.0127,29.94141,0,32.80176a3.1637,3.1637,0,0,1-.80664,2.33691A3.36135,3.36135,0,0,1,26.51465,36.5c-.00586,0-1.3086-.02246-3.24024-.02246-.96484,0-2.08691.00586-3.28173.02246a3.5974,3.5974,0,0,0-2.895,1.14844A3.00653,3.00653,0,0,0,16.4668,39.5Z" fill="#0aa98b" /><path d="M28.99957,1C28.99737,6.26127,28.988,30.54357,29,33.30436a2.68883,2.68883,0,0,1-.66139,1.9814,2.81838,2.81838,0,0,1-1.82121.71439s-1.3065-.02286-3.243-.02286c-.96712,0-2.09167.00571-3.28879.02281a4.06855,4.06855,0,0,0-3.27637,1.33337A3.35642,3.35642,0,0,0,16.00313,39H13.99684a3.35655,3.35655,0,0,0-.70617-1.66653,4.06856,4.06856,0,0,0-3.27638-1.33337c-1.19734-.0171-2.32155-.02281-3.28878-.02281-1.9332,0-3.239.02279-3.24054.02282a2.81859,2.81859,0,0,1-1.82354-.71434A2.68884,2.68884,0,0,1,1,33.30436C1.01208,30.54357,1.00267,6.26127,1.00047,1h27.9991M30,0H0S.01363,30.18381,0,33.3A3.41733,3.41733,0,0,0,3.485,37.00011L3.5,37s1.29975-.02271,3.22548-.02271c.963,0,2.08236.00568,3.2745.02271,3.576.05109,3,3,3,3h4s-.576-2.94891,3-3c1.19192-.017,2.31158-.02271,3.2745-.02271,1.926,0,3.22548.02271,3.22548.02271l.01506.00011A3.41736,3.41736,0,0,0,30,33.3C29.98641,30.18381,30,0,30,0Z" fill="#fff" /><line fill="#0aa98b" stroke="#fff" stroke-miterlimit="10" x1="0.5" x2="29.5" y1="10.5" y2="10.5" /><text fill="#fff" font-family="AudiTypeDisplayHigh-Bold, Audi Type Display High" font-size="13px" font-weight="700" isolation="isolate" transform="translate(1.42714 28.04339)">{value}</text><path d="M14.99975,2a4.354,4.354,0,0,1,.54295.63019A1.94033,1.94033,0,0,1,15.862,4.44655a5.14411,5.14411,0,0,0-.63247,2.33479h.32488a1.82052,1.82052,0,0,1,1.05916-1.86569A.94446.94446,0,1,1,16.90515,6.765a.47646.47646,0,0,0-.13245-.66066l-.00313-.00206a.54953.54953,0,0,0-.508.0216.80046.80046,0,0,0-.31881.65746l.56078-.00081v.5636L15.33962,7.3436a.73334.73334,0,0,0,.51769.65138.56388.56388,0,0,1-.51.35417A1.043,1.043,0,0,1,14.99988,9a1.04411,1.04411,0,0,1-.34768-.65085.56353.56353,0,0,1-.50988-.35417A.7335.7335,0,0,0,14.66,7.3436l-1.16368.00053-.00011-.56364.56078.0008a.80013.80013,0,0,0-.31894-.65745.54932.54932,0,0,0-.50784-.0216.4766.4766,0,0,0-.13762.65981l.00192.00291a.94445.94445,0,1,1,.29153-1.84936,1.82083,1.82083,0,0,1,1.05916,1.8657H14.77a5.14149,5.14149,0,0,0-.6322-2.33479,1.93892,1.93892,0,0,1,.31943-1.81632A4.30883,4.30883,0,0,1,14.99975,2Z" fill="#fff" id="path19" /><path d="M5.99974,1.90624a4.47008,4.47008,0,0,1,.55751.64708,1.99236,1.99236,0,0,1,.3279,1.865,5.28181,5.28181,0,0,0-.64943,2.39737h.33359A1.8693,1.8693,0,0,1,7.65686,4.9a.96977.96977,0,1,1,.29935,1.89892.48923.48923,0,0,0-.136-.67837L7.817,6.11842a.56427.56427,0,0,0-.52159.02218.82193.82193,0,0,0-.32735.67508l.57581-.00083v.57871L6.34872,7.393a.753.753,0,0,0,.53157.66884.579.579,0,0,1-.52367.36367,1.07106,1.07106,0,0,1-.35674.66829,1.07209,1.07209,0,0,1-.357-.66829.57861.57861,0,0,1-.52354-.36367A.75318.75318,0,0,0,5.65092,7.393l-1.19487.00055-.00011-.57875.57581.00083a.8216.8216,0,0,0-.32749-.67508.564.564,0,0,0-.52145-.02218.48936.48936,0,0,0-.14131.67749l.002.003a.96976.96976,0,1,1,.29934-1.89892,1.86962,1.86962,0,0,1,1.08755,1.9157h.33345a5.27928,5.27928,0,0,0-.64915-2.39737,1.99088,1.99088,0,0,1,.328-1.865,4.42343,4.42343,0,0,1,.55709-.64708Z" data-name="path19" fill="#fff" id="path19-2" /><path d="M23.99974,1.90624a4.47008,4.47008,0,0,1,.55751.64708,1.99236,1.99236,0,0,1,.3279,1.865,5.28181,5.28181,0,0,0-.64943,2.39737h.33359A1.8693,1.8693,0,0,1,25.65686,4.9a.96977.96977,0,1,1,.29935,1.89892.48923.48923,0,0,0-.136-.67837L25.817,6.11842a.56427.56427,0,0,0-.52159.02218.82193.82193,0,0,0-.32735.67508l.57581-.00083v.57871L24.34872,7.393a.753.753,0,0,0,.53157.66884.579.579,0,0,1-.52367.36367,1.07106,1.07106,0,0,1-.35674.66829,1.07209,1.07209,0,0,1-.357-.66829.57861.57861,0,0,1-.52354-.36367.75318.75318,0,0,0,.53158-.66884l-1.19487.00055-.00011-.57875.57581.00083a.8216.8216,0,0,0-.32749-.67508.564.564,0,0,0-.52145-.02218.48936.48936,0,0,0-.14131.67749l.002.003a.96976.96976,0,1,1,.29934-1.89892,1.86962,1.86962,0,0,1,1.08755,1.9157h.33345a5.27928,5.27928,0,0,0-.64915-2.39737,1.99088,1.99088,0,0,1,.328-1.865,4.42343,4.42343,0,0,1,.55709-.64708Z" data-name="path19" fill="#fff" id="path19-3" /></svg>