<svg xmlns="http://www.w3.org/2000/svg" viewBox="0 0 39 38"><g id="ri_shield_white_blue_1dig"><g id="Schild"><path d="M19.50415,36.51726c-1.68652-1.95508-5.78711-3.45215-10.084-5.02149C5.761,30.15984.75024,28.33073.75024,26.945V2.98015A2.22789,2.22789,0,0,1,2.971.75017H36.02954a2.22788,2.22788,0,0,1,2.2207,2.23V26.945c0,1.38574-4.99609,3.21-8.64453,4.542C25.30688,33.05632,21.20532,34.55437,19.50415,36.51726Z" fill="#fff" fill-rule="evenodd" /><path d="M36.0293,1.5A1.4771,1.4771,0,0,1,37.5,2.98006V26.90235c-.44983,1.06843-5.26611,2.82683-8.15173,3.88033-4.12342,1.50547-7.83326,2.86-9.84351,4.66448-2.00146-1.79823-5.70837-3.15146-9.82764-4.65532C6.78357,29.73544,1.95422,27.9723,1.5,26.90142V2.98006A1.477,1.477,0,0,1,2.97058,1.5H36.0293m0-1.5H2.97058A2.9841,2.9841,0,0,0,0,2.98006v23.965C0,30.8038,18.30054,33.55067,19.5,38c1.269-4.47434,19.5-7.1962,19.5-11.055V2.98006A2.98412,2.98412,0,0,0,36.0293,0Z" fill="#1f4aff" /></g><text fill="#1f4aff" font-family="AudiTypeDisplayHigh-Bold, Audi Type Display High" font-size="20" font-weight="700" id="Text" transform="translate(12.5387 22.77621)">{value}</text></g></svg>