<svg xmlns="http://www.w3.org/2000/svg" id="Icon" viewBox="0 0 46 46"><defs /><g id="g1891"><rect height="46" rx="2" width="46" /><path d="M45.04171,23a22.04169,22.04169,0,0,1-44.08337.01718V23a22.04169,22.04169,0,0,1,44.08337-.01719Z" fill="#fff" id="path2140" /><path d="M23,6.46875A16.53125,16.53125,0,1,0,39.53125,23,16.53728,16.53728,0,0,0,23,6.46875Zm0,1.19792A15.33333,15.33333,0,1,1,7.66667,23,15.33892,15.33892,0,0,1,23,7.66667Z" fill="red" id="path2144" /><rect fill="red" height="1.19792" id="rect2151" width="4.07292" x="3.25833" y="26.35417" /><rect fill="red" height="1.19792" id="rect2153" width="4.79167" x="1.91667" y="23.71875" /><rect fill="red" height="1.19792" id="rect2155" width="4.79167" x="1.91667" y="21.08333" /><rect fill="red" height="1.19792" id="rect2157" width="4.07292" x="3.25833" y="18.44792" /><rect fill="red" height="1.19792" id="rect1919" width="4.07292" x="38.66875" y="18.44792" /><rect fill="red" height="1.19792" id="rect1921" width="4.79167" x="39.29167" y="21.08333" /><rect fill="red" height="1.19792" id="rect1923" width="4.79167" x="39.29167" y="23.71875" /><rect fill="red" height="1.19792" id="rect1925" width="4.07292" x="38.66875" y="26.35417" /><rect fill="red" height="4.07292" id="rect1931" width="1.19792" x="18.44792" y="3.25833" /><rect fill="red" height="4.79167" id="rect1933" width="1.19792" x="21.08333" y="1.91667" /><rect fill="red" height="4.79167" id="rect1935" width="1.19792" x="23.71875" y="1.91667" /><rect fill="red" height="4.07292" id="rect1937" width="1.19792" x="26.35417" y="3.25833" /><rect fill="red" height="4.07292" id="rect1943" width="1.19792" x="26.35417" y="38.66875" /><rect fill="red" height="4.79167" id="rect1945" width="1.19792" x="23.71875" y="39.29167" /><rect fill="red" height="4.79167" id="rect1947" width="1.19792" x="21.08333" y="39.29167" /><rect fill="red" height="4.07292" id="rect1949" width="1.19792" x="18.44792" y="38.66875" /></g><text font-family="AudiTypeDisplayHigh-Bold, Audi Type Display High" font-size="14px" font-weight="700" id="Nummer" transform="translate(8.38306 28.06836)">{value}</text></svg>