<svg xmlns="http://www.w3.org/2000/svg" data-name="Layer 1" id="Layer_1" viewBox="0 0 50 40"><defs /><path d="M1.76393,0H48a2,2,0,0,1,2,2V38a2,2,0,0,1-2,2H2a2,2,0,0,1-2-2V1.76393A1.76393,1.76393,0,0,1,1.76393,0Z" /><rect fill="#fff" height="38" rx="2" width="48" x="1" y="1" /><polygon fill-rule="evenodd" points="14.314 27.685 14.314 33.218 13.296 33.218 13.296 27.685 11.826 27.685 11.826 26.782 15.803 26.782 15.803 27.685 14.314 27.685" /><polygon fill-rule="evenodd" points="17.139 33.218 17.139 26.782 20.934 26.782 20.934 27.8 18.158 27.8 18.158 29.376 20.031 29.376 20.031 30.413 18.158 30.413 18.158 32.181 21.135 32.181 21.135 33.218 17.139 33.218" /><polygon fill-rule="evenodd" points="25.372 33.218 24.335 31.076 23.297 33.218 22.145 33.218 23.749 29.894 22.26 26.782 23.413 26.782 24.335 28.703 25.257 26.782 26.41 26.782 24.902 29.894 26.525 33.218 25.372 33.218" /><path d="M31.7982,33.21808l-.63406-1.80593H29.15649l-.634,1.80593H27.437l2.219-6.43606h1.0086l2.219,6.43606Zm-1.62344-4.64935-.66284,1.80592h1.28723Z" fill-rule="evenodd" /><path d="M38.17352,31.36414a2.02128,2.02128,0,0,1-.16327.81644,1.86207,1.86207,0,0,1-1.09995,1.023,2.26489,2.26489,0,0,1-.77322.1297,2.29743,2.29743,0,0,1-1.42659-.44667,2.94444,2.94444,0,0,1-.91736-1.18642l.97026-.35543a1.619,1.619,0,0,0,.55715.70617,1.40409,1.40409,0,0,0,.81654.245.98042.98042,0,0,0,.7252-.27385.91963.91963,0,0,0,.27375-.67728.783.783,0,0,0-.16805-.5187,1.39471,1.39471,0,0,0-.43712-.341,3.99427,3.99427,0,0,0-.59072-.245q-.32179-.10573-.63883-.23061-.144-.05753-.35543-.16327a1.70032,1.70032,0,0,1-.40832-.293,1.65917,1.65917,0,0,1-.3361-.4659,1.51371,1.51371,0,0,1-.13937-.68207,1.89718,1.89718,0,0,1,.15371-.8021,1.436,1.436,0,0,1,.41789-.53792,1.71676,1.71676,0,0,1,.63405-.30263,3.18542,3.18542,0,0,1,.802-.096,1.79689,1.79689,0,0,1,1.13841.35542,2.22778,2.22778,0,0,1,.69651.9606l-.90311.26906a1.06449,1.06449,0,0,0-.20162-.27863,1.01031,1.01031,0,0,0-.29307-.19215,1.18841,1.18841,0,0,0-.45624-.096,1.55174,1.55174,0,0,0-.36031.024.97192.97192,0,0,0-.33132.12.65034.65034,0,0,0-.23061.23539.617.617,0,0,0-.06724.36987.56047.56047,0,0,0,.2594.45624,2.49244,2.49244,0,0,0,.58593.27375q.34591.11535.74453.23539a2.71451,2.71451,0,0,1,.73486.34586,1.86,1.86,0,0,1,.56193.60507A1.97222,1.97222,0,0,1,38.17352,31.36414Z" fill-rule="evenodd" /><text font-family="AudiTypeDisplayHigh-Bold, Audi Type Display High" font-size="22px" font-weight="700" transform="translate(2.03028 21.66667)">{value}</text></svg>