<svg xmlns="http://www.w3.org/2000/svg" data-name="Layer 1" id="Layer_1" viewBox="0 0 52 37"><defs /><rect fill="#006b54" height="37" rx="2" width="52" /><path d="M2.16667,23.89583A14.49381,14.49381,0,0,1,7.58333,13H44.41667a14.49381,14.49381,0,0,1,5.41666,10.89583A14.91015,14.91015,0,0,1,44.41667,35H7.58333A14.91015,14.91015,0,0,1,2.16667,23.89583Z" fill="#fff" /><rect fill="#fff" height="9" rx="1.94666" width="48" x="2" y="2" /><polygon fill="#006b54" fill-rule="evenodd" points="9.389 9.477 8.548 9.477 6.6 3.523 7.718 3.523 8.986 7.389 10.265 3.523 11.372 3.523 9.389 9.477" /><polygon fill="#006b54" fill-rule="evenodd" points="12.444 9.477 12.444 3.523 16.075 3.523 16.075 4.359 13.551 4.359 13.551 5.86 15.153 5.86 15.153 6.678 13.551 6.678 13.551 8.641 16.375 8.641 16.375 9.477 12.444 9.477" /><path d="M20.88184,9.47672l-1.02594-2.799H18.79541v2.799H17.68872V3.52332H19.9942a2.787,2.787,0,0,1,.82422.11551,2.078,2.078,0,0,1,.64557.31988,1.36989,1.36989,0,0,1,.415.502,1.47963,1.47963,0,0,1,.1441.65308,1.47965,1.47965,0,0,1-.27667.90638,1.51535,1.51535,0,0,1-.83.5331l1.10669,2.92341Zm.05761-4.36289a.64972.64972,0,0,0-.27661-.55089,1.19287,1.19287,0,0,0-.72626-.20437H18.79541V5.86024h1.14117a1.23833,1.23833,0,0,0,.74353-.19106A.6469.6469,0,0,0,20.93945,5.11383Z" fill="#006b54" fill-rule="evenodd" /><polygon fill="#006b54" fill-rule="evenodd" points="27.314 9.477 27.314 6.136 25.885 9.477 24.444 6.136 24.444 9.477 23.337 9.477 23.337 3.523 24.444 3.523 25.885 6.864 27.314 3.523 28.432 3.523 28.432 9.477 27.314 9.477" /><path d="M34.50122,6.49115a5.92786,5.92786,0,0,1-.0979,1.164,3.07223,3.07223,0,0,1-.34009.90633,1.8933,1.8933,0,0,1-.72046.77747,2.191,2.191,0,0,1-1.08935.24436,2.27034,2.27034,0,0,1-1.1239-.24436,1.89167,1.89167,0,0,1-.72046-.77747,3.18746,3.18746,0,0,1-.34009-.9108,5.84844,5.84844,0,0,1-.098-1.15955,5.93269,5.93269,0,0,1,.098-1.15959,3.06143,3.06143,0,0,1,.34009-.9108,1.90076,1.90076,0,0,1,.73193-.76862,2.31458,2.31458,0,0,1,1.11243-.23547,2.25213,2.25213,0,0,1,1.09509.23547,1.827,1.827,0,0,1,.71472.78641,4.54713,4.54713,0,0,1,.20166.44427,3.01373,3.01373,0,0,1,.13843.46653,4.16311,4.16311,0,0,1,.07483.52421Q34.50122,6.15352,34.50122,6.49115Zm-1.06055,0q0-.24884-.01721-.45321-.01738-.20437-.04614-.3776a2.93464,2.93464,0,0,0-.07495-.33324q-.046-.15993-.10376-.31988a1.29818,1.29818,0,0,0-.37464-.57761.89215.89215,0,0,0-.57055-.17765.98141.98141,0,0,0-.97986.73747,2.9611,2.9611,0,0,0-.19019.67975,5.73417,5.73417,0,0,0-.05188.83971q0,.24.01734.43985.01721.19993.04614.37319a3.456,3.456,0,0,0,.07483.34213q.04614.16881.10376.34651a.9814.9814,0,0,0,.97986.73752.89189.89189,0,0,0,.57055-.1777,1.29915,1.29915,0,0,0,.37464-.55982q.06921-.1777.11535-.34209a3.12049,3.12049,0,0,0,.075-.34208,3.705,3.705,0,0,0,.04028-.37766Q33.44073,6.74882,33.44067,6.49115Z" fill="#006b54" fill-rule="evenodd" /><polygon fill="#006b54" fill-rule="evenodd" points="39.539 9.477 37.153 5.487 37.153 9.477 36.046 9.477 36.046 3.523 37.153 3.523 39.274 7.095 39.274 3.523 40.38 3.523 40.38 9.477 39.539 9.477" /><polygon fill="#006b54" fill-rule="evenodd" points="43.994 4.314 43.994 9.477 42.876 9.477 42.876 4.314 41.469 4.314 41.469 3.523 45.4 3.523 45.4 4.314 43.994 4.314" /><text fill="#006b54" font-family="AudiTypeDisplayHigh-Bold, Audi Type Display High" font-size="21px" font-weight="700" transform="translate(4.07433 31.75418)">{value}</text></svg>