<svg xmlns="http://www.w3.org/2000/svg" viewBox="0 0 64 35"><g fill-rule="evenodd"><path d="m0 3.66a3.54 3.54 0 0 1 1.08-2.55 3.57 3.57 0 0 1 2.58-1.1h56.6a3.69 3.69 0 0 1 3.69 3.69v27.6a3.68 3.68 0 0 1-3.72 3.72h-56.6a3.62 3.62 0 0 1-2.59-1.1 3.68 3.68 0 0 1-1.07-2.61z" fill="#e52421" /><path d="m3.67 34a2.61 2.61 0 0 1-1.88-0.796 2.68 2.68 0 0 1-0.79-1.91v-27.6a2.55 2.55 0 0 1 0.796-1.85 2.57 2.57 0 0 1 1.86-0.804h56.6a2.69 2.69 0 0 1 2.69 2.69v27.6a2.68 2.68 0 0 1-2.72 2.72z" fill="#fff" /><path d="m2.03 6.16a0.736 0.736 0 0 1 0.232-0.484 0.655 0.655 0 0 1 0.471-0.201l29.3-2.98 29.4 2.98a0.651 0.651 0 0 1 0.469 0.2 0.744 0.744 0 0 1 0.157 0.519v22.7a0.594 0.594 0 0 1-0.607 0.662l-29.4 2.92-29.3-2.92a0.705 0.705 0 0 1-0.508-0.216 0.793 0.793 0 0 1-0.248-0.522z" fill="#e52421" /></g><text fill="#fff" font-family="AudiTypeDisplayHigh-Normal, Audi Type Display High" font-size="22" text-anchor="middle" transform="translate(32 25.2)">{value}</text></svg>