<svg xmlns="http://www.w3.org/2000/svg" id="Icon" viewBox="0 0 40 40"><defs /><path d="M0,23V2A2,2,0,0,1,2,0H38a2,2,0,0,1,2,2V23c-.027,3.04695-.14227,5.8452-1.84375,8.4653-3.36643,5.32412-10.54192,8.47-17.63758,8.52869L20,40l-.51867-.006c-7.09566-.05867-14.27115-3.20457-17.63758-8.52869C.14227,28.8452.027,26.047,0,23Z" fill="#fff" id="path4603" /><path d="M2.6917.74732A1.64461,1.64461,0,0,0,.91756,2.23264v.52218H.91479v22.3748c0,7.5521,8.41766,13.90628,19.08883,13.90628,10.67054,0,19.05511-6.35522,19.05511-13.90628V13.93628h.00277V2.232A1.64729,1.64729,0,0,0,37.28461.74667H2.6916Z" fill="#008d61" id="path3011" /><path d="M27.85082,2.09339a.83851.83851,0,0,0-.23285.03481c-.67636.19434-.56183.89966-.64313,1.13256-.27057-.12655-.57159-.96212-1.42764-.557s-.18574,1.36932-.18574,1.36932-.30156-.28971-.84548.058-.22731.45952-.22731.45952-.98766-.1509-1.253.18566a.66111.66111,0,0,0,.15524.90515,1.47059,1.47059,0,0,1,.34651.311s-1.10236-.05035-1.15044.57788.83439.7682.83439.7682-.68237.25228-.65421.66143.44524.386.44908.48969c.00884.23938.00876.19321-.10534.39918-.12209.22038-.25555.1248-.36592.54307s.33.72553.4269.86564-.25721.85822.56274.84946c.81994-.00883.758-.34133,1.11434-.49666.573-.04433.62457-.28732.80668-.376a2.85268,2.85268,0,0,1-.23285.42007c-.093.165-.10807.5084.39641.55467a.90613.90613,0,0,0,.72351-.1787,11.20609,11.20609,0,0,1-.06653,2.49251s.04942.21665-.51839.37365H19.576a.47074.47074,0,0,1-.32711-.37365,5.475,5.475,0,0,1-.01108-1.26252.36039.36039,0,0,0,.16355-.06962s.39688.25934.67085.10443.10811-.52914.10811-.52914.61233.07772.79837-.10212c.18628-.17972-.09935-.629-.09935-.629.04975-.19622-.24136-.63306-.23009-.76353.05453-.05378.575.411.93692.376s.45977-.0529.693-.47344-.2384-.94689-.2384-.94689.40638-.374.34651-.64751-.65145-.66607-.65145-.66607a.66518.66518,0,0,0-.06375-.80764,2.7784,2.7784,0,0,0-1.14787-.59636s.91927-.75209.7152-1.26252a.83046.83046,0,0,0-.82331-.45487s-.22269-.6218-.66807-.7357a.91343.91343,0,0,0-.80113.246A1.39551,1.39551,0,0,0,17.88519,4.043c-.5338.13227-.51838.94689-.51838.94689a3.30369,3.30369,0,0,0-.45463.35044,4.4981,4.4981,0,0,0-.2578.50826c-.21673-.004-.29653-.14774-.28275-.38525,0,0,.40661-.44105.34651-.71945s.0155-.55583-.54056-.70088-1.31952,1.19285-1.31952,1.19285-.26541-.93627-.9952-.85866c-.72978.07754-.485.95239-.43245,1.20912-.034.25678-.02883.15549-.17187.1671s-.1818-.16052-.19682-.27153.37488-.962-.2578-1.1581c-.63268-.19608-1.386.82391-1.386.82391s-.27789-.99168-.973-.98172-.92867,1.03511-.92867,1.03511-.98864-.09794-1.30009.27153.4768,1.16509.4768,1.16509-.73389-.2865-1.12551.08819.20513,1.00028.20513,1.00028a4.923,4.923,0,0,0-.67362.42006c-.18806.16-.41232.892.01386,1.06059.35467.14029.74126.22985.87322.14389-.05867.09361-.20816.331-.341.50362a.71462.71462,0,0,0,.12752.79835.74038.74038,0,0,0,.693.17638,2.054,2.054,0,0,1,.35761-.11371.12059.12059,0,0,1,.01108.18335.64288.64288,0,0,0-.08593.52682c.041.19957.05556.4577.65976.45488a.94436.94436,0,0,0,.83162-.4131,1.31876,1.31876,0,0,0,.36869.07194.65258.65258,0,0,0,.29106-.10676,15.21369,15.21369,0,0,1,.04435,2.13054.40443.40443,0,0,1-.2578.37365H1.98162V25.13c0,6.99547,7.85419,13.01732,18.02168,13.01732S37.99393,32.12634,37.99393,25.13V13.93664H29.6028c-.30406-.04651-.55727-.08184-.59877-.37365a7.09393,7.09393,0,0,1-.01941-2.8267s.1481-.06855.39918.11371.25547.75551,1.375.46648-.04741-1.16887.13306-1.26252c.23332.10576.42547.81775,1.34444.69625.8365-.20315.31343-.83564.26335-1.46675s-.78727-.74266-.78727-.74266,1.41434.0604,1.41656-.65215c.00216-.71254-.46091-.68336-1.38605-.84009.4863-.21716.89408-.45276.91759-.76583a.14919.14919,0,0,0,.02772-.181c-.02009-.05905-.21489.00847-.2578-.0557s.06549-.26014.00831-.32491-.31414-.01573-.377-.07659.04323-.11957-.02218-.21583c-.04256-.06263.03513-.2166-.11088-.2344s-.1303-.23208-.1303-.23208.15968-.67006-.09147-.977-1.33122-.07279-1.26407-.22976c.30011-.70115-.00761-1.13018-.32433-1.27878s-.96469.15085-.96469.15085-.06158-.09587-.29662-.0998a.49108.49108,0,0,0-.33542.09051.76868.76868,0,0,0-.67084-.5245Zm-14.814,8.75891c-.00754.10647-.03494.62291.13306.7821a.65706.65706,0,0,0,.67085.15781,2.67855,2.67855,0,0,0,.79-.48969,16.91965,16.91965,0,0,1-.01109,2.2605.46207.46207,0,0,1-.2883.37365h-1.8074a.498.498,0,0,1-.19682-.37365,20.40388,20.40388,0,0,1-.15247-2.33239s.11834.14226.499-.01625c.28548-.11887.34893-.28578.36315-.362Zm2.99936.5013s.1393.4865.44353.52682.73738-.50826.73738-.50826.12218.55581.32433.64751a.74319.74319,0,0,0,.51838-.06962,8.87747,8.87747,0,0,1-.02218,1.613c.016.207-.16939.303-.32156.37364H16.03893a.67691.67691,0,0,1-.18573-.37364,10.37444,10.37444,0,0,1-.10812-2.17458.64184.64184,0,0,0,.29107-.03481Z" data-name="3245234" fill="#fff" id="_3245234" /><text font-family="AudiTypeDisplayHigh-Bold, Audi Type Display High" font-size="16px" font-weight="700" isolation="isolate" transform="translate(3.29516 29.97621)">{value}</text></svg>