<svg xmlns="http://www.w3.org/2000/svg" viewBox="0 0 50.00004 36"><g id="ri_southafrica_provincial_2dig"><g id="Schild"><polygon fill="#578d87" fill-rule="evenodd" points="1.283 18 25 0.924 48.717 18 25 35.076 1.283 18" /><path d="M25,1.84835,47.43286,18,25,34.15165,2.56714,18,25,1.84835M25,0,0,18,25,36,50,18,25,0Z" fill="#fff" /><path d="M27.97494,11.013s-1.8841-1.8469-1.9696-1.8859a2.10159,2.10159,0,0,0,.5072-.2052,1.50415,1.50415,0,0,0,.3939-.3205,1.42124,1.42124,0,0,0,.2556-.4331,1.53547,1.53547,0,0,0,.0922-.5449,1.60292,1.60292,0,0,0-.1484-.7106,1.32627,1.32627,0,0,0-.434-.5064,2.02726,2.02726,0,0,0-.7056-.3031,4.16246,4.16246,0,0,0-.9652-.1007h-1.6426V11.013l1.1161.0022V9.631h.0508q.1122,0,.1974.0053c.0568.0035.0218.0095.0659.018a.59274.59274,0,0,1,.1192.0352.53671.53671,0,0,1,.1033.0584.74608.74608,0,0,1,.0992.0869q.049.051.1092.1184l.9387,1.0598Zm-3.5004-2.6239V7.1486h.4123a1.96378,1.96378,0,0,1,.7089.1486.568.568,0,0,1,.2226.1849.45193.45193,0,0,1,.0741.2582.54079.54079,0,0,1-.0721.2818.5699.5699,0,0,1-.2175.2031,1.19937,1.19937,0,0,1-.3669.1228,1.23318,1.23318,0,0,1-.3491.0411Z" fill="#dfd933" /></g><text fill="#dfd933" font-family="AudiTypeDisplayHigh-Bold, Audi Type Display High" font-size="18" font-weight="700" id="Text" transform="translate(12.4714 26.05502)">{value}</text></g></svg>