<svg xmlns="http://www.w3.org/2000/svg" viewBox="0 0 64 35">
<g id="ri_rectangle_white_black_3dig">
<g id="Schild">
<path d="M3.669,34.25a2.86453,2.86453,0,0,1-2.0586-.87109A3.018,3.018,0,0,1,.75,31.25586V3.771a3.03937,3.03937,0,0,1,.86768-2.14209A2.895,2.895,0,0,1,3.6958.75H60.34424a2.85523,2.85523,0,0,1,2.05029.86768A3.00189,3.00189,0,0,1,63.25,3.73V31.2793a2.99368,2.99368,0,0,1-.854,2.10742,2.84092,2.84092,0,0,1-2.04248.86328Z" fill="#fff" fill-rule="evenodd" />
<path d="M60.34424,1.5a2.10892,2.10892,0,0,1,1.51343.64178A2.25479,2.25479,0,0,1,62.5,3.73014V31.27946a2.24539,2.24539,0,0,1-.64014,1.582A2.09531,2.09531,0,0,1,60.35352,33.5H3.6687a2.11772,2.11772,0,0,1-1.52246-.64649A2.26682,2.26682,0,0,1,1.5,31.256V3.77075a2.29478,2.29478,0,0,1,.65283-1.61633A2.14862,2.14862,0,0,1,3.69556,1.5H60.34424m0-1.5H3.69556A3.65033,3.65033,0,0,0,1.082,1.10409,3.7988,3.7988,0,0,0,0,3.77075V31.256a3.77192,3.77192,0,0,0,1.075,2.64746A3.61768,3.61768,0,0,0,3.6687,35H60.35352a3.59563,3.59563,0,0,0,2.57812-1.08919A3.74911,3.74911,0,0,0,64,31.27946V3.73014a3.75971,3.75971,0,0,0-1.07056-2.63775A3.61,3.61,0,0,0,60.34424,0Z" />
</g>
<text font-family="AudiTypeDisplayHigh-Normal, Audi Type Display High" font-size="22" id="Text" text-anchor="middle" transform="translate(32 25.22952)">{value}</text>
</g>
</svg>