<svg xmlns="http://www.w3.org/2000/svg" viewBox="0 0 32 34"><g id="ri_india_national_2dig"><g id="Schild"><path d="M16.01025,33.24979C6.83643,33.24979.75049,29.243.75049,26.59256V3.62527a.61956.61956,0,0,1,.0166-.15966l.00684.00048c.01953,0,.07226-.00927.15918-.00927l12.584.05078,2.49316-2.45508L18.50342,3.5076l12.56738-.064a.60293.60293,0,0,1,.17285.01954c-.0039.01269.00684.06152.00684.14941V26.57986C31.25049,29.23514,25.17236,33.24979,16.01025,33.24979Z" fill="#f9f60b" fill-rule="evenodd" /><path d="M16.01025,2.10507l1.74659,1.71982.44116.43427.61889-.00314L30.5,4.19729V26.5795c0,2.03287-5.64282,5.9205-14.48975,5.9205C7.15088,32.5,1.5,28.62084,1.5,26.59239L1.50024,4.209l11.70484.047.61816.00248.44043-.43363,1.74658-1.71981m0-2.10507L13.21118,2.756.93311,2.70671A.81492.81492,0,0,0,0,3.62539v22.967C0,29.79218,6.5686,34,16.01025,34,25.51733,34,32,29.77929,32,26.5795V3.6125a.81492.81492,0,0,0-.93311-.91868L18.80933,2.756,16.01025,0Z" /><path d="M15.07921,10.94836V5.4571H13.94055v3.163q0,.07817.003.175t.01.20472q.007.108.017.22519t.024.23451q-.06205-.11538-.12407-.22892t-.12407-.21961q-.06206-.10609-.12307-.20286t-.11907-.17681l-1.797-3.17416H10.47054v5.49126H11.6092V7.76025q0-.07629-.005-.17215t-.013-.20473q-.008-.10887-.019-.22705c-.00735-.07878-.015-.129-.023-.20846.08406.15884.16776.28011.25115.42156s.16441.26677.24315.37594l1.797,3.203Z" /><polygon points="21.534 10.948 21.534 5.457 20.364 5.457 20.364 7.653 18.132 7.653 18.132 5.457 16.962 5.457 16.962 10.948 18.132 10.948 18.132 8.568 20.364 8.568 20.364 10.948 21.534 10.948" /></g><text font-family="AudiTypeDisplayHigh-Bold, Audi Type Display High" font-size="18.45589" font-weight="700" id="Text" transform="translate(3.16394 27.03801)">{value}</text></g></svg>