<svg xmlns="http://www.w3.org/2000/svg" id="Icon" viewBox="0 0 29 40"><defs /><rect fill="#fff" height="39" rx="1.5" width="28" x="0.5" y="0.5" /><path d="M27,1a1.00113,1.00113,0,0,1,1,1V38a1.00113,1.00113,0,0,1-1,1H2a1.00113,1.00113,0,0,1-1-1V2A1.00113,1.00113,0,0,1,2,1H27m0-1H2A2,2,0,0,0,0,2V38a2,2,0,0,0,2,2H27a2,2,0,0,0,2-2V2a2,2,0,0,0-2-2Z" fill="#0608a6" /><path d="M2,24V36a2,2,0,0,0,2,2H25a2,2,0,0,0,2-2V24Z" fill="#0608a6" /><path d="M27,17V4a2,2,0,0,0-2-2H4A2,2,0,0,0,2,4V17Z" fill="#0608a6" /><text fill="#fff" font-family="AudiTypeDisplayHigh-Bold, Audi Type Display High" font-size="12px" font-weight="700" isolation="isolate" transform="translate(1.97081 35.42114)">{value}</text><path d="M9.11052,23,7.16567,20.0992c-.06688-.09879-.13686-.213-.20786-.34061q-.108-.19293-.21609-.40852c.0072.072.01337.14406.01955.21507.00617.072.01235.13994.01646.2058.00515.06586.00823.1276.01132.18522.00309.05866.00412.11011.00412.15641V23H5.8156V18h1.062l1.94484,2.90183c.03293.04837.06689.10085.10187.1595s.07.11937.106.18419c.035.0638.071.12966.106.1986.036.06895.071.13789.107.20684-.00823-.07-.01544-.141-.02161-.212-.00514-.071-.01029-.13892-.01441-.20375S9.20107,21.10764,9.199,21.05c-.00206-.05865-.00308-.11113-.00308-.15847V18h.97756v5Z" fill="#0608a6" /><path d="M16.06256,23l-.90965-3.15394c-.01235-.036-.02469-.07615-.037-.11937-.01235-.04425-.0247-.09158-.037-.143-.01235-.05042-.02572-.10393-.03807-.16053-.01338-.05659-.02676-.11422-.0391-.1739-.01235.05968-.02573.11731-.03808.1739-.01337.0566-.02675.11011-.0391.16053-.01235.05145-.0247.09878-.036.143-.01131.04322-.02263.08335-.03292.11937L13.949,23H12.8191l-1.62894-5h1.08356l.93846,3.23215c.01235.04013.0247.08746.03705.13994.01338.05351.02675.11217.04013.17391.01338.06277.02573.12862.0391.19757s.02676.13789.03911.2058c.0144-.06791.02984-.13686.04527-.2058s.03087-.1348.04631-.19757c.01543-.06174.03087-.1204.04425-.17391.0144-.05453.02778-.10187.0391-.142L14.49743,18H15.5141l.95493,3.23009c.01132.04013.02469.08747.0391.142.01441.05351.02881.11217.04425.17391q.02315.09416.0463.19757c.01544.06894.02984.13789.04425.2058.01132-.06791.02367-.13686.036-.2058s.02572-.1348.03807-.19757c.01338-.06174.02675-.1204.04116-.17391.01338-.05248.02676-.09981.04116-.13994L17.73575,18h1.08253l-1.62585,5Z" fill="#0608a6" /><path d="M20.74974,23V18.80263h-1.4149V18H23.1844v.80263h-1.417V23Z" fill="#0608a6" /><path d="M8.42569,14.31762c.51574.10858,1.241.43238,1.15764.93238s-1.58333.125-2.25.08333c-.68584-.04286-.75-.75-.91666-1.16666s-.1658-2.44026-.75-3.33334C5.0057,9.8229,5.1692,7.62467,6.125,6.125A6.54114,6.54114,0,0,1,10.91667,3.25c1.79324-.14282,6,1.16667,6.33333,1.25a3.57419,3.57419,0,0,0,2.1875-.5625A1.36321,1.36321,0,0,1,21.5,4.08333a6.3891,6.3891,0,0,0,1.566,1.368c.32884.17538,1.6007.96534,1.684,1.29867s-.8791.99425-1.10565,1.1a6.09779,6.09779,0,0,1-4.22768-.4333C18.049,6.795,17,8.25,17,8.25a1.31025,1.31025,0,0,0-.3125,1.125c.07906.23717.4375,1.125.4375,1.125s2.0625-.625,2.125.3125c.02827.424-1.25,1.125-2,1.25-.52633.08772-.66667-.22917-.91667-.47917s-1.52439-1.72561-1.75-1.83333c-1.02777-.49074-2.33333.27083-2.33333.6875s.57244,2.48277,1.33259,2.26558A1.211,1.211,0,0,1,15.16667,13.5c.04574.24578-1.72866.79353-2.5.58333a9.34553,9.34553,0,0,1-2.08334-2.75c-.25-.58333-1.16964-1.1846-1.5-1.08333-1.24709.3823-1.0673,2.47718-1.16666,3.41667C7.91667,13.66667,7.96783,14.22123,8.42569,14.31762Z" fill="#fff" /></svg>