<svg xmlns="http://www.w3.org/2000/svg" viewBox="0 0 40 40"><g id="ri_argentina_national_3dig"><g id="Schild"><g id="path9"><path d="M1.05616,32.374A1.50969,1.50969,0,0,1,.13477,31V2.0127A1.88049,1.88049,0,0,1,2.0127.13477H37.6001A2.26767,2.26767,0,0,1,39.86524,2.3999V31a1.49429,1.49429,0,0,1-.90088,1.35156L20,39.85449Z" fill="#fff" fill-rule="evenodd" /><path d="M37.6.27A2.13242,2.13242,0,0,1,39.73,2.4l-.00006,28.60022a1.35164,1.35164,0,0,1-.83558,1.23791L19.99991,39.70968,1.10856,32.24855A1.39336,1.39336,0,0,1,.27,31V2.01253A1.7445,1.7445,0,0,1,2.01251.27H37.6m0-.27H2.01251A2.01253,2.01253,0,0,0,0,2.01253V31a1.68446,1.68446,0,0,0,1.00629,1.5L20,40l18.99368-7.51078A1.64839,1.64839,0,0,0,39.99994,31L40,2.4A2.4,2.4,0,0,0,37.6,0Z" fill="#1f1a17" /></g><path d="M1.7002,30.94531V2.0127a.31279.31279,0,0,1,.3125-.3125H37.6001a.7006.7006,0,0,1,.69971.6997V30.92969c-.01514.00879-.03369.02051-.05713.0332l-18.24316,7.209Z" fill="#fff" fill-rule="evenodd" /><path d="M37.6001,2.2002a.19993.19993,0,0,1,.1997.1997V30.59575l-17.80053,7.039L2.2002,30.60613V2.2002H37.6001m0-1H2.0127a.81312.81312,0,0,0-.8125.8125V31.001c-.00048.12012.023.24121.31836.41113L19.99951,38.71l18.48487-7.30957c.26708-.14746.31591-.23535.31542-.40039V2.3999a1.20093,1.20093,0,0,0-1.1997-1.1997Z" fill="#1f1a17" /><rect fill="#0075a8" height="2.25" id="rect13" width="19.62262" x="20.37739" y="14.00003" /><rect fill="#fff" height="2.25" id="rect15" width="19.62262" x="20.37739" y="11.75004" /><rect fill="#0075a8" height="2.25" id="rect17" width="19.62262" x="20.37739" y="9.50004" /><rect fill="#1f1a17" height="1" id="rect19" width="40" y="8.50004" /><rect fill="#1f1a17" height="1" id="rect21" width="40" y="16.25003" /><rect fill="#fff" height="6.74998" width="4" x="0.53125" y="9.50004" /><rect fill="#1f1a17" height="6.74998" id="rect23" width="1.00629" x="19.49686" y="9.50004" /><path d="M4.088,15.9053V9.84457H5.942a2.303,2.303,0,0,1,1.01682.16368,1.21062,1.21062,0,0,1,.50037.56588,2.1851,2.1851,0,0,1,.19566.96519,1.98345,1.98345,0,0,1-.29847,1.14583,1.30441,1.30441,0,0,1-.85082.54467,2.36,2.36,0,0,1,.46689.5066,7.39592,7.39592,0,0,1,.50532.98638l.5288,1.1825H6.95878l-.63906-1.31941a8.83305,8.83305,0,0,0-.46813-.89462.72764.72764,0,0,0-.26135-.24838,1.0638,1.0638,0,0,0-.4421-.06772H4.96605v2.53012H4.088ZM4.966,12.40715H5.62a2.90882,2.90882,0,0,0,.76165-.05928.50159.50159,0,0,0,.265-.2413,1.00445,1.00445,0,0,0,.10157-.484.93551.93551,0,0,0-.10157-.46567.53121.53121,0,0,0-.27618-.2413,3.03024,3.03024,0,0,0-.71461-.04515H4.966Z" fill="#1f1a17" fill-rule="evenodd" id="path27" /><path d="M8.47959,15.9053V14.744h.83722V15.9053Z" fill="#1f1a17" fill-rule="evenodd" id="path29" /><path d="M14.10979,15.9053h-.95734L12.771,14.52805h-1.7413l-.35918,1.37725H9.73422l1.698-6.06073h.93258l1.745,6.06073Zm-1.62116-2.39748-.59944-2.24932-.59077,2.24932h1.19021Z" fill="#1f1a17" fill-rule="evenodd" id="path31" /><path d="M14.57169,15.9053V14.744h.83722V15.9053Z" fill="#1f1a17" fill-rule="evenodd" id="path33" /><line fill="#1f1a17" stroke="#000" stroke-miterlimit="10" x1="4.27677" x2="36.22646" y1="5.22915" y2="5.22915" /></g><text font-family="AudiTypeDisplayHigh-Bold, Audi Type Display High" font-size="16" font-weight="700" transform="translate(2.97762 30.72656) scale(1.01899 1)">{value}</text></g></svg>