<svg xmlns="http://www.w3.org/2000/svg" id="Icons" viewBox="0 0 40 40"><defs /><g id="g5"><path d="M40,0V23.33333C40,35.83333,20,40,20,40S0,35.83333,0,23.33333V0Z" fill="#fff" id="path7" /><path d="M40,.06932v23.2929C40,35.84055,20.04619,40,20.04619,40S.09238,35.84055.09238,23.36222V.06932Z" fill="none" id="path9" /></g><path d="M39,23.36222C39,34.31113,22.40015,38.432,19.95381,39,17.50747,38.43182,1,34.311,1,23.36222V12H38.95381Z" fill="#003f87" id="path11" /><g id="g13"><polygon fill="#af1e2d" id="polygon15" points="1 1 39 1 39 11 1 11 1 1" /></g><path d="M20.0348,30.15043a4.47026,4.47026,0,0,1,.55751.64708,1.99235,1.99235,0,0,1,.3279,1.865,5.28186,5.28186,0,0,0-.64943,2.39737h.33359a1.86931,1.86931,0,0,1,1.08755-1.9157.96977.96977,0,1,1,.29935,1.89892.48922.48922,0,0,0-.13921-.68048.56426.56426,0,0,0-.52159.02218.82191.82191,0,0,0-.32735.67508l.57581-.00083v.57871l-1.19515-.00055a.753.753,0,0,0,.53157.66884.579.579,0,0,1-.52367.36367,1.071,1.071,0,0,1-.35674.66829,1.0721,1.0721,0,0,1-.357-.66829.57862.57862,0,0,1-.52354-.36367.75315.75315,0,0,0,.53158-.66884l-1.19487.00055L18.491,35.059l.57581.00083a.82161.82161,0,0,0-.32749-.67508.56405.56405,0,0,0-.52145-.02218.48937.48937,0,0,0-.13934.68048.96976.96976,0,1,1,.29934-1.89892,1.86961,1.86961,0,0,1,1.08755,1.9157h.33345a5.27927,5.27927,0,0,0-.64915-2.39737,1.9909,1.9909,0,0,1,.328-1.865,4.4239,4.4239,0,0,1,.55709-.64708Z" fill="#fff" id="path19" /><text fill="#fff" font-family="AudiTypeDisplayHigh-Bold, Audi Type Display High" font-size="16px" font-weight="700" isolation="isolate" transform="translate(3.29538 26.9765)">{value}</text></svg>