<svg xmlns="http://www.w3.org/2000/svg" id="Icon" viewBox="0 0 40 40"><defs /><polygon fill="#fff" points="7.42 39.5 0.595 0.5 39.405 0.5 32.58 39.5 7.42 39.5" /><path d="M38.8098,1l-6.65,38H7.8402L1.1902,1H38.8098M40,0H0L7,40H33L40,0Z" /><path d="M9.416,10.11426,7.90332,7.62891H7.88965v2.48535H7.27344V5.1582h.61621V7.36328h.01367L9.332,5.1582h.72754l-1.582,2.2959,1.6875,2.66016Z" stroke="#000" stroke-width="0.2px" /><path d="M10.7666,10.11426V5.1582h.62988v4.95606Z" stroke="#000" stroke-width="0.2px" /><path d="M14.67285,10.11426l-1.582-3.84278h-.02148v3.84278h-.58106V5.1582h.75586l1.56152,3.84961h.02051V5.1582h.58106v4.95606Z" stroke="#000" stroke-width="0.2px" /><path d="M18.0332,5.03906a1.631,1.631,0,0,1,.707.14649,1.28353,1.28353,0,0,1,.51075.44824l-.39258.42676a1.07286,1.07286,0,0,0-.35645-.33594.90354.90354,0,0,0-.4414-.11133.77715.77715,0,0,0-.49317.16113,1.27429,1.27429,0,0,0-.34668.4375,2.339,2.339,0,0,0-.20605.64356,4.28748,4.28748,0,0,0-.06641.77344,4.068,4.068,0,0,0,.07324.79492,2.3099,2.3099,0,0,0,.2168.63672,1.19827,1.19827,0,0,0,.36035.42383.86089.86089,0,0,0,.51075.15332.914.914,0,0,0,.5957-.168V7.9375h-.65137V7.39062h1.25977v2.415a1.69859,1.69859,0,0,1-.50684.291,2.04647,2.04647,0,0,1-.71094.1084,1.54745,1.54745,0,0,1-.76269-.18555A1.68585,1.68585,0,0,1,16.7627,9.498a2.4697,2.4697,0,0,1-.35743-.8125,4.21482,4.21482,0,0,1-.12207-1.05664,4.18319,4.18319,0,0,1,.11914-1.03223,2.71649,2.71649,0,0,1,.34278-.81934,1.68924,1.68924,0,0,1,.54883-.542A1.4063,1.4063,0,0,1,18.0332,5.03906Z" stroke="#000" stroke-width="0.2px" /><path d="M22.52637,8.79785a1.66833,1.66833,0,0,1-.10449.60547,1.33262,1.33262,0,0,1-.28418.45215,1.22467,1.22467,0,0,1-.42286.2793,1.4041,1.4041,0,0,1-.52539.09863,1.68071,1.68071,0,0,1-.71777-.1582,1.43218,1.43218,0,0,1-.542-.416l.37109-.45508a1.12874,1.12874,0,0,0,.40234.3291,1.09507,1.09507,0,0,0,.48633.11914.68877.68877,0,0,0,.51758-.21.84282.84282,0,0,0,.20313-.60937.81877.81877,0,0,0-.0625-.332.88794.88794,0,0,0-.17481-.25977,1.55231,1.55231,0,0,0-.25586-.21,3.22281,3.22281,0,0,0-.31152-.17871,2.85693,2.85693,0,0,1-.38184-.21973,1.7,1.7,0,0,1-.31836-.28418,1.20814,1.20814,0,0,1-.2207-.38086,1.5244,1.5244,0,0,1-.08008-.52148,1.58435,1.58435,0,0,1,.11231-.62305,1.28193,1.28193,0,0,1,.29687-.4414,1.18735,1.18735,0,0,1,.42383-.25879,1.44715,1.44715,0,0,1,.4834-.084,1.64147,1.64147,0,0,1,.63965.11914,1.17131,1.17131,0,0,1,.47265.35645l-.37793.44824a.84921.84921,0,0,0-.71386-.34961.79043.79043,0,0,0-.2627.04492.65062.65062,0,0,0-.23437.14746.72965.72965,0,0,0-.168.25489.98372.98372,0,0,0-.0625.37109.80732.80732,0,0,0,.05957.32617.85047.85047,0,0,0,.16015.24512,1.28363,1.28363,0,0,0,.23536.19531,2.74722,2.74722,0,0,0,.28613.165,3.91429,3.91429,0,0,1,.38574.2207,1.731,1.731,0,0,1,.34277.29,1.33861,1.33861,0,0,1,.24805.39551A1.36049,1.36049,0,0,1,22.52637,8.79785Z" stroke="#000" stroke-width="0.2px" /><path d="M24.35352,5.69727v4.417h-.62989v-4.417h-.94531V5.1582h2.51953v.53907Z" stroke="#000" stroke-width="0.2px" /><path d="M28.93066,7.62891a4.51942,4.51942,0,0,1-.11523,1.06054,2.65736,2.65736,0,0,1-.33594.82227,1.64837,1.64837,0,0,1-.53222.53223,1.34039,1.34039,0,0,1-.71.18945,1.35908,1.35908,0,0,1-.71386-.18945,1.64958,1.64958,0,0,1-.53614-.53223,2.6814,2.6814,0,0,1-.33593-.82227,4.5194,4.5194,0,0,1-.11524-1.06054,4.64383,4.64383,0,0,1,.11231-1.06055A2.59935,2.59935,0,0,1,25.97656,5.75a1.5817,1.5817,0,0,1,.53614-.52539,1.40907,1.40907,0,0,1,.7246-.18555,1.35594,1.35594,0,0,1,.71.18555,1.625,1.625,0,0,1,.53222.52539,2.60411,2.60411,0,0,1,.33594.81836A4.53128,4.53128,0,0,1,28.93066,7.62891Zm-.665,0a4.42367,4.42367,0,0,0-.0664-.791,2.55105,2.55105,0,0,0-.19531-.64355,1.22256,1.22256,0,0,0-.32227-.43067.67957.67957,0,0,0-.44434-.15722.7026.7026,0,0,0-.45507.15722,1.19616,1.19616,0,0,0-.32618.43067,2.47565,2.47565,0,0,0-.19238.64355,5.03689,5.03689,0,0,0,0,1.582,2.495,2.495,0,0,0,.19238.64453,1.20075,1.20075,0,0,0,.32618.42969.70346.70346,0,0,0,.45507.1582.68047.68047,0,0,0,.44434-.1582,1.2274,1.2274,0,0,0,.32227-.42969,2.57149,2.57149,0,0,0,.19531-.64453A4.42364,4.42364,0,0,0,28.26562,7.62891Z" stroke="#000" stroke-width="0.2px" /><path d="M31.99023,10.11426l-1.582-3.84278h-.02148v3.84278h-.58106V5.1582h.75586l1.56153,3.84961h.0205V5.1582h.58106v4.95606Z" stroke="#000" stroke-width="0.2px" /><text font-family="AudiTypeDisplayHigh-Bold, Audi Type Display High" font-size="14px" font-weight="700" isolation="isolate" transform="translate(5.38309 24.04335)">{value}</text></svg>