<svg xmlns="http://www.w3.org/2000/svg" id="Icon" viewBox="0 0 50 40"><defs /><rect fill="#006a4d" height="40" id="Hintergrund_gruen" rx="2" width="50" /><path d="M11.32664,3.15189l.05179.00226.41792.01675.06185.00245.04358.00261.42815.01232.04834.0018.04557.00226.07524.00239.00539.00018.11472.004.00017.00054.02963.0001.05615.00167.02382.00159.04341.00266.01267-.00009.02054,0,.00032.00031.2195.00725.00516-.0007.1437.00616.04419.0014.58644.018.11848.00379.11508.00366.00168,0,.03148.00081.06716.00173.00842.00023.009,0,.06121.00171.00186.00006.05762.00231.05625.00084.0046-.00152.05782.00216.154.00568.01391-.00008.13824.00383.34443.00989.00132-.00064.00984.00049.03721.00182.01535.00037.09.00239.09322.002.40346.00888.1954.00556.1123.00249.05027.00128.1691.00431.026.0001.13645.0042.00506-.00035.0058-.00035.0324,0,.1631.0047.03821.00253.08342.00008.04729.00068.10685.00151.0071.00132.13113.002.16593.00422.29874.00616.08093.00163.028.00192.60256.01327.03428.00072.14833.00311.26354-.00093.01764.001.031.00157.17948.002.03033.00045.08735.00132.149.00274.08966.00025.27161.0056.1068.00266.00874.0002.14108.00182.01944-.00064.02654.00058.04467.001.09823.002.01994.00027.20437.00094.03131.00184.68958.005.02357.00232.06955.0011.04846.00037.09691.00072.01944.00109.25942.0012.68843.00612.04367.00027.00017-.00038.06675.002.16877-.00282.07268.00106.32782.00459.13218.001.66238.00222.07252.00042.20733.00113L24.0198,3.401l.03527.00076.02439.00039.05587.00089.66453.00206.05027.00138.00692.00184.04862.00027.00494-.00025.59416.0034.10712,0,.05917-.00039.17948.00086.01055-.00028L26,3.41242l.08669.001.36308.00062.22711.0001.48851-.0015.238.00216.50466-.00046.00511-.00024.001.0002.0084-.00006.17025-.00128.14339-.00179.12032-.00235.34742-.004.1279-.00148.54668.00085h.01665l.23733-.00311.27129-.00375.08966-.00167.04054-.00056.19168-.00173.001,0,.15376-.002.11785-.00081.076-.0015.044-.00064.106-.00039.20272-.00345.00346,0,.04582-.00125.00609,0,.06412-.00113.5658-.01053.02753-.00066.0267-.00061.49872-.00719.18393-.00233.38863-.00521.00594-.00012.33506-.00458.28744-.00416.4061-.00624.35369-.00581.21277-.00364.14339-.00161.70886-.00878.10433-.0014.24887-.00346.35715-.0096L36.8525,3.279l.0056-.00016.05917-.00192.40857-.01351.18443-.00625.35616-.01145.1218-.0029.04631-.0014.11471-.00347.59563-.01839.39968-.01287.043-.00233.27162-.0103.18756-.00723.52789-.02074.35254-.01427.13465-.00616.0005,0,.15459-.0046.0567-.00272.00873-.00037.00314-.00012.011-.00048.70722-.0304.20157-.0089.0384-.002.47895-.02274.47614-.02395.15377-.00954.08455-.00929.478-.01732.10994-.004.00956-.00526.12014-.00576.06247-.003.44713-.02179h0l.20652-.01026.04895-.00245.02982-.00151.1902-.00957.03659-.004.00017,0,.041-.00449.33359-.01759.04631-.00247.01565-.00085.11966-.0064.118-.00554.11866-.005.119-.00412.11867-.00752.06362-.00249L45.9263,2.887l.05785-.0035.05933-.00363.07779-.00418-.00362.09228.003.05293.00247.01539-.01368.02772-.00214.01292.00247.024.00165.01477.0061.00983.00478.01.00131.00274.00083.00194-.01055.03-.00148.00438-.0028.00769-.005.02581.003.04292.00148.07675-.00165.03217-.01417.01514-.00362.10476.00609.04708-.014.05234.002.0184.00956.03439-.002.18977-.01038.03291-.005.02093.00214.04929-.01021.07529-.017.06035-.003.00506-.003.0053-.01582.02755-.034.02829-.01928.0223-.02752.05749-.03033.07623-.00428.00816-.01533.02848-.00659.01228-.0028.00326-.01451.01691-.014.01621-.03989.0344-.01318.018-.00874.02128-.00511.03157-.03246.07821-.01055.03679-.00082.01157-.003.03753-.00149.00756-.00939.0497-.05422.13688-.05637.0864-.05192.06371-.00066.00091-.003.00348-.08109.07009-.13416.09312-.18887.17405-.02918.0302-.03642.08214-.01994.03632-.13268.12622-.086.08183-.00626.00674-.1363.14457-.00165.00175-.00314.00517-.00049.00081-.00329.00562-.00544.00278-.02423.01263-.01714.0221-.00363.00626-.0234.03977-.018.05945-.0356.20855-.0028.047-.02209.05937-.0005.00123-.0051.03183.02472.03614.02538.03315.03082.04517.00231.0037.05158.078.20305.30395.017.01127.03148.03419.05488.09364.0239.05331.09575.144.02918.06521.04895.12783.00873.025.03857.11026.01186.04315.00247.03868.00627.01941.02521.05215.0117.06826.02654.08093.00824.01713.04318.0544.08273.14457.045.08822.00543.01057.004.00771.01054.01619.03758.05724.00956.01466.02505.02676.01417.0152.01352.0144.01945.00976.02884.0013.02966-.005.04681.01312.08241-.016.03906.00635.00313.00052.05423-.00314.00708.00066.03082.00291.04022.00381.00346.00161.00494.00228.08884.041.0974.07111.03511.03295.04417.02233.05456.03565.09509.04622.03643.00522.05126.016.05389.02612.08158.07534.03626.02208.07779.08159.0417.10822.0211.06669.05686.13094.00692.016.00445.04457.00494.01965.00857.01442.02868.03192.02621.06276.00626.04017.01483.01765.00247.00293.00725.03472.00446.0909.68278,18.279-.63109.033.0563.41614.14924.64849.04335.44573.01945.42678v.00021l.32781.882.0028.00371.00248.00331.02093.22945.00313.09146.01022.042.04137.15016v.00041l-.00148.1137.02627.7273-.17328,1.37942-.017.06365-.00725.035-.08323.531-.06214.16005-.0445.21957-.0399.67333.00318.53054.2176.42969.22805.39293.22851.24063.08542.25907-.1108.16594-.18682.11126-.50263-.08552-.4299-.145-.38707-.3008-.67117-.13887-1.00822-.65763-.99187-.71443-.8893-.29225-.84969-.15515-.66035.08735-.67847-.0514-1.35423-.214-1.2183.42458-1.21653-.283-.10614-.04841-.46-.31641-.015-.00761-.43511-.21236-1.01471-.40673-.96483-.10378-.529-.041-.33823-.02335-.25777.005-.23008.00474-.12921.00165-.00247.00145-.22942.0035-.11719.00186-.0112.001-.099.00165-.22563.00413-.01863-.00186-.07268.0031-.06148-.00021-.09971.0035-.10334.00372-.23585.00227-.119.0033-.0506-.00021-.15213.0033-.0529.00083-.30293.00392-.12806.00268-.015.00082-.019.00062-.12789.00062-.12213.00227-.33309.006-.01912-.00083-.09757.00062-.02109.00041-.23865.00372-.00808.0002-.20354.00289-.49939.00619-.28117.0031-.01334-.001-.10648.00207-.04565.00041-.09823.00082-.15245-.00082-.01384.00021-.10466.00185-.07235.001-.0183-.00082-.03625-.00082-.075.00247-.16926-.00062-.0595.00268-.05966-.001-.047.00041-.07186.00062-.17256.00124-.05554-.00021-.1368-.00082-.003-.00021h-.0618l-.26156.00082h-.02176l-.11685.00021-.03939.00021-.50993-.00062-.04285-.00021H25.816l-.42966.00289-.47664-.00062-.0356-.001-.39539.00041-.03527-.00021L23.986,33.5259l-.24738-.00227-.35336.00165-.01648.00021-.05818.00206-.05472.00062-.43428-.00041-.03791.005-.70409-.00474-.71182-.006-.12263.0031-.11306-.00145-.31018-.00144-.03494-.00145-.21772.00165-.0323-.00082h0l-.22431-.00619-1.10112-.01277h-.00231l-.00626.00021h-.00774l-.00676-.00042-1.62226-.0173-.2175-.00124-.2518-.00165-.034-.0002-.24767-.00186-.52849-.01442H16.286L15.46716,33.42l-.325-.00763-.03067-.00062-.64989-.01607-.15129-.00391-.20547-.00537-.0342-.001H14.0706l-1.6306-.0482-.30965-.00988-.17362-.00578-.03573-.00123-.28089-.00844-.40284-.01421-.11619-.00412-.47382-.01752-.83686-.03192-.11254-.00475-.16143-.00658-.97924-.04222-.78535-.03543-.00729-.00041-1.2477-.05541-.03573-.00145-.34693-.01462-.604-.02884-.00558-.0002L5.52214,33.054l-.10337-.005-.31536-.01566-.00386.00062-.24827-.01153L4.644,33.00451l-.3732-.01442-.5931-.0346-.00984.00041-.26866-.01256-.38763-.01875-.24783-.02142-.14884-.008-.37271-.00946,1.123-30.09354.69422.03839.7122.03807.693.03575.05326.00268.044.00223v.0001l.478.02311.10489.00667.70748.032.014.00042.08195.00513.03837.001.20471.01423.03616-.002.35447.016.13127.00585.0001,0,.3753.01588.04433.0018.28213.01122.116.00544.246.01028.1108.0043.08223.00318.09317.00356.12407.00534.17542.00852.0311.00079.27338.012.12317.00537.22984.00857.35587.01345.64613.02361.06344.0015.11255.00266L11.2074,3.15l.03309.00051.0861.00155" fill="#fff" fill-rule="evenodd" id="Hintergrund_Weiss" stroke="#fff" stroke-width="0.99934px" /><text font-family="AudiTypeDisplayHigh-Bold, Audi Type Display High" font-size="21px" font-weight="700" id="Nummer" transform="translate(3.07459 26.53166)">{value}</text></svg>