<svg xmlns="http://www.w3.org/2000/svg" id="Icon" viewBox="0 0 40 40"><defs /><rect height="40" id="Hintergrund_Schwarz" rx="2" width="40" /><path d="M6.11731,35.63661V32.9399H2.3483V12.965L1.61589,7.47893C1.21306,4.4616.87219,1.91948.8584,1.82977l-.02507-.1631H35.22008l.221.10341a1.0246,1.0246,0,0,1,.61835.80514,1.25269,1.25269,0,0,1,.04208.65243c-.02583.15817-.07164.47352-.1018.70078a2.69148,2.69148,0,0,1-.25731.86991,1.69178,1.69178,0,0,0-.217.89166l-.01454.30162.16609.25294.16609.11962H39.159V8.47569l.00768.0722a1.64207,1.64207,0,0,0-.12564.71926l-.26661.78038L38.335,11.15125a5.14523,5.14523,0,0,0-.6037,1.54151,18.7573,18.7573,0,0,1-.50252,2.27349c-.07109.22174-.20208.68934-.29109,1.03909a3.22375,3.22375,0,0,1-.63677,1.47559,2.08586,2.08586,0,0,0-.37371.75549,4.235,4.235,0,0,1-.40729,1.04105,12.09345,12.09345,0,0,0-.59643,1.30972,33.28675,33.28675,0,0,1-1.92119,3.52313,11.983,11.983,0,0,0-1.03325,2.06034,12.49251,12.49251,0,0,0-.57679,1.52234c-.03428.17059-.09069.43739-.12534.59289a8.27069,8.27069,0,0,0-.06387,1.46916l-.00087,1.05312.14461.578c.07954.24455.18445.60962.23314.81128s.11638.55591.15042.62428a8.90575,8.90575,0,0,1,.04954,2.06863l-.01236,1.94431-.13924.41816a2.96452,2.96452,0,0,1-.32455.50484,1.49406,1.49406,0,0,0-.18532.24874.288.288,0,0,1-.15405.154.441.441,0,0,0-.13909.086c-.10335.084-.26229.08507-12.40634.086l-12.30164.001Z" fill="#fff" id="Arkansas_Form" /><text font-family="AudiTypeDisplayHigh-Bold, Audi Type Display High" font-size="21px" font-weight="700" id="Nummer" transform="translate(3.38314 26.53206)">{value}</text></svg>