<svg xmlns="http://www.w3.org/2000/svg" id="Icon" viewBox="0 0 40 40"><defs /><rect fill="#00924c" height="38" rx="2" width="38" x="1" y="1" /><path d="M19.50964,31.78857l-.25329-.88571-.80441.01839-.41285.49542A2.14875,2.14875,0,0,1,16.12243,33.125c-.82569.08257-1.33334-1.375-2.519.13255-.487.61917-1.42432-.1961-1.672-.31995-.2328-.1164-.72373-.93886-1.43119-1.29358-.79809-.40016-1.81785-.34288-2.03669-.6055-.41285-.49541-1.789-1.9266-1.70642-2.422s1.949.11009,2.61467.11009c.633,0,1.23853-1.0734,1.07339-1.40367s-2.39449-.90826-2.97247-1.5688S4.5524,24.24825,3.94974,23.49725c-3.578-4.45871,1.13086-.32046,1.156-2.25688.03-2.31761-.578-2.47706-.82568-2.97247a8.5146,8.5146,0,0,1-.02753-2.50458c0-.41284.49542-.90826-.66054-.99082s1.23853-1.73395,4.15595.46789c.74425.56169,1.752-.60185,2.69724-.77065,1.54128-.27522-1.82157-1.66-1.211-1.81651,2.14678-.55045,3.68477,1.11879,3.96329.77065.66055-.82569-.46789-.96331-.38532-2.20184s2.83486-2.44953.44037-4.34861c-.38816-.30785,1.73394-.44037,2.47706-.11009s1.23853.82568,1.81651-.08257S18.88218,1.99219,19.99743,2H20c1.11524-.00781,1.8734,3.77251,2.45138,4.68077s1.07339.41284,1.81651.08257,2.86521-.19776,2.47706.11009c-2.39449,1.89908.3578,3.11009.44037,4.34861S26.13945,12.59819,26.8,13.42388c.27851.34814,1.81651-1.3211,3.96329-.77065.61056.15656-2.75229,1.54129-1.211,1.81651.94528.1688,1.953,1.33234,2.69725.77065,2.91742-2.20184,5.31191-.55046,4.15595-.46789s-.66055.578-.66055.99082a8.51493,8.51493,0,0,1-.02752,2.50458c-.24771.49541-.85573.65486-.82569,2.97247.0251,1.93642,4.73394-2.20183,1.156,2.25688-.60265.751-2.94495,1.59633-3.52293,2.25688s-2.80733,1.23853-2.97247,1.5688.44037,1.40367,1.0734,1.40367c.66569,0,2.5321-.60551,2.61467-.11009s-1.29358,1.9266-1.70642,2.422c-.21885.26262-1.2386.20534-2.03669.6055-.70746.35472-1.1984,1.17718-1.43119,1.29358-.24771.12385-1.18505.93912-1.672.31995-1.1857-1.50755-1.69335-.05-2.519-.13255a2.14877,2.14877,0,0,1-1.91667-1.70833l-.41284-.49542-.66055.08257-.32938,1.024a15.129,15.129,0,0,0-.22223,3.5c.08824.46639.27778,1.47222.27778,1.47222H19.75s-.17657-1.13844-.19444-1.63889C19.52778,34.58333,19.50964,31.78857,19.50964,31.78857Z" fill="#fff" /><text font-family="AudiTypeDisplayHigh-Bold, Audi Type Display High" font-size="15px" font-weight="700" isolation="isolate" transform="translate(9.55917 26.35475)">{value}</text></svg>