<svg xmlns="http://www.w3.org/2000/svg" viewBox="0 0 47 35"><g id="ri_argentina_provincial_3dig"><g id="Schild"><rect fill="#fff" height="33.5" rx="1.25" width="45.5" x="0.75" y="0.75" /><path d="M45,1.5a.50045.50045,0,0,1,.5.5V33a.50045.50045,0,0,1-.5.5H2a.50045.50045,0,0,1-.5-.5V2A.50045.50045,0,0,1,2,1.5H45M45,0H2A2,2,0,0,0,0,2V33a2,2,0,0,0,2,2H45a2,2,0,0,0,2-2V2a2,2,0,0,0-2-2Z" /></g><text font-family="AudiTypeDisplayHigh-Bold, Audi Type Display High" font-size="19" font-weight="700" transform="translate(3.57576 24.25342)">{value}</text></g></svg>