<svg xmlns="http://www.w3.org/2000/svg" viewBox="0 0 61 33">
<g id="ri_hexagon_yellow_black_3dig">
<g id="Schild">
<path d="M.78687,29.35547.75024,3.644,30.5061.75342,60.25024,3.64356V29.38574L30.50659,32.2461ZM.75024,3.53906H.78638l-.03614.07373Z" fill="#f1c61b" fill-rule="evenodd" />
<path d="M30.5061,1.50706,59.5,4.32426V28.67763l-28.99377,2.8153L1.5,28.67061V4.32443L30.5061,1.50706M30.5061,0,.66187,2.89878a.67209.67209,0,0,0-.46827.18789A.6264.6264,0,0,0,0,3.53889V29.41144a.6783.6783,0,0,0,.20911.48791.72355.72355,0,0,0,.505.20187L30.5061,33l29.8534-2.89878a.6544.6544,0,0,0,.45276-.1806A.6084.6084,0,0,0,61,29.48252V3.536a.62117.62117,0,0,0-.1936-.45005.66861.66861,0,0,0-.4668-.18715L30.5061,0Z" />
</g>
<text font-family="AudiTypeDisplayHigh-Bold, Audi Type Display High" font-size="22" font-weight="700" id="Text" text-anchor="middle" transform="translate(30.5 23.86038)">{value}</text>
</g>
</svg>