<svg xmlns="http://www.w3.org/2000/svg" viewBox="0 0 44 36"><g id="ri_saudiarabia_national3rd_3dig"><g id="Schild"><g data-name="Form 12 Kopie 14" id="Form_12_Kopie_14"><path d="M1.65039,35.25A.90086.90086,0,0,1,.75,34.35156V3.13037C.75,1.79541,2.05664.75,3.72461.75H40.17188C41.86914.75,43.25,1.81787,43.25,3.13037V34.35156a.90086.90086,0,0,1-.90039.89844Z" fill="#50a556" fill-rule="evenodd" /><path d="M40.17236,1.5C41.43408,1.5,42.5,2.24663,42.5,3.13039V34.35144a.14949.14949,0,0,1-.1499.14856H1.6499A.14949.14949,0,0,1,1.5,34.35144V3.13039C1.5,2.21615,2.47705,1.5,3.72461,1.5H40.17236m0-1.5H3.72461C1.60986,0,0,1.40073,0,3.13039V34.35144A1.64928,1.64928,0,0,0,1.6499,36H42.3501A1.64928,1.64928,0,0,0,44,34.35144V3.13039C44,1.39973,42.28662,0,40.17236,0Z" fill="#fff" /></g><path d="M40.40942,13.893a3.97116,3.97116,0,0,0-1.67859-1.092,6.89308,6.89308,0,0,0-3.65377-.26828,11.25066,11.25066,0,0,0-2.9374.79975,6.49233,6.49233,0,0,1,.71481-1.17914c.59939-.859.96792-4.96891-4.33442-5.80977C23.298,5.51538,22.03655,3.5861,21.9998,3.528V3.52644l-.00259-.00385s-1.22155,1.98011-6.52388,2.821-4.93381,4.95073-4.33442,5.80977a6.46313,6.46313,0,0,1,.71481,1.17914,11.25066,11.25066,0,0,0-2.9374-.79975,6.89078,6.89078,0,0,0-3.65325.26828,3.9711,3.9711,0,0,0-1.67859,1.092,4.18511,4.18511,0,0,0-1.12941,2.55973v15.9915a1.02251,1.02251,0,0,0,1.04918.99324H40.48913a1.02218,1.02218,0,0,0,1.04918-.99324V16.45276A4.18735,4.18735,0,0,0,40.40942,13.893ZM21.9998,15.95081V15.951c-3.49435-.0117-6.32047-1.98092-6.32047-4.40994s2.82612-4.3983,6.32047-4.41v.00018c3.49175.0139,6.31425,1.98208,6.31425,4.40982S25.49155,15.93691,21.9998,15.95081Z" fill="#fff" fill-rule="evenodd" /><path d="M23.01043,10.41194c.08293.25288-.01833.08582-.24977-.10955a.4081.4081,0,0,0-.45806-.06664,1.77452,1.77452,0,0,1,.2893.2967c.13887.18258.07426.61166.02315.37247a1.07286,1.07286,0,0,0-.54293-.44916l.07136,2.19833h-.2893l.07137-2.19833a1.07373,1.07373,0,0,0-.54293.44916c-.05111.23919-.11572-.1908.02314-.37247a1.775,1.775,0,0,1,.28931-.2967.40812.40812,0,0,0-.45807.06664c-.23144.19628-.33269.36517-.24976.10955a.807.807,0,0,1,.41563-.58792c.18516-.01461.2218-.03834-.08293-.12416a.55216.55216,0,0,0-.47638.04747A.51135.51135,0,0,1,21.102,9.394a.55823.55823,0,0,1,.47156,0c.08293.04291-.03279-.14333-.26808-.23919s-.31438-.10042-.07426-.13876a.88875.88875,0,0,1,.569.115.5255.5255,0,0,0,.19866-.28666.52646.52646,0,0,0,.19866.28666.88776.88776,0,0,1,.569-.115c.24012.03834.162.04291-.07426.13876s-.351.2821-.26808.23919a.55823.55823,0,0,1,.47156,0,.51048.51048,0,0,1,.25844.3533.55219.55219,0,0,0-.47253-.04747c-.30474.08582-.26809.10955-.08294.12416A.80644.80644,0,0,1,23.01043,10.41194Zm1.25364,1.7017c.25941-.03835.63839-.105.63839-.105A2.541,2.541,0,0,0,23.7009,11.942a3.591,3.591,0,0,0-1.36359.71208,2.03376,2.03376,0,0,0-.33751.30127,2.03044,2.03044,0,0,0-.33752-.30127A3.59106,3.59106,0,0,0,20.2987,11.942a2.54107,2.54107,0,0,0-1.20157.06664s.379.06664.63839.105a5.93447,5.93447,0,0,1,1.1466.39621,5.30284,5.30284,0,0,1,.85055.61622l-.379.32135-.13211-.252-.12633.10225.1109.28666-.36066.33961-.23145-.0913-.08293.05478v.14789l.28352.29306.60079-.4729a.401.401,0,0,0,.134.22.9424.9424,0,0,0-.04147-.34418l.48989-.39164.49085.38982a.94406.94406,0,0,0-.04147.34417.40084.40084,0,0,0,.1379-.22l.59693.47473.2893-.29123v-.14972l-.08293-.05477L23.157,13.924l-.36067-.33961.1109-.28665-.12922-.10134-.13212.252-.379-.32135a5.30289,5.30289,0,0,1,.85055-.61623A5.93221,5.93221,0,0,1,24.26407,12.11364Z" data-name="Form 18 Kopie" fill="#fff" fill-rule="evenodd" id="Form_18_Kopie" /></g><text font-family="AudiTypeDisplayHigh-Bold, Audi Type Display High" font-size="16" font-weight="700" id="Text" transform="translate(6.08972 30.42188) scale(0.95242 1)">{value}</text></g></svg>