<svg xmlns="http://www.w3.org/2000/svg" viewBox="0 0 36 37"><g id="ri_newzealand_urban_2dig"><g id="Schild"><path d="M18.00018,36.24953c-5.15869,0-17.25-6.83593-17.25-9.75293V1.26369A.52045.52045,0,0,1,1.27606.75H34.7243a.52045.52045,0,0,1,.52588.51367V26.4966C35.25018,29.4136,23.15887,36.24953,18.00018,36.24953Z" fill="#fff" fill-rule="evenodd" /><path d="M34.5,1.5V26.49626c0,.5828-1.54813,2.65242-6.33356,5.32984C24.30023,33.98924,20.11963,35.5,18,35.5s-6.3002-1.51076-10.16644-3.6739C3.04816,29.14868,1.5,27.07906,1.5,26.49626V1.5h33M34.72415,0H1.27588A1.26979,1.26979,0,0,0,0,1.2636V26.49626C0,30.195,12.93643,37,18,37S36,30.195,36,26.49626V1.2636A1.26978,1.26978,0,0,0,34.72415,0Z" /></g><text font-family="AudiTypeDisplayHigh-Bold, Audi Type Display High" font-size="22" font-weight="700" id="Text" transform="translate(2.90546 24.04351)">{value}</text></g></svg>