<?xml version="1.0" encoding="UTF-8"?>
<svg id="Ebene_1" data-name="Ebene 1" xmlns="http://www.w3.org/2000/svg" viewBox="0 0 44 40">
  <defs>
    <style>
      .cls-1 {
        fill: #4b70eb;
      }

      .cls-2 {
        fill: #fff;
        fill-rule: evenodd;
      }

      .cls-3 {
        fill: #e3dc5a;
        font-family: AudiTypeDisplayHigh-Bold, 'Audi Type Display High';
        font-size: 18px;
        font-weight: 700;
        isolation: isolate;
      }
    </style>
  </defs>
  <path class="cls-2" d="M2.83968,0H41.16032c1.56831,.00002,2.83967,1.1558,2.83968,2.58154V37.41854c0,1.4257-1.27134,2.58146-2.8396,2.58146H2.83968C1.27141,40.00004,.00004,38.84431,0,37.41861v-.00004S0,2.58154,0,2.58154C.00001,1.1558,1.27137,.00002,2.83968,0Z"/>
  <path class="cls-1" d="M15.3272,4.10765s3.56078,0,3.6212,2.061-2.7564,2.71121-4.62826,2.70583c-5.11763-.01463-7.33798-1.64466-8.66571-1.31037s-2.91917,1.05543-2.91917,4.06329-.60676,4.25386-1.39137,4.97787,2.45551-.7447,2.75733-1.19033-.67631,4.38-2.43778,5.93968c-1.68941,1.49558,2.2473-.24637,2.4871-.75442-.65162,1.86565-1.47687,3.67745-2.46683,5.41574-1.3277,2.50654,2.23003,.2403,2.41099-.20521-.45234,1.88616-1.21934,3.69833-2.27442,5.37366-1.62955,2.50655,1.77894,.50714,2.141-.04984s.30495,1.49215,.30495,2.49477,4.8179,5.23259,17.6696,5.23259,17.67713-4.23,17.67713-5.23259-.0572-2.96979,.30483-2.41269,3.85958,2.55639,2.23003,.04985c-1.05501-1.67536-1.82201-3.48752-2.27441-5.37367,.18096,.44552,3.73873,2.62967,2.41099,.12313-1.01507-1.74335-1.88428-3.55371-2.60026-5.41574,.2398,.50805,4.30991,2.37324,2.62063,.87755-1.76158-1.55961-2.82851-6.54949-2.52681-6.10385s3.453,2.0377,2.66841,1.31357-1.3024-2.05222-1.3024-5.06007-1.54714-3.77017-2.87487-4.10434-3.5555,1.39247-9.78519,1.39247c0,0-4.22465,.31667-4.64706-4.19511s-3.50042-3.6763-4.5265-3.23067-2.23286,2.06091-3.98316,2.6179Z"/>
  <text class="cls-3" transform="translate(22.0 29.40033) scale(.95242 1)" text-anchor="middle">{value}</text>
</svg>