<svg xmlns="http://www.w3.org/2000/svg" data-name="Layer 1" id="Layer_1" viewBox="0 0 50 40"><defs /><rect height="40" rx="2" width="50" /><rect fill="#fff" height="38" rx="2" width="48" x="1" y="1" /><path d="M39.89154,36.52956c-.5296-.30454-1.01447-.58248-1.07753-.61765-.11341-.06328-.11053-.07139.27541-.7746.2145-.39087.39925-.72007.41057-.73154a9.99508,9.99508,0,0,1,.93094.49l.91033.51089.66747-.037.66746-.037,1.29854-1.27987L45.27326,32.773l.07387-1.47193L45.421,29.8291l-.16687-1.03094-.16687-1.03093-.85387-1.671-.85393-1.671-.53644-2.9714-.53645-2.9714L42.6851,16.526l.37852-1.95647-1.426-4.8542c-.78433-2.6698-1.43773-4.86607-1.452-4.88053a5.94134,5.94134,0,0,0-.74553-.05485l-.7196-.02849-.232.48244-.232.48245-7.17867-.0134-7.17866-.01339L23.67526,5.135l-.22389-.55458-4.27854-.01351L14.8943,4.55334l.03066.15557c.01686.08555.105.58129.19586,1.10167l.16521.94606.7866.061c1.07547.08339,1.0932.08209,1.42793-.10443l.2956-.16474,1.4834.3248c.81587.17864,1.5368.34768,1.60214.37563s1.02533.75647,2.1334,1.61887l2.01466,1.56806,2.1962-.55654,2.1962-.55654,1.13134.6263c.62224.34447,1.14193.637,1.15486.65015a9.74944,9.74944,0,0,1-.784,1.4548c-.02472,0-.4243-.21244-.88793-.47209l-.843-.4721-2.26107.5741c-1.2436.31575-2.28553.55944-2.3154.54152s-1.038-.7962-2.24033-1.7296l-2.18607-1.697-1.0168-.221c-.55922-.12156-1.054-.221-1.09946-.221a1.03525,1.03525,0,0,0-.31048.12826l-.22776.12826-1.8258-.13854-1.8258-.13855L13.42818,5.7717c-.251-1.41054-.46871-2.62994-.4839-2.7098l-.02761-.14525H24.5772l.21965.55459.21964.55458H37.22156L37.44,3.54866l.21847-.47716,1.88407.03545c1.03627.0195,1.88767.03814,1.89213.04142.0044.00325.75727,2.5558,1.673,5.67233l1.66494,5.6664-.38717,2.0064-.38715,2.0064.47575,2.65307.47575,2.65307.85967,1.68986.85966,1.68987.2071,1.24146.20708,1.24147-.09189,1.91847-.0919,1.91847-1.73933,1.72593L43.42088,36.9575l-.34654.03243c-.19058.01783-.76813.04614-1.2834.06292l-.93686.0305Z" id="path1341" /><text font-family="AudiTypeDisplayHigh-Bold, Audi Type Display High" font-size="19px" font-weight="700" id="Nummer" transform="translate(2.06386 30.89027)">{value}</text></svg>