<svg xmlns="http://www.w3.org/2000/svg" id="Icon" viewBox="0 0 46 46"><defs /><rect fill="#fff" height="45" rx="1.5" width="45" x="0.5" y="0.5" /><path d="M44,1a1.00113,1.00113,0,0,1,1,1V44a1.00113,1.00113,0,0,1-1,1H2a1.00113,1.00113,0,0,1-1-1V2A1.00113,1.00113,0,0,1,2,1H44m0-1H2A2,2,0,0,0,0,2V44a2,2,0,0,0,2,2H44a2,2,0,0,0,2-2V2a2,2,0,0,0-2-2Z" /><g id="Wordmark"><path d="M7.01812,15.76515,12.489,8.82389v5.13583l-1.84285-1.46988-.82282,1.06174,2.69186,2.20749h1.40524V4.71332L5.4097,15.76533l1.60842-.00018Zm7.297-.00608h1.47081V3.63624H14.31512ZM31.08341,8.90546V8.18909l-1.4724.21076v3.5479l-1.05379.008a2.3508,2.3508,0,1,1-1.249-2.077l-1.58167,1.582.93621.93667,2.663-2.65585a3.82179,3.82179,0,0,0-6.21506-.04312,3.82177,3.82177,0,0,0-5.43-.75781h-.00542V4.726l-1.46895.1581V15.759h1.46895v-.79223a3.81985,3.81985,0,0,0,5.44387-.76511,3.8223,3.8223,0,0,0,6.492-.52937v2.08157h1.4724V11.94906a2.489,2.489,0,0,1,.49261-1.43873,2.07054,2.07054,0,0,1,.826-.66324V8.26328a3.31727,3.31727,0,0,0-1.32039.65079ZM20.03009,14.30715a2.34524,2.34524,0,0,1-1.65715-.6826l-.69776.69579V11.94026l.00169.01525a2.35211,2.35211,0,1,1,2.35322,2.35164M35.19763,8.19293h-1.0565l-.00757-.00215V7.24737l-1.45585.23705v8.27465h1.45585V9.49433l.00757-.0014h.74144Zm5.37811,0v.73012l.00169.0247a3.82231,3.82231,0,1,0-.00169,6.03321v.7782H42.048V8.40387Zm0,3.76492v2.34874l-.68437-.68831a2.35052,2.35052,0,1,1,.68971-1.66267Z" /></g><path d="M3.50173,17.5V34.7182s-.19011,2.95505,3.41132,4.224L22.99847,44h.00306L39.087,38.94216c3.60143-1.26891,3.41132-4.224,3.41132-4.224V17.5Z" fill="none" stroke="#000" stroke-miterlimit="10" stroke-width="1.00061px" /><text font-family="AudiTypeDisplayHigh-Bold, Audi Type Display High" font-size="17px" font-weight="700" isolation="isolate" transform="translate(5.25122 34.28751)">{value}</text></svg>