<svg xmlns="http://www.w3.org/2000/svg" id="Icon" viewBox="0 0 40 40"><defs /><path d="M0,26.15189C0,13.87565,8.40947,3.48525,20,0,31.59047,3.48525,40,13.87565,40,26.15189v6.36424a6.27169,6.27169,0,0,1-5.16683,6.076l-.01973.00381-.01943.00371-.01953.00371A78.42051,78.42051,0,0,1,20,40,78.41964,78.41964,0,0,1,5.22552,38.60332L5.206,38.59961l-.01943-.00371-.01978-.00381A6.27169,6.27169,0,0,1,0,32.51613Z" fill="#fff" fill-rule="evenodd" id="Rahmen_Weiss" transform="translate(0 0)" /><path d="M20,1.26035c10.8906,3.442,18.75,13.287,18.75,24.89154v6.36424a5.05745,5.05745,0,0,1-4.16484,4.89979A77.713,77.713,0,0,1,20,38.8,77.13035,77.13035,0,0,1,5.46967,37.42647,5.11877,5.11877,0,0,1,1.25,32.51613V26.15189C1.25,14.54738,9.1094,4.70233,20,1.26035Z" fill="#006b54" fill-rule="evenodd" id="Hintergrund_Gr&#252;n" transform="translate(0 0)" /><g id="California"><path d="M8.36919,14.52189a1.08174,1.08174,0,0,1-.09242.34668,1.353,1.353,0,0,1-.19022.305,1.39061,1.39061,0,0,1-.27069.24921,1.542,1.542,0,0,1-.33381.1792,1.35638,1.35638,0,0,1-.57267.09781A1.2671,1.2671,0,0,1,6.384,15.553a1.51039,1.51039,0,0,1-.44952-.37266,2.24144,2.24144,0,0,1-.34327-.57558,2.18434,2.18434,0,0,1-.17044-.645,1.38789,1.38789,0,0,1,.05549-.56357,1.15743,1.15743,0,0,1,.27349-.45171,1.33536,1.33536,0,0,1,.4837-.30942,1.52256,1.52256,0,0,1,.73944-.09536,1.33614,1.33614,0,0,1,.68024.28066l-.36952.42681a1.16488,1.16488,0,0,0-.16042-.0919.62588.62588,0,0,0-.13881-.04067.76853.76853,0,0,0-.26636-.02349.916.916,0,0,0-.26871.057.65393.65393,0,0,0-.306.22061.72255.72255,0,0,0-.12822.31084,1.00621,1.00621,0,0,0,.00839.35229,1.76494,1.76494,0,0,0,.10564.34941,1.34759,1.34759,0,0,0,.49825.65464.6862.6862,0,0,0,.63878.05313.856.856,0,0,0,.17675-.09092.708.708,0,0,0,.13514-.122.83311.83311,0,0,0,.11129-.17251q.05051-.1016.10529-.24224Z" fill="#fff" fill-rule="evenodd" id="C" transform="translate(0 0)" /><path d="M11.57862,14.19166l-.52505-.60771-1.3412.39365-.07665.78433-.60628.17793.35436-3.33447.56035-.1645,2.227,2.57685ZM9.89848,12.25949l-.11434,1.12329.86349-.25347Z" fill="#fff" fill-rule="evenodd" id="A" transform="translate(0 0)" /><polygon fill="#fff" fill-rule="evenodd" id="L" points="12.723 13.952 12.109 10.919 12.675 10.814 13.194 13.38 14.991 13.045 15.085 13.511 12.723 13.952" /><polygon fill="#fff" fill-rule="evenodd" id="I" points="15.812 10.333 16.204 13.4 15.632 13.467 15.24 10.401 15.812 10.333" /><polygon fill="#fff" fill-rule="evenodd" id="F" points="17.433 10.746 17.479 11.372 18.48 11.304 18.521 11.866 17.52 11.933 17.617 13.276 17.033 13.315 16.808 10.233 19.209 10.072 19.249 10.624 17.433 10.746" /><path d="M22.63713,11.70212a2.20093,2.20093,0,0,1-.1177.65815,1.52326,1.52326,0,0,1-.28493.50025,1.20593,1.20593,0,0,1-.43193.31542,1.27932,1.27932,0,0,1-.55878.09893,1.25527,1.25527,0,0,1-.60689-.16108,1.2835,1.2835,0,0,1-.41138-.38291,1.55484,1.55484,0,0,1-.22847-.52437,2.27887,2.27887,0,0,1,.05961-1.2414,1.42884,1.42884,0,0,1,.28941-.49321,1.19205,1.19205,0,0,1,.44128-.30357,1.40408,1.40408,0,0,1,.57282-.0915,1.23265,1.23265,0,0,1,.94889.47012,1.45361,1.45361,0,0,1,.25543.50913A2.054,2.054,0,0,1,22.63713,11.70212Zm-.57658-.00547a1.29774,1.29774,0,0,0-.169-.77153.64633.64633,0,0,0-.55155-.29536.67543.67543,0,0,0-.58126.25737,1.2581,1.2581,0,0,0-.23427.758,1.271,1.271,0,0,0,.17822.7811.74663.74663,0,0,0,.94157.21147.70414.70414,0,0,0,.23946-.24111,1.10337,1.10337,0,0,0,.1299-.33472A2.05772,2.05772,0,0,0,22.06055,11.69665Z" fill="#fff" fill-rule="evenodd" id="O" transform="translate(0 0)" /><path d="M25.26154,13.595l-.33783-1.27022-.85144-.11484-.17579,1.20088-.57078-.077.4479-3.05927,1.465.1976a1.41557,1.41557,0,0,1,.29561.06787.84323.84323,0,0,1,.23265.13384.90628.90628,0,0,1,.3127.38208.887.887,0,0,1,.06368.49282.878.878,0,0,1-.20477.4543.99776.99776,0,0,1-.43274.28852l.39316,1.3894Zm.31077-2.12324a.35165.35165,0,0,0-.0822-.29976.504.504,0,0,0-.32226-.15058l-.90373-.12192-.11169.76249.90372.12193a.52172.52172,0,0,0,.35279-.05713A.3437.3437,0,0,0,25.57231,11.47175Z" fill="#fff" fill-rule="evenodd" id="R" transform="translate(0 0)" /><polygon fill="#fff" fill-rule="evenodd" id="N" points="28.576 14.277 27.625 11.859 27.089 13.921 26.539 13.79 27.318 10.792 27.868 10.924 28.785 13.244 29.298 11.266 29.839 11.396 29.06 14.393 28.576 14.277" /><polygon data-name="I" fill="#fff" fill-rule="evenodd" id="I-2" points="31.401 11.855 30.406 14.793 29.858 14.622 30.853 11.684 31.401 11.855" /><path d="M33.40708,15.87291l-.00966-.7895-1.30035-.50434-.57373.56318-.58787-.228L33.39681,12.537l.54331.21074.04141,3.348ZM33.368,13.35632l-.8253.8038.8372.32476Z" data-name="A" fill="#fff" fill-rule="evenodd" id="A-2" transform="translate(0 0)" /></g><text fill="#fff" font-family="AudiTypeDisplayHigh-Bold, Audi Type Display High" font-size="21px" font-weight="700" transform="translate(5.3832 33.53197)">{value}</text></svg>