<svg xmlns="http://www.w3.org/2000/svg" id="Icon" viewBox="0 0 50 40"><defs /><rect height="40" id="Hintergrund_Schwarz" rx="2" width="50" /><path d="M9.21051,6.66667V1H49V39H31.31577L1,33.33333V6.66667Z" fill="#fff" id="Arizona_Form" /><text font-family="AudiTypeDisplayHigh-Bold, Audi Type Display High" font-size="22px" font-weight="700" id="Nummer" transform="translate(2.03037 29.343)">{value}</text><g id="Arizona"><path d="M18.865,7.5l-.41045-1.16915H17.15484L16.74439,7.5h-.70273l1.43656-4.16667h.653L19.56778,7.5H18.865M17.814,4.49005l-.4291,1.16915h.83333L17.814,4.49005" id="path3779" /><path d="M22.42306,7.5l-.67164-1.81592h-.78981V7.5h-.6592V3.33333h1.37438a2.40835,2.40835,0,0,1,.41666.0311,1.12471,1.12471,0,0,1,.32961.0995.95344.95344,0,0,1,.24875.18035.97422.97422,0,0,1,.199.24876,1.07126,1.07126,0,0,1,.1306.2985,1.01585,1.01585,0,0,1,.04975.311,1.11522,1.11522,0,0,1-.04975.3296,1.18888,1.18888,0,0,1-.1306.29851,1.05854,1.05854,0,0,1-.20523.24876.89948.89948,0,0,1-.26119.17413L23.13823,7.5h-.71517M22.392,4.50249a.49923.49923,0,0,0-.26119-.43532.51393.51393,0,0,0-.14926-.056.98345.98345,0,0,0-.2301-.01866h-.7898v1.0199h.7898A1.40507,1.40507,0,0,0,21.97529,5a.50486.50486,0,0,0,.15548-.056.49117.49117,0,0,0,.19278-.18656.523.523,0,0,0,.06841-.255" id="path3781" /><path d="M24.0662,7.5V3.33333h.67165V7.5H24.0662" id="path3783" /><path d="M25.60467,7.5V6.94652l1.903-2.954H25.76636V3.33333h2.67413v.39179L26.51263,6.82836h1.92786V7.5H25.60467" id="path3785" /><path d="M32.11112,5.42289a3.76309,3.76309,0,0,1-.11816.95149,2.00862,2.00862,0,0,1-.33582.73383,1.18036,1.18036,0,0,1-1.00746.46642,1.34253,1.34253,0,0,1-.72761-.18035,1.3282,1.3282,0,0,1-.47264-.56592,2.81887,2.81887,0,0,1-.21144-.64677,3.78276,3.78276,0,0,1,.03731-1.71641,2.39573,2.39573,0,0,1,.33582-.74005,1.14637,1.14637,0,0,1,.44155-.34826,1.49969,1.49969,0,0,1,.62189-.11816,1.22493,1.22493,0,0,1,.67786.18035,1.4319,1.4319,0,0,1,.47885.56592,2.88156,2.88156,0,0,1,.20523.653,3.89117,3.89117,0,0,1,.07462.76493m-.6592,0a3.20442,3.20442,0,0,0-.06219-.653,1.6754,1.6754,0,0,0-.18656-.51616.66324.66324,0,0,0-.2301-.23632.68689.68689,0,0,0-.31095-.08707.59126.59126,0,0,0-.40423.11194.89454.89454,0,0,0-.26741.40423,1.92874,1.92874,0,0,0-.12438.454,3.69022,3.69022,0,0,0-.03731.52239,3.291,3.291,0,0,0,.06219.64677,1.525,1.525,0,0,0,.18656.50995.6985.6985,0,0,0,.23632.24253.64977.64977,0,0,0,.33582.08085.57257.57257,0,0,0,.37936-.12438.9235.9235,0,0,0,.26119-.40423q.0311-.08084.06219-.19278a2.28341,2.28341,0,0,0,.04975-.24254q.02487-.13059.03731-.26119t.01244-.255" id="path3787" /><path d="M35.38929,7.5l-1.592-2.82338V7.5h-.6592V3.33333h.6592L35.31467,5.995V3.33333h.6592V7.5h-.58458" id="path3789" /><path d="M39.52479,7.5l-.41045-1.16915H37.81459L37.40414,7.5H36.7014L38.138,3.33333h.653L40.22753,7.5h-.70274m-1.051-3.00995L38.04469,5.6592H38.878L38.4738,4.49005" id="path3791" /></g></svg>