<svg xmlns="http://www.w3.org/2000/svg" data-name="Layer 1" id="Layer_1" viewBox="0 0 40 40"><defs /><rect height="40" id="Hintergrund" rx="2" width="40" /><g id="Form"><path d="M36.26787,38.27653a.73732.73732,0,0,1-.00054-.3696.63966.63966,0,0,0-.19-.54282,1.19243,1.19243,0,0,1-.24659-.4694c0-.234-.44725-.52373-.91606-.59337-.33115-.04937-.447-.114-.51348-.28736a.33376.33376,0,0,0-.30188-.23087,2.31147,2.31147,0,0,1-.54868-.12558c-.30679-.10918-.33615-.154-.38-.57805-.04436-.42921-.06779-.46371-.35562-.52158a1.37954,1.37954,0,0,1-.42758-.15122,2.59783,2.59783,0,0,0-.54692-.21731,2.57535,2.57535,0,0,1-.54847-.21869.15318.15318,0,0,0-.19-.01725c-.03791.04042-.01021.0941.06164.11932.32761.11533.46694.39246.535,1.06429.0606.5995.0479.70212-.10028.80948-.14464.105-.153.15974-.05592.371.16557.36011.07.53936-.57045,1.06978-.76736.63562-.89472.62581-.97469-.07491a2.35029,2.35029,0,0,1-.00167-.70751c.09175-.23692-.60282-.84052-.88618-.77-.12392.03072-.2141.01-.2141-.04926,0-.05648-.09612-.089-.21379-.07254a.40547.40547,0,0,0-.30876.31257,1.38589,1.38589,0,0,1-.8286.81713.26885.26885,0,0,0-.24482.2271.88677.88677,0,0,1-.81755.45292.50036.50036,0,0,0-.34021.05594c-.15662.0831-.23742.08009-.35009-.01261a2.71705,2.71705,0,0,0-.31866-.21837c-1.23566-.70288-1.28226-.72206-1.62711-.66946l-.34687.05292-.11621-.48008c-.099-.40926-.16318-.4997-.43351-.61169a.95161.95161,0,0,1-.41226-.30741.61506.61506,0,0,0-.38093-.23271.36239.36239,0,0,1-.34385-.3185c-.032-.144-.0756-.31787-.09726-.38642-.07872-.25006-.37822-.05206-.61626.40721-.22774.43977-.45986.59649-.3903.26354.07851-.376-.07748-.59035-.50756-.69771-.307-.07652-.4259-.15348-.4259-.27571,0-.29178-.10871-.46736-.28954-.46736a.30305.30305,0,0,0-.233.0942.667.667,0,0,1-.41486.09421,1.07814,1.07814,0,0,0-.54072.13819c-.406.30439-.54556.08935-.27659-.4263.10919-.20921.12022-.3254.04416-.46617-.128-.23713-.29017-.23713-.5945.00011a2.38674,2.38674,0,0,1-.59732.306c-.50891.16911-.59232.34772-.37994.81465.14157.31107.15177.40915.05457.52524a1.50712,1.50712,0,0,1-1.08041.28057,1.04942,1.04942,0,0,0-.64485.15328,1.76689,1.76689,0,0,1-.84229.19681c-.23513-.00732-.64131-.01918-.90259-.02608a8.76523,8.76523,0,0,0-2.2763.4236,2.166,2.166,0,0,1-1.87376-.18453,5.50369,5.50369,0,0,0-1.16177-.34244,1.82255,1.82255,0,0,1-.62595-.16814,1.618,1.618,0,0,0-1.7.02662,2.502,2.502,0,0,1-1.34006.31032,2.9969,2.9969,0,0,0-1.07892.1703c-.349.15446-.37545.15414-.55509-.007-.47855-.42921-.412-.76151.2014-1.00478.55612-.22053.61856-.40076.64084-1.8503a6.78323,6.78323,0,0,1,.55608-2.91805,4.09658,4.09658,0,0,0,.12422-1.55384c-.02817-1.02785-.05232-1.15936-.26356-1.43849-.22176-.293-.22723-.33263-.11877-.85313A6.31543,6.31543,0,0,0,3.71959,24.861c.00047-.54443.01755-.58011.77945-1.63375a2.67576,2.67576,0,0,0,.70041-2.26751A4.24607,4.24607,0,0,0,4.7147,18.358a3.12169,3.12169,0,0,1-.32458-.70627A2.6655,2.6655,0,0,0,4.003,16.916a1.57131,1.57131,0,0,1-.28392-.47976,3.40668,3.40668,0,0,0-.3993-.71306,2.04774,2.04774,0,0,1-.31454-1.89179c.07841-.4796-.06493-.80571-.63944-1.45406a4.01851,4.01851,0,0,1-.73215-.89971V1.69932c7.69711.00037,11.80218-.00055,21.7564,0a.58468.58468,0,0,1,.18556.46111.66973.66973,0,0,0,.54567.61842c.54108.16341.65094.65938.26179,1.1821a.745.745,0,0,0-.04082,1.02484c.16808.27351.17984.35726.08206.59105-.09643.23077-.08831.30013.05259.45443a.518.518,0,0,1,.10173.52336.719.719,0,0,0,.06936.54528,3.07056,3.07056,0,0,1,.25762.5807,3.09729,3.09729,0,0,0,.26357.5897,2.1524,2.1524,0,0,1-.19942,1.71752,9.871,9.871,0,0,1-1.8809,2.80658c-.64022.3476-.65823.38054-.78955,1.44456-.132,1.06941-.13516,1.07808-.55711,1.60428-.27367.34142-.276.3537-.15183.83394a.84749.84749,0,0,1-.086.87146c-.11673.2111-.17932.416-.13933.455.00064.00509,13.327.0286,13.327.0286.00043.16588-.05,1.56135-.11194,1.96476a2.56784,2.56784,0,0,0,.0099,1.20726A1.40175,1.40175,0,0,1,34.20326,22.71c-.314.2216-.347.45917-.095.68519a1.9002,1.9002,0,0,1,.34218.55619,5.90784,5.90784,0,0,0,.89306,1.72138,1.26957,1.26957,0,0,1,.3024.57191c.0429.20026.128.53354.189.74081a5.94378,5.94378,0,0,1,.159.73252c.04446.329.015.38469-.38967.7378-.29314.25578-.43778.457-.43778.60943,0,.27582.19535.29717.358.039q.22242-.35328.53338-.01229c.13641.14939.14287.21525.0429.43255-.10393.22646-.09455.27475.08039.4125a1.33158,1.33158,0,0,1,.30428.36174.49518.49518,0,0,0,.36655.2354c.34614.03967.40154.33479.1058.56459-.2066.16049-.211.1813-.05748.27151.24847.14605.20077.34944-.095.40409-.14371.02652-.43237.07912-.64126.11706a6.122,6.122,0,0,1-.79882.077c-.49921.00971-.64229.21687-.20909.30267.38519.07631.5491.269.39029.45873a.495.495,0,0,1-.33729.14131.82618.82618,0,0,0-.61272.66946c0,.09647.12392.2367.27928.31635a.97431.97431,0,0,1,.57576.774c0,.235.25.406.59346.406.21348,0,.50994.29436.79809.79256a.435.435,0,0,0,.34655.19229,1.37764,1.37764,0,0,1,.67479.40937c.37009.343.43726.46.43726.76054,0,.36648-.19181.62042-.64271.85087-.1762.09022-.22535.08375-.27137-.03524-.07946-.20534-.35469-.18022-.56649.05184-.28147.30839-.486.38889-.55244.2174Z" fill="#fff" id="path37" /></g><g id="LA"><g id="g41"><polygon fill-rule="evenodd" id="polygon43" points="6.24 4.396 7.673 4.396 7.673 13.067 11.33 13.067 11.33 14.395 6.24 14.395 6.24 4.396" /></g><g id="g45"><path d="M16.91212,14.39527l-.7015-2.73131H14.06134l-.65668,2.73131H11.95692l2.49245-9.99982h1.40289l2.49317,9.99982H16.91212ZM15.12018,7.38052,14.419,10.26108h1.43282l-.73134-2.88056Z" fill-rule="evenodd" id="path47" /></g></g><text font-family="AudiTypeDisplayHigh-Bold, Audi Type Display High" font-size="16px" font-weight="700" id="Nummer" transform="translate(8.86315 31.60448)">{value}</text></svg>