<svg xmlns="http://www.w3.org/2000/svg" id="Icon" viewBox="0 0 40 32"><defs /><rect fill="#3f0300" height="32" width="40" /><rect fill="#3f0300" height="29" rx="2.5" width="37" x="1.5" y="1.5" /><path d="M36,2a2.00227,2.00227,0,0,1,2,2V28a2.00227,2.00227,0,0,1-2,2H4a2.00227,2.00227,0,0,1-2-2V4A2.00227,2.00227,0,0,1,4,2H36m0-1H4A3,3,0,0,0,1,4V28a3,3,0,0,0,3,3H36a3,3,0,0,0,3-3V4a3,3,0,0,0-3-3Z" fill="#fff" /><text fill="#fff" font-family="AudiTypeDisplayHigh-Bold, Audi Type Display High" font-size="16px" font-weight="700" isolation="isolate" transform="translate(3.29538 21.97617)">{value}</text></svg>