<svg xmlns="http://www.w3.org/2000/svg" id="svg3487" viewBox="0 0 40 40"><defs /><rect fill="#fecb00" height="40" id="Hintergrund_Gelb" rx="2" width="40" /><path d="M.83333,1.35168l.03978.15948v.07975L.913,1.7504v.27911L.87311,2.189.913,2.508l-.03988.03988L.913,2.74721l.0796.319.03988.07974.03978.27911.03988.11962v.67783l.03977.11962v.39872l.03983.11962.03988.15949.0796.19936.03989.15949.03977.03987V5.618l-.03977.15949v.07975l-.07971.11961v.03988l-.03978.03987-.11948.07974V6.256l.0796.11962.03988.07974.0796.03987.07966.03988V6.575l.03983.03987V9.16667H6.72782V8.76794l-.03977-.03987L6.64817,8.6882l-.0796-.15949-.03989-.03987H6.48891l-.11954-.07975-.07965-.03987L6.1304,8.2496l-.03977-.07974-.03988-.07975L6.011,8.05024,5.97109,7.9705h-.0796l-.03988-.03988-.11949-.07974L5.69235,7.811l-.07971-.07975H5.57281L5.533,7.69139H5.41355l-.03988-.03987L5.294,7.61164,5.17453,7.492l-.03977-.03988V6.69458l.03977-.03988V6.61483L5.21441,6.575V6.41547l-.07965-.07974L5.055,6.29585V6.256l-.03977-.03987V6.17624L5.055,6.13636,5.13476,5.937V5.89713l.07965-.07974L5.533,5.618V5.57815l.03977-.03987V4.7807L5.65252,4.701l.51771-.51834.31868-.35885.15926-.19937.03988-.03987.07966-.07974L6.927,3.38517l.31868-.19936h.03983l.39828-.15949h.03977l.39828-.319H7.76335l-.03983-.03987-.07965-.07975H7.00668L6.88719,2.4681l-.03988-.03987H6.80748l-.03977.03987H6.72782L6.68805,2.508l-.07965.11961H6.56857l-.03989.03988-.19908.03987H6.24989l-.03978-.03987-.11948-.03988V2.58772l-.03988-.03987V2.508L5.85161,2.4681l-.03978-.03987L5.772,2.34849l-.03989-.03988H5.69235V2.26874H5.61264l-.03983.03987H5.533V2.4681H5.45333V2.42823l-.07966-.11962V2.22887L5.3339,2.189H5.17453V2.02951L4.77625,1.87H4.61694l-.03983.03987H4.53734l-.07966.07974-.03983.03988v.03987H4.3382l-.11954.03987H4.139l-.03982-.03987V2.02951L4.0594,1.98963V1.94976l-.03988-.03987H3.97969L3.7009,1.87H3.66112V1.83014h-.239l-.07966-.03987L3.30261,1.7504V1.71053L3.1433.99282A.14656.14656,0,0,0,3.10347.87321H3.02382L2.94422.83333H2.82473v.51835Z" fill="#003478" fill-rule="evenodd" id="From" /><path d="M37,39H3a2,2,0,0,1-2-2V10H39V37A2,2,0,0,1,37,39Z" fill="#003478" id="Hintergrund_Blau" /><g id="Minnesota"><path d="M11.97917,7.5V4.70238L11.05655,7.5l-.93006-2.79762V7.5H9.4122V2.51488h.71429l.93006,2.79762.92262-2.79762h.72173V7.5h-.72173" fill="#003478" id="path3776" /><path d="M13.65686,7.5V2.51488h.6994V7.5h-.6994" fill="#003478" id="path3778" /><path d="M17.58378,7.5,16.0436,4.15923V7.5h-.71429V2.51488h.71429l1.369,2.99107V2.51488h.71428V7.5h-.54315" fill="#003478" id="path3780" /><path d="M21.33433,7.5,19.79416,4.15923V7.5h-.71429V2.51488h.71429L21.1632,5.506V2.51488h.71429V7.5h-.54316" fill="#003478" id="path3782" /><path d="M22.83043,7.5V2.51488h2.34375v.69941H23.54471V4.47173h1.03423v.68452H23.54471V6.8006h1.82292V7.5h-2.5372" fill="#003478" id="path3784" /><path d="M28.60956,6.13839a1.47457,1.47457,0,0,1-.1116.57292,1.33643,1.33643,0,0,1-.29762.45387,1.47224,1.47224,0,0,1-.439.3125,1.27936,1.27936,0,0,1-.53572.11161,1.32816,1.32816,0,0,1-.58779-.12649,1.29838,1.29838,0,0,1-.439-.34226,1.57148,1.57148,0,0,1-.2753-.49852,1.80342,1.80342,0,0,1-.09672-.58779h.6994a1.3452,1.3452,0,0,0,.0372.3125,1.06958,1.06958,0,0,0,.12649.27529.73037.73037,0,0,0,.21577.19346.64916.64916,0,0,0,.31994.0744.67035.67035,0,0,0,.49108-.22321.81405.81405,0,0,0,.20833-.52828.78.78,0,0,0-.08929-.37946,1.08813,1.08813,0,0,0-.3125-.34226q-.0372-.0372-.02976-.03721.00744-.00742-.04464-.04464t-.22322-.14137q-.1637-.1116-.54315-.372a1.46829,1.46829,0,0,1-.46131-.48363,1.30553,1.30553,0,0,1-.14881-.61756,1.27581,1.27581,0,0,1,.09673-.49851,1.30622,1.30622,0,0,1,.26785-.41667,1.26652,1.26652,0,0,1,.40923-.2753,1.197,1.197,0,0,1,.49851-.10416,1.22209,1.22209,0,0,1,.49107.09672,1.15814,1.15814,0,0,1,.39435.26786,1.22141,1.22141,0,0,1,.26786.40922,1.37744,1.37744,0,0,1,.1116.52084H27.925a.59927.59927,0,0,0-.17857-.41667.55994.55994,0,0,0-.40179-.15625A.58047.58047,0,0,0,26.928,3.311a.54289.54289,0,0,0-.17114.40923.49932.49932,0,0,0,.09673.3125,1.26726,1.26726,0,0,0,.372.28274,3.49748,3.49748,0,0,1,1.04911.84821,1.549,1.549,0,0,1,.33482.9747" fill="#003478" id="path3786" /><path d="M32.14911,5a6.04326,6.04326,0,0,1-.067.9747,2.97078,2.97078,0,0,1-.21577.75893,1.50929,1.50929,0,0,1-.46875.65476,1.15606,1.15606,0,0,1-.69941.2009,1.23018,1.23018,0,0,1-.72916-.2009,1.54088,1.54088,0,0,1-.46131-.65476,3.33807,3.33807,0,0,1-.22322-.75893A6.78562,6.78562,0,0,1,29.225,5a6.72309,6.72309,0,0,1,.05952-.96726,3.18823,3.18823,0,0,1,.22322-.76637,1.473,1.473,0,0,1,.46875-.63988,1.21668,1.21668,0,0,1,.72172-.20089,1.16926,1.16926,0,0,1,.70685.20089,1.42507,1.42507,0,0,1,.46131.65476,3.65884,3.65884,0,0,1,.12649.372,2.41209,2.41209,0,0,1,.08928.39435,3.6785,3.6785,0,0,1,.05208.439q.01488.23066.01489.51339m-.68453,0q0-.20833-.01488-.37946A2.79061,2.79061,0,0,0,31.42,4.308a2.41242,2.41242,0,0,0-.04464-.28274q-.02977-.13392-.067-.26786a1.12348,1.12348,0,0,0-.24553-.48363.48049.48049,0,0,0-.36459-.14881q-.46131,0-.63244.61756a3.28863,3.28863,0,0,0-.12649.57292,6.85894,6.85894,0,0,0-.02976.6994q0,.2009.00744.372.01488.16368.02976.3125.02234.14136.05209.28273t.067.29018q.17114.61756.63244.61756a.48042.48042,0,0,0,.36459-.14881,1.11525,1.11525,0,0,0,.24553-.46875q.04464-.1488.07441-.28274a2.72786,2.72786,0,0,0,.04464-.29017,3.0379,3.0379,0,0,0,.02976-.3125q.00744-.17113.00744-.38691" fill="#003478" id="path3788" /><path d="M34.26381,3.17708V7.5h-.72172V3.17708h-.90774v-.6622h2.5372v.6622h-.90774" fill="#003478" id="path3790" /><path d="M37.80883,7.5l-.34971-1.36161H36.3877L36.06031,7.5h-.72172l1.24256-4.98512h.6994L38.52311,7.5h-.71428M36.916,4.003l-.3497,1.436h.71428L36.916,4.003" fill="#003478" id="path3792" /></g><text fill="#fff" font-family="AudiTypeDisplayHigh-Bold, Audi Type Display High" font-size="24px" font-weight="700" id="Nummer" transform="translate(3.29508 33.46523)">{value}</text></svg>