<svg xmlns="http://www.w3.org/2000/svg" viewBox="0 0 56 35"><g id="ri_chile_national_3dig"><g id="Schild"><path d="M28,34.165a16.68177,16.68177,0,0,0-2.31738-.83106,23.07544,23.07544,0,0,0-5.74707-.96093,39.93182,39.93182,0,0,0-5.76367.498,25.78325,25.78325,0,0,1-3.40528.33692,18.36929,18.36929,0,0,1-6.06445-1.24024C2.043,30.88477.75,29.3916.75,27.40137c0-2.96485,1.36035-4.52051,2.80078-6.168,1.36328-1.55957,2.9082-3.32617,2.9082-6.09863,0-3.24219-2.8291-6.2212-4.9873-8.02149l8.835-5.71094a31.75986,31.75986,0,0,0,6.22656.57276,26.10017,26.10017,0,0,0,5.02832-.56446,31.70146,31.70146,0,0,1,12.874-.00048,26.11916,26.11916,0,0,0,5.03125.56494,31.75986,31.75986,0,0,0,6.22656-.57276l8.835,5.71094C52.37012,8.91357,49.54,11.89307,49.54,15.13477c0,2.771,1.54492,4.53808,2.9082,6.09668C53.88965,22.88086,55.25,24.43652,55.25,27.40137c0,1.99023-1.293,3.4834-3.95312,4.5664A18.35551,18.35551,0,0,1,45.2334,33.208a25.82767,25.82767,0,0,1-3.40625-.33692,39.8922,39.8922,0,0,0-5.7627-.498,23.05272,23.05272,0,0,0-5.74707.96093A16.68177,16.68177,0,0,0,28,34.165Z" fill="#4b70eb" /><path d="M28,1.5a31.51288,31.51288,0,0,1,6.301.648,26.744,26.744,0,0,0,5.16552.57692,33.11266,33.11266,0,0,0,6.07373-.52856l7.74366,5.006c-2.12207,1.926-4.49415,4.78341-4.49415,7.93218,0,3.05289,1.71485,5.01437,3.09449,6.5923,1.40356,1.60493,2.61572,2.991,2.61572,5.6747,0,.60662,0,2.45265-3.48608,3.87076a17.80148,17.80148,0,0,1-5.78052,1.18585,25.31672,25.31672,0,0,1-3.30347-.32971,40.59208,40.59208,0,0,0-5.86572-.5052,24.20322,24.20322,0,0,0-5.95606.99037A18.93138,18.93138,0,0,0,28,33.34436a18.93793,18.93793,0,0,0-2.10864-.73078,24.21123,24.21123,0,0,0-5.95581-.99032,40.62111,40.62111,0,0,0-5.86792.50544,25.28074,25.28074,0,0,1-3.301.32947,17.80291,17.80291,0,0,1-5.781-1.18585C1.5,29.85416,1.5,28.00817,1.5,27.40156c0-2.68369,1.21216-4.06977,2.61646-5.67567,1.37792-1.57627,3.09277-3.538,3.09277-6.59133,0-3.15-2.37158-6.00685-4.49341-7.93231l7.7439-5.00592a33.11246,33.11246,0,0,0,6.07373.52857,27.0933,27.0933,0,0,0,5.165-.577A31.52748,31.52748,0,0,1,28,1.5M28,0a32.80563,32.80563,0,0,0-6.5708.6723,25.52043,25.52043,0,0,1-4.89575.5526A30.24233,30.24233,0,0,1,10.15894.60457L.18994,7.04889c1.783,1.36574,5.51929,4.64026,5.51929,8.08567,0,2.49053-1.38428,4.07373-2.72266,5.60479C1.51831,22.41831,0,24.15446,0,27.40156c0,2.29711,1.48755,4.06694,4.42017,5.26016a19.21494,19.21494,0,0,0,6.34643,1.29645,26.26171,26.26171,0,0,0,3.50879-.34394,39.38391,39.38391,0,0,1,5.66016-.491,22.313,22.313,0,0,1,5.53711.93067A14.1241,14.1241,0,0,1,28,35a14.12752,14.12752,0,0,1,2.5271-.94607,22.30913,22.30913,0,0,1,5.53711-.93067,39.37019,39.37019,0,0,1,5.65967.491,26.27907,26.27907,0,0,0,3.50952.34394,19.21024,19.21024,0,0,0,6.3457-1.29645C54.51245,31.4685,56,29.69867,56,27.40156c0-3.2471-1.51831-4.98325-2.98657-6.66221-1.33863-1.53106-2.72364-3.11426-2.72364-5.60479,0-3.44541,3.73731-6.71993,5.51954-8.08567L45.84106.60457a30.24435,30.24435,0,0,1-6.37451.62033A25.53286,25.53286,0,0,1,34.57007.6723,32.79959,32.79959,0,0,0,28,0Z" fill="#fff" /><path d="M49.15388,11.56548H6.8563v-1.0806H49.15388Z" fill="#fff" /><path d="M14.70112,8.24049V7.58327h-.58339V4.75146h.58339V4.09284H12.661v.65862h.5818V7.58327H12.661v.65722Z" fill="#fff" /><path d="M16.86274,8.24049V7.58327h-.58328V4.75146h.58328V4.09284h-2.04v.65862h.5817V7.58327h-.5817v.65722Z" fill="#fff" /><path d="M23.334,8.24049,22.2818,6.76937a1.18938,1.18938,0,0,0-.15883-.17344.7345.7345,0,0,0-.18018-.11746,1.59508,1.59508,0,0,0,.38638-.15658,1.14452,1.14452,0,0,0,.3-.24475,1.0843,1.0843,0,0,0,.19467-.33077,1.1722,1.1722,0,0,0,.07032-.41592,1.22731,1.22731,0,0,0-.113-.54268,1.013,1.013,0,0,0-.33055-.38664,1.54239,1.54239,0,0,0-.5375-.23135,3.15925,3.15925,0,0,0-.73534-.07694H19.579V8.24049h.872V6.62673h.29926q.08549,0,.15036.00486a.7537.7537,0,0,1,.11537.01675.37467.37467,0,0,1,.16951.08742.60987.60987,0,0,1,.0755.08115q.03742.04749.08322.11044l.9315,1.31314ZM20.451,5.98626V4.743h.63975a1.82619,1.82619,0,0,1,.38946.03706.82968.82968,0,0,1,.281.112.48746.48746,0,0,1,.16951.18521.5616.5616,0,0,1,.05646.2587.67891.67891,0,0,1-.055.28247.5107.5107,0,0,1-.1657.20347A.77423.77423,0,0,1,21.487,5.945a1.67969,1.67969,0,0,1-.39633.04128Z" fill="#fff" /><path d="M26.92089,8.24049V7.57063h-2.2294V6.45048h1.895V5.78073h-1.895V4.76259H26.898V4.09284H23.81646V8.24049Z" fill="#fff" /><path d="M31.17889,7.53843q-.08852.02253-.18315.03922t-.19774.02864q-.10311.01183-.2154.01815t-.239.00638a2.29251,2.29251,0,0,1-.423-.03642,1.36016,1.36016,0,0,1-.3497-.1126,1.00492,1.00492,0,0,1-.47331-.47751,1.50212,1.50212,0,0,1-.11991-.3741,2.51064,2.51064,0,0,1-.04039-.4719,2.06547,2.06547,0,0,1,.08628-.62653,1.13515,1.13515,0,0,1,.26256-.45374,1.11525,1.11525,0,0,1,.4436-.27555,1.90849,1.90849,0,0,1,.62611-.09293,3.66094,3.66094,0,0,1,.41536.023q.2016.02319.38406.06225.18242.03922.34431.09023t.29619.10557V4.28584q-.0947-.04215-.19849-.07943t-.21677-.06818q-.1131-.031-.23676-.05619T30.885,4.03849q-.13514-.01832-.2818-.02745T30.29783,4.002a3.149,3.149,0,0,0-.68713.06992,2.28507,2.28507,0,0,0-.56425.20131,1.814,1.814,0,0,0-.44127.32029,1.77533,1.77533,0,0,0-.31765.42792,2.09311,2.09311,0,0,0-.19235.52571,2.75815,2.75815,0,0,0-.06493.61118,2.78117,2.78117,0,0,0,.14656.9439,1.752,1.752,0,0,0,.43059.68034,1.82053,1.82053,0,0,0,.7032.41182,3.06324,3.06324,0,0,0,.96132.13842q.171,0,.33595-.00983.16481-.00973.32516-.02929t.31237-.04689q.1518-.02724.29312-.06084t.271-.072q.12992-.03858.24586-.0818V6.23793h-.87651Z" fill="#fff" /><path d="M34.72892,8.24049V7.58327h-.58328V4.75146h.58328V4.09284h-2.04v.65862h.5818V7.58327h-.5818v.65722Z" fill="#fff" /><path d="M38.2577,8.25378a1.99771,1.99771,0,0,0,.53676-.22163,1.64234,1.64234,0,0,0,.4032-.3419,1.82547,1.82547,0,0,0,.27557-.4398,2.30445,2.30445,0,0,0,.15809-.51534,3.105,3.105,0,0,0,.05118-.5685,3.37813,3.37813,0,0,0-.04738-.572,2.26617,2.26617,0,0,0-.15121-.516,1.79968,1.79968,0,0,0-.2687-.439,1.56372,1.56372,0,0,0-.39929-.33984,2.007,2.007,0,0,0-.5414-.21958,2.83191,2.83191,0,0,0-.69781-.07824,2.71287,2.71287,0,0,0-.68258.079,2.00847,2.00847,0,0,0-.53823.22088,1.617,1.617,0,0,0-.40236.34125,1.85406,1.85406,0,0,0-.27567.4398,2.25077,2.25077,0,0,0-.15809.51534,3.15237,3.15237,0,0,0-.05033.56839,3.3659,3.3659,0,0,0,.04737.572,2.27721,2.27721,0,0,0,.15111.51674,1.78161,1.78161,0,0,0,.2688.439,1.57946,1.57946,0,0,0,.39929.33984,1.98442,1.98442,0,0,0,.542.22023,2.84106,2.84106,0,0,0,.69865.07834A2.69917,2.69917,0,0,0,38.2577,8.25378Zm-1.06812-.67407a1.03193,1.03193,0,0,1-.30687-.13908.94123.94123,0,0,1-.22978-.22076,1.23236,1.23236,0,0,1-.15883-.2922,1.67611,1.67611,0,0,1-.09168-.35357,2.86974,2.86974,0,0,1,0-.81347A1.67731,1.67731,0,0,1,36.4941,5.407a1.23348,1.23348,0,0,1,.15883-.29208.94376.94376,0,0,1,.22978-.22088,1.03721,1.03721,0,0,1,.30687-.13907,1.57611,1.57611,0,0,1,.77352,0,1.04013,1.04013,0,0,1,.30613.13907.95848.95848,0,0,1,.23052.22088,1.19977,1.19977,0,0,1,.15883.29208,1.70881,1.70881,0,0,1,.09083.35368,2.859,2.859,0,0,1,0,.81347,1.70759,1.70759,0,0,1-.09083.35357,1.19873,1.19873,0,0,1-.15883.2922.95588.95588,0,0,1-.23052.22076,1.0348,1.0348,0,0,1-.30613.13908,1.57263,1.57263,0,0,1-.77352,0Z" fill="#fff" /><path d="M44.71908,8.19532V4.04767h-.84595V6.45156q0,.06582.00074.14059t.00455.15582l.00772.16576q.00379.08461.00983.16987-.04726-.081-.09771-.16284-.05028-.08186-.09919-.1595-.049-.07748-.09855-.15031-.04965-.07261-.097-.13842L41.7628,4.04767h-.95593V8.19532h.84595V5.79575q0-.06435-.00306-.13918l-.006-.15593q-.00318-.081-.00846-.16641t-.01142-.172q.10073.16792.19922.32093.0985.15318.19319.286l1.74541,2.42615Z" fill="#fff" /></g><text fill="#fff" font-family="AudiTypeDisplayHigh-Bold, Audi Type Display High" font-size="19" font-weight="700" id="Text" transform="translate(8.16211 28.7653)">{value}</text></g></svg>