<svg xmlns="http://www.w3.org/2000/svg" viewBox="0 0 64 35">
<g id="ri_rectangle_orange_3dig">
<g id="Schild">
<path d="M.00467,3.77076A3.79858,3.79858,0,0,1,1.0866,1.1041,3.65089,3.65089,0,0,1,3.70026,0H60.34879a3.61013,3.61013,0,0,1,2.58535,1.09239,3.75956,3.75956,0,0,1,1.07053,2.63775V31.27946a3.74873,3.74873,0,0,1-1.06843,2.63135A3.59534,3.59534,0,0,1,60.35819,35H3.67346a3.61815,3.61815,0,0,1-2.594-1.09659A3.77181,3.77181,0,0,1,.00467,31.256Z" fill="#fe9b06" fill-rule="evenodd" />
</g>
<text font-family="AudiTypeDisplayHigh-Normal, Audi Type Display High" font-size="22" id="Text" text-anchor="middle" transform="translate(32 25.22952)">{value}</text>
</g>
</svg>