<svg xmlns="http://www.w3.org/2000/svg" viewBox="0 0 64 35">
<g id="ri_hexagon_green_white_green_3dig">
<g id="Schild">
<path d="M0,3.65662A3.53992,3.53992,0,0,1,1.082,1.10369,3.56836,3.56836,0,0,1,3.65811,0H60.30668A3.69137,3.69137,0,0,1,64,3.691V31.28118A3.683,3.683,0,0,1,60.27867,35H3.66882a3.61866,3.61866,0,0,1-2.59391-1.09609A3.68285,3.68285,0,0,1,0,31.29508Z" fill="#409d27" fill-rule="evenodd" />
<path d="M3.66849,34a2.61486,2.61486,0,0,1-1.87881-.7958A2.67639,2.67639,0,0,1,1,31.29524V3.65691A2.552,2.552,0,0,1,1.796,1.8041,2.56729,2.56729,0,0,1,3.65774,1H60.307A2.69163,2.69163,0,0,1,63,3.69109V31.2806A2.68334,2.68334,0,0,1,60.27871,34Z" fill="#fff" fill-rule="evenodd" />
<path d="M2.02535,6.162a.73576.73576,0,0,1,.2322-.4842.65479.65479,0,0,1,.4709-.2012l29.3048-2.9811,29.3898,2.9811a.65115.65115,0,0,1,.4694.2004.744.744,0,0,1,.1572.5194V28.9241a.5941.5941,0,0,1-.6066.6624l-29.3993,2.9186L2.78095,29.5865a.70477.70477,0,0,1-.5078-.2162.793.793,0,0,1-.2478-.5223Z" fill="#409d27" fill-rule="evenodd" />
</g>
<text fill="#fff" font-family="AudiTypeDisplayHigh-Normal, Audi Type Display High" font-size="22" id="Text" text-anchor="middle" transform="translate(32 25.2277)">{value}</text>
</g>
</svg>