<svg xmlns="http://www.w3.org/2000/svg" id="ri_rectangle_green_white_5dig" viewBox="0 0 96 35">
<g id="Schild">
<path d="M3.61621,34.25A2.86616,2.86616,0,0,1,.75,31.38477V3.64063A2.88991,2.88991,0,0,1,3.64258.75H92.39673A2.852,2.852,0,0,1,95.25,3.60156V31.4082A2.84324,2.84324,0,0,1,92.406,34.25Z" fill="#409d27" fill-rule="evenodd" />
<path d="M92.39648,1.5A2.10223,2.10223,0,0,1,94.5,3.6016V31.40772A2.09337,2.09337,0,0,1,92.40576,33.5H3.61621A2.116,2.116,0,0,1,1.5,31.385V3.64082A2.14015,2.14015,0,0,1,3.64258,1.5h88.7539m0-1.5H3.64258A3.64044,3.64044,0,0,0,0,3.64082V31.385A3.61632,3.61632,0,0,0,3.61621,35H92.40576A3.59329,3.59329,0,0,0,96,31.40772V3.6016A3.60186,3.60186,0,0,0,92.39648,0Z" fill="#fff" />
</g>
<text fill="#fff" font-family="AudiTypeDisplayHigh-Normal, Audi Type Display High" font-size="22" id="Text" text-anchor="middle" transform="translate(48 25.22952)">{value}</text>
</svg>