<svg xmlns="http://www.w3.org/2000/svg" id="Icon" viewBox="0 0 40 40"><defs /><path d="M25.463,7.435a.1591.1591,0,0,1-.15938-.161.15939.15939,0,1,1,.31877,0A.15915.15915,0,0,1,25.463,7.435Z" fill="#fff" id="path8" /><g id="path10"><path d="M5.99951,33.541C5.5,33.34277,5.5,33.27441,5.5,33.16992V1.84033A.34251.34251,0,0,1,5.83545,1.5H34.16113A.34415.34415,0,0,1,34.5,1.84033V33.16992c0,.11231,0,.17969-.5166.377L20.209,38.46973Z" fill="#fff" /><path d="M34,2V33.0003c-.04313.01914-.1002.04277-.17549.07146L20.20662,37.93983,6.20351,33.08353c-.09-.03563-.15568-.06366-.20351-.08558V2H34m.16112-1H5.83563A.84153.84153,0,0,0,5,1.84018V33.17c0,.46356.323.64063.83563.84344L20.21165,39l13.94947-4.9866C34.69466,33.81059,35,33.63353,35,33.17V1.84018A.84432.84432,0,0,0,34.16112,1Z" /></g><path d="M32.99684,9.81818h-.80745V9.5916c-.04581.06259-.188.26517-.68937.25071l.00588.00395h-.04817c-.72068,0-1.34733-.54474-1.46065-1.57633a.65119.65119,0,0,0-.13249.077.78675.78675,0,0,0-.06773.05312.50657.50657,0,0,0-.08905.07227,1.82025,1.82025,0,0,1-1.77158,1.37386,1.11425,1.11425,0,0,1-1.20276-1.19069l.00588-.48688a1.7074,1.7074,0,0,0-.28682.14927.45466.45466,0,0,1-.06989.04818c-.12045.09656-.22658.1785-.31575.2603A1.64618,1.64618,0,0,1,24.56526,9.8412,1.79237,1.79237,0,0,1,22.95034,7.913a2.18168,2.18168,0,0,1,.30127-1.12319h-.82193l-.00592,2.12111c0,.44832.15915.6508.47724.68937l-.15914.2555c-.7568-.07227-1.37861-.38085-1.36416-1.13764l-.004-.52063a1.14488,1.14488,0,0,0-.29165.14947.50606.50606,0,0,0-.06516.05311,1.44164,1.44164,0,0,0-.60739,1.07986v.33262H19.38516V8.19761a1.35033,1.35033,0,0,0-.3013.14947.38328.38328,0,0,0-.06733.05312,1.49781,1.49781,0,0,0-.60981.97859v.43386H17.392V7.18536c0-.22187-.11808-.33744-.28921-.33744h-.02883c-.16388,0-.43627.15915-.44107,1.05085l.002,1.91379h-1.0292V8.19763a1.20684,1.20684,0,0,0-.28441.14474c-.02231.01974-.046.03376-.06773.05311a1.42541,1.42541,0,0,0-.60738,1.10875l-.002.31334h-.805V9.591c-.046.06279-.19034.26515-.69418.25068l.00987.004h-.05054a1.50549,1.50549,0,0,1-1.44135-1.43651,1.46433,1.46433,0,0,0-.593,1.0943v.30852H9.94909L9.955,7.09311l-.91835,1.8077-.9111-1.72576V9.81194H7V4.64425H8.022L9.03912,6.63513l.98342-1.99088H11.071V8.36574a1.66584,1.66584,0,0,0,.364-.14928.42028.42028,0,0,1,.06773-.04817c.04087-.03851.08668-.077.12538-.11571a4.09387,4.09387,0,0,1,.04344-.51581,1.85754,1.85754,0,0,1,.16626-.4676c.00987-.01975.01777-.02883.02646-.04818a1.80194,1.80194,0,0,1,1.598-.93521h1.18347V8.36591a1.60669,1.60669,0,0,0,.36156-.1542c.01974-.01383.04344-.03377.06733-.04818a1.41368,1.41368,0,0,0,.53267-.98342V6.08581h1.02439V6.2497a1.111,1.111,0,0,1,.6966-.16389h.02646c.73754,0,1.0557.35672,1.0557,1.1425l.002,1.14734a1.76175,1.76175,0,0,0,.35673-.15915c.0223-.01975.046-.03377.06515-.04818a1.45052,1.45052,0,0,0,.552-1.07985V6.08578h1.02439V8.38037a1.88834,1.88834,0,0,0,.36156-.16389.27359.27359,0,0,1,.06516-.04818,1.44165,1.44165,0,0,0,.54714-1.07015V6.78963h-.41457V6.32685h.41457V4.64443H22.4306V6.32685h1.21483a1.46771,1.46771,0,0,1,.92072-.34711,1.79889,1.79889,0,0,1,1.61731,1.93309,2.15981,2.15981,0,0,1-.01777.25546c.01382-.00987.02467-.01974.0385-.02882a1.42845,1.42845,0,0,0,.53026-1.05571V4.64449H27.795v1.398a.94045.94045,0,0,1,.16882-.00987,1.81391,1.81391,0,0,1,1.77159,1.47024,2.47373,2.47373,0,0,1,.02882.53028,1.49784,1.49784,0,0,0,.23869-.33262,1.61241,1.61241,0,0,1,.02468-.16389,1.7579,1.7579,0,0,1,.16388-.46759c.008-.01974.0158-.02882.02468-.04818a1.80753,1.80753,0,0,1,1.598-.9352H33V9.81686Zm-1.9692-1.87045c0,.80025.26994,1.1039.54232,1.1039.13743,0,.40252-.12045.40734-.58812l.00392-1.64382h-.171c-.42179,0-.78333.48688-.78333,1.128ZM27.95691,6.78594a.38247.38247,0,0,0-.16131.03377l.002,1.85589c-.01382.27.123.376.26032.376.34467,0,.66524-.45794.66524-1.1039,0-.64115-.34226-1.16179-.76648-1.16179ZM24.568,6.75712c-.3254,0-.59052.5206-.59052,1.15694,0,.64113.26512,1.16179.59052,1.16179.323,0,.58812-.52063.58812-1.16179C25.15615,7.2777,24.891,6.75712,24.568,6.75712ZM12.67561,7.9478c0,.80022.27,1.1039.53991,1.1039.13743,0,.40494-.12045.40973-.58812l.004-1.64382h-.17356c-.42177,0-.78093.48686-.78093,1.128Z" fill="#369141" id="path14" /><path d="M19.90517,4.77489a.4965.4965,0,1,1,0,.98847.52206.52206,0,0,1-.54389-.492A.52565.52565,0,0,1,19.90517,4.77489Z" fill="#369141" id="path16" /><text font-family="AudiTypeDisplayHigh-Bold, Audi Type Display High" font-size="13px" font-weight="700" isolation="isolate" transform="translate(6.42744 27.1882)">{value}</text></svg>