<svg xmlns="http://www.w3.org/2000/svg" data-name="Layer 1" id="Layer_1" viewBox="0 0 40 40"><defs /><rect height="40" rx="2" width="40" /><rect fill="#fff" height="38" rx="1.9" width="38" x="1" y="1" /><path d="M29.89133,36.52933c-.5296-.30453-1.01446-.58247-1.07753-.61764-.11341-.06329-.11053-.07139.27541-.77461.2145-.39086.39926-.72006.41058-.73153a9.99694,9.99694,0,0,1,.93093.49l.91033.5109.66747-.037.66746-.037,1.29854-1.27986,1.29853-1.27987.07387-1.47193.07387-1.47194-.16687-1.03093L35.08705,27.767l-.85387-1.671-.85393-1.671-.53643-2.9714-.53646-2.9714.37853-1.95647.37852-1.95646-1.426-4.8542c-.78434-2.6698-1.43774-4.86607-1.452-4.88054a5.94271,5.94271,0,0,0-.74554-.05484l-.7196-.02849-.232.48244-.232.48244L21.0776,5.7027l-7.17866-.01339-.22389-.55459-.22389-.55457L9.17262,4.56663,4.89409,4.55312l.03066.15557c.01686.08555.105.58129.19587,1.10166l.1652.94607.7866.061c1.07547.08339,1.0932.08209,1.42794-.10444l.2956-.16474,1.4834.32481c.81586.17864,1.5368.34767,1.60213.37563s1.02533.75646,2.1334,1.61886l2.01467,1.56807,2.19619-.55654,2.1962-.55654,1.13134.6263c.62224.34447,1.14193.637,1.15486.65015a9.74853,9.74853,0,0,1-.784,1.4548c-.02472,0-.4243-.21244-.88793-.4721l-.843-.47209-2.26107.5741c-1.2436.31575-2.28553.55943-2.3154.54151s-1.038-.7962-2.24033-1.7296l-2.18607-1.697-1.0168-.221c-.55922-.12156-1.054-.221-1.09946-.221a1.03525,1.03525,0,0,0-.31048.12826l-.22776.12826-1.8258-.13855L3.88425,8.336,3.428,5.77148c-.251-1.41054-.46871-2.62994-.4839-2.7098l-.02761-.14525H14.577l.21965.55459.21964.55458H27.22135l.21847-.47716.21848-.47716,1.88406.03545c1.03627.0195,1.88767.03814,1.89214.04142.0044.00324.75726,2.5558,1.673,5.67233l1.66493,5.6664-.38717,2.0064-.38714,2.0064.47574,2.65307.47575,2.65306.85967,1.68987.85967,1.68986L36.876,28.427l.20709,1.24147-.0919,1.91847-.09189,1.91846L35.16,35.23135l-1.73933,1.72593-.34653.03243c-.19058.01783-.76814.04614-1.28341.06291l-.93686.03051Z" id="path1341" /><text font-family="AudiTypeDisplayHigh-Bold, Audi Type Display High" font-size="21px" font-weight="700" id="Nummer" transform="translate(2.46821 30.89027)">{value}</text></svg>