<?xml version="1.0" encoding="UTF-8"?>
<svg id="Ebene_1" data-name="Ebene 1" xmlns="http://www.w3.org/2000/svg" viewBox="0 0 66 36">
  <defs>
    <style>
      .cls-1 {
        fill: #fff;
      }

      .cls-2, .cls-3 {
        fill: #dfd933;
      }

      .cls-4 {
        fill: #578d87;
        fill-rule: evenodd;
      }

      .cls-3 {
        font-family: AudiTypeDisplayHigh-Bold, 'Audi Type Display High';
        font-size: 14px;
        font-weight: 700;
        isolation: isolate;
      }
    </style>
  </defs>
  <g id="ri_southafrica_provincial_4dig" data-name="ri southafrica provincial 4dig">
    <g id="Schild">
      <polygon class="cls-4" points="1.28298 18 32.99998 .924 64.71698 18 32.99998 35.076 1.28298 18"/>
      <path class="cls-1" d="M32.99998,1.84835l30.43286,16.15165-30.43286,16.15165L2.56712,18,32.99998,1.84835m0-1.84835L-.00002,18l33,18,33-18L32.99998,0Z"/>
      <path class="cls-2" d="M35.57492,11.013s-1.8841-1.8469-1.9696-1.8859c.17729-.04601,.3478-.11499,.5072-.2052,.14852-.08374,.28171-.19211,.3939-.3205,.11027-.12803,.19682-.27469,.2556-.4331,.06344-.17456,.09468-.35919,.0922-.5449,.00553-.2451-.04524-.4882-.1484-.7106-.09917-.20301-.24856-.37732-.434-.5064-.21374-.14507-.45324-.24794-.7056-.3031-.31671-.07108-.64064-.10488-.9652-.1007h-1.6426v5.0104l1.1161,.0022v-1.3842h.0508c.0748,0,.1406,.00177,.1974,.0053,.0568,.0035,.0218,.0095,.0659,.018,.04086,.00752,.08081,.01932,.1192,.0352,.03649,.01559,.07113,.03518,.1033,.0584,.03557,.02598,.06876,.05506,.0992,.0869,.03267,.034,.06907,.07347,.1092,.1184l.9387,1.0598h1.8167Zm-3.5004-2.6239v-1.3405h.6123c.24347,.00515,.48386,.05554,.7089,.1486,.08892,.04138,.16561,.10508,.2226,.1849,.0503,.07657,.07614,.26661,.0741,.3582,.00215,.09876-.02278,.19621-.0721,.2818-.05323,.08577-.12829,.15586-.2175,.2031-.11485,.06052-.23876,.10199-.3669,.1228-.11381,.0303-.23137,.04414-.3491,.0411h-.6123Z"/>
    </g>
  </g>
  <g id="ri_southafrica_metro_4dig" data-name="ri southafrica metro 4dig">
    <text id="Text" class="cls-3" transform="translate(33.0 23.15442)" text-anchor="middle">{value}</text>
  </g>
</svg>