<svg xmlns="http://www.w3.org/2000/svg" data-name="Ebene 1" id="Ebene_1" viewBox="0 0 64 40"><defs /><path d="M32.04206,38.5c31.13827-4.89,30.45319-18,30.45319-18-4.43413-3.74311,0-7,0-7v-8L56.60109,3C42.43348,5.86238,32.0438,2.4968,32.0438,2.4968l-.19176,0S21.46236,5.86238,7.29476,3L1.40059,5.5v8s4.43413,3.25689,0,7c0,0-.68508,13.11,30.4532,18Z" fill="#fff" stroke="#000" stroke-miterlimit="10" stroke-width="1.40169px" /><g id="text"><path d="M22.58359,12.3102V8.37654l-.92916,2.487-.95238-2.487V12.3102h-.98723V5.67152h.98723l.95238,2.34831.92916-2.34831h.97561V12.3102h-.97561" id="path4702" /><path d="M25.24983,12.3102V5.67152H28.1186v.862H26.23706V8.23781h1.25436v.88186H26.23706v2.32849h1.98607v.862h-2.9733" id="path4704" /><path d="M31.5719,12.3102l-.76655-2.00151-.75494,2.00151H28.98188l1.31243-3.39861L29.04,5.67152h1.09176l.67364,1.843.72009-1.843h1.05692L31.328,8.91159l1.31243,3.39861H31.5719" id="path4706" /><path d="M33.86993,12.3102V5.67152h.98722V12.3102h-.98722" id="path4708" /><path d="M39.682,10.74466q0,.19818-.01161.327a1.98222,1.98222,0,0,1-.01161.2279,1.10817,1.10817,0,0,1-.03485.16844q-.02323.07927-.05807.16845a.935.935,0,0,1-.46457.5846,1.80412,1.80412,0,0,1-.89432.20807,2.03167,2.03167,0,0,1-.97561-.20807,1.33,1.33,0,0,1-.55749-.68369A4.53208,4.53208,0,0,1,36.43,10.46723a12.1244,12.1244,0,0,1-.0813-1.46646q0-.2279.01161-.49542t.03485-.53506q.03484-.27744.06968-.52515t.08131-.44588a1.90667,1.90667,0,0,1,.52265-1.08994,1.90446,1.90446,0,0,1,2.14867.00991,1.30545,1.30545,0,0,1,.46458.94131H38.6716a.41107.41107,0,0,0-.1626-.30717.48362.48362,0,0,0-.32521-.109.54989.54989,0,0,0-.41812.15854,1.15876,1.15876,0,0,0-.2439.48551,3.49686,3.49686,0,0,0-.09292.40625q-.02323.19818-.04646.42607-.01161.218-.02323.48551V9.6151q.01161.25762.02323.4756.02323.20808.04646.40625.03485.18826.09292.39634a1.48008,1.48008,0,0,0,.23229.50533.50517.50517,0,0,0,.39489.16845.444.444,0,0,0,.39489-.18826,1.17474,1.17474,0,0,0,.12776-.63415h1.01046" id="path4710" /><path d="M44.53145,8.981q0,.26754,0,.63415a6.23259,6.23259,0,0,1-.04646.74313,4.28475,4.28475,0,0,1-.13938.763,1.99484,1.99484,0,0,1-.302.66387,1.4932,1.4932,0,0,1-.52265.4657,1.5805,1.5805,0,0,1-.78978.17835,1.67476,1.67476,0,0,1-.813-.17835,1.64238,1.64238,0,0,1-.52265-.4657,2.36064,2.36064,0,0,1-.302-.66387,5.08557,5.08557,0,0,1-.12776-.76295Q40.931,9.9718,40.931,9.6151V8.3369q0-.3666.03484-.74314a4.6103,4.6103,0,0,1,.151-.73322,2.08737,2.08737,0,0,1,.302-.644,1.43278,1.43278,0,0,1,.511-.45579,1.648,1.648,0,0,1,.8014-.17836,1.5806,1.5806,0,0,1,.78978.17836,1.40688,1.40688,0,0,1,.52265.45579,1.88761,1.88761,0,0,1,.302.654,3.86924,3.86924,0,0,1,.13938.73322,6.067,6.067,0,0,1,.04646.74314q0,.35671,0,.63414m-1.03369,0q0-.13871-.01161-.37652,0-.2378-.02323-.51524-.02323-.28734-.06969-.57469a2.55334,2.55334,0,0,0-.13937-.53506A1.16481,1.16481,0,0,0,43.0448,6.593a.39816.39816,0,0,0-.31359-.14863.49308.49308,0,0,0-.37166.15854,1.17607,1.17607,0,0,0-.23229.39634,3.1708,3.1708,0,0,0-.12776.53505q-.03484.29727-.05807.5846-.01162.27745-.01162.51525.01161.2279.01162.34679,0,.109-.01162.3468,0,.2279.01162.51524.02322.28736.05807.59451a3.42547,3.42547,0,0,0,.12776.55487,1.44014,1.44014,0,0,0,.23229.41616.493.493,0,0,0,.37166.15854.45728.45728,0,0,0,.36005-.15854,1.26293,1.26293,0,0,0,.22067-.41615,2.32343,2.32343,0,0,0,.12776-.55488q.03484-.30715.04646-.59451a3.95709,3.95709,0,0,0,.01161-.51524V8.981" id="path4712" /></g><text font-family="AudiTypeDisplayHigh-Bold, Audi Type Display High" font-size="18px" font-weight="700" isolation="isolate" transform="translate(6.94263 28.96484)">{value}</text><line fill="none" stroke="#000" stroke-miterlimit="10" x1="1.5" x2="62.5" y1="13.5" y2="13.5" /></svg>