<svg xmlns="http://www.w3.org/2000/svg" id="Icon" viewBox="0 0 40 40"><defs /><rect fill="#260d0d" height="40" rx="2" width="40" /><rect fill="#ffca08" height="38" rx="2" width="38" x="1" y="1" /><polygon fill="#260d0d" id="polygon2379" points="6.236 10.208 5.369 10.208 4.7 6.542 4.031 10.208 3.132 10.208 2.024 3.188 3.007 3.188 3.613 6.926 4.292 3.188 5.097 3.188 5.766 6.926 6.383 3.188 7.376 3.188 6.236 10.208" /><polygon fill="#260d0d" id="polygon2381" points="10.881 7.03 10.881 10.208 9.867 10.208 9.867 7.03 8.121 3.188 9.187 3.188 10.379 5.722 11.55 3.188 12.637 3.188 10.881 7.03" /><path d="M17.63261,6.68744a8.45823,8.45823,0,0,1-.09407,1.37071A4.52148,4.52148,0,0,1,17.225,9.12773a2.12084,2.12084,0,0,1-.65848.91381,1.67593,1.67593,0,0,1-.99294.29075,1.71484,1.71484,0,0,1-1.03476-.29075,2.18653,2.18653,0,0,1-.65848-.91381,4.75362,4.75362,0,0,1-.31356-1.08,8.45828,8.45828,0,0,1-.09407-1.37072,8.63983,8.63983,0,0,1,.09407-1.37072,4.38231,4.38231,0,0,1,.31356-1.06957,2.11426,2.11426,0,0,1,.66893-.90343A1.72915,1.72915,0,0,1,15.57356,3.053a1.68355,1.68355,0,0,1,1.00339.28037,2.09693,2.09693,0,0,1,.65848.9242c.07317.17653.13588.35306.18814.51921a4.68412,4.68412,0,0,1,.12542.55036c.03136.18692.05226.3946.07317.62306C17.62216,6.17861,17.63261,6.41745,17.63261,6.68744Zm-.972,0c0-.19731-.01045-.37384-.02091-.54-.01045-.15577-.0209-.31153-.0418-.44653s-.04181-.27-.07317-.3946l-.09407-.37383a1.74507,1.74507,0,0,0-.34491-.68536.71963.71963,0,0,0-.52261-.20768c-.439,0-.74209.29076-.89887.87227a4.39285,4.39285,0,0,0-.17769.79959,8.65353,8.65353,0,0,0-.05226.9865c0,.18692,0,.36345.01045.51921s.02091.30114.04181.43614.04181.27.07317.405l.09407.405c.16723.58151.45989.87227.89887.87227a.71959.71959,0,0,0,.5226-.20768,1.63938,1.63938,0,0,0,.34492-.66459c.04181-.14538.07317-.27.10452-.405a4.03726,4.03726,0,0,0,.07317-.405,2.99568,2.99568,0,0,0,.03135-.44652A2.55968,2.55968,0,0,0,16.66057,6.68744Z" fill="#260d0d" id="path2383" /><polygon fill="#260d0d" id="polygon2385" points="22.67 10.208 22.67 6.272 21.374 10.208 20.057 6.272 20.057 10.208 19.044 10.208 19.044 3.188 20.057 3.188 21.374 7.124 22.67 3.188 23.705 3.188 23.705 10.208 22.67 10.208" /><rect fill="#260d0d" height="7.01973" id="rect2387" width="0.99294" x="25.2417" y="3.18795" /><polygon fill="#260d0d" id="polygon2389" points="30.99 10.208 28.806 5.504 28.806 10.208 27.792 10.208 27.792 3.188 28.806 3.188 30.75 7.404 30.75 3.188 31.764 3.188 31.764 10.208 30.99 10.208" /><path d="M37.07343,8.8785a1.96914,1.96914,0,0,1-.15679.47768,1.62177,1.62177,0,0,1-.61667.72689,1.68464,1.68464,0,0,1-.94068.25961,1.95909,1.95909,0,0,1-1.087-.30114,1.99438,1.99438,0,0,1-.72119-.90343,4.792,4.792,0,0,1-.27175-1.06957A10.09794,10.09794,0,0,1,33.248,5.39979a4.576,4.576,0,0,1,.26131-1.06957,1.83638,1.83638,0,0,1,.27175-.50883,1.87844,1.87844,0,0,1,.40763-.405A1.80063,1.80063,0,0,1,35.28612,3.053a1.80435,1.80435,0,0,1,.71074.135,1.75534,1.75534,0,0,1,.56441.36345,1.7937,1.7937,0,0,1,.38673.56075,2.00185,2.00185,0,0,1,.16723.71651H36.10138a.78744.78744,0,0,0-.25085-.57113.808.808,0,0,0-.59576-.21807.87773.87773,0,0,0-.80481.51921,2.558,2.558,0,0,0-.22995.79959,8.15566,8.15566,0,0,0-.08361,1.17341c0,.29076.01045.5919.03135.893a7.1636,7.1636,0,0,0,.115.86189,1.59892,1.59892,0,0,0,.37627.7892.8706.8706,0,0,0,.66893.27c.51215,0,.77345-.36344.77345-1.09034v-.4569h-.8048v-.9865h1.81865v1.4434A3.50194,3.50194,0,0,1,37.07343,8.8785Z" fill="#260d0d" id="path2391" /><path d="M19.33629,30.11423a.70617.70617,0,0,1,.54351-.24923l.25085-.30114s.36582.11423.36582.31153c0,0-.08361.15576.5226-.07269l.10453.0623-.28221.30115s-.68984.05192-.93023.35306a.58423.58423,0,0,0-.2613.3946l.40763.35306.24039-.405.209.25961.09407.02076s.18814-.42575.45989-.38421c0,0,.45989.20768.45989.4569,0,0-.35537.09346-.36582.24922l-.22994.08308-.09407.02077-.05226-.03116v.12461l.07316.03116s.19859-.05192.54351,1.36033l.22994-.14538.18814.04154s.15678-.05193.15678-.17653c0,0,.10452-.03116.09407.0623a.2828.2828,0,0,1-.17769.24922c-.14632.08307-.13587-.10384-.209-.07269-.08361.03116-.13587.06231-.13587.10384s.25085.09346.31356.21807-.03136.10384-.04181.08307-.15678-.03115-.16723-.01038-.25085.11423-.18814.20769a.32345.32345,0,0,0,.29266.17653c.115-.02077.13587-.09346.209-.07269s.08361.135.08361.135l.09407.02077.01046-.0623a.23257.23257,0,0,1,.115.31152c-.08362.22845.35537-.03115.33446-.0623s.05226.135,0,.18691.30311.15577.324.20769.04181.11422-.02091.10384c-.07316-.01038-.24039-.10384-.25085-.0623s.01046.08307.19859.17653l.209-.10385a.0549.0549,0,0,1,.05227.06231c0,.07269-.26131.12461-.12543.23883a.30331.30331,0,0,0,.28221.06231s.01045.09346.01045.18692.12542.09346.12542.09346l-.15678.16614.14633-.04154a.94714.94714,0,0,1,.06271.55037l.19859.07269-.01045.36345-.17769-.03116-.01045.18692.25085.22845-.07316.08307-.2613-.03115s-.08362-.01038-.115.20769a5.6516,5.6516,0,0,0-1.087.72689c-.09407.16615-.40763.01039-.40763.01039v-.15577l.09407-.10384-.08362-.0623-.115.01038-.0209.07269-.04181-.01038a.44146.44146,0,0,1,.2613-.42576.46281.46281,0,0,0-.10452-.34268,2.87531,2.87531,0,0,1-.15678-.95534s-.15678-.12462-.209-.04154a.45458.45458,0,0,0-.13588.3946c0,.30114.08362,1.568.08362,1.568s.21949.47767.30311.4569-.01046.1973-.06272.25961-.14633.11422-.44943-.11423c-.30311-.21807-.19859-1.13188-.19859-1.13188a3.58322,3.58322,0,0,1-.45989-1.48494l-.324-.15576-.10452.0623a.60783.60783,0,0,1-.439-.34268l-.18814.01039.03135-.44653s-.08361-.05192-.12542,0a5.73133,5.73133,0,0,0-.42853.64383c0,.05192.0209.12461.19859.12461.17768-.01039.324.27.33446.31152s.03136.1973.03136.1973l-.115.04154a.76224.76224,0,0,1-.47034-.24922s-.2822.07269-.12542.12461c.15678.0623.2613.27.439.31152.17769.03116.15678.22846.17769.28038s.39718.31153.33446.64382l-.554-.20768-.02091-.20769-.10452-.04154-.0209-.15576a3.23594,3.23594,0,0,0-.972-.68536l.16723-.2596a1.90127,1.90127,0,0,1-.7421-.32191c-.17768-.1973.33447-.46729.33447-.46729l.09407-.54-.2195-.3946s.02091-.85151.53306-.95535c0,0-.29266-.61267-.4808-.02077s-.115,1.24611-.67938,1.11111c0,0,.209-.37383.16723-.54l-.17768.01038a.961.961,0,0,1,.115-.16615c.03136-.03115,0-.17653,0-.17653l-.19859.01038s.17769-.11422.17769-.20768a.446.446,0,0,1,.08361-.20768L17.0891,32.648s.12543-.893.49125-.91381.70029.54.62712.74767c-.06271.20768.19859.32191.25085.34268a4.20239,4.20239,0,0,1,1.07656.24922l.08362-.27s.14633-.03115.19859.08307.08361-.15576.08361-.15576l-.115-.06231-.01045-1.00727s-.554-.42575-.57486-.63343.324-.57114.34492-.5919a.35721.35721,0,0,0,.03135-.12462l-.30311-.15576Z" fill="#260d0d" id="path2393" /><polygon fill="#ffca08" id="polygon2395" points="20.8 32.741 20.632 33.063 20.894 33.344 21.019 33.333 21.092 33.261 20.988 32.939 20.894 32.741 20.8 32.741" /><polygon fill="#ffca08" id="polygon2397" points="18.239 35.119 18.103 35.286 18.27 35.306 18.291 35.182 18.239 35.119" /><text font-family="AudiTypeDisplayHigh-Bold, Audi Type Display High" font-size="21px" font-weight="700" transform="translate(5.38296 28.5065)">{value}</text></svg>