<svg xmlns="http://www.w3.org/2000/svg" data-name="Layer 1" id="Layer_1" viewBox="0 0 40 40"><defs /><path d="M12.99967,21.40727V9.671H11.68121V7.83381h.15127a1.94142,1.94142,0,0,0,.9078-.23773,2.10668,2.10668,0,0,0,.75647-.67H15.334v14.4812Z" fill-rule="evenodd" /><path d="M28.31879,17.23582a4.063,4.063,0,0,1-.37822,1.73991,4.34793,4.34793,0,0,1-1.03749,1.40493,4.93424,4.93424,0,0,1-1.567.94014,5.41729,5.41729,0,0,1-1.94529.34587A5.27,5.27,0,0,1,21.44562,21.31a4.78581,4.78581,0,0,1-1.567-.98338,4.61293,4.61293,0,0,1-1.03744-1.46978,4.38288,4.38288,0,0,1-.37827-1.81554,11.55694,11.55694,0,0,1,.39983-3.00435A13.2751,13.2751,0,0,1,21.759,8.666a11.981,11.981,0,0,1,2.28028-1.9993L25.2064,8.61191a14.86957,14.86957,0,0,0-1.178,1.005,10.96312,10.96312,0,0,0-.92936,1.00505,9.57862,9.57862,0,0,0-.76731,1.09151,13.68308,13.68308,0,0,0-.67,1.2644q.62669-.108.96171-.1297.33508-.0216.76732-.02157a5.2997,5.2997,0,0,1,3.469,1.286,4.33835,4.33835,0,0,1,1.06985,1.40488A3.92072,3.92072,0,0,1,28.31879,17.23582Zm-2.29106-.04323a1.69362,1.69362,0,0,0-.20538-.79972,2.08405,2.08405,0,0,0-.56193-.67,2.94262,2.94262,0,0,0-.8429-.4539,3.04251,3.04251,0,0,0-1.02671-.17288,2.86036,2.86036,0,0,0-1.005.17288,3.014,3.014,0,0,0-.82123.4539,2.08564,2.08564,0,0,0-.562.67,1.69467,1.69467,0,0,0-.20528.79972,1.736,1.736,0,0,0,.20528.82133,2.20278,2.20278,0,0,0,.562.68084,2.86281,2.86281,0,0,0,1.82628.63762,2.951,2.951,0,0,0,1.01593-.17288,2.82825,2.82825,0,0,0,.83211-.46474,2.34625,2.34625,0,0,0,.57271-.68084A1.66594,1.66594,0,0,0,26.02773,17.19259Z" fill-rule="evenodd" /><rect height="40" rx="2" width="40" /><rect fill="#fff" height="38" rx="2" width="38" x="1" y="1" /><polygon fill-rule="evenodd" points="9.314 27.685 9.314 33.218 8.296 33.218 8.296 27.685 6.826 27.685 6.826 26.782 10.803 26.782 10.803 27.685 9.314 27.685" /><polygon fill-rule="evenodd" points="12.139 33.218 12.139 26.782 15.934 26.782 15.934 27.8 13.158 27.8 13.158 29.376 15.031 29.376 15.031 30.413 13.158 30.413 13.158 32.181 16.135 32.181 16.135 33.218 12.139 33.218" /><polygon fill-rule="evenodd" points="20.372 33.218 19.335 31.076 18.297 33.218 17.145 33.218 18.749 29.894 17.26 26.782 18.413 26.782 19.335 28.703 20.257 26.782 21.41 26.782 19.902 29.894 21.525 33.218 20.372 33.218" /><path d="M26.7982,33.21808l-.63406-1.80593H24.15649l-.634,1.80593H22.437l2.219-6.43606h1.0086l2.219,6.43606Zm-1.62344-4.64935-.66284,1.80592h1.28723Z" fill-rule="evenodd" /><path d="M33.17352,31.36414a2.02128,2.02128,0,0,1-.16327.81644,1.86207,1.86207,0,0,1-1.09995,1.023,2.26489,2.26489,0,0,1-.77322.1297,2.29743,2.29743,0,0,1-1.42659-.44667,2.94444,2.94444,0,0,1-.91736-1.18642l.97026-.35543a1.619,1.619,0,0,0,.55715.70617,1.40409,1.40409,0,0,0,.81654.245.98042.98042,0,0,0,.7252-.27385.91963.91963,0,0,0,.27375-.67728.783.783,0,0,0-.168-.5187,1.39471,1.39471,0,0,0-.43712-.341,3.99427,3.99427,0,0,0-.59072-.245q-.3218-.10573-.63883-.23061-.144-.05753-.35543-.16327a1.70032,1.70032,0,0,1-.40832-.293,1.65917,1.65917,0,0,1-.3361-.4659,1.51371,1.51371,0,0,1-.13937-.68207,1.89718,1.89718,0,0,1,.15371-.8021,1.436,1.436,0,0,1,.41789-.53792,1.71676,1.71676,0,0,1,.634-.30263,3.18542,3.18542,0,0,1,.802-.096,1.79689,1.79689,0,0,1,1.13841.35542,2.22778,2.22778,0,0,1,.69651.9606l-.90311.26906a1.06449,1.06449,0,0,0-.20162-.27863,1.01031,1.01031,0,0,0-.29307-.19215,1.18841,1.18841,0,0,0-.45624-.096,1.55174,1.55174,0,0,0-.36031.024.97192.97192,0,0,0-.33132.12.65034.65034,0,0,0-.23061.23539.617.617,0,0,0-.06724.36987.56047.56047,0,0,0,.2594.45624,2.49244,2.49244,0,0,0,.58593.27375q.34592.11535.74453.23539a2.71451,2.71451,0,0,1,.73486.34586,1.86,1.86,0,0,1,.56193.60507A1.97222,1.97222,0,0,1,33.17352,31.36414Z" fill-rule="evenodd" /><text font-family="AudiTypeDisplayHigh-Bold, Audi Type Display High" font-size="23px" font-weight="700" transform="translate(3.99073 21.66667)">{value}</text></svg>