<svg xmlns="http://www.w3.org/2000/svg" viewBox="0 0 45 35"><g id="ri_thailand_interstate_3dig"><g id="Schild"><rect fill="#4b70eb" height="33.49951" rx="2.0625" width="43.5" x="0.75024" y="0.75023" /><path d="M42.1875,1.5A1.314,1.314,0,0,1,43.5,2.81267V32.18733A1.314,1.314,0,0,1,42.1875,33.5H2.8125A1.314,1.314,0,0,1,1.5,32.18733V2.81267A1.314,1.314,0,0,1,2.8125,1.5h39.375m0-1.5H2.8125A2.81263,2.81263,0,0,0,0,2.81267V32.18733A2.81263,2.81263,0,0,0,2.8125,35h39.375A2.81256,2.81256,0,0,0,45,32.18733V2.81267A2.81256,2.81256,0,0,0,42.1875,0Z" fill="#fff" /><path d="M20.70444,7.56489c-.30474-.0338-.25094-.0507-.25094-.0507l-.141-.06081.0155.11151-.18843-.09511c-.20422-.0505-.23273-.15632-.34064-.23713l-.18793-.091.018-.08471-.08962-.05081V6.93841l-.10761-.06651-.08-.0079.0084-.11191-.07171-.05081c-.0017-.05181.0109-.10631-.05161-.14662l-.0022-.05651.25094-.20322.0359-.11862a.57487.57487,0,0,0,.28674-.20312c.05761-.01541.06771-.12052.07171-.23714a.37507.37507,0,0,0-.05381-.30474l-.11371-.09061-.0093.20553a.49022.49022,0,0,0-.14582-.25043c-.0097.0289-.025.042,0,.16932l-.06051.12732-.10081.09281-.12542-.03381-.018-.06781v.15242l.0359.05081a.33884.33884,0,0,0-.184.07021L18.8762,6.007l-.14342.13552-.03711-.17393-.21382-.31714-.06491-.22373-.10322.12672c-.053-.18992-.14012-.40475-.19712-.61428a7.40051,7.40051,0,0,1-.19033-.7451l-.002-.48356a3.41023,3.41023,0,0,1,.09161-.37535c.0001-.044.12632-.16382.08962-.20783l-.12792-.006-.26644.17532a1.77454,1.77454,0,0,0-.32264.508,2.52661,2.52661,0,0,0-.07171.57578,3.71438,3.71438,0,0,0,.16132.8128l.28684.64349.10752.15242-.32265-.42336L17.281,4.97405,17.20928,4.466l-.14332.30484-.05381.50806.03581.40636a3.61334,3.61334,0,0,0,.20152.46826l.30034.39545.19723.25393a2.49475,2.49475,0,0,1-.43026-.37254,1.3518,1.3518,0,0,1-.215-.37255.19968.19968,0,0,0-.07761.20732,2.7542,2.7542,0,0,0,.13742.52667,1.363,1.363,0,0,0,.21513.32174,2.66074,2.66074,0,0,0,.33444.31595l.43016.28783-.25093-.08461a3.90524,3.90524,0,0,1-.39435-.21893l-.167-.124c-.0489.0139-.0058.12441.05951.25823a1.68992,1.68992,0,0,0,.30474.40646,4.09516,4.09516,0,0,0,.44806.33864l.30474.11862.25093.0677c-.10241.0006.01291.08692-.484-.0677l-.43016-.15242L17.60363,8.09c-.0056.06151-.0269.11042.08961.27094l.215.25393.32264.20323.28684.13552.25093.0338.233.03391-.0359.0169h-.34055a2.44347,2.44347,0,0,1-.57357-.16932c.08841.09741.07131.16172.30474.30484a1.67585,1.67585,0,0,0,.41225.22012,2.17607,2.17607,0,0,0,.466.10162c.283.0217.43266.0319.57778.0417l.04961.026-.59148.017a3.40005,3.40005,0,0,1-.39435-.05081c-.11892-.0182-.28274-.10021-.35465-.0517l.14182.16232.23293.18632.19493.09251.19722.05081L19.145,10.122l-.0358.37245a1.21741,1.21741,0,0,0,.08961.40645,1.62857,1.62857,0,0,0,.64518.60968c.21943.12262.41036.21823.59148.30474l.233.11852.07171.11861-.07171.05081.10752.05081-.233.20322.018.01691-.16132.10161-.01791.06771a.71084.71084,0,0,0-.19722.13552H20.095l-.03581.10161-.14342-.06781-.17922-.22013c-.08721-.13562-.23443-.266-.28674-.33864l-.25093-.202a1.24988,1.24988,0,0,0-.17922-.08591l-.17.04731-.17062.139.10762.05081-.16133.13552-.0179.20312.07161.03391.04021-.09111.10321.0064-.08961.11861V12.696l.10751-.08471.05381.017h.17922l.08961.06771.08962.0169.063.13552.09832.0508c.08081.10512.08.12522.07171.163.0162.0065.0312.0138.0347.0277l.0259.05451.10072.06771.07651.134.13862.061v.11852l.0537.017.01221.09041.0595.12972-.07871.08011.0179.07891c.03821-.0195.06291-.06471.12422-.04051l.118-.10161c.0591-.0297.10251-.13342.14952-.22013-.038-.10051-.05361-.15852-.08-.237-.03661.0133-.024-.11271-.03581-.16932l.08961-.017.07161.017.05381-.10162.17922.08462.24484.0079-.00611-.06651a.26439.26439,0,0,1-.10141-.09831c-.04611-.02931-.0323-.101-.0297-.16483l.19712-.11851.12542-.11852-.10621.24153-.0013.18183a.39536.39536,0,0,0,.14341.13542l.05371-.18623.024.30354.06561.11982.10762.06771.0537-.08472.018-.15242.0358-.08461-.0179.06771v.23713l.06341.21893a.63242.63242,0,0,0,.17792.123L21.744,13.729l-.0358-.13551.0179-.18633.03911.0079.0068.23743.0407.12182.05441.12192.10861.0642.08832.04491h.22413l.0475-.04491v-.0578l-.12221-.07691-.02721-.16042.0204-.10912.04751-.12832h.034v.21173l.0339.19893.06121.10271.0543.12192.10872.0449.08141-.0513.0204-.10912h.04081l.07471.09622.163.0321.14932-.06421.14272-.16682.0339-.08341.02721-.08341.0271.09621.16982-.0192a.45916.45916,0,0,0,.18343-.21813l.0067-.13482-.02031-.10911-.07471-.16032.04751.0256.06791.13472.0204.16042.0136.0321.129-.12832.06791-.14121.0136-.16032-.06111-.14762-.0408-.07061.10871.07061.03391.14111.0272.09632.10191-.09632a.24528.24528,0,0,0,.03391-.20532.39205.39205,0,0,0-.10472-.232.60146.60146,0,0,0-.21442-.16582l-.10872-.032.0136-.09631.129.08981.23773.17972.25133.19893.08142.05771-.02711.09631-.08151.05771-.0136.077.15622.0064.14262-.05131.10191-.0385.13582.08981.07471.08341-.0272.11551-.06111.10272-.0068.08981-.05431.08981.0271.16042.06121.08341.129.10272.14942.0064.0475-.06421-.11541-.11552.08151-.09621.0339-.08981.10872-.14762.11541-.11551.01361-.07691.0679-.02571.16983-.19252.0135-.077.0408-.0064.09512-.077.0136-.08342.12221-.0321.06111-.06411.19023-.0129.06111-.0385.10181.12191.0476-.05131v-.14761l-.0544-.06411.0068-.07061.08151.05771v.0321l.06791-.077-.05431-.14752-.10191-.11552-.02711-.0385.08151-.0192-.0408-.10912-.14262-.0578-.14262-.01281-.16292.03851-.21743.154-.0203.0449-.08831.05131-.06111.09631-.07471.03851-.07481.14112-.04071.0449-.08831.03211-.0475.06411-.07471.0193-.0136.0449-.08152-.0064-.0407-.077h-.12232l-.0067-.08981-.14952-.0257-.0475-.10912-.095-.0064-.0408-.0577-.0068-.05131-.09511-.0257-.095-.05131-.0408-.05781.0475-.0449-.0339-.05131.07471-.12192.40755-.16682.06791-.0193.43466-.23743.16552-.08721.12342-.09372a.75677.75677,0,0,0,.10451-.12131l.08871-.14052.13582-.24383.0408-.308-.0068-.21173-.0407-.14112-.10872-.16052.18333-.032.231-.09631.129-.11551.0407-.02561.14262-.17322.04281-.0324c-.02441-.08021-.12572-.01491-.21063.0192l-.25324.06451-.25133.0257h-.24453V9.565l.29214-.03211.40745-.10911.326-.14112.24454-.17972.061-.04491.02721-.05771.10191-.11551a.18915.18915,0,0,0-.16982.0256l-.21733.08351-.25123.03851-.30564.0449-.12232-.0065.11552-.0384.21732-.02571.19013-.0513.28524-.10272.20382-.12831.19013-.16042.163-.16683.05751-.13961c-.10072-.01071-.20133.07591-.302.11391l-.36675.11552-.24253.0393-.22613.0249.57737-.20532.36675-.23743.258-.26314.18342-.26313.10861-.28044c-.0435-.0095-.15962.09541-.23763.19893a.76913.76913,0,0,1-.21062.11361L27.022,7.749l-.04751.0064.35995-.25033a3.23015,3.23015,0,0,0,.27843-.27584l.163-.23743a1.3178,1.3178,0,0,0,.14261-.30164l.04081-.28874L27.94489,6.18c-.03611-.0368-.11.14082-.169.23423l-.23083.231-.23774.21823L27.33441,6.78l.23093-.23743.163-.24373.14942-.308.09511-.26314.0203-.58387-.0339-.27594a2.14352,2.14352,0,0,0-.08951-.23513l-.08821-.04561-.0057.146-.05431.26944-.129.29524-.06111.14762-.0136-.154.129-.308.04751-.33365.0136-.42355-.12222-.43636-.163-.27594-.21053-.186-.23773-.11552-.08151-.0385h-.04751l.01361.09621.08821.10911.068.19253.0339.27594.0068.52617-.07151.39405-.05761.254-.13581.37855-.05431.17332-.08151-.07061-.0204-.077-.06111.02561-.02711.16692-.08151.231-.07471.12181-.09511.16693-.0068.0513-.07471-.0128L26.01,5.96508a.70487.70487,0,0,0-.17662-.09621l-.09591-.0332.054-.09141-.06671-.023-.08151.04491-.10192-.07051-.0203-.12842L25.426,5.47742l.0407-.06421-.0136-.0384-.095.0192-.0136.09621-.0068.08991-.04751-.0129V5.394l-.06111.05141-.0136.109-.04081-.0257-.0543-.03851-.02041.154.02721.22463.10861.17963.292.21822.20383.21813.06791.10912-.06791.0128-.0068.08991-.0068.06411-.08832.0257V6.8378l.07471.0192.0068.045-.11551-.0065-.069.0605-.09391.12562h-.05431l.0067.06421.04081.0128-.18343.09631-.16972.08331L24.9709,7.441l-.08831.08341-.07471-.0064-.09512.0256.0068-.09621-.08821.0257-.0544.077-.20373.0128-.23093.13472-.10862.04491-.0679-.03851-.10192.03851-.14262.0129L23.823,7.6207V7.50509l.08831-.01921.06111-.08981.034-.08981.04071-.05781-.10182-.0128-.07471.08981h-.129l-.12912.03211-.07471.077-.0271.10261.0068.04491-.068-.01281-.06791-.08341.034-.10911.03391-.09621-.0067-.04491.08821-.0128L23.5039,7.165l-.0136-.0449.04071-.04491v-.077h.06121l.0339-.08341.04761-.05781.0135-.07051.034-.10911.02721-.03211-.09512-.07061-.08831.0064.05431-.0448.04081-.045v-.0513h-.08832l.01361-.06421.0068-.17322.0339-.00641-.0068-.077H23.4699l-.05431.05131.0136-.14112-.0272-.05781-.0271-.08981-.10192.07061-.0543.08341-.034-.0449-.0068-.08341-.05431-.154V5.60574L23.02164,5.67l-.0407.0642-.08151.0064-.00681-.0321.07471-.11551.01361-.11552h-.07471l.0068-.06421L22.85182,5.317V5.23359l-.10181.0385.0136-.06421.0068-.14751-.034-.13472.02041-.08351-.06111-.04491L22.64809,4.701l-.06791-.41066.02041-.0578.0068-.07051-.04761-.05141h-.15612l-.034.0257-.00681.12192.04081.0256-.04761.37865-.0407.13472-.06121.16042-.0271.14122.06111.186-.00681.045-.07471-.07061h-.095l.0203.12192-.0611.0064-.02711.231.10182.14112h-.08832l-.08831-.077L21.901,5.61864l-.0611.08341.0136.16682-.02721-.0129v.17332l-.0679-.0257-.07471-.077-.08152.0321V6.0998l-.0339-.0128.0068.077-.08151-.04491L21.446,6.0806l-.034.06421.0204.0192v.21823l-.0068.05771-.08151.0128.0204.06421.05431.077-.15622-.01291-.034.05141.08151.14752.0136.077.07471.06421.0407.077.01361.12832.0544.11551.03391.02571.034.08341.0271.08341v.0513l-.0543.01281-.0068.0706-.08831-.0192L21.412,7.42818l-.09511-.10272-.12222-.0128-.05431.03211-.0204.0128-.034-.05781-.03391-.03851h-.0476l-.01361.03851.034.05141.0204.0641.07471.08982.06111.0257.04751.0064.0068.122.0476.0448-.0544.05141-.15612-.0193L20.957,7.69761c-.05661.0111-.11321-.0395-.16982-.07691Z" fill="#fff" /></g><text fill="#fff" font-family="AudiTypeDisplayHigh-Bold, Audi Type Display High" font-size="18" font-weight="700" id="Text" transform="translate(3.71313 29.49324)">{value}</text></g></svg>