<svg xmlns="http://www.w3.org/2000/svg" viewBox="0 0 62.00002 39"><g id="ri_colombia_federal_3dig"><g id="Schild"><path d="M31.04321,38.73242C11.36841,31.208,1.58228,19.15723.27466.833A54.67809,54.67809,0,0,0,15.346,2.72021c6.48144,0,12.18164-.89111,15.66894-2.44628C34.63306,1.876,40.302,2.793,46.59985,2.793A51.67384,51.67384,0,0,0,61.72681.77881C60.3772,19.34668,50.62329,31.42773,31.04321,38.73242Z" fill="#fff" /><path d="M31.01587.54715c3.6521,1.58785,9.31177,2.496,15.58423,2.496A52.78439,52.78439,0,0,0,61.44385,1.13093C59.98828,19.37323,50.313,31.25078,31.04492,38.46551,11.66138,31.02642,1.95166,19.16277.55078,1.1786A55.05083,55.05083,0,0,0,15.34521,2.97C21.7981,2.97,27.488,2.08855,31.01587.54715M31.01514,0c-3.70948,1.6891-9.66089,2.47-15.66993,2.47A53.1186,53.1186,0,0,1,0,.4836C1.24438,19.64784,11.83276,31.6764,31.04272,39,50.72754,31.6802,60.66724,19.67126,61.98877.54694c-.00855-.05955.042-.09568-.02051-.09568a.507.507,0,0,0-.06616.00633,51.09764,51.09764,0,0,1-15.302,2.08557c-5.88794,0-11.73194-.80423-15.585-2.54316Z" /><path d="M31.055,36.1084C14.10873,29.4043,5.20248,19.208,3.07357,4.05713A63.52631,63.52631,0,0,0,15.34408,5.16992c3.66309,0,10.54-.29346,15.6709-2.24658,5.26465,2.01758,12.01269,2.32031,15.58594,2.32031A61.241,61.241,0,0,0,58.92025,4.04883C56.77963,19.59863,48.16244,29.50488,31.055,36.1084Z" fill="#fff" /><path d="M31.014,3.32421c5.30029,1.99307,12.01807,2.29426,15.58692,2.29426A62.40844,62.40844,0,0,0,58.47347,4.52334c-2.23437,15.05688-10.73486,24.7092-27.417,31.18188C14.533,29.13316,5.75424,19.20311,3.52181,4.52647A64.76609,64.76609,0,0,0,15.34457,5.54505c3.65625,0,10.49756-.29174,15.66943-2.22084m.001-.80287C25.9559,4.48851,19.11361,4.79505,15.34457,4.79505A62.65047,62.65047,0,0,1,2.63168,3.58251C4.64779,19.17453,13.76107,29.706,31.05306,36.51044,48.47347,29.82252,57.328,19.5613,59.36215,3.56813A59.613,59.613,0,0,1,46.60092,4.86847c-3.67383,0-10.38917-.31638-15.58594-2.34713Z" /></g><text font-family="AudiTypeDisplayHigh-Bold, Audi Type Display High" font-size="17.05132" font-weight="700" id="Text" letter-spacing="0.07499em" transform="translate(12.82642 23.69922) scale(0.95242 1)">{value}</text></g></svg>