<svg xmlns="http://www.w3.org/2000/svg" id="Icon" viewBox="0 0 40 40"><defs /><rect fill="#fff" height="39" rx="1.5" width="39" x="0.5" y="0.5" /><path d="M38,1a1.00113,1.00113,0,0,1,1,1V38a1.00113,1.00113,0,0,1-1,1H2a1.00113,1.00113,0,0,1-1-1V2A1.00113,1.00113,0,0,1,2,1H38m0-1H2A2,2,0,0,0,0,2V38a2,2,0,0,0,2,2H38a2,2,0,0,0,2-2V2a2,2,0,0,0-2-2Z" /><g id="Wordmark"><path d="M3.40594,13.9794l5.3756-6.8557v5.07252L6.9708,10.74447l-.80849,1.04865,2.645,2.18027H10.188V3.0638L1.82554,13.97958l1.5804-.00018Zm7.16988-.006H12.021V2H10.57582ZM27.052,7.20427V6.49673l-1.44676.20816v3.50416l-1.03543.00786A2.31015,2.31015,0,1,1,22.258,7.89472a2.28333,2.28333,0,0,1,1.0846.2708L21.78844,9.72806l.91989.92512L25.3249,8.03007a3.744,3.744,0,0,0-6.10679-.04259A3.74222,3.74222,0,0,0,13.88267,7.239h-.00533V3.07637L12.434,3.23251V13.9733h1.44335v-.78247a3.74039,3.74039,0,0,0,5.349-.75568,3.74576,3.74576,0,0,0,6.379-.52285v2.05592h1.44676V10.21035a2.46735,2.46735,0,0,1,.484-1.421,2.03529,2.03529,0,0,1,.81162-.65506V6.57a3.25167,3.25167,0,0,0-1.29739.64277Zm-10.86077,5.3351a2.29835,2.29835,0,0,1-1.62828-.67419l-.6856.68722V10.20166l.00165.01506a2.31116,2.31116,0,1,1,2.31223,2.32265M31.09455,6.50052h-1.0381L30.049,6.49839V5.56662l-1.43048.23412v8.17265H30.049V7.78588l.00745-.00138H30.785Zm5.28442,0v.72112l.00165.02439a3.724,3.724,0,0,0-2.30534-.79531,3.77469,3.77469,0,0,0,0,7.54928,3.72323,3.72323,0,0,0,2.30369-.79513v.76861h1.44657V6.70886Zm0,3.71851v2.31979l-.67246-.67983a2.324,2.324,0,1,1,.6777-1.64218Z" /></g><ellipse cx="20" cy="26.5" fill="none" rx="17.5" ry="11" stroke="#000" stroke-miterlimit="10" /><text font-family="AudiTypeDisplayHigh-Bold, Audi Type Display High" font-size="15px" font-weight="700" isolation="isolate" transform="translate(4.33922 31.85487)">{value}</text></svg>