<svg xmlns="http://www.w3.org/2000/svg" viewBox="0 0 65 47"><g fill-rule="evenodd"><path d="m32.5 2c6.14 0 11.2 3.5 11.9 8l5.38-1.08e-4c7.32 0 13.3 4.48 13.3 10 0 4.36-3.7 8.07-8.87 9.44 1.41 1.59 2.24 3.5 2.24 5.56 0 5.52-5.94 10-13.3 10-4.34 0-8.19-1.57-10.6-4-2.42 2.43-6.27 4-10.6 4-7.32 0-13.3-4.48-13.3-10 0-2.06 0.825-3.97 2.24-5.56-5.17-1.37-8.87-5.08-8.87-9.44 0-5.52 5.94-10 13.3-10l5.38 1.08e-4c0.66-4.5 5.72-8 11.9-8z" fill="#0F7217" stroke="#0F7217" stroke-width="4" /><path d="m32.5 2c6.14 0 11.2 3.5 11.9 8l5.38-1.08e-4c7.32 0 13.3 4.48 13.3 10 0 4.36-3.7 8.07-8.87 9.44 1.41 1.59 2.24 3.5 2.24 5.56 0 5.52-5.94 10-13.3 10-4.34 0-8.19-1.57-10.6-4-2.42 2.43-6.27 4-10.6 4-7.32 0-13.3-4.48-13.3-10 0-2.06 0.825-3.97 2.24-5.56-5.17-1.37-8.87-5.08-8.87-9.44 0-5.52 5.94-10 13.3-10l5.38 1.08e-4c0.66-4.5 5.72-8 11.9-8z" fill="#FFF" /><text fill-rule="nonzero" font-family="AudiTypeDisplayHigh-Normal, Audi Type Display High" font-size="22" font-weight="500" text-anchor="middle" x="32.5" y="33.0">{value}</text></g></svg>