<svg xmlns="http://www.w3.org/2000/svg" id="Icon" viewBox="0 0 50 40"><defs /><rect height="40" id="Hintergrund_Schwarz" rx="2" width="50" /><rect fill="#fff" height="38" rx="1.90997" width="48" x="1" y="1" /><rect height="2" width="48.625" x="0.54167" y="12" /><path d="M10.55594,9.34628V6.44514L9.39344,9.34628,8.23094,6.44514V9.34628h-.795V4.33657h.795L9.39344,7.148l1.1625-2.81142h.795V9.34628h-.795m4.9548,0-.495-1.40571h-1.5675l-.495,1.40571h-.8475l1.7325-5.00971h.7875l1.7325,5.00971h-.8475m-1.2675-3.61895L13.72574,7.133h1.005l-.4875-1.40571m5.43281,3.619-.81-2.18333h-.9525V9.34628h-.795V4.33657h1.6575a2.91354,2.91354,0,0,1,.5025.03739,1.35912,1.35912,0,0,1,.3975.11964,1.14941,1.14941,0,0,1,.3.21683,1.172,1.172,0,0,1,.24.29909,1.28569,1.28569,0,0,1,.1575.3589,1.21768,1.21768,0,0,1,.06.37386,1.33671,1.33671,0,0,1-.06.39629,1.42669,1.42669,0,0,1-.1575.35891,1.27311,1.27311,0,0,1-.2475.29908,1.085,1.085,0,0,1-.315.20937l.885,2.34035h-.8625m-.0375-3.604a.59995.59995,0,0,0-.315-.5234.62107.62107,0,0,0-.18-.06729,1.18942,1.18942,0,0,0-.2775-.02243h-.9525V6.35541h.9525a1.70068,1.70068,0,0,0,.27-.01495.61012.61012,0,0,0,.1875-.0673.59155.59155,0,0,0,.2325-.22431.62739.62739,0,0,0,.0825-.30657M23.58625,7.163V9.34628h-.795V7.163l-1.7625-2.82638h.9525l1.2,1.93659,1.215-1.93659h.9375L23.58625,7.163m2.61434,2.18333V4.33657h.795V8.606h2.325v.74024h-3.12m6.82968,0-.495-1.40571h-1.5675l-.495,1.40571h-.8475l1.7325-5.00971h.7875l1.7325,5.00971h-.8475m-1.2675-3.61895L31.24527,7.133h1.005l-.4875-1.40571m5.59032,3.619-1.92-3.39464V9.34628h-.795V4.33657h.795l1.83,3.20024V4.33657h.795V9.34628h-.705M42.67234,6.834a3.53532,3.53532,0,0,1-.2325,1.33094,2.057,2.057,0,0,1-.6525.89726.92331.92331,0,0,1-.3375.20188,1.45729,1.45729,0,0,1-.3825.08225h-1.815V4.33657h1.62a2.9855,2.9855,0,0,1,.3225.015,1.25215,1.25215,0,0,1,.255.03738.82056.82056,0,0,1,.2025.08225q.09.05235.195.12712a2.16941,2.16941,0,0,1,.6075.91969,3.66838,3.66838,0,0,1,.2175,1.316m-.81,0a3.31851,3.31851,0,0,0-.1125-.90474,1.3335,1.3335,0,0,0-.2925-.59069.8843.8843,0,0,0-.225-.14955.663.663,0,0,0-.285-.05981h-.9V8.53875h.795a.98471.98471,0,0,0,.3225-.04487.60814.60814,0,0,0,.24-.14954,1.39358,1.39358,0,0,0,.3375-.61313,3.09437,3.09437,0,0,0,.12-.89726" id="Maryland" transform="translate(0 0)" /><text font-family="AudiTypeDisplayHigh-Bold, Audi Type Display High" font-size="21.93238px" font-weight="700" id="Nummer" transform="translate(2.03027 34.7359)">{value}</text></svg>