<svg xmlns="http://www.w3.org/2000/svg" viewBox="0 0 52 47"><g fill-rule="evenodd"><path d="m26 2c7.34 0 13 1.42 17.1 3.57 2.25 1.2 3.97 2.62 5.13 4.15 1.18 1.55 1.79 3.19 1.79 4.79 0 8-3 15.2-7.29 20.7-4.75 5.99-11.1 9.77-16.7 9.77-5.62 0-12-3.78-16.7-9.77-4.29-5.42-7.29-12.7-7.29-20.7 0-1.6 0.609-3.25 1.79-4.79 1.17-1.52 2.88-2.95 5.14-4.15 4.02-2.14 9.73-3.57 17.1-3.57z" fill="#0F448C" fill-rule="nonzero" stroke="#0F448C" stroke-width="4" /><path d="m26 2c7.34 0 13 1.42 17.1 3.57 2.25 1.2 3.97 2.62 5.13 4.15 1.18 1.55 1.79 3.19 1.79 4.79 0 8-3 15.2-7.29 20.7-4.75 5.99-11.1 9.77-16.7 9.77-5.62 0-12-3.78-16.7-9.77-4.29-5.42-7.29-12.7-7.29-20.7 0-1.6 0.609-3.25 1.79-4.79 1.17-1.52 2.88-2.95 5.14-4.15 4.02-2.14 9.73-3.57 17.1-3.57z" fill="#FFF" /><path d="m26 4c6.93 0 12.3 1.31 16.1 3.33 1.96 1.05 3.47 2.27 4.49 3.6 0.883 1.15 1.38 2.37 1.38 3.58 0 7.52-2.82 14.3-6.86 19.4-4.3 5.43-10 9.01-15.1 9.01-5.13 0-10.8-3.58-15.1-9.01-4.04-5.09-6.86-11.9-6.86-19.4 0-1.2 0.497-2.42 1.38-3.58 1.02-1.33 2.53-2.55 4.49-3.6 3.8-2.03 9.2-3.33 16.1-3.33z" fill="#B33229" fill-rule="nonzero" /><text fill="#FFF" fill-rule="nonzero" font-family="AudiTypeDisplayHigh-Normal, Audi Type Display High" font-size="22" font-weight="500" text-anchor="middle" x="26.0" y="30.0">{value}</text></g></svg>