<svg xmlns="http://www.w3.org/2000/svg" viewBox="0 0 87 33">
<g id="ri_hexagon_yellow_black_4dig">
<g id="Schild">
<polygon fill="#f1c61b" fill-rule="evenodd" points="0.753 29.184 0.75 3.743 43.142 0.752 86.301 3.817 86.25 29.19 42.958 32.248 0.753 29.184" />
<path d="M43.14258,1.50384,85.5,4.51187V28.48926L42.95874,31.49615,1.5,28.48552V4.51109L43.14258,1.50384M43.14172,0,.64758,3.06874a.6333.6333,0,0,0-.45813.19793A.68565.68565,0,0,0,0,3.74309v25.4615a.74245.74245,0,0,0,.20459.514.68167.68167,0,0,0,.494.21267L42.9574,33l43.416-3.06873a.61644.61644,0,0,0,.443-.19027A.66557.66557,0,0,0,87,29.27947V3.74a.6795.6795,0,0,0-.18933-.47413.62989.62989,0,0,0-.45667-.19716L43.14172,0Z" />
</g>
<text font-family="AudiTypeDisplayHigh-Bold, Audi Type Display High" font-size="22" font-weight="700" id="Text" text-anchor="middle" transform="translate(43.5 23.86038)">{value}</text>
</g>
</svg>