<svg xmlns="http://www.w3.org/2000/svg" id="svg20612" viewBox="0 0 40 40"><defs /><rect height="40" id="Hintergrund_Schwarz" rx="2" width="40" /><path d="M2.0052,11.66667H34.03653l.08681.39062.26041.78127.08681.60764.30382.56423.13021.39063-.13021.52083-.04341.52084.13022.95486-.08681.78127.13021.17361-.08681.52084.04341.99826.47742.651.34723,1.25867.0434.30382.434.78127.30382.73786.26042.56424v.434l.13021.26041-.08681.34723.17361,1.99653.08681.78127v.73786l.26042.60764.26042.217-.04341.69447-.08681.30382.04341.651-.13021.47743.52083,1.30207.13021.56423.73787.91147.0434.82467.30382,1.17187-.08681.78126.17267.434H.83247l1.17186-25" fill="#fff" id="Form" /><g id="NorthDakota"><path d="M5.00893,8.33333l-.9776-2.96266V8.33333H3.397v-5h.63432L4.9194,5.82587V3.33333h.63433v5H5.00895" fill="#fff" id="path21230" /><path d="M8.9296,5.826v.47761a5.49012,5.49012,0,0,1-.02985.5597,3.73248,3.73248,0,0,1-.08955.57463,1.63641,1.63641,0,0,1-.194.5,1.03031,1.03031,0,0,1-.33582.35074.896.896,0,0,1-.50746.13433.94779.94779,0,0,1-.52239-.13433,1.13291,1.13291,0,0,1-.33582-.35074,1.93691,1.93691,0,0,1-.194-.5,4.438,4.438,0,0,1-.08209-.57463q-.02239-.291-.02239-.5597V5.34093q0-.27612.02239-.5597a4.00167,4.00167,0,0,1,.097-.55224,1.70593,1.70593,0,0,1,.194-.48508A.98843.98843,0,0,1,7.258,3.40063.9333.9333,0,0,1,7.7729,3.2663a.89608.89608,0,0,1,.50746.13433.96584.96584,0,0,1,.33582.34328,1.54508,1.54508,0,0,1,.194.49254,3.36506,3.36506,0,0,1,.08956.55224,5.34446,5.34446,0,0,1,.02985.5597q0,.26866,0,.47762m-.66418,0q0-.10448-.00746-.28358,0-.1791-.01493-.38806-.01492-.2164-.04478-.43283a2.1938,2.1938,0,0,0-.08955-.403.932.932,0,0,0-.13433-.29105.24314.24314,0,0,0-.20149-.11194.29681.29681,0,0,0-.23881.1194.929.929,0,0,0-.14925.29851,2.73611,2.73611,0,0,0-.08209.403q-.02239.22388-.03732.4403-.00746.209-.00746.38806.00747.17164.00746.26119,0,.0821-.00746.26119,0,.17164.00746.38806.01492.21642.03732.44776a2.96092,2.96092,0,0,0,.08209.41792,1.14781,1.14781,0,0,0,.14925.31343.29672.29672,0,0,0,.23881.1194.27677.27677,0,0,0,.23135-.1194A1.01385,1.01385,0,0,0,8.146,7.34094,2.00683,2.00683,0,0,0,8.22812,6.923q.02238-.23133.02985-.44776a3.49171,3.49171,0,0,0,.00746-.38806V5.826" fill="#fff" id="path21232" /><path d="M12.13027,4.736a1.53081,1.53081,0,0,1-.12687.67913,1.00824,1.00824,0,0,1-.39552.42537L12.11534,8.333h-.64925l-.56717-2.3358h-.29105V8.333H9.97355v-5h.98506q1.1716,0,1.17167,1.403M11.481,4.72111a1.01408,1.01408,0,0,0-.1194-.58208.51186.51186,0,0,0-.4403-.15672h-.31344V5.348h.41792a.415.415,0,0,0,.3582-.13433.89227.89227,0,0,0,.097-.49254" fill="#fff" id="path21234" /><path d="M13.8876,3.98267V8.3334h-.63433V3.98267h-.61194V3.33341h1.89554v.64926h-.64926" fill="#fff" id="path21236" /><path d="M16.87827,8.33333V5.99753H15.9902v2.3358h-.63433v-5h.63433V5.34827h.88807V3.33333h.63432v5h-.63432" fill="#fff" id="path21238" /><path d="M21.9616,5.826a3.72943,3.72943,0,0,1-.45523,2.2612.68957.68957,0,0,1-.28358.18657,1.15249,1.15249,0,0,1-.3806.0597H19.80486v-5h1.03733a.82406.82406,0,0,1,.75374.36567,1.62636,1.62636,0,0,1,.15671.3806,2.40222,2.40222,0,0,1,.10448.46269,6.328,6.328,0,0,1,.07463.63432q.02983.32836.02985.64926m-.64926.15672q0-.13433-.00746-.29851L21.29,5.34094q-.00747-.1791-.01493-.34328t-.01492-.29851a1.34785,1.34785,0,0,0-.13433-.5597.303.303,0,0,0-.28358-.15671h-.403V7.6842h.403a.32706.32706,0,0,0,.26865-.11939.987.987,0,0,0,.14926-.41045q.00746-.06717.01492-.194t.01493-.291q.00746-.16419.01492-.34328t.00746-.34328" fill="#fff" id="path21240" /><path d="M24.6556,8.33333,24.372,6.99753h-.82087l-.28358,1.3358h-.64925l1.0224-5h.64179l1.03734,5h-.66418M23.96913,5.0348,23.693,6.3482h.53732l-.2612-1.3134" fill="#fff" id="path21242" /><path d="M27.66427,8.33333,26.9926,5.96767l-.23881.48507v1.8806h-.63432v-5h.63432v1.597l.7836-1.597h.7388l-.82086,1.7164.88806,3.2836h-.67913" fill="#fff" id="path21244" /><path d="M31.43427,5.826q0,.2015,0,.47761a5.49587,5.49587,0,0,1-.02985.5597,3.73129,3.73129,0,0,1-.08956.57463,1.63616,1.63616,0,0,1-.194.5,1.03022,1.03022,0,0,1-.33582.35074.896.896,0,0,1-.50746.13433.94775.94775,0,0,1-.52238-.13433,1.13268,1.13268,0,0,1-.33582-.35074,1.93728,1.93728,0,0,1-.194-.5,4.438,4.438,0,0,1-.08208-.57463q-.02239-.291-.02239-.5597V5.34093q0-.27612.02239-.5597a4.00017,4.00017,0,0,1,.097-.55224,1.70535,1.70535,0,0,1,.194-.48508.98834.98834,0,0,1,.32836-.34328.93327.93327,0,0,1,.51492-.13433.89606.89606,0,0,1,.50746.13433.96584.96584,0,0,1,.33582.34328,1.54486,1.54486,0,0,1,.194.49254,3.36611,3.36611,0,0,1,.08955.55224,5.34446,5.34446,0,0,1,.02985.5597V5.826m-.66418,0q0-.10448-.00746-.28358,0-.1791-.01492-.38806-.01494-.2164-.04478-.43283a2.1938,2.1938,0,0,0-.08955-.403.932.932,0,0,0-.13433-.29105.24315.24315,0,0,0-.20149-.11194.29679.29679,0,0,0-.23881.1194.929.929,0,0,0-.14925.29851,2.73736,2.73736,0,0,0-.0821.403q-.02238.22388-.03731.4403-.00746.209-.00746.38806.00746.17164.00746.26119,0,.0821-.00746.26119,0,.17164.00746.38806.01493.21642.03731.44776a2.96086,2.96086,0,0,0,.0821.41792,1.14781,1.14781,0,0,0,.14925.31343.29671.29671,0,0,0,.23881.1194.27676.27676,0,0,0,.23134-.1194,1.01409,1.01409,0,0,0,.1418-.31343,2.0062,2.0062,0,0,0,.08208-.41792q.02239-.23133.02986-.44776a3.49415,3.49415,0,0,0,.00746-.38806V5.826" fill="#fff" id="path21246" /><path d="M33.33627,3.98267V8.3334h-.63433V3.98267H32.09V3.33341h1.89554v.64926h-.64926" fill="#fff" id="path21248" /><path d="M36.45427,8.33333l-.28359-1.3358h-.82086l-.28358,1.3358H34.417l1.0224-5h.6418l1.03733,5h-.66418m-.6866-3.29853-.27612,1.3134h.53731l-.26119-1.3134" fill="#fff" id="path21250" /></g><text font-family="AudiTypeDisplayHigh-Bold, Audi Type Display High" font-size="23px" font-weight="700" transform="translate(2.22222 32.75821)">{value}</text></svg>