<svg xmlns="http://www.w3.org/2000/svg" data-name="Layer 1" id="Layer_1" viewBox="0 0 40 40"><defs /><path d="M20,1.00034a8.1854,8.1854,0,0,1-5.64062,2.243A8.18506,8.18506,0,0,1,8.71875,1L1,8.993A7.80621,7.80621,0,0,1,4.16667,15.2773a7.78227,7.78227,0,0,1-1.35479,4.4A10.392,10.392,0,0,0,11.33032,35.9321,13.72544,13.72544,0,0,1,20,39a13.72513,13.72513,0,0,1,8.66968-3.0679,10.392,10.392,0,0,0,8.51844-16.25483A7.82023,7.82023,0,0,1,39,8.993L31.28125,1a8.18506,8.18506,0,0,1-5.64063,2.24338A8.1854,8.1854,0,0,1,20,1.00034Z" fill="#fff" stroke="#000" stroke-width=" 1.5px" id="Hintergrund" transform="translate(0 0)" /><text font-family="AudiTypeDisplayHigh-Bold, Audi Type Display High" font-size="25px" font-weight="700" id="Nummer" transform="translate(20 29.10603)" text-anchor="middle">{value}</text></svg>