<svg xmlns="http://www.w3.org/2000/svg" data-name="Ebene 1" id="Ebene_1" viewBox="0 0 38 38"><defs /><path d="M19,38l-.2002-.02733A31.23793,31.23793,0,0,1,.36035,28.46534L0,28.0446V0H38V28.0446l-.36035.42074A31.23793,31.23793,0,0,1,19.2002,37.97267Z" fill="#fff" /><path d="M19,36.49316a29.94057,29.94057,0,0,1-17.5-9v-26h35v26A29.94057,29.94057,0,0,1,19,36.49316Z" fill="none" stroke="#000" stroke-miterlimit="10" /><line fill="none" stroke="#000" stroke-miterlimit="10" x1="3" x2="35" y1="11.49316" y2="11.49316" /><g id="text"><path d="M6.69916,9.889V6.44179L5.50105,8.62124,4.273,6.44179V9.889H3V4.07131H4.273L5.50105,6.1292,6.69916,4.07131h1.258V9.889h-1.258" id="path4702" /><path d="M10.13716,9.889V4.07131h3.69916v.75543H11.41015V6.32023H13.0276V7.093H11.41015V9.13354h2.561V9.889H10.13716" id="path4704" /><path d="M18.28921,9.889l-.98844-1.754-.97346,1.754H14.94948l1.69233-2.97829L15.02437,4.07131h1.40777l.86863,1.615.92853-1.615h1.36285L17.97471,6.91068,19.667,9.889H18.28921" id="path4706" /><path d="M21.25242,9.889V4.07131h1.273V9.889h-1.273" id="path4708" /><path d="M28.74691,8.517a2.251,2.251,0,0,1-.015.28654,1.18677,1.18677,0,0,1-.015.19971.70912.70912,0,0,1-.04493.14762,1.4523,1.4523,0,0,1-.07488.14761.96345.96345,0,0,1-.599.5123,3.24821,3.24821,0,0,1-1.15318.18234,3.68193,3.68193,0,0,1-1.258-.18234,1.40687,1.40687,0,0,1-.71887-.59913,2.95384,2.95384,0,0,1-.3145-.93777,7.26734,7.26734,0,0,1-.10483-1.2851q0-.19969.015-.43415t.04493-.46889q.04492-.24312.08986-.4602a3.17818,3.17818,0,0,1,.10483-.39074,1.56,1.56,0,0,1,.67394-.95513A2.79879,2.79879,0,0,1,26.77,3.99317a2.79731,2.79731,0,0,1,1.37782.29522,1.07912,1.07912,0,0,1,.599.82489H27.444a.35109.35109,0,0,0-.20967-.26917.8273.8273,0,0,0-.41933-.09552.91477.91477,0,0,0-.53915.13893.96013.96013,0,0,0-.31451.42547,2.26828,2.26828,0,0,0-.11981.356q-.03.17367-.05991.37337-.015.191-.03.42547V7.52717q.015.22576.03.41679.03.18234.05991.356a2.97845,2.97845,0,0,0,.11981.34732,1.17544,1.17544,0,0,0,.29953.44283.82061.82061,0,0,0,.5092.14762.69331.69331,0,0,0,.50919-.165A.769.769,0,0,0,27.444,8.517h1.30294" id="path4710" /><path d="M35,6.97146q0,.23443,0,.55571a3.73979,3.73979,0,0,1-.05991.65123,2.70289,2.70289,0,0,1-.17971.6686,1.56736,1.56736,0,0,1-.38939.58176,1.87282,1.87282,0,0,1-.67394.40811,2.85013,2.85013,0,0,1-1.01839.15629,3.02866,3.02866,0,0,1-1.04834-.15629,2.06375,2.06375,0,0,1-.67394-.40811A1.8535,1.8535,0,0,1,30.567,8.847a3.17946,3.17946,0,0,1-.16474-.6686,4.95479,4.95479,0,0,1-.04493-.65123V6.40706a4.82324,4.82324,0,0,1,.04493-.65123,2.94774,2.94774,0,0,1,.19469-.64255,1.662,1.662,0,0,1,.38939-.5644,1.79738,1.79738,0,0,1,.659-.39942,2.97786,2.97786,0,0,1,1.03336-.1563,2.85056,2.85056,0,0,1,1.01839.1563,1.78366,1.78366,0,0,1,.67394.39942,1.49343,1.49343,0,0,1,.38939.57308,2.45221,2.45221,0,0,1,.17971.64255A3.64081,3.64081,0,0,1,35,6.41574q0,.3126,0,.55572m-1.33289,0q0-.12156-.015-.33A3.71028,3.71028,0,0,0,33.62218,6.19a4.44353,4.44353,0,0,0-.08986-.50362,1.69884,1.69884,0,0,0-.17972-.46888.99174.99174,0,0,0-.26957-.33864.6318.6318,0,0,0-.40436-.13025.80389.80389,0,0,0-.47925.13893,1.04241,1.04241,0,0,0-.29952.34732,2.075,2.075,0,0,0-.16474.46889q-.04492.26049-.07488.5123-.015.24314-.015.45152.015.19971.015.30391,0,.0955-.015.3039,0,.19972.015.45152.02994.25182.07488.521a2.228,2.228,0,0,0,.16474.48625,1.243,1.243,0,0,0,.29952.36469.80373.80373,0,0,0,.47925.13893.73744.73744,0,0,0,.46426-.13893,1.06389,1.06389,0,0,0,.28455-.36469,1.51387,1.51387,0,0,0,.16474-.48625,4.95483,4.95483,0,0,0,.05991-.521,2.36161,2.36161,0,0,0,.015-.45152q0-.20838,0-.3039" id="path4712" /></g><text font-family="AudiTypeDisplayHigh-Bold, Audi Type Display High" font-size="22px" font-weight="700" isolation="isolate" transform="translate(11.53241 32.23668)">{value}</text></svg>