<svg xmlns="http://www.w3.org/2000/svg" viewBox="0 0 96 35">
<g id="ri_hexagon_orange_white_orange_5dig">
<g id="Schild">
<path d="M0,3.6408A3.64054,3.64054,0,0,1,3.6426,0h88.754A3.60162,3.60162,0,0,1,96,3.60159V31.40772A3.59308,3.59308,0,0,1,92.406,35H3.6162A3.6163,3.6163,0,0,1,0,31.385Z" fill="#fe9b06" fill-rule="evenodd" />
<path d="M3.61618,33.99414A2.61566,2.61566,0,0,1,1,31.37988V3.64551A2.639,2.639,0,0,1,3.64255,1.00635H92.39646A2.6015,2.6015,0,0,1,95,3.60645V31.40234a2.594,2.594,0,0,1-2.59375,2.5918Z" fill="#fff" fill-rule="evenodd" />
<path d="M1.98774,6.18663a.69257.69257,0,0,1,.1947-.4842.65474.65474,0,0,1,.471-.2011L47.9958,2.48263l45.33356,2.9437a.651.651,0,0,1,.4694.2003.68631.68631,0,0,1,.1947.4819V29.305a.67212.67212,0,0,1-.1888.4691.63709.63709,0,0,1-.4553.1933l-45.34306,2.525-45.30036-2.45a.70472.70472,0,0,1-.5079-.2161.7499.7499,0,0,1-.2103-.5224Z" fill="#fe9b06" fill-rule="evenodd" />
</g>
<text fill="#fff" font-family="AudiTypeDisplayHigh-Normal, Audi Type Display High" font-size="22" id="Text" text-anchor="middle" transform="translate(48 25.2294)">{value}</text>
</g>
</svg>