<svg xmlns="http://www.w3.org/2000/svg" id="Icon" viewBox="0 0 50 40"><defs /><rect height="40" id="Hintergrund" rx="2" width="50" /><path d="M1.34717,1.47258h47.3055L40.0495,38.45965H9.93659Z" fill="#fff" id="Viereck_Weiss" /><g id="Nebraska"><path d="M12.52412,6.4407,11.11743,4.70852V6.4407H10.6423V3.93409H11.11L12.51664,5.685V3.93409h.48262V6.4407h-.47514" id="path15665" /><path d="M14.55745,6.4407V3.93409h1.99781v.47514H15.03259v.45643h.87918v.48261h-.87918v.6173h1.55634v.47514H14.55745" id="path15667" /><path d="M20.39846,5.67376a.843.843,0,0,1-.05986.32922.66714.66714,0,0,1-.15713.23944.69561.69561,0,0,1-.23944.14965.89687.89687,0,0,1-.2993.04863H18.0415V3.93409h1.53763a.72021.72021,0,0,1,.27685.05238.65023.65023,0,0,1,.22074.13842.59789.59789,0,0,1,.1459.20951.68262.68262,0,0,1,.05238.26937.81867.81867,0,0,1-.015.15339.60665.60665,0,0,1-.04115.14591.56277.56277,0,0,1-.07482.12346.38653.38653,0,0,1-.10476.086.56734.56734,0,0,1,.26563.22822.61553.61553,0,0,1,.09353.333m-.5986-1.07a.17047.17047,0,0,0-.0636-.13843.32847.32847,0,0,0-.217-.05611H18.51663v.46765h1.00264A.2566.2566,0,0,0,19.74,4.79831a.3218.3218,0,0,0,.05986-.19454m.116,1.07a.29987.29987,0,0,0-.09353-.24317.43159.43159,0,0,0-.29556-.08231H18.51663v.6173h1.00264a.48194.48194,0,0,0,.31426-.07857.25473.25473,0,0,0,.08231-.21325" id="path15669" /><path d="M23.65031,6.4407l-.5537-.94278h-.77443V6.4407h-.47513V3.93409h1.53016a.769.769,0,0,1,.31052.0636.72789.72789,0,0,1,.25066.16836.782.782,0,0,1,.232.55.76043.76043,0,0,1-.1459.45642.80176.80176,0,0,1-.39283.28434l.57241.98393h-.5537M23.69521,4.716A.2713.2713,0,0,0,23.669,4.6a.26272.26272,0,0,0-.06734-.09727.2573.2573,0,0,0-.101-.06735.28849.28849,0,0,0-.12346-.02618h-1.055v.61729h1.055a.32948.32948,0,0,0,.12346-.02244.32561.32561,0,0,0,.101-.06734.29886.29886,0,0,0,.06734-.101.27958.27958,0,0,0,.02619-.11971" id="path15671" /><path d="M27.71775,6.4407l-.2544-.54621H26.1876l-.26189.54621H25.3982l1.186-2.50661h.47514L28.249,6.4407h-.53125M26.8236,4.54017l-.41527.8717h.82681l-.41154-.8717" id="path15673" /><path d="M31.79057,5.72987a.63813.63813,0,0,1-.28808.55744,1.42013,1.42013,0,0,1-.81184.19829,2.71971,2.71971,0,0,1-.35915-.02245,1.88923,1.88923,0,0,1-.318-.0636,1.82281,1.82281,0,0,1-.29181-.116,2.71244,2.71244,0,0,1-.28059-.17583l.2731-.38909a2.32394,2.32394,0,0,0,.22074.13094,1.40638,1.40638,0,0,0,.46016.13469,2.37928,2.37928,0,0,0,.27685.015,1.269,1.269,0,0,0,.48262-.07108.2321.2321,0,0,0,.16835-.217.21608.21608,0,0,0-.06734-.14965.41218.41218,0,0,0-.17209-.116q-.08979-.02993-.22073-.05986-.13095-.03366-.37412-.07856-.14217-.02993-.25067-.05612a1.70382,1.70382,0,0,1-.1908-.0636,1.13853,1.13853,0,0,1-.1459-.07108.76919.76919,0,0,1-.1085-.08979.617.617,0,0,1-.19454-.44146.59508.59508,0,0,1,.42275-.57241,1.25615,1.25615,0,0,1,.28808-.08979,1.54957,1.54957,0,0,1,.318-.03367,1.72053,1.72053,0,0,1,.50881.07482,2.055,2.055,0,0,1,.49384.22448l-.25441.39656a1.29193,1.29193,0,0,0-.37038-.16461,1.704,1.704,0,0,0-.41153-.04489,1.17581,1.17581,0,0,0-.39283.04863.15885.15885,0,0,0-.05611.28808.67026.67026,0,0,0,.17583.07856,1.43971,1.43971,0,0,0,.20577.04489q.10475.01123.16461.02245a3.8219,3.8219,0,0,1,.41154.101,1.65146,1.65146,0,0,1,.318.11972.667.667,0,0,1,.26937.26937.75314.75314,0,0,1,.101.3816" id="path15675" /><path d="M35.04505,6.4407l-.767-1.28323-.56118.57989V6.4407h-.47513V3.93409h.47513v1.1074l1.04754-1.1074h.63975l-.7894.86048.97646,1.64614h-.54622" id="path15677" /><path d="M38.959,6.4407l-.2544-.54621H37.42889L37.167,6.4407h-.52751l1.186-2.50661h.47514l1.1897,2.50661H38.959m-.89415-1.90053-.41527.8717h.8268l-.41153-.8717" id="path15679" /></g><text font-family="AudiTypeDisplayHigh-Bold, Audi Type Display High" font-size="18px" font-weight="700" id="Nummer" transform="translate(6.20662 23.2088)">{value}</text><g id="Wagen"><path d="M35.66643,38.52693c-.01094-.11828-.195-.10973-.2431-.12767-.02818.01842-.091-.0417-.09282-.011a20.26248,20.26248,0,0,0-5.585-.9504,20.887,20.887,0,0,1,1.05776-1.9489c3.22092-1.89846.9098-3.87083-2.25151-6.14487a13.176,13.176,0,0,0-2.16668-1.3013c-2.06253-5.58274-9.66723.80539-4.95943,4.66729-1.00585-.52068-1.41855-.98711-2.15493-.88147.45246-.197.32208-1.11279-.18567-.96117.8939.88238-2.54369,1.04737-1.55278.13857-1.14673-.03233.35979,1.62155-.8574,1.74957.21332-.21265-.11257-.87553-.37129-.60209.09059.19153.25978.37382-.069.48671-.48591-.26887-1.92114.56167-1.71516-.45258-.58793.10743-.18627.914.116,1.07836-.055.8066-.57594,2.1563.86889,1.321.91538,1.851,1.15592,2.85081-1.30922,3.93937m14.32257-2.65323c-.85477-.44453.50626-.02819.00008.00005m-5.73636-4.46073c.13179.32566-.33251.01731,0-.00014m0-.5447c-.019.28713-.175-.177,0,0m6.0142,5.133c-.55678-.726-.08314-.80394,0-.00007m-3.778-4.00947c-.33113,2.68151.27332,2.13572-2.17817,2.43341.8742-.56-.42711-.68713.34816-.82257l.05735-.66069c-.2203.07745-.75065.04642-.60209.42867-.96047-.89485,2.58456-.47255,2.22456-1.18232-3.88976,1.95813-5.94926-1.81719-3.59278-4.82079,3.63257-3.72648,7.263,2.85611,3.23373,4.65885A2.22883,2.22883,0,0,1,25.47,31.18c-1.18409.519-.59739-.37438.25464-.56729-1.341.2879-.45748-.13485.15083-.66135-1.26847.73392-.91654-.23864-.04639-.78777-1.179.67912-.76463-.25089-.09221-.78775-1.19485,1.15931-.88786-.34006-.60337-1.14749-.34241,1.28976-1.36416.49663-.85738-.55629-.25078.7036-1.00027,1.56091-.99659.29-.09545,1.02162-.53151.81259-.89222.04585.70735,1.048-.182,1.12569-.97339.64909,1.0284.47506.32093,1.09869-.55629.76461,1.16537.22509.11489,1.57644-.38229.62594.6517.46774.93893,1.76083-.116.78774.01467.278.56152.71744.76511.40613.14339.57882.06139.961-.54467.52088.30294.17714,1.40356,1.05983.4983.76515.344.12046.88147.68243.16182.49829.67369.89183,2.56112.3651,3.77742-.03479m-2.24715-.39386c.09478-.31356.42885-.43769.26616.12716.32628.11421-.35653.86376-.058.23216-.10508.05182-.19826.28056-.29008.35911-.14139.54364.02493-.824.0818-.71821m1.2396.45248c-.001.316-.27873.045,0,0m.21983-1.04358c.78-.05334.34137.86845.348.67238-.10357-.11168.00046-.18868-.18548-.0466-.02351-.10614.04408-.16424.09223-.232-.29826.42115-.18477-.084-.243.28944-.00819-.00925-.0273-.01967-.0232-.03419-.04643-1.338-.02376.7999-.417.04626-.3214.34878-.492-.13664-.25472-.39467.23794.2608.61663-.11345.68331-.30111m5.064,3.74261c-.51874-.15089-.295-.03095-.74193-.45189.00985.00182.01452-.00123.01221-.01163.23913-.03153,1.22189.59146.72974.4635m-4.91321-2.98908c.3961.17741-.29137.06563.00005,0m-.20884.15021h0c.00814.00293.0187-.005.02321-.011.49226.14451-.42332.46333-.04636.11551-.00989.002-.01364-.00176-.01163-.01163-.11064.07651-.0364-.08252.03483-.09281m4.774,3.80062c.15478-1.42143.19536.48714,0-.00008m-6.50027-3.51057a1.15641,1.15641,0,0,1-.09281-.44025c-.05154.0356-.01284.0869-.10386.09218.23.20689-.05423.3467-.00005.48735.45578.86273-.766-.65409.13883-.93921.18744.14071.43347,1.107.05776.80008m7.2886-.06962c.70292-.27349,1.26342.03733.15033-.38192.21017-.05866.60293.17411.70763-.09311-1.926-.76873,2.48426-.18847-.99719,3.32553a.68524.68524,0,0,0-.35962-.50991c.23476.01.67779.07423.78836-.16185a1.17289,1.17289,0,0,1-1.17-.25545c.08139-.1894.55128-.01852.11527-.30158.27291-.06946,1.06269.27247,1.15913-.17364-1.49588.13-.64879-.1642.11605-.40547-.93307.09561-1.11564-.35271.04648-.20892-.62432-.26777-.25505-.21927.28945-.34794-.25966-.04333-.65115-.00984-.82258-.35847.175.0251.70407.2191.70654-.03481a.95661.95661,0,0,1-.72974-.09287m.38226,3.22113c.09329-.03674.20521.06914.28947.09277-.06265.09463-.32821-.05409-.28942-.09287m-3.24494-.40546c.04326.229-.43153-.09181-.08066-.00005-.00785-.24515.17939-.22453.08061,0m-.243.84573c-.21538-.35211.16984.2375.00008-.00008m0-1.66888a1.07051,1.07051,0,0,0-.77613.0238c.12853-.33114,1.13387.01341.7762-.02387m-.29006.04641c-.01333.12157.04735.57393-.09218.6143.03665-.12607-.08822-.66131.09218-.61433m.36643-5.61486c.15658.1984-.33735-.16888.03957-.032m1.20551,3.10967c.34392.16621,1.2994.09627,1.30925-.232-.77482.56274-1.7204-.07823-.48687-.37091-1.54091.071.456-.35087.32432-.56794-.90747.3275-1.06989-.20476-.12767-.34769-.166.001-.41305.05706-.54415-.127.07768-.02384.364-.028.26624-.15149-.01386.02107-.10325.041-.1044.01217-.06012.05165-.16122-.00209-.23136,0,2.36389-.09538,1.15032,3.48836-.06959,4.34467.05783-.32459-.37475-.41125-.53308-.59054.33011-.02669-.49579-.23985.02322-.2082.56015-.0074-.50573-.142-.56794-.31329.24431.01292.78991.27376.31269-.08119,1.57717.086.77805.21576-.05737-.40546.45542-.31682,2.696-.16676.71814-.22035-.80335-.26609-.097-.18692.26621-.31279-.40836-.15014-.89381.05359-.37061-.32437-.04412.03957-.27645-.04213-.127-.10444m-5.19166,2.94328c2.32357-.36667,2.383-.10137,0,.12763v-.12763m.058-3.33715c-.35385.45867-.4038-.03377,0-.00007m.6027,4.82039c.08806.79727-.98192-.74223,0,0m-.89214-4.61216h0c.01719.01488.05517.08132.069.08126-.09786.22946-.22755-.06366-.06908-.08129m1.043,4.31112c-.27063.75336-.68574-.71381-.00007,0m-.78834-.03542a1.24339,1.24339,0,0,0-.09282.34814c-.23656-.76167-1.56386-.49328-1.13515-1.61094-.77811,1.70948-1.64344-1.50836-1.93512,2.30565.13628,1.19925-.89988.26631-.55626.50953.18.0458.175-.23058.20882-.33552.09632.31415.22654.60372.26625-.01153-1.02741.45242.174-3.19182-.46347-2.43339-.17785-.82864.84867-1.74525,2.10852-1.59889.71669.22289.10939.7537.86893.3816,1.53367.42579-1.128,1.08182.73036,2.44537m2.329.52148c.18254.18184-.35952.12639,0,.00005m-.764-.42607a1.91666,1.91666,0,0,0,.08071.53059m0-.0001c-.2144.04662-.583-.10547-.88045-.04641.12428-.5348.283-.659.79976-.48408m1.05407.46159c-.79517-.13634-.429-2.116.42862-2.2019a1.76448,1.76448,0,0,0-.42863,2.202m-.52148-.33647c.077.004.16461.03231.1734.1044-.06939.15694-.236.046-.1734-.1044m-.243-.6259c-2.76018.45466-1.52328-.43939,0-.00005m.15022,1.07778c-.73511.10105-.1289-1.20541,0,0m-5.85177.32425c-.62082,1.38586-1.6747-1.49556,0,.00012m-.058-1.74949c.03264.0235-.03026.13609-.03481.16246.19555-.12551.33617,1.43282.18563.93868-.22137-.65113-1.19856-2.46366-.15083-1.10109m-3.40616-.78833c-.0608.70724-.39478-.03168,0,0m.85672,2.54943c.03837.055-.10183.18259-.127.232.30253.52354-.598-.24842.127-.23205m3.87085-.03419c-.37593.32615-.343-.02691-.38287-.34814a.524.524,0,0,1,.38287.34812m2.50241-.37127c-.746.16239-.429-1.12924,0,.0001m-.50989,0c-.86088.36168-.06577-1.01725,0,0m-.76453-.50928c-.47475,2.05981-2.07532-1.31724.00022,0m-3.76643,1.25059c-1.80469,1.12656-1.00383-1.30466,0,0M29.90832,35.408l.02257.10442c-.68272-.46242-.50887-.86073-.02263-.10451m-1.32142,1.344c-.40567.51219-1.04143-.28631-.04644-.09284-.007.00546.04374.08694.04641.09284M30.012,35.45428a4.05629,4.05629,0,0,1,.35967.19728.06479.06479,0,0,0-.02379.0574c-.09541-.07956-.38637-.13174-.33595-.25476m.71531.09947-.39108.88559m-2.34059.08121c-.21378-.19247,1.21623.00127,0,0M32.215,33.59069c-.06275.88317-.95275,2.0322-1.86718,1.63159.308-.09847-.18656-.13761-.25464-.25462.06778-.00956.34387.01836.25464-.09291-.52807-.104.14317-.05521.30171-.03488,1.29823-.26592.22227.01506-.24367-.23144-.09043-.24247,1.98822-.14839.33636-.3476.83736-.22414-.27854-.0367-.06957-.31336.13034-.29921.61729.09692.85743-.12765a2.09993,2.09993,0,0,1-.6717-.13859c.25379-.12595.84355.04871.985-.33651a1.026,1.026,0,0,1-.55629.10447c.09384-.12794.36009-.07711.4286-.243-.17446.2337-1.40172-.01612-.52157-.17371.32933.16347.96605-.58044.31264-.12723-1.12034.001.71608-.4678-.3476-.29065.4919-.24491-.18018.05206-.08124-.24308.26228.05486.632-.35574.23141-.13921-.18219.0829-.341-.20116-.15022-.05735.53057-.17452.02227.00728-.10437-.20879.63139-.084,1.01128.461,1.12892,1.2188M30.46353,35.6978a.07569.07569,0,0,0,.04641.011c-.02605.15325-.09882.19272-.21981.26624.03754-.07388.0798-.32757.17338-.2772m-.011-.13984c.0074-.014.02859-.05232.02262-.069.27393.039.10593.29459-.02262.06888m-3.81283-1.355a1.57612,1.57612,0,0,1-.25464,2.4218c.28645-.54621.93026-1.3039.44024-2.02794-.6788.73656.28687-.12556-.301-.39382.03531-.03242.08605-.04864.11539,0m.71872,2.514c-.93949.2435-.18921-.685,0,0m.6485-1.36723a2.21887,2.21887,0,0,0-.32427,1.41364c-.76123-.21171.16088-1.944.93853-1.912-.18136.14305-.47408.268-.61438.49833m-1.69147.99657c-.13756.591-.15547-1.33533,0,0m-3.38356-1.32082c-.32279-.53991,1.286-.01552-.00005.00006m-.32425-1.00817c.26321.88358-.254,1.07943.00007-.00005m.86894-1.69209c.25119-.46.53156-.03047,0,0m-4.1951-.81093c-.00429-.0064-.01417-.0147-.02259-.01163.00282-.17891.12264-.18783.08055-.40551.1488.05765.10147.38807-.058.41712m-.55568.16243h-.0116c.59108-.51616.432.80136.069.09286.24008-.01522.04959-.11072-.0574-.09282m1.18159.5795c.22274-.48845.1066.31316-.09288.43957-.152-.02947.05891-.36254.093-.43957M19.20023,33.345a2.80011,2.80011,0,0,1-1.2628,1.13579c.30052.78007.04237,2.22943-.49829.61377-.35341.67394.82562,1.53639.29006,1.98229-.75509-.36623-.79539-3.14218-.93856-1.785-.25576-.34759-.1647.92-.47508-.1618-.39772.26592-1.12717-.40192-.6259-.41768-.175.50813.33924.22754.61369.2204-.34072-.68248.05189-.89037.12751-.04582.666-.80094.0656-1.89291,1.04293-.69609.50465.37288-.51815-1.13034.75375-.7648-.508.10393-.03221.30333-.17409.6376,1.06931-.06228.76985-1.54554,1.54047-1.41387-1.10653.02324.0237-1.17989.09365-.73026.617-.01306-.23971.61357.05738.95025-.37378-.18977-.44422.17181-.54469.47511m4.10228-2.213c.04012-.01028.1113.04206.06962.08065.01629.0063.02065.03986.058.03542-.00706.04582.0137.08369.058.05744-.002.0099.00175.01364.01162.01163-.26643.20995.05593.4505-.06963.64931-.10971-.19813-.53888-.57112-.12763-.83443m-.39386,1.333c.27425-.96739.85416-.18311,0,.0001m1.58766-2.24838c.00864.16032-.066.47823-.26687.44025-.08716-.3786-.03547.23972-.20889-.26688a.72909.72909,0,0,1-.23146.54472c.00077-.38068.34252-1.48124.7071-.71816m-1.86612.996c-.32618.1432-.29869-.56541,0,0m1.217-1.15838c-.41213-.00841-.24531.66312-.15017.88054-.32372-.11574-.20418-1.35175.15029-.88057m.116.78834c.01082.00157.02941,0,.03478-.01163a.03278.03278,0,0,0,.03424.01163c-.21414.133-.053.24042-.24308.20772.00467.01427-.016.02138-.01163.03546-.00838-.00312-.01873.00547-.0232.01163-.04386-.09061-.15213.11713-.21976.13915.01363-.08922.09746-.15313.19658-.19726-.48794-.33113.08443.12188.23189-.19675m-.09282.46287c-.84512.1572.98867-.76721-.00007.00007m-.16182-.78772c.25629-.13993.07344.48547-.08173.19726.06924-.11756-.09943-.13448.08178-.19731m-.05862-.116c.10073-.35575.31249.18951,0,0M16.269,33.12512c.26443-.34091.19967-.06716.30105.185-.09173.03661-.2227-.12529-.30105-.185m-1.12419-.24365c-.10213-.24038.5991-.27033.64911-.11548-.01355-.00393-.03921.021-.0348.03478-.25051-.0068-.37767.1853-.6143.08058m-.34746,1.01977c-.00893.04112-.04591.15851.0116.174-.35722.3762.1173-.78819-.0116-.174m.08122-.50927c.04075-.47615.92555-.69871.60285.15031-.37662.20686-1.17873-.04751-.67248-.41734-.12593.14776.07507.1433.06963.267m3.70781-.95077c.57055.2263-.48377,1.252-.44028.73032-.80045.17025.20649-.83146.44028-.7303m-2.57263.45188c.1804-.434.27009.41844,0,0m-.92634,1.80811c-.24514.22788-.62165-.1995,0,.00005m.03419-.22044c-.26457.52707-1.146-.46189-.22044-.20894-.04153.6581.19723-.31148.22044.20889m-.54469-1.36784c-.03256-.00033.0062-.03187.0232-.02261.19213-.60841.375.01327-.0232.02261m-.11541-.33524c-.253.49591-.16841-.79323-.05312-.4066a.34745.34745,0,0,0,.05312.40658m1.286,1.2396c.00944-.02672.072.00375.06962.02256.07225-.12867.11392-.4432.25463-.53253.30542.30467-.64778,1.13464-.32424.51m1.76108-2.202c.118-.5232.24244.20672.7529-.03471.86609.23961-1.33028.93473-.38224.25513-.068.04471-.25309.01011-.19662-.09287-.15775.0245-.24432.23743-.27846.37066-.09621-.165.02673-.40157.10442-.49833m-.44027-.301a.45164.45164,0,0,1,.38226-.48666.9554.9554,0,0,0-.37066.54467l-.0116-.058m1.33242,2.24777c.01661-.14206-.29452-.39967.058-.48667.08045.08852.03444.77774-.058.48672M15.284,33.71544c-.04287.91341-.488-.03259,0,0m1.65666-.985c.81736-.85358,1.21981.17683,0,.00005m-.26624.27845c.09695-.72876.735.43816.14024.24386.08732-.274.13312-.45454-.14023-.244m.6833-.08122c.01478.87441-.35362-.53419,0,0m9.98886,1.62186.71811.31325c-.56858.60018-.5619.38841-.71811-.31326m.16182.83475c-.00857.05537-.15911-.04472-.20821-.05809a1.95032,1.95032,0,0,1-.38223,1.0314,1.97412,1.97412,0,0,0,.069-2.00483c.29716.22209.19133.8188.52147,1.03139m-5.17946-4.66956c.12991.17147.33572-.10523.41766-.01161-.08083.06274-1.15163.547-.41768.17335-.20582-.10154-.05329-.52908,0-.16179m1.8191.90375c.03872.01077.067.11466.10444.15092-.00586.13036.35143.19924-.116.06961.03871-.073-.001-.12174-.02257-.18558a.08409.08409,0,0,0,.0342-.03488m.95076.34745s1.07574.75894,1.63347,1.08932c-.26058-.31711-.74129-.49755-1.03133-.76472a.77485.77485,0,0,0,.93851-.29c-.328.05838-.71154.24262-1.00812-.06969.23323.02467.47009-.09934.116-.10444.20039-.10045,1.3199.068,1.48322-.55569a1.12174,1.12174,0,0,1-1.20483.16177c.27912-.14284,1.28582-.066,1.39037-.521a1.59624,1.59624,0,0,1-1.5529.10387c-.11346-.16433,1.01726-.21723.62606-.33667-.93729-.001.9557-.248,1.0423-.68321-1.54843.60311-1.36955-.05482-.35893-.49827-1.36874.10665,1.17686-.31165-.76458-.42873.00989.002.01364-.00175.01162-.01162,1.78047-1.76209,2.05547,2.1559.45121,4.091.25489.18615,1.66875.96957,1.1473.85713-.26673.50647,1.45113,1.1337-.05745.45189-.03894.06741-.06018.188-.16238.13925v.01163c.002-.00985-.0017-.01366-.01157-.01163.17332-.34065-.722-.62549-.715-.67662.02482.80871-.334-.49962-1.06934-.67969-.083.21663.00516.933-.27212.79145.29666-.82319-.01495-1.01886-.60085-1.33529.11257.28539-.44647,1.71747.3142,1.495-1.06146.81616-.2198-1.97438-.345-2.22543m1.48263,3.10572c.10264.27121-.12163.81082-.4635.63683-1.18043,2.06424-.95716-2.84831-.0116-.69487a.277.277,0,0,1,.475.05794m3.31456.985c.00373.34222-.05818,1.45418-.50989,1.286.24293-.19469-.094-.45954-.20881-.61428-1.60519-.27237,1.23192-1.025.03479-1.76109a1.20224,1.20224,0,0,1,.68394,1.08941M29.386,37.20336c-.31408.489-.52507-.81367,0,0m-.49829-.32486c.08246.56066-.48938-.0333.00008.00008Z" fill-rule="evenodd" id="path11444" /><path d="M23.88223,34.12378c.31231-.80447-.7212-.60039-.59117.10438Z" fill-rule="evenodd" id="path11448" /><path d="M24.68187,34.01966c.30609-.82438-.75086-.63034-.626.09278Z" fill-rule="evenodd" id="path11452" /><path d="M24.79789,32.62937c-.54232-.00436-.72877.28389-.68391.79932C24.6625,33.447,24.82757,33.1357,24.79789,32.62937Z" fill-rule="evenodd" id="path11456" /><path d="M23.94036,33.47522,24.01,32.7913C23.21339,32.72162,23.07289,33.87592,23.94036,33.47522Z" fill-rule="evenodd" id="path11460" /><path d="M20.15128,34.36767c-.62843-.51564-.54115,1.29843.00005-.00025Z" fill-rule="evenodd" id="path11476" /><path d="M25.48126,34.86559c-.21556.38968,1.15732.69834.174-.34746A1.72209,1.72209,0,0,0,25.48126,34.86559Z" fill-rule="evenodd" id="path11500" /><path d="M25.35363,35.526l.02321.16243C26.70549,35.54353,25.25259,34.74772,25.35363,35.526Z" fill-rule="evenodd" id="path11504" /><path d="M25.52779,36.10537l.06961.10442C26.8173,35.1634,25.069,35.53118,25.52779,36.10537Z" fill-rule="evenodd" id="path11508" /><path d="M29.29383,36.20976c.42349.04071.55491-.13706.39389-.54471.00415.03768-.60176.40195-.42867.44024" fill-rule="evenodd" id="path11512" /><path d="M29.32847,36.46483c.58562.273.507-.40153,0-.15081" fill-rule="evenodd" id="path11516" /><path d="M29.57206,36.97434c.21066-.24055-.15689-.57095-.29006-.33585v0l-.04641.03483" fill-rule="evenodd" id="path11520" /><path d="M19.54839,35.7115c.0196-.25044-.44113-.02529-.30112.10446C19.54867,36.20061,19.39327,36.82667,19.54839,35.7115Z" fill-rule="evenodd" id="path11472" /><path d="M15.064,33.47522h0c.24343.25381.33344-.29066.32488-.40561C15.21285,32.96046,15.07373,33.3843,15.064,33.47522Z" fill-rule="evenodd" id="path11480" /></g></svg>