<svg xmlns="http://www.w3.org/2000/svg" id="Icon" viewBox="0 0 50 40"><defs /><rect height="40" id="Hintergrund_Schwarz" rx="2" width="50" /><path d="M9.63849,39.05043c-.1867-.12161-.19643-.15147-.09766-.29991.184-.27647.53959-.3862,1.70814-.527,1.1602-.13982,1.49866-.216,1.49866-.33734a9.64686,9.64686,0,0,0-1.47985-1.60328,1.09581,1.09581,0,0,1-.50046-.80515c-.3413-1.329-1.02515-2.09629-1.855-2.08125-1.01394.01837-1.78253,1.2504-1.926,3.08735a2.95139,2.95139,0,0,1-.29817,1.39755c-.19507.35472-.27807.4085-.63267.4099a.93147.93147,0,0,1-.58114-.24149c-.42647-.32352-.59813-.36687-1.4747-.37236-.60305-.00378-.78512-.0296-.95159-.13493a1.70537,1.70537,0,0,0-.59106-.17271c-.21186-.02336-.38835-.07637-.3922-.1178s-.018-.1514-.03148-.24437-.05133-.52934-.08415-.96971-.07133-.88156-.08558-.98042-.051-.54488-.08157-.99114-.07118-.96352-.09013-1.14946-.0547-.5891-.07945-.89591l-.09-1.11565c-.02475-.30681-.06073-.71-.07994-.89591s-.05714-.62713-.08425-.98042-.06552-.79448-.08534-.98043-.05965-.66986-.08853-1.07537-.07932-1.02925-.11209-1.38612c-.06454-.70272-.12368-.3621.90508-5.21286.23267-1.09707.61569-2.90747.85116-4.02312s.86277-4.08229,1.394-6.59251S5.377,4.29694,5.60742,3.19987s.44008-2.07833.46584-2.18059L6.1201.83333H43.58444l.09489.355c.05218.19524.56808,2.16539,1.14643,4.37811s1.67627,6.41163,2.43983,9.33093,1.43946,5.52081,1.502,5.78113c.27944,1.16283.25161,1.8919-.08206,2.15039a2.093,2.093,0,0,0-.51791,1.16276,1.76855,1.76855,0,0,1-.21093.57373c-.21.31883-.194.61113.06861,1.25189A3.8036,3.8036,0,0,1,48.28576,27.44a4.73523,4.73523,0,0,1-.11757,1.65658,5.25649,5.25649,0,0,0-.13053,1.70641c.02582,1.131.0257,1.13178-.18542,1.3016a.88511.88511,0,0,1-.44624.177c-.12925.00389-7.16695.00146-15.63934-.00542L16.3623,32.2637l-.01048.15755a2.24218,2.24218,0,0,0,.93831,2.14743c.832.7937.90949,1.70668.19579,2.30769a2.55959,2.55959,0,0,0-.52578.74329l-.24.50265-1.671.49285-1.671.49285-1.76613.03873C9.933,39.18357,9.83561,39.17881,9.63849,39.05043Z" fill="#fff" id="Alabama" /><text font-family="AudiTypeDisplayHigh-Bold, Audi Type Display High" font-size="21px" font-weight="700" transform="translate(3.07495 26.53199)">{value}</text></svg>