<svg xmlns="http://www.w3.org/2000/svg" id="Icon" viewBox="0 0 36 36"><defs /><path d="M17.63894,0h.74895a15.2528,15.2528,0,0,1,5.34566,1.512c2.45361.95064,4.94361,2.027,7.44263,2.9952.8269.32034,1.656.6537,2.46547,1.008A3.92925,3.92925,0,0,1,35.9804,8.7408a5.51363,5.51363,0,0,1-.16128,1.7856C33.88064,18.95568,31.904,27.47292,29.94335,36H6.06035C4.29054,28.2423,2.47321,20.54412.70312,12.78714A34.19808,34.19808,0,0,1,.0003,9.4032V8.94234a4.0829,4.0829,0,0,1,1.083-2.51994A5.43634,5.43634,0,0,1,3.18011,5.1696C6.32516,3.96006,9.45322,2.61768,12.5582,1.3968A14.185,14.185,0,0,1,17.63894,0Z" fill="#003882" fill-rule="evenodd" id="Fl&#228;che" transform="translate(-0.0003 0)" /><path d="M7.25635,34.50018Q6.0559,29.256,4.83789,24.03241,3.4961,18.25068,2.16553,12.4538l-.18262-.77637a23.69256,23.69256,0,0,1-.48242-2.37109V8.94257a2.531,2.531,0,0,1,.67578-1.49268,4.07215,4.07215,0,0,1,1.542-.88037C5.47705,5.89325,7.23,5.176,8.97656,4.46112c1.38086-.56494,2.75782-1.12891,4.13037-1.66846l.61914-.24756A10.95763,10.95763,0,0,1,17.669,1.49969l.71875.00049a11.15682,11.15682,0,0,1,3.9375,1.06348c.28808.11719.57617.23437.86621.34717,1.21386.46972,2.43554.97119,3.66406,1.47412,1.25488.51465,2.51562,1.03125,3.77832,1.521.80762.3125,1.61621.6377,2.40625.9834A2.42995,2.42995,0,0,1,34.48828,8.8952a4.02309,4.02309,0,0,1-.13086,1.29541c-.96,4.17481-4.707,20.39453-5.6084,24.30957Z" fill="none" fill-rule="evenodd" id="Kontur" stroke="#f9d116" stroke-miterlimit="10" transform="translate(-0.0003 0)" /><text fill="#f9d116" font-family="AudiTypeDisplayHigh-Bold, Audi Type Display High" font-size="13px" font-weight="700" id="Zahl" transform="translate(4.42659 22.04348)">{value}</text></svg>