<svg xmlns="http://www.w3.org/2000/svg" viewBox="0 0 96 35">
<g id="ri_rectangle_yellow_black_yellow_5dig">
<g id="Schild">
<path d="M0,3.6408A3.64054,3.64054,0,0,1,3.6426,0h88.754A3.60162,3.60162,0,0,1,96,3.60159V31.40772A3.59308,3.59308,0,0,1,92.406,35H3.6162A3.6163,3.6163,0,0,1,0,31.385Z" data-name="Schild" fill="#fee600" fill-rule="evenodd" id="Schild-2" />
<g id="Rahmen">
<path d="M92.39648,2A1.60135,1.60135,0,0,1,94,3.60156V31.4082A1.593,1.593,0,0,1,92.40576,33H3.61621A1.61632,1.61632,0,0,1,2,31.38477V3.64063A1.63982,1.63982,0,0,1,3.64258,2h88.7539m0-1H3.64258A2.63984,2.63984,0,0,0,1,3.64063V31.38477A2.61652,2.61652,0,0,0,3.61621,34H92.40576A2.59316,2.59316,0,0,0,95,31.4082V3.60156A2.6015,2.6015,0,0,0,92.39648,1Z" />
</g>
</g>
<text font-family="AudiTypeDisplayHigh-Normal, Audi Type Display High" font-size="22" id="Text" text-anchor="middle" transform="translate(48 25.22952)">{value}</text>
</g>
</svg>