<svg xmlns="http://www.w3.org/2000/svg" id="Icon" viewBox="0 0 40 40"><defs /><rect height="40" rx="2" width="40" /><polygon fill="#fff" points="15 4 12 3 12 2 4 2 4 3 3 3 3 6 2 7 1 7 1 8 2 8 2.791 7.497 4 9 4 30 1.883 31.277 5 33.056 5 37 5.516 38.543 6.611 36.944 7.167 38 10.222 36.944 9.611 38 17.736 37.222 15.341 33.919 16.415 30.616 16.056 33.778 16.745 34.662 18.561 33.589 17.333 35.278 18.561 36.809 29.626 34.58 30.699 35.736 31.938 30.947 32.103 34.497 32.889 33.889 33.011 32.928 39 30 36 27 34.827 16.084 34.084 15.672 35.488 12.039 33.424 12.451 34.084 10.305 34.084 7.745 35.075 6.837 33.176 4.938 29.873 5.02 25.91 7.828 27.314 4.69 25.993 2.956 24.011 3.121 22.277 2.295 22.194 0.892 15 4" /><text font-family="AudiTypeDisplayHigh-Bold, Audi Type Display High" font-size="14px" font-weight="700" isolation="isolate" transform="translate(4.38323 25.04353)">{value}</text><path d="M16.15331,9.44531,12.37589,6.147V9.12256h.7252v.27051H10.98438V9.12256h.7252v-3.543h-.7252v-.27h1.519L16.34428,8.6123V5.57959h-.72521v-.27h2.11672v.27h-.72521V9.44531Z" /><path d="M22.1887,7.2793A5.22578,5.22578,0,0,1,23.946,7.648c.42789.19385.643.43262.643.71582q0,.45264-.71963.748a3.37316,3.37316,0,0,1-.89468.22314,13.99179,13.99179,0,0,1-1.49189.05811h-3.2103V9.12256H19.174v-3.543h-.90154v-.27h3.4048a5.90123,5.90123,0,0,1,1.88545.23145q.6487.23217.6487.67334c0,.24121-.16933.45019-.50569.62793A5.30789,5.30789,0,0,1,22.1887,7.2793ZM20.45312,7.147h.286a4.81915,4.81915,0,0,0,1.64519-.2124q.54746-.2124.548-.63477,0-.386-.51827-.55322a6.27316,6.27316,0,0,0-1.72986-.167h-.2311Zm0,1.97559h.19449a8.73457,8.73457,0,0,0,1.78478-.11572q.82888-.219.82831-.67481,0-.39184-.73336-.65332a5.55906,5.55906,0,0,0-1.84312-.26123h-.2311Z" /></svg>