<svg xmlns="http://www.w3.org/2000/svg" viewBox="0 0 35 35"><g id="ri_thailand_federal_2dig"><g id="Schild"><path d="M2.26611.74993H32.73389A1.51611,1.51611,0,0,1,34.25,2.266V32.7343a1.51611,1.51611,0,0,1-1.51611,1.51611H2.2666A1.5166,1.5166,0,0,1,.75,32.73381V2.266A1.51611,1.51611,0,0,1,2.26611.74993Z" fill="#50a556" /><path d="M32.73383,1.5A.767.767,0,0,1,33.5,2.2662V32.7338a.767.767,0,0,1-.76617.7662H2.26624A.7671.7671,0,0,1,1.5,32.7338V2.2662A.7671.7671,0,0,1,2.26624,1.5H32.73383m0-1.5H2.26624A2.26623,2.26623,0,0,0,0,2.2662V32.7338A2.26623,2.26623,0,0,0,2.26624,35H32.73383A2.26618,2.26618,0,0,0,35,32.7338V2.2662A2.26618,2.26618,0,0,0,32.73383,0Z" fill="#fff" /><path d="M15.702,7.56973c-.3047-.0338-.2509-.0507-.2509-.0507l-.141-.0608.0155.1115-.1885-.0951c-.2041-.0505-.2326-.1563-.34051-.2371l-.1879-.091.018-.0847-.0896-.0508v-.0677l-.1076-.0665-.08-.0079.0084-.1119-.0717-.0508c-.0017-.0518.0109-.1063-.0516-.1466l-.0022-.0565.2509-.2032.0359-.1186a.57484.57484,0,0,0,.2867-.2031c.05751-.0154.06771-.1205.07171-.2371a.375.375,0,0,0-.05381-.3047l-.1137-.0906-.0093.2055a.49009.49009,0,0,0-.1458-.2504c-.0097.0289-.025.042,0,.1693l-.0605.1273-.1008.0928-.1254-.0338-.018-.0678v.1524l.0359.0508a.33884.33884,0,0,0-.184.0702l-.2282.1499-.1434.1355-.0371-.1739-.2138-.3171-.0649-.2237-.1032.1267c-.053-.1899-.1401-.4047-.1971-.6142a7.39963,7.39963,0,0,1-.1903-.745l-.002-.4835a3.40887,3.40887,0,0,1,.0916-.3753c.0001-.044.1263-.1638.0896-.2078l-.1279-.006-.2664.1753a1.7742,1.7742,0,0,0-.3226.5079,2.526,2.526,0,0,0-.0717.5757,3.7075,3.7075,0,0,0,.1614.81271l.2867.6434.1075.1524-.3226-.4233-.2688-.5926-.0717-.508L12.064,4.776l-.0538.508.0358.4063a3.61343,3.61343,0,0,0,.2015.4682l.3003.3954.1972.2539a2.49468,2.49468,0,0,1-.4302-.3725,1.35132,1.35132,0,0,1-.215-.3725.19948.19948,0,0,0-.0776.2073,2.75367,2.75367,0,0,0,.1374.5266,1.3633,1.3633,0,0,0,.2151.3217,2.66012,2.66012,0,0,0,.3344.3159l.4301.2878-.2509-.0846a3.90814,3.90814,0,0,1-.3943-.2189l-.167-.124c-.0489.0139-.0058.1244.0595.2582a1.69236,1.69236,0,0,0,.3047.4064,4.09412,4.09412,0,0,0,.448.3386l.3047.1186.2509.0677c-.1024.0006.0129.0869-.4839-.0677l-.4301-.1524-.1792-.1693c-.0056.0615-.0269.1104.0896.2709l.215.2539.3226.2032.2868.1355.2509.0338.233.0339-.0359.0169h-.3405a2.44274,2.44274,0,0,1-.5735-.1693c.0884.0974.0713.1617.3047.3048a1.67566,1.67566,0,0,0,.4122.2201,2.17556,2.17556,0,0,0,.4659.1016c.283.0217.4326.0319.5777.0417l.04961.026-.59141.017a3.40125,3.40125,0,0,1-.3943-.0508c-.1189-.0182-.2827-.1002-.3546-.0517l.1418.1623.2329.1863.1949.09251.1972.0508-.1434.1524-.0358.3724a1.218,1.218,0,0,0,.0896.4064,1.62852,1.62852,0,0,0,.6451.6096c.21941.1226.41031.2182.59141.3047l.233.1185.0717.1186-.0717.0508.1075.0508-.233.2032.018.0169-.1613.1016-.0179.0677a.7109.7109,0,0,0-.1972.1355h-.0896l-.0358.1016-.1434-.0678-.17921-.2201c-.0872-.1356-.2344-.266-.2867-.3386l-.2509-.202a1.24961,1.24961,0,0,0-.1792-.0859l-.17.0473-.1706.139.1076.0508-.1613.1355-.0179.2031.0716.0339.0402-.0911.1032.0064-.0896.1186v.1862l.1075-.0847.0538.017h.1792l.0896.0677.0896.0169.063.1355.0983.0508c.0808.1051.08.1252.0717.163.0162.0065.0312.0138.0347.0277l.0259.0545.1007.0677.0765.134.13861.061v.1185l.0537.017.0122.0904.0595.1297-.0787.0801.0179.0789c.0382-.0195.0629-.0647.1242-.0405l.118-.1016c.0591-.0297.1025-.1334.1495-.2201-.038-.1005-.0536-.1585-.08-.237-.0366.0133-.024-.1127-.0358-.1693l.0896-.017.0716.017.0538-.1016.1792.0846.2448.0079-.0061-.0665a.26434.26434,0,0,1-.1014-.0983c-.0461-.0293-.0323-.101-.0297-.1648l.1971-.1185.1254-.1185-.1062.2415-.0013.1818a.3952.3952,0,0,0,.1434.1354l.0537-.1862.024.3035.0656.1198.1076.0677.0537-.0847.018-.1524.0358-.0846-.0179.0677v.2371l.0634.2189a.63222.63222,0,0,0,.1779.123l.0992-.0371-.0359-.1355.018-.1863.0391.0079.0068.2374.0407.1218.0544.1219.1086.0642.0883.0449h.2241l.0475-.0449v-.0578l-.1222-.0769-.0272-.1604.0204-.1091.0475-.1283h.034v.2117l.0339.1989.0612.1027.0543.1219.1086.0449.0815-.0513.0204-.1091h.0408l.0747.0962.163.0321.1493-.0642.1427-.1668.0339-.0834.0272-.0834.0271.0962.1698-.0192a.459.459,0,0,0,.1834-.2181l.0067-.1348-.0203-.1091-.0747-.1603.0475.0256.0679.1347.0204.1604.0136.0321.129-.1283.0679-.1412.0136-.1603-.0611-.1476-.0408-.0706.1087.0706.0339.1411.0272.0963.1019-.0963a.24527.24527,0,0,0,.0339-.2053.392.392,0,0,0-.1047-.232.60155.60155,0,0,0-.2144-.1658l-.1087-.032.0136-.0963.129.0898.2377.1797.2513.1989.0814.0577-.0271.0963-.0815.0577-.0136.077.1562.0064.1426-.0513.1019-.0385.1358.0898.0747.0834-.0272.1155-.0611.1027-.0068.0898-.0543.0898.0271.1604.0612.0834.129.1027.14941.0064.0475-.0642-.11541-.1155.08151-.0962.0339-.0898.1087-.1476.1154-.1155.0136-.0769.0679-.0257.1698-.1925.0136-.077.0407-.0064.0951-.077.0136-.0834.1222-.0321.0611-.0641.1902-.0129.0611-.0385.1018.1219.0476-.0513v-.1476l-.0544-.0641.0068-.0706.0815.0577v.0321l.0679-.077-.0543-.1475-.1019-.1155-.0271-.0385.0815-.0193-.0408-.109-.1426-.0578-.1426-.0128-.1629.0385-.2174.154-.0203.0449-.0883.0513-.0611.0963-.0747.0385-.0748.1411-.0407.0449-.0883.0321-.0475.0641-.0747.0193-.01361.0449-.0815-.0064-.0407-.077h-.1223l-.0067-.0898-.1495-.0257-.0475-.1091-.095-.0064-.0408-.0577-.0068-.0513-.0951-.0257-.095-.0513-.0408-.0578.0475-.0449-.0339-.0513.0747-.1219.4075-.1668.0679-.0193.43461-.2374.1654-.0872.1235-.0937a.75662.75662,0,0,0,.1045-.1213l.0887-.1405.1358-.2438.0408-.308-.0068-.2117-.0407-.1411-.1087-.1605.1833-.032.231-.09631.129-.1155.0407-.0256.1426-.1732.0428-.0324c-.0244-.0802-.1257-.0149-.2106.0192l-.2532.0645-.2513.0257h-.2445v-.0321l.2921-.0321.4074-.1091.326-.1411.2445-.1797.061-.0449.0272-.0577.1019-.1155a.18914.18914,0,0,0-.1698.0256l-.2173.0835-.2512.0385-.3056.0449-.1223-.0065.1155-.0384.2173-.0257.1901-.0513.2852-.1027.2038-.1283.1901-.1604.163-.1668.0575-.1396c-.1007-.0107-.2013.0759-.302.1139l-.3667.1155-.2425.0393-.2261.0249.5773-.2053.3667-.2374.258-.2631.1834-.2631.1086-.2804c-.0435-.0095-.1596.0954-.2376.1989a.76885.76885,0,0,1-.2106.1136l-.2988.1348-.0475.0064.3599-.2503a3.23054,3.23054,0,0,0,.2784-.2758l.163-.2374a1.31748,1.31748,0,0,0,.1426-.3016l.0408-.2887-.0144-.2214c-.0361-.0368-.11.1408-.169.2342l-.2309.231-.2376.2182.0271-.0835.2309-.2374.163-.2437.1494-.308.0951-.2631.0203-.5838-.0339-.2759a2.14289,2.14289,0,0,0-.0895-.2351l-.0882-.0456-.0057.146-.0543.2694-.129.2952-.0611.1476-.0136-.154.129-.308.0475-.3336.0136-.42351-.1222-.4363-.163-.2759-.2105-.186-.2377-.1155-.0815-.0385h-.0475l.0136.0962.0882.1091.068.1925.0339.2759.0068.5261-.0715.394-.0576.254-.1357.3785-.0544.1733-.0815-.0706-.0204-.077-.0611.0256-.0271.1669-.0815.231-.0747.1218-.0951.1669-.0068.0513-.0747-.0128-.2037-.2118a.70471.70471,0,0,0-.1766-.0962l-.0959-.0332.054-.0914-.0667-.023-.0815.0449-.1019-.0705-.0203-.1284-.0951-.0898.0407-.0642-.0136-.0384-.095.0192-.0136.0962-.0068.0899-.0475-.0129v-.1732l-.0611.0514-.0136.109-.0408-.0257-.0543-.0385-.02041.154.02721.2246.1086.1796.292.2182.2038.2181.0679.1091-.0679.0128-.0068.0899-.0068.0641-.0883.0257v.0513l.0747.0192.0068.045-.1155-.0065-.069.0605-.0939.1256h-.0543l.0067.0642.0408.0128-.1834.0963-.16971.0833-.1019.1027-.0883.0834-.0747-.0064-.0951.0256.0068-.0962-.0882.0257-.0544.077-.2037.0128-.2309.1347-.1086.0449-.0679-.0385-.1019.0385-.1426.0129.1018-.1348v-.1155l.0883-.0192.0611-.0898.034-.0898.0407-.0578-.1018-.0128-.0747.0898h-.129l-.1291.0321-.0747.077-.0271.1026.0068.0449-.068-.0128-.0679-.0834.034-.1091.0339-.0962-.0067-.0449.0882-.0128-.0271-.0578-.0136-.0449.0407-.0449v-.077h.0612l.0339-.0834.0475-.0578.0136-.0705.034-.1091.0272-.0321-.0952-.0706-.0882.0065.0543-.0449.0408-.045v-.0513H18.569l.0136-.0642.0068-.1732.0339-.0064-.0068-.077h-.1494l-.0543.0513.0136-.1411-.0272-.0578-.0271-.0898-.1019.0706-.0543.0834-.034-.0449-.0068-.0834-.0543-.154v-.1476l-.1019.0642-.0407.0642-.0815.0064-.0068-.0321.0747-.1155.0136-.1155h-.0747l.0068-.0642-.0612-.0962v-.0834l-.1018.0385.0136-.0642.0068-.1475-.034-.1347.0204-.0835-.0611-.0449-.0476-.0962-.0679-.41061.0204-.0578.0068-.0706-.0476-.0513H17.401l-.034.0257-.0068.1219.0408.0256-.0476.37861-.0407.1347-.0612.1604-.0271.1412.0611.186-.0068.045-.0747-.0706h-.095l.0203.1219-.0611.0064-.0271.231.1018.1411h-.0883l-.0883-.077-.0679-.0641-.0611.0834.0136.1668-.0272-.0129v.1733l-.0679-.0257-.0747-.077-.0815.0321v.1411l-.0339-.0128.0068.077-.0815-.0449-.0475-.0385-.034.0642.0204.0192v.2182l-.0068.0577-.0815.0128.0204.0642.0543.077-.1562-.0128-.034.0513.0815.1475.0136.077.0747.0642.0408.077.0135.1283.0544.1155.0339.0257.034.0834.0271.0834v.0513l-.0543.0128-.0068.0706-.0883-.0192-.0407-.1219-.0951-.1027-.1222-.0128-.0543.0321-.0204.0128-.034-.0578-.0339-.0385H16.002l-.0136.0385.034.0514.0204.0641.0747.0898.0611.0257.0475.0064.0068.122.0475.0448-.0543.0514-.1561-.0193-.1155-.0385c-.0566.0111-.1132-.0395-.1698-.077Z" fill="#fff" /></g><text fill="#fefefe" font-family="AudiTypeDisplayHigh-Bold, Audi Type Display High" font-size="18" font-weight="700" id="Text" transform="translate(4.64127 30.2156)">{value}</text></g></svg>