<svg xmlns="http://www.w3.org/2000/svg" id="Icon" viewBox="0 0 40 40"><defs /><rect height="40" id="Hintergrund" rx="2" width="40" /><path d="M1.07773,1.04121H38.92214L32.0396,38.02828H7.94927Z" fill="#fff" id="Viereck_Weiss" /><g id="Wagen"><path d="M30.72987,38.52687c-.01095-.11828-.195-.10974-.24311-.12768-.02818.01842-.091-.04169-.09281-.01094a20.26293,20.26293,0,0,0-5.585-.95041A20.88384,20.88384,0,0,1,25.86667,35.489c3.22091-1.89846.9098-3.87084-2.25151-6.14487a13.17548,13.17548,0,0,0-2.16669-1.30131c-2.06252-5.58274-9.66722.80539-4.95943,4.6673-1.00584-.52068-1.41855-.98711-2.15493-.88147.45247-.197.32208-1.11279-.18567-.96118.89391.88238-2.54368,1.04738-1.55278.13857-1.14672-.03232.3598,1.62155-.8574,1.74958.21333-.21265-.11256-.87553-.37129-.6021.09059.19153.25978.37383-.069.48671-.48591-.26886-1.92113.56168-1.71515-.45257-.58793.10742-.18628.914.116,1.07835-.055.8066-.576,2.15631.86888,1.321.91538,1.851,1.15593,2.85082-1.30921,3.93938M23.581,35.8731c-.85477-.44453.50625-.02819.00007,0m-5.73635-4.46072c.13179.32565-.33251.01731,0-.00015m0-.54469c-.019.28713-.175-.177,0,0m6.0142,5.133c-.55678-.726-.08315-.80394,0-.00007m-3.778-4.00946c-.33113,2.6815.27332,2.13572-2.17817,2.4334.87419-.56-.42711-.68713.34815-.82257l.05735-.66068c-.22029.07744-.75064.04641-.60209.42867-.96046-.89485,2.58457-.47256,2.22456-1.18233-3.88975,1.95813-5.94926-1.81718-3.59278-4.82079,3.63257-3.72647,7.263,2.85611,3.23374,4.65886a2.22871,2.22871,0,0,1,.96178-.84576c-1.18409.519-.5974-.37439.25464-.56729-1.341.28789-.45748-.13486.15082-.66135-1.26847.73391-.91654-.23864-.04639-.78777-1.17895.67911-.76462-.25089-.0922-.78775-1.19486,1.15931-.88786-.34007-.60337-1.14749-.34241,1.28976-1.36416.49663-.85739-.55629-.25077.70359-1.00026,1.5609-.99659.29-.09544,1.02162-.53151.81259-.89221.04584.70734,1.048-.182,1.1257-.97339.64909,1.02839.47506.32092,1.0987-.5563.76462,1.16537.22509.11489,1.57644-.38228.62593.6517.46774.93893,1.76084-.116.78775.01467.278.56151.71744.7651.40612.14339.57883.0614.961-.54466.52088.30293.17715,1.40355,1.05984.4983.76516.344.12045.88147.68242.16182.49828.67369.89184,2.56112.36511,3.77742-.03478M17.83357,31.597c.09478-.31356.42885-.4377.26617.12715.32627.11422-.35653.86376-.058.23217-.10507.05182-.19825.28056-.29007.3591-.1414.54365.02493-.824.0818-.71821m1.2396.45249c-.001.316-.27874.045,0,0m.21983-1.04359c.78-.05333.34138.86846.348.67239-.10357-.11168.00046-.18868-.18549-.0466-.0235-.10614.04409-.16425.09224-.23205-.29827.42115-.18478-.084-.243.28945-.00819-.00925-.0273-.01967-.0232-.0342-.04643-1.338-.02377.79991-.417.04627-.32139.34878-.492-.13665-.25471-.39468.23794.26081.61662-.11344.68331-.30111m5.064,3.74262c-.51875-.15089-.29506-.03095-.74193-.4519.00984.00183.01451-.00122.01221-.01162.23912-.03153,1.22189.59146.72974.4635M19.4439,31.7591c.39609.17741-.29137.06563.00005,0m-.20884.15022h0c.00814.00293.01869-.005.02321-.011.49226.14451-.42332.46333-.04636.1155-.00989.002-.01364-.00175-.01163-.01162-.11064.07651-.03641-.08252.03483-.09282m4.774,3.80063c.15478-1.42144.19536.48714,0-.00008m-6.50027-3.51058a1.15636,1.15636,0,0,1-.09281-.44024c-.05154.0356-.01284.0869-.10386.09218.23.20688-.05424.34669-.00005.48734.45578.86274-.766-.65408.13883-.93921.18744.14072.43347,1.107.05775.80008m7.28861-.06961c.70291-.27349,1.26341.03732.15033-.38193.21017-.05866.60293.17411.70762-.0931-1.926-.76873,2.48427-.18848-.99718,3.32553a.68525.68525,0,0,0-.35963-.50992c.23477.01.6778.07423.78836-.16184a1.17288,1.17288,0,0,1-1.17-.25545c.08139-.1894.55128-.01852.11526-.30159.27292-.06946,1.06269.27247,1.15914-.17364-1.49589.13-.64879-.16419.116-.40546-.93306.09561-1.11564-.35271.04649-.20892-.62432-.26777-.25506-.21927.28945-.34795-.25966-.04332-.65115-.00983-.82258-.35847.175.0251.70407.2191.70654-.03481a.95663.95663,0,0,1-.72975-.09286m.38227,3.22113c.09328-.03675.2052.06914.28947.09277-.06266.09462-.32821-.05409-.28942-.09287m-3.245-.40546c.04327.229-.43153-.09181-.08065-.00006-.00785-.24514.17938-.22453.0806,0m-.243.84574c-.21539-.35212.16984.23749.00007-.00008m0-1.66888a1.07043,1.07043,0,0,0-.77612.02379c.12853-.33114,1.13387.01341.77619-.02386m-.29005.0464c-.01334.12158.04734.57394-.09218.61431.03665-.12608-.08822-.66131.09218-.61433m.36642-5.61487c.15658.19841-.33734-.16887.03957-.032m1.20551,3.10968c.34392.16621,1.29941.09627,1.30926-.232-.77482.56273-1.7204-.07824-.48688-.37092-1.54091.07106.456-.35086.32433-.56794-.90747.32751-1.06989-.20475-.12767-.34769-.166.001-.41306.05706-.54416-.127.07769-.02383.364-.028.26624-.15148-.01385.02107-.10325.04094-.10439.01216-.06012.05166-.16122-.00209-.23136,0,2.36389-.09537,1.15031,3.48837-.06959,4.34468.05783-.3246-.37475-.41126-.53309-.59054.33011-.02669-.49579-.23985.02323-.2082.56015-.0074-.50574-.142-.56794-.31329.2443.01292.78991.27375.31269-.08119,1.57716.086.77805.21576-.05738-.40547.45543-.31682,2.696-.16675.71815-.22034-.80335-.26609-.097-.18692.26621-.31279-.40836-.15014-.89381.05359-.37061-.32437-.04413.03956-.27646-.04213-.127-.10445M17.8217,34.57336c2.32358-.36668,2.383-.10138,0,.12762v-.12762m.058-3.33715c-.35385.45866-.4038-.03377,0-.00007m.6027,4.82039c.08806.79727-.98193-.74223,0,0m-.89214-4.61217h0c.01719.01488.05517.08132.069.08126-.09785.22947-.22755-.06365-.06907-.08128m1.043,4.31112c-.27063.75336-.68574-.71382-.00008,0m-.78833-.03541a1.243,1.243,0,0,0-.09282.34814c-.23656-.76167-1.56387-.49328-1.13516-1.611-.7781,1.70948-1.64343-1.50835-1.93512,2.30566.13629,1.19924-.89987.26631-.55625.50952.18.04581.175-.23057.20882-.33552.09632.31416.22654.60372.26625-.01153-1.02741.45242.174-3.19182-.46348-2.43338-.17784-.82864.84868-1.74525,2.10853-1.5989.71669.22289.10939.75371.86893.3816,1.53366.42579-1.128,1.08183.73036,2.44537m2.329.52149c.18254.18183-.35952.12638,0,.00005m-.764-.42607a1.91629,1.91629,0,0,0,.08071.53059m0-.0001c-.2144.04661-.583-.10547-.88044-.04641.12428-.53481.283-.659.79976-.48408m1.05407.46159c-.79518-.13635-.429-2.116.42861-2.2019a1.76445,1.76445,0,0,0-.42862,2.202m-.52149-.33646c.077.004.16462.0323.1734.10439-.06939.157-.236.046-.1734-.10439m-.243-.62591c-2.76019.45467-1.52328-.43939,0,0m.15022,1.07778c-.73511.10106-.12889-1.20541,0,0m-5.85176.32425c-.62082,1.38586-1.6747-1.49555,0,.00012m-.058-1.74948c.03264.0235-.03025.13608-.0348.16245.19555-.12551.33617,1.43283.18563.93868-.22137-.65113-1.19856-2.46365-.15084-1.10108m-3.40615-.78834c-.0608.70724-.39479-.03167,0,0m.85673,2.54942c.03837.055-.10184.1826-.127.232.30253.52355-.598-.24842.127-.232m3.87085-.0342c-.37593.32615-.343-.02691-.38287-.34814a.524.524,0,0,1,.38287.34812m2.5024-.37127c-.746.16239-.429-1.12924-.00005.0001m-.50988,0c-.86088.36169-.06577-1.01724,0,0m-.76452-.50927c-.47475,2.0598-2.07533-1.31725.00022,0m-3.76643,1.2506c-1.8047,1.12655-1.00383-1.30466,0,0M24.97175,35.4079l.02257.10442c-.68271-.46242-.50886-.86073-.02262-.10452m-1.32143,1.344c-.40566.51219-1.04142-.28631-.04643-.09284-.007.00546.04374.087.04641.09284m1.42523-1.29761a4.05629,4.05629,0,0,1,.35967.19728.06479.06479,0,0,0-.02379.05741c-.09541-.07957-.38637-.13174-.336-.25476m.71531.09946-.39108.88559m-2.34058.08122c-.21378-.19248,1.21623.00127,0,0m4.21936-2.92981c-.06274.88318-.95274,2.03221-1.86717,1.63159.308-.09847-.18656-.13761-.25464-.25461.06778-.00957.34387.01835.25464-.09292-.52807-.104.14316-.0552.3017-.03488,1.29824-.26592.22228.01507-.24367-.23143-.09042-.24248,1.98823-.1484.33636-.34761.83737-.22413-.27853-.0367-.06957-.31335.13035-.29921.6173.09691.85744-.12765a2.1,2.1,0,0,1-.6717-.1386c.25378-.12594.84355.04871.985-.33651a1.026,1.026,0,0,1-.5563.10447c.09385-.12793.36009-.0771.4286-.243-.17446.2337-1.40171-.01612-.52157-.17372.32934.16348.96606-.58044.31265-.12723-1.12034.001.71608-.4678-.3476-.29065.49189-.24491-.18018.05206-.08124-.24308.26228.05487.63195-.35573.23141-.1392-.18219.08289-.341-.20117-.15022-.05735.53057-.17453.02227.00728-.10437-.20879.63138-.084,1.01127.461,1.12892,1.2188M25.527,35.69774a.07583.07583,0,0,0,.04641.011c-.02605.15325-.09883.19272-.21981.26624.03754-.07389.07979-.32757.17337-.27721m-.011-.13983c.00739-.014.02858-.05233.02262-.069.27392.039.10593.29458-.02262.06887m-3.81284-1.355a1.57613,1.57613,0,0,1-.25464,2.42181c.28645-.54621.93027-1.30391.44025-2.02794-.67881.73655.28687-.12557-.301-.39382.03532-.03243.08606-.04864.11539,0m.71872,2.514c-.93949.24349-.1892-.685,0,0m.6485-1.36722a2.21884,2.21884,0,0,0-.32427,1.41363c-.76124-.2117.16088-1.944.93853-1.912-.18137.14305-.47408.268-.61438.49834m-1.69148.99656c-.13756.591-.15546-1.33533,0,0M17.99517,35.0254c-.32278-.53991,1.286-.01552-.00005.00005m-.32425-1.00817c.26322.88359-.254,1.07943.00007-.00005m.86894-1.69208c.25119-.46.53157-.03047,0,0m-4.1951-.81093c-.00429-.00639-.01417-.01469-.0226-.01162.00283-.17892.12265-.18783.08055-.40552.1488.05766.10147.38808-.05795.41712m-.55568.16243H13.7775c.59109-.51615.432.80137.069.09287.24008-.01522.04959-.11072-.0574-.09282m1.18159.5795c.22274-.48845.10661.31316-.09287.43956-.152-.02946.05891-.36254.093-.43956m-.70712,1.08877a2.80007,2.80007,0,0,1-1.2628,1.13578c.30052.78007.04236,2.22943-.49829.61378-.35342.67394.82562,1.53638.29005,1.98229-.75509-.36623-.79538-3.14218-.93855-1.785-.25576-.34759-.16471.92-.47508-.1618-.39772.26592-1.12718-.40193-.62591-.41768-.175.50813.33925.22754.6137.22039-.34072-.68247.05189-.89037.1275-.04582.66605-.80094.0656-1.89291,1.04293-.69609.50466.37288-.51814-1.13033.75376-.7648-.508.10393-.03221.30334-.17409.63761,1.06931-.06228.76985-1.54555,1.54046-1.41387-1.10653.02323.0237-1.1799.09366-.73026.617-.01307-.23971.61357.05738.95025-.37378-.18978-.44423.17181-.5447.4751m4.10228-2.213c.04013-.01028.1113.04206.06962.08065.0163.0063.02066.03987.058.03542-.00706.04583.0137.08369.058.05745-.002.00989.00176.01364.01163.01163-.26644.21.05593.45049-.06964.6493-.1097-.19812-.53888-.57111-.12763-.83442m-.39386,1.333c.27425-.9674.85416-.18311,0,.00009m1.58767-2.24838c.00863.16033-.066.47824-.26688.44025-.08716-.37859-.03547.23973-.20888-.26687a.72918.72918,0,0,1-.23146.54472c.00076-.38069.34251-1.48125.7071-.71816m-1.86612.996c-.32619.1432-.29869-.56542,0,0m1.217-1.15839c-.41213-.0084-.24531.66312-.15016.88055-.32373-.11574-.20418-1.35176.15029-.88057m.116.78834c.01083.00156.02941,0,.03478-.01163a.03282.03282,0,0,0,.03425.01163c-.21415.133-.053.24042-.24308.20771.00466.01428-.016.02139-.01163.03547-.00838-.00312-.01873.00546-.02321.01162-.04386-.09061-.15212.11714-.21975.13916.01362-.08923.09745-.15314.19657-.19726-.48794-.33113.08444.12188.2319-.19675m-.09282.46286c-.84512.15721.98867-.76721-.00007.00008m-.16183-.78773c.25629-.13993.07344.48547-.08172.19726.06923-.11756-.09943-.13447.08178-.19731m-.05863-.116c.10073-.35574.31249.18952,0,0m-7.38081,2.72346c.26442-.34092.19966-.06717.301.185-.09173.03662-.22269-.12529-.301-.185m-1.12419-.24364c-.10213-.24038.59909-.27034.64911-.11548-.01355-.00394-.03922.021-.03481.03478-.2505-.0068-.37767.18529-.6143.08058m-.34745,1.01977c-.00893.04111-.04591.1585.0116.174-.35722.37621.11729-.78818-.0116-.174m.08121-.50927c.04076-.47615.92556-.69871.60285.15031-.37661.20685-1.17872-.04751-.67247-.41734-.12593.14775.07507.14329.06962.267m3.70781-.95077c.57055.2263-.48377,1.252-.44027.73033-.80045.17025.20648-.83146.44027-.7303m-2.57262.45187c.1804-.434.27008.41844,0,0m-.92635,1.8081c-.24513.22788-.62164-.19949,0,.00005m.0342-.22044c-.26457.52707-1.146-.46188-.22044-.20893-.04153.65809.19723-.31149.22044.20888m-.5447-1.36783c-.03256-.00033.00621-.03188.02321-.02262.19212-.6084.375.01328-.02321.02262M9.525,32.77751c-.253.49591-.1684-.79323-.05312-.4066a.34747.34747,0,0,0,.05312.40657m1.286,1.2396c.00943-.02672.072.00375.06961.02257.07225-.12867.11393-.44321.25464-.53253.30542.30467-.64778,1.13464-.32425.51m1.76109-2.202c.118-.52321.24244.20671.75289-.03471.86609.2396-1.33028.93473-.38223.25512-.068.04471-.25309.01011-.19663-.09286-.15775.02449-.24431.23743-.27845.37065-.09622-.165.02673-.40157.10442-.49833m-.44027-.301a.45161.45161,0,0,1,.38226-.48666.9554.9554,0,0,0-.37066.54467l-.0116-.058m1.33241,2.24776c.01662-.14206-.29451-.39966.058-.48666.08044.08852.03444.77773-.058.48671m-3.11671-.04641c-.04288.91341-.488-.03259,0,0m1.65667-.985c.81736-.85358,1.2198.17683,0,.00005m-.26624.27845c.09694-.72876.735.43816.14024.24385.08732-.274.13311-.45454-.14024-.244m.68331-.08121c.01477.87441-.35362-.5342,0,0m9.98885,1.62186.71812.31326c-.56858.60017-.56191.38841-.71812-.31326m.16183.83474c-.00857.05537-.15911-.04471-.20821-.05808a1.95038,1.95038,0,0,1-.38224,1.03139,1.97412,1.97412,0,0,0,.069-2.00483c.29716.2221.19132.81881.52146,1.0314m-5.17945-4.66957c.12991.17147.33572-.10523.41765-.0116-.08083.06273-1.15162.547-.41767.17335-.20583-.10155-.0533-.52908,0-.16179m1.81909.90374c.03872.01078.067.11467.10445.15093-.00586.13036.35142.19923-.116.06961.03872-.073-.001-.12174-.02257-.18559a.08389.08389,0,0,0,.0342-.03487m.95077.34745s1.07574.75894,1.63346,1.08931c-.26057-.3171-.74129-.49755-1.03132-.76472a.77484.77484,0,0,0,.93851-.29c-.328.05838-.71155.24263-1.00812-.06968.23323.02466.47008-.09935.116-.10445.20039-.10045,1.31989.068,1.48322-.55568a1.12174,1.12174,0,0,1-1.20483.16177c.27911-.14284,1.28582-.066,1.39036-.521a1.59622,1.59622,0,0,1-1.55289.10386c-.11347-.16432,1.01725-.21722.62606-.33667-.93729-.00094.9557-.248,1.04229-.6832-1.54842.60311-1.36954-.05482-.35893-.49827-1.36873.10664,1.17687-.31165-.76458-.42873.00989.002.01364-.00176.01163-.01163,1.78047-1.76209,2.05546,2.1559.4512,4.091.25489.18614,1.66875.96956,1.1473.85713-.26672.50647,1.45114,1.13369-.05744.45189-.03895.0674-.06018.188-.16238.13925v.01162c.002-.00984-.0017-.01365-.01158-.01162.17332-.34066-.722-.62549-.715-.67663.02483.80872-.334-.49962-1.06934-.67968-.083.21662.00517.933-.27211.79145.29666-.8232-.015-1.01887-.60086-1.3353.11258.28539-.44646,1.71747.31421,1.495-1.06147.81616-.21981-1.97439-.345-2.22543M21.64483,35.071c.10264.2712-.12164.81081-.4635.63682-1.18044,2.06425-.95716-2.8483-.01161-.69486a.277.277,0,0,1,.47506.05794m3.31456.985c.00372.34221-.05818,1.45417-.50989,1.286.24293-.19469-.094-.45955-.20881-.61428-1.6052-.27238,1.23192-1.025.03478-1.76109a1.20221,1.20221,0,0,1,.68394,1.08941m-.50988,1.14739c-.31409.489-.52508-.81367,0,.00005m-.49828-.32486c.08245.56065-.48939-.0333.00007.00007Z" fill-rule="evenodd" id="path11444" /><path d="M18.94567,34.12371c.31231-.80446-.72121-.60038-.59117.10439Z" fill-rule="evenodd" id="path11448" /><path d="M19.7453,34.0196c.3061-.82439-.75085-.63035-.626.09278Z" fill-rule="evenodd" id="path11452" /><path d="M19.86133,32.6293c-.54233-.00435-.72878.28389-.68392.79933C19.72593,33.447,19.891,33.13563,19.86133,32.6293Z" fill-rule="evenodd" id="path11456" /><path d="M19.0038,33.47516l.06961-.68392C18.27683,32.72156,18.13633,33.87585,19.0038,33.47516Z" fill-rule="evenodd" id="path11460" /><path d="M15.21472,34.3676c-.62844-.51563-.54116,1.29843,0-.00025Z" fill-rule="evenodd" id="path11476" /><path d="M20.54469,34.86552c-.21555.38969,1.15732.69835.174-.34745A1.72179,1.72179,0,0,0,20.54469,34.86552Z" fill-rule="evenodd" id="path11500" /><path d="M20.41707,35.52593l.0232.16243C21.76893,35.54346,20.316,34.74766,20.41707,35.52593Z" fill-rule="evenodd" id="path11504" /><path d="M20.59123,36.1053l.06961.10442C21.88073,35.16334,20.13239,35.53111,20.59123,36.1053Z" fill-rule="evenodd" id="path11508" /><path d="M24.35727,36.2097c.42348.0407.55491-.13706.39388-.54472.00416.03769-.60176.40195-.42867.44025" fill-rule="evenodd" id="path11512" /><path d="M24.3919,36.46476c.58563.273.507-.40153,0-.1508" fill-rule="evenodd" id="path11516" /><path d="M24.63549,36.97428c.21067-.24055-.15688-.571-.29005-.33585v0l-.04641.03483" fill-rule="evenodd" id="path11520" /><path d="M14.61183,35.71144c.0196-.25045-.44114-.02529-.30112.10445C14.6121,36.20054,14.45671,36.8266,14.61183,35.71144Z" fill-rule="evenodd" id="path11472" /><path d="M10.12747,33.47516h0c.24344.2538.33345-.29066.32489-.40561C10.27629,32.96039,10.13717,33.38423,10.12747,33.47516Z" fill-rule="evenodd" id="path11480" /></g><g id="Nebraska"><path d="M7.52412,6.4407,6.11743,4.70852V6.4407H5.6423V3.93409H6.11L7.51664,5.685V3.93409h.48262V6.4407H7.52412" id="path15665" /><path d="M9.55745,6.4407V3.93409h1.99781v.47514H10.03259v.45643h.87918v.48261h-.87918v.6173h1.55634v.47514H9.55745" id="path15667" /><path d="M15.39846,5.67376a.843.843,0,0,1-.05986.32922.66714.66714,0,0,1-.15713.23944.69561.69561,0,0,1-.23944.14965.89687.89687,0,0,1-.2993.04863H13.0415V3.93409h1.53763a.72021.72021,0,0,1,.27685.05238.65023.65023,0,0,1,.22074.13842.59789.59789,0,0,1,.1459.20951.68262.68262,0,0,1,.05238.26937.81867.81867,0,0,1-.015.15339.60665.60665,0,0,1-.04115.14591.56277.56277,0,0,1-.07482.12346.38653.38653,0,0,1-.10476.086.56734.56734,0,0,1,.26563.22822.61553.61553,0,0,1,.09353.333m-.5986-1.07a.17047.17047,0,0,0-.0636-.13843.32847.32847,0,0,0-.217-.05611H13.51663v.46765h1.00264A.2566.2566,0,0,0,14.74,4.79831a.3218.3218,0,0,0,.05986-.19454m.116,1.07a.29987.29987,0,0,0-.09353-.24317.43159.43159,0,0,0-.29556-.08231H13.51663v.6173h1.00264a.48194.48194,0,0,0,.31426-.07857.25473.25473,0,0,0,.08231-.21325" id="path15669" /><path d="M18.65031,6.4407l-.5537-.94278h-.77443V6.4407h-.47513V3.93409h1.53016a.769.769,0,0,1,.31052.0636.72789.72789,0,0,1,.25066.16836.782.782,0,0,1,.232.55.76043.76043,0,0,1-.1459.45642.80176.80176,0,0,1-.39283.28434l.57241.98393h-.5537M18.69521,4.716A.2713.2713,0,0,0,18.669,4.6a.26272.26272,0,0,0-.06734-.09727.2573.2573,0,0,0-.101-.06735.28849.28849,0,0,0-.12346-.02618h-1.055v.61729h1.055a.32948.32948,0,0,0,.12346-.02244.32561.32561,0,0,0,.101-.06734.29886.29886,0,0,0,.06734-.101.27958.27958,0,0,0,.02619-.11971" id="path15671" /><path d="M22.71775,6.4407l-.2544-.54621H21.1876l-.26189.54621H20.3982l1.186-2.50661h.47514L23.249,6.4407h-.53125M21.8236,4.54017l-.41527.8717h.82681l-.41154-.8717" id="path15673" /><path d="M26.79057,5.72987a.63813.63813,0,0,1-.28808.55744,1.42013,1.42013,0,0,1-.81184.19829,2.71971,2.71971,0,0,1-.35915-.02245,1.88923,1.88923,0,0,1-.318-.0636,1.82281,1.82281,0,0,1-.29181-.116,2.71244,2.71244,0,0,1-.28059-.17583l.2731-.38909a2.32394,2.32394,0,0,0,.22074.13094,1.40638,1.40638,0,0,0,.46016.13469,2.37928,2.37928,0,0,0,.27685.015,1.269,1.269,0,0,0,.48262-.07108.2321.2321,0,0,0,.16835-.217.21608.21608,0,0,0-.06734-.14965.41218.41218,0,0,0-.17209-.116q-.08979-.02993-.22073-.05986-.13095-.03366-.37412-.07856-.14217-.02993-.25067-.05612a1.70382,1.70382,0,0,1-.1908-.0636,1.13853,1.13853,0,0,1-.1459-.07108.76919.76919,0,0,1-.1085-.08979.617.617,0,0,1-.19454-.44146.59508.59508,0,0,1,.42275-.57241,1.25615,1.25615,0,0,1,.28808-.08979,1.54957,1.54957,0,0,1,.318-.03367,1.72053,1.72053,0,0,1,.50881.07482,2.055,2.055,0,0,1,.49384.22448l-.25441.39656a1.29193,1.29193,0,0,0-.37038-.16461,1.704,1.704,0,0,0-.41153-.04489,1.17581,1.17581,0,0,0-.39283.04863.15885.15885,0,0,0-.05611.28808.67026.67026,0,0,0,.17583.07856,1.43971,1.43971,0,0,0,.20577.04489q.10475.01123.16461.02245a3.8219,3.8219,0,0,1,.41154.101,1.65146,1.65146,0,0,1,.318.11972.667.667,0,0,1,.26937.26937.75314.75314,0,0,1,.101.3816" id="path15675" /><path d="M30.04505,6.4407l-.767-1.28323-.56118.57989V6.4407h-.47513V3.93409h.47513v1.1074l1.04754-1.1074h.63975l-.7894.86048.97646,1.64614h-.54622" id="path15677" /><path d="M33.959,6.4407l-.2544-.54621H32.42889L32.167,6.4407h-.52751l1.186-2.50661h.47514l1.1897,2.50661H33.959m-.89415-1.90053-.41527.8717h.8268l-.41153-.8717" id="path15679" /></g><text font-family="AudiTypeDisplayHigh-Bold, Audi Type Display High" font-size="20px" font-weight="700" id="Nummer" transform="translate(6.07894 23.91713)">{value}</text><polygon fill-rule="evenodd" points="20.247 32.176 20.219 32.558 20.962 33.023 21.02 32.664 20.247 32.176" /><polygon fill-rule="evenodd" points="21.148 32.762 21.112 33.174 22.029 33.758 22.121 33.429 21.148 32.762" /><polygon fill-rule="evenodd" points="22.204 33.475 22.144 33.831 22.885 34.263 22.955 33.962 22.204 33.475" /></svg>