<svg xmlns="http://www.w3.org/2000/svg" id="Icon" viewBox="0 0 50 40"><defs /><rect height="40" rx="2" width="50" /><path d="M46,1.96092H4A1.98063,1.98063,0,0,0,2,3.9216V18.62667H48V3.9216A1.98063,1.98063,0,0,0,46,1.96092Z" fill="#002868" id="Hintergrund_Blau" transform="translate(0 0)" /><path d="M46,37.2531H4a1.98063,1.98063,0,0,1-2-1.96068V20.58735H48V35.29242A1.98063,1.98063,0,0,1,46,37.2531Z" fill="#fff" id="Hintergrund_Weiss" transform="translate(0 0)" /><path d="M2,7.35278H48v5.68427H2Z" data-name="Balken Weiss" fill="#fff" id="Balken_Weiss" transform="translate(0 0)" /><path d="M23.455,12.3225a6.01772,6.01772,0,0,1-7.73076,3.15556A5.64632,5.64632,0,0,1,12.4466,8.03523a6.01773,6.01773,0,0,1,7.73077-3.15556A5.83152,5.83152,0,0,1,23.455,8.03523l-5.507,2.14364" data-name="Rotes C" fill="#bf0a30" id="Rotes_C" transform="translate(0 0)" /><path d="M20.91667,10.17887a2.97089,2.97089,0,0,1-5.9375,0,2.97089,2.97089,0,0,1,5.9375,0Z" data-name="Gelber Kreis" fill="gold" id="Gelber_Kreis" transform="translate(0 0)" /><text font-family="AudiTypeDisplayHigh-Bold, Audi Type Display High" font-size="18.29234px" font-weight="700" isolation="isolate" transform="translate(5.16309 35.60938) scale(1.03868 1)">{value}</text></svg>