<svg xmlns="http://www.w3.org/2000/svg" viewBox="0 0 60 38"><g id="ri_shield_white_blue_3dig"><g id="Schild"><path d="M29.99048,36.655c-1.96973-1.89453-7.501-3.29688-15.7002-5.19922C9.22583,30.2819.75024,28.31608.75024,27.0153V2.98014a2.243,2.243,0,0,1,2.25-2.23h54a2.24294,2.24294,0,0,1,2.25,2.23V27.0153c0,1.29688-8.47949,3.25879-13.54589,4.43164C37.48364,33.34929,31.93774,34.75358,29.99048,36.655Z" fill="#fff" fill-rule="evenodd" /><path d="M57,1.5a1.49179,1.49179,0,0,1,1.5,1.48006V26.79329c-1.17249,1.19372-8.24463,2.83029-12.96533,3.92276-7.85266,1.81727-13.1416,3.12136-15.56171,4.965-2.499-1.85476-7.89593-3.189-15.514-4.95587C9.73926,29.63057,2.66821,27.99059,1.5,26.79511V2.98006A1.49183,1.49183,0,0,1,3,1.5H57M57,0H3A2.99008,2.99008,0,0,0,0,2.98006V27.01491C0,30.88311,28.79205,33.53983,30,38c1.083-4.46017,30-7.11689,30-10.98509V2.98006A2.99008,2.99008,0,0,0,57,0Z" fill="#1f4aff" /></g><text fill="#1f4aff" font-family="AudiTypeDisplayHigh-Bold, Audi Type Display High" font-size="20" font-weight="700" id="Text" transform="translate(8.76656 22.77501)">{value}</text></g></svg>