<svg xmlns="http://www.w3.org/2000/svg" viewBox="0 0 36 37"><g id="ri_australia_highway_2dig"><g id="Schild"><path d="M18,36.24954c-5.15869,0-17.25-6.83594-17.25-9.75293V1.2637A.52045.52045,0,0,1,1.27588.75H34.72412A.52045.52045,0,0,1,35.25,1.2637V26.49661C35.25,29.4136,23.15869,36.24954,18,36.24954Z" fill="#50a556" fill-rule="evenodd" /><path d="M34.5,1.5V26.49626c0,.5828-1.5481,2.65241-6.3335,5.32983C24.30005,33.98923,20.11963,35.5,18,35.5s-6.30029-1.51076-10.1665-3.6739C3.0481,29.14869,1.5,27.07906,1.5,26.49626V1.5h33M34.72412,0H1.27588A1.26967,1.26967,0,0,0,0,1.2636V26.49626C0,30.19494,12.93628,37,18,37c5.06348,0,18-6.80506,18-10.50374V1.2636A1.26983,1.26983,0,0,0,34.72412,0Z" fill="#f1c61b" /></g><g id="Text"><text fill="#f1c61b" font-family="AudiTypeDisplayHigh-Bold, Audi Type Display High" font-size="22" font-weight="700" transform="translate(2.68701 24.26276)">{value}</text></g></g></svg>