<?xml version="1.0" encoding="UTF-8"?>
<svg id="Ebene_1" data-name="Ebene 1" xmlns="http://www.w3.org/2000/svg" viewBox="0 0 49 42">
  <defs>
    <style>
      .cls-1 {
        fill: #b33229;
      }

      .cls-2 {
        fill: #fff;
      }

      .cls-3 {
        font-family: AudiTypeDisplayHigh-Normal, 'Audi Type Display High';
        font-size: 22px;
        isolation: isolate;
      }
    </style>
  </defs>
  <g>
    <polygon class="cls-2" points="14.021 39.25018 2.87891 21.00018 14.021 2.75018 34.97949 2.75018 46.12109 21.00018 34.97949 39.25018 14.021 39.25018"/>
    <path d="M34.55832,3.5l10.68421,17.5-10.68421,17.5H14.44168L3.75747,21,14.44168,3.5h20.11665m.84168-1.5H13.6L2,21l11.6,19h21.8l11.6-19L35.4,2h0Z"/>
  </g>
  <g>
    <polygon class="cls-1" points="8.83301 11.24725 14.021 2.75018 34.97949 2.75018 40.16699 11.24725 8.83301 11.24725"/>
    <path d="M34.55832,3.5l4.27189,6.99706H10.16979L14.44168,3.5h20.11665m.84168-1.5H13.6L7.49653,11.99706H41.50347L35.4,2h0Z"/>
  </g>
  <text class="cls-3" transform="translate(24.5 33)" text-anchor="middle">{value}</text>
  <g>
    <path class="cls-2" d="M16.26367,9.26698l-1.40723-3.05029c-.04688-.10059-.09521-.21191-.14453-.33301-.04932-.12158-.09521-.24658-.13672-.37598,.00342,.06299,.00635,.12695,.00928,.19141s.00537,.12842,.00684,.19189c.00195,.06348,.00342,.125,.00391,.18359,.00098,.05908,.00098,.11377,.00098,.16455v3.02783h-.40088V4.74745h.43848l1.40674,3.05078c.02295,.05078,.0459,.10352,.06934,.15918,.02344,.05518,.04736,.11279,.07129,.17188,.02441,.05957,.04785,.12061,.07129,.18213,.02295,.06201,.04492,.12451,.06641,.1875-.00342-.06104-.00684-.12354-.00977-.1875-.00244-.06396-.00488-.12695-.00684-.18945-.00146-.0625-.00293-.12305-.00342-.18115-.00098-.05859-.00146-.11328-.00146-.16406v-3.0293h.40234v4.51953h-.43604Z"/>
    <path class="cls-2" d="M19.64795,9.26698l-.29346-1.14746h-1.41309l-.29248,1.14746h-.4209l1.2041-4.51953h.4458l1.21143,4.51953h-.44141Zm-.87354-3.44385c-.02441-.08838-.04736-.18115-.06934-.27881-.02197-.09717-.04004-.19775-.0542-.30176-.0166,.104-.03662,.2041-.06006,.30127-.02344,.09668-.0459,.18994-.06689,.2793l-.46094,1.79834h1.16699l-.45557-1.79834Z"/>
    <path class="cls-2" d="M20.41699,8.59022c.05469,.03271,.11768,.06445,.18945,.09473,.07129,.03027,.14746,.05713,.22852,.08008s.16553,.04102,.25244,.0542,.17432,.01953,.26172,.01953c.13086,0,.24609-.01953,.3457-.05859s.18311-.09375,.25-.16357c.06738-.07031,.11816-.15332,.15332-.24854,.03467-.0957,.05225-.19971,.05225-.3125,0-.0752-.00635-.14258-.01807-.20264-.01221-.06006-.03076-.11475-.05615-.16455s-.05713-.09521-.09473-.13623c-.03809-.04102-.0835-.08008-.13623-.11572-.05273-.03613-.1123-.07031-.1792-.10303s-.14062-.06543-.22168-.09912c-.10059-.04053-.19434-.08252-.28223-.12646-.08789-.04346-.16797-.0918-.24072-.14404-.07227-.05225-.13721-.11084-.19385-.17578-.05713-.06494-.10498-.13867-.14404-.22119-.03906-.08203-.06885-.17529-.08984-.27881-.02051-.10352-.03027-.2207-.02979-.35205,0-.12598,.01025-.24414,.02979-.35498,.02002-.11035,.05029-.21289,.09131-.30713,.04102-.09375,.09229-.17773,.15381-.25195s.1333-.13721,.21631-.18896,.17676-.09131,.28223-.11865c.10498-.02783,.22168-.0415,.34961-.0415,.09473,0,.18359,.00537,.26611,.01611,.08301,.01074,.16016,.02637,.23096,.04736,.07129,.021,.13721,.04688,.19824,.07861,.06055,.03125,.1167,.06738,.16797,.10791v.51074c-.05713-.04199-.11719-.07812-.18115-.10938-.06348-.03076-.13086-.05713-.20264-.07812-.07129-.02148-.14697-.0376-.22656-.04834-.07959-.01025-.16406-.01562-.25391-.01562-.11865,0-.22217,.01758-.30957,.05322-.08789,.03564-.16113,.08545-.21875,.1499-.05811,.06445-.10156,.14258-.13086,.2334-.02881,.09082-.04346,.19141-.04346,.30225,0,.07422,.00586,.14014,.01758,.19824,.01172,.05762,.02979,.11084,.0542,.15918s.05566,.0918,.09326,.13086,.08301,.07617,.13574,.11084c.05225,.03418,.1123,.06738,.18018,.09961,.06738,.03174,.14355,.06543,.22803,.09961,.10303,.04297,.19922,.08643,.28857,.13135,.08936,.04443,.17041,.09375,.24268,.14746,.07275,.0542,.13672,.11377,.19336,.1792,.05615,.06543,.10303,.14014,.14111,.22412,.03809,.0835,.06689,.17773,.08643,.28174s.0293,.22168,.0293,.35303c-.00049,.12354-.01221,.2417-.03418,.354s-.05566,.2168-.10059,.31396c-.04541,.09717-.10156,.18506-.16943,.26367-.06738,.07861-.146,.14551-.23535,.20117-.08984,.05518-.19092,.09814-.3042,.12793-.11279,.02979-.2373,.04492-.37207,.04492-.09766,0-.19141-.00537-.28223-.01611s-.17578-.02637-.25586-.04785-.1543-.04736-.22266-.07861c-.06836-.03076-.12842-.06641-.18018-.10596v-.50293Z"/>
    <path class="cls-2" d="M23.28711,9.26698V4.74745h.41064v4.51953h-.41064Z"/>
    <path class="cls-2" d="M25.78711,9.34169c-.16211,0-.30859-.02637-.4375-.07861-.12988-.05225-.24414-.12744-.34375-.22559-.1001-.09766-.18506-.21631-.25586-.35498s-.12891-.29443-.17432-.4668c-.04541-.17285-.0791-.36035-.1001-.56299-.02148-.20264-.03223-.4165-.03223-.64062,0-.22363,.01074-.43701,.03271-.63965,.02148-.20264,.05518-.39014,.10107-.56348s.10449-.33008,.17627-.47021c.07129-.14014,.15723-.25928,.25732-.35791,.10059-.09863,.21582-.1748,.34473-.22803,.12988-.05322,.27539-.08008,.4375-.08008s.30859,.02637,.4375,.07861c.13086,.05225,.24609,.12744,.3457,.22559s.18555,.21631,.25586,.35498,.12891,.29443,.17578,.46777c.04492,.17334,.07812,.36084,.09961,.56299s.03125,.41553,.03125,.64014c0,.22314-.00977,.43652-.03125,.63965-.02148,.20361-.05664,.39111-.10352,.56396-.04492,.17285-.10352,.3291-.17578,.46924s-.1582,.25977-.25781,.3584c-.10156,.09814-.2168,.17432-.3457,.22754-.13086,.05322-.27637,.08008-.4375,.08008Zm.00586-.49072c.11133,0,.21191-.021,.30078-.06299,.08789-.04248,.16602-.10205,.23438-.1792s.12695-.1709,.17383-.28125c.04883-.11035,.08984-.2334,.12109-.37012s.05469-.28516,.06836-.44482c.01562-.16016,.02148-.32861,.02148-.50537s-.00586-.34473-.02148-.50439c-.01367-.15918-.03711-.30762-.06836-.44482s-.07227-.26074-.12109-.37012c-.04688-.10986-.10547-.20361-.17383-.28125s-.14648-.13721-.23535-.1792c-.08887-.0415-.18848-.0625-.2998-.0625s-.21191,.021-.30078,.0625c-.08887,.04199-.16797,.10156-.23535,.1792-.06836,.07764-.12695,.17139-.17578,.28125-.04883,.10938-.08936,.23291-.12061,.37012-.03174,.13721-.05469,.28564-.06885,.44482-.01465,.15967-.02148,.32764-.02148,.50439s.00684,.34521,.02148,.50537c.01416,.15967,.03711,.30811,.06885,.44482,.03125,.13672,.07178,.25977,.12061,.37012s.10742,.2041,.17578,.28125c.06738,.07715,.14648,.13672,.23535,.1792,.08887,.04199,.18945,.06299,.30078,.06299Z"/>
    <path class="cls-2" d="M29.9541,9.26698l-1.40625-3.05029c-.04688-.10059-.0957-.21191-.14453-.33301-.0498-.12158-.0957-.24658-.1377-.37598,.00391,.06299,.00684,.12695,.00977,.19141s.00488,.12842,.00684,.19189,.00293,.125,.00391,.18359c.00098,.05908,.00098,.11377,.00098,.16455v3.02783h-.40137V4.74745h.43848l1.40723,3.05078c.02246,.05078,.0459,.10352,.06934,.15918,.02344,.05518,.04688,.11279,.07129,.17188,.02441,.05957,.04785,.12061,.07129,.18213,.02246,.06201,.04492,.12451,.06641,.1875-.00391-.06104-.00684-.12354-.00977-.1875s-.00488-.12695-.00684-.18945-.00293-.12305-.00391-.18115c0-.05859-.00098-.11328-.00098-.16406v-3.0293h.40234v4.51953h-.43652Z"/>
    <path class="cls-2" d="M33.33789,9.26698l-.29297-1.14746h-1.41309l-.29199,1.14746h-.42188l1.2041-4.51953h.44629l1.21191,4.51953h-.44238Zm-.87305-3.44385c-.02441-.08838-.04688-.18115-.06934-.27881-.02246-.09717-.04004-.19775-.05469-.30176-.01562,.104-.03613,.2041-.05957,.30127-.02344,.09668-.0459,.18994-.06738,.2793l-.46094,1.79834h1.16699l-.45508-1.79834Z"/>
    <path class="cls-2" d="M34.30859,9.26698V4.74745h.41113v4.03662h1.39746v.48291h-1.80859Z"/>
  </g>
</svg>