<svg xmlns="http://www.w3.org/2000/svg" id="Icon" viewBox="0 0 40 40"><defs /><rect height="39.99414" rx="1.99985" width="40" /><path d="M36,1.92477H4a1.96371,1.96371,0,0,0-2,1.9253v14.7743H38V3.85007A1.96371,1.96371,0,0,0,36,1.92477Z" data-name="Hintergrund Blau" fill="#002868" id="Hintergrund_Blau" transform="translate(0 0)" /><path d="M2,7.31962H38v5.71574H2Z" data-name="Balken Weiss" fill="#fff" id="Balken_Weiss" transform="translate(0 0)" /><path d="M18.455,12.32089a6.018,6.018,0,0,1-7.73076,3.15521,5.64551,5.64551,0,0,1-3.27764-7.442,6.018,6.018,0,0,1,7.73077-3.15521A5.83125,5.83125,0,0,1,18.455,8.03408l-5.507,2.14341" data-name="Rotes C" fill="#bf0a30" id="Rotes_C" transform="translate(0 0)" /><path d="M15.91667,10.17749a2.9709,2.9709,0,0,1-5.9375,0,2.9709,2.9709,0,0,1,5.9375,0Z" data-name="Gelber Kreis" fill="gold" id="Gelber_Kreis" transform="translate(0 0)" /><path d="M36,37.24878H4a1.96372,1.96372,0,0,1-2-1.9253V20.58484H38V35.32348A1.96372,1.96372,0,0,1,36,37.24878Z" data-name="Hintergrund Weiss" fill="#fff" id="Hintergrund_Weiss" transform="translate(0 0)" /><text font-family="AudiTypeDisplayHigh-Bold, Audi Type Display High" font-size="18.28969px" font-weight="700" isolation="isolate" transform="translate(6.7749 35.61035) scale(1.03883 1)">{value}</text></svg>