<svg xmlns="http://www.w3.org/2000/svg" viewBox="0 0 60 47"><path d="m57.5 6.7s-2.49 4.88-2.49 9.8c0 6.56 3.53 7.03 4.74 12.5 1.53 6.93-3.49 14.5-10.7 14.5h-9.98c-5.8 0-9 3.5-9 3.5s-3.19-3.5-8.99-3.5h-9.99c-7.25 0-12.3-7.56-10.7-14.5 1.21-5.49 4.74-5.95 4.74-12.5 0-4.92-3.62-9.8-3.62-9.8l6.75-6.7c1.45 3.28 6.09 3.5 9.87 3.5h24c3.78 0 8.42-0.218 9.87-3.5l5.62 6.7z" fill="#FFF" /><path d="m30 44.5c-1.56-1.25-4.77-3-8.99-3h-9.99c-2.58 0-4.96-1.19-6.69-3.35-1.97-2.46-2.76-5.71-2.1-8.7 0.438-1.98 1.24-3.19 2.08-4.48 1.27-1.92 2.71-4.11 2.71-8.47 0-3.84-1.86-7.56-3.05-9.53l3.96-3.94c2.76 2.47 7.37 2.47 10.1 2.47h24c2.66 0 7.14 0 9.92-2.33l3.23 3.84c-0.796 1.88-2.15 5.63-2.15 9.48 0 4.36 1.44 6.54 2.71 8.47 0.846 1.28 1.64 2.5 2.08 4.48 0.661 2.99-0.123 6.24-2.1 8.7-1.74 2.16-4.11 3.35-6.69 3.35h-9.98c-4.29 0-7.21 1.8-9 3z" fill="#B33229" /><text fill="#FFF" font-family="AudiTypeDisplayHigh-Normal, Audi Type Display High" font-size="20" font-weight="500" text-anchor="middle" transform="translate(30 31)">{value}</text></svg>