<svg xmlns="http://www.w3.org/2000/svg" id="Icon" viewBox="0 0 50 40"><defs /><rect height="40" id="Hintergrund_Schwarz" rx="2" width="50" /><path d="M2.97367,2.36833H15.707a15.79459,15.79459,0,0,0,3.422,1.188c1.26992.3012,2.746-.39166,4.16675-.24618.71036.07274,1.28375.49294,2.00758.50482s1.59809-.38456,2.31917-.36938c1.44225.03038,1.87817,1.15574,4.099.99347a16.663,16.663,0,0,0,3.61442-1.0788A15.94623,15.94623,0,0,1,39.72875,2.84c2.66908.025,5.33816-1.06766,8.00725-1.53013l.13927,15.09467c-1.40666.75473-.35221,2.0234-.44627,3.2008a1.85987,1.85987,0,0,1-.77531,1.65207c-.61255.34165-.554,1.1512-.26543,2.07986.38194,1.22934-.25,2.46313-.55267,3.66827a6.01114,6.01114,0,0,1-2.1335,3.32487c-1.189.96353-2.96475,2.5888-5.06341,2.8426-2.70917.32758-3.61367,1.32213-5.06875,2.59-.67108.58469-.98375.7502-2.55142.8616-.87383.06209-.64789.602-2.59642.6944-1.92292.0912-3.707.983-4.85175.98146-3.20883-.00422-5.84183-3.41933-10.07167-3.89226a21.34417,21.34417,0,0,1-5.97933-1.80053c-.96108-.41-1.88292-1.222-2.94483-1.36934-1.27892-.17666-1.556-1.00867-2.44959-1.35933V3.095c-.0304-.49282.357-.73493.84892-.72633Z" fill="#fff" id="Hintergrund_Weiss" /><text font-family="AudiTypeDisplayHigh-Bold, Audi Type Display High" font-size="21px" font-weight="700" id="Nummer" transform="translate(2.57463 26.5315)">{value}</text></svg>