<svg xmlns="http://www.w3.org/2000/svg" id="Icon" viewBox="0 0 45 40"><defs /><path d="M0,26.15189C0,13.87565,9.46066,3.48525,22.5,0,35.53928,3.48525,45,13.87565,45,26.15189v6.36424c0,2.99931-2.49653,5.50136-5.81268,6.076l-.0222.00381-.02186.00371-.022.00371A98.92632,98.92632,0,0,1,22.5,40,98.92525,98.92525,0,0,1,5.87872,38.60332l-.022-.00371-.02186-.00371-.02225-.00381C2.49653,38.01749,0,35.51544,0,32.51613Z" fill="#fff" fill-rule="evenodd" id="Rahmen_Weiss" transform="translate(0 0)" /><path d="M22.5,1.26035c12.25193,3.442,21.09375,13.287,21.09375,24.89154v6.36424c0,2.41728-2.01164,4.43651-4.68544,4.89979A98.03254,98.03254,0,0,1,22.5,38.8,97.29939,97.29939,0,0,1,6.15337,37.42647c-2.67391-.46338-4.74712-2.49306-4.74712-4.91034V26.15189C1.40625,14.54738,10.24807,4.70233,22.5,1.26035Z" fill="#006b54" fill-rule="evenodd" id="Hintergrund_Gr&#252;n" transform="translate(0 0)" /><g id="California"><path d="M10.86919,14.52189a1.08174,1.08174,0,0,1-.09242.34668,1.353,1.353,0,0,1-.19022.305,1.39061,1.39061,0,0,1-.27069.24921,1.542,1.542,0,0,1-.33381.1792,1.35638,1.35638,0,0,1-.57267.09781A1.2671,1.2671,0,0,1,8.884,15.553a1.51039,1.51039,0,0,1-.44952-.37266,2.24144,2.24144,0,0,1-.34327-.57558,2.18434,2.18434,0,0,1-.17044-.645,1.38789,1.38789,0,0,1,.05549-.56357,1.15743,1.15743,0,0,1,.27349-.45171,1.33536,1.33536,0,0,1,.4837-.30942,1.52256,1.52256,0,0,1,.73944-.09536,1.33614,1.33614,0,0,1,.68024.28066l-.36952.42681a1.16488,1.16488,0,0,0-.16042-.0919.62588.62588,0,0,0-.13881-.04067.76853.76853,0,0,0-.26636-.02349.916.916,0,0,0-.26871.057.65393.65393,0,0,0-.306.22061.72255.72255,0,0,0-.12822.31084,1.00621,1.00621,0,0,0,.00839.35229,1.76494,1.76494,0,0,0,.10564.34941,1.34759,1.34759,0,0,0,.49825.65464.6862.6862,0,0,0,.63878.05313.856.856,0,0,0,.17675-.09092.708.708,0,0,0,.13514-.122.83311.83311,0,0,0,.11129-.17251q.0505-.1016.10529-.24224Z" fill="#fff" fill-rule="evenodd" id="C" transform="translate(0 0)" /><path d="M14.07862,14.19166l-.52505-.60771-1.3412.39365-.07665.78433-.60628.17793.35436-3.33447.56035-.1645,2.227,2.57685Zm-1.68014-1.93217-.11434,1.12329.86349-.25347Z" fill="#fff" fill-rule="evenodd" id="A" transform="translate(0 0)" /><polygon fill="#fff" fill-rule="evenodd" id="L" points="15.223 13.952 14.609 10.919 15.175 10.814 15.694 13.38 17.491 13.045 17.585 13.511 15.223 13.952" /><polygon fill="#fff" fill-rule="evenodd" id="I" points="18.312 10.333 18.704 13.4 18.132 13.467 17.74 10.401 18.312 10.333" /><polygon fill="#fff" fill-rule="evenodd" id="F" points="19.933 10.746 19.979 11.372 20.98 11.304 21.021 11.866 20.02 11.933 20.117 13.276 19.533 13.315 19.308 10.233 21.709 10.072 21.749 10.624 19.933 10.746" /><path d="M25.13713,11.70212a2.20093,2.20093,0,0,1-.1177.65815,1.52326,1.52326,0,0,1-.28493.50025,1.20593,1.20593,0,0,1-.43193.31542,1.27932,1.27932,0,0,1-.55878.09893,1.25527,1.25527,0,0,1-.60689-.16108,1.2835,1.2835,0,0,1-.41138-.38291,1.55484,1.55484,0,0,1-.22847-.52437,2.27887,2.27887,0,0,1,.05961-1.2414,1.42884,1.42884,0,0,1,.28941-.49321,1.19205,1.19205,0,0,1,.44128-.30357,1.40408,1.40408,0,0,1,.57282-.0915,1.23265,1.23265,0,0,1,.94889.47012,1.45361,1.45361,0,0,1,.25543.50913A2.054,2.054,0,0,1,25.13713,11.70212Zm-.57658-.00547a1.29774,1.29774,0,0,0-.169-.77153.64633.64633,0,0,0-.55155-.29536.67543.67543,0,0,0-.58126.25737,1.2581,1.2581,0,0,0-.23427.758,1.271,1.271,0,0,0,.17822.7811.74663.74663,0,0,0,.94157.21147.70414.70414,0,0,0,.23946-.24111,1.10337,1.10337,0,0,0,.1299-.33472A2.05772,2.05772,0,0,0,24.56055,11.69665Z" fill="#fff" fill-rule="evenodd" id="O" transform="translate(0 0)" /><path d="M27.76154,13.595l-.33783-1.27022-.85144-.11484-.17579,1.20088-.57078-.077.4479-3.05927,1.465.1976a1.41557,1.41557,0,0,1,.29561.06787.84323.84323,0,0,1,.23265.13384.90628.90628,0,0,1,.3127.38208.887.887,0,0,1,.06368.49282.878.878,0,0,1-.20477.4543.99776.99776,0,0,1-.43274.28852l.39316,1.3894Zm.31077-2.12324a.35165.35165,0,0,0-.0822-.29976.504.504,0,0,0-.32226-.15058l-.90373-.12192-.11169.76249.90372.12193a.52172.52172,0,0,0,.35279-.05713A.3437.3437,0,0,0,28.07231,11.47175Z" fill="#fff" fill-rule="evenodd" id="R" transform="translate(0 0)" /><polygon fill="#fff" fill-rule="evenodd" id="N" points="31.076 14.277 30.125 11.859 29.589 13.921 29.039 13.79 29.818 10.792 30.368 10.924 31.285 13.244 31.798 11.266 32.339 11.396 31.56 14.393 31.076 14.277" /><polygon data-name="I" fill="#fff" fill-rule="evenodd" id="I-2" points="33.901 11.855 32.906 14.793 32.358 14.622 33.353 11.684 33.901 11.855" /><path d="M35.90708,15.87291l-.00966-.7895-1.30035-.50434-.57373.56318-.58787-.228L35.89681,12.537l.54331.21074.04141,3.348ZM35.868,13.35632l-.8253.8038.8372.32476Z" data-name="A" fill="#fff" fill-rule="evenodd" id="A-2" transform="translate(0 0)" /></g><text fill="#fff" font-family="AudiTypeDisplayHigh-Bold, Audi Type Display High" font-size="19px" font-weight="700" transform="translate(2.66274 33.53197)">{value}</text></svg>