<svg xmlns="http://www.w3.org/2000/svg" viewBox="0 0 64 35"><g id="ri_israel_local_3dig"><g id="Schild"><path d="M0,3.7912A3.81735,3.81735,0,0,1,1.0886,1.1101,3.67426,3.67426,0,0,1,3.7181,0H60.3219A3.63334,3.63334,0,0,1,62.923,1.0983,3.77864,3.77864,0,0,1,64,3.7503V31.2594a3.76743,3.76743,0,0,1-1.0749,2.6455A3.61826,3.61826,0,0,1,60.3315,35H3.6912a3.641,3.641,0,0,1-2.6097-1.1025A3.79085,3.79085,0,0,1,0,31.2357Z" fill="#8b6831" fill-rule="evenodd" /><path d="M1.9956,5.8968a.71089.71089,0,0,1,.1975-.495.66264.66264,0,0,1,.478-.2056l29.5212-3.188,29.1382,3.188a.65849.65849,0,0,1,.4764.2049.70453.70453,0,0,1,.1975.4925v23.233a.69.69,0,0,1-.1915.4795.64437.64437,0,0,1-.4621.1977L32,32.9918,2.7243,29.8038a.71219.71219,0,0,1-.5153-.221.76931.76931,0,0,1-.2134-.5339Z" fill="#fff" fill-rule="evenodd" /></g><text fill="#8b6831" font-family="AudiTypeDisplayHigh-Bold, Audi Type Display High" font-size="24" font-weight="700" id="Text" transform="translate(6.94197 26.15434)">{value}</text></g></svg>