<svg xmlns="http://www.w3.org/2000/svg" id="Icon" viewBox="0 0 50 40"><defs /><rect height="40" id="Hintergrund" rx="2.23607" width="50" /><path d="M26.87738,1.96092V1.95844A2.50928,2.50928,0,0,1,25.00255.83333a2.354,2.354,0,0,1-1.29469.99487c-.32848.122-.69245.12024-1.02661.21927a2.11112,2.11112,0,0,0-1.67713,1.88759,2.76337,2.76337,0,0,0-3.265-1.084c-.7592.304-1.122-.72211-.22318-.73969C15.21063,1.852,12.3867,3.90377,13.6233,6.37908a2.96515,2.96515,0,0,0-2.82218-.39276c-.35149.12507-.66535.35558-1.02989.44891a3.07583,3.07583,0,0,1-1.71215.01521,1.65792,1.65792,0,0,1-.089,1.515c-.15.26773-.402.4714-.53543.74994a1.73484,1.73484,0,0,0,.53555,2.18116,2.7623,2.7623,0,0,0-3.2875,1.1299c-.28653.5743-1.39763.06461-.78411-.4494-2.31266,1.5697-1.48465,4.45121,1.014,5.22921a2.54864,2.54864,0,0,0-2.35949,1.34156,4.89259,4.89259,0,0,1-.30289.87736,2.34882,2.34882,0,0,1-1.20846.972A2.29878,2.29878,0,0,1,2.28541,21.0329c.15987.28034.15531.62333.30938.90552a2.57064,2.57064,0,0,0,2.3179,1.25741,1.90331,1.90331,0,0,0-1.31062,2.69641c.19859.62176-.997.71433-.96606.09438-.19606,2.6691,3.15868,3.90934,5.33485,3.112a1.73819,1.73819,0,0,0-.53231,2.186c.149.299.41952.52211.56762.82136a1.629,1.629,0,0,1,.051,1.44371,3.18669,3.18669,0,0,1,1.71536.01265c.3658.09507.6777.32953,1.02989.45676a2.96775,2.96775,0,0,0,2.81567-.398,1.96526,1.96526,0,0,0,1.51439,2.67324c.62515.42411-.23173,1.00283-.66358.58687,1.80906,1.68645,5.29895,1.43949,6.53612-.81377a2.11288,2.11288,0,0,0,1.67715,1.8875c.33464.097.69874.09515,1.0266.21944a2.37316,2.37316,0,0,1,1.285.99223,2.35625,2.35625,0,0,1,1.29458-.99471c.32866-.12038.69214-.12028,1.0266-.21686a2.11248,2.11248,0,0,0,1.67706-1.885A2.7636,2.7636,0,0,0,32.25726,37.149c.75939-.3005,1.12311.717.22319.74241,2.30445.25783,5.12822-1.79313,3.89-4.26754a2.9871,2.9871,0,0,0,2.82174.39276c.35081-.12759.66529-.356,1.02992-.44891a3.11528,3.11528,0,0,1,1.71218-.01785,1.67774,1.67774,0,0,1,.09245-1.51522c.152-.26654.39867-.47324.53574-.74986a1.73921,1.73921,0,0,0-.53882-2.18092,2.75618,2.75618,0,0,0,3.29045-1.13c.28533-.57313,1.39929-.06407.78446.44413,2.31612-1.56795,1.48111-4.44871-1.01715-5.22154A2.54682,2.54682,0,0,0,47.441,21.85482a6.06284,6.06284,0,0,1,.30608-.87736,2.36624,2.36624,0,0,1,1.21158-.97192,2.29486,2.29486,0,0,1-1.2434-1.03575c-.16-.2799-.15968-.622-.31247-.90536a2.5882,2.5882,0,0,0-2.32122-1.26005A1.89938,1.89938,0,0,0,46.392,14.11061c-.19511-.62179.99128-.71455.96941-.09438.19787-2.66982-3.1575-3.91278-5.33444-3.1146a1.73968,1.73968,0,0,0,.52928-2.18621c-.13314-.27629-.37559-.48506-.52611-.74992a1.64314,1.64314,0,0,1-.08933-1.51531,3.15549,3.15549,0,0,1-1.71856-.01024c-.3656-.09687-.67864-.32834-1.02991-.45908a2.97069,2.97069,0,0,0-2.81544.39781A1.9604,1.9604,0,0,0,34.8655,3.708c-.6309-.42236.22627-1.00243.66348-.58679-1.81131-1.68549-5.299-1.43995-6.53793.81393A2.22448,2.22448,0,0,0,26.87738,1.96092Z" fill="#fecd00" fill-rule="evenodd" id="Form" /><text font-family="AudiTypeDisplayHigh-Bold, Audi Type Display High" font-size="18px" font-weight="700" transform="translate(6.20684 26.51562)">{value}</text></svg>