<svg xmlns="http://www.w3.org/2000/svg" viewBox="0 0 45 42"><g fill-rule="evenodd"><path d="m5 2h35c1.66 0 3 1.34 3 3v24.3c-6.15e-5 0.801-0.32 1.57-0.889 2.13-5.78 5.73-12.3 8.59-19.6 8.59s-13.8-2.86-19.6-8.59c-0.569-0.563-0.889-1.33-0.889-2.13v-24.3c0-1.66 1.34-3 3-3z" fill="#0F7217" stroke="#0F7217" stroke-width="4" /><path d="m5 2h35c1.66 0 3 1.34 3 3v24.3c-6.15e-5 0.801-0.32 1.57-0.889 2.13-5.78 5.73-12.3 8.59-19.6 8.59s-13.8-2.86-19.6-8.59c-0.569-0.563-0.889-1.33-0.889-2.13v-24.3c0-1.66 1.34-3 3-3z" fill="#FFF" /><path d="m41 6v23.7c-5.44 5.51-11.6 8.31-18.5 8.31s-13.1-2.8-18.5-8.31v-23.7c0-1.1 0.895-2 2-2h33c1.1 0 2 0.895 2 2z" fill="#0F7217" fill-rule="nonzero" /><text fill="#FFF" fill-rule="nonzero" font-family="AudiTypeDisplayHigh-Normal, Audi Type Display High" font-size="22" font-weight="500" text-anchor="middle" x="22.5" y="28.0">{value}</text></g></svg>