<svg xmlns="http://www.w3.org/2000/svg" viewBox="0 0 38 35"><g id="ri_chile_national_1dig"><g id="Schild"><path d="M19.01782,34.11369c-.252-.1416-.53906-.28027-.86914-.44043l-.50976-.249c-.22852-.11328-.4795-.251-.74317-.39453A7.703,7.703,0,0,0,13.551,31.80315a8.32808,8.32808,0,0,0-2.792.61132,9.30482,9.30482,0,0,1-1.18945.36133,12.24165,12.24165,0,0,1-2.23437.31543,7.81394,7.81394,0,0,1-3.25879-1.27148,6.47938,6.47938,0,0,1-3.29-5.01465A8.94217,8.94217,0,0,1,2.52466,21.311l.17383-.27832a10.11123,10.11123,0,0,0,1.752-5.75244c0-3.04834-1.96973-6.22119-3.4209-7.97364L6.44165,1.98235a24.03343,24.03343,0,0,0,4.80371.50976,13.32484,13.32484,0,0,0,3.50488-.55127,10.496,10.496,0,0,0,1.32715-.47265A7.40423,7.40423,0,0,1,19.01782.74992a7.40909,7.40909,0,0,1,2.94141.71827,10.496,10.496,0,0,0,1.32715.47265,13.32484,13.32484,0,0,0,3.50488.55127A24.05207,24.05207,0,0,0,31.593,1.98283l5.374,5.32178c-1.45117,1.751-3.42187,4.92383-3.42187,7.97559a10.06807,10.06807,0,0,0,1.793,5.75244,9.95536,9.95536,0,0,1,1.91211,5.9707,5.57827,5.57827,0,0,1-2.62011,4.90723,9.11427,9.11427,0,0,1-3.92871,1.13965,12.29569,12.29569,0,0,1-2.2334-.31446,9.96868,9.96868,0,0,1-1.17383-.34472,8.71274,8.71274,0,0,0-2.80859-.58789,7.896,7.896,0,0,0-3.36329,1.23632c-.25976.14161-.50488.2754-.72363.38477l-.50586.24707C19.56079,33.83147,19.27173,33.97209,19.01782,34.11369Z" fill="#4b70eb" /><path d="M19.01807,1.5a6.71123,6.71123,0,0,1,2.65942.66316,11.20973,11.20973,0,0,0,1.42407.50458,13.93212,13.93212,0,0,0,3.68994.57459,25.13333,25.13333,0,0,0,4.561-.44226l4.61182,4.56716c-1.22315,1.60037-3.16919,4.65842-3.16919,7.91314a10.87844,10.87844,0,0,0,1.90747,6.14976A9.21821,9.21821,0,0,1,36.5,27.00347a4.83106,4.83106,0,0,1-2.24316,4.2566,8.40677,8.40677,0,0,1-3.55591,1.04019,11.90546,11.90546,0,0,1-2.08887-.30044,9.53345,9.53345,0,0,1-1.07886-.31921,9.43893,9.43893,0,0,0-3.04785-.62754,8.40756,8.40756,0,0,0-3.721,1.32719c-.251.13724-.48706.26673-.699.37178-.17554.08708-.34082.167-.49561.242-.19726.09546-.38037.18409-.552.27107-.17041-.0864-.34936-.17316-.53735-.26413-.1582-.07669-.32764-.15865-.50781-.24825-.2212-.11-.46314-.24272-.71827-.38207a8.34837,8.34837,0,0,0-3.70312-1.31757,9.05355,9.05355,0,0,0-3.042.654,8.7552,8.7552,0,0,1-1.08545.33369,11.88458,11.88458,0,0,1-2.08814.30032,6.8646,6.8646,0,0,1-2.88623-1.17217,5.68186,5.68186,0,0,1-2.91259-4.36339,8.23011,8.23011,0,0,1,1.62622-5.101l.1726-.27715a10.76462,10.76462,0,0,0,1.86475-6.147c0-3.25151-1.9436-6.30784-3.167-7.90941L6.68066,2.79942a25.13219,25.13219,0,0,0,4.56446.44291A13.94456,13.94456,0,0,0,14.938,2.667a11.18862,11.18862,0,0,0,1.42139-.504A6.70819,6.70819,0,0,1,19.01807,1.5m0-1.5c-1.9563,0-3.22583.89828-4.45386,1.21428a12.54788,12.54788,0,0,1-3.31909.528A21.44329,21.44329,0,0,1,6.219,1.14951L0,7.2673c1.20825,1.30525,3.70044,4.72044,3.70044,8.01307A9.35934,9.35934,0,0,1,2.061,20.63672a10.05758,10.05758,0,0,0-2.02417,6.1688,7.18426,7.18426,0,0,0,3.6665,5.66468,8.24836,8.24836,0,0,0,3.63232,1.37088,12.81316,12.81316,0,0,0,2.37867-.3287c1.11645-.21989,2.38134-.95931,3.83691-.95931,1.16821,0,2.68921,1.01363,3.75366,1.54281A13.5851,13.5851,0,0,1,19.01807,35a13.50358,13.50358,0,0,1,1.71386-.90412c1.0271-.5094,2.58521-1.54281,3.75342-1.54281,1.45484,0,2.72046.69859,3.83692.91848a12.8198,12.8198,0,0,0,2.37866.32871,9.80676,9.80676,0,0,0,4.30224-1.239A6.32725,6.32725,0,0,0,38,27.00347a10.71344,10.71344,0,0,0-2.02441-6.36675,9.36738,9.36738,0,0,1-1.68042-5.35635c0-3.29263,2.49145-6.70782,3.7-8.01307L31.81763,1.14951a21.44329,21.44329,0,0,1-5.02613.59282,12.543,12.543,0,0,1-3.31909-.528C22.24463.89828,20.97412,0,19.01807,0Z" fill="#fff" /><path d="M31.88857,12.05142H6.123l.00545-1.00129,25.76013.01031Z" fill="#fff" /><path d="M7.35112,9.00573V8.55662H6.85087V6.62172h.50025v-.45H5.60164v.45h.499v1.9349h-.499v.44911Z" fill="#fff" /><path d="M9.27947,9.00573V8.55662H8.77932V6.62172h.50015v-.45H7.53v.45h.499v1.9349H7.53v.44911Z" fill="#fff" /><path d="M14.18742,9.00573l-.80934-1.00525a.91191.91191,0,0,0-.13616-.11842.662.662,0,0,0-.15449-.08027,1.58131,1.58131,0,0,0,.33128-.107.972.972,0,0,0,.25736-.16718.72678.72678,0,0,0,.16688-.226.65609.65609,0,0,0,.06026-.28422.69676.69676,0,0,0-.09692-.37072.7626.7626,0,0,0-.28342-.2642,1.51571,1.51571,0,0,0-.461-.15816,3.38161,3.38161,0,0,0-.63046-.05252h-1.371v2.834h.7477V7.90306h.25666q.07329,0,.12893.00337a.80334.80334,0,0,1,.0989.0114.39832.39832,0,0,1,.07789.0225.35115.35115,0,0,1,.06749.03726.478.478,0,0,1,.06481.05539q.0321.03256.07135.07552l.79883.89723ZM11.80807,7.46545V6.616h.54871a1.95141,1.95141,0,0,1,.33386.02537.82643.82643,0,0,1,.241.07641.37571.37571,0,0,1,.14527.12665.31994.31994,0,0,1,.04846.17679.36138.36138,0,0,1-.18918.332.75932.75932,0,0,1-.23962.08413,1.80342,1.80342,0,0,1-.3398.02815Z" fill="#fff" /><path d="M17.77647,9.06767V8.60993H15.77171V7.78266h1.718V7.325h-1.718V6.5365h1.98513V6.07886H15.02143V9.06767Z" fill="#fff" /><path d="M21.3446,8.526q-.076.0153-.15707.02675-.08131.01159-.16966.01962-.08829.00819-.18462.01239-.09616.00432-.20493.00436a2.46355,2.46355,0,0,1-.3627-.02487,1.39086,1.39086,0,0,1-.29987-.0769A.9036.9036,0,0,1,19.73,8.35406a.729.729,0,0,1-.17015-.193.88637.88637,0,0,1-.10286-.25558,1.37943,1.37943,0,0,1-.03469-.32246,1.14881,1.14881,0,0,1,.074-.42811.75915.75915,0,0,1,.22525-.31,1.01623,1.01623,0,0,1,.38034-.18828,2.02308,2.02308,0,0,1,.53691-.06353q.18329,0,.35616.01576t.32931.04251q.15652.02676.29531.06164t.25409.07215V6.30362q-.08132-.02884-.17025-.05431t-.186-.04658q-.09692-.02111-.203-.03835t-.22189-.02982q-.11594-.0125-.2416-.01873t-.26191-.00625a3.37342,3.37342,0,0,0-.58924.04777,2.31059,2.31059,0,0,0-.4839.13765,1.59453,1.59453,0,0,0-.37846.2188,1.2792,1.2792,0,0,0-.27232.29234,1.25853,1.25853,0,0,0-.165.35934,1.51849,1.51849,0,0,0-.05569.4175,1.55289,1.55289,0,0,0,.12565.64493,1.20111,1.20111,0,0,0,.36934.46487,1.68129,1.68129,0,0,0,.603.28134,3.24725,3.24725,0,0,0,.8243.09464q.14672,0,.28808-.00664.14151-.00684.279-.02012t.26776-.032q.13021-.01857.25142-.04152t.23248-.04925q.1112-.02631.21078-.05589V7.63748H21.3446Z" fill="#fff" /><path d="M24.36046,9.00573V8.55662h-.50015V6.62172h.50015v-.45H22.61108v.45h.49886v1.9349h-.49886v.44911Z" fill="#fff" /><path d="M27.50317,9.01475a1.97325,1.97325,0,0,0,.46021-.15142,1.37816,1.37816,0,0,0,.34576-.23358,1.24514,1.24514,0,0,0,.23635-.30056,1.35021,1.35021,0,0,0,.13546-.3521,1.7014,1.7014,0,0,0,.0439-.38837,1.84981,1.84981,0,0,0-.04063-.39084,1.32068,1.32068,0,0,0-.12962-.35259,1.22187,1.22187,0,0,0-.2304-.3,1.30678,1.30678,0,0,0-.34249-.23219,1.98662,1.98662,0,0,0-.46417-.15,3.021,3.021,0,0,0-.59846-.05352,2.898,2.898,0,0,0-.58537.054,1.987,1.987,0,0,0-.4616.151,1.35067,1.35067,0,0,0-.345.23308,1.26406,1.26406,0,0,0-.23645.30046,1.31744,1.31744,0,0,0-.13547.3521,1.72544,1.72544,0,0,0-.04321.38846,1.84822,1.84822,0,0,0,.04054.39075,1.32657,1.32657,0,0,0,.12962.35309,1.2102,1.2102,0,0,0,.2305.30007,1.3246,1.3246,0,0,0,.34248.23218,1.96942,1.96942,0,0,0,.46487.15044,3.03085,3.03085,0,0,0,.59905.05351A2.87937,2.87937,0,0,0,27.50317,9.01475Zm-.91607-.46051a1.008,1.008,0,0,1-.2632-.095.75812.75812,0,0,1-.197-.15082.81108.81108,0,0,1-.13626-.19969.96716.96716,0,0,1-.07858-.2416,1.56468,1.56468,0,0,1,0-.55584.96729.96729,0,0,1,.07858-.2416.81052.81052,0,0,1,.13626-.19959.75843.75843,0,0,1,.197-.15092,1.0116,1.0116,0,0,1,.2632-.095,1.6879,1.6879,0,0,1,.66327,0,1.01255,1.01255,0,0,1,.26261.095.77384.77384,0,0,1,.1977.15092.78909.78909,0,0,1,.13616.19959.97884.97884,0,0,1,.07789.2416,1.56468,1.56468,0,0,1,0,.55584.9787.9787,0,0,1-.07789.2416.78964.78964,0,0,1-.13616.19969.77352.77352,0,0,1-.1977.15082,1.00891,1.00891,0,0,1-.26261.095,1.68289,1.68289,0,0,1-.66327,0Z" fill="#fff" /><path d="M32.87063,9.00573V6.07886h-.7254V7.81417q0,.045.0007.096c.00039.03409.00168.06967.00386.10653l.00654.11327q.00327.05782.00853.116-.04059-.05529-.08384-.11128t-.08513-.10891q-.04191-.05307-.08443-.10277t-.08314-.09454L30.3355,6.07886h-.81974V9.00573h.7255V7.36605q0-.04385-.00268-.095l-.00525-.10654c-.00169-.037-.00406-.07481-.00714-.11376-.00307-.03875-.00634-.078-.00981-.11743q.08637.1146.17085.2192t.16569.19543L32.0496,9.00573Z" fill="#fff" /><path d="M7.35112,9.00573V8.55662H6.85087V6.62172h.50025v-.45H5.60164v.45h.499v1.9349h-.499v.44911Z" fill="#fff" /><path d="M9.27947,9.00573V8.55662H8.77932V6.62172h.50015v-.45H7.53v.45h.499v1.9349H7.53v.44911Z" fill="#fff" /><path d="M14.18742,9.00573l-.80934-1.00525a.91191.91191,0,0,0-.13616-.11842.662.662,0,0,0-.15449-.08027,1.58131,1.58131,0,0,0,.33128-.107.972.972,0,0,0,.25736-.16718.72678.72678,0,0,0,.16688-.226.65609.65609,0,0,0,.06026-.28422.69676.69676,0,0,0-.09692-.37072.7626.7626,0,0,0-.28342-.2642,1.51571,1.51571,0,0,0-.461-.15816,3.38161,3.38161,0,0,0-.63046-.05252h-1.371v2.834h.7477V7.90306h.25666q.07329,0,.12893.00337a.80334.80334,0,0,1,.0989.0114.39832.39832,0,0,1,.07789.0225.35115.35115,0,0,1,.06749.03726.478.478,0,0,1,.06481.05539q.0321.03256.07135.07552l.79883.89723ZM11.80807,7.46545V6.616h.54871a1.95141,1.95141,0,0,1,.33386.02537.82643.82643,0,0,1,.241.07641.37571.37571,0,0,1,.14527.12665.31994.31994,0,0,1,.04846.17679.36138.36138,0,0,1-.18918.332.75932.75932,0,0,1-.23962.08413,1.80342,1.80342,0,0,1-.3398.02815Z" fill="#fff" /><path d="M17.77647,9.06767V8.60993H15.77171V7.78266h1.718V7.325h-1.718V6.5365h1.98513V6.07886H15.02143V9.06767Z" fill="#fff" /><path d="M21.3446,8.526q-.076.0153-.15707.02675-.08131.01159-.16966.01962-.08829.00819-.18462.01239-.09616.00432-.20493.00436a2.46355,2.46355,0,0,1-.3627-.02487,1.39086,1.39086,0,0,1-.29987-.0769A.9036.9036,0,0,1,19.73,8.35406a.729.729,0,0,1-.17015-.193.88637.88637,0,0,1-.10286-.25558,1.37943,1.37943,0,0,1-.03469-.32246,1.14881,1.14881,0,0,1,.074-.42811.75915.75915,0,0,1,.22525-.31,1.01623,1.01623,0,0,1,.38034-.18828,2.02308,2.02308,0,0,1,.53691-.06353q.18329,0,.35616.01576t.32931.04251q.15652.02676.29531.06164t.25409.07215V6.30362q-.08132-.02884-.17025-.05431t-.186-.04658q-.09692-.02111-.203-.03835t-.22189-.02982q-.11594-.0125-.2416-.01873t-.26191-.00625a3.37342,3.37342,0,0,0-.58924.04777,2.31059,2.31059,0,0,0-.4839.13765,1.59453,1.59453,0,0,0-.37846.2188,1.2792,1.2792,0,0,0-.27232.29234,1.25853,1.25853,0,0,0-.165.35934,1.51849,1.51849,0,0,0-.05569.4175,1.55289,1.55289,0,0,0,.12565.64493,1.20111,1.20111,0,0,0,.36934.46487,1.68129,1.68129,0,0,0,.603.28134,3.24725,3.24725,0,0,0,.8243.09464q.14672,0,.28808-.00664.14151-.00684.279-.02012t.26776-.032q.13021-.01857.25142-.04152t.23248-.04925q.1112-.02631.21078-.05589V7.63748H21.3446Z" fill="#fff" /><path d="M24.36046,9.00573V8.55662h-.50015V6.62172h.50015v-.45H22.61108v.45h.49886v1.9349h-.49886v.44911Z" fill="#fff" /><path d="M27.50317,9.01475a1.97325,1.97325,0,0,0,.46021-.15142,1.37816,1.37816,0,0,0,.34576-.23358,1.24514,1.24514,0,0,0,.23635-.30056,1.35021,1.35021,0,0,0,.13546-.3521,1.7014,1.7014,0,0,0,.0439-.38837,1.84981,1.84981,0,0,0-.04063-.39084,1.32068,1.32068,0,0,0-.12962-.35259,1.22187,1.22187,0,0,0-.2304-.3,1.30678,1.30678,0,0,0-.34249-.23219,1.98662,1.98662,0,0,0-.46417-.15,3.021,3.021,0,0,0-.59846-.05352,2.898,2.898,0,0,0-.58537.054,1.987,1.987,0,0,0-.4616.151,1.35067,1.35067,0,0,0-.345.23308,1.26406,1.26406,0,0,0-.23645.30046,1.31744,1.31744,0,0,0-.13547.3521,1.72544,1.72544,0,0,0-.04321.38846,1.84822,1.84822,0,0,0,.04054.39075,1.32657,1.32657,0,0,0,.12962.35309,1.2102,1.2102,0,0,0,.2305.30007,1.3246,1.3246,0,0,0,.34248.23218,1.96942,1.96942,0,0,0,.46487.15044,3.03085,3.03085,0,0,0,.59905.05351A2.87937,2.87937,0,0,0,27.50317,9.01475Zm-.91607-.46051a1.008,1.008,0,0,1-.2632-.095.75812.75812,0,0,1-.197-.15082.81108.81108,0,0,1-.13626-.19969.96716.96716,0,0,1-.07858-.2416,1.56468,1.56468,0,0,1,0-.55584.96729.96729,0,0,1,.07858-.2416.81052.81052,0,0,1,.13626-.19959.75843.75843,0,0,1,.197-.15092,1.0116,1.0116,0,0,1,.2632-.095,1.6879,1.6879,0,0,1,.66327,0,1.01255,1.01255,0,0,1,.26261.095.77384.77384,0,0,1,.1977.15092.78909.78909,0,0,1,.13616.19959.97884.97884,0,0,1,.07789.2416,1.56468,1.56468,0,0,1,0,.55584.9787.9787,0,0,1-.07789.2416.78964.78964,0,0,1-.13616.19969.77352.77352,0,0,1-.1977.15082,1.00891,1.00891,0,0,1-.26261.095,1.68289,1.68289,0,0,1-.66327,0Z" fill="#fff" /><path d="M32.87063,9.00573V6.07886h-.7254V7.81417q0,.045.0007.096c.00039.03409.00168.06967.00386.10653l.00654.11327q.00327.05782.00853.116-.04059-.05529-.08384-.11128t-.08513-.10891q-.04191-.05307-.08443-.10277t-.08314-.09454L30.3355,6.07886h-.81974V9.00573h.7255V7.36605q0-.04385-.00268-.095l-.00525-.10654c-.00169-.037-.00406-.07481-.00714-.11376-.00307-.03875-.00634-.078-.00981-.11743q.08637.1146.17085.2192t.16569.19543L32.0496,9.00573Z" fill="#fff" /></g><text fill="#fff" font-family="AudiTypeDisplayHigh-Bold, Audi Type Display High" font-size="19" font-weight="700" id="Text" transform="translate(5.77441 28.76498)">{value}</text></g></svg>