<svg xmlns="http://www.w3.org/2000/svg" viewBox="0 0 64 35"><path d="m0 3.77a3.8 3.8 0 0 1 1.08-2.67 3.65 3.65 0 0 1 2.61-1.1h56.6a3.61 3.61 0 0 1 2.59 1.09 3.76 3.76 0 0 1 1.07 2.64v27.5a3.75 3.75 0 0 1-1.07 2.63 3.6 3.6 0 0 1-2.58 1.09h-56.7a3.62 3.62 0 0 1-2.59-1.1 3.77 3.77 0 0 1-1.07-2.65z" fill="#e52421" fill-rule="evenodd" /><text fill="#fff" font-family="AudiTypeDisplayHigh-Normal, Audi Type Display High" font-size="22" text-anchor="middle" transform="translate(32 25.2)">{value}</text></svg>