<svg xmlns="http://www.w3.org/2000/svg" viewBox="0 0 40 40"><g id="ri_uae_federal_2dig"><g id="Schild"><path d="M2.58153,0H37.41847A2.58156,2.58156,0,0,1,40,2.58154v34.837A2.58146,2.58146,0,0,1,37.41847,40H2.58153A2.58146,2.58146,0,0,1,0,37.41857V2.58154A2.58156,2.58156,0,0,1,2.58153,0Z" fill="#fff" fill-rule="evenodd" /><path d="M13.93382,4.10765s3.23707,0,3.292,2.061S14.72,8.87986,13.01831,8.87448C8.36592,8.85985,6.34742,7.22982,5.14039,7.56411S2.4866,8.61954,2.4866,11.6274,1.935,15.88126,1.22172,16.60527s2.23228-.7447,2.50666-1.19033-.61483,4.38-2.21616,5.93968c-1.53583,1.49558,2.043-.24637,2.261-.75442a34.46589,34.46589,0,0,1-2.24257,5.41574c-1.207,2.50654,2.0273.2403,2.19181-.20521a18.932,18.932,0,0,1-2.06765,5.37366c-1.48141,2.50655,1.61722.50714,1.94636-.04984s.27723,1.49215.27723,2.49477,4.37991,5.23259,16.06327,5.23259,16.07012-4.23,16.07012-5.23259-.052-2.96979.27712-2.41269,3.50871,2.55639,2.0273.04985a18.93615,18.93615,0,0,1-2.06765-5.37367c.16451.44552,3.39884,2.62967,2.19181.12313a39.28837,39.28837,0,0,1-2.36387-5.41574c.218.50805,3.9181,2.37324,2.38239.87755-1.60144-1.55961-2.57137-6.54949-2.2971-6.10385s3.13909,2.0377,2.42583,1.31357-1.184-2.05222-1.184-5.06007S35.99713,7.85723,34.7901,7.52306s-3.23227,1.39247-8.89563,1.39247c0,0-3.84059.31667-4.2246-4.19511s-3.1822-3.6763-4.115-3.23067S15.525,3.55066,13.93382,4.10765Z" fill="#4b70eb" /></g><text fill="#e3dc5a" font-family="AudiTypeDisplayHigh-Bold, Audi Type Display High" font-size="22" font-weight="700" transform="translate(5.41618 31.59717) scale(0.95242 1)">{value}</text></g></svg>