<svg xmlns="http://www.w3.org/2000/svg" viewBox="0 0 38.00005 34"><g id="ri_australia_state_2dig"><g id="Schild"><path d="M19.09705,33.195A31.886,31.886,0,0,1,3.58191,18.62422C-.799,10.11689,1.06385,4.35371,1.73914,2.78975A4.05859,4.05859,0,0,1,3.19519.7458L35.05066.75019a4.20288,4.20288,0,0,1,1.273,1.89844c.65772,1.56055,2.45606,7.32471-1.99853,15.97559A31.86852,31.86852,0,0,1,19.09705,33.195Z" fill="#4b70eb" /><path d="M34.77015,1.5c.87207.87572,3.99731,6.85865-1.11158,16.781a31.38027,31.38027,0,0,1-14.5664,14.09973A31.26566,31.26566,0,0,1,4.24842,18.281C-.60632,8.85239,2.256,2.47991,3.40784,1.5H34.77015M35.05066,0H3.15C1.61487,0-2.965,7.54836,2.91492,18.96768A32.12732,32.12732,0,0,0,19.10022,34,32.13369,32.13369,0,0,0,34.99207,18.96768C40.872,7.54836,36.58582,0,35.05066,0Z" fill="#fff" /></g><text fill="#fff" font-family="AudiTypeDisplayHigh-Bold, Audi Type Display High" font-size="19" font-weight="700" id="Text" transform="translate(5.77845 20.26278)">{value}</text></g></svg>