<svg xmlns="http://www.w3.org/2000/svg" viewBox="0 0 38 34"><path d="m19.1 33.2a31.9 31.9 0 0 1-15.5-14.6c-4.38-8.51-2.52-14.3-1.84-15.8a4.06 4.06 0 0 1 1.46-2.04l31.9 0.00439a4.2 4.2 0 0 1 1.27 1.9c0.658 1.56 2.46 7.32-2 16a31.9 31.9 0 0 1-15.2 14.6z" fill="#e52421" /><path d="m34.8 1.5c0.872 0.876 4 6.86-1.11 16.8a31.4 31.4 0 0 1-14.6 14.1 31.1 31.1 0 0 1-14.8-14.1c-4.85-9.43-1.99-15.8-0.841-16.8h31.4m0.281-1.5h-31.9c-1.54 0-6.11 7.55-0.235 19a32.1 32.1 0 0 0 16.2 15 32.1 32.1 0 0 0 15.9-15c5.88-11.4 1.59-19 0.0586-19z" fill="#fff" /><text fill="#fff" font-family="AudiTypeDisplayHigh-Bold, Audi Type Display High" font-size="19" font-weight="700" text-anchor="middle" transform="translate(19 20.5)">{value}</text></svg>