<svg xmlns="http://www.w3.org/2000/svg" viewBox="0 0 96 34">
   <g id="ri_octagon_green_white_5dig">
      <g id="Schild">
         <path d="M.75833,30.07491.75,3.841,47.96146.75166,95.295,3.926,95.25,30.07881l-47.2373,3.16895Zm94.4668.10644.0249-.03027v.03027Z" fill="#409d27" fill-rule="evenodd" />
         <path d="M47.96194,1.50338,94.5,4.624V29.37728L48.0126,32.49662,1.5,29.37242V4.624L47.96194,1.50338M47.9619,0,.65648,3.17729A.65163.65163,0,0,0,.192,3.3722.66437.66437,0,0,0,0,3.84108V30.10737a.71956.71956,0,0,0,.20735.50588.70083.70083,0,0,0,.50084.20936L48.01251,34l47.35232-3.17739a.63411.63411,0,0,0,.449-.18729A.64491.64491,0,0,0,96,30.181V3.83806a.65857.65857,0,0,0-.192-.46666.6481.6481,0,0,0-.463-.19411L47.9619,0Z" fill="#fff" />
      </g><text fill="#fff" font-family="AudiTypeDisplayHigh-Normal, Audi Type Display High" font-size="22" id="Text" text-anchor="middle" transform="translate(48.06699 25.28343)">{value}</text>
   </g>
</svg>