<svg xmlns="http://www.w3.org/2000/svg" id="Icon" viewBox="0 0 40 40"><defs /><rect height="40" id="Hintergrund_Schwarz" rx="2" width="40" /><path d="M2.37893,2.36833H12.5656a11.06163,11.06163,0,0,0,2.7376,1.188c1.01593.3012,2.1968-.39166,3.3334-.24618.56829.07274,1.027.49294,1.60607.50482s1.27846-.38456,1.85533-.36938c1.1538.03038,1.50253,1.15574,3.2792.99347a11.42087,11.42087,0,0,0,2.89153-1.0788A10.35211,10.35211,0,0,1,31.783,2.84c2.13527.025,4.27053-1.06766,6.4058-1.53013l.11142,15.09467c-1.12533.75473-.28178,2.0234-.357,3.2008a2.0612,2.0612,0,0,1-.62025,1.65207c-.49.34165-.44316,1.1512-.21234,2.07986.30555,1.22934-.2,2.46313-.44214,3.66827a6.34217,6.34217,0,0,1-1.7068,3.32487c-.9512.96353-2.3718,2.5888-4.05073,2.8426-2.16733.32758-2.89093,1.32213-4.055,2.59-.53686.58469-.787.7502-2.04113.8616-.69907.06209-.51832.602-2.07714.6944-1.53833.0912-2.9656.983-3.8814.98146-2.56706-.00422-4.67346-3.41933-8.05733-3.89226a14.66229,14.66229,0,0,1-4.78347-1.80053c-.76886-.41-1.50633-1.222-2.35586-1.36934-1.02314-.17666-1.2448-1.00867-1.95967-1.35933V3.095a.62916.62916,0,0,1,.67913-.72633Z" fill="#fff" id="Hintergrund_Weiss" /><text font-family="AudiTypeDisplayHigh-Bold, Audi Type Display High" font-size="25px" font-weight="700" id="Nummer" transform="translate(2.09871 27.77631)">{value}</text></svg>