<svg xmlns="http://www.w3.org/2000/svg" viewBox="0 0 50 47"><g fill-rule="evenodd"><path d="m25 2c4.63 0 8.45 3.5 8.95 8l4.05-3.03e-4c5.52 0 10 4.48 10 10 0 4.36-2.79 8.07-6.69 9.44 1.07 1.59 1.69 3.5 1.69 5.56 0 5.52-4.48 10-10 10-3.27 0-6.18-1.57-8-4-1.82 2.43-4.73 4-8 4-5.52 0-10-4.48-10-10 0-2.06 0.622-3.97 1.69-5.56-3.9-1.37-6.69-5.08-6.69-9.44 0-5.52 4.48-10 10-10l4.05 3.03e-4c0.497-4.5 4.31-8 8.95-8z" fill="#0F7217" stroke="#0F7217" stroke-width="4" /><path d="m25 2c4.63 0 8.45 3.5 8.95 8l4.05-3.03e-4c5.52 0 10 4.48 10 10 0 4.36-2.79 8.07-6.69 9.44 1.07 1.59 1.69 3.5 1.69 5.56 0 5.52-4.48 10-10 10-3.27 0-6.18-1.57-8-4-1.82 2.43-4.73 4-8 4-5.52 0-10-4.48-10-10 0-2.06 0.622-3.97 1.69-5.56-3.9-1.37-6.69-5.08-6.69-9.44 0-5.52 4.48-10 10-10l4.05 3.03e-4c0.497-4.5 4.31-8 8.95-8z" fill="#FFF" /><text fill-rule="nonzero" font-family="AudiTypeDisplayHigh-Normal, Audi Type Display High" font-size="22" font-weight="500" text-anchor="middle" x="25.0" y="33.0">{value}</text></g></svg>