<svg xmlns="http://www.w3.org/2000/svg" viewBox="0 0 40 40"><g id="ri_saudiarabia_national2nd_2dig"><g id="Schild"><path d="M3.47168,39.5A2.97265,2.97265,0,0,1,.5,36.5332V3.46729A2.97275,2.97275,0,0,1,3.47168.5H36.52832A2.97275,2.97275,0,0,1,39.5,3.46729V36.5332A2.97265,2.97265,0,0,1,36.52832,39.5Z" fill="#50a556" fill-rule="evenodd" /><path d="M36.52832,1A2.47227,2.47227,0,0,1,39,3.46714V36.53286A2.47227,2.47227,0,0,1,36.52832,39H3.47168A2.47227,2.47227,0,0,1,1,36.53286V3.46714A2.47227,2.47227,0,0,1,3.47168,1H36.52832m0-1H3.47168A3.46936,3.46936,0,0,0,0,3.46714V36.53286A3.46936,3.46936,0,0,0,3.47168,40H36.52832A3.46967,3.46967,0,0,0,40,36.53286V3.46714A3.46967,3.46967,0,0,0,36.52832,0Z" fill="#fff" /><path d="M39.99047,17.52557l-4.122-1.00964-1.42325-1.87952V11.62915l-.85384-.2258-1.77906,1.57906-2.27709,2.105-1.21021,1.42848-2.27764-.04769V14.26038l-1.281-1.74323H23.34313l.783,1.66822-.35581,1.729-1.92128-1.729L18.64619,10.4262l-1.13883-.75185-.64024.75185H12.73959L11.60077,9.148,8.82509,6.66709,5.90721,5.99025.05025,3.063a3.4478,3.4478,0,0,0-.04071.40419V22.322l1.41376.96029.4272,1.50363-.63968,4.61433.68486,1.50363,2.09081.52647,1.49464.90208.2136,2.70665,1.77906.52612.783,1.80437.21248.1975.28443,1.95467L9.11956,40H23.28067l.06246-.62852,1.85045-.67649,3.34508-1.35326,1.77906-1.12788.71163-1.72915H32.524l1.68147-.60141,1.80583-2.33083h2.06405l.498-1.80444h1.41712Z" fill="#fff" fill-rule="evenodd" /><path d="M30.40848,4.97406c.13083.36541-.02905.12412-.39246-.15847a.68982.68982,0,0,0-.71964-.09659,2.69066,2.69066,0,0,1,.4507.42753c.218.26188.11623.88246.03635.53776s-.854-.64811-.854-.64811L29.042,8.20755h-.45058L28.704,5.03618s-.774.30329-.854.64811-.18176-.27588.03636-.53776A2.68751,2.68751,0,0,1,28.337,4.719a.6896.6896,0,0,0-.71952.09659c-.36341.28259-.52329.52388-.39247.15847s.36341-.82729.65411-.848.34894-.05506-.13082-.17918a.92891.92891,0,0,0-.74858.069.73232.73232,0,0,1,.40694-.51023.94864.94864,0,0,1,.7414,0c.13082.06211-.05082-.20683-.42152-.34471s-.49423-.14482-.11636-.19988a1.49626,1.49626,0,0,1,.894.16541c.09447.07589.31259-.41364.31259-.41364s.218.48953.31247.41364a1.49689,1.49689,0,0,1,.8941-.16541c.37788.05506.25435.062-.11635.19988s-.55235.40682-.42152.34471a.94833.94833,0,0,1,.74128,0,.73264.73264,0,0,1,.40706.51023.92891.92891,0,0,0-.74858-.069c-.47976.12412-.42165.15859-.13083.17918S30.27766,4.60877,30.40848,4.97406ZM32.37823,7.4285c.40693-.05517,1.00293-.15164,1.00293-.15164a4.33376,4.33376,0,0,0-1.88975-.09659,5.80934,5.80934,0,0,0-2.14409,1.02728,3.1,3.1,0,0,0-.53058.43435,3.1,3.1,0,0,0-.53058-.43435A5.8101,5.8101,0,0,0,26.142,7.18027a4.334,4.334,0,0,0-1.88975.09659s.596.09647,1.00305.15164a9.90484,9.90484,0,0,1,1.80257.57223,8.32629,8.32629,0,0,1,1.33739.8894L27.799,9.3533l-.20765-.36317-.19917.14812.17447.41364-.56694.48952-.36341-.13447-.13082.0793V10.2l.45058.42058.94482-.68258s.1527.38611.21082.31717-.06541-.49646-.06541-.49646l.77046-.56529.77046.56529s-.12365.42752-.06541.49646.2107-.31717.2107-.31717l.94493.68258L31.128,10.2V9.98624l-.13083-.0793-.3634.13447-.56694-.48952.17447-.41364-.19917-.14812-.20765.36317-.59623-.46317a8.326,8.326,0,0,1,1.3374-.8894A9.9046,9.9046,0,0,1,32.37823,7.4285Z" fill="#fff" /></g><text font-family="AudiTypeDisplayHigh-Bold, Audi Type Display High" font-size="20" font-weight="700" id="Text" transform="translate(6.26453 33.45771) scale(0.95242 1)">{value}</text></g></svg>