<svg xmlns="http://www.w3.org/2000/svg" data-name="Layer 1" id="Layer_1" viewBox="0 0 40 40"><defs /><rect height="40" id="Schwarzer_Hintergrund" rx="2" width="40" /><rect fill="#fff" height="38" id="Weisse_Fl&#228;che" rx="2.02667" width="38" x="1" y="1" /><polygon fill-rule="evenodd" id="Stern1" points="24.231 31.018 23.31 30.349 24.448 30.349 24.8 29.267 25.152 30.349 26.29 30.349 25.369 31.018 25.721 32.101 24.8 31.432 23.879 32.101 24.231 31.018" /><polygon fill-rule="evenodd" id="Stern2" points="22.564 35.185 21.643 34.516 22.782 34.516 23.133 33.433 23.485 34.516 24.623 34.516 23.702 35.185 24.054 36.267 23.133 35.598 22.213 36.267 22.564 35.185" /><polygon fill-rule="evenodd" id="Stern3" points="16.298 34.268 15.377 33.599 16.515 33.599 16.867 32.517 17.218 33.599 18.356 33.599 17.436 34.268 17.787 35.351 16.867 34.682 15.946 35.351 16.298 34.268" /><polygon fill-rule="evenodd" id="Stern4" points="16.298 29.785 15.377 29.116 16.515 29.116 16.867 28.033 17.218 29.116 18.356 29.116 17.436 29.785 17.787 30.867 16.867 30.198 15.946 30.867 16.298 29.785" /><polygon fill-rule="evenodd" id="Stern5" points="13.381 27.068 12.46 26.399 13.598 26.399 13.95 25.317 14.302 26.399 15.44 26.399 14.519 27.068 14.871 28.151 13.95 27.482 13.029 28.151 13.381 27.068" /><polygon fill-rule="evenodd" id="Stern6" points="9.114 24.885 8.193 24.216 9.332 24.216 9.683 23.133 10.035 24.216 11.173 24.216 10.252 24.885 10.604 25.967 9.683 25.298 8.763 25.967 9.114 24.885" /><polygon fill-rule="evenodd" id="Stern7" points="4.314 23.735 3.393 23.066 4.532 23.066 4.883 21.983 5.235 23.066 6.373 23.066 5.452 23.735 5.804 24.817 4.883 24.148 3.963 24.817 4.314 23.735" /><polygon fill-rule="evenodd" id="Stern8" points="33.159 6.962 31.689 5.894 33.505 5.894 34.067 4.167 34.628 5.894 36.444 5.894 34.975 6.962 35.536 8.689 34.067 7.622 32.597 8.689 33.159 6.962" /><path d="M7.21436,9.11326H6.40645L6.29679,7.71088H4.77244L3.937,9.11326H3.129L6.06822,4.23533h.73171Zm-.987-2.16461L6.10067,5.52343,5.24409,6.94865Zm4.336,2.16461H7.59084L8.8532,4.23533h.76223L8.55026,8.35114H10.7606Zm4.46188,0h-.808l-.1096-1.40238H12.58331l-.83557,1.40238h-.80785l2.9392-4.87793h.73171Zm-.98709-2.16461-.1265-1.42522-.85673,1.42522Zm5.01571.7165a1.93132,1.93132,0,0,1-.73511,1.04416,1.99433,1.99433,0,0,1-1.25407.45736A1.21674,1.21674,0,0,1,15.866,8.52641a1.94236,1.94236,0,0,1-.13723-.64784l.78329-.22868a1.24764,1.24764,0,0,0,.0094.22868.66338.66338,0,0,0,.74245.51829,1.10976,1.10976,0,0,0,.63446-.21342.91086.91086,0,0,0,.39718-.53355.57329.57329,0,0,0-.4014-.7165c-.34-.1295-.67226-.259-1.00261-.39627a.83953.83953,0,0,1-.33218-1.01369,1.75388,1.75388,0,0,1,.57347-.86136,1.83355,1.83355,0,0,1,1.26384-.4954,1.05564,1.05564,0,0,1,.98266.50308,1.6633,1.6633,0,0,1,.17273.51061l-.78328.22868a.87508.87508,0,0,0-.08362-.23626.53671.53671,0,0,0-.48767-.23631.9204.9204,0,0,0-.55044.183.75371.75371,0,0,0-.31422.41921c-.05921.22862.086.404.45084.52591a4.64166,4.64166,0,0,1,.99665.41921A1.06113,1.06113,0,0,1,19.06321,7.688Zm3.35531,1.44811h-.86131l-.63507-2.31694-.64952.62489-.43792,1.69205h-.76213l1.26231-4.87793h.76223l-.501,1.93593,1.99483-1.93593h.968L21.59709,6.12554l.8197,2.98772Zm4.46187,0h-.8079l-.10966-1.40238H24.42922l-.83557,1.40238h-.808l2.93925-4.87793h.73171Zm-.98714-2.16461-.12644-1.42522-.85673,1.42522Z" fill-rule="evenodd" id="Alaska" /><text font-family="AudiTypeDisplayHigh-Bold, Audi Type Display High" font-size="18px" font-weight="700" transform="translate(13.54656 24.81692)">{value}</text></svg>