<svg xmlns="http://www.w3.org/2000/svg" data-name="Layer 1" id="Layer_1" viewBox="0 0 48 37"><defs /><rect fill="#006b54" height="37" rx="2" width="48" /><path d="M2,23.89583A14.95765,14.95765,0,0,1,7,13H41a14.95765,14.95765,0,0,1,5,10.89583A15.40812,15.40812,0,0,1,41,35H7A15.40812,15.40812,0,0,1,2,23.89583Z" fill="#fff" /><rect fill="#fff" height="9" rx="2" width="44" x="2" y="2" /><polygon fill="#006b54" fill-rule="evenodd" points="8.667 9.477 7.89 9.477 6.092 3.523 7.124 3.523 8.295 7.389 9.476 3.523 10.497 3.523 8.667 9.477" /><polygon fill="#006b54" fill-rule="evenodd" points="11.487 9.477 11.487 3.523 14.839 3.523 14.839 4.359 12.508 4.359 12.508 5.86 13.987 5.86 13.987 6.678 12.508 6.678 12.508 8.641 15.115 8.641 15.115 9.477 11.487 9.477" /><path d="M19.27554,9.47672l-.947-2.799h-.97891v2.799H16.32805V3.52332h2.12814a2.38911,2.38911,0,0,1,.76081.11551,1.86436,1.86436,0,0,1,.59591.31988,1.3517,1.3517,0,0,1,.38306.502,1.5835,1.5835,0,0,1,.133.65308,1.56672,1.56672,0,0,1-.25539.90638,1.39472,1.39472,0,0,1-.76617.5331L20.329,9.47672Zm.05319-4.36289a.66867.66867,0,0,0-.25534-.55089,1.0407,1.0407,0,0,0-.67039-.20437H17.34961V5.86024H18.403a1.0776,1.0776,0,0,0,.68634-.19106A.66836.66836,0,0,0,19.32873,5.11383Z" fill="#006b54" fill-rule="evenodd" /><polygon fill="#006b54" fill-rule="evenodd" points="25.213 9.477 25.213 6.136 23.893 9.477 22.563 6.136 22.563 9.477 21.542 9.477 21.542 3.523 22.563 3.523 23.893 6.864 25.213 3.523 26.245 3.523 26.245 9.477 25.213 9.477" /><path d="M31.84728,6.49115a6.40937,6.40937,0,0,1-.09037,1.164,3.23511,3.23511,0,0,1-.31393.90633,1.84143,1.84143,0,0,1-.665.77747,1.89634,1.89634,0,0,1-1.00555.24436A1.96375,1.96375,0,0,1,28.73494,9.339a1.83992,1.83992,0,0,1-.665-.77747,3.35761,3.35761,0,0,1-.31393-.9108,6.3234,6.3234,0,0,1-.09048-1.15955A6.41464,6.41464,0,0,1,27.756,5.33156a3.22446,3.22446,0,0,1,.31393-.9108,1.8427,1.8427,0,0,1,.67563-.76862,2.00043,2.00043,0,0,1,1.02686-.23547,1.94723,1.94723,0,0,1,1.01085.23547,1.7803,1.7803,0,0,1,.65974.78641,4.73911,4.73911,0,0,1,.18615.44427,3.20494,3.20494,0,0,1,.12778.46653,4.48844,4.48844,0,0,1,.06907.52421Q31.84728,6.15352,31.84728,6.49115Zm-.979,0q0-.24884-.01588-.45321-.01606-.20437-.0426-.3776a3.14447,3.14447,0,0,0-.06918-.33324q-.04243-.15993-.09578-.31988a1.31072,1.31072,0,0,0-.34582-.57761.78143.78143,0,0,0-.52666-.17765.91845.91845,0,0,0-.90449.73747,3.15434,3.15434,0,0,0-.17555.67975,6.204,6.204,0,0,0-.04789.83971q0,.24.016.43985.01589.19993.04259.37319.02653.17333.06907.34213.0426.16881.09578.34651a.91845.91845,0,0,0,.90449.73752.7812.7812,0,0,0,.52666-.1777,1.30811,1.30811,0,0,0,.34582-.55982q.06389-.1777.10648-.34209a3.34766,3.34766,0,0,0,.06919-.34208q.02653-.1777.03718-.37766T30.86831,6.49115Z" fill="#006b54" fill-rule="evenodd" /><polygon fill="#006b54" fill-rule="evenodd" points="36.497 9.477 34.295 5.487 34.295 9.477 33.273 9.477 33.273 3.523 34.295 3.523 36.253 7.095 36.253 3.523 37.274 3.523 37.274 9.477 36.497 9.477" /><polygon fill="#006b54" fill-rule="evenodd" points="40.61 4.314 40.61 9.477 39.578 9.477 39.578 4.314 38.28 4.314 38.28 3.523 41.908 3.523 41.908 4.314 40.61 4.314" /><text fill="#006b54" font-family="AudiTypeDisplayHigh-Bold, Audi Type Display High" font-size="21px" font-weight="700" transform="translate(10.50732 31.75409) scale(0.92308 1)">{value}</text></svg>