<svg xmlns="http://www.w3.org/2000/svg" data-name="Ebene 1" id="Ebene_1" viewBox="0 0 46 46"><defs /><rect fill="#fff" height="45" rx="1.5" width="45" x="0.5" y="0.5" /><path d="M44,1a1.00113,1.00113,0,0,1,1,1V44a1.00113,1.00113,0,0,1-1,1H2a1.00113,1.00113,0,0,1-1-1V2A1.00113,1.00113,0,0,1,2,1H44m0-1H2A2,2,0,0,0,0,2V44a2,2,0,0,0,2,2H44a2,2,0,0,0,2-2V2a2,2,0,0,0-2-2Z" /><text font-family="AudiTypeDisplayHigh-Bold, Audi Type Display High" font-size="16px" font-weight="700" isolation="isolate" transform="translate(6.29511 35.0435)">{value}</text><path d="M23.00116,42.5h.00233A6.0713,6.0713,0,0,1,28.02,39.5797c6.52762,0,9.578-1.5688,9.578-1.5688A8.99946,8.99946,0,0,0,42.63464,30.91,11.19522,11.19522,0,0,0,40.653,23.56139a9.00163,9.00163,0,0,1-1.73394-5.367c0-3.706,2.86-7.696,4.12843-9.16512L36.442,3.0018S29.44384,8.72017,23.00349,2.5H23c-6.44035,6.22017-13.4385.5018-13.4385.5018L2.956,9.02931c1.26847,1.4691,4.12844,5.45915,4.12844,9.16512a9.00157,9.00157,0,0,1-1.73395,5.367A11.19527,11.19527,0,0,0,3.36885,30.91a8.99942,8.99942,0,0,0,5.03668,7.1009s3.05034,1.5688,9.578,1.5688A6.0713,6.0713,0,0,1,23,42.5h.00116Z" fill="none" stroke="#000" stroke-miterlimit="10" stroke-width="1.5px" /></svg>