<svg xmlns="http://www.w3.org/2000/svg" viewBox="0 0 36 37"><g id="ri_australia_national_2dig"><g id="Schild"><path d="M18,36.24955c-5.15869,0-17.25-6.83594-17.25-9.75293V1.26371A.52045.52045,0,0,1,1.27588.75H34.72412a.52045.52045,0,0,1,.52588.51368V26.49662C35.25,29.41361,23.15869,36.24955,18,36.24955Z" fill="#fff" fill-rule="evenodd" /><path d="M34.5,1.5V26.49627c0,.5828-1.5481,2.65241-6.3335,5.32983C24.30005,33.98924,20.11963,35.5,18,35.5s-6.30029-1.51076-10.1665-3.6739C3.0481,29.14869,1.5,27.07907,1.5,26.49627V1.5h33M34.72412,0H1.27588A1.26967,1.26967,0,0,0,0,1.2636V26.49627C0,30.195,12.93628,37,18,37c5.06348,0,18-6.80505,18-10.50373V1.2636A1.26983,1.26983,0,0,0,34.72412,0Z" /></g><text font-family="AudiTypeDisplayHigh-Bold, Audi Type Display High" font-size="22" font-weight="700" id="Text" transform="translate(2.90527 24.04352)">{value}</text></g></svg>