<svg xmlns="http://www.w3.org/2000/svg" viewBox="0 0 48 30"><g id="ri_qatar_2dig"><g id="Schild"><path d="M2.58838,29.24964A1.84675,1.84675,0,0,1,.74951,27.4V2.60023A1.84687,1.84687,0,0,1,2.58838.75013H45.41162a1.846,1.846,0,0,1,1.83789,1.8501V27.4a1.84592,1.84592,0,0,1-1.83789,1.84961Z" fill="#f1c61b" fill-rule="evenodd" /><path d="M45.41187,1.5A1.09549,1.09549,0,0,1,46.5,2.60038V27.39962A1.09549,1.09549,0,0,1,45.41187,28.5H2.58789A1.09544,1.09544,0,0,1,1.5,27.39962V2.60038A1.09544,1.09544,0,0,1,2.58789,1.5h42.824m0-1.5H2.58789A2.5942,2.5942,0,0,0,0,2.60038V27.39962A2.5942,2.5942,0,0,0,2.58789,30h42.824A2.59425,2.59425,0,0,0,48,27.39962V2.60038A2.59425,2.59425,0,0,0,45.41187,0Z" fill="#50a556" /></g><text fill="#50a556" font-family="AudiTypeDisplayHigh-Normal, Audi Type Display High" font-size="23" id="Text" transform="translate(8.64307 23.31027)">{value}</text></g></svg>