<svg xmlns="http://www.w3.org/2000/svg" id="Icon" viewBox="0 0 40 40"><defs /><g id="Hintergrund"><rect height="40" rx="2" width="40" /><path d="M5.127,20.21716H3.564a.934.934,0,0,1-.22332-.7339c0-.395,2.177-4.007,2.34462-5.24857V12.09c0-.79,1.5073-2.201,1.67467-3.38623A4.73762,4.73762,0,0,1,9.76033,5.71255c.614-.22555.78139-.79.89305-1.69289.335-.79023,3.58183-1.64884,6.02894-2.08834a26.11075,26.11075,0,0,1,7.9267.11289c1.01594.13537,7.70338,4.06357,8.429,11.1747.16761,1.63656,2.40035,3.89412,3.0703,4.402l-.05594.84656.50235.45156c-.16737,3.04756-2.73509,6.0388-4.354,6.32091a2.23237,2.23237,0,0,0-1.73038,1.806,2.53587,2.53587,0,0,0,1.11637,2.93468l.72567-.28211c.335-.45156,2.20889-1.54986,2.12131-.67734-.05755.57326-.67.62078-1.00494,1.07234.55829.73367.11189,2.201.11189,2.201-1.17232.56445-.50259,1.016-.50259,1.016.5583,1.35445,1.95394,1.24156,2.95864,2.42679A5.24816,5.24816,0,0,1,36.66667,38H5.8527v-.17457c.05594-1.411,6.50882-5.22608,6.81033-7.76576.23455-2.03178-3.90764-2.65256-6.5313-2.84449,0,0-.97123-.14674-1.00471-.73367A5.56555,5.56555,0,0,1,5.40629,24.845c.03347-.50789-.056-1.806-.056-1.806l.22332-.79023L5.2944,21.91l.27926-.95945s-.05594-.73343-.44664-.73343" fill="#fff" id="path50" /></g><text font-family="AudiTypeDisplayHigh-Bold, Audi Type Display High" font-size="19px" font-weight="700" transform="translate(6.35832 25.90934)">{value}</text></svg>