<svg xmlns="http://www.w3.org/2000/svg" id="Icon" viewBox="0 0 40 40"><defs /><rect height="40" id="Hintergrund" rx="2" width="40" /><path d="M21.5019,1.96092V1.95844A1.99926,1.99926,0,0,1,20.002.83333a1.99767,1.99767,0,0,1-.97967.96936,6.76142,6.76142,0,0,1-.87737.24477,2.01246,2.01246,0,0,0-1.3417,1.8876A2.01315,2.01315,0,0,0,14.14538,2.8715a.39646.39646,0,1,1-.13262-.76012,3.10834,3.10834,0,0,0-3.11412,4.2677,2.00656,2.00656,0,0,0-2.18631-.42594c-.3148.12713-.57147.37369-.89535.4821a1.99522,1.99522,0,0,1-1.36972.0152,2.02886,2.02886,0,0,1-.00992,1.36963,8.31329,8.31329,0,0,1-.459.82385,2.00831,2.00831,0,0,0,.39781,2.2526,2.03169,2.03169,0,0,0-2.65542,1.18609.39789.39789,0,1,1-.60187-.50559,3.11476,3.11476,0,0,0,.81121,5.22921A2.01524,2.01524,0,0,0,2.04248,18.1478a5.7704,5.7704,0,0,1-.24232.87735,2.0311,2.0311,0,0,1-.96677.972,2.00073,2.00073,0,0,1,.96942.97967,6.116,6.116,0,0,1,.23982.87737,2.014,2.014,0,0,0,1.88752,1.34164,2.0165,2.0165,0,0,0-1.0613,2.65809.39607.39607,0,1,1-.76.1327,3.10824,3.10824,0,0,0,4.26788,3.112,2.01011,2.01011,0,0,0-.42586,2.186c.1153.29147.33962.5297.4541.82137a1.98972,1.98972,0,0,1,.04079,1.44371,2.065,2.065,0,0,1,1.37229.01265,8.86614,8.86614,0,0,1,.82391.45676,2.00461,2.00461,0,0,0,2.25254-.398,2.03341,2.03341,0,0,0,1.186,2.658.39792.39792,0,1,1-.50534.60213,3.11339,3.11339,0,0,0,5.22889-.81377A2.01431,2.01431,0,0,0,18.14573,37.955a6.82472,6.82472,0,0,1,.87734.24232,2.05156,2.05156,0,0,1,.97191.96934,2.00094,2.00094,0,0,1,.97951-.96928,6.60744,6.60744,0,0,1,.87744-.24229,2.0132,2.0132,0,0,0,1.34165-1.885,2.01687,2.01687,0,0,0,2.65808,1.06108.39627.39627,0,1,1,.1327.76028,3.10756,3.10756,0,0,0,3.112-4.26754,2.01591,2.01591,0,0,0,2.2574.39275,8.23029,8.23029,0,0,1,.82393-.4489,2.01988,2.01988,0,0,1,1.36974-.01785,2.05923,2.05923,0,0,1,.01277-1.36972,9.01314,9.01314,0,0,1,.45661-.82392,2.00478,2.00478,0,0,0-.39787-2.25236,2.02965,2.02965,0,0,0,2.65776-1.18361.39571.39571,0,1,1,.60216.49775,3.107,3.107,0,0,0-.81372-5.22154,2.01377,2.01377,0,0,0,1.8876-1.34166,7.14428,7.14428,0,0,1,.24487-.87735,2.04443,2.04443,0,0,1,.96927-.97192,1.99829,1.99829,0,0,1-.96928-.97959,6.81828,6.81828,0,0,1-.24478-.87737,2.01827,2.01827,0,0,0-1.88761-1.3442,2.01622,2.01622,0,0,0,1.06364-2.65553.3962.3962,0,1,1,.76024-.13262,3.1084,3.1084,0,0,0-4.26755-3.1146,2.016,2.016,0,0,0,.3928-2.25763,8.22359,8.22359,0,0,1-.449-.82386,1.974,1.974,0,0,1-.01276-1.37,2.04551,2.04551,0,0,1-1.37484-.01024,8.44,8.44,0,0,1-.82393-.45908,2.00624,2.00624,0,0,0-2.25236.39781,2.028,2.028,0,0,0-1.18357-2.65542.39816.39816,0,1,1,.50526-.602,3.11467,3.11467,0,0,0-5.23034.81393A2.01233,2.01233,0,0,0,21.5019,1.96092Z" fill="#fecd00" fill-rule="evenodd" id="Form" /><text font-family="AudiTypeDisplayHigh-Bold, Audi Type Display High" font-size="22px" font-weight="700" id="Nummer" transform="translate(4.6958 27.96435)">{value}</text></svg>