<svg xmlns="http://www.w3.org/2000/svg" viewBox="0 0 39.99992 39"><g id="ri_colombia_federal_1dig"><g id="Schild"><path d="M20.0293,38.71C7.40723,31.19727,1.12012,19.16992.26855.8916A23.70467,23.70467,0,0,0,9.90039,2.72021c4.16211,0,7.832-.87939,10.10938-2.417C22.36816,1.88721,26.01855,2.793,30.06445,2.793A22.85381,22.85381,0,0,0,39.73047.8418C38.84766,19.36914,32.583,31.41992,20.0293,38.71Z" fill="#fff" /><path d="M20.0105.603a19.08149,19.08149,0,0,0,10.0542,2.4402,23.57174,23.57174,0,0,0,9.39355-1.7977C38.50366,19.39276,32.31689,31.22686,20.03076,38.42,7.66553,31.00477,1.45679,19.18262.53784,1.28654A24.51846,24.51846,0,0,0,9.90015,2.97c4.12744,0,7.78344-.85948,10.11035-2.367M20.00977,0C17.6167,1.68912,13.7771,2.47,9.90015,2.47A23.0787,23.0787,0,0,1,0,.48356C.80273,19.6479,7.634,31.6764,20.02759,39,32.72729,31.68023,39.14014,19.67132,39.99268.547c-.00562-.05952.0271-.09566-.01319-.09566a.21583.21583,0,0,0-.04272.00632A22.28949,22.28949,0,0,1,30.0647,2.54319C26.26587,2.54319,22.49536,1.739,20.00977,0Z" /><path d="M20.0443,35.84668C9.66734,29.2334,4.17125,19.2168,2.78355,4.375A30.45472,30.45472,0,0,0,9.808,5.16992,24.08829,24.08829,0,0,0,20.00816,3.13135a22.575,22.575,0,0,0,10.14746,2.1123,28.93407,28.93407,0,0,0,7.05469-.85351C35.81285,19.61523,30.5023,29.34277,20.0443,35.84668Z" fill="#fff" /><path d="M20.0067,3.55016A23.13528,23.13528,0,0,0,30.15611,5.61847a29.59126,29.59126,0,0,0,6.63135-.73942C35.33873,19.57936,30.14439,29.042,20.04723,35.40314,10.02428,28.93321,4.65318,19.1955,3.20689,4.857a31.19543,31.19543,0,0,0,6.60059.6881A24.703,24.703,0,0,0,20.0067,3.55016m.00244-.84035C16.55748,4.50289,12.245,4.79505,9.80748,4.79505a29.63189,29.63189,0,0,1-7.44482-.91281c1.32177,15.2991,6.99853,25.68445,17.67968,32.40719C30.78258,29.69234,36.29771,19.56358,37.63121,3.88981a28.22615,28.22615,0,0,1-7.4751.97866,22.11663,22.11663,0,0,1-10.147-2.15866Z" /></g><text font-family="AudiTypeDisplayHigh-Bold, Audi Type Display High" font-size="17.05132" font-weight="700" id="Text" letter-spacing="0.07499em" transform="translate(14.3479 23.70117) scale(0.95242 1)">{value}</text></g></svg>