<svg xmlns="http://www.w3.org/2000/svg" viewBox="0 0 73 47"><g fill-rule="evenodd"><path d="m61 5.49c3.21 1.17 5.66 2.56 7.32 4.05 1.8 1.61 2.68 3.34 2.68 4.99 0 8.07-4.38 16.4-10.7 21.9-6.75 5.83-15.7 8.59-23.8 8.59-8.04 0-17-2.77-23.8-8.6-6.35-5.47-10.7-13.8-10.7-21.9 0-1.65 0.875-3.38 2.68-4.99 1.66-1.48 4.11-2.88 7.32-4.05 5.77-2.1 14-3.49 24.5-3.49 10.5 0 18.7 1.38 24.5 3.49z" fill="#0F448C" fill-rule="nonzero" stroke="#0F448C" stroke-width="4" /><path d="m61 5.49c3.21 1.17 5.66 2.56 7.32 4.05 1.8 1.61 2.68 3.34 2.68 4.99 0 8.07-4.38 16.4-10.7 21.9-6.75 5.83-15.7 8.59-23.8 8.59-8.04 0-17-2.77-23.8-8.6-6.35-5.47-10.7-13.8-10.7-21.9 0-1.65 0.875-3.38 2.68-4.99 1.66-1.48 4.11-2.88 7.32-4.05 5.77-2.1 14-3.49 24.5-3.49 10.5 0 18.7 1.38 24.5 3.49z" fill="#FFF" /><path d="m36.5 4c10.2 0 18.2 1.32 23.8 3.37 2.92 1.06 5.16 2.31 6.67 3.66 1.26 1.13 2.01 2.31 2.01 3.5 0 7.53-4.13 15.3-10 20.4-6.38 5.5-14.9 8.11-22.5 8.11-7.6 0-16.1-2.61-22.5-8.11-5.91-5.1-10-12.8-10-20.4 0-1.19 0.746-2.37 2.01-3.5 1.51-1.35 3.76-2.59 6.68-3.66 5.61-2.04 13.6-3.37 23.8-3.37z" fill="#0F448C" fill-rule="nonzero" /><text fill="#FFF" fill-rule="nonzero" font-family="AudiTypeDisplayHigh-Normal, Audi Type Display High" font-size="22" font-weight="500" text-anchor="middle" x="36.5" y="30.0">{value}</text></g></svg>