<svg xmlns="http://www.w3.org/2000/svg" data-name="Layer 1" id="Layer_1" viewBox="0 0 50 40"><defs /><rect height="40" id="Hintergrund" rx="2" width="50" /><g id="Form"><path d="M45.33483,38.27653a.59517.59517,0,0,1-.00066-.3696c.04907-.15543-.02265-.31927-.23755-.54282a1.12565,1.12565,0,0,1-.30824-.4694c0-.234-.55907-.52373-1.14508-.59337-.41394-.04937-.55882-.114-.64185-.28736a.41567.41567,0,0,0-.37735-.23087,3.51416,3.51416,0,0,1-.68586-.12558c-.38348-.10918-.42017-.154-.475-.57805-.05545-.42921-.08474-.46371-.44453-.52158a2.0169,2.0169,0,0,1-.53447-.15122,3.74823,3.74823,0,0,0-.68364-.21731,3.7142,3.7142,0,0,1-.6856-.21869.22948.22948,0,0,0-.23755-.01725c-.04738.04042-.01276.0941.07706.11932.40951.11533.58367.39246.6688,1.06429.07576.5995.05988.70212-.12535.80948-.1808.105-.19122.15974-.0699.371.207.36011.08748.53936-.71306,1.06978-.9592.63562-1.11839.62581-1.21836-.07491a1.886,1.886,0,0,1-.00208-.70751c.11468-.23692-.75354-.84052-1.10773-.77-.1549.03072-.26763.01-.26763-.04926,0-.05648-.12014-.089-.26724-.07254a.47043.47043,0,0,0-.38594.31257,1.61741,1.61741,0,0,1-1.03575.81713.31445.31445,0,0,0-.306.2271c-.0397.22053-.75055.53549-1.022.45292a.76393.76393,0,0,0-.42525.05594.39139.39139,0,0,1-.43762-.01261,3.53306,3.53306,0,0,0-.39832-.21837c-1.54458-.70288-1.60283-.72206-2.0339-.66946l-.43358.05292-.14526-.48008c-.12379-.40926-.204-.4997-.54189-.61169a1.1974,1.1974,0,0,1-.51533-.30741.81193.81193,0,0,0-.47616-.23271c-.268-.04247-.37553-.12223-.42981-.3185-.04-.144-.0945-.31787-.12157-.38642-.09841-.25006-.47278-.05206-.77034.40721-.28467.43977-.57482.59649-.48787.26354.09815-.376-.09685-.59035-.63444-.69771-.38374-.07652-.53238-.15348-.53238-.27571,0-.29178-.13589-.46736-.36193-.46736a.42928.42928,0,0,0-.29125.0942.99868.99868,0,0,1-.51859.09421,1.616,1.616,0,0,0-.67589.13819c-.50753.30439-.682.08935-.34573-.4263.13647-.20921.15027-.3254.05519-.46617-.16005-.23713-.36272-.23713-.74313.00011a3.31063,3.31063,0,0,1-.74665.306c-.63613.16911-.74039.34772-.47492.81465.177.31107.18972.40915.06821.52524a2.24463,2.24463,0,0,1-1.35051.28057,1.58535,1.58535,0,0,0-.80607.15328,2.671,2.671,0,0,1-1.05285.19681c-.29392-.00732-.80165-.01918-1.12824-.02608a13.45611,13.45611,0,0,0-2.84537.4236,3.31173,3.31173,0,0,1-2.34221-.18453,8.24229,8.24229,0,0,0-1.45221-.34244,2.73967,2.73967,0,0,1-.78243-.16814,2.46005,2.46005,0,0,0-2.12507.02662,3.77672,3.77672,0,0,1-1.67508.31032,4.601,4.601,0,0,0-1.34864.1703c-.4362.15446-.46932.15414-.69387-.007-.59818-.42921-.51494-.76151.25175-1.00478.69516-.22053.7732-.40076.80106-1.8503a5.619,5.619,0,0,1,.69509-2.91805,3.31944,3.31944,0,0,0,.15528-1.55384c-.03521-1.02785-.06541-1.15936-.32946-1.43849-.27719-.293-.284-.33263-.14846-.85313A5.1057,5.1057,0,0,0,4.64949,24.861c.00058-.54443.02193-.58011.9743-1.63375a2.35583,2.35583,0,0,0,.87552-2.26751A3.55671,3.55671,0,0,0,5.89338,18.358a2.87568,2.87568,0,0,1-.40573-.70627,2.53381,2.53381,0,0,0-.4839-.73569,1.5282,1.5282,0,0,1-.3549-.47976,3.26873,3.26873,0,0,0-.49913-.71306,1.73065,1.73065,0,0,1-.39317-1.89179c.098-.4796-.08116-.80571-.79929-1.45406a4.36408,4.36408,0,0,1-.9152-.89971V1.69932c9.62139.00037,14.75272-.00055,27.1955,0a.53451.53451,0,0,1,.232.46111c0,.28444.25435.51506.68208.61842.67635.16341.81368.65938.32725,1.1821-.36057.38754-.3715.608-.051,1.02484.2101.27351.2248.35726.10257.59105-.12053.23077-.11038.30013.06574.45443a.44452.44452,0,0,1,.12717.52336.59616.59616,0,0,0,.08669.54528,2.813,2.813,0,0,1,.322.5807,2.84066,2.84066,0,0,0,.32945.5897c.25187.307.13785,1.09231-.24927,1.71752a10.14356,10.14356,0,0,1-2.35113,2.80658c-.80027.3476-.82278.38054-.98693,1.44456-.16505,1.06941-.169,1.07808-.69639,1.60428-.34208.34142-.345.3537-.18978.83394.14735.45541.14019.5128-.10752.87146-.14592.2111-.22415.416-.17416.455.0008.00509,16.65879.0286,16.65879.0286.00053.16588-.06248,1.56135-.13993,1.96476a2.07123,2.07123,0,0,0,.01237,1.20726A1.2312,1.2312,0,0,1,42.75407,22.71c-.39245.2216-.43372.45917-.11871.68519a1.89618,1.89618,0,0,1,.42773.55619,5.66741,5.66741,0,0,0,1.11632,1.72138,1.21519,1.21519,0,0,1,.378.57191c.05363.20026.16.53354.23626.74081a4.93751,4.93751,0,0,1,.19877.73252c.05558.329.01874.38469-.48709.7378-.36642.25578-.54723.457-.54723.60943,0,.27582.24419.29717.44751.039q.278-.35328.66673-.01229c.17052.14939.17859.21525.05363.43255-.12991.22646-.11819.27475.10049.4125a1.45719,1.45719,0,0,1,.38034.36174.64557.64557,0,0,0,.45819.2354c.43268.03967.50193.33479.13225.56459-.25825.16049-.26371.1813-.07185.27151.31059.14605.251.34944-.11871.40409-.17964.02652-.54046.07912-.80158.11706a9.51408,9.51408,0,0,1-.99851.077c-.624.00971-.80287.21687-.26138.30267.48149.07631.68638.269.48788.45873a.7029.7029,0,0,1-.42162.14131c-.30654,0-.7659.40151-.7659.66946,0,.09647.1549.2367.3491.31635.42565.17451.7197.49076.7197.774,0,.235.31253.406.74182.406.26685,0,.63743.29436.99761.79256a.58564.58564,0,0,0,.4332.19229,1.85768,1.85768,0,0,1,.84348.40937c.46262.343.54657.46.54657.76054,0,.36648-.23976.62042-.80339.85087-.22024.09022-.28168.08375-.33921-.03524-.09932-.20534-.44336-.18022-.70811.05184-.35184.30839-.60749.38889-.69055.2174Z" fill="#fff" id="path37" /></g><g id="LA"><g id="g41"><polygon fill-rule="evenodd" id="polygon43" points="10.24 4.396 11.673 4.396 11.673 13.067 15.33 13.067 15.33 14.395 10.24 14.395 10.24 4.396" /></g><g id="g45"><path d="M20.91206,14.39527l-.7015-2.73131H18.06127l-.65667,2.73131H15.95686l2.49245-9.99982h1.40288l2.49318,9.99982H20.91206ZM19.12012,7.38052l-.70124,2.88056h1.43283l-.73134-2.88056Z" fill-rule="evenodd" id="path47" /></g></g><text font-family="AudiTypeDisplayHigh-Bold, Audi Type Display High" font-size="16px" font-weight="700" id="Nummer" transform="translate(8.29479 31.60448)">{value}</text></svg>