<svg xmlns="http://www.w3.org/2000/svg" data-name="Layer 1" id="Layer_1" viewBox="0 0 50 40"><defs /><rect height="40" rx="2" width="50" /><rect fill="#fff" height="38" rx="2" width="48" x="1" y="1" /><text font-family="AudiTypeDisplayHigh-Bold, Audi Type Display High" font-size="22px" font-weight="700" transform="translate(2.03074 32.97349)">{value}</text><g id="Montana"><path d="M15.24438,11.65923V8.86161l-.92262,2.79762L13.3917,8.86161v2.79762h-.71429V6.67411h.71429l.93006,2.79762.92262-2.79762h.72173v4.98512h-.72173" id="path3766" /><path d="M19.88642,9.15923a6.04335,6.04335,0,0,1-.067.9747,2.97089,2.97089,0,0,1-.21577.75893,1.50929,1.50929,0,0,1-.46875.65476,1.15606,1.15606,0,0,1-.69941.20089,1.23021,1.23021,0,0,1-.72917-.20089,1.54105,1.54105,0,0,1-.46131-.65476,3.3387,3.3387,0,0,1-.22321-.75893,6.78571,6.78571,0,0,1-.05952-.9747,6.72309,6.72309,0,0,1,.05952-.96726,3.18854,3.18854,0,0,1,.22321-.76637,1.47307,1.47307,0,0,1,.46875-.63988,1.21671,1.21671,0,0,1,.72173-.2009,1.16926,1.16926,0,0,1,.70685.2009,1.42509,1.42509,0,0,1,.46131.65476,3.65629,3.65629,0,0,1,.12648.372,2.41209,2.41209,0,0,1,.08929.39435,3.6785,3.6785,0,0,1,.05208.439q.01488.23065.01488.51339m-.68452,0q0-.20834-.01488-.37947a2.79343,2.79343,0,0,0-.02976-.3125,2.41044,2.41044,0,0,0-.04465-.28273q-.02976-.13393-.067-.26786a1.12348,1.12348,0,0,0-.24554-.48363.48042.48042,0,0,0-.36458-.14882q-.46131,0-.63244.61757a3.2874,3.2874,0,0,0-.12649.57291,6.85915,6.85915,0,0,0-.02976.69941q0,.20089.00744.372.01488.1637.02976.3125.02232.14138.05209.28274t.067.29018q.17113.61755.63244.61756a.48038.48038,0,0,0,.36458-.14881,1.11527,1.11527,0,0,0,.24554-.46875q.04464-.14881.07441-.28274a2.7251,2.7251,0,0,0,.04464-.29018,3.03736,3.03736,0,0,0,.02976-.3125q.00744-.17112.00744-.38691" id="path3768" /><path d="M23.14256,11.65923,21.60238,8.31846v3.34077H20.8881V6.67411h.71428l1.36905,2.99107V6.67411h.71429v4.98512h-.54316" id="path3770" /><path d="M26.01075,7.33631v4.32292H25.289V7.33631h-.90774v-.6622h2.53721v.6622h-.90774" id="path3772" /><path d="M29.6853,11.65923l-.34971-1.36161H28.26416l-.32738,1.36161h-.72172l1.24256-4.98512h.6994l1.24256,4.98512h-.71429m-.89285-3.497-.34971,1.436H29.157l-.36458-1.436" id="path3774" /><path d="M33.34415,11.65923,31.804,8.31846v3.34077h-.71428V6.67411H31.804L33.173,9.66518V6.67411h.71429v4.98512h-.54316" id="path3776" /><path d="M37.05311,11.65923l-.3497-1.36161H35.632l-.32738,1.36161h-.72173l1.24256-4.98512h.69941l1.24256,4.98512h-.71429m-.89286-3.497-.3497,1.436h.71429l-.36459-1.436" id="path3778" /></g></svg>