<svg xmlns="http://www.w3.org/2000/svg" id="Icon" viewBox="0 0 40 40"><defs /><g id="g1891"><rect height="40" rx="2" width="40" /><path d="M39.1667,20a19.16668,19.16668,0,0,1-38.33336.01494V20a19.16668,19.16668,0,0,1,38.33336-.01495Z" fill="#fff" id="path2140" /><path d="M20,5.625A14.375,14.375,0,1,0,34.375,20,14.38024,14.38024,0,0,0,20,5.625Zm0,1.04167A13.33333,13.33333,0,1,1,6.66667,20,13.33819,13.33819,0,0,1,20,6.66667Z" fill="red" id="path2144" /><rect fill="red" height="1.04167" id="rect2151" width="3.54167" x="2.83333" y="22.91667" /><rect fill="red" height="1.04167" id="rect2153" width="4.16667" x="1.66667" y="20.625" /><rect fill="red" height="1.04167" id="rect2155" width="4.16667" x="1.66667" y="18.33333" /><rect fill="red" height="1.04167" id="rect2157" width="3.54167" x="2.83333" y="16.04167" /><rect fill="red" height="1.04167" id="rect1919" width="3.54167" x="33.625" y="16.04167" /><rect fill="red" height="1.04167" id="rect1921" width="4.16667" x="34.16667" y="18.33333" /><rect fill="red" height="1.04167" id="rect1923" width="4.16667" x="34.16667" y="20.625" /><rect fill="red" height="1.04167" id="rect1925" width="3.54167" x="33.625" y="22.91667" /><rect fill="red" height="3.54167" id="rect1931" width="1.04167" x="16.04167" y="2.83333" /><rect fill="red" height="4.16667" id="rect1933" width="1.04167" x="18.33333" y="1.66667" /><rect fill="red" height="4.16667" id="rect1935" width="1.04167" x="20.625" y="1.66667" /><rect fill="red" height="3.54167" id="rect1937" width="1.04167" x="22.91667" y="2.83333" /><rect fill="red" height="3.54167" id="rect1943" width="1.04167" x="22.91667" y="33.625" /><rect fill="red" height="4.16667" id="rect1945" width="1.04167" x="20.625" y="34.16667" /><rect fill="red" height="4.16667" id="rect1947" width="1.04167" x="18.33333" y="34.16667" /><rect fill="red" height="3.54167" id="rect1949" width="1.04167" x="16.04167" y="33.625" /></g><text font-family="AudiTypeDisplayHigh-Bold, Audi Type Display High" font-size="18px" font-weight="700" id="Nummer" transform="translate(7.4713 26.51563)">{value}</text></svg>