<svg xmlns="http://www.w3.org/2000/svg" viewBox="0 0 64 35">
<g id="ri_rectangle_yellow_black_yellow_3dig">
<path d="M0,3.77076A3.79858,3.79858,0,0,1,1.08193,1.1041,3.65089,3.65089,0,0,1,3.69559,0H60.34412a3.61013,3.61013,0,0,1,2.58535,1.09239A3.75961,3.75961,0,0,1,64,3.73014V31.27946a3.74878,3.74878,0,0,1-1.06843,2.63135A3.59534,3.59534,0,0,1,60.35352,35H3.66879a3.61812,3.61812,0,0,1-2.594-1.09659A3.77181,3.77181,0,0,1,0,31.256Z" fill="#fee600" fill-rule="evenodd" id="Schild" />
<path d="M60.34424,2a1.61328,1.61328,0,0,1,1.15674.49177A1.75829,1.75829,0,0,1,62,3.73V31.2793a1.74927,1.74927,0,0,1-.49658,1.2324A1.60154,1.60154,0,0,1,60.35352,33H3.669a1.62387,1.62387,0,0,1-1.1648-.49491A1.77473,1.77473,0,0,1,2,31.25586V3.771a1.79472,1.79472,0,0,1,.5105-1.26679A1.65092,1.65092,0,0,1,3.6958,2H60.34424m0-1H3.6958a2.64339,2.64339,0,0,0-1.89941.8042A2.789,2.789,0,0,0,1,3.771V31.25586a2.76873,2.76873,0,0,0,.78906,1.94824A2.61717,2.61717,0,0,0,3.669,34H60.35352a2.59356,2.59356,0,0,0,1.86377-.78809A2.74443,2.74443,0,0,0,63,31.2793V3.73a2.75354,2.75354,0,0,0-.78418-1.9375A2.60707,2.60707,0,0,0,60.34424,1Z" />
<g id="Text">
<text font-family="AudiTypeDisplayHigh-Normal, Audi Type Display High" font-size="22" text-anchor="middle" transform="translate(32 25.22952)">{value}</text>
</g>
</g>
</svg>