<svg xmlns="http://www.w3.org/2000/svg" data-name="Layer 1" id="Layer_1" viewBox="0 0 40 40"><defs /><rect height="40" rx="2" width="40" /><path d="M4.1194,39l-.46511-.05809-.31813-.09427-.28288-.22383-.27109-.27109-.20039-.25925-.20023-.37721L2.20478,37.292l-.09427-.47149-.01182-.50677.05889-.3888.12969-.436.10612-.34193.97184-2.22452.95456-1.815L4.473,30.8248l.12969-.25931.08249-.37714.0943-.436.01182-.22408v-.28269l-.01182-.224.01182-.18867-.01182-.25924.04707-.2711.01182-.271.08248-.2239.165-.25924.18857-.29466.10609-.25925.21221-.3418.165-.38893.11774-.34179.0707-.24747.03542-.212.27106-2.26289-3.50016.01185-.21224-.11771-.17676-.10612-.12956-.05911-.12968-.14128-.09434-.17682L1.91556,22.363l-.02363-.271.54215-3.22914,1.08431-.70713-.88388-.7778.03541-.25944L2.68154,16.93l.12972-.165.07067-.224L2.941,16.27l.11774-.20039.11791-.32994v-.15316l-.53034-.12972-.66-.03526-.377-.0943-.36536-.10612-.15335-.01178-.047-.08249-.04727-.10612v-.11774l.01182-.165.059-.15332v-.42422l.12955-.3654.2711-.45964.1179-.25927.21205-.436.12968-.29453.25928-.50674.20023-.54212.27126-.54219.0941-.83681L1.60905,9.72926l-.212-.554-.09428-.40078-.10612-.44785L1.173,8.03213l.165-.389V7.59609L1.173,7.3014,1.05527,7.101l-.059-.20023L.89014,6.65312V6.47637L.87852,6.1346.86667,5.93437V5.781l.04707-.28271.1179-.16514.03529-.09414.15332-.07083L1.3498,5.0623,1.503,4.744l.17679-.23565.23581-.25924.212-.23584.35355-.23565.224-.20039L3.094,3.55378l.30648-.08249.51855-.1179.31813-.10612.34177-.05886.436-.14153.07087-.08249.25924.07083.2711.08249.30631.05885.23565.02364.64824-.02364.47148-.12968L7.57236,2.941l.28288-.14154.36537-.25927.28287-.212.766.18842.22386.01178L9.741,2.51654l.29453-.01166.27106-.07083.23581-.03529.18844-.07064.14151-.14153.24746-.212.27109-.1886.48311-.0236.20039-.0236.23564.01178.18861.01182.34173-.14138.15332-.10608.22386-.09431L13.465,1.2084l.25925-.106L13.97188,1H37a2,2,0,0,1,2,2V37a2,2,0,0,1-2,2Z" fill="#fff" fill-rule="evenodd" id="Form" transform="translate(0 0.00017)" /><text font-family="AudiTypeDisplayHigh-Bold, Audi Type Display High" font-size="22px" font-weight="700" transform="translate(7.57606 28.84319)">{value}</text></svg>