<svg xmlns="http://www.w3.org/2000/svg" viewBox="0 0 64 35">
<g id="ri_rectangle_green_white_3dig">
<g id="Schild">
<path d="M3.669,34.25a2.86125,2.86125,0,0,1-2.05787-.87109A3.01553,3.01553,0,0,1,.75,31.25586V3.771a3.04108,3.04108,0,0,1,.86768-2.14209A2.89447,2.89447,0,0,1,3.69556.75H60.34424a2.8533,2.8533,0,0,1,2.0498.86768,3.00054,3.00054,0,0,1,.856,2.11279V31.2793a2.99563,2.99563,0,0,1-.85425,2.10742,2.83953,2.83953,0,0,1-2.04223.86328Z" fill="#409d27" fill-rule="evenodd" />
<path d="M60.34424,1.5a2.109,2.109,0,0,1,1.51343.64176A2.25518,2.25518,0,0,1,62.5,3.73024v27.5492a2.24526,2.24526,0,0,1-.64014,1.582,2.0952,2.0952,0,0,1-1.50634.6386H3.669a2.11986,2.11986,0,0,1-1.523-.64633A2.2684,2.2684,0,0,1,1.5,31.25588V3.77084a2.29255,2.29255,0,0,1,.65283-1.61616A2.14836,2.14836,0,0,1,3.6958,1.5H60.34424m0-1.5H3.6958A3.65089,3.65089,0,0,0,1.082,1.10419,3.79747,3.79747,0,0,0,0,3.77084v27.485a3.77283,3.77283,0,0,0,1.07471,2.64749A3.61954,3.61954,0,0,0,3.669,35H60.35352a3.59529,3.59529,0,0,0,2.57812-1.08923A3.749,3.749,0,0,0,64,31.27944V3.73024a3.76,3.76,0,0,0-1.07056-2.63783A3.60994,3.60994,0,0,0,60.34424,0Z" fill="#fff" />
</g>
<text fill="#fff" font-family="AudiTypeDisplayHigh-Normal, Audi Type Display High" font-size="22" id="Text" text-anchor="middle" transform="translate(32 25.22952)">{value}</text>
</g>
</svg>