<svg xmlns="http://www.w3.org/2000/svg" viewBox="0 0 33 35"><g id="ri_india_state_2dig"><g id="Schild"><path d="M14.79891,32.97754H7.16038c-2.85569,0-7.07013-3.23254-7.07013-6.13638V20.25257A23.38663,23.38663,0,0,0,1.24069,13.6912,29.05676,29.05676,0,0,0,.09025,7.17013V6.47034L5.676,1.36664c.45954.62651,1.6037,1.59219,4.28562,1.59219A10.85537,10.85537,0,0,0,16.50835.3214a10.57605,10.57605,0,0,0,6.53,2.63743c2.70913,0,3.84386-.94422,4.29713-1.56864l5.57424,5.08015v.68775a21.95619,21.95619,0,0,0-1.16614,6.53311,18.27362,18.27362,0,0,0,1.16614,6.576v6.57393c0,2.90384-4.21444,6.13638-7.07012,6.13638H18.201L16.5,34.67859Z" fill="#fff" fill-rule="evenodd" /><path d="M.741,8.21116A9.39218,9.39218,0,0,0,.421,7.11543V6.56685L5.64827,1.81253a5.74947,5.74947,0,0,0,4.32555,1.4944c3.22311,0,6.53453-2.53906,6.53453-2.53906l.05129.04134A10.19754,10.19754,0,0,0,23.064,3.2691c2.44952,0,3.72375-.73662,4.35707-1.38721L32.642,6.63621l-.08827.4603a7.71725,7.71725,0,0,0-.34744,1.11465Z" fill="#30bf30" fill-rule="evenodd" /><path d="M16.49927,1.903a11.50872,11.50872,0,0,0,6.575,2.28372,7.751,7.751,0,0,0,4.312-1.06442l4.0647,3.75291a23.95918,23.95918,0,0,0-1.12354,6.74468A20.905,20.905,0,0,0,31.5,20.59627v6.41965c0,2.05083-3.52808,4.7512-5.60913,4.7512H17.5835l-.44068.44626L16.5,32.86472l-.64282-.65134-.44068-.44626H7.10889c-2.08081,0-5.60889-2.70037-5.60889-4.7512V20.53776a25.25322,25.25322,0,0,0,1.15674-6.91784A29.73845,29.73845,0,0,0,1.533,6.889L5.63062,3.09564A7.68037,7.68037,0,0,0,9.92554,4.18675,11.68918,11.68918,0,0,0,16.49927,1.903M16.5083,0A10.84434,10.84434,0,0,1,9.92554,2.68675c-2.69654,0-3.84693-.98371-4.30908-1.622L0,6.264v.71291a29.94742,29.94742,0,0,1,1.15674,6.64305A24.10465,24.10465,0,0,1,0,20.30408v6.71184c0,2.95816,4.23755,6.2512,7.10889,6.2512h7.68066L16.5,35l1.71045-1.73288h7.68042c2.87158,0,7.10913-3.293,7.10913-6.2512V20.319a18.82727,18.82727,0,0,1-1.17261-6.69908A22.62867,22.62867,0,0,1,33,6.96458V6.264L27.395,1.08879c-.45581.63608-1.59668,1.598-4.3208,1.598A10.56787,10.56787,0,0,1,16.5083,0Z" /><path d="M10.90215,14.4371a2.04631,2.04631,0,0,0,.354.13132,4.29968,4.29968,0,0,0,.46233.10032q.25483.04188.54891.06556t.612.02373a5.70354,5.70354,0,0,0,.83173-.0553,3.92548,3.92548,0,0,0,.70152-.15962,2.20418,2.20418,0,0,0,.50669-.25115,1.53121,1.53121,0,0,0,.355-.33,1.275,1.275,0,0,0,.20734-.39807,1.50885,1.50885,0,0,0,.06716-.45243,1.58581,1.58581,0,0,0-.05473-.42889,1.20327,1.20327,0,0,0-.16411-.35548,1.29545,1.29545,0,0,0-.27338-.28916,2.06019,2.06019,0,0,0-.37873-.2322,3.19561,3.19561,0,0,0-.483-.18222c-.17886-.05258-.41087-.09882-.6241-.1387q-.2519-.0472-.44991-.0934a3.45363,3.45363,0,0,1-.34679-.098,1.67864,1.67864,0,0,1-.25283-.10872.73676.73676,0,0,1-.1713-.12516A.40415.40415,0,0,1,12.254,10.91a.53871.53871,0,0,1-.029-.18139.5883.5883,0,0,1,.07229-.29206.60024.60024,0,0,1,.21977-.21883,1.18243,1.18243,0,0,1,.36846-.13655,2.50961,2.50961,0,0,1,.518-.04708q.24769,0,.49838.0227c.16719.01513.36482.036.521.06258s.30364.058.44271.09424a3.719,3.719,0,0,1,.37145.11609V9.45918a1.9497,1.9497,0,0,0-.33745-.134,3.55943,3.55943,0,0,0-.42618-.09938c-.15411-.02671-.35445-.04744-.52921-.062s-.35491-.02186-.54069-.02186a5.65628,5.65628,0,0,0-.82042.05352,3.31673,3.31673,0,0,0-.63671.15224A1.8239,1.8239,0,0,0,11.48,9.588a1.3431,1.3431,0,0,0-.31364.31821,1.21659,1.21659,0,0,0-.17653.38724,1.768,1.768,0,0,0-.05463.44607,1.487,1.487,0,0,0,.05781.42619,1.201,1.201,0,0,0,.1713.35445,1.35671,1.35671,0,0,0,.27963.28926,2.08738,2.08738,0,0,0,.38285.23209,3.26983,3.26983,0,0,0,.47979.18139q.26325.078.57068.13963.25176.0489.44785.09788a3.43445,3.43445,0,0,1,.34464.1034,1.66229,1.66229,0,0,1,.25181.11338.93346.93346,0,0,1,.20314.12964.46681.46681,0,0,1,.09387.15234.51667.51667,0,0,1,.03.17951.555.555,0,0,1-.08882.31112.82209.82209,0,0,1-.30112.228,1.55557,1.55557,0,0,1-.44477.1401,3.62127,3.62127,0,0,1-.62942.048q-.26212,0-.52939-.02269t-.51492-.06352q-.2477-.04077-.46335-.0961a2.85725,2.85725,0,0,1-.37463-.12058Z" /><path d="M21.17,14.7485v-5.604h-1.1675l-.02307,2.31126H17.67391l-.00644-2.31126H16.5v5.604h1.1675l.00644-2.42951h2.30548l.02307,2.42951Z" /></g><text font-family="AudiTypeDisplayHigh-Bold, Audi Type Display High" font-size="17.71835" font-weight="700" id="Text" transform="translate(4.16687 29.91372)">{value}</text></g></svg>