<svg xmlns="http://www.w3.org/2000/svg" viewBox="0 0 57 37"><g id="ri_brazil_federal_3dig"><g id="Schild"><path d="M26.225,34.08886H9.913c-3.94629,0-9.41308-1.92188-9.41308-5.5293V2.43993A1.96173,1.96173,0,0,1,2.47839.5H54.52185a1.96131,1.96131,0,0,1,1.978,1.93994V28.55956c0,3.60742-5.4668,5.5293-9.41309,5.5293H30.77527l-2.27539,2.21386Z" fill="#fff" fill-rule="evenodd" /><path d="M54.52173,1A1.46116,1.46116,0,0,1,56,2.43991V28.55934c0,3.23817-5.27014,5.029-8.913,5.029H30.57214l-.29113.2833-1.781,1.733-1.78088-1.733-.29114-.28332H9.91309C6.27014,33.58839,1,31.79751,1,28.55934V2.43991A1.46119,1.46119,0,0,1,2.47839,1H54.52173m0-1H2.47839A2.45949,2.45949,0,0,0,0,2.43991V28.55934c0,3.99573,5.807,6.029,9.91309,6.029H26.02173L28.5,37l2.47839-2.41161H47.087c4.10608,0,9.913-2.03332,9.913-6.029V2.43991A2.45939,2.45939,0,0,0,54.52173,0Z" /><path d="M56,10.77161H1.00009" fill="none" fill-rule="evenodd" stroke="#000" stroke-miterlimit="10" /><path d="M23.91686,8.84788V2.74372h2.36767a1.82955,1.82955,0,0,1,1.35.4586,1.59367,1.59367,0,0,1,.4593,1.17965,1.527,1.527,0,0,1-.18428.72454,1.42676,1.42676,0,0,1-.71616.587v.01675a1.13249,1.13249,0,0,1,.74967.5298,1.67973,1.67973,0,0,1,.24709.8774,1.63518,1.63518,0,0,1-.50536,1.26132,1.69056,1.69056,0,0,1-1.19081.46907ZM26.184,3.56529H24.84243V5.31591H26.184a.97822.97822,0,0,0,.74129-.25547.90427.90427,0,0,0,0-1.23339A.96443.96443,0,0,0,26.184,3.56529Zm.08376,2.57219H24.84243V7.97675h1.42535a.89774.89774,0,0,0,.99677-.91789.95685.95685,0,0,0-.24152-.64078A.942.942,0,0,0,26.26778,6.13748Z" /><path d="M29.14919,8.84788V2.74372H31.5378a1.8094,1.8094,0,0,1,1.23968.40206,1.96116,1.96116,0,0,1,.43416.55772,1.56336,1.56336,0,0,1,.1773.74548,1.78755,1.78755,0,0,1-.3155,1.04563,1.69939,1.69939,0,0,1-.86973.64287l1.41557,2.7104H32.522l-1.26061-2.6057H30.07476v2.6057Zm.92557-5.28259V5.41643H31.475a.99422.99422,0,0,0,.779-.289.98254.98254,0,0,0,.25966-.67847.81034.81034,0,0,0-.30992-.69523,1.12074,1.12074,0,0,0-.67429-.18846Z" /></g><text font-family="AudiTypeDisplayHigh-Bold, Audi Type Display High" font-size="18" font-weight="700" id="Text" transform="translate(9.72152 27.33724)">{value}</text></g></svg>