<svg xmlns="http://www.w3.org/2000/svg" id="Icon" viewBox="0 0 40 40"><defs /><polygon fill="#fff" points="0.672 39.5 12.372 0.5 27.628 0.5 39.328 39.5 0.672 39.5" /><path d="M27.256,1l11.4,38H1.344l11.4-38H27.256M28,0H12L0,40H40L28,0Z" /><path d="M17.62012,6.71094v6.30859H16.7207V6.71094H15.37109V5.94043H18.9707v.77051Z" /><path d="M24.16016,9.4707a6.403,6.403,0,0,1-.166,1.51465,3.82481,3.82481,0,0,1-.47852,1.17481,2.37559,2.37559,0,0,1-.76171.75976,1.91388,1.91388,0,0,1-1.01368.26953,1.93955,1.93955,0,0,1-1.01953-.26953,2.34828,2.34828,0,0,1-.76562-.75976,3.85076,3.85076,0,0,1-.48047-1.17481,6.51031,6.51031,0,0,1-.16406-1.51465,6.68416,6.68416,0,0,1,.16015-1.51562,3.7356,3.7356,0,0,1,.46875-1.16992,2.24991,2.24991,0,0,1,.76563-.749,2.0167,2.0167,0,0,1,1.03515-.26562,1.9386,1.9386,0,0,1,1.01368.26562,2.329,2.329,0,0,1,.76171.749,3.76477,3.76477,0,0,1,.47852,1.16992A6.40561,6.40561,0,0,1,24.16016,9.4707Zm-.95118,0a6.47555,6.47555,0,0,0-.09375-1.12988A3.62007,3.62007,0,0,0,22.834,7.4209a1.72345,1.72345,0,0,0-.459-.61524.9707.9707,0,0,0-.63477-.22461,1.00875,1.00875,0,0,0-.65039.22461,1.71235,1.71235,0,0,0-.46484.61524,3.54774,3.54774,0,0,0-.27539.91992,7.14383,7.14383,0,0,0,0,2.25879,3.54786,3.54786,0,0,0,.27539.91992,1.71235,1.71235,0,0,0,.46484.61524,1.00875,1.00875,0,0,0,.65039.22461.9707.9707,0,0,0,.63477-.22461,1.72345,1.72345,0,0,0,.459-.61524,3.62019,3.62019,0,0,0,.28125-.91992A6.47228,6.47228,0,0,0,23.209,9.4707Z" /><text font-family="AudiTypeDisplayHigh-Bold, Audi Type Display High" font-size="14px" font-weight="700" isolation="isolate" transform="translate(5.38313 33.04315)">{value}</text></svg>