<svg xmlns="http://www.w3.org/2000/svg" viewBox="0 0 41 32"><g id="ri_mashreq_2dig"><g id="Schild"><path d="M19.66577,31.24956c-1.63916,0-6.60107-1.86328-10.5415-4.2666A12.51217,12.51217,0,0,1,4.32349,21.064c-.00928-.63477-.04737-3.62256.002-7.17725A8.28368,8.28368,0,0,0,.946,7.36382L4.0603.75639,20.5022.75005,36.76294.75639l3.27832,6.61133a8.25222,8.25222,0,0,0-3.42285,6.519c.04931,3.55372.04053,6.54151.0376,7.18311A12.39186,12.39186,0,0,1,31.87964,26.983c-3.94043,2.40332-8.939,4.2666-10.60938,4.2666Z" fill="#fff" /><path d="M20.50171,1.5l15.79614.00623,2.80737,5.6611a8.82268,8.82268,0,0,0-3.23657,6.72984c.04614,3.33938.04126,6.17782.03833,7.03228A11.61152,11.61152,0,0,1,31.4895,26.343C27.81763,28.58177,22.80127,30.5,21.27026,30.5H19.666c-1.51026,0-6.37525-1.85429-10.15162-4.157a11.72919,11.72919,0,0,1-4.44287-5.424c-.01147-.845-.04248-3.68243.00367-7.02177a8.868,8.868,0,0,0-3.20337-6.738l2.6643-5.653L20.50171,1.5m0-1.5L3.58472.0066,0,7.61218s3.63184,2.21312,3.57544,6.2642c-.05615,4.05107,0,7.32419,0,7.32419a13.18845,13.18845,0,0,0,5.158,6.42312C12.52783,29.9374,17.71313,32,19.666,32h1.60424c1.95288,0,7.20533-2.0626,11-4.37631a13.06837,13.06837,0,0,0,5.1355-6.42312s.0188-3.27312-.03735-7.32419C37.312,9.8253,41,7.61218,41,7.61218L37.22852.0066,20.50171,0Z" /><path d="M23.49753,27.008V22.01928H22.37717l-1.42949,2.14789q-.11056.16821-.222.35406t-.207.37592q-.09742-.19175-.207-.3734t-.22014-.34985l-1.43323-2.15462H17.5023V27.008h1.0248v-2.703q0-.23376-.00936-.46927t-.02249-.48273q.06929.1329.134.24978t.13208.23211q.06746.11523.13864.22875t.14426.22118L20.144,25.92484h.70443l1.09976-1.63657q.14613-.21862.28477-.45581t.26979-.48609q-.015.24724-.02436.492t-.00937.47347V27.008Z" fill="#4b70eb" /></g><text fill="#4b70eb" font-family="AudiTypeDisplayHigh-Bold, Audi Type Display High" font-size="19" font-weight="700" id="Text" transform="translate(7.27514 18.37982)">{value}</text></g></svg>