<svg xmlns="http://www.w3.org/2000/svg" viewBox="0 0 30 30"><g id="ri_qatar_1dig"><g id="Schild"><rect fill="#f1c61b" height="28.49951" rx="1.85547" width="28.5" x="0.75" y="0.75011" /><path d="M27.39453,1.5A1.10414,1.10414,0,0,1,28.5,2.60038V27.39962A1.10414,1.10414,0,0,1,27.39453,28.5H2.60547A1.10414,1.10414,0,0,1,1.5,27.39962V2.60038A1.10414,1.10414,0,0,1,2.60547,1.5H27.39453m0-1.5H2.60547A2.60294,2.60294,0,0,0,0,2.60038V27.39962A2.60294,2.60294,0,0,0,2.60547,30H27.39453A2.60294,2.60294,0,0,0,30,27.39962V2.60038A2.60294,2.60294,0,0,0,27.39453,0Z" fill="#50a556" /></g><text fill="#50a556" font-family="AudiTypeDisplayHigh-Normal, Audi Type Display High" font-size="23" transform="translate(7.25769 23.04609)">{value}</text></g></svg>