<svg xmlns="http://www.w3.org/2000/svg" data-name="Ebene 1" id="Ebene_1" viewBox="0 0 40 40"><defs /><rect height="40" rx="2" width="40" /><path d="M20.0038,2.59273c1.28509,0,2.79453.27313,4.87039,2.28106a44.73073,44.73073,0,0,1,7.64943,9.23147c3.20326,5.22751,4.78026,9.7811,4.995,11.33665a10.24954,10.24954,0,0,1-1.42971,6.61762,9.97334,9.97334,0,0,1-6.58623,4.3939A54.82992,54.82992,0,0,1,20,37.40727a54.82992,54.82992,0,0,1-9.50266-.95384,9.97334,9.97334,0,0,1-6.58623-4.3939A10.24954,10.24954,0,0,1,2.4814,25.44191c.21472-1.55555,1.79172-6.10914,4.995-11.33665a44.58839,44.58839,0,0,1,7.64943-9.23147c2.07586-2.00793,3.5853-2.28106,4.87039-2.28106" fill="#fff" /><text font-family="AudiTypeDisplayHigh-Bold, Audi Type Display High" font-size="15px" font-weight="700" transform="translate(4.33919 33.33301)">{value}</text></svg>