<svg xmlns="http://www.w3.org/2000/svg" id="svg3978" viewBox="0 0 50 40"><defs /><g id="g2824"><rect height="40" rx="2" width="50" /><path d="M6.05584,34.65516a10.1446,10.1446,0,0,1-.41051-6.32147A11.35208,11.35208,0,0,1,5.441,21.2602c.319-.44788-.86487-1.97349-.941-2.5384C4.22093,16.64989,2.83465,4.52434,2.5,3.4161c10.92772-.07451,29.503-.05892,29.503-.05892s-.21772,1.45046-.28816,1.714c-.51883,1.94117.759,1.89936,1.19494,1.9165a4.42032,4.42032,0,0,1,1.383.13877c.74821.19964.60581.55852,2.32739,2.2624,1.60481,1.81008,2.62471,1.88058,4.25247,3.39243,2.78358,1.861,7.22745,4.88043,6.55988,6.71247-1.89077,3.92344-3.06723,6.53372-3.65351,10.48206-.32506,2.5141-1.88116,5.22617-3.61259,5.19771-1.33721-.02379-.808.27952-1.31251.83544a1.85406,1.85406,0,0,1-1.42347.63513,1.78064,1.78064,0,0,1-1.56764-.56365c-.61914-.74861.18682-1.00316-1.61371-.95047-1.63514.04786-27.735.15385-27.735.15385" fill="#fff" fill-rule="evenodd" id="path1356" /></g><text font-family="AudiTypeDisplayHigh-Bold, Audi Type Display High" font-size="18px" font-weight="700" transform="translate(6.20679 28.38951)">{value}</text></svg>