<svg xmlns="http://www.w3.org/2000/svg" viewBox="0 0 42 35"><g id="ri_india_state_3dig"><g id="Schild"><path d="M19.30016,33.00486H6.99962c-2.85363,0-7.064-3.23021-7.064-6.132V20.289a23.36988,23.36988,0,0,0,1.14962-6.55666A29.03535,29.03535,0,0,0-.06438,7.216V6.5167L5.68369,1.265a16.72846,16.72846,0,0,0,6.9165,1.74272c3.30971,0,7.44058-2.17579,8.40922-2.71241.95714.53924,5.02211,2.71241,8.3904,2.71241a16.58858,16.58858,0,0,0,6.92383-1.72285L42.06438,6.5167V7.204a21.94016,21.94016,0,0,0-1.16531,6.52842,18.26021,18.26021,0,0,0,1.16531,6.5713V26.8729c0,2.90175-4.21037,6.132-7.064,6.132H22.69984L21,34.7047Z" fill="#fff" fill-rule="evenodd" /><path d="M41.33647,8.20622c.14017-.50262.26256-.88793.32689-1.07779V6.68189L36.25318,1.71358a17.42712,17.42712,0,0,1-6.75952,1.30479A17.44442,17.44442,0,0,1,21.01009.68607,18.06654,18.06654,0,0,1,12.54415,3.1835a17.14846,17.14846,0,0,1-6.79075-1.49L.33693,6.68136V7.1511c.051.18.15508.55731.28008,1.05512Z" fill="#30bf30" /><path d="M21.00391,1.70961C22.73438,2.62733,26.25122,4.259,29.374,4.259a17.175,17.175,0,0,0,6.62207-1.46528L40.4519,6.937a24.03375,24.03375,0,0,0-1.11352,6.73073A20.99105,20.99105,0,0,0,40.5,20.62717v6.40662c0,2.04479-3.48633,4.73721-5.54248,4.73721H22.06445l-.44116.45L21,32.857l-.62329-.636-.44116-.45H7.04248C4.98633,31.771,1.5,29.07858,1.5,27.03379V20.56917a25.33306,25.33306,0,0,0,1.146-6.90146,29.89234,29.89234,0,0,0-1.114-6.717L6.0127,2.774A17.1846,17.1846,0,0,0,12.626,4.259c3.07495,0,6.62915-1.63413,8.37793-2.54935M21.00928,0c-.96558.54583-5.08374,2.759-8.3833,2.759A16.42106,16.42106,0,0,1,5.73047.98633L0,6.32817v.71129a30.07769,30.07769,0,0,1,1.146,6.62825A24.20018,24.20018,0,0,1,0,20.33692v6.69687C0,29.98533,4.19751,33.271,7.04248,33.271H19.30542L21,35l1.69458-1.729H34.95752C37.80249,33.271,42,29.98533,42,27.03379v-6.682a18.90524,18.90524,0,0,1-1.16162-6.68408A22.716,22.716,0,0,1,42,7.02725V6.32817L36.27686,1.00654A16.28239,16.28239,0,0,1,29.374,2.759C26.01611,2.759,21.96362.5485,21.00928,0Z" /><path d="M15.40612,14.42836a2.04554,2.04554,0,0,0,.35373.13123,4.29953,4.29953,0,0,0,.462.10024q.25465.04185.54851.06552t.61152.0237a5.7,5.7,0,0,0,.83113-.05525,3.92348,3.92348,0,0,0,.701-.15951,2.20287,2.20287,0,0,0,.50633-.251,1.53016,1.53016,0,0,0,.35475-.32974,1.274,1.274,0,0,0,.2072-.39779,1.50766,1.50766,0,0,0,.06711-.4521,1.58436,1.58436,0,0,0-.05469-.42858,1.20245,1.20245,0,0,0-.164-.35523,1.29494,1.29494,0,0,0-.27318-.289,2.05907,2.05907,0,0,0-.37847-.232,3.1918,3.1918,0,0,0-.48262-.18209c-.17873-.05255-.41057-.09875-.62365-.1386q-.25171-.04719-.44958-.09333a3.45022,3.45022,0,0,1-.34655-.09791,1.67612,1.67612,0,0,1-.25265-.10864.73587.73587,0,0,1-.17117-.12507.40377.40377,0,0,1-.09585-.14951.53823.53823,0,0,1-.02894-.18126.58792.58792,0,0,1,.07224-.29185.59985.59985,0,0,1,.21961-.21868,1.18165,1.18165,0,0,1,.3682-.13645,2.50771,2.50771,0,0,1,.51762-.047q.24753,0,.498.02268c.16706.01512.36455.03593.52061.06253s.30342.058.44239.09418a3.71364,3.71364,0,0,1,.37119.116V9.454a1.95081,1.95081,0,0,0-.33721-.13393,3.55533,3.55533,0,0,0-.42588-.09931c-.154-.02669-.3542-.04741-.52882-.062s-.35467-.02184-.54031-.02184a5.65146,5.65146,0,0,0-.81983.05348,3.3149,3.3149,0,0,0-.63625.15213,1.82293,1.82293,0,0,0-.4661.24014,1.34213,1.34213,0,0,0-.31341.318,1.21559,1.21559,0,0,0-.1764.387,1.76642,1.76642,0,0,0-.0546.44575,1.48562,1.48562,0,0,0,.05777.42588,1.2,1.2,0,0,0,.17117.3542,1.35554,1.35554,0,0,0,.27944.28905,2.08648,2.08648,0,0,0,.38257.23193,3.26721,3.26721,0,0,0,.47945.18125q.26305.078.57026.13954.25158.04885.44753.09781a3.42876,3.42876,0,0,1,.3444.10332,1.66179,1.66179,0,0,1,.25163.1133.93328.93328,0,0,1,.203.12955.46633.46633,0,0,1,.09379.15222.51625.51625,0,0,1,.03.17939.55453.55453,0,0,1-.08875.31089.82152.82152,0,0,1-.30091.22783,1.55448,1.55448,0,0,1-.44445.14,3.61932,3.61932,0,0,1-.629.048q-.26193,0-.529-.02268t-.51454-.06347q-.24752-.04074-.463-.096a2.85413,2.85413,0,0,1-.37436-.12049Z" /><path d="M25.66655,14.73953v-5.6H24.49989l-.02305,2.30961H22.173l-.00644-2.30961H20.99992v5.6h1.16666l.00644-2.42777h2.30382l.02305,2.42777Z" /></g><text font-family="AudiTypeDisplayHigh-Bold, Audi Type Display High" font-size="17.41787" font-weight="700" id="Text" transform="translate(2.82825 29.68942)">{value}</text></g></svg>