<svg xmlns="http://www.w3.org/2000/svg" id="Icon" viewBox="0 0 50 40"><defs /><rect fill="#020202" height="40" id="Rahmen" rx="2" width="50" /><path d="M5.14925,39l-.58138-.05809-.39767-.09427-.35359-.22383-.33887-.27109-.25049-.25925L2.977,37.71626,2.756,37.292l-.11784-.47149-.01477-.50677L2.697,35.925l.16211-.436.13265-.34193,1.2148-2.22452,1.1932-1.815.19149-.28275.16211-.25931.10311-.37714.11787-.436.01478-.22408v-.28269l-.01478-.224.01478-.18867-.01478-.25924.05884-.2711.01477-.271.10311-.2239.20622-.25924.23572-.29466.13261-.25925.26525-.3418.20622-.38893.14718-.34179.08838-.24747.04427-.212.33882-2.26289-4.3752.01185-.2653-.11771-.22095-.10612-.16194-.05911-.16211-.14128-.11792-.17682L2.39445,22.363l-.02954-.271.67769-3.22914L4.398,18.15566l-1.10486-.7778.04427-.25944L3.35193,16.93l.16215-.165.08834-.224L3.67623,16.27l.14717-.20039.14738-.32994v-.15316l-.66292-.12972-.825-.03526-.47127-.0943-.45671-.10612-.19169-.01178-.0588-.08249-.05908-.10612v-.11774L1.26,14.738l.07377-.15332v-.42422l.162-.3654.33887-.45964.14737-.25927.26506-.436.16211-.29453.3241-.50674.25028-.54212.33907-.54219.11764-.83681-1.429-.18842-.265-.554-.11784-.40078-.13265-.44785-.0295-.29453.20622-.389V7.59609L1.46627,7.3014,1.31909,7.101l-.07381-.20023-.13261-.24766V6.47637L1.09814,6.1346l-.01481-.20023V5.781l.05884-.28271.14738-.16514.04411-.09414.19165-.07083.162-.10593L1.8787,4.744l.221-.23565.29476-.25924.26506-.23584.44193-.23565.28-.20039.486-.02343.3831-.08249.64819-.1179.39767-.10612.4272-.05886.545-.14153.08858-.08249.32406.07083.33886.08249.3829.05885.29455.02364.8103-.02364.58936-.12968L9.46545,2.941l.3536-.14154.45671-.25927.35359-.212.95748.18842.27983.01178.30953-.01178.36816-.01166.33883-.07083.29476-.03529.23555-.07064.17688-.14153.30933-.212.33887-.1886.60388-.0236.25049-.0236.29455.01178.23576.01182.42717-.14138.19165-.10608.27982-.09431.30933-.21217.32405-.106L17.46484,1H47a1.84432,1.84432,0,0,1,2,2V37a1.84432,1.84432,0,0,1-2,2Z" fill="#fff" fill-rule="evenodd" id="Form" /><text font-family="AudiTypeDisplayHigh-Bold, Audi Type Display High" font-size="18px" font-weight="700" id="Nummer" transform="translate(10.08365 25.59849)">{value}</text></svg>