<svg xmlns="http://www.w3.org/2000/svg" id="svg2998" viewBox="0 0 34 40"><defs /><g id="layer1"><rect height="40" rx="2" width="34" /><rect fill="#fff" height="38" rx="2" width="32" x="1" y="1" /><g id="text3785"><path d="M13.77338,11.992a3.57693,3.57693,0,0,1-.26219,1.41692,2.20191,2.20191,0,0,1-.73582.95522,1.05517,1.05517,0,0,1-.38059.21492,1.72782,1.72782,0,0,1-.43135.08757H9.91667V9.33333h1.82686a3.56868,3.56868,0,0,1,.36368.01592,1.49046,1.49046,0,0,1,.28756.0398.95642.95642,0,0,1,.22836.08757q.10149.05572.2199.13532a2.30561,2.30561,0,0,1,.68508.97911,3.70913,3.70913,0,0,1,.24527,1.401m-.91343,0a3.3469,3.3469,0,0,0-.12687-.96318A1.39212,1.39212,0,0,0,12.40323,10.4a1.00351,1.00351,0,0,0-.25373-.1592.78554.78554,0,0,0-.32139-.06369H10.81318V13.807h.89652a1.1716,1.1716,0,0,0,.36368-.04776A.69326.69326,0,0,0,12.344,13.6a1.46321,1.46321,0,0,0,.38059-.65273A3.12248,3.12248,0,0,0,12.86,11.992" id="path3832" /><path d="M19.47811,13.58408a1.749,1.749,0,0,1-1.70846,1.17811,2.13615,2.13615,0,0,1-1.04875-.23085,1.77625,1.77625,0,0,1-.68508-.72438,3.29581,3.29581,0,0,1-.30447-.83582,4.44436,4.44436,0,0,1,.0592-2.197,2.59883,2.59883,0,0,1,.46517-.93931,1.64422,1.64422,0,0,1,.609-.44577,2.19023,2.19023,0,0,1,.84577-.15124,1.9432,1.9432,0,0,1,1.05721.26269,2.015,2.015,0,0,1,.71045.82786l-.83731.33433a2.95191,2.95191,0,0,0-.2199-.27861.76629.76629,0,0,0-.203-.17512.65251.65251,0,0,0-.22835-.08757,1.42985,1.42985,0,0,0-.27911-.02388.91674.91674,0,0,0-.95572.6607,2.36134,2.36134,0,0,0-.16915.56517,4.3452,4.3452,0,0,0-.05075.66866,3.76614,3.76614,0,0,0,.093.84378,1.99938,1.99938,0,0,0,.26219.65274,1.01268,1.01268,0,0,0,.35523.31045,1.09031,1.09031,0,0,0,.499.10348.868.868,0,0,0,.499-.14329,1.31866,1.31866,0,0,0,.38059-.47761l.85423.30249h0" id="path3834" /></g></g><text font-family="AudiTypeDisplayHigh-Bold, Audi Type Display High" font-size="14px" font-weight="700" transform="translate(7.25518 30.4132)">{value}</text><path d="M14.23967,1.30333l-.88542.00167L1.557,13.24833l1.90187,1.98A10.45826,10.45826,0,0,0,5.26331,16.606a1.7201,1.7201,0,0,0,.379.19667c.4268.17876.89739.37483,1.399.54333a13.82257,13.82257,0,0,1,1.88146.47072,5.6026,5.6026,0,0,1,.61043.18431c.16328.07476.33788.13794.38415.35569l.0425.19333h1.44146l-.04781-.18833a1.36457,1.36457,0,0,0-.871-1.14364c-.23362-.07661-.50792-.16735-.80262-.27874a5.39522,5.39522,0,0,0-.74729-.235c-.62852-.19721-1.51962-.36344-1.93375-.51834-.35-.1605-1.03294-.48635-1.47049-.6959a2.34406,2.34406,0,0,1-.703-.52485c-.47-.50539-.9689-.98579-1.44608-1.48522L13.32946,3.40167l.53656-.54334.37719.32667,16.282,13.00769L29.29487,17.7904l1.11739.83667L32.443,16.07769,14.23967,1.30333Zm-1.97271,29.98a2.1417,2.1417,0,0,1-.14521.46,5.05147,5.05147,0,0,0-.29219.50667c-.05089.151-.12085.345-.15583.43167A2.28008,2.28008,0,0,0,11.61,33.28c0,.44422.02634.51978.55781,1.59833a7.51641,7.51641,0,0,1,.33469.915,8.64848,8.64848,0,0,1,.16292.98667c.069.41522.1525.90793.18593,1.09667a4.739,4.739,0,0,1,.06552.56666l.00531.25334,1.39542-.015,5.54979-6.585-1.08729-.81L14.314,36.61l-.24083.28667L13.967,36.5a6.37634,6.37634,0,0,1-.14167-.815,2.46624,2.46624,0,0,0-.24969-.85833,4.95722,4.95722,0,0,1-.27625-.62167c-.04194-.13212-.13084-.37886-.19656-.54833a1.19313,1.19313,0,0,1,.301-1.30667,2.73979,2.73979,0,0,0,.46573-1.06667h-.8624c-.52963,0-.73973.00048-.7402,0Z" id="path2026" /></svg>