<svg xmlns="http://www.w3.org/2000/svg" viewBox="0 0 96 35"><g fill-rule="evenodd"><path d="m0 3.64a3.64 3.64 0 0 1 3.64-3.64h88.8a3.6 3.6 0 0 1 3.6 3.6v27.8a3.59 3.59 0 0 1-3.59 3.59h-88.8a3.62 3.62 0 0 1-3.62-3.62z" fill="#e52421" /><path d="m3.62 34a2.62 2.62 0 0 1-2.62-2.61v-27.7a2.64 2.64 0 0 1 2.64-2.64h88.8a2.6 2.6 0 0 1 2.6 2.6v27.8a2.59 2.59 0 0 1-2.59 2.59z" fill="#fff" /><path d="m1.99 6.19a0.693 0.693 0 0 1 0.195-0.484 0.655 0.655 0 0 1 0.471-0.201l45.3-3.02 45.3 2.94a0.651 0.651 0 0 1 0.469 0.2 0.686 0.686 0 0 1 0.195 0.482v23.2a0.672 0.672 0 0 1-0.189 0.469 0.637 0.637 0 0 1-0.455 0.193l-45.3 2.52-45.3-2.45a0.705 0.705 0 0 1-0.508-0.216 0.75 0.75 0 0 1-0.21-0.522z" fill="#e52421" /></g><text fill="#fff" font-family="AudiTypeDisplayHigh-Normal, Audi Type Display High" font-size="22" text-anchor="middle" transform="translate(48 25.2)">{value}</text></svg>