<svg xmlns="http://www.w3.org/2000/svg" viewBox="0 0 64 35"><g id="ri_australia_network_3dig"><g id="Schild"><path d="M3.69092,34.25a2.88462,2.88462,0,0,1-2.07373-.877A3.03664,3.03664,0,0,1,.75,31.23535V3.791a3.0608,3.0608,0,0,1,.874-2.15577A2.91587,2.91587,0,0,1,3.71826.75H60.32178a2.87728,2.87728,0,0,1,2.06592.87354,3.02055,3.02055,0,0,1,.8623,2.127V31.25977a3.01505,3.01505,0,0,1-.86035,2.12109,2.863,2.863,0,0,1-2.05811.86914Z" fill="#50a556" fill-rule="evenodd" /><path d="M60.322,1.5a2.13145,2.13145,0,0,1,1.52954.64806A2.27355,2.27355,0,0,1,62.5,3.75033V31.25938a2.262,2.262,0,0,1-.64648,1.59573,2.11749,2.11749,0,0,1-1.522.64489H3.69116a2.14024,2.14024,0,0,1-1.53857-.65281A2.28538,2.28538,0,0,1,1.5,31.23571V3.79115A2.31334,2.31334,0,0,1,2.15894,2.161,2.172,2.172,0,0,1,3.718,1.5H60.322m0-1.5H3.718a3.67443,3.67443,0,0,0-2.6294,1.11014A3.81757,3.81757,0,0,0,0,3.79115V31.23571a3.79088,3.79088,0,0,0,1.08154,2.66175A3.64089,3.64089,0,0,0,3.69116,35H60.33154a3.61835,3.61835,0,0,0,2.59351-1.0951A3.76663,3.76663,0,0,0,64,31.25938V3.75033a3.77854,3.77854,0,0,0-1.0769-2.652A3.63371,3.63371,0,0,0,60.322,0Z" fill="#f1c61b" /></g><text fill="#f1c61b" font-family="AudiTypeDisplayHigh-Bold, Audi Type Display High" font-size="18" font-weight="700" id="Text" transform="translate(4.56698 24.431)">{value}</text></g></svg>