<svg xmlns="http://www.w3.org/2000/svg" id="Icon" viewBox="0 0 50 40"><defs /><g id="Hintergrund"><rect height="40" rx="2.23607" width="50" /><path d="M6.40878,20.21716H4.455a.83537.83537,0,0,1-.27915-.7339c0-.395,2.72128-4.007,2.93078-5.24857V12.09c0-.79,1.88412-2.201,2.09334-3.38623a5.07482,5.07482,0,0,1,3.00042-2.99123c.76752-.22555.97674-.79,1.11631-1.69289.41873-.79023,4.47729-1.64884,7.53618-2.08834a40.70285,40.70285,0,0,1,9.90838.11289c1.26992.13537,9.62922,4.06357,10.53631,11.1747.20951,1.63656,3.00043,3.89412,3.83788,4.402l-.06993.84656.62794.45156c-.20922,3.04756-3.41886,6.0388-5.44255,6.32091a2.54682,2.54682,0,0,0-2.163,1.806,2.33119,2.33119,0,0,0,1.39546,2.93468l.90709-.28211c.41873-.45156,2.76112-1.54986,2.65163-.67734-.07194.57326-.83744.62078-1.25617,1.07234.69787.73367.13986,2.201.13986,2.201-1.46539.56445-.62823,1.016-.62823,1.016.69787,1.35445,2.44242,1.24156,3.6983,2.42679A4.47682,4.47682,0,0,1,45.83334,38H7.31587v-.17457c.06993-1.411,8.136-5.22608,8.51291-7.76576.2932-2.03178-4.88454-2.65256-8.16412-2.84449,0,0-1.214-.14674-1.25588-.73367-.09773-.76751.321-1.24156.34908-1.63656a16.94811,16.94811,0,0,0-.06993-1.806l.27915-.79023L6.618,21.91l.34908-.95945s-.06993-.73343-.5583-.73343" fill="#fff" id="path50" /></g><text font-family="AudiTypeDisplayHigh-Bold, Audi Type Display High" font-size="15px" font-weight="700" transform="translate(8.56128 24.66583)">{value}</text></svg>