<svg xmlns="http://www.w3.org/2000/svg" id="Icon" viewBox="0 0 31 47"><defs /><path d="M15.8825,4.9284l-.27523,11.422L8.81174,16.133a.83445.83445,0,0,1-.67693-.856c.04129-.7156.61927-.7156.61927-.7156l.01376-.61926a1.06537,1.06537,0,0,1-.39908-.83945,1.28154,1.28154,0,0,1,.344-.79816.44923.44923,0,0,1,0-.50917c.1789-.27523-.41284-1.63762-.44036-1.76147S8.066,9.30453,8.066,9.30453L7.61188,7.6394a3.33948,3.33948,0,0,1,.4266-1.43119A2.65315,2.65315,0,0,1,9.62105,5.03849a4.07247,4.07247,0,0,1,2.25687.1789,19.1304,19.1304,0,0,1,1.89908.88073s.56422.24771.82569.06881a4.708,4.708,0,0,0,.49541-.39909l.16514-.867Z" fill="#fff" /><path d="M15.65979,4.9018l-.055,11.44952,6.79553-.21738a.83445.83445,0,0,0,.67693-.856c-.04128-.7156-.61926-.7156-.61926-.7156l-.01377-.61926a1.0654,1.0654,0,0,0,.39909-.83945,1.28158,1.28158,0,0,0-.344-.79816.44924.44924,0,0,0,0-.50918c-.1789-.27522.41284-1.63761.44037-1.76146s.20642-.72936.20642-.72936l.45412-1.66513a3.33933,3.33933,0,0,0-.4266-1.43119A2.65311,2.65311,0,0,0,21.591,5.03942a4.07247,4.07247,0,0,0-2.25687.1789,19.1304,19.1304,0,0,0-1.89908.88073s-.56422.2477-.82569.06881a4.70926,4.70926,0,0,1-.49541-.39909l-.16514-.867Z" fill="#fff" /><path d="M16.40291,7.888s-.1789.02752-.2477-.49542-.27523-2.367-.27523-2.367l.23394.74311c.49608,1.06945,1.8349.13364,1.8349.13364s2.73322-1.63823,4.38-.56395a2.46086,2.46086,0,0,1,1.13373,2.92113,1.91667,1.91667,0,0,0-1.19725-.74311,16.84535,16.84535,0,0,0-1.70641-.04129,3.01412,3.01412,0,0,0-1.47248-.49541,3.43112,3.43112,0,0,0-1.57948.4404A2.55319,2.55319,0,0,1,16.40291,7.888Z" fill="#fff" stroke="#000" stroke-width="0.5px" /><g id="layer1"><g id="g4019"><g id="g4021"><g id="g4039"><g id="g4041"><path d="M16.17108,5.70432,16.15,5.28424a1.27084,1.27084,0,0,0,.75171-.81182h.20613a1.35474,1.35474,0,0,0,.0412-.33536,1.317,1.317,0,0,0-.06351-.41812h-.2112a1.28369,1.28369,0,0,0-.7502-.73893L16.1229,2.7126h.29948c.03385-.00937.121-.01446.08787-.07211a1.98442,1.98442,0,0,1-.60388-.84392.53845.53845,0,0,0,.19326-.18229,2.10155,2.10155,0,0,1,.888.57456c.06054.03164.06611-.05154.07624-.08342V.615c-.01013-.03211-.0157-.11508-.07624-.08368a2.09394,2.09394,0,0,1-.888.5721.53759.53759,0,0,0-.194-.18568A1.98547,1.98547,0,0,1,16.51025.074c.03311-.05765-.05406-.06321-.08445-.07211,0-.00211-.39234-.00216-.78469-.00169h0c-.39235.00047-.78469.00143-.78469.00143-.03361.00937-.12113.01472-.088.07237a1.98375,1.98375,0,0,1,.6047.84366.53575.53575,0,0,0-.194.18567,2.09023,2.09023,0,0,1-.88789-.57209c-.06079-.0314-.06649.05157-.07638.08368V2.10542c.00989.03187.01559.11506.07638.08342a2.098,2.098,0,0,1,.88789-.57457.53451.53451,0,0,0,.19326.1823,1.98488,1.98488,0,0,1-.604.84392c-.03312.05765.0544.06274.088.07211h.29975l-.00151.2674a1.28127,1.28127,0,0,0-.74993.73893h-.2116a1.31683,1.31683,0,0,0-.06365.41813,1.39075,1.39075,0,0,0,.0412.33536h.20613a1.27331,1.27331,0,0,0,.75171.81182l-.02081.42008M22.75588,7.4575l-1.91273-.11476L18.566,6.96509l-2.2844.922-.25-2.52272-.60316-.381L14.87792,7.777l-.234.02753-1.16482-.71046-1.30065.05739-.95637.09563-.88549.24092-1.16972.01377-1.00458.30275-.44615.61122-.03551.36584.24479.46639s-.23033.29391.18012.51a.20246.20246,0,0,1,.073.2774,2.80289,2.80289,0,0,1,.40323,1.86572.24534.24534,0,0,0-.01013.37057,1.53533,1.53533,0,0,0-.16767.3234.11848.11848,0,0,0-.12181.10746.10449.10449,0,0,0,.05926.0929,1.27148,1.27148,0,0,0-.00547.61744.10639.10639,0,0,0-.05584.09238.11881.11881,0,0,0,.12263.10668,1.32777,1.32777,0,0,0,.19.29846.40819.40819,0,0,0-.124.17891.55246.55246,0,0,0,.02094.48414s-.47517.08336-.42773.75829a.90832.90832,0,0,0,.0501.3312l-5.49366.00117c-2.58624,0-2.61344-.02551-2.61344,2.02085L0,17.68509V26.6896a19.71209,19.71209,0,0,0,1.218,5.62871A24.82693,24.82693,0,0,0,13.43432,46.02875l1.47726.71957L15.49891,47l.58732-.25168,1.47726-.71957A24.82689,24.82689,0,0,0,29.77978,32.31831,19.71562,19.71562,0,0,0,31,26.6896V17.68508c0-2.04659-.02847-2.021-2.61468-2.021l-5.24058-.00377a.68989.68989,0,0,0,.04736-.3286c.039-.55776-.2785-.71069-.38995-.74725a.55433.55433,0,0,0,.00767-.49517.4074.4074,0,0,0-.12428-.17892l.19052-.29846a.11865.11865,0,0,0,.12264-.10667.10677.10677,0,0,0-.05571-.09239,1.27746,1.27746,0,0,0-.00534-.61744.104.104,0,0,0,.05872-.0929.11822.11822,0,0,0-.12154-.10746,1.53136,1.53136,0,0,0-.16781-.3234.24533.24533,0,0,0-.01012-.37057,2.8025,2.8025,0,0,1,.40336-1.86571.20269.20269,0,0,1,.07282-.27741c.4102-.21607.18039-.51.18039-.51l.16663-.45263.04224-.37959a.46156.46156,0,0,0,.03381-.08784,2.08442,2.08442,0,0,0,.1162-.41267Zm-7.74315.6728h1.25513c.02693.00727.09679.01155.07035.05795a1.68157,1.68157,0,0,0-.48138.707.62357.62357,0,0,0-.20956-.03768.62987.62987,0,0,0-.22282.04093,1.69038,1.69038,0,0,0-.48207-.71022C14.91569,8.14185,14.9858,8.13757,15.01273,8.1303Zm-.71214.63382.01628.00533a1.86526,1.86526,0,0,0,.76827.45632.54.54,0,0,0,.00027.41111,1.87158,1.87158,0,0,0-.76854.4588c-.04868.02507-.05316-.04127-.06132-.06705V8.83649c.00714-.02256.01146-.07612.045-.07237Zm2.6942,0c.03369-.00376.03776.04981.04489.07237v1.19214c-.00815.02578-.01225.09212-.06118.067A1.8703,1.8703,0,0,0,16.21,9.636a.53836.53836,0,0,0,.00041-.40877,1.866,1.866,0,0,0,.76813-.45763l.01629-.00545Zm-1.34738.36394a.30261.30261,0,1,1-.31782.30209A.31053.31053,0,0,1,15.64741,9.12806Zm-7.36785.70931.11757.03183a1.94664,1.94664,0,0,0,1.62235,1.12626A1.4468,1.4468,0,0,0,11.376,10.2833H11.789a1.78827,1.78827,0,0,0,1.61017.85561A2.509,2.509,0,0,0,15.44867,9.966a.2992.2992,0,0,0,.3816,0,2.50885,2.50885,0,0,0,2.04926,1.17291,1.78779,1.78779,0,0,0,1.61017-.85561h.41294a1.44654,1.44654,0,0,0,1.35627.71216A1.9473,1.9473,0,0,0,22.88168,9.8692l.11771-.03183a2.4372,2.4372,0,0,1-1.757,1.43745,1.8184,1.8184,0,0,1-1.54981-.70632,2.37754,2.37754,0,0,1-1.88788.93812,2.83463,2.83463,0,0,1-2.16519-1.18317A2.836,2.836,0,0,1,13.474,11.50662a2.37811,2.37811,0,0,1-1.88788-.93812,1.818,1.818,0,0,1-1.54967.70632A2.43624,2.43624,0,0,1,8.27956,9.83737Zm.59813,2.496H22.40112a.7628.7628,0,0,1,.285.30443c-.15123.01992-.51915.22262-.51915.43424v.05574a.52346.52346,0,0,0,.54557.43774.76152.76152,0,0,1-.2851.30444H8.85141a.76146.76146,0,0,1-.2851-.30444.52316.52316,0,0,0,.5453-.43774v-.05574c0-.21162-.368-.41432-.51916-.43424A.76339.76339,0,0,1,8.87769,12.33339Zm-.07268,2.364H22.4738a.52692.52692,0,0,1,.48056.28313c-.47569,0-.82138.17972-.82138.30768,0,.12772.346.30755.8222.30755-.0042.31145-.48138.29339-.48138.29339H8.805a.54122.54122,0,0,1-.48138-.29339c.47593,0,.82206-.17983.82206-.30755,0-.128-.34571-.30768-.82165-.30768A.52761.52761,0,0,1,8.805,14.69739Zm-6.79709,1.306c.25978.00047.56.003.90678.003H8.408a1.05253,1.05253,0,0,0,.3998.1263H22.51363a1.00275,1.00275,0,0,0,.41445-.1263H28.1562c2.77453,0,2.562-.16666,2.562,1.94134v8.8074a19.249,19.249,0,0,1-1.19572,5.505A24.29888,24.29888,0,0,1,17.55323,45.67039l-1.45373.69436-.56692.25584-.56707-.25584-1.45372-.69436A24.298,24.298,0,0,1,1.54255,32.2601,19.21808,19.21808,0,0,1,.35067,26.697V17.94768C.35067,16.10318.1895,16.00028,2.00792,16.00335Z" id="path4043" /></g></g><g id="g4405"><g id="g4407"><path d="M19.006,12.68862a.39384.39384,0,0,0-.40323.38344v.05574a.39368.39368,0,0,0,.40323.38343h.5802a.39392.39392,0,0,0,.4035-.38343v-.05574a.39408.39408,0,0,0-.4035-.38344Z" id="path4409" /></g></g><g id="g4447"><g id="g4449"><path d="M11.7178,12.68862a.394.394,0,0,0-.40364.38344v.05574a.39389.39389,0,0,0,.40364.38343h.57993a.39377.39377,0,0,0,.4035-.38343v-.05574a.39392.39392,0,0,0-.4035-.38344Z" id="path4451" /></g></g><g id="g4459"><path d="M14.7962,12.6603v.87926h1.71146V12.6603Z" id="path4461" /></g><g id="g4497"><g id="g4499"><path d="M15.65206,15.05653c-.47617,0-.862.10382-.862.23154,0,.128.38585.23154.862.23154s.86162-.10358.86162-.23154C16.51368,15.16035,16.12824,15.05653,15.65206,15.05653Z" id="path4501" /><path d="M12.08356,15.05653c-.47618,0-.862.10382-.862.23154,0,.128.38584.23154.862.23154s.86161-.10358.86161-.23154C12.94517,15.16035,12.55974,15.05653,12.08356,15.05653Z" id="path7413" /></g></g><g id="g4509"><g id="g4511"><path d="M19.24565,15.05653c-.47617,0-.86161.10382-.86161.23154,0,.128.38544.23154.86161.23154s.86175-.10358.86175-.23154C20.1074,15.16035,19.72183,15.05653,19.24565,15.05653Z" id="path4513" /></g></g></g></g></g><path d="M15.13428,46.001,13.688,45.30957A23.79341,23.79341,0,0,1,1.92578,32.13477l-.03662-.11622A18.43656,18.43656,0,0,1,.75439,26.69727l-.002-9.167A2.72728,2.72728,0,0,1,.83008,16.5127a3.12353,3.12353,0,0,1,1.11377-.1084l6.37256.00293a1.47686,1.47686,0,0,0,.44921.123l13.752.00293a1.53511,1.53511,0,0,0,.51074-.126l6.11035-.00391a3.0982,3.0982,0,0,1,1.10938.1084,2.75532,2.75532,0,0,1,.07715,1.01562l-.00293,9.22852a18.31443,18.31443,0,0,1-1.126,5.22363l-.05078.16016a23.79621,23.79621,0,0,1-11.77,13.1748l-1.44434.68946-.39453.17871Z" fill="#fff" /><path d="M29.13772,16.8036c.16807,0,.5567,0,.77827.02539.01242.1691.01026.44358.0083.69348l-.00213.42558v8.8074a18.06252,18.06252,0,0,1-1.10942,5.10974l-.04556.14328A23.37941,23.37941,0,0,1,17.21241,44.94888l-1.438.687-.238.10742-.22209-.10011-1.43552-.68538A23.387,23.387,0,0,1,2.3089,32.018l-.039-.1225a18.142,18.142,0,0,1-1.11526-5.19808V17.948l-.002-.42049c-.00192-.25188-.004-.52858.00864-.69833.22154-.02556.61134-.02556.77975-.02556l.0695.00006.33428.00126.57392.00172H8.23483a1.915,1.915,0,0,0,.48244.1207l.04707.0056H22.55755l.03974-.004a1.89924,1.89924,0,0,0,.51418-.12232h5.04871l.56975-.00175.40779-.00136m0-.8c-.27551,0-.59888.00311-.97754.00311H22.93206a1.00265,1.00265,0,0,1-.41445.1263H8.81174a1.05247,1.05247,0,0,1-.39981-.1263H2.91869c-.34682,0-.647-.00252-.90678-.003L1.941,16.00367c-1.743,0-1.58634.12431-1.58634,1.94438v8.74932a19.218,19.218,0,0,0,1.19189,5.5631A24.298,24.298,0,0,0,13.51577,45.67076l1.45373.69436.56706.25584.56693-.25584,1.45372-.69436A24.29889,24.29889,0,0,0,29.52645,32.26047a19.24928,19.24928,0,0,0,1.19571-5.505V17.948c0-1.82031.15886-1.94445-1.58444-1.94445Z" /><path d="M29.13776,16.0036c1.7433,0,1.58444.12414,1.58444,1.94445v8.8074a19.24894,19.24894,0,0,1-1.19571,5.505A24.29889,24.29889,0,0,1,17.55725,45.67076l-1.45372.69436-.56693.25584-.56706-.25584-1.45373-.69436A24.298,24.298,0,0,1,1.54658,32.26047a19.218,19.218,0,0,1-1.19189-5.5631V17.948c0-1.82007-.15663-1.94437,1.58634-1.94438l.07092.00006c.25977.00046.56.003.90678.003H8.412a1.05247,1.05247,0,0,0,.39981.1263H22.51765a1.00265,1.00265,0,0,0,.41445-.1263h5.22812c.37866,0,.702-.00311.97754-.00311m0-.25-.41285.00137-.56469.00174H22.86405l-.05866.03449a.76444.76444,0,0,1-.31264.093L8.81178,15.883a.80426.80426,0,0,1-.27678-.09393l-.05725-.03237h-5.559l-.569-.00171-.33735-.00127L1.941,15.75367c-.86578,0-1.30312.02969-1.5723.30094-.27525.27736-.272.70488-.26606,1.481l.002.41246v8.74932a18.90638,18.90638,0,0,0,1.16473,5.51657l.03892.12232a24.46273,24.46273,0,0,0,12.094,13.55728l1.45942.69717.572.25813.10282.04639.10282-.0464.56693-.25584,1.45864-.69664A24.46594,24.46594,0,0,0,29.76376,32.33922l.04943-.15514a18.80932,18.80932,0,0,0,1.159-5.42863V17.948l.0021-.41733c.00607-.77359.00942-1.19972-.26524-1.47654-.26881-.27093-.70592-.30058-1.5713-.30058Z" /><path d="M14.80911,7.88711s.1789.02752.24771-.49542.27523-2.367.27523-2.367l-.234.74311c-.49608,1.06945-1.8349.13364-1.8349.13364s-2.73321-1.63823-4.38-.564A2.46087,2.46087,0,0,0,7.74949,8.25867a1.91666,1.91666,0,0,1,1.19725-.74312,16.84551,16.84551,0,0,1,1.70642-.04129,3.014,3.014,0,0,1,1.47247-.49541,3.43112,3.43112,0,0,1,1.57948.4404A2.55319,2.55319,0,0,0,14.80911,7.88711Z" fill="#fff" stroke="#000" stroke-width="0.5px" /><text font-family="AudiTypeDisplayHigh-Bold, Audi Type Display High" font-size="14px" font-weight="700" isolation="isolate" transform="translate(0.88348 30.04307)">{value}</text><g data-name="layer1" id="layer1-2"><g id="text7423"><path d="M12.90493,41.26412a1.89538,1.89538,0,0,1-.021.30569.93171.93171,0,0,1-.06768.238.47325.47325,0,0,1-.147.20535.36257.36257,0,0,1-.21935.063.38585.38585,0,0,1-.22868-.063.48329.48329,0,0,1-.14467-.20535,1.04692,1.04692,0,0,1-.07-.238,2.49276,2.49276,0,0,1,0-.609.99992.99992,0,0,1,.07-.24036.46193.46193,0,0,1,.147-.20068.38155.38155,0,0,1,.22634-.063.36672.36672,0,0,1,.22169.063.44692.44692,0,0,1,.14467.20535,1.14575,1.14575,0,0,1,.03967.11668.7564.7564,0,0,1,.028.12367,1.15532,1.15532,0,0,1,.01633.13768Q12.90493,41.17546,12.90493,41.26412Zm-.21468,0q0-.06534-.00467-.119a.87284.87284,0,0,0-.00933-.098.75563.75563,0,0,0-.014-.08868q-.00933-.042-.021-.084a.35228.35228,0,0,0-.077-.15168.15069.15069,0,0,0-.11435-.04667q-.14467,0-.19834.19368a1.031,1.031,0,0,0-.03967.17968,2.15209,2.15209,0,0,0-.00933.21935q0,.063.00232.11667l.00933.098q.007.04434.01634.08867t.021.091q.05367.19368.19835.19368a.15064.15064,0,0,0,.11434-.04667.34968.34968,0,0,0,.077-.147q.014-.04666.02334-.08867a.8571.8571,0,0,0,.014-.091.9529.9529,0,0,0,.00933-.098q.00233-.05367.00232-.12135Z" id="path7425" /><path d="M13.92613,42.04818l-.483-1.04775v1.04775h-.224V40.48473h.224l.42937.93807v-.93807h.224v1.56345Z" id="path7427" /><path d="M14.82566,40.69241v1.35577h-.22635V40.69241h-.28469v-.20768h.79572v.20768Z" id="path7429" /><path d="M15.97808,42.04818l-.10968-.427h-.336l-.10268.427h-.22634l.38969-1.56345h.21935l.3897,1.56345Zm-.28-1.09675-.10968.45037h.224Z" id="path7431" /><path d="M17.0649,42.04818l-.20768-.73506h-.21468v.73506h-.224V40.48473h.4667a.43626.43626,0,0,1,.16567.03034.378.378,0,0,1,.13068.084.33559.33559,0,0,1,.084.133.461.461,0,0,1,.03033.17034.47272.47272,0,0,1-.056.238.313.313,0,0,1-.168.14l.224.76772Zm.01167-1.14575a.191.191,0,0,0-.056-.14468.20362.20362,0,0,0-.147-.05367h-.231v.39436h.231a.20819.20819,0,0,0,.14934-.049A.1939.1939,0,0,0,17.07657,40.90243Z" id="path7433" /><path d="M17.55793,42.04818V40.48473h.21935v1.56345Z" id="path7435" /><path d="M19.01214,41.26412a1.89412,1.89412,0,0,1-.021.30569.93048.93048,0,0,1-.06767.238.47325.47325,0,0,1-.147.20535.36257.36257,0,0,1-.21935.063.38585.38585,0,0,1-.22868-.063.4833.4833,0,0,1-.14468-.20535,1.0474,1.0474,0,0,1-.07-.238,2.49276,2.49276,0,0,1,0-.609,1.00036,1.00036,0,0,1,.07-.24036.46209.46209,0,0,1,.147-.20068.38161.38161,0,0,1,.22635-.063.36672.36672,0,0,1,.22169.063.44692.44692,0,0,1,.14467.20535,1.14821,1.14821,0,0,1,.03967.11668.75743.75743,0,0,1,.028.12367,1.15523,1.15523,0,0,1,.01634.13768Q19.01214,41.17546,19.01214,41.26412Zm-.21469,0q0-.06534-.00467-.119a.8822.8822,0,0,0-.00934-.098.75783.75783,0,0,0-.014-.08868q-.00934-.042-.021-.084a.35228.35228,0,0,0-.077-.15168.15068.15068,0,0,0-.11434-.04667q-.14467,0-.19835.19368a1.031,1.031,0,0,0-.03967.17968,2.15209,2.15209,0,0,0-.00933.21935q0,.063.00232.11667l.00934.098q.007.04434.01633.08867t.021.091q.05367.19368.19835.19368a.15064.15064,0,0,0,.11434-.04667.3498.3498,0,0,0,.077-.147q.014-.04666.02333-.08867a.852.852,0,0,0,.014-.091.95564.95564,0,0,0,.00934-.098q.00237-.05367.00237-.12135Z" id="path7437" /></g></g></svg>