<svg xmlns="http://www.w3.org/2000/svg" viewBox="0 0 96 35"><path d="m3.62 34.2a2.87 2.87 0 0 1-2.87-2.87v-27.7a2.89 2.89 0 0 1 2.89-2.89h88.8a2.85 2.85 0 0 1 2.85 2.85v27.8a2.84 2.84 0 0 1-2.84 2.84z" fill="#fff" fill-rule="evenodd" /><path d="m92.4 1.5a2.1 2.1 0 0 1 2.1 2.1v27.8a2.09 2.09 0 0 1-2.09 2.09h-88.8a2.12 2.12 0 0 1-2.12-2.12v-27.7a2.14 2.14 0 0 1 2.14-2.14h88.8m0-1.5h-88.8a3.64 3.64 0 0 0-3.64 3.64v27.7a3.62 3.62 0 0 0 3.62 3.62h88.8a3.59 3.59 0 0 0 3.59-3.59v-27.8a3.6 3.6 0 0 0-3.6-3.6z" fill="#e52421" /><text fill="#e52421" font-family="AudiTypeDisplayHigh-Normal, Audi Type Display High" font-size="22" text-anchor="middle" transform="translate(48 25.2)">{value}</text></svg>