<svg xmlns="http://www.w3.org/2000/svg" viewBox="0 0 39.99992 39"><g id="ri_colombia_federal_2dig"><g id="Schild"><path d="M20.0293,38.71C7.40723,31.19727,1.12012,19.16992.26855.8916A23.70467,23.70467,0,0,0,9.90039,2.72021c4.16211,0,7.832-.87939,10.10938-2.417C22.36816,1.88721,26.01855,2.793,30.06445,2.793A22.85381,22.85381,0,0,0,39.73047.8418C38.84668,19.36914,32.582,31.41992,20.0293,38.71Z" fill="#fff" /><path d="M20.0105.603a19.08116,19.08116,0,0,0,10.054,2.44021,23.573,23.573,0,0,0,9.3938-1.79771C38.50391,19.39275,32.31689,31.22686,20.03076,38.42,7.66553,31.00477,1.45679,19.18263.53784,1.28655A24.51717,24.51717,0,0,0,9.8999,2.97c4.12744,0,7.78369-.85949,10.1106-2.367M20.00977,0C17.61646,1.68912,13.77686,2.47,9.8999,2.47A23.07833,23.07833,0,0,1,0,.48356C.80273,19.6479,7.634,31.6764,20.02759,39,32.72729,31.68023,39.14014,19.67132,39.99268.547c-.00562-.05952.0271-.09566-.01319-.09566a.21583.21583,0,0,0-.04272.00632,22.29062,22.29062,0,0,1-9.87232,2.08557C26.26587,2.54319,22.49536,1.739,20.00977,0Z" /><path d="M20.0442,35.84668C9.66725,29.2334,4.17115,19.2168,2.78346,4.375a30.45464,30.45464,0,0,0,7.02441.79492,24.08836,24.08836,0,0,0,10.2002-2.03857,22.575,22.575,0,0,0,10.14746,2.1123,28.93419,28.93419,0,0,0,7.05469-.85351C35.81276,19.61523,30.50221,29.34277,20.0442,35.84668Z" fill="#fff" /><path d="M20.0066,3.55016A23.13532,23.13532,0,0,0,30.156,5.61847a29.5911,29.5911,0,0,0,6.63134-.73942C35.33863,19.57936,30.1443,29.042,20.04713,35.40314,10.02418,28.93321,4.65309,19.1955,3.2068,4.857a31.19526,31.19526,0,0,0,6.60058.6881A24.703,24.703,0,0,0,20.0066,3.55016m.00244-.84035C16.55738,4.50289,12.24488,4.79505,9.80738,4.79505a29.632,29.632,0,0,1-7.44482-.91281C3.68434,19.18134,9.3611,29.56669,20.04225,36.28943,30.78248,29.69234,36.29762,19.56358,37.63111,3.88981a28.22613,28.22613,0,0,1-7.47509.97866A22.11668,22.11668,0,0,1,20.009,2.70981Z" /></g><text font-family="AudiTypeDisplayHigh-Bold, Audi Type Display High" font-size="17.05132" font-weight="700" id="Text" transform="translate(8.69653 23.69922) scale(0.95242 1)">{value}</text></g></svg>