<svg xmlns="http://www.w3.org/2000/svg" id="svg3978" viewBox="0 0 40 40"><defs /><g id="g2824"><rect height="40" rx="2" width="40" /><path d="M5.98623,34.65516a13.44945,13.44945,0,0,1-.30367-6.32147,15.143,15.143,0,0,1-.15113-7.07349c.236-.44788-.63978-1.97349-.69608-2.5384-.20648-2.07191-1.232-14.19746-1.47952-15.3057,8.08368-.07451,21.8246-.05892,21.8246-.05892s-.16106,1.45046-.21317,1.714c-.38379,1.94117.56147,1.89936.88395,1.9165a2.46765,2.46765,0,0,1,1.02309.13877c.55349.19964.44814.55852,1.72167,2.2624,1.18714,1.81008,1.94161,1.88058,3.14573,3.39243,2.05912,1.861,5.34644,4.88043,4.8526,6.71247a41.6914,41.6914,0,0,0-2.70265,10.48206c-.24045,2.5141-1.39157,5.22617-2.67237,5.19771-.9892-.02379-.59769.27952-.97092.83544a1.26412,1.26412,0,0,1-1.053.63513,1.15007,1.15007,0,0,1-1.15965-.56365c-.458-.74861.1382-1.00316-1.19373-.95047-1.20958.04786-20.51668.15385-20.51668.15385" fill="#fff" fill-rule="evenodd" id="path1356" /></g><text font-family="AudiTypeDisplayHigh-Bold, Audi Type Display High" font-size="20px" font-weight="700" id="Nummer" transform="translate(6.07927 29.47512)">{value}</text></svg>