<svg xmlns="http://www.w3.org/2000/svg" id="Icon" viewBox="0 0 34 41"><defs /><rect fill="#fff" height="41" width="34" /><rect fill="none" height="15" stroke="#0046b6" stroke-miterlimit="10" stroke-width="0.99364px" width="31" x="1.5" y="1.5" /><path d="M17,40s10.61111.05556,16-9V18H1V31C6.38889,40.05556,17,40,17,40Z" fill="#0046b6" /><polygon fill="#0046b6" points="5.518 1.5 1.5 1.5 1.5 3.444 28.482 16.5 32.5 16.5 32.5 14.556 5.518 1.5" /><polygon fill="#0046b6" points="32.5 1.5 28.482 1.5 1.5 14.556 1.5 16.5 5.518 16.5 32.5 3.444 32.5 1.5" /><path d="M17,13s3.01009.04255,3-2.86363V6H17l0,0H14v4.13636C13.98991,13.04255,17,13,17,13Z" /><text fill="#fff" font-family="AudiTypeDisplayHigh-Bold, Audi Type Display High" font-size="15px" font-weight="700" isolation="isolate" transform="translate(1.33876 31.04336)">{value}</text></svg>