<svg xmlns="http://www.w3.org/2000/svg" viewBox="0 0 64 35"><path d="m3.67 34.2a2.86 2.86 0 0 1-2.06-0.871 3.02 3.02 0 0 1-0.861-2.12v-27.5a3.04 3.04 0 0 1 0.868-2.14 2.89 2.89 0 0 1 2.08-0.879h56.6a2.85 2.85 0 0 1 2.05 0.868 3 3 0 0 1 0.856 2.11v27.5a3 3 0 0 1-0.854 2.11 2.84 2.84 0 0 1-2.04 0.863z" fill="#e52421" fill-rule="evenodd" /><path d="m60.3 1.5a2.11 2.11 0 0 1 1.51 0.642 2.26 2.26 0 0 1 0.642 1.59v27.5a2.24 2.24 0 0 1-0.64 1.58 2.09 2.09 0 0 1-1.51 0.639h-56.7a2.12 2.12 0 0 1-1.52-0.646 2.27 2.27 0 0 1-0.646-1.6v-27.5a2.29 2.29 0 0 1 0.653-1.62 2.15 2.15 0 0 1 1.54-0.655h56.6m0-1.5h-56.6a3.65 3.65 0 0 0-2.61 1.1 3.8 3.8 0 0 0-1.08 2.67v27.5a3.77 3.77 0 0 0 1.07 2.65 3.62 3.62 0 0 0 2.59 1.1h56.7a3.6 3.6 0 0 0 2.58-1.09 3.75 3.75 0 0 0 1.07-2.63v-27.5a3.76 3.76 0 0 0-1.07-2.64 3.61 3.61 0 0 0-2.59-1.09z" fill="#fff" /><text fill="#fff" font-family="AudiTypeDisplayHigh-Normal, Audi Type Display High" font-size="22" text-anchor="middle" transform="translate(32 25.2)">{value}</text></svg>