<svg xmlns="http://www.w3.org/2000/svg" viewBox="0 0 96 35">
<g id="ri_rectangle_white_black_5dig">
<g id="Schild">
<path d="M3.61621,34.25A2.86574,2.86574,0,0,1,.75,31.38477V3.64063A2.88991,2.88991,0,0,1,3.64258.75h88.7539A2.85157,2.85157,0,0,1,95.25,3.60156V31.4082A2.84324,2.84324,0,0,1,92.40576,34.25Z" fill="#fff" fill-rule="evenodd" />
<path d="M92.39648,1.5A2.10177,2.10177,0,0,1,94.5,3.60158V31.40772A2.09291,2.09291,0,0,1,92.406,33.5H3.61621A2.11623,2.11623,0,0,1,1.5,31.385V3.6408A2.14056,2.14056,0,0,1,3.64258,1.5h88.7539m0-1.5H3.64258A3.64039,3.64039,0,0,0,0,3.6408V31.385A3.61642,3.61642,0,0,0,3.61621,35H92.406A3.59288,3.59288,0,0,0,96,31.40772V3.60158A3.60176,3.60176,0,0,0,92.39648,0Z" />
</g>
<text font-family="AudiTypeDisplayHigh-Normal, Audi Type Display High" font-size="22" id="Text" text-anchor="middle" transform="translate(48 25.22952)">{value}</text>
</g>
</svg>