<svg xmlns="http://www.w3.org/2000/svg" data-name="Layer 1" id="Layer_1" viewBox="0 0 40 40"><defs /><path d="M5.38353,0A24.99714,24.99714,0,0,0,12.6918,1.08513,24.9978,24.9978,0,0,0,20,0a24.99785,24.99785,0,0,0,7.3082,1.0851A24.99729,24.99729,0,0,0,34.61647,0,25.00593,25.00593,0,0,1,20,40,25.00593,25.00593,0,0,1,5.38353,0Z" fill="#fff" id="Hintergrund_Weiss" transform="translate(0)" /><path d="M.83333,15.40724A24.3956,24.3956,0,0,1,1.64,9.16669H38.36005a24.34211,24.34211,0,0,1-18.36,30A24.2777,24.2777,0,0,1,.83333,15.40724Z" fill="#003f87" id="Hintergrund_Blau" transform="translate(0)" /><path d="M1.83333,8.33336A24.7465,24.7465,0,0,1,5.55751.94343a26.0469,26.0469,0,0,0,7.03027.96114A26.03053,26.03053,0,0,0,20,.83335a26.03055,26.03055,0,0,0,7.41223,1.07122,26.04733,26.04733,0,0,0,7.0303-.96114,24.74828,24.74828,0,0,1,3.72414,7.38993Z" fill="#af1e2d" id="Hintergrund_Rot" transform="translate(0)" /><path d="M7.23667,7.5V3.33338h.58371V7.5Zm3.3857,0L9.33689,4.70778V7.5H8.74067V3.33338h.59622l1.14259,2.5v-2.5h.59621V7.5Zm2.39378-3.613V7.5h-.60228V3.887h-.75769V3.33338h2.11765V3.887ZM14.34428,7.5V3.33338h1.95618V3.9181h-1.36V4.96891h.86324V5.5411H14.9405V6.9155h1.52143V7.5Zm4.53417,0L18.32563,5.5411h-.5712V7.5h-.59622V3.33338H18.4003a1.18414,1.18414,0,0,1,.444.08085,1.04589,1.04589,0,0,1,.34776.22394.94741.94741,0,0,1,.22353.35138,1.29963,1.29963,0,0,1,.07761.45709,1.26112,1.26112,0,0,1-.14906.63434.83244.83244,0,0,1-.44716.373L19.49324,7.5Zm.03108-3.05338a.50926.50926,0,0,0-.14906-.38554.54154.54154,0,0,0-.39125-.143h-.61479V4.96891h.61479a.55678.55678,0,0,0,.40054-.1337.51277.51277,0,0,0,.13977-.38857Zm3.39859,1.91527a1.24776,1.24776,0,0,1-.09.47578,1.17331,1.17331,0,0,1-.24836.3824,1.235,1.235,0,0,1-.36643.25811,1.058,1.058,0,0,1-.45029.09641,1.10691,1.10691,0,0,1-.49056-.10571,1.0842,1.0842,0,0,1-.36634-.286,1.313,1.313,0,0,1-.22978-.41667A1.50914,1.50914,0,0,1,19.9856,6.275h.58371a.99367.99367,0,0,0,.03411.258.72934.72934,0,0,0,.10556.23011.54865.54865,0,0,0,.18014.16483.52377.52377,0,0,0,.2639.06215.53907.53907,0,0,0,.22676-.04972.55665.55665,0,0,0,.18629-.13683.68978.68978,0,0,0,.12413-.20212.63273.63273,0,0,0,.04653-.2395.67071.67071,0,0,0-.07448-.32016.92572.92572,0,0,0-.26077-.283q-.0311-.03112-.02483-.03425t-.03724-.03416q-.0435-.031-.18326-.12127t-.45645-.30773a1.186,1.186,0,0,1-.38188-.40746,1.05287,1.05287,0,0,1-.12735-.513,1.09072,1.09072,0,0,1,.08073-.4198,1.07471,1.07471,0,0,1,.22666-.34511,1.06336,1.06336,0,0,1,.33848-.23324,1.02918,1.02918,0,0,1,.416-.084,1.04127,1.04127,0,0,1,.413.08085,1.00722,1.00722,0,0,1,.32909.22394,1.08959,1.08959,0,0,1,.22354.34208,1.1923,1.1923,0,0,1,.09011.43526h-.57139a.50072.50072,0,0,0-.149-.34825.46721.46721,0,0,0-.33544-.13057.484.484,0,0,0-.34767.13683.4541.4541,0,0,0-.1428.342.41762.41762,0,0,0,.08073.26114,1.05809,1.05809,0,0,0,.31043.23628,2.96444,2.96444,0,0,1,.87879.70892,1.30521,1.30521,0,0,1,.27631.81464ZM24.04143,3.887V7.5h-.60228V3.887h-.75768V3.33338h2.11765V3.887ZM27.10837,7.5l-.29185-1.13811h-.89433L25.6491,7.5h-.60247l1.037-4.16664h.5839L27.70459,7.5Zm-.74518-2.92281-.29185,1.20017h.59622ZM29.31756,3.887V7.5h-.60228V3.887h-.75769V3.33338h2.11765V3.887ZM30.64569,7.5V3.33338h1.95618V3.9181h-1.36V4.96891h.86324V5.5411h-.86324V6.9155h1.52143V7.5Z" fill="#fff" id="Interstate" transform="translate(0)" /><text fill="#fff" font-family="AudiTypeDisplayHigh-Bold, Audi Type Display High" font-size="23px" font-weight="700" id="Nummer" transform="translate(3.99095 29.15358)">{value}</text></svg>