<svg xmlns="http://www.w3.org/2000/svg" viewBox="0 0 54 34"><path d="m27.1 33.2c-1.7-0.465-14.8-4.32-22.4-14.7-5.64-7.71-3.94-13.1-2.95-15 0.967-1.91 2.24-2.73 2.68-2.73h45.3c0.391 0 1.54 0.749 2.42 2.48 0.996 1.96 2.69 7.38-3.11 15.3-7.59 10.4-20.3 14.2-22 14.7z" fill="#e52421" /><path d="m49.8 1.5a5.11 5.11 0 0 1 2.18 2.95c0.815 2.23 1.45 6.97-3.42 13.6-7.2 9.84-19.2 13.7-21.4 14.4-2.27-0.643-14.6-4.49-21.8-14.4-4.77-6.52-4.09-11.2-3.25-13.4a5.57 5.57 0 0 1 2.43-3.16h45.2m0.052-1.5h-45.3c-2.18 0-8.69 7.55-0.334 19s23 15 23 15 14.2-3.61 22.6-15 2.26-19 0.0833-19z" fill="#fff" /><text fill="#fff" font-family="AudiTypeDisplayHigh-Bold, Audi Type Display High" font-size="19" font-weight="700" text-anchor="middle" transform="translate(27 20.3)">{value}</text></svg>