<svg xmlns="http://www.w3.org/2000/svg" id="Icon" viewBox="0 0 40 40"><defs /><rect fill="#006a4d" height="40" id="Hintergrund_gruen" rx="2" width="40" /><path d="M9.06131,3.15189l.04143.00226.33434.01675.04948.00245.03486.00261.34252.01232.03868.0018.03645.00226.06019.00239.00431.00018.09178.004.00014.00054.0237.0001.04492.00167.01905.00159.03473.00266.01014-.00009.01643,0,.00026.00031.1756.00725.00413-.0007.115.00616.03535.0014.46915.018.09479.00379.09206.00366.00134,0,.02519.00081.05372.00173.00674.00023.00719,0,.049.00171.00149.00006.0461.00231.045.00084.00368-.00152.04625.00216.1232.00568.01113-.00008.1106.00383.27554.00989.00105-.00064.00787.00049.02978.00182.01227.00037.072.00239.07457.002.32277.00888.15632.00556.08985.00249.04021.00128.13528.00431.02081.0001.10916.0042.004-.00035.00464-.00035.02592,0,.13048.0047.03056.00253.06674.00008.03783.00068.08548.00151.00568.00132.1049.002.13275.00422.239.00616.06474.00163.02242.00192.482.01327.02743.00072.11866.00311.21083-.00093.01411.001.02479.00157.14358.002.02426.00045.06988.00132.1192.00274.07172.00025.21729.0056.08545.00266.007.0002.11287.00182.01556-.00064.02123.00058.03573.001.07858.002.016.00027.1635.00094.02505.00184.55167.005.01885.00232.05564.0011.03877.00037.07752.00072.01556.00109.20753.0012L17.665,3.392,17.7,3.39226l.00013-.00038.0534.002.135-.00282.05814.00106.26225.00459.10575.001.52991.00222.058.00042.16587.00113.14741-.00043.02821.00076.01952.00039.04469.00089.53163.00206.04021.00138.00554.00184.0389.00027.00395-.00025.47532.0034.0857,0,.04734-.00039.14358.00086.00844-.00028L20.8,3.41242l.06936.001.29046.00062.18169.0001.39081-.0015.19039.00216.40373-.00046.00408-.00024.00079.0002.00673-.00006.1362-.00128.11471-.00179.09625-.00235.27794-.004.10232-.00148.43735.00085h.01331l.18987-.00311.217-.00375.07172-.00167.03244-.00056.15334-.00173.00079,0,.123-.002.09427-.00081.06078-.0015.03521-.00064.08478-.00039.16218-.00345.00276,0,.03666-.00125.00488,0,.05129-.00113.45264-.01053.022-.00066.02136-.00061.399-.00719.14715-.00233.3109-.00521.00475-.00012.26805-.00458.22995-.00416.32488-.00624.28295-.00581.17022-.00364.11471-.00161.56709-.00878.08346-.0014.1991-.00346.28572-.0096L29.482,3.279l.00448-.00016.04734-.00192.32685-.01351.14754-.00625.28493-.01145.09744-.0029.03705-.0014L30.5194,3.238l.47651-.01839.31974-.01287.03441-.00233.21729-.0103.15005-.00723.42231-.02074.282-.01427.10772-.00616.00039,0,.12368-.0046.04535-.00272.007-.00037.00251-.00012.00883-.00048L33.283,3.107l.16125-.0089.03073-.002.38316-.02274.38091-.02395.123-.00954.06764-.00929.38237-.01732.08794-.004.00765-.00526.09612-.00576.05-.003.35771-.02179h0l.16521-.01026.03916-.00245.02386-.00151.15216-.00957.02927-.004.00013,0,.03283-.00449.26687-.01759.03705-.00247.01252-.00085.09573-.0064.0944-.00554.09493-.005.0952-.00412.09493-.00752.0509-.00249L36.741,2.887l.04628-.0035.04747-.00363.06223-.00418-.0029.09228.00237.05293.002.01539-.01094.02772-.00172.01292.002.024.00132.01477.00488.00983.00382.01.00106.00274.00066.00194-.00844.03-.00119.00438-.00224.00769-.00395.02581.00237.04292.00119.07675-.00132.03217-.01134.01514-.0029.10476.00488.04708-.01121.05234.00158.0184.00765.03439-.00158.18977-.00831.03291-.00395.02093.00171.04929-.00817.07529-.01358.06035-.00237.00506L36.836,4.071l-.01266.02755-.02716.02829-.01542.0223-.022.05749-.02426.07623L36.731,4.291l-.01226.02848-.00527.01228-.00225.00326-.0116.01691-.0112.01621-.03191.0344-.01055.018-.007.02128-.00408.03157-.026.07821-.00844.03679-.00066.01157-.00237.03753-.00119.00756-.00751.0497-.04338.13688-.0451.0864-.04153.06371-.00053.00091-.00237.00348-.06487.07009-.10732.09312-.1511.17405-.02334.0302-.02914.08214-.016.03632-.10614.12622-.06882.08183-.005.00674-.109.14457-.00132.00175-.00251.00517-.00039.00081-.00264.00562-.00435.00278-.01938.01263-.01371.0221-.00291.00626-.01872.03977-.01437.05945-.02848.20855-.00224.047-.01767.05937-.00039.00123-.00409.03183.01978.03614.0203.03315.02466.04517.00184.0037.04127.078.16244.30395.01358.01127.02518.03419.04391.09364.01912.05331.0766.144.02334.06521.03916.12783.007.025.03085.11026.00949.04315.002.03868.005.01941.02018.05215.00936.06826.02122.08093.00659.01713.03455.0544.06619.14457.036.08822.00435.01057.00317.00771.00843.01619.03006.05724.00765.01466.02.02676.01134.0152.01081.0144.01556.00976.02307.0013.02374-.005.03744.01312.06593-.016.03125.00635.00251.00052.04337-.00314.00567.00066.02466.00291.03217.00381.00277.00161.00395.00228.07107.041.07792.07111.02809.03295.03534.02233.04364.03565.07608.04622.02914.00522.041.016.04311.02612.06527.07534.029.02208.06223.08159.03336.10822.01687.06669.04549.13094.00554.016.00356.04457.004.01965.00686.01442.02294.03192.021.06276.005.04017.01186.01765.002.00293.0058.03472.00356.0909.54623,18.279-.50487.033.045.41614.11939.64849.03468.44573.01556.42678v.00021l.26225.882.00224.00371.002.00331.01675.22945.0025.09146.00818.042.03309.15016v.00041l-.00118.1137.021.7273-.13862,1.37942-.01358.06365-.0058.035-.06659.531-.04971.16005-.0356.21957-.03192.67333.00254.53054.17409.42969.18243.39293.18281.24063.06834.25907-.08864.16594-.14946.11126-.4021-.08552-.34392-.145-.30966-.3008-.53693-.13887-.80658-.65763-.79349-.71443-.71145-.29225-.67975-.15515-.52828.08735-.54278-.0514-1.08338-.214-.97464.42458-.97322-.283-.08491-.04841-.368-.31641-.012-.00761-.34809-.21236-.81176-.40673-.77187-.10378-.42324-.041-.27058-.02335-.20622.005-.18406.00474L25.962,33.456l-.002.00145-.18354.0035-.09374.00186-.009.001-.07925.00165-.1805.00413-.0149-.00186-.05815.0031-.04918-.00021-.07977.0035-.08267.00372-.18868.00227-.0952.0033L24.805,33.4832l-.1217.0033-.04233.00083-.24234.00392-.10245.00268-.012.00082-.01517.00062-.10231.00062-.0977.00227-.26648.006-.01529-.00083-.07806.00062-.01687.00041-.19092.00372-.00646.0002-.16284.00289-.3995.00619-.22494.0031-.01068-.001-.08518.00207-.03652.00041-.07858.00082-.122-.00082-.01108.00021-.08372.00185-.05789.001-.01463-.00082-.029-.00082-.06.00247-.13541-.00062-.0476.00268-.04773-.001-.03758.00041-.05748.00062-.138.00124-.04444-.00021-.10943-.00082-.00238-.00021h-.04944l-.20925.00082h-.0174l-.09349.00021-.03151.00021-.40794-.00062-.03429-.00021h-.00224l-.34373.00289-.38131-.00062-.02848-.001-.31631.00041-.02822-.00021-.36588-.00392-.19791-.00227-.28269.00165-.01318.00021-.04655.00206-.04377.00062-.34743-.00041-.03033.005-.56326-.00474-.56947-.006-.09809.0031-.09045-.00145-.24814-.00144-.028-.00145-.17417.00165-.02584-.00082h0l-.17945-.00619-.8809-.01277h-.00185l-.005.00021h-.0062l-.00541-.00042L14.053,33.4851l-.174-.00124-.20144-.00165-.02717-.0002-.19813-.00186-.4228-.01442h-.00064L12.37373,33.42l-.26-.00763-.02453-.00062-.51992-.01607-.121-.00391-.16438-.00537-.02736-.001h0L9.952,33.33717l-.24772-.00988-.13889-.00578-.02859-.00123-.22471-.00844-.32227-.01421-.093-.00412L8.5178,33.276l-.66948-.03192-.09-.00475-.12915-.00658-.78339-.04222-.62828-.03543-.00583-.00041-.99816-.05541-.02858-.00145-.27755-.01462-.48322-.02884-.00447-.0002-.002-.00021-.0827-.005-.25228-.01566-.00309.00062L3.881,33.02243l-.16585-.01792-.29856-.01442-.47448-.0346-.00787.00041-.21494-.01256-.3101-.01875L2.211,32.90317l-.11907-.008-.29817-.00946L2.69213,2.79214l.55538.03839.56975.03807.55441.03575.0426.00268.03518.00223v.0001l.38242.02311.08391.00667.566.032.01123.00042.06556.00513.03069.001.16378.01423.02892-.002.28358.016.105.00585.00007,0,.30024.01588.03547.0018.2257.01122.09281.00544.19681.01028.08865.0043.06578.00318.07453.00356.09926.00534.14034.00852.02488.00079.2187.012.09854.00537.18388.00857.28469.01345.51691.02361.05074.0015.09.00266L8.96592,3.15l.02647.00051.06888.00155" fill="#fff" fill-rule="evenodd" id="Hintergrund_Weiss" stroke="#fff" stroke-width="0.99934px" /><text font-family="AudiTypeDisplayHigh-Bold, Audi Type Display High" font-size="24px" font-weight="700" id="Nummer" transform="translate(3.29481 27.46495)">{value}</text></svg>