<svg xmlns="http://www.w3.org/2000/svg" viewBox="0 0 64 35">
<g id="ri_rectangle_blue_3dig">
<path d="M0,3.77076A3.79858,3.79858,0,0,1,1.08193,1.1041,3.65089,3.65089,0,0,1,3.69559,0H60.34412a3.61013,3.61013,0,0,1,2.58535,1.09239A3.75961,3.75961,0,0,1,64,3.73014V31.27946a3.74878,3.74878,0,0,1-1.06843,2.63135A3.59534,3.59534,0,0,1,60.35352,35H3.66879a3.61812,3.61812,0,0,1-2.594-1.09659A3.77181,3.77181,0,0,1,0,31.256Z" fill="#1f4aff" fill-rule="evenodd" id="Schild" />
<g id="Text">
<text fill="#fff" font-family="AudiTypeDisplayHigh-Normal, Audi Type Display High" font-size="22" text-anchor="middle" transform="translate(32 25.22952)">{value}</text>
</g>
</g>
</svg>