<svg xmlns="http://www.w3.org/2000/svg" data-name="Ebene 1" id="Ebene_1" viewBox="0 0 42 42">
<defs>
</defs>
<path d="M21,42l-.22073-.03021A34.524,34.524,0,0,1,.39882,31.4617L0,30.99666V0H42V30.99666l-.39882.465A34.524,34.524,0,0,1,21.22073,41.96979Z" fill="#fff" />
<path d="M21,40.5a33.76151,33.76151,0,0,1-19.5-10V1.5h39v29A33.76151,33.76151,0,0,1,21,40.5Z" fill="none" stroke="#000" stroke-miterlimit="10" stroke-width="1.10506px" />
<line fill="none" stroke="#000" stroke-miterlimit="10" stroke-width="1.10506px" x1="1.5" x2="40.5" y1="12.5" y2="12.5" />
<g id="text">
<path d="M8.69916,9.8958V6.44863L7.50105,8.62807,6.273,6.44863V9.8958H5V4.07815H6.273L7.50105,6.136,8.69916,4.07815h1.258V9.8958h-1.258" id="path4702" />
<path d="M12.13716,9.8958V4.07815h3.69916v.75542H13.41015V6.32706H15.0276v.77279H13.41015V9.14037h2.561V9.8958H12.13716" id="path4704" />
<path d="M20.28921,9.8958l-.98844-1.754-.97346,1.754H16.94948l1.69233-2.97829L17.02437,4.07815h1.40777l.86863,1.61505.92853-1.61505h1.36285L19.97471,6.91751,21.667,9.8958H20.28921" id="path4706" />
<path d="M23.25242,9.8958V4.07815h1.273V9.8958h-1.273" id="path4708" />
<path d="M30.74691,8.52388a2.2511,2.2511,0,0,1-.015.28654,1.18694,1.18694,0,0,1-.015.19971.709.709,0,0,1-.04493.14761,1.4524,1.4524,0,0,1-.07488.14762.96348.96348,0,0,1-.599.5123A3.24821,3.24821,0,0,1,28.84492,10a3.68193,3.68193,0,0,1-1.258-.18234,1.40693,1.40693,0,0,1-.71887-.59914,2.95366,2.95366,0,0,1-.3145-.93777,7.26722,7.26722,0,0,1-.10483-1.28509q0-.19971.015-.43415t.04493-.46889q.04492-.24312.08986-.4602a3.1777,3.1777,0,0,1,.10483-.39074,1.56007,1.56007,0,0,1,.67394-.95514,3.44387,3.44387,0,0,1,2.77062.00869,1.0791,1.0791,0,0,1,.599.82489H29.444a.35111.35111,0,0,0-.20967-.26918.8273.8273,0,0,0-.41933-.09551.91462.91462,0,0,0-.53915.13893.96.96,0,0,0-.31451.42547,2.26816,2.26816,0,0,0-.11981.356q-.03.17367-.05991.37337-.015.191-.03.42547V7.534q.015.22576.03.41679.03.18234.05991.356a2.97781,2.97781,0,0,0,.11981.34732,1.17548,1.17548,0,0,0,.29953.44284.8206.8206,0,0,0,.5092.14761.69335.69335,0,0,0,.50919-.165.769.769,0,0,0,.16474-.55572h1.30294" id="path4710" />
<path d="M37,6.97829q0,.23445,0,.55572a3.73988,3.73988,0,0,1-.05991.65123,2.70282,2.70282,0,0,1-.17971.66859,1.56731,1.56731,0,0,1-.38939.58177,1.87281,1.87281,0,0,1-.67394.4081A2.85011,2.85011,0,0,1,34.67866,10a3.02864,3.02864,0,0,1-1.04834-.1563,2.06374,2.06374,0,0,1-.67394-.4081,1.85343,1.85343,0,0,1-.38938-.58177,3.17922,3.17922,0,0,1-.16474-.66859,4.95491,4.95491,0,0,1-.04493-.65123V6.41389a4.82335,4.82335,0,0,1,.04493-.65123,2.94765,2.94765,0,0,1,.19469-.64254,1.662,1.662,0,0,1,.38939-.5644,1.79738,1.79738,0,0,1,.659-.39942A2.97762,2.97762,0,0,1,34.67866,4a2.85033,2.85033,0,0,1,1.01839.1563,1.78366,1.78366,0,0,1,.67394.39942,1.49328,1.49328,0,0,1,.38939.57308,2.45221,2.45221,0,0,1,.17971.64255A3.64081,3.64081,0,0,1,37,6.42258q0,.31258,0,.55571m-1.33289,0q0-.12156-.015-.33a3.71015,3.71015,0,0,0-.02995-.45152,4.44353,4.44353,0,0,0-.08986-.50362,1.6989,1.6989,0,0,0-.17972-.46889.99194.99194,0,0,0-.26957-.33864.63179.63179,0,0,0-.40436-.13024.80375.80375,0,0,0-.47925.13893,1.04231,1.04231,0,0,0-.29952.34732,2.07488,2.07488,0,0,0-.16474.46888q-.04492.2605-.07488.51231-.015.24312-.015.45152.015.19971.015.3039,0,.09552-.015.30391,0,.19971.015.45152.02994.2518.07488.521a2.22784,2.22784,0,0,0,.16474.48625,1.24285,1.24285,0,0,0,.29952.36469.80373.80373,0,0,0,.47925.13893.73744.73744,0,0,0,.46426-.13893,1.06385,1.06385,0,0,0,.28455-.36468,1.51384,1.51384,0,0,0,.16474-.48626,4.95466,4.95466,0,0,0,.05991-.521,2.36164,2.36164,0,0,0,.015-.45152q0-.20839,0-.30391" id="path4712" />
</g>
<text font-family="AudiTypeDisplayHigh-Bold, Audi Type Display High" font-size="15px" font-weight="700" isolation="isolate" text-anchor="middle" transform="translate(21 29.24351)">{value}</text>
</svg>