<svg xmlns="http://www.w3.org/2000/svg" viewBox="0 0 50 40"><defs><style>.cls-1{fill:#000;}.cls-2{fill:#fff;}.cls-3{font-size:17px;font-family:AudiTypeDisplayHigh-Bold, Audi Type Display High;font-weight:700;fill:#fff;}.cls-4{fill:none;stroke:#fff;stroke-miterlimit:10;}</style></defs><rect class="cls-1" height="40" rx="2" width="50" />  <path class="cls-4" d="m.5,2.00012c0-.82715.67285-1.5,1.5-1.5h46c.82715,0,1.5.67285,1.5,1.5v36c0,.82715-.67285,1.5-1.5,1.5h-24.71809"/>
  <path class="cls-2" d="m.00169,3.34127c.00642,4.61337-.01808,9.24529.00986,13.86896.00156.25845.06366.51442.18355.74339.23958.45755-.20548,1.06247.12689,1.51765-.0333,1.2,2.06.733,1.49,2.07-.41063.70496-.14008,1.50261-.1466,2.31284-.00374.46449-.19153.91215-.48372,1.27325C.65087,25.78335.0096,26.35145.0169,27.27127c-.18,1.13,1.57,1.8.647,3-.36071.82594-.73408,1.9503-.65491,2.93v4.82551c0,1.09048.88401,1.97449,1.97449,1.97449h18.25103c1.09048,0,1.97448-.88401,1.97448-1.97448l-.00002-11.25064c0-.48735-.18324-.95941-.50833-1.32249-.12332-.13773-.24098-.26816-.35865-.38539-.0667-.467-.467-.6-.867-.4-.467.267.0667,1.13-.4,1.07-.667.133-1.33.2-2,.267-.6-.333-.733.4-1,.467-.533.0667-1.4-.2-1.6.267-.4.333-.533-.533-.8-.8,0-.533-.2-1.13-.933-1.13-.8-.2,0-1.27-.667-1.6-.54764-.50746-.90126-1.18995-1-1.93.0667-.533-.667-.8-1-.933-.28346.45971-.64565.86592-1.07,1.2-.533-.267-.467-1-.8-1.33.0667-.4.933-.467.467-1-.133-.533,0-1.2-.133-1.8.013-.63686.12536-1.2678.333-1.87-.0667-.733-1.07.333-1.13-.467-.133-.467-.867,0-.933-.6-.133-.6-.667-.8-.933-1.2-.6.0667-.133-1-.8-.8-.733.333-.933-.667-1.27-1.07.04602-.94987-.32248-1.87296-1.01-2.53-.447-.467-.133-1.13-.227-1.67v-1.88551c0-1.09048-.88401-1.97449-1.97449-1.97449H.03899"/>
<text class="cls-3" text-anchor="middle" transform="translate(30 15.7)">{value}</text></svg>