<svg xmlns="http://www.w3.org/2000/svg" id="svg2" viewBox="0 0 40 40"><defs /><rect height="40" id="Hintergrund" rx="2" width="40" /><g id="Form"><path d="M33.16618,37.78447c.10031-.2638-.04124-.60594-.39564-.95627-.7041-.69606-.8084-.85093-.8084-1.20043a.69449.69449,0,0,0-.15737-.51278.966.966,0,0,1-.191-.54563.67737.67737,0,0,0-.32026-.604c-.26995-.23249-.28424-.26225-.245-.50984a.59166.59166,0,0,1,.21773-.39629,4.93308,4.93308,0,0,0,.42567-.38888c.19336-.19789.29183-.25052.43673-.23341.15936.01881.20058.06859.27816.33587.086.29619.28629.51983.46564.51983.13943,0,.29-.20253.29-.39006a.67894.67894,0,0,1,.10544-.331,1.77309,1.77309,0,0,0,.13143-.89845l-.075-28.33055H6.65964V17.78594l6.37275,5.02031-6.37275-.02067v7.22169H22.76957l9.85093,7.70107C32.99341,37.99988,33.0778,38.01692,33.16618,37.78447Z" fill="#fff" id="path2226" /></g><g id="Nevada"><path d="M10.95887,28.90958,9.14846,25.85791v3.05167H8.31618V23.916h.83228L10.813,26.69018V23.916h.83227v4.99363Z" id="path3274" /><path d="M12.58666,28.90958V23.916h2.94255v.83227h-1.942v1.10969h1.38712v.83227H13.58724V28.0773l2.21939.02734v.80494Z" id="path3272" /><path d="M18.441,28.90958h-.58L16.36148,23.916h.78508L18.158,27.24761l.99726-3.33166h.79931Z" id="path3270" /><path d="M23.05261,28.90958l-.46689-1.40109H21.10753l-.46689,1.40109h-.79931l1.634-4.99363h.74256l1.634,4.99363ZM21.8572,25.30225l-.48806,1.40131H22.317Z" id="path3268" /><path d="M27.73586,26.40537a3.72666,3.72666,0,0,1-.21575,1.32295,2.07166,2.07166,0,0,1-.619.89808.86809.86809,0,0,1-.31481.20118,1.36012,1.36012,0,0,1-.36426.082H24.51033V23.916h1.52783q.177,0,.3078.01125a1.28747,1.28747,0,0,1,.23691.04107.74819.74819,0,0,1,.19092.082q.08482.0522.1839.12657a2.20631,2.20631,0,0,1,.57656.91309,3.93848,3.93848,0,0,1,.20161,1.31545Zm-.76391,0a3.59868,3.59868,0,0,0-.10264-.90184,1.3872,1.3872,0,0,0-.27944-.58886.83229.83229,0,0,0-.21217-.149.597.597,0,0,0-.26874-.05959H25.2602v3.39854h.74968a.91406.91406,0,0,0,.3077-.0447.57491.57491,0,0,0,.22287-.14909,1.44212,1.44212,0,0,0,.32184-.61491,3.306,3.306,0,0,0,.10966-.89057Z" id="path3264" /><path d="M31.37532,28.90958l-.46689-1.40109H29.43026l-.46691,1.40109h-.7993l1.634-4.99363h.74253l1.634,4.99363Zm-1.1954-3.60733-.488,1.40131h.94782Z" id="path3260" /></g><text font-family="AudiTypeDisplayHigh-Bold, Audi Type Display High" font-size="17px" font-weight="700" transform="translate(8.16717 17.67314)">{value}</text></svg>