<svg xmlns="http://www.w3.org/2000/svg" viewBox="0 0 40 40"><g id="ri_uae_emirate_2dig"><g id="Schild"><path d="M2.58153,0H37.41847A2.58156,2.58156,0,0,1,40,2.58154v34.837A2.58146,2.58146,0,0,1,37.41847,40H2.58153A2.58146,2.58146,0,0,1,0,37.41857V2.58154A2.58156,2.58156,0,0,1,2.58153,0Z" fill="#fff" fill-rule="evenodd" /><path d="M38.88152,2.27035l-3.44663-.0008V5.69926H32.00518V2.26955H28.57547V5.69926H25.14576V2.26955H21.71605V5.69926h-3.4297V2.26955H14.85664V5.69926H11.42693V2.26955H7.99722V5.69926H4.56751V2.26955H1.13781V9.129H3.42428L2.281,38.85311l18.40644-.00469,17.03388.00469L36.57812,9.129H38.8646Z" fill="#50a556" /></g><text fill="#e3dc5a" font-family="AudiTypeDisplayHigh-Bold, Audi Type Display High" font-size="22" font-weight="700" transform="translate(5.41533 29.59717) scale(0.95242 1)">{value}</text></g></svg>