<svg xmlns="http://www.w3.org/2000/svg" viewBox="0 0 36 40"><g id="ri_argentina_national_2dig"><g id="Schild"><g id="path9"><path d="M1.27564,32.377C.50806,32.041.13452,31.582.135,31L.13452,2.3999A2.27964,2.27964,0,0,1,2.4231.13477H33.5769A2.27922,2.27922,0,0,1,35.865,2.3999V31a1.55357,1.55357,0,0,1-1.09814,1.34668L17.97827,39.85254Z" fill="#fff" fill-rule="evenodd" /><path d="M33.57715.27A2.144,2.144,0,0,1,35.73,2.4V31.00027c.00073.68363-.54443,1.01326-1.06055,1.24246L17.97827,39.70422,1.29932,32.23973C.6062,31.93642.26953,31.531.27,31V2.4A2.148,2.148,0,0,1,2.44067.27H33.57715m0-.27H2.42285A2.41151,2.41151,0,0,0,0,2.4V31c-.001,1.00722,1.01709,1.40912,1.22046,1.5L17.97827,40l16.80127-7.51078C35.04175,32.37053,36.001,31.99285,36,31V2.4A2.41149,2.41149,0,0,0,33.57715,0Z" fill="#1f1a17" /></g><path d="M2.0791,30.9502a1.89446,1.89446,0,0,1-.2085-.1045V2.3999a.7006.7006,0,0,1,.69971-.6997H33.42968a.70059.70059,0,0,1,.69971.6997v28.439c-.03711.02051-.08984.04785-.16357.08105L17.979,38.13477Z" fill="#fff" fill-rule="evenodd" /><path d="M33.42969,2.20019a.19993.19993,0,0,1,.1997.19971l0,28.12333L17.97924,37.58636,2.37061,30.53377V2.3999a.19993.19993,0,0,1,.1997-.19971H33.42969m0-1H2.57031A1.20093,1.20093,0,0,0,1.37061,2.3999V31.001c-.0005.15137.25243.29492.50243.40528l16.106,7.27734L34.17089,31.376c.40431-.18164.459-.292.4585-.376V2.3999a1.20093,1.20093,0,0,0-1.1997-1.19971Z" fill="#1f1a17" /><rect fill="#0075a8" height="2.25" id="rect13" width="17.22532" x="18.50002" y="14.00003" /><rect fill="#fff" height="2.25" id="rect15" width="17.22532" x="18.50002" y="11.75004" /><rect fill="#0075a8" height="2.25" id="rect17" width="17.22532" x="18.50002" y="9.50004" /><rect fill="#1f1a17" height="1" id="rect19" width="35.65952" x="0.17023" y="8.50004" /><rect fill="#1f1a17" height="1" id="rect21" width="35.65952" x="0.17023" y="16.25003" /><path d="M3.37936,15.90535V9.84462H5.22178a2.276,2.276,0,0,1,1.01046.16368,1.208,1.208,0,0,1,.49724.56587,2.1969,2.1969,0,0,1,.19444.9652,1.99289,1.99289,0,0,1-.29661,1.14583,1.29554,1.29554,0,0,1-.84549.54467,2.35393,2.35393,0,0,1,.464.5066,7.41205,7.41205,0,0,1,.50217.98637l.52549,1.1825H6.23224l-.63507-1.3194a8.85056,8.85056,0,0,0-.4652-.89463.725.725,0,0,0-.25971-.24837,1.05124,1.05124,0,0,0-.43934-.06773H4.252v2.53013h-.8726Zm.8726-3.49816h.64985a2.87364,2.87364,0,0,0,.75688-.05927.49956.49956,0,0,0,.2634-.2413,1.00976,1.00976,0,0,0,.10093-.484.94045.94045,0,0,0-.10093-.46568.529.529,0,0,0-.27446-.2413,2.99362,2.99362,0,0,0-.71013-.04514H4.252Z" fill="#1f1a17" fill-rule="evenodd" id="path27" /><path d="M7.74354,15.90535V14.744h.832v1.16136Z" fill="#1f1a17" fill-rule="evenodd" id="path29" /><path d="M13.33856,15.90535H12.3872l-.37907-1.37726H10.2777l-.35692,1.37726H8.99033l1.68736-6.06073h.92675l1.73411,6.06073Zm-1.611-2.39748-.59569-2.24932-.58709,2.24932h1.18278Z" fill="#1f1a17" fill-rule="evenodd" id="path31" /><path d="M13.79757,15.90535V14.744h.832v1.16136Z" fill="#1f1a17" fill-rule="evenodd" id="path33" /><rect fill="#fff" height="6.74998" width="2.11035" x="0.88965" y="9.50004" /><rect fill="#1f1a17" height="6.74998" id="rect23" width="1.00629" x="17.49685" y="9.50004" /><line fill="#1f1a17" stroke="#000" stroke-miterlimit="10" x1="5.00546" x2="30.99461" y1="5.22915" y2="5.22915" /></g><text font-family="AudiTypeDisplayHigh-Bold, Audi Type Display High" font-size="16" font-weight="700" transform="translate(6.65186 30.72656) scale(1.01899 1)">{value}</text></g></svg>