<svg xmlns="http://www.w3.org/2000/svg" id="Icon" viewBox="0 0 48 37"><defs /><rect fill="#fff" height="37" rx="2" width="48" /><rect fill="#fff" height="34" rx="1.5" width="45" x="1.5" y="1.5" /><path d="M45,2a1.00113,1.00113,0,0,1,1,1V34a1.00113,1.00113,0,0,1-1,1H3a1.00113,1.00113,0,0,1-1-1V3A1.00113,1.00113,0,0,1,3,2H45m0-1H3A2,2,0,0,0,1,3V34a2,2,0,0,0,2,2H45a2,2,0,0,0,2-2V3a2,2,0,0,0-2-2Z" fill="#008d60" /><path d="M1.5,13.5V3A1.50164,1.50164,0,0,1,3,1.5H45A1.50164,1.50164,0,0,1,46.5,3V13.5Z" fill="#008d60" /><path d="M45,2a1.00113,1.00113,0,0,1,1,1V13H2V3A1.00113,1.00113,0,0,1,3,2H45m0-1H3A2,2,0,0,0,1,3V14H47V3a2,2,0,0,0-2-2Z" fill="#008d60" /><path d="M6.44886,11.85121V3.15375H9.757a3.83831,3.83831,0,0,1,1.51669.2341,1.75578,1.75578,0,0,1,.82928.82829,2.77642,2.77642,0,0,1,.31048,1.31037,2.40091,2.40091,0,0,1-.51383,1.56034,2.45138,2.45138,0,0,1-1.58812.80745,2.51071,2.51071,0,0,1,.59517.43249,5.85973,5.85973,0,0,1,.82035,1.15761l1.29747,2.36681H11.7826l-.987-1.80933q-.433-.78266-.71321-1.19828a2.43081,2.43081,0,0,0-.50094-.58128A1.38463,1.38463,0,0,0,9.1311,8.0302a2.61531,2.61531,0,0,0-.54954-.04166H7.43585v3.86267Zm.987-4.85859H9.55864a2.75736,2.75736,0,0,0,1.05841-.16368,1.16385,1.16385,0,0,0,.58029-.52176,1.58883,1.58883,0,0,0,.19839-.78067,1.3995,1.3995,0,0,0-.38388-1.01378A1.62775,1.62775,0,0,0,9.7977,4.115H7.43585Z" fill="#fff" stroke="#fff" stroke-miterlimit="10" stroke-width="0.21649px" /><path d="M13.66037,7.61556a5.21968,5.21968,0,0,1,.9979-3.3905,3.313,3.313,0,0,1,4.438-.64973,3.61321,3.61321,0,0,1,1.26475,1.605,5.94892,5.94892,0,0,1,.43447,2.33406,5.83027,5.83027,0,0,1-.45729,2.36681,3.46658,3.46658,0,0,1-1.29747,1.58117A3.30454,3.30454,0,0,1,17.22842,12a3.15393,3.15393,0,0,1-1.88272-.59418,3.67051,3.67051,0,0,1-1.2578-1.61887A5.59907,5.59907,0,0,1,13.66037,7.61556Zm1.01774.01786a3.85228,3.85228,0,0,0,.72611,2.47691,2.29073,2.29073,0,0,0,3.65436-.00893,4.10939,4.10939,0,0,0,.72016-2.593,5.09809,5.09809,0,0,0-.3085-1.854,2.6898,2.6898,0,0,0-.90069-1.228A2.19427,2.19427,0,0,0,17.23834,3.99a2.35051,2.35051,0,0,0-1.80436.84019A4.15855,4.15855,0,0,0,14.67811,7.63342Z" fill="#fff" stroke="#fff" stroke-miterlimit="10" stroke-width="0.21649px" /><path d="M26.96545,3.15375h.987V8.179a6.85515,6.85515,0,0,1-.25493,2.08211,2.47205,2.47205,0,0,1-.91855,1.25483A2.89219,2.89219,0,0,1,25.0361,12a3.163,3.163,0,0,1-1.71509-.42158,2.31508,2.31508,0,0,1-.95228-1.21911A6.70481,6.70481,0,0,1,22.084,8.179V3.15375h.987V8.173a5.61611,5.61611,0,0,0,.18153,1.66946,1.547,1.547,0,0,0,.621.82828,1.91,1.91,0,0,0,1.07627.29064,1.88266,1.88266,0,0,0,1.5524-.57533,3.73859,3.73859,0,0,0,.46325-2.213Z" fill="#fff" stroke="#fff" stroke-miterlimit="10" stroke-width="0.21649px" /><path d="M31.49372,11.85121V4.18043H29.03566V3.15375h5.914V4.18043h-2.468v7.67078Z" fill="#fff" stroke="#fff" stroke-miterlimit="10" stroke-width="0.21649px" /><path d="M35.9833,11.85121V3.15375h5.39524V4.18043H36.97129V6.84382h4.12752V7.86454H36.97129v2.96h4.57985v1.02668Z" fill="#fff" stroke="#fff" stroke-miterlimit="10" stroke-width="0.21649px" /><text font-family="AudiTypeDisplayHigh-Bold, Audi Type Display High" font-size="19px" font-weight="700" isolation="isolate" transform="translate(4.16281 30.9096)">{value}</text></svg>