<svg xmlns="http://www.w3.org/2000/svg" viewBox="0 0 36 36"><g id="ri_southafrica_provincial_1dig"><g id="Schild"><polygon fill="#578d87" fill-rule="evenodd" points="1.061 17.988 18 1.06 34.94 17.988 18 34.939 1.061 17.988" /><path d="M18,2.12059,33.87866,17.98827,18,33.87794,2.12134,17.98827,18,2.12059M18,0,0,17.98754,18,36,36,17.98754,18,0Z" fill="#fff" /><path d="M20.975,11.01186s-1.8841-1.8469-1.9696-1.8859a2.10159,2.10159,0,0,0,.5072-.2052,1.50415,1.50415,0,0,0,.3939-.3205,1.42124,1.42124,0,0,0,.2556-.4331,1.53547,1.53547,0,0,0,.0922-.5449,1.60292,1.60292,0,0,0-.1484-.7106,1.32627,1.32627,0,0,0-.434-.5064,2.02726,2.02726,0,0,0-.7056-.3031,4.16246,4.16246,0,0,0-.9652-.1007h-1.6426v5.0104l1.1161.0022V9.62986h.0508q.1122,0,.1974.0053c.0568.0035.0218.0095.0659.018a.59274.59274,0,0,1,.1192.0352.53671.53671,0,0,1,.1033.0584.74608.74608,0,0,1,.0992.0869q.049.051.1092.1184l.9387,1.0598ZM17.47464,8.388V7.14746h.4123a1.96378,1.96378,0,0,1,.7089.1486.568.568,0,0,1,.2226.1849.45193.45193,0,0,1,.0741.2582.54079.54079,0,0,1-.0721.2818.5699.5699,0,0,1-.2175.2031,1.19937,1.19937,0,0,1-.3669.1228,1.23318,1.23318,0,0,1-.3491.0411Z" fill="#dfd933" /></g><text fill="#dfd933" font-family="AudiTypeDisplayHigh-Bold, Audi Type Display High" font-size="18" font-weight="700" id="Text" transform="translate(11.73608 26.05502)">{value}</text></g></svg>