<svg xmlns="http://www.w3.org/2000/svg" id="Icon" viewBox="0 0 40 40"><defs /><rect height="40" id="Hintergrund_Schwarz" rx="2" width="40" /><path d="M7.71079,39.05043c-.14936-.12161-.15714-.15147-.07813-.29991.14716-.27647.43167-.3862,1.36651-.527.92816-.13982,1.19894-.216,1.19894-.33734a9.2174,9.2174,0,0,0-1.18389-1.60328,1.15069,1.15069,0,0,1-.40037-.80515c-.273-1.329-.82011-2.09629-1.484-2.08125-.81115.01837-1.426,1.2504-1.54081,3.08735a3.5678,3.5678,0,0,1-.23853,1.39755c-.15606.35472-.22246.4085-.50614.4099a.673.673,0,0,1-.46491-.24149c-.34118-.32352-.47851-.36687-1.17976-.37236-.48244-.00378-.6281-.0296-.76128-.13493a1.17147,1.17147,0,0,0-.47284-.17271c-.16949-.02336-.31068-.07637-.31376-.1178s-.01442-.1514-.02519-.24437-.04106-.52934-.06732-.96971-.05706-.88156-.06846-.98042-.04076-.54488-.06526-.99114-.05694-.96352-.0721-1.14946-.04376-.5891-.06356-.89591l-.072-1.11565c-.0198-.30681-.04858-.71-.06395-.89591s-.04571-.62713-.0674-.98042-.05242-.79448-.06827-.98043S.97056,27.3787.94746,26.97319.884,25.94394.85779,25.58707c-.05163-.70272-.09894-.3621.72407-5.21286.18613-1.09707.49255-2.90747.68092-4.02312S2.953,12.2688,3.378,9.75858s.92357-5.46164,1.10793-6.55871.35206-2.07833.37267-2.18059L4.89608.83333H34.86755l.07591.355c.04175.19524.45447,2.16539.91715,4.37811s1.341,6.41163,1.95186,9.33093,1.15157,5.52081,1.20161,5.78113c.22355,1.16283.20129,1.8919-.06564,2.15039a2.354,2.354,0,0,0-.41433,1.16276,2.06362,2.06362,0,0,1-.16875.57373c-.168.31883-.1552.61113.05489,1.25189A4.65877,4.65877,0,0,1,38.62861,27.44a5.8817,5.8817,0,0,1-.09406,1.65658,6.52838,6.52838,0,0,0-.10442,1.70641c.02065,1.131.02056,1.13178-.14834,1.3016a.63549.63549,0,0,1-.357.177c-.1034.00389-5.73356.00146-12.51147-.00542L13.08984,32.2637l-.00838.15755a2.51811,2.51811,0,0,0,.75064,2.14743,1.68128,1.68128,0,0,1,.15664,2.30769,2.62846,2.62846,0,0,0-.42063.74329l-.192.50265-1.33681.49285-1.3368.49285-1.4129.03873C7.94643,39.18357,7.86848,39.17881,7.71079,39.05043Z" fill="#fff" id="Alabama" /><text font-family="AudiTypeDisplayHigh-Bold, Audi Type Display High" font-size="24px" font-weight="700" transform="translate(3.29492 25.46527)">{value}</text></svg>