<svg xmlns="http://www.w3.org/2000/svg" id="Icon" viewBox="0 0 50 40"><defs /><rect fill="#00924c" height="38" rx="2" width="48" x="1" y="1" /><path d="M24.3806,31.78857l-.32-.88571-1.0161.01839-.52149.49542A2.46665,2.46665,0,0,1,20.102,33.125c-1.043.08257-1.68421-1.375-3.18193.13255-.61513.61917-1.79913-.1961-2.112-.31995A10.17865,10.17865,0,0,0,13.00024,31.644c-1.00811-.40016-2.29623-.34288-2.57267-.6055-.52148-.49541-2.25977-1.9266-2.15547-2.422s2.46187.11009,3.30274.11009c.79961,0,1.56446-1.0734,1.35587-1.40367s-3.02462-.90826-3.7547-1.5688-3.68877-1.50588-4.45-2.25688c-4.51955-4.45871,1.42845-.32046,1.46016-2.25688.038-2.31761-.73008-2.47706-1.043-2.97247s-.03477-2.09174-.03477-2.50458.62579-.90826-.83437-.99082,1.56445-1.73395,5.24962.46789c.9401.56169,2.213-.60185,3.40705-.77065,1.94688-.27522-2.30094-1.66-1.5297-1.81651,2.71173-.55045,4.65446,1.11879,5.00627.77065.83438-.82569-.591-.96331-.48672-2.20184s3.58087-2.44953.55625-4.34861c-.4903-.30785,2.19024-.44037,3.12892-.11009s1.56446.82568,2.29454-.08257S23.588,1.99219,24.99675,2H25c1.40873-.00781,2.3664,3.77251,3.09648,4.68077s1.35586.41284,2.29454.08257,3.61922-.19776,3.12892.11009c-3.02462,1.89908.452,3.11009.55625,4.34861s-1.3211,1.37615-.48672,2.20184c.35181.34814,2.29454-1.3211,5.00626-.77065.77124.15656-3.47657,1.54129-1.52969,1.81651,1.194.1688,2.46694,1.33234,3.407.77065,3.68517-2.20184,6.70979-.55046,5.24963-.46789s-.83438.578-.83438.99082.27813,2.00917-.03476,2.50458-1.08092.65486-1.043,2.97247c.0317,1.93642,5.9797-2.20183,1.46016,2.25688-.76125.751-3.71994,1.59633-4.45,2.25688s-3.5461,1.23853-3.7547,1.5688.55625,1.40367,1.35587,1.40367c.84087,0,3.19844-.60551,3.30274-.11009s-1.634,1.9266-2.15547,2.422c-.27644.26262-1.56456.20534-2.57267.6055a10.17865,10.17865,0,0,0-1.80782,1.29358c-.31289.12385-1.4969.93912-2.112.31995-1.49772-1.50755-2.139-.05-3.18193-.13255a2.46667,2.46667,0,0,1-2.42106-1.70833l-.52148-.49542-.83438.08257-.41607,1.024a12.05624,12.05624,0,0,0-.2807,3.5c.11146.46639.35088,1.47222.35088,1.47222H24.68421s-.223-1.13844-.24561-1.63889C24.40351,34.58333,24.3806,31.78857,24.3806,31.78857Z" fill="#fff" /><text font-family="AudiTypeDisplayHigh-Bold, Audi Type Display High" font-size="15px" font-weight="700" isolation="isolate" transform="translate(9.33876 26.35492)">{value}</text></svg>