<svg xmlns="http://www.w3.org/2000/svg" data-name="Layer 1" id="Layer_1" viewBox="0 0 50 40"><defs /><rect height="40" id="Schwarzer_Hintergrund" rx="2" width="50" /><rect fill="#fff" height="38" id="Weisse_Fl&#228;che" rx="2" width="48" x="1" y="1" /><polygon fill-rule="evenodd" id="Stern1" points="29.231 31.018 28.31 30.349 29.448 30.349 29.8 29.267 30.152 30.349 31.29 30.349 30.369 31.018 30.721 32.101 29.8 31.432 28.879 32.101 29.231 31.018" /><polygon fill-rule="evenodd" id="Stern2" points="27.564 35.185 26.643 34.516 27.782 34.516 28.133 33.433 28.485 34.516 29.623 34.516 28.702 35.185 29.054 36.267 28.133 35.598 27.213 36.267 27.564 35.185" /><polygon fill-rule="evenodd" id="Stern3" points="21.298 34.268 20.377 33.599 21.515 33.599 21.867 32.517 22.218 33.599 23.356 33.599 22.436 34.268 22.787 35.351 21.867 34.682 20.946 35.351 21.298 34.268" /><polygon fill-rule="evenodd" id="Stern4" points="21.298 29.785 20.377 29.116 21.515 29.116 21.867 28.033 22.218 29.116 23.356 29.116 22.436 29.785 22.787 30.867 21.867 30.198 20.946 30.867 21.298 29.785" /><polygon fill-rule="evenodd" id="Stern5" points="18.381 27.068 17.46 26.399 18.598 26.399 18.95 25.317 19.302 26.399 20.44 26.399 19.519 27.068 19.871 28.151 18.95 27.482 18.029 28.151 18.381 27.068" /><polygon fill-rule="evenodd" id="Stern6" points="14.114 24.885 13.193 24.216 14.332 24.216 14.683 23.133 15.035 24.216 16.173 24.216 15.252 24.885 15.604 25.967 14.683 25.298 13.763 25.967 14.114 24.885" /><polygon fill-rule="evenodd" id="Stern7" points="9.314 23.735 8.393 23.066 9.532 23.066 9.883 21.983 10.235 23.066 11.373 23.066 10.452 23.735 10.804 24.817 9.883 24.148 8.963 24.817 9.314 23.735" /><polygon fill-rule="evenodd" id="Stern8" points="38.159 6.962 36.689 5.894 38.505 5.894 39.067 4.167 39.628 5.894 41.444 5.894 39.975 6.962 40.536 8.689 39.067 7.622 37.597 8.689 38.159 6.962" /><path d="M12.21436,9.11326h-.80791l-.10966-1.40238H9.77244L8.937,9.11326H8.129l2.93925-4.87793h.73171Zm-.987-2.16461-.12665-1.42522-.85658,1.42522Zm4.336,2.16461H12.59084L13.8532,4.23533h.76223L13.55026,8.35114H15.7606Zm4.46188,0h-.808l-.1096-1.40238H17.58331l-.83557,1.40238h-.80785l2.9392-4.87793h.73171Zm-.98709-2.16461-.1265-1.42522-.85673,1.42522Zm5.01571.7165a1.93132,1.93132,0,0,1-.73511,1.04416,1.99433,1.99433,0,0,1-1.25407.45736A1.21674,1.21674,0,0,1,20.866,8.52641a1.94236,1.94236,0,0,1-.13723-.64784l.78329-.22868a1.24764,1.24764,0,0,0,.0094.22868.66338.66338,0,0,0,.74245.51829,1.10976,1.10976,0,0,0,.63446-.21342.91086.91086,0,0,0,.39718-.53355.57329.57329,0,0,0-.4014-.7165c-.34-.1295-.67226-.259-1.00261-.39627a.83953.83953,0,0,1-.33218-1.01369,1.75388,1.75388,0,0,1,.57347-.86136,1.83355,1.83355,0,0,1,1.26384-.4954,1.05564,1.05564,0,0,1,.98266.50308,1.6633,1.6633,0,0,1,.17273.51061l-.78328.22868a.87508.87508,0,0,0-.08362-.23626.53671.53671,0,0,0-.48767-.23631.9204.9204,0,0,0-.55044.183.75371.75371,0,0,0-.31422.41921c-.05921.22862.086.404.45084.52591a4.64166,4.64166,0,0,1,.99665.41921A1.06113,1.06113,0,0,1,24.06321,7.688Zm3.35531,1.44811h-.86131l-.63507-2.31694-.64952.62489-.43792,1.69205h-.76213l1.26231-4.87793h.76223l-.501,1.93593,1.99483-1.93593h.968L26.59709,6.12554l.8197,2.98772Zm4.46187,0h-.8079l-.10966-1.40238H29.42922l-.83557,1.40238h-.808l2.93925-4.87793h.73171Zm-.98714-2.16461-.12644-1.42522-.85673,1.42522Z" fill-rule="evenodd" id="Alaska" /><text font-family="AudiTypeDisplayHigh-Bold, Audi Type Display High" font-size="15px" font-weight="700" transform="translate(16.67326 22.61413)">{value}</text></svg>