<svg xmlns="http://www.w3.org/2000/svg" id="Icon" viewBox="0 0 44 40"><defs /><polygon fill="#fff" points="44 0 0 0 9 40 35 40 44 0" /><polygon fill="#fff" points="9.99 38.5 4.338 13.5 39.661 13.5 34.01 38.5 9.99 38.5" /><path d="M39.0358,14,33.61,38H10.39L4.9642,14H39.0358m1.25131-1H3.71289l5.878,26H34.40912l5.878-26Z" /><polygon fill="#008d60" points="40.513 12 43 1 1 1 3.487 12 40.513 12" /><path d="M6.24121,10.43164V2.56445H9.23389a3.4648,3.4648,0,0,1,1.37158.21192,1.59144,1.59144,0,0,1,.75049.74853,2.52247,2.52247,0,0,1,.28076,1.186,2.17072,2.17072,0,0,1-.46484,1.41162,2.21558,2.21558,0,0,1-1.43653.72949,2.30457,2.30457,0,0,1,.53858.39209,5.28125,5.28125,0,0,1,.74121,1.04639l1.17431,2.14111H11.06592l-.89307-1.63672q-.39111-.70825-.64453-1.084a2.21,2.21,0,0,0-.45361-.52588,1.25531,1.25531,0,0,0-.40723-.20947,2.31962,2.31962,0,0,0-.49707-.0376H7.13428v3.49365Zm.89307-4.395H9.0542a2.50534,2.50534,0,0,0,.95752-.14746,1.05908,1.05908,0,0,0,.5249-.47266,1.43331,1.43331,0,0,0,.17969-.70556,1.26681,1.26681,0,0,0-.34766-.91748,1.4702,1.4702,0,0,0-1.09814-.35938H7.13428Z" fill="#fff" stroke="#fff" stroke-miterlimit="10" stroke-width="0.19403px" /><path d="M12.76465,6.6001A4.72639,4.72639,0,0,1,13.667,3.5332a2.9966,2.9966,0,0,1,4.01465-.58789,3.25957,3.25957,0,0,1,1.144,1.45166,5.3744,5.3744,0,0,1,.39356,2.11182,5.28376,5.28376,0,0,1-.41406,2.14111,3.13106,3.13106,0,0,1-1.17432,1.43018,2.98654,2.98654,0,0,1-1.63867.48584,2.85954,2.85954,0,0,1-1.70362-.53662A3.32684,3.32684,0,0,1,13.15137,8.564,5.05453,5.05453,0,0,1,12.76465,6.6001Zm.9209.01611a3.48424,3.48424,0,0,0,.65625,2.24024A2.07183,2.07183,0,0,0,17.647,8.84863a3.70761,3.70761,0,0,0,.65186-2.34521A4.617,4.617,0,0,0,18.02,4.82666a2.42539,2.42539,0,0,0-.81494-1.11084,1.98044,1.98044,0,0,0-1.20362-.39453,2.12427,2.12427,0,0,0-1.63232.75928A3.76389,3.76389,0,0,0,13.68555,6.61621Z" fill="#fff" stroke="#fff" stroke-miterlimit="10" stroke-width="0.19403px" /><path d="M24.79883,2.56445h.89355V7.10986a6.21011,6.21011,0,0,1-.23047,1.88379,2.242,2.242,0,0,1-.83105,1.13477,2.61754,2.61754,0,0,1-1.57715.4375,2.85515,2.85515,0,0,1-1.55078-.38135A2.08974,2.08974,0,0,1,20.6416,9.082a6.05035,6.05035,0,0,1-.25781-1.97217V2.56445h.89355v4.54a5.09935,5.09935,0,0,0,.16309,1.51074,1.39833,1.39833,0,0,0,.56152.74854,1.72812,1.72812,0,0,0,.97364.26269,1.702,1.702,0,0,0,1.40429-.5205,3.37682,3.37682,0,0,0,.41895-2.00147Z" fill="#fff" stroke="#fff" stroke-miterlimit="10" stroke-width="0.19403px" /><path d="M28.89648,10.43164v-6.939H26.67285V2.56445h5.34961v.92823H29.79v6.939Z" fill="#fff" stroke="#fff" stroke-miterlimit="10" stroke-width="0.19403px" /><path d="M32.957,10.43164V2.56445h4.87988v.92823h-3.9873V5.90234H37.584V6.8252H33.84961V9.50342h4.14355v.92822Z" fill="#fff" stroke="#fff" stroke-miterlimit="10" stroke-width="0.19403px" /><text font-family="AudiTypeDisplayHigh-Bold, Audi Type Display High" font-size="14px" font-weight="700" isolation="isolate" transform="translate(7.38343 26.04326)">{value}</text></svg>