<svg xmlns="http://www.w3.org/2000/svg" id="Icon" viewBox="0 0 50 40"><defs /><rect height="40" id="Hintergrund_Schwarz" rx="2.23607" width="50" /><path d="M2.5065,11.66667H42.54567l.1085.39062.32552.78127.10851.60764.37978.56423.16276.39063-.16276.52083-.05426.52084.16276.95486-.10851.78127.16276.17361-.10851.52084.05426.99826.59678.651.434,1.25867.05425.30382.54254.78127.37977.73786.32553.56424v.434l.16276.26041-.10851.34723.217,1.99653.10851.78127v.73786l.32552.60764.32553.217-.05426.69447-.10851.30382.05426.651-.16277.47743.651,1.30207.16277.56423.92233.91147.05425.82467.37978,1.17187-.10851.78126.21583.434H1.04058l1.46484-25" fill="#fff" id="Form" /><g id="NorthDakota"><path d="M6.26117,8.33333l-1.222-2.96266V8.33333H4.24626v-5h.79291L6.14925,5.82587V3.33333h.79291v5h-.681" fill="#fff" id="path21230" /><path d="M11.162,5.826v.47761a4.405,4.405,0,0,1-.03731.5597,3.04755,3.04755,0,0,1-.11195.57463,1.46026,1.46026,0,0,1-.24253.5,1.17719,1.17719,0,0,1-.41977.35074,1.33861,1.33861,0,0,1-.63433.13433,1.4193,1.4193,0,0,1-.653-.13433,1.29521,1.29521,0,0,1-.41978-.35074,1.72782,1.72782,0,0,1-.24253-.5,3.61251,3.61251,0,0,1-.10261-.57463q-.028-.291-.028-.5597V5.34093q0-.27612.028-.5597A3.28449,3.28449,0,0,1,8.41948,4.229,1.531,1.531,0,0,1,8.662,3.74391a1.12969,1.12969,0,0,1,.41045-.34328,1.39655,1.39655,0,0,1,.64366-.13433,1.33867,1.33867,0,0,1,.63433.13433,1.11138,1.11138,0,0,1,.41977.34328,1.38306,1.38306,0,0,1,.24253.49254,2.7532,2.7532,0,0,1,.112.55224,4.28826,4.28826,0,0,1,.03731.5597V5.826m-.83022,0q0-.10448-.00933-.28358,0-.1791-.01866-.38806-.01866-.2164-.056-.43283a1.82825,1.82825,0,0,0-.11194-.403A.86259.86259,0,0,0,9.968,4.0275a.32852.32852,0,0,0-.25187-.11194.40905.40905,0,0,0-.2985.1194.87606.87606,0,0,0-.18657.29851,2.2655,2.2655,0,0,0-.10262.403q-.028.22388-.04664.4403-.00933.209-.00933.38806.00933.17164.00933.26119,0,.0821-.00933.26119,0,.17164.00933.38806.01866.21642.04664.44776a2.446,2.446,0,0,0,.10262.41792,1.06858,1.06858,0,0,0,.18656.31343.409.409,0,0,0,.29851.1194.37853.37853,0,0,0,.28919-.1194.93369.93369,0,0,0,.17724-.31343,1.659,1.659,0,0,0,.10261-.41792q.028-.23133.03731-.44776a2.79542,2.79542,0,0,0,.00933-.38806V5.826" fill="#fff" id="path21232" /><path d="M15.16283,4.736a1.27059,1.27059,0,0,1-.15858.67913,1.13752,1.13752,0,0,1-.4944.42537L15.14417,8.333h-.81156l-.709-2.3358h-.36381V8.333h-.7929v-5h1.23133q1.46449,0,1.46458,1.403m-.81157-.01493A.85324.85324,0,0,0,14.202,4.139a.73218.73218,0,0,0-.55037-.15672h-.39179V5.348h.52239A.59045.59045,0,0,0,14.23,5.21365a.74812.74812,0,0,0,.12126-.49254" fill="#fff" id="path21234" /><path d="M17.3595,3.98267V8.3334h-.79291V3.98267h-.76492V3.33341h2.36942v.64926h-.81157" fill="#fff" id="path21236" /><path d="M21.09783,8.33333V5.99753H19.98775v2.3358h-.79291v-5h.79291V5.34827h1.11008V3.33333h.79291v5h-.79291" fill="#fff" id="path21238" /><path d="M27.452,5.826a3.14374,3.14374,0,0,1-.569,2.2612.90145.90145,0,0,1-.35448.18657,1.77254,1.77254,0,0,1-.47575.0597H24.75607v-5h1.29667a1.12974,1.12974,0,0,1,.94217.36567,1.468,1.468,0,0,1,.19589.3806,2.00387,2.00387,0,0,1,.1306.46269,5.12144,5.12144,0,0,1,.09328.63432A5.74832,5.74832,0,0,1,27.452,5.826m-.81157.15672q0-.13433-.00933-.29851l-.01865-.34328q-.00933-.1791-.01866-.34328t-.01866-.29851a1.14018,1.14018,0,0,0-.16791-.5597.40569.40569,0,0,0-.35447-.15671H25.549V7.6842h.50373a.458.458,0,0,0,.33582-.11939.87732.87732,0,0,0,.18656-.41045q.00933-.06717.01866-.194t.01866-.291q.00931-.16419.01865-.34328t.00933-.34328" fill="#fff" id="path21240" /><path d="M30.8195,8.33333,30.465,6.99753H29.43894l-.35447,1.3358H28.2729l1.278-5h.80224l1.29667,5h-.83023M29.96142,5.0348l-.34515,1.3134h.67164l-.32649-1.3134" fill="#fff" id="path21242" /><path d="M34.58033,8.33333l-.83958-2.36566-.29851.48507v1.8806h-.79291v-5h.79291v1.597l.9795-1.597h.9235l-1.02608,1.7164,1.11008,3.2836h-.84891" fill="#fff" id="path21244" /><path d="M39.29283,5.826v.47761a4.405,4.405,0,0,1-.03731.5597,3.04752,3.04752,0,0,1-.11194.57463,1.46028,1.46028,0,0,1-.24254.5,1.17719,1.17719,0,0,1-.41977.35074,1.33861,1.33861,0,0,1-.63433.13433,1.4193,1.4193,0,0,1-.653-.13433,1.29507,1.29507,0,0,1-.41977-.35074,1.72758,1.72758,0,0,1-.24254-.5,3.61136,3.61136,0,0,1-.1026-.57463q-.028-.291-.028-.5597V5.34093q0-.27612.028-.5597a3.28349,3.28349,0,0,1,.12126-.55224,1.53077,1.53077,0,0,1,.24254-.48508,1.12957,1.12957,0,0,1,.41044-.34328A1.39655,1.39655,0,0,1,37.847,3.2663a1.33867,1.33867,0,0,1,.63433.13433,1.11138,1.11138,0,0,1,.41977.34328,1.38291,1.38291,0,0,1,.24254.49254,2.75319,2.75319,0,0,1,.11194.55224,4.28826,4.28826,0,0,1,.03731.5597V5.826m-.83022,0q0-.10448-.00933-.28358,0-.1791-.01866-.38806-.01866-.2164-.056-.43283a1.8277,1.8277,0,0,0-.11194-.403.86242.86242,0,0,0-.16791-.29105.3285.3285,0,0,0-.25186-.11194.40906.40906,0,0,0-.29851.1194.87606.87606,0,0,0-.18657.29851,2.26636,2.26636,0,0,0-.10262.403q-.028.22388-.04664.4403-.00931.209-.00933.38806.00933.17164.00933.26119,0,.0821-.00933.26119,0,.17164.00933.38806.01866.21642.04664.44776a2.446,2.446,0,0,0,.10262.41792,1.06838,1.06838,0,0,0,.18657.31343.40894.40894,0,0,0,.29851.1194.37852.37852,0,0,0,.28918-.1194.93352.93352,0,0,0,.17724-.31343A1.659,1.659,0,0,0,38.416,6.923q.028-.23133.03731-.44776a2.79387,2.79387,0,0,0,.00933-.38806V5.826" fill="#fff" id="path21246" /><path d="M41.67033,3.98267V8.3334h-.7929V3.98267H40.1125V3.33341h2.36942v.64926h-.81157" fill="#fff" id="path21248" /><path d="M45.56783,8.33333l-.35448-1.3358H44.18727l-.35447,1.3358h-.81157l1.278-5h.80224l1.29667,5h-.83023M44.70966,5.0348l-.34515,1.3134h.67164l-.32649-1.3134" fill="#fff" id="path21250" /></g><text font-family="AudiTypeDisplayHigh-Bold, Audi Type Display High" font-size="20px" font-weight="700" transform="translate(2.16087 32.03599)">{value}</text></svg>