<svg xmlns="http://www.w3.org/2000/svg" id="svg3487" viewBox="0 0 50 40"><defs /><rect fill="#fecb00" height="40" id="Hintergrund_Gelb" rx="2" width="50" /><path d="M47,39H3.01732a2,2,0,0,1-1.99993-2.01724L1.25,10H49V37A2,2,0,0,1,47,39Z" fill="#003478" id="Hintergrund_Blau" /><text fill="#fff" font-family="AudiTypeDisplayHigh-Bold, Audi Type Display High" font-size="22px" font-weight="700" id="Nummer" transform="translate(2.03068 32.46517)">{value}</text><path d="M1.0085,1.35912l.03977.15949v.07974l.03988.15949V2.037l-.03988.15949.03988.319-.03988.03987.03988.19936.0796.319.03989.07974.03977.27911.03988.11962v.67783l.03978.11962v.39872l.03982.11962.03989.15949.0796.19936.03988.15949L1.566,5.4261v.19936L1.52626,5.785V5.8647l-.07971.11962v.03987l-.03977.03987-.11949.07975v.11961l.0796.11962.03989.07974.0796.03988.07965.03987V6.5824l.03983.03987V9.17411H6.903V8.77538l-.03978-.03987-.03988-.03987-.0796-.15949-.03988-.03987H6.66407l-.11954-.07975-.07965-.03987L6.30557,8.257,6.26579,8.1773l-.03988-.07975-.03977-.03987-.03989-.07974h-.0796l-.03988-.03988-.11948-.07974-.03978-.03987L5.7878,7.7387H5.748L5.7082,7.69883H5.58872L5.54883,7.659l-.07965-.03988-.11949-.11961-.03977-.03988V6.702l.03977-.03987V6.62227l.03989-.03987V6.42291l-.07966-.07974L5.23021,6.3033V6.26342l-.03977-.03987V6.18368l.03977-.03987.07971-.19937V5.90457l.07966-.07974.31862-.19936V5.58559L5.748,5.54572V4.78815l.07972-.07975.5177-.51834.31868-.35885.15926-.19937L6.86321,3.592l.07966-.07974.15926-.11962.31868-.19936h.03982l.39828-.15949h.03978l.39828-.319H7.93852l-.03983-.03987L7.819,2.59516H7.18184l-.11949-.11962-.03988-.03987H6.98264l-.03977.03987H6.903l-.03978.03988L6.78356,2.635H6.74373l-.03988.03988-.19909.03987H6.42505l-.03977-.03987L6.26579,2.635V2.59516l-.03988-.03987V2.51542l-.19914-.03988L5.987,2.43567l-.03983-.07974-.03988-.03987H5.86751V2.27618H5.7878L5.748,2.31606H5.7082v.15948H5.62849V2.43567l-.07966-.11961V2.23631l-.03977-.03987H5.34969V2.037l-.39828-.15949H4.7921l-.03983.03987H4.7125l-.07965.07975L4.593,2.037v.03987H4.51336l-.11954.03987H4.31417l-.03983-.03987V2.037l-.03978-.03987V1.9572l-.03988-.03987H4.15485l-.27879-.03987H3.83628V1.83759h-.239l-.07965-.03988-.03983-.03987V1.718l-.15931-.7177A.14657.14657,0,0,0,3.27864.88065H3.199L3.11938.84078H2.9999v.51834Z" fill="#003478" fill-rule="evenodd" id="Form" /><g id="Minnesota"><path d="M15.27964,7.50744V4.61192L14.12292,7.50744,12.96621,4.61192V7.50744h-.79105v-5h.79105l1.15671,2.806,1.15672-2.806h.791v5h-.791" fill="#003478" id="path3836" /><path d="M17.15553,7.50744v-5h.806v5h-.806" fill="#003478" id="path3838" /><path d="M21.74737,7.50744,19.83692,4.11938V7.50744h-.791v-5h.791l1.82089,3.194v-3.194h.791v5h-.70149" fill="#003478" id="path3840" /><path d="M26.23216,7.50744,24.32171,4.11938V7.50744h-.791v-5h.791l1.8209,3.194v-3.194h.791v5h-.70149" fill="#003478" id="path3842" /><path d="M28.01546,7.50744v-5h2.94777v.79105H28.80651V4.52237h1.45523v.806H28.80651V6.70147h2.31343v.806H28.01547" fill="#003478" id="path3844" /><path d="M34.91118,6.06714a1.57043,1.57043,0,0,1-.12687.63433,1.47176,1.47176,0,0,1-.36567.50746A1.51936,1.51936,0,0,1,33.9261,7.5a1.78871,1.78871,0,0,1-.597.097,1.81375,1.81375,0,0,1-1.11194-.34328,2.33047,2.33047,0,0,1-.709-.92537l.75373-.27612a1.2833,1.2833,0,0,0,.43284.55224,1.10617,1.10617,0,0,0,.63433.18656.7564.7564,0,0,0,.5597-.20895.72068.72068,0,0,0,.21642-.52985.59744.59744,0,0,0-.13433-.403.99778.99778,0,0,0-.33582-.26119,2.81029,2.81029,0,0,0-.46269-.194q-.24627-.08208-.49254-.17911-.11193-.04476-.27611-.12686a1.44242,1.44242,0,0,1-.3209-.22388,1.46167,1.46167,0,0,1-.2612-.36567,1.212,1.212,0,0,1-.10447-.52985,1.44789,1.44789,0,0,1,.1194-.61941,1.09338,1.09338,0,0,1,.3209-.41791,1.33742,1.33742,0,0,1,.49253-.2388,2.51777,2.51777,0,0,1,.62687-.07463,1.37989,1.37989,0,0,1,.8806.27612,1.71715,1.71715,0,0,1,.54477.74627l-.70149.209a.829.829,0,0,0-.15672-.21641.77449.77449,0,0,0-.23134-.14926.89289.89289,0,0,0-.35075-.07463,1.12729,1.12729,0,0,0-.28358.02239.70033.70033,0,0,0-.25373.08955.497.497,0,0,0-.17911.18657.46306.46306,0,0,0-.05223.28358.44558.44558,0,0,0,.20149.35821,2.04347,2.04347,0,0,0,.45522.209q.26866.08955.57463.18657a1.96159,1.96159,0,0,1,.57463.26865,1.36334,1.36334,0,0,1,.43283.47015,1.48585,1.48585,0,0,1,.17911.78358" fill="#003478" id="path3846" /><path d="M39.0844,5.0149a4.51549,4.51549,0,0,1-.14179,1.1418,2.41057,2.41057,0,0,1-.403.88059,1.41643,1.41643,0,0,1-1.209.5597,1.61109,1.61109,0,0,1-.87313-.21641,1.59386,1.59386,0,0,1-.56716-.67911,3.38167,3.38167,0,0,1-.25373-.77612,4.53938,4.53938,0,0,1,.04477-2.0597,2.8746,2.8746,0,0,1,.403-.88806,1.37565,1.37565,0,0,1,.52985-.41791,1.79954,1.79954,0,0,1,.74627-.14179,1.46988,1.46988,0,0,1,.81343.21642,1.71827,1.71827,0,0,1,.57462.6791,3.4576,3.4576,0,0,1,.24627.78358,4.66931,4.66931,0,0,1,.08955.91791m-.791,0a3.84537,3.84537,0,0,0-.07463-.78358,2.01024,2.01024,0,0,0-.22388-.6194.79582.79582,0,0,0-.27612-.28358.8241.8241,0,0,0-.37313-.10448.70947.70947,0,0,0-.48508.13433,1.07329,1.07329,0,0,0-.32089.48507,2.31478,2.31478,0,0,0-.14926.54478,4.42737,4.42737,0,0,0-.04477.62686,3.94922,3.94922,0,0,0,.07462.77612,1.83022,1.83022,0,0,0,.22388.61194.83821.83821,0,0,0,.28359.291.77969.77969,0,0,0,.403.097.6871.6871,0,0,0,.45523-.14925,1.1082,1.1082,0,0,0,.31343-.48507q.0373-.097.07462-.23135a2.737,2.737,0,0,0,.0597-.291q.02985-.15672.04478-.31343t.01493-.306" fill="#003478" id="path3848" /><path d="M41.57771,3.20893V7.50744h-.791V3.20893h-1.1418V2.50744h3.08955v.70149H41.57771" fill="#003478" id="path3850" /><path d="M46.308,7.50744l-.49254-1.403h-1.5597l-.49254,1.403H42.9199l1.72388-5h.78358l1.72389,5H46.308M45.04677,3.8955l-.51493,1.403h1l-.48507-1.403" fill="#003478" id="path3852" /></g></svg>