<svg xmlns="http://www.w3.org/2000/svg" data-name="Layer 1" id="Layer_1" viewBox="0 0 40 32"><defs /><rect height="32" rx="2" width="40" /><rect fill="#fff" height="30" rx="1.88746" width="38" x="1" y="1" /><rect height="4.719" width="0.7781" x="7.50849" y="2.69137" /><polygon fill-rule="evenodd" points="9.438 7.41 9.438 2.691 10.202 2.691 10.202 6.713 12.435 6.713 12.435 7.41 9.438 7.41" /><polygon fill-rule="evenodd" points="13.151 7.41 13.151 2.691 13.915 2.691 13.915 6.713 16.148 6.713 16.148 7.41 13.151 7.41" /><rect height="4.719" width="0.7781" x="16.8634" y="2.69137" /><polygon fill-rule="evenodd" points="21.401 7.41 19.557 4.213 19.557 7.41 18.793 7.41 18.793 2.691 19.557 2.691 21.315 5.706 21.315 2.691 22.078 2.691 22.078 7.41 21.401 7.41" /><path d="M26.54388,5.05793A4.17191,4.17191,0,0,1,26.407,6.13555a2.25147,2.25147,0,0,1-.3891.83114,1.37954,1.37954,0,0,1-1.16709.52822,1.58361,1.58361,0,0,1-.843-.20422,1.51333,1.51333,0,0,1-.54748-.641,3.135,3.135,0,0,1-.245-.736,4.11892,4.11892,0,0,1,.0468-1.94042,2.63047,2.63047,0,0,1,.38543-.83815,1.35029,1.35029,0,0,1,.51514-.39794,1.78773,1.78773,0,0,1,.71686-.13033,1.44385,1.44385,0,0,1,.78532.20427,1.63216,1.63216,0,0,1,.55481.64094,3.21638,3.21638,0,0,1,.23773.73949A4.31748,4.31748,0,0,1,26.54388,5.05793Zm-.76375,0a3.603,3.603,0,0,0-.072-.74307,1.86725,1.86725,0,0,0-.21617-.58107.77175.77175,0,0,0-.263-.26767.83428.83428,0,0,0-.36387-.0986.69616.69616,0,0,0-.46824.12679,1.01232,1.01232,0,0,0-.30975.45781,2.04984,2.04984,0,0,0-.14059.51067,3.85747,3.85747,0,0,0-.04679.59514,3.64781,3.64781,0,0,0,.072.73249,1.70329,1.70329,0,0,0,.21617.57754.8.8,0,0,0,.27374.27473.76661.76661,0,0,0,.3891.09154.688.688,0,0,0,.44311-.14087,1.06176,1.06176,0,0,0,.299-.45781,2.2588,2.2588,0,0,0,.072-.22187q.036-.13029.06123-.27467.02533-.1444.03968-.29233T25.78013,5.05793Z" fill-rule="evenodd" transform="translate(0 0)" /><rect height="4.719" width="0.7781" x="27.61505" y="2.69137" /><path d="M32.49146,6.051a1.4529,1.4529,0,0,1-.12248.59868,1.38989,1.38989,0,0,1-.353.479,1.43246,1.43246,0,0,1-.4719.27114,1.87832,1.87832,0,0,1-1.64988-.23241,2.16627,2.16627,0,0,1-.68807-.86987l.72774-.26065a1.19018,1.19018,0,0,0,.41789.51773,1.06976,1.06976,0,0,0,.61238.1796.74459.74459,0,0,0,.54393-.20074.66712.66712,0,0,0,.20538-.49659.56592.56592,0,0,0-.12614-.38029,1.04091,1.04091,0,0,0-.32776-.25,3.02728,3.02728,0,0,0-.44311-.17965q-.2414-.07743-.47913-.169-.108-.04228-.26652-.11973a1.27034,1.27034,0,0,1-.30619-.21481,1.21932,1.21932,0,0,1-.25228-.3416,1.09,1.09,0,0,1-.10437-.50008,1.363,1.363,0,0,1,.11525-.58813,1.05532,1.05532,0,0,1,.31342-.39441,1.29794,1.29794,0,0,1,.47546-.22187,2.44063,2.44063,0,0,1,.60161-.07046,1.368,1.368,0,0,1,.85367.2606,1.635,1.635,0,0,1,.52236.70434l-.67718.19721a.78282.78282,0,0,0-.15137-.20422.75661.75661,0,0,0-.21972-.14086.90691.90691,0,0,0-.34221-.07046,1.18791,1.18791,0,0,0-.27018.0176.74007.74007,0,0,0-.24852.08806.48215.48215,0,0,0-.17293.17254.44376.44376,0,0,0-.05045.2712.40919.40919,0,0,0,.1946.33454,1.88921,1.88921,0,0,0,.43945.20074q.2594.08442.55837.17254a2.05775,2.05775,0,0,1,.55115.25359,1.37757,1.37757,0,0,1,.42144.44369A1.41932,1.41932,0,0,1,32.49146,6.051Z" fill-rule="evenodd" transform="translate(0 0)" /><text font-family="AudiTypeDisplayHigh-Bold, Audi Type Display High" font-size="21.50658px" font-weight="700" transform="translate(4.68701 26.83807) scale(1.02294 1)">{value}</text></svg>