<svg xmlns="http://www.w3.org/2000/svg" viewBox="0 0 50 34"><g id="ri_india_national_3dig"><g id="Schild"><path d="M25.00012,33.25c-10.41308,0-24.25-4.53418-24.25-6.6084V3.67484a.59344.59344,0,0,1,.0166-.16114l.00684.00049c.02051,0,.07031-.0083.15234-.0083H22.5304l2.46972-2.44922,2.46875,2.44922H49.07434a.6062.6062,0,0,1,.169.01807c-.00293.01318.00683.063.00683.15088V26.64163C49.25012,28.71585,35.41321,33.25,25.00012,33.25Z" fill="#f9f60b" fill-rule="evenodd" /><path d="M25,2.11305l1.72119,1.7078.4386.43519h.61792L48.5,4.25647V26.54532c-.29272.482-2.35864,2.04865-8.60681,3.736A62.2918,62.2918,0,0,1,25,32.5c-9.29419,0-22.42566-3.955-23.5-5.9526L1.50037,4.256H22.84009l.4386-.43517L25,2.11305M25,0,22.22217,2.756H.9259A.81172.81172,0,0,0,0,3.67472v22.967C0,29.84151,15.63037,34,25,34c9.43445,0,25-4.15849,25-7.35828V3.67472a.81172.81172,0,0,0-.9259-.91868H27.77771L25,0Z" /><path d="M24.069,10.94836V5.4571H22.93031v3.163q0,.07817.003.175t.01.20472q.007.108.017.22519t.024.23451q-.06206-.11538-.12407-.22892t-.12407-.21961q-.06206-.10609-.12307-.20287t-.11907-.1768L20.697,5.4571H19.4603v5.49126H20.599V7.76025q0-.07629-.005-.17215t-.013-.20473q-.008-.10887-.019-.22705c-.00734-.07878-.015-.129-.023-.20846.08406.15884.16776.28011.25115.42156s.16441.26677.24315.37594l1.797,3.203Z" /><polygon points="30.524 10.948 30.524 5.457 29.354 5.457 29.354 7.653 27.121 7.653 27.121 5.457 25.952 5.457 25.952 10.948 27.121 10.948 27.121 8.568 29.354 8.568 29.354 10.948 30.524 10.948" /></g><text font-family="AudiTypeDisplayHigh-Bold, Audi Type Display High" font-size="18.45589" font-weight="700" id="Text" transform="translate(5.77417 27.03801)">{value}</text></g></svg>