<svg xmlns="http://www.w3.org/2000/svg" viewBox="0 0 44 44"><defs><style>.cls-1{fill:#fff;}.cls-1,.cls-2{fill-rule:evenodd;}.cls-2{fill:#c1121c;}</style></defs><g id="d0_t5_cc-deu_1p0_2p1014_1s0"><path id="path5901" class="cls-1" d="M18.28092,9.83727l-4.9518,2.85883,5.3713,9.30337-5.467,9.469,4.95163,2.85867L22.00161,27.717l3.79084,6.56608,4.95163-2.85883L25.30266,21.9993,30.71429,12.626,25.76267,9.76733l-3.76106,6.51413L18.28092,9.8371Z" /><path id="path5903" class="cls-2" d="M30.23858,41.98928l4.95-2.8578-4.763-8.24975L25.482,33.75045Z" /><path id="path5905" class="cls-2" d="M18.52128,33.74266l-4.95-2.8578-4.763,8.24976,4.95,2.85779Z" /><path id="path5907" class="cls-2" d="M13.56794,13.11527l4.95021-2.8578L13.755,2.00759,8.81138,4.87648Z" /><path id="path5909" class="cls-2" d="M35.19175,4.86869l-4.94987-2.8578-4.76316,8.24959,4.95,2.85779C32.08539,10.24841,33.77377,7.32478,35.19175,4.86869Z" /><path d="M13.755,2.00764l4.52191,7.832.004-.00232V9.83717l3.7207,6.44433,3.76105-6.5141.00055.00031,4.47864-7.75678,4.94989,2.85779C33.8549,7.18434,32.27769,9.91554,30.7133,12.6255l.001.00055-5.41162,9.37329,5.4414,9.42492-.0039.00226,4.44848,7.705-4.95007,2.85779L25.482,33.7505l.0022-.00128-3.48261-6.03217L18.185,34.32716l-.00085-.00049-4.42591,7.66577-4.95-2.85779,4.42584-7.66583-.00067-.00037,5.467-9.46893L13.5703,13.1139l-.00238.0014L8.81138,4.87654,13.755,2.00764m.18243-.684-.43341.25153L8.56044,4.44409l-.43152.2504.24945.43205L13.1349,13.3653l.25205.43655.00238-.00141,4.73373,8.19908-5.32263,9.21893-4.4252,7.66624-.24994.433.433.25,4.95,2.85779.433.25.25-.433,4.4259-7.66577,3.38434-5.85974,2.80194,4.85318.24554.43038,4.75654,8.23883.25.433.433-.25,4.95007-2.85779.433-.25-.25-.433-4.19861-7.27222h0l-.246-.43506L25.88,21.99934l5.2673-9.12329.25195-.4364-.001-.00055L33.82,8.24451l1.80475-3.1258.25-.433-.433-.25L30.49187,1.57792l-.433-.25-.25.433L25.33021,9.5177l-3.32855,5.76389L18.71394,9.58717l-.25833-.44743-.004.0025L14.188,1.75764l-.25058-.434Z" /></g></svg>