<svg id="LIMIT" xmlns="http://www.w3.org/2000/svg" xmlns:xlink="http://www.w3.org/1999/xlink" viewBox="0 0 44 44"><defs><linearGradient id="Beschriftung_schwarz" x1="9.4585" y1="9.8252" x2="34.5415" y2="9.8252" gradientUnits="userSpaceOnUse"><stop offset="0" stop-color="#010101"/></linearGradient></defs><title>LIMIT</title><path id="Beschriftung_schwarz-2" data-name="Beschriftung_schwarz" d="M9.4585,13.07422v-6.498H10.395v5.76026H13.689v.73779Zm5.26464,0v-6.498h.93653v6.49805Zm9.48731,0v-5.625q-.62109,1.42236-1.2334,2.81689-.6123,1.39527-1.2334,2.80811H20.71826l-2.46582-5.625v5.625h-.88281v-6.498h1.44922l2.44824,5.59815q.6123-1.41285,1.21484-2.79932.60353-1.38575,1.21485-2.79883H25.146v6.49805Zm2.64453,0v-6.498h.93652v6.49805Zm5.26563-5.70606v5.70606h-.93555V7.36816h-2.4209v-.792H34.5415v.792Z" fill="url(#Beschriftung_schwarz)"/></svg>