<svg xmlns="http://www.w3.org/2000/svg" xmlns:xlink="http://www.w3.org/1999/xlink" viewBox="0 0 44 44"><defs><linearGradient id="Hintergrund_weiss" x1="2.23802" y1="22.00003" x2="41.76237" y2="22.00003" gradientUnits="userSpaceOnUse"><stop offset="0" stop-color="#fff"/></linearGradient><linearGradient id="Rahmen_schwarz" x1="2" y1="22" x2="42" y2="22" gradientUnits="userSpaceOnUse"><stop offset="0" stop-color="#010101"/></linearGradient><linearGradient id="Beschriftung_schwarz" x1="7.53105" y1="26.31562" x2="37.20586" y2="26.31562" xlink:href="#Rahmen_schwarz"/></defs><title>speedlimit_usa_can_95</title><g id="speedlimit_usa_can_95"><path id="Hintergrund_weiss-2" data-name="Hintergrund_weiss" d="M4.70709,41.76191h34.585a2.46785,2.46785,0,0,0,2.47027-2.47027V4.70843A2.46988,2.46988,0,0,0,39.2921,2.23816H4.70709A2.46988,2.46988,0,0,0,2.238,4.70843V39.29164A2.51079,2.51079,0,0,0,3.3992,41.39122a2.84065,2.84065,0,0,0,1.30789.37069Z" fill="url(#Hintergrund_weiss)"/><path id="Rahmen_schwarz-2" data-name="Rahmen_schwarz" d="M39.5,3h0a2.09694,2.09694,0,0,1,1.1.4A1.50387,1.50387,0,0,1,41,4.5v35A1.538,1.538,0,0,1,39.5,41H4.5a1.88389,1.88389,0,0,1-.8-.2A1.70937,1.70937,0,0,1,3,39.5V4.5A1.538,1.538,0,0,1,4.5,3h35m0-1H4.5A2.47572,2.47572,0,0,0,2,4.5v35a2.24512,2.24512,0,0,0,1.2,2.1,3.25851,3.25851,0,0,0,1.3.4h35A2.47572,2.47572,0,0,0,42,39.5h0V4.5A2.54,2.54,0,0,0,39.5,2Z" fill="url(#Rahmen_schwarz)" stroke-width="0.5px" stroke="url(#Rahmen_schwarz)"/><path id="Beschriftung_schwarz-2" data-name="Beschriftung_schwarz" d="M7.53105,22.8288a4.59282,4.59282,0,0,1,1.78711-3.71289A7.05071,7.05071,0,0,1,13.93047,17.653a7.61567,7.61567,0,0,1,5.05078,1.71289,5.92557,5.92557,0,0,1,2.0498,4.8125,10.58841,10.58841,0,0,1-3.26269,7.4248,10.83694,10.83694,0,0,1-7.8877,3.375V32.153q5.2251-.82471,7.35059-4.82422a10.20177,10.20177,0,0,1-3.42578.5498,6.96575,6.96575,0,0,1-4.5-1.4248A4.45,4.45,0,0,1,7.53105,22.8288Zm2.97461-.02539a1.76772,1.76772,0,0,0,.97559,1.5625,4.89361,4.89361,0,0,0,2.5498.58789,5.41117,5.41117,0,0,0,2.61231-.5127,1.5322,1.5322,0,0,0,.88769-1.4375,1.75377,1.75377,0,0,0-.9248-1.63769,4.5822,4.5822,0,0,0-2.5752-.66211,4.89386,4.89386,0,0,0-2.5498.58691A1.73491,1.73491,0,0,0,10.50566,22.80341Zm26.7002,6.125a5.49341,5.49341,0,0,1-1.97461,4.33789,7.47032,7.47032,0,0,1-5.0752,1.71191,12.20481,12.20481,0,0,1-6.45019-1.875l1.57519-2.52441a10.12073,10.12073,0,0,0,4.875,1.375,4.6914,4.6914,0,0,0,3.04981-.86328,2.689,2.689,0,0,0,1.125-2.1875,2.54228,2.54228,0,0,0-1.02442-2.21192,4.49684,4.49684,0,0,0-2.77539-.8623,9.64276,9.64276,0,0,0-3.59961.77441l-2.60058-.75.4248-7.9248H35.93144V20.903h-8.375l-.15039,2.45019a11.778,11.778,0,0,1,3.22461-.47461,6.68741,6.68741,0,0,1,4.72559,1.71192A5.65641,5.65641,0,0,1,37.20586,28.92841Z" fill="url(#Beschriftung_schwarz)"/></g></svg>