<svg xmlns="http://www.w3.org/2000/svg" xmlns:xlink="http://www.w3.org/1999/xlink" viewBox="0 0 44 44"><defs><linearGradient id="Hintergrund_weiss" x1="2.23802" y1="22.00003" x2="41.76237" y2="22.00003" gradientUnits="userSpaceOnUse"><stop offset="0" stop-color="#fff"/></linearGradient><linearGradient id="Rahmen_schwarz" x1="2" y1="22" x2="42" y2="22" gradientUnits="userSpaceOnUse"><stop offset="0" stop-color="#010101"/></linearGradient><linearGradient id="Beschriftung_schwarz" x1="7.52324" y1="26.31562" x2="37.19805" y2="26.31562" xlink:href="#Rahmen_schwarz"/></defs><title>speedlimit_usa_can_150</title><g id="speedlimit_usa_can_150"><path id="Hintergrund_weiss-2" data-name="Hintergrund_weiss" d="M4.70709,41.76191h34.585a2.46785,2.46785,0,0,0,2.47027-2.47027V4.70843A2.46988,2.46988,0,0,0,39.2921,2.23816H4.70709A2.46988,2.46988,0,0,0,2.238,4.70843V39.29164A2.51079,2.51079,0,0,0,3.3992,41.39122a2.84065,2.84065,0,0,0,1.30789.37069Z" fill="url(#Hintergrund_weiss)"/><path id="Rahmen_schwarz-2" data-name="Rahmen_schwarz" d="M39.5,3h0a2.09694,2.09694,0,0,1,1.1.4A1.50387,1.50387,0,0,1,41,4.5v35A1.538,1.538,0,0,1,39.5,41H4.5a1.88389,1.88389,0,0,1-.8-.2A1.70937,1.70937,0,0,1,3,39.5V4.5A1.538,1.538,0,0,1,4.5,3h35m0-1H4.5A2.47572,2.47572,0,0,0,2,4.5v35a2.24512,2.24512,0,0,0,1.2,2.1,3.25851,3.25851,0,0,0,1.3.4h35A2.47572,2.47572,0,0,0,42,39.5h0V4.5A2.54,2.54,0,0,0,39.5,2Z" fill="url(#Rahmen_schwarz)" stroke-width="0.5px" stroke="url(#Rahmen_schwarz)"/><path id="Beschriftung_schwarz" d="M11.32451,34.67868H8.97392V20.90329H7.54911V19.00388a2.38449,2.38449,0,0,0,2.0254-1.0752h1.75Zm13.0996-5.97461a6.62011,6.62011,0,0,1-1.5625,4.4375,4.7324,4.7324,0,0,1-3.71191,1.83692,6.96956,6.96956,0,0,1-3.875-1l1.34961-2a4.58885,4.58885,0,0,0,2.40039.60058,3.10237,3.10237,0,0,0,2.16211-1.22558,4.01709,4.01709,0,0,0,.8623-2.67481,3.34636,3.34636,0,0,0-.64941-2.0498,2.11959,2.11959,0,0,0-1.80078-.875,2.16845,2.16845,0,0,0-1.72461,1.07519h-2.125l.125-8.90039h7.875v2.34961H18.1497l-.05078,3.52539a3.90931,3.90931,0,0,1,1.72559-.375,4.17765,4.17765,0,0,1,3.3496,1.54981A5.68744,5.68744,0,0,1,24.42411,28.70407Zm7.75906,6.27442a4.01517,4.01517,0,0,1-3.77441-2.16211,13.80607,13.80607,0,0,1-1.2002-6.5127,13.74793,13.74793,0,0,1,1.2002-6.47461,4.01144,4.01144,0,0,1,3.77441-2.17578,4.01288,4.01288,0,0,1,3.77539,2.17578,13.76,13.76,0,0,1,1.2002,6.47461,13.81815,13.81815,0,0,1-1.2002,6.5127A4.01662,4.01662,0,0,1,32.18317,34.97849Zm0-2.34961a2.01792,2.01792,0,0,0,1.97559-1.52539,14.43057,14.43057,0,0,0,.59961-4.84961,13.77007,13.77007,0,0,0-.59961-4.75,2.05034,2.05034,0,0,0-3.9502,0,13.74117,13.74117,0,0,0-.60058,4.75,14.40014,14.40014,0,0,0,.60058,4.84961A2.01609,2.01609,0,0,0,32.18317,32.62888Z" fill="url(#Beschriftung_schwarz)"/></g></svg>