<svg xmlns="http://www.w3.org/2000/svg" xmlns:xlink="http://www.w3.org/1999/xlink" viewBox="0 0 44 44"><defs><linearGradient id="Hintergrund_weiss" x1="2.29344" y1="22.00003" x2="41.70695" y2="22.00003" gradientUnits="userSpaceOnUse"><stop offset="0" stop-color="#fff"/></linearGradient><linearGradient id="Rahmen_schwarz" x1="2" y1="22" x2="42" y2="22" gradientUnits="userSpaceOnUse"><stop offset="0" stop-color="#010101"/></linearGradient><linearGradient id="Beschriftung_schwarz" x1="7.57454" y1="26.31177" x2="37.24935" y2="26.31177" xlink:href="#Rahmen_schwarz"/></defs><title>speedlimit_usa_can_25</title><g id="speedlimit_usa_can_25"><path id="Hintergrund_weiss-2" data-name="Hintergrund_weiss" d="M4.75559,41.70648h34.488A2.46093,2.46093,0,0,0,41.707,39.24314V4.75692A2.463,2.463,0,0,0,39.2436,2.29358H4.75559A2.463,2.463,0,0,0,2.29344,4.75692V39.24315a2.50377,2.50377,0,0,0,1.15792,2.09369,2.8329,2.8329,0,0,0,1.30423.36965Z" fill="url(#Hintergrund_weiss)"/><path id="Rahmen_schwarz-2" data-name="Rahmen_schwarz" d="M39.5,3h0a2.09694,2.09694,0,0,1,1.1.4A1.50387,1.50387,0,0,1,41,4.5v35A1.538,1.538,0,0,1,39.5,41H4.5a1.88389,1.88389,0,0,1-.8-.2A1.70937,1.70937,0,0,1,3,39.5V4.5A1.538,1.538,0,0,1,4.5,3h35m0-1H4.5A2.47572,2.47572,0,0,0,2,4.5v35a2.24512,2.24512,0,0,0,1.2,2.1,3.25851,3.25851,0,0,0,1.3.4h35A2.47572,2.47572,0,0,0,42,39.5h0V4.5A2.54,2.54,0,0,0,39.5,2Z" fill="url(#Rahmen_schwarz)" stroke-width="0.5px" stroke="url(#Rahmen_schwarz)"/><path id="Beschriftung_schwarz-2" data-name="Beschriftung_schwarz" d="M21.07454,34.67456h-13.5q.49951-6.57421,6.85059-9.25a19.58052,19.58052,0,0,0,2.69922-1.3125,1.6094,1.6094,0,0,0,.97558-1.4873,1.64669,1.64669,0,0,0-.82519-1.3877,4.77717,4.77717,0,0,0-2.5752-.58789,6.67928,6.67928,0,0,0-4.64941,2.10059l-2.42578-1.9502a9.68685,9.68685,0,0,1,7-3.15039,7.09911,7.09911,0,0,1,4.70019,1.46289,4.43555,4.43555,0,0,1,1.75,3.5127,4.16155,4.16155,0,0,1-.95019,2.8125,10.43446,10.43446,0,0,1-3.52442,2.16211q-4.125,1.97607-4.9248,4.07519h9.39941Zm16.17481-5.75a5.49341,5.49341,0,0,1-1.97461,4.33789,7.47027,7.47027,0,0,1-5.0752,1.71192,12.20481,12.20481,0,0,1-6.45019-1.875L25.32454,30.575a10.12062,10.12062,0,0,0,4.875,1.375,4.69134,4.69134,0,0,0,3.04981-.86328,2.689,2.689,0,0,0,1.125-2.1875,2.54229,2.54229,0,0,0-1.02442-2.21191,4.4969,4.4969,0,0,0-2.77539-.86231,9.643,9.643,0,0,0-3.59961.77442l-2.60058-.75.4248-7.92481H35.97493v2.97461h-8.375l-.15039,2.4502a11.77723,11.77723,0,0,1,3.22461-.47461,6.68744,6.68744,0,0,1,4.72559,1.71191A5.65641,5.65641,0,0,1,37.24935,28.92456Z" fill="url(#Beschriftung_schwarz)"/></g></svg>