<svg xmlns="http://www.w3.org/2000/svg" xmlns:xlink="http://www.w3.org/1999/xlink" viewBox="0 0 44 44"><defs><linearGradient id="Hintergrund_weiss" x1="2.23802" y1="22.00003" x2="41.76237" y2="22.00003" gradientUnits="userSpaceOnUse"><stop offset="0" stop-color="#fff"/></linearGradient><linearGradient id="Rahmen_schwarz" x1="2" y1="22" x2="42" y2="22" gradientUnits="userSpaceOnUse"><stop offset="0" stop-color="#010101"/></linearGradient><linearGradient id="Beschriftung_schwarz" x1="7.53203" y1="26.31365" x2="37.15703" y2="26.31365" xlink:href="#Rahmen_schwarz"/></defs><title>speedlimit_usa_can_130</title><g id="speedlimit_usa_can_130"><path id="Hintergrund_weiss-2" data-name="Hintergrund_weiss" d="M4.70709,41.76191h34.585a2.46785,2.46785,0,0,0,2.47027-2.47027V4.70843A2.46988,2.46988,0,0,0,39.2921,2.23816H4.70709A2.46988,2.46988,0,0,0,2.238,4.70843V39.29164A2.51079,2.51079,0,0,0,3.3992,41.39122a2.84065,2.84065,0,0,0,1.30789.37069Z" fill="url(#Hintergrund_weiss)"/><path id="Rahmen_schwarz-2" data-name="Rahmen_schwarz" d="M39.5,3h0a2.09694,2.09694,0,0,1,1.1.4A1.50387,1.50387,0,0,1,41,4.5v35A1.538,1.538,0,0,1,39.5,41H4.5a1.88389,1.88389,0,0,1-.8-.2A1.70937,1.70937,0,0,1,3,39.5V4.5A1.538,1.538,0,0,1,4.5,3h35m0-1H4.5A2.47572,2.47572,0,0,0,2,4.5v35a2.24512,2.24512,0,0,0,1.2,2.1,3.25851,3.25851,0,0,0,1.3.4h35A2.47572,2.47572,0,0,0,42,39.5h0V4.5A2.54,2.54,0,0,0,39.5,2Z" fill="url(#Rahmen_schwarz)" stroke-width="0.5px" stroke="url(#Rahmen_schwarz)"/><path id="Beschriftung_schwarz-2" data-name="Beschriftung_schwarz" d="M11.30742,34.67645H8.95684V20.90106H7.532V19.00164a2.3845,2.3845,0,0,0,2.02539-1.07519h1.75Zm12.77442-4.52539a4.79708,4.79708,0,0,1-1.3125,3.45019,4.41249,4.41249,0,0,1-3.33692,1.375,4.47843,4.47843,0,0,1-3.32519-1.3125,4.86946,4.86946,0,0,1-1.375-3.38769h2.34961a2.699,2.699,0,0,0,.75,1.6875,2.15246,2.15246,0,0,0,1.60058.66308,2.21306,2.21306,0,0,0,1.67481-.71289,2.46291,2.46291,0,0,0,.6748-1.76269,3.9357,3.9357,0,0,0-.64941-2.27442,1.84912,1.84912,0,0,0-1.52539-.95019h-.65039V24.57684h.5a1.69386,1.69386,0,0,0,1.40039-.71289,2.924,2.924,0,0,0,.5-1.7627,2.1618,2.1618,0,0,0-.52539-1.53711,1.82242,1.82242,0,0,0-1.39942-.5625,1.7439,1.7439,0,0,0-1.25.47461,1.93814,1.93814,0,0,0-.57519,1.27539H15.282a4.39785,4.39785,0,0,1,1.29981-2.95019,3.92472,3.92472,0,0,1,2.85058-1.15039,4.0479,4.0479,0,0,1,3.0127,1.23828,4.36259,4.36259,0,0,1,1.21191,3.1875,4.09591,4.09591,0,0,1-1.64941,3.64941Q24.05694,26.95232,24.08184,30.15106Zm8.0996,4.82519A4.01518,4.01518,0,0,1,28.407,32.81414a13.806,13.806,0,0,1-1.20019-6.51269A13.74794,13.74794,0,0,1,28.407,19.82684a4.01144,4.01144,0,0,1,3.77441-2.17578,4.01289,4.01289,0,0,1,3.7754,2.17578A13.76017,13.76017,0,0,1,37.157,26.30145a13.81822,13.81822,0,0,1-1.20019,6.51269A4.01664,4.01664,0,0,1,32.18144,34.97625Zm0-2.34961A2.01792,2.01792,0,0,0,34.157,31.10125a14.43053,14.43053,0,0,0,.59961-4.84961,13.77007,13.77007,0,0,0-.59961-4.75,2.05033,2.05033,0,0,0-3.95019,0,13.74087,13.74087,0,0,0-.60059,4.75,14.39979,14.39979,0,0,0,.60059,4.84961A2.01607,2.01607,0,0,0,32.18144,32.62664Z" fill="url(#Beschriftung_schwarz)"/></g></svg>