<svg xmlns="http://www.w3.org/2000/svg" xmlns:xlink="http://www.w3.org/1999/xlink" viewBox="0 0 44 44"><defs><linearGradient id="Hintergrund_weiss" x1="2.23802" y1="22.00003" x2="41.76237" y2="22.00003" gradientUnits="userSpaceOnUse"><stop offset="0" stop-color="#fff"/></linearGradient><linearGradient id="Rahmen_schwarz" x1="2" y1="22" x2="42" y2="22" gradientUnits="userSpaceOnUse"><stop offset="0" stop-color="#010101"/></linearGradient><linearGradient id="Beschriftung_schwarz" x1="7.5291" y1="26.31562" x2="21.0291" y2="26.31562" xlink:href="#Rahmen_schwarz"/></defs><title>speedlimit_usa_can_80</title><g id="speedlimit_usa_can_80"><path id="Hintergrund_weiss-2" data-name="Hintergrund_weiss" d="M4.70709,41.76191h34.585a2.46785,2.46785,0,0,0,2.47027-2.47027V4.70843A2.46988,2.46988,0,0,0,39.2921,2.23816H4.70709A2.46988,2.46988,0,0,0,2.238,4.70843V39.29164A2.51079,2.51079,0,0,0,3.3992,41.39122a2.84065,2.84065,0,0,0,1.30789.37069Z" fill="url(#Hintergrund_weiss)"/><path id="Rahmen_schwarz-2" data-name="Rahmen_schwarz" d="M39.5,3h0a2.09694,2.09694,0,0,1,1.1.4A1.50387,1.50387,0,0,1,41,4.5v35A1.538,1.538,0,0,1,39.5,41H4.5a1.88389,1.88389,0,0,1-.8-.2A1.70937,1.70937,0,0,1,3,39.5V4.5A1.538,1.538,0,0,1,4.5,3h35m0-1H4.5A2.47572,2.47572,0,0,0,2,4.5v35a2.24512,2.24512,0,0,0,1.2,2.1,3.25851,3.25851,0,0,0,1.3.4h35A2.47572,2.47572,0,0,0,42,39.5h0V4.5A2.54,2.54,0,0,0,39.5,2Z" fill="url(#Rahmen_schwarz)" stroke-width="0.5px" stroke="url(#Rahmen_schwarz)"/><path id="Beschriftung_schwarz-2" data-name="Beschriftung_schwarz" d="M21.0291,29.3288a5.24482,5.24482,0,0,1-1.77441,4.14941,7.42469,7.42469,0,0,1-4.97559,1.5A7.41,7.41,0,0,1,9.367,33.4411,5.08775,5.08775,0,0,1,7.5291,29.3288a4.30824,4.30824,0,0,1,1.9502-3.9502,3.872,3.872,0,0,1-1.42481-3.15039A3.91243,3.91243,0,0,1,9.7791,18.903a7.495,7.495,0,0,1,4.5-1.25,7.47135,7.47135,0,0,1,4.52539,1.25,3.93019,3.93019,0,0,1,1.7002,3.32519A3.62311,3.62311,0,0,1,19.1043,25.3288,4.44663,4.44663,0,0,1,21.0291,29.3288Zm-2.97461.07422q.0249-2.54883-3.77539-2.59961-3.7251.0249-3.75,2.59961,0,2.625,3.77539,2.75Q17.95342,32.07831,18.05449,29.403Zm-.5498-7.29981q0-1.69921-3.25-1.75-3.20068.05127-3.2002,1.75,0,1.7505,3.25,1.79981Q17.50371,23.85322,17.50469,22.10321Zm19.72461,4.125a9.99721,9.99721,0,0,1-1.8877,6.33789,6.07183,6.07183,0,0,1-5.03711,2.41211A6.23786,6.23786,0,0,1,24.9041,32.2038,9.99032,9.99032,0,0,1,23.20391,26.278a9.65606,9.65606,0,0,1,1.90039-6.3125,6.37062,6.37062,0,0,1,5.20019-2.3125,6.13677,6.13677,0,0,1,5.01172,2.36328A9.5655,9.5655,0,0,1,37.2293,26.22821Zm-2.97559.04981A7.21139,7.21139,0,0,0,33.2166,22.1286a3.33886,3.33886,0,0,0-2.91211-1.5,3.45794,3.45794,0,0,0-2.97558,1.5,7.01573,7.01573,0,0,0-1.0752,4.14942,7.12136,7.12136,0,0,0,1.0752,4.1875,3.4481,3.4481,0,0,0,2.97558,1.51269,3.33,3.33,0,0,0,3.14942-1.875A7.99588,7.99588,0,0,0,34.25371,26.278Z" fill="url(#Beschriftung_schwarz)"/></g></svg>