<svg xmlns="http://www.w3.org/2000/svg" xmlns:xlink="http://www.w3.org/1999/xlink" viewBox="0 0 44 44">
<defs>
<linearGradient id="Hintergrund_weiss" x1="2.29344" y1="22.00003" x2="41.70695" y2="22.00003" gradientUnits="userSpaceOnUse">
<stop offset="0" stop-color="#fff"/>
</linearGradient>
<linearGradient id="Rahmen_schwarz" x1="2" y1="22" x2="42" y2="22" gradientUnits="userSpaceOnUse">
<stop offset="0" stop-color="#010101"/>

</linearGradient>
<linearGradient id="Beschriftung_schwarz" x1="10.7876" y1="26.30446" x2="33.2124" y2="26.30446" xlink:href="#Rahmen_schwarz"/>
</defs>
<title>speedlimit_usa_can_10</title>
<g id="speedlimit_usa_can_10">
<path id="Hintergrund_weiss-2" data-name="Hintergrund_weiss" d="M4.75559,41.70648h34.488A2.46093,2.46093,0,0,0,41.707,39.24314V4.75692A2.463,2.463,0,0,0,39.2436,2.29358H4.75559A2.463,2.463,0,0,0,2.29344,4.75692V39.24315a2.50377,2.50377,0,0,0,1.15792,2.09369,2.8329,2.8329,0,0,0,1.30423.36965Z" fill="url(#Hintergrund_weiss)"/>
<path id="Rahmen_schwarz-2" data-name="Rahmen_schwarz" d="M39.5,3h0a2.09694,2.09694,0,0,1,1.1.4A1.50387,1.50387,0,0,1,41,4.5v35A1.538,1.538,0,0,1,39.5,41H4.5a1.88389,1.88389,0,0,1-.8-.2A1.70937,1.70937,0,0,1,3,39.5V4.5A1.538,1.538,0,0,1,4.5,3h35m0-1H4.5A2.47572,2.47572,0,0,0,2,4.5v35a2.24512,2.24512,0,0,0,1.2,2.1,3.25851,3.25851,0,0,0,1.3.4h35A2.47572,2.47572,0,0,0,42,39.5h0V4.5A2.54,2.54,0,0,0,39.5,2Z" fill="url(#Rahmen_schwarz)" stroke-width="0.5px" stroke="url(#Rahmen_schwarz)"/>
<path id="Beschriftung_schwarz-2" data-name="Beschriftung_schwarz" d="M15.8374,34.66725H12.88721V22.14186H10.7876V19.61745a3.857,3.857,0,0,0,2.64941-1.7002H15.8374Zm17.375-8.45019A9.99723,9.99723,0,0,1,31.32471,32.555a6.07183,6.07183,0,0,1-5.03711,2.41211,6.23786,6.23786,0,0,1-5.40039-2.77442,9.99028,9.99028,0,0,1-1.7002-5.92578,9.65615,9.65615,0,0,1,1.90039-6.3125,6.37065,6.37065,0,0,1,5.2002-2.3125,6.13683,6.13683,0,0,1,5.01172,2.36328A9.56551,9.56551,0,0,1,33.2124,26.21706Zm-2.97558.0498a7.21146,7.21146,0,0,0-1.03711-4.14941,3.33886,3.33886,0,0,0-2.91211-1.5,3.458,3.458,0,0,0-2.97559,1.5,7.01572,7.01572,0,0,0-1.07519,4.14941,7.12136,7.12136,0,0,0,1.07519,4.1875,3.44814,3.44814,0,0,0,2.97559,1.5127,3.33,3.33,0,0,0,3.14941-1.875A7.99592,7.99592,0,0,0,30.23682,26.26686Z" fill="url(#Beschriftung_schwarz)"/>
</g>
</svg>