<?xml version="1.0" encoding="UTF-8"?>
<svg width="40px" height="40px" viewBox="0 0 40 40" version="1.1" xmlns="http://www.w3.org/2000/svg" xmlns:xlink="http://www.w3.org/1999/xlink">
    <!-- Generator: Sketch 60 (88103) - https://sketch.com -->
    <title>iflytek_DA_extreme_hail</title>
    <desc>Created with Sketch.</desc>
    <g id="iflytek_DA_extreme_hail" stroke="none" stroke-width="1" fill="none" fill-rule="evenodd">
        <g id="编组-2" transform="translate(0.000000, 2.000000)">
            <g id="E1AD_weather_freezing_rain" stroke="#FFFFFF" stroke-width="1.2">
                <path d="M10,22.5 L7,22.5 C3.49459551,22.437521 0.682414349,19.5838862 0.671199962,16.0779428 C0.660052458,12.5719994 3.45397531,9.70048599 6.95891,9.61565 C7.14833,9.61565 7.33391,9.62807 7.51848,9.64527 C7.99511386,6.44549122 10.7248887,4.06550257 13.95977,4.02935 C14.6809354,4.03107831 15.3965841,4.15511057 16.07627,4.39617 C18.1475637,1.9736654 21.1723184,0.574893611 24.35959,0.56562 C30.1762885,0.639477969 34.9741117,5.14218536 35.41659,10.9425 C37.7809915,11.8035308 39.3476491,14.0593706 39.3289182,16.5756 C39.3550996,19.8211176 36.7455169,22.4735373 33.5,22.5 L29,22.5" id="路径"></path>
            </g>
            <g id="编组" transform="translate(10.000000, 20.000000)" fill="#FFFFFF">
                <polygon id="Path-34-Copy-7" points="5.89716592 1.55431223e-14 4.48275862 2.11740938 5.89716592 4.13793103 7.24137931 2.11740938"></polygon>
                <polygon id="Path-34-Copy-7备份-5" points="5.89716592 11 4.48275862 13.1174094 5.89716592 15.137931 7.24137931 13.1174094"></polygon>
                <polygon id="Path-34-Copy-7备份" points="14.173028 1.55431223e-14 12.7586207 2.11740938 14.173028 4.13793103 15.5172414 2.11740938"></polygon>
                <polygon id="Path-34-Copy-7备份-6" points="14.173028 11 12.7586207 13.1174094 14.173028 15.137931 15.5172414 13.1174094"></polygon>
                <polygon id="Path-34-Copy-7备份-2" points="10.035097 5.51724138 8.62068966 7.63465076 10.035097 9.65517241 11.3793103 7.63465076"></polygon>
                <polygon id="Path-34-Copy-7备份-4" points="18.4144073 5.51724138 17 7.63465076 18.4144073 9.65517241 19.7586207 7.63465076"></polygon>
                <polygon id="Path-34-Copy-7备份-3" points="1.4144073 5.51724138 -2.7533531e-14 7.63465076 1.4144073 9.65517241 2.75862069 7.63465076"></polygon>
            </g>
        </g>
    </g>
</svg>