<?xml version="1.0" encoding="UTF-8"?>
<svg width="40px" height="40px" viewBox="0 0 40 40" version="1.1" xmlns="http://www.w3.org/2000/svg" xmlns:xlink="http://www.w3.org/1999/xlink">
    <!-- Generator: Sketch 60 (88103) - https://sketch.com -->
    <title>iflytek_DA_common_floating_dust</title>
    <desc>Created with Sketch.</desc>
    <g id="iflytek_DA_common_floating_dust" stroke="none" stroke-width="1" fill="none" fill-rule="evenodd">
        <g id="编组-3" transform="translate(0.000000, 3.000000)">
            <g id="编组-4" stroke="#FFFFFF" stroke-width="1.2">
                <path d="M20,12.6829268 C23.5022935,12.6829268 26.3414634,9.84375695 26.3414634,6.34146341 C26.3414634,2.83916988 23.5022935,-7.81597009e-14 20,-7.81597009e-14 C16.4977065,-7.81597009e-14 13.6585366,2.83916988 13.6585366,6.34146341 M20.4878049,12.6829268 L1.59872116e-14,12.6829268" id="形状结合"></path>
                <path d="M20,33.1707317 C23.5022935,33.1707317 26.3414634,30.3315618 26.3414634,26.8292683 C26.3414634,23.3269748 23.5022935,20.4878049 20,20.4878049 C16.4977065,20.4878049 13.6585366,23.3269748 13.6585366,26.8292683 M20.4878049,33.1707317 L6.34146341,33.1707317" id="形状结合" transform="translate(16.097561, 27.073171) scale(1, -1) translate(-16.097561, -27.073171) "></path>
            </g>
            <g id="编组-3备份" transform="translate(35.000000, 17.500000) rotate(-90.000000) translate(-35.000000, -17.500000) translate(23.000000, 13.000000)" fill="#FFFFFF">
                <g id="编组-2">
                    <g id="编组">
                        <path d="M0.952976563,0.300572967 C1.47929099,0.300572967 1.90595313,0.749143305 1.90595313,1.30248286 C1.90595313,1.85582241 1.47929099,2.30439275 0.952976563,2.30439275 C0.42666214,2.30439275 0,1.85582241 0,1.30248286 C0,0.749143305 0.42666214,0.300572967 0.952976563,0.300572967 Z" id="路径备份-4"></path>
                        <path d="M11.5786652,9.1038288e-14 C12.1839268,9.1038288e-14 12.6745883,0.515855888 12.6745883,1.15219637 C12.6745883,1.78853686 12.1839268,2.30439275 11.5786652,2.30439275 C10.9734037,2.30439275 10.4827422,1.78853686 10.4827422,1.15219637 C10.4827422,0.515855888 10.9734037,9.1038288e-14 11.5786652,9.1038288e-14 Z" id="路径备份-5"></path>
                        <path d="M22.0614074,9.1038288e-14 C22.666669,9.1038288e-14 23.1573305,0.515855888 23.1573305,1.15219637 C23.1573305,1.78853686 22.666669,2.30439275 22.0614074,2.30439275 C21.4561458,2.30439275 20.9654844,1.78853686 20.9654844,1.15219637 C20.9654844,0.515855888 21.4561458,9.1038288e-14 22.0614074,9.1038288e-14 Z" id="路径备份-6"></path>
                    </g>
                    <path d="M6.67083594,6.31203231 C7.19715036,6.31203231 7.6238125,6.76060265 7.6238125,7.3139422 C7.6238125,7.86728176 7.19715036,8.31585209 6.67083594,8.31585209 C6.14452152,8.31585209 5.71785938,7.86728176 5.71785938,7.3139422 C5.71785938,6.76060265 6.14452152,6.31203231 6.67083594,6.31203231 Z" id="路径备份-8"></path>
                </g>
                <path d="M17.2965246,6.01145934 C17.9017862,6.01145934 18.3924477,6.52731523 18.3924477,7.16365572 C18.3924477,7.79999621 17.9017862,8.31585209 17.2965246,8.31585209 C16.691263,8.31585209 16.2006016,7.79999621 16.2006016,7.16365572 C16.2006016,6.52731523 16.691263,6.01145934 17.2965246,6.01145934 Z" id="路径备份-9"></path>
            </g>
        </g>
    </g>
</svg>