<?xml version="1.0" encoding="UTF-8"?>
<svg width="40px" height="40px" viewBox="0 0 40 40" version="1.1" xmlns="http://www.w3.org/2000/svg" xmlns:xlink="http://www.w3.org/1999/xlink">
    <!-- Generator: Sketch 60 (88103) - https://sketch.com -->
    <title>iflytek_DA_common_heavy_rain</title>
    <desc>Created with Sketch.</desc>
    <g id="iflytek_DA_common_heavy_rain" stroke="none" stroke-width="1" fill="none" fill-rule="evenodd">
        <g id="大雨" transform="translate(0.000000, 3.000000)">
            <path d="M10,22.5 L7,22.5 C3.49459551,22.437521 0.682414349,19.5838862 0.671199962,16.0779428 C0.660052458,12.5719994 3.45397531,9.70048599 6.95891,9.61565 C7.14833,9.61565 7.33391,9.62807 7.51848,9.64527 C7.99511386,6.44549122 10.7248887,4.06550257 13.95977,4.02935 C14.6809354,4.03107831 15.3965841,4.15511057 16.07627,4.39617 C18.1475637,1.9736654 21.1723184,0.574893611 24.35959,0.56562 C30.1762885,0.639477969 34.9741117,5.14218536 35.41659,10.9425 C37.7809915,11.8035308 39.3476491,14.0593706 39.3289182,16.5756 C39.3550996,19.8211176 36.7455169,22.4735373 33.5,22.5 L29,22.5" id="路径" stroke="#FFFFFF" stroke-width="1.2"></path>
            <path d="M12.30371,31.45508 L11.19238,31 L12.665,27.40332 L13.77633,27.8584 L12.30371,31.45508 Z M15.292,24.15674 L14.18067,23.70166 L15.6963,20 L16.80763,20.45508 L15.292,24.15674 Z" id="形状" fill="#0EAAE2" fill-rule="nonzero"></path>
            <path d="M22.30371,30.45508 L21.19238,30 L22.665,26.40332 L23.77633,26.8584 L22.30371,30.45508 Z M25.292,23.15674 L24.18067,22.70166 L25.6963,19 L26.80763,19.45508 L25.292,23.15674 Z" id="形状" fill="#0EAAE2" fill-rule="nonzero"></path>
            <path d="M16.30371,33.45508 L15.19238,33 L16.665,29.40332 L17.77633,29.8584 L16.30371,33.45508 Z M19.292,26.15674 L18.18067,25.70166 L19.6963,22 L20.80763,22.45508 L19.292,26.15674 Z" id="形状" fill="#0EAAE2" fill-rule="nonzero"></path>
        </g>
    </g>
</svg>