<?xml version="1.0" encoding="UTF-8"?>
<svg width="40px" height="40px" viewBox="0 0 40 40" version="1.1" xmlns="http://www.w3.org/2000/svg" xmlns:xlink="http://www.w3.org/1999/xlink">
    <!-- Generator: Sketch 60 (88103) - https://sketch.com -->
    <title>iflytek_DA_extreme_Ice and snow_road</title>
    <desc>Created with Sketch.</desc>
    <g id="iflytek_DA_extreme_Ice-and-snow_road" stroke="none" stroke-width="1" fill="none" fill-rule="evenodd">
        <g id="编组-6" transform="translate(0.000000, 3.000000)">
            <g id="E1DD_map_poi_ferry" transform="translate(0.000000, 7.058824)">
                <path d="M5.29529412,25.2929412 C5.73343529,25.2737412 6.47058824,25 6.47058824,24.3610235 L6.47058824,22.94 L33.5294118,22.94 L33.5294118,24.3610235 C33.5294118,24.8529412 34.1688941,25.2941176 34.5863176,25.2941176 L37.9525529,25.2941176 C39.3753529,25.2941176 39.4117647,23.6541176 39.4117647,22.1168588 C39.4117647,19.1450941 39.4146471,13.3407529 39.4117647,12.3529412 C39.1929959,11.9902513 38.9472017,11.6445663 38.6764706,11.3188235 C37.7215924,10.2751861 36.5728027,9.42727935 35.2941176,8.82235294 L4.70588235,8.82235294 C3.33200658,9.51818563 2.10142301,10.4664677 1.07843529,11.6176471 C0.890700045,11.8453685 0.72683357,12.0917576 0.589411765,12.3529412 C0.586552941,13.3244706 0.589411765,19.0898235 0.589411765,22.1168588 C0.589411765,23.7472471 0.631447059,25.2597059 2.046,25.2929412 L5.29529412,25.2929412 Z" id="路径" stroke="#FFFFFF" stroke-width="1.2"></path>
                <path d="M24.0421267,0.637974223 C18.4162263,0.493972744 11.6075371,0.644783157 8.98494118,1.08844706 C7.63058824,1.31735294 2.87135294,9.94990588 2.87135294,9.94990588" id="路径" stroke="#FFFFFF" stroke-width="1.2"></path>
                <path d="M14.5,20.5876471 C11.7969059,20.4541176 10.8610941,15.1582353 10.8610941,15.1582353 L12.9403059,12.8467529 L27.0582824,12.8467529 L29.1374941,15.1582353 C29.1374941,15.1582353 28.2016824,20.4541529 25.4985882,20.5876471 L14.5,20.5876471 Z" id="路径" stroke="#FFFFFF" stroke-width="1.2"></path>
                <path d="M36.8183059,13.9098706 C35.6527647,15.1234824 33.8186941,13.9098706 33.8186941,13.9098706 L30.8179882,13.9098706 L28.3175765,12.1828118 L37.3186118,11.3187529 C37.6950887,12.2037492 37.4971957,13.2286498 36.8183059,13.9098706 L36.8183059,13.9098706 Z M6.17985882,13.9098706 C6.17985882,13.9098706 4.34574118,15.1234824 3.18024706,13.9098706 C2.50141357,13.2286463 2.30354696,12.2037893 2.68,11.3188235 L11.6810353,12.1828824 L9.18062353,13.9099412 L6.17985882,13.9098706 Z" id="形状" fill="#FFFFFF" fill-rule="nonzero"></path>
            </g>
            <path d="M37.4241059,10.9611096 C37.4220551,11.0443432 37.3989435,11.1256994 37.3569294,11.1975802 C37.2125151,11.436534 36.9038462,11.5166514 36.661447,11.3780979 C36.494486,11.286274 36.3953412,11.1065007 36.4067647,10.9162979 L36.5075176,9.35740375 L33.8501176,7.86427434 L33.8515059,10.8505214 L35.284447,11.5460038 C35.4568452,11.6271383 35.5669467,11.8004679 35.5671176,11.9910038 C35.5630579,12.2686098 35.3353264,12.4906928 35.0577059,12.4877802 C34.9722436,12.4878227 34.8881047,12.4666697 34.8128235,12.4262155 L33.8528235,11.9616155 L33.8528235,13.5079214 C33.845876,13.7834584 33.6211085,14.0035356 33.3454863,14.0046763 C33.0698641,14.0058082 32.8432897,13.7875917 32.8340706,13.5121214 L32.8340706,11.9588508 L31.8685059,12.4262508 C31.7125259,12.5107351 31.523855,12.5081175 31.370279,12.4193384 C31.2167029,12.3305594 31.1202777,12.1683689 31.115647,11.991039 C31.1164055,11.8006748 31.2263246,11.6276326 31.3983176,11.546039 L32.8342117,10.8505214 L32.8327764,7.8587567 L30.1810117,9.35468611 L30.2803647,10.9093802 C30.2917911,11.0995837 30.1926455,11.2793585 30.0256823,11.3711802 C29.7836218,11.5090546 29.4757856,11.4289963 29.3315647,11.1906626 C29.2885142,11.1191511 29.2648761,11.0376406 29.2629882,10.954192 L29.1958235,9.90886258 L27.8230353,10.6827096 C27.5797329,10.820232 27.2711929,10.7396892 27.1261529,10.500792 C27.0595476,10.3871491 27.0414479,10.2514932 27.0759285,10.124363 C27.110409,9.99723284 27.1945719,9.88931286 27.3094706,9.82489787 L28.687847,9.04825081 L27.7908588,8.46750964 C27.7179987,8.42474795 27.6572959,8.36404928 27.6145294,8.29119199 C27.5473175,8.17717093 27.5291765,8.040781 27.5642474,7.91315548 C27.5993184,7.78552996 27.6846079,7.67756228 27.800647,7.61389787 C27.9687838,7.51906531 28.1755774,7.52498715 28.3380117,7.62928611 L29.6716117,8.49269787 L32.3276117,6.99816846 L29.6744117,5.50363905 L28.3422117,6.36705081 C28.1798147,6.4710624 27.9734242,6.47751493 27.804847,6.38385081 C27.6888216,6.31980802 27.603605,6.21159046 27.5685563,6.08378211 C27.5335075,5.95597376 27.5516021,5.8194253 27.6187294,5.7051567 C27.6619388,5.63301205 27.7225631,5.57286508 27.795047,5.53022728 L28.689247,4.95089787 L27.3150706,4.17703905 C27.1987304,4.11329826 27.113235,4.00507654 27.0781518,3.87714257 C27.0430686,3.7492086 27.0614008,3.61251433 27.1289529,3.49834493 C27.2729153,3.2617192 27.5779368,3.18083209 27.8202353,3.31502728 L29.2000235,4.09167434 L29.2671882,3.0435567 C29.2688479,2.95981577 29.2919784,2.87790313 29.3343647,2.80566258 C29.4798352,2.56734401 29.7878519,2.4869378 30.031247,2.62374493 C30.1976419,2.71597148 30.2961902,2.89564633 30.2845294,3.08553317 L30.1837764,4.64442728 L32.8411764,6.1403567 L32.8397764,3.15130964 L31.4068353,2.45861552 C31.1953372,2.35820774 31.0831322,2.12333457 31.1379226,1.8957139 C31.1927129,1.66809322 31.399507,1.51000603 31.6335294,1.51683905 C31.7188016,1.51699971 31.8027881,1.53763724 31.8784235,1.57701552 L32.8384235,2.04300375 L32.8384235,0.496615519 C32.8454506,0.221402819 33.0697814,0.00152116147 33.3450796,0 C33.6203779,-0.00150545643 33.8471124,0.215896704 33.8571647,0.491015519 L33.8571647,2.0443214 L34.8213294,1.57693317 C34.8969655,1.53755662 34.9809516,1.51691919 35.0662235,1.5167567 C35.3002459,1.50992368 35.50704,1.66801087 35.5618303,1.89563154 C35.6166207,2.12325222 35.5044157,2.35812538 35.2929176,2.45853317 L33.8585647,3.15265081 L33.8585647,6.14310964 L36.5117764,4.64858023 L36.4110117,3.09248611 C36.3993023,2.90221885 36.4985322,2.72230418 36.6657059,2.63069787 C36.9082497,2.49403421 37.2154811,2.57454968 37.3598235,2.81260375 C37.4030495,2.88403777 37.4266976,2.96559714 37.4283882,3.04907434 L37.4969647,4.09440375 L38.8697412,3.3205567 C39.1122391,3.18271929 39.4203844,3.26269937 39.5652353,3.50107434 C39.6320751,3.61451751 39.6504552,3.75008451 39.616234,3.87722942 C39.5820128,4.00437434 39.4980693,4.11240085 39.3833176,4.17696846 L38.0035412,4.95501552 L38.9005294,5.5371567 C38.9733865,5.57991831 39.0340854,5.64061722 39.076847,5.71347434 C39.1439753,5.82751491 39.1620695,5.96387609 39.1270053,6.09147687 C39.0919411,6.21907765 39.0067066,6.32704454 38.8907294,6.39076846 C38.7223391,6.48517744 38.5155449,6.47871668 38.3533764,6.37398023 L37.0197764,5.50916846 L34.3637764,7.00649787 L37.0169764,8.49962728 L38.3490823,7.63758023 C38.5106088,7.53079442 38.7185655,7.52429293 38.886447,7.62078023 C39.0027976,7.68414479 39.0883637,7.79211652 39.1234689,7.91986683 C39.1585742,8.04761713 39.1401975,8.1841519 39.0725647,8.29807434 C39.0297989,8.3709353 38.9690962,8.43163796 38.8962353,8.47440375 L38.002047,9.05373317 L39.3762235,9.82619199 C39.4922514,9.89023242 39.5774701,9.99845001 39.6125192,10.1262593 C39.6475682,10.2540687 39.6294718,10.3906183 39.5623412,10.5048861 C39.4183743,10.7415134 39.113349,10.8224001 38.871047,10.6882038 L37.4912706,9.91290964 L37.4241059,10.9611096 Z" id="路径备份-2" fill="#FFFFFF"></path>
        </g>
    </g>
</svg>