<?xml version="1.0" encoding="UTF-8"?>
<svg width="40px" height="40px" viewBox="0 0 40 40" version="1.1" xmlns="http://www.w3.org/2000/svg" xmlns:xlink="http://www.w3.org/1999/xlink">
    <!-- Generator: Sketch 60 (88103) - https://sketch.com -->
    <title>iflytek_DA_extreme_typhoon</title>
    <desc>Created with Sketch.</desc>
    <g id="iflytek_DA_extreme_typhoon" stroke="none" stroke-width="1" fill="none" fill-rule="evenodd">
        <g id="编组-11" transform="translate(3.000000, 4.000000)" stroke="#FFFFFF" stroke-width="1.2">
            <g id="编组">
                <ellipse id="椭圆形" cx="17" cy="16.1077216" rx="5.3125" ry="5.32258065"></ellipse>
                <path d="M17.9293936,0.161448494 C15.360008,0.283828931 5.27083235,1.81021655 2.53067181,12.4281941 C1.28214303,18.1611343 4.13054941,24.7971527 10.7463514,27.9430444 C6.04582725,27.9430444 2.46371012,27.4583585 0,26.4889867 C6.5450123,31.894005 13.7402597,33.376933 21.5857422,30.9377705 C26.3071418,29.0934312 29.5080975,25.3337823 30.5163246,23.0461716 C31.5245516,20.7585608 34.5184196,12.4969235 25.3773481,5.69740339 C25.1344275,5.5167087 24.6291508,5.17957563 23.861518,4.68600418 C28.3950252,5.07049508 31.7745192,6.32715433 34,8.45598193 C28.7023563,0.161448494 20.4987793,0.0390680569 17.9293936,0.161448494 Z" id="路径-12"></path>
            </g>
        </g>
    </g>
</svg>