<?xml version="1.0" encoding="UTF-8"?>
<svg width="40px" height="40px" viewBox="0 0 40 40" version="1.1" xmlns="http://www.w3.org/2000/svg" xmlns:xlink="http://www.w3.org/1999/xlink">
    <!-- Generator: Sketch 60 (88103) - https://sketch.com -->
    <title>iflytek_DA_extreme_abrupt_change_of_temperature</title>
    <desc>Created with Sketch.</desc>
    <g id="iflytek_DA_extreme_abrupt_change_of_temperature" stroke="none" stroke-width="1" fill="none" fill-rule="evenodd">
        <g id="编组-3" transform="translate(3.000000, 2.000000)">
            <g id="E1B7_weather_early_morning_fog" transform="translate(1.090909, 22.909091)">
                <g id="编组-2">
                    <line x1="-2.91322522e-13" y1="0.545454545" x2="31.6363636" y2="0.545454545" id="路径" stroke="#FFFFFF" stroke-width="1.2"></line>
                    <g id="编组" transform="translate(-0.000000, 4.363636)" fill="#FFFFFF">
                        <path d="M6.29485204,6.83061792 C6.2936066,6.88248646 6.27957087,6.93318507 6.25405567,6.97797894 C6.16635265,7.12688741 5.97889752,7.17681401 5.83168816,7.09047184 C5.73029247,7.03325009 5.67008166,6.92122104 5.67701917,6.80269264 L5.73820659,5.83123898 L4.12436344,4.90076781 L4.12520652,6.76170282 L4.99543392,7.19510549 C5.10013159,7.24566599 5.16699641,7.35367953 5.16710021,7.47241546 C5.16463475,7.64541083 5.02633301,7.78380594 4.85773365,7.7819909 C4.80583226,7.78201736 4.75473462,7.76883551 4.70901622,7.74362571 L4.12600673,7.45410164 L4.12600673,8.41771071 C4.12178751,8.58941667 3.98528587,8.72656187 3.81790007,8.72727273 C3.65051428,8.72797808 3.51291527,8.59199244 3.50731649,8.42032802 L3.50731649,7.45237876 L2.92092754,7.74364771 C2.8262007,7.79629566 2.71162057,7.79466445 2.61835359,7.73934013 C2.52508661,7.68401581 2.46652742,7.58294385 2.46371521,7.47243746 C2.46417586,7.35380847 2.53092984,7.24597399 2.6353815,7.19512749 L3.50740222,6.76170282 L3.50653057,4.89732939 L1.89610975,5.82954543 L1.95644694,6.79838178 C1.96338623,6.9169106 1.90317493,7.02894055 1.80177795,7.08616098 C1.65477419,7.17207994 1.46782484,7.12219016 1.38023923,6.97366808 C1.35409458,6.92910438 1.33973916,6.87830962 1.33859263,6.82630706 L1.2978034,6.17489073 L0.464106976,6.65712782 C0.316349043,6.74282744 0.128972235,6.69263569 0.0408892418,6.54376248 C0.000439721064,6.47294378 -0.0105522419,6.38840731 0.0103878505,6.3091838 C0.031327943,6.22996029 0.0824402154,6.16270796 0.152218333,6.12256657 L0.989308503,5.63858461 L0.444566156,5.27668502 C0.400318079,5.25003729 0.363453223,5.21221179 0.33748103,5.16680943 C0.296663117,5.0957551 0.285646075,5.01076119 0.30694473,4.93122899 C0.328243384,4.85169679 0.380039795,4.78441474 0.450510566,4.74474109 C0.552620264,4.68564442 0.67820638,4.68933473 0.776852986,4.75433055 L1.58675034,5.29238154 L3.19974326,4.36103793 L1.58845078,3.42969432 L0.779403652,3.96774531 C0.680779673,4.03256206 0.555438379,4.03658307 0.453061233,3.97821454 C0.382598781,3.93830509 0.33084666,3.87086732 0.309561491,3.79122119 C0.288276323,3.71157506 0.299265177,3.62648236 0.340031697,3.55527377 C0.366272841,3.5103155 0.403090069,3.47283381 0.447109677,3.44626327 L0.990158725,3.08524345 L0.155619222,2.60299903 C0.0849656301,2.56327778 0.0330441641,2.49583742 0.0117380747,2.416113 C-0.00956801468,2.33638859 0.00156520827,2.25120503 0.0425896861,2.18005826 C0.130018252,2.03260056 0.315258291,1.98219427 0.462406532,2.06582048 L1.30035407,2.54980244 L1.3411433,1.89664857 C1.34215123,1.84446386 1.3561984,1.79341849 1.38193967,1.74840046 C1.47028412,1.59988784 1.65734314,1.54978122 1.80515741,1.63503511 C1.90620927,1.69250779 1.96605783,1.80447549 1.95897617,1.92280698 L1.89778876,2.89426064 L3.5116319,3.82647669 L3.51078168,1.9637968 L2.64055428,1.53213167 C2.51211117,1.46956071 2.4439689,1.32319516 2.47724317,1.18134913 C2.51051744,1.0395031 2.63610382,0.94098815 2.77822597,0.945246269 C2.83001189,0.945346386 2.88101702,0.958207048 2.92695054,0.982746348 L3.50996003,1.27313552 L3.50996003,0.309475133 C3.51422761,0.137971256 3.65046404,0.000947939865 3.81765309,0 C3.98484214,-0.00093815298 4.12253837,0.134540019 4.12864313,0.30598539 L4.12864313,1.27395664 L4.71418185,0.982695028 C4.76011577,0.958156807 4.81112065,0.94529621 4.86290643,0.945194949 C5.00502857,0.94093683 5.13061496,1.03945178 5.16388923,1.18129781 C5.1971635,1.32314384 5.12902123,1.46950939 5.00057812,1.53208035 L4.12949335,1.96463258 L4.12949335,3.82819223 L5.74079298,2.89684863 L5.67959841,1.92713984 C5.67248726,1.80857128 5.73274974,1.69645413 5.83427455,1.63936797 C5.98157178,1.55420348 6.16815393,1.60437819 6.25581327,1.75272598 C6.28206446,1.79724141 6.29642602,1.84806663 6.29745272,1.90008699 L6.33909932,2.55150332 L7.1727886,2.06926624 C7.32005797,1.98337031 7.50719511,2.03321137 7.59516326,2.18175914 C7.63575521,2.25245335 7.64691743,2.33693443 7.62613484,2.41616713 C7.60535226,2.49539983 7.55437325,2.56271855 7.48468439,2.60295504 L6.646744,3.08780944 L7.19148634,3.45058147 C7.23573259,3.47722915 7.27259513,3.5150548 7.29856432,3.56045706 C7.33933143,3.63152355 7.35032004,3.71649954 7.32902552,3.79601632 C7.30773099,3.8755331 7.25596794,3.94281466 7.18553479,3.9825254 C7.08327112,4.0413581 6.95768467,4.03733196 6.85919951,3.9720635 L6.04930216,3.43314008 L4.43630924,4.36622856 L6.04760172,5.29669973 L6.85659169,4.75949918 C6.95468696,4.69295364 7.08097939,4.68890211 7.18293411,4.74902995 C7.25359398,4.78851675 7.30555838,4.85580133 7.32687786,4.93541129 C7.34819734,5.01502126 7.33703716,5.10010542 7.29596364,5.17109829 C7.26999191,5.21650294 7.23312709,5.25433093 7.18887852,5.28098122 L6.64583662,5.64200104 L7.48037612,6.12337303 C7.55084007,6.163281 7.60259352,6.23071879 7.62387885,6.31036554 C7.64516418,6.39001229 7.6341742,6.47510569 7.59340566,6.5463138 C7.50597438,6.69377248 7.32073205,6.74417854 7.17358167,6.66055158 L6.33564127,6.17741273 L6.29485204,6.83061792 Z" id="路径备份-4"></path>
                        <path d="M18.294852,6.83061792 C18.2936066,6.88248646 18.2795709,6.93318507 18.2540557,6.97797894 C18.1663527,7.12688741 17.9788975,7.17681401 17.8316882,7.09047184 C17.7302925,7.03325009 17.6700817,6.92122104 17.6770192,6.80269264 L17.7382066,5.83123898 L16.1243634,4.90076781 L16.1252065,6.76170282 L16.9954339,7.19510549 C17.1001316,7.24566599 17.1669964,7.35367953 17.1671002,7.47241546 C17.1646347,7.64541083 17.026333,7.78380594 16.8577337,7.7819909 C16.8058323,7.78201736 16.7547346,7.76883551 16.7090162,7.74362571 L16.1260067,7.45410164 L16.1260067,8.41771071 C16.1217875,8.58941667 15.9852859,8.72656187 15.8179001,8.72727273 C15.6505143,8.72797808 15.5129153,8.59199244 15.5073165,8.42032802 L15.5073165,7.45237876 L14.9209275,7.74364771 C14.8262007,7.79629566 14.7116206,7.79466445 14.6183536,7.73934013 C14.5250866,7.68401581 14.4665274,7.58294385 14.4637152,7.47243746 C14.4641759,7.35380847 14.5309298,7.24597399 14.6353815,7.19512749 L15.5074022,6.76170282 L15.5065306,4.89732939 L13.8961097,5.82954543 L13.9564469,6.79838178 C13.9633862,6.9169106 13.9031749,7.02894055 13.801778,7.08616098 C13.6547742,7.17207994 13.4678248,7.12219016 13.3802392,6.97366808 C13.3540946,6.92910438 13.3397392,6.87830962 13.3385926,6.82630706 L13.2978034,6.17489073 L12.464107,6.65712782 C12.316349,6.74282744 12.1289722,6.69263569 12.0408892,6.54376248 C12.0004397,6.47294378 11.9894478,6.38840731 12.0103879,6.3091838 C12.0313279,6.22996029 12.0824402,6.16270796 12.1522183,6.12256657 L12.9893085,5.63858461 L12.4445662,5.27668502 C12.4003181,5.25003729 12.3634532,5.21221179 12.337481,5.16680943 C12.2966631,5.0957551 12.2856461,5.01076119 12.3069447,4.93122899 C12.3282434,4.85169679 12.3800398,4.78441474 12.4505106,4.74474109 C12.5526203,4.68564442 12.6782064,4.68933473 12.776853,4.75433055 L13.5867503,5.29238154 L15.1997433,4.36103793 L13.5884508,3.42969432 L12.7794037,3.96774531 C12.6807797,4.03256206 12.5554384,4.03658307 12.4530612,3.97821454 C12.3825988,3.93830509 12.3308467,3.87086732 12.3095615,3.79122119 C12.2882763,3.71157506 12.2992652,3.62648236 12.3400317,3.55527377 C12.3662728,3.5103155 12.4030901,3.47283381 12.4471097,3.44626327 L12.9901587,3.08524345 L12.1556192,2.60299903 C12.0849656,2.56327778 12.0330442,2.49583742 12.0117381,2.416113 C11.990432,2.33638859 12.0015652,2.25120503 12.0425897,2.18005826 C12.1300183,2.03260056 12.3152583,1.98219427 12.4624065,2.06582048 L13.3003541,2.54980244 L13.3411433,1.89664857 C13.3421512,1.84446386 13.3561984,1.79341849 13.3819397,1.74840046 C13.4702841,1.59988784 13.6573431,1.54978122 13.8051574,1.63503511 C13.9062093,1.69250779 13.9660578,1.80447549 13.9589762,1.92280698 L13.8977888,2.89426064 L15.5116319,3.82647669 L15.5107817,1.9637968 L14.6405543,1.53213167 C14.5121112,1.46956071 14.4439689,1.32319516 14.4772432,1.18134913 C14.5105174,1.0395031 14.6361038,0.94098815 14.778226,0.945246269 C14.8300119,0.945346386 14.881017,0.958207048 14.9269505,0.982746348 L15.50996,1.27313552 L15.50996,0.309475133 C15.5142276,0.137971256 15.650464,0.000947939865 15.8176531,0 C15.9848421,-0.00093815298 16.1225384,0.134540019 16.1286431,0.30598539 L16.1286431,1.27395664 L16.7141819,0.982695028 C16.7601158,0.958156807 16.8111206,0.94529621 16.8629064,0.945194949 C17.0050286,0.94093683 17.130615,1.03945178 17.1638892,1.18129781 C17.1971635,1.32314384 17.1290212,1.46950939 17.0005781,1.53208035 L16.1294934,1.96463258 L16.1294934,3.82819223 L17.740793,2.89684863 L17.6795984,1.92713984 C17.6724873,1.80857128 17.7327497,1.69645413 17.8342745,1.63936797 C17.9815718,1.55420348 18.1681539,1.60437819 18.2558133,1.75272598 C18.2820645,1.79724141 18.296426,1.84806663 18.2974527,1.90008699 L18.3390993,2.55150332 L19.1727886,2.06926624 C19.320058,1.98337031 19.5071951,2.03321137 19.5951633,2.18175914 C19.6357552,2.25245335 19.6469174,2.33693443 19.6261348,2.41616713 C19.6053523,2.49539983 19.5543732,2.56271855 19.4846844,2.60295504 L18.646744,3.08780944 L19.1914863,3.45058147 C19.2357326,3.47722915 19.2725951,3.5150548 19.2985643,3.56045706 C19.3393314,3.63152355 19.35032,3.71649954 19.3290255,3.79601632 C19.307731,3.8755331 19.2559679,3.94281466 19.1855348,3.9825254 C19.0832711,4.0413581 18.9576847,4.03733196 18.8591995,3.9720635 L18.0493022,3.43314008 L16.4363092,4.36622856 L18.0476017,5.29669973 L18.8565917,4.75949918 C18.954687,4.69295364 19.0809794,4.68890211 19.1829341,4.74902995 C19.253594,4.78851675 19.3055584,4.85580133 19.3268779,4.93541129 C19.3481973,5.01502126 19.3370372,5.10010542 19.2959636,5.17109829 C19.2699919,5.21650294 19.2331271,5.25433093 19.1888785,5.28098122 L18.6458366,5.64200104 L19.4803761,6.12337303 C19.5508401,6.163281 19.6025935,6.23071879 19.6238788,6.31036554 C19.6451642,6.39001229 19.6341742,6.47510569 19.5934057,6.5463138 C19.5059744,6.69377248 19.320732,6.74417854 19.1735817,6.66055158 L18.3356413,6.17741273 L18.294852,6.83061792 Z" id="路径备份-6"></path>
                        <path d="M30.294852,6.83061792 C30.2936066,6.88248646 30.2795709,6.93318507 30.2540557,6.97797894 C30.1663527,7.12688741 29.9788975,7.17681401 29.8316882,7.09047184 C29.7302925,7.03325009 29.6700817,6.92122104 29.6770192,6.80269264 L29.7382066,5.83123898 L28.1243634,4.90076781 L28.1252065,6.76170282 L28.9954339,7.19510549 C29.1001316,7.24566599 29.1669964,7.35367953 29.1671002,7.47241546 C29.1646347,7.64541083 29.026333,7.78380594 28.8577337,7.7819909 C28.8058323,7.78201736 28.7547346,7.76883551 28.7090162,7.74362571 L28.1260067,7.45410164 L28.1260067,8.41771071 C28.1217875,8.58941667 27.9852859,8.72656187 27.8179001,8.72727273 C27.6505143,8.72797808 27.5129153,8.59199244 27.5073165,8.42032802 L27.5073165,7.45237876 L26.9209275,7.74364771 C26.8262007,7.79629566 26.7116206,7.79466445 26.6183536,7.73934013 C26.5250866,7.68401581 26.4665274,7.58294385 26.4637152,7.47243746 C26.4641759,7.35380847 26.5309298,7.24597399 26.6353815,7.19512749 L27.5074022,6.76170282 L27.5065306,4.89732939 L25.8961097,5.82954543 L25.9564469,6.79838178 C25.9633862,6.9169106 25.9031749,7.02894055 25.801778,7.08616098 C25.6547742,7.17207994 25.4678248,7.12219016 25.3802392,6.97366808 C25.3540946,6.92910438 25.3397392,6.87830962 25.3385926,6.82630706 L25.2978034,6.17489073 L24.464107,6.65712782 C24.316349,6.74282744 24.1289722,6.69263569 24.0408892,6.54376248 C24.0004397,6.47294378 23.9894478,6.38840731 24.0103879,6.3091838 C24.0313279,6.22996029 24.0824402,6.16270796 24.1522183,6.12256657 L24.9893085,5.63858461 L24.4445662,5.27668502 C24.4003181,5.25003729 24.3634532,5.21221179 24.337481,5.16680943 C24.2966631,5.0957551 24.2856461,5.01076119 24.3069447,4.93122899 C24.3282434,4.85169679 24.3800398,4.78441474 24.4505106,4.74474109 C24.5526203,4.68564442 24.6782064,4.68933473 24.776853,4.75433055 L25.5867503,5.29238154 L27.1997433,4.36103793 L25.5884508,3.42969432 L24.7794037,3.96774531 C24.6807797,4.03256206 24.5554384,4.03658307 24.4530612,3.97821454 C24.3825988,3.93830509 24.3308467,3.87086732 24.3095615,3.79122119 C24.2882763,3.71157506 24.2992652,3.62648236 24.3400317,3.55527377 C24.3662728,3.5103155 24.4030901,3.47283381 24.4471097,3.44626327 L24.9901587,3.08524345 L24.1556192,2.60299903 C24.0849656,2.56327778 24.0330442,2.49583742 24.0117381,2.416113 C23.990432,2.33638859 24.0015652,2.25120503 24.0425897,2.18005826 C24.1300183,2.03260056 24.3152583,1.98219427 24.4624065,2.06582048 L25.3003541,2.54980244 L25.3411433,1.89664857 C25.3421512,1.84446386 25.3561984,1.79341849 25.3819397,1.74840046 C25.4702841,1.59988784 25.6573431,1.54978122 25.8051574,1.63503511 C25.9062093,1.69250779 25.9660578,1.80447549 25.9589762,1.92280698 L25.8977888,2.89426064 L27.5116319,3.82647669 L27.5107817,1.9637968 L26.6405543,1.53213167 C26.5121112,1.46956071 26.4439689,1.32319516 26.4772432,1.18134913 C26.5105174,1.0395031 26.6361038,0.94098815 26.778226,0.945246269 C26.8300119,0.945346386 26.881017,0.958207048 26.9269505,0.982746348 L27.50996,1.27313552 L27.50996,0.309475133 C27.5142276,0.137971256 27.650464,0.000947939865 27.8176531,0 C27.9848421,-0.00093815298 28.1225384,0.134540019 28.1286431,0.30598539 L28.1286431,1.27395664 L28.7141819,0.982695028 C28.7601158,0.958156807 28.8111206,0.94529621 28.8629064,0.945194949 C29.0050286,0.94093683 29.130615,1.03945178 29.1638892,1.18129781 C29.1971635,1.32314384 29.1290212,1.46950939 29.0005781,1.53208035 L28.1294934,1.96463258 L28.1294934,3.82819223 L29.740793,2.89684863 L29.6795984,1.92713984 C29.6724873,1.80857128 29.7327497,1.69645413 29.8342745,1.63936797 C29.9815718,1.55420348 30.1681539,1.60437819 30.2558133,1.75272598 C30.2820645,1.79724141 30.296426,1.84806663 30.2974527,1.90008699 L30.3390993,2.55150332 L31.1727886,2.06926624 C31.320058,1.98337031 31.5071951,2.03321137 31.5951633,2.18175914 C31.6357552,2.25245335 31.6469174,2.33693443 31.6261348,2.41616713 C31.6053523,2.49539983 31.5543732,2.56271855 31.4846844,2.60295504 L30.646744,3.08780944 L31.1914863,3.45058147 C31.2357326,3.47722915 31.2725951,3.5150548 31.2985643,3.56045706 C31.3393314,3.63152355 31.35032,3.71649954 31.3290255,3.79601632 C31.307731,3.8755331 31.2559679,3.94281466 31.1855348,3.9825254 C31.0832711,4.0413581 30.9576847,4.03733196 30.8591995,3.9720635 L30.0493022,3.43314008 L28.4363092,4.36622856 L30.0476017,5.29669973 L30.8565917,4.75949918 C30.954687,4.69295364 31.0809794,4.68890211 31.1829341,4.74902995 C31.253594,4.78851675 31.3055584,4.85580133 31.3268779,4.93541129 C31.3481973,5.01502126 31.3370372,5.10010542 31.2959636,5.17109829 C31.2699919,5.21650294 31.2331271,5.25433093 31.1888785,5.28098122 L30.6458366,5.64200104 L31.4803761,6.12337303 C31.5508401,6.163281 31.6025935,6.23071879 31.6238788,6.31036554 C31.6451642,6.39001229 31.6341742,6.47510569 31.5934057,6.5463138 C31.5059744,6.69377248 31.320732,6.74417854 31.1735817,6.66055158 L30.3356413,6.17741273 L30.294852,6.83061792 Z" id="路径备份-5"></path>
                    </g>
                </g>
            </g>
            <g id="编组-10备份" stroke="#FFFFFF" stroke-width="1.2">
                <path d="M26.1818182,18.5454545 C26.1818182,13.1230225 22.0302768,8.72727273 16.9090909,8.72727273 C11.787905,8.72727273 7.63636364,13.1230225 7.63636364,18.5454545" id="路径"></path>
                <g id="编组-9" transform="translate(16.363636, 0.000000)" stroke-linecap="square">
                    <line x1="0.545454545" y1="0.370497427" x2="0.545454545" y2="4.18012507" id="直线-3"></line>
                </g>
                <g id="编组-9" transform="translate(6.279830, 6.346435) rotate(-45.000000) translate(-6.279830, -6.346435) translate(5.188921, 4.164617)" stroke-linecap="square">
                    <line x1="0.616390506" y1="0.331497698" x2="0.616390506" y2="3.74011191" id="直线-3"></line>
                </g>
                <g id="编组-9" transform="translate(16.909091, 16.909091) rotate(-90.000000) translate(-16.909091, -16.909091) translate(16.363636, 0.000000)" stroke-linecap="square">
                    <line x1="0.545454545" y1="0.319039451" x2="0.545454545" y2="3.59955214" id="直线-3"></line>
                    <line x1="0.545454545" y1="30.0347675" x2="0.545454545" y2="33.3152802" id="直线-3备份"></line>
                </g>
                <g id="编组-9" transform="translate(27.169556, 6.326136) rotate(-135.000000) translate(-27.169556, -6.326136) translate(26.078647, 3.598863)" stroke-linecap="square">
                    <line x1="0.616390506" y1="0.949229014" x2="0.616390506" y2="4.35784322" id="直线-3备份"></line>
                </g>
            </g>
        </g>
    </g>
</svg>