<?xml version="1.0" encoding="UTF-8"?>
<svg width="40px" height="40px" viewBox="0 0 40 40" version="1.1" xmlns="http://www.w3.org/2000/svg" xmlns:xlink="http://www.w3.org/1999/xlink">
    <!-- Generator: Sketch 60 (88103) - https://sketch.com -->
    <title>iflytek_DA_common_snow shower_night</title>
    <desc>Created with Sketch.</desc>
    <g id="iflytek_DA_common_snow-shower_night" stroke="none" stroke-width="1" fill="none" fill-rule="evenodd">
        <g id="编组">
            <g id="E">
                <path d="M29.368,24.7882 C29.3665373,24.8476843 29.3500232,24.9058276 29.32,24.9572 C29.2167997,25.127959 28.9962213,25.1852118 28.823,25.0862 C28.703689,25.020584 28.6328385,24.892119 28.641,24.7562 L28.713,23.6422 L26.814,22.5752 L26.815,24.7092 L27.839,25.2062 C27.962195,25.2641817 28.0408739,25.3880425 28.041,25.5242 C28.0380979,25.7225673 27.8753778,25.8812641 27.677,25.8792 C27.6159256,25.8792308 27.5557971,25.8641128 27.502,25.8352 L26.816,25.5032 L26.816,26.6082 C26.8110301,26.805095 26.6504126,26.9623563 26.4534566,26.9631711 C26.2565006,26.9639796 26.0945925,26.8080473 26.088,26.6112 L26.088,25.5012 L25.398,25.8352 C25.2865368,25.8955777 25.1517095,25.8937102 25.0419614,25.8302684 C24.9322132,25.7668267 24.8633068,25.6509224 24.86,25.5242 C24.8605451,25.3881649 24.9390938,25.2645089 25.062,25.2062 L26.088,24.7092 L26.087,22.5712 L24.192,23.6402 L24.263,24.7512 C24.2711664,24.8871201 24.2003146,25.0155876 24.081,25.0812 C23.9080273,25.179718 23.6880563,25.1225078 23.585,24.9522 C23.5542342,24.9010924 23.5373439,24.8428382 23.536,24.7832 L23.488,24.0362 L22.507,24.5892 C22.3331341,24.6874798 22.1126445,24.6299223 22.009,24.4592 C21.9614009,24.3779903 21.9484653,24.2810487 21.9731055,24.1901996 C21.9977457,24.0993506 22.0578908,24.02223 22.14,23.9762 L23.125,23.4212 L22.484,23.0062 C22.4319358,22.9756405 22.3885595,22.9322642 22.358,22.8802 C22.3099674,22.7987203 22.2970023,22.7012542 22.3220642,22.6100513 C22.3471262,22.5188484 22.408076,22.4416937 22.491,22.3962 C22.6111527,22.3284413 22.7589231,22.3326743 22.875,22.4072 L23.828,23.0242 L25.726,21.9562 L23.83,20.8882 L22.878,21.5052 C22.7619501,21.579524 22.6144642,21.584133 22.494,21.5172 C22.4110876,21.4714343 22.3501915,21.3941011 22.3251456,21.3027683 C22.3000997,21.2114355 22.3130303,21.1138571 22.361,21.0322 C22.3918803,20.9806477 22.4352033,20.9376686 22.487,20.9072 L23.126,20.4932 L22.144,19.9402 C22.0608643,19.8946485 21.9997704,19.8173124 21.9747001,19.7258905 C21.9496297,19.6344686 21.962729,19.5367867 22.011,19.4552 C22.1138831,19.2861113 22.3318494,19.2283105 22.505,19.3242 L23.491,19.8792 L23.539,19.1302 C23.5401874,19.0703592 23.5567148,19.0118249 23.587,18.9602 C23.6909568,18.7898974 23.9110668,18.732439 24.085,18.8302 C24.2039084,18.896106 24.2743328,19.0245041 24.266,19.1602 L24.194,20.2742 L26.093,21.3432 L26.092,19.2072 L25.068,18.7122 C24.9168761,18.6404377 24.8367066,18.4726024 24.8758589,18.3099513 C24.9150111,18.1473003 25.0627739,18.0343313 25.23,18.0392 C25.2909346,18.0393166 25.3509503,18.0540634 25.405,18.0822 L26.091,18.4152 L26.091,17.3102 C26.0960093,17.1135217 26.2563218,16.956379 26.453061,16.9552924 C26.6498001,16.954217 26.8118298,17.1095886 26.819,17.3062 L26.819,18.4162 L27.508,18.0822 C27.5620497,18.0540634 27.6220654,18.0393166 27.683,18.0392 C27.8502261,18.0343313 27.9979889,18.1473003 28.0371411,18.3099513 C28.0762934,18.4726024 27.9961239,18.6404377 27.845,18.7122 L26.82,19.2082 L26.82,21.3452 L28.716,20.2772 L28.644,19.1652 C28.6356294,19.0292339 28.7065375,18.9006643 28.826,18.8352 C28.9993203,18.73755 29.2188587,18.7950903 29.322,18.9652 C29.3528891,19.0162536 29.3697891,19.0745414 29.371,19.1342 L29.42,19.8812 L30.401,19.3282 C30.5742896,19.2297019 30.7944902,19.2868566 30.898,19.4572 C30.9457636,19.5382677 30.9588977,19.6351448 30.934443,19.7260035 C30.9099883,19.8168622 30.850002,19.8940589 30.768,19.9402 L29.782,20.4962 L30.423,20.9122 C30.4750683,20.9427542 30.5184458,20.9861317 30.549,21.0382 C30.5969728,21.1196936 30.6099046,21.2171392 30.5848475,21.3083244 C30.5597904,21.3995096 30.4988798,21.4766638 30.416,21.5222 C30.2956658,21.5896666 30.1478869,21.5850485 30.032,21.5102 L29.079,20.8922 L27.181,21.9622 L29.077,23.0292 L30.029,22.4132 C30.1444268,22.3368903 30.2930337,22.3322463 30.413,22.4012 C30.4961464,22.4464796 30.5572937,22.5236372 30.5823801,22.6149292 C30.6074666,22.7062212 30.5943331,22.8037907 30.546,22.8852 C30.5154444,22.9372672 30.4720672,22.9806444 30.42,23.0112 L29.781,23.4252 L30.763,23.9772 C30.8458998,24.0229778 30.9067848,24.1003108 30.9318293,24.1916386 C30.9568738,24.2829663 30.9439527,24.3805389 30.896,24.4622 C30.7931169,24.6312887 30.5751506,24.6890895 30.402,24.5932 L29.416,24.0392 L29.368,24.7882 Z" id="路径" fill="#FFFFFF"></path>
                <path d="M15,31.5 L11.86745,31.5 C8.83832034,31.3816206 6.45642317,28.8689187 6.5,25.83779 C6.46953874,22.8427303 8.87239842,20.3898432 11.86745,20.35859 C12.02915,20.35859 12.18755,20.36912 12.34513,20.3837 C12.7611449,17.6619801 15.0905203,15.6442347 17.84375,15.6207 C18.459203,15.6221339 19.0700111,15.7273075 19.6505,15.9318 C21.424664,13.8744169 24.004872,12.6889414 26.72157,12.683 C31.6715517,12.7313427 35.7663553,16.5494005 36.1604,21.48391 C38.1511416,22.219406 39.4534041,24.1399176 39.4,26.26151 C39.4639588,29.0500029 37.2865493,31.3778269 34.5,31.5 L31,31.5" id="Wolke" stroke="#FFFFFF" stroke-width="1.2"></path>
                <path d="M8.38037,17.58289 C7.37652501,17.4559236 6.402017,17.1571501 5.49951,16.69965 C5.56885,16.70117 5.63818,16.70221 5.70851,16.70221 C10.5898576,16.5661686 14.4419436,12.5080921 14.32374,7.62628 C14.32374,4.06415 12.50685,2.59265 10.92823,1.05743 C12.5113449,1.21427597 13.9546932,2.03212287 14.90284,3.30957 C14.96974,3.40118 15.04884,3.48257 15.11769,3.57349 C15.21974,3.70544 15.32081,3.84186 15.41896,3.98987 C15.52496,4.14987 15.61671,4.32031 15.71241,4.4881 C16.4465142,5.88051342 16.8465489,7.42464538 16.88087,8.99835 C16.8297678,10.1212254 16.6060979,11.2295405 16.21772,12.28435 C16.6924682,12.1958774 17.1735393,12.1455666 17.65632,12.1339 C17.974164,11.0730303 18.1528854,9.97537389 18.188,8.86847 C18.185751,7.52431941 17.9189605,6.19375462 17.40284,4.95264 L17.40184,4.90955 L17.36717,4.8689 C17.0591006,4.14861266 16.6693411,3.46608232 16.20555,2.83472 C16.11717,2.71356 16.02879,2.5929 15.93699,2.48145 C15.85199,2.37463 15.75779,2.27645 15.66844,2.17352 C12.61621,-1.12549 7.35834,0.33661 7.35834,0.33661 C10.36322,1.38184 13.023,4.29626 13.023,7.62628 C13.1238003,11.7713887 9.85322081,15.217344 5.7085,15.333 C1.68213,15.333 0.67822,14.32244 0.67725,14.32152 L2.00635,15.7661 C3.29139156,17.0976922 4.90857727,18.0621412 6.69092,18.55986 C7.21624477,18.1727843 7.78285403,17.8451272 8.38037,17.58289 Z" id="路径" fill="#FFDD02" fill-rule="nonzero"></path>
            </g>
            <g id="编组-3备份-2" transform="translate(18.000000, 32.000000)" fill="#FFFFFF">
                <path d="M1.26232742,4.5519144e-14 C1.9594916,4.5519144e-14 2.52465483,0.565163235 2.52465483,1.26232742 C2.52465483,1.9594916 1.9594916,2.52465483 1.26232742,2.52465483 C0.565163235,2.52465483 -1.81854531e-13,1.9594916 -1.81854531e-13,1.26232742 C-1.81854531e-13,0.565163235 0.565163235,4.5519144e-14 1.26232742,4.5519144e-14 Z" id="路径"></path>
                <path d="M3.98658103,4.20775805 C4.68374521,4.20775805 5.24890844,4.77292129 5.24890844,5.47008547 C5.24890844,6.16724965 4.68374521,6.73241289 3.98658103,6.73241289 C3.28941685,6.73241289 2.72425361,6.16724965 2.72425361,5.47008547 C2.72425361,4.77292129 3.28941685,4.20775805 3.98658103,4.20775805 Z" id="路径备份"></path>
                <path d="M9.2462786,2.10387903 C9.94344278,2.10387903 10.508606,2.66904226 10.508606,3.36620644 C10.508606,4.06337062 9.94344278,4.62853386 9.2462786,4.62853386 C8.54911441,4.62853386 7.98395118,4.06337062 7.98395118,3.36620644 C7.98395118,2.66904226 8.54911441,2.10387903 9.2462786,2.10387903 Z" id="路径备份-3"></path>
            </g>
        </g>
    </g>
</svg>