<?xml version="1.0" encoding="UTF-8"?>
<svg width="40px" height="40px" viewBox="0 0 40 40" version="1.1" xmlns="http://www.w3.org/2000/svg" xmlns:xlink="http://www.w3.org/1999/xlink">
    <!-- Generator: Sketch 60 (88103) - https://sketch.com -->
    <title>iflytek_DA_extreme_gale</title>
    <desc>Created with Sketch.</desc>
    <g id="iflytek_DA_extreme_gale" stroke="none" stroke-width="1" fill="none" fill-rule="evenodd">
        <g id="编组-5" transform="translate(0.000000, 8.000000)" stroke="#FFFFFF" stroke-width="1.2">
            <g id="E1B2_weather_cloudy备份" transform="translate(4.444444, 0.000000)">
                <path d="M0.723198785,25 L28.3333333,25 C31.9394632,24.970597 34.8389995,22.023464 34.8103399,18.4173333 C34.8307212,15.6215229 33.0899906,13.1150342 30.4628778,12.1583333 C29.9712353,5.71353929 24.6403206,0.710531077 18.1773222,0.628466667 C14.6359094,0.638770679 11.2750708,2.19296155 8.97363333,4.88463333 C8.21842681,4.61678952 7.42326156,4.4789759 6.62196667,4.47705556 C4.54010076,4.50032219 2.64651921,5.39728121 1.31863622,6.83887929" id="路径"></path>
            </g>
            <g id="编组-4备份" transform="translate(0.000000, 7.777778)">
                <path d="M12.3999908,3.95061728 C13.5291114,3.95061728 14.4444444,3.06624148 14.4444444,1.97530864 C14.4444444,0.884375803 13.5291114,0 12.3999908,0 C11.2708702,0 10.3555371,0.884375803 10.3555371,1.97530864 M12.3999908,3.95061728 L0,3.95061728" id="形状结合"></path>
                <path d="M19.1395776,7.28395062 C20.2284255,7.28395062 21.1111111,6.39957481 21.1111111,5.30864198 C21.1111111,4.21770914 20.2284255,3.33333333 19.1395776,3.33333333 C18.0507297,3.33333333 17.1680441,4.21770914 17.1680441,5.30864198 M19.1395776,7.28395062 L2.22222222,7.28395062" id="形状结合备份-3"></path>
                <path d="M16.8293475,13.9506173 C17.9668008,13.9506173 18.8888889,13.0662415 18.8888889,11.9753086 C18.8888889,10.8843758 17.9668008,10 16.8293475,10 C15.6918943,10 14.7698062,10.8843758 14.7698062,11.9753086 M16.8293475,13.9506173 L4.44444444,13.9506173" id="形状结合备份-4" transform="translate(11.666667, 12.222222) scale(1, -1) translate(-11.666667, -12.222222) "></path>
            </g>
        </g>
    </g>
</svg>