<?xml version="1.0" encoding="UTF-8"?>
<svg width="40px" height="40px" viewBox="0 0 40 40" version="1.1" xmlns="http://www.w3.org/2000/svg" xmlns:xlink="http://www.w3.org/1999/xlink">
    <!-- Generator: Sketch 60 (88103) - https://sketch.com -->
    <title>iflytek_DA_extreme_icy_road</title>
    <desc>Created with Sketch.</desc>
    <g id="iflytek_DA_extreme_icy_road" stroke="none" stroke-width="1" fill="none" fill-rule="evenodd">
        <g id="编组-12" transform="translate(3.000000, 2.000000)">
            <g id="E1DD_map_poi_ferry" transform="translate(17.544071, 13.060313) rotate(17.000000) translate(-17.544071, -13.060313) translate(4.044071, 4.060313)">
                <path d="M3.62149425,17.6769556 C3.92114253,17.6635369 4.42528736,17.4722222 4.42528736,17.0256487 L4.42528736,16.0325111 L22.9310345,16.0325111 L22.9310345,17.0256487 C22.9310345,17.3694444 23.3683816,17.6777778 23.6538609,17.6777778 L25.9560563,17.6777778 C26.9291207,17.6777778 26.954023,16.5316 26.954023,15.4572269 C26.954023,13.3802936 26.9559943,9.323704 26.954023,8.63333333 C26.8044053,8.37985344 26.6363046,8.13825803 26.4511494,7.9106 C25.7981006,7.18121339 25.012434,6.58862079 24.137931,6.16584444 L3.2183908,6.16584444 C2.27878611,6.65215418 1.4371801,7.31489799 0.737550575,8.11944444 C0.609156927,8.27859646 0.497087327,8.45079505 0.403103448,8.63333333 C0.401148276,9.31232444 0.403103448,13.3416656 0.403103448,15.4572269 C0.403103448,16.5966871 0.431851724,17.6537278 1.39927586,17.6769556 L3.62149425,17.6769556 Z" id="路径" stroke="#FFFFFF" stroke-width="1.2"></path>
                <path d="M25.3221218,6.95387867 C25.3221218,6.95387867 22.139777,0.901073333 21.2104586,0.760703556 C18.0879115,0.290959778 8.85302874,0.292530222 6.14487356,0.760703556 C5.21862069,0.920683333 1.96374138,6.95387867 1.96374138,6.95387867" id="路径" stroke="#FFFFFF" stroke-width="1.2"></path>
                <path d="M9.91666667,14.3884778 C8.06799885,14.2951556 7.42798966,10.5939222 7.42798966,10.5939222 L8.84997931,8.97845289 L18.505377,8.97845289 L19.9273667,10.5939222 C19.9273667,10.5939222 19.2873575,14.2951802 17.4386897,14.3884778 L9.91666667,14.3884778 Z" id="路径" stroke="#FFFFFF" stroke-width="1.2"></path>
                <path d="M25.1803356,9.721454 C24.3832126,10.5696338 23.128877,9.721454 23.128877,9.721454 L21.0766701,9.721454 L19.3666184,8.51443178 L25.5224989,7.91055067 C25.7799744,8.5290647 25.6446339,9.24535638 25.1803356,9.721454 L25.1803356,9.721454 Z M4.22645517,9.721454 C4.22645517,9.721454 2.97208736,10.5696338 2.17499655,9.721454 C1.71073687,9.24535395 1.5754143,8.52909277 1.83287356,7.9106 L7.98875402,8.51448111 L6.2787023,9.72150333 L4.22645517,9.721454 Z" id="形状" fill="#FFFFFF" fill-rule="nonzero"></path>
            </g>
            <polygon id="Path-8备份" fill="#FFFFFF" points="28.2289291 37 30 34.7255775 21.9055392 30.3455051 27.0003482 28.7350404 23.1341201 25 25.0212675 28.1652658 19 30.3455051"></polygon>
            <polygon id="Path-8-Copy备份" fill="#FFFFFF" points="9.1241744 31 11 28.8460689 3.07739507 24.0623179 8.47355009 22.5371702 4.37864369 19 6.37741145 21.9975805 0 24.0623179"></polygon>
        </g>
    </g>
</svg>