<?xml version="1.0" encoding="UTF-8"?>
<svg width="40px" height="40px" viewBox="0 0 40 40" version="1.1" xmlns="http://www.w3.org/2000/svg" xmlns:xlink="http://www.w3.org/1999/xlink">
    <title>iflytek_DA_collection</title>
    <g id="iflytek_DA_collection" stroke="none" stroke-width="1" fill="none" fill-rule="evenodd">
        <g id="编组">
            <polygon id="路径" points="0 0 40 0 40 40 0 40"></polygon>
            <path d="M16.7294271,5.6 C17.0927909,5.6 17.4419202,5.74127569 17.7030308,5.99397027 L20.80003,8.99114795 C21.2849497,9.46043788 21.9333325,9.72280702 22.6081511,9.72280702 L35.2959529,9.72280702 C35.6023841,9.72280702 35.8803699,9.84330209 36.0813726,10.0398955 C36.2775052,10.2317257 36.4,10.4964087 36.4,10.7894737 L36.4,33.3333333 C36.4,33.6263983 36.2775052,33.8910813 36.0813726,34.0829115 C35.8803699,34.2795049 35.6023841,34.4 35.2959529,34.4 L4.70404711,34.4 C4.3976219,34.4 4.11963549,34.2795008 3.91863068,34.0829053 C3.72249896,33.891076 3.6,33.626396 3.6,33.3333333 L3.6,6.66666667 C3.6,6.37360963 3.7225032,6.10892921 3.91863696,5.91709789 C4.11964089,5.72050325 4.39762428,5.6 4.70404711,5.6 Z" id="路径" stroke="#FFFFFF" stroke-width="1.2"></path>
            <path d="M19.8174736,16.4640715 L21.7903519,19.2203863 L25.4663662,20.183233 L23.1953024,22.8176555 L23.4170482,26.6374113 L20.2097662,25.2915827 L16.6454857,26.6828448 L16.9343402,23.2166545 L14.509748,20.256746 L17.8955519,19.4603512 L19.8174736,16.4640715 Z" id="星形" stroke="#FFFFFF" stroke-width="1.2"></path>
        </g>
    </g>
</svg>