<?xml version="1.0" encoding="UTF-8"?>
<svg width="40px" height="40px" viewBox="0 0 40 40" version="1.1" xmlns="http://www.w3.org/2000/svg" xmlns:xlink="http://www.w3.org/1999/xlink">
    <!-- Generator: Sketch 60 (88103) - https://sketch.com -->
    <title>iflytek_DA_common_shower_night</title>
    <desc>Created with Sketch.</desc>
    <g id="iflytek_DA_common_shower_night" stroke="none" stroke-width="1" fill="none" fill-rule="evenodd">
        <g id="编组-2">
            <g id="云">
                <path d="M15,31.5 L11.86745,31.5 C8.83832034,31.3816206 6.45642317,28.8689187 6.5,25.83779 C6.46953874,22.8427303 8.87239842,20.3898432 11.86745,20.35859 C12.02915,20.35859 12.18755,20.36912 12.34513,20.3837 C12.7611449,17.6619801 15.0905203,15.6442347 17.84375,15.6207 C18.459203,15.6221339 19.0700111,15.7273075 19.6505,15.9318 C21.424664,13.8744169 24.004872,12.6889414 26.72157,12.683 C31.6715517,12.7313427 35.7663553,16.5494005 36.1604,21.48391 C38.1511416,22.219406 39.4534041,24.1399176 39.4,26.26151 C39.4639588,29.0500029 37.2865493,31.3778269 34.5,31.5 L31,31.5" id="Wolke" stroke="#FFFFFF" stroke-width="1.2"></path>
                <path d="M8.38037,17.58289 C7.37652501,17.4559236 6.402017,17.1571501 5.49951,16.69965 C5.56885,16.70117 5.63818,16.70221 5.70851,16.70221 C10.5898576,16.5661686 14.4419436,12.5080921 14.32374,7.62628 C14.32374,4.06415 12.50685,2.59265 10.92823,1.05743 C12.5113449,1.21427597 13.9546932,2.03212287 14.90284,3.30957 C14.96974,3.40118 15.04884,3.48257 15.11769,3.57349 C15.21974,3.70544 15.32081,3.84186 15.41896,3.98987 C15.52496,4.14987 15.61671,4.32031 15.71241,4.4881 C16.4465142,5.88051342 16.8465489,7.42464538 16.88087,8.99835 C16.8297678,10.1212254 16.6060979,11.2295405 16.21772,12.28435 C16.6924682,12.1958774 17.1735393,12.1455666 17.65632,12.1339 C17.974164,11.0730303 18.1528854,9.97537389 18.188,8.86847 C18.185751,7.52431941 17.9189605,6.19375462 17.40284,4.95264 L17.40184,4.90955 L17.36717,4.8689 C17.0591006,4.14861266 16.6693411,3.46608232 16.20555,2.83472 C16.11717,2.71356 16.02879,2.5929 15.93699,2.48145 C15.85199,2.37463 15.75779,2.27645 15.66844,2.17352 C12.61621,-1.12549 7.35834,0.33661 7.35834,0.33661 C10.36322,1.38184 13.023,4.29626 13.023,7.62628 C13.1238003,11.7713887 9.85322081,15.217344 5.7085,15.333 C1.68213,15.333 0.67822,14.32244 0.67725,14.32152 L2.00635,15.7661 C3.29139156,17.0976922 4.90857727,18.0621412 6.69092,18.55986 C7.21624477,18.1727843 7.78285403,17.8451272 8.38037,17.58289 Z" id="路径" fill="#FFDD02" fill-rule="nonzero"></path>
            </g>
            <g id="编组-2备份-3" transform="translate(16.000000, 29.000000)" fill="#0EAAE2" stroke="#0EAAE2" stroke-width="1.37931034">
                <g id="编组-2备份-2">
                    <g id="编组" transform="translate(0.483389, 0.125575)">
                        <path d="M1.378897e-13,6.41407599 L1.21766235,3.94712368 L1.378897e-13,6.41407599 Z" id="Fill-3-Copy"></path>
                        <polygon id="Fill-3" points="7.79303907 2.4669523 7.4167981 3.15442096 9.01070142 1.04805054e-13"></polygon>
                        <path d="M11.6895586,6.41407599 C11.3919078,7.01710877 11.3783782,7.04451935 11.6489699,6.49630773 C11.9195615,5.94809611 12.3389785,5.09836809 12.907221,3.94712368 L11.6895586,6.41407599 Z" id="Fill-3-Copy"></path>
                        <path d="M4.38358448,9.86780921 C4.38358448,9.86780921 4.78947193,9.04549178 5.60124683,7.40085691 C4.78947193,9.04549178 4.38358448,9.86780921 4.38358448,9.86780921 Z" id="Fill-3-Copy"></path>
                    </g>
                </g>
            </g>
        </g>
    </g>
</svg>