<?xml version="1.0" encoding="UTF-8"?>
<svg width="40px" height="40px" viewBox="0 0 40 40" version="1.1" xmlns="http://www.w3.org/2000/svg" xmlns:xlink="http://www.w3.org/1999/xlink">
    <!-- Generator: Sketch 60 (88103) - https://sketch.com -->
    <title>iflytek_DA_common_sleet</title>
    <desc>Created with Sketch.</desc>
    <g id="iflytek_DA_common_sleet" stroke="none" stroke-width="1" fill="none" fill-rule="evenodd">
        <g id="编组-2" transform="translate(0.000000, 7.000000)">
            <g id="雨夹雪">
                <path d="M10,22.5 L7,22.5 C3.49459551,22.437521 0.682414349,19.5838862 0.671199962,16.0779428 C0.660052458,12.5719994 3.45397531,9.70048599 6.95891,9.61565 C7.14833,9.61565 7.33391,9.62807 7.51848,9.64527 C7.99511386,6.44549122 10.7248887,4.06550257 13.95977,4.02935 C14.6809354,4.03107831 15.3965841,4.15511057 16.07627,4.39617 C18.1475637,1.9736654 21.1723184,0.574893611 24.35959,0.56562 C30.1762885,0.639477969 34.9741117,5.14218536 35.41659,10.9425 C37.7809915,11.8035308 39.3476491,14.0593706 39.3289182,16.5756 C39.3550996,19.8211176 36.7455169,22.4735373 33.5,22.5 L29,22.5" id="路径" stroke="#FFFFFF" stroke-width="1.2"></path>
                <path d="M12.30371,30.22754 L11.19238,29.77246 L12.665,26.17578 L13.77633,26.63086 L12.30371,30.22754 Z M15.292,22.9292 L14.18067,22.47412 L15.6963,18.77246 L16.80763,19.22754 L15.292,22.9292 Z" id="形状" fill="#0EAAE2" fill-rule="nonzero"></path>
                <path d="M22.30371,29.22754 L21.19238,28.77246 L22.665,25.17578 L23.77633,25.63086 L22.30371,29.22754 Z M25.292,21.9292 L24.18067,21.47412 L25.6963,17.77246 L26.80763,18.22754 L25.292,21.9292 Z" id="形状" fill="#0EAAE2" fill-rule="nonzero"></path>
            </g>
            <g id="编组" transform="translate(18.000000, 20.000000)" stroke="#FFFFFF" stroke-linecap="round" stroke-width="0.7">
                <line x1="1.73205081" y1="0" x2="1.73205081" y2="4" id="路径-16"></line>
                <line x1="3.46410162" y1="1" x2="1.90070182e-13" y2="3" id="路径-16"></line>
                <line x1="3.46410162" y1="3" x2="1.90070182e-13" y2="1" id="路径-16"></line>
            </g>
            <g id="编组备份" transform="translate(16.000000, 26.000000)" stroke="#FFFFFF" stroke-linecap="round" stroke-width="0.7">
                <line x1="1.73205081" y1="0" x2="1.73205081" y2="4" id="路径-16"></line>
                <line x1="3.46410162" y1="1" x2="1.90070182e-13" y2="3" id="路径-16"></line>
                <line x1="3.46410162" y1="3" x2="1.90070182e-13" y2="1" id="路径-16"></line>
            </g>
        </g>
    </g>
</svg>