<?xml version="1.0" encoding="UTF-8"?>
<svg width="40px" height="40px" viewBox="0 0 40 40" version="1.1" xmlns="http://www.w3.org/2000/svg" xmlns:xlink="http://www.w3.org/1999/xlink">
    <!-- Generator: Sketch 60 (88103) - https://sketch.com -->
    <title>iflytek_DA_common_thundershower</title>
    <desc>Created with Sketch.</desc>
    <g id="iflytek_DA_common_thundershower" stroke="none" stroke-width="1" fill="none" fill-rule="evenodd">
        <g id="编组" transform="translate(0.000000, 1.000000)">
            <g id="雷阵雨" stroke="#FFFFFF" stroke-width="1.2">
                <path d="M10,22.5 L7,22.5 C3.49459551,22.437521 0.682414349,19.5838862 0.671199962,16.0779428 C0.660052458,12.5719994 3.45397531,9.70048599 6.95891,9.61565 C7.14833,9.61565 7.33391,9.62807 7.51848,9.64527 C7.99511386,6.44549122 10.7248887,4.06550257 13.95977,4.02935 C14.6809354,4.03107831 15.3965841,4.15511057 16.07627,4.39617 C18.1475637,1.9736654 21.1723184,0.574893611 24.35959,0.56562 C30.1762885,0.639477969 34.9741117,5.14218536 35.41659,10.9425 C37.7809915,11.8035308 39.3476491,14.0593706 39.3289182,16.5756 C39.3550996,19.8211176 36.7455169,22.4735373 33.5,22.5 L29,22.5" id="路径"></path>
            </g>
            <g id="Group备份" transform="translate(10.000000, 20.000000)" fill="#0EAAE2" stroke="#0EAAE2" stroke-width="1.41831724">
                <polygon id="Fill-3" points="3.50127203 5.33619413 3.50127203 5.33619413 5.69401277 0.950712644 5.69401277 0.950712644"></polygon>
                <polygon id="Fill-3-Copy" points="0.21216092 11.9144163 0.21216092 11.9144163 2.40490166 7.52893487 2.40490166 7.52893487"></polygon>
                <polygon id="Fill-3" points="14.4649757 5.33619413 14.4649757 5.33619413 16.6577165 0.950712644 16.6577165 0.950712644"></polygon>
                <polygon id="Fill-3-Copy" points="11.1758646 11.9144163 11.1758646 11.9144163 13.3686054 7.52893487 13.3686054 7.52893487"></polygon>
                <polygon id="Fill-3-Copy" points="4.1439719 15.2035275 4.1439719 15.2035275 6.33671264 10.818046 6.33671264 10.818046"></polygon>
            </g>
            <polygon id="路径" fill="#FFDD02" points="19.1428571 14 22 14 20 20.3636364 22 20.3636364 19.1428571 28 19.7967543 21.6363636 18 21.6363636"></polygon>
        </g>
    </g>
</svg>