<?xml version="1.0" encoding="UTF-8"?>
<svg width="40px" height="40px" viewBox="0 0 40 40" version="1.1" xmlns="http://www.w3.org/2000/svg" xmlns:xlink="http://www.w3.org/1999/xlink">
    <!-- Generator: Sketch 60 (88103) - https://sketch.com -->
    <title>iflytek_DA_icon_normal2</title>
    <desc>Created with Sketch.</desc>
    <g id="iflytek_DA_icon_normal2" stroke="none" stroke-width="1" fill="none" fill-rule="evenodd">
        <path d="M22.2367548,17.3147925 L31.7996575,12.6163039 C34.5563643,11.5437214 36.6231451,11.871138 38,13.5985535 C38,16.8296635 17.4757739,25.1669618 9.21822728,28.5392251 C3.75533268,30.6322005 1.16609655,25.0387405 0.262115869,22.8975448 C-0.641864807,20.756349 0.960680661,20.334602 2.50664066,20.9392133 C4.53187892,21.7790529 6.22221757,22.8742476 7.57765663,24.2247974 L11.7719993,21.8275886 C11.3031635,21.3316122 10.6755666,20.83395 9.88920863,20.334602 C9.10285065,19.835254 6.3589909,18.0640702 1.65762939,15.0210505 C2.80808577,13.7456454 4.78142818,13.4267941 7.57765663,14.0644967 C10.3738851,14.7021992 15.2602511,15.7856312 22.2367548,17.3147925 Z" id="路径-5" stroke="#FFFFFF" stroke-width="1.2" stroke-linejoin="round" transform="translate(19.000000, 20.500000) rotate(25.000000) translate(-19.000000, -20.500000) "></path>
        <circle id="椭圆形备份" fill="#00F300" cx="36" cy="30" r="3"></circle>
    </g>
</svg>