<?xml version="1.0" encoding="UTF-8"?>
<svg width="40px" height="40px" viewBox="0 0 40 40" version="1.1" xmlns="http://www.w3.org/2000/svg" xmlns:xlink="http://www.w3.org/1999/xlink">
    <!-- Generator: Sketch 60 (88103) - https://sketch.com -->
    <title>iflytek_DA_extreme_forest fire</title>
    <desc>Created with Sketch.</desc>
    <g id="iflytek_DA_extreme_forest-fire" stroke="none" stroke-width="1" fill="none" fill-rule="evenodd">
        <g id="编组-2" transform="translate(6.000000, 2.000000)">
            <g id="编组" transform="translate(10.000000, 17.000000)">
                <g id="编组-3">
                    <path d="M11.4193596,18.9995573 C15.5612507,18.9550209 18.9550209,15.5612507 18.9995573,11.4193596 C19.0440938,7.27746846 15.7225315,3.95590622 11.5806404,4.00044268 C9.12290482,4.02686995 6.92858685,5.2325812 5.54114775,7.07411518 C4.59040949,8.33602052 4.01855188,9.89648485 4.00044268,11.5806404 C3.95590622,15.7225315 7.27746846,19.0440938 11.4193596,18.9995573 Z" id="椭圆形备份-2" stroke="#FFFFFF" stroke-width="1.2" transform="translate(11.500000, 11.500000) rotate(-45.000000) translate(-11.500000, -11.500000) "></path>
                    <line x1="5.65217391" y1="6.41317081" x2="16.9318848" y2="16.0320856" id="路径-13" stroke="#FFFFFF" stroke-width="1.2"></line>
                    <path d="M8.29276102,10.059825 L9.40703087,11.0172343 C9.37655925,11.0558565 9.34564656,11.0944834 9.31429314,11.1331149 L9.08733689,11.4039409 L8.40113935,12.1977827 L8.64693634,11.1243323 C8.67335884,11.0089393 8.67878982,10.8750084 8.66216398,10.7227214 L8.63814643,10.5643226 L8.63310757,10.5432343 L8.45808514,10.8467949 C7.1941805,13.1127526 7.21254529,14.8557286 8.49525448,16.1574849 L8.63752485,16.2952741 L8.78058199,16.4225455 L8.77569659,16.3630643 C8.71800159,15.4144888 9.04639682,14.1671926 9.74687897,12.6108509 L9.89193241,12.2954589 L10.184,11.69 L10.5795854,12.031839 C10.7024592,12.1766719 10.8430055,12.3773436 11.0030238,12.635454 L11.1011346,12.7968051 L11.1485401,12.8789157 L11.215,12.579 L11.667,12.97 L11.6162856,13.2017076 L11.3455156,14.3482706 L10.9062058,13.5416416 C10.7480622,13.2578917 10.6067764,13.0203621 10.4837137,12.8302666 L10.3948548,12.6966078 L10.334816,12.6123177 L10.2245066,12.852963 C9.44119461,14.5880829 9.15769765,15.874788 9.35004137,16.6954017 L9.38891902,16.8353739 L9.43483675,16.9590336 L9.79728459,17.8181818 L9.06753981,17.3408514 C6.59273069,15.7220638 6.34616927,13.2416959 8.29276102,10.059825 Z M13.3732801,14.4414454 L13.9687907,14.9537392 C13.9927619,15.3776884 13.9632544,15.8154601 13.876105,16.2724115 L13.8217795,16.5280776 L13.8093552,16.573539 L13.9113845,16.4991048 C14.2485748,16.2374218 14.5274298,15.9472094 14.7477242,15.6278184 L15.1673704,15.9901745 C14.8009092,16.5193431 14.2945411,16.9790516 13.647553,17.3672477 L13.4588116,17.476247 L12.8441105,17.8179531 L13.1007627,17.1012776 C13.4481788,16.1311526 13.5270625,15.2642566 13.3732801,14.4414454 Z M11.8216505,14.8524485 C11.8685552,14.8524485 11.978221,15.0172584 12.150648,15.3468783 C12.5330832,16.1184156 12.5298995,16.2281732 12.4417361,16.6675053 C12.3535727,17.1068374 11.1438795,17.5176151 10.5849326,16.8915011 C10.2355908,16.5001798 10.3775109,15.9243649 11.010693,15.1640563 L11.1438795,15.0095346 L11.6127117,15.5818543 L11.8216505,14.8524485 Z M10.3553269,6 L10.8272277,6.34820221 C11.9146652,7.15059147 12.8785305,8.30638353 13.4174907,9.31221927 L13.5341863,9.54144415 L13.5562431,9.59126716 L13.6061109,9.3383242 C13.6307807,9.18717374 13.645419,9.04333571 13.6501364,8.90684638 L13.6497856,8.70762842 L13.6346366,8.5194607 L13.4757776,7.23117239 L14.1117495,8.31620583 C15.3258055,10.3875101 15.9200405,12.1769862 15.8876317,13.6649911 L15.3577646,13.2078463 C15.2952602,12.2150195 14.9395812,11.0704859 14.2882328,9.76706237 L14.1416549,9.48058893 L14.1189469,9.44027362 L14.1043432,9.53785803 C14.0751183,9.69721423 14.0368425,9.86168643 13.9895934,10.0313001 L13.9119995,10.2895799 L13.821004,10.555591 L13.5098863,11.4152155 L13.324177,10.5106656 C13.1581885,9.70217128 12.3025765,8.40218289 11.2069837,7.3935769 L10.9988576,7.20806904 L10.9696881,7.18362789 L10.9646671,7.36103923 C10.9323643,7.9305645 10.799756,8.50190781 10.5679445,9.07470018 L10.1406614,8.70573599 C10.3434843,8.16685541 10.4459245,7.63521221 10.4492494,7.11038209 L10.4442855,6.87919416 L10.4245739,6.63120265 L10.3553269,6 Z" id="形状结合" fill="#FFFFFF" fill-rule="nonzero"></path>
                </g>
            </g>
            <path d="M9,0 L15.6521739,12.5543478 L13.285,12.554 L16.826087,19.7826087 L14.438,19.782 L15.0773147,21.0775779 C13.4278764,22.5445914 12.3595655,24.6616266 12.0758089,27.0101656 L10.891,27.01 L11.6168478,35 L6.5298913,35 L7.255,27.01 L0,27.0108696 L3.562,19.782 L1.17391304,19.7826087 L4.713,12.554 L2.34782609,12.5543478 L9,0 Z" id="形状结合" stroke="#FFFFFF" stroke-width="1.2"></path>
        </g>
    </g>
</svg>