<?xml version="1.0" encoding="UTF-8"?>
<svg width="40px" height="40px" viewBox="0 0 40 40" version="1.1" xmlns="http://www.w3.org/2000/svg" xmlns:xlink="http://www.w3.org/1999/xlink">
    <!-- Generator: Sketch 60 (88103) - https://sketch.com -->
    <title>iflytek_DA_common_hail</title>
    <desc>Created with Sketch.</desc>
    <g id="iflytek_DA_common_hail" stroke="none" stroke-width="1" fill="none" fill-rule="evenodd">
        <g id="编组" transform="translate(0.000000, 3.000000)">
            <g id="E1AC_weather_snow_day" stroke="#FFFFFF" stroke-width="1.2">
                <path d="M10,22.5 L7,22.5 C3.49459551,22.437521 0.682414349,19.5838862 0.671199962,16.0779428 C0.660052458,12.5719994 3.45397531,9.70048599 6.95891,9.61565 C7.14833,9.61565 7.33391,9.62807 7.51848,9.64527 C7.99511386,6.44549122 10.7248887,4.06550257 13.95977,4.02935 C14.6809354,4.03107831 15.3965841,4.15511057 16.07627,4.39617 C18.1475637,1.9736654 21.1723184,0.574893611 24.35959,0.56562 C30.1762885,0.639477969 34.9741117,5.14218536 35.41659,10.9425 C37.7809915,11.8035308 39.3476491,14.0593706 39.3289182,16.5756 C39.3550996,19.8211176 36.7455169,22.4735373 33.5,22.5 L29,22.5" id="路径"></path>
            </g>
            <path d="M15.5523383,30.9803922 L16.8965517,33.0874221 L15.5523383,35.0980392 L14.137931,33.0874221 L15.5523383,30.9803922 Z M23.8282004,30.9803922 L25.1724138,33.0874221 L23.8282004,35.0980392 L22.4137931,33.0874221 L23.8282004,30.9803922 Z M19.6902694,25.4901961 L21.0344828,27.597226 L19.6902694,29.6078431 L18.2758621,27.597226 L19.6902694,25.4901961 Z M11.4144073,25.4901961 L12.7586207,27.597226 L11.4144073,29.6078431 L10,27.597226 L11.4144073,25.4901961 Z M27.9661314,25.4901961 L29.3103448,27.597226 L27.9661314,29.6078431 L26.5517241,27.597226 L27.9661314,25.4901961 Z M15.5523383,20 L16.8965517,22.1070299 L15.5523383,24.1176471 L14.137931,22.1070299 L15.5523383,20 Z M23.8282004,20 L25.1724138,22.1070299 L23.8282004,24.1176471 L22.4137931,22.1070299 L23.8282004,20 Z" id="形状结合备份" fill="#FFFFFF"></path>
        </g>
    </g>
</svg>