<?xml version="1.0" encoding="UTF-8"?>
<svg width="40px" height="40px" viewBox="0 0 40 40" version="1.1" xmlns="http://www.w3.org/2000/svg" xmlns:xlink="http://www.w3.org/1999/xlink">
    <!-- Generator: Sketch 60 (88103) - https://sketch.com -->
    <title>iflytek_DA_extreme_cold_wave</title>
    <desc>Created with Sketch.</desc>
    <g id="iflytek_DA_extreme_cold_wave" stroke="none" stroke-width="1" fill="none" fill-rule="evenodd">
        <path d="M26.599,21 L26.6,24.5 L26.598,24.615 L26.8155417,24.8069063 C28.5024411,26.3434339 29.5133709,28.4421723 29.5946864,30.7040765 L29.5946864,30.7040765 L29.6,31 C29.6,35.7580538 25.5179321,39.6 20.5,39.6 C15.4820679,39.6 11.4,35.7580538 11.4,31 C11.4,28.6253911 12.4244915,26.4098693 14.1854161,24.806968 L14.1854161,24.806968 L14.402,24.615 L14.4,24.5 L14.4,21 L15.599,21 L15.6,24.5 C15.6,24.5591471 15.6010452,24.6171976 15.6031545,24.6742595 L15.6126938,24.8425869 L15.6371695,25.1599526 L15.3881174,25.3581775 C13.6298636,26.7576023 12.6,28.8011215 12.6,31 C12.6,35.0785022 16.1290914,38.4 20.5,38.4 C24.8709086,38.4 28.4,35.0785022 28.4,31 C28.4,28.801375 27.3703436,26.757717 25.6126815,25.3577292 L25.6126815,25.3577292 L25.366004,25.1612492 L25.3879526,24.8466504 C25.3959709,24.7317208 25.4,24.6161283 25.4,24.5 L25.4,24.5 L25.399,21 L26.599,21 Z M20.5,0.4 C23.868937,0.4 26.6,3.13106303 26.6,6.5 L26.6,6.5 L26.599,9 L25.399,9 L25.4,6.5 C25.4,3.86694514 23.3231768,1.71895832 20.7182652,1.60477427 L20.5,1.6 C17.7938047,1.6 15.6,3.79380473 15.6,6.5 L15.6,6.5 L15.599,9 L14.4,9 L14.4,6.5 C14.4,3.20592829 17.0110311,0.521695578 20.2763722,0.404023049 Z" id="形状结合" fill="#FFFFFF" fill-rule="nonzero"></path>
        <line x1="20.5" y1="21.5" x2="20.5" y2="28.5" id="直线-4" stroke="#FFFFFF" stroke-width="1.2" stroke-linecap="square"></line>
        <circle id="椭圆形" fill="#FFFFFF" cx="20.5" cy="30.5" r="2.5"></circle>
        <path d="M24.0675845,17.3920996 C24.0657905,17.4634189 24.0455723,17.5331295 24.0088183,17.594721 C23.8824842,17.7994702 23.6124595,17.8681193 23.4004079,17.7493988 C23.2543499,17.6707189 23.1676176,17.5166789 23.1776109,17.3537024 L23.26575,16.0179536 L20.9410473,14.7385557 L20.9422618,17.2973414 L22.1958036,17.8932701 C22.3466181,17.9627907 22.4429353,18.1113093 22.4430848,18.2745713 C22.4395334,18.5124399 22.240313,18.7027332 21.9974497,18.7002375 C21.922687,18.7002739 21.849082,18.6821488 21.7832257,18.6474854 L20.9434145,18.2493898 L20.9434145,19.5743522 C20.9373368,19.8104479 20.7407094,19.9990226 20.4995941,20 C20.2584789,20.0009699 20.0602708,19.8139896 20.0522059,19.577951 L20.0522059,18.2470208 L19.2075266,18.6475156 C19.0710748,18.7199065 18.9060249,18.7176636 18.771676,18.6415927 C18.6373271,18.5655217 18.552974,18.4265478 18.5489231,18.2746015 C18.5495867,18.1114867 18.6457442,17.9632142 18.7962043,17.8933003 L20.0523294,17.2973414 L20.0510738,14.7338279 L17.7313009,16.015625 L17.8182152,17.347775 C17.8282111,17.5107521 17.7414782,17.6647933 17.5954182,17.7434714 C17.3836628,17.8616099 17.1143667,17.7930115 16.9882017,17.5887936 C16.950541,17.5275185 16.9298624,17.4576757 16.9282108,17.3861722 L16.8694549,16.4904748 L15.668535,17.1535508 C15.4556933,17.2713877 15.1857814,17.2023741 15.0589,16.9976734 C15.0006334,16.9002977 14.9847997,16.78406 15.0149635,16.6751277 C15.0451272,16.5661954 15.1187532,16.4737234 15.2192669,16.418529 L16.4250753,15.7530538 L15.640387,15.2554419 C15.5766487,15.2188013 15.5235457,15.1667912 15.4861334,15.104363 C15.4273362,15.0066633 15.4114664,14.8897966 15.4421466,14.7804399 C15.4728268,14.6710831 15.5474383,14.5785703 15.6489497,14.524019 C15.7960363,14.4427611 15.9769401,14.4478353 16.1190382,14.5372045 L17.2856761,15.2770246 L19.609154,13.9964272 L17.2881255,12.7158297 L16.1227124,13.4556498 C15.9806469,13.5447728 15.8000958,13.5503017 15.6526239,13.470045 C15.5511244,13.4151695 15.4765767,13.3224426 15.445916,13.2129291 C15.4152552,13.1034157 15.4310844,12.9864132 15.4898076,12.8885014 C15.5276073,12.8266838 15.5806416,12.7751465 15.6440508,12.738612 L16.4263001,12.2422097 L15.2241658,11.5791237 C15.122391,11.524507 15.0475993,11.4317765 15.0169084,11.3221554 C14.9862175,11.2125343 15.0022546,11.0954069 15.0613494,10.9975801 C15.1872882,10.7948258 15.4541221,10.7255171 15.6660856,10.8405032 L16.8731291,11.5059784 L16.931885,10.6078918 C16.9333369,10.5361378 16.9535715,10.4659504 16.9906512,10.4040506 C17.1179093,10.1998458 17.3873633,10.1309492 17.6002863,10.2481733 C17.7458491,10.3271982 17.8320595,10.4811538 17.8218585,10.6438596 L17.7337195,11.9796084 L20.0584221,13.2614054 L20.0571974,10.7002206 L18.8036556,10.106681 C18.6186363,10.020646 18.520479,9.81939334 18.5684098,9.62435505 C18.6163406,9.42931676 18.7972448,9.29385871 19.0019684,9.29971362 C19.0765647,9.29985128 19.1500364,9.31753469 19.2162026,9.35127623 L20.0560139,9.75056135 L20.0560139,8.42552831 C20.0621612,8.18971048 20.2584065,8.00130342 20.4992384,8 C20.7400702,7.99871004 20.9384184,8.18499253 20.9472121,8.42072991 L20.9472121,9.75169038 L21.7906667,9.35120566 C21.8568334,9.31746561 21.9303047,9.29978229 22.0049009,9.29964306 C22.2096245,9.29378814 22.3905287,9.4292462 22.4384595,9.62428449 C22.4863903,9.81932278 22.388233,10.0205754 22.2032137,10.1066105 L20.9484369,10.7013698 L20.9484369,13.2637643 L23.2694756,11.9831669 L23.1813263,10.6498173 C23.1710828,10.4867855 23.2578895,10.3326244 23.4041336,10.254131 C23.6163117,10.1370298 23.8850789,10.20602 24.0113501,10.4099982 C24.0491643,10.4712069 24.0698518,10.5410916 24.0713307,10.6126196 L24.1313216,11.5083171 L25.3322312,10.8452411 C25.5443692,10.7271342 25.8139358,10.7956656 25.9406518,10.9999188 C25.9991236,11.0971234 26.0152025,11.2132848 25.9852657,11.3222298 C25.9553288,11.4311748 25.8818948,11.523738 25.7815097,11.5790632 L24.5744765,12.245738 L25.3591649,12.7445495 C25.4229005,12.7811901 25.4760001,12.8332004 25.5134081,12.8956285 C25.5721322,12.9933449 25.587961,13.1101869 25.5572868,13.2195224 C25.5266125,13.328858 25.4520491,13.4213702 25.3505918,13.4759724 C25.2032834,13.5568674 25.0223791,13.5513314 24.8805136,13.4615873 L23.7138757,12.7205676 L21.3903978,14.0035643 L23.7114263,15.2829621 L24.8767571,14.5443114 C25.018061,14.4528112 25.1999822,14.4472404 25.3468456,14.5299162 C25.4486294,14.5842105 25.5234829,14.6767268 25.5541931,14.7861905 C25.5849033,14.8956542 25.5688273,15.0126449 25.5096619,15.1102602 C25.4722503,15.1726915 25.4191474,15.224705 25.3554083,15.2613492 L24.5731694,15.7577514 L25.7753037,16.4196379 C25.8768053,16.4745114 25.9513549,16.5672383 25.982016,16.6767526 C26.012677,16.7862669 25.9968462,16.9032703 25.9381201,17.0011815 C25.8121774,17.2039372 25.5453402,17.2732455 25.3333736,17.1582584 L24.1263404,16.4939425 L24.0675845,17.3920996 Z" id="路径备份-2" fill="#FFFFFF"></path>
    </g>
</svg>