<svg id="图层_1" data-name="图层 1" xmlns="http://www.w3.org/2000/svg" viewBox="0 0 40 40"><defs><style>.cls-1{fill:#fff;}.cls-2{fill:#f3d421;}</style></defs><title>极端天气通用icon</title><path class="cls-1" d="M34.34,18.61h-.78a10.26,10.26,0,0,0-10-9.79,8.84,8.84,0,0,0-8.39-5.33,9.48,9.48,0,0,0-9.46,9.1H5.16a5.16,5.16,0,0,0,0,10.32h2A5.77,5.77,0,0,0,7,24.28,5.62,5.62,0,0,0,12.54,30H19v-1.2H12.54a4.47,4.47,0,0,1,0-8.95h2v-.6A9.08,9.08,0,0,1,23.43,10a9.09,9.09,0,0,1,8.95,9.2v.6h2a4.47,4.47,0,0,1,0,8.95h-6V30h6a5.67,5.67,0,0,0,0-11.34Zm-21,0h-.78a5.54,5.54,0,0,0-5,3.29H5.16a4.16,4.16,0,0,1,0-8.32H6.9v-.84a8.28,8.28,0,0,1,8.27-8.05,7.68,7.68,0,0,1,7.09,4.2A10.3,10.3,0,0,0,13.32,18.61Z"/><path class="cls-2" d="M22.47,17.74h4.17l-2.92,8.54h2.92L22.47,36.52l1-8.54H20.81Z"/></svg>