<?xml version="1.0" encoding="UTF-8"?>
<svg width="40px" height="40px" viewBox="0 0 40 40" version="1.1" xmlns="http://www.w3.org/2000/svg" xmlns:xlink="http://www.w3.org/1999/xlink">
    <!-- Generator: Sketch 60 (88103) - https://sketch.com -->
    <title>iflytek_DA_common_moderate_snow</title>
    <desc>Created with Sketch.</desc>
    <g id="iflytek_DA_common_moderate_snow" stroke="none" stroke-width="1" fill="none" fill-rule="evenodd">
        <g id="暴雪" transform="translate(0.000000, 3.000000)">
            <path d="M27.96641,14.365 C27.9646668,14.4357485 27.945022,14.5049013 27.90931,14.566 C27.7865579,14.7691107 27.5241893,14.8372105 27.31815,14.71944 C27.1762331,14.6413897 27.09196,14.4885824 27.10167,14.32691 L27.18731,13.00185 L24.92852,11.73269 L24.9297,14.271 L26.1477,14.86216 C26.2942384,14.9311244 26.3878247,15.0784545 26.38797,15.24041 C26.3845193,15.4763752 26.1909474,15.6651457 25.95497,15.66267 C25.882327,15.6627061 25.810809,15.6447261 25.74682,15.61034 L24.93082,15.21543 L24.93082,16.52979 C24.9249146,16.7639964 24.7338623,16.9510621 24.4995834,16.9520317 C24.2653045,16.9529938 24.0727162,16.7675098 24.06488,16.53336 L24.06488,15.21308 L23.24415,15.61037 C23.1115671,15.6821817 22.9511968,15.6799567 22.8206572,15.6044945 C22.6901175,15.5290323 22.6081561,15.3911704 22.60422,15.24044 C22.6048647,15.0786304 22.6982959,14.9315445 22.84449,14.86219 L24.065,14.271 L24.06378,11.728 L21.80978,12.99954 L21.89423,14.32103 C21.9039425,14.482703 21.8196687,14.6355115 21.67775,14.71356 C21.4719985,14.8307532 21.2103378,14.7627037 21.08775,14.56012 C21.0511571,14.4993352 21.0310647,14.4300513 21.02946,14.35912 L20.97237,13.47059 L19.8055,14.12836 C19.5986929,14.245254 19.336434,14.1767926 19.21315,13.97373 C19.1565355,13.8771335 19.1411507,13.761826 19.1704592,13.6537654 C19.1997677,13.5457047 19.2713062,13.4539727 19.36897,13.39922 L20.54059,12.73907 L19.77815,12.24544 C19.7162189,12.2090926 19.6646216,12.1574987 19.62827,12.09557 C19.5711399,11.9986521 19.55572,11.8827207 19.5855304,11.774239 C19.6153407,11.6657573 19.6878367,11.5739847 19.78647,11.51987 C19.9293862,11.4392623 20.1051608,11.4442959 20.24323,11.53295 L21.37679,12.26685 L23.63439,10.9965 L21.37917,9.72615 L20.2468,10.46005 C20.1087625,10.5484599 19.9333306,10.5539445 19.79004,10.47433 C19.6914183,10.4198936 19.6189843,10.3279087 19.5891929,10.2192716 C19.5594014,10.1106345 19.5747818,9.99456832 19.63184,9.89744 C19.668568,9.83611705 19.7200987,9.78499213 19.78171,9.74875 L20.54178,9.25632 L19.37373,8.59854 C19.2748408,8.54436033 19.2021698,8.45237187 19.172349,8.34362799 C19.1425283,8.23488412 19.1581107,8.11869399 19.21553,8.02165 C19.337898,7.82051812 19.5971663,7.75176409 19.80312,7.86583 L20.97594,8.52598 L21.03303,7.63508 C21.0344407,7.56390021 21.0541016,7.49427447 21.09013,7.43287 C21.2137799,7.23029922 21.4755941,7.16195394 21.68248,7.27824 C21.8239156,7.35663257 21.9076817,7.50935619 21.89777,7.67076 L21.81213,8.99582 L24.07092,10.26736 L24.06973,7.72667 L22.85173,7.13788 C22.6719566,7.05253338 22.5765824,6.8528912 22.6231542,6.65941362 C22.669726,6.46593605 22.845501,6.33156194 23.04442,6.33737 C23.1169013,6.33750656 23.1882899,6.35504847 23.25258,6.38852 L24.06858,6.78461 L24.06858,5.47018 C24.074553,5.2362492 24.2652342,5.0493498 24.4992377,5.04805681 C24.7332412,5.04677717 24.9259656,5.23156901 24.93451,5.46542 L24.93451,6.78573 L25.75405,6.38845 C25.8183407,6.35497994 25.8897288,6.33743812 25.96221,6.3373 C26.161129,6.33149194 26.336904,6.46586605 26.3834758,6.65934362 C26.4300476,6.8528212 26.3346734,7.05246338 26.1549,7.13781 L24.9357,7.72781 L24.9357,10.2697 L27.19093,8.99935 L27.10528,7.67667 C27.095327,7.51494283 27.1796724,7.36201536 27.32177,7.28415 C27.5279322,7.16798588 27.789079,7.23642404 27.91177,7.43877 C27.9485121,7.49948892 27.968613,7.56881438 27.97005,7.63977 L28.02834,8.5283 L29.1952,7.87053 C29.4013232,7.75336821 29.6632468,7.82135127 29.78637,8.02397 C29.8431839,8.12039669 29.8588069,8.23562864 29.8297189,8.34370182 C29.8006309,8.451775 29.7292789,8.54359753 29.63174,8.59848 L28.45893,9.25982 L29.22137,9.75464 C29.2832986,9.79098737 29.3348926,9.84258145 29.37124,9.90451 C29.428299,10.0014445 29.4436791,10.1173515 29.4138745,10.2258121 C29.38407,10.3342728 29.3116206,10.4260447 29.21304,10.48021 C29.0699083,10.5604576 28.8941332,10.554966 28.75629,10.46594 L27.62273,9.73085 L25.36513,11.00358 L27.62035,12.27274 L28.75264,11.54 C28.8899375,11.4492321 29.0667007,11.4437058 29.2094,11.52572 C29.308298,11.5795799 29.3810291,11.6713559 29.4108686,11.7799436 C29.4407081,11.8885314 29.4250879,12.0045859 29.3676,12.10142 C29.3312491,12.1633518 29.2796518,12.2149491 29.21772,12.2513 L28.45766,12.74373 L29.62571,13.40032 C29.7243338,13.4547544 29.7967696,13.5467393 29.8265613,13.6553773 C29.856353,13.7640152 29.840971,13.8800823 29.78391,13.97721 C29.6615382,14.1783432 29.4022667,14.2470969 29.19631,14.13303 L28.0235,13.47403 L27.96641,14.365 Z" id="路径" fill="#FFFFFF"></path>
            <path d="M10,22.5 L7,22.5 C3.49459551,22.437521 0.682414349,19.5838862 0.671199962,16.0779428 C0.660052458,12.5719994 3.45397531,9.70048599 6.95891,9.61565 C7.14833,9.61565 7.33391,9.62807 7.51848,9.64527 C7.99511386,6.44549122 10.7248887,4.06550257 13.95977,4.02935 C14.6809354,4.03107831 15.3965841,4.15511057 16.07627,4.39617 C18.1475637,1.9736654 21.1723184,0.574893611 24.35959,0.56562 C30.1762885,0.639477969 34.9741117,5.14218536 35.41659,10.9425 C37.7809915,11.8035308 39.3476491,14.0593706 39.3289182,16.5756 C39.3550996,19.8211176 36.7455169,22.4735373 33.5,22.5 L29,22.5" id="路径" stroke="#FFFFFF" stroke-width="1.2"></path>
            <path d="M24.15,23.3 C23.5148725,23.3 23,22.7851275 23,22.15 C23,21.5148725 23.5148725,21 24.15,21 C24.7851275,21 25.3,21.5148725 25.3,22.15 C25.3000849,22.455025 25.1789518,22.7475813 24.9632666,22.9632666 C24.7475813,23.1789518 24.455025,23.3000849 24.15,23.3 L24.15,23.3 Z" id="路径" fill="#FFFFFF"></path>
            <path d="M18.15,26.3 C17.5148725,26.3 17,25.7851275 17,25.15 C17,24.5148725 17.5148725,24 18.15,24 C18.7851275,24 19.3,24.5148725 19.3,25.15 C19.3000823,25.4550242 19.1789483,25.747579 18.9632636,25.9632636 C18.747579,26.1789483 18.4550242,26.3000823 18.15,26.3 Z" id="路径" fill="#FFFFFF"></path>
            <path d="M12.15,28.3 C11.5148725,28.3 11,27.7851275 11,27.15 C11,26.5148725 11.5148725,26 12.15,26 C12.7851275,26 13.3,26.5148725 13.3,27.15 C13.3000849,27.455025 13.1789518,27.7475813 12.9632666,27.9632666 C12.7475813,28.1789518 12.455025,28.3000849 12.15,28.3 L12.15,28.3 Z" id="路径" fill="#FFFFFF"></path>
            <path d="M14.15,22.3 C13.5148725,22.3 13,21.7851275 13,21.15 C13,20.5148725 13.5148725,20 14.15,20 C14.7851275,20 15.3,20.5148725 15.3,21.15 C15.3000849,21.455025 15.1789518,21.7475813 14.9632666,21.9632666 C14.7475813,22.1789518 14.455025,22.3000849 14.15,22.3 L14.15,22.3 Z" id="路径" fill="#FFFFFF"></path>
        </g>
    </g>
</svg>