<svg id="图层_1" data-name="图层 1" xmlns="http://www.w3.org/2000/svg" viewBox="0 0 40 40"><defs><style>.cls-1{fill:#fff;}</style></defs><title>新技能1</title><path class="cls-1" d="M38.67,38h-19A18.2,18.2,0,0,1,1.49,22.42,18,18,0,1,1,31.42,33.29ZM19.31,3.22a16.79,16.79,0,0,0-16.64,19,17,17,0,0,0,17,14.51H34.61l-5.19-3.36L30,32.9A16.78,16.78,0,0,0,21.88,3.41,17.45,17.45,0,0,0,19.31,3.22Z"/><path class="cls-1" d="M11.72,23.62H7V18.38h4.76Zm-3.56-1.2h2.36V19.58H8.15Z"/><path class="cls-1" d="M18.56,25.41H13.78V14.59h4.78ZM15,24.21h2.38V15.79H15Z"/><path class="cls-1" d="M31.67,22.9h-4V17.66h4Zm-2.79-1.2h1.59V18.86H28.88Z"/><path class="cls-1" d="M25.34,23.65H20.57v-8h4.78Zm-3.58-1.2h2.38V16.86H21.77Z"/></svg>