<svg id="图层_1" data-name="图层 1" xmlns="http://www.w3.org/2000/svg" viewBox="0 0 40 40"><defs><style>.cls-1{fill:#fff;}</style></defs><title>用户成就</title><path class="cls-1" d="M20,28.28A13.52,13.52,0,1,1,33.51,14.76,13.53,13.53,0,0,1,20,28.28ZM20,2.44A12.32,12.32,0,1,0,32.31,14.76,12.33,12.33,0,0,0,20,2.44Z"/><path class="cls-1" d="M20,24.82A10.06,10.06,0,1,1,30.05,14.76,10.07,10.07,0,0,1,20,24.82ZM20,5.9a8.86,8.86,0,1,0,8.86,8.86A8.87,8.87,0,0,0,20,5.9Z"/><path class="cls-1" d="M23.37,19.84,20,18.06,16.6,19.84l.65-3.77L14.51,13.4l3.78-.55L20,9.42l1.69,3.43,3.78.55-2.74,2.67ZM20,16.7l1.79.94-.34-2,1.45-1.41-2-.29L20,12.13l-.9,1.81-2,.29,1.45,1.41-.34,2Z"/><path class="cls-1" d="M12.21,38.75,8.56,33.67l-6.19-.89,5.42-8.92.54.52a27.41,27.41,0,0,0,4,3.14,28.65,28.65,0,0,0,4.62,2.08l.71.24Zm-7.87-6.9,4.9.71,2.89,4,3.7-6.1a26.93,26.93,0,0,1-4.15-1.94A26.22,26.22,0,0,1,8,25.75Z"/><path class="cls-1" d="M27.79,38.76l-5.41-8.91.71-.24a28.62,28.62,0,0,0,4.62-2.08,27.41,27.41,0,0,0,4-3.14l.54-.52,5.42,8.92-6.19.89Zm-3.62-8.27,3.7,6.1,2.89-4,4.9-.71L32,25.76a26.31,26.31,0,0,1-3.63,2.79A26.93,26.93,0,0,1,24.17,30.49Z"/></svg>