<?xml version="1.0" encoding="UTF-8"?>
<svg width="40px" height="40px" viewBox="0 0 40 40" version="1.1" xmlns="http://www.w3.org/2000/svg" xmlns:xlink="http://www.w3.org/1999/xlink">
    <!-- Generator: Sketch 60 (88103) - https://sketch.com -->
    <title>iflytek_DA_common_cloudy_night</title>
    <desc>Created with Sketch.</desc>
    <g id="iflytek_DA_common_cloudy_night" stroke="none" stroke-width="1" fill="none" fill-rule="evenodd">
        <g id="编组-2" transform="translate(0.000000, 5.000000)">
            <g id="编组" transform="translate(6.000000, 11.000000)" stroke="#FFFFFF" stroke-width="1.2">
                <g id="E1B1_weather_partly_cloudy">
                    <path d="M28.5,19.5 L5.86745,19.5 C2.83832034,19.3816206 0.456423171,16.8689187 0.5,13.83779 C0.469538743,10.8427303 2.87239842,8.38984318 5.86745,8.35859 C6.02915,8.35859 6.18755,8.36912 6.34513,8.3837 C6.76114491,5.6619801 9.09052031,3.64423474 11.84375,3.6207 C12.459203,3.62213394 13.0700111,3.72730754 13.6505,3.9318 C15.424664,1.8744169 18.004872,0.688941446 20.72157,0.683 C25.6715517,0.731342691 29.7663553,4.54940047 30.1604,9.48391 C32.1511416,10.219406 33.4534041,12.1399176 33.4,14.26151 C33.4639588,17.0500029 31.2865493,19.3778269 28.5,19.5 Z" id="Wolke"></path>
                </g>
            </g>
            <path d="M7.70312,17.5691014 C6.69927501,17.442135 5.724767,17.1433615 4.82226,16.6858614 C4.8916,16.6873814 4.96093,16.6884214 5.03126,16.6884214 C9.91260757,16.55238 13.7646936,12.4943035 13.64649,7.6124914 C13.64649,4.0503614 11.8296,2.5788614 10.25098,1.0436414 C11.8340949,1.20048737 13.2774432,2.01833427 14.22559,3.2957814 C14.29249,3.3873914 14.37159,3.4687814 14.44044,3.5597014 C14.54249,3.6916514 14.64356,3.8280714 14.74171,3.9760814 C14.84771,4.1360814 14.93946,4.3065214 15.03516,4.4743114 C15.7692642,5.86672481 16.1692989,7.41085678 16.20362,8.9845614 C16.1525178,10.1074368 15.9288479,11.2157519 15.54047,12.2705614 C16.0152182,12.1820888 16.4962893,12.131778 16.97907,12.1201114 C17.296914,11.0592417 17.4756354,9.96158528 17.51075,8.8546814 C17.508501,7.5105308 17.2417105,6.17996602 16.72559,4.9388514 L16.72459,4.8957614 L16.68992,4.8551114 C16.3818506,4.13482405 15.9920911,3.45229372 15.5283,2.8209314 C15.43992,2.6997714 15.35154,2.5791114 15.25974,2.4676614 C15.17474,2.3608414 15.08054,2.2626614 14.99119,2.1597314 C11.93896,-1.1392786 6.68109,0.322821395 6.68109,0.322821395 C9.68597,1.3680514 12.34575,4.2824714 12.34575,7.6124914 C12.4465503,11.7576001 9.17597081,15.2035554 5.03125,15.3192114 C1.00488,15.3192114 0.00097,14.3086514 1.86517468e-13,14.3077314 L1.3291,15.7523114 C2.61414156,17.0839036 4.23132727,18.0483526 6.01367,18.5460714 C6.53899477,18.1589957 7.10560403,17.8313386 7.70312,17.5691014 Z" id="路径备份-12" fill="#FFDD02" fill-rule="nonzero"></path>
        </g>
    </g>
</svg>