<svg id="图层_1" data-name="图层 1" xmlns="http://www.w3.org/2000/svg" viewBox="0 0 40 40"><defs><style>.cls-1{fill:#fff;}</style></defs><title>城市活动</title><polygon class="cls-1" points="34.73 25.55 34.73 19.31 32.94 19.31 32.94 15.39 31.74 15.39 31.74 19.31 29.95 19.31 29.95 26.44 26.24 26.44 23.97 22.88 19.93 30.69 13.07 30.69 13.07 25.55 10.32 25.55 10.32 22.41 9.42 22.41 9.42 19.73 8.44 19.73 8.44 17.32 6.24 17.32 6.24 19.73 5.25 19.73 5.25 22.41 4.35 22.41 4.35 25.55 1.6 25.55 1.6 38.72 2.8 38.72 2.8 26.75 4.35 26.75 4.95 26.75 5.55 26.75 5.55 23.75 6.45 23.75 6.45 20.93 8.22 20.93 8.22 23.75 9.12 23.75 9.12 26.75 10.32 26.75 10.32 26.75 11.87 26.75 11.87 31.86 12 31.86 12 31.89 20.67 31.89 24.08 25.28 25.58 27.64 31.14 27.64 31.14 20.51 33.53 20.51 33.53 26.75 37.2 26.75 37.2 38.72 38.4 38.72 38.4 25.55 34.73 25.55"/><rect class="cls-1" x="13.34" y="8.27" width="1.2" height="17.06" transform="translate(-7.85 18.03) rotate(-53.53)"/><rect class="cls-1" x="20.11" y="1.12" width="1.2" height="18.24" transform="translate(-1.94 5.67) rotate(-14.89)"/><rect class="cls-1" x="22.39" y="11.63" width="15.8" height="1.2" transform="matrix(0.5, -0.86, 0.86, 0.5, 4.48, 32.26)"/></svg>