<?xml version="1.0" encoding="UTF-8"?>
<svg width="40px" height="40px" viewBox="0 0 40 40" version="1.1" xmlns="http://www.w3.org/2000/svg" xmlns:xlink="http://www.w3.org/1999/xlink">
    <!-- Generator: Sketch 60 (88103) - https://sketch.com -->
    <title>iflytek_DA_common_shower_day</title>
    <desc>Created with Sketch.</desc>
    <g id="iflytek_DA_common_shower_day" stroke="none" stroke-width="1" fill="none" fill-rule="evenodd">
        <g id="编组-2" transform="translate(0.000000, -0.000000)">
            <g id="E1AB_weather_snow_shower_day">
                <path d="M14.3589744,32.3076923 L11.1461026,32.3076923 C8.03930291,32.1862776 5.59633146,29.6091474 5.64102564,26.5002974 C5.60978333,23.4284413 8.07425479,20.9126597 11.1461026,20.8806051 C11.3119487,20.8806051 11.4744103,20.8914051 11.6360308,20.906359 C12.0627127,18.1148514 14.4518157,16.045369 17.275641,16.0212308 C17.9068749,16.0227015 18.5333447,16.1305718 19.1287179,16.3403077 C20.9483733,14.2301712 23.5947406,13.0142989 26.3810974,13.0082051 C31.4580017,13.0577874 35.6578003,16.9737441 36.0619487,22.0347795 C38.1037349,22.7891343 39.4393888,24.7588899 39.3846154,26.9348821 C39.4502142,29.7948748 37.2169737,32.1823866 34.3589744,32.3076923 L30.7692308,32.3076923" id="Wolke" stroke="#FFFFFF" stroke-width="1.2"></path>
                <g id="Sonne_Kopie_2" transform="translate(-0.000000, 0.000000)">
                    <path d="M7.59377436,18.5923692 C8.02526181,18.3924812 8.47288505,18.2294521 8.93185641,18.1050256 C8.68887883,17.9259264 8.45783192,17.7311821 8.24018462,17.5220308 C6.33834621,15.6694167 5.73988298,12.8535236 6.72389568,10.3875781 C7.70790838,7.92163257 10.0805796,6.29134311 12.7353846,6.25701538 C12.7644308,6.25651282 12.7934769,6.25651282 12.8235282,6.25651282 C16.1676364,6.25825581 18.9759277,8.77362439 19.3445538,12.0973538 C19.7116561,11.8513857 20.0912518,11.6245964 20.4818154,11.4178974 C19.8749702,8.10830904 17.2121499,5.56215898 13.87871,5.10410403 C10.54527,4.64604908 7.29436946,6.37958241 5.81731772,9.40281817 C4.34026597,12.4260539 4.97078884,16.0559207 7.38085128,18.4039487 C7.44923077,18.4705538 7.52341538,18.5285846 7.59377436,18.5923692 Z" id="路径" fill="#FFDD02" fill-rule="nonzero"></path>
                    <line x1="0.656410256" y1="17.8590462" x2="4.13187692" y2="16.4194667" id="路径" stroke="#FFDD02" stroke-width="1.2"></line>
                    <line x1="24.9846154" y1="7.78197949" x2="21.5091487" y2="9.22155897" id="路径" stroke="#FFDD02" stroke-width="1.2"></line>
                    <line x1="7.78197949" y1="0.656410256" x2="9.22155897" y2="4.13187692" id="路径" stroke="#FFDD02" stroke-width="1.2"></line>
                    <line x1="17.8590462" y1="0.656410256" x2="16.4194667" y2="4.13187692" id="路径" stroke="#FFDD02" stroke-width="1.2"></line>
                    <line x1="0.656410256" y1="7.78197949" x2="4.13187692" y2="9.22155897" id="路径" stroke="#FFDD02" stroke-width="1.2"></line>
                </g>
            </g>
            <g id="编组" transform="translate(17.435897, 30.769231)" fill="#0EAAE2" stroke="#0EAAE2" stroke-width="1.11111111">
                <path d="M1.378897e-13,4.8577641 L0.934185404,2.98939329 L1.378897e-13,4.8577641 Z" id="Fill-3-Copy"></path>
                <polygon id="Fill-3" points="5.97878659 1.86837081 5.69013611 2.38903202 6.91297199 1.04805054e-13"></polygon>
                <path d="M8.96817988,4.8577641 C8.73982345,5.31447697 8.72944361,5.33523664 8.93704037,4.92004313 C9.14463712,4.50484962 9.4664121,3.86129967 9.90236529,2.98939329 L8.96817988,4.8577641 Z" id="Fill-3-Copy"></path>
                <path d="M3.36306746,7.47348323 C3.36306746,7.47348323 3.67446259,6.85069297 4.29725286,5.60511243 C3.67446259,6.85069297 3.36306746,7.47348323 3.36306746,7.47348323 Z" id="Fill-3-Copy"></path>
            </g>
        </g>
    </g>
</svg>