<?xml version="1.0" encoding="UTF-8"?>
<svg width="40px" height="40px" viewBox="0 0 40 40" version="1.1" xmlns="http://www.w3.org/2000/svg" xmlns:xlink="http://www.w3.org/1999/xlink">
    <!-- Generator: Sketch 60 (88103) - https://sketch.com -->
    <title>iflytek_DA_common_severe_haze</title>
    <desc>Created with Sketch.</desc>
    <g id="iflytek_DA_common_severe_haze" stroke="none" stroke-width="1" fill="none" fill-rule="evenodd">
        <g id="编组-2备份" transform="translate(2.000000, 2.000000)">
            <g id="编组" transform="translate(1.028571, 22.628571)" fill="#FFFFFF">
                <ellipse id="椭圆形" cx="1.13142857" cy="1.23428571" rx="1.13142857" ry="1.23428571"></ellipse>
                <ellipse id="椭圆形备份-3" cx="11.5028571" cy="1.23428571" rx="1.13142857" ry="1.23428571"></ellipse>
                <path d="M32.8114286,2.46857143 C33.4362993,2.46857143 33.9428571,1.91596289 33.9428571,1.23428571 C33.9428571,0.552608537 33.4362993,4.5519144e-14 32.8114286,4.5519144e-14 C32.1865578,4.5519144e-14 31.68,0.552608537 31.68,1.23428571 C31.68,1.91596289 32.1865578,2.46857143 32.8114286,2.46857143 Z" id="椭圆形备份"></path>
                <ellipse id="椭圆形备份-2" cx="21.8742857" cy="1.23428571" rx="1.13142857" ry="1.23428571"></ellipse>
            </g>
            <circle id="椭圆形备份-4" fill="#FFFFFF" cx="28.8" cy="29.8285714" r="1.02857143"></circle>
            <circle id="椭圆形备份-5" fill="#FFFFFF" cx="18.5142857" cy="29.8285714" r="1.02857143"></circle>
            <circle id="椭圆形备份-6" fill="#FFFFFF" cx="8.22857143" cy="29.8285714" r="1.02857143"></circle>
            <path d="M29.8534302,18.5142857 C32.7031099,18.4919492 34.9944167,16.2531051 34.9714286,13.5136413 C34.9878749,11.3897523 33.6122936,9.48565181 31.5362647,8.7588763 C31.1477529,3.86296939 26.9350928,0.062341746 21.8278238,0 C19.0292855,0.00782763359 16.3734429,1.18849745 14.554773,3.23327567 C13.9579846,3.02980316 13.3296194,2.9251105 12.6964105,2.92365168 C9.85606916,2.9541672 7.45922937,4.96305871 7.04072782,7.66391547 C6.87865121,7.64939736 6.7157229,7.63891394 6.54940538,7.63891394 C3.47194756,7.71052197 1.01878352,10.1342978 1.02857143,13.0935808 C1.03841806,16.0528638 3.50761354,18.4615487 6.58548387,18.5142857 L29.8534302,18.5142857 Z" id="路径备份" stroke="#FFFFFF" stroke-width="1.2"></path>
            <line x1="0" y1="35.4857143" x2="36" y2="35.4857143" id="路径-17" stroke="#FFFFFF" stroke-width="1.2"></line>
        </g>
    </g>
</svg>