<?xml version="1.0" encoding="UTF-8"?>
<svg width="40px" height="40px" viewBox="0 0 40 40" version="1.1" xmlns="http://www.w3.org/2000/svg" xmlns:xlink="http://www.w3.org/1999/xlink">
    <!-- Generator: Sketch 60 (88103) - https://sketch.com -->
    <title>iflytek_DA_extreme_heat </title>
    <desc>Created with Sketch.</desc>
    <g id="iflytek_DA_extreme_heat-" stroke="none" stroke-width="1" fill="none" fill-rule="evenodd">
        <path d="M26.599,21 L26.6,24.5 L26.598,24.615 L26.8155417,24.8069063 C28.5024411,26.3434339 29.5133709,28.4421723 29.5946864,30.7040765 L29.5946864,30.7040765 L29.6,31 C29.6,35.7580538 25.5179321,39.6 20.5,39.6 C15.4820679,39.6 11.4,35.7580538 11.4,31 C11.4,28.6253911 12.4244915,26.4098693 14.1854161,24.806968 L14.1854161,24.806968 L14.402,24.615 L14.4,24.5 L14.4,21 L15.599,21 L15.6,24.5 C15.6,24.5591471 15.6010452,24.6171976 15.6031545,24.6742595 L15.6126938,24.8425869 L15.6371695,25.1599526 L15.3881174,25.3581775 C13.6298636,26.7576023 12.6,28.8011215 12.6,31 C12.6,35.0785022 16.1290914,38.4 20.5,38.4 C24.8709086,38.4 28.4,35.0785022 28.4,31 C28.4,28.801375 27.3703436,26.757717 25.6126815,25.3577292 L25.6126815,25.3577292 L25.366004,25.1612492 L25.3879526,24.8466504 C25.3959709,24.7317208 25.4,24.6161283 25.4,24.5 L25.4,24.5 L25.399,21 L26.599,21 Z M20.5,0.4 C23.868937,0.4 26.6,3.13106303 26.6,6.5 L26.6,6.5 L26.599,9 L25.399,9 L25.4,6.5 C25.4,3.86694514 23.3231768,1.71895832 20.7182652,1.60477427 L20.5,1.6 C17.7938047,1.6 15.6,3.79380473 15.6,6.5 L15.6,6.5 L15.599,9 L14.4,9 L14.4,6.5 C14.4,3.20592829 17.0110311,0.521695578 20.2763722,0.404023049 Z" id="形状结合" fill="#FFFFFF" fill-rule="nonzero"></path>
        <g id="编组备份" transform="translate(15.000000, 7.000000)" stroke="#FFFFFF" stroke-width="0.5">
            <path d="M2.53477546,13.8338715 C-0.619078253,11.7541299 -0.829833042,8.59499478 1.9025111,4.35646624 C2.1662167,5.04711065 2.37697149,5.5522243 2.53477546,5.87180719 C4.04559549,3.93817015 4.69322367,1.98090109 4.47766002,0 C6.60419877,1.5818809 8.02648077,3.90847969 8.26419768,5.07576943 C8.62651141,4.06654301 8.82706934,3.37461987 8.86587147,3 C11.9878421,8.24376201 11.6845151,11.9104287 7.95589055,14 C9.33310006,10.1229858 7.24883249,7.38714815 5.93340236,5.87180719 C5.70326341,7.08332373 5.46518957,8.20918114 5.21918085,9.24937941 C4.65495327,8.20122302 4.22984691,7.54400254 3.94386178,7.27771798 C2.45935293,10.3458219 1.98965749,12.5312064 2.53477546,13.8338715 Z" id="路径-9"></path>
        </g>
        <line x1="20.5" y1="19.5" x2="20.5" y2="28.5" id="直线-4" stroke="#FFFFFF" stroke-width="1.2" stroke-linecap="square"></line>
        <circle id="椭圆形" fill="#FFFFFF" cx="20.5" cy="30.5" r="2.5"></circle>
    </g>
</svg>