<?xml version="1.0" encoding="UTF-8"?>
<svg width="40px" height="40px" viewBox="0 0 40 40" version="1.1" xmlns="http://www.w3.org/2000/svg" xmlns:xlink="http://www.w3.org/1999/xlink">
    <!-- Generator: Sketch 60 (88103) - https://sketch.com -->
    <title>iflytek_DA_common_snow shower_day</title>
    <desc>Created with Sketch.</desc>
    <g id="iflytek_DA_common_snow-shower_day" stroke="none" stroke-width="1" fill="none" fill-rule="evenodd">
        <g id="编组" transform="translate(-0.000000, 0.000000)">
            <g id="编组-4">
                <g id="编组-2" transform="translate(18.000000, 15.000000)" fill="#FFFFFF">
                    <g id="编组-3">
                        <g id="编组-3备份" transform="translate(0.538618, 16.757146)">
                            <path d="M1.32789209,4.5519144e-14 C2.06126664,4.5519144e-14 2.65578418,0.594517538 2.65578418,1.32789209 C2.65578418,2.06126664 2.06126664,2.65578418 1.32789209,2.65578418 C0.594517538,2.65578418 -1.81854531e-13,2.06126664 -1.81854531e-13,1.32789209 C-1.81854531e-13,0.594517538 0.594517538,4.5519144e-14 1.32789209,4.5519144e-14 Z" id="路径"></path>
                            <path d="M4.19364211,4.42630696 C4.92701666,4.42630696 5.5215342,5.0208245 5.5215342,5.75419905 C5.5215342,6.4875736 4.92701666,7.08209114 4.19364211,7.08209114 C3.46026756,7.08209114 2.86575002,6.4875736 2.86575002,5.75419905 C2.86575002,5.0208245 3.46026756,4.42630696 4.19364211,4.42630696 Z" id="路径备份"></path>
                            <path d="M9.72652581,2.21315348 C10.4599004,2.21315348 11.0544179,2.80767102 11.0544179,3.54104557 C11.0544179,4.27442012 10.4599004,4.86893766 9.72652581,4.86893766 C8.99315126,4.86893766 8.39863372,4.27442012 8.39863372,3.54104557 C8.39863372,2.80767102 8.99315126,2.21315348 9.72652581,2.21315348 Z" id="路径备份-3"></path>
                        </g>
                        <path d="M11.7350054,9.04391327 C11.7333868,9.10973718 11.7151127,9.17407723 11.6818897,9.23092474 C11.5676906,9.4198827 11.3236038,9.48323724 11.1319211,9.37367314 C10.9998943,9.30106403 10.9214928,9.1589076 10.9305241,9.00850281 L11.0101976,7.77577633 L8.90880841,6.59505894 L8.90991499,8.95649371 L10.0430496,9.50646235 C10.1793743,9.57062351 10.2664385,9.70768499 10.2665781,9.85835375 C10.2633666,10.0778624 10.0833044,10.2534726 9.86378414,10.2511885 C9.79620064,10.2512226 9.72966386,10.2344934 9.67013321,10.2024991 L8.91102156,9.83511564 L8.91102156,11.0578829 C8.905522,11.2757623 8.72778639,11.4497841 8.50983947,11.4506857 C8.29189255,11.4515804 8.11272875,11.2790293 8.1054337,11.0612027 L8.1054337,9.83290249 L7.34189575,10.2024991 C7.21855317,10.2693117 7.06935642,10.2672451 6.94791168,10.197042 C6.82646694,10.1268388 6.75021666,9.99858186 6.74655746,9.85835375 C6.74716067,9.70782043 6.83408087,9.57098567 6.97008596,9.50646235 L8.1054337,8.95649371 L8.10432712,6.59063264 L6.0073642,7.77356317 L6.08593115,9.00296993 C6.09496791,9.15337596 6.01656498,9.29553513 5.88453418,9.36814025 C5.69312658,9.47715801 5.44971185,9.41385055 5.33567212,9.22539186 C5.30162736,9.16883736 5.282937,9.10437467 5.28144986,9.03838039 L5.22833417,8.21176756 L4.14278239,8.8237045 C3.95038638,8.9324586 3.7063978,8.86876681 3.59170717,8.67984952 C3.53903509,8.5899848 3.52472091,8.4827114 3.55198719,8.38217998 C3.57925348,8.28164856 3.64580854,8.19630864 3.73666873,8.14537296 L4.82664682,7.53122287 L4.11733113,7.07199352 C4.05971812,7.03817712 4.01171886,6.99017786 3.97790246,6.93256485 C3.92475073,6.84240129 3.9104038,6.73454763 3.93813678,6.63362461 C3.96586976,6.5327016 4.03331536,6.44732399 4.12507716,6.39698171 C4.2580354,6.32200152 4.42155464,6.32668566 4.55000263,6.40915405 L5.60457026,7.0919119 L7.70485292,5.91008794 L5.60678342,4.72826398 L4.55332236,5.41102183 C4.42490422,5.49326708 4.26169978,5.49836722 4.12839689,5.42430075 C4.03664793,5.37365746 3.96926176,5.28808236 3.94154656,5.18701564 C3.91383136,5.08594891 3.92814007,4.97797089 3.98122219,4.88761103 C4.01539364,4.83056449 4.06333385,4.78300477 4.12065086,4.74928894 L4.82775339,4.29116617 L3.74109503,3.67922923 C3.649099,3.62882301 3.58149393,3.54324466 3.55375168,3.44207932 C3.52600943,3.34091398 3.54050476,3.23282149 3.59392033,3.14253952 C3.70776834,2.95542988 3.94896484,2.89146886 4.14056924,2.99757796 L5.2316539,3.61172805 L5.28476959,2.78290207 C5.28608355,2.71668369 5.30437232,2.65191094 5.33788527,2.59478403 C5.4529214,2.40633114 5.69649004,2.34274896 5.88896049,2.45092905 C6.02054178,2.52385909 6.09847181,2.66594145 6.08925088,2.81609938 L6.00957735,4.04882587 L8.11096658,5.2317564 L8.10986,2.86810848 L6.97672542,2.320353 C6.80949524,2.2409425 6.72078155,2.05521981 6.76410653,1.87523396 C6.8074315,1.69524812 6.97094239,1.57023922 7.15599085,1.57562685 C7.22341965,1.57575592 7.28983167,1.5920743 7.34964178,1.62320965 L8.10875343,1.99169971 L8.10875343,0.768932408 C8.1142966,0.551292755 8.29169474,0.377402264 8.50940168,0.376199869 C8.72710863,0.37500988 8.90640689,0.546940501 8.91434129,0.764506101 L8.91434129,1.99280628 L9.67677267,1.62320965 C9.73658278,1.5920743 9.8029948,1.57575592 9.8704236,1.57562685 C10.0554721,1.57023922 10.2189829,1.69524812 10.2623079,1.87523396 C10.3056329,2.05521981 10.2169192,2.2409425 10.049689,2.320353 L8.91544787,2.86921506 L8.91544787,5.23396955 L11.0135174,4.0521456 L10.9338438,2.82163226 C10.9245812,2.67117533 11.0030464,2.52890316 11.1352408,2.45646194 C11.327033,2.34840468 11.5699691,2.41207746 11.6841029,2.60031691 C11.7182841,2.65681169 11.7369852,2.72131158 11.7383251,2.78732838 L11.7925474,3.61394121 L12.8780992,3.00200427 C13.0698574,2.89300861 13.3135263,2.95625467 13.4280678,3.14475267 C13.4809219,3.23446029 13.4954558,3.34166227 13.4683948,3.44220436 C13.4413337,3.54274645 13.3749543,3.62817053 13.2842128,3.67922923 L12.1931282,4.2944859 L12.9024439,4.75482183 C12.9600614,4.78863234 13.008062,4.83663294 13.0418725,4.89425049 C13.0949582,4.98442947 13.1092681,5.09226041 13.0815405,5.19316388 C13.0538129,5.29406734 12.9864107,5.37944433 12.8946978,5.42983364 C12.7615388,5.50449064 12.5980101,5.49938037 12.4697724,5.41655472 L11.4152047,4.73269029 L9.31492207,5.9167274 L11.4129916,7.09744478 L12.4664526,6.41579351 C12.5941813,6.33135095 12.7586262,6.32621205 12.8913781,6.40251459 C12.9833859,6.45261995 13.0510501,6.53800076 13.0788102,6.63902238 C13.1065703,6.740044 13.0920371,6.8480121 13.0385528,6.93809773 C13.0047407,6.99571408 12.9567405,7.04371431 12.8991241,7.0775264 L12.1920216,7.53564917 L13.27868,8.14647953 C13.370415,8.19713616 13.4377889,8.28271107 13.4655025,8.38377226 C13.4932162,8.48483344 13.478918,8.59280503 13.4258547,8.68316925 C13.3120066,8.87027889 13.0708102,8.9342399 12.8792058,8.82813081 L11.7881211,8.21508729 L11.7350054,9.04391327 Z" id="路径备份-4"></path>
                    </g>
                </g>
                <path d="M14.291748,32.2994872 L11.0788763,32.2994872 C7.9720766,32.1780724 5.52910515,29.6009423 5.57379933,26.4920923 C5.54255701,23.4202362 8.00702848,20.9044545 11.0788763,20.8724 C11.2447224,20.8724 11.4071839,20.8832 11.5688045,20.8981538 C11.9954864,18.1066463 14.3845894,16.0371638 17.2084147,16.0130256 C17.8396486,16.0144964 18.4661184,16.1223667 19.0614916,16.3321026 C20.881147,14.2219661 23.5275142,13.0060938 26.3138711,13 C31.3907754,13.0495822 35.590574,16.9655389 35.9947224,22.0265744 C38.0365086,22.7809292 39.3721625,24.7506847 39.3173891,26.9266769 C39.3829878,29.7866697 37.1497474,32.1741815 34.291748,32.2994872 L30.7020045,32.2994872" id="Wolke备份" stroke="#FFFFFF" stroke-width="1.2"></path>
                <g id="Sonne_Kopie_2备份" transform="translate(-0.000000, 0.000000)">
                    <path d="M7.59377436,18.5923692 C8.02526181,18.3924812 8.47288505,18.2294521 8.93185641,18.1050256 C8.68887883,17.9259264 8.45783192,17.7311821 8.24018462,17.5220308 C6.33834621,15.6694167 5.73988298,12.8535236 6.72389568,10.3875781 C7.70790838,7.92163257 10.0805796,6.29134311 12.7353846,6.25701538 C12.7644308,6.25651282 12.7934769,6.25651282 12.8235282,6.25651282 C16.1676364,6.25825581 18.9759277,8.77362439 19.3445538,12.0973538 C19.7116561,11.8513857 20.0912518,11.6245964 20.4818154,11.4178974 C19.8749702,8.10830904 17.2121499,5.56215898 13.87871,5.10410403 C10.54527,4.64604908 7.29436946,6.37958241 5.81731772,9.40281817 C4.34026597,12.4260539 4.97078884,16.0559207 7.38085128,18.4039487 C7.44923077,18.4705538 7.52341538,18.5285846 7.59377436,18.5923692 Z" id="路径" fill="#FFDD02" fill-rule="nonzero"></path>
                    <line x1="0.656410256" y1="17.8590462" x2="4.13187692" y2="16.4194667" id="路径" stroke="#FFDD02" stroke-width="1.2"></line>
                    <line x1="24.9846154" y1="7.78197949" x2="21.5091487" y2="9.22155897" id="路径" stroke="#FFDD02" stroke-width="1.2"></line>
                    <line x1="7.78197949" y1="0.656410256" x2="9.22155897" y2="4.13187692" id="路径" stroke="#FFDD02" stroke-width="1.2"></line>
                    <line x1="17.8590462" y1="0.656410256" x2="16.4194667" y2="4.13187692" id="路径" stroke="#FFDD02" stroke-width="1.2"></line>
                    <line x1="0.656410256" y1="7.78197949" x2="4.13187692" y2="9.22155897" id="路径" stroke="#FFDD02" stroke-width="1.2"></line>
                </g>
            </g>
        </g>
    </g>
</svg>