<?xml version="1.0" encoding="utf-8"?>
<!-- Generator: Adobe Illustrator 27.6.1, SVG Export Plug-In . SVG Version: 6.00 Build 0)  -->
<svg version="1.1" id="图层_1" xmlns="http://www.w3.org/2000/svg" xmlns:xlink="http://www.w3.org/1999/xlink" x="0px" y="0px"
	 viewBox="0 0 40 40" style="enable-background:new 0 0 40 40;" xml:space="preserve">
<style type="text/css">
	.st0{fill:none;stroke:#FFFFFF;stroke-width:1.2;}
	.st1{fill:#FFFFFF;}
</style>
<g id="JDO_dsahboad_gift">
	<g id="编组-2" transform="translate(2.000000, 1.000000)">
		<rect id="矩形" x="0.6" y="11.4" class="st0" width="13.8" height="6.8"/>
		
			<rect id="矩形_00000074416150609950728490000017957174883699800764_" x="21.6" y="11.4" class="st0" width="13.8" height="6.8"/>
		
			<rect id="矩形_00000065786965447395472010000010145480103202422408_" x="2.6" y="20.4" class="st0" width="11.8" height="16.8"/>
		
			<rect id="矩形_00000011722126843530910690000015702184071347198902_" x="21.6" y="20.4" class="st0" width="11.8" height="16.8"/>
		<path id="矩形_00000054988678215032195510000014490040592312474258_" class="st0" d="M21.6,11.4v25.8h-7.2V11.4H21.6z"/>
		<g id="编组" transform="translate(8.458301, 0.000000)">
			<path id="形状" class="st1" d="M9.3,10.8C9.3,10.8,9.3,10.8,9.3,10.8c-0.7-0.1-5.9-0.5-8-2.3c-1.9-1.6-1.7-4.6,0-6.4
				c0.9-0.9,2-1.3,3.2-1.3s2.4,0.4,3.2,1.3C9.5,4.1,10,9.4,10,10c0,0.2-0.1,0.4-0.2,0.6C9.7,10.7,9.5,10.8,9.3,10.8z M4.6,1.9
				c-1,0-1.7,0.3-2.3,0.9C0.8,4.1,0.7,6.3,2.2,7.7C4,9,6.7,9.4,8.9,9.7C8.6,7.5,8,4.1,6.9,3C6.4,2.5,5.6,1.9,4.6,1.9z"/>
			<path id="形状_00000053511223895445815070000001099802845027340692_" class="st1" d="M9.7,10.8C9.8,10.8,9.8,10.8,9.7,10.8
				c0.7-0.1,5.9-0.5,8-2.3c1.9-1.6,1.7-4.6,0-6.4c-0.9-0.9-2-1.3-3.2-1.3s-2.4,0.4-3.2,1.3C9.5,4.1,9.1,9.4,9,10
				c0,0.2,0,0.5,0.1,0.7C9.2,10.8,9.5,10.8,9.7,10.8z M14.5,1.9c1,0,1.7,0.3,2.3,0.9c1.5,1.4,1.5,3.5,0.1,4.9
				c-1.8,1.3-4.6,1.7-6.8,2C10.4,7.5,11,4.1,12.2,3C12.7,2.5,13.4,1.9,14.5,1.9z"/>
		</g>
	</g>
</g>
</svg>
