<?xml version="1.0" encoding="UTF-8"?>
<svg width="40px" height="40px" viewBox="0 0 40 40" version="1.1" xmlns="http://www.w3.org/2000/svg" xmlns:xlink="http://www.w3.org/1999/xlink">
    <title>jdo_cn_aipush_cuisine_recommendation</title>
    <g id="jdo_cn_aipush_cuisine_recommendation" stroke="none" stroke-width="1" fill="none" fill-rule="evenodd">
        <g id="编组">
            <rect id="矩形" x="0" y="0" width="40" height="40"></rect>
            <path d="M22.6,20 L22.6,25.179 L22.6097252,25.2041925 C22.6592516,25.3081323 22.7376238,25.3734888 22.8268051,25.3931916 L22.895436,25.3992982 L23.347,25.399 C23.3749372,25.3357758 23.3921101,25.2726922 23.3978712,25.2693644 L23.4,25.2791223 L23.4,20 L24.6,20 L24.6,25.109 L24.6032134,25.1395489 C24.6093771,25.1879537 24.6243818,25.2580391 24.6507583,25.3199444 C24.6821868,25.393707 24.6900044,25.4 24.742192,25.4 L25.341997,25.4000021 C25.2904934,25.3998667 25.2942093,25.3968774 25.3299569,25.3360114 C25.3531731,25.2964821 25.3728497,25.2548801 25.3880627,25.2180161 L25.4,25.186 L25.4,20 L26.6,20 L26.6,24.799 L26.6054832,25.5020202 C26.5220118,25.8285591 26.2617443,26.3402108 26.0455369,26.607143 C25.63588,27.1462312 25.2305527,27.6169959 24.6563945,28 L24.6,28 L24.6,38 L23.4,38 L23.4,28 L23.3452674,28 C22.8807876,27.5640944 22.351543,27.0987181 21.9544631,26.6071342 C21.7340666,26.3426321 21.4799031,25.701809 21.4010741,25.3737345 L21.401,25.287 L21.4,20 L22.6,20 Z M33.6,19.4 L33.6,29.3257136 L33.5959868,30.3539499 L33.5960239,30.436111 L33.5969051,32.2390282 C33.5969485,32.3240394 33.5969928,32.4106523 33.5970382,32.498838 L33.5979556,34.2466587 L33.5980214,34.369667 L33.5989933,36.1716847 L33.5990396,36.2563779 L33.6,37.999665 L33,38 L32.4,38.000335 L32.3990887,36.3465058 C32.3990551,36.2851509 32.3990235,36.2273221 32.3989935,36.1723393 L32.3980834,34.4858544 C32.3980302,34.3863109 32.3979725,34.2785281 32.3979096,34.1608938 L32.3970383,32.4992576 L32.3969709,32.3681428 L32.3960627,30.5212566 C32.3960362,30.4637129 32.3960109,30.4080015 32.3959868,30.3541512 L32.395,29.856 L32.3688197,29.8507723 C31.2697281,29.5800879 30.4719068,28.5988491 30.4046087,27.2791611 L30.4,27.0971408 L30.4,23.9771408 C30.4,22.0063407 31.5568655,19.4 33,19.4 L33.6,19.4 Z M30,3 L30,17 L28.8,17 L28.8,4.2 L11.099,4.199 L11.099,33.8 L19,33.8 L19,35 L6,35 L6,3 L30,3 Z M9.899,4.199 L7.2,4.2 L7.2,33.8 L9.899,33.8 L9.899,4.199 Z M19,23.4 L19,24.6 L14,24.6 L14,23.4 L19,23.4 Z M19,18.4 L19,19.6 L14,19.6 L14,18.4 L19,18.4 Z M26,13.2 L26,14.4 L14,14.4 L14,13.2 L26,13.2 Z M26,8 L26,9.2 L14,9.2 L14,8 L26,8 Z" id="形状结合" fill="#FFFFFF"></path>
        </g>
    </g>
</svg>