<?xml version="1.0" encoding="UTF-8"?>
<svg width="40px" height="40px" viewBox="0 0 40 40" version="1.1" xmlns="http://www.w3.org/2000/svg" xmlns:xlink="http://www.w3.org/1999/xlink">
    <title>jdo_cn_iqiyi_sound_effect_himero_Sound</title>
    <g id="jdo_cn_iqiyi_sound_effect_himero_Sound" stroke="none" stroke-width="1" fill="none" fill-rule="evenodd">
        <g id="编组">
            <rect id="矩形" x="0" y="0" width="40" height="40"></rect>
            <g id="编组-3" transform="translate(3.000000, 2.000000)" fill="#FFFFFF">
                <path d="M19.9729171,22.8224911 C23.9982683,22.8224911 27.3066173,25.4732661 27.3066173,28.8177155 C27.3066173,32.1621648 23.9982683,34.8129398 19.9729171,34.8129398 C15.9475659,34.8129398 12.639217,32.1621648 12.639217,28.8177155 C12.639217,25.4732661 15.9475659,22.8224911 19.9729171,22.8224911 Z M19.9729171,23.9378817 C16.5022078,23.9378817 13.7337991,26.1560361 13.7337991,28.8177155 C13.7337991,31.4793948 16.5022078,33.6975492 19.9729171,33.6975492 C23.4436264,33.6975492 26.2120352,31.4793948 26.2120352,28.8177155 C26.2120352,26.1560361 23.4436264,23.9378817 19.9729171,23.9378817 Z" id="椭圆形" fill-rule="nonzero" transform="translate(19.972917, 28.817715) rotate(-10.000000) translate(-19.972917, -28.817715) "></path>
                <path d="M18.1504097,7.89510987 C18.1504097,4.86782817 20.6928321,2.40224101 23.8422367,2.40224101 C26.9916414,2.40224101 29.5340637,4.86782817 29.5340637,7.89510987 L29.5340637,28.669689 C29.5340637,28.9776956 29.7790942,29.2273843 30.0813547,29.2273843 C30.3836152,29.2273843 30.6286458,28.9776956 30.6286458,28.669689 L30.6286458,7.89510987 C30.6286458,4.23912296 27.5843715,1.28685043 23.8422367,1.28685043 C20.1001019,1.28685043 17.0558276,4.23912296 17.0558276,7.89510987 C17.0558276,8.20311647 17.3008582,8.45280516 17.6031187,8.45280516 C17.9053792,8.45280516 18.1504097,8.20311647 18.1504097,7.89510987 Z" id="路径" fill-rule="nonzero" transform="translate(23.842237, 15.257117) rotate(15.000000) translate(-23.842237, -15.257117) "></path>
                <ellipse id="椭圆形" cx="25.6621796" cy="9.65803087" rx="1.47768585" ry="1.50577727"></ellipse>
                <path d="M32.4628791,12.4448736 C32.8745424,12.7922252 32.9266773,13.4075283 32.5793257,13.8191915 C32.4956131,13.9184034 32.3929368,13.9999052 32.2773159,14.058919 L32.0526644,14.1735829 C31.6615717,14.3731997 31.182707,14.2179778 30.9830901,13.826885 C30.8972709,13.6587464 30.8740789,13.4655574 30.9176637,13.281884 L31.0019904,12.9265178 C31.1171319,12.4412933 31.6038247,12.1412818 32.0890492,12.2564233 C32.2267014,12.2890875 32.3547526,12.353639 32.4628791,12.4448736 Z" id="矩形" transform="translate(32.052664, 13.226905) rotate(1.000000) translate(-32.052664, -13.226905) "></path>
                <g id="编组备份" transform="translate(0.000000, 6.849065)" fill-rule="nonzero">
                    <path d="M19.1205002,12.4552403 C17.7447423,11.0450134 15.7350154,10.2204439 13.5769157,10.2204439 C11.1304634,10.2204439 8.88295612,11.2818119 7.53675523,13.0265013 C7.34993089,13.2686274 7.39110007,13.6192396 7.62870917,13.8096156 C7.86631826,13.9999915 8.21038953,13.9580397 8.39721386,13.7159135 C9.53116399,12.2463032 11.4591335,11.3358344 13.5769157,11.3358344 C15.447957,11.3358344 17.1771794,12.045316 18.3442286,13.241605 C18.5573262,13.4600416 18.9038502,13.4610857 19.1182117,13.2439371 C19.3325732,13.0267885 19.3335978,12.6736769 19.1205002,12.4552403 Z" id="路径" transform="translate(13.349663, 12.074685) rotate(-30.000000) translate(-13.349663, -12.074685) "></path>
                    <path d="M20.1318277,8.62835054 C17.8335435,6.13522189 14.3625328,4.6593988 10.6175402,4.6593988 C6.33703308,4.6593988 2.43239315,6.59079513 0.230472204,9.7063016 C0.0538280409,9.95623611 0.109461726,10.3047687 0.354733517,10.484771 C0.600005308,10.6647732 0.942035769,10.6080819 1.11867993,10.3581474 C3.10959033,7.54120054 6.68068524,5.77478937 10.6175402,5.77478937 C14.0653614,5.77478937 17.2462785,7.12726887 19.3340349,9.39202167 C19.5409827,9.61651413 19.8873391,9.62754762 20.1076434,9.41666566 C20.3279478,9.2057837 20.3387755,8.852843 20.1318277,8.62835054 Z" id="路径" transform="translate(10.203734, 7.624680) rotate(-30.000000) translate(-10.203734, -7.624680) "></path>
                </g>
            </g>
        </g>
    </g>
</svg>