<?xml version="1.0" encoding="UTF-8"?>
<svg width="40px" height="40px" viewBox="0 0 40 40" version="1.1" xmlns="http://www.w3.org/2000/svg" xmlns:xlink="http://www.w3.org/1999/xlink">
    <title>jdo_cn_media_children_teenager_mode_tab_language</title>
    <g id="jdo_cn_media_children_teenager_mode_tab_language" stroke="none" stroke-width="1" fill="none" fill-rule="evenodd">
        <g id="编组">
            <rect id="矩形" x="0" y="0" width="40" height="40"></rect>
            <g id="语言" transform="translate(3.000000, 3.000000)" fill="#96CC5D" fill-rule="nonzero">
                <g id="英语备份" transform="translate(0.206478, 0.206478)">
                    <path d="M28.7436275,0.688259109 C31.0305749,0.688259109 32.8987854,2.55717048 32.8987854,4.84497577 L32.8987854,4.84497577 L32.8987854,24.6135469 C32.8987854,26.9174635 31.0466802,28.7702635 28.7436275,28.7702635 L28.7436275,28.7702635 L21.5445749,28.7702635 C21.3191012,28.7702635 21.1258381,28.8347088 20.9647854,28.9958218 L20.9647854,28.9958218 L17.3572065,32.6691993 C17.0512065,32.9753141 16.5197328,32.9753141 16.2137328,32.6691993 L16.2137328,32.6691993 L12.3645749,28.7702635 L4.843417,28.7702635 C2.55646964,28.7702635 0.688259109,26.9174635 0.688259109,24.6135469 L0.688259109,24.6135469 L0.688259109,4.84497577 C0.688259109,2.54105917 2.55646964,0.688259109 4.843417,0.688259109 L4.843417,0.688259109 Z M7.84615385,13.2145749 C6.36370531,13.2145749 5.16194332,14.4163369 5.16194332,15.8987854 C5.16194332,17.381234 6.36370531,18.582996 7.84615385,18.582996 C9.32860239,18.582996 10.5303644,17.381234 10.5303644,15.8987854 C10.5303644,14.4163369 9.32860239,13.2145749 7.84615385,13.2145749 Z M16.7935223,13.2145749 C15.3110737,13.2145749 14.1093117,14.4163369 14.1093117,15.8987854 C14.1093117,17.381234 15.3110737,18.582996 16.7935223,18.582996 C18.2759708,18.582996 19.4777328,17.381234 19.4777328,15.8987854 C19.4777328,14.4163369 18.2759708,13.2145749 16.7935223,13.2145749 Z M25.7408907,13.2145749 C24.2584421,13.2145749 23.0566802,14.4163369 23.0566802,15.8987854 C23.0566802,17.381234 24.2584421,18.582996 25.7408907,18.582996 C27.2233392,18.582996 28.4251012,17.381234 28.4251012,15.8987854 C28.4251012,14.4163369 27.2233392,13.2145749 25.7408907,13.2145749 Z" id="形状结合"></path>
                </g>
            </g>
        </g>
    </g>
</svg>