<?xml version="1.0" encoding="UTF-8"?>
<svg width="40px" height="40px" viewBox="0 0 40 40" version="1.1" xmlns="http://www.w3.org/2000/svg" xmlns:xlink="http://www.w3.org/1999/xlink">
    <title>jdo_cn_media_tab_top</title>
    <g id="jdo_cn_media_tab_top" stroke="none" stroke-width="1" fill="none" fill-rule="evenodd">
        <g id="编组">
            <rect id="矩形" x="0" y="0" width="40" height="40"></rect>
            <g id="ico/Top" transform="translate(3.000000, 4.000000)" stroke="#FFFFFF" stroke-width="1.2">
                <path d="M0,3.93846154 L7,3.93846154 L7,12.8 C3.13400675,12.8 4.73447626e-16,9.66599325 0,5.8 L0,3.93846154 L0,3.93846154 Z M27,3.93846154 L34,3.93846154 L34,5.8 C34,9.66599325 30.8659932,12.8 27,12.8 L27,12.8 L27,12.8 L27,3.93846154 Z M17,21.6615385 L17,31.5076923 M7,31.5076923 L27,31.5076923 M7,0 L27,0 L27,11.6615385 C27,17.184386 22.5228475,21.6615385 17,21.6615385 C11.4771525,21.6615385 7,17.184386 7,11.6615385 L7,0 L7,0 Z" id="形状结合"></path>
            </g>
        </g>
    </g>
</svg>