<?xml version="1.0" encoding="UTF-8"?>
<svg width="40px" height="40px" viewBox="0 0 40 40" version="1.1" xmlns="http://www.w3.org/2000/svg" xmlns:xlink="http://www.w3.org/1999/xlink">
    <title>jdo_cn_media_tab_library</title>
    <g id="jdo_cn_media_tab_library" stroke="none" stroke-width="1" fill="none" fill-rule="evenodd">
        <g id="编组">
            <rect id="矩形" x="0" y="0" width="40" height="40"></rect>
            <g id="ico/Library" transform="translate(2.000000, 7.000000)">
                <g id="E043_media_playlisten" transform="translate(13.500000, 7.172414)" fill="#FFFFFF">
                    <path d="M4.84379242,11.4310345 C4.50222063,10.7147519 3.25842821,10.6148478 2.01204758,11.2035784 C1.47295012,11.4455469 1.00156369,11.8153891 0.639102316,12.2807692 C0.331200425,12.6202959 0.238093665,13.1020887 0.397451368,13.5312229 C0.589145684,13.934154 1.06652842,14.142071 1.66936547,14.142071 C2.21101923,14.1286753 2.74321627,13.9977088 3.22882484,13.7583091 C3.76808809,13.5166194 4.23962686,13.1468817 4.60213011,12.6814882 C4.91005895,12.3419753 5.00317275,11.8601687 4.84379242,11.4310345 L4.84379242,11.4310345 Z" id="Note" fill-rule="nonzero"></path>
                    <path d="M4.92265895,0.373073207 C4.92265895,0.373073207 5.00182484,1.71130773 6.03018947,2.2256755 C7.74697642,3.08423985 8.31764084,3.11482831 8.31764084,6.94077503 C8.11857221,6.02994265 8.00607411,5.93078969 7.15547368,5.07561147 C6.56583158,4.48284167 5.31461937,4.28299557 4.92265137,3.60137466 C4.92265895,2.88531485 4.91602358,0.360508167 4.92265895,0.373073207 Z" id="Fähnchen"></path>
                    <rect id="Stiel" fill-rule="nonzero" x="4.02625895" y="0.373071216" width="1" height="11.3674793"></rect>
                </g>
                <path d="M15.860957,0.6 L18.560957,5.08275862 L35.4,5.08275862 L35.4,25.4 L0.6,25.4 L0.6,0.6 L15.860957,0.6 Z" id="路径-6" stroke="#FFFFFF" stroke-width="1.2"></path>
            </g>
        </g>
    </g>
</svg>