<?xml version="1.0" encoding="UTF-8"?>
<svg width="40px" height="40px" viewBox="0 0 40 40" version="1.1" xmlns="http://www.w3.org/2000/svg" xmlns:xlink="http://www.w3.org/1999/xlink">
    <title>jdo_cn_media_sound_effect_5_dot_1_ panorama</title>
    <g id="jdo_cn_media_sound_effect_5_dot_1_-panorama" stroke="none" stroke-width="1" fill="none" fill-rule="evenodd">
        <g id="编组-3">
            <rect id="矩形" x="0" y="0" width="40" height="40"></rect>
            <g id="编组" transform="translate(2.000000, 2.000000)">
                <path d="M33.3844432,14.8246793 C33.3844432,13.7444161 33.3844432,12.2401018 33.3844432,10.0795754 C33.3844432,9.11826306 32.5190105,8.38367788 31.5628208,8.53884928 C28.966793,8.95960767 23.8614425,9.24583057 17.9881692,9.24583057 C12.1148958,9.24583057 7.00954539,8.95960767 4.41351751,8.53884928 C3.45732786,8.38367788 2.5918952,9.11826306 2.5918952,10.0795754 C2.5918952,12.0969417 2.5918952,13.8159962 2.5918952,14.8246793" id="路径" stroke="#FFFFFF" stroke-width="1.2" stroke-linecap="round"></path>
                <path d="M7.07522402,25.6498292 C9.88745805,25.2783607 13.7069933,25.0578504 17.9880881,25.0578504 C22.1628283,25.0578504 25.9481908,25.2749498 28.7208052,25.6272792" id="路径" stroke="#FFFFFF" stroke-width="1.2" stroke-linecap="round"></path>
                <g id="编组-2" transform="translate(11.174994, 29.961448)" stroke="#FFFDFD" stroke-width="1.2">
                    <path d="M11.2137662,0 C9.97928599,0.956920415 8.42556877,1.52713472 6.73770055,1.52713472 C5.04970004,1.52713472 3.49598282,0.956920415 2.26163492,0" id="Stroke-7"></path>
                    <path d="M13.4726493,2.09533288 C13.2317332,2.35641857 12.9756027,2.60345893 12.7055808,2.83514131 C12.5018406,3.00985476 12.2902948,3.17590474 12.0714726,3.33250365 C10.5710718,4.40611848 8.72881087,5.0385523 6.73771378,5.0385523 C4.7464844,5.0385523 2.90422347,4.40598721 1.40382267,3.33237239 C1.18513274,3.176036 0.973851538,3.01011729 0.77024367,2.83566637 C0.499163409,2.60293387 0.241842224,2.3548434 0,2.09244505" id="Stroke-11"></path>
                </g>
                <g id="编组-2备份" transform="translate(18.012155, 2.543897) scale(1, -1) translate(-18.012155, -2.543897) translate(11.174994, 0.000000)" stroke="#FFFDFD" stroke-width="1.2">
                    <path d="M11.2137662,0.0222469229 C9.97928599,0.979167338 8.42556877,1.54938164 6.73770055,1.54938164 C5.04970004,1.54938164 3.49598282,0.979167338 2.26163492,0.0222469229" id="Stroke-7"></path>
                    <path d="M13.4726493,2.1175798 C13.2317332,2.3786655 12.9756027,2.62570586 12.7055808,2.85738823 C12.5018406,3.03210169 12.2902948,3.19815166 12.0714726,3.35475057 C10.5710718,4.4283654 8.72881087,5.06079922 6.73771378,5.06079922 C4.7464844,5.06079922 2.90422347,4.42823413 1.40382267,3.35461931 C1.18513274,3.19828293 0.973851538,3.03236422 0.77024367,2.85791329 C0.499163409,2.6251808 0.241842224,2.37709032 1.92299601e-14,2.11469198" id="Stroke-11"></path>
                </g>
                <path d="M2.8738631,16.6732077 C1.31397745,16.6732077 0.0377073658,17.9395029 0.0377073658,19.4871969 L0.0377073658,24.8471764 C0.0377073658,26.3948705 1.31397745,27.6611656 2.8738631,27.6611656 C4.43374875,27.6611656 5.71001883,26.3948705 5.71001883,24.8471764 L5.71001883,19.4871969 C5.71001883,17.2247496 4.43374875,16.6732077 2.8738631,16.6732077 M2.8738631,17.2092057 C4.50451759,17.2092057 5.16979869,17.8692871 5.16979869,19.4871969 L5.16979869,24.8471764 C5.16979869,26.1032876 4.139869,27.1251677 2.8738631,27.1251677 C1.6078572,27.1251677 0.577927505,26.1032876 0.577927505,24.8471764 L0.577927505,19.4871969 C0.577927505,18.2310857 1.6078572,17.2092057 2.8738631,17.2092057" id="Fill-13" stroke="#FFFFFF" stroke-width="0.3" fill="#FFFFFF"></path>
                <line x1="2.8738631" y1="28.867161" x2="2.8738631" y2="27.5271661" id="Stroke-15" stroke="#FFFFFF" stroke-width="1.5"></line>
                <path d="M5.74767218,29.6711579 C5.41732756,29.2091277 4.25774503,28.867161 2.87397114,28.867161 C1.48992715,28.867161 0.330344615,29.2091277 0,29.6711579" id="Stroke-17" stroke="#FFFFFF" stroke-width="1.5"></path>
                <path d="M33.1261909,16.6732077 C31.5663053,16.6732077 30.2900352,17.9395029 30.2900352,19.4871969 L30.2900352,24.8471764 C30.2900352,26.3948705 31.5663053,27.6611656 33.1261909,27.6611656 C34.6860766,27.6611656 35.9623467,26.3948705 35.9623467,24.8471764 L35.9623467,19.4871969 C35.9623467,17.9395029 34.6860766,16.6732077 33.1261909,16.6732077 M33.1261909,17.2092057 C34.3921968,17.2092057 35.4221265,18.2310857 35.4221265,19.4871969 L35.4221265,24.8471764 C35.4221265,26.1032876 34.3921968,27.1251677 33.1261909,27.1251677 C31.860185,27.1251677 30.8302553,26.1032876 30.8302553,24.8471764 L30.8302553,19.4871969 C30.8302553,18.2310857 31.860185,17.2092057 33.1261909,17.2092057" id="Fill-19" stroke="#FFFFFF" stroke-width="0.3" fill="#FFFFFF"></path>
                <line x1="33.1261909" y1="28.867161" x2="33.1261909" y2="27.5271661" id="Stroke-21" stroke="#FFFFFF" stroke-width="2"></line>
                <path d="M36,29.6711579 C35.6696554,29.2091277 34.5100729,28.867161 33.126299,28.867161 C31.742255,28.867161 30.5826724,29.2091277 30.2523278,29.6711579" id="Stroke-23" stroke="#FFFFFF" stroke-width="1.5"></path>
            </g>
        </g>
    </g>
</svg>