<?xml version="1.0" encoding="UTF-8"?>
<svg width="40px" height="40px" viewBox="0 0 40 40" version="1.1" xmlns="http://www.w3.org/2000/svg" xmlns:xlink="http://www.w3.org/1999/xlink">
    <title>jdo_cn_aipush_movie_recommendation</title>
    <g id="jdo_cn_aipush_movie_recommendation" stroke="none" stroke-width="1" fill="none" fill-rule="evenodd">
        <g id="编组">
            <rect id="矩形" x="0" y="0" width="40" height="40"></rect>
            <path d="M7.24288504,20.4834339 C7.53144444,20.7423236 7.83159114,20.9850632 8.1418885,21.2112678 L6.43,23.3889847 L33.569,23.3889847 L32.0933302,21.5123302 L33.3103302,21.2033302 L35,23.4 L35,37.4 L5,37.4 L5,23.4 L7.24288504,20.4834339 Z M33.8,24.6 L6.2,24.6 L6.2,36.2 L33.8,36.2 L33.8,24.6 Z M31,32 L31,33.2 L13,33.2 L13,32 L31,32 Z M11,32 L11,33.2 L9,33.2 L9,32 L11,32 Z M31,28 L31,29.2 L13,29.2 L13,28 L31,28 Z M11,28 L11,29.2 L9,29.2 L9,28 L11,28 Z M23.660254,7 C24.4073781,8.29405686 24.8324032,9.68568956 24.9602047,11.0820621 L23.6860377,10.5735778 C23.51883,9.55431398 23.1680275,8.54743862 22.6210236,7.6 C20.1909707,3.39102491 14.8089751,1.94892355 10.6,4.37897645 C6.39102491,6.80902935 4.94892355,12.1910249 7.37897645,16.4 C9.74219245,20.4932102 14.897202,21.9696554 19.050129,19.8127695 L17.492325,21.6870586 C16.7408983,21.8808314 15.977668,21.9836376 15.2176361,21.9994971 L14.8563511,22.0004984 C11.4544009,21.9484086 8.16460604,20.1607504 6.33974596,17 C3.57832221,12.2170738 5.21707377,6.10116971 10,3.33974596 C14.7829262,0.578322213 20.8988303,2.21707377 23.660254,7 Z M31.864149,9.94107212 L31.4868485,15.7249407 L36.0375638,19.3147152 L30.4201857,20.7431948 L29.9553029,21.9990721 L28.6763029,21.9990721 L29.2944844,20.3275066 L29.5130247,19.7356904 L30.1244425,19.580209 L33.3847883,18.7506516 L30.7436447,16.6670915 L30.2483268,16.2763661 L30.2893936,15.6468268 L30.5083909,12.2887179 L27.7101982,14.1577276 L27.1855347,14.5080623 L26.5994976,14.274467 L23.4739935,13.0286516 L24.3862649,16.2672706 L24.557323,16.8745147 L24.1540653,17.3596842 L22.002759,19.9469045 L25.3654076,20.0804037 L25.9957909,20.1053666 L26.332601,20.6388131 L27.1913029,21.9990721 L25.7723029,21.9990721 L25.3179255,21.2794639 L19.5263029,21.0501187 L23.2312181,16.5926424 L21.6596286,11.0136104 L27.0438222,13.1597582 L31.864149,9.94107212 Z M20.0980762,14.830127 C20.9265033,16.2650049 20.4348779,18.0997761 19,18.9282032 C17.5651221,19.7566304 15.7303509,19.2650049 14.9019238,17.830127 C14.0734967,16.3952491 14.5651221,14.5604779 16,13.7320508 C17.4348779,12.9036237 19.2696491,13.3952491 20.0980762,14.830127 Z M16.6,14.7712813 C15.7390733,15.2683376 15.444098,16.3692003 15.9411543,17.230127 C16.4382105,18.0910537 17.5390733,18.386029 18.4,17.8889727 C19.2609267,17.3919165 19.555902,16.2910537 19.0588457,15.430127 C18.5617895,14.5692003 17.4609267,14.274225 16.6,14.7712813 Z M13.2679492,13 C14.0963763,14.4348779 13.6047509,16.2696491 12.169873,17.0980762 C10.7349951,17.9265033 8.90022389,17.4348779 8.07179677,16 C7.24336965,14.5651221 7.73499511,12.7303509 9.16987298,11.9019238 C10.6047509,11.0734967 12.4395221,11.5651221 13.2679492,13 Z M9.76987298,12.9411543 C8.90894626,13.4382105 8.61397098,14.5390733 9.11102725,15.4 C9.60808353,16.2609267 10.7089463,16.555902 11.569873,16.0588457 C12.4307997,15.5617895 12.725775,14.4609267 12.2287187,13.6 C11.7316624,12.7390733 10.6307997,12.444098 9.76987298,12.9411543 Z M21.9282032,8 C22.294396,8.63426445 22.4026586,9.34666559 22.2855355,10.0157458 L21.1295634,9.55407224 C21.1395867,9.23074659 21.062602,8.90073468 20.8889727,8.6 C20.3919165,7.73907328 19.2910537,7.444098 18.430127,7.94115427 C17.5692003,8.43821055 17.274225,9.53907328 17.7712813,10.4 C18.2683376,11.2609267 19.3692003,11.555902 20.230127,11.0588457 C20.3014376,11.0176745 20.3688653,10.9723608 20.4322816,10.9233838 L20.7703302,12.1293302 L20.6691219,12.1847105 C19.2607206,12.8887927 17.5297954,12.3817342 16.7320508,11 C15.9036237,9.56512213 16.3952491,7.73035091 17.830127,6.90192379 C19.2650049,6.07349666 21.0997761,6.56512213 21.9282032,8 Z M15.0980762,6.16987298 C15.9265033,7.60475085 15.4348779,9.43952207 14,10.2679492 C12.5651221,11.0963763 10.7303509,10.6047509 9.90192379,9.16987298 C9.07349666,7.73499511 9.56512213,5.90022389 11,5.07179677 C12.4348779,4.24336965 14.2696491,4.73499511 15.0980762,6.16987298 Z M11.6,6.11102725 C10.7390733,6.60808353 10.444098,7.70894626 10.9411543,8.56987298 C11.4382105,9.4307997 12.5390733,9.72577498 13.4,9.22871871 C14.2609267,8.73166243 14.555902,7.6307997 14.0588457,6.76987298 C13.5617895,5.90894626 12.4609267,5.61397098 11.6,6.11102725 Z" id="形状结合" fill="#FFFFFF" fill-rule="nonzero"></path>
        </g>
    </g>
</svg>