<?xml version="1.0" encoding="UTF-8"?>
<svg width="40px" height="40px" viewBox="0 0 40 40" version="1.1" xmlns="http://www.w3.org/2000/svg" xmlns:xlink="http://www.w3.org/1999/xlink">
    <title>jdo_cn_media_adult_mode</title>
    <g id="jdo_cn_media_adult_mode" stroke="none" stroke-width="1" fill="none" fill-rule="evenodd">
        <g id="编组">
            <rect id="矩形" fill="#D8D8D8" opacity="0" x="0" y="0" width="40" height="40"></rect>
            <g id="编组-3" transform="translate(2.000000, 4.000000)" stroke="#FFFFFF">
                <g id="编组-34">
                    <path d="M28.8,15.931833 C28.8,15.7033895 28.8,15.3607242 28.8,14.9038371 C28.8,6.77630702 22.4263923,0.112125723 14.5973668,0.00127951465 C6.57140629,-0.109566693 0,6.99710552 0,15.3043137 L0,23.2006717 C0,24.9196819 0.288492337,26.570754 0.81451579,28.11098 C2.04017635,31.7286784 6.79338992,32.2900608 8.92339622,29.1497162 L9.34231473,28.5284411" id="Stroke-1" stroke-width="1.2" stroke-linecap="square"></path>
                    <path d="M19.4906805,28.570813 L19.885414,29.1491799 C21.2112695,31.1122305 23.5658507,31.6289168 25.4453696,30.857463" id="Stroke-3" stroke-linecap="square"></path>
                    <path d="M12.3983469,8.24376381 C11.0232577,11.3537151 7.98545062,13.505383 4.46480761,13.505383 C4.3913889,13.505383 4.30933269,13.505383 4.23591398,13.4973377 L4.23591398,19.1066922 C4.23591398,24.8090145 8.73864019,29.4690248 14.2484983,29.4690248 L14.5594482,29.4690248 C20.0615326,29.4690248 24.5651225,24.8090145 24.5651225,19.1066922 L24.5651225,13.3444772 C23.9181741,13.4463842 23.246177,13.505383 22.5672699,13.505383 C18.4074522,13.505383 14.7157868,11.4377437 12.3983469,8.24376381 M12.5443205,9.82779188 C15.1113841,12.7491258 18.6968083,14.399304 22.5672699,14.399304 C22.9386822,14.399304 23.3170045,14.3832135 23.701373,14.3501384 L23.701373,19.1066922 C23.701373,24.328085 19.6002903,28.5751038 14.5594482,28.5751038 L14.2484983,28.5751038 C9.20333743,28.5751038 5.0996635,24.328085 5.0996635,19.1066922 L5.0996635,14.3778499 C8.14524428,14.1677785 10.9144252,12.4612832 12.5443205,9.82779188" id="Fill-5" stroke-width="0.3" fill="#FFFFFF"></path>
                </g>
                <g id="编组-2" transform="translate(26.400000, 18.400000)" stroke-width="1.2">
                    <path d="M2.60734424,0 L0.8,1.8907079 L6.89230769,1.8907079 C8.38772486,1.8907079 9.6,3.24902278 9.6,4.9245891 L9.6,7.2" id="路径"></path>
                    <path d="M1.80734424,4 L0,5.8907079 L6.09230769,5.8907079 C7.58772486,5.8907079 8.8,7.24902278 8.8,8.9245891 L8.8,11.2" id="路径" transform="translate(4.400000, 7.600000) scale(-1, -1) translate(-4.400000, -7.600000) "></path>
                </g>
            </g>
        </g>
    </g>
</svg>