<?xml version="1.0" encoding="UTF-8"?>
<svg width="40px" height="40px" viewBox="0 0 40 40" version="1.1" xmlns="http://www.w3.org/2000/svg" xmlns:xlink="http://www.w3.org/1999/xlink">
    <title>jdo_cn_media_children_teenager_mode_tab_vip_featured</title>
    <g id="jdo_cn_media_children_teenager_mode_tab_vip_featured" stroke="none" stroke-width="1" fill="none" fill-rule="evenodd">
        <g id="编组-2">
            <rect id="矩形" x="0" y="0" width="40" height="40"></rect>
            <g id="Fill-1" transform="translate(2.000000, 3.000000)" fill="#FDD83A">
                <path d="M28.222729,32.2312638 L7.77890741,32.2312638 C7.00929602,32.2312638 6.38181818,31.4771332 6.38181818,30.5514978 C6.38181818,29.6258624 7.00929602,28.8717317 7.77890741,28.8717317 L28.222729,28.8717317 C28.9927584,28.8717317 29.6198182,29.6258624 29.6198182,30.5514978 C29.6198182,31.4771332 28.9969388,32.2312638 28.222729,32.2312638 M5.76043709,27.4635311 C5.14547399,27.4635311 4.59827541,26.9911582 4.41319354,26.2943591 L0.15122816,12.7411364 C-0.274841319,11.1569229 0.219416218,9.46784663 1.3815779,8.53731112 C2.54373958,7.60677561 4.04768861,7.69742809 5.12514463,8.76173727 L9.72932088,13.1191768 L15.0772128,2.95860619 C15.587988,1.60371905 16.6773028,0.768736159 17.9279819,0.768736159 L17.96017,0.768736159 C19.2188962,0.782946548 20.3124463,1.64635022 20.8071273,3.0208379 L25.873373,13.1284871 L30.9116657,8.51330046 C31.9933571,7.4823122 33.4930708,7.41567037 34.6391384,8.34620588 C35.785206,9.28164152 36.27184,10.9614076 35.8495823,12.5309206 L31.5228171,26.2943591 C31.3339235,26.9911582 30.7913837,27.4635311 30.1759971,27.4635311 L5.76043709,27.4635311 Z"></path>
            </g>
        </g>
    </g>
</svg>