<?xml version="1.0" encoding="UTF-8"?>
<svg width="40px" height="40px" viewBox="0 0 40 40" version="1.1" xmlns="http://www.w3.org/2000/svg" xmlns:xlink="http://www.w3.org/1999/xlink">
    <title>jdo_cn_media_children_teenager_mode_tab_lifestyle</title>
    <defs>
        <filter x="-32.8%" y="-31.8%" width="165.6%" height="163.6%" filterUnits="objectBoundingBox" id="filter-1">
            <feOffset dx="0" dy="1" in="SourceAlpha" result="shadowOffsetOuter1"></feOffset>
            <feGaussianBlur stdDeviation="2" in="shadowOffsetOuter1" result="shadowBlurOuter1"></feGaussianBlur>
            <feColorMatrix values="0 0 0 0 0   0 0 0 0 0   0 0 0 0 0  0 0 0 0.2 0" type="matrix" in="shadowBlurOuter1" result="shadowMatrixOuter1"></feColorMatrix>
            <feMerge>
                <feMergeNode in="shadowMatrixOuter1"></feMergeNode>
                <feMergeNode in="SourceGraphic"></feMergeNode>
            </feMerge>
        </filter>
    </defs>
    <g id="jdo_cn_media_children_teenager_mode_tab_lifestyle" stroke="none" stroke-width="1" fill="none" fill-rule="evenodd">
        <g id="编组">
            <rect id="矩形" x="0" y="0" width="40" height="40"></rect>
            <g id="生活" filter="url(#filter-1)" transform="translate(4.000000, 4.000000)" fill="#5588E4" fill-rule="nonzero">
                <path d="M31.8041168,1.03523641 L31.7169536,0.333107162 L31.0166542,0.212918849 C30.9742515,0.205616646 29.9613024,0.0346854678 28.4614895,0.0346854678 C26.716018,0.0346854678 24.1196108,0.271634529 21.662762,1.40045836 C19.7806512,2.26517341 18.1199476,4.29175849 16.7267964,7.42388232 C16.5026572,7.92784614 16.3043787,8.41880758 16.13125,8.87836208 C15.8447605,7.93570719 15.4787425,7.06212518 15.0371257,6.26979882 C14.2083458,4.78298072 13.1131362,3.58113484 11.7818862,2.6976427 C8.52761976,0.537941429 5.37945359,0.0845714415 3.31152695,0.0845714415 C1.79648204,0.0845714415 0.82383982,0.330014902 0.783158683,0.340483878 L0.131437126,0.507912979 L0.0690868263,1.17505871 C0.0620508982,1.25009258 -0.0980164671,3.03808932 0.298952096,5.30501377 C0.534019461,6.64746432 0.916991018,7.88570945 1.43727545,8.98543624 C2.10052395,10.3872731 2.98877246,11.5661319 4.07739521,12.4893018 C5.64098054,13.8152479 7.29730539,14.7907627 9.00022455,15.3888356 C10.344985,15.8611317 11.7237275,16.1005769 13.0980913,16.1005769 L13.0981287,16.1005769 C13.9586826,16.1005769 14.6937874,16.0050894 15.2477171,15.9030076 L15.2477171,18.3990573 L5.97821856,18.3990573 L5.97821856,29.7210125 C5.97821856,31.4728335 7.40988024,32.8980672 9.16968563,32.8980672 L23.7199476,32.8980672 C25.4797156,32.8980672 26.9113772,31.4728335 26.9113772,29.7210125 L26.9113772,18.3989828 L17.1625,18.3989828 L17.1625,13.1234759 C18.4444985,13.3295769 19.6561377,13.4340803 20.776759,13.4340803 C24.4526198,13.4340803 27.2915793,12.3359556 29.2148204,10.1702561 C32.4443862,6.53353504 31.831774,1.25806539 31.8041168,1.03523641 Z" id="路径"></path>
            </g>
        </g>
    </g>
</svg>