<?xml version="1.0" encoding="UTF-8"?>
<svg width="40px" height="40px" viewBox="0 0 40 40" version="1.1" xmlns="http://www.w3.org/2000/svg" xmlns:xlink="http://www.w3.org/1999/xlink">
    <title>jdo_cn_media_sound_effect_hifi_live</title>
    <g id="jdo_cn_media_sound_effect_hifi_live" stroke="none" stroke-width="1" fill="none" fill-rule="evenodd">
        <g id="编组-2">
            <rect id="矩形" x="0" y="0" width="40" height="40"></rect>
            <g id="编组" transform="translate(2.000000, 5.000000)" fill="#FFFFFF">
                <polygon id="Fill-1" points="30.6035403 22.8927835 34.3008813 29.0550736 1.69916766 29.0550736 5.13631197 23.3264574 4.28805118 22.8532855 0 30 36 30 31.4518501 22.4196116"></polygon>
                <polygon id="Fill-2" points="18.0000098 0 10.7214118 12.1310122 11.5697216 12.604184 18.0000098 1.88701799 24.5721567 12.8405574 25.4204665 12.3673855"></polygon>
                <polygon id="Fill-3" points="12.1870541 23.7463544 12.1870541 19.2739705 7.43407901 19.2739705 7.43407901 23.7463544 6.15421513 23.7463544 6.15421513 14.0496143 7.43407901 14.0496143 7.43407901 18.2571825 12.1870541 18.2571825 12.1870541 14.0496143 13.466967 14.0496143 13.466967 23.7463544"></polygon>
                <path d="M16.1659564,23.7463685 L17.3881458,23.7463685 L17.3881458,16.8775569 L16.1659564,16.8775569 L16.1659564,23.7463685 Z M16.1659564,15.4423555 L17.3881458,15.4423555 L17.3881458,14.0496285 L16.1659564,14.0496285 L16.1659564,15.4423555 Z" id="Fill-4"></path>
                <polygon id="Fill-5" points="20.0871204 23.7463544 20.0871204 14.0496143 25.7736675 14.0496143 25.7736675 15.0696151 21.3670333 15.0696151 21.3670333 18.4958709 25.5089137 18.4958709 25.5089137 19.5158717 21.3670333 19.5158717 21.3670333 23.7463544"></polygon>
                <path d="M27.5968231,23.7463685 L28.8190125,23.7463685 L28.8190125,16.8775569 L27.5968231,16.8775569 L27.5968231,23.7463685 Z M27.5968231,15.4423555 L28.8190125,15.4423555 L28.8190125,14.0496285 L27.5968231,14.0496285 L27.5968231,15.4423555 Z" id="Fill-6"></path>
            </g>
        </g>
    </g>
</svg>