<?xml version="1.0" encoding="UTF-8"?>
<svg width="40px" height="40px" viewBox="0 0 40 40" version="1.1" xmlns="http://www.w3.org/2000/svg" xmlns:xlink="http://www.w3.org/1999/xlink">
    <title>jdo_cn_media_tab_recommended</title>
    <g id="jdo_cn_media_tab_recommended" stroke="none" stroke-width="1" fill="none" fill-rule="evenodd">
        <g id="编组">
            <rect id="矩形" x="0" y="0" width="40" height="40"></rect>
            <g id="ico/Recommend" transform="translate(3.000000, 6.000000)" stroke="#FFFFFF" stroke-width="1.2">
                <path d="M1,12.5195402 L9.38581635,12.5195402 C9.76257843,12.5195402 10.1073618,12.3077799 10.2777333,11.9717394 L15.8056054,1.06857266 C16.0553481,0.575980509 16.6571294,0.379112137 17.1497215,0.628854843 C17.2031924,0.655964414 17.2541171,0.68782746 17.3018805,0.724059037 L20.8043581,3.38091456 C21.0535993,3.56998008 21.2,3.86479044 21.2,4.17762735 L21.2,10.5301724 L21.2,10.5301724 L31.7976469,10.5301724 C33.4545012,10.5301724 34.7976469,11.8733182 34.7976469,13.5301724 C34.7976469,13.8617559 34.7426757,14.1910456 34.6349689,14.5046487 L30.4637765,26.6496508 C30.1863158,27.4575159 29.4264125,28 28.5722285,28 L1,28 C0.44771525,28 -1.5440923e-16,27.5522847 0,27 L0,13.5195402 C8.94331705e-15,12.9672555 0.44771525,12.5195402 1,12.5195402 Z M7.57894737,12.6 L7.57894737,27.5333333" id="形状结合"></path>
            </g>
        </g>
    </g>
</svg>