<?xml version="1.0" encoding="UTF-8"?>
<svg width="40px" height="40px" viewBox="0 0 40 40" version="1.1" xmlns="http://www.w3.org/2000/svg" xmlns:xlink="http://www.w3.org/1999/xlink">
    <title>jdo_cn_media_children_teenager_mode_tab_my</title>
    <g id="jdo_cn_media_children_teenager_mode_tab_my" stroke="none" stroke-width="1" fill="none" fill-rule="evenodd">
        <g id="编组">
            <rect id="矩形" x="0" y="0" width="40" height="40"></rect>
            <g id="我的备份" transform="translate(2.000000, 2.000000)" fill="#F8C19D" fill-rule="nonzero">
                <path d="M31.5509516,15.2864058 C30.2197061,11.9078694 27.7350036,9.14085237 24.5955192,7.50579687 C24.7169357,7.16750953 24.8079981,6.8075371 24.8773789,6.41720555 C25.2242833,3.16444264 23.86702,0.956900875 21.0007227,0.0504642763 C20.406649,-0.136027464 19.7735485,0.210933913 19.5957601,0.818116324 C19.4136353,1.42963575 19.7475307,2.07585132 20.3416044,2.26668007 C22.1628523,2.83916635 22.8740063,3.99714995 22.6528547,6.08759224 C22.6225006,6.278421 22.5748013,6.45190169 22.5227656,6.62104536 C21.1004577,6.14831049 19.5784148,5.88375244 18,5.88375244 C11.8684654,5.88375244 6.61720067,9.76971986 4.44471212,15.2820687 C1.90363768,15.841544 0,18.1661852 0,20.9462132 C0,23.7262413 1.90363768,26.0508825 4.44471212,26.6060207 C6.61720067,32.1140326 11.8684654,36 18,36 C24.1315346,36 29.3827993,32.1140326 31.5552879,26.6060207 C34.0963623,26.0508825 36,23.7305783 36,20.9462132 C36,18.1618482 34.092026,15.841544 31.5509516,15.2864058 Z M14.496266,19.87497 C14.496266,20.5125115 13.9932546,21.0329536 13.3731631,21.0329536 C12.7487352,21.0329536 12.2500602,20.5125115 12.2500602,19.87497 L12.2500602,18.3440029 C12.2500602,17.7064614 12.7530715,17.1860193 13.3731631,17.1860193 C13.9975909,17.1860193 14.496266,17.7064614 14.496266,18.3440029 L14.496266,19.87497 Z M21.3953264,24.420164 C20.6104553,25.7082581 19.4743435,26.436877 18.0043363,26.5062693 C16.5733558,26.4715732 15.4198988,25.7342802 14.6523729,24.3984789 C14.3358227,23.8476778 14.5136112,23.1407439 15.0426403,22.8111306 C15.5803421,22.4858543 16.2698145,22.6680091 16.5863647,23.2188103 C16.9722958,23.8867109 17.4276078,24.1772911 17.9783185,24.1946391 C18.6070826,24.16428 19.0840761,23.8606888 19.4873524,23.1927882 C19.8169116,22.650661 20.5107203,22.4901914 21.0397495,22.8284787 C21.5644423,23.162429 21.7248856,23.8780369 21.3953264,24.420164 L21.3953264,24.420164 Z M23.7542761,19.87497 C23.7542761,20.5125115 23.2512648,21.0329536 22.6311732,21.0329536 C22.0067454,21.0329536 21.5080703,20.5125115 21.5080703,19.87497 L21.5080703,18.3440029 C21.5080703,17.7064614 22.0110817,17.1860193 22.6311732,17.1860193 C23.2556011,17.1860193 23.7542761,17.7064614 23.7542761,18.3440029 L23.7542761,19.87497 Z" id="形状"></path>
            </g>
        </g>
    </g>
</svg>