<?xml version="1.0" encoding="UTF-8"?>
<svg width="40px" height="40px" viewBox="0 0 40 40" version="1.1" xmlns="http://www.w3.org/2000/svg" xmlns:xlink="http://www.w3.org/1999/xlink">
    <title>jdo_cn_ximalaya_song_recognizer</title>
    <g id="jdo_cn_ximalaya_song_recognizer" stroke="none" stroke-width="1" fill="none" fill-rule="evenodd">
        <g id="编组-2">
            <rect id="矩形" x="0" y="0" width="40" height="40"></rect>
            <g id="编组" transform="translate(2.000000, 3.000000)">
                <g id="E08D_media_title" transform="translate(12.486363, 7.500000)" fill="#FFFFFF">
                    <polygon id="路径" fill-rule="nonzero" points="8.66015641 0 8.66015641 15 7.55795469 15 7.55795469 0"></polygon>
                    <path d="M8.3977181,0 C8.3977181,0 8.57695979,1.4586769 9.70591374,1.95248457 C11.5909372,2.77652448 12.505638,2.65845418 12.505638,7.5 C12.2179052,6.86413476 11.9507734,5.66866278 10.5780271,4.68534843 C9.87002658,4.17800859 9.18606525,4.3317495 8.3977181,3.69711251 C8.3977181,2.91666667 8.3977181,0 8.3977181,0 Z" id="路径"></path>
                    <path d="M8.26182804,14.3407224 C8.844937,15.558332 7.49760842,17.400828 5.25413338,18.4546569 C3.00963251,19.5094654 0.71907414,19.3768812 0.135965188,18.1592716 C-0.447143765,16.9426416 0.899138051,15.1001456 3.14365985,14.0453438 C5.38711396,12.9905352 7.67767233,13.1231194 8.26182804,14.3407224 Z" id="路径"></path>
                </g>
                <path d="M7.90912417,31.593959 C10.8347434,33.7347568 14.4508594,35 18.3647724,35 C28.1044397,35 36,27.1649831 36,17.5 C36,7.83501688 28.1044397,0 18.3647724,0 C14.4538844,0 10.8403331,1.26328827 7.91590871,3.40107895" id="路径" stroke="#FFFFFF" stroke-width="1.2"></path>
                <path d="M2.51931823,28.3333333 C6.01339267,26.2919324 8.39772743,22.2058958 8.39772743,17.4981566 C8.39772743,12.7932498 6.01626077,8.70929762 2.52562342,6.66666667" id="路径" stroke="#FFFFFF" stroke-width="1.2"></path>
                <path d="M0,24.1616084 C2.42874743,22.9141485 4.08863577,20.397777 4.08863577,17.4966906 C4.08863577,14.5968134 2.43013086,12.0813304 0.00303658868,10.8333333" id="路径" stroke="#FFFFFF" stroke-width="1.2"></path>
            </g>
        </g>
    </g>
</svg>