<?xml version="1.0" encoding="UTF-8"?>
<svg width="40px" height="40px" viewBox="0 0 40 40" version="1.1" xmlns="http://www.w3.org/2000/svg" xmlns:xlink="http://www.w3.org/1999/xlink">
    <title>jdo_cn_media_download_paid_only</title>
    <g id="jdo_cn_media_download_paid_only" stroke="none" stroke-width="1" fill="none" fill-rule="evenodd">
        <g id="编组">
            <rect id="矩形" x="0" y="0" width="40" height="40"></rect>
            <g id="E9E1_media_download备份-8" transform="translate(8.000000, 2.000000)">
                <path d="M18.7811562,14.2054054 L18.7811562,11.7805179 L22.4311205,11.7805179 L22.4311205,10.6074393 L18.7811562,10.6074393 L18.7811562,9.62331286 L19.2877497,8.76515464 L22.4311205,8.76515464 L22.4311205,7.58813945 L19.9853537,7.58813945 L23,2.52972973 L21.2601422,2.52972973 L18.6898033,6.95042554 C18.5596946,7.1734942 18.4337383,7.41034062 18.3119344,7.66096481 C18.1901305,7.911589 18.0793997,8.16943012 17.979742,8.43448816 C17.8856208,8.16943012 17.7783503,7.90962075 17.6579306,7.65506005 C17.5375108,7.40049935 17.4150149,7.16562118 17.2904427,6.95042554 L17.2904427,6.95042554 L14.7159514,2.52972973 L12.9636364,2.52972973 L15.9699778,7.58813945 L13.5366683,7.58813945 L13.5366683,8.76515464 L16.6675819,8.76515464 L17.1824802,9.61150334 L17.1824802,10.6074393 L13.5366683,10.6074393 L13.5366683,11.7805179 L17.1824802,11.7805179 L17.1824802,14.2054054 L18.7811562,14.2054054 Z" id="¥" fill="#FFFFFF" fill-rule="nonzero"></path>
                <g id="E9E1_media_download" stroke="#FFFFFF" stroke-width="1.2">
                    <polyline id="路径" points="17.6333333 17.2390938 17.6333333 22.5 23 22.5 11.5 36 0 22.5 5.36666667 22.5 5.36666667 0 17.6333333 0"></polyline>
                </g>
            </g>
        </g>
    </g>
</svg>