<?xml version="1.0" encoding="UTF-8"?>
<svg width="40px" height="40px" viewBox="0 0 40 40" version="1.1" xmlns="http://www.w3.org/2000/svg" xmlns:xlink="http://www.w3.org/1999/xlink">
    <title>jdo_cn_media_sound_effect_super_bass</title>
    <g id="jdo_cn_media_sound_effect_super_bass" stroke="none" stroke-width="1" fill="none" fill-rule="evenodd">
        <g id="编组">
            <rect id="矩形" x="0" y="0" width="40" height="40"></rect>
            <g id="Media图标-04" transform="translate(8.000000, 3.000000)" fill="#FFFFFF" fill-rule="nonzero" stroke="#FFFFFF" stroke-width="0.2">
                <path d="M24,34 L0,34 L0,0 L24,0 L24,34 Z M1.0212766,33.0229885 L22.9787234,33.0229885 L22.9787234,0.977011494 L1.0212766,0.977011494 L1.0212766,33.0229885 Z" id="形状"></path>
                <path d="M12,30.0953736 C7.64017021,30.0953736 4.09276596,26.7061207 4.09276596,22.5406322 C4.09276596,18.3751437 7.64017021,14.9858908 12,14.9858908 C16.3598298,14.9858908 19.907234,18.3746552 19.907234,22.5406322 C19.907234,26.7066092 16.3598298,30.0953736 12,30.0953736 Z M12,15.9629023 C8.20289362,15.9629023 5.11404255,18.913477 5.11404255,22.5406322 C5.11404255,26.1677874 8.20289362,29.1183621 12,29.1183621 C15.7971064,29.1183621 18.8859574,26.1672989 18.8859574,22.5406322 C18.8859574,18.9139655 15.7971064,15.9629023 12,15.9629023 Z" id="形状"></path>
                <path d="M12,10.835546 C10.5213657,10.8341972 9.32373299,9.68657849 9.32476599,8.27203217 C9.32580033,6.85748586 10.5251091,5.71147013 12.0037439,5.71209886 C13.4823788,5.71272811 14.6806217,6.85976371 14.6803405,8.27431034 C14.6778066,9.68898069 13.4787662,10.83474 12,10.835546 Z M12,6.6895977 C11.0854681,6.69094618 10.3451041,7.40104221 10.3460425,8.27593619 C10.3469828,9.15083017 11.0888701,9.8594697 12.0034029,9.85902111 C12.9179358,9.8585721 13.6590638,9.14920479 13.6590638,8.27431034 C13.6573743,7.39881448 12.9151632,6.68986559 12,6.6895977 L12,6.6895977 Z" id="形状"></path>
                <path d="M12,24.6382759 C10.7390832,24.6371969 9.71771677,23.658642 9.71846808,22.4523766 C9.71922021,21.2461113 10.7418055,20.2687221 12.0027228,20.2690813 C13.2636401,20.2694408 14.285617,21.2474126 14.285617,22.4536782 C14.2836463,23.6601792 13.2611648,24.6374692 12,24.6382759 Z M12,21.246092 C11.3031191,21.2471707 10.738994,21.7883022 10.7397447,22.4549787 C10.7404969,23.1216552 11.3058406,23.6616216 12.0027223,23.6612628 C12.699604,23.6609036 13.2643404,23.1203551 13.2643404,22.4536782 C13.2629328,21.7865425 12.6973627,21.2463599 12,21.246092 L12,21.246092 Z" id="形状"></path>
            </g>
        </g>
    </g>
</svg>