<?xml version="1.0" encoding="UTF-8"?>
<svg width="40px" height="40px" viewBox="0 0 40 40" version="1.1" xmlns="http://www.w3.org/2000/svg" xmlns:xlink="http://www.w3.org/1999/xlink">
    <title>jdo_cn_iqiyi_audio_mode</title>
    <g id="jdo_cn_iqiyi_audio_mode" stroke="none" stroke-width="1" fill="none" fill-rule="evenodd">
        <g id="编组-2">
            <rect id="矩形" x="0" y="0" width="40" height="40"></rect>
            <g id="编组" transform="translate(3.000000, 7.000000)">
                <g id="编组-17备份" stroke="#FFFFFF" stroke-width="1.2">
                    <path d="M0,26.2971566 L0,13.1485783 C0,5.88681902 5.83055754,0 13.0229148,0 C20.215272,0 26.0458295,5.88681902 26.0458295,13.1485783 C26.0458295,15.0369561 26.0458295,16.4532394 26.0458295,17.3974283" id="路径"></path>
                    <polyline id="路径" points="19.1275806 26.2971566 17.5985335 26.2971566 17.5985335 15.9167 26.0458295 15.9167 26.0458295 17.7311509"></polyline>
                    <rect id="矩形备份-9" x="0" y="15.9167" width="8.44729606" height="10.3804565"></rect>
                </g>
                <g id="VIP" transform="translate(19.314390, 19.095715)" fill="#FFFFFF" fill-rule="nonzero">
                    <polygon id="V" points="0 0 1.01191567 0 3.53070577 6.92030437 3.56370302 6.92030437 6.07149404 0 7.08340972 0 4.1136572 7.90428514 2.96975252 7.90428514"></polygon>
                    <polygon id="I" points="8.01833181 0 8.93125573 0 8.93125573 7.90428514 8.01833181 7.90428514"></polygon>
                    <path d="M10.6251146,0 L13.9138405,0 C15.7616865,0 16.6856095,0.774929916 16.6856095,2.32478975 C16.6856095,3.88906688 15.7580202,4.67120545 13.9028414,4.67120545 L11.5490376,4.67120545 L11.5490376,7.90428514 L10.6251146,7.90428514 L10.6251146,0 Z M11.5490376,0.778534241 L11.5490376,3.88185823 L13.8588451,3.88185823 C14.5114574,3.88185823 14.9917507,3.75210252 15.299725,3.49259111 C15.6076994,3.24028835 15.7616865,2.85102123 15.7616865,2.32478975 C15.7616865,1.79134962 15.604033,1.40568682 15.2887259,1.16780136 C14.9807516,0.908289948 14.5041247,0.778534241 13.8588451,0.778534241 L11.5490376,0.778534241 Z" id="P"></path>
                </g>
            </g>
        </g>
    </g>
</svg>