<?xml version="1.0" encoding="UTF-8"?>
<svg width="40px" height="40px" viewBox="0 0 40 40" version="1.1" xmlns="http://www.w3.org/2000/svg" xmlns:xlink="http://www.w3.org/1999/xlink">
    <title>jdo_cn_media_download_vip_only</title>
    <g id="jdo_cn_media_download_vip_only" stroke="none" stroke-width="1" fill="none" fill-rule="evenodd">
        <g id="编组">
            <rect id="矩形" x="0" y="0" width="40" height="40"></rect>
            <g id="E9E1_media_download备份-8" transform="translate(8.000000, 2.000000)">
                <g id="VIP" transform="translate(9.980112, 3.770270)" fill="#FFFFFF" fill-rule="nonzero">
                    <polygon id="V" points="0 0 1.15348033 0 4.02464332 7.78378378 4.06225681 7.78378378 6.92088197 0 8.0743623 0 4.68914829 8.89054054 3.38521401 8.89054054"></polygon>
                    <polygon id="I" points="9.14007782 0 10.1807177 0 10.1807177 8.89054054 9.14007782 8.89054054"></polygon>
                    <path d="M12.1115435,0 L15.8603545,0 C17.9667099,0 19.0198876,0.871621622 19.0198876,2.61486486 C19.0198876,4.37432432 17.9625306,5.25405405 15.8478167,5.25405405 L13.1647211,5.25405405 L13.1647211,8.89054054 L12.1115435,8.89054054 L12.1115435,0 Z M13.1647211,0.875675676 L13.1647211,4.36621622 L15.7976654,4.36621622 C16.5415766,4.36621622 17.0890618,4.22027027 17.4401211,3.92837838 C17.7911803,3.64459459 17.9667099,3.20675676 17.9667099,2.61486486 C17.9667099,2.01486486 17.787001,1.58108108 17.4275832,1.31351351 C17.076524,1.02162162 16.533218,0.875675676 15.7976654,0.875675676 L13.1647211,0.875675676 Z" id="P"></path>
                </g>
                <g id="E9E1_media_download" stroke="#FFFFFF" stroke-width="1.2">
                    <polyline id="路径" points="17.6333333 14.2213516 17.6333333 22.5 23 22.5 11.5 36 0 22.5 5.36666667 22.5 5.36666667 0 17.6333333 0"></polyline>
                </g>
            </g>
        </g>
    </g>
</svg>