<?xml version="1.0" encoding="UTF-8"?>
<svg width="40px" height="40px" viewBox="0 0 40 40" version="1.1" xmlns="http://www.w3.org/2000/svg" xmlns:xlink="http://www.w3.org/1999/xlink">
    <title>jdo_cn_media_children_teenager_mode_tab_recommended</title>
    <defs>
        <polygon id="path-1" points="0 0 36 0 36 33 0 33"></polygon>
    </defs>
    <g id="jdo_cn_media_children_teenager_mode_tab_recommended" stroke="none" stroke-width="1" fill="none" fill-rule="evenodd">
        <g id="编组-2">
            <rect id="矩形" x="0" y="0" width="40" height="40"></rect>
            <g id="编组" transform="translate(3.000000, 4.000000)">
                <mask id="mask-2" fill="white">
                    <use xlink:href="#path-1"></use>
                </mask>
                <g id="Clip-2"></g>
                <path d="M24.4384885,13.8832405 C23.4847528,13.8832405 22.9056406,12.7770789 23.4284775,11.9441402 C24.8245632,9.7192276 26.0712209,7.13405067 26.3247869,4.30791148 C26.7350732,-0.293666459 21.6018663,-1.90652774 19.4254515,2.9305051 C19.0272709,3.81822447 18.4844759,5.3656939 17.9371004,7.02748824 C16.6499663,10.94754 13.2184812,13.62669 9.29655019,13.8621449 L9.29655019,33 C17.2241401,33 21.9347825,33 23.4284775,33 C25.6690201,33 30.7642585,33 31.9686289,29.2943075 L35.8624223,17.3742336 C36.4215763,15.6624221 35.2067495,13.8832405 33.4769381,13.8832405 L24.4384885,13.8832405 Z M6.36009147,13.8832405 L4.879136,13.8832405 C3.01256252,13.8832405 1.5,15.4647352 1.5,17.4164249 L1.5,29.4586496 C1.5,31.409999 3.01256252,32.9914937 4.879136,32.9914937 L6.36009147,32.9914937 L6.36009147,13.8832405 Z" id="Fill-1" fill="#F98F54" mask="url(#mask-2)"></path>
            </g>
        </g>
    </g>
</svg>