<?xml version="1.0" encoding="UTF-8"?>
<svg width="40px" height="40px" viewBox="0 0 40 40" version="1.1" xmlns="http://www.w3.org/2000/svg" xmlns:xlink="http://www.w3.org/1999/xlink">
    <title>jdo_cn_media_sound_effect_3d _sound</title>
    <g id="jdo_cn_media_sound_effect_3d-_sound" stroke="none" stroke-width="1" fill="none" fill-rule="evenodd">
        <g id="编组">
            <rect id="矩形" x="0" y="0" width="40" height="40"></rect>
            <g id="Media图标-03" transform="translate(2.000000, 9.000000)" fill="#FFFFFF" fill-rule="nonzero">
                <path d="M7.90066393,3.58316872 C8.10990374,2.05560732 9.21316823,0.565763483 11.5718716,0.565763483 C13.9702727,0.565763483 15.0718831,2.09332489 15.0718831,3.67746264 C15.0718831,5.20502404 14.1398148,6.0143118 13.3218774,6.27997466 L13.3218774,6.31769222 C14.6534035,6.71372666 15.6425372,7.73210093 15.6425372,9.54254407 C15.6425372,11.635869 14.3110111,13.4274533 11.533828,13.4274533 C8.98490661,13.4274533 7.71044591,11.7875592 7.48135726,10.1271663 L8.47049094,10.1271663 C8.77483976,11.3907048 9.78299524,12.5222317 11.6090882,12.5222317 C13.7593788,12.5222317 14.595511,11.0873244 14.595511,9.58026164 C14.595511,7.60008945 13.2830067,6.80802057 11.437892,6.80802057 L10.6968688,6.80802057 L10.6968688,5.94051657 L11.2865446,5.94051657 C13.1887248,5.94051657 14.0447058,5.14844769 14.0447058,3.67746264 C14.0447058,2.37620663 13.1316594,1.47098505 11.533828,1.47098505 C9.87975832,1.47098505 9.15610283,2.33848906 8.851754,3.58316872 L7.90066393,3.58316872 Z" id="路径"></path>
                <path d="M18.6479818,0 L23.0610398,0 C26.7132257,0 29.2431253,2.52707689 29.2431253,6.48742127 C29.2431253,10.4289069 26.7702911,13.2011479 23.0403639,13.2011479 L18.6479818,13.2011479 L18.6479818,0 Z M19.6751591,12.2582088 L22.8914976,12.2582088 C26.4105309,12.2582088 28.1431689,9.80656703 28.1431689,6.54399761 C28.1431689,3.63974507 26.5833812,0.942939138 22.8914976,0.942939138 L19.6751591,0.942939138 L19.6751591,12.2582088 Z" id="形状"></path>
                <path d="M18,22 C13.2478578,22 8.77359921,21.2136708 5.40177812,19.7861429 C1.91830734,18.3102382 0,16.3066975 0,14.1424472 C0,13.1835191 0.375473822,12.2516492 1.11649705,11.3730759 C1.80500356,10.5568186 2.79661835,9.80287727 4.06404925,9.13175059 L4.45358267,9.85494391 C3.28043373,10.4752339 2.37110892,11.1619395 1.75083278,11.8998919 C1.13758644,12.6255451 0.82703485,13.3798964 0.82703485,14.1416272 C0.82703485,15.0353695 1.25171725,15.9135329 2.08909003,16.7523387 C2.93721427,17.6013939 4.16081233,18.3684544 5.72804337,19.0313816 C8.99937972,20.4170922 13.3582669,21.1800529 18.0012406,21.1800529 C22.6442142,21.1800529 27.0014473,20.4170922 30.2731972,19.0334315 C31.8387742,18.3705043 33.0627857,17.6034438 33.9121505,16.7543886 C34.7482828,15.9135329 35.1729651,15.0353695 35.1729651,14.1416272 C35.1729651,12.5837278 33.8687312,11.3538072 32.7745641,10.5949461 L33.2480415,9.92258954 C35.0489099,11.1689091 36,12.6275949 36,14.1416272 C36,16.3058775 34.0816927,18.3102382 30.5978084,19.7853229 C27.2259873,21.2136708 22.7521422,22 18,22 Z" id="路径" stroke="#FFFFFF" stroke-width="0.4"></path>
            </g>
        </g>
    </g>
</svg>