<?xml version="1.0" encoding="UTF-8"?>
<svg width="40px" height="40px" viewBox="0 0 40 40" version="1.1" xmlns="http://www.w3.org/2000/svg" xmlns:xlink="http://www.w3.org/1999/xlink">
    <title>tlkg_ktv_nps_microphone_connected </title>
    <g id="tlkg_ktv_nps_microphone_connected-" stroke="none" stroke-width="1" fill="none" fill-rule="evenodd">
        <path d="M6.77660334,27.3795265 L7.58285318,28.2683241 C7.49357646,28.3493092 7.32984936,28.5076303 7.11674541,28.7307056 C6.75930203,29.1048741 6.40163624,29.5192387 6.06892504,29.9604553 C5.29424202,30.9877817 4.77918562,31.9953496 4.63838563,32.8972873 C4.44231619,34.1532706 4.97614023,35.1417715 6.43795775,35.8634791 C8.38951618,36.4805136 11.2454145,35.8508732 19.0203652,33.4744274 C19.1138349,33.4458637 19.176148,33.4268213 19.228085,33.4109551 L19.3735482,33.3665402 C19.4255134,33.3506814 19.487883,33.3316538 19.5814373,33.3031125 C29.000579,30.4313877 32.8769489,29.8752278 34.7932305,32.3246902 C37.0660588,35.4135819 36.0463079,37.8049205 33.1061861,39.3162728 C32.5076036,39.6239706 31.8710666,39.8722972 31.2350668,40.0678709 C30.8525005,40.1855124 30.5519172,40.2602059 30.3727919,40.2967899 L30.1326646,39.1210608 C30.2759332,39.0918 30.5395391,39.0262953 30.882359,38.9208761 C31.4553363,38.7446821 32.0277763,38.5213611 32.5575724,38.2490226 C34.9113094,37.0390979 35.5941138,35.4379066 33.837422,33.0500278 C32.4328791,31.2550014 28.6193803,31.8021409 19.9313922,34.4509503 C19.6512751,34.5364077 19.6512751,34.5364077 19.3711309,34.6220176 C11.2211781,37.1130844 8.38637852,37.7380732 5.99363897,36.9746384 C3.9826224,35.9918759 3.17439583,34.4952542 3.45274558,32.712199 C3.62962183,31.5791637 4.2278957,30.4088034 5.11080322,29.2379579 C5.47365757,28.7567677 5.86124059,28.3077432 6.24904603,27.901792 C6.48309136,27.6567954 6.66714704,27.478817 6.77660334,27.3795265 Z M18.601167,9.1002959 L19.0645323,9.56366127 L25.1365323,15.6356613 L25.5998814,16.0990103 L25.0975986,16.5198389 L11.0565986,28.2838389 L10.6355359,28.6366188 L10.2470601,28.2482453 L6.4520601,24.4542453 L6.06349516,24.0657828 L6.41634115,23.6446111 L18.1803412,9.6026111 L18.601167,9.1002959 Z M18.6782683,10.8749253 L7.68826826,23.9929253 L10.7072683,27.0109253 L23.8242683,16.0209253 L18.6782683,10.8749253 Z M32.9525009,3.69591928 C34.3805179,5.84426102 34.5846462,8.58147869 33.4912233,10.9175587 C32.3978005,13.2536386 30.1651596,14.850305 27.6078507,15.1291187 C27.338983,15.1615455 27.0697322,15.071788 26.873854,14.8842777 C26.4424926,14.4708686 25.1042247,13.145782 23.6921161,11.7387337 L23.1920153,11.2400763 L21.9683478,10.0168519 L21.5108796,9.55820898 C20.6237239,8.66789295 19.9195299,7.95560857 19.6913035,7.71318345 C19.5098417,7.51914832 19.4231022,7.25501039 19.4535443,6.99701672 C19.7874748,3.90376859 22.0230494,1.35098231 25.0452161,0.611927641 C28.0673829,-0.127127023 31.2287496,1.1058662 32.9525009,3.69591928 Z M25.33027,1.77757951 C22.8805218,2.3766523 21.0478119,4.39849812 20.6780234,6.88182345 L20.6635084,6.99396401 L20.7160961,7.04821429 C21.0627961,7.40595429 21.7780861,8.12728092 22.6272734,8.97843005 L23.7946351,10.1461115 L24.5410727,10.890627 C25.7813195,12.1264006 26.9643191,13.2987293 27.5175608,13.8373675 L27.6019971,13.919 L27.7273067,13.9036053 C29.681683,13.6076817 31.3781691,12.3944449 32.2899496,10.6406451 L32.4043841,10.408854 C33.3201987,8.45223107 33.1492276,6.15962856 31.9533265,4.36048708 C30.5096789,2.19130892 27.8616766,1.15853762 25.33027,1.77757951 Z" id="形状结合" fill="#FFFFFF" fill-rule="nonzero"></path>
        <circle id="椭圆形" fill="#53CF75" cx="18.4" cy="16.2586876" r="3.2"></circle>
    </g>
</svg>