<?xml version="1.0" encoding="UTF-8"?>
<svg width="40px" height="40px" viewBox="0 0 40 40" version="1.1" xmlns="http://www.w3.org/2000/svg" xmlns:xlink="http://www.w3.org/1999/xlink">
    <title>tlkg_ktv_square_nps_go_to_sing </title>
    <g id="tlkg_ktv_square_nps_go_to_sing-" stroke="none" stroke-width="1" fill="none" fill-rule="evenodd">
        <path d="M18.3623977,13.5506754 L18.9768394,14.162545 L26.932923,22.0853228 L27.5524997,22.7023058 L26.8811086,23.262464 L8.48332045,38.6121935 L7.9251788,39.0778649 L7.41004402,38.5650218 L2.43749178,33.6145905 L1.91791456,33.0973246 L2.38990322,32.5362978 L17.80416,14.2142217 L18.3623977,13.5506754 Z M18.466,15.9034926 L4.082,33.0014926 L8.02,36.9214926 L25.188,22.5974926 L18.466,15.9034926 Z M37.1758323,6.50838549 C39.0500842,9.31624976 39.3180399,12.8943063 37.8828392,15.947753 C36.4481045,19.0002084 33.5193157,21.0859547 30.1653309,21.4500957 C29.8105701,21.4927025 29.4551489,21.3747152 29.1961643,21.1278323 C28.6193252,20.5773142 26.8050509,18.7880573 24.9132754,16.9104945 L24.3716613,16.3726389 C23.7396557,15.7446561 23.1113134,15.1190355 22.5295947,14.5383856 L21.8107431,13.8199696 C21.7344767,13.7436442 21.6595376,13.6686093 21.586051,13.5949891 L21.1635632,13.1712373 C20.4918068,12.4965903 19.9903505,11.9882544 19.7844436,11.7704529 C19.5436787,11.5140834 19.4284102,11.1645386 19.4688754,10.8230378 C19.9071367,6.7803523 22.8404474,3.44484816 26.8047076,2.47946786 C30.7681327,1.51429091 34.9143906,3.12464085 37.1758323,6.50838549 Z M27.1819934,4.02876313 C23.9589875,4.81363249 21.5529751,7.47169999 21.0875448,10.729822 L21.0759146,10.814671 L21.0999967,10.8383155 C21.3692863,11.1158893 21.8374714,11.5888751 22.425645,12.1790069 L23.6675159,13.4213407 C25.9819776,15.7312776 29.0435679,18.762344 30.1016717,19.7862744 L30.1597904,19.843 L30.2736245,19.829197 C32.866177,19.4534501 35.1168403,17.8506613 36.3113837,15.5302083 L36.4397283,15.2694527 C37.6372123,12.7217579 37.4136788,9.7368784 35.8498313,7.39403869 C33.961065,4.56792013 30.4953622,3.2218885 27.1819934,4.02876313 Z" id="形状结合" fill="#FFFFFF" fill-rule="nonzero"></path>
    </g>
</svg>