<?xml version="1.0" encoding="UTF-8"?>
<svg width="40px" height="40px" viewBox="0 0 40 40" version="1.1" xmlns="http://www.w3.org/2000/svg" xmlns:xlink="http://www.w3.org/1999/xlink">
    <title>tlkg_ktv_nps_mv_change_bg </title>
    <g id="tlkg_ktv_nps_mv_change_bg-" stroke="none" stroke-width="1" fill="none" fill-rule="evenodd">
        <path d="M36,3 C36.5522847,3 37,3.44771525 37,4 L37,36 C37,36.5522847 36.5522847,37 36,37 L4,37 C3.44771525,37 3,36.5522847 3,36 L3,4 C3,3.44771525 3.44771525,3 4,3 L36,3 Z M4.19975843,15.4038387 L4.2,35.8 L24.2,35.8 C24.2,24.6669476 15.2818633,15.6168376 4.19975843,15.4038387 Z M35.8,4.2 L4.2,4.2 L4.19936351,14.2036179 C15.9444368,14.4165781 25.4,24.0040565 25.4,35.8 L35.8,35.8 L35.8,4.2 Z M27.8,9.2 C29.4568542,9.2 30.8,10.5431458 30.8,12.2 C30.8,13.8568542 29.4568542,15.2 27.8,15.2 C26.1431458,15.2 24.8,13.8568542 24.8,12.2 C24.8,10.5431458 26.1431458,9.2 27.8,9.2 Z" id="形状结合" fill="#FFFFFF" fill-rule="nonzero"></path>
    </g>
</svg>