<?xml version="1.0" encoding="UTF-8"?>
<svg width="40px" height="40px" viewBox="0 0 40 40" version="1.1" xmlns="http://www.w3.org/2000/svg" xmlns:xlink="http://www.w3.org/1999/xlink">
    <title>IconMaster/CID-Icons-China/Standard/tlkg_ktv_nps_score_off</title>
    <g id="IconMaster/CID-Icons-China/Standard/tlkg_ktv_nps_score_off" stroke="none" stroke-width="1" fill="none" fill-rule="evenodd">
        <g id="tlkg_ktv_nps_score_off" transform="translate(2.000000, 2.288538)" fill="#FFFFFF">
            <path d="M11.9392542,12.1114618 C13.0358709,12.1114618 13.9271051,12.9944435 13.9208569,14.1728257 L13.0872482,19.9038858 C13.0554499,20.1224992 13.2068934,20.325498 13.4255068,20.3572963 C13.4445734,20.3600697 13.4638155,20.3614618 13.4830828,20.3614618 L22.1495322,20.3614618 C23.5016452,20.3614618 24.6,21.4496463 24.6,22.7947951 C24.6,22.9368867 24.5874667,23.0787027 24.5586619,23.2384735 L22.5748512,32.5445873 C22.2896226,34.1459167 20.8873997,35.3114618 19.2506832,35.3114618 L4.9252339,35.3114618 C4.08411349,35.3114618 3.4,34.6336828 3.4,33.7947951 L3.4,21.7473164 C3.40060989,21.0976332 3.65915804,20.4752359 4.11854145,20.0187341 C4.68540925,19.4529933 5.14648756,18.9051344 5.50220595,18.3764974 C6.02008192,17.6068764 7.28653942,15.9806094 9.31546714,13.4777011 L9.306,13.4884618 L9.40758449,13.349167 C9.96659542,12.6272482 10.812191,12.1788307 11.7270118,12.1184543 L11.9392542,12.1114618 Z M11.9392542,13.3114618 C11.2715164,13.3114618 10.648609,13.6417448 10.2793563,14.1904952 L10.2476574,14.2333607 C8.24283587,16.7065312 6.98825187,18.3175514 6.49779405,19.0464261 C6.096181,19.6432675 5.58551474,20.2500475 4.96531116,20.8690161 C4.73172905,21.1011339 4.60031028,21.4174955 4.6,21.7478794 L4.6,33.7947951 C4.6,33.9684294 4.74436916,34.1114618 4.9252339,34.1114618 L19.2506832,34.1114618 C20.3077356,34.1114618 21.210537,33.361042 21.3973292,32.3142995 L23.3811398,23.0081856 C23.3936899,22.9377269 23.4,22.8663275 23.4,22.7947951 C23.4,22.1148998 22.8413895,21.5614618 22.1495322,21.5614618 L13.4830828,21.5614618 C13.4060138,21.5614618 13.3290455,21.5558934 13.252779,21.5448001 C12.3783254,21.4176068 11.7725512,20.6056116 11.8997445,19.731158 L12.7271051,14.0864618 C12.7271051,13.6596969 12.3756153,13.3114618 11.9392542,13.3114618 Z" id="路径" fill-rule="nonzero"></path>
            <path d="M26.5,0 L27.5760833,2.1803829 L29.501,6.08046175 L33.8054819,6.70630588 L36.2116772,7.05594653 L34.4705379,8.75313793 L31.356,11.7894618 L32.0911194,16.0762351 L32.5021466,18.4727079 L30.34998,17.3412469 L26.5,15.3174618 L22.65002,17.3412469 L20.4978534,18.4727079 L20.9088806,16.0762351 L21.643,11.7884618 L18.5294621,8.75313793 L16.7883228,7.05594653 L19.1945181,6.70630588 L23.498,6.08046175 L25.4239167,2.1803829 L26.5,0 Z M26.5,2.71146175 L24.2958053,7.17764803 L19.3670761,7.8938343 L22.9335381,11.3702755 L22.0916106,16.2790892 L26.5,13.9614618 L30.9083894,16.2790892 L30.0664619,11.3702755 L33.6329239,7.8938343 L28.7041947,7.17764803 L26.5,2.71146175 Z" id="星形" fill-rule="nonzero"></path>
            <rect id="矩形" x="0" y="21.7114618" width="1.2" height="13"></rect>
        </g>
    </g>
</svg>