<?xml version="1.0" encoding="UTF-8"?>
<svg width="40px" height="40px" viewBox="0 0 40 40" version="1.1" xmlns="http://www.w3.org/2000/svg" xmlns:xlink="http://www.w3.org/1999/xlink">
    <title>tlkg_ktv_favorite </title>
    <g id="tlkg_ktv_favorite-" stroke="none" stroke-width="1" fill="none" fill-rule="evenodd">
        <g id="jdo_cn_media_favorite_filled" transform="translate(-3.000000, -3.000000)">
            <rect id="矩形" x="0" y="0" width="46" height="46"></rect>
            <g id="E9E3_media_mymusic备份" transform="translate(5.306712, 7.589920)" fill-rule="nonzero" stroke="#FFFFFF" stroke-width="1.2">
                <path d="M26.8226437,0 C28.5369064,0.0166832919 30.1655575,0.542445795 31.535175,1.46072728 C32.9060508,2.37985242 34.0174082,3.69215207 34.6959981,5.28087324 C35.3750895,6.87076874 35.5568905,8.58776425 35.2769877,10.2244932 C34.997672,11.8577897 34.2585539,13.4112536 33.0945032,14.6785044 L17.7047087,30.5199131 L2.65078953,15.0279966 C1.27745543,13.5554573 0.435282264,11.8549097 0.130015789,10.1136525 C-0.179502335,8.3481436 0.0639206178,6.54293599 0.856991856,4.90109354 C1.64188838,3.27617464 2.88319244,1.97941472 4.3749831,1.12891454 C5.86541325,0.279189996 7.60583988,-0.125001836 9.39012207,0.0341611115 C11.1747402,0.19335403 12.8179866,0.899568071 14.1374854,2.000121 C15.458358,3.10181978 16.4548301,4.59861191 16.944648,6.33776349 L17.6932876,8.50068725 L18.4932876,6.36862558 C19.1253457,4.4697498 20.0754977,2.86737068 21.5892718,1.74431529 C23.0807314,0.637814904 24.8965481,-0.00281743172 26.8226437,0 Z" id="路径"></path>
            </g>
        </g>
    </g>
</svg>