<?xml version="1.0" encoding="UTF-8"?>
<svg width="40px" height="40px" viewBox="0 0 40 40" version="1.1" xmlns="http://www.w3.org/2000/svg" xmlns:xlink="http://www.w3.org/1999/xlink">
    <title>tlkg_ktv_home_add_via_qr </title>
    <g id="tlkg_ktv_home_add_via_qr-" stroke="none" stroke-width="1" fill="none" fill-rule="evenodd">
        <path d="M18.5,4 L18.5,19 L3.5,19 L3.5,4 L18.5,4 Z M15.5,7 L6.5,7 L6.5,16 L15.5,16 L15.5,7 Z M13.5,9 L13.5,14 L8.5,14 L8.5,9 L13.5,9 Z M18.5,22 L18.5,37 L3.5,37 L3.5,22 L18.5,22 Z M15.5,25 L6.5,25 L6.5,34 L15.5,34 L15.5,25 Z M13.5,27 L13.5,32 L8.5,32 L8.5,27 L13.5,27 Z M36.5,4 L36.5,19 L21.5,19 L21.5,4 L36.5,4 Z M33.5,7 L24.5,7 L24.5,16 L33.5,16 L33.5,7 Z M31.5,9 L31.5,14 L26.5,14 L26.5,9 L31.5,9 Z M21.5,22 L36.5,22 L36.5,25 L21.5,25 Z M21.5,27 L24.5,27 L24.5,37 L21.5,37 Z M27.5,27 L30.5,27 L30.5,37 L27.5,37 Z M33.5,27 L36.5,27 L36.5,37 L33.5,37 Z" id="形状结合" fill="#FFFFFF" fill-rule="nonzero"></path>
    </g>
</svg>