<?xml version="1.0" encoding="UTF-8"?>
<svg width="40px" height="40px" viewBox="0 0 40 40" version="1.1" xmlns="http://www.w3.org/2000/svg" xmlns:xlink="http://www.w3.org/1999/xlink">
    <title>tlkg_ktv_nps_mv_video_quality_HD </title>
    <g id="tlkg_ktv_nps_mv_video_quality_HD-" stroke="none" stroke-width="1" fill="none" fill-rule="evenodd">
        <path d="M39.7,6 L39.7,33.2 L0.5,33.2 L0.5,6 L39.7,6 Z M38.5,7.2 L1.7,7.2 L1.7,32 L38.5,32 L38.5,7.2 Z M9.08,12.6 L9.08,19.12 L17,19.12 L17,12.6 L18.28,12.6 L18.28,27.08 L17,27.08 L17,20.22 L9.08,20.22 L9.08,27.08 L7.8,27.08 L7.8,12.6 L9.08,12.6 Z M26.94,12.6 C31.56,12.6 33.26,15.64 33.26,19.82 C33.26,24.02 31.52,27.08 26.74,27.08 L22.72,27.08 L22.72,12.6 Z M26.74,13.66 L24,13.66 L24,26.02 L26.74,26.02 C30.5,26.02 31.92,23.68 31.92,19.86 C31.92,16.02 30.58,13.66 26.74,13.66 Z" id="形状结合" fill="#FFFFFF" fill-rule="nonzero"></path>
    </g>
</svg>