<?xml version="1.0" encoding="UTF-8"?>
<svg width="40px" height="40px" viewBox="0 0 40 40" version="1.1" xmlns="http://www.w3.org/2000/svg" xmlns:xlink="http://www.w3.org/1999/xlink">
    <title>tlkg_ktv_nps_switch_to_mv </title>
    <g id="tlkg_ktv_nps_switch_to_mv-" stroke="none" stroke-width="1" fill="none" fill-rule="evenodd">
        <path d="M39.6,6.4 L39.6,33.6 L0.4,33.6 L0.4,6.4 L39.6,6.4 Z M38.4,7.6 L1.6,7.6 L1.6,32.4 L38.4,32.4 L38.4,7.6 Z M9.091,13.244 L13.347,20.35 C13.575,20.749 13.765,21.167 13.936,21.585 C14.088,21.167 14.278,20.749 14.544,20.35 L18.8,13.244 L20.263,13.244 L20.263,27 L19.009,27 L19.009,16.322 C19.009,15.885 18.99,15.296 19.047,14.783 C18.838,15.277 18.553,15.847 18.363,16.189 L14.354,22.801 L13.537,22.801 L9.566,16.189 C9.338,15.847 9.015,15.258 8.787,14.764 C8.844,15.277 8.863,15.885 8.863,16.322 L8.863,27 L7.609,27 L7.609,13.244 L9.091,13.244 Z M24.063,13.244 L27.996,23.865 C28.243,24.473 28.471,25.005 28.604,25.632 C28.756,25.005 29.003,24.473 29.231,23.865 L33.145,13.244 L34.418,13.244 L29.288,27 L27.92,27 L22.752,13.244 L24.063,13.244 Z" id="形状结合" fill="#FFFFFF" fill-rule="nonzero"></path>
    </g>
</svg>