<?xml version="1.0" encoding="UTF-8"?>
<svg width="40px" height="40px" viewBox="0 0 40 40" version="1.1" xmlns="http://www.w3.org/2000/svg" xmlns:xlink="http://www.w3.org/1999/xlink">
    <title>tlkg_ktv_nps_mv_video_quality_480 </title>
    <g id="tlkg_ktv_nps_mv_video_quality_480-" stroke="none" stroke-width="1" fill="none" fill-rule="evenodd">
        <path d="M39.6,6.4 L39.6,33.6 L0.4,33.6 L0.4,6.4 L39.6,6.4 Z M38.4,7.6 L1.6,7.6 L1.6,32.4 L38.4,32.4 L38.4,7.6 Z M31.0449219,13 C32.0019531,13 32.8359375,13.3964844 33.546875,14.1894531 C34.2578125,14.9824219 34.7226563,15.9804688 34.9414063,17.1835938 C35.1601563,18.3867188 35.2285156,19.7675781 35.1464844,21.3261719 C35.0644531,22.8847656 34.7910156,24.15625 34.3261719,25.140625 C33.8613281,26.125 33.1640625,26.8085938 32.234375,27.1914063 C31.3046875,27.5742188 30.375,27.5332031 29.4453125,27.0683594 C28.515625,26.6035156 27.859375,25.9882813 27.4765625,25.2226563 C27.09375,24.4570313 26.8203125,23.6503906 26.65625,22.8027344 C26.4921875,21.9550781 26.4375,20.8203125 26.4921875,19.3984375 C26.546875,17.921875 26.7519531,16.7597656 27.1074219,15.9121094 C27.4628906,15.0644531 27.96875,14.3671875 28.625,13.8203125 C29.28125,13.2734375 30.0878906,13 31.0449219,13 Z M20.1757813,13.0820313 C20.7226563,13.0820313 21.2148438,13.1367188 21.6523438,13.2460938 C22.0898438,13.3554688 22.5546875,13.5878906 23.046875,13.9433594 C23.5390625,14.2988281 23.8945313,14.8046875 24.1132813,15.4609375 C24.3320313,16.1171875 24.3183594,16.8828125 24.0722656,17.7578125 C23.8261719,18.6328125 23.1835938,19.3164063 22.1445313,19.8085938 C23.0742188,20.0820313 23.7304688,20.5058594 24.1132813,21.0800781 C24.4960938,21.6542969 24.6875,22.3515625 24.6875,23.171875 C24.6875,23.9921875 24.5644531,24.6484375 24.3183594,25.140625 C24.0722656,25.6328125 23.7988281,26.0429688 23.4980469,26.3710938 C23.1972656,26.6992188 22.7871094,26.9589844 22.2675781,27.1503906 C21.7480469,27.3417969 21.0917969,27.4375 20.2988281,27.4375 C19.5058594,27.4375 18.8222656,27.3417969 18.2480469,27.1503906 C17.6738281,26.9589844 17.1953125,26.671875 16.8125,26.2890625 C16.4296875,25.90625 16.1699219,25.4550781 16.0332031,24.9355469 C15.8964844,24.4160156 15.828125,23.828125 15.828125,23.171875 C15.828125,22.515625 15.9921875,21.8730469 16.3203125,21.2441406 C16.6484375,20.6152344 17.1953125,20.109375 17.9609375,19.7265625 C17.3046875,19.34375 16.8671875,18.9199219 16.6484375,18.4550781 C16.4296875,17.9902344 16.3066406,17.4570313 16.2792969,16.8554688 C16.2519531,16.2539063 16.3339844,15.734375 16.5253906,15.296875 C16.7167969,14.859375 17.0039063,14.4492188 17.3867188,14.0664063 C17.7695313,13.6835938 18.1933594,13.4238281 18.6582031,13.2871094 C19.1230469,13.1503906 19.6289063,13.0820313 20.1757813,13.0820313 Z M12.875,13.0820313 L12.875,22.6796875 L14.84375,22.6796875 L14.84375,24.0742188 L12.875,24.0742188 L12.875,27.1914063 L11.3164063,27.1914063 L11.3164063,24.0742188 L5,24.0742188 L5,22.6796875 L11.6445313,13.0820313 L12.875,13.0820313 Z M20.0117188,20.7109375 C19.3007813,20.765625 18.7128906,21.0117188 18.2480469,21.4492188 C17.7832031,21.8867188 17.5234375,22.4335938 17.46875,23.0898438 C17.46875,23.7460938 17.5917969,24.3203125 17.8378906,24.8125 C18.0839844,25.3046875 18.5351563,25.6191406 19.1914063,25.7558594 C19.8476563,25.8925781 20.53125,25.8789063 21.2421875,25.7148438 C21.953125,25.5507813 22.4453125,25.1679688 22.71875,24.5664063 C22.9921875,23.9648438 23.0878906,23.3632813 23.0058594,22.7617188 C22.9238281,22.1601563 22.5820313,21.6542969 21.9804688,21.2441406 C21.3789063,20.8339844 20.7226563,20.65625 20.0117188,20.7109375 Z M31.0449219,14.5175781 C30.3613281,14.4902344 29.7597656,14.8320313 29.2402344,15.5429688 C28.7207031,16.2539063 28.3789063,17.375 28.2148438,18.90625 C28.0507813,20.3828125 28.1054688,21.7089844 28.3789063,22.8847656 C28.6523438,24.0605469 29.1035156,24.8945313 29.7324219,25.3867188 C30.3613281,25.8789063 31.0039063,25.9746094 31.6601563,25.6738281 C32.3164063,25.3730469 32.7949219,24.7714844 33.0957031,23.8691406 C33.3964844,22.9667969 33.546875,21.9824219 33.546875,20.9160156 C33.546875,19.8496094 33.5058594,18.8789063 33.4238281,18.0039063 C33.3417969,17.1289063 33.0957031,16.3359375 32.6855469,15.625 C32.2753906,14.9140625 31.7285156,14.5449219 31.0449219,14.5175781 Z M11.3164063,16.1992188 L6.72265625,22.6796875 L11.3164063,22.6796875 L11.3164063,16.1992188 Z M19.9707031,14.5585938 C19.1777344,14.6132813 18.6171875,14.8457031 18.2890625,15.2558594 C17.9609375,15.6660156 17.796875,16.1445313 17.796875,16.6914063 C17.796875,17.2382813 17.9882813,17.7578125 18.3710938,18.25 C18.7539063,18.7421875 19.3554688,18.9882813 20.1757813,18.9882813 C20.9960938,18.9882813 21.6113281,18.7421875 22.0214844,18.25 C22.4316406,17.7578125 22.6230469,17.1699219 22.5957031,16.4863281 C22.5683594,15.8027344 22.3222656,15.296875 21.8574219,14.96875 C21.3925781,14.640625 20.7636719,14.5039063 19.9707031,14.5585938 Z" id="形状结合" fill="#FFFFFF" fill-rule="nonzero"></path>
    </g>
</svg>