<?xml version="1.0" encoding="UTF-8"?>
<svg width="40px" height="40px" viewBox="0 0 40 40" version="1.1" xmlns="http://www.w3.org/2000/svg" xmlns:xlink="http://www.w3.org/1999/xlink">
    <title>tlkg_ktv_nps_microphone_not_connected </title>
    <g id="tlkg_ktv_nps_microphone_not_connected-" stroke="none" stroke-width="1" fill="none" fill-rule="evenodd">
        <path d="M7.37709495,26.9795625 L8.18334479,27.8683601 C8.09406807,27.9493452 7.93034098,28.1076663 7.71723702,28.3307416 C7.35979364,28.7049101 7.00212785,29.1192747 6.66941665,29.5604913 C5.89473363,30.5878177 5.37967723,31.5953856 5.23887725,32.4973233 C5.0428078,33.7533066 5.57663184,34.7418074 7.03844936,35.4635151 C8.99000779,36.0805496 11.8459061,35.4509092 19.6208568,33.0744634 C19.7143265,33.0458997 19.7766396,33.0268573 19.8285766,33.0109911 L19.9740398,32.9665762 C20.026005,32.9507174 20.0883746,32.9316898 20.181929,32.9031485 C29.6010707,30.0314237 33.4774405,29.4752638 35.3937221,31.9247262 C37.6665504,35.0136179 36.6467995,37.4049564 33.7066777,38.9163088 C33.1080952,39.2240066 32.4715582,39.4723332 31.8355585,39.6679069 C31.4529921,39.7855484 31.1524088,39.8602419 30.9732835,39.8968259 L30.7331562,38.7210968 C30.8764248,38.691836 31.1400307,38.6263313 31.4828507,38.5209121 C32.0558279,38.3447181 32.6282679,38.1213971 33.158064,37.8490585 C35.5118011,36.6391339 36.1946054,35.0379426 34.4379136,32.6500638 C33.0333707,30.8550374 29.2198719,31.4021769 20.5318838,34.0509863 C20.2517668,34.1364437 20.2517668,34.1364437 19.9716225,34.2220536 C11.8216697,36.7131204 8.98687013,37.3381092 6.59413059,36.5746744 C4.58311401,35.5919119 3.77488745,34.0952902 4.0532372,32.312235 C4.23011344,31.1791997 4.82838731,30.0088394 5.71129483,28.8379938 C6.07414918,28.3568037 6.46173221,27.9077792 6.84953764,27.501828 C7.08358297,27.2568314 7.26763865,27.078853 7.37709495,26.9795625 Z M19.2016586,8.70033189 L19.6650239,9.16369725 L25.7370239,15.2356973 L26.200373,15.6990463 L25.6980902,16.1198749 L11.6570902,27.8838749 L11.2360275,28.2366547 L10.8475517,27.8482813 L7.05255171,24.0542813 L6.66398678,23.6658187 L7.01683277,23.2446471 L18.7808328,9.20264709 L19.2016586,8.70033189 Z M19.2787599,10.4749613 L8.28875987,23.5929613 L11.3077599,26.6109613 L24.4247599,15.6209613 L19.2787599,10.4749613 Z M33.5529925,3.29595526 C34.9810095,5.44429701 35.1851378,8.18151468 34.091715,10.5175946 C32.9982921,12.8536746 30.7656512,14.450341 28.2083423,14.7291547 C27.9394746,14.7615815 27.6702238,14.671824 27.4743456,14.4843137 C27.0429842,14.0709045 25.7047163,12.745818 24.2926077,11.3387697 L23.7925069,10.8401123 L22.5688394,9.61688791 L22.1113712,9.15824497 C21.2242155,8.26792893 20.5200215,7.55564456 20.2917951,7.31321944 C20.1103333,7.11918431 20.0235938,6.85504638 20.0540359,6.59705271 C20.3879664,3.50380457 22.623541,0.951018293 25.6457078,0.211963629 C28.6678745,-0.527091036 31.8292412,0.705902183 33.5529925,3.29595526 Z M25.9307617,1.37761549 C23.4810134,1.97668829 21.6483035,3.99853411 21.278515,6.48185944 L21.264,6.594 L21.3165877,6.64825028 C21.6632878,7.00599027 22.3785777,7.72731691 23.227765,8.57846604 L24.3951267,9.74614745 L25.1415643,10.490663 C26.3818111,11.7264366 27.5648107,12.8987653 28.1180524,13.4374035 L28.2024887,13.519036 L28.3277983,13.5036412 C30.2821746,13.2077177 31.9786607,11.9944809 32.8904412,10.2406811 L33.0048757,10.00889 C33.9206903,8.05226705 33.7497192,5.75966454 32.5538181,3.96052306 C31.1101705,1.79134491 28.4621682,0.758573602 25.9307617,1.37761549 Z" id="形状结合" fill="#FFFFFF" fill-rule="nonzero"></path>
        <circle id="椭圆形" fill="#EF323F" cx="18.4" cy="16.2586876" r="3.2"></circle>
    </g>
</svg>