<?xml version="1.0" encoding="UTF-8"?>
<svg width="40px" height="40px" viewBox="0 0 40 40" version="1.1" xmlns="http://www.w3.org/2000/svg" xmlns:xlink="http://www.w3.org/1999/xlink">
    <title>tlkg_ktv_nps_add_via_qr </title>
    <g id="tlkg_ktv_nps_add_via_qr-" stroke="none" stroke-width="1" fill="none" fill-rule="evenodd">
        <path d="M18,4 L18,18 L4,18 L4,4 L18,4 Z M16.8,5.2 L5.2,5.2 L5.2,16.8 L16.8,16.8 L16.8,5.2 Z M18,22 L18,36 L4,36 L4,22 L18,22 Z M16.8,23.2 L5.2,23.2 L5.2,34.8 L16.8,34.8 L16.8,23.2 Z M22,22 L36,22 L36,23.2 L22,23.2 Z M22.674,36.33 L22.674,26.03 L23.826,26.03 L23.826,36.33 L22.674,36.33 Z M28.674,36.33 L28.674,26.03 L29.826,26.03 L29.826,36.33 L28.674,36.33 Z M34.474,36.33 L34.474,26.03 L35.626,26.03 L35.626,36.33 L34.474,36.33 Z M36,4 L36,18 L22,18 L22,4 L36,4 Z M34.8,5.2 L23.2,5.2 L23.2,16.8 L34.8,16.8 L34.8,5.2 Z" id="形状结合" fill="#FFFFFF" fill-rule="nonzero"></path>
    </g>
</svg>