<svg xmlns="http://www.w3.org/2000/svg" viewBox="0 0 40 40"><defs><style>.cls-1,.cls-2{fill:#fff;}.cls-1,.cls-3{stroke:#fff;stroke-miterlimit:10;stroke-width:1.5px;}.cls-3{fill:none;fill-rule:evenodd;}</style></defs><g id="E013_mic_off"><g id="V1"><line class="cls-1" x1="20" y1="29.5" x2="20" y2="39.6"/><line class="cls-1" x1="14" y1="39.25" x2="26" y2="39.25"/><rect class="cls-2" x="14.5" y="6.75" width="3.5" height="1.5"/><rect class="cls-2" x="14.5" y="11.75" width="3.5" height="1.5"/><rect class="cls-2" x="22" y="6.75" width="3.5" height="1.5"/><path class="cls-3" d="M2.68636,36.33359,37.31364,3.7432"/><polygon class="cls-2" points="23.699 11.75 22 11.75 22 13.25 22.106 13.25 23.699 11.75"/><path class="cls-2" d="M11.52954,23.20392A9.1892,9.1892,0,0,1,10.75,19.5H9.25a10.66823,10.66823,0,0,0,1.13562,4.78058Z"/><path class="cls-2" d="M20,28.75a9.19051,9.19051,0,0,1-3.43762-.66956L15.381,29.19232A10.72483,10.72483,0,0,0,30.75,19.5h-1.5A9.26032,9.26032,0,0,1,20,28.75Z"/><polygon class="cls-2" points="18 17.114 18 16.75 14.5 16.75 14.5 18.25 16.793 18.25 18 17.114"/><path class="cls-2" d="M15,19.93756V5.75A4.25507,4.25507,0,0,1,19.25,1.5h1.5A4.25507,4.25507,0,0,1,25,5.75v4.77576L26.5,9.114V5.75A5.75671,5.75671,0,0,0,20.75,0h-1.5A5.75671,5.75671,0,0,0,13.5,5.75v14.5a5.744,5.744,0,0,0,.09454,1.01044Z"/><path class="cls-2" d="M25,20.1391V20.25a4.25507,4.25507,0,0,1-4.25,4.25h-.38342l-1.5694,1.477c.1499.01178.3.023.45282.023h1.5a5.75671,5.75671,0,0,0,5.75-5.75V18.72729Z"/></g></g></svg>