<svg xmlns="http://www.w3.org/2000/svg" viewBox="0 0 40 40"><defs><style>.cls-1{fill:none;stroke:#fff;stroke-width:1.5px;}.cls-2{fill:#fff;}</style></defs><g id="E01B_audio_low_signal"><path class="cls-1" d="M6.79653,33.45631l27-30"/><path class="cls-2" d="M39.60759,20.56621a21.6348,21.6348,0,0,0-8.80811-9.69238l-.05273-.03076-.91895,1.02148.08106.04639a20.53519,20.53519,0,0,1,8.47265,9.2168l.03174.06836,1.22559-.56153Z"/><path class="cls-2" d="M19.985,7.9461A21.67372,21.67372,0,0,0,.34587,20.60088l-.03125.06836,1.22705.55859L1.57292,21.16A20.23179,20.23179,0,0,1,24.44352,9.79229l.043.00976,1.01367-1.12646L25.381,8.64434A21.53212,21.53212,0,0,0,19.985,7.9461Z"/><path class="cls-2" d="M6.69938,23.49639l-.03125.06836,1.22705.55908.03125-.06787A13.33165,13.33165,0,0,1,18.547,16.37285l.02832-.00341,1.28369-1.42627-.17285.00341A14.70229,14.70229,0,0,0,6.69938,23.49639Z"/><path class="cls-2" d="M33.25944,23.473a14.68806,14.68806,0,0,0-7.28906-7.24414l-.04981-.02246-.95507,1.061.09765.041a13.28722,13.28722,0,0,1,6.97022,6.72607l.03174.06836,1.22558-.56152Z"/><path class="cls-2" d="M27.715,26.01153a8.506,8.506,0,0,0-6.24365-4.8086l-.041-.00732-1.11719,1.24072.1543.01025a7.14523,7.14523,0,0,1,6.02246,4.12647l.03125.06787,1.22559-.56152Z"/></g></svg>