<svg xmlns="http://www.w3.org/2000/svg" viewBox="0 0 40 40"><defs><style>.cls-1{fill:none;stroke:#fff;stroke-width:1.5px;}</style></defs><g id="E04E_phone_call_end"><path class="cls-1" d="M21.78944,14.70983c5.27133.1346,12.5158,1.11423,13.92369,2.30991,1.60334,1.3619,2.67926,6.4991,2.32812,7.52184-.35113,1.02322-8.9326,1.039-9.41068-.00383s-.11688-1.75328-.46131-2.93267c-.30467-1.0419-1.55831-1.52429-6.38652-1.69962-1.16981-.04216-2.21938-.04886-3.565,0-4.82869.17533-6.08185.65772-6.38652,1.69962-.3449,1.17939.01629,1.8898-.46179,2.93267-.4776,1.04286-9.05955,1.02705-9.41068.00383-.35113-1.02274.72478-6.15994,2.32812-7.52184,1.40789-1.19568,8.65236-2.17531,13.92369-2.30991C19.55713,14.67533,20.61532,14.67965,21.78944,14.70983Z"/></g></svg>