<svg xmlns="http://www.w3.org/2000/svg" viewBox="0 0 40 40"><defs><style>.cls-1{fill:#fff;}</style></defs><g id="E061_audio_hd_radio"><g id="V2-2" data-name="V2"><path class="cls-1" d="M18.77734,1.2041,18.627,1.19385l-.0957,1.49609.14844.01026C28.14062,3.31934,35.00684,10.543,35.00684,19.876A17.06707,17.06707,0,0,1,18.73926,37.2998l-.15039.00879.09668,1.4961.15039-.00879A18.53294,18.53294,0,0,0,36.50488,19.876C36.50488,9.72754,29.0498,1.875,18.77734,1.2041Z"/><path class="cls-1" d="M18.5309,8.015,18.37841,8,18.2289,9.52392l.1525.01495A10.46108,10.46108,0,0,1,27.90166,19.9392,10.56836,10.56836,0,0,1,17.32193,30.4711h-.15249V32h.15249a12.0188,12.0188,0,0,0,1.209-23.985Z"/><polygon class="cls-1" points="13.442 9 13.442 20.2 4.558 20.2 4.558 9 3 9 3 32 4.558 32 4.558 21.746 13.442 21.746 13.442 32 15 32 15 9 13.442 9"/><rect class="cls-1" x="14.09779" y="30.46591" width="3.23298" height="1.53409"/></g></g></svg>