<svg xmlns="http://www.w3.org/2000/svg" viewBox="0 0 40 40"><defs><style>.cls-1,.cls-2{fill:#fff;}.cls-2{fill-rule:evenodd;}.cls-3{fill:none;stroke:#fff;stroke-width:1.5px;}</style></defs><g id="E098_radio"><path class="cls-1" d="M19.5,21.03345a4.28345,4.28345,0,1,1,4.2832-4.28321A4.28768,4.28768,0,0,1,19.5,21.03345Zm0-7.3667a3.08325,3.08325,0,1,0,3.084,3.08349A3.08746,3.08746,0,0,0,19.5,13.66675Z"/><path class="cls-2" d="M18.5,22h2L22,39H17Z"/><path class="cls-3" d="M19.5,2V13"/><path class="cls-1" d="M28.17969,11.3689l-.083-.13623-1.22949.85839.07129.11963a8.59465,8.59465,0,0,1-.14551,9.07715l-.07813.1211,1.23047.85839.084-.13086a10.08414,10.08414,0,0,0,.15039-10.76757Z"/><path class="cls-1" d="M12.208,21.28784a8.58913,8.58913,0,0,1-.14551-9.07715l.07129-.11963-1.22949-.85839-.083.13623a10.08047,10.08047,0,0,0,.15039,10.76855l.085.12988,1.22949-.85839Z"/><path class="cls-1" d="M33.55078,7.61646l-.084-.13086-1.23047.85791.07812.12109A15.12977,15.12977,0,0,1,32.167,25.033l-.081.12207,1.23047.85937.085-.12793a16.62719,16.62719,0,0,0,.14941-18.27Z"/><path class="cls-1" d="M6.834,25.033A15.1248,15.1248,0,0,1,6.68652,8.4646l.07813-.12109L5.53418,7.4856l-.084.13086a16.62221,16.62221,0,0,0,.14941,18.27l.085.12793L6.915,25.155Z"/></g></svg>