<svg xmlns="http://www.w3.org/2000/svg" viewBox="0 0 40 40"><defs><style>.cls-1{fill:none;stroke:#fff;stroke-miterlimit:10;stroke-width:1.5px;fill-rule:evenodd;}.cls-2{fill:#fff;}</style></defs><g id="E0A6_media_onlinemedia"><path class="cls-1" d="M34.02787,19.10648A18.399,18.399,0,0,0,21.3668,5.95749"/><path class="cls-1" d="M38.58329,17.6727A23.16781,23.16781,0,0,0,22.799,1.40714"/><path class="cls-2" d="M7.40011,21.58726c.0095-3.7587,1.4358-3.7033,4.5348-1.7558-.446-.2803.8994-2.3856,1.3373-2.8768.2923-.3279,4.716-.3854,4.6501-1.3357-.066-.9503-1.3216-1.3579-1.9549-1.3495-.6334.0084-3.7796-.171-4.0686-.8342-.2891-.6632.2078-3.182.2078-3.182l-4.7311,2.7571-1.9114,2.0657s-.0964,2.8906-.2623,5.0562c-.0515.6722,1.1326,3.5931,1.7556,3.5442S7.398,22.41656,7.40011,21.58726Zm3.0597,11.2872c-1.2967-.2743-2.8773-.7424-2.7961-2.7961.0218-.5504-.0048.3069,1.9497-1.0155.7341-.4967-.0188-2.0682,3.1071-1.765.8885.0861.6891,2.2461,1.047,2.846,1.9468,3.2635,3.8944.7307,4.9163,1.7986.6672.6971-2.3364,1.3163-3.0979,1.398a4.50575,4.50575,0,0,0-1.8641,1.398c-.0835.3391-1.0372.1518-1.9907-.4927C11.237,33.91186,11.41561,33.07656,10.45981,32.87446Z"/><path class="cls-2" d="M24.17651,16.78376c-.793.1191-1.3499,2.0097-1.1161,2.6548.4254,1.1739,2.1597,2.0182,2.5168,2.792.3571.7739-.9856,3.2502.2736,4.5986.2141.2293,1.0284-4.1873.948-4.753C26.71831,21.51056,24.96951,16.66466,24.17651,16.78376Z"/><path class="cls-1" d="M15.77611,9.84286a14.375,14.375,0,1,1-14.3594,14.375A14.36725,14.36725,0,0,1,15.77611,9.84286Z"/></g></svg>