<svg xmlns="http://www.w3.org/2000/svg" viewBox="0 0 40 40"><defs><style>.cls-1{fill:none;stroke:#fff;stroke-width:1.5px;}.cls-2,.cls-3{fill:#fff;}.cls-3{fill-rule:evenodd;}</style></defs><g id="E0B0_navigation_zielflagge"><path class="cls-1" d="M34.16667,25.38205c-6.59476.62662-10.06682-1.12163-13.15415-2.50892s-5.79-2.41359-10.84585-.34308V4.72905c5.05589-2.07051,7.75851-.8512,10.84584.729s6.5594,3.52116,13.15416,2.894v17.03Z"/><path class="cls-2" d="M16.19663,9.79051v5.49081s-.21568-.02359-.58964-.04313-.90619-.035-1.53929-.01879a9.7555,9.7555,0,0,0-2.55447.53153c-.77408.25287-1.3469.50058-1.3469.50058l.00067-2.91818v-2.662a3.83336,3.83336,0,0,0,.80285-.16c.683-.20184,1.17817-.39031,2.01441-.58548a7.92974,7.92974,0,0,1,3.21237-.13533"/><path class="cls-2" d="M17.111,9.96046c-.52368-.11311-.91434-.17-.91434-.17l-.0015-2.84976-.0017-3.23421a2.67288,2.67288,0,0,1,.61121.09984c.34551.096.83024.19829,1.18235.31188a12.78694,12.78694,0,0,1,1.70935.6893c.72506.35866,1.45162.76026,2.19474,1.10086,0,0-.00177,1.94313-.00611,3.33015s-.01127,2.77661-.02159,2.78693c-.6851-.3849-1.24031-.68762-1.72664-.93744A10.81834,10.81834,0,0,0,17.111,9.96046Z"/><path class="cls-2" d="M21.89382,12.08526l.59895.264.59895.264c.34922.13174.83707.3394,1.42551.55749a16.57837,16.57837,0,0,0,2.029.62l.52032.08672.52032.08672.00041,2.66887.00042,2.66886-.41658-.108-.41658-.108c-.49541-.11872-1.41343-.41187-2.358-.75248a24.28626,24.28626,0,0,1-2.51749-1.03726v-.03086l.00737-2.59Z"/><polygon class="cls-3" points="6.5 5 7 5 8 5 8 22 8 39 7 39 6.5 39 6.5 22 6.5 5"/><path class="cls-3" d="M16.19363,15.28132s.3562.03888.84137.13057a8.76526,8.76526,0,0,1,1.61526.44741c.37786.15471,1.07969.44886,1.74124.73272s1.28283.55742,1.49958.67095v6.00662l-3.45449-1.42065-2.243-.45647V15.28132Z"/><path class="cls-2" d="M30.4404,8.43676l3.31369-.02763.02064,2.8971.02064,2.8971s-.55161.02463-1.22478.04809-1.46789.04575-1.95411.04105a16.8339,16.8339,0,0,1-1.98708-.17173c-.59716-.082-1.03577-.16255-1.03577-.16255v-5.9Z"/><path class="cls-2" d="M33.74814,25.419c-.00949-.61374-.02251-2.173-.03494-3.46085s-.02429-2.42585-.03146-2.44016a21.112,21.112,0,0,1-4.128.02837c-1.16737-.09547-1.97608-.23479-1.97608-.23479l.0055,3.09384.00492,2.76578.74018.12143.74441.09384c.88951.01691,1.4854.17276,2.23392.12587A12.082,12.082,0,0,0,33.74814,25.419Z"/></g></svg>