<svg xmlns="http://www.w3.org/2000/svg" viewBox="0 0 40 40"><defs><style>.cls-1,.cls-3{fill:#fff;}.cls-2{fill:none;stroke:#fff;stroke-width:1.5px;}.cls-3{fill-rule:evenodd;}</style></defs><g id="E0BE_003_zwischenzielflagge"><path class="cls-1" d="M16.43652,36.31152q.29.1172.63965.2251c.23242.07227.48145.13574.74512.19043q.3955.08277.833.13184a7.95379,7.95379,0,0,0,.89843.04931,3.91484,3.91484,0,0,0,1.09571-.13867,2.363,2.363,0,0,0,.7998-.39209,1.68751,1.68751,0,0,0,.49317-.60791,1.83691,1.83691,0,0,0,.168-.791,2.04555,2.04555,0,0,0-.17383-.85352,1.764,1.764,0,0,0-.52051-.65918,2.4746,2.4746,0,0,0-.86621-.42285,4.46138,4.46138,0,0,0-1.21485-.14844h-1.0332V31.72266H19.334a3.77305,3.77305,0,0,0,1.01172-.12256,2.01326,2.01326,0,0,0,.74024-.36426,1.55379,1.55379,0,0,0,.4541-.60059,2.07769,2.07769,0,0,0,.15527-.83154,1.69628,1.69628,0,0,0-.07324-.51074,1.48378,1.48378,0,0,0-.207-.4209,1.4523,1.4523,0,0,0-.32715-.33154,1.90229,1.90229,0,0,0-.43555-.23633,2.75773,2.75773,0,0,0-.52929-.14111,3.80173,3.80173,0,0,0-.61035-.04737,6.73635,6.73635,0,0,0-.80176.04737,7.31784,7.31784,0,0,0-.75293.13183,6.31323,6.31323,0,0,0-.67481.19629,4.61525,4.61525,0,0,0-.56054.23633V27.50049q.15673-.08056.35156-.15918c.12891-.05274.26855-.102.417-.14844q.22413-.06958.46875-.12451.24609-.05493.50781-.0918c.17383-.02392.35254-.04394.53614-.05859s.36816-.02149.55664-.02149a5.87822,5.87822,0,0,1,1.53613.18116,3.10556,3.10556,0,0,1,1.124.54,2.28732,2.28732,0,0,1,.69043.8916,3.03732,3.03732,0,0,1,.23438,1.23242,2.87792,2.87792,0,0,1-.10059.769,2.51749,2.51749,0,0,1-.29883.68115,2.63111,2.63111,0,0,1-.48828.57471,3.03778,3.03778,0,0,1-.67187.45069,3.40509,3.40509,0,0,1,.86719.46679,2.77943,2.77943,0,0,1,.61718.63721,2.667,2.667,0,0,1,.37012.78027,3.16224,3.16224,0,0,1,.123.8877,3.2848,3.2848,0,0,1-.11035.86084,2.74424,2.74424,0,0,1-.32911.75439,2.67109,2.67109,0,0,1-.55175.626,3.25994,3.25994,0,0,1-.77247.47656,4.50713,4.50713,0,0,1-.99414.30371,6.48656,6.48656,0,0,1-1.21972.10645q-.5127,0-.96485-.04053a8.22339,8.22339,0,0,1-.8457-.11719,5.85472,5.85472,0,0,1-.72851-.18847,4.30323,4.30323,0,0,1-.61036-.2544Z"/><path class="cls-2" d="M34.16667,25.38205c-6.59476.62662-10.06682-1.12163-13.15415-2.50892s-5.79-2.41359-10.84585-.34308V4.72905c5.05589-2.07051,7.75851-.8512,10.84584.729s6.5594,3.52116,13.15416,2.894v17.03Z"/><path class="cls-1" d="M16.19663,9.79051v5.49081s-.21568-.02359-.58964-.04313-.90619-.035-1.53929-.01879a9.7555,9.7555,0,0,0-2.55447.53153c-.77408.25287-1.3469.50058-1.3469.50058l.00067-2.91818v-2.662a3.83336,3.83336,0,0,0,.80285-.16c.683-.20184,1.17817-.39031,2.01441-.58548a7.92974,7.92974,0,0,1,3.21237-.13533"/><path class="cls-1" d="M17.111,9.96046c-.52368-.11311-.91434-.17-.91434-.17l-.0015-2.84976-.0017-3.23421a2.67288,2.67288,0,0,1,.61121.09984c.34551.096.83024.19829,1.18235.31188a12.78694,12.78694,0,0,1,1.70935.6893c.72506.35866,1.45162.76026,2.19474,1.10086,0,0-.00177,1.94313-.00611,3.33015s-.01127,2.77661-.02159,2.78693c-.6851-.3849-1.24031-.68762-1.72664-.93744A10.81834,10.81834,0,0,0,17.111,9.96046Z"/><path class="cls-1" d="M21.89382,12.08526l.59895.264.59895.264c.34922.13174.83707.3394,1.42551.55749a16.57837,16.57837,0,0,0,2.029.62l.52032.08672.52032.08672.00041,2.66887.00042,2.66886-.41658-.108-.41658-.108c-.49541-.11872-1.41343-.41187-2.358-.75248a24.28626,24.28626,0,0,1-2.51749-1.03726v-.03086l.00737-2.59Z"/><polygon class="cls-3" points="6.5 5 7 5 8 5 8 22 8 39 7 39 6.5 39 6.5 22 6.5 5"/><path class="cls-3" d="M16.19363,15.28132s.3562.03888.84137.13057a8.76526,8.76526,0,0,1,1.61526.44741c.37786.15471,1.07969.44886,1.74124.73272s1.28283.55742,1.49958.67095v6.00662l-3.45449-1.42065-2.243-.45647V15.28132Z"/><path class="cls-1" d="M30.4404,8.43676l3.31369-.02763.02064,2.8971.02064,2.8971s-.55161.02463-1.22478.04809-1.46789.04575-1.95411.04105a16.8339,16.8339,0,0,1-1.98708-.17173c-.59716-.082-1.03577-.16255-1.03577-.16255v-5.9Z"/><path class="cls-1" d="M33.74814,25.419c-.00949-.61374-.02251-2.173-.03494-3.46085s-.02429-2.42585-.03146-2.44016a21.112,21.112,0,0,1-4.128.02837c-1.16737-.09547-1.97608-.23479-1.97608-.23479l.0055,3.09384.00492,2.76578.74018.12143.74441.09384c.88951.01691,1.4854.17276,2.23392.12587A12.082,12.082,0,0,0,33.74814,25.419Z"/></g></svg>