<svg xmlns="http://www.w3.org/2000/svg" viewBox="0 0 40 40"><defs><style>.cls-1,.cls-3{fill:#fff;}.cls-2{fill:none;stroke:#fff;stroke-width:1.5px;}.cls-3{fill-rule:evenodd;}</style></defs><g id="E0BE_005_zwischenzielflagge"><path class="cls-1" d="M16.41455,36.31152q.28272.1172.63379.2251.35156.10841.75293.19043.3999.08277.835.13184a7.74494,7.74494,0,0,0,.88379.04931,3.96438,3.96438,0,0,0,1.18457-.15527,2.17191,2.17191,0,0,0,.80762-.4375,1.69046,1.69046,0,0,0,.46191-.67041,2.40959,2.40959,0,0,0,.14649-.85693,1.582,1.582,0,0,0-.15918-.72315,1.77839,1.77839,0,0,0-.4375-.54932,2.72489,2.72489,0,0,0-.64649-.40136,5.13638,5.13638,0,0,0-.78906-.27442,7.88017,7.88017,0,0,0-.86621-.17382q-.44532-.06446-.876-.09717c-.28613-.022-.55957-.03662-.81836-.04395s-.48926-.01318-.6914-.01806l.19336-5.43116h6.123v1.18994H18.356l-.11719,3.04346c.28027.01465.57129.03662.87109.06592.30078.0293.60157.07129.9043.12646a8.83385,8.83385,0,0,1,.89551.21045,5.61068,5.61068,0,0,1,.83691.31495,4.13842,4.13842,0,0,1,.73242.4414,2.821,2.821,0,0,1,.582.58936,2.69361,2.69361,0,0,1,.38476.75976,3.05106,3.05106,0,0,1,.13965.95215,3.916,3.916,0,0,1-.10254.9082,3.07117,3.07117,0,0,1-.31152.8042,2.78679,2.78679,0,0,1-.53418.67383,3.04045,3.04045,0,0,1-.77539.51416A4.44259,4.44259,0,0,1,20.83643,38a6.516,6.516,0,0,1-1.28711.11719q-.498,0-.94825-.03858a8.02577,8.02577,0,0,1-.84765-.11572,5.70846,5.70846,0,0,1-.73242-.18848,4.00721,4.00721,0,0,1-.60645-.25439Z"/><path class="cls-2" d="M34.16667,25.38205c-6.59476.62662-10.06682-1.12163-13.15415-2.50892s-5.79-2.41359-10.84585-.34308V4.72905c5.05589-2.07051,7.75851-.8512,10.84584.729s6.5594,3.52116,13.15416,2.894v17.03Z"/><path class="cls-1" d="M16.19663,9.79051v5.49081s-.21568-.02359-.58964-.04313-.90619-.035-1.53929-.01879a9.7555,9.7555,0,0,0-2.55447.53153c-.77408.25287-1.3469.50058-1.3469.50058l.00067-2.91818v-2.662a3.83336,3.83336,0,0,0,.80285-.16c.683-.20184,1.17817-.39031,2.01441-.58548a7.92974,7.92974,0,0,1,3.21237-.13533"/><path class="cls-1" d="M17.111,9.96046c-.52368-.11311-.91434-.17-.91434-.17l-.0015-2.84976-.0017-3.23421a2.67288,2.67288,0,0,1,.61121.09984c.34551.096.83024.19829,1.18235.31188a12.78694,12.78694,0,0,1,1.70935.6893c.72506.35866,1.45162.76026,2.19474,1.10086,0,0-.00177,1.94313-.00611,3.33015s-.01127,2.77661-.02159,2.78693c-.6851-.3849-1.24031-.68762-1.72664-.93744A10.81834,10.81834,0,0,0,17.111,9.96046Z"/><path class="cls-1" d="M21.89382,12.08526l.59895.264.59895.264c.34922.13174.83707.3394,1.42551.55749a16.57837,16.57837,0,0,0,2.029.62l.52032.08672.52032.08672.00041,2.66887.00042,2.66886-.41658-.108-.41658-.108c-.49541-.11872-1.41343-.41187-2.358-.75248a24.28626,24.28626,0,0,1-2.51749-1.03726v-.03086l.00737-2.59Z"/><polygon class="cls-3" points="6.5 5 7 5 8 5 8 22 8 39 7 39 6.5 39 6.5 22 6.5 5"/><path class="cls-3" d="M16.19363,15.28132s.3562.03888.84137.13057a8.76526,8.76526,0,0,1,1.61526.44741c.37786.15471,1.07969.44886,1.74124.73272s1.28283.55742,1.49958.67095v6.00662l-3.45449-1.42065-2.243-.45647V15.28132Z"/><path class="cls-1" d="M30.4404,8.43676l3.31369-.02763.02064,2.8971.02064,2.8971s-.55161.02463-1.22478.04809-1.46789.04575-1.95411.04105a16.8339,16.8339,0,0,1-1.98708-.17173c-.59716-.082-1.03577-.16255-1.03577-.16255v-5.9Z"/><path class="cls-1" d="M33.74814,25.419c-.00949-.61374-.02251-2.173-.03494-3.46085s-.02429-2.42585-.03146-2.44016a21.112,21.112,0,0,1-4.128.02837c-1.16737-.09547-1.97608-.23479-1.97608-.23479l.0055,3.09384.00492,2.76578.74018.12143.74441.09384c.88951.01691,1.4854.17276,2.23392.12587A12.082,12.082,0,0,0,33.74814,25.419Z"/></g></svg>