<svg xmlns="http://www.w3.org/2000/svg" viewBox="0 0 40 40"><defs><style>.cls-1,.cls-3{fill:#fff;}.cls-2{fill:none;stroke:#fff;stroke-width:1.5px;}.cls-3{fill-rule:evenodd;}</style></defs><g id="E0BE_008_zwischenzielflagge"><path class="cls-1" d="M22.09521,32.25a3.61788,3.61788,0,0,1,.59278.28418,3.037,3.037,0,0,1,.49121.36426,2.63155,2.63155,0,0,1,.38379.4375,2.66981,2.66981,0,0,1,.27734.50732,2.961,2.961,0,0,1,.168.56934,3.47319,3.47319,0,0,1-.04785,1.47021,2.6471,2.6471,0,0,1-.31836.7417,2.619,2.619,0,0,1-.54395.61914,3.12466,3.12466,0,0,1-.78125.47022,4.75826,4.75826,0,0,1-1.02734.29883,7.23394,7.23394,0,0,1-1.28223.10449,7.425,7.425,0,0,1-1.2998-.10449,4.71061,4.71061,0,0,1-1.03418-.29883,3.08359,3.08359,0,0,1-.78027-.47022,2.60088,2.60088,0,0,1-.54-.61914,2.64029,2.64029,0,0,1-.31543-.7417,3.38388,3.38388,0,0,1-.10254-.8457,3.23874,3.23874,0,0,1,.05859-.62451,2.96689,2.96689,0,0,1,.1709-.56934,2.56958,2.56958,0,0,1,.27832-.50732,2.68955,2.68955,0,0,1,.38574-.4375,3.06286,3.06286,0,0,1,.48926-.36426,3.60271,3.60271,0,0,1,.58789-.28418,2.74837,2.74837,0,0,1-.67383-.43555,2.47826,2.47826,0,0,1-.48339-.57519,2.53448,2.53448,0,0,1-.291-.68994,3.06792,3.06792,0,0,1-.09766-.78565,2.99564,2.99564,0,0,1,.24024-1.23584,2.339,2.339,0,0,1,.70117-.89892,3.16731,3.16731,0,0,1,1.14258-.54786,6.73913,6.73913,0,0,1,3.13281,0,3.16544,3.16544,0,0,1,1.14063.54786,2.31361,2.31361,0,0,1,.69824.89892,3.0443,3.0443,0,0,1,.23535,1.23584,3.112,3.112,0,0,1-.09668.78565,2.48455,2.48455,0,0,1-.29492.68994,2.5754,2.5754,0,0,1-.48828.57519A2.81733,2.81733,0,0,1,22.09521,32.25Zm.50879,2.71777a2.0678,2.0678,0,0,0-.15429-.79492,1.78489,1.78489,0,0,0-.47168-.66308,2.35038,2.35038,0,0,0-.80762-.45557,4.051,4.051,0,0,0-2.3252,0,2.34118,2.34118,0,0,0-.80761.45557,1.78742,1.78742,0,0,0-.47266.66308,2.08606,2.08606,0,0,0-.1543.79492,2.01812,2.01812,0,0,0,.15625.79981,1.61547,1.61547,0,0,0,.47754.62646,2.36428,2.36428,0,0,0,.81153.41016,4.54261,4.54261,0,0,0,2.2998,0,2.37323,2.37323,0,0,0,.81153-.41016,1.64929,1.64929,0,0,0,.47949-.62646A2.00149,2.00149,0,0,0,22.604,34.96777Zm-.40234-5.15283a1.80723,1.80723,0,0,0-.15039-.75635,1.49579,1.49579,0,0,0-.43262-.55273,1.92935,1.92935,0,0,0-.69043-.34082,3.75273,3.75273,0,0,0-1.8457,0,1.93264,1.93264,0,0,0-.68945.34082,1.471,1.471,0,0,0-.43067.55273,1.82272,1.82272,0,0,0-.14844.75635,2.08157,2.08157,0,0,0,.13965.77979,1.59642,1.59642,0,0,0,.415.60449,1.90752,1.90752,0,0,0,.68653.3916,3.30908,3.30908,0,0,0,1.90234,0,1.88731,1.88731,0,0,0,.6875-.3916,1.6416,1.6416,0,0,0,.415-.60449A2.08175,2.08175,0,0,0,22.20166,29.81494Z"/><path class="cls-2" d="M34.16667,25.38205c-6.59476.62662-10.06682-1.12163-13.15415-2.50892s-5.79-2.41359-10.84585-.34308V4.72905c5.05589-2.07051,7.75851-.8512,10.84584.729s6.5594,3.52116,13.15416,2.894v17.03Z"/><path class="cls-1" d="M16.19663,9.79051v5.49081s-.21568-.02359-.58964-.04313-.90619-.035-1.53929-.01879a9.7555,9.7555,0,0,0-2.55447.53153c-.77408.25287-1.3469.50058-1.3469.50058l.00067-2.91818v-2.662a3.83336,3.83336,0,0,0,.80285-.16c.683-.20184,1.17817-.39031,2.01441-.58548a7.92974,7.92974,0,0,1,3.21237-.13533"/><path class="cls-1" d="M17.111,9.96046c-.52368-.11311-.91434-.17-.91434-.17l-.0015-2.84976-.0017-3.23421a2.67288,2.67288,0,0,1,.61121.09984c.34551.096.83024.19829,1.18235.31188a12.78694,12.78694,0,0,1,1.70935.6893c.72506.35866,1.45162.76026,2.19474,1.10086,0,0-.00177,1.94313-.00611,3.33015s-.01127,2.77661-.02159,2.78693c-.6851-.3849-1.24031-.68762-1.72664-.93744A10.81834,10.81834,0,0,0,17.111,9.96046Z"/><path class="cls-1" d="M21.89382,12.08526l.59895.264.59895.264c.34922.13174.83707.3394,1.42551.55749a16.57837,16.57837,0,0,0,2.029.62l.52032.08672.52032.08672.00041,2.66887.00042,2.66886-.41658-.108-.41658-.108c-.49541-.11872-1.41343-.41187-2.358-.75248a24.28626,24.28626,0,0,1-2.51749-1.03726v-.03086l.00737-2.59Z"/><polygon class="cls-3" points="6.5 5 7 5 8 5 8 22 8 39 7 39 6.5 39 6.5 22 6.5 5"/><path class="cls-3" d="M16.19363,15.28132s.3562.03888.84137.13057a8.76526,8.76526,0,0,1,1.61526.44741c.37786.15471,1.07969.44886,1.74124.73272s1.28283.55742,1.49958.67095v6.00662l-3.45449-1.42065-2.243-.45647V15.28132Z"/><path class="cls-1" d="M30.4404,8.43676l3.31369-.02763.02064,2.8971.02064,2.8971s-.55161.02463-1.22478.04809-1.46789.04575-1.95411.04105a16.8339,16.8339,0,0,1-1.98708-.17173c-.59716-.082-1.03577-.16255-1.03577-.16255v-5.9Z"/><path class="cls-1" d="M33.74814,25.419c-.00949-.61374-.02251-2.173-.03494-3.46085s-.02429-2.42585-.03146-2.44016a21.112,21.112,0,0,1-4.128.02837c-1.16737-.09547-1.97608-.23479-1.97608-.23479l.0055,3.09384.00492,2.76578.74018.12143.74441.09384c.88951.01691,1.4854.17276,2.23392.12587A12.082,12.082,0,0,0,33.74814,25.419Z"/></g></svg>