<svg xmlns="http://www.w3.org/2000/svg" viewBox="0 0 40 40"><defs><style>.cls-1,.cls-2,.cls-4{fill:none;stroke:#fff;}.cls-1,.cls-2{stroke-width:1.5px;}.cls-2,.cls-4{stroke-miterlimit:10;}.cls-3{fill:#fff;fill-rule:evenodd;}.cls-4{stroke-width:1.50039px;}</style></defs><g id="E0E2_media_bt_audioplayer1_ipod"><g id="V2"><path class="cls-1" d="M28.5,32.7,38.9,23l-5.4-5.3V37.9l5.4-5.3L28.5,22.9"/><ellipse class="cls-2" cx="13.5" cy="28.5" rx="7.18009" ry="7.04196"/><path class="cls-3" d="M13.5,27A1.5,1.5,0,1,0,15,28.5,1.50215,1.50215,0,0,0,13.5,27Z"/><path class="cls-4" d="M24.448,39.25H2.50606A1.00091,1.00091,0,0,1,1.5,38.2615V1.7385A1.00091,1.00091,0,0,1,2.50606.75H24.448a1.04189,1.04189,0,0,1,1.052.9885v36.523A1.04189,1.04189,0,0,1,24.448,39.25Z"/><line class="cls-1" x1="23" y1="17.5" x2="4" y2="17.5"/></g></g></svg>