<svg xmlns="http://www.w3.org/2000/svg" viewBox="0 0 40 40"><defs><style>.cls-1,.cls-3{fill:#fff;}.cls-1,.cls-4{fill-rule:evenodd;}.cls-2,.cls-4{fill:none;stroke:#fff;stroke-miterlimit:10;stroke-width:1.5px;}</style></defs><g id="E10C_fuel"><g id="V2"><path class="cls-1" d="M34.025,13.91266l1.4799-.9974s-1.31478-3.92313-3.05018-5.81243a22.89674,22.89674,0,0,0-5.10191-3.381l-.02024.80983a20.33564,20.33564,0,0,1,4.71933,3.89573A16.11189,16.11189,0,0,1,34.025,13.91266Z"/><path class="cls-2" d="M23.5,17.5s.41325.00618,1.23943,0A2.58543,2.58543,0,0,1,27.5,20v8.5s.0004,4,3.5,4c2.98639,0,3.68822-2.13133,3.5-4a128.17151,128.17151,0,0,1-1-13c0-8.4932-6.452-11.06194-6.452-11.06194"/><path class="cls-2" d="M21,16.5H8"/><path class="cls-3" d="M3,36.5H26V38H3Z"/><path class="cls-4" d="M5.5,37V5.5a2.06135,2.06135,0,0,1,2.11765-2h13.7647A2.06135,2.06135,0,0,1,23.5,5.5V37"/></g></g></svg>