<svg id="E14E_laptimer_flag" xmlns="http://www.w3.org/2000/svg" viewBox="0 0 40 40"><defs><style>.cls-1{fill:none;stroke:#fff;stroke-miterlimit:10;stroke-width:1.5px;fill-rule:evenodd;}.cls-2{fill:#fff;}</style></defs><path class="cls-1" d="M27.4752,31.41383,13.7301,7.60726"/><path class="cls-2" d="M10.16016,14.87549l1.165,2.0166a7.4644,7.4644,0,0,1,2.85546-1.40674L12.874,13.21924l-.206.105A11.8989,11.8989,0,0,0,10.16016,14.87549Z"/><path class="cls-2" d="M6.18262,13.69775l1.69726,2.94043A9.43,9.43,0,0,1,9.71,14.79492L8.00586,11.8501Z"/><path class="cls-2" d="M9.582,19.585l1.65137,2.855L12.957,20.40967,11.2207,17.41113a4.67255,4.67255,0,0,0-1.0498,1.29444C10.01758,18.95166,9.82812,19.25439,9.582,19.585Z"/><path class="cls-2" d="M6.21094,19.3042l1.23047,2.15137a11.04944,11.04944,0,0,0,1.72168-1.897L7.83887,17.26611l-.11524.15186C7.2373,18.05566,6.68749,18.77686,6.21094,19.3042Z"/><path class="cls-2" d="M4.91016,23.47412l1.44629,2.5044,2.4082-1.53614L7.335,21.97168c-.1084.08154-.21387.16406-.31934.24756l-.04785.03808A6.78551,6.78551,0,0,1,4.91016,23.47412Z"/><path class="cls-2" d="M1.80469,18.42334l1.44922,2.50781a10.41354,10.41354,0,0,0,2.52343-1.67871l-1.61425-2.792Z"/><path class="cls-1" d="M11.41951,9.73107C5.96394,11.18545,6.0004,16.55943,1.25019,18.557c.37161.64361,4.072,7.05276,4.69087,8.12485,5.55762-1.76906,5.21937-7.36823,10.53513-8.20239C15.97156,17.57739,11.87075,10.4676,11.41951,9.73107Z"/><path class="cls-1" d="M26.2699,7.60726,12.5248,31.41383"/><path class="cls-2" d="M27.332,13.32422l-.20605-.105-1.30664,2.26611a7.4644,7.4644,0,0,1,2.85546,1.40674l1.165-2.0166A11.8989,11.8989,0,0,0,27.332,13.32422Z"/><path class="cls-2" d="M31.99414,11.8501,30.29,14.79492a9.43,9.43,0,0,1,1.83008,1.84326l1.69726-2.94043Z"/><path class="cls-2" d="M29.8291,18.70557a4.67255,4.67255,0,0,0-1.0498-1.29444L27.043,20.40967l1.72363,2.03027L30.418,19.585C30.17188,19.25439,29.98242,18.95166,29.8291,18.70557Z"/><path class="cls-2" d="M32.27637,17.418l-.11524-.15186-1.32422,2.29248a11.04944,11.04944,0,0,0,1.72168,1.897l1.23047-2.15137C33.3125,18.77686,32.7627,18.05566,32.27637,17.418Z"/><path class="cls-2" d="M33.03223,22.25732l-.04786-.03808c-.10546-.0835-.21093-.166-.31933-.24756l-1.42969,2.4707,2.4082,1.53614,1.44629-2.5044A6.78538,6.78538,0,0,1,33.03223,22.25732Z"/><path class="cls-2" d="M35.83691,16.46045l-1.61425,2.792a10.41354,10.41354,0,0,0,2.52343,1.67871l1.44922-2.50781Z"/><path class="cls-1" d="M23.52381,18.47943c5.31576.83416,4.97751,6.43333,10.53513,8.20239.6189-1.07209,4.31926-7.48124,4.69087-8.12485-4.75021-1.99754-4.71375-7.37152-10.16932-8.8259C28.12925,10.4676,24.02844,17.57739,23.52381,18.47943Z"/></svg>