<svg xmlns="http://www.w3.org/2000/svg" viewBox="0 0 40 40"><defs><style>.cls-1{fill:none;stroke:#fff;stroke-width:1.5px;}.cls-2{fill:#fff;}</style></defs><g id="E343_BC_Card1"><path class="cls-1" d="M33.03652,14.34294S29.56494,7.262,28.35394,7.083c-4.069-.599-16.103-.597-19.632,0-1.207.204-4.92155,7.2599-4.92155,7.2599"/><path class="cls-1" d="M13.63694,24.566c-2.409-.119-3.243-4.944-3.243-4.944l1.853-2.06h12.582l1.853,2.06s-.834,4.825-3.243,4.944Z"/><path class="cls-2" d="M33.12712,18.50953c-1.03873,1.08157-2.67326,0-2.67326,0H27.9796L26.2512,16.7l7.32178-.4996A2.10436,2.10436,0,0,1,33.12712,18.50953Z"/><path class="cls-2" d="M6.62205,18.50953s-1.63453,1.08157-2.67326,0a2.10439,2.10439,0,0,1-.44587-2.30917L10.8247,16.7,9.0962,18.50953Z"/><path class="cls-2" d="M29.7937,26.59528a4.97385,4.97385,0,0,1,.07959-.78962H5.78809v1.75a1.5617,1.5617,0,0,1-.01465.23438,1.41917,1.41917,0,0,1-.23535.01562h-3a.326.326,0,0,1-.13282-.01855c-.166-.14453-.1416-1.06738-.1289-1.56348.00586-.2207.01172-.44531.01172-.668,0-2.56543.01367-7.42382.0166-8.64648A10.58588,10.58588,0,0,1,5.15918,14.4873c1.94336-.21191,24.8418-.35742,26.72266.07715a10.73941,10.73941,0,0,1,2.88867,2.3545l.002.77246c.0025.94464.00647,2.4104.00983,3.905l.01141-.00116a4.946,4.946,0,0,1,1.48914.251c-.00342-1.58117-.00775-3.16058-.01038-4.15881l-.002-.92285a1.07224,1.07224,0,0,0-.26172-.70606,12.22653,12.22653,0,0,0-3.47168-2.8457l-.09766-.04492c-1.18164-.44336-26.64453-.53418-27.80273-.09863l-.10547.04882a12.06176,12.06176,0,0,0-3.47656,2.95118,1.067,1.067,0,0,0-.249.68847C.80273,17.625.78809,22.85742.78809,25.55566c0,.209-.00586.4209-.01075.62891A3.56553,3.56553,0,0,0,1.33008,28.833a1.62461,1.62461,0,0,0,1.208.47265h3a1.55122,1.55122,0,0,0,1.75-1.75v-.25h22.501S29.7937,27.38678,29.7937,26.59528Z"/><path class="cls-2" d="M35.74118,35.53957V25.37551l-3.07031.53125V24.66848l3.64844-.71484h.92578V35.53957Z"/></g></svg>