<svg xmlns="http://www.w3.org/2000/svg" viewBox="0 0 40 40"><defs><style>.cls-1{fill:#fff;}.cls-2{fill:none;stroke:#fff;stroke-width:1.5px;}</style></defs><g id="E344_BC_Card2"><path class="cls-1" d="M31.96512,35.53957V34.39114L34.9456,31.524q.48485-.46437.89257-.875.40869-.41016.74219-.7832.334-.37354.5879-.7168a5.464,5.464,0,0,0,.42773-.67188,3.15857,3.15857,0,0,0,.26171-.65039,2.474,2.474,0,0,0,.0879-.65429,2.42216,2.42216,0,0,0-.14649-.86328,1.66308,1.66308,0,0,0-.4453-.65625,2.02544,2.02544,0,0,0-.75782-.41407,3.61085,3.61085,0,0,0-1.084-.14453q-.49221,0-.93164.03906a7.64986,7.64986,0,0,0-.83594.11915,6.397,6.397,0,0,0-.752.19921,4.99707,4.99707,0,0,0-.67969.28321V24.41457a4.12756,4.12756,0,0,1,.625-.28125,5.59392,5.59392,0,0,1,.74023-.20507,7.46319,7.46319,0,0,1,.85743-.125q.457-.041.98437-.041a6.90231,6.90231,0,0,1,1.27148.10742,4.44682,4.44682,0,0,1,1.01171.3086,2.839,2.839,0,0,1,.76172.49414,2.66254,2.66254,0,0,1,.52539.66406,2.98985,2.98985,0,0,1,.3047.81836,4.46988,4.46988,0,0,1,.09766.959,3.64815,3.64815,0,0,1-.125.959,4.40458,4.40458,0,0,1-.35352.89453,6.207,6.207,0,0,1-.54688.85547q-.31788.42041-.70507.83983-.38673.42042-.834.84767-.44677.42773-.92382.873l-2.01172,1.918h5.96484v1.23824Z"/><path class="cls-2" d="M33.03652,14.34294S29.56494,7.262,28.35394,7.083c-4.069-.599-16.103-.597-19.632,0-1.207.204-4.92155,7.2599-4.92155,7.2599"/><path class="cls-2" d="M13.63694,24.566c-2.409-.119-3.243-4.944-3.243-4.944l1.853-2.06h12.582l1.853,2.06s-.834,4.825-3.243,4.944Z"/><path class="cls-1" d="M33.12712,18.50953c-1.03873,1.08157-2.67326,0-2.67326,0H27.9796L26.2512,16.7l7.32178-.4996A2.10436,2.10436,0,0,1,33.12712,18.50953Z"/><path class="cls-1" d="M6.62205,18.50953s-1.63453,1.08157-2.67326,0a2.10439,2.10439,0,0,1-.44587-2.30917L10.8247,16.7,9.0962,18.50953Z"/><path class="cls-1" d="M29.7937,26.59528a4.97385,4.97385,0,0,1,.07959-.78962H5.78809v1.75a1.5617,1.5617,0,0,1-.01465.23438,1.41917,1.41917,0,0,1-.23535.01562h-3a.326.326,0,0,1-.13282-.01855c-.166-.14453-.1416-1.06738-.1289-1.56348.00586-.2207.01172-.44531.01172-.668,0-2.56543.01367-7.42382.0166-8.64648A10.58588,10.58588,0,0,1,5.15918,14.4873c1.94336-.21191,24.8418-.35742,26.72266.07715a10.73941,10.73941,0,0,1,2.88867,2.3545l.002.77246c.0025.94464.00647,2.4104.00983,3.905l.01141-.00116a4.946,4.946,0,0,1,1.48914.251c-.00342-1.58117-.00775-3.16058-.01038-4.15881l-.002-.92285a1.07224,1.07224,0,0,0-.26172-.70606,12.22653,12.22653,0,0,0-3.47168-2.8457l-.09766-.04492c-1.18164-.44336-26.64453-.53418-27.80273-.09863l-.10547.04882a12.06176,12.06176,0,0,0-3.47656,2.95118,1.067,1.067,0,0,0-.249.68847C.80273,17.625.78809,22.85742.78809,25.55566c0,.209-.00586.4209-.01075.62891A3.56553,3.56553,0,0,0,1.33008,28.833a1.62461,1.62461,0,0,0,1.208.47265h3a1.55122,1.55122,0,0,0,1.75-1.75v-.25h22.501S29.7937,27.38678,29.7937,26.59528Z"/></g></svg>