<svg xmlns="http://www.w3.org/2000/svg" viewBox="0 0 40 40"><defs><style>.cls-1{fill:#fff;}.cls-2{fill:none;stroke:#fff;stroke-width:1.5px;}</style></defs><g id="E345_BC_Card3"><path class="cls-1" d="M32.13254,33.84458c.20606.083.43261.16309.68164.24023s.51367.14454.79492.20313.57715.10547.88868.14062a8.54215,8.54215,0,0,0,.959.05274,4.18393,4.18393,0,0,0,1.168-.14844,2.51583,2.51583,0,0,0,.85351-.418,1.78537,1.78537,0,0,0,.52539-.64844,1.94182,1.94182,0,0,0,.17969-.84375,2.17916,2.17916,0,0,0-.18554-.91015,1.88069,1.88069,0,0,0-.55469-.70313,2.62522,2.62522,0,0,0-.92383-.45117A4.7512,4.7512,0,0,0,35.22243,30.2H34.12079V28.95h1.10156a4.05478,4.05478,0,0,0,1.08007-.13086,2.14833,2.14833,0,0,0,.78907-.38867,1.665,1.665,0,0,0,.48437-.64063,2.21635,2.21635,0,0,0,.166-.88672,1.81377,1.81377,0,0,0-.07812-.54492,1.60537,1.60537,0,0,0-.2207-.44922,1.55852,1.55852,0,0,0-.34961-.35351,1.9827,1.9827,0,0,0-.46485-.252,2.88927,2.88927,0,0,0-.56445-.15039,3.93768,3.93768,0,0,0-.65039-.05078,7.01253,7.01253,0,0,0-.85547.05078,7.71134,7.71134,0,0,0-.80274.14063,6.70236,6.70236,0,0,0-.72071.209,5.00684,5.00684,0,0,0-.59765.252v-1.3086q.16845-.08641.375-.16992t.44531-.1582c.15918-.04981.3252-.09375.5-.13282s.35449-.07128.541-.09765.377-.04688.57226-.0625.39356-.02344.59375-.02344a6.28234,6.28234,0,0,1,1.63868.19336,3.32111,3.32111,0,0,1,1.19922.57617,2.4461,2.4461,0,0,1,.73632.95117,3.23385,3.23385,0,0,1,.25,1.31446,3.0967,3.0967,0,0,1-.10742.82031,2.69,2.69,0,0,1-.31836.72656,2.86,2.86,0,0,1-.52148.61328,3.2829,3.2829,0,0,1-.7168.48047,3.62681,3.62681,0,0,1,.92578.498,2.9874,2.9874,0,0,1,.6582.67969,2.83447,2.83447,0,0,1,.39453.832,3.39365,3.39365,0,0,1,.13086.94726,3.50285,3.50285,0,0,1-.11718.918,2.86466,2.86466,0,0,1-.93946,1.47266,3.48368,3.48368,0,0,1-.82422.50781,4.77661,4.77661,0,0,1-1.06054.32422,6.94573,6.94573,0,0,1-1.30078.11328c-.36426,0-.708-.01465-1.0293-.043a8.70986,8.70986,0,0,1-.90234-.125,6.29248,6.29248,0,0,1-.77735-.20117,4.44375,4.44375,0,0,1-.65039-.27148Z"/><path class="cls-2" d="M33.03652,14.34294S29.56494,7.262,28.35394,7.083c-4.069-.599-16.103-.597-19.632,0-1.207.204-4.92155,7.2599-4.92155,7.2599"/><path class="cls-2" d="M13.63694,24.566c-2.409-.119-3.243-4.944-3.243-4.944l1.853-2.06h12.582l1.853,2.06s-.834,4.825-3.243,4.944Z"/><path class="cls-1" d="M33.12712,18.50953c-1.03873,1.08157-2.67326,0-2.67326,0H27.9796L26.2512,16.7l7.32178-.4996A2.10436,2.10436,0,0,1,33.12712,18.50953Z"/><path class="cls-1" d="M6.62205,18.50953s-1.63453,1.08157-2.67326,0a2.10439,2.10439,0,0,1-.44587-2.30917L10.8247,16.7,9.0962,18.50953Z"/><path class="cls-1" d="M29.7937,26.59528a4.97385,4.97385,0,0,1,.07959-.78962H5.78809v1.75a1.5617,1.5617,0,0,1-.01465.23438,1.41917,1.41917,0,0,1-.23535.01562h-3a.326.326,0,0,1-.13282-.01855c-.166-.14453-.1416-1.06738-.1289-1.56348.00586-.2207.01172-.44531.01172-.668,0-2.56543.01367-7.42382.0166-8.64648A10.58588,10.58588,0,0,1,5.15918,14.4873c1.94336-.21191,24.8418-.35742,26.72266.07715a10.73941,10.73941,0,0,1,2.88867,2.3545l.002.77246c.0025.94464.00647,2.4104.00983,3.905l.01141-.00116a4.946,4.946,0,0,1,1.48914.251c-.00342-1.58117-.00775-3.16058-.01038-4.15881l-.002-.92285a1.07224,1.07224,0,0,0-.26172-.70606,12.22653,12.22653,0,0,0-3.47168-2.8457l-.09766-.04492c-1.18164-.44336-26.64453-.53418-27.80273-.09863l-.10547.04882a12.06176,12.06176,0,0,0-3.47656,2.95118,1.067,1.067,0,0,0-.249.68847C.80273,17.625.78809,22.85742.78809,25.55566c0,.209-.00586.4209-.01075.62891A3.56553,3.56553,0,0,0,1.33008,28.833a1.62461,1.62461,0,0,0,1.208.47265h3a1.55122,1.55122,0,0,0,1.75-1.75v-.25h22.501S29.7937,27.38678,29.7937,26.59528Z"/></g></svg>