<?xml version="1.0" encoding="UTF-8"?>
<svg id="Icon" xmlns="http://www.w3.org/2000/svg" viewBox="0 0 40 40">
  <defs>
    <style>
      .cls-1, .cls-2 {
        fill: #fff;
      }

      .cls-3, .cls-4, .cls-5 {
        fill: none;
        stroke: #fff;
        stroke-miterlimit: 10;
      }

      .cls-6 {
        opacity: .45;
      }

      .cls-2 {
        opacity: .15;
      }

      .cls-4 {
        stroke-width: 1.2px;
      }

      .cls-5 {
        stroke-width: 1.2px;
      }
    </style>
  </defs>
  <path class="cls-2" d="M40,19.99992l-.00622,5.47796-.01851,1.74794-.0308,1.26797-.04341,1.029-.0557,.87934-.0683,.77432-.0809,.69482-.09366,.63196-.10642,.58016-.11964,.53628-.13271,.49832-.14609,.46503-.15962,.43516-.17363,.40824-.18778,.38335-.20225,.36048-.21719,.33916-.23259,.31909-.24862,.30027-.26495,.28222-.28222,.26495-.30027,.24862-.31909,.23259-.33916,.21719-.36048,.20225-.3835,.18778-.40809,.17363-.43516,.15978-.46503,.14609-.49848,.13271-.53628,.11949-.58,.10642-.63196,.09366-.69482,.0809-.77432,.0683-.87949,.0557-1.02885,.04341-1.26797,.0308-1.74794,.01851-5.53926,.00622-5.41651-.00622-1.74794-.01851-1.26797-.0308-1.029-.04341-.87949-.0557-.77416-.0683-.69497-.0809-.63181-.09366-.58016-.10642-.53628-.11949-.49832-.13271-.46503-.14609-.43516-.15978-.40824-.17363-.38335-.18778-.36048-.20225-.33916-.21719-.31925-.23259-.30011-.24862-.28222-.26495-.26495-.28222-.24862-.30027-.23259-.31909-.21719-.33916-.20241-.36048-.18778-.38335-.17347-.40824-.15978-.43516-.14609-.46503-.13271-.49832-.11949-.53644-.10642-.58-.09366-.63196-.0809-.69482-.0683-.77432-.05585-.87934-.04325-1.029-.03096-1.26797-.01836-1.74809L0,19.91902l.00622-5.3969,.01836-1.74794,.03096-1.26797,.04325-1.029,.05585-.87934,.0683-.77432,.0809-.69497,.09366-.63181,.10642-.58016,.11949-.53628,.13271-.49832,.14609-.46503,.15978-.43516,.17363-.40824,.18763-.38335,.20241-.36048,.21719-.33916,.23259-.31909,.24862-.30027,.26495-.28222,.28222-.26495,.30027-.24862,.31909-.23259,.33916-.21719,.36048-.20225,.38335-.18794,.40824-.17347,.43516-.15978,.46503-.14609,.49832-.13255,.53628-.11964,.58016-.10642,.63181-.09366,.69497-.0809,.77432-.0683,.87934-.0557,1.029-.04341,1.26797-.0308,1.74809-.01851L20.09218,0l5.3857,.00622,1.74794,.01851,1.26797,.0308,1.029,.04341,.87934,.0557,.77432,.0683,.69482,.0809,.63196,.09366,.58016,.10642,.53628,.11964,.49832,.13255,.46503,.14609,.43516,.15978,.40809,.17363,.3835,.18778,.36048,.20225,.33916,.21719,.31909,.23259,.30027,.24862,.28222,.26495,.26495,.28222,.24862,.30027,.23259,.31909,.21719,.33916,.20225,.36048,.18778,.3835,.17363,.40809,.15962,.43516,.14609,.46503,.13271,.49832,.11964,.53644,.10642,.58,.09366,.63196,.0809,.69482,.0683,.77432,.0557,.87949,.04341,1.029,.0308,1.26797,.01851,1.74794,.00622,5.47765Z"/>
  <g class="cls-6">
    <path class="cls-1" d="M20.09215,1l5.37514,.00616,1.73425,.01829,1.2501,.0302,1.00794,.0423,.85468,.05383,.74654,.06546,.66387,.07681,.59816,.08805,.54282,.09883,.49696,.11002,.45568,.1202,.42006,.13078,.41155,.15111,.36034,.15331,.33469,.16389,.31055,.17424,.28932,.18527,.26976,.19663,.25245,.20902,.23653,.22206,.22206,.23653,.20902,.25245,.19663,.26976,.18527,.28932,.17424,.31055,.16389,.33469,.15382,.36155,.13514,.36537,.1338,.42267,.12301,.45865,.11208,.49921,.10079,.54615,.08957,.60102,.07806,.66704,.06643,.74966,.05459,.85843,.04281,1.01113,.03057,1.25429,.01846,1.73848,.00622,5.47537-.00616,5.46851-.01829,1.73425-.0302,1.2501-.0423,1.00794-.05383,.85468-.06546,.74654-.07681,.66387-.08805,.59816-.09883,.54282-.10995,.49668-.12042,.45596-.13088,.42034-.15087,.41127-.15337,.36064-.16376,.3343-.17429,.31064-.18527,.28932-.19663,.26976-.20902,.25245-.22206,.23653-.23653,.22206-.25245,.20902-.26976,.19663-.28932,.18527-.31055,.17424-.33469,.16389-.36166,.15387-.36526,.13524-.42259,.13378-.45869,.12299-.49925,.11197-.54615,.10079-.60102,.08957-.66704,.07806-.74966,.06643-.85844,.05459-1.01097,.04281-1.25428,.03057-1.73847,.01846-5.53699,.00622-5.40706-.00616-1.73425-.01829-1.2501-.0302-1.00795-.0423-.85482-.05383-.74641-.06546-.66397-.0768-.59804-.08806-.54308-.09889-.49642-.10974-.45596-.12042-.42006-.13078-.41146-.15108-.36073-.15341-.3343-.16376-.31064-.17429-.28943-.18534-.26971-.19649-.25237-.20907-.23656-.22208-.22206-.23653-.20902-.25245-.19663-.26976-.18534-.28943-.17446-.31071-.16436-.33554-.14387-.33562-.14447-.39018-.1338-.42267-.12295-.45839-.11199-.49947-.10079-.54615-.08957-.60102-.07806-.66704-.06644-.74985-.05473-.85792-.04267-1.01143-.03072-1.25406-.0183-1.73871-.00622-5.55644,.00616-5.38755,.01812-1.73403,.03038-1.25039,.04212-1.0076,.054-.85486,.06546-.74656,.0768-.66397,.08806-.59804,.09889-.54308,.10974-.49642,.12042-.45596,.13078-.42006,.15111-.41153,.15347-.36086,.16346-.33395,.17445-.31068,.18534-.28942,.19663-.26976,.20902-.25245,.22206-.23653,.23653-.22206,.25245-.20902,.26976-.19663,.28932-.18527,.31082-.17439,.33565-.16455,.33551-.14383,.39018-.14447,.42239-.13373,.45899-.12294,.49896-.11206,.54638-.10081,.6008-.08956,.66722-.07806,.74967-.06643,.85826-.05459,1.01114-.04281,1.25428-.03057,1.73862-.01846,5.56876-.00622m.00003-1l-5.56991,.00622-1.74809,.01852-1.26797,.0308-1.02901,.04341-.87933,.0557-.77432,.0683-.69498,.0809-.63181,.09366-.58015,.10641-.53629,.11964-.49832,.13256-.46503,.14609-.43515,.15978-.40824,.17347-.38335,.18794-.36048,.20225-.33916,.21719-.3191,.23259-.30027,.24862-.28222,.26495-.26495,.28222-.24862,.30027-.23259,.3191-.21719,.33916-.20241,.36048-.18763,.38334-.17362,.40825-.15978,.43515-.14609,.46503-.13271,.49832-.11949,.53629-.10641,.58015-.09366,.63181-.0809,.69498-.0683,.77432-.05586,.87933-.04325,1.02901-.03096,1.26797-.01836,1.74794-.00622,5.3969,.00622,5.55871,.01836,1.74809,.03096,1.26797,.04325,1.02901,.05586,.87933,.0683,.77432,.0809,.69482,.09366,.63197,.10641,.58,.11949,.53644,.13271,.49832,.14609,.46503,.15978,.43515,.17347,.40824,.18778,.38335,.20241,.36048,.21719,.33916,.23259,.3191,.24862,.30027,.26495,.28222,.28222,.26495,.30012,.24862,.31925,.23259,.33916,.21719,.36048,.20225,.38335,.18779,.40824,.17362,.43515,.15978,.46503,.14609,.49832,.13271,.53629,.11949,.58015,.10641,.63181,.09366,.69498,.0809,.77416,.0683,.87949,.0557,1.02901,.04341,1.26797,.0308,1.74794,.01852,5.4165,.00622,5.53926-.00622,1.74794-.01852,1.26797-.0308,1.02885-.04341,.87949-.0557,.77432-.0683,.69482-.0809,.63197-.09366,.58-.10641,.53628-.11949,.49848-.13271,.46503-.14609,.43515-.15978,.40809-.17362,.3835-.18779,.36048-.20225,.33916-.21719,.3191-.23259,.30027-.24862,.28222-.26495,.26495-.28222,.24862-.30027,.23259-.3191,.21719-.33916,.20225-.36048,.18779-.38335,.17362-.40824,.15963-.43515,.14609-.46503,.13271-.49832,.11964-.53629,.10641-.58015,.09366-.63197,.0809-.69482,.0683-.77432,.0557-.87933,.04341-1.02901,.0308-1.26797,.01852-1.74794,.00622-5.47796-.00622-5.47765-.01852-1.74793-.0308-1.26798-.04341-1.029-.0557-.87949-.0683-.77432-.0809-.69482-.09366-.63197-.10641-.58-.11964-.53644-.13271-.49832-.14609-.46503-.15963-.43515-.17362-.40809-.18779-.3835-.20225-.36048-.21719-.33916-.23259-.3191-.24862-.30027-.26495-.28222-.28222-.26495-.30027-.24862-.3191-.23259-.33916-.21719-.36048-.20225-.3835-.18779-.40809-.17362-.43515-.15978-.46503-.14609-.49832-.13256-.53629-.11964-.58015-.10641-.63197-.09366-.69482-.0809-.77432-.0683-.87933-.0557-1.02901-.04341-1.26797-.0308-1.74794-.01852-5.3857-.00622h0Z"/>
  </g>
  <path class="cls-4" d="M10.13086,16.72741c.1123,2.69808,1.30574,5.23743,3.31132,7.04571,1.64475,1.82318,2.55893,4.18915,2.56736,6.64458v1.26127c-.03073,.96894,.72984,1.77934,1.69878,1.81007,.02828,.0009,.05656,.00111,.08485,.00064h4.43789c.9693,.01613,1.76814-.75656,1.78427-1.72586,.00046-.02828-.00064-1.34613-.00064-1.34613,.00842-2.45543,.9226-4.8214,2.56735-6.64458,4.04899-3.64046,4.38465-9.87234,.75012-13.92664-1.95139-1.93127-4.56493-3.04705-7.30944-3.12056-5.40753-.05655-9.83705,4.28128-9.8936,9.68881-.00109,.10423-.00052,.20848,.00172,.3127Z"/>
  <line class="cls-3" x1="15.96107" y1="30.542" x2="24.22764" y2="30.542"/>
  <line class="cls-3" x1="15.63118" y1="27.60092" x2="24.55953" y2="27.60092"/>
  <line class="cls-3" x1="14.38606" y1="25.40145" x2="25.82689" y2="25.40145"/>
  <path class="cls-5" d="M17.74347,25.06645s-1.96063-7.1967-1.96063-8.34846,.35747-2.09706,.91932-2.09706,1.08859,2.36184,1.76505,2.36184,.98644-2.64457,1.61576-2.64457h-.00006c.62933,0,.9393,2.64457,1.61576,2.64457s1.20321-2.36184,1.76505-2.36184,.91932,.9453,.91932,2.09706-1.96063,8.34846-1.96063,8.34846"/>
</svg>