<svg xmlns="http://www.w3.org/2000/svg" viewBox="0 0 40 40"><defs><style>.cls-1{fill:#fff;}</style></defs><g id="E3B2_sirius_satellite"><g id="V2-2" data-name="V2"><g id="_1" data-name="1"><path class="cls-1" d="M7.11823,2.67531,16.994,12.55623l-1.68067,1.68089L14.253,15.29756l.0014.00137-.00781.00776-1.68689,1.68646L2.68347,7.11172,7.11823,2.67531m17.77532,9.8934a2.5351,2.5351,0,0,1,1.79017,4.32787l-4.34546,4.35061-.007.007-.001-.001-1.061,1.06153-4.37232,4.37449a2.53395,2.53395,0,0,1-3.58172-3.58537L17.679,18.74l1.06036-1.0604-.00146-.00148.00823-.00827,4.35627-4.3585a2.516,2.516,0,0,1,1.79113-.74268m2.54676,10.43858,9.87561,9.88082-4.43476,4.4371-9.87567-9.88086L24.702,25.7476l.00769-.00764.00055.00059,1.061-1.06219,1.66913-1.67107M7.11792.99013a1.04609,1.04609,0,0,0-.74292.307L1.30627,6.36771a1.05676,1.05676,0,0,0,0,1.488L11.81641,18.37131a1.05317,1.05317,0,0,0,1.48639,0l2.00433-2.00382,1.31122,1.31189L12.25452,22.0432a4.034,4.034,0,1,0,5.70337,5.7064l4.37225-4.37448,1.3111,1.31191L21.62787,26.7007a1.05434,1.05434,0,0,0,0,1.4872L32.138,38.70351a1.05463,1.05463,0,0,0,1.48639,0l5.06866-5.07141a1.0552,1.0552,0,0,0,0-1.488L28.18378,21.6293a1.05392,1.05392,0,0,0-1.48719,0l-1.98669,1.989-1.31036-1.3111L27.745,17.9566A4.03372,4.03372,0,1,0,22.0415,12.251l-4.35626,4.3585L16.374,15.29771l1.99756-1.99781a1.05469,1.05469,0,0,0-.00079-1.488L7.86151,1.2971a1.04835,1.04835,0,0,0-.74359-.307Z"/></g><path class="cls-1" d="M14.79523,33.01a8.12239,8.12239,0,0,1-7.80561-7.813l-1.49719.05487A9.62185,9.62185,0,0,0,14.739,34.50714Z"/><path class="cls-1" d="M14.90063,30.20447A5.3106,5.3106,0,0,1,9.795,25.09424l-1.507.05517a6.82264,6.82264,0,0,0,6.556,6.56226Z"/></g></g></svg>