<svg xmlns="http://www.w3.org/2000/svg" viewBox="0 0 40 40"><defs><style>.cls-1{fill:none;stroke:#fff;stroke-width:1.5px;}</style></defs><g id="E432_car_smartcard"><g id="V2-6" data-name="V2"><rect class="cls-1" x="1.5" y="7.5" width="37" height="24" rx="2"/><path class="cls-1" d="M9.5,11.5A4.5,4.5,0,1,1,5,16,4.5,4.5,0,0,1,9.5,11.5Z"/><path class="cls-1" d="M15.5,11.5A4.5,4.5,0,1,1,11,16,4.5,4.5,0,0,1,15.5,11.5Z"/><path class="cls-1" d="M21.5,11.5A4.5,4.5,0,1,1,17,16,4.5,4.5,0,0,1,21.5,11.5Z"/><path class="cls-1" d="M27.5,11.5A4.5,4.5,0,1,1,23,16,4.5,4.5,0,0,1,27.5,11.5Z"/></g></g></svg>