<svg xmlns="http://www.w3.org/2000/svg" viewBox="0 0 40 40"><defs><style>.cls-1{fill:#fff;fill-rule:evenodd;}</style></defs><g id="E48D_performance_wet"><path class="cls-1" d="M22.6631,5.282a.78.78,0,0,1,1.00921-.46344A.79383.79383,0,0,1,24.122,5.83517a12.29881,12.29881,0,0,0-.39027,6.01021,2.78275,2.78275,0,0,1-.17009,1.28472,2.85276,2.85276,0,1,1-5.33094-2.03325,2.58082,2.58082,0,0,1,.74656-1.07193A12.05162,12.05162,0,0,0,22.6631,5.282Z"/><path class="cls-1" d="M10.62644,25.16861a.78.78,0,0,1,1.00922-.46345.79382.79382,0,0,1,.44972,1.01662,12.29909,12.29909,0,0,0-.39027,6.01022,2.7826,2.7826,0,0,1-.17009,1.28471,2.85276,2.85276,0,1,1-5.33094-2.03324,2.58088,2.58088,0,0,1,.74657-1.07194A12.05155,12.05155,0,0,0,10.62644,25.16861Z"/><path class="cls-1" d="M31.64642,25.16861a.78.78,0,0,1,1.00922-.46345.79382.79382,0,0,1,.44972,1.01662,12.29884,12.29884,0,0,0-.39027,6.01022,2.78273,2.78273,0,0,1-.17009,1.28471,2.85276,2.85276,0,1,1-5.33094-2.03324,2.58078,2.58078,0,0,1,.74657-1.07194A12.05155,12.05155,0,0,0,31.64642,25.16861Z"/></g></svg>