<svg id="E48F_Torque_Rear_1" xmlns="http://www.w3.org/2000/svg" viewBox="0 0 40 40"><defs><style>.cls-1,.cls-2{fill:#fff;}.cls-1{fill-rule:evenodd;}</style></defs><path class="cls-1" d="M32.23169,10.87333c-.64243.79482-4.31563,4.2472-7.35419,7.08785l-1.089.99187L20.1132,22.45612A11.71884,11.71884,0,0,1,17.28854,24.849c-.625.24125-2.117,1.60559-3.6942.78892a14.7642,14.7642,0,0,1-3.462-2.86264,14.77482,14.77482,0,0,1-2.56342-3.69058c-.68082-1.63913.80275-3.01262,1.09646-3.61418.40787-.836,1.81127-1.90156,3.25509-3.16348,1.40533-1.22846,10.724-9.79467,11.96345-10.584a4.4382,4.4382,0,0,1,2.104-.69061c1.93517-.1306,4.7604,2.78728,4.7604,2.78728s2.76695,3.16809,2.36278,5.07793A4.45133,4.45133,0,0,1,32.23169,10.87333ZM24.59744,3.04715c-.10083.07582-.224.1741-.37659.29753-.3385.27575-.78174.65144-1.29433,1.09839-1.04938.91057-2.38693,2.10279-3.74325,3.32551-2.73843,2.45995-5.55592,5.03172-6.27932,5.665-.71428.623-1.41874,1.19761-1.99411,1.72109a4.6008,4.6008,0,0,0-.90067.97048,6.70243,6.70243,0,0,1-.51658.79919,5.4287,5.4287,0,0,0-.41291.65131,1.03563,1.03563,0,0,0-.13.93447,13.52261,13.52261,0,0,0,2.28313,3.25324A13.52666,13.52666,0,0,0,14.28338,24.311a1.03882,1.03882,0,0,0,.94207-.05124,5.4291,5.4291,0,0,0,.68362-.3569,6.52253,6.52253,0,0,1,.83965-.44782,3.63006,3.63006,0,0,0,.81317-.60724c.33162-.29744.68792-.64748,1.06589-1.023l5.25407-4.979c1.603-1.49832,3.37909-3.16508,4.79062-4.51722.69972-.67137,1.30924-1.26557,1.76078-1.72008.21092-.21273.4488-.43893.57775-.57994a2.92921,2.92921,0,0,0,.67423-1.55288c.12328-.799-1.57233-3.09758-2.03838-3.64326-.49077-.495-2.53261-2.28582-3.38645-2.33624A2.96158,2.96158,0,0,0,24.59744,3.04715Z"/><path class="cls-1" d="M15.91672,17.44776a18.39131,18.39131,0,0,0,2.04953,1.93866l-2.41848,2.98716a10.47663,10.47663,0,0,1-2.64016-2.15724A10.46173,10.46173,0,0,1,10.98,17.40574L14.15838,15.245A18.35165,18.35165,0,0,0,15.91672,17.44776Z"/><path class="cls-1" d="M20.19029,8.0389c-.49923.82553-1.18385,2.20445-1.27783,2.34426A29.10514,29.10514,0,0,1,15.696,13.449c-.89.65808-3.3104,1.81394-4.01632,2.19783l.07812-.07182c.5448-.49728,1.21287-1.04047,1.88865-1.63157.68815-.60065,3.36573-3.04654,5.9684-5.3862Z"/><path class="cls-1" d="M25.76482,8.40276a9.08569,9.08569,0,0,1,2.09066,3.27832l-3.50263,2.19718A11.18488,11.18488,0,0,0,22.55511,11.354a11.18527,11.18527,0,0,0-2.36482-2.00289l2.48287-3.30625A9.08561,9.08561,0,0,1,25.76482,8.40276Z"/><path class="cls-1" d="M25.09243,14.51454c-2.54946,2.39753-5.21106,4.86081-5.86724,5.49622-.64563.62389-1.24287,1.24411-1.784,1.74534l-.07812.07183c.44167-.67128,1.79624-2.9864,2.52655-3.8181a29.104,29.104,0,0,1,3.32448-2.94829c.14719-.08193,1.5786-.64864,2.44306-1.077Z"/><path class="cls-2" d="M8.31616,23.752a18.95139,18.95139,0,0,1-1.4096-1.7973A68.84043,68.84043,0,0,0,7.28168,34.212l1.49487-.119A68.93319,68.93319,0,0,1,8.31616,23.752Z"/><path class="cls-2" d="M18.01367,26.71289c-.02637.01563-.11523.07129-.21679.13184-.09943.05908-.2193.12872-.34784.20135a59.68578,59.68578,0,0,0,.55633,6.31232l1.49622-.11908a56.81451,56.81451,0,0,1-.57929-7.02557A4.67621,4.67621,0,0,1,18.01367,26.71289Z"/><path class="cls-2" d="M19.24878,40H20.793c-.0639-.26862-.13483-.52991-.19635-.80078-.26013-1.14465-.47955-2.27014-.68018-3.38471l-1.50067.11945c.21051,1.18475.44171,2.381.718,3.59729C19.1698,39.68976,19.212,39.84222,19.24878,40Z"/><path class="cls-2" d="M9.70807,40q-.31522-1.67066-.56995-3.32758L7.64,36.79163Q7.88052,38.389,8.17822,40Z"/></svg>