<svg xmlns="http://www.w3.org/2000/svg" viewBox="0 0 40 40"><defs><style>.cls-1,.cls-2{fill:#fff;}.cls-1{fill-rule:evenodd;}</style></defs><g id="E490_Torque_Rear_2"><path class="cls-1" d="M35.78,11.39332c-.8266.601-5.26956,2.98246-8.94093,4.93776l-1.309.67547-4.45817,2.42988a11.71859,11.71859,0,0,1-3.34864,1.57831c-.66619.07087-2.461,1.00153-3.77239-.19628a14.76412,14.76412,0,0,1-2.601-3.66263,14.77471,14.77471,0,0,1-1.51844-4.22917c-.23237-1.75962,1.55668-2.7013,1.99638-3.20609.61075-.70163,2.24249-1.36668,3.96421-2.21092C17.46792,6.68774,28.68951.83175,30.09131.39091A4.43825,4.43825,0,0,1,32.30242.26966c1.90282.37581,3.87452,3.92663,3.87452,3.92663s1.85052,3.77735.96482,5.517A4.45146,4.45146,0,0,1,35.78,11.39332Zm-5.343-9.5385c-.117.04708-.26148.11-.44088.18968-.39843.17851-.92395.42638-1.53493.72507-1.24964.60722-2.85065,1.41171-4.4777,2.24079-3.28277,1.66547-6.67089,3.41843-7.5338,3.84242-.85142.4164-1.68081.78864-2.37227,1.145a4.60076,4.60076,0,0,0-1.12156.70365,6.70342,6.70342,0,0,1-.7062.63786,5.42868,5.42868,0,0,0-.56772.52192,1.03559,1.03559,0,0,0-.3679.86877A13.52241,13.52241,0,0,0,12.67518,16.464a13.52683,13.52683,0,0,0,2.28536,3.25169,1.03883,1.03883,0,0,0,.92311.19487,5.42922,5.42922,0,0,0,.75279-.16738,6.52332,6.52332,0,0,1,.92708-.2147,3.6305,3.6305,0,0,0,.94284-.37555c.39742-.20123.83232-.44689,1.29476-.71153l6.36569-3.44584c1.93683-1.03124,4.08441-2.1803,5.79834-3.12.84991-.4669,1.59269-.88267,2.14667-1.2045.25888-.15075.54728-.3075.7084-.41024A2.92921,2.92921,0,0,0,35.87416,8.936c.3263-.73969-.71508-3.3994-1.02364-4.04729-.34559-.6053-1.85305-2.86449-2.66458-3.13465A2.96173,2.96173,0,0,0,30.437,1.85482Z"/><path class="cls-1" d="M18.31815,13.511a18.38867,18.38867,0,0,0,1.47654,2.40391l-3.11051,2.25763a10.47647,10.47647,0,0,1-1.99027-2.76821A10.46177,10.46177,0,0,1,13.56131,12.19l3.63-1.26239A18.353,18.353,0,0,0,18.31815,13.511Z"/><path class="cls-1" d="M24.8859,5.53262c-.69627.6678-1.71512,1.82194-1.84215,1.93259a29.10368,29.10368,0,0,1-3.90154,2.12662c-1.03018.40472-3.6676.89322-4.44893,1.08087l.09407-.0491c.65514-.339,1.44124-.69027,2.24721-1.08586.82039-.4016,4.04074-2.06928,7.16119-3.65379Z"/><path class="cls-1" d="M30.17527,7.32994a9.08569,9.08569,0,0,1,1.16879,3.70839l-3.95265,1.21348a11.18547,11.18547,0,0,0-1.08147-2.90419A11.18536,11.18536,0,0,0,24.54555,6.7999L27.801,4.2508A9.08534,9.08534,0,0,1,30.17527,7.32994Z"/><path class="cls-1" d="M27.94064,13.05815c-3.08408,1.6542-6.2935,3.34282-7.092,3.78628-.78536.43508-1.523.87916-2.17569,1.22287l-.09407.04911c.60067-.53375,2.50937-2.41829,3.43041-3.03209a29.10373,29.10373,0,0,1,3.97542-1.9851c.1634-.041,1.69282-.217,2.63879-.40643Z"/><path class="cls-2" d="M15.99261,23.3869a5.10127,5.10127,0,0,1-.75384.01892,43.92822,43.92822,0,0,0-.25183,8.13489l.74658-.064A42.6765,42.6765,0,0,1,15.99261,23.3869Z"/><path class="cls-2" d="M17.94019,23.00293c-.02955.00824-.12977.03894-.2436.07111-.03942.011-.0913.02447-.13775.03692a40.30316,40.30316,0,0,0-.33252,8.23755l.7464-.064a39.18908,39.18908,0,0,1,.38342-8.37323A4.19991,4.19991,0,0,1,17.94019,23.00293Z"/><path class="cls-2" d="M15.97223,34.32666l-.74689.06409c.202,1.84247.49524,3.71838.88513,5.60925h.77314C16.48022,38.08545,16.17706,36.18854,15.97223,34.32666Z"/><path class="cls-2" d="M17.46582,34.19849A57.37329,57.37329,0,0,0,18.41418,40h.76893a57.26424,57.26424,0,0,1-.9704-5.8656Z"/><path class="cls-2" d="M8.24042,34.99017l-.748.06421c.20728,1.63288.4859,3.28577.799,4.94562h.76477C8.73462,38.31775,8.45111,36.64368,8.24042,34.99017Z"/><path class="cls-2" d="M9.73615,34.86188c.21746,1.69452.51306,3.41186.84948,5.13812h.76471c-.34222-1.7478-.64526-3.48743-.86621-5.20233Z"/><path class="cls-2" d="M10.26715,19.31262c-.28046-.46277-.488-.84466-.60724-1.072A61.48235,61.48235,0,0,0,9.44159,32.0166l.7464-.064A62.323,62.323,0,0,1,10.26715,19.31262Z"/><path class="cls-2" d="M8.53351,15.73541a14.00916,14.00916,0,0,1-.47009-1.47772A60.20242,60.20242,0,0,0,7.20264,32.2088l.7464-.06409A60.7377,60.7377,0,0,1,8.53351,15.73541Z"/></g></svg>