<svg xmlns="http://www.w3.org/2000/svg" viewBox="0 0 40 40"><defs><style>.cls-1,.cls-2{fill:#fff;}.cls-2{fill-rule:evenodd;}.cls-3{fill:none;stroke:#fff;stroke-width:1.5px;}</style></defs><g id="E630_charging_station_auto_added"><g id="V2-6" data-name="V2"><path class="cls-1" d="M21.93067,6.35948v5.57135a21.91221,21.91221,0,0,0,3.02285.33428c.97243.00939,3.17889-.08914,3.17889-.08914l-.04129-5.7942-5.90365-.02229Z"/><path class="cls-1" d="M23.49981,17.8291H28.027c-.00312-.2041-.00592-.33392-.00824-.3385a24.46772,24.46772,0,0,1-6.10413-.20642l.00159.91077A3.692,3.692,0,0,1,23.49981,17.8291Z"/><path class="cls-1" d="M4.29656,8.74435s1.64134-.40171,3.15864-.878a5.895,5.895,0,0,1,3.07847-.10321V13.254A17.51888,17.51888,0,0,0,8.40473,13.192a13.44232,13.44232,0,0,0-3.90136,1.03211Z"/><path class="cls-1" d="M16.22811,4.43976c-1.48623-.68119-3.32338-1.672-3.96329-1.87843-.70423-.22717-1.73415-.49771-1.73415-.49771l.003,5.69953a13.01609,13.01609,0,0,1,2.62676.67755,30.33548,30.33548,0,0,1,3.04,1.55744C16.22106,9.9775,16.22811,4.43976,16.22811,4.43976Z"/><path class="cls-1" d="M16.23085,10.0579l1.1979.528A23.96577,23.96577,0,0,0,20.8833,11.7634l1.04065.17344.00082,5.33774-.83315-.216a31.73186,31.73186,0,0,1-4.87552-1.78974V15.238Z"/><rect class="cls-1" x="0.34551" y="2.94714" width="1.5" height="34.051"/><path class="cls-2" d="M10.53067,13.254a10.878,10.878,0,0,1,2.45662.578c.75572.30941,2.80734,1.17661,3.24082,1.40367v5.75916l-5.69744-1.52752Z"/><path class="cls-1" d="M27.37317,17.8291h1.49927V5.50006l-.16419.01563-.65625.0625c-.81531.07727-1.6134.11645-2.37207.11645A19.79919,19.79919,0,0,1,15.67786,2.94281C13.58911,1.86584,11.61621.84851,9.04541.84845a13.62784,13.62784,0,0,0-5.169,1.15924L3.50439,2.16l-.09314.03815V21.62054l.20691-.08477.82715-.33887a12.99137,12.99137,0,0,1,4.90174-1.11536,13.43688,13.43688,0,0,1,5.7644,1.64392,30.29533,30.29533,0,0,0,4.6908,1.78778l.18933.05134v-1.551l-.1084-.03125a29.49948,29.49948,0,0,1-4.1449-1.61981,14.84738,14.84738,0,0,0-6.37915-1.78644,13.40271,13.40271,0,0,0-4.44861.83917V3.2121a11.621,11.621,0,0,1,4.11975-.85492c2.23682,0,3.95838.8869,5.95179,1.91376a21.029,21.029,0,0,0,10.6488,2.92718c.56335,0,1.1488-.02026,1.74231-.06018V17.8291"/><path class="cls-2" d="M39,23h1l-.00856,1.77212a2.6176,2.6176,0,0,1-1.89774,2.48407H36.89807a2.62488,2.62488,0,0,1-1.89016-2.46984L35,23h1V21h1v2h1V21h1Z"/><path class="cls-2" d="M20,38.5H35V40H20Z"/><path class="cls-3" d="M31,27.5H24"/><path class="cls-3" d="M22.5,39.25V21.5a1,1,0,0,1,1-1h8a1,1,0,0,1,1,1V39.25"/><path class="cls-3" d="M32.5,28.5h1c.56188,0,1.09225.625,1,2v5h.0105c0,1.49814.5625,2,1.5,2H36c.9375,0,1.5-.50186,1.5-2V26.8"/></g></g></svg>