<?xml version="1.0" encoding="UTF-8"?><svg xmlns="http://www.w3.org/2000/svg" xmlns:xlink="http://www.w3.org/1999/xlink" viewBox="0 0 40 40"><defs><style>.e{fill:#fff;}.f{stroke-width:1.2px;}.f,.g{fill:none;stroke:#fff;stroke-miterlimit:10;}.h{fill:url(#b);}.g{stroke-width:1.5px;}</style><radialGradient id="b" cx="19.51317" cy="18.27237" fx="19.51317" fy="18.27237" r="17.875" gradientTransform="translate(-1.4915 .0214) scale(1.08003 .94615)" gradientUnits="userSpaceOnUse"><stop offset="0" stop-color="#fff" stop-opacity=".9"/><stop offset=".90099" stop-color="#fff" stop-opacity="0"/></radialGradient></defs><g id="a"><ellipse class="h" cx="19.58333" cy="17.3098" rx="19.30556" ry="16.91243"/></g><g id="c"><g id="d"><path class="g" d="M8.33048,19.68971c.04577,3.01497,1.53016,5.8817,3.73231,7.94147,1.85386,2.05497,2.76296,4.72174,2.77246,7.48934v1.42162c-.03464,1.09213,.82262,2.00556,1.91475,2.0402,.03187,.00101,.18506,.00125,.21694,.00072h5.1789c1.09253,.01818,1.99293-.85275,2.01111-1.94527,.00053-.03188,.00029-.06377-.00072-.09564v-1.42162c.0095-2.7676,.86313-5.43437,2.71699-7.48934,4.47926-4.19007,5.0355-11.21796,.84543-15.69721-2.05403-2.1958-5.53197-3.5173-8.23872-3.5173-6.43568,0-11.24254,5.14076-11.14945,11.27304Z"/><line class="f" x1="14.9222" y1="35.66019" x2="23.99056" y2="35.66019"/><line class="f" x1="14.56033" y1="32.62419" x2="24.35463" y2="32.62419"/><line class="f" x1="13.19442" y1="29.58819" x2="25.74494" y2="29.58819"/><path class="e" d="M24.33649,17.73652l-.76135-1.29697c-.14064-.44984-.59236-.6914-1.00894-.53952-.27596,.10061-.47902,.35592-.52944,.6657l-.41562,1.06152c-.14697,.37725-.34574,.59319-.54331,.59319s-.39634-.21594-.54331-.59319l-.41441-1.06152c-.16503-.41888-.39031-.65693-.64209-.66864-.24697,.01171-.47225,.24977-.63728,.66864l-.41441,1.06152c-.14697,.37725-.34575,.59319-.54331,.59319s-.39634-.21594-.54331-.59319l-.41562-1.06152c-.07611-.46762-.48886-.78008-.92191-.69789-.28687,.05445-.52331,.27371-.61648,.57171l-.76135,1.29697c-.486,.9325-.64467,2.02284-.44695,3.07135l1.63957,6.7073c.14392,.61395,.32132,1.21817,.53127,1.80951l.01686,.03252h1.41269l-.21281-.77528-1.77691-7.12227c-.23353-.80066-.24484-1.65763-.03253-2.46514,.06373-.15723,.20613-.26025,.36502-.26409,.45176,0,.81195,.83389,.91194,1.09013l.41562,1.06281c.12528,.32133,.28792,.51385,.43489,.51385,.14576,0,.3084-.19253,.43489-.51385l.4144-1.06281c.24697-.62961,.56982-.73759,.73968-.74669l-.00247-.06602h0l.01928,.06602c.16985,.0091,.49271,.11708,.73968,.74669l.4144,1.06281c.12649,.32133,.28913,.51385,.43489,.51385,.14697,0,.30963-.19253,.43489-.51385l.41562-1.06281c.09992-.25627,.46013-1.09013,.91194-1.09013,.15889,.00384,.3013,.10686,.36502,.26409,.21234,.80751,.20103,1.66449-.03253,2.46514l-1.77691,7.12227-.20134,.77528h1.40965l.01446-.04553c.09998-.32391,.45537-1.51031,.52644-1.7965l1.63838-6.7073c.19774-1.04851,.0391-2.13885-.44689-3.07135Z"/></g></g></svg>