<svg xmlns="http://www.w3.org/2000/svg" viewBox="0 0 40 40"><defs><style>.cls-1,.cls-2{fill:#fff;}.cls-1{fill-rule:evenodd;}</style></defs><g id="E76E_sxm_ip_loss"><g id="V1-5" data-name="V1"><path class="cls-1" d="M20,31.8A2.2,2.2,0,1,1,17.8,34,2.2,2.2,0,0,1,20,31.8Z"/><path class="cls-1" d="M19.87436,5.49733h.25128A2.07306,2.07306,0,0,1,22.1987,7.57039v17.841a2.07292,2.07292,0,0,1-2.07292,2.07292h-.25142a2.07306,2.07306,0,0,1-2.07306-2.07306V7.57039A2.07306,2.07306,0,0,1,19.87436,5.49733Z"/><path class="cls-2" d="M23.69824,23.624V25.2a9.26034,9.26034,0,0,1,3.041,2.14569L27.81152,26.334A10.67968,10.67968,0,0,0,23.69824,23.624Z"/><path class="cls-2" d="M16.30176,23.62073a10.67871,10.67871,0,0,0-4.11231,2.70251l1.07032,1.01367a9.261,9.261,0,0,1,3.042-2.141Z"/><path class="cls-2" d="M16.30176,14.86823a18.31,18.31,0,0,0-9.64649,5.41986L7.7334,21.294a16.8215,16.8215,0,0,1,8.56836-4.9065Z"/><path class="cls-2" d="M23.69824,14.86957V16.3902a16.81442,16.81442,0,0,1,8.544,4.88812l1.07715-1.00586A18.30709,18.30709,0,0,0,23.69824,14.86957Z"/><path class="cls-2" d="M23.27844,5.92548a3.52827,3.52827,0,0,1,.40937,1.54181,25.46675,25.46675,0,0,1,15.01727,8.04345l1.08984-.99219A26.92662,26.92662,0,0,0,23.27844,5.92548Z"/><path class="cls-2" d="M16.72229,5.92407A26.92661,26.92661,0,0,0,.20508,14.50781L1.29492,15.5a25.46323,25.46323,0,0,1,15.0174-8.03412A3.52775,3.52775,0,0,1,16.72229,5.92407Z"/></g></g></svg>