<svg xmlns="http://www.w3.org/2000/svg" viewBox="0 0 40 40"><defs><style>.cls-1{isolation:isolate;}.cls-2{fill:#fff;}</style></defs><g id="E782_radio_fm_source"><g class="cls-1"><path class="cls-2" d="M10.14058,36.72224v-11h6.65323v1.17941H11.58572v3.86462H16.381v1.17941H11.58572v4.77656Z"/><path class="cls-2" d="M28.44919,36.72224V29.0938c0-.2474.00349-.50964.01221-.78628.00873-.27707.02618-.54542.05062-.805-.10647.2522-.22777.51443-.36129.78627q-.20158.40776-.377.69726l-2.8641,4.647h-.92678L21.131,28.986c-.062-.10123-.12741-.21205-.19461-.332s-.13439-.24347-.20071-.37088-.13177-.257-.19722-.38921-.12479-.26268-.18065-.39139c.02618.27183.04364.54323.055.8142q.017.40578.01658.77711v7.62844H19.02261v-11H20.644L23.852,31.00756c.11694.19286.22513.38921.32289.58949s.1885.40667.274.61916a6.49568,6.49568,0,0,1,.27053-.6209,5.87659,5.87659,0,0,1,.33685-.59167l3.2088-5.2814h1.59437v11Z"/></g><path class="cls-2" d="M19.87274,14.16351a8.72983,8.72983,0,0,0-7.67987,4.74665l-.06933.13476,1.34033.66944.06787-.13135a7.23656,7.23656,0,0,1,6.34613-3.92084Z"/><path class="cls-2" d="M19.83167,2.25824A20.68373,20.68373,0,0,0,1.49316,13.56348l-.06836.13476,1.34034.67041.06738-.13232A19.1913,19.1913,0,0,1,19.83685,3.75708Z"/><path class="cls-2" d="M19.85217,8.20874A14.68509,14.68509,0,0,0,6.85693,16.24365l-.06836.13477,1.33985.67041.06787-.13233a13.19288,13.19288,0,0,1,11.66107-7.209Z"/><path class="cls-2" d="M21.98828,14.40088,21.866,14.3725l-.38721,1.34833-.02564.09411.15284.03467a7.38066,7.38066,0,0,1,1.59277.561l.12354.06006.76953-1.28418-.145-.07275A8.87517,8.87517,0,0,0,21.98828,14.40088Z"/><path class="cls-2" d="M27.01318,10.002A14.71736,14.71736,0,0,0,23.55664,8.644l-.04242-.01043-.41394,1.4411.06964.01709a13.25186,13.25186,0,0,1,3.08643,1.20166l.126.06738.76856-1.28418Z"/><path class="cls-2" d="M33.14355,16.24365A14.67121,14.67121,0,0,0,30.353,12.44824l-.1001-.09863-1.12158,1.00391.11523.11181a13.15428,13.15428,0,0,1,2.55713,3.45117l.06836.13233,1.33984-.67041Z"/><path class="cls-2" d="M27.80713,18.91016a8.61554,8.61554,0,0,0-1.92236-2.47168l-.1001-.08985-1.125,1.00733.1289.11133A7.13544,7.13544,0,0,1,26.46826,19.583l.06787.13135,1.34033-.66944Z"/><path class="cls-2" d="M30.08545,4.87354a20.76227,20.76227,0,0,0-4.9278-1.96216L24.744,4.35162a19.27788,19.27788,0,0,1,4.57,1.83149l.12647.06982.78076-1.3042Z"/><path class="cls-2" d="M38.50684,13.56348a20.64734,20.64734,0,0,0-3.69629-5.10254l-.09961-.10156-1.1211,1.00341.11133.11182A19.13709,19.13709,0,0,1,37.167,14.23633l.06836.13232,1.33985-.67041Z"/></g></svg>