<svg xmlns="http://www.w3.org/2000/svg" viewBox="0 0 40 40"><defs><style>.cls-1{fill:#fff;}.cls-2{isolation:isolate;}</style></defs><g id="E783_connect_app_radio_online"><g id="V1"><path class="cls-1" d="M27.80762,18.90967A8.73662,8.73662,0,0,0,20,14.15479h-.15039v1.499H20a7.24185,7.24185,0,0,1,6.46777,3.9292l.06836.13183,1.34082-.67041Z"/><path class="cls-1" d="M38.50684,13.56348A20.6905,20.6905,0,0,0,20,2.25244h-.15039v1.499H20A19.195,19.195,0,0,1,37.167,14.23633l.06836.13232,1.33985-.6709Z"/><path class="cls-1" d="M33.14355,16.24365A14.69079,14.69079,0,0,0,20,8.20361h-.15039v1.499H20A13.19638,13.19638,0,0,1,31.80371,16.9165l.06836.13233,1.33984-.67041Z"/><path class="cls-1" d="M13.14965,36.72224l-2.15994-7.39168c-.03264-.1083-.06824-.23143-.10385-.3689q-.05488-.20545-.10681-.44306c-.03362-.15824-.06725-.32142-.0989-.48955-.03263-.16813-.06131-.33626-.088-.50438-.02868.16812-.06033.33625-.093.50438q-.05044.25219-.10088.48955c-.03461.15824-.06923.30609-.10285.44306-.03462.13747-.06824.2606-.10187.3689l-2.153,7.39168H6.70047l-3.26069-11H4.80656l2.2361,7.99249c.03066.10879.06231.21758.094.32637.03264.10879.06231.21757.091.32834.02967.10978.05736.22055.085.33131.0277.11176.05341.22549.07813.3412.01978-.11571.04154-.22944.06627-.3412.02472-.11076.04945-.22153.07615-.33131.0267-.11077.05439-.21955.085-.32834.02967-.10879.06132-.21758.094-.32637l2.249-7.99249h1.26392L13.478,33.72561c.03362.11077.06428.22153.09494.33032.02967.10879.05835.21758.086.32835.02769.10977.05242.22054.07615.33328.02275.11275.04549.22549.06824.33923.02176-.11374.04648-.22648.0722-.33923.0267-.11274.05538-.22351.08505-.33328.02967-.11077.06132-.21956.09494-.32835.03264-.10879.06627-.21955.0989-.33032l2.23907-8.00337h1.351l-3.25772,11Z"/><path class="cls-1" d="M19.406,36.72224v-11h6.25237v1.17937H20.68276v3.60881h4.27638v1.17195H20.68276v3.864H25.6722v1.1759Z"/><g class="cls-2"><path class="cls-1" d="M28.05938,36.72224v-11H31.3572a6.51872,6.51872,0,0,1,1.68862.19461,3.36618,3.36618,0,0,1,1.20079.56767,2.309,2.309,0,0,1,.71733.91979,3.13772,3.13772,0,0,1,.2365,1.25141,2.9953,2.9953,0,0,1-.09949.79587,2.31984,2.31984,0,0,1-.28536.64883,2.21038,2.21038,0,0,1-.45641.51008,2.81785,2.81785,0,0,1-.61523.38223,3.45731,3.45731,0,0,1,.83864.4263,2.753,2.753,0,0,1,.62832.60432,2.56491,2.56491,0,0,1,.39445.76751,2.99037,2.99037,0,0,1,.13526.91282,3.51922,3.51922,0,0,1-.10123.86045,2.5817,2.5817,0,0,1-.31154.73566,2.42928,2.42928,0,0,1-.53495.59952,3.06989,3.06989,0,0,1-.76969.44681,4.75462,4.75462,0,0,1-1.01056.28013,7.63956,7.63956,0,0,1-1.26449.096Zm3.249-6.134a4.2879,4.2879,0,0,0,1.10218-.12261,1.922,1.922,0,0,0,.74439-.363,1.411,1.411,0,0,0,.42237-.59559,2.29839,2.29839,0,0,0,.13265-.81377,1.75958,1.75958,0,0,0-.15534-.75311,1.461,1.461,0,0,0-.473-.56549,2.30164,2.30164,0,0,0-.80285-.3543,4.71617,4.71617,0,0,0-1.14233-.12218H29.50365v3.69009Zm.29322,4.962a4.89747,4.89747,0,0,0,1.19119-.12741,2.33377,2.33377,0,0,0,.8238-.36913,1.48309,1.48309,0,0,0,.47822-.59167,1.94194,1.94194,0,0,0,.15621-.79588,2.19026,2.19026,0,0,0-.14486-.81245,1.53031,1.53031,0,0,0-.4503-.61873,2.12253,2.12253,0,0,0-.78017-.39313,4.12134,4.12134,0,0,0-1.13534-.137H29.50365v3.84541Z"/></g></g></g></svg>