<svg xmlns="http://www.w3.org/2000/svg" viewBox="0 0 40 40"><defs><style>.cls-1,.cls-3{fill:#fff;}.cls-2{fill:none;stroke:red;stroke-miterlimit:10;stroke-width:1.5px;}.cls-3{fill-rule:evenodd;}</style></defs><g id="E928_navigation_zielfuehrung_abbrechen"><path class="cls-1" d="M17.111,9.96046c-.52368-.11311-.91434-.17-.91434-.17l-.0015-2.84976-.0017-3.23421a2.67288,2.67288,0,0,1,.61121.09984c.34551.096.83024.19829,1.18235.31188a12.78694,12.78694,0,0,1,1.70935.6893c.72506.35866,1.45162.76026,2.19474,1.10086,0,0-.00177,1.94313-.00611,3.33015s-.01127,2.77661-.02159,2.78693c-.6851-.3849-1.24031-.68762-1.72664-.93744A10.81834,10.81834,0,0,0,17.111,9.96046Z"/><polyline class="cls-2" points="3.016 3.004 20.024 20.011 20.011 20.001 37.018 37.009"/><polyline class="cls-2" points="3.015 37.007 20.022 20 20.012 20.012 37.02 3.005"/><path class="cls-1" d="M23.9082,12.93457c-.31433-.12457-.59979-.23956-.81646-.32135l-.599-.264-.59894-.264-.00739,2.59-.00079.28186Z"/><path class="cls-1" d="M27.58716,15.6192l-2.83789,2.83795c.81378.28528,1.57257.52509,2.00531.62879l.41656.108.41657.108-.00037-2.66888Z"/><path class="cls-1" d="M33.76147,9.4447l-4.7276,4.72779a14.95132,14.95132,0,0,0,1.58259.12c.48626.0047,1.28094-.01764,1.95416-.04108.67315-.02343,1.22473-.04809,1.22473-.04809l-.02063-2.8971Z"/><polygon class="cls-1" points="28.645 8.198 27.594 8.058 27.594 9.249 28.645 8.198"/><path class="cls-1" d="M10.9165,7.72247V5.24023c4.61426-1.74511,7.1128-.46582,9.7544.88575l.34961.17871a23.65283,23.65283,0,0,0,6.93353,2.584L29.267,7.57581A21.0666,21.0666,0,0,1,21.70605,4.9707L21.35449,4.79C17.8877,3.01758,15.03564,1.92383,9.88232,4.03516l-.46582.1914v1.996Z"/><path class="cls-1" d="M10.9165,21.44238V14.08594l-1.5-1.5V23.64746l1.03418-.42285A13.6634,13.6634,0,0,1,14.7063,22.1344l1.49664-1.49658c-.28-.02375-.56451-.03821-.85675-.03821A13.23252,13.23252,0,0,0,10.9165,21.44238Z"/><path class="cls-1" d="M27.58667,24.39465l.92041.92041.56555.07135c.88953.01691,1.48541.17273,2.234.12586a12.08067,12.08067,0,0,0,2.44159-.09332c-.00952-.61377-.02252-2.173-.035-3.46088-.01246-1.28784-.0243-2.42584-.03144-2.44013a21.11543,21.11543,0,0,1-4.128.02839c-1.16736-.09552-1.97607-.23481-1.97607-.23481l.00549,3.09381Z"/><path class="cls-1" d="M16.19666,13.0025v-3.212a8.38077,8.38077,0,0,0-3.10621.10589Z"/><path class="cls-1" d="M10.167,13.33643l-.00067,2.915s.57282-.24768,1.34692-.50054c.257-.084.53907-.1651.82691-.24134Z"/><path class="cls-3" d="M20.01855,16.82422l.2743-.27429c-.32721-.14008-.65772-.28-.95221-.40357Z"/><polygon class="cls-3" points="16.194 19.363 16.194 20.647 16.836 20.005 16.194 19.363"/><path class="cls-1" d="M29.3421,26.15015c.69306.06451,1.41272.11059,2.195.11059.84277,0,1.74121-.041,2.70117-.13183l.67871-.06543V8.28918l-1.5,1.5v14.9032a22.16483,22.16483,0,0,1-5.82123-.28869Z"/><polygon class="cls-3" points="6.5 36.704 6.5 39 7 39 8 39 8 35.204 6.5 36.704"/><polygon class="cls-3" points="6.5 9.669 6.5 22 6.5 30.34 8 28.841 8 22 8 11.169 6.5 9.669"/></g></svg>