<svg xmlns="http://www.w3.org/2000/svg" viewBox="0 0 40 40"><defs><style>.cls-1{fill:#0398b9;stroke:#fff;stroke-linecap:round;stroke-miterlimit:10;stroke-width:1.5px;fill-rule:evenodd;opacity:0.98;}.cls-2{fill:#fff;}</style></defs><g id="E93A_006_navigation_map_preview_pin"><g id="Pin"><path class="cls-1" d="M20,36.55872,16.09094,24.6709a11.375,11.375,0,1,1,7.81812,0Z"/><path d="M20,1.375a12.61784,12.61784,0,0,0-4.91357,24.24268l4.43847,13.498a.5002.5002,0,0,0,.9502,0l4.43847-13.498A12.61784,12.61784,0,0,0,20,1.375Zm4.51025,23.86816L20,38.95947,15.48975,25.24316a12.125,12.125,0,1,1,9.0205,0Z"/></g><path id="_6" data-name="6" class="cls-2" d="M23.29482,9.28787q-.25049-.0813-.50391-.15381a5.45538,5.45538,0,0,0-.53467-.12525q-.28014-.05163-.59545-.08276-.31531-.03076-.68042-.03076a3.91353,3.91353,0,0,0-1.49414.26147,2.76147,2.76147,0,0,0-1.0752.78076,3.74116,3.74116,0,0,0-.68408,1.29566,7.97,7.97,0,0,0-.323,1.80322,4.02953,4.02953,0,0,1,.55957-.4248,3.82551,3.82551,0,0,1,.64014-.323,4.06294,4.06294,0,0,1,.71118-.20361,4.14929,4.14929,0,0,1,.78076-.071,4.91535,4.91535,0,0,1,1.15137.12671,3.74361,3.74361,0,0,1,.94775.36328,3.10049,3.10049,0,0,1,.74048.57129,3.26764,3.26764,0,0,1,.531.7478,3.70571,3.70571,0,0,1,.3208.89575,4.64989,4.64989,0,0,1,.10766,1.01368,4.35906,4.35906,0,0,1-.1018.94555,3.67522,3.67522,0,0,1-.31128.873,3.36952,3.36952,0,0,1-.52735.75586,3.17953,3.17953,0,0,1-.7478.594,3.85776,3.85776,0,0,1-.97632.39038,4.8953,4.8953,0,0,1-1.21142.1399,4.20384,4.20384,0,0,1-1.75708-.34937,3.43162,3.43162,0,0,1-1.30005-1.03125,4.76764,4.76764,0,0,1-.80713-1.68164,8.70019,8.70019,0,0,1-.27686-2.30932,11.048,11.048,0,0,1,.30908-2.74952,5.51192,5.51192,0,0,1,.93677-2.009A3.98639,3.98639,0,0,1,18.7018,8.06912a5.49263,5.49263,0,0,1,2.23169-.41968q.4076,0,.74414.0293c.22485.019.43213.04541.62329.07836a5.34669,5.34669,0,0,1,.53028.11939c.16333.04614.31713.09741.46362.15381Zm-5.95239,4.85229a8.99073,8.99073,0,0,0,.09448,1.32495,5.495,5.495,0,0,0,.25561,1.0459,3.158,3.158,0,0,0,.40137.78223,2.31681,2.31681,0,0,0,.53247.53686,2.11584,2.11584,0,0,0,.646.30762,2.99283,2.99283,0,0,0,1.79223-.08716,2.03017,2.03017,0,0,0,.75-.51709,2.17251,2.17251,0,0,0,.44971-.79175,3.2278,3.2278,0,0,0,.15015-1.00927,3.30067,3.30067,0,0,0-.15015-1.02466,2.11859,2.11859,0,0,0-.4519-.79248,2.0248,2.0248,0,0,0-.761-.50977,2.95156,2.95156,0,0,0-1.07886-.18017,4.383,4.383,0,0,0-.70019.05566,3.93246,3.93246,0,0,0-.67676.17139,4.2785,4.2785,0,0,0-.646.28637A4.20358,4.20358,0,0,0,17.34243,14.14016Z"/></g></svg>