<svg xmlns="http://www.w3.org/2000/svg" viewBox="0 0 40 40"><defs><style>.cls-1{fill:#0398b9;stroke:#fff;stroke-linecap:round;stroke-miterlimit:10;stroke-width:1.5px;fill-rule:evenodd;opacity:0.98;}.cls-2{fill:#fff;}</style></defs><g id="E93A_009_navigation_map_preview_pin"><g id="Pin"><path class="cls-1" d="M20,36.55872,16.09094,24.6709a11.375,11.375,0,1,1,7.81812,0Z"/><path d="M20,1.375a12.61784,12.61784,0,0,0-4.91357,24.24268l4.43847,13.498a.5002.5002,0,0,0,.9502,0l4.43847-13.498A12.61784,12.61784,0,0,0,20,1.375Zm4.51025,23.86816L20,38.95947,15.48975,25.24316a12.125,12.125,0,1,1,9.0205,0Z"/></g><path id="_9" data-name="9" class="cls-2" d="M16.97329,17.79348c.16406.0564.33178.1084.5017.15528q.256.0714.53687.12524.28016.05383.59546.085.3153.03076.68115.03076a3.86318,3.86318,0,0,0,1.519-.27539,2.74858,2.74858,0,0,0,1.084-.821,3.93254,3.93254,0,0,0,.68042-1.363,8.50581,8.50581,0,0,0,.30762-1.905,3.831,3.831,0,0,1-1.207.7478,4.08762,4.08762,0,0,1-.71923.20362,4.20658,4.20658,0,0,1-.78443.071,4.64447,4.64447,0,0,1-1.64941-.2688,3.29186,3.29186,0,0,1-1.188-.7478,3.08046,3.08046,0,0,1-.71777-1.14258,4.39476,4.39476,0,0,1-.13843-2.37378,3.47677,3.47677,0,0,1,.312-.85034,3.20874,3.20874,0,0,1,.52661-.73242,3.13936,3.13936,0,0,1,.7478-.57276,3.92493,3.92493,0,0,1,.97632-.375,5.0862,5.0862,0,0,1,1.21143-.13476,4.21131,4.21131,0,0,1,1.75561.3501A3.42324,3.42324,0,0,1,23.30654,9.03a4.77038,4.77038,0,0,1,.80713,1.68457,8.69863,8.69863,0,0,1,.27685,2.30713,11.0034,11.0034,0,0,1-.30908,2.74878,5.51708,5.51708,0,0,1-.936,2.009,3.98389,3.98389,0,0,1-1.5791,1.23266,5.50517,5.50517,0,0,1-2.23169.419q-.40758,0-.74633-.02857-.33838-.02856-.62476-.0791a5.27173,5.27173,0,0,1-.52881-.11865q-.24169-.07032-.46142-.15015Zm5.95239-5.072a8.5392,8.5392,0,0,0-.11865-1.25391,5.29806,5.29806,0,0,0-.26954-.988,3.04039,3.04039,0,0,0-.40576-.73975,2.27919,2.27919,0,0,0-.52661-.50757,2.05513,2.05513,0,0,0-.63281-.29077,2.7616,2.7616,0,0,0-.7229-.09228,2.84967,2.84967,0,0,0-1.0459.17724A1.97975,1.97975,0,0,0,18.0038,10.2781a2.97763,2.97763,0,0,0-.14941.96314,3.0726,3.0726,0,0,0,.148.98071,1.96025,1.96025,0,0,0,.45117.75513,2.04919,2.04919,0,0,0,.76392.48632,3.04512,3.04512,0,0,0,1.07812.17359,4.336,4.336,0,0,0,.698-.0564,3.94928,3.94928,0,0,0,.67529-.17065,4.36523,4.36523,0,0,0,1.25684-.68848Z"/></g></svg>