<svg id="E93A_020_navigation_map_preview_pin" xmlns="http://www.w3.org/2000/svg" viewBox="0 0 40 40"><defs><style>.cls-1{fill:#0398b9;stroke:#fff;stroke-linecap:round;stroke-miterlimit:10;stroke-width:1.5px;fill-rule:evenodd;opacity:0.98;}.cls-2{fill:#fff;}</style></defs><g id="Pin"><path class="cls-1" d="M20,36.55872,16.09094,24.6709a11.375,11.375,0,1,1,7.81812,0Z"/><path d="M20,1.375a12.61784,12.61784,0,0,0-4.91357,24.24268l4.43847,13.498a.5002.5002,0,0,0,.9502,0l4.43847-13.498A12.61784,12.61784,0,0,0,20,1.375Zm4.51025,23.86816L20,38.95947,15.48975,25.24316a12.125,12.125,0,1,1,9.0205,0Z"/></g><g id="_20" data-name="20"><path class="cls-2" d="M12.12758,19.24294V18.13918l2.83374-2.84912q.43836-.44165.81153-.84008.37243-.39771.68042-.76319.3076-.36584.542-.706a5.35955,5.35955,0,0,0,.39624-.665,3.32132,3.32132,0,0,0,.24389-.64234,2.485,2.485,0,0,0,.08277-.63647,2.60418,2.60418,0,0,0-.13623-.865,1.68316,1.68316,0,0,0-.41895-.66138,1.90273,1.90273,0,0,0-.72143-.42114,3.2675,3.2675,0,0,0-1.03784-.14795q-.45813,0-.86573.03662a7.0704,7.0704,0,0,0-.77636.11133,5.362,5.362,0,0,0-.698.19043,4.06885,4.06885,0,0,0-.6211.27686V8.28a3.82523,3.82523,0,0,1,.57715-.27685,4.65487,4.65487,0,0,1,.67822-.19776,6.61235,6.61235,0,0,1,.79029-.11718q.423-.03846.91553-.03882a6.43068,6.43068,0,0,1,1.22607.1062,4.10893,4.10893,0,0,1,.97119.30542,2.7273,2.7273,0,0,1,.72876.49,2.636,2.636,0,0,1,.50171.65991,3.00788,3.00788,0,0,1,.29.813,4.67027,4.67027,0,0,1,.09228.95142,3.65209,3.65209,0,0,1-.12451.96167,4.62053,4.62053,0,0,1-.34643.89575,6.09938,6.09938,0,0,1-.52442.84814q-.30432.41308-.66137.81885-.35816.40539-.75953.80933-.40209.40429-.81372.81518L14.06557,18.0469H19.591v1.196Z"/><path class="cls-2" d="M25.0248,19.43118a4.42351,4.42351,0,0,1-1.3916-.2,3.19521,3.19521,0,0,1-1.04956-.57056,3.26844,3.26844,0,0,1-.74781-.89795,5.15556,5.15556,0,0,1-.48486-1.17847A8.512,8.512,0,0,1,21.0895,15.167a15.68578,15.68578,0,0,1-.07837-1.61133,15.15074,15.15074,0,0,1,.082-1.61646,8.56022,8.56022,0,0,1,.271-1.42529,5.27353,5.27353,0,0,1,.49439-1.18579,3.30051,3.30051,0,0,1,.75586-.90161,3.23851,3.23851,0,0,1,1.05322-.57495,4.36816,4.36816,0,0,1,1.38794-.20215,4.49708,4.49708,0,0,1,1.40186.19995,3.24181,3.24181,0,0,1,1.06128.57129,3.2764,3.2764,0,0,1,.75732.89795,5.21122,5.21122,0,0,1,.49438,1.18066,8.30893,8.30893,0,0,1,.26954,1.41651,15.414,15.414,0,0,1,.08056,1.60913,15.21123,15.21123,0,0,1-.08276,1.61938,8.43386,8.43386,0,0,1-.271,1.42456,5.1403,5.1403,0,0,1-.50024,1.18579,3.21641,3.21641,0,0,1-1.83179,1.4751A4.52664,4.52664,0,0,1,25.0248,19.43118Zm.03076-1.22681a2.24977,2.24977,0,0,0,.86939-.15747,1.96079,1.96079,0,0,0,.665-.44971,2.6156,2.6156,0,0,0,.48267-.70752,4.67535,4.67535,0,0,0,.3208-.93457,7.90986,7.90986,0,0,0,.17725-1.12866q.05384-.60864.0542-1.28613,0-.67675-.0542-1.28394a7.938,7.938,0,0,0-.17725-1.12719,4.68407,4.68407,0,0,0-.3208-.93384A2.6156,2.6156,0,0,0,26.59,9.48782a1.97327,1.97327,0,0,0-.665-.45044,2.47057,2.47057,0,0,0-1.73584,0,1.95848,1.95848,0,0,0-.66138.45044,2.55232,2.55232,0,0,0-.47681.70752,4.73146,4.73146,0,0,0-.31567.93384,8.16235,8.16235,0,0,0-.17505,1.12719q-.05383.60755-.05347,1.28394,0,.67675.05347,1.28613a8.13266,8.13266,0,0,0,.17505,1.12866,4.72269,4.72269,0,0,0,.31567.93457,2.55232,2.55232,0,0,0,.47681.70752,1.9461,1.9461,0,0,0,.66138.44971A2.22948,2.22948,0,0,0,25.05556,18.20437Z"/></g></svg>