<svg xmlns="http://www.w3.org/2000/svg" viewBox="0 0 40 40"><defs><style>.cls-1{fill:#0398b9;stroke:#fff;stroke-linecap:round;stroke-miterlimit:10;stroke-width:1.5px;fill-rule:evenodd;opacity:0.98;}.cls-2{fill:#fff;}</style></defs><g id="E93A_012_navigation_map_preview_pin"><g id="Pin"><path class="cls-1" d="M20,36.55872,16.09094,24.6709a11.375,11.375,0,1,1,7.81812,0Z"/><path d="M20,1.375a12.61784,12.61784,0,0,0-4.91357,24.24268l4.43847,13.498a.5002.5002,0,0,0,.9502,0l4.43847-13.498A12.61784,12.61784,0,0,0,20,1.375Zm4.51025,23.86816L20,38.95947,15.48975,25.24316a12.125,12.125,0,1,1,9.0205,0Z"/></g><g id="_12" data-name="12"><path class="cls-2" d="M15.21914,19.24294V9.211l-2.88062.48853V8.50344l3.449-.66577h.88111V19.24294Z"/><path class="cls-2" d="M19.47377,19.24294V18.13918l2.83374-2.84912q.43836-.44165.81153-.84008.37244-.39771.68042-.76319.30762-.36584.542-.706a5.35955,5.35955,0,0,0,.39624-.665,3.32138,3.32138,0,0,0,.2439-.64234,2.48539,2.48539,0,0,0,.08276-.63647,2.60418,2.60418,0,0,0-.13623-.865,1.68316,1.68316,0,0,0-.41895-.66138,1.90265,1.90265,0,0,0-.72143-.42114,3.2675,3.2675,0,0,0-1.03784-.14795q-.45813,0-.86573.03662a7.07075,7.07075,0,0,0-.77636.11133,5.362,5.362,0,0,0-.698.19043,4.0683,4.0683,0,0,0-.62109.27686V8.28a3.82511,3.82511,0,0,1,.57714-.27685,4.65464,4.65464,0,0,1,.67823-.19776,6.61187,6.61187,0,0,1,.79028-.11718q.423-.03846.91553-.03882a6.4306,6.4306,0,0,1,1.22607.1062,4.10878,4.10878,0,0,1,.97119.30542,2.7273,2.7273,0,0,1,.72876.49,2.63577,2.63577,0,0,1,.50171.65991,3.00788,3.00788,0,0,1,.29.813,4.67026,4.67026,0,0,1,.09229.95142,3.65209,3.65209,0,0,1-.12452.96167,4.62053,4.62053,0,0,1-.34643.89575,6.09938,6.09938,0,0,1-.52442.84814q-.30432.41308-.66137.81885-.35816.40539-.75952.80933-.4021.40429-.81372.81518L21.41176,18.0469h5.52539v1.196Z"/></g></g></svg>