<svg xmlns="http://www.w3.org/2000/svg" viewBox="0 0 40 40"><defs><style>.cls-1{fill:#0398b9;stroke:#fff;stroke-linecap:round;stroke-miterlimit:10;stroke-width:1.5px;fill-rule:evenodd;opacity:0.98;}.cls-2{fill:#fff;}</style></defs><g id="E93A_010_navigation_map_preview_pin"><g id="Pin"><path class="cls-1" d="M20,36.55872,16.09094,24.6709a11.375,11.375,0,1,1,7.81812,0Z"/><path d="M20,1.375a12.61784,12.61784,0,0,0-4.91357,24.24268l4.43847,13.498a.5002.5002,0,0,0,.9502,0l4.43847-13.498A12.61784,12.61784,0,0,0,20,1.375Zm4.51025,23.86816L20,38.95947,15.48975,25.24316a12.125,12.125,0,1,1,9.0205,0Z"/></g><g id="_10" data-name="10"><path class="cls-2" d="M15.21914,19.24294V9.211l-2.88062.48853V8.50344l3.449-.66577h.88111V19.24294Z"/><path class="cls-2" d="M23.33,19.43118a4.42357,4.42357,0,0,1-1.39161-.2,3.19531,3.19531,0,0,1-1.04956-.57056,3.2684,3.2684,0,0,1-.7478-.89795,5.15512,5.15512,0,0,1-.48486-1.17847,8.512,8.512,0,0,1-.26148-1.41723,15.68861,15.68861,0,0,1-.07837-1.61133,15.15074,15.15074,0,0,1,.082-1.61646,8.56122,8.56122,0,0,1,.271-1.42529,5.27307,5.27307,0,0,1,.49439-1.18579,3.30048,3.30048,0,0,1,.75585-.90161,3.23866,3.23866,0,0,1,1.05323-.57495,4.36816,4.36816,0,0,1,1.38794-.20215,4.497,4.497,0,0,1,1.40185.19995,3.24161,3.24161,0,0,1,1.06128.57129,3.27644,3.27644,0,0,1,.75733.89795,5.21213,5.21213,0,0,1,.49438,1.18066,8.30992,8.30992,0,0,1,.26953,1.41651,15.41116,15.41116,0,0,1,.08057,1.60913,15.20852,15.20852,0,0,1-.08277,1.61938,8.43487,8.43487,0,0,1-.271,1.42456,5.14075,5.14075,0,0,1-.50025,1.18579,3.21635,3.21635,0,0,1-1.83178,1.4751A4.52673,4.52673,0,0,1,23.33,19.43118Zm.03076-1.22681a2.24976,2.24976,0,0,0,.86938-.15747,1.96093,1.96093,0,0,0,.665-.44971,2.6156,2.6156,0,0,0,.48267-.70752,4.676,4.676,0,0,0,.3208-.93457,7.90991,7.90991,0,0,0,.17724-1.12866q.05384-.60864.0542-1.28613,0-.67675-.0542-1.28394a7.938,7.938,0,0,0-.17724-1.12719,4.6847,4.6847,0,0,0-.3208-.93384,2.6156,2.6156,0,0,0-.48267-.70752,1.97341,1.97341,0,0,0-.665-.45044,2.47057,2.47057,0,0,0-1.73584,0,1.95868,1.95868,0,0,0-.66138.45044,2.5523,2.5523,0,0,0-.4768.70752,4.7321,4.7321,0,0,0-.31568.93384,8.1624,8.1624,0,0,0-.175,1.12719q-.05383.60755-.05347,1.28394,0,.67675.05347,1.28613a8.1327,8.1327,0,0,0,.175,1.12866,4.72334,4.72334,0,0,0,.31568.93457,2.5523,2.5523,0,0,0,.4768.70752,1.94629,1.94629,0,0,0,.66138.44971A2.2295,2.2295,0,0,0,23.36074,18.20437Z"/></g></g></svg>