<svg xmlns="http://www.w3.org/2000/svg" viewBox="0 0 40 40"><defs><style>.cls-1{fill:#0398b9;stroke:#fff;stroke-linecap:round;stroke-miterlimit:10;stroke-width:1.5px;fill-rule:evenodd;opacity:0.98;}.cls-2{fill:#fff;}</style></defs><g id="E93A_005_navigation_map_preview_pin"><g id="Pin"><path class="cls-1" d="M20,36.55872,16.09094,24.6709a11.375,11.375,0,1,1,7.81812,0Z"/><path d="M20,1.375a12.61784,12.61784,0,0,0-4.91357,24.24268l4.43847,13.498a.5002.5002,0,0,0,.9502,0l4.43847-13.498A12.61784,12.61784,0,0,0,20,1.375Zm4.51025,23.86816L20,38.95947,15.48975,25.24316a12.125,12.125,0,1,1,9.0205,0Z"/></g><path id="_5" data-name="5" class="cls-2" d="M16.94252,17.55837a6.525,6.525,0,0,0,.627.23877,7.38337,7.38337,0,0,0,.75146.20215q.4021.0857.83862.13843a7.52972,7.52972,0,0,0,.88624.052,3.50832,3.50832,0,0,0,1.16308-.16992,2.1057,2.1057,0,0,0,.79028-.46875,1.81058,1.81058,0,0,0,.45191-.717,2.78372,2.78372,0,0,0,.14429-.91333,1.76727,1.76727,0,0,0-.15967-.77124,1.8879,1.8879,0,0,0-.43433-.58228,2.58677,2.58677,0,0,0-.64013-.42114,4.8268,4.8268,0,0,0-.78077-.28418,7.31327,7.31327,0,0,0-.85547-.17944q-.44055-.06483-.86352-.09741-.423-.033-.80347-.04248l-.67676-.01758.18824-5.68726h6.09887V9.06814H18.942l-.11133,3.21533q.39551.01868.83276.063.43615.04395.88037.12671a8.53116,8.53116,0,0,1,.87891.21387,5.44831,5.44831,0,0,1,.82837.32446,4.08283,4.08283,0,0,1,.73022.46,2.853,2.853,0,0,1,.583.6189,2.90622,2.90622,0,0,1,.386.80346A3.38634,3.38634,0,0,1,24.091,15.9053a4.45159,4.45159,0,0,1-.10034.95581,3.30257,3.30257,0,0,1-.30762.84741,2.88843,2.88843,0,0,1-.52807.70972,3.03321,3.03321,0,0,1-.76538.542,4.17949,4.17949,0,0,1-1.01734.3479,6.11137,6.11137,0,0,1-1.28027.12305q-.50757,0-.96314-.04029a7.88485,7.88485,0,0,1-.854-.12085,5.603,5.603,0,0,1-.73242-.19848,3.493,3.493,0,0,1-.59986-.271Z"/></g></svg>