<svg xmlns="http://www.w3.org/2000/svg" viewBox="0 0 40 40"><defs><style>.cls-1{fill:#0398b9;stroke:#fff;stroke-linecap:round;stroke-miterlimit:10;stroke-width:1.5px;fill-rule:evenodd;opacity:0.98;}.cls-2{fill:#fff;}</style></defs><g id="E93A_018_navigation_map_preview_pin"><g id="Pin"><path class="cls-1" d="M20,36.55872,16.09094,24.6709a11.375,11.375,0,1,1,7.81812,0Z"/><path d="M20,1.375a12.61784,12.61784,0,0,0-4.91357,24.24268l4.43847,13.498a.5002.5002,0,0,0,.9502,0l4.43847-13.498A12.61784,12.61784,0,0,0,20,1.375Zm4.51025,23.86816L20,38.95947,15.48975,25.24316a12.125,12.125,0,1,1,9.0205,0Z"/></g><g id="_18" data-name="18"><path class="cls-2" d="M15.21914,19.24294V9.211l-2.88062.48853V8.50344l3.449-.66577h.88111V19.24294Z"/><path class="cls-2" d="M25.3954,13.25979a3.57744,3.57744,0,0,1,.64014.30762,2.99387,2.99387,0,0,1,.51123.394,2.57854,2.57854,0,0,1,.38672.471,2.85477,2.85477,0,0,1,.26733.54053,3.27949,3.27949,0,0,1,.15748.59985,3.97847,3.97847,0,0,1,.052.64819,3.65829,3.65829,0,0,1-.104.8877,2.85707,2.85707,0,0,1-.31714.7771,2.66839,2.66839,0,0,1-.542.6438,3.09223,3.09223,0,0,1-.7771.48632,4.57745,4.57745,0,0,1-1.0188.30762,6.88335,6.88335,0,0,1-1.27075.10767,7.02892,7.02892,0,0,1-1.28467-.10767,4.59715,4.59715,0,0,1-1.02612-.30762,3.08043,3.08043,0,0,1-.7793-.48632,2.66862,2.66862,0,0,1-.542-.6438,2.78442,2.78442,0,0,1-.31494-.7771,3.73308,3.73308,0,0,1-.10254-.8877,3.97847,3.97847,0,0,1,.052-.64819,3.22543,3.22543,0,0,1,.15967-.59985,2.86962,2.86962,0,0,1,.271-.54053,2.65364,2.65364,0,0,1,.38891-.471,3.00492,3.00492,0,0,1,.509-.394,3.54849,3.54849,0,0,1,.635-.30762,2.83338,2.83338,0,0,1-.7002-.45923,2.56377,2.56377,0,0,1-.498-.60937,2.76332,2.76332,0,0,1-.29589-.73316,3.43905,3.43905,0,0,1-.09815-.832,3.33979,3.33979,0,0,1,.23291-1.29565,2.35314,2.35314,0,0,1,.68775-.93091,3.069,3.069,0,0,1,1.13452-.56177,5.91357,5.91357,0,0,1,1.571-.18823,5.853,5.853,0,0,1,1.56079.18823,3.09181,3.09181,0,0,1,1.13452.56177,2.37023,2.37023,0,0,1,.69214.93091,3.32566,3.32566,0,0,1,.23438,1.29565,3.36766,3.36766,0,0,1-.09961.832,2.7522,2.7522,0,0,1-.30176.73316,2.62535,2.62535,0,0,1-.50391.60937A2.884,2.884,0,0,1,25.3954,13.25979Zm.50391,2.87988a2.41032,2.41032,0,0,0-.14648-.83642,1.898,1.898,0,0,0-.4541-.70166,2.21818,2.21818,0,0,0-.78223-.48413,3.66395,3.66395,0,0,0-2.27417,0,2.215,2.215,0,0,0-.78443.48413,1.898,1.898,0,0,0-.4541.70166,2.40979,2.40979,0,0,0-.14575.83642,2.23635,2.23635,0,0,0,.15015.83057,1.696,1.696,0,0,0,.46142.65771,2.20936,2.20936,0,0,0,.78589.43433,4.05056,4.05056,0,0,0,2.24195,0,2.21923,2.21923,0,0,0,.78662-.43433,1.72307,1.72307,0,0,0,.46289-.65771A2.22235,2.22235,0,0,0,25.89931,16.13967Zm-.39624-5.44848a2,2,0,0,0-.14429-.78076,1.55722,1.55722,0,0,0-.41528-.57862,1.82964,1.82964,0,0,0-.66724-.35962,3.35146,3.35146,0,0,0-1.79956,0,1.82375,1.82375,0,0,0-.66723.35962,1.53586,1.53586,0,0,0-.41309.57862,2.01378,2.01378,0,0,0-.14209.78076,2.42023,2.42023,0,0,0,.13037.80932,1.73513,1.73513,0,0,0,.39405.64234,1.81952,1.81952,0,0,0,.66357.4248,2.92508,2.92508,0,0,0,1.87207,0,1.81952,1.81952,0,0,0,.66357-.4248,1.73513,1.73513,0,0,0,.39405-.64234A2.42025,2.42025,0,0,0,25.50307,10.69119Z"/></g></g></svg>