<svg xmlns="http://www.w3.org/2000/svg" viewBox="0 0 40 40"><defs><style>.cls-1{fill:#0398b9;stroke:#fff;stroke-linecap:round;stroke-miterlimit:10;stroke-width:1.5px;fill-rule:evenodd;opacity:0.98;}.cls-2{fill:#fff;}</style></defs><g id="E93A_004_navigation_map_preview_pin"><g id="Pin"><path class="cls-1" d="M20,36.55872,16.09094,24.6709a11.375,11.375,0,1,1,7.81812,0Z"/><path d="M20,1.375a12.61784,12.61784,0,0,0-4.91357,24.24268l4.43847,13.498a.5002.5002,0,0,0,.9502,0l4.43847-13.498A12.61784,12.61784,0,0,0,20,1.375Zm4.51025,23.86816L20,38.95947,15.48975,25.24316a12.125,12.125,0,1,1,9.0205,0Z"/></g><path id="_4" data-name="4" class="cls-2" d="M20.83754,19.24294V16.70877h-5.718v-1.169l5.76416-7.70215H22.287v7.67139h1.90356v1.19971H22.287v2.53417Zm0-8.18994c0-.167.00367-.364.01172-.59253.00806-.22778.01905-.46142.03443-.69946q-.18788.28785-.38233.57642-.19446.28893-.37134.52661l-3.46435,4.645h4.17187Z"/></g></svg>