<svg xmlns="http://www.w3.org/2000/svg" viewBox="0 0 40 40"><defs><style>.cls-1{fill:#0398b9;stroke:#fff;stroke-linecap:round;stroke-miterlimit:10;stroke-width:1.5px;fill-rule:evenodd;opacity:0.98;}.cls-2{fill:#fff;}</style></defs><g id="E93A_015_navigation_map_preview_pin"><g id="Pin"><path class="cls-1" d="M20,36.55872,16.09094,24.6709a11.375,11.375,0,1,1,7.81812,0Z"/><path d="M20,1.375a12.61784,12.61784,0,0,0-4.91357,24.24268l4.43847,13.498a.5002.5002,0,0,0,.9502,0l4.43847-13.498A12.61784,12.61784,0,0,0,20,1.375Zm4.51025,23.86816L20,38.95947,15.48975,25.24316a12.125,12.125,0,1,1,9.0205,0Z"/></g><g id="_15" data-name="15"><path class="cls-2" d="M15.21914,19.24294V9.211l-2.88062.48853V8.50344l3.449-.66577h.88111V19.24294Z"/><path class="cls-2" d="M19.473,17.55837a6.52575,6.52575,0,0,0,.62695.23877,7.38358,7.38358,0,0,0,.75147.20215q.40211.0857.83862.13843a7.52954,7.52954,0,0,0,.88623.052,3.50838,3.50838,0,0,0,1.16309-.16992,2.10578,2.10578,0,0,0,.79028-.46875,1.81058,1.81058,0,0,0,.45191-.717,2.784,2.784,0,0,0,.14428-.91333,1.76727,1.76727,0,0,0-.15966-.77124,1.88821,1.88821,0,0,0-.43433-.58228,2.58665,2.58665,0,0,0-.64014-.42114,4.82634,4.82634,0,0,0-.78076-.28418,7.31327,7.31327,0,0,0-.85547-.17944q-.44055-.06483-.86352-.09741-.423-.033-.80347-.04248l-.67676-.01758L20.1,7.83767h6.09888V9.06814H21.47255l-.11132,3.21533q.39551.01868.83276.063.43616.04395.88037.12671a8.53116,8.53116,0,0,1,.87891.21387,5.44872,5.44872,0,0,1,.82837.32446,4.08319,4.08319,0,0,1,.73022.46,2.85329,2.85329,0,0,1,.583.6189,2.90592,2.90592,0,0,1,.386.80346,3.38633,3.38633,0,0,1,.14063,1.01148,4.45159,4.45159,0,0,1-.10034.95581,3.30257,3.30257,0,0,1-.30762.84741,2.88847,2.88847,0,0,1-.52808.70972,3.033,3.033,0,0,1-.76538.542,4.17956,4.17956,0,0,1-1.01733.3479,6.11137,6.11137,0,0,1-1.28027.12305q-.50757,0-.96314-.04029a7.88485,7.88485,0,0,1-.854-.12085,5.60314,5.60314,0,0,1-.73243-.19848,3.4932,3.4932,0,0,1-.59985-.271Z"/></g></g></svg>