<svg xmlns="http://www.w3.org/2000/svg" viewBox="0 0 44 44"><g id="d0_t14_1p0_2p1015_1s1"><path id="Hintergrund" d="M21.99965,4.44716a1.73471,1.73471,0,0,1,1.50475.87159l.9009,1.54563h.00419L41.729,36.88476l.009.01732a1.73479,1.73479,0,0,1-1.48146,2.65075H3.73467a1.73439,1.73439,0,0,1-1.50546-2.5961l.003-.00573L20.21749,5.72689a3.14238,3.14238,0,0,1,.5558-.77167,1.72906,1.72906,0,0,1,1.22637-.50806Z" fill="#010101"/><path id="path9656" d="M21.99965,4.88183a1.27849,1.27849,0,0,1,1.10985.6149L41.38584,37.1629a1.35321,1.35321,0,0,1,.15115.61744,1.30031,1.30031,0,0,1-.46368.99509,1.27651,1.27651,0,0,1-.83448.30491H3.72633a1.13992,1.13992,0,0,1-.64858-.18513,1.27356,1.27356,0,0,1-.61519-1.08881,1.44121,1.44121,0,0,1,.17012-.6435L20.89844,5.49141l.00526-.00827.00555-.00857a1.18283,1.18283,0,0,1,.23867-.27377,1.29952,1.29952,0,0,1,.75784-.31412C21.93714,4.8839,21.96852,4.88207,21.99965,4.88183ZM40.23883,39.08034h0ZM22.01862,11.15791,8.09077,35.29853H35.9661L22.01862,11.15791Z" fill="#00f300"/><path id="Piktogramm" d="M20.43616,29.98014l-.53989-.89438a.81354.81354,0,0,1-1.0868-.3785l-.00194-.0037-.32459-.67645,2.68646.73205.08938-.32905a13.03682,13.03682,0,0,0,4.943.981,3.25532,3.25532,0,0,0,2.04993,2.10283l.92372.31733a2.60162,2.60162,0,0,1,1.25646.92371l.68209.93011a2.59427,2.59427,0,0,0,1.28655.93474l-.16327-.98225a.65106.65106,0,0,1-.65835-.34371l-1.05031-2.01151-.65565-.46224a1.95478,1.95478,0,0,1-.99667-2.20223l.08662-.35374a.64843.64843,0,0,0-.30285-.71664l-.807-.47351a1.99309,1.99309,0,0,0-.42206-.18408l-4.41155-1.335a2.6009,2.6009,0,0,1-1.74633-1.76351l-.59373-2.03056a1.30635,1.30635,0,0,0,1.078-.57l-1.32133-.081,1.656-.94646a1.63047,1.63047,0,0,0,.81873-1.327.11456.11456,0,0,0-.10849-.11946.11315.11315,0,0,0-.11576.08593l-.02106.07834a1.30052,1.30052,0,0,1-.67107.837l-.09376.04826a.09816.09816,0,0,1-.1315-.04287.09578.09578,0,0,1-.00808-.06732l.154-.64023a.09833.09833,0,0,0-.073-.11752.09666.09666,0,0,0-.10943.0509l-.53055,1.06429a.484.484,0,0,1-.21617.21692l-.2235.11407a.09862.09862,0,0,1-.13225-.04281.09192.09192,0,0,1-.00708-.06662l.23334-.97492a.09778.09778,0,0,0-.18245-.06656l-.579,1.16269a1.1397,1.1397,0,0,1-.68749.5817l-1.90032.57831v.569l1.70891.48962.505,3.83525a1.94218,1.94218,0,0,0,.4806,1.04781l-2.49405-.40495a.246.246,0,0,0-.27985.20251.25465.25465,0,0,0,.02745.15763l.90366,1.64329a1.632,1.632,0,0,0,1.24812.8334" fill="#00f300"/></g></svg>