<svg xmlns="http://www.w3.org/2000/svg" viewBox="0 0 44 44"><g id="d0_t14_1p0_2p1027_1s1"><circle id="Hintergrund" cx="22" cy="22" r="19.99989" fill="#010101"/><path id="Rahmen" d="M21.9998,2.5005a19.46115,19.46115,0,1,0,.07778,0Q22.03868,2.50043,21.9998,2.5005Zm0,33.9a14.4,14.4,0,1,1,14.4-14.4A14.4,14.4,0,0,1,21.9998,36.4005Z" fill="#00f300"/><g id="Piktogramm"><path id="path3458" d="M11.039,26.12827V22.427l3.70127,3.70127V14.17087H17.587v11.9574L21.28831,22.427v3.70127l-5.12466,5.12424L11.039,26.12827Z" fill="#00f300"/><path id="path3460" d="M32.96093,17.87173V21.573l-3.70119-3.70127V29.82912H26.41288V17.87173L22.71169,21.573V17.87173l5.12466-5.12424Z" fill="#00f300"/></g></g></svg>