<svg xmlns="http://www.w3.org/2000/svg" viewBox="0 0 44 44"><g id="d0_t14_cc-aus_1p0_2p1027_1s1"><path id="Hintergrund" d="M5.33356,2A3.33309,3.33309,0,0,0,2.00027,5.33329V38.66671A3.33308,3.33308,0,0,0,5.33356,42H38.66644a3.33309,3.33309,0,0,0,3.33329-3.33329V5.3333A3.33341,3.33341,0,0,0,38.66644,2H5.33356" fill="#010101" fill-rule="evenodd"/><path id="Rahmen" d="M5.33356,2.53326A2.80015,2.80015,0,0,0,2.53348,5.33334V38.66649a2.80064,2.80064,0,0,0,2.80008,2.80034H38.66644a2.79934,2.79934,0,0,0,2.79982-2.80034V5.33334a2.79983,2.79983,0,0,0-2.79982-2.80008H5.33356m0,1.06668H38.66644a1.73327,1.73327,0,0,1,1.73313,1.7334V38.66649a1.733,1.733,0,0,1-1.73313,1.73366H5.33356a1.7333,1.7333,0,0,1-1.7334-1.73366V5.33334a1.73377,1.73377,0,0,1,1.7334-1.7334" fill="#00f300" fill-rule="evenodd"/><path id="Beschriftung" d="M7.37788,24.47733a3.98451,3.98451,0,0,0-.30948,1.73128,3.98954,3.98954,0,0,0,.30948,1.73128.58584.58584,0,0,0,.97038,0A3.99354,3.99354,0,0,0,8.658,26.20861a3.98428,3.98428,0,0,0-.16094-1.31548q-.03126-.10645-.0686-.21054c-.01241-.03456-.02559-.06913-.03878-.10342-.01345-.03457-.02691-.06781-.04143-.10184a.53138.53138,0,0,0-.08838-.11029.531.531,0,0,0-.39655-.14721v-.75114a1.24875,1.24875,0,0,1,1.15771.68676,5.42927,5.42927,0,0,1,0,4.10633,1.24893,1.24893,0,0,1-1.158.68676,1.249,1.249,0,0,1-1.158-.68676,5.60361,5.60361,0,0,1,0-4.10633,1.24865,1.24865,0,0,1,1.158-.6865v.75087a.53389.53389,0,0,0-.48519.25751m4.03638-.944H10.684v5.33342h.7332v-3.428l1.44027,3.428h.73319V23.5333h-.73319v3.43513ZM17.76978,27.441h-.72923v.11847a.647.647,0,0,1-.16517.41712.61741.61741,0,0,1-.39311.20236.62589.62589,0,0,1-.67383-.48493,5.34531,5.34531,0,0,1,0-2.97816.61944.61944,0,0,1,1.06694-.28283.64766.64766,0,0,1,.16517.41739h.72923a1.45489,1.45489,0,0,0-.17545-.64851,1.42307,1.42307,0,0,0-.44588-.49469,1.31422,1.31422,0,0,0-1.61414.10765,1.54066,1.54066,0,0,0-.438.701,6.23183,6.23183,0,0,0,0,3.37787,1.54146,1.54146,0,0,0,.438.70128,1.31472,1.31472,0,0,0,1.23105.28573,1.35254,1.35254,0,0,0,.20236-.07545q.04789-.02257.0934-.04829l.04433-.02638.02163-.014.01081-.00686.00263-.0019.00264-.00169.00264-.0019.00264-.0019.00422-.00291.00422-.00264.00395-.00317.00422-.00264.01635-.01189.03272-.02453c.02163-.01662.04275-.03378.06358-.052a1.42655,1.42655,0,0,0,.3166-.395,1.46258,1.46258,0,0,0,.17545-.64851v-.11846m2.00117-2.96342.00448-.00711.00475-.00766.00977-.01425L19.811,24.42a.50683.50683,0,0,1,.04828-.053.53108.53108,0,0,1,.3968-.14722v-.75087a1.24865,1.24865,0,0,0-1.158.6865,5.60372,5.60372,0,0,0,0,4.10632,1.31985,1.31985,0,0,0,2.31621,0,5.47081,5.47081,0,0,0,.176-3.61241c-.0248-.08364-.05251-.1678-.08179-.24985-.01451-.04063-.03007-.08232-.04564-.12268l-.024-.061-.01241-.03008-.00292-.00764-.00316-.00738-.00317-.00764-.00289-.00766-.00264-.00475-.00236-.00449-.00475-.00951-.01-.01874-.02137-.03693c-.01451-.02454-.03034-.04908-.0467-.07309a1.24793,1.24793,0,0,0-1.07011-.53927v.75114a.53313.53313,0,0,1,.48493.2575,3.9936,3.9936,0,0,1,.30974,1.73129,3.99358,3.99358,0,0,1-.30974,1.73129.57342.57342,0,0,1-.97039,0,3.98943,3.98943,0,0,1-.30947-1.73129,4.00153,4.00153,0,0,1,.16067-1.31574c.02111-.071.0438-.14063.06886-.21028.0124-.03455.02533-.06885.03852-.10342l.02058-.05092.01028-.02559.00264-.00633.00264-.00633.00263-.00633.00264-.00633m6.03757,1.31888v3.07051h.73531V23.5333h-.77436l-.959,2.95073-.959-2.95073h-.7741v5.33342h.73505V25.79621l.99809,3.07051ZM28.198,28.86672h.74666V23.5333H28.198m3.13106,0h-.73029v5.33342h.7332v-3.428l1.44027,3.428h.7332V23.5333h-.7332v3.43513ZM37.68434,27.561V26.17215H36.35805v.81921h.6v.56778h0a.64371.64371,0,0,1-.15989.40973.61789.61789,0,0,1-1.0614-.24457,5.8432,5.8432,0,0,1-.16385-.75193c-.01926-.1277-.034-.25486-.04485-.38309-.01083-.128-.01716-.25671-.01952-.38441a5.89457,5.89457,0,0,1,.06437-.7675c.019-.128.04222-.2538.06966-.37939.02744-.12584.05883-.24985.09419-.37306a.64328.64328,0,0,1,.09445-.19392.631.631,0,0,1,.1641-.15883.61445.61445,0,0,1,.80285.1087.64243.64243,0,0,1,.15989.40921l.72633-.00169a1.374,1.374,0,0,0-.08891-.51078,1.35839,1.35839,0,0,0-.30314-.472,1.31763,1.31763,0,0,0-.46541-.30394,1.40538,1.40538,0,0,0-1.25981.14933,1.33447,1.33447,0,0,0-.40789.45907c-.01583.02955-.0306.05911-.0438.08892l-.01927.04511-.009.02243-.00422.01134-.001.00264-.00106.00291-.001.00291-.00106.00264-.00238.00686-.00237.00711-.00236.00686-.00239.00711-.00922.02744-.01822.0562c-.01187.03772-.0232.07387-.03456.11213-.02216.07519-.04273.15118-.062.22716q-.05739.22914-.09524.4625A5.97807,5.97807,0,0,0,35.0787,28.06a1.31356,1.31356,0,0,0,1.24715.87251,1.29639,1.29639,0,0,0,.501-.085,1.31381,1.31381,0,0,0,.46541-.30394,1.35724,1.35724,0,0,0,.30314-.47173,1.39176,1.39176,0,0,0,.07018-.25935,1.36179,1.36179,0,0,0,.01874-.2517h0m-27.381,4.37247H7.05v.85325H8.257v4.48018h.83952V32.78659h1.20678Zm1.3,5.33348h.83451V34.935h.97144l.87356,2.33177h.89387l-.90865-2.52147a1.47114,1.47114,0,0,0,.66091-.69415,1.514,1.514,0,0,0,.10184-.963,1.49016,1.49016,0,0,0-.50023-.82237,1.43307,1.43307,0,0,0-.88939-.33243H12.43842v.85324h1.20282a.64357.64357,0,0,1,.59046.64772.658.658,0,0,1-.17044.44271.629.629,0,0,1-.42.20474H12.43789V31.9334h-.83451v5.33342m4.56236,0h.89071l.49258-1.4664h1.71308l-.28679-.853h-1.1395L18.4057,33.251,19.755,37.26681h.89071l-1.792-5.33341h-.896l-1.792,5.33341Zm9.118-5.33348H22.03034v5.33342h.83979V34.92022h1.52549v-.85351H22.87013V32.78658h2.41356v-.85324Zm4.55318,0H26.58352v5.33342h.83979V34.92022H28.9488v-.85351H27.42331V32.78658h2.41356v-.85324Zm1.3,5.33342h.82659V31.93334h-.82659m5.03039,3.86641a.858.858,0,0,1-1.612.14564,2.911,2.911,0,0,1,0-2.68662.87768.87768,0,0,1,.83-.49839.86851.86851,0,0,1,.47464.16886.89125.89125,0,0,1,.30631.40577l.78359-.31554a1.75147,1.75147,0,0,0-.57938-.77515,1.69645,1.69645,0,0,0-1.83392-.14035,1.73212,1.73212,0,0,0-.68676.67832,3.5952,3.5952,0,0,0-.35776.87725,3.66289,3.66289,0,0,0-.08944.46936c-.0095.07862-.01663.1583-.0211.23692q-.00675.11834-.00556.2364c-.00042.039-.00021.07836.00085.11767.001.03852.00264.07967.00475.11819.00447.07889.01161.1583.0211.23719a3.66256,3.66256,0,0,0,.08944.46936,3.60361,3.60361,0,0,0,.35776.87725,1.71688,1.71688,0,0,0,.69706.6865,1.67554,1.67554,0,0,0,1.84974-.18732,1.73384,1.73384,0,0,0,.55036-.81261l-.77963-.30868h0m-24.77271-26.18-.39734-2.88635h-.84717l.73425,5.33315h.78438l.81472-3.38078.815,3.38078h.78412l.73425-5.33315h-.84718l-.39733,2.88635-.69547-2.88635h-.78649Zm4.35459,2.44685h.89071l.49257-1.46587h1.71308l-.28678-.8535H17.41922l.56989-1.6962,1.34925,4.01556h.8907l-1.792-5.33315h-.896l-1.792,5.33315Zm8.58072-5.33323H21.07653v.85324h1.207v4.47992h.83952V7.58662h1.20678Zm3.69506,3.86638a.85829.85829,0,0,1-1.61229.14564A2.54342,2.54342,0,0,1,26.08416,9.402a2.5427,2.5427,0,0,1,.32848-1.34344A.87191.87191,0,0,1,27.71756,7.729a.89508.89508,0,0,1,.30632.406l.78332-.31555a1.74461,1.74461,0,0,0-.57938-.77514,1.70324,1.70324,0,0,0-2.52068.538,3.691,3.691,0,0,0,0,3.6396,1.71082,1.71082,0,0,0,.69705.686,1.67487,1.67487,0,0,0,1.84975-.18706,1.73122,1.73122,0,0,0,.55062-.81261l-.77963-.30842h0m2.25162-3.86639v5.33315h.83451V9.72h1.90409v2.34654h.83451V6.73338h-.83451V8.86675H31.11106V6.73338Zm-11.4733,8.39987H15.5499v5.33341h.83979V18.12012h1.52549v-.85351H16.38969V15.98675h2.41356v-.85351Zm2.78053.79327v-.859a1.76644,1.76644,0,0,0-1.10045.39549,1.79254,1.79254,0,0,0-.40367.46171,1.82378,1.82378,0,0,0-.219.53875,5.69372,5.69372,0,0,0,0,2.69191,1.81231,1.81231,0,0,0,.219.539,1.77132,1.77132,0,0,0,1.22261.8324c.04749.00792.095.01425.14194.0182.02322.0021.047.00348.07018.00474l.03483.00127.01741.00022h.00422l.00422.00021h.01714l.00448-.00021h.00449l.01716-.00022.03483-.00127c.02374-.0013.04617-.00263.07018-.00474.0467-.00395.09445-.01028.14194-.0182a1.7942,1.7942,0,0,0,.28547-.07308,1.7906,1.7906,0,0,0,.93714-.75932,1.81941,1.81941,0,0,0,.219-.539,5.77316,5.77316,0,0,0,0-2.69191,1.82381,1.82381,0,0,0-.219-.53875,1.7968,1.7968,0,0,0-.40366-.46171,1.76646,1.76646,0,0,0-1.10019-.39549v.859a.87067.87067,0,0,1,.52.15276.89039.89039,0,0,1,.333.43243,4.06365,4.06365,0,0,1,.1802,1.2978,4.08458,4.08458,0,0,1-.0372.65641q-.02295.16345-.05883.32426-.01782.08034-.03879.15936c-.01425.05329-.029.10553-.04538.1575a.93254.93254,0,0,1-.05382.12164.92259.92259,0,0,1-.07493.11582.92013.92013,0,0,1-1.57773-.23746,4.053,4.053,0,0,1-.143-.64112q-.02256-.16344-.03192-.32794-.00957-.16462-.00553-.32847a4.07644,4.07644,0,0,1,.03746-.65616c.0153-.109.03456-.2174.05857-.32452.01214-.05356.0248-.10633.039-.15936.014-.053.029-.1058.04538-.15777a.86234.86234,0,0,1,.05409-.12137.87876.87876,0,0,1,.0744-.11582.89365.89365,0,0,1,.20447-.19523.875.875,0,0,1,.25486-.11979.85775.85775,0,0,1,.13377-.02717c.02269-.00237.04432-.00422.06648-.00528l.03272-.00084h.02427l.004.00021h.00422m3.29277,4.54025h.83451V18.13542h.97144l.87355,2.33124h.89361l-.90838-2.52147a1.47044,1.47044,0,0,0,.6609-.69388,1.51711,1.51711,0,0,0,.10211-.96274,1.49053,1.49053,0,0,0-.5005-.82263,1.4331,1.4331,0,0,0-.88965-.3327H25.7116v.85351h1.20256a.64323.64323,0,0,1,.59073.64771.65544.65544,0,0,1-.1707.44245.62947.62947,0,0,1-.42.205H25.71107V15.13325h-.8345v5.33341" fill="#00f300" fill-rule="evenodd"/></g></svg>