<svg id="Ebene_1" data-name="Ebene 1" xmlns="http://www.w3.org/2000/svg" viewBox="0 0 44 44"><defs><style>.cls-1{fill:#00f300;}.cls-2{fill:#010101;}</style></defs><g id="d0_t14_cc-kor_1p0_2p1027_1s1" data-name="d0 t14 cc-kor 1p0 2p1027 1s1"><path id="Hintergrund" d="M2.47061,36.29171,20.15291,5.7881c.9405-1.66155,2.66476-1.66155,3.66622,0L41.56674,36.35441c1.03194,1.72425.1524,3.10365-1.91584,3.10365H4.4474c-2.25982,0-3.04357-1.31713-1.97679-3.16635"/><path id="Rahmen" class="cls-1" d="M40.74817,36.69882,23.16162,6.38327a1.27981,1.27981,0,0,0-2.38171,0L3.25439,36.63608c-.59655,1.06634,0,2.00683,1.38025,2.00683h34.8595C40.71771,38.64291,41.40564,37.76517,40.74817,36.69882Zm-32.726-1.50439L22.06439,11.30569l13.794,23.88874Z"/><path id="Hintergrund-2" class="cls-2" d="M22.0644,11.30571l13.794,23.88875H8.02218L22.0644,11.30571"/><path id="Piktogramm" class="cls-1" d="M18.39818,19.80157h3.06969v9.09152h1.31932l-2.852,4.70207-2.94777-4.70207h1.41075V19.80157m8.151,14.23293V25.09974h1.37591l-2.94342-4.73386-2.85633,4.73386h1.28883V34.0345h3.135"/></g></svg>