<svg xmlns="http://www.w3.org/2000/svg" viewBox="0 0 44 44"><g id="d0_t14_cc-jpn_1p0_2p1027_1s1"><path id="Hintergrund" d="M41.74,21.37308a.88594.88594,0,0,1,0,1.25384L22.62692,41.74a.88594.88594,0,0,1-1.25384,0L2.26,22.62692a.88594.88594,0,0,1,0-1.25384L21.37308,2.26a.88594.88594,0,0,1,1.25384,0Z" fill="#010101"/><path id="Rahmen" d="M22,2.96265,2.96265,22,22,41.03735,41.03735,22Zm1.3389,2.47029L38.56706,20.6611a1.891,1.891,0,0,1,0,2.6778L23.3389,38.56706a1.891,1.891,0,0,1-2.6778,0L5.43294,23.3389a1.891,1.891,0,0,1,0-2.6778L20.6611,5.43294A1.891,1.891,0,0,1,23.3389,5.43294Z" fill="#00f300"/><path id="Piktogramm" d="M18.22011,13.87908c.31351,0,2.26526,3.97045,2.26526,3.97045.31351.70377.50515,1.69466-1.13263.58757V29.85089a.27179.27179,0,0,1-.27.27h-1.7252a.27179.27179,0,0,1-.27-.27V18.4371c-1.63778,1.10709-1.44614.1162-1.13262-.58757,0,0,1.95174-3.97045,2.26525-3.97045Zm7.55978,16.24184c.31351,0,2.26525-3.97045,2.26525-3.97045.31352-.70377.50516-1.69466-1.13262-.58757V14.14911a.27179.27179,0,0,0-.27-.27h-1.7252a.27179.27179,0,0,0-.27.27V25.5629c-1.63778-1.10709-1.44614-.1162-1.13263.58757C23.51463,26.15047,25.46638,30.12092,25.77989,30.12092Z" fill="#00f300"/></g></svg>