<svg xmlns="http://www.w3.org/2000/svg" viewBox="0 0 44 44"><g id="d0_t14_cc-nzl_1p0_2p1027_1s1"><circle id="Hintergrund" cx="22" cy="22" r="20" fill="#010101"/><path id="Rahmen" d="M22,2.49954A19.50046,19.50046,0,1,0,41.50044,22,19.50045,19.50045,0,0,0,22,2.49954ZM22,37A15,15,0,1,1,37,22,15,15,0,0,1,22,37Z" fill="#00f300"/><g id="Piktogramm"><path id="rect104" d="M15.33333,11.33333l3.2459,5.04249a.53339.53339,0,0,1-.64231.78569l-1.27027-.49486V27.33333H14V16.66665l-1.27027.49486a.53339.53339,0,0,1-.6423-.78569Z" fill="#00f300"/><path id="rect956" d="M27,34l-4.87265-7.56676a.80008.80008,0,0,1,.96342-1.17849L25,26V11.33333h4V26l1.90923-.74523a.80008.80008,0,0,1,.96341,1.17849Z" fill="#00f300"/></g></g></svg>