<svg id="Ebene_1" data-name="Ebene 1" xmlns="http://www.w3.org/2000/svg" xmlns:xlink="http://www.w3.org/1999/xlink" viewBox="0 0 44 44"><defs><style>.cls-1{fill:url(#Hintergrund_weiss);}.cls-2{fill:url(#Rahmen_rot);}.cls-3{fill:url(#Beschriftung_schwarz);}.cls-4{fill:url(#Beschriftung_schwarz-2);}.cls-5{fill:url(#Beschriftung_schwarz-3);}</style><linearGradient id="Hintergrund_weiss" x1="2.00206" y1="22.00194" x2="42.00184" y2="22.00194" gradientUnits="userSpaceOnUse"><stop offset="1" stop-color="#000"/><stop offset="1"/></linearGradient><linearGradient id="Rahmen_rot" x1="3.09257" y1="21.99998" x2="40.90747" y2="21.99998" gradientUnits="userSpaceOnUse"><stop offset="1" stop-color="#00f300"/><stop offset="1"/></linearGradient><linearGradient id="Beschriftung_schwarz" x1="11" y1="22.00012" x2="17" y2="22.00012" gradientUnits="userSpaceOnUse"><stop offset="1" stop-color="#00f300"/></linearGradient><linearGradient id="Beschriftung_schwarz-2" x1="19" y1="22.00012" x2="25" y2="22.00012" xlink:href="#Beschriftung_schwarz"/><linearGradient id="Beschriftung_schwarz-3" x1="27" y1="22.00012" x2="33" y2="22.00012" xlink:href="#Beschriftung_schwarz"/></defs><g id="Hintergrund"><circle id="Hintergrund_weiss-2" data-name="Hintergrund weiss-2" class="cls-1" cx="22.00195" cy="22.00194" r="19.99989"/></g><path id="Rahmen_rot-2" data-name="Rahmen rot-2" class="cls-2" d="M22,3.09256A18.90744,18.90744,0,1,0,40.90743,22h0a18.86977,18.86977,0,0,0-18.832-18.90743Q22.03772,3.09249,22,3.09256ZM22,35.9624A13.96241,13.96241,0,1,1,35.96241,22h0A13.966,13.966,0,0,1,22,35.9624Z"/><g id="Speedlimit_dummy" data-name="Speedlimit dummy"><g id="V1-2"><rect class="cls-3" x="11" y="21.00012" width="6" height="2"/><rect class="cls-4" x="19" y="21.00012" width="6" height="2"/><rect class="cls-5" x="27" y="21.00012" width="6" height="2"/></g></g></svg>