<svg xmlns="http://www.w3.org/2000/svg" xmlns:xlink="http://www.w3.org/1999/xlink" viewBox="0 0 44 44"><defs><linearGradient id="Hintergrund_weiss" x1="1.9998" y1="29.69681" x2="42.0002" y2="29.69681" gradientUnits="userSpaceOnUse"><stop offset="0" stop-color="#fff"/></linearGradient><linearGradient id="Rahmen_schwarz" x1="2" y1="29.55" x2="42" y2="29.55" gradientUnits="userSpaceOnUse"><stop offset="0" stop-color="#010101"/></linearGradient><linearGradient id="Beschriftung_schwarz" x1="7.52324" y1="30.05265" x2="37.19805" y2="30.05265" xlink:href="#Rahmen_schwarz"/></defs><title>speedlimit_school_work_usa_can_140</title><g id="speedlimit_school_work_usa_can_140"><rect id="Hintergrund_weiss-2" data-name="Hintergrund_weiss" x="1.9998" y="17.39363" width="40.00039" height="24.60637" rx="2.2107" fill="url(#Hintergrund_weiss)"/><path id="Rahmen_schwarz-2" data-name="Rahmen_schwarz" d="M39.8,18.1A1.15536,1.15536,0,0,1,41,19.3V39.8A1.15536,1.15536,0,0,1,39.8,41H4.2A1.15536,1.15536,0,0,1,3,39.8V19.3a1.15536,1.15536,0,0,1,1.2-1.2H39.8m0-1H4.2A2.21953,2.21953,0,0,0,2,19.3V39.8A2.21953,2.21953,0,0,0,4.2,42H39.8A2.21953,2.21953,0,0,0,42,39.8V19.3a2.21953,2.21953,0,0,0-2.2-2.2Z" fill="url(#Rahmen_schwarz)" stroke-width="0.5px" stroke="url(#Rahmen_schwarz)"/><path id="Beschriftung_schwarz-2" data-name="Beschriftung_schwarz" d="M11.29863,38.41545H8.94805V24.64006H7.52324V22.74064a2.3845,2.3845,0,0,0,2.02539-1.07519h1.75Zm13.47461-4.04981H23.67266v4.04981H21.24785V34.36564h-6.75V32.26506l6.92481-10.59961h2.25V32.14006h1.10058Zm-3.52539-2.25V26.14006l-3.89941,5.97558Zm10.97461,6.59961a4.01516,4.01516,0,0,1-3.77441-2.16211,13.806,13.806,0,0,1-1.2002-6.51269,13.74793,13.74793,0,0,1,1.2002-6.47461,4.01142,4.01142,0,0,1,3.77441-2.17578,4.01287,4.01287,0,0,1,3.77539,2.17578,13.76,13.76,0,0,1,1.2002,6.47461,13.81808,13.81808,0,0,1-1.2002,6.51269A4.01662,4.01662,0,0,1,32.22246,38.71525Zm0-2.34961a2.01792,2.01792,0,0,0,1.97559-1.52539,14.43053,14.43053,0,0,0,.59961-4.84961,13.77007,13.77007,0,0,0-.59961-4.75,2.05034,2.05034,0,0,0-3.9502,0,13.74117,13.74117,0,0,0-.60058,4.75,14.4001,14.4001,0,0,0,.60058,4.84961A2.01609,2.01609,0,0,0,32.22246,36.36564Z" fill="url(#Beschriftung_schwarz)"/></g></svg>