<svg xmlns="http://www.w3.org/2000/svg" xmlns:xlink="http://www.w3.org/1999/xlink" viewBox="0 0 44 44"><defs><linearGradient id="Hintergrund_weiss" x1="1.9998" y1="29.69681" x2="42.0002" y2="29.69681" gradientUnits="userSpaceOnUse"><stop offset="0" stop-color="#fff"/></linearGradient><linearGradient id="Rahmen_schwarz" x1="2" y1="29.55" x2="42" y2="29.55" gradientUnits="userSpaceOnUse"><stop offset="0" stop-color="#010101"/></linearGradient><linearGradient id="Beschriftung_schwarz" x1="7.53203" y1="30.05217" x2="37.20684" y2="30.05217" xlink:href="#Rahmen_schwarz"/></defs><title>speedlimit_school_work_usa_can_120</title><g id="speedlimit_school_work_usa_can_120"><rect id="Hintergrund_weiss-2" data-name="Hintergrund_weiss" x="1.9998" y="17.39363" width="40.00039" height="24.60637" rx="2.2107" fill="url(#Hintergrund_weiss)"/><path id="Rahmen_schwarz-2" data-name="Rahmen_schwarz" d="M39.8,18.1A1.15536,1.15536,0,0,1,41,19.3V39.8A1.15536,1.15536,0,0,1,39.8,41H4.2A1.15536,1.15536,0,0,1,3,39.8V19.3a1.15536,1.15536,0,0,1,1.2-1.2H39.8m0-1H4.2A2.21953,2.21953,0,0,0,2,19.3V39.8A2.21953,2.21953,0,0,0,4.2,42H39.8A2.21953,2.21953,0,0,0,42,39.8V19.3a2.21953,2.21953,0,0,0-2.2-2.2Z" fill="url(#Rahmen_schwarz)" stroke-width="0.5px" stroke="url(#Rahmen_schwarz)"/><path id="Beschriftung_schwarz-2" data-name="Beschriftung_schwarz" d="M11.30742,38.41447H8.95684V24.63908H7.532V22.74064a2.38538,2.38538,0,0,0,2.02539-1.07617h1.75Zm13.07422,0H15.032a12.3559,12.3559,0,0,1,1.29981-4.9375,14.54626,14.54626,0,0,1,3.85058-4.96289,8.30751,8.30751,0,0,0,1.41211-1.39844,2.07925,2.07925,0,0,0,.48731-1.22656,2.05237,2.05237,0,0,0-.6875-1.46094,2.3501,2.3501,0,0,0-4.0127,1.66211H15.032a4.84616,4.84616,0,0,1,1.3877-3.27539,4.36254,4.36254,0,0,1,3.3125-1.42578,4.6956,4.6956,0,0,1,3.28711,1.25,4.09592,4.09592,0,0,1,1.3623,3.15039,4.01075,4.01075,0,0,1-.6875,2.3125A10.32421,10.32421,0,0,1,22.032,29.99064a21.33162,21.33162,0,0,0-2.52539,2.8125A8.802,8.802,0,0,0,17.907,36.06486h6.47461Zm7.84961.30078a4.01516,4.01516,0,0,1-3.77441-2.16211,13.81034,13.81034,0,0,1-1.2002-6.51367,13.7505,13.7505,0,0,1,1.2002-6.47461,4.01308,4.01308,0,0,1,3.77441-2.17578,4.01453,4.01453,0,0,1,3.77539,2.17578,13.76286,13.76286,0,0,1,1.2002,6.47461,13.82268,13.82268,0,0,1-1.2002,6.51367A4.01662,4.01662,0,0,1,32.23125,38.71525Zm0-2.34961a2.02013,2.02013,0,0,0,1.97559-1.52539,14.43448,14.43448,0,0,0,.5996-4.84961,13.76632,13.76632,0,0,0-.5996-4.75,2.05034,2.05034,0,0,0-3.9502,0,13.73733,13.73733,0,0,0-.60059,4.75,14.404,14.404,0,0,0,.60059,4.84961A2.01827,2.01827,0,0,0,32.23125,36.36564Z" fill="url(#Beschriftung_schwarz)"/></g></svg>