<svg xmlns="http://www.w3.org/2000/svg" viewBox="0 0 40 40"><g id="E00B_data_gsm"><g id="E00B_data_gsm-2" data-name="E00B data gsm"><path d="M19.70274,33.94057h-2.991V32.80586H21.085v5.515q-.23787.111-.503.20439-.26562.09383-.555.16651c-.192.04933-.39468.09338-.60611.13126-.21232.03788-.43345.07048-.66427.09515-.23082.02555-.47221.044-.72329.05726-.252.01322-.51361.02027-.78672.02027a5.93276,5.93276,0,0,1-2.08177-.341A3.91321,3.91321,0,0,1,13.61867,37.624a4.61435,4.61435,0,0,1-.962-1.7285,8.89353,8.89353,0,0,1-.1806-4.04284,5.69551,5.69551,0,0,1,.44313-1.34791,4.38053,4.38053,0,0,1,.72329-1.07481,3.99678,3.99678,0,0,1,.99816-.78672,4.88,4.88,0,0,1,1.26334-.48278,6.55936,6.55936,0,0,1,1.51529-.16474q.2828,0,.56736.01762c.18853.01233.3753.03.55766.052q.27486.03436.533.08458.259.05022.49423.11541a3.89448,3.89448,0,0,1,.43962.14536,3.31884,3.31884,0,0,1,.37.17v1.20255a4.22557,4.22557,0,0,0-.59026-.23346,6.53409,6.53409,0,0,0-.70215-.17708c-.24932-.04934-.50745-.08722-.77615-.11365q-.40173-.03963-.807-.03964a4.74809,4.74809,0,0,0-1.62983.25724,2.89746,2.89746,0,0,0-1.17964.78232,3.42114,3.42114,0,0,0-.718,1.32324,6.49277,6.49277,0,0,0-.24227,1.87739,7.50865,7.50865,0,0,0,.11981,1.4087A4.70892,4.70892,0,0,0,14.201,35.9765a3.16666,3.16666,0,0,0,.54533.82725,2.85609,2.85609,0,0,0,.725.56736,3.29578,3.29578,0,0,0,.88363.32508,4.82132,4.82132,0,0,0,1.01754.104c.23875,0,.46781-.007.68541-.022.2176-.01409.42463-.03348.61933-.059s.378-.05638.54974-.09339q.25636-.0555.47573-.12422Z" fill="#fff"/><path d="M2.61777,38.81948V37.76406l2.739-2.635q.44535-.42684.8202-.80434.3753-.37662.68277-.71976.30658-.34227.54-.659a4.942,4.942,0,0,0,.39292-.61758,2.9034,2.9034,0,0,0,.24051-.5973,2.28207,2.28207,0,0,0,.081-.60171,2.22138,2.22138,0,0,0-.13472-.79291,1.53313,1.53313,0,0,0-.40966-.60348,1.86017,1.86017,0,0,0-.696-.38058,3.34371,3.34371,0,0,0-.99639-.133q-.452,0-.85632.03612a7.16041,7.16041,0,0,0-.76822.10924,5.76224,5.76224,0,0,0-.6907.18324,4.63274,4.63274,0,0,0-.62462.26078v-1.214a3.69753,3.69753,0,0,1,.57441-.25813,5.29338,5.29338,0,0,1,.68012-.18853,6.76124,6.76124,0,0,1,.7876-.11453q.42023-.03834.90477-.03788a6.30594,6.30594,0,0,1,1.16907.09867,4.08636,4.08636,0,0,1,.92944.28367,2.65843,2.65843,0,0,1,.70039.45371,2.45644,2.45644,0,0,1,.48278.61053,2.73184,2.73184,0,0,1,.28015.75236,4.17569,4.17569,0,0,1,.089.881,3.34353,3.34353,0,0,1-.11452.88186,4.07044,4.07044,0,0,1-.32509.822,5.66564,5.66564,0,0,1-.50216.78584q-.29337.38586-.64841.77175-.35547.38587-.76646.77967-.411.39247-.84927.8017L4.48105,37.68124h5.4815v1.13824Z" fill="#fff"/></g></g></svg>