<svg xmlns="http://www.w3.org/2000/svg" viewBox="0 0 40 40"><g id="E00C_data_umts"><g id="E00D_data_cdma-2" data-name="E00D data cdma"><path d="M2.84418,37.23064q.28279.115.62638.22025c.22818.07048.47221.133.73034.18677s.53036.09691.81668.1295a7.78262,7.78262,0,0,0,.881.04846,3.84068,3.84068,0,0,0,1.07393-.13655,2.30433,2.30433,0,0,0,.78407-.38411,1.63447,1.63447,0,0,0,.48278-.59555,1.78915,1.78915,0,0,0,.16563-.77615,2.00638,2.00638,0,0,0-.17091-.83606,1.73455,1.73455,0,0,0-.50921-.64664,2.42687,2.42687,0,0,0-.84927-.41407,4.37012,4.37012,0,0,0-1.192-.14536H4.67137v-1.1488H5.68362a3.71952,3.71952,0,0,0,.99287-.1207,1.98841,1.98841,0,0,0,.72506-.3568,1.52858,1.52858,0,0,0,.44489-.58938,2.02238,2.02238,0,0,0,.15242-.81491,1.67129,1.67129,0,0,0-.07136-.50041,1.49165,1.49165,0,0,0-.20263-.41319,1.4392,1.4392,0,0,0-.32156-.3242A1.82457,1.82457,0,0,0,6.976,29.381a2.56813,2.56813,0,0,0-.5189-.13831,3.68339,3.68339,0,0,0-.59731-.0467,6.57526,6.57526,0,0,0-.78672.0467,6.72618,6.72618,0,0,0-.73739.1295,6.07854,6.07854,0,0,0-.6625.19206,4.5,4.5,0,0,0-.54885.23082V28.59253c.10219-.052.2176-.10484.34446-.15594s.26342-.09955.40878-.14536q.21936-.06873.45987-.12246.24051-.05286.49688-.089c.17091-.02466.34623-.04316.52595-.05814.17972-.0141.3612-.02114.54621-.02114a5.75377,5.75377,0,0,1,1.50561.17795,3.02881,3.02881,0,0,1,1.10211.52948,2.24953,2.24953,0,0,1,.6766.87394,2.972,2.972,0,0,1,.22994,1.20783,2.82312,2.82312,0,0,1-.09867.75412,2.49019,2.49019,0,0,1-.29249.66779,2.6313,2.6313,0,0,1-.47926.56383,2.96962,2.96962,0,0,1-.659.44138,3.35292,3.35292,0,0,1,.851.45722,2.77967,2.77967,0,0,1,.60524.62463,2.62929,2.62929,0,0,1,.36208.7647,3.11659,3.11659,0,0,1,.1207.87128,3.19516,3.19516,0,0,1-.10836.84311,2.622,2.622,0,0,1-.86337,1.35407,3.207,3.207,0,0,1-.75677.466,4.42922,4.42922,0,0,1-.97525.29866,6.40726,6.40726,0,0,1-1.1955.104q-.50217,0-.94618-.03965a7.8723,7.8723,0,0,1-.829-.11541,5.8945,5.8945,0,0,1-.71448-.18412,4.11394,4.11394,0,0,1-.59731-.2502Z" fill="#fff"/><path d="M19.70629,33.94544H16.71618V32.81073h4.37234v5.515q-.23787.111-.503.20439-.26562.09383-.555.16651-.28808.074-.60612.13126c-.21143.03788-.43344.07048-.66426.09515-.23082.02555-.47221.044-.72329.05726s-.51362.02027-.78584.02027a5.94123,5.94123,0,0,1-2.08265-.341,3.91031,3.91031,0,0,1-1.54526-1.03075,4.59021,4.59021,0,0,1-.962-1.7285,8.91443,8.91443,0,0,1-.18149-4.04284,5.73693,5.73693,0,0,1,.44314-1.34791,4.40575,4.40575,0,0,1,.72329-1.07481,4.01239,4.01239,0,0,1,.99816-.78672,4.88644,4.88644,0,0,1,1.26421-.48278,6.55687,6.55687,0,0,1,1.51442-.16474q.28411,0,.56736.01762.28411.01848.55854.052c.18325.02291.36032.0511.533.08458s.33654.07224.49335.11541a3.89366,3.89366,0,0,1,.43961.14536,3.319,3.319,0,0,1,.37.17V29.788a4.22509,4.22509,0,0,0-.59026-.23346,6.47842,6.47842,0,0,0-.70215-.17708c-.24844-.04934-.50745-.08722-.77527-.11365s-.5374-.03964-.80786-.03964a4.74813,4.74813,0,0,0-1.62983.25724,2.90337,2.90337,0,0,0-1.17964.78232,3.43267,3.43267,0,0,0-.718,1.32324,6.49346,6.49346,0,0,0-.24228,1.87739,7.50568,7.50568,0,0,0,.1207,1.4087,4.7103,4.7103,0,0,0,.34447,1.10827,3.18885,3.18885,0,0,0,.54533.82725,2.86019,2.86019,0,0,0,.72593.56736,3.279,3.279,0,0,0,.88275.32508,4.834,4.834,0,0,0,1.01754.104c.23963,0,.4678-.007.68629-.022q.3264-.02113.61933-.059.292-.03833.54886-.09339.25636-.0555.47573-.12422Z" fill="#fff"/></g></g></svg>