<svg id="E013_mic_off" xmlns="http://www.w3.org/2000/svg" viewBox="0 0 40 40"><defs><style>.cls-1,.cls-2{fill:#fff;}.cls-1,.cls-3{stroke:#fff;stroke-miterlimit:10;}.cls-1{stroke-width:1.2px;}.cls-3{fill:none;stroke-width:1.5px;fill-rule:evenodd;}</style></defs><line class="cls-1" x1="20" y1="29.5" x2="20" y2="39.6"/><line class="cls-1" x1="14" y1="39.4" x2="26" y2="39.4"/><line class="cls-1" x1="18" y1="7.5" x2="14.5" y2="7.5"/><line class="cls-1" x1="18" y1="17.5" x2="14.5" y2="17.5"/><line class="cls-1" x1="18" y1="12.5" x2="14.5" y2="12.5"/><rect class="cls-2" x="22" y="6.8999" width="3.5" height="1.2002"/><path class="cls-3" d="M2.68636,36.33359,37.31364,3.7432"/><path class="cls-2" d="M11.76044,24.01691A9.34014,9.34014,0,0,1,10.6001,19.5H9.3999a10.5188,10.5188,0,0,0,1.46869,5.35632Z"/><path class="cls-2" d="M20,28.90039a9.33083,9.33083,0,0,1-4.29089-1.04651l-.91986.86579A10.58464,10.58464,0,0,0,30.59961,19.5H29.40039A9.41078,9.41078,0,0,1,20,28.90039Z"/><polygon class="cls-2" points="24.635 11.9 22 11.9 22 13.1 23.359 13.1 24.635 11.9"/><path class="cls-2" d="M15.19,20.78906a4.88064,4.88064,0,0,1-.0899-.88916V6.1001a4.90015,4.90015,0,0,1,9.80029,0v5.54968l1.19922-1.12866V6.1001a6.09986,6.09986,0,1,0-12.19971,0V19.8999a6.07607,6.07607,0,0,0,.28363,1.83643Z"/><path class="cls-2" d="M24.90039,19.20294v.697a4.884,4.884,0,0,1-5.84589,4.80524l-1.02294.96283a6.08539,6.08539,0,0,0,8.06805-5.76807V18.07422Z"/></svg>