<svg xmlns="http://www.w3.org/2000/svg" viewBox="0 0 40 40"><g id="E01B_audio_low_signal"><path d="M6.8115,33.44332l27-30" fill="none" stroke="#fff" stroke-width="1.5"/><path d="M30.777,10.9259l-.81592.90662a20.4968,20.4968,0,0,1,8.50378,9.251l1.0893-.49878A21.70283,21.70283,0,0,0,30.777,10.9259Z" fill="#fff"/><path d="M20,9.2085a20.26422,20.26422,0,0,1,4.4751.4978L25.377,8.70422A21.42935,21.42935,0,0,0,.4292,20.61914l1.09021.49683A20.342,20.342,0,0,1,20,9.2085Z" fill="#fff"/><path d="M18.55389,16.2854,19.70258,15.009A14.54744,14.54744,0,0,0,6.78265,23.51465l1.0904.497A13.36281,13.36281,0,0,1,18.55389,16.2854Z" fill="#fff"/><path d="M25.95453,16.28418l-.84772.94189a13.42888,13.42888,0,0,1,7.00989,6.76416l1.08942-.49877A14.64241,14.64241,0,0,0,25.95453,16.28418Z" fill="#fff"/><path d="M21.47308,21.26367l-.98565,1.09522a7.22529,7.22529,0,0,1,6.08532,4.16992l1.0893-.49878A8.443,8.443,0,0,0,21.47308,21.26367Z" fill="#fff"/></g></svg>