<svg xmlns="http://www.w3.org/2000/svg" viewBox="0 0 40 40"><g id="E02A_phone_car"><path d="M3.6,18.5c-.1.1-.1.1-.1.2v8.8c0,1.5-.3,3,1,3h3c.8,0,1-.3,1-1v-1h24v1a1.07539,1.07539,0,0,0,1,1h3c1.3,0,1-1.6,1-3V18.7c0-.1,0-.2-.1-.2a10.8706,10.8706,0,0,0-3.3-2.7c-1.3-.5-26.6-.4-27.3-.1A14.31555,14.31555,0,0,0,3.6,18.5Z" fill="none" stroke="#fff" stroke-width="1.2"/><path d="M35,16.3S31.5,9.2,30.3,9c-4.1-.6-16.1-.6-19.6,0-1.2.2-4.9,7.3-4.9,7.3" fill="none" stroke="#fff" stroke-width="1.2"/><path d="M15.6,26.6c-2.4-.1-3.2-4.9-3.2-4.9l1.9-2.1H26.9l1.9,2.1s-.8,4.8-3.2,4.9Z" fill="none" stroke="#fff" stroke-width="1.2"/><path d="M35.5,20.5c-1,1.1-2.7,0-2.7,0H30.1L28,19l8-.8A2.17587,2.17587,0,0,1,35.5,20.5Zm-27.3,0s-1.6,1.1-2.7,0a1.973,1.973,0,0,1-.4-2.3l8,.8-2.2,1.5Z" fill="#fff"/></g></svg>