<svg xmlns="http://www.w3.org/2000/svg" viewBox="0 0 40 40"><g id="E784_connect_app_radio_online_source"><path d="M.6,8.5H39.4v23H.6V24.69238L6.27216,20,.6,14.94477Z" fill="none" stroke="#fff" stroke-width="1.2"/><g style="isolation:isolate"><path d="M16.06713,25.38354l-2.15994-7.39168c-.03264-.10829-.06824-.23142-.10385-.36889q-.05489-.20547-.10681-.44307c-.03362-.15823-.06725-.32142-.0989-.48954-.03263-.16813-.06131-.33626-.088-.50439-.02868.16813-.06032.33626-.093.50439q-.05044.25218-.10088.48954c-.03461.15824-.06923.30609-.10285.44307-.03462.13747-.06824.2606-.10187.36889l-2.153,7.39168H9.618l-3.26069-11H7.724l2.2361,7.9925c.03066.10879.06231.21757.094.32636.03263.10879.0623.21758.091.32835.02967.10977.05736.22054.08505.33131.0277.11175.05341.22549.07813.3412.01978-.11571.04154-.22945.06627-.3412.02472-.11077.04945-.22154.07615-.33131.0267-.11077.05439-.21956.085-.32835.02967-.10879.06132-.21757.094-.32636l2.249-7.9925h1.26392l2.25292,8.00338c.03362.11076.06428.22153.09494.33032.02967.10879.05835.21757.086.32834.02769.10978.05242.22055.07615.33329.02275.11274.0455.22549.06824.33922.02176-.11373.04648-.22648.0722-.33922.0267-.11274.05538-.22351.085-.33329.02967-.11077.06132-.21955.09494-.32834.03264-.10879.06627-.21956.0989-.33032L19.311,14.38354h1.351l-3.25772,11Z" fill="#fff"/><path d="M22.32346,25.38354v-11h6.25237v1.17937H23.60024v3.60881h4.27638v1.17195H23.60024v3.864h4.98944v1.1759Z" fill="#fff"/><path d="M30.68732,25.38354v-11h2.91553a5.12354,5.12354,0,0,1,1.49337.19484,2.84371,2.84371,0,0,1,1.06118.56718,2.298,2.298,0,0,1,.63394.91976A3.5127,3.5127,0,0,1,37,17.31737a3.37851,3.37851,0,0,1-.088.79515,2.4664,2.4664,0,0,1-.2522.64927,2.16047,2.16047,0,0,1-.40251.50982,2.45533,2.45533,0,0,1-.54493.38175,2.96447,2.96447,0,0,1,.74174.42675,2.60523,2.60523,0,0,1,.55581.60476,2.697,2.697,0,0,1,.34812.76745,3.329,3.329,0,0,1,.11967.91284,3.89976,3.89976,0,0,1-.09.86042,2.73941,2.73941,0,0,1-.27494.7358,2.378,2.378,0,0,1-.47274.59933,2.66668,2.66668,0,0,1-.68042.446,3.749,3.749,0,0,1-.894.27988,5.84287,5.84287,0,0,1-1.11756.09692Zm2.872-6.13418a3.40257,3.40257,0,0,0,.97415-.12214,1.63058,1.63058,0,0,0,.65867-.364,1.41289,1.41289,0,0,0,.37285-.59487,2.59046,2.59046,0,0,0,.11769-.81443,1.9555,1.9555,0,0,0-.13747-.75262,1.43683,1.43683,0,0,0-.41834-.5657,1.93237,1.93237,0,0,0-.70911-.35406A3.716,3.716,0,0,0,33.407,15.559H31.9641v3.6904Zm.25912,4.96224a3.82793,3.82793,0,0,0,1.05327-.12758,1.949,1.949,0,0,0,.72789-.36988,1.44978,1.44978,0,0,0,.42329-.59142,2.15541,2.15541,0,0,0,.13747-.79514,2.44113,2.44113,0,0,0-.12758-.812,1.545,1.545,0,0,0-.39758-.6196,1.8059,1.8059,0,0,0-.69031-.39312,3.24605,3.24605,0,0,0-1.00382-.13747h-1.977V24.2116Z" fill="#fff"/></g></g></svg>