<svg id="Icon" xmlns="http://www.w3.org/2000/svg" viewBox="0 0 40 40"><defs><style>.cls-1,.cls-2{fill:none;stroke:#fff;}.cls-1{stroke-width:1.2px;}.cls-2{stroke-width:1.2px;}.cls-3{fill:#fff;}</style></defs><path class="cls-1" d="M32,24.1a7.4,7.4,0,1,1-7.4,7.4A7.39736,7.39736,0,0,1,32,24.1Z"/><path class="cls-2" d="M32,24.15c1.5,0,2.8,3.36275,2.8,7.398S33.6,38.85,32,38.85c-1.5,0-2.8-3.26666-2.8-7.302S30.5,24.15,32,24.15Z"/><path class="cls-2" d="M38.1,27.31558A13.97184,13.97184,0,0,1,32,28.48442a13.97184,13.97184,0,0,1-6.1-1.16884"/><path class="cls-2" d="M25.8,35.73312A13.00994,13.00994,0,0,1,32,34.46688a13.00994,13.00994,0,0,1,6.2,1.26624"/><path class="cls-2" d="M24.7,31.5H39.3"/><path class="cls-3" d="M23.51105,27.90039H1.2002V6.1001H38.80078V25.31689A9.18472,9.18472,0,0,1,40,26.96014V4.8999H0V29.09961H23.11761A9.19852,9.19852,0,0,1,23.51105,27.90039Z"/><path class="cls-3" d="M5.146,22V11H8.74052a6.66591,6.66591,0,0,1,1.65282.18719,4.56763,4.56763,0,0,1,1.28546.53233A3.74821,3.74821,0,0,1,12.63,12.556a4.42163,4.42163,0,0,1,.64577,1.10131,6.04912,6.04912,0,0,1,.36391,1.32427,9.56627,9.56627,0,0,1,.11432,1.50754,9.15952,9.15952,0,0,1-.11869,1.50536,6.0005,6.0005,0,0,1-.37263,1.3282,4.46454,4.46454,0,0,1-.65886,1.10654,3.80279,3.80279,0,0,1-.97041.84388,4.66486,4.66486,0,0,1-1.30726.53756A6.76687,6.76687,0,0,1,8.65063,22Zm3.43658-1.14931a4.88714,4.88714,0,0,0,1.179-.13177,3.29026,3.29026,0,0,0,.93376-.384,2.73908,2.73908,0,0,0,.70773-.62483,3.32086,3.32086,0,0,0,.48957-.85348,4.99688,4.99688,0,0,0,.28362-1.06814,8.30192,8.30192,0,0,0,.09163-1.27716A8.51525,8.51525,0,0,0,12.178,15.232a5.01813,5.01813,0,0,0-.28013-1.07775,3.32777,3.32777,0,0,0-.48172-.85652,2.67391,2.67391,0,0,0-.70337-.627,3.28363,3.28363,0,0,0-.93986-.38572,4.94658,4.94658,0,0,0-1.19032-.13178H6.59026v8.69746Z"/><path class="cls-3" d="M23.48064,22l-1.03237-2.79254H17.47668L16.44867,22H14.966l4.23681-11H20.771l4.263,11ZM20.4071,13.61845c-.08465-.21512-.16668-.44158-.24347-.67894a6.41417,6.41417,0,0,1-.192-.73392,6.92616,6.92616,0,0,1-.20944.73217q-.12436.35409-.2365.68069l-1.62142,4.376h4.105Z"/><path class="cls-3" d="M27.05938,22V11H30.3572a6.51872,6.51872,0,0,1,1.68862.19461,3.36618,3.36618,0,0,1,1.20079.56767,2.309,2.309,0,0,1,.71733.91979,3.13772,3.13772,0,0,1,.2365,1.25141,2.99525,2.99525,0,0,1-.09949.79587,2.31984,2.31984,0,0,1-.28536.64883,2.21038,2.21038,0,0,1-.45641.51008,2.81785,2.81785,0,0,1-.61523.38223,3.45731,3.45731,0,0,1,.83864.4263,2.753,2.753,0,0,1,.62832.60432,2.56491,2.56491,0,0,1,.39445.76751,2.99037,2.99037,0,0,1,.13526.91282,3.51922,3.51922,0,0,1-.10123.86045,2.58146,2.58146,0,0,1-.31154.73566,2.42928,2.42928,0,0,1-.53495.59952,3.06989,3.06989,0,0,1-.76969.44681,4.75462,4.75462,0,0,1-1.01056.28013A7.63956,7.63956,0,0,1,30.74816,22Zm3.249-6.134a4.2879,4.2879,0,0,0,1.10218-.12261,1.922,1.922,0,0,0,.74439-.363,1.411,1.411,0,0,0,.42237-.59559,2.29839,2.29839,0,0,0,.13265-.81377,1.75958,1.75958,0,0,0-.15534-.75311,1.461,1.461,0,0,0-.473-.56549,2.30164,2.30164,0,0,0-.80285-.3543,4.71617,4.71617,0,0,0-1.14233-.12218H28.50365V15.866Zm.29322,4.962a4.898,4.898,0,0,0,1.19119-.1274,2.334,2.334,0,0,0,.8238-.36914,1.48309,1.48309,0,0,0,.47822-.59167,1.94194,1.94194,0,0,0,.15621-.79588,2.19026,2.19026,0,0,0-.14486-.81245,1.53031,1.53031,0,0,0-.4503-.61873,2.12253,2.12253,0,0,0-.78017-.39313,4.12172,4.12172,0,0,0-1.13534-.137H28.50365V20.828Z"/></svg>