<svg id="Icon" xmlns="http://www.w3.org/2000/svg" viewBox="0 0 40 40"><defs><style>.cls-1,.cls-2{fill:none;stroke:#fff;}.cls-1{stroke-width:1.2px;}.cls-2{stroke-width:1.2px;}.cls-3{fill:#fff;}</style></defs><path class="cls-1" d="M32,24.1a7.4,7.4,0,1,1-7.4,7.4A7.39736,7.39736,0,0,1,32,24.1Z"/><path class="cls-2" d="M32,24.15c1.5,0,2.8,3.36275,2.8,7.398S33.6,38.85,32,38.85c-1.5,0-2.8-3.26666-2.8-7.302S30.5,24.15,32,24.15Z"/><path class="cls-2" d="M38.1,27.31558A13.97184,13.97184,0,0,1,32,28.48442a13.97184,13.97184,0,0,1-6.1-1.16884"/><path class="cls-2" d="M25.8,35.73312A13.00994,13.00994,0,0,1,32,34.46688a13.00994,13.00994,0,0,1,6.2,1.26624"/><path class="cls-2" d="M24.7,31.5H39.3"/><path class="cls-3" d="M23.51105,27.90039H1.2002V6.1001H38.80078V25.31689A9.18472,9.18472,0,0,1,40,26.96014V4.8999H0V29.09961H23.11761A9.19852,9.19852,0,0,1,23.51105,27.90039Z"/><path class="cls-3" d="M10,21.9009V11h6.7v1.18919H11.5v3.86487h4.8v1.18919H11.5V22H10Z"/><path class="cls-3" d="M28.5,21.9009V13.57658a2.16356,2.16356,0,0,1,.1-.79279,2.95652,2.95652,0,0,1-.4.79279,4.29922,4.29922,0,0,1-.4.6937l-2.9,4.55855h-.8l-2.9-4.55855c-.1-.0991-.1-.1982-.2-.2973s-.1-.1982-.2-.3964-.1-.2973-.2-.3964-.1-.29729-.2-.39639a2.16359,2.16359,0,0,0,.1.79279V21.9009H19.1V11h1.6l3.2,5.25225.3.59459.3.5946.3-.5946.3-.59459L28.3,11h1.6V21.90089Z"/></svg>