<svg xmlns="http://www.w3.org/2000/svg" viewBox="0 0 40 40"><title>E044_media_podcasts</title><g id="E044_media_podcasts"><path d="M20.00039,14.54118a3.5691,3.5691,0,1,1-3.54217,3.56938A3.55551,3.55551,0,0,1,20.00039,14.54118Z" fill="none" stroke="#fff" stroke-width="1.2"/><path d="M11.90012,25.05665a10.636,10.636,0,1,1,16.19963.0004" fill="none" stroke="#fff" stroke-width="1.2"/><path d="M10.93907,32.99692A17.48881,17.48881,0,0,1,20.0019.64863a17.48926,17.48926,0,0,1,9.06045,32.34806" fill="none" stroke="#fff" stroke-width="1.2"/><path d="M17.77821,24.53579h4.52415c1.17235,0,2.431.661,2.431,2.99747L23.2067,39.29458H16.87387L15.26662,27.53326C15.26662,25.32586,16.60668,24.53579,17.77821,24.53579Z" fill="none" stroke="#fff" stroke-linejoin="round" stroke-width="1.2"/></g></svg>