<svg xmlns="http://www.w3.org/2000/svg" viewBox="0 0 40 40"><g id="E051_phone_missed_call"><path d="M20.00732,23.71106c.63672,0,1.24659.00915,1.88965.02539,6.47266.1637,13.2461,1.33777,14.251,2.1842,1.18506.99756,2.13818,5.0481,2.166,6.402a17.72356,17.72356,0,0,1-3.92285.3346,16.16892,16.16892,0,0,1-4.10351-.3833,3.39133,3.39133,0,0,1-.09961-.91675,6.47482,6.47482,0,0,0-.23975-1.799c-.6084-2.06409-2.95556-2.49317-7.98584-2.6742-.70849-.02539-1.32959-.03723-1.95556-.03723s-1.27051.01221-1.96924.03736c-5.02979.18078-7.37647.60974-7.98535,2.6737A6.48138,6.48138,0,0,0,9.812,31.35742a3.369,3.369,0,0,1-.09961.91638,16.17029,16.17029,0,0,1-4.104.3833,17.32989,17.32989,0,0,1-3.91455-.33483c.03125-1.4021.98047-5.41,2.1582-6.40174,1.00488-.84631,7.77832-2.02038,14.251-2.18408.68945-.01733,1.3081-.02539,1.90332-.02539h.001m-.001-1.2c-.60449,0-1.23291.00806-1.9336.02576-5.67627.14355-13.478,1.18945-14.99365,2.46582-1.727,1.454-2.88525,6.93762-2.50732,8.02966.18945.54761,2.60742.82483,5.03662.82483,2.415,0,4.84131-.27417,5.09765-.82923.51465-1.1134.12549-1.87158.49707-3.13037.32813-1.11255,1.67774-1.62732,6.87745-1.81421.6997-.02514,1.32519-.03662,1.92627-.03662.64453,0,1.26123.01319,1.91259.0365,5.2002.18714,6.54981.70178,6.87793,1.81446.3711,1.25866-.01806,2.01684.49659,3.13024.25683.55518,2.68212.82923,5.09716.82923,2.4292,0,4.84766-.27735,5.03711-.82483.37793-1.092-.78027-6.57581-2.50732-8.02966-1.51563-1.27637-9.31738-2.32227-14.99365-2.46582-.65381-.01648-1.27393-.02576-1.9209-.02576Z" fill="red"/><line x1="13.90625" y1="6.14282" x2="26.90625" y2="19.14282" fill="none" stroke="red" stroke-miterlimit="10" stroke-width="1.2"/><line x1="26.90625" y1="6.14282" x2="13.90625" y2="19.14282" fill="none" stroke="red" stroke-miterlimit="10" stroke-width="1.2"/></g></svg>