<svg xmlns="http://www.w3.org/2000/svg" viewBox="0 0 40 40"><defs><style>.cls-1{fill:#fff;}</style></defs><g id="E05C_phone_audi_service"><path id="V2" class="cls-1" d="M33.04248,13.03675a6.97262,6.97262,0,0,0-4.34787,1.52611,6.8849,6.8849,0,0,0-4.34788-1.52611A6.97185,6.97185,0,0,0,20,14.56286a6.955,6.955,0,0,0-8.69461,0,6.96325,6.96325,0,1,0,0,10.87428,6.955,6.955,0,0,0,8.69461,0,6.97185,6.97185,0,0,0,4.34673,1.52611,6.8849,6.8849,0,0,0,4.34788-1.52611,6.96115,6.96115,0,1,0,4.34787-12.40039ZM31.30539,20a6.89757,6.89757,0,0,0-1.43209-4.22863,5.2341,5.2341,0,0,1,3.16918-1.05716,5.28579,5.28579,0,0,1,0,10.57158,5.2341,5.2341,0,0,1-3.16918-1.05716A6.89757,6.89757,0,0,0,31.30539,20Zm-8.6946,0a6.89764,6.89764,0,0,0-1.43209-4.22863,5.27546,5.27546,0,0,1,6.33606,0,6.96357,6.96357,0,0,0,0,8.45726,5.27546,5.27546,0,0,1-6.33606,0A6.89764,6.89764,0,0,0,22.61079,20Zm7.01829,0a5.25294,5.25294,0,0,1-.93447,3.00063,5.27414,5.27414,0,0,1,0-6.00126A5.25294,5.25294,0,0,1,29.62908,20Zm-8.69461,0A5.24759,5.24759,0,0,1,20,23.00063a5.27948,5.27948,0,0,1,0-6.00126A5.24759,5.24759,0,0,1,20.93447,20ZM12.241,20a5.24281,5.24281,0,0,1-.93562,3.00063,5.27952,5.27952,0,0,1,0-6.00126A5.24281,5.24281,0,0,1,12.241,20Zm1.67517,0a6.899,6.899,0,0,0-1.43094-4.22863,5.27546,5.27546,0,0,1,6.33606,0,6.95913,6.95913,0,0,0,0,8.45726,5.27546,5.27546,0,0,1-6.33606,0A6.899,6.899,0,0,0,13.91618,20ZM10.1267,24.22863a5.2341,5.2341,0,0,1-3.16918,1.05716,5.28579,5.28579,0,0,1,0-10.57158,5.2341,5.2341,0,0,1,3.16918,1.05716,6.95913,6.95913,0,0,0,0,8.45726Z"/></g></svg>