<svg xmlns="http://www.w3.org/2000/svg" viewBox="0 0 40 40"><defs><style>.cls-1{fill:#fff;}</style></defs><g id="E061_audio_hd_radio"><g id="V2-2" data-name="V2"><path class="cls-1" d="M19,8.01819V9.27087a10.74151,10.74151,0,0,1,9.53839,10.65479A10.861,10.861,0,0,1,17.66547,30.75024H14.83179V9H13.5V20h-9V9H3.20911V32H4.5V21.24017h9V31.98889h4.19879l.12317-.00812A12.12884,12.12884,0,0,0,29.77728,19.92566,11.98387,11.98387,0,0,0,19,8.01819Z"/><path class="cls-1" d="M19,1.37939V2.58472A17.09033,17.09033,0,0,1,35.1568,19.876,17.20073,17.20073,0,0,1,19,37.42151v1.20538A18.37656,18.37656,0,0,0,36.355,19.876C36.355,9.887,29.06891,2.14893,19,1.37939Z"/></g></g></svg>