<?xml version="1.0" encoding="UTF-8"?>
<svg id="Ebene_1" data-name="Ebene 1" xmlns="http://www.w3.org/2000/svg" viewBox="0 0 40 40">
  <defs>
    <style>
      .cls-1 {
        fill: #fff;
        fill-rule: evenodd;
      }

      .cls-2 {
        stroke-width: 1.2px;
      }

      .cls-2, .cls-3 {
        fill: none;
        stroke: #fff;
      }

      .cls-3 {
        stroke-linejoin: round;
        stroke-width: 1.2px;
      }
    </style>
  </defs>
  <g id="E07E_media_ami_mediaplayer" data-name="E07E media ami mediaplayer">
    <path class="cls-2" d="M29.59946,19.01044v16.80392"/>
    <path class="cls-1" d="M30.10722,19.12006c.11525,1.05419,.70059,1.99989,1.59272,2.57323,2.295,1.086,3.40866,.93041,3.40866,7.31121-.38244-1.44831-1.20191-2.74359-2.34685-3.7095-.862-.66864-1.69472-.466-2.65453-1.30242-.12642-1.62171-.12642-3.25081,0-4.87252Z"/>
    <path class="cls-1" d="M30.08775,35.40647c.4746,1.03768-.622,2.60792-2.44794,3.506-1.8268,.89894-3.69109,.78595-4.16568-.25174-.4746-1.03685,.62114-2.60709,2.44794-3.506,1.82593-.89894,3.69024-.78595,4.16568,.25174Z"/>
  </g>
  <line class="cls-3" x1="11.00461" y1="33.5" x2="19.99965" y2="33.5"/>
  <line class="cls-3" x1="13.0532" y1="6.5" x2="17.98184" y2="6.5"/>
  <path class="cls-3" d="M21.00015,37.5H7.725c-.66,0-1.225-.665-1.225-1.325V3.825c0-.66,.565-1.325,1.225-1.325h15.55c.66,0,1.225,.665,1.225,1.325v29.16692"/>
</svg>