<svg xmlns="http://www.w3.org/2000/svg" viewBox="0 0 40 40"><g id="E08E_media_videos"><path d="M15.33333,35.3864v-10.971c0-.53064.6741-1.1568,1.24426-.84637.45612.24807,9.33267,5.29049,10.11166,5.719a.6931.6931,0,0,1,0,1.23639c-.56054.31573-9.47282,5.38336-10.135,5.73358C16.06788,36.514,15.33333,35.97011,15.33333,35.3864Z" fill="none" stroke="#fff" stroke-width="1.2"/><path d="M3.33333,14.39252l33,.10748v25h-33Z" fill="none" stroke="#fff" stroke-width="1.2"/><path d="M3.33333,14.46824l33,.03176v6h-33Z" fill="none" stroke="#fff" stroke-width="1.2"/><path d="M34.762,7.10488,32.84127.75276,1.64212,8.26722,3.55,14.39252H4.58961Z" fill="none" stroke="#fff" stroke-width="1.2"/><line x1="15.25455" y1="14.39252" x2="12.75" y2="20.45833" fill="none" stroke="#fff" stroke-width="1.2"/><line x1="26.13982" y1="14.39252" x2="23.63527" y2="20.45833" fill="none" stroke="#fff" stroke-width="1.2"/><line x1="11.27082" y1="5.91667" x2="16.20833" y2="11.60417" fill="none" stroke="#fff" stroke-width="1.2"/><line x1="21.35514" y1="3.66857" x2="26.29264" y2="9.35607" fill="none" stroke="#fff" stroke-width="1.2"/></g></svg>