<svg xmlns="http://www.w3.org/2000/svg" viewBox="0 0 40 40"><title>E098_radio</title><g id="E098_radio"><path d="M20,21.02246a4.28345,4.28345,0,1,1,4.2832-4.2832A4.28768,4.28768,0,0,1,20,21.02246Zm0-7.3667a3.08326,3.08326,0,1,0,3.084,3.0835A3.08746,3.08746,0,0,0,20,13.65576Z" fill="#fff"/><path d="M18.86034,22.05933h2.27932L22.2862,39.24771H17.7138Z" fill="#fff" fill-rule="evenodd"/><path d="M20,2.41547V13.00433" fill="none" stroke="#fff" stroke-width="1.2"/><path d="M28.81348,16.71387a8.74966,8.74966,0,0,1-1.395,4.739l.98425.68665a9.93306,9.93306,0,0,0,.14832-10.6081l-.9845.68677A8.74446,8.74446,0,0,1,28.81348,16.71387Z" fill="#fff"/><path d="M11.18652,16.71387a8.74446,8.74446,0,0,1,1.247-4.49567l-.9845-.68677a9.93306,9.93306,0,0,0,.14832,10.6081l.98425-.68665A8.74966,8.74966,0,0,1,11.18652,16.71387Z" fill="#fff"/><path d="M33.92432,7.78271l-.98438.68677a15.27482,15.27482,0,0,1-.14819,16.73206l.98437.68677a16.47718,16.47718,0,0,0,.1482-18.1056Z" fill="#fff"/><path d="M7.20825,25.20154A15.27482,15.27482,0,0,1,7.06006,8.46948l-.98438-.68677a16.47718,16.47718,0,0,0,.1482,18.1056Z" fill="#fff"/></g></svg>