<svg id="Ebene_1" data-name="Ebene 1" xmlns="http://www.w3.org/2000/svg" viewBox="0 0 40 40"><defs><style>.cls-1,.cls-2{fill:#fff;}.cls-2{fill-rule:evenodd;}.cls-3{fill:none;stroke:#fff;stroke-width:1.2px;}</style></defs><g id="E09C_media_ami_usb_1" data-name="E09C media ami usb 1"><g id="V2"><path class="cls-1" d="M33.13281,37.8623V27.69824l-3.07031.53125V26.99121l3.64844-.71484h.92578V37.8623Z"/></g></g><polygon class="cls-2" points="25 18 25 13 30 13 29.979 17.976 25 18"/><polygon class="cls-2" points="19.5 2.232 24.174 10 14.826 10 19.5 2.232"/><path class="cls-3" d="M19.48484,25.45273A54.97442,54.97442,0,0,0,25.426,23.327c2.21182-.99268,2.074-4.11909,2.074-4.11909V15.91747"/><path class="cls-3" d="M19.5,9.1719V37.03413"/><circle class="cls-1" cx="11.5" cy="18.5" r="2.54969"/><circle class="cls-1" cx="19.48024" cy="35.47329" r="2.54969"/><path class="cls-3" d="M19.48149,28.85231a54.48186,54.48186,0,0,1-5.91117-2.12577C11.3585,25.73386,11.5,22.5,11.5,22.5V19.31706"/></svg>