<svg xmlns="http://www.w3.org/2000/svg" viewBox="0 0 40 40"><defs><style>.cls-1,.cls-3{fill:#fff;}.cls-1{fill-rule:evenodd;}.cls-2{fill:none;stroke:#fff;stroke-width:1.2px;}.cls-4{isolation:isolate;}</style></defs><g id="E09F_media_ami_usb_4"><g id="V2"><path class="cls-1" d="M18,23V20h3v3Zm-3-9.29357L17.75,18.3h-5.5Z"/><path class="cls-2" d="M15,27.60483a28.78729,28.78729,0,0,0,3.27168-1.25061c1.30123-.584,1.22832-2.42329,1.22832-2.42329V21.99517"/><path class="cls-2" d="M15,18.0267V34.41825"/><path class="cls-3" d="M10.9,5.75h1.2v3.5H10.9Z"/><path class="cls-2" d="M24.5,11.5v24a2,2,0,0,1-2,2H7.5a2,2,0,0,1-2-2v-24Z"/><polyline class="cls-2" points="8.5 11.5 8.5 3.5 21.5 3.5 21.5 11.5"/><path class="cls-3" d="M17.9,5.75h1.2v3.5H17.9Z"/><circle class="cls-3" cx="10.5" cy="23.5" r="1.5"/><circle class="cls-3" cx="15" cy="33.5" r="1.5"/><path class="cls-2" d="M15.00074,29.60483a28.78729,28.78729,0,0,1-3.27168-1.25061c-1.30123-.584-1.22832-2.42329-1.22832-2.42329V23.99517"/><g class="cls-4"><path class="cls-3" d="M34.35,37.8623V35.292H28.29922l-.0039-1.21094,6.08984-7.80468h1.46875V34.0498h2.00391V35.292H35.85391V37.8623Zm0-8.20312q0-.293.00977-.66016.01026-.36767.0293-.75c-.14356.2002-.28809.40235-.43555.60547s-.29.3916-.42773.56641l-3.58985,4.6289H34.35Z"/></g></g></g></svg>