<svg xmlns="http://www.w3.org/2000/svg" viewBox="0 0 40 40"><g id="E0B8_navigation_zoom_manuell"><path d="M25.4634,19.99073V9.645q0-.50244.01758-1.06543c.01172-.376.03418-.73926.06836-1.0918q-.21681.5127-.48536,1.06641-.26952.55371-.50586.94531l-3.83691,6.30176H19.47805L15.65578,9.49952c-.083-.1377-.1709-.28711-.26074-.4502q-.13623-.24316-.26953-.50293-.1333-.25928-.26367-.52832Q14.73,7.75,14.62062,7.4878q.04981.55371.07227,1.10449c.01563.36621.02246.71778.02246,1.05274v10.3457H12.82961V5.07374h2.17285l4.29981,7.167q.2373.39258.43261.79981.19629.40722.36719.83984.16113-.43214.3623-.84277a8.03957,8.03957,0,0,1,.45215-.80176L25.2173,5.07374H27.354v14.917Z" fill="#fff"/></g></svg>