<svg xmlns="http://www.w3.org/2000/svg" viewBox="0 0 40 40"><g id="E0B9_navigation_autozoom"><path d="M8.6709,16.99121l-1.042-3.0332H2.6123l-1.03808,3.0332H.0791L4.35352,5.043h1.583l4.30176,11.94824ZM5.56934,7.8877c-.08594-.23438-.168-.4795-.2461-.73731a7.43113,7.43113,0,0,1-.19336-.79785,7.85191,7.85191,0,0,1-.21191.7959c-.083.25586-.16309.50293-.23828.73926L3.044,12.64062H7.18652Z" fill="#fff"/><path d="M18.14746,5.043h1.46192v8.18555a5.93427,5.93427,0,0,1-.11426,1.209,3.69689,3.69689,0,0,1-.34473.98633,2.90289,2.90289,0,0,1-.5791.76953,3.09636,3.09636,0,0,1-.81543.55176,4.32508,4.32508,0,0,1-1.05664.333,7.73268,7.73268,0,0,1-2.60352,0,4.28516,4.28516,0,0,1-1.05664-.333,3.05329,3.05329,0,0,1-.81054-.55176,2.89742,2.89742,0,0,1-.57129-.76953,3.7985,3.7985,0,0,1-.34082-.98633,5.93649,5.93649,0,0,1-.11329-1.209V5.043h1.46094v7.91992a4.51884,4.51884,0,0,0,.16309,1.28125,2.28177,2.28177,0,0,0,.49805.91211,2.04155,2.04155,0,0,0,.8496.544,3.74155,3.74155,0,0,0,1.22364.17968,3.78486,3.78486,0,0,0,1.23047-.17968,2.05008,2.05008,0,0,0,.85547-.544,2.27307,2.27307,0,0,0,.5-.91211,4.51922,4.51922,0,0,0,.16308-1.28125Z" fill="#fff"/><path d="M24.60352,16.99121V6.32422H21.13867V5.043h8.38379V6.32422H26.05762v10.667Z" fill="#fff"/><path d="M35.11914,17.18848a5.397,5.397,0,0,1-1.55176-.207,3.97828,3.97828,0,0,1-1.21972-.59668,3.87318,3.87318,0,0,1-.90723-.93848,5.32955,5.32955,0,0,1-.61914-1.23438,7.75662,7.75662,0,0,1-.35547-1.48828,12.04694,12.04694,0,0,1-.11328-1.69433,11.84518,11.84518,0,0,1,.11523-1.68946,7.78617,7.78617,0,0,1,.35938-1.49121,5.36288,5.36288,0,0,1,.625-1.24218,3.87176,3.87176,0,0,1,.915-.94727,4.0708,4.0708,0,0,1,1.22265-.60156,5.26091,5.26091,0,0,1,1.55274-.21192,5.38036,5.38036,0,0,1,1.55371.208,3.99805,3.99805,0,0,1,1.22363.5957,3.86716,3.86716,0,0,1,.91016.93848,5.22387,5.22387,0,0,1,.62109,1.23731,7.70141,7.70141,0,0,1,.35645,1.48828,12.14286,12.14286,0,0,1,.11328,1.6914,11.90684,11.90684,0,0,1-.11524,1.69239,7.58072,7.58072,0,0,1-.36132,1.49023,5.44438,5.44438,0,0,1-.62891,1.24121,3.92515,3.92515,0,0,1-.916.94629,4.08918,4.08918,0,0,1-1.22753.60254A5.32263,5.32263,0,0,1,35.11914,17.18848Zm.02344-1.29688a3.17674,3.17674,0,0,0,1.06543-.167,2.641,2.641,0,0,0,.833-.47363,2.8834,2.8834,0,0,0,.61914-.74317,4.62523,4.62523,0,0,0,.42578-.97851,6.80176,6.80176,0,0,0,.24707-1.17676,11.57988,11.57988,0,0,0,0-2.66895,6.849,6.849,0,0,0-.24707-1.17578,4.5691,4.5691,0,0,0-.42578-.97949,2.93333,2.93333,0,0,0-.61914-.74316,2.58259,2.58259,0,0,0-.835-.47266,3.52462,3.52462,0,0,0-2.13183,0,2.60225,2.60225,0,0,0-.83692.47266,2.96725,2.96725,0,0,0-.623.74316,4.52369,4.52369,0,0,0-.42774.97949,6.67114,6.67114,0,0,0-.24414,1.17578,11.87975,11.87975,0,0,0,0,2.66895,6.62714,6.62714,0,0,0,.24414,1.17676,4.57878,4.57878,0,0,0,.42774.97851,2.91622,2.91622,0,0,0,.623.74317,2.66032,2.66032,0,0,0,.83692.47363A3.19839,3.19839,0,0,0,35.14258,15.8916Z" fill="#fff"/></g></svg>