<svg xmlns="http://www.w3.org/2000/svg" viewBox="0 0 40 40"><g id="E0BE_zwischenzielflagge_005"><path d="M34.16667,25.38205c-13.18952,1.25324-13.88822-6.993-24-2.852V4.72905c10.11178-4.141,10.81048,4.87724,24,3.623Z" fill="none" stroke="#fff" stroke-width="1.2"/><path d="M9.95952,10.77171s1.64134-.40171,3.15864-.878a5.895,5.895,0,0,1,3.07847-.10321v5.49081a17.51878,17.51878,0,0,0-2.12893-.06192,13.44232,13.44232,0,0,0-3.90137,1.03211Z" fill="#fff"/><path d="M21.89108,6.46712c-1.48624-.68119-3.32339-1.672-3.9633-1.87844-.70422-.22716-1.73415-.4977-1.73415-.4977l.003,5.69953a13.01609,13.01609,0,0,1,2.62676.67755,30.33548,30.33548,0,0,1,3.04,1.55744C21.884,12.00486,21.89108,6.46712,21.89108,6.46712Z" fill="#fff"/><path d="M21.89382,12.08526l1.1979.528a23.9643,23.9643,0,0,0,3.45455,1.17752l1.04064.17344.00083,5.33773-.83316-.216a31.73176,31.73176,0,0,1-4.87551-1.78974v-.03086Z" fill="#fff"/><rect x="6.56667" y="4.9745" width="1.2" height="34.051" fill="#fff"/><path d="M16.19363,15.28132a10.87817,10.87817,0,0,1,2.45663.578c.75572.30941,2.80733,1.17661,3.24082,1.40367v5.75916l-5.69745-1.52752Z" fill="#fff" fill-rule="evenodd"/><path d="M27.59363,8.38684v5.57135a21.91221,21.91221,0,0,0,3.02285.33428c.97244.00939,3.17889-.08914,3.17889-.08914l-.04128-5.7942-5.90366-.02229" fill="#fff"/><path d="M33.74814,25.29741c-.019-1.22748-.05206-5.75085-.0664-5.77947a24.46752,24.46752,0,0,1-6.10411-.20642l.011,6.18768,1.31457.18841A17.199,17.199,0,0,0,33.74814,25.29741Z" fill="#fff"/><path d="M16.41455,36.31152q.28272.1172.63379.2251.35156.10841.75293.19043.3999.08277.835.13184a7.74494,7.74494,0,0,0,.88379.04931,3.96438,3.96438,0,0,0,1.18457-.15527,2.17191,2.17191,0,0,0,.80762-.4375,1.69046,1.69046,0,0,0,.46191-.67041,2.40959,2.40959,0,0,0,.14649-.85693,1.582,1.582,0,0,0-.15918-.72315,1.77839,1.77839,0,0,0-.4375-.54932,2.72489,2.72489,0,0,0-.64649-.40136,5.13638,5.13638,0,0,0-.78906-.27442,7.88017,7.88017,0,0,0-.86621-.17382q-.44532-.06446-.876-.09717c-.28613-.022-.55957-.03662-.81836-.04395s-.48926-.01318-.6914-.01806l.19336-5.43116h6.123v1.18994H18.356l-.11719,3.04346c.28027.01465.57129.03662.87109.06592.30078.0293.60157.07129.9043.12646a8.83385,8.83385,0,0,1,.89551.21045,5.61068,5.61068,0,0,1,.83691.31495,4.13842,4.13842,0,0,1,.73242.4414,2.821,2.821,0,0,1,.582.58936,2.69361,2.69361,0,0,1,.38476.75976,3.05106,3.05106,0,0,1,.13965.95215,3.916,3.916,0,0,1-.10254.9082,3.07117,3.07117,0,0,1-.31152.8042,2.78679,2.78679,0,0,1-.53418.67383,3.04045,3.04045,0,0,1-.77539.51416A4.44259,4.44259,0,0,1,20.83643,38a6.516,6.516,0,0,1-1.28711.11719q-.498,0-.94825-.03858a8.02577,8.02577,0,0,1-.84765-.11572,5.70846,5.70846,0,0,1-.73242-.18848,4.00721,4.00721,0,0,1-.60645-.25439Z" fill="#fff"/></g></svg>