<svg xmlns="http://www.w3.org/2000/svg" viewBox="0 0 40 40"><g id="E0BE_zwischenzielflagge_002"><path d="M34.16667,25.38205c-13.18952,1.25324-13.88822-6.993-24-2.852V4.72905c10.11178-4.141,10.81048,4.87724,24,3.623Z" fill="none" stroke="#fff" stroke-width="1.2"/><path d="M9.95952,10.77171s1.64134-.40171,3.15864-.878a5.895,5.895,0,0,1,3.07847-.10321v5.49081a17.51878,17.51878,0,0,0-2.12893-.06192,13.44232,13.44232,0,0,0-3.90137,1.03211Z" fill="#fff"/><path d="M21.89108,6.46712c-1.48624-.68119-3.32339-1.672-3.9633-1.87844-.70422-.22716-1.73415-.4977-1.73415-.4977l.003,5.69953a13.01609,13.01609,0,0,1,2.62676.67755,30.33548,30.33548,0,0,1,3.04,1.55744C21.884,12.00486,21.89108,6.46712,21.89108,6.46712Z" fill="#fff"/><path d="M21.89382,12.08526l1.1979.528a23.9643,23.9643,0,0,0,3.45455,1.17752l1.04064.17344.00083,5.33773-.83316-.216a31.73176,31.73176,0,0,1-4.87551-1.78974v-.03086Z" fill="#fff"/><rect x="6.56667" y="4.9745" width="1.2" height="34.051" fill="#fff"/><path d="M16.19363,15.28132a10.87817,10.87817,0,0,1,2.45663.578c.75572.30941,2.80733,1.17661,3.24082,1.40367v5.75916l-5.69745-1.52752Z" fill="#fff" fill-rule="evenodd"/><path d="M27.59363,8.38684v5.57135a21.91221,21.91221,0,0,0,3.02285.33428c.97244.00939,3.17889-.08914,3.17889-.08914l-.04128-5.7942-5.90366-.02229" fill="#fff"/><path d="M33.74814,25.29741c-.019-1.22748-.05206-5.75085-.0664-5.77947a24.46752,24.46752,0,0,1-6.10411-.20642l.011,6.18768,1.31457.18841A17.199,17.199,0,0,0,33.74814,25.29741Z" fill="#fff"/><path d="M16.25391,37.9375V36.86084l2.79394-2.688q.45411-.43579.83692-.82031.38232-.38452.69531-.73438.31347-.34937.55176-.67187a5.04837,5.04837,0,0,0,.40039-.62988,2.97781,2.97781,0,0,0,.24609-.60987,2.3285,2.3285,0,0,0,.082-.61328,2.26116,2.26116,0,0,0-.13769-.80908,1.54592,1.54592,0,0,0-.417-.61523,1.8913,1.8913,0,0,0-.71093-.38868A3.40658,3.40658,0,0,0,19.5791,28.145q-.46143,0-.874.03662a7.10873,7.10873,0,0,0-.7832.11182,5.84521,5.84521,0,0,0-.70508.18652,4.79729,4.79729,0,0,0-.6377.26563v-1.2378a3.8382,3.8382,0,0,1,.58594-.26367,5.404,5.404,0,0,1,.69434-.19238,7.0554,7.0554,0,0,1,.80371-.11719q.4292-.03809.92285-.03809a6.43107,6.43107,0,0,1,1.19238.10059,4.16207,4.16207,0,0,1,.94824.28906,2.66823,2.66823,0,0,1,.71387.46338,2.49923,2.49923,0,0,1,.49316.62256,2.78459,2.78459,0,0,1,.28516.76709,4.18218,4.18218,0,0,1,.0918.89893,3.40813,3.40813,0,0,1-.11719.89941,4.15773,4.15773,0,0,1-.33106.83838,5.8927,5.8927,0,0,1-.51269.80224q-.29883.39332-.66113.78711-.36328.39405-.78223.79493-.41895.40064-.86621.81836L18.1543,36.77637h5.59179V37.9375Z" fill="#fff"/></g></svg>