<svg xmlns="http://www.w3.org/2000/svg" viewBox="0 0 40 40"><g id="E0BE_zwischenzielflagge_003"><path d="M34.16667,25.38205c-13.18952,1.25324-13.88822-6.993-24-2.852V4.72905c10.11178-4.141,10.81048,4.87724,24,3.623Z" fill="none" stroke="#fff" stroke-width="1.2"/><path d="M9.95952,10.77171s1.64134-.40171,3.15864-.878a5.895,5.895,0,0,1,3.07847-.10321v5.49081a17.51878,17.51878,0,0,0-2.12893-.06192,13.44232,13.44232,0,0,0-3.90137,1.03211Z" fill="#fff"/><path d="M21.89108,6.46712c-1.48624-.68119-3.32339-1.672-3.9633-1.87844-.70422-.22716-1.73415-.4977-1.73415-.4977l.003,5.69953a13.01609,13.01609,0,0,1,2.62676.67755,30.33548,30.33548,0,0,1,3.04,1.55744C21.884,12.00486,21.89108,6.46712,21.89108,6.46712Z" fill="#fff"/><path d="M21.89382,12.08526l1.1979.528a23.9643,23.9643,0,0,0,3.45455,1.17752l1.04064.17344.00083,5.33773-.83316-.216a31.73176,31.73176,0,0,1-4.87551-1.78974v-.03086Z" fill="#fff"/><rect x="6.56667" y="4.9745" width="1.2" height="34.051" fill="#fff"/><path d="M16.19363,15.28132a10.87817,10.87817,0,0,1,2.45663.578c.75572.30941,2.80733,1.17661,3.24082,1.40367v5.75916l-5.69745-1.52752Z" fill="#fff" fill-rule="evenodd"/><path d="M27.59363,8.38684v5.57135a21.91221,21.91221,0,0,0,3.02285.33428c.97244.00939,3.17889-.08914,3.17889-.08914l-.04128-5.7942-5.90366-.02229" fill="#fff"/><path d="M33.74814,25.29741c-.019-1.22748-.05206-5.75085-.0664-5.77947a24.46752,24.46752,0,0,1-6.10411-.20642l.011,6.18768,1.31457.18841A17.199,17.199,0,0,0,33.74814,25.29741Z" fill="#fff"/><path d="M16.43652,36.31152q.29.1172.63965.2251c.23242.07227.48145.13574.74512.19043q.3955.08277.833.13184a7.95379,7.95379,0,0,0,.89843.04931,3.91484,3.91484,0,0,0,1.09571-.13867,2.363,2.363,0,0,0,.7998-.39209,1.68762,1.68762,0,0,0,.49317-.60791,1.83691,1.83691,0,0,0,.168-.791,2.04555,2.04555,0,0,0-.17383-.85352,1.764,1.764,0,0,0-.52051-.65918,2.4746,2.4746,0,0,0-.86621-.42285,4.46138,4.46138,0,0,0-1.21485-.14844h-1.0332V31.72266H19.334a3.77305,3.77305,0,0,0,1.01172-.12256,2.01334,2.01334,0,0,0,.74024-.36426,1.55379,1.55379,0,0,0,.4541-.60059,2.07769,2.07769,0,0,0,.15527-.83154,1.69628,1.69628,0,0,0-.07324-.51074,1.48378,1.48378,0,0,0-.207-.4209,1.4523,1.4523,0,0,0-.32715-.33154,1.90229,1.90229,0,0,0-.43555-.23633,2.75773,2.75773,0,0,0-.52929-.14111,3.80173,3.80173,0,0,0-.61035-.04737,6.73635,6.73635,0,0,0-.80176.04737,7.31784,7.31784,0,0,0-.75293.13183,6.31323,6.31323,0,0,0-.67481.19629,4.61525,4.61525,0,0,0-.56054.23633V27.50049q.15673-.08056.35156-.15918c.1289-.05274.26855-.102.417-.14844q.22412-.06958.46875-.12451.24609-.05493.50781-.0918c.17383-.02392.35254-.04394.53614-.05859s.36816-.02149.55664-.02149a5.87822,5.87822,0,0,1,1.53613.18116,3.10556,3.10556,0,0,1,1.124.54,2.28732,2.28732,0,0,1,.69043.8916,3.03732,3.03732,0,0,1,.23438,1.23242,2.87792,2.87792,0,0,1-.10059.769,2.51749,2.51749,0,0,1-.29883.68115,2.63111,2.63111,0,0,1-.48828.57471,3.03778,3.03778,0,0,1-.67187.45069,3.40486,3.40486,0,0,1,.86718.46679,2.77927,2.77927,0,0,1,.61719.63721,2.667,2.667,0,0,1,.37012.78027,3.16224,3.16224,0,0,1,.123.8877,3.28438,3.28438,0,0,1-.11036.86084,2.74391,2.74391,0,0,1-.3291.75439,2.67109,2.67109,0,0,1-.55175.626,3.25994,3.25994,0,0,1-.77247.47656,4.50713,4.50713,0,0,1-.99414.30371,6.48656,6.48656,0,0,1-1.21972.10645q-.5127,0-.96485-.04053a8.22339,8.22339,0,0,1-.8457-.11719,5.85472,5.85472,0,0,1-.72851-.18847,4.30323,4.30323,0,0,1-.61036-.2544Z" fill="#fff"/></g></svg>