<svg xmlns="http://www.w3.org/2000/svg" viewBox="0 0 40 40"><g id="E0BE_zwischenzielflagge_006"><path d="M34.16667,25.38205c-13.18952,1.25324-13.88822-6.993-24-2.852V4.72905c10.11178-4.141,10.81048,4.87724,24,3.623Z" fill="none" stroke="#fff" stroke-width="1.2"/><path d="M9.95952,10.77171s1.64134-.40171,3.15864-.878a5.895,5.895,0,0,1,3.07847-.10321v5.49081a17.51878,17.51878,0,0,0-2.12893-.06192,13.44232,13.44232,0,0,0-3.90137,1.03211Z" fill="#fff"/><path d="M21.89108,6.46712c-1.48624-.68119-3.32339-1.672-3.9633-1.87844-.70422-.22716-1.73415-.4977-1.73415-.4977l.003,5.69953a13.01609,13.01609,0,0,1,2.62676.67755,30.33548,30.33548,0,0,1,3.04,1.55744C21.884,12.00486,21.89108,6.46712,21.89108,6.46712Z" fill="#fff"/><path d="M21.89382,12.08526l1.1979.528a23.9643,23.9643,0,0,0,3.45455,1.17752l1.04064.17344.00083,5.33773-.83316-.216a31.73176,31.73176,0,0,1-4.87551-1.78974v-.03086Z" fill="#fff"/><rect x="6.56667" y="4.9745" width="1.2" height="34.051" fill="#fff"/><path d="M16.19363,15.28132a10.87817,10.87817,0,0,1,2.45663.578c.75572.30941,2.80733,1.17661,3.24082,1.40367v5.75916l-5.69745-1.52752Z" fill="#fff" fill-rule="evenodd"/><path d="M27.59363,8.38684v5.57135a21.91221,21.91221,0,0,0,3.02285.33428c.97244.00939,3.17889-.08914,3.17889-.08914l-.04128-5.7942-5.90366-.02229" fill="#fff"/><path d="M33.74814,25.29741c-.019-1.22748-.05206-5.75085-.0664-5.77947a24.46752,24.46752,0,0,1-6.10411-.20642l.011,6.18768,1.31457.18841A17.199,17.199,0,0,0,33.74814,25.29741Z" fill="#fff"/><path d="M23.40381,28.48193q-.249-.0769-.50391-.14648c-.16894-.04639-.34765-.08594-.53418-.11914-.18652-.03272-.38574-.05908-.5957-.07861s-.43555-.0293-.67676-.0293a4.2305,4.2305,0,0,0-1.5039.24365,2.76734,2.76734,0,0,0-1.08692.73389,3.49321,3.49321,0,0,0-.69824,1.227,6.99324,6.99324,0,0,0-.3291,1.71728,3.83484,3.83484,0,0,1,.56738-.41552,4.03217,4.03217,0,0,1,.65332-.31495,4.26522,4.26522,0,0,1,.72754-.19921,4.43045,4.43045,0,0,1,.79785-.06983,5.078,5.078,0,0,1,1.14063.12061,3.88348,3.88348,0,0,1,.94336.34472,3.02476,3.02476,0,0,1,1.26855,1.252,3.37669,3.37669,0,0,1,.32227.85888,4.27487,4.27487,0,0,1,.10839.97608,3.952,3.952,0,0,1-.10253.90088,3.41413,3.41413,0,0,1-.31153.833,3.19654,3.19654,0,0,1-.52539.72315,3.16137,3.16137,0,0,1-.74707.56982,3.92891,3.92891,0,0,1-.97558.37354,5.11976,5.11976,0,0,1-1.2129.13379,4.41517,4.41517,0,0,1-1.75781-.33155,3.39052,3.39052,0,0,1-1.29785-.978,4.43223,4.43223,0,0,1-.80371-1.602,7.98665,7.98665,0,0,1-.27441-2.20459,9.9409,9.9409,0,0,1,.31152-2.61817,5.15333,5.15333,0,0,1,.93848-1.91357,3.98139,3.98139,0,0,1,1.5791-1.17383,5.69773,5.69773,0,0,1,2.2207-.39893c.27148,0,.51855.00879.74316.02735q.33691.02709.623.07519.28564.04761.53027.11328c.16407.04395.31739.09278.46192.14649Zm-5.9834,4.62159a8.13986,8.13986,0,0,0,.10059,1.26513,4.73855,4.73855,0,0,0,.26367.99073,2.93418,2.93418,0,0,0,.41113.73437,2.28364,2.28364,0,0,0,.541.5,2.16088,2.16088,0,0,0,.64941.28369,3.00874,3.00874,0,0,0,.74316.08936,2.97659,2.97659,0,0,0,1.05372-.17188,2.05316,2.05316,0,0,0,.76171-.4873,2.08092,2.08092,0,0,0,.46289-.75244,2.86524,2.86524,0,0,0,.15723-.97217,2.94467,2.94467,0,0,0-.15527-.98535,1.989,1.989,0,0,0-.46192-.74854,2.01417,2.01417,0,0,0-.7705-.47607,3.20841,3.20841,0,0,0-1.084-.167,4.54466,4.54466,0,0,0-.72168.05713,4.31745,4.31745,0,0,0-.69043.16846,4.2386,4.2386,0,0,0-.65136.28027A4.40384,4.40384,0,0,0,17.42041,33.10352Z" fill="#fff"/></g></svg>