<svg xmlns="http://www.w3.org/2000/svg" viewBox="0 0 40 40"><g id="E0BE_zwischenzielflagge_008"><path d="M34.16667,25.38205c-13.18952,1.25324-13.88822-6.993-24-2.852V4.72905c10.11178-4.141,10.81048,4.87724,24,3.623Z" fill="none" stroke="#fff" stroke-width="1.2"/><path d="M9.95952,10.77171s1.64134-.40171,3.15864-.878a5.895,5.895,0,0,1,3.07847-.10321v5.49081a17.51878,17.51878,0,0,0-2.12893-.06192,13.44232,13.44232,0,0,0-3.90137,1.03211Z" fill="#fff"/><path d="M21.89108,6.46712c-1.48624-.68119-3.32339-1.672-3.9633-1.87844-.70422-.22716-1.73415-.4977-1.73415-.4977l.003,5.69953a13.01609,13.01609,0,0,1,2.62676.67755,30.33548,30.33548,0,0,1,3.04,1.55744C21.884,12.00486,21.89108,6.46712,21.89108,6.46712Z" fill="#fff"/><path d="M21.89382,12.08526l1.1979.528a23.9643,23.9643,0,0,0,3.45455,1.17752l1.04064.17344.00083,5.33773-.83316-.216a31.73176,31.73176,0,0,1-4.87551-1.78974v-.03086Z" fill="#fff"/><rect x="6.56667" y="4.9745" width="1.2" height="34.051" fill="#fff"/><path d="M16.19363,15.28132a10.87817,10.87817,0,0,1,2.45663.578c.75572.30941,2.80733,1.17661,3.24082,1.40367v5.75916l-5.69745-1.52752Z" fill="#fff" fill-rule="evenodd"/><path d="M27.59363,8.38684v5.57135a21.91221,21.91221,0,0,0,3.02285.33428c.97244.00939,3.17889-.08914,3.17889-.08914l-.04128-5.7942-5.90366-.02229" fill="#fff"/><path d="M33.74814,25.29741c-.019-1.22748-.05206-5.75085-.0664-5.77947a24.46752,24.46752,0,0,1-6.10411-.20642l.011,6.18768,1.31457.18841A17.199,17.199,0,0,0,33.74814,25.29741Z" fill="#fff"/><path d="M22.09521,32.25a3.61788,3.61788,0,0,1,.59278.28418,3.037,3.037,0,0,1,.49121.36426,2.63155,2.63155,0,0,1,.38379.4375,2.66981,2.66981,0,0,1,.27734.50732,2.961,2.961,0,0,1,.168.56934,3.47319,3.47319,0,0,1-.04785,1.47021,2.6471,2.6471,0,0,1-.31836.7417,2.619,2.619,0,0,1-.54395.61914,3.12466,3.12466,0,0,1-.78125.47022,4.75826,4.75826,0,0,1-1.02734.29883,7.23394,7.23394,0,0,1-1.28223.10449,7.425,7.425,0,0,1-1.2998-.10449,4.71061,4.71061,0,0,1-1.03418-.29883,3.08359,3.08359,0,0,1-.78027-.47022,2.60088,2.60088,0,0,1-.54-.61914,2.64029,2.64029,0,0,1-.31543-.7417,3.38388,3.38388,0,0,1-.10254-.8457,3.23874,3.23874,0,0,1,.05859-.62451,2.96689,2.96689,0,0,1,.1709-.56934,2.56958,2.56958,0,0,1,.27832-.50732,2.68955,2.68955,0,0,1,.38574-.4375,3.06286,3.06286,0,0,1,.48926-.36426,3.60271,3.60271,0,0,1,.58789-.28418,2.74837,2.74837,0,0,1-.67383-.43555,2.47826,2.47826,0,0,1-.48339-.57519,2.53448,2.53448,0,0,1-.291-.68994,3.06792,3.06792,0,0,1-.09766-.78565,2.99564,2.99564,0,0,1,.24024-1.23584,2.339,2.339,0,0,1,.70117-.89892,3.16731,3.16731,0,0,1,1.14258-.54786,6.73913,6.73913,0,0,1,3.13281,0,3.16544,3.16544,0,0,1,1.14063.54786,2.31361,2.31361,0,0,1,.69824.89892,3.0443,3.0443,0,0,1,.23535,1.23584,3.112,3.112,0,0,1-.09668.78565,2.48455,2.48455,0,0,1-.29492.68994,2.5754,2.5754,0,0,1-.48828.57519A2.81733,2.81733,0,0,1,22.09521,32.25Zm.50879,2.71777a2.0678,2.0678,0,0,0-.15429-.79492,1.78489,1.78489,0,0,0-.47168-.66308,2.35038,2.35038,0,0,0-.80762-.45557,4.051,4.051,0,0,0-2.3252,0,2.34118,2.34118,0,0,0-.80761.45557,1.78742,1.78742,0,0,0-.47266.66308,2.08606,2.08606,0,0,0-.1543.79492,2.01812,2.01812,0,0,0,.15625.79981,1.61547,1.61547,0,0,0,.47754.62646,2.36428,2.36428,0,0,0,.81153.41016,4.54261,4.54261,0,0,0,2.2998,0,2.37323,2.37323,0,0,0,.81153-.41016,1.64929,1.64929,0,0,0,.47949-.62646A2.00149,2.00149,0,0,0,22.604,34.96777Zm-.40234-5.15283a1.80723,1.80723,0,0,0-.15039-.75635,1.49579,1.49579,0,0,0-.43262-.55273,1.92935,1.92935,0,0,0-.69043-.34082,3.75273,3.75273,0,0,0-1.8457,0,1.93264,1.93264,0,0,0-.68945.34082,1.471,1.471,0,0,0-.43067.55273,1.82272,1.82272,0,0,0-.14844.75635,2.08157,2.08157,0,0,0,.13965.77979,1.59642,1.59642,0,0,0,.415.60449,1.90752,1.90752,0,0,0,.68653.3916,3.30908,3.30908,0,0,0,1.90234,0,1.88731,1.88731,0,0,0,.6875-.3916,1.6416,1.6416,0,0,0,.415-.60449A2.08175,2.08175,0,0,0,22.20166,29.81494Z" fill="#fff"/></g></svg>