<svg xmlns="http://www.w3.org/2000/svg" viewBox="0 0 40 40"><g id="E0BE_zwischenzielflagge_009"><path d="M34.16667,25.38205c-13.18952,1.25324-13.88822-6.993-24-2.852V4.72905c10.11178-4.141,10.81048,4.87724,24,3.623Z" fill="none" stroke="#fff" stroke-width="1.2"/><path d="M9.95952,10.77171s1.64134-.40171,3.15864-.878a5.895,5.895,0,0,1,3.07847-.10321v5.49081a17.51878,17.51878,0,0,0-2.12893-.06192,13.44232,13.44232,0,0,0-3.90137,1.03211Z" fill="#fff"/><path d="M21.89108,6.46712c-1.48624-.68119-3.32339-1.672-3.9633-1.87844-.70422-.22716-1.73415-.4977-1.73415-.4977l.003,5.69953a13.01609,13.01609,0,0,1,2.62676.67755,30.33548,30.33548,0,0,1,3.04,1.55744C21.884,12.00486,21.89108,6.46712,21.89108,6.46712Z" fill="#fff"/><path d="M21.89382,12.08526l1.1979.528a23.9643,23.9643,0,0,0,3.45455,1.17752l1.04064.17344.00083,5.33773-.83316-.216a31.73176,31.73176,0,0,1-4.87551-1.78974v-.03086Z" fill="#fff"/><rect x="6.56667" y="4.9745" width="1.2" height="34.051" fill="#fff"/><path d="M16.19363,15.28132a10.87817,10.87817,0,0,1,2.45663.578c.75572.30941,2.80733,1.17661,3.24082,1.40367v5.75916l-5.69745-1.52752Z" fill="#fff" fill-rule="evenodd"/><path d="M27.59363,8.38684v5.57135a21.91221,21.91221,0,0,0,3.02285.33428c.97244.00939,3.17889-.08914,3.17889-.08914l-.04128-5.7942-5.90366-.02229" fill="#fff"/><path d="M33.74814,25.29741c-.019-1.22748-.05206-5.75085-.0664-5.77947a24.46752,24.46752,0,0,1-6.10411-.20642l.011,6.18768,1.31457.18841A17.199,17.199,0,0,0,33.74814,25.29741Z" fill="#fff"/><path d="M16.61084,36.53125q.249.08057.50391.14844c.16894.04492.34765.085.53418.11914s.38476.061.5957.08008c.209.02.43652.02929.68066.02929a4.16332,4.16332,0,0,0,1.52735-.25586,2.74286,2.74286,0,0,0,1.09472-.773,3.62417,3.62417,0,0,0,.68653-1.29248,7.62239,7.62239,0,0,0,.30566-1.82031,3.839,3.839,0,0,1-.57129.41944,4.04473,4.04473,0,0,1-.65722.31689,4.18961,4.18961,0,0,1-.73438.20117,4.49087,4.49087,0,0,1-.80176.06934,4.85154,4.85154,0,0,1-1.63476-.25244,3.26835,3.26835,0,0,1-1.18457-.7085,2.94027,2.94027,0,0,1-.71875-1.09131,3.92118,3.92118,0,0,1-.24121-1.397,3.75567,3.75567,0,0,1,.10449-.88477,3.27336,3.27336,0,0,1,.31445-.811,3.10086,3.10086,0,0,1,1.27832-1.24707,4.04584,4.04584,0,0,1,.97461-.35694,5.23928,5.23928,0,0,1,1.20215-.12793,4.41715,4.41715,0,0,1,1.75683.33106,3.38221,3.38221,0,0,1,1.29981.978,4.41441,4.41441,0,0,1,.80371,1.604,8.02638,8.02638,0,0,1,.27441,2.20264,9.99,9.99,0,0,1-.30957,2.61865,5.15987,5.15987,0,0,1-.93359,1.91309,3.94909,3.94909,0,0,1-1.57129,1.17382,5.67382,5.67382,0,0,1-2.2168.39942q-.41014,0-.74707-.02783c-.22461-.01807-.43261-.04346-.625-.07471a5.39657,5.39657,0,0,1-.52832-.11377c-.16211-.044-.31543-.09131-.46191-.14307Zm5.96582-4.83008a7.64309,7.64309,0,0,0-.125-1.1958,4.6043,4.6043,0,0,0-.27637-.936,2.8272,2.8272,0,0,0-.41406-.69532,2.20865,2.20865,0,0,0-.53223-.47265,2.18088,2.18088,0,0,0-.63769-.26758,3.29962,3.29962,0,0,0-1.76465.0791,2.09969,2.09969,0,0,0-.76367.46143,1.91335,1.91335,0,0,0-.4668.71777,2.622,2.622,0,0,0-.1582.93213,2.77345,2.77345,0,0,0,.15234.94824,1.84239,1.84239,0,0,0,.46.71582,2.03123,2.03123,0,0,0,.77246.45215,3.36388,3.36388,0,0,0,1.084.15771,4.55816,4.55816,0,0,0,.71972-.05664,4.27116,4.27116,0,0,0,.68848-.17041,4.44557,4.44557,0,0,0,.65137-.28027A4.26662,4.26662,0,0,0,22.57666,31.70117Z" fill="#fff"/></g></svg>