<svg xmlns="http://www.w3.org/2000/svg" viewBox="0 0 40 40"><title>E0C2_navigation_kompass</title><g id="E0C2_navigation_kompass"><path d="M2.69588,19.97685A17.25159,17.25159,0,0,0,17.6478,37.066l-.16271-.84588a16.427,16.427,0,0,1,.05356-32.49472l.1627-.84587A17.25229,17.25229,0,0,0,2.69588,19.97685Z" fill="#fff"/><path d="M22.2986,2.8795l.1627.84587a16.427,16.427,0,0,1,.05356,32.49472l-.16271.84588A17.24251,17.24251,0,0,0,22.2986,2.8795Z" fill="#fff"/><path d="M21.72073,25.53448l-1.76352,9.17023-1.76342-9.17a5.78382,5.78382,0,0,0,3.52694-.00025M23.10394,23.637a4.80831,4.80831,0,0,1-6.29327.0008L19.95721,40l3.14673-16.363Z" fill="#fff"/><path d="M22.58105,15.47119a5.18876,5.18876,0,0,0-5.15136-.05908L20,2.04736Z" fill="#fff" fill-rule="evenodd"/><path d="M20,4.09467l2.05515,10.687a5.568,5.568,0,0,0-4.103-.03858L20,4.09467M20,0,16.87323,16.25891a4.8121,4.8121,0,0,1,6.27173.095L20,0Z" fill="#fff"/><path d="M17.2041,36.86328a17.10779,17.10779,0,0,1,.07715-33.7876l-.08691.45166A16.79492,16.79492,0,0,0,3.25781,19.977a16.81027,16.81027,0,0,0,13.85938,16.436Z" fill="#fff"/><path d="M17.76263,2.61713a17.49475,17.49475,0,0,0-.07623,34.7077l-.24029-1.24951A16.28965,16.28965,0,0,1,17.52234,3.8667l.24029-1.24957Z" fill="#fff"/><path d="M22.86523,36.40186A16.61161,16.61161,0,0,0,36.65625,19.977a16.80836,16.80836,0,0,0-13.86719-16.438l-.08691-.45068a17.10624,17.10624,0,0,1,.07617,33.76269Z" fill="#fff"/><path d="M22.2193,2.6275l.24029,1.24958a16.28975,16.28975,0,0,1,.07624,32.18786l-.2403,1.24945A17.49292,17.49292,0,0,0,22.2193,2.6275Z" fill="#fff"/><path d="M19.95721,18.06982a1.907,1.907,0,1,1-1.90707,1.90705,1.9092,1.9092,0,0,1,1.90707-1.90705m0-1.2a3.107,3.107,0,1,0,3.10706,3.10706,3.107,3.107,0,0,0-3.10706-3.10706Z" fill="#fff"/></g></svg>