<svg xmlns="http://www.w3.org/2000/svg" viewBox="0 0 40 40"><title>E0C9_navigation_alternative_routes</title><g id="E0C9_navigation_alternative_routes"><path d="M24.32059,7.77016,31.304,5.3514" fill="none" stroke="#fff" stroke-width="1.2"/><path d="M18.59022,9.75492l4.28516-1.4842" fill="none" stroke="#fff" stroke-width="1.2"/><path d="M12.5572,11.84451l4.5093-1.56184" fill="none" stroke="#fff" stroke-width="1.2"/><path d="M7.71494,17.12889l-.24669-3.52178,3.6566-1.26649" fill="none" stroke="#fff" stroke-width="1.2"/><path d="M8.272,25.082,7.91605,20" fill="none" stroke="#fff" stroke-width="1.2"/><path d="M8.77055,32.19867l-.29744-4.24612" fill="none" stroke="#fff" stroke-width="1.2"/><path d="M32.08391,8.79831A3.447,3.447,0,1,1,35.50182,5.351,3.43235,3.43235,0,0,1,32.08391,8.79831ZM9.29655,38.061a3.447,3.447,0,1,1,3.41791-3.44652A3.43218,3.43218,0,0,1,9.29655,38.061Z" fill="#fff" fill-rule="evenodd"/><path d="M10.47791,32.92563,15.89876,20.379H26.997L30.98461,7.64879" fill="none" stroke="#fff" stroke-width="1.2"/></g></svg>