<svg xmlns="http://www.w3.org/2000/svg" viewBox="0 0 40 40"><g id="E0CC_navigation_send_destination"><path d="M17.42159,8.763a4.69325,4.69325,0,1,1-4.757,4.69282A4.72443,4.72443,0,0,1,17.42159,8.763Z" fill="#fff" fill-rule="evenodd"/><path d="M16.53578,33.97047l-4.36823-9.579A12.17244,12.17244,0,0,1,5.01431,13.37566,12.3466,12.3466,0,0,1,17.50354,1.17683,12.3466,12.3466,0,0,1,29.99277,13.37566,11.90818,11.90818,0,0,1,28.426,19.29114" fill="none" stroke="#fff" stroke-width="1.2"/><path d="M20.34043,24.41463H38.40124l-.00157,11.02128H20.34043Z" fill="none" stroke="#fff" stroke-width="1.2"/><path d="M20.34072,24.57939l9.02284,6.23908L38.401,24.57939" fill="none" stroke="#fff" stroke-width="1.2"/></g></svg>