<svg xmlns="http://www.w3.org/2000/svg" viewBox="0 0 40 40"><g id="E0D1_customer_update_error"><path d="M32.74867,15.24549c-1.067,1.111-2.746,0-2.746,0h-2.747l-2.289-1.581,8.24-.791A2.16161,2.16161,0,0,1,32.74867,15.24549Zm-25.048,0s-1.679,1.111-2.746,0a2.16161,2.16161,0,0,1-.458-2.372l8.24.791-2.289,1.581Z" fill="#fff"/><path d="M34.36228,18.91147c-.00374-2.97981-.01528-6.70279-.0167-7.2168a.07943.07943,0,0,0-.04585-.07623A33.01616,33.01616,0,0,0,31.00144,10.063c-1.313-.493-23.6-.353-24.276-.099a26.2639,26.2639,0,0,0-3.30093,1.65364.07992.07992,0,0,0-.04321.07489c-.00167.60049-.01786,6.50761-.01786,9.303,0,1.453-.261,3,1,3h3c.769,0,1-.261,1-1v-1H18.97425" fill="none" stroke="#fff" stroke-width="1.2"/><path d="M32.70057,10.80656s-3.9189-7.38831-5.5329-7.73731c-3.219-.698-13.943-.823-16.632,0-1.639.501-5.841,7.84316-5.841,7.84316" fill="none" stroke="#fff" stroke-width="1.2"/><path d="M20.56224,19.474H15.45067c-2.409-.119-3.243-3.194-3.243-3.194l1.853-2.06h9.582l1.853,2.06a7.71,7.71,0,0,1-.23.78569" fill="none" stroke="#fff" stroke-width="1.2"/><circle cx="29.01667" cy="28.92856" r="8.4" fill="none" stroke="#fff" stroke-miterlimit="10" stroke-width="1.2"/><path d="M28.23084,24.77041V23.07915h1.565v1.69126Zm.0475,10.00283V26.4895h1.451v8.28374Z" fill="#fff"/></g></svg>