<svg xmlns="http://www.w3.org/2000/svg" viewBox="0 0 40 40"><title>E0DB_buffering_loading</title><g id="E0DB_buffering_loading"><path d="M11.18652,15.88228a8.74446,8.74446,0,0,1,1.247-4.49567l-.9845-.68677a9.93306,9.93306,0,0,0,.14832,10.6081l.98425-.68665A8.74966,8.74966,0,0,1,11.18652,15.88228Z" fill="#fff"/><path d="M34.55792,20.7514a11.21994,11.21994,0,0,1,1.10522.47223A16.40942,16.40942,0,0,0,33.92437,6.95111L32.94,7.63788A15.21356,15.21356,0,0,1,34.55792,20.7514Z" fill="#fff"/><path d="M27.48223,20.50488a11.28353,11.28353,0,0,1,1.54517-.32477,9.89464,9.89464,0,0,0-.47632-9.48028l-.98462.68677a8.70868,8.70868,0,0,1-.08423,9.11828Z" fill="#fff"/><path d="M21.38555,24.91266l-.24585-3.68494H18.86041L17.71392,38.41614h4.16065A11.27793,11.27793,0,0,1,21.38555,24.91266Z" fill="#fff" fill-rule="evenodd"/><path d="M37.486,27.36513a7.87621,7.87621,0,1,0,.47269,6.97965" fill="none" stroke="#fff" stroke-width="1.2"/><path d="M38.97554,24.42836l.00115,7.24294-5.80791-4.80718Z" fill="#fff" fill-rule="evenodd"/><path d="M20,20.19087a4.28345,4.28345,0,1,1,4.2832-4.2832A4.28768,4.28768,0,0,1,20,20.19087Zm0-7.3667a3.08326,3.08326,0,1,0,3.084,3.0835A3.08746,3.08746,0,0,0,20,12.82417Z" fill="#fff"/><path d="M20,1.58388V12.17274" fill="none" stroke="#fff" stroke-width="1.2"/><path d="M7.20825,24.37A15.27482,15.27482,0,0,1,7.06006,7.63789l-.98438-.68677a16.47718,16.47718,0,0,0,.1482,18.1056Z" fill="#fff"/></g></svg>