<svg xmlns="http://www.w3.org/2000/svg" viewBox="0 0 40 40"><defs><style>.cls-1{isolation:isolate;}.cls-2,.cls-3{fill:#fff;}.cls-3{fill-rule:evenodd;}.cls-4,.cls-5{fill:none;stroke:#fff;stroke-width:1.2px;}.cls-4{stroke-miterlimit:10;}</style></defs><g id="E0E0_media_ami_audioplayer3_ipod"><g class="cls-1"><path class="cls-2" d="M29.17075,36.12793c.20606.083.43262.16309.68164.24023s.51367.14454.79492.20313.57715.10547.88868.14062a8.54208,8.54208,0,0,0,.959.05274,4.18365,4.18365,0,0,0,1.168-.14844,2.51563,2.51563,0,0,0,.85351-.418,1.78532,1.78532,0,0,0,.52539-.64844,1.9417,1.9417,0,0,0,.17969-.84375,2.1791,2.1791,0,0,0-.18554-.91015,1.88067,1.88067,0,0,0-.55469-.70313,2.62528,2.62528,0,0,0-.92383-.45117,4.75146,4.75146,0,0,0-1.29688-.1582H31.159v-1.25h1.10156a4.05494,4.05494,0,0,0,1.08008-.13086,2.14828,2.14828,0,0,0,.78907-.38867,1.665,1.665,0,0,0,.48437-.64063,2.21656,2.21656,0,0,0,.166-.88672,1.81383,1.81383,0,0,0-.07813-.54492,1.605,1.605,0,0,0-.2207-.44922,1.55839,1.55839,0,0,0-.34961-.35351,1.98256,1.98256,0,0,0-.46485-.252,2.88942,2.88942,0,0,0-.56445-.15039,3.939,3.939,0,0,0-.65039-.05078,7.01421,7.01421,0,0,0-.85547.05078,7.71259,7.71259,0,0,0-.80273.14063,6.7033,6.7033,0,0,0-.72071.209,5.00691,5.00691,0,0,0-.59765.252v-1.3086q.16845-.08641.375-.16992t.44531-.1582c.15918-.04981.3252-.09375.5-.13282s.35449-.07128.541-.09765.37695-.04688.57226-.0625.39356-.02344.59375-.02344a6.28238,6.28238,0,0,1,1.63867.19336,3.32118,3.32118,0,0,1,1.19922.57617,2.44615,2.44615,0,0,1,.73633.95117,3.234,3.234,0,0,1,.25,1.31446,3.097,3.097,0,0,1-.10742.82031,2.69013,2.69013,0,0,1-.31836.72656,2.86035,2.86035,0,0,1-.52148.61328,3.283,3.283,0,0,1-.7168.48047,3.62721,3.62721,0,0,1,.92578.498,2.98759,2.98759,0,0,1,.6582.67969,2.83436,2.83436,0,0,1,.39453.832,3.39383,3.39383,0,0,1,.13086.94726,3.503,3.503,0,0,1-.11718.918,2.86474,2.86474,0,0,1-.93946,1.47266,3.48379,3.48379,0,0,1-.82422.50781,4.77682,4.77682,0,0,1-1.06054.32422,6.94587,6.94587,0,0,1-1.30078.11328c-.36426,0-.708-.01465-1.0293-.043a8.71033,8.71033,0,0,1-.90234-.125,6.29237,6.29237,0,0,1-.77735-.20117,4.44354,4.44354,0,0,1-.65039-.27148Z"/></g><path class="cls-3" d="M13.5,26.2a1.3,1.3,0,1,0,1.3,1.3A1.30187,1.30187,0,0,0,13.5,26.2Z"/><circle class="cls-4" cx="13.5" cy="27.5" r="6"/><line class="cls-5" x1="22" y1="17.5" x2="5" y2="17.5"/><rect class="cls-4" x="2.5" y="3.49838" width="22" height="34" rx="1"/></g></svg>