<svg xmlns="http://www.w3.org/2000/svg" viewBox="0 0 40 40"><defs><style>.cls-1{isolation:isolate;}.cls-2,.cls-3{fill:#fff;}.cls-3{fill-rule:evenodd;}.cls-4,.cls-5{fill:none;stroke:#fff;stroke-width:1.2px;}.cls-4{stroke-miterlimit:10;}</style></defs><g id="E0E1_media_ami_audioplayer4_ipod"><g class="cls-1"><path class="cls-2" d="M34.35,37.8623V35.292H28.29922l-.0039-1.21094,6.08984-7.80468h1.46875V34.0498h2.00391V35.292H35.85391V37.8623Zm0-8.20312q0-.293.00977-.66016.01026-.36767.0293-.75c-.14356.2002-.28809.40235-.43555.60547s-.29.3916-.42773.56641l-3.58985,4.6289H34.35Z"/></g><path class="cls-3" d="M13.5,26.2a1.3,1.3,0,1,0,1.3,1.3A1.30187,1.30187,0,0,0,13.5,26.2Z"/><circle class="cls-4" cx="13.5" cy="27.5" r="6"/><line class="cls-5" x1="22" y1="17.5" x2="5" y2="17.5"/><rect class="cls-4" x="2.5" y="3.49838" width="22" height="34" rx="1"/></g></svg>