<svg id="Ebene_1" data-name="Ebene 1" xmlns="http://www.w3.org/2000/svg" viewBox="0 0 40 40"><defs><style>.cls-1,.cls-2{fill:none;stroke:#fff;stroke-miterlimit:10;}.cls-1{stroke-width:1.2px;}.cls-2{stroke-width:1.2px;}.cls-3,.cls-4{fill:#fff;}.cls-4{fill-rule:evenodd;}</style></defs><path class="cls-1" d="M11.52778,38.77351l28.14529-11.866"/><line class="cls-1" x1="8.57386" y1="10.485" x2="11.02178" y2="10.485"/><line class="cls-1" x1="24.4" y1="10.485" x2="22.09178" y2="10.485"/><line class="cls-1" x1="16.61178" y1="2.09541" x2="16.61178" y2="4.935"/><line class="cls-1" x1="11.17295" y1="5.16958" x2="12.82705" y2="6.83042"/><line class="cls-1" x1="21.8894" y1="4.97611" x2="20.3106" y2="6.72389"/><path class="cls-2" d="M13.50073,14.63086,11.5,16.5a7.98507,7.98507,0,0,1-2.87054-6A7.87664,7.87664,0,0,1,16.5,2.5a7.98652,7.98652,0,0,1,8,8,8.54448,8.54448,0,0,1-3,6c-.35649-.32754-1.8688-1.9561-1.8688-1.9561"/><path class="cls-3" d="M13.841,12.4312l-1.54685-.1127.99831-1.17553,2.08977-.89838a.63317.63317,0,0,1,.02821-.30314,1.33666,1.33666,0,0,1,2.48843.00282,1.37512,1.37512,0,0,1-.5005,1.66945l-.362.1705a1.28041,1.28041,0,0,1-.89628-.04335,1.32412,1.32412,0,0,1-.33944-.20806l-1.95962.89838Z"/><path class="cls-1" d="M17.37909,34.74317a2.472,2.472,0,0,1-2.265-1.4767c-.19792.0671-.41349.13338-.65273.19276-.1243.03184-.26677.06282-.41607.0895a8.27166,8.27166,0,0,1-1.00383.15059l-.67468.05162-.22416-.63853L12.02,32.74669a4.71185,4.71185,0,0,1-.2904-1.9767,1.23754,1.23754,0,0,1,.38638-.833,48.57871,48.57871,0,0,1,5.80525-4.11773l.3296-.191c.65057-1.46207,1.64537-3.68013,1.79682-3.931l.10413-.17125.16782-.10972c1.86566-1.21854,9.75691-3.79288,11.27922-4.00242l.06024-.00817.10241-.0022c.0319,0,3.40433.27624,4.091,1.2771a2.32915,2.32915,0,0,1,.2332.43544c.11187.24268.21514.4875.31668.73276l.25387.63121c.11789.29689.22374.56366.30894.74954a1.43831,1.43831,0,0,1,.11961.45136,1.58636,1.58636,0,0,1,.01463.228,3.12852,3.12852,0,0,1-.04216.48234,4.03443,4.03443,0,0,1-.8184,1.9195l-.10327.08778-.98618.41306a2.53794,2.53794,0,0,1-1.376,3.20039,2.47665,2.47665,0,0,1-3.21759-1.2487L19.7241,31.35776a2.55074,2.55074,0,0,1-1.38289,3.1892A2.45744,2.45744,0,0,1,17.37909,34.74317Z"/><path class="cls-4" d="M5.0455,19.54637l-.72869-1.86132-2.92674,1.3142-1.27246-3.05L3.05,14.68124l-.64487-1.94619,4.26665,2.2Z"/></svg>