<svg id="Icon_V2" data-name="Icon V2" xmlns="http://www.w3.org/2000/svg" viewBox="0 0 40 40"><defs><style>.cls-1{fill:#fff;}</style></defs><path class="cls-1" d="M4,21V5H6V19h7v2Z"/><path class="cls-1" d="M16,21V5h2V21Z"/><path class="cls-1" d="M34.23172,21V8.60638l-5.09465,8.02878H27.9753L22.76343,8.60638V21H21V5h1.541l6.01743,9.00511L34.42928,5H36V21Z"/><path class="cls-1" d="M9.02674,33.83909l-.89753-2.45727H3.80586L2.9115,33.83909H1.62272l3.68414-9.67818H6.67049l3.70679,9.67818ZM6.35415,26.46462q-.11079-.28384-.21195-.59694a5.59735,5.59735,0,0,1-.16657-.64647,6.06542,6.06542,0,0,1-.18276.64471q-.10762.31169-.20569.5987L4.17756,30.315H7.74767Z"/><path class="cls-1" d="M17.51581,24.16091h1.24792v6.52266a4.44166,4.44166,0,0,1-.09669.963,2.85285,2.85285,0,0,1-.29446.78625,2.35634,2.35634,0,0,1-.49454.61325,2.67665,2.67665,0,0,1-.69712.43963,3.88155,3.88155,0,0,1-.90208.2649,11.31951,11.31951,0,0,1-1.45957.08851,6.47652,6.47652,0,0,1-1.1124-.08851,3.84647,3.84647,0,0,1-.90208-.2649,2.62347,2.62347,0,0,1-.692-.43963,2.33419,2.33419,0,0,1-.48841-.61325,2.91272,2.91272,0,0,1-.2907-.78625,4.44056,4.44056,0,0,1-.09738-.963V24.16091h1.24854v6.31077a3.37246,3.37246,0,0,0,.13894,1.02077,1.792,1.792,0,0,0,.42511.72715,1.76214,1.76214,0,0,0,.72605.43319,3.39267,3.39267,0,0,0,1.04436.1429,6.2299,6.2299,0,0,0,1.39968-.1429,1.69424,1.69424,0,0,0,1.15765-1.16034,3.3742,3.3742,0,0,0,.13921-1.02077Z"/><path class="cls-1" d="M23.96232,33.83909V25.23627h-3.226V24.16091h7.52746v1.07536h-3.226v8.60282Z"/><path class="cls-1" d="M32.98491,34.10792A4.99243,4.99243,0,0,1,31.622,33.936a3.5931,3.5931,0,0,1-1.07109-.49343,3.29253,3.29253,0,0,1-.79589-.77671,4.30654,4.30654,0,0,1-.54393-1.022,6.08548,6.08548,0,0,1-.31225-1.23191,9.45886,9.45886,0,0,1-.10007-1.402,9.24,9.24,0,0,1,.1015-1.39859,6.11374,6.11374,0,0,1,.31569-1.23363,4.38133,4.38133,0,0,1,.54888-1.0287,3.30956,3.30956,0,0,1,.80292-.78368,3.6861,3.6861,0,0,1,1.07381-.4984,4.91788,4.91788,0,0,1,1.3637-.1748,5.0164,5.0164,0,0,1,1.36506.17164,3.61088,3.61088,0,0,1,1.07381.49344,3.29471,3.29471,0,0,1,.79941.7767,4.22983,4.22983,0,0,1,.54536,1.02375,6.079,6.079,0,0,1,.3129,1.23191,9.84509,9.84509,0,0,1-.00136,2.80069,5.99139,5.99139,0,0,1-.31785,1.23364,4.3758,4.3758,0,0,1-.55231,1.02691,3.32055,3.32055,0,0,1-.80436.78331,3.67354,3.67354,0,0,1-1.07732.49876A4.93864,4.93864,0,0,1,32.98491,34.10792Zm.02036-1.07391a2.94246,2.94246,0,0,0,.93589-.1383,2.35434,2.35434,0,0,0,.73153-.39166,2.42672,2.42672,0,0,0,.54393-.61527,3.72931,3.72931,0,0,0,.37382-.81,5.27257,5.27257,0,0,0,.21634-.97358,9.01848,9.01848,0,0,0,0-2.209,5.31031,5.31031,0,0,0-.21634-.97351,3.688,3.688,0,0,0-.37382-.81042,2.46869,2.46869,0,0,0-.54393-.61491,2.29877,2.29877,0,0,0-.73289-.39166,3.27133,3.27133,0,0,0-1.87258,0,2.32767,2.32767,0,0,0-.73432.39166,2.4689,2.4689,0,0,0-.54744.61491,3.60045,3.60045,0,0,0-.37526.81042,5.25328,5.25328,0,0,0-.2149.97351,9.21108,9.21108,0,0,0,0,2.209,5.21656,5.21656,0,0,0,.2149.97358,3.63986,3.63986,0,0,0,.37526.81,2.427,2.427,0,0,0,.54744.61527,2.37632,2.37632,0,0,0,.73432.39166A2.96227,2.96227,0,0,0,33.00527,33.034Z"/></svg>