<svg xmlns="http://www.w3.org/2000/svg" viewBox="0 0 40 40"><defs><style>.cls-1{fill:none;stroke:#fff;stroke-miterlimit:10;stroke-width:1.2px;fill-rule:evenodd;}</style></defs><g id="Icon"><g id="V4"><path id="x" class="cls-1" d="M36.75008,9.31715l-3.72957,1.004-.69826,2.672,1.9444,1.993,3.70524-.98961a.64755.64755,0,0,1-.0785.63136,4.60731,4.60731,0,0,1-2.93512,2.44474,4.72924,4.72924,0,0,1-4.11883-1.03707L13.24135,26.06921A6.22989,6.22989,0,0,1,8.88,31.76147a5.73636,5.73636,0,0,1-4.78387-.8608,1.64114,1.64114,0,0,1-.59156-1.009L8.49413,28.5549l.76239-2.876L7.1529,23.53386,2.1678,24.86624a1.73907,1.73907,0,0,1-.10505-1.00288,5.70225,5.70225,0,0,1,3.80531-3.37353,5.94919,5.94919,0,0,1,5.45279,1.5424L29.11491,13.096a4.76087,4.76087,0,0,1,3.43456-5.03716,4.57012,4.57012,0,0,1,3.59136.53406,1.16186,1.16186,0,0,1,.60648.71319Z"/></g></g></svg>