<svg xmlns="http://www.w3.org/2000/svg" viewBox="0 0 40 40"><defs><style>.cls-1,.cls-2{fill:#fff;}.cls-2{stroke:#fff;stroke-miterlimit:10;stroke-width:0.2px;}</style></defs><g id="Icon"><path class="cls-1" d="M21.548,3.21682c1.95967.05629,5.04431.58,5.96953,1.58027a10.93749,10.93749,0,0,1,1.2944,3.43679c.23138,1.274.24347,12.31359.1972,19.01576a26.73946,26.73946,0,0,1-.22555,5.3503,5.609,5.609,0,0,0-.24761.94553c-.24955,1.21689-.51923,2.1782-1.499,2.54243a18.0461,18.0461,0,0,1-5.07672.7284l-.20534-.00114-.18392-.00133-.02586-.00051-.02458.0005-.19733.00141-.192.00107a18.04411,18.04411,0,0,1-5.07641-.72845c-1.01237-.37616-1.3217-1.40334-1.5951-2.60654-.06164-.27127-.11649-.51267-.189-.72961-.157-1.09688-.25728-3.04256-.28941-4.5517H16.2V19.17718l-.05118-.16959L13.99,11.85474c.01177-.60693.05946-2.5705.19843-3.62689a11.16405,11.16405,0,0,1,1.37846-3.423c.65516-.71606,2.55031-1.29618,4.98508-1.52121.51907-.048.89322-.06328.996-.06683M21.5457,2.0163s-.43934.01094-1.10427.07245c-1.65438.15291-4.70379.61846-5.84589,2.00507a12.39589,12.39589,0,0,0-1.58988,3.92555c-.18229,1.32587-.21875,4.0023-.21875,4.0023L15,19.35432V27H12.771a49.962,49.962,0,0,0,.33041,6.04659c.3213.80121.38169,3.401,2.57931,4.18206a19.25316,19.25316,0,0,0,5.45052.78765q.10287,0,.20534-.00114c.1349,0,.20919-.0016.20919-.0016s.07425.0016.20915.0016c.06836.00068.13695.00114.20534.00114a19.25419,19.25419,0,0,0,5.451-.78765c2.19716-.781,2.1648-3.38085,2.4861-4.18206.44708-1.11351.31128-5.83141.31128-5.83141s.12168-17.33632-.216-19.19573a12.19028,12.19028,0,0,0-1.49671-3.92563C26.89528,2.15006,21.5457,2.0163,21.5457,2.0163Z"/><path class="cls-1" d="M21.4477,9.42326a13.47309,13.47309,0,0,0-5.54754,1.05814l1.59995,5.59984a12.68593,12.68593,0,0,1,3.94893-.65439,13.39377,13.39377,0,0,1,4.05083.65439l1.6-5.59984A14.03082,14.03082,0,0,0,21.4477,9.42326Z"/><path class="cls-1" d="M27.41675,30.48079C27.14544,29.42643,26,25.03176,26,25.03176V18.83749s.89158-2.32608,1.41675-3.55624Z"/><path class="cls-1" d="M21.45,29.07438a27.255,27.255,0,0,1-3.94987-.19356l-.8,4.79984a14.60575,14.60575,0,0,0,4.74758.8,15.30334,15.30334,0,0,0,4.85212-.8l-.8-4.79984A28.72869,28.72869,0,0,1,21.45,29.07438Z"/><path class="cls-2" d="M12.33878,15.93368,4.0625,22.9525a.29943.29943,0,0,1-.42031-.04809l-.6344-.7541a.29939.29939,0,0,1,.02444-.42225l8.83315-7.4396Z"/></g></svg>