<svg xmlns="http://www.w3.org/2000/svg" viewBox="0 0 40 40"><title>E12D_car</title><g id="E12D_car"><path d="M3.09608,18.94987a.32829.32829,0,0,0-.07909.21562c-.00255.86583-.01763,6.09755-.01763,8.79526,0,1.453-.261,3,1,3h3c.769,0,1-.261,1-1v-1h24v1a1.04573,1.04573,0,0,0,1,1h3c1.268,0,1-1.63,1-3,0-2.64847-.01506-7.91139-.01763-8.79173a.33191.33191,0,0,0-.085-.22191,11.51519,11.51519,0,0,0-3.25936-2.67236c-1.313-.493-26.6-.352-27.276-.099A11.34962,11.34962,0,0,0,3.09608,18.94987Z" fill="none" stroke="#fff" stroke-width="1.2"/><path d="M34.49794,16.74765s-3.47158-7.0809-4.68258-7.2599c-4.069-.599-16.103-.597-19.632,0-1.207.204-4.92155,7.2599-4.92155,7.2599" fill="none" stroke="#fff" stroke-width="1.2"/><path d="M15.09836,26.97075c-2.409-.119-3.243-4.944-3.243-4.944l1.853-2.06h12.582l1.853,2.06s-.834,4.825-3.243,4.944Z" fill="none" stroke="#fff" stroke-width="1.2"/><path d="M34.98851,20.91424c-1.03873,1.08157-2.67326,0-2.67326,0H29.641l-2.22836-1.53913,8.02173-.77A2.10436,2.10436,0,0,1,34.98851,20.91424Zm-27.305,0s-1.63453,1.08157-2.67326,0a2.10436,2.10436,0,0,1-.44587-2.30917l8.02173.77L10.3577,20.91424Z" fill="#fff" fill-rule="evenodd"/></g></svg>