<svg xmlns="http://www.w3.org/2000/svg" viewBox="0 0 40 40"><defs><style>.cls-1{fill:#fff;}</style></defs><g id="E13D_RDK_Sommerreifen"><g id="Reifen"><path class="cls-1" d="M11.4648,29.6457c-.15332-.697-.28166-1.43177-.38676-2.19987H7.738c.11536.74593.25826,1.48132.42627,2.19987Z"/><path class="cls-1" d="M6.39262,11.04543q.30535-.70165.65-1.33325l-2.02047.00017a13.50167,13.50167,0,0,0-.80375,1.33308Z"/><path class="cls-1" d="M7.38033,21.84557h3.39306c.01437-.83029.04615-1.63685.10856-2.40007H7.50541Q7.403,20.59608,7.38033,21.84557Z"/><path class="cls-1" d="M12.49768,33.04543a20.08834,20.08834,0,0,1-.68445-2H8.53243c.2028.69247.43188,1.36129.6866,2Z"/><path class="cls-1" d="M12.18851,7.6457a9.96061,9.96061,0,0,0-.87373.93318l3.28157-.0002a11.06453,11.06453,0,0,1,.86357-.93319Z"/><path class="cls-1" d="M13.823,35.6457a14.61843,14.61843,0,0,1-.75854-1.33334H9.77824a14.9284,14.9284,0,0,0,.73669,1.33334Z"/><path class="cls-1" d="M7.5404,25.912h3.36471c-.06755-.76644-.10791-1.56933-.12712-2.39974H7.379C7.40307,24.311,7.45662,25.11371,7.5404,25.912Z"/><path class="cls-1" d="M7.73287,8.57868a11.28333,11.28333,0,0,1,.70764-.93323l-1.53479.00012a8.4,8.4,0,0,0-.99309.93323Z"/><path class="cls-1" d="M6.35754,22.5552A27.16777,27.16777,0,0,1,8.54406,11.0904v-.045H8.5664a12.48335,12.48335,0,0,1,3.59-4.69986h-.35962a7.74959,7.74959,0,0,0-3.52254,3.281V9.7121H8.22159C6.42244,12.69355,5.33683,17.22817,5.337,22.55585,5.33736,30.84056,8.01456,37.43,11.8376,39.01223h.35567C8.66105,36.29706,6.35783,30.08849,6.35754,22.5552Z"/><path class="cls-1" d="M7.68107,17.9123h3.36454c.101-.77283.2312-1.50224.38147-2.2002H8.07259C7.91581,16.40623,7.78861,17.14521,7.68107,17.9123Z"/><path class="cls-1" d="M8.43306,14.31236h3.33671a19.50676,19.50676,0,0,1,.68018-2H9.1357A20.00693,20.00693,0,0,0,8.43306,14.31236Z"/><path class="cls-1" d="M10.47518,9.71243a14.56894,14.56894,0,0,0-.76339,1.333h3.3009a14.1972,14.1972,0,0,1,.76978-1.33325Z"/><path class="cls-1" d="M6.46761,34.31236H4.28133a13.72468,13.72468,0,0,0,.8055,1.33334H7.123Q6.77666,35.01373,6.46761,34.31236Z"/><path class="cls-1" d="M14.6276,36.77851H11.31217a9.29823,9.29823,0,0,0,.85311.93359h3.31128A11.01694,11.01694,0,0,1,14.6276,36.77851Z"/><path class="cls-1" d="M5.28007,14.31236c.17907-.70316.38932-1.36316.6147-2h-2.277a19.64234,19.64234,0,0,0-.71919,2Z"/><path class="cls-1" d="M13.52213,6.64561l3.13363-.0002c.14388-.10213.28674-.20719.43375-.29984H14.11877A6.55671,6.55671,0,0,0,13.52213,6.64561Z"/><path class="cls-1" d="M13.487,38.7121a6.25826,6.25826,0,0,0,.60546.30013h2.99764c-.14632-.0922-.28853-.19779-.43176-.30013Z"/><path class="cls-1" d="M8.6525,6.64545l.76424,0c.1097-.09554.22628-.17257.33883-.26062A5.01437,5.01437,0,0,0,8.6525,6.64545Z"/><path class="cls-1" d="M5.964,33.04543q-.34187-.95111-.61687-2H2.9528a20.0725,20.0725,0,0,0,.72664,2Z"/><path class="cls-1" d="M4.34741,21.84557c.01428-.82056.05054-1.62228.11287-2.40007H1.93335q-.10522,1.16309-.125,2.40007Z"/><path class="cls-1" d="M4.61832,17.9123c.09469-.75712.20724-1.49484.34758-2.2002H2.52547q-.24622,1.05359-.41264,2.2002Z"/><path class="cls-1" d="M4.47766,25.912q-.10292-1.16961-.13387-2.39974H1.81144q.02661,1.2345.14193,2.39974Z"/><path class="cls-1" d="M5.01977,29.6457q-.2201-1.06208-.37227-2.19987H2.14436q.17316,1.144.42754,2.19987Z"/><path class="cls-1" d="M6.95825,37.7121H8.528a11.0326,11.0326,0,0,1-.71505-.93359H5.97115A8.40488,8.40488,0,0,0,6.95825,37.7121Z"/><path class="cls-1" d="M8.69844,38.7121a4.88659,4.88659,0,0,0,1.1143.26746c-.1047-.08354-.20577-.17741-.30819-.26746Z"/><path class="cls-1" d="M27.21081,26.01223h-2.4753c-.70219,6.02844-3.31535,10.26282-6.63155,10.263a3.83578,3.83578,0,0,1-1.09916-.16577,8.18763,8.18763,0,0,0,2.67574,2.90279S26.12251,37.15807,27.21081,26.01223Z"/></g><rect class="cls-1" x="26.9" y="1" width="1.2" height="4"/><rect class="cls-1" x="26.9" y="20" width="1.2" height="4"/><rect class="cls-1" x="16" y="11.9" width="4" height="1.2"/><rect class="cls-1" x="35" y="11.9" width="4" height="1.2"/><rect class="cls-1" x="20.18249" y="3.78249" width="1.2" height="4" transform="translate(1.99821 16.38909) rotate(-45)"/><rect class="cls-1" x="33.61751" y="17.21751" width="1.2" height="4" transform="translate(-3.56676 29.82412) rotate(-45)"/><rect class="cls-1" x="18.78249" y="18.61751" width="4" height="1.2" transform="translate(-7.50179 20.32412) rotate(-45)"/><rect class="cls-1" x="32.21751" y="5.18249" width="4" height="1.2" transform="translate(5.93324 25.88909) rotate(-45)"/><path class="cls-1" d="M27.5,18.09961A5.59986,5.59986,0,1,1,33.09961,12.5,5.606,5.606,0,0,1,27.5,18.09961Zm0-9.99951A4.40015,4.40015,0,1,0,31.90039,12.5,4.40468,4.40468,0,0,0,27.5,8.1001Z"/></g></svg>