<svg id="Ebene_1" data-name="Ebene 1" xmlns="http://www.w3.org/2000/svg" viewBox="0 0 40 40"><defs><style>.cls-1{fill:none;stroke:#fff;stroke-width:1.2px;}.cls-2{fill:#fff;}</style></defs><path class="cls-1" d="M8.56362,20.16844a3.99228,3.99228,0,0,1-3.569-2.23307l-.19964-.41L4.33956,17.523c-.11715-.0012-2.16552-.07651-2.16552-.07651-.50507-.01793-.76089-.38612-.76149-1.09262A4.34058,4.34058,0,0,1,2.018,13.7442c.46741-.575,1.03644-1.08067,3.6096-1.63475,1.4381-.30783,4.98673-.86609,5.0226-.87147a2.0842,2.0842,0,0,0,.45845-.11895l.0765-.02988.06814-.04543a3.98551,3.98551,0,0,0,.61087-.50387c.248-.20024.55946-.47877.88521-.77046a11.15007,11.15007,0,0,1,4.2653-2.759,24.43727,24.43727,0,0,1,9.85572.09922A19.58792,19.58792,0,0,1,31.162,9.00073a17.20662,17.20662,0,0,0,3.444,1.55645,14.77837,14.77837,0,0,0,1.77043.31559c1.11175.14405,1.2289.15959,1.462.97428a17.71534,17.71534,0,0,1,.777,5.02439c-.00119.09205-.38254.48056-2.23665.48056h-.17213c-.16624,0-.66858.00926-.66858.00926l-.17539.445a4.02146,4.02146,0,0,1-2.48052,2.27251,4.03264,4.03264,0,0,1-.832.08487,3.9694,3.9694,0,0,1-3.60541-2.32272L28.25,17.41177l-3.47153-.012-12.81919-.0012-.18768.45546a3.901,3.901,0,0,1-2.453,2.245A4.06415,4.06415,0,0,1,8.56362,20.16844Z"/><path class="cls-2" d="M10.5229,34.99866v-11.99h7.44715v1.28642H11.98052v3.84676h5.13523v1.27848H11.98052v4.29589H17.986v1.28245Z"/><path class="cls-2" d="M23.64972,34.99866l-4.50695-11.99h1.69868l3.148,8.71285c.09735.26424.18973.52251.27914.77483q.13261.37848.23443.78278.10878-.40827.24438-.78278.13558-.374.28211-.77483l3.147-8.71285h1.6351l-4.49106,11.99Z"/></svg>