<svg id="Ebene_1" data-name="Ebene 1" xmlns="http://www.w3.org/2000/svg" viewBox="0 0 40 40"><defs><style>.cls-1{fill:none;stroke:#fff;stroke-miterlimit:10;stroke-width:1.2px;}.cls-2{fill:#fff;}</style></defs><g id="E194_car_battery_low" data-name="E194 car battery low"><polyline class="cls-1" points="33.44 25.017 33.44 28.473 5.008 28.473"/><polyline class="cls-1" points="37.391 25.088 37.391 32.424 8.999 32.424"/><polyline class="cls-1" points="28.988 24.436 1.505 24.446 1.505 8.692 28.988 8.682"/><rect class="cls-2" x="5.17617" y="6.07602" width="5.46033" height="2.24335"/><rect class="cls-2" x="20.46663" y="6.07602" width="5.46033" height="2.24335"/></g><path class="cls-2" d="M29.10459,16.47484a3.02006,3.02006,0,0,1-1.1933-.21868,2.37569,2.37569,0,0,1-.85808-.60346,2.549,2.549,0,0,1-.51758-.908,3.57259,3.57259,0,0,1-.1733-1.132,3.46561,3.46561,0,0,1,.18312-1.14564,2.59365,2.59365,0,0,1,.53423-.9137,2.43548,2.43548,0,0,1,.86337-.60156,2.954,2.954,0,0,1,1.16154-.21679,3.09119,3.09119,0,0,1,1.20389.21683,2.34031,2.34031,0,0,1,.85733.60156,2.541,2.541,0,0,1,.5138.9137,3.69655,3.69655,0,0,1,.17176,1.14564,3.65021,3.65021,0,0,1-.0802.77522,2.8775,2.8775,0,0,1-.24065.68934,2.66782,2.66782,0,0,1-.39424.57736,2.30246,2.30246,0,0,1-.53879.44114,2.65045,2.65045,0,0,1-.678.28036A3.18185,3.18185,0,0,1,29.10459,16.47484Zm0-.97159a1.4931,1.4931,0,0,0,.65832-.13431,1.21023,1.21023,0,0,0,.45553-.38137,1.68782,1.68782,0,0,0,.26559-.59589,3.295,3.295,0,0,0,.08551-.779,3.35485,3.35485,0,0,0-.08551-.78885,1.71343,1.71343,0,0,0-.26559-.59968,1.20413,1.20413,0,0,0-.45553-.38289,1.66507,1.66507,0,0,0-1.3121,0,1.23309,1.23309,0,0,0-.45931.38289,1.67937,1.67937,0,0,0-.2709.59968,3.2345,3.2345,0,0,0-.08777.78885,3.17542,3.17542,0,0,0,.08777.779,1.6545,1.6545,0,0,0,.2709.59589,1.23965,1.23965,0,0,0,.45931.38137A1.4819,1.4819,0,0,0,29.10459,15.50325Zm-.69842,6.59568L35.712,11.01533h1.37491l-7.30585,11.0836Zm8.21764.13469a3.063,3.063,0,0,1-1.19784-.21683,2.35293,2.35293,0,0,1-.85733-.60157,2.54931,2.54931,0,0,1-.51757-.9103,3.56789,3.56789,0,0,1-.174-1.13389,3.42631,3.42631,0,0,1,.18464-1.14336,2.628,2.628,0,0,1,.53648-.91181,2.46025,2.46025,0,0,1,.86111-.60384,2.93383,2.93383,0,0,1,1.16454-.2183,3.06811,3.06811,0,0,1,1.20087.2183,2.35464,2.35464,0,0,1,.8596.60384,2.53559,2.53559,0,0,1,.51379.91181,3.65243,3.65243,0,0,1,.17177,1.14336,3.407,3.407,0,0,1-.18312,1.13389,2.61361,2.61361,0,0,1-.532.9103,2.42294,2.42294,0,0,1-.86187.60157A2.97412,2.97412,0,0,1,36.62381,22.23362Zm0-.97158a1.47726,1.47726,0,0,0,.65529-.1347,1.21384,1.21384,0,0,0,.454-.381,1.69284,1.69284,0,0,0,.26559-.59629,3.25155,3.25155,0,0,0,.08624-.779,3.31042,3.31042,0,0,0-.08624-.78847,1.71006,1.71006,0,0,0-.26559-.59968,1.20568,1.20568,0,0,0-.454-.38322,1.6638,1.6638,0,0,0-1.30983,0,1.23365,1.23365,0,0,0-.4593.38326,1.73254,1.73254,0,0,0-.27317.59968,3.19148,3.19148,0,0,0-.08929.78847,3.13462,3.13462,0,0,0,.08929.779,1.71467,1.71467,0,0,0,.27317.59629,1.24238,1.24238,0,0,0,.4593.381,1.483,1.483,0,0,0,.65454.13462Z"/></svg>