<svg id="Hilfe" xmlns="http://www.w3.org/2000/svg" viewBox="0 0 40 40"><defs><style>.cls-1{fill:#fff;}</style></defs><g id="V2"><g id="V2-2" data-name="V2"><path class="cls-1" d="M20.00862,9.52869h-.00071a10.32362,10.32362,0,1,0,.00071,0ZM17.17115,20.98433a2.82055,2.82055,0,1,1,2.813,2.9223A2.89,2.89,0,0,1,17.17115,20.98433Zm-1.88879,4.78445,1.37331-1.201a5.65879,5.65879,0,0,0,6.66345,0l1.36682,1.19533c.3237.31207.47858.55945.47288.75636a.40577.40577,0,0,1-.166.30319l-.01856.01883a.43411.43411,0,0,1-.04282.03769A8.53421,8.53421,0,0,1,15.05,26.882a.24226.24226,0,0,1-.05068-.04017l-.0207-.02026a.4108.4108,0,0,1-.16167-.30212C14.81194,26.32219,14.96541,26.07552,15.28236,25.76878ZM20.01507,11.318a8.60477,8.60477,0,0,1,7.79667,5.03824.35029.35029,0,0,1,.00717.3531.71154.71154,0,0,1-.52874.38847H12.72491a.71156.71156,0,0,1-.52874-.38847.3561.3561,0,0,1,.00968-.35829l.00287-.00571A8.60258,8.60258,0,0,1,20.01507,11.318Zm5.65818,8.62949v-.51632l2.22211.00341c.31931,0,.6213,0,.62838.63777a8.65016,8.65016,0,0,1-.90136,3.68223l-.0347.075-.00036.00071c-.1464.32319-.354.50864-.569.50864a.408.408,0,0,1-.25247-.0929l-1.77337-1.57326A5.71822,5.71822,0,0,0,25.67325,19.9475ZM14.3065,19.43116l-.0021.51469a5.76821,5.76821,0,0,0,.67936,2.7142l-1.75713,1.56028c-.28832.224-.6123.05109-.82793-.408l-.0367-.079a8.61859,8.61859,0,0,1-.89963-3.65764c.00884-.64118.31122-.64118.63136-.64118Z"/><path class="cls-1" d="M38.29263,27.91577s-2.278-4.52684-3.59227-5.49062a5.47722,5.47722,0,0,1-2.04437-3.7967c-.32126-1.60629.12795-1.34344-.73914-2.6869s0-1.31425,0-1.31425a2.624,2.624,0,0,1,1.61533,1.84c.23364,1.34344,1.12573,1.26923,1.12573,1.26923s1.28563.21079,1.08528-2.828c0,0,1.01632-.2923,1.26893,1.13536a2.87573,2.87573,0,0,0,.34907,1.11122s.21869.09092.21869-.30979.00835-.52594.00835-.52594,1.11028-.07514,1.06022,1.294a.61881.61881,0,0,0,.30053.50089c.28388.13358.551.21706.5343.90162s-.08348,3.87359-.08348,3.87359a1.868,1.868,0,0,1,.45076,2.10377A12.12557,12.12557,0,0,1,38.29263,27.91577Z"/><path class="cls-1" d="M1.70741,27.91577s2.278-4.52684,3.59227-5.49062a5.47726,5.47726,0,0,0,2.04437-3.7967c.32126-1.60629-.128-1.34344.73914-2.6869s0-1.31425,0-1.31425a2.624,2.624,0,0,0-1.61533,1.84c-.23364,1.34344-1.12573,1.26923-1.12573,1.26923s-1.28564.21079-1.08528-2.828c0,0-1.01632-.2923-1.26893,1.13536a2.87573,2.87573,0,0,1-.34907,1.11122s-.21869.09092-.21869-.30979-.00835-.52594-.00835-.52594-1.11028-.07514-1.06022,1.294a.61882.61882,0,0,1-.30054.50089c-.28388.13358-.55094.21706-.53429.90162s.08348,3.87359.08348,3.87359a1.868,1.868,0,0,0-.45081,2.10377A12.1252,12.1252,0,0,0,1.70741,27.91577Z"/></g></g></svg>