<svg xmlns="http://www.w3.org/2000/svg" viewBox="0 0 40 40"><defs><style>.cls-1,.cls-2{fill:#fff;}.cls-1{fill-rule:evenodd;}</style></defs><g id="E170_phone_edit_number"><g id="V2-7" data-name="V2"><path class="cls-1" d="M17.88035,25.46546l1.90341-4.95016,3.05132,3.00047Z"/><path class="cls-2" d="M36.57007,4.99618,38.225,6.61409,24.53278,20.55534,22.8779,18.93742,36.57007,4.99618m-.01721-1.695L21.179,18.95467l3.371,3.29571L39.92383,6.59685l-3.371-3.29571Z"/><rect class="cls-2" x="9" y="6" width="6" height="6" transform="translate(24 18) rotate(-180)"/><rect class="cls-2" x="17" y="6" width="6" height="6" transform="translate(40 18) rotate(-180)"/><rect class="cls-2" x="1" y="14" width="6" height="6" transform="translate(8 34) rotate(-180)"/><rect class="cls-2" x="9" y="14" width="6" height="6" transform="translate(24 34) rotate(-180)"/><rect class="cls-2" x="1" y="22" width="6" height="6" transform="translate(8 50) rotate(-180)"/><rect class="cls-2" x="9" y="22" width="6" height="6" transform="translate(24 50) rotate(-180)"/><rect class="cls-2" x="9" y="30" width="6" height="6" transform="translate(24 66) rotate(-180)"/><rect class="cls-2" x="1" y="6" width="6" height="6" transform="translate(8 18) rotate(-180)"/><polygon class="cls-2" points="23 14.603 23 14 17 14 17 20 17.697 20 23 14.603"/><polygon class="cls-2" points="17 27.693 17 28 23 28 23 25.332 17 27.693"/></g></g></svg>