<svg xmlns="http://www.w3.org/2000/svg" viewBox="0 0 40 40"><defs><style>.cls-1,.cls-3{fill:none;}.cls-1,.cls-2,.cls-3{stroke:#fff;stroke-width:1.2px;}.cls-1{stroke-miterlimit:10;}.cls-2{fill:red;}</style></defs><g id="Icon"><g id="V1"><g id="Fig-1"><circle class="cls-1" cx="31.8999" cy="23.5" r="3.25"/><path class="cls-1" d="M38.3999,31a1.5,1.5,0,0,0-1.5-1.5h-10a1.5,1.5,0,0,0-1.5,1.5v7.5h13Z"/></g></g><path class="cls-2" d="M7.63887,15.66905H29.316"/><path class="cls-3" d="M7.63887,15.66845a6.6696,6.6696,0,1,1,0-13.33919,6.59293,6.59293,0,0,1,6.66989,6.51505q.0009.07717,0,.15435a6.66885,6.66885,0,0,1-6.6679,6.66979Z"/><path class="cls-3" d="M29.31581,15.66835a6.66926,6.66926,0,0,1-6.66967-6.66887V8.99717a6.6699,6.6699,0,1,1,6.67171,6.67118Z"/></g></svg>