<svg xmlns="http://www.w3.org/2000/svg" viewBox="0 0 40 40"><defs><style>.cls-1{fill:#fff;}.cls-2{fill:red;}.cls-2,.cls-3{stroke:#fff;stroke-width:1.2px;}.cls-3{fill:none;}</style></defs><g id="Ebene_1" data-name="Ebene 1"><g id="Icon"><g id="V1"><g id="Figuren"><path class="cls-1" d="M37,22.90039H33.6416a5.2558,5.2558,0,0,1-.83966,1.19922H37A.90191.90191,0,0,1,37.90039,25v8h1.19922V25A2.10138,2.10138,0,0,0,37,22.90039Z"/><path class="cls-1" d="M32,13.6499a3.839,3.839,0,0,0-3.11981,1.61225C28.921,15.26123,28.959,15.25,29,15.25a5.18348,5.18348,0,0,1,1.34546.19672A2.62457,2.62457,0,0,1,32,14.8501,2.65329,2.65329,0,0,1,34.65039,17.5a2.623,2.623,0,0,1-.59705,1.65466A5.18342,5.18342,0,0,1,34.25,20.5c0,.04095-.01117.07892-.01208.11963A3.84158,3.84158,0,0,0,32,13.6499Z"/><path class="cls-1" d="M29,16.6499a3.839,3.839,0,0,0-3.11981,1.61225C25.921,18.26123,25.959,18.25,26,18.25a5.18348,5.18348,0,0,1,1.34546.19672A2.62457,2.62457,0,0,1,29,17.8501,2.65329,2.65329,0,0,1,31.65039,20.5a2.62364,2.62364,0,0,1-.59705,1.65466A5.18342,5.18342,0,0,1,31.25,23.5c0,.04095-.01117.07892-.01208.11963A3.84158,3.84158,0,0,0,29,16.6499Z"/><path class="cls-1" d="M34,25.90039H30.6416a5.25642,5.25642,0,0,1-.83966,1.19922H34A.90191.90191,0,0,1,34.90039,28v8h1.19922V28A2.10138,2.10138,0,0,0,34,25.90039Z"/><path class="cls-1" d="M26,27.34961a3.84986,3.84986,0,1,1,3.84961-3.85011V23.5A3.8535,3.8535,0,0,1,26,27.34961Zm0-6.49951A2.65015,2.65015,0,1,0,28.65039,23.5v0A2.6536,2.6536,0,0,0,26,20.8501Z"/><path class="cls-1" d="M33.09961,39.09961H18.8999V31A2.10212,2.10212,0,0,1,21,28.90039H31A2.10138,2.10138,0,0,1,33.09961,31ZM20.1001,37.90039H31.90039V31A.90191.90191,0,0,0,31,30.09961H21A.90148.90148,0,0,0,20.1001,31Z"/></g></g></g></g><g id="Icon-2" data-name="Icon"><path class="cls-2" d="M7.13877,15.66905H25.42371"/><path class="cls-3" d="M7.13877,15.66845A6.42011,6.42011,0,0,1,.76917,8.99886a6.6696,6.6696,0,0,1,6.6696-6.6696,6.59293,6.59293,0,0,1,6.66989,6.51505q.0009.07717,0,.15435a6.66885,6.66885,0,0,1-6.6679,6.66979Z"/><path class="cls-3" d="M25.54164,15.066A6.67039,6.67039,0,0,1,21.646,8.99948V8.99717a6.6699,6.6699,0,1,1,12.68277,2.8917"/></g></svg>