<svg xmlns="http://www.w3.org/2000/svg" viewBox="0 0 40 40"><defs><style>.cls-1{fill:#fff;}</style></defs><g id="E181_RDK_AllSeasons"><g id="Reifen"><path class="cls-1" d="M27.21081,26.01223h-2.4753c-.70219,6.02844-3.31535,10.26282-6.63155,10.263a3.83578,3.83578,0,0,1-1.09916-.16577,8.18763,8.18763,0,0,0,2.67574,2.90279S26.12251,37.15807,27.21081,26.01223Z"/><path class="cls-1" d="M13.95813,35.86188a14.43472,14.43472,0,0,1-.80441-1.38179A9.883,9.883,0,0,0,9.968,36.47057a11.76928,11.76928,0,0,0,.84038,1.12878A13.80489,13.80489,0,0,1,13.95813,35.86188Z"/><path class="cls-1" d="M12.6674,33.45046q-.33283-.77269-.61341-1.63692a8.89915,8.89915,0,0,0-3.35652,2.28565c.20894.48108.42956.94348.66727,1.37711A11.04372,11.04372,0,0,1,12.6674,33.45046Z"/><path class="cls-1" d="M9.54634,9.55105a23.24939,23.24939,0,0,1,5.05652-.97978c.21118-.25809.42993-.49882.65348-.72811a26.11366,26.11366,0,0,0-4.92928.51705A13.033,13.033,0,0,0,9.54634,9.55105Z"/><path class="cls-1" d="M8.21476,12.42068a17.87067,17.87067,0,0,1,4.77234-1.37459l.00582.04109a14.31043,14.31043,0,0,1,.72916-1.28072,13.57512,13.57512,0,0,0-5.00679,1.36837Q8.44924,11.77444,8.21476,12.42068Z"/><path class="cls-1" d="M11.69633,30.5908c-.163-.62072-.30994-1.26684-.43254-1.94942a7.70684,7.70684,0,0,0-3.49292,2.86381c.12732.44458.26738.87215.41455,1.28984A10.7052,10.7052,0,0,1,11.69633,30.5908Z"/><path class="cls-1" d="M11.04288,27.21165c-.08484-.65852-.14587-1.35018-.193-2.06054A7.73806,7.73806,0,0,0,7.084,28.38882q.1128.68737.2526,1.34534A10.4394,10.4394,0,0,1,11.04288,27.21165Z"/><path class="cls-1" d="M6.5382,12.53331a18.22737,18.22737,0,0,1,.73357-1.85209A12.11522,12.11522,0,0,0,5.05131,9.67088a13.35,13.35,0,0,0-.79688,1.30546A10.02527,10.02527,0,0,1,6.5382,12.53331Z"/><path class="cls-1" d="M8.833,8.1245a12.224,12.224,0,0,0-1.97782-.43807A8.61975,8.61975,0,0,0,5.78072,8.731a12.95531,12.95531,0,0,1,2.00594.93856A10.81737,10.81737,0,0,1,8.833,8.1245Z"/><path class="cls-1" d="M6.9493,17.72581c-.04863.35535-.09335.71424-.131,1.07972a12.131,12.131,0,0,1,4.45-2.31075q.12438-.68025.27746-1.3158C9.86344,15.60826,7.66772,16.51541,6.9493,17.72581Z"/><path class="cls-1" d="M7.35583,15.42589a14.36943,14.36943,0,0,1,4.56779-1.76848l.01786.09058q.2151-.68976.46428-1.32133c-1.91887.36141-3.95052,1.06974-4.78463,1.90149Q7.47862,14.86557,7.35583,15.42589Z"/><path class="cls-1" d="M10.77819,23.52338c-.00748-.31954-.01867-.63432-.01863-.96338,0-.35315.01139-.69067.02-1.0321-1.5503.67724-3.48828,2.08207-4.05782,3.78288.01957.27665.04736.54614.07287.81774A10.56863,10.56863,0,0,1,10.77819,23.52338Z"/><path class="cls-1" d="M6.62968,22.40509a10.96676,10.96676,0,0,1,4.23616-2.69335c.03894-.52491.08753-1.03606.14767-1.53036-1.66069.59522-3.78512,1.83814-4.36748,3.28634C6.63724,21.77782,6.631,22.08975,6.62968,22.40509Z"/><path class="cls-1" d="M1.82922,24.05a10.74668,10.74668,0,0,1,3.37,1.81852c-.01518-.1899-.02678-.38338-.03927-.57613a7.027,7.027,0,0,0-3.35189-3.40926c-.003.22526-.0059.4506-.00435.67928C1.80037,23.06663,1.81067,23.56147,1.82922,24.05Z"/><path class="cls-1" d="M14.55765,36.69416a12.92933,12.92933,0,0,0-3.06132,1.64225c.15052.14429.30648.27584.463.40609a22.01338,22.01338,0,0,1,3.39363-1.15275A11.152,11.152,0,0,1,14.55765,36.69416Z"/><path class="cls-1" d="M6.91792,37.68171a5.45751,5.45751,0,0,0,3.23145,1.322A13.22048,13.22048,0,0,0,6.91792,37.68171Z"/><path class="cls-1" d="M12.13163,6.48945a8.80044,8.80044,0,0,0-.74239.65775A41.44585,41.44585,0,0,1,16.38781,6.835c.22982-.17509.46346-.33928.7017-.48942h-4.773Z"/><path class="cls-1" d="M8.93123,37.30146c-.16239-.19487-.3184-.40393-.47172-.61955A21.40033,21.40033,0,0,0,4.83459,35.264a11.93151,11.93151,0,0,0,.75492,1.06608A22.61178,22.61178,0,0,1,8.93123,37.30146Z"/><path class="cls-1" d="M9.5251,7.37372a6.84761,6.84761,0,0,1,1.36833-1.02815h-.5603a5.0628,5.0628,0,0,0-2.26278.5531A5.76208,5.76208,0,0,1,9.5251,7.37372Z"/><path class="cls-1" d="M13.63684,39.01223h3.45324a9.30441,9.30441,0,0,1-.97021-.71651A23.712,23.712,0,0,0,13.63684,39.01223Z"/><path class="cls-1" d="M5.249,18.90245c.05985-.61027.13973-1.22115.23189-1.83016a9.6963,9.6963,0,0,0-2.79492-2.008q-.246.9328-.42761,1.94544A11.09979,11.09979,0,0,1,5.249,18.90245Z"/><path class="cls-1" d="M5.074,22.22c.00338-.3595.01091-.722.02507-1.09A7.03312,7.03312,0,0,0,2.02221,18.5978c-.05713.47726-.10461.96383-.13956,1.46171A11.20383,11.20383,0,0,1,5.074,22.22Z"/><path class="cls-1" d="M5.77486,15.42251c.10425-.50545.21814-1.00541.3481-1.49483a8.046,8.046,0,0,0-2.42049-1.81409q-.33111.75464-.61186,1.59294A11.71261,11.71261,0,0,1,5.77486,15.42251Z"/><path class="cls-1" d="M2.19152,27.69648a18.9714,18.9714,0,0,1,3.47071,1.67468c-.046-.24552-.09448-.48792-.13526-.74024a6.65391,6.65391,0,0,0-3.59025-2.90954c.06234.6829.14449,1.34831.24825,1.99182Z"/><path class="cls-1" d="M7.44515,34.97325c-.109-.21887-.21582-.44136-.31792-.67314a17.0941,17.0941,0,0,0-3.60632-1.63317q.24543.61212.51945,1.17419C5.20467,34.1835,6.37662,34.54914,7.44515,34.97325Z"/><path class="cls-1" d="M6.43213,32.472c-.08724-.27071-.16651-.55367-.24581-.83675a9.99434,9.99434,0,0,0-3.6886-2.30485q.21826.96624.49743,1.855A19.8269,19.8269,0,0,1,6.43213,32.472Z"/></g><rect class="cls-1" x="26.9" y="1" width="1.2" height="4"/><rect class="cls-1" x="16" y="11.9" width="4" height="1.2"/><rect class="cls-1" x="20.18249" y="3.78249" width="1.2" height="4" transform="translate(1.99821 16.38909) rotate(-45)"/><rect class="cls-1" x="18.78249" y="18.61751" width="4" height="1.2" transform="translate(-7.50179 20.32412) rotate(-45)"/><path class="cls-1" d="M24.01093,16.87238l.61761-1.06574a4.36961,4.36961,0,0,1,4.3139-7.44379l.61744-1.06536a5.59357,5.59357,0,0,0-5.549,9.57489Z"/><path class="cls-1" d="M36.716,14.61743l-.5918-1.02607L34.13539,14.705v-3.4613l1.90222,1.06317.59119-1.0257L34.51027,10.054l3.95642-2.28388L37.8749,6.74371,34.13539,8.8681V6.70757H33.00185V9.189l-.09961-.05792L30.50563,7.74383q-.29388.51159-.59125,1.02942l3.08747,1.7843v4.833l-.0332.01916-4.6999,2.7074-.0332-.01923L25.4651,16.52441c-.205.35742-.40283.7027-.59179,1.03253l2.20923,1.25513-.14844.08691-2.05725,1.1875.59112,1.02576,2.2005-1.27344v4.569h1.13361v-4.569l2.26746,1.27344.59112-1.02576L29.455,18.81207l.09961-.05725L33.00185,16.759v2.48175h1.13354V17.08032l3.73816,2.12432.59314-1.026-3.95642-2.28485Z"/></g></svg>