<svg xmlns="http://www.w3.org/2000/svg" viewBox="0 0 40 40"><defs><style>.cls-1,.cls-3{fill:#fff;}.cls-2{fill:none;stroke-width:1.08568px;}.cls-2,.cls-3{stroke:#fff;}.cls-3{stroke-miterlimit:10;stroke-width:0.15px;}</style></defs><g id="E183_RDK_Rennreifen"><g id="Reifen"><path class="cls-1" d="M30.16044,22.26115h-2.459C27.60665,29.7924,24.714,35.4294,20.88676,35.42952a3.83273,3.83273,0,0,1-1.09917-.16577,16.57128,16.57128,0,0,0,2.67574,3.06958S29.81464,36.18519,30.16044,22.26115Z"/><path class="cls-1" d="M13.50067,21.881c-.001-8.78546,2.70563-13.93011,6.33-16.21429H12.88885l-.16613.13019c-3.52381,2.75976-5.9126,8.96844-5.91223,16.20245v.00134c-.00037,7.23438,2.38842,13.44269,5.91223,16.20245l.16626.13019h6.94226C16.20673,36.04926,13.49994,30.66656,13.50067,21.881ZM12.07092,8.01154l2.47394-.52167a.932.932,0,0,1,.18829-.01929A.91657.91657,0,0,1,14.92249,9.284l-2.47327.52154a.91673.91673,0,0,1-.3783-1.794ZM9.1756,13.13086a.9178.9178,0,0,1,.83453-.53961h.00006a.90344.90344,0,0,1,.3786.0827l2.24958,1.01917a.91651.91651,0,1,1-.75641,1.66967L9.63245,14.34363a.91631.91631,0,0,1-.45685-1.21277ZM8.11932,23.027a.91569.91569,0,0,1,.439-1.21936l2.59637-1.22223a.90479.90479,0,0,1,.39167-.08868.91749.91749,0,0,1,.862,1.22845.90876.90876,0,0,1-.47205.51788l-2.5965,1.22229a.90335.90335,0,0,1-.3908.088A.92056.92056,0,0,1,8.11932,23.027Zm.71741,6.06134a.91646.91646,0,0,1,1.175-1.21954l2.69318,1.05737a.9165.9165,0,1,1-.6698,1.70624L9.34192,29.57513A.91139.91139,0,0,1,8.83673,29.08838Zm6.40985,5.969a.91072.91072,0,0,1-.472.519l-1.82831.861a.904.904,0,0,1-.39118.088.92035.92035,0,0,1-.82959-.52618.91637.91637,0,0,1,.4386-1.21955l1.82807-.86084a.90366.90366,0,0,1,.39129-.08862.92093.92093,0,0,1,.82972.52667A.90948.90948,0,0,1,15.24658,35.05743Z"/><path class="cls-1" d="M5.085,22C5.08466,15.06647,7.50787,8.455,11.01611,5.66669H8.6076c-4.606,0-8.0628,8.41168-8.0628,16.21679s3.45807,16.45,8.06335,16.44983h2.40876C7.50818,35.54572,5.08466,28.934,5.085,22ZM5.32281,7.397a.91575.91575,0,0,1,1.25434-.32684l1.22809.72064A.91607.91607,0,0,1,8.13214,9.045a.91605.91605,0,0,1-1.25433.32685l-1.228-.72064a.916.916,0,0,1-.327-1.25422ZM1.94714,14.30927a.91053.91053,0,0,1,.4643-.526l2.16125-1.05719a.91039.91039,0,0,1,.40186-.093h.00006a.91675.91675,0,0,1,.40326,1.74023L3.21655,15.43054a.91672.91672,0,0,1-1.26941-1.12127ZM.82233,21.59a.911.911,0,0,1,.09631-.69507A.92136.92136,0,0,1,1.71,20.44153H1.71a.91185.91185,0,0,1,.46314.12671l2.08423,1.22259a.91633.91633,0,0,1,.32708,1.25446.92132.92132,0,0,1-.79138.45276A.91149.91149,0,0,1,3.33,23.37189l-2.08423-1.2226A.91054.91054,0,0,1,.82233,21.59ZM2.99884,31.403a.9168.9168,0,0,1-.45135-1.71515l1.80566-1.019a.91933.91933,0,0,1,.44952-.118h.00006a.91675.91675,0,0,1,.45142,1.71509l-1.805,1.01874A.91578.91578,0,0,1,2.99884,31.403ZM8.225,35.84161a.91591.91591,0,0,1-1.11976.65345l-1.98413-.52143a.91654.91654,0,0,1,.23163-1.803.92649.92649,0,0,1,.23438.03034l1.98413.52142A.91642.91642,0,0,1,8.225,35.84161Z"/></g><g id="Flagge"><path class="cls-2" d="M33.28762,20.35635A12.23331,12.23331,0,0,1,28.21955,15.145a6.32545,6.32545,0,0,0-4.716-3.52953l5.54254-7.91556a5.97939,5.97939,0,0,1,4.59583,3.70113,11.28976,11.28976,0,0,0,4.94817,5.38257Z"/><path class="cls-1" d="M27.07252,6.32241s.21374.08312.53034.19879.73609.264,1.14759.39428a3.49649,3.49649,0,0,1,.93977.48838,1.75653,1.75653,0,0,1,.46126.42424l-1.70962,2.44159s-.08856-.07764-.24877-.20277-.39205-.29771-.67862-.48763a5.2959,5.2959,0,0,0-1.30139-.559c-.423-.12858-.75479-.19678-.75479-.19678L26.26541,7.573Z"/><path class="cls-1" d="M33.7184,8.12332c-.22439-.38283-.46371-.82741-.67442-1.21263a9.14576,9.14576,0,0,0-.503-.85667c-.12121-.16014-.27525-.35045-.399-.50072s-.21718-.26053-.21718-.26053l-.88664,1.26767-.88663,1.26767s.156.14691.35364.36029a5.50728,5.50728,0,0,1,.60342.75889c.12817.20458.25248.42211.391.68462s.2911.57.4759.95446c.00781-.00137.44355-.61713.87734-1.23254S33.7184,8.12332,33.7184,8.12332Z"/><path class="cls-1" d="M31.97035,10.62238l.18414.30389.18413.30388c.11427.16731.26655.41155.4603.69175a8.99974,8.99974,0,0,0,.70919.90744l.20437.20057.20437.20057-.8308,1.18689-.83079,1.18689-.15161-.17773L31.952,15.2488c-.18332-.207-.50026-.62323-.81423-1.06879a13.18286,13.18286,0,0,1-.79649-1.24509l.00961-.01372.8097-1.1494Z"/><polygon class="cls-3" points="26.74 2.338 27.342 2.762 27.608 2.949 22.307 10.52 17.007 18.09 16.74 17.903 16.138 17.479 21.439 9.908 26.74 2.338"/><path class="cls-1" d="M28.44053,10.26876s.14628.12819.33347.32a4.758,4.758,0,0,1,.57895.70188c.11985.18644.34035.53576.54614.868s.39687.64729.45791.76526l-1.79318,2.56092-1.02894-1.2266L26.506,13.03162Z"/><path class="cls-1" d="M35.65643,10.75251l-1.7347,2.47741s.17.17236.41.39478a9.13922,9.13922,0,0,0,.83012.69506c.21475.15348.57508.391.88172.59018s.5596.36.5596.36l.89286-1.29468.89287-1.29467-1.30913-.924-1.30912-.924"/><path class="cls-1" d="M33.12786,20.18839c.18687-.27586.62873-.91922,1.02419-1.49576s.74452-1.08627.74579-1.09486a11.46078,11.46078,0,0,1-1.84443-1.27269c-.48937-.40592-.8056-.71967-.8056-.71967L31.287,16.98285,30.3261,18.3603l.263.24654.26294.24655c.39026.28447.71132.51738,1.05877.72959A8.13178,8.13178,0,0,0,33.12786,20.18839Z"/></g></g></svg>