<svg xmlns="http://www.w3.org/2000/svg" viewBox="0 0 40 40"><defs><style>.cls-1{fill:#fff;stroke:#000;}.cls-1,.cls-3{fill-rule:evenodd;}.cls-2{fill:none;stroke:#e10019;stroke-width:3px;}</style></defs><g id="E18B_navigation_poi_alert"><g id="V2-2" data-name="V2"><path class="cls-1" d="M36.30886.5H3.69121A3.20075,3.20075,0,0,0,.5,3.69118V36.30883A3.20074,3.20074,0,0,0,3.69121,39.5H36.30886A3.20075,3.20075,0,0,0,39.5,36.30883V3.69118A3.20075,3.20075,0,0,0,36.30886.5Z"/><path class="cls-2" d="M21.53393,5.22494a1.77736,1.77736,0,0,0-3.06013,0L3.76861,32.34819a1.76535,1.76535,0,0,0,.56128,2.43267A1.719,1.719,0,0,0,5.20867,35H34.79155a1.72343,1.72343,0,0,0,1.70751-1.773,1.76526,1.76526,0,0,0-.26745-.87878Z"/><path class="cls-3" d="M19,29V27h2v2Zm.60224-4-.17258-2.3886c-.01365-.15795-.03022-.34612-.04777-.56452-.01853-.21938-.038-.45631-.05753-.71273s-.039-.52455-.0585-.8034c-.0195-.27982-.03705-.55965-.05265-.84142q-.0234-.4212-.038-.82583-.01463-.40365-.01463-.75953L19,14h2l-.14879,4.104q0,.3554-.01462.75953-.0161.40511-.038.82583c-.0156.28177-.03315.5616-.05265.84142q-.02925.41827-.06142.8034c-.02048.25642-.04.49335-.05655.71273-.01658.2184-.0312.40657-.04193.56452L20.40954,25Z"/></g></g></svg>