<svg xmlns="http://www.w3.org/2000/svg" viewBox="0 0 40 40"><title>E18D_asia_breakdown_call</title><g id="E18D_asia_breakdown_call"><path d="M33.0785,23.796a6.84216,6.84216,0,0,0-4.36,1.565,6.85446,6.85446,0,0,0-8.719,0,6.85307,6.85307,0,0,0-8.718,0,6.84216,6.84216,0,0,0-4.36-1.565,7.00149,7.00149,0,0,0,0,14.002,6.8374,6.8374,0,0,0,4.36-1.566,6.84969,6.84969,0,0,0,8.718,0,6.85108,6.85108,0,0,0,8.719,0,6.8374,6.8374,0,0,0,4.36,1.566,7.00149,7.00149,0,0,0,0-14.002Zm-4.36,10.147a5.46811,5.46811,0,0,1,0-6.293,5.46363,5.46363,0,0,1,0,6.293Zm-8.719,0a5.46811,5.46811,0,0,1,0-6.293,5.46363,5.46363,0,0,1,0,6.293Zm-8.718,0a5.46363,5.46363,0,0,1,0-6.293,5.46811,5.46811,0,0,1,0,6.293Zm-9.716-3.146a5.38792,5.38792,0,0,1,5.356-5.42,5.29282,5.29282,0,0,1,3.26,1.121,7.05925,7.05925,0,0,0,0,8.598,5.292,5.292,0,0,1-3.26,1.12A5.38769,5.38769,0,0,1,1.5655,30.797Zm10.815,4.299a7.05925,7.05925,0,0,0,0-8.598,5.30073,5.30073,0,0,1,6.52,0,7.05925,7.05925,0,0,0,0,8.598,5.30446,5.30446,0,0,1-6.52,0Zm8.719,0a7.05925,7.05925,0,0,0,0-8.598,5.30073,5.30073,0,0,1,6.52,0,7.05925,7.05925,0,0,0,0,8.598,5.30446,5.30446,0,0,1-6.52,0Zm11.979,1.12a5.292,5.292,0,0,1-3.26-1.12,7.05925,7.05925,0,0,0,0-8.598,5.29282,5.29282,0,0,1,3.26-1.121,5.41988,5.41988,0,0,1,0,10.839Z" fill="#fff" fill-rule="evenodd"/><path d="M38.62186,5.31055a2.20081,2.20081,0,0,0-1.042-1.145l-.41114-.25391L34.03494,8.61328l-2.63671-.07471L30.19022,6.419l3.1123-4.90235L32.74,1.17041A1.994,1.994,0,0,0,31.59159.76855h-.02735a6.85065,6.85065,0,0,0-5.20019,2.9917c-1.14161,1.79883-.77344,4.08057-.20606,5.77881L14.027,21.26273h1.43848L27.31522,9.81055l-.11035-.30469c-.54688-1.51172-.99121-3.64307.00293-5.21a5.84039,5.84039,0,0,1,4.41211-2.52979.74037.74037,0,0,1,.292.07569L29.0242,6.3916,30.80838,9.522l3.752.10694L37.449,5.29443a1.02331,1.02331,0,0,1,.23535.36084,6.15637,6.15637,0,0,1-.38086,5.02588c-1.30859,2.061-4.31934,2.9419-6.47168,2.60108l-.249-.03955-8.15875,8.02005h1.42774l7.07671-6.958c2.42578.28467,5.6875-.67432,7.21875-3.08789A7.17828,7.17828,0,0,0,38.62186,5.31055Z" fill="#fff"/></g></svg>