<svg xmlns="http://www.w3.org/2000/svg" viewBox="0 0 40 40"><defs><style>.cls-1{fill:none;stroke:#fff;stroke-width:1.2px;}.cls-2{isolation:isolate;}.cls-3{fill:#fff;}</style></defs><g id="E18E_asia_vics"><g id="V2-29" data-name="V2"><path class="cls-1" d="M39.4,8.5v23H.6V8.5Z"/><g class="cls-2"><g class="cls-2"><path class="cls-3" d="M7.89385,24.82385,3.8942,14.17615H5.402l2.79248,7.73939c.08616.2355.16849.4643.2489.68831q.11775.33457.20678.694.09765-.36186.21827-.694c.08042-.2221.16274-.4509.2489-.68831l2.79344-7.73939H13.3601L9.37577,24.82385Z"/><path class="cls-3" d="M15.15985,24.82385V14.17615h1.38236v10.6477Z"/><path class="cls-3" d="M26.61505,24.47156a5.73157,5.73157,0,0,1-.584.22114,5.612,5.612,0,0,1-.67012.16753c-.24316.045-.50929.07946-.79648.10339S23.95755,25,23.60718,25a5.33777,5.33777,0,0,1-1.33067-.158,4.17319,4.17319,0,0,1-1.12771-.46717,3.70831,3.70831,0,0,1-.90754-.77159,4.40453,4.40453,0,0,1-.67011-1.07506,6.11988,6.11988,0,0,1-.41452-1.37327,9.09,9.09,0,0,1-.14168-1.66572,8.58281,8.58281,0,0,1,.13306-1.54989,6.2325,6.2325,0,0,1,.3925-1.33545,4.74773,4.74773,0,0,1,.64906-1.09325,3.81274,3.81274,0,0,1,.898-.81755,4.15451,4.15451,0,0,1,1.1459-.51407A5.06048,5.06048,0,0,1,23.61675,14c.27762,0,.55141.0134.82329.03925a7.5752,7.5752,0,0,1,.77542.11488,5.84648,5.84648,0,0,1,.69118.18476,3.66129,3.66129,0,0,1,.56864.246V15.7873a4.40836,4.40836,0,0,0-.58013-.23262,6.13976,6.13976,0,0,0-.672-.17806,7.15858,7.15858,0,0,0-.73713-.113,7.47757,7.47757,0,0,0-.77925-.0402,3.77914,3.77914,0,0,0-1.01284.12828,2.74138,2.74138,0,0,0-.82329.37622,2.669,2.669,0,0,0-.63565.61459,3.40528,3.40528,0,0,0-.44994.83765,5.19938,5.19938,0,0,0-.27,1.054,8.28315,8.28315,0,0,0-.09,1.255A7.57764,7.57764,0,0,0,20.539,20.8601a4.98233,4.98233,0,0,0,.32261,1.09373,3.29134,3.29134,0,0,0,.50834.82712,2.81823,2.81823,0,0,0,.66916.5763,2.88781,2.88781,0,0,0,.808.33793,3.7807,3.7807,0,0,0,.92093.10914q.46525,0,.86733-.03542c.26613-.02394.515-.05744.74862-.10148a5.688,5.688,0,0,0,.651-.157q.30443-.09333.58013-.20869Z"/><path class="cls-3" d="M28.19079,23.22993a6.71537,6.71537,0,0,0,.63757.22305c.23933.07084.49589.134.76968.18764.27187.05456.55524.09668.84818.12828a8.49066,8.49066,0,0,0,.88264.046A4.40745,4.40745,0,0,0,32.491,23.677a2.57767,2.57767,0,0,0,.84243-.38579,1.6931,1.6931,0,0,0,.515-.58492,1.57639,1.57639,0,0,0,.17614-.73617,1.7463,1.7463,0,0,0-.06127-.4777,1.22532,1.22532,0,0,0-.18954-.38819,1.57706,1.57706,0,0,0-.31783-.32166,2.75136,2.75136,0,0,0-.4576-.27283,5.79976,5.79976,0,0,0-.60311-.2422q-.33888-.11489-.7467-.23263-.50833-.14359-.94965-.29868a6.40462,6.40462,0,0,1-.80989-.33889,3.64461,3.64461,0,0,1-.65289-.41452,2.33568,2.33568,0,0,1-.48631-.52078,2.28836,2.28836,0,0,1-.3006-.65671,2.98694,2.98694,0,0,1-.10147-.83,3.34869,3.34869,0,0,1,.10147-.83574,2.55941,2.55941,0,0,1,.30634-.72372,2.53331,2.53331,0,0,1,.51695-.5945,2.94915,2.94915,0,0,1,.72947-.44419,4.21363,4.21363,0,0,1,.94966-.28049A6.62826,6.62826,0,0,1,32.12917,14q.47675,0,.896.03734a7.1263,7.1263,0,0,1,.77733.111,4.99071,4.99071,0,0,1,.66438.18476,3.9597,3.9597,0,0,1,.56673.25561v1.20238a4.57355,4.57355,0,0,0-.60885-.25656,5.79938,5.79938,0,0,0-.68161-.18476,6.74245,6.74245,0,0,0-.76393-.113c-.26805-.02585-.55333-.03829-.85393-.03829a3.83528,3.83528,0,0,0-1.04347.12636,2.12079,2.12079,0,0,0-.73521.35325,1.45721,1.45721,0,0,0-.44037.5495,1.696,1.696,0,0,0-.14742.71224,1.71761,1.71761,0,0,0,.05935.46621,1.21271,1.21271,0,0,0,.1838.37526,1.39764,1.39764,0,0,0,.314.30922,2.638,2.638,0,0,0,.45568.26039,5.66092,5.66092,0,0,0,.60694.23454c.22784.07562.48248.15412.76776.2355q.51982.15076.97072.30825a6.538,6.538,0,0,1,.81754.34846,3.872,3.872,0,0,1,.64906.42218,2.28016,2.28016,0,0,1,.47674.52748,2.34144,2.34144,0,0,1,.291.66437,3.25206,3.25206,0,0,1,.09764.83143,3.13315,3.13315,0,0,1-.11488.83477,2.61509,2.61509,0,0,1-.33888.739,2.82439,2.82439,0,0,1-.56865.6213,3.33343,3.33343,0,0,1-.79457.47386,4.7595,4.7595,0,0,1-1.02241.30156A6.86333,6.86333,0,0,1,31.35758,25c-.32932,0-.64523-.01245-.94966-.03829a8.22141,8.22141,0,0,1-.86158-.113,6.20389,6.20389,0,0,1-.74862-.18476,3.53423,3.53423,0,0,1-.60693-.24986Z"/></g></g></g></g></svg>