<svg xmlns="http://www.w3.org/2000/svg" viewBox="0 0 40 40"><g id="E18F_asia_tpeg"><path d="M3.93371,9.21913a1.53046,1.53046,0,0,0-1.01721.57049c-1.24645,1.76453,2.74539,6.82758,9.36124,12.27411" fill="none" stroke="#fff" stroke-width="1.2"/><path d="M39.52291,9.0875c-3.54792-.82765-11.20366.05074-19.74241,2.46912-11.302,3.201-19.872,7.887-19.141,10.467" fill="none" stroke="#fff" stroke-width="1.2"/><path d="M25.8155,8.25162a2.327,2.327,0,1,1-2.313,2.327A2.32063,2.32063,0,0,1,25.8155,8.25162Z" fill="#fff" fill-rule="evenodd"/><path d="M37.28711,11.85018a18.08341,18.08341,0,0,1,1.50976,7.25744,18.26847,18.26847,0,0,1-.23965,2.95613" fill="none" stroke="#fff" stroke-width="1.2"/><path d="M6.02423,9.03127A18.213,18.213,0,0,1,34.12216,6.77491" fill="none" stroke="#fff" stroke-width="1.2"/><path d="M7.78857,13.2041A82.84335,82.84335,0,0,1,19.09863,9.15137c1.53485-.43457,3.04315-.81922,4.51374-1.15869a2.70623,2.70623,0,0,0-2.34589-1.25806c-.796.01-4.747-.21509-5.11-1.0481s.261-4.20483.261-4.20483l-5.402,2.58289-3.192,2.666S7.90125,10.31775,7.78857,13.2041Z" fill="#fff"/><path d="M33.40656,12.55273c-1.00885.13477-2.09925.30774-3.25971.52076a1.23635,1.23635,0,0,0,.02667.1521c.535,1.47509,2.713,2.535,3.161,3.50708.449.97094-1.238,4.08093.34406,5.7749.269.28808,1.29095-5.259,1.19-5.969A27.25726,27.25726,0,0,0,33.40656,12.55273Z" fill="#fff"/><path d="M5.12,36.42865V26.92184H1.83578V25.78033H9.78407v1.14151H6.49886v9.50681Z" fill="#fff"/><path d="M11.73367,36.42865V25.78033h3.52926a5.70837,5.70837,0,0,1,1.12517.10281,3.67023,3.67023,0,0,1,.90706.29979,2.70786,2.70786,0,0,1,.69279.48428,2.65573,2.65573,0,0,1,.49.65531,3.08748,3.08748,0,0,1,.29018.81289,4.56568,4.56568,0,0,1,.09512.95511,4.74633,4.74633,0,0,1-.09128.9599,3.09408,3.09408,0,0,1-.28345.81674,2.48359,2.48359,0,0,1-.492.65723,2.66487,2.66487,0,0,1-.71776.48332,4.10417,4.10417,0,0,1-.95895.29979,6.46873,6.46873,0,0,1-1.21453.10377h-1.989v4.01738Zm3.23139-5.11949a3.88722,3.88722,0,0,0,1.15208-.14894,1.88238,1.88238,0,0,0,.76677-.43431,1.65685,1.65685,0,0,0,.42374-.69855,3.087,3.087,0,0,0,.13068-.93684,2.944,2.944,0,0,0-.13068-.9061,1.70271,1.70271,0,0,0-.418-.69471,1.92651,1.92651,0,0,0-.74179-.44584,3.37233,3.37233,0,0,0-1.09635-.15758H13.11635v4.42287Z" fill="#fff"/><path d="M20.94934,36.42865V25.78033h6.76738v1.14151H22.332v3.49371h4.62754v1.13382H22.332V35.291h5.39911v1.13766Z" fill="#fff"/><path d="M36.78153,31.54937H33.79132V30.41555h4.3729V35.93c-.15854.074-.32573.14221-.50349.20467q-.2652.09224-.55442.16623c-.19218.049-.39492.0932-.60631.13164q-.31853.05765-.664.09512-.34735.03749-.72353.05765-.37763.01875-.78695.01922a5.93325,5.93325,0,0,1-2.0822-.34111,3.89961,3.89961,0,0,1-1.54507-1.03,4.58625,4.58625,0,0,1-.96183-1.7286,8.90211,8.90211,0,0,1-.1816-4.04237,5.67793,5.67793,0,0,1,.443-1.34809,4.39572,4.39572,0,0,1,.72353-1.07521,4.01538,4.01538,0,0,1,.99834-.78695,4.86006,4.86006,0,0,1,1.26354-.48236,6.5391,6.5391,0,0,1,1.51529-.16527c.18832,0,.37762.00577.56691.01826q.28393.0173.55826.05189.27529.03459.53328.08455c.172.03363.33726.07111.49389.11434a4.1245,4.1245,0,0,1,.43911.14606,3.352,3.352,0,0,1,.36994.17007v1.203a4.14964,4.14964,0,0,0-.59-.23349,6.51513,6.51513,0,0,0-.70239-.17776q-.37329-.0735-.77542-.11338-.40212-.03891-.80809-.03939a4.74786,4.74786,0,0,0-1.62963.25655,2.90094,2.90094,0,0,0-1.179.7831,3.43745,3.43745,0,0,0-.71873,1.32312,6.488,6.488,0,0,0-.24214,1.87753,7.53636,7.53636,0,0,0,.12011,1.40863,4.73657,4.73657,0,0,0,.345,1.10788,3.18117,3.18117,0,0,0,.54577.82731,2.85621,2.85621,0,0,0,.72546.56691,3.27373,3.27373,0,0,0,.883.32573,4.8,4.8,0,0,0,1.01756.10377q.35889,0,.68606-.0221c.21716-.01345.42374-.03363.6188-.05861s.37858-.05669.54961-.0932q.25656-.05622.47563-.12395Z" fill="#fff"/></g></svg>