<svg id="Ebene_1" data-name="Ebene 1" xmlns="http://www.w3.org/2000/svg" viewBox="0 0 106 40"><defs><style>.cls-1{fill:#fff;}.cls-1,.cls-2{stroke:#fff;stroke-width:1.2px;}.cls-2{fill:none;}</style></defs><g id="_1" data-name="1"><path class="cls-1" d="M9.9,12.1l2.5,5.1,5.3.6-3.9,3.9L15,27.1,9.9,24.5,4.8,27.1,6,21.7,2.1,17.8l5.3-.6Z"/></g><g id="_2" data-name="2"><path class="cls-1" d="M31.4,12.1l2.5,5.1,5.3.6-3.9,3.9,1.2,5.4-5.1-2.6-5.1,2.6,1.2-5.4-3.9-3.9,5.3-.6Z"/></g><g id="_3" data-name="3"><path class="cls-1" d="M52.9,12.1l2.5,5.1,5.3.6-3.9,3.9L58,27.1l-5.1-2.6-5.1,2.6L49,21.7l-3.9-3.9,5.3-.6Z"/></g><g id="_4" data-name="4"><path class="cls-1" d="M74.4,12.1l2.5,5.1,5.3.6-3.9,3.9,1.2,5.4-5.1-2.6-5.1,2.6,1.2-5.4-3.9-3.9,5.3-.6Z"/></g><g id="_4-5" data-name="4-5"><path class="cls-2" d="M95.9,12.1l2.5,5.1,5.3.6-3.9,3.9,1.2,5.4-5.1-2.6-5.1,2.6L92,21.7l-3.9-3.9,5.3-.6Z"/></g></svg>