<svg xmlns="http://www.w3.org/2000/svg" viewBox="0 0 40 40"><defs><style>.cls-1{fill:#fff;}</style></defs><g id="Icon"><path class="cls-1" d="M3.70018,20.08374a3.96018,3.96018,0,0,1-1.5625-.28613,3.10667,3.10667,0,0,1-1.12207-.78955,3.35593,3.35593,0,0,1-.67774-1.18848,4.67762,4.67762,0,0,1-.22656-1.48145,4.54105,4.54105,0,0,1,.23926-1.499,3.38984,3.38984,0,0,1,.69922-1.1958,3.1879,3.1879,0,0,1,1.12988-.78711,3.8674,3.8674,0,0,1,1.52051-.28369,4.03953,4.03953,0,0,1,1.57422.28369,3.06847,3.06847,0,0,1,1.123.78711,3.32,3.32,0,0,1,.67188,1.1958,4.81047,4.81047,0,0,1,.22558,1.499,4.77666,4.77666,0,0,1-.10546,1.01465,3.77882,3.77882,0,0,1-.31543.90235,3.50133,3.50133,0,0,1-.51563.75537,3.02485,3.02485,0,0,1-.7041.57715,3.48155,3.48155,0,0,1-.8877.3667A4.15564,4.15564,0,0,1,3.70018,20.08374Zm0-1.27148a1.94867,1.94867,0,0,0,.86035-.17579,1.58262,1.58262,0,0,0,.59668-.499,2.19606,2.19606,0,0,0,.34766-.77978,4.261,4.261,0,0,0,.1123-1.01954,4.33721,4.33721,0,0,0-.1123-1.03173,2.22362,2.22362,0,0,0-.34766-.78516,1.57007,1.57007,0,0,0-.59668-.501,1.94194,1.94194,0,0,0-.86035-.17627,1.93183,1.93183,0,0,0-.85547.17627,1.60734,1.60734,0,0,0-.60156.501,2.19705,2.19705,0,0,0-.3545.78516,4.23235,4.23235,0,0,0-.11523,1.03173,4.15806,4.15806,0,0,0,.11523,1.01954,2.17009,2.17009,0,0,0,.3545.77978,1.62056,1.62056,0,0,0,.60156.499A1.93853,1.93853,0,0,0,3.70018,18.81226Zm-.91406,8.63086,9.56445-14.50391,1.79492-.00049L4.5908,27.44312ZM13.54,27.6189a4.00217,4.00217,0,0,1-1.56738-.28321,3.07759,3.07759,0,0,1-1.12207-.78711,3.32251,3.32251,0,0,1-.67774-1.19043,4.70471,4.70471,0,0,1-.22753-1.48437,4.49341,4.49341,0,0,1,.24218-1.49658,3.42579,3.42579,0,0,1,.70215-1.19287,3.21075,3.21075,0,0,1,1.12695-.79,3.83409,3.83409,0,0,1,1.52247-.28662,4.02733,4.02733,0,0,1,1.57324.28613,3.0796,3.0796,0,0,1,1.124.79,3.32131,3.32131,0,0,1,.67285,1.19287,4.81363,4.81363,0,0,1,.22461,1.49609,4.49318,4.49318,0,0,1-.23926,1.48438,3.42826,3.42826,0,0,1-.69726,1.19043,3.17007,3.17007,0,0,1-1.127.78808A3.90511,3.90511,0,0,1,13.54,27.6189Zm0-1.27149a1.93988,1.93988,0,0,0,.8584-.17578,1.5886,1.5886,0,0,0,.59375-.499,2.208,2.208,0,0,0,.34766-.78028,4.31086,4.31086,0,0,0,.1123-1.01953,4.38366,4.38366,0,0,0-.1123-1.03125,2.24112,2.24112,0,0,0-.34766-.78515,1.57583,1.57583,0,0,0-.59375-.501,2.17348,2.17348,0,0,0-1.71484,0,1.621,1.621,0,0,0-.60157.50146,2.24827,2.24827,0,0,0-.35644.78467,4.18428,4.18428,0,0,0-.11719,1.03223,4.10685,4.10685,0,0,0,.11719,1.01953,2.23371,2.23371,0,0,0,.35644.78027,1.6258,1.6258,0,0,0,.60157.498A1.9429,1.9429,0,0,0,13.54,26.34741Z"/><path class="cls-1" d="M26.77733,26.56226l-6.58692-5.06055,6.58692-5.03711h2.53808l-6.58789,5.03711,6.58789,5.06055Z"/><path class="cls-1" d="M38.17088,27.44312l-6.81641-15.062h1.67188l6.8418,15.062Z"/></g></svg>