<svg xmlns="http://www.w3.org/2000/svg" viewBox="0 0 40 40"><defs><style>.cls-1,.cls-3{fill:none;}.cls-1{stroke:#0eaae2;stroke-width:1.2px;}.cls-2{fill:#fff;fill-rule:evenodd;}.cls-3{stroke:#fff;stroke-width:1.2px;}.cls-4{fill:#ffdd02;}</style></defs><g id="E1AA_weather_snow_shower_night"><g id="V1-6" data-name="V1"><path class="cls-1" d="M17.3508,34.77811l-1.62974,3.97945"/><path class="cls-1" d="M19.74588,28.92985l-1.54377,3.76954"/><path class="cls-1" d="M20.87,36.79312,19.70592,39.636"/><path class="cls-1" d="M22.892,31.85509l-1.25858,3.0737"/><path class="cls-1" d="M26.45369,34.67147l-1.316,3.21382"/><path class="cls-1" d="M28.8047,28.92985l-1.47024,3.59061"/><path class="cls-2" d="M29.368,24.7882a.35209.35209,0,0,1-.048.169.36758.36758,0,0,1-.497.129.3525.3525,0,0,1-.182-.33l.072-1.114-1.899-1.067.001,2.134,1.024.497a.35182.35182,0,0,1,.202.318.36029.36029,0,0,1-.364.355.36927.36927,0,0,1-.175-.044l-.686-.332v1.105a.36416.36416,0,0,1-.728.003v-1.11l-.69.334a.36451.36451,0,0,1-.538-.311.35354.35354,0,0,1,.202-.318l1.026-.497-.001-2.138-1.895,1.069.071,1.111a.35248.35248,0,0,1-.182.33.36728.36728,0,0,1-.496-.129.34265.34265,0,0,1-.049-.169l-.048-.747-.981.553a.36974.36974,0,0,1-.498-.13.35052.35052,0,0,1,.131-.483l.985-.555-.641-.415a.35372.35372,0,0,1-.126-.126.34957.34957,0,0,1,.133-.484.37228.37228,0,0,1,.384.011l.953.617,1.898-1.068-1.896-1.068-.952.617a.37463.37463,0,0,1-.384.012.35094.35094,0,0,1-.133-.485.35913.35913,0,0,1,.126-.125l.639-.414-.982-.553a.34988.34988,0,0,1-.133-.485.369.369,0,0,1,.494-.131l.986.555.048-.749a.34968.34968,0,0,1,.048-.17.37067.37067,0,0,1,.498-.13.35259.35259,0,0,1,.181.33l-.072,1.114,1.899,1.069-.001-2.136-1.024-.495a.35367.35367,0,0,1,.162-.673.38057.38057,0,0,1,.175.043l.686.333v-1.105a.36418.36418,0,0,1,.728-.004v1.11l.689-.334a.38057.38057,0,0,1,.175-.043.35367.35367,0,0,1,.162.673l-1.025.496v2.137l1.896-1.068-.072-1.112a.35166.35166,0,0,1,.182-.33.36851.36851,0,0,1,.496.13.33979.33979,0,0,1,.049.169l.049.747.981-.553a.36849.36849,0,0,1,.497.129.35022.35022,0,0,1-.13.483l-.986.556.641.416a.35357.35357,0,0,1,.126.126.34978.34978,0,0,1-.133.484.37224.37224,0,0,1-.384-.012l-.953-.618-1.898,1.07,1.896,1.067.952-.616a.36578.36578,0,0,1,.384-.012.34852.34852,0,0,1,.133.484.35361.35361,0,0,1-.126.126l-.639.414.982.552a.351.351,0,0,1,.133.485.369.369,0,0,1-.494.131l-.986-.554Z"/><path id="Wolke" class="cls-3" d="M15,31.5H11.86745A5.58617,5.58617,0,0,1,6.5,25.83779a5.42433,5.42433,0,0,1,5.36745-5.4792c.1617,0,.3201.01053.47768.02511a5.611,5.611,0,0,1,5.49862-4.763,5.47612,5.47612,0,0,1,1.80675.3111A9.36415,9.36415,0,0,1,26.72157,12.683a9.56256,9.56256,0,0,1,9.43883,8.80091A4.96018,4.96018,0,0,1,39.4,26.26151,5.12587,5.12587,0,0,1,34.5,31.5H31"/><path class="cls-4" d="M8.38037,17.58289a8.819,8.819,0,0,1-2.88086-.88324c.06934.00152.13867.00256.209.00256a8.86479,8.86479,0,0,0,8.61523-9.07593c0-3.56213-1.81689-5.03363-3.39551-6.56885a5.64257,5.64257,0,0,1,3.97461,2.25214c.0669.09161.146.173.21485.26392.10205.13195.20312.26837.30127.41638.106.16.19775.33044.29345.49823a10.14527,10.14527,0,0,1,1.16846,4.51025,10.95124,10.95124,0,0,1-.66315,3.286,9.04527,9.04527,0,0,1,1.4386-.15045A12.7908,12.7908,0,0,0,18.188,8.86847a10.24278,10.24278,0,0,0-.78516-3.91583l-.001-.04309-.03467-.04065a10.23353,10.23353,0,0,0-1.16162-2.03418c-.08838-.12116-.17676-.24182-.26856-.35327-.085-.10682-.1792-.205-.26855-.30793C12.61621-1.12549,7.35834.33661,7.35834.33661,10.36322,1.38184,13.023,4.29626,13.023,7.62628A7.52667,7.52667,0,0,1,5.7085,15.333c-4.02637,0-5.03028-1.01056-5.03125-1.01148l1.3291,1.44458a10.396,10.396,0,0,0,4.68457,2.79376A8.83073,8.83073,0,0,1,8.38037,17.58289Z"/></g></g></svg>