<svg xmlns="http://www.w3.org/2000/svg" viewBox="0 0 40 40"><defs><style>.cls-1{fill:none;stroke:#fff;stroke-width:1.2px;}.cls-2{fill:#ffdd02;fill-rule:evenodd;}</style></defs><g id="E1AE_weather_storm"><path class="cls-1" d="M10,28.5H7a6.44363,6.44363,0,0,1-.04109-12.88435c.18942,0,.375.01242.55957.02962a6.58678,6.58678,0,0,1,6.44129-5.61592,6.37757,6.37757,0,0,1,2.1165.36682,10.94023,10.94023,0,0,1,8.28332-3.83055,11.23215,11.23215,0,0,1,11.057,10.37688,5.94738,5.94738,0,0,1,3.91213,5.6331A5.87683,5.87683,0,0,1,33.5,28.5H29"/><path class="cls-2" d="M18,17h5L19.5,27H23L18,39l1.14432-10H16Z"/></g></svg>