<svg xmlns="http://www.w3.org/2000/svg" viewBox="0 0 40 40"><defs><style>.cls-1{fill:none;stroke:#fff;stroke-width:1.2px;}.cls-2{fill:#0eaae2;}</style></defs><g id="E1B0_weather_heavy_rain"><path class="cls-1" d="M10,28.5H7a6.44363,6.44363,0,0,1-.04109-12.88435c.18942,0,.375.01242.55957.02962a6.58678,6.58678,0,0,1,6.44129-5.61592,6.37757,6.37757,0,0,1,2.1165.36682,10.94023,10.94023,0,0,1,8.28332-3.83055,11.23215,11.23215,0,0,1,11.057,10.37688,5.94738,5.94738,0,0,1,3.91213,5.6331A5.87683,5.87683,0,0,1,33.5,28.5H29"/><rect class="cls-2" x="8.05683" y="29.89955" width="11.88634" height="1.20089" transform="translate(-19.53052 31.89788) rotate(-67.73137)"/><rect class="cls-2" x="18.05683" y="28.89955" width="11.88634" height="1.20089" transform="translate(-12.3946 40.53101) rotate(-67.73137)"/><rect class="cls-2" x="12.05683" y="31.89955" width="11.88634" height="1.20089" transform="translate(-18.89715 36.84165) rotate(-67.73137)"/></g></svg>