<svg xmlns="http://www.w3.org/2000/svg" viewBox="0 0 40 40"><defs><style>.cls-1,.cls-3{fill:none;}.cls-1{stroke:#fff;stroke-width:1.2px;}.cls-2{fill:#ffdd02;}.cls-3{stroke:#ffdd02;stroke-width:1.2px;}</style></defs><g id="E1B1_weather_partly_cloudy"><path id="Wolke" class="cls-1" d="M34.5,33.5H11.86745A5.58617,5.58617,0,0,1,6.5,27.83779a5.42433,5.42433,0,0,1,5.36745-5.4792c.1617,0,.3201.01053.47768.02511a5.611,5.611,0,0,1,5.49862-4.763,5.47612,5.47612,0,0,1,1.80675.3111A9.36415,9.36415,0,0,1,26.72157,14.683a9.56256,9.56256,0,0,1,9.43883,8.80091A4.96018,4.96018,0,0,1,39.4,28.26151,5.12587,5.12587,0,0,1,34.5,33.5Z"/><g id="Sonne-2" data-name="Sonne"><path class="cls-2" d="M8.40393,20.12756a8.22142,8.22142,0,0,1,1.30463-.47516,6.77366,6.77366,0,0,1-.67438-.56842A6.39971,6.39971,0,0,1,13.417,8.10059c.02832-.00049.05664-.00049.08594-.00049a6.40034,6.40034,0,0,1,6.358,5.69482,12.47741,12.47741,0,0,1,1.10883-.66247,7.59677,7.59677,0,1,0-12.77344,6.8114C8.263,20.00879,8.33533,20.06537,8.40393,20.12756Z"/><line class="cls-3" x1="1.64" y1="19.41257" x2="5.02858" y2="18.00898"/><line class="cls-3" x1="25.36" y1="9.58743" x2="21.97142" y2="10.99102"/><line class="cls-3" x1="8.58743" y1="2.64" x2="9.99102" y2="6.02858"/><line class="cls-3" x1="18.41257" y1="2.64" x2="17.00898" y2="6.02858"/><line class="cls-3" x1="1.64" y1="9.58743" x2="5.02858" y2="10.99102"/></g></g></svg>