<svg xmlns="http://www.w3.org/2000/svg" viewBox="0 0 40 40"><defs><style>.cls-1{fill:none;stroke:#fff;stroke-width:1.2px;}.cls-2{fill:#fff;}</style></defs><g id="E1B3_weather_clouded"><path class="cls-1" d="M34.1677,30.5a5.27345,5.27345,0,0,0,1.68-10.2437,9.95554,9.95554,0,0,0-17.38483-5.75291,5.85528,5.85528,0,0,0-7.68854,4.62425c-.16192-.01418-.32428-.02493-.48967-.02493a5.69883,5.69883,0,0,0,0,11.39729Z"/><path class="cls-2" d="M1.86267,21.21051a5.061,5.061,0,0,1,4.422-7.50787c.14795,0,.29248.00976.4375.02246l.55469.04834.08984-.54932A5.25567,5.25567,0,0,1,14.269,9.07129l.37842.12939.26465-.2998A9.34133,9.34133,0,0,1,27.73944,7.769a13.43465,13.43465,0,0,1,2.21961.49121,10.537,10.537,0,0,0-15.68171-.44183,6.45224,6.45224,0,0,0-7.98681,4.68408H6.28467A6.29571,6.29571,0,0,0,1.38031,22.69183,9.12368,9.12368,0,0,1,1.86267,21.21051Z"/></g></svg>