<svg xmlns="http://www.w3.org/2000/svg" viewBox="0 0 40 40"><defs><style>.cls-1{fill:#fff;}.cls-1,.cls-2{stroke:#000;}.cls-1,.cls-3{fill-rule:evenodd;}.cls-2{fill:none;stroke-miterlimit:10;stroke-width:1.2px;}</style></defs><g id="E1DD_map_poi_ferry"><g id="V2-51" data-name="V2"><path class="cls-1" d="M36.30883.5H3.69118A3.20075,3.20075,0,0,0,.5,3.69118V36.30883A3.20075,3.20075,0,0,0,3.69118,39.5H36.30883A3.20074,3.20074,0,0,0,39.5,36.30883V3.69118A3.20075,3.20075,0,0,0,36.30883.5Z"/><path class="cls-2" d="M7.501,25.499c.37242-.01632.999-.249.999-.79213V23.499h23v1.20787c0,.41813.54356.79313.89837.79313h2.8613C36.46905,25.5,36.5,24.106,36.5,22.79933c0-2.526.00245-7.45969,0-8.29933a7.165,7.165,0,0,0-.625-.879A9.27,9.27,0,0,0,33,11.499H7a10.4282,10.4282,0,0,0-3.08333,2.376A3.66614,3.66614,0,0,0,3.501,14.5c-.00243.8258,0,5.72635,0,8.29933,0,1.38583.03573,2.67142,1.2381,2.69967Z"/><path class="cls-2" d="M34.47178,12.45742s-3.9552-7.36152-5.11021-7.53224c-3.88088-.57131-15.35852-.5694-18.72437,0-1.1512.19457-5.19655,7.53224-5.19655,7.53224"/><path class="cls-2" d="M15.325,21.4995c-2.29763-.1135-3.09307-4.615-3.09307-4.615l1.76733-1.96476H25.99954l1.76733,1.96476s-.79544,4.50153-3.09307,4.615Z"/><path class="cls-3" d="M34.29556,15.82339c-.99071,1.03157-2.54967,0-2.54967,0h-2.5506l-2.12535-1.468,7.65088-.73445A2.00707,2.00707,0,0,1,34.29556,15.82339Zm-26.04268,0s-1.559,1.03157-2.54967,0A2.00709,2.00709,0,0,1,5.278,13.621l7.65088.73445-2.12535,1.468Z"/><rect x="2" y="28" width="36" height="1.99923"/><path class="cls-2" d="M1.99611,35.53082s2.53342.49588,4.47324-3.51939c0,0,1.531,3.53884,4.46159,3.53884,3.05514,0,4.47324-3.53884,4.47324-3.53884s1.60216,3.53884,4.46159,3.53884c3.11848,0,4.47325-3.53884,4.47325-3.53884s1.66549,3.53884,4.46159,3.53884c3.18181,0,4.47324-3.53884,4.47324-3.53884s1.1916,3.30889,4.46159,3.53884"/></g></g></svg>