<svg xmlns="http://www.w3.org/2000/svg" viewBox="0 0 40 40"><defs><style>.cls-1{fill:none;stroke:#fff;stroke-width:1.2px;}.cls-2{fill:#fff;}</style></defs><g id="Icon"><g id="V1"><g id="Umschlag"><path class="cls-1" d="M17,28.5H1.5V6.5h35V12"/><path class="cls-1" d="M1.5,6.5,19,19.5l17.5-13"/></g><g id="Figuren"><path class="cls-2" d="M37,22.90039H33.6416a5.2563,5.2563,0,0,1-.83966,1.19922H37A.90191.90191,0,0,1,37.90039,25v8h1.19922V25A2.10138,2.10138,0,0,0,37,22.90039Z"/><path class="cls-2" d="M32,13.6499a3.839,3.839,0,0,0-3.11981,1.61225C28.921,15.26123,28.959,15.25,29,15.25a5.18373,5.18373,0,0,1,1.34546.19672A2.62455,2.62455,0,0,1,32,14.8501,2.65329,2.65329,0,0,1,34.65039,17.5a2.623,2.623,0,0,1-.59705,1.65466A5.18317,5.18317,0,0,1,34.25,20.5c0,.04095-.01117.07892-.01208.11963A3.84158,3.84158,0,0,0,32,13.6499Z"/><path class="cls-2" d="M29,16.6499a3.839,3.839,0,0,0-3.11981,1.61225C25.921,18.26123,25.959,18.25,26,18.25a5.18373,5.18373,0,0,1,1.34546.19672A2.62455,2.62455,0,0,1,29,17.8501,2.65329,2.65329,0,0,1,31.65039,20.5a2.62365,2.62365,0,0,1-.59705,1.65466A5.18317,5.18317,0,0,1,31.25,23.5c0,.04095-.01117.07892-.01208.11963A3.84158,3.84158,0,0,0,29,16.6499Z"/><path class="cls-2" d="M34,25.90039H30.6416a5.2563,5.2563,0,0,1-.83966,1.19922H34A.90191.90191,0,0,1,34.90039,28v8h1.19922V28A2.10138,2.10138,0,0,0,34,25.90039Z"/><path class="cls-2" d="M26,27.34961A3.84986,3.84986,0,1,1,29.84961,23.5,3.8535,3.8535,0,0,1,26,27.34961Zm0-6.49951A2.65015,2.65015,0,1,0,28.65039,23.5,2.6536,2.6536,0,0,0,26,20.8501Z"/><path class="cls-2" d="M33.09961,39.09961H18.8999V31A2.10212,2.10212,0,0,1,21,28.90039H31A2.10138,2.10138,0,0,1,33.09961,31ZM20.1001,37.90039H31.90039V31A.90191.90191,0,0,0,31,30.09961H21A.90149.90149,0,0,0,20.1001,31Z"/></g></g></g></svg>