<svg xmlns="http://www.w3.org/2000/svg" viewBox="0 0 40 40"><title>E229_connect_wifi_signal_5</title><g id="E229_connect_wifi_signal_5"><path d="M20,29.99988a2,2,0,1,1-2,2A1.99945,1.99945,0,0,1,20,29.99988Z" fill="#fff" fill-rule="evenodd"/><path d="M.82179,14.24152a26.90373,26.90373,0,0,1,38.35889.00274l.87988-.81439a28.09829,28.09829,0,0,0-40.11865-.003Z" fill="#fff"/><path d="M5.15431,18.25323a21.01145,21.01145,0,0,1,29.69336.00214l.88232-.81671A22.21592,22.21592,0,0,0,4.272,17.4364Z" fill="#fff"/><path d="M9.49611,22.27386a15.0856,15.0856,0,0,1,21.00879.00184l.88183-.81659a16.28618,16.28618,0,0,0-22.77246-.002Z" fill="#fff"/><path d="M14.05031,26.4906a8.59058,8.59058,0,0,1,11.90039.00086l.88183-.81653A9.79353,9.79353,0,0,0,13.168,25.67377Z" fill="#fff"/></g></svg>