<svg id="new_logo" xmlns="http://www.w3.org/2000/svg" viewBox="0 0 74 40"><defs><style>.cls-1,.cls-2{fill:#fff;}.cls-2{fill-rule:evenodd;}</style></defs><path class="cls-1" d="M59.705,22.40894l1.19758-.2767c.02517-.00582.06676-.01539.11756-.03173a1.3227,1.3227,0,0,0,.94494-1.57372l-.005-.02157a1.31679,1.31679,0,0,0-.20316-.44535,1.66736,1.66736,0,0,0-.48893-.41936,4.52133,4.52133,0,0,0-.69481-.32175l-1.313-.47935c-.73693-.274-1.47369-.541-2.21746-.80148-.4823-.17166-.891-.32219-1.24608-.43209-.067-.02069-.141-.0413-.201-.06206a3.4827,3.4827,0,0,0-.98617-.18785,1.17488,1.17488,0,0,0-.49768.09069,1.272,1.272,0,0,0-.43224.30681,2.64079,2.64079,0,0,0-.16946.21413,2.52963,2.52963,0,0,0-.13588.23452,1.99916,1.99916,0,0,0-.1163.268,6.81263,6.81263,0,0,0-.35915,2.23681,4.2958,4.2958,0,0,0,.40066,2.16784,1.276,1.276,0,0,0,.35871.3894,1.526,1.526,0,0,0,.82414.23077,4.18838,4.18838,0,0,0,1.241-.1679l3.97844-.91918Z"/><path class="cls-1" d="M73.06537,16.051a6.80321,6.80321,0,0,0-1.30049-1.85337,1.99876,1.99876,0,0,0-.22134-.19,2.59832,2.59832,0,0,0-.225-.15113,2.55591,2.55591,0,0,0-.24586-.11814,1.26711,1.26711,0,0,0-.52227-.08627,1.17678,1.17678,0,0,0-.48745.13684,3.53234,3.53234,0,0,0-.80412.60155c-.04542.04512-.10247.096-.1537.144-.27119.255-.57284.56931-.93184.9353q-.83188.84071-1.64344,1.69356l-.97114,1.00707a4.52788,4.52788,0,0,0-.48407.59419,1.6705,1.6705,0,0,0-.256.59146,1.31987,1.31987,0,0,0,.01156.48966l.00493.02149a1.3197,1.3197,0,0,0,1.53707,1.0003c.05322-.00773.09451-.01686.11961-.023l5.17779-1.19632a4.18746,4.18746,0,0,0,1.18874-.39352,1.527,1.527,0,0,0,.64012-.569,1.27578,1.27578,0,0,0,.15237-.50754A4.28569,4.28569,0,0,0,73.06537,16.051Z"/><path class="cls-1" d="M63.79813,18.22836A3.08334,3.08334,0,0,0,64.20594,16.48c.11292-1.9191.23187-3.83844.32609-5.7586a19.91832,19.91832,0,0,0,.07111-2.17756,3.20031,3.20031,0,0,0-.42171-1.7948c-.67377-.87489-2.1105-.803-3.09078-.66728-.30033.04169-.6011.09773-.89952.16936s-.59374.14988-.88267.24242c-.94067.30811-2.263.87369-2.48694,1.95752a3.20372,3.20372,0,0,0,.40493,1.79868,19.90236,19.90236,0,0,0,1.01569,1.92647c.92573,1.6845,1.86868,3.35848,2.809,5.03423a3.082,3.082,0,0,0,1.13015,1.393,1.16694,1.16694,0,0,0,.1099.04159,1.31459,1.31459,0,0,0,.763.051l.04527-.01046a1.31558,1.31558,0,0,0,.6131-.3682A1.17636,1.17636,0,0,0,63.79813,18.22836Z"/><path class="cls-1" d="M63.349,23.36618a1.19744,1.19744,0,0,0-1.33353-.44925,1.23132,1.23132,0,0,0-.16526.06853,1.60722,1.60722,0,0,0-.23533.14671,3.11,3.11,0,0,0-.563.57593,1.38189,1.38189,0,0,1-.13022.1693L60.08881,25.023c-.47206.64181-.93758,1.28524-1.39919,1.93891-.30122.42193-.5618.77828-.76754,1.09356-.039.0594-.07951.12573-.1166.17851a3.53113,3.53113,0,0,0-.458.90828,1.185,1.185,0,0,0-.05.5116,1.28951,1.28951,0,0,0,.17718.506,2.72864,2.72864,0,0,0,.16121.22436,2.534,2.534,0,0,0,.19.19765,1.9935,1.9935,0,0,0,.22848.18763,7.29063,7.29063,0,0,0,1.866.90939,6.60164,6.60164,0,0,0,1.703.32543,2.04412,2.04412,0,0,0,.29569-.0064,1.919,1.919,0,0,0,.5367-.11513,1.29326,1.29326,0,0,0,.45233-.288,1.1883,1.1883,0,0,0,.27538-.43217,3.551,3.551,0,0,0,.20126-.997c.0036-.06433.0128-.14148.01921-.21214.03283-.37535.04792-.8162.07206-1.33449.04071-.79721.07266-1.59088.09791-2.38676l.05351-1.41524a3.37781,3.37781,0,0,0-.08819-1.01171,1.513,1.513,0,0,0-.19028-.43916Z"/><path class="cls-1" d="M72.74972,25.58076a3.5726,3.5726,0,0,0-.80861-.61554c-.056-.03128-.12175-.073-.18241-.10938-.32345-.19455-.71307-.39919-1.1682-.64638-.69916-.38388-1.39875-.75812-2.105-1.12919l-1.24792-.66183a1.37347,1.37347,0,0,1-.19139-.095,3.10152,3.10152,0,0,0-.75767-.27081,1.60417,1.60417,0,0,0-.27575-.02856,1.22634,1.22634,0,0,0-.17851.01082,1.2003,1.2003,0,0,0-.99986.98962,1.53517,1.53517,0,0,0,.01716.47567,3.38275,3.38275,0,0,0,.36268.94826l.6664,1.24888q.55615,1.05668,1.13073,2.10284c.24814.45543.4547.84512.64815,1.16813.03665.06073.07824.12617.1096.18241a3.58723,3.58723,0,0,0,.61649.808,1.18536,1.18536,0,0,0,.43637.26772,1.29061,1.29061,0,0,0,.533.05919,2.60459,2.60459,0,0,0,.27206-.04711,2.63672,2.63672,0,0,0,.2611-.08495,2.03554,2.03554,0,0,0,.26831-.124,6.6067,6.6067,0,0,0,1.38881-1.03983,7.32007,7.32007,0,0,0,1.28083-1.63644,2.04025,2.04025,0,0,0,.12345-.269,2.70934,2.70934,0,0,0,.08362-.26125,2.62389,2.62389,0,0,0,.04659-.27236,1.2902,1.2902,0,0,0-.06132-.53206,1.18369,1.18369,0,0,0-.26875-.438Z"/><path class="cls-2" d="M29.78478,13.43129a1.86894,1.86894,0,0,1,1.85036-1.86988,1.91068,1.91068,0,0,1,1.85028,1.88438V28.04245a1.85042,1.85042,0,1,1-3.70064,0Zm-1.7205,9.016a1.90113,1.90113,0,0,1-.46257,1.2176,1.80911,1.80911,0,0,1-1.27207.52183q-1.98407.01082-3.968.0145-1.98407.00542-3.96821.0145a3.39582,3.39582,0,0,0,.86735,1.42047,3.61641,3.61641,0,0,0,.75164.55083,2.77523,2.77523,0,0,0,1.38779.39139,4.27538,4.27538,0,0,0,1.98042-.55083l.052-.02687a4.87539,4.87539,0,0,1,1.35025-.53846,1.59422,1.59422,0,0,1,1.31542.33345,1.419,1.419,0,0,1,.44814,1.493,2.82847,2.82847,0,0,1-1.28657,1.522A6.45442,6.45442,0,0,1,24.248,29.289a7.60372,7.60372,0,0,1-2.79.43489h0a6.14617,6.14617,0,0,1-.72278-.029,6.51046,6.51046,0,0,1-.76614-.14494,5.44154,5.44154,0,0,1-1.15643-.39139,6.33867,6.33867,0,0,1-1.05528-.59426,6.89066,6.89066,0,0,1-.92514-.79728,7.149,7.149,0,0,1-.76615-.95665,6.85417,6.85417,0,0,1-1.06978-4.07318,7.106,7.106,0,0,1,1.35885-3.91366,3.21767,3.21767,0,0,1,.295-.37616c.043-.04939.08495-.09753.12426-.14567A5.77774,5.77774,0,0,1,19.7637,16.47l.03195-.00927a6.48442,6.48442,0,0,1,3.54164,0,6.91685,6.91685,0,0,1,3.02121,1.84093,5.80347,5.80347,0,0,1,.41921.52183,6.90184,6.90184,0,0,1,1.111,2.326l.00213.00765A4.86924,4.86924,0,0,1,28.06428,22.44729Zm-8.48549-2.39176A3.26532,3.26532,0,0,0,18.45122,21.882h6.30271a3.36425,3.36425,0,0,0-1.142-1.82643,3.295,3.295,0,0,0-2.02378-.7247A3.238,3.238,0,0,0,19.57879,20.05553Zm23.96753-3.84116a5.64217,5.64217,0,0,0-4.22106,1.94237v-.0435a1.84423,1.84423,0,0,0-3.68621.10143V32.14456a1.85033,1.85033,0,1,0,3.70064,0V27.796a5.66968,5.66968,0,0,0,4.22107,1.94237c3.31034,0,5.99913-3.00052,5.99913-6.74025C49.54546,19.25833,46.85668,16.21437,43.54632,16.21437Zm-.80949,10.49455a3.551,3.551,0,0,1-3.41157-3.68179,3.4225,3.4225,0,1,1,6.82306,0A3.56043,3.56043,0,0,1,42.73683,26.70892ZM12.22088,23.96927l-.60715,1.33353c-.27464.57984-.54928,1.17417-.8095,1.76843q-.12455.27361-.25145.55716c-1.15539,2.57078-2.52662,5.62188-5.51638,6.2701C3.59082,34.21737,1.408,33.78255.59849,32.42a1.74244,1.74244,0,0,1,1.93707-2.5947,3.30367,3.30367,0,0,1,.72578.29459,1.96061,1.96061,0,0,0,1.25465.31424,1.8046,1.8046,0,0,0,1.0119-.76828,3.61211,3.61211,0,0,0,.7517-1.435c-.00723-.01451-.01445-.03261-.02168-.0508-.00723-.0181-.01446-.03621-.02169-.05071-.3763-.702-.70493-1.32964-.97946-1.854-.17895-.34177-.3349-.63967-.46611-.88561-.26919-.51027-.47254-.89606-.63067-1.196-.46177-.876-.538-1.02068-.74262-1.3986-.44813-.85521-.92517-1.68149-1.41666-2.5077-.53486-.89872-1.08418-1.89887-.63605-2.957A1.76827,1.76827,0,0,1,3.533,16.31581c.93042.28237,1.34245,1.16769,1.72778,1.99566.06967.14965.13846.29746.20929.43953.6216,1.2321,1.22874,2.4642,1.83588,3.69629.05345.12249.13513.28951.2344.49246.08866.18123.19137.39117.30046.62363.057.1208.1113.2332.1604.33478.06279.13007.117.24248.1576.332q.42289-1.05448.85293-2.10174.42819-1.04905.85285-2.10181c.00788-.03931.07516-.18925.17652-.41531.08569-.19109.19581-.43651.315-.71535.04034-.09525.0809-.19411.12242-.29518.37549-.91439.82687-2.01377,1.82915-2.314a1.78318,1.78318,0,0,1,1.9515.68127,1.81972,1.81972,0,0,1,.318,1.00015,5.81163,5.81163,0,0,1-.67891,2.30336c-.07766.17254-.15223.33809-.2173.49422-.003.006-.01561.03438-.03836.08532-.08818.19808-.32837.73736-.74229,1.62518-.14935.31822-.29267.63651-.43783.9587C12.38289,23.61174,12.3028,23.78959,12.22088,23.96927Z"/><path class="cls-1" d="M50.96247,28.51879h.134a.236.236,0,0,0,.15878-.05087.16579.16579,0,0,0,.0608-.13147.15467.15467,0,0,0-.05336-.13272.278.278,0,0,0-.16872-.041h-.13154Zm.53846-.18734a.30186.30186,0,0,1-.05337.17622.31019.31019,0,0,1-.14759.11285l.29526.4901h-.20847L51.13,28.67138h-.16754v.43924h-.18359V28.0052h.32382a.46271.46271,0,0,1,.30144.08061A.30153.30153,0,0,1,51.50093,28.33145Zm-1.31137.22584a.92221.92221,0,0,1,.1241-.46523.90921.90921,0,0,1,.34119-.34243.93505.93505,0,0,1,.93294-.00125.9101.9101,0,0,1,.34237.34118.93362.93362,0,1,1-1.7406.46773Zm.13028,0a.80149.80149,0,0,0,.80266.80265.78047.78047,0,0,0,.40074-.10791.80479.80479,0,0,0,.29282-.29158.79857.79857,0,0,0,.00125-.8039.80178.80178,0,0,0-.29282-.29275.77208.77208,0,0,0-.402-.10924.78048.78048,0,0,0-.40067.108.81126.81126,0,0,0-.29407.29275A.77923.77923,0,0,0,50.31984,28.55729Z"/></svg>