<?xml version="1.0" encoding="UTF-8"?>
<svg id="Hilfe" xmlns="http://www.w3.org/2000/svg" viewBox="0 0 40 40">
  <defs>
    <style>
      .cls-1 {
        fill: #fff;
      }

      .cls-2 {
        fill: none;
        fill-rule: evenodd;
        stroke: #fff;
        stroke-linejoin: round;
        stroke-width: 1.2px;
      }
    </style>
  </defs>
  <polyline class="cls-2" points="11.4395 15.83437 1.34826 10.5 1.34826 29.5 11.4395 24.16563"/>
  <path class="cls-1" d="M36.97446,8.22225c.99252,0,1.8,.80748,1.8,1.8V29.98257c0,.99252-.80748,1.8-1.8,1.8H14.01414c-.99252,0-1.8-.80748-1.8-1.8V10.02225c0-.99252,.80748-1.8,1.8-1.8h22.96032m0-1.2H14.01414c-1.65,0-3,1.35-3,3V29.98257c0,1.65,1.35,3,3,3h22.96032c1.65,0,3-1.35,3-3V10.02225c0-1.65-1.35-3-3-3h0Z"/>
</svg>