<svg xmlns="http://www.w3.org/2000/svg" viewBox="0 0 40 40"><g id="E23F_eingriff"><path d="M19.17824,14.93133a8.61108,8.61108,0,0,1,2.53433-6.11312l1.14977,1.1502a7.01242,7.01242,0,0,0,.00216,9.928L21.71473,21.047A8.61465,8.61465,0,0,1,19.17824,14.93133ZM33.91981,8.83591a8.64,8.64,0,0,1-.00216,12.193L32.76788,19.8787A7.01248,7.01248,0,0,0,32.77,9.98611ZM21.55417,14.93133a6.253,6.253,0,1,1,6.253,6.2577A6.25535,6.25535,0,0,1,21.55417,14.93133Zm1.00044,0a5.25252,5.25252,0,1,0,5.25252-5.2564A5.25462,5.25462,0,0,0,22.55461,14.93133Z" fill="#fff" fill-rule="evenodd"/><g style="isolation:isolate"><g style="isolation:isolate"><path d="M10.51848,33.04141,9.691,30.7783H5.70888l-.82344,2.26311h-1.187l3.39266-8.91474H8.34761l3.414,8.91474Zm-2.46228-6.792c-.06818-.17511-.13368-.35824-.19517-.55073a5.036,5.036,0,0,1-.15372-.59485,5.24094,5.24094,0,0,1-.16843.59351c-.0655.19115-.12833.37562-.18848.55207L6.05108,29.79579H9.33947Z" fill="#fff"/><path d="M18.52825,24.12667h1.16029v6.10758a4.19214,4.19214,0,0,1-.0909.9023,2.70015,2.70015,0,0,1-.2727.73521,2.23922,2.23922,0,0,1-.45984.5748,2.50779,2.50779,0,0,1-.64832.41171,3.60647,3.60647,0,0,1-.83813.2473,6.4828,6.4828,0,0,1-2.06661,0,3.56808,3.56808,0,0,1-.83814-.2473,2.46173,2.46173,0,0,1-.64431-.41171,2.18745,2.18745,0,0,1-.45315-.5748,2.7421,2.7421,0,0,1-.27-.73521,4.19216,4.19216,0,0,1-.09089-.9023V24.12667h1.16029v5.90974a3.16088,3.16088,0,0,0,.12966.95577,1.69008,1.69008,0,0,0,.39434.6804,1.62327,1.62327,0,0,0,.67506.405,3.12347,3.12347,0,0,0,.97047.13367,3.16227,3.16227,0,0,0,.97716-.13367,1.62981,1.62981,0,0,0,.67907-.405,1.66453,1.66453,0,0,0,.397-.6804,3.16087,3.16087,0,0,0,.12967-.95577Z" fill="#fff"/><path d="M23.89928,33.04141v-7.959H21.1496v-.95577h6.65431v.95577h-2.751v7.959Z" fill="#fff"/><path d="M32.49053,33.18845a4.49263,4.49263,0,0,1-1.23248-.15506,3.27826,3.27826,0,0,1-.9678-.4438,3.00843,3.00843,0,0,1-.71917-.70046,3.9096,3.9096,0,0,1-.49192-.921,5.44647,5.44647,0,0,1-.28205-1.11083,8.49364,8.49364,0,0,1-.08956-1.26456,8.29945,8.29945,0,0,1,.09089-1.26055A5.483,5.483,0,0,1,29.08451,26.22a3.86143,3.86143,0,0,1,.49593-.92637,2.96652,2.96652,0,0,1,.72585-.70713,3.33732,3.33732,0,0,1,.97048-.44915,4.4312,4.4312,0,0,1,1.23247-.15774,4.55444,4.55444,0,0,1,1.23382.15507,3.26258,3.26258,0,0,1,.97047.44513,2.97075,2.97075,0,0,1,.72318.69912,3.83243,3.83243,0,0,1,.49326.92369,5.53516,5.53516,0,0,1,.28205,1.11083,8.86849,8.86849,0,0,1-.00133,2.52377,5.43783,5.43783,0,0,1-.2874,1.11217,3.94275,3.94275,0,0,1-.49861.92637,3.03865,3.03865,0,0,1-.72719.7058,3.36158,3.36158,0,0,1-.97448.44914A4.44436,4.44436,0,0,1,32.49053,33.18845Zm.01871-.9678a2.68143,2.68143,0,0,0,.84616-.12432,2.12974,2.12974,0,0,0,.66035-.3529,2.15975,2.15975,0,0,0,.49193-.55475,3.37222,3.37222,0,0,0,.33819-.7312,4.715,4.715,0,0,0,.19517-.8769,8.0952,8.0952,0,0,0,0-1.99175,4.7639,4.7639,0,0,0-.19517-.8769,3.31429,3.31429,0,0,0-.33819-.7312,2.19868,2.19868,0,0,0-.49193-.55341,2.09737,2.09737,0,0,0-.66168-.35424,2.97247,2.97247,0,0,0-1.69232,0,2.1112,2.1112,0,0,0-.66436.35424,2.235,2.235,0,0,0-.4946.55341,3.25678,3.25678,0,0,0-.33953.7312,4.65751,4.65751,0,0,0-.19383.8769,8.27419,8.27419,0,0,0,0,1.99175,4.611,4.611,0,0,0,.19383.8769,3.31278,3.31278,0,0,0,.33953.7312,2.1947,2.1947,0,0,0,.4946.55475,2.1359,2.1359,0,0,0,.66436.3529A2.6841,2.6841,0,0,0,32.50924,32.22065Z" fill="#fff"/></g></g><path d="M15.43848,10.38574a6.97037,6.97037,0,1,0,2.03125,4.918A6.925,6.925,0,0,0,15.43848,10.38574Zm-.13721,7.90357a.24438.24438,0,0,1-.09644.00146.28578.28578,0,0,1-.03247-.01355.31183.31183,0,0,1-.09033-.0448l-1.206-1.05664a3.803,3.803,0,0,0,.46386-1.831v-.34766l1.49707.00195h.01758c.23047,0,.42578.00977.43067.43164a5.7313,5.7313,0,0,1-.61426,2.47168l-.02442.05176a.56425.56425,0,0,1-.31689.3291Zm-1.28369,1.43481a.42574.42574,0,0,0-.02466-.07422A.4553.4553,0,0,1,14.01758,19.72412Zm-.00733.0603a.28569.28569,0,0,1-.10693.18726l-.01172.01172c-.00879.00879-.01074.00976-.03222.02832a5.74972,5.74972,0,0,1-6.67383,0,.169.169,0,0,1-.03418-.02734L7.1377,19.9707a.28258.28258,0,0,1-.10425-.18188.25377.25377,0,0,1-.00342-.031.82419.82419,0,0,1,.31372-.5039l.92676-.81348a3.8088,3.8088,0,0,0,4.502,0l.92578.81348c.2146.20691.31592.37133.31519.50415C14.01318,19.76733,14.01123,19.77563,14.01025,19.78442ZM8.85658,16.041A1.6654,1.6654,0,1,1,10.518,17.76367,1.70517,1.70517,0,0,1,8.85658,16.041Zm-1.8058,3.60846a.4651.4651,0,0,0-.02466.0752A.46478.46478,0,0,1,7.05078,19.64941ZM5.39551,17.9541l-.02442-.05176a5.75911,5.75911,0,0,1-.61425-2.47168c.00488-.42187.20117-.43164.43261-.43164H5.207l1.49317-.00195-.001.34766a3.85677,3.85677,0,0,0,.46387,1.831L5.96,18.23242a.31784.31784,0,0,1-.09717.04773c-.00732.00232-.01465.00769-.022.00928a.255.255,0,0,1-.09619.00049.24694.24694,0,0,1-.031-.00672A.57281.57281,0,0,1,5.39551,17.9541ZM5.26,13.15771a.239.239,0,0,1,.00952-.23291,5.75767,5.75767,0,0,1,10.50293.001.23751.23751,0,0,1,.011.22962l-.00562.01452a.401.401,0,0,1-.355.14746H5.62012a.4024.4024,0,0,1-.35547-.14782Zm10.50732.03907c-.00366.00464-.01025.00732-.0144.01184C15.75708,13.2041,15.76367,13.20142,15.76733,13.19678ZM5.292,13.21021c-.00488-.00513-.01269-.00855-.01709-.01392C5.2793,13.20178,5.28711,13.205,5.292,13.21021Zm.37866,5.06372a.35532.35532,0,0,1-.04956-.03028A.38448.38448,0,0,0,5.67065,18.27393Zm9.5647.02954-.00122-.00049Zm.19238-.064a.38179.38179,0,0,1-.05615.03479A.38179.38179,0,0,0,15.42773,18.2395Zm.10987-.09472-.00415.00634Z" fill="#fff"/></g></svg>