<svg id="Ebene_1" data-name="Ebene 1" xmlns="http://www.w3.org/2000/svg" viewBox="0 0 40 40"><defs><style>.cls-1{fill:none;stroke:#fff;stroke-miterlimit:10;stroke-width:1.2px;}.cls-2{fill:#fff;}</style></defs><line class="cls-1" x1="8.5" y1="35.66761" x2="8.5" y2="5.50094"/><path class="cls-1" d="M18.608,6.16736C14.11414,5.87109,8.5,5.50092,8.5,5.50092l-7,2V32.6676l7,3,15.06669-1"/><polyline class="cls-1" points="23.5 20.5 23.5 34.667 34.5 38.501 34.5 24.168"/><path class="cls-1" d="M30.49988,1.61511A8.1,8.1,0,0,0,22.5,9.79376a8.397,8.397,0,0,0,.21783,1.90363,8.22259,8.22259,0,0,0,1.6059,3.29474l6.17615,9.232,6.20672-9.27728A8.25162,8.25162,0,0,0,38.5,9.79376,8.10006,8.10006,0,0,0,30.49988,1.61511Z"/><circle class="cls-2" cx="30.5" cy="9.5" r="3.375"/></svg>