<?xml version="1.0" encoding="utf-8"?>
<!-- Generator: Adobe Illustrator 25.3.0, SVG Export Plug-In . SVG Version: 6.00 Build 0)  -->
<svg version="1.1" id="Ebene_1" xmlns="http://www.w3.org/2000/svg" xmlns:xlink="http://www.w3.org/1999/xlink" x="0px" y="0px"
	 viewBox="0 0 40 40" style="enable-background:new 0 0 40 40;" xml:space="preserve">
<style type="text/css">
	.st0{fill:none;stroke:#FFFFFF;stroke-width:1.2;}
</style>
<g id="E263_phone_conference">
	<g id="V2-51">
		<path class="st0" d="M20,28.5h-4.6c-1.9,0-3.9,1.7-3.9,3.5v1.5l-5.8-1.7c-1.5-0.4-3.2-2.3-3.2-3.8v-7c0-1.5,1.7-3.3,3.2-3.8l4.3-2
			c1.1-0.4,2.8,0.7,3.5,1.3v-1c-0.1-1.5,1-3,2.5-3h8c1.5,0,2.6,1.5,2.5,3v1c0.7-0.6,2.4-1.7,3.5-1.3l4.3,2c1.5,0.5,3.2,2.3,3.2,3.8
			v7c0,1.5-1.7,3.3-3.2,3.8l-5.8,1.7V32c0-1.8-2-3.5-3.9-3.5H20z"/>
		<path class="st0" d="M5,14.5c-1.9,0-3.5-1.6-3.5-3.5S3.1,7.5,5,7.5c1.9,0,3.5,1.6,3.5,3.5C8.5,12.9,6.9,14.5,5,14.5
			C5,14.5,5,14.5,5,14.5z"/>
		<path class="st0" d="M20,10.5c-1.9,0-3.5-1.6-3.5-3.5s1.6-3.5,3.5-3.5c1.9,0,3.5,1.6,3.5,3.5C23.5,8.9,21.9,10.5,20,10.5
			C20,10.5,20,10.5,20,10.5z"/>
		<path class="st0" d="M20,26.5c-1.9,0-3.5-1.6-3.5-3.5s1.6-3.5,3.5-3.5c1.9,0,3.5,1.6,3.5,3.5C23.5,24.9,21.9,26.5,20,26.5
			C20,26.5,20,26.5,20,26.5z"/>
		<path class="st0" d="M34,14.5c-1.9,0-3.5-1.6-3.5-3.5s1.6-3.5,3.5-3.5c1.9,0,3.5,1.6,3.5,3.5C37.5,12.9,35.9,14.5,34,14.5
			C34,14.5,34,14.5,34,14.5z"/>
	</g>
</g>
</svg>
