<svg xmlns="http://www.w3.org/2000/svg" viewBox="0 0 40 40"><g id="E265_PLA_off"><path d="M23.22975,12.28486a4.11605,4.11605,0,0,1-1.12495-.1416,2.96368,2.96368,0,0,1-.88489-.40636,2.72222,2.72222,0,0,1-.6574-.63936,3.539,3.539,0,0,1-.44872-.84175,4.9908,4.9908,0,0,1-.2581-1.01433,7.77191,7.77191,0,0,1-.08237-1.15476,7.62787,7.62787,0,0,1,.08394-1.15162,5.00712,5.00712,0,0,1,.26045-1.01591,3.58493,3.58493,0,0,1,.45343-.84724,2.71943,2.71943,0,0,1,.66289-.64524,3.04782,3.04782,0,0,1,.88646-.41067,4.083,4.083,0,0,1,1.12652-.144,4.13586,4.13586,0,0,1,1.12652.1416,2.97765,2.97765,0,0,1,.88725.40637,2.718,2.718,0,0,1,.65975.63935,3.47676,3.47676,0,0,1,.45029.84332A4.95989,4.95989,0,0,1,26.6297,6.917a7.74151,7.74151,0,0,1,.08159,1.15319,7.66251,7.66251,0,0,1-.08316,1.15319,4.93642,4.93642,0,0,1-.262,1.01591,3.60526,3.60526,0,0,1-.45657.84567,2.7508,2.7508,0,0,1-.66367.64524,3.05732,3.05732,0,0,1-.8896.41067A4.10306,4.10306,0,0,1,23.22975,12.28486Zm.01726-.88411a2.43543,2.43543,0,0,0,.77272-.11415,1.94834,1.94834,0,0,0,.60405-.32242,1.99447,1.99447,0,0,0,.44872-.50678,3.05562,3.05562,0,0,0,.30909-.66681,4.33887,4.33887,0,0,0,.17808-.80174,7.35279,7.35279,0,0,0,0-1.81921,4.36053,4.36053,0,0,0-.17808-.80174,3.01688,3.01688,0,0,0-.30909-.66721,2.01972,2.01972,0,0,0-.44872-.50638,1.9003,1.9003,0,0,0-.60562-.32281,2.71083,2.71083,0,0,0-1.54622,0,1.92113,1.92113,0,0,0-.6064.32281,2.03124,2.03124,0,0,0-.45187.50638,2.98341,2.98341,0,0,0-.30987.66721,4.29717,4.29717,0,0,0-.17729.80174,7.56143,7.56143,0,0,0,0,1.81921,4.27622,4.27622,0,0,0,.17729.80174,3.02129,3.02129,0,0,0,.30987.66681,2.00574,2.00574,0,0,0,.45187.50678,1.9607,1.9607,0,0,0,.6064.32242A2.45047,2.45047,0,0,0,23.247,11.40075Z" fill="#fff"/><path d="M28.05981,12.15032V4.0066h4.8685v.87313h-3.811v2.861H32.6255v.87313H29.11729v3.53645Z" fill="#fff"/><path d="M33.74967,12.15032V4.0066h4.86849v.87313h-3.811v2.861h3.5082v.87313h-3.5082v3.53645Z" fill="#fff"/><path d="M4.87545,13.42968H9.22652c.37129,0,4.06462.10008,4.06462-3.58673s-3.69333-3.665-4.06462-3.665H4.87545ZM1.97474,25.03253V4.00237h6.5266C12.566,3.824,15.74805,5.188,15.74805,9.87921c0,4.4845-3.21182,5.63681-7.24671,5.726H4.87545v9.42731Z" fill="#fff" fill-rule="evenodd"/><path d="M26.32764,15.78076A11.39034,11.39034,0,1,0,37.69482,27.17139,11.42075,11.42075,0,0,0,26.32764,15.78076ZM18.29541,32.65967a1.22287,1.22287,0,0,1-1.03271-.817l-.042-.09057a10.16158,10.16158,0,0,1-1.08154-4.35645c.01514-1.15344.77832-1.15344,1.145-1.15344l2.57715-.00391.40234-.00061-.002.40259-.00293.60254a6.12011,6.12011,0,0,0,.74219,2.91553l.15283.28088-.24072.21094-2.04883,1.79736A.91933.91933,0,0,1,18.29541,32.65967Zm14.03613,2.73816a.63966.63966,0,0,1-.08447.07605,10.15566,10.15566,0,0,1-11.81543.01684.55414.55414,0,0,1-.11328-.09326.88425.88425,0,0,1-.32813-.65173,1.69541,1.69541,0,0,1,.66211-1.17346l1.59375-1.3993.24121-.212.25928.19031a6.04863,6.04863,0,0,0,7.16113-.00037l.25879-.1897.2417.21192,1.57764,1.38537a1.70822,1.70822,0,0,1,.67871,1.189A.87775.87775,0,0,1,32.33154,35.39783Zm-9.11211-6.97549a3.10846,3.10846,0,1,1,3.10262,3.20412h-.00249A3.16441,3.16441,0,0,1,23.21943,28.42234Zm13.29278-1.04075a10.15029,10.15029,0,0,1-1.08448,4.38147l-.03759.07959a1.205,1.205,0,0,1-1.03223.817.8999.8999,0,0,1-.54932-.19556l-2.07373-1.8136L31.4917,30.438l.15625-.28223a6.02818,6.02818,0,0,0,.74072-2.91492V26.23767l.40039.00061,2.583.00391C35.73779,26.24219,36.499,26.24219,36.51221,27.38159Zm-.91553-3.62012a1.06678,1.06678,0,0,1-.959.45508H18.01562a1.06678,1.06678,0,0,1-.959-.45508.814.814,0,0,1,.00244-.81884,10.17388,10.17388,0,0,1,18.54737.025A.79725.79725,0,0,1,35.59668,23.76147Z" fill="#fff" fill-rule="evenodd"/></g></svg>