<svg xmlns="http://www.w3.org/2000/svg" viewBox="0 0 40 40"><g id="E268_VZE"><path d="M31.5936,4.25a7.23249,7.23249,0,1,1-7.23249,7.23249A7.23266,7.23266,0,0,1,31.5936,4.25Z" fill="none" stroke="#fff" stroke-width="1.2"/><path d="M28,10h7v3H28Z" fill="#fff" fill-rule="evenodd"/><polygon points="4.509 24.454 4.509 23.734 1.728 23.734 1.929 24.934 4.307 24.934 4.509 24.454" fill="#fff"/><polygon points="23.094 24.454 23.094 23.734 25.875 23.734 25.673 24.934 23.296 24.934 23.094 24.454" fill="#fff"/><rect x="2.5" y="26.9191" width="4.5" height="1.2" fill="#fff"/><rect x="20" y="26.9191" width="4.5" height="1.2" fill="#fff"/><path d="M22.9752,24.83825v-1.008s-1.81434-3.02391-3.02391-3.2255-5.03985-.2016-6.24941-.2016-5.03985,0-6.24941.2016c-1.20957.40319-3.02391,3.2255-3.02391,3.2255l.2006.88761L2.41262,26.04782v7.66057a.73844.73844,0,0,0,.80637.80638H6.4445a.86717.86717,0,0,0,.80637-.80638V32.5h12.902v1.20839a.73844.73844,0,0,0,.80638.80638H23.5a.91408.91408,0,0,0,1-.80638V26.04782l-1.80783-1.43309" fill="none" stroke="#fff" stroke-miterlimit="10" stroke-width="1.2"/><line x1="4.43574" y1="24.49769" x2="22.96696" y2="24.50231" fill="none" stroke="#fff" stroke-miterlimit="10" stroke-width="1.2"/><line x1="31.5" y1="18.23166" x2="31.5" y2="31" fill="none" stroke="#fff" stroke-miterlimit="10" stroke-width="1.2"/></g></svg>