<svg xmlns="http://www.w3.org/2000/svg" viewBox="0 0 40 40"><g id="E273_ARA_off"><path d="M24.90888,9.80931A3.96087,3.96087,0,0,1,23.82626,9.673a2.85182,2.85182,0,0,1-.8516-.39107,2.61954,2.61954,0,0,1-.63266-.61529,3.40645,3.40645,0,0,1-.43184-.81008,4.80356,4.80356,0,0,1-.24838-.97617,7.47851,7.47851,0,0,1-.07927-1.1113,7.34142,7.34142,0,0,1,.08078-1.10829,4.818,4.818,0,0,1,.25065-.97768,3.44983,3.44983,0,0,1,.43637-.81536,2.61715,2.61715,0,0,1,.63794-.621,2.933,2.933,0,0,1,.85311-.39523,3.9297,3.9297,0,0,1,1.08413-.13853,3.97989,3.97989,0,0,1,1.08412.13627,2.86524,2.86524,0,0,1,.85387.39107,2.61608,2.61608,0,0,1,.63492.61529,3.34614,3.34614,0,0,1,.43335.81159,4.77392,4.77392,0,0,1,.24914.97617,7.44927,7.44927,0,0,1,.07851,1.10979,7.3748,7.3748,0,0,1-.08,1.1098,4.7506,4.7506,0,0,1-.25216.97768,3.46983,3.46983,0,0,1-.43939.81385,2.647,2.647,0,0,1-.6387.621,2.94239,2.94239,0,0,1-.85613.39522A3.94893,3.94893,0,0,1,24.90888,9.80931Zm.01661-.85084a2.34369,2.34369,0,0,0,.74364-.10985,1.87514,1.87514,0,0,0,.58132-.31029,1.91969,1.91969,0,0,0,.43184-.4877,2.94031,2.94031,0,0,0,.29745-.64172,4.17484,4.17484,0,0,0,.17138-.77157,7.07547,7.07547,0,0,0,0-1.75076,4.19568,4.19568,0,0,0-.17138-.77158,2.90284,2.90284,0,0,0-.29745-.64209,1.94389,1.94389,0,0,0-.43184-.48733,1.829,1.829,0,0,0-.58283-.31067,2.60892,2.60892,0,0,0-1.488,0,1.849,1.849,0,0,0-.58358.31067,1.95455,1.95455,0,0,0-.43486.48733,2.87024,2.87024,0,0,0-.29821.64209,4.13554,4.13554,0,0,0-.17063.77158,7.27746,7.27746,0,0,0,0,1.75076,4.11537,4.11537,0,0,0,.17063.77157,2.90688,2.90688,0,0,0,.29821.64172,1.93012,1.93012,0,0,0,.43486.4877,1.88691,1.88691,0,0,0,.58358.31029A2.35813,2.35813,0,0,0,24.92549,8.95847Z" fill="#fff"/><path d="M29.55719,9.67984V1.84256h4.6853v.84028H30.57488V5.43619h3.37619v.84027H30.57488V9.67984Z" fill="#fff"/><path d="M35.03294,9.67984V1.84256h4.6853v.84028H36.05063V5.43619h3.37619v.84027H36.05063V9.67984Z" fill="#fff"/><path d="M19.83008,31.572a2.08692,2.08692,0,1,1-2.08692,2.08692A2.08916,2.08916,0,0,1,19.83008,31.572m0-1.19995a3.28687,3.28687,0,1,0,3.28711,3.28687,3.287,3.287,0,0,0-3.28711-3.28687Z" fill="#fff"/><path d="M22,12.5H36.84091A1.89477,1.89477,0,0,1,38.5,14.52093V30.64987A1.73386,1.73386,0,0,1,36.84091,32.5H32.59646V29.801c0-.99016-.70763-1.301-1.69779-1.301H16.46752c-.99016,0-1.96752.31082-1.96752,1.301V32.5H3m7.5.2721V24" fill="none" stroke="#fff" stroke-miterlimit="10" stroke-width="1.2" fill-rule="evenodd"/><path d="M27.6875,31.572a2.08692,2.08692,0,1,1-2.08691,2.08692A2.08907,2.08907,0,0,1,27.6875,31.572m0-1.19995a3.28687,3.28687,0,1,0,3.28662,3.28687,3.287,3.287,0,0,0-3.28662-3.28687Z" fill="#fff"/><path d="M1.35205,12.799A9.22388,9.22388,0,1,0,10.5835,3.56348,9.2476,9.2476,0,0,0,1.35205,12.799Zm2.80371,4.27173a.86572.86572,0,0,1-.71777-.58545l-.0332-.07068a8.02375,8.02375,0,0,1-.8545-3.43909c.01026-.80017.50244-.80017.79639-.80017l2.062-.003.20166-.00036-.001.20129-.00245.4823a5.02131,5.02131,0,0,0,.6084,2.39111l.07617.1405-.12011.10547L4.53174,16.93079A.60448.60448,0,0,1,4.15576,17.07068Zm11.15332,2.22058a.54513.54513,0,0,1-.064.05823,8.00884,8.00884,0,0,1-9.31055.009.37754.37754,0,0,1-.07324-.05969.6024.6024,0,0,1-.22949-.44153,1.25827,1.25827,0,0,1,.49365-.85022l1.271-1.11536.12061-.10608.12988.09522a4.95974,4.95974,0,0,0,5.87207-.00024l.1294-.09485.1206.106,1.2627,1.10852a1.25855,1.25855,0,0,1,.50244.85791A.58709.58709,0,0,1,15.30908,19.29126ZM8.176,13.79994a2.46156,2.46156,0,0,1,2.40606-2.48585,2.48638,2.48638,0,0,1-.00377,4.97033h-.00084A2.45238,2.45238,0,0,1,8.176,13.79994Zm10.43773-.83131a8.01625,8.01625,0,0,1-.85547,3.4508l-.03125.06592a.85169.85169,0,0,1-.71728.58533.60254.60254,0,0,1-.3667-.13172l-1.65381-1.44628-.1211-.10621.07813-.14123a4.94349,4.94349,0,0,0,.60742-2.39075v-.68261l.20068.00036,2.06592.003C18.11377,12.17529,18.60449,12.17529,18.61377,12.96863Zm-8.02393-8.2168A8.06392,8.06392,0,0,1,17.89941,9.4845a.52443.52443,0,0,1-.00146.524.73862.73862,0,0,1-.66455.30555H3.93213a.73862.73862,0,0,1-.66455-.30555.53273.53273,0,0,1,.00488-.53662A8.06467,8.06467,0,0,1,10.58984,4.75183Z" fill="#fff" fill-rule="evenodd"/></g></svg>