<svg xmlns="http://www.w3.org/2000/svg" viewBox="0 0 40 40"><title>E281_car_awc</title><g id="E281_AWC"><rect x="5.42052" y="7.49851" width="26.08573" height="13.98432" fill="none" stroke="#fff" stroke-miterlimit="10" stroke-width="1.2"/><polyline points="34.471 11.047 34.471 25.457 27.009 25.457" fill="none" stroke="#fff" stroke-miterlimit="10" stroke-width="1.2" fill-rule="evenodd"/><polyline points="37.506 13.996 37.506 28.505 30.024 28.505" fill="none" stroke="#fff" stroke-miterlimit="10" stroke-width="1.2" fill-rule="evenodd"/><rect x="8.99469" y="4.99214" width="5.00246" height="2.05523" fill="#fff"/><rect x="23.00298" y="4.99214" width="5.00246" height="2.05523" fill="#fff"/><line x1="4.97917" y1="35.46847" x2="29.99249" y2="35.46847" fill="none" stroke="#fff" stroke-miterlimit="10" stroke-width="1.2"/><path d="M8.363,28.95341a13.255,13.255,0,0,1,18.246.00031" fill="none" stroke="#fff" stroke-width="1.2"/><path d="M11.93111,31.93811a8.651,8.651,0,0,1,11.05678-.04381" fill="none" stroke="#fff" stroke-width="1.2"/><rect x="22.01057" y="13.99553" width="4.99855" height="1.00154" transform="translate(10.01355 39.00614) rotate(-90)" fill="#fff"/><rect x="22.01057" y="13.99553" width="4.99855" height="1.00154" fill="#fff"/><rect x="9.99752" y="13.99553" width="4.99855" height="1.00154" fill="#fff"/></g></svg>