<?xml version="1.0" encoding="UTF-8"?>
<svg id="Ebene_1" data-name="Ebene 1" xmlns="http://www.w3.org/2000/svg" viewBox="0 0 40 40">
  <defs>
    <style>
      .cls-1 {
        fill: #fff;
      }

      .cls-2 {
        fill: none;
        stroke: #fff;
        stroke-width: 1.2px;
      }
    </style>
  </defs>
  <path class="cls-1" d="m1.30995,35.81337l14.46579-5.90626c.25488.4375.55078.85547.87988,1.24707l-15.34567,6.26466v-1.60547Z"/>
  <path class="cls-1" d="m1.30995,30.0663l12.76972-5.21439c.08887.51367.19336,1.00977.30957,1.48047L1.30995,31.67274v-1.60645Z"/>
  <path class="cls-1" d="m1.30995,24.63075l12.33535-5.03619c.00684.54395.01855,1.07959.04297,1.59033L1.30995,26.23817v-1.60742Z"/>
  <path class="cls-1" d="m1.30995,19.26991l12.61938-5.15198c-.07031.53662-.12695,1.0957-.1709,1.67676L1.30995,20.87587v-1.60596Z"/>
  <path class="cls-1" d="m1.30995,13.73308l14.63805-5.9738c-.38477.62061-.71875,1.30908-.99512,2.05176L1.30995,15.34099v-1.60791Z"/>
  <path class="cls-2" d="m35.52985,25.70215c-.65492.60979-1.36586,1.15647-2.1234,1.63281-.31547.20233-.64095.38861-.97519.55815-1.15753.61625-2.36372,1.13641-3.60639,1.55524-2.25096.7677-4.6236,1.11623-7.00024,1.02831-.75889,0-5.07057.20906-5.07057-11.49493s4.35118-11.49493,5.07057-11.49493c2.38715-.03801,4.76028.37175,6.99646,1.20806,1.2417.41861,2.44693.93845,3.60356,1.55429.33517.16915.66159.35512.978.5572.75779.47675,1.46904,1.02374,2.12435,1.63375,1.50652,1.41144,3.21803,3.20035,3.21803,6.63057,0,3.43116-1.70774,5.21817-3.21519,6.6315Z"/>
</svg>