<svg xmlns="http://www.w3.org/2000/svg" viewBox="0 0 40 40"><g id="E288_Standlicht"><path d="M16.99289,20.40792a6.67607,6.67607,0,0,1-.70358,2.6736,7.88683,7.88683,0,0,1-1.88393,2.33305A4.34031,4.34031,0,0,1,12.19512,26.505c-.86953,0-1.51456-1.24756-1.51456-6.02744s.71194-5.96923,1.51456-5.96923a3.19972,3.19972,0,0,1,1.96309.87072,7.80467,7.80467,0,0,1,1.90768,2.20848A5.83087,5.83087,0,0,1,16.99289,20.40792Z" fill="none" stroke="#fff" stroke-miterlimit="10" stroke-width="1.2"/><path d="M23.68913,17.58755a7.80483,7.80483,0,0,1,1.90768-2.20848,3.19972,3.19972,0,0,1,1.9631-.87072c.80261,0,1.54777,1.1536,1.54777,5.93348S28.42943,26.505,27.55991,26.505a4.3403,4.3403,0,0,1-2.21027-1.09045,7.88683,7.88683,0,0,1-1.88393-2.333,6.67624,6.67624,0,0,1-.70358-2.6736A5.83087,5.83087,0,0,1,23.68913,17.58755Z" fill="none" stroke="#fff" stroke-miterlimit="10" stroke-width="1.2"/><line x1="32.65967" y1="20.55186" x2="39.3547" y2="20.55186" stroke="#fff" stroke-miterlimit="10" stroke-width="1.2"/><line x1="31.6453" y1="13.43858" x2="37.92142" y2="11.10754" stroke="#fff" stroke-miterlimit="10" stroke-width="1.2"/><line x1="31.6453" y1="27.59314" x2="37.92142" y2="29.92418" stroke="#fff" stroke-miterlimit="10" stroke-width="1.2"/><line x1="7.34033" y1="20.55186" x2="0.6453" y2="20.55186" stroke="#fff" stroke-miterlimit="10" stroke-width="1.2"/><line x1="8.3547" y1="13.43858" x2="2.07858" y2="11.10754" stroke="#fff" stroke-miterlimit="10" stroke-width="1.2"/><line x1="8.3547" y1="27.59314" x2="2.07858" y2="29.92418" stroke="#fff" stroke-miterlimit="10" stroke-width="1.2"/></g></svg>