<svg xmlns="http://www.w3.org/2000/svg" viewBox="0 0 40 40"><g id="E295_connect_privacy"><path d="M29.02309,17.27836a.28588.28588,0,0,1-.018-.1291q-.04649-.36486-.12145-.72032a.29292.29292,0,0,0-.01112-.03619c-.04415-.20616-.09383-.41009-.1515-.61048a.29473.29473,0,0,0-.32456-.21094l-.8573.12221a.29215.29215,0,0,1-.31411-.18242l-.0207-.05114c-.0177-.04473-.03559-.08934-.0541-.13366-.01394-.03347-.02833-.0667-.04272-.09992-.01-.023-.0194-.04637-.02962-.06928l-.00707-.01392q-.11349-.25375-.24348-.4977l-.01682-.02787-.05632-.08365-.03691-.08147-.0149-.029q-.18032-.311-.38842-.60373l-.00938-.01466q-.06789-.09516-.13864-.18808a.29184.29184,0,0,1,.01239-.35472l.55614-.67875a.29484.29484,0,0,0-.01023-.38477q-.24276-.26832-.50646-.51715a.28264.28264,0,0,1-.10076-.09343c-.16129-.1476-.3286-.28864-.50022-.42446l-.008-.00759-.02006-.01521-.02457-.01994-.01158-.00745c-.17194-.13356-.348-.26192-.52925-.383a.29484.29484,0,0,0-.3835.04752l-.58186.64878a.2921.2921,0,0,1-.35775.06223l-.0012-.00063q-.10356-.057-.209-.11089l-.00759-.00383c-.04442-.02264-.08863-.04563-.13354-.06743l-.026-.011c-.16232-.07821-.32733-.15152-.49547-.21845l-.031-.01055-.089-.02546-.08389-.04007-.03013-.0126q-.33376-.12-.68218-.21013l-.02062-.00641q-.11882-.03048-.23912-.0572a.29175.29175,0,0,1-.21636-.279l-.0102-.8714a.28787.28787,0,0,0-.25005-.28162q-.1723-.02318-.3469-.03983-.19059-.018-.38-.02768a.296.296,0,0,0-.06209.00389.28713.28713,0,0,0-.068-.01189q-.17373-.00686-.34911-.007c-.09877,0-.197.00218-.295.00543-.00748-.00033-.01475-.00153-.02234-.00127q-.17376.00583-.34869.01846-.19092.014-.37926.036a.29485.29485,0,0,0-.26155.2827l-.02843.8626a.292.292,0,0,1-.23213.27719q-.1206.02415-.23981.052l-.00066.00016c-.05078.01186-.10168.02342-.15206.03628l-.0274.0085c-.17552.04533-.34877.09591-.519.15286l-.03042.01193-.08481.03821-.08886.02327-.0312.00985q-.33444.1245-.65441.27888l-.02215.00936q-.11038.05342-.21878.11023a.29173.29173,0,0,1-.34508-.07453l-.54965-.63971a.29486.29486,0,0,0-.38319-.05515q-.307.19721-.5972.41815a.28969.28969,0,0,1-.10462.07622c-.16138.1266-.31731.2597-.46966.39669a.29663.29663,0,0,0-.04012.03034q-.2699.24554-.51928.51171a.29485.29485,0,0,0-.01771.38371l.52163.665a.29209.29209,0,0,1,.00047.36148l-.01334.01736q-.065.08232-.12786.16634l-.01562.02115c-.02733.03687-.05507.07342-.08175.11078l-.01482.02314c-.10449.14731-.20451.29793-.29864.45245l-.01553.02865-.03828.07983-.05765.08172-.01743.02749q-.179.31668-.32857.65216l-.00233.00458q-.04543.10171-.08782.205a.29209.29209,0,0,1-.31763.17514l-.80947-.133a.29478.29478,0,0,0-.329.20417q-.10882.35048-.19012.71353a.29849.29849,0,0,0-.00686.05235.295.295,0,0,0-.02135.06235c-.04192.19977-.0757.40245-.1043.60679a.297.297,0,0,0-.01067.04668q-.049.3637-.06871.73523a.295.295,0,0,0,.2331.3049l.80842.17018a.29235.29235,0,0,1,.23263.2766l.00168.03277c.00228.06489.00613.12936.01.19385.002.03452.00279.06881.00532.10339l.00232.02481.00159.02671.00322.02484c.01516.18221.03554.36276.06275.54088l.00633.03093.02187.08511.009.10641.0044.03258q.0673.35917.1677.7071l.002.00848c.01856.06469.03837.12884.05857.19282l.00154.00512a.29215.29215,0,0,1-.13056.339l-.69414.41166a.29494.29494,0,0,0-.121.36736q.14384.34577.315.67743a.30194.30194,0,0,1,.049.09651c.09915.18659.20591.36842.31737.547a.2909.2909,0,0,0,.01367.02685c.01325.02107.02758.04136.041.06231l.00527.00859.00252.00325c.11888.185.24307.36613.37453.54141a.29493.29493,0,0,0,.37485.08412l.71815-.38366a.29214.29214,0,0,1,.35543.06164c.01892.02115.03852.04164.05766.06258l.05875.06377q.04812.05151.09719.10205l.03772.03961.01024.00943c.13007.132.26418.25987.40319.38226l.02536.02014.07716.05533.07417.07475.024.02191a7.79913,7.79913,0,0,0,.75172.54732.2922.2922,0,0,1,.11687.34294l-.26843.76525a.29487.29487,0,0,0,.14176.35834q.331.17427.67827.322a.29.29,0,0,1,.09729.03893c.20307.08357.4104.15876.62051.22778l.00152.00065.004.00122c.02665.00874.05278.0186.07953.02709a.29514.29514,0,0,0,.03247.00717c.19965.06266.40144.1202.60641.16914a.295.295,0,0,0,.34286-.17611l.30408-.75692a.29216.29216,0,0,1,.31256-.18113c.037.00541.0743.00971.11144.01459l.02183.00286q.10545.01355.21169.0242l.01065.00122.00277.00014c.18695.01849.37544.03114.56564.03607.01077.00028.02158,0,.03232-.00078l.10074-.00742.10149.00953a.3231.3231,0,0,0,.03233.00144,7.78574,7.78574,0,0,0,.92429-.06041.29217.29217,0,0,1,.309.18769l.29262.7756a.295.295,0,0,0,.338.18359q.36757-.07813.72466-.1858a.28993.28993,0,0,1,.10349-.03422q.35859-.11237.704-.25315a.29652.29652,0,0,0,.03506-.01811c.19317-.07951.38368-.16394.56966-.25595a.29485.29485,0,0,0,.15033-.35575l-.2578-.78817a.29219.29219,0,0,1,.12382-.34019c.0307-.0188.06074-.03852.09114-.05773l.02928-.01854q.08284-.05287.1642-.10777l.01623-.01065.00409-.00309q.234-.15882.45577-.333l.02445-.02142.076-.07354.07894-.05421.02577-.01964q.2795-.23617.536-.49818l.00249-.0023.02783-.02927c.03646-.03757.07309-.075.10881-.1133a.29218.29218,0,0,1,.35677-.0542l.74379.4179a.29489.29489,0,0,0,.37619-.07568q.22845-.29039.43359-.59985a.29515.29515,0,0,0,.02977-.06017.299.299,0,0,0,.03224-.04136q.2001-.31057.37522-.638a.297.297,0,0,0,.01987-.047c.09548-.18094.18645-.36452.2698-.55216a.29491.29491,0,0,0-.11291-.37048l-.72061-.44832a.29217.29217,0,0,1-.12338-.34149l.01321-.04085q.024-.072.04672-.14449c.00955-.03058.01875-.0613.02793-.092.00733-.02461.01528-.049.02237-.07368l.00387-.01667c.05041-.17651.09548-.35514.1334-.53624l.00508-.03249.01132-.10708.02393-.08564.007-.03083q.05268-.30231.08251-.613c.00274-.029.00392-.05769.00632-.0866l.00385-.02975c.00321-.041.00473-.08245.00733-.12361.00182-.029.00484-.05812.00634-.087a.29237.29237,0,0,1,.23845-.27156l.8578-.16162a.295.295,0,0,0,.23951-.30019Q29.06427,17.63929,29.02309,17.27836Zm-3.76716,5.871c-.01967.02171-.03986.043-.0598.06442s-.03949.04292-.05961.064l-.0221.02271q-.10824.11259-.22107.2206l-.02875.02682c-.03112.02937-.06232.05866-.094.08747s-.06371.05706-.09586.08526l-.02945.02613a7.19015,7.19015,0,0,1-2.1968,1.30576l-.02071.00784c-.03393.01255-.06815.02445-.10231.03649-.02457.00863-.049.01749-.07373.02586l-.05551.01828c-.04106.01354-.08212.02707-.12353.03989l-.01179.00356a7.1914,7.1914,0,0,1-1.59255.29855q-.08753.00639-.17468.01055c-.02835.00136-.05683.00221-.08527.00324-.02941.00109-.05885.00235-.0882.00308q-.08652.00207-.17354.0022l-.00393,0c-.0557,0-.11122-.00082-.16662-.00211l-.0559-.00173q-.0562-.00174-.11223-.00427-.05616-.00268-.11246-.00633l-.05545-.00351c-.05545-.004-.111-.00838-.1666-.01362l-.00337-.0003a7.19139,7.19139,0,0,1-1.58449-.33207l-.01229-.004c-.041-.01366-.08165-.028-.1223-.04238l-.05534-.01953c-.02441-.00886-.04859-.0182-.07288-.02731-.034-.01282-.06811-.02549-.1019-.0388l-.01992-.008a7.18973,7.18973,0,0,1-2.14875-1.33436l-.02313-.02052c-.02174-.01972-.043-.03994-.06455-.05992-.02131-.01983-.04284-.03941-.06391-.05949L14.978,23.5016q-.11257-.10821-.22057-.221l-.02673-.02864c-.02939-.03115-.05871-.06238-.08755-.09406s-.05706-.06371-.08527-.09586l-.02613-.02945a7.19038,7.19038,0,0,1-1.30561-2.1964l-.008-.02122c-.01252-.03386-.0244-.068-.03642-.10211-.00864-.0246-.0175-.04909-.02588-.07381l-.01835-.05573c-.0135-.04094-.027-.08189-.03978-.12317l-.00375-.0124a7.19165,7.19165,0,0,1-.29841-1.5921q-.00639-.08742-.01054-.17448c-.00138-.0289-.00226-.05792-.0033-.0869s-.0023-.05776-.003-.08657q-.00207-.08663-.0022-.17373l0-.00393c0-.05571.00082-.11123.0021-.16663l.00173-.05587q.00174-.05624.00427-.11227.00268-.05613.00633-.11241l.00351-.05551c.00395-.05542.00838-.11092.01362-.16652l.00031-.00344a7.19139,7.19139,0,0,1,.33227-1.58512l.00372-.01143c.01374-.04125.02819-.08216.04265-.12306l.01929-.05465c.009-.02467.01838-.04908.02759-.07362.01272-.03376.02529-.06758.0385-.10111l.00841-.02086a7.18962,7.18962,0,0,1,1.33229-2.146l.0224-.02524c.01917-.02114.03883-.04185.05826-.06277.02036-.02191.04051-.044.06115-.06569l.02075-.02131q.10888-.11331.22243-.222l.02659-.02481c.03182-.03005.06375-.06.09612-.08947.0309-.0281.06223-.05571.09361-.08327l.03171-.02813a7.19,7.19,0,0,1,2.19668-1.30566l.02072-.00785c.03393-.01254.06815-.02444.1023-.03648.02457-.00863.049-.01748.07372-.02585l.05583-.01839c.04089-.01348.08178-.02695.123-.03972L17.831,11.481a7.19156,7.19156,0,0,1,1.5919-.29835q.08742-.00639.17447-.01054c.02892-.00138.058-.00226.087-.0033.02884-.00107.05772-.00231.0865-.003q.08676-.00209.174-.0022h.003c.056,0,.11182.00083.16752.00213l.055.0017q.05666.00174.11311.0043.05571.00267.11159.00628l.05633.00357q.08272.00588.16571.01355l.00424.00037a7.19175,7.19175,0,0,1,1.58426.33205l.01228.004c.041.01366.08166.028.12231.04239l.05532.01953c.02455.0089.04886.01829.07327.02745.03383.01274.06773.02534.10133.03858l.02091.00844a7.18964,7.18964,0,0,1,2.14623,1.33252l.025.02214c.02115.01918.04185.03884.06277.05826.02191.02037.044.04052.06569.06115l.02131.02076q.11331.10887.222.22242l.02535.02717c.02984.0316.05958.0633.08885.09544.02878.03164.05706.06371.08526.09586l.02614.02946a7.19007,7.19007,0,0,1,1.3057,2.19667l.00791.02087c.01254.03392.02444.06812.03647.10227.00863.02456.01748.049.02585.07371l.01839.05584c.01348.04089.027.08178.03972.123l.00383.01266a7.19176,7.19176,0,0,1,.29835,1.59191q.00639.08742.01054.17447c.00138.02892.00226.058.00331.087.00107.02885.0023.05773.003.08651q.00207.08662.0022.17374l0,.00393c0,.05571-.00082.11123-.00211.16663l-.00173.05589q-.00173.05622-.00426.11223-.0027.05616-.00633.11247l-.00352.05545q-.00591.08316-.01362.16659l-.0003.00337a7.19091,7.19091,0,0,1-.33228,1.58513l-.00372.01143c-.01374.04126-.02819.08217-.04265.12307l-.01929.05465c-.00893.02462-.01834.049-.02753.07347-.01274.03384-.02534.06773-.03858.10133l-.00829.02055a7.18949,7.18949,0,0,1-1.33375,2.14778Z" fill="#fff"/><path d="M19.97314,16.2103a2.00548,2.00548,0,1,1-1.99474,2.00512A1.99938,1.99938,0,0,1,19.97314,16.2103Z" fill="#fff"/><path d="M20,38.03413S5.76726,27.28883,5.01389,9.39187C16.27684,6.604,20,1.96587,20,1.96587s3.72316,4.63808,14.98611,7.426C34.23273,27.28883,20,38.03413,20,38.03413Z" fill="none" stroke="#fff" stroke-width="1.2"/></g></svg>