<svg xmlns="http://www.w3.org/2000/svg" viewBox="0 0 40 40"><defs><style>.cls-1{fill:#fff;stroke:#000;}.cls-1,.cls-2{fill-rule:evenodd;}</style></defs><g id="E2A0_navigation_motorway_vignette"><g id="V2-49" data-name="V2"><path class="cls-1" d="M36.30883.5H3.69118A3.20075,3.20075,0,0,0,.5,3.69118V36.30883A3.20075,3.20075,0,0,0,3.69118,39.5H36.30883A3.20074,3.20074,0,0,0,39.5,36.30883V3.69118A3.20075,3.20075,0,0,0,36.30883.5Z"/><path class="cls-2" d="M36,35,30,5,20,5.01288,10,5,4,35ZM20,6c4.94775,0,9,2.921,9,6.50232,0,2.23431-1.44092,4.06754-3.81689,5.23368L27.33154,22H21V19H19v3H12.66846l2.21972-4.26422C12.6582,16.55627,11,14.65454,11,12.50232,11,8.921,15.05273,6,20,6ZM19,33H7l3.584-7.00824L19,26ZM8,25V23H32v2Zm13,1,8.416-.00824L33,33H21Z"/></g></g></svg>