<svg xmlns="http://www.w3.org/2000/svg" viewBox="0 0 40 40"><title>E2A3_navigation_toll_road_nar</title><g id="E2A3_navigation_toll_road_nar"><rect x="0.01196" y="10.00243" width="39.98317" height="21.00079" rx="1.14183" fill="#fde500"/><rect x="1.52796" y="11.42159" width="36.95118" height="18.16246" rx="1.02082" fill="none" stroke="#000" stroke-miterlimit="10" stroke-width="1.2"/><path d="M5.786,25.89489V16.38836H2.50106V15.24671h7.94843v1.14165H7.16457v9.50653Z"/><path d="M16.12361,26.0708a5.40672,5.40672,0,0,1-1.47193-.18489,3.88165,3.88165,0,0,1-1.156-.53133,3.54683,3.54683,0,0,1-.85983-.83649,4.61984,4.61984,0,0,1-.587-1.10036,6.50093,6.50093,0,0,1-.33746-1.32653,10.15129,10.15129,0,0,1-.10771-1.50963,9.96244,9.96244,0,0,1,.1095-1.506,6.53928,6.53928,0,0,1,.34106-1.32833,4.68716,4.68716,0,0,1,.59236-1.10753,3.56272,3.56272,0,0,1,.867-.84367,3.9705,3.9705,0,0,1,1.15959-.53672,5.30983,5.30983,0,0,1,1.47193-.18848,5.42637,5.42637,0,0,1,1.47373.18489,3.90312,3.90312,0,0,1,1.1596.53133,3.56226,3.56226,0,0,1,.86341.83649,4.57153,4.57153,0,0,1,.58877,1.10215,6.54078,6.54078,0,0,1,.33747,1.32654,10.115,10.115,0,0,1,.1077,1.50783,9.99789,9.99789,0,0,1-.1095,1.50783,6.42134,6.42134,0,0,1-.34285,1.32833,4.70816,4.70816,0,0,1-.59595,1.10575,3.5915,3.5915,0,0,1-.8688.84366,3.96356,3.96356,0,0,1-1.16318.53672A5.33419,5.33419,0,0,1,16.12361,26.0708Zm.02154-1.156a3.18766,3.18766,0,0,0,1.01061-.149,2.55135,2.55135,0,0,0,.78982-.42184,2.60719,2.60719,0,0,0,.587-.66237,4.00333,4.00333,0,0,0,.40388-.87239,5.65952,5.65952,0,0,0,.23335-1.0483,9.64435,9.64435,0,0,0,0-2.37843,5.70356,5.70356,0,0,0-.23335-1.0483,3.95194,3.95194,0,0,0-.40388-.87239,2.64884,2.64884,0,0,0-.587-.66237,2.49859,2.49859,0,0,0-.79161-.42183,3.543,3.543,0,0,0-2.02122,0,2.52085,2.52085,0,0,0-.79341.42183,2.662,2.662,0,0,0-.59056.66237,3.901,3.901,0,0,0-.40568.87239,5.607,5.607,0,0,0-.23156,1.0483,9.88431,9.88431,0,0,0,0,2.37843,5.56475,5.56475,0,0,0,.23156,1.0483,3.95114,3.95114,0,0,0,.40568.87239,2.62,2.62,0,0,0,.59056.66237,2.57041,2.57041,0,0,0,.79341.42184A3.20437,3.20437,0,0,0,16.14515,24.9148Z"/><path d="M23.26248,25.89489V15.24671h1.38218v9.51012h4.703v1.13806Z"/><path d="M31.41376,25.89489V15.24671h1.38218v9.51012h4.703v1.13806Z"/></g></svg>