<svg xmlns="http://www.w3.org/2000/svg" viewBox="0 0 40 40"><title>E2A4_navigation_highway</title><g id="E2A4_navigation_highway"><g id="g1600"><path id="path1602" d="M6.84038,1.62194a21.37229,21.37229,0,0,0,6.57984,1.0334A21.373,21.373,0,0,0,20,1.622a21.373,21.373,0,0,0,6.57978,1.03337,21.37243,21.37243,0,0,0,6.57984-1.0334,24.58334,24.58334,0,0,1,4.847,14.7612c0,11.51842-7.73263,21.12622-18.00657,23.33215C9.72606,37.50936,1.99343,27.90156,1.99343,16.38314A24.58347,24.58347,0,0,1,6.84038,1.62194Z" fill="#fff"/><path id="path1604" d="M6.84038,1.62194a21.37229,21.37229,0,0,0,6.57984,1.0334A21.373,21.373,0,0,0,20,1.622a21.373,21.373,0,0,0,6.57978,1.03337,21.37243,21.37243,0,0,0,6.57984-1.0334,24.58334,24.58334,0,0,1,4.847,14.7612c0,11.51842-7.73263,21.12622-18.00657,23.33215C9.72606,37.50936,1.99343,27.90156,1.99343,16.38314A24.58347,24.58347,0,0,1,6.84038,1.62194Z" fill="#fff"/></g><g id="g1606"><path id="path1608" d="M3.76957,17.72758a20.62936,20.62936,0,0,1,.68308-5.28065H35.54738A20.59314,20.59314,0,0,1,20,37.8325,20.547,20.547,0,0,1,3.76957,17.72758Z" fill="#3872b7"/></g><g id="g1610"><path id="path1612" d="M5.05817,10.00243A22.86544,22.86544,0,0,1,8.12125,3.40578a19.85252,19.85252,0,0,0,5.7823.858A19.85255,19.85255,0,0,0,20,3.30751a19.85255,19.85255,0,0,0,6.09645.95624,19.85288,19.85288,0,0,0,5.78233-.858,22.867,22.867,0,0,1,3.06305,6.59665Z" fill="#e42221"/></g></g></svg>