<svg xmlns="http://www.w3.org/2000/svg" viewBox="0 0 40 40"><defs><style>.cls-1,.cls-2{fill:#fff;}.cls-1{fill-rule:evenodd;}</style></defs><g id="Icon"><g id="V2"><path class="cls-1" d="M32.81836,24.9082a7.784,7.784,0,0,0-4.20917,1.009L26.96155,24.348l-2.57123,6.94855,6.67078-3.04413-1.53662-1.4635a6.82812,6.82812,0,0,1,3.24017-.68146,5.90632,5.90632,0,0,1,5.6289,6.16016,5.98615,5.98615,0,0,1-6.17578,5.63183,5.395,5.395,0,0,1-3.877-1.70214,6.52749,6.52749,0,0,1-1.46478-2.4621l-1.09528.49994a7.6851,7.6851,0,0,0,1.6958,2.79321,6.566,6.566,0,0,0,4.72559,2.07031c.03515.001.07031.001.10644.001a7.10057,7.10057,0,0,0,.50977-14.19141Z"/><path class="cls-2" d="M21.81226,28.90039H15.7876l-9.6875,7.8418v-7.8418H1.2002V10.1001H34.90039V22.29541a9.889,9.889,0,0,1,1.19922.38477V8.8999H0V30.09961H4.8999v9.1582l11.3125-9.1582h5.15607Z"/></g></g></svg>