<svg xmlns="http://www.w3.org/2000/svg" viewBox="0 0 40 40"><defs><style>.cls-1{fill:#fff;fill-rule:evenodd;}.cls-1,.cls-2{stroke:#000;}.cls-2{fill:none;stroke-miterlimit:10;stroke-width:1.2px;}</style></defs><g id="E2B9_navigation_toll_road_asia"><path class="cls-1" d="M36.30883.5H3.69118A3.20075,3.20075,0,0,0,.5,3.69118V36.30883A3.20075,3.20075,0,0,0,3.69118,39.5H36.30883A3.20074,3.20074,0,0,0,39.5,36.30883V3.69118A3.20075,3.20075,0,0,0,36.30883.5Z"/><polyline class="cls-2" points="22 17.5 4.5 17.5 4.5 3.5 31.5 3.5 31.5 9"/><circle cx="28" cy="7" r="1.5"/><circle cx="8" cy="14" r="1.5"/><circle class="cls-2" cx="17.91832" cy="10.42288" r="4.90498"/><circle cx="17.98743" cy="8.93264" r="1.02533"/><path d="M17.91823,10.92167a4.89643,4.89643,0,0,0-4.08936,2.20306,4.89681,4.89681,0,0,0,8.17871,0A4.89641,4.89641,0,0,0,17.91823,10.92167Z"/><path d="M22.958,13.22852v2.36865c0,1.67187,3.03711,2.54687,6.03808,2.54687s6.03809-.875,6.03809-2.54687V13.22852C35.03418,9.88477,22.958,9.88477,22.958,13.22852Zm6.03808-1.34668c3.19239,0,4.83887.94384,4.83887,1.34668s-1.64648,1.34716-4.83887,1.34716-4.83886-.94433-4.83886-1.34716S25.80371,11.88184,28.99609,11.88184Zm0,5.062c-3.19238,0-4.83886-.94385-4.83886-1.34668v-.78638a10.8035,10.8035,0,0,0,4.83886.96509,10.80351,10.80351,0,0,0,4.83887-.96509v.78638C33.835,16,32.18848,16.94385,28.99609,16.94385Z"/><path d="M34.48242,15.4043l-.31054,1.15918c1.31542.35205,1.74121.8125,1.74121.98047,0,.40283-1.64649,1.34716-4.83887,1.34716s-4.83887-.94433-4.8086-1.43994l-1.04492-.58789a1.3682,1.3682,0,0,0-.18457.68067v2.127c0,1.67187,3.03711,2.54687,6.03809,2.54687s6.03808-.875,6.03808-2.54687V17.544C37.1123,16.61816,36.17871,15.8584,34.48242,15.4043Zm-3.4082,5.61328c-3.19238,0-4.83887-.94385-4.83887-1.34668v-.54468a10.80354,10.80354,0,0,0,4.83887.96509,10.80354,10.80354,0,0,0,4.83887-.96509v.54468C35.91309,20.07373,34.2666,21.01758,31.07422,21.01758Z"/><line class="cls-2" x1="16.99036" y1="18.9869" x2="3.99355" y2="36.99954"/><line class="cls-2" x1="36.00063" y1="36.99954" x2="33.86682" y2="23.97502"/><line class="cls-2" x1="23.27276" y1="27.94644" x2="24.08771" y2="23.79509"/><line class="cls-2" x1="21.47652" y1="37.09634" x2="22.86097" y2="30.04403"/></g></svg>