<svg xmlns="http://www.w3.org/2000/svg" viewBox="0 0 40 40"><defs><style>.cls-1{fill:#fff;fill-rule:evenodd;}.cls-1,.cls-2,.cls-3{stroke:#000;}.cls-2,.cls-3{fill:none;stroke-width:1.2px;}.cls-2{stroke-miterlimit:10;}</style></defs><g id="E2BA_navigation_seasonal_restriction_asia"><g id="V3-5" data-name="V3"><path class="cls-1" d="M36.30883.5H3.69118A3.20075,3.20075,0,0,0,.5,3.69118V36.30883A3.20075,3.20075,0,0,0,3.69118,39.5H36.30883A3.20074,3.20074,0,0,0,39.5,36.30883V3.69118A3.20075,3.20075,0,0,0,36.30883.5Z"/><path d="M26,11V5h2v6ZM19,5h2v6H19ZM12,5h2v6H12Z"/><line class="cls-2" x1="12" y1="19.5" x2="28" y2="19.5"/><line class="cls-2" x1="8.25" y1="14.5" x2="31.25" y2="14.5"/><line class="cls-2" x1="12" y1="23.5" x2="28" y2="23.5"/><line class="cls-2" x1="12" y1="27.5" x2="21" y2="27.5"/><path class="cls-3" d="M11,8.5A2.5,2.5,0,0,0,8.5,11V32.5h23V11A2.5,2.5,0,0,0,29,8.5"/><line class="cls-3" x1="15" y1="8.5" x2="18" y2="8.5"/><line class="cls-3" x1="22" y1="8.5" x2="25" y2="8.5"/></g></g></svg>