<?xml version="1.0" encoding="UTF-8"?>
<svg id="Layer_1" data-name="Layer 1" xmlns="http://www.w3.org/2000/svg" viewBox="0 0 40 40">
  <defs>
    <style>
      .cls-1 {
        fill: #fff;
      }

      .cls-2 {
        fill: none;
        stroke: #fff;
        stroke-miterlimit: 10;
        stroke-width: 1.2px;
      }
    </style>
  </defs>
  <path class="cls-1" d="m10.86551,30.94873l.04584.72683c-.06746,1.04965-.37781,2.06928-.90658,2.97851-.35557.6453-.65271,1.06262-.9424,1.49592h1.41054s.79414-1.33941.97467-1.70393c.43017-.84623.69226-1.7678.7718-2.71375.00028-.45383-.0319-.9071-.09629-1.35634l-.05479-.30048-.31705-.76866-.17515-.46651c-.1411-.37602-.29301-.74873-.44326-1.11812-.18101-.44409-.35866-.8832-.51469-1.31484-.32006-.78111-.49961-1.61262-.5304-2.4562.00512-.55833.0694-1.11454.19173-1.65933l.04316-.1785.54537-1.35883.44824-1.12725c.51285-1.13882.81383-2.36159.88818-3.60834-.06696-1.0941-.3158-2.1694-.73628-3.18169l-.12532-.33781-.4167-.80102-.1768-.46318c-.38442-.94748-.61964-1.94882-.69727-2.96836.05929-1.64864.71787-3.21906,1.85226-4.41685h-1.51241c-.21665.2623-.4233.51963-.61509.77364-.22196.28839-.42017.59431-.59267.91474-.37892.85902-.56791,1.78972-.55405,2.7285.07218,1.30643.39603,2.58662.95376,3.77022l.14526.34365.43745.79107.16768.48974c.2816.75491.43398,1.55188.45073,2.35742-.03763.97065-.24205,1.92759-.6043,2.8289-.12285.33286-.25566.67652-.3893,1.02515-.22661.58687-.45737,1.18701-.65161,1.75893l-.05147.15025-.43495,1.37378.01411.71304c.05436,1.00203.27863,1.98753.66323,2.9144.12285.31626.25401.63086.38516.94463.26396.63085.53706,1.28413.73959,1.94321l.09961.3229.31045.95456Z"/>
  <path class="cls-2" d="m21.73383,20.04505c-.00551-5.24608.90619-10.45272,2.69392-15.3848,8.44455,2.71907,13.08597,11.76897,10.3669,20.21352-1.59213,4.94465-5.47713,8.81414-10.4281,10.38648-1.74725-4.88227-2.63792-10.0297-2.63272-15.2152Z"/>
  <polygon class="cls-1" points="4.18793 33.52295 16.93861 26.39635 16.93861 27.77066 4.18793 34.89814 4.18793 33.52295"/>
  <polygon class="cls-1" points="4.18793 24.42031 16.93861 17.29107 16.93861 18.66637 4.18793 25.79551 4.18793 24.42031"/>
  <polygon class="cls-1" points="4.18793 15.31509 16.93861 8.1859 16.93861 9.56114 4.18793 16.69033 4.18793 15.31509"/>
</svg>