<svg xmlns="http://www.w3.org/2000/svg" viewBox="0 0 40 40"><defs><style>.cls-1,.cls-3{fill:none;stroke:#fff;stroke-width:1.2px;}.cls-1{stroke-miterlimit:10;}.cls-1,.cls-2{fill-rule:evenodd;}.cls-2{fill:#fff;}</style></defs><g id="E2CA_shop_licence_invalid"><g id="_1-8" data-name="1"><path class="cls-1" d="M38,25.96516,25,39"/><path class="cls-1" d="M25,25.96516,38,39"/><path class="cls-2" d="M32.28549,22.44868c-1.62624-1.74171.10814-4.93889-.3529-5.93822-.46185-.99932-2.70118-2.08972-3.25-3.60537-.30248-.83345.41713-3.27444,1.44085-3.42812,1.02372-.15449,3.28257,6.10328,3.38583,6.83346C33.61331,17.04143,32.562,22.74465,32.28549,22.44868ZM19.18292,30.81445a5.82557,5.82557,0,0,0-2.40684,1.80513c-.10815.43827-1.33921.196-2.57027-.63586-.6383-.431-.40819-1.51-1.64169-1.771-1.675-.3537-3.716-.95867-3.61107-3.61025.02846-.71067-.00651.396,2.51742-1.31156.9481-.64156-.02358-2.6711,4.01275-2.27918,1.14731.1114.88955,2.9004,1.35222,3.67531,2.51335,4.21358,5.02833.94322,6.348,2.32227C24.04537,29.90945,20.16679,30.70956,19.18292,30.81445ZM16.2374,9.90676c-.56512.63424-2.30276,3.3525-1.72707,3.71515-4.00136-2.515-5.84308-2.58654-5.85609,2.267-.00244,1.07088.23337,2.63451-.57162,2.69793-.80418.06342-2.33285-3.70864-2.267-4.577.21466-2.79632.33907-6.52855.33907-6.52855L8.62253,4.81338l6.02226-3.07847s-.554,2.77109-.18079,3.62732,4.43558,1.088,5.25357,1.07739c.818-.01139,2.43936.51552,2.52474,1.74251C22.32686,9.40913,16.61469,9.48313,16.2374,9.90676Z"/><path class="cls-3" d="M37.28906,22A17.93077,17.93077,0,1,0,19.62354,36.91406c.46484,0,.92041-.03491,1.37646-.06958"/></g></g></svg>