<svg xmlns="http://www.w3.org/2000/svg" viewBox="0 0 40 40"><defs><style>.cls-1,.cls-2{fill:#fff;}.cls-2{stroke:#fff;stroke-miterlimit:10;stroke-width:0.2px;}</style></defs><g id="E2EE_error_linkstuer"><g id="V2-5" data-name="V2"><path class="cls-1" d="M21.54791,3.2168c1.95969.05633,5.04434.58,5.96955,1.58026a10.93835,10.93835,0,0,1,1.29443,3.43683c.23138,1.274.24347,12.3136.19717,19.0158a26.73567,26.73567,0,0,1-.22555,5.35022,5.61153,5.61153,0,0,0-.24759.94556c-.24954,1.21686-.5192,2.17816-1.4989,2.54242a18.045,18.045,0,0,1-5.07678.72839l-.20536-.00116-.18408-.00134-.02566-.00049-.02445.00049-.198.00147-.19143.001a18.04158,18.04158,0,0,1-5.0763-.72839c-1.01236-.37616-1.32181-1.40338-1.59521-2.60657-.06165-.27124-.11652-.51269-.18906-.72961-.157-1.09692-.25729-3.0426-.2894-4.5517H16.2V19.17719l-.05118-.16962L13.99,11.85474c.01175-.60694.05945-2.5705.1984-3.6269a11.16412,11.16412,0,0,1,1.37847-3.423c.65519-.71612,2.55036-1.2962,4.98508-1.52124.519-.048.89316-.06329.99594-.06683m-.00219-1.2005s-.43937.01092-1.10428.07245c-1.65439.15289-4.7038.61846-5.84589,2.00506a12.39494,12.39494,0,0,0-1.58987,3.92554c-.18232,1.32586-.21875,4.00232-.21875,4.00232L15,19.35431V27H12.771a49.9614,49.9614,0,0,0,.33041,6.04657c.32132.80121.38168,3.40106,2.57931,4.18207a19.25219,19.25219,0,0,0,5.45054.78766q.10286,0,.20532-.00116c.13492,0,.2092-.00159.2092-.00159s.07425.00159.20913.00159c.06836.00067.137.00116.20536.00116a19.25537,19.25537,0,0,0,5.451-.78766c2.19715-.781,2.1648-3.38086,2.48609-4.18207.44708-1.11346.31128-5.83136.31128-5.83136s.12167-17.33636-.216-19.19574a12.19066,12.19066,0,0,0-1.49673-3.92566C26.89529,2.15009,21.54572,2.0163,21.54572,2.0163Z"/><path class="cls-1" d="M21.4477,9.42326a13.47309,13.47309,0,0,0-5.54754,1.05814l1.59995,5.59984a12.68593,12.68593,0,0,1,3.94893-.65439,13.39377,13.39377,0,0,1,4.05083.65439l1.6-5.59984A14.03082,14.03082,0,0,0,21.4477,9.42326Z"/><path class="cls-1" d="M27.41675,30.48079C27.14544,29.42643,26,25.03176,26,25.03176V18.83749s.89158-2.32608,1.41675-3.55624Z"/><path class="cls-1" d="M21.45,29.07438a27.255,27.255,0,0,1-3.94987-.19356l-.8,4.79984a14.60575,14.60575,0,0,0,4.74758.8,15.30334,15.30334,0,0,0,4.85212-.8l-.8-4.79984A28.72869,28.72869,0,0,1,21.45,29.07438Z"/><path class="cls-2" d="M12.33878,15.93368,4.0625,22.9525a.29943.29943,0,0,1-.42031-.04809l-.6344-.7541a.29939.29939,0,0,1,.02444-.42225l8.83315-7.4396Z"/></g></g></svg>