<svg xmlns="http://www.w3.org/2000/svg" viewBox="0 0 40 40"><g id="E2F4_pdc_off"><g id="E2F4_pdc_off-2" data-name="E2F4 pdc off"><path d="M10.6,18.8H6.8v15H8.2V27.3h2.3c3.8,0,6-1,6-4.5C16.4,19.2,13.6,18.8,10.6,18.8Zm1.1,7.1H8.2V20.2h3.5s3.4-.3,3.4,2.8C15.1,25.9,11.7,25.9,11.7,25.9Z" fill="#fff"/><path d="M16.8,28h0a6.29866,6.29866,0,0,0,2.5-5v-.1h1.2V23a6.88379,6.88379,0,0,1-2.7,5.8l-.1.1Z" fill="#fff"/><path d="M18.9,30.2h0A8.94088,8.94088,0,0,0,22.2,23v-.1h1.2V23a9.81784,9.81784,0,0,1-3.5,8l-.1.1Z" fill="#fff"/><path d="M21.1,32.4h0A11.45994,11.45994,0,0,0,25.2,23v-.1h1.2V23A12.86726,12.86726,0,0,1,22,33.2l-.1.1Z" fill="#fff"/><path d="M26.4,35.8h7.2c.2,0,.4-.1.4-.3v-.1l-.3-1.2H26.4l-.3,1.2v.1A.26517.26517,0,0,0,26.4,35.8Z" fill="#fff"/><path d="M29.3,23.2a.85786.85786,0,0,1,.7-.6.752.752,0,0,1,.7.5l2.2,9.5H27.1Z" fill="none" stroke="#fff" stroke-width="1.2"/><path d="M17.9,16V4.2h6.9V5.7H19.4v4h4.9v1.5H19.4V16Z" fill="#fff"/><path d="M26.7,16V4.2h6.9V5.7H28.2v4h4.9v1.5H28.2V16Z" fill="#fff"/><path d="M11.1,16c-3.6,0-4.6-3.2-4.6-5.9s1-6,4.6-6,4.6,3,4.6,5.9S14.7,16,11.1,16Zm.1-1.4c2,0,3.1-1.6,3.1-4.5s-1.5-4.6-3.1-4.6S8,6.9,8,10,9.2,14.6,11.2,14.6Z" fill="#fff"/></g></g></svg>