<?xml version="1.0" encoding="UTF-8"?>
<svg id="Ebene_1" data-name="Ebene 1" xmlns="http://www.w3.org/2000/svg" viewBox="0 0 40 40">
  <defs>
    <style>
      .cls-1 {
        fill: #fff;
      }

      .cls-2, .cls-3 {
        stroke-width: 1.2px;
      }

      .cls-2, .cls-3, .cls-4 {
        fill: none;
        stroke: #fff;
      }

      .cls-2, .cls-4 {
        stroke-linejoin: round;
      }

      .cls-3 {
        stroke-miterlimit: 10;
      }

      .cls-4 {
        stroke-width: 1.2px;
      }
    </style>
  </defs>
  <g id="E2F8_parking_remote" data-name="E2F8 parking remote">
    <path class="cls-1" d="M6.22046,26.43157s-1.6,1.1-2.7,0c-.62126-.59707-.78321-1.52824-.4-2.3l8,.8-2.2,1.5h-2.7Z"/>
    <path class="cls-3" d="M18.16669,21.38165c-6.548,.0008-12.99762,.10053-13.34626,.24994-1.2001,.76884-2.27866,1.71258-3.2,2.8q-.1,.1-.1,.2v8.8c0,1.5-.3,3,1,3h3c.8,0,1-.3,1-1v-1h11.64626"/>
    <path class="cls-3" d="M3.82043,22.23157s3.7-7.1,4.9-7.3c3.13573-.35364,6.29109-.50375,9.44623-.4494"/>
    <path class="cls-3" d="M18.16669,32.53156h-4.54621c-2.4-.1-3.2-4.9-3.2-4.9l1.9-2.1h5.84626"/>
    <circle class="cls-1" cx="29.38768" cy="25.43183" r="1.13111"/>
    <path class="cls-2" d="M31.76455,21.98405c-1.44941-.9259-3.30458-.92585-4.75395,.00011"/>
    <path class="cls-2" d="M33.87074,18.90381c-2.70371-1.84621-6.26276-1.84613-8.96638,.00022"/>
    <path class="cls-2" d="M35.95858,15.85027c-3.9328-2.79903-9.20788-2.7963-13.13778,.00681"/>
  </g>
  <line class="cls-4" x1="25.00616" y1="33.499" x2="34.0012" y2="33.499"/>
  <line class="cls-4" x1="27.05474" y1="6.499" x2="31.98338" y2="6.499"/>
  <path class="cls-4" d="M37.27655,37.499h-15.55c-.66,0-1.225-.665-1.225-1.325V3.824c0-.66,.565-1.325,1.225-1.325h15.55c.66,0,1.225,.665,1.225,1.325V36.174c0,.66-.565,1.325-1.225,1.325Z"/>
</svg>