<svg id="Hilfe" xmlns="http://www.w3.org/2000/svg" viewBox="0 0 40 40"><defs><style>.cls-1,.cls-2{fill:#fff;}.cls-2{fill-rule:evenodd;}</style></defs><polygon class="cls-1" points="21.011 11.67 20.01 11.67 20.241 8.54 20.818 8.54 21.011 11.67"/><polygon class="cls-1" points="22.12 31 18.9 31 19.383 24.403 21.637 24.403 22.12 31"/><polygon class="cls-1" points="7.26 20 5.124 20 7.807 15 9.039 15 7.26 20"/><polygon class="cls-1" points="10.337 11.67 9.315 11.666 10.897 8.538 11.486 8.54 10.337 11.67"/><polygon class="cls-1" points="3.286 31 0 31 3.261 24.284 5.561 24.295 3.286 31"/><polygon class="cls-1" points="32.74 20 34.876 20 32.193 15 30.961 15 32.74 20"/><polygon class="cls-1" points="29.663 11.67 30.685 11.666 29.116 8.54 28.526 8.543 29.663 11.67"/><polygon class="cls-1" points="36.713 31 40 31 36.739 24.284 34.439 24.295 36.713 31"/><polygon class="cls-1" points="21.401 18.157 21.154 15 19.947 15 19.705 17.583 21.401 18.157"/><path class="cls-2" d="M29.71967,23.54663a1.89932,1.89932,0,0,0-1.0868-1.21735L15.21869,17.78369a.41765.41765,0,0,1-.318-.44543L15.40906,15h3.57159l-3.88733-2.72339L10.40094,15h3.33392L12.869,17.89319A1.09393,1.09393,0,0,0,13.3399,19.03l12.717,4.69257a.73192.73192,0,0,1,.483.6192L27.30817,29H30.8869Z"/></svg>