<?xml version="1.0" encoding="UTF-8"?>
<svg id="Ebene_1" data-name="Ebene 1" xmlns="http://www.w3.org/2000/svg" viewBox="0 0 40 40">
  <defs>
    <style>
      .cls-1, .cls-2 {
        fill: #fff;
      }

      .cls-2 {
        fill-rule: evenodd;
      }
    </style>
  </defs>
  <path class="cls-2" d="m2.93545,18.3798h4.35107c.37129,0,4.06462.10008,4.06462-3.58673s-3.69333-3.665-4.06462-3.665H2.93545v7.25173ZM.03474,29.98265V8.95249h6.5266c4.06466-.17837,7.24671,1.18563,7.24671,5.87684,0,4.4845-3.21182,5.63681-7.24671,5.726h-3.62589v9.42731H.03474Z"/>
  <path class="cls-1" d="m33.97198,14.70498l2.57825,10.50984h-5.15615l2.5779-10.50984m.00298-1.81412c-.46016,0-.84885.33643-.99181.80432l-3.11897,12.71964h8.21602l-3.13838-12.7931c-.15662-.42928-.53164-.73086-.96686-.73086h0Z"/>
  <path class="cls-2" d="m28.72525,29.91853h10.50733c.29008,0,.5259-.23582.5259-.52214,0-.05802-.00772-.10831-.02317-.1584l-.41185-1.4116h-10.68732l-.41185,1.4116c-.01544.0501-.02317.10039-.02317.1584,0,.28632.23602.52214.52412.52214Z"/>
  <path class="cls-2" d="m17.3418,15.29599c0,2.47961-1.14252,4.78748-2.87689,6.34515l.83691.83838c1.95477-1.78058,3.2392-4.38507,3.2392-7.18353,0-.1001-.01178-.1972-.01501-.29651h-1.19922c.00372.09918.01501.19641.01501.29651Z"/>
  <path class="cls-2" d="m21.84277,15.29599c0,3.74255-1.6427,7.16284-4.19318,9.53534l.84192.84344c2.76941-2.5921,4.55048-6.31091,4.55048-10.37878,0-.1001-.01282-.19696-.01501-.29651h-1.19922c.00238.09955.01501.19641.01501.29651Z"/>
  <path class="cls-2" d="m27.52698,14.99948h-1.19922c.00177.09967.01501.19641.01501.29651,0,4.96228-2.16174,9.50409-5.53394,12.70013l.84222.84369c3.59113-3.41522,5.89093-8.25623,5.89093-13.54382,0-.1001-.01337-.19678-.01501-.29651Z"/>
</svg>