<svg xmlns="http://www.w3.org/2000/svg" viewBox="0 0 40 40"><g id="E329_RCTA"><path d="M12.87767,29.5753a4.83882,4.83882,0,0,1-1.92444-3.84606v-.13787H9.49947v.13787a6.31789,6.31789,0,0,0,2.29012,4.8615l.09115.0758,1.13143-.9873Z" fill="#fff"/><path d="M8.46406,33.69953l1.10417-.96239L9.45486,32.632a9.31086,9.31086,0,0,1-3.04342-6.90274v-.13787H4.95607v.13787A10.77231,10.77231,0,0,0,8.37278,33.613Z" fill="#fff"/><path d="M5.07,36.70882l1.10013-.95849-.10576-.10381A13.83006,13.83006,0,0,1,1.8951,25.72924v-.13787H.44135v.13787A15.284,15.284,0,0,0,4.9783,36.6174Z" fill="#fff"/><path d="M27.12233,29.5753a4.83882,4.83882,0,0,0,1.92444-3.84606v-.13787h1.45376v.13787a6.31789,6.31789,0,0,1-2.29012,4.8615l-.09115.0758-1.13143-.9873Z" fill="#fff"/><path d="M31.53594,33.69953l-1.10417-.96239.11337-.10516a9.31086,9.31086,0,0,0,3.04342-6.90274v-.13787h1.45537v.13787A10.77231,10.77231,0,0,1,31.62722,33.613Z" fill="#fff"/><path d="M34.93,36.70882l-1.10013-.95849.10576-.10381a13.83006,13.83006,0,0,0,4.16926-9.91728v-.13787h1.45375v.13787A15.284,15.284,0,0,1,35.0217,36.6174Z" fill="#fff"/><path d="M19.77481,37.51012,15.19974,33.357h2.49187V30.03451h4.15312V33.357H24.3366Z" fill="#fff" fill-rule="evenodd"/><path d="M25.71982,24.02468a3.34706,3.34706,0,0,1-1.959,2.77953,11.37056,11.37056,0,0,1-3.73648.55451l-.27929-.00057a13.45954,13.45954,0,0,1-3.98917-.55394,3.26079,3.26079,0,0,1-1.918-2.7697,15.55768,15.55768,0,0,1-.292-2.95357S13.50021,6.51837,13.55052,6.183a6.17292,6.17292,0,0,1,1.13736-1.9995c1.183-1.64563,4.6628-1.69362,5.05542-1.69362.38047,0,3.75152.04568,5.0265,1.61787.06765.08442.14687.17289.23071.266a2.89872,2.89872,0,0,1,.96622,1.8243v14.5857A19.26025,19.26025,0,0,1,25.71982,24.02468Z" fill="none" stroke="#fff" stroke-miterlimit="10" stroke-width="1.3" fill-rule="evenodd"/><path d="M22.166,12.23451a8.907,8.907,0,0,0-2.41787-.29775,8.6157,8.6157,0,0,0-2.37727.29775l-.26892.07943-.7067-3.73773.17594-.09061a7.18655,7.18655,0,0,1,3.17695-.73731,7.39651,7.39651,0,0,1,3.217.73731l.17594.09061L22.435,12.31394Z" fill="#fff" fill-rule="evenodd"/><path d="M17.65451,19.95534a15.17846,15.17846,0,0,0,4.18259,0l.24008-.03766.49075,3.63122-.18771.06709a8.02034,8.02034,0,0,1-2.63441.51193,8.02035,8.02035,0,0,1-2.63442-.51193l-.1883-.06709.49134-3.63122Z" fill="#fff" fill-rule="evenodd"/></g></svg>