<svg xmlns="http://www.w3.org/2000/svg" viewBox="0 0 40 40"><defs><style>.cls-1,.cls-2{fill:#fff;}.cls-1{fill-rule:evenodd;}</style></defs><g id="neu"><path id="Version_4-2" data-name="Version 4-2" class="cls-1" d="M20.98734,31.00924h12.01v1.985h-12.01v1.77331l-3.47207-2.80579,3.47207-2.80579Z"/><path class="cls-2" d="M27.2886,17.16488a17.977,17.977,0,0,1,3.5306.31727,13.65761,13.65761,0,0,1,2.9825,1.315,13.43949,13.43949,0,0,0,2.368,1.09929l.0596.02089.06146.01451a11.12519,11.12519,0,0,0,1.104.20278c.77214.11072.83519.149.97044.60706a9.3281,9.3281,0,0,1,.4344,2.81753,2.41518,2.41518,0,0,1-.9834.17032l-.07763.002-.73458.01863-.31733.66277-.03609.07543a2.21369,2.21369,0,0,1-1.04812,1.05081,2.1864,2.1864,0,0,1-.94575.21473A2.216,2.216,0,0,1,32.666,24.505l-.03341-.07224-.322-.69628H20.07787l-.32106.69933-.02611.05714a2.21358,2.21358,0,0,1-1.05887,1.05214,2.18792,2.18792,0,0,1-.93334.20877,2.22028,2.22028,0,0,1-2.00442-1.27729l-.03292-.06978-.31545-.66865-.73907-.019-1.00506-.02573a1.32811,1.32811,0,0,1-.33233-.04424.926.926,0,0,1-.01015-.14733l0-.047-.00372-.04682a1.74541,1.74541,0,0,1,.36423-1.21946c.25945-.31737.55351-.67709,2.30955-1.04646.76317-.1603,2.88177-.44771,3.671-.54971l.35782-.04594.27316-.23564.16558-.14353c.231-.18749.49008-.41909.73939-.64326a8.95376,8.95376,0,0,1,3.03282-2.05535,12.90345,12.90345,0,0,1,3.07975-.30385h0m0-1.2a13.96344,13.96344,0,0,0-3.3938.34568,9.78686,9.78686,0,0,0-3.52113,2.32121c-.23389.21031-.47663.428-.69331.60388l-.19311.16658-.03832.00492c-.02653.00343-2.758.35722-3.72652.56065-1.82444.38376-2.45928.80976-2.99193,1.46132a2.96088,2.96088,0,0,0-.6314,2.074c.001.913.47809,1.3547,1.50161,1.38958l1.01516.026.03292.06978a3.40844,3.40844,0,0,0,6.16566.01966l.03294-.07175h10.696l.03341.07224a3.40775,3.40775,0,0,0,6.15877-.00786l.0334-.06978.07765-.002c.97438-.0226,2.13892-.2673,2.15316-1.30506a10.55435,10.55435,0,0,0-.49038-3.244c-.35526-1.20532-1.16306-1.32128-1.94434-1.43331a9.97777,9.97777,0,0,1-.99845-.18279A12.20919,12.20919,0,0,1,34.41053,17.763a14.83616,14.83616,0,0,0-3.28576-1.44216,18.78181,18.78181,0,0,0-3.83616-.356Z"/><path class="cls-2" d="M9.01819,20.27474c-.35527-1.20532-1.16307-1.32128-1.94433-1.43332a9.97805,9.97805,0,0,1-.99847-.18276,12.20852,12.20852,0,0,1-2.1561-1.00094A14.83717,14.83717,0,0,0,.63352,16.21556C.43978,16.17154.22511,16.132,0,16.09539v1.24922c.12589.023.24664.04714.35935.0728A14.3563,14.3563,0,0,1,3.337,18.74461a12.40022,12.40022,0,0,0,2.44554,1.11295,11.03781,11.03781,0,0,0,1.11147.20291c.73409.10564.81076.117.94195.56264a9.30651,9.30651,0,0,1,.43926,2.74526l.001.08844-.08353.03046a3.25874,3.25874,0,0,1-1.05544.10713H7.11267a1.35293,1.35293,0,0,0-.13806.00247l-.63632.00048a2.18088,2.18088,0,0,1-4.34958,0H0v1.23382H1.05216l.03341.07224a3.40774,3.40774,0,0,0,6.15877-.0079l.03342-.06976.07766-.002c.97437-.02263,2.13889-.26733,2.15315-1.30509A10.555,10.555,0,0,0,9.01819,20.27474Z"/><path class="cls-1" d="M10.43157,17.81041l2.94708-4.42062H18.536L14.75424,10.109l.7227-6.08954-3.1441,4.54737L9.578,6.21477l.55943,4.17637-5.383,2.00145,5.47577,1.36895Z"/></g></svg>