<svg xmlns="http://www.w3.org/2000/svg" viewBox="0 0 40 40"><g id="E34B_Assistent_offline"><line x1="5.24642" y1="35.28944" x2="35.66382" y2="4.83194" fill="none" stroke="#fff" stroke-miterlimit="10" stroke-width="1.2"/><path d="M15.49951,27.87952l-1.19971,1.2H26.39355c5.24561,0,10.84229-.52466,10.84229-6.78943a6.38285,6.38285,0,0,0-6.38037-6.18494,7.92473,7.92473,0,0,0-1.3418.1189l-.11523.0199-.04737-.10694a9.42,9.42,0,0,0-.75048-1.35864l-.86914.86926a8.21815,8.21815,0,0,1,.62646,1.21924l.30469.75488.81689-.16894a6.76006,6.76006,0,0,1,1.376-.14771,5.16312,5.16312,0,0,1,5.18017,4.985c0,4.12683-2.52294,5.58948-9.64209,5.58948Z" fill="#fff"/><path d="M21.13574,11.81873a7.34579,7.34579,0,0,1,3.89405,1.09021l.873-.8733a8.50514,8.50514,0,0,0-4.76709-1.41687c-3.47461,0-7.21777,2.19507-8.34521,4.89319l-.042.10157-.10987-.01c-.69531-.0636-1.456-.08728-1.77246-.08728l-.40674.001c-3.95752,0-7.30078,3.10608-7.30078,6.78259a7.06873,7.06873,0,0,0,5.84863,6.63147l1.07129-1.07116A5.90148,5.90148,0,0,1,4.35889,22.2998c0-3.02612,2.79394-5.58264,6.10107-5.58264l.40674-.001c.38818,0,1.24512.03491,1.8457.10046l.79151.10632.31982-.75854C14.582,14.06946,17.70312,11.81873,21.13574,11.81873Z" fill="#fff"/></g></svg>