<svg id="Icon" xmlns="http://www.w3.org/2000/svg" viewBox="0 0 40 40"><defs><style>.cls-1{fill:none;stroke:#fff;stroke-miterlimit:10;stroke-width:1.2px;}.cls-2{fill:#fff;}</style></defs><g id="V1"><path class="cls-1" d="M37.61643,21.14429c0,1.52377-10.53133,5.99631-19.39982,5.99631A22.89879,22.89879,0,0,1,4.86726,23.35522c-.80462-.47549-2.72478.21984-2.72478-1.30392s11.726-3.218,15.51985-3.218C26.6232,18.83334,37.61643,20.79485,37.61643,21.14429Z"/><path class="cls-2" d="M15.68912,27.06774c.79612.0472,1.636.07283,2.52728.07283a22.98,22.98,0,0,0,2.74915-.17661A8.69151,8.69151,0,0,0,26.86969,19.439c-1.487-.17282-3.03795-.32365-4.59482-.43185a4.15626,4.15626,0,0,1-8.29.01863c-1.49119.13593-3.07458.33765-4.58472.58467A8.75453,8.75453,0,0,0,15.68912,27.06774Z"/><path class="cls-1" d="M2.14248,18.18981c2.02816-2.02817,6.559-5.66374,15.51985-5.66374s18.1065,4.50918,20.48015,6.58773"/></g></svg>