<svg xmlns="http://www.w3.org/2000/svg" viewBox="0 0 40 40"><g id="E35A_LGI_Pannenfahrzeug"><path d="M1.85,37.6a1.50387,1.50387,0,0,1-1.1-.4,1.74621,1.74621,0,0,1-.7-1.4,1.88389,1.88389,0,0,1,.2-.8L18.55,3.3a1.85862,1.85862,0,0,1,1.5-.9,1.6498,1.6498,0,0,1,1.5.9l18.2,31.6a1.48611,1.48611,0,0,1,.2.9,1.97434,1.97434,0,0,1-.6,1.4,1.50387,1.50387,0,0,1-1.1.4Z" fill="#fff"/><path d="M1.85,37.1a1.1355,1.1355,0,0,1-.8-.3,1.23077,1.23077,0,0,1-.5-1,1.07822,1.07822,0,0,1,.2-.7L18.95,3.6a1.30833,1.30833,0,0,1,2.2,0l18.2,31.6a1.42132,1.42132,0,0,1,.2.6,1.38859,1.38859,0,0,1-.5,1,1.32984,1.32984,0,0,1-.8.3Z" fill="red"/><polygon points="6.15 33.3 20.05 9.3 33.95 33.3 6.15 33.3" fill="#fff"/><line x1="16.05" y1="25.21413" x2="12.77595" y2="25.21413" fill="none" stroke="#000" stroke-miterlimit="10" stroke-width="0.75"/><line x1="27.37427" y1="25.21413" x2="24.0517" y2="25.21413" fill="none" stroke="#000" stroke-miterlimit="10" stroke-width="0.75"/><path d="M20.07715,21.31006l.313.00024a14.06228,14.06228,0,0,1,3.54394.213,5.16238,5.16238,0,0,1,1.44287,1.51v.797l.334.22254.918.61193v2.799L26.62354,28.499v.33631h-1.5669V27.749h-.75l-8.4585-.00024h-.75v1.0863H13.53125v-.34021l-.00537-1.02746v-2.803l.918-.61182.334-.22265v-.79688A5.13358,5.13358,0,0,1,16.227,21.52075a14.17182,14.17182,0,0,1,3.5376-.21069h.3125m.00049-.75h-.313a17.95985,17.95985,0,0,0-3.80713.26074c-.83447.313-1.92969,1.98193-1.92969,1.98193v.62586l-1.25195.83447v3.20435l.00537,1.03137v.56482a.52311.52311,0,0,0,.52148.52148h2.02393a.52279.52279,0,0,0,.52148-.52148v-.56482l8.4585.00024v.5647a.5229.5229,0,0,0,.52148.52161h2.02393a.52322.52322,0,0,0,.52149-.52161V28.499l.00537-1.03137V24.26331l-1.252-.83448V22.803s-1.09521-1.66907-1.92968-1.98194a17.95989,17.95989,0,0,0-3.80713-.26074l-.3125-.00024Z"/><polyline points="14.391 22.615 14.341 22.615 12.827 22.615 12.776 22.615 12.932 23.345 12.983 23.345 14.026 23.345"/><line x1="25.76274" y1="23.50165" x2="14.39127" y2="23.50165" fill="none" stroke="#000" stroke-miterlimit="10" stroke-width="0.75"/><polyline points="26.128 23.345 27.171 23.345 27.222 23.345 27.378 22.615 27.327 22.615 25.813 22.615 25.763 22.615"/><path d="M20.09766,26.99927l2.522,4.37854H17.57031l2.52735-4.37854m.001-1.6615a.37227.37227,0,0,0-.30029.18005l-3.65967,6.34a.37654.37654,0,0,0-.04.16.34893.34893,0,0,0,.14014.27991.29922.29922,0,0,0,.21973.08008h7.28027a.30067.30067,0,0,0,.21973-.08008.39447.39447,0,0,0,.12011-.27991.29713.29713,0,0,0-.04-.18005l-3.64013-6.31995a.32968.32968,0,0,0-.29981-.18005Z" fill="red"/><path d="M16.45885,32.87757a.7872.7872,0,0,1-.57422-.22657.80729.80729,0,0,1-.28613-.63281.88356.88356,0,0,1,.09278-.38379l3.6748-6.36621a.86931.86931,0,0,1,.73242-.43066.82739.82739,0,0,1,.748.459l3.626,6.291a.75985.75985,0,0,1,.10644.43066.89128.89128,0,0,1-.2666.63281.78811.78811,0,0,1-.57422.22657Z" fill="#fff"/><path d="M20.09766,26.99927l2.522,4.37854H17.57031l2.52735-4.37854m.001-1.6615a.37227.37227,0,0,0-.30029.18005l-3.65967,6.34a.37654.37654,0,0,0-.04.16.34893.34893,0,0,0,.14014.27991.29922.29922,0,0,0,.21973.08008h7.28027a.30067.30067,0,0,0,.21973-.08008.39447.39447,0,0,0,.12011-.27991.29713.29713,0,0,0-.04-.18005l-3.64013-6.31995a.32968.32968,0,0,0-.29981-.18005Z" fill="red"/></g></svg>