<svg xmlns="http://www.w3.org/2000/svg" viewBox="0 0 40 40"><defs><style>.cls-1{isolation:isolate;}.cls-2,.cls-4{fill:#fff;}.cls-3{fill:none;}.cls-3,.cls-4{stroke:#fff;stroke-width:1.2px;}</style></defs><g id="E37A_connect_traffic_violations_cn"><g id="V3"><g class="cls-1"><g class="cls-1"><path class="cls-2" d="M14.61,19a7.58355,7.58355,0,0,1-.92127-.05731,8.40491,8.40491,0,0,1-.85891-.14794,6.38068,6.38068,0,0,1-.72913-.21058,3.40514,3.40514,0,0,1-.53443-.2399V17.09678a4.63849,4.63849,0,0,0,.55479.22924,6.785,6.785,0,0,0,.73294.20925q.40083.092.84111.15194a6.53551,6.53551,0,0,0,.88181.06c.22014,0,.43137-.008.63115-.02532a4.0167,4.0167,0,0,0,.551-.0813,2.63474,2.63474,0,0,0,.45681-.14528,1.24949,1.24949,0,0,0,.34484-.21324.89679.89679,0,0,0,.2163-.29321.90862.90862,0,0,0,.0751-.37585.95117.95117,0,0,0-.11707-.4998.99644.99644,0,0,0-.34229-.33319,2.88221,2.88221,0,0,0-.55226-.2519c-.21759-.07464-.467-.1586-.74821-.24923l-1.84635-.58109a7.161,7.161,0,0,1-.87545-.34786,3.11519,3.11519,0,0,1-.71386-.46115,2.00675,2.00675,0,0,1-.481-.62107,1.80982,1.80982,0,0,1-.1756-.817,2.18521,2.18521,0,0,1,.10816-.66107,2.76016,2.76016,0,0,1,.30157-.64506,3.13025,3.13025,0,0,1,.46318-.5731,3.012,3.012,0,0,1,.58915-.45315,2.20873,2.20873,0,0,1-.327-.32387,1.83894,1.83894,0,0,1-.243-.38384,1.95022,1.95022,0,0,1-.1527-.45448,2.53073,2.53073,0,0,1-.05344-.53845,2.28281,2.28281,0,0,1,.10561-.70371,1.92361,1.92361,0,0,1,.31558-.59309,2.30062,2.30062,0,0,1,.51407-.4758,3.23621,3.23621,0,0,1,.69859-.35319,4.5587,4.5587,0,0,1,.87418-.21724A6.83808,6.83808,0,0,1,15.23223,6a7.65623,7.65623,0,0,1,.88563.05065,7.988,7.988,0,0,1,.808.13461,5.734,5.734,0,0,1,.68586.19458,3.08247,3.08247,0,0,1,.51026.23191V7.86457a4.34748,4.34748,0,0,0-.53317-.22258,6.61212,6.61212,0,0,0-.682-.19725,7.33522,7.33522,0,0,0-.78893-.13994,6.892,6.892,0,0,0-.85128-.05331,5.33439,5.33439,0,0,0-.59933.032,3.25582,3.25582,0,0,0-.51662.09463,2.44763,2.44763,0,0,0-.42246.1586,1.23369,1.23369,0,0,0-.31557.21858.837.837,0,0,0-.196.28522.87556.87556,0,0,0-.06872.35052.95316.95316,0,0,0,.11707.49713,1.01569,1.01569,0,0,0,.341.3332,2.69443,2.69443,0,0,0,.55225.25322c.21887.076.467.15861.74567.25057l1.85017.58109a6.96274,6.96274,0,0,1,.87673.34254,3.07316,3.07316,0,0,1,.7113.46247,2.05652,2.05652,0,0,1,.481.61974A1.80673,1.80673,0,0,1,19,12.552a2.14252,2.14252,0,0,1-.10943.66106,2.86285,2.86285,0,0,1-.30539.6504,3.1409,3.1409,0,0,1-.467.57843,2.88959,2.88959,0,0,1-.59933.45448,2.23743,2.23743,0,0,1,.3372.31587,1.76744,1.76744,0,0,1,.25068.37851,1.911,1.911,0,0,1,.15524.45182,2.64985,2.64985,0,0,1,.05217.54244,2.16386,2.16386,0,0,1-.11834.7277,1.94608,1.94608,0,0,1-.34357.60242,2.25313,2.25313,0,0,1-.54716.47048,3.54179,3.54179,0,0,1-.73675.33719,5.27578,5.27578,0,0,1-.90727.20658A7.48423,7.48423,0,0,1,14.61,19Zm-.196-7.98872c-.2036-.064-.39319-.12795-.57007-.18926-.17687-.06-.34356-.12528-.50008-.19192a2.33161,2.33161,0,0,0-.38174.3372,2.176,2.176,0,0,0-.28248.38517,1.85044,1.85044,0,0,0-.1756.4105,1.45125,1.45125,0,0,0-.05981.4105.99419.99419,0,0,0,.1018.46914,1.049,1.049,0,0,0,.27485.33453,1.70188,1.70188,0,0,0,.40846.24256c.15652.06664.32575.12929.50644.18659l1.84635.5811c.196.06531.38429.12928.56371.19325s.34865.13195.50644.20525a2.42084,2.42084,0,0,0,.38683-.34119,2.15226,2.15226,0,0,0,.27994-.38651,1.92554,1.92554,0,0,0,.17433-.40916,1.54209,1.54209,0,0,0,.05981-.41983,1.0203,1.0203,0,0,0-.09926-.46781,1.04609,1.04609,0,0,0-.27612-.33719,1.69246,1.69246,0,0,0-.40974-.24257c-.15778-.06531-.327-.128-.50771-.18526Z"/></g></g><path class="cls-3" d="M24,37.5H1.5V1.5h21l6,6V17.9999"/><g class="cls-1"><g class="cls-1"><path class="cls-2" d="M33.05016,38V36.21c-.40682-.01053-1.127-.05977-1.51009-.11243q-.57666-.079-1.08748-.19353a9.18756,9.18756,0,0,1-.94266-.26068,5.64266,5.64266,0,0,1-.74649-.30281V33.762a5.73028,5.73028,0,0,0,.53979.20275q.30611.09873.66355.19353.35547.09478.74912.17379c.26068.05266.52662.09874.7952.13692q.40287.05924.80837.09479c.2699.0237.53321.03555.7873.03555a7.66,7.66,0,0,0,1.60884-.15536,4.232,4.232,0,0,0,1.24546-.45684,2.33581,2.33581,0,0,0,.80574-.73991,1.80765,1.80765,0,0,0,.287-1.01112,1.85493,1.85493,0,0,0-.11454-.67671,1.5936,1.5936,0,0,0-.32783-.52267,2.18514,2.18514,0,0,0-.52135-.4055,4.63009,4.63009,0,0,0-.70041-.32124q-.391-.14615-.85708-.27121c-.30939-.083-.63985-.16984-.99137-.25805a17.57417,17.57417,0,0,1-1.98932-.61747,5.398,5.398,0,0,1-1.44295-.79652A3.04509,3.04509,0,0,1,29.23082,27.27a3.53763,3.53763,0,0,1-.29754-1.51668,3.64308,3.64308,0,0,1,.26068-1.389,3.18755,3.18755,0,0,1,.77545-1.12434,4.21056,4.21056,0,0,1,1.28365-.81231,6.64388,6.64388,0,0,1,1.78657-.44632V20H34.734v1.91033a10.183,10.183,0,0,1,1.07695.09347q.51345.075.97162.18959a7.289,7.289,0,0,1,.84654.26463,5.512,5.512,0,0,1,.70568.32914v1.56275a7.59963,7.59963,0,0,0-.83207-.34494,9.006,9.006,0,0,0-.9782-.27779,10.75462,10.75462,0,0,0-1.08484-.18695,9.48656,9.48656,0,0,0-1.14936-.06846,5.53257,5.53257,0,0,0-1.4074.16325,3.39034,3.39034,0,0,0-1.05983.46211,2.09456,2.09456,0,0,0-.66881.72016,1.90279,1.90279,0,0,0-.23172.93081,1.86986,1.86986,0,0,0,.11323.682,1.605,1.605,0,0,0,.32519.52,2.23392,2.23392,0,0,0,.51872.40418,4.76217,4.76217,0,0,0,.70041.32124q.393.14615.85708.27253c.31071.08558.64248.17115.998.25541a16.92064,16.92064,0,0,1,1.97221.6122,5.49888,5.49888,0,0,1,1.44426.79915,3.08908,3.08908,0,0,1,.886,1.10328,3.53529,3.53529,0,0,1,.29886,1.51273,3.174,3.174,0,0,1-.31993,1.41135,3.5988,3.5988,0,0,1-.91632,1.16647,5.13485,5.13485,0,0,1-1.4548.85313A7.09608,7.09608,0,0,1,34.74984,36.1V38Z"/></g></g><line class="cls-4" x1="5" y1="22.5" x2="24" y2="22.5"/><line class="cls-4" x1="5" y1="27.5" x2="24" y2="27.5"/><line class="cls-4" x1="5" y1="32.5" x2="24" y2="32.5"/></g></g></svg>