<svg xmlns="http://www.w3.org/2000/svg" viewBox="0 0 40 40"><g id="E37D_navigation_number_plate_regulation_cn"><circle cx="19.99998" cy="20.00004" r="17.24805" fill="#fff"/><path d="M19.9998,2.75226a17.21386,17.21386,0,1,0,.0688,0Q20.03421,2.75219,19.9998,2.75226Zm0,31.17986A13.93164,13.93164,0,1,1,33.93144,20.00048,13.93163,13.93163,0,0,1,19.9998,33.93212Z" fill="red"/><path d="M30.77734,18.34082a12.15,12.15,0,0,0-1.17578-.62109c-.08886-.22657-.573-1.23854-.7078-1.56081h2.17753V14.958h-2.7041c-.09278-.14746-.18653-.29981-.28125-.4541-.58789-.96192-1.25489-2.05176-2.17969-2.26661a32.41473,32.41473,0,0,0-5.85352-.38769,36.86718,36.86718,0,0,0-6.13769.39746c-.82324.248-2.126,2.43652-2.28613,2.71094H9.001v1.20075h2.1875c-.21.4209-.793,1.43987-.85938,1.561L9.191,18.35449s-.00293,5.99707-.00586,6.126a3.20568,3.20568,0,0,0,.44726,2.24023,1.0347,1.0347,0,0,0,.75684.31641h2.64881c.76562,0,1.18457-1.2913,1.19921-2.2581H25.76758c.02539.54785.44824,2.2581,1.19824,2.2581h2.64356a1.03132,1.03132,0,0,0,.7539-.31641,3.2132,3.2132,0,0,0,.44922-2.25683C30.80957,24.33984,30.77734,18.34082,30.77734,18.34082Zm-1.20117,2.80606c-.02051,1.40039-.02929,2.21933-.02929,2.8248,0,.11914.00292.23926.00683.3584.01367.46484.02637.90332-.17383,1.10937a.47065.47065,0,0,1-.35742.12793H27.51465a1.3382,1.3382,0,0,0-.15625.01367c-.11719.01465-.249.03223-.31445-.02636a.21133.21133,0,0,1-.05372-.167,15.92431,15.92431,0,0,0-.377-1.77149l-.00976-.03711H13.11816l-.0039,1.8086c0,.10253-.13965.15527-.416.15527h-1.7998a.4661.4661,0,0,1-.35449-.12207c-.17774-.18457-.16211-.57031-.14454-1.01563.00489-.14062.01075-.28613.01075-.43359,0-.73926.0039-1.76621.00976-2.8248h4.20117V19.94629H10.42578c.002-.376.00391-.71.00586-.9668.55176-.28027,1.28809-.64355,1.7168-.80664.67676-.127,14.05957-.08691,15.77246.04883.332.125.89941.3457,1.68848.65625-.00391.26953-.00977.64355-.01661,1.06836h-4.209v1.20059Zm-1.459-3.94766c-.36914-.1377-5.23047-.21777-9.56641-.21777-3.12793,0-5.98242.041-6.6748.13183,1.50293-2.84766,2.30664-3.59668,2.71679-3.7207a27.32783,27.32783,0,0,1,5.46-.333,28.15984,28.15984,0,0,1,5.40137.334c.47363.11036,1.32715.86622,2.71289,3.8252Z"/><path d="M9.3325,9.34l21.335,21.32" fill="none" stroke="red" stroke-miterlimit="10" stroke-width="4"/></g></svg>