<svg xmlns="http://www.w3.org/2000/svg" viewBox="0 0 40 40"><g id="E39A_fast_charging_station"><path d="M13.9994,8.99965l-5,9h3v7l5-9h-3Z" fill="#fff" fill-rule="evenodd"/><path d="M22.49721,17.70412H25.015c.79,0,1.46359.84482,1.46359,1.9612l.00005,10.07827c0,1.21238.75351,3.82512,3.52468,3.82512,2.74347,0,3.4709-2.55731,3.4709-3.82422V17.07268" fill="none" stroke="#fff" stroke-width="1.2"/><path d="M36.0973,7.99942H38l-.00119,5.7831A5.71651,5.71651,0,0,1,34.54863,18.006h-2.1638a5.64982,5.64982,0,0,1-3.38846-4.19011l0-5.81652H30.8994V3.998h1.1977V7.99942h2.8007V3.998h1.1995Z" fill="#fff" fill-rule="evenodd"/><path d="M2.9994,36.0039h21v2h-21Z" fill="#fff" fill-rule="evenodd"/><path d="M4.50778,36.8917V5.34834A1.89941,1.89941,0,0,1,6.41993,3.54866h14.195a1.87236,1.87236,0,0,1,1.88232,1.79968V37.0039" fill="none" stroke="#fff" stroke-width="1.2"/></g></svg>