<svg xmlns="http://www.w3.org/2000/svg" viewBox="0 0 40 40"><g id="E93F_drive_select_innenlicht"><path d="M4.482,18.78822A3.73906,3.73906,0,0,1,.50443,15.04464c-.078-1.48183.8579-3.74357,4.13353-3.74357a5.33742,5.33742,0,0,1,2.57371.62393V8.49339H8.61551V18.63224H7.44564l-.156-.62393A4.75167,4.75167,0,0,1,4.482,18.78822Zm.312-6.39527c-2.18375.078-2.80768,1.40384-2.80768,2.72969a2.59789,2.59789,0,0,0,2.80768,2.5737,3.86,3.86,0,0,0,2.41773-.70192V13.09487A5.04053,5.04053,0,0,0,4.79394,12.393Z" fill="#fff"/><path d="M12.51506,18.63224H11.11122V11.45705h1.24786l.156,1.24786a2.98235,2.98235,0,0,1,2.57371-1.40384,6.69559,6.69559,0,0,1,1.32585.234V12.7829a5.096,5.096,0,0,0-2.18375-.078,3.203,3.203,0,0,0-1.71581,1.24786Z" fill="#fff"/><path d="M20.00221,18.63224H18.59837V11.45705h1.40384Zm0-8.579H18.59837V8.49339h1.40384Z" fill="#fff"/><path d="M27.09941,18.63224H25.77356L22.108,11.45705H23.6678l2.80768,5.61537,2.72969-5.61537H30.765Z" fill="#fff"/><path d="M35.75643,18.78822a3.64429,3.64429,0,0,1-4.05554-3.82157c0-1.01388.46794-3.58759,3.89955-3.66558,4.60148.234,3.82157,4.05554,3.82157,4.05554H33.18272c-.078,1.7938,1.7158,2.26174,2.72969,2.26174a7.28141,7.28141,0,0,0,3.04165-.70192h0V18.0863h0C38.56411,18.32027,38.01817,18.71023,35.75643,18.78822Zm-2.6517-4.52349h4.99143A2.35212,2.35212,0,0,0,35.52245,12.393,2.326,2.326,0,0,0,33.10473,14.26473Z" fill="#fff"/><path d="M3.07808,31.5008a11.78988,11.78988,0,0,1-2.57372-.468h0V29.941h0a13.74033,13.74033,0,0,0,3.11966.38995c2.10576-.234,1.94978-1.63781.38995-1.87179a10.2295,10.2295,0,0,1-1.7938-.46795C.50436,27.36725.58235,26.43135.58235,26.11939s0-2.18376,3.19765-2.10577a4.92069,4.92069,0,0,1,2.33974.54594h0v1.09188a10.97347,10.97347,0,0,0-2.10577-.468c-2.10576-.078-2.02777.70192-2.02777.85791-.078,1.16987,1.87179.77991,3.74359,1.7938a1.5533,1.5533,0,0,1,.8579,1.40384C6.43171,31.73477,3.15607,31.5008,3.07808,31.5008Z" fill="#fff"/><path d="M17.4285,31.5008c-.312,0-1.16987-.078-1.48184-.54594-.156-.156-.312-.39-.312-1.32586V21.20593h1.32585V29.473c0,.93589.62393.8579.77991.8579a4.603,4.603,0,0,0,1.09188-.156h0v1.09188h0A5.40961,5.40961,0,0,1,17.4285,31.5008Z" fill="#fff"/><path d="M29.67315,31.18883a3.6233,3.6233,0,0,1-2.18376-3.50961,3.53752,3.53752,0,0,1,3.74359-3.6656,5.34636,5.34636,0,0,1,2.26175.468v1.16987h0a4.65979,4.65979,0,0,0-3.11966-.312,2.28207,2.28207,0,0,0-1.40384,2.26175c0,.39,0,2.10577,1.48184,2.57372a5.03547,5.03547,0,0,0,3.11965-.39v1.16988h0A5.1179,5.1179,0,0,1,29.67315,31.18883Z" fill="#fff"/><path d="M37.23831,31.34481A1.84343,1.84343,0,0,1,35.91246,29.239V25.26148H34.50861V24.1696h1.40385l.156-1.7938h1.16987v1.7938h2.18376v1.09188H37.23831v3.74359c0,.234,0,.77991.312,1.01389a2.07143,2.07143,0,0,0,1.94979.078v1.09188A2.72244,2.72244,0,0,1,37.23831,31.34481Z" fill="#fff"/><path d="M10.87722,31.5008c-3.35363,0-3.50962-2.80769-3.50962-3.82158s.39-3.74359,3.43163-3.6656c4.05555,0,3.50961,4.05555,3.50961,4.05555H8.69346a2.40943,2.40943,0,0,0,2.41773,2.26175,6.4915,6.4915,0,0,0,2.80769-.70192v1.24786A5.83994,5.83994,0,0,1,10.87722,31.5008ZM8.69346,26.97729H12.983a2.16461,2.16461,0,0,0-4.28953,0Z" fill="#fff"/><path d="M22.96589,31.5008c-3.35363,0-3.50962-2.80769-3.50962-3.82158s.39-3.74359,3.43162-3.6656c4.05556,0,3.50962,4.05555,3.50962,4.05555H20.78213a2.40943,2.40943,0,0,0,2.41773,2.26175,6.4915,6.4915,0,0,0,2.80769-.70192v1.24786A5.83994,5.83994,0,0,1,22.96589,31.5008Zm-2.18376-4.52351h4.28953a2.16461,2.16461,0,0,0-4.28953,0Z" fill="#fff"/></g></svg>