<svg xmlns="http://www.w3.org/2000/svg" viewBox="0 0 40 40"><defs><style>.cls-1{fill:#fff;}</style></defs><g id="E3AD_sirius_for_you"><path id="V2" class="cls-1" d="M13.47045,32V30h13.04v2Zm0,1h13.04c-.03921,2.34216-1.90489,5-4.25713,5H17.735C15.38273,38,13.5101,35.34216,13.47045,33ZM21.2502,21.13068c-.78327.6261-1.07076.69825-1.24949.69825s-.4684-.07876-1.24323-.69825A21.26205,21.26205,0,0,1,17.04359,19.581a26.20031,26.20031,0,0,1-2.88888-3.24678,4.04206,4.04206,0,0,1-.7538-2.55489,3.64233,3.64233,0,0,1,1.09231-2.4077,3.43608,3.43608,0,0,1,2.42049-1.00686,4.06732,4.06732,0,0,1,2.90383,1.67555c.06607.07668.13657.15718.18934.21273.06607-.06173.15987-.166.24089-.25315a4.10215,4.10215,0,0,1,2.84-1.633,3.43348,3.43348,0,0,1,2.42883,1.00686,3.64348,3.64348,0,0,1,1.08345,2.40553,4.08246,4.08246,0,0,1-.76823,2.55306,25.801,25.801,0,0,1-2.87837,3.25087,22.61528,22.61528,0,0,1-1.70328,1.54741m7.5525-15.7923A13.079,13.079,0,0,0,18.47486,2.09821,13.211,13.211,0,0,0,6.8777,13.79038,12.90893,12.90893,0,0,0,11.54662,25.2761,4.80326,4.80326,0,0,1,13.47045,29h13.04a4.644,4.644,0,0,1,1.82342-3.52622,13.254,13.254,0,0,0,.46883-20.1354"/></g></svg>