<svg xmlns="http://www.w3.org/2000/svg" viewBox="0 0 40 40"><defs><style>.cls-1{fill:#fff;}</style></defs><g id="E3B1_sirius_xm"><g id="V2-47" data-name="V2"><path class="cls-1" d="M27.66418,6.72082a13.57327,13.57327,0,0,0-15.32705.01174.86888.86888,0,0,1-.98426-1.43213A15.31485,15.31485,0,0,1,28.64652,5.2887a.86832.86832,0,0,1-.9823,1.43212Zm-4.5125,5.93681a5.06876,5.06876,0,0,0-6.29423.04156.86892.86892,0,1,1-1.09217-1.35175l.00328-.00264a6.82042,6.82042,0,0,1,4.26217-1.49956A6.74436,6.74436,0,0,1,24.222,11.28756a.86927.86927,0,0,1-1.07031,1.37ZM19.9789,6.158a10.38508,10.38508,0,0,1,6.34068,2.13231.86918.86918,0,0,1-1.05027,1.38521,8.75347,8.75347,0,0,0-10.54365-.02929.86886.86886,0,1,1-1.04623-1.38748l.00281-.00212A10.39978,10.39978,0,0,1,19.9789,6.158Z"/><path class="cls-1" d="M27.66422,33.361a.86832.86832,0,0,1,.9823,1.43212,15.31483,15.31483,0,0,1-17.29365-.01174.86887.86887,0,0,1,.98426-1.43212,13.57325,13.57325,0,0,0,15.32705.01173ZM23.15168,27.4242a.86927.86927,0,0,1,1.07031,1.37,6.74441,6.74441,0,0,1-4.19126,1.44231A6.8203,6.8203,0,0,1,15.76856,28.737l-.00328-.00264a.86891.86891,0,1,1,1.09217-1.35174,5.06876,5.06876,0,0,0,6.29423.04156Zm-9.46944,4.40091-.00281-.00211a.86886.86886,0,1,1,1.04623-1.38748,8.7535,8.7535,0,0,0,10.54365-.02929.86918.86918,0,0,1,1.05027,1.38521,10.49452,10.49452,0,0,1-12.63734.03367Z"/><path class="cls-1" d="M38.27753,15.12146a.76822.76822,0,0,0,.76611-.75909V14.3399a.76435.76435,0,0,0-.75677-.75537h-.01044a.76889.76889,0,0,0-.76172.75965v.02228A.76419.76419,0,0,0,38.27753,15.12146Zm-.65827-.76819a.66.66,0,1,1,1.32-.00421v.00421a.66.66,0,1,1-1.32.004Zm.50641.09992h.16376l.19134.27343h.17841l-.21124-.29834a.23522.23522,0,0,0,.18213-.23761v-.00476a.21984.21984,0,0,0-.0644-.16473.32337.32337,0,0,0-.23455-.08539h-.355v.79083h.14953Zm0-.382h.19519c.0976,0,.15558.04407.15558.12323v.004c0,.07543-.058.12353-.15558.12353h-.19519ZM4.919,17.52478c0-.49084.44-.69873,1.12927-.69873a1.27337,1.27337,0,0,1,.80383.24512,1.032,1.032,0,0,1,.38269.71814h3.61792c-.22992-2.62482-2.79492-3.11664-4.977-3.11664-2.08643,0-4.74707.73736-4.74707,3.26806,0,3.83332,6.14453,2.56769,6.14453,4.15394,0,.69928-.65094.88793-1.263.88793a1.62189,1.62189,0,0,1-.97693-.30224,1.09158,1.09158,0,0,1-.42053-.90631H.82275C1.033,24.43628,3.55927,25.13513,5.856,25.13513c3.67566,0,5.39862-1.39715,5.39862-3.45624C11.25464,17.97754,4.919,18.90356,4.919,17.52478Zm17.4884-2.51337H18.04358l-1.34,2.474L15.44,15.01141H11.01837l3.3114,4.72083L10.731,24.90656h4.403l1.45435-2.83283,1.4165,2.83283h4.44037l-3.46448-5.19269Zm12.99341-.28149a3.4426,3.4426,0,0,0-3.06769,1.8111,3.17006,3.17006,0,0,0-3.14368-1.812,3.49474,3.49474,0,0,0-2.8587,1.75489V15.01141H22.77655v9.89515h3.92V20.01562c0-1.18969.0282-2.2171,1.12122-2.1892,1.06055.02679,1.1474.58416,1.1474,2.03827v5.04187h4.002V20.01562c0-1.18969-.00811-2.18408,1.11023-2.18737,1.05323-.00281,1.14923.58233,1.14923,2.03644v5.04187h3.9397V19.05237C39.16638,16.35236,37.92462,14.72906,35.40076,14.72992Z"/></g></g></svg>