<svg xmlns="http://www.w3.org/2000/svg" viewBox="0 0 40 40"><g id="E3BE_data_5g"><path d="M2.95,37.246q.27686.11426.62207.22168.34569.10547.74023.18653c.2627.05468.53711.09765.82129.12988a7.7179,7.7179,0,0,0,.87012.04883,3.87109,3.87109,0,0,0,1.16406-.15332,2.1276,2.1276,0,0,0,.79492-.43067,1.65909,1.65909,0,0,0,.45313-.6582,2.38169,2.38169,0,0,0,.14453-.84277,1.55037,1.55037,0,0,0-.15723-.71192,1.75435,1.75435,0,0,0-.42969-.54,2.64751,2.64751,0,0,0-.63574-.39355,4.93829,4.93829,0,0,0-.77637-.27051,7.68045,7.68045,0,0,0-.85156-.1709c-.292-.042-.57812-.07422-.86035-.0957s-.55078-.03613-.80469-.043q-.38232-.01171-.68066-.01856L3.55451,28.164H9.576V29.3339H4.85822L4.743,32.32707c.27637.01367.56153.03515.85743.06445.29492.0293.59179.07031.88867.124a8.947,8.947,0,0,1,.88086.207,5.61909,5.61909,0,0,1,.82324.30957,4.12205,4.12205,0,0,1,.71973.43458,2.772,2.772,0,0,1,.57226.5791,2.65606,2.65606,0,0,1,.37891.748,3.00487,3.00487,0,0,1,.13672.93555,3.84859,3.84859,0,0,1-.10157.89356,3.00344,3.00344,0,0,1-.30566.79,2.721,2.721,0,0,1-.52539.66309,3.00841,3.00841,0,0,1-.76172.50586,4.4488,4.4488,0,0,1-1.00879.32422,6.42362,6.42362,0,0,1-1.26562.11523c-.32617,0-.6377-.01269-.93262-.03808a8.20119,8.20119,0,0,1-.834-.11328,5.80212,5.80212,0,0,1-.71973-.18555,3.91535,3.91535,0,0,1-.5957-.25Z" fill="#fff"/><path d="M19.70588,33.95109h-3V32.81242h4.38574v5.53125a5.16412,5.16412,0,0,1-.50391.206q-.2666.09375-.55664.167c-.19336.0498-.39551.09277-.6084.13183-.21191.03809-.43457.07031-.666.09473q-.34717.03809-.72559.05761-.37793.02052-.78906.02051a5.94043,5.94043,0,0,1-2.08789-.34277,3.91625,3.91625,0,0,1-1.55078-1.0332,4.60837,4.60837,0,0,1-.96485-1.7334,8.93944,8.93944,0,0,1-.18164-4.05567,5.73322,5.73322,0,0,1,.44434-1.35156,4.401,4.401,0,0,1,.72558-1.0791,4.02661,4.02661,0,0,1,1.001-.78809,4.8745,4.8745,0,0,1,1.26758-.48437,6.58729,6.58729,0,0,1,1.51953-.166c.19043,0,.37988.00586.56934.01856q.28417.01758.55957.05176c.18457.02246.3623.05078.53515.085q.25927.0498.49512.11523a4.33231,4.33231,0,0,1,.44141.14551,3.40088,3.40088,0,0,1,.37109.1709v1.207a4.16592,4.16592,0,0,0-.59277-.23438,6.672,6.672,0,0,0-.70411-.17871q-.375-.07324-.77734-.11328c-.26953-.02637-.53906-.03906-.81055-.03906a4.77979,4.77979,0,0,0-1.63476.25683,2.91767,2.91767,0,0,0-1.1836.78516,3.44162,3.44162,0,0,0-.71972,1.32715,6.50612,6.50612,0,0,0-.24317,1.88379,7.473,7.473,0,0,0,.1211,1.41308,4.71845,4.71845,0,0,0,.3457,1.11133,3.17561,3.17561,0,0,0,.54688.8291,2.82943,2.82943,0,0,0,.72753.56934,3.29666,3.29666,0,0,0,.88575.32617,4.8217,4.8217,0,0,0,1.02148.10449c.23926,0,.46875-.00781.6875-.02148.21777-.01465.42578-.03418.62109-.05957s.37891-.05664.55079-.09375.33105-.0791.47754-.124Z" fill="#fff"/></g></svg>