<svg xmlns="http://www.w3.org/2000/svg" viewBox="0 0 40 40"><title>E3C7_Cold_Feet</title><g id="Icon"><path d="M2.83118,7.86049l.4886-.79194.3643.23012a3.22189,3.22189,0,0,1,.47037-.605c.66542-1.14684,1.386-3.87652,5.87912-2.16139C19.58821,8.18472,26.967,6.25168,27.39479,6.97007c2.42409,4.09417,8.09757,6.43864,9.78272,7.13413.88892.3725-2.27393,7.3267-4.47665,8.5308-.34918.18692-.04234.5736-.047.94219L31.30029,25.742l-9.19944-5.76668.89121-1.429a13.7319,13.7319,0,0,0-6.922-2.4187Z" fill="none" stroke="#fff" stroke-miterlimit="10" stroke-width="1.2" fill-rule="evenodd"/><path d="M8.86239,19.62568a1.991,1.991,0,0,1,1.7566.9511,3.08986,3.08986,0,0,1-.01053,2.07942,7.35413,7.35413,0,0,0-.03346,3.82827l.13693.24692.90983.15944.24513-.38343a4.7684,4.7684,0,0,1,1.20577-3.47169,3.314,3.314,0,0,1,2.36629-.96938,4.27691,4.27691,0,0,1,3.95561,3.12842,2.13643,2.13643,0,0,1-.80147,2.616,1.9414,1.9414,0,0,1-.83524.18,5.53687,5.53687,0,0,1-1.203-.18929,8.53355,8.53355,0,0,0-2.00011-.27635,6.90709,6.90709,0,0,0-1.78387.242l-.24226.16451-.12908.90953.42773.22653c2.79941.02168,4.03553,1.53973,4.26851,2.96112A4.26211,4.26211,0,0,1,13.98163,36.6a2.68978,2.68978,0,0,1-.85445.14778A1.99136,1.99136,0,0,1,11.37,35.79662a2.94281,2.94281,0,0,1,.0093-2.02241,7.09107,7.09107,0,0,0,.04523-3.72883l-.11039-.30932-.99478-.18414-.20469.44823a4.68453,4.68453,0,0,1-1.17541,3.41221,3.25191,3.25191,0,0,1-2.3254.94831,4.34807,4.34807,0,0,1-4.01942-3.182,2.13571,2.13571,0,0,1,.80177-2.616,1.93884,1.93884,0,0,1,.83462-.18,5.53888,5.53888,0,0,1,1.20329.1893,8.534,8.534,0,0,0,2.00011.27634,6.907,6.907,0,0,0,1.78386-.242l.22707-.1.16076-.86849-.36552-.3237c-2.85022,0-4.10989-1.5354-4.34534-2.97259a4.25887,4.25887,0,0,1,3.11231-4.56809A2.68494,2.68494,0,0,1,8.86239,19.62568Z" fill="none" stroke="#fff" stroke-linejoin="round" stroke-width="1.2"/></g></svg>