<svg xmlns="http://www.w3.org/2000/svg" viewBox="0 0 40 40"><title>E3CC_Air_distribution_top_driver</title><g id="Icon"><path d="M29.82543,37.97156a3.114,3.114,0,0,0,1.74959-.64491,3.1768,3.1768,0,0,0,1.0788-1.52183.73758.73758,0,0,0-.01157-.47317.69448.69448,0,0,0-.29078-.35808c-3.26442-2.03094-6.62536-4.04847-9.99117-5.99781a3.735,3.735,0,0,0-2.56562-.4275c-1.23257.24542-2.47366.48475-3.71232.7192A1.70044,1.70044,0,0,1,14.133,28.06169c-.68875-2.4426-1.34889-4.86937-1.96273-7.21515a4.21172,4.21172,0,0,0-4.09415-3.15145,4.17926,4.17926,0,0,0-.69971.05876l-.978.17082a2.07219,2.07219,0,0,0-1.61927,1.42561,2.092,2.092,0,0,0-.02923,1.12113c.87754,3.43584,1.8111,6.907,2.77511,10.31606a5.83023,5.83023,0,0,0,5.62815,4.24761,5.76537,5.76537,0,0,0,1.04318-.09439c2.14421-.39706,4.21473-.799,6.15523-1.1936a2.75277,2.75277,0,0,1,.538-.053,2.79808,2.79808,0,0,1,1.42135.38548c2.04768,1.2076,3.916,2.33116,5.71159,3.43585a3.17339,3.17339,0,0,0,1.63175.461C29.71125,37.97643,29.76819,37.97461,29.82543,37.97156Z" fill="none" stroke="#fff" stroke-miterlimit="10" stroke-width="1.2" fill-rule="evenodd"/><path d="M6.40845,15.0202a2.89625,2.89625,0,1,0-2.89972-2.89635A2.89709,2.89709,0,0,0,6.40845,15.0202Z" fill="none" stroke="#fff" stroke-miterlimit="10" stroke-width="1.2" fill-rule="evenodd"/><path d="M15.57974,6.59055a5.34912,5.34912,0,0,0-.10772.97016,2.89967,2.89967,0,0,0,.32072,1.26695l.41309.9935a2.97442,2.97442,0,0,1,.21052,1.14106,4.6143,4.6143,0,0,1-.99943,2.53786" fill="none" stroke="#fff" stroke-miterlimit="10"/><polygon points="14.5 6.744 15.584 3.901 16.66 6.744 14.5 6.744" fill="#fff" stroke="#fff" stroke-miterlimit="10" stroke-width="0.1"/><path d="M18.26617,6.59055a5.35,5.35,0,0,0-.10771.97016,2.89953,2.89953,0,0,0,.32072,1.26695l.41308.9935a2.97422,2.97422,0,0,1,.21053,1.14106,4.61437,4.61437,0,0,1-.99943,2.53786" fill="none" stroke="#fff" stroke-miterlimit="10"/><polygon points="17.186 6.744 18.27 3.901 19.346 6.744 17.186 6.744" fill="#fff" stroke="#fff" stroke-miterlimit="10" stroke-width="0.1"/><path d="M20.95261,6.59055a5.35,5.35,0,0,0-.10772.97016,2.89967,2.89967,0,0,0,.32072,1.26695l.41309.9935a2.97423,2.97423,0,0,1,.21052,1.14106,4.6143,4.6143,0,0,1-.99943,2.53786" fill="none" stroke="#fff" stroke-miterlimit="10"/><polygon points="19.873 6.744 20.957 3.901 22.033 6.744 19.873 6.744" fill="#fff" stroke="#fff" stroke-miterlimit="10" stroke-width="0.1"/><path d="M18.76218,1.89992a14.05631,14.05631,0,0,0-8.62665,2.94137l4.31619,7.002a7.88953,7.88953,0,0,1,8.58864.05882l4.3617-7.057A14.08958,14.08958,0,0,0,18.76218,1.89992Z" fill="none" stroke="#fff" stroke-miterlimit="10" stroke-width="1.2"/></g></svg>