<svg xmlns="http://www.w3.org/2000/svg" viewBox="0 0 40 40"><title>E3DB_provider_amazon_music</title><g id="E3DB_provider_amazon_music"><path d="M36.30912,30.22414a.65179.65179,0,0,1-.22781.12793.41911.41911,0,0,1-.05606.01293.436.436,0,0,1-.06468.01437c-.02156,0-.03306-.01581-.05174-.02012a.1989.1989,0,0,1-.07546-.02874.18543.18543,0,0,1-.0539-.07115.221.221,0,0,1-.028-.08193c-.00144-.01437-.01222-.02084-.0115-.03593a.39082.39082,0,0,1,.02515-.27094c.5117-1.2857,1.658-4.16613,1.11538-4.86611a.58791.58791,0,0,0-.1193-.09918.7283.7283,0,0,0-.07762-.05821,1.28759,1.28759,0,0,0-.184-.07689c-.046-.01653-.09342-.03234-.14517-.046-.074-.02012-.15092-.03881-.23572-.05318-.04887-.00863-.102-.01438-.1538-.02156-.08983-.01222-.17823-.02444-.276-.03234h0c-.13582-.01078-.286-.0115-.43335-.01509-.08049-.00144-.15524-.00719-.23788-.00719-.368.00072-.7582.02012-1.14268.04743l-.18973.01509c-.32412.02588-.6389.05534-.93.087-.06037.00647-.12864.01294-.18757.01941-.23429.02659-.45708.05318-.64106.07546a.565.565,0,0,1-.07618.005.29107.29107,0,0,1-.0963-.02731.34065.34065,0,0,1-.08408-.02372l-.00216-.00287c-.02156-.01438-.028-.03665-.04168-.05678-.00431-.00862-.01294-.01437-.01725-.023-.01006-.02013-.02731-.0345-.03018-.0575l.00143-.00575c-.00143-.01006.00647-.02228.00719-.03306a.42371.42371,0,0,1,.0194-.08911.26993.26993,0,0,1,.01941-.06684.67086.67086,0,0,1,.19476-.20554c.08768-.06252.18757-.10636.27956-.16242.10133-.06252.20338-.125.30975-.1811.06827-.03593.13079-.08265.2005-.11714.03738-.018.07259-.03809.11068-.05534a6.6315,6.6315,0,0,1,.81281-.30831c.05031-.01581.0999-.0309.15093-.04528a7.94388,7.94388,0,0,1,.83365-.19332c.046-.00862.09055-.01437.13583-.02156.28819-.046.57422-.08121.85378-.09917l.01006-.00144h.0194a9.41853,9.41853,0,0,1,1.175,0h.04815c.02443.00144.04384.00575.06755.00718.217.01653.4233.03809.61231.06756.02659.00431.04959.00934.07618.01365q.25764.04312.47073.09918c.02659.00719.05533.01294.08121.02084a2.56548,2.56548,0,0,1,.37155.13367c.02228.01007.04024.02013.05965.03091a.68923.68923,0,0,1,.21847.15451C39.18524,24.18445,38.59737,28.273,36.30912,30.22414Zm1.446-11.34562a4.22122,4.22122,0,0,1-1.985.44988,3.44009,3.44009,0,0,1-2.67344-1.0126,4.182,4.182,0,0,1-.92637-2.90558v-.05677a4.19368,4.19368,0,0,1,.95583-2.92067A3.48235,3.48235,0,0,1,35.82977,11.39a4.25215,4.25215,0,0,1,1.86639.42042v1.06507a5.4386,5.4386,0,0,0-1.65941-.27022,2.24592,2.24592,0,0,0-1.79236.63817,3.08536,3.08536,0,0,0-.54834,2.03312V15.472a3.002,3.002,0,0,0,.55553,2.00293,2.21061,2.21061,0,0,0,1.75571.63818,5.81046,5.81046,0,0,0,1.7478-.30041v1.06579ZM34.396,25.68575a.59228.59228,0,0,1,.5196.28028.50693.50693,0,0,1,.2271.4118v.01006a.65893.65893,0,0,1-.30256.50953A20.43024,20.43024,0,0,1,31.54866,28.881a28.08493,28.08493,0,0,1-11.87744,2.71513A27.24714,27.24714,0,0,1,1.14106,24.43167a.52436.52436,0,0,1-.14086-.20051c-.26015-.27237-.10708-.60368.18758-.60368A.52761.52761,0,0,1,1.453,23.708a36.91273,36.91273,0,0,0,18.51075,4.96529,36.45142,36.45142,0,0,0,11.58494-1.94688c.8545-.29106,1.70181-.61518,2.53475-.97308A.78982.78982,0,0,1,34.396,25.68575ZM30.6,19.16311h-1.4668V11.55528H30.6Zm-.72586-8.95893a.903.903,0,0,1-.67411-.24722.9945.9945,0,0,1,0-1.30582,1.04269,1.04269,0,0,1,1.34823,0,.9945.9945,0,0,1,0,1.30582A.90306.90306,0,0,1,29.87416,10.20418Zm-4.88838,9.18387a5.38926,5.38926,0,0,1-2.5484-.5699V17.76746a8.17287,8.17287,0,0,0,2.57786.46569,1.80945,1.80945,0,0,0,1.10388-.28531.971.971,0,0,0,.378-.825.78385.78385,0,0,0-.23-.58572,2.45556,2.45556,0,0,0-.83725-.44988l-1.2591-.48007a2.16746,2.16746,0,0,1-1.64432-2.10139,1.92193,1.92193,0,0,1,.74814-1.57532,3.04043,3.04043,0,0,1,1.96268-.60081,5.18551,5.18551,0,0,1,2.20775.48079v1.05a6.9723,6.9723,0,0,0-2.13372-.37514q-1.4219,0-1.42153.976a.80988.80988,0,0,0,.23644.61518,3.09716,3.09716,0,0,0,.93355.49516l1.15562.44989a3.04023,3.04023,0,0,1,1.25911.81785,1.87654,1.87654,0,0,1,.3852,1.22317,2.0594,2.0594,0,0,1-.7855,1.69534A3.23642,3.23642,0,0,1,24.98578,19.38805ZM19.6971,18.35317a4.66584,4.66584,0,0,1-2.8294,1.0356,2.1059,2.1059,0,0,1-1.61485-.6008,2.38309,2.38309,0,0,1-.56272-1.69534V11.55528h1.46608v5.05727a1.87838,1.87838,0,0,0,.31119,1.19228,1.20374,1.20374,0,0,0,.99248.38305,3.85808,3.85808,0,0,0,2.1481-.72011V11.55528h1.4668v7.60783H19.86023Zm-8.28051-4.35226a1.79489,1.79489,0,0,0-.28172-1.11034,1.059,1.059,0,0,0-.889-.36005,4.12573,4.12573,0,0,0-2.17757.67554,1.58223,1.58223,0,0,1,.0151.22495v5.7321H6.6166v-5.1622a1.79489,1.79489,0,0,0-.28172-1.11034,1.05812,1.05812,0,0,0-.889-.36005,3.96605,3.96605,0,0,0-2.16247.66045v5.97214H1.81661V11.55528H3.04626l.148.76538a4.85791,4.85791,0,0,1,2.77047-.99032,1.85669,1.85669,0,0,1,1.86638,1.06507A4.97384,4.97384,0,0,1,10.764,11.33034a2.04783,2.04783,0,0,1,1.571.585,2.34642,2.34642,0,0,1,.54763,1.66588v5.5819H11.41659Z" fill="#fff" fill-rule="evenodd"/></g></svg>