<svg xmlns="http://www.w3.org/2000/svg" viewBox="0 0 153 40"><g id="E3DD_provider_siriusxm"><path d="M125.65376,27.84444V20.093c0-2.23541-.149-3.13465-1.77718-3.13059-1.72953.00507-1.71635,1.53387-1.71635,3.36275v7.5193H115.972V20.093c0-2.23541-.13483-3.09207-1.77414-3.13363-1.69-.04258-1.73358,1.53691-1.73358,3.36579v7.5193h-6.06147v-15.213h5.49476v2.2638a5.40906,5.40906,0,0,1,4.42115-2.6977,4.9036,4.9036,0,0,1,4.86012,2.7859c1.33315-1.82888,2.5-2.78387,4.74354-2.78489,3.90311-.001,5.82323,2.49495,5.82323,6.64542v9.00045Z" fill="#fff" fill-rule="evenodd"/><polygon points="99.024 27.844 96.834 23.489 94.585 27.844 87.776 27.844 93.341 19.889 88.22 12.631 95.058 12.631 97.012 16.435 99.084 12.631 105.831 12.631 100.533 19.862 105.89 27.844 99.024 27.844" fill="#fff" fill-rule="evenodd"/><path d="M82.95076,18.21037a1.60772,1.60772,0,0,0-1.00872-.30516c-.86679,0-1.41829.25852-1.41829.87187,0,1.72142,7.95624.56569,7.95624,5.18757,0,2.571-2.16242,4.31572-6.77923,4.31572-2.88526,0-6.05742-.87186-6.322-4.1971H80.1385a1.358,1.358,0,0,0,.5292,1.13139,2.03361,2.03361,0,0,0,1.22568.37815c.76947,0,1.58659-.23622,1.58659-1.10909,0-1.98095-7.717-.40045-7.717-5.18758,0-3.16,3.34247-4.07951,5.9611-4.07951,2.74332,0,5.96313.61234,6.25206,3.88993H83.43231A1.279,1.279,0,0,0,82.95076,18.21037Z" fill="#fff" fill-rule="evenodd"/><path d="M70.24084,26.02671a4.83925,4.83925,0,0,1-4.5428,2.16952c-2.7413,0-4.52051-1.65046-4.52051-5.18758V15.48529h5.001v6.6738c0,1.69709.56975,2.24048,1.7711,2.24048,1.44161,0,1.93026-1.06245,1.93026-2.97041V15.48529h5V27.84343H70.24084Z" fill="#fff" fill-rule="evenodd"/><rect x="54.76123" y="15.48529" width="5.00003" height="12.35814" fill="#fff"/><rect x="54.76123" y="12.01001" width="5.00003" height="2.34186" fill="#fff"/><path d="M52.69411,19.96524c-2.04279,0-3.07585.94384-3.07585,3.60911v4.26908h-5.001V15.48529H49.161v2.499h.04765a3.78452,3.78452,0,0,1,3.87066-2.85281,6.404,6.404,0,0,1,.64883.07v4.90473A7.86461,7.86461,0,0,0,52.69411,19.96524Z" fill="#fff" fill-rule="evenodd"/><rect x="38.45336" y="15.48529" width="4.99901" height="12.35814" fill="#fff"/><rect x="38.45336" y="12.01001" width="4.99901" height="2.34186" fill="#fff"/><path d="M29.03725,28.19623c-3.55132,0-7.45746-1.07462-7.78289-5.1673H27.1151a1.6739,1.6739,0,0,0,.64984,1.393,2.52068,2.52068,0,0,0,1.51055.46533c.94688,0,1.95358-.291,1.95358-1.36558,0-2.43817-9.50127-.4927-9.50127-6.38588,0-3.89094,4.114-5.02436,7.33986-5.02436,3.37492,0,7.34088.75527,7.69571,4.79118H31.16925a1.58294,1.58294,0,0,0-.59205-1.104,1.97611,1.97611,0,0,0-1.24291-.37713c-1.0655,0-1.74575.32036-1.74575,1.07462,0,2.11984,9.79628.69546,9.79628,6.3869C37.38482,26.048,34.72159,28.19623,29.03725,28.19623Z" fill="#fff" fill-rule="evenodd"/><path d="M145.8617,33.34224a1.35633,1.35633,0,0,1-1.86538.33861,1.30167,1.30167,0,0,1-.34571-1.83091,20.25241,20.25241,0,0,0,.01724-23.226,1.30148,1.30148,0,0,1,.34773-1.8299,1.35792,1.35792,0,0,1,1.86437.34165,22.85519,22.85519,0,0,1-.01825,26.20655Z" fill="#fff" fill-rule="evenodd"/><path d="M141.2976,29.8112a1.36448,1.36448,0,0,1-1.88058.26257,1.29958,1.29958,0,0,1-.26562-1.84307,13.07391,13.07391,0,0,0-.0446-15.9784,1.30063,1.30063,0,0,1,.2585-1.8451,1.3604,1.3604,0,0,1,1.87958.25446,15.66655,15.66655,0,0,1,.05272,19.14954Z" fill="#fff" fill-rule="evenodd"/><path d="M136.52872,26.65019a1.36131,1.36131,0,0,1-1.88768.20175,1.2997,1.2997,0,0,1-.20378-1.8522,7.57075,7.57075,0,0,0,.06488-9.53777,1.2962,1.2962,0,0,1,.23014-1.84713,1.3578,1.3578,0,0,1,1.88463.22506,10.0955,10.0955,0,0,1,2.22731,6.35142A10.21682,10.21682,0,0,1,136.52872,26.65019Z" fill="#fff" fill-rule="evenodd"/><path d="M18.36606,26.85194a1.36141,1.36141,0,0,1-1.88768-.20175,10.21877,10.21877,0,0,1-2.31753-6.45887,10.08174,10.08174,0,0,1,2.23136-6.35142,1.356,1.356,0,0,1,1.88362-.22506A1.30055,1.30055,0,0,1,18.506,15.462a7.57072,7.57072,0,0,0,.06285,9.53777A1.29871,1.29871,0,0,1,18.36606,26.85194Z" fill="#fff" fill-rule="evenodd"/><path d="M11.15191,20.27039A12.99349,12.99349,0,0,0,13.8557,28.2307a1.30064,1.30064,0,0,1-.26663,1.84307,1.36174,1.36174,0,0,1-1.87856-.26257,15.66077,15.66077,0,0,1,.0517-19.14954,1.36189,1.36189,0,0,1,1.88059-.25446,1.301,1.301,0,0,1,.25548,1.8451A12.98888,12.98888,0,0,0,11.15191,20.27039Z" fill="#fff" fill-rule="evenodd"/><path d="M5.68757,20.22477A20.14284,20.14284,0,0,0,9.3575,31.84994a1.301,1.301,0,0,1-.34672,1.83091,1.35686,1.35686,0,0,1-1.86639-.33861A22.82993,22.82993,0,0,1,7.12512,7.13569,1.35792,1.35792,0,0,1,8.98949,6.794a1.29935,1.29935,0,0,1,.34976,1.8299A20.16249,20.16249,0,0,0,5.68757,20.22477Z" fill="#fff" fill-rule="evenodd"/><path d="M131.71624,12.77846a1.64913,1.64913,0,0,1-1.65046-1.62409v-.04765A1.659,1.659,0,0,1,131.7132,9.4735h.02332a1.64747,1.64747,0,0,1,1.63626,1.62409v.04867A1.65668,1.65668,0,0,1,131.71624,12.77846Zm1.43047-1.6616a1.42744,1.42744,0,1,0-2.85485.00912v.00912a1.42744,1.42744,0,1,0,2.85485-.00912Zm-1.41323.224h-.34571v.588h-.3234V10.22877h.76745a.69716.69716,0,0,1,.50689.1835.47149.47149,0,0,1,.13991.35381v.01014a.50547.50547,0,0,1-.39437.51095l.45722.64173h-.38625l-.41364-.588Zm.41261-.54744v-.00913c0-.17032-.12571-.2646-.33658-.2646h-.42174v.53934h.42174C132.02038,11.05907,132.14609,10.95566,132.14609,10.79346ZM8.20279,33.8096l-.01318-.001H8.216ZM8.18454,5.908l.01419.001H8.17034Z" fill="#fff" fill-rule="evenodd"/></g></svg>