<svg xmlns="http://www.w3.org/2000/svg" viewBox="0 0 212 40"><g id="E3DE_provider_iheartradio"><path d="M30.22431,6.367a10.35681,10.35681,0,0,0-8.51668,4.53907A10.35822,10.35822,0,0,0,13.19094,6.367,10.11653,10.11653,0,0,0,3,16.41055c0,3.52018,2.262,6.05781,4.6249,8.40662l9.2387,8.60959a.76084.76084,0,0,0,1.28144-.54429V26.17535a3.56288,3.56288,0,0,1,7.12518,0v6.70712a.76023.76023,0,0,0,1.28043.54429l9.23869-8.60959c2.36295-2.34881,4.6249-4.88644,4.6249-8.40662A10.11566,10.11566,0,0,0,30.22431,6.367ZM12.45681,24.15575a.71392.71392,0,0,1-.99667.05958c-3.04355-2.65781-4.58653-5.43275-4.58653-8.24707v-.03333a8.07709,8.07709,0,0,1,3.48281-6.39609.71209.71209,0,0,1,.97345.22013.68978.68978,0,0,1-.22316.95932,6.67381,6.67381,0,0,0-2.8214,5.21664v.03333c0,2.39929,1.38344,4.82282,4.11092,7.205A.68847.68847,0,0,1,12.45681,24.15575Zm4.5421-2.58207a.708.708,0,0,1-.616.35545.71682.71682,0,0,1-.34535-.08785,6.65815,6.65815,0,0,1-3.4606-5.57109V16.249a5.60489,5.60489,0,0,1,3.05365-4.96015.71143.71143,0,0,1,.95325.29284.68954.68954,0,0,1-.29587.93912,4.218,4.218,0,0,0-2.29831,3.73829,5.22666,5.22666,0,0,0,2.73757,4.3674A.68966.68966,0,0,1,16.99891,21.57368Zm4.70872-1.77726a3.02111,3.02111,0,1,1,3.06273-3.02133A3.04258,3.04258,0,0,1,21.70763,19.79642Zm5.669,2.04486a.71588.71588,0,0,1-.34435.08785.70847.70847,0,0,1-.617-.35545.69138.69138,0,0,1,.27164-.9472,5.22775,5.22775,0,0,0,2.73859-4.3674,4.21992,4.21992,0,0,0-2.29832-3.73829.68907.68907,0,0,1-.29688-.93912.71235.71235,0,0,1,.95427-.29284A5.60393,5.60393,0,0,1,30.83726,16.249v.02121A6.656,6.656,0,0,1,27.37667,21.84128Zm9.164-5.873c0,2.81432-1.543,5.58926-4.58552,8.24707a.71393.71393,0,0,1-.99668-.05958.68847.68847,0,0,1,.06059-.98254c2.72748-2.38213,4.1099-4.80566,4.1099-7.20495v-.03333a6.67383,6.67383,0,0,0-2.82139-5.21664.6895.6895,0,0,1-.22216-.95932.71209.71209,0,0,1,.97345-.22013,8.07885,8.07885,0,0,1,3.48181,6.39609Z" fill="#fff" fill-rule="evenodd"/><path d="M120.97943,20.886v4.82081c0,1.00071.45644,1.41978,1.38848,1.41978a4.52957,4.52957,0,0,0,1.92469-.47158v3.92107a7.30593,7.30593,0,0,1-3.52725.81895c-3.04354,0-4.86422-1.31981-4.86422-4.71376V20.886h-1.70657V16.85688h1.70657v-3.608h5.0783v3.608h3.36669V20.886ZM108.162,26.68127v4.42294h-5.07427V16.85688H108.162v2.86987c.829-1.94791,2.165-3.21118,4.56835-3.10717v5.26815h-.42614C109.65953,21.88773,108.162,23.38729,108.162,26.68127Zm-7.04439,4.42294H96.314V29.73087a5.85921,5.85921,0,0,1-4.28762,1.71566c-3.46565,0-5.4792-1.49249-5.4792-4.27652,0-2.89107,2.18118-4.41688,6.33551-4.4704l3.34245-.01414-.005-.10906a2.97384,2.97384,0,0,0-3.11121-2.29427,4.38874,4.38874,0,0,0-3.20613,1.45109L87.09546,19.442a7.61687,7.61687,0,0,1,6.281-2.89813c4.54109,0,7.74721,2.97589,7.74721,7.39984v.05352c0,.04746-.005.08987-.00605.13632ZM96.314,25.35438h-2.8941c-1.27639,0-1.97518.44937-1.97518,1.31578,0,.8967.7816,1.645,2.09737,1.58943A2.68747,2.68747,0,0,0,96.314,25.5099Zm-19.99816.00909a2.97851,2.97851,0,0,0,3.12635,2.34578,4.38869,4.38869,0,0,0,3.20613-1.45109l2.80726,2.29124a7.61619,7.61619,0,0,1-6.281,2.89713c-4.54109,0-7.74722-2.97589-7.74722-7.39984v-.05251a7.19433,7.19433,0,0,1,7.29382-7.45235c4.9965,0,7.29381,3.607,7.29381,7.79467,0,.31506,0,.68364-.02726,1.027Zm2.43262-5.13586A2.54949,2.54949,0,0,0,76.237,22.74h5.02175A2.428,2.428,0,0,0,78.74842,20.22761ZM64.74951,24.0992H58.09692v7.005H52.91158v-18.436h5.18534v6.902h6.65259v-6.902h5.18231v18.436H64.74951ZM45.19163,20.5154A2.63229,2.63229,0,0,1,47.84236,17.902h.18682a2.63229,2.63229,0,0,1,2.65073,2.61337V31.10421H45.19163Zm2.74364-3.8625a2.65605,2.65605,0,1,1,2.69415-2.65578A2.67582,2.67582,0,0,1,47.93527,16.6529Z" fill="#fff" fill-rule="evenodd"/><path d="M199.55329,31.41624a9.20229,9.20229,0,0,1-9.3932-9.36391v-.05049A9.42,9.42,0,0,1,209,21.94933v.05251A9.28961,9.28961,0,0,1,199.55329,31.41624Zm7.28471-9.4144a7.28784,7.28784,0,0,0-7.28471-7.517,7.199,7.199,0,0,0-7.22818,7.46447v.05251a7.28512,7.28512,0,0,0,7.28169,7.516,7.20114,7.20114,0,0,0,7.2312-7.46548Zm-21.29272,9.23263a1.04729,1.04729,0,0,1-1.03-1.04111V13.80829a1.04212,1.04212,0,0,1,2.08423,0V30.19336A1.051,1.051,0,0,1,185.54528,31.23447Zm-14.40283-.13026h-5.38326a1.04554,1.04554,0,0,1-1.029-1.0401V13.93956a1.04643,1.04643,0,0,1,1.029-1.04111h5.38326c5.80435,0,9.81327,3.92713,9.81327,9.05088v.05251C180.95572,27.12457,176.9468,31.10421,171.14245,31.10421Zm7.65129-9.10237c0-4.03114-2.982-7.204-7.65129-7.204h-4.329v14.4089h4.329c4.66934,0,7.65129-3.12131,7.65129-7.15446Zm-18.01793,9.23263a1.13578,1.13578,0,0,1-1.03-.75432l-1.92671-4.18766H147.68672L145.76,30.53165a1.04192,1.04192,0,0,1-1.00273.70282.94194.94194,0,0,1-.95022-.93709,1.18459,1.18459,0,0,1,.13228-.54631l7.49476-16.14878a1.35885,1.35885,0,0,1,1.31982-.91186h.105a1.32754,1.32754,0,0,1,1.29255.91186l7.49476,16.12253a1.43216,1.43216,0,0,1,.13126.52207A.99472.99472,0,0,1,160.77581,31.23447Zm-8.02189-16.12455-4.24824,9.30939h8.49649ZM141.6481,30.21861a1.08441,1.08441,0,0,1-1.05524,1.01586,1.21517,1.21517,0,0,1-.9775-.54731l-5.19846-6.65663h-5.30249v6.16283a1.04161,1.04161,0,0,1-2.08322,0V13.93956a1.04537,1.04537,0,0,1,1.027-1.04111h6.91412a7.34452,7.34452,0,0,1,5.25,1.82068A4.989,4.989,0,0,1,141.6481,18.308v.05251c0,2.991-2.059,4.733-4.93289,5.28027l4.58956,5.82354A1.109,1.109,0,0,1,141.6481,30.21861Zm-2.1115-11.77936v-.05251c0-2.23672-1.7409-3.58885-4.72286-3.58885h-5.69933v7.3847h5.67308C137.55839,22.18259,139.5366,20.778,139.5366,18.43925Z" fill="#fff" fill-rule="evenodd"/></g></svg>