<svg xmlns="http://www.w3.org/2000/svg" viewBox="0 0 138 40"><g id="E3DF_provider_pandora"><path d="M134.811,10.89266a3.0386,3.0386,0,0,1-2.80077,1.92306h-.02235a3.09207,3.09207,0,0,1-.37282-.0254,3.01031,3.01031,0,0,1-2.65856-2.64331,3.203,3.203,0,0,1-.0254-.35353V9.73761a3.03255,3.03255,0,0,1,1.9322-2.77233,3.33553,3.33553,0,0,0,.3576-.18793h1.35619a11.73672,11.73672,0,0,1,1.18451.56584A3.222,3.222,0,0,1,135,9.188v1.34909A3.61971,3.61971,0,0,0,134.811,10.89266Zm-2.84242-3.72928a2.623,2.623,0,0,0-.01219,5.246h.01118a2.62308,2.62308,0,1,0,.001-5.246Zm-.69181,3.06287c0,.30171-.01321.61765.00406.93257.01828.34235-.126.41956-.44393.31188V8.06649c.53943,0,1.06768-.0386,1.58882.01118a.93557.93557,0,0,1,.86756.83708,1.02268,1.02268,0,0,1-.53232,1.1327c-.08228.04775-.17066.08635-.29054.14629.29359.43784.55874.833.84318,1.25766-.33727.12292-.55162.07517-.71111-.21435-.13207-.23874-.31391-.449-.43987-.68877A.63634.63634,0,0,0,131.27681,10.22625Zm1.55937-1.09918a.551.551,0,0,0-.55873-.64c-.3129-.02642-.62985-.0061-.9722-.0061V9.74371a2.99632,2.99632,0,0,0,.96508-.02337A.98934.98934,0,0,0,132.83618,9.12707ZM124.763,26.76472a8.756,8.756,0,0,1-7.82733,1.57868,8.38469,8.38469,0,0,1-4.61614-3.16141,8.63692,8.63692,0,0,1,6.06783-13.74075,7.39568,7.39568,0,0,1,3.34528.321c1.02909.382,2.00738.895,3.01614,1.35417v-1.2221h3.20611V28.10974H124.763Zm-5.29677-12.08284a5.34971,5.34971,0,1,0,5.39227,5.312A5.37784,5.37784,0,0,0,119.46623,14.68188Zm-11.8177.49677a4.50206,4.50206,0,0,0-3.49157,4.61411c-.00711,2.58439-.002,5.1698-.002,7.75419v.56584H100.6664l.001-.5374q0-3.87658,0-7.75418a7.85036,7.85036,0,0,1,7.104-8.21845c.6146-.09448,1.23632-.14527,1.89258-.22044V14.815C108.9712,14.93687,108.29361,14.99782,107.64853,15.17865Zm-18.25227,13.436a8.626,8.626,0,1,1,9.12563-8.56486A8.55855,8.55855,0,0,1,89.39626,28.61464Zm.50287-13.77123a5.1569,5.1569,0,1,0,5.117,5.16268A5.21761,5.21761,0,0,0,89.89913,14.84341ZM79.17045,27.489v.61055h-3.2122V26.77184a8.77218,8.77218,0,0,1-8.02137,1.50959,8.36915,8.36915,0,0,1-4.64865-3.42249,8.57894,8.57894,0,0,1,.9722-10.84449,8.77325,8.77325,0,0,1,11.63585-.78527c.01321-.15848.03454-.29054.03454-.42362.002-1.30032.0386-2.60268-.01118-3.901a2.03513,2.03513,0,0,1,1.13474-2.12724h2.13131c-.00508.30476-.01524.60952-.01524.9153ZM70.6889,14.68188a5.34964,5.34964,0,1,0-.02032,10.69922,5.34977,5.34977,0,1,0,.02032-10.69922Zm-14.7861,13.433v-7.999a5.18333,5.18333,0,1,0-10.366.002q-.00153,3.71049-.001,7.422v.56178H42.04827v-.52216q0-3.75925,0-7.51749a8.68048,8.68048,0,0,1,17.21506-1.57969,6.66641,6.66641,0,0,1,.1219,1.19569c.01016,2.73169.00508,5.46237.00508,8.193,0,.064-.01016.127-.0193.24382ZM36.34108,26.78a8.72722,8.72722,0,0,1-7.46466,1.6508,8.41033,8.41033,0,0,1-4.91989-3.20407,8.62208,8.62208,0,0,1,.50184-10.99992A8.81743,8.81743,0,0,1,36.337,13.25458V11.89533H39.532V28.10568H36.34108ZM31.2302,14.68188a5.3516,5.3516,0,1,0,5.22364,5.42174A5.37025,5.37025,0,0,0,31.2302,14.68188ZM11.46327,28.62581A9.05814,9.05814,0,0,1,6.03849,26.7759v1.4588c0,1.0108-.04064,2.02464.01219,3.03239a1.79506,1.79506,0,0,1-1.17537,1.95556H3V11.8547c.53029.0132,1.06058.03251,1.59086.03962.20013.002.24178.003.44394.003.317,0,.641-.002.97829-.002V13.281a8.90742,8.90742,0,0,1,5.41259-1.921h.02337a9.15628,9.15628,0,0,1,1.48013.126,8.40169,8.40169,0,0,1,5.90225,3.89284,8.50444,8.50444,0,0,1,1.34908,4.58973V19.999a8.71861,8.71861,0,0,1-2.34261,5.92257A8.86283,8.86283,0,0,1,11.46327,28.62581Zm-.13714-13.97542H11.318a5.34965,5.34965,0,1,0-.04064,10.69922h.01321a5.34977,5.34977,0,1,0,.03556-10.69922Z" fill="#fff" fill-rule="evenodd"/></g></svg>