<svg xmlns="http://www.w3.org/2000/svg" viewBox="0 0 113 40"><g id="E3E0_provider_audible"><path d="M94.1212,24.12511l-15.8788-9.9347V11.50726l15.8788,9.93367L110,11.50726v2.68315Zm-.00815-10.67657a5.63763,5.63763,0,0,1,4.64991,2.4661h-.002l-2.22866,1.41647a5.25178,5.25178,0,0,0-4.23719-2.37234,4.81958,4.81958,0,0,0-2.81563.93243A5.63446,5.63446,0,0,1,94.11305,13.44854Zm-8.52739.04484-.01529-.001a10.48766,10.48766,0,0,1,17.10064.00612h-.002l-2.3326,1.40628A10.13088,10.13088,0,0,0,85.96576,13.1734C85.83533,13.27734,85.71,13.38434,85.58566,13.49338Zm18.53648-.58086a14.34966,14.34966,0,0,0-20.758-3.08567,18.03554,18.03554,0,0,0-1.7018,1.61825,14.88943,14.88943,0,0,1,24.91774.00917l-2.42533,1.50921Zm2.45793-1.45825Zm-21.987,13.58492v3.23548H75.4604V29.4639c0,1.49392,1.03637,2.57207,3.13765,2.57207a3.95327,3.95327,0,0,0,3.48514-1.64984L84.32,31.7486c-.85295,1.926-2.887,3.052-5.72195,3.052-3.78169,0-6.21925-1.96269-6.21925-5.28173v-4.4247c0-3.263,2.43756-5.33675,6.21925-5.33675C82.24013,19.75747,84.59311,21.72117,84.59311,25.03919Zm-9.13271,0v.912h6.0511v-.912c0-1.4929-1.03637-2.51705-3.02555-2.51705S75.4604,23.54629,75.4604,25.03919ZM67.17452,14.90476h3.101V34.80065h-3.101ZM60.0738,34.80065a5.39393,5.39393,0,0,1-4.26472-1.94231L54.681,34.46844H52.92009V14.90476h3.02657v6.5484a5.05606,5.05606,0,0,1,4.01708-1.74766c2.86047,0,5.17167,1.6641,5.17167,5.30006v4.495C65.13541,33.13654,62.7967,34.80065,60.0738,34.80065Zm2.035-9.57294A2.78123,2.78123,0,0,0,59.23,22.48036c-2.03606,0-3.28337,1.15458-3.28337,2.729v3.95391l.001.001c-.0479,1.95147,1.339,2.86148,3.25483,2.86148a2.7884,2.7884,0,0,0,2.90633-2.74735ZM48.36392,18.30125a1.69829,1.69829,0,1,1,1.71-1.69875A1.704,1.704,0,0,1,48.36392,18.30125ZM40.89736,32.85834a5.39168,5.39168,0,0,1-4.26369,1.94231c-2.72392,0-5.06161-1.66411-5.06161-5.30007v-4.495c0-3.63494,2.31018-5.30006,5.17166-5.30006a5.05375,5.05375,0,0,1,4.01607,1.74766v-6.5484h3.02657V34.46844H42.02545Zm-.13757-7.649c0-1.57443-1.24629-2.729-3.28337-2.729a2.78183,2.78183,0,0,0-2.87881,2.74735v4.05072a2.789,2.789,0,0,0,2.90632,2.74735c1.91581,0,3.30376-.91,3.25484-2.86148h.001ZM26.49822,33.31793a5.34156,5.34156,0,0,1-4.25758,1.9688c-2.942,0-4.98722-1.99733-4.98722-5.563V20.24253H20.336v9.36505a2.77,2.77,0,0,0,2.95524,2.86149c2.3326,0,3.09586-1.389,3.09586-2.1828V20.24253h3.0816V34.95962H27.67522ZM12.2448,32.86548a5.79317,5.79317,0,0,1-4.45324,1.93517C5.15834,34.80065,3,33.39131,3,30.57058c0-3.99263,4.66622-4.62444,6.55044-4.62444l2.58328-.00407v-1.124c0-1.41036-.86924-2.29592-2.74531-2.29592A3.2059,3.2059,0,0,0,6.11523,24.2158l-2.408-1.47864c.75308-1.79046,2.6913-2.97969,5.68119-2.97969,3.92129,0,5.82589,2.04625,5.82589,4.867v9.845H13.4218Zm-.11108-4.7936h-1.3268c-1.73951.06725-4.57348.44226-4.57348,2.16649,0,1.21674,1.06388,1.7976,2.52112,1.7976a3.87044,3.87044,0,0,0,3.0388-1.28909,1.40974,1.40974,0,0,0,.34036-.8825Zm37.77,6.72877h-3.101V20.24253h3.101Z" fill="#fff" fill-rule="evenodd"/></g></svg>