<svg xmlns="http://www.w3.org/2000/svg" viewBox="0 0 40 40"><defs><style>.cls-1,.cls-2{fill:none;stroke:#fff;stroke-miterlimit:10;stroke-width:1.2px;}.cls-2{fill-rule:evenodd;}.cls-3{fill:#fff;}</style></defs><g id="E3E4_fod_infotainment"><g id="_1-5" data-name="1"><path class="cls-1" d="M20.44632,38.99127s.14405-3.67361-.81552-3.90337c-1.24442-.29791-3.17063-4.39129-3.5163-5.17484l-.213-.56933a7.16157,7.16157,0,0,0-3.27238-3.8934c-2.95493-1.36273-.668-2.56175-.57936-2.58661,2.73952-.79983,3.98057-.21315,5.96776,1.81134.40681-.08825.31244-1.34527.31244-1.34527V10.824c0-.9239.35565-1.82,1.28771-1.82h.89856c.93205,0,1.36131,1.199,1.36131,2.12286L21.88,21.07874"/><path class="cls-2" d="M28.46875,20a1.54287,1.54287,0,0,1,1.38859-1.69987c1.1518,0,1.71022.64512,1.75575,2.03972,0,0,.01027,10.856.01027,11.40229,0,1.11312-2.122,2.19577-2.122,3.34576v3.90337"/><path class="cls-2" d="M25.433,17.83252c0-.94186.7347-1.2982,1.51786-1.30022a1.37927,1.37927,0,0,1,1.51786,1.39293v4.81035"/><path class="cls-2" d="M21.88,16.5a1.58423,1.58423,0,0,1,1.65454-1.7345A1.77888,1.77888,0,0,1,25.433,16.55431v5.45308"/><path class="cls-2" d="M9,20.5H1.5V1.5h37v19H35"/><path class="cls-3" d="M15,14.11719A5.89673,5.89673,0,1,1,25.8999,11h1.2002A7.1001,7.1001,0,1,0,15,16.03442Z"/></g></g></svg>