<svg id="Ebene_1" data-name="Ebene 1" xmlns="http://www.w3.org/2000/svg" viewBox="0 0 40 40"><defs><style>.cls-1,.cls-2{fill:#fff;}.cls-2{fill-rule:evenodd;}</style></defs><path class="cls-1" d="M39.82937,31.18959a.24707.24707,0,0,1-.01559-.11159q-.04019-.31539-.105-.62264a.25459.25459,0,0,0-.00961-.03129c-.03817-.1782-.08112-.35448-.131-.5277a.25478.25478,0,0,0-.28056-.18234l-.741.10564a.25253.25253,0,0,1-.27152-.15769l-.01789-.0442c-.0153-.03866-.03076-.07723-.04676-.11554-.012-.02893-.02449-.05765-.03693-.08637-.00864-.0199-.01677-.04008-.0256-.05988l-.00611-.012q-.09811-.21936-.21047-.43022l-.01454-.02409-.04869-.07231-.03189-.07042-.01289-.02507q-.15586-.26884-.33575-.52187l-.00811-.01267q-.05868-.08225-.11984-.16258a.25223.25223,0,0,1,.01071-.30661l.48073-.58673a.25487.25487,0,0,0-.00884-.33259q-.20985-.23193-.43779-.447a.24429.24429,0,0,1-.08709-.08077c-.13942-.12759-.28405-.2495-.4324-.36691l-.00693-.00656-.01734-.01314-.02124-.01724-.01-.00643c-.14863-.11546-.30082-.22641-.45748-.33111a.25488.25488,0,0,0-.33151.04108l-.503.5608a.25248.25248,0,0,1-.30924.0538l-.001-.00055q-.08952-.04926-.18066-.09585L35.04,26.08559c-.0384-.01957-.07661-.03945-.11544-.05828l-.02243-.00952c-.14031-.0676-.28295-.131-.42829-.18882l-.02679-.00913-.077-.022-.07251-.03464-.026-.01089q-.28849-.10377-.58968-.18163l-.01782-.00555q-.10272-.02634-.20669-.04944a.25217.25217,0,0,1-.187-.24115l-.00882-.75324a.24884.24884,0,0,0-.21614-.24343q-.14895-.02-.29986-.03443-.16476-.01557-.32844-.02393a.2566.2566,0,0,0-.05368.00336.249.249,0,0,0-.05883-.01027q-.15015-.00593-.30176-.00606c-.08539,0-.1703.00189-.255.0047-.00646-.00029-.01275-.00132-.01931-.00111q-.15021.00505-.30141.016-.165.01208-.32785.03108a.25485.25485,0,0,0-.22608.24437l-.02457.74563a.25246.25246,0,0,1-.20066.23961q-.10425.02085-.20729.045L30.44,25.532c-.04389.01025-.08789.02024-.13145.03136l-.02367.00734c-.15173.03919-.30149.08291-.4486.13213L29.81,25.713l-.07331.033-.0768.02012-.027.00851q-.28909.10763-.56568.24107l-.01915.00809q-.09542.04617-.18911.09528a.25217.25217,0,0,1-.29829-.06443l-.47512-.553a.25487.25487,0,0,0-.33123-.04767q-.26538.17046-.51623.36145a.25048.25048,0,0,1-.09043.06588c-.13949.10943-.27428.22448-.406.3429a.25707.25707,0,0,0-.03468.02623q-.23331.21223-.44887.44232a.25488.25488,0,0,0-.01531.33169l.4509.57478a.25249.25249,0,0,1,.00041.31247l-.01154.015q-.05617.07116-.11052.14378l-.0135.01829c-.02362.03187-.0476.06346-.07067.09576l-.0128.02c-.09033.12735-.17678.25754-.25815.39111l-.01342.02476-.0331.069-.04983.07064-.01506.02376q-.15471.27375-.284.56373l-.002.004q-.03927.08791-.07591.17724a.2525.2525,0,0,1-.27456.1514l-.69971-.115a.25479.25479,0,0,0-.2844.17649q-.09407.30294-.16435.61678a.25832.25832,0,0,0-.00593.04525.25394.25394,0,0,0-.01845.05389c-.03624.17268-.06543.34788-.09016.52452a.25574.25574,0,0,0-.00922.04035q-.04231.31437-.05939.63553a.255.255,0,0,0,.20149.26356l.6988.1471a.25271.25271,0,0,1,.20109.23909l.00144.02833c.002.0561.00531.11182.00862.16757.00177.02983.00242.05947.0046.08937l.002.02145.00137.02308.00279.02147c.0131.1575.03072.31356.05423.46754l.00548.02674.0189.07357.00776.092.00381.02816q.05817.31048.145.61122l.00169.00733c.016.05592.03318.11137.05064.16667l.00132.00443a.25253.25253,0,0,1-.11285.293l-.6.35583a.255.255,0,0,0-.10461.31755q.12433.29888.27225.58557a.26106.26106,0,0,1,.04238.08342c.08571.1613.178.31847.27433.47286l.01182.02321c.01146.01822.02383.03575.03543.05386l.00456.00743.00217.00281c.10276.15991.21011.31648.32375.468a.25492.25492,0,0,0,.324.07272l.62077-.33164a.25256.25256,0,0,1,.30724.05328c.01635.01829.0333.036.04984.0541l.05078.05512q.04159.04452.084.08821l.03261.03424.00885.00815c.11244.11409.22836.22464.34853.33043l.02191.01741.0667.04782.06412.06462.02076.01894a6.74214,6.74214,0,0,0,.64979.4731.2526.2526,0,0,1,.101.29644l-.232.66149a.2549.2549,0,0,0,.12254.30975q.2861.15065.5863.27833a.2512.2512,0,0,1,.08411.03365c.17552.07225.35474.13724.53637.19689l.00131.00057.00345.00106c.023.00754.04562.01607.06875.02341l.02806.0062c.17258.05417.347.1039.52419.1462a.255.255,0,0,0,.29636-.15223l.26285-.65428a.25256.25256,0,0,1,.27018-.15657c.032.00467.06422.00839.09633.01261l.01887.00247q.09117.01172.183.02092l.00921.00106.00239.00011c.1616.016.32453.02692.48895.03118.00931.00025.01866,0,.02794-.00067l.08707-.00642.08773.00825c.00928.00087.01863.0013.028.00124a6.73114,6.73114,0,0,0,.799-.05222.25255.25255,0,0,1,.26707.16224l.25294.67044a.255.255,0,0,0,.29216.15869q.31773-.06755.6264-.16061a.25561.25561,0,0,0,.04846-.02067.25875.25875,0,0,0,.041-.0089q.31-.09714.60851-.21883a.25542.25542,0,0,0,.03031-.01566c.167-.06873.33165-.14171.49241-.22124a.25487.25487,0,0,0,.13-.30751l-.22285-.6813a.25258.25258,0,0,1,.107-.29406c.02653-.01626.0525-.0333.07878-.0499l.02531-.016q.07161-.04569.14193-.09316l.014-.0092.00354-.00267q.20223-.13728.394-.28785l.02113-.01851.06571-.06358.06824-.04685.02228-.017q.24159-.20417.46336-.43063l.00216-.002.024-.0253c.03152-.03248.06317-.06481.094-.09793a.25257.25257,0,0,1,.3084-.04686l.64293.36124a.25493.25493,0,0,0,.32519-.06542q.19746-.251.37479-.51852a.25476.25476,0,0,0,.02573-.052.25765.25765,0,0,0,.02787-.03576q.173-.26846.32434-.55148a.25786.25786,0,0,0,.01719-.04061c.08253-.1564.16116-.31509.23321-.47729a.25492.25492,0,0,0-.0976-.32024l-.6229-.38753a.25254.25254,0,0,1-.10665-.29518l.01141-.03532q.02073-.06222.04039-.12489l.02415-.07956c.00634-.02127.01321-.04232.01933-.06369l.00335-.01441c.04357-.15257.08253-.307.11531-.46353l.00439-.02808.00978-.09256.02069-.074.00605-.02665q.04551-.26132.07132-.5299c.00236-.025.00339-.04987.00546-.07486l.00332-.02572c.00278-.03543.00409-.07126.00634-.10684.00157-.025.00418-.05024.00548-.07523a.25273.25273,0,0,1,.20612-.23474l.74148-.13971a.255.255,0,0,0,.207-.25949Q39.865,31.50159,39.82937,31.18959ZM36.573,36.26449c-.017.01876-.03446.03713-.0517.05568s-.03413.03711-.05152.05536l-.01911.01962q-.09356.09732-.19109.19068l-.02485.02318c-.0269.02539-.05387.05071-.08122.07561s-.05507.04932-.08286.0737l-.02546.02259a6.21483,6.21483,0,0,1-1.89892,1.1287l-.01791.00679c-.02933.01085-.05891.02112-.08843.03153l-.06374.02235-.048.01581c-.03548.0117-.071.0234-.10678.03448l-.01019.00308a6.21667,6.21667,0,0,1-1.37661.25806q-.07565.00554-.151.00912l-.0737.0028-.07625.00267q-.07479.0018-.15.0019h-.00341c-.04814,0-.09614-.00071-.144-.00182l-.04831-.0015q-.0486-.0015-.097-.00368-.04854-.00234-.09721-.00548l-.04793-.003q-.07191-.0051-.144-.01177l-.00291-.00026a6.21515,6.21515,0,0,1-1.36964-.287l-.01062-.00346c-.03545-.01181-.07059-.02422-.10573-.03664l-.04783-.0169-.063-.0236c-.02941-.01108-.05888-.022-.0881-.03354l-.01721-.007a6.21459,6.21459,0,0,1-1.85739-1.15343l-.02-.01774c-.01881-.017-.03722-.03451-.05579-.05178-.01844-.01714-.037-.03407-.05525-.05142l-.01967-.01914q-.09729-.09356-.19066-.19108l-.0231-.02475c-.02541-.02693-.05076-.05392-.07569-.08131s-.04932-.05507-.0737-.08286l-.02259-.02546A6.21515,6.21515,0,0,1,26.17438,34.265l-.00695-.01835c-.01082-.02927-.02108-.05879-.03147-.08826l-.02238-.0638-.01586-.04818c-.01167-.03539-.02333-.07078-.03439-.10647l-.00324-.01071a6.21675,6.21675,0,0,1-.25794-1.37622q-.00554-.07557-.00911-.15083l-.00286-.07511-.00262-.07483q-.00178-.07488-.0019-.15017v-.0034q0-.07224.00183-.144l.00149-.04829q.0015-.04861.00369-.097t.00547-.09718l.003-.048c.00341-.04791.00724-.09587.01177-.14394l.00026-.003a6.21738,6.21738,0,0,1,.28722-1.37018l.00322-.00989c.01188-.03566.02437-.071.03686-.10638l.01668-.04723.02385-.06364c.011-.02918.02186-.05842.03328-.0874l.00727-.018a6.21478,6.21478,0,0,1,1.15163-1.855l.01936-.02182c.01658-.01828.03357-.03618.05036-.05426.01761-.01894.035-.03806.05286-.05678l.01794-.01842q.09411-.098.19227-.19189l.023-.02145c.02751-.026.05511-.05186.08309-.07734.02671-.02429.05379-.04815.08092-.072l.02741-.02432a6.21539,6.21539,0,0,1,1.89882-1.12862l.01791-.00678c.02933-.01084.05891-.02113.08843-.03154l.06372-.02234.04826-.0159c.03535-.01165.07069-.0233.10633-.03433l.01094-.00331a6.21646,6.21646,0,0,1,1.376-.2579q.07557-.00552.15082-.00911l.07518-.00285.07477-.00262q.075-.0018.1504-.00191h.00263q.07262,0,.1448.00183l.04755.00148q.049.0015.09778.00371.04815.00231.09644.00543l.0487.00308c.04768.0034.09542.00722.14325.01172l.00367.00032a6.21657,6.21657,0,0,1,1.36943.287l.01062.00346c.03545.0118.07059.02422.10572.03663l.04782.01689.06334.02373c.02924.011.05854.0219.08758.03335l.01808.00729a6.21492,6.21492,0,0,1,1.85522,1.15183l.02157.01915c.01828.01657.03618.03356.05426.05036.01894.0176.03806.035.05678.05286l.01842.01794q.098.09411.19189.19226l.02191.02348c.0258.02732.0515.05472.07681.0825.02487.02736.04932.05508.0737.08287l.02259.02546a6.21511,6.21511,0,0,1,1.12865,1.89881l.00683.018c.01084.02932.02112.05889.03153.0884l.02235.06372.01589.04827c.01165.03534.0233.07069.03433.10632l.00331.011a6.21661,6.21661,0,0,1,.2579,1.376q.00552.07557.00911.15081l.00286.07517L38.178,31.95q.0018.07488.0019.15018v.0034c0,.04815-.00072.09614-.00183.144l-.00149.04831q-.0015.0486-.00369.097t-.00547.09721l-.003.04794c-.00341.04792-.00724.09591-.01177.144l-.00026.00291a6.21573,6.21573,0,0,1-.28723,1.3702L37.862,34.065c-.01188.03566-.02437.071-.03687.10638l-.01667.04724-.0238.06352c-.011.02924-.02191.05854-.03335.08758l-.00716.01777a6.21481,6.21481,0,0,1-1.15291,1.85654Z"/><path class="cls-1" d="M32.00655,30.26636a1.73354,1.73354,0,1,1-1.72422,1.74281l0-.00957a1.72828,1.72828,0,0,1,1.72331-1.73324Z"/><path class="cls-2" d="M20.0073,29.29528a2,2,0,1,1-2,2A2,2,0,0,1,20.0073,29.29528Z"/><path class="cls-1" d="M1.34812,12.29784a25.73377,25.73377,0,0,1,36.383-.8561q.47766.4557.93147.93545l.84034-.85742a26.93445,26.93445,0,0,0-38.07815-.99219q-.46734.44361-.91307.90919Z"/><path class="cls-1" d="M7.50535,18.62327a17.18483,17.18483,0,0,1,24.294-.66046q.36322.344.706.70868l.83886-.85644a18.37881,18.37881,0,0,0-25.981-.74144q-.35554.33581-.69284.69018Z"/><path class="cls-1" d="M12.48853,23.7384l.835.85962a9.535,9.535,0,0,1,12.73205-.54083l.81775-.874A10.728,10.728,0,0,0,12.48853,23.7384Z"/></svg>