<svg xmlns="http://www.w3.org/2000/svg" viewBox="0 0 40 40"><title>E40E_terms_and_conditions</title><g id="E40E_terms_and_conditions"><path d="M19.11523,34.51953a17.69584,17.69584,0,0,1-2.08789-.12305c-.69336-.083-1.34179-.1914-1.94922-.32519a14.54849,14.54849,0,0,1-1.65429-.46094,7.79739,7.79739,0,0,1-1.21289-.52637V30.34961a10.43728,10.43728,0,0,0,1.26172.50488,15.87431,15.87431,0,0,0,1.66015.457q.90821.20068,1.90625.333a15.1192,15.1192,0,0,0,2,.13281c.5,0,.97852-.01855,1.43164-.05566a9.618,9.618,0,0,0,1.252-.17969,5.90276,5.90276,0,0,0,1.0332-.3164,2.849,2.849,0,0,0,.78125-.46973,1.84105,1.84105,0,0,0,.66211-1.46484,2.04983,2.04983,0,0,0-.26367-1.09375,2.23383,2.23383,0,0,0-.77735-.73145,6.58444,6.58444,0,0,0-1.252-.55078c-.49414-.165-1.05859-.34766-1.69727-.54688l-4.1875-1.27343a16.76359,16.76359,0,0,1-1.98632-.76075A7.08045,7.08045,0,0,1,12.416,23.32227a4.43137,4.43137,0,0,1-1.08985-1.35938,3.87365,3.87365,0,0,1-.39648-1.79,4.62257,4.62257,0,0,1,.24414-1.44824,5.99035,5.99035,0,0,1,.68359-1.41406,6.97916,6.97916,0,0,1,1.05078-1.25586,6.75094,6.75094,0,0,1,1.33594-.99121,4.98091,4.98091,0,0,1-.74219-.71,4.10771,4.10771,0,0,1-.55078-.84082,4.316,4.316,0,0,1-.34765-.9961,5.53748,5.53748,0,0,1-.11914-1.17871,4.81119,4.81119,0,0,1,.24023-1.543,4.10861,4.10861,0,0,1,.71289-1.29883,5.13258,5.13258,0,0,1,1.166-1.042,7.25873,7.25873,0,0,1,1.58593-.77344,10.64287,10.64287,0,0,1,1.98243-.47851A15.96764,15.96764,0,0,1,20.52539,6.04a17.891,17.891,0,0,1,2.00781.11035q.97558.11133,1.834.29492a13.08879,13.08879,0,0,1,1.55469.42774,7.05082,7.05082,0,0,1,1.1582.50781V10.124a10.41365,10.41365,0,0,0-1.209-.4873,15.84451,15.84451,0,0,0-1.54687-.43067,17.23555,17.23555,0,0,0-1.791-.30761,15.93258,15.93258,0,0,0-1.93164-.11524,12.7234,12.7234,0,0,0-1.35742.06836,7.7287,7.7287,0,0,0-1.17187.209,5.4856,5.4856,0,0,0-.957.3457,2.8488,2.8488,0,0,0-.71679.47852,1.92784,1.92784,0,0,0-.44532.624,1.90778,1.90778,0,0,0-.15234.76855,2.03072,2.03072,0,0,0,.26367,1.08985,2.29878,2.29878,0,0,0,.77344.73047,6.24425,6.24425,0,0,0,1.25195.55566q.74415.24756,1.69141.54688l4.19727,1.27343a15.94731,15.94731,0,0,1,1.98632.752,7.013,7.013,0,0,1,1.61524,1.01269,4.49705,4.49705,0,0,1,1.08789,1.3584,3.82849,3.82849,0,0,1,.40234,1.79883,4.52046,4.52046,0,0,1-.248,1.44824,6.25376,6.25376,0,0,1-.69141,1.42285,7.06071,7.06071,0,0,1-1.06055,1.26856,6.58162,6.58162,0,0,1-1.35742.99609,5.04278,5.04278,0,0,1,.76367.69141,3.90063,3.90063,0,0,1,.56836.8291,4.14733,4.14733,0,0,1,.35156.99121,5.58893,5.58893,0,0,1,.11914,1.1875,4.56892,4.56892,0,0,1-.26953,1.59375,4.2782,4.2782,0,0,1-.77734,1.32031,5.06443,5.06443,0,0,1-1.24414,1.0293,7.93681,7.93681,0,0,1-1.66992.73926A12.21339,12.21339,0,0,1,21.5,34.36621,17.53506,17.53506,0,0,1,19.11523,34.51953Zm-.44335-17.5c-.4629-.1416-.89258-.28027-1.29493-.41406s-.77929-.27442-1.13281-.42285a5.2437,5.2437,0,0,0-.86719.73926,4.86026,4.86026,0,0,0-.64062.8457,3.96748,3.96748,0,0,0-.39649.89746,3.11358,3.11358,0,0,0-.13672.90137,2.1262,2.1262,0,0,0,.23047,1.02539,2.31194,2.31194,0,0,0,.623.73437,3.94979,3.94979,0,0,0,.92774.53028q.53319.22265,1.14843.41015L21.32031,23.54q.665.21387,1.27735.42285.6123.20947,1.14843.44824a5.31979,5.31979,0,0,0,.877-.74707,4.71,4.71,0,0,0,.63672-.84668,4.19921,4.19921,0,0,0,.39257-.89648,3.17061,3.17061,0,0,0,.13672-.91895,2.17166,2.17166,0,0,0-.22656-1.02539,2.31064,2.31064,0,0,0-.623-.73926,3.85815,3.85815,0,0,0-.93164-.52929c-.35547-.14551-.74023-.28125-1.15039-.40625Z" fill="#fff"/></g></svg>