<svg xmlns="http://www.w3.org/2000/svg" viewBox="0 0 40 40"><defs><style>.cls-1{fill:none;stroke:#fff;stroke-miterlimit:10;stroke-width:1.2px;}.cls-2{fill:#fff;}</style></defs><g id="E411_klemmenwechsel"><g id="_1" data-name="1"><circle class="cls-1" cx="20" cy="20" r="17.5"/><path class="cls-2" d="M7.74129,19.73754a1.983,1.983,0,0,0,.33427.13751,3.47209,3.47209,0,0,0,.41234.10187,4.70484,4.70484,0,0,0,.47462.06228q.2523.02081.52312.02076a3.79372,3.79372,0,0,0,.69031-.05833,2.62054,2.62054,0,0,0,.56363-.16617,1.84591,1.84591,0,0,0,.43715-.26106,1.54768,1.54768,0,0,0,.3134-.34216,1.42722,1.42722,0,0,0,.18694-.40738,1.75138,1.75138,0,0,0,.06328-.45983,1.77,1.77,0,0,0-.05437-.45791,1.27624,1.27624,0,0,0-.1602-.36587,1.26042,1.26042,0,0,0-.26207-.29072,2.08122,2.08122,0,0,0-.358-.2324,3.46045,3.46045,0,0,0-.45-.19189q-.24821-.087-.535-.17-.23529-.06729-.42318-.12962a3.24349,3.24349,0,0,1-.33427-.12951,1.47217,1.47217,0,0,1-.25123-.14339.77231.77231,0,0,1-.17306-.17012.6631.6631,0,0,1-.10086-.20668,1.0057,1.0057,0,0,1,.04851-.6497.8058.8058,0,0,1,.24222-.30257,1.17307,1.17307,0,0,1,.40546-.19483,2.12274,2.12274,0,0,1,.57456-.06916q.24925,0,.47067.02076a3.75219,3.75219,0,0,1,.42034.06227,3.18455,3.18455,0,0,1,.37578.10187,2.50475,2.50475,0,0,1,.33518.14137v-.66257a2.14973,2.14973,0,0,0-.31148-.14035,2.61582,2.61582,0,0,0-.36687-.10187,3.87168,3.87168,0,0,0-.42814-.06136Q10.174,14.00011,9.91094,14a3.632,3.632,0,0,0-.64879.05337,2.36151,2.36151,0,0,0-.52312.15432,1.63286,1.63286,0,0,0-.4015.24526,1.38131,1.38131,0,0,0-.28475.32728,1.41692,1.41692,0,0,0-.16911.39857,1.84454,1.84454,0,0,0-.05539.46084,1.62334,1.62334,0,0,0,.05539.4568,1.243,1.243,0,0,0,.16617.36191,1.30807,1.30807,0,0,0,.26693.28688,2.06091,2.06091,0,0,0,.36.22835,3.65555,3.65555,0,0,0,.446.18693q.24425.08505.52312.16414.22555.06533.41143.12861a3.03886,3.03886,0,0,1,.33224.13346,1.46921,1.46921,0,0,1,.25215.15027.84938.84938,0,0,1,.17609.177.68512.68512,0,0,1,.10379.21367.95117.95117,0,0,1,.03362.26308.86339.86339,0,0,1-.0969.40535.93154.93154,0,0,1-.28384.32242,1.41661,1.41661,0,0,1-.46379.21265,2.42771,2.42771,0,0,1-.64079.07615,4.60686,4.60686,0,0,1-.48555-.02572q-.24226-.02566-.46773-.07028-.22542-.0445-.42419-.10379a3.60855,3.60855,0,0,1-.35108-.12263Z"/><path class="cls-2" d="M14.97509,19.96305V14.72393h1.80966v-.627H12.40393v.627h1.80966v5.23912Z"/><path class="cls-2" d="M21.95886,19.96305l-2.24752-5.86614h-.82681l-2.232,5.86614h.78124l.54166-1.48927h2.62047l.54418,1.48927Zm-1.59448-2.136H18.20071l.85394-2.3338q.05925-.17393.12456-.36293a3.68607,3.68607,0,0,0,.11068-.39057,3.38858,3.38858,0,0,0,.101.39159q.06122.18986.12861.36191Z"/><path class="cls-2" d="M27.48071,19.96305l-1.43195-2.10241a1.85855,1.85855,0,0,0-.21559-.26207.94583.94583,0,0,0-.23138-.171,2.18538,2.18538,0,0,0,.54692-.188,1.42881,1.42881,0,0,0,.71592-.81283,1.90609,1.90609,0,0,0,.10187-.65072,2.06349,2.06349,0,0,0-.11969-.73567,1.2674,1.2674,0,0,0-.36586-.52413,1.61569,1.61569,0,0,0-.619-.31452,3.26991,3.26991,0,0,0-.87916-.10481H23.09989v5.86614h.7615v-2.4544h.64676a1.20451,1.20451,0,0,1,.1602.00982.57963.57963,0,0,1,.13346.03362.6031.6031,0,0,1,.11473.06035.64973.64973,0,0,1,.10481.089,1.20578,1.20578,0,0,1,.10187.12263q.05135.07017.1127.15919l1.34092,1.97978Zm-3.61932-3.04578V14.7061h.99682a2.42615,2.42615,0,0,1,.60414.06522,1.05954,1.05954,0,0,1,.41041.19685.7705.7705,0,0,1,.23534.33326,1.3576,1.3576,0,0,1,.07524.47461,1.38039,1.38039,0,0,1-.08608.51229.87243.87243,0,0,1-.25609.35594,1.08641,1.08641,0,0,1-.42328.20668,2.31968,2.31968,0,0,1-.5854.06632Z"/><path class="cls-2" d="M30.84364,19.96305V14.72393h1.80967v-.627H28.27259v.627h1.80966v5.23912Z"/><path class="cls-2" d="M9.86771,27.70756a1.98257,1.98257,0,0,0,.33426.13751,3.45129,3.45129,0,0,0,.41234.10177,4.6759,4.6759,0,0,0,.47462.06238q.2523.02066.52312.02076a3.79285,3.79285,0,0,0,.69031-.05833,2.62037,2.62037,0,0,0,.56363-.16617,1.84936,1.84936,0,0,0,.43715-.26105,1.54581,1.54581,0,0,0,.31341-.34217,1.42871,1.42871,0,0,0,.18693-.40738,1.75157,1.75157,0,0,0,.06329-.45994,1.7697,1.7697,0,0,0-.05438-.4578,1.27475,1.27475,0,0,0-.1602-.36587,1.25838,1.25838,0,0,0-.26207-.29072,2.08044,2.08044,0,0,0-.358-.2324,3.46478,3.46478,0,0,0-.44991-.19189q-.24834-.087-.53507-.17012-.23529-.06714-.42318-.12952a3.24236,3.24236,0,0,1-.33426-.12951,1.47863,1.47863,0,0,1-.25124-.14339.772.772,0,0,1-.17305-.17012.66266.66266,0,0,1-.10086-.20668,1.00559,1.00559,0,0,1,.0485-.6497.8059.8059,0,0,1,.24222-.30257,1.17334,1.17334,0,0,1,.40546-.19483,2.11818,2.11818,0,0,1,.57456-.06926q.24925,0,.47077.02086a3.75379,3.75379,0,0,1,.42024.06227,3.17947,3.17947,0,0,1,.37579.10187,2.49979,2.49979,0,0,1,.33518.14137v-.66257a2.15592,2.15592,0,0,0-.31149-.14045,2.62927,2.62927,0,0,0-.36687-.10177,3.87168,3.87168,0,0,0-.42814-.06136q-.23043-.02081-.49345-.02076a3.632,3.632,0,0,0-.64879.05337,2.36135,2.36135,0,0,0-.52312.15432,1.63021,1.63021,0,0,0-.40141.24526,1.37973,1.37973,0,0,0-.28485.32728,1.41692,1.41692,0,0,0-.16911.39857,1.84437,1.84437,0,0,0-.05539.46074,1.6236,1.6236,0,0,0,.05539.4569,1.24355,1.24355,0,0,0,.16617.36191,1.30587,1.30587,0,0,0,.26693.28678,2.05574,2.05574,0,0,0,.36.22845,3.65621,3.65621,0,0,0,.446.18693q.24425.085.52312.16414.22557.06532.41143.12861a3.01737,3.01737,0,0,1,.33224.13346,1.46921,1.46921,0,0,1,.25215.15028.8491.8491,0,0,1,.17609.177.68407.68407,0,0,1,.1038.21367.95094.95094,0,0,1,.03362.263.86351.86351,0,0,1-.09691.40545.93243.93243,0,0,1-.28384.32242,1.41647,1.41647,0,0,1-.46378.21255,2.42318,2.42318,0,0,1-.64079.07615,4.60708,4.60708,0,0,1-.48556-.02562q-.24226-.02582-.46773-.07027-.22541-.0445-.42419-.1038a3.60735,3.60735,0,0,1-.35107-.12263Z"/><path class="cls-2" d="M17.74958,27.93307V22.69385h1.80966v-.62692H15.17842v.62692h1.80967v5.23922Z"/><path class="cls-2" d="M23.62484,27.92608a2.18115,2.18115,0,0,0,.64109-.29568,1.97839,1.97839,0,0,0,.47877-.4647,2.59306,2.59306,0,0,0,.3285-.60919,3.538,3.538,0,0,0,.18895-.73183,5.50921,5.50921,0,0,0,.06035-.83065,5.58,5.58,0,0,0-.05934-.83066,3.60944,3.60944,0,0,0-.186-.73081,2.52119,2.52119,0,0,0-.32454-.60717,1.96137,1.96137,0,0,0-.47584-.46075,2.15018,2.15018,0,0,0-.63906-.29275,2.98919,2.98919,0,0,0-.81213-.10187,2.93072,2.93072,0,0,0-.81132.10379,2.19394,2.19394,0,0,0-.63906.29569,1.96364,1.96364,0,0,0-.47776.4648,2.58243,2.58243,0,0,0-.32647.61021,3.599,3.599,0,0,0-.18794.73172,5.48938,5.48938,0,0,0-.06036.82964,5.58671,5.58671,0,0,0,.05934.83167,3.57884,3.57884,0,0,0,.186.73082,2.54042,2.54042,0,0,0,.32344.60615,1.95167,1.95167,0,0,0,.4739.46085,2.14057,2.14057,0,0,0,.63705.29275,2.983,2.983,0,0,0,.81121.10187A2.93849,2.93849,0,0,0,23.62484,27.92608Zm-1.358-.61507a1.41367,1.41367,0,0,1-.437-.23239,1.44028,1.44028,0,0,1-.32535-.36485,2.17563,2.17563,0,0,1-.22349-.48059,3.05951,3.05951,0,0,1-.12759-.5775,5.441,5.441,0,0,1,0-1.31034,3.0825,3.0825,0,0,1,.12759-.5775,2.146,2.146,0,0,1,.22349-.4806,1.4653,1.4653,0,0,1,.32535-.365,1.38863,1.38863,0,0,1,.437-.23239,1.95363,1.95363,0,0,1,1.11349,0,1.37744,1.37744,0,0,1,.43614.23239,1.46,1.46,0,0,1,.32333.365,2.17633,2.17633,0,0,1,.22247.4806,3.13818,3.13818,0,0,1,.1286.5775,5.3183,5.3183,0,0,1,0,1.31034,3.1142,3.1142,0,0,1-.1286.5775,2.20679,2.20679,0,0,1-.22247.48059,1.43514,1.43514,0,0,1-.32333.36485,1.40468,1.40468,0,0,1-.43513.23239,1.93153,1.93153,0,0,1-1.1145,0Z"/><path class="cls-2" d="M27.62846,27.93307V25.71988h1.09566a3.55054,3.55054,0,0,0,.66944-.05732,2.24814,2.24814,0,0,0,.52809-.16516,1.4618,1.4618,0,0,0,.39563-.266,1.37614,1.37614,0,0,0,.27088-.36192,1.71677,1.71677,0,0,0,.15625-.45,2.63475,2.63475,0,0,0,.05043-.529,2.51418,2.51418,0,0,0-.05236-.52606,1.71245,1.71245,0,0,0-.16019-.448,1.45876,1.45876,0,0,0-.27-.361,1.48969,1.48969,0,0,0-.38176-.26693,2.01917,2.01917,0,0,0-.49933-.16516,3.14955,3.14955,0,0,0-.62013-.0564H26.867v5.86614Zm0-2.82036V22.67612h1.066a1.84847,1.84847,0,0,1,.60423.087,1.05832,1.05832,0,0,1,.40839.24526.93931.93931,0,0,1,.23048.38267,1.62678,1.62678,0,0,1,.0721.49943,1.70572,1.70572,0,0,1-.0721.51623.91442.91442,0,0,1-.23341.3846,1.03943,1.03943,0,0,1-.42227.23938,2.13816,2.13816,0,0,1-.63492.082Z"/></g></g></svg>