<svg xmlns="http://www.w3.org/2000/svg" viewBox="0 0 40 40"><defs><style>.cls-1{fill:none;stroke:#fff;stroke-miterlimit:10;stroke-width:1.2px;}.cls-2,.cls-3{fill:#fff;}.cls-3{fill-rule:evenodd;}</style></defs><g id="E41A_fod_performance"><g id="_1-3" data-name="1"><line class="cls-1" x1="23.42917" y1="13.5708" x2="17.49999" y2="19.49999"/><rect class="cls-2" x="24.9484" y="9.18783" width="4.528" height="1.19928" transform="translate(1.05048 22.11075) rotate(-45.00437)"/><rect class="cls-2" x="16.8999" y="3.5" width="1.2002" height="4.5"/><path class="cls-3" d="M17.5,17A2.5,2.5,0,1,1,15,19.5,2.5,2.5,0,0,1,17.5,17Z"/><rect class="cls-2" x="29" y="18.90039" width="4.5" height="1.19922"/><rect class="cls-2" x="1.5" y="18.90039" width="4.5" height="1.19922"/><rect class="cls-2" x="7.18822" y="7.52329" width="1.19924" height="4.52831" transform="translate(-4.63987 8.37446) rotate(-45.00437)"/><rect class="cls-2" x="26.61303" y="26.9483" width="1.19924" height="4.52839" transform="translate(-12.68595 27.79839) rotate(-45)"/><rect class="cls-2" x="5.29709" y="28.70663" width="4.79351" height="1.19928" transform="translate(-18.46919 14.02398) rotate(-45)"/><path class="cls-2" d="M6.20508,31.62988l.84961-.84643a15.39992,15.39992,0,1,1,20.88232.00769l.84668.849a16.60005,16.60005,0,1,0-22.57861-.01026Z"/><path class="cls-2" d="M31.11426,33.96191l4.50439,4.50489q.43433-.41455.84815-.84815l-4.50391-4.50439Z"/><path class="cls-2" d="M32.06641,5.78125l4.40039-4.3999q-.41455-.43359-.84766-.848L31.21777,4.93359Z"/><path class="cls-2" d="M31.606,4.52832l-.84766.84814a19.31115,19.31115,0,0,1,.01221,28.23633l.84668.84851a20.50519,20.50519,0,0,0-.01123-29.933Z"/></g></g></svg>