<svg xmlns="http://www.w3.org/2000/svg" viewBox="0 0 40 40"><g id="E41D_car_dws"><path d="M24.33722,12.78114a21.1159,21.1159,0,0,1,2.50939.40126c2.56187.59575,5.6626,2.89558,7.57457,3.37152,2.29217.57113,3.1702.00657,3.674,1.7577a18.00712,18.00712,0,0,1,.785,5.09694c-.00766,1.39664-3.10291,1.163-3.23147,1.197a4.651,4.651,0,0,1-2.86385,2.62479,4.58546,4.58546,0,0,1-5.20471-2.57172l-2.93005-.0104H18.08548c-1.78615,0-3.28454.00219-5.47058,0a4.53767,4.53767,0,0,1-2.8447,2.604,4.594,4.594,0,0,1-5.08053-2.48364c-.1674-.00165-.74291-.02517-2.13462-.0744-1.12147-.03994-1.43494-1.01042-1.43548-1.78451a4.92181,4.92181,0,0,1,.69476-2.9191c.65319-.8173,1.39992-1.36929,3.98805-1.92564,1.44041-.30909,4.94322-.85888,4.94322-.85888a1.35,1.35,0,0,0,.30143-.07714,3.14154,3.14154,0,0,0,.48633-.401c1.40047-1.15813,3.04055-2.9946,5.3475-3.63247.24844-.06871.51206-.12921.788-.182" fill="none" stroke="#fff" stroke-width="1.2"/><path d="M24.335,15.78947a5.92646,5.92646,0,0,1-6.66183.0111" fill="none" stroke="#fff" stroke-width="1.2"/><path d="M28.55732,18.525a11.06646,11.06646,0,0,1-14.957.15016" fill="none" stroke="#fff" stroke-width="1.2"/><path d="M19.59446,12.803a1.40961,1.40961,0,1,1,1.40925,1.41491A1.41271,1.41271,0,0,1,19.59446,12.803Z" fill="#fff" fill-rule="evenodd"/></g></svg>