<svg xmlns="http://www.w3.org/2000/svg" viewBox="0 0 40 40"><title>E422 Air_distribution_mid_bottom</title><g id="Icon"><polygon points="38.377 24.921 35.818 24.921 35.818 20.856 31.355 20.856 31.355 24.921 28.822 24.921 33.599 29.701 38.377 24.921" fill="#fff" fill-rule="evenodd"/><path d="M29.82584,37.97156a3.114,3.114,0,0,0,1.74959-.64491,3.1768,3.1768,0,0,0,1.0788-1.52183.73758.73758,0,0,0-.01157-.47317.69448.69448,0,0,0-.29078-.35808c-3.26442-2.03094-6.62536-4.04847-9.99117-5.99781a3.735,3.735,0,0,0-2.56562-.4275c-1.23257.24542-2.47366.48475-3.71232.7192a1.70044,1.70044,0,0,1-1.94933-1.20577c-.68875-2.4426-1.34889-4.86937-1.96273-7.21515a4.21172,4.21172,0,0,0-4.09415-3.15145,4.17926,4.17926,0,0,0-.69971.05876l-.978.17082a2.07219,2.07219,0,0,0-1.61927,1.42561,2.092,2.092,0,0,0-.02923,1.12113c.87754,3.43584,1.8111,6.907,2.77511,10.31606a5.83023,5.83023,0,0,0,5.62815,4.24761,5.76537,5.76537,0,0,0,1.04318-.09439c2.14421-.39706,4.21473-.799,6.15523-1.1936a2.75277,2.75277,0,0,1,.538-.053,2.79808,2.79808,0,0,1,1.42135.38548c2.04768,1.2076,3.916,2.33116,5.71159,3.43585a3.17339,3.17339,0,0,0,1.63175.461C29.71166,37.97643,29.7686,37.97461,29.82584,37.97156Z" fill="none" stroke="#fff" stroke-miterlimit="10" stroke-width="1.2" fill-rule="evenodd"/><path d="M6.40886,15.0202a2.89625,2.89625,0,1,0-2.89972-2.89635A2.89709,2.89709,0,0,0,6.40886,15.0202Z" fill="none" stroke="#fff" stroke-miterlimit="10" stroke-width="1.2" fill-rule="evenodd"/><polygon points="25.41 23.326 23.765 21.366 26.881 18.754 24.012 15.334 20.898 17.95 19.27 16.007 18.682 22.738 25.41 23.326" fill="#fff" fill-rule="evenodd"/></g></svg>