<svg id="Icon" xmlns="http://www.w3.org/2000/svg" viewBox="0 0 40 40"><defs><style>.cls-1,.cls-3{fill:none;stroke:#fff;stroke-width:1.2px;}.cls-2{fill:#fff;}.cls-3{stroke-miterlimit:10;}</style></defs><path class="cls-1" d="M24.60794,38.68489l6.4695-17.847,6.4695,17.847L31.0962,34.968Z"/><polygon class="cls-2" points="12.66 17.387 12.66 16.667 9.349 16.667 9.589 17.867 12.42 17.867 12.66 17.387"/><polygon class="cls-2" points="27.51 17.387 27.51 16.667 30.821 16.667 30.581 17.867 27.75 17.867 27.51 17.387"/><rect class="cls-2" x="10" y="19.8" width="5" height="1.2"/><line class="cls-3" x1="12.1246" y1="17.5" x2="27.8754" y2="17.5"/><polygon class="cls-2" points="0.48 22.614 6.911 20.49 1.931 18.368 0.48 22.614"/><polygon class="cls-2" points="39.52 22.614 33.093 20.49 38.074 18.368 39.52 22.614"/><path class="cls-2" d="M15.10693,10.24878a23.05825,23.05825,0,0,1,9.853.01611L25.69141,9.2a24.31547,24.31547,0,0,0-11.32276-.01453Z"/><path class="cls-2" d="M13.03076,7.25806a26.46083,26.46083,0,0,1,13.98389.01379l.71924-1.04712a27.73885,27.73885,0,0,0-15.42871-.01184Z"/><path class="cls-2" d="M10.98535,4.31213a29.964,29.964,0,0,1,18.05518.00965L29.749,3.28931A31.16815,31.16815,0,0,0,10.27,3.28174Z"/><polygon class="cls-2" points="28.929 19.8 25 19.8 25 21 28.498 21 28.929 19.8"/><path class="cls-2" d="M24.90332,25.13672a1.241,1.241,0,0,0,1.08594,1.3789c.04687.00489.09472.00684.12988.00684a.27469.27469,0,0,0,.04981-.00293l.34619-.00024.42962-1.19623-.82855.00116-.0166-1.42383H13.8999l.001,1.26465a.23124.23124,0,0,1-.06885.15527l-2.73.05371-.002-6.47509,1.61865-1.04981v-1.0249a8.36368,8.36368,0,0,1,2.07031-2.3833,45.78754,45.78754,0,0,1,5.21143-.166,45.78718,45.78718,0,0,1,5.21142.166c.42383.07226,1.40528,1.27978,2.07129,2.37353v.7085h.59864l-.32618.50342,1.34473.87256v.97955l.702-1.95441-1.11994-.72632v-.71289l-.082-.14062c-.39551-.67188-1.77832-2.88037-2.9873-3.08594a53.38,53.38,0,0,0-5.4126-.18359,49.82759,49.82759,0,0,0-5.50537.207c-1.16992.398-2.60791,2.60791-2.88428,3.04687l-.09229.14649v.72168L9.8999,18.24658l.00342,6.90967a1.3427,1.3427,0,0,0,.17627.8457,1.08566,1.08566,0,0,0,.83154.51367.8839.8839,0,0,0,.1792.00391l2.78906-.002A1.36046,1.36046,0,0,0,15.1001,25.2002v-.10059h9.80322Z"/></svg>