<?xml version="1.0" encoding="UTF-8"?>
<svg id="Ebene_1" data-name="Ebene 1" xmlns="http://www.w3.org/2000/svg" viewBox="0 0 40 40">
  <defs>
    <style>
      .cls-1 {
        fill: #fff;
      }

      .cls-2 {
        stroke-linejoin: round;
      }

      .cls-2, .cls-3, .cls-4 {
        fill: none;
        stroke: #fff;
        stroke-width: .5px;
      }

      .cls-3 {
        stroke-miterlimit: 10;
      }
    </style>
  </defs>
  <circle class="cls-2" cx="20.04946" cy="10.0206" r="4.7092"/>
  <path class="cls-1" d="m19.62427,30.28418h-9.83472v-8.65039c0-1.57764,1.28369-2.86084,2.86133-2.86084h14.79736c1.57812,0,2.86133,1.2832,2.86133,2.86084v.28314c.17157.10529.3382.21674.5.33551v-.61865c0-1.85303-1.50781-3.36084-3.36133-3.36084h-14.79736c-1.85352,0-3.36133,1.50781-3.36133,3.36084v8.90039c0,.1377.11182.25.25.25h10.26813c-.06592-.16437-.12946-.33002-.18341-.5Z"/>
  <path class="cls-4" d="m26.5345,22.09495c3.31371,0,6,2.68629,6,6s-2.68629,6-6,6-6-2.68629-6-6c-.00008-3.31363,2.68607-5.99992,5.9997-6,.0001,0,.0002,0,.0003,0Z"/>
  <path id="_12" data-name=" 12" class="cls-3" d="m28.87382,30.58599l-2.33764-2.33764v-5.0649"/>
</svg>