<svg xmlns="http://www.w3.org/2000/svg" viewBox="0 0 40 40"><defs><style>.cls-1{fill:none;stroke:#fff;stroke-width:1.2px;}</style></defs><g id="E432_car_smartcard"><g id="V2-11" data-name="V2"><path class="cls-1" d="M9.5,11.5A4.5,4.5,0,1,1,5,16,4.50036,4.50036,0,0,1,9.5,11.5Z"/><path class="cls-1" d="M15.5,11.5A4.5,4.5,0,1,1,11,16,4.50036,4.50036,0,0,1,15.5,11.5Z"/><path class="cls-1" d="M21.5,11.5A4.5,4.5,0,1,1,17,16,4.50036,4.50036,0,0,1,21.5,11.5Z"/><path class="cls-1" d="M27.5,11.5A4.5,4.5,0,1,1,23,16,4.50036,4.50036,0,0,1,27.5,11.5Z"/><path class="cls-1" d="M3.499,7.5H36.5a2,2,0,0,1,2,2V29.499a2,2,0,0,1-2,2H3.5a2,2,0,0,1-2-2v-20A1.999,1.999,0,0,1,3.499,7.5Z"/></g></g></svg>