<svg id="Ebene_1" data-name="Ebene 1" xmlns="http://www.w3.org/2000/svg" viewBox="0 0 40 40"><defs><style>.cls-1,.cls-2{fill:#fff;}.cls-2{fill-rule:evenodd;}</style></defs><path class="cls-1" d="M2.59863,19.26385l4.16407.72022h.06823q.739-.63162,1.5365-1.19141H6.917l-4.1709-.71826c-.00683-.00049-.66992-.05566-.67675-.481V4.11639c.001-.04589.0791-.11523.15039-.11621l35.64257.02a.14707.14707,0,0,1,.03711.09571V17.58612c-.00488.41065-.76855.48779-.83105.49512l-4.11231.71142H31.58472q.79668.55893,1.53589,1.18958l4.09423-.71155c.64649-.04736,1.8711-.458,1.88379-1.67822V4.11444a1.34753,1.34753,0,0,0-.39062-.94531A1.26442,1.26442,0,0,0,37.8125,2.8H2.23145A1.3424,1.3424,0,0,0,.87012,4.10419v13.5A1.77511,1.77511,0,0,0,2.59863,19.26385Z"/><path class="cls-1" d="M23.35449,15.9465l-.72363-1.05761a5.37815,5.37815,0,0,0,.052-8.85337l.73662-1.0502a6.66028,6.66028,0,0,1-.06494,10.96118Z"/><path class="cls-1" d="M16.66,15.9465a6.66151,6.66151,0,0,1-.06495-10.96118l.73663,1.0502a5.37938,5.37938,0,0,0,.05195,8.85337Z"/><path class="cls-2" d="M3.9248,38a18.54753,18.54753,0,0,1-.26666-2.59039c.0249-1.85242,1.25037-1.85242,1.8393-1.85242h.10223l4.04053-.00641.645-.001-.00287.645-.00427.96882A12.034,12.034,0,0,0,10.6496,38h3.99218c-.00927-.10474-.03729-.20343-.04034-.30994a5.27213,5.27213,0,1,1,10.53986-.30444q.00219.07681.00219.15369h.00006c.00177.15759-.02905.30652-.04107.46069h4.31323a11.83988,11.83988,0,0,0,.367-2.83917v-1.611l.64216.001,4.15142.00641c.58783,0,1.81134,0,1.83167,1.83026A18.49291,18.49291,0,0,1,36.14264,38h1.96814a18.36843,18.36843,0,0,0,.20251-2.54547l.00006-.03681A18.31438,18.31438,0,1,0,1.88867,38Zm1.21283-9.37988a16.35462,16.35462,0,0,1,29.815.0401,1.279,1.279,0,0,1-.01606,1.27453,1.71338,1.71338,0,0,1-1.54.73059H6.67377a1.7135,1.7135,0,0,1-1.54-.73059A1.30513,1.30513,0,0,1,5.13763,28.62012Z"/></svg>