<svg id="Ebene_1" data-name="Ebene 1" xmlns="http://www.w3.org/2000/svg" viewBox="0 0 40 40"><defs><style>.cls-1{fill:#fff;}.cls-2{fill:none;stroke:#fff;stroke-miterlimit:10;stroke-width:1.2px;}</style></defs><polygon class="cls-1" points="30.141 15.381 30.141 14.661 32.922 14.661 32.72 15.861 30.343 15.861 30.141 15.381"/><rect class="cls-1" x="27.00031" y="17.99997" width="4.54693" height="1.2"/><line class="cls-2" x1="11.48298" y1="15.49997" x2="30.01421" y2="15.49997"/><polygon class="cls-1" points="10.681 15.861 8.304 15.861 8.102 14.661 10.883 14.661 10.883 15.381 10.681 15.861"/><rect class="cls-1" x="9.47724" y="17.99997" width="4.5" height="1.2"/><path class="cls-2" d="M13.82437,23.5v1.13562a.73843.73843,0,0,1-.80637.80638H10.47724a.89249.89249,0,0,1-.97693-.80638V16.975L11.002,15.76545v-1.008s1.81434-3.02391,3.02391-3.2255c1.20914-.20152,5.27533-.2016,6.48651-.2016,1.21157,0,5.27706.0001,6.48607.2016,1.20957.20159,3.02392,3.2255,3.02392,3.2255v1.008L31.50031,16.975v7.66057a.87075.87075,0,0,1-.95307.80638H28.00649a.73844.73844,0,0,1-.80638-.80638V23.5Z"/><path class="cls-1" d="M20.00685,33.22347A21.9088,21.9088,0,0,1,11.057,31.3547l-2.16327.99249.42609.21851A23.37256,23.37256,0,0,0,20.02559,35h.00226A23.37331,23.37331,0,0,0,30.73378,32.5657l.4259-.21851-2.18274-1.00207A21.90318,21.90318,0,0,1,20.00685,33.22347Z"/><path class="cls-1" d="M3.03835,19.17294a12.11906,12.11906,0,0,1,3.62134-8.42481L6.00661,9.65536A16.71232,16.71232,0,0,0,3.00527,13.977,12.48052,12.48052,0,0,0,4.323,27.52609l.01117-.00885.89239-1.62836A11.65352,11.65352,0,0,1,3.03835,19.17294Z"/><path class="cls-1" d="M19.99835,5.12234a21.891,21.891,0,0,1,9.00622,1.89551l1.45081-.64038A23.19647,23.19647,0,0,0,20.01934,4,23.21542,23.21542,0,0,0,9.579,6.37747l1.43262.63116A21.897,21.897,0,0,1,19.99835,5.12234Z"/><path class="cls-1" d="M38.09267,13.977a16.71707,16.71707,0,0,0-3.00385-4.32165l-.66833,1.11822a12.111,12.111,0,0,1,3.59692,8.39936,11.6459,11.6459,0,0,1-2.165,6.68316l.90906,1.66114.01324.00885A12.48009,12.48009,0,0,0,38.09267,13.977Z"/></svg>