<svg xmlns="http://www.w3.org/2000/svg" viewBox="0 0 40 40"><title>E467_car_inclination_front</title><g id="E467_car_inclination_front"><path d="M39.38985,34.60975H.43973l38.8914-11.69259" fill="none" stroke="#fff" stroke-width="1.2"/><path d="M25.34636,19.52831s-5.29472,1.78612-13.271,4.44879a4.14794,4.14794,0,0,1-1.78376,3.10725,4.27339,4.27339,0,0,1-5.26644-.7454c-.14924.0487-.64957.25213-1.9.62129-1.00773.29769-1.59918-.54431-1.83481-1.24651a4.79518,4.79518,0,0,1-.27177-2.85825c.33146-.93626.8263-1.65966,2.95487-2.93444,1.18446-.70926,4.12832-2.25032,4.12832-2.25032a1.23024,1.23024,0,0,0,.24349-.16023,2.92675,2.92675,0,0,0,.30947-.509c.8907-1.468,1.78847-3.62328,3.64214-4.88865a22.45163,22.45163,0,0,1,8.8748-2.88417c2.4561-.2215,5.90816.94411,7.75083.80823,2.20868-.16259,2.81662-.93626,3.79608.50426a19.25122,19.25122,0,0,1,2.31079,4.58389c.41865,1.27164-2.41919,1.92514-2.52286,1.99426a4.09275,4.09275,0,0,1-7.16017,2.409Z" fill="none" stroke="#fff" stroke-linejoin="round" stroke-width="1.2"/></g></svg>