<svg xmlns="http://www.w3.org/2000/svg" viewBox="0 0 40 40"><title>E468_car_inclination_rear</title><g id="E468_car_inclination_rear"><path d="M.58366,22.91716l38.8914,11.69259H.52494" fill="none" stroke="#fff" stroke-width="1.2"/><path d="M25.62309,23.37s-5.28914-1.63311-13.24-4.11507a4.10828,4.10828,0,0,1-3.23433,1.46272A4.234,4.234,0,0,1,5.3496,17.06783c-.14783-.04746-.66757-.17428-1.886-.6022A1.52229,1.52229,0,0,1,2.712,14.4007a4.74626,4.74626,0,0,1,1.43782-2.45318c.80839-.56019,1.62534-.85507,4.07462-.64577,1.36235.1167,4.62.58353,4.62.58353a1.19652,1.19652,0,0,0,.28866.01245,2.80192,2.80192,0,0,0,.54307-.22952c1.567-.6629,3.537-1.87431,5.75909-1.81674a22.23608,22.23608,0,0,1,8.802,2.82508c2.10072,1.24487,4.19911,4.182,5.7583,5.14054,1.86887,1.14917,2.80563.87919,2.7574,2.60411a19.06327,19.06327,0,0,1-.79906,5.02228c-.40069,1.26354-3.05927.14472-3.1822.14083A4.05454,4.05454,0,0,1,25.62309,23.37Z" fill="none" stroke="#fff" stroke-linejoin="round" stroke-width="1.2"/></g></svg>