<svg xmlns="http://www.w3.org/2000/svg" viewBox="0 0 40 40"><title>E469_car_inclination_right</title><g id="E469_car_inclination_right"><path d="M39.38985,34.60975H.43973l38.8914-11.69259" fill="none" stroke="#fff" stroke-width="1.2"/><polygon points="9.31 17.294 9.122 16.666 6.399 17.48 6.922 18.465 9.226 17.776 9.31 17.294" fill="#fff"/><polygon points="28.424 11.582 28.236 10.954 30.959 10.14 31.062 11.25 28.759 11.939 28.424 11.582" fill="#fff"/><line x1="9.37059" y1="17.73284" x2="28.63384" y2="11.98117" fill="none" stroke="#fff" stroke-miterlimit="10" stroke-width="1.2"/><rect x="7.88043" y="20.15044" width="5.3236" height="1.3122" transform="translate(-5.51633 3.88988) rotate(-16.63899)" fill="#fff"/><rect x="26.61592" y="14.55126" width="5.3236" height="1.3122" transform="translate(-3.12856 9.02016) rotate(-16.63899)" fill="#fff"/><path d="M28.64844,11.97158l-.31311-1.04771s-2.82521-2.57953-4.14509-2.41334-5.30116,1.356-6.55842,1.73176-5.23854,1.56556-6.43317,2.15083c-1.132.79482-2.14117,4.292-2.14117,4.292l.31311,1.04771L7.65091,19.61631l2.37965,7.96259a.8011.8011,0,0,0,1.08866.58768l3.35267-1.002a.94076.94076,0,0,0,.58768-1.08866l-.31312-1.04771,13.41068-4.00784.31311,1.04771a.80109.80109,0,0,0,1.08866.58768l3.35157-1.00163a.8011.8011,0,0,0,.58768-1.08866L31.1185,12.60293l-2.47116-.631" fill="none" stroke="#fff" stroke-miterlimit="10" stroke-width="1.2"/></g></svg>