<svg xmlns="http://www.w3.org/2000/svg" viewBox="0 0 40 40"><title>E46A_car_inclination_left</title><g id="E46A_car_inclination_left"><path d="M.43973,34.60975H39.38985L.49845,22.91716" fill="none" stroke="#fff" stroke-width="1.2"/><polygon points="30.519 17.294 30.707 16.666 33.43 17.48 32.908 18.465 30.604 17.776 30.519 17.294" fill="#fff"/><polygon points="11.406 11.582 11.594 10.954 8.871 10.14 8.767 11.25 11.071 11.939 11.406 11.582" fill="#fff"/><line x1="30.45899" y1="17.73284" x2="11.19574" y2="11.98117" fill="none" stroke="#fff" stroke-miterlimit="10" stroke-width="1.2"/><rect x="28.63126" y="18.14474" width="1.3122" height="5.3236" transform="translate(0.96588 42.90982) rotate(-73.36101)" fill="#fff"/><rect x="9.89576" y="12.54556" width="1.3122" height="5.3236" transform="translate(-7.04016 20.96291) rotate(-73.36101)" fill="#fff"/><path d="M11.18224,11.9719l-2.47116.631L6.33143,20.56552a.8011.8011,0,0,0,.58768,1.08866l3.35157,1.00163a.80109.80109,0,0,0,1.08866-.58768l.31311-1.04771,13.41068,4.00784L24.77,26.076a.94076.94076,0,0,0,.58768,1.08866l3.35267,1.002A.8011.8011,0,0,0,29.799,27.5789l2.37965-7.96259L30.459,17.73284l.31311-1.04771s-1.00916-3.49719-2.14117-4.292c-1.19463-.58527-5.17592-1.7751-6.43317-2.15083s-5.23855-1.56556-6.55842-1.73176-4.14509,2.41334-4.14509,2.41334l-.31311,1.04771" fill="none" stroke="#fff" stroke-miterlimit="10" stroke-width="1.2"/></g></svg>