<svg xmlns="http://www.w3.org/2000/svg" viewBox="0 0 40 40"><g id="E46B_car_steering_wheel_angle"><path d="M35.72711,5.47584l1.22716,8.07508L30.50519,9.14685Z" fill="#fff" fill-rule="evenodd"/><path d="M23.87017,3.65875a18.56124,18.56124,0,0,1,10.78729,5.19" fill="none" stroke="#fff" stroke-width="1.2"/><path d="M4.28743,5.47584,3.06026,13.55092,9.50934,9.14685Z" fill="#fff" fill-rule="evenodd"/><path d="M5.29956,8.79288a18.55985,18.55985,0,0,1,10.5768-5.07827" fill="none" stroke="#fff" stroke-width="1.2"/><path d="M20.00952,10.81958A11.42577,11.42577,0,1,0,31.412,22.24567,11.45613,11.45613,0,0,0,20.00952,10.81958Zm-9.29529,7.18518a10.20337,10.20337,0,0,1,18.60108.025.798.798,0,0,1-.01.79517,1.069,1.069,0,0,1-.96076.45581H11.67261a1.06907,1.06907,0,0,1-.96082-.45581A.81425.81425,0,0,1,10.71423,18.00476Zm12.48136,5.56453a3.25145,3.25145,0,0,1-3.192,3.28689h-.00224a3.28919,3.28919,0,1,1,3.19421-3.28689ZM11.95306,27.74915a1.22464,1.22464,0,0,1-1.03448-.81867l-.04218-.09058a10.19849,10.19849,0,0,1-1.0852-4.36938c.01556-1.1557.78009-1.1557,1.14752-1.1557h.06378l2.52082-.004.4024-.00061-.00177.40241-.00269.60443a6.13815,6.13815,0,0,0,.74433,2.925l.153.28094-.24048.211-2.055,1.80273A.92262.92262,0,0,1,11.95306,27.74915Zm14.07746,2.74676a.6296.6296,0,0,1-.08484.07636,10.18568,10.18568,0,0,1-11.84979.01678.57033.57033,0,0,1-.11316-.09344.88481.88481,0,0,1-.32862-.65271,1.69865,1.69865,0,0,1,.66376-1.17634l1.59833-1.40338.24164-.212.259.19031a6.06794,6.06794,0,0,0,7.18384-.00031l.259-.1897.24127.21179,1.58264,1.38947a1.71189,1.71189,0,0,1,.68073,1.19177A.87911.87911,0,0,1,26.03052,30.49591Zm3.06775-3.56628a1.207,1.207,0,0,1-1.03424.81952.902.902,0,0,1-.55054-.19593l-2.08-1.81891-.2428-.21246.15619-.28229a6.04781,6.04781,0,0,0,.743-2.92425V21.31024l.40064.00061,2.59.004c.36676,0,1.13006,0,1.14276,1.14185a10.18455,10.18455,0,0,1-1.08783,4.394Z" fill="#fff" fill-rule="evenodd"/></g></svg>