<svg id="E46F_itm" xmlns="http://www.w3.org/2000/svg" viewBox="0 0 40 40"><polygon points="12.408 12.017 6.623 12.017 4.538 15.16 10.836 15.16 10.836 29.871 13.98 29.871 13.98 15.16 18.193 15.16 20.278 12.017 12.408 12.017" fill="#fff"/><rect x="4.53823" y="17.25558" width="4.17975" height="12.61567" fill="#fff"/><polygon points="22.362 12.017 20.278 15.16 23.484 15.16 25.568 12.017 22.362 12.017" fill="#fff"/><polygon points="27.652 12.017 25.568 15.16 28.774 15.16 30.858 12.017 27.652 12.017" fill="#fff"/><polygon points="32.943 12.017 30.858 15.16 34.064 15.16 36.148 12.017 32.943 12.017" fill="#fff"/><path d="M31.83878,29.87072V22.34626A3.62429,3.62429,0,0,0,31.7034,21.291a1.86984,1.86984,0,0,0-.41124-.73737,1.64873,1.64873,0,0,0-.69122-.43586,3.01513,3.01513,0,0,0-.9712-.14153,5.46819,5.46819,0,0,0-.74968.04923,4.69361,4.69361,0,0,0-.67994.14768,4.62737,4.62737,0,0,0-.61943.2328,4.05674,4.05674,0,0,0-.5497.30664v9.15816H23.95742V22.34626A3.54883,3.54883,0,0,0,23.819,21.291a1.89864,1.89864,0,0,0-.4133-.73737,1.65509,1.65509,0,0,0-.69122-.43586,3.02389,3.02389,0,0,0-.9712-.14153,5.4463,5.4463,0,0,0-.74967.04923,4.73758,4.73758,0,0,0-.681.14768,4.3908,4.3908,0,0,0-.61328.2328,3.875,3.875,0,0,0-.47557.30715v9.15817l-3.1477-.00052-.00985-12.61514h3.15755l-.00131,1.07462a2.41258,2.41258,0,0,1,.522-.39484,4.46,4.46,0,0,1,.86145-.46252,5.09486,5.09486,0,0,1,.98008-.28305,6.01647,6.01647,0,0,1,1.11785-.09743,5.9281,5.9281,0,0,1,1.18246.11179,4.09416,4.09416,0,0,1,1.00539.33638,3.50433,3.50433,0,0,1,.81839.55687,3.41069,3.41069,0,0,1,.62764.76916,5.4076,5.4076,0,0,1,.84813-.74865A5.457,5.457,0,0,1,29.318,17.2103a6.536,6.536,0,0,1,1.26758-.11794,5.72967,5.72967,0,0,1,1.31476.14153,4.0142,4.0142,0,0,1,1.084.41842,3.29874,3.29874,0,0,1,.843.68712,3.80486,3.80486,0,0,1,.603.94351,5.12649,5.12649,0,0,1,.3881,1.18608,6.40352,6.40352,0,0,1,.164,1.43574v7.96648Z" fill="#fff"/></svg>