<svg xmlns="http://www.w3.org/2000/svg" viewBox="0 0 40 40"><g id="E46F_itm_3"><polygon points="12.506 4.997 6.997 4.997 5.012 7.99 11.01 7.99 11.01 21.999 14.003 21.999 14.003 7.99 18.015 7.99 20 4.997 12.506 4.997" fill="#fff"/><rect x="5.01233" y="9.9855" width="3.9801" height="12.01304" fill="#fff"/><polygon points="21.985 4.997 20 7.99 23.053 7.99 25.038 4.997 21.985 4.997" fill="#fff"/><polygon points="27.022 4.997 25.038 7.99 28.09 7.99 30.075 4.997 27.022 4.997" fill="#fff"/><polygon points="32.06 4.997 30.075 7.99 33.128 7.99 35.113 4.997 32.06 4.997" fill="#fff"/><path d="M31.00879,21.99805V14.833a3.45126,3.45126,0,0,0-.12891-1.00489,1.7805,1.7805,0,0,0-.3916-.70214,1.56987,1.56987,0,0,0-.6582-.415,2.8709,2.8709,0,0,0-.92481-.13477,5.20715,5.20715,0,0,0-.71386.04688,4.46914,4.46914,0,0,0-.64746.14062,4.40671,4.40671,0,0,0-.58985.22168,3.86565,3.86565,0,0,0-.52344.292v8.72071H23.50391V14.833a3.37946,3.37946,0,0,0-.13184-1.00489,1.80814,1.80814,0,0,0-.39355-.70214,1.57614,1.57614,0,0,0-.65821-.415,2.87925,2.87925,0,0,0-.9248-.13477,5.18661,5.18661,0,0,0-.71387.04688,4.51124,4.51124,0,0,0-.64844.14062,4.18186,4.18186,0,0,0-.584.22168,3.68991,3.68991,0,0,0-.45285.29249v8.7207L15.999,21.99805,15.98964,9.9855h3.00673l-.00125,1.02329a2.29733,2.29733,0,0,1,.49707-.376,4.24672,4.24672,0,0,1,.8203-.44043,4.85207,4.85207,0,0,1,.93326-.26953,5.7296,5.7296,0,0,1,1.06445-.09277,5.645,5.645,0,0,1,1.126.10644,3.89871,3.89871,0,0,1,.95737.32032,3.337,3.337,0,0,1,.7793.53027,3.248,3.248,0,0,1,.59766.73242,5.14884,5.14884,0,0,1,.80761-.71289,5.19662,5.19662,0,0,1,2.03028-.86426,6.22431,6.22431,0,0,1,1.207-.1123,5.45613,5.45613,0,0,1,1.252.13476,3.82261,3.82261,0,0,1,1.03223.39844,3.141,3.141,0,0,1,.80273.6543,3.62259,3.62259,0,0,1,.57422.89844,4.88154,4.88154,0,0,1,.36956,1.12942,6.09754,6.09754,0,0,1,.15616,1.36716v7.58594Z" fill="#fff"/><path d="M12.81233,35.0346q.34707.14063.76684.27051.4196.12891.89429.22852.4746.09815.99975.1582a9.72221,9.72221,0,0,0,1.07886.05957,4.65556,4.65556,0,0,0,1.314-.168,2.82273,2.82273,0,0,0,.9602-.46972,2.00789,2.00789,0,0,0,.59107-.7295,2.18836,2.18836,0,0,0,.20214-.94922,2.45136,2.45136,0,0,0-.20874-1.02343,2.09674,2.09674,0,0,0-.624-.791,2.93235,2.93235,0,0,0-1.03931-.50781,5.32728,5.32728,0,0,0-1.459-.17774H15.04914V29.52874H16.2884a4.56826,4.56826,0,0,0,1.21509-.14746,2.43064,2.43064,0,0,0,.88769-.4375,1.87081,1.87081,0,0,0,.54492-.7207,2.48931,2.48931,0,0,0,.18677-.99707,2.03166,2.03166,0,0,0-.08789-.61328,1.81,1.81,0,0,0-.24829-.50586,1.75585,1.75585,0,0,0-.39331-.39746,2.22,2.22,0,0,0-.523-.2832,3.18449,3.18449,0,0,0-.635-.169,4.47726,4.47726,0,0,0-.73169-.05762,7.97236,7.97236,0,0,0-.9624.05762,8.45179,8.45179,0,0,0-.90308.1582,7.70914,7.70914,0,0,0-.81079.23438,5.95428,5.95428,0,0,0-.67236.2832V24.46136q.18887-.09668.42187-.1914.23292-.09375.501-.17774.268-.08349.5625-.14941.29434-.06593.60864-.10938.31411-.04393.6438-.07031c.21973-.01758.44232-.02734.668-.02734a7.08638,7.08638,0,0,1,1.84351.21777,3.742,3.742,0,0,1,1.34912.64844,2.74836,2.74836,0,0,1,.82837,1.07031,3.64125,3.64125,0,0,1,.28125,1.47852,3.46555,3.46555,0,0,1-.12085.92285,3.04946,3.04946,0,0,1-.35816.81738,3.22015,3.22015,0,0,1-.58667.69043,3.65744,3.65744,0,0,1-.80639.54,4.08031,4.08031,0,0,1,1.0415.56055,3.3339,3.3339,0,0,1,.74048.76464,3.19715,3.19715,0,0,1,.44385.93555,3.81465,3.81465,0,0,1,.14721,1.06641,3.9389,3.9389,0,0,1-.13183,1.03222,3.29439,3.29439,0,0,1-.39551.90528,3.23759,3.23759,0,0,1-.66138.752,3.93012,3.93012,0,0,1-.92724.57031,5.40713,5.40713,0,0,1-1.19312.36524,7.77917,7.77917,0,0,1-1.46338.127q-.61533,0-1.158-.04785a9.86683,9.86683,0,0,1-1.01513-.14063,6.94552,6.94552,0,0,1-.87452-.22656,4.88213,4.88213,0,0,1-.73168-.30566Z" fill="#fff"/><path d="M24.937,32.98451V29.99736H21.9733V28.99272H24.937V26.06921h1.1185v2.92351h2.96705v1.00464H26.0555v2.98715Z" fill="#fff"/></g></svg>