<svg id="Icon" xmlns="http://www.w3.org/2000/svg" viewBox="0 0 40 40"><defs><style>.cls-1,.cls-2{fill:none;stroke:#fff;stroke-miterlimit:10;}.cls-1{stroke-width:1.2px;}.cls-2{stroke-width:1.2px;}.cls-3{fill:#fff;}</style></defs><g id="V2"><path class="cls-1" d="M32.13611,36.91408a4.90718,4.90718,0,0,1,4.90728-4.90729"/><path class="cls-1" d="M36.85711,27.89465A8.83307,8.83307,0,0,0,28.024,36.72779"/><path class="cls-2" d="M36.84432,23.83739A12.58356,12.58356,0,0,0,23.96671,36.715"/><circle class="cls-3" cx="36.83189" cy="36.70257" r="1.25679"/><path class="cls-3" d="M21.64557,34.20013c-.69025.74952-1.32318,1.38648-1.85346,1.89185l-.00085-.00159c-.56836.54218-1.02649.94593-1.31909,1.19428-.2926-.24829-.75073-.652-1.31915-1.19422l-.0008.00153A43.27652,43.27652,0,0,1,7.51,22.32733l.0025-.00018c-.19671-.44873-.38189-.9018-.55951-1.35755-.01886-.04876-.03869-.09637-.05743-.14532q-.2711-.7046-.51245-1.41925c-.00769-.02283-.01441-.04651-.0221-.0694q-.22155-.66292-.41583-1.334c-.03137-.10742-.06024-.21692-.0907-.32514-.10827-.3858-.21148-.77288-.30652-1.162-.0224-.09131-.04406-.18323-.06585-.27509q-.15272-.64728-.28186-1.29993c-.00959-.04852-.0196-.09662-.029-.14532A35.41716,35.41716,0,0,1,4.6004,10.2525c-.00146-.02539-.00439-.05-.0058-.07538A44.57846,44.57846,0,0,0,10.80817,8.069a24.18081,24.18081,0,0,0,7.66345-4.80969,24.1774,24.1774,0,0,0,7.6629,4.80914,44.57592,44.57592,0,0,0,6.21423,2.10822c-.0014.02563-.00433.05041-.00579.076a35.4,35.4,0,0,1-.57038,4.53931c-.00964.05017-.02.09985-.0299.1499q-.12791.65076-.281,1.296c-.02191.09235-.0437.18482-.06622.27668-.09522.38977-.19849.77758-.307,1.164-.03009.10693-.05871.21527-.08966.32141q-.194.667-.41345,1.3266c-.00879.02618-.01648.05334-.02533.07947q-.24042.71447-.51221,1.4187c-.01837.04809-.0379.09485-.05639.14276-.1778.45636-.36323.91-.56019,1.35931l.00257.00019c-.16022.37048-.32642.73242-.49469,1.09082a14.91052,14.91052,0,0,1,1.68457-.84937c.02142-.05035.04535-.09711.06665-.1477l.00049.00006.01068-.02668q.25424-.60525.49206-1.23028c.06061-.15814.12085-.31629.1792-.47522.10773-.29474.21057-.59418.31226-.89533.06927-.20507.1402-.40966.20581-.6159.09851-.30957.19006-.62525.28155-.94122.05164-.17884.10706-.35657.15589-.53614q.19611-.71767.36554-1.45685l.0086-.03491a35.5998,35.5998,0,0,0,.84247-6.0625c.00739-.13452.02088-.26843.0268-.40307l.01953-.48682-.00037-.00012V9.25537l-.47217-.11963a43.36644,43.36644,0,0,1-6.64965-2.23291c-5.45832-2.37195-7.49952-4.87207-7.52625-4.90576l-.26532-.33234L18.472,1.40625l-.00042.00055-.00043-.00055-.21075.26508-.26007.3258c-.02448.03089-1.74164,2.13434-6.23182,4.31183A41.53661,41.53661,0,0,1,3.82465,9.13623l-.47217.11963v.00043l-.00037.00012.01953.48682c.00641.14526.02082.28967.02893.43475a35.60969,35.60969,0,0,0,.84021,6.029l.01325.05371q.16782.72986.36127,1.43939c.04931.18146.10528.361.15747.54175.09088.31354.1817.62683.27948.934.06628.20831.13787.41492.20788.62207.10089.29871.20294.59589.30982.88837.0592.16131.12036.32184.18188.48236q.23648.621.48889,1.22211l.01221.03051.00055-.00006a43.78588,43.78588,0,0,0,11.85193,16.115l.3667.28321.00012-.00007.00006.00007.3667-.28321a30.66853,30.66853,0,0,0,2.64789-2.43744A15.48829,15.48829,0,0,1,21.64557,34.20013Z"/></g></svg>