<svg xmlns="http://www.w3.org/2000/svg" viewBox="0 0 40 40"><g id="E474_manoeverassi_off"><path d="M27.8,31.5h5.6L30.6,21.4Z" fill="none" stroke="#fff" stroke-linejoin="round" stroke-width="1.2"/><path d="M26.7,33.6h7.9" fill="none" stroke="#fff" stroke-width="1.2"/><path d="M22.4,21.3v-.6l-1,1a1.40087,1.40087,0,0,0,1.2.9h3l.1-1.1H22.6A.21508.21508,0,0,1,22.4,21.3Z" fill="#fff"/><path d="M5.5,22.7H8.7A1.32372,1.32372,0,0,0,10,21.4V21h5.8l1.1-1.1h-8v1.5a.21508.21508,0,0,1-.2.2H5.6c-.2,0-.2,0-.2-.2v-5H9.3V15.2H5.4v-.8l1.4-1.1H23.6l1.5-1.5-.1-.2c-.3-.5-1.9-2.9-3.2-3.3a42.37451,42.37451,0,0,0-6.2-.2c-2.1,0-4.1,0-6.2.2-1.3.4-2.9,2.8-3.2,3.3l-.1.1v.2H4.3l.2,1H5.7l-1.4.8v7.7A1.3805,1.3805,0,0,0,5.5,22.7ZM9.8,9.3a58.15413,58.15413,0,0,1,5.9-.2,58.15413,58.15413,0,0,1,5.9.2A8.48251,8.48251,0,0,1,24,11.9H7.3A10.30309,10.30309,0,0,1,9.8,9.3Z" fill="#fff"/><polygon points="31.2 14 30.7 12.4 26.2 17 27.8 17.9 27.2 22.4 30.6 19 34.6 20.7 32.3 16.8 35.7 11.2 31.2 14" fill="#fff"/><path d="M36.3,3.7,3.7,36.3" fill="none" stroke="#fff" stroke-width="1.5"/></g></svg>