<svg id="Ebene_1" data-name="Ebene 1" xmlns="http://www.w3.org/2000/svg" viewBox="0 0 40 40"><defs><style>.cls-1,.cls-2{fill:#fff;}.cls-2{fill-rule:evenodd;}.cls-3{fill:none;stroke:#fff;stroke-miterlimit:10;stroke-width:1.2px;}</style></defs><path class="cls-1" d="M9.35528,3.66189a4.67054,4.67054,0,0,0-3.0625-.88476H2.77569V14.28591h1.5v-4.5h1.9331c2.62256-.05859,4.0669-1.32617,4.0669-3.56933A3.53414,3.53414,0,0,0,9.35528,3.66189ZM8.6756,6.22146A1.88739,1.88739,0,0,1,7.13187,8.23865a6.35278,6.35278,0,0,1-.68854.0459L4.27569,8.283V4.28591H6.687A1.7331,1.7331,0,0,1,8.6756,6.22146Z"/><path class="cls-2" d="M24.84,31.22886a17.38661,17.38661,0,0,1-2.58545-.18176L21.821,34.02232a9.407,9.407,0,0,0,3.02051.43127,9.40588,9.40588,0,0,0,3.02-.43127l-.43555-2.97522A17.40382,17.40382,0,0,1,24.84,31.22886Zm.00049-8.75635a8.53509,8.53509,0,0,1,2.5957.42725l.86135-3.66638a8.22012,8.22012,0,0,0-3.456-.6128,8.221,8.221,0,0,0-3.45655.6128l.85987,3.66638a8.53176,8.53176,0,0,1,2.59568-.42725Zm3.88184,7.646c-.02051-.79285.03173-3.84351.019-6.97876l-.0083-.67212a14.87808,14.87808,0,0,1-1.18848,2.19312,24.47354,24.47354,0,0,0-.07178,3.85766,35.82526,35.82526,0,0,0,1.252,3.85768l-.00048-.09253C28.7199,31.64414,28.74285,30.89805,28.72235,30.11851Zm-6.53079-1.59985a24.54832,24.54832,0,0,0-.07129-3.85767,15.58811,15.58811,0,0,1-1.1538-2.19312l-.00831.67212c.02247,3.11914.022,6.18592.00147,6.97889-.02051.77941.00244,1.52551-.00147,2.16491l-.00048.09253A35.86,35.86,0,0,0,22.19156,28.51866Z"/><circle class="cls-3" cx="8.28048" cy="30.62128" r="6"/><line class="cls-3" x1="2.72379" y1="28.97787" x2="13.78962" y2="28.97787"/><line class="cls-3" x1="10.5077" y1="32.47675" x2="12.47464" y2="34.44369"/><line class="cls-3" x1="6.05325" y1="32.47675" x2="4.08632" y2="34.44369"/><path class="cls-2" d="M11.68411,29.53833l-.02734-.52246L8.78048,29.038l-3.988-.02111-.00586.5459a9.45969,9.45969,0,0,0,.18164,1.7959,3.3157,3.3157,0,0,0,3.3125,2.626,3.42694,3.42694,0,0,0,3.2168-2.60254A7.16008,7.16008,0,0,0,11.68411,29.53833ZM8.23711,33.011a1.65625,1.65625,0,1,1,1.65625-1.65625A1.65625,1.65625,0,0,1,8.23711,33.011Z"/><path id="_2" data-name=" 2" class="cls-1" d="M31.397,37.71624V36.56781l2.98047-2.86719q.48486-.46435.89258-.875.40869-.41016.74219-.7832.334-.37353.58789-.7168a5.4609,5.4609,0,0,0,.42773-.67188,3.15782,3.15782,0,0,0,.26172-.65039,2.47349,2.47349,0,0,0,.08789-.65429,2.42241,2.42241,0,0,0-.14648-.86328,1.663,1.663,0,0,0-.44531-.65625,2.02543,2.02543,0,0,0-.75782-.41407,3.61108,3.61108,0,0,0-1.084-.14453q-.4922,0-.93164.03906a7.65472,7.65472,0,0,0-.83594.11915,6.40193,6.40193,0,0,0-.752.19921,5.00067,5.00067,0,0,0-.67969.28321V26.59124a4.12943,4.12943,0,0,1,.625-.28125,5.59587,5.59587,0,0,1,.74023-.20507,7.46556,7.46556,0,0,1,.85744-.125q.457-.041.98437-.041a6.904,6.904,0,0,1,1.27148.10742,4.4469,4.4469,0,0,1,1.01172.3086,2.83892,2.83892,0,0,1,.76171.49414,2.66321,2.66321,0,0,1,.5254.66406,2.98982,2.98982,0,0,1,.30469.81836,4.46988,4.46988,0,0,1,.09766.959,3.64762,3.64762,0,0,1-.125.959,4.40435,4.40435,0,0,1-.35352.89453,6.20667,6.20667,0,0,1-.54687.85547q-.31788.4204-.70508.83984-.38672.42041-.834.84766-.44676.42773-.92382.873L33.4243,36.478h5.96484v1.23824Z"/><path class="cls-1" d="M29.397,36.56781v-.8512a1.37743,1.37743,0,0,1-.85583.653,10.504,10.504,0,0,1-3.69385.47681,10.562,10.562,0,0,1-3.69336-.47657c-.88965-.307-1.13916-1.1206-1.32275-1.947a3.22232,3.22232,0,0,0-.13477-.49072,7.83175,7.83175,0,0,1-.11181-2.55493c.0122-.30017.0249-.61084.0332-.92725.01025-.39477.01855-1.42346.02881-2.72534.01611-2.11987-.00879-4.32971-.03076-6.27942-.02295-2.05371-.04932-4.38147.01171-4.7655a5.03475,5.03475,0,0,1,.79053-1.59656,10.07415,10.07415,0,0,1,4.4292-.85364,10.07125,10.07125,0,0,1,4.42871.85376,5.03746,5.03746,0,0,1,.78467,1.56848c.06689.412.04053,2.73975.01758,4.79346-.01349,1.19537-.02692,2.49054-.03247,3.80078l.72955-.40417c.15076-.08356.31482-.14191.47284-.21271.02429-3.90216.11517-7.51349-.00586-8.18744-.05566-.30847-.69043-2.0542-1.38477-2.40906a11.39668,11.39668,0,0,0-5.01025-1.003v-.00006a11.39826,11.39826,0,0,0-5.0108,1.00305c-.69385.35486-1.3291,2.10059-1.38477,2.40906-.15283.851.03272,6.38306-.00537,11.27356-.00976,1.2915-.01807,2.31177-.02832,2.70337-.0083.31421-.021.62292-.0332.9209a7.94137,7.94137,0,0,0,.2027,3.05163c.01806.04712.05175.19971.07666.311a3.4195,3.4195,0,0,0,2.09814,2.80212,11.68313,11.68313,0,0,0,4.085.54212,11.68158,11.68158,0,0,0,4.08447-.54212,3.40841,3.40841,0,0,0,.46521-.23828Z"/><path class="cls-1" d="M8.39258,20.05847a4.60813,4.60813,0,0,1-2.21387-1.09472l.99609-1.12208a3.12587,3.12587,0,0,0,1.501.74415Zm2.08887-.04736-.38672-1.44922A2.763,2.763,0,0,0,11.46,17.66541l1.123.99414A4.21461,4.21461,0,0,1,10.48145,20.01111Zm-5.542-2.65381a5.77651,5.77651,0,0,1-.70605-2.34522h1.5a4.52382,4.52382,0,0,0,.53222,1.64454Zm8.72461-.31006-1.32422-.70508c.31446-.59033.60547-1.26367.84961-1.84424l1.38282.58008C14.31543,15.69031,14.00684,16.4032,13.66406,17.04724Zm1.60352-3.49414L13.96484,12.808a7.43707,7.43707,0,0,1,1.44727-1.81884l1.00781,1.11035A5.939,5.939,0,0,0,15.26758,13.5531Zm9.14453-.30615a3.03874,3.03874,0,0,0-.53418-1.5835l1.24023-.84375a4.55577,4.55577,0,0,1,.792,2.34522Zm-6.70606-2.01172-.65234-1.35059a7.90116,7.90116,0,0,1,2.21-.67724l.23438,1.48144A6.4126,6.4126,0,0,0,17.70605,11.23523Zm5.25879-.46875a5.00681,5.00681,0,0,0-1.64941-.20361l-.15723.00146-.02539-1.5.18262-.00146a6.52125,6.52125,0,0,1,2.15918.29345Z"/></svg>