<svg id="Icon" xmlns="http://www.w3.org/2000/svg" viewBox="0 0 40 40"><defs><style>.cls-1{fill:#fff;}.cls-2{fill:none;stroke:#fff;stroke-miterlimit:10;stroke-width:1.2px;}</style></defs><path class="cls-1" d="M29.27246,33.14792a17.38523,17.38523,0,0,1-2.58544-.18176l-.43359,2.97522a9.40672,9.40672,0,0,0,3.02051.43127,9.40568,9.40568,0,0,0,3.02-.43127l-.43556-2.97522A17.40382,17.40382,0,0,1,29.27246,33.14792Zm.00049-8.75635a8.535,8.535,0,0,1,2.5957.42725L32.73,21.15244a8.22007,8.22007,0,0,0-3.456-.6128,8.22091,8.22091,0,0,0-3.45655.6128l.85987,3.66638a8.53181,8.53181,0,0,1,2.59568-.42725Zm3.88184,7.646c-.02051-.79285.03174-3.84351.019-6.97876l-.00831-.67212a14.87725,14.87725,0,0,1-1.1885,2.19316,24.47472,24.47472,0,0,0-.07178,3.85766,35.82365,35.82365,0,0,0,1.252,3.85767l-.00049-.09253C33.15235,33.5632,33.17528,32.81711,33.15479,32.03757ZM26.624,30.43772a24.54952,24.54952,0,0,0-.07128-3.85767,15.58871,15.58871,0,0,1-1.15381-2.19312l-.00831.67212c.02247,3.11914.022,6.18592.00148,6.97889-.02051.77941.00243,1.52551-.00148,2.16491l-.00048.09253A35.85843,35.85843,0,0,0,26.624,30.43772Z"/><path class="cls-1" d="M29.27979,16.14853a10.07161,10.07161,0,0,1,4.42872.85376,5.03765,5.03765,0,0,1,.78466,1.56848c.06689.412.04053,2.73975.01757,4.79346-.022,1.94971-.04687,4.15955-.03077,6.27954l.00147.13965c.00977,1.23559.01757,2.205.02734,2.58777.00928.31947.02148.63342.03369.93628a7.64711,7.64711,0,0,1-.124,2.573,3.50713,3.50713,0,0,0-.12744.48073c-.1792.80712-.42872,1.62084-1.31739,1.92749a10.5626,10.5626,0,0,1-3.69384.47679,10.56218,10.56218,0,0,1-3.69336-.47655c-.88965-.307-1.13916-1.12061-1.32276-1.947a3.224,3.224,0,0,0-.13476-.49072,7.83019,7.83019,0,0,1-.11183-2.55493c.01221-.30017.0249-.61084.03319-.92725.01026-.39477.01857-1.42346.02882-2.72534.0161-2.11986-.00879-4.32971-.03076-6.27942-.02295-2.05371-.04932-4.38147.01172-4.7655a5.034,5.034,0,0,1,.79053-1.59655,10.07393,10.07393,0,0,1,4.42919-.85364m0-1.19995a11.39846,11.39846,0,0,0-5.01079,1.003c-.69384.35486-1.32909,2.10059-1.38476,2.40906-.15283.851.03271,6.38306-.00536,11.27356-.00977,1.2915-.01807,2.31177-.02832,2.70337-.00831.31421-.021.62292-.03322.9209A7.94167,7.94167,0,0,0,23.02,36.31015c.01807.04712.05176.19971.07666.311a3.41962,3.41962,0,0,0,2.09816,2.80213,11.68373,11.68373,0,0,0,4.085.54213,11.68253,11.68253,0,0,0,4.08446-.54213,3.41864,3.41864,0,0,0,2.09815-2.80212c.02489-.11133.0586-.26392.07666-.311a7.94145,7.94145,0,0,0,.20264-3.05163c-.01221-.298-.02441-.60669-.0332-.92089-.01026-.3916-.01807-1.41187-.02832-2.70337-.03809-4.8905.14747-10.42261-.00537-11.27356-.05566-.30847-.69042-2.0542-1.38477-2.40906a11.39751,11.39751,0,0,0-5.01025-1.003Z"/><path class="cls-1" d="M6.60938,5.58249a4.03859,4.03859,0,0,0-3.0625-.88476H.02979V16.20651h1.5v-4.5h1.9331c2.62256-.05859,4.0669-1.32617,4.0669-3.56933A3.38636,3.38636,0,0,0,6.60938,5.58249ZM5.92969,8.14206a1.79613,1.79613,0,0,1-1.82862,2.03222l-2.57128.02929V6.20651h2.75C5.13672,6.20651,5.92969,6.44085,5.92969,8.14206Z"/><path class="cls-1" d="M8.41333,21.935l-.176-.001.02686-1.5.13574.001a7.009,7.009,0,0,0,1.65674-.19434l.354,1.457A8.47093,8.47093,0,0,1,8.41333,21.935Zm-2.33667-.31641A8.08514,8.08514,0,0,1,4.054,20.75628l.77636-1.2832a6.57678,6.57678,0,0,0,1.64722.70019Zm6.39185-1.16211-1.11914-.998a7.263,7.263,0,0,0,.95678-1.52442l1.33789.67774A8.5118,8.5118,0,0,1,12.46851,20.45651ZM2.34766,19.25339a3.82944,3.82944,0,0,1-.81812-2.2959h1.5A2.3201,2.3201,0,0,0,3.54688,18.353Zm12.19213-2.39454-1.30908-.73242a10.444,10.444,0,0,1,1.21387-1.76858l1.13623.97852A9.0233,9.0233,0,0,0,14.53979,16.85885Zm13.449-1.99024a2.35078,2.35078,0,0,0-.63279-1.35834l1.07032-1.05079a3.851,3.851,0,0,1,1.04639,2.19043Zm-11.0708-.7207-.835-1.24606a9.2363,9.2363,0,0,1,1.93508-.97555l.519,1.4082a7.6627,7.6627,0,0,0-1.61908.81342ZM20.3384,12.851l-.271-1.47461q.53649-.0996,1.13135-.165l.18579-.02051c.21436-.02441.45923-.05273.72681-.0791l.14746,1.49219c-.25879.02539-.49585.05273-.70337.07714l-.19189.02149c-.36184.039-.70217.0898-1.02517.1484Zm5.62183-.09864a7.39992,7.39992,0,0,0-1.79542-.23535l.03516-1.5a8.97584,8.97584,0,0,1,2.16162.29Z"/><circle class="cls-2" cx="12.77961" cy="32.54034" r="6"/><line class="cls-2" x1="7.22292" y1="30.89693" x2="18.28875" y2="30.89693"/><line class="cls-2" x1="15.00683" y1="34.39581" x2="16.97377" y2="36.36275"/><line class="cls-2" x1="10.55238" y1="34.39581" x2="8.58545" y2="36.36275"/><path class="cls-1" d="M16.18324,31.45739l-.02734-.52246-6.86425.001-.00587.5459a9.46059,9.46059,0,0,0,.18164,1.7959,3.3157,3.3157,0,0,0,3.3125,2.626,3.42694,3.42694,0,0,0,3.2168-2.60254A7.15994,7.15994,0,0,0,16.18324,31.45739Zm-3.447,3.47266a1.65625,1.65625,0,1,1,1.65625-1.65625v.00005a1.65625,1.65625,0,0,1-1.65625,1.65625h0Z"/></svg>