<svg xmlns="http://www.w3.org/2000/svg" viewBox="0 0 40 40"><defs><style>.cls-1,.cls-2{fill:#fff;}.cls-2{fill-rule:evenodd;}.cls-3{fill:none;stroke:#fff;stroke-miterlimit:10;stroke-width:1.2px;}</style></defs><g id="Ebene_1" data-name="Ebene 1"><path class="cls-1" d="M9.35528,3.66189a4.67054,4.67054,0,0,0-3.0625-.88476H2.77569V14.28591h1.5v-4.5h1.9331c2.62256-.05859,4.0669-1.32617,4.0669-3.56933A3.53414,3.53414,0,0,0,9.35528,3.66189ZM8.6756,6.22146A1.88739,1.88739,0,0,1,7.13187,8.23865a6.35278,6.35278,0,0,1-.68854.0459L4.27569,8.283V4.28591H6.687A1.7331,1.7331,0,0,1,8.6756,6.22146Z"/><path class="cls-2" d="M24.83959,31.229a17.38662,17.38662,0,0,1-2.58545-.18177l-.43359,2.97523a9.407,9.407,0,0,0,3.02051.43127,9.40616,9.40616,0,0,0,3.02-.43127l-.43555-2.97522A17.40516,17.40516,0,0,1,24.83959,31.229Zm.00049-8.75635a8.53437,8.53437,0,0,1,2.59569.42725l.86136-3.66639a8.22014,8.22014,0,0,0-3.456-.6128,8.22107,8.22107,0,0,0-3.45655.6128l.85987,3.66638a8.53243,8.53243,0,0,1,2.59569-.42725Zm3.88184,7.646c-.02052-.79285.03173-3.84351.019-6.97876l-.0083-.67212a14.88045,14.88045,0,0,1-1.18848,2.19312,24.47472,24.47472,0,0,0-.07179,3.85766,35.82587,35.82587,0,0,0,1.252,3.85767l-.00049-.09253C28.71947,31.64427,28.74242,30.89818,28.72192,30.11865Zm-6.53079-1.59986a24.54955,24.54955,0,0,0-.07129-3.85767A15.58854,15.58854,0,0,1,20.966,22.468l-.00831.67211c.02247,3.11915.022,6.18593.00147,6.97889-.02051.77941.00244,1.52551-.00147,2.16491l-.00048.09253A35.85923,35.85923,0,0,0,22.19113,28.51879Z"/><circle class="cls-3" cx="8.28004" cy="30.62141" r="6"/><line class="cls-3" x1="2.72336" y1="28.97801" x2="13.78918" y2="28.97801"/><line class="cls-3" x1="10.50727" y1="32.47689" x2="12.47421" y2="34.44382"/><line class="cls-3" x1="6.05281" y1="32.47689" x2="4.08589" y2="34.44382"/><path class="cls-2" d="M11.68368,29.53846l-.02734-.52245L8.78,29.03809l-3.988-.02112-.00586.5459a9.4598,9.4598,0,0,0,.18164,1.79591,3.31569,3.31569,0,0,0,3.3125,2.626,3.42694,3.42694,0,0,0,3.2168-2.60253A7.1602,7.1602,0,0,0,11.68368,29.53846Zm-3.447,3.47266a1.65625,1.65625,0,1,1,1.65625-1.65625,1.65624,1.65624,0,0,1-1.65625,1.65625Z"/><path class="cls-1" d="M8.39258,20.05847a4.60817,4.60817,0,0,1-2.21387-1.09472l.99609-1.12208a3.12587,3.12587,0,0,0,1.501.74415Zm2.08887-.04736-.38672-1.44922A2.763,2.763,0,0,0,11.46,17.66541l1.123.99414A4.21461,4.21461,0,0,1,10.48145,20.01111Zm-5.542-2.65381a5.77651,5.77651,0,0,1-.70605-2.34522h1.5a4.52382,4.52382,0,0,0,.53222,1.64454Zm8.72461-.31006-1.32422-.70508c.31446-.59033.60547-1.26367.84961-1.84424l1.38282.58008C14.31543,15.69031,14.00684,16.4032,13.66406,17.04724Zm1.60352-3.49414L13.96484,12.808a7.43707,7.43707,0,0,1,1.44727-1.81884l1.00781,1.11035A5.939,5.939,0,0,0,15.26758,13.5531Zm9.14453-.30615a3.03874,3.03874,0,0,0-.53418-1.5835l1.24023-.84375a4.55577,4.55577,0,0,1,.792,2.34522Zm-6.70606-2.01172-.65234-1.35059a7.90116,7.90116,0,0,1,2.21-.67724l.23438,1.48144A6.4126,6.4126,0,0,0,17.70605,11.23523Zm5.25879-.46875a5.00681,5.00681,0,0,0-1.64941-.20361l-.15723.00146-.02539-1.5.18262-.00146a6.52121,6.52121,0,0,1,2.15918.29345Z"/></g><g id="E72E_000_garage" data-name="E72E 000 garage"><path id="_4" data-name=" 4" class="cls-1" d="M35.93172,37.71826V35.148H29.88094L29.877,33.937l6.08984-7.80468h1.46875v7.77341h2.00391V35.148H37.43563v2.5703Zm0-8.20312q0-.293.00977-.66016.01026-.3677.0293-.75c-.14356.20019-.28809.40234-.43555.60547s-.29.3916-.42773.56641l-3.58985,4.6289h4.41406Z"/><path class="cls-1" d="M27.886,36.72272l-.00055-.17774a10.55554,10.55554,0,0,1-3.03852.30158A10.56218,10.56218,0,0,1,21.15356,36.37c-.88964-.307-1.13916-1.12061-1.32275-1.947a3.22117,3.22117,0,0,0-.13477-.49072,7.83146,7.83146,0,0,1-.11181-2.55487c.01221-.30017.0249-.61084.0332-.92725.01026-.39483.01856-1.42346.02881-2.72534.01611-2.11987-.00879-4.32971-.03076-6.27942-.023-2.05371-.04932-4.38147.01172-4.7655a5.03451,5.03451,0,0,1,.79052-1.59656,10.07315,10.07315,0,0,1,4.4292-.85363v-.00007a10.07125,10.07125,0,0,1,4.42871.85376,5.03719,5.03719,0,0,1,.78467,1.56849c.0669.412.04053,2.73974.01758,4.79345-.022,1.94971-.04687,4.15955-.03076,6.27954l.00146.13965c.00965,1.21918.01734,2.174.027,2.567l1.18152-1.51422c-.00311-.36145-.00629-.76422-.00977-1.20191-.03808-4.8905.14747-10.42261-.00537-11.27356-.05566-.30847-.69043-2.0542-1.38476-2.40906a11.39687,11.39687,0,0,0-5.01026-1.003,11.39754,11.39754,0,0,0-5.0108,1.003c-.69385.35486-1.3291,2.10059-1.38477,2.40906-.15283.851.03272,6.38306-.00537,11.27356-.00976,1.29151-.01806,2.31177-.02832,2.70337-.0083.31421-.021.62293-.0332.9209a7.94251,7.94251,0,0,0,.20264,3.05164c.01812.04711.05182.1997.07666.311a3.41962,3.41962,0,0,0,2.0982,2.80212,11.68313,11.68313,0,0,0,4.085.54212,11.682,11.682,0,0,0,3.03479-.262Z"/></g></svg>