<svg id="Ebene_1" data-name="Ebene 1" xmlns="http://www.w3.org/2000/svg" viewBox="0 0 40 40"><defs><style>.cls-1,.cls-2{fill:#fff;}.cls-2{fill-rule:evenodd;}.cls-3{fill:none;stroke:#fff;stroke-miterlimit:10;stroke-width:1.2px;}</style></defs><g id="Ebene_1-2" data-name="Ebene 1"><path class="cls-1" d="M9.35528,3.66189a4.67056,4.67056,0,0,0-3.0625-.88476H2.77569V14.28591h1.5v-4.5h1.9331c2.62256-.05859,4.0669-1.32617,4.0669-3.56933A3.53415,3.53415,0,0,0,9.35528,3.66189ZM8.6756,6.22146A1.88739,1.88739,0,0,1,7.13187,8.23865a6.35246,6.35246,0,0,1-.68854.0459L4.27569,8.283V4.28591H6.687A1.73309,1.73309,0,0,1,8.6756,6.22146Z"/><g id="Auto"><path class="cls-2" d="M24.84035,31.22684a17.388,17.388,0,0,1-2.58545-.18176l-.43359,2.97522a9.407,9.407,0,0,0,3.02051.43127,9.40588,9.40588,0,0,0,3.02-.43127l-.43555-2.97522A17.40382,17.40382,0,0,1,24.84035,31.22684Zm.00049-8.75635a8.53509,8.53509,0,0,1,2.5957.42725l.86135-3.66638a8.21981,8.21981,0,0,0-3.456-.6128,8.221,8.221,0,0,0-3.45655.6128l.85987,3.66638a8.53181,8.53181,0,0,1,2.59568-.42725Zm3.88184,7.646c-.02051-.79285.03173-3.84351.019-6.97876l-.0083-.67212a14.87808,14.87808,0,0,1-1.18848,2.19312,24.47351,24.47351,0,0,0-.07178,3.85766,35.82382,35.82382,0,0,0,1.252,3.85768l-.00049-.09253C28.72023,31.64212,28.74318,30.896,28.72268,30.11649Zm-6.53079-1.59985A24.54673,24.54673,0,0,0,22.1206,24.659a15.59075,15.59075,0,0,1-1.1538-2.19312l-.00831.67212c.02247,3.11914.022,6.18592.00147,6.97889-.02051.77941.00244,1.52551-.00147,2.16491l-.00048.09253A35.86045,35.86045,0,0,0,22.19189,28.51664Z"/><path class="cls-1" d="M24.84768,14.22745a10.07154,10.07154,0,0,1,4.42871.85376,5.037,5.037,0,0,1,.78466,1.56848c.0669.412.04053,2.73975.01758,4.79346-.022,1.94971-.04687,4.15955-.03076,6.27954l.00147.13965c.00976,1.23559.01757,2.205.02734,2.58777.00928.31946.02148.63342.03369.93628a7.64763,7.64763,0,0,1-.124,2.573,3.50556,3.50556,0,0,0-.12744.48072c-.1792.80713-.42872,1.62085-1.31739,1.92749a10.56237,10.56237,0,0,1-3.69384.4768,10.56218,10.56218,0,0,1-3.69336-.47656c-.88965-.307-1.13916-1.1206-1.32276-1.947a3.22628,3.22628,0,0,0-.13476-.49072A7.83042,7.83042,0,0,1,19.585,31.3752c.01221-.30017.0249-.61084.0332-.92725.01026-.39478.01856-1.42346.02881-2.72534.01611-2.11987-.00879-4.32971-.03076-6.27942-.023-2.05371-.04932-4.38147.01172-4.7655a5.03433,5.03433,0,0,1,.79053-1.59656,10.07409,10.07409,0,0,1,4.4292-.85364m0-1.19995a11.3984,11.3984,0,0,0-5.01079,1.003c-.69384.35486-1.3291,2.10059-1.38476,2.40906-.15283.851.03271,6.38306-.00537,11.27356-.00977,1.2915-.01807,2.31177-.02832,2.70337-.0083.31422-.021.62292-.03321.9209a7.94124,7.94124,0,0,0,.20266,3.05163c.01807.04712.05176.19972.07666.311a3.41961,3.41961,0,0,0,2.09816,2.80213,11.68346,11.68346,0,0,0,4.085.54212,11.68237,11.68237,0,0,0,4.08447-.54212,3.41863,3.41863,0,0,0,2.09814-2.80212c.0249-.11133.0586-.26392.07666-.311a7.94147,7.94147,0,0,0,.20264-3.05163c-.01221-.298-.02441-.60669-.0332-.9209-.01026-.3916-.01807-1.41187-.02832-2.70337-.03809-4.8905.14746-10.42261-.00538-11.27356-.05566-.30847-.69042-2.0542-1.38476-2.40906a11.39782,11.39782,0,0,0-5.01025-1.003Z"/></g><circle class="cls-3" cx="8.28081" cy="30.61926" r="6"/><line class="cls-3" x1="2.72412" y1="28.97585" x2="13.78995" y2="28.97585"/><line class="cls-3" x1="10.50803" y1="32.47473" x2="12.47497" y2="34.44167"/><line class="cls-3" x1="6.05358" y1="32.47473" x2="4.08665" y2="34.44167"/><path class="cls-2" d="M11.68444,29.53631l-.02734-.52246-2.87629.02208-3.988-.02111-.00586.5459a9.46059,9.46059,0,0,0,.18164,1.7959,3.3157,3.3157,0,0,0,3.3125,2.626,3.42693,3.42693,0,0,0,3.2168-2.60254A7.16008,7.16008,0,0,0,11.68444,29.53631ZM8.23744,33.009a1.65625,1.65625,0,1,1,1.65625-1.65625h0A1.65625,1.65625,0,0,1,8.23744,33.009Z"/><path class="cls-1" d="M8.39258,20.05847a4.6081,4.6081,0,0,1-2.21387-1.09472l.99609-1.12208a3.12582,3.12582,0,0,0,1.501.74415Zm2.08887-.04736-.38672-1.44922A2.763,2.763,0,0,0,11.46,17.66541l1.123.99414A4.21463,4.21463,0,0,1,10.48145,20.01111Zm-5.542-2.65381a5.7764,5.7764,0,0,1-.70605-2.34522h1.5a4.5239,4.5239,0,0,0,.53222,1.64454Zm8.72461-.31006-1.32422-.70508c.31446-.59033.60547-1.26367.84961-1.84424l1.38282.58008C14.31543,15.69031,14.00684,16.4032,13.66406,17.04724Zm1.60352-3.49414-1.30274-.7451a7.437,7.437,0,0,1,1.44727-1.81884l1.00781,1.11035A5.93881,5.93881,0,0,0,15.26758,13.5531Zm9.14453-.30615a3.03862,3.03862,0,0,0-.53418-1.5835l1.24023-.84375a4.55571,4.55571,0,0,1,.792,2.34522Zm-6.70606-2.01172-.65234-1.35059a7.90124,7.90124,0,0,1,2.21-.67724l.23438,1.48144A6.41268,6.41268,0,0,0,17.70605,11.23523Zm5.25879-.46875a5.00687,5.00687,0,0,0-1.64941-.20361l-.15723.00146-.02539-1.5.18262-.00146a6.52137,6.52137,0,0,1,2.15918.29345Z"/></g><g id="E72E_000_garage" data-name="E72E 000 garage"><g id="mit-Zahlen"><g id="_1" data-name=" 1"><path class="cls-1" d="M38.61065,26.43V38.01591H37.10677v-10.164l-3.07031.53125V27.14483L37.68489,26.43h.92576"/></g></g></g></svg>