<?xml version="1.0" encoding="UTF-8"?>
<svg id="Hilfe" xmlns="http://www.w3.org/2000/svg" viewBox="0 0 40 40">
  <defs>
    <style>
      .cls-1 {
        fill: #fff;
      }

      .cls-2 {
        fill: none;
        fill-rule: evenodd;
        stroke: #fff;
        stroke-linejoin: round;
        stroke-width: 1.2px;
      }
    </style>
  </defs>
  <g>
    <path class="cls-1" d="M8.93346,24.49923h-1.8124v-2.46463h1.8124v2.46463Zm0-4.93785h-1.8124v-2.41653h1.8124v2.41653Zm0-4.83306h-1.8124v-2.61495h1.8124v2.61495ZM1.90854,11.9012H.09615v-1.62125c.00029-.33483,.03869-.66855,.11446-.99469l1.7652,.41299c-.04481,.19065-.06739,.38586-.06726,.58171v1.62125Zm5.19483-1.90443c-.06852-.59583-.34465-1.1485-.77995-1.56108l1.24838-1.31446c.75315,.78363,1.22429,1.79549,1.33924,2.87627l-1.80767-.00074Zm-4.04604-1.75813l-1.08554-1.45133c.81844-.61873,1.8314-.92389,2.85542-.86021l-.0944,1.80998-.15811-.00472c-.54744-.00104-1.08023,.17674-1.51736,.50629Z"/>
    <path class="cls-1" d="M15.91942,11.90196h-1.8124v-1.62125c.00012-.19585-.02245-.39105-.06725-.58171l1.7652-.41299c.07577,.32615,.11416,.65986,.11445,.99469v1.62125Zm-7.00839-1.90447l-1.80767-.00074c.11496-1.08035,.58612-2.09174,1.33924-2.8748l1.24838,1.31447c-.4353,.41257-.71143,.96524-.77995,1.56107Zm4.04723-1.75812c-.43697-.32989-.96991-.50769-1.51742-.50626l-.15811,.00472-.09439-1.80998c1.02537-.06583,2.04009,.24043,2.85782,.86254l-1.0879,1.44898Z"/>
  </g>
  <polyline class="cls-2" points="19.38782 21.49447 12.55193 18.1196 12.55193 18.74181 12.55193 24.51807 12.55193 30.9446 19.38782 27.58272"/>
  <path class="cls-1" d="M37.76796,16.20074c.54809,0,.99399,.4459,.99399,.99399v14.58368c0,.54809-.4459,.99399-.99399,.99399H21.19972c-.54809,0-.99399-.4459-.99399-.99399v-14.58368c0-.54809,.4459-.99399,.99399-.99399h16.56824m0-1.2H21.19972c-1.20669,0-2.19399,.9873-2.19399,2.19399v14.58368c0,1.20669,.9873,2.19399,2.19399,2.19399h16.56824c1.20669,0,2.19399-.9873,2.19399-2.19399v-14.58368c0-1.20669-.9873-2.19399-2.19399-2.19399h0Z"/>
</svg>