<?xml version="1.0" encoding="UTF-8"?>
<svg id="Hilfe" xmlns="http://www.w3.org/2000/svg" viewBox="0 0 40 40">
  <defs>
    <style>
      .cls-1 {
        fill: #fff;
      }

      .cls-2 {
        fill: none;
        fill-rule: evenodd;
        stroke: #fff;
        stroke-linejoin: round;
        stroke-width: 1.2px;
      }
    </style>
  </defs>
  <g id="E479_Kameraumschaltung" data-name="E479 Kameraumschaltung">
    <g id="V2-2">
      <circle class="cls-1" cx="2" cy="19.99999" r="1.25"/>
      <circle class="cls-1" cx="38" cy="19.99999" r="1.25"/>
      <circle class="cls-1" cx="20" cy="1.99999" r="1.25"/>
      <circle class="cls-1" cx="20" cy="37.99999" r="1.25"/>
      <path class="cls-1" d="M17,37.1355c-7.20862-1.27928-12.85019-6.92577-14.12317-14.1355H1.6651c1.29884,7.87053,7.46512,14.04036,15.3349,15.34375v-1.20825Z"/>
      <path class="cls-1" d="M37.12317,22.99999c-1.27298,7.20973-6.91455,12.85622-14.12317,14.1355v1.20825c7.86978-1.30339,14.03606-7.47322,15.3349-15.34375h-1.21173Z"/>
      <path class="cls-1" d="M17,1.65624C9.13022,2.95963,2.96394,9.12946,1.6651,16.99999h1.21173c1.27298-7.20973,6.91455-12.85622,14.12317-14.1355V1.65624Z"/>
      <path class="cls-1" d="M23,1.65624v1.20825c7.20862,1.27928,12.85019,6.92577,14.12317,14.1355h1.21173c-1.29884-7.87053-7.46512-14.04036-15.3349-15.34375Z"/>
    </g>
  </g>
  <polyline class="cls-2" points="14.23114 17.15729 7.48735 13.59243 7.48735 26.28977 14.23114 22.72491"/>
  <path class="cls-1" d="M31.23613,12.96214c.43627,0,.80484,.36857,.80484,.80484v12.44618c0,.43627-.36857,.80484-.80484,.80484H15.77313c-.43627,0-.80484-.36857-.80484-.80484V13.76698c0-.43627,.36857-.80484,.80484-.80484h15.463m0-1.2H15.77313c-1.10266,0-2.00484,.90217-2.00484,2.00484v12.44618c0,1.10266,.90218,2.00484,2.00484,2.00484h15.463c1.10266,0,2.00484-.90218,2.00484-2.00484V13.76698c0-1.10267-.90218-2.00484-2.00484-2.00484h0Z"/>
</svg>