<svg xmlns="http://www.w3.org/2000/svg" viewBox="0 0 40 40"><defs><style>.cls-1{fill:#fff;}</style></defs><g id="E47D_3D_Transparenz"><g id="V2-4" data-name="V2"><path class="cls-1" d="M27.44,25.24121h-2v-1.5h2Zm-4,0h-2v-1.5h2Zm-4,0h-2v-1.5h2Zm-4,0h-2v-1.5h2Z"/><path class="cls-1" d="M3.40918,24.76318c-.19238,0-.44043-.0039-.75293-.01464a1.70108,1.70108,0,0,1-1.374-.74415l1.22461-.86523a.21657.21657,0,0,0,.20117.10938,10.64907,10.64907,0,0,0,1.16992.002l.14453,1.49316S3.84473,24.76318,3.40918,24.76318Zm32.98633-.12109-.07617-1.498a2.94519,2.94519,0,0,0,1.44238-.29785l1.28516.7666C38.70215,24.23193,37.835,24.56885,36.39551,24.64209ZM2.334,21.70166.83984,21.56494a4.028,4.028,0,0,1,.751-2.17773c.07129-.08985.14356-.17676.21973-.26075l1.11718,1c-.05664.06446-.11132.12989-.165.19727A2.65557,2.65557,0,0,0,2.334,21.70166Zm35.32813-.40137a17.0754,17.0754,0,0,0-.22559-2.09277l1.47657-.26563a18.78758,18.78758,0,0,1,.24707,2.28028ZM4.30273,19.28369l-.51562-1.4082A15.19908,15.19908,0,0,1,5.794,17.32373l.22558-.04785.29688,1.4707-.20606.043A13.91822,13.91822,0,0,0,4.30273,19.28369Zm3.96387-.89258L8.0127,16.9126c.83593-.14258,1.667-.27832,2.18164-.36133l.24023,1.48047C9.92188,18.11475,9.09668,18.24854,8.2666,18.39111Zm28.72266-.50879a2.92467,2.92467,0,0,0-1.1211-.26464l-.67382-.09082.21875-1.48438.6455.08691a3.79432,3.79432,0,0,1,1.80762.53614Zm-3.89844-.88769a21.67771,21.67771,0,0,1-2.05371-.99024l.70117-1.32617a20.66441,20.66441,0,0,0,1.90723.92383ZM12.541,16.98486,11.55469,15.854c.21777-.18945.458-.39941.59961-.52636l.34472-.3125c.22657-.20508.459-.416.69922-.626L14.18457,15.52c-.23242.20312-.458.40723-.67773.60644l-.35059.31739C13.01074,16.57373,12.76465,16.78955,12.541,16.98486ZM29.2793,15.07861a17.19483,17.19483,0,0,0-1.92383-.8623l.51172-1.41016a18.64167,18.64167,0,0,1,2.09179.93457Zm-13.59961-.69726-.793-1.27344a6.9979,6.9979,0,0,1,1.85351-.834c.13184-.03614.26856-.06934.41211-.09864L17.457,13.644c-.11035.02344-.21777.04883-.31933.07715A5.48126,5.48126,0,0,0,15.67969,14.38135Zm9.86816-.61328c-.64746-.10938-1.35937-.19532-2.11719-.25489l.11719-1.49609c.80274.06348,1.55957.15527,2.25.27246Zm-6.22754-.31836-.05859-1.498c.60449-.02441,1.26465-.02344,1.94433-.02734l.293.002-.01562,1.5-.27832-.002C20.53027,13.41846,19.90527,13.42725,19.32031,13.44971Z"/><path class="cls-1" d="M7.82227,28.07568A3.72449,3.72449,0,0,1,5.9375,26.73291l1.20312-.89453a2.27164,2.27164,0,0,0,1.13086.80566Zm2.31347-.0205L9.66113,26.6333a2.27737,2.27737,0,0,0,1.11719-.82617l1.21875.875A3.778,3.778,0,0,1,10.13574,28.05518ZM5.36328,24.52881l-.16406-.001a3.74709,3.74709,0,0,1,.71191-2.23144l1.21485.88086a2.23012,2.23012,0,0,0-.42774,1.32031Zm5.835-.04492a2.22694,2.22694,0,0,0-.43554-1.31739l1.209-.88867a3.72066,3.72066,0,0,1,.72656,2.19629Zm-2.95117-2.125-.46484-1.42578a3.80015,3.80015,0,0,1,2.3125-.00684l-.459,1.42773A2.29283,2.29283,0,0,0,8.24707,22.35889Z"/><path class="cls-1" d="M30.82227,28.07568a3.72449,3.72449,0,0,1-1.88477-1.34277l1.20312-.89453a2.27164,2.27164,0,0,0,1.13086.80566Zm2.31347-.0205-.47461-1.42188a2.27737,2.27737,0,0,0,1.11719-.82617l1.21875.875A3.778,3.778,0,0,1,33.13574,28.05518Zm-4.77246-3.52637-.16406-.001a3.74709,3.74709,0,0,1,.71191-2.23144l1.21485.88086a2.23012,2.23012,0,0,0-.42774,1.32031Zm5.835-.04492a2.22694,2.22694,0,0,0-.43554-1.31739l1.209-.88867a3.72066,3.72066,0,0,1,.72656,2.19629Zm-2.95117-2.125-.46484-1.42578a3.80015,3.80015,0,0,1,2.3125-.00684l-.459,1.42773A2.29283,2.29283,0,0,0,31.24707,22.35889Z"/></g></g></svg>