<?xml version="1.0" encoding="UTF-8"?>
<svg id="Ebene_1" data-name="Ebene 1" xmlns="http://www.w3.org/2000/svg" viewBox="0 0 40 40">
  <defs>
    <style>
      .cls-1 {
        fill: #fff;
      }

      .cls-2 {
        stroke-width: 1.2px;
      }

      .cls-2, .cls-3 {
        fill: none;
        stroke: #fff;
        stroke-miterlimit: 10;
      }

      .cls-3 {
        stroke-width: 1.2px;
      }
    </style>
  </defs>
  <g>
    <polygon class="cls-1" points="14.786 21.0094 16.647 21.0094 13.647 38.99557 9.305 38.99557 14.786 21.0094"/>
    <polygon class="cls-1" points="25.214 21.0094 23.353 21.0094 26.353 38.99557 30.695 38.99557 25.214 21.0094"/>
  </g>
  <line class="cls-3" x1="10.01398" y1="4.33724" x2=".99706" y2="6.96472"/>
  <line class="cls-3" x1="9.93929" y1="9.26878" x2=".92237" y2="11.89626"/>
  <line class="cls-3" x1="9.93929" y1="14.20032" x2=".92237" y2="16.8278"/>
  <line class="cls-3" x1="9.93929" y1="19.13186" x2=".92237" y2="21.75935"/>
  <line class="cls-3" x1="9.93929" y1="24.06341" x2=".92237" y2="26.6909"/>
  <line class="cls-2" x1="5.50001" y1="24.90863" x2="5.5" y2="29.984"/>
  <line class="cls-2" x1="5.50001" y1="1.00562" x2="5.5" y2="5.25049"/>
  <line class="cls-3" x1="29.99711" y1="4.33724" x2="39.01403" y2="6.96472"/>
  <line class="cls-3" x1="30.07181" y1="9.26878" x2="39.08873" y2="11.89626"/>
  <line class="cls-3" x1="30.07181" y1="14.20032" x2="39.08873" y2="16.8278"/>
  <line class="cls-3" x1="30.07181" y1="19.13186" x2="39.08873" y2="21.75935"/>
  <line class="cls-3" x1="30.07181" y1="24.06341" x2="39.08873" y2="26.6909"/>
  <line class="cls-2" x1="34.50001" y1="24.90863" x2="34.49999" y2="29.984"/>
  <line class="cls-3" x1="34.5" y1="1.00562" x2="34.5" y2="5.25049"/>
</svg>