<?xml version="1.0" encoding="UTF-8"?>
<svg id="Layer_1" data-name="Layer 1" xmlns="http://www.w3.org/2000/svg" viewBox="0 0 40 40">
  <defs>
    <style>
      .cls-1 {
        fill: #fff;
      }

      .cls-2 {
        fill: none;
        stroke: #fff;
        stroke-miterlimit: 10;
        stroke-width: 1.5px;
      }
    </style>
  </defs>
  <path class="cls-1" d="M4.01855,23.38495l-.09473-.09473c-4.9873-5.19873-4.94336-13.28711,.09033-18.42334l.85742,.83984C.29395,10.37714,.25439,17.73163,4.78125,22.45135l.08594,.08594-.84863,.84766Z"/>
  <path class="cls-1" d="M39.75359,34.79501h-13.46336c-.1895,.241-.27342,.53189-.23686,.821,0,0,.02518,.379,.3316,.379h13.25552c.36577,0,.39575-.379,.39575-.379,.04067-.29536-.06149-.59213-.28264-.821Z"/>
  <path class="cls-1" d="M33.04337,16.87559c.0384,.01837,.06915,.05089,.08492,.09169,1.02686,4.46238,2.88968,11.96391,3.68273,15.14065l-7.54074,.00103c.77455-3.17227,2.60435-10.67711,3.66048-15.09707,.0139-.06176,.05681-.11174,.11261-.1363m.00285-1.21445h-.00002c-.62375,.03381-1.14908,.47794-1.28618,1.08737-1.36976,5.73204-4.01826,16.56065-4.01826,16.56065l10.60646-.00145s-2.72978-10.86516-4.06047-16.65289c-.15941-.56221-.65804-.96131-1.24153-.99368h0Z"/>
  <g>
    <path class="cls-1" d="M25.3924,11.82294c.72809,3.70593-.31573,7.6781-3.13654,10.61963l-.09473,.09473,.84766,.84766,.10352-.10352c3.30457-3.44489,4.38293-8.16412,3.27161-12.45203l-.99152,.99353Z"/>
    <path class="cls-1" d="M24.35565,6.49103c-.40247-.56458-.84039-1.11237-1.34198-1.62415l-.85742,.83984c.5058,.51599,.94672,1.06934,1.34167,1.64368l.85773-.85938Z"/>
  </g>
  <g>
    <path class="cls-1" d="M8.55109,22.32587l.87073-.87238c-2.56671-1.43915-4.30756-4.18323-4.30756-7.32928,0-4.63135,3.76807-8.39941,8.39941-8.3999,3.13751,.00366,5.87579,1.73969,7.31805,4.29742l.87115-.87286c-1.6875-2.76379-4.72205-4.62091-8.18823-4.62476h-.00049c-5.29346,0-9.6001,4.30664-9.6001,9.6001,0,3.47589,1.86316,6.51685,4.63702,8.20166Z"/>
    <path class="cls-1" d="M21.80396,15.41833c-.55865,3.58984-3.39246,6.42798-6.97998,6.99359l-1.30933,1.31189c5.29266-.00024,9.59863-4.30585,9.59863-9.59912,0-.00586-.00092-.01147-.00092-.01733l-1.30841,1.31097Z"/>
  </g>
  <path class="cls-1" d="M11.15198,15.59064h4.12146l1.40179-1.40448-2.43927-6.36896h-1.46826l-3.96582,10.41846h1.3877l.9624-2.64502Zm1.91797-5.29346c.07031-.20605,.14404-.4209,.22119-.64453s.14258-.45508,.19678-.69385c.04688,.23877,.10645,.4707,.1792,.69531,.07227,.2251,.14844,.43945,.22803,.64307l1.5,4.14502h-3.84277l1.51758-4.14502Z"/>
  <line class="cls-2" x1="2.65973" y1="31.41422" x2="30.44351" y2="3.57678"/>
</svg>