<svg xmlns="http://www.w3.org/2000/svg" viewBox="0 0 40 40"><defs><style>.cls-1{fill:none;stroke:#fff;stroke-miterlimit:10;stroke-width:1.2px;}.cls-2{fill:#fff;}</style></defs><g id="Icon"><g id="V1"><path class="cls-1" d="M14,17.5H9a1.81268,1.81268,0,0,0-.983.49967A1.93254,1.93254,0,0,0,7.5,19.5V34.6a1.40408,1.40408,0,0,0,.31222.91111,1.04438,1.04438,0,0,0,.81935.51209,45.00672,45.00672,0,0,0,22.73686,0,2.22988,2.22988,0,0,0,.81935-.51209A1.62788,1.62788,0,0,0,32.5,34.6V19.5a2.07375,2.07375,0,0,0-.51706-1.50033A1.81262,1.81262,0,0,0,31,17.5H26"/><circle class="cls-2" cx="20" cy="13.5" r="4"/><path class="cls-2" d="M20.00877,28.937a.50393.50393,0,0,0-.52191.3956l-.8,3.7a1.84243,1.84243,0,0,1-3.3.7,2.00985,2.00985,0,0,1-.4-1.3l.8-5.4a21.1066,21.1066,0,0,0,.1-2.9c-.1-.8-.1-1-.1-1s-.1-.3-.3-.1l-2.5,2.4a1.77675,1.77675,0,0,1-1,.4,1.56055,1.56055,0,0,1-1.6-1.5,1.52769,1.52769,0,0,1,.4-1s3.2-3.3,3.9-3.9a7.31659,7.31659,0,0,1,2.7-1.1,4.354,4.354,0,0,1,1.2,0,4.58355,4.58355,0,0,0,1.46505.29488,4.13576,4.13576,0,0,0,1.36129-.29049,4.35353,4.35353,0,0,1,1.2,0,7.31659,7.31659,0,0,1,2.7,1.1c.7.6,3.9,3.9,3.9,3.9a1.52769,1.52769,0,0,1,.4,1,1.56056,1.56056,0,0,1-1.6,1.5,1.77675,1.77675,0,0,1-1-.4l-2.5-2.4c-.2-.2-.3.1-.3.1s0,.2-.1,1a21.1066,21.1066,0,0,0,.1,2.9l.8,5.4a2.00981,2.00981,0,0,1-.4,1.3,1.84242,1.84242,0,0,1-3.3-.7l-.8-3.7A.4521.4521,0,0,0,20.00877,28.937Z"/><path class="cls-1" d="M9.5,17.5V14c0-5.0189,4.72114-9.53267,10.49708-9.53267C25.80239,4.46733,30.5,8.9741,30.5,14v3.5"/></g></g></svg>