<svg id="Icon" xmlns="http://www.w3.org/2000/svg" viewBox="0 0 40 40"><defs><style>.cls-1{fill:none;stroke:#fff;stroke-miterlimit:10;stroke-width:1.2px;}.cls-2{fill:#fff;}</style></defs><g id="mit_Nummern" data-name="mit Nummern"><polygon class="cls-1" points="18.5 36.5 3.5 36.5 3.5 12.5 11 4 18.5 12.5 18.5 36.5"/><rect class="cls-2" x="7" y="15" width="2" height="3"/><rect class="cls-2" x="13" y="15" width="2" height="3"/><rect class="cls-2" x="7" y="22" width="2" height="3"/><rect class="cls-2" x="13" y="22" width="2" height="3"/><rect class="cls-2" x="7" y="29" width="2" height="3"/><rect class="cls-2" x="13" y="29" width="2" height="3"/><line class="cls-1" x1="27" y1="36.5" x2="18.50044" y2="36.5"/><polyline class="cls-1" points="18.5 12.5 26 4 33.5 12.5 33.5 24"/><rect class="cls-2" x="22.00001" y="15" width="2" height="3"/><rect class="cls-2" x="28.00001" y="15" width="2" height="3"/><rect class="cls-2" x="22.00001" y="22" width="2" height="3"/><rect class="cls-2" x="28.00001" y="22" width="2" height="2"/><rect class="cls-2" x="22.00001" y="29" width="2" height="3"/><path id="_1" data-name="1" class="cls-2" d="M34.13211,38.86062V28.69656l-3.07031.53125V27.98953l3.64844-.71484H35.636V38.86062Z"/></g></svg>