<svg xmlns="http://www.w3.org/2000/svg" viewBox="0 0 40 40"><defs><style>.cls-1{fill:none;stroke:#fff;stroke-miterlimit:10;stroke-width:1.2px;}.cls-2{fill:#fff;}</style></defs><g id="Icon"><g id="mit_Nummern" data-name="mit Nummern"><polygon class="cls-1" points="18.5 36.5 3.5 36.5 3.5 12.5 11 4 18.5 12.5 18.5 36.5"/><rect class="cls-2" x="7" y="15" width="2" height="3"/><rect class="cls-2" x="13" y="15" width="2" height="3"/><rect class="cls-2" x="7" y="22" width="2" height="3"/><rect class="cls-2" x="13" y="22" width="2" height="3"/><rect class="cls-2" x="7" y="29" width="2" height="3"/><rect class="cls-2" x="13" y="29" width="2" height="3"/><line class="cls-1" x1="27" y1="36.5" x2="18.50044" y2="36.5"/><polyline class="cls-1" points="18.5 12.5 26 4 33.5 12.5 33.5 24"/><rect class="cls-2" x="22.00001" y="15" width="2" height="3"/><rect class="cls-2" x="28.00001" y="15" width="2" height="3"/><rect class="cls-2" x="22.00001" y="22" width="2" height="3"/><rect class="cls-2" x="28.00001" y="22" width="2" height="2"/><rect class="cls-2" x="22.00001" y="29" width="2" height="3"/><path id="_5" data-name="5" class="cls-2" d="M30.34158,37.12357q.3003.12452.67579.24023.375.11571.80273.20312.42774.0879.89063.14063a8.32657,8.32657,0,0,0,.94335.05273,4.23581,4.23581,0,0,0,1.26368-.166,2.31349,2.31349,0,0,0,.86132-.46679,1.80278,1.80278,0,0,0,.49219-.71485,2.56559,2.56559,0,0,0,.15625-.91406,1.67762,1.67762,0,0,0-.16992-.77148,1.87933,1.87933,0,0,0-.4668-.58594,2.87707,2.87707,0,0,0-.68945-.42774,5.36916,5.36916,0,0,0-.8418-.293,8.49548,8.49548,0,0,0-.92382-.18553q-.4746-.06886-.9336-.10352-.45849-.03517-.873-.04687t-.73828-.01954l.207-5.793h6.53126v1.26958H32.4119l-.125,3.24609q.4497.02345.92968.07031.48048.04688.96485.13477a9.55225,9.55225,0,0,1,.95508.22461,5.99352,5.99352,0,0,1,.89257.33594,4.43639,4.43639,0,0,1,.78125.4707,3.03206,3.03206,0,0,1,.6211.62891,2.86378,2.86378,0,0,1,.41015.81054A3.26024,3.26024,0,0,1,37.99,35.479a4.16581,4.16581,0,0,1-.10937.96875,3.30638,3.30638,0,0,1-.332.85743,2.94141,2.94141,0,0,1-.57032.71875,3.247,3.247,0,0,1-.82617.54882,4.74571,4.74571,0,0,1-1.09375.35156,6.94486,6.94486,0,0,1-1.373.125q-.53173,0-1.01171-.041a8.61346,8.61346,0,0,1-.9043-.123,6.26966,6.26966,0,0,1-.78125-.20117,4.26006,4.26006,0,0,1-.64649-.27149Z"/></g></g></svg>