<svg xmlns="http://www.w3.org/2000/svg" viewBox="0 0 40 40"><defs><style>.cls-1{fill:none;stroke:#fff;stroke-miterlimit:10;stroke-width:1.2px;}.cls-2{fill:#fff;}</style></defs><g id="Icon"><g id="mit_Zahlen" data-name="mit Zahlen"><path class="cls-1" d="M34.5,24V17.23187"/><path class="cls-1" d="M4.5,17.23187V34.5H27"/><path class="cls-1" d="M15.5,34.5v-12h8v12"/><path class="cls-1" d="M37.18778,19.442,19.95283,5.42977,1.68213,19.442"/><path id="_3" data-name="3" class="cls-2" d="M30.17146,37.12794c.20606.083.43261.16309.68164.24023s.51367.14454.79492.20313.57715.10546.88868.14062a8.54451,8.54451,0,0,0,.959.05274,4.18394,4.18394,0,0,0,1.168-.14845,2.51564,2.51564,0,0,0,.85351-.418,1.78529,1.78529,0,0,0,.52539-.64844,1.94161,1.94161,0,0,0,.17969-.84375,2.17919,2.17919,0,0,0-.18554-.91015,1.88066,1.88066,0,0,0-.55469-.70312,2.62541,2.62541,0,0,0-.92383-.45118,4.752,4.752,0,0,0-1.29688-.1582H32.15971v-1.25h1.10156a4.05477,4.05477,0,0,0,1.08007-.13085,2.14833,2.14833,0,0,0,.78907-.38867,1.665,1.665,0,0,0,.48437-.64064,2.21632,2.21632,0,0,0,.166-.88672,1.81381,1.81381,0,0,0-.07812-.54492,1.60537,1.60537,0,0,0-.2207-.44922,1.55872,1.55872,0,0,0-.34961-.35351,1.9827,1.9827,0,0,0-.46485-.252,2.89,2.89,0,0,0-.56445-.15039,3.93985,3.93985,0,0,0-.65039-.05078,7.01453,7.01453,0,0,0-.85547.05078,7.714,7.714,0,0,0-.80274.14063,6.70465,6.70465,0,0,0-.72071.209,5.00848,5.00848,0,0,0-.59765.252v-1.3086q.16845-.0864.375-.16992t.44531-.1582c.15918-.04981.3252-.09375.5-.13282s.35449-.07128.541-.09765.377-.04688.57226-.0625.39356-.02344.59375-.02344a6.28276,6.28276,0,0,1,1.63868.19336,3.32144,3.32144,0,0,1,1.19922.57617,2.44617,2.44617,0,0,1,.73632.95117,3.23388,3.23388,0,0,1,.25,1.31446,3.0967,3.0967,0,0,1-.10742.82031,2.69015,2.69015,0,0,1-.31836.72657,2.86021,2.86021,0,0,1-.52148.61327,3.28254,3.28254,0,0,1-.7168.48047,3.62743,3.62743,0,0,1,.92578.498,2.98765,2.98765,0,0,1,.6582.6797,2.83423,2.83423,0,0,1,.39453.832,3.39355,3.39355,0,0,1,.13086.94726,3.5029,3.5029,0,0,1-.11718.918,2.8647,2.8647,0,0,1-.93946,1.47266,3.484,3.484,0,0,1-.82422.50781,4.77714,4.77714,0,0,1-1.06054.32422,6.94657,6.94657,0,0,1-1.30078.11328c-.36426,0-.708-.01465-1.0293-.043a8.71257,8.71257,0,0,1-.90234-.125,6.29426,6.29426,0,0,1-.77735-.20117,4.4438,4.4438,0,0,1-.65039-.27149Z"/></g></g></svg>