<svg id="Icon" xmlns="http://www.w3.org/2000/svg" viewBox="0 0 40 40"><defs><style>.cls-1{fill:#fff;}</style></defs><path class="cls-1" d="M26.74753,18.58681s2.59394-3.39162,3.03144-3.97463l.80469.5918c-.41895.55566-2.87519,4.09963-2.87519,4.09963Z"/><path class="cls-1" d="M31.82,12.34086a22.17214,22.17214,0,0,1,1.87416-1.7308c.27929-.24024.90074-.69734,1.19176-.922l.35938.47414c-.28027.21582-.75318.65361-1.02173.8831a24.22576,24.22576,0,0,0-1.82089,1.8408Z"/><path class="cls-1" d="M36.53939,8.52243c.48926-.30957.79621-.46724,1.35265-.77947a7.74831,7.74831,0,0,1,.73047-.369l.20341.33637s-.22172.157-.63019.41891c-.51628.33109-.82659.52073-1.33309.89707Z"/><path class="cls-1" d="M38.32574,9.17A22.08465,22.08465,0,0,0,34.288,12.66541c-2.38806,2.68511-4.02929,5.90063-5.97808,8.82312a21.843,21.843,0,0,1-3.32325,4.25933A31.9304,31.9304,0,0,1,14.217,31.94037c-.49371.80414-.94879,1.52643-1.33679,2.132A34.26349,34.26349,0,0,0,21.3584,30.1615a26.23924,26.23924,0,0,0,4.264-3.34039A21.2361,21.2361,0,0,0,28.932,22.54205c1.87487-3.04083,3.38134-6.26556,5.63525-8.98382a21.72984,21.72984,0,0,1,3.86755-3.58777A13.702,13.702,0,0,1,40,8.94153V8.21741A10.60633,10.60633,0,0,0,38.32574,9.17Z"/><path class="cls-1" d="M23.56415,22.10046a20.49221,20.49221,0,0,1-5.00488,2.832c-.15632.06646-.32306.12512-.48279.189-.39386.773-.80475,1.54333-1.22028,2.29761.7926-.34241,1.57074-.6922,2.329-1.0149a22.78,22.78,0,0,0,5.30622-3.52545Z"/><path class="cls-1" d="M36.4751,6.54822a25.6861,25.6861,0,0,0-7.48572,5.2453c-1.07739,1.057-2.02441,2.21313-3.02563,3.28308A24.77707,24.77707,0,0,1,22.769,18.02405a12.21839,12.21839,0,0,1-2.18957,1.282c-.16639.51752-.36084,1.055-.57843,1.60712a12.89825,12.89825,0,0,0,3.45544-1.99884,25.31691,25.31691,0,0,0,3.20294-3.219c.97528-1.14093,1.86072-2.32458,2.85669-3.39117A23.63545,23.63545,0,0,1,36.62616,7.208C37.73022,6.66486,38.859,6.16968,40,5.7019V5.13678C38.81116,5.56805,37.634,6.0343,36.4751,6.54822Z"/><path class="cls-1" d="M10.00857,6.81777v1.2a8.00807,8.00807,0,0,1,8.00806,8.00812c0,3.4289-5.10327,12.077-8.00821,16.59472-2.90493-4.517-8.008-13.16394-8.008-16.59479a8.01718,8.01718,0,0,1,8.00818-8.008v-1.2m0,0h-.00006A9.20808,9.20808,0,0,0,.80039,16.02582v.00007c0,5.08554,9.20812,18.78186,9.20812,18.78186s9.20812-13.69633,9.20812-18.78186a9.20809,9.20809,0,0,0-9.20806-9.20812Z"/><path class="cls-1" d="M10.00878,11.56291a3.92245,3.92245,0,1,1-2.77362,1.14878,3.92693,3.92693,0,0,1,2.77362-1.14878m0-1.07755a5,5,0,1,0-.00028,10h.0002a5,5,0,0,0,.00008-10Z"/><path id="_2" data-name="2" class="cls-1" d="M30.053,38.86422V37.71579l2.98047-2.86719q.48486-.46436.89258-.875.40869-.41016.74219-.7832.334-.37353.58789-.7168a5.4609,5.4609,0,0,0,.42773-.67188,3.15782,3.15782,0,0,0,.26172-.65039,2.47349,2.47349,0,0,0,.08789-.65429,2.42237,2.42237,0,0,0-.14648-.86328,1.663,1.663,0,0,0-.44531-.65625,2.02557,2.02557,0,0,0-.75782-.41407,3.61112,3.61112,0,0,0-1.084-.14453q-.4922,0-.93164.03906a7.65229,7.65229,0,0,0-.83594.11915,6.4,6.4,0,0,0-.752.19921,4.99961,4.99961,0,0,0-.67969.28321V27.73922a4.129,4.129,0,0,1,.625-.28125,5.59587,5.59587,0,0,1,.74023-.20507,7.46571,7.46571,0,0,1,.85743-.125q.457-.041.98437-.041a6.90408,6.90408,0,0,1,1.27149.10742,4.44747,4.44747,0,0,1,1.01171.3086,2.839,2.839,0,0,1,.76172.49414,2.663,2.663,0,0,1,.52539.66406,2.98962,2.98962,0,0,1,.30469.81836,4.46924,4.46924,0,0,1,.09766.959,3.6472,3.6472,0,0,1-.125.959,4.40377,4.40377,0,0,1-.35352.89453,6.20573,6.20573,0,0,1-.54687.85547q-.31788.42041-.70508.83984-.38672.42041-.834.84766-.44676.42773-.92382.873l-2.01172,1.918h5.96484v1.23824Z"/></svg>