<svg id="Icon" xmlns="http://www.w3.org/2000/svg" viewBox="0 0 40 40"><defs><style>.cls-1{fill:#fff;}</style></defs><path class="cls-1" d="M26.74753,18.58681s2.59394-3.39162,3.03144-3.97463l.80469.5918c-.41895.55566-2.87519,4.09963-2.87519,4.09963Z"/><path class="cls-1" d="M31.82,12.34086a22.17214,22.17214,0,0,1,1.87416-1.7308c.27929-.24024.90074-.69734,1.19176-.922l.35938.47414c-.28027.21582-.75318.65361-1.02173.8831a24.22576,24.22576,0,0,0-1.82089,1.8408Z"/><path class="cls-1" d="M36.53939,8.52243c.48926-.30957.79621-.46724,1.35265-.77947a7.74831,7.74831,0,0,1,.73047-.369l.20341.33637s-.22172.157-.63019.41891c-.51628.33109-.82659.52073-1.33309.89707Z"/><path class="cls-1" d="M38.32574,9.17A22.08465,22.08465,0,0,0,34.288,12.66541c-2.38806,2.68511-4.02929,5.90063-5.97808,8.82312a21.843,21.843,0,0,1-3.32325,4.25933A31.9304,31.9304,0,0,1,14.217,31.94037c-.49371.80414-.94879,1.52643-1.33679,2.132A34.26349,34.26349,0,0,0,21.3584,30.1615a26.23924,26.23924,0,0,0,4.264-3.34039A21.2361,21.2361,0,0,0,28.932,22.54205c1.87487-3.04083,3.38134-6.26556,5.63525-8.98382a21.72984,21.72984,0,0,1,3.86755-3.58777A13.702,13.702,0,0,1,40,8.94153V8.21741A10.60633,10.60633,0,0,0,38.32574,9.17Z"/><path class="cls-1" d="M23.56415,22.10046a20.49221,20.49221,0,0,1-5.00488,2.832c-.15632.06646-.32306.12512-.48279.189-.39386.773-.80475,1.54333-1.22028,2.29761.7926-.34241,1.57074-.6922,2.329-1.0149a22.78,22.78,0,0,0,5.30622-3.52545Z"/><path class="cls-1" d="M36.4751,6.54822a25.6861,25.6861,0,0,0-7.48572,5.2453c-1.07739,1.057-2.02441,2.21313-3.02563,3.28308A24.77707,24.77707,0,0,1,22.769,18.02405a12.21839,12.21839,0,0,1-2.18957,1.282c-.16639.51752-.36084,1.055-.57843,1.60712a12.89825,12.89825,0,0,0,3.45544-1.99884,25.31691,25.31691,0,0,0,3.20294-3.219c.97528-1.14093,1.86072-2.32458,2.85669-3.39117A23.63545,23.63545,0,0,1,36.62616,7.208C37.73022,6.66486,38.859,6.16968,40,5.7019V5.13678C38.81116,5.56805,37.634,6.0343,36.4751,6.54822Z"/><path class="cls-1" d="M10.00857,6.81777v1.2a8.00807,8.00807,0,0,1,8.00806,8.00812c0,3.4289-5.10327,12.077-8.00821,16.59472-2.90493-4.517-8.008-13.16394-8.008-16.59479a8.01718,8.01718,0,0,1,8.00818-8.008v-1.2m0,0h-.00006A9.20808,9.20808,0,0,0,.80039,16.02582v.00007c0,5.08554,9.20812,18.78186,9.20812,18.78186s9.20812-13.69633,9.20812-18.78186a9.20809,9.20809,0,0,0-9.20806-9.20812Z"/><path class="cls-1" d="M10.00878,11.56291a3.92245,3.92245,0,1,1-2.77362,1.14878,3.92693,3.92693,0,0,1,2.77362-1.14878m0-1.07755a5,5,0,1,0-.00028,10h.0002a5,5,0,0,0,.00008-10Z"/><path id="_3" data-name="3" class="cls-1" d="M30.17145,37.1316c.20606.083.43262.16309.68164.24023s.51367.14454.79492.20313.57715.10547.88868.14062a8.54228,8.54228,0,0,0,.959.05274,4.18393,4.18393,0,0,0,1.168-.14844,2.51574,2.51574,0,0,0,.85351-.418,1.7854,1.7854,0,0,0,.52539-.64845,1.94161,1.94161,0,0,0,.17969-.84375,2.179,2.179,0,0,0-.18554-.91014,1.88062,1.88062,0,0,0-.55469-.70313,2.62513,2.62513,0,0,0-.92383-.45117,4.75115,4.75115,0,0,0-1.29688-.1582H32.1597v-1.25h1.10156a4.05526,4.05526,0,0,0,1.08008-.13086,2.14848,2.14848,0,0,0,.78907-.38867,1.66513,1.66513,0,0,0,.48437-.64063,2.21673,2.21673,0,0,0,.166-.88672,1.814,1.814,0,0,0-.07813-.54492,1.60516,1.60516,0,0,0-.2207-.44923,1.55847,1.55847,0,0,0-.34961-.3535,1.98253,1.98253,0,0,0-.46485-.252,2.89068,2.89068,0,0,0-.56445-.15039,3.93977,3.93977,0,0,0-.65039-.05078,7.01653,7.01653,0,0,0-.85547.05078,7.71334,7.71334,0,0,0-.80273.14063,6.70628,6.70628,0,0,0-.72071.209,5.00874,5.00874,0,0,0-.59765.252V27.73315q.16844-.08641.375-.16992t.44531-.1582c.15918-.04981.3252-.09375.5-.13282s.35449-.07128.541-.09765.377-.04689.57226-.0625.39356-.02344.59375-.02344a6.28184,6.28184,0,0,1,1.63867.19336,3.32111,3.32111,0,0,1,1.19922.57617,2.44615,2.44615,0,0,1,.73633.95117,3.23418,3.23418,0,0,1,.25,1.31446,3.09676,3.09676,0,0,1-.10743.82031,2.68991,2.68991,0,0,1-.31836.72656,2.86051,2.86051,0,0,1-.52148.61328,3.283,3.283,0,0,1-.7168.48047,3.62681,3.62681,0,0,1,.92578.498,2.98719,2.98719,0,0,1,.6582.67969,2.83423,2.83423,0,0,1,.39453.832,3.39355,3.39355,0,0,1,.13086.94726,3.5029,3.5029,0,0,1-.11718.918,2.8647,2.8647,0,0,1-.93946,1.47266,3.4838,3.4838,0,0,1-.82422.50781,4.77722,4.77722,0,0,1-1.06053.32422,6.94675,6.94675,0,0,1-1.30079.11328c-.36426,0-.708-.01465-1.0293-.043a8.71023,8.71023,0,0,1-.90234-.125,6.29248,6.29248,0,0,1-.77735-.20117,4.44375,4.44375,0,0,1-.65039-.27148Z"/></svg>