<svg id="Icon" xmlns="http://www.w3.org/2000/svg" viewBox="0 0 40 40"><defs><style>.cls-1{fill:#fff;}</style></defs><g id="V2"><path class="cls-1" d="M19.99611,37.55511c.42963,0,1.01637.00006,2.14453-.041,1.35742-.04943,1.71582-.73047,2.21-1.74219l.06543-.13379c.14453-.293.5332-1.14648.70215-1.53418a12.91481,12.91481,0,0,0,1.05859-3.624c.041-.26563.09375-.76465.1211-1.22266l-.3086.17188c-.25488.14355-.43359.24316-.498.27246a2.60988,2.60988,0,0,1-.96875.24316c-.04688.00488-.37012.0293-.69727.03613l-.667.01758c-.93945.02442-2.252.05078-3.15723.0586-.93847.00781-2.22168-.03321-3.16113-.0586l-.66406-.01758c-.32813-.00683-.65137-.03125-.7002-.03613a2.62972,2.62972,0,0,1-.96777-.24316c-.06348-.03028-.25-.13379-.51563-.28223l-.2832-.1582c.02637.51172.08008.99414.11426,1.21875a12.93319,12.93319,0,0,0,1.05957,3.624c.16894.3877.55762,1.24121.70215,1.53418l.06445.13184c.49414,1.01269.83906,1.69943,2.21094,1.74414C18.97891,37.55055,19.56648,37.55511,19.99611,37.55511Zm.10059-1.88965h-.09864c-.03711-.001-.66894.002-1.1914-.02343-.875-.041-1.10938-.33789-1.51758-1.41211a13.89625,13.89625,0,0,1-.86035-2.99121l-.03223-.28321h7.208l-.03223.28321a13.89625,13.89625,0,0,1-.86035,2.99121h0c-.4082,1.07422-.64258,1.37109-1.51758,1.41211C20.78224,35.66253,20.30373,35.66546,20.0967,35.66546Z"/><path class="cls-1" d="M19.80228,22.00042a1.20972,1.20972,0,0,0,.19843.66645,1.21858,1.21858,0,0,0,.00064-1.332A1.21,1.21,0,0,0,19.80228,22.00042Z"/><path class="cls-1" d="M21.7455,21.02343a1.20891,1.20891,0,0,0-1.44923-.00053,1.63217,1.63217,0,0,1-.00032,1.95547,1.20818,1.20818,0,0,0,.72421.24017h.00032a1.2079,1.2079,0,0,0,.72534-.24085,1.62843,1.62843,0,0,1-.00032-1.95426Z"/><path class="cls-1" d="M17.66608,21.02351a1.21786,1.21786,0,1,0,.00048,1.95438,1.62829,1.62829,0,0,1-.00048-1.95438Z"/><path class="cls-1" d="M17.76241,22.00042a1.21013,1.21013,0,0,0,.19923.66553,1.21444,1.21444,0,0,0-.00064-1.33006A1.21069,1.21069,0,0,0,17.76241,22.00042Z"/><path class="cls-1" d="M18.9811,20.78205h-.00017a1.21008,1.21008,0,0,0-.725.24146,1.63053,1.63053,0,0,1,.00064,1.95438,1.21118,1.21118,0,0,0,1.44907.00048,1.62953,1.62953,0,0,1,.00064-1.95542A1.20846,1.20846,0,0,0,18.9811,20.78205Z"/><path class="cls-1" d="M29.73544,20.42641c.12247-.62743.22877-1.12447.23723-1.18848.04091-.31331-.08825-.45844-.36765-.61657a21.41225,21.41225,0,0,0-3.25665-1.50223l-.62471-.19983c-.7107-.11618-1.25019-.12616-2.051-.19535,0,0-2.82485-.111-3.67215-.111-.84743,0-3.67228.111-3.67228.111-.801.06919-1.34033.07917-2.05115.19535l-.62459.19983a21.39655,21.39655,0,0,0-3.25652,1.50223c-.27953.15813-.40869.30326-.36765.61657.00833.064.11464.56105.23711,1.18848.22486,1.15255.59958,2.64083.65564,2.99384a.86448.86448,0,0,1-.02639.42788c-.07512.20277-.13509.35636-.21425.529a.45312.45312,0,0,0,.00846.469A34.952,34.952,0,0,0,12.639,27.901a1.07317,1.07317,0,0,0,.46664.39989c.63368.323,1.55749.86744,1.66569.9146a2.83432,2.83432,0,0,0,1.18731.20557c.28345.012,2.48333.08267,4.04183.08264,1.55838,0,3.75838-.07064,4.0417-.08264a2.8339,2.8339,0,0,0,1.18731-.20557c.10833-.04716,1.032-.59161,1.6657-.9146a1.07323,1.07323,0,0,0,.46664-.39989,34.88823,34.88823,0,0,0,1.95-3.05485.45289.45289,0,0,0,.00858-.469c-.07928-.17268-.13913-.32627-.21413-.529a.86452.86452,0,0,1-.02651-.42788C29.13585,23.06724,29.51058,21.579,29.73544,20.42641Zm-6.67525,3.2144a1.631,1.631,0,0,1-1.019-.35725,1.62743,1.62743,0,0,1-1.02074.35725h-.00032a1.62678,1.62678,0,0,1-1.01945-.35645,1.63419,1.63419,0,0,1-2.03891-.00064,1.64112,1.64112,0,1,1-.0008-2.56589A1.6314,1.6314,0,0,1,18.98093,20.36h.00017a1.62665,1.62665,0,0,1,1.02041.35713,1.63212,1.63212,0,0,1,2.03891.0006,1.63824,1.63824,0,0,1,2.66021,1.28259A1.57981,1.57981,0,0,1,23.06019,23.64081Z"/><path class="cls-1" d="M21.84183,22.0003a1.20971,1.20971,0,0,0,.19923.66549,1.21439,1.21439,0,0,0-.00064-1.33A1.21067,1.21067,0,0,0,21.84183,22.0003Z"/><path class="cls-1" d="M39.26886,18.0766A22.97137,22.97137,0,0,0,36.8988,12H33.21606c.137.297.26117.57642.36335.81195a8.16356,8.16356,0,0,0,.38183.81348c.02442.03418.12989.14843.27832.31347a16.08136,16.08136,0,0,1,1.94239,2.457,2.10521,2.10521,0,0,1,.02343,2.2246,2.0151,2.0151,0,0,1-2.2666.55567c-1.10742-.26074-2.42285-.58789-3.61914-.88574q-.16113-.03956-.31933-.07911a1.10915,1.10915,0,0,1,.48925,1.29786c-.01562.07617-.13867.6455-.293,1.35449l-.51953,2.39941a2.16327,2.16327,0,0,0-.05859.3418c.06641.17773.15625.417.21875.5791.02832-.002.05957-.00488.09277-.00781,1.09278-.01953,4.37305-.0625,4.99121-.06836a.85554.85554,0,0,1,.86231.45605c.09082.20411.18652.42969.27344.67481a1.26414,1.26414,0,0,1,.03125.68848,25.899,25.899,0,0,1-2.38575,5.65722,11.98748,11.98748,0,0,1-3.77148,4.5459,3.12281,3.12281,0,0,1-1.65234.55859l-.28516.03516c-.33789.04724-1.94092.129-3.59082.19678a2.53566,2.53566,0,0,1-2.23926,1.19287c-1.13965.041-1.73144.041-2.166.041h-.001c-.43359,0-1.02637-.00488-2.15527-.041a2.49389,2.49389,0,0,1-2.2417-1.18634c-1.68457-.069-3.24268-.15448-3.59229-.20331L11.723,36.6889a3.12278,3.12278,0,0,1-1.65234-.55859,11.9875,11.9875,0,0,1-3.77149-4.5459,25.87838,25.87838,0,0,1-2.38672-5.65722,1.27011,1.27011,0,0,1,.03223-.68946c.08692-.24414.18262-.46972.27344-.67383a.8267.8267,0,0,1,.8623-.45605c.61817.00586,3.89844.04883,4.97559.06738.03906.00293.07519.00684.1084.00977.06152-.16309.15234-.40235.21875-.58008a2.16338,2.16338,0,0,0-.0586-.3418L9.805,20.86371c-.15429-.709-.27734-1.27832-.293-1.35352a1.109,1.109,0,0,1,.48926-1.29883c-.10937.02735-.21875.05469-.33008.082-1.19433.29687-2.5039.62207-3.60937.88281a2.01562,2.01562,0,0,1-2.26563-.55567,2.10921,2.10921,0,0,1,.02246-2.2246,16.251,16.251,0,0,1,1.94239-2.457c.14941-.16406.25488-.27929.28515-.32129a8.62356,8.62356,0,0,0,.376-.80566A17.8858,17.8858,0,0,1,8.1087,9.63422a7.29178,7.29178,0,0,1,4.49414-3.25489A37.71673,37.71673,0,0,1,20.00031,5.77,41.48385,41.48385,0,0,1,27,6.29254V3.9798a37.24151,37.24151,0,0,0-6.99969-.50672,35.57439,35.57439,0,0,0-7.92286.68457A12.12527,12.12527,0,0,0,7.22394,6.78656a22.10524,22.10524,0,0,0-6.49219,11.29C-.4245,23.03754.95538,26.91742,1.9632,29.75043c.30175.84961.56445,1.58691.73144,2.26074a30.81029,30.81029,0,0,0,5.42578,5.74414c1.52637,1.13965,2.03418,1.33789,5.65039,1.541,2.8877.16113,5.69239.16894,6.22461.16894.53906,0,3.34864-.00781,6.23633-.16894,3.61523-.20313,4.123-.40137,5.64941-1.541A30.77081,30.77081,0,0,0,37.307,32.01117c.167-.67383.42968-1.41016.73144-2.26074C39.0462,26.91742,40.42609,23.03754,39.26886,18.0766Z"/><path class="cls-1" d="M37.588,2.15315A5.92279,5.92279,0,0,0,33.59644,1H29V16h2V10h2.487c3.41812-.07636,5.3006-1.60419,5.3006-4.52782A4.58547,4.58547,0,0,0,37.588,2.15315Zm-.88587,3.32539c0,1.474-.76511,2.54223-2.012,2.54223-.12414,0-.24722.02291-.37132.01958l-3.35128.03819v-5.183h3.58422A2.36738,2.36738,0,0,1,36.70208,5.47854Z"/><path class="cls-1" d="M22.33393,21.02351a1.21787,1.21787,0,1,1-.00048,1.95438,1.62829,1.62829,0,0,0,.00048-1.95438Z"/></g></svg>