<svg id="E6A0_sitzklimabalance_lehne_lueftung" xmlns="http://www.w3.org/2000/svg" viewBox="0 0 40 40"><defs><style>.cls-1{fill:#fff;}.cls-2{fill:#00b9ff;stroke:#00b9ff;stroke-miterlimit:10;stroke-width:0.5px;}</style></defs><path id="Sitzflaeche" class="cls-1" d="M12.16016,35.44238l-1.457-3.58105a1.34636,1.34636,0,0,1-.28125-.66211l-.01464-.20508.11523-.1709a.90759.90759,0,0,1,.78125-.38769h0l.44434.0039a25.28407,25.28407,0,0,0,8.13623-1.38672,20.46913,20.46913,0,0,1,6.38183-1.16992l1.40869.00293,3.51758-.00293a2.80688,2.80688,0,0,1,2.96826,2.57324l-.69189,4.40333a2.7488,2.7488,0,0,1-2.61768,2.2373h-16.23A2.78034,2.78034,0,0,1,12.16016,35.44238Zm20.12646-.78711.68115-4.292c0-.7334-.9375-1.28125-1.7749-1.28125l-3.519.00293L26.26465,29.082a19.4909,19.4909,0,0,0-6.03174,1.11914,26.39642,26.39642,0,0,1-8.32471,1.4375l1.35254,3.32715a1.55419,1.55419,0,0,0,1.36035.93164H30.84424A1.52983,1.52983,0,0,0,32.28662,34.65527Z"/><path class="cls-2" d="M13.44824,27.749a.66251.66251,0,0,0,.65039-.67187V25.39453a37.85024,37.85024,0,0,1-2.6123-7.064,40.50855,40.50855,0,0,1-1.00391-4.90088,2.31855,2.31855,0,0,0-1.52637-1.97608V10.19855a3.5181,3.5181,0,0,1,2.71778,3.09735A39.52519,39.52519,0,0,0,12.64551,18.02a36.34173,36.34173,0,0,0,2.58691,6.95752l.06543.12891v1.9707a1.86182,1.86182,0,0,1-1.84961,1.87109h-.05786L13.059,27.749Z"/><path id="Kopfstuetze" class="cls-1" d="M9.85645,9.16211c-.28516-.05029-1.77442-.30859-3.01563-.44775A1.40185,1.40185,0,0,1,5.59473,7.34619C5.70215,4.34131,7.24512,2.686,9.92871,2.686l.123-.002a1.39641,1.39641,0,0,1,1.498,1.38623c.00782.59571.00489,1.13037.002,1.71826-.00391.59229-.00781,1.21729,0,1.95655a1.36148,1.36148,0,0,1-.374,1.01269,1.41165,1.41165,0,0,1-1.0332.4292A1.68129,1.68129,0,0,1,9.85645,9.16211Zm.083-5.27588c-2.03222,0-3.06054,1.146-3.1455,3.49805a.261.261,0,0,0,.17871.1372c1.27929.14356,2.80078.40723,3.08886.458a.28434.28434,0,0,0,.2461-.04834.1869.1869,0,0,0,.04492-.14941c-.00781-.771-.00391-1.40283,0-2.02393.00293-.55615.00488-1.084-.00195-1.66992-.002-.08594-.00391-.20361-.28809-.20361Z"/><path class="cls-1" d="M7.15039,10.0542l.05713.00311v1.20038l-.07764-.00427a.93607.93607,0,0,0-.91211.93262,35.117,35.117,0,0,0,.88575,7.22753,31.218,31.218,0,0,0,2.709,7.938.68072.68072,0,0,0,.60742.39746h.8208l.33283,1.19922H10.41992a1.85905,1.85905,0,0,1-1.67285-1.0459,32.35013,32.35013,0,0,1-2.81543-8.22949A36.359,36.359,0,0,1,5.01855,12.187,2.14917,2.14917,0,0,1,7.15039,10.0542Z"/></svg>