<svg xmlns="http://www.w3.org/2000/svg" viewBox="0 0 40 40"><defs><style>.cls-1{fill:none;stroke:#fff;stroke-linejoin:bevel;stroke-width:1.2px;}.cls-2{fill:#fff;}</style></defs><g id="Icon_neu" data-name="Icon neu"><g id="V2"><path class="cls-1" d="M17.99492,26.51749c-11.07847-.01781-17-8.08669-17-8.52348v-.11125l.066-.09864a21.23926,21.23926,0,0,1,16.934-8.26662,21.23926,21.23926,0,0,1,16.934,8.26662l.066.09864V17.994c0,.4368-5.92153,8.48255-17,8.50037"/><path class="cls-2" d="M17.99511,13.7686a4.25,4.25,0,1,0,4.24981,4.25019V18.0186a4.24992,4.24992,0,0,0-4.24983-4.25Z"/><path class="cls-2" d="M17.99492,10.7175a7.3,7.3,0,1,1-7.3,7.3,7.3,7.3,0,0,1,7.3-7.3m0-1.2a8.5,8.5,0,1,0,8.5,8.5A8.5,8.5,0,0,0,17.99492,9.5175Z"/></g><path class="cls-2" d="M38.292,32.9826l-.80566-2.206H33.60449l-.80273,2.206H31.64453l3.30762-8.68945h1.22461l3.32812,8.68945Zm-2.39941-6.62109q-.09962-.25488-.19043-.53613a5.04564,5.04564,0,0,1-.14942-.58008,5.43054,5.43054,0,0,1-.16406.5791q-.09667.27979-.18457.53711l-1.26562,3.457h3.20507Z"/></g></svg>