<svg id="Icon" xmlns="http://www.w3.org/2000/svg" viewBox="0 0 40 40"><defs><style>.cls-1{fill:#fff;}.cls-2{fill:none;stroke:#fff;stroke-miterlimit:10;stroke-width:1.2px;}</style></defs><path class="cls-1" d="M20,33A13,13,0,1,1,33,20v0A13,13,0,0,1,20,33Zm0,0A13,13,0,1,1,33,20v0A13,13,0,0,1,20,33Z"/><path class="cls-2" d="M19.965,2.5a17.5,17.5,0,1,0,.06994,0Q20,2.5,19.965,2.5Z"/><g id="E134_Vwarn_KMH-2" data-name="E134 Vwarn KMH-2"><g id="Version_2-3" data-name="Version 2-3"><path d="M11.41771,19.90666l3.00436,3.07311H13.275l-2.34412-2.38411v2.38411h-.89966V15.22021h.89966v4.112l1.91654-2.18286h1.07233Z"/><path d="M19.114,22.97974v-3.9246a2.31956,2.31956,0,0,0-.05555-.54579,1.04851,1.04851,0,0,0-.16157-.37079.64185.64185,0,0,0-.20112-.19123.38967.38967,0,0,0-.30459.044,1.48776,1.48776,0,0,0-.2695.16943.63408.63408,0,0,0-.19228.24442v4.57454h-.84264v-3.9246a3.48962,3.48962,0,0,0-.025-.555,1.05315,1.05315,0,0,0-.17353-.37042.596.596,0,0,0-.2414-.21967.23676.23676,0,0,0-.20361-.01731,1.25783,1.25783,0,0,0-.28482.0986,1.021,1.021,0,0,0-.26822.16943c-.07481.07129-.07037.14025-.10352.24442v4.57454h-.84737V17.14421h.62839l.046.53328a2.14894,2.14894,0,0,1,.26375-.27637,1.65573,1.65573,0,0,1,.29886-.21109,1.39985,1.39985,0,0,1,.699-.18191c.30249,0,.484.27773.63589.48889a1.49126,1.49126,0,0,1,.19413.375,2.62159,2.62159,0,0,1,.28482-.35691,1.78176,1.78176,0,0,1,.327-.2722,1.54459,1.54459,0,0,1,.63678-.23477.84409.84409,0,0,1,.67562.4778,1.52,1.52,0,0,1,.196.36942,2.318,2.318,0,0,1,.11878.47078,3.82766,3.82766,0,0,1,.0396.57078v4.08292Z"/><path d="M20.84614,22.97974l3.33874-7.75953h.86967l-3.32874,7.75958Z"/><path d="M28.93227,22.97974V18.965a1.89826,1.89826,0,0,0-.05576-.49107.87883.87883,0,0,0-.15384-.33362.64247.64247,0,0,0-.27095-.18993,2.49938,2.49938,0,0,0-.58058-.06,1.156,1.156,0,0,0-.26176.02872,1.41847,1.41847,0,0,0-.29258.08872,1.69014,1.69014,0,0,0-.27553.14993.32118.32118,0,0,0-.151.2124v4.60955H26.0644V15.30646h.82589l-.0273,2.17541a.62345.62345,0,0,1,.14966-.13425,1.71856,1.71856,0,0,1,.30311-.18618,1.64775,1.64775,0,0,1,.33983-.12,1.33938,1.33938,0,0,1,.34226-.04248,5.12112,5.12112,0,0,1,.73365.04873,1.29619,1.29619,0,0,1,.35755.1437,1.09813,1.09813,0,0,1,.27947.23741,1.32158,1.32158,0,0,1,.20141.33238,1.87944,1.87944,0,0,1,.122.42359c.02688.15577.068.8817.068,1.06829v3.72669Z"/></g></g></svg>