<svg id="Icon" xmlns="http://www.w3.org/2000/svg" viewBox="0 0 40 40"><defs><style>.cls-1{fill:#fff;}.cls-2{fill:none;stroke:#fff;stroke-miterlimit:10;stroke-width:1.2px;}</style></defs><path class="cls-1" d="M20,33A13,13,0,1,1,33,20v0A13,13,0,0,1,20,33Zm0,0A13,13,0,1,1,33,20v0A13,13,0,0,1,20,33Z"/><path class="cls-2" d="M19.965,2.5a17.5,17.5,0,1,0,.06994,0Q20,2.5,19.965,2.5Z"/><path d="M16.96147,23.82863v-5.3445c0-.15334.02994-.92091.051-1.12421-.07445.21021-2.21906,4.30817-2.21906,4.30817h-.807S11.986,17.45645,11.95042,17.36c.01942.193.034.38335.0437.57286.00971.18781.01457.37216.01457.55134v5.3445h-.89341V16.1634h1.23424s2.088,4.39749,2.13561,4.55626c.04466-.15971,2.1477-4.55626,2.1477-4.55626h1.22455v7.66527Z"/><path d="M19.05744,23.8419V16.17662h2.46873a3.41328,3.41328,0,0,1,.72931.07234,2.28862,2.28862,0,0,1,.59341.21362,1.78455,1.78455,0,0,1,.45878.34631,1.87629,1.87629,0,0,1,.32663.47036A2.384,2.384,0,0,1,23.83,17.865a3.52279,3.52279,0,0,1,.06483.69434,3.75705,3.75705,0,0,1-.06109.69779,2.35565,2.35565,0,0,1-.18824.58752,1.73775,1.73775,0,0,1-.32663.46949,1.77811,1.77811,0,0,1-.47623.34372,2.5102,2.5102,0,0,1-.63456.21192,4.07315,4.07315,0,0,1-.80411.07234H19.99742v2.89967Zm2.26428-3.67241a2.22707,2.22707,0,0,0,.74177-.10855,1.213,1.213,0,0,0,.49617-.31529,1.24829,1.24829,0,0,0,.278-.50654,2.43269,2.43269,0,0,0,.08726-.67969,2.308,2.308,0,0,0-.08726-.653,1.33336,1.33336,0,0,0-.273-.5074,1.2508,1.2508,0,0,0-.475-.32994,1.86313,1.86313,0,0,0-.69564-.11716h-1.3966v3.21756Z"/><path d="M29.08074,23.8419V20.30646H25.95327V23.8419h-.89065V16.17662h.89065v3.3261h3.12747v-3.3261h.89066V23.8419Z"/></svg>