<svg id="Hilfe" xmlns="http://www.w3.org/2000/svg" viewBox="0 0 40 40"><defs><style>.cls-1{fill:#fff;}</style></defs><path class="cls-1" d="M22.366,3.16541a16.97476,16.97476,0,0,0-15.551,6.1l1.38861.19519a15.82606,15.82606,0,0,1,11.775-5.31341,16.06114,16.06114,0,0,1,2.22735.15637,15.85185,15.85185,0,0,1-2.18463,31.54925,16.06114,16.06114,0,0,1-2.22735-.15637A15.862,15.862,0,0,1,4.16675,20H3.01794A16.99156,16.99156,0,1,0,22.366,3.16541Z"/><polygon class="cls-1" points="9.905 8.842 11.308 10.237 4 13 6.622 5.582 8.03 6.978 9.905 8.842"/></svg>