<svg id="Icon" xmlns="http://www.w3.org/2000/svg" viewBox="0 0 40 40"><defs><style>.cls-1{fill:none;stroke:#fff;stroke-miterlimit:10;stroke-width:1.2px;}.cls-2{fill:#fff;}</style></defs><g id="E007_data_transmission" data-name="E007 data transmission"><path class="cls-1" d="M10.59305,18.57559,4.526,12.49668H19"/><path class="cls-1" d="M12.46945,3.43949l6.067,6.067H4"/></g><path class="cls-2" d="M20,36a1.99945,1.99945,0,1,1-.0011,0Z"/><path class="cls-2" d="M9.52668,28.20905a15.00907,15.00907,0,0,1,20.94665.00184l.87923-.81659a16.2037,16.2037,0,0,0-22.70512-.002Z"/><path class="cls-2" d="M14.06764,32.42579a8.54692,8.54692,0,0,1,11.8652.00086l.87922-.81653A9.74389,9.74389,0,0,0,13.18794,31.609Z"/><path class="cls-2" d="M16,17.21777v1.21259a20.88818,20.88818,0,0,1,18.8028,5.76019l.8797-.81671A22.076,22.076,0,0,0,16,17.21777Z"/><path class="cls-2" d="M24,11.23322v1.2135a26.66545,26.66545,0,0,1,14.8111,7.42016q.15709.155.31164.31256L40,19.36505A27.85621,27.85621,0,0,0,24,11.23322Z"/></svg>