<svg xmlns="http://www.w3.org/2000/svg" viewBox="0 0 40 40"><defs><style>.cls-1{fill:#fff;}</style></defs><g id="Icon"><g id="E626_navigation_accept_destination" data-name="E626 navigation accept destination"><path class="cls-1" d="M1,24,13,38,39,2,12.5,32.5Z"/></g><g id="E3FB_uc_guest" data-name="E3FB uc guest"><g id="V2-43"><path class="cls-1" d="M31.3,33l-.17712-2.2402,1.7041-1.65527q.45849-.45411.874-.86914a7.78553,7.78553,0,0,0,.72461-.8252,4.08532,4.08532,0,0,0,.4961-.835,2.242,2.242,0,0,0,.18555-.90332,1.39381,1.39381,0,0,0-.18555-.72266,1.57,1.57,0,0,0-.51758-.52441,2.49956,2.49956,0,0,0-.78125-.32031,4.20809,4.20809,0,0,0-.97656-.10743q-.34278,0-.67383.02442c-.2207.0166-.43945.041-.65431.07324s-.42577.07324-.63281.12207q-.30906.07324-.60547.166-.29443.09228-.57617.21c-.18652.07812-.324.15918-.50371.24414V23.19632a5.05471,5.05471,0,0,1,.75371-.36133,7.44877,7.44877,0,0,1,.93457-.27343,9.13062,9.13062,0,0,1,1.0498-.1709,10.9081,10.9081,0,0,1,1.15235-.0586,6.63554,6.63554,0,0,1,.98633.0752,5.33689,5.33689,0,0,1,.959.2373,4.301,4.301,0,0,1,.86523.41309,3.03737,3.03737,0,0,1,.7002.5957,2.62675,2.62675,0,0,1,.46875.791,2.77707,2.77707,0,0,1,.1709,1.00293,3.89962,3.89962,0,0,1-.11719.97363,4.29257,4.29257,0,0,1-.32422.86719,5.48739,5.48739,0,0,1-.48144.78125,8.12854,8.12854,0,0,1-.583.70312q-.31053.33252-.6377.63965-.32664.30762-.63476.59571l-1.45019,1.29882L32.7,33ZM31,37V35h2v2Z"/></g></g></g></svg>