<svg id="Icon" xmlns="http://www.w3.org/2000/svg" viewBox="0 0 40 40"><defs><style>.cls-1{fill:#fff;}.cls-2{fill:none;stroke:#fff;stroke-linejoin:round;stroke-width:1.2px;}</style></defs><g id="E054_phone_call" data-name="E054 phone call"><path class="cls-1" d="M18.50063,19.11364c-1.98877-2.0929-4.41453-5.27724-4.49664-6.28526-.09338-1.14809,1.47913-3.55366,2.01107-3.81386s3.86081,3.05633,3.64205,3.6452-.63372.724-.95661,1.31413c-.28565.52146.01285,1.19347,1.8146,3.13082.43647.46926.84041.87819,1.38023,1.38024,1.93735,1.80175,2.60935,2.10024,3.13082,1.81486.59018-.32316.72527-.73812,1.31413-.95687s3.90541,3.1101,3.6452,3.64205S27.32,25.08939,26.17162,24.996c-1.00775-.0821-4.1921-2.5076-6.28526-4.49663C19.35179,19.99131,18.94365,19.58,18.50063,19.11364Z"/></g><path class="cls-2" d="M10.5,17.7408A1.24218,1.24218,0,0,0,9.25,16.5H1.85A1.24218,1.24218,0,0,0,.6,17.7408V21.5h0v2h9.9Z"/><circle class="cls-2" cx="5.5" cy="12.5" r="2.25"/><path class="cls-2" d="M25.5,33.7408A1.24218,1.24218,0,0,0,24.25,32.5H16.8a1.28588,1.28588,0,0,0-1.3,1.2408V37.5h0v1.9h10Z"/><circle class="cls-2" cx="20.5" cy="28.5" r="2.25"/><path class="cls-2" d="M39.4,8.7908A1.28547,1.28547,0,0,0,38.15,7.5H30.8a1.32892,1.32892,0,0,0-1.3,1.2908V12.55h0V14.5h9.9Z"/><circle class="cls-2" cx="34.5" cy="3.5" r="2.25"/><path class="cls-1" d="M36.049,17.5H34.84973c.023.33179.05066.66248.05066,1a14.40453,14.40453,0,0,1-7.38245,12.56281,4.22263,4.22263,0,0,1,.63892,1.013A15.60175,15.60175,0,0,0,36.09961,18.5C36.09961,18.16248,36.07019,17.83228,36.049,17.5Z"/><path class="cls-1" d="M20.5,2.8999A15.55906,15.55906,0,0,0,8.67816,8.34985a5.26019,5.26019,0,0,1,.8595.83576,14.33634,14.33634,0,0,1,18.06085-3.199,4.41913,4.41913,0,0,1,.95776-.81988A15.481,15.481,0,0,0,20.5,2.8999Z"/><path class="cls-1" d="M8.54291,26.5H7.11853a15.741,15.741,0,0,0,5.7276,5.57782,4.21677,4.21677,0,0,1,.64362-1.01044A14.5244,14.5244,0,0,1,8.54291,26.5Z"/></svg>