<svg id="Icon" xmlns="http://www.w3.org/2000/svg" viewBox="0 0 40 40"><defs><style>.cls-1{fill:#fff;}.cls-2{fill:none;stroke:#fff;stroke-miterlimit:10;stroke-width:1.2px;}</style></defs><path class="cls-1" d="M37.18638,5.7H30.5V7.3h6.68638a.80012.80012,0,1,0-.00018-1.6Z"/><path class="cls-1" d="M37.18638,12.7H30.5v1.6h6.68638a.80012.80012,0,1,0-.00018-1.6Z"/><path class="cls-2" d="M1,22.5H8.5a3.48339,3.48339,0,0,0,3.58908-3.9533c-.31825-3.08837-3.58908-2.88-3.55345-5.70881C8.57006,10.1041,12.46533,10,16,10"/><path class="cls-2" d="M30.5,16.5h-8a6.29192,6.29192,0,0,1-6-6.49129V9.99129A6.29192,6.29192,0,0,1,22.5,3.5h8Z"/><path class="cls-2" d="M30.5,23v3.5h-11v6h11V36l6-6.5Z"/></svg>