<svg id="Bearbeitung" xmlns="http://www.w3.org/2000/svg" viewBox="0 0 40 40"><defs><style>.cls-1{fill:#fff;}.cls-2{fill:none;stroke:#fff;stroke-miterlimit:10;stroke-width:1.08921px;}</style></defs><path class="cls-1" d="M21.38738,19.24917a7.08055,7.08055,0,0,0-1.92217-.23671,6.849,6.849,0,0,0-1.88988.23671l-.21379.06314-.56182-2.97143.13987-.072a5.71316,5.71316,0,0,1,2.52562-.58615,5.88015,5.88015,0,0,1,2.55746.58615l.13987.072-.56131,2.97143Z"/><path class="cls-1" d="M17.80082,25.38709a12.06682,12.06682,0,0,0,3.32509,0l.19086-.02994.39013,2.88676-.14922.05333a6.376,6.376,0,0,1-2.09431.407,6.37608,6.37608,0,0,1-2.09432-.407l-.14969-.05333.3906-2.88676Z"/><path class="cls-1" d="M31.08984,6.01849a12.58712,12.58712,0,0,1,3.44239,7.17725l.07617.605v1.15045h1.19568l-.00037-1.22125-.08008-.67871A13.76518,13.76518,0,0,0,31.9707,5.20453c-.10565-.12024-.218-.22626-.32623-.34094l-.84235.85455C30.89752,5.8194,30.9967,5.9126,31.08984,6.01849Z"/><path class="cls-1" d="M19.46143,1.30219a17.727,17.727,0,0,1,7.881,1.82012l.67224-1.00372a19.22435,19.22435,0,0,0-17.11115-.01575L11.577,3.10828A17.74892,17.74892,0,0,1,19.46143,1.30219Z"/><path class="cls-1" d="M4.66357,30.08344c-.00494-.02875-.0064-.05463-.01129-.08344H3.44269c.0141.08765.01929.175.03436.26215A14.07765,14.07765,0,0,0,8.2724,39.09186l.85-.86225A12.896,12.896,0,0,1,4.66357,30.08344Z"/><path class="cls-1" d="M29.82336,38.23651l.84821.86047a14.12324,14.12324,0,0,0,4.844-8.96862c.0066-.04425.00818-.08411.01459-.12836H34.32043A12.921,12.921,0,0,1,29.82336,38.23651Z"/><path class="cls-1" d="M4.58838,12.00824l.30176-.87793A15.04554,15.04554,0,0,1,7.48877,6.46088c.20575-.26453.42108-.51172.64081-.75006l-.84546-.85773c-.252.27148-.49762.55627-.73334.85925a16.21585,16.21585,0,0,0-2.7959,5.02881l-.31933.9292-.1709,1.07275a13.15222,13.15222,0,0,0-.1341,2.20807h1.2002a12.27252,12.27252,0,0,1,.12042-2.03033Z"/><path class="cls-1" d="M8.01123,13.457l.08887-.59033.19482-.56738A11.46953,11.46953,0,0,1,10.27637,8.7392c.12475-.16034.25763-.30732.39019-.45465L9.82123,7.427c-.16486.181-.32819.36487-.48285.56366A12.64959,12.64959,0,0,0,7.15967,11.9101l-.2124.61865-.12256.75A10.23922,10.23922,0,0,0,6.73,14.95117h1.2A9.35,9.35,0,0,1,8.01123,13.457Z"/><path class="cls-1" d="M19.46143,4.90228a14.23846,14.23846,0,0,1,5.86193,1.23487L26.001,5.12524a15.71505,15.71505,0,0,0-13.07239.00122l.6745,1.00715A14.228,14.228,0,0,1,19.46143,4.90228Z"/><path class="cls-1" d="M8.30908,30H7.08929a10.43926,10.43926,0,0,0,3.71259,6.52576l.84912-.86145A9.259,9.259,0,0,1,8.30908,30Z"/><path class="cls-1" d="M27.29028,35.66675l.85132.86365A10.48664,10.48664,0,0,0,31.88239,30H30.66418A9.29869,9.29869,0,0,1,27.29028,35.66675Z"/><path class="cls-1" d="M28.449,8.46722a8.95176,8.95176,0,0,1,2.51172,5.17041l.00519,1.31354h1.23926l-.00031-1.00836-.05273-.44922a10.11889,10.11889,0,0,0-2.82227-5.84033c-.06848-.07947-.14221-.149-.2124-.22528l-.84265.8548C28.33219,8.34552,28.39292,8.40216,28.449,8.46722Z"/><path class="cls-1" d="M11.57129,13.99261l.04053-.26806.08838-.25781a7.91466,7.91466,0,0,1,1.39453-2.4878c.03369-.04394.07684-.07525.11175-.11767l-.84051-.85266c-.0672.07873-.1463.13989-.21021.22326a9.068,9.068,0,0,0-1.59082,2.84619l-.106.30909-.07421.42724a7.52973,7.52973,0,0,0-.05463,1.13678h1.20013A7.75982,7.75982,0,0,1,11.57129,13.99261Z"/><path class="cls-1" d="M11.99,30H10.74084A6.803,6.803,0,0,0,13.353,33.93774l.85144-.86377A5.60569,5.60569,0,0,1,11.99,30Z"/><path class="cls-1" d="M25.81055,10.92133A5.3171,5.3171,0,0,1,27.38672,14.08l.00165.87115h1.21637l-.00025-.794-.02637-.22217a6.44685,6.44685,0,0,0-1.88769-3.82617c-.03345-.04065-.07471-.0694-.109-.10889l-.84033.85254C25.76276,10.87769,25.78931,10.89557,25.81055,10.92133Z"/><path class="cls-1" d="M24.73773,33.07727l.851.86328A6.87117,6.87117,0,0,0,28.23248,30H26.9809A5.675,5.675,0,0,1,24.73773,33.07727Z"/><path class="cls-1" d="M19.46143,8.50238a10.94157,10.94157,0,0,1,3.82843.671l.68255-1.01917a12.39045,12.39045,0,0,0-9.0213-.00793l.68518,1.023A11.02277,11.02277,0,0,1,19.46143,8.50238Z"/><path class="cls-2" d="M23.5,12.8317c-.94046-1.30825-3.68764-1.3317-4-1.3317s-3.11713.02345-4.05763,1.3317A5.01068,5.01068,0,0,0,14.5,14.42126c-.04.26662,0,11.8436,0,11.8436a12.28981,12.28981,0,0,0,.1,2.348,3.06379,3.06379,0,0,0,1.67144,2.40187,10.70025,10.70025,0,0,0,3.17132.44038l.222.00045a9.82536,9.82536,0,0,0,3.10044-.44083A3.0673,3.0673,0,0,0,24.4,28.60509a15.25723,15.25723,0,0,0,.1-2.57649s.09081-11.40736,0-11.59537A5.443,5.443,0,0,0,23.5,12.8317Z"/></svg>