<svg id="Ebene_2" data-name="Ebene 2" xmlns="http://www.w3.org/2000/svg" viewBox="0 0 40 40"><defs><style>.cls-1{fill:#fff;}.cls-2,.cls-3{fill:none;stroke:#fff;stroke-miterlimit:10;}.cls-2{stroke-width:1.2px;}</style></defs><polygon class="cls-1" points="29.141 13.325 29.141 12.605 31.922 12.605 31.72 13.805 29.343 13.805 29.141 13.325"/><rect class="cls-1" x="26.04724" y="15.7896" width="4.5" height="1.2"/><line class="cls-2" x1="10.48298" y1="13.5" x2="29.01421" y2="13.5"/><polygon class="cls-1" points="9.681 13.805 7.304 13.805 7.102 12.605 9.883 12.605 9.883 13.325 9.681 13.805"/><rect class="cls-1" x="8.47724" y="15.7896" width="4.5" height="1.2"/><path class="cls-1" d="M2.03835,17.11624a12.119,12.119,0,0,1,3.62134-8.4248L5.00661,7.59867a16.71232,16.71232,0,0,0-3.00134,4.32165A12.48051,12.48051,0,0,0,3.323,25.46939l.01117-.00885.89239-1.62835A11.65358,11.65358,0,0,1,2.03835,17.11624Z"/><path class="cls-1" d="M19,3.06565a21.88332,21.88332,0,0,1,9.00457,1.8955l1.45081-.64038A23.31435,23.31435,0,0,0,19,1.899,23.17086,23.17086,0,0,0,8.579,4.32077l1.43262.63117A21.90487,21.90487,0,0,1,19,3.06565Z"/><path class="cls-1" d="M26.7998,22.32037V21H12.22412l.00293,1.63715a.13823.13823,0,0,1-.03076.10156c-.0166.01953-.04639.04492-.17822.04687L9.416,22.78851c-.168.00977-.2004-.10058-.216-.21v-7.373L10.60205,13.996V12.86908c.80713-1.30811,1.98193-2.71191,2.52246-2.80176A58.39622,58.39622,0,0,1,19.5127,9.874a58.37392,58.37392,0,0,1,6.38671.19336c.55762.09278,1.71875,1.499,2.52344,2.80176v1.124L29.8,15.20258v6.00195a4.15783,4.15783,0,0,1,.49449-.09168c.14405-.01678.289-.03057.43689-.04138.12287-.00891.14576-.015.26862-.01953V14.63422l-1.37793-1.20948v-.89013l-.085-.14258c-.32715-.54492-2.02832-3.27344-3.44043-3.5083a57.28239,57.28239,0,0,0-6.584-.21,57.29707,57.29707,0,0,0-6.58545.21c-1.41114.23486-3.1128,2.96338-3.44,3.5083l-.08544.14258v.8872L8,14.63129v8.01465a1.39626,1.39626,0,0,0,1.33691,1.34667,1.35326,1.35326,0,0,0,.14014-.00781l2.47949-.00293a1.30281,1.30281,0,0,0,.26172.001,1.32865,1.32865,0,0,0,.9043-.48145,1.28648,1.28648,0,0,0,.30176-.92285V22.2H25.60156l.001.32094a1.3248,1.3248,0,0,0,.01819.3515c.08752-.06018.17425-.12317.26251-.17987A2.74367,2.74367,0,0,1,26.7998,22.32037Z"/><path class="cls-1" d="M19.00684,31.16681A21.9088,21.9088,0,0,1,10.057,29.298l-2.16327.9925.42608.2185A23.4095,23.4095,0,0,0,19.02557,33h.00226a25.35515,25.35515,0,0,0,2.80811-.15588,2.712,2.712,0,0,1-.69879-1.78162C20.43811,31.12775,19.72876,31.16681,19.00684,31.16681Z"/><path class="cls-1" d="M37.35132,22.86536a12.43733,12.43733,0,0,0-.25867-10.945,16.71732,16.71732,0,0,0-3.00384-4.32166l-.66834,1.11823a12.111,12.111,0,0,1,3.59693,8.39935,11.36186,11.36186,0,0,1-1.28272,5.21021,2.74091,2.74091,0,0,1,1.51111.46325C37.2818,22.81378,37.31567,22.84082,37.35132,22.86536Z"/><path class="cls-3" d="M31.501,29.605a1.73354,1.73354,0,1,1-1.72424,1.7428l0-.00956A1.72829,1.72829,0,0,1,31.5,29.605Z"/><path class="cls-1" d="M39.3142,30.52834a.2473.2473,0,0,1-.01557-.11157q-.04019-.31541-.105-.62262a.25517.25517,0,0,0-.00964-.03132c-.03815-.17822-.08112-.35449-.13092-.52771a.25481.25481,0,0,0-.28058-.18231l-.741.10559a.25247.25247,0,0,1-.27154-.15765l-.01789-.04419c-.01532-.0387-.03076-.07727-.04675-.11554-.01209-.02893-.02454-.05768-.03693-.08636-.00866-.0199-.01678-.0401-.02563-.05988l-.00611-.012q-.09813-.21936-.21044-.43024l-.01453-.024-.04871-.07232-.03192-.07044-.01288-.02508q-.15582-.2688-.33575-.52186l-.00812-.01269q-.05868-.08221-.11981-.16254a.25226.25226,0,0,1,.01068-.30664l.48071-.58679a.25478.25478,0,0,0-.00885-.33258q-.20983-.2319-.43774-.447a.244.244,0,0,1-.0871-.08075q-.20919-.19145-.43243-.367l-.0069-.00653-.01733-.01312-.02124-.01727-.01-.00641c-.14862-.11548-.30078-.22644-.45746-.33112a.25488.25488,0,0,0-.33154.04108l-.503.56079a.2524.2524,0,0,1-.3092.05383l-.001-.00054q-.08945-.04926-.18066-.09589l-.00653-.0033c-.03839-.01959-.0766-.03943-.11542-.05829l-.02246-.00952c-.14032-.06756-.283-.131-.42828-.18878l-.0268-.00915-.077-.022L33.7824,25.102l-.02607-.01087q-.28848-.10373-.58966-.18158l-.01782-.00555q-.10272-.02637-.20666-.04944a.25222.25222,0,0,1-.187-.24115l-.00885-.75324a.24879.24879,0,0,0-.21612-.24346q-.14895-.02-.29987-.03443-.1647-.01555-.32843-.02392a.25839.25839,0,0,0-.05365.00335.24726.24726,0,0,0-.05883-.01025q-.15015-.006-.30176-.0061c-.08539,0-.17029.00189-.255.00469-.00647-.00024-.01275-.00128-.01928-.00109q-.15024.00512-.30146.016-.165.01209-.32782.03107a.25478.25478,0,0,0-.22607.24432l-.0246.74567a.25252.25252,0,0,1-.20062.23962q-.10428.02088-.20734.045l-.00055.00012c-.04388.01026-.08789.02027-.13147.03138l-.02368.00732q-.22751.05879-.44855.13214l-.0263.01032-.0733.033-.07685.02014-.027.00848q-.28911.10767-.56567.24109l-.01916.00806q-.0954.04623-.18909.09527a.25215.25215,0,0,1-.29828-.06439l-.47516-.553a.25492.25492,0,0,0-.33124-.04767q-.26532.17047-.51617.36145a.25131.25131,0,0,1-.09045.06592c-.13953.10944-.2743.22449-.406.3429a.25357.25357,0,0,0-.03467.02624q-.23337.21222-.44885.44226a.25491.25491,0,0,0-.01532.33173l.45087.57477a.25249.25249,0,0,1,.00042.3125l-.01153.01495q-.05622.07114-.11054.1438l-.01349.01831c-.02362.03186-.0476.06342-.07067.09576l-.01282.02c-.09033.12738-.17676.25757-.25812.39112l-.01343.02478-.03308.069-.04986.07068-.01508.02374q-.15463.27374-.284.56372l-.002.004q-.03927.08789-.07593.17724a.25247.25247,0,0,1-.27453.15137l-.69977-.115a.25478.25478,0,0,0-.28436.17651q-.09413.303-.16437.61676a.257.257,0,0,1-.02436.09912c-.03625.17267-.06542.34791-.09014.52454a.25261.25261,0,0,0-.00928.04035q-.0423.31438-.05939.63555a.255.255,0,0,0,.20148.26355l.69885.1471a.2527.2527,0,0,1,.20105.23907l.00147.02832c.002.0561.00531.11182.0086.16761.00177.02978.00244.05944.00464.08935l.002.02143.00135.02313.0028.02142c.01313.15753.03071.3136.05426.46759l.00544.02673.01892.07355.00775.092.00378.0282q.05823.31045.145.61121l.00171.00732c.016.05591.03314.11139.0506.16669l.00134.00439a.25258.25258,0,0,1-.11285.293l-.6.35584a.25493.25493,0,0,0-.10461.3175q.12432.29892.27222.58557a.2627.2627,0,0,1,.04242.08344c.08569.16131.178.31848.27429.4729l.01184.02319c.01147.01819.0238.03577.0354.05383l.00458.00745.00219.00281c.10273.15991.21009.31647.32373.468a.25489.25489,0,0,0,.324.07269l.62079-.3316a.25255.25255,0,0,1,.30725.05322c.01636.01831.03332.036.0498.05414l.05085.05511q.04156.04449.084.0882l.03259.03424.00885.00818c.11243.11407.22833.22461.34851.33038l.02191.01746.06672.04779.06414.06463.02076.01892a6.73232,6.73232,0,0,0,.64978.47309.25268.25268,0,0,1,.101.29644l-.23206.6615a.25494.25494,0,0,0,.12256.30976q.28611.15069.58631.27832a.251.251,0,0,1,.0841.03369c.17554.0722.35474.13721.53638.1969l.00134.00055.00342.001c.023.00757.04565.01612.06873.02344l.02807.00617c.17261.05419.347.10394.52417.14624a.255.255,0,0,0,.29639-.15223l.26288-.65429a.25244.25244,0,0,1,.27014-.15656c.032.00464.06421.00836.09637.01258l.01886.0025q.09109.01172.183.02087l.00921.0011.00238.00012c.16162.016.32453.02692.489.03119.00927.00025.01867,0,.028-.00067l.087-.00647.08777.0083c.00927.00086.01861.00128.028.00122a6.72486,6.72486,0,0,0,.799-.05224.25257.25257,0,0,1,.26709.16223l.25293.67047a.255.255,0,0,0,.29218.15869q.31768-.06756.6264-.16064a.257.257,0,0,0,.04846-.02063.26144.26144,0,0,0,.041-.00892q.31-.09712.60852-.21881a.25815.25815,0,0,0,.03033-.01568c.167-.06873.33161-.14173.49237-.22126a.25481.25481,0,0,0,.13-.30749l-.22284-.68127a.25259.25259,0,0,1,.107-.29407c.02655-.0163.05249-.03333.0788-.04993l.02527-.016q.07169-.04569.142-.09314l.014-.00922.00354-.00268q.20224-.13724.394-.28784l.02112-.0185.06568-.0636.06823-.04687.02228-.017q.24161-.20416.46338-.4306l.00214-.002.02411-.02533c.03149-.03247.06317-.06481.094-.0979a.2525.2525,0,0,1,.30835-.04687l.64294.36127a.25492.25492,0,0,0,.3252-.06543q.19748-.251.37482-.51856a.25456.25456,0,0,1,.05358-.08777q.173-.26843.32435-.55145a.25285.25285,0,0,0,.01715-.04059c.08258-.15643.16119-.31512.23321-.47729a.25484.25484,0,0,0-.09759-.32025l-.62287-.38752a.25267.25267,0,0,1-.10669-.29522l.01142-.03528q.02078-.06227.0404-.12494l.02417-.07953c.00629-.0213.01319-.0423.01929-.06372l.00336-.0144c.04358-.15253.08258-.307.11529-.46351l.0044-.02807.00982-.09259.02069-.074.006-.02667q.04549-.26129.07135-.52991c.00231-.025.00335-.04986.00543-.07482l.00335-.0257c.00275-.03546.00409-.07129.00629-.10687.00159-.025.00421-.05024.00549-.0752a.25271.25271,0,0,1,.20612-.23474l.74152-.13971a.255.255,0,0,0,.207-.25952Q39.34987,30.84039,39.3142,30.52834Zm-7.78179,6.85194a5.92274,5.92274,0,0,1-5.95432-5.89087l-.00006-.03264a5.90471,5.90471,0,0,1,5.88769-5.92168H31.469a5.92268,5.92268,0,0,1,.06345,11.84519Z"/></svg>