<svg id="Icon" xmlns="http://www.w3.org/2000/svg" viewBox="0 0 40 40"><defs><style>.cls-1{fill:#fff;}</style></defs><path class="cls-1" d="M20,12a5.95794,5.95794,0,0,0-6,6v.00079c0,3.347,6,12.3611,6,12.3611S26,21.347,26,18A5.95793,5.95793,0,0,0,20,12Zm0,9.30977a3.66475,3.66475,0,1,1,.0001,0Z"/><path class="cls-1" d="M8.50008,3.13h0a2.87017,2.87017,0,1,1-2.9,2.8702A2.8735,2.8735,0,0,1,8.5,3.13m-.00035-1.2A4.07,4.07,0,1,0,12.57,6.00026V5.99974A4.07,4.07,0,0,0,8.49973,1.93Z"/><path class="cls-1" d="M2.19989,22.74913V14.203a1.022,1.022,0,0,1,1.01849-1.01941H13.54779a8.14158,8.14158,0,0,1,.75281-.8822c.06579-.06586.13769-.123.20538-.18628a2.20015,2.20015,0,0,0-.72394-.13153H3.21838a2.22065,2.22065,0,0,0-2.2185,2.218v9.74762H13.90674q-.29947-.60279-.57111-1.2Z"/><path class="cls-1" d="M26.99207,21.99425q-.24867.593-.53345,1.2H37.79169v9.57685H28.25427l-.31506.22827L24.2,35.70836V32.77111h-3v-.82587a1.98832,1.98832,0,0,1-1.2.41663v1.60925h3v4.0885l5.64325-4.0885H38.9917V21.99425Z"/></svg>