<svg xmlns="http://www.w3.org/2000/svg" viewBox="0 0 40 40"><defs><style>.cls-1{fill:#fff;}.cls-2{fill:none;}</style></defs><g id="Ebene_1" data-name="Ebene 1"><path class="cls-1" d="M15.98828,29.08105H14.01172a3.1033,3.1033,0,0,1-3.09961-3.0996V13.08154a3.1034,3.1034,0,0,1,3.09961-3.10009h1.97656a3.1034,3.1034,0,0,1,3.09961,3.10009V25.98145A3.1033,3.1033,0,0,1,15.98828,29.08105ZM14.01172,11.18164a1.90216,1.90216,0,0,0-1.90039,1.8999V25.98145a1.90258,1.90258,0,0,0,1.90039,1.90039h1.97656a1.90258,1.90258,0,0,0,1.90039-1.90039V13.08154a1.90216,1.90216,0,0,0-1.90039-1.8999Z"/><path class="cls-1" d="M5.9873,25.083H4.01074A3.10331,3.10331,0,0,1,.91113,21.9834V17.0791A3.10342,3.10342,0,0,1,4.01074,13.979H5.9873a3.10341,3.10341,0,0,1,3.09961,3.1001v4.9043A3.10331,3.10331,0,0,1,5.9873,25.083ZM4.01074,15.1792a1.90216,1.90216,0,0,0-1.90039,1.8999v4.9043a1.90258,1.90258,0,0,0,1.90039,1.90039H5.9873A1.90258,1.90258,0,0,0,7.8877,21.9834V17.0791a1.90216,1.90216,0,0,0-1.9004-1.8999Z"/></g><g id="Icon"><path class="cls-1" d="M31.21429,22.11267c.12665-.00915.25293-.01587.38135-.0202l.03412-.001H31.662l.02032.00012c.0838-.00232.16779-.00372.25214-.00372H31.936c.127.00012.25341.00269.40423.00879q.03489.00183.06976.00476l.04065.00207c.02082.001.04218.00336.063.00458a1.88144,1.88144,0,0,1-.40918-1.16369V18.11816a1.90216,1.90216,0,0,1,1.90039-1.8999h1.97559a1.90216,1.90216,0,0,1,1.90039,1.8999v2.82618a1.90258,1.90258,0,0,1-1.90039,1.90039H34.62909c.29974.22375.60626.47351.95691.73651a2.72437,2.72437,0,0,0,.564.44555,3.09544,3.09544,0,0,0,2.93012-3.08245V18.11816a3.10341,3.10341,0,0,0-3.09961-3.10009H34.00488a3.10341,3.10341,0,0,0-3.09961,3.10009v2.82618A3.07749,3.07749,0,0,0,31.14,22.11969C31.165,22.11768,31.18921,22.1145,31.21429,22.11267Z"/><path class="cls-1" d="M24.13965,26.98242a2.21953,2.21953,0,0,1,.20416-1.19922h-.30572a1.90257,1.90257,0,0,1-1.90039-1.90039v-7.793a1.90215,1.90215,0,0,1,1.90039-1.8999H25.9834a1.90216,1.90216,0,0,1,1.90039,1.8999v7.21149A5.34061,5.34061,0,0,1,29.083,23.66V16.08984a3.10341,3.10341,0,0,0-3.09961-3.10009H24.03809a3.1034,3.1034,0,0,0-3.09961,3.10009v7.793a3.1033,3.1033,0,0,0,3.09961,3.09961Z"/><g id="Hilfe"><rect id="Hintergrund" class="cls-2" width="40" height="40"/></g><path class="cls-1" d="M39.76106,31.0709a.24707.24707,0,0,1-.01559-.11159q-.04018-.31539-.105-.62264a.25512.25512,0,0,0-.00961-.03129c-.03817-.1782-.08112-.35448-.131-.5277a.25479.25479,0,0,0-.28056-.18234l-.741.10564a.25253.25253,0,0,1-.27152-.15769l-.01789-.0442c-.0153-.03866-.03077-.07723-.04676-.11554-.01205-.02893-.02449-.05765-.03693-.08637-.00864-.0199-.01677-.04008-.0256-.05988l-.00612-.012q-.0981-.21936-.21046-.43022l-.01455-.02409-.04869-.07231-.03189-.07042-.01289-.02507q-.15585-.26885-.33575-.52187l-.00811-.01267q-.05868-.08223-.11984-.16258a.25225.25225,0,0,1,.01072-.30661l.48072-.58673a.25485.25485,0,0,0-.00884-.33259q-.20985-.23193-.43779-.447a.24426.24426,0,0,1-.08708-.08077c-.13942-.12759-.28405-.2495-.4324-.36691l-.00694-.00656-.01734-.01314-.02124-.01724-.01-.00643c-.14862-.11546-.30082-.22641-.45748-.33111a.25486.25486,0,0,0-.3315.04108l-.503.5608a.25246.25246,0,0,1-.30924.0538l-.001-.00055q-.08952-.04926-.18066-.09585l-.00655-.00336c-.0384-.01957-.07662-.03945-.11544-.05828l-.02244-.00952c-.1403-.0676-.28295-.131-.42829-.18882l-.02679-.00913-.077-.022-.07251-.03464-.026-.01089q-.28848-.10377-.58968-.18163l-.01782-.00555Q33.493,25.4201,33.389,25.397a.25219.25219,0,0,1-.187-.24115l-.00882-.75324a.24883.24883,0,0,0-.21614-.24343q-.149-.02-.29986-.03443-.16475-.01555-.32844-.02392a.256.256,0,0,0-.05368.00336.24787.24787,0,0,0-.05882-.01027q-.15015-.00594-.30177-.00606c-.08538,0-.1703.00188-.255.00469-.00646-.00028-.01275-.00132-.01931-.0011q-.1502.005-.30141.016-.165.01208-.32784.03108a.25485.25485,0,0,0-.22608.24437l-.02457.74563a.25246.25246,0,0,1-.20066.23961q-.10425.02085-.20729.045l-.00057.00014c-.04389.01025-.08789.02024-.13145.03136l-.02367.00734c-.15173.03919-.30149.08291-.4486.13214l-.02631.01019-.07331.033-.0768.02012-.027.00851q-.2891.10764-.56568.24107l-.01915.00809q-.09543.04617-.18911.09528a.25217.25217,0,0,1-.29829-.06443l-.47512-.553a.25487.25487,0,0,0-.33123-.04767q-.26539.17046-.51623.36145a.25056.25056,0,0,1-.09043.06588c-.13949.10943-.27428.22448-.406.3429a.25582.25582,0,0,0-.03468.02623q-.23331.21223-.44887.44232a.25487.25487,0,0,0-.01531.33169l.4509.57478a.25249.25249,0,0,1,.00041.31247l-.01154.015q-.05617.07116-.11052.14378l-.0135.01829c-.02362.03187-.0476.06346-.07067.09576l-.0128.02c-.09033.12735-.17678.25754-.25815.39111l-.01342.02476-.0331.069-.04983.07064-.01506.02376q-.15471.27375-.284.56373l-.002.004q-.03927.08792-.07591.17724a.25251.25251,0,0,1-.27457.1514l-.69971-.115a.2548.2548,0,0,0-.2844.17649q-.094.30294-.16435.61678a.25736.25736,0,0,0-.00592.04525.25453.25453,0,0,0-.01846.05389c-.03624.17268-.06543.34788-.09015.52452a.25576.25576,0,0,0-.00923.04035q-.0423.31437-.05939.63553a.255.255,0,0,0,.20149.26356l.6988.1471a.25269.25269,0,0,1,.20109.23909l.00145.02833c.002.0561.0053.11182.00862.16757.00177.02983.00242.05947.0046.08937l.002.02145.00137.02308.00279.02147c.0131.1575.03072.31357.05424.46754l.00548.02674.0189.07357.00776.092.00381.02816q.05817.31048.14495.61122l.0017.00733c.016.05592.03317.11137.05063.16667l.00133.00443a.25256.25256,0,0,1-.11285.293l-.6.35583a.255.255,0,0,0-.10461.31755q.12434.29887.27225.58557a.26126.26126,0,0,1,.04238.08342c.08571.16131.178.31847.27433.47286l.01182.02321c.01146.01822.02383.03575.03543.05386l.00456.00743.00217.00281c.10276.15991.21011.31648.32375.468a.25492.25492,0,0,0,.324.07272l.62077-.33164a.25256.25256,0,0,1,.30724.05328c.01635.01829.0333.036.04984.0541l.05078.05512q.04159.04452.084.08821l.03261.03424.00885.00815c.11244.11409.22836.22464.34853.33043l.02191.01741.0667.04782.06412.06462.02076.01894a6.738,6.738,0,0,0,.64979.4731.2526.2526,0,0,1,.101.29644l-.232.66149a.25489.25489,0,0,0,.12254.30975q.28609.15066.5863.27833a.25137.25137,0,0,1,.08411.03365c.17552.07225.35474.13725.53637.1969l.00131.00056.00345.00107c.023.00754.04562.01607.06875.02341l.02806.00619c.17258.05417.347.10391.52419.1462a.255.255,0,0,0,.29636-.15223l.26285-.65428a.25256.25256,0,0,1,.27018-.15657c.032.00467.06422.00839.09633.01261l.01887.00247q.09115.01171.183.02092l.00921.00106.00239.00011c.1616.016.32453.02692.489.03118.00931.00026.01866,0,.02794-.00067l.08707-.00642.08773.00825c.00928.00087.01863.0013.028.00124a6.72889,6.72889,0,0,0,.799-.05222.25255.25255,0,0,1,.26707.16224l.25295.67044a.255.255,0,0,0,.29216.15869q.31771-.06755.6264-.16061a.25008.25008,0,0,1,.08945-.02957q.31-.09714.60851-.21883a.25172.25172,0,0,0,.03031-.01566c.167-.06873.33165-.1417.49241-.22124a.25485.25485,0,0,0,.13-.30751l-.22285-.6813a.25259.25259,0,0,1,.107-.29406c.02653-.01626.0525-.0333.07878-.0499l.02531-.016q.07163-.04569.14193-.09316l.014-.0092.00354-.00267q.20223-.13728.394-.28785l.02113-.01851.06571-.06358.06824-.04684.02229-.017q.24159-.20415.46336-.43063l.00215-.002.024-.0253c.03152-.03248.06318-.06481.094-.09793a.25258.25258,0,0,1,.3084-.04686l.64293.36124a.25492.25492,0,0,0,.32519-.06542q.19747-.251.37479-.51852a.2556.2556,0,0,1,.0536-.08776q.173-.26845.32435-.55148a.25609.25609,0,0,0,.01718-.04061c.08254-.1564.16116-.31509.23322-.47729a.25492.25492,0,0,0-.0976-.32024l-.62291-.38753a.25254.25254,0,0,1-.10665-.29518l.01141-.03532q.02073-.06221.04039-.12489l.02415-.07956c.00634-.02127.01321-.04232.01933-.06369l.00335-.01441c.04358-.15257.08253-.307.11531-.46353l.00439-.02808.00978-.09256.0207-.074.00605-.02665q.04551-.26132.07132-.5299c.00236-.025.00339-.04987.00545-.07486l.00332-.02572c.00278-.03543.00409-.07126.00634-.10684.00157-.025.00419-.05024.00548-.07523a.25275.25275,0,0,1,.20612-.23474l.74149-.13971a.255.255,0,0,0,.207-.25949Q39.79669,31.3829,39.76106,31.0709Zm-3.25637,5.0749c-.017.01876-.03446.03713-.0517.05568s-.03413.03711-.05153.05536l-.01911.01962q-.09356.09732-.19109.19069l-.02485.02317c-.0269.0254-.05387.05071-.08121.07562s-.05507.04932-.08286.0737l-.02546.02259a6.21546,6.21546,0,0,1-1.89892,1.1287l-.01791.00679c-.02933.01084-.05891.02112-.08843.03153l-.06374.02235-.048.0158c-.03549.0117-.071.0234-.10678.03448l-.01019.00308a6.21667,6.21667,0,0,1-1.37661.25806q-.07566.00555-.151.00912l-.07371.0028-.07624.00268q-.07479.00179-.15.00189H31.912c-.04815,0-.09614-.0007-.144-.00181l-.04831-.0015q-.0486-.0015-.097-.00369-.04854-.00234-.09721-.00548l-.04793-.003q-.0719-.00508-.144-.01176l-.00291-.00026a6.216,6.216,0,0,1-1.36964-.287l-.01062-.00346c-.03545-.01181-.07059-.02422-.10573-.03664l-.04783-.01689-.063-.0236c-.02941-.01109-.05888-.022-.08809-.03354l-.01722-.007a6.21479,6.21479,0,0,1-1.85739-1.15343l-.02-.01774c-.0188-.017-.03721-.03451-.05579-.05179-.01843-.01713-.037-.03407-.05525-.05142l-.01966-.01914q-.09729-.09356-.19066-.19108l-.0231-.02475c-.02541-.02693-.05076-.05392-.07569-.08131s-.04932-.05507-.0737-.08286l-.02259-.02545a6.21512,6.21512,0,0,1-1.12856-1.89865l-.00695-.01835c-.01082-.02927-.02108-.05879-.03147-.08826l-.02238-.0638-.01586-.04818c-.01167-.03539-.02333-.07078-.03439-.10647l-.00324-.01071a6.2156,6.2156,0,0,1-.25794-1.37622q-.00554-.07557-.00911-.15083l-.00286-.07511-.00262-.07483q-.00178-.07488-.0019-.15017V31.98q0-.07224.00183-.144l.00149-.04829q.0015-.04862.00369-.097t.00547-.09718l.003-.048c.00341-.04791.00724-.09587.01177-.14394l.00026-.003a6.21623,6.21623,0,0,1,.28722-1.37018l.00322-.00989c.01188-.03566.02437-.071.03686-.10638l.01668-.04723.02385-.06364c.011-.02918.02186-.05842.03328-.0874l.00727-.018a6.21457,6.21457,0,0,1,1.15163-1.855l.01936-.02182c.01658-.01828.03357-.03618.05036-.05426.01761-.01894.035-.03806.05286-.05678l.01794-.01842q.09411-.098.19227-.19189l.023-.02145c.02751-.026.05511-.05186.08309-.07734.02671-.02429.05379-.04814.08092-.072l.02741-.02432A6.21547,6.21547,0,0,1,29.7509,26.174l.01791-.00678c.02933-.01084.05891-.02113.08843-.03154l.06372-.02234.04826-.0159c.03535-.01165.07069-.0233.10633-.03433l.01094-.00331a6.217,6.217,0,0,1,1.376-.2579q.07557-.00552.15082-.00911l.07517-.00285.07477-.00262q.075-.0018.1504-.00191h.00263q.07263,0,.1448.00183l.04755.00148q.049.0015.09778.00371.04815.00231.09645.00543l.04869.00308c.04768.0034.09542.00722.14325.01172l.00367.00032a6.21691,6.21691,0,0,1,1.36943.287l.01062.00346c.03545.01181.07059.02422.10572.03664l.04782.01688.06334.02373c.02924.011.05854.0219.08758.03335l.01809.00729a6.21492,6.21492,0,0,1,1.85522,1.15183l.02157.01915c.01828.01657.03617.03356.05426.05036.01894.0176.03806.035.05678.05286l.01842.01794q.098.09413.19189.19227l.02191.02347c.02579.02733.0515.05472.0768.08251.02487.02736.04932.05508.0737.08287l.02259.02546a6.215,6.215,0,0,1,1.12866,1.8988l.00683.018c.01084.02932.02112.05889.03153.0884l.02235.06372.01589.04827c.01165.03534.0233.07069.03433.10632l.00331.011a6.21671,6.21671,0,0,1,.2579,1.376q.00552.07557.00911.15081l.00286.07517.00266.07482q.00178.07488.0019.15018v.0034c0,.04815-.00073.09614-.00184.144l-.00149.04831q-.0015.0486-.00369.097t-.00547.09721l-.003.04794c-.00341.04792-.00724.09591-.01177.144l-.00026.00291a6.21639,6.21639,0,0,1-.28723,1.37021l-.00321.00988c-.01188.03566-.02437.071-.03687.10638L37.7401,34.1l-.0238.06351c-.011.02924-.02191.05854-.03335.08758l-.00716.01777a6.21486,6.21486,0,0,1-1.15291,1.85655Z"/><path class="cls-1" d="M31.93824,30.14767A1.73354,1.73354,0,1,1,30.214,31.89048l0-.00957a1.72828,1.72828,0,0,1,1.72331-1.73324Z"/></g></svg>