<svg xmlns="http://www.w3.org/2000/svg" viewBox="0 0 40 40"><defs><style>.cls-1,.cls-3{fill:#fff;}.cls-1,.cls-2{fill-rule:evenodd;}.cls-2,.cls-4{fill:none;}.cls-2,.cls-3{stroke:#fff;stroke-miterlimit:10;}.cls-2{stroke-width:1.2px;}.cls-3{stroke-width:1.5px;}</style></defs><g id="Icon"><path class="cls-1" d="M20.9623,9.03088c-1.74663-1.83718-3.87923-4.63011-3.9548-5.51155A5.65844,5.65844,0,0,1,18.75074.19314c.464-.22545,3.38678,2.68651,3.19779,3.20044-.189.514-.55112.63045-.83133,1.145-.24759.45481.01594,1.04334,1.59838,2.74386.38323.41186.7379.77081,1.2119,1.21182,1.70044,1.58244,2.289,1.846,2.74378,1.59838.51459-.28014.63112-.64233,1.145-.83133s3.42589,2.73375,3.20052,3.19779a5.65868,5.65868,0,0,1-3.32627,1.74324c-.88144-.07557-3.67429-2.20817-5.51155-3.95473C21.70957,9.8014,21.35136,9.44016,20.9623,9.03088Z"/><path class="cls-2" d="M12.19387,30.8849a1.11474,1.11474,0,0,1-1.0012-.64059,27.73141,27.73141,0,0,1-2.406-7.04789,31.24648,31.24648,0,0,1-.78587-6.423A1.34416,1.34416,0,0,1,9.3112,15.43462l1.00769.05383a2.5399,2.5399,0,0,1,2.45146,2.32622,34.86661,34.86661,0,0,0,.86026,4.18766,32.27372,32.27372,0,0,0,2.29862,6.1779v1.59445a1.10212,1.10212,0,0,1-1.091,1.11022Z"/><path class="cls-3" d="M11.95311,13.03024a.97784.97784,0,0,1-.16015-.01352c-.15014-.02679-1.52574-.26809-2.66788-.396a.70409.70409,0,0,1-.62085-.65493c.08359-2.33135,1.21437-4.76385,3.27034-4.76385L11.87276,7.2a.69563.69563,0,0,1,.78425.69335c.007.524.00405.99389.00108,1.49-.00325.51967-.00676,2.26829.00081,2.9381a.66769.66769,0,0,1-.18233.49586.69832.69832,0,0,1-.52319.2129Z"/><rect id="Hintergrund" class="cls-4" width="40" height="40"/><path class="cls-2" d="M15.86142,38.46208a1.88589,1.88589,0,0,1-1.6637-1.11849l-1.30229-3.201-.02462-.02868a.70128.70128,0,0,1-.15311-.31488.27727.27727,0,0,1,.2367-.10605c.13148.00217.26565.00325.39794.00325a22.52526,22.52526,0,0,0,7.25673-1.233,17.44613,17.44613,0,0,1,5.41881-.9993l1.23142.00216,3.071-.00216c1.0031,0,2.07436.67468,2.07436,1.6426l-.6011,3.82851a1.871,1.871,0,0,1-1.77462,1.52712Z"/></g></svg>