<?xml version="1.0" encoding="UTF-8"?>
<svg id="Ebene_1" data-name="Ebene 1" xmlns="http://www.w3.org/2000/svg" viewBox="0 0 50 50">
  <defs>
    <style>
      .cls-1 {
        fill: #fff;
      }

      .cls-2 {
        fill: #969696;
      }

      .cls-3 {
        fill: none;
        stroke: #fff;
        stroke-width: 1.5px;
      }
    </style>
  </defs>
  <rect class="cls-1" x="28.97394" y="18.09262" width="5.08761" height="5.08761"/>
  <polygon class="cls-1" points="23.978 7.056 28.642 14.846 19.314 14.846 23.978 7.056"/>
  <path class="cls-3" d="M23.97841,30.34256c1.89079-.59368,3.74366-1.30195,5.54835-2.12087,2.20671-.99039,2.08307-4.10959,2.08307-4.10959v-3.28279"/>
  <path class="cls-3" d="M23.97841,14.0993v27.79794"/>
  <circle class="cls-1" cx="16.5348" cy="23.16872" r="2.5438"/>
  <circle class="cls-1" cx="23.97841" cy="40.34" r="2.5438"/>
  <path class="cls-3" d="M23.97968,33.7343c-1.89078-.59369-3.74367-1.30196-5.54836-2.12087-2.20671-.99039-2.08306-4.10959-2.08306-4.10959v-3.28279"/>
  <path class="cls-2" d="M38.22,42.999v-10.60016l-3.20206,.554v-1.29132l3.805-.74553h.96551v12.08301h-1.56845Z"/>
</svg>