<?xml version="1.0" encoding="UTF-8"?>
<svg id="Ebene_1" data-name="Ebene 1" xmlns="http://www.w3.org/2000/svg" viewBox="0 0 50 50">
  <defs>
    <style>
      .cls-1 {
        fill: #fff;
      }

      .cls-2 {
        fill: #969696;
      }

      .cls-3 {
        fill: none;
        stroke: #fff;
        stroke-width: 1.5px;
      }
    </style>
  </defs>
  <g id="Ebene_1-2" data-name="Ebene 1-2">
    <g id="Icons_in_schwarz" data-name="Icons in schwarz">
      <rect class="cls-1" x="29.03063" y="18.09262" width="5.08761" height="5.08761"/>
      <polygon class="cls-1" points="24.035 7.056 28.699 14.846 19.371 14.846 24.035 7.056"/>
      <path class="cls-3" d="M24.0351,30.34256c1.89079-.59368,3.74367-1.30195,5.54836-2.12087,2.20671-.99039,2.08306-4.10959,2.08306-4.10959v-3.28279"/>
      <path class="cls-3" d="M24.0351,14.0993v27.79794"/>
      <circle class="cls-1" cx="16.59149" cy="23.16872" r="2.5438"/>
      <circle class="cls-1" cx="24.0351" cy="40.34" r="2.5438"/>
      <path class="cls-3" d="M24.03637,33.7343c-1.89079-.59369-3.74367-1.30196-5.54837-2.12087-2.20672-.99039-2.08307-4.10959-2.08307-4.10959v-3.28279"/>
    </g>
  </g>
  <g id="Icons_in_schwarz-2" data-name="Icons in schwarz-2">
    <g id="E72E_000_garage" data-name="E72E 000 garage">
      <g id="mit-Zahlen">
        <path id="_2" data-name=" 2" class="cls-2" d="M35.01308,42.66022v-1.1975l3.10781-2.98972c.33704-.3228,.64728-.62693,.93071-.91239,.2841-.28512,.54207-.55734,.7739-.81666,.23218-.25967,.43651-.50881,.613-.74743,.16552-.22236,.31458-.45651,.446-.70058,.11586-.21523,.20739-.44269,.2729-.67818,.06089-.2223,.09171-.45176,.09164-.68225,.0042-.30684-.04756-.61188-.15273-.90016-.09733-.26221-.25664-.49699-.46434-.6843-.2293-.19905-.49883-.34632-.7902-.43176-.36694-.10733-.74807-.15814-1.13031-.1507-.34215,0-.66597,.01357-.97145,.04072-.29262,.02534-.58361,.06682-.87165,.12425-.26535,.05327-.52721,.12264-.78413,.20772-.24318,.08088-.48007,.17959-.70873,.29532v-1.3767c.20873-.11564,.42672-.21373,.6517-.29326,.25209-.08887,.50998-.16031,.77186-.21383,.29525-.06071,.59377-.10424,.89406-.13035,.31768-.0285,.65982-.04275,1.02642-.04275,.44445-.00367,.88828,.03383,1.32582,.112,.36319,.06491,.71735,.17294,1.05494,.32179,.29068,.12803,.55887,.302,.79427,.51525,.21837,.20011,.40332,.43388,.54782,.69243,.14711,.26736,.25415,.55487,.31772,.85333,.0699,.32869,.10404,.66397,.10184,1,.00113,.33764-.0427,.67393-.13034,1-.08846,.32344-.21207,.63622-.36863,.93275-.16539,.31241-.35611,.61074-.57023,.892-.22098,.29226-.46605,.58417-.73521,.87572-.26884,.29225-.55872,.58688-.86963,.88388-.31057,.29733-.63167,.60077-.96329,.9103l-2.09762,1.99992h5.85118v1.29114h-7.9651Z"/>
      </g>
    </g>
  </g>
</svg>