<?xml version="1.0" encoding="UTF-8"?>
<svg id="Ebene_1" data-name="Ebene 1" xmlns="http://www.w3.org/2000/svg" viewBox="0 0 50 50">
  <defs>
    <style>
      .cls-1 {
        fill: #fff;
      }
    </style>
  </defs>
  <g id="Logo">
    <path class="cls-1" d="M40.43768,34.81324c.48964,.40804,.57125,1.1425,.16321,1.63214-.73446,.89768-1.55053,1.71375-2.44821,2.44821s-1.87696,1.38732-2.85625,1.95857-2.12178,.97928-3.18268,1.38732c-1.1425,.32643-2.285,.57125-3.4275,.73446-.57125,.08161-1.22411,.08161-1.87696,.08161-.57125,0-1.22411,0-1.79536-.08161-1.22411-.08161-2.44821-.32643-3.59071-.73446-1.1425-.32643-2.20339-.81607-3.26428-1.38732-.97928-.57125-1.95857-1.22411-2.85625-1.95857s-1.71375-1.55053-2.44821-2.44821-1.38732-1.87696-1.95857-2.85625c-.57125-1.06089-.97928-2.12178-1.38732-3.18268-.32643-1.1425-.57125-2.285-.73446-3.4275-.16321-1.22411-.16321-2.44821,0-3.67232,.08161-1.22411,.32643-2.44821,.73446-3.59071,.32643-1.1425,.81607-2.20339,1.38732-3.26428,.57125-.97928,1.22411-1.95857,1.95857-2.85625s1.55053-1.71375,2.44821-2.44821,1.87696-1.38732,2.85625-1.95857c.97928-.57125,2.12178-.97928,3.18267-1.38732,1.1425-.32643,2.285-.57125,3.4275-.73446,1.22411-.16321,2.44821-.16321,3.59071,0,1.22411,.08161,2.44821,.32643,3.59071,.73446,1.1425,.32643,2.20339,.81607,3.26428,1.38732,.97928,.57125,1.95857,1.22411,2.85625,1.95857s1.71375,1.55053,2.44821,2.44821c.40804,.48964,.32643,1.22411-.16321,1.63214-.08161,.16321-.32643,.24482-.57125,.24482-.32643,0-.65286-.16321-.89768-.40804-.65286-.81607-1.38732-1.46893-2.12178-2.12178-.73446-.65286-1.63214-1.22411-2.52982-1.71375s-1.87696-.89768-2.85625-1.22411-2.04018-.48964-3.10107-.65286c-1.06089-.08161-2.12178-.08161-3.18268,0-1.06089,.08161-2.04018,.32643-3.01946,.65286s-1.87696,.73446-2.77464,1.1425c-.89768,.48964-1.71375,1.06089-2.52982,1.71375s-1.46893,1.38732-2.12178,2.12178c-.65286,.81607-1.22411,1.63214-1.71375,2.52982s-.89768,1.87696-1.22411,2.85625-.48964,2.04018-.65286,3.10107c-.08161,1.06089-.08161,2.12178,0,3.18268,.08161,1.06089,.32643,2.04018,.65286,3.01946s.73446,1.87696,1.1425,2.77464c.48964,.89768,1.06089,1.71375,1.71375,2.52982,.65286,.73446,1.38732,1.46893,2.12178,2.12178,.81607,.65286,1.63214,1.22411,2.52982,1.71375s1.87696,.89768,2.85625,1.22411,2.04018,.48964,3.10107,.65286c1.06089,.08161,2.12178,.08161,3.18268,0,1.06089-.08161,2.04018-.32643,3.01946-.65286,.97928-.32643,1.87696-.73446,2.77464-1.1425,.89768-.48964,1.71375-1.06089,2.52982-1.71375s1.46893-1.38732,2.12178-2.12178c.24482-.24482,.57125-.40804,.89768-.40804,.24482-.08161,.57125,0,.73446,.16321ZM23.38181,17.26773c-.24482-.16321-.48964-.16321-.73446,0s-.40804,.40804-.40804,.65286v13.9548c0,.24482,.16321,.48964,.40804,.65286,.08161,.08161,.24482,.08161,.40803,.08161s.24482,0,.40804-.08161l12.07784-6.9366c.24482-.16321,.40804-.40804,.40804-.65286s-.16321-.48964-.40804-.65286l-12.15944-7.0182Z"/>
  </g>
</svg>