<svg id="Ebene_1" data-name="Ebene 1" xmlns="http://www.w3.org/2000/svg" viewBox="0 0 40 40"><defs><style>.cls-1{fill:#fff;}.cls-2{fill:none;stroke:#fff;stroke-linejoin:round;stroke-width:1.2px;}</style></defs><path class="cls-1" d="M1.00767,6.917A1.70286,1.70286,0,0,1,.98445,4.5158l.95146-.9707a1.70465,1.70465,0,0,1,2.40253-.02322L6.52135,5.663,3.19059,9.05878Z"/><polygon class="cls-1" points="10.639 20.494 5.127 9.941 4.618 10.459 4.244 10.841 9.668 21.226 10.639 20.494"/><polygon class="cls-1" points="18.344 14.687 8.061 6.95 7.949 7.063 7.213 7.814 17.347 15.438 18.344 14.687"/><path class="cls-1" d="M33.48065,5.663,35.6629,3.52188a1.70385,1.70385,0,0,1,2.40187.02322l.95212.97A1.70365,1.70365,0,0,1,38.993,6.91767L36.81075,9.05878Z"/><path class="cls-1" d="M27.9856,25.721,35.758,10.84167l-.37519-.38256-.50866-.51874L26.65454,25.67645C27.10181,25.68109,27.54639,25.69427,27.9856,25.721Z"/><path class="cls-1" d="M32.05267,7.06329l-.10949-.11163L4.84,27.3764a16.28983,16.28983,0,0,1,3.54345-1.16693L32.79059,7.81573Z"/><path class="cls-2" d="M19.54511,35.82472c2.49071-.7624,4.114-1.98627,4.114-3.371,0-1.38461-1.6233-2.60857-4.114-3.37087a20.71662,20.71662,0,0,0-5.95605-.81643c-5.56137,0-10.06969,1.87478-10.06969,4.1873,0,2.31262,4.50832,4.1873,10.06969,4.1873A20.71681,20.71681,0,0,0,19.54511,35.82472Z"/><path class="cls-2" d="M32.33268,35.82472c2.49071-.7624,4.114-1.98627,4.114-3.371,0-1.38461-1.62329-2.60857-4.114-3.37087a20.71667,20.71667,0,0,0-5.95605-.81643c-5.56137,0-10.06969,1.87478-10.06969,4.1873,0,2.31262,4.50832,4.1873,10.06969,4.1873A20.71686,20.71686,0,0,0,32.33268,35.82472Z"/></svg>