<svg xmlns="http://www.w3.org/2000/svg" viewBox="0 0 40 40"><defs><style>.cls-1,.cls-2{fill:#fff;}.cls-1{stroke:#fff;stroke-miterlimit:10;stroke-width:0.5151px;}.cls-3{fill:#00f300;}</style></defs><g id="Ebene_1" data-name="Ebene 1"><path class="cls-1" d="M38.746,18.73169l-1.21264-.2511.009-.00592L36.43311,18.245c-.033-.00684-.07129-.00824-.10535-.014l-2.88367-.59711c-.03113-.00769-.05432-.019-.08728-.02582l-3.86047-.79938-.009.00586-12.436-2.57507a7.62833,7.62833,0,0,1-.79437.56909l16.33453,3.38239c.50025.14313.50928.50866-.00867.8471l-1.42181.929a2.71534,2.71534,0,0,1-2.06964.4281l-5.39453-1.117-.009.00592-3.74366-.77521L19.947,18.507l-3.86053-.79938c-.01014-.00207-.02216-.00232-.03241-.00433l-3.00946-.62317c-.01-.00214-.01673-.0058-.02686-.00794l-2.06238-.42706v.736l1.23664.256c.5628.12945.59075.51275.05175.865l-1.28839.84186V21.048l.01312.00391,2.62873.54071.44488.09216c.58441.12427.61792.5141.07184.87091l-1.42181.92908a3.19319,3.19319,0,0,1-2.0697.4281L2.18982,22.16675c-.59174-.12256-.627-.51459-.07855-.87293l.639-.41754v-.7915L1.19147,21.10333c-1.01917.666-.9538,1.39276.14581,1.62049l8.43256,1.74609.43444.09,2.63361.54528,8.15619,1.68891,4.36548.94842a3.77054,3.77054,0,0,0,3.06775-.51123l1.256-.86206.00671.00141,4.13221-2.70008-.00678-.0014.42975-.28076.00677.0014,4.13215-2.70007-.00672-.00141.51447-.33612C39.911,19.68622,39.84564,18.95941,38.746,18.73169ZM29.44873,25.731l-1.42181.929a3.1923,3.1923,0,0,1-2.06964.4281L21.84662,26.237l-8.15619-1.6889c-.59174-.1225-.627-.51453-.07855-.87293L15.43225,22.476a1.52306,1.52306,0,0,1,1.41864-.2066l.3971.07922.00067-.00043,12.12152,2.51-.00763.005c.014.00287.03046.00323.04455.00592C29.95929,25.00092,29.98431,25.3811,29.44873,25.731Zm8.52332-5.56934L35.83936,21.5553l.00671.00134-1.42181.92908-.00678-.00141-2.13269,1.39356a3.23356,3.23356,0,0,1-1.98065.44L17.95587,21.761l-.00806-.0011-3.05322-.6322-.00671-.002-.43817-.09015-.17151-.03546-.00025.00012-2.457-.50537c-.59173-.12256-.627-.51459-.07855-.87292l1.81287-1.16a1.695,1.695,0,0,1,1.47986-.22845l13.12347,2.71.80609.15979a4.18221,4.18221,0,0,0,3.11609-.94562l.00824.00171,1.75024-1.152a2.204,2.204,0,0,1,1.636-.21918l2.41821.50074C38.48523,19.41132,38.52051,19.80334,37.97205,20.16168Z"/><path class="cls-2" d="M16.18473,5.42772A4.14757,4.14757,0,0,0,14.31131,3.615a6.77583,6.77583,0,0,0-3.02661-.61261H5.79593V19.99092H7.99259V13.00018H10.999a7.857,7.857,0,0,0,3.25994-.5899,3.998,3.998,0,0,0,1.92579-1.77478,4.35624,4.35624,0,0,0,.63519-2.48878A5.34473,5.34473,0,0,0,16.18473,5.42772Zm-2.1175,4.18907a2.44637,2.44637,0,0,1-1.21551,1.053,5.33617,5.33617,0,0,1-2.08338.35H7.99259V4.99818h2.9425a4.62469,4.62469,0,0,1,1.93079.36041A2.5495,2.5495,0,0,1,14.05844,6.432a3.34566,3.34566,0,0,1,.40522,1.70957A2.47244,2.47244,0,0,1,14.06723,9.61679Z"/></g><g id="Icon"><circle class="cls-3" cx="33.98584" cy="6.01982" r="6"/><g id="E05C_phone_audi_service" data-name="E05C phone audi service"><path id="V2" class="cls-2" d="M34.52065,31.01983a3.485,3.485,0,0,0-2.17307.76274,3.441,3.441,0,0,0-2.17306-.76274,3.48451,3.48451,0,0,0-2.1725.76274,3.47611,3.47611,0,0,0-4.34556,0,3.48023,3.48023,0,1,0,0,5.435,3.47611,3.47611,0,0,0,4.34556,0,3.48445,3.48445,0,0,0,2.17249.76275,3.44106,3.44106,0,0,0,2.17307-.76275,3.47918,3.47918,0,1,0,2.17307-6.1977Zm-.8682,3.48022a3.4474,3.4474,0,0,0-.71576-2.11346,2.64184,2.64184,0,1,1,0,4.22693A3.44741,3.44741,0,0,0,33.65245,34.50005Zm-4.34556,0a3.4474,3.4474,0,0,0-.71576-2.11346,2.63669,2.63669,0,0,1,3.16677,0,3.48037,3.48037,0,0,0,0,4.22693,2.63669,2.63669,0,0,1-3.16677,0A3.44741,3.44741,0,0,0,29.30689,34.50005Zm3.50774,0a2.62547,2.62547,0,0,1-.46705,1.49972,2.636,2.636,0,0,1,0-2.99943,2.62535,2.62535,0,0,1,.467,1.49971Zm-4.34556,0a2.62275,2.62275,0,0,1-.467,1.49972,2.63864,2.63864,0,0,1,0-2.99943A2.62275,2.62275,0,0,1,28.46907,34.50005Zm-4.345,0a2.62037,2.62037,0,0,1-.46762,1.49972,2.63867,2.63867,0,0,1,0-2.99943A2.62034,2.62034,0,0,1,24.12408,34.50005Zm.83725,0a3.44808,3.44808,0,0,0-.71519-2.11346,2.63666,2.63666,0,0,1,3.16677,0,3.47814,3.47814,0,0,0,0,4.22693,2.63667,2.63667,0,0,1-3.16676,0A3.44814,3.44814,0,0,0,24.96133,34.50005Zm-1.894,2.11347a2.64183,2.64183,0,1,1,0-4.22693A3.47817,3.47817,0,0,0,23.06735,36.61352Z"/></g></g></svg>