<svg xmlns="http://www.w3.org/2000/svg" viewBox="0 0 40 40"><defs><style>.cls-1,.cls-2{fill:#fff;}.cls-1{stroke:#fff;stroke-miterlimit:10;stroke-width:0.5151px;}.cls-3{fill:#00f300;}</style></defs><g id="Ebene_1" data-name="Ebene 1"><path class="cls-1" d="M38.746,23.67462l-1.21264-.2511.009-.00592-1.10931-.22967c-.033-.00684-.07129-.00824-.10535-.014l-2.88367-.59711c-.03113-.00775-.05432-.019-.08728-.02588l-3.86047-.79937-.009.00592L17.08319,19.189a7.61716,7.61716,0,0,1-.78839.57038l16.29669,3.37451c.50025.14313.50928.50867-.00867.847L31.161,24.91a2.71534,2.71534,0,0,1-2.06964.4281l-5.39453-1.117-.009.00586-3.74366-.77515L19.947,23.45l-3.86053-.79938c-.01014-.00207-.02216-.00232-.03241-.00433l-3.00946-.62317c-.01-.00213-.01673-.0058-.02686-.00793l-2.06238-.42707v.736l1.23664.256c.5628.12945.59075.51276.05175.865l-1.28839.84186v1.70392l.01312.0039,2.62873.54071.44488.0921c.58441.12433.61792.5141.07184.871l-1.42181.92907a3.19319,3.19319,0,0,1-2.0697.4281L2.18982,27.10962c-.59174-.1225-.627-.51453-.07855-.87293l.639-.41754v-.79144L1.19147,26.04626c-1.01917.666-.9538,1.39277.14581,1.62043l8.43256,1.74615.43444.08991,2.63361.54535,8.15619,1.6889,4.36548.94842a3.77031,3.77031,0,0,0,3.06775-.51129l1.256-.862.00671.00141,4.13221-2.70008-.00678-.0014.42975-.28076.00677.0014,4.13215-2.70007-.00672-.0014.51447-.33613C39.911,24.62915,39.84564,23.90228,38.746,23.67462ZM29.44873,30.674l-1.42181.929a3.19236,3.19236,0,0,1-2.06964.4281l-4.11066-.85114L13.69043,29.491c-.59174-.1225-.627-.51453-.07855-.87293l1.82037-1.19922a1.52309,1.52309,0,0,1,1.41864-.2066l.3971.07922.00067-.00048,12.12152,2.51-.00763.00494c.014.00293.03046.00323.04455.006C29.95929,29.94379,29.98431,30.324,29.44873,30.674Zm8.52332-5.56934-2.13269,1.39356.00671.0014-1.42181.92908-.00678-.0014L32.28479,28.8208a3.23356,3.23356,0,0,1-1.98065.44L17.95587,26.70386l-.00806-.001-3.05322-.63226-.00671-.002-.43817-.09015-.17151-.03552-.00025.00019-2.457-.50538c-.59173-.12255-.627-.51458-.07855-.87292l1.81287-1.16a1.695,1.695,0,0,1,1.47986-.22852l13.12347,2.71.80609.15979a4.18221,4.18221,0,0,0,3.11609-.94562l.00824.00171,1.75024-1.152a2.204,2.204,0,0,1,1.636-.21917l2.41821.50073C38.48523,24.35425,38.52051,24.74628,37.97205,25.10461Z"/><path class="cls-2" d="M16.18593,10.3705a4.14757,4.14757,0,0,0-1.87342-1.81268,6.77583,6.77583,0,0,0-3.02661-.61261H5.79713V24.9337H7.99379V17.943H11.0002a7.85711,7.85711,0,0,0,3.26-.5899,3.998,3.998,0,0,0,1.92578-1.77478,4.35626,4.35626,0,0,0,.63519-2.48878A5.34473,5.34473,0,0,0,16.18593,10.3705Zm-2.1175,4.18907a2.44637,2.44637,0,0,1-1.21551,1.053,5.33617,5.33617,0,0,1-2.08338.35H7.99379V9.941h2.9425a4.62469,4.62469,0,0,1,1.93079.36041,2.5495,2.5495,0,0,1,1.19256,1.07343,3.34564,3.34564,0,0,1,.40522,1.70957A2.47247,2.47247,0,0,1,14.06843,14.55957Z"/></g><g id="Icon"><circle class="cls-3" cx="34" cy="6" r="6"/></g></svg>