<svg id="Ebene_1" data-name="Ebene 1" xmlns="http://www.w3.org/2000/svg" viewBox="0 0 40 40"><defs><style>.cls-1,.cls-2{fill:#fff;}.cls-2{fill-rule:evenodd;}</style></defs><rect class="cls-1" x="3.25676" y="3.09908" width="3.47408" height="2.43186"/><rect class="cls-1" x="20" y="9.8998" width="5" height="1.2004"/><rect class="cls-1" x="4.00083" y="9.9" width="4.99833" height="1.2"/><rect class="cls-1" x="21.89496" y="8" width="1.21008" height="5"/><rect class="cls-1" x="22.25139" y="3.09908" width="3.47408" height="2.43186"/><path class="cls-2" d="M14.09758,15.27614V12.40206h3.87408V11.01242H14.09758c.00047.00471,0-2.58444,0-2.58444h3.87408s.00139-1.38117,0-1.38964H14.09758V4.55389h3.87408V3.16426H14.09758V1.73862A1.05882,1.05882,0,0,0,13.01039.58689a1.03656,1.03656,0,0,0-1.00321,1.06889q.00131.04152.006.08284V15.27614Z"/><polygon class="cls-1" points="27.996 20.996 1.008 20.996 1.008 4.789 9.87 4.789 9.87 5.989 2.208 5.989 2.208 19.796 26.796 19.796 26.796 5.989 20.208 5.989 20.208 4.789 27.996 4.789 27.996 20.996"/><circle class="cls-1" cx="12.99866" cy="15.99205" r="1.82389"/><path class="cls-1" d="M25.37754,38.66763l7.18066-18.898,7.18262,18.898L32.5582,33.75454Zm7.18066-6.36719,4.70118,3.21582L32.5582,23.14761,27.858,35.51626Z"/><polygon class="cls-1" points="28.14 23 7.008 23 7.008 24.201 27.684 24.201 28.14 23"/><path class="cls-1" d="M31.20641,17.04419V10.02258H30.00719v8.01618A2.99319,2.99319,0,0,1,31.20641,17.04419Z"/><polygon class="cls-1" points="26.962 26 10.009 26 10.009 27.201 26.506 27.201 26.962 26"/><path class="cls-1" d="M34.20812,17.35382V13.00268H33.00891v3.82819A2.99156,2.99156,0,0,1,34.20812,17.35382Z"/></svg>