<svg xmlns="http://www.w3.org/2000/svg" viewBox="0 0 40 40"><defs><style>.cls-1,.cls-2{fill:none;stroke:#fff;stroke-width:1.2px;}.cls-1{stroke-miterlimit:10;}.cls-3{fill:#fff;}</style></defs><g id="Ebene_1" data-name="Ebene 1"><g id="E0C8_navigation_home" data-name="E0C8 navigation home"><path class="cls-1" d="M7.5,24.11292V38.5h25V24.11292"/><path class="cls-1" d="M34.75,25.95545,20.38174,14.27386,5.15,25.95545"/></g><line class="cls-2" x1="28.95917" y1="1.60692" x2="26.04317" y2="1.60703"/><line class="cls-2" x1="20.50011" y1="9.95292" x2="20.5" y2="7.03692"/><line class="cls-2" x1="26.47347" y1="7.47406" x2="24.41147" y2="5.41222"/><line class="cls-2" x1="12.00914" y1="1.59724" x2="14.92514" y2="1.59713"/><line class="cls-2" x1="14.48799" y1="7.46722" x2="16.54984" y2="5.40522"/><path class="cls-3" d="M23.99609,4.24823a4.464,4.464,0,0,0,.745-4.2392H23.44238A3.29016,3.29016,0,0,1,20.84717,4.7204a3.30789,3.30789,0,0,1-3.647-2.91162A3.27291,3.27291,0,0,1,17.51331.009H16.227a4.46436,4.46436,0,0,0-.21924,1.93354A4.497,4.497,0,0,0,20.981,5.91278,4.46888,4.46888,0,0,0,23.99609,4.24823Z"/></g></svg>