<svg id="Ebene_1" data-name="Ebene 1" xmlns="http://www.w3.org/2000/svg" viewBox="0 0 40 40"><defs><style>.cls-1{fill:none;stroke:#fff;stroke-miterlimit:10;stroke-width:1.2px;}.cls-2{fill:#fff;}</style></defs><path class="cls-1" d="M23.098,38.62574a2.82318,2.82318,0,0,1-1.01614-.19634c-.91951-.33306-2.64906-1.08964-2.97543-1.25617l-.79256-.39165-1.44531-.74219c-.37572-.18915-1.9814-1.13076-2.777-1.66427a2.12877,2.12877,0,0,1-.96577-2.647c1.90533-4.27426,3.78649-8.237,5.59005-11.77683,1.9521-3.83121,4.43051-8.60146,6.2829-11.51058a2.43245,2.43245,0,0,1,2.2687-1.18524c.08635,0,.17476.00257.26419.00771a13.1457,13.1457,0,0,1,4.07689,1.23561l.61267.312a2.05038,2.05038,0,0,1,.19634.09817,13.3318,13.3318,0,0,1,3.46525,2.59971A2.558,2.558,0,0,1,36.41,14.277c-.19121.49445-1.66736,4.08974-3.58759,8.04842-1.14,2.37048-2.95127,6.05983-5.51706,10.72265L24.7581,37.7016A1.80114,1.80114,0,0,1,23.098,38.62574Z"/><path class="cls-2" d="M31.64948,18.6261a10.66038,10.66038,0,0,0-.91266-1.026,9.57572,9.57572,0,0,0-2.25641-1.64887,10.04784,10.04784,0,0,0-2.64569-.84155,9.24035,9.24035,0,0,0-1.36505-.13049.77286.77286,0,0,0-.78315.69336,11.039,11.039,0,0,0,.05823,3.61071S25.419,19.9942,26.22,20.4024c.81848.417,2.37769,1.35358,2.37769,1.35358a11.14665,11.14665,0,0,0,2.95074-2.09564A.76849.76849,0,0,0,31.64948,18.6261ZM24.50842,31.51886l-6.2539-3.2121a.79109.79109,0,0,0-1.06653.34174l-1.14777,2.22424a.78608.78608,0,0,0,.3562,1.06653l6.24927,3.21326a.78747.78747,0,0,0,1.07-.33307l1.14294-2.22968A.80329.80329,0,0,0,24.50842,31.51886Z"/><line class="cls-1" x1="32.6" x2="32.6" y2="6.0115"/><rect class="cls-2" x="4.80078" y="0.00012" width="1.19922" height="6.2002"/><rect class="cls-2" x="4.80078" y="8.45105" width="1.19922" height="6.2002"/><rect class="cls-2" x="4.80078" y="16.90198" width="1.19922" height="6.2002"/><rect class="cls-2" x="4.80078" y="25.35291" width="1.19922" height="6.2002"/><rect class="cls-2" x="4.79631" y="33.79817" width="1.19922" height="6.2002"/><line class="cls-1" x1="32.6" y1="27.98837" x2="32.6" y2="40"/></svg>