<?xml version="1.0" encoding="UTF-8"?>
<svg id="Ebene_1" data-name="Ebene 1" xmlns="http://www.w3.org/2000/svg" viewBox="0 0 40 40">
  <defs>
    <style>
      .cls-1 {
        fill: #fff;
      }

      .cls-2 {
        fill: none;
        stroke: #fff;
        stroke-miterlimit: 10;
        stroke-width: 1.2px;
      }
    </style>
  </defs>
  <g id="E3E4_fod_infotainment" data-name="E3E4 fod infotainment">
    <g id="_1-5" data-name=" 1-5">
      <path class="cls-2" d="M3.78144,35.36764s1.68309-3.26854,.91052-3.88231c-1.00193-.79591-1.01773-5.31983-.99987-6.17605l.04757-.60601c.17563-1.7436-.29414-3.49108-1.32036-4.91159-2.10216-2.48386,.47723-2.60404,.56807-2.58911,2.82087,.43288,3.6977,1.48908,4.64312,4.16372,.40599,.09194,.8517-1.08719,.8517-1.08719l5.28517-11.33409c.39046-.83734,1.09149-1.49918,1.93623-1.10527l.81437,.37975c.84472,.3939,.72705,1.66198,.33661,2.49928l-4.20362,9.0205"/>
      <path class="cls-2" d="M19.07829,21.54613c.27605-.80615,1.15334-1.23588,1.95949-.95983,.00581,.00199,.01161,.00401,.01739,.00607,1.04389,.48677,1.27735,1.30745,.72923,2.59063,0,0-4.57864,9.84322-4.80951,10.33832-.47043,1.00883-2.85116,1.09325-3.33716,2.13549l-1.64964,3.53765"/>
      <path class="cls-2" d="M17.24298,18.29876c.39805-.85362,1.21451-.86607,1.92515-.53692,.71926,.25085,1.09899,1.03728,.84814,1.75654-.01753,.05026-.03795,.09946-.06117,.14736l-2.03294,4.35966"/>
      <path class="cls-2" d="M14.58602,15.58952c.29189-.82482,1.19716-1.25685,2.02198-.96496,.07233,.0256,.1427,.05641,.21057,.09221,.91631,.35438,1.37184,1.38447,1.01747,2.30078-.01607,.04157-.03371,.08251-.05286,.12276l-2.30457,4.94217"/>
    </g>
  </g>
  <g id="E938_map_start_guidance_instantly" data-name="E938 map start guidance instantly">
    <line class="cls-2" x1="31.68136" y1="6.5" x2="23.01064" y2="6.5"/>
    <polygon class="cls-1" points="40 6.4776 31.00406 2.3656 31.00406 10.5906 40 6.4776"/>
  </g>
</svg>