<svg xmlns="http://www.w3.org/2000/svg" viewBox="0 0 40 40"><g id="E51B_nav_life_asia"><line x1="15.9" y1="37.6" x2="25.8" y2="24.2" fill="none" stroke="#fff" stroke-miterlimit="10" stroke-width="1.2"/><line x1="35.6" y1="37.6" x2="25.8" y2="24.2" fill="none" stroke="#fff" stroke-miterlimit="10" stroke-width="1.2"/><circle cx="25.8" cy="22.5" r="1.8" fill="none" stroke="#fff" stroke-miterlimit="10" stroke-width="1.2"/><path d="M15.7,27.4A11.21192,11.21192,0,1,0,30.2,12.2" fill="none" stroke="#fff" stroke-miterlimit="10" stroke-width="1.2"/><rect x="30.1" y="15.1" width="1.8" height="1.8" fill="#fff"/><rect x="33" y="20.1" width="1.8" height="1.8" fill="#fff"/><rect x="31.7" y="25.9" width="1.8" height="1.8" fill="#fff"/><rect x="18.3" y="25.9" width="1.8" height="1.8" fill="#fff"/><rect x="24.9" y="29.3" width="1.8" height="1.8" fill="#fff"/><line x1="4.9" y1="17.5" x2="8" y2="17.5" fill="none" stroke="#fff" stroke-miterlimit="10" stroke-width="1.2"/><line x1="10.1" y1="17.5" x2="13" y2="17.5" fill="none" stroke="#fff" stroke-miterlimit="10" stroke-width="1.2"/><path d="M15.5,21.1c0,2.1-2.7,6.4-6.5,6.4s-6.5-4.2-6.5-6.4V13.5h13Z" fill="none" stroke="#fff" stroke-miterlimit="10" stroke-width="1.2"/><path d="M13.5,11V3.5h13v7.6c0,3.7-2.4,7.4-6.2,7.4a6.71029,6.71029,0,0,1-2.8-.6" fill="none" stroke="#fff" stroke-miterlimit="10" stroke-width="1.2"/><path d="M12,20.5a2.81821,2.81821,0,0,1-3,2.6,2.81821,2.81821,0,0,1-3-2.6Z" fill="none" stroke="#fff" stroke-miterlimit="10" stroke-width="1.2"/><path d="M22.9,14.1c0-.4-.4-1.6-3-1.6a4.03475,4.03475,0,0,0-2.4.5" fill="none" stroke="#fff" stroke-miterlimit="10" stroke-width="1.2"/><line x1="16" y1="7.5" x2="19" y2="7.5" fill="none" stroke="#fff" stroke-miterlimit="10" stroke-width="1.2"/><line x1="21" y1="7.5" x2="24.1" y2="7.5" fill="none" stroke="#fff" stroke-miterlimit="10" stroke-width="1.2"/><line x1="13.6" y1="37.5" x2="38" y2="37.5" fill="none" stroke="#fff" stroke-miterlimit="10" stroke-width="1.2"/></g></svg>