<svg xmlns="http://www.w3.org/2000/svg" viewBox="0 0 40 40"><title>E51D_database_update_asia</title><g id="Icon"><path d="M29.90469,9.25371l.50119-.59944a1.65033,1.65033,0,0,0,1.0255.40211c.37074,0,.54165-.14285.54165-.33193,0-.27743-.22871-.34514-.59449-.49789l-.50284-.21467A1.1242,1.1242,0,0,1,30.05827,6.96a1.26508,1.26508,0,0,1,1.4144-1.15018,1.87057,1.87057,0,0,1,1.28146.50532l-.44009.55074a1.38652,1.38652,0,0,0-.88926-.30138c-.28817,0-.483.1189-.483.34431,0,.232.25844.31706.62835.45578l.47229.20064a1.0775,1.0775,0,0,1,.82486,1.04862c0,.64156-.53835,1.19724-1.49366,1.19724A2.2219,2.2219,0,0,1,29.90469,9.25371Z" fill="#fff"/><path d="M33.574,5.88079H34.64a1.69207,1.69207,0,0,1,1.85532,1.91229A1.70548,1.70548,0,0,1,34.68954,9.74H33.574Zm1.01724,3.15577c.60027,0,1.009-.32037,1.009-1.24348,0-.92147-.40872-1.2088-1.009-1.2088h-.1445V9.03656Z" fill="#fff"/><polygon points="28.5 6.5 30.5 4.5 37.5 4.5 37.5 17.5 28.5 17.5 28.5 6.5" fill="none" stroke="#fff" stroke-miterlimit="10" stroke-width="1.2"/><polygon points="29.877 29.377 32.201 31.701 29.027 32.551 25.852 33.402 26.703 30.227 27.554 27.053 29.877 29.377" fill="#fff"/><path d="M15.183,7.46676A5.04654,5.04654,0,0,0,11.00921,4.5,5.04651,5.04651,0,0,0,6.83544,7.46676l-.00248,0H5.75616a3.69629,3.69629,0,0,0-3.74224,3.25136A3.48166,3.48166,0,0,0,5.571,14.5H16.297a3.60636,3.60636,0,0,0,3.74224-3.14261,3.57156,3.57156,0,0,0-3.557-3.8906H15.183Z" fill="none" stroke="#fff" stroke-miterlimit="10" stroke-width="1.2"/><path d="M31.37909,20.1001c.05255.47735.08777.99969.10333,1.606A12.27278,12.27278,0,0,1,26.71582,31.917l.72852.95313a13.45609,13.45609,0,0,0,5.2373-11.19434c-.0152-.5849-.04755-1.10016-.09552-1.57568Z" fill="#fff"/><path d="M4.78027,21.69141a13.28839,13.28839,0,0,1,.821-4.59131H5.5708a6.34427,6.34427,0,0,1-1.19525-.11786,14.51906,14.51906,0,0,0,13.75531,19.259V35.042A13.36566,13.36566,0,0,1,4.78027,21.69141Z" fill="#fff"/><path d="M21.667,7.57324l-.02423.0968a6.17817,6.17817,0,0,1,.66669,1.34919,13.31,13.31,0,0,1,3.59094,1.83044V9.39581A14.38769,14.38769,0,0,0,21.667,7.57324Z" fill="#fff"/></g></svg>