<?xml version="1.0" encoding="utf-8"?>
<!-- Generator: Adobe Illustrator 25.3.0, SVG Export Plug-In . SVG Version: 6.00 Build 0)  -->
<svg version="1.1" id="Icon" xmlns="http://www.w3.org/2000/svg" xmlns:xlink="http://www.w3.org/1999/xlink" x="0px" y="0px"
	 viewBox="0 0 40 40" style="enable-background:new 0 0 40 40;" xml:space="preserve">
<style type="text/css">
	.st0{fill:#FFFFFF;}
	.st1{fill-rule:evenodd;clip-rule:evenodd;fill:#FFFFFF;}
</style>
<g id="V2">
	<path class="st0" d="M38.4,24.1h-7l3.5,3.5L38.4,24.1L38.4,24.1z"/>
	<path class="st0" d="M15.8,22.3l-3.5,3.5h7L15.8,22.3L15.8,22.3z"/>
	<path class="st0" d="M25.4,16.2c4.8,0,8.7,3.8,8.7,8.6h1.2c-0.1-5.5-4.6-9.9-10.1-9.8c-3.9,0.1-7.4,2.4-9,6l0.9,0.9
		C18.5,18.5,21.8,16.2,25.4,16.2z"/>
	<path class="st0" d="M33.6,28.1c-1.7,4.5-6.8,6.8-11.3,5c-3.2-1.2-5.4-4.2-5.6-7.6h-1.2c0.3,5.5,5,9.7,10.4,9.4
		c3.7-0.2,7-2.5,8.6-5.9L33.6,28.1z"/>
	<rect x="22.1" y="24.9" class="st0" width="6.5" height="1.2"/>
	<rect x="22.1" y="26.9" class="st0" width="6.5" height="1.2"/>
	<polygon class="st0" points="23.2,20.3 21.8,20.3 24.8,25.5 24.8,29.5 26,29.5 26,25.2 	"/>
	<polygon class="st0" points="27.6,20.3 24.9,25.1 25.9,25.7 28.9,20.3 	"/>
	<path id="P" class="st1" d="M4.9,13.4h4.4c0.4,0,4.1,0.1,4.1-3.6S9.6,6.2,9.2,6.2H4.9V13.4z M2,25V4h6.5c4.1-0.2,7.2,1.2,7.2,5.9
		c0,4.5-3.2,5.6-7.2,5.7H4.9V25L2,25z"/>
</g>
</svg>
