<svg xmlns="http://www.w3.org/2000/svg" viewBox="0 0 40 40"><defs><style>.cls-1{fill:none;stroke:#fff;stroke-miterlimit:10;stroke-width:1.2px;fill-rule:evenodd;}.cls-2{fill:#fff;}</style></defs><g id="Icon"><path class="cls-1" d="M9.32641,38.7474a2.1428,2.1428,0,0,1-2.55867-.80192l-2.36741-3.7544a2.22738,2.22738,0,0,1,1.43735-2.66784l3.231-1.38956,1.29422-.56038a19.981,19.981,0,0,1,6.15242-1.40486,25.79789,25.79789,0,0,0,8.19148-1.992c.13914-.06.27978-.1219.41708-.18376a.3176.3176,0,0,1,.297.00425.80343.80343,0,0,1-.01833.4006l-.0129.04131.081,3.95709a2.15992,2.15992,0,0,1-1.243,1.93046ZM21.004,24.47643c-.75777.29-1.35276.23886-1.75033-.33828l-.762-1.205a35.97769,35.97769,0,0,0-1.86692-7.1814,39.93306,39.93306,0,0,0-1.9094-4.50862,2.90893,2.90893,0,0,1,.80078-3.78676l.91545-.70548a1.53945,1.53945,0,0,1,2.10578.41135,35.78608,35.78608,0,0,1,3.43188,6.56856,34.02821,34.02821,0,0,1,2.33912,8.56338,1.27669,1.27669,0,0,1-.5281,1.25468ZM12.76728,6.76571a.79984.79984,0,0,1-.63178.13912.76471.76471,0,0,1-.49414-.34923c-.428-.63666-.7878-1.15182-1.1285-1.63985-.32515-.466-.63325-.90727-.96706-1.40606A.79668.79668,0,0,1,9.835,2.34622l.09385-.062c1.93912-1.33578,3.8064-.908,5.39995,1.23655a.8064.8064,0,0,1-.16005,1.02109c-.9941.86274-2.13475,1.98408-2.259,2.10688a1.11813,1.11813,0,0,1-.14226.11681Z"/></g><g id="Ebene_1" data-name="Ebene 1"><path class="cls-2" d="M33.40857,20.67426l2.52685-.99683-5.34906-1.99017-2.40985,5.10827,2.668-1.098c.151.26849.29889.53931.42792.823A10.83511,10.83511,0,0,1,27.148,36.20929L28.49689,38.609a13.5856,13.5856,0,0,0,5.27948-17.22815C33.66547,21.13727,33.53284,20.90863,33.40857,20.67426Z"/></g></svg>