<svg xmlns="http://www.w3.org/2000/svg" viewBox="0 0 40 40"><defs><style>.cls-1,.cls-2{fill:none;stroke:#fff;}.cls-1{stroke-miterlimit:10;stroke-width:1.2px;}.cls-1,.cls-3{fill-rule:evenodd;}.cls-2{stroke-width:1.2px;}.cls-3{fill:#fff;}</style></defs><g id="Icon"><path class="cls-1" d="M9.48653,36.50737a2.14281,2.14281,0,0,1-2.03246-1.749L6.76564,30.3736c0-1.10856,1.22691-1.88126,2.37575-1.88126l3.51714.00248,1.41033-.00248a19.98085,19.98085,0,0,1,6.20613,1.1445A25.79819,25.79819,0,0,0,28.58608,31.049c.15151,0,.30518-.00124.45576-.00371a.31754.31754,0,0,1,.27109.12145.80328.80328,0,0,1-.17536.36064l-.02819.03284-1.4915,3.66613a2.15992,2.15992,0,0,1-1.90544,1.281Zm17.39861-8.14888A1.26224,1.26224,0,0,1,25.63561,27.087V25.26085a36.96318,36.96318,0,0,0,2.63259-7.0755,39.93194,39.93194,0,0,0,.98525-4.79611,2.90894,2.90894,0,0,1,2.80764-2.6642l1.15411-.06165A1.53944,1.53944,0,0,1,34.716,12.19672a35.78538,35.78538,0,0,1-.9,7.3562,31.7602,31.7602,0,0,1-2.7556,8.0719,1.27666,1.27666,0,0,1-1.14666.73367Zm3.304-19.76165a.79976.79976,0,0,1-.5992-.24383.76469.76469,0,0,1-.20882-.56791c.00867-.76713.00464-1.39546.00093-1.99063-.00341-.56823-.00682-1.10639.00124-1.70653a.79668.79668,0,0,1,.89818-.79408l.11247.00217c2.35468,0,3.64975,1.41157,3.74549,4.08165a.8064.8064,0,0,1-.71105.75009c-1.30809.14655-2.88356.42291-3.05551.45358a1.11824,1.11824,0,0,1-.18342.01549Z"/></g><g id="Ebene_1" data-name="Ebene 1"><g id="E2CB_shop_connection_error" data-name="E2CB shop connection error"><path class="cls-2" d="M21.25912,19.624,14.39112,7.05a1.15365,1.15365,0,0,0-1.01578-.61675,1.10308,1.10308,0,0,0-.98212.61675L5.53,19.624a.9304.9304,0,0,0-.00413,1.06042,1.23279,1.23279,0,0,0,1.07.62357H20.19321a1.23113,1.23113,0,0,0,1.07-.62362A.928.928,0,0,0,21.25912,19.624Z"/><path class="cls-3" d="M13.46637,16.37988a.791.791,0,0,1-.79067-.79068V10.84513a.79068.79068,0,0,1,1.58135,0v4.74406A.791.791,0,0,1,13.46637,16.37988Zm0,1.33134a.79068.79068,0,1,1-.79067.79069v0A.791.791,0,0,1,13.46637,17.71122Z"/></g></g></svg>