<?xml version="1.0" encoding="UTF-8"?>
<svg width="40px" height="40px" viewBox="0 0 40 40" version="1.1" xmlns="http://www.w3.org/2000/svg" xmlns:xlink="http://www.w3.org/1999/xlink">
    <!-- Generator: Sketch 60 (88103) - https://sketch.com -->
    <title>iflytek_DA_icon_default</title>
    <desc>Created with Sketch.</desc>
    <g id="iflytek_DA_icon_default" stroke="none" stroke-width="1" fill="none" fill-rule="evenodd" stroke-linejoin="round">
        <path d="M23.2367548,17.3147925 L32.7996575,12.6163039 C35.5563643,11.5437214 37.6231451,11.871138 39,13.5985535 C39,16.8296635 18.4757739,25.1669618 10.2182273,28.5392251 C4.75533268,30.6322005 2.16609655,25.0387405 1.26211587,22.8975448 C0.358135193,20.756349 1.96068066,20.334602 3.50664066,20.9392133 C5.53187892,21.7790529 7.22221757,22.8742476 8.57765663,24.2247974 L12.7719993,21.8275886 C12.3031635,21.3316122 11.6755666,20.83395 10.8892086,20.334602 C10.1028506,19.835254 7.3589909,18.0640702 2.65762939,15.0210505 C3.80808577,13.7456454 5.78142818,13.4267941 8.57765663,14.0644967 C11.3738851,14.7021992 16.2602511,15.7856312 23.2367548,17.3147925 Z" id="路径-5" stroke="#FFFFFF" stroke-width="1.2"></path>
    </g>
</svg>