<?xml version="1.0" encoding="UTF-8"?>
<svg id="Ebene_1" data-name="Ebene 1" xmlns="http://www.w3.org/2000/svg" viewBox="0 0 40 40">
  <defs>
    <style>
      .cls-1 {
        fill: #fff;
      }

      .cls-2 {
        fill: none;
        stroke: #fff;
        stroke-miterlimit: 10;
        stroke-width: 1.2px;
      }
    </style>
  </defs>
  <path class="cls-2" d="M12.51744,6.65415c3.25785-1.69573-6.24026-3.38799-8.73032-1.67817-1.07196,.73606-1.78549,11.53385,.19524,14.52592S9.25959,8.34989,12.51744,6.65415Z"/>
  <path class="cls-2" d="M20.0668,36.44784c6.84434-.01443,11.64871-1.96712,11.64871-10.7969,0-17.68558-4.57935-21.2152-11.71552-21.2152-7.13617,0-11.71552,3.52962-11.71552,21.2152,0,8.82978,4.80437,10.78247,11.64871,10.7969h.13361Z"/>
  <path class="cls-2" d="M27.53925,6.65415c-3.25785-1.69573,6.24026-3.38799,8.73032-1.67817,1.07196,.73606,1.78549,11.53385-.19524,14.52592-1.98073,2.99207-5.27723-11.15201-8.53509-12.84775Z"/>
  <g>
    <ellipse class="cls-1" cx="23.68717" cy="14.2319" rx="1.54346" ry="2.22945" transform="translate(-2.45316 5.27018) rotate(-12.07529)"/>
    <ellipse class="cls-1" cx="16.31283" cy="14.2319" rx="2.22945" ry="1.54346" transform="translate(-1.01676 27.20652) rotate(-77.92471)"/>
  </g>
  <path class="cls-1" d="M20.0002,30.01557c-.46438,0-.77372-.34343-1.08947-.68417-.39352-.42467-1.57572-2.59016-1.69802-3.36413-.09158-.58255,.24933-1.14619,.80824-1.33466,1.51723-.51283,2.44068-.51283,3.95909,0,.55892,.18847,.89923,.75271,.80706,1.33584-.12171,.77279-1.3276,2.91436-1.69743,3.36295-.2955,.35844-.62509,.68417-1.08947,.68417Z"/>
  <g>
    <path class="cls-2" d="M20,29.85013c0,2.05795-.10508,4.9244-4.42678,6.15917"/>
    <path class="cls-2" d="M20,29.85013c0,2.05795,.10508,4.9244,4.42678,6.15917"/>
  </g>
</svg>