<?xml version="1.0" encoding="UTF-8"?>
<svg id="Ebene_1" data-name="Ebene 1" xmlns="http://www.w3.org/2000/svg" viewBox="0 0 40 40">
  <defs>
    <style>
      .cls-1 {
        fill: #fff;
      }

      .cls-2 {
        fill: none;
        stroke: #fff;
        stroke-width: 1.2px;
      }
    </style>
  </defs>
  <path class="cls-2" d="M30.03153,17.42488l-2.33305,19.05699c-.09675,.54925-.39105,1.0591-.81743,1.41505-.42615,.35595-.97987,.5582-1.5336,.5582H14.44463c-.55598,0-1.11195-.20225-1.53383-.5582-.42615-.35595-.72068-.8658-.8172-1.41505l-2.33305-19.05699H30.03153Z"/>
  <path class="cls-2" d="M30.06755,17.4622c0-5.61757-4.55394-10.17151-10.17151-10.17151s-10.17151,4.55394-10.17151,10.17151"/>
  <polyline class="cls-2" points="19.5766 29.17109 22.49606 5.57479 30.8721 1.11172"/>
  <path class="cls-1" d="M10.80377,27.02228l1.16534,9.51886c.09723,.55304,.3938,1.06647,.82288,1.42487,.4248,.3584,.98462,.56207,1.54449,.56207h10.97845c.55756,0,1.11511-.20367,1.54425-.56207,.42932-.3584,.72565-.87183,.82312-1.42487l1.16595-9.52386-18.04449,.005Z"/>
</svg>