<?xml version="1.0" encoding="UTF-8"?>
<svg id="Ebene_1" data-name="Ebene 1" xmlns="http://www.w3.org/2000/svg" viewBox="0 0 40 40">
  <defs>
    <style>
      .cls-1 {
        fill: none;
        stroke: #fff;
        stroke-linejoin: round;
        stroke-width: 1.2px;
      }
    </style>
  </defs>
  <g id="E467_car_inclination_front" data-name="E467 car inclination front">
    <path class="cls-1" d="M27.73459,24.78127s-6.08141,.0227-15.23317,.02795c-.52743,1.26093-1.59774,2.21501-2.91075,2.59466-2.1174,.45019-4.26543-.62-5.18131-2.58143-.17085-.00106-.75744,.03686-2.17554-.01215-1.14292-.03931-1.46394-1.11217-1.46566-1.91828-.08224-1.06285,.16299-2.1254,.7027-3.04472,.66434-.85268,1.42414-1.42938,4.06051-2.01334,1.46699-.32485,5.03677-.90327,5.03677-.90327,.10505-.01498,.20795-.0424,.30653-.08168,.17871-.12251,.34445-.26294,.49465-.41909,1.4247-1.20933,3.09314-3.12586,5.44243-3.79468,3.35314-.6865,6.81309-.66089,10.1557,.07517,2.61219,.61625,5.77554,3.00737,7.7249,3.501,2.33646,.59196,3.23034,.00227,3.74608,1.82661,.51523,1.79828,.78731,3.65746,.80898,5.52796-.00521,1.45703-3.16018,1.1555-3.291,1.1912-.94044,2.27317-3.54559,3.35356-5.81875,2.41312-1.08448-.44866-1.94807-1.3072-2.40308-2.38904h.00002Z"/>
  </g>
</svg>