<?xml version="1.0" encoding="UTF-8"?>
<svg id="Ebene_1" data-name="Ebene 1" xmlns="http://www.w3.org/2000/svg" viewBox="0 0 40 40">
  <defs>
    <style>
      .cls-1 {
        fill: #fff;
      }

      .cls-2 {
        fill: none;
        stroke: #fff;
        stroke-width: 1.2px;
      }
    </style>
  </defs>
  <g>
    <path class="cls-1" d="M35.99902,17.09979l.21484-1.14453-2.11328-5.40771-4.62988-1.48438-4.83496-3.41309-.03711-1.95166c2.82129,.80664,5.40137,2.31982,7.46973,4.38477,3.00977,3.01514,4.77832,6.95508,5.04102,11.17676l-1.11035-2.16016Z"/>
    <path class="cls-1" d="M8.08838,14.45966l-.57764-5.62305-.38135-.26807,.08789-.09912c.11377-.13037,.22754-.26074,.35205-.38477,1.3374-1.33545,2.8999-2.44385,4.64551-3.2959l3.32568,2.45166-.5957,3.05518-5.49658,4.20508-1.35986-.04102Z"/>
    <path class="cls-1" d="M25.88574,35.22382l5.59277-3.57715,1.16602,.34961-.01758,.01953c-.17969,.20703-.36035,.41309-.55664,.60938-1.76562,1.7627-3.8623,3.09961-6.23535,3.97461l.05078-1.37598Z"/>
    <polygon class="cls-1" points="19.59668 21.90643 22.06152 16.65887 26.5752 15.3161 30.69727 19.53925 28.76562 25.86639 23.12207 26.42401 19.59668 21.90643"/>
    <polygon class="cls-1" points="14.28662 32.18182 13.1499 30.71893 10.5874 26.81366 12.1626 22.95526 18.30566 22.95331 21.76074 27.39276 19.05029 32.20526 14.28662 32.18182"/>
    <path class="cls-1" d="M31.3623,29.9826l-1.36719-3.64355,2.14844-6.18555,3.23633-1.54785,1.74609,2.93848c-.2334,3.27441-1.40723,6.46875-3.41797,9.16016l-2.3457-.72168Z"/>
    <polygon class="cls-1" points="6.60107 25.25311 4.44775 20.41132 7.62988 15.92206 9.06738 15.96844 10.69775 22.39471 9.0957 25.61249 6.60107 25.25311"/>
    <path class="cls-1" d="M19.82568,37.68085c-2.58105,0-5.16504-.58691-7.48682-1.69727l2.21582-2.57031,4.73975-.02051,5.08643,2.37695-.05371,1.31738c-1.46582,.39355-2.97949,.59375-4.50049,.59375h-.00098Z"/>
    <path class="cls-1" d="M4.31885,28.133c-1.1416-2.27637-1.76709-4.8125-1.82422-7.38721l2.78418,5.47607-.95996,1.91113Z"/>
    <path class="cls-1" d="M16.52344,10.55682l.56396-2.96777c.67871-.08887,4.37451-.57959,6.1499-.95312l4.99219,3.18994-2.03711,3.92334-4.17578,1.08594-5.49316-4.27832Z"/>
    <path class="cls-1" d="M14.28662,32.18182l-1.13672-1.46289-2.5625-3.90527,1.5752-3.8584,6.14307-.00195,3.45508,4.43945-2.71045,4.8125-4.76367-.02344Zm5.31006-10.27539l2.46484-5.24756,4.51367-1.34277,4.12207,4.22314-1.93164,6.32715-5.64355,.55762-3.52539-4.51758Zm-12.99561,3.34668l-2.15332-4.8418,3.18213-4.48926,1.4375,.04639,1.63037,6.42627-1.60205,3.21777-2.49463-.35938Zm9.92236-14.69629l.56396-2.96777c.67871-.08887,4.37451-.57959,6.1499-.95312l4.99219,3.18994-2.03711,3.92334-4.17578,1.08594-5.49316-4.27832Z"/>
  </g>
  <g id="E80D_setup_uhrzeit_und_datum" data-name="E80D setup uhrzeit und datum">
    <g id="V2-21">
      <path class="cls-2" d="M32.37654,7.63978c6.8242,6.83537,6.81515,17.90864-.02023,24.73285-6.83537,6.8242-17.90864,6.81515-24.73285-.02023-6.8242-6.83537-6.81515-17.90864,.02023-24.73285,6.82704-6.81588,17.88387-6.81637,24.71151-.0011l.02133,.02133Z"/>
    </g>
  </g>
</svg>