<?xml version="1.0" encoding="UTF-8"?>
<svg id="Icon" xmlns="http://www.w3.org/2000/svg" viewBox="0 0 40 40">
  <defs>
    <style>
      .cls-1 {
        fill: #fff;
      }

      .cls-2 {
        fill: none;
        stroke: #fff;
        stroke-miterlimit: 10;
        stroke-width: 1.2px;
      }
    </style>
  </defs>
  <path class="cls-1" d="M18.53082,24.46271c.08868,.29407,.14886,.59833,.14886,.91541,0,.84473-.32617,1.63477-.91797,2.22754l-6.42773,6.42676c-1.18359,1.18359-3.26953,1.18359-4.45312,0l-.90039-.89844c-1.22754-1.22852-1.22754-3.22656,0-4.45605l6.42676-6.42578c.61523-.61426,1.42188-.92188,2.22852-.92188,.31573,0,.62811,.06122,.93225,.1554l.9173-.92474c-1.61322-.75928-3.59473-.48914-4.92572,.84259l-6.42773,6.42676c-1.69531,1.69629-1.69531,4.45605,.00098,6.15234l.89844,.89746c.81934,.81934,1.91113,1.27051,3.07617,1.27051s2.25684-.45117,3.0752-1.27051l6.42676-6.42578c.81934-.81934,1.27051-1.91113,1.27051-3.07617,0-.65289-.15546-1.27612-.42407-1.84778l-.92499,.93237Z"/>
  <path class="cls-1" d="M34.85156,6.08075l-.89941-.89893c-1.69531-1.69531-4.45605-1.69531-6.15137,0l-6.42773,6.42725c-1.32129,1.32208-1.59845,3.28442-.85968,4.89142l.9278-.9353c-.31055-1.06848-.05981-2.26685,.78052-3.10748l6.42676-6.42725c.61523-.61377,1.42188-.9209,2.22852-.9209s1.61328,.30713,2.22656,.9209l.89844,.89893h.00098c.5918,.59229,.91797,1.3833,.91797,2.22754s-.32617,1.63525-.91797,2.22705l-6.42773,6.42725c-.82532,.82599-2.08496,1.0625-3.17627,.73657l-.93219,.93964c.58099,.27924,1.21576,.44196,1.8819,.44196,1.16504,0,2.25684-.45068,3.0752-1.26953l6.42676-6.42725c.81934-.81836,1.27051-1.91064,1.27051-3.07568s-.45117-2.25732-1.26953-3.07617Z"/>
  <line class="cls-2" x1="26.49184" y1="13.45587" x2="13.50816" y2="26.54413"/>
</svg>