<?xml version="1.0" encoding="UTF-8"?>
<svg id="Ebene_1" data-name="Ebene 1" xmlns="http://www.w3.org/2000/svg" viewBox="0 0 40 40">
  <defs>
    <style>
      .cls-1, .cls-2 {
        fill: #fff;
      }

      .cls-2 {
        fill-rule: evenodd;
      }
    </style>
  </defs>
  <path class="cls-1" d="M17.99509,29.19538h-.00002c.15978,0,.31832,.01538,.47095,.04567,.98213,.19508,1.96574,.38447,2.94935,.57077l3.64822,3.56895c-.13225,.0117-.26524,.01762-.39839,.01762-.26373,0-.52618-.02371-.77864-.0702-1.84636-.34235-3.72337-.70546-5.57674-1.07883-.22037-.04482-.44695-.06754-.67339-.06754-.61382-.00002-1.21275,.16387-1.72541,.47-1.67598,.98618-3.37738,2.00939-5.20021,3.12734-.30812,.18846-.67922,.29225-1.04494,.29225l-.08952-.00203c-.40102-.02261-.79325-.16707-1.1045-.40683-.27088-.20863-.48646-.48809-.61985-.80194,2.99992-1.86063,5.99173-3.65546,8.89414-5.33574,.36796-.21246,.81151-.32948,1.24895-.32949m-.00019-1.2c-.6455,.00002-1.2917,.16861-1.84881,.49029-3.05604,1.76921-6.08152,3.58856-9.08028,5.45054-.18391,.11804-.32884,.29316-.40387,.49684-.0732,.20384-.07851,.43258-.01061,.63975,.19653,.60774,.58247,1.15087,1.08828,1.54045,.5058,.38962,1.13293,.61836,1.7692,.65423,.05233,.00263,.10467,.00393,.15706,.00393,.58625,0,1.17233-.1635,1.67108-.46856,1.71925-1.05442,3.44545-2.09459,5.18264-3.11679,.33591-.20057,.7259-.30425,1.11681-.30424,.14554,0,.29123,.01438,.43427,.04347,1.86217,.37514,3.72782,.73619,5.59712,1.08279,.32884,.06056,.663,.09031,.99741,.09031,.92862,0,1.85871-.22946,2.67863-.66565l-5.34881-5.2326c-1.09889-.20734-2.19796-.41815-3.29521-.6361-.23199-.04603-.46835-.06867-.70491-.06866h0Z"/>
  <path class="cls-2" d="M28.87184,32.72824l5.16818,5.05749-1.35106,1.37961-5.34514-5.2326c.10724-.05728,.21264-.11803,.31622-.18226,.45035-.27889,.85789-.62548,1.2118-1.02224Z"/>
  <path class="cls-2" d="M30.85967,18.06347l4.22431-4.01747,1.3313,1.39736-4.54583,4.32141c-.0161-.06421-.03404-.12863-.05197-.19304-.18043-.57534-.51276-1.10074-.9578-1.50826Z"/>
  <path class="cls-1" d="M24.37891,12.30081c.57608,0,1.16392,.24321,1.57124,.64935,.40762,.40763,.65098,.99495,.65098,1.57106,0,.57623-.24336,1.16361-.64975,1.57001-.40854,.40736-.99638,.65056-1.57247,.65056s-1.16281-.24274-1.5694-.64933c-.40762-.40763-.65098-.99501-.65098-1.57124,0-.57611,.24336-1.16343,.65098-1.57105,.40661-.40661,.9933-.64936,1.5694-.64936m0-1.2c-.89704,0-1.78531,.36821-2.41793,1.00083-.63261,.63262-1.00245,1.52619-1.00245,2.41958,0,.89723,.36984,1.78714,1.00245,2.41976,.63262,.63262,1.52089,1.00081,2.41793,1.00081,.89541,0,1.78532-.36819,2.41977-1.00081,.63261-.63262,1.00245-1.52253,1.00245-2.41976,0-.89339-.36984-1.78696-1.00245-2.41958-.63445-.63262-1.52436-1.00083-2.41977-1.00083h0Z"/>
  <path class="cls-1" d="M28.09342,19.62071c.92486,0,1.54295,.60979,1.69578,1.67302,.44743,3.11271,.207,5.67207-.8299,8.83391-.08385,.25568-.17874,.49599-.28426,.72019l-2.8494-2.8126c.33591-1.08191,.64261-2.29279,.72427-3.52327l.18756-2.82628-2.1608,1.83139c-1.10907,.93999-1.75697,1.41727-2.22023,1.41727-.09762,0-.19539-.01938-.32371-.06695-1.2853-.4784-3.95982-1.47389-6.05859-2.58821-.34053-.18052-.47041-.60547-.29079-.94485,.12229-.2298,.36037-.37255,.62133-.37255,.11151,0,.22813,.02909,.32531,.08028,1.27617,.67704,2.99442,1.42399,5.10701,2.22008l.63413,.23896,.5321-.41963c.37082-.29244,.84625-.69799,1.22004-1.01722,1.10241-.94194,2.14369-1.83164,2.95136-2.26021,.0333-.01761,.10084-.04251,.23344-.06114l.07801-.01096,.0759-.02107c.2156-.05982,.42805-.09016,.63144-.09016m0-1.2c-.30936,0-.62921,.0442-.95231,.13386-.21808,.03064-.43249,.08557-.62744,.18866-.92481,.49072-2.0127,1.41992-3.16992,2.40869-.36133,.30859-.82325,.70312-1.1836,.9873-2.06543-.77832-3.73632-1.5039-4.96777-2.15722-.27344-.14405-.58105-.22022-.8877-.22022-.70605,0-1.3496,.38672-1.68066,1.00879-.49023,.92627-.13672,2.07861,.78809,2.56885,2.17773,1.15625,4.90527,2.16992,6.21972,2.65918,.24512,.09082,.48242,.13574,.72461,.13574,.8938,0,1.69806-.60169,2.9961-1.70184-.08704,1.31152-.45435,2.61224-.89588,3.93756l4.41516,4.35815c.56641-.63623,.96045-1.41162,1.22773-2.22662,1.18652-3.61811,1.31536-6.33209,.87744-9.3786-.25309-1.76069-1.45594-2.70228-2.88357-2.70228h0Z"/>
  <polygon class="cls-1" points="12.44434 12.25702 14.51611 7.20087 11.46289 7.97186 11.17969 6.85077 15.87109 5.66718 16.08789 6.5246 13.99365 11.58563 17.29102 10.75409 17.57324 11.87518 12.66016 13.11444 12.44434 12.25702"/>
  <polygon class="cls-1" points="17.96094 7.23456 18.15332 6.37225 22.27832 2.78973 19.20508 2.1037 19.45752 .97528 24.17969 2.02948 23.9873 2.89227 19.83936 6.46991 23.1582 7.21112 22.90625 8.33856 17.96094 7.23456"/>
  <g>
    <path class="cls-1" d="M17.93097,25.83624c-.56396-.23706-1.14154-.49188-1.71606-.76129l.922,1.56201c.07184,.12457,.1947,.2168,.33301,.25177,.13831,.03491,.29108,.01465,.41364-.05847,.12366-.073,.2157-.19476,.25177-.33301,.03491-.13831,.01361-.29114-.05841-.41364l-.14594-.24738Z"/>
    <path class="cls-1" d="M13.47388,20.43011c.0321-.07416,.05237-.1507,.09082-.22333,.15594-.29303,.35828-.54938,.58942-.7724l-1.73535-2.94153c-.07208-.1225-.19592-.21472-.33405-.25171-.13831-.03503-.29004-.01459-.41266,.05853-.12366,.07288-.21582,.19672-.25189,.33496-.03595,.13824-.01349,.28918,.05841,.41364l1.9953,3.38184Z"/>
    <rect class="cls-1" x="1.79824" y="25.36284" width="9.00492" height="1.63115" transform="translate(-12.43402 6.83886) rotate(-30.55717)"/>
    <path class="cls-1" d="M13.24414,21.23511l-.11005-.0412c-.14795-.05389-.30823-.07855-.46545-.06464-.1582,.0119-.31293,.05823-.45099,.13623-.5069,.28485-.99908,.57495-1.49463,.88287-.04126,.02496-.0755,.06262-.09894,.10516-.02161,.04462-.03253,.09412-.02942,.14484,.00323,.04852,.02063,.09631,.04773,.13672l.95245,1.61194c.02264,.04407,.05798,.08313,.10028,.10858,.04321,.02753,.09351,.04156,.14386,.0415,.04938-.00031,.09991-.0144,.14233-.04132,.30914-.19153,.62-.37891,.93451-.56195,.26282-.15271,.56183-.2403,.86426-.255-.44751-.63812-.64343-1.42316-.53595-2.20374Z"/>
  </g>
</svg>