<?xml version="1.0" encoding="UTF-8"?>
<svg id="Ebene_1" data-name="Ebene 1" xmlns="http://www.w3.org/2000/svg" viewBox="0 0 40 40">
  <defs>
    <style>
      .cls-1 {
        fill: #fff;
      }

      .cls-2 {
        fill: none;
        stroke: #fff;
        stroke-width: 1.2px;
      }
    </style>
  </defs>
  <path class="cls-1" d="M12.64518,5.68094c.98766,0,1.99089,.41599,2.68623,1.11536,.69656,.69636,1.11242,1.69956,1.11242,2.68356,0,.9872-.41586,1.99232-1.11267,2.68893-.69468,.69488-1.69878,1.10973-2.68598,1.10973-.98906,0-1.99427-.41485-2.6892-1.10998-.69639-.69619-1.11215-1.70131-1.11215-2.68868,0-.98417,.41576-1.98737,1.11474-2.68615,.69275-.69678,1.69709-1.11277,2.68661-1.11277m0-1.2c-1.30901,0-2.61263,.53636-3.5376,1.46671-.92524,.92497-1.46375,2.22321-1.46375,3.53221,0,1.30874,.53851,2.61236,1.46375,3.53733,.92497,.92524,2.22859,1.46133,3.5376,1.46133,1.30873,0,2.60966-.53609,3.53463-1.46133,.92524-.92497,1.46402-2.22859,1.46402-3.53733,0-1.309-.53878-2.60724-1.46402-3.53221-.92497-.93035-2.2259-1.46671-3.53463-1.46671h0Z"/>
  <path class="cls-1" d="M39.12195,25.56067l-11.95618-1.20172c-.48248-.06561-.75226,.0047-1.07977,.4707l-.67224,.90094c1.34296-.10486,2.46295,.16516,3.29425,.82819,.74609,.5957,1.2002,1.44629,1.3125,2.45996,.19238,1.75098-.7207,3.91797-3.92285,4.27344l-.69141,.07715c-.97205,.10779-1.92999,.21289-2.83917,.31055l10.14166,1.26105c.48242,.06561,.79553-.01599,1.12311-.48199l5.63098-8.02545c.32751-.466,.1416-.80719-.34088-.8728Z"/>
  <path class="cls-1" d="M16.44672,19.51727c1.23425-1.96002,3.00098-3.32745,4.58423-3.32751h.00201c.68646,.00055,1.24713,.27612,1.66638,.81909,.57086,.73932,.81885,1.90222,.73041,3.2171-.04132,.00616-.08289,.01672-.12238,.01282l-4.20087-.41779-2.63861-.26208c.27527,.54767,.56409,1.15637,.86615,1.81891,.45819-.47845,.99823-.76941,1.4837-.72589,.85266,.09296,1.1828,1.1734,.75159,2.40765-.19342,.55377-.51166,1.04199-.87793,1.41284,.2439,.5722,.53802,1.25885,.82178,1.89398,.87518-.09021,1.95917-.21082,2.96289-.3241,.82001-1.1214,1.47791-2.45819,1.85303-3.89716,1.02948-3.94958-.4458-7.1532-3.29523-7.1554h-.00293c-1.83459,.00012-3.78546,1.33453-5.22058,3.33417,.20398,.35626,.41656,.75745,.63635,1.19336Zm4.65424,6.33972c-.1167,.04425-.22821,.0094-.28296-.09039l-.54858-1.30261c.45508-.5954,.83765-1.28888,1.10138-2.04382l.1394-.4035,1.45374,.14697c.03693,.00366,.07159,.00861,.10413,.01581-.41364,1.38409-1.11829,2.66443-1.9671,3.67755Z"/>
  <path class="cls-2" d="M11.44739,23.86108c.64716,1.44727,1.75928,4.02307,2.79279,6.11951,.99493,2.01837,2.02112,2.12756,3.28937,2.06696,1.4823-.07086,6.8681-.68109,8.33636-.84271,1.28308-.14233,2.20874-.67017,2.0675-1.95435-.14233-1.28412-1.29059-1.56726-2.58118-1.42065-1.48108,.16376-5.83826,.67688-7.11334,.76251-.44464-.87219-1.07654-2.35217-1.57098-3.51117-1.09741-2.5705-2.44281-5.60846-3.35168-6.74994-.35046-.44019-1.35254-.84082-1.35254-.84082,0,0-1.26794-.51239-1.84741-.68066-3.74963-1.08899-4.98309,2.50452-5.77057,6.3255-.71191,3.45453-1.51562,8.15039-2.20929,12.89514"/>
  <path class="cls-1" d="M12.19391,36.0304c.23267-1.07452,.52515-2.46735,.82452-4.0033-.22968-.32465-.45166-.69141-.66199-1.11774-.08203-.16644-.16516-.34485-.2478-.51624-.40985,2.20282-.83734,4.237-1.14252,5.63727h1.22778Z"/>
</svg>