<?xml version="1.0" encoding="UTF-8"?>
<svg id="Logos" xmlns="http://www.w3.org/2000/svg" viewBox="0 0 40 40">
  <defs>
    <style>
      .cls-1, .cls-2 {
        fill: #fff;
      }

      .cls-2 {
        isolation: isolate;
        opacity: .5;
      }
    </style>
  </defs>
  <path class="cls-2" d="M20.4748,19.9938c4.76714-.45082,12.59408-7.36813,15.82333-10.40554,.8249-.77694,.57231-1.4132-.56112-1.4132H4.26299c-1.13344,0-1.38762,.63626-.56112,1.4132,3.22925,3.03741,11.05779,9.95473,15.82333,10.40554-4.76714,.45082-12.59408,7.36813-15.82333,10.40554-.8249,.77694-.57231,1.4132,.56112,1.4132h31.47401c1.13343,0,1.38762-.63626,.56112-1.4132-3.22925-3.03741-11.05779-9.95473-15.82333-10.40554Z"/>
  <path class="cls-2" d="M20.32532,19.9938c4.48578-.58031,12.17204-12.73476,14.57-16.70099,.41245-.68262,.09592-1.23895-.7018-1.23895H5.80648c-.79772,0-1.11425,.55633-.7018,1.23895,2.39796,3.96622,10.08422,16.12068,14.57,16.70099-4.48578,.58031-12.17204,12.73476-14.57,16.70099-.41245,.68262-.09592,1.23895,.7018,1.23895h28.38704c.79772,0,1.11425-.55633,.7018-1.23895-2.39796-3.96622-10.08422-16.12068-14.57-16.70099Z"/>
  <path class="cls-1" d="M35.06398,24.47958c-3.21966-1.69775-8.84207-4.22361-14.17673-4.48578,5.33626-.26218,10.95707-2.78803,14.17673-4.48578,1.60024-.84408,1.42439-1.53949-.38367-1.53949H5.31969c-1.80966,0-1.98391,.69701-.38367,1.53949,3.21966,1.69776,8.84207,4.22361,14.17673,4.48578-5.33626,.26218-10.95707,2.78803-14.17673,4.48578-1.60024,.84408-1.42439,1.53949,.38367,1.53949h29.36061c1.80966,0,1.98391-.69701,.38367-1.53949Z"/>
</svg>