<?xml version="1.0" encoding="UTF-8"?>
<svg id="Ebene_1" data-name="Ebene 1" xmlns="http://www.w3.org/2000/svg" viewBox="0 0 40 40">
  <defs>
    <style>
      .cls-1 {
        fill: #fff;
      }

      .cls-2 {
        fill: none;
        stroke: #fff;
        stroke-width: 1.2px;
      }
    </style>
  </defs>
  <g id="E1A0_phone_phone_1" data-name="E1A0 phone phone 1">
    <g id="V2-64">
      <path class="cls-1" d="M5.49276,37.98018v-10.16406l-3.07031,.53125v-1.23828l3.64844-.71484h.92578v11.58593h-1.50391Z"/>
    </g>
  </g>
  <g id="E00A_phone" data-name="E00A phone">
    <path id="V2-5" class="cls-2" d="M13.85478,24.22833c-3.97851-4.18684-8.83125-10.55709-8.99551-12.57364-.18679-2.29675,2.959-7.10907,4.02314-7.62961,1.06414-.52054,7.72354,6.11418,7.28591,7.29221s-1.26775,1.44826-1.9137,2.62891c-.57143,1.04317,.02572,2.38753,3.6301,6.2632,.87316,.93875,1.68125,1.75681,2.76115,2.76115,3.87567,3.60439,5.22,4.20153,6.2632,3.63062,1.18065-.64647,1.45089-1.4766,2.62891-1.91422s7.81274,6.22175,7.29221,7.28591-5.33233,4.20993-7.62961,4.02312c-2.016-.16424-8.38628-5.01644-12.57364-8.99549-1.06941-1.0164-1.88589-1.83918-2.77216-2.77216Z"/>
  </g>
</svg>