<?xml version="1.0" encoding="UTF-8"?>
<svg id="Ebene_1" data-name="Ebene 1" xmlns="http://www.w3.org/2000/svg" viewBox="0 0 40 40">
  <defs>
    <style>
      .cls-1 {
        fill: #fff;
      }

      .cls-2 {
        fill: none;
        stroke: #fff;
        stroke-width: 1.2px;
      }
    </style>
  </defs>
  <g id="E1A1_phone_phone_2" data-name="E1A1 phone phone 2">
    <g id="V2-63">
      <path class="cls-1" d="M2.00897,37.99752v-1.14843l2.98047-2.86719c.32324-.30957,.62077-.60124,.89258-.875,.27246-.27344,.51986-.5345,.74219-.7832,.22267-.24903,.41863-.48796,.58789-.7168,.15874-.21325,.30169-.43781,.42773-.67188,.11111-.20641,.19889-.42455,.26172-.65039,.0584-.21319,.08796-.43324,.08789-.65429,.00402-.29427-.04562-.58681-.14648-.86328-.09334-.25146-.24612-.47661-.44531-.65625-.21991-.19089-.47839-.33213-.75782-.41407-.3519-.10293-.71742-.15167-1.084-.14453-.32813,0-.63868,.01302-.93164,.03906-.28063,.0243-.5597,.06408-.83594,.11915-.25448,.05109-.50561,.11761-.752,.19921-.23322,.07756-.4604,.17222-.67969,.28321v-1.32032c.20018-.11091,.40923-.20499,.625-.28125,.24175-.08523,.48908-.15375,.74023-.20507,.28315-.05823,.56944-.09997,.85743-.125,.30467-.02733,.63279-.041,.98437-.041,.42624-.00352,.85188,.03244,1.27149,.10742,.34831,.06225,.68795,.16585,1.01171,.3086,.27877,.12278,.53596,.28963,.76172,.49414,.20943,.19191,.3868,.4161,.52539,.66406,.14107,.2564,.24373,.53213,.30469,.81836,.06703,.31521,.09978,.63675,.09766,.959,.00108,.3238-.04095,.6463-.125,.959-.08483,.31019-.20337,.61016-.35352,.89453-.15862,.29961-.34152,.58573-.54687,.85547-.21192,.28027-.44695,.56022-.70508,.83984-.25781,.28027-.53581,.56282-.834,.84766-.29785,.28515-.60579,.57615-.92382,.873l-2.01172,1.918h5.96484v1.23824s-7.99211,0-7.99211,0Z"/>
    </g>
  </g>
  <g id="E00A_phone" data-name="E00A phone">
    <path id="V2-5" class="cls-2" d="M13.85478,24.22833c-3.97851-4.18684-8.83125-10.55709-8.99551-12.57364-.18679-2.29675,2.959-7.10907,4.02314-7.62961,1.06414-.52054,7.72354,6.11418,7.28591,7.29221s-1.26775,1.44826-1.9137,2.62891c-.57143,1.04317,.02572,2.38753,3.6301,6.2632,.87316,.93875,1.68125,1.75681,2.76115,2.76115,3.87567,3.60439,5.22,4.20153,6.2632,3.63062,1.18065-.64647,1.45089-1.4766,2.62891-1.91422s7.81274,6.22175,7.29221,7.28591-5.33233,4.20993-7.62961,4.02312c-2.016-.16424-8.38628-5.01644-12.57364-8.99549-1.06941-1.0164-1.88589-1.83918-2.77216-2.77216Z"/>
  </g>
</svg>