<?xml version="1.0" encoding="UTF-8"?>
<svg id="Ebene_1" data-name="Ebene 1" xmlns="http://www.w3.org/2000/svg" viewBox="0 0 40 40">
  <defs>
    <style>
      .cls-1 {
        fill: #fff;
      }

      .cls-2 {
        fill: none;
        stroke: #fff;
        stroke-miterlimit: 10;
        stroke-width: 1.5px;
      }
    </style>
  </defs>
  <rect class="cls-1" x="4.03867" y="5.93725" width="3.96033" height="2.24335"/>
  <rect class="cls-1" x="20.96663" y="6.07602" width="3.96033" height="2.24335"/>
  <g>
    <polygon class="cls-1" points="36.19067 11.29956 28.58258 22.84167 30.0144 22.84167 37.62244 11.29956 36.19067 11.29956"/>
    <path class="cls-1" d="M30.15851,16.88214c.24774-.06415,.48541-.16241,.70605-.29199,.20923-.12378,.39844-.27869,.5611-.45941,.1626-.18152,.30066-.38367,.41052-.6012,.11371-.22766,.19788-.46893,.25061-.7179,.05658-.26532,.08459-.53595,.08356-.80725,.00342-.4046-.05695-.80725-.17889-1.19305-.09772-.31097-.26019-.59515-.46289-.84955l-.89307,.8905c.04742,.10614,.08496,.21667,.1109,.33057,.06207,.26935,.09198,.5451,.08905,.82147,.00269,.27301-.02716,.54535-.08905,.81122-.05096,.2229-.1449,.43365-.27655,.62054-.12268,.16974-.28571,.30627-.47437,.39716-.21497,.09808-.4494,.14594-.68555,.13989-.23468,.00574-.46753-.04211-.68085-.13989-.18939-.09143-.35364-.22778-.47833-.39716-.01526-.02112-.02484-.04547-.03906-.0672l-.84479,.84235c.23071,.23053,.49799,.42157,.80035,.54596,.39453,.15918,.81726,.23663,1.24268,.22772,.28607,.0025,.57135-.03204,.84857-.10278Z"/>
    <path class="cls-1" d="M39.82092,18.81024c-.11035-.35028-.2926-.67365-.53503-.94952-.24719-.27435-.55322-.48932-.89514-.62878-.3974-.15881-.82269-.23608-1.25055-.22736-.41553-.00751-.82812,.06989-1.21271,.22736-.34076,.14246-.64667,.35699-.89673,.62878-.24872,.27539-.43878,.59845-.55872,.94952-.13116,.38312-.19623,.78577-.19226,1.19067-.00366,.40082,.05756,.79956,.18121,1.18079,.11218,.34991,.29572,.67267,.539,.948,.24677,.27319,.55194,.4873,.89282,.6264,.39648,.15796,.82068,.23474,1.24738,.22583,.41687,.00745,.83099-.06934,1.21747-.22583,.34137-.14062,.64777-.35443,.89752-.6264,.24713-.27509,.43561-.59766,.55396-.948,.12994-.37994,.1944-.77924,.19067-1.18079,.00397-.40387-.0564-.80579-.17889-1.19067Zm-1.24896,2.00189c-.05103,.22302-.14496,.4339-.27655,.62097-.12244,.16931-.28485,.3056-.47284,.39679-.21375,.09833-.4472,.1463-.68237,.14026-.23492,.00574-.46802-.04224-.68158-.14026-.18933-.09137-.35352-.2276-.47833-.39673-.13391-.18677-.23047-.39758-.28448-.62097-.06482-.26544-.09607-.53796-.09296-.81122-.0033-.27649,.02795-.55237,.09296-.82111,.05402-.22443,.15057-.43646,.28448-.62451,.12427-.17023,.28851-.30731,.47833-.39911,.43555-.18646,.92847-.18646,1.36401,0,.18835,.09155,.35089,.2287,.47278,.39911,.13159,.18835,.22552,.40039,.27655,.62445,.06274,.2691,.0929,.5448,.08984,.82111,.00287,.27307-.02728,.54547-.08984,.81122Z"/>
  </g>
  <polygon class="cls-1" points="34.79102 31.8244 11.60901 31.8244 10.40637 33.02362 35.99023 33.02362 35.99023 25.01581 34.79102 25.01581 34.79102 31.8244"/>
  <g>
    <polygon class="cls-1" points="8.28265 27.94354 5.00781 27.94354 5.00781 29.14276 7.08008 29.14276 8.28265 27.94354"/>
    <polygon class="cls-1" points="30.80078 27.94354 15.50098 27.94354 14.29834 29.14276 32 29.14276 32 25.01581 30.80078 25.01581 30.80078 27.94354"/>
  </g>
  <g>
    <polygon class="cls-1" points="12.46149 23.77655 1.875 23.77655 1.875 9.112 27.16754 9.112 28.37115 7.9118 .6748 7.9118 .6748 24.97577 11.25885 24.97577 12.46149 23.77655"/>
    <polygon class="cls-1" points="18.47729 24.97577 27.74805 24.97577 27.74805 23.77655 19.67993 23.77655 18.47729 24.97577"/>
  </g>
  <line class="cls-2" x1="34.23743" y1="5.73746" x2="3.5722" y2="36.29107"/>
</svg>