<svg xmlns="http://www.w3.org/2000/svg" viewBox="0 0 40 40"><title>E56E_wifi_saved</title><g id="Icon"><circle cx="19.57968" cy="31.60923" r="2" fill="#fff"/><path d="M37.139,13.92725a24.26565,24.26565,0,0,0-35.11871,0" fill="none" stroke="#fff" stroke-miterlimit="10" stroke-width="1.2"/><rect x="26.5" y="24.5" width="12" height="9" fill="none" stroke="#fff" stroke-miterlimit="10" stroke-width="1.2"/><path d="M27.7,24.80923V21.87576c0-2.168,2.149-3.92556,4.8-3.92556s4.8,1.75753,4.8,3.92556v2.93347" fill="none" stroke="#fff" stroke-miterlimit="10" stroke-width="1.2"/><path d="M32.97968,28.80923v2.88h-1.2v-2.88Z" fill="#fff"/><circle cx="32.37968" cy="27.60923" r="1.6" fill="#fff"/><path d="M28.53894,16.30884a17.60876,17.60876,0,0,0-21.4281,2.70874l.84863.84863a16.37026,16.37026,0,0,1,19.44574-2.807A7.43465,7.43465,0,0,1,28.53894,16.30884Z" fill="#fff"/><path d="M23.84949,22.78784a10.06778,10.06778,0,0,0-11.38562,1.99634l.84863.84961a8.86083,8.86083,0,0,1,10.537-1.49994Z" fill="#fff"/></g></svg>