<svg xmlns="http://www.w3.org/2000/svg" viewBox="0 0 40 40"><defs><style>.cls-1{fill:#fff;}</style></defs><g id="V2"><path class="cls-1" d="M25.88281,25.63379a8.86232,8.86232,0,0,0-12.53515,0L12.5,24.78418a10.06472,10.06472,0,0,1,14.23047,0Z"/><circle class="cls-1" cx="31.5" cy="28.5" r="1.5"/><rect class="cls-1" x="30" y="8" width="3" height="16" rx="1.5"/><circle class="cls-1" cx="19.57968" cy="31.60923" r="2"/><path class="cls-1" d="M28,15.981A17.61471,17.61471,0,0,0,7.14648,19.01758l.84864.84863A16.36263,16.36263,0,0,1,28,17.38245Z"/><path class="cls-1" d="M28.62476,7.51294A24.86631,24.86631,0,0,0,1.58789,13.51123l.86523.832A23.66615,23.66615,0,0,1,28.12958,8.608,3.48,3.48,0,0,1,28.62476,7.51294Z"/><path class="cls-1" d="M35,11.18317v1.55059q.88358.75889,1.706,1.6095l.86524-.832A25.82233,25.82233,0,0,0,35,11.18317Z"/></g></svg>