<svg xmlns="http://www.w3.org/2000/svg" viewBox="0 0 40 40"><title>E573_textinput_btn_hwr_mirrored</title><g id="Icon"><path d="M38.4864,4.3032c-3.099-2.334-12.87282-3.34835-13.29949.27838-.16174,1.37475,5.14326,2.85325,8.97626,6.55025,3.503,3.379,4.45462,7.50174,1.53648,6.95458C29.23027,16.8734,22.3284,4.9572,18.8784,4.9572" fill="none" stroke="#fff" stroke-miterlimit="10" stroke-width="1.2"/><path d="M13.40251,38.6348s.176-3.224-.997-3.494c-1.726-.395-4.216-6.475-4.216-6.475s-1.763-3.497-4.758-4.821c-3.613-1.597-.518-3.413-.518-3.413,2.774-1.672,5.631.131,8.061,2.504.497-.103.382-1.576.382-1.576l.025-15.631c0-1.083.546-2.293,1.686-2.293h.688c1.14,0,1.742,1.21,1.742,2.293l-.008,13.029" fill="none" stroke="#fff" stroke-miterlimit="10" stroke-width="1.2"/><path d="M23.5,17.0366c0-1.688.93816-1.984,2.26316-1.984,1.386,0,1.73684.773,1.73684,1.856v14.192c0,1.305-1.54749,2.574-1.23649,3.922v3.612" fill="none" stroke="#fff" stroke-miterlimit="10" stroke-width="1.2"/><path d="M19.63841,14.9004A1.688,1.688,0,0,1,21.6,13.1264a1.8458,1.8458,0,0,1,1.9,1.774v5.514" fill="none" stroke="#fff" stroke-miterlimit="10" stroke-width="1.2"/><path d="M15.49721,13.4541c.043-1.216,1.146-1.67,2.149-1.67a1.80312,1.80312,0,0,1,1.992,1.67l-.023,6.132" fill="none" stroke="#fff" stroke-miterlimit="10" stroke-width="1.2"/></g></svg>