<svg xmlns="http://www.w3.org/2000/svg" viewBox="0 0 40 40"><title>E577_privacy_high</title><g id="Icon"><path d="M35.81432,23.86863A12.576,12.576,0,0,0,22.94441,36.73854" fill="none" stroke="#fff" stroke-miterlimit="10" stroke-width="1.2"/><circle cx="35.80189" cy="36.72612" r="1.25604" fill="#fff"/><path d="M30.75439,35.396a5.48859,5.48859,0,0,0-.24462,1.5415H31.709a4.30278,4.30278,0,0,1,4.30469-4.30469V31.43359a5.49068,5.49068,0,0,0-1.54144.24457Z" fill="#fff"/><path d="M32.13135,28.07764a9.44222,9.44222,0,0,0-4.97882,4.97882Z" fill="#fff"/><line x1="25.15945" y1="38.06414" x2="38.71211" y2="24.46768" fill="none" stroke="#fff" stroke-miterlimit="10" stroke-width="1.5"/><line x1="1.39638" y1="38.09814" x2="15" y2="24.5" fill="none" stroke="#fff" stroke-miterlimit="10" stroke-width="1.5"/><path d="M3.85425,32.81342l.85687-.85651a3.5851,3.5851,0,0,1-1.31219-2.78113,3.90279,3.90279,0,0,1,3.89843-3.89844,3.85846,3.85846,0,0,1,2.83539,1.26026l.85663-.85626a5.08475,5.08475,0,0,0-8.79065,3.49444A4.81839,4.81839,0,0,0,3.85425,32.81342Z" fill="#fff"/><path d="M6.45074,30.218l1.89179-1.89093a1.35963,1.35963,0,0,0-2.41467.84887A1.32113,1.32113,0,0,0,6.45074,30.218Z" fill="#fff" fill-rule="evenodd"/><path d="M7.82941,34.49506c-.1402.3435-.28546.69934-.42462,1.0401l-.17847-.43732-.92059.92023c.15747.38592.33221.814.54339,1.33154l.55567,1.36133.55566-1.36133s1.12646-2.75977,1.47119-3.60645a5.01254,5.01254,0,0,0,2.86762-3.71606Z" fill="#fff"/><path d="M20.68726,33.288a38.62109,38.62109,0,0,1-3.98755,3.9972A37.87554,37.87554,0,0,1,13.065,33.69342a7.33864,7.33864,0,0,1-.82635.865,35.68026,35.68026,0,0,0,4.09485,3.97766l.3667.28321.36669-.28321a33.96609,33.96609,0,0,0,3.31989-3.138A15.37129,15.37129,0,0,1,20.68726,33.288Z" fill="#fff"/><path d="M30.57715,10.17676A35.73956,35.73956,0,0,1,26.899,23.9588a14.96026,14.96026,0,0,1,1.827-1.08636A36.50251,36.50251,0,0,0,31.7998,9.74268l.01954-.48682-.47168-.11963C20.82373,6.47217,17.20654,2.042,17.1709,1.99707l-.47168-.59082-.46973.59082c-.03564.04443-3.65332,4.4751-14.17676,7.13916l-.47216.11963.02.48682a36.41355,36.41355,0,0,0,2.89428,12.7102,7.38008,7.38008,0,0,1,1.14362-.35571A35.38363,35.38363,0,0,1,2.82275,10.17676c8.6128-2.26465,12.603-5.63184,13.87745-6.918C17.97461,4.54492,21.96484,7.91211,30.57715,10.17676Z" fill="#fff"/></g></svg>