<svg xmlns="http://www.w3.org/2000/svg" viewBox="0 0 40 40"><defs><style>.cls-1{fill:#fff;}.cls-2{fill:none;stroke:#fff;stroke-miterlimit:10;stroke-width:1.2px;}</style></defs><g id="Icon"><g id="V2"><path class="cls-1" d="M25.22974,29.76379A43.76609,43.76609,0,0,1,19.79205,36.092l-.00079-.00159c-.56836.54218-1.02655.94593-1.31909,1.19428-.2926-.24835-.7508-.6521-1.31915-1.19422l-.0008.00153A43.27652,43.27652,0,0,1,7.51,22.32733l.0025-.00018c-.1969-.44916-.38226-.90271-.56006-1.35889-.01861-.04809-.0382-.09515-.05664-.14337q-.27137-.70523-.51288-1.42035c-.00732-.02173-.01373-.04431-.021-.066q-.2221-.6644-.41675-1.33691c-.03131-.10736-.06018-.2168-.09064-.32489-.10833-.38605-.21154-.77344-.3067-1.16285-.02234-.09094-.04394-.18249-.06561-.27392q-.15272-.64764-.282-1.30048c-.00959-.04846-.0196-.09668-.029-.14532a35.39622,35.39622,0,0,1-.57086-4.541c-.00146-.02563-.00439-.05041-.0058-.07605a45.64,45.64,0,0,0,5.6222-1.85565,24.71208,24.71208,0,0,0,8.25476-5.06225,24.71157,24.71157,0,0,0,8.25488,5.062,45.65118,45.65118,0,0,0,5.62231,1.85547c-.0014.02563-.00433.05041-.00579.076a35.39537,35.39537,0,0,1-.57044,4.53968c-.00958.0498-.01983.09918-.02966.1488q-.12791.651-.28113,1.29657c-.022.09253-.04376.18518-.06634.27716-.09522.38983-.19855.77771-.307,1.16413-.03.10662-.05853.21459-.08942.32043q-.19446.6687-.41449,1.33008c-.00836.02508-.01581.051-.02423.076q-.2406.71493-.51257,1.41955c-.01831.04785-.03766.09436-.05609.142-.10749.27582-.22473.5481-.33863.82166h1.29071c.083-.20728.16858-.41138.24884-.62214.06122-.15979.12208-.31958.181-.48016.10693-.29266.209-.59.31005-.889.07-.20709.14161-.41357.20783-.62182.09772-.307.18841-.62006.27917-.93335.05231-.18122.10846-.36127.158-.54328q.19547-.7154.36438-1.45239l.00958-.03863a35.61258,35.61258,0,0,0,.84028-6.0304c.00811-.14508.02252-.28955.02893-.43481l.01953-.48682-.00043-.00012V9.25531l-.47211-.11963A42.21208,42.21208,0,0,1,25.83319,6.611c-4.96875-2.2807-6.86475-4.5816-6.89038-4.61389l-.28-.35083-.19086-.24-.00036.00049-.00043-.00049-.1908.24-.28009.35083c-.02673.03369-2.06793,2.53412-7.52655,4.90625a43.37668,43.37668,0,0,1-6.649,2.23291l-.47217.11963v.00037l-.00043.00012.01959.48688c.00592.13531.01947.26983.02692.405A35.612,35.612,0,0,0,4.241,16.20837l.00946.03833q.16927.73737.36487,1.45386c.04919.18079.105.35968.15692.53967.091.31409.18194.628.27991.93561.0661.20789.13763.41406.20751.62085.1012.29981.20368.598.31092.89136.05865.15979.11926.31885.18017.47784q.23758.624.49121,1.22791l.01093.0274.00049-.00006a43.78639,43.78639,0,0,0,11.852,16.115l.3667.28321.00006-.00007.00006.00007.3667-.28321a41.28432,41.28432,0,0,0,7.17785-7.826Z"/><path class="cls-1" d="M31.42332,28.69021c.9231-.28155,1.69958-1.16788,1.69958-1.68875H28.8771a2.40818,2.40818,0,0,0,1.70135,1.68875A6.57873,6.57873,0,0,1,31,29.99854,7.25462,7.25462,0,0,1,31.42332,28.69021Z"/><path class="cls-1" d="M30.5059,36.64381c-1.29645.2783-2.34473.88422-2.34473,1.399h5.67766c0-.51483-1.05677-1.11356-2.34473-1.399C31.36665,36.61555,31,32.95714,31,32.95714S30.62613,36.618,30.5059,36.64381Z"/><path class="cls-2" d="M26.50834,38.84881a8.53057,8.53057,0,0,1,1.20574-4.39161,4.58729,4.58729,0,0,1,1.413-1.38583,1.94027,1.94027,0,0,0,.87631-1.55876,1.90582,1.90582,0,0,0-.87631-1.59662,4.60971,4.60971,0,0,1-1.48245-1.44706,8.44232,8.44232,0,0,1-1.13626-4.31776m8.98189,0a8.16108,8.16108,0,0,1-1.145,4.34672A4.54174,4.54174,0,0,1,32.87152,29.916a1.85487,1.85487,0,0,0-.88863,1.57081,2.09628,2.09628,0,0,0,.88863,1.58457,5.52052,5.52052,0,0,1,1.39839,1.37017,8.52434,8.52434,0,0,1,1.22032,4.40727"/><path class="cls-2" d="M37,24.5H25"/><path class="cls-2" d="M25,38.5H37"/></g></g></svg>