<svg xmlns="http://www.w3.org/2000/svg" viewBox="0 0 40 40"><g id="E57D_pACA_speed_limits"><path d="M3.57718,10.37861h5.385v2.30786H3.57718Z" fill="#fff" fill-rule="evenodd"/><path d="M6.26953,6.76294A4.76966,4.76966,0,1,1,1.5,11.53247,4.7751,4.7751,0,0,1,6.26953,6.76294m0-1a5.76966,5.76966,0,1,0,5.77,5.76953,5.76948,5.76948,0,0,0-5.77-5.76953Z" fill="#fff"/><line x1="6.26965" y1="16.53288" x2="6.26965" y2="27.30297" fill="#fff" stroke="#fff" stroke-miterlimit="10"/><line x1="34.26586" y1="38.5" x2="31" y2="38.5" fill="none" stroke="#fff" stroke-miterlimit="10" stroke-width="1.2"/><line x1="30.33037" y1="28.40072" x2="28.219" y2="30.51208" fill="none" stroke="#fff" stroke-miterlimit="10" stroke-width="1.2"/><line x1="20.82924" y1="24.46522" x2="20.82924" y2="27.45114" fill="none" stroke="#fff" stroke-miterlimit="10" stroke-width="1.2"/><line x1="11.32811" y1="28.40072" x2="13.43947" y2="30.51208" fill="none" stroke="#fff" stroke-miterlimit="10" stroke-width="1.2"/><line x1="7.39261" y1="38.5" x2="11" y2="38.5" fill="none" stroke="#fff" stroke-miterlimit="10" stroke-width="1.2"/><path d="M39.5,21.827l-2.59068-2.58431L34.368,21.78132l-1.31829-1.31709v5.21829h5.22566L36.9551,24.36563Z" fill="#fff"/><path d="M20.83715,39.5a1.62226,1.62226,0,0,1-1.14186-.47585,1.57252,1.57252,0,0,1-.38964-1.58643l.03972-.12425L15.5599,33.52123,15.117,32.17906l1.36077.46317,3.77872,3.78716.12424-.03634a1.87446,1.87446,0,0,1,.47078-.06846,1.62814,1.62814,0,0,1,1.152.47585,1.55949,1.55949,0,0,1,.46317,1.125A1.60784,1.60784,0,0,1,20.84983,39.5Z" fill="#fff"/><path d="M34.792,37.71a13.98463,13.98463,0,0,0-27.96777,0c0,.06934-.001.14844-.00293.22949-.00195.169.02959.34278.03642.4834l.04374.67148H8.0411L7.99638,38.418c-.00683-.13965-.03935-.31543-.03642-.48438.001-.0791.00195-.15625.00195-.22363a12.847,12.847,0,0,1,25.69239,0c0,.06543.001.13867.002.21484.002.165.00391.35157-.00293.49317l-.04657.67636H34.7464l.04559-.67148c.00684-.14258.00489-.31933.002-.49121C34.793,37.85352,34.792,37.77734,34.792,37.71Z" fill="#fff"/></g></svg>