<svg xmlns="http://www.w3.org/2000/svg" viewBox="0 0 40 40"><g id="E57F_pACA_right_of_way"><path d="M7.33545,7.6593,6.794,10.44824a.616.616,0,0,1-.60352.498H1.69971l-.26026,1.19922h4.751a1.8159,1.8159,0,0,0,1.78125-1.46875L8.55762,7.6593Z" fill="#fff"/><path d="M6.23047,17.16016a.616.616,0,0,1,.125.51367l-.91162,4.36938H6.66846L7.5293,17.918A1.81419,1.81419,0,0,0,5.75293,15.7334H.66113L.40088,16.93262H5.75293A.6148.6148,0,0,1,6.23047,17.16016Z" fill="#fff"/><path d="M14.35693,22.04321h1.22461l-.91162-4.36938a.61591.61591,0,0,1,.60156-.74121h5.36231V16.3125l-.11133-.5791h-5.251A1.81314,1.81314,0,0,0,13.49609,17.918Z" fill="#fff"/><line x1="34.26586" y1="38.5" x2="31" y2="38.5" fill="none" stroke="#fff" stroke-miterlimit="10" stroke-width="1.2"/><line x1="30.33037" y1="28.40072" x2="28.219" y2="30.51208" fill="none" stroke="#fff" stroke-miterlimit="10" stroke-width="1.2"/><line x1="20.82924" y1="24.46522" x2="20.82924" y2="27.45114" fill="none" stroke="#fff" stroke-miterlimit="10" stroke-width="1.2"/><line x1="11.32811" y1="28.40072" x2="13.43947" y2="30.51208" fill="none" stroke="#fff" stroke-miterlimit="10" stroke-width="1.2"/><line x1="7.39261" y1="38.5" x2="11" y2="38.5" fill="none" stroke="#fff" stroke-miterlimit="10" stroke-width="1.2"/><path d="M39.5,21.827l-2.59068-2.58431L34.368,21.78132l-1.31829-1.31709v5.21829h5.22566L36.9551,24.36563Z" fill="#fff"/><path d="M20.83715,39.5a1.62226,1.62226,0,0,1-1.14186-.47585,1.57252,1.57252,0,0,1-.38964-1.58643l.03972-.12425L15.5599,33.52123,15.117,32.17906l1.36077.46317,3.77872,3.78716.12424-.03634a1.87446,1.87446,0,0,1,.47078-.06846,1.62814,1.62814,0,0,1,1.152.47585,1.55949,1.55949,0,0,1,.46317,1.125A1.60784,1.60784,0,0,1,20.84983,39.5Z" fill="#fff"/><path d="M34.792,37.71a13.98463,13.98463,0,0,0-27.96777,0c0,.06934-.001.14844-.00293.22949-.00195.169.02959.34278.03642.4834l.04374.67148H8.0411L7.99638,38.418c-.00683-.13965-.03935-.31543-.03642-.48438.001-.0791.00195-.15625.00195-.22363a12.847,12.847,0,0,1,25.69239,0c0,.06543.001.13867.002.21484.002.165.00391.35157-.00293.49317l-.04657.67636H34.7464l.04559-.67148c.00684-.14258.00489-.31933.002-.49121C34.793,37.85352,34.792,37.77734,34.792,37.71Z" fill="#fff"/><path d="M19.60449,10.94629H14.834a.616.616,0,0,1-.60351-.498L13.68994,7.6593H12.46777l.585,3.01746A1.81592,1.81592,0,0,0,14.834,12.14551h4.99024v-.054Z" fill="#fff"/></g></svg>