<svg xmlns="http://www.w3.org/2000/svg" viewBox="0 0 40 40"><defs><style>.cls-1{fill:#fff;}.cls-2,.cls-3{fill:none;stroke:#fff;stroke-miterlimit:10;}.cls-2{stroke-width:1.2px;}.cls-3{stroke-width:1.2px;}</style></defs><g id="E580_pACA_traffic_lights"><g id="V3"><path class="cls-1" d="M39.5,21.827l-2.59068-2.58431L34.368,21.78132l-1.31829-1.31709v5.21829h5.22566L36.9551,24.36563Z"/><path class="cls-1" d="M7.5,4.6A1.9111,1.9111,0,0,1,9.4,6.5,1.97381,1.97381,0,0,1,7.5,8.4,1.9111,1.9111,0,0,1,5.6,6.5,1.97381,1.97381,0,0,1,7.5,4.6Z"/><path class="cls-1" d="M7.5,10.6a1.9,1.9,0,1,1-1.9,1.9A1.97381,1.97381,0,0,1,7.5,10.6Z"/><path class="cls-1" d="M7.5,16.6a1.9,1.9,0,1,1,0,3.8,1.9,1.9,0,0,1,0-3.8Z"/><rect class="cls-2" x="3.5" y="2.5" width="8" height="20"/><line class="cls-3" x1="34.26586" y1="38.5" x2="31" y2="38.5"/><line class="cls-3" x1="30.33037" y1="28.40072" x2="28.219" y2="30.51208"/><line class="cls-3" x1="20.82924" y1="24.46522" x2="20.82924" y2="27.45114"/><line class="cls-3" x1="11.32811" y1="28.40072" x2="13.43947" y2="30.51208"/><line class="cls-3" x1="7.39261" y1="38.5" x2="11" y2="38.5"/><path class="cls-1" d="M20.83715,39.5a1.62227,1.62227,0,0,1-1.14186-.47585,1.57251,1.57251,0,0,1-.38964-1.58643l.03972-.12425L15.5599,33.52123l-.4429-1.34217,1.36077.46317,3.77872,3.78716.12424-.03634a1.87439,1.87439,0,0,1,.47078-.06846,1.62815,1.62815,0,0,1,1.152.47585,1.55952,1.55952,0,0,1,.46317,1.125A1.60784,1.60784,0,0,1,20.84983,39.5Z"/><path class="cls-1" d="M34.792,37.71a13.98463,13.98463,0,0,0-27.96777,0c0,.06934-.001.14844-.00293.22949-.00195.169.02959.34278.03642.4834l.04374.67147H8.0411L7.99638,38.418c-.00683-.13965-.03935-.31543-.03642-.48438.001-.0791.00195-.15625.00195-.22363a12.847,12.847,0,0,1,25.69239,0c0,.06543.001.13867.002.21484.002.165.00391.35157-.00293.49317l-.04657.67636h1.1396l.04559-.67147c.00684-.14258.00489-.31933.002-.49122C34.793,37.85352,34.792,37.77734,34.792,37.71Z"/></g></g></svg>