<svg xmlns="http://www.w3.org/2000/svg" viewBox="0 0 40 40"><g id="E583_emergency_brake_assist_rear"><polygon points="3.754 9.084 3.754 8.364 0.5 8.364 0.75 9.564 3.503 9.564 3.754 9.084" fill="#fff"/><polygon points="26.594 9.084 26.594 8.364 29.848 8.364 29.597 9.564 26.844 9.564 26.594 9.084" fill="#fff"/><path d="M26.71245,9.59026V8.3383S24.45891,4.5824,22.95655,4.332s-6.25982-.2504-7.76218-.2504-6.25982,0-7.76218.2504C5.92983,4.8328,3.6763,8.3383,3.6763,8.3383v1.252L1.17237,11.09262v9.51493a.91719.91719,0,0,0,1.00157,1.00158H6.18023A1.07708,1.07708,0,0,0,7.1818,20.60755v-1.252H23.20694v1.252a.9172.9172,0,0,0,1.00157,1.00158H28.0126" fill="none" stroke="#fff" stroke-miterlimit="10" stroke-width="1.2"/><path d="M29.21507,11.09262,26.71114,9.59026" fill="none" stroke="#fff" stroke-miterlimit="10" stroke-width="1.2"/><line x1="3.6763" y1="9.59026" x2="26.69329" y2="9.596" fill="none" stroke="#fff" stroke-miterlimit="10" stroke-width="1.2"/><path d="M29.5063,21.9751l3.99748-3.99748,4.66373,1.99874-2.665-4.66373L39.5,8.65016,34.17,11.9814l-1.3325-4.66373-1.99874,5.33H23.51008l6.66246,3.99748Z" fill="#fff" fill-rule="evenodd"/><polygon points="32.432 25.865 30.41 26.202 30.41 27.337 31.959 28.378 33.579 28.401 33.844 27.287 32.432 25.9 32.432 25.865" fill="#fff"/><polygon points="33.697 29.087 32.018 29.028 31.137 31.292 32.254 32.587 34.194 32.422 34.714 30.79 33.721 29.111 33.697 29.087" fill="#fff"/><polyline points="31.782 33.178 30.604 31.705 28.836 31.705 28.281 33.025 28.836 34.651 31.193 34.651 31.782 33.178" fill="#fff"/><polyline points="27.163 26.698 27.158 28.449 28.08 28.496 29.795 27.287 29.795 26.108 28.636 25.519 27.163 26.698" fill="#fff"/><polygon points="28.37 31.363 27.879 29.324 26.954 29.256 26.185 30.232 26.332 31.853 27.761 32.611 28.37 31.363" fill="#fff"/><polyline points="28.836 35.535 29.425 35.24 31.193 35.24 32.813 35.682 30.162 36.271 28.836 35.535" fill="#fff"/><path d="M36.78955,30.82155l-.29457-.58914-1.17828.58914-.50831,1.872.272,1.3835.53091-.30984s.88371-2.062,1.17828-2.9457" fill="#fff"/><polyline points="32.96 25.225 32.875 25.634 34.294 26.965 35.317 26.992 32.96 25.225" fill="#fff"/><path d="M31.11914,25.44543a5.15516,5.15516,0,1,1-5.15527,5.15516,5.161,5.161,0,0,1,5.15527-5.15516m0-.66259A5.81775,5.81775,0,1,0,36.937,30.60059a5.818,5.818,0,0,0-5.81787-5.81775Z" fill="#fff"/><rect x="0.90634" y="12.59497" width="6.09509" height="1.50236" fill="#fff"/></g></svg>