<svg xmlns="http://www.w3.org/2000/svg" viewBox="0 0 40 40"><defs><style>.cls-1{fill:none;stroke-width:1.2px;}.cls-1,.cls-3{stroke:#fff;stroke-miterlimit:10;}.cls-2,.cls-3{fill:#fff;}.cls-3{stroke-width:0.2px;}</style></defs><g id="neu"><path class="cls-1" d="M9.89471,15.34808a5.35005,5.35005,0,0,0,.00007,7.5661"/><path class="cls-1" d="M7.16144,12.61481a9.21538,9.21538,0,0,0,0,13.03271"/></g><g id="Ebene_1" data-name="Ebene 1"><path class="cls-2" d="M28.24849,3.1969c1.95967.05629,5.04431.58,5.96953,1.58027A10.93749,10.93749,0,0,1,35.51242,8.214c.23138,1.274.24347,12.31359.1972,19.01576a26.73981,26.73981,0,0,1-.22555,5.3503,5.60869,5.60869,0,0,0-.24761.94553c-.24955,1.21688-.51923,2.1782-1.499,2.54243a18.04636,18.04636,0,0,1-5.07672.7284l-.20534-.00114-.18392-.00133-.02586-.00051-.02458.0005-.19733.00141-.192.00106a18.04385,18.04385,0,0,1-5.07641-.72845c-1.01237-.37616-1.3217-1.40334-1.5951-2.60654-.06164-.27127-.11649-.51267-.189-.72961-.157-1.09688-.25728-3.04256-.28941-4.5517h2.2187V19.15725l-.05118-.16959-2.15882-4.75837c.01177-.60693.05946-4.965.19843-6.02136a11.164,11.164,0,0,1,1.37846-3.423c.65516-.71607,2.55031-1.29618,4.98508-1.52121.51907-.048.89322-.06328.996-.06683m-.00227-1.20051s-.43934.01094-1.10427.07245c-1.65438.15291-4.70379.61846-5.84589,2.00507a12.39584,12.39584,0,0,0-1.58988,3.92554c-.18229,1.32588-.21875,6.39678-.21875,6.39678l2.21309,4.93818v7.64568h-2.229a49.961,49.961,0,0,0,.33041,6.04658c.3213.80121.38169,3.401,2.57931,4.18206a19.25282,19.25282,0,0,0,5.45052.78766q.10287,0,.20534-.00115c.1349,0,.20919-.00159.20919-.00159s.07425.00159.20915.00159c.06836.00068.13695.00115.20534.00115a19.254,19.254,0,0,0,5.451-.78766c2.19716-.781,2.1648-3.38085,2.4861-4.18206.44708-1.11351.31127-5.83141.31127-5.83141s.12168-17.33632-.216-19.19573a12.19051,12.19051,0,0,0-1.49671-3.92563C33.59577,2.13014,28.24619,1.99638,28.24619,1.99638Z"/><path class="cls-2" d="M28.14819,9.40334a13.47308,13.47308,0,0,0-5.54754,1.05813l1.59995,5.59985a12.68564,12.68564,0,0,1,3.94893-.6544,13.39409,13.39409,0,0,1,4.05083.6544l1.6-5.59985A14.03081,14.03081,0,0,0,28.14819,9.40334Z"/><path class="cls-2" d="M34.11724,30.46086c-.27131-1.05435-1.41675-5.449-1.41675-5.449V18.81757s.89158-2.32608,1.41675-3.55624Z"/><path class="cls-2" d="M28.15049,29.05446a27.25492,27.25492,0,0,1-3.94987-.19356l-.8,4.79984a14.6055,14.6055,0,0,0,4.74758.8,15.3034,15.3034,0,0,0,4.85212-.8l-.8-4.79984A28.73076,28.73076,0,0,1,28.15049,29.05446Z"/><path class="cls-3" d="M19.18452,17.37058l-5.93018,4.98917a.29943.29943,0,0,1-.42031-.04809l-.6344-.7541a.2994.2994,0,0,1,.02444-.42225l6.22545-5.29759Z"/></g></svg>