<svg xmlns="http://www.w3.org/2000/svg" viewBox="0 0 40 40"><g id="E586_vze_trailer"><path d="M3.58388,5.97609H9.40225V8.46968H3.58388Z" fill="#fff" fill-rule="evenodd"/><path d="M6.44238,3.02A4.15228,4.15228,0,1,1,2.29053,7.17224,4.1566,4.1566,0,0,1,6.44238,3.02m0-1.19995a5.35224,5.35224,0,1,0,5.35205,5.35217,5.35237,5.35237,0,0,0-5.352-5.35217Z" fill="#fff"/><line x1="6.49306" y1="11.79446" x2="6.49306" y2="21.76882" fill="none" stroke="#fff" stroke-miterlimit="10" stroke-width="1.2"/><path d="M19.83008,31.572a2.08692,2.08692,0,1,1-2.08692,2.08692A2.08916,2.08916,0,0,1,19.83008,31.572m0-1.19995a3.28687,3.28687,0,1,0,3.28711,3.28687,3.287,3.287,0,0,0-3.28711-3.28687Z" fill="#fff"/><path d="M27.6875,31.572a2.08692,2.08692,0,1,1-2.08691,2.08692A2.08907,2.08907,0,0,1,27.6875,31.572m0-1.19995a3.28687,3.28687,0,1,0,3.28662,3.28687,3.287,3.287,0,0,0-3.28662-3.28687Z" fill="#fff"/><path d="M22,12.5H36.84091A1.89477,1.89477,0,0,1,38.5,14.52093V30.64987A1.73386,1.73386,0,0,1,36.84091,32.5H32.59646V29.801c0-.99016-.70763-1.301-1.69779-1.301H16.46752c-.99016,0-1.96752.31082-1.96752,1.301V32.5H3m7.5.2721V19.53676C10.5,16.51734,12.554,12.5,16.88818,12.5H22" fill="none" stroke="#fff" stroke-miterlimit="10" stroke-width="1.2" fill-rule="evenodd"/></g></svg>