<?xml version="1.0" encoding="UTF-8"?>
<svg id="Ebene_1" data-name="Ebene 1" xmlns="http://www.w3.org/2000/svg" viewBox="0 0 40 40">
  <defs>
    <style>
      .cls-1 {
        fill: #fff;
      }

      .cls-2 {
        fill: none;
        stroke: #fff;
        stroke-miterlimit: 10;
        stroke-width: 1.2px;
      }
    </style>
  </defs>
  <g>
    <path class="cls-1" d="M7.4502,37.92499l-.89355-2.44727H2.25098l-.88965,2.44727H.07715l3.66895-9.6377h1.3584l3.69141,9.6377h-1.3457Zm-2.66113-7.34375c-.07324-.18848-.14453-.38672-.21094-.59473-.06738-.20801-.12305-.42188-.16602-.64355-.0498,.22168-.11035,.43555-.18164,.6416-.07129,.20703-.13965,.40625-.20508,.59668l-1.40332,3.83398h3.55469l-1.3877-3.83398Z"/>
    <path class="cls-1" d="M16.5293,37.60663c-.16699,.07324-.34277,.14062-.52832,.2002-.18457,.05957-.3877,.10938-.60742,.15039s-.45996,.07324-.71973,.09473-.54883,.03223-.86719,.03223c-.43164,0-.83301-.04785-1.2041-.14258-.37207-.0957-.71191-.23633-1.02051-.42285s-.58301-.41895-.82227-.69824-.44141-.60449-.60547-.97363c-.16504-.36914-.29004-.7832-.37598-1.24316-.08496-.45898-.12793-.96191-.12793-1.50781,0-.49609,.04004-.96289,.12012-1.40137,.08008-.43945,.19824-.8418,.35547-1.20898s.35254-.69727,.58691-.98926c.2334-.29297,.50488-.54004,.81348-.74121s.6543-.35645,1.03711-.46484c.38184-.1084,.7998-.16211,1.25293-.16211,.25098,0,.49902,.01172,.74414,.03516,.24414,.02441,.47852,.05859,.70117,.10449,.22363,.04492,.43164,.10156,.62598,.16699,.19336,.06641,.36523,.14062,.51465,.22266v1.08887c-.1582-.07812-.33301-.14844-.52441-.21094-.19238-.06348-.39453-.11719-.60742-.16113-.21387-.04492-.43652-.07812-.66797-.10254-.23242-.02344-.4668-.03613-.70508-.03613-.33398,0-.63965,.03906-.91699,.11621-.27734,.07617-.52539,.19043-.74512,.34082s-.41211,.33594-.5752,.55566c-.16406,.21973-.2998,.47266-.4082,.75879s-.18946,.60352-.24316,.9541c-.05469,.34961-.08203,.72754-.08203,1.13477,0,.45801,.03418,.87109,.10254,1.24219,.06836,.37012,.16602,.7002,.29297,.98926s.2793,.53906,.45996,.74902c.17969,.20996,.38184,.38379,.60547,.52148,.22461,.1377,.46777,.23926,.73145,.30566,.2627,.06543,.54102,.09863,.83301,.09863,.28223,0,.54297-.01074,.78516-.03223,.24121-.02148,.4668-.05273,.67773-.09082,.20996-.03906,.40625-.08691,.58984-.14355,.18261-.05566,.35742-.11914,.52441-.18848v1.05957Z"/>
    <path class="cls-1" d="M18.03568,37.92499l3.78054-10.00781h1.15723l-3.77078,10.00781h-1.16699Z"/>
    <path class="cls-1" d="M24.04466,37.92499v-9.75108h3.11328c.5332,0,1.00977,.05469,1.43164,.16406,.4209,.10938,.79199,.26465,1.1123,.46582,.32031,.20215,.5957,.44629,.82422,.7334s.41406,.6084,.55859,.96484c.14355,.35645,.24902,.74316,.31543,1.16016,.06543,.41699,.09863,.85742,.09863,1.32031,0,.46191-.03418,1.01475-.10254,1.43272-.06738,.41895-.17578,.80664-.32324,1.16406s-.33691,.68066-.57031,.96973c-.23242,.28906-.5127,.53516-.83984,.73926-.32715,.20312-.7041,.36035-1.13184,.4707s-.91211,.16602-1.45117,.16602h-3.03516Zm2.97656-1.00781c.37695,0,.7168-.03809,1.02051-.11523,.30273-.07617,.57324-.18848,.80859-.33594,.23633-.14746,.44043-.33008,.61328-.54785,.17188-.21777,.31348-.4668,.42383-.74707s.19238-.59277,.24512-.93555c.05273-.34375,.08008-.83018,.08008-1.2335,0-.40039-.02637-.77441-.07812-1.12109-.05273-.3457-.13281-.66113-.24219-.94336-.10938-.2832-.24902-.5332-.41797-.75098s-.37207-.40039-.60938-.54883-.50781-.26074-.81348-.33789-.64941-.11523-1.03027-.11523h-1.72559v7.73253h1.72559Z"/>
    <path class="cls-1" d="M39.87402,37.60663c-.16699,.07324-.34277,.14062-.52832,.2002-.18457,.05957-.3877,.10938-.60742,.15039s-.45996,.07324-.71973,.09473-.54883,.03223-.86719,.03223c-.43164,0-.83301-.04785-1.2041-.14258-.37207-.0957-.71191-.23633-1.02051-.42285s-.58301-.41895-.82227-.69824-.44141-.60449-.60547-.97363c-.16504-.36914-.29004-.7832-.37598-1.24316-.08496-.45898-.12793-.96191-.12793-1.50781,0-.49609,.04004-.96289,.12012-1.40137,.08008-.43945,.19824-.8418,.35547-1.20898s.35254-.69727,.58691-.98926c.2334-.29297,.50487-.54004,.81348-.74121,.30859-.20117,.6543-.35645,1.03711-.46484,.38184-.1084,.7998-.16211,1.25293-.16211,.25098,0,.49902,.01172,.74414,.03516,.24414,.02441,.47852,.05859,.70117,.10449,.22363,.04492,.43164,.10156,.62598,.16699,.19336,.06641,.36523,.14062,.51465,.22266v1.08887c-.1582-.07812-.33301-.14844-.52441-.21094-.19238-.06348-.39453-.11719-.60742-.16113-.21387-.04492-.43652-.07812-.66797-.10254-.23242-.02344-.4668-.03613-.70508-.03613-.33398,0-.63965,.03906-.91699,.11621-.27734,.07617-.52539,.19043-.74512,.34082s-.41211,.33594-.5752,.55566c-.16406,.21973-.2998,.47266-.4082,.75879s-.18945,.60352-.24316,.9541c-.05469,.34961-.08203,.72754-.08203,1.13477,0,.45801,.03418,.87109,.10254,1.24219,.06836,.37012,.16602,.7002,.29297,.98926s.2793,.53906,.45996,.74902c.17969,.20996,.38184,.38379,.60547,.52148,.22461,.1377,.46777,.23926,.73145,.30566,.2627,.06543,.54102,.09863,.83301,.09863,.28223,0,.54297-.01074,.78516-.03223,.24121-.02148,.4668-.05273,.67773-.09082,.20996-.03906,.40625-.08691,.58984-.14355,.18262-.05566,.35742-.11914,.52441-.18848v1.05957Z"/>
  </g>
  <g id="E156_001_status_charging" data-name="E156 001 status charging">
    <path class="cls-1" d="M38.84121,5.59355h-7.13378v1.63867h7.13378c.45251,.00158,.82061-.36397,.82219-.81647s-.36397-.82062-.81647-.8222c-.0019,0-.00381,0-.00572,0Z"/>
    <path class="cls-1" d="M38.84121,12.61314h-7.13378v1.63867h7.13378c.45251,.00158,.82061-.36397,.82219-.81647,.00158-.45251-.36397-.82062-.81647-.8222-.0019,0-.00381,0-.00572,0Z"/>
    <path class="cls-2" d="M16.72853,9.65203c-3.57452,0-7.54088-.0231-7.54088,2.88209s3.71428,3.23261,3.71428,6.13779c.09821,2.19954-1.60526,3.77877-3.8048,3.87698-.06973,.00311-.13954,.00439-.20934,.00384H1.36112"/>
    <path class="cls-2" d="M31.38948,16.55454h-7.73508c-3.58224-.01684-6.47257-2.93448-6.45573-6.51673,.00013-.02836,.00045-.05672,.00096-.08507h0c-.12894-3.5169,2.61755-6.47244,6.13445-6.60137,.10673-.00391,.21353-.00514,.32032-.00369h7.73508v13.20686Z"/>
  </g>
</svg>