<?xml version="1.0" encoding="UTF-8"?>
<svg id="Ebene_1" data-name="Ebene 1" xmlns="http://www.w3.org/2000/svg" viewBox="0 0 40 40">
  <defs>
    <style>
      .cls-1 {
        fill: #fff;
      }
    </style>
  </defs>
  <path class="cls-1" d="M7.34613,35.0671l1.31314-1.31513c-7.04702-7.00653-7.07985-18.39917-.07334-25.4462l.05734-.0574-1.31154-1.31547c-7.76506,7.73796-7.78706,20.30563-.04913,28.07073l.06353,.06347Z"/>
  <path class="cls-1" d="M22.60795,11.01516c-.44592,1.42225-1.96038,2.21373-3.38265,1.76779s-2.21373-1.96038-1.76779-3.38264,4.71318-6.01146,4.71318-6.01146c0,0,.88319,6.20406,.43725,7.62632Z"/>
  <path class="cls-1" d="M32.47467,11.01516c-.44592,1.42225-1.96038,2.21373-3.38264,1.76779s-2.21373-1.96038-1.76779-3.38264,4.71318-6.01146,4.71318-6.01146c0,0,.88319,6.20406,.43725,7.62632Z"/>
  <path class="cls-1" d="M31.26489,15.1095c.92303,1.76129,1.45166,3.76166,1.45013,5.88892-.00513,7.01367-5.68896,12.69849-12.70264,12.70465l-.00397,.00006c-7.02032-.00116-12.71124-5.69165-12.71289-12.71198,.00586-5.25598,3.19714-9.76501,7.74701-11.70245,.03723-.20239,.06177-.40515,.12488-.60645,.08337-.26587,.24213-.58221,.43024-.91742-5.53839,1.85138-9.53638,7.06665-9.54431,13.22632v.00488c.00165,7.7077,6.25128,13.95477,13.95898,13.95312,7.70776-.00165,13.95477-6.25128,13.95312-13.95898-.00049-2.29364-.56055-4.45282-1.54248-6.35938-.3623,.20642-.74982,.36591-1.15808,.4787Z"/>
  <path class="cls-1" d="M34.98615,9.72009c-.00983,.82153-.07074,1.53265-.22137,2.01306-.07629,.24335-.17383,.47467-.28198,.69879,3.69531,6.82245,2.66711,15.52429-3.10089,21.28815l1.31659,1.31177c6.8913-6.88776,7.64435-17.57446,2.28766-25.31177Z"/>
  <path class="cls-1" d="M24.65552,22.70076c-.44592,1.42225-1.96038,2.21373-3.38264,1.76779s-2.21373-1.96038-1.76779-3.38264,4.71318-6.01146,4.71318-6.01146c0,0,.88319,6.20406,.43725,7.62632Z"/>
</svg>