<?xml version="1.0" encoding="UTF-8"?>
<svg id="Ebene_1" data-name="Ebene 1" xmlns="http://www.w3.org/2000/svg" viewBox="0 0 40 40">
  <defs>
    <style>
      .cls-1 {
        fill: #fff;
      }

      .cls-2 {
        fill: none;
        stroke: #fff;
        stroke-miterlimit: 10;
        stroke-width: 1.2px;
      }
    </style>
  </defs>
  <path class="cls-2" d="M3.4758,5.3H36.5178c1.20285-.00002,2.18217,.94782,2.1822,2.15068v11.00609c.00002,1.20285-.97926,2.24321-2.18211,2.24324H3.4758c-1.20288,0-2.1758-1.04036-2.1758-2.24324V7.45076c0-1.20288,.97293-2.15076,2.1758-2.15076Z"/>
  <rect class="cls-1" x="4.00906" y="8.00673" width="31.98274" height="9.98674" rx=".726" ry=".726"/>
  <g id="E125-001_automatisches_fernlicht" data-name="E125-001 automatisches fernlicht">
    <path class="cls-1" d="M5.30424,25.00653l-3.81408,9.96878h1.33439l.92579-2.53108h4.47579l.92928,2.53108h1.39814l-3.83756-9.96878h-1.41174Zm-1.16901,6.33886l1.45922-3.966c.06761-.19704,.13865-.40259,.21311-.61665,.07521-.21773,.13834-.43944,.18911-.66413,.0441,.22521,.10168,.44757,.17243,.66588,.06974,.21507,.14287,.42002,.21937,.61486l1.44263,3.96604h-3.69586Zm14.48689,.27889c.0064,.36161-.04272,.72206-.14563,1.06878-.16725,.58605-.62404,1.04496-1.20931,1.21492-.48015,.10508-.97068,.1553-1.46216,.14967-.36921,.00738-.7373-.04312-1.09088-.14967-.28593-.08732-.54628-.24298-.75855-.45351-.20633-.21498-.35855-.47597-.44409-.76141-.10271-.34675-.15164-.7072-.14509-1.06878v-6.60775h-1.30433v6.8296c-.00284,.33878,.03123,.67687,.1016,1.00827,.06104,.28762,.16336,.56491,.30378,.82324,.1326,.2413,.3051,.45841,.51019,.64212,.2153,.19041,.45922,.34576,.72281,.46035,.30157,.13069,.61806,.22383,.94235,.27733,.38396,.06436,.77278,.09537,1.16209,.09267,.50975,.00211,1.0191-.02885,1.52485-.09267,.3242-.05384,.64063-.14697,.9423-.27733,.26507-.11487,.51072-.27017,.72818-.46035,.20707-.18349,.38173-.40057,.51664-.64212,.14255-.25776,.24622-.53517,.30765-.82324,.07021-.33142,.10406-.66951,.10096-1.00827v-6.8296h-1.30343l.00009,6.60775Zm3.14803-5.54892h3.09114v8.89996h1.29718v-8.89996h3.09114v-1.06883h-7.47953l.00006,1.06883Zm17.38121,2.46387c-.06209-.42396-.16864-.84021-.31791-1.24186-.13623-.36789-.32271-.71517-.55412-1.03196-.2243-.30521-.49895-.56998-.81216-.78297-.33401-.2243-.70252-.39234-1.09088-.49743-.45222-.12062-.9188-.17884-1.3868-.17302-.46772-.00593-.93399,.05337-1.38534,.1762-.38825,.10789-.75663,.27752-1.09102,.50239-.31487,.21502-.59073,.4822-.81572,.79003-.23143,.31914-.41896,.66791-.55757,1.03695-.15009,.40217-.25759,.81898-.32072,1.24358-.07029,.46663-.10476,.93795-.10309,1.40984-.00151,.47298,.03251,.9454,.10176,1.41329,.06169,.42397,.16799,.84023,.31714,1.24186,.13676,.36682,.32267,.71338,.55263,1.03019,.22317,.30496,.49659,.56973,.80856,.78298,.33298,.22435,.70059,.39241,1.08811,.49743,.45146,.12082,.91736,.17912,1.38466,.17328,.46776,.00556,.93403-.05384,1.38547-.17647,.38952-.10746,.75908-.27725,1.09434-.5028,.31524-.21491,.59158-.48193,.81718-.78962,.23257-.31838,.42133-.66656,.5612-1.0352,.15174-.40176,.25998-.81863,.32286-1.24347,.13587-.93614,.13635-1.88695,.00141-2.82323h.00001Zm-1.31572,2.53592c-.04188,.33338-.11547,.662-.21978,.9814-.09335,.28644-.22087,.5606-.37981,.81654-.14762,.23666-.33451,.44641-.55265,.62024-.22249,.17437-.47405,.30803-.74307,.39481-.62101,.18584-1.28283,.18584-1.90384,0-.26988-.08688-.52239-.22052-.74601-.39481-.21943-.17346-.40751-.38324-.55607-.62024-.16033-.25539-.2884-.52966-.38127-.81654-.10419-.31934-.1773-.648-.21831-.9814-.08998-.73953-.08998-1.48725,0-2.22678,.04124-.33334,.11435-.66195,.21831-.98133,.09246-.28717,.22055-.56163,.38127-.81694,.14925-.23638,.33723-.44595,.55607-.6199,.22304-.17518,.47572-.3089,.74601-.3948,.62079-.1839,1.28158-.1839,1.90237,0,.27002,.08547,.52229,.21924,.74454,.3948,.21755,.17432,.40435,.38385,.55265,.6199,.15934,.25586,.28688,.5302,.37981,.81694,.10408,.31944,.17768,.64802,.21978,.98133,.09192,.7394,.09169,1.48737,0,2.2268v-.00002Z"/>
  </g>
</svg>