<?xml version="1.0" encoding="UTF-8"?>
<svg id="Layer_1" data-name="Layer 1" xmlns="http://www.w3.org/2000/svg" viewBox="0 0 40 40">
  <defs>
    <style>
      .cls-1, .cls-2 {
        fill: #fff;
      }

      .cls-2 {
        fill-rule: evenodd;
      }

      .cls-3 {
        stroke-width: 1.2px;
      }

      .cls-3, .cls-4 {
        fill: none;
        stroke: #fff;
        stroke-miterlimit: 10;
      }

      .cls-4 {
        stroke-width: 1.2px;
      }
    </style>
  </defs>
  <path class="cls-2" d="M24.95965,14.92838h-.44354c-1.528-.29905-2.62099-1.65162-2.59261-3.20835V6.92003h1.04V3.72003h1.16v3.2h2.74V3.72003h1.16v3.2h1.1v4.8c-.06397,1.60605-1.24742,2.9462-2.83322,3.20835h-1.33063Z"/>
  <path class="cls-3" d="M15.7235,14.72003H5.3235"/>
  <path class="cls-1" d="M1.3235,31.04003H19.7235v1.2H1.3235v-1.2Z"/>
  <path class="cls-3" d="M3.4235,31.32003V6.12003c.02672-.90932,.78476-1.62524,1.69412-1.6H15.92938c.90936-.02524,1.6674,.69068,1.69412,1.6V31.32003"/>
  <g>
    <rect class="cls-1" x="24.97705" y="14.87811" width="1.19873" height="4.90723"/>
    <path class="cls-1" d="M24.97852,24.75281v.1546c.00098,.0127,.10254,1.33789-.57617,2.08691-.30957,.3418-.74121,.5127-1.29688,.52148-.58301-.0127-1.02344-.1875-1.3457-.53516-.69141-.74609-.62891-2.04004-.62695-2.08789v-6.77832c.00586-.86426-.33789-1.68945-.96729-2.32275-.56152-.56543-1.271-.88965-1.95117-.88965l-.52295,.00439,.00977,1.2002,.51807-.00439c.34766,0,.76709,.20508,1.09473,.53516,.2334,.23438,.62354,.7373,.61865,1.47314l.00146,6.74512c-.00488,.07324-.09863,1.80762,.93945,2.93359,.54834,.5957,1.29053,.90723,2.22803,.92578,.91895-.01367,1.65723-.32324,2.19531-.9209,.42572-.47217,.64441-1.04889,.76123-1.56903l-1.07959-1.47229Z"/>
  </g>
  <g id="Icon">
    <polygon class="cls-4" points="38.11735 21.58552 24.88735 21.58552 30.27735 28.93552 30.27735 37.26552 32.72735 35.06052 32.72735 28.93552 38.11735 21.58552"/>
  </g>
</svg>