<?xml version="1.0" encoding="UTF-8"?>
<svg id="Layer_1" data-name="Layer 1" xmlns="http://www.w3.org/2000/svg" viewBox="0 0 40 40">
  <defs>
    <style>
      .cls-1 {
        fill: #fff;
      }

      .cls-2 {
        stroke-linecap: round;
      }

      .cls-2, .cls-3, .cls-4 {
        fill: none;
        stroke: #fff;
        stroke-miterlimit: 10;
      }

      .cls-2, .cls-4 {
        stroke-width: 1.2px;
      }

      .cls-3 {
        stroke-width: 1.2px;
      }
    </style>
  </defs>
  <circle class="cls-4" cx="19.99033" cy="20.95167" r="8.5"/>
  <circle class="cls-4" cx="19.99033" cy="20.95167" r="8.5"/>
  <path class="cls-2" d="m14.92182,18.81604c.6573-1.55398,2.00927-2.74555,3.66442-3.1829"/>
  <line class="cls-3" x1="12.17033" y1="17.6" x2="1.71033" y2="17.6"/>
  <line class="cls-3" x1="38.49033" y1="17.6" x2="27.58776" y2="17.6"/>
  <path class="cls-3" d="m1.49033,13.46695v17.8274c0,1.16902.94768,2.1167,2.1167,2.1167h32.76659c1.16902,0,2.1167-.94768,2.1167-2.1167V13.46695c0-1.16902-.94768-2.1167-2.1167-2.1167h-7.40847l-2.54148-3.04756c-.40214-.46916-.9892-.73917-1.60712-.73917h-9.65245c-.61792,0-1.20499.27001-1.60712.73917l-2.54148,3.04756H3.60704c-1.16902,0-2.1167.94768-2.1167,2.1167Z"/>
  <circle class="cls-1" cx="32.47132" cy="14.51368" r="1.29549"/>
</svg>