<?xml version="1.0" encoding="UTF-8"?>
<svg id="Layer_1" data-name="Layer 1" xmlns="http://www.w3.org/2000/svg" viewBox="0 0 40 40">
  <defs>
    <style>
      .cls-1, .cls-2 {
        fill: #fff;
      }

      .cls-2 {
        fill-rule: evenodd;
      }

      .cls-3 {
        stroke-linejoin: round;
        stroke-width: 1.35px;
      }

      .cls-3, .cls-4 {
        fill: none;
        stroke: #fff;
      }

      .cls-4 {
        stroke-miterlimit: 10;
        stroke-width: 1.2px;
      }
    </style>
  </defs>
  <polygon class="cls-1" points="4.509 24.454 4.509 23.734 1.728 23.734 1.929 24.934 4.307 24.934 4.509 24.454"/>
  <polygon class="cls-1" points="23.094 24.454 23.094 23.734 25.875 23.734 25.673 24.934 23.296 24.934 23.094 24.454"/>
  <rect class="cls-1" x="2.5" y="26.9191" width="4.5" height="1.2"/>
  <rect class="cls-1" x="20" y="26.9191" width="4.5" height="1.2"/>
  <path class="cls-4" d="M22.9752,24.83825v-1.008s-1.81434-3.02391-3.02391-3.2255-5.03985-.2016-6.24941-.2016-5.03985,0-6.24941,.2016c-1.20957,.40319-3.02391,3.2255-3.02391,3.2255l.2006,.88761-2.21654,1.32996v7.66057c-.03943,.40592,.25766,.76695,.66358,.80638,.04748,.00461,.0953,.00461,.14279,0h3.22551c.43259-.0294,.77697-.37379,.80637-.80638v-1.20839h12.902v1.20839c-.03943,.40592,.25766,.76695,.66358,.80638,.04749,.00461,.09531,.00461,.1428,0h2.54075c.49786,.05023,.94357-.30919,1-.80638v-7.66057l-1.80783-1.43309"/>
  <line class="cls-4" x1="4.43574" y1="24.49769" x2="22.96696" y2="24.50231"/>
  <path class="cls-2" d="M28,7h5v3h-5v-3Z"/>
  <line class="cls-4" x1="30.5" y1="17.67723" x2="30.5" y2="31"/>
  <path class="cls-3" d="M31.24271,17.42976l7.38872-12.65767c.33466-.57331-.07886-1.29353-.74271-1.29353h-14.77744c-.66384,0-1.07737,.72021-.74271,1.29353l7.38872,12.65767c.3319,.56859,1.15351,.56859,1.48541,0Z"/>
</svg>