<?xml version="1.0" encoding="UTF-8"?>
<svg id="Layer_1" data-name="Layer 1" xmlns="http://www.w3.org/2000/svg" viewBox="0 0 40 40">
  <defs>
    <style>
      .cls-1 {
        fill: #fff;
      }

      .cls-2 {
        fill: none;
        stroke: #fff;
        stroke-miterlimit: 10;
        stroke-width: 1.2px;
      }
    </style>
  </defs>
  <path class="cls-1" d="M23.87805,22H1.6001c-.2207,0-.3999-.17969-.3999-.40039V7.6001c0-.2207,.1792-.3999,.3999-.3999H38.40039c.2168,0,.40039,.18311,.40039,.3999v13.99951c0,.03815-.01178,.07269-.02179,.10767,.26318,.33221,.5014,.68402,.71826,1.0506,.30792-.29175,.50275-.70172,.50275-1.15826V7.6001c0-.88232-.71777-1.6001-1.59961-1.6001H1.6001c-.88232,0-1.6001,.71777-1.6001,1.6001v13.99951c0,.88184,.71777,1.59961,1.6001,1.59961H23.12939c.21887-.42041,.47095-.81915,.74866-1.19922Z"/>
  <g>
    <path class="cls-2" d="M31.4478,25.66196c.95739-.00512,1.73767,.76685,1.74279,1.72424s-.76685,1.73767-1.72424,1.74279c-.95739,.00512-1.73766-.76684-1.74279-1.72423v-.00956c-.00274-.95447,.76877-1.73046,1.72324-1.73324h.001Z"/>
    <path class="cls-1" d="M39.261,26.5853c-.01371-.0355-.01904-.07368-.01557-.11157-.02679-.21027-.06179-.41781-.105-.62262-.00254-.01064-.00576-.0211-.00964-.03132-.03815-.17822-.08112-.35449-.13092-.52771-.03493-.12227-.15466-.20006-.28058-.18231l-.741,.10559c-.11616,.01697-.22869-.04836-.27154-.15765l-.01789-.04419c-.01532-.0387-.03076-.07727-.04675-.11554-.01209-.02893-.02454-.05768-.03693-.08636-.00866-.0199-.01678-.0401-.02563-.05988l-.00611-.012c-.06542-.14624-.13557-.28965-.21044-.43024l-.01453-.024-.04871-.07232-.03192-.07044-.01288-.02508c-.10388-.1792-.2158-.35316-.33575-.52186l-.00812-.01269c-.03912-.05481-.07906-.10899-.11981-.16254-.06615-.09288-.06178-.21859,.01068-.30664l.48071-.58679c.07983-.09775,.07607-.23921-.00885-.33258-.13988-.1546-.2858-.3036-.43774-.447-.03524-.01933-.06516-.04707-.0871-.08075-.13946-.12763-.2836-.24997-.43243-.367l-.0069-.00653-.01733-.01312-.02124-.01727-.01-.00641c-.14862-.11548-.30078-.22644-.45746-.33112-.10533-.07074-.24665-.05322-.33154,.04108l-.503,.56079c-.07803,.08763-.20615,.10994-.3092,.05383l-.001-.00054c-.05963-.03284-.11985-.0648-.18066-.09589l-.00653-.0033c-.03839-.01959-.0766-.03943-.11542-.05829l-.02246-.00952c-.14032-.06756-.283-.131-.42828-.18878l-.0268-.00915-.077-.022-.07253-.03463-.02607-.01087c-.19232-.06915-.38887-.12968-.58966-.18158l-.01782-.00555c-.06848-.01758-.13736-.03406-.20666-.04944-.10941-.02928-.18588-.1279-.187-.24115l-.00885-.75324c-.00158-.12357-.09362-.22724-.21612-.24346-.0993-.01333-.19926-.02481-.29987-.03443-.1098-.01037-.21928-.01834-.32843-.02392-.01795-.00075-.03593,.00037-.05365,.00335-.01912-.00578-.03888-.00922-.05883-.01025-.1001-.004-.20069-.00603-.30176-.0061-.08539,0-.17029,.00189-.255,.00469-.00647-.00024-.01275-.00128-.01928-.00109-.10016,.00341-.20065,.00875-.30146,.016-.11,.00806-.21927,.01842-.32782,.03107-.12549,.01415-.22168,.1181-.22607,.24432l-.0246,.74567c-.00348,.11663-.08642,.21569-.20062,.23962-.06952,.01392-.13863,.02892-.20734,.045l-.00055,.00012c-.04388,.01026-.08789,.02027-.13147,.03138l-.02368,.00732c-.15167,.03919-.30119,.08324-.44855,.13214l-.0263,.01032-.0733,.033-.07685,.02014-.027,.00848c-.19274,.07178-.3813,.15214-.56567,.24109l-.01916,.00806c-.0636,.03082-.12663,.06258-.18909,.09527-.1026,.04796-.2246,.02163-.29828-.06439l-.47516-.553c-.08307-.09628-.22439-.11662-.33124-.04767-.17688,.11365-.34894,.23413-.51617,.36145-.02481,.02849-.05573,.05103-.09045,.06592-.13953,.10944-.2743,.22449-.406,.3429-.01229,.00774-.02389,.01652-.03467,.02624-.15558,.14148-.3052,.2889-.44885,.44226-.08631,.09163-.09282,.23254-.01532,.33173l.45087,.57477c.07233,.09156,.0725,.22075,.00042,.3125l-.01153,.01495c-.03748,.04743-.07433,.09536-.11054,.1438l-.01349,.01831c-.02362,.03186-.0476,.06342-.07067,.09576l-.01282,.02c-.09033,.12738-.17676,.25757-.25812,.39112l-.01343,.02478-.03308,.069-.04986,.07068-.01508,.02374c-.10309,.1825-.19775,.3704-.284,.56372l-.002,.004c-.02618,.05859-.05149,.11767-.07593,.17724-.04531,.10804-.15898,.17072-.27453,.15137l-.69977-.115c-.12556-.0204-.24693,.05494-.28436,.17651-.06275,.202-.11754,.40759-.16437,.61676-.00141,.03434-.0097,.06804-.02436,.09912-.03625,.17267-.06542,.34791-.09014,.52454-.00419,.01317-.0073,.02667-.00928,.04035-.0282,.20959-.048,.42144-.05939,.63555-.00697,.1255,.07854,.23736,.20148,.26355l.69885,.1471c.11414,.02377,.19721,.12254,.20105,.23907l.00147,.02832c.002,.0561,.00531,.11182,.0086,.16761,.00177,.02978,.00244,.05944,.00464,.08935l.002,.02143,.00135,.02313,.0028,.02142c.01313,.15753,.03071,.3136,.05426,.46759l.00544,.02673,.01892,.07355,.00775,.092,.00378,.0282c.03882,.20697,.08715,.41071,.145,.61121l.00171,.00732c.016,.05591,.03314,.11139,.0506,.16669l.00134,.00439c.03503,.11202-.01172,.23342-.11285,.293l-.6,.35584c-.10908,.06501-.15368,.20039-.10461,.3175,.08288,.19928,.17362,.39447,.27222,.58557,.01902,.02505,.03339,.05331,.04242,.08344,.08569,.16131,.178,.31848,.27429,.4729l.01184,.02319c.01147,.01819,.0238,.03577,.0354,.05383l.00458,.00745,.00219,.00281c.10273,.15991,.21009,.31647,.32373,.468,.07524,.1009,.21287,.13178,.324,.07269l.62079-.3316c.10245-.05515,.22932-.03318,.30725,.05322,.01636,.01831,.03332,.036,.0498,.05414l.05085,.05511c.02771,.02966,.05571,.05906,.084,.0882l.03259,.03424,.00885,.00818c.11243,.11407,.22833,.22461,.34851,.33038l.02191,.01746,.06672,.04779,.06414,.06463,.02076,.01892c.20698,.1705,.42396,.32848,.64978,.47309,.09822,.06352,.14001,.18616,.101,.29644l-.23206,.6615c-.04158,.11936,.01057,.25116,.12256,.30976,.19074,.10046,.38618,.19323,.58631,.27832,.02984,.00603,.05834,.01745,.0841,.03369,.17554,.0722,.35474,.13721,.53638,.1969l.00134,.00055,.00342,.001c.023,.00757,.04565,.01612,.06873,.02344l.02807,.00617c.17261,.05419,.347,.10394,.52417,.14624,.12287,.02974,.24899-.03503,.29639-.15223l.26288-.65429c.04311-.10829,.15475-.173,.27014-.15656,.032,.00464,.06421,.00836,.09637,.01258l.01886,.0025c.06073,.00781,.12173,.01477,.183,.02087l.00921,.0011,.00238,.00012c.16162,.016,.32453,.02692,.489,.03119,.00927,.00025,.01867,0,.028-.00067l.087-.00647,.08777,.0083c.00927,.00086,.01861,.00128,.028,.00122,.26714-.00153,.53394-.01897,.799-.05224,.11581-.0141,.22622,.05296,.26709,.16223l.25293,.67047c.04478,.11785,.16895,.18529,.29218,.15869,.21179-.04504,.42059-.09859,.6264-.16064,.01682-.0052,.03305-.01211,.04846-.02063,.01389-.00187,.0276-.00485,.041-.00892,.20667-.06474,.40951-.13768,.60852-.21881,.01044-.00455,.02058-.00979,.03033-.01568,.167-.06873,.33161-.14173,.49237-.22126,.11379-.05589,.16919-.18693,.13-.30749l-.22284-.68127c-.03666-.11097,.0076-.2326,.107-.29407,.02655-.0163,.05249-.03333,.0788-.04993l.02527-.016c.04779-.03046,.09513-.06151,.142-.09314l.014-.00922,.00354-.00268c.13483-.0915,.26616-.18744,.394-.28784l.02112-.0185,.06568-.0636,.06823-.04687,.02228-.017c.16108-.1361,.31553-.27964,.46338-.4306l.00214-.002,.02411-.02533c.03149-.03247,.06317-.06481,.094-.0979,.0797-.08482,.20705-.10418,.30835-.04687l.64294,.36127c.10971,.06134,.24775,.03357,.3252-.06543,.13165-.16734,.25659-.34019,.37482-.51856,.0117-.0326,.02994-.06246,.05358-.08777,.11533-.17895,.22345-.36277,.32435-.55145,.00689-.013,.01263-.02658,.01715-.04059,.08258-.15643,.16119-.31512,.23321-.47729,.05199-.11614,.01033-.25284-.09759-.32025l-.62287-.38752c-.09979-.0617-.14398-.18398-.10669-.29522l.01142-.03528c.01385-.04152,.02732-.08316,.0404-.12494l.02417-.07953c.00629-.0213,.01319-.0423,.01929-.06372l.00336-.0144c.04358-.15253,.08258-.307,.11529-.46351l.0044-.02807,.00982-.09259,.02069-.074,.006-.02667c.03033-.17419,.05411-.35083,.07135-.52991,.00231-.025,.00335-.04986,.00543-.07482l.00335-.0257c.00275-.03546,.00409-.07129,.00629-.10687,.00159-.025,.00421-.05024,.00549-.0752,.00632-.11643,.09149-.21342,.20612-.23474l.74152-.13971c.12357-.0236,.21146-.13379,.207-.25952-.00697-.21188-.02235-.42183-.04613-.62986Zm-7.78179,6.85194c-3.27094,.01749-5.93677-2.61992-5.95432-5.89087l-.00006-.03264c-.00939-3.26107,2.62662-5.91229,5.88769-5.92168h.00328c3.27096-.01752,5.9368,2.61991,5.95432,5.89087,.01752,3.27096-2.61991,5.9368-5.89087,5.95432h-.00004Z"/>
  </g>
</svg>