<?xml version="1.0" encoding="UTF-8"?>
<svg id="Layer_1" data-name="Layer 1" xmlns="http://www.w3.org/2000/svg" viewBox="0 0 40 40">
  <defs>
    <style>
      .cls-1 {
        fill: #fff;
      }

      .cls-2 {
        fill: none;
        stroke: #fff;
        stroke-miterlimit: 10;
        stroke-width: 1.2px;
      }
    </style>
  </defs>
  <polygon class="cls-1" points="2.00042 27.99979 9.25525 25.00486 2.02742 17.31404 2.00042 27.99979"/>
  <polygon class="cls-1" points="37.99958 10.00421 30.74475 12.99914 37.97258 20.68996 37.99958 10.00421"/>
  <path class="cls-1" d="M35.86035,17.89502c-.42871-6.125-4.40723-11.51172-10.13574-13.72363-3.96289-1.52979-8.2832-1.42432-12.16748,.2959-3.88379,1.72021-6.86523,4.8501-8.39502,8.81299l-1.11914-.43262c1.64502-4.26123,4.85107-7.62744,9.02832-9.47754,4.17627-1.8501,8.82422-1.96338,13.08496-.31787,6.16113,2.37842,10.43945,8.17188,10.90137,14.75879l-1.19727,.08398Z"/>
  <path class="cls-1" d="M26.5,22.83026c-.15167,.01373-.30249,.03186-.45801,.02618H13.69727c-.12549,.00293-.25439-.00195-.38037-.01172-.90527-.0791-1.72559-.50488-2.31006-1.20117-.58447-.6958-.86328-1.57764-.78662-2.46289,.22559-1.8667,1.81152-3.2334,3.70557-3.20898h1.62939l.15918-.35498c.86865-1.94189,2.41797-3.05518,4.25-3.05518,1.77881,0,3.40674,1.17041,4.24951,3.05518l.15918,.35498h1.88184c.10449,0,.20801,.00439,.31348,.01416,.93262,.0835,1.77637,.5249,2.37695,1.24365s.88477,1.62793,.80371,2.5376c-.16272,1.26074-1.00201,2.27954-2.11456,2.77002h2.0401c.66541-.70923,1.13458-1.61206,1.26685-2.63965,.1123-1.25195-.26953-2.47266-1.0752-3.43701-.80566-.96484-1.93848-1.55762-3.18945-1.66992-.13965-.0127-.28027-.01904-.42188-.01904h-1.11523c-1.08203-2.11328-3.03418-3.41016-5.17529-3.41016-2.1748,0-4.08496,1.26709-5.17578,3.41016h-.85107c-2.46582-.03223-4.6084,1.78467-4.91064,4.28564-.10645,1.22412,.27051,2.41748,1.06104,3.35791,.79053,.94141,1.90039,1.51855,3.12646,1.625,.1709,.01465,.34375,.01953,.49854,.01562h12.30176c.07227,.00293,.14355,.00488,.21484,.00488,.09198,0,.17957-.01996,.27051-.02533v-1.20496Z"/>
  <path class="cls-1" d="M31.17334,31.68164c.00244-.00195,.0293-.04395,.03125-.0918-.28363-.17004-.54547-.3681-.79663-.57782-4.30554,3.71594-10.46881,5.0083-16.13257,2.82098-5.72803-2.21191-9.70703-7.59863-10.13623-13.72412l-1.19727,.08398c.46191,6.5874,4.74072,12.38037,10.90088,14.75928,2.01855,.7793,4.0957,1.14844,6.13965,1.14844,3.41083,0,6.72797-1.02979,9.52484-2.89526,.47644-.61407,1.03723-1.13086,1.66608-1.52368Z"/>
  <g id="Icon">
    <g id="V2">
      <path class="cls-1" d="M34.42332,28.82654c.9231-.28155,1.69958-1.16788,1.69958-1.68875h-4.2458c.22675,.82524,.87444,1.46814,1.70135,1.68875,.18582,.42019,.3271,.8587,.42155,1.30833,.09936-.44853,.24111-.88661,.42332-1.30833Z"/>
      <path class="cls-1" d="M33.5059,36.78014c-1.29645,.2783-2.34473,.88422-2.34473,1.399h5.67766c0-.51483-1.05677-1.11356-2.34473-1.399-.12745-.02826-.4941-3.68667-.4941-3.68667,0,0-.37387,3.66086-.4941,3.68667Z"/>
      <path class="cls-2" d="M29.50834,38.98514c-.00348-1.54609,.41328-3.06405,1.20574-4.39161,.36455-.55926,.84677-1.0322,1.413-1.38583,.52839-.34599,.85532-.92751,.87631-1.55876-.00245-.64638-.33235-1.24746-.87631-1.59662-.59754-.36363-1.10449-.85848-1.48245-1.44706-.75937-1.31121-1.15184-2.80262-1.13626-4.31776m8.98189,0c.03274,1.52752-.36398,3.03356-1.145,4.34672-.37704,.5786-.88106,1.0636-1.47374,1.41811-.54814,.33449-.88429,.92869-.88863,1.57081,.04006,.63577,.36704,1.21884,.88863,1.58457,.54404,.36976,1.01762,.83378,1.39839,1.37017,.8006,1.33052,1.22256,2.85445,1.22032,4.40727"/>
      <path class="cls-2" d="M40,24.63633h-12"/>
      <path class="cls-2" d="M28,38.63633h12"/>
    </g>
  </g>
</svg>