<?xml version="1.0" encoding="UTF-8"?>
<svg id="Layer_1" data-name="Layer 1" xmlns="http://www.w3.org/2000/svg" viewBox="0 0 40 40">
  <defs>
    <style>
      .cls-1 {
        fill: #fff;
      }

      .cls-2 {
        stroke-width: 1.19997px;
      }

      .cls-2, .cls-3 {
        fill: none;
        stroke: #fff;
        stroke-miterlimit: 10;
      }

      .cls-3 {
        stroke-width: 1.2px;
      }
    </style>
  </defs>
  <g id="E789_boardbook_updates" data-name="E789 boardbook updates">
    <polygon class="cls-1" points="2.00042 28.99979 9.25525 26.00486 2.02742 18.31404 2.00042 28.99979"/>
    <path class="cls-2" d="M35.39738,25.94031c-3.28231,8.50238-12.83569,12.73409-21.33807,9.45179-5.97147-2.30526-10.07119-7.8558-10.51874-14.24113"/>
    <polygon class="cls-1" points="37.99958 11.00421 30.74475 13.99914 37.97258 21.68996 37.99958 11.00421"/>
    <path class="cls-2" d="M4.60262,14.06377C7.88493,5.56138,17.43831,1.32968,25.94069,4.61199c5.97147,2.30526,10.07119,7.8558,10.51873,14.24113"/>
  </g>
  <g id="Icon">
    <path class="cls-3" d="M24.76186,16.37151c-.8609-1.92394-2.64204-3.41021-4.79766-3.41021-2.2633,0-3.93675,1.48627-4.79764,3.41021h-1.2406c-2.18058-.04292-4.0395,1.57216-4.30161,3.73735-.1913,2.20199,1.43868,4.14214,3.64067,4.33344,.14899,.01294,.29859,.01753,.4481,.01373h12.32925c2.15549,.09892,4.0264-1.47221,4.30161-3.61235,.20254-2.25829-1.46398-4.25319-3.72227-4.45573-.12183-.01093-.24409-.0164-.3664-.01641h-1.49345v-.00003Z"/>
  </g>
</svg>