<?xml version="1.0" encoding="UTF-8"?>
<svg id="Layer_1" data-name="Layer 1" xmlns="http://www.w3.org/2000/svg" viewBox="0 0 40 40">
  <defs>
    <style>
      .cls-1 {
        fill: #fff;
      }

      .cls-2 {
        stroke: #96ff00;
        stroke-width: 1.2px;
      }

      .cls-2, .cls-3, .cls-4 {
        fill: none;
      }

      .cls-3 {
        stroke-width: 1.19997px;
      }

      .cls-3, .cls-4 {
        stroke: #fff;
        stroke-miterlimit: 10;
      }

      .cls-4 {
        stroke-width: 1.2px;
      }
    </style>
  </defs>
  <polygon class="cls-1" points="2.00042 28.99979 9.25525 26.00486 2.02742 18.31404 2.00042 28.99979"/>
  <polygon class="cls-1" points="37.99958 11.00421 30.74475 13.99914 37.97258 21.68996 37.99958 11.00421"/>
  <path class="cls-3" d="M4.60262,14.06377C7.88493,5.56138,17.43831,1.32968,25.94069,4.61199c5.97147,2.30526,10.07119,7.8558,10.51873,14.24113"/>
  <path class="cls-1" d="M21.97449,35.77216c-2.52588,.32037-5.16272,.04041-7.6991-.93915-5.72803-2.21191-9.70703-7.59863-10.13623-13.72363l-1.19727,.08398c.46191,6.58691,4.74072,12.37988,10.90088,14.75879,2.01855,.7793,4.0957,1.14844,6.13965,1.14844,.98975,0,1.96948-.09631,2.93317-.26477l-.9411-1.06366Z"/>
  <path class="cls-2" d="M23.00912,32.75768l4.948,5.77175,11.13429-15.34429"/>
  <g id="Icon">
    <path class="cls-4" d="M24.76186,16.37151c-.8609-1.92394-2.64204-3.41021-4.79766-3.41021-2.2633,0-3.93675,1.48627-4.79764,3.41021h-1.2406c-2.18058-.04292-4.0395,1.57216-4.30161,3.73735-.1913,2.20199,1.43868,4.14214,3.64067,4.33344,.14899,.01294,.29859,.01753,.4481,.01373h12.32925c2.15549,.09892,4.0264-1.47221,4.30161-3.61235,.20254-2.25829-1.46398-4.25319-3.72227-4.45573-.12183-.01093-.24409-.0164-.3664-.01641h-1.49345v-.00003Z"/>
  </g>
</svg>