<?xml version="1.0" encoding="UTF-8"?>
<svg id="Ebene_1" data-name="Ebene 1" xmlns="http://www.w3.org/2000/svg" viewBox="0 0 40 40">
  <defs>
    <style>
      .cls-1, .cls-2 {
        fill: #fff;
      }

      .cls-2 {
        fill-rule: evenodd;
      }

      .cls-3 {
        fill: #969696;
      }

      .cls-4 {
        fill: none;
        stroke: #fff;
        stroke-width: 1.2px;
      }
    </style>
  </defs>
  <polygon class="cls-2" points="25 18 25 13 30 13 29.979 17.976 25 18"/>
  <polygon class="cls-2" points="19.5 2.232 24.174 10 14.826 10 19.5 2.232"/>
  <path class="cls-4" d="M19.48484,25.45273c2.01945-.59424,4.00311-1.30399,5.94116-2.12573,2.21182-.99268,2.074-4.11909,2.074-4.11909v-3.29044"/>
  <path class="cls-4" d="M19.5,9.1719v27.86223"/>
  <circle class="cls-1" cx="11.5" cy="18.5" r="2.54969"/>
  <circle class="cls-1" cx="19.48024" cy="35.47329" r="2.54969"/>
  <path class="cls-4" d="M19.48149,28.85231c-2.00963-.59431-3.9833-1.30408-5.91117-2.12577-2.21182-.99268-2.07032-4.22654-2.07032-4.22654v-3.18294"/>
  <path class="cls-3" d="M29.02687,37.88878v-1.14843l2.98047-2.86719c.32324-.30958,.62077-.60125,.89258-.875,.27246-.27344,.51986-.53451,.74219-.7832,.22267-.24903,.41863-.48796,.58789-.7168,.15874-.21325,.30169-.43781,.42773-.67188,.11111-.20641,.19889-.42455,.26172-.65039,.0584-.21319,.08796-.43324,.08789-.65429,.00402-.29427-.04562-.58681-.14648-.86328-.09334-.25146-.24612-.47661-.44531-.65625-.2199-.1909-.47838-.33213-.75782-.41407-.3519-.10293-.71742-.15167-1.084-.14453-.32813,0-.68077,.08049-.97373,.10653-.26728,.0347-.53234,.08479-.79385,.15-.25677,.0683-.50927,.15178-.75615,.25-.23114,.06625-.45696,.14982-.67554,.25l-.00133-1.47352c.20152-.09885,.41104-.18046,.62633-.24395,.24175-.08524,.48908-.15375,.74023-.20507,.28315-.05824,.56944-.09997,.85743-.125,.30467-.02733,.63279-.041,.98437-.041,.42624-.00353,.85188,.03243,1.27149,.10742,.34831,.06225,.68795,.16585,1.01171,.3086,.27877,.12278,.53596,.28963,.76172,.49414,.20943,.19191,.3868,.4161,.52539,.66406,.14107,.2564,.24373,.53213,.30469,.81836,.06703,.31521,.09978,.63675,.09766,.959,.00108,.3238-.04095,.6463-.125,.959-.08483,.31019-.20337,.61015-.35352,.89453-.15862,.29961-.34152,.58572-.54687,.85546-.21192,.28028-.44695,.56023-.70508,.83984-.25781,.28028-.53581,.56283-.834,.84766-.29785,.28516-.60579,.57616-.92382,.873l-2.01172,1.918h5.919v1.23824l-7.94627,.00002Z"/>
</svg>