<?xml version="1.0" encoding="UTF-8"?>
<svg id="Ebene_1" data-name="Ebene 1" xmlns="http://www.w3.org/2000/svg" viewBox="0 0 40 40">
  <defs>
    <style>
      .cls-1 {
        stroke-miterlimit: 10;
        stroke-width: 1.38889px;
      }

      .cls-1, .cls-2 {
        fill: none;
        stroke: #fff;
      }

      .cls-3 {
        fill: #969696;
      }

      .cls-2 {
        stroke-linejoin: round;
        stroke-width: 1.2px;
      }
    </style>
  </defs>
  <line class="cls-2" x1="19.98093" y1="2.04045" x2="19.98093" y2="13.52813"/>
  <g>
    <polygon class="cls-1" points="20.01673 38.28741 20.01266 38.28724 20.00842 38.28741 20.01673 38.28741"/>
    <path class="cls-2" d="M23.95265,16.93952c-.71055-.11826-1.41032-.18912-2.55235-.21405l-.00125-.65406h.70006c.38198,0,.69444-.31247,.69444-.69444v-1.38619c0-.38189-.31247-.69444-.69444-.69444h-4.16933c-.38198,0-.69444,.31255-.69444,.69444v1.38619c0,.38198,.31247,.69444,.69444,.69444h.68938l-.00142,.65406c-1.1417,.02492-1.83469,.09579-2.54524,.21405-.8177,.13597-.76396,.3028-.76396,1.12339,0,1.45204,1.44877,2.99394,3.43072,3.44416l-.63938,16.28231s.47489,.49684,1.91277,.49786c1.43789-.00102,1.9126-.49786,1.9126-.49786l-.63938-16.28231c1.98195-.4503,3.43072-1.99212,3.43072-3.44416,0-.82058,.05374-.98741-.76396-1.12339Z"/>
  </g>
  <path class="cls-3" d="M12.44449,26.80051l.61237-1.06134c-1.98798-1.85645-3.23987-4.49152-3.23987-7.41962,0-2.98572,1.30194-5.66638,3.35864-7.52759l-.56042-1.10925c-2.44183,2.08606-3.99744,5.18103-3.99744,8.63684,0,3.37274,1.48547,6.39801,3.82672,8.48096Z"/>
  <path class="cls-3" d="M11.02811,29.25522l.61023-1.05756c-2.80902-2.37579-4.59967-5.91992-4.59967-9.87811,0-4.07324,1.89569-7.70764,4.8465-10.08173l-.54852-1.08569c-3.33704,2.58929-5.49719,6.62634-5.49719,11.16742,0,4.40302,2.02386,8.34039,5.18866,10.93567Z"/>
  <path class="cls-3" d="M9.66252,32.14194c-4.14838-3.19403-6.83752-8.19409-6.83752-13.82239,0-5.83392,2.88715-10.99512,7.29645-14.1665l-.54865-1.086C4.77458,6.44626,1.62578,12.01761,1.62578,18.31955c0,6.07172,2.92896,11.4585,7.43402,14.86707l.60272-1.04468Z"/>
  <path class="cls-3" d="M27.49196,26.80051l-.61237-1.06134c1.98798-1.85645,3.23987-4.49152,3.23987-7.41962,0-2.98572-1.30194-5.66638-3.35864-7.52759l.56042-1.10925c2.44183,2.08606,3.99744,5.18103,3.99744,8.63684,0,3.37274-1.48547,6.39801-3.82672,8.48096Z"/>
  <path class="cls-3" d="M28.90834,29.25522l-.61023-1.05756c2.80902-2.37579,4.59967-5.91992,4.59967-9.87811,0-4.07324-1.89569-7.70764-4.8465-10.08173l.54852-1.08569c3.33704,2.58929,5.49719,6.62634,5.49719,11.16742,0,4.40302-2.02386,8.34039-5.18866,10.93567Z"/>
  <path class="cls-3" d="M30.37393,32.14194c4.14838-3.19403,6.83752-8.19409,6.83752-13.82239,0-5.83392-2.88715-10.99512-7.29645-14.1665l.54865-1.086c4.79822,3.37921,7.94702,8.95056,7.94702,15.2525,0,6.07172-2.92896,11.4585-7.43402,14.86707l-.60272-1.04468Z"/>
</svg>