<?xml version="1.0" encoding="UTF-8"?>
<svg id="Ebene_1" data-name="Ebene 1" xmlns="http://www.w3.org/2000/svg" viewBox="0 0 40 40">
  <defs>
    <style>
      .cls-1 {
        fill: #fff;
      }

      .cls-2 {
        fill: #a8a8a8;
      }
    </style>
  </defs>
  <g id="Icons_in_schwarz" data-name="Icons in schwarz">
    <path class="cls-2" d="M27.61244,6.86023c-4.6395-3.16853-10.74831-3.16386-15.38296,.01177-.39781,.27148-.94038,.16907-1.21186-.22874-.27021-.39596-.17016-.93578,.224-1.2086,5.22962-3.58264,12.12225-3.58732,17.35673-.01178,.3966,.2727,.49704,.81528,.22435,1.21188-.27226,.39596-.81365,.49682-1.21023,.22548h-.00004Zm-4.52899,5.95848c-1.86032-1.45361-4.47624-1.43633-6.31719,.04172-.37529,.30188-.92425,.24237-1.22614-.13292-.30096-.37414-.24286-.92119,.12998-1.22376l.00329-.00265c1.21349-.97314,2.72222-1.50397,4.27771-1.50506,1.52522-.00517,3.00748,.50492,4.20653,1.44758,.37854,.29812,.44373,.84666,.14561,1.2252-.29647,.37644-.84104,.44332-1.2198,.14983v.00006Zm-3.18435-6.52329c2.29925-.00809,4.53665,.74432,6.36381,2.14008,.38391,.29108,.45917,.83827,.16809,1.22218-.29108,.38391-.83827,.45916-1.22218,.16808h0c-3.12518-2.37136-7.44381-2.38335-10.58211-.0294-.38515,.28916-.93178,.21134-1.22094-.17381-.2883-.384-.21191-.92882,.17088-1.21873l.00283-.00213c1.81995-1.37351,4.03959-2.11329,6.31964-2.10628h-.00002Z"/>
    <path class="cls-2" d="M27.61248,33.42867c.39766-.27115,.93984-.16859,1.21099,.22907,.2701,.39612,.16951,.93601-.22511,1.20828-5.23448,3.57553-12.12711,3.57085-17.35673-.01178-.39601-.2741-.49484-.81733-.22075-1.21334,.27282-.39416,.81264-.49422,1.2086-.224,4.63464,3.17563,10.74346,3.18031,15.38296,.01177h.00004Zm-4.52902-5.95842c.37908-.29743,.92751-.23124,1.22494,.14784,.29743,.37908,.23124,.92751-.14784,1.22494-.00096,.00076-.00192,.0015-.00288,.00225-1.19904,.94266-2.68131,1.45274-4.20653,1.44756-1.55549-.00108-3.06423-.53191-4.27771-1.50506l-.00329-.00264c-.37789-.29862-.44215-.84705-.14352-1.22494,.29862-.37789,.84705-.44215,1.22494-.14352,.00151,.00119,.00302,.00239,.00452,.0036l.0102,.00825c1.84096,1.47805,4.45688,1.49532,6.31719,.04171h0Zm-9.50396,4.417l-.00283-.00213c-.38393-.29077-.45945-.83773-.16867-1.22166,.28991-.38279,.83473-.45918,1.21873-.17088,3.1383,2.35396,7.45693,2.34196,10.58211-.0294,.38309-.29217,.93048-.21846,1.22265,.16462,.29108,.38166,.21914,.92677-.16097,1.21985l-.0076,.00576c-3.74639,2.84086-8.92195,2.85466-12.68343,.03379l.00002,.00003Z"/>
    <path class="cls-1" d="M38.51591,15.12264c.42145-.00115,.7639-.34046,.76894-.76187v-.02248c-.00488-.41724-.59088-.75534-1.00685-.7582h-.01047c-.41917,.00287-.51228,.34309-.51722,.76242v.02233c.00499,.41947,.34609,.7571,.7656,.7578Zm-.66065-.771c0-.3759,.04443-.67041,.41751-.67041,.37,0,.90724,.29273,.90724,.66617v.00425c.00602,.36579-.28563,.6672-.65142,.67322s-.6672-.28563-.67321-.65142c-.00004-.00222-.00006-.00444-.00008-.00667-.00004-.00372-.00004-.00743,0-.01114l-.00004-.00399Zm.50826,.37474v-.27446h.16435l.19207,.27447h.17902l-.212-.29948c.11017-.02545,.18683-.12544,.18278-.23844v-.00474c0-.06891-.27008-.12569-.31192-.16538-.06383-.05891-.14863-.08978-.2354-.08568h-.35629l.2473,.79372h.15007Zm-.05138-.65788c.0979,0,.40342,.0443,.40342,.12368v.00398c0,.07574-.05821,.12398-.15615,.12398h-.19589l-.24731-.25164h.19593ZM4.57016,17.5347c0-.49259,.44163-.70124,1.13337-.70124,.28902-.01168,.57346,.07505,.8068,.24601,.22134,.1775,.36018,.43803,.38408,.72075h3.63114c-.23079-2.63439-2.80515-3.12802-4.99528-3.12802-2.09401,0-4.7643,.74008-4.7643,3.27998,0,3.84731,6.16684,2.57708,6.16684,4.1691,0,.70183-.65332,.89114-1.26762,.89114-.35097,.00726-.69488-.09912-.98045-.30328-.27935-.21726-.43655-.55607-.42208-.90966H.459c.21097,2.67194,2.74649,3.37336,5.05161,3.37336,3.68908,0,5.41834-1.40226,5.41834-3.46885,0-3.71491-6.35879-2.7855-6.35879-4.16929Zm17.77039-2.52254h-4.37967l-1.34489,2.48301-1.2682-2.48301h-4.43776l3.32345,4.73809-3.6119,5.19318h4.41913l1.45967-2.84318,1.42163,2.84318h4.45652l-3.47709-5.21166,3.43912-4.71961Zm13.28807-.28251c-1.45653,.0004-2.21396,.62379-3.07885,1.81767-.56652-1.20764-1.8262-1.9337-3.15515-1.81857-1.19406,.05976-2.27545,.72358-2.86918,1.76129v-1.47788h-3.56711v9.93126h3.93442v-4.90878c0-1.19402,.02823-2.22521,1.12531-2.1972,1.06439,.02689,1.1516,.58629,1.1516,2.04569v5.06029h4.01664v-4.90878c0-1.19402-.00819-2.19205,1.11431-2.19536,1.05706-.00282,1.15344,.58446,1.15344,2.04388v5.06029h3.95401v-5.87557c-.00008-2.7099-1.24636-4.33913-3.77945-4.33824Z"/>
  </g>
</svg>