<?xml version="1.0" encoding="UTF-8"?>
<svg id="Layer_1" data-name="Layer 1" xmlns="http://www.w3.org/2000/svg" viewBox="0 0 40 40">
  <defs>
    <style>
      .cls-1, .cls-2, .cls-3 {
        fill: #fff;
      }

      .cls-2 {
        fill-rule: evenodd;
      }

      .cls-4 {
        stroke-width: 1.2px;
      }

      .cls-4, .cls-5, .cls-3, .cls-6 {
        stroke: #fff;
      }

      .cls-4, .cls-5, .cls-6 {
        fill: none;
      }

      .cls-4, .cls-3, .cls-6 {
        stroke-miterlimit: 10;
      }

      .cls-5 {
        stroke-linejoin: round;
      }

      .cls-5, .cls-6 {
        stroke-width: 1.2px;
      }

      .cls-7 {
        opacity: .98;
      }

      .cls-3 {
        stroke-width: .2px;
      }
    </style>
  </defs>
  <polygon class="cls-1" points="31.94907 12.93041 31.94731 12.93569 31.94907 12.93217 31.94907 12.93041 31.94907 12.93041"/>
  <g class="cls-7">
    <path class="cls-6" d="M16.27236,38.43501c-.55834-.02743-1.09488-.22521-1.53745-.56672-.44271-.34086-.77294-.80672-.948-1.33731-.04238-.13595-.03881-.28208,.01017-.4158,.04684-.13094,.13699-.24195,.25552-.31466,2.86861-1.78469,5.82204-3.55759,8.77974-5.27058,.68223-.3913,1.48229-.52461,2.25454-.37567,1.08312,.21566,2.17373,.42597,3.2622,.632,.75901,.14254,1.50159-.31678,1.71298-1.05957,.60525-2.14643,1.18534-4.27896,1.72475-6.34031,.42571-1.63665,1.90664-2.77659,3.59773-2.76934,.20604-.00007,.41173,.0172,.61488,.05164l.85942,.15011c.67143,.11828,1.22054,.60172,1.42293,1.25275,.09807,.31994,.10695,.66058,.02568,.98519-.77113,3.01924-1.5915,6.06953-2.43862,9.06524-.62417,2.21308-2.64634,3.73922-4.94575,3.73259-.30745,.00022-.61428-.02754-.91669-.08295-1.88423-.34892-3.70368-.70212-5.40891-1.04888-.15568-.031-.31403-.0466-.47277-.04657-.43912-.00064-.87039,.11632-1.24901,.33874-1.7994,1.06118-3.44119,2.04851-5.01906,3.01925-.43237,.2626-.92804,.40263-1.4339,.4051-.05006,.00001-.1001-.00159-.1504-.00426Z"/>
    <path class="cls-6" d="M36.85003,18.2665c-1.40561-.00168-2.54371-1.14252-2.54203-2.54813,.00168-1.40561,1.14252-2.54371,2.54813-2.54203,1.40438,.00168,2.54198,1.14061,2.54203,2.54499-.00036,1.40602-1.14045,2.54553-2.54647,2.54517-.00056,0-.00111,0-.00166,0Z"/>
  </g>
  <path class="cls-4" d="M25.73589,7.35895c-.05746,.2807-.08914,.56606-.09465,.85253,.00801,.38773,.10442,.76851,.28188,1.11333l.363,.87304c.12689,.31885,.18975,.65957,.18499,1.00271-.06133,.8149-.36746,1.59225-.87825,2.23014"/>
  <polygon class="cls-3" points="24.78689 7.49379 25.73945 4.99551 26.68499 7.49379 24.78689 7.49379"/>
  <path class="cls-4" d="M28.0966,7.35895c-.05747,.2807-.08915,.56606-.09466,.85253,.008,.38772,.10439,.7685,.28183,1.11333l.363,.87304c.1269,.31885,.18976,.65957,.185,1.00271-.06133,.8149-.36746,1.59225-.87826,2.23014"/>
  <polygon class="cls-3" points="27.14721 7.49379 28.09978 4.99551 29.04531 7.49379 27.14721 7.49379"/>
  <path class="cls-4" d="M30.4573,7.35895c-.05747,.2807-.08915,.56606-.09466,.85253,.008,.38772,.10439,.7685,.28183,1.11333l.363,.87304c.12689,.31885,.18975,.65957,.18499,1.00271-.06133,.8149-.36746,1.59225-.87825,2.23014"/>
  <polygon class="cls-3" points="29.50841 7.49379 30.46098 4.99551 31.40651 7.49379 29.50841 7.49379"/>
  <path class="cls-4" d="M28.53246,3.23706c-2.74383-.00431-5.411,.90509-7.58067,2.58473l3.79285,6.15301c2.30553-1.47364,5.26214-1.45339,7.54727,.05169l3.83284-6.20134c-2.17345-1.6813-4.84445-2.5918-7.59229-2.58809Z"/>
  <g id="Icon">
    <path class="cls-5" d="M7.29666,2.56481c.71377-.02088,1.38406,.34205,1.75672,.95117,.23685,.67359,.23312,1.40841-.01054,2.07956-.34896,1.25084-.3605,2.57177-.03346,3.82852l.13694,.24693,.90989,.15945,.24515-.38345c-.07809-1.27194,.35614-2.52222,1.20584-3.47192,.62736-.62672,1.47971-.97589,2.36645-.96944,1.85862,.0718,3.45777,1.33654,3.95586,3.12862,.3995,.95119,.06224,2.05198-.80151,2.61614-.26161,.12129-.54695,.18277-.83529,.18-.40676-.01867-.81021-.08216-1.20305-.1893-.65346-.17096-1.32491-.26373-2.00024-.27637-.60268,.00249-1.20244,.08385-1.784,.242l-.24229,.16452-.12908,.90959,.42776,.22654c2.79959,.02169,4.03579,1.53984,4.26878,2.96132,.22588,2.082-1.09417,4.01966-3.11437,4.57149-.27497,.09515-.56355,.14506-.8545,.14778-.71397,.02103-1.38452-.34191-1.75734-.95116-.23594-.65411-.23264-1.37064,.0093-2.02255,.34751-1.21673,.36313-2.50427,.04523-3.72907l-.11039-.30934-.99484-.18415-.20471,.44826c.07965,1.24882-.34362,2.4776-1.17546,3.41244-.61692,.61477-1.45465,.95641-2.32556,.94838-1.88923-.07405-3.51409-1.3604-4.01968-3.18222-.39976-.95126-.06231-2.05229,.80183-2.61618,.26139-.12128,.54653-.18277,.83467-.18,.40686,.01867,.81042,.08216,1.20336,.18931,.65346,.17095,1.32491,.26372,2.00024,.27636,.60268-.00249,1.20244-.08385,1.784-.242l.22709-.1,.16077-.86855-.36555-.32372c-2.8504,0-4.11016-1.5355-4.34562-2.97278-.22585-2.08069,1.09348-4.01715,3.11249-4.56839,.27514-.0953,.56395-.14522,.85512-.14779Z"/>
  </g>
  <polygon class="cls-2" points="12.96749 32.20131 17.16528 28.00088 14.93941 28.00088 14.93941 24.42876 11.01754 24.42876 11.01754 28.00088 8.76882 28.00088 12.96749 32.20131"/>
  <polygon class="cls-2" points="27.0158 23.81565 26.4991 17.90078 25.06849 19.60819 22.33207 17.30938 19.81093 20.31471 22.54912 22.61 21.10357 24.33235 27.0158 23.81565"/>
</svg>