<?xml version="1.0" encoding="UTF-8"?>
<svg id="Layer_1" data-name="Layer 1" xmlns="http://www.w3.org/2000/svg" viewBox="0 0 40 40">
  <defs>
    <style>
      .cls-1 {
        fill: #fff;
        fill-rule: evenodd;
      }

      .cls-2, .cls-3 {
        fill: none;
      }

      .cls-3 {
        stroke: #fff;
        stroke-miterlimit: 10;
        stroke-width: 1.2px;
      }
    </style>
  </defs>
  <path class="cls-1" d="m15.65317,21.90191l4.13357-6.20035h7.23369l-5.30429-4.60163,1.01366-8.54117-4.40991,6.37813-3.86393-3.29899.78466,5.85777-7.55018,2.80723,7.6803,1.92009.28244,5.67893Z"/>
  <rect class="cls-2" x=".00787" y=".1417" width="39.99223" height="38.59011"/>
  <path class="cls-3" d="m.00787,33.29669h2.02838l.04688.10132c1.13361,2.38397,3.98517,3.39752,6.36914,2.26392.99622-.47369,1.79797-1.27747,2.26917-2.27496l.04681-.09784.10895-.00281c1.36664-.03168,3-.37494,3.02002-1.83051.00928-1.54321-.22278-3.07843-.68781-4.54999-.49829-1.69061-1.63135-1.85321-2.72717-2.01038-.47083-.06165-.93823-.14722-1.40039-.25635-1.05133-.36841-2.06421-.83856-3.02417-1.40369-1.44873-.85822-2.99622-1.53748-4.60864-2.02277-.47821-.0946-.95898-.17328-1.44116-.24115"/>
  <path class="cls-3" d="m40.00012,20.72418c-.23444-.00385-.46869-.01324-.70331-.01086l.00006-.00006c-1.60052-.03351-3.19916.12933-4.76013.48486-1.86328.71344-3.54865,1.82446-4.93872,3.25574-.32806.29498-.66852.60028-.97241.84698l-.27087.23364-.05371.0069c-.03723.00482-3.86841.50104-5.22681.78638-2.55896.53827-3.4494,1.13574-4.19653,2.04962-.65234.82288-.96875,1.86224-.88556,2.909.0014,1.28058.67053,1.90009,2.10614,1.94904l1.42389.03644.04614.0979c1.11853,2.39166,3.96411,3.42371,6.35577,2.30518,1.00525-.47015,1.81561-1.27539,2.29218-2.27759l.0462-.10065h9.73767"/>
</svg>