<?xml version="1.0" encoding="UTF-8"?>
<svg id="Layer_1" data-name="Layer 1" xmlns="http://www.w3.org/2000/svg" viewBox="0 0 40 40">
  <defs>
    <style>
      .cls-1 {
        fill: #fff;
      }
    </style>
  </defs>
  <path class="cls-1" d="m32.30954,27.82449c-.73438,0-1.38379-.08984-1.94824-.26855-.56348-.17969-1.05566-.43457-1.47656-.76465-.41992-.3291-.77344-.72949-1.05859-1.19922s-.51562-.99512-.68945-1.57422-.29883-1.20898-.37402-1.88965c-.0752-.67969-.11328-1.39453-.11328-2.14258,0-.75195.03906-1.4668.11816-2.14551.07812-.67871.20801-1.30957.38672-1.89453.17969-.58496.41504-1.1123.70508-1.58398.29102-.47168.64746-.87305,1.06934-1.20508.42188-.33105.91406-.58789,1.47656-.76855.5625-.18164,1.20703-.27246,1.93555-.27246.73828,0,1.3916.08984,1.96094.26953s1.06543.43359,1.48926.76367.7793.72949,1.06641,1.2002c.28711.46973.52051.99512.7002,1.57617.17871.58105.30762,1.21094.38379,1.88965.07715.67773.11523,1.3916.11523,2.13965,0,.75293-.04004,1.46875-.12012,2.14844-.08008.68066-.20996,1.31152-.38965,1.89453s-.41504,1.11035-.70703,1.58203c-.29297.47168-.65137.87305-1.07715,1.20508-.42578.33105-.92383.58789-1.49414.76855-.57129.18066-1.22363.27148-1.95898.27148Zm.03125-1.64062c.46484,0,.87891-.06934,1.24316-.20996.36426-.13965.68164-.34082.95312-.60254.27246-.26172.50391-.57715.69531-.94824s.3457-.78711.46387-1.24805c.11816-.46191.20215-.96191.25391-1.5.05078-.53809.07715-1.10645.07715-1.70508,0-.59473-.02637-1.16113-.07715-1.69922-.05176-.53809-.13574-1.03809-.25391-1.5-.11816-.46094-.27246-.87695-.46387-1.24609s-.42285-.68457-.69531-.94824c-.27148-.2627-.58887-.46484-.95312-.60449-.36426-.14062-.77832-.21094-1.24316-.21094s-.87891.07031-1.24121.21094c-.3623.13965-.67871.34082-.94824.60254-.27051.26074-.49902.57715-.68652.94824-.18848.37109-.34082.78711-.45703,1.24805-.11621.46191-.19922.96094-.25098,1.49707-.05176.53711-.07715,1.10449-.07715,1.70215,0,.59473.02539,1.16211.07715,1.70215s.13477,1.04102.25098,1.50293c.11621.46094.26855.87598.45703,1.24512.1875.36914.41602.68555.68652.94824.26953.26367.58594.46582.94824.60547.3623.14062.77637.20996,1.24121.20996Z"/>
  <g id="E6C3_minus15sec_prio1" data-name="E6C3 minus15sec prio1">
    <path class="cls-1" d="m19.35948,27.455v-13.30073l-3.9965.69543v-1.62l4.75-.93544h1.205v15.16074h-1.9585Z"/>
    <path class="cls-1" d="m1.78723,19.9084h9.42169v1.2H1.78723v-1.2Z"/>
  </g>
</svg>