<?xml version="1.0" encoding="UTF-8"?>
<svg xmlns="http://www.w3.org/2000/svg" viewBox="0 0 40 40">
  <defs>
    <style>
      .cls-1 {
        fill: #fff;
      }

      .cls-2 {
        fill: none;
        stroke: #fff;
        stroke-width: 1.2px;
      }
    </style>
  </defs>
  <g id="Layer_1" data-name="Layer 1">
    <g id="E02A_phone_car" data-name="E02A phone car">
      <path class="cls-2" d="m24.65849,36.15227q.12469.04138.20773-.00027l7.30747-3.66559c1.24559-.62482,2.61614-1.00051,2.07464-2.08003l-1.24963-2.49118c-.33324-.66432-.66566-.70543-1.24694-.41385l-.83039.41654L20.92431,7.98845l.83039-.41654c.43029-.25373.60703-.78628.41385-1.24694l-1.24963-2.49118c-.54151-1.07951-1.74517-.16392-2.90773.41924l-7.30747,3.66559c-.08304.04165-.16608.08331-.12443.16635-.54146,1.21843-.83628,2.53201-.86747,3.86497.12631,1.28778,10.74791,22.25509,11.28861,22.71141,1.13833.67631,2.37128,1.17883,3.65805,1.49094Z"/>
      <path class="cls-2" d="m9.75214,10.9943s-4.43789,5.86384-4.10412,6.94362c1.20959,3.65454,6.20812,13.61927,8.16426,16.27572.66593.91316,8.10294,1.02816,8.10294,1.02816"/>
      <path class="cls-1" d="m19.44724,14.84771h-.00002c.78654.00003,1.32759.1619,1.46088.39995l4.14397,8.25882c.27904.61935-.82471,1.9733-1.90683,2.88664l-1.43651-.39833-4.77087-9.51091.53757-1.38429c.48961-.11264,1.24232-.25186,1.97182-.25188m-.00017-1.2c-1.42635.00003-2.86823.44569-2.86823.44569l-.95239,2.4525,5.24844,10.46295,2.53526.703s3.65265-2.66371,2.73599-4.69832l-4.16544-8.30394c-.45718-.82391-1.49123-1.0619-2.53365-1.06189h0Z"/>
      <path class="cls-1" d="m13.03152,8.82962c1.32998.3722,1.12467,2.24206,1.12467,2.24206l1.12467,2.24206-.37085,2.36864-3.99667-6.30992c.53881-.58018,1.36673-.79236,2.11818-.54285Zm11.37165,22.66975s1.5799.87043,1.12467,2.24206c-.23702.7646-.9428,1.28695-1.74329,1.29021l-2.66804-6.97639,2.16199,1.20205,1.12467,2.24206Z"/>
    </g>
  </g>
  <g id="Ebene_1" data-name="Ebene 1">
    <rect class="cls-1" x="4" y="35.4791" width="32" height="1.5"/>
  </g>
</svg>