<?xml version="1.0" encoding="UTF-8"?>
<svg id="piktos" xmlns="http://www.w3.org/2000/svg" viewBox="0 0 40 40">
  <defs>
    <style>
      .cls-1 {
        fill: #fff;
      }

      .cls-2 {
        fill: #e42320;
      }
    </style>
  </defs>
  <path class="cls-2" d="m18.0737,5.52345L2.6401,32.24805c-.3945.6875-.3945,1.5352,0,2.2285.4004.6875,1.1328,1.11129,1.9297,1.11129h30.8594c.793,0,1.5293-.42379,1.9277-1.11129.3985-.6933.3985-1.541,0-2.2285L21.9272,5.52345c-.3955-.6875-1.1269-1.1113-1.9257-1.1113-.7969,0-1.5293.4238-1.9278,1.1113Z"/>
  <g>
    <path class="cls-1" d="m19.9995,7.31645l-14.7617,25.56639h29.5254L19.9995,7.31645Zm0,3.5859l11.6504,20.18549H8.3452l11.6543-20.18549Z"/>
    <path class="cls-1" d="m19.9995,14.49215l-8.543,14.8008h17.0879l-8.5449-14.8008Zm0,3.5879l5.43751,9.418h-10.87111l5.4336-9.418Z"/>
  </g>
</svg>