<svg xmlns="http://www.w3.org/2000/svg" viewBox="0 0 40 40"><g id="E613_navigation_sort_by_price_asc"><line x1="35.50001" y1="39" x2="35.5" y2="8.15991" fill="none" stroke="#fff" stroke-width="1.2"/><polygon points="35.5 0 31.08 9.004 39.92 9.004 35.5 0" fill="#fff"/><polyline points="15 29.5 0.5 29.5 0.5 14.5 29.5 14.5 29.5 23" fill="none" stroke="#fff" stroke-miterlimit="10" stroke-width="1.2"/><circle cx="25.30908" cy="18.35256" r="1.57304" fill="#fff"/><circle cx="4.2934" cy="25.71535" r="1.57304" fill="#fff"/><circle cx="14.74366" cy="22.02555" r="5.15608" fill="none" stroke="#fff" stroke-miterlimit="10" stroke-width="1.2"/><circle cx="14.81632" cy="20.45903" r="1.07782" fill="#fff"/><path d="M14.74357,22.54988a5.14708,5.14708,0,0,0-4.2987,2.31584,5.14749,5.14749,0,0,0,8.5974,0A5.14708,5.14708,0,0,0,14.74357,22.54988Z" fill="#fff"/><path d="M18.46178,27.76782v2.4899c0,1.75747,3.19258,2.67726,6.34719,2.67726s6.34718-.91979,6.34718-2.67726v-2.4899C31.15615,24.25289,18.46178,24.25289,18.46178,27.76782ZM24.809,26.3522c3.3558,0,5.08657.99216,5.08657,1.41562S28.16477,29.184,24.809,29.184s-5.08658-.99268-5.08658-1.41613S21.45316,26.3522,24.809,26.3522Zm0,5.32114c-3.35581,0-5.08658-.99216-5.08658-1.41562v-.82663A11.35653,11.35653,0,0,0,24.809,30.44558a11.35651,11.35651,0,0,0,5.08657-1.01449v.82663C29.89554,30.68118,28.16477,31.67334,24.809,31.67334Z" fill="#fff"/><path d="M30.57615,30.055l-.32644,1.21852c1.38277.37007,1.83034.85409,1.83034,1.03066,0,.42346-1.73077,1.41613-5.08658,1.41613s-5.08657-.99267-5.05475-1.51365l-1.09842-.618a1.43821,1.43821,0,0,0-.194.71551V34.54c0,1.75746,3.19258,2.67725,6.34718,2.67725s6.34719-.91979,6.34719-2.67725V32.30416C33.34066,31.331,32.35928,30.53233,30.57615,30.055Zm-3.58268,5.90064c-3.3558,0-5.08657-.99217-5.08657-1.41562v-.57256a11.35651,11.35651,0,0,0,5.08657,1.01449,11.35653,11.35653,0,0,0,5.08658-1.01449V34.54C32.08005,34.96345,30.34928,35.95562,26.99347,35.95562Z" fill="#fff"/></g></svg>