<svg id="Ebene_1" data-name="Ebene 1" xmlns="http://www.w3.org/2000/svg" viewBox="0 0 106 40"><defs><style>.cls-1{fill:#ff7e42;}.cls-2{fill:#fff;}.cls-3{fill:#cbcbcb;}</style></defs><rect class="cls-1" y="11.00002" width="18" height="18" rx="3"/><g id="_1" data-name=" 1"><path class="cls-2" d="M9,13.55233l2.01923,4.11923L15.3,18.15618l-3.15,3.15.96923,4.36154L9,23.56772l-4.11923,2.1L5.85,21.30618l-3.15-3.15,4.28077-.48462Z"/></g><rect class="cls-1" x="22" y="11.00002" width="18" height="18" rx="3"/><g id="_1-2" data-name=" 1"><path class="cls-2" d="M31,13.55233l2.01923,4.11923L37.3,18.15618l-3.15,3.15.96923,4.36154L31,23.56772l-4.11923,2.1L27.85,21.30618l-3.15-3.15,4.28077-.48462Z"/></g><rect class="cls-1" x="44" y="11.00002" width="18" height="18" rx="3"/><g id="_1-3" data-name=" 1"><path class="cls-2" d="M53,13.55233l2.01923,4.11923L59.3,18.15618l-3.15,3.15.96923,4.36154L53,23.56772l-4.11923,2.1L49.85,21.30618l-3.15-3.15,4.28077-.48462Z"/></g><rect class="cls-3" x="88" y="11.00002" width="18" height="18" rx="3"/><g id="_1-4" data-name=" 1"><path class="cls-2" d="M97,13.55233l2.01923,4.11923,4.28077.48462-3.15,3.15.96923,4.36154L97,23.56772l-4.11923,2.1L93.85,21.30618l-3.15-3.15,4.28077-.48462Z"/></g><path class="cls-1" d="M69.00057,11.00008a3.00882,3.00882,0,0,0-3,3v12a3.00882,3.00882,0,0,0,3,3h6.02405v-18Z"/><path class="cls-3" d="M84.00057,26.00008v-12a3.00882,3.00882,0,0,0-3-3H75.02462v18h5.97595A3.00882,3.00882,0,0,0,84.00057,26.00008Z"/><g id="_1-5" data-name=" 1"><path class="cls-2" d="M75.00057,13.55241l2.01923,4.11923,4.28077.48461-3.15,3.15.96923,4.36154-4.11923-2.1-4.11923,2.1.96923-4.36154-3.15-3.15,4.28077-.48461Z"/></g></svg>