<svg id="Ebene_1" data-name="Ebene 1" xmlns="http://www.w3.org/2000/svg" viewBox="0 0 106 40"><defs><style>.cls-1{fill:#cbcbcb;}.cls-2{fill:#fff;}</style></defs><rect class="cls-1" y="11.00002" width="18" height="18" rx="3"/><g id="_1" data-name=" 1"><path class="cls-2" d="M9,13.55233l2.01923,4.11923L15.3,18.15618l-3.15,3.15.96923,4.36154L9,23.56772l-4.11923,2.1L5.85,21.30618l-3.15-3.15,4.28077-.48462Z"/></g><rect class="cls-1" x="22" y="11.00002" width="18" height="18" rx="3"/><g id="_1-2" data-name=" 1"><path class="cls-2" d="M31,13.55233l2.01923,4.11923L37.3,18.15618l-3.15,3.15.96923,4.36154L31,23.56772l-4.11923,2.1L27.85,21.30618l-3.15-3.15,4.28077-.48462Z"/></g><path class="cls-1" d="M47,11H60.57895A1.42105,1.42105,0,0,1,62,12.42108V27.579A1.42105,1.42105,0,0,1,60.57895,29H45.42105A1.42105,1.42105,0,0,1,44,27.579V14A3,3,0,0,1,47,11Z"/><g id="_1-3" data-name=" 1"><path class="cls-2" d="M53,13.55233l2.01923,4.11923L59.3,18.15618l-3.15,3.15.96923,4.36154L53,23.56772l-4.11923,2.1L49.85,21.30618l-3.15-3.15,4.28077-.48462Z"/></g><rect class="cls-1" x="66" y="11.00002" width="18" height="18" rx="3"/><g id="_1-4" data-name=" 1"><path class="cls-2" d="M75,13.55233l2.01923,4.11923L81.3,18.15618l-3.15,3.15.96923,4.36154L75,23.56772l-4.11923,2.1L71.85,21.30618l-3.15-3.15,4.28077-.48462Z"/></g><rect class="cls-1" x="88" y="11.00002" width="18" height="18" rx="3"/><g id="_1-5" data-name=" 1"><path class="cls-2" d="M97,13.55233l2.01923,4.11923,4.28077.48462-3.15,3.15.96923,4.36154L97,23.56772l-4.11923,2.1L93.85,21.30618l-3.15-3.15,4.28077-.48462Z"/></g></svg>