<svg id="Ebene_1" data-name="Ebene 1" xmlns="http://www.w3.org/2000/svg" viewBox="0 0 40 40"><defs><style>.cls-1{fill:#fff;}.cls-2,.cls-3{fill:none;stroke:#fff;}.cls-2{stroke-width:1.2px;}.cls-3{stroke-miterlimit:10;}</style></defs><g id="E629_navigation_routecriteria_setup" data-name="E629 navigation routecriteria setup"><path class="cls-1" d="M24.7695,10.41639a3.16253,3.16253,0,1,1,3.149-3.176l0,.014A3.15561,3.15561,0,0,1,24.7695,10.41639Zm-17.403,22.155a3.17753,3.17753,0,1,1,3.163-3.192q0,.00752,0,.015a3.16969,3.16969,0,0,1-3.16237,3.177Z"/><path class="cls-2" d="M7.3765,29.39239l8.1235-7.907v-6.326l9.2715-7.907"/></g><path class="cls-1" d="M35.31415,25.52832a.24748.24748,0,0,1-.01556-.11158q-.04019-.31539-.105-.62262a.255.255,0,0,0-.00964-.03131c-.03815-.17822-.08112-.35449-.13092-.52771a.25481.25481,0,0,0-.28058-.18231l-.741.10559a.25249.25249,0,0,1-.27155-.15765l-.01788-.04419c-.01532-.0387-.03076-.07727-.04675-.11554-.01209-.02893-.02454-.05768-.03693-.08637-.00867-.01989-.01678-.0401-.02563-.05987l-.00611-.012q-.09814-.21936-.21045-.43024l-.01452-.02405-.04871-.07233-.03192-.07043-.01288-.02509q-.15582-.2688-.33575-.52185l-.00812-.01269q-.05868-.08221-.11981-.16254a.25226.25226,0,0,1,.01068-.30664l.48071-.58679a.25478.25478,0,0,0-.00885-.33258q-.20983-.2319-.43774-.447a.244.244,0,0,1-.0871-.08075q-.2092-.19144-.43243-.36695l-.0069-.00653-.01734-.01312-.02124-.01727-.01-.00641c-.14862-.11548-.30078-.22644-.45745-.33112a.2549.2549,0,0,0-.33155.04108l-.503.56079a.2524.2524,0,0,1-.3092.05383l-.001-.00055q-.08945-.04925-.18066-.09588l-.00653-.0033c-.03839-.01959-.0766-.03943-.11542-.05829l-.02246-.00952c-.14032-.06756-.283-.131-.42829-.18878l-.02679-.00915-.077-.022-.07251-.03467-.02606-.01086q-.28848-.10373-.58966-.18158l-.01782-.00555q-.10272-.02637-.20667-.04944a.25222.25222,0,0,1-.187-.24115l-.00885-.75324a.24881.24881,0,0,0-.21612-.24347q-.149-.02-.29987-.03442-.1647-.01557-.32843-.02393a.25909.25909,0,0,0-.05365.00336.24726.24726,0,0,0-.05884-.01025q-.15014-.006-.30175-.00611c-.08539,0-.17029.0019-.255.0047-.00647-.00024-.01276-.00128-.01929-.00109q-.15022.00511-.30145.016-.165.01208-.32782.03106a.25479.25479,0,0,0-.22607.24433l-.0246.74566a.25254.25254,0,0,1-.20062.23963q-.10428.02087-.20734.045l-.00055.00012c-.04388.01026-.08789.02027-.13147.03138l-.02368.00732q-.22751.05877-.44855.13214l-.0263.01032-.07331.033-.07684.02014-.027.00848q-.28913.10767-.56567.24109l-.01917.00806q-.09539.04623-.18908.09527a.25215.25215,0,0,1-.29828-.06439l-.47516-.553a.25493.25493,0,0,0-.33124-.04767q-.26532.17047-.51617.36145a.25126.25126,0,0,1-.09046.06592c-.13952.10944-.27429.22449-.406.3429a.25357.25357,0,0,0-.03467.02624q-.23337.21222-.44885.44226a.25489.25489,0,0,0-.01532.33173l.45086.57477a.25249.25249,0,0,1,.00043.3125l-.01153.01495q-.05622.07113-.11054.1438l-.01349.01831c-.02362.03186-.04761.06341-.07068.09576l-.01281.02c-.09034.12738-.17676.25757-.25812.39112l-.01343.02478-.03308.069-.04987.07067-.01507.02375q-.15464.27374-.284.56372l-.00195.004q-.03929.08789-.07593.17724a.25249.25249,0,0,1-.27454.15137l-.69976-.115a.25479.25479,0,0,0-.28437.17651q-.09411.303-.16436.61676a.257.257,0,0,1-.02436.09912c-.03625.17267-.06543.3479-.09015.52454a.2538.2538,0,0,0-.00927.04034q-.0423.3144-.05939.63556a.255.255,0,0,0,.20148.26355l.69885.1471a.25272.25272,0,0,1,.201.23907l.00146.02832c.002.05609.00531.11182.00861.16761.00177.02978.00244.05944.00464.08935l.002.02142.00135.02314.0028.02142c.01313.15753.0307.3136.05426.46759l.00544.02673.01892.07355.00775.092.00378.0282q.05823.31046.145.61121l.00171.00732c.016.05591.03314.11139.0506.16669l.00134.00439a.25258.25258,0,0,1-.11285.293l-.6.35584a.25492.25492,0,0,0-.10461.3175q.12432.29892.27221.58557a.26229.26229,0,0,1,.04242.08344c.0857.16131.178.31848.2743.4729l.01184.02319c.01147.01819.0238.03577.0354.05383l.00457.00745.0022.00281c.10272.15991.21008.31646.32373.468a.25489.25489,0,0,0,.324.07269l.62079-.33161a.25257.25257,0,0,1,.30725.05323c.01635.01831.03332.036.0498.05413l.05084.05512q.04157.04449.084.0882l.03259.03424.00885.00817c.11243.11408.22833.22461.34851.33039l.02191.01745.06671.04779.06415.06464.02075.01892a6.73232,6.73232,0,0,0,.64978.47309.25267.25267,0,0,1,.101.29644l-.23206.6615a.25494.25494,0,0,0,.12256.30976q.28611.15069.5863.27832a.25107.25107,0,0,1,.08411.03369c.17554.0722.35474.1372.53638.1969l.00134.00055.00342.001c.023.00757.04565.01612.06872.02344l.02808.00616c.17261.0542.347.10395.52417.14624a.255.255,0,0,0,.29639-.15222l.26288-.65429a.25244.25244,0,0,1,.27014-.15656c.032.00464.06421.00836.09637.01257l.01886.00251q.09109.01171.183.02087l.00922.0011.00238.00012c.16162.016.32453.02692.48895.03119.00928.00024.01868,0,.028-.00067l.087-.00647.08776.0083c.00928.00085.01862.00128.028.00122a6.72291,6.72291,0,0,0,.799-.05225.2526.2526,0,0,1,.26709.16224l.25293.67047a.255.255,0,0,0,.29217.15869q.3177-.06757.62641-.16065a.25572.25572,0,0,0,.04846-.02063.26017.26017,0,0,0,.04095-.00891q.31-.09712.60852-.21881a.25982.25982,0,0,0,.03034-.01568c.167-.06873.3316-.14173.49237-.22126a.25479.25479,0,0,0,.13-.30749l-.22283-.68128a.25255.25255,0,0,1,.107-.29406c.02655-.0163.05249-.03333.0788-.04993l.02526-.016q.0717-.04569.142-.09314l.014-.00922.00354-.00268q.20225-.13723.394-.28784l.02112-.0185.06567-.0636.06824-.04687.02228-.017q.24161-.20416.46338-.4306l.00213-.002.02411-.02533c.0315-.03247.06318-.06482.094-.0979a.25249.25249,0,0,1,.30835-.04687l.64294.36127a.25493.25493,0,0,0,.3252-.06543q.19748-.251.37481-.51856a.25477.25477,0,0,1,.05359-.08777q.173-.26843.32434-.55145a.25106.25106,0,0,0,.01715-.04059c.08259-.15643.1612-.31512.23322-.47729a.25485.25485,0,0,0-.0976-.32025l-.62286-.38752a.25267.25267,0,0,1-.10669-.29522l.01142-.03528q.02078-.06227.0404-.12494l.02417-.07953c.00629-.0213.01318-.0423.01929-.06372l.00335-.01441c.04358-.15252.08258-.30694.1153-.4635l.00439-.02807.00983-.09259.02069-.074.006-.02667q.04551-.26129.07135-.52991c.00232-.025.00336-.04986.00544-.07483l.00335-.02569c.00275-.03546.00409-.07129.00629-.10687.00159-.025.00421-.05024.00549-.0752a.2527.2527,0,0,1,.20612-.23474l.74151-.13971a.255.255,0,0,0,.207-.25952Q35.34984,25.84037,35.31415,25.52832Zm-7.78178,6.85194a5.92274,5.92274,0,0,1-5.95432-5.89087l-.00006-.03264a5.90471,5.90471,0,0,1,5.88769-5.92168h.00324a5.92268,5.92268,0,0,1,.06345,11.84519Z"/><path class="cls-3" d="M27.49136,24.60509a1.73354,1.73354,0,1,1-1.72424,1.7428l0-.00956a1.72829,1.72829,0,0,1,1.72331-1.73324Z"/></svg>