<svg xmlns="http://www.w3.org/2000/svg" viewBox="0 0 40 40"><g id="E62B_8_etron_distance_not_in_range"><path d="M31.992,5.6863q.7783-.028,1.62078-.10909V22.74437c-14.50716,2.24978-13.7617-6.91768-24.13625-2.56423V1.84522c7.74179-3.24265,9.99,1.40417,16.54674,3.19983" fill="none" stroke="#fff" stroke-width="1.2"/><path d="M5.99293,1.24917h1.2V35.24343h-1.2Z" fill="#fff" fill-rule="evenodd"/><path d="M22.89382,6.0462,18.86176,12.71h2.88l-1.152,5.43234,4.03206-7.14769h-2.88Z" fill="#fff"/><rect x="27.99887" width="2.00046" height="10.99808" fill="red"/><rect x="27.99918" y="12.99552" width="2.00046" height="2.00046" fill="red"/><path d="M22.23438,32.66211a3.79311,3.79311,0,0,1,.63281.30273,3.26428,3.26428,0,0,1,.52343.38868,2.79526,2.79526,0,0,1,.70508,1.00781,3.11857,3.11857,0,0,1,.17969.60742,3.70429,3.70429,0,0,1-.05078,1.56836,2.77175,2.77175,0,0,1-.91992,1.45117,3.33767,3.33767,0,0,1-.834.50195,5.08254,5.08254,0,0,1-1.0957.31836,7.6856,7.6856,0,0,1-1.36719.11133,7.89121,7.89121,0,0,1-1.38672-.11133,5.07572,5.07572,0,0,1-1.10351-.31836,3.30708,3.30708,0,0,1-.832-.50195,2.77941,2.77941,0,0,1-.57617-.66016,2.81558,2.81558,0,0,1-.33594-.791,3.60336,3.60336,0,0,1-.10938-.90234,3.42581,3.42581,0,0,1,.0625-.666,3.26343,3.26343,0,0,1,.18164-.60742,2.76862,2.76862,0,0,1,.29688-.541,2.89847,2.89847,0,0,1,.41211-.46679,3.2916,3.2916,0,0,1,.52148-.38868,3.80432,3.80432,0,0,1,.62695-.30273,2.97389,2.97389,0,0,1-.71874-.46484,2.66971,2.66971,0,0,1-.51563-.61329,2.751,2.751,0,0,1-.31055-.73632,3.29423,3.29423,0,0,1-.10351-.83789,3.198,3.198,0,0,1,.25586-1.31836,2.49983,2.49983,0,0,1,.748-.959,3.38756,3.38756,0,0,1,1.21875-.584,7.175,7.175,0,0,1,3.3418,0,3.38569,3.38569,0,0,1,1.2168.584,2.4626,2.4626,0,0,1,.74414.959,3.24636,3.24636,0,0,1,.252,1.31836,3.29423,3.29423,0,0,1-.10351.83789,2.66887,2.66887,0,0,1-.31446.73632,2.74689,2.74689,0,0,1-.52148.61329A3.00573,3.00573,0,0,1,22.23438,32.66211Zm.543,2.89844a2.22453,2.22453,0,0,0-.16406-.84766,1.90819,1.90819,0,0,0-.5039-.707,2.50876,2.50876,0,0,0-.86133-.48633,4.325,4.325,0,0,0-2.48047,0,2.50857,2.50857,0,0,0-.86133.48633,1.90833,1.90833,0,0,0-.50391.707,2.22472,2.22472,0,0,0-.16406.84766,2.15627,2.15627,0,0,0,.166.85351,1.72427,1.72427,0,0,0,.50976.668,2.5104,2.5104,0,0,0,.86524.4375,4.834,4.834,0,0,0,2.45312,0,2.51049,2.51049,0,0,0,.86524-.4375,1.74852,1.74852,0,0,0,.51172-.668A2.12335,2.12335,0,0,0,22.77734,35.56055Zm-.42968-5.4961a1.9242,1.9242,0,0,0-.16016-.80664,1.59234,1.59234,0,0,0-.46094-.58984,2.06328,2.06328,0,0,0-.73633-.36328,3.99891,3.99891,0,0,0-1.96875,0,2.06331,2.06331,0,0,0-.73632.36328,1.57736,1.57736,0,0,0-.459.58984,1.93963,1.93963,0,0,0-.1582.80664,2.249,2.249,0,0,0,.14844.832,1.71818,1.71818,0,0,0,.44336.64454,2.03093,2.03093,0,0,0,.73242.418,3.542,3.542,0,0,0,2.02929,0,2.01467,2.01467,0,0,0,.73243-.418,1.75255,1.75255,0,0,0,.44336-.64454A2.21036,2.21036,0,0,0,22.34766,30.06445Z" fill="#fff"/></g></svg>