<svg xmlns="http://www.w3.org/2000/svg" viewBox="0 0 40 40"><g id="E62B_6_etron_distance_not_in_range"><path d="M23.63086,28.64258c-.17676-.05469-.35645-.10645-.53711-.15625s-.37109-.0918-.57031-.12695-.41114-.06348-.63477-.084-.46484-.03125-.72265-.03125a4.52167,4.52167,0,0,0-1.60352.25977,2.95274,2.95274,0,0,0-1.16016.7832,3.71249,3.71249,0,0,0-.74414,1.30859,7.4534,7.4534,0,0,0-.35156,1.832,4.07177,4.07177,0,0,1,.60547-.44335,4.25089,4.25089,0,0,1,.69727-.33594,4.50663,4.50663,0,0,1,.77539-.21289,4.69964,4.69964,0,0,1,.85156-.07422,5.39056,5.39056,0,0,1,1.21679.1289,4.11263,4.11263,0,0,1,1.00586.36719,3.23552,3.23552,0,0,1,1.35352,1.33594,3.67438,3.67438,0,0,1,.34375.916,4.553,4.553,0,0,1,.11523,1.041,4.19682,4.19682,0,0,1-.10937.96094,3.68609,3.68609,0,0,1-.332.88867,3.37046,3.37046,0,0,1-1.35742,1.37891,4.137,4.137,0,0,1-1.041.39843,5.45474,5.45474,0,0,1-1.293.14258,4.7037,4.7037,0,0,1-1.875-.35351,3.60252,3.60252,0,0,1-1.38476-1.043,4.7261,4.7261,0,0,1-.85743-1.709,8.53991,8.53991,0,0,1-.293-2.35156,10.61448,10.61448,0,0,1,.332-2.793,5.5078,5.5078,0,0,1,1.002-2.041,4.24719,4.24719,0,0,1,1.68359-1.252,6.07922,6.07922,0,0,1,2.36914-.42578q.4336,0,.793.0293.35889.0293.66407.08008.30468.05127.5664.12109.26221.07032.49219.15625Zm-6.38281,4.92969a8.80306,8.80306,0,0,0,.10742,1.34961,5.16138,5.16138,0,0,0,.28125,1.05664,3.1075,3.1075,0,0,0,.43945.7832,2.40446,2.40446,0,0,0,.57617.5332,2.30726,2.30726,0,0,0,.69336.30274,3.21359,3.21359,0,0,0,.793.0957,3.17474,3.17474,0,0,0,1.123-.18359,2.13649,2.13649,0,0,0,1.30664-1.32227,3.04033,3.04033,0,0,0,.168-1.03711,3.14221,3.14221,0,0,0-.166-1.05078,2.11986,2.11986,0,0,0-.49219-.79883,2.15829,2.15829,0,0,0-.82226-.50781,3.43292,3.43292,0,0,0-1.15625-.17774,4.908,4.908,0,0,0-.76953.06055,4.63083,4.63083,0,0,0-.73633.17969,4.47892,4.47892,0,0,0-.69531.29883A4.70919,4.70919,0,0,0,17.24805,33.57227Z" fill="#fff"/><path d="M31.992,5.6863q.7783-.028,1.62078-.10909V22.74437c-14.50716,2.24978-13.7617-6.91768-24.13625-2.56423V1.84522c7.74179-3.24265,9.99,1.40417,16.54674,3.19983" fill="none" stroke="#fff" stroke-width="1.2"/><path d="M5.99293,1.24917h1.2V35.24343h-1.2Z" fill="#fff" fill-rule="evenodd"/><path d="M22.89382,6.0462,18.86176,12.71h2.88l-1.152,5.43234,4.03206-7.14769h-2.88Z" fill="#fff"/><rect x="27.99887" width="2.00046" height="10.99808" fill="red"/><rect x="27.99918" y="12.99552" width="2.00046" height="2.00046" fill="red"/></g></svg>