<svg xmlns="http://www.w3.org/2000/svg" viewBox="0 0 40 40"><g id="E62B_3_etron_distance_not_in_range"><path d="M31.992,5.6863q.7783-.028,1.62078-.10909V22.74437c-14.50716,2.24978-13.7617-6.91768-24.13625-2.56423V1.84522c7.74179-3.24265,9.99,1.40417,16.54674,3.19983" fill="none" stroke="#fff" stroke-width="1.2"/><path d="M5.99293,1.24917h1.2V35.24343h-1.2Z" fill="#fff" fill-rule="evenodd"/><path d="M22.89382,6.0462,18.86176,12.71h2.88l-1.152,5.43234,4.03206-7.14769h-2.88Z" fill="#fff"/><rect x="27.99887" width="2.00046" height="10.99808" fill="red"/><rect x="27.99918" y="12.99552" width="2.00046" height="2.00046" fill="red"/><path d="M16.19922,36.99414c.20605.083.43262.16309.68164.24024s.51367.14453.79492.20312.57715.10547.88867.14062a8.54239,8.54239,0,0,0,.959.05274,4.18365,4.18365,0,0,0,1.168-.14844,2.51582,2.51582,0,0,0,.85351-.418,1.7852,1.7852,0,0,0,.52539-.64843,1.94173,1.94173,0,0,0,.17969-.84375,2.179,2.179,0,0,0-.18555-.91016,1.88054,1.88054,0,0,0-.55468-.70313,2.62536,2.62536,0,0,0-.92383-.45117,4.75146,4.75146,0,0,0-1.29688-.1582H18.1875v-1.25h1.10156a4.055,4.055,0,0,0,1.08008-.13086,2.148,2.148,0,0,0,.78906-.38867,1.66481,1.66481,0,0,0,.48438-.64063,2.21656,2.21656,0,0,0,.166-.88672,1.81384,1.81384,0,0,0-.07812-.54492,1.605,1.605,0,0,0-.2207-.44922,1.55839,1.55839,0,0,0-.34961-.35351,1.98292,1.98292,0,0,0-.46485-.252,2.88942,2.88942,0,0,0-.56445-.15039,3.939,3.939,0,0,0-.65039-.05078,7.01421,7.01421,0,0,0-.85547.05078,7.71259,7.71259,0,0,0-.80273.14063,6.7033,6.7033,0,0,0-.72071.209,5.00855,5.00855,0,0,0-.59765.252V27.5957q.16845-.08642.375-.16992t.44531-.1582c.15918-.04981.32519-.09375.5-.13281s.35449-.07129.541-.09766.377-.04688.57227-.0625.39355-.02344.59375-.02344a6.28238,6.28238,0,0,1,1.63867.19336,3.32118,3.32118,0,0,1,1.19922.57617,2.44611,2.44611,0,0,1,.73633.95118,3.234,3.234,0,0,1,.25,1.31445,3.097,3.097,0,0,1-.10742.82031,2.69013,2.69013,0,0,1-.31836.72656,2.86016,2.86016,0,0,1-.52149.61328,3.28289,3.28289,0,0,1-.71679.48047,3.62752,3.62752,0,0,1,.92578.498,2.9878,2.9878,0,0,1,.6582.67969,2.83436,2.83436,0,0,1,.39453.832,3.39383,3.39383,0,0,1,.13086.94726,3.50255,3.50255,0,0,1-.11719.918,2.86464,2.86464,0,0,1-.93945,1.47266,3.48379,3.48379,0,0,1-.82422.50781,4.77629,4.77629,0,0,1-1.06054.32422,6.94506,6.94506,0,0,1-1.30079.11328c-.36425,0-.708-.01465-1.02929-.043a8.71092,8.71092,0,0,1-.90235-.125,6.29088,6.29088,0,0,1-.77734-.20117,4.44354,4.44354,0,0,1-.65039-.27148Z" fill="#fff"/></g></svg>