<svg xmlns="http://www.w3.org/2000/svg" viewBox="0 0 40 40"><g id="E62B_5_etron_distance_not_in_range"><path d="M31.992,5.6863q.7783-.028,1.62078-.10909V22.74437c-14.50716,2.24978-13.7617-6.91768-24.13625-2.56423V1.84522c7.74179-3.24265,9.99,1.40417,16.54674,3.19983" fill="none" stroke="#fff" stroke-width="1.2"/><path d="M5.99293,1.24917h1.2V35.24343h-1.2Z" fill="#fff" fill-rule="evenodd"/><path d="M22.89382,6.0462,18.86176,12.71h2.88l-1.152,5.43234,4.03206-7.14769h-2.88Z" fill="#fff"/><rect x="27.99887" width="2.00046" height="10.99808" fill="red"/><rect x="27.99918" y="12.99552" width="2.00046" height="2.00046" fill="red"/><path d="M16.17578,36.99414q.3003.12452.67578.24024.375.11571.80274.20312.42773.08789.89062.14062a8.32779,8.32779,0,0,0,.94336.05274,4.23566,4.23566,0,0,0,1.26367-.166,2.31366,2.31366,0,0,0,.86133-.46679,1.80313,1.80313,0,0,0,.49219-.71485,2.56568,2.56568,0,0,0,.15625-.91406,1.67776,1.67776,0,0,0-.16992-.77148,1.87959,1.87959,0,0,0-.4668-.58594,2.87665,2.87665,0,0,0-.68945-.42774,5.36727,5.36727,0,0,0-.8418-.293,8.4937,8.4937,0,0,0-.92383-.18555q-.4746-.06885-.93359-.10352-.4585-.03514-.873-.04687t-.73828-.01953l.207-5.793h6.53125v1.26953H18.24609l-.125,3.24609q.44972.02344.92969.07032.48046.04688.96484.13476a9.55522,9.55522,0,0,1,.95508.22461,5.99431,5.99431,0,0,1,.89258.33594,4.43721,4.43721,0,0,1,.78125.4707,3.03226,3.03226,0,0,1,.62109.62891,2.86378,2.86378,0,0,1,.41016.81054,3.26059,3.26059,0,0,1,.14844,1.01563,4.16559,4.16559,0,0,1-.10938.96875,3.30616,3.30616,0,0,1-.332.85742,2.941,2.941,0,0,1-.57031.71875,3.24705,3.24705,0,0,1-.82617.54883,4.74623,4.74623,0,0,1-1.09375.35156,6.94516,6.94516,0,0,1-1.373.125q-.53173,0-1.01172-.041a8.61429,8.61429,0,0,1-.90429-.123,6.26953,6.26953,0,0,1-.78125-.20117,4.25924,4.25924,0,0,1-.64649-.27149Z" fill="#fff"/></g></svg>