<svg xmlns="http://www.w3.org/2000/svg" viewBox="0 0 40 40"><g id="E62B_4_etron_distance_not_in_range"><path d="M31.992,5.6863q.7783-.028,1.62078-.10909V22.74437c-14.50716,2.24978-13.7617-6.91768-24.13625-2.56423V1.84522c7.74179-3.24265,9.99,1.40417,16.54674,3.19983" fill="none" stroke="#fff" stroke-width="1.2"/><path d="M5.99293,1.24917h1.2V35.24343h-1.2Z" fill="#fff" fill-rule="evenodd"/><path d="M22.89382,6.0462,18.86176,12.71h2.88l-1.152,5.43234,4.03206-7.14769h-2.88Z" fill="#fff"/><rect x="27.99887" width="2.00046" height="10.99808" fill="red"/><rect x="27.99918" y="12.99552" width="2.00046" height="2.00046" fill="red"/><path d="M21.27344,38.72852V36.1582H15.22266l-.00391-1.21093,6.08984-7.80469h1.46875V34.916h2.00391V36.1582H22.77734v2.57032Zm0-8.20313q0-.293.00976-.66016.01026-.36766.0293-.75c-.14355.2002-.28809.40235-.43555.60547s-.29.3916-.42773.56641L16.85938,34.916h4.41406Z" fill="#fff"/></g></svg>