<svg xmlns="http://www.w3.org/2000/svg" viewBox="0 0 40 40"><g id="E62B_2_etron_distance_not_in_range"><path d="M31.992,5.6863q.7783-.028,1.62078-.10909V22.74437c-14.50716,2.24978-13.7617-6.91768-24.13625-2.56423V1.84522c7.74179-3.24265,9.99,1.40417,16.54674,3.19983" fill="none" stroke="#fff" stroke-width="1.2"/><path d="M5.99293,1.24917h1.2V35.24343h-1.2Z" fill="#fff" fill-rule="evenodd"/><path d="M22.89382,6.0462,18.86176,12.71h2.88l-1.152,5.43234,4.03206-7.14769h-2.88Z" fill="#fff"/><rect x="27.99887" width="2.00046" height="10.99808" fill="red"/><rect x="27.99918" y="12.99552" width="2.00046" height="2.00046" fill="red"/><path d="M16.00391,38.72852V37.58008l2.98047-2.86719q.48486-.46435.89257-.875.40869-.41016.74219-.7832.334-.37354.58789-.7168a5.4627,5.4627,0,0,0,.42774-.67187,3.15827,3.15827,0,0,0,.26171-.6504,2.47379,2.47379,0,0,0,.0879-.65429,2.42218,2.42218,0,0,0-.14649-.86328,1.66293,1.66293,0,0,0-.44531-.65625,2.02553,2.02553,0,0,0-.75781-.41407,3.61094,3.61094,0,0,0-1.084-.14453q-.49218,0-.93164.03907a7.651,7.651,0,0,0-.83594.11914,6.39726,6.39726,0,0,0-.752.19921,4.99852,4.99852,0,0,0-.67969.28321V27.60352a4.1262,4.1262,0,0,1,.625-.28125,5.59351,5.59351,0,0,1,.74024-.20508,7.4642,7.4642,0,0,1,.85742-.125q.457-.041.98437-.041a6.90328,6.90328,0,0,1,1.27149.10742,4.44738,4.44738,0,0,1,1.01172.3086,2.83941,2.83941,0,0,1,.76172.49414,2.66326,2.66326,0,0,1,.52539.66406,2.99,2.99,0,0,1,.30468.81836,4.46943,4.46943,0,0,1,.09766.959,3.6471,3.6471,0,0,1-.125.959,4.40409,4.40409,0,0,1-.35352.89453,6.20528,6.20528,0,0,1-.54687.85547q-.31786.42041-.70508.83984-.38671.42042-.834.84766-.44678.42774-.92383.87305l-2.01172,1.918h5.96484v1.23829Z" fill="#fff"/></g></svg>