<?xml version="1.0" encoding="utf-8"?>
<!-- Generator: Adobe Illustrator 25.2.3, SVG Export Plug-In . SVG Version: 6.00 Build 0)  -->
<svg version="1.1" id="Ebene_1" xmlns="http://www.w3.org/2000/svg" xmlns:xlink="http://www.w3.org/1999/xlink" x="0px" y="0px"
	 viewBox="0 0 40 40" style="enable-background:new 0 0 40 40;" xml:space="preserve">
<style type="text/css">
	.st0{fill:#FFFFFF;}
	.st1{fill:none;stroke:#FFFFFF;stroke-width:1.2;stroke-miterlimit:10;}
</style>
<rect x="33.8" y="14.3" class="st0" width="1.2" height="7.7"/>
<g id="Icon">
	<circle class="st0" cx="30" cy="36.8" r="1.2"/>
	<path class="st1" d="M26.7,33.8c1.8-1.8,4.8-1.8,6.6,0l0,0l0,0"/>
	<path class="st1" d="M36,30.9c-3.3-3.3-8.6-3.3-11.9,0c0,0,0,0,0,0l0,0"/>
	<path class="st1" d="M38.7,28.1c-4.6-4.8-12.2-5-17-0.4c-0.1,0.1-0.3,0.3-0.4,0.4"/>
</g>
<polygon class="st0" points="16.2,20.6 16.2,20.2 16.6,20.2 17.8,19 15,19 15,21.8 "/>
<polygon class="st0" points="15,28.2 15,31.5 16.2,31.5 16.2,27 "/>
<polygon class="st0" points="22.8,20.4 22.8,23.1 24,23.1 24,19.2 "/>
<polygon class="st0" points="6,30.8 5.2,30.8 5.2,14.2 4,14.2 4,32 4.8,32 "/>
<polygon class="st0" points="11.2,32 21,32 21,30.8 12.4,30.8 "/>
<polygon class="st0" points="31,12.2 36.9,16.9 37.6,16 31.9,11.3 "/>
<polygon class="st0" points="20,3.2 27.5,9.3 28.4,8.5 20,1.7 1.4,16 2.1,16.9 "/>
<rect x="-3.4" y="19.3" transform="matrix(0.7071 -0.7071 0.7071 0.7071 -8.3027 20.0077)" class="st0" width="46.8" height="1.5"/>
</svg>
