<?xml version="1.0" encoding="UTF-8"?>
<svg id="Ebene_1" data-name="Ebene 1" xmlns="http://www.w3.org/2000/svg" viewBox="0 0 40 40">
  <defs>
    <style>
      .cls-1 {
        fill: #fff;
      }
    </style>
  </defs>
  <path class="cls-1" d="M35.67154,31.17499h-.66699v-1.19922h.66699c1.17188,0,2.12598-.95117,2.12598-2.11914V10.25214c0-1.16797-.9541-2.11768-2.12598-2.11768H4.32877c-1.17188,0-2.12598,.94971-2.12598,2.11768V27.84003c0,1.16797,.9541,2.11914,2.12598,2.11914h.66797v1.19922h-.66797c-1.83398,0-3.3252-1.48828-3.3252-3.31836V10.25214c0-1.82959,1.49121-3.31787,3.3252-3.31787h31.34277c1.83398,0,3.3252,1.48828,3.3252,3.31787V27.85663c0,1.83008-1.49121,3.31836-3.3252,3.31836Z"/>
  <g>
    <polygon class="cls-1" points="15.77921 24.90057 7.00748 24.90057 7.00748 26.09979 16.98179 26.09979 15.77921 24.90057"/>
    <polygon class="cls-1" points="24.22056 24.90057 23.01804 26.09979 32.99283 26.09979 32.99283 24.90057 24.22056 24.90057"/>
  </g>
  <g>
    <polygon class="cls-1" points="11.76749 20.90009 7.00748 20.90009 7.00748 22.09979 12.97056 22.09979 11.76749 20.90009"/>
    <polygon class="cls-1" points="28.23203 20.90009 27.02903 22.09979 32.99283 22.09979 32.99283 20.90009 28.23203 20.90009"/>
  </g>
  <polygon class="cls-1" points="22.97803 15.98254 25.29413 15.98254 20.01862 10.5675 14.70563 15.98254 17.00476 15.98254 17.00476 21.00537 14.70563 21.00537 19.99988 26.28546 25.29413 21.00537 22.97803 21.00537 22.97803 15.98254"/>
  <rect class="cls-1" x="7.00748" y="32.90057" width="25.98535" height="1.19922"/>
  <rect class="cls-1" x="7.00748" y="28.90057" width="25.98535" height="1.19922"/>
</svg>