<svg xmlns="http://www.w3.org/2000/svg" viewBox="0 0 40 40"><defs><style>.cls-1{fill:none;stroke:#fff;stroke-miterlimit:10;stroke-width:1.2px;}.cls-1,.cls-2{fill-rule:evenodd;}.cls-2,.cls-3{fill:#fff;}</style></defs><g id="Icons"><path class="cls-1" d="M28.5,5.5v31h-17V5.5Z"/><path class="cls-2" d="M15,2H25V4H15Z"/><path class="cls-3" d="M22,31V27H18v4Z"/><path class="cls-3" d="M20.95523,25l.41789-2.9986q.03963-.33471.09949-.79842t.13433-1.00765q.07461-.544.14433-1.13675.06936-.59254.12431-1.189.05466-.59622.08959-1.168.03468-.57168.03483-1.074V10H18v5.62761q0,.5022.03483,1.074t.08959,1.168q.05449.59636.12431,1.189.06951.59282.13933,1.13675.06951.5439.13432,1.00765.06456.46377.11441.79842L19.04477,25Z"/></g></svg>