<svg id="E6A1_sitzklimabalance_lehne_lueftung" xmlns="http://www.w3.org/2000/svg" viewBox="0 0 40 40"><defs><style>.cls-1{fill:#fff;}.cls-2{fill:red;stroke:red;stroke-miterlimit:10;stroke-width:0.5px;}</style></defs><path id="Sitzflaeche" class="cls-1" d="M25.37891,37.09668h-16.23a2.7488,2.7488,0,0,1-2.61768-2.2373l-.69189-4.40333a2.80688,2.80688,0,0,1,2.96826-2.57324l3.51758.00293,1.40869-.00293a20.46913,20.46913,0,0,1,6.38183,1.16992A25.2838,25.2838,0,0,0,28.252,30.43945l.44434-.0039h0a.90759.90759,0,0,1,.78125.38769l.11523.1709-.01465.20508a1.34627,1.34627,0,0,1-.28124.66211l-1.457,3.58105A2.78034,2.78034,0,0,1,25.37891,37.09668ZM9.15576,35.89746H25.37891a1.55419,1.55419,0,0,0,1.36035-.93164l1.35254-3.32715a26.39642,26.39642,0,0,1-8.32471-1.4375A19.4909,19.4909,0,0,0,13.73535,29.082l-1.40918.00293-3.519-.00293c-.8374,0-1.7749.54785-1.7749,1.28125l.68115,4.292A1.52983,1.52983,0,0,0,9.15576,35.89746Z"/><path class="cls-2" d="M26.55176,27.749a.66251.66251,0,0,1-.65039-.67187V25.39453a37.85024,37.85024,0,0,0,2.6123-7.064,40.50855,40.50855,0,0,0,1.00391-4.90088A2.31855,2.31855,0,0,1,31.044,11.45361V10.19855a3.5181,3.5181,0,0,0-2.71778,3.09735A39.52519,39.52519,0,0,1,27.35449,18.02a36.34173,36.34173,0,0,1-2.58691,6.95752l-.06543.12891v1.9707a1.86182,1.86182,0,0,0,1.84961,1.87109h.05786L26.941,27.749Z"/><path id="Kopfstuetze" class="cls-1" d="M29.85547,9.187a1.41165,1.41165,0,0,1-1.0332-.4292,1.36148,1.36148,0,0,1-.374-1.01269c.00781-.73926.00391-1.36426,0-1.95655-.00293-.58789-.00586-1.12255.002-1.71826a1.39641,1.39641,0,0,1,1.498-1.38623l.12305.002c2.68359,0,4.22656,1.65527,4.334,4.66015a1.40185,1.40185,0,0,1-1.24609,1.36817c-1.24121.13916-2.73047.39746-3.01563.44775A1.68129,1.68129,0,0,1,29.85547,9.187Zm.082-5.30273c-.28418,0-.28613.11767-.28809.20361-.00683.58594-.00488,1.11377-.002,1.66992.00391.6211.00781,1.25293,0,2.02393a.1869.1869,0,0,0,.04492.14941.28434.28434,0,0,0,.2461.04834c.28808-.05078,1.80957-.31445,3.08886-.458a.261.261,0,0,0,.17871-.1372c-.085-2.35205-1.11328-3.49805-3.1455-3.49805Z"/><path class="cls-1" d="M32.84961,10.0542l-.05713.00311v1.20038l.07764-.00427a.93607.93607,0,0,1,.91211.93262,35.117,35.117,0,0,1-.88575,7.22753,31.218,31.218,0,0,1-2.709,7.938.68072.68072,0,0,1-.60742.39746h-.8208l-.33283,1.19922h1.15363a1.85905,1.85905,0,0,0,1.67285-1.0459,32.35013,32.35013,0,0,0,2.81543-8.22949,36.359,36.359,0,0,0,.91309-7.48584A2.14917,2.14917,0,0,0,32.84961,10.0542Z"/></svg>