<svg xmlns="http://www.w3.org/2000/svg" viewBox="0 0 145 40"><g id="E6BC_provider_sonos"><path d="M137.36554,12.94307a7.90536,7.90536,0,0,0-4.56663-1.57889c-2.6244,0-4.19418,1.45541-4.19418,2.86123,0,.59917,0,1.84508,4.94415,3.41688a17.82457,17.82457,0,0,1,5.54131,2.594A6.79694,6.79694,0,0,1,142,25.8343a7.45675,7.45675,0,0,1-2.65274,5.58988,9.941,9.941,0,0,1-6.54734,2.27724,11.50751,11.50751,0,0,1-8.41062-3.67395l-.42812-.50909,3.932-2.65578.34108.254a7.92593,7.92593,0,0,0,4.56562,1.57889c2.62542,0,4.19519-1.4544,4.19519-2.86123,0-.59917,0-1.84609-4.94516-3.41587a17.89621,17.89621,0,0,1-5.54028-2.595,6.79857,6.79857,0,0,1-2.90881-5.598,7.46,7.46,0,0,1,2.65274-5.58987,9.94283,9.94283,0,0,1,6.54531-2.27725,11.50916,11.50916,0,0,1,8.41265,3.674l.42813.50909-3.93306,2.65678Zm-32.81762,20.7624A13.65487,13.65487,0,1,1,118.20329,20.0501,13.67064,13.67064,0,0,1,104.54792,33.70547Zm0-22.402a8.74711,8.74711,0,1,0,8.65758,8.74665A8.7116,8.7116,0,0,0,104.54792,11.30345ZM66.70921,32.56078H61.83186V6.54351L78.2928,21.8891V7.27121h4.87634V33.35528L66.70921,18.03195ZM40.45208,33.60426A13.65487,13.65487,0,1,1,54.10745,19.9499,13.66977,13.66977,0,0,1,40.45208,33.60426Zm0-22.402a8.7476,8.7476,0,1,0,8.6596,8.74766A8.71377,8.71377,0,0,0,40.45208,11.20224ZM18.49134,20.17661a6.79939,6.79939,0,0,1,2.9088,5.597,7.4567,7.4567,0,0,1-2.65274,5.58988,9.94019,9.94019,0,0,1-6.54632,2.27725,11.50734,11.50734,0,0,1-8.41062-3.673l-.42914-.5101,3.93205-2.65577.34209.254a7.89339,7.89339,0,0,0,4.56562,1.5799c2.62541,0,4.19519-1.45541,4.19519-2.86225,0-.59815,0-1.84507-4.94516-3.41586a17.84723,17.84723,0,0,1-5.5413-2.594A6.80264,6.80264,0,0,1,3,14.16469,7.45738,7.45738,0,0,1,5.65375,8.57582a9.93634,9.93634,0,0,1,6.54632-2.27724,11.50676,11.50676,0,0,1,8.41164,3.67294l.42812.5101-3.932,2.65578-.34109-.255a7.92671,7.92671,0,0,0-4.56663-1.5789c-2.62541,0-4.19418,1.45542-4.19418,2.86124,0,.59917,0,1.84608,4.94415,3.41688A17.89209,17.89209,0,0,1,18.49134,20.17661Z" fill="#fff" fill-rule="evenodd"/></g></svg>