<svg xmlns="http://www.w3.org/2000/svg" viewBox="0 0 40 40"><g id="E6C3_minus15sec_prio1"><g style="isolation:isolate"><g style="isolation:isolate"><path d="M19.35948,27.455V14.15427l-3.9965.69543v-1.62l4.75-.93544h1.205V27.455Z" fill="#fff"/><path d="M28.25447,25.18571q.39246.16377.88035.31378c.32558.10033.67379.18984,1.04462.26558q.55772.11508,1.1597.18492a10.9654,10.9654,0,0,0,1.22856.06886,5.47584,5.47584,0,0,0,1.64463-.21738,3.00118,3.00118,0,0,0,1.12134-.61084,2.35713,2.35713,0,0,0,.64133-.93543,3.37692,3.37692,0,0,0,.20361-1.1961,2.21045,2.21045,0,0,0-.22131-1.01019,2.4599,2.4599,0,0,0-.60789-.76625,3.74331,3.74331,0,0,0-.89806-.55969,6.97191,6.97191,0,0,0-1.09576-.38362,10.93834,10.93834,0,0,0-1.203-.243q-.61821-.08853-1.21478-.13476c-.39837-.03148-.77806-.05115-1.13708-.062q-.53855-.01476-.961-.02557l.26952-7.57988h8.5035v1.66136H30.95061l-.16329,4.24732q.58428.031,1.21085.09246.62559.06049,1.2561.17607a12.20924,12.20924,0,0,1,1.24332.29411,7.747,7.747,0,0,1,1.16167.43968,5.677,5.677,0,0,1,1.01707.61576,3.95335,3.95335,0,0,1,.80855.82232,3.77332,3.77332,0,0,1,.53411,1.06134,4.27407,4.27407,0,0,1,.19378,1.32888,5.53449,5.53449,0,0,1-.14263,1.26791,4.32191,4.32191,0,0,1-.4328,1.12134,3.84774,3.84774,0,0,1-.74166.94133,4.263,4.263,0,0,1-1.07609.71806,6.145,6.145,0,0,1-1.4243.45935,8.93793,8.93793,0,0,1-1.78726.16427q-.692,0-1.31709-.0541a11.01468,11.01468,0,0,1-1.17741-.16132,8.00572,8.00572,0,0,1-1.01707-.26263,5.65654,5.65654,0,0,1-.842-.35509Z" fill="#fff"/></g></g><path d="M1.78723,19.9084h9.42169v1.2H1.78723Z" fill="#fff"/></g></svg>