<svg xmlns="http://www.w3.org/2000/svg" viewBox="0 0 40 40"><defs><style>.cls-1{fill:none;stroke:#fff;stroke-width:1.2px;}.cls-2{fill:#fff;}</style></defs><g id="E6C6_messaging_readout_start"><g id="V3"><polyline class="cls-1" points="5 12.5 0.6 12.5 0.6 27.5 5 27.5"/><polygon class="cls-1" points="12.5 27.491 25.5 36.5 25.5 3.5 12.5 12.5 7.5 12.5 7.5 27.5 12.5 27.491"/><path class="cls-2" d="M34.62807,29.63232l.8291.89405a14.39345,14.39345,0,0,0-.00684-20.97754l-.8291.89453a13.17669,13.17669,0,0,1,.00684,19.189Z"/><path class="cls-2" d="M31.67787,26.45264l.83008.89453A10.07,10.07,0,0,0,32.50209,12.73l-.82813.895a8.85446,8.85446,0,0,1,.00391,12.82764Z"/><path class="cls-2" d="M28.73256,23.27686l.82715.89209a5.72814,5.72814,0,0,0-.00293-8.25879l-.82715.89306a4.52082,4.52082,0,0,1,.00293,6.47364Z"/></g></g></svg>