<svg xmlns="http://www.w3.org/2000/svg" viewBox="0 0 40 40"><title>E6D4_textinput_btn_at</title><g id="E6D4_textinput_btn_at_prio2"><g style="isolation:isolate"><g style="isolation:isolate"><path d="M25.041,33.65527a6.98633,6.98633,0,0,1-.68946.249q-.36913.11278-.77344.20508-.40282.09228-.84765.168-.44385.07472-.92578.126t-1.002.0752q-.51855.0249-1.07226.02441a17.958,17.958,0,0,1-3.88379-.38965,12.99348,12.99348,0,0,1-3.1582-1.11426,9.894,9.894,0,0,1-2.44727-1.76367,9.66712,9.66712,0,0,1-1.73633-2.3418,11.35081,11.35081,0,0,1-1.03613-2.83984A14.89855,14.89855,0,0,1,7.124,22.793a17.60615,17.60615,0,0,1,.458-4.07813A14.82936,14.82936,0,0,1,8.9082,15.16016a12.86689,12.86689,0,0,1,2.12891-2.92969,12.73346,12.73346,0,0,1,2.85742-2.2041,14.23952,14.23952,0,0,1,3.50781-1.39453,16.44108,16.44108,0,0,1,4.0918-.48926A15.20626,15.20626,0,0,1,25.127,8.543a11.41792,11.41792,0,0,1,2.88477,1.11035,9.01543,9.01543,0,0,1,2.18066,1.69531A9.36714,9.36714,0,0,1,31.707,13.50586a10.34421,10.34421,0,0,1,.88086,2.49121,12.6406,12.6406,0,0,1,.28711,2.69434,12.98975,12.98975,0,0,1-.27344,2.748,10.59388,10.59388,0,0,1-.76172,2.29981,8.12158,8.12158,0,0,1-1.17187,1.832,7.10671,7.10671,0,0,1-1.50391,1.333,6.68033,6.68033,0,0,1-1.76367.81738A6.794,6.794,0,0,1,25.459,28.002a5.09384,5.09384,0,0,1-1.10449-.11621,3.69231,3.69231,0,0,1-.94336-.34179,2.74308,2.74308,0,0,1-.72461-.55372,2.05829,2.05829,0,0,1-.44824-.75878,4.73634,4.73634,0,0,1-.82031.7998,4.47172,4.47172,0,0,1-.98047.56348,5.40794,5.40794,0,0,1-1.13867.332,7.2762,7.2762,0,0,1-1.27735.10937,4.82034,4.82034,0,0,1-1.89843-.36621,4.29013,4.29013,0,0,1-1.49317-1.042,4.82219,4.82219,0,0,1-.98144-1.63379,6.15328,6.15328,0,0,1-.35156-2.13281,9.70688,9.70688,0,0,1,.22851-2.0918,9.35266,9.35266,0,0,1,.66992-1.97265,8.41069,8.41069,0,0,1,1.09375-1.7295,7.06929,7.06929,0,0,1,1.502-1.374,7.23139,7.23139,0,0,1,1.88281-.90918,7.36118,7.36118,0,0,1,2.252-.332,7.47852,7.47852,0,0,1,1.03906.07226,7.6369,7.6369,0,0,1,.97852.20118,5.49793,5.49793,0,0,1,.87793.32812,4.24613,4.24613,0,0,1,.749.458l.44336-.74512h1.85938L24.59766,24.81641a2.07632,2.07632,0,0,0-.05176.26953,1.96286,1.96286,0,0,0-.0166.25683.664.664,0,0,0,.09863.3584.92662.92662,0,0,0,.28418.28418,1.39674,1.39674,0,0,0,.4375.1875,2.24469,2.24469,0,0,0,.56641.06543,3.21017,3.21017,0,0,0,1.10742-.20215A3.62806,3.62806,0,0,0,28.084,25.4209a5.19455,5.19455,0,0,0,.94629-1.03906,6.70009,6.70009,0,0,0,.76563-1.47266,10.30437,10.30437,0,0,0,.50879-1.91113,13.85853,13.85853,0,0,0,.18554-2.36133,11.434,11.434,0,0,0-.22265-2.28418,8.46485,8.46485,0,0,0-.6875-2.044,7.00766,7.00766,0,0,0-1.18946-1.72265A6.91033,6.91033,0,0,0,26.665,11.26367a8.95722,8.95722,0,0,0-2.29981-.85156,12.97416,12.97416,0,0,0-2.91211-.30078,13.75753,13.75753,0,0,0-3.456.41406,11.06357,11.06357,0,0,0-2.90527,1.19238,10.09878,10.09878,0,0,0-2.32129,1.89356,10.92782,10.92782,0,0,0-1.70215,2.50879,12.99927,12.99927,0,0,0-1.0459,3.043A16.50722,16.50722,0,0,0,9.667,22.65625a14.18339,14.18339,0,0,0,.27637,2.87109,9.817,9.817,0,0,0,.834,2.4336,7.698,7.698,0,0,0,3.36328,3.40429,9.97712,9.97712,0,0,0,2.541.89161,14.85847,14.85847,0,0,0,3.123.30468q.86133,0,1.59961-.05859.73827-.05713,1.38086-.1709a11.47313,11.47313,0,0,0,1.20019-.27344,9.23923,9.23923,0,0,0,1.05567-.37207ZM24.002,17.043q-.27246-.12891-.59082-.24609a5.57985,5.57985,0,0,0-.68359-.19825,7.59679,7.59679,0,0,0-.78223-.12988,7.80526,7.80526,0,0,0-.86914-.04785,5.157,5.157,0,0,0-1.57812.23242,4.84014,4.84014,0,0,0-1.31641.64941,4.975,4.975,0,0,0-1.0459.99512,5.92274,5.92274,0,0,0-.76269,1.26856,7.157,7.157,0,0,0-.46875,1.46972,7.91021,7.91021,0,0,0-.16016,1.59278,4.84553,4.84553,0,0,0,.21191,1.5039,3.05278,3.05278,0,0,0,.59864,1.08692,2.458,2.458,0,0,0,.93652.65918,3.26117,3.26117,0,0,0,1.2334.22265,5.40624,5.40624,0,0,0,1.11523-.10644,4.41294,4.41294,0,0,0,.94336-.30761,4.29687,4.29687,0,0,0,.80957-.48536,6.52335,6.52335,0,0,0,.71387-.63184Z" fill="#fff"/></g></g></g></svg>