<svg xmlns="http://www.w3.org/2000/svg" viewBox="0 0 40 40"><title>E6D5_textinput_btn_domain</title><g id="E6D5_textinput_btn_domain_prio2"><g style="isolation:isolate"><g style="isolation:isolate"><path d="M2.67676,24.91309v-1.75H4.46094v1.75Z" fill="#fff"/><path d="M12.88477,24.5293a4.31482,4.31482,0,0,1-.47071.21679,4.53581,4.53581,0,0,1-.585.18457,6.07168,6.07168,0,0,1-.69043.124,6.15624,6.15624,0,0,1-.77441.04687A4.13326,4.13326,0,0,1,8.79,24.81934a3.02651,3.02651,0,0,1-1.1582-.82715A3.67165,3.67165,0,0,1,6.917,22.64746a6.28522,6.28522,0,0,1-.24414-1.83594,6.05054,6.05054,0,0,1,.10547-1.15332,4.43051,4.43051,0,0,1,.31836-1.00293,3.52834,3.52834,0,0,1,.5293-.8291,3.15654,3.15654,0,0,1,.74023-.627,3.50483,3.50483,0,0,1,.9541-.39746,4.6685,4.6685,0,0,1,1.1709-.1377q.33545,0,.66113.03223c.2168.02246.42286.05273.61817.09277a4.3048,4.3048,0,0,1,.5459.14551,2.906,2.906,0,0,1,.4414.18945v1.21289a4.46421,4.46421,0,0,0-.45117-.1748,5.22736,5.22736,0,0,0-.541-.14356q-.2915-.06151-.61132-.0996a5.50127,5.50127,0,0,0-.65137-.03907,2.51338,2.51338,0,0,0-1.05371.2041,1.91968,1.91968,0,0,0-.73633.583,2.58976,2.58976,0,0,0-.43359.92285,4.82316,4.82316,0,0,0-.14258,1.22168,5.12291,5.12291,0,0,0,.1582,1.35254,2.63562,2.63562,0,0,0,.459.95313,1.85983,1.85983,0,0,0,.72949.5664,2.43136,2.43136,0,0,0,.97363.18555,6.10682,6.10682,0,0,0,.794-.0459,5.62192,5.62192,0,0,0,.64746-.11914,4.42367,4.42367,0,0,0,.5332-.165c.16113-.06054.31152-.124.45313-.1875Z" fill="#fff"/><path d="M18.4834,25.10156a5.09607,5.09607,0,0,1-1.28125-.14844,3.61582,3.61582,0,0,1-1.00391-.418,3.03161,3.03161,0,0,1-.749-.65235,3.41369,3.41369,0,0,1-.5127-.84961,4.50984,4.50984,0,0,1-.291-1.01074,6.78466,6.78466,0,0,1-.09278-1.13769,6.21317,6.21317,0,0,1,.10059-1.13575A4.498,4.498,0,0,1,14.96,18.73633a3.55274,3.55274,0,0,1,.52539-.85254,3.11485,3.11485,0,0,1,.75781-.6543,3.66967,3.66967,0,0,1,.9961-.418,4.85816,4.85816,0,0,1,1.24414-.14746,5.13031,5.13031,0,0,1,1.28711.14746,3.64677,3.64677,0,0,1,1.00781.418,2.9724,2.9724,0,0,1,.75.6543,3.49683,3.49683,0,0,1,.50879.85254,4.63737,4.63737,0,0,1,.28906,1.01269,6.81849,6.81849,0,0,1,.0918,1.13965,6.37109,6.37109,0,0,1-.09766,1.13379,4.47428,4.47428,0,0,1-.30469,1.01074,3.51882,3.51882,0,0,1-.52636.84961,3.13256,3.13256,0,0,1-.75488.65235,3.61378,3.61378,0,0,1-.9961.418A4.92047,4.92047,0,0,1,18.4834,25.10156Zm0-1.1709a2.65489,2.65489,0,0,0,1.14648-.22265,1.98713,1.98713,0,0,0,.76367-.625,2.634,2.634,0,0,0,.42579-.96094,5.42533,5.42533,0,0,0,.13086-1.2334,5.544,5.544,0,0,0-.13086-1.24512,2.68641,2.68641,0,0,0-.42579-.9746,1.97992,1.97992,0,0,0-.76367-.63282,3.0134,3.0134,0,0,0-2.2832,0,1.97276,1.97276,0,0,0-.76465.63086,2.68077,2.68077,0,0,0-.42773.97266,5.42856,5.42856,0,0,0-.13282,1.24512,5.34191,5.34191,0,0,0,.13282,1.23535,2.65479,2.65479,0,0,0,.42773.96289,1.976,1.976,0,0,0,.76465.625A2.63942,2.63942,0,0,0,18.4834,23.93066Z" fill="#fff"/><path d="M36.19922,24.91309v-5.3252a2.35258,2.35258,0,0,0-.1211-.80176,1.29332,1.29332,0,0,0-.35546-.53711,1.4299,1.4299,0,0,0-.5752-.30371,2.98768,2.98768,0,0,0-.79394-.0957,4.46507,4.46507,0,0,0-.67872.0498,4.03633,4.03633,0,0,0-.624.14747,3.84,3.84,0,0,0-.582.24414,3.72915,3.72915,0,0,0-.53906.34082c.00488.16113.00879.32421.01269.4873q.00587.24609.00586.49512v5.29883H30.52637v-5.3252a2.38,2.38,0,0,0-.11914-.80176,1.28825,1.28825,0,0,0-.35254-.53711,1.43564,1.43564,0,0,0-.57813-.30371,3.00292,3.00292,0,0,0-.7959-.0957,4.373,4.373,0,0,0-.66894.0498,4.07543,4.07543,0,0,0-.61817.14551,3.9012,3.9012,0,0,0-.57617.24024,4.20122,4.20122,0,0,0-.54492.33593v6.292h-1.418V16.85156H26.126l.09961.749a4.1182,4.1182,0,0,1,.56152-.38379,4.00967,4.00967,0,0,1,.64551-.2959,4.41043,4.41043,0,0,1,.72558-.18945,4.639,4.639,0,0,1,.80371-.06739,4.8199,4.8199,0,0,1,.875.0752,3.21472,3.21472,0,0,1,.73633.22363,2.41948,2.41948,0,0,1,.58887.374,2.01989,2.01989,0,0,1,.43164.52832,3.95216,3.95216,0,0,1,.59766-.48925,4.06185,4.06185,0,0,1,.709-.37989,4.26,4.26,0,0,1,.81543-.24609,4.67217,4.67217,0,0,1,.915-.08594,4.89641,4.89641,0,0,1,.876.07324,3.19718,3.19718,0,0,1,.73437.21875,2.31521,2.31521,0,0,1,.58789.36622,2.06111,2.06111,0,0,1,.4336.52148,2.41722,2.41722,0,0,1,.26562.67871,3.66082,3.66082,0,0,1,.08887.83887v5.55176Z" fill="#fff"/></g></g></g></svg>