<svg xmlns="http://www.w3.org/2000/svg" viewBox="0 0 40 40"><title>E6DC_textinput_btn_hiragana_lower_case</title><g id="E6DC_textinput_btn_hiragana_lower_case_prio2"><g style="isolation:isolate"><g style="isolation:isolate"><path d="M16.72852,17.93945c-.73731,3.31055-2.0752,7.39649-4.14942,9.92969a9.35324,9.35324,0,0,0-1.61426-.88965c2.05176-2.39746,3.32032-6.32324,3.873-9.38183Zm5.94921-5.63769V30.44922c0,1.25586-.34668,1.75781-1.15332,2.05469a16.19113,16.19113,0,0,1-4.40332.29687,8.04493,8.04493,0,0,0-.71484-1.75781c1.68262.06836,3.34277.04492,3.78125.02246.4834,0,.668-.16016.668-.61621V12.30176Zm5.30274,5.13575a36.16654,36.16654,0,0,1,4.542,10.0664l-1.79883.7539a38.35793,38.35793,0,0,0-4.35742-10.2041Z" fill="#fff"/></g></g><path d="M32.47632,5.17119a2.61214,2.61214,0,1,1-2.61214,2.61214A2.61213,2.61213,0,0,1,32.47632,5.17119Z" fill="none" stroke="#fff" stroke-width="1.2"/><path d="M9.36486,4.93311,12.436,9.679" fill="none" stroke="#fff" stroke-width="1.2"/><path d="M4.91154,4.93311,7.98267,9.679" fill="none" stroke="#fff" stroke-width="1.2"/></g></svg>