<svg xmlns="http://www.w3.org/2000/svg" viewBox="0 0 40 40"><g id="E6E2_car_standlueftung_prio1"><path d="M1.47379,27.26114H14.10253v1.2H1.47379Z" fill="#fff" fill-rule="evenodd"/><path d="M21.26821,14.6839q-.11769-.24213-.24407-.49358l-.48369-1.21856a8.34951,8.34951,0,0,1-.48369-3.42812,13.21149,13.21149,0,0,1,.23811-2.69574" fill="none" stroke="#fff" stroke-width="1.2"/><path d="M13.2023,25.05351c1.3889-1.93228,2.02687-2.57639,2.02687-4.92584,0-1.62578-.6099-3.41818-1.87509-5.93735l-.48431-1.21856a8.34951,8.34951,0,0,1-.48369-3.42812,13.18192,13.18192,0,0,1,.23873-2.69574" fill="none" stroke="#fff" stroke-width="1.2"/><path d="M5.53162,25.05351c1.3889-1.93228,2.02686-2.57639,2.02686-4.92584,0-1.62578-.60927-3.41818-1.87508-5.93735l-.48431-1.21856A8.35994,8.35994,0,0,1,4.7154,9.54364,13.18051,13.18051,0,0,1,4.95413,6.8479" fill="none" stroke="#fff" stroke-width="1.2"/><path d="M7.12073,7.97217l-2.42488-6.243L2.271,7.97217Z" fill="#fff" fill-rule="evenodd"/><path d="M14.79129,7.97217l-2.42489-6.243-2.42488,6.243Z" fill="#fff" fill-rule="evenodd"/><path d="M22.47236,7.97217l-2.42488-6.243-2.42489,6.243Z" fill="#fff" fill-rule="evenodd"/><path d="M24.76173,16.20022a2.56644,2.56644,0,0,1,2.26429,1.226,3.98286,3.98286,0,0,1-.01358,2.68041,9.47977,9.47977,0,0,0-.04313,4.93472l.17651.31828,1.17279.20552.316-.49425a6.14661,6.14661,0,0,1,1.55426-4.47507,4.27189,4.27189,0,0,1,3.0502-1.24955,5.513,5.513,0,0,1,5.09885,4.03259A2.7539,2.7539,0,0,1,37.30481,26.751a2.50267,2.50267,0,0,1-1.07663.232,7.13715,7.13715,0,0,1-1.55066-.244,10.99974,10.99974,0,0,0-2.57818-.35622,8.904,8.904,0,0,0-2.29944.31189l-.31228.212-.16639,1.17241.55136.292c3.60848.028,5.20187,1.98474,5.50218,3.81694a5.49394,5.49394,0,0,1-4.01422,5.89235,3.46708,3.46708,0,0,1-1.1014.19049,2.5669,2.5669,0,0,1-2.26509-1.226,3.79336,3.79336,0,0,1,.012-2.60693,9.14026,9.14026,0,0,0,.05831-4.80653l-.14237-.3987-1.28229-.23736-.26386.57778a6.03839,6.03839,0,0,1-1.51511,4.39839,4.19172,4.19172,0,0,1-2.99749,1.2224,5.60475,5.60475,0,0,1-5.18112-4.10168,2.753,2.753,0,0,1,1.03351-3.37208,2.49911,2.49911,0,0,1,1.07584-.232,7.14073,7.14073,0,0,1,1.55106.244,10.99959,10.99959,0,0,0,2.57817.35622,8.9035,8.9035,0,0,0,2.29944-.31189l.2927-.12892L25.7201,26.528l-.47117-.41724c-3.674,0-5.29772-1.97916-5.60123-3.83173a5.48976,5.48976,0,0,1,4.01183-5.88835A3.46076,3.46076,0,0,1,24.76173,16.20022Z" fill="none" stroke="#fff" stroke-linejoin="round" stroke-width="1.2"/></g></svg>