<svg xmlns="http://www.w3.org/2000/svg" viewBox="0 0 40 40"><defs><style>.cls-1,.cls-3{fill:#fff;}.cls-1{fill-rule:evenodd;}.cls-2{fill:none;stroke:#fff;stroke-miterlimit:10;stroke-width:1.2px;}</style></defs><g id="Icon"><g id="V2"><polygon class="cls-1" points="20 36.371 25.372 32.029 14.628 32.029 20 36.371"/><rect class="cls-2" x="0.6" y="6.5" width="38.8" height="22"/><rect class="cls-3" x="3.49466" y="9.99969" width="3.00069" height="3.00069"/><rect class="cls-3" x="8.4994" y="9.99969" width="3.00069" height="3.00069"/><rect class="cls-3" x="6.49535" y="15.99965" width="3.00069" height="3.00069"/><rect class="cls-3" x="8.4994" y="21.99961" width="23.98574" height="3.00069"/><rect class="cls-3" x="11.50009" y="15.99965" width="3.00069" height="3.00069"/><rect class="cls-3" x="16.49929" y="15.99965" width="3.00069" height="3.00069"/><rect class="cls-3" x="21.50029" y="15.99965" width="3.00069" height="3.00069"/><rect class="cls-3" x="26.49983" y="15.99965" width="3.00069" height="3.00069"/><rect class="cls-3" x="31.50007" y="15.99965" width="3.00069" height="3.00069"/><rect class="cls-3" x="13.4986" y="9.99969" width="3.00069" height="3.00069"/><rect class="cls-3" x="18.49959" y="9.99969" width="3.00069" height="3.00069"/><rect class="cls-3" x="23.4981" y="9.99969" width="3.00069" height="3.00069"/><rect class="cls-3" x="28.49938" y="9.99969" width="3.00069" height="3.00069"/><rect class="cls-3" x="33.49165" y="9.99969" width="3.00069" height="3.00069"/></g></g></svg>