<svg id="E72E_000_garage" xmlns="http://www.w3.org/2000/svg" viewBox="0 0 40 40"><defs><style>.cls-1{fill:none;stroke:#fff;stroke-miterlimit:10;stroke-width:1.2px;}.cls-2{fill:#fff;}</style></defs><g id="mit-Zahlen"><polyline class="cls-1" points="4.5 31 4.5 9.5 34.5 9.5 34.5 24"/><path id="_5" data-name="5" class="cls-2" d="M30.34158,37.12357q.3003.12452.67579.24023.375.11573.80273.20313.42774.0879.89063.14062a8.32658,8.32658,0,0,0,.94335.05274,4.23613,4.23613,0,0,0,1.26368-.166,2.31349,2.31349,0,0,0,.86132-.46679,1.80278,1.80278,0,0,0,.49219-.71485,2.56563,2.56563,0,0,0,.15625-.91406,1.67762,1.67762,0,0,0-.16992-.77148,1.87933,1.87933,0,0,0-.4668-.58594,2.87675,2.87675,0,0,0-.68945-.42774,5.36814,5.36814,0,0,0-.8418-.293,8.49551,8.49551,0,0,0-.92382-.18554q-.4746-.06885-.9336-.10352-.45849-.03516-.873-.04687t-.73828-.01953l.207-5.793h6.53126v1.26957H32.4119l-.125,3.24609q.4497.02346.92968.07031.48048.04689.96485.13477a9.555,9.555,0,0,1,.95508.22461,5.99462,5.99462,0,0,1,.89257.33594,4.4376,4.4376,0,0,1,.78125.4707,3.0323,3.0323,0,0,1,.6211.62891,2.86378,2.86378,0,0,1,.41015.81054A3.26031,3.26031,0,0,1,37.99,35.479a4.16581,4.16581,0,0,1-.10937.96875,3.30618,3.30618,0,0,1-.332.85742,2.941,2.941,0,0,1-.57032.71875,3.24676,3.24676,0,0,1-.82617.54883,4.74571,4.74571,0,0,1-1.09375.35156,6.94486,6.94486,0,0,1-1.373.125q-.53173,0-1.01171-.041a8.61346,8.61346,0,0,1-.9043-.123,6.26966,6.26966,0,0,1-.78125-.20117,4.2621,4.2621,0,0,1-.64649-.27149Z"/></g></svg>