<svg xmlns="http://www.w3.org/2000/svg" viewBox="0 0 40 40"><defs><style>.cls-1{fill:none;stroke:#fff;stroke-miterlimit:10;stroke-width:1.2px;}.cls-2{fill:#fff;}</style></defs><g id="E72E_000_garage"><g id="mit-Zahlen"><polyline class="cls-1" points="4.5 31 4.5 9.5 34.5 9.5 34.5 24"/><path id="_2" data-name="2" class="cls-2" d="M30.053,38.86056V37.71213l2.98047-2.86719q.48486-.46436.89258-.875.40869-.41016.74219-.7832.334-.37354.58789-.7168a5.4609,5.4609,0,0,0,.42773-.67188,3.15782,3.15782,0,0,0,.26172-.65039,2.47349,2.47349,0,0,0,.08789-.65429,2.42237,2.42237,0,0,0-.14648-.86328,1.663,1.663,0,0,0-.44531-.65625,2.02543,2.02543,0,0,0-.75782-.41407,3.6108,3.6108,0,0,0-1.084-.14453q-.4922,0-.93164.03906a7.65229,7.65229,0,0,0-.83594.11915,6.4,6.4,0,0,0-.752.19921,4.99834,4.99834,0,0,0-.67969.28321V27.73556a4.129,4.129,0,0,1,.625-.28125,5.59587,5.59587,0,0,1,.74023-.20507,7.46571,7.46571,0,0,1,.85743-.125q.457-.041.98437-.041a6.90408,6.90408,0,0,1,1.27149.10742,4.447,4.447,0,0,1,1.01171.3086,2.839,2.839,0,0,1,.76172.49414,2.663,2.663,0,0,1,.52539.66406,2.98962,2.98962,0,0,1,.30469.81836,4.46924,4.46924,0,0,1,.09766.959,3.6472,3.6472,0,0,1-.125.959,4.40377,4.40377,0,0,1-.35352.89453,6.20633,6.20633,0,0,1-.54687.85547q-.31788.42041-.70508.83984-.38672.42041-.834.84766-.44676.42773-.92382.873l-2.01172,1.918h5.96484v1.23824Z"/></g></g></svg>