<svg id="Ebene_1" data-name="Ebene 1" xmlns="http://www.w3.org/2000/svg" xmlns:xlink="http://www.w3.org/1999/xlink" viewBox="0 0 40 40"><defs><style>.cls-1{fill-rule:evenodd;fill:url(#Unbenannter_Verlauf);}.cls-2{fill:none;stroke:#fff;stroke-miterlimit:10;stroke-width:1.2px;}.cls-3{fill:#fff;}</style><radialGradient id="Unbenannter_Verlauf" cx="-2038.2316" cy="524.08863" r="13.0265" gradientTransform="matrix(1.4375, 0, 0, -1.41304, 2950.04883, 759.0097)" gradientUnits="userSpaceOnUse"><stop offset="0" stop-color="#fff" stop-opacity="0.9"/><stop offset="0.90099" stop-color="#fff" stop-opacity="0"/></radialGradient></defs><g id="E72F_AI_glowing" data-name="E72F AI glowing"><path class="cls-1" d="M5.67589,35.514H34.32411c4.95606-3.33068,5.64474-8.86694,5.7668-14.837C40.09091,10.02456,32.385,1.389,20,1.389S.09091,10.02456.09091,20.677C.213,26.64705.71983,32.18331,5.67589,35.514Z"/><path class="cls-2" d="M9.60567,20.826a10.55942,10.55942,0,0,0,3.47938,7.4033,10.4768,10.4768,0,0,1,2.69766,6.98181v1.32528a1.8444,1.8444,0,0,0,1.785,1.90194q.04457.00141.08916.00067H22.32a1.8444,1.8444,0,0,0,1.87483-1.81345q.00073-.04458-.00067-.08916V35.2111a10.47674,10.47674,0,0,1,2.69765-6.98181A10.37,10.37,0,0,0,27.68,13.59583a11.35049,11.35049,0,0,0-7.68041-3.27894A10.2887,10.2887,0,0,0,9.60567,20.826Z"/><line class="cls-2" x1="15.75069" y1="35.42935" x2="24.20452" y2="35.42935"/><line class="cls-2" x1="15.41333" y1="32.48464" x2="24.54393" y2="32.48464"/><line class="cls-2" x1="14.14" y1="29.48398" x2="25.84" y2="29.48398"/><path class="cls-3" d="M24.527,19.80617l-.70976-1.11968a.74216.74216,0,0,0-1.43413.10893l-.38746.91642c-.137.32568-.32231.5121-.50649.5121s-.36948-.18642-.5065-.5121l-.38633-.91642c-.15384-.36161-.36386-.56713-.59857-.57724-.23023.01011-.44024.21563-.59409.57724l-.38633.91642c-.137.32568-.32232.5121-.5065.5121s-.36948-.18642-.50649-.5121l-.38746-.91642a.74216.74216,0,0,0-1.43413-.10893L15.473,19.80617a3.84281,3.84281,0,0,0-.41665,2.65151l1.52846,5.79043a13.87542,13.87542,0,0,0,.49527,1.56216l.01572.02808h1.17246l-.0539-.6693-1.65649-6.14869a3.7106,3.7106,0,0,1-.03033-2.12816.38073.38073,0,0,1,.34029-.228c.42114,0,.75693.7199.85014.94111l.38745.91753c.1168.2774.26841.44361.40542.44361.13589,0,.2875-.16621.40542-.44361l.38632-.91753c.23023-.54355.53121-.63677.68955-.64462l-.0023-.057h0l.018.057c.15834.00786.45932.10108.68955.64462l.38632.91753c.11792.2774.26954.44361.40542.44361.137,0,.28865-.16621.40542-.44361l.38746-.91753c.09315-.22124.429-.94111.85013-.94111a.38073.38073,0,0,1,.34029.228,3.71017,3.71017,0,0,1-.03032,2.12816l-1.6565,6.14869-.0539.6693H22.912l.01348-.03931c.09321-.27963.42451-1.30386.49076-1.55093l1.52735-5.79043A3.84279,3.84279,0,0,0,24.527,19.80617Z"/></g></svg>