<svg xmlns="http://www.w3.org/2000/svg" viewBox="0 0 40 40"><title>E730_restroom_asia</title><g id="Icon"><path d="M8.15857,4.37774a3.28611,3.28611,0,1,0,3.28349,3.28649A3.28464,3.28464,0,0,0,8.15857,4.37774Z" fill="none" stroke="#fff" stroke-width="1.2"/><path d="M8.171,35.57353H9.99662a1.56779,1.56779,0,0,0,1.56779-1.56779l-.00074-8.50453L13.5,25.5V15.58278A1.837,1.837,0,0,0,11.67225,13.5L8.171,13.426l-.013.00044L4.65675,13.5A2.09521,2.09521,0,0,0,2.5,15.58322V25.5h2v8.50618A1.81574,1.81574,0,0,0,6.33238,35.574H8.158Z" fill="none" stroke="#fff" stroke-width="1.2" fill-rule="evenodd"/><path d="M30.87624,4.38124a3.28611,3.28611,0,1,0,3.28349,3.28649A3.28464,3.28464,0,0,0,30.87624,4.38124Z" fill="none" stroke="#fff" stroke-width="1.2"/><path d="M30.87608,13.403h-.8315c-2.01249,0-2.50488.8302-3.33983,3.33745s-2.5092,10.85684-2.5092,10.85684l2.83775-.002c.217,2.09788.48238,4.43717.69919,5.89459.215,1.445.44194,2.01012,2.03152,2.01012h2.16753c1.58958,0,1.81657-.56529,2.03152-2.01029.21681-1.45742.48217-3.79671.69919-5.89459l2.83775.002s-1.67424-8.34959-2.50919-10.85684-1.32735-3.33745-3.33984-3.33745h-.8315Z" fill="none" stroke="#fff" stroke-width="1.2" fill-rule="evenodd"/><line x1="19.50462" y1="3.72005" x2="19.50462" y2="36.27995" fill="none" stroke="#fff" stroke-width="1.2"/></g></svg>