<svg xmlns="http://www.w3.org/2000/svg" viewBox="0 0 40 40"><title>E732_avoid_traffic_asia</title><g id="Icon"><rect x="13.97548" y="11.97684" width="4.95504" height="1" fill="#fff"/><rect x="30.96774" y="11.96774" width="4.95504" height="1" fill="#fff"/><polygon points="15.885 8.6 15.885 8 14.038 8 14.038 8.962 15.678 9 15.885 8.6" fill="#fff"/><polygon points="34.245 9 36.038 9 35.962 8 34.038 8 34.038 8.6 34.245 9" fill="#fff"/><line x1="15.70089" y1="9.5" x2="33.76934" y2="9.5" fill="none" stroke="#fff" stroke-miterlimit="10"/><polygon points="26.577 21 29.038 21.038 29 20 26.423 20 26.418 21.012 26.577 21" fill="#fff"/><polygon points="3 25 7.968 25 8.032 26 3.028 25.993 3 25" fill="#fff"/><polygon points="23 25 28.2 25 28.2 26 23.032 26 23 25" fill="#fff"/><polygon points="4.754 21.012 4.808 20 2 20.038 2 21 4.423 21 4.754 21.012" fill="#fff"/><line x1="4.59591" y1="21.5" x2="26.14055" y2="21.5" fill="none" stroke="#fff" stroke-miterlimit="10" stroke-width="1.2"/><path d="M25.67676,32.416c0-.06165.00775-.12134.00928-.18262h-.74268c-.22754,0-.3291-.04785-.3291-.3291V30.14355H6.55811V31.9043a.42159.42159,0,0,1-.32911.3291H3.51465c-.22754,0-.32861-.04785-.32861-.3291V23.42188L5.50781,22.0293V20.707c.79-1.19824,2.23438-3.04443,2.98047-3.30078a63.29278,63.29278,0,0,1,7.09766-.22363,63.28627,63.28627,0,0,1,7.09765.22363c.73633.12256,2.17481,1.98486,2.98145,3.291v1.332l2.32129,1.39355V27.077a7.39135,7.39135,0,0,1,1.19922-.92023V22.74316l-2.32129-1.39355v-.98682l-.085-.14258c-.373-.62109-2.31153-3.73291-3.89844-3.99755-1.44141-.24024-5.84717-.24024-7.29492-.24024a70.21046,70.21046,0,0,0-7.38623.2627c-1.54834.5166-3.57129,3.6084-3.79688,3.95947l-.09521.148v.99707L1.98584,22.74219V31.9043a1.44712,1.44712,0,0,0,1.52881,1.52832H6.229A1.5893,1.5893,0,0,0,7.7583,31.9043v-.56153H23.415v.56153a1.447,1.447,0,0,0,1.52832,1.52832h.81207A7.349,7.349,0,0,1,25.67676,32.416Z" fill="#fff"/><circle cx="33.035" cy="32.416" r="4.75839" fill="none" stroke="#fff" stroke-miterlimit="10" stroke-width="1.2"/><rect x="30.635" y="31.816" width="4.8" height="1.2" fill="#fff"/><path d="M34.415,9.37994V8.34766s-1.85816-3.09693-3.09692-3.30341-5.1615-.20642-6.40027-.20642-5.1615,0-6.40027.20642c-1.23877.413-3.09686,3.30341-3.09686,3.30341V9.37994l-2.06464,1.23877v3.37445q.50793-.00531,1-.0075V11.18488l1.5791-.94745.48554-.29132V8.647A9.58176,9.58176,0,0,1,18.7749,6.01642a61.11045,61.11045,0,0,1,6.143-.17859,56.49137,56.49137,0,0,1,6.22986.19165A7.87681,7.87681,0,0,1,33.415,8.63037V9.94611l.48547.29132,1.5791.94745v7.105l-2.955-.00147V16.43188H26.498c.28564.32044.55987.65394.818,1H31.5246v1.03229a.75626.75626,0,0,0,.8258.82587h3.30335a.88812.88812,0,0,0,.82586-.82587V10.61871Z" fill="#fff"/></g></svg>