<svg xmlns="http://www.w3.org/2000/svg" viewBox="0 0 40 40"><title>E733_no_highway_asia</title><g id="Icon"><path d="M1.65332,13.71014V15.4574h2.621v4.36828h3.0578L8.35132,15.4574H31.64868l1.01923,4.36828h3.0578V15.4574h2.621V13.71014Z" fill="#fff" fill-rule="evenodd"/><polygon points="22.16 11.08 22.16 5.109 24.536 5.093 26.081 11.07 27.32 11.07 25.44 4 20.96 4 20.96 11.08 22.16 11.08" fill="#fff"/><polygon points="13.919 11.07 15.464 5.092 17.76 5.149 17.76 11.12 18.96 11.12 18.96 4 14.536 4 12.679 11.07 13.919 11.07" fill="#fff"/><polygon points="17.76 18.13 17.76 32.961 8.275 32.9 12.109 18.07 10.87 18.07 6.725 34 18.96 34 18.96 18.13 17.76 18.13" fill="#fff"/><circle cx="33.035" cy="32.416" r="4.75839" fill="none" stroke="#fff" stroke-miterlimit="10" stroke-width="1.2"/><rect x="30.635" y="31.816" width="4.8" height="1.2" fill="#fff"/><path d="M31.02252,25.34436,29.12994,18.07H27.8913l1.99249,7.7066A7.29127,7.29127,0,0,1,31.02252,25.34436Z" fill="#fff"/><path d="M25.702,32.91315l-3.58228.00763V18.09039H21V34h4.853A7.33459,7.33459,0,0,1,25.702,32.91315Z" fill="#fff"/></g></svg>