<svg xmlns="http://www.w3.org/2000/svg" viewBox="0 0 40 40"><g id="E735_roaming"><path d="M38.15723,38.98946l-2.28614-3.64453a3.75279,3.75279,0,0,0-.43945-.60938,1.07175,1.07175,0,0,0-.38184-.26562,1.37834,1.37834,0,0,0-.49316-.07813H33.4082v4.59766H32.0166V28.03731h3.35645a4.827,4.827,0,0,1,1.95507.34375,2.37605,2.37605,0,0,1,1.15528,1.0332,3.56206,3.56206,0,0,1,.38281,1.73926,3.64243,3.64243,0,0,1-.27148,1.45313,2.59469,2.59469,0,0,1-.8086,1.043,3.33415,3.33415,0,0,1-1.30957.59082,1.84947,1.84947,0,0,1,.42871.335,3.7806,3.7806,0,0,1,.417.52539l2.45214,3.88867Zm-3.05762-5.67188a3.04639,3.04639,0,0,0,1.28711-.24121,1.66605,1.66605,0,0,0,.78027-.72461,2.48269,2.48269,0,0,0,.2627-1.19824,2.34535,2.34535,0,0,0-.24219-1.13184,1.49013,1.49013,0,0,0-.74219-.6582,3.22768,3.22768,0,0,0-1.2832-.21875H33.4082v4.17285Z" fill="#fff"/></g></svg>