<svg xmlns="http://www.w3.org/2000/svg" viewBox="0 0 40 40"><defs><style>.cls-1{fill:#fff;}.cls-2{fill:none;stroke:#fff;stroke-miterlimit:10;stroke-width:1.2px;}</style></defs><g id="E738_local_search_phone"><g id="V2-8" data-name="V2"><rect class="cls-1" x="1" y="17" width="6" height="6" transform="translate(8 40) rotate(-180)"/><rect class="cls-1" x="9" y="17" width="6" height="6" transform="translate(24 40) rotate(-180)"/><rect class="cls-1" x="1" y="25" width="6" height="6" transform="translate(8 56) rotate(-180)"/><rect class="cls-1" x="9" y="25" width="6" height="6" transform="translate(24 56) rotate(-180)"/><rect class="cls-1" x="17" y="25" width="6" height="6" transform="translate(40 56) rotate(-180)"/><rect class="cls-1" x="9" y="33" width="6" height="6" transform="translate(24 72) rotate(-180)"/><rect class="cls-1" x="1" y="9" width="6" height="6" transform="translate(8 24) rotate(-180)"/><rect class="cls-1" x="33.03323" y="14.54396" width="2.5304" height="12.20442" transform="translate(73.15012 10.99256) rotate(135)"/><circle class="cls-2" cx="24" cy="10" r="8.5"/><path class="cls-1" d="M17,18.47858V23h6V20.94934A10.94865,10.94865,0,0,1,17,18.47858Z"/><path class="cls-1" d="M13,10c0-.33752.02075-.6701.05066-1H9v6h5.21429A10.91882,10.91882,0,0,1,13,10Z"/></g></g></svg>