<svg xmlns="http://www.w3.org/2000/svg" viewBox="0 0 40 40"><title>E73D_navigation_on_side_road_asia</title><g id="Icon"><path d="M3.33868,29.37891H5.06837a10.70674,10.70674,0,0,0,.61094-1.97657,4.97,4.97,0,0,0,1.22109.41641,16.42392,16.42392,0,0,0-.76328,1.56016h4.01953q1.01719,0,1.9336-.05235v1.03985q-.866-.0504-1.9336-.05157h-4.325q-.35742.72774-.89062,1.58672-.5332.85782-1.14453,1.68907v3.84921q0,1.04062.05078,2.07969H2.72853q.04922-1.03946.05078-2.07969V34.47578a11.23216,11.23216,0,0,1-1.73047,1.55938,3.893,3.893,0,0,0-.71172-.83125A13.3924,13.3924,0,0,0,1.609,34.24219a8.51229,8.51229,0,0,0,1.17031-1.1711v-.52031H3.2879a17.50869,17.50869,0,0,0,1.42422-2.23594H3.33868q-1.27148,0-2.08593.05157V29.32656Q2.11759,29.3793,3.33868,29.37891Zm3.15469,4.10781h1.068V32.707q0-.98672-.05078-1.55937H8.68087q-.05156.51914-.05078,1.55937v.77969h1.018q.91523,0,1.7289-.05156v1.04062q-.76289-.05273-1.7289-.05234h-1.018v3.22422h1.83125q.91524,0,1.832-.05157v1.03985q-.86484-.05274-1.832-.05235H6.28946q-1.323,0-1.98437.05235V37.59609q.66093.05157,1.98437.05157H7.56134V34.42344h-1.068q-.91641,0-1.67891.05234V33.43516Q5.57736,33.48788,6.49337,33.48672Z" fill="#fff"/><path d="M16.77931,27.90156a9.93722,9.93722,0,0,0-.46641,1.48907h.97578a7.24306,7.24306,0,0,0,1.06016-.05157v.975a8.843,8.843,0,0,0-1.14453-.05156H16.14337a22.76389,22.76389,0,0,1-1.018,2.87578h1.10235q0-1.02772-.04219-1.69453h.89062q-.04218.51328-.04218,1.69453h1.18828v.87266H17.034v1.53984q.55077-.102,1.48515-.35859c-.057.4789-.08437.78672-.08437.92344q-.552.10312-1.40078.30781,0,2.15742.04218,3.132h-.89062q.04218-.975.04219-2.92656a16.67949,16.67949,0,0,0-2.16329.6164,4.57052,4.57052,0,0,0-.29765-1.02734q.46641-.05039,2.46094-.51328V34.01094a9.91331,9.91331,0,0,0-1.37891.05156q-.2332.05038-.61563.15391l-.29687-.97578a1.78568,1.78568,0,0,0,.61562-.84688,16.923,16.923,0,0,0,.74219-2.13125q-.76406,0-1.44219.05156v-.975q.72071.05157,1.6125.05157a13.94247,13.94247,0,0,0,.33907-1.79766A6.227,6.227,0,0,0,16.77931,27.90156Zm3.09375,1.59063h1.52812c0-.4961-.01718-1.07969-.05234-1.75391h1.05391a14.23,14.23,0,0,0-.05313,1.75391H23.984a11.76016,11.76016,0,0,0,1.26484-.05313V30.343q-.63282-.05274-1.21172-.05313h-1.6875v1.27657h2.53047q-.05274.58476-.05313,1.54218v4.8375a1.32,1.32,0,0,1-.23671,1.01094,2.32564,2.32564,0,0,1-1.29141.47813,3.01346,3.01346,0,0,0-.47422-.957,2.03538,2.03538,0,0,0,.86953-.18594.66052.66052,0,0,0,.18438-.5586v-.957H22.34962v1.91407h-.94844V36.77656H19.87306v2.6586H18.8715q.05272-1.80821.05234-4.22657,0-2.41875-.05234-3.64218h2.52968V30.28984H19.87306q-.68555,0-1.318.05313v-.90391Q19.18789,29.493,19.87306,29.49219Zm0,4.2539h1.52812v-1.382H19.87306Zm0,2.23282h1.52812V34.54375H19.87306Zm2.47656-2.23282h1.52891v-1.382H22.34962Zm0,2.23282h1.52891V34.54375H22.34962Zm1.21328-8.50625q.73712.798,1.21172,1.382a7.61134,7.61134,0,0,0-.79062.6375,12.55983,12.55983,0,0,0-1.10625-1.43438Q23.24689,27.73906,23.5629,27.47266Z" fill="#fff"/><path d="M31.38478,37.44688q-2.42929.825-3.107,1.057a6.82991,6.82991,0,0,0-1.05079.43828,3.03868,3.03868,0,0,0-.42109-.97969l.70078-.20625V34.6625q0-.61875-.04687-1.08281H28.4879q-.04687.46406-.04687,1.08281v2.83594l.79453-.25781V32.08438H27.6465q.04688-.77345.04765-1.77891,0-1.00547-.04765-1.882h3.832q-.048.825-.04766,1.85625,0,1.03242.04766,1.80469h-1.3086v1.59843q.79337,0,1.54141-.05156v.92813q-.74766-.0504-1.54141-.05157v2.42344l1.26094-.46406A7.44114,7.44114,0,0,0,31.38478,37.44688Zm-2.757-6.1875h1.86953V29.24844H28.62775ZM35.091,27.87344a6.34121,6.34121,0,0,0-.71485,1.16015h3.47735a11.28085,11.28085,0,0,1-.81016,1.74141,12.03972,12.03972,0,0,1-1.04766,1.58984,4.99748,4.99748,0,0,0,1.357.70625,5.71108,5.71108,0,0,0,1.45234.30313,3.75934,3.75934,0,0,0-.57109,1.11016,8.5764,8.5764,0,0,1-1.3336-.50391,9.48411,9.48411,0,0,1-1.61875-.90938q-.57188.4547-1.23828.90938a9.476,9.476,0,0,1-1.61875.857,2.77031,2.77031,0,0,0-.61875-.857,5.60506,5.60506,0,0,0,1.49922-.657,5.9445,5.9445,0,0,0,1.21406-.9586A12.27336,12.27336,0,0,1,33.56759,30.8a14.29031,14.29031,0,0,1-.857,1.16094,1.82617,1.82617,0,0,0-.76172-.60547,8.14509,8.14509,0,0,0,1.28516-1.868,10.07176,10.07176,0,0,0,.80937-2.01875A3.54884,3.54884,0,0,0,35.091,27.87344Zm2.33359,6.7625q-.048.95976-.04766,2.19531,0,1.2375.04766,2.49844h-.90547v-.9586H34.13868v1.0086H33.234q.048-1.16016.04765-2.42188,0-1.2621-.04765-2.32187ZM35.234,31.70781a6.322,6.322,0,0,0,1.19062-1.8664H34.13868A6.80616,6.80616,0,0,0,35.234,31.70781ZM34.13868,37.5625h2.38047V35.443H34.13868Z" fill="#fff"/><line x1="12.5" y1="19" x2="12.5" y2="10.5" fill="none" stroke="#fff" stroke-miterlimit="10" stroke-width="1.2"/><polygon points="12.5 8.06 9.62 10.94 15.38 10.94 12.5 8.06" fill="#fff"/><line x1="2.5" y1="1" x2="2.5" y2="25" fill="none" stroke="#fff" stroke-miterlimit="10" stroke-width="1.2"/><line x1="22.5" y1="1" x2="22.5" y2="25" fill="none" stroke="#fff" stroke-miterlimit="10" stroke-width="1.2"/><line x1="31" y1="24" x2="31" y2="7" fill="none" stroke="#fff" stroke-miterlimit="10" stroke-width="4.8"/><polygon points="31 2.08 25.24 7.84 36.76 7.84 31 2.08" fill="#fff"/></g></svg>