<svg xmlns="http://www.w3.org/2000/svg" viewBox="0 0 40 40"><title>E73E_navigation_on_bridge_road_asia</title><g id="Icon"><path d="M4.13868,29.37891H5.86837a10.70674,10.70674,0,0,0,.61094-1.97657,4.97,4.97,0,0,0,1.22109.41641,16.42392,16.42392,0,0,0-.76328,1.56016h4.01953q1.01719,0,1.9336-.05235v1.03985q-.866-.0504-1.9336-.05157h-4.325q-.35742.72774-.89062,1.58672-.53321.85782-1.14453,1.68907v3.84921q0,1.04062.05078,2.07969H3.52853q.04922-1.03946.05078-2.07969V34.47578a11.23268,11.23268,0,0,1-1.73047,1.55938,3.893,3.893,0,0,0-.71172-.83125A13.39411,13.39411,0,0,0,2.409,34.24219a8.51285,8.51285,0,0,0,1.17031-1.1711v-.52031H4.0879a17.50939,17.50939,0,0,0,1.42422-2.23594H4.13868q-1.27147,0-2.08593.05157V29.32656Q2.91759,29.3793,4.13868,29.37891Zm3.15469,4.10781h1.068V32.707q0-.98672-.05078-1.55937H9.48087q-.05155.51914-.05078,1.55937v.77969h1.018q.91523,0,1.7289-.05156v1.04062q-.76288-.05274-1.7289-.05234h-1.018v3.22422h1.83125q.91524,0,1.832-.05157v1.03985q-.86484-.05274-1.832-.05235H7.08946q-1.323,0-1.98437.05235V37.59609q.66093.05157,1.98437.05157H8.36134V34.42344h-1.068q-.91641,0-1.67891.05234V33.43516Q6.37736,33.48788,7.29337,33.48672Z" fill="#fff"/><path d="M17.24962,37.13359q0,1.13907.04453,2.27813h-.88047q.04337-1.19179.04375-2.27813V33.35312a9.83784,9.83784,0,0,1-.76953,1.68282,12.80718,12.80718,0,0,1-.81328,1.26953,7.79954,7.79954,0,0,0-.66016-.67344,10.03857,10.03857,0,0,0,1.27579-2.14922,13.72427,13.72427,0,0,0,.83593-2.35625q-1.27734,0-1.76015.05157v-.9836q.6164.05157,1.8914.05156V28.95078q0-.77579-.04375-1.45h.88047q-.04453.57071-.04453,1.45v1.29531q.83555,0,1.53984-.05156v.9836q-.61522-.0504-1.53984-.05157Zm.57266-5.075q.65859,1.03594,1.14375,1.86407-.44063.36327-.74766.67265a16.74124,16.74124,0,0,0-1.0125-1.96719C17.46915,32.38672,17.6754,32.19687,17.82228,32.05859Zm1.41718,3.02422a3.34877,3.34877,0,0,0-.693-.83515,5.64465,5.64465,0,0,0,1.82578-1.4625,5.17033,5.17033,0,0,0,.94765-1.62032h-.60156c-.61562,0-1.14062.018-1.57187.05235v-.93985q1.10976.05274,1.52578.05235h.8789a9.95311,9.95311,0,0,0,.32344-1.46328q-1.10976.10547-1.94141.20937a1.69174,1.69174,0,0,0-.32343-.88828q1.248-.05038,2.40312-.20781a17.36455,17.36455,0,0,0,1.78047-.31407,3.90452,3.90452,0,0,0,.90156-.31406q.184.41837.4625.94063-.60234.10546-2.31172.418a10.58144,10.58144,0,0,1-.36953,1.61953H24.3254q.83087,0,1.66406-.05235v.93985q-.83319-.05157-1.3875-.05235h-.693a4.80635,4.80635,0,0,0,.97109,1.72422,4.38335,4.38335,0,0,0,1.43281,1.09766,3.12755,3.12755,0,0,0-.64765.93984,7.0165,7.0165,0,0,1-1.57188-1.51562v3.1875q0,1.93359.04688,2.71562h-.925q.04569-1.09687.04609-2.08906V34.76953a10.52966,10.52966,0,0,0-.04609-1.35859h.83281q-.13946-.26016-.46328-.8086a11.79644,11.79644,0,0,1-.693-1.4375H22.291A8.22828,8.22828,0,0,1,19.23946,35.08281Zm2.4961-1.46172a4.36381,4.36381,0,0,0-.18438,1.41016,11.53064,11.53064,0,0,1-.11562,1.67187,3.8679,3.8679,0,0,1-.46328,1.38438,4.88405,4.88405,0,0,1-1.08516,1.22656,2.38308,2.38308,0,0,0-.69375-.62656,2.98981,2.98981,0,0,0,1.17891-1.27969,4.73659,4.73659,0,0,0,.34609-1.61875q.04571-.91405.04688-2.325A4.6141,4.6141,0,0,0,21.73556,33.62109Z" fill="#fff"/><path d="M33.72306,27.69531q-.0504.81446-.05,1.62735v2.2375h2.7125q.90234,0,1.90781-.05079v1.068q-1.05468-.05038-2.00859-.05078H33.67306v5.28906h3.96719q.55194,0,1.607-.05156v1.06875q-.95391-.05156-1.757-.05078H29.45509q-.80391,0-1.85781.05078V37.76406q1.00313.05274,1.85781.05156h3.11406V29.37344q0-.7629-.05078-1.67813Z" fill="#fff"/><polyline points="1.667 23.457 9.267 15.543 30.467 15.543 38.067 23.457" fill="none" stroke="#fff" stroke-miterlimit="10" stroke-width="1.2"/><line x1="10" y1="7.5" x2="27" y2="7.5" fill="none" stroke="#fff" stroke-miterlimit="10" stroke-width="4"/><polygon points="32.212 7.5 26.452 1.74 26.452 13.26 32.212 7.5" fill="#fff"/><line x1="14.03296" y1="21.5" x2="22.61123" y2="21.5" fill="none" stroke="#fff" stroke-miterlimit="10" stroke-width="1.2"/><polygon points="22.111 24.417 25.189 21.537 22.111 18.657 22.111 24.417" fill="#fff"/></g></svg>