<svg xmlns="http://www.w3.org/2000/svg" viewBox="0 0 40 40"><title>E740_navigation_under_bridge_asia</title><g id="Icon"><path d="M4.13868,29.40076H5.86837a10.70667,10.70667,0,0,0,.61094-1.97656,4.97,4.97,0,0,0,1.22109.4164,16.42392,16.42392,0,0,0-.76328,1.56016h4.01953q1.01719,0,1.9336-.05234v1.03984q-.866-.05039-1.9336-.05156h-4.325q-.35742.72772-.89062,1.58672-.53321.8578-1.14453,1.68906V37.4617q0,1.04062.05078,2.07969H3.52853q.04922-1.03946.05078-2.07969V34.49764A11.23256,11.23256,0,0,1,1.84884,36.057a3.89326,3.89326,0,0,0-.71172-.83125A13.3924,13.3924,0,0,0,2.409,34.264,8.51282,8.51282,0,0,0,3.57931,33.093v-.52031H4.0879A17.51009,17.51009,0,0,0,5.51212,30.3367H4.13868q-1.27147,0-2.08593.05156V29.34842Q2.91759,29.40115,4.13868,29.40076Zm3.15469,4.10781h1.068v-.77968q0-.98673-.05078-1.55938H9.48087q-.05155.51914-.05078,1.55938v.77968h1.018q.91523,0,1.7289-.05156v1.04063q-.76288-.05274-1.7289-.05235h-1.018v3.22422h1.83125q.91524,0,1.832-.05156v1.03984q-.86484-.05273-1.832-.05234H7.08946q-1.323,0-1.98437.05234V37.618q.66093.05156,1.98437.05156H8.36134V34.44529h-1.068q-.91641,0-1.67891.05235V33.457Q6.37736,33.50975,7.29337,33.50857Z" fill="#fff"/><path d="M17.24962,37.15545q0,1.13905.04453,2.27812h-.88047q.04337-1.19179.04375-2.27812V33.375a9.83739,9.83739,0,0,1-.76953,1.68281,12.80479,12.80479,0,0,1-.81328,1.26953,7.79812,7.79812,0,0,0-.66016-.67343,10.03881,10.03881,0,0,0,1.27579-2.14922,13.72457,13.72457,0,0,0,.83593-2.35625q-1.27734,0-1.76015.05156v-.98359q.6164.05155,1.8914.05156V28.97264q0-.77578-.04375-1.45h.88047q-.04453.57069-.04453,1.45V30.268q.83555,0,1.53984-.05156V31.2q-.61522-.05039-1.53984-.05156Zm.57266-5.075q.65859,1.03593,1.14375,1.86406-.44063.36328-.74766.67266A16.73968,16.73968,0,0,0,17.20587,32.65C17.46915,32.40857,17.6754,32.21873,17.82228,32.08045Zm1.41718,3.02422a3.3488,3.3488,0,0,0-.693-.83516,5.64438,5.64438,0,0,0,1.82578-1.4625,5.17041,5.17041,0,0,0,.94765-1.62031h-.60156c-.61562,0-1.14062.018-1.57187.05234V30.2992q1.10976.05273,1.52578.05234h.8789a9.95255,9.95255,0,0,0,.32344-1.46328q-1.10976.10547-1.94141.20938a1.69178,1.69178,0,0,0-.32343-.88829q1.248-.05038,2.40312-.20781a17.36505,17.36505,0,0,0,1.78047-.31406,3.90548,3.90548,0,0,0,.90156-.31406q.184.41835.4625.94062-.60234.10547-2.31172.418a10.58144,10.58144,0,0,1-.36953,1.61953H24.3254q.83087,0,1.66406-.05234V31.239q-.83319-.05155-1.3875-.05234h-.693a4.80635,4.80635,0,0,0,.97109,1.72422,4.38331,4.38331,0,0,0,1.43281,1.09765,3.1276,3.1276,0,0,0-.64765.93985,7.01629,7.01629,0,0,1-1.57188-1.51563v3.1875q0,1.93359.04688,2.71563h-.925q.04569-1.09688.04609-2.08907V34.79139a10.52986,10.52986,0,0,0-.04609-1.3586h.83281q-.13946-.26016-.46328-.80859a11.79716,11.79716,0,0,1-.693-1.4375H22.291A8.22833,8.22833,0,0,1,19.23946,35.10467Zm2.4961-1.46172a4.36375,4.36375,0,0,0-.18438,1.41015,11.53088,11.53088,0,0,1-.11562,1.67188,3.86791,3.86791,0,0,1-.46328,1.38437,4.88408,4.88408,0,0,1-1.08516,1.22657,2.38312,2.38312,0,0,0-.69375-.62657,2.98985,2.98985,0,0,0,1.17891-1.27968,4.73669,4.73669,0,0,0,.34609-1.61875q.04571-.91407.04688-2.325A4.61477,4.61477,0,0,0,21.73556,33.643Z" fill="#fff"/><path d="M29.65118,28.61717h7.46094q1.0207,0,1.94141-.05v1.00234q-1.07345-.05038-1.89063-.05H33.79025V37.4867q0,.70079.05156,1.75312H32.61525q.05038-.90234.05078-1.75312V29.51951H29.65118q-1.02187,0-1.89062.05V28.56717Q28.62891,28.61756,29.65118,28.61717Zm9.04453,6.01328a6.6544,6.6544,0,0,0-1.07265.90156,33.90361,33.90361,0,0,0-3.06641-3.457,4.99727,4.99727,0,0,0,.76641-.70156Q36.75391,32.62615,38.69571,34.63045Z" fill="#fff"/><line x1="10" y1="19.5" x2="26.99617" y2="19.5" fill="none" stroke="#fff" stroke-miterlimit="10" stroke-width="4"/><polygon points="32.184 19.5 26.424 13.74 26.424 25.26 32.184 19.5" fill="#fff"/><line x1="14.42174" y1="4.5" x2="23" y2="4.5" fill="none" stroke="#fff" stroke-miterlimit="10" stroke-width="1.2"/><polygon points="22.5 7.38 25.578 4.5 22.5 1.62 22.5 7.38" fill="#fff"/><polyline points="2.024 18.414 9.624 10.5 30.824 10.5 38.424 18.414" fill="none" stroke="#fff" stroke-miterlimit="10" stroke-width="1.2"/></g></svg>