<svg xmlns="http://www.w3.org/2000/svg" viewBox="0 0 40 40"><g id="E747_route_closed"><path d="M29.44124,19.59278c-2.18419.33934-3.62538.90246-5.22121.812v4.42043s4.45183.25877,5.10525-.29413Z" fill="#fff"/><path d="M5.19394,9.07335s1.68614-.41267,3.24485-.902a6.056,6.056,0,0,1,3.1625-.106v5.64068a17.99709,17.99709,0,0,0-2.187-.06362A13.80936,13.80936,0,0,0,5.4064,14.70271Z" fill="#fff"/><path d="M17.45116,4.65127c-1.5268-.69979-3.41409-1.71765-4.07147-1.92971-.72344-.23337-1.78148-.51129-1.78148-.51129l.00308,5.8551a13.3712,13.3712,0,0,1,2.69846.696,31.16061,31.16061,0,0,1,3.123,1.59995C17.44392,10.34015,17.45116,4.65127,17.45116,4.65127Z" fill="#fff"/><path d="M17.454,10.42275l1.2306.5424a24.61881,24.61881,0,0,0,3.54884,1.20965l1.069.17817.00085,5.48343-.8559-.2219a32.5985,32.5985,0,0,1-5.00858-1.83859v-.0317Z" fill="#fff"/><rect x="1.70848" y="3.11791" width="1.23275" height="34.9804" fill="#fff"/><path d="M11.59821,13.70605a11.1746,11.1746,0,0,1,2.52368.59376c.77634.31785,2.884,1.20871,3.32927,1.442v5.91636l-5.853-1.56921Z" fill="#fff" fill-rule="evenodd"/><path d="M23.30937,6.62339V12.3468a22.51069,22.51069,0,0,0,3.10535.34341c.999.00965,3.26566-.09158,3.26566-.09158L29.638,6.64628l-6.0648-.02289" fill="#fff"/><path d="M28.42649,19.16452a9.4651,9.4651,0,1,0,9.46509,9.4651A9.46509,9.46509,0,0,0,28.42649,19.16452Z" fill="#fff"/><path d="M28.42649,19.16452a9.4651,9.4651,0,1,0,9.46509,9.4651A9.46509,9.46509,0,0,0,28.42649,19.16452Zm0,17.07882a7.61373,7.61373,0,1,1,7.61373-7.61372A7.61371,7.61371,0,0,1,28.42649,36.24334Z" fill="red"/><path d="M27.29785,24.835c.876,0,1.81445-.04394,2.82227-.13965l.55761-.05273v-1.692a6.05555,6.05555,0,0,0-1.23242-.34289v.90893a24.75056,24.75056,0,0,1-4.32275-.02331,6.161,6.161,0,0,0-1.26807,1.09118A23.04008,23.04008,0,0,0,27.29785,24.835Z" fill="#fff"/><path d="M19.59668,22.15454c-.82959-.32422-1.59912-.67163-2.34375-1.00806a15.13317,15.13317,0,0,0-6.501-1.81933,13.77942,13.77942,0,0,0-4.72851.92676V3.28418c4.875-1.88086,7.41308-.57617,10.60449,1.06348A21.42384,21.42384,0,0,0,29.44531,7.25781V17.71558a10.92789,10.92789,0,0,1,1.23242.183V5.91016l-.6748.06445A20.47332,20.47332,0,0,1,17.19141,3.251C13.77734,1.49609,10.82617-.02051,5.17383,2.2959L4.791,2.45215V22.07129l.8496-.34863c5.19532-2.125,7.80469-.94629,11.1045.54687.69092.31275,1.40381.63355,2.16211.93884A10.92974,10.92974,0,0,1,19.59668,22.15454Z" fill="#fff"/><path d="M25.416,18.09424c-1.24756-.098-2.123-.248-2.123-.248l.002,1.09937A10.89325,10.89325,0,0,1,25.416,18.09424Z" fill="#fff"/></g></svg>