<svg xmlns="http://www.w3.org/2000/svg" viewBox="0 0 40 40"><g id="E749_all_loading_stations_on_route"><path d="M38.51611,31.73h-4.8706V27.52173h4.8706a.84162.84162,0,1,0,0-1.68323h-4.8706V23.97656H26.98535l-.043-.001A6.8189,6.8189,0,0,0,21.97559,25.959a4.97289,4.97289,0,0,0-1.334,2.78223l.00488.28308c-.34668.02539-.75634.06311-1.09863.11829-2.49414.40039-3.01758,1.61133-3.01758,2.55762,0,1.54589.71875,2.35449,1.91114,3.69335l.57812.65528c.39746.456.82031,1.11523.57324,1.6582a1.05651,1.05651,0,0,1-.793.57715H11.583V39.4834H18.7998a2.22624,2.22624,0,0,0,1.88477-1.2793c.28223-.62012.37988-1.63476-.76074-2.94433l-.58594-.66407c-1.10449-1.24023-1.6084-1.80664-1.6084-2.8955,0-.7168.63867-1.15332,2.00879-1.37208.28125-.04565.62354-.07836.92774-.1018l.00586.36157c.48339,2.75781,3.041,4.64063,6.37207,4.68457l6.60156.00391v-1.863h4.8706a.84168.84168,0,1,0,0-1.68335ZM32.44629,34.0752l-5.39453-.002c-2.77149-.03711-4.81153-1.48633-5.18946-3.59668L21.835,28.82227a3.71561,3.71561,0,0,1,1.01074-2.03711h.001a5.6979,5.6979,0,0,1,4.10059-1.60938h5.499Z" fill="#fff"/><polyline points="2.619 36.87 5.158 29.626 11.077 29.626 13.133 21.899" fill="none" stroke="#fff" stroke-miterlimit="10" stroke-width="1.2" fill-rule="evenodd"/><circle cx="12.84597" cy="20.78858" r="2.10413" fill="#fff"/><path d="M26.76489,12.10768c-6.75217.64158-7.10986-3.58-12.28643-1.46V1.5347C19.655-.58523,20.01272,4.03153,26.76489,3.38944Z" fill="none" stroke="#fff" stroke-width="1.2"/><path d="M14.37242,4.62815s.84026-.20565,1.617-.44948a3.01794,3.01794,0,0,1,1.576-.05284V6.93677a8.969,8.969,0,0,0-1.08988-.0317,6.88147,6.88147,0,0,0-1.99724.52837Z" fill="#fff"/><path d="M20.48059,2.42448c-.76085-.34873-1.70136-.856-2.02895-.96164-.36051-.1163-.88777-.25479-.88777-.25479l.00154,2.91778a6.66325,6.66325,0,0,1,1.34473.34687,15.52734,15.52734,0,0,1,1.55627.7973C20.477,5.25943,20.48059,2.42448,20.48059,2.42448Z" fill="#fff"/><path d="M20.482,5.3006l.61325.27029a12.26912,12.26912,0,0,0,1.7685.60281l.53274.08879.00043,2.73257-.42652-.11058a16.24441,16.24441,0,0,1-2.49595-.91623v-.0158Z" fill="#fff"/><rect x="12.24597" y="1.43061" width="1.2" height="17.4319" fill="#fff"/><path d="M17.56387,6.93677a5.569,5.569,0,0,1,1.25763.29589c.38688.1584,1.43718.60234,1.65909.71858v2.94832l-2.91672-.782Z" fill="#fff" fill-rule="evenodd"/><path d="M23.39992,3.40725V6.25941a11.21754,11.21754,0,0,0,1.54751.17113c.49782.00481,1.62738-.04563,1.62738-.04563l-.02113-2.96625-3.02229-.01141" fill="#fff"/><path d="M26.55063,12.06435c-.00972-.62839-.02665-2.94406-.034-2.95871A12.526,12.526,0,0,1,23.39173,9l.00564,3.16768.673.09646A8.80489,8.80489,0,0,0,26.55063,12.06435Z" fill="#fff"/><circle cx="2.74616" cy="37.20078" r="2.10413" fill="#fff"/></g></svg>