<svg xmlns="http://www.w3.org/2000/svg" viewBox="0 0 40 40"><g id="E74A_auto_train"><g opacity="0.2"><rect x="0.58613" y="0.54307" width="38.91386" height="38.91386" fill="none"/></g><path d="M15.4749,11.70962a34.02726,34.02726,0,0,0-5.837-2.87621,10.52327,10.52327,0,0,0-2.70706-.67675c-.93058-.08463-6.34465,0-6.34465,0v.846c.846,0,5.16029,0,6.17545.16915,1.77648.3384,4.22977,3.47433,4.22977,3.47433l-10.40522.423v5.239l4.83139-.08055a3.62755,3.62755,0,0,1-.05173-.51163,3.67988,3.67988,0,1,1,7.35975,0c0,.04534-.01172.08747-.01337.13239a13.18054,13.18054,0,0,0,3.1857-.80914c.423-.3384.5076-1.94573.5076-2.79169A3.50524,3.50524,0,0,0,15.4749,11.70962Z" fill="#fff"/><circle cx="9.24255" cy="30.15232" r="2.87712" fill="#fff"/><path d="M.61118,27.2752v5.75425a2.87713,2.87713,0,0,0,0-5.75425Z" fill="#fff"/><circle cx="30.86862" cy="30.15232" r="2.87712" fill="#fff"/><path d="M39.5,27.2752v5.75425a2.87713,2.87713,0,0,1,0-5.75425Z" fill="#fff"/><polygon points="39.5 24.23 39.5 22.53 0.586 22.53 0.586 24.23 12.177 24.23 14.039 25.922 26.13 25.922 27.992 24.23 39.5 24.23" fill="#fff"/><path d="M35.27023,9.84856A32.95945,32.95945,0,0,1,39.5,9.67936V8.74884a25.03956,25.03956,0,0,0-5.35769.08457c-2.02127.58634-5.63971,2.11488-5.63971,2.11488A41.9321,41.9321,0,0,0,23.27183,12.048a3.33325,3.33325,0,0,0-2.11488,1.43813,18.63219,18.63219,0,0,0-1.13149,4.08954c.03769.647,3.03891.721,3.73983.72952a3.64673,3.64673,0,0,1-.05959-.58929A3.6841,3.6841,0,0,1,27.38563,14.036a3.76592,3.76592,0,0,1,3.67807,3.61782l.00181.031v.03108a3.64052,3.64052,0,0,1-.05592.55273L39.5,18.22347V13.21379l-8.66777-.21474S33.4021,10.27939,35.27023,9.84856Z" fill="#fff"/><path d="M27.38574,16.1781a1.53784,1.53784,0,1,1-1.53808,1.53784,1.53954,1.53954,0,0,1,1.53808-1.53784m0-1a2.53784,2.53784,0,1,0,2.5376,2.53784,2.53789,2.53789,0,0,0-2.5376-2.53784Z" fill="#fff"/><path d="M9.0459,16.1781a1.53784,1.53784,0,1,1-1.53809,1.53784A1.53955,1.53955,0,0,1,9.0459,16.1781m0-1a2.53784,2.53784,0,1,0,2.5376,2.53784A2.53789,2.53789,0,0,0,9.0459,15.1781Z" fill="#fff"/></g></svg>