<svg xmlns="http://www.w3.org/2000/svg" viewBox="0 0 40 40"><g id="E74C_Trained_parking_off"><g id="Auto"><path d="M29.27246,33.18164a17.387,17.387,0,0,1-2.58545-.18176l-.43359,2.97522a9.407,9.407,0,0,0,3.02051.43127,9.406,9.406,0,0,0,3.02-.43127l-.43555-2.97522A17.40414,17.40414,0,0,1,29.27246,33.18164Zm.00049-8.75635a8.53474,8.53474,0,0,1,2.5957.42725L32.73,21.18616a8.22,8.22,0,0,0-3.456-.6128,8.221,8.221,0,0,0-3.45655.6128l.85987,3.66638A8.532,8.532,0,0,1,29.273,24.42529Zm3.88184,7.646c-.02051-.79285.03173-3.84351.019-6.97876l-.0083-.67212a14.87873,14.87873,0,0,1-1.18848,2.19312,24.47465,24.47465,0,0,0-.07178,3.85766,35.8246,35.8246,0,0,0,1.252,3.85767l-.00049-.09253C33.15234,33.59692,33.17529,32.85083,33.15479,32.07129ZM26.624,30.47144a24.54792,24.54792,0,0,0-.07129-3.85767,15.58943,15.58943,0,0,1-1.1538-2.19312l-.00831.67212c.02247,3.11914.022,6.18592.00147,6.97889-.02051.77941.00244,1.52551-.00147,2.16491l-.00048.09253A35.859,35.859,0,0,0,26.624,30.47144Z" fill="#fff" fill-rule="evenodd"/><path d="M29.27979,16.18225a10.07152,10.07152,0,0,1,4.42871.85376,5.03725,5.03725,0,0,1,.78466,1.56848c.0669.412.04053,2.73975.01758,4.79346-.022,1.94971-.04687,4.15955-.03076,6.27954l.00147.13965c.00976,1.23559.01757,2.205.02734,2.58777.00928.31946.02148.63342.03369.93628a7.64752,7.64752,0,0,1-.124,2.573,3.50681,3.50681,0,0,0-.12744.48072c-.1792.80713-.42872,1.62085-1.31739,1.92749a10.56256,10.56256,0,0,1-3.69384.4768,10.56233,10.56233,0,0,1-3.69336-.47656c-.88965-.307-1.13916-1.1206-1.32276-1.947a3.22448,3.22448,0,0,0-.13476-.49072A7.83043,7.83043,0,0,1,24.01709,33.33c.01221-.30017.0249-.61084.0332-.92725.01026-.39478.01856-1.42346.02881-2.72534.01611-2.11987-.00879-4.32971-.03076-6.27942-.02295-2.05371-.04932-4.38147.01172-4.7655a5.034,5.034,0,0,1,.79053-1.59656,10.07408,10.07408,0,0,1,4.4292-.85364m0-1.19995A11.39837,11.39837,0,0,0,24.269,15.98535c-.69384.35486-1.3291,2.10059-1.38476,2.40906-.15283.851.03271,6.38306-.00537,11.27356-.00977,1.2915-.01807,2.31177-.02832,2.70337-.0083.31421-.021.62292-.03321.9209A7.94138,7.94138,0,0,0,23.02,36.34387c.01807.04712.05176.19971.07666.311A3.41961,3.41961,0,0,0,25.19482,39.457a11.68366,11.68366,0,0,0,4.085.54212,11.68242,11.68242,0,0,0,4.08447-.54212,3.41864,3.41864,0,0,0,2.09814-2.80212c.0249-.11133.0586-.26392.07666-.311a7.94138,7.94138,0,0,0,.20264-3.05163c-.01221-.298-.02441-.60669-.0332-.9209-.01026-.3916-.01807-1.41187-.02832-2.70337-.03809-4.8905.14746-10.42261-.00538-11.27356-.05566-.30847-.69042-2.0542-1.38476-2.40906a11.39764,11.39764,0,0,0-5.01025-1.003Z" fill="#fff"/></g><path d="M6.60938,5.61621a4.0386,4.0386,0,0,0-3.0625-.88476H.02979V16.24023h1.5v-4.5h1.9331c2.62256-.05859,4.0669-1.32617,4.0669-3.56933A3.38634,3.38634,0,0,0,6.60938,5.61621ZM5.92969,8.17578A1.79613,1.79613,0,0,1,4.10107,10.208l-2.57128.02929V6.24023h2.75C5.13672,6.24023,5.92969,6.47461,5.92969,8.17578Z" fill="#fff"/><g id="Strichellinie"><path d="M8.41333,21.96875l-.176-.001.02686-1.5.13574.001a7.0092,7.0092,0,0,0,1.65674-.19434l.354,1.457A8.47111,8.47111,0,0,1,8.41333,21.96875Zm-2.33667-.31641A8.08515,8.08515,0,0,1,4.054,20.79l.77636-1.2832a6.57677,6.57677,0,0,0,1.64722.70019Zm6.39185-1.16211-1.11914-.998a7.26337,7.26337,0,0,0,.95678-1.52442l1.33789.67774A8.51211,8.51211,0,0,1,12.46851,20.49023ZM2.34766,19.28711a3.82945,3.82945,0,0,1-.81812-2.2959h1.5a2.32006,2.32006,0,0,0,.51734,1.39551Zm12.19213-2.39453-1.30908-.73242a10.44391,10.44391,0,0,1,1.21387-1.76856l1.13623.97852A9.02371,9.02371,0,0,0,14.53979,16.89258Zm13.449-1.99024A2.35077,2.35077,0,0,0,27.356,13.544l1.07031-1.05079a3.851,3.851,0,0,1,1.04639,2.19043Zm-11.0708-.7207-.835-1.24609A9.23627,9.23627,0,0,1,18.01807,11.96l.519,1.4082A7.662,7.662,0,0,0,16.918,14.18164Zm3.42041-1.29687-.271-1.47461q.5365-.09961,1.13135-.165l.18579-.02051c.21436-.02441.45923-.05273.72681-.0791l.14746,1.49219c-.25879.02539-.49585.05273-.70337.07714l-.19189.02149C21.00171,12.77539,20.66138,12.82617,20.33838,12.88477Zm5.62183-.09864a7.40017,7.40017,0,0,0-1.79542-.23535l.03516-1.5a8.97643,8.97643,0,0,1,2.16162.29Z" fill="#fff"/></g><path d="M23.86364,8.49714a4.116,4.116,0,0,1-1.125-.1416,2.96365,2.96365,0,0,1-.88489-.40636,2.72224,2.72224,0,0,1-.6574-.63936,3.53893,3.53893,0,0,1-.44872-.84175,4.99154,4.99154,0,0,1-.2581-1.01433A7.77136,7.77136,0,0,1,20.40721,4.299a7.62952,7.62952,0,0,1,.08394-1.15162,5.00749,5.00749,0,0,1,.26045-1.01591,3.58523,3.58523,0,0,1,.45343-.84724A2.71957,2.71957,0,0,1,21.86792.639,3.0481,3.0481,0,0,1,22.75438.2283,4.0833,4.0833,0,0,1,23.8809.0843a4.13605,4.13605,0,0,1,1.12652.1416,2.97755,2.97755,0,0,1,.88725.40637,2.718,2.718,0,0,1,.65975.63935,3.47622,3.47622,0,0,1,.45029.84332,4.95953,4.95953,0,0,1,.25888,1.01434,7.74075,7.74075,0,0,1,.08159,1.15319A7.66028,7.66028,0,0,1,27.262,5.43566,4.93557,4.93557,0,0,1,27,6.45157a3.605,3.605,0,0,1-.45656.84567,2.75076,2.75076,0,0,1-.66367.64524,3.05711,3.05711,0,0,1-.88961.41067A4.10273,4.10273,0,0,1,23.86364,8.49714ZM23.8809,7.613a2.43536,2.43536,0,0,0,.77272-.11415,1.94821,1.94821,0,0,0,.60405-.32242,1.99415,1.99415,0,0,0,.44872-.50678,3.05484,3.05484,0,0,0,.30909-.66681,4.33785,4.33785,0,0,0,.17808-.80174,7.35247,7.35247,0,0,0,0-1.81921,4.3595,4.3595,0,0,0-.17808-.80174,3.017,3.017,0,0,0-.30909-.66721,2.01949,2.01949,0,0,0-.44872-.50638,1.90041,1.90041,0,0,0-.60562-.32281,2.711,2.711,0,0,0-1.54622,0,1.92138,1.92138,0,0,0-.6064.32281,2.03141,2.03141,0,0,0-.45187.50638,2.98358,2.98358,0,0,0-.30987.66721,4.29754,4.29754,0,0,0-.17729.80174,7.56177,7.56177,0,0,0,0,1.81921,4.27728,4.27728,0,0,0,.17729.80174,3.02137,3.02137,0,0,0,.30987.66681,2.00573,2.00573,0,0,0,.45187.50678,1.96056,1.96056,0,0,0,.6064.32242A2.45024,2.45024,0,0,0,23.8809,7.613Z" fill="#fff"/><path d="M28.6937,8.3626V.21888h4.8685V1.092h-3.811V3.953h3.50819v.87313H29.75118V8.36259Z" fill="#fff"/><path d="M34.38356,8.3626V.21888H39.252V1.092H35.441V3.953h3.5082v.87313H35.441V8.36259Z" fill="#fff"/><circle cx="12.77961" cy="32.57406" r="6" fill="none" stroke="#fff" stroke-miterlimit="10" stroke-width="1.2"/><line x1="7.22292" y1="30.93065" x2="18.28875" y2="30.93065" fill="none" stroke="#fff" stroke-miterlimit="10" stroke-width="1.2"/><line x1="15.00683" y1="34.42953" x2="16.97377" y2="36.39647" fill="none" stroke="#fff" stroke-miterlimit="10" stroke-width="1.2"/><line x1="10.55238" y1="34.42953" x2="8.58545" y2="36.39647" fill="none" stroke="#fff" stroke-miterlimit="10" stroke-width="1.2"/><path d="M16.18324,31.49111l-.02734-.52246-6.86426.001-.00586.5459a9.46,9.46,0,0,0,.18164,1.7959,3.3157,3.3157,0,0,0,3.3125,2.626,3.42694,3.42694,0,0,0,3.2168-2.60254A7.15977,7.15977,0,0,0,16.18324,31.49111Zm-3.447,3.47266a1.65625,1.65625,0,1,1,1.65625-1.65625A1.65628,1.65628,0,0,1,12.73628,34.96377Z" fill="#fff" fill-rule="evenodd"/></g></svg>