<svg xmlns="http://www.w3.org/2000/svg" viewBox="0 0 40 40"><g id="E758_FAS_default_on"><polygon points="33.102 33.074 34.548 34.425 27.628 37 29.718 29.919 31.169 31.27 33.102 33.074" fill="#fff"/><path d="M20.06787,2.40039a17.69474,17.69474,0,0,0-17.10156,22.136,7.77422,7.77422,0,0,1,1.09619-.59107,16.46787,16.46787,0,1,1,32.47266-3.87793,16.46139,16.46139,0,0,1-5.69678,12.457l.78516.90821A17.66774,17.66774,0,0,0,20.06787,2.40039Z" fill="#fff"/><path d="M10.49854,34.91187c.10693.06909.20947.14306.31835.2102l.12452-.20264C10.79346,34.91821,10.646,34.91516,10.49854,34.91187Z" fill="#fff"/><path d="M7.03271,37.16016a5.50051,5.50051,0,0,1-1.501-.18946,3.95043,3.95043,0,0,1-1.17969-.542,3.637,3.637,0,0,1-.877-.85254,4.72136,4.72136,0,0,1-.59864-1.123,6.69468,6.69468,0,0,1-.34472-1.35351,10.47412,10.47412,0,0,1-.10938-1.53906,10.209,10.209,0,0,1,.11133-1.53711A6.674,6.674,0,0,1,2.88232,28.669a4.766,4.766,0,0,1,.60352-1.12989,3.67017,3.67017,0,0,1,.88477-.86133,4.0857,4.0857,0,0,1,1.18261-.54687,5.43034,5.43034,0,0,1,1.502-.19141,5.56189,5.56189,0,0,1,1.50293.1875,3.9693,3.9693,0,0,1,1.18261.543,3.60047,3.60047,0,0,1,.88086.85254,4.662,4.662,0,0,1,.60059,1.124A6.66346,6.66346,0,0,1,11.56689,30a10.31841,10.31841,0,0,1,.10938,1.53809,10.23153,10.23153,0,0,1-.11133,1.53808,6.58694,6.58694,0,0,1-.34961,1.35547,4.797,4.797,0,0,1-.6084,1.127,3.63769,3.63769,0,0,1-.88574.86133,4.06,4.06,0,0,1-1.18652.54688A5.41587,5.41587,0,0,1,7.03271,37.16016Zm.02247-1.17969a3.24115,3.24115,0,0,0,1.03027-.15235,2.58985,2.58985,0,0,0,.80566-.42968,2.68175,2.68175,0,0,0,.59961-.67578,4.14426,4.14426,0,0,0,.41114-.89063,5.69388,5.69388,0,0,0,.23828-1.06836,9.458,9.458,0,0,0,.07519-1.21484,9.42292,9.42292,0,0,0-.07519-1.21192,5.73944,5.73944,0,0,0-.23828-1.06933,4.05861,4.05861,0,0,0-.41114-.89063,2.71094,2.71094,0,0,0-.59961-.6748,2.55694,2.55694,0,0,0-.80664-.43067,3.31059,3.31059,0,0,0-1.02929-.15039,3.323,3.323,0,0,0-1.03321.15039,2.58853,2.58853,0,0,0-.80859.43067,2.70246,2.70246,0,0,0-.60254.6748,3.9333,3.9333,0,0,0-.41406.89063,5.73982,5.73982,0,0,0-.23633,1.06933,10.08775,10.08775,0,0,0,0,2.42676A5.69449,5.69449,0,0,0,4.19678,33.832a4.0139,4.0139,0,0,0,.41406.89063,2.67349,2.67349,0,0,0,.60254.67578,2.62745,2.62745,0,0,0,.80859.42968A3.26425,3.26425,0,0,0,7.05518,35.98047Z" fill="#fff"/><path d="M20.74072,36.98047l-4.83008-7.332c-.16113-.24219-.32617-.50782-.49609-.80078q-.25488-.43653-.4707-.90235c.01172.15235.02344.30469.0332.46s.01758.3086.02344.46192c.00586.15234.01074.29883.01269.4414.00293.14063.00391.27344.00391.39453v7.27735H13.64014V26.11816H15.145l4.83008,7.33106c.07812.12305.1582.25.23828.38281.081.13281.16211.27149.24609.41406.082.14258.16407.28907.24317.4375.0791.14942.15527.29883.22851.45118-.01172-.14649-.02344-.29688-.03222-.45118-.01075-.15429-.01856-.30566-.02442-.45507-.00586-.1504-.01074-.2959-.01269-.43653-.00293-.13965-.00391-.27148-.00391-.39355V26.11816h1.38086V36.98047Z" fill="#fff"/></g></svg>