<?xml version="1.0" encoding="UTF-8"?>
<svg id="Ebene_1" data-name="Ebene 1" xmlns="http://www.w3.org/2000/svg" viewBox="0 0 86 40">
  <defs>
    <style>
      .cls-1 {
        fill: #fff;
      }
    </style>
  </defs>
  <g>
    <path class="cls-1" d="M7.55875,30.26979c-3.5695,.05241-6.50563-2.79876-6.55804-6.36825-.05241-3.5695,2.79876-6.50563,6.36825-6.55804,.06326-.00093,.12653-.00093,.18979,0,1.6563-.02563,3.25323,.61639,4.43085,1.78137l-1.24446,1.24445c-.85528-.82238-2.00001-1.27487-3.18642-1.25952-2.59398,.03636-4.66734,2.16866-4.63098,4.76264,.03564,2.54271,2.08827,4.59535,4.63098,4.63098,1.22166,.05073,2.40736-.4199,3.26169-1.29464,.55937-.61326,.89839-1.39547,.96346-2.22297H7.68419v-1.76633h5.81582c.0683,.36392,.10024,.73372,.09534,1.10396,.0507,1.52396-.49887,3.00692-1.53047,4.12978-1.1701,1.22657-2.81249,1.88867-4.50613,1.81656Z"/>
    <path d="M7.65428,17.34277c1.62209,0,3.18033,.63953,4.33532,1.78211l-1.24446,1.24445c-.84119-.80883-1.96252-1.25986-3.12796-1.2599-.01953,0-.0389,.00013-.05846,.00038-2.59398,.03635-4.66734,2.16866-4.63099,4.76264,.03564,2.54271,2.08827,4.59535,4.63099,4.63098,.05973,.00248,.11948,.00372,.179,.00372,1.15792,0,2.27013-.46638,3.08268-1.29836,.55938-.61326,.89839-1.39547,.96346-2.22297H7.68419v-1.76633h5.81582c.0683,.36392,.10024,.73373,.09534,1.10396,.0507,1.52396-.49887,3.00692-1.53047,4.12978-1.11225,1.16593-2.6515,1.8219-4.25562,1.8219-.08343,0-.16678-.00177-.25051-.00533-.03224,.00047-.06468,.00071-.09682,.00071-3.52573,0-6.40929-2.83172-6.46121-6.36896-.05241-3.5695,2.79875-6.50564,6.36825-6.55804,.03163-.00047,.06326-.0007,.09489-.0007s.06326,.00023,.09489,.0007c.03184-.00049,.06374-.00074,.09554-.00074m0-.5l-.10323,.0008-.0872-.00076-.10232,.00076c-1.85982,.0273-3.59777,.77726-4.89362,2.11172-1.29584,1.33447-1.99445,3.09369-1.96715,4.9536,.05555,3.78351,3.17831,6.86162,6.96116,6.86162l.10411-.00076c.06226,.00347,.1527,.00538,.24322,.00538,1.736,0,3.41898-.72051,4.6174-1.97677,1.13357-1.23372,1.72381-2.82641,1.66841-4.49154,.00556-.37923-.02939-.78392-.10364-1.17956l-.07653-.40777H7.18419v2.76633h4.01198c-.13053,.51341-.38643,.99273-.74517,1.38602-.70066,.71698-1.69387,1.13531-2.71327,1.13531-.05262,0-.10545-.0011-.15826-.00329-2.30206-.03245-4.1197-1.85009-4.15178-4.13842-.03243-2.31416,1.82389-4.22325,4.13805-4.25568l.05145-.00033c1.0423,.00004,2.03009,.39791,2.78141,1.12032l.35341,.33982,.34669-.34669,1.24446-1.24445,.35547-.35546-.35738-.35355c-1.25592-1.24242-2.92044-1.92665-4.68696-1.92665h0Z"/>
  </g>
  <g>
    <path class="cls-1" d="M22.92879,26.11494c.00001,2.29745-1.86243,4.15991-4.15989,4.15992s-4.15991-1.86243-4.15992-4.15989,1.86243-4.15991,4.15989-4.15992h.00002c2.2671-.03035,4.12955,1.78289,4.15991,4.04999,.00049,.03663,.00049,.07327,0,.1099Zm-1.82153,0c-.09877-1.29145-1.22577-2.25831-2.51722-2.15953-1.29145,.09877-2.25831,1.22577-2.15953,2.51722,.09348,1.22228,1.11253,2.16637,2.33838,2.16636,1.32342-.03044,2.37159-1.12796,2.34115-2.45138-.00056-.02424-.00148-.04846-.00277-.07267Z"/>
    <path d="M18.82498,21.95468c2.24171-.00007,4.07371,1.80194,4.10382,4.05035,.00049,.03663,.00049,.07327,0,.1099,0,2.29745-1.86244,4.15992-4.15989,4.15993-2.29745,0-4.15991-1.86244-4.15992-4.15989-.00002-2.29745,1.86243-4.15991,4.15988-4.15992h.00002c.01868-.00025,.03747-.00038,.05609-.00038m-.05609,6.68431c1.32342-.03044,2.37159-1.12796,2.34115-2.45138-.00056-.02423-.00148-.04846-.00278-.07267-.09412-1.2306-1.12185-2.16647-2.33585-2.16647-.06003,0-.12051,.00229-.18136,.00694-1.29145,.09877-2.25831,1.22577-2.15954,2.51722,.09348,1.22228,1.11253,2.16636,2.33838,2.16636m.05622-7.18431l-.06291,.00042c-1.23803-.00003-2.40823,.48468-3.28837,1.36483-.88014,.88014-1.36485,2.05035-1.36484,3.29505,.00001,2.56947,2.09043,4.65989,4.6599,4.65989,1.24472-.00001,2.41492-.48473,3.29506-1.36487,.88014-.88015,1.36486-2.05036,1.36485-3.29506l-.00004-.11659c-.03356-2.50539-2.09874-4.54367-4.60365-4.54367h0Zm-.06203,6.6843c-.95605-.00301-1.76108-.75062-1.83403-1.70448-.03758-.49144,.11846-.9681,.43938-1.34217,.32093-.37408,.76831-.60079,1.25975-.63838,.04804-.00367,.09581-.00548,.14323-.00548,.95716,0,1.7642,.74875,1.83731,1.7046l.00145,.04609c.01165,.50649-.17465,.98726-.5246,1.35368-.34864,.36506-.81809,.57308-1.32249,.58614h0Z"/>
  </g>
  <g>
    <path class="cls-1" d="M32.2873,26.10991c.00001,2.29745-1.86243,4.15991-4.15989,4.15992s-4.15991-1.86243-4.15992-4.15989c-.00001-2.29745,1.86243-4.15991,4.15988-4.15992,2.26538-.03209,4.12785,1.77835,4.15993,4.04373,.00055,.03871,.00055,.07744,0,.11615Zm-1.82152,0c-.09878-1.29145-1.22578-2.2583-2.51723-2.15952s-2.2583,1.22578-2.15952,2.51723c.09348,1.22226,1.11251,2.16634,2.33834,2.16635,1.32341-.03041,2.3716-1.1279,2.34119-2.45132-.00056-.02426-.00148-.04851-.00278-.07274Z"/>
    <path d="M28.18662,21.9496c2.23853-.00002,4.06886,1.79855,4.10068,4.04416,.00054,.03871,.00055,.07744,0,.11615,0,2.29745-1.86244,4.15991-4.15989,4.15993-2.29745,0-4.15991-1.86244-4.15992-4.15989s1.86242-4.15991,4.15987-4.15993c.01977-.00028,.03955-.00042,.05927-.00042m-.05927,6.68437c1.32342-.03041,2.37161-1.1279,2.34119-2.45132-.00055-.02426-.00148-.04851-.00277-.07274-.09412-1.23052-1.12195-2.16646-2.33586-2.16646-.06011,0-.12044,.00228-.18137,.00694-1.29145,.09877-2.2583,1.22577-2.15953,2.51722,.09349,1.22227,1.11251,2.16634,2.33834,2.16636m.05931-7.18437l-.06639,.00047c-2.56239-.00003-4.6528,2.09041-4.65279,4.65988s2.09043,4.65989,4.6599,4.65989c2.5695-.00002,4.65992-2.09046,4.65991-4.65993l-.00005-.12312c-.03544-2.50187-2.09925-4.53719-4.60058-4.53719h0Zm-.0651,6.68436c-.95602-.00303-1.76105-.75064-1.83401-1.70448-.03758-.49144,.11846-.9681,.43938-1.34217,.32092-.37408,.7683-.60079,1.25974-.63838,.04812-.00368,.09577-.00548,.14324-.00548,.95716,0,1.76421,.74875,1.83732,1.70459l.00144,.04594c.01165,.5067-.17467,.98746-.52462,1.35387-.34865,.36505-.81809,.57306-1.32249,.58611h0Z"/>
  </g>
  <g>
    <path class="cls-1" d="M41.17914,22.20092v7.47176c0,3.07601-1.81147,4.33553-3.95416,4.33553-1.61559,.00853-3.07471-.96423-3.68822-2.45882l1.59076-.66239c.33455,.87293,1.16295,1.45757,2.09751,1.48031,1.17625,.06262,2.16071-.84014,2.22333-2.01639,.0076-.14277-.00038-1.02452-.00038-1.02452h-.06524c-.55639,.62201-1.35867,.96716-2.19288,.94338-2.2942,0-3.88486-1.66376-3.88486-4.16784s1.82246-4.15196,3.88486-4.15196c.83026-.01932,1.62885,.31875,2.19288,.92832h.06524v-.67737l1.73115-.00002Zm-1.60575,3.92405c0-1.25581-.69876-2.3557-1.92647-2.51944-1.2277-.16374-2.51944,1.05103-2.51944,2.51944,0,1.26879,.74025,2.48824,2.15609,2.48824s2.28982-1.23243,2.28982-2.48824Z"/>
    <path d="M37.25734,21.9492c.80594,0,1.57666,.33607,2.12541,.92912h.06524v-.67737l1.73115-.00003v7.47177c0,3.07601-1.81148,4.33553-3.95416,4.33553-.007,.00004-.01408,.00006-.02108,.00006-1.60722,0-3.05629-.97076-3.66714-2.45888l1.59076-.66238c.33455,.87292,1.16295,1.45756,2.09751,1.4803,.03855,.00205,.07706,.00307,.11518,.00307,1.12478,0,2.04758-.88176,2.10816-2.01946,.0076-.14276-.00038-1.02451-.00038-1.02451h-.06524c-.53839,.60189-1.30703,.94453-2.11203,.94453-.02691,0-.05386-.00038-.08084-.00115-2.29421,0-3.88487-1.66376-3.88487-4.16784s1.82247-4.15197,3.88487-4.15197c.0225-.00052,.04502-.00079,.06747-.00079m.02622,6.66402c1.41585,0,2.28982-1.23243,2.28982-2.48824s-.69876-2.3557-1.92647-2.51945c-.07471-.00996-.14984-.01483-.22472-.01483-1.1556,0-2.29472,1.15523-2.29472,2.53428,0,1.26879,.74025,2.48824,2.15609,2.48824m-.02622-7.16401l-.07902,.00091c-2.48824-.00013-4.37332,1.99978-4.37332,4.65184,0,1.95994,.91704,3.49838,2.37948,4.21973l-.24916,.10375-1.59076,.66238-.45926,.19123,.18891,.46022c.69049,1.68211,2.31149,2.76901,4.12969,2.76901,2.17436-.00006,4.47524-1.27036,4.47524-4.83559v-7.97178h-.50001s-1.73115,.00004-1.73115,.00004h-.49999v.19998c-.51017-.29252-1.09345-.45172-1.69065-.45172h0Zm.02622,6.66401c-1.13785,0-1.65609-1.03064-1.65609-1.98824,0-1.14566,.96477-2.03428,1.79472-2.03428,.05286,0,.1059,.00341,.15865,.01045,1.03102,.13751,1.49254,1.11555,1.49254,2.02383,0,.97733-.66948,1.98824-1.78982,1.98824h0Zm-.01284,2.65773c.59524,0,1.17403-.1599,1.67871-.4539-.00011,.00262-.00023,.00505-.00035,.0073-.04617,.86694-.75286,1.54604-1.60887,1.54604l-.08863-.00236c-.74927-.01844-1.3941-.47353-1.65717-1.15995l-.09465-.24694c.51056,.20091,1.07855,.30866,1.69011,.30866l.08085,.00115h0Z"/>
  </g>
  <g>
    <path class="cls-1" d="M44.48598,17.79513v12.22879h-1.82654v-12.22879h1.82654Z"/>
    <path d="M44.48598,17.79514v12.22878h-1.82654v-12.22878h1.82654m.5-.5h-2.82654v13.22878h2.82654v-13.22878h0Z"/>
  </g>
  <g>
    <path class="cls-1" d="M51.79214,27.4798l1.42008,.94338c-.77253,1.15795-2.07545,1.84995-3.46742,1.84159-2.24826,.03286-4.09747-1.76308-4.13033-4.01134-.00073-.04951-.00055-.09904,.00054-.14855-.11375-2.18077,1.5619-4.04084,3.74267-4.15459,.06041-.00315,.12089-.00492,.18138-.00529,1.62687,.04525,3.05121,1.10449,3.56276,2.6495l.19068,.47169-5.56492,2.30326c.3517,.79274,1.15055,1.29153,2.01722,1.25951,.83841,.00893,1.61827-.4288,2.04734-1.14916Zm-4.36564-1.49535l3.71831-1.54554c-.29052-.57858-.89956-.92661-1.54552-.88317-1.25925,.05791-2.23313,1.12568-2.17522,2.38494,.00067,.0146,.00148,.02919,.00243,.04378Z"/>
    <path d="M49.53907,21.945c1.62687,.04526,3.05121,1.10449,3.56276,2.64951l.19068,.47169-5.56492,2.30326c.34101,.76864,1.10248,1.26096,1.93847,1.26096,.02621,0,.05241-.00048,.07875-.00145,.00839,.00009,.01679,.00013,.02517,.00013,.82883,0,1.59739-.43615,2.02217-1.14929l1.42007,.94338c-.7679,1.15102-2.05993,1.84166-3.4425,1.84166-.00832,0-.01658-.00002-.02491-.00007-.02017,.00029-.04058,.00044-.06068,.00044-2.22088,0-4.03708-1.7837-4.06964-4.01178-.00072-.04952-.00055-.09904,.00054-.14855-.11375-2.18077,1.5619-4.04084,3.74267-4.15459,.06041-.00316,.12088-.00492,.18138-.0053m-2.11256,4.03946l3.71831-1.54554c-.2742-.54609-.83221-.88681-1.43715-.88681-.03599,0-.0721,.00121-.10838,.00364-1.25925,.05791-2.23313,1.12568-2.17521,2.38493,.00066,.0146,.00148,.0292,.00243,.04378m2.11794-4.5395l-.00852,.00005c-.06817,.00043-.1363,.00241-.20436,.00597-2.45253,.12793-4.3438,2.22735-4.21587,4.67995-.00178,.01856-.00198,.07417-.00117,.12978,.03631,2.48381,2.08622,4.50451,4.56959,4.50451l.06788-.00049c1.57145,.00012,3.01385-.77153,3.87615-2.06405l.27804-.41675-.4173-.27722-1.42007-.94338-.43747-.29062-.26877,.45123c-.33256,.55832-.94281,.90516-1.5926,.90516l-.10393,.00133c-.46221,0-.89385-.19722-1.19586-.52719l5.01353-2.07505,.4582-.18964-.18585-.45974-.19068-.47169c-.5646-1.70853-2.18153-2.91099-4.01242-2.96193l-.00852-.00023h0Zm-1.50141,3.74177c.07861-.20098,.19436-.38787,.34413-.55208,.32084-.35178,.75947-.55756,1.23509-.57943,.03563-.00228,.06056-.00311,.08541-.00311,.22508,0,.43814,.06675,.61669,.18637l-2.28132,.94825h0Z"/>
  </g>
  <g>
    <path class="cls-1" d="M3.88924,11.00714h-1.51759v3.01006H1.00983V6.19305H3.76361c.74656-.04873,1.4865,.1665,2.09046,.60805,.50744,.4387,.7807,1.08934,.7387,1.7588,.01587,.46756-.11601,.92824-.37689,1.31658-.26831,.3651-.63404,.64723-1.05529,.81407l1.79722,3.33167h-1.49571l-1.57286-3.01509Zm-1.51759-1.09547h1.39698c.38926,.02339,.77309-.10037,1.07536-.34674,.26269-.24406,.40428-.59161,.38694-.94975,.02094-.3603-.10819-.7132-.35673-.97489-.29636-.25092-.67766-.37863-1.06537-.35682h-1.43718v2.6282Z"/>
    <path d="M3.97144,6.18628c.67509,0,1.33477,.21429,1.88263,.61481,.50743,.43871,.7807,1.08934,.73869,1.75881,.01587,.46756-.116,.92824-.37688,1.31658-.26831,.3651-.63404,.64723-1.05529,.81407l1.79722,3.33167h-1.49571l-1.57286-3.01509h-1.51759v3.01006H1.00983V6.19305H3.7636c.06935-.00453,.13871-.00677,.20784-.00677m-1.59979,3.72539h1.39698c.03112,.00187,.06228,.0028,.09329,.0028,.35689,0,.70397-.12287,.98208-.34954,.26268-.24406,.40427-.59161,.38693-.94975,.02094-.3603-.10819-.7132-.35673-.97489-.2746-.2325-.62214-.35922-.98012-.35922-.02837,0-.05678,.0008-.08525,.0024h-1.43718v2.6282m1.59979-4.22539c-.07997,0-.16021,.0026-.24043,.00784l-2.72118-.00106H.50983V14.51719H2.87165v-3.01006h.71447l1.43267,2.74635,.1402,.26874h2.63665l-.39777-.73738-1.55573-2.88399c.30009-.19198,.56347-.43821,.77664-.72828,.33365-.49586,.49325-1.0534,.47369-1.62963,.05078-.77196-.28967-1.58256-.91139-2.12009-.66833-.49066-1.42137-.73658-2.20964-.73658h0Zm-1.09979,2.09719h.93718l.08525-.0024c.231,0,.45557,.07904,.63554,.22312,.14105,.15881,.2145,.36938,.20215,.58198l-.00154,.02659,.00129,.0266c.01023,.21138-.07282,.41523-.22785,.55927-.16316,.13163-.39976,.21584-.64175,.21584l-.0633-.0019-.92697-.00059v-1.62851h0Z"/>
  </g>
  <g>
    <path class="cls-1" d="M13.11539,10.52471h-3.21608v2.40703h3.75881v1.08542h-5.1156V6.19301h5.08041v1.09548h-3.71859v2.16081h3.21608v1.07536l-.00503,.00005Z"/>
    <path d="M13.62294,6.19301v1.09548h-3.7186v2.16081h3.21609v1.07536l-.00503,.00005h-3.21609v2.40704h3.75881v1.08542h-5.1156V6.19301h5.08042m.5-.5h-6.08042V14.51717h6.1156v-2.08542h-3.75881v-1.40704h3.21609l.00503-.50005v-1.57536h-3.21609v-1.16081h3.7186v-2.09548h0Z"/>
  </g>
  <g>
    <path class="cls-1" d="M19.51742,12.00211c.01604-.30783-.11899-.60415-.36181-.79403-.40221-.25703-.84346-.4471-1.30654-.56281-.52595-.14567-1.03094-.35848-1.50251-.63317-.65184-.3436-1.0628-1.01695-1.07036-1.75377-.00856-.61256,.27742-1.192,.76885-1.55778,.57641-.42811,1.28269-.6446,2-.61303,.5021-.00872,.99987,.09427,1.45729,.3015,.40971,.18534,.75827,.48336,1.00502,.8593,.24291,.36435,.37072,.79329,.36685,1.23117h-1.3568c.01833-.36124-.12318-.71226-.38693-.95979-.3104-.24945-.70318-.3732-1.10051-.34673-.36729-.02208-.73148,.07869-1.03517,.28644-.24427,.18914-.38114,.48537-.36684,.79398,.00126,.29153,.15089,.56235,.39701,.71859,.40585,.25241,.84828,.44055,1.31161,.55778,.51433,.14005,1.00774,.3479,1.46725,.61807,.33061,.19621,.60968,.46841,.81407,.79403,.17917,.32034,.26776,.68341,.25629,1.05027,.01944,.6103-.26002,1.19173-.74874,1.55778-.59439,.41537-1.31116,.61889-2.03514,.57785-.53744,.00585-1.07004-.10205-1.56282-.31663-.44106-.18325-.82343-.48393-1.10553-.86934-.26608-.37743-.40513-.82975-.39701-1.29147h1.36181c-.02271,.3938,.14109,.77536,.44222,1.03014,.36481,.26558,.81096,.39533,1.2613,.36683,.37727,.02764,.75279-.07332,1.06533-.28644,.23616-.17956,.37095-.46222,.36181-.75875Z"/>
    <path d="M17.90762,6.0845c.04576,0,.09154,.001,.13742,.00303,.01961-.00034,.03925-.00051,.05885-.00051,.48211,0,.95889,.10287,1.39845,.30202,.40971,.18534,.75827,.48336,1.00502,.8593,.24291,.36435,.37072,.79328,.36685,1.23117h-1.3568c.01833-.36125-.12318-.71226-.38693-.95979-.28285-.22731-.63412-.35025-.99489-.35025-.03514,0-.07036,.00116-.10562,.00351-.0332-.002-.06637-.00299-.09948-.00299-.33315,0-.65945,.10046-.93569,.28942-.24427,.18914-.38114,.48537-.36684,.79398,.00126,.29152,.15089,.56235,.39701,.71859,.40585,.2524,.84828,.44055,1.31162,.55778,.51432,.14005,1.00773,.34789,1.46725,.61807,.3306,.19621,.60967,.46841,.81407,.79403,.17917,.32034,.26776,.6834,.25629,1.05027,.01944,.6103-.26002,1.19172-.74874,1.55777-.54423,.38032-1.19112,.58304-1.85213,.58304-.06094,0-.12191-.00172-.18302-.00518-.01381,.00015-.02768,.00023-.04148,.00023-.52337,0-1.04122-.10779-1.52134-.31686-.44106-.18325-.82343-.48393-1.10552-.86934-.26608-.37743-.40513-.82975-.39702-1.29147h1.36181c-.02271,.3938,.14109,.77536,.44223,1.03015,.33174,.2415,.73077,.3707,1.13902,.3707,.04069,0,.08146-.00128,.12227-.00386,.0408,.00299,.08165,.00447,.12233,.00447,.33549,0,.66426-.10085,.943-.29091,.23616-.17957,.37094-.46222,.36181-.75876,.01603-.30782-.11899-.60415-.36181-.79402-.40221-.25703-.84346-.4471-1.30654-.56281-.52595-.14567-1.03094-.35847-1.50252-.63317-.65184-.3436-1.0628-1.01695-1.07036-1.75377-.00856-.61256,.27742-1.192,.76885-1.55778,.53954-.40074,1.19294-.61604,1.86258-.61605m0-.5h-.00001c-.77289,.00001-1.54024,.25381-2.1607,.71466-.61873,.46052-.98144,1.19542-.97067,1.96616,.00943,.91978,.52181,1.7593,1.33716,2.18909,.48987,.28588,1.03517,.51567,1.60221,.67272,.42367,.10603,.81344,.27393,1.17076,.50227,.07554,.06193,.13927,.20179,.13173,.3467,.0037,.17608-.05786,.30519-.16513,.38675-.17479,.11838-.40347,.18893-.64036,.18893-.02853,0-.05717-.00105-.08579-.00314l-.03403-.0025-.03405,.00216c-.03029,.00191-.06054,.00287-.09073,.00287-.30557,0-.59769-.09507-.84476-.27493-.15147-.1299-.25092-.36155-.23733-.59713l.0305-.52879h-2.38277l-.00863,.49122c-.01005,.57174,.1588,1.12098,.48828,1.58834,.34132,.46647,.79678,.82463,1.32234,1.04298,.53841,.23453,1.11743,.35513,1.71318,.35513,.08376,.00296,.15415,.00495,.2245,.00495,.76883,0,1.50832-.23279,2.13854-.6732,.63202-.47304,.98669-1.21094,.96208-1.98353,.01431-.42597-.09623-.87895-.31966-1.27842-.25843-.41291-.59813-.74424-.99526-.97994-.49937-.29361-1.03409-.51886-1.59107-.67052-.42265-.10702-.81636-.27445-1.17894-.49994-.09886-.06278-.16054-.17442-.16106-.29616-.00729-.16676,.05757-.30713,.17295-.39648,.16948-.11488,.39541-.18477,.62958-.18477l.06941,.00209,.03167,.0019,.03165-.00211,.07237-.0024c.24701,0,.4891,.08523,.68168,.23999,.12795,.1221,.21169,.32981,.20078,.54471l-.02665,.52534h2.37841l.00438-.49558c.00478-.54025-.15111-1.06342-.45081-1.51295-.29726-.45292-.71808-.81272-1.21496-1.0375-.50735-.22985-1.04728-.34646-1.60452-.34646l-.06752,.00059c-.02256-.00194-.07567-.0031-.12875-.0031h0Z"/>
  </g>
  <g>
    <path class="cls-1" d="M28.45212,6.19305v5.23115c.03522,.74345-.25673,1.46507-.79899,1.97488-.58871,.5068-1.34982,.76771-2.12564,.72865-.77728,.04011-1.54074-.21677-2.13568-.71859-.54267-.51513-.83122-1.24293-.78896-1.98996V6.19301h1.3568v5.23619c-.03076,.43697,.11188,.86847,.39701,1.20102,.31562,.29483,.74015,.44424,1.17085,.41206,1.04522,0,1.56784-.55109,1.56785-1.65326V6.19805h1.35679l-.00003-.005Z"/>
    <path d="M23.95964,6.19301v5.2362c-.03075,.43697,.11188,.86846,.39702,1.20101,.28739,.26847,.66512,.41636,1.05555,.41636,.03834,0,.07678-.00142,.1153-.0043,1.04522,0,1.56784-.55108,1.56785-1.65326V6.19805h1.35676v5.22616c.03522,.74344-.25673,1.46506-.799,1.97487-.55012,.47359-1.25091,.73248-1.97344,.73248-.05069,0-.10135-.00127-.1522-.00383-.0528,.00273-.10557,.00408-.1582,.00408-.72206,0-1.42296-.25494-1.97748-.72267-.54267-.51513-.83122-1.24293-.78896-1.98996V6.19301h1.3568m4.49248,.00004l.00003,.005h-.00003v-.005m-3.99248-.50004h-2.3568v5.72617c-.04986,.86729,.29419,1.73507,.94473,2.3526,.66441,.56154,1.48118,.86003,2.32171,.86003,.05275,0,.10561-.00117,.15851-.00352,.05072,.00219,.1013,.00327,.15189,.00327,.84359,0,1.66028-.30313,2.29965-.85355,.666-.62547,1.01443-1.48669,.97223-2.37746l.00056-5.2025v-.5h-2.35676v5.69097c0,.95714-.42689,1.15326-1.06785,1.15326-.06334,.00334-.08936,.0043-.1153,.0043-.25693,0-.50227-.0933-.69394-.26328-.18872-.23084-.28086-.52054-.25986-.81899l.00123-5.2713v-.5h0Z"/>
  </g>
  <g>
    <path class="cls-1" d="M31.92449,12.93174h3.55278v1.08542h-4.9146V6.19301h1.36181v6.73873Z"/>
    <path d="M31.92448,6.19301v6.73873h3.55278v1.08543h-4.91459V6.19301h1.36181m.5-.5h-2.36181V14.51717h5.91459v-2.08543h-3.55278V5.69301h0Z"/>
  </g>
  <g>
    <path class="cls-1" d="M41.71347,7.28852h-2.44222v6.72867h-1.34673V7.28857h-2.41709v-1.09552h6.20605s0,1.09547,0,1.09547Z"/>
    <path d="M41.71348,6.19305s0,1.09547-.00001,1.09547h-2.44222v6.72867h-1.34673V7.28857h-2.41709v-1.09552h6.20605m.5-.5h-7.20605v2.09552h2.41709v6.72862h2.34673V7.78852h1.94222c.5,0,.50001-.35015,.50001-1.04773v-1.04774h0Z"/>
  </g>
  <g>
    <path class="cls-1" d="M47.39689,12.00211c.01603-.30783-.11899-.60415-.36181-.79403-.40221-.25703-.84345-.4471-1.30653-.56281-.52595-.14566-1.03094-.35847-1.50251-.63317-.65184-.3436-1.06281-1.01695-1.07036-1.75377-.00854-.61254,.27745-1.19196,.76886-1.55774,.5764-.42813,1.28269-.64463,2-.61307,.5021-.00872,.99987,.09427,1.45729,.3015,.40971,.18534,.75827,.48336,1.00502,.8593,.24291,.36435,.37072,.79329,.36685,1.23117h-1.3568c.01772-.36015-.1216-.71028-.38191-.95979-.31039-.24944-.70316-.37319-1.10047-.34672-.36729-.02208-.73148,.07869-1.03517,.28644-.24427,.18914-.38113,.48537-.36684,.79398,.00126,.29153,.15089,.56235,.39701,.71859,.40583,.2524,.84824,.44055,1.31155,.55778,.51436,.14005,1.0078,.3479,1.46735,.61808,.33061,.19622,.60967,.46841,.81407,.79403,.17629,.32147,.26469,.68374,.25628,1.05027,.01945,.6103-.26002,1.19172-.74874,1.55778-.5944,.4154-1.31118,.61893-2.03518,.5779-.53744,.00585-1.07003-.10205-1.56281-.31663-.44106-.18325-.82344-.48393-1.10554-.86934-.26607-.37743-.40512-.82975-.39701-1.29147h1.36179c-.02271,.3938,.14108,.77536,.44221,1.03014,.36482,.26558,.81097,.39533,1.26131,.36683,.37727,.02764,.75279-.07332,1.06533-.28644,.23304-.18164,.36555-.46348,.35678-.75882Z"/>
    <path d="M45.78712,6.0845c.04576,0,.09153,.001,.13741,.00303,.01962-.00034,.03925-.00051,.05885-.00051,.48211,0,.95889,.10287,1.39845,.30201,.40971,.18534,.75827,.48337,1.00502,.8593,.2429,.36435,.37072,.79329,.36684,1.23117h-1.3568c.01772-.36014-.1216-.71028-.38191-.95979-.28283-.22729-.63412-.35022-.99486-.35023-.03516,0-.07034,.00116-.10562,.00352-.0332-.002-.06637-.00299-.09948-.00299-.33315,0-.65945,.10046-.93569,.28943-.24427,.18914-.38113,.48537-.36684,.79397,.00126,.29153,.15088,.56235,.39701,.71859,.40583,.2524,.84824,.44055,1.31155,.55778,.51436,.14005,1.00781,.3479,1.46735,.61809,.3306,.19621,.60967,.46841,.81407,.79402,.17629,.32147,.26468,.68374,.25628,1.05027,.01945,.6103-.26002,1.19172-.74874,1.55778-.54422,.38033-1.19116,.58308-1.85218,.58308-.06094,0-.12189-.00172-.183-.00518-.01381,.00015-.02768,.00023-.04148,.00023-.52337,0-1.04121-.10779-1.52133-.31686-.44106-.18325-.82343-.48393-1.10553-.86934-.26608-.37743-.40513-.82975-.39702-1.29147h1.36179c-.02271,.39381,.14108,.77536,.44222,1.03015,.33175,.24151,.73076,.3707,1.13903,.3707,.04069,0,.08147-.00128,.12228-.00387,.0408,.00299,.08165,.00448,.12234,.00448,.33549,0,.66425-.10085,.94299-.29092,.23304-.18164,.36555-.46348,.35678-.75882,.01603-.30783-.11899-.60415-.36181-.79403-.40221-.25703-.84345-.4471-1.30654-.5628-.52595-.14567-1.03094-.35848-1.50251-.63317-.65184-.3436-1.06281-1.01696-1.07036-1.75378-.00855-.61254,.27744-1.19196,.76886-1.55774,.53953-.40075,1.19294-.61607,1.86259-.61609m0-.5h-.00001c-.77288,.00001-1.54024,.25383-2.16072,.71469-.61871,.46053-.98143,1.19541-.97067,1.96611,.00942,.91979,.5218,1.75932,1.33716,2.18911,.48989,.28589,1.03518,.51568,1.6022,.67272,.42366,.10601,.81343,.27391,1.17076,.50226,.07554,.06193,.13927,.2018,.13173,.34671,.00357,.1764-.05788,.3071-.16484,.39046-.17005,.11473-.39873,.18528-.63561,.18528-.02854,0-.05718-.00105-.0858-.00314l-.03403-.0025-.03405,.00216c-.03029,.00191-.06054,.00287-.09074,.00287-.30558,0-.59769-.09507-.84475-.27493-.15147-.1299-.25092-.36155-.23733-.59713l.03049-.52879h-2.38274l-.00863,.49122c-.01005,.57174,.1588,1.12098,.48828,1.58834,.34133,.46647,.7968,.82463,1.32235,1.04298,.53841,.23453,1.11742,.35513,1.71317,.35513,.08376,.00296,.15413,.00495,.22448,.00495,.76885,0,1.50836-.2328,2.1386-.67324,.63202-.47306,.98669-1.21097,.96207-1.98355,.01052-.42646-.09935-.87673-.31762-1.27476-.26047-.41655-.60016-.74788-.99729-.98358-.4994-.29362-1.03415-.51888-1.59118-.67055-.42261-.10701-.8163-.27444-1.17885-.49992-.09887-.06279-.16055-.17443-.16107-.29617-.00729-.16675,.05757-.30713,.17295-.39647,.16948-.11488,.39541-.18477,.62958-.18477l.06941,.00209,.03166,.0019,.03164-.00211,.07239-.00241c.247,.00001,.4891,.08524,.68165,.23998,.12305,.12058,.20633,.32989,.19572,.54548l-.02581,.52457h2.3776l.00439-.49557c.00479-.54023-.1511-1.0634-.45079-1.51295-.29729-.45294-.7181-.81274-1.21497-1.03751-.50734-.22985-1.04726-.34645-1.60452-.34645l-.06752,.00059c-.02256-.00194-.07566-.0031-.12874-.0031h0Z"/>
  </g>
  <g>
    <path class="cls-1" d="M58.98487,10.70061h-3.15076v3.31658h-1.36179V6.19305h4.96987v1.09547h-3.61309v2.32664h3.15076l.00502,1.08545Z"/>
    <path d="M59.44218,6.19305v1.09547h-3.61309v2.32664h3.15076l.00501,1.08545h-3.15075v3.31658h-1.3618V6.19305h4.96987m.5-.5h-5.96987V14.51719h2.3618v-3.31658h3.15306l-.00232-.50231-.00501-1.08545-.00229-.49769h-3.14846v-1.32664h3.61309v-2.09547h0Z"/>
  </g>
  <g>
    <path class="cls-1" d="M64.05522,11.00714h-1.51758v3.01006h-1.36181V6.19305h2.75378c.74656-.04873,1.4865,.1665,2.09046,.60805,.50744,.4387,.78071,1.08934,.7387,1.7588,.01587,.46756-.11601,.92824-.37689,1.31658-.26831,.36509-.63403,.64722-1.05528,.81407l1.79037,3.33167h-1.48888l-1.57288-3.01509Zm-1.51257-1.09547h1.397c.38926,.02339,.77309-.10037,1.07536-.34674,.26269-.24406,.40428-.5916,.38694-.94975,.0209-.36031-.10826-.7132-.35682-.97488-.29635-.25091-.67764-.37862-1.06533-.35682h-1.43718v2.62812l.00003,.00007Z"/>
    <path d="M64.13746,6.18628c.67508,0,1.33476,.21429,1.88262,.61481,.50744,.4387,.78071,1.08934,.7387,1.75881,.01587,.46756-.116,.92824-.37688,1.31658-.26831,.36509-.63403,.64722-1.05528,.81407l1.79037,3.33167h-1.48888l-1.57288-3.01509h-1.51758v3.01006h-1.36181V6.19305h2.75379c.06935-.00453,.1387-.00677,.20784-.00677m-1.5948,3.72539h1.39699c.03112,.00187,.06227,.0028,.09329,.0028,.3569,0,.70397-.12287,.98208-.34954,.26268-.24406,.40428-.59161,.38694-.94975,.0209-.36031-.10825-.7132-.35682-.97488-.2746-.23249-.62216-.35921-.98012-.35921-.02837,0-.05674,.00079-.08521,.00239h-1.43719v2.62812l.00004,.00007m1.5948-4.22539c-.07998,0-.16021,.0026-.24043,.00784l-2.7212-.00106h-.5V14.51719h2.36181v-3.01006h.71447l1.43269,2.74635,.14019,.26874h2.6283l-.39588-.73668-1.54994-2.88426c.30036-.19204,.56399-.43843,.77732-.7287,.33365-.49587,.49325-1.05341,.47369-1.62964,.05077-.77198-.28967-1.58258-.91142-2.12009-.66832-.49066-1.42136-.73658-2.20962-.73658h0Zm-1.09483,2.0972h.93718l.08521-.00239c.23101,0,.45561,.07905,.6356,.22315,.14105,.15881,.21452,.36938,.20219,.58199l-.00154,.02656,.00129,.02657c.01023,.21137-.07282,.41522-.22786,.55927-.16316,.13163-.39977,.21584-.64175,.21584l-.0633-.0019-.92699-.00059-.00003-1.62851h0Z"/>
  </g>
  <g>
    <path class="cls-1" d="M74.95475,10.3086c.00117,.73593-.1201,1.38339-.39701,2.02012-.23759,.54704-.63302,1.01072-1.13568,1.33171-1.04844,.61642-2.34856,.61642-3.397,0-.50464-.32066-.90461-.78176-1.15076-1.32664-.28113-.62346-.41207-1.31157-.41207-1.98493v-.44216c0-.70832,.12481-1.38476,.40704-2.02012,.48623-1.12729,1.6122-1.84273,2.83927-1.80406,.59644-.01131,1.18379,.14729,1.69347,.45728,.5026,.31799,.89958,.77793,1.1407,1.32161,.2804,.63062,.40704,1.31561,.40704,2.00503l.005,.44217Zm-1.35678-.40704c0-.72456-.12821-1.39596-.49246-1.99496-.57656-.76703-1.66574-.92144-2.43277-.34489-.12892,.09691-.24372,.21129-.3411,.33986-.36683,.58362-.50755,1.25167-.50755,1.95479v.45227c0,.72664,.14253,1.398,.51244,1.99496,.3147,.45799,.83173,.72336,1.38706,.70354,.5502,.02553,1.0746-.23477,1.38694-.68844,.36417-.60442,.48743-1.27416,.48743-2.01006v-.40707Z"/>
    <path d="M71.61384,6.08101c.03154,0,.06303,.00049,.09471,.00149,.01984-.00038,.03976-.00056,.05958-.00056,.57593-.00002,1.14115,.15818,1.63388,.45786,.5026,.31799,.89957,.77793,1.1407,1.32161,.2804,.63062,.40704,1.3156,.40704,2.00503l.005,.44217c.00118,.73593-.12009,1.38339-.397,2.02012-.23759,.54703-.63303,1.01072-1.13568,1.3317-.52422,.30821-1.11136,.46231-1.6985,.46231s-1.17428-.1541-1.6985-.46231c-.50464-.32065-.90461-.78175-1.15076-1.32664-.28114-.62345-.41206-1.31156-.41206-1.98493v-.44216c0-.70832,.1248-1.38476,.40703-2.02012,.47368-1.09818,1.55463-1.80556,2.74458-1.80556m.05164,6.92716c.01933,0,.03868-.00035,.05811-.00104,.02471,.00115,.04946,.00172,.07405,.00172,.52291,0,1.01458-.25687,1.3129-.69016,.36417-.60443,.48743-1.27416,.48743-2.01006l.00002-.40707c0-.72456-.12821-1.39596-.49246-1.99496-.34138-.45416-.86263-.6936-1.39017-.6936-.36342,0-.72974,.11353-1.04261,.34871-.12892,.0969-.24372,.21129-.34109,.33986-.36684,.58361-.50755,1.25167-.50755,1.95479v.45227c0,.72664,.14252,1.398,.51243,1.99496,.3037,.44197,.79584,.70458,1.32896,.70458m-.05163-7.42716c-1.39394,0-2.65147,.82725-3.20369,2.10753-.29649,.66739-.44792,1.41534-.44792,2.21815v.44216c0,.77107,.15777,1.52852,.45626,2.19046,.28717,.63571,.74994,1.16921,1.33841,1.54312,.6059,.35658,1.28086,.5403,1.96665,.5403s1.36075-.18372,1.95192-.53129c.60438-.38553,1.06263-.92288,1.34087-1.56354,.30039-.69067,.43972-1.3962,.4384-2.2201l-.00503-.44702c.00003-.78779-.15143-1.53073-.45014-2.20252-.28199-.63584-.74203-1.16886-1.33024-1.541-.5783-.35182-1.2331-.53532-1.9011-.53532l-.06926,.00065-.08513-.00158h0Zm.05163,6.92716c-.36425,0-.70701-.18234-.91687-.48775-.28143-.45524-.42451-1.02165-.42451-1.71179v-.45227c0-.67507,.14094-1.22745,.43087-1.6887,.04464-.05581,.12636-.13725,.21819-.20626,.21618-.1625,.47282-.24839,.7422-.24839,.39348,0,.75449,.18006,.99049,.49402,.25879,.4302,.39214,.98156,.39214,1.69453l-.00002,.40706c0,.72459-.13209,1.28131-.4157,1.75203-.18778,.27111-.52464,.4482-.88462,.4482l-.05082-.00118-.08134,.0005h0Z"/>
  </g>
  <g>
    <path class="cls-1" d="M78.73366,6.19305l2.25629,6.00001,2.25126-6.00001h1.7588v7.82414h-1.35679v-2.5779l.13567-3.45226-2.31156,6.03017h-.97488l-2.30654-6.02514,.13568,3.44723v2.5779h-1.35679V6.19305h1.76887Z"/>
    <path d="M85,6.19305v7.82414h-1.35679v-2.5779l.13567-3.45226-2.31158,6.03016h-.97487l-2.30655-6.02513,.13569,3.44723v2.5779h-1.35679V6.19305h1.76887l2.25629,6.00001,2.25126-6.00001h1.7588m.5-.5h-2.60523l-.1217,.32435-1.78365,4.75375-1.78776-4.75409-.12184-.32401h-2.61503V14.51719h2.35679v-3.0779l-.01698-.43252,1.22089,3.18918,.12297,.32124h1.66266l.12306-.32103,1.22599-3.19823-.01657,.42173-.00039,2.59753v.5h2.35679V5.69305h0Z"/>
  </g>
</svg>