<svg xmlns="http://www.w3.org/2000/svg" viewBox="0 0 40 40"><g id="E75D_nav_stecker_typ2"><path d="M31.90332,5.62659a16.97754,16.97754,0,1,1-23.80664,0H31.90332m0-1.5H8.09668a1.50123,1.50123,0,0,0-1.05225.43078A18.47519,18.47519,0,1,0,38.47754,17.724a18.33917,18.33917,0,0,0-5.522-13.16663,1.50123,1.50123,0,0,0-1.05225-.43078Z" fill="#fff"/><circle cx="20.00004" cy="19.07077" r="3.32424" fill="#fff"/><circle cx="9.99012" cy="19.07077" r="3.32424" fill="#fff"/><circle cx="15.03222" cy="27.56227" r="3.32424" fill="#fff"/><circle cx="25.05274" cy="27.56227" r="3.32424" fill="#fff"/><circle cx="15.00917" cy="10.96888" r="2.21616" fill="#fff"/><circle cx="25.02969" cy="10.96888" r="2.21616" fill="#fff"/><circle cx="30.01089" cy="19.04077" r="3.32424" fill="#fff"/></g></svg>