<svg xmlns="http://www.w3.org/2000/svg" viewBox="0 0 40 40"><g id="E75F_nav_stecker_CHAdeMo"><circle cx="11.3306" cy="21.89238" r="4.77348" fill="#fff"/><circle cx="28.68449" cy="21.89238" r="4.77348" fill="#fff"/><path d="M20,6.6438A15.2486,15.2486,0,1,1,4.75146,21.89233,15.24865,15.24865,0,0,1,20,6.6438m0-1.5A16.7486,16.7486,0,1,0,36.74854,21.89233,16.76735,16.76735,0,0,0,20,5.1438Z" fill="#fff"/><path d="M20,9.56189a3.57349,3.57349,0,1,1-3.57324,3.57349A3.57744,3.57744,0,0,1,20,9.56189m0-1.19995a4.77344,4.77344,0,1,0,4.77344,4.77344A4.77344,4.77344,0,0,0,20,8.36194Z" fill="#fff"/><line x1="16.81527" y1="9.95065" x2="23.18473" y2="16.32011" fill="none" stroke="#fff" stroke-miterlimit="10" stroke-width="1.2"/><line x1="23.18473" y1="9.95065" x2="16.81527" y2="16.32011" fill="none" stroke="#fff" stroke-miterlimit="10" stroke-width="1.2"/><path d="M20,26.653a3.57355,3.57355,0,1,1-3.57324,3.57361A3.57755,3.57755,0,0,1,20,26.653m0-1.2a4.7735,4.7735,0,1,0,4.77344,4.77356A4.77355,4.77355,0,0,0,20,25.453Z" fill="#fff"/><line x1="16.81527" y1="27.04179" x2="23.18473" y2="33.41125" fill="none" stroke="#fff" stroke-miterlimit="10" stroke-width="1.2"/><line x1="23.18473" y1="27.04179" x2="16.81527" y2="33.41125" fill="none" stroke="#fff" stroke-miterlimit="10" stroke-width="1.2"/><path d="M19.846,5.71514a16.08612,16.08612,0,0,1,9.35064,2.99149h1.07295C27.04742,5.37013,26.20212,1.141,20,1.141S12.95258,5.37013,9.73044,8.70663h.76489A16.08614,16.08614,0,0,1,19.846,5.71514Z" fill="#fff"/></g></svg>