<svg xmlns="http://www.w3.org/2000/svg" viewBox="0 0 40 40"><g id="E760_nav_stecker_CEE_1-phasing"><circle cx="20.03341" cy="26.96449" r="3.24552" fill="#fff"/><circle cx="12.52531" cy="13.4962" r="2.43414" fill="#fff"/><circle cx="27.51151" cy="13.4962" r="2.43414" fill="#fff"/><path d="M20.0332,3.229A15.525,15.525,0,1,1,4.5083,18.754,15.52536,15.52536,0,0,1,20.0332,3.229m0-1.5A17.025,17.025,0,1,0,37.05859,18.754,17.04421,17.04421,0,0,0,20.0332,1.729Z" fill="#fff"/><path d="M17.70085,34.88191a2.40582,2.40582,0,0,0-.09744.64448,2.43,2.43,0,0,0,4.86,0,2.40582,2.40582,0,0,0-.09744-.64448C21.77641,35.49554,18.29046,35.49559,17.70085,34.88191Z" fill="#fff"/></g></svg>