<svg xmlns="http://www.w3.org/2000/svg" viewBox="0 0 40 40"><g id="E761_nav_stecker_CEE_3-phasing"><circle cx="20.03341" cy="26.99279" r="3.24" fill="#fff"/><circle cx="14.01261" cy="12.00265" r="2.43" fill="#fff"/><circle cx="26.01343" cy="12.00265" r="2.43" fill="#fff"/><circle cx="29.55215" cy="20.55014" r="2.43" fill="#fff"/><circle cx="10.56218" cy="20.55014" r="2.43" fill="#fff"/><path d="M20.0332,3.229A15.525,15.525,0,1,1,4.5083,18.754,15.52536,15.52536,0,0,1,20.0332,3.229m0-1.5A17.025,17.025,0,1,0,37.05859,18.754,17.04421,17.04421,0,0,0,20.0332,1.729Z" fill="#fff"/><path d="M17.70085,34.88191a2.40582,2.40582,0,0,0-.09744.64448,2.43,2.43,0,0,0,4.86,0,2.40582,2.40582,0,0,0-.09744-.64448C21.77641,35.49554,18.29046,35.49559,17.70085,34.88191Z" fill="#fff"/></g></svg>