<svg id="Icon" xmlns="http://www.w3.org/2000/svg" viewBox="0 0 40 40"><defs><style>.cls-1,.cls-3{fill:none;stroke:#fff;}.cls-1{stroke-miterlimit:10;stroke-width:1.2px;}.cls-2{fill:#fff;}.cls-3{stroke-width:1.2px;}</style></defs><circle class="cls-1" cx="29" cy="30" r="8.4"/><path id="Version_2" data-name="Version 2" class="cls-2" d="M26,25l9,5-9,5Z"/><path class="cls-3" d="M4.35877,14.14674A16.57167,16.57167,0,0,1,20.25882,2.24143,15.89661,15.89661,0,0,1,35.68407,14.14674"/><path class="cls-2" d="M32.76367,19.2514V15.69971a.95484.95484,0,0,1,.9541-.95264h3.623a.954.954,0,0,1,.95313.95264V23.4209a11.381,11.381,0,0,1,1.19921,2.1253V15.69971a2.15462,2.15462,0,0,0-2.15234-2.15283h-3.623a2.15546,2.15546,0,0,0-2.15332,2.15283v3.20147A11.27257,11.27257,0,0,1,32.76367,19.2514Z"/><path class="cls-2" d="M6.28271,13.54688H2.65918A2.15535,2.15535,0,0,0,.50635,15.69971v10.353a2.15463,2.15463,0,0,0,2.15283,2.15235H6.28271a2.15463,2.15463,0,0,0,2.15284-2.15235v-10.353A2.15535,2.15535,0,0,0,6.28271,13.54688Zm.95264,12.50585a.954.954,0,0,1-.95264.95313H2.65918a.954.954,0,0,1-.95264-.95313v-10.353a.95359.95359,0,0,1,.95264-.95264H6.28271a.95358.95358,0,0,1,.95264.95264Z"/></svg>