<svg xmlns="http://www.w3.org/2000/svg" viewBox="0 0 40 40"><defs><style>.cls-1{fill:#0fafff;}.cls-2{fill:#fff;}</style></defs><g id="E764_003_assignment_pins"><circle class="cls-1" cx="20" cy="20" r="17.25"/><path class="cls-2" d="M20,3.5A16.5,16.5,0,1,1,3.5,20,16.51868,16.51868,0,0,1,20,3.5M20,2A18,18,0,1,0,38,20,18,18,0,0,0,20,2Z"/><path class="cls-2" d="M15.04445,25.34869c.28454.12414.60205.24279.95471.35815a11.31328,11.31328,0,0,0,1.1272.30322q.59985.12855,1.25683.20764a11.44238,11.44238,0,0,0,1.33814.078,5.536,5.536,0,0,0,1.67322-.22852A3.32143,3.32143,0,0,0,22.58217,25.43a2.59524,2.59524,0,0,0,.70971-.97229,3.14694,3.14694,0,0,0,.23731-1.23706,3.40438,3.40438,0,0,0-.26038-1.35241,2.744,2.744,0,0,0-.77893-1.0437,3.63356,3.63356,0,0,0-1.303-.67237,6.42056,6.42056,0,0,0-1.84021-.2362H17.813V18.09331h1.53369a5.48975,5.48975,0,0,0,1.54358-.19555,2.98114,2.98114,0,0,0,1.11621-.58338,2.4302,2.4302,0,0,0,.67676-.95471,3.4831,3.4831,0,0,0,.22852-1.31177,2.93874,2.93874,0,0,0-.10437-.8042,2.35408,2.35408,0,0,0-.29993-.66357,2.2133,2.2133,0,0,0-.4812-.52185,2.70317,2.70317,0,0,0-.646-.37463,3.79675,3.79675,0,0,0-.79651-.22852,5.31362,5.31362,0,0,0-.93054-.078,9.23957,9.23957,0,0,0-1.23816.0813,9.91809,9.91809,0,0,0-1.13049.21643,8.29148,8.29148,0,0,0-.98328.31091,6.67917,6.67917,0,0,0-.78442.36035V11.4312a5.48743,5.48743,0,0,1,.50757-.24829c.189-.0802.39221-.156.61194-.22741.21863-.07141.45044-.13514.69433-.19336q.3675-.0857.76136-.14722.39551-.05932.81079-.09448c.27685-.02307.557-.03516.84265-.03516a8.7446,8.7446,0,0,1,2.34118.28235,4.613,4.613,0,0,1,1.693.84265,3.5042,3.5042,0,0,1,1.02942,1.39636,5.052,5.052,0,0,1,.34607,1.94349,4.67588,4.67588,0,0,1-.15271,1.2052,4.07266,4.07266,0,0,1-.45264,1.07226,4.14528,4.14528,0,0,1-.74707.90857,4.62024,4.62024,0,0,1-1.02942.713,5.06071,5.06071,0,0,1,1.33154.73828,4.29186,4.29186,0,0,1,.93824,1.00635,4.2032,4.2032,0,0,1,.55041,1.22827,5.39773,5.39773,0,0,1,.17908,1.39856,5.55837,5.55837,0,0,1-.1593,1.35022,4.45466,4.45466,0,0,1-.48121,1.19092,4.14744,4.14744,0,0,1-.81628.99207A4.811,4.811,0,0,1,23.16,27.5097a6.52067,6.52067,0,0,1-1.50293.4812,9.58571,9.58571,0,0,1-1.86.167q-.77287,0-1.46008-.06043a11.65328,11.65328,0,0,1-1.27991-.18127,8.50363,8.50363,0,0,1-1.09863-.29773,5.56335,5.56335,0,0,1-.91406-.40649Z"/></g></svg>