<svg xmlns="http://www.w3.org/2000/svg" viewBox="0 0 40 40"><defs><style>.cls-1{fill:#0fafff;}.cls-2{fill:#fff;}</style></defs><g id="E764_014_assignment_pins"><circle class="cls-1" cx="20" cy="20" r="17.25"/><path class="cls-2" d="M20.00006,3.5a16.5,16.5,0,1,1-16.5,16.5,16.51868,16.51868,0,0,1,16.5-16.5m0-1.5a18,18,0,1,0,18,18,18,18,0,0,0-18-18Z"/><path class="cls-2" d="M12.77506,27.87554v-15.048l-4.32092.73278V11.76629l5.17346-.99866h1.32166V27.87554Z"/><path class="cls-2" d="M26.597,27.87554V24.07427h-8.577V22.32085l8.64624-11.55322h2.105V22.27471H31.6265v1.79956H28.77115v3.80127Zm0-12.28491c0-.25049.00549-.546.01758-.8888.01208-.34167.02856-.69213.05163-1.04919q-.28179.43176-.57348.86462-.29169.43341-.557.78992l-5.19653,6.96753H26.597Z"/></g></svg>