<svg xmlns="http://www.w3.org/2000/svg" viewBox="0 0 40 40"><defs><style>.cls-1{fill:#0fafff;}.cls-2{fill:#fff;}</style></defs><g id="E764_002_assignment_pins"><circle class="cls-1" cx="20" cy="20" r="17.25"/><path class="cls-2" d="M20,3.5A16.5,16.5,0,1,1,3.5,20,16.51868,16.51868,0,0,1,20,3.5M20,2A18,18,0,1,0,38,20,18,18,0,0,0,20,2Z"/><path class="cls-2" d="M14.8472,27.85759V26.202l4.25061-4.27368q.65754-.66248,1.21729-1.26013.55866-.59656,1.02063-1.14478.46143-.54876.813-1.05908a8.03994,8.03994,0,0,0,.59436-.99756,4.98123,4.98123,0,0,0,.36584-.9635,3.72769,3.72769,0,0,0,.12415-.95471,3.9063,3.9063,0,0,0-.20435-1.29749,2.52484,2.52484,0,0,0-.62842-.99206,2.854,2.854,0,0,0-1.08215-.63171,4.90091,4.90091,0,0,0-1.55676-.22193q-.68719,0-1.29859.05493a10.60491,10.60491,0,0,0-1.16455.167,8.04034,8.04034,0,0,0-1.047.28564,6.10393,6.10393,0,0,0-.93164.41528V11.41326a5.7364,5.7364,0,0,1,.86572-.41529,6.98034,6.98034,0,0,1,1.01733-.29663,9.91762,9.91762,0,0,1,1.18543-.17578q.63445-.05768,1.37329-.05823a9.64518,9.64518,0,0,1,1.83911.15931,6.16306,6.16306,0,0,1,1.45679.45812,4.09143,4.09143,0,0,1,1.09314.735,3.95389,3.95389,0,0,1,.75256.98987,4.51234,4.51234,0,0,1,.43506,1.21948,7.00536,7.00536,0,0,1,.13843,1.42712,5.47853,5.47853,0,0,1-.18677,1.44251,6.931,6.931,0,0,1-.51966,1.34363,9.14727,9.14727,0,0,1-.78662,1.27221q-.45648.61964-.99206,1.22828-.53724.60808-1.13928,1.214-.60315.60643-1.22059,1.22277l-2.87731,2.88391h8.28808v1.79407Z"/></g></svg>