<svg xmlns="http://www.w3.org/2000/svg" viewBox="0 0 40 40"><defs><style>.cls-1{fill:#0fafff;}.cls-2{fill:#fff;}</style></defs><g id="E764_005_assignment_pins"><circle class="cls-1" cx="20" cy="20" r="17.25"/><path class="cls-2" d="M20.00006,3.5a16.5,16.5,0,1,1-16.5,16.5,16.51868,16.51868,0,0,1,16.5-16.5m0-1.5a18,18,0,1,0,18,18,18,18,0,0,0-18-18Z"/><path class="cls-2" d="M15.37849,25.34869a9.79594,9.79594,0,0,0,.94043.35815,11.0766,11.0766,0,0,0,1.1272.30322q.60315.12855,1.25794.20764a11.292,11.292,0,0,0,1.32934.078,5.26267,5.26267,0,0,0,1.74463-.25489,3.15848,3.15848,0,0,0,1.18542-.70312,2.71584,2.71584,0,0,0,.67786-1.07556,4.17573,4.17573,0,0,0,.21643-1.37,2.651,2.651,0,0,0-.2395-1.15686,2.83169,2.83169,0,0,0-.65149-.87341,3.88022,3.88022,0,0,0-.9602-.63172,7.24013,7.24013,0,0,0-1.17115-.42626,10.97129,10.97129,0,0,0-1.2832-.26917q-.66082-.09723-1.29529-.14612-.63446-.04944-1.2052-.06372l-1.01513-.02637.28234-8.53088h9.14832v1.8457H18.37776l-.167,4.823q.59327.028,1.24914.09448.65424.06593,1.32056.19007a12.79663,12.79663,0,0,1,1.31836.3208,8.17429,8.17429,0,0,1,1.24255.48669,6.12461,6.12461,0,0,1,1.09534.68994,4.2799,4.2799,0,0,1,.87451.92835,4.35882,4.35882,0,0,1,.579,1.2052,5.07925,5.07925,0,0,1,.21094,1.51721,6.67772,6.67772,0,0,1-.15051,1.43372,4.95407,4.95407,0,0,1-.46143,1.27111,4.33244,4.33244,0,0,1-.79211,1.06458,4.54974,4.54974,0,0,1-1.14807.813,6.2698,6.2698,0,0,1-1.526.52185,9.16689,9.16689,0,0,1-1.92041.18457q-.76136,0-1.44471-.06043a11.82819,11.82819,0,0,1-1.281-.18127,8.408,8.408,0,0,1-1.09864-.29773,5.2395,5.2395,0,0,1-.89978-.40649Z"/></g></svg>