<svg xmlns="http://www.w3.org/2000/svg" viewBox="0 0 40 40"><defs><style>.cls-1{fill:#0fafff;}.cls-2{fill:#fff;}</style></defs><g id="E764_013_assignment_pins"><circle class="cls-1" cx="20" cy="20" r="17.25"/><path class="cls-2" d="M20.00006,3.5a16.5,16.5,0,1,1-16.5,16.5,16.51868,16.51868,0,0,1,16.5-16.5m0-1.5a18,18,0,1,0,18,18,18,18,0,0,0-18-18Z"/><path class="cls-2" d="M12.79338,27.87554v-15.048l-4.32093.73278V11.76629l5.17347-.99866h1.32165V27.87554Z"/><path class="cls-2" d="M19.31376,25.34869c.28455.12414.60205.24279.95471.35815a11.314,11.314,0,0,0,1.1272.30322q.59985.12855,1.25684.20764a11.4422,11.4422,0,0,0,1.33813.078,5.536,5.536,0,0,0,1.67322-.22852A3.32134,3.32134,0,0,0,26.85148,25.43a2.59538,2.59538,0,0,0,.70972-.97229,3.14712,3.14712,0,0,0,.2373-1.23706,3.40455,3.40455,0,0,0-.26037-1.35241,2.74414,2.74414,0,0,0-.77893-1.0437,3.63356,3.63356,0,0,0-1.303-.67237A6.42066,6.42066,0,0,0,23.616,19.916H22.08232V18.09331H23.616a5.48985,5.48985,0,0,0,1.54358-.19555,2.98122,2.98122,0,0,0,1.11621-.58338,2.4302,2.4302,0,0,0,.67676-.95471,3.4831,3.4831,0,0,0,.22851-1.31177,2.93835,2.93835,0,0,0-.10437-.8042,2.35407,2.35407,0,0,0-.29992-.66357,2.21314,2.21314,0,0,0-.48121-.52185,2.7031,2.7031,0,0,0-.646-.37463,3.79675,3.79675,0,0,0-.79651-.22852,5.31371,5.31371,0,0,0-.93054-.078,9.23946,9.23946,0,0,0-1.23816.0813,9.91785,9.91785,0,0,0-1.1305.21643,8.29188,8.29188,0,0,0-.98327.31091,6.67937,6.67937,0,0,0-.78443.36035V11.4312a5.48993,5.48993,0,0,1,.50757-.24829c.189-.0802.39221-.156.61194-.22741.21863-.07141.45044-.13514.69434-.19336q.36748-.0857.76135-.14722.3955-.05932.81079-.09448c.27686-.02307.557-.03516.84265-.03516a8.74463,8.74463,0,0,1,2.34119.28235,4.61307,4.61307,0,0,1,1.693.84265,3.50411,3.50411,0,0,1,1.02942,1.39636,5.052,5.052,0,0,1,.34607,1.94349,4.67588,4.67588,0,0,1-.15271,1.2052,4.07233,4.07233,0,0,1-.45264,1.07226,4.14528,4.14528,0,0,1-.74707.90857,4.62024,4.62024,0,0,1-1.02942.713,5.06061,5.06061,0,0,1,1.33155.73828,4.2916,4.2916,0,0,1,.93823,1.00635,4.2032,4.2032,0,0,1,.55041,1.22827,5.3973,5.3973,0,0,1,.17908,1.39856,5.55788,5.55788,0,0,1-.1593,1.35022,4.455,4.455,0,0,1-.4812,1.19092,4.14724,4.14724,0,0,1-.81629.99207,4.811,4.811,0,0,1-1.15576.75586,6.52051,6.52051,0,0,1-1.50293.4812,9.58568,9.58568,0,0,1-1.86.167q-.77289,0-1.46008-.06043a11.65293,11.65293,0,0,1-1.27991-.18127,8.50319,8.50319,0,0,1-1.09863-.29773,5.56309,5.56309,0,0,1-.91407-.40649Z"/></g></svg>