<svg xmlns="http://www.w3.org/2000/svg" viewBox="0 0 40 40"><defs><style>.cls-1{fill:#0fafff;}.cls-2{fill:#fff;}</style></defs><g id="E764_015_assignment_pins"><circle class="cls-1" cx="20" cy="20" r="17.25"/><path class="cls-2" d="M20.00006,3.5a16.5,16.5,0,1,1-16.5,16.5,16.51868,16.51868,0,0,1,16.5-16.5m0-1.5a18,18,0,1,0,18,18,18,18,0,0,0-18-18Z"/><path class="cls-2" d="M12.79341,27.87554v-15.048l-4.32092.73278V11.76629l5.17346-.99866h1.32166V27.87554Z"/><path class="cls-2" d="M19.17427,25.34869a9.79594,9.79594,0,0,0,.94043.35815,11.0766,11.0766,0,0,0,1.1272.30322q.60315.12855,1.25793.20764a11.29225,11.29225,0,0,0,1.32935.078,5.26267,5.26267,0,0,0,1.74463-.25489,3.15855,3.15855,0,0,0,1.18542-.70312,2.71584,2.71584,0,0,0,.67786-1.07556,4.17573,4.17573,0,0,0,.21643-1.37,2.651,2.651,0,0,0-.2395-1.15686,2.83185,2.83185,0,0,0-.65149-.87341,3.8801,3.8801,0,0,0-.96021-.63172,7.24,7.24,0,0,0-1.17114-.42626,10.97129,10.97129,0,0,0-1.2832-.26917q-.66084-.09723-1.29529-.14612-.63447-.04944-1.2052-.06372l-1.01514-.02637.28235-8.53088H29.263v1.8457H22.17354l-.167,4.823q.59325.028,1.24914.09448.65424.06593,1.32056.19007a12.79663,12.79663,0,0,1,1.31836.3208,8.1747,8.1747,0,0,1,1.24255.48669,6.12461,6.12461,0,0,1,1.09534.68994,4.2799,4.2799,0,0,1,.87451.92835,4.35939,4.35939,0,0,1,.579,1.2052,5.07957,5.07957,0,0,1,.21094,1.51721,6.67708,6.67708,0,0,1-.15052,1.43372A4.95368,4.95368,0,0,1,29.285,25.5739a4.33248,4.33248,0,0,1-.79212,1.06458,4.54956,4.54956,0,0,1-1.14807.813,6.26966,6.26966,0,0,1-1.526.52185,9.16682,9.16682,0,0,1-1.92041.18457q-.76135,0-1.4447-.06043a11.82874,11.82874,0,0,1-1.281-.18127,8.40781,8.40781,0,0,1-1.09863-.29773,5.2395,5.2395,0,0,1-.89978-.40649Z"/></g></svg>