<svg xmlns="http://www.w3.org/2000/svg" viewBox="0 0 40 40"><defs><style>.cls-1{fill:#0fafff;}.cls-2{fill:#fff;}</style></defs><g id="E764_008_assignment_pins"><circle class="cls-1" cx="20" cy="20" r="17.25"/><path class="cls-2" d="M20,3.5A16.5,16.5,0,1,1,3.5,20,16.51868,16.51868,0,0,1,20,3.5M20,2A18,18,0,1,0,38,20,18,18,0,0,0,20,2Z"/><path class="cls-2" d="M22.64384,18.897a5.36649,5.36649,0,0,1,.96021.46143,4.49167,4.49167,0,0,1,.76684.59106,3.86767,3.86767,0,0,1,.58008.70643,4.283,4.283,0,0,1,.401.81079,4.91967,4.91967,0,0,1,.23621.89978,5.96772,5.96772,0,0,1,.078.97229,5.48738,5.48738,0,0,1-.156,1.33154,4.28569,4.28569,0,0,1-.47571,1.16565,4.00276,4.00276,0,0,1-.813.9657,4.63864,4.63864,0,0,1-1.16565.72949,6.86609,6.86609,0,0,1-1.5282.46143,10.326,10.326,0,0,1-1.90613.16149,10.54416,10.54416,0,0,1-1.927-.16149,6.89573,6.89573,0,0,1-1.53918-.46143,4.62048,4.62048,0,0,1-1.16895-.72949,4.00276,4.00276,0,0,1-.813-.9657,4.177,4.177,0,0,1-.47241-1.16565,5.5993,5.5993,0,0,1-.15381-1.33154,5.9666,5.9666,0,0,1,.078-.97229,4.8374,4.8374,0,0,1,.2395-.89978,4.30376,4.30376,0,0,1,.40649-.81079,3.98018,3.98018,0,0,1,.58338-.70643,4.50741,4.50741,0,0,1,.76355-.59106,5.32334,5.32334,0,0,1,.95251-.46143,4.25009,4.25009,0,0,1-1.05029-.68884,3.845,3.845,0,0,1-.74707-.91406,4.14472,4.14472,0,0,1-.44385-1.09973,5.15893,5.15893,0,0,1-.14722-1.24805,5.00968,5.00968,0,0,1,.34937-1.94348,3.52976,3.52976,0,0,1,1.03161-1.39636,4.60339,4.60339,0,0,1,1.70179-.84265,8.86991,8.86991,0,0,1,2.35656-.28235,8.77918,8.77918,0,0,1,2.34119.28235,4.63755,4.63755,0,0,1,1.70178.84265,3.55548,3.55548,0,0,1,1.03821,1.39636,4.98868,4.98868,0,0,1,.35156,1.94348,5.05182,5.05182,0,0,1-.14941,1.24805,4.12817,4.12817,0,0,1-.45264,1.09973,3.938,3.938,0,0,1-.75586.91406A4.32629,4.32629,0,0,1,22.64384,18.897Zm.75586,4.31983A3.61557,3.61557,0,0,0,23.18,21.96214a2.84664,2.84664,0,0,0-.68116-1.05249,3.32736,3.32736,0,0,0-1.17334-.7262,4.77981,4.77981,0,0,0-1.704-.27136,4.80724,4.80724,0,0,0-1.70727.27136,3.3227,3.3227,0,0,0-1.17664.7262,2.84674,2.84674,0,0,0-.68115,1.05249,3.61455,3.61455,0,0,0-.21863,1.25464,3.35453,3.35453,0,0,0,.22522,1.24585,2.54408,2.54408,0,0,0,.69214.98657,3.31361,3.31361,0,0,0,1.17883.65149,5.35432,5.35432,0,0,0,1.6875.2373,5.31352,5.31352,0,0,0,1.67542-.2373,3.32847,3.32847,0,0,0,1.17993-.65149,2.58465,2.58465,0,0,0,.69434-.98657A3.33344,3.33344,0,0,0,23.3997,23.21678Zm-.59436-8.17273a3,3,0,0,0-.21643-1.17114A2.336,2.336,0,0,0,21.966,13.005a2.74444,2.74444,0,0,0-1.00086-.53943,5.02693,5.02693,0,0,0-2.69934,0,2.73538,2.73538,0,0,0-1.00085.53943,2.30369,2.30369,0,0,0-.61963.86792,3.02041,3.02041,0,0,0-.21314,1.17114,3.63039,3.63039,0,0,0,.19556,1.214,2.60278,2.60278,0,0,0,.59106.9635,2.72948,2.72948,0,0,0,.99536.63721,4.38773,4.38773,0,0,0,2.80811,0,2.72939,2.72939,0,0,0,.99536-.63721,2.60281,2.60281,0,0,0,.59107-.9635A3.63066,3.63066,0,0,0,22.80534,15.04405Z"/></g></svg>