<svg xmlns="http://www.w3.org/2000/svg" viewBox="0 0 40 40"><defs><style>.cls-1{fill:#0fafff;}.cls-2{fill:#fff;}</style></defs><g id="E764_004_assignment_pins"><circle class="cls-1" cx="20" cy="20" r="17.25"/><path class="cls-2" d="M20,3.5A16.5,16.5,0,1,1,3.5,20,16.51868,16.51868,0,0,1,20,3.5M20,2A18,18,0,1,0,38,20,18,18,0,0,0,20,2Z"/><path class="cls-2" d="M21.162,27.87554V24.07427H12.585V22.32085l8.64624-11.55322h2.105V22.27471h2.85535v1.79956H23.33623v3.80127Zm0-12.28491c0-.25049.00549-.546.01758-.8888.01208-.34167.02856-.69213.05163-1.04919q-.28179.43176-.57348.86462-.29169.43341-.557.78992l-5.19653,6.96753H21.162Z"/></g></svg>