<svg xmlns="http://www.w3.org/2000/svg" viewBox="0 0 40 40"><defs><style>.cls-1{fill:#0fafff;}.cls-2{fill:#fff;}</style></defs><g id="E764_016_assignment_pins"><circle class="cls-1" cx="20" cy="20" r="17.25"/><path class="cls-2" d="M20.00006,3.5a16.5,16.5,0,1,1-16.5,16.5,16.51868,16.51868,0,0,1,16.5-16.5m0-1.5a18,18,0,1,0,18,18,18,18,0,0,0-18-18Z"/><path class="cls-2" d="M12.79341,27.87426v-15.048l-4.32092.73279V11.765l5.17346-.99866h1.32166V27.87426Z"/><path class="cls-2" d="M30.30122,12.94164q-.37572-.12195-.75586-.23071a8.17976,8.17976,0,0,0-.802-.18787q-.42022-.07744-.89319-.12414-.47295-.04614-1.02063-.04614a5.87007,5.87007,0,0,0-2.24121.39221,4.14206,4.14206,0,0,0-1.61279,1.17114,5.61143,5.61143,0,0,0-1.02612,1.94348,11.95422,11.95422,0,0,0-.4845,2.70484,6.04333,6.04333,0,0,1,.83936-.63721,5.73911,5.73911,0,0,1,.9602-.4845,6.09608,6.09608,0,0,1,1.06677-.30542,6.2245,6.2245,0,0,1,1.17115-.10657,7.37321,7.37321,0,0,1,1.727.19007,5.61534,5.61534,0,0,1,1.42163.54492,4.6507,4.6507,0,0,1,1.11071.85693,4.90089,4.90089,0,0,1,.79651,1.12171,5.55781,5.55781,0,0,1,.4812,1.34363,6.97362,6.97362,0,0,1,.1615,1.5205,6.5378,6.5378,0,0,1-.15271,1.41834,5.512,5.512,0,0,1-.46692,1.30957,5.05373,5.05373,0,0,1-.791,1.13379,4.77,4.77,0,0,1-1.1217.891,5.78668,5.78668,0,0,1-1.46448.58557,7.343,7.343,0,0,1-1.81714.20984,6.3057,6.3057,0,0,1-2.63562-.524,5.14747,5.14747,0,0,1-1.95007-1.54687,7.15167,7.15167,0,0,1-1.2107-2.52246,13.05062,13.05062,0,0,1-.41528-3.464A16.5721,16.5721,0,0,1,19.639,15.975a8.26774,8.26774,0,0,1,1.40515-3.01355,5.97962,5.97962,0,0,1,2.36756-1.8479,8.239,8.239,0,0,1,3.34753-.62952q.61139,0,1.11621.044c.33728.02856.6482.06811.93494.11755a8.0142,8.0142,0,0,1,.79541.17908c.245.06921.47571.14612.69543.23071Zm-8.92859,7.27845a13.4873,13.4873,0,0,0,.14173,1.98742,8.24208,8.24208,0,0,0,.38342,1.56885,4.73709,4.73709,0,0,0,.602,1.17334,3.47557,3.47557,0,0,0,.79871.8053,3.1734,3.1734,0,0,0,.969.46142,4.48927,4.48927,0,0,0,2.68836-.13073,3.04548,3.04548,0,0,0,1.125-.77564,3.25928,3.25928,0,0,0,.67456-1.18762,4.84179,4.84179,0,0,0,.22522-1.51392,4.951,4.951,0,0,0-.22522-1.537,3.17794,3.17794,0,0,0-.67786-1.18872,3.037,3.037,0,0,0-1.14148-.76465,4.427,4.427,0,0,0-1.61828-.27027,6.57423,6.57423,0,0,0-1.0503.0835,5.89879,5.89879,0,0,0-1.01513.25708,6.41662,6.41662,0,0,0-.969.42957A6.30381,6.30381,0,0,0,21.37263,20.22009Z"/></g></svg>