<svg id="Icon" xmlns="http://www.w3.org/2000/svg" viewBox="0 0 40 40"><defs><style>.cls-1{fill:#fff;}</style></defs><g id="E6C4_plus15sec_prio2" data-name="E6C4 plus15sec prio2"><polygon class="cls-1" points="11.2 19.9 7.1 19.9 7.1 15.8 5.9 15.8 5.9 19.9 1.8 19.9 1.8 21.1 5.9 21.1 5.9 25.2 7.1 25.2 7.1 21.1 11.2 21.1 11.2 19.9"/></g><path class="cls-1" d="M14.30322,25.25012q.40429.16407.89453.31543.48927.15088,1.043.2666.55371.11427,1.16651.18457a11.27645,11.27645,0,0,0,1.25879.06934,5.47851,5.47851,0,0,0,1.5332-.19531,3.2927,3.2927,0,0,0,1.11914-.54883,2.32814,2.32814,0,0,0,.68945-.85059,2.54122,2.54122,0,0,0,.23633-1.10742,2.86581,2.86581,0,0,0-.24219-1.19433,2.482,2.482,0,0,0-.72851-.92286,3.45759,3.45759,0,0,0-1.21289-.59228,6.23217,6.23217,0,0,0-1.70215-.20752H16.9126V18.82629h1.4458a5.31806,5.31806,0,0,0,1.417-.17187,2.841,2.841,0,0,0,1.03711-.51025,2.18455,2.18455,0,0,0,.63477-.84083,2.91623,2.91623,0,0,0,.21875-1.16357,2.37043,2.37043,0,0,0-.10352-.71533,2.09964,2.09964,0,0,0-.28906-.58985,2.03665,2.03665,0,0,0-.459-.46386,2.60049,2.60049,0,0,0-.61133-.33057,3.69089,3.69089,0,0,0-.74023-.19726,5.21481,5.21481,0,0,0-.85351-.0669,9.297,9.297,0,0,0-1.12256.0669,9.87439,9.87439,0,0,0-1.05371.18457,8.92774,8.92774,0,0,0-.94581.27392,6.78588,6.78588,0,0,0-.78466.33057V12.91467q.22045-.11278.49218-.22314.27174-.10986.585-.20752.312-.09741.65625-.17432.34277-.0769.71-.12793.36621-.05127.75048-.082.38526-.03077.7793-.03125a8.24409,8.24409,0,0,1,2.15039.25391,4.3527,4.3527,0,0,1,1.57422.75635,3.2068,3.2068,0,0,1,.9668,1.24853,4.24888,4.24888,0,0,1,.32812,1.7251,4.05276,4.05276,0,0,1-.14062,1.07666,3.57923,3.57923,0,0,1-.418.95361,3.78589,3.78589,0,0,1-.6836.80518,4.3127,4.3127,0,0,1-.9414.63037,4.77413,4.77413,0,0,1,1.21484.65381,3.89179,3.89179,0,0,1,.86328.8916,3.70442,3.70442,0,0,1,.51758,1.0918,4.42157,4.42157,0,0,1,.17188,1.24414,4.63288,4.63288,0,0,1-.15235,1.2041,3.8795,3.8795,0,0,1-.46289,1.05664,3.757,3.757,0,0,1-.77148.877,4.5673,4.5673,0,0,1-1.082.666,6.3,6.3,0,0,1-1.39063.42578,9.1316,9.1316,0,0,1-1.707.14844q-.71924,0-1.35156-.05664a11.2583,11.2583,0,0,1-1.18457-.16407,8.07339,8.07339,0,0,1-1.02-.26367,5.81755,5.81755,0,0,1-.85352-.35644Z"/><path class="cls-1" d="M32.60156,27.77747a6.42484,6.42484,0,0,1-1.94824-.26954,4.64129,4.64129,0,0,1-1.47656-.76367,4.44511,4.44511,0,0,1-1.0586-1.19922,6.79174,6.79174,0,0,1-.68945-1.57421,10.63035,10.63035,0,0,1-.374-1.88965,19.49545,19.49545,0,0,1-.11328-2.14258,18.53987,18.53987,0,0,1,.11816-2.14551,10.62964,10.62964,0,0,1,.38672-1.89453,6.85448,6.85448,0,0,1,.70508-1.584A4.568,4.568,0,0,1,29.2207,13.1095a4.6925,4.6925,0,0,1,1.47657-.769,6.30916,6.30916,0,0,1,1.93554-.272,6.51591,6.51591,0,0,1,1.96094.26953,4.69756,4.69756,0,0,1,1.48926.76367,4.44164,4.44164,0,0,1,1.0664,1.19971,6.95226,6.95226,0,0,1,.7002,1.57666,10.35118,10.35118,0,0,1,.38379,1.88916,18.96571,18.96571,0,0,1,.11523,2.14063,18.37557,18.37557,0,0,1-.12011,2.14795,10.65029,10.65029,0,0,1-.38965,1.89453,6.78889,6.78889,0,0,1-.707,1.582,4.5498,4.5498,0,0,1-1.07715,1.2041,4.74484,4.74484,0,0,1-1.49414.76953A6.49134,6.49134,0,0,1,32.60156,27.77747Zm.03125-1.64063a3.45262,3.45262,0,0,0,1.24317-.21,2.818,2.818,0,0,0,.95312-.60254,3.58175,3.58175,0,0,0,.69531-.94824,5.91292,5.91292,0,0,0,.46387-1.249,9.83749,9.83749,0,0,0,.25391-1.499q.07617-.80859.07715-1.70508,0-.89208-.07715-1.69922a9.86135,9.86135,0,0,0-.25391-1.5,5.86141,5.86141,0,0,0-.46387-1.2456,3.63262,3.63262,0,0,0-.69531-.94873,2.80027,2.80027,0,0,0-.95312-.60449,3.77126,3.77126,0,0,0-2.48438,0,2.79573,2.79573,0,0,0-.94824.60205,3.50206,3.50206,0,0,0-.68652.94873,5.96463,5.96463,0,0,0-.457,1.248,10.133,10.133,0,0,0-.251,1.49708q-.07764.80565-.07715,1.70214,0,.8921.07715,1.70215a10.09342,10.09342,0,0,0,.251,1.502,5.89617,5.89617,0,0,0,.457,1.24609,3.54544,3.54544,0,0,0,.68652.94824,2.775,2.775,0,0,0,.94824.60547A3.43426,3.43426,0,0,0,32.63281,26.13684Z"/></svg>