<svg id="E769_car_maintenance" xmlns="http://www.w3.org/2000/svg" viewBox="0 0 40 40"><path d="M27.99,20l2.10009,1.5h2.69971s1.7002,1.1,2.7002,0a2.176,2.176,0,0,0,.5-2.3Z" fill="#fff"/><path d="M38.10475,29.1582c-.00732-.21972-.01465-.4414-.01465-.6582V19.7002a.74084.74084,0,0,0-.334-.69825,11.2681,11.2681,0,0,0-2.26074-2.03332c-1.36426-2.76135-3.8086-7.34436-5.11866-7.56238a85.86752,85.86752,0,0,0-10.10644-.45776,9.30869,9.30869,0,0,1-.33252,1.20434A88.11254,88.11254,0,0,1,30.157,10.583c.56787.24267,2.15967,2.85864,3.5747,5.56616-2.33837-.23132-10.90673-.34033-17.82812-.29456l-.2417,1.21082c7.47266-.06482,17.16992-.021,18.14648.26367a10.23171,10.23171,0,0,1,3.08155,2.50781V28.5c0,.22949.00781.46484.01562.69824.02.59766.04737,1.418-.16162,1.63379-.01611.0166-.06592.06836-.2539.06836l-2.96.001A.47184.47184,0,0,1,33.0901,30.5V28.90039H13.301l-.23926,1.19922h18.8291l.00049.44141A1.68835,1.68835,0,0,0,33.49,32.09961h3A1.48837,1.48837,0,0,0,37.6067,31.666,3.386,3.386,0,0,0,38.10475,29.1582Z" fill="#fff"/><path d="M27.15651,20H15.07643l-.23926,1.19922H26.62379l1.52149,1.68262C27.87721,24.17969,27.01344,26.94043,25.5901,27H15.60377c-.67187-.03467-1.21679-.658-1.63623-1.44153l-.32714,1.63977a2.7217,2.7217,0,0,0,1.9248,1.001H25.615c2.80566-.11621,3.67675-4.86035,3.7666-5.40039l.04785-.28613Z" fill="#fff"/><path d="M15.7654,4.52515a1.55049,1.55049,0,0,0-.77344-.47986L13.16725,8.40552l-2.70019.3385-1.626-2.14893,1.82373-4.36633a1.65723,1.65723,0,0,0-.67676-.17468,1.76768,1.76768,0,0,0-.37158.0448A5.27442,5.27442,0,0,0,7.44118,10.819L4.69752,29.87268a4.19363,4.19363,0,0,0-2.39843,2.31519,4.24712,4.24712,0,0,0,.10937,3.48828c.11182.24182.15283.312.40674.40735l1.356-3.24048,2.50293-.307,1.5166,1.98914-1.35986,3.2666.00927.0039a.86447.86447,0,0,0,.33789.06556,1.34033,1.34033,0,0,0,.5083-.11036,4.21859,4.21859,0,0,0,1.17432-7.18908l3.69727-18.36426A5.237,5.237,0,0,0,15.7654,4.52515Zm-4.38379,7.43554-3.688,18.31714q-.32665-.08606-.74463-.19812A6.10294,6.10294,0,0,0,5.906,29.9L8.60719,11.14209a4.35416,4.35416,0,0,0,1.33545.61621,4.11114,4.11114,0,0,0,1.45069.145Z" fill="#fff"/></svg>