<svg xmlns="http://www.w3.org/2000/svg" viewBox="0 0 40 40"><defs><style>.cls-1,.cls-2{fill:#fff;}.cls-1{fill-rule:evenodd;}</style></defs><g id="E76E_sxm_ip_loss"><g id="V2-2" data-name="V2"><path class="cls-1" d="M19.88575,5h.22857A2.042,2.042,0,0,1,22,7.16857v18.663A2.0419,2.0419,0,0,1,20.11445,28h-.2287A2.042,2.042,0,0,1,18,25.83143V7.16857A2.042,2.042,0,0,1,19.88575,5Z"/><circle class="cls-2" cx="20.00004" cy="33.5" r="2.25"/><path class="cls-2" d="M16.25,23.56a10.7494,10.7494,0,0,0-3.76886,2.38312l.835.85961a9.59131,9.59131,0,0,1,2.9339-1.957Z"/><path class="cls-2" d="M23.75,23.56976v1.28778a9.59266,9.59266,0,0,1,2.93036,1.9679l.83838-.85559A10.74359,10.74359,0,0,0,23.75,23.56976Z"/><path class="cls-2" d="M16.25,14.64624a18.48725,18.48725,0,0,0-9.587,5.32227l.835.85949a17.27689,17.27689,0,0,1,8.752-4.94482Z"/><path class="cls-2" d="M23.75,14.65924v1.23724a17.27137,17.27137,0,0,1,8.748,4.97974l.83886-.85644A18.48582,18.48582,0,0,0,23.75,14.65924Z"/><path class="cls-2" d="M16.5799,5.55811A27.24784,27.24784,0,0,0,.50433,13.64148l.83643.86108A26.05746,26.05746,0,0,1,16.28412,6.80511,4.12545,4.12545,0,0,1,16.5799,5.55811Z"/><path class="cls-2" d="M23.42566,5.56915a4.13034,4.13034,0,0,1,.29126,1.24677,26.059,26.059,0,0,1,14.93829,7.766l.84033-.85742A27.24612,27.24612,0,0,0,23.42566,5.56915Z"/></g></g></svg>