<svg id="Icon" xmlns="http://www.w3.org/2000/svg" viewBox="0 0 40 40"><defs><style>.cls-1{fill:#fff;}.cls-2{fill:none;stroke:#fff;stroke-miterlimit:10;stroke-width:1.2px;}.cls-3{fill:red;}</style></defs><path class="cls-1" d="M29.27247,33.17607a17.38527,17.38527,0,0,1-2.58545-.18176l-.43359,2.97522a9.40676,9.40676,0,0,0,3.02051.43127,9.40564,9.40564,0,0,0,3.02-.43127l-.43556-2.97522A17.40359,17.40359,0,0,1,29.27247,33.17607Zm.00049-8.75635a8.53509,8.53509,0,0,1,2.5957.42725L32.73,21.18059a8.22012,8.22012,0,0,0-3.456-.6128,8.221,8.221,0,0,0-3.45655.6128l.85987,3.66638a8.53206,8.53206,0,0,1,2.59568-.42725Zm3.88184,7.646c-.02051-.79285.03173-3.84351.019-6.97876l-.0083-.67212A14.87808,14.87808,0,0,1,31.977,26.608a24.47354,24.47354,0,0,0-.07178,3.85766,35.82293,35.82293,0,0,0,1.252,3.85767l-.00049-.09253C33.15235,33.59135,33.17529,32.84526,33.1548,32.06572ZM26.624,30.46587a24.54953,24.54953,0,0,0-.07129-3.85767,15.58811,15.58811,0,0,1-1.1538-2.19312l-.00831.67212c.02247,3.11914.022,6.18592.00147,6.97889-.02051.77941.00244,1.52551-.00147,2.16491l-.00048.09253A35.85923,35.85923,0,0,0,26.624,30.46587Z"/><path class="cls-1" d="M29.2798,16.17668a10.07159,10.07159,0,0,1,4.42871.85376,5.03754,5.03754,0,0,1,.78466,1.56848c.06689.412.04053,2.73975.01757,4.79346-.022,1.94971-.04687,4.15955-.03076,6.27954l.00147.13965c.00976,1.23559.01757,2.205.02734,2.58777.00928.31947.02148.63342.03369.93628a7.64736,7.64736,0,0,1-.124,2.573,3.50751,3.50751,0,0,0-.12744.48073c-.1792.80712-.42872,1.62084-1.31739,1.92749a10.5626,10.5626,0,0,1-3.69384.47679,10.56218,10.56218,0,0,1-3.69336-.47655c-.88965-.307-1.13916-1.12061-1.32276-1.947a3.224,3.224,0,0,0-.13476-.49072,7.83019,7.83019,0,0,1-.11183-2.55493c.01221-.30017.0249-.61084.03319-.92725.01026-.39477.01857-1.42346.02882-2.72534.0161-2.11986-.00879-4.32971-.03076-6.27942-.02295-2.05371-.04932-4.38147.01172-4.7655a5.03376,5.03376,0,0,1,.79053-1.59655,10.07391,10.07391,0,0,1,4.42919-.85364m0-1.19995a11.39832,11.39832,0,0,0-5.01079,1.003c-.69384.35486-1.32909,2.10059-1.38476,2.40906-.15283.851.03271,6.38306-.00536,11.27356-.00977,1.2915-.01807,2.31177-.02832,2.70337-.00831.31421-.021.62292-.03322.9209A7.94146,7.94146,0,0,0,23.02,36.3383c.01807.04712.05176.19971.07666.311a3.4196,3.4196,0,0,0,2.09816,2.80213,11.68367,11.68367,0,0,0,4.085.54213,11.68232,11.68232,0,0,0,4.08446-.54213,3.41862,3.41862,0,0,0,2.09814-2.80212c.0249-.11133.05861-.26392.07666-.311a7.94146,7.94146,0,0,0,.20265-3.05163c-.01222-.298-.02441-.60669-.0332-.92089-.01027-.3916-.01807-1.41187-.02832-2.70337-.03809-4.8905.14746-10.42261-.00538-11.27356-.05566-.30847-.69042-2.0542-1.38476-2.40906a11.39756,11.39756,0,0,0-5.01025-1.003Z"/><path class="cls-1" d="M6.60939,5.61064a4.03861,4.03861,0,0,0-3.0625-.88476H.0298V16.23466h1.5v-4.5H3.4629c2.62256-.05859,4.0669-1.32617,4.0669-3.56933A3.38639,3.38639,0,0,0,6.60939,5.61064ZM5.9297,8.17021a1.79611,1.79611,0,0,1-1.82862,2.03222l-2.57128.02929V6.23466h2.75C5.13673,6.23466,5.9297,6.469,5.9297,8.17021Z"/><path class="cls-1" d="M8.41334,21.96318l-.176-.001.02686-1.5.13574.001a7.00907,7.00907,0,0,0,1.65674-.19434l.354,1.457A8.47084,8.47084,0,0,1,8.41334,21.96318Zm-2.33667-.31641A8.08476,8.08476,0,0,1,4.054,20.78443l.77636-1.2832a6.57662,6.57662,0,0,0,1.64722.70019Zm6.39185-1.16211-1.11914-.998a7.26333,7.26333,0,0,0,.95678-1.52442l1.33789.67774A8.51207,8.51207,0,0,1,12.46852,20.48466ZM2.34767,19.28154a3.82936,3.82936,0,0,1-.81812-2.2959h1.5a2.32,2.32,0,0,0,.51734,1.39551ZM14.5398,16.887l-1.30908-.73242A10.44364,10.44364,0,0,1,14.44459,14.386l1.13623.97852A9.023,9.023,0,0,0,14.5398,16.887Zm13.449-1.99024a2.35087,2.35087,0,0,0-.63279-1.35834l1.07031-1.05079a3.851,3.851,0,0,1,1.04639,2.19043Zm-11.0708-.7207L16.083,12.93a9.2363,9.2363,0,0,1,1.93508-.97555l.519,1.4082A7.66246,7.66246,0,0,0,16.918,14.17607Zm3.42041-1.29687-.271-1.47461q.53649-.0996,1.13135-.165l.18579-.02051c.21436-.02441.45923-.05273.72681-.0791l.14746,1.49219c-.25879.02539-.49585.05273-.70337.07714l-.19189.02149c-.36184.039-.70217.0898-1.02517.1484Zm5.62183-.09864a7.40042,7.40042,0,0,0-1.79542-.23535l.03516-1.5a8.97641,8.97641,0,0,1,2.16162.29Z"/><circle class="cls-2" cx="12.77962" cy="32.56849" r="6"/><line class="cls-2" x1="7.22293" y1="30.92508" x2="18.28876" y2="30.92508"/><line class="cls-2" x1="15.00684" y1="34.42396" x2="16.97378" y2="36.3909"/><line class="cls-2" x1="10.55239" y1="34.42396" x2="8.58546" y2="36.3909"/><path class="cls-1" d="M16.18325,31.48554l-.02734-.52246-6.86426.001-.00586.5459a9.45961,9.45961,0,0,0,.18164,1.7959,3.31569,3.31569,0,0,0,3.3125,2.626,3.42694,3.42694,0,0,0,3.2168-2.60254A7.16029,7.16029,0,0,0,16.18325,31.48554Zm-3.447,3.47266A1.65625,1.65625,0,1,1,14.3925,33.302a1.65625,1.65625,0,0,1-1.65625,1.65625Z"/><circle class="cls-3" cx="34.00001" cy="6" r="6"/></svg>