<svg xmlns="http://www.w3.org/2000/svg" viewBox="0 0 40 40"><title>E030_radio_sirius</title><g id="E030_radio_sirius"><g style="isolation:isolate"><path d="M5.11032,35.12818a6.65684,6.65684,0,0,0,.64539.223q.36494.1077.77887.18838.41434.08109.85912.12756a8.50457,8.50457,0,0,0,.89206.04646,4.51223,4.51223,0,0,0,1.17674-.13854,2.60817,2.60817,0,0,0,.85152-.386,1.69055,1.69055,0,0,0,.52121-.58458,1.55125,1.55125,0,0,0,.17825-.73662,1.69809,1.69809,0,0,0-.06167-.47729,1.23957,1.23957,0,0,0-.19091-.38774,1.53465,1.53465,0,0,0-.32355-.321,2.65668,2.65668,0,0,0-.46292-.27286,5.59566,5.59566,0,0,0-.60992-.242q-.34212-.1153-.75605-.23358-.51193-.14382-.96049-.29777a6.81786,6.81786,0,0,1-.81942-.3396,3.784,3.784,0,0,1-.6606-.41477,2.37039,2.37039,0,0,1-.4908-.52037,2.26114,2.26114,0,0,1-.305-.65722,2.9171,2.9171,0,0,1-.10137-.82913,3.32758,3.32758,0,0,1,.10137-.83673,2.54961,2.54961,0,0,1,.31087-.72311,2.52182,2.52182,0,0,1,.52291-.59429,3.0023,3.0023,0,0,1,.73747-.44519,4.37221,4.37221,0,0,1,.96049-.28A6.73959,6.73959,0,0,1,9.09588,25.898q.48278,0,.90558.038a7.12193,7.12193,0,0,1,.78647.11109,4.81607,4.81607,0,0,1,.67411.185,4.00011,4.00011,0,0,1,.5719.25469v1.20294a4.62763,4.62763,0,0,0-.61582-.25681,5.90506,5.90506,0,0,0-.69017-.185,7.06053,7.06053,0,0,0-.77126-.11277c-.27117-.02535-.56008-.0376-.865-.0376a3.94052,3.94052,0,0,0-1.05511.12545,2.15443,2.15443,0,0,0-.74423.35353,1.46009,1.46009,0,0,0-.44518.54952,1.66714,1.66714,0,0,0-.14868.71255,1.64,1.64,0,0,0,.06.46673,1.18745,1.18745,0,0,0,.185.37507,1.40964,1.40964,0,0,0,.31763.30876,2.71105,2.71105,0,0,0,.46124.26018,5.90932,5.90932,0,0,0,.61413.23527q.34467.1134.77718.23526.52713.1508.98245.30876a6.29611,6.29611,0,0,1,.82617.34846,3.83377,3.83377,0,0,1,.65807.42154,2.24377,2.24377,0,0,1,.77549,1.19152,3.17664,3.17664,0,0,1,.09968.83125,3.1365,3.1365,0,0,1-.11658.83461,2.56608,2.56608,0,0,1-.343.74,2.82309,2.82309,0,0,1-.57528.6209,3.39416,3.39416,0,0,1-.80336.47391,4.79725,4.79725,0,0,1-1.03483.30157,7.01532,7.01532,0,0,1-1.268.1056c-.332,0-.65215-.01183-.96049-.03717q-.46377-.038-.87179-.1132a6.38112,6.38112,0,0,1-.75774-.185,3.71216,3.71216,0,0,1-.61414-.2492Z" fill="#fff"/><path d="M20.9664,36.72224,18.47775,33.0391c-.03379-.05491-.07012-.114-.109-.17655-.038-.06167-.07518-.12672-.11066-.19345q-.05194-.10011-.10137-.20274t-.0887-.19894c-.0321.0642-.0642.13051-.09884.19894q-.05069.10263-.10137.20274c-.03379.06673-.06927.13178-.10559.19345-.03633.06251-.07265.12164-.109.17655l-2.48443,3.68314H13.5562l3.70172-5.46388-3.49138-5.18428h1.62785l2.2555,3.38536q.05448.083.109.17782c.03632.06336.0718.12883.10559.19557q.0507.10072.10138.20316c.03377.068.06673.13685.098.20654.027-.06969.0566-.13854.08954-.20654q.04815-.10265.10137-.20316c.03548-.06674.07181-.13221.109-.19557s.07433-.12248.11066-.17782l2.27408-3.38536h1.60927l-3.48716,5.17371,3.72707,5.47445Z" fill="#fff"/><path d="M33.52371,36.72224V29.3378q0-.35923.01267-.76113c.00845-.26821.02534-.528.049-.77929q-.15586.36621-.35058.76113-.19386.39471-.36493.675L30.09822,33.7318h-.89713l-2.76066-4.49833c-.06-.098-.12334-.20527-.18839-.32143-.06589-.11615-.13009-.23569-.19429-.359s-.1284-.24878-.19091-.37676q-.095-.192-.17487-.37888.03675.39472.05322.78816.01647.39282.016.75226v7.38444H24.39949V26.07408h1.56872l3.10617,5.11627c.11319.18669.21794.37676.31256.57063.09376.19388.18245.39366.26441.59936a6.505,6.505,0,0,1,.26187-.60105,5.86812,5.86812,0,0,1,.32692-.57274l3.10617-5.11247h1.54337V36.72224Z" fill="#fff"/></g><path d="M2.6991,14.16772a19.44722,19.44722,0,0,1,34.6018,0l1.07233-.53588a20.6455,20.6455,0,0,0-36.74646,0C1.766,13.70142,2.466,14.05127,2.6991,14.16772Z" fill="#fff"/><path d="M8.06274,16.8479a13.4142,13.4142,0,0,1,23.87452,0l1.0722-.53589a14.6123,14.6123,0,0,0-26.01892,0C7.47266,16.553,7.55,16.59155,8.06274,16.8479Z" fill="#fff"/><path d="M13.39868,19.514a7.43848,7.43848,0,0,1,13.20264,0l1.07245-.53577a8.63675,8.63675,0,0,0-15.34754,0C12.83582,19.23279,12.92139,19.27563,13.39868,19.514Z" fill="#fff"/></g></svg>