<svg xmlns="http://www.w3.org/2000/svg" viewBox="0 0 40 40"><title>E035_connect_app_radio_online</title><g id="E035_connect_app_radio_online"><path d="M20,14.30469a8.62058,8.62058,0,0,1,7.67377,4.67358c-.50959.25452-.59516.29736-1.07245.53577A7.42114,7.42114,0,0,0,20,15.50391Z" fill="#fff"/><path d="M20,2.40234a20.62516,20.62516,0,0,1,18.37323,11.2295c-.13922.06958-.83923.41943-1.07233.53588A19.42491,19.42491,0,0,0,20,3.60156Z" fill="#fff"/><path d="M20,8.35352A14.60132,14.60132,0,0,1,33.00946,16.312c-.48212.241-.55945.27954-1.0722.53589A13.4006,13.4006,0,0,0,20,9.55273Z" fill="#fff"/><g style="isolation:isolate"><path d="M14.14965,36.72224l-2.15994-7.39168c-.03264-.1083-.06824-.23143-.10385-.3689q-.05488-.20545-.10681-.44306c-.03362-.15824-.06725-.32142-.0989-.48955-.03263-.16813-.06131-.33626-.088-.50438-.02868.16812-.06033.33625-.093.50438q-.05044.25219-.10088.48955c-.03461.15824-.06923.30609-.10285.44306-.03462.13747-.06824.2606-.10187.3689l-2.153,7.39168H7.70047l-3.26069-11H5.80656l2.2361,7.99249c.03066.10879.06231.21758.09395.32637.03264.10879.06231.21757.091.32834.02967.10978.05736.22055.085.33131.0277.11176.05341.22549.07813.3412.01978-.11571.04154-.22944.06627-.3412.02472-.11076.04945-.22153.07615-.33131.0267-.11077.05439-.21955.085-.32834.02967-.10879.06132-.21758.09395-.32637l2.249-7.99249h1.26392L14.478,33.72561c.03362.11077.06428.22153.09494.33032.02967.10879.05835.21758.086.32835.02769.10977.05242.22054.07615.33328.02275.11275.04549.22549.06824.33923.02176-.11374.04648-.22648.0722-.33923.0267-.11274.05538-.22351.08505-.33328.02967-.11077.06132-.21956.09494-.32835.03264-.10879.06627-.21955.0989-.33032l2.23907-8.00337h1.351l-3.25772,11Z" fill="#fff"/><path d="M20.406,36.72224v-11h6.25237v1.17937H21.68276v3.60881h4.27638v1.17195H21.68276v3.864H26.6722v1.1759Z" fill="#fff"/><path d="M28.76984,36.72224v-11h2.91553a5.1239,5.1239,0,0,1,1.49337.19483,2.844,2.844,0,0,1,1.06118.56718,2.29807,2.29807,0,0,1,.63394.91976,3.51279,3.51279,0,0,1,.20868,1.25206,3.37849,3.37849,0,0,1-.088.79514,2.46613,2.46613,0,0,1-.2522.64927,2.16027,2.16027,0,0,1-.40251.50982,2.45533,2.45533,0,0,1-.54493.38175,2.96485,2.96485,0,0,1,.74173.42675,2.6049,2.6049,0,0,1,.55582.60477,2.69684,2.69684,0,0,1,.34812.76745,3.329,3.329,0,0,1,.11967.91283,3.89963,3.89963,0,0,1-.09.86042,2.73935,2.73935,0,0,1-.27494.73581,2.378,2.378,0,0,1-.47274.59932,2.667,2.667,0,0,1-.68042.446,3.74989,3.74989,0,0,1-.894.27988,5.84367,5.84367,0,0,1-1.11756.09692Zm2.872-6.13419a3.40222,3.40222,0,0,0,.97415-.12214,1.63057,1.63057,0,0,0,.65867-.36394,1.41293,1.41293,0,0,0,.37285-.59488,2.59046,2.59046,0,0,0,.11769-.81443,1.95554,1.95554,0,0,0-.13747-.75262,1.437,1.437,0,0,0-.41834-.5657,1.93268,1.93268,0,0,0-.70911-.35406,3.716,3.716,0,0,0-1.01074-.12263H30.04662v3.6904Zm.25912,4.96224a3.82793,3.82793,0,0,0,1.05327-.12758,1.94883,1.94883,0,0,0,.72789-.36988,1.44968,1.44968,0,0,0,.42329-.59141,2.15543,2.15543,0,0,0,.13747-.79515,2.44122,2.44122,0,0,0-.12758-.812,1.545,1.545,0,0,0-.39758-.6196,1.8059,1.8059,0,0,0-.69031-.39312,3.24605,3.24605,0,0,0-1.00382-.13747h-1.977v3.84617Z" fill="#fff"/></g></g></svg>