<svg xmlns="http://www.w3.org/2000/svg" viewBox="0 0 40 40"><g id="E787_Child_presence_detection_bell"><path d="M22.553,9.10494a2.50767,2.50767,0,1,0,3.12329,1.68747A2.51,2.51,0,0,0,22.553,9.10494" fill="#fff" stroke="#fff" stroke-miterlimit="10" stroke-width="0.5"/><path d="M23.46625,15.71758a3.13436,3.13436,0,0,0-1.26944.1409l-4.791.89861a1.37009,1.37009,0,0,0,.81111,2.61736l3.059-.50295a29.83509,29.83509,0,0,0-1.114,3.87658l-2.20238.22879a3.9457,3.9457,0,0,0-1.95264.24468l-2.88375,1.017a1.37025,1.37025,0,0,0,1.08738,2.51552l2.24273-.81561a4.34511,4.34511,0,0,1,1.43691-.12426l3.33221.10084c1.11055-.33156,1.19583-.53158,1.51709-1.28367l.053-.12637c-.00028.00475,2.42862-6.60883,2.42862-6.60883a1.6153,1.6153,0,0,0-1.75482-2.17863" fill="#fff" stroke="#fff" stroke-miterlimit="10" stroke-width="0.5"/><path d="M28.92383,8.74512a1.37459,1.37459,0,0,0,.37646,1.01758,1.40164,1.40164,0,0,0,1.00684.42773,2.00348,2.00348,0,0,0,.31494-.02539c.01611-.00293,1.64746-.2959,3.01758-.44922a1.41639,1.41639,0,0,0,1.2417-1.36719c-.10791-3.00488-1.65088-4.65918-4.32959-4.65918l-.05225.002a1.39549,1.39549,0,0,0-1.5625,1.206,1.40989,1.40989,0,0,0-.01172.17578c-.00781.59473-.00488,1.12891-.001,1.72949C28.92773,7.39062,28.93164,8.0127,28.92383,8.74512ZM30.127,5.05176a.20748.20748,0,0,1,.23243-.16895.42913.42913,0,0,1,.04882.00293l.12793.00293c2.03223,0,3.06153,1.14649,3.14649,3.44336a.20463.20463,0,0,1-.17871.19141c-1.40723.1582-3.08008.457-3.08448.458a.53179.53179,0,0,1-.08838.00878H30.313a.22082.22082,0,0,1-.146-.05761.18917.18917,0,0,1-.04394-.14844c.00879-.76563.00488-1.39453.001-2.02637C30.12061,6.20312,30.11719,5.67578,30.127,5.05176Z" fill="#fff"/><path d="M26.18311,29.73267a7.09521,7.09521,0,0,1,.22851-1.47657.64171.64171,0,0,1-.03369-.176V26.39355A37.67976,37.67976,0,0,0,28.98975,19.334a40.75492,40.75492,0,0,0,1.0039-4.90234,2.31014,2.31014,0,0,1,2.2417-2.11426l1.10742-.06152a.932.932,0,0,1,.91553.92285,35.33526,35.33526,0,0,1-.88916,7.251c-.19385.9873-.45264,1.95849-.74121,2.92114a5.83494,5.83494,0,0,1,1.207.15552c.27344-.93347.52051-1.874.708-2.82666a36.48387,36.48387,0,0,0,.915-7.49219,2.13716,2.13716,0,0,0-2.13281-2.13086l-1.14063.06152a3.49712,3.49712,0,0,0-3.38281,3.17872,39.58868,39.58868,0,0,1-.97217,4.73046,36.4581,36.4581,0,0,1-2.58984,6.96094l-.062.126V28.0752A1.85914,1.85914,0,0,0,26.18311,29.73267Z" fill="#fff"/><path d="M30.7865,38.28479l-.00232.023a1.69217,1.69217,0,1,0,3.38434,0l-.00232-.023Z" fill="#fff" fill-rule="evenodd"/><path d="M35.28174,25.86292a4.46522,4.46522,0,0,0-2.80567-1.02015,5.09212,5.09212,0,0,0-4.81054,5.3125l-.09229,2.24414a10.18266,10.18266,0,0,1-.09619,1.3169Z" fill="#fff"/><path d="M37.79883,34.84863a6.00655,6.00655,0,0,1-.41992-2.47363l-.09131-2.19531c0-.11817-.02442-.22876-.03125-.345L30.0332,37.10254H39.458l.11181-1.18945A3.27024,3.27024,0,0,1,37.79883,34.84863Z" fill="#fff"/><path d="M24.87158,36.33789l-15.24023-.001A1.48711,1.48711,0,0,1,8.187,35.14746l-.67822-3.82715c.03809-.71.9541-1.23535,1.77441-1.23535l3.51807.002,1.39551-.002a19.33724,19.33724,0,0,1,6.02441,1.11231,26.37145,26.37145,0,0,0,5.84912,1.288c.00049-.02893.00293-.05957.00293-.08814l.04492-1.11779a25.12414,25.12414,0,0,1-5.50048-1.21485A20.53621,20.53621,0,0,0,14.21,28.88574l-1.40918.002-3.51709-.002c-1.4375,0-2.97607.9961-2.97607,2.48047l.6997,4.001a2.69277,2.69277,0,0,0,2.61719,2.16894l14.05518.001Z" fill="#fff"/><line x1="25.10901" y1="39.07808" x2="38.56734" y2="25.53642" fill="none" stroke="#fff" stroke-miterlimit="10" stroke-width="1.2"/><path d="M7.70848,1.98107,1.42188,13.20662a.88277.88277,0,0,0,.77021,1.3141H14.76528a.88277.88277,0,0,0,.77021-1.3141L9.24889,1.98107A.88276.88276,0,0,0,7.70848,1.98107Z" fill="none" stroke="#fff" stroke-miterlimit="10" stroke-width="1.2"/><line x1="8.47869" y1="5.75712" x2="8.47869" y2="10.9974" fill="none" stroke="#fff" stroke-miterlimit="10" stroke-width="1.2"/><rect x="7.85369" y="11.87078" width="1.25" height="1.25" fill="#fff"/></g></svg>