<svg xmlns="http://www.w3.org/2000/svg" viewBox="0 0 40 40"><defs><style>.cls-1{fill:#fff;}.cls-2{fill:none;stroke:#fff;stroke-width:1.2px;fill-rule:evenodd;}</style></defs><g id="Icon"><circle class="cls-1" cx="30.4996" cy="13.5" r="1"/><circle class="cls-1" cx="29.4996" cy="22.5" r="1"/><circle class="cls-1" cx="37.4996" cy="9.5" r="1"/><circle class="cls-1" cx="22.4996" cy="16.5" r="1"/><circle class="cls-1" cx="21.4996" cy="24.5" r="1"/><circle class="cls-1" cx="36.4996" cy="17.5" r="1"/><circle class="cls-1" cx="36.4996" cy="25.5" r="1"/><path class="cls-2" d="M40,5.5a54.71244,54.71244,0,0,0-7.07376.31081A57.99437,57.99437,0,0,0,25.64893,9.296c-2.749,1.56446-6.48163,4.13855-6.64765,4.19617l-.06152.02149-.06543.00781A69.56267,69.56267,0,0,0,4.347,16.9306a1.32239,1.32239,0,0,0-.5752.41113,13.9223,13.9223,0,0,0-2.8164,8.67538,1.60106,1.60106,0,0,0,.40234,1.05274A1.50268,1.50268,0,0,0,1.971,27.52c1.84668.73731,6.4173,1.26075,7.90461,1.50782l.40527.06738.084.40137a7.0042,7.0042,0,0,0,13.60352.4375L23.9996,29.5H40"/></g></svg>