<svg xmlns="http://www.w3.org/2000/svg" viewBox="0 0 40 40"><defs><style>.cls-1,.cls-2,.cls-3{fill:none;stroke:#fff;}.cls-1{stroke-width:1.2px;}.cls-1,.cls-3{fill-rule:evenodd;}.cls-2,.cls-3{stroke-linejoin:round;stroke-width:1.2px;}</style></defs><g id="Icon"><path class="cls-1" d="M40,5.5a54.54221,54.54221,0,0,0-7.07671.31659A57.99285,57.99285,0,0,0,25.646,9.30173c-2.749,1.56445-6.48163,4.13855-6.64765,4.19617l-.06152.02148-.06543.00781A69.56345,69.56345,0,0,0,4.344,16.93637a1.32232,1.32232,0,0,0-.5752.41114,13.92232,13.92232,0,0,0-2.8164,8.67538,1.60105,1.60105,0,0,0,.40234,1.05273,1.50261,1.50261,0,0,0,.61328.4502c1.84668.7373,6.4173,1.26074,7.90461,1.50781l.40527.06738.084.40137a7.00419,7.00419,0,0,0,13.60352.4375L24,29.5H40"/><path class="cls-2" d="M37.11853,8.87878c-.5943,1.68451-2.4408,3.49726-7.5636,4.93592-8.04663,2.40271-8.04663,10.81-8.04663,10.81,3.87427,1.01685,7.85364,1.072,10.93622-.89C37.69379,20.39374,37.70715,11.98,37.11853,8.87878Z"/><path class="cls-3" d="M15.9166,26.361c9.75932-1.52468,17.186-10.3918,18.63732-12.15316"/></g></svg>