<?xml version="1.0" encoding="utf-8"?>
<!-- Generator: Adobe Illustrator 22.1.0, SVG Export Plug-In . SVG Version: 6.00 Build 0)  -->
<svg version="1.1" id="Ebene_1" xmlns="http://www.w3.org/2000/svg" xmlns:xlink="http://www.w3.org/1999/xlink" x="0px" y="0px"
	 viewBox="0 0 150 40" style="enable-background:new 0 0 150 40;" xml:space="preserve">
<style type="text/css">
	.st0{fill:#FFFFFF;}
	.st1{fill:#FF6D2D;}
	.st2{fill:url(#SVGID_1_);}
	.st3{fill:#6D6E70;}
</style>
<g id="Layer_1">
	<path class="st0" d="M2.3,16.3c0-2.8,1.6-4.2,4.8-4.2h9.5c3.2,0,4.8,1.4,4.8,4.2v6.3c0,2.8-1.6,4.2-4.8,4.2H7
		c-3.2,0-4.7-1.4-4.7-4.2L2.3,16.3z M6.5,22.1c0,1,0.7,1.6,2.1,1.6h6.3c1.4,0,2.1-0.5,2.1-1.6v-5.3c0-1.1-0.7-1.6-2.1-1.6H8.6
		c-1.4,0-2.1,0.5-2.1,1.6L6.5,22.1z"/>
	<path class="st0" d="M27.5,26.9h-4.1V12.1h14.3c3.2,0,4.8,1.2,4.8,3.7V19c0,2.5-1.6,3.7-4.8,3.7h-9.4v-3.2H36
		c1.4,0,2.1-0.5,2.1-1.6v-1.1c0-1.1-0.7-1.6-2.1-1.6h-8.5V26.9z"/>
	<path class="st0" d="M44.3,12.1h4.2v14.8h-4.2V12.1z"/>
	<path class="st0" d="M55.5,12.1H64c3.2,0,4.8,1.1,4.8,3.2H57.6c-1.4,0-2.1,0.4-2.1,1.1v0.3c0,0.5,0.4,0.9,1.3,1.1l7.1,0.5
		c3.2,0.4,4.7,1.6,4.7,3.7v0.8c0,2.8-1.6,4.2-4.8,4.2h-8.5c-3.2,0-4.8-1.1-4.8-3.2h11.1c1.4,0,2.1-0.4,2.1-1.1v-0.3
		c0-0.5-0.4-0.9-1.3-1l-7.1-0.5c-3.2-0.4-4.8-1.8-4.8-4.5v-0.5C50.7,13.3,52.3,12.1,55.5,12.1z"/>
	<path class="st1" d="M74.5,12.1c1.4,0,2.7,0.6,3.7,1.6l8.5,8.5v-10h4.2V27h-3.7c-1.4,0-2.7-0.6-3.7-1.6l-8.5-9V27h-4.2V12.1H74.5z"
		/>
	<path class="st1" d="M105.5,21.6l-2.6-5.3l-5.3,10.6h-4.8l7.4-14.8h2.6c1.5-0.1,3,0.7,3.7,2.1l6.3,12.7H108l-1.1-2.1h-7.7l1.5-3.2
		L105.5,21.6z"/>
	<path class="st1" d="M114.8,24.8l-6.3-12.7h4.8l5.3,10.6l5.3-10.6h4.8l-7.4,14.8h-2.6C116.9,27,115.4,26.2,114.8,24.8z"/>
	
		<linearGradient id="SVGID_1_" gradientUnits="userSpaceOnUse" x1="135.25" y1="-789.01" x2="135.25" y2="-774.21" gradientTransform="matrix(1 0 0 -1 0 -762.11)">
		<stop  offset="0" style="stop-color:#6D6E70"/>
		<stop  offset="1" style="stop-color:#FF6D2D"/>
	</linearGradient>
	<path class="st2" d="M139.5,21.7l-4.5,5.2h-5.8l6.4-7.4l-5.8-7.4h5.8l4,5l1.7,2.4L139.5,21.7z"/>
	<polygon class="st1" points="140.2,16.3 141.7,18.4 147.1,11.5 141.3,11.5 138.9,14.6 	"/>
	<polygon class="st3" points="141.7,20 140.2,21.9 138.9,23.4 141.8,26.9 147.7,26.9 	"/>
</g>
</svg>
