<?xml version="1.0" encoding="UTF-8"?>
<svg id="Ebene_1" data-name="Ebene 1" xmlns="http://www.w3.org/2000/svg" viewBox="0 0 152 40">
  <defs>
    <style>
      .cls-1 {
        fill: #fff;
      }

      .cls-2 {
        fill: #003ca6;
      }
    </style>
  </defs>
  <path class="cls-1" d="M55.32676,17.00095c-.22116,.67296-.59592,1.27836-1.12428,1.8162-.52884,.53832-1.24452,.97572-2.14776,1.31172-.90348,.33648-2.02788,.50448-3.37284,.50448h-2.99808v8.87904h-2.73876V9.47683h5.93868c1.2108,0,2.24364,.14412,3.099,.43236,.85488,.28836,1.55664,.68736,2.10444,1.1964,.54768,.5094,.94632,1.09548,1.1964,1.75848,.2496,.66312,.37476,1.36944,.37476,2.11896,0,.67296-.11088,1.34544-.33156,2.01792m-2.72424-3.21432c-.15408-.39372-.39408-.7446-.72072-1.05228-.327-.3072-.74952-.54768-1.2684-.7206-.51888-.17304-1.14372-.25944-1.87392-.25944h-3.05568v6.60156h2.91156c.76848,0,1.42212-.0864,1.96032-.25944,.53784-.17292,.97524-.40812,1.31172-.70632,.336-.29772,.58104-.6486,.73512-1.05216,.1536-.40368,.23064-.83604,.23064-1.29732,0-.44184-.07704-.85992-.23064-1.254"/>
  <path class="cls-1" d="M63.06694,29.3971c-.17292,.11532-.41352,.19692-.72072,.24504-.30768,.04776-.59592,.072-.86484,.072-.423,0-.8766-.07692-1.36128-.23052-.48456-.1536-.93324-.38916-1.34592-.70632-.41256-.31716-.75672-.71076-1.0314-1.182-.27528-.47064-.41268-1.0134-.41268-1.62876V9.8227l2.65224-.80712V25.62058c0,.32712,.0576,.61044,.17292,.85044,.11532,.24048,.25944,.4374,.43248,.591,.17292,.15408,.3648,.26448,.57648,.33156,.21132,.06756,.42252,.10092,.63432,.10092,.23052,0,.48012-.06228,.74952-.18744,.26892-.1248,.51888-.26388,.74952-.41796l-.23064,2.508Z"/>
  <path class="cls-1" d="M73.72458,29.05295c-.48289,.23016-1.11576,.42156-1.89768,.57516-.78192,.15324-1.54008,.23028-2.27388,.23028-.59856,0-1.24044-.096-1.92601-.2874-.68568-.19236-1.31844-.50808-1.8978-.94956-.57924-.44088-1.06211-1.01172-1.44816-1.71168-.3864-.69996-.57924-1.56756-.57924-2.60352v-8.2278h2.65224v8.17464c0,.53556,.09996,1.00404,.3,1.40532,.19992,.40188,.45756,.73164,.77196,.98964,.3144,.2586,.66672,.45444,1.0572,.58836,.3906,.13368,.786,.2004,1.18644,.2004,.819,0,1.4766-.06216,1.97208-.18648,.49548-.12432,.97165-.3486,1.4292-.67392v-10.49796h2.65224v14.29884l-1.9986-1.32432Z"/>
  <path class="cls-1" d="M88.39206,32.4673c-.41353,.58596-.9612,1.09992-1.64317,1.54224-.68256,.44196-1.47023,.79284-2.36399,1.05228-.89364,.25944-1.82112,.38916-2.78197,.38916-.73055,0-1.39356-.09132-1.98912-.27384-.59592-.18288-1.1148-.43236-1.55664-.74952-.44244-.31704-.78336-.70176-1.02348-1.1532-.24048-.45168-.36036-.93684-.36036-1.45572,0-.38472,.06216-.76392,.18743-1.13868,.1248-.37488,.3072-.72072,.54768-1.03788,.24012-.31716,.5334-.591,.87936-.82164,.34584-.23052,.74952-.40356,1.21068-.51888,.0384-.01884,.10548-.05268,.20184-.10092,.09588-.04776,.16308-.072,.20184-.072l-.08652-.08652c-.4806-.1536-.86976-.36984-1.16748-.6486-.29832-.2784-.44688-.63876-.44688-1.08108,0-.51888,.17748-.89376,.53328-1.1244,.35544-.23052,.8694-.43236,1.54236-.60528-.51888-.19188-.9612-.44688-1.32612-.76404-.36528-.31704-.663-.65808-.89364-1.02336-.23076-.3648-.3942-.74952-.49008-1.15308-.09648-.40368-.14413-.7878-.14413-1.15308,0-.59556,.09588-1.18656,.28824-1.773,.19188-.58608,.50448-1.11936,.93696-1.59996,.43236-.48024,.9846-.8694,1.65756-1.1676,.67248-.29772,1.4892-.44676,2.45041-.44676,.5766,0,1.1676,.10092,1.77288,.30264,.6054,.20184,1.16268,.50448,1.67208,.90816,.50904,.40356,.92257,.918,1.2396,1.54224,.31716,.62484,.47568,1.35048,.47568,2.17656,0,.74952-.12516,1.40304-.37476,1.96032-.24996,.55764-.58152,1.03776-.99456,1.44144-.41353,.40356-.87924,.73512-1.39812,.99444-.519,.25956-1.03789,.45684-1.55676,.591-.53832,.1542-1.03332,.2838-1.48464,.38928-.4518,.10584-.65856,.29328-.6198,.56208,.03828,.30768,.2544,.50448,.6486,.591,.39372,.08652,.86928,.14916,1.42704,.18744,.55716,.03876,1.15308,.0864,1.78728,.14412,.6342,.0576,1.2252,.19236,1.773,.40356,.54768,.2118,.99899,.54768,1.35491,1.00896,.35532,.46128,.53328,1.10496,.53328,1.93152,0,.63432-.20676,1.24404-.6198,1.8306m-2.17656-2.4792c-.17292-.18288-.41353-.32208-.72073-.41808-.30768-.09636-.663-.15852-1.06656-.18732-.40368-.0288-.846-.04332-1.32612-.04332-.34596,0-.74509,.04332-1.1964,.12984-.4518,.0864-.87924,.2256-1.2828,.41796-.40368,.19188-.74508,.44196-1.02348,.74952-.27876,.3072-.41796,.67248-.41796,1.09548,0,.48024,.20628,.86484,.6198,1.15308,.41304,.28836,1.04232,.43248,1.8882,.43248,.5766,0,1.14816-.07704,1.71528-.23064,.56664-.15408,1.07616-.35088,1.52796-.591,.45132-.24048,.82151-.51444,1.10988-.82164,.28824-.30756,.43236-.61524,.43236-.92244,0-.327-.0864-.58152-.25944-.76392m-1.62876-11.51688c-.52885-.53784-1.17744-.80724-1.94592-.80724-.76885,0-1.40808,.26448-1.91712,.79284-.5094,.52884-.76392,1.17744-.76392,1.94592,0,.80712,.25452,1.48956,.76392,2.04684,.50904,.55752,1.15776,.83592,1.94604,.83592,.3648,0,.71568-.07212,1.05216-.21624,.336-.14412,.62436-.34596,.86484-.60528,.24-.25956,.43236-.5622,.5766-.90816,.14412-.34596,.21612-.71076,.21612-1.09548,0-.7878-.26436-1.4508-.79271-1.98912"/>
  <path class="cls-1" d="M101.75378,26.38458c-.34597,.75948-.81708,1.39368-1.41264,1.9026-.59592,.50952-1.29276,.89376-2.09004,1.1532-.79776,.25944-1.6482,.38916-2.55132,.38916-.9612,0-1.917-.17292-2.86836-.51888s-1.94592-.855-2.98368-1.52796l1.00896-2.39268c.86484,.57648,1.65756,1.0572,2.37828,1.44132,.72073,.38472,1.43652,.5766,2.14776,.5766,1.19136,0,2.16204-.2928,2.91168-.87924,.74952-.58608,1.12427-1.43652,1.12427-2.55132,0-.61476-.13968-1.12872-.41808-1.54224-.27876-.41316-.64404-.759-1.09548-1.03788-.4518-.2784-.97068-.51888-1.55664-.72072-.58656-.20172-1.182-.40812-1.7874-.6198-.6054-.2112-1.1964-.44184-1.773-.6918-.57647-.2496-1.09092-.57168-1.54224-.96576-.4518-.39372-.81708-.87924-1.09548-1.45584-.27888-.5766-.41808-1.28736-.41808-2.13324,0-.76848,.15864-1.49412,.4758-2.17656,.31704-.68196,.75396-1.27296,1.31161-1.773,.55715-.49956,1.20083-.89364,1.93151-1.18188,.73009-.28836,1.518-.43248,2.364-.43248,1.74852,0,3.46872,.5094,5.16012,1.52784l-1.03775,2.27748c-.84588-.46128-1.56168-.80712-2.14764-1.03776-.58656-.23064-1.19652-.34596-1.8306-.34596-.48072,0-.92748,.07704-1.34064,.23064-.4134,.15408-.77376,.3702-1.08096,.6486-.30768,.27888-.5478,.6054-.72072,.98016-.17304,.37476-.25944,.78336-.25944,1.2252,0,.76896,.24,1.36488,.72072,1.7874,.48012,.42288,1.08108,.77832,1.80168,1.06656,.72073,.28836,1.5036,.55764,2.3496,.80724,.8454,.24996,1.62876,.58152,2.34948,.99456,.72073,.41352,1.31616,.95628,1.78729,1.62876,.47076,.67296,.70632,1.57608,.70632,2.70984,0,.9996-.17292,1.87884-.51888,2.63784"/>
  <path class="cls-1" d="M113.11183,29.51239v-7.66824c0-1.19148-.24048-2.11896-.72073-2.78196-.4806-.663-1.22064-.99456-2.21976-.99456-.38472,0-.71616,.02436-.99456,.07212-.27888,.04812-.54324,.1152-.79271,.20172-.25009,.08652-.49512,.19728-.73512,.33156-.2406,.13464-.50459,.28824-.79284,.46128v10.37808h-2.59452V9.82279l2.59452-1.06668v7.81248c.49956-.21132,1.01844-.40356,1.55676-.5766,.53784-.17304,1.17204-.25944,1.9026-.25944,.74964,0,1.45092,.11532,2.10444,.34596,.65316,.23064,1.22028,.58152,1.70101,1.05216,.48012,.47124,.8598,1.0572,1.13856,1.7586,.2784,.70176,.41808,1.51344,.41808,2.43588v8.18724h-2.56572Z"/>
  <path class="cls-1" d="M125.50785,29.33942c-.19236,.03828-.4518,.08652-.77845,.14424-.327,.0576-.68232,.10536-1.06655,.14412-.38472,.03816-.77388,.072-1.16761,.1008-.39408,.02892-.75444,.04332-1.08096,.04332-.55775,0-1.08108-.12528-1.57128-.37476-.49008-.2496-.918-.5766-1.2828-.98016-.36528-.40356-.65364-.855-.86484-1.35492-.21168-.49956-.31716-.99912-.31716-1.49916,0-.999,.22068-1.8162,.66312-2.4504,.44184-.6342,1.01844-1.12428,1.72968-1.47024,.71076-.34584,1.52292-.5766,2.436-.6918,.9126-.11532,1.84944-.16308,2.81076-.14412v-1.03788c0-.61476-.18744-1.09044-.56221-1.42704-.37476-.336-.918-.50448-1.62876-.50448-.61536,0-1.27835,.09648-1.98912,.28836-.71136,.19236-1.39368,.51888-2.04684,.98016l-1.03788-2.07564c.92256-.55716,1.84956-.92256,2.78196-1.09548,.93193-.17304,1.81129-.25944,2.63785-.25944,.44183,0,.91752,.05316,1.42692,.15852,.50903,.10584,.98471,.30276,1.42704,.591,.44184,.28824,.81168,.6774,1.10988,1.1676,.29771,.48996,.44675,1.11972,.44675,1.8882v10.57992l-2.07551-.72072Zm-.49008-6.39984c-.64956-.01896-1.2756,0-1.87753,.05772-.60179,.0576-1.13232,.18276-1.59084,.37476-.45864,.19236-.82668,.46608-1.10364,.82152-.27708,.3558-.41532,.81216-.41532,1.36932,0,.5766,.17664,1.06224,.53016,1.45584,.35316,.3942,.79775,.591,1.33284,.591,.24828,0,.52523-.0144,.83112-.0432,.30588-.02892,.60216-.06708,.8886-.11532,.28656-.04776,.55416-.10092,.8028-.15852,.24816-.05772,.43907-.1248,.57299-.20184l.02881-4.15128Z"/>
  <path class="cls-1" d="M137.35594,18.81716c-.61537-.51888-1.28785-.77832-2.01804-.77832-.49992,0-1.02337,.12024-1.57104,.36036-.54779,.24048-1.00452,.72564-1.36944,1.45584v9.65736h-2.5656V15.73256l1.84488,1.15308h.08651c.42252-.34596,.96576-.65304,1.62888-.92244,.663-.26892,1.34988-.40368,2.06124-.40368,.73008,0,1.35492,.08208,1.8738,.24516,.51889,.16344,.97021,.399,1.35492,.7062l-1.32611,2.30628Z"/>
  <path class="cls-1" d="M140.55573,22.97477c-.05675,.65664,.02521,1.26528,.24589,1.8252,.22031,.56028,.53244,1.04316,.93599,1.44852,.40368,.40548,.88872,.72432,1.45585,.95592,.56675,.23184,1.1676,.34764,1.8018,.34764,.7302,0,1.4076-.13416,2.03243-.40356,.62424-.26892,1.27285-.663,1.94581-1.182l1.182,1.95084c-.78828,.6-1.62432,1.06896-2.50812,1.4064-.88417,.33696-1.83552,.5058-2.85396,.5058-1.03777,0-1.97965-.17796-2.82517-.53328-.84587-.35544-1.5702-.855-2.17295-1.49916-.603-.64356-1.06932-1.4076-1.39812-2.29176-.32928-.8838-.49368-1.845-.49368-2.88288,0-.999,.15492-1.92156,.46535-2.76744,.31033-.84552,.74316-1.57572,1.29816-2.19096,.55488-.61488,1.22604-1.09056,2.01349-1.42704,.78732-.336,1.66165-.50448,2.62283-.50448,.71089,0,1.43161,.1356,2.16217,.40584,.7302,.27024,1.38372,.69996,1.96031,1.28916,.57661,.5892,1.04725,1.34232,1.41252,2.25948,.36492,.91752,.54781,2.01336,.54781,3.28776h-9.83041Zm5.82325-4.17204c-.53821-.52836-1.23961-.79272-2.10445-.79272s-1.59996,.26436-2.20535,.79272c-.60541,.52884-1.01388,1.24464-1.2252,2.14764h6.63047c-.19236-.903-.55764-1.6188-1.09547-2.14764"/>
  <rect class="cls-2" x="1.84692" y="2" width="36" height="36" rx="8.43756" ry="8.43756"/>
  <path class="cls-1" d="M17.68094,33.35941c-.0024-.16596-.00936-.31572-.0126-.44412-.01944-.77532,.17712-1.50984,.45108-2.22744,.03048-.07992,.08232-.18924,.08232-.18924,0,0,.19404,.02172,.28872,.02832,1.21404,.08496,2.406,.00348,3.5676-.41232,1.4088-.50412,2.56728-1.3416,3.47856-2.52,1.01352-1.31076,1.88124-2.71452,2.61036-4.20264,.81936-1.67268,1.6116-3.35916,2.4564-5.01888,.50376-.98952,.47352-1.93272-.045-2.8854-.25296-.46452-.5592-.89064-.91548-1.28436-1.2738-1.40808-2.7822-2.5008-4.46268-3.37056-2.05044-1.06116-4.18488-1.88328-6.45984-2.31612-.88464-.16836-1.77408-.15144-2.65788-.02052-.97728,.14496-1.75512,.62592-2.27532,1.485-.09696,.1602-.19284,.32172-.27744,.48864-1.00584,1.9854-2.0088,3.97224-3.01404,5.95788-.37632,.7434-.69072,1.51176-.96432,2.29884-.44268,1.27284-.49728,2.5752-.25656,3.8838,.2382,1.29528,.58092,2.56344,1.40328,3.63864,.04656,.06072,.12648,.14616,.12648,.14616,0,0-.07176,.19836-.09684,.285-.3408,1.18236-.66288,2.36988-.80016,3.59664-.09372,.83616-.10608,1.28088-.10164,2.10708,.00912,.1122,.02052,.4704,.02748,.79212l-.00036,.00036c-1.96644-.56604-3.40212-2.37888-3.40212-4.52784V11.35153c0-2.60184,2.10912-4.71096,4.71096-4.71096H28.43882c2.60172,0,4.71096,2.10912,4.71096,4.71096V28.64845c0,2.60184-2.10924,4.71096-4.71096,4.71096h-10.75788Z"/>
  <path class="cls-1" d="M17.21404,9.73642c.99768-.02028,1.91472,.16404,2.8152,.43296,2.20056,.65724,4.29192,1.56072,6.2064,2.8404,.97632,.65268,1.88664,1.38792,2.62392,2.3154,.36204,.45552,.64452,.94428,.71736,1.53852,.09,.73392-.27108,1.34952-.96228,1.60932-.51372,.19308-1.05276,.23556-1.59072,.2322-1.57176-.00984-3.10176-.2862-4.572-.83916-1.87884-.7068-3.70188-1.53528-5.33136-2.72784-.82932-.60696-1.5036-1.37028-2.05956-2.2368-.35892-.55944-.50016-1.1436-.30792-1.80528,.20892-.71892,.66528-1.13424,1.39308-1.26948,.36984-.06864,.7416-.10848,1.06788-.09024m9.68664,7.2636c.10848-.08796,.43068-.38676,.43068-.9258-.07464-.51276-.3252-.89508-.89208-1.18944-.23292-.11436-.56688-.2784-.87468-.42888-.10452-.05112-.23052-.00444-.28032,.1008l-.89448,1.8912c-.04992,.10548-.0048,.23136,.10092,.28104,.14652,.06876,.40308,.18972,.84996,.4014,.2388,.10848,.49992,.14244,.66204,.14352,.43068,.003,.7896-.186,.89796-.27384m-4.30932-1.7196c.05112-.10464,.00756-.231-.09708-.282l-4.6134-2.25012c-.10464-.05112-.231-.00756-.282,.09708l-.27744,.5688c-.05112,.10476-.00756,.231,.09708,.28212l4.6134,2.25c.10476,.05112,.231,.00756,.282-.09708l.27744-.5688Zm.92472-1.89588c.05112-.10476,.00756-.231-.09708-.282l-4.6134-2.25012c-.10476-.05112-.231-.00756-.28212,.09708l-.27732,.5688c-.05112,.10464-.00756,.231,.09708,.282l4.6134,2.25012c.10464,.05112,.231,.00756,.282-.09708l.27744-.5688Z"/>
</svg>