<svg id="Icon" xmlns="http://www.w3.org/2000/svg" viewBox="0 0 152 40"><defs><style>.cls-1{fill:#00ff80;}.cls-2{fill:#fff;}</style></defs><path class="cls-1" d="M5.03,16H8.796a1.03977,1.03977,0,0,0,1.10342-.96129V13.96129A1.03977,1.03977,0,0,0,8.796,13H5.03a1.03963,1.03963,0,0,0-1.10327.96129v1.07742A1.03963,1.03963,0,0,0,5.03,16"/><path class="cls-2" d="M9.45663,7.21127H3.33272a1.15789,1.15789,0,0,0-1.275,1.306V10.663H8.7726a3.4072,3.4072,0,0,1,3.63827,3.7316,3.45667,3.45667,0,0,1-3.70044,3.79376H2.0577v9.79543A1.14513,1.14513,0,0,0,3.33272,29.29H4.7631a1.14519,1.14519,0,0,0,1.275-1.30618V21.6713H9.45663c4.13578,0,7.02785-2.98525,7.02785-7.27668,0-4.29128-2.89207-7.18335-7.02785-7.18335"/><path class="cls-2" d="M26.76805,19.17165h.6402v-.36542c0-2.0415-1.31036-2.74253-2.8949-2.74253a7.02339,7.02339,0,0,0-3.22946.88367,1.14625,1.14625,0,0,1-1.70664-.51765l-.30459-.57907a1.13536,1.13536,0,0,1,.48782-1.706,11.02326,11.02326,0,0,1,5.08847-1.27995c4.02143,0,6.42836,2.2547,6.42836,6.185v8.43974A1.13094,1.13094,0,0,1,29.998,28.76938h-1.036a1.12206,1.12206,0,0,1-1.24908-1.27994V26.8801a3.051,3.051,0,0,1,.06083-.67h-.06083a5.65886,5.65886,0,0,1-4.87527,2.92471c-2.83362,0-5.149-1.828-5.149-4.66177,0-4.53967,5.606-5.30138,9.07948-5.30138m-2.89445,7.008c2.16361,0,3.56506-2.19387,3.56506-4.0827v-.57892h-.63975c-1.95,0-5.2717.30459-5.2717,2.62a2.11068,2.11068,0,0,0,2.34639,2.04165"/><path class="cls-2" d="M34.59416,14.51A1.13455,1.13455,0,0,1,35.84324,13.23H37.0315A1.15673,1.15673,0,0,1,38.31159,14.51v1.46273a6.45318,6.45318,0,0,1-.09169,1.0663h.06068c.60934-1.859,2.316-3.93033,4.5094-3.93033.85325,0,1.158.42595,1.158,1.27935v1.18825a1.17933,1.17933,0,0,1-1.31036,1.2801c-2.833,0-4.20466,2.80276-4.20466,5.63638v4.99678a1.12181,1.12181,0,0,1-1.24908,1.27994H35.84324a1.12205,1.12205,0,0,1-1.24908-1.27994Z"/><path class="cls-2" d="M45.56232,8.41594a1.15626,1.15626,0,0,1,1.27934-1.27935H48.152A1.14347,1.14347,0,0,1,49.432,8.41594V18.71469h1.9191l3.23-4.63136a1.591,1.591,0,0,1,1.52326-.85325h1.46273c1.03589,0,1.3709.70088.792,1.52386l-3.86966,5.42333V20.238l4.57068,7.008c.51764.88381.18264,1.52341-.85339,1.52341H56.56135a1.54492,1.54492,0,0,1-1.493-.88366L51.44276,21.975H49.432v5.51442a1.13137,1.13137,0,0,1-1.27995,1.28H46.84166a1.14347,1.14347,0,0,1-1.27934-1.28Z"/><path class="cls-2" d="M68.48487,12.86493c4.72289,0,8.56169,3.38227,8.56169,8.135,0,4.78373-3.8388,8.13514-8.56169,8.13514-4.72246,0-8.53143-3.35141-8.53143-8.13514,0-4.75273,3.809-8.135,8.53143-8.135m0,12.98a4.62542,4.62542,0,0,0,4.63136-4.845,4.62124,4.62124,0,1,0-9.23171,0,4.60117,4.60117,0,0,0,4.60035,4.845"/><path class="cls-2" d="M79.04705,14.51A1.14008,1.14008,0,0,1,80.28932,13.23h.94708a1.06264,1.06264,0,0,1,1.21288,1.06689v.70043c0,.335-.02954.60934-.02954.60934h.05893a5.41016,5.41016,0,0,1,4.85253-2.74208c4.08278,0,6.71585,3.321,6.71585,8.13514,0,4.936-2.959,8.135-6.92331,8.135a4.89294,4.89294,0,0,1-4.34917-2.37606h-.05892a9.25351,9.25351,0,0,1,.08889,1.34062v5.48416A1.1152,1.1152,0,0,1,81.5617,34.8634H80.28932a1.12714,1.12714,0,0,1-1.24227-1.27995ZM86.44362,25.875c2.07092,0,3.787-1.7369,3.787-4.814,0-2.95573-1.53876-4.87542-3.7281-4.87542-1.95237,0-3.81642,1.46273-3.81642,4.90583,0,2.40693,1.30177,4.78358,3.7575,4.78358"/><path class="cls-2" d="M103.92165,12.86471c4.41831,0,6.88606,3.13821,6.88606,7.4037a1.3465,1.3465,0,0,1-1.34063,1.31021H99.99131a4.466,4.466,0,0,0,4.66178,4.26609,6.42106,6.42106,0,0,0,3.35127-1.00577c.7617-.36587,1.31021-.27418,1.70664.4267l.36542.60933a1.15723,1.15723,0,0,1-.42685,1.706,9.82046,9.82046,0,0,1-5.271,1.55368A7.96242,7.96242,0,0,1,96.03,20.9997c0-4.78373,3.23005-8.135,7.89167-8.135m3.04668,6.36767c-.06069-2.163-1.37089-3.443-3.13837-3.443a3.78549,3.78549,0,0,0-3.7471,3.443Z"/><path class="cls-2" d="M119.54561,12.86459c3.41194,0,4.53966,2.22443,4.53966,2.22443h.06068a6.51339,6.51339,0,0,1-.06068-.88366V8.41586a1.13444,1.13444,0,0,1,1.24909-1.27935H126.675a1.13417,1.13417,0,0,1,1.24908,1.27935V27.48951a1.12181,1.12181,0,0,1-1.24908,1.27994h-1.12712c-.82283,0-1.24953-.39643-1.24953-1.15813v-.60919a2.49517,2.49517,0,0,1,.06127-.54806h-.06127a5.39138,5.39138,0,0,1-4.87483,2.68066c-4.20467,0-6.91633-3.321-6.91633-8.135,0-4.9361,2.92472-8.13514,7.03844-8.13514M120.2763,25.875c2.01124,0,3.89992-1.46273,3.89992-4.90568,0-2.40693-1.24894-4.78373-3.86906-4.78373-2.10233,0-3.89992,1.73706-3.89992,4.81414,0,2.95573,1.58409,4.87527,3.86906,4.87527"/><path class="cls-2" d="M131.0806,14.51A1.13456,1.13456,0,0,1,132.32969,13.23h1.34062A1.13424,1.13424,0,0,1,134.9194,14.51V27.48951a1.12176,1.12176,0,0,1-1.24909,1.27994h-1.34062a1.12206,1.12206,0,0,1-1.24909-1.27994Z"/><path class="cls-2" d="M145.686,19.17165h.61259v-.36542a2.47768,2.47768,0,0,0-2.76946-2.74253,6.50123,6.50123,0,0,0-3.08954.88367,1.07663,1.07663,0,0,1-1.6327-.51765l-.2914-.57907a1.15916,1.15916,0,0,1,.46669-1.706,10.19221,10.19221,0,0,1,4.868-1.27995c3.84718,0,6.14983,2.2547,6.14983,6.185v8.43974q0,1.27986-1.22393,1.27994h-.99114c-.78675,0-1.19482-.4267-1.19482-1.27994V26.8801a3.19863,3.19863,0,0,1,.05791-.67h-.05791a5.42307,5.42307,0,0,1-4.66419,2.92471A4.645,4.645,0,0,1,137,24.473c0-4.53967,5.36309-5.30138,8.686-5.30138m-2.7689,7.008c2.06987,0,3.41045-2.19387,3.41045-4.0827v-.57892h-.61188c-1.86547,0-5.04317.30459-5.04317,2.62a2.05679,2.05679,0,0,0,2.2446,2.04165"/></svg>