<svg xmlns="http://www.w3.org/2000/svg" viewBox="0 0 40 40"><defs><style>.cls-1{fill:#fff;}</style></defs><g id="E790_slider_dark"><g id="Ebene_1" data-name="Ebene 1"><path class="cls-1" d="M18.8,38.6a9.55609,9.55609,0,0,1-5.9-2c.3,0,.7.1,1,.1a9.81591,9.81591,0,0,0,9.8-9.8,9.68194,9.68194,0,0,0-3.2-7.2,9.52911,9.52911,0,0,1-1.7,18.9Z"/><path class="cls-1" d="M22.4,20.9A8.9103,8.9103,0,0,1,18.9,38a9.9542,9.9542,0,0,1-3.8-.8,10.39829,10.39829,0,0,0,9.3-10.3,11.31863,11.31863,0,0,0-2-6M18.8,19h-.3A9.14655,9.14655,0,0,1,11,35.6a10.39713,10.39713,0,0,0,7.8,3.7,10.15012,10.15012,0,0,0,0-20.3Z"/></g></g></svg>