<svg xmlns="http://www.w3.org/2000/svg" viewBox="0 0 40 40"><g id="E793_boardbook_faq"><path d="M18.752,25.39868l-.21289-3.6626L21.27148,19.158A17.00046,17.00046,0,0,0,23.794,16.30151a4.75569,4.75569,0,0,0,.86816-2.666,2.77628,2.77628,0,0,0-.44727-1.53076,3.06258,3.06258,0,0,0-1.35449-1.10987,5.34582,5.34582,0,0,0-2.21973-.41357,11.29869,11.29869,0,0,0-2.6621.311,13.87812,13.87812,0,0,0-2.58887.91944V10.21509a11.4456,11.4456,0,0,1,2.55566-.897,12.48438,12.48438,0,0,1,2.8125-.32618,8.04785,8.04785,0,0,1,3.10254.54932,4.60452,4.60452,0,0,1,2.03613,1.54541,3.87215,3.87215,0,0,1,.71387,2.31445,6.141,6.141,0,0,1-.85351,3.20069,14.25011,14.25011,0,0,1-2.626,3.06884l-2.87793,2.666-.18262,3.062Zm-.51367,5.60938V28.24731h2.40234v2.76075Z" fill="#fff" stroke="#fff" stroke-miterlimit="10" stroke-width="0.1"/><circle cx="20" cy="20" r="17.5" fill="none" stroke="#fff" stroke-miterlimit="10" stroke-width="1.2"/></g></svg>