<svg id="Icon" xmlns="http://www.w3.org/2000/svg" viewBox="0 0 40 40"><defs><style>.cls-1{fill:#fff;}.cls-2{fill:none;stroke:#fff;stroke-miterlimit:10;stroke-width:1.5px;}</style></defs><g id="V1"><path class="cls-1" d="M6.46436,29.94678A16.97615,16.97615,0,0,1,3.3877,23.082l-1.17579.23633a18.10838,18.10838,0,0,0,3.39771,7.48315Z"/><path class="cls-1" d="M23.28223,36.41211A16.75273,16.75273,0,0,1,10.585,33.877c-.05444-.03656-.10284-.07953-.1568-.11664l-.85351.85352a18.092,18.092,0,0,0,27.5943-9.024l-1.13868-.3789A16.83721,16.83721,0,0,1,23.28223,36.41211Z"/><path class="cls-1" d="M15.74805,3.78174A17.02753,17.02753,0,0,1,29.94312,6.468l.856-.856A18.17947,18.17947,0,0,0,3.14551,13.37158l1.10937.457A17.16517,17.16517,0,0,1,15.74805,3.78174Z"/><path class="cls-1" d="M33.81421,10.37427a16.6907,16.6907,0,0,1,2.60474,5.574l1.1621-.29687A17.88155,17.88155,0,0,0,34.676,9.51251Z"/><polygon class="cls-1" points="1.1 18.9 1.1 29.6 8.6 26.5 1.1 18.9"/><polygon class="cls-1" points="31.641 12.548 38.6 19.6 38.6 8.9 32.955 11.233 31.641 12.548"/><line class="cls-2" x1="37.3" y1="3" x2="3.3" y2="37"/></g></svg>