<svg id="Icon" xmlns="http://www.w3.org/2000/svg" viewBox="0 0 40 40"><defs><style>.cls-1{fill:none;stroke:#fff;stroke-miterlimit:10;stroke-width:1.5px;}.cls-2{fill:#fff;}</style></defs><line class="cls-1" x1="37" y1="3" x2="3" y2="37"/><polygon class="cls-2" points="9.414 26.698 24.709 11.402 6.271 27.9 1.4 27.9 1.4 29.1 6.729 29.1 9.414 26.698"/><polygon class="cls-2" points="15.634 20.477 16.484 19.628 6.729 10.9 1.4 10.9 1.4 12.1 6.271 12.1 15.634 20.477"/><polygon class="cls-2" points="20.588 23.3 19.739 24.15 25.271 29.1 32.9 29.1 32.9 27.9 25.729 27.9 20.588 23.3"/><polygon class="cls-2" points="29.9 32 38.6 28.5 29.9 25 29.9 32"/><polygon class="cls-2" points="29.9 13.989 29.9 15 38.6 11.5 34.171 9.718 29.9 13.989"/></svg>