<svg xmlns="http://www.w3.org/2000/svg" viewBox="0 0 40 40"><g id="E804_navigation_myaudi_ziele"><path d="M32.70464,29.35554l-3.17453,9.06678L26.33927,29.2279a9.33575,9.33575,0,0,1-5.76271-8.67813,9.11935,9.11935,0,1,1,18.23339,0A9.32011,9.32011,0,0,1,32.70464,29.35554Z" fill="none" stroke="#fff" stroke-width="1.2"/><path d="M25.44821,19.12659l3.00226-.3898,1.63752-2.858,1.63752,2.858,2.97411.3898-2.26841,2.20067.87375,3.0533-3.217-1.48617-3.23368,1.47033.88783-3.02954Z" fill="#fff" fill-rule="evenodd"/><path d="M16.195,22.88A10.9349,10.9349,0,1,1,22.88659,8.83907" fill="none" stroke="#fff" stroke-width="1.2"/><path d="M10.95215,17.095c-.27442-.459-.12158-2.11108-.80127-2.17712-2.39111-.23218-1.81543.97009-2.377,1.35009-1.49512,1.01148-1.47413.35584-1.49122.777-.062,1.57056,1.147,1.929,2.13917,2.13843.73046.15466.59423.79382.97265,1.04907.729.49268,1.458.63623,1.52246.37671a3.44975,3.44975,0,0,1,1.4253-1.06934c.583-.06213,2.88037-.53613,2.37011-1.06933C13.93066,17.65356,12.44092,19.59082,10.95215,17.095Z" fill="#fff"/><path d="M9.57471,9.35571c-.34131-.21484.688-1.825,1.02295-2.20068.22363-.251,3.60742-.29468,3.55713-1.02149-.05079-.72692-1.01124-1.03906-1.49561-1.03222-.48438.00622-2.89063-.13111-3.11182-.63819a7.68937,7.68937,0,0,1,.15869-2.43432L6.08691,4.13794,4.625,5.71826s-.07373,2.21082-.20068,3.86719c-.03907.5144.8667,2.74878,1.34277,2.71118.47705-.03747.3374-.96362.33887-1.598C6.11328,7.82361,7.20459,7.866,9.57471,9.35571Z" fill="#fff"/><path d="M19.895,11.06677c.2373.51477-.50537,2.01282-.0708,3.07361a11.97671,11.97671,0,0,1,.69775-.99914,13.26242,13.26242,0,0,0,.30664-2.193c-.061-.43249-1.39892-4.13928-2.00537-4.04785-.60644.09107-1.03271,1.53711-.85351,2.03076C18.29492,9.82886,19.62109,10.47485,19.895,11.06677Z" fill="#fff"/></g></svg>