<svg xmlns="http://www.w3.org/2000/svg" viewBox="0 0 40 40"><g id="E817_navigation_restore_last_tour"><path d="M17.632,20.50236l2.7748-.86111" fill="none" stroke="#fff" stroke-width="1.2"/><path d="M12.83846,21.99l3.463-1.07466" fill="none" stroke="#fff" stroke-width="1.2"/><path d="M25.87633,31.97926,12.3308,24.65269" fill="none" stroke="#fff" stroke-width="1.2"/><path d="M25.981,29.19171a2.31989,2.31989,0,1,1-2.31989,2.31989A2.31989,2.31989,0,0,1,25.981,29.19171Z" fill="#fff" fill-rule="evenodd"/><path d="M9.38772,21.38288a1.67794,1.67794,0,1,1-1.67761,1.67761A1.67747,1.67747,0,0,1,9.38772,21.38288Z" fill="#fff" fill-rule="evenodd"/><path d="M23.33,16.86208a1.67795,1.67795,0,1,1-1.67761,1.67761A1.67747,1.67747,0,0,1,23.33,16.86208Z" fill="#fff" fill-rule="evenodd"/><path d="M22.73,8.42224h1.2V18.54h-1.2Z" fill="#fff" fill-rule="evenodd"/><path d="M30.633,14.912c-4.18549.63988-4.3091-1.93977-7.303-.70082V8.68344c2.92326-1.2079,3.47065,1.80628,7.303,1.43834Z" fill="none" stroke="#fff" stroke-width="1.2"/><path d="M8.78772,11.4943h1.2V21.85415h-1.2Z" fill="#fff" fill-rule="evenodd"/><path d="M16.69071,17.95956c-4.18549.63988-4.30909-1.93977-7.303-.70083V11.76225c2.92327-1.2079,3.47066,1.77505,7.303,1.4071Z" fill="none" stroke="#fff" stroke-width="1.2"/><path d="M5.99387.85994l-3.87,10.397,10.285-3.982Z" fill="#fff" fill-rule="evenodd"/><path d="M20.09185.2334A19.8487,19.8487,0,0,0,6.5733,5.66266l.81494.87005A18.6564,18.6564,0,0,1,20.09185,1.43359,18.70076,18.70076,0,0,1,38.55962,19.87305,18.88015,18.88015,0,0,1,19.99419,38.56738,18.87213,18.87213,0,0,1,1.44708,20H.24786A20.08693,20.08693,0,0,0,19.99419,39.7666,20.095,20.095,0,0,0,39.75884,19.87305,19.91642,19.91642,0,0,0,20.09185.2334Z" fill="#fff"/></g></svg>