<svg xmlns="http://www.w3.org/2000/svg" viewBox="0 0 40 40"><defs><style>.cls-1,.cls-2{fill:#fff;}.cls-2{fill-rule:evenodd;}.cls-3{fill:none;stroke:#fff;stroke-miterlimit:10;stroke-width:1.2px;}</style></defs><g id="Icon"><path class="cls-1" d="M8.99986,13.98518H1.0032V6H8.99986Zm-6.7408-1.25586H7.744V7.25588H2.25906Z"/><path class="cls-1" d="M18.97986,13.98518H11.0042V6h7.97566Zm-6.7198-1.25586H17.724V7.25588H12.26006Z"/><path class="cls-1" d="M8.99986,23.99051H1.0032V16.00436H8.99986Zm-6.7408-1.25586H7.744V17.26021H2.25906Z"/><path class="cls-1" d="M18.97986,23.99051H11.0042V16.00436h7.97566Zm-6.7198-1.25586H17.724V17.26021H12.26006Z"/><polygon class="cls-1" points="24.905 23.981 21.004 23.981 21.004 16.004 24.905 16.004 24.905 17.26 22.26 17.26 22.26 22.725 24.905 22.725 24.905 23.981"/></g><g id="Ebene_1" data-name="Ebene 1"><polygon class="cls-1" points="32.26 11.772 32.26 7.256 37.744 7.256 37.744 9.85 39 9.415 39 6 31.004 6 31.004 12.207 32.26 11.772"/><path class="cls-1" d="M28.98986,12.82129V6H21.0042v7.99516h4.59931Zm-6.7298-5.56541H27.734v5.48344H22.26006Z"/><polygon class="cls-2" points="27.448 21.755 27.448 20.361 38.818 16.408 38.818 17.802 27.448 21.755"/><polygon class="cls-2" points="27.001 15.814 38.996 11.586 38.996 12.981 27.001 17.209 27.001 15.814"/><path class="cls-2" d="M36.56738,31.52121c-1.67836.55611-2.92024.28783-3.38663-.70938-.30986-.66433.69037-2.05686,2.36873-2.61372,1.67835-.55536,3.046-.5268,3.38662.43888C39.30276,29.67553,38.24574,30.96585,36.56738,31.52121ZM25.77346,35.27873c-1.67835.55611-2.92025.28782-3.38663-.70942-.30989-.66432.69037-2.05685,2.36873-2.61371,1.67835-.55536,3.046-.5268,3.38663.43887.36666,1.03854-.69037,2.32888-2.36873,2.88424Z"/><line class="cls-3" x1="38.39873" y1="12.92012" x2="38.39873" y2="29.02695"/><line class="cls-3" x1="27.60495" y1="16.00829" x2="27.60495" y2="32.82032"/></g></svg>