<svg id="E86A_audio_provider_gracenote" xmlns="http://www.w3.org/2000/svg" viewBox="0 0 40 40"><defs><style>.cls-1{fill:#2eabe1;}.cls-2{fill:#fff;}</style></defs><path class="cls-1" d="M3.1,20A16.9,16.9,0,1,0,19.94985,3.1h0A16.88259,16.88259,0,0,0,3.1,20"/><path class="cls-2" d="M26.05,28.8c0,1.4-2.7,2.6-6,2.6s-6-1.2-6-2.6,2.7-2.6,6-2.6,6,1.2,6,2.6"/><path class="cls-2" d="M26.85,18a6.9,6.9,0,1,1-6.9-6.9,6.91383,6.91383,0,0,1,6.9,6.9"/><path class="cls-2" d="M28.65,11.6a1.7,1.7,0,1,1-1.7-1.7,1.62574,1.62574,0,0,1,1.7,1.7h0"/></svg>