<svg id="Icon" xmlns="http://www.w3.org/2000/svg" viewBox="0 0 40 40"><defs><style>.cls-1{fill:#fff;}</style></defs><path class="cls-1" d="M19.1965,35.83295c5.7327,0,8.8525-1.9889,8.8525-5.4206a4.62812,4.62812,0,0,0-2.1449-4.2898,7.67687,7.67687,0,0,0,3.5488-5.8886c0-3.0418-2.5739-4.4067-5.4987-5.3816l-4.5237-1.5209c-3.3538-1.1309-6.2179-1.3649-6.2179-3.7438,0-2.1838,1.7045-4.1823,6.9589-4.1823a15.68973,15.68973,0,0,1,7.1365,1.8254V5.766a14.94635,14.94635,0,0,0-7.0585-1.5989c-5.8496,0-8.4625,2.2618-8.4625,5.3816,0,2.1449.78,2.3928,2.1059,3.3677a8.18666,8.18666,0,0,0-3.3458,6.2559c0,3.0418,2.5268,3.7505,5.4516,4.7254l4.4848,1.4507c4.979,1.5703,6.1476,2.6851,6.1476,5.064,0,2.4958-2.7815,4.1945-7.3566,4.2135A17.09284,17.09284,0,0,1,11.826,32.91v1.2071A15.45014,15.45014,0,0,0,19.1965,35.83295Zm-.2729-21.2012,4.1337,1.3337c3.8278,1.0312,4.947,2.6696,4.947,4.6975,0,1.5209-1.4628,3.5554-3.2957,4.8033-.8579-.39-2.6652-1.0205-3.7962-1.4105l-4.1337-1.3649c-3.0299-1.1423-4.947-1.6774-4.947-3.6663a8.38913,8.38913,0,0,1,3.3078-5.5942C15.9585,13.74235,17.7536,14.24175,18.9236,14.63175Z"/></svg>