<svg xmlns="http://www.w3.org/2000/svg" viewBox="0 0 40 40"><defs><style>.cls-1{fill:#fff;}.cls-1,.cls-2{stroke:#000;}.cls-1,.cls-3{fill-rule:evenodd;}.cls-2{fill:none;stroke-width:1.2px;}</style></defs><g id="E89B_connect_transport_tram"><g id="V2-10" data-name="V2"><path class="cls-1" d="M36.30883.5H3.69118A3.20075,3.20075,0,0,0,.5,3.69118V36.30883A3.20075,3.20075,0,0,0,3.69118,39.5H36.30883A3.20074,3.20074,0,0,0,39.5,36.30883V3.69118A3.20075,3.20075,0,0,0,36.30883.5Z"/><path class="cls-2" d="M12.42857,32.622,9,38.622"/><path class="cls-2" d="M27.42229,32.622,31,38.622"/><path class="cls-2" d="M13,7.5H27c2.209,0,3.40992,2.02995,4,4.122l1.78646,10.71876a7.087,7.087,0,0,1-.0412,2.55493L32,28.622c-.68317,2.23637-1.791,3.878-4,3.878H12c-2.209,0-3.38348-1.74362-4-3.878l-.74526-3.72631a7.087,7.087,0,0,1-.0412-2.55493L9,11.622C9.5445,9.606,10.791,7.5,13,7.5Z"/><path class="cls-2" d="M16,7.5,14,5l3-2.5h6L26,5,24,7.5"/><path class="cls-3" d="M26,24.5a2,2,0,1,1-2,2A1.99945,1.99945,0,0,1,26,24.5Z"/><path class="cls-3" d="M14,24.5a2,2,0,1,1-2,2A1.99945,1.99945,0,0,1,14,24.5Z"/><path class="cls-3" d="M14,12H26v2H14Z"/></g></g></svg>