<svg xmlns="http://www.w3.org/2000/svg" viewBox="0 0 40 40"><defs><style>.cls-1,.cls-4{fill:#fff;}.cls-1{fill-rule:evenodd;}.cls-2,.cls-3{fill:none;stroke:#fff;}.cls-2{stroke-width:1.2px;}.cls-3{stroke-width:1.2px;}</style></defs><g id="E89D_connect_contacts"><g id="V2-2" data-name="V2"><path class="cls-1" d="M19.80955,17.22657a1.42824,1.42824,0,1,1-1.42147,1.42787A1.425,1.425,0,0,1,19.80955,17.22657Z"/><path class="cls-2" d="M31.5,36V27"/><path class="cls-2" d="M27,31.5h9"/><path class="cls-3" d="M26.55014,26.55026a7,7,0,1,1,0,9.89949l0,0A7.00024,7.00024,0,0,1,26.55014,26.55026Z"/><path class="cls-4" d="M30.57422,22.0451V14.05225H17.793c-2.99805,0-3.41113,1.56689-3.41113,3.26025v2.66064c0,2.354.92285,3.2378,3.41113,3.26075H26.8269A9.40165,9.40165,0,0,1,30.57422,22.0451ZM15.582,19.97314V17.3125c0-1.27734.10693-2.06006,2.21094-2.06006H29.374v6.78125H17.79834C15.97559,22.01709,15.582,21.65088,15.582,19.97314Z"/><path class="cls-4" d="M24.78223,38.21729a9.47744,9.47744,0,0,1-.98682-1.17774H2.06641V1.24414H25.60107c1.5669,0,2.29639.73731,2.29639,2.3208v8.76221h1.2002V3.56494A3.194,3.194,0,0,0,25.60107.044H.86621v38.1958H24.807Z"/></g></g></svg>