<svg xmlns="http://www.w3.org/2000/svg" viewBox="0 0 40 40"><defs><style>.cls-1,.cls-2{fill:#fff;}.cls-1{fill-rule:evenodd;}</style></defs><g id="E89E_connect_wifi_hotspot"><g id="V2"><path class="cls-1" d="M20,31.5a2,2,0,1,1-2,2A2,2,0,0,1,20,31.5Z"/><path class="cls-2" d="M1.34082,14.50256a25.73377,25.73377,0,0,1,37.31445.07935l.84034-.85742a26.93446,26.93446,0,0,0-38.99122-.083Z"/><path class="cls-2" d="M7.49805,20.828a17.18483,17.18483,0,0,1,25,.04822l.83886-.85644a18.37881,18.37881,0,0,0-26.67382-.05127Z"/><path class="cls-2" d="M13.31616,26.80273a9.53774,9.53774,0,0,1,13.36426.02271l.83838-.85559a10.73311,10.73311,0,0,0-15.0376-.02673Z"/></g></g></svg>