<svg xmlns="http://www.w3.org/2000/svg" viewBox="0 0 40 40"><g id="E8E8_data_packet_europe_small"><rect y="7.0249" width="40" height="25.95019" fill="#039"/><polygon points="20 9.628 19.667 10.652 18.591 10.652 19.462 11.285 19.129 12.308 20 11.676 20.871 12.308 20.538 11.285 21.409 10.652 20.333 10.652 20 9.628" fill="#fc0"/><polygon points="20.333 28.432 20 27.408 19.667 28.432 18.591 28.432 19.462 29.065 19.129 30.089 20 29.456 20.871 30.089 20.538 29.065 21.409 28.432 20.333 28.432" fill="#fc0"/><polygon points="11.111 20.566 11.982 21.199 11.649 20.175 12.52 19.542 11.444 19.542 11.111 18.518 10.778 19.542 9.702 19.542 10.573 20.175 10.24 21.199 11.111 20.566" fill="#fc0"/><polygon points="15.556 10.819 15.223 11.843 14.146 11.843 15.018 12.476 14.685 13.5 15.556 12.867 16.426 13.5 16.094 12.476 16.964 11.843 15.888 11.843 15.556 10.819" fill="#fc0"/><polygon points="12.302 14.073 11.969 15.097 10.893 15.097 11.764 15.73 11.431 16.754 12.302 16.121 13.173 16.754 12.84 15.73 13.711 15.097 12.635 15.097 12.302 14.073" fill="#fc0"/><polygon points="12.635 23.987 12.302 22.963 11.969 23.987 10.893 23.987 11.764 24.62 11.431 25.644 12.302 25.011 13.173 25.644 12.84 24.62 13.711 23.987 12.635 23.987" fill="#fc0"/><polygon points="15.888 27.241 15.556 26.218 15.223 27.241 14.146 27.241 15.018 27.874 14.685 28.898 15.556 28.265 16.426 28.898 16.094 27.874 16.964 27.241 15.888 27.241" fill="#fc0"/><polygon points="30.298 19.542 29.222 19.542 28.889 18.518 28.556 19.542 27.48 19.542 28.351 20.175 28.018 21.199 28.889 20.566 29.76 21.199 29.427 20.175 30.298 19.542" fill="#fc0"/><polygon points="24.444 10.819 24.112 11.843 23.036 11.843 23.906 12.476 23.574 13.5 24.444 12.867 25.315 13.5 24.982 12.476 25.854 11.843 24.777 11.843 24.444 10.819" fill="#fc0"/><polygon points="27.16 15.73 26.827 16.754 27.698 16.121 28.569 16.754 28.236 15.73 29.107 15.097 28.031 15.097 27.698 14.073 27.365 15.097 26.289 15.097 27.16 15.73" fill="#fc0"/><polygon points="28.031 23.987 27.698 22.963 27.365 23.987 26.289 23.987 27.16 24.62 26.827 25.644 27.698 25.011 28.569 25.644 28.236 24.62 29.107 23.987 28.031 23.987" fill="#fc0"/><polygon points="24.777 27.241 24.444 26.218 24.112 27.241 23.036 27.241 23.906 27.874 23.574 28.898 24.444 28.265 25.315 28.898 24.982 27.874 25.854 27.241 24.777 27.241" fill="#fc0"/><rect y="34.99649" width="12.00025" height="5.00351" fill="#fff"/><rect x="14.49712" y="35.59639" width="11.00577" height="3.80529" fill="none" stroke="#fff" stroke-miterlimit="10" stroke-width="1.2"/><rect x="28.39603" y="35.59639" width="11.00577" height="3.80529" fill="none" stroke="#fff" stroke-miterlimit="10" stroke-width="1.2"/></g></svg>