<?xml version="1.0" encoding="UTF-8"?>
<svg id="V2_Kopie" data-name="V2 Kopie" xmlns="http://www.w3.org/2000/svg" viewBox="0 0 40 40">
  <defs>
    <style>
      .cls-1 {
        fill: #fff;
        fill-rule: evenodd;
      }

      .cls-2 {
        stroke-width: 1.2px;
      }

      .cls-2, .cls-3 {
        fill: none;
        stroke: #fff;
      }

      .cls-3 {
        stroke-linejoin: round;
        stroke-width: 1.2px;
      }
    </style>
  </defs>
  <path class="cls-1" d="M23.5,28.67687c1.11763-.41834,2.30762-.60898,3.5-.56073v3.65275c-1.19067,.03114-2.37016,.23859-3.5,.61558v-3.7076Z"/>
  <path class="cls-1" d="M27,23.90642v4.20972c1.39865,.28116,2.74488,.77878,3.99015,1.47491,0-.96221,.00985-3.63624,.00985-4.0498-1.24223-.7456-2.59115-1.29691-4-1.63483Z"/>
  <path class="cls-1" d="M27,31.76889v3.78186c1.37993,.06604,2.73442,.39596,3.99015,.97191,0-.96221,.00985-3.03577,.00985-3.44932-1.26118-.631-2.6093-1.07063-4-1.30445Z"/>
  <path class="cls-1" d="M35,26.83981v4.031c1.14768,.27297,2.33961,.30418,3.5,.09163v-3.53c-1.15141-.27895-2.32094-.47697-3.5-.59263Z"/>
  <path class="cls-1" d="M34.99015,34.40526v3.35674c1.16979,.06297,2.34253,.04503,3.50985-.05367v-3.00912c-1.17786,.13643-2.37109,.0365-3.50985-.29395Z"/>
  <path class="cls-1" d="M31,29.59105s-.00985,3.15616-.00985,3.48229c1.27008,.62276,2.61911,1.06953,4.00985,1.32798v-3.53048c-1.38544-.24225-2.73124-.67284-4-1.27979Z"/>
  <path id="Form_1_Kopie" data-name="Form 1 Kopie" class="cls-2" d="M38.37667,37.9c-9.04983,0-8.19887-4.1654-14.87667-1.42887v-11.7614c6.681-2.73574,5.39113,2.39367,14.879,2.39367l-.00233,10.7966Z"/>
  <path class="cls-1" d="M38.11482,38.06815c0-.63509-.03184-3.16217-.03184-3.36894"/>
  <line class="cls-3" x1="6.00461" y1="33.5" x2="14.99965" y2="33.5"/>
  <line class="cls-3" x1="8.0532" y1="6.5" x2="12.98184" y2="6.5"/>
  <path class="cls-3" d="M18.275,37.5H2.725c-.66,0-1.225-.665-1.225-1.325V3.825c0-.66,.565-1.325,1.225-1.325h15.55c.66,0,1.225,.665,1.225,1.325V36.175c0,.66-.565,1.325-1.225,1.325Z"/>
</svg>