<svg xmlns="http://www.w3.org/2000/svg" viewBox="0 0 40 40"><defs><style>.cls-1{fill:none;stroke:#fff;stroke-width:1.2px;}.cls-2,.cls-4{fill:#fff;}.cls-2{fill-rule:evenodd;}.cls-3{isolation:isolate;}</style></defs><g id="E90A_006_klima_garage"><g id="V2-4" data-name="V2"><path class="cls-1" d="M26,30.4H19.5"/><path class="cls-1" d="M1.5,31V19L20,8.5,38.5,19v4"/><path class="cls-2" d="M19,24h2v7H19Z"/><path class="cls-2" d="M17,25l3-5,3,5Z"/><g class="cls-3"><path class="cls-4" d="M36.89227,28.77637c-.17676-.05469-.35645-.10645-.53711-.15625s-.3711-.0918-.57032-.127-.41113-.06347-.63476-.084-.46484-.03125-.72266-.03125a4.52165,4.52165,0,0,0-1.60351.25977,2.95274,2.95274,0,0,0-1.16016.7832,3.71225,3.71225,0,0,0-.74414,1.30859,7.45293,7.45293,0,0,0-.35156,1.832,4.07253,4.07253,0,0,1,.60547-.44336,4.252,4.252,0,0,1,.69726-.33593,4.50688,4.50688,0,0,1,.77539-.21289,4.69983,4.69983,0,0,1,.85157-.07422,5.39062,5.39062,0,0,1,1.21679.1289,4.11263,4.11263,0,0,1,1.00586.36719,3.23552,3.23552,0,0,1,1.35352,1.33594,3.67446,3.67446,0,0,1,.34375.916,4.55318,4.55318,0,0,1,.11523,1.041,4.19688,4.19688,0,0,1-.10937.96094,3.68693,3.68693,0,0,1-.332.88867,3.37041,3.37041,0,0,1-1.35743,1.37891,4.13689,4.13689,0,0,1-1.041.39843,5.4548,5.4548,0,0,1-1.293.14258,4.70363,4.70363,0,0,1-1.875-.35351,3.60256,3.60256,0,0,1-1.38477-1.043,4.72608,4.72608,0,0,1-.85742-1.709,8.53994,8.53994,0,0,1-.293-2.35156,10.61448,10.61448,0,0,1,.332-2.793,5.50781,5.50781,0,0,1,1.002-2.041,4.24719,4.24719,0,0,1,1.68359-1.252,6.07919,6.07919,0,0,1,2.36914-.42578q.43359,0,.793.0293.35889.02929.66406.08008.3047.05127.56641.12109.2622.07031.49219.15625Zm-6.38282,4.92968a8.80414,8.80414,0,0,0,.10743,1.34961,5.16039,5.16039,0,0,0,.28125,1.05664,3.10726,3.10726,0,0,0,.43945.78321,2.40427,2.40427,0,0,0,.57617.5332,2.30715,2.30715,0,0,0,.69336.30274,3.21359,3.21359,0,0,0,.793.0957,3.17477,3.17477,0,0,0,1.123-.1836,2.13644,2.13644,0,0,0,1.30664-1.32226,3.04033,3.04033,0,0,0,.168-1.03711,3.14216,3.14216,0,0,0-.166-1.05078,2.11986,2.11986,0,0,0-.49219-.79883,2.15829,2.15829,0,0,0-.82226-.50781A3.43292,3.43292,0,0,0,33.361,32.749a4.90782,4.90782,0,0,0-.76953.06055,4.63083,4.63083,0,0,0-.73633.17969,4.47944,4.47944,0,0,0-.69532.29883A4.71124,4.71124,0,0,0,30.50945,33.70605Z"/></g></g></g></svg>