<?xml version="1.0" encoding="UTF-8"?>
<svg id="Ebene_1" data-name="Ebene 1" xmlns="http://www.w3.org/2000/svg" viewBox="0 0 40 40">
  <defs>
    <style>
      .cls-1 {
        fill: #fff;
      }
    </style>
  </defs>
  <path class="cls-1" d="M30.08109,5.14491c-.1088,.25262-.31056,.45374-.56353,.56173-.25703,.10394-.54412,.10547-.80224,.00427-.25462-.1046-.45865-.30403-.56902-.5562-.10567-.25262-.10743-.53673-.00489-.79064,.10854-.25286,.31069-.45392,.56414-.56108,.25671-.10323,.54307-.10497,.80102-.00488,.25419,.10482,.45821,.30358,.56964,.55495,.10535,.25311,.1071,.53747,.00488,.79186Zm-2.18973,4.09548c-.40666,.4086-1.06541,.41701-1.48238,.01892-.40807-.39031-.42246-1.03753-.03215-1.4456,.00456-.00477,.00917-.0095,.01383-.01418,.19717-.19446,.46128-.30608,.73815-.31195,.27612,.00053,.54189,.10518,.74424,.29306,.40807,.39035,.42244,1.0376,.03209,1.44567-.00455,.00475-.00914,.00946-.01378,.01413v-.00005Zm-.35898,2.23151c.40788,.38878,.42337,1.03461,.03459,1.44249-.00516,.00542-.01039,.01078-.01567,.01608-.40631,.40966-1.06607,.41781-1.48238,.01831-.40806-.38918-.42337-1.03547-.03419-1.44352,.00523-.00548,.01052-.01091,.01587-.01627,.40674-.4085,1.06569-.4161,1.48174-.01709h.00003Zm-3.03037-4.38306c-.26682,.0749-.5521,.04611-.79858-.08059-.24095-.13169-.42181-.35126-.50491-.61297-.07638-.26284-.04747-.54508,.08059-.78698,.13563-.23986,.35843-.41828,.62214-.4982,.26642-.07635,.55197-.04773,.79795,.07998,.24134,.13169,.42245,.35154,.5055,.61363,.07789,.26241,.04846,.54501-.08181,.78575-.13486,.24026-.35729,.41918-.62087,.49941v-.00002Zm-.57241,2.04957c.19473,.19258,.30777,.45278,.31565,.72654-.00039,.27364-.10725,.53639-.29794,.73264-.40597,.41024-1.06607,.41867-1.48238,.01892-.4079-.38992-.42248-1.03668-.03256-1.44459,.0049-.00512,.00984-.01019,.01484-.01521,.1967-.19477,.46076-.30646,.73753-.31195,.27641,.00056,.54242,.10544,.74484,.29366v-.00002Zm-.69721,3.56736c.275,.02768,.5287,.16044,.70822,.37059,.17399,.21143,.25875,.48234,.23628,.75524-.03088,.27218-.1656,.52194-.37609,.69723-.44724,.36512-1.1048,.30339-1.47628-.13859-.363-.43318-.30611-1.07861,.12707-1.44162,.00482-.00404,.00969-.00804,.01459-.012,.21711-.17092,.49083-.25339,.76622-.23084v-.00002Zm-2.85557-4.10541c-.25704,.10192-.54306,.10322-.80102,.00366-.25467-.10409-.45893-.30308-.56964-.55495-.10566-.25262-.10741-.53673-.00488-.79064,.10875-.25292,.31048-.45441,.56353-.56286,.25737-.10264,.5441-.10373,.80224-.00305,.52823,.20835,.78754,.80547,.57919,1.3337-.00173,.00439-.00349,.00877-.00529,.01314-.1091,.25245-.31107,.4533-.56413,.56099Zm-.45965,1.93677c.40843,.39225,.42155,1.04134,.02929,1.44977-.00343,.00357-.00688,.00711-.01036,.01063-.4069,.40884-1.06612,.41698-1.483,.01831-.40824-.39069-.42247-1.03836-.03178-1.4466,.00424-.00444,.00853-.00883,.01285-.01319,.40656-.40942,1.06611-.41783,1.48299-.01892Zm-3.56276-.60626c-.2569,.10443-.5441,.10618-.80224,.00488-.53971-.21826-.8003-.83271-.58205-1.37242,.21826-.53971,.83271-.8003,1.37242-.58205,.53971,.21826,.8003,.83271,.58205,1.37242-.10545,.26075-.31073,.46855-.57018,.57716Zm10.64434,5.17772c.27665-.00033,.5431,.10442,.74546,.29306,.19519,.1921,.30777,.45274,.31382,.72654,.00233,.27376-.10367,.53733-.29489,.73325-.40655,.40967-1.06645,.41782-1.48299,.01831-.40807-.39031-.42247-1.03753-.03216-1.4456,.00457-.00478,.00918-.00951,.01384-.01419,.1968-.19418,.46051-.30559,.73692-.31133v-.00003Z"/>
  <path class="cls-1" d="M36.49058,10.49985c.53723,0,1.04458,.20692,1.42207,.57625,.37374,.3713,.58142,.86592,.58478,1.37709-.00351,.52648-.21116,1.02076-.57868,1.38586-.38378,.37587-.89098,.58287-1.42817,.58287s-1.04439-.207-1.42809-.58279c-.36822-.36071-.57394-.84322-.57926-1.35865-.00531-.51543,.19041-1.00208,.57878-1.39797,.38399-.37574,.89134-.58266,1.42857-.58266m-.66847,7.73241h-.00002c.15426,0,.30972,.01273,.45433,.03654l.79584,.1365c.18236,.03152,.3529,.11198,.48767,.22791,.13458,.11723,.23404,.2692,.28719,.43813,.05218,.16653,.0568,.34392,.01407,.51026-.71334,2.74979-1.47116,5.52947-2.25065,8.25574-.28048,.96173-.9048,1.78057-1.75172,2.30186-.65241,.39609-1.4007,.60546-2.16397,.60546-.24514,0-.49183-.02187-.72962-.06434-1.66116-.30198-3.34279-.62275-5.00492-.95475-.18756-.03635-.37951-.05478-.5705-.05478-.52217,0-1.03765,.13721-1.49705,.40046-1.55391,.90294-3.12123,1.8324-4.65756,2.76204-.2961,.17883-.6353,.27335-.98095,.27335-.41632,0-.81191-.13254-1.14316-.38266-.26995-.20422-.47549-.47526-.59784-.78524,2.63871-1.61593,5.33804-3.21295,8.02027-4.74519,.35629-.20133,.76092-.30775,1.17015-.30775,.15095,0,.30268,.01452,.44898,.04278,1.00905,.19666,2.01892,.38883,3.0271,.57604,.12631,.02373,.25553,.03576,.38407,.03576,.38416,0,.7603-.10618,1.08643-.30624,.44021-.26927,.76224-.69038,.90825-1.19088,.55098-1.92017,1.08952-3.87241,1.59873-5.79528,.17843-.65715,.59254-1.22126,1.15615-1.58214,.45274-.28364,.97445-.43357,1.50872-.43358m.66847-8.9324c-.81881,0-1.63763,.30831-2.26782,.92494-.01538,.01506-.03059,.03027-.04565,.04564-1.20958,1.23479-1.18914,3.21634,.04565,4.42592,.63002,.61704,1.44892,.92556,2.26781,.92556s1.6378-.30852,2.26783-.92556c.59584-.59185,.9334-1.39536,.939-2.23517-.00535-.84022-.34292-1.6442-.939-2.23639-.63019-.61663-1.44901-.92494-2.26782-.92494h0Zm-.6685,7.73241c-.75454,.00002-1.49893,.21141-2.14578,.61667-.82321,.527-1.42101,1.34132-1.67713,2.28462-.51142,1.93112-1.04279,3.85737-1.59411,5.77873-.06059,.20767-.19643,.3853-.38097,.49818-.13939,.08551-.29883,.12992-.46026,.12992-.05416,0-.10858-.005-.1625-.01513-1.00718-.18702-2.01355-.37853-3.01911-.57451-.22502-.04346-.45217-.06494-.67854-.06494-.61311,0-1.22009,.15763-1.76051,.46301-2.73928,1.56481-5.45331,3.17112-8.14211,4.81895-.20636,.12713-.36448,.3194-.44935,.54644-.08372,.226-.08845,.47369-.01343,.70272,.19329,.58298,.55904,1.09353,1.04886,1.46407,.55005,.41533,1.20731,.62565,1.86712,.62565,.55266,0,1.10716-.14769,1.60133-.44616,1.53835-.93086,3.08505-1.84809,4.64008-2.75168,.2739-.15694,.58241-.23801,.89415-.23801,.11414,0,.22872,.01087,.34219,.03286,1.6698,.33355,3.34267,.65266,5.0186,.95732,.31364,.05603,.6295,.08369,.94425,.08369,.97673,0,1.9416-.26662,2.78673-.77971,1.10484-.68001,1.91773-1.74616,2.28097-2.99163,.78758-2.75452,1.54098-5.51798,2.26019-8.29039,.09901-.38536,.08845-.79072-.03052-1.1704-.11992-.38114-.34282-.72174-.64411-.98418-.30486-.26231-.67516-.43702-1.07147-.50552l-.79736-.13676c-.21855-.03602-.43826-.05381-.65721-.05381h0Z"/>
  <path class="cls-1" d="M.03291,24.97865V15.93814H1.18197v9.04051H.03291Z"/>
  <path class="cls-1" d="M6.61266,25.128c-.40688,.0057-.81243-.04769-1.20397-.15849-.33449-.0962-.64998-.24913-.93271-.45213-.26787-.19554-.49931-.43661-.68377-.71223-.19379-.2898-.34887-.6037-.46127-.93372-.12315-.36507-.2096-.7415-.25807-1.12372-.1087-.84934-.10835-1.70909,.00104-2.55834,.04948-.38431,.13695-.76276,.26114-1.1298,.11097-.33321,.26684-.64973,.46331-.94083,.18689-.27621,.42031-.51789,.68987-.71426,.28495-.20396,.60237-.3582,.9388-.45619,.39357-.11115,.80114-.16488,1.21007-.15951,.40721-.00563,.81309,.04776,1.20499,.15849,.33551,.09683,.65223,.2497,.93678,.45213,.26808,.19627,.50041,.4372,.68682,.71223,.19499,.28984,.35013,.60458,.46127,.93576,.12409,.36499,.21157,.74141,.26114,1.12372,.05614,.42269,.08363,.84869,.0823,1.27509,.00129,.4291-.0262,.85781-.0823,1.28323-.05001,.3844-.13816,.76287-.26315,1.12981-.11467,.33209-.27176,.64798-.46737,.93981-.18644,.27691-.42033,.51871-.69089,.71426-.28647,.20365-.60522,.35753-.94286,.45517-.39395,.11116-.80188,.16489-1.21117,.15952Zm.02439-.97233c.27403,.00418,.54679-.03807,.80672-.12497,.22844-.07874,.44006-.1997,.62383-.35658,.18439-.15952,.34037-.34917,.46131-.56088,.13244-.23391,.23713-.48249,.31192-.74068,.08499-.29263,.14414-.59214,.17678-.89511,.0375-.33838,.05581-.67861,.05486-1.01906,.00096-.34012-.01736-.68001-.05486-1.01805-.03283-.30227-.09199-.60109-.17678-.89307-.0748-.25819-.17948-.50677-.31192-.74068-.12094-.21168-.27691-.40132-.46127-.56084-.18422-.15734-.39659-.27835-.62586-.35662-.5256-.16663-1.08987-.16663-1.61547,0-.22969,.07872-.44264,.19967-.62789,.35662-.185,.15944-.34165,.34907-.4633,.56084-.13397,.23341-.23938,.48209-.31395,.74068-.08481,.29198-.14396,.5908-.17678,.89307-.07316,.67706-.07316,1.36004,0,2.0371,.03263,.30297,.09179,.60248,.17678,.89511,.07457,.25859,.17998,.50727,.31395,.74068,.12165,.21177,.2783,.4014,.4633,.56084,.18525,.15695,.39821,.2779,.62789,.35662,.26127,.08704,.53538,.1293,.81074,.12498Z"/>
  <path class="cls-1" d="M17.62101,24.97865l-3.74301-6.08086c-.12598-.20115-.25603-.42704-.39015-.67768-.13519-.25348-.25529-.51473-.35967-.78238,.01219,.12598,.02235,.254,.03251,.38608,.00813,.13005,.01625,.2601,.02235,.38609,.0061,.12797,.01017,.24994,.01423,.36576,.00203,.11786,.00406,.22454,.00406,.32208v6.08086h-1.12165V15.93814h1.22226l3.74605,6.08086c.05893,.09957,.11989,.20625,.18288,.31801,.063,.1138,.12598,.23064,.19101,.35256,.063,.12192,.12599,.24791,.18695,.37695s.11989,.25802,.17678,.38807c-.01219-.12191-.02337-.24688-.03353-.37491-.01015-.12802-.01828-.25502-.02438-.37898-.0061-.12598-.01117-.24587-.01321-.3617-.00406-.11583-.00508-.22251-.00508-.32005v-6.08082h1.12473v9.04051h-1.21314Z"/>
</svg>