<svg xmlns="http://www.w3.org/2000/svg" viewBox="0 0 40 40"><title>E919_sync_on</title><g id="E919_sync_on"><g style="isolation:isolate"><g style="isolation:isolate"><path d="M1.4056,23.08779a6.421,6.421,0,0,0,.63517.222c.23971.07291.496.13477.76773.1889.27284.05412.55452.0961.84725.127a8.03742,8.03742,0,0,0,.87819.0475,4.40612,4.40612,0,0,0,1.15987-.13808,2.56074,2.56074,0,0,0,.83843-.38663,1.66445,1.66445,0,0,0,.51365-.58545,1.56535,1.56535,0,0,0,.17564-.73569,1.71871,1.71871,0,0,0-.06075-.47721,1.23826,1.23826,0,0,0-.18779-.38773,1.56333,1.56333,0,0,0-.31814-.32145,2.70558,2.70558,0,0,0-.45622-.27284,5.40766,5.40766,0,0,0-.602-.24192c-.22425-.07732-.47169-.15465-.74453-.23418q-.50372-.1425-.94668-.29715A6.70836,6.70836,0,0,1,3.099,19.2558a3.71776,3.71776,0,0,1-.65174-.41535,2.36063,2.36063,0,0,1-.48273-.52028,2.23475,2.23475,0,0,1-.30046-.65727,2.9466,2.9466,0,0,1-.10052-.82847,3.33879,3.33879,0,0,1,.10052-.83732,2.54874,2.54874,0,0,1,.306-.72354,2.49355,2.49355,0,0,1,.51477-.59319,2.94319,2.94319,0,0,1,.72685-.44628,4.301,4.301,0,0,1,.94668-.27947,6.48367,6.48367,0,0,1,1.17312-.09721c.31814,0,.61529.01326.89366.03756a7.162,7.162,0,0,1,.77435.11157,4.663,4.663,0,0,1,.66389.18558,3.96116,3.96116,0,0,1,.56447.25406v1.203a4.475,4.475,0,0,0-.60755-.25628,5.84358,5.84358,0,0,0-.67936-.18558,7.02532,7.02532,0,0,0-.76109-.11267q-.401-.03812-.85168-.03756a3.86739,3.86739,0,0,0-1.03947.12482,2.11233,2.11233,0,0,0-.73348.35459,1.46011,1.46011,0,0,0-.43854.549,1.82359,1.82359,0,0,0-.08727,1.17975,1.17978,1.17978,0,0,0,.18227.37448,1.40886,1.40886,0,0,0,.31261.3093,2.67313,2.67313,0,0,0,.45511.25959,5.7805,5.7805,0,0,0,.60424.23529q.34134.11266.76662.23528.51863.15079.96767.3093a6.1547,6.1547,0,0,1,.81411.348,3.79482,3.79482,0,0,1,.64843.422,2.30154,2.30154,0,0,1,.47389.52691,2.33007,2.33007,0,0,1,.28941.665,3.32475,3.32475,0,0,1-.01546,1.6658,2.60512,2.60512,0,0,1-.338.739,2.83389,2.83389,0,0,1-.56779.62081,3.331,3.331,0,0,1-.79092.47389,4.75016,4.75016,0,0,1-1.01958.30157,6.84452,6.84452,0,0,1-1.24935.106q-.49045,0-.94667-.03756c-.30378-.0254-.591-.063-.85941-.11267a6.33715,6.33715,0,0,1-.74563-.18558,3.6629,3.6629,0,0,1-.60535-.24854Z" fill="#fff"/><path d="M13.33129,24.68178V20.53165L9.57662,14.03306h1.51l2.43021,4.25838c.04308.084.08616.17454.13035.27064.04418.09721.08837.19663.13145.29825s.08395.20547.12262.31262c.03976.106.07622.21209.10935.317.03425-.10494.0707-.211.11157-.317.03977-.10715.08285-.211.12814-.31262s.09169-.201.14029-.29825c.0475-.0961.09279-.18668.13587-.27064l2.44015-4.25838h1.5001l-3.758,6.50964v4.13908Z" fill="#fff"/><path d="M27.08847,24.68178,22.36724,17.495c-.15686-.2375-.31924-.4993-.48493-.7854s-.31925-.581-.45953-.88482c.01215.14913.02319.29936.032.4507.00994.15244.01767.30267.0232.4529.00663.14913.00994.29383.01325.43191q.00331.20878.00332.38773v7.13376H20.14913V14.03306H21.6194l4.72123,7.18789c.07622.1193.15355.24523.232.37558.07954.13034.15907.26511.23971.4054q.12262.21043.2386.4286c.07733.14581.15134.29383.22314.44185-.01215-.1436-.02209-.29052-.032-.44185-.00995-.15023-.01768-.29936-.0232-.44628-.00552-.148-.00994-.29052-.01215-.42749-.00221-.13808-.00442-.26622-.00442-.38552V14.03306h1.34987V24.68178Z" fill="#fff"/><path d="M38.5944,24.33051a6.00724,6.00724,0,0,1-.58215.21982,5.28976,5.28976,0,0,1-.66941.1668,7.67175,7.67175,0,0,1-.792.10494c-.2861.0232-.60534.03535-.95551.03535a5.28215,5.28215,0,0,1-1.32667-.158,4.162,4.162,0,0,1-1.12342-.46616,3.74822,3.74822,0,0,1-.9058-.77214,4.39687,4.39687,0,0,1-.66721-1.07482,6.12991,6.12991,0,0,1-.41313-1.37417,9.06879,9.06879,0,0,1-.1414-1.66579,8.63242,8.63242,0,0,1,.13256-1.54871,6.28621,6.28621,0,0,1,.391-1.33551,4.71332,4.71332,0,0,1,.64622-1.09249,3.82887,3.82887,0,0,1,.897-.81964,4.13749,4.13749,0,0,1,1.1411-.51255,5.01146,5.01146,0,0,1,1.37969-.18006q.41591,0,.81964.03977a7.683,7.683,0,0,1,.77325.11488,5.53133,5.53133,0,0,1,.6893.18448,3.57534,3.57534,0,0,1,.56668.24633v1.20295a4.39649,4.39649,0,0,0-.57773-.23418,6.28445,6.28445,0,0,0-.66941-.17674,7.07088,7.07088,0,0,0-.73569-.11378,7.50667,7.50667,0,0,0-.77656-.03866,3.75086,3.75086,0,0,0-1.00854.127,2.74235,2.74235,0,0,0-.82185.37668,2.66993,2.66993,0,0,0-.633.61418,3.44258,3.44258,0,0,0-.44959.83842,5.24533,5.24533,0,0,0-.26842,1.05383,8.23326,8.23326,0,0,0-.08948,1.25377,7.62441,7.62441,0,0,0,.11267,1.372,4.95891,4.95891,0,0,0,.32256,1.09359,3.29785,3.29785,0,0,0,.50592.82738,2.80525,2.80525,0,0,0,.66721.57551,2.85445,2.85445,0,0,0,.80528.338,3.75847,3.75847,0,0,0,.918.10936q.46561,0,.86494-.03645c.26621-.0232.51476-.05744.74563-.09942a5.82156,5.82156,0,0,0,.64953-.15907c.20214-.06186.39435-.13145.57883-.20767Z" fill="#fff"/></g></g></g></svg>