<svg xmlns="http://www.w3.org/2000/svg" viewBox="0 0 40 40"><g id="E91B_AC_off"><g style="isolation:isolate"><g style="isolation:isolate"><path d="M13.07487,21.00232l-1.58456-4.35177H3.85559L2.27636,21.00232H0L6.50542,3.85845h2.408l6.54633,17.14387ZM8.355,7.9399c-.12982-.33612-.25609-.68825-.37347-1.05816a10.25335,10.25335,0,0,1-.29521-1.14351A10.57119,10.57119,0,0,1,7.3644,6.88c-.12627.36813-.2472.72025-.3628,1.05993L4.51183,14.7601h6.30446Z" fill="#fff"/><path d="M16.36315,21.00232,24.42468,3.20044h2.05051L18.43144,21.00232Z" fill="#fff"/><path d="M40,20.43679a9.67485,9.67485,0,0,1-.93722.3539,8.51883,8.51883,0,0,1-1.07772.26854,12.35652,12.35652,0,0,1-1.27512.16895c-.46061.03734-.97457.05691-1.53832.05691a8.50341,8.50341,0,0,1-2.13587-.25432,6.70032,6.70032,0,0,1-1.80865-.75048,6.03483,6.03483,0,0,1-1.45829-1.24311,7.07909,7.07909,0,0,1-1.07416-1.7304,9.86961,9.86961,0,0,1-.66513-2.21234,14.60081,14.60081,0,0,1-.22763-2.68184,13.8978,13.8978,0,0,1,.2134-2.49333,10.121,10.121,0,0,1,.62956-2.1501,7.58774,7.58774,0,0,1,1.04037-1.75885,6.16432,6.16432,0,0,1,1.44407-1.31958,6.661,6.661,0,0,1,1.8371-.82518,8.06834,8.06834,0,0,1,2.22123-.28988q.66957,0,1.31958.064a12.37005,12.37005,0,0,1,1.24489.185,8.90707,8.90707,0,0,1,1.10973.297,5.757,5.757,0,0,1,.91232.39659V6.45493a7.07758,7.07758,0,0,0-.93011-.377,10.11985,10.11985,0,0,0-1.07771-.28454,11.384,11.384,0,0,0-1.18442-.18318,12.08538,12.08538,0,0,0-1.25023-.06224,6.039,6.039,0,0,0-1.62368.20451,4.41464,4.41464,0,0,0-1.32314.60644,4.29848,4.29848,0,0,0-1.019.9888A5.54173,5.54173,0,0,0,30.642,8.6975a8.44475,8.44475,0,0,0-.43216,1.6966,13.25571,13.25571,0,0,0-.144,2.0185,12.2741,12.2741,0,0,0,.1814,2.20878,7.98354,7.98354,0,0,0,.51929,1.76063,5.30932,5.30932,0,0,0,.81452,1.332,4.51619,4.51619,0,0,0,1.07416.92655,4.59612,4.59612,0,0,0,1.29646.5442,6.05153,6.05153,0,0,0,1.47786.17606q.74959,0,1.39249-.05869c.4286-.03735.82874-.09248,1.20043-.16006a9.37409,9.37409,0,0,0,1.0457-.25609c.32545-.09959.6349-.21163.93189-.33434Z" fill="#fff"/></g></g></g></svg>