<svg xmlns="http://www.w3.org/2000/svg" viewBox="0 0 40 40"><g id="E935_navigation_traffic_frei"><path d="M27.50357,18.55234l-26,20" fill="none" stroke="#97e22b" stroke-miterlimit="10" stroke-width="1.2"/><path d="M38.50357,18.55234l-1,20" fill="none" stroke="#97e22b" stroke-miterlimit="10" stroke-width="1.2"/><path d="M25.37292,32.10341l-3.86935,6.44893" fill="none" stroke="#fff" stroke-width="1.2"/><path d="M29.54913,25.14306l-2.97561,4.95936" fill="none" stroke="#fff" stroke-width="1.2"/><path d="M33.50357,18.55234l-2.7283,4.54716" fill="none" stroke="#fff" stroke-width="1.2"/><path d="M18.7756,9.26147c.26644.54736.45234.94679.45234.94679l.00413,5.12155s.0233,1.8137-.86853,1.8137H16.00892c-.567,0-.92945-1.6559-.92945-1.97446H6.84037c0,.48053-.29949,1.97446-.89641,1.97446H3.55732c-.92546,0-.86852-1.80186-.86852-1.80186l.00413-5.12057s.189-.4083.45543-.95961l.48126-.97737A11.71164,11.71164,0,0,1,4.7873,6.281c.48435-.46156,2.48578-.98624,6.16436-.98624,3.6796,0,5.51889.15484,6.16435.95567a14.96331,14.96331,0,0,1,1.16182,2.01095Z" fill="none" stroke="#fff" stroke-width="1.2"/><path d="M2.18089,11.68863H6.57571" fill="none" stroke="#fff" stroke-width="1.2"/><path d="M15.32645,11.68863h3.82466" fill="none" stroke="#fff" stroke-width="1.2"/><path d="M2.66182,9.58276H19.25537" fill="none" stroke="#fff" stroke-width="1.2"/><line x1="18.46768" y1="8.49032" x2="20.86795" y2="8.49032" fill="none" stroke="#fff" stroke-miterlimit="10" stroke-width="1.2"/><line x1="1.09923" y1="8.49032" x2="3.4995" y2="8.49032" fill="none" stroke="#fff" stroke-width="1.2"/></g></svg>