<svg xmlns="http://www.w3.org/2000/svg" viewBox="0 0 40 40"><g id="E936_navigation_traffic_stockend"><path d="M25.37292,32.10341l-3.86935,6.44893" fill="none" stroke="#fff" stroke-width="1.2"/><path d="M29.54913,25.14306l-2.97561,4.95936" fill="none" stroke="#fff" stroke-width="1.2"/><path d="M33.50357,18.55234l-2.7283,4.54716" fill="none" stroke="#fff" stroke-width="1.2"/><path d="M20.29656,16.62834l-8.122-14.372a1.371,1.371,0,0,0-1.201-.705,1.30894,1.30894,0,0,0-1.161.705l-8.117,14.372a1.0327,1.0327,0,0,0-.004,1.212,1.46669,1.46669,0,0,0,1.265.713h16.08a1.46548,1.46548,0,0,0,1.265-.713A1.03111,1.03111,0,0,0,20.29656,16.62834Z" fill="none" stroke="red" stroke-width="1.2"/><path d="M27.50357,18.55234l-26,20" fill="none" stroke="red" stroke-width="1.2"/><path d="M38.50357,18.55234l-1,20" fill="none" stroke="red" stroke-width="1.2"/><path d="M10.50357,15.55234v-1h1v1Zm0-8h1v6h-1Z" fill="#fff" fill-rule="evenodd"/></g></svg>