<svg xmlns="http://www.w3.org/2000/svg" viewBox="0 0 40 40"><defs><style>.cls-1{fill:#0fafff;}.cls-2{fill:#fff;}</style></defs><g id="E764_020_assignment_pins"><circle class="cls-1" cx="20" cy="20" r="17.25"/><path class="cls-2" d="M20,3.5A16.5,16.5,0,1,1,3.5,20,16.51868,16.51868,0,0,1,20,3.5M20,2A18,18,0,1,0,38,20,18,18,0,0,0,20,2Z"/><path class="cls-2" d="M8.156,27.87554V26.2199l4.25061-4.27368q.65754-.66247,1.21729-1.26013.55865-.59656,1.02063-1.14478.46141-.54876.813-1.05908a8.03747,8.03747,0,0,0,.59436-.99756,4.98129,4.98129,0,0,0,.36585-.9635,3.72774,3.72774,0,0,0,.12414-.95471,3.9063,3.9063,0,0,0-.20434-1.29749,2.52484,2.52484,0,0,0-.62842-.99206,2.85417,2.85417,0,0,0-1.08215-.63172,4.90126,4.90126,0,0,0-1.55676-.22192q-.68719,0-1.29859.05493a10.60736,10.60736,0,0,0-1.16455.167,8.04207,8.04207,0,0,0-1.047.28565,6.10383,6.10383,0,0,0-.93164.41528V11.4312a5.73745,5.73745,0,0,1,.86573-.41528,6.98034,6.98034,0,0,1,1.01733-.29663,9.91775,9.91775,0,0,1,1.18542-.17578q.63447-.05767,1.3733-.05823a9.646,9.646,0,0,1,1.83911.1593,6.16343,6.16343,0,0,1,1.45678.45813,4.091,4.091,0,0,1,1.09314.735,3.95393,3.95393,0,0,1,.75257.98987,4.51234,4.51234,0,0,1,.43506,1.21948,7.00531,7.00531,0,0,1,.13842,1.42712,5.47853,5.47853,0,0,1-.18676,1.44251,6.93129,6.93129,0,0,1-.51966,1.34363,9.1488,9.1488,0,0,1-.78662,1.27221q-.45648.61963-.99206,1.22827-.53724.6081-1.13929,1.214-.60315.60645-1.22058,1.22278L11.063,26.08147h8.28809v1.79407Z"/><path class="cls-2" d="M27.50185,28.15789a6.63534,6.63534,0,0,1-2.08741-.29993,4.793,4.793,0,0,1-1.57434-.85583,4.90255,4.90255,0,0,1-1.1217-1.34693,7.73319,7.73319,0,0,1-.7273-1.7677,12.76843,12.76843,0,0,1-.39221-2.12585,23.53137,23.53137,0,0,1-.11755-2.417,22.72739,22.72739,0,0,1,.123-2.42469,12.84055,12.84055,0,0,1,.4065-2.13794,7.90975,7.90975,0,0,1,.74158-1.77868,4.951,4.951,0,0,1,1.13379-1.35242,4.858,4.858,0,0,1,1.57983-.86243,6.55267,6.55267,0,0,1,2.08191-.30322,6.74555,6.74555,0,0,1,2.10278.29993,4.86261,4.86261,0,0,1,1.59192.85693,4.91443,4.91443,0,0,1,1.136,1.34693,7.81729,7.81729,0,0,1,.74157,1.771,12.46412,12.46412,0,0,1,.4043,2.12476,23.11833,23.11833,0,0,1,.12085,2.41369,22.8155,22.8155,0,0,1-.12415,2.42908,12.65109,12.65109,0,0,1-.40649,2.13684,7.7106,7.7106,0,0,1-.75037,1.77869,4.82453,4.82453,0,0,1-2.74768,2.21265A6.79015,6.79015,0,0,1,27.50185,28.15789Zm.04614-1.84021a3.37457,3.37457,0,0,0,1.30408-.23621,2.94122,2.94122,0,0,0,.99755-.67456,3.92317,3.92317,0,0,0,.724-1.06128,7.013,7.013,0,0,0,.4812-1.40185,11.86343,11.86343,0,0,0,.26587-1.693q.08076-.913.0813-1.92919,0-1.01514-.0813-1.92591a11.90585,11.90585,0,0,0-.26587-1.69079,7.026,7.026,0,0,0-.4812-1.40076,3.92348,3.92348,0,0,0-.724-1.06128,2.96,2.96,0,0,0-.99755-.67566,3.70577,3.70577,0,0,0-2.60376,0,2.93782,2.93782,0,0,0-.99207.67566,3.82876,3.82876,0,0,0-.71521,1.06128,7.09805,7.09805,0,0,0-.47351,1.40076,12.24387,12.24387,0,0,0-.26257,1.69079q-.08076.91132-.0802,1.92591,0,1.01512.0802,1.92919a12.199,12.199,0,0,0,.26257,1.693,7.085,7.085,0,0,0,.47351,1.40185,3.82847,3.82847,0,0,0,.71521,1.06128,2.91916,2.91916,0,0,0,.99207.67456A3.34415,3.34415,0,0,0,27.548,26.31768Z"/></g></svg>