<svg xmlns="http://www.w3.org/2000/svg" viewBox="0 0 40 40"><defs><style>.cls-1{fill:#0fafff;}.cls-2{fill:#fff;}</style></defs><g id="E764_010_assignment_pins"><circle class="cls-1" cx="20" cy="20" r="17.25"/><path class="cls-2" d="M20,3.5A16.5,16.5,0,1,1,3.5,20,16.51868,16.51868,0,0,1,20,3.5M20,2A18,18,0,1,0,38,20,18,18,0,0,0,20,2Z"/><path class="cls-2" d="M12.79335,27.87169v-15.048l-4.32092.73279V11.76243l5.17346-.99865h1.32165V27.87169Z"/><path class="cls-2" d="M24.95961,28.154a6.63529,6.63529,0,0,1-2.0874-.29992,4.79286,4.79286,0,0,1-1.57434-.85584,4.90269,4.90269,0,0,1-1.12171-1.34692,7.73318,7.73318,0,0,1-.72729-1.7677,12.76772,12.76772,0,0,1-.39221-2.12586,23.52818,23.52818,0,0,1-.11756-2.417,22.72464,22.72464,0,0,1,.123-2.42468,12.84018,12.84018,0,0,1,.40649-2.13794,7.91049,7.91049,0,0,1,.74158-1.77869A4.95082,4.95082,0,0,1,21.344,11.64708a4.85777,4.85777,0,0,1,1.57983-.86243,6.55243,6.55243,0,0,1,2.08191-.30322,6.74563,6.74563,0,0,1,2.10279.29992,4.86248,4.86248,0,0,1,1.59191.85694,4.91453,4.91453,0,0,1,1.136,1.34692,7.81784,7.81784,0,0,1,.74158,1.771,12.46383,12.46383,0,0,1,.40429,2.12475,23.11838,23.11838,0,0,1,.12085,2.4137,22.81585,22.81585,0,0,1-.12414,2.42908,12.65225,12.65225,0,0,1-.4065,2.13684,7.71112,7.71112,0,0,1-.75036,1.77868,4.82453,4.82453,0,0,1-2.74768,2.21265A6.78992,6.78992,0,0,1,24.95961,28.154Zm.04614-1.84021a3.37476,3.37476,0,0,0,1.30408-.2362,2.94164,2.94164,0,0,0,.99756-.67456,3.92393,3.92393,0,0,0,.724-1.06128,7.01413,7.01413,0,0,0,.4812-1.40186,11.86612,11.86612,0,0,0,.26587-1.693q.08075-.913.0813-1.9292,0-1.01514-.0813-1.9259a11.90863,11.90863,0,0,0-.26587-1.6908,7.02771,7.02771,0,0,0-.4812-1.40076,3.92372,3.92372,0,0,0-.724-1.06127,2.96017,2.96017,0,0,0-.99756-.67566,3.70577,3.70577,0,0,0-2.60376,0,2.93782,2.93782,0,0,0-.99207.67566,3.82878,3.82878,0,0,0-.71521,1.06127,7.09915,7.09915,0,0,0-.47351,1.40076,12.24378,12.24378,0,0,0-.26257,1.6908q-.08074.91131-.0802,1.9259,0,1.01514.0802,1.9292a12.19889,12.19889,0,0,0,.26257,1.693,7.08549,7.08549,0,0,0,.47351,1.40186,3.829,3.829,0,0,0,.71521,1.06128,2.91944,2.91944,0,0,0,.99207.67456A3.34434,3.34434,0,0,0,25.00575,26.31382Z"/></g></svg>