<svg xmlns="http://www.w3.org/2000/svg" viewBox="0 0 40 40"><defs><style>.cls-1{fill:#0fafff;}.cls-2{fill:#fff;}</style></defs><g id="E764_012_assignment_pins"><circle class="cls-1" cx="20" cy="20" r="17.25"/><path class="cls-2" d="M20,3.5A16.5,16.5,0,1,1,3.5,20,16.51868,16.51868,0,0,1,20,3.5M20,2A18,18,0,1,0,38,20,18,18,0,0,0,20,2Z"/><path class="cls-2" d="M12.77466,27.87554v-15.048l-4.32092.73278V11.76629l5.17346-.99866h1.32166V27.87554Z"/><path class="cls-2" d="M19.15662,27.87554V26.2199l4.25061-4.27368q.65754-.66247,1.21729-1.26013.55864-.59656,1.02063-1.14478.46142-.54876.813-1.05908a8.03747,8.03747,0,0,0,.59436-.99756,4.98129,4.98129,0,0,0,.36585-.9635,3.72774,3.72774,0,0,0,.12414-.95471,3.9063,3.9063,0,0,0-.20434-1.29749,2.52484,2.52484,0,0,0-.62842-.99206,2.85417,2.85417,0,0,0-1.08215-.63172,4.90126,4.90126,0,0,0-1.55676-.22192q-.6872,0-1.29859.05493a10.60736,10.60736,0,0,0-1.16455.167,8.04207,8.04207,0,0,0-1.047.28565,6.10383,6.10383,0,0,0-.93164.41528V11.4312a5.73745,5.73745,0,0,1,.86573-.41528,6.98034,6.98034,0,0,1,1.01733-.29663,9.91775,9.91775,0,0,1,1.18542-.17578q.63447-.05767,1.3733-.05823a9.646,9.646,0,0,1,1.83911.1593,6.16343,6.16343,0,0,1,1.45678.45813,4.091,4.091,0,0,1,1.09314.735,3.95393,3.95393,0,0,1,.75257.98987,4.51234,4.51234,0,0,1,.43506,1.21948,7.00531,7.00531,0,0,1,.13842,1.42712,5.47853,5.47853,0,0,1-.18676,1.44251,6.93129,6.93129,0,0,1-.51966,1.34363,9.1488,9.1488,0,0,1-.78662,1.27221q-.45648.61963-.99206,1.22827-.53724.6081-1.13929,1.214-.60315.60645-1.22058,1.22278L22.0636,26.08147h8.28809v1.79407Z"/></g></svg>