<svg xmlns="http://www.w3.org/2000/svg" viewBox="0 0 40 40"><defs><style>.cls-1{fill:#0fafff;}.cls-2{fill:#fff;}</style></defs><g id="E764_018_assignment_pins"><circle class="cls-1" cx="20" cy="20" r="17.25"/><path class="cls-2" d="M20,3.5A16.5,16.5,0,1,1,3.5,20,16.51868,16.51868,0,0,1,20,3.5M20,2A18,18,0,1,0,38,20,18,18,0,0,0,20,2Z"/><path class="cls-2" d="M12.79709,27.87426v-15.048l-4.32093.73279V11.765l5.17347-.99866h1.32165V27.87426Z"/><path class="cls-2" d="M28.06149,18.89953a5.36649,5.36649,0,0,1,.96021.46143,4.49065,4.49065,0,0,1,.76684.59106,3.868,3.868,0,0,1,.58008.70642,4.28333,4.28333,0,0,1,.401.81079,4.91967,4.91967,0,0,1,.23621.89978,5.96781,5.96781,0,0,1,.078.97229,5.48726,5.48726,0,0,1-.156,1.33154,4.28554,4.28554,0,0,1-.4757,1.16565,4.00238,4.00238,0,0,1-.813.9657,4.63836,4.63836,0,0,1-1.16565.72949,6.86556,6.86556,0,0,1-1.5282.46143,10.32507,10.32507,0,0,1-1.90613.1615,10.54323,10.54323,0,0,1-1.927-.1615,6.8952,6.8952,0,0,1-1.53918-.46143,4.6202,4.6202,0,0,1-1.169-.72949,4.00238,4.00238,0,0,1-.813-.9657,4.17659,4.17659,0,0,1-.47241-1.16565,5.59918,5.59918,0,0,1-.15381-1.33154,5.96781,5.96781,0,0,1,.078-.97229,4.8382,4.8382,0,0,1,.23951-.89978,4.30406,4.30406,0,0,1,.40649-.81079,3.98041,3.98041,0,0,1,.58337-.70642,4.50719,4.50719,0,0,1,.76355-.59106,5.32344,5.32344,0,0,1,.95252-.46143,4.25065,4.25065,0,0,1-1.05029-.68884,3.84524,3.84524,0,0,1-.74707-.91407,4.14458,4.14458,0,0,1-.44385-1.09973,5.15891,5.15891,0,0,1-.14722-1.248,5.0097,5.0097,0,0,1,.34937-1.94349A3.5299,3.5299,0,0,1,20.9808,11.609a4.60365,4.60365,0,0,1,1.70178-.84265,8.87,8.87,0,0,1,2.35657-.28235,8.77918,8.77918,0,0,1,2.34119.28235,4.63786,4.63786,0,0,1,1.70178.84265,3.55563,3.55563,0,0,1,1.03821,1.39636,4.98869,4.98869,0,0,1,.35156,1.94349,5.0518,5.0518,0,0,1-.14941,1.248,4.128,4.128,0,0,1-.45264,1.09973,3.93848,3.93848,0,0,1-.75586.91407A4.32688,4.32688,0,0,1,28.06149,18.89953Zm.75586,4.31982a3.61543,3.61543,0,0,0-.21973-1.25464,2.84666,2.84666,0,0,0-.68115-1.05249,3.32729,3.32729,0,0,0-1.17334-.72619,5.496,5.496,0,0,0-3.41125,0,3.32254,3.32254,0,0,0-1.17664.72619,2.84678,2.84678,0,0,0-.68115,1.05249,3.61464,3.61464,0,0,0-.21863,1.25464,3.35449,3.35449,0,0,0,.22522,1.24585,2.54393,2.54393,0,0,0,.69214.98658,3.31375,3.31375,0,0,0,1.17883.65148,6.07557,6.07557,0,0,0,3.36292,0,3.32861,3.32861,0,0,0,1.17993-.65148,2.58448,2.58448,0,0,0,.69433-.98658A3.33321,3.33321,0,0,0,28.81735,23.21935ZM28.223,15.04662a3.00008,3.00008,0,0,0-.21643-1.17114,2.336,2.336,0,0,0-.62293-.86792,2.74461,2.74461,0,0,0-1.00085-.53943,5.02693,5.02693,0,0,0-2.69934,0,2.7358,2.7358,0,0,0-1.00086.53943,2.30394,2.30394,0,0,0-.61962.86792,3.02045,3.02045,0,0,0-.21314,1.17114,3.63031,3.63031,0,0,0,.19556,1.214,2.60265,2.60265,0,0,0,.59106.9635,2.72926,2.72926,0,0,0,.99536.63721,4.38773,4.38773,0,0,0,2.80811,0,2.72926,2.72926,0,0,0,.99536-.63721,2.60265,2.60265,0,0,0,.59106-.9635A3.63033,3.63033,0,0,0,28.223,15.04662Z"/></g></svg>