<svg xmlns="http://www.w3.org/2000/svg" viewBox="0 0 40 40"><defs><style>.cls-1{fill:#0fafff;}.cls-2{fill:#fff;}</style></defs><g id="E764_019_assignment_pins"><circle class="cls-1" cx="20" cy="20" r="17.25"/><path class="cls-2" d="M20,3.5A16.5,16.5,0,1,1,3.5,20,16.51868,16.51868,0,0,1,20,3.5M20,2A18,18,0,1,0,38,20,18,18,0,0,0,20,2Z"/><path class="cls-2" d="M12.79335,27.87426v-15.048l-4.32092.73279V11.765l5.17346-.99866h1.32165V27.87426Z"/><path class="cls-2" d="M19.69386,25.70007c.2461.08459.49768.16259.75257.23291q.384.10712.80529.18786.42024.08076.89319.12744.473.04615,1.02173.04615a5.79492,5.79492,0,0,0,2.27857-.41309,4.12293,4.12293,0,0,0,1.626-1.23157,5.8985,5.8985,0,0,0,1.02063-2.04455,12.75772,12.75772,0,0,0,.46143-2.85755,5.74616,5.74616,0,0,1-1.81055,1.12171,6.13256,6.13256,0,0,1-1.07886.30542,6.30889,6.30889,0,0,1-1.17663.10657,6.967,6.967,0,0,1-2.47412-.4032,4.93778,4.93778,0,0,1-1.782-1.12171,4.62058,4.62058,0,0,1-1.07666-1.71386,6.59233,6.59233,0,0,1-.20764-3.56067,5.21532,5.21532,0,0,1,.468-1.27552,4.8132,4.8132,0,0,1,.78992-1.09863,4.70909,4.70909,0,0,1,1.1217-.85913,5.887,5.887,0,0,1,1.46448-.5625,7.62892,7.62892,0,0,1,1.81714-.20215,6.31693,6.31693,0,0,1,2.63342.52515,5.13484,5.13484,0,0,1,1.95227,1.54577,7.15541,7.15541,0,0,1,1.21069,2.52686,13.04758,13.04758,0,0,1,.41529,3.46069,16.50466,16.50466,0,0,1-.46363,4.12317,8.27576,8.27576,0,0,1-1.404,3.01355,5.97589,5.97589,0,0,1-2.36865,1.849,8.25778,8.25778,0,0,1-3.34754.62842q-.61138,0-1.1195-.04285-.50757-.04284-.93714-.11865a7.90574,7.90574,0,0,1-.79321-.178q-.36255-.10546-.69214-.22522Zm8.92859-7.608a12.80738,12.80738,0,0,0-.178-1.88086,7.9466,7.9466,0,0,0-.40429-1.482,4.56075,4.56075,0,0,0-.60865-1.10962,3.41843,3.41843,0,0,0-.78991-.76135,3.08279,3.08279,0,0,0-.94922-.43616,4.14248,4.14248,0,0,0-1.08435-.13843,4.2745,4.2745,0,0,0-1.56885.26587A2.96962,2.96962,0,0,0,21.23964,14.427a4.46627,4.46627,0,0,0-.22412,1.4447,4.60915,4.60915,0,0,0,.22192,1.47107,2.94051,2.94051,0,0,0,.67676,1.13269,3.074,3.074,0,0,0,1.14587.72949,4.56807,4.56807,0,0,0,1.61719.26038,6.50345,6.50345,0,0,0,1.047-.0846,5.9233,5.9233,0,0,0,1.01294-.256A6.548,6.548,0,0,0,28.62245,18.092Z"/></g></svg>