<svg xmlns="http://www.w3.org/2000/svg" viewBox="0 0 40 40"><defs><style>.cls-1{fill:#0fafff;}.cls-2{fill:#fff;}</style></defs><g id="E764_009_assignment_pins"><circle class="cls-1" cx="20" cy="20" r="17.25"/><path class="cls-2" d="M20,3.5A16.5,16.5,0,1,1,3.5,20,16.51868,16.51868,0,0,1,20,3.5M20,2A18,18,0,1,0,38,20,18,18,0,0,0,20,2Z"/><path class="cls-2" d="M15.40164,25.69749c.24609.0846.49768.1626.75256.23291q.384.10712.8053.18787.42023.08075.89319.12744.473.04614,1.02173.04614a5.79508,5.79508,0,0,0,2.27856-.41308,4.123,4.123,0,0,0,1.626-1.23157,5.89863,5.89863,0,0,0,1.02063-2.04456A12.75756,12.75756,0,0,0,24.261,19.7451a5.74648,5.74648,0,0,1-1.81054,1.1217,6.132,6.132,0,0,1-1.07886.30542,6.30892,6.30892,0,0,1-1.17664.10657,6.96687,6.96687,0,0,1-2.47412-.4032,4.93781,4.93781,0,0,1-1.782-1.1217A4.62057,4.62057,0,0,1,14.86221,18.04a6.59233,6.59233,0,0,1-.20764-3.56067,5.21509,5.21509,0,0,1,.468-1.27551,4.81324,4.81324,0,0,1,.78991-1.09863,4.70889,4.70889,0,0,1,1.12171-.85913,5.88658,5.88658,0,0,1,1.46447-.5625,7.62846,7.62846,0,0,1,1.81714-.20215,6.3171,6.3171,0,0,1,2.63343.52514,5.135,5.135,0,0,1,1.95227,1.54578,7.15542,7.15542,0,0,1,1.21069,2.52686,13.04755,13.04755,0,0,1,.41528,3.46069,16.50516,16.50516,0,0,1-.46362,4.12317,8.27576,8.27576,0,0,1-1.40405,3.01355,5.97594,5.97594,0,0,1-2.36866,1.849,8.2577,8.2577,0,0,1-3.34753.62841q-.61138,0-1.11951-.04284-.50757-.04286-.93713-.11865a7.90788,7.90788,0,0,1-.79321-.178q-.36255-.10548-.69214-.22522Zm8.92859-7.608a12.80725,12.80725,0,0,0-.178-1.88086,7.94746,7.94746,0,0,0-.4043-1.48206,4.56074,4.56074,0,0,0-.60864-1.10962,3.41887,3.41887,0,0,0-.78992-.76135,3.08266,3.08266,0,0,0-.94922-.43615,4.142,4.142,0,0,0-1.08435-.13843,4.27441,4.27441,0,0,0-1.56884.26587,2.96968,2.96968,0,0,0-1.79957,1.87756,4.46654,4.46654,0,0,0-.22412,1.4447,4.60887,4.60887,0,0,0,.22193,1.47107,2.94027,2.94027,0,0,0,.67676,1.13269,3.07375,3.07375,0,0,0,1.14587.72949,4.56785,4.56785,0,0,0,1.61719.26038,6.50333,6.50333,0,0,0,1.047-.08459,5.92379,5.92379,0,0,0,1.01294-.256,6.54749,6.54749,0,0,0,1.88526-1.03271Z"/></g></svg>