<svg xmlns="http://www.w3.org/2000/svg" viewBox="0 0 40 40"><g id="E94A_label_auto"><path d="M9.11488,25.32385l-.988-2.70357H3.37076L2.3866,25.32385H.96876L5.02219,14.6752H6.52237L10.6007,25.32385Zm-2.941-8.11358c-.08137-.2087-.15892-.427-.23264-.65675a6.0952,6.0952,0,0,1-.18381-.71131,6.44851,6.44851,0,0,1-.201.7094c-.07851.22785-.15414.448-.22594.65866L3.77955,21.44656h3.928Z" fill="#fff"/><path d="M18.38782,14.6752h1.38529v7.295a5.007,5.007,0,0,1-.10723,1.077,3.214,3.214,0,0,1-.32645.87981,2.63731,2.63731,0,0,1-.54953.68546,2.94908,2.94908,0,0,1-.77354.49208,4.25054,4.25054,0,0,1-1.00139.29583,7.70353,7.70353,0,0,1-2.469,0,4.21025,4.21025,0,0,1-1.00139-.29583,2.89972,2.89972,0,0,1-.7678-.49208,2.594,2.594,0,0,1-.54282-.68546,3.27326,3.27326,0,0,1-.32263-.87981,5.00458,5.00458,0,0,1-.10818-1.077v-7.295h1.38625v7.05857a3.80931,3.80931,0,0,0,.15414,1.14116,2.02087,2.02087,0,0,0,.472.81376,1.95923,1.95923,0,0,0,.80609.48442,3.752,3.752,0,0,0,1.15936.15988,3.79916,3.79916,0,0,0,1.167-.15988,1.96861,1.96861,0,0,0,.81184-.48442,2.01313,2.01313,0,0,0,.47389-.81376,3.80931,3.80931,0,0,0,.15414-1.14116Z" fill="#fff"/><path d="M24.50914,25.32385V15.81732H21.22446V14.6752h7.94891v1.14212H25.88773v9.50653Z" fill="#fff"/><path d="M34.479,25.5a5.38755,5.38755,0,0,1-1.47146-.18573,3.8383,3.8383,0,0,1-1.15648-.53133,3.54788,3.54788,0,0,1-.85971-.83577,4.62838,4.62838,0,0,1-.58685-1.101,6.50652,6.50652,0,0,1-.338-1.32593,10.16149,10.16149,0,0,1-.10722-1.50975,9.98754,9.98754,0,0,1,.10913-1.50592,6.53552,6.53552,0,0,1,.34082-1.3288,4.72842,4.72842,0,0,1,.5926-1.10766,3.55906,3.55906,0,0,1,.86737-.84343,3.995,3.995,0,0,1,1.15935-.53708A5.32363,5.32363,0,0,1,34.501,14.5a5.41321,5.41321,0,0,1,1.47337.18477,3.86594,3.86594,0,0,1,1.15936.53133,3.56416,3.56416,0,0,1,.86353.83577,4.57649,4.57649,0,0,1,.58877,1.10287,6.539,6.539,0,0,1,.33795,1.32594,10.56277,10.56277,0,0,1-.00191,3.01566,6.50328,6.50328,0,0,1-.34274,1.32881,4.74487,4.74487,0,0,1-.59643,1.10575,3.5971,3.5971,0,0,1-.86832.84343,3.98182,3.98182,0,0,1-1.16318.53707A5.35155,5.35155,0,0,1,34.479,25.5Zm.022-1.15648a3.17771,3.17771,0,0,0,1.01-.14935,2.54042,2.54042,0,0,0,.78982-.42124,2.60682,2.60682,0,0,0,.58686-.66249,3.98973,3.98973,0,0,0,.404-.87215,5.68551,5.68551,0,0,0,.2336-1.0483,9.63483,9.63483,0,0,0,0-2.379,5.72114,5.72114,0,0,0-.2336-1.04831,3.949,3.949,0,0,0-.404-.87215,2.64007,2.64007,0,0,0-.58686-.66249,2.49058,2.49058,0,0,0-.79173-.42123,3.53666,3.53666,0,0,0-2.021,0,2.51059,2.51059,0,0,0-.79364.42123,2.67284,2.67284,0,0,0-.59069.66249,3.90769,3.90769,0,0,0-.405.87215,5.56788,5.56788,0,0,0-.23168,1.04831,9.8892,9.8892,0,0,0,0,2.379,5.53436,5.53436,0,0,0,.23168,1.0483,3.94758,3.94758,0,0,0,.405.87215,2.63881,2.63881,0,0,0,.59069.66249,2.54974,2.54974,0,0,0,.79364.42124A3.19614,3.19614,0,0,0,34.501,24.34352Z" fill="#fff"/></g></svg>