<svg id="V2" xmlns="http://www.w3.org/2000/svg" viewBox="0 0 40 40"><defs><style>.cls-1{fill:none;stroke:#fff;stroke-miterlimit:10;stroke-width:1.2px;fill-rule:evenodd;}.cls-2{fill:#fff;}</style></defs><path class="cls-1" d="M9,28.28832C5.56873,24.679,1.37909,19.19217,1.23062,17.46058,1.06145,15.4881,3.74376,11.36884,4.65534,10.926c.91159-.44273,6.65349,5.2779,6.28219,6.2876-.3713,1.00961-1.08274,1.23853-1.63309,2.24946-.48652.89344.03125,2.04961,3.14,5.39037.753.80909,1.44977,1.51436,2.38083,2.38082,3.34075,3.1087,4.49692,3.62647,5.39036,3.14005,1.01093-.55044,1.23985-1.26189,2.24946-1.63319,1.0097-.3713,6.73042,5.37061,6.2876,6.28219-.44283.91167-4.56209,3.59389-6.53457,3.42472-1.73159-.14846-7.21846-4.33811-10.82774-7.76939C10.46821,29.802,9.76436,29.09238,9,28.28832Z"/><path class="cls-2" d="M12,10.22829a6.25608,6.25608,0,0,0,.63085.22229c.23853.07254.49271.13486.76255.1888q.40545.08093.84083.12742a8.052,8.052,0,0,0,.8726.04651,4.329,4.329,0,0,0,1.15211-.13765,2.54419,2.54419,0,0,0,.83346-.386,1.699,1.699,0,0,0,.51021-.585,1.58365,1.58365,0,0,0,.17406-.73662,1.74966,1.74966,0,0,0-.06032-.47713,1.25659,1.25659,0,0,0-.1865-.38784,1.527,1.527,0,0,0-.31634-.32088,2.6475,2.6475,0,0,0-.45357-.27344,5.40723,5.40723,0,0,0-.59724-.24182c-.22287-.0772-.46922-.15439-.73906-.23345q-.50147-.1437-.94029-.29855a6.51692,6.51692,0,0,1-.80169-.33855,3.74944,3.74944,0,0,1-.647-.41481,2.377,2.377,0,0,1-.48028-.52085,2.267,2.267,0,0,1-.29839-.65663,2.9893,2.9893,0,0,1-.09946-.82963,3.38148,3.38148,0,0,1,.09946-.83613,2.58082,2.58082,0,0,1,.30392-.7236,2.49622,2.49622,0,0,1,.51205-.59432,2.94294,2.94294,0,0,1,.72156-.44551,4.24,4.24,0,0,1,.94029-.27995A6.49636,6.49636,0,0,1,15.89977.99822q.47246,0,.88688.03814a6.83085,6.83085,0,0,1,.76991.11068,4.68443,4.68443,0,0,1,.6594.18508,3.8698,3.8698,0,0,1,.55994.25484V2.78955a4.60555,4.60555,0,0,0-.60276-.2567,5.77282,5.77282,0,0,0-.67552-.18509,6.74235,6.74235,0,0,0-.75518-.11254q-.39853-.03767-.84635-.03813a3.77454,3.77454,0,0,0-1.03239.12556,2.08754,2.08754,0,0,0-.72893.35436,1.455,1.455,0,0,0-.43561.54874,1.705,1.705,0,0,0-.14551.71244,1.69722,1.69722,0,0,0,.05848.4669,1.21143,1.21143,0,0,0,.18142.37575,1.41854,1.41854,0,0,0,.31082.30878,2.625,2.625,0,0,0,.45173.2595,5.68789,5.68789,0,0,0,.60092.2353c.22471.07534.47844.1544.76071.23531q.51527.15068.96147.30879a6.19808,6.19808,0,0,1,.8086.34785,3.78,3.78,0,0,1,.64374.42225,2.27934,2.27934,0,0,1,.47061.52735,2.33908,2.33908,0,0,1,.28826.66408,3.25715,3.25715,0,0,1,.09762.83148,3.21744,3.21744,0,0,1-.11374.83521,2.6143,2.6143,0,0,1-.33615.73941,2.81427,2.81427,0,0,1-.56316.62129,3.32017,3.32017,0,0,1-.78557.47341,4.70228,4.70228,0,0,1-1.01351.30134,6.73941,6.73941,0,0,1-1.24052.106q-.487,0-.94029-.0372a8.35269,8.35269,0,0,1-.85326-.11347,6.06685,6.06685,0,0,1-.74091-.18508A3.55212,3.55212,0,0,1,12,11.41321Z"/><path class="cls-2" d="M25.48964,11.99822a5.2985,5.2985,0,0,1-1.45879-.18508,3.828,3.828,0,0,1-1.14474-.53107,3.53169,3.53169,0,0,1-.85188-.83614,4.65085,4.65085,0,0,1-.58112-1.10028,6.52783,6.52783,0,0,1-.33431-1.32722A10.20434,10.20434,0,0,1,21.012,6.50892a10.05348,10.05348,0,0,1,.10821-1.50579,6.568,6.568,0,0,1,.338-1.32815,4.70221,4.70221,0,0,1,.58665-1.10772,3.54827,3.54827,0,0,1,.85879-.84358A3.90375,3.90375,0,0,1,24.053,1.187,5.212,5.212,0,0,1,25.51082.99822a5.31,5.31,0,0,1,1.45971.18509,3.83363,3.83363,0,0,1,1.14843.53107,3.54722,3.54722,0,0,1,.85556.83614,4.63383,4.63383,0,0,1,.583,1.10214,6.57482,6.57482,0,0,1,.33431,1.32722,10.232,10.232,0,0,1,.10683,1.50765A10.02577,10.02577,0,0,1,29.89,7.99518a6.38924,6.38924,0,0,1-.33983,1.32815,4.70072,4.70072,0,0,1-.59033,1.10586,3.5624,3.5624,0,0,1-.86017.84357,3.89853,3.89853,0,0,1-1.15211.53666A5.2054,5.2054,0,0,1,25.48964,11.99822Zm.01934-1.15608a3.1175,3.1175,0,0,0,1.00015-.14881,2.51491,2.51491,0,0,0,.78281-.42226,2.5902,2.5902,0,0,0,.58112-.66221,3.9965,3.9965,0,0,0,.3997-.87241,5.692,5.692,0,0,0,.23115-1.0482,9.753,9.753,0,0,0,0-2.3782,5.7259,5.7259,0,0,0-.23115-1.04819,3.93712,3.93712,0,0,0-.3997-.87241,2.63811,2.63811,0,0,0-.58112-.66222,2.4821,2.4821,0,0,0-.78373-.42225,3.4833,3.4833,0,0,0-2.00215,0,2.5018,2.5018,0,0,0-.78557.42225,2.63165,2.63165,0,0,0-.58434.66222,3.89987,3.89987,0,0,0-.402.87241,5.65116,5.65116,0,0,0-.22932,1.04819,10.00555,10.00555,0,0,0,0,2.3782,5.61836,5.61836,0,0,0,.22932,1.0482,3.95827,3.95827,0,0,0,.402.87241,2.58407,2.58407,0,0,0,.58434.66221,2.5399,2.5399,0,0,0,.78557.42226A3.143,3.143,0,0,0,25.509,10.84214Z"/><path class="cls-2" d="M31.812,10.22829a6.21583,6.21583,0,0,0,.63085.22229c.23761.07254.49179.13486.76255.1888q.40476.08093.84083.12742a8.04357,8.04357,0,0,0,.87214.04651,4.32417,4.32417,0,0,0,1.15211-.13765,2.5441,2.5441,0,0,0,.83346-.386,1.6989,1.6989,0,0,0,.51021-.585,1.58365,1.58365,0,0,0,.17406-.73662,1.73129,1.73129,0,0,0-.06078-.47713,1.23532,1.23532,0,0,0-.186-.38784,1.52985,1.52985,0,0,0-.31681-.32088,2.59,2.59,0,0,0-.45311-.27344,5.43467,5.43467,0,0,0-.59678-.24182c-.22287-.0772-.46968-.15439-.73952-.23345q-.50146-.1437-.94029-.29855a6.55565,6.55565,0,0,1-.80215-.33855,3.78108,3.78108,0,0,1-.64651-.41481,2.36347,2.36347,0,0,1-.47981-.52085,2.26822,2.26822,0,0,1-.29931-.65663,3.02431,3.02431,0,0,1-.09947-.82963,3.381,3.381,0,0,1,.09947-.83613,2.55576,2.55576,0,0,1,.30483-.7236,2.49217,2.49217,0,0,1,.51113-.59432,2.95455,2.95455,0,0,1,.722-.44551,4.24712,4.24712,0,0,1,.94029-.27995A6.49984,6.49984,0,0,1,35.71128.99822q.47245,0,.88688.03814a6.84621,6.84621,0,0,1,.76991.11068,4.68458,4.68458,0,0,1,.65941.18508,3.89292,3.89292,0,0,1,.55993.25484V2.78955a4.5854,4.5854,0,0,0-.60322-.2567,5.71565,5.71565,0,0,0-.67506-.18509,6.75766,6.75766,0,0,0-.75518-.11254c-.26523-.02511-.548-.03813-.84635-.03813a3.77454,3.77454,0,0,0-1.03239.12556,2.09394,2.09394,0,0,0-.72939.35436,1.457,1.457,0,0,0-.43469.54874,1.69819,1.69819,0,0,0-.14643.71244,1.71417,1.71417,0,0,0,.05894.4669,1.22156,1.22156,0,0,0,.18143.37575,1.41058,1.41058,0,0,0,.31128.30878,2.585,2.585,0,0,0,.45126.2595,5.71725,5.71725,0,0,0,.60046.2353c.22564.07534.4789.1544.76071.23531q.51526.15068.96147.30879a6.2399,6.2399,0,0,1,.80952.34785,3.771,3.771,0,0,1,.64282.42225,2.273,2.273,0,0,1,.47153.52735,2.33737,2.33737,0,0,1,.28734.66408,3.31849,3.31849,0,0,1-.01566,1.66669,2.60131,2.60131,0,0,1-.33615.73941,2.805,2.805,0,0,1-.56362.62129,3.2926,3.2926,0,0,1-.78557.47341,4.69794,4.69794,0,0,1-1.013.30134,6.73941,6.73941,0,0,1-1.24052.106c-.32417,0-.63822-.01209-.94029-.0372a8.326,8.326,0,0,1-.8528-.11347,6.05365,6.05365,0,0,1-.74137-.18508,3.515,3.515,0,0,1-.60046-.24926Z"/></svg>