<svg xmlns="http://www.w3.org/2000/svg" viewBox="0 0 40 40"><title>E95A_phone_hd_voice</title><g id="E95A_phone_hd_voice"><path d="M29.90034,29.7883H16.6127l-8.35,6.85469L8.2492,29.7883H5.77405a4.37714,4.37714,0,0,1-4.37713-4.37714V8.73471A4.37713,4.37713,0,0,1,5.77405,4.35757H29.90034a8.68891,8.68891,0,0,1,8.68891,8.68891v8.0529A8.68892,8.68892,0,0,1,29.90034,29.7883Z" fill-rule="evenodd"/><path d="M30.12,3.99963H5.4588A4.47422,4.47422,0,0,0,.98462,8.47388V25.52A4.47416,4.47416,0,0,0,5.4588,29.9942h2.53l.01379,7.00672,8.53516-7.00672H30.12a8.88156,8.88156,0,0,0,8.88159-8.88153V12.88123A8.88161,8.88161,0,0,0,30.12,3.99963ZM17.97174,26.94421H14.93726a.84731.84731,0,0,1-.95606-.95605V19.088H7.91235v7.85626H5.00262c-1.12231,0-.95605-.95605-.95605-.95605V8.03094A.982.982,0,0,1,5.12732,6.99176h2.785L7.85,15.01434h6.17279V8.03094a.9556.9556,0,0,1,1.08081-1.04058h2.86816ZM35.97052,20.9585a6.45893,6.45893,0,0,1-5.95807,5.98571H21.03387V6.98663h9.00629a6.51571,6.51571,0,0,1,5.93036,6.01862Z" fill="#fff" fill-rule="evenodd"/><path d="M29.2298,10.94849H24.96893V22.9823h4.24774s2.55658-.18378,2.81879-3.60919v-4.7956S31.93054,11.39655,29.2298,10.94849Z" fill="#fff" fill-rule="evenodd"/></g></svg>