<svg xmlns="http://www.w3.org/2000/svg" viewBox="0 0 40 40"><g id="E967_map_sonderziele_auf_route"><path d="M31.99551,7.385a3.69251,3.69251,0,1,1,3.7-3.693A3.69653,3.69653,0,0,1,31.99551,7.385ZM6.71251,40a3.69251,3.69251,0,1,1,3.7-3.692A3.69632,3.69632,0,0,1,6.71251,40Z" fill="#fff" fill-rule="evenodd"/><path d="M8.38608,34.43066l6-14h12l5-14" fill="none" stroke="#fff" stroke-width="1.2"/><path d="M22.88108,25h10.01a1.99945,1.99945,0,0,1,2,2V37a1.99945,1.99945,0,0,1-2,2h-10.01a1.99945,1.99945,0,0,1-2-2V27A1.99945,1.99945,0,0,1,22.88108,25Z" fill="#fff" stroke="#fff" fill-rule="evenodd"/><path d="M21.89608,35l2.634-3.951,2.634,1.317,2.951-5.268L33.74908,35Z" fill-rule="evenodd"/><path d="M6.88108,1h10.01a1.99945,1.99945,0,0,1,2,2V13a1.99945,1.99945,0,0,1-2,2h-10.01a1.99945,1.99945,0,0,1-2-2V3A1.99945,1.99945,0,0,1,6.88108,1Z" fill="#fff" stroke="#fff" fill-rule="evenodd"/><path d="M9.88808,3V14" fill="none" stroke="#000"/><path d="M11.88608,3V6.969" fill="none" stroke="#000"/><path d="M7.90708,6.906V3" fill="none" stroke="#000"/><path d="M7.39475,6.94833V5.22l.99333,1.686h3l.99333-1.686V7.02352L11.38808,8.5h-3Z" fill-rule="evenodd"/><path d="M15.88108,8.969V3.258a2.05488,2.05488,0,0,0-1.98,1.961V7.563c0,1.112.876,1.406,1.98,1.406v4.968" stroke="#000" fill-rule="evenodd"/></g></svg>