<svg xmlns="http://www.w3.org/2000/svg" viewBox="0 0 40 40"><g id="E973_HUD_off"><g style="isolation:isolate"><g style="isolation:isolate"><path d="M19.20752,7.791V5.8916h1.585V7.791Zm0,11.23535V9.72168h1.585v9.30469Z" fill="#fff"/></g></g><path d="M26.77048,23.99183a15.8326,15.8326,0,0,0-13.55155-.005,15.94258,15.94258,0,0,0-1.84074,1.02623L1,8.25393q.84815-.6249,1.73551-1.19562A31.91363,31.91363,0,0,1,37.26325,7.0471q.8883.56979,1.73675,1.195L28.61061,25.01994A15.94707,15.94707,0,0,0,26.77048,23.99183Z" fill="none" stroke="#fff" stroke-width="1.2"/><path d="M27.95546,29.08547l.02112,4.05969h4.34619v1.37466H27.97658V38.6447H26.52847v-11h7.24334v1.37466Zm-8.67125,4.05969h4.34618v1.37466H19.28421V38.6447H17.83609v-11h7.24334v1.37466l-5.798.06611Zm-4.7787,2.8191a4.74728,4.74728,0,0,1-.57208,1.1056,3.546,3.546,0,0,1-.8338.843,3.764,3.764,0,0,1-1.11754.53627,4.957,4.957,0,0,1-1.41322.18825,5.00005,5.00005,0,0,1-1.41322-.18458,3.65862,3.65862,0,0,1-1.1102-.53168,3.44723,3.44723,0,0,1-.82552-.83563,4.65951,4.65951,0,0,1-.56382-1.09917,6.71822,6.71822,0,0,1-.32415-1.326,10.54813,10.54813,0,0,1-.10377-1.5078,10.39,10.39,0,0,1,.1056-1.50505,6.68916,6.68916,0,0,1,.32783-1.32783A4.70834,4.70834,0,0,1,7.23,29.21311a3.49145,3.49145,0,0,1,.83287-.843,3.73656,3.73656,0,0,1,1.11295-.53627A4.90878,4.90878,0,0,1,10.59,27.64562a5.02744,5.02744,0,0,1,1.41506.18457A3.6835,3.6835,0,0,1,13.118,28.361a3.49541,3.49541,0,0,1,.8292.83563,4.65,4.65,0,0,1,.56566,1.10192,6.75805,6.75805,0,0,1,.32415,1.32507,10.53856,10.53856,0,0,1,.10284,1.50689,10.4374,10.4374,0,0,1-.10468,1.50689A6.57,6.57,0,0,1,14.50551,35.96426ZM13.32369,32.023a5.515,5.515,0,0,0-.2112-.98622,3.76645,3.76645,0,0,0-.36456-.82094,2.46506,2.46506,0,0,0-.53076-.62351,2.25288,2.25288,0,0,0-.71533-.39669,3.07963,3.07963,0,0,0-1.82737,0,2.27212,2.27212,0,0,0-.71717.39669,2.475,2.475,0,0,0-.53352.62351,3.728,3.728,0,0,0-.36731.82094,5.59744,5.59744,0,0,0-.20936.98622,9.77856,9.77856,0,0,0,0,2.23875,5.5622,5.5622,0,0,0,.20936.98623,3.767,3.767,0,0,0,.36731.82093,2.443,2.443,0,0,0,.53352.62351,2.30911,2.30911,0,0,0,.71717.3967,3.06625,3.06625,0,0,0,1.8292,0,2.29024,2.29024,0,0,0,.7135-.3967,2.43328,2.43328,0,0,0,.53076-.62351,3.80608,3.80608,0,0,0,.36456-.82093,5.48056,5.48056,0,0,0,.2112-.98623,9.09251,9.09251,0,0,0,.067-1.12029A9.04039,9.04039,0,0,0,13.32369,32.023Z" fill="#fff" fill-rule="evenodd"/></g></svg>