<svg xmlns="http://www.w3.org/2000/svg" viewBox="0 0 40 40"><defs><style>.cls-1{fill:none;stroke:#fff;stroke-width:1.2px;}</style></defs><g id="E982_textinput_language_switch"><g id="V2"><path class="cls-1" d="M20,2.99808a17,17,0,1,1-17,17A16.99988,16.99988,0,0,1,20,2.99808Z"/><path class="cls-1" d="M20.27365,3.00466c3.48554,0,6.31138,7.75858,6.31138,17.09432,0,9.3352-2.82584,16.90294-6.31138,16.90294-3.4861,0-6.31194-7.56774-6.31194-16.90294C13.96171,10.76324,16.78755,3.00466,20.27365,3.00466Z"/><path class="cls-1" d="M33.82684,10.1069C30.89708,11.76894,25.799,12.86905,20,12.86905c-5.79868,0-10.8965-1.1-13.82634-2.76187"/><path class="cls-1" d="M5.90157,29.50034C8.781,27.74956,14.01747,26.57872,20,26.57872c5.98218,0,11.21843,1.1707,14.09792,2.92131"/><path class="cls-1" d="M3.41129,19.719h33.133"/></g></g></svg>