<svg xmlns="http://www.w3.org/2000/svg" viewBox="0 0 40 40"><title>E983_textinput_btn_hwr</title><g id="E983_textinput_btn_hwr"><path d="M.87855,4.30344C3.97683,1.96876,12.93337-.25062,14.60425,2.99623c.74557,1.44884-4.66432,4.80007-8.49686,8.49686C2.60387,14.87248.525,18.68274,3.493,18.68274c6.21474,0,13.54386-13.7257,16.99372-13.7257" fill="none" stroke="#fff" stroke-miterlimit="10" stroke-width="1.2" fill-rule="evenodd"/><path d="M24.60354,38.63476s.17617-3.22419-.99727-3.49348c-1.72523-.39589-4.21564-6.476-4.21564-6.476s-1.76267-3.49646-4.758-4.82046c-3.61372-1.59728-.51835-3.41273-.51835-3.41273,2.77463-1.67258,5.63064.131,8.06089,2.504.49746-.10347.38208-1.57682.38208-1.57682L22.582,5.72907c0-1.083.5463-2.2933,1.68615-2.2933h.688c1.13985,0,1.74213,1.21035,1.74213,2.2933l-.00735,13.02861" fill="none" stroke="#fff" stroke-miterlimit="10" stroke-width="1.2"/><path d="M34.98039,17.0365c0-1.68859.90107-1.95774,2.22547-1.95774a1.66534,1.66534,0,0,1,1.91559,1.82931V31.10122c0,1.30466-1.96742,2.5737-1.65643,3.92163v3.61191" fill="none" stroke="#fff" stroke-miterlimit="10" stroke-width="1.2" fill-rule="evenodd"/><path d="M30.83933,14.90052c0-1.39754,1.2654-1.79833,2.22378-1.77382a1.86042,1.86042,0,0,1,1.91728,1.77382l-.00477,5.51359" fill="none" stroke="#fff" stroke-miterlimit="10" stroke-width="1.2" fill-rule="evenodd"/><path d="M26.69828,13.4539c.04333-1.21623,1.14591-1.6699,2.14926-1.6699a1.80324,1.80324,0,0,1,1.99179,1.6699l-.02359,6.132" fill="none" stroke="#fff" stroke-miterlimit="10" stroke-width="1.2" fill-rule="evenodd"/></g></svg>