<svg xmlns="http://www.w3.org/2000/svg" viewBox="0 0 40 40"><defs><style>.cls-1{fill:#fff;}</style></defs><g id="E984_textinput_btn_abc"><g id="V2"><path class="cls-1" d="M11.546,27.54556l-1.40254-3.832H3.40462l-1.39512,3.832H0l5.74338-15.092H7.87126l5.78035,15.092ZM7.37537,16.04592c-.11471-.29512-.222-.605-.32936-.93071a8.84046,8.84046,0,0,1-.259-1.0084A9.5651,9.5651,0,0,1,6.502,15.11245q-.16653.4857-.322.93347L3.98191,22.05016H9.55133Z"/><path class="cls-1" d="M16.17542,27.54556v-15.092h4.47027a8.71127,8.71127,0,0,1,2.29068.26737,4.53632,4.53632,0,0,1,1.62827.77811,3.1852,3.1852,0,0,1,.97325,1.26189,4.38967,4.38967,0,0,1,.31825,1.718,4.19989,4.19989,0,0,1-.13323,1.09076,3.105,3.105,0,0,1-.38856.89092,2.99845,2.99845,0,0,1-.618.69941,3.81769,3.81769,0,0,1-.83264.52363,4.733,4.733,0,0,1,1.1361.58563,3.76,3.76,0,0,1,.85113.82986,3.47368,3.47368,0,0,1,.53659,1.05282,4.136,4.136,0,0,1,.18133,1.25174A4.80967,4.80967,0,0,1,26.452,24.5842a3.6001,3.6001,0,0,1-.42186,1.01027,3.3102,3.3102,0,0,1-.72532.82153,4.13956,4.13956,0,0,1-1.04357.61338,6.33165,6.33165,0,0,1-1.36923.38394,10.21479,10.21479,0,0,1-1.71708.13229Zm4.40365-8.41612a5.80437,5.80437,0,0,0,1.495-.16746,2.6257,2.6257,0,0,0,1.01026-.49958,1.93151,1.93151,0,0,0,.57359-.816,3.24533,3.24533,0,0,0,.17764-1.11759,2.44,2.44,0,0,0-.211-1.03247,1.9753,1.9753,0,0,0-.6402-.7762,3.07814,3.07814,0,0,0-1.088-.48571,6.32638,6.32638,0,0,0-1.55056-.16836H18.133v5.06335Zm.39969,6.80819a6.48361,6.48361,0,0,0,1.61346-.17575,3.12254,3.12254,0,0,0,1.11758-.50605,2.019,2.019,0,0,0,.64761-.81136,2.69378,2.69378,0,0,0,.21094-1.09167,3.04292,3.04292,0,0,0-.19243-1.11389,2.15615,2.15615,0,0,0-.6106-.8502,2.86771,2.86771,0,0,0-1.05838-.53937,5.5223,5.5223,0,0,0-1.53945-.18873H18.133v5.277Z"/><path class="cls-1" d="M40,27.0469a8.384,8.384,0,0,1-.82894.3127,7.75981,7.75981,0,0,1-.951.23684,10.89647,10.89647,0,0,1-1.125.14711c-.40707.03423-.86225.0518-1.35813.0518a7.58378,7.58378,0,0,1-1.8873-.22394,5.95573,5.95573,0,0,1-1.59867-.66242,5.27635,5.27635,0,0,1-1.2841-1.09352,6.17768,6.17768,0,0,1-.951-1.52372,8.764,8.764,0,0,1-.58839-1.94652,12.98207,12.98207,0,0,1-.19985-2.361,12.17432,12.17432,0,0,1,.18873-2.19545,8.94066,8.94066,0,0,1,.5551-1.89286,6.72277,6.72277,0,0,1,.92145-1.54963,5.377,5.377,0,0,1,1.273-1.16014,5.9181,5.9181,0,0,1,1.62457-.7281,7.165,7.165,0,0,1,1.96123-.25337q.58839,0,1.16569.05551a10.7762,10.7762,0,0,1,1.09908.16283,7.97709,7.97709,0,0,1,.977.26181,5.06477,5.06477,0,0,1,.80673.34879v1.70413a6.27426,6.27426,0,0,0-.82153-.33023,8.90409,8.90409,0,0,0-.951-.25165,10.1883,10.1883,0,0,0-1.04357-.16005,10.70133,10.70133,0,0,0-1.10648-.05643,5.39,5.39,0,0,0-1.43576.18039,3.786,3.786,0,0,0-2.06864,1.4044,4.90262,4.90262,0,0,0-.63651,1.18789,7.40432,7.40432,0,0,0-.38116,1.49411,11.59383,11.59383,0,0,0-.12952,1.77814,10.717,10.717,0,0,0,.16283,1.94375,7.19882,7.19882,0,0,0,.45517,1.54964,4.72136,4.72136,0,0,0,.72162,1.17213A3.95521,3.95521,0,0,0,34.66,25.94506a5.33171,5.33171,0,0,0,1.30631.15543c.44038,0,.84744-.01666,1.2286-.05089.37746-.03422.729-.08141,1.05838-.14248a8.47175,8.47175,0,0,0,.92515-.22394q.42741-.1318.82154-.29512Z"/></g></g></svg>