<svg xmlns="http://www.w3.org/2000/svg" viewBox="0 0 40 40"><defs><style>.cls-1{fill:#fff;}</style></defs><g id="E985_textinput_btn_special_chars"><g id="V3-2" data-name="V3"><path class="cls-1" d="M6.51491,26.97792l.35332-3.63746H3.86508l-.3473,3.63746H1.78334l.3493-3.63746H0V21.78265H2.27516L2.67862,17.571H0V16H2.83926l.29108-3H4.87081l-.29909,3H7.56885l.29306-3H9.60037l-.29309,3H12v1.571H9.14873l-.40951,4.21165H12v1.55782H8.60067l-.3473,3.63745Zm.89333-9.407H4.41712L4.0076,21.78262H7.00673Z"/><path class="cls-1" d="M15,19V17H25v2Zm0,4V21H25v2Z"/><path class="cls-1" d="M33,26V21H28V19h5V14h2v5h5v2H35v5Z"/></g></g></svg>