<svg xmlns="http://www.w3.org/2000/svg" viewBox="0 0 40 40"><defs><style>.cls-1{fill:none;stroke:#fff;stroke-miterlimit:10;stroke-width:1.2px;}.cls-1,.cls-3{fill-rule:evenodd;}.cls-2,.cls-3{fill:#fff;}</style></defs><g id="E9A0_licence_period"><g id="_1-4" data-name="1"><path id="_12" data-name="12" class="cls-1" d="M33.5,34.5l-3-3V25"/><g id="_11" data-name="11"><path class="cls-2" d="M31.04346,23.20093a7.85258,7.85258,0,0,1,7.75683,7.7406,7.8,7.8,0,1,1-7.75683-7.7406m0-1.2a9.00005,9.00005,0,1,0,8.957,8.94055,9.11546,9.11546,0,0,0-8.957-8.94055Z"/></g><path id="_10" data-name="10" class="cls-3" d="M25.5,9A2.5,2.5,0,1,1,23,11.50005,2.5,2.5,0,0,1,25.5,9Z"/><path id="_9" data-name="9" class="cls-2" d="M33.1333,17.62219a3.09923,3.09923,0,0,1-.06592,1.56665,11.68754,11.68754,0,0,1,1.37012.3197,11.81378,11.81378,0,0,0,.22949-2.08007c-.10107-.71045-2.29687-6.79615-3.293-6.64649-.9956.14966-1.69531,2.52393-1.40136,3.334C30.50684,15.59021,32.68457,16.65039,33.1333,17.62219Z"/><path id="_8" data-name="8" class="cls-2" d="M3.20508,11.02637c-.40772.57715.14941,2.40332,3.063,5.65136a70.27541,70.27541,0,0,0,11.36132,9.751q.92579.65442,1.84961,1.27246a11.45307,11.45307,0,0,0-.29052,1.245c-.749-.49744-1.5-1.006-2.25147-1.537A71.52219,71.52219,0,0,1,5.375,17.47949C2.33154,14.08691,1.272,11.68262,2.22559,10.333Z"/><path class="cls-2" d="M15.55176,29.36914c-1.19336-.84351-2.35156-1.70239-3.46338-2.56628-1.43945.74939-1.42871.09533-1.45117.6748-.10205,2.579,1.88281,3.16687,3.51123,3.51135,1.20019.25391.97607,1.30274,1.59668,1.72217,1.19726.80933,2.395,1.04444,2.5.61865a2.804,2.804,0,0,1,.86865-.88745q-.04834-.36108-.07861-.726C17.87988,30.97412,16.71484,30.1908,15.55176,29.36914Z"/><path id="_1-5" data-name="1" class="cls-2" d="M40,9.54749c-3.78041-1.235-12.32447-.00013-20.47941,2.32165C9.11741,14.83105-.90539,19.63184.06521,23.07715l1.1489-.32617c-.48191-1.71,6.37355-6.23731,18.632-9.72754C30.208,10.07483,37.64829,9.797,40,10.81213Z"/><path class="cls-2" d="M7.60693,13.52319A89.85711,89.85711,0,0,1,18.76172,9.56055c1.12744-.31934,2.1958-.6023,3.22656-.8628a.52045.52045,0,0,0,.01221-.10278c-.083-1.1936-.14014-.98108-.93555-.97046-.79541.0105-4.74658-.21472-5.10937-1.04761-.36328-.83276.26074-4.20507.26074-4.20507L10.81348,4.95471,5.3808,10.333S6.06368,11.31968,7.60693,13.52319Z"/><path class="cls-2" d="M36.76514,12.67822a17.40513,17.40513,0,0,1,1.62451,7.31983c0,.51538-.03369,1.0227-.07764,1.52685a12.3105,12.3105,0,0,1,1.09473.94849,18.03562,18.03562,0,0,0-1.28369-9.6853A12.07509,12.07509,0,0,0,36.76514,12.67822Z"/><path class="cls-2" d="M20.79541,37.56445A17.59434,17.59434,0,0,1,3.773,24.32544l-1.15088.32373a18.79086,18.79086,0,0,0,18.17334,14.1145c.38623,0,.76367-.03479,1.144-.05786a12.58659,12.58659,0,0,1-.88427-1.15454C20.96777,37.55261,20.88281,37.56445,20.79541,37.56445Z"/><path class="cls-2" d="M20.79541,1.23145A18.75754,18.75754,0,0,0,5.03711,9.82983l.74414,1.06788A17.52429,17.52429,0,0,1,32.37891,6.81543c.54882-.05212,1.0913-.09082,1.62793-.12A18.7117,18.7117,0,0,0,20.79541,1.23145Z"/></g></g></svg>