<?xml version="1.0" encoding="UTF-8"?>
<svg id="Ebene_1" data-name="Ebene 1" xmlns="http://www.w3.org/2000/svg" viewBox="0 0 40 40">
  <defs>
    <style>
      .cls-1 {
        fill: #fff;
        fill-rule: evenodd;
      }

      .cls-2 {
        stroke-width: 1.2px;
      }

      .cls-2, .cls-3 {
        fill: none;
        stroke: #fff;
      }

      .cls-3 {
        stroke-linejoin: round;
        stroke-width: 1.2px;
      }
    </style>
  </defs>
  <g id="E9C3_phone_toggle_active" data-name="E9C3 phone toggle active">
    <g id="V2-7">
      <g id="Icon">
        <path class="cls-1" d="M17,19l5,3.5-5,3.5v-7Z"/>
        <path class="cls-2" d="M13,12.5H7.5c-1.65685,0-3,1.34315-3,3v4c0,1.65685,1.34315,3,3,3h11"/>
      </g>
    </g>
  </g>
  <line class="cls-3" x1="22.00461" y1="33.5" x2="30.99965" y2="33.5"/>
  <line class="cls-3" x1="24.0532" y1="6.5" x2="28.98184" y2="6.5"/>
  <path class="cls-3" d="M17.5,15V3.825c0-.66,.565-1.325,1.225-1.325h15.55c.66,0,1.225,.665,1.225,1.325V36.175c0,.66-.565,1.325-1.225,1.325h-15.55c-.66,0-1.225-.665-1.225-1.325v-5.675"/>
</svg>