<svg xmlns="http://www.w3.org/2000/svg" viewBox="0 0 40 40"><defs><style>.cls-1,.cls-2{fill:none;stroke:#fff;}.cls-1{stroke-width:1.2px;}.cls-2{stroke-width:1.2px;}</style></defs><g id="EA09_phone_additional_call"><g id="V3"><path class="cls-1" d="M31.5,13V4"/><path class="cls-1" d="M27,8.5h9"/><path class="cls-2" d="M26.55014,3.55026a7,7,0,1,1,0,9.89949l0,0A7.00024,7.00024,0,0,1,26.55014,3.55026Z"/><path id="Icon" class="cls-2" d="M12.99951,24.22833C9.021,20.04149,4.16826,13.67124,4.004,11.65469,3.81721,9.35794,6.963,4.54562,8.02714,4.02508s7.72354,6.11418,7.28591,7.29221-1.26775,1.44826-1.9137,2.62891c-.57143,1.04317.02572,2.38753,3.6301,6.2632.87316.93875,1.68125,1.75681,2.76115,2.76115,3.87567,3.60439,5.22,4.20153,6.2632,3.63062,1.18065-.64647,1.45089-1.4766,2.62891-1.91422s7.81274,6.22175,7.29221,7.28591-5.33233,4.20993-7.62961,4.02312c-2.016-.16424-8.38628-5.01644-12.57364-8.99549C14.70226,25.98409,13.88578,25.16131,12.99951,24.22833Z"/></g></g></svg>