<?xml version="1.0" encoding="UTF-8"?>
<svg id="Ebene_1" data-name="Ebene 1" xmlns="http://www.w3.org/2000/svg" viewBox="0 0 40 40">
  <defs>
    <style>
      .cls-1, .cls-2 {
        fill: #fff;
      }

      .cls-3 {
        fill: none;
      }

      .cls-3, .cls-2 {
        stroke: #fff;
        stroke-miterlimit: 10;
        stroke-width: 1.2px;
      }
    </style>
  </defs>
  <line class="cls-3" x1="31.5" y1="11.0042" x2="31.5" y2="17.99432"/>
  <path class="cls-1" d="M32.10362,11.40419h-3.10929s-.1-5.2,.5-7.4c.41799-1.36396,1.35049-2.51165,2.6-3.2l.00929,10.6Z"/>
  <g>
    <path class="cls-1" d="M31.86693,28.24829v3.5c-.08597,1.58264-1.10962,2.96063-2.6,3.5h-5.4c-1.49038-.53937-2.51403-1.91736-2.6-3.5v-3.5h10.6m1.1-1.2h-12.9v4.7c0,3.4,3.5,4.7,3.5,4.7h5.9s3.5-1.3,3.5-4.7v-4.7Z"/>
    <path class="cls-3" d="M32.96693,28.70656h1.3c1.1,0,2.6-.5,3.1,.4,1.4,2.8-4.5,5.34173-5.1,5.54173l-1.9,.7"/>
    <line class="cls-3" x1="19.03701" y1="37.50183" x2="33.99685" y2="37.50183"/>
    <path class="cls-3" d="M30.26693,25.84829c.01058-.9196,.41028-1.79167,1.1-2.4s1.08942-1.4804,1.1-2.4"/>
    <path class="cls-3" d="M26.76693,25.84829c.01058-.9196,.41028-1.79167,1.1-2.4s1.08942-1.4804,1.1-2.4"/>
    <path class="cls-3" d="M23.16693,25.84829c.01058-.9196,.41028-1.79167,1.1-2.4s1.08942-1.4804,1.1-2.4"/>
  </g>
  <line class="cls-3" x1="21.3" y1="6.40419" x2="21.3" y2="2.0042"/>
  <path class="cls-2" d="M23.46308,8.37923s1.67978-1.08527,1.77978-1.18527c.4-.3,.45669-.58976,.45669-.68976v-1.4c0,.1,.03144,1.4-.64677,1.4h-1.40839"/>
  <path class="cls-2" d="M23.35559,6.5042h-1.40839c-.6782,0-.64677-1.3-.64677-1.4v1.4c0,.1,.05669,.38976,.45669,.68976,.1,.1,1.77978,1.18527,1.77978,1.18527"/>
  <line class="cls-3" x1="25.7" y1="2.0042" x2="25.7" y2="5.69553"/>
  <path class="cls-3" d="M23.5,2.0042v15.98031"/>
  <path class="cls-1" d="M2.82349,28.93057V12.01057h5.76c2.72602-.31145,5.18837,1.64594,5.49982,4.37196,.03444,.30143,.04119,.60538,.02018,.90804,0,5.52-4.56,5.4-5.28,5.4h-3.84v6.24H2.82349Zm6-8.28c1.69364,.10054,3.1481-1.19092,3.24865-2.88456,.00941-.15847,.00652-.31742-.00864-.47544,.20553-1.57725-.90647-3.02247-2.48372-3.228-.211-.02749-.4244-.03152-.63628-.012h-3.96v6.6h3.84Z"/>
</svg>