<svg xmlns="http://www.w3.org/2000/svg" viewBox="0 0 180 40"><g id="EA29_provider_poweredby_google"><path d="M4.23661,22.16622H2.32694v3.7877H.6133V16.10841H4.07851a4.01414,4.01414,0,0,1,2.63053.76514,2.702,2.702,0,0,1,.92954,2.21318,2.80065,2.80065,0,0,1-.47425,1.65673,3.03478,3.03478,0,0,1-1.32792,1.02438l2.21318,4.10387v.08854H6.21582Zm-1.90967-1.3785h1.7579a1.95609,1.95609,0,0,0,1.3532-.43631A1.53033,1.53033,0,0,0,5.925,19.15628a1.643,1.643,0,0,0-.449-1.22674,1.9088,1.9088,0,0,0-1.34055-.449H2.32694Z" fill="#fff"/><path d="M15.84633,21.55916h-4.047V24.588h4.72989v1.36584H10.09205V16.10837H16.485v1.37849h-4.6793v2.719h4.047v1.35325Z" fill="#fff"/><path d="M23.90231,23.41823a1.18978,1.18978,0,0,0-.45528-.9991,5.55291,5.55291,0,0,0-1.64408-.70822,7.99685,7.99685,0,0,1-1.8907-.79675,2.52394,2.52394,0,0,1-1.34688-2.20685,2.40178,2.40178,0,0,1,.96748-1.96023,3.93081,3.93081,0,0,1,2.5167-.77144,4.26435,4.26435,0,0,1,1.83378.37939A2.9838,2.9838,0,0,1,25.148,17.43634a2.749,2.749,0,0,1,.46162,1.54924H23.9023a1.54866,1.54866,0,0,0-.4869-1.20775,1.99862,1.99862,0,0,0-1.38482-.43632A2.08546,2.08546,0,0,0,20.728,17.702a1.19374,1.19374,0,0,0-.46161.99911,1.07658,1.07658,0,0,0,.49954.90423,5.83481,5.83481,0,0,0,1.65041.70189,7.56316,7.56316,0,0,1,1.84642.77776,3.04352,3.04352,0,0,1,1.02439.99911,2.54451,2.54451,0,0,1,.3225,1.3216,2.35538,2.35538,0,0,1-.94218,1.96023,4.06881,4.06881,0,0,1-2.561.72721,4.79489,4.79489,0,0,1-1.96657-.39838,3.28662,3.28662,0,0,1-1.39115-1.09393,2.737,2.737,0,0,1-.49954-1.62511h1.71364a1.57892,1.57892,0,0,0,.55646,1.29628,2.4354,2.4354,0,0,0,1.58717.4616,2.10635,2.10635,0,0,0,1.34055-.36044A1.15476,1.15476,0,0,0,23.90231,23.41823Z" fill="#fff"/><path d="M35.14529,16.10841V22.691a3.20285,3.20285,0,0,1-1.00542,2.48508,3.80645,3.80645,0,0,1-2.6748.9169,3.85961,3.85961,0,0,1-2.68743-.90424,3.20315,3.20315,0,0,1-.99278-2.50407V16.10837h1.70732v6.589a2.09582,2.09582,0,0,0,.49955,1.5113,1.94593,1.94593,0,0,0,1.47334.51852q1.97289,0,1.97289-2.08038V16.1147h1.70733Z" fill="#fff"/><path d="M39.51474,24.588h4.47064v1.36584H37.80111V16.10837h1.71363Z" fill="#fff"/><path d="M51.8327,17.4869H48.75954v8.467H47.06488v-8.467H44.02334V16.10841h7.80938V17.4869Z" fill="#fff"/><path d="M58.98444,23.41823a1.18978,1.18978,0,0,0-.45529-.9991,5.55291,5.55291,0,0,0-1.64408-.70822,7.99611,7.99611,0,0,1-1.89068-.79675,2.52394,2.52394,0,0,1-1.34689-2.20685,2.40181,2.40181,0,0,1,.96748-1.96023,3.93082,3.93082,0,0,1,2.51671-.77144,4.26435,4.26435,0,0,1,1.83378.37939,2.98374,2.98374,0,0,1,1.26467,1.08131,2.749,2.749,0,0,1,.46162,1.54924H58.98444a1.56635,1.56635,0,0,0-.48058-1.20775,1.99863,1.99863,0,0,0-1.38483-.43632,2.08548,2.08548,0,0,0-1.30261.36044,1.19378,1.19378,0,0,0-.46162.99911,1.07657,1.07657,0,0,0,.49956.90423,5.8349,5.8349,0,0,0,1.65039.70189,7.56369,7.56369,0,0,1,1.84644.77776,3.04358,3.04358,0,0,1,1.02438.99911,2.62353,2.62353,0,0,1,.3225,1.3216,2.35538,2.35538,0,0,1-.94218,1.96023,4.0688,4.0688,0,0,1-2.561.72721,4.79485,4.79485,0,0,1-1.96656-.39838,3.28662,3.28662,0,0,1-1.39115-1.09393,2.73706,2.73706,0,0,1-.49956-1.62511h1.71363a1.57893,1.57893,0,0,0,.55647,1.29628,2.43536,2.43536,0,0,0,1.58717.4616,2.10635,2.10635,0,0,0,1.34055-.36044A1.16676,1.16676,0,0,0,58.98444,23.41823Z" fill="#fff"/><path d="M73.56615,21.7805H69.6014v4.17342H67.88777V16.10841H74.1416V17.4869H69.59509v2.92773h3.96475V21.7805Z" fill="#fff"/><path d="M79.94644,22.16622H78.03679v3.7877H76.32316V16.10841h3.46522a4.01416,4.01416,0,0,1,2.63053.76514,2.70194,2.70194,0,0,1,.92953,2.21318,2.80058,2.80058,0,0,1-.47425,1.65673,3.03481,3.03481,0,0,1-1.32791,1.02438l2.21318,4.10387v.08854H81.92568Zm-1.90332-1.3785H79.801a1.95615,1.95615,0,0,0,1.35321-.43631,1.53028,1.53028,0,0,0,.48689-1.19513,1.643,1.643,0,0,0-.44895-1.22674,1.90883,1.90883,0,0,0-1.34056-.449H78.04314v3.30715Z" fill="#fff"/><path d="M93.66186,21.28726a6.039,6.039,0,0,1-.49956,2.542A3.77034,3.77034,0,0,1,91.73321,25.505a4.21706,4.21706,0,0,1-4.27461,0,3.86136,3.86136,0,0,1-1.44806-1.66938,5.87273,5.87273,0,0,1-.51852-2.49774V20.7814a5.96253,5.96253,0,0,1,.51219-2.542,3.76194,3.76194,0,0,1,3.57271-2.27007,3.9567,3.9567,0,0,1,2.131.57541,3.78287,3.78287,0,0,1,1.4354,1.663,5.94934,5.94934,0,0,1,.51219,2.523v.55646Zm-1.70731-.51219a4.31435,4.31435,0,0,0-.61969-2.51037,2.1863,2.1863,0,0,0-3.4905-.00633,4.20332,4.20332,0,0,0-.63867,2.45981v.56912a4.27008,4.27008,0,0,0,.63234,2.51036,2.04439,2.04439,0,0,0,1.7579.88529,2.006,2.006,0,0,0,1.74526-.8663,4.34236,4.34236,0,0,0,.61336-2.52935Z" fill="#fff"/><path d="M98.417,16.10841l2.83919,7.55012,2.83288-7.55012h2.21319v9.84551H104.595V22.71l.17072-4.34416-2.90876,7.58806H100.6302l-2.90243-7.58173L97.89849,22.71v3.2439H96.19117V16.10841Z" fill="#fff"/><path d="M121.71869,26.289a8.259,8.259,0,0,1-8.26466-8.14452A8.259,8.259,0,0,1,121.71869,10a7.76835,7.76835,0,0,1,5.58354,2.24479L125.734,13.813a5.6871,5.6871,0,0,0-4.01535-1.58718,5.91925,5.91925,0,0,0,0,11.83735,5.43032,5.43032,0,0,0,4.1102-1.63144,4.70382,4.70382,0,0,0,1.2141-2.80125h-5.16621V17.40462h7.32879a7.03723,7.03723,0,0,1,.12015,1.39115,7.33188,7.33188,0,0,1-1.92862,5.20413A7.41528,7.41528,0,0,1,121.71869,26.289Z" fill="#fff"/><path d="M141.09354,21.0533a5.24209,5.24209,0,1,1-5.24209-5.24207A5.17328,5.17328,0,0,1,141.09354,21.0533Zm-2.30172,0a2.9553,2.9553,0,1,0-5.89339,0,2.9553,2.9553,0,1,0,5.89339,0Z" fill="#fff"/><path d="M152.88664,21.04064a5.24209,5.24209,0,1,1-5.24209-5.24207A5.16945,5.16945,0,0,1,152.88664,21.04064Zm-2.29539,0a2.9553,2.9553,0,1,0-5.89339,0,2.9553,2.9553,0,1,0,5.89339,0Z" fill="#fff"/><path d="M164.08534,16.12107v9.41552c0,3.87624-2.28273,5.46341-4.98282,5.46341a4.99558,4.99558,0,0,1-4.64769-3.09847l2.00452-.83469a2.90635,2.90635,0,0,0,2.64317,1.8654c1.72629,0,2.80125-1.075,2.80125-3.07948v-.75249h-.08221a3.571,3.571,0,0,1-2.76331,1.1888A5.09278,5.09278,0,0,1,154.1513,21.066a5.115,5.115,0,0,1,4.90695-5.26105,3.6491,3.6491,0,0,1,2.76331,1.16981h.08221v-.85364ZM162.06187,21.066a2.826,2.826,0,1,0-5.6025,0,2.82112,2.82112,0,1,0,5.6025,0Z" fill="#fff"/><path d="M168.25245,10.56279V25.97287h-2.30172V10.56279Z" fill="#fff"/><path d="M177.45929,22.77324l1.78951,1.1888a5.215,5.215,0,0,1-4.36946,2.32067,5.13039,5.13039,0,0,1-5.20415-5.24207,4.98262,4.98262,0,0,1,4.94489-5.24207,4.872,4.872,0,0,1,4.4896,3.33876l.2403.5944-7.01263,2.90245a2.673,2.673,0,0,0,2.542,1.58717A2.99312,2.99312,0,0,0,177.45929,22.77324ZM171.958,20.88255l4.68563-1.94761A2.02712,2.02712,0,0,0,174.696,17.822,2.88426,2.88426,0,0,0,171.958,20.88255Z" fill="#fff"/></g></svg>