<svg xmlns="http://www.w3.org/2000/svg" viewBox="0 0 174 40"><title>EA2E_audio_provider_bangundolufson</title><g id="EA2E_audio_provider_bangundolufson"><path d="M170.85431,27.49247l-6.3607-12.32718H164.453V27.49247H162.4404V12.50265H165.178l6.20019,12.06877h.03969V12.50265h2.01351V27.49247Zm-20.9951-14.98982h7.85651v1.88916h-5.8474V18.7734h5.32528v1.89h-5.32528v4.93987h5.8474v1.88916h-7.85651Zm-9.3638,14.99247a10.15924,10.15924,0,0,1-3.04541-.60238l.21255-1.9315a9.20591,9.20591,0,0,0,3.08775.70557c1.21446,0,2.91753-.66411,2.91753-2.36718,0-3.24033-6.38805-2.3469-6.38805-6.85373,0-2.57533,2.08672-3.9459,4.76966-3.9459a10.15513,10.15513,0,0,1,3.17329.51859l-.2981,1.91122a6.69144,6.69144,0,0,0-2.78964-.60238c-1.19242,0-2.59827.4154-2.59827,1.93149,0,2.78259,6.38893,2.13964,6.38893,6.91635C145.92565,26.26919,143.47645,27.49512,140.49541,27.49512ZM128.41517,18.7734h5.48052v1.89h-5.48052v6.829h-2.11581V12.50265h7.85034v1.88916h-5.73453Zm-12.33864,8.72172c-3.48552,0-5.492-2.21725-5.492-6.3563V12.50176h2.02675v8.36277c0,2.82933.85109,4.7723,3.46523,4.7723,2.615,0,3.46611-1.943,3.46611-4.7723V12.50176h2.02675v8.63706C121.56939,25.27787,119.56293,27.49512,116.07653,27.49512ZM100.3582,12.50265h2.00294V25.60331h5.84917v1.88916H100.3582ZM89.74467,27.49512c-4.23165,0-6.67557-3.09481-6.67557-7.49756,0-4.29957,2.46332-7.49756,6.67557-7.49756s6.67557,3.198,6.67557,7.49756C96.42024,24.40031,93.97633,27.49512,89.74467,27.49512Zm0-13.16769c-3.05953-.02117-4.56945,2.72085-4.56945,5.67013,0,2.88666,1.37057,5.66925,4.56945,5.66925s4.56944-2.78259,4.56944-5.66925C94.31411,17.04828,92.8042,14.30626,89.74467,14.32743ZM74.65518,27.00828s-1.51874-1.63869-1.89887-2.0488c-.31927.33338-.63324.67294-1.22857,1.315a3.6228,3.6228,0,0,1-5.4126.01059,4.38873,4.38873,0,0,1-.0097-5.85006c.43657-.47008.95693-1.02219,1.22858-1.315A4.20072,4.20072,0,0,1,65.9458,16.1134a3.505,3.505,0,0,1,3.34882-3.61252A3.19165,3.19165,0,0,1,71.668,13.57335c-.09878.10672-1.19858,1.28854-1.35293,1.45524a1.35721,1.35721,0,0,0-1.02042-.4551,1.50491,1.50491,0,0,0-1.435,1.54785,1.67846,1.67846,0,0,0,.43569,1.10068c.6403.69058,4.45391,4.81993,4.45391,4.81993L74.1066,20.577,75.45777,22.042l-1.35823,1.457,1.89975,2.04968Zm-5.97-6.42069s-.568.61208-1.21976,1.315a2.16988,2.16988,0,0,0,0,2.91488,1.81146,1.81146,0,0,0,2.70146.01059c.657-.69852,1.23827-1.33618,1.23827-1.33618ZM50.4709,27.49512c-4.48213,0-7.464-2.94928-7.464-7.56018A7.13627,7.13627,0,0,1,50.49118,12.5a10.44626,10.44626,0,0,1,4.15845.72674l-.16228,2.0973a6.41453,6.41453,0,0,0-3.89474-.99661,5.33373,5.33373,0,0,0-5.43642,5.67013,5.34645,5.34645,0,0,0,5.335,5.66925,8.00273,8.00273,0,0,0,2.27194-.24871V21.01446h-2.981V19.31228h5.00955v7.539A12.62466,12.62466,0,0,1,50.4709,27.49512ZM30.2819,15.16529h-.04322V27.49247H28.08229V12.50265h2.93252l6.64294,12.06877H37.701V12.50265h2.15639V27.49247H37.09682Zm-8.21018,8.548H15.13156l-1.44025,3.7792H11.56049l6.04673-14.98982h2.13083l5.98587,14.98982H23.512ZM18.6012,14.52146,15.78068,21.952h5.641Zm-8.59384,8.97661c0,3.22092-2.58944,3.9944-5.5546,3.9944H.5686V12.50265H4.51538c3.02778,0,5.11626,1.009,5.11626,3.7792,0,2.062-1.16948,3.093-3.00749,3.56489V19.89A3.46381,3.46381,0,0,1,10.00736,23.49807Zm-2.4642-7.001c0-1.78333-1.48258-2.234-2.69352-2.234H2.6562v4.63912H3.8054C5.83127,18.90216,7.54316,18.709,7.54316,16.49705ZM4.01442,20.66344H2.6562v5.06864H4.22257c1.87946,0,3.57106-.40835,3.57106-2.42716C7.79363,20.98536,5.8101,20.66344,4.01442,20.66344Z" fill="#fff" fill-rule="evenodd"/></g></svg>