<svg xmlns="http://www.w3.org/2000/svg" viewBox="0 0 40 40"><g id="EA38_connect_tguide_select_restaurants"><path d="M13.5,1V39" fill="none" stroke="#fff" stroke-width="1.2"/><path d="M13.5,1V12.57143s-.22253,1.58129-1.41363,1.57857H10.73859A2.26038,2.26038,0,0,1,8.5,12.57143V1" fill="none" stroke="#fff" stroke-width="1.2"/><path d="M18.5,1V12.57143s-.47,1.58129-1.64895,1.57857H15.35548C13.54,14.15,13.5,12.2,13.5,12.2V1" fill="none" stroke="#fff" stroke-width="1.2"/><path d="M8.17791,13.10106V11.503l1.8625,2.90562h6.52117L18.83184,11.503l.00194,1.59809a5.45786,5.45786,0,0,1-.96854,2.03393,13.45743,13.45743,0,0,1-3.16712,3.14775H11.90388A30.604,30.604,0,0,1,9.14645,15.135,5.125,5.125,0,0,1,8.17791,13.10106Z" fill="#fff" fill-rule="evenodd"/><path d="M31.5,20.92857V1.5c-2.223,0-4.05688,5.34493-4.05688,8.28571v6.5c0,2.93522,1.91131,4.64286,4.048,4.64286C31.49107,22.57493,31.5,39,31.5,39" fill="#fff" stroke="#fff" stroke-width="1.2" fill-rule="evenodd"/></g></svg>