<svg xmlns="http://www.w3.org/2000/svg" viewBox="0 0 40 40"><g id="t11_1p484"><rect y="7.01742" width="40" height="25.96889" fill="#ce1126"/><rect x="0.00782" y="6.98631" width="26.66667" height="25.96889" fill="#fff"/><rect y="7.01742" width="13.33333" height="25.96889" fill="#006847"/><path d="M20.971,16.40508l.02019-.29428-.17658-.45066-.02217-.01906-.07717-.33021-.8125-.36713s-.50714-.09574-.49874.32639c.00261.1333.03213.17948.13937.20955a1.02411,1.02411,0,0,1,.50425.204.46219.46219,0,0,1,.19571.38084.471.471,0,0,1-.04554.18773l.11516.55769.08295.297c-.0115.04519-.03043.12-.03043.12589a1.30563,1.30563,0,0,0,.175-.01907l.22282-.18413.00826-.0048.00092-.00282.16549-.13676.03185-.46365.00289-.00883Z" fill="#d1a467"/><path d="M23.78513,17.10652l-1.25878-1.48895-1.144-.67835-.95484-.18576-.40829.03347a.23574.23574,0,0,0-.15378.295c.00932.08931.06333.13569.19713.19055a4.12763,4.12763,0,0,1,.44811.2642l.15152.15222.16634.932-.20171.43675-.21527.09955a1.60952,1.60952,0,0,0-.00417-.26271.82139.82139,0,0,0-.08225-.28482c.00572-.00127-.16825-.46132-.2277-.58191a.77028.77028,0,0,0-.22713-.23143h-.00007s-.25883-.10612-.40441-.16091a.63544.63544,0,0,0-.25565-.0372c.00113-.01088-.38112.00663-.38112.00663a7.62861,7.62861,0,0,0-.77233.4789c-.16316.17969-.23475.18089-.2171.25707.01546.06693.42941.17665.48942.179.0646.00233.36735-.012.36735-.012l.00021-.00021a.27735.27735,0,0,0,.096.09136c.03128.01772.08451-.00473.11854.0286a.25136.25136,0,0,1,.03827.12652,11.82594,11.82594,0,0,0-.435,1.3668,7.178,7.178,0,0,0,.4304,1.16121,1.93454,1.93454,0,0,0,.28227.37067l.00113.00494s-.192.2116-.20581.22261a.808.808,0,0,0-.1155.14325l-.00043.00014c-.00289.03559.07689.08748.21082.15046a.2786.2786,0,0,1-.12878.00727.95293.95293,0,0,0-.24075-.00353.17863.17863,0,0,0-.13613.07533l.0005.00015a.635.635,0,0,0,.24831.10809c.17721.04518,1.1031-.03615,1.09908-.15024a8.16609,8.16609,0,0,0,.71379.86644c.05331-.02542.49338.00388.53772-.00982V21.068l.00014-.00084.00035.00091a1.06391,1.06391,0,0,1,.14735-.13005c.03742-.016.00183-.29109-.00078-.30564l.38528.45786a.2282.2282,0,0,0,.14721.06044,13.13479,13.13479,0,0,0,1.55771-.33325c-.01842-.01722-.1251-.09517-.12525-.09531L23.323,20.722V20.722s-.37815-.29823-.86968-.66311c-.38959-.28954-.83891-.62872-1.01386-.761.00218-.12983-.1105-.82662-.10323-.89771l.46.33875.50538.61834.714.427a3.406,3.406,0,0,0,.30776.67588c.02407.01836.60478.44967.60478.44967s.35231-1.82092.34737-2.23049a1.68855,1.68855,0,0,0-.14834-.71683Zm-5.08829-.59907.00021-.00021.00262.00056Zm.52967.28976v-.00007l.00007.00063Zm-.61418,3.4563.00021.00007.00078.00042Z" fill="#6c4219"/><path d="M25.13626,20.70579a.71088.71088,0,0,1,.19811-.211c.143-.10365.41649-.24521.43873-.5224s-.41606-.77359-.41606-.77359l-.00064.002-.00007-.00162s-.54753.82055-.49274.96649.13612.16026.15808.24428a1.24838,1.24838,0,0,1,.02281.2356s-.05973.35-.07357.37526a1.56125,1.56125,0,0,0-.53122.2231.60594.60594,0,0,0-.258.48074c.00946.143.08931.30479.0963.44536.00664.13782.009.27267.00918.27747a1.76835,1.76835,0,0,1-.21612.24147c-.00889-.005-.47593-.10958-.55564-.00968s-.47326.369-.52091.52374a1.38483,1.38483,0,0,0-.04229.24273.41326.41326,0,0,1-.16973.25678,1.72248,1.72248,0,0,0-.2474.20821c-.02407.03149-.29554-.09637-.29554-.09637a.96937.96937,0,0,0-.31729-.07583.81276.81276,0,0,0-.41543.1c-.13139.07865-.19472.22127-.33783.31178a.85521.85521,0,0,1-.33036.11381c-.12193-.01426-.59123-.0879-.59123-.0879l-.01037.09115.00113.00007a3.09907,3.09907,0,0,1,.46033.05429,1.13356,1.13356,0,0,1,.34468.20193.95616.95616,0,0,0,.47827.2673,2.84676,2.84676,0,0,0,.826-.30783c.10555-.04088.1979-.43477.1979-.43477l.00007-.00028a1.04471,1.04471,0,0,1,.14523-.15851.5577.5577,0,0,1,.27352-.14219,2.14743,2.14743,0,0,0,.9225-.145c.2721-.17128.15236-.6535.17538-.73491a.4934.4934,0,0,1,.05973-.14431c.04109-.01052.17721-.21061.278-.301.02358-.02118.05895-.04512.08917-.06757a1.09335,1.09335,0,0,0,.34567-.10922c.21111-.11417.32393-.468.38479-.63465s-.16422-.554-.17368-.58283C25.04561,21.028,25.10131,20.80894,25.13626,20.70579Z" fill="#717732"/><path d="M19.7849,24.19421a.68106.68106,0,0,0-.244-.06361,1.56865,1.56865,0,0,0-.43548.08049c-.01518-.00113-.448-.35055-.65329-.36368a7.58416,7.58416,0,0,0-.90845.12476c-.03142-.02-.39954-.29738-.43131-.39856-.0317-.101-.17008-.50107-.22643-.62236a1.25192,1.25192,0,0,0-.5825-.43084c-.06331.00112-.18813.16961-.18813.16961-.04363-.02726-.34433-.28242-.37553-.31849-.00594-.00728-.04929-.23561-.04929-.23561a2.46952,2.46952,0,0,0,.09384-.44755.96161.96161,0,0,0-.30261-.47127,1.914,1.914,0,0,0-.47509-.06178.92227.92227,0,0,0-.02153-.31892,3.33839,3.33839,0,0,1-.07886-.34489c.01892-.11989.27965-.69488.29286-.89666a1.04775,1.04775,0,0,0-.18025-.39813l-.24577.03608-.3079.28756-.229.43033c-.077.14078.51237.56948.51237.56948a.93792.93792,0,0,1,.15582.42059,1.3754,1.3754,0,0,1-.00932.20023l.00014-.001-.00014.00113-.11981.05944c-.02337.04053-.13838.131-.1501.19515a2.74923,2.74923,0,0,0,.42707.71168.94519.94519,0,0,0,.39884.1453,4.36161,4.36161,0,0,1,.45482.56525,1.76617,1.76617,0,0,0,.17461.657,2.45189,2.45189,0,0,0,.58565.34942c.09948.02365.16987-.102.2853-.07915a3.14633,3.14633,0,0,1,.58361.36756.45813.45813,0,0,0-.15639.05224c-.06566.0454.18983.34144.26745.38882a2.23094,2.23094,0,0,0,.87336.20933c.13337-.02655.35033-.23751.45581-.29688a3.25877,3.25877,0,0,1,.53425-.21322.76623.76623,0,0,1,.26123.07265Z" fill="#717732"/><path d="M22.1594,22.87877l.00923-.1523s-3.29286-.00164-3.3382-.00471c-.26751-.01909-.43954-.42847-.43954-.42847l-1.159-.19059-.04821.1893.41109.61689c.024.00217.75543.59642.75543.59642s.80436.25571.96537.34814a4.83245,4.83245,0,0,0,1.424.022c.19291-.05438,1.04025-.468,1.04025-.468Z" fill="#3cbbd6"/><path d="M20.99553,23.35206a.39157.39157,0,0,0,.089-.238c0-.138-.04921-.16168-.04921-.16168a.27245.27245,0,0,0,.07985-.18329.21749.21749,0,0,0-.17835-.19995c-.05436,0-1.69143-.02118-1.74078-.02075a.15318.15318,0,0,0-.12624-.0711c-.10485-.00628-.18449.12546-.18449.21421s.0891.13485.0891.16832a.31005.31005,0,0,0-.08451.22677.41766.41766,0,0,0,.12207.25559s-.12518.0999-.12518.19994a.1789.1789,0,0,0,.18463.16649.22068.22068,0,0,0,.17037-.08713c.01511.01243,1.48351.06093,1.55658.03248a.20928.20928,0,0,0,.14657.07569.16986.16986,0,0,0,.16684-.18929A.19987.19987,0,0,0,20.99553,23.35206Z" fill="#f6a951"/><path d="M23.05093,21.73384c-.047-.08084-.30027-.27839-.39644-.26893a1.03111,1.03111,0,0,0-.42241.29039c-.15724.15243-.14093.28079-.359.26907l-.16733-.00911.02662-.06114-.0574-.1787-.38585-.29024-.82252.17594s-.67518-.31291-.8346-.38429a1.72319,1.72319,0,0,0-.54675-.15.5847.5847,0,0,0-.44939.33706,1.28753,1.28753,0,0,0-.90012-.51963.52133.52133,0,0,0-.43392.1734A.87488.87488,0,0,0,17.007,20.449c-.35669-.311-.5882-.2349-.71034-.12045a.56465.56465,0,0,0,.15017.81567,1.007,1.007,0,0,0,.72227.23589.83707.83707,0,0,0,.77628.49147.75514.75514,0,0,0,.60112-.15215.53691.53691,0,0,0,.41684.45475,1.76676,1.76676,0,0,0,.88239.02132.74748.74748,0,0,0,.266-.17276,6.93758,6.93758,0,0,0-.06185.86072v.00007a.09595.09595,0,0,0,.08091.06693c.03791.00106.37441-.0168.37441-.0168l.0903-.10365.05514-.23214.30861-.22007.51045-.13062a1.90437,1.90437,0,0,0,.81166.23892,1.407,1.407,0,0,0,.81179-.35711A.73589.73589,0,0,0,23.05093,21.73384Z" fill="#0e8388"/><path d="M17.52759,17.0182a2.26508,2.26508,0,0,1-.46927-.00954c-.19238-.03333-.15018-.52368-.15491-.53792s-.1173-.13334-.09855-.24279.37426-.39842.42238-.41414a.21513.21513,0,0,1,.10321.01909s.08985-.08739.11651-.08739c.02745,0,.06539.05041.05484.07194-.01061.02135-.13264.09273-.142.1475a.36639.36639,0,0,1-.03407.163.77156.77156,0,0,0-.11142.17138c-.0082.04523-.02812.08456.00591.1012a3.6732,3.6732,0,0,0,.4047-.14279c.01411.0059-.05748.12487-.16773.17141s-.183.09991-.23818.09162c0,0-.061.14643.12794.15469a.66471.66471,0,0,0,.29326-.04162l-.11259.38435Z" fill="#a7ab70"/><path d="M16.59117,18.39191c0,.16175-.15944.29735-.15483.583.00479.28573.04911.28856.42708.59513a.41034.41034,0,0,1,.11259.18346c.02122.09264.08917.64018.453.63765.36361-.00227.41293-.233.41293-.233l-.15488-.2286a.50811.50811,0,0,1-.1948.02144.24868.24868,0,0,1-.16893-.15,2.75717,2.75717,0,0,0-.11259-.39035c-.15251-.22854-.4247-.26667-.427-.50709s.16655-.26655.11962-.55232c-.04687-.28555-.38715-.42367-.38715-.42367l-.1384-.05594.01169.09384A1.02641,1.02641,0,0,1,16.59117,18.39191Z" fill="#a7ab70"/><polygon points="18.1 19.327 18.1 19.327 18.1 19.327 18.1 19.327" fill="#a7ab70"/><path d="M18.68936,19.26626l-.09863-.21117-.11805-.10223-.21351-.04921-.19557.01659-.296.017-.15575-.07815-.1016-.1698-.01264-.19995a1.95528,1.95528,0,0,1,.08606-.17736l.7724-.75559.12666-.30409-.022-.15787-.22375-.304-.06643-.07279-.20574.00953-.23864.29455.24641.18491s.0545-.03057.05768.03933a6.30152,6.30152,0,0,1-.71627.69092,1.04681,1.04681,0,0,0-.1883.29745.90323.90323,0,0,0-.04391.46019.68114.68114,0,0,0,.58014.64743c.0197.00868.431-.02238.43019-.02337a.71725.71725,0,0,1,.16478.01885.49751.49751,0,0,1,.054.0968l-.03587.0514-.09786.08642.51894.08373Z" fill="#a7ab70"/><path d="M19.0685,19.96361c-.11043-.00409-.12589-.17044-.13154-.19677a.8498.8498,0,0,0-.2284-.31087c-.07816-.03629-.01306.22142-.01306.22142l-.689-.21887-.38338.35619.13747.4376a1.90853,1.90853,0,0,0,.24873-.16465c.01871.00212.352.17121.40992.17446l.00028-.00028c.05409.00868.735.024.735.024l.1393-.13654S19.1953,19.96834,19.0685,19.96361Z" fill="#f7c73b"/><path d="M21.77005,21.3266a.28116.28116,0,0,0-.169.0096l-.00007.00007V21.3362s-.28369-.22353-.3276-.26158l-.13005-.11339-.00064-.21661a3.98044,3.98044,0,0,1-.603.46153c-.07724-.00169-.10336-.03982-.173-.03219a.17984.17984,0,0,0-.14989.11212c-.00769.04779,0,.18681.03749.2135a.181.181,0,0,0,.15145.01991.4605.4605,0,0,0,.03622.21188.19181.19181,0,0,0,.21894.04116.11517.11517,0,0,0,.069-.14269,3.41672,3.41672,0,0,1,.80085.03721.24751.24751,0,0,0,.1525.0048C21.735,21.64326,21.86388,21.35054,21.77005,21.3266Z" fill="#f7c73b"/><path d="M18.72579,16.52461a.80131.80131,0,0,0-.20186-.01907l-.53185-.08253a.38386.38386,0,0,0-.12038-.03332,1.22084,1.22084,0,0,0-.133.16182.49837.49837,0,0,0-.23695.312c-.033.19981.33544.495.47149.345,0,0-.17609-.1509-.1362-.27473a.26173.26173,0,0,1,.26533-.206.17421.17421,0,0,1,.07414.00558l.18124.17865c.00015,0,.51667-.16771.46979-.27008h.00007A.48676.48676,0,0,0,18.72579,16.52461Z" fill="#f8c739"/></g></svg>