<svg xmlns="http://www.w3.org/2000/svg" viewBox="0 0 40 40"><g id="EA45_flag_rawanda"><rect y="7" width="40" height="26" fill="#20603d"/><rect y="7" width="40" height="19.5" fill="#fad201"/><rect y="7" width="40" height="13" fill="#00a1de"/><g id="h"><path id="q" d="M37.13333,13.63333l-2.97807.174,2.83155.93889-2.92164-.60268,2.49207,1.63975L33.89114,14.445l1.98275,2.22887L33.645,14.69114l1.33831,2.6661-1.63975-2.49207.60268,2.92164-.93889-2.83155-.174,2.97807-.037-4.337Z" fill="#e5be01"/><path id="q-2" data-name="q" d="M37.13333,13.63333l-2.97807-.174,2.83155-.93889-2.92164.60268,2.49207-1.63976-2.6661,1.33832,1.98275-2.22888L33.645,12.57553l1.33831-2.66611-1.63975,2.49207.60268-2.92164-.93889,2.83156-.174-2.97808-.037,4.337Z" fill="#e5be01"/></g><g id="h-2" data-name="h"><path id="q-3" data-name="q" d="M28.53333,13.63333l2.97808.174-2.83156.93889,2.92164-.60268-2.49207,1.63975L31.77553,14.445l-1.98276,2.22887,2.22888-1.98275-1.33832,2.6661,1.63976-2.49207-.60268,2.92164.93889-2.83155.174,2.97807.037-4.337Z" fill="#e5be01"/><path id="q-4" data-name="q" d="M28.53333,13.63333l2.97808-.174-2.83156-.93889,2.92164.60268-2.49207-1.63976,2.66611,1.33832-1.98276-2.22888,2.22888,1.98276L30.68333,9.90942l1.63976,2.49207-.60268-2.92164.93889,2.83156.174-2.97808.037,4.337Z" fill="#e5be01"/></g><circle cx="32.83333" cy="13.63333" r="1.27037" fill="#e5be01" stroke="#00a1de" stroke-width="0.12593"/></g></svg>