<svg xmlns="http://www.w3.org/2000/svg" viewBox="0 0 40 40"><g id="EA45_flag_martinique"><rect y="7" width="40" height="26" fill="#21428e"/><path d="M20,7V33M0,20H40" stroke="#fff" stroke-width="3.86667"/><path id="path8" d="M7.64213,8.1264c-.2944.13493-.52746.3312-.52746.42933,0,.1104.17173.1104-.04907.184a4.16277,4.16277,0,0,1-1.16533.15947c-.13494,0-.45387-.08587-.53974-.08587-.09813.01227.41707.2208.2208.17174-.26986-.0736-.42933-.09814-.2208.0368a1.92637,1.92637,0,0,0,1.01814.0368c.19626-.02454.71146-.13494.89546-.15947.12267-.01227.12267.09813.19627.09813A16.18989,16.18989,0,0,0,9.8256,8.936c.42933-.06133.5888-.0368.71147.1104.24533.28213-.01227.52747-.71147.67467a2.55618,2.55618,0,0,0-1.5456.6992c-.79733.85866.13493,1.82773,1.8768,1.96266,1.01813.08587,1.68053.28214,1.52107.4416a6.64562,6.64562,0,0,1-1.5088.2208c-1.68054.13494-2.4288.368-3.06667.98134-.35573.34346-.4784.552-.4784.83413,0,.39253,0,.39253-.65013.39253a4.19145,4.19145,0,0,1-1.04267-.12266c-.34347-.08587-.39253-.08587-.26987.06133a2.29256,2.29256,0,0,0,1.52107.552,1.58453,1.58453,0,0,1,1.07947.368,4.86035,4.86035,0,0,0,3.1648.78507c1.9504-.01227,3.06666-.52747,3.06666-1.3984,0-.65014-.736-1.0304-2.26933-1.16534a10.59534,10.59534,0,0,0-2.95627.24534c-.12266.0368.01227-.04907.30667-.19627a5.50847,5.50847,0,0,1,1.74187-.368c1.7664-.1472,2.56373-.53973,2.56373-1.27573,0-.71147-.78507-1.11627-2.4656-1.27574-1.656-.1472-1.77867-.4416-.38027-.87093.9936-.2944,1.49654-.736,1.49654-1.33707,0-.92-.50294-1.22666-2.18347-1.31253A2.97438,2.97438,0,0,0,7.64213,8.1264Zm.8832.2576a.28649.28649,0,0,1-.19626.12267c-.0736,0-.08587-.06134-.04907-.12267a.25018.25018,0,0,1,.19627-.12267C8.54987,8.26133,8.56213,8.3104,8.52533,8.384Zm3.54507,6.86933c.23307.08587.31893.17174.24533.24534a5.36621,5.36621,0,0,1-2.37973.3312c-.90773-.08587-1.88907-.38027-1.59467-.50294A7.8453,7.8453,0,0,1,12.0704,15.25333Z" fill="#fff"/><path id="path8-2" data-name="path8" d="M29.57547,8.1264c-.2944.13493-.52747.3312-.52747.42933,0,.1104.17173.1104-.04907.184a4.16277,4.16277,0,0,1-1.16533.15947c-.13493,0-.45387-.08587-.53973-.08587-.09814.01227.41706.2208.2208.17174-.26987-.0736-.42934-.09814-.2208.0368a1.92633,1.92633,0,0,0,1.01813.0368c.19627-.02454.71147-.13494.89547-.15947.12266-.01227.12266.09813.19626.09813a16.18989,16.18989,0,0,0,2.3552-.06133c.42934-.06133.5888-.0368.71147.1104.24533.28213-.01227.52747-.71147.67467a2.55621,2.55621,0,0,0-1.5456.6992c-.79733.85866.13494,1.82773,1.8768,1.96266,1.01814.08587,1.68054.28214,1.52107.4416a6.6455,6.6455,0,0,1-1.5088.2208c-1.68053.13494-2.4288.368-3.06667.98134-.35573.34346-.4784.552-.4784.83413,0,.39253,0,.39253-.65013.39253a4.19145,4.19145,0,0,1-1.04267-.12266c-.34346-.08587-.39253-.08587-.26986.06133a2.29251,2.29251,0,0,0,1.52106.552,1.58451,1.58451,0,0,1,1.07947.368,4.86037,4.86037,0,0,0,3.1648.78507c1.9504-.01227,3.06667-.52747,3.06667-1.3984,0-.65014-.736-1.0304-2.26934-1.16534a10.59527,10.59527,0,0,0-2.95626.24534c-.12267.0368.01226-.04907.30666-.19627a5.5086,5.5086,0,0,1,1.74187-.368c1.7664-.1472,2.56373-.53973,2.56373-1.27573,0-.71147-.78506-1.11627-2.4656-1.27574-1.656-.1472-1.77866-.4416-.38026-.87093.9936-.2944,1.49653-.736,1.49653-1.33707,0-.92-.50293-1.22666-2.18347-1.31253A2.97435,2.97435,0,0,0,29.57547,8.1264Zm.8832.2576a.28651.28651,0,0,1-.19627.12267c-.0736,0-.08587-.06134-.04907-.12267a.25019.25019,0,0,1,.19627-.12267C30.4832,8.26133,30.49547,8.3104,30.45867,8.384Zm3.54506,6.86933c.23307.08587.31894.17174.24534.24534a5.36629,5.36629,0,0,1-2.37974.3312c-.90773-.08587-1.88906-.38027-1.59466-.50294A7.84526,7.84526,0,0,1,34.00373,15.25333Z" fill="#fff"/><path id="path8-3" data-name="path8" d="M7.64213,23.39307c-.2944.13493-.52746.3312-.52746.42933,0,.1104.17173.1104-.04907.184a4.16314,4.16314,0,0,1-1.16533.15947c-.13494,0-.45387-.08587-.53974-.08587-.09813.01227.41707.2208.2208.17173-.26986-.0736-.42933-.09813-.2208.0368a1.92616,1.92616,0,0,0,1.01814.0368c.19626-.02453.71146-.13493.89546-.15946.12267-.01227.12267.09813.19627.09813a16.18989,16.18989,0,0,0,2.3552-.06133c.42933-.06134.5888-.0368.71147.1104.24533.28213-.01227.52746-.71147.67466a2.55624,2.55624,0,0,0-1.5456.6992c-.79733.85867.13493,1.82774,1.8768,1.96267,1.01813.08587,1.68053.28213,1.52107.4416a6.64625,6.64625,0,0,1-1.5088.2208c-1.68054.13493-2.4288.368-3.06667.98133-.35573.34347-.4784.552-.4784.83414,0,.39253,0,.39253-.65013.39253a4.19141,4.19141,0,0,1-1.04267-.12267c-.34347-.08586-.39253-.08586-.26987.06134a2.29256,2.29256,0,0,0,1.52107.552,1.58448,1.58448,0,0,1,1.07947.368,4.86029,4.86029,0,0,0,3.1648.78506c1.9504-.01226,3.06666-.52746,3.06666-1.3984,0-.65013-.736-1.0304-2.26933-1.16533a10.59572,10.59572,0,0,0-2.95627.24533c-.12266.0368.01227-.04906.30667-.19626a5.50818,5.50818,0,0,1,1.74187-.368c1.7664-.1472,2.56373-.53974,2.56373-1.27574,0-.71146-.78507-1.11626-2.4656-1.27573-1.656-.1472-1.77867-.4416-.38027-.87093.9936-.2944,1.49654-.736,1.49654-1.33707,0-.92-.50294-1.22667-2.18347-1.31253A2.9743,2.9743,0,0,0,7.64213,23.39307Zm.8832.2576a.28648.28648,0,0,1-.19626.12266c-.0736,0-.08587-.06133-.04907-.12266a.25018.25018,0,0,1,.19627-.12267C8.54987,23.528,8.56213,23.57707,8.52533,23.65067ZM12.0704,30.52c.23307.08587.31893.17173.24533.24533a5.36592,5.36592,0,0,1-2.37973.3312c-.90773-.08586-1.88907-.38026-1.59467-.50293A7.8453,7.8453,0,0,1,12.0704,30.52Z" fill="#fff"/><path id="path8-4" data-name="path8" d="M29.57547,23.39307c-.2944.13493-.52747.3312-.52747.42933,0,.1104.17173.1104-.04907.184a4.16314,4.16314,0,0,1-1.16533.15947c-.13493,0-.45387-.08587-.53973-.08587-.09814.01227.41706.2208.2208.17173-.26987-.0736-.42934-.09813-.2208.0368a1.92612,1.92612,0,0,0,1.01813.0368c.19627-.02453.71147-.13493.89547-.15946.12266-.01227.12266.09813.19626.09813a16.18989,16.18989,0,0,0,2.3552-.06133c.42934-.06134.5888-.0368.71147.1104.24533.28213-.01227.52746-.71147.67466a2.55627,2.55627,0,0,0-1.5456.6992c-.79733.85867.13494,1.82774,1.8768,1.96267,1.01814.08587,1.68054.28213,1.52107.4416a6.64613,6.64613,0,0,1-1.5088.2208c-1.68053.13493-2.4288.368-3.06667.98133-.35573.34347-.4784.552-.4784.83414,0,.39253,0,.39253-.65013.39253a4.19141,4.19141,0,0,1-1.04267-.12267c-.34346-.08586-.39253-.08586-.26986.06134a2.29251,2.29251,0,0,0,1.52106.552,1.58446,1.58446,0,0,1,1.07947.368,4.86031,4.86031,0,0,0,3.1648.78506c1.9504-.01226,3.06667-.52746,3.06667-1.3984,0-.65013-.736-1.0304-2.26934-1.16533a10.59565,10.59565,0,0,0-2.95626.24533c-.12267.0368.01226-.04906.30666-.19626a5.50832,5.50832,0,0,1,1.74187-.368c1.7664-.1472,2.56373-.53974,2.56373-1.27574,0-.71146-.78506-1.11626-2.4656-1.27573-1.656-.1472-1.77866-.4416-.38026-.87093.9936-.2944,1.49653-.736,1.49653-1.33707,0-.92-.50293-1.22667-2.18347-1.31253A2.97426,2.97426,0,0,0,29.57547,23.39307Zm.8832.2576a.28649.28649,0,0,1-.19627.12266c-.0736,0-.08587-.06133-.04907-.12266a.25019.25019,0,0,1,.19627-.12267C30.4832,23.528,30.49547,23.57707,30.45867,23.65067ZM34.00373,30.52c.23307.08587.31894.17173.24534.24533a5.366,5.366,0,0,1-2.37974.3312c-.90773-.08586-1.88906-.38026-1.59466-.50293A7.84526,7.84526,0,0,1,34.00373,30.52Z" fill="#fff"/></g></svg>