<svg xmlns="http://www.w3.org/2000/svg" viewBox="0 0 40 40"><g id="t11_1p498"><rect y="7" width="40" height="26" fill="#cc092f"/><rect y="7" width="26.66667" height="26" fill="#ffd200"/><rect y="7" width="13.33333" height="26" fill="#0046ae"/><path d="M18.64289,13.0981a.37389.37389,0,0,0-.11548.01879A.206.206,0,0,1,18.6,13.2727v.19474l-.00137.00808v.03088h-.0309l-.00806.00136h-.19477a.206.206,0,0,1-.15441-.07117.35982.35982,0,0,0-.02015.11551.37432.37432,0,0,0,.01878.11549.20584.20584,0,0,1,.15578-.07249h.235l-.00136.012v.02015l.00136.008v.93609a.1977.1977,0,0,1-.07254.1464.31435.31435,0,0,1,.07656.06718.38939.38939,0,0,1,.04029.06981.39364.39364,0,0,1,.0403-.06981.31606.31606,0,0,1,.07522-.06582.19864.19864,0,0,1-.07254-.14773v-.9751h.03224l.00805-.00131h.19475a.20615.20615,0,0,1,.15441.07115.36028.36028,0,0,0,.02018-.11549.37438.37438,0,0,0-.01881-.11549.20584.20584,0,0,1-.15578.07249h-.19475l-.00805-.00136h-.0309v-.03088l-.00137-.00808v-.19472a.20624.20624,0,0,1,.07118-.15444.36134.36134,0,0,0-.11549-.02015" fill="#dfbb0b"/><path d="M24.3418,15.717a2.26726,2.26726,0,0,0-1.03012-1.27727c-.39458.23209-.82231.75508-.97651.79644,0,.142.05376.70241.05376.70241a5.48842,5.48842,0,0,0-1.30869.549,1.03708,1.03708,0,0,1-.28563-.29118,1.76158,1.76158,0,0,1-.23779-.932c0-.14144.15852-.30069.15852-.415,0-.17286-.00807-.75746-.00807-.75746a.11989.11989,0,0,1,.04828-.04294c.04626-.02559.047-.0802-.02-.10211-.15334-.04993-1.04468-.36122-1.174-.36122a.62044.62044,0,0,0-.31286.05642c-.07408.04922-.06817.1132-.09411.13561a.34286.34286,0,0,1-.21617.05109c-.32627,0-.33838.34919-.33838.34919a.29883.29883,0,0,1,.23087-.12625c.24528,0,.43119.1336.43119.184,0,.0204-.42888-.06809-.55743-.07256v.06312a.75956.75956,0,0,1,.5776.8636,2.09368,2.09368,0,0,1-.24311,1.10664,1.0416,1.0416,0,0,1-.28751.29147,5.48284,5.48284,0,0,0-1.30941-.54928s.05375-.56039.05375-.70241c-.154-.04136-.58178-.56435-.97636-.79644A2.26664,2.26664,0,0,0,15.48952,15.717l-.07393,8.52039a13.91676,13.91676,0,0,0,1.34846-1.35379,6.271,6.271,0,0,0,.65-1.73253l.60672.5962s-.5276,1.02831-.62315,1.1939c-.08949.155-.15261.086-.29024.086a.80884.80884,0,0,0-.4149.25515.53863.53863,0,0,0-.07782.24845c0,.085.35322.441.38809.47946a.188.188,0,0,0,.19081.01081,5.453,5.453,0,0,0,.4136-.53725c.18793-.25926,1.22612-1.34847,1.22612-1.34847l.48739.22431s-.90993,2.09188-1.71783,2.41354c0,0,.35149.1493.78311.37332.06283.03272.12769.06781.1934.10347.05433-.06542.11154-.13813.16775-.21357.25825-.34522.51045-.74535.51045-.74535a2.13166,2.13166,0,0,1-.34905.82065c-.04539.07775-.0928.159-.14512.24168.05837.03336.11659.06715.17452.1021a2.8537,2.8537,0,0,1,.97767.82461,2.85433,2.85433,0,0,1,.9778-.82461c.05808-.035.116-.06874.17452-.1021-.05245-.08265-.09972-.16393-.145-.24168a2.13047,2.13047,0,0,1-.34919-.82065s.25234.40013.5103.74535c.0565.07544.11357.14815.168.21357.06543-.03566.13028-.07075.1934-.10347.43147-.224.78282-.37332.78282-.37332-.80761-.32166-1.71768-2.41354-1.71768-2.41354l.48739-.22431s1.03833,1.08921,1.22626,1.34847a5.43154,5.43154,0,0,0,.4136.53725.18774.18774,0,0,0,.19066-.01081c.03488-.03848.3881-.39443.3881-.47946a.537.537,0,0,0-.07782-.24845.80751.80751,0,0,0-.41505-.25515c-.13748,0-.2006.06895-.29-.086-.09569-.16559-.62329-1.1939-.62329-1.1939l.60657-.5962a6.27215,6.27215,0,0,0,.65009,1.73253,13.917,13.917,0,0,0,1.34847,1.35379Z" fill="#af7f54"/><path d="M22.472,17.00231c0-.17383.22833-.34517.22833-.34517H17.132s.22832.17131.22832.34517v4.14476a.3774.3774,0,0,0,.08731.24978,1.17343,1.17343,0,0,0,.286.25519,12.80492,12.80492,0,0,0,1.43978.6984,1.64241,1.64241,0,0,1,.74268.49424,1.6478,1.6478,0,0,1,.74405-.49424A12.80933,12.80933,0,0,0,22.1,21.652a1.17152,1.17152,0,0,0,.28607-.25519.37667.37667,0,0,0,.086-.24978Z" fill="#f4d300"/><path d="M17.492,19.3473v-2.345a.35455.35455,0,0,0-.06717-.21353h4.98275a.35469.35469,0,0,0-.06716.21353l.00142,2.345-2.42491.73458Z" fill="#d0122b"/><path d="M22.34179,19.3473l-1.50154-.0282H18.9935l-1.50154.0282V21.147c0,.09046.09387.30236.63528.57211a8.93315,8.93315,0,0,1,1.78894.90791,8.93052,8.93052,0,0,1,1.78894-.90791c.54138-.26975.63525-.48165.63525-.57211Z" fill="#274d9c"/><path d="M18.64032,18.054c0,.47559.25361.75612.59228.75612.06459,0,.13524.08731.19611.08731.09922,0,.16522-.11013.22564-.11013.07679,0,.12856.12086.26188.12086s.18645-.12086.26324-.12086c.0604,0,.1264.11013.22562.11013.06089,0,.13149-.08731.19611-.08731.33867,0,.59231-.28053.59231-.75611,0-.38786-.32574-.86077-.29011-.93749,0,0,.63525.45568.63525.99253a1.15584,1.15584,0,0,1-.877,1.07849l.19742.44453a1.06914,1.06914,0,0,0-.43783.17462c-.2214.17852-.22431.66088-.22431.98711,0,.38429.0143.54713.15313.65139.14639.11.2565.13369.2565.2458,0,.09767-.114.13762-.2619.20279-.16825.07417-.185.20283-.42842.20283s-.25886-.12866-.42711-.20283c-.14788-.06517-.2619-.10509-.2619-.20279,0-.11211.11011-.1358.2565-.2458.13883-.10426.15311-.2671.15311-.65139,0-.32623-.00289-.80858-.22429-.98711a1.06845,1.06845,0,0,0-.43783-.17462l.19739-.44453a1.15579,1.15579,0,0,1-.877-1.07849c0-.53685.63528-.99252.63528-.99252.03562.07671-.29008.54962-.29008.93748Zm.94414,3.57127c-.17228,0-.282.03636-.282.08864s.10976.08731.282.08731a.09.09,0,0,0,.098-.08731.091.091,0,0,0-.098-.08864Zm.6648,0a.091.091,0,0,0-.098.08864.09.09,0,0,0,.098.08731c.17231,0,.282-.035.282-.08731s-.10974-.08864-.282-.08864Z" fill="#ffd103"/><path d="M19.91765,17.2065l.0967.27269.26054-.12491-.12357.26188.27132.09673-.27132.0967.12357.26054-.26054-.12357-.098.2713-.0967-.2713-.26054.12357.12356-.26054-.27129-.0967.27129-.09673-.12356-.26188.26054.12491.098-.27269Z" fill="#ffd103"/><path d="M18.70735,19.33542l-.44859.33308-.00541.00669-.00939-.00806-.49691-.31159a1.51361,1.51361,0,0,0,.50364-.29949,1.05631,1.05631,0,0,0,.45666.27937Z" fill="#ffd103"/><path d="M22.08644,19.35554a2.93312,2.93312,0,0,0-.497.31159l-.00936.00806-.00536-.00669a1.84766,1.84766,0,0,0-.44856-.33308,1.0563,1.0563,0,0,0,.4566-.27935A1.51407,1.51407,0,0,0,22.08644,19.35554Z" fill="#ffd103"/><path d="M19.36023,20.46328a.95177.95177,0,0,1,.0631.5104.36914.36914,0,0,1-.17861.329,3.28736,3.28736,0,0,0-.09-.8824Z" fill="#ffd103"/><path d="M20.679,20.42028a3.28546,3.28546,0,0,0-.09.88239.36913.36913,0,0,1-.17864-.329.9515.9515,0,0,1,.06312-.51038l.20548-.043Z" fill="#ffd103"/><path id="leaf" d="M18.51544,20.63667a.18668.18668,0,0,1,.004.06315.18047.18047,0,0,1-.01207.04832.28084.28084,0,0,0-.30354.07792.1912.1912,0,0,1-.03489-.0403.18778.18778,0,0,1-.02553-.0564.19169.19169,0,0,1,.372-.09269Z" fill="#ffd103"/><path id="leaf-2" data-name="leaf" d="M18.80178,20.995a.18628.18628,0,0,1-.05882.02333.18032.18032,0,0,1-.04969.00346.28079.28079,0,0,0-.1679-.26461.19186.19186,0,0,1,.02754-.04564.188.188,0,0,1,.04576-.0417.19169.19169,0,0,1,.20311.32516Z" fill="#ffd103"/><path id="leaf-3" data-name="leaf" d="M18.54949,21.378a.18676.18676,0,0,1-.04037-.04873.18077.18077,0,0,1-.01864-.04619.2808.2808,0,0,0,.19977-.24145.19172.19172,0,0,1,.05192.01209.18794.18794,0,0,1,.0538.03063.19169.19169,0,0,1-.24648.29365Z" fill="#ffd103"/><path id="leaf-4" data-name="leaf" d="M18.10723,21.25645a.18635.18635,0,0,1,.03387-.05344.18042.18042,0,0,1,.03816-.032.28081.28081,0,0,0,.29137.11538.19146.19146,0,0,1,.00454.05311.18779.18779,0,0,1-.0125.06064.19169.19169,0,0,1-.35544-.14368Z" fill="#ffd103"/><path id="leaf-5" data-name="leaf" d="M18.08618,20.79827a.18649.18649,0,0,1,.0613.0157.18028.18028,0,0,1,.04223.02641.28083.28083,0,0,0-.01969.31276.19187.19187,0,0,1-.04911.02073.188.188,0,0,1-.06153.00685.19169.19169,0,0,1,.0268-.38245Z" fill="#ffd103"/><circle cx="18.41202" cy="21.01288" r="0.18535" fill="#ffd103"/><path d="M21.66608,20.763a.6017.6017,0,0,0-.497.64872.48182.48182,0,0,1-.18264-.3116.37533.37533,0,0,1,.40426-.41771.5268.5268,0,0,1,.27533.08059Z" fill="#ffd103"/></g></svg>