<svg xmlns="http://www.w3.org/2000/svg" viewBox="0 0 40 40"><g id="t11_1p499"><rect y="7" width="40" height="26" fill="#d3ae3b"/><rect x="1.30612" y="8.3" width="37.38776" height="23.4" fill="#c40308"/><path d="M27.25837,17.74792c.00433-.24008-.51445-2.25968-.55314-2.34106-.03853-.08164-.48025-.84482-.56605-1.01633a7.08594,7.08594,0,0,0-.8711-.81788,14.61284,14.61284,0,0,1-.755,3.02971c-.26318.47813-.3702.54156-.3702.54156s-.13649-.27813-.18041-.19029A8.36121,8.36121,0,0,0,22.959,18.5782a.63578.63578,0,0,0,.35069.54645c.19494.12694.22915.1951.19976.34637-.02923.15134-1.10727.56653-1.12131.56808a1.62689,1.62689,0,0,1,.27021-1.06049s-.93078-.899-.94082-.91176a3.87,3.87,0,0,1,.468-1.46244.53919.53919,0,0,0,.27013.08677.71024.71024,0,0,0,.49306-.18775c.15486-.148.15126-.18417.15126-.18417a2.22523,2.22523,0,0,0,.50759.112.53454.53454,0,0,0,.56523-.2564.48809.48809,0,0,0-.05755-.48025c-.02531-.03616-.09723-.06506-.09723,0a.36717.36717,0,0,1-.12963.325.38153.38153,0,0,1-.36359.04327,4.25718,4.25718,0,0,0-.71241-.01854.972.972,0,0,1,.33437-.227.275.275,0,0,1,.31689.083c.054.065.10074.1698.144.018a.56347.56347,0,0,0-.054-.4369.41257.41257,0,0,0-.38881-.166.86563.86563,0,0,0-.21951.04326.45217.45217,0,0,0-.29168-.278,1.14709,1.14709,0,0,0-.756.166.7809.7809,0,0,1-.34915-.01077,1.13934,1.13934,0,0,1-.29706-.14784c.02008-.06751.11208-.42906.11208-.42906s-.01526-.132.15837-.22253a1.91806,1.91806,0,0,1,.33951-.13584s.13853-.18481.11788-.23885c-.02041-.05413-.02825-.528-.02825-.528l-.29787-.42229-1.28376-.50727a.41853.41853,0,0,0,.08816-.2164.32234.32234,0,0,0-.15387-.27413,1.03578,1.03578,0,0,0-.44245.01388.29308.29308,0,0,0-.14645.26025.48531.48531,0,0,0,.07437.21894l-1.28123.50465s-.20041.224-.24661.29616a3.15351,3.15351,0,0,0-.0667.82139.5789.5789,0,0,0,.14653.12065c.04147.03021.12458-.00375.298.08678s.15837.22253.15837.22253.092.36147.11209.42906a1.13966,1.13966,0,0,1-.2969.14784.7816.7816,0,0,1-.34931.01077,1.14652,1.14652,0,0,0-.75592-.166.45194.45194,0,0,0-.29167.278.867.867,0,0,0-.21951-.04326.4128.4128,0,0,0-.3889.166.56351.56351,0,0,0-.054.4369c.04318.15175.09.04693.144-.01805a.275.275,0,0,1,.31682-.083.97213.97213,0,0,1,.33437.227,4.257,4.257,0,0,0-.71233.01853.38152.38152,0,0,1-.36359-.04326.36754.36754,0,0,1-.12964-.325c0-.065-.072-.03616-.09714,0a.48787.48787,0,0,0-.05763.48024.53441.53441,0,0,0,.56514.25641,2.22644,2.22644,0,0,0,.50759-.112s-.00351.03617.15127.18417a.71032.71032,0,0,0,.49322.18775.53864.53864,0,0,0,.27-.08677A11.01458,11.01458,0,0,1,18.42147,18.1c-.03935-.01723-.91241.87853-.91241.87853a1.631,1.631,0,0,1,.27012,1.066v-.00514c-.01445-.00139-1.09543-.41715-1.12473-.56841s.005-.21943.19975-.34637a.636.636,0,0,0,.35078-.54645,8.35744,8.35744,0,0,0-1.00351-1.62457c-.04384-.08784-.18025.19029-.18025.19029s-.10718-.06343-.3702-.54155a14.59878,14.59878,0,0,1-.75519-3.02972,7.0917,7.0917,0,0,0-.8711.81788c-.08572.17151-.52735.93469-.566,1.01633-.03862.08147-.55739,2.1009-.55315,2.34106s.18891,3.05077.18891,3.05077a2.67587,2.67587,0,0,0,.20253.50017c.1169.212,1.26359,3.65485,1.25608,3.67379s-.24147.17021-.28661.25339c-.04531.08335-.03021.13249-.01519.246s.5018.70743.50931.75657c.00751.04931.10187.09829.1622.13241a.30943.30943,0,0,0,.22629-.00759c.049-.02261.53951-.15127.53951-.174a1.61247,1.61247,0,0,1,.06024-.17772s.48661-.57893.5431-.65085,2.74229-1.66931,2.8747-1.79168c.02441.01086-.72922,2.06882-.78931,2.1929a4.02125,4.02125,0,0,1-.74424.57494c-.08269.04906-.06016.09779-.03755.16171.02245.06384.13527.12776.26686.17666s.16171.30057.16922.44718.11657.11273.25192.0902a2.39142,2.39142,0,0,1,.8533.52262.51212.51212,0,0,0,.154.233c.0827.07526.10147.04138.16156-.05258s.19167-.18424.27436.08262a1.22971,1.22971,0,0,0,.35331.48865,1.2304,1.2304,0,0,0,.35331-.48865c.08269-.26686.21428-.17666.27436-.08262.06017.09388.079.12776.16164.05258a.51327.51327,0,0,0,.15412-.233,2.39076,2.39076,0,0,1,.85331-.52262c.13526.02245.24424.05641.25191-.0902.00743-.14661.03747-.39845.16907-.44718.13151-.0489.24432-.11282.26693-.17666s.04515-.11273-.03755-.16171c-.08269-.04874-.83061-.71021-.83061-.71021s-.7102-2.05142-.67787-2.0653c.13151.12122,2.24367,1.49314,2.24751,1.44751,0,0,.55322.19045.64041.22726a1.43756,1.43756,0,0,1,.44171.29453.76039.76039,0,0,0,.69625.056c.24873-.07559.91159-.29428,1.17714-.4093a1.22463,1.22463,0,0,0,.46416-.67037c-.01943-.01412-.27273-1.07853-.54939-1.18833l-.65444-.17461a1.00653,1.00653,0,0,0-.498.16784,4.14163,4.14163,0,0,0-.4329,1.5751c.03771.065,0,.092-.03257.092-.03241,0-.10024-.05519-.1569-.09747s-.34261-.26555-.46547-.35715c-.123-.09175-1.32988-1.4551-1.11249-1.448a7.659,7.659,0,0,0,2.25069-.73992,19.58925,19.58925,0,0,0,1.357-1.49062A13.98261,13.98261,0,0,0,27.25837,17.74792Zm-9.56694,5.26841c-.083.15526-1.20327,1.46432-1.20327,1.46432a1.13726,1.13726,0,0,1-.1244.09845.98766.98766,0,0,1-.47151.15886,6.26358,6.26358,0,0,1-.64009.00375c-.27975-.01273-.31191-.01918-.31191-.01918s-1.3387-3.40115-1.37429-3.62686a.88636.88636,0,0,1-.00947-.35886.28825.28825,0,0,1,.02678-.07077c.04832.06245,1.89257,1.95861,2.01151,1.984a15.64237,15.64237,0,0,1,2.09738.366Zm3.61469-9.6947c-.04049-.07714-.062-.11347-.062-.11347a.96683.96683,0,0,1,.26931.19274.40955.40955,0,0,1,.11322.22947.78332.78332,0,0,1-.01494.255c-.015.09641-.03428.25934-.10473.28726s-.16237.05355-.21363.0107-.06408-.0729-.032-.10074a.29655.29655,0,0,0,.16661-.26792,1.00446,1.00446,0,0,0-.12163-.49306Zm-.92081.55976a.67945.67945,0,0,0,.02489-.39119,4.59933,4.59933,0,0,1-.06571-.49363.7595.7595,0,0,1,.30392.1911.59923.59923,0,0,1,.22.414c0,.0818-.02735.41176-.02735.41176a.97451.97451,0,0,1-.3151.12955,1.07411,1.07411,0,0,1-.28343-.10465Zm-.87347-.69372a.76085.76085,0,0,1,.30383-.1911,4.53668,4.53668,0,0,1-.06579.49363.68.68,0,0,0,.025.39119.36268.36268,0,0,0,.14285.157,1.075,1.075,0,0,1-.28351.10465.97693.97693,0,0,1-.31518-.12955s-.02718-.32988-.02718-.41176A1.92246,1.92246,0,0,1,19.51184,13.18767Zm-.64572.99568c-.05135.04285-.14318.01722-.21379-.0107s-.08972-.19077-.10474-.28726a.78332.78332,0,0,1-.01494-.255.409.409,0,0,1,.11323-.22947.96685.96685,0,0,1,.2693-.19274s-.02138.03633-.062.11347a1.00248,1.00248,0,0,0-.12179.49315.29669.29669,0,0,0,.16669.26791c.03184.02776.01878.0578-.03265.10066Zm1.21673,3.88424-.00367.00188-1.40564-2.38572a3.143,3.143,0,0,0,.34653-.46955,7.44992,7.44992,0,0,0,1.06082.152,7.43426,7.43426,0,0,0,1.05943-.152,3.13745,3.13745,0,0,0,.34653.46955S20.14277,17.98065,20.08285,18.06759Z" fill="#d4ae39"/><path d="M22.10612,20.10612a1.55887,1.55887,0,0,1,.218-.995l-.59355-.694a1.86727,1.86727,0,0,1-1.64686-.03208,1.86734,1.86734,0,0,1-1.64677.03208l-.59355.694a1.55812,1.55812,0,0,1,.21787.995,9.10869,9.10869,0,0,0-.22767,1.70768,1.67625,1.67625,0,0,0,.53575.94424,3.134,3.134,0,0,0,.87715.47551,2.529,2.529,0,0,1,.63632.36833,2.35216,2.35216,0,0,1,.20082.1742,2.3757,2.3757,0,0,1,.201-.1742,2.53228,2.53228,0,0,1,.63608-.36833A3.13119,3.13119,0,0,0,21.798,22.758a1.67594,1.67594,0,0,0,.53575-.94424,9.11934,9.11934,0,0,0-.22857-1.70858Z" fill="#b86b28"/><path d="M22.049,20.169a1.769,1.769,0,0,1,.17176-1.03143L21.685,18.541a2.03212,2.03212,0,0,1-1.60277-.03543,2.0323,2.0323,0,0,1-1.6027.03543l-.53583.59657a1.76834,1.76834,0,0,1,.17191,1.03143,9.796,9.796,0,0,0-.19216,1.59755c.00171.026.00449.05257.00825.07935h.488a1.18746,1.18746,0,0,1,.22212-.21437c.05943-.02081.15-.026.17837-.05453s.21714-.56767.21714-.56767-.11894-.044-.124-.09331a3.2962,3.2962,0,0,1,.04384-.3369s-.31013.06213-.36433-.17893-.06465-.35788-.07241-.3836c-.00775-.026-.01551-.0391-.0569-.03632a.86585.86585,0,0,1-.2404-.37592c.01812-.04931.11641-.32163.11641-.34751a.88941.88941,0,0,1,.41869-.0751c.02849.03877-.00514.63771.03363.73371s.06972.20727.14212.20988.09307.00253.09307.00253a.64907.64907,0,0,1,.1422-.19184.5736.5736,0,0,1,.21192-.0493c.062-.00784.08784-.026.08784-.04155s-.23249-.05968-.235-.11666.01281-.10628-.03625-.10881a.30024.30024,0,0,1-.21445-.12188.17062.17062,0,0,1-.02841-.14253c.00515-.04408.062-.13233.09821-.04931s.05951.09331.09045.11143c.031.01829.07232.02343.05175-.03371a.28646.28646,0,0,1-.02849-.13462.07685.07685,0,0,1,.06727-.06742c.03355-.00784.13437-.039.186-.04931s.05943-.05176.12661-.07249a3.06309,3.06309,0,0,0,.31012-.0467c.06466-.031.41364.12711.45494.14262.04147.01559.09829.03885.062.08294-.03608.04416-.05682.20489-.02057.23853.03608.03371.09037.07.03608.12449a.61974.61974,0,0,1-.1498.09853s-.05436.02579.00768.06228c.062.03616-.09812.30588-.08.34735s.07494.17371.07494.17371.85028.00776.88653.02065a1.22334,1.22334,0,0,0,.37216.00531c.106-.02335.13192-.09086.11649-.127-.01551-.03633-.01306-.09069-.1991-.11673s-.261-.0156-.40841-.04417c-.14726-.02849-.37738-.10367-.41861-.28767a.26089.26089,0,0,1,.18351-.298c.07494-.03641.23771-.09339.31273-.12441a.72053.72053,0,0,1,.35666-.04155c.14465.02082.22734.05959.28424.026s.10343-.00784.09306.044a.307.307,0,0,1-.23.20743.97568.97568,0,0,1-.46514.02595c-.106-.02865-.186-.07-.25069-.04677a.12606.12606,0,0,0-.06727.19959c.07.09608.42661.12449.52212.13478.09568.01053.44972-.01551.55053.16073a.29379.29379,0,0,1-.0982.41747,3.74557,3.74557,0,0,1-.40058.09845s.03617.24376.08017.27216a.27676.27676,0,0,0,.181.04155c.07494-.00767.16539.04409.17061.11151.00506.06735.03347.5418.03347.5418a.46816.46816,0,0,1-.02318.10106c-.01812.04931-.11118.24025-.11118.24025h.5204q.00564-.04017.00833-.07935a10.33736,10.33736,0,0,0-.19592-1.60245Z" fill="#1d5f91"/><path d="M17.99347,22.09959a1.49113,1.49113,0,0,0,.63249.77951c.4449.26792.63706.23257,1.05665.50555s.39437.31853.39943.31853-.02024-.04563.39951-.31853c.4196-.27306.61168-.23763,1.05657-.50555a1.49015,1.49015,0,0,0,.63241-.77951H17.99347Z" fill="#6d8b3d"/><circle cx="19.67674" cy="19.23592" r="0.07975" fill="#b86b28"/><path d="M20.26123,21.20784a1.82351,1.82351,0,0,1,.02212-.22523s-.66833.11453-.72368.11453-.17722.15127-.22155.25478a4.77506,4.77506,0,0,0-.10939.4933h.66188A1.81271,1.81271,0,0,1,20.138,21.592a.25708.25708,0,0,1,.15094.00865c.05543.01551.14955-.20465.14955-.20465S20.2649,21.26318,20.26123,21.20784Z" fill="#1d5f91"/><path d="M21.449,21.3551c-.00857-.0382-.08841-.06073-.12131-.07453s-.10759.083-.19591.07282a1.09386,1.09386,0,0,1-.30523-.20114.51182.51182,0,0,0-.104.16824c-.00522.05551.06417.123.06931.17853a1.84185,1.84185,0,0,1-.16131.34686H20.95a1.063,1.063,0,0,1,.2596-.23233.65692.65692,0,0,1,.17518-.03641.36016.36016,0,0,0,.06588-.07453c.02776-.04326.00735-.10857-.00163-.14694Z" fill="#1d5f91"/></g></svg>