<svg xmlns="http://www.w3.org/2000/svg" viewBox="0 0 40 40"><g id="EA45_flag_china"><rect y="7" width="40" height="26" fill="#de2910"/><polygon points="8.12 13.805 10.471 12.097 7.565 12.097 6.667 9.333 5.769 12.097 2.862 12.097 5.214 13.805 4.316 16.569 6.667 14.861 9.018 16.569 8.12 13.805" fill="#ffde00"/><polygon points="13.134 9.802 13.632 10.633 13.717 9.668 14.661 9.45 13.77 9.071 13.855 8.106 13.219 8.837 12.328 8.458 12.826 9.289 12.19 10.019 13.134 9.802" fill="#ffde00"/><polygon points="15.634 12.355 15.771 13.314 16.224 12.457 17.179 12.623 16.504 11.928 16.957 11.072 16.087 11.498 15.413 10.803 15.55 11.762 14.68 12.189 15.634 12.355" fill="#ffde00"/><polygon points="16.49 16.14 17.253 15.543 16.284 15.578 15.952 14.667 15.686 15.599 14.718 15.634 15.522 16.175 15.255 17.106 16.018 16.509 16.822 17.05 16.49 16.14" fill="#ffde00"/><polygon points="13.759 18.387 13.804 17.419 13.199 18.176 12.292 17.834 12.825 18.643 12.219 19.399 13.154 19.143 13.686 19.952 13.731 18.985 14.665 18.729 13.759 18.387" fill="#ffde00"/></g></svg>