<svg xmlns="http://www.w3.org/2000/svg" viewBox="0 0 40 40"><g id="t11_1p682"><rect y="7" width="40" height="26" fill="#006c35"/><path d="M19.05824,12.9748a.87337.87337,0,0,0-.23.79,1.8805,1.8805,0,0,1,.10333.98667,1.89812,1.89812,0,0,1-.19.26833.31138.31138,0,0,1-.40166.055.43.43,0,0,1-.24-.33833,4.63681,4.63681,0,0,0-.03667-1.09.19759.19759,0,0,0-.33-.06666,2.4887,2.4887,0,0,0-.59834,1.22832c-.09241.29829-.19087.212-.26.09167-.16831-.15773-.18014-1.3911-.38334-1.18833-.32544.93014.18677,1.94907.54166,1.85.256.106.41851-.38136.52333-.915.07171-.14976.12651-.167.16333-.09-.00946.70966.05089.868.23334,1.08331a.58908.58908,0,0,0,.77.01333l.31667-.31666a.19048.19048,0,0,1,.26333-.01334c.09682.088.08439.23959.29167.345a.64063.64063,0,0,0,.63334-.13334c.11627-.19927.14447-.26775.19833-.34333.083-.11047.225-.06156.225-.02667-.01323.06161-.09666.12238-.04.23334.09869.074.12162.02645.18.01.20648-.0987.36166-.54667.36166-.54667.00914-.16708-.08592-.1544-.14667-.12-.07923.04844-.45985.19493-.55666.045-.09886-.18024-.30708-.89919-.185-.91666.06161.01145.19409.04568.215-.065.06462-.10788-.13943-.41394-.27834-.56832a.29954.29954,0,0,0-.44833-.01333.88039.88039,0,0,0-.01333.78,1.36882,1.36882,0,0,1,.25.91.365.365,0,0,1-.32833.16667c-.08725-.019-.22942-.05679-.305-.615-.05719-.42252.01433-1.0145-.165-1.29168-.04049-.10459-.07525-.20615-.13333-.19833Zm1.54837.08313c-.05571.005-.12752.41884-.095.58.025.10746.98,1.38276,1.3217,1.89669.05372.3816.19053,2.95653.14,3.815.15273.006.39743-.24661.48334-.61664.05585-.51187-.03632-2.13339-.045-2.29.39747.64954.78309,1.3377,1.16165,2.09333.138-.06559.10741-.84256.02667-.95168a23.24667,23.24667,0,0,0-1.26166-2.17c-.0358-.41058-.0747-.75834-.1-.86336-.06251-.434.17839.049.145-.20333a2.77685,2.77685,0,0,0-.6-1.125c-.09112-.12912-.08932-.15546-.23.03167a.82821.82821,0,0,0-.05834.49834,5.09963,5.09963,0,0,0-.88833-.695Zm6.29334.065a.5779.5779,0,0,0-.22.345c.01548.22873.08288.75273.08833.78335a5.88979,5.88979,0,0,0-.67-1.02334c-.10521-.068-.16877-.19793-.20334.02334a4.35916,4.35916,0,0,0-.015.58336.78461.78461,0,0,0,.175.36333c.29743.36542.60123.75424.90667,1.16.06428.82752.08142,1.58608.14666,2.415-.00924.35452-.11829.82538-.22166.87l-.64667-.52167a.23365.23365,0,0,0-.37333,0A5.15189,5.15189,0,0,0,25.21,19.35962c-.054.08563-.206.15853-.375-.00667a1.74652,1.74652,0,0,1-.23167-1.20667,1.33439,1.33439,0,0,0-.12666,1.29835A1.01844,1.01844,0,0,0,24.95,19.983a.33206.33206,0,0,0,.49333-.05334c.22482-.233.22781-.8288.33334-.94666a.1971.1971,0,0,1,.35-.08334c.08768.12606.78.49525,1.02666.32667a.819.819,0,0,0,.37667-.46,16.14387,16.14387,0,0,0,.03-2.59333c.15838.2231.3147.451.47.68165a16.90168,16.90168,0,0,1,.07667,2.12331c-.01608.13611.475-.40638.47167-.66336-.00222-.22485.00042-.42862,0-.61835.23818.3803.46874.76693.68666,1.15835.135-.07156.08876-.83616.00334-.94166-.22817-.38286-.52036-.79658-.74667-1.11669-.04473-.404-.35694-2.30925-.34-2.34166.02661-.07542.12716.00241.17667-.085a3.02839,3.02839,0,0,0-.425-1.18336c-.06042-.10971-.16969-.07175-.305.10667-.12547.1174-.07956.38525-.03167.64.12441.64928.23547,1.31051.32334,1.97-.16268-.24183-.3612-.53446-.5567-.81664a4.206,4.206,0,0,1-.03833-.84166.3024.3024,0,0,0,.09834.065c.05639.01032.10569-.085.07167-.17334-.17445-.32173-.56787-1.00911-.595-1.01333Zm2.26026.0188a2.04766,2.04766,0,0,0-.18333.83332,38.93533,38.93533,0,0,1,.45167,4.59834,1.37093,1.37093,0,0,1-.53166.89334c-.146.10886-.45674.21264-.55835.29333-.32232.18632-.32394.40059-.06333.40833a1.606,1.606,0,0,0,1.34667-.64165,2.1416,2.1416,0,0,0,.21833-.83168c.03424-1.50651-.30629-4.41817-.28833-4.45.02908-.07456.176.00746.22833-.07834.07676-.07838-.59168-1.02781-.62-1.025Zm-4.71.025a3.59226,3.59226,0,0,0-.21833,1.09833,21.74668,21.74668,0,0,1,.6,4.815c.15283.001.32953-.34962.405-.69664a37.39549,37.39549,0,0,0-.42-3.82336c-.07472-.402.29726-.05288.25667-.28667a8.37525,8.37525,0,0,0-.62331-1.10666Zm-8.72491.09a.37866.37866,0,0,0-.065.50167c.11144.05262.22262.16479.14833.22666-.31513.3366-1.13531.899-1.17664,1.00166l-.00166.00333v.005l.00166.00333.00166.00167h.00167l.00166.00166h.00166l.00167.00166a2.33476,2.33476,0,0,0,.61168.00167l.00166-.00167h.00166v-.00166a8.6328,8.6328,0,0,0,1.01334-1.02165c-.04339-.03715-.08334-.06453-.12667-.10167-.04645-.04021-.04177-.07974,0-.12a.3318.3318,0,0,0,.03333-.50666A.975.975,0,0,0,15.72533,13.25673Zm7.89334-.05166a2.34,2.34,0,0,0-.24834.83165c.21427,1.48342.28,2.78155.42,4.265a.58637.58637,0,0,1-.105.435,4.18068,4.18068,0,0,1-1.415,1.03168c-.05956.06688.1481.35194.41667.35167a1.57963,1.57963,0,0,0,1.21-.96832,1.72622,1.72622,0,0,0,.275-.74336c.03424-1.5065-.30629-3.99817-.28833-4.03.02908-.03472.12769.0008.18-.085a3.62278,3.62278,0,0,0-.445-1.08835Zm-11.9184.04533a.19732.19732,0,0,0-.14833.125c-.01038.23792.15748,1.41781.21,1.81168.01457.52751-.30462.22819-.29-.03334a2.37661,2.37661,0,0,0-.01166-1.01c-.05193-.13552-.11206-.169-.23834-.14667-.412.05063-.492.98317-.51833,1.19669-.03543.24131-.19529.41221-.30667-.03333-.09628-.32383-.15545-1.12171-.31667-.935-.04617.623-.101,1.7192.42833,1.83168.64027.06155.28659-1.08234.51834-1.29.04381-.10263.125-.10445.13167.025v.97168a.46683.46683,0,0,0,.36333.475c.16788-.013.2792-.00836.345.155q.03936.84016.08,1.68165s.38813.11153.40667-.945a9.87311,9.87311,0,0,1-.04-1.26165c.003-.11859.155-.12446.26-.06667.16734.11805.24159.26333.50166.205.39576-.109.63414-.30111.64-.605-.02311-.28878-.25741-1.05581-.24-1.10833.07112.11138.17872.10214.20334,0a.86637.86637,0,0,0-.34167-.52667c-.14-.12337-.345-.09728-.42.16a1.40075,1.40075,0,0,0,.32334.935.91662.91662,0,0,1,.08166.46667.24931.24931,0,0,1-.325-.06334s-.315-.23581-.315-.28833a1.89408,1.89408,0,0,0-.23666-1.155c-.07881-.08354-.18571-.08354-.23667,0a1.412,1.412,0,0,0,.02667.99168c.07267.21347.18413.34667.13167.34667-.04322.12062-.13335.09256-.19834-.04667a11.946,11.946,0,0,0-.32834-1.79163.14969.14969,0,0,0-.14-.07167Zm2.14.035a.31756.31756,0,0,0-.22334.39c.1609.97771.26578,1.7239.42667,2.70166.02473.1145-.07125.26543-.195.25-.2104-.14235-.26262-.43065-.62165-.41834a.69945.69945,0,0,0-.59333.55835,1.35516,1.35516,0,0,0,0,.64.52009.52009,0,0,0,.59333.14666c.15778-.06494.28759-.22042.34333-.18333h.00167v.00166c.0344.06014-.00325.5687-.74336.96166-.45483.20422-.81686.253-1.01168-.11834-.12068-.23207.00878-1.11594-.28833-.91168-.87867,2.26491,2.05856,2.58107,2.38666.09334.02125-.07019.086-.1406.13167-.12334.02.00854.0384.03576.045.08667-.06811,2.25253-2.27232,2.40693-2.64666,1.69835a2.18431,2.18431,0,0,1-.13-.76166.37967.37967,0,0,0-.09-.24333c-.08931-.06711-.26167.7232-.26167.95833.11757,1.77915,2.954,1.01472,3.415-.455a4.89707,4.89707,0,0,0,.07167-1.40331l.00333-.00166.00334-.00167.00333-.00166.01-.00167a5.27117,5.27117,0,0,0,1.64332-.28,6.16493,6.16493,0,0,0,.095-.84331,12.11,12.11,0,0,0-1.765.27833c-.08354-.63738-.16641-1.24592-.25-1.8833.10832-.00312.20764.07541.30666-.04834a3.57874,3.57874,0,0,0-.46166-1.075A1.06487,1.06487,0,0,0,13.84026,13.2854Zm3.6322,2.45c-.09542.10853-.11253.18411-.10667.40166.00543.023.18115.51157.33.855a2.65192,2.65192,0,0,1,.125,1.15168,2.83661,2.83661,0,0,1-1.1633,1.21664.60781.60781,0,0,1-.48667-.00167l-.00166-.00166a.30107.30107,0,0,1-.12833-.27667v-.00166l.00166-.00167a2.74163,2.74163,0,0,0,1.16832-1.20832,1.2366,1.2366,0,0,0,.03167-.87.82744.82744,0,0,0-.19667-.40333l.00166-.00167c.0655-.03133.23542.09385.26167.015a1.267,1.267,0,0,0-.335-.61834.28309.28309,0,0,0-.41167-.025c-.14133.07864-.17139.3611-.10333.60832.07558.1861.27964.21876.425.59333v.00167c.003.02348.04989.27959-.02333.38333a5.16893,5.16893,0,0,1-.88835.83168c-.0001,0,.03667-.48954.03335-.53332v-.00167l-.00167-.00166v-.00167h-.00161c-.25233.16288-.33564.66218-.38171.81a11.97214,11.97214,0,0,0-1.78166,1.21664c-.21755.33974,1.49888-.39012,1.69835-.47834a.87272.87272,0,0,0,1.08666.62167,2.94026,2.94026,0,0,0,1.33835-1.11333c.05187-.07547.13318-.13494.20833-.07667a2.0967,2.0967,0,0,0,1.89834.9967c.21514-.26163.11225-.39028.025-.445-.02687-.01785-.46239-.18764-.53-.35666-.04257-.15729.06094-.29679.26833-.40167a9.329,9.329,0,0,0,1.75168-.335,5.225,5.225,0,0,1,.19833-.78833l-1.905-.00833c-.02353-.00906-.02815-.08432,0-.095.45489-.062,1.263-.19445,1.31669-.97168a.63816.63816,0,1,0-1.25333.02667c-.01747.10466.03542.31006-.07167.33333a3.26905,3.26905,0,0,0-1.5.82l-.005.00166h-.01l-.00667-.00166a.18262.18262,0,0,1-.095-.19333,3.75689,3.75689,0,0,0-.48-1.63.87257.87257,0,0,0-.18166-.14333A1.14508,1.14508,0,0,1,17.47246,15.73541Zm1.129,2.2018c.00629-.00043.01182,0,.01834,0h.00333a5.90262,5.90262,0,0,0,.79669.09167c.22121.014.33052.18721.12334.26-.20439.07-.40076.12466-.40167.42a.40718.40718,0,0,1-.00166.25833l-.00667.00834-.00166.00166-.00166.00167-.00167.00166-.00166.00166-.00333.00167-.01.005-.01.00166c-.04859.00713-.11915-.03921-.17167-.06667a1.08015,1.08015,0,0,1-.53-.78.198.198,0,0,1,.2-.20666Zm-5.92355,7.47846a1.96933,1.96933,0,0,0,1.81168.74666c1.48277,0,8.35306-.01833,10.30826-.01833a.68508.68508,0,0,0,.12167.71669c.00231.00149.21307-.05318.25666-.12167a13.39663,13.39663,0,0,0,1.5-.00167c.00037-.00016.14744.20775.28667.19.87055-.11531.41675-1.41611-.13669-1.36331C26.69525,25.58383,12.71532,25.41567,12.67794,25.41567Zm12.48835.78H25.168c.487.02376.94464.00457,1.43168.02834a.17633.17633,0,0,1-.01167.24333c-.00225.00112-1.2262-.01043-1.44-.01834-.06272-.07808-.0554-.21938.01833-.25333Z" fill="#fff"/></g></svg>