<svg xmlns="http://www.w3.org/2000/svg" viewBox="0 0 40 40"><g id="t11_1p226"><rect y="7" width="40" height="26" fill="#e32118"/><rect y="7" width="40" height="17.33333" fill="#fff"/><rect y="7" width="40" height="8.66667" fill="#3e9a00"/><path d="M0,7V33L10,20Z" fill="#0073ce"/><path d="M17.86667,17.32h4.25555v4.45778c0,1.5-1.95555.34444-2.12222,1.14444-.28889-.82222-2.12222.36667-2.12222-1.23333C17.87778,20.13333,17.86667,17.32,17.86667,17.32Z" fill="#fff" stroke="#000" stroke-width="0.16"/><path d="M20.3,22.21111a.138.138,0,0,1-.15556.01111,27.73562,27.73562,0,0,1-.11111-2.85555,1.34908,1.34908,0,0,1,.4-.32223l.13334.11112c-.5.25555-.45556.62222-.41111,1.25555a5.68965,5.68965,0,0,0,.06666.82222c.07778.36667.23334.67778.24445.91111C20.47778,22.28889,20.3,22.21111,20.3,22.21111Z" fill="#73452b"/><path d="M19.95556,18.97778h.2a17.85852,17.85852,0,0,0-.02223,3.03333.30545.30545,0,0,0,.07778.21111c-.2.22222-.3-.01111-.3-.01111Z" fill="#73452b"/><path d="M19.64444,22.21111c-.18888.08889-.21111-.08889-.2-.11111.41112-.83333.58889-2.66667.21112-2.86667l.02222-.17777a.69643.69643,0,0,1,.27778.23333,18.83191,18.83191,0,0,1-.03334,2.93333c-.2.21111-.27778-.03333-.28889-.05555" fill="#a36728"/><path d="M20.61111,18.22222c.06667-.07778.06667-.07778.18889-.07778.02222-.16666.3-.16666.32222.04445.22222-.04445.26667.08889.17778.22222.21111-.05555.4,0,.34444.24445.37778.1.23334.36666.06667.42222-.02222.16666-.17778.22222-.38889.15555-.26666.18889-.42222.12223-.54444-.06666-.3.04444-.32222-.02223-.45556-.18889-.23333.1-.27778.1-.47778-.02222-.01111.15555-.06666.11111-.16666.1.01111.2-.06667.28888-.24445.22222.13334.27778-.21111.4-.37777.16666-.15556.01112-.16667-.03333-.24445-.08888a.19174.19174,0,0,1-.35555.06666c-.31112-.04444-.27778-.21111-.02223-.22222.02223-.17778.17778-.14444.27778-.12222.01111-.11111.07778-.08889.13333-.06667-.03333-.07778-.01111-.12222.08889-.14444-.14444-.18889-.05555-.25556.08889-.32223-.07778-.17777.05556-.16666.15556-.17777-.01111-.18889.04444-.22223.24444-.24445C19.4,18.05556,19.43333,18,19.54444,18c-.06666-.18889.02223-.23222.22223-.2.03333-.27444.62222-.14444.57777.23333C20.51111,18.05556,20.56667,18.08889,20.61111,18.22222Z" fill="#00993a"/><path d="M19.85556,16.69556l-.24445.01111-.12222.21889-.13333-.20889-.24445.01.11111-.22-.13333-.20889.25555-.01111.11112-.21889.13333.20889.24444-.01-.11111.22Z" fill="#ffd600"/><path d="M18.81111,16.77667l-.24444.06L18.5,17.07333l-.17778-.17777-.23333.05777.06667-.23666-.16667-.18.23333-.05889.06667-.23778.17778.17778.24444-.05778-.07778.23778Z" fill="#ffd600"/><path d="M17.8,16.98444l-.22222.11-.01111.24667-.21111-.13555-.22223.10888.02223-.24666-.21112-.13667.22223-.11111.02222-.24667.2.13556L17.61111,16.6,17.6,16.84667Z" fill="#ffd600"/><path d="M20.17778,16.69556l.24444.01111.11111.21889.13334-.20889.24444.01-.11111-.22.13333-.20889-.24444-.01111-.12222-.21889-.13334.20889-.24444-.01.11111.22Z" fill="#ffd600"/><path d="M21.22222,16.77667l.23334.06.06666.23666L21.7,16.89556l.23333.05777-.06666-.23666.17777-.18L21.8,16.47778,21.73333,16.24l-.17777.17778L21.32222,16.36l.06667.23778Z" fill="#ffd600"/><path d="M22.22222,16.98444l.22222.11.01112.24667.21111-.13555.22222.10888-.01111-.24666.2-.13667L22.85556,16.82l-.01112-.24667-.21111.13556L22.41111,16.6l.02222.24667Z" fill="#ffd600"/><path d="M22.52222,21.68889l.27778.4.25556-.37778-.17778-.32222Z" fill="#fff" stroke="#000" stroke-width="0.11667"/><path d="M20.75556,22.85556l.02222.4a.76578.76578,0,0,0,.21111-.03334.643.643,0,0,0,.16667-.1l-.01112-.21111Z" fill="#fff" stroke="#000" stroke-width="0.11667"/><path d="M19.26667,22.85556l-.02223.38888a1.04906,1.04906,0,0,1-.2-.02222.56341.56341,0,0,1-.16666-.07778l-.11111-.26666Z" fill="#fff" stroke="#000" stroke-width="0.11667"/><path d="M17.47778,21.68889l-.28889.4-.31111-.51111.23333-.24445Z" fill="#fff" stroke="#000" stroke-width="0.11667"/><path d="M18.86667,23.65556c0,.37777,2.28889.37777,2.28889,0v-.53334c0,.27778-2.28889.22222-2.28889,0Z" fill="#fff" stroke="#000" stroke-width="0.11667"/><path d="M16.82222,22.42222c.2,1.02222,2.04445,1.04445,2.04445,1.04445v-.34445c-.04445-.13333.03333-.17778.33333-.22222.12222-.01111.06667-.18889.06667-.18889A3.00581,3.00581,0,0,1,17.9,22.63333a1.36089,1.36089,0,0,1-.87778-.91111A2.2036,2.2036,0,0,1,16.82222,22.42222Z" fill="#fff" stroke="#000" stroke-width="0.11667"/><path d="M23.18889,22.42222C23,23.44444,21.15556,23.46667,21.15556,23.46667v-.34445c.03333-.13333-.04445-.17778-.34445-.22222-.12222-.01111-.05555-.18889-.05555-.18889a3.00577,3.00577,0,0,0,1.36666-.07778,1.29459,1.29459,0,0,0,.84445-.91111A2.497,2.497,0,0,0,23.18889,22.42222Z" fill="#fff" stroke="#000" stroke-width="0.11667"/><path d="M16.96667,22.03333c-.51111-.27777-.11111-.56666-.06667-1.38889.07778.5.64444.71112.57778,1.03334-.23334.01111-.34445-.34445-.45556.04444Z" fill="#fff" stroke="#000" stroke-width="0.11667"/><path d="M23.04444,22.03333c.51112-.28889.08889-.56666.04445-1.38889-.07778.5-.63333.71112-.56667,1.03334.22222.01111.33334-.34445.44445.04444l.07777.3Z" fill="#fff" stroke="#000" stroke-width="0.11667"/><path d="M17.27778,22.41111l.05555.04445-.12222.13333c-.04892.05337-.06075.08867-.02677.12117.04218.04032.07183.02631.11566-.02117l.13333-.14445.04445.04445-.13322.15543a.11948.11948,0,0,1-.19575.01248.12459.12459,0,0,1-.005-.19393l.13444-.15111Z"/><path d="M17.5,22.6l.05556.03333L17.54444,22.9l.12223-.18889.05555.03333-.17778.28889L17.47778,23l.01111-.26667-.12222.18889-.05556-.03333Z"/><path d="M17.6,23.06667l.15556-.31111.05555.03333-.14444.3Z"/><path d="M17.84444,22.8l-.12266.322.12266.04467c.11434.04166.168-.00867.20434-.10534a.14632.14632,0,0,0-.09367-.21666Zm.044.078c.115.04.122.08367.09067.16267-.03033.075-.05867.10433-.168.048Z"/><path d="M18.21111,22.92222l-.2.3.07733.02267.04467-.078.13333.03333.01134.078.07733.01067-.07733-.35533Zm.022.078.022.13334-.08867-.01134Z"/><path d="M18.40111,22.95111l-.012.34433.1308.00257c.12157.0023.15612-.06245.15909-.16567.003-.105-.03565-.16838-.15887-.17462l-.119-.00661Zm.0667.05975c.12182.00048.14264.03937.13836.12438-.00406.08081-.02172.11765-.14315.09966l.00478-.224Z"/><path d="M19.56667,23.43333v.35534h.078v-.13334a.45217.45217,0,0,0,.122-.01066.09688.09688,0,0,0,.075-.10834.09373.09373,0,0,0-.10634-.103h-.16866Zm.078.05534.07833.001c.06533,0,.053.099.002.099h-.08033v-.1Z"/><path d="M19.96667,23.43333l-.14467.35534H19.9L19.93333,23.7H20.078l.03333.08867h.07734l-.14445-.35556h-.07778Zm.03333.078.05533.13334h-.1Z"/><path d="M20.18889,23.72222l.18889-.23333h-.16667v-.05556h.26667v.05556l-.2.23333h.2v.06667h-.28889Z"/><path d="M21.31111,23.03333l.06667-.01111.03333.2a.11574.11574,0,0,1-.07127.13828A.09886.09886,0,0,1,21.2,23.26667l.05556-.01111c.01294.05724.036.0622.06263.05323.02115-.00712.03209-.04045.02626-.07546Z"/><path d="M21.42222,23.01333l.06579-.01247.03044.16643c.013.07122.03536.1015.08167.09342.05749-.01.06379-.04223.05156-.10567l-.04089-.17756.0673-.01016.04465.1847a.11913.11913,0,0,1-.10606.165.1246.1246,0,0,1-.15913-.111Z"/><path d="M21.76667,23.16667l.05555-.02223a.07321.07321,0,0,0,.10283.03182c.04593-.0203.05118-.06045.02848-.074-.03239-.01938-.10966.00814-.15128-.007-.0498-.01817-.07118-.04618-.06864-.08924.00307-.05185.04868-.08035.09829-.09573a.11048.11048,0,0,1,.14588.05646l-.06667.02222a.05153.05153,0,0,0-.0744-.02309c-.02075.0098-.05316.0282-.03581.05784.01419.02423.09585.0085.13887.01026a.08766.08766,0,0,1,.08645.07429c.00839.05965-.01371.092-.08267.11886a.12678.12678,0,0,1-.17688-.06038Z"/><path d="M22.06667,22.88889l-.08889.04444-.02222-.05555.24444-.1.02222.04444-.08889.04445.1.24444-.05555.03333Z"/><path d="M22.21111,22.76667l.05556-.03334.15555.28889-.05555.03334Z"/><path d="M22.58889,22.78889l.06667-.02222a.13556.13556,0,0,1-.13084.18325.18561.18561,0,0,1-.16023-.2504.13928.13928,0,0,1,.2244-.044L22.53333,22.7a.07082.07082,0,0,0-.11875.02486.15247.15247,0,0,0,.0819.16092c.05143.02539.13068-.03844.0924-.09689Z"/><path d="M22.55556,22.55556l.05555-.04445.2.26667-.05555.04444Z"/><path d="M22.76667,22.38889l-.05534.04467.122.33333.05534-.05533-.03334-.06667.1-.08933.06667.03333.056-.044Zm.022.078.11133.05533-.06667.06667Z"/></g></svg>