<svg xmlns="http://www.w3.org/2000/svg" viewBox="0 0 40 40"><g id="EA45_flag_newcaledonia"><rect y="7" width="40" height="26" fill="#009543"/><rect y="7" width="40" height="17.33333" fill="#ed4135"/><rect y="7" width="40" height="8.66667" fill="#0035ad"/><circle cx="14.86726" cy="20" r="8.70088" fill="#fae600" stroke="#000" stroke-width="0.29499"/><path d="M13.39233,21.29794h2.94985M13.39233,19.115h2.94985m-1.47492-7.78761V26.19469" stroke="#000" stroke-width="0.35398"/><path d="M11.364,27.98932a9.89065,9.89065,0,0,0,6.87953.08909s-1.25646-1.35977-1.90053-1.89068a3.36229,3.36229,0,0,0-3.10826,0C12.70826,26.603,11.19817,28.13286,11.364,27.98932Z"/><ellipse cx="14.86726" cy="24.0118" rx="0.97345" ry="1.41593"/><ellipse cx="14.86726" cy="20.20649" rx="1.17994" ry="0.7469"/><circle cx="14.86726" cy="16.75516" r="1.17994"/><path d="M16.28319,12.35988c-.00036-.00079.10224.16937-.11287.5567a3.83008,3.83008,0,0,1-2.25557,2.051c-.21581.17569-.3069.16366-.3069.16366.01539-.15858.02973-.807.041-.8695.15605-.86507,1.46289-.85316,2.48566-1.739.15977-.13837.14832-.16365.14832-.16365Z"/><path d="M14.86725,18.76105c.69733,0,1.71472-.02973,1.7699-1.09143a5.5087,5.5087,0,0,1,.2655-1.32746,6.67416,6.67416,0,0,0-.67847.97345,1.289,1.289,0,0,1-1.35693.85547,1.289,1.289,0,0,1-1.35694-.85547,6.67438,6.67438,0,0,0-.67846-.97345,5.5087,5.5087,0,0,1,.2655,1.32746C13.15253,18.73132,14.16992,18.76105,14.86725,18.76105Z"/><path d="M16.58484,22.67627c-.05682-.60815-.595-1.02435-1.71759-1.02435s-1.66077.4162-1.71759,1.02435a17.87375,17.87375,0,0,1-.34729,2.22046,6.53039,6.53039,0,0,0,.806-1.53241,1.3371,1.3371,0,0,1,2.51776,0,6.52921,6.52921,0,0,0,.806,1.53241A17.87375,17.87375,0,0,1,16.58484,22.67627Z"/></g></svg>