<svg xmlns="http://www.w3.org/2000/svg" viewBox="0 0 40 40"><g id="EA45_flag_macao"><rect y="7" width="40" height="26" fill="#00785e"/><polygon points="20.532 13.333 21.394 12.707 20.329 12.707 20 11.694 19.671 12.707 18.606 12.707 19.468 13.333 19.139 14.345 20 13.719 20.861 14.345 20.532 13.333" fill="#fbd116"/><path d="M20,25.0903H14.30685q-.10764-.10909-.2114-.22224H20a.1175.1175,0,0,1,0,.22224Zm0-1.74091a.72.72,0,0,0,.06818-.41945A.68832.68832,0,0,0,20,22.7183a4.552,4.552,0,0,1-1.80515,1.05461,4.50223,4.50223,0,0,1-1.30594.1923h-3.5074q.1551.22791.32509.44443h3.39061A4.48732,4.48732,0,0,0,20,23.34939Zm-6.08855-1.37194a1.79347,1.79347,0,0,1-.5386.11673A4.50389,4.50389,0,0,0,20,22.23218a24.497,24.497,0,0,0,.25254-3.2726A24.4943,24.4943,0,0,0,20,15.20006a4.69734,4.69734,0,0,0-1.37636,2.126,4.51273,4.51273,0,0,0,.57424,3.78982,4.50637,4.50637,0,0,1-.50909-4.681,1.805,1.805,0,0,1-.41842-.72134,4.50562,4.50562,0,0,0,.299,4.89412,5.28246,5.28246,0,0,0-3.83334-1.64236c-.081,0-.16164.00206-.24176.00564a1.81342,1.81342,0,0,1,.375.49436,5.28238,5.28238,0,0,1,3.816,1.63327,5.3004,5.3004,0,0,0-5.42963-.82466,4.51059,4.51059,0,0,0,4.2166,2.91363c.12479,0,.24849-.00563.37067-.01563a4.51176,4.51176,0,0,1-3.93152-1.19443ZM20,26.9097H17.04946A7.97117,7.97117,0,0,0,20,27.47218a.60394.60394,0,0,0,0-.56248Zm0-1.36109H14.79818q.21109.1809.43449.34721H20a.24842.24842,0,0,0,0-.34721Zm0,.69442H15.73915a7.9786,7.9786,0,0,0,.80255.44443H20a.41471.41471,0,0,0,0-.44443Z" fill="#fff"/><polygon points="14.63 16.968 15.274 16.611 14.543 16.521 14.402 15.798 14.091 16.466 13.36 16.376 13.899 16.878 13.588 17.546 14.232 17.189 14.771 17.691 14.63 16.968" fill="#fbd116"/><polygon points="16.602 14.618 17.338 14.631 16.75 14.188 16.99 13.491 16.386 13.914 15.798 13.471 16.013 14.175 15.41 14.598 16.146 14.61 16.362 15.315 16.602 14.618" fill="#fbd116"/><path d="M20,25.0903h5.69315q.10764-.10909.2114-.22224H20a.1175.1175,0,0,0,0,.22224Zm0-1.74091a.72.72,0,0,1-.06818-.41945A.68832.68832,0,0,1,20,22.7183a4.552,4.552,0,0,0,1.80515,1.05461,4.50223,4.50223,0,0,0,1.30594.1923h3.5074q-.1551.22791-.32509.44443H22.90279A4.48732,4.48732,0,0,1,20,23.34939Zm6.08855-1.37194a1.79347,1.79347,0,0,0,.5386.11673A4.50389,4.50389,0,0,1,20,22.23218a24.4868,24.4868,0,0,1,0-7.03212,4.69734,4.69734,0,0,1,1.37636,2.126,4.51273,4.51273,0,0,1-.57424,3.78982,4.50637,4.50637,0,0,0,.50909-4.681,1.805,1.805,0,0,0,.41842-.72134,4.50562,4.50562,0,0,1-.299,4.89412,5.28246,5.28246,0,0,1,3.83334-1.64236c.081,0,.16164.00206.24176.00564a1.81342,1.81342,0,0,0-.375.49436,5.28238,5.28238,0,0,0-3.816,1.63327,5.3004,5.3004,0,0,1,5.42963-.82466,4.51059,4.51059,0,0,1-4.2166,2.91363c-.12479,0-.24849-.00563-.37067-.01563a4.51176,4.51176,0,0,0,3.93152-1.19443ZM20,26.9097h2.95054A7.97117,7.97117,0,0,1,20,27.47218a.60394.60394,0,0,1,0-.56248Zm0-1.36109h5.20182q-.2111.1809-.43449.34721H20a.24842.24842,0,0,1,0-.34721Zm0,.69442h4.26085a7.9786,7.9786,0,0,1-.80255.44443H20a.41471.41471,0,0,1,0-.44443Z" fill="#fff"/><polygon points="26.101 16.878 26.64 16.376 25.909 16.466 25.598 15.798 25.457 16.521 24.726 16.611 25.37 16.968 25.229 17.691 25.768 17.189 26.412 17.546 26.101 16.878" fill="#fbd116"/><polygon points="23.854 14.61 24.59 14.598 23.987 14.175 24.202 13.471 23.614 13.914 23.01 13.491 23.25 14.188 22.662 14.631 23.398 14.618 23.638 15.315 23.854 14.61" fill="#fbd116"/></g></svg>