<svg xmlns="http://www.w3.org/2000/svg" viewBox="0 0 40 40"><g id="EA45_flag_usa"><rect x="0.00006" y="7" width="39.99994" height="26" fill="#b22234"/><rect y="17.00055" width="40" height="1.99963" fill="#fff"/><rect y="13.00006" width="40" height="1.99963" fill="#fff"/><rect y="9.00073" width="40" height="1.99963" fill="#fff"/><rect y="28.99957" width="40" height="1.99963" fill="#fff"/><rect y="20.99982" width="40" height="1.99963" fill="#fff"/><rect y="25.00031" width="40" height="1.99963" fill="#fff"/><rect x="0.00004" y="7" width="19.76" height="14" fill="#3c3b6e"/><polygon points="1.647 7.6 1.467 8.153 0.886 8.153 1.356 8.494 1.176 9.047 1.647 8.706 2.117 9.047 1.937 8.494 2.408 8.153 1.826 8.153 1.647 7.6" fill="#fff"/><polygon points="1.647 10.4 1.467 10.953 0.886 10.953 1.356 11.294 1.176 11.847 1.647 11.506 2.117 11.847 1.937 11.294 2.408 10.953 1.826 10.953 1.647 10.4" fill="#fff"/><polygon points="1.647 13.2 1.467 13.753 0.886 13.753 1.356 14.094 1.176 14.647 1.647 14.306 2.117 14.647 1.937 14.094 2.408 13.753 1.826 13.753 1.647 13.2" fill="#fff"/><polygon points="1.647 16 1.467 16.553 0.886 16.553 1.356 16.894 1.176 17.447 1.647 17.106 2.117 17.447 1.937 16.894 2.408 16.553 1.826 16.553 1.647 16" fill="#fff"/><polygon points="1.826 19.353 1.647 18.8 1.467 19.353 0.886 19.353 1.356 19.694 1.176 20.247 1.647 19.906 2.117 20.247 1.937 19.694 2.408 19.353 1.826 19.353" fill="#fff"/><polygon points="3.293 9 3.114 9.553 2.533 9.553 3.003 9.894 2.823 10.447 3.293 10.106 3.764 10.447 3.584 9.894 4.054 9.553 3.473 9.553 3.293 9" fill="#fff"/><polygon points="3.293 11.8 3.114 12.353 2.533 12.353 3.003 12.694 2.823 13.247 3.293 12.906 3.764 13.247 3.584 12.694 4.054 12.353 3.473 12.353 3.293 11.8" fill="#fff"/><polygon points="3.293 14.6 3.114 15.153 2.533 15.153 3.003 15.494 2.823 16.047 3.293 15.706 3.764 16.047 3.584 15.494 4.054 15.153 3.473 15.153 3.293 14.6" fill="#fff"/><polygon points="3.473 17.953 3.293 17.4 3.114 17.953 2.533 17.953 3.003 18.294 2.823 18.847 3.293 18.506 3.764 18.847 3.584 18.294 4.054 17.953 3.473 17.953" fill="#fff"/><polygon points="4.94 7.6 4.76 8.153 4.179 8.153 4.649 8.494 4.47 9.047 4.94 8.706 5.41 9.047 5.231 8.494 5.701 8.153 5.12 8.153 4.94 7.6" fill="#fff"/><polygon points="4.94 10.4 4.76 10.953 4.179 10.953 4.649 11.294 4.47 11.847 4.94 11.506 5.41 11.847 5.231 11.294 5.701 10.953 5.12 10.953 4.94 10.4" fill="#fff"/><polygon points="4.94 13.2 4.76 13.753 4.179 13.753 4.649 14.094 4.47 14.647 4.94 14.306 5.41 14.647 5.231 14.094 5.701 13.753 5.12 13.753 4.94 13.2" fill="#fff"/><polygon points="4.94 16 4.76 16.553 4.179 16.553 4.649 16.894 4.47 17.447 4.94 17.106 5.41 17.447 5.231 16.894 5.701 16.553 5.12 16.553 4.94 16" fill="#fff"/><polygon points="5.12 19.353 4.94 18.8 4.76 19.353 4.179 19.353 4.649 19.694 4.47 20.247 4.94 19.906 5.41 20.247 5.231 19.694 5.701 19.353 5.12 19.353" fill="#fff"/><polygon points="6.587 9 6.407 9.553 5.826 9.553 6.296 9.894 6.116 10.447 6.587 10.106 7.057 10.447 6.877 9.894 7.348 9.553 6.766 9.553 6.587 9" fill="#fff"/><polygon points="6.587 11.8 6.407 12.353 5.826 12.353 6.296 12.694 6.116 13.247 6.587 12.906 7.057 13.247 6.877 12.694 7.348 12.353 6.766 12.353 6.587 11.8" fill="#fff"/><polygon points="6.587 14.6 6.407 15.153 5.826 15.153 6.296 15.494 6.116 16.047 6.587 15.706 7.057 16.047 6.877 15.494 7.348 15.153 6.766 15.153 6.587 14.6" fill="#fff"/><polygon points="6.766 17.953 6.587 17.4 6.407 17.953 5.826 17.953 6.296 18.294 6.116 18.847 6.587 18.506 7.057 18.847 6.877 18.294 7.348 17.953 6.766 17.953" fill="#fff"/><polygon points="8.233 7.6 8.054 8.153 7.473 8.153 7.943 8.494 7.763 9.047 8.233 8.706 8.704 9.047 8.524 8.494 8.994 8.153 8.413 8.153 8.233 7.6" fill="#fff"/><polygon points="8.233 10.4 8.054 10.953 7.473 10.953 7.943 11.294 7.763 11.847 8.233 11.506 8.704 11.847 8.524 11.294 8.994 10.953 8.413 10.953 8.233 10.4" fill="#fff"/><polygon points="8.233 13.2 8.054 13.753 7.473 13.753 7.943 14.094 7.763 14.647 8.233 14.306 8.704 14.647 8.524 14.094 8.994 13.753 8.413 13.753 8.233 13.2" fill="#fff"/><polygon points="8.233 16 8.054 16.553 7.473 16.553 7.943 16.894 7.763 17.447 8.233 17.106 8.704 17.447 8.524 16.894 8.994 16.553 8.413 16.553 8.233 16" fill="#fff"/><polygon points="8.413 19.353 8.233 18.8 8.054 19.353 7.473 19.353 7.943 19.694 7.763 20.247 8.233 19.906 8.704 20.247 8.524 19.694 8.994 19.353 8.413 19.353" fill="#fff"/><polygon points="9.88 9 9.7 9.553 9.119 9.553 9.589 9.894 9.41 10.447 9.88 10.106 10.35 10.447 10.171 9.894 10.641 9.553 10.06 9.553 9.88 9" fill="#fff"/><polygon points="9.88 11.8 9.7 12.353 9.119 12.353 9.589 12.694 9.41 13.247 9.88 12.906 10.35 13.247 10.171 12.694 10.641 12.353 10.06 12.353 9.88 11.8" fill="#fff"/><polygon points="9.88 14.6 9.7 15.153 9.119 15.153 9.589 15.494 9.41 16.047 9.88 15.706 10.35 16.047 10.171 15.494 10.641 15.153 10.06 15.153 9.88 14.6" fill="#fff"/><polygon points="10.06 17.953 9.88 17.4 9.7 17.953 9.119 17.953 9.589 18.294 9.41 18.847 9.88 18.506 10.35 18.847 10.171 18.294 10.641 17.953 10.06 17.953" fill="#fff"/><polygon points="11.527 7.6 11.347 8.153 10.766 8.153 11.236 8.494 11.056 9.047 11.527 8.706 11.997 9.047 11.817 8.494 12.288 8.153 11.706 8.153 11.527 7.6" fill="#fff"/><polygon points="11.527 10.4 11.347 10.953 10.766 10.953 11.236 11.294 11.056 11.847 11.527 11.506 11.997 11.847 11.817 11.294 12.288 10.953 11.706 10.953 11.527 10.4" fill="#fff"/><polygon points="11.527 13.2 11.347 13.753 10.766 13.753 11.236 14.094 11.056 14.647 11.527 14.306 11.997 14.647 11.817 14.094 12.288 13.753 11.706 13.753 11.527 13.2" fill="#fff"/><polygon points="11.527 16 11.347 16.553 10.766 16.553 11.236 16.894 11.056 17.447 11.527 17.106 11.997 17.447 11.817 16.894 12.288 16.553 11.706 16.553 11.527 16" fill="#fff"/><polygon points="11.706 19.353 11.527 18.8 11.347 19.353 10.766 19.353 11.236 19.694 11.056 20.247 11.527 19.906 11.997 20.247 11.817 19.694 12.288 19.353 11.706 19.353" fill="#fff"/><polygon points="13.173 9 12.994 9.553 12.413 9.553 12.883 9.894 12.703 10.447 13.173 10.106 13.644 10.447 13.464 9.894 13.934 9.553 13.353 9.553 13.173 9" fill="#fff"/><polygon points="13.173 11.8 12.994 12.353 12.413 12.353 12.883 12.694 12.703 13.247 13.173 12.906 13.644 13.247 13.464 12.694 13.934 12.353 13.353 12.353 13.173 11.8" fill="#fff"/><polygon points="13.173 14.6 12.994 15.153 12.413 15.153 12.883 15.494 12.703 16.047 13.173 15.706 13.644 16.047 13.464 15.494 13.934 15.153 13.353 15.153 13.173 14.6" fill="#fff"/><polygon points="13.353 17.953 13.173 17.4 12.994 17.953 12.413 17.953 12.883 18.294 12.703 18.847 13.173 18.506 13.644 18.847 13.464 18.294 13.934 17.953 13.353 17.953" fill="#fff"/><polygon points="14.82 7.6 14.64 8.153 14.059 8.153 14.529 8.494 14.35 9.047 14.82 8.706 15.29 9.047 15.111 8.494 15.581 8.153 15 8.153 14.82 7.6" fill="#fff"/><polygon points="14.82 10.4 14.64 10.953 14.059 10.953 14.529 11.294 14.35 11.847 14.82 11.506 15.29 11.847 15.111 11.294 15.581 10.953 15 10.953 14.82 10.4" fill="#fff"/><polygon points="14.82 13.2 14.64 13.753 14.059 13.753 14.529 14.094 14.35 14.647 14.82 14.306 15.29 14.647 15.111 14.094 15.581 13.753 15 13.753 14.82 13.2" fill="#fff"/><polygon points="14.82 16 14.64 16.553 14.059 16.553 14.529 16.894 14.35 17.447 14.82 17.106 15.29 17.447 15.111 16.894 15.581 16.553 15 16.553 14.82 16" fill="#fff"/><polygon points="15 19.353 14.82 18.8 14.64 19.353 14.059 19.353 14.529 19.694 14.35 20.247 14.82 19.906 15.29 20.247 15.111 19.694 15.581 19.353 15 19.353" fill="#fff"/><polygon points="16.467 9 16.287 9.553 15.706 9.553 16.176 9.894 15.996 10.447 16.467 10.106 16.937 10.447 16.757 9.894 17.228 9.553 16.646 9.553 16.467 9" fill="#fff"/><polygon points="16.467 11.8 16.287 12.353 15.706 12.353 16.176 12.694 15.996 13.247 16.467 12.906 16.937 13.247 16.757 12.694 17.228 12.353 16.646 12.353 16.467 11.8" fill="#fff"/><polygon points="16.467 14.6 16.287 15.153 15.706 15.153 16.176 15.494 15.996 16.047 16.467 15.706 16.937 16.047 16.757 15.494 17.228 15.153 16.646 15.153 16.467 14.6" fill="#fff"/><polygon points="16.646 17.953 16.467 17.4 16.287 17.953 15.706 17.953 16.176 18.294 15.996 18.847 16.467 18.506 16.937 18.847 16.757 18.294 17.228 17.953 16.646 17.953" fill="#fff"/><polygon points="17.823 8.494 17.643 9.047 18.113 8.706 18.584 9.047 18.404 8.494 18.874 8.153 18.293 8.153 18.113 7.6 17.934 8.153 17.353 8.153 17.823 8.494" fill="#fff"/><polygon points="18.113 10.4 17.934 10.953 17.353 10.953 17.823 11.294 17.643 11.847 18.113 11.506 18.584 11.847 18.404 11.294 18.874 10.953 18.293 10.953 18.113 10.4" fill="#fff"/><polygon points="18.113 13.2 17.934 13.753 17.353 13.753 17.823 14.094 17.643 14.647 18.113 14.306 18.584 14.647 18.404 14.094 18.874 13.753 18.293 13.753 18.113 13.2" fill="#fff"/><polygon points="18.113 16 17.934 16.553 17.353 16.553 17.823 16.894 17.643 17.447 18.113 17.106 18.584 17.447 18.404 16.894 18.874 16.553 18.293 16.553 18.113 16" fill="#fff"/><polygon points="18.293 19.353 18.113 18.8 17.934 19.353 17.353 19.353 17.823 19.694 17.643 20.247 18.113 19.906 18.584 20.247 18.404 19.694 18.874 19.353 18.293 19.353" fill="#fff"/></g></svg>