<svg xmlns="http://www.w3.org/2000/svg" viewBox="0 0 40 40"><g id="t11_1p674"><rect y="7" width="40" height="26" fill="#5eb6e4"/><rect y="7" width="40" height="13" fill="#fff"/><path d="M22.74286,12.3313c-.50214-.28143-1.5235.00915-2.207-.57269a1.17576,1.17576,0,0,1-.05737-.37842c0-.22516-.1222-.32-.28663-.32H19.8161c-.16443,0-.28662.09485-.28662.32a1.17528,1.17528,0,0,1-.05743.37848c-.68341.58185-1.70478.2912-2.207.57263-.7331.4107-.25031,1.23706.08953,1.69592l.61853.9292s.03711.33209.03724.408V15.365c.00067.29059.892.526,1.99078.52588s1.98907-.2359,1.98846-.52649v-.00073c-.00012-.077.04523-.40723.04523-.40723l.61841-.9292C22.9931,13.56842,23.476,12.742,22.74286,12.3313Zm-3.189,1.0387-1.33862.33709c-.12652-.10168-.74-.67413-.61517-.90234.22308-.40814,1.38421-.047,1.95593-.81806C19.52032,12.08459,19.58582,13.24182,19.55389,13.37Zm2.23877.33709L20.4541,13.37c-.03192-.12818.02515-1.29346-.01123-1.39423.56854.78662,1.74072.41876,1.965.829C22.53961,13.04565,21.898,13.6225,21.79266,13.70709Z" fill="#f0be2f" stroke="#1d1d1b" stroke-width="0.1"/><path d="M19.9396,16.37455c.67707-.01184,3.5909-.50041,3.5909,3.54625a6.15425,6.15425,0,0,1-3.528,5.4024,6.23342,6.23342,0,0,1-3.52814-5.6956,2.973,2.973,0,0,1,3.46527-3.253Z" fill="#9fceea"/><path d="M21.08405,22.4193a1.43406,1.43406,0,0,1,1.74216.27086,6.62228,6.62228,0,0,1-2.82368,2.633,6.32537,6.32537,0,0,1-2.78317-2.64163,1.4339,1.4339,0,0,1,1.80768-.21821,1.43348,1.43348,0,0,1,2.057-.044Z" fill="#94ba79" stroke="#1d1d1b" stroke-miterlimit="10" stroke-width="0.1"/><path d="M18.8316,22.35858l-.18109-.69739h-.00006v-1.3905l.18109-.25189v-.49207l-.61218-.18316H18.2193l-.61218.257v.47918l.18939.2284L17.801,21.6853l-.19384.70795a1.422,1.422,0,0,1,.6101-.155v.00006A1.61308,1.61308,0,0,1,18.8316,22.35858Z" fill="#fff" stroke="#1d1d1b" stroke-miterlimit="10" stroke-width="0.1"/><path d="M20.57513,19.777v-.49054l-.61218-.19757-.61224.23626v.48206L19.54,20.039l.00452,1.379-.19385.78509a1.42355,1.42355,0,0,1,.6109-.1925c.038-.003.07654-.00476.11536-.00476a1.42959,1.42959,0,0,1,.49816.089l-.16973-.68939V20.01874Z" fill="#fff" stroke="#1d1d1b" stroke-miterlimit="10" stroke-width="0.1"/><path d="M22.31866,20.05756v-.48438l-.61218-.21307-.61218.19378v.4881l.18927.24262.00458,1.37744-.19385.75152a1.42513,1.42513,0,0,1,.61127-.17309c.02533-.00128.05053-.00214.07611-.00214a1.43,1.43,0,0,1,.537.104l-.16973-.66565V20.29779Z" fill="#fff" stroke="#1d1d1b" stroke-miterlimit="10" stroke-width="0.1"/><path d="M24.22449,18.933a4.03323,4.03323,0,0,0-1.0799-2.83923,1.58736,1.58736,0,0,0-1.52472-.38306l-1.60577.67371-1.626-.67242a1.58582,1.58582,0,0,0-1.528.38177A4.03457,4.03457,0,0,0,15.78033,18.933a5.9954,5.9954,0,0,0,1.91974,4.95392,8.15223,8.15223,0,0,0,2.30231,1.46088,8.15138,8.15138,0,0,0,2.30231-1.46088A5.99561,5.99561,0,0,0,24.22449,18.933Zm-4.73255,5.87409a6.91393,6.91393,0,0,1-2.66485-5.49872c.074-1.60083.5271-2.09247.75372-2.266a.58787.58787,0,0,0,.55072.39129A16.676,16.676,0,0,0,20.0141,16.462a16.43881,16.43881,0,0,0,1.85919.97161.58786.58786,0,0,0,.55072-.39123c.22662.17358.67975.66528.75372,2.266a6.91355,6.91355,0,0,1-2.66461,5.49853c-.23407.1236-.42645.211-.51074.2464C19.91821,25.01794,19.72583,24.9306,19.49194,24.80707Z" fill="#f0be2f" stroke="#1d1d1b" stroke-miterlimit="10" stroke-width="0.1"/><path d="M15.81515,23.7158a6.02781,6.02781,0,0,1-1.16681.35153,1.56083,1.56083,0,0,1-1.20207-.57868c.51638-.07763.91553-.3758,1.44833-.20814a8.46854,8.46854,0,0,1,.92055.43529Z" fill="#668c5c"/><path d="M16.71223,24.04249a1.16061,1.16061,0,0,1-.51334-.74985,1.75366,1.75366,0,0,1-.00127-.55116c.25745.37394.7047.40914.944.85648.14545.27181.12614.68519.42419.85045A6.02494,6.02494,0,0,1,16.71223,24.04249Z" fill="#668c5c"/><path d="M14.88522,22.8168a8.4455,8.4455,0,0,0-.72868-.61326,5.04025,5.04025,0,0,0-1.32189-.34122,1.3633,1.3633,0,0,0,.83531.983,4.68868,4.68868,0,0,0,1.45818.13393A2.64845,2.64845,0,0,0,14.88522,22.8168Z" fill="#668c5c"/><path d="M15.7739,23.4454a2.11968,2.11968,0,0,0-.25352-.48741,1.8147,1.8147,0,0,1-.199-.63414,1.22361,1.22361,0,0,1,.37465-1.08744.65441.65441,0,0,0,.04748.23625,2.536,2.536,0,0,1,.25558,1.17886,7.08075,7.08075,0,0,1-.2252.79388Z" fill="#466344"/><path d="M14.0982,21.8006c-.18143-.05756-.38928-.09251-.61012-.14571a1.22443,1.22443,0,0,1-.53383-.3051,1.31118,1.31118,0,0,1-.37373-.83489,2.437,2.437,0,0,1-.02212-.53111.28559.28559,0,0,0,.07742.09256c.16072.11516.3282.19551.48919.31179a1.90151,1.90151,0,0,1,.35592.29867,2.70945,2.70945,0,0,1,.37019.53664C13.932,21.37675,14.0982,21.8006,14.0982,21.8006Z" fill="#668c5c"/><path d="M15.27935,18.5924c.29912.81652-.40261,1.48969-1.12778,1.8951a4.51216,4.51216,0,0,1,.73057-1.50446c.15842-.14731.29723-.19514.39721-.39064Z" fill="#466344"/><path d="M14.4356,17.7833a6.52375,6.52375,0,0,0-.284,2.7042c.32121,1.89785,1.87636,3.67945,3.31173,3.96785a4.27631,4.27631,0,0,1,2.48752,1.3823,6.25765,6.25765,0,0,1,.58822.77956c.136.21293.25249.44528.36688.62912.01848.02967-.136.09354-.1523.06717-.121-.1955-.23212-.442-.37143-.66782a7.9321,7.9321,0,0,0-.66765-.79919,3.80083,3.80083,0,0,0-2.338-1.27423,5.05207,5.05207,0,0,1-3.29513-3.9195,7.2414,7.2414,0,0,1,.24606-2.78923l.10815-.08022Z" fill="#a38153"/><path d="M14.21112,18.89988a.34123.34123,0,0,0,.17566-.17953,5.87907,5.87907,0,0,1,.40207-.93856,2.76659,2.76659,0,0,1,.76677-.74176,1.74613,1.74613,0,0,1-.19745,1.13773A4.5864,4.5864,0,0,1,14.21112,18.89988Z" fill="#668c5c"/><path d="M13.9996,19.96945s-.25787-.09227-.53714-.20793a1.298,1.298,0,0,1-.58178-.50788,1.61409,1.61409,0,0,1-.11793-1.18338c.11327.22329.55645.44726.72652.726a2.287,2.287,0,0,1,.23159.59424,2.88745,2.88745,0,0,0,.09948.388.81019.81019,0,0,0,.17926.1909Z" fill="#668c5c"/><path d="M14.7683,22.1026c.07538-.1151.00933-.40683-.01473-.53888a1.6418,1.6418,0,0,1-.00653-.587,2.06661,2.06661,0,0,1,.45617-.836,1.38112,1.38112,0,0,0,.10338-.16713,1.6075,1.6075,0,0,1-.19465,1.74428c-.07122.07727-.34364.38475-.34364.38475Z" fill="#668c5c"/><path d="M15.583,24.33253c-.47276.12354-.66794.56578-1.02331.723a1.19808,1.19808,0,0,0,1.38419-.184c.181-.14472.2961-.4209.532-.49478A2.57486,2.57486,0,0,0,15.583,24.33253Z" fill="#466344"/><path d="M14.064,19.07267a.49908.49908,0,0,0-.207-.34031,1.46068,1.46068,0,0,1-.513-1.63624,1.26585,1.26585,0,0,1,.30419-.5165,2.53047,2.53047,0,0,1,.21656.45724,2.23637,2.23637,0,0,1,.175,1.272A6.16866,6.16866,0,0,0,14.064,19.07267Z" fill="#668c5c"/><path d="M25.9924,18.9537l-.0414-.18189a.92811.92811,0,0,0,.10527-.26392,8.68192,8.68192,0,0,1-.15832-.86551,1.55416,1.55416,0,0,1,.55178-.89114c.17855-.01787.367.99546.25742,1.193-.22289.36054-.71776.70885-.71475,1.00941Z" fill="#668c5c"/><path d="M25.9257,18.9099l.02138.11885c-.33978-.486-.97285-.4898-1.33713-.81584a1.6134,1.6134,0,0,1-.21857-.80339c.05047-.07949.77038.23744,1.06595.50347.20515.19561.392.97653.46837.99691Z" fill="#668c5c"/><path d="M26.0269,20.4015c.0704-.00343.26154-.84537.38938-1.018a2.57874,2.57874,0,0,1,.9326-.52128c.1057.02958-.02761.99906-.14109,1.122a6.93885,6.93885,0,0,1-1.18089.41723Z" fill="#668c5c"/><path d="M24.68634,19.53775a1.29416,1.29416,0,0,1-.17513-.85993c.06045-.09818.68168.09587.94612.31495.15038.19561.17708.87729.43764,1.02085A2.67447,2.67447,0,0,1,24.68634,19.53775Z" fill="#668c5c"/><path d="M24.08749,23.6458c.00843-.06148-.30289-.59-.35-.8431a1.25153,1.25153,0,0,1,.37518-.98823c.10946-.02533.47485.28463.47477.47973.007.44728-.4875,1.0529-.41035,1.276l-.08961.07559Z" fill="#668c5c"/><path d="M26.7825,21.838a1.83536,1.83536,0,0,0-.88484.16784,7.30226,7.30226,0,0,0-.78811.57573,1.7448,1.7448,0,0,0,1.06152.148A.85964.85964,0,0,0,26.7825,21.838Z" fill="#466344"/><path d="M26.82385,21.2071c.15315-.08607.35913-.91993.26753-.92888a2.45573,2.45573,0,0,0-.77947.41247c-.06787.08715-.23616.4766-.29323.56229a1.17474,1.17474,0,0,1-.28125.21228A4.2995,4.2995,0,0,0,26.82385,21.2071Z" fill="#668c5c"/><path d="M23.35955,24.3096a6.48311,6.48311,0,0,0,.77542.01019,2.80074,2.80074,0,0,1,.70819.47329c.04051.05233.26474.51514-.09342.4304-.08617-.02044-.59183-.06476-.656-.07524A5.442,5.442,0,0,1,23.35955,24.3096Z" fill="#466344"/><path d="M24.78648,23.88369c.0768.01919.58781.29628.67042.30789a2.34987,2.34987,0,0,0,.341.003c.05,0,.25287-.035.29586-.09688.05616-.08076-.047-.23389-.0519-.26171a1.86433,1.86433,0,0,0-.526-.53329,2.59159,2.59159,0,0,0-.99269.25819l.0496.06032S24.70965,23.86447,24.78648,23.88369Z" fill="#668c5c"/><path d="M22.88731,23.49985a1.62378,1.62378,0,0,1,.69352-.44195c.09269.01341.08641.37136-.22128.68735-.14916.16685-.92859.77944-.92859.77944h-.1123A10.39091,10.39091,0,0,1,22.88731,23.49985Z" fill="#668c5c"/><path d="M25.45733,21.79483c0-.1818-.71822-.51107-.84738-.77749-.08632-.19754-.16979-.83239-.08052-.87579a1.25112,1.25112,0,0,1,.78732.32223A4.85249,4.85249,0,0,1,25.45733,21.79483Z" fill="#466344"/><path d="M25.6482,17.52285a4.98405,4.98405,0,0,1,.18322.5403,6.87628,6.87628,0,0,1,.16072,2.58832A5.16594,5.16594,0,0,1,22.587,24.56462a4.05217,4.05217,0,0,0-2.34231,1.27674,4.6245,4.6245,0,0,0-.5602.75387c-.14211.241-.23533.44758-.36147.65519l-.00706.0028a.23555.23555,0,0,1-.03289.00821.70249.70249,0,0,1-.09615.0106.32956.32956,0,0,1-.08223-.00437l-.00434-.00115c.01775-.02749.0354-.05427.05274-.08274.12029-.19828.22485-.39156.36239-.62123a4.71892,4.71892,0,0,1,.52-.71976A4.22062,4.22062,0,0,1,22.50319,24.463a5.14541,5.14541,0,0,0,3.4031-3.97418,6.13163,6.13163,0,0,0-.29091-2.8463l.03281-.11961Z" fill="#a38153"/><path d="M21.08754,26.25223c-.07757.26365-.23265.76521.38723.76521.45106,0,.92988-.27127,1.39485-.03269a1.8242,1.8242,0,0,0,2.40221-.54848s-.57662-.22361-.54245-.62a1.43469,1.43469,0,0,1-.93006.2664c-.3098,0-.508-.1872-.91382-.25122.02286-.14026.04736-.28311.08392-.48006.03983-.215-.01943-.38953-.33222-.42629-.6807-.0799-1.34.31276-2.5446.33165-1.21281-.01889-2.0441-.41155-2.72492-.33165-.31279.03676-.37205.21127-.33219.42629.03653.19695.061.3398.08374.48006-.40568.064-.6039.25122-.91367.25122a1.43466,1.43466,0,0,1-.93009-.2664c.03417.39638-.54245.62-.54245.62a1.82429,1.82429,0,0,0,2.40225.54848c.465-.23858.94379.03269,1.39485.03269.61987,0,.46479-.50156.38725-.76521A11.70945,11.70945,0,0,0,21.08754,26.25223Z" fill="#fff" stroke="#1d1d1b" stroke-miterlimit="10" stroke-width="0.1"/></g></svg>