<svg xmlns="http://www.w3.org/2000/svg" viewBox="0 0 40 40"><g id="EA45_flag_lesotho"><rect y="7" width="40" height="26" fill="#009543"/><rect y="7" width="40" height="18.2" fill="#fff"/><rect y="7" width="40" height="7.8" fill="#00209f"/><path d="M19.97867,15.16169a.51931.51931,0,0,0-.30028.17163l.0131,1.79848-.56781.59485h.45965L19.57945,18.758l-2.7192,3.6616-.402-.13894-.70259,1.49876a8.49736,8.49736,0,0,0,4.26,1.0584A7.93552,7.93552,0,0,0,24.288,23.72932l-.726-1.47947-.35552.1546-2.75405-3.64257-.00388-1.06214h.45965l-.62558-.58745.0037-1.79191a.52046.52046,0,0,0-.30767-.15853Z" stroke="#000" stroke-width="0.04444"/><path d="M20.92711,19.46756H19.04684a5.79892,5.79892,0,0,1-.57183-2.44312c.11264-1.02355.69763-1.50782,1.47538-1.51635.91956-.01025,1.40151.45059,1.54711,1.47538a5.5,5.5,0,0,1-.57042,2.48417Z" fill="none" stroke="#000" stroke-width="0.22222"/><path d="M16.69244,22.89511c-.03073.041-.25614.49179-.25614.49179l.38933-.082-.13319-.40982Z" fill="#fff"/><path d="M16.91733,23.47911l-.40982.13319.4918.19467-.082-.32786Z" fill="#fff"/><path d="M17.10222,22.90489l.20492.6045.502-.14344-.13319-.28688Z" fill="#fff"/><path d="M17.41956,23.72533l.07172.2459.666.16392-.26638-.56351-.4713.15369Z" fill="#fff"/><path d="M18.15733,23.21244l.23566.56351.502-.19466-.16393-.2459Z" fill="#fff"/><path d="M18.48533,23.98133l.082.21516.77866.1127-.32785-.51228-.53278.18441Z" fill="#fff"/><path d="M19.23289,23.37689l.28688.502.72744-.2664-.082-.19466-.93235-.041Z" fill="#fff"/><path d="M19.65333,24.06311l.15369.26639.9016-.03073-.3381-.502-.71719.26638Z" fill="#fff"/><path d="M20.60622,23.39733l.2459.42007.57376-.27663-.15369-.2254-.666.082Z" fill="#fff"/><path d="M21.54844,23.71467l-.57376.28688.15369.24589.76843-.12295-.34836-.40983Z" fill="#fff"/><path d="M21.73333,23.27378l.29712.36884.48155-.37909-.16393-.17418-.61474.18443Z" fill="#fff"/><path d="M22.61422,23.46844l-.46106.34836.12295.21516.63524-.16393-.29712-.39958Z" fill="#fff"/><path d="M23.24978,22.74133l.1127.16393-.31762.4713-.32786-.42007.53278-.21516Z" fill="#fff"/><path d="M23.46489,23.15111l.19467.38933-.38934.1332-.03073-.18443.2254-.33811Z" fill="#fff"/></g></svg>