<svg xmlns="http://www.w3.org/2000/svg" viewBox="0 0 40 40"><g id="EA45_flag_slovenia"><rect y="7.01576" width="40" height="25.96893" fill="#ed1c24"/><rect y="7.01576" width="40" height="17.31262" fill="#005da4"/><rect y="6.9847" width="40" height="8.71844" fill="#fff"/><path d="M13.276,16.181l.26866-3.96512a7.7294,7.7294,0,0,0-6.62,0L7.19327,16.181a4.29225,4.29225,0,0,0,3.04136,3.81893A4.29226,4.29226,0,0,0,13.276,16.181" fill="#005da4"/><path d="M7.75211,16.71823a3.81455,3.81455,0,0,0,2.48252,2.77959,3.81453,3.81453,0,0,0,2.48251-2.77959l-1.24126-1.655-.4965.662-.74475-1.48951-.74476,1.48951-.4965-.662-1.24126,1.655" fill="#fff"/><g id="wave"><path d="M7.863,17.132a.82749.82749,0,0,0,1.13039.3029h0a.82749.82749,0,0,1,.8275,0,.82751.82751,0,0,0,.82751,0,.82749.82749,0,0,1,.8275,0A.8275.8275,0,0,0,12.6063,17.132h0v.23888a.82751.82751,0,0,1-1.13039.3029h0a.82749.82749,0,0,0-.8275,0,.82751.82751,0,0,1-.82751,0,.82749.82749,0,0,0-.8275,0,.82751.82751,0,0,1-1.1304-.30288h0Z" fill="#005da4"/></g><g id="wave-2" data-name="wave"><path d="M7.863,17.60976a.82751.82751,0,0,0,1.13039.3029h0a.82749.82749,0,0,1,.8275,0,.82751.82751,0,0,0,.82751,0,.82749.82749,0,0,1,.8275,0,.8275.8275,0,0,0,1.13039-.30288h0v.23887a.8275.8275,0,0,1-1.13039.3029h0a.82749.82749,0,0,0-.8275,0,.82756.82756,0,0,1-.82751,0,.82749.82749,0,0,0-.8275,0,.82751.82751,0,0,1-1.1304-.30289h0Z" fill="#005da4"/></g><g id="s"><path d="M10.23463,13.0979l.06206.20282.20668-.04766-.14462.15515.14462.15516-.20668-.04766-.06206.20282-.06207-.20282-.20667.04766.14461-.15516-.14461-.15515.20667.04766Z" fill="#fd0"/></g><g id="s-2" data-name="s"><path d="M9.30368,11.85664l.06207.20282.20667-.04766-.14461.15516.14461.15515-.20667-.04765-.06207.20281-.06206-.20281-.20667.04765.14461-.15515L9.035,12.0118l.20667.04766Z" fill="#fd0"/></g><g id="s-3" data-name="s"><path d="M11.16557,11.85664l.06206.20282.20668-.04766-.14461.15516.14461.15515-.20668-.04765-.06206.20281-.06206-.20281-.20668.04765.14461-.15515-.14461-.15516.20668.04766Z" fill="#fd0"/></g><path d="M7.15686,12.11041l.27473,4.0545a4.05339,4.05339,0,0,0,2.803,3.58447,4.05338,4.05338,0,0,0,2.803-3.58447l.27473-4.0545q.11524.0546.23225.10537L13.276,16.18091a4.29228,4.29228,0,0,1-3.04135,3.81893,4.29227,4.29227,0,0,1-3.04136-3.81893l-.26866-3.96513q.117-.05076.23225-.10537" fill="#ed1c24"/></g></svg>