<svg xmlns="http://www.w3.org/2000/svg" viewBox="0 0 40 40"><g id="EA45_flag_zimbabwe"><rect y="7" width="40" height="26" fill="#319208"/><rect y="10.71429" width="40" height="18.57143" fill="#ffd200"/><rect y="14.42857" width="40" height="11.14286" fill="#de2010"/><rect y="18.14286" width="40" height="3.71429" fill="#252525"/><path d="M.72746,7,14.06079,20,.72746,33H0V7Z" fill="#252525"/><path d="M0,7,13.33333,20,0,33" fill="#fff"/><polygon points="7.327 20.483 10.228 18.43 6.89 17.945 5.397 14.921 3.904 17.945 0.566 18.43 3.467 20.483 2.831 23.531 5.397 22.063 7.963 23.531 7.327 20.483" fill="#de2010"/><path d="M4.54524,18.74746c.31365.68333.39206.72825,1.17635.99714a24.02767,24.02767,0,0,0,3.21809.54889c-.14285-.14286-2.63825-1.99127-3.15079-2.36111a4.209,4.209,0,0,1-.6554-.53778s-.46206-.83174-.62174-1.07555a1.12413,1.12413,0,0,0-.84016-.5881.73332.73332,0,0,0-.73381.63016c-.06159.01683-.39207.21841-.38095.42571a.70321.70321,0,0,1,.9019.49858,4.40351,4.40351,0,0,1,.00556,2.33587A4.53921,4.53921,0,0,0,2.921,21.06651c0,.06714.04476.20158.15683.20158.0392.21286.35286,1.7308.35286,1.7308h4.47l.71-2.74476" fill="#ffc618"/><path d="M4.54524,18.74746c.31365.68333.39206.72825,1.17635.99714a24.02767,24.02767,0,0,0,3.21809.54889c-.14285-.14286-2.63825-1.99127-3.15079-2.36111a4.209,4.209,0,0,1-.6554-.53778s-.46206-.83174-.62174-1.07555a1.12413,1.12413,0,0,0-.84016-.5881.73332.73332,0,0,0-.73381.63016c-.06159.01683-.39207.21841-.38095.42571a.70321.70321,0,0,1,.9019.49858,4.40351,4.40351,0,0,1,.00556,2.33587A4.53921,4.53921,0,0,0,2.921,21.06651c0,.06714.04476.20158.15683.20158.0392.21286.35286,1.7308.35286,1.7308h4.47l.71-2.74476" fill="none" stroke="#000" stroke-width="0.00706"/><path d="M3.07778,21.26825s.95222-.056,1.21-.056a22.90185,22.90185,0,0,1,3.99444.31238" fill="none" stroke="#000" stroke-width="0.00706"/><path d="M3.414,21.24937a.393.393,0,0,1-.03381-.34524c.06159-.22969.73381-.8235.73381-1.66365" fill="none" stroke="#000" stroke-width="0.00706"/><path d="M3.99079,21.21222s-.07841-.37524.77858-.6946c.24095-.07286.92984-.45937.95222-.773" fill="none" stroke="#000" stroke-width="0.00706"/><path d="M4.67825,20.55317a23.2055,23.2055,0,0,1,3.76572.34524" fill="none" stroke="#000" stroke-width="0.00706"/><path d="M5.20524,20.30238a7.185,7.185,0,0,0,.84-.00889.57653.57653,0,0,0,.40873-.36714" fill="none" stroke="#000" stroke-width="0.00706"/><path d="M5.63333,20.31095s.38635-.20079.46207-.46206" fill="none" stroke="#000" stroke-width="0.00706"/><path d="M4.46683,22.99905s-.16524-1.1454-.19889-1.78683l.43127.41175.45635-.399.39238.41873.45365-.38492.39222.441.44921-.38206.35746.41555.44793-.324.53254.5062" fill="none" stroke="#000" stroke-width="0.00706"/><path d="M8.08746,22.277a30.57645,30.57645,0,0,0-3.74127-.21428" fill="none" stroke="#000" stroke-width="0.00706"/><path d="M3.60222,18.10349s1.30159-.6219,1.53127-.70873" fill="none" stroke="#000" stroke-width="0.00706"/><polyline points="4.304 21.666 4.741 22.064 5.137 21.669 5.536 22.081 5.968 21.7 6.366 22.117 6.814 21.747 7.18 22.175 7.626 21.834 8.095 22.248" fill="none" stroke="#000" stroke-width="0.03333"/><circle cx="5.54519" cy="20.90973" r="0.17366" fill="none" stroke="#000" stroke-width="0.03333"/><circle cx="6.27827" cy="20.9589" r="0.17366" fill="none" stroke="#000" stroke-width="0.03333"/><circle cx="3.54964" cy="16.26884" r="0.13444" fill="none" stroke="#000" stroke-width="0.03333"/></g></svg>