<svg xmlns="http://www.w3.org/2000/svg" viewBox="0 0 40 40"><g id="EA45_flag_antilles"><rect id="rect4" y="7" width="40" height="26" fill="#fff"/><rect id="rect6" x="15.5" y="7" width="9" height="26" fill="#dc171d"/><rect id="rect8" y="15.55556" width="40" height="8.88889" fill="#012a87"/><polygon points="20.249 16.694 20 15.926 19.751 16.694 18.943 16.694 19.596 17.168 19.347 17.936 20 17.461 20.653 17.936 20.404 17.168 21.057 16.694 20.249 16.694" fill="#fff"/><polygon points="26.33 19.623 26.983 19.148 26.175 19.148 25.926 18.38 25.676 19.148 24.869 19.148 25.522 19.623 25.273 20.391 25.926 19.916 26.579 20.391 26.33 19.623" fill="#fff"/><polygon points="22.704 22.62 22.455 21.852 22.205 22.62 21.398 22.62 22.051 23.094 21.802 23.862 22.455 23.387 23.108 23.862 22.858 23.094 23.511 22.62 22.704 22.62" fill="#fff"/><polygon points="14.324 19.148 14.074 18.38 13.825 19.148 13.017 19.148 13.67 19.623 13.421 20.391 14.074 19.916 14.727 20.391 14.478 19.623 15.131 19.148 14.324 19.148" fill="#fff"/><polygon points="17.795 22.62 17.545 21.852 17.296 22.62 16.489 22.62 17.142 23.094 16.892 23.862 17.545 23.387 18.198 23.862 17.949 23.094 18.602 22.62 17.795 22.62" fill="#fff"/></g></svg>