<svg xmlns="http://www.w3.org/2000/svg" viewBox="0 0 40 40"><g id="t11_1p320"><rect y="7" width="40" height="26" fill="#4997d0"/><rect x="13.33333" y="7" width="13.33333" height="26" fill="#fff"/><path d="M20.25458,23.53875a.34748.34748,0,0,0-.13656-.11065,3.13644,3.13644,0,0,0-1.00483-.30183,1.23029,1.23029,0,0,1-.25362-.1328c-.2068-.09855-.437-.13684-.63795-.23739a.32424.32424,0,0,1-.08782-.06437c-.08-.09259-.22437-.12079-.31411-.20728A3.503,3.503,0,0,1,16.91252,21.42a3.66426,3.66426,0,0,1-.482-1.67608,6.14753,6.14753,0,0,1,.0624-1.12679,4.3568,4.3568,0,0,1,.64192-1.51308l-.05463.03418a4.32456,4.32456,0,0,0-.64384,1.51313,6.14632,6.14632,0,0,0-.06245,1.12679,3.68,3.68,0,0,0,.482,1.67808,3.57963,3.57963,0,0,0,.90725,1.06446c.08974.08446.23414.11264.31411.2072a.41584.41584,0,0,0,.08778.06439c.201.1006.43121.13883.638.23543a1.14265,1.14265,0,0,0,.25362.13283,3.188,3.188,0,0,1,1.00479.30176.33421.33421,0,0,1,.1366.11068l.05656-.03423" fill="#406328"/><path d="M18.83666,23.03a2.73986,2.73986,0,0,0-1.2539.65356C18.44789,23.69023,18.96031,23.264,18.83666,23.03Z" fill="#67913c"/><path d="M19.13289,23.03a3.09155,3.09155,0,0,1-.72141-1.36246C19.18831,22.22453,19.385,22.91587,19.13289,23.03Z" fill="#67913c"/><path d="M18.34986,22.74794a2.99128,2.99128,0,0,0-.41893-1.43475C17.768,22.22262,18.09645,22.836,18.34986,22.74794Z" fill="#67913c"/><path d="M17.13062,21.73826a2.56628,2.56628,0,0,1,.0286-1.27777C17.49511,21.17222,17.35787,21.75165,17.13062,21.73826Z" fill="#67913c"/><path d="M16.5774,20.967a2.53834,2.53834,0,0,1-1.272-.35169C16.11189,20.44051,16.65327,20.73035,16.5774,20.967Z" fill="#67913c"/><path d="M17.39958,22.13373a2.34465,2.34465,0,0,0-1.043-.53519C16.78338,22.17888,17.31158,22.32377,17.39958,22.13373Z" fill="#406328"/><path d="M16.38208,19.93178a2.9691,2.9691,0,0,0-.77008-1.252C15.69123,19.57691,16.163,20.07428,16.38208,19.93178Z" fill="#406328"/><path d="M16.73167,21.3892a2.63016,2.63016,0,0,0-1.26982-.28641C16.07656,21.60639,16.68752,21.61571,16.73167,21.3892Z" fill="#406328"/><path d="M16.34167,20.31548a2.39159,2.39159,0,0,0-.96087-.77936C15.69463,20.24074,16.2089,20.49967,16.34167,20.31548Z" fill="#406328"/><path d="M16.42989,18.94651a2.35417,2.35417,0,0,0-.58886-1.07264C15.865,18.74175,16.20711,19.06992,16.42989,18.94651Z" fill="#406328"/><path d="M16.35083,18.87682a2.65474,2.65474,0,0,1,1.2471-.56406C17.08619,18.97509,16.45633,19.1091,16.35083,18.87682Z" fill="#67913c"/><path d="M16.63577,16.33244l-.00293.00863.00025-.00545c-.366.7721-.21923,1.40343.0268,1.39037l-.00042-.00159.00612.00393A2.81219,2.81219,0,0,0,16.63577,16.33244Z" fill="#67913c"/><path d="M17.573,16.10553c-.03312.02361-.05082.04959-.08112.0739-.51129.40331-.64676.88069-.46805.97432l.001-.00379.002.00379A2.33463,2.33463,0,0,0,17.573,16.10553Z" fill="#67913c"/><path d="M16.45267,20.34273c.255.13318.68145-.44385.63113-1.41794A5.19361,5.19361,0,0,1,16.45267,20.34273Z" fill="#406328"/><path d="M19.76625,23.53542a.34747.34747,0,0,1,.13656-.11065,3.13664,3.13664,0,0,1,1.00487-.30184,1.22991,1.22991,0,0,0,.25361-.13279c.20679-.09856.437-.13684.638-.23739a.32461.32461,0,0,0,.08782-.06437c.08-.09259.22437-.12079.31412-.20728a3.50332,3.50332,0,0,0,.90716-1.06442,3.66475,3.66475,0,0,0,.482-1.676,6.14576,6.14576,0,0,0-.06241-1.12679,4.357,4.357,0,0,0-.642-1.51308l.05464.03418a4.32519,4.32519,0,0,1,.64384,1.51309,6.14814,6.14814,0,0,1,.06245,1.12679,3.68091,3.68091,0,0,1-.48192,1.67812,3.57974,3.57974,0,0,1-.90725,1.06442c-.08975.08446-.23415.11264-.31412.2072a.41583.41583,0,0,1-.08777.06439c-.201.1006-.43121.13883-.638.23543a1.14229,1.14229,0,0,1-.25363.13283,3.18717,3.18717,0,0,0-1.00471.30176.33417.33417,0,0,0-.13661.11068l-.05658-.03423" fill="#406328"/><path d="M22.81242,21.97335a3.03838,3.03838,0,0,0-.03385-1.51286C22.38087,21.30316,22.54334,21.9892,22.81242,21.97335Z" fill="#406328"/><path d="M23.60148,18.80845a2.91942,2.91942,0,0,0-1.37141-.6203C22.79278,18.91655,23.48532,19.06389,23.60148,18.80845Z" fill="#406328"/><path d="M23.55189,20.19867a2.84781,2.84781,0,0,0-.60051-1.34287C22.90395,19.77464,23.31137,20.32427,23.55189,20.19867Z" fill="#406328"/><path d="M20.90577,23.20875a2.62892,2.62892,0,0,1,1.20313.62707C21.27879,23.84225,20.78713,23.43333,20.90577,23.20875Z" fill="#67913c"/><path d="M20.84125,22.91528a2.94464,2.94464,0,0,1,.911-1.15225c-.18739.89127-.71472,1.32828-.911,1.15225Z" fill="#67913c"/><path d="M21.69565,22.7455a2.67374,2.67374,0,0,1,.37443-1.28245C22.21574,22.27589,21.92215,22.82423,21.69565,22.7455Z" fill="#67913c"/><path d="M23.69625,19.91581a2.58477,2.58477,0,0,1,.67038-1.09C24.29769,19.60684,23.887,20.03988,23.69625,19.91581Z" fill="#67913c"/><path d="M23.04015,21.63078a2.97785,2.97785,0,0,1,1.43812-.3244C23.782,21.8767,23.09007,21.88724,23.04015,21.63078Z" fill="#67913c"/><path d="M23.61227,20.44717a2.41765,2.41765,0,0,1,.9716-.788C24.26651,20.37165,23.74651,20.6334,23.61227,20.44717Z" fill="#67913c"/><path d="M23.15164,17.41667a2.54424,2.54424,0,0,1-.53258-1.13068C23.22018,16.75984,23.355,17.32755,23.15164,17.41667Z" fill="#67913c"/><path d="M23.59308,18.81a2.48211,2.48211,0,0,1,.878-.94525C24.22336,18.746,23.78913,18.99347,23.59308,18.81Z" fill="#67913c"/><path d="M23.44329,18.07125a2.90236,2.90236,0,0,1,.08173-1.43992C23.87476,17.44189,23.69947,18.09386,23.44329,18.07125Z" fill="#67913c"/><path d="M23.15821,21.3234a2.56893,2.56893,0,0,1,.96779-.90282C23.84416,21.19784,23.314,21.51176,23.15821,21.3234Z" fill="#67913c"/><path d="M23.0412,22.64166l-.4801-.58728a.97662.97662,0,0,0-.20124-.19232c-.024-.0155-.05151-.00751-.07068-.03424-.10919-.1181-.19909-.24847-.28289-.34906-.01264-.02124-.13562-.17487-.17878-.23218-.12457-.13153-1.73138-1.8349-1.73138-1.8349.5105-.53619,1.00177-1.0545,1.41559-1.483-.03241-.03229-.012-.013-.0434-.04333l-1.45685,1.43426-1.40191-1.52429c-.0329.02875-.01148.0105-.04547.04114.39673.45379.86834,1.00354,1.35779,1.57141,0,0-1.70771,1.63977-1.83863,1.76495-.046.05512-.17639.20246-.19006.22309-.08869.09625-.18494.222-.29987.33453-.02044.02582-.04754.01642-.07226.03076a.973.973,0,0,0-.21051.18207l-.50867.56274c-.03278.03552-.0415.0575-.01935.07794l.27594.36872c.05121.0506.11023.0766.13318.03412.1311-.22693.45673-.57325.57977-.84723a3.75881,3.75881,0,0,1,.23157-.5326c.08081-.08984,1.52332-1.59753,2.00336-2.10144.44916.52088,1.80359,2.08484,1.87976,2.17865a3.745,3.745,0,0,1,.20489.5434c.10932.27972.41742.64178.53711.87494.02082.04352.081.02051.13465-.02753l.29394-.35455C23.07983,22.70111,23.0722,22.67877,23.0412,22.64166Z" fill="#6c301e"/><path d="M21.95276,21.35345l-.06549-.23a.23517.23517,0,0,0-.07245-.068,1.90526,1.90526,0,0,1-.26538-.19714s-1.29138-1.371-1.487-1.58283c.55892-.54809,1.71981-1.69714,1.71981-1.69714.00732-.00922-.04694-.04932-.0564-.04041,0,0-1.18762,1.17035-1.71191,1.68512-.50458-.54693-1.64447-1.78747-1.64447-1.78747-.009-.00934-.06519.028-.05829.03753,0,0,1.11426,1.218,1.65167,1.79987-.21191.20789-1.5827,1.52582-1.5827,1.52582a1.90538,1.90538,0,0,1-.27478.18384.23349.23349,0,0,0-.07569.06427l-.07684.22644c-.02423.0498-.10126.16681-.10467.17474.09863.09943.09362.09216.161.15533.07574-.08428.47894-.51147.49786-.5343-.0144-.02032-.12756-.13067-.13428-.13714,0,0,1.10095-1.07941,1.63861-1.60657.50519.54694,1.5459,1.66009,1.53882,1.66626s-.12549.11072-.14093.13031c.01782.02374.39935.47034.47083.55829.07037-.05969.065-.05274.16852-.14716C22.04565,21.52509,21.97449,21.40436,21.95276,21.35345Z" fill="#b1b6ba"/><path d="M18.0795,22.69293a3.15945,3.15945,0,0,0-1.65408.05276C17.34731,23.19921,18.09767,23.00462,18.0795,22.69293Z" fill="#67913c"/><path d="M21.78882,22.83553a3.0446,3.0446,0,0,1,1.59383.05087C22.49434,23.32182,21.77131,23.13586,21.78882,22.83553Z" fill="#67913c"/><path d="M21.3434,22.38732a.20533.20533,0,0,1-.14944.138c-.01239-.01575-.10869.11476-.07373.14959.0385.03039.05777.04455.10238.03832a.14177.14177,0,0,0,.08024-.06365,2.648,2.648,0,0,0,.46788.44333c.08743.00071.13437-.05441.105-.11678a.04753.04753,0,0,0-.05551-.02715C21.82192,22.94265,21.40727,22.3468,21.3434,22.38732Z" fill="#fab720"/><path d="M22.088,19.75354a1.59807,1.59807,0,0,0-.62488.21106,10.04228,10.04228,0,0,0-1.47009,1.025,9.97952,9.97952,0,0,0-1.36554-1.07507,1.59732,1.59732,0,0,0-.61127-.24786c.20618.11444.43006.26019.655.41168a11.55479,11.55479,0,0,1,1.20771,1.01147c-.43293.36579-.859.76508-1.29517,1.20038.03143.0351.14227.14929.14227.14929a13.1499,13.1499,0,0,1,1.26435-1.24633,13.1977,13.1977,0,0,1,1.2221,1.35455s.1175-.10748.15094-.14063c-.422-.47442-.83514-.9118-1.25872-1.31219a11.59891,11.59891,0,0,1,1.30468-.96918C21.643,19.98779,21.87524,19.85559,22.088,19.75354Z" fill="#b1b6ba"/><path d="M18.60488,22.27165a.20531.20531,0,0,0,.141.14662c.0133-.015.10168.121.06471.15371-.04024.02805-.06032.041-.10448.03217a.14182.14182,0,0,1-.07632-.06831,2.64748,2.64748,0,0,1-.4934.41474c-.08732-.00449-.1309-.06231-.09789-.12282a.04756.04756,0,0,1,.057-.0238C18.09419,22.79756,18.54353,22.22741,18.60488,22.27165Z" fill="#fab720"/><path d="M23.15821,17.69342a2.36193,2.36193,0,0,0-.7343-.93915C22.55425,17.46938,22.986,17.82775,23.15821,17.69342Z" fill="#406328"/><path d="M17.48791,16.80073c-.38714.256-.5532.56265-.42531.70006a2.93766,2.93766,0,0,0,1.09146-1.004A2.17863,2.17863,0,0,0,17.48791,16.80073Z" fill="#67913c"/><path d="M21.48785,19.99237a3.73215,3.73215,0,0,0-.05786-.36926c-.01587-.0622-.75824-1.56928-.7583-1.5694.27857-.04474.27478-.41949.08435-.5697-.57733-.02118-2.12738.04132-2.13629.042-.32068.034-.324.44556-.19318.70514.0611.12128.69983,1.71228.70472,1.747-.19074.01117-.39661.03076-.39661.03076s-.298.04028-.22113.41882c.07178.35321.32709.32654.32819.32642h.00036s2.39179-.14642,2.3974-.14978a.48044.48044,0,0,0,.17682-.17908A2.7235,2.7235,0,0,0,21.48785,19.99237Z" fill="#f8f0a9"/><path d="M22.07792,18.97833a2.60635,2.60635,0,0,0-.17954-.54395,3.30386,3.30386,0,0,0-.493-.70017,5.27544,5.27544,0,0,0-1.33025-1.13546l.03878-.09934-.03806-.16825-.20476-.04517-.13461.10381a.37646.37646,0,0,0-.01463.14645.26961.26961,0,0,0,.038.05282.64428.64428,0,0,0-.13229.31379c.05172.47024.638.57071.638.57071a2.51571,2.51571,0,0,0,.84593.40941.71472.71472,0,0,0,.04838-.1286c1.5579,1.90417-.023,4.40088.04266,4.47372.05714-.09516,1.19811-1.84787.8754-3.24983Z" fill="#458132"/></g></svg>