<svg xmlns="http://www.w3.org/2000/svg" viewBox="0 0 40 40"><g id="EA45_flag_cambidia"><rect y="7" width="40" height="26" fill="#032ea1"/><rect y="13.5" width="40" height="13" fill="#e00025"/><path d="M26.18555,21.875l-.01294-.00006V20.56677a.51346.51346,0,0,1,.29077-.34344V19.07178l-.23877.12909v-.49329a.14125.14125,0,0,0-.16065-.0036l-.00048.12524h-.27491v.1764h-.00146l-2.10938.26007H16.21191l-1.99731-.25531h-.00171v-.18116h-.27515V18.704a.14123.14123,0,0,0-.16064.0036v.49219c-.002-.005-.23877-.20789-.23877-.20789v1.23151a.51346.51346,0,0,1,.29077.34344V21.875h-.00024a.5972.5972,0,0,1-.28321.34045h12.9231A.59722.59722,0,0,1,26.18555,21.875Z" fill="#fff" stroke="#000" stroke-miterlimit="10" stroke-width="0.075"/><path d="M19.04978,18.49v-.35428c-.005-.17716-.17658-.19-.18163-.31912l.57306-2.26946h1.10432l.57307,2.26946c-.00505.12915-.17658.142-.18163.31911V18.49Z" fill="#fff" stroke="#000" stroke-miterlimit="10" stroke-width="0.075"/><path d="M20.2832,15.00592H20.137c.00025-.03931-.00317-.26971-.1438-.27252-.14062.00281-.144.23321-.14379.27252h-.146l-.19165.53882h.96289Z" fill="#fff" stroke="#000" stroke-miterlimit="10" stroke-width="0.075"/><path d="M21.83122,22.21545c-.1297-.05-.31854-.18681-.31854-.32445V20.336l.16886-.215H18.30388l.16187.215v1.555a.39769.39769,0,0,1-.25938.32445Z" fill="#fff" stroke="#000" stroke-miterlimit="10" stroke-width="0.075"/><path d="M18.24338,18.35113v1.77h3.45747v-.38124l.005-1.38874a.269.269,0,0,0-.16625.18375v.75373h-3.12v-.75373a.30005.30005,0,0,0-.17625-.18375Z" fill="#fff" stroke="#000" stroke-miterlimit="10" stroke-width="0.075"/><path d="M21.53938,19.95433V18.70076H18.42511v1.25356Z" fill="#fff" stroke="#000" stroke-miterlimit="10" stroke-width="0.075"/><path d="M20.73618,22.21545c-.11071-.05-.27193-.18679-.27193-.32444V20.40525l.09092-.135H19.42294l.09091.135V21.891c0,.13765-.16121.27445-.27192.32445Z" fill="#fff" stroke="#000" stroke-miterlimit="10" stroke-width="0.075"/><path d="M19.70258,20.27049h.5738v1.94413h-.5738Z" fill="#fff" stroke="#000" stroke-miterlimit="10" stroke-width="0.075"/><path d="M19.88242,16.41065l-.25257-.17362v-.20628c.08855.0205.18795.02887.19767.13752a.41868.41868,0,0,1,.17376-.29566.41875.41875,0,0,1,.17376.29566c.00971-.10864.10911-.117.19766-.13752V16.237l-.25257.17362Z" fill="#fff" stroke="#000" stroke-miterlimit="10" stroke-width="0.075"/><path d="M19.8645,16.98345l-.29042-.25507v-.303c.10182.03012.21611.04241.22729.202a.65785.65785,0,0,1,.19979-.43436.6578.6578,0,0,1,.1998.43436c.01117-.15961.12546-.17191.22728-.202v.303l-.29042.25507Z" fill="#fff" stroke="#000" stroke-miterlimit="10" stroke-width="0.075"/><path d="M20.564,17.322V16.9571a.334.334,0,0,0-.24163.20849.97908.97908,0,0,0-.33325-.53948.97868.97868,0,0,0-.33323.53948.33189.33189,0,0,0-.24163-.20849V17.322Z" fill="#fff" stroke="#000" stroke-miterlimit="10" stroke-width="0.075"/><path d="M20.6197,17.93193V17.567a.35737.35737,0,0,0-.26488.20849.96744.96744,0,0,0-.36529-.53948.96682.96682,0,0,0-.36529.53948.35482.35482,0,0,0-.26488-.20849v.36493Z" fill="#fff" stroke="#000" stroke-miterlimit="10" stroke-width="0.075"/><path d="M20.7733,18.68073v-.42089a.60777.60777,0,0,0-.32954.24317,1.04146,1.04146,0,0,0-.45447-.68915,1.06421,1.06421,0,0,0-.45447.68915.61553.61553,0,0,0-.32954-.24317v.42089Z" fill="#fff" stroke="#000" stroke-miterlimit="10" stroke-width="0.075"/><path d="M20.68114,19.61513v-.43275a.49357.49357,0,0,0-.24231.30184,1.31637,1.31637,0,0,0-.44953-1.0304,1.31653,1.31653,0,0,0-.44953,1.0304c-.04851-.09769-.09214-.243-.24232-.30184v.43275Z" fill="#fff" stroke="#000" stroke-miterlimit="10" stroke-width="0.075"/><path d="M16.1909,22.21545c-.11071-.05-.27191-.18681-.27191-.32445V20.336l.23161-.215H14.257l.23162.215v1.555c0,.13765-.16121.27445-.27192.32445Z" fill="#fff" stroke="#000" stroke-miterlimit="10" stroke-width="0.075"/><path d="M14.916,20.27049h.57484v1.94516H14.916Z" fill="#fff" stroke="#000" stroke-miterlimit="10" stroke-width="0.075"/><path d="M14.2101,20.10665V18.25443a2.95234,2.95234,0,0,0,.62416-.9445c0-.21421-.00823-.44524.269-.531,0,0,.016-.19636.116-.19636s.116.19636.116.19636c.2772.08572.269.31673.269.531a2.95243,2.95243,0,0,0,.62415.9445v1.85222Z" fill="#fff" stroke="#000" stroke-miterlimit="10" stroke-width="0.075"/><path d="M15.42034,17.77449l.054-.11682v-.16246a.12243.12243,0,0,0-.097.06071.32388.32388,0,0,0-.164-.19035.31837.31837,0,0,0-.164.18737.11874.11874,0,0,0-.097-.05773v.16246l.054.11682Z" fill="#fff" stroke="#000" stroke-miterlimit="10" stroke-width="0.075"/><path d="M15.42866,18.19881l.17247-.21034v-.20756a.18039.18039,0,0,0-.14412.10279c-.03964-.14226-.12679-.17334-.2436-.24231-.1168.069-.204.095-.24359.23726a.17378.17378,0,0,0-.14413-.09774v.20756l.17248.21034Z" fill="#fff" stroke="#000" stroke-miterlimit="10" stroke-width="0.075"/><path d="M15.47922,18.61545s.201-.17534.21293-.27159V18.122a.2531.2531,0,0,0-.20911.12052.46757.46757,0,0,0-.26954-.324.46754.46754,0,0,0-.26955.324.25312.25312,0,0,0-.2091-.12052v.2219a.97537.97537,0,0,0,.21292.27159Z" fill="#fff" stroke="#000" stroke-miterlimit="10" stroke-width="0.075"/><path d="M15.565,19.38473s.27529-.30473.2816-.42345v-.346a.385.385,0,0,0-.27655.22729.97537.97537,0,0,0-.35649-.625.97535.97535,0,0,0-.35649.625.385.385,0,0,0-.27655-.22729v.346a1.713,1.713,0,0,0,.2816.42345Z" fill="#fff" stroke="#000" stroke-miterlimit="10" stroke-width="0.075"/><path d="M15.565,19.83977a2.11478,2.11478,0,0,0,.2816-.34345v-.346a.385.385,0,0,0-.27655.22728.88948.88948,0,0,0-.35649-.58923.88945.88945,0,0,0-.35649.58923.385.385,0,0,0-.27655-.22728v.346a3.20726,3.20726,0,0,0,.2816.34345Z" fill="#fff" stroke="#000" stroke-miterlimit="10" stroke-width="0.075"/><path d="M23.81073,22.21545c.11071-.05.27192-.18681.27192-.32445V20.336l-.23162-.215h1.89363l-.23162.215v1.555c0,.13765.16121.27445.27192.32445Z" fill="#fff" stroke="#000" stroke-miterlimit="10" stroke-width="0.075"/><path d="M25.08561,20.27049h-.57484v1.94516h.57483Z" fill="#fff" stroke="#000" stroke-miterlimit="10" stroke-width="0.075"/><path d="M25.79153,20.10665V18.25443a2.95232,2.95232,0,0,1-.62415-.9445c0-.21421.00822-.44524-.269-.531,0,0-.016-.19636-.116-.19636s-.116.19636-.116.19636c-.2772.08572-.269.31673-.269.531a2.95245,2.95245,0,0,1-.62416.9445v1.85222Z" fill="#fff" stroke="#000" stroke-miterlimit="10" stroke-width="0.075"/><path d="M24.58129,17.77449l-.054-.11682v-.16246a.12242.12242,0,0,1,.097.06071.32388.32388,0,0,1,.164-.19035.31837.31837,0,0,1,.164.18737.11874.11874,0,0,1,.097-.05773v.16246l-.054.11682Z" fill="#fff" stroke="#000" stroke-miterlimit="10" stroke-width="0.075"/><path d="M24.573,18.19881l-.17247-.21034v-.20756a.18039.18039,0,0,1,.14412.10279c.03964-.14226.12679-.17334.2436-.24231.11681.069.204.095.2436.23726a.17375.17375,0,0,1,.14412-.09774v.20756l-.17248.21034Z" fill="#fff" stroke="#000" stroke-miterlimit="10" stroke-width="0.075"/><path d="M24.52241,18.61545s-.201-.17534-.21292-.27159V18.122a.2531.2531,0,0,1,.2091.12052.46756.46756,0,0,1,.26955-.324.46758.46758,0,0,1,.26955.324.25309.25309,0,0,1,.2091-.12052v.2219a.97555.97555,0,0,1-.21293.27159Z" fill="#fff" stroke="#000" stroke-miterlimit="10" stroke-width="0.075"/><path d="M24.43665,19.38473s-.27528-.30473-.28159-.42345v-.346a.385.385,0,0,1,.27654.22729.97542.97542,0,0,1,.35649-.625.9753.9753,0,0,1,.35649.625.385.385,0,0,1,.27655-.22729v.346a1.713,1.713,0,0,1-.2816.42345Z" fill="#fff" stroke="#000" stroke-miterlimit="10" stroke-width="0.075"/><path d="M24.43665,19.83977a2.11485,2.11485,0,0,1-.28159-.34345v-.346a.385.385,0,0,1,.27654.22728.88951.88951,0,0,1,.35649-.58923.88941.88941,0,0,1,.35649.58923.385.385,0,0,1,.27655-.22728v.346a3.20726,3.20726,0,0,1-.2816.34345Z" fill="#fff" stroke="#000" stroke-miterlimit="10" stroke-width="0.075"/><path d="M12.14956,23.79625H27.85068v.802H12.14957Z" fill="#fff" stroke="#000" stroke-miterlimit="10" stroke-width="0.075"/><path d="M11.73573,24.59689H28.26438v.80077H11.73575Z" fill="#fff" stroke="#000" stroke-miterlimit="10" stroke-width="0.075"/><path d="M12.974,22.59689H27.02585v.519H12.974Z" fill="#fff" stroke="#000" stroke-miterlimit="10" stroke-width="0.075"/><path d="M12.56319,23.11209h14.8736v.67981H12.5632Z" fill="#fff" stroke="#000" stroke-miterlimit="10" stroke-width="0.075"/><path d="M13.21951,22.19817h13.561v.39514h-13.561Z" fill="#fff" stroke="#000" stroke-miterlimit="10" stroke-width="0.075"/><path d="M14.69138,22.20009H15.7157v3.19584H14.69138Z" fill="#fff" stroke="#000" stroke-miterlimit="10" stroke-width="0.075"/><path d="M14.91794,22.20009h.5707V25.396H14.918Z" fill="#fff" stroke="#000" stroke-miterlimit="10" stroke-width="0.075"/><path d="M19.47026,22.20009h1.02439v3.19584H19.47033Z" fill="#fff" stroke="#000" stroke-miterlimit="10" stroke-width="0.075"/><path d="M19.70386,22.20009h.5707V25.396h-.57069Z" fill="#fff" stroke="#000" stroke-miterlimit="10" stroke-width="0.075"/><path d="M24.2773,22.20009h1.02432v3.19584H24.2773Z" fill="#fff" stroke="#000" stroke-miterlimit="10" stroke-width="0.075"/><path d="M24.50386,22.20009h.5707V25.396h-.57069Z" fill="#fff" stroke="#000" stroke-miterlimit="10" stroke-width="0.075"/><path d="M15.49931,25.02505h-.59162v-.0615h.59162Zm0-.4h-.59162v-.0615h.59162Zm0-.4h-.59162v-.0615h.59162Zm0-.4h-.59162v-.0615h.59162Zm0-.4h-.59162v-.0615h.59162Zm0-.4h-.59162v-.0615h.59162Zm0-.4h-.59162v-.0615h.59162Z"/><path d="M20.25725,25.02573h-.55081v-.0615h.55081Zm0-.40025h-.55081V24.564h.55081Zm0-.40018h-.55081v-.0615h.55081Zm0-.40019h-.55081v-.0615h.55081Zm0-.40025h-.55081v-.0615h.55081Zm0-.40019h-.55081v-.0615h.55081Zm0-.40025h-.55081v-.0615h.55081Z"/><path d="M25.08525,25.02505h-.59163v-.0615h.59163Zm0-.4h-.59163v-.0615h.59163Zm0-.4h-.59163v-.0615h.59163Zm0-.4h-.59163v-.0615h.59163Zm0-.4h-.59163v-.0615h.59163Zm0-.4h-.59163v-.0615h.59163Zm0-.4h-.59163v-.0615h.59163Z"/></g></svg>