<svg xmlns="http://www.w3.org/2000/svg" xmlns:xlink="http://www.w3.org/1999/xlink" viewBox="0 0 40 40"><defs><clipPath id="clip-path"><circle cx="20" cy="20" r="4" fill="none"/></clipPath></defs><g id="EA45_flag_kyrgizstan"><rect y="7" width="40" height="26" fill="#e8112d"/><g id="r4"><path id="r1" d="M19.664,24.32c.336.88-.384,2.24.336,2.88-.24-.96.56-2,.336-2.88S19.328,23.44,19.664,24.32Z" fill="#ffef00"/><path id="r1-2" data-name="r1" d="M15.68,19.664C14.8,20,13.44,19.28,12.8,20c.96-.24,2,.56,2.88.336S16.56,19.328,15.68,19.664Z" fill="#ffef00"/><path id="r1-3" data-name="r1" d="M20.336,15.68C20,14.8,20.72,13.44,20,12.8c.24.96-.56,2-.336,2.88S20.672,16.56,20.336,15.68Z" fill="#ffef00"/><path id="r1-4" data-name="r1" d="M24.32,20.336C25.2,20,26.56,20.72,27.2,20c-.96.24-2-.56-2.88-.336S23.44,20.672,24.32,20.336Z" fill="#ffef00"/></g><g id="r4-2" data-name="r4"><path id="r1-5" data-name="r1" d="M18.34549,24.00473c.04762.94076-1.0574,2.01171-.57041,2.84288.0684-.98718,1.15062-1.72907,1.20952-2.63522S18.29787,23.064,18.34549,24.00473Z" fill="#ffef00"/><path id="r1-6" data-name="r1" d="M15.99527,18.34549c-.94076.04762-2.01171-1.0574-2.84288-.57041.98718.0684,1.72907,1.15062,2.63522,1.20952S16.936,18.29787,15.99527,18.34549Z" fill="#ffef00"/><path id="r1-7" data-name="r1" d="M21.65451,15.99527c-.04762-.94076,1.0574-2.01171.57041-2.84288-.0684.98718-1.15062,1.72907-1.20952,2.63522S21.70213,16.936,21.65451,15.99527Z" fill="#ffef00"/><path id="r1-8" data-name="r1" d="M24.00473,21.65451c.94076-.04762,2.01171,1.0574,2.84288.57041-.98718-.0684-1.72907-1.15062-2.63522-1.20952S23.064,21.70213,24.00473,21.65451Z" fill="#ffef00"/></g><g id="r4-3" data-name="r4"><path id="r1-9" data-name="r1" d="M17.18894,23.29746c-.24542.90943-1.6273,1.58649-1.421,2.52746.37011-.91772,1.62862-1.28887,1.96465-2.13247S17.43436,22.388,17.18894,23.29746Z" fill="#ffef00"/><path id="r1-10" data-name="r1" d="M16.70254,17.18894c-.90943-.24542-1.58649-1.6273-2.52746-1.421.91772.37011,1.28887,1.62862,2.13247,1.96465S17.612,17.43436,16.70254,17.18894Z" fill="#ffef00"/><path id="r1-11" data-name="r1" d="M22.81106,16.70254c.24542-.90943,1.6273-1.58649,1.421-2.52746-.37011.91772-1.62862,1.28887-1.96465,2.13247S22.56564,17.612,22.81106,16.70254Z" fill="#ffef00"/><path id="r1-12" data-name="r1" d="M23.29746,22.81106c.90943.24542,1.58649,1.6273,2.52746,1.421-.91772-.37011-1.28887-1.62862-2.13247-1.96465S22.388,22.56564,23.29746,22.81106Z" fill="#ffef00"/></g><g id="r4-4" data-name="r4"><path id="r1-13" data-name="r1" d="M16.30755,22.2674c-.51444.78908-2.03791,1.006-2.13247,1.96465.63559-.75843,1.94719-.72252,2.52746-1.421S16.822,21.47832,16.30755,22.2674Z" fill="#ffef00"/><path id="r1-14" data-name="r1" d="M17.7326,16.30755c-.78908-.51444-1.006-2.03791-1.96465-2.13247.75843.63559.72252,1.94719,1.421,2.52746S18.52168,16.822,17.7326,16.30755Z" fill="#ffef00"/><path id="r1-15" data-name="r1" d="M23.69245,17.7326c.51444-.78908,2.03791-1.006,2.13247-1.96465-.63559.75843-1.94719.72252-2.52746,1.421S23.178,18.52168,23.69245,17.7326Z" fill="#ffef00"/><path id="r1-16" data-name="r1" d="M22.2674,23.69245c.78908.51444,1.006,2.03791,1.96465,2.13247-.75843-.63559-.72252-1.94719-1.421-2.52746S21.47832,23.178,22.2674,23.69245Z" fill="#ffef00"/></g><g id="r20"><g id="r4-5" data-name="r4"><path id="r1-17" data-name="r1" d="M15.78761,21.0154c-.7331.59149-2.249.327-2.63522,1.20952.83885-.52491,2.07517-.08544,2.84288-.57041S16.52071,20.42391,15.78761,21.0154Z" fill="#ffef00"/><path id="r1-18" data-name="r1" d="M18.9846,15.78761c-.59149-.7331-.327-2.249-1.20952-2.63522.52491.83885.08544,2.07517.57041,2.84288S19.57609,16.52071,18.9846,15.78761Z" fill="#ffef00"/><path id="r1-19" data-name="r1" d="M24.21239,18.9846c.7331-.59149,2.249-.327,2.63522-1.20952-.83885.52491-2.07517.08544-2.84288.57041S23.47929,19.57609,24.21239,18.9846Z" fill="#ffef00"/><path id="r1-20" data-name="r1" d="M21.0154,24.21239c.59149.7331.327,2.249,1.20952,2.63522-.52491-.83885-.08544-2.07517-.57041-2.84288S20.42391,23.47929,21.0154,24.21239Z" fill="#ffef00"/></g></g><g id="r4-6" data-name="r4"><path id="r1-21" data-name="r1" d="M18.99234,24.21425c.1942.92173-.72969,2.15235-.11867,2.89711-.08687-.98573.866-1.88778.7824-2.792S18.79814,23.29252,18.99234,24.21425Z" fill="#ffef00"/><path id="r1-22" data-name="r1" d="M15.78575,18.99234c-.92173.1942-2.15235-.72969-2.89711-.11867.98573-.08687,1.88778.866,2.792.7824S16.70748,18.79814,15.78575,18.99234Z" fill="#ffef00"/><path id="r1-23" data-name="r1" d="M21.00766,15.78575c-.1942-.92173.72969-2.15235.11867-2.89711.08687.98573-.866,1.88778-.7824,2.792S21.20186,16.70748,21.00766,15.78575Z" fill="#ffef00"/><path id="r1-24" data-name="r1" d="M24.21425,21.00766c.92173-.1942,2.15235.72969,2.89711.11867-.98573.08687-1.88778-.866-2.792-.7824S23.29252,21.20186,24.21425,21.00766Z" fill="#ffef00"/></g><g id="r4-7" data-name="r4"><path id="r1-25" data-name="r1" d="M17.73938,23.69661c-.10013.93662-1.35908,1.82152-1.00811,2.71864.222-.96433,1.40694-1.52778,1.60687-2.41356S17.83952,22.76,17.73938,23.69661Z" fill="#ffef00"/><path id="r1-26" data-name="r1" d="M16.30339,17.73938c-.93662-.10013-1.82152-1.35908-2.71864-1.00811.96433.222,1.52778,1.40694,2.41356,1.60687S17.24,17.83952,16.30339,17.73938Z" fill="#ffef00"/><path id="r1-27" data-name="r1" d="M22.26062,16.30339c.10013-.93662,1.35908-1.82152,1.00811-2.71864-.222.96433-1.40694,1.52778-1.60687,2.41356S22.16048,17.24,22.26062,16.30339Z" fill="#ffef00"/><path id="r1-28" data-name="r1" d="M23.69661,22.26062c.93662.10013,1.82152,1.35908,2.71864,1.00811-.96433-.222-1.52778-1.40694-2.41356-1.60687S22.76,22.16048,23.69661,22.26062Z" fill="#ffef00"/></g><g id="r4-8" data-name="r4"><path id="r1-29" data-name="r1" d="M16.70771,22.81711c-.38467.85985-1.85545,1.31239-1.79888,2.27406.50912-.84853,1.81019-1.01823,2.27406-1.79888S17.09238,21.95727,16.70771,22.81711Z" fill="#ffef00"/><path id="r1-30" data-name="r1" d="M17.18289,16.70771c-.85985-.38467-1.31239-1.85545-2.27406-1.79888.84853.50912,1.01823,1.81019,1.79888,2.27406S18.04273,17.09238,17.18289,16.70771Z" fill="#ffef00"/><path id="r1-31" data-name="r1" d="M23.29229,17.18289c.38467-.85985,1.85545-1.31239,1.79888-2.27406-.50912.84853-1.81019,1.01823-2.27406,1.79888S22.90762,18.04273,23.29229,17.18289Z" fill="#ffef00"/><path id="r1-32" data-name="r1" d="M22.81711,23.29229c.85985.38467,1.31239,1.85545,2.27406,1.79888-.84853-.50912-1.01823-1.81019-1.79888-2.27406S21.95727,22.90762,22.81711,23.29229Z" fill="#ffef00"/></g><g id="r4-9" data-name="r4"><path id="r1-33" data-name="r1" d="M15.99831,21.66186c-.63154.69889-2.17019.67479-2.41356,1.60687.74641-.64967,2.03625-.409,2.71864-1.00811S16.62986,20.963,15.99831,21.66186Z" fill="#ffef00"/><path id="r1-34" data-name="r1" d="M18.33814,15.99831c-.69889-.63154-.67479-2.17019-1.60687-2.41356.64967.74641.409,2.03625,1.00811,2.71864S19.037,16.62986,18.33814,15.99831Z" fill="#ffef00"/><path id="r1-35" data-name="r1" d="M24.00169,18.33814c.63154-.69889,2.17019-.67479,2.41356-1.60687-.74641.64967-2.03625.409-2.71864,1.00811S23.37014,19.037,24.00169,18.33814Z" fill="#ffef00"/><path id="r1-36" data-name="r1" d="M21.66186,24.00169c.69889.63154.67479,2.17019,1.60687,2.41356-.64967-.74641-.409-2.03625-1.00811-2.71864S20.963,23.37014,21.66186,24.00169Z" fill="#ffef00"/></g><g id="r20-2" data-name="r20"><g id="r4-10" data-name="r4"><path id="r1-37" data-name="r1" d="M15.68062,20.34393c-.8166.46953-2.27249-.02886-2.792.7824.91064-.38722,2.063.24023,2.89711-.11867S16.49723,19.87441,15.68062,20.34393Z" fill="#ffef00"/><path id="r1-38" data-name="r1" d="M19.65607,15.68062c-.46953-.8166.02886-2.27249-.7824-2.792.38722.91064-.24023,2.063.11867,2.89711S20.12559,16.49723,19.65607,15.68062Z" fill="#ffef00"/><path id="r1-39" data-name="r1" d="M24.31938,19.65607c.8166-.46953,2.27249.02886,2.792-.7824-.91064.38722-2.063-.24023-2.89711.11867S23.50277,20.12559,24.31938,19.65607Z" fill="#ffef00"/><path id="r1-40" data-name="r1" d="M20.34393,24.31938c.46953.8166-.02886,2.27249.7824,2.792-.38722-.91064.24023-2.063-.11867-2.89711S19.87441,23.50277,20.34393,24.31938Z" fill="#ffef00"/></g></g><circle cx="20" cy="20" r="4.32" fill="#e8112d"/><circle cx="20" cy="19.76" r="3.6" fill="#ffef00"/><g clip-path="url(#clip-path)"><g id="x"><path d="M16.31116,22.88a6.04084,6.04084,0,0,1,12.08168-.0021V22.88h.04883a5.80167,5.80167,0,0,0-11.60334,0Z" fill="#e8112d"/><path d="M17.18381,22.88a5.64819,5.64819,0,0,1,11.29638,0h.06774a5.42793,5.42793,0,0,0-10.85586,0Z" fill="#e8112d"/><path d="M23.312,17.59162a5.28838,5.28838,0,0,0,0,10.57676l.288-.19721a5.09117,5.09117,0,0,1-.00023-10.18234H23.6Z" fill="#e8112d"/></g></g><g clip-path="url(#clip-path)"><g id="x-2" data-name="x"><path d="M23.68884,22.88a6.04084,6.04084,0,1,0-12.08168-.0021V22.88h-.04883a5.80167,5.80167,0,0,1,11.60334,0Z" fill="#e8112d"/><path d="M22.81619,22.88a5.64819,5.64819,0,0,0-11.29638,0h-.06774a5.42793,5.42793,0,0,1,10.85586,0Z" fill="#e8112d"/><path d="M16.688,17.59162a5.28838,5.28838,0,0,1,0,10.57676l-.288-.19721a5.09117,5.09117,0,0,0,.00023-10.18234H16.4Z" fill="#e8112d"/></g></g></g></svg>