<svg xmlns="http://www.w3.org/2000/svg" viewBox="0 0 40 40"><g id="EA45_flag_tajikistan"><rect y="7" width="40" height="26" fill="#060"/><rect y="7" width="40" height="18.57143" fill="#fff"/><rect y="7" width="40" height="7.42857" fill="#c00"/><path d="M19.01988,19.6682a.43755.43755,0,0,1,.8156.20653v1.75021h.329V19.87473a.43756.43756,0,0,1,.8156-.20653,1.03263,1.03263,0,1,0-1.96024,0" fill="#f8c300"/><path d="M19.25441,19.2114A.70007.70007,0,0,1,20,19.54569a.70007.70007,0,0,1,.74559-.33429.75259.75259,0,0,0-1.49118,0" fill="#fff"/><path id="w" d="M19.83548,20.9258a1.33017,1.33017,0,0,1-2.23485.85117,1.38266,1.38266,0,0,1-2.09094.61141c.12775,1.27507,2.03907,1.01474,2.18146-.225.60047,1.05415,1.92079.75224,2.30713-.53907Z" fill="#f8c300"/><path id="w-2" data-name="w" d="M20.16452,20.9258a1.33017,1.33017,0,0,0,2.23485.85117,1.38266,1.38266,0,0,0,2.09094.61141c-.12775,1.27507-2.03907,1.01474-2.18146-.225-.60047,1.05415-1.92079.75224-2.30713-.53907Z" fill="#f8c300"/><path id="r" d="M18.55923,23.19a.71677.71677,0,0,1-1.2659.20986,1.13361,1.13361,0,0,1,.38806-.16893.6288.6288,0,0,1,.14826-.5014.76683.76683,0,0,1,.31363.41564.68548.68548,0,0,1,.41595.04486Z" fill="#f8c300"/><path id="r-2" data-name="r" d="M20.64543,23.1248a.71677.71677,0,0,1-1.28317.001,1.13346,1.13346,0,0,1,.41038-.1035.62882.62882,0,0,1,.22791-.47057.76681.76681,0,0,1,.24178.46116.68549.68549,0,0,1,.4031.112Z" fill="#f8c300"/><path id="r-3" data-name="r" d="M22.7144,23.40014a.71676.71676,0,0,1-1.2662-.208,1.1336,1.1336,0,0,1,.42176-.0353.62881.62881,0,0,1,.30148-.42719.76685.76685,0,0,1,.16347.49437.68549.68549,0,0,1,.37949.17611Z" fill="#f8c300"/><path d="M23.3022,24.78744a11.54467,11.54467,0,0,0-6.60442,0l-.1864-.62629a12.19828,12.19828,0,0,1,6.97722,0Z" fill="#f8c300"/><polygon points="20.197 15.873 20 15.268 19.803 15.873 19.168 15.873 19.682 16.247 19.486 16.851 20 16.477 20.514 16.851 20.318 16.247 20.832 15.873 20.197 15.873" fill="#f8c300"/><polygon points="17.746 16.529 17.55 15.925 17.353 16.529 16.717 16.529 17.232 16.903 17.035 17.508 17.55 17.134 18.064 17.508 17.868 16.903 18.382 16.529 17.746 16.529" fill="#f8c300"/><polygon points="15.952 18.323 15.756 17.718 15.56 18.323 14.924 18.323 15.438 18.697 15.242 19.302 15.756 18.928 16.27 19.302 16.074 18.697 16.588 18.323 15.952 18.323" fill="#f8c300"/><polygon points="15.296 20.774 15.099 20.169 14.903 20.774 14.267 20.774 14.782 21.147 14.585 21.752 15.099 21.378 15.614 21.752 15.417 21.147 15.932 20.774 15.296 20.774" fill="#f8c300"/><polygon points="22.647 16.529 22.45 15.925 22.254 16.529 21.618 16.529 22.132 16.903 21.936 17.508 22.45 17.134 22.965 17.508 22.768 16.903 23.283 16.529 22.647 16.529" fill="#f8c300"/><polygon points="24.244 18.928 24.758 19.302 24.562 18.697 25.076 18.323 24.441 18.323 24.244 17.718 24.048 18.323 23.412 18.323 23.926 18.697 23.73 19.302 24.244 18.928" fill="#f8c300"/><polygon points="25.218 21.147 25.733 20.774 25.097 20.774 24.901 20.169 24.704 20.774 24.068 20.774 24.583 21.147 24.386 21.752 24.901 21.378 25.415 21.752 25.218 21.147" fill="#f8c300"/></g></svg>