<svg xmlns="http://www.w3.org/2000/svg" viewBox="0 0 40 40"><g id="t11_1p144"><rect y="7" width="40" height="26" fill="#ffb700"/><path d="M1.66667,20l5.5-10.83333h5.5V30.83333h-5.5Z" fill="#ff5b00"/><rect x="1.66667" y="9.16667" width="5.5" height="21.66667" fill="#005641"/><rect x="14.33333" y="9.16667" width="24.16667" height="21.66667" fill="#8d2029"/><path id="leaf" d="M36.20333,26.70949a2.75494,2.75494,0,0,0,.477.78708c.37093.3376,1.1315.31321,1.4543.70707.3868.46444-.03,1.07806-.02653,1.13131l.02121.32407a3.25214,3.25214,0,0,0-.37063.02456c-.16513.03121-.22954.19407-.537.16988-.773-.06082-.7418-.90493-.78553-1.62626-.03882-.27468-.12865-.63281-.1797-.9074a4.94183,4.94183,0,0,1-.05311-.6103Z" fill="#f9b510"/><path id="leaf-2" data-name="leaf" d="M16.63,26.70949a2.75507,2.75507,0,0,1-.477.78708c-.37094.3376-1.1315.31321-1.45431.70707-.3868.46444.03,1.07806.02653,1.13131l-.02121.32407a3.25227,3.25227,0,0,1,.37064.02456c.16513.03121.22953.19407.537.16988.773-.06082.7418-.90493.78554-1.62626.03882-.27468.12864-.63281.17969-.9074a4.93971,4.93971,0,0,0,.05311-.6103Z" fill="#f9b510"/><path id="leaf-3" data-name="leaf" d="M36.20333,13.29051a2.75494,2.75494,0,0,1,.477-.78708c.37093-.3376,1.1315-.31321,1.4543-.70707.3868-.46444-.03-1.07806-.02653-1.13131l.02121-.32407a3.25214,3.25214,0,0,1-.37063-.02456c-.16513-.03121-.22954-.19407-.537-.16988-.773.06082-.7418.90493-.78553,1.62626-.03882.27468-.12865.63281-.1797.9074a4.94183,4.94183,0,0,0-.05311.6103Z" fill="#f9b510"/><path id="leaf-4" data-name="leaf" d="M16.63,13.29051a2.75507,2.75507,0,0,0-.477-.78708c-.37094-.3376-1.1315-.31321-1.45431-.70707-.3868-.46444.03-1.07806.02653-1.13131l-.02121-.32407a3.25227,3.25227,0,0,0,.37064-.02456c.16513-.03121.22953-.19407.537-.16988.773.06082.7418.90493.78554,1.62626.03882.27468.12864.63281.17969.9074a4.93971,4.93971,0,0,1,.05311.6103Z" fill="#f9b510"/><path d="M24.58982,27.33819c.1961.03085.19907.02916.3138-.17948a2.3214,2.3214,0,0,0,.0518-.81674c-.00871-.19674-.00777-.198.22866-.29776.13057-.05511-.11354-1.12461.20789-1.72235.35443-.58967.46852-.60321.46852-.60321a12.95958,12.95958,0,0,1,3.1412-1.15782,1.4848,1.4848,0,0,1,1.31447.73091c.23062.29319,1.7611,1.52513,1.80226,2.29769.04172.78275.021.82522-.46746.956a.932.932,0,0,0-.74937.67544,6.27266,6.27266,0,0,0,2.33613.06929.40893.40893,0,0,0-.06222-.242,1.58737,1.58737,0,0,1-.27586-.76436,10.82384,10.82384,0,0,0,.10815-1.73685,3.34313,3.34313,0,0,1,.13955-2.168,7.60915,7.60915,0,0,0,.22521-2.86829c-.06394-.18676-.46034-.89633-.46034-.89633l.22089-.22182a1.38276,1.38276,0,0,0-.27544-2.21289,1.15863,1.15863,0,0,0-.74573-.13865c-.26114.00213-1.504.18229-1.771.18359-.42417.00207-.49617-.01061-.65964-.11607-.17044-.11-.19966-.16218-.233-.41637a.15284.15284,0,0,0-.067-.11582c-.058-.02216-.40071.44154-.458.35947-.038-.05451-.10257-.71205.13782-.85129l.18651-.108-.11-.08272c-.22694-.1707-.83494.37265-.84809.37282a.87226.87226,0,0,1-.16675-.16887.63786.63786,0,0,1,.1997-1.01725c.209-.08359.39393-.01983.4324.14909.05874.25788.24136-.0811.20861-.38723-.02178-.20353-.0185-.21059.09768-.21059a.89185.89185,0,0,1,.59047,1.32925l-.10676.21437.13965-.0339a.82.82,0,0,0,.50436-.39079,1.074,1.074,0,0,0,.02349-.7901c-.09143-.20126-.08094-.2332.05423-.16519a.83522.83522,0,0,1,.445.46185.5572.5572,0,0,1,.04271.45075,1.44023,1.44023,0,0,1-.13712.36964c-.07425.1197-.07678.13977-.01763.13977a.747.747,0,0,0,.42194-.23181,1.11352,1.11352,0,0,0,.13373-.29143l.05869-.19459.06743.14833a1.13316,1.13316,0,0,0,.5068.516c.2431.12632.34434.13344.21722.01527a1.44867,1.44867,0,0,1-.19583-.69649,3.27391,3.27391,0,0,1,.7351.68558c.3565.38791.5805.515.90794.515a.57432.57432,0,0,0,.4738-.85863c-.1096-.24329-.35377-.27709-.49654-.06873a.32764.32764,0,0,0-.06444.27253c.02355.12311.01436.13951-.07817.13951-.12158,0-.36124-.18854-.78687-.619a6.19936,6.19936,0,0,0-2.00713-1.41616,3.66327,3.66327,0,0,0-1.5176-.099,2.33552,2.33552,0,0,0-1.13671.66663,1.45919,1.45919,0,0,0-.01938,1.87414l.128.18364s-.202.72018-.0599.95553a.68962.68962,0,0,0,.14028.18838c.01458,0,.121-.492.24613-.54661.11271-.0492.18558-.026.7017.22374a3.80864,3.80864,0,0,0,2.38536.04824,2.205,2.205,0,0,1,1.2558.01533.82746.82746,0,0,1,.21985,1.25342c-.14085.19216-.27669.27041-.73276.42214-.34707.11545-4.85965.23607-4.88191.19041-.02372-.04865-.32839-1.0845.02018-.8468a16.137,16.137,0,0,0,.04113-1.64722,3.45412,3.45412,0,0,0-.25629-1.43627,3.49835,3.49835,0,0,0,.42747-.84395l.02856-.205s-.337.35013-.48164.35013a.30462.30462,0,0,1-.29568-.15375,1.21391,1.21391,0,0,0-.5183-.36351c-.07289-.02587-.09712-.0146-.09712.04517,0,.0438-.17894.48229-.17894.48229a3.96692,3.96692,0,0,0-.54042-.50195c-.25936-.08267-.27341-.07446-.27341.15976,0,.35528-.12514.42146-.35037.18533a.61576.61576,0,0,0-.6397-.17578l-.25145.0335a.7608.7608,0,0,1-.00645.43146.59753.59753,0,0,1-.56493.30342,9.91573,9.91573,0,0,0-.99989.22258c-.06185.028-.06864.00492-.04872-.16558a.36746.36746,0,0,0-.35423-.45341c-.30406,0-.4443.32966-.32523.76452.02292.0837.05291.21568.06664.29331a1.76106,1.76106,0,0,0,.319.4977,4.20941,4.20941,0,0,1,.3396.45345,2.59508,2.59508,0,0,0,.323.28322s-.00286-.40857.08391-.26907c.031.04987.29381.25732.29381.19078,0-.04224.09317-.35578.09317-.35578a8.95314,8.95314,0,0,1,.73442,1.57205c-.03273.03757-.8556-.04891-.76422-.18758.09644-.14637.0811-.17051-.10836-.17051a3.34542,3.34542,0,0,1-.97227-.22755c-.20311-.09742-.25-.07317-.30976.16034-.0269.1051-.17.65529-.17.65529s1.785.71333,1.80729.54143a.41226.41226,0,0,1,.13373-.20647c.13379-.11425.23461-.08.29241.0994.05984.18568-.07361.37707-.46176.66227a3.31513,3.31513,0,0,0-1.35857,2.3486,2.903,2.903,0,0,0,.97633,2.49325,1.919,1.919,0,0,0,.8681.52732s.02551-.03412.23352.6512c.28169,1.00129.2427,1.42921-.156,1.71208-.128.09084-.21048.10581-.55476.10075-.37357-.0055-.41427.00361-.5342.11945a1.2985,1.2985,0,0,0-.267.65313A19.18509,19.18509,0,0,0,24.58982,27.33819Z" fill="#f9b510"/><path d="M29.87982,27.34714a1.61972,1.61972,0,0,0,.471-.11047c.4223.329.64733-.01617.4586-.70348-.096-.34947-.0432-.54594.2661-.99075a1.48544,1.48544,0,0,0,.23738-.44488c0-.09107-.02413-.10327-.19771-.0991a.28232.28232,0,0,1-.30215-.13428.52331.52331,0,0,1,.02521-.64824l.127-.19265L30.74,23.83794a4.09554,4.09554,0,0,1-.49664-.536,1.5341,1.5341,0,0,0-1.09916-.68505l-.29135-.03123.00043.26731a2.27986,2.27986,0,0,0,.49747,1.23588,2.12514,2.12514,0,0,1,.45913,1.56953l.01416.70473-.11965.1376c-.10812.12434-.15688.14021-.50577.16459-.33215.02322-.40193.044-.4994.14865a.68949.68949,0,0,0-.20813.40659c-.0233.11187-.01386.13626.05275.13626C28.58842,27.35684,29.75694,27.33663,29.87982,27.34714Z" fill="#f9b510"/><path d="M19.894,25.41333a.501.501,0,0,0,.06719-.21735c0-.08909.03285-.11287.19438-.14068l.19439-.03346-.12964-.12522c-.154-.14877-.16826-.265-.03251-.26524a.54139.54139,0,0,0,.399-.29608.23294.23294,0,0,0-.023-.17685.13183.13183,0,0,0-.24476.02716c-.02845.12489-.07608.12522-.18406.00123a.719.719,0,0,1-.00753-.79725c.07472-.10593.07406-.11288-.02121-.22224-.10248-.11765-.17567-.3505-.12753-.40578.01532-.01758.09628-.00357.17993.03116.11885.04934.16577.05008.21473.00342.14832-.14131-.01237-.323-.25022-.28293-.09573.01613-.13528,0-.149-.06019-.0104-.04565-.09413-.10525-.18847-.13416-.16856-.05165-.16975-.051-.16975.08975,0,.15426-.07264.18336-.21069.0844-.11216-.08041-.221-.018-.221.1268,0,.13509.11208.20171.31294.186.15406-.012.1598.12683.01348.32645l-.10523.14355.08336.14516a.7705.7705,0,0,1-.02181.74938l-.10574.139-.06936-.11148c-.0964-.15494-.22826-.14455-.26441.02082-.02368.10829-.00411.15778.10777.27253a.45159.45159,0,0,0,.24392.14021c.14595,0,.14024.13912-.01147.27966l-.1187.11.18345.03449c.1009.019.18345.05466.18345.0793a.798.798,0,0,0,.168.38848c.02361,0,.07316-.04956.11011-.11013Z" fill="#f9b510"/><path d="M22.81,23.61705c0-.02877-2.24134-3.11976-2.24134-3.11976s-.43632.12143-.4894.12241c-.09147.00168.16009.24247.16009.24247s.36041-.239.38192-.14462a.33167.33167,0,0,1-.06278.22138c-.04673.06819-.08986.25335-.15891.29435-.128.076-.21689.72248-.11676.72248a16.09979,16.09979,0,0,1,.50928,1.56962c.06949.07982.07554.0801.07554.00358a.23983.23983,0,0,1,.22009-.18579c.02921,0,.98209.88145,1.00066.88516A3.53338,3.53338,0,0,0,22.81,23.61705Z" fill="#f9b510"/><path d="M20.19867,22.18182c0-.13171-.22414-.2723-.49224-.30875-.21644-.02943-.22-.02776-.22.10329,0,.10849.034.15117.18344.23.24008.12669.52877.11329.52877-.02456Z" fill="#f9b510"/><path d="M20.21133,21.7802c.00927-.07431-.02865-.1239-.14232-.18612-.24519-.13423-.53833-.19639-.60893-.12914-.13.12389-.0434.29022.16676.32015a1.09326,1.09326,0,0,1,.25494.0695C20.0433,21.93063,20.1969,21.896,20.21133,21.7802Z" fill="#f9b510"/><path d="M20.21133,21.38222c.0132-.106-.04272-.14394-.49926-.33872-.34084-.14541-.49174-.07684-.3828.174.03794.08737.10163.12728.24446.15321a2.29334,2.29334,0,0,1,.32264.08379c.19028.07159.3002.04638.315-.07224Z" fill="#f9b510"/><path d="M20.44,21.00929a.56718.56718,0,0,0,.12524-.222c0-.12146-.27205.09342-.30672.24226-.0416.17853.02583.171.18149-.0203Z" fill="#f9b510"/><path d="M20.21133,20.98424c.015-.12075-.15065-.2298-.47646-.31362-.239-.0615-.34447-.02662-.32657.108.00977.0735.08938.1272.31522.21263.36143.13671.47013.13515.4878-.007Z" fill="#f9b510"/><path d="M20.53,20.42222c.4175-.22527.4536-.79333.05992-.94246-.16346-.06193-.2678-.02856-.33037.10564-.04791.10277-.01587.2896.04966.2896.02214,0,.04025.03459.04025.07685,0,.19725-.63743.28663-.89883.126-.09184-.05642-.13182-.20287-.05539-.20287.05712,0,.09661-.14923.06742-.25478-.03976-.14381-.15933-.19363-.33277-.13866-.39133.124-.38033.68142.0181.91794a1.75943,1.75943,0,0,0,1.382.02275Z" fill="#f9b510"/><path d="M20.27033,19.98546c.02418-.02776.01367-.07041-.02686-.109-.08876-.08456-.084-.21033.01334-.3543.07311-.10812.08224-.26992.10741-1.902a24.18342,24.18342,0,0,1,.44333-5.43556c.09054-.202.07784-.20286-.15613-.0099a2.65616,2.65616,0,0,0-.7342,1.0356c-.38387.87479-.51727,2.05172-.51727,4.564a5.82788,5.82788,0,0,0,.07505,1.74719.31731.31731,0,0,1,.02233.31044.36594.36594,0,0,0-.02923.18728,1.09272,1.09272,0,0,0,.80223-.03354Z" fill="#f9b510"/></g></svg>