<svg xmlns="http://www.w3.org/2000/svg" viewBox="0 0 40 40"><g id="EA45_flag_georgia"><rect y="7" width="40" height="26" fill="#fff"/><path d="M17.33333,7V17.4H0v5.2H17.33333V33h5.33334V22.6H40V17.4H22.66667V7Z" fill="red"/><path d="M9.27692,11.2431a13.87911,13.87911,0,0,1,.22552-1.90588,7.39509,7.39509,0,0,1-1.81817,0,13.89776,13.89776,0,0,1,.22552,1.90588A13.89578,13.89578,0,0,1,6.004,11.01758a7.4113,7.4113,0,0,1,.056.90906,7.41052,7.41052,0,0,1-.056.909,13.88643,13.88643,0,0,1,1.90582-.22546,13.898,13.898,0,0,1-.22552,1.90582,7.39509,7.39509,0,0,1,1.81817,0,13.87935,13.87935,0,0,1-.22552-1.90582,13.88864,13.88864,0,0,1,1.90582.22546,7.40247,7.40247,0,0,1,0-1.81811A13.898,13.898,0,0,1,9.27692,11.2431Z" fill="red"/><path d="M32.09027,27.38977a13.88643,13.88643,0,0,1,.22546-1.90582,7.40247,7.40247,0,0,1-1.81811,0,13.88643,13.88643,0,0,1,.22546,1.90582,13.898,13.898,0,0,1-1.90582-.22552,7.39461,7.39461,0,0,1,0,1.81811,13.88864,13.88864,0,0,1,1.90582-.22546,13.88864,13.88864,0,0,1-.22546,1.90582,7.39461,7.39461,0,0,1,1.81811,0,13.88864,13.88864,0,0,1-.22546-1.90582,13.88864,13.88864,0,0,1,1.90582.22546,7.39461,7.39461,0,0,1,0-1.81811A13.898,13.898,0,0,1,32.09027,27.38977Z" fill="red"/><path d="M33.99609,11.01758a13.898,13.898,0,0,1-1.90582.22552,13.88841,13.88841,0,0,1,.22546-1.90588,7.39461,7.39461,0,0,1-1.81811,0,13.88841,13.88841,0,0,1,.22546,1.90588,13.898,13.898,0,0,1-1.90582-.22552,7.39461,7.39461,0,0,1,0,1.81811,13.88864,13.88864,0,0,1,1.90582-.22546,13.88864,13.88864,0,0,1-.22546,1.90582,7.39461,7.39461,0,0,1,1.81811,0,13.88864,13.88864,0,0,1-.22546-1.90582,13.88864,13.88864,0,0,1,1.90582.22546,7.39461,7.39461,0,0,1,0-1.81811Z" fill="red"/><path d="M9.27692,27.38977A13.87713,13.87713,0,0,1,9.50244,25.484a7.403,7.403,0,0,1-1.81817,0,13.89578,13.89578,0,0,1,.22552,1.90582A13.89578,13.89578,0,0,1,6.004,27.16425a7.41126,7.41126,0,0,1,.056.90905,7.41068,7.41068,0,0,1-.056.90906,13.88643,13.88643,0,0,1,1.90582-.22546,13.898,13.898,0,0,1-.22552,1.90582,7.39509,7.39509,0,0,1,1.81817,0,13.87935,13.87935,0,0,1-.22552-1.90582,13.88864,13.88864,0,0,1,1.90582.22546,7.40247,7.40247,0,0,1,0-1.81811A13.898,13.898,0,0,1,9.27692,27.38977Z" fill="red"/></g></svg>