<svg xmlns="http://www.w3.org/2000/svg" viewBox="0 0 40 40"><g id="EA45_flag_malawi"><rect y="7" width="40" height="26" fill="#252525"/><rect y="24.33333" width="40" height="8.66667" fill="#339e35"/><circle cx="20" cy="16.8" r="5.73333" fill="#ce1126"/><rect y="15.66667" width="40" height="8.66667" fill="#ce1126"/><g id="r2"><path id="r" d="M20,7.73333c-.19556,0-.26667.29334-.26667.57778A10.6698,10.6698,0,0,0,20,10.4a10.479,10.479,0,0,0,.26667-2.08889c0-.29333-.08889-.57778-.26667-.57778" fill="#ce1126"/><path id="r-2" data-name="r" d="M20.79021,7.76783c-.19481-.017-.29122.269-.316.55234a10.67045,10.67045,0,0,0,.0836,2.10418,10.47942,10.47942,0,0,0,.44771-2.05769c.02556-.29222-.0382-.58333-.2153-.59883" fill="#ce1126"/></g><g id="r4"><g id="r2-2" data-name="r2"><path id="r-3" data-name="r" d="M21.57441,7.87108c-.19258-.034-.31355.24257-.363.52269a10.67026,10.67026,0,0,0-.10011,2.10346,10.47891,10.47891,0,0,0,.62535-2.01085c.05093-.28887.01279-.58443-.16229-.6153" fill="#ce1126"/><path id="r-4" data-name="r" d="M22.34663,8.04227c-.1889-.05061-.3335.21432-.40712.48907a10.6699,10.6699,0,0,0-.28307,2.08673,10.47811,10.47811,0,0,0,.79823-1.94869c.07592-.28334.06368-.5811-.108-.62711" fill="#ce1126"/></g></g><g id="r8"><g id="r2-3" data-name="r2"><path id="r-5" data-name="r" d="M23.101,8.28012c-.18376-.06688-.35091.18444-.44819.45173a10.669,10.669,0,0,0-.46386,2.05412,10.47925,10.47925,0,0,0,.965-1.87171c.10032-.27564.11408-.57334-.053-.63414" fill="#ce1126"/><path id="r-6" data-name="r" d="M23.83174,8.58281c-.17723-.08265-.36565.15315-.48586.41095a10.66975,10.66975,0,0,0-.64112,2.00587,10.47854,10.47854,0,0,0,1.12448-1.78048c.124-.26585.16362-.56121.0025-.63634" fill="#ce1126"/></g><g id="r4-2" data-name="r4"><g id="r2-4" data-name="r2"><path id="r-7" data-name="r" d="M24.53333,8.948c-.16935-.09778-.3776.1207-.51983.367A10.67034,10.67034,0,0,0,23.2,11.25744a10.47892,10.47892,0,0,0,1.27538-1.6757c.14667-.254.21191-.54481.05795-.6337" fill="#ce1126"/><path id="r-8" data-name="r" d="M25.20043,9.373c-.16019-.11216-.38669.08733-.54984.32034a10.66878,10.66878,0,0,0-.9797,1.86407,10.4789,10.4789,0,0,0,1.41658-1.55817c.16825-.24028.25858-.52427.113-.62624" fill="#ce1126"/></g></g></g><g id="r2-5" data-name="r2"><path id="r-9" data-name="r" d="M25.82794,9.85453c-.1498-.1257-.39283.0533-.57567.27119a10.67047,10.67047,0,0,0-1.13843,1.7716,10.47841,10.47841,0,0,0,1.547-1.42878c.18855-.2247.3033-.49974.16711-.614" fill="#ce1126"/><path id="r-10" data-name="r" d="M26.4111,10.3889c-.13828-.13828-.396.01885-.59711.22a10.67032,10.67032,0,0,0-1.28851,1.66563A10.47788,10.47788,0,0,0,26.19111,10.986c.20742-.20742.3457-.4714.22-.59711" fill="#ce1126"/></g><g id="r4-3" data-name="r4"><g id="r2-6" data-name="r2"><path id="r-11" data-name="r" d="M26.94547,10.97206c-.1257-.1498-.39612-.01573-.614.16711a10.6695,10.6695,0,0,0-1.42878,1.547,10.47875,10.47875,0,0,0,1.7716-1.13843c.2247-.18856.38546-.43949.27119-.57567" fill="#ce1126"/><path id="r-12" data-name="r" d="M27.427,11.59957c-.11217-.16019-.39324-.05019-.62624.113a10.67023,10.67023,0,0,0-1.55817,1.41658,10.47784,10.47784,0,0,0,1.86407-.9797c.24029-.16825.42231-.40421.32034-.54984" fill="#ce1126"/></g></g><g id="r16"><g id="r8-2" data-name="r8"><g id="r2-7" data-name="r2"><path id="r-13" data-name="r" d="M27.852,12.26667c-.09777-.16936-.38736-.08428-.6337.05795A10.66953,10.66953,0,0,0,25.54256,13.6a10.47886,10.47886,0,0,0,1.94237-.8135c.254-.14667.45592-.36587.367-.51983" fill="#ce1126"/><path id="r-14" data-name="r" d="M28.21719,12.96826c-.08264-.17723-.37855-.11771-.63634.0025a10.67,10.67,0,0,0-1.78048,1.12448,10.47815,10.47815,0,0,0,2.00587-.64112c.26586-.124.48608-.32474.41095-.48586" fill="#ce1126"/></g><g id="r4-4" data-name="r4"><g id="r2-8" data-name="r2"><path id="r-15" data-name="r" d="M28.51988,13.699c-.06688-.18376-.36685-.15026-.63414-.053a10.67034,10.67034,0,0,0-1.87171.965,10.47785,10.47785,0,0,0,2.05412-.46386c.27565-.10032.51253-.28114.45173-.44819" fill="#ce1126"/><path id="r-16" data-name="r" d="M28.75773,14.45337c-.05062-.18889-.35236-.18166-.62711-.108a10.66989,10.66989,0,0,0-1.94869.79823,10.47886,10.47886,0,0,0,2.08673-.28307c.28333-.07592.53508-.2354.48907-.40712" fill="#ce1126"/></g></g></g></g><g id="r2-9" data-name="r2"><path id="r-17" data-name="r" d="M11.07108,15.22559c-.034.19258.24257.31355.52269.36295a10.67026,10.67026,0,0,0,2.10346.10011,10.47891,10.47891,0,0,0-2.01085-.62535c-.28887-.05093-.58443-.01279-.6153.16229" fill="#ce1126"/><path id="r-18" data-name="r" d="M11.24227,14.45337c-.05061.1889.21432.3335.48907.40712a10.6699,10.6699,0,0,0,2.08673.28307,10.47811,10.47811,0,0,0-1.94869-.79823c-.28334-.07592-.5811-.06368-.62711.108" fill="#ce1126"/></g><g id="r4-5" data-name="r4"><g id="r2-10" data-name="r2"><path id="r-19" data-name="r" d="M11.48012,13.699c-.06688.18376.18444.35091.45173.44819a10.669,10.669,0,0,0,2.05412.46386,10.47925,10.47925,0,0,0-1.87171-.965c-.27564-.10032-.57334-.11408-.63414.053" fill="#ce1126"/><path id="r-20" data-name="r" d="M11.78281,12.96826c-.08265.17723.15315.36565.41095.48586a10.66975,10.66975,0,0,0,2.00587.64112,10.47854,10.47854,0,0,0-1.78048-1.12448c-.26585-.124-.56121-.16362-.63634-.0025" fill="#ce1126"/></g></g><g id="r8-3" data-name="r8"><g id="r2-11" data-name="r2"><path id="r-21" data-name="r" d="M12.148,12.26667c-.09778.16935.1207.3776.367.51983a10.67034,10.67034,0,0,0,1.94237.8135,10.47892,10.47892,0,0,0-1.6757-1.27538c-.254-.14667-.54481-.21191-.6337-.05795" fill="#ce1126"/><path id="r-22" data-name="r" d="M12.573,11.59957c-.11216.16019.08733.38669.32034.54984a10.66878,10.66878,0,0,0,1.86407.9797,10.4789,10.4789,0,0,0-1.55817-1.41658c-.24028-.16825-.52427-.25858-.62624-.113" fill="#ce1126"/></g><g id="r4-6" data-name="r4"><g id="r2-12" data-name="r2"><path id="r-23" data-name="r" d="M13.05453,10.97206c-.1257.1498.0533.39283.27119.57567a10.67047,10.67047,0,0,0,1.7716,1.13843,10.47841,10.47841,0,0,0-1.42878-1.547c-.2247-.18855-.49974-.3033-.614-.16711" fill="#ce1126"/><path id="r-24" data-name="r" d="M13.5889,10.3889c-.13828.13828.01886.396.22.59711a10.67032,10.67032,0,0,0,1.66563,1.28851A10.47788,10.47788,0,0,0,14.186,10.60889c-.20742-.20742-.4714-.3457-.59711-.22" fill="#ce1126"/></g></g></g><g id="r2-13" data-name="r2"><path id="r-25" data-name="r" d="M14.17206,9.85453c-.1498.1257-.01573.39612.16711.614a10.6695,10.6695,0,0,0,1.547,1.42878,10.47875,10.47875,0,0,0-1.13843-1.7716c-.18856-.2247-.43949-.38546-.57567-.27119" fill="#ce1126"/><path id="r-26" data-name="r" d="M14.79957,9.373c-.16019.11217-.05019.39324.113.62624a10.67023,10.67023,0,0,0,1.41658,1.55817,10.47784,10.47784,0,0,0-.9797-1.86407c-.16825-.24029-.40421-.42231-.54984-.32034" fill="#ce1126"/></g><g id="r4-7" data-name="r4"><g id="r2-14" data-name="r2"><path id="r-27" data-name="r" d="M15.46667,8.948c-.16936.09777-.08428.38736.05795.6337A10.66953,10.66953,0,0,0,16.8,11.25744a10.47886,10.47886,0,0,0-.8135-1.94237c-.14667-.254-.36587-.45592-.51983-.367" fill="#ce1126"/><path id="r-28" data-name="r" d="M16.16826,8.58281c-.17723.08264-.11771.37855.0025.63634a10.67,10.67,0,0,0,1.12448,1.78048,10.47839,10.47839,0,0,0-.64112-2.00587c-.124-.26585-.32474-.48608-.48586-.41095" fill="#ce1126"/></g></g><g id="r16-2" data-name="r16"><g id="r8-4" data-name="r8"><g id="r2-15" data-name="r2"><path id="r-29" data-name="r" d="M16.899,8.28012c-.18376.06688-.15026.36685-.053.63414a10.67034,10.67034,0,0,0,.965,1.87171,10.47785,10.47785,0,0,0-.46386-2.05412c-.10032-.27565-.28114-.51253-.44819-.45173" fill="#ce1126"/><path id="r-30" data-name="r" d="M17.65337,8.04227c-.18889.05062-.18166.35236-.108.62711a10.66989,10.66989,0,0,0,.79823,1.94869,10.47886,10.47886,0,0,0-.28307-2.08673c-.07592-.28333-.2354-.53508-.40712-.48907" fill="#ce1126"/></g><g id="r4-8" data-name="r4"><g id="r2-16" data-name="r2"><path id="r-31" data-name="r" d="M18.42559,7.87108c-.19258.03395-.21168.33518-.16229.6153a10.6707,10.6707,0,0,0,.62535,2.01085,10.47879,10.47879,0,0,0-.10011-2.10346c-.05094-.28888-.18787-.55356-.363-.52269" fill="#ce1126"/><path id="r-32" data-name="r" d="M19.20979,7.76783c-.19481.01705-.24009.31546-.2153.59883a10.6703,10.6703,0,0,0,.44771,2.05769,10.479,10.479,0,0,0,.0836-2.10418c-.02557-.29221-.13891-.56783-.316-.55234" fill="#ce1126"/></g></g></g></g><rect y="15.03258" width="40" height="0.66667" fill="#252525"/></g></svg>