<svg xmlns="http://www.w3.org/2000/svg" viewBox="0 0 40 40"><g id="t11_1p724"><rect y="7" width="40" height="26" fill="#c60b1e"/><rect y="13.5" width="40" height="13" fill="#ffc400"/><path d="M8.95941,18.51952a.10662.10662,0,0,1-.04224-.00853c-.015-.0087-.16853-.18539-.15056-.23408A.13659.13659,0,0,1,8.842,18.197c.02714-.01424.33456-.10682.35253-.10778.028-.00112.32853-.00054.35275.00208a2.88086,2.88086,0,0,1,.377.15546.24157.24157,0,0,1,.02421.1152c-.00608.01419-.133.16059-.157.15755-.02427-.00245-.83232,0-.83232,0" fill="#ad1519"/><path d="M9.78607,18.511H9.78571l-.14942-.067s.15741-.29736.17938-.28449a.06021.06021,0,0,0-.0252-.03808c-.06263-.03729-.30677.22656-.31433.23981h-.2118c-.00738-.01349-.25152-.2771-.31433-.23981a.05933.05933,0,0,0-.025.03808c.02179-.01312.18219.28864.18219.28864l.00006.00067-.14887.06506s.03449.1587.03284.16681c-.00384.01838.01679.03424.05194.04456a1.59821,1.59821,0,0,0,.65112,0c.03547-.01032.056-.02618.05225-.04456C9.74475,18.67218,9.78607,18.511,9.78607,18.511Z" fill="#c8b100"/><path d="M9.96625,18.74811H8.77759v.31158h.1003s-.00814.22266-.00814.24555a.04951.04951,0,0,0,.05463.04187h.89013a.04948.04948,0,0,0,.05457-.04187c0-.02289-.00091-.24555-.00091-.24555h.09808Z" fill="#c8b100"/><path d="M9.86908,23.73608a.04961.04961,0,0,0-.05457-.04187H8.92438a.04965.04965,0,0,0-.05463.04187c0,.02308-.028.212-.11035.212H8.761v.31122H9.98108v-.31122h.00159C9.90027,23.94812,9.86908,23.75916,9.86908,23.73608Z" fill="#c8b100"/><path d="M8.93579,23.64384h.86688V19.39659H8.93579Z" fill="#ccc"/><path d="M10.68573,20.46124a2.7542,2.7542,0,0,0-.88086-.11877,2.96973,2.96973,0,0,0-.5097.0404c-.57557.096-1.01368.32593-.97913.513.0033.01673.19556.4441.195.44056.0188.10052.183.16473.42334.18194l.0014-.41528a1.91908,1.91908,0,0,1-.20807-.01557,2.15061,2.15061,0,0,1,.66541-.21319,2.67894,2.67894,0,0,1,.41534-.03735,2.75609,2.75609,0,0,1,.8797.14831Z" fill="#ad1519"/><path d="M10.12341,21.29968a.71581.71581,0,0,0-.31915-.10589l-.0014.41308a3.93215,3.93215,0,0,1-.4328.22443c-.15491.0683-.27985.12482-.43128.179-.3313.12159-.56579.25885-.543.32746v.00018l.08045.43176c.00665.03272.045.05713.09973.09351.08624.06006.13861.1673.09759.21674A.30545.30545,0,0,0,8.6673,22.595a1.566,1.566,0,0,1,.2691-.1261c.13519-.04736.42151-.15314.55707-.21795.42383-.20307.735-.43311.69293-.51117Z" fill="#ad1519"/><path d="M16.88219,18.51232,16.76,18.35381c-.00672-.03461.04661-.07482.12277-.09205a1.7761,1.7761,0,0,1,.28059-.04469h.32378a1.8036,1.8036,0,0,1,.28038.04469c.07594.01723.12954.05744.12272.09205,0,0-.1139.15384-.12192.15851A.98474.98474,0,0,1,16.88219,18.51232Z" fill="#ad1519"/><path d="M17.74231,18.54279a1.70106,1.70106,0,0,0-.83484,0c-.00665.00231.05609.17211.09149.18243a1.59826,1.59826,0,0,0,.65113,0C17.68524,18.7149,17.74915,18.5451,17.74231,18.54279Z" fill="#c8b100"/><path d="M17.91992,18.74811H16.73138v.31158h.09818s-.001.22266-.001.24555a.04949.04949,0,0,0,.05457.04187h.89013a.04948.04948,0,0,0,.05445-.04187v-.24466l.09222-.00089Z" fill="#c8b100"/><path d="M17.8277,23.73608a.04961.04961,0,0,0-.05445-.04187h-.89013a.04962.04962,0,0,0-.05457.04187c0,.02308-.03143.212-.11365.212h.00147v.31122h1.22009v-.31122h.00159C17.85577,23.94812,17.8277,23.75916,17.8277,23.73608Z" fill="#c8b100"/><path d="M16.89477,23.64384h.86688V19.39659h-.86688Z" fill="#ccc"/><path d="M18.38116,20.89587c.03479-.18707-.40319-.417-.97863-.513a2.97241,2.97241,0,0,0-.50977-.0404,2.75559,2.75559,0,0,0-.8811.11877l-.00238.524a2.75768,2.75768,0,0,1,.87988-.14831,2.68022,2.68022,0,0,1,.41534.03735,2.14977,2.14977,0,0,1,.66529.21319,1.90632,1.90632,0,0,1-.20813.01557l.00152.41528c.24042-.01721.40461-.08142.42322-.18194C18.18573,21.34,18.3783,20.9126,18.38116,20.89587Z" fill="#ad1519"/><path d="M17.75867,22.01025c-.15143-.05413-.27643-.11065-.43134-.179a3.9504,3.9504,0,0,1-.4328-.22437l-.00116-.41314a.71742.71742,0,0,0-.3194.10589l-.0625.44007c-.042.07806.26911.3081.69239.51117.13568.06481.42218.17059.55737.21795a1.56153,1.56153,0,0,1,.26892.126.30608.30608,0,0,0-.00629.485c-.04107-.04944.01154-.15668.09772-.21674.05481-.03638.09314-.06079.09979-.09351h0l.0802-.43176v-.00018C18.32434,22.2691,18.0899,22.13184,17.75867,22.01025Z" fill="#ad1519"/><path d="M13.31461,16.41189a15.04368,15.04368,0,0,1,2.25478.39446,1.52127,1.52127,0,0,1,.41605.26213l-.90363.99392H11.56523l-.9039-.99392a1.53546,1.53546,0,0,1,.41616-.26213A14.80057,14.80057,0,0,1,13.31461,16.41189Z" fill="#ad1519"/><path d="M15.201,18.00134a6.72225,6.72225,0,0,0-1.861-.23327,6.7083,6.7083,0,0,0-1.85828.23327,1.83883,1.83883,0,0,0,.20178.52387,6.05615,6.05615,0,0,0,1.65808.20434,6.05386,6.05386,0,0,0,1.65766-.20434A1.84625,1.84625,0,0,0,15.201,18.00134Z" fill="#c8b100"/><path d="M13.34,18.64373A6.33764,6.33764,0,0,1,11.81,18.46992a6.96376,6.96376,0,0,1,3.06261,0,6.36289,6.36289,0,0,1-1.53269.17381" fill="#ad1519"/><path d="M15.88409,16.42462a1.26517,1.26517,0,0,0-.81536-.30481,1.47339,1.47339,0,0,0-.31226.03412.98958.98958,0,0,0-.74176-.30682,2.66373,2.66373,0,0,0-.48529.0993.19655.19655,0,0,0-.194-.14551h-.00012a.20014.20014,0,0,0-.197.14551,2.75831,2.75831,0,0,0-.48419-.0993,1.0445,1.0445,0,0,0-.73364.30774,1.47227,1.47227,0,0,0-.32056-.035,1.01219,1.01219,0,0,0-.81469.30426.59065.59065,0,0,0-.215.41767,1.23882,1.23882,0,0,0,.1178.37274l.16051.05981.055-.22931a.40445.40445,0,0,1-.1488-.3106.39238.39238,0,0,1,.03906-.17066.88661.88661,0,0,1,.80609-.35449,1.41758,1.41758,0,0,1,.27008.02539.69124.69124,0,0,0-.0747.2392c0,.15509.29675.46118.29675.46118l.111-.18128a.79225.79225,0,0,1-.22978-.34183c.01154-.2312.32317-.47653.68089-.47653a.95827.95827,0,0,1,.47449.11988,5.41353,5.41353,0,0,1-.0827.65265h.57568a5.32505,5.32505,0,0,1-.08173-.6457.95628.95628,0,0,1,.47492-.12683c.35742,0,.6699.24533.68137.47653a.7967.7967,0,0,1-.23038.34183l.111.18128s.30206-.30622.29675-.46118a.7488.7488,0,0,0-.07452-.2392,1.41364,1.41364,0,0,1,.26965-.02539.88642.88642,0,0,1,.80615.35449.39051.39051,0,0,1,.039.17066.40446.40446,0,0,1-.14881.3106l.03343.22931.17183-.07654a.57919.57919,0,0,0,.12812-.356A.59044.59044,0,0,0,15.88409,16.42462Z" fill="#c8b100"/><path d="M13.1,15.58939a.23655.23655,0,1,1,.23621.22346A.23022.23022,0,0,1,13.1,15.58939" fill="#005bbf"/><path d="M13.35963,25.03109a4.54982,4.54982,0,0,1-1.97056-.45546,1.26117,1.26117,0,0,1-.7127-1.13v-1.776h5.3559v1.776a1.261,1.261,0,0,1-.71275,1.13,4.50225,4.50225,0,0,1-1.95989.45546" fill="#ccc"/><path d="M13.34821,21.66651h2.68384V18.69509H13.34821Z" fill="#ccc"/><path d="M13.35024,23.44352a1.34054,1.34054,0,0,1-2.67744,0V21.6648h2.67744v1.77872" fill="#ad1519"/><path d="M11.25771,24.49221a1.39913,1.39913,0,0,0,.32133.148l-.00779-3.038h-.31354Z" fill="#c8b100"/><path d="M10.66837,23.41957a1.35436,1.35436,0,0,0,.30576.836V21.61691h-.302Z" fill="#c8b100"/><path d="M11.85467,24.70677a1.47635,1.47635,0,0,0,.31354,0V21.60213h-.31354Z" fill="#c7b500"/><path d="M12.44389,24.64016a1.05586,1.05586,0,0,0,.32139-.14053v-2.8975h-.31355Z" fill="#c8b100"/><path d="M10.673,21.66651h2.67621V18.69509H10.673Z" fill="#ad1519"/><path d="M13.05669,24.22592a1.211,1.211,0,0,0,.29792-.68059l.00779-1.9432h-.31355Z" fill="#c8b100"/><path d="M16.03467,21.6648v1.77872a1.34422,1.34422,0,0,1-2.68443,0V21.6648h2.68443" fill="#ad1519"/><path d="M15.118,19.3064a1.43521,1.43521,0,0,0-.00166.1608c.0056.01973-.0408.086-.039.10245.00208.01648-.07493.25584-.07493.29771a.51975.51975,0,0,0,.027.35093c.05.07312.12741.20091.29317.15888.166-.04186.10437-.2649.0696-.36912a.93427.93427,0,0,1-.05019-.25962c.00182-.03995.03078-.15867.027-.18086a.44241.44241,0,0,1,.00779-.175c.02122-.0712.07882-.27275.07882-.27275l.04619.15723.18352-.19355-.12752.25413.112-.01626s-.10032.15509-.13115.20624c-.031.05109-.05605.053-.09467.0841-.058.04656-.02672.23174-.01914.25926a2.43192,2.43192,0,0,1,.11.30885.29251.29251,0,0,1-.085.25584c-.06219.051-.16395.05136-.18715.06592a.17531.17531,0,0,0-.06923.15515c0,.09525.17366.22666.16966.2465-.00379.02032-.11.21782-.11.23051a.7115.7115,0,0,1-.07915.15344.56848.56848,0,0,1-.156-.06192.73915.73915,0,0,1-.01355-.09317s.05376-.07483.08459-.08038a.07579.07579,0,0,0,.058-.03461.07462.07462,0,0,0-.01157-.08027c-.02123-.02389-.26043-.13333-.26416-.1464a1.24108,1.24108,0,0,1,.02123-.14437s-.14464-.01264-.16006.01461a2.1556,2.1556,0,0,0,.03664.27232c-.00565.0127-.27578.00928-.29141.01291-.01541.00373-.04619.07877-.06176.07691-.01541-.00192-.17994-.15479-.17419-.19739.019-.03434.11254-.14635.12944-.1384,0,0,.05374.134.14475.11984.05573-.00565.071-.01285.071-.02859s-.068-.36266.00144-.3657c.06933-.00262.25776-.01552.25776-.01552l-.3392-.30528a3.32163,3.32163,0,0,0-.44315.14416c-.00437.024-.107.0912-.107.0912s-.07536-.05584-.07237-.08006-.01226-.17845.01774-.19149c.02608-.01435.07559.00173.106.01176a.22567.22567,0,0,0,.11573-.01269c.01525-.00875.16581-.11286.16581-.11286s-.37216-.38522-.38874-.38656c-.01659-.00149-.0904.007-.09206-.01706-.00112-.02438-.03434-.15435-.01776-.16854a1.06734,1.06734,0,0,1,.17163-.11269.95058.95058,0,0,1,.062.17253,3.5346,3.5346,0,0,0,.32256.21856,1.38358,1.38358,0,0,0,.205-.01856c.03019-.01306.06939-.03429.05734-.06154-.0119-.02694-.07835-.05136-.07232-.07254.006-.02138.03018-.02288.07072-.02442.04064-.00134.09642.0072.10688-.05.01056-.057.0136-.09-.04342-.10266-.05738-.01291-.09968-.01419-.11-.05568-.01067-.04134-.02123-.05131-.00923-.06288.01222-.0112.16576-.02272.17942-.033.0136-.00966.01637-.03691.033-.04848a.35163.35163,0,0,1,.0816-.02144,1.0885,1.0885,0,0,1,.14938.0913.82792.82792,0,0,1,.12262.11915" fill="#ed72aa"/><polygon points="11.543 19.333 11.542 19.665 11.357 19.665 11.456 20.848 11.259 20.848 11.259 21.255 12.775 21.255 12.775 20.848 12.577 20.848 12.676 19.665 12.56 19.665 12.564 19.333 12.205 19.333 12.208 19.037 11.826 19.037 11.81 19.333 11.543 19.333" fill="#c8b100"/><path d="M12.48933,21.65365a.873.873,0,1,1,.86688.97552.9261.9261,0,0,1-.86688-.97552" fill="#ad1519"/><path d="M12.74651,21.65179a.61782.61782,0,1,1,.61008.71562.66886.66886,0,0,1-.61008-.71562" fill="#005bbf"/><path d="M15.71893,23.03516a.13442.13442,0,0,0-.10241-.13056l.00158-.722a.13888.13888,0,0,0,.10144-.13208.1423.1423,0,0,0-.14581-.13819.14468.14468,0,0,0-.13837.0954h-.61871a.14808.14808,0,0,0-.27679,0l-.43322.00012.00261.08868.43061-.003a.143.143,0,0,0,.09521.08941s-.01062.72858-.01538.731l-.41916-.44964-.06259.06.4165.4505c-.00384.00678-.63232.02106-.63232.02106a.13993.13993,0,0,0-.09277-.08954l-.00961-.46027-.10172-.00261.02142.46123a.1425.1425,0,0,0-.10229.13056.139.139,0,0,0,.1015.13165l.06549.62817a.13285.13285,0,0,0,.01623.19452.15184.15184,0,0,0,.13843.02667.95493.95493,0,0,0,.13367.1131l.275.14728a1.30427,1.30427,0,0,0,.17432.04645.14754.14754,0,0,0,.28461-.001,3.33624,3.33624,0,0,0,.57092-.30585.15186.15186,0,0,0,.13837-.02667.13308.13308,0,0,0,.01611-.19452l.06531-.62817A.13918.13918,0,0,0,15.71893,23.03516Zm-.19207-.85376-.00013.50579-.00024.21918a.14024.14024,0,0,0-.09259.08942s-.61945-.02319-.6264-.03339C14.8075,22.9624,15.52,22.17926,15.52686,22.1814Zm-1.636,1.567c-.02191-.05035-.06073-.58258-.06073-.58258a.14229.14229,0,0,0,.09045-.08618s.63227.01685.63691.02429l-.589.653A.16125.16125,0,0,0,13.89087,23.74841Zm.74542.414a.13837.13837,0,0,0-.0841.07416.8872.8872,0,0,1-.14289-.03863l-.27069-.144a.85892.85892,0,0,1-.10547-.08941.13057.13057,0,0,0,.00556-.15247l.59838-.64673Zm.08972-1.981a.14041.14041,0,0,0,.09-.08789s.62506.01184.62787.01727c0,0-.70728.798-.71131.79685Zm.09278,2.05481H14.8186a.1446.1446,0,0,0-.09057-.07514s.00757-.99695.01227-.99841l.5769.64935a.13127.13127,0,0,0,.00555.15247A3.55293,3.55293,0,0,1,14.81879,24.23621Zm.5686-.47925-.57953-.64966c.00525-.00848.62769-.02765.62769-.02765a.14119.14119,0,0,0,.09039.08618s-.03894.53217-.06079.58258A.1618.1618,0,0,0,15.38739,23.757Z" fill="#c8b100"/><polygon points="12.884 21.273 13.355 22.229 13.798 21.259 12.884 21.273" fill="#c8b100"/></g></svg>