<svg xmlns="http://www.w3.org/2000/svg" viewBox="0 0 40 40"><g id="EA45_flag_namibia"><polygon points="2.6 33 40 33 40 8.69 2.6 33" fill="#009543"/><polygon points="0 7 0 32.191 38.756 7 0 7" fill="#003580"/><polygon points="39.199 7 0 32.479 0 33 0.801 33 40 7.521 40 7 39.199 7" fill="#fff"/><g id="r4"><path id="r" d="M8,18.374l.69018-1.86864H7.30982Z" fill="#ffce00"/><path id="r-2" data-name="r" d="M3.55556,13.92955l1.86864.69018V13.23936Z" fill="#ffce00"/><path id="r-3" data-name="r" d="M8,9.4851l-.69018,1.86864H8.69018Z" fill="#ffce00"/><path id="r-4" data-name="r" d="M12.44444,13.92955l-1.86864-.69019v1.38037Z" fill="#ffce00"/></g><g id="r4-2" data-name="r4"><path id="r-5" data-name="r" d="M5.77778,17.77855l1.532-1.2732-1.19544-.69019Z" fill="#ffce00"/><path id="r-6" data-name="r" d="M4.151,11.70732l1.2732,1.532.69018-1.19543Z" fill="#ffce00"/><path id="r-7" data-name="r" d="M10.22222,10.08055l-1.532,1.27319,1.19544.69019Z" fill="#ffce00"/><path id="r-8" data-name="r" d="M11.849,16.15177l-1.2732-1.532-.69018,1.19543Z" fill="#ffce00"/></g><g id="r4-3" data-name="r4"><path id="r-9" data-name="r" d="M4.151,16.15177l1.96338-.33661L5.4242,14.61973Z" fill="#ffce00"/><path id="r-10" data-name="r" d="M5.77778,10.08055l.3366,1.96338,1.19544-.69019Z" fill="#ffce00"/><path id="r-11" data-name="r" d="M11.849,11.70732l-1.96338.33661.69018,1.19543Z" fill="#ffce00"/><path id="r-12" data-name="r" d="M10.22222,17.77855l-.3366-1.96339-1.19544.69019Z" fill="#ffce00"/></g><circle cx="8" cy="13.92955" r="2.44444" fill="#ffce00" stroke="#003580" stroke-width="0.04444"/><polygon points="39.865 7 0 32.912 0 33 1.477 33 40 7.96 40 7 39.865 7" fill="#d21034"/></g></svg>