<svg xmlns="http://www.w3.org/2000/svg" viewBox="0 0 40 40"><g id="EA45_flag_slovakia"><rect y="7" width="40" height="26" fill="#ee1c25"/><rect y="7" width="40" height="17.33333" fill="#0b4ea2"/><rect y="7" width="40" height="8.66667" fill="#fff"/><path d="M14.05578,27.26667c-2.39027-1.15134-5.80934-3.43658-5.80934-7.957s.21614-6.57632.21614-6.57632H19.64911s.21618,2.05583.21618,6.57632S16.44622,26.11533,14.05578,27.26667Z" fill="#fff"/><path d="M14.05578,26.66667c-2.19289-1.05627-5.32965-3.1528-5.32965-7.3s.19828-6.03329.19828-6.03329H19.1873s.19834,1.88607.19834,6.03329-3.13679,6.24378-5.32983,7.3Z" fill="#ee1c25"/><path d="M14.5248,18.27929a8.53114,8.53114,0,0,0,2.78379-.31233s-.02725.36914-.02725.79914.02725.79921.02725.79921a8.95341,8.95341,0,0,0-2.78378-.31476v2.29063h-.93793V19.25055a8.95478,8.95478,0,0,0-2.78378.31474s.02724-.36911.02724-.79921-.02724-.79914-.02724-.79914a8.53108,8.53108,0,0,0,2.78378.31233V16.84071a6.583,6.583,0,0,0-2.2028.31611s.02725-.36913.02725-.79921-.02725-.79916-.02725-.79916a6.58251,6.58251,0,0,0,2.2004.31617,12.79485,12.79485,0,0,0-.2932-2.0592s.54617.04262.76451.04262c.21857,0,.76458-.04262.76458-.04262a12.80057,12.80057,0,0,0-.29317,2.05911,6.58112,6.58112,0,0,0,2.20038-.31616s-.02724.36913-.02724.79916.02724.79921.02724.79921a6.58309,6.58309,0,0,0-2.20278-.31612v1.43867Z" fill="#fff"/><path d="M14.05556,21.29307c-1.10432,0-1.69584,1.53194-1.69584,1.53194a1.35377,1.35377,0,0,0-1.22916-.72639,1.73366,1.73366,0,0,0-1.34444,1.04445,10.1299,10.1299,0,0,0,4.26942,3.5236,10.13077,10.13077,0,0,0,4.27084-3.5236,1.73366,1.73366,0,0,0-1.34444-1.04445,1.357,1.357,0,0,0-1.23056.72639s-.59143-1.53194-1.69583-1.53194Z" fill="#0b4ea2"/></g></svg>