<svg xmlns="http://www.w3.org/2000/svg" viewBox="0 0 40 40"><g id="EA45_flag_iran"><rect y="7" width="40" height="26" fill="#da0000"/><rect y="7" width="40" height="17.33333" fill="#fff"/><rect y="7" width="40" height="8.66667" fill="#239f40"/><g id="tb1"><path id="tbp1" d="M.53333,14.35222H2.84444m-2.22222.91v-.50555h.71111v.40444h.71111v-.40444H1.6m-.71111.40444h.17778m1.77777,0H2.4v-.40444h.71111m0-.50556v.91h.71111v-.91m-.35555,0v.91" fill="none" stroke="#fff" stroke-width="0.12698"/><path id="tbp2" d="M.53333,15.66667h1.6m.17778,0h1.6" fill="none" stroke="#fff" stroke-width="0.12698"/><path id="tbp2-2" data-name="tbp2" d="M.53333,24.33333h1.6m.17778,0h1.6" fill="none" stroke="#fff" stroke-width="0.12698"/><path id="tbp1-2" data-name="tbp1" d="M.53333,24.83889H2.84444m-2.22222.91v-.50556h.71111v.40445h.71111v-.40445H1.6m-.71111.40445h.17778m1.77777,0H2.4v-.40445h.71111m0-.50555v.91h.71111v-.91m-.35555,0v.91" fill="none" stroke="#fff" stroke-width="0.12698"/></g><g id="tb1-2" data-name="tb1"><path id="tbp1-3" data-name="tbp1" d="M4.08889,14.35222H6.4m-2.22222.91v-.50555h.71111v.40444H5.6v-.40444H5.15556m-.71112.40444h.17778m1.77778,0H5.95556v-.40444h.71111m0-.50556v.91h.71111v-.91m-.35556,0v.91" fill="none" stroke="#fff" stroke-width="0.12698"/><path id="tbp2-3" data-name="tbp2" d="M4.08889,15.66667h1.6m.17778,0h1.6" fill="none" stroke="#fff" stroke-width="0.12698"/><path id="tbp2-4" data-name="tbp2" d="M4.08889,24.33333h1.6m.17778,0h1.6" fill="none" stroke="#fff" stroke-width="0.12698"/><path id="tbp1-4" data-name="tbp1" d="M4.08889,24.83889H6.4m-2.22222.91v-.50556h.71111v.40445H5.6v-.40445H5.15556m-.71112.40445h.17778m1.77778,0H5.95556v-.40445h.71111m0-.50555v.91h.71111v-.91m-.35556,0v.91" fill="none" stroke="#fff" stroke-width="0.12698"/></g><g id="tb4"><g id="tb1-3" data-name="tb1"><path id="tbp1-5" data-name="tbp1" d="M7.64444,14.35222H9.95556m-2.22223.91v-.50555h.71111v.40444h.71112v-.40444H8.71111M8,15.16111h.17778m1.77778,0H9.51111v-.40444h.71111m0-.50556v.91h.71111v-.91m-.35555,0v.91" fill="none" stroke="#fff" stroke-width="0.12698"/><path id="tbp2-5" data-name="tbp2" d="M7.64444,15.66667h1.6m.17778,0h1.6" fill="none" stroke="#fff" stroke-width="0.12698"/><path id="tbp2-6" data-name="tbp2" d="M7.64444,24.33333h1.6m.17778,0h1.6" fill="none" stroke="#fff" stroke-width="0.12698"/><path id="tbp1-6" data-name="tbp1" d="M7.64444,24.83889H9.95556m-2.22223.91v-.50556h.71111v.40445h.71112v-.40445H8.71111M8,25.64778h.17778m1.77778,0H9.51111v-.40445h.71111m0-.50555v.91h.71111v-.91m-.35555,0v.91" fill="none" stroke="#fff" stroke-width="0.12698"/></g><g id="tb3"><g id="tb1-4" data-name="tb1"><path id="tbp1-7" data-name="tbp1" d="M11.2,14.35222h2.31111m-2.22222.91v-.50555H12v.40444h.71111v-.40444h-.44444m-.71111.40444h.17777m1.77778,0h-.44444v-.40444h.71111m0-.50556v.91h.71111v-.91m-.35556,0v.91" fill="none" stroke="#fff" stroke-width="0.12698"/><path id="tbp2-7" data-name="tbp2" d="M11.2,15.66667h1.6m.17778,0h1.6" fill="none" stroke="#fff" stroke-width="0.12698"/><path id="tbp2-8" data-name="tbp2" d="M11.2,24.33333h1.6m.17778,0h1.6" fill="none" stroke="#fff" stroke-width="0.12698"/><path id="tbp1-8" data-name="tbp1" d="M11.2,24.83889h2.31111m-2.22222.91v-.50556H12v.40445h.71111v-.40445h-.44444m-.71111.40445h.17777m1.77778,0h-.44444v-.40445h.71111m0-.50555v.91h.71111v-.91m-.35556,0v.91" fill="none" stroke="#fff" stroke-width="0.12698"/></g></g></g><g id="tb1-5" data-name="tb1"><path id="tbp1-9" data-name="tbp1" d="M14.75556,14.35222h2.31111m-2.22223.91v-.50555h.71112v.40444h.71111v-.40444h-.44445m-.71111.40444h.17778m1.77778,0h-.44445v-.40444h.71111m0-.50556v.91h.71111v-.91m-.35555,0v.91" fill="none" stroke="#fff" stroke-width="0.12698"/><path id="tbp2-9" data-name="tbp2" d="M14.75556,15.66667h1.6m.17777,0h1.6" fill="none" stroke="#fff" stroke-width="0.12698"/><path id="tbp2-10" data-name="tbp2" d="M14.75556,24.33333h1.6m.17777,0h1.6" fill="none" stroke="#fff" stroke-width="0.12698"/><path id="tbp1-10" data-name="tbp1" d="M14.75556,24.83889h2.31111m-2.22223.91v-.50556h.71112v.40445h.71111v-.40445h-.44445m-.71111.40445h.17778m1.77778,0h-.44445v-.40445h.71111m0-.50555v.91h.71111v-.91m-.35555,0v.91" fill="none" stroke="#fff" stroke-width="0.12698"/></g><g id="tb1-6" data-name="tb1"><path id="tbp1-11" data-name="tbp1" d="M18.31111,14.35222h2.31111m-2.22222.91v-.50555h.71111v.40444h.71111v-.40444h-.44444m-.71111.40444h.17777m1.77778,0h-.44444v-.40444h.71111m0-.50556v.91H21.6v-.91m-.35556,0v.91" fill="none" stroke="#fff" stroke-width="0.12698"/><path id="tbp2-11" data-name="tbp2" d="M18.31111,15.66667h1.6m.17778,0h1.6" fill="none" stroke="#fff" stroke-width="0.12698"/><path id="tbp2-12" data-name="tbp2" d="M18.31111,24.33333h1.6m.17778,0h1.6" fill="none" stroke="#fff" stroke-width="0.12698"/><path id="tbp1-12" data-name="tbp1" d="M18.31111,24.83889h2.31111m-2.22222.91v-.50556h.71111v.40445h.71111v-.40445h-.44444m-.71111.40445h.17777m1.77778,0h-.44444v-.40445h.71111m0-.50555v.91H21.6v-.91m-.35556,0v.91" fill="none" stroke="#fff" stroke-width="0.12698"/></g><g id="tb3-2" data-name="tb3"><g id="tb1-7" data-name="tb1"><path id="tbp1-13" data-name="tbp1" d="M21.86667,14.35222h2.31111m-2.22222.91v-.50555h.71111v.40444h.71111v-.40444h-.44445m-.71111.40444H22.4m1.77778,0h-.44445v-.40444h.71111m0-.50556v.91h.71112v-.91m-.35556,0v.91" fill="none" stroke="#fff" stroke-width="0.12698"/><path id="tbp2-13" data-name="tbp2" d="M21.86667,15.66667h1.6m.17777,0h1.6" fill="none" stroke="#fff" stroke-width="0.12698"/><path id="tbp2-14" data-name="tbp2" d="M21.86667,24.33333h1.6m.17777,0h1.6" fill="none" stroke="#fff" stroke-width="0.12698"/><path id="tbp1-14" data-name="tbp1" d="M21.86667,24.83889h2.31111m-2.22222.91v-.50556h.71111v.40445h.71111v-.40445h-.44445m-.71111.40445H22.4m1.77778,0h-.44445v-.40445h.71111m0-.50555v.91h.71112v-.91m-.35556,0v.91" fill="none" stroke="#fff" stroke-width="0.12698"/></g></g><g id="tb1-8" data-name="tb1"><path id="tbp1-15" data-name="tbp1" d="M25.42222,14.35222h2.31111m-2.22222.91v-.50555h.71111v.40444h.71111v-.40444h-.44444m-.71111.40444h.17778m1.77777,0h-.44444v-.40444H28m0-.50556v.91h.71111v-.91m-.35555,0v.91" fill="none" stroke="#fff" stroke-width="0.12698"/><path id="tbp2-15" data-name="tbp2" d="M25.42222,15.66667h1.6m.17778,0h1.6" fill="none" stroke="#fff" stroke-width="0.12698"/><path id="tbp2-16" data-name="tbp2" d="M25.42222,24.33333h1.6m.17778,0h1.6" fill="none" stroke="#fff" stroke-width="0.12698"/><path id="tbp1-16" data-name="tbp1" d="M25.42222,24.83889h2.31111m-2.22222.91v-.50556h.71111v.40445h.71111v-.40445h-.44444m-.71111.40445h.17778m1.77777,0h-.44444v-.40445H28m0-.50555v.91h.71111v-.91m-.35555,0v.91" fill="none" stroke="#fff" stroke-width="0.12698"/></g><g id="tb1-9" data-name="tb1"><path id="tbp1-17" data-name="tbp1" d="M28.97778,14.35222h2.31111m-2.22222.91v-.50555h.71111v.40444h.71111v-.40444h-.44445m-.71111.40444h.17778m1.77778,0h-.44445v-.40444h.71112m0-.50556v.91h.71111v-.91m-.35556,0v.91" fill="none" stroke="#fff" stroke-width="0.12698"/><path id="tbp2-17" data-name="tbp2" d="M28.97778,15.66667h1.6m.17778,0h1.6" fill="none" stroke="#fff" stroke-width="0.12698"/><path id="tbp2-18" data-name="tbp2" d="M28.97778,24.33333h1.6m.17778,0h1.6" fill="none" stroke="#fff" stroke-width="0.12698"/><path id="tbp1-18" data-name="tbp1" d="M28.97778,24.83889h2.31111m-2.22222.91v-.50556h.71111v.40445h.71111v-.40445h-.44445m-.71111.40445h.17778m1.77778,0h-.44445v-.40445h.71112m0-.50555v.91h.71111v-.91m-.35556,0v.91" fill="none" stroke="#fff" stroke-width="0.12698"/></g><g id="tb4-2" data-name="tb4"><g id="tb1-10" data-name="tb1"><path id="tbp1-19" data-name="tbp1" d="M32.53333,14.35222h2.31111m-2.22222.91v-.50555h.71111v.40444h.71111v-.40444H33.6m-.71111.40444h.17778m1.77777,0H34.4v-.40444h.71111m0-.50556v.91h.71111v-.91m-.35555,0v.91" fill="none" stroke="#fff" stroke-width="0.12698"/><path id="tbp2-19" data-name="tbp2" d="M32.53333,15.66667h1.6m.17778,0h1.6" fill="none" stroke="#fff" stroke-width="0.12698"/><path id="tbp2-20" data-name="tbp2" d="M32.53333,24.33333h1.6m.17778,0h1.6" fill="none" stroke="#fff" stroke-width="0.12698"/><path id="tbp1-20" data-name="tbp1" d="M32.53333,24.83889h2.31111m-2.22222.91v-.50556h.71111v.40445h.71111v-.40445H33.6m-.71111.40445h.17778m1.77777,0H34.4v-.40445h.71111m0-.50555v.91h.71111v-.91m-.35555,0v.91" fill="none" stroke="#fff" stroke-width="0.12698"/></g><g id="tb3-3" data-name="tb3"><g id="tb1-11" data-name="tb1"><path id="tbp1-21" data-name="tbp1" d="M36.08889,14.35222H38.4m-2.22222.91v-.50555h.71111v.40444H37.6v-.40444h-.44444m-.71112.40444h.17778m1.77778,0h-.44444v-.40444h.71111m0-.50556v.91h.71111v-.91m-.35556,0v.91" fill="none" stroke="#fff" stroke-width="0.12698"/><path id="tbp2-21" data-name="tbp2" d="M36.08889,15.66667h1.6m.17778,0h1.6" fill="none" stroke="#fff" stroke-width="0.12698"/><path id="tbp2-22" data-name="tbp2" d="M36.08889,24.33333h1.6m.17778,0h1.6" fill="none" stroke="#fff" stroke-width="0.12698"/><path id="tbp1-22" data-name="tbp1" d="M36.08889,24.83889H38.4m-2.22222.91v-.50556h.71111v.40445H37.6v-.40445h-.44444m-.71112.40445h.17778m1.77778,0h-.44444v-.40445h.71111m0-.50555v.91h.71111v-.91m-.35556,0v.91" fill="none" stroke="#fff" stroke-width="0.12698"/></g></g></g><g id="emblem_half" data-name="emblem half"><path d="M18.43386,22.71824a2.55412,2.55412,0,0,0,3.28355-1.90311,3.23228,3.23228,0,0,0-.77871-3.16288,3.53617,3.53617,0,0,1-.76749,4.51252,2.6083,2.6083,0,0,1-1.73735.55347" fill="#da0000"/><path d="M21.76668,22.14958a2.677,2.677,0,0,0,.79754-3.392,2.23716,2.23716,0,0,0-1.35952-1.166,3.5533,3.5533,0,0,1,.56678,4.55075l-.0048.00724" fill="#da0000"/><path d="M20,23.25,19.85714,20,20,17.44135a.925.925,0,0,0,.33724.322v1.9103l-.11493,3.22826Z" fill="#da0000"/><path d="M19.94286,17.2375l.05714.061a.38172.38172,0,0,0,.57446.11379.50754.50754,0,0,0,.14575-.55738.377.377,0,0,1-.72021.14" fill="#da0000"/></g><g id="emblem_half-2" data-name="emblem half"><path d="M21.56614,22.71824a2.55412,2.55412,0,0,1-3.28355-1.90311,3.23228,3.23228,0,0,1,.77871-3.16288,3.53617,3.53617,0,0,0,.76749,4.51252,2.6083,2.6083,0,0,0,1.73735.55347" fill="#da0000"/><path d="M18.23332,22.14958a2.677,2.677,0,0,1-.79754-3.392,2.23716,2.23716,0,0,1,1.35952-1.166,3.5533,3.5533,0,0,0-.56678,4.55075l.0048.00724" fill="#da0000"/><path d="M20,23.25,20.14286,20,20,17.44135a.925.925,0,0,1-.33724.322v1.9103l.11493,3.22826Z" fill="#da0000"/><path d="M20.05714,17.2375,20,17.29854a.38172.38172,0,0,1-.57446.11379.50754.50754,0,0,1-.14575-.55738.377.377,0,0,0,.72021.14" fill="#da0000"/></g></g></svg>