<svg xmlns="http://www.w3.org/2000/svg" viewBox="0 0 40 40"><g id="EA45_flag_canada"><rect id="rect4" y="7" width="40" height="26" fill="#d52b1e"/><rect id="rect6" x="10" y="7" width="20" height="26" fill="#fff"/><path id="path8" d="M19.99969,11.875,18.63517,14.42c-.15484.2766-.43225.25095-.70967.09646l-.98788-.51155L17.6739,17.914c.15484.71417-.34194.71417-.5871.40537l-1.724-1.93-.27989.98012a.33405.33405,0,0,1-.3871.23171l-2.18007-.45837.57261,2.08179c.12258.46322.21819.655-.12375.77719l-.777.36521,3.75285,3.04833a.49136.49136,0,0,1,.17071.51049l-.32846,1.07788c1.29217-.14895,2.45-.373,3.74278-.511.11413-.01218.30519.17616.30441.30842L19.65858,28.75h.62826l-.0989-3.94047c-.00079-.13226.17255-.32907.28668-.31689,1.29282.138,2.45061.3621,3.74278.511l-.32846-1.07788a.49136.49136,0,0,1,.17071-.51049L27.8125,20.367l-.777-.36521c-.34194-.12218-.24633-.314-.12375-.77719l.57261-2.08179-2.18007.45837a.33405.33405,0,0,1-.3871-.23171l-.2799-.98012-1.724,1.93c-.24516.3088-.74194.3088-.5871-.40537l.73628-3.90909-.98788.51155c-.27742.15449-.55483.18014-.70967-.09646" fill="#d52b1e"/></g></svg>