<svg xmlns="http://www.w3.org/2000/svg" viewBox="0 0 40 40"><g id="EA45_flag_mozambique"><rect y="7" width="40" height="26" fill="#252525"/><rect y="7" width="40" height="8.9375" fill="#fff"/><rect y="7" width="40" height="8.125" fill="#007168"/><rect y="24.05167" width="40" height="8.94833" fill="#fff"/><rect y="24.875" width="40" height="8.125" fill="#fce100"/><path d="M0,6.66667V33.33333L17.5,20Z" fill="#d21034"/><path d="M9.08309,24.99932,5.8318,22.61889,2.58492,25l1.25922-3.82775L.57622,18.82008l4.02953.01475L5.833,15l1.23117,3.83688L11.0905,18.819,7.82187,21.17555Z" fill="#fce100"/><path d="M3.01,22.33011H5.35213a.748.748,0,0,0,1.0094-.00252,3.67565,3.67565,0,0,1,2.15434.00252l.27966-.29713-.68171-2.23732-.24472-.26219a2.60427,2.60427,0,0,0-1.52068-.20972,3.254,3.254,0,0,1-1.34588-.03494,5.93172,5.93172,0,0,0-1.11864.2272c-.0269.02178-.27966.27965-.27966.27965Z" fill="#fff" stroke="#000" stroke-linecap="round" stroke-linejoin="round" stroke-width="0.05556"/><path d="M3.48189,21.75332s2.23729-.27965,2.88406.57679a.79967.79967,0,0,1-1.03129.01752c.05487-.09143.804-.874,2.70923-.61177" fill="none" stroke="#000" stroke-linecap="round" stroke-linejoin="round" stroke-width="0.05556"/><path d="M5.87651,19.516,5.859,21.98058M7.8691,19.55094l.41952,1.95766M3.907,19.52021l-.23281,1.00956" stroke="#000" stroke-linecap="round" stroke-linejoin="round" stroke-width="0.05556"/><path d="M1.48875,22.59845l.55081.64582a.15784.15784,0,0,0,.17959,0l.81633-.97956.34286-.42449a.26841.26841,0,0,0,.0653-.1959l.65547-.58244c.05362.00369.08555.00974.13917.01338-.06335-.01641-.10983-.04725-.05995-.11668l.14693-.11427.11427.14691a2.06848,2.06848,0,0,1-.17956.21225H4.08038l-.34286.31023.14988.13246.22563.61855.27757-.19595L4.211,21.43207l.39187-.4245-.147-.2286.098-.13062s1.35613.85381,1.8786.62527c.01411.0051.03158-.60892.03158-.60892S5.06,20.51779,5.02729,20.24021s.31022-.31018.31022-.31018l-.147-.21224.03269-.11433.24489.31023.55512-.47349L9.2885,23.16264c.17826-.07228.21633-.11589.22859-.29388-.00459-.00448-3.2-3.67345-3.2-3.67345l.24489-.26118a.193.193,0,0,0,.06528-.16332l.37551-.32651a.46493.46493,0,0,1,.24489.19589L8.28,17.76528a.16317.16317,0,0,0,.166.02382l1.70678-1.63827L8.29259,17.46471l-.06528-.049c0-.05443.06746-.06789,0-.16327-.07228-.08673-.17961.08164-.1959.08164s-.26924-.08938-.32467-.20261l-.0182.30056-.47348.44082-.35917-.01633-.52247.50612-.06528.19589.08163.16332a3.415,3.415,0,0,1-.27759.22854c0-.01629-.0561-.07217-.05851-.07939l.23812-.21449.03264-.14693-.07945-.124c-.02407.01749-.3287.33632-.345.30362-.02721-.03045-.88158-.99589-.88158-.99589l.04894-.17959-.55506-.60409a.40259.40259,0,0,0-.58777.35919c-.05085.10353-.47347.01632-.47347.01632l-.22857.049-1.2898,1.82856L2.611,20.028l1.46939-1.86121.04362-.52727.30831.34474a.48984.48984,0,0,0,.29388-.03266l.87055.97171-.145.14142c.049.05442.0827.08919.13169.14361.049-.03264.09574-.07183.14472-.10453.01635.02184.04356.06321.05991.085-.07295.03969-.12412.09255-.19707.13224-.11674-.07609-.22944-.17082-.22088-.32159l-.48977.40815-.01635.08163L3.411,20.69734l-.13061.01635-.03266.37551.94694-.78366v-.11432l.098.08163.73467-.58771s.049.06529.03269.06529-.65309.58775-.65309.58775l-.01629.06528-.11431.098-.06531-.049-.88163.78366h-.1306L2.709,21.726a.65945.65945,0,0,0-.34286.09792Z" stroke="#000" stroke-linecap="round" stroke-linejoin="round" stroke-width="0.05556"/></g></svg>