<svg xmlns="http://www.w3.org/2000/svg" viewBox="0 0 40 40"><g id="EA45_flag_ethopia"><rect y="7" width="40" height="26" fill="#da121a"/><rect y="7" width="40" height="17.33333" fill="#fcdd09"/><rect y="7" width="40" height="8.66667" fill="#078930"/><circle cx="20" cy="20" r="6.66667" fill="#0f47af"/><g id="t"><path d="M20,14.66667l-.23366.71912.96375,2.96612H19.44515l-.14441.44444h4.12015l.61173-.44444H21.19741Z" fill="#fcdd09"/><path d="M21.43681,18.0224l1.698-2.33716" stroke="#fcdd09" stroke-width="0.22222"/></g><g id="t-2" data-name="t"><path d="M25.0723,18.35191h-.75613L21.793,20.18507,21.396,18.963h-.46732l1.2732,3.91849.61172.44445-.87612-2.69645Z" fill="#fcdd09"/><path d="M22.3248,20.75537l2.7475.89272" stroke="#fcdd09" stroke-width="0.22222"/></g><g id="t-3" data-name="t"><path d="M23.13485,24.31476l-.23365-.71913-2.52313-1.83316,1.03953-.75527-.1444-.44444-3.33327,2.42176-.23366.71913L20,22.03715Z" fill="#fcdd09"/><path d="M20,22.44444v2.88889" stroke="#fcdd09" stroke-width="0.22222"/></g><g id="t-4" data-name="t"><path d="M16.86515,24.31476l.61172-.44445.96375-2.96611,1.03954.75526.37806-.27468L16.525,18.963h-.75613l2.29373,1.66649Z" fill="#fcdd09"/><path d="M17.6752,20.75537l-2.7475.89272" stroke="#fcdd09" stroke-width="0.22222"/></g><g id="t-5" data-name="t"><path d="M14.9277,18.35191l.61172.44444h3.11876l-.39706,1.222.37806.27469,1.2732-3.9185-.23366-.71912-.87613,2.69644Z" fill="#fcdd09"/><path d="M18.56319,18.0224l-1.698-2.33716" stroke="#fcdd09" stroke-width="0.22222"/></g></g></svg>