<svg xmlns="http://www.w3.org/2000/svg" viewBox="0 0 40 40"><g id="EA45_flag_kenya"><rect y="7" width="40" height="26" fill="#fff"/><rect y="7" width="40" height="7.8" fill="#252525"/><rect y="16.1" width="40" height="7.8" fill="#b00"/><rect y="25.2" width="40" height="7.8" fill="#060"/><g id="spear"><path id="spearshape" d="M15.23686,27.91667l.28868.16666L23.311,14.59851c.45535-.122.70535-.555.95535-.988a9.67618,9.67618,0,0,0,1.12225-2.9438,9.67628,9.67628,0,0,0-1.98828,2.4438,1.79578,1.79578,0,0,0-.378,1.32137Z"/><path id="spearshape-2" data-name="spearshape" d="M15.23686,27.91667l.28868.16666L23.311,14.59851c.45535-.122.70535-.555.95535-.988a9.67618,9.67618,0,0,0,1.12225-2.9438,9.67628,9.67628,0,0,0-1.98828,2.4438,1.79578,1.79578,0,0,0-.378,1.32137Z" fill="#fff"/></g><g id="spear-2" data-name="spear"><path id="spearshape-3" data-name="spearshape" d="M24.76314,27.91667l-.28868.16666L16.689,14.59851c-.45535-.122-.70535-.555-.95535-.988a9.67618,9.67618,0,0,1-1.12225-2.9438,9.67628,9.67628,0,0,1,1.98828,2.4438,1.79578,1.79578,0,0,1,.378,1.32137Z"/><path id="spearshape-4" data-name="spearshape" d="M24.76314,27.91667l-.28868.16666L16.689,14.59851c-.45535-.122-.70535-.555-.95535-.988a9.67618,9.67618,0,0,1-1.12225-2.9438,9.67628,9.67628,0,0,1,1.98828,2.4438,1.79578,1.79578,0,0,1,.378,1.32137Z" fill="#fff"/></g><path d="M16.83333,24C17.33333,25.33333,19,28,20,28s2.66667-2.66667,3.16667-4V16C22.66667,14.66667,21,12,20,12s-2.66667,2.66667-3.16667,4Z" fill="#b00"/><path id="deco_r" data-name="deco r" d="M23.16667,24A11.45645,11.45645,0,0,0,24,20a11.45645,11.45645,0,0,0-.83333-4,11.45646,11.45646,0,0,0-.83334,4A11.45646,11.45646,0,0,0,23.16667,24Z"/><path id="deco_r-2" data-name="deco r" d="M16.83333,24A11.45645,11.45645,0,0,1,16,20a11.45645,11.45645,0,0,1,.83333-4,11.45646,11.45646,0,0,1,.83334,4A11.45646,11.45646,0,0,1,16.83333,24Z"/><ellipse cx="20" cy="20" rx="0.66667" ry="1" fill="#fff"/><path id="deco_br" data-name="deco br" d="M20.16667,20.975a8.45622,8.45622,0,0,1,.66666,3.5,8.45622,8.45622,0,0,1-.66666,3.5Z" fill="#fff"/><path id="deco_br-2" data-name="deco br" d="M19.83333,19.025a8.45622,8.45622,0,0,1-.66666-3.5,8.45622,8.45622,0,0,1,.66666-3.5Z" fill="#fff"/><path id="deco_br-3" data-name="deco br" d="M19.83333,20.975a8.45622,8.45622,0,0,0-.66666,3.5,8.45622,8.45622,0,0,0,.66666,3.5Z" fill="#fff"/><path id="deco_br-4" data-name="deco br" d="M20.16667,19.025a8.45622,8.45622,0,0,0,.66666-3.5,8.45622,8.45622,0,0,0-.66666-3.5Z" fill="#fff"/></g></svg>