<svg xmlns="http://www.w3.org/2000/svg" viewBox="0 0 40 40"><g id="EA45_flag_singapore"><rect y="7" width="40" height="13" fill="#ed2939"/><rect y="20" width="40" height="13" fill="#fff"/><path d="M13.71924,13.33333A5.01389,5.01389,0,1,1,8.70535,8.31944,5.01388,5.01388,0,0,1,13.71924,13.33333Z" fill="#fff"/><path d="M15.29477,13.33333a4.73829,4.73829,0,1,1-4.73829-4.73828A4.73829,4.73829,0,0,1,15.29477,13.33333Z" fill="#ed2939"/><path id="star" d="M9.32588,13.4543l-.68111-.5225-.68095.52275L8.226,12.612l-.68328-.51937.84314.00179.25865-.84374.25893.84364.84314-.00208-.68311.51961Z" fill="#fff"/><path id="star-2" data-name="star" d="M14.67022,13.4543l-.68112-.5225-.68094.52275.26216-.84254-.68328-.51937.84314.00179.25865-.84374.25893.84364.84314-.00208-.68312.51961Z" fill="#fff"/><path id="star-3" data-name="star" d="M12.00077,11.47086l-.68111-.5225-.68094.52275.26215-.84254-.68328-.51936.84314.00178.25865-.84374.25893.84365.84314-.00209-.68311.51961Z" fill="#fff"/><path id="star-4" data-name="star" d="M10.32588,16.6279l-.68112-.5225-.68094.52275.26216-.84254-.68329-.51937.84314.00179.25866-.84374.25893.84364.84313-.00208-.68311.51961Z" fill="#fff"/><path id="star-5" data-name="star" d="M13.67022,16.6279l-.68112-.5225-.68094.52275.26216-.84254-.68328-.51937.84314.00179.25865-.84374.25893.84364.84314-.00208-.68312.51961Z" fill="#fff"/></g></svg>