<svg xmlns="http://www.w3.org/2000/svg" viewBox="0 0 40 40"><g id="t11_1p4"><rect y="7" width="40" height="26" fill="#0d9939"/><rect y="7" width="26.66667" height="26" fill="#be1818"/><rect y="7" width="13.33333" height="26" fill="#252525"/><path d="M21.22168,18.56244l-.4729-.32977a3.7633,3.7633,0,0,0,.12848-.61243c-.0025-.49524-.84821-1.012-.88568-1.00824-.03339-.00049-.894.60345-.88312,1.00824a2.85823,2.85823,0,0,0,.11578.6062l-.44177.34222H17.78064l.305.336,3.7956.00623.31115-.336Z" fill="#fff"/><path d="M17.17733,22.85533H22.8086l-.504-.41071h-4.6232l-.504.41071Z" fill="#fff"/><path d="M18.68268,17.16241a.37007.37007,0,0,0-.26441-.37329.40443.40443,0,0,0-.26764.37018h.00007L18.18,18.41223h.47962Z" fill="#fff"/><path d="M21.19971,21.92865l-1.28492-1.79511-.95513-.00622v-.14307c-.00623-.47918.618-.86279,1.02044-.87439a1.06119,1.06119,0,0,1,1.04541.87744l.00312.46039h.06848v-.46661a1.0935,1.0935,0,0,0-1.03913-.921h-.15863c-.29461-.00305-1.01532.33606-1.00189.91785l.00006,1.64581.37335.30176-.51025.00311c-.05872.00421-.09375-.05707-.1084-.1463l.03693-2.623H18.154l-.01874,2.564a.80867.80867,0,0,1-.33911.59106l-.00006.00006,1.481-.00006-.00311-.38574Z" fill="#fff"/><path d="M17.22931,16.57666c-.085.06146-.63452-.13025-.62659-.22247-.06762.11371-.78887,1.28494-.46875,1.41577C16.50153,17.88952,17.11487,16.74347,17.22931,16.57666Z" fill="#fff"/><path d="M14.96733,23.39a1.23124,1.23124,0,0,0,.99748.56824,2.32339,2.32339,0,0,0,1.08094-.44336.97338.97338,0,0,1,.74466-.0737c.10762.03522-.07275-.222-.16766-.29424a1.164,1.164,0,0,0-.8482-.17744c-.407.06382-.7432.32295-1.14506.42082a1.6504,1.6504,0,0,1-.66212-.00033Z" fill="#fff"/><path d="M17.51715,23.25751c.00842.10937-.39984.41772-.55054.36853.07923.10913.82947.92342,1.03.72461C18.13419,24.2143,17.59711,23.34991,17.51715,23.25751Z" fill="#fff"/><path d="M16.51245,23.98a2.91822,2.91822,0,0,1-1.08862-.00091c.09045.12469,1.55848,1.23411,2.12837.82911C17.74911,24.66162,16.701,24.07348,16.51245,23.98Z" fill="#fff"/><path d="M16.47748,21.75214c-.00012.007-.10974-.29847-.17145-.46454a.68281.68281,0,0,0-.51642-.42316,3.942,3.942,0,0,1-1.3316-.21783,1.07552,1.07552,0,0,1-.448-.35462c-.02368-.03064.08862.68823.3421.86493a8.18277,8.18277,0,0,0,1.56183.42926.99671.99671,0,0,1,.42615.21131,2.36969,2.36969,0,0,1-.83771-.11853c.08136.11627.65314,1.40026,1.1283,1.21166C16.96661,22.74462,16.58453,21.96344,16.47748,21.75214Z" fill="#fff"/><path d="M15.01532,21.4624c.0083.097-.95306-.33441-1.09918-.52252.06366.14783.85183,2.29638,1.73456,2.23077C15.85828,23.18231,15.09912,21.64984,15.01532,21.4624Z" fill="#fff"/><path d="M15.19208,18.407c-.02906.093-.003.29468-.06848.34223-.07148.052-.25971-.01221-.35474-.00623-.02014.00025-.02112.00733-.03577.0094a.4456.4456,0,0,1-.00122-.06348c-.04748.07251-.25488-.35021-.28454-.51507-.03937.15259-.39862.64856-.43293.52154.00452.1225.15894,1.86744.51923,1.89771.381.02881.25348-1.19354.2096-1.69074.16638.17048.81652,1.10608.84075,1.15357a1.03945,1.03945,0,0,1,.18049.57245,1.0767,1.0767,0,0,0,.23022-.9209A6.61873,6.61873,0,0,0,15.19208,18.407Z" fill="#fff"/><path d="M16.50153,16.20544c-.09711.134-.624-.32263-.64844-.50347-.03443.146-1.51546,2.44315-.79511,2.528C15.42523,18.286,16.45782,16.40912,16.50153,16.20544Z" fill="#fff"/><path d="M21.84937,17.1593a.40443.40443,0,0,0-.26764-.37018.37013.37013,0,0,0-.26441.37329l.02307,1.24982H21.82l.02929-1.25293Z" fill="#fff"/><path d="M21.85693,21.72272,21.846,19.1593h-.53516L21.3,21.72266a.68662.68662,0,0,1-.21161.56622h1.0672A.75753.75753,0,0,1,21.85693,21.72272Z" fill="#fff"/><path d="M24.14691,15.702c-.027.19946-.53839.65533-.64844.50347.0586.273.888,1.61066,1.2002,1.5752C25.34094,17.77,24.19257,15.89569,24.14691,15.702Z" fill="#fff"/><path d="M23.39728,16.35419c-.03534.12237-.52826.23736-.62659.22247.15.21857.46524,1.29831,1.09534,1.1933C24.32145,17.6519,23.49841,16.52417,23.39728,16.35419Z" fill="#fff"/><path d="M25.03267,23.39a1.23124,1.23124,0,0,1-.99748.56824,2.32339,2.32339,0,0,1-1.08094-.44336.97338.97338,0,0,0-.74466-.0737c-.10762.03522.07275-.222.16766-.29424a1.164,1.164,0,0,1,.8482-.17744c.407.06382.7432.32295,1.14506.42082a1.6504,1.6504,0,0,0,.66212-.00033Z" fill="#fff"/><path d="M25.23113,18.74307c-.095-.006-.28328.05821-.35472.00621-.06547-.04755-.03943-.2492-.0685-.34222a4.41555,4.41555,0,0,0-.80261,1.30045,1.07677,1.07677,0,0,0,.23025.92094A1.03962,1.03962,0,0,1,24.416,20.056C24.54408,19.80519,25.35091,18.74442,25.23113,18.74307Z" fill="#fff"/><path d="M23.03339,23.626a1.38182,1.38182,0,0,1-.78345-.14783c-.12525.11029-.41625.779-.24658.87244C22.34087,24.53643,22.937,23.759,23.03339,23.626Z" fill="#fff"/><path d="M24.57617,23.97913a5.734,5.734,0,0,1-1.54236-.04041c-.22.25433-.77388.60944-.59082.84625a.58159.58159,0,0,0,.69879.1239A15.73048,15.73048,0,0,0,24.57617,23.97913Z" fill="#fff"/><path d="M25.99,20.292c.02365-.03066-.08864.68827-.34214.86491a8.17922,8.17922,0,0,1-1.5618.42926,1.00318,1.00318,0,0,0-.59118.35473,6.30729,6.30729,0,0,1,.19911-.65331.68286.68286,0,0,1,.5164-.42314,3.9416,3.9416,0,0,0,1.3316-.21782,1.07565,1.07565,0,0,0,.448-.35464Z" fill="#fff"/><path d="M24.49762,21.679c-.14471.13513-.973.20544-.9751.07318-.09674.19091-.32654,1.22485-.1532,1.13848C23.8542,23.05368,24.41248,21.8006,24.49762,21.679Z" fill="#fff"/><path d="M26.08386,20.93988c-.14081.18127-.6972.24823-.726.12482-.05127.11682-.16022.24243-.1554.1773-.04126.17829-1.06073,1.94031-.85315,1.92865C25.17064,23.22582,26.01447,21.10114,26.08386,20.93988Z" fill="#fff"/><path d="M25.91992,18.34784c-.05023.18579-.30377-.08038-.3645-.3158-.05292.29383-.24579.69135-.33032.56232.04626.12311-.14088,2.06895.1112,2.00431l.13007-.00553C25.69409,20.64984,25.90063,18.51331,25.91992,18.34784Z" fill="#fff"/><path d="M18.31836,24.32973a7.82793,7.82793,0,0,0-1.16415.8613,13.77951,13.77951,0,0,0,2.25352.63579,8.012,8.012,0,0,0,1.16566.00677c.13858-.018,2.47715-.44272,2.25181-.64773-.29093-.25517-1.01954-.92525-1.177-.85979a4.43145,4.43145,0,0,1-1.69053.3908,4.9622,4.9622,0,0,1-1.63927-.38714Z" fill="#fff"/><path d="M16.58764,16.12286a4.49175,4.49175,0,0,1,6.9176-.09412" fill="none" stroke="#fff" stroke-miterlimit="10" stroke-width="0.75"/></g></svg>