<svg xmlns="http://www.w3.org/2000/svg" xmlns:xlink="http://www.w3.org/1999/xlink" viewBox="0 0 40 40"><defs><clipPath id="clip-path"><circle cx="20" cy="20" r="7" fill="none"/></clipPath><clipPath id="clip-path-2"><path d="M22.17133,19.05457l.26583-.61137.55023.23925-.26583.61137Zm.4536-.29087-.04557.10481.27512.11962.04557-.1048Z" fill="none"/></clipPath></defs><g id="EA45_flag_brazil"><rect y="7" width="40" height="26" fill="#009b3a"/><path d="M3.4,20,20,30.6,36.6,20,20,9.4Z" fill="#fedf00"/><circle cx="20" cy="20" r="7" fill="#002776"/><g clip-path="url(#clip-path)"><path d="M-1,34a17,17,0,0,1,34,0H32A16,16,0,0,0,0,34Z" fill="#fff"/></g><path id="O" d="M14.02978,17.95384a.33519.33519,0,1,0-.33839-.29429.318.318,0,0,0,.33839.29429m-.01509-.12289a.21268.21268,0,1,0-.20041-.18649.195.195,0,0,0,.20041.18649" fill="#009b3a" fill-rule="evenodd"/><g id="R"><path id="P" d="M14.573,17.89364l.12351-.00864-.01727-.247.266-.0186a.20953.20953,0,1,0-.02923-.418l-.38.02657Zm.0976-.37916.25652-.01794a.08571.08571,0,0,0-.012-.171l-.25652.01794Z" fill="#009b3a" fill-rule="evenodd"/><path d="M15.13829,17.85411c-.00665-.095-.02126-.304-.16377-.294l-.18051.01262c.209-.01462.22363.1944.23027.2894" fill="#009b3a"/></g><path id="D" d="M15.4179,17.841l.31424-.00548a.28572.28572,0,0,0,.28068-.29066l-.00166-.09522a.28572.28572,0,0,0-.29066-.28069l-.31424.00549Zm.12163-.12595.18092-.00316a.181.181,0,0,0,.17777-.18408l-.001-.05714a.18094.18094,0,0,0-.18408-.17776l-.18093.00316Z" fill="#009b3a" fill-rule="evenodd"/><path id="E" d="M16.26439,17.83271l.59964.02094.00432-.12373-.48542-.017.006-.17133.38072.0133.004-.11422-.38072-.01329.00465-.13326.45687.016.00432-.12374-.57108-.01994Z" fill="#009b3a"/><path id="M" d="M17.11016,17.86871l.11385.01.03984-.45541.093.467.10436.00913.17267-.44379L17.594,17.911l.11385.01.0581-.66413-.166-.01453-.17267.44379-.093-.467-.166-.01452Z" fill="#009b3a"/><path id="e-2" data-name="e" d="M18.49143,18.02451l.49278.08467.01935-.11263-.38014-.06532.0258-.15018.30975.05322.01935-.11264-.30974-.05322.01774-.10325.36841.06331.01935-.11264-.481-.08266Z" fill="#009b3a"/><path id="P-2" data-name="P" d="M19.75737,18.27317l.11986.031.062-.23974.25817.06677a.20952.20952,0,0,0,.10492-.4057l-.36881-.09538Zm.21286-.3286.249.06438a.08571.08571,0,1,0,.04292-.166l-.249-.06438Z" fill="#009b3a" fill-rule="evenodd"/><g id="R-2" data-name="R"><path id="P-3" data-name="P" d="M20.5753,18.49136l.11807.03723.07446-.23615.25433.08018a.20952.20952,0,1,0,.126-.39965l-.36332-.11455Zm.22977-.317.24524.07732a.08571.08571,0,1,0,.05155-.16349l-.24525-.07733Z" fill="#009b3a" fill-rule="evenodd"/><path d="M21.11573,18.66176c.02864-.09083.09165-.29065-.0446-.33361l-.17257-.05441c.19982.063.13682.26283.10818.35366" fill="#009b3a"/></g><path id="O-2" data-name="O" d="M21.66169,18.85713a.33519.33519,0,1,0-.16427-.41728.318.318,0,0,0,.16427.41728m.04336-.116a.21268.21268,0,1,0-.09166-.258.195.195,0,0,0,.09166.258" fill="#009b3a" fill-rule="evenodd"/><g id="G"><g clip-path="url(#clip-path-2)"><path id="O-3" data-name="O" d="M22.44644,19.1742a.33519.33519,0,1,0-.1422-.42532.318.318,0,0,0,.1422.42532m.04937-.11355a.21268.21268,0,1,0-.078-.2624.195.195,0,0,0,.078.2624" fill="#009b3a" fill-rule="evenodd"/></g><rect x="22.67215" y="18.85529" width="0.09524" height="0.25238" transform="translate(-3.74688 32.24802) rotate(-66.5)" fill="#009b3a"/><rect x="22.57768" y="19.07437" width="0.33333" height="0.09524" transform="translate(-3.86095 32.35505) rotate(-66.5)" fill="#009b3a"/></g><g id="R-3" data-name="R"><path id="P-4" data-name="P" d="M22.945,19.398l.1108.05524.11049-.2216.23865.119a.20952.20952,0,0,0,.187-.375l-.34093-.17Zm.27653-.27717.23013.11474a.08572.08572,0,0,0,.07649-.15342l-.23013-.11473Z" fill="#009b3a" fill-rule="evenodd"/><path d="M23.45218,19.65088c.0425-.08523.136-.27274.00814-.33648l-.16194-.08074c.18751.09348.094.281.05152.36623" fill="#009b3a"/></g><path id="E-3" data-name="E" d="M23.69974,19.78152l.52221.29546.061-.10776L23.86018,19.73l.08441-.1492.33157.18759.05627-.09947-.33156-.18759.06566-.116.39787.22511.061-.10776-.49735-.28139Z" fill="#009b3a"/><path id="S" d="M24.67241,20.10787c-.03582.05622.00049.11888.08081.17005s.135.04932.15814.01323c.07292-.11447-.34865-.2814-.21871-.48093.112-.17141.3037-.038.376.008a.21771.21771,0,0,1,.09809.30246l-.12249-.078c.03838-.06024-.00377-.11815-.068-.15909-.06225-.03966-.11283-.05776-.14993.00047-.06213.0931.351.2688.22438.4676-.09339.14659-.25588.08259-.36432.01351-.09237-.05885-.23039-.19759-.14044-.3379Z" fill="#009b3a"/><path id="S-2" data-name="S" d="M25.38758,20.58078c-.03871.05428-.00573.11875.07181.174s.13226.05632.15722.02149c.07881-.11049-.33344-.29926-.19324-.49171.12085-.16532.30528-.02207.37506.0277a.21771.21771,0,0,1,.08213.30718l-.11824-.08434c.04147-.05816.00241-.11819-.05962-.16244-.06009-.04286-.10965-.06358-.14974-.00737-.06692.08972.33647.2868.19959.4787-.10093.1415-.25985.06909-.36452-.00557-.08916-.06361-.21973-.20938-.12256-.34479Z" fill="#009b3a"/><path id="O-4" data-name="O" d="M26.064,21.34783a.33518.33518,0,1,0-.02728-.44762.318.318,0,0,0,.02728.44762m.07707-.09689a.21267.21267,0,1,0-.00746-.27366.195.195,0,0,0,.00746.27366" fill="#009b3a" fill-rule="evenodd"/><polygon points="22.28 17.864 22.457 17.736 22.239 17.736 22.171 17.529 22.104 17.736 21.886 17.736 22.062 17.864 21.995 18.071 22.171 17.943 22.348 18.071 22.28 17.864" fill="#fff"/><polygon points="21.977 19.671 22.095 19.586 21.95 19.586 21.905 19.448 21.86 19.586 21.715 19.586 21.832 19.671 21.787 19.809 21.905 19.724 22.022 19.809 21.977 19.671" fill="#fff"/><polygon points="14.353 18.65 14.286 18.443 14.218 18.65 14 18.65 14.177 18.778 14.109 18.986 14.286 18.857 14.462 18.986 14.395 18.778 14.571 18.65 14.353 18.65" fill="#fff"/><polygon points="14.972 21.593 14.905 21.386 14.837 21.593 14.619 21.593 14.796 21.721 14.728 21.928 14.905 21.8 15.081 21.928 15.014 21.721 15.19 21.593 14.972 21.593" fill="#fff"/><polygon points="14.104 22.237 14.048 22.064 13.992 22.237 13.81 22.237 13.957 22.344 13.901 22.517 14.048 22.41 14.195 22.517 14.138 22.344 14.285 22.237 14.104 22.237" fill="#fff"/><polygon points="15.623 21.213 15.591 21.114 15.558 21.213 15.455 21.213 15.539 21.274 15.507 21.373 15.591 21.312 15.674 21.373 15.642 21.274 15.726 21.213 15.623 21.213" fill="#fff"/><polygon points="16.418 22.304 16.362 22.131 16.306 22.304 16.124 22.304 16.271 22.41 16.215 22.583 16.362 22.476 16.509 22.583 16.453 22.41 16.6 22.304 16.418 22.304" fill="#fff"/><polygon points="16.197 23.014 16.152 22.876 16.107 23.014 15.962 23.014 16.08 23.1 16.035 23.238 16.152 23.153 16.27 23.238 16.225 23.1 16.343 23.014 16.197 23.014" fill="#fff"/><polygon points="24.796 22.493 24.728 22.7 24.905 22.572 25.081 22.7 25.014 22.493 25.19 22.364 24.972 22.364 24.905 22.157 24.837 22.364 24.619 22.364 24.796 22.493" fill="#fff"/><polygon points="25.949 22.547 26.066 22.462 25.921 22.462 25.876 22.324 25.831 22.462 25.686 22.462 25.804 22.547 25.759 22.686 25.876 22.6 25.994 22.686 25.949 22.547" fill="#fff"/><polygon points="25.247 22.999 25.19 22.826 25.134 22.999 24.953 22.999 25.1 23.106 25.044 23.278 25.19 23.172 25.337 23.278 25.281 23.106 25.428 22.999 25.247 22.999" fill="#fff"/><polygon points="23.505 24.293 23.449 24.466 23.267 24.466 23.414 24.572 23.358 24.745 23.505 24.638 23.652 24.745 23.596 24.572 23.743 24.466 23.561 24.466 23.505 24.293" fill="#fff"/><polygon points="23.54 25.186 23.495 25.048 23.45 25.186 23.305 25.186 23.423 25.271 23.378 25.409 23.495 25.324 23.613 25.409 23.568 25.271 23.685 25.186 23.54 25.186" fill="#fff"/><polygon points="24.245 23.929 24.2 23.79 24.155 23.929 24.01 23.929 24.127 24.014 24.082 24.152 24.2 24.067 24.318 24.152 24.273 24.014 24.39 23.929 24.245 23.929" fill="#fff"/><polygon points="24.818 23.561 24.762 23.388 24.706 23.561 24.524 23.561 24.671 23.668 24.615 23.84 24.762 23.734 24.909 23.84 24.853 23.668 25 23.561 24.818 23.561" fill="#fff"/><polygon points="23.404 23.881 23.359 24.019 23.476 23.934 23.594 24.019 23.549 23.881 23.666 23.795 23.521 23.795 23.476 23.657 23.431 23.795 23.286 23.795 23.404 23.881" fill="#fff"/><polygon points="17.389 20.208 17.333 20.036 17.277 20.208 17.096 20.208 17.243 20.315 17.186 20.488 17.333 20.381 17.48 20.488 17.424 20.315 17.571 20.208 17.389 20.208" fill="#fff"/><polygon points="20.067 23.05 20 22.843 19.933 23.05 19.715 23.05 19.891 23.178 19.824 23.386 20 23.257 20.176 23.386 20.109 23.178 20.285 23.05 20.067 23.05" fill="#fff"/><polygon points="20.866 21.675 20.81 21.502 20.753 21.675 20.572 21.675 20.719 21.782 20.663 21.955 20.81 21.848 20.956 21.955 20.9 21.782 21.047 21.675 20.866 21.675" fill="#fff"/><polygon points="19.909 21.153 19.853 21.326 20 21.219 20.147 21.326 20.091 21.153 20.238 21.047 20.056 21.047 20 20.874 19.944 21.047 19.762 21.047 19.909 21.153" fill="#fff"/><polygon points="19.34 21.691 19.295 21.552 19.25 21.691 19.105 21.691 19.223 21.776 19.178 21.914 19.295 21.829 19.413 21.914 19.368 21.776 19.485 21.691 19.34 21.691" fill="#fff"/><polygon points="19.648 22.293 19.732 22.354 19.7 22.255 19.784 22.194 19.68 22.194 19.648 22.095 19.616 22.194 19.512 22.194 19.596 22.255 19.564 22.354 19.648 22.293" fill="#fff"/><polygon points="22.151 24.637 22.095 24.464 22.039 24.637 21.857 24.637 22.004 24.744 21.948 24.917 22.095 24.81 22.242 24.917 22.186 24.744 22.333 24.637 22.151 24.637" fill="#fff"/><polygon points="22.74 24.033 22.695 23.895 22.65 24.033 22.505 24.033 22.623 24.119 22.578 24.257 22.695 24.172 22.813 24.257 22.768 24.119 22.885 24.033 22.74 24.033" fill="#fff"/><polygon points="21.588 23.862 21.543 23.724 21.498 23.862 21.353 23.862 21.47 23.947 21.425 24.086 21.543 24 21.66 24.086 21.616 23.947 21.733 23.862 21.588 23.862" fill="#fff"/><polygon points="17.258 23.622 17.19 23.414 17.123 23.622 16.905 23.622 17.081 23.75 17.014 23.957 17.19 23.829 17.367 23.957 17.299 23.75 17.476 23.622 17.258 23.622" fill="#fff"/><polygon points="20.022 25.445 20 25.376 19.978 25.445 19.905 25.445 19.964 25.488 19.941 25.557 20 25.514 20.059 25.557 20.036 25.488 20.095 25.445 20.022 25.445" fill="#fff"/></g></svg>