<svg xmlns="http://www.w3.org/2000/svg" viewBox="0 0 40 40"><g id="EA45_flag_mongolia"><rect y="7" width="40" height="26" fill="#c4272f"/><rect x="15.37729" y="7" width="11.70937" height="26" fill="#015197"/><circle cx="7.99664" cy="15.74409" r="2.46395" fill="#f9cf02"/><circle cx="7.99664" cy="14.62411" r="2.68795" fill="#c4272f"/><circle cx="7.99664" cy="15.0721" r="1.79196" fill="#f9cf02"/><path d="M6.87666,11.71217a1.12,1.12,0,0,0,2.24,0c0-.448-.28-.504-.28-.672s.168-.392-.168-.672c.168.28-.112.336-.112.616s.112.28.112.504a.224.224,0,1,1-.448,0c0-.224.224-.448.224-.784a1.12552,1.12552,0,0,0-.224-.728c-.168-.28-.448-.504-.224-.728-.336.112-.168.56-.168.84s-.224.448-.224.784.168.392.168.616a.224.224,0,1,1-.448,0c0-.224.112-.224.112-.504s-.28-.336-.112-.616c-.336.28-.168.504-.168.672S6.87666,11.26417,6.87666,11.71217Z" fill="#f9cf02"/><rect x="3.06874" y="18.65603" width="2.23996" height="10.75178" fill="#f9cf02"/><rect x="10.68459" y="18.65603" width="2.23996" height="10.75178" fill="#f9cf02"/><rect x="5.75668" y="20.44799" width="4.47991" height="0.89598" fill="#f9cf02"/><rect x="5.75668" y="26.71987" width="4.47991" height="0.89598" fill="#f9cf02"/><polygon points="5.757 18.656 10.237 18.656 7.997 20 5.757 18.656" fill="#f9cf02"/><polygon points="5.757 28.064 10.237 28.064 7.997 29.408 5.757 28.064" fill="#f9cf02"/><circle cx="7.99664" cy="24.03192" r="2.37435" fill="#f9cf02" stroke="#c4272f" stroke-width="0.26879"/><path d="M7.99664,21.65757a1.18718,1.18718,0,1,1,0,2.37435,1.18718,1.18718,0,1,0,0,2.37435" fill="none" stroke="#c4272f" stroke-width="0.26879"/><circle cx="7.99664" cy="22.84474" r="0.44799" fill="#c4272f"/><circle cx="7.99664" cy="25.2191" r="0.44799" fill="#c4272f"/></g></svg>