<svg xmlns="http://www.w3.org/2000/svg" xmlns:xlink="http://www.w3.org/1999/xlink" viewBox="0 0 40 40"><defs><linearGradient id="linear-gradient" x1="19.97839" y1="21.42813" x2="20.05391" y2="21.65353" gradientTransform="matrix(1, 0, 0, -1, 0, 41)" gradientUnits="userSpaceOnUse"><stop offset="0" stop-color="#510000"/><stop offset="0.3" stop-color="#8a0000"/><stop offset="1" stop-color="#a00"/></linearGradient><linearGradient id="linear-gradient-2" x1="19.97471" y1="21.37647" x2="20.03403" y2="21.53343" gradientTransform="matrix(1, 0, 0, -1, 0, 41)" gradientUnits="userSpaceOnUse"><stop offset="0" stop-color="#ff2a2a"/><stop offset="1" stop-color="red"/></linearGradient></defs><g id="t11_1p558"><rect y="7" width="40" height="26" fill="#0067c6"/><rect y="15.66667" width="40" height="8.66667" fill="#fff"/><path d="M19.612,16.691a3.39532,3.39532,0,0,1,.75223-.00249" fill="none" stroke="#c6a300" stroke-miterlimit="10" stroke-width="0.5"/><path d="M16.6514,20.01667a3.34934,3.34934,0,0,1,2.34519-3.19512" fill="none" stroke="#c6a300" stroke-miterlimit="10" stroke-width="0.5"/><path d="M19.76472,23.35643a3.34808,3.34808,0,0,1-2.69628-1.72034" fill="none" stroke="#c6a300" stroke-miterlimit="10" stroke-width="0.5"/><path d="M22.94861,21.60216A3.34836,3.34836,0,0,1,20.22575,23.357" fill="none" stroke="#c6a300" stroke-miterlimit="10" stroke-width="0.5"/><path d="M20.99226,16.81854a3.34934,3.34934,0,0,1,2.35485,3.19813" fill="none" stroke="#c6a300" stroke-miterlimit="10" stroke-width="0.5"/><polygon points="18.048 20.41 20 17.115 21.952 20.41 18.048 20.41" fill="#53ceea"/><g id="rainbow"><path d="M20,18.63376a1.76947,1.76947,0,0,0-1.15875.43L18.255,20.08a1.78867,1.78867,0,0,0-.03.33h.20125a1.57375,1.57375,0,0,1,3.1475,0H21.775a1.79214,1.79214,0,0,0-.03-.33l-.58625-1.01625A1.77,1.77,0,0,0,20,18.63375Z" fill="red"/><path d="M20,18.66624a1.73827,1.73827,0,0,0-1.21125.49l-.48124.83376a1.74385,1.74385,0,0,0-.05125.42h.17a1.57376,1.57376,0,0,1,3.14751,0h.17a1.7536,1.7536,0,0,0-.05125-.42125l-.48125-.8325A1.73837,1.73837,0,0,0,20,18.66625Z" fill="#f60"/><path d="M20,18.69876a1.70586,1.70586,0,0,0-1.2775.5725l-.34875.60375a1.70929,1.70929,0,0,0-.085.535h.1375a1.57375,1.57375,0,0,1,3.1475,0h.1375a1.70837,1.70837,0,0,0-.085-.535l-.34875-.6038A1.70626,1.70626,0,0,0,20,18.69873Z" fill="#ff0"/><path d="M20,18.73a1.67851,1.67851,0,0,0-1.39625.74625l-.1125.195A1.67271,1.67271,0,0,0,18.32,20.41h.10625a1.57376,1.57376,0,1,1,3.14751,0H21.68a1.67294,1.67294,0,0,0-.17125-.7375L21.395,19.475A1.67736,1.67736,0,0,0,20,18.73Z" fill="lime"/><path d="M20,18.76248A1.6475,1.6475,0,0,0,18.3525,20.41h.07375a1.57375,1.57375,0,0,1,3.1475,0h.07375A1.6475,1.6475,0,0,0,20,18.76248Z" fill="#0cf"/><path d="M20,18.79376A1.6157,1.6157,0,0,0,18.385,20.41h.05375a1.56125,1.56125,0,0,1,3.1225,0h.055A1.61676,1.61676,0,0,0,20,18.79376Z" fill="blue"/><path d="M20,18.82628a1.58358,1.58358,0,0,0-1.58355,1.58355l.00028.02935h.032l-.00028-.02935a1.55152,1.55152,0,0,1,3.103,0l-.00029.02935h.03189l.00028-.02935A1.58345,1.58345,0,0,0,20,18.82628Z" fill="purple"/></g><g id="cap"><path d="M20.0158,19.52536c-.02578-.005-.049-.01934-.071-.02438a.088.088,0,0,0-.02925.08317c.01052.00559.01246.01412.03513.03441s.01984.03093.01847.07862c-.00057.02009.00281.06322.02317.06728.02194.00437.03729-.01386.04359-.04642a.19337.19337,0,0,1,.02793-.06808C20.07609,19.57587,20.0561,19.54964,20.0158,19.52536Z" fill="#510000"/><path d="M19.88672,19.341c-.02382.0006-.06114.04049-.07772.019a.05715.05715,0,0,1-.00148-.056.19284.19284,0,0,1,.08669-.09322c.09511-.056.15556-.038.203.04251a.52039.52039,0,0,1,.08984.21488c.00117.02.0113.05631-.00624.07439-.05392.05557-.18385-.0574-.25989-.03953-.02557.006-.05509.02467-.07922.00872-.01877-.01241-.00308-.03988.0109-.05177a.20864.20864,0,0,0,.05521-.12657c-.00271-.01788-.0032.00713-.021.00758Z" fill="red"/><path d="M19.87708,19.30192c-.04333.01781-.03863.04305-.06038.06361a.0471.0471,0,0,0,.05454-.012.11431.11431,0,0,1,.02709-.0145.32527.32527,0,0,0-.02735.02739.20754.20754,0,0,0-.05364.07385.18654.18654,0,0,0-.015.07128.115.115,0,0,0,.06261.04926c.08124.03228.09669.09755.17911.09755.06453,0,.05417-.04223.10583-.03327.04477.00777.06856-.02786.02543-.04927a.55945.55945,0,0,0-.2149.00133.92583.92583,0,0,1-.00607-.17621c-.00387-.07021-.02492-.07442.00289-.13125-.02311.03489-.05107.02938-.08016.03228Z" fill="url(#linear-gradient)"/><path d="M20.03752,19.1918l-.00222.024c.00348.01354.007.02772.0111.03975a.323.323,0,0,1,.00962.03713c.00324.01439.016.02.02774.02887.0148.01122.00336.0415.01258.04275.00736.001.01953-.04285.01961-.04987a.15206.15206,0,0,0-.00148-.02588l-.017-.03487-.00036-.00036-.00777-.01313a.16826.16826,0,0,0-.03144-.0345l-.00222-.00188-.01036-.0075-.00777-.00449Z" fill="#ff2a2a"/><path d="M20.05,19.49592c-.02873-.00751-.057-.0217-.08148-.029-.048-.01434-.0992-.04536-.13463-.03253-.01267.00561-.01157.01823-.0156.03637-.00168.02135-.02385.05278-.00546.0425.02742-.01533.09963.02931.12382.04425a.10006.10006,0,0,1,.04326.04087.29342.29342,0,0,1,.00165.09182c-.00213.02264.00476.0734.02744.07947.02445.00656.04312-.01289.05263-.04919a.23244.23244,0,0,1,.0303-.07661.07417.07417,0,0,1,.05279-.03449c.02256-.00426.05529.01847.05529-.00814,0-.01747-.01535-.03419-.00882-.05815.00513-.01886-.01606-.0151-.03368-.02288-.04143-.01275-.07877-.01677-.10751-.02428Z" fill="url(#linear-gradient-2)"/><path d="M19.93452,19.55608c-.01307-.0071-.09261-.05911-.12171-.04284-.0092.00514-.0127-.00065-.01283-.01029a.14843.14843,0,0,1,.00736-.03465.08523.08523,0,0,1,.02066-.04248c.02749-.02317.09074.023.12433.03548-.00287.0174-.01881.0942-.01781.09478Z" fill="#910000"/><path d="M20.07052,19.65444c.03663-.06412.06031-.05588.10453-.05494.01474.00032.01906-.01317.0157-.0267-.01112.025-.06648-.00276-.0966.0105-.0629.0277-.05121.15079-.081.16281.031.026.04494-.06983.05742-.09167Z" fill="#ff3a3a"/></g><polygon points="21.952 20.41 18.048 20.41 17.47 21.438 22.496 21.438 21.952 20.41" fill="#1c4b99"/><path d="M21.301,19.925h-.15081c-.22607.57791-.22607.57791-.46283,0h-.15076c-.12835.5968-.27072.59576-.46179,0H19.924c-.21823.59991-.22862.602-.45892,0h-.15082c-.21954.61446-.22577.61031-.46637,0H18.697a9.514,9.514,0,0,1-1.05615,1.2583h4.719A9.51435,9.51435,0,0,1,21.301,19.925Z" fill="#97c12d"/><path d="M20,16.995l-1.28567,2.22742L17.4,21.49835l2.57191-.00028L22.6,21.49835,21.31387,19.271,20,16.995Zm0,.12008,1.262,2.18608,1.234,2.13712-2.52408-.00016-2.468.00016,1.26238-2.1858Z" fill="#c6a300"/></g></svg>