<svg xmlns="http://www.w3.org/2000/svg" viewBox="0 0 40 40"><g id="EA45_flag_southafrica"><path d="M.01222,10.16639c0-1.00083.00359-2.00168-.00409-3.00246C.00705,7.0235.04747,7.00054.1806,7.001c1.55834.00482,3.1167.00309,4.67505.00309.02045.06243.0844.07694.13114.10734Q12.83242,12.213,20.67806,17.31456a.60288.60288,0,0,0,.354.08732q9.48587-.00178,18.97174-.00108v5.19838q-9.49347,0-18.98693-.00211a.64021.64021,0,0,0-.37061.10422Q12.83441,27.78377,5.02023,32.86291c-.05851.038-.13818.05563-.16458.133-1.55835,0-3.11671-.00173-4.675.00309-.13314.00041-.17355-.02255-.17247-.163.00768-1.00078.00409-2.00163.00409-3.00245.09449.01606.146-.05918.2097-.10055q7.38867-4.79851,14.77482-9.60071c.20674-.13437.207-.13507-.00074-.27007Q7.60106,15.05587.20517,10.25088C.14724,10.21324.09861,10.146.01222,10.16639Z" fill="#007a4d"/><path d="M40.00384,24.332q0,4.2345.00426,8.469c.00034.16247-.03761.19907-.20422.199q-15.87445-.00673-31.7489-.004c.04132-.07433.12264-.09991.18845-.14271q6.43981-4.18806,12.87928-8.37663a.84863.84863,0,0,1,.491-.14785Q30.80878,24.33467,40.00384,24.332Z" fill="#002394"/><path d="M8.055,7.004q15.87445,0,31.74889-.004c.16659-.00007.20457.03652.20423.199q-.00887,4.2345-.00426,8.469-9.21465,0-18.42929.00214a.67344.67344,0,0,1-.39061-.11322Q15.74173,12.01378,10.29542,8.4766C9.54616,7.98932,8.80167,7.49507,8.055,7.004Z" fill="#dd3831"/><path d="M.01222,27.75424V12.24574c.08543-.0139.134.05194.1925.0899Q6.00338,16.10157,11.80237,19.867c.17156.11123.16812.15277-.00051.26212Q6.0001,23.89122.20341,27.66075C.14521,27.69854.09736,27.76545.01222,27.75424Z" fill="#252525"/><path d="M8.055,7.004c.74669.491,1.49118.98528,2.24044,1.47256q5.444,3.5405,10.88852,7.08033a.67344.67344,0,0,0,.39061.11322q9.21465-.00384,18.42929-.00214V17.4008q-9.48588,0-18.97174.00108a.60288.60288,0,0,1-.354-.08732Q12.83414,12.21045,4.98679,7.11138c-.04674-.0304-.11069-.04491-.13114-.10734Z" fill="#fdfdfd"/><path d="M40.00384,24.332q-9.19506,0-18.39012-.00323a.84863.84863,0,0,0-.491.14785q-6.43748,4.19148-12.87928,8.37663c-.06581.0428-.14713.06838-.18845.14271H4.85565c.0264-.0774.10607-.095.16458-.133Q12.83292,27.7816,20.6463,22.70129a.64021.64021,0,0,1,.37061-.10422q9.49346.00359,18.98693.00211Z" fill="#fdfdfd"/><path d="M.01222,27.75424c.08514.01121.133-.0557.19119-.09349q5.79942-3.76554,11.59845-7.53164c.16863-.10935.17207-.15089.00051-.26212Q6.00069,16.1055.20472,12.33564c-.05846-.038-.10707-.1038-.1925-.0899V10.16639c.08639-.02043.135.04685.19295.08449Q7.60152,15.0552,14.996,19.86227c.20772.135.20748.1357.00074.27007Q7.6099,24.93353.22192,29.73305c-.06369.04137-.11521.11661-.2097.10055Z" fill="#fcb512"/></g></svg>