<svg xmlns="http://www.w3.org/2000/svg" viewBox="0 0 40 40"><g id="EA45_flag_unitedkingdom"><rect y="7" width="40" height="26" fill="#00247d"/><path d="M40,7H34.99534L24.57439,13.76418V7H15.397v7.04216L4.38166,7H0v3.5157l7.90005,5.07509H0v9.00733H7.83591L0,29.70929V33H5.18411L15.397,26.34664V33h9.17744V26.23L35.12563,33H40V29.74617l-8.02841-5.148H40V15.59079H32.01191L40,10.39035Z" fill="#fff"/><path d="M12.8765,15.59079,0,7V9.26731l9.62017,6.32348Z" fill="#cf142b"/><path d="M27.14172,24.59812,40,33h0V30.891l-9.60206-6.29285Z" fill="#cf142b"/><path d="M15.397,24.59812H12.7483L0,33H3.05326L15.397,25.01061Z" fill="#cf142b"/><path d="M24.57439,15.59079H27.041L40,7.21018V7H37.08364L24.57439,15.06041Z" fill="#cf142b"/><polygon points="40 17.502 22.608 17.502 22.608 7 17.364 7 17.364 17.502 0 17.502 0 22.687 17.364 22.687 17.364 33 22.608 33 22.608 22.687 40 22.687 40 17.502" fill="#cf142b"/></g></svg>