<svg xmlns="http://www.w3.org/2000/svg" xmlns:xlink="http://www.w3.org/1999/xlink" viewBox="0 0 40 40"><defs><clipPath id="clip-path"><ellipse cx="20" cy="20.06667" rx="5.72327" ry="5.87927" fill="none"/></clipPath></defs><g id="EA45_flag_frenchpolynesia"><rect y="7" width="40" height="26" fill="#ce1126"/><rect y="13.5" width="40" height="13" fill="#fff"/><g clip-path="url(#clip-path)"><path d="M18.486,19.40133l-.97167-.028v-.38415l.97167.41211Z" fill="#ff9c10"/><path d="M18.482,19.28933l-.96767-.49219V18.157s-.11339.016-.09718-.11207c.00534-.26674.71113.48685,1.07286.73227l-.00807.51217Z" fill="#ff9c10"/><path d="M14.29133,20.958l2.0404.016v-1.2644l-2.332-.11134.29156,1.36034Z" fill="#ff9c10"/><path d="M14.194,19.21333l2.17007.20806-.01616-.89626-2.12146-.83227L14.194,19.21333Z" fill="#ff9c10"/><path d="M14.63133,17.42133l1.66807.8002.23818-.24575s-.1534-.10445-.14581-.20056c.00289-.09721.15432-.112.1572-.21747.00278-.09722-.17153-.1089-.1734-.20616-.0114-.10541.13436-.21843.13436-.21843l-1.50607-1.2964-.37254,1.58454Z" fill="#ff9c10"/><path d="M25.57867,20.974h-2.1538l-.01616-1.23233,2.36427-.17608L25.57866,20.974Z" fill="#ff9c10"/><path d="M25.63133,19.194c-.02719-.20007-.05571-.39963-.10208-.59583a6.10357,6.10357,0,0,0-.2375-.77294c-.00709-.01858-.01771-.03565-.025-.05416l-1.84166.7708.01666.91253,2.1896-.26041Z" fill="#ff9c10"/><path d="M24.37267,16.23133q-.551.41667-1.10207.83334c.00182.07972.08129.141.10321.21736.05088.10708-.05024.20174-.11283.27742-.05071.0698.0586.10537.09493.14662.08.08212.01032.2108-.07489.25858a.42068.42068,0,0,1,.17708.28958l1.65-.85833a5.66525,5.66525,0,0,0-.73541-1.16453Z" fill="#ff9c10"/><path d="M21.304,19.42933l.923-.04.01615-.36823-.9392.40819Z" fill="#ff9c10"/><path d="M21.30333,19.22933l-.004-.41607s.87434-.7802,1.0606-.92427a.49818.49818,0,0,1-.10114.284v.60823l-.95547.4481Z" fill="#ff9c10"/><path d="M15.636,15.72467c.01615.016.9812,1.076.9812,1.076.02706-.10044.24957-.11572.47625-.0997s.40752-.015.40752.14506-.11506.13728-.11506.24934.17239.10266.17239.24655c0,.14405-.125.11465-.12564.22619-.0004.0922.1304.09711.1304.09711l.919.88033.004-.94033-1.89466-2.9368-.9554,1.05633Z" fill="#ff9c10"/><path d="M17.152,14.61267c.01439.04271,1.28333,2.59373,1.28333,2.59373a10.5161,10.5161,0,0,1,.2307-2.52247l-.36046-.65558-1.15353.58433Z" fill="#ff9c10"/><path d="M21.294,14.33733q-.23958.82812-.47917,1.65627a2.59806,2.59806,0,0,0,.45038.01426c.135.01158.02984.13814.037.213l-.002,1.01853q.67708-1.1958,1.35414-2.39166a6.56,6.56,0,0,0-.9744-.39369q-.19021-.06715-.386-.11673Z" fill="#ff9c10"/><path d="M22.97933,15.02933l-1.675,2.575-.00208.99167c.373-.35483.7478-.7078,1.1196-1.0638.07057-.09991-.224-.14884-.07675-.27059.13337-.04206.156-.25752.01553-.29892-.11572-.16991.10469-.25995.24354-.24135a2.518,2.518,0,0,1,.58167.01161c.10411.09954.2-.15034.30214-.20659.202-.20318.40421-.40614.6039-.61158a5.37048,5.37048,0,0,0-1.11253-.88547Z" fill="#ff9c10"/><path d="M18.65867,25.02733a2.03342,2.03342,0,0,0-1.0146.45,5.54278,5.54278,0,0,0,1.10626.35,11.23836,11.23836,0,0,0,1.875.10417c.102-.01285.203-.02737.30208-.04375l1.31667-.44375a2.445,2.445,0,0,0-1.1354-.4c-.50208.0181-.841.50922-1.24587.47293s-.567-.48959-1.15-.48959c-.01822,0-.03593-.001-.05416,0Z" fill="#083d9c" stroke="#083d9c" stroke-width="0.13713"/><path d="M16.26733,24.68733l7.482.032a2.33984,2.33984,0,0,0-1.40893-.7042c-.76113-.01613-.55054.32008-1.13353.368s-.7288-.35206-1.2632-.3361-.84214.3361-1.24687.35216-.92307-.40021-1.2308-.38409a8.59793,8.59793,0,0,0-1.40893.48009l.21052.192Z" fill="#083d9c" stroke="#083d9c" stroke-width="0.1288"/><path d="M15.312,23.80667l9.23067.03208c.1457-.20806-.45347-.7042-1.004-.75226-.45357.016-.77734.46412-1.1498.48019s-.79347-.46423-1.2146-.44811-.85827.44811-1.27934.44811-.72873-.46423-1.26306-.46423-.77734.51218-1.1822.4802-.7612-.51212-1.1498-.51212-1.0364.57614-1.16593.5441.16185.2401.17816.19205Z" fill="#083d9c" stroke="#083d9c" stroke-width="0.1288"/><path d="M18.88067,22.924l2.06053-.00121c.016-.016-.46133-.70334-1.02993-.65485a1.34966,1.34966,0,0,0-1.03061.65607Z" fill="#083d9c" stroke="#083d9c" stroke-width="0.1288"/><path d="M25.45133,22.87467h-2.8196a1.48721,1.48721,0,0,0,.46443-.40984c.18239.09838.13264.1967.49759.21309s.71313-.40973,1.06154-.39334c.34825.01639.79606.60648.79606.59009Z" fill="#083d9c" stroke="#083d9c" stroke-width="0.1288"/><path d="M14.34,22.87467h2.8196a1.48721,1.48721,0,0,1-.46443-.40984c-.18239.09838-.13264.1967-.49758.21309-.36478.01639-.71314-.40973-1.06154-.39334-.34825.01639-.79606.60648-.79606.59009Z" fill="#083d9c" stroke="#083d9c" stroke-width="0.1288"/><path d="M14.55067,21.99867l2.00806.016a1.77112,1.77112,0,0,1-.1457-.60812c-.51834-.176-.93933.38409-1.3118.40011a1.25189,1.25189,0,0,1-.761-.40011l.21048.59215Z" fill="#083d9c" stroke="#083d9c" stroke-width="0.1288"/><path d="M25.27133,21.99867l-2.00813.016a1.77023,1.77023,0,0,0,.14575-.60812c.5183-.176.93927.38409,1.3118.40011a1.25191,1.25191,0,0,0,.76107-.40011l-.21047.59215Z" fill="#083d9c" stroke="#083d9c" stroke-width="0.1288"/><path d="M19.39267,22.01467l1.02013-.03193s.01626-.30412-.51819-.30412-.48577.35212-.502.336Z" fill="#083d9c" stroke="#083d9c" stroke-width="0.1288"/><path d="M18.858,18.73333l2.12153.56023v-2.993c-.97173.048-1.78133-1.82453-.06477-1.95253-1.6842-.2401-1.8786.192-2.07287.65617l.01616,3.72913Z" fill="#ce1126" stroke="#630810" stroke-linejoin="round" stroke-width="0.12879"/><path d="M19.32933,21.43867a1.26034,1.26034,0,0,1-1.98346.004c-.08644-.02421-.03531-3.25334-.03531-3.25334s-.13783-.06206-.1442-.16133c-.00631-.10028.18742-.10937.18742-.23772s-.19784-.078-.2018-.20706c.00085-.12343.21122-.10641.2018-.22049-.01112-.12856-.23561-.10952-.24513-.228-.00727-.09415.16057-.17624.20722-.21858-.03017.00148-.15592-.00186-.15672-.00228l-.35334.00714c-.251.00027.00434.05408.00067.19723-.0023.09351-.1273.15573-.13848.237-.004.08347.17886.14209.18116.24227.00209.08938-.17961.09546-.17309.17851.01129.14056.16094.17148.1587.25659s-.20138.1174-.20192.18522c.007.1312.02883,3.32047.02883,3.32047.31723,1.62467,2.14854,2.03793,2.66767-.0997Z" fill="#ce1126" stroke="#630810" stroke-linejoin="round" stroke-width="0.12879"/><path d="M20.53667,21.43867a1.26028,1.26028,0,0,0,1.9834.004c.08643-.02421.03535-3.25334.03535-3.25334s.13784-.06206.14415-.16133c.00631-.10028-.17528-.10937-.17528-.23772s.18576-.078.18966-.20706c-.00079-.12343-.195-.11439-.1856-.22852.01108-.12851.16356-.11349.17223-.232.00728-.10207-.09574-.16424-.14238-.20658.03017.00148.14779-.00185.14864-.00227l.35328.00714c.25107.00026-.00433.05407-.0006.19722.00225.09352.12725.15574.13848.237.00391.08346-.17891.14209-.18121.24226-.002.08939.17967.09547.17309.17852-.01129.14056-.16094.17148-.15864.25658s.20138.11741.20186.18523c-.0069.1312-.02878,3.32047-.02878,3.32047-.31729,1.62466-2.14853,2.03793-2.66767-.0997Z" fill="#ce1126" stroke="#630810" stroke-linejoin="round" stroke-width="0.12879"/><path d="M18.77733,21.582a.93819.93819,0,0,0,.45347-.41618l-.6964.016a2.09135,2.09135,0,0,0-.48577.40022h.7287Z" fill="#630810" stroke="#630810" stroke-linecap="round" stroke-width="0.18611"/><path d="M21.028,21.582a.93812.93812,0,0,1-.45341-.41618l.69633.016a2.09028,2.09028,0,0,1,.48577.40022H21.028Z" fill="#630810" stroke="#630810" stroke-linecap="round" stroke-width="0.18611"/><path d="M17.514,20.91l4.79353.016" fill="#630810" stroke="#630810" stroke-linecap="round" stroke-width="0.18611"/><g id="x"><path d="M17.74067,19.774l.56681.75227" fill="#630810" stroke="#630810" stroke-linecap="round" stroke-width="0.18611"/><path d="M17.74067,20.526l.61543-.7362" fill="#630810" stroke="#630810" stroke-linecap="round" stroke-width="0.18611"/><path d="M18.06467,19.72533l-.01617.46412" fill="#630810" stroke="#630810" stroke-linecap="round" stroke-width="0.18611"/></g><g id="x-2" data-name="x"><path d="M18.64757,19.774l.56682.75227" fill="#630810" stroke="#630810" stroke-linecap="round" stroke-width="0.18611"/><path d="M18.64757,20.526l.61543-.7362" fill="#630810" stroke="#630810" stroke-linecap="round" stroke-width="0.18611"/><path d="M18.97157,19.72533l-.01617.46412" fill="#630810" stroke="#630810" stroke-linecap="round" stroke-width="0.18611"/></g><g id="x-3" data-name="x"><path d="M19.57063,19.774l.56682.75227" fill="#630810" stroke="#630810" stroke-linecap="round" stroke-width="0.18611"/><path d="M19.57063,20.526l.61544-.7362" fill="#630810" stroke="#630810" stroke-linecap="round" stroke-width="0.18611"/><path d="M19.89464,19.72533l-.01617.46412" fill="#630810" stroke="#630810" stroke-linecap="round" stroke-width="0.18611"/></g><g id="x-4" data-name="x"><path d="M20.5261,19.774l.56682.75227" fill="#630810" stroke="#630810" stroke-linecap="round" stroke-width="0.18611"/><path d="M20.5261,20.526l.61543-.7362" fill="#630810" stroke="#630810" stroke-linecap="round" stroke-width="0.18611"/><path d="M20.8501,19.72533l-.01617.46412" fill="#630810" stroke="#630810" stroke-linecap="round" stroke-width="0.18611"/></g><g id="x-5" data-name="x"><path d="M21.44917,19.774l.56682.75227" fill="#630810" stroke="#630810" stroke-linecap="round" stroke-width="0.18611"/><path d="M21.44917,20.526l.61543-.7362" fill="#630810" stroke="#630810" stroke-linecap="round" stroke-width="0.18611"/><path d="M21.77317,19.72533l-.01617.46412" fill="#630810" stroke="#630810" stroke-linecap="round" stroke-width="0.18611"/></g></g></g></svg>