<svg xmlns="http://www.w3.org/2000/svg" viewBox="0 0 40 40"><g id="EA45_flag_iraq"><rect id="rect7" x="0.0001" y="15.19437" width="39.9999" height="9.61118" fill="#fff"/><rect id="rect3" y="7" width="39.9999" height="8.66236" fill="#ce1126"/><rect id="rect7-2" data-name="rect7" y="24.33773" width="39.9999" height="8.66227" fill="#252525"/><g id="g6"><g id="g8"><g id="g10"><path id="path12" d="M23.9441,18.36272a.48272.48272,0,0,1-.13577-.10248c-.03056-.04272-.01275-.04438.11319-.01022a.503.503,0,0,0,.51562-.08486l.1273-.10735.14988.0763a.475.475,0,0,0,.19543.06384.42871.42871,0,0,0,.19513-.24953c-.00525-.07387.05713-.05538.0872.02559a.2892.2892,0,0,1-.1815.38132.415.415,0,0,1-.25879-.02725c-.14-.04886-.16389-.04818-.23416.00554A.52966.52966,0,0,1,23.9441,18.36272Z" fill="#007a3d"/><path id="path14" d="M24.50205,17.85255a.7838.7838,0,0,1-.09926-.39786c.01868-.056.038-.06715.089-.05119.08934.02793.11.08953.09664.2981C24.578,17.87172,24.55276,17.91639,24.50205,17.85255Z" fill="#007a3d"/></g><path id="path16" d="M17.93124,17.66335c-.018.1275.22628.44448.33654.5019-.07493.03358-.16817.01839-.23688.05616-.38424.38423-1.78755,1.75231-2.0438,2.07942.759.015,1.60088-.01032,2.31251-.04283-.00068-.51571.48837-.54238.81567-.73022.16837.26521.59124.24487.64409.64409,0,.47786.00088,1.19767.00088,1.71738h-6.4842a.94453.94453,0,0,1-1.20234.72993c.196-.20468.52613-.27514.64418-.55806a1.91058,1.91058,0,0,0-.39231-1.35348,2.33324,2.33324,0,0,0,.693-.3637c-.228.69295.5928.61684,1.20225.601.02053-.23524.00866-.513-.17188-.54735a1.6628,1.6628,0,0,0,.64419-.4294v.93353c1.44876,0,3.01149-.0108,4.49042-.0108,0-.29216.07738-.76146-.15387-.76146-.22083,0-.01041.60078-.182.60078H15.38009c0-.12925-.00331-.39942-.00331-.59407.147-.14705.12954-.1343,1.13363-1.13849C16.61045,18.89752,17.31488,18.26121,17.93124,17.66335Z" fill="#007a3d"/><path id="path18" d="M26.5989,17.63863a3.11327,3.11327,0,0,0,.73012.38647c-.03435.12263-.14355.1712-.17216.30044v2.619c.33109.073.40078-.11465.55834-.2146.043.41917.31.83017.30054,1.15913H26.5988Q26.599,19.76424,26.5989,17.63863Z" fill="#007a3d"/><path id="path20" d="M24.70965,19.04126s.51542-.43513.51542-.45187V20.875l.37119-.00059c0-.87085-.01148-1.75406-.01148-2.56331a3.24354,3.24354,0,0,0,.51952-.52156v4.09335c-1.04585,0-2.9969.00126-3.25481.00126-.048-.84964-.05615-1.72954.93422-1.54034v-.34667c-.03017-.05927-.08448.01431-.09713-.06277.15727-.15738.21051-.19748.6363-.56945,0,.44886.00788,1.50843.00788,1.50843.10414,0,.30687.00038.37538.00038C24.70624,20.87387,24.70965,19.09975,24.70965,19.04126Zm-1.22181,1.81042c.06969.10462.30706.10278.29587-.07348C23.74371,20.6329,23.43188,20.68827,23.48784,20.85168Z" fill="#007a3d"/><circle id="circle22" cx="14.06583" cy="22.37168" r="0.19874" fill="#007a3d"/><path id="path28" d="M20.19937,17.64272a3.10956,3.10956,0,0,0,.73012.38647c-.03435.12263-.14365.1712-.17207.30044v2.61908c.331.0729.40069-.11474.55825-.21469.04292.41917.31.83007.30054,1.15912H20.19927Q20.19942,19.76833,20.19937,17.64272Z" fill="#007a3d"/></g></g></g></svg>