<svg xmlns="http://www.w3.org/2000/svg" viewBox="0 0 40 40"><g id="t11_1p188"><rect y="7" width="40" height="26" fill="#002b7f"/><rect y="11.33333" width="40" height="17.33333" fill="#fff"/><rect y="15.66667" width="40" height="8.66667" fill="#ce1126"/><ellipse cx="12" cy="20" rx="3" ry="3.79167" fill="#fff"/><path d="M11.95693,17.9416l-.24669.00712c-.15751.01487-.2174.07561-.11959.19052a2.3017,2.3017,0,0,0-.73181.21919.14819.14819,0,0,0-.16093.08757c-.01792.05019.02577.10354.10344.08237-.05137.13528-.65828.11953-.67372.34486.046-.03919.09659-.07239.14708-.03888l-.0348.10527c-.08837.02632-.15046.04089-.18746.1376-.03823.097-.0931.24508-.13133.31792a.15433.15433,0,0,0-.03115.08718.09857.09857,0,0,0,.09922.10046.09324.09324,0,0,0,.10517-.08853c-.0041-.03088-.01627-.06714-.09075-.06293a.39412.39412,0,0,1,.30571.05831.26842.26842,0,0,1,.06691.33582c-.05736.11477-.20312.18177-.4205.097a.31229.31229,0,0,0-.4132.17936,1.39186,1.39186,0,0,0,.72738,1.64635,2.90269,2.90269,0,0,1,.79426.62524c.14809.17323.29145.37162.50644.37162a.19815.19815,0,0,0,.09441-.02521c.13533,0,.14412.0505.32571.05369v.00019L12,22.77349l.009.00019v-.00019c.18178-.00316.19052-.05369.3259-.05369a.19741.19741,0,0,0,.09421.02521c.215,0,.35836-.19839.50645-.37162a2.90474,2.90474,0,0,1,.79444-.62524,1.39193,1.39193,0,0,0,.72738-1.64635.31249.31249,0,0,0-.41339-.17936c-.21738.08478-.36294.01778-.4203-.097a.26842.26842,0,0,1,.06691-.33582.3936.3936,0,0,1,.30552-.05831c-.07449-.00421-.08647.03205-.09056.06293a.09324.09324,0,0,0,.10517.08853.09839.09839,0,0,0,.099-.10046.15374.15374,0,0,0-.031-.08718c-.03822-.07284-.0933-.2209-.13152-.31792-.037-.09671-.09909-.11128-.18746-.1376l-.03461-.10527c.05049-.03351.10111-.00031.14708.03888-.01542-.22533-.62253-.20959-.67391-.34486.07768.02117.12156-.03218.10364-.08237a.14818.14818,0,0,0-.16093-.08757,2.3004,2.3004,0,0,0-.73181-.21922c.09777-.11493.0379-.17564-.11961-.19051l-.24669-.00712-.04307-.00135-.04287.00135Z" fill="#dba843"/><path d="M11.619,22.63653c-.23172.04989-.38343-.07607-.56619-.34959a2.80276,2.80276,0,0,0-.75611-.593A1.26182,1.26182,0,0,1,9.6588,20.1763a.25527.25527,0,0,1,.26518-.11288c.20188.05446.54111,0,.54231-.32707a.395.395,0,0,0-.344-.39919.24891.24891,0,0,0-.21261.08094" fill="none"/><path d="M10.55823,20.04363a1.65564,1.65564,0,0,0,.006-.91245,2.25847,2.25847,0,0,1,1.437-.53268,1.9272,1.9272,0,0,1,1.437.53268,1.67938,1.67938,0,0,0,.006.91245H10.55591" fill="#89c4e2"/><path d="M10.5562,20.04363a2.60718,2.60718,0,0,1-.12779.32964,1.18024,1.18024,0,0,0,.26995,1.21732c.596.596,1.05.35594,1.27811.68068H12.023c.22814-.32474.682-.0847,1.27811-.68068a1.17772,1.17772,0,0,0,.26994-1.21732,2.7387,2.7387,0,0,1-.12781-.32964H10.55505" fill="#234c9b"/><path d="M12.86932,20.28611c.01793-.09326.09439-.17919.10277-.252a.35743.35743,0,0,1,.05854-.16237.44591.44591,0,0,0,.06211-.14954c.01193-.06207.05854-.07522.08-.01192a2.69874,2.69874,0,0,0,.08243.25931.25362.25362,0,0,1,.03823.11344c-.00358.02508.02749.03455.04541.0526.01793.01681.02031.07522.07288.12537a.68155.68155,0,0,0,.16008.111.97824.97824,0,0,1,.06688.42168h-3.2818c-.00119-.04526,0-.0896.00239-.13241.29149-.07522.40022-.26756.52326-.25441a1.81453,1.81453,0,0,1,.2043-.24494,1.2356,1.2356,0,0,0,.23177-.45165c.03346-.14678.08243-.22567.11946-.21741.037.00856.05257.01559.09677.14831.06095.18255.10276.20426.14934.33544a1.02674,1.02674,0,0,0,.25568.42413,1.0142,1.0142,0,0,0,.20428-.17674.454.454,0,0,1,.10872-.1373,1.13571,1.13571,0,0,1,.06811-.196.13454.13454,0,0,0,.031-.0896.54529.54529,0,0,1,.07765-.20426c.04423-.07278.10277-.09663.129,0a3.47215,3.47215,0,0,0,.13858.42657.98133.98133,0,0,0,.1565.26511l.00992.01173a.03848.03848,0,0,0,.00561-.01417Z" fill="#509064"/><path d="M11.64212,20.06043a.184.184,0,0,1-.012.06574.20616.20616,0,0,1,.03112.08348c.01915-.01773.05625-.00367.06462.04557a.467.467,0,0,1,.012.12415c.01675.01437.05266.03944.05863.067.006.0263.02393.02263.04188.02018.05625-.00825.05147.05963.11011.05015.08256-.01192.03112.05382.11368.05137a.16962.16962,0,0,1,.1472.05382c.03707-.05015.06939-.03119.10291-.018.03351.01193.07539.00856.03829-.01773a.21972.21972,0,0,0-.1472-.02294.1366.1366,0,0,1-.11847-.02844.23893.23893,0,0,0-.128-.05871c-.03591-.00122-.04427-.00336-.07178-.044a.10256.10256,0,0,0-.091-.037c-.02034-.00122-.0359-.02752-.012-.0526.03471-.037-.01436-.04189.00359-.06452s.00839-.05259-.03949-.05626-.0299-.019-.02273-.0526c.01675-.07981-.091-.06666-.08257-.10488" fill="#509064"/><path d="M13.521,20.49038c.00478-.04892-.03232-.0691-.04069-.10641-.00716-.037-.06583-.03822-.08136-.02721a.04557.04557,0,0,1-.0072.04036c-.00717.00979-.00717.0156.0072.02049.01553.00367.0287.007.0299.02018.00119.01193.00839.00122.01436-.01437.00478-.01529.04666.01926.05147.05015.00359.03119.02034.05259.02512.01559" fill="#509064"/><path d="M13.3271,20.43778c.00717.018.03352.04311.04786.04311a.04244.04244,0,0,1,.03949.02753c.00242.01437.01436.03455.02993.037s.00717.01437-.012.01314c-.02034-.00122-.05144-.01314-.05383-.02752.00717.03-.00242.04312-.02157.02141-.01795-.02018-.02751-.04893-.05143-.0526.018-.00336.02034-.00825.012-.02629-.00717-.01774-.0012-.06544.00958-.03578" fill="#509064"/><path d="M12.43725,21.65418a.082.082,0,0,1-.07167-.03456.14146.14146,0,0,1-.13856.00123.13728.13728,0,0,1-.129.00948.17112.17112,0,0,1-.15766-.00337.19215.19215,0,0,1-.09675.03578.738.738,0,0,0-.21262-.17919c-.07525-.037-.22576-.10886-.30578-.14342-.0466-.02018-.0896-.055-.00119-.01682.09436.04067.24606.10152.34878.14709a3.28966,3.28966,0,0,0,.83013.04648.432.432,0,0,0,.16365-.07034c.03584-.02171.037-.00856.00239.00948a.27156.27156,0,0,0-.1099.07768c-.04061.05626-.09676.08133-.11825.11834l-.00358.00214Z" fill="#704d25"/><path d="M11.84123,20.71662c.02746-.02385.09076.03.13018.00734-.02388.07737-.11944.01651-.13018.04526v-.0526" fill="#fff"/><path d="M12.11239,20.71908c.02746-.02385.09079.03.1302.007-.0251.07767-.11947.01681-.1302.04556v-.0526" fill="#fff"/><path d="M12.3668,20.76314c.02749-.02385.09079.03.13021.00611-.02508.07767-.11944.01682-.13021.04526v-.05137Z" fill="#fff"/><path d="M12.4922,20.89948l-.18993-.02049a.21678.21678,0,0,0-.0203.17583c.06091-.05749.17081-.02752.22576.00214-.01792-.05015-.04541-.118-.01434-.15625l-.00119-.00123Z" fill="#fff"/><path d="M12.50653,21.05576c-.05611.00122-.18989-.00214-.23172-.00214a.20657.20657,0,0,0-.00954.18041c.05015-.08011.209-.0373.26994.02018a.22673.22673,0,0,1-.02746-.19937l-.00122.00092Z" fill="#fff"/><path d="M12.534,21.25665c-.05495-.00979-.23172-.02171-.26756-.03119a.80658.80658,0,0,0-.06449.2116c.086-.09448.28548-.02507.32728.06666-.0418-.07889-.08363-.19815.006-.24707Z" fill="#fff"/><path d="M12.29752,20.842l-.25086-.03333a.29979.29979,0,0,0-.05853.20182.26464.26464,0,0,1,.29386.04189c-.01673-.07767-.03822-.17552.01673-.2116l-.0012.00122Z" fill="#fff"/><path d="M12.27839,21.05945l-.27833-.037a.29427.29427,0,0,0-.03107.22108.3031.3031,0,0,1,.31894.04648c-.02985-.10274-.05495-.16359-.00835-.23056Z" fill="#fff"/><path d="M12.28676,21.29l-.2831-.02875a.24378.24378,0,0,0-.06449.19357c.04418-.07278.23172-.02018.31175.06085a.15481.15481,0,0,1,.03583-.22567Z" fill="#fff"/><path d="M11.82567,20.842a.41949.41949,0,0,0-.086.12905.27041.27041,0,0,1,.233.02385.1751.1751,0,0,1-.00957-.1373.3838.3838,0,0,0-.13617-.01437l-.00119-.00123Z" fill="#fff"/><path d="M11.70981,21.00925a1.40483,1.40483,0,0,1,.28668.03455.30132.30132,0,0,0-.01792.21619.38174.38174,0,0,0-.35954-.06666c.01792-.04434.0621-.13638.08959-.18531l.00119.00123Z" fill="#fff"/><path d="M11.99887,21.28175a.97668.97668,0,0,1-.33328-.06941,1.06576,1.06576,0,0,0-.04418.25319c.08-.10733.27594-.04771.338.06207-.006-.0584-.02749-.20181.03942-.24707v.00122Z" fill="#fff"/><path d="M12.06811,17.6238c.00835.03881.01911.14349-.03822.15848.1051.12967.2568.1482.52317.1482.16723,0,.30221-.00118.40134,0,0,.03322-.01076.0688-.01076.11026,0,.04.04183.05852.10274.0447s.19112-.05293.26157.00911c.11828.10585.33567.12408.39419.19083a.47641.47641,0,0,0-.17916-.22994.37716.37716,0,0,1,.21977.02411c-.09082-.09843-.25565-.10079-.33926-.149a1.04772,1.04772,0,0,0-.22575-.107.06815.06815,0,0,0-.02749-.06527.52906.52906,0,0,0-.23888-.0541.06664.06664,0,0,0,.01431-.05058v-.12967c0-.045.0048-.05645-.04657-.0885A1.55061,1.55061,0,0,0,12,17.22633a1.54657,1.54657,0,0,0-.87911.20906c-.05256.032-.04657.04351-.04657.0885v.12967a.06216.06216,0,0,0,.01431.05058.50359.50359,0,0,0-.23888.0541.06955.06955,0,0,0-.02749.06527.99042.99042,0,0,0-.22573.107c-.08364.04822-.24845.05058-.33924.14908a.3621.3621,0,0,1,.21858-.02411.48032.48032,0,0,0-.17917.22993c.05853-.06675.27591-.085.39539-.19083.06926-.062.19946-.02411.26157-.00911.06091.01382.10274-.00353.10274-.0447,0-.04146-.01076-.077-.01076-.11026.09795-.00235.23292,0,.40134,0,.26518,0,.41688-.01852.52317-.1482-.05853-.015-.04776-.11849-.03822-.15848a1.40662,1.40662,0,0,0-.28668-.07468c-.09913,0-.11705.05263-.11705.07233v.01617c-.07883,0-.18993-.0197-.21739-.07145a2.08223,2.08223,0,0,1,1.38314,0c-.02746.05175-.13855.07145-.21738.07145v-.01617c0-.01852-.01673-.07233-.11706-.07233a1.33443,1.33443,0,0,0-.28667.07468h-.00477Z" fill="#89c4e2"/><path d="M12.00006,18.55085a1.19655,1.19655,0,0,0,.13856-.00458v-.08012c0-.0263.09317-.05749.23411-.03.55185.10763.62709.35716,1.0464.50056.00477.00123.0203.00612.03822.00948.01076-.02507.02269-.05014.03584-.081.00715-.02293.0681-.02171.12182.00337.06214.03.0896.06452.07886.08256-.01076.0263-.02153.0477-.03107.06911.09795.03486.27591.08745.21739.3226a.40332.40332,0,0,0-.22335-.092c-.07764,0-.16127-.02967-.135-.11467a.29272.29272,0,0,0-.05257-.02263l-.00957.0214c-.01792.04434-.09555.05994-.1732.03364-.43718-.14922-.57215-.47916-1.08817-.48375v.01437c0,.04159-.05376.07981-.19827.07981-.14336,0-.19828-.03823-.19828-.07981V18.6848c-.51482.00336-.651.3333-1.08817.48375-.07645.0263-.15408.00948-.1732-.03364l-.00957-.0214a.2911.2911,0,0,0-.05257.02263c.02511.08378-.05614.11467-.135.11467a.40688.40688,0,0,0-.22334.092c-.05853-.23392.11705-.28652.21738-.3226l-.03107-.06911c-.00954-.018.01673-.0526.07883-.08256.05376-.0263.11347-.02752.12185-.00337.01315.02966.02389.05474.03584.081.01792-.00336.03223-.00825.03823-.00948.41807-.14341.49451-.39293,1.04633-.50056.13977-.02753.23415.00366.23415.03v.08012c.03464.00336.08241.00458.13855.00458Z" fill="#fff"/><path d="M10.45437,18.93922c.0215.05137.049.11711.07406.17307" fill="#fff"/></g></svg>