<svg xmlns="http://www.w3.org/2000/svg" viewBox="0 0 40 40"><g id="EA45_flag_syria"><rect y="7" width="40" height="26" fill="#252525"/><rect y="7" width="40" height="17.33333" fill="#fff"/><rect y="7" width="40" height="8.66667" fill="#ce1126"/><polygon points="14.747 19.107 12.648 19.107 12 17.111 11.352 19.107 9.253 19.107 9.252 19.107 9.252 19.107 9.252 19.107 9.253 19.108 10.951 20.341 10.302 22.337 12 21.103 13.698 22.337 13.049 20.341 14.747 19.108 14.748 19.107 14.748 19.107 14.748 19.107 14.747 19.107" fill="#007a3d"/><polygon points="30.748 19.107 30.748 19.107 30.748 19.107 30.747 19.107 28.648 19.107 28 17.111 27.352 19.107 25.253 19.107 25.252 19.107 25.252 19.107 25.252 19.107 25.253 19.108 26.951 20.341 26.302 22.337 28 21.103 29.698 22.337 29.049 20.341 30.747 19.108 30.748 19.107" fill="#007a3d"/></g></svg>