<svg xmlns="http://www.w3.org/2000/svg" viewBox="0 0 40 40"><g id="EA45_flag_hawai"><rect y="7" width="40" height="26" fill="#012169"/><polygon points="19.3 7 17.284 7 8.449 12.049 0 7.22 0 9.523 6.435 13.2 0 16.877 0 19.18 8.449 14.352 18.804 20.269 19.796 18.532 10.465 13.2 19.796 7.868 19.3 7" fill="#fff"/><polygon points="19.3 7 17.956 7 8.45 12.433 0 7.604 0 9.14 7.106 13.2 0 17.261 0 18.797 8.45 13.968 18.969 19.979 19.631 18.821 9.793 13.2 19.631 7.579 19.3 7" fill="#c8102e"/><polygon points="10.117 11.533 10.117 7 6.783 7 6.783 11.533 0 11.533 0 14.867 6.783 14.867 6.783 22.5 10.117 22.5 10.117 14.867 22.4 14.867 22.4 11.533 10.117 11.533" fill="#fff"/><polygon points="9.45 12.2 9.45 7 7.45 7 7.45 12.2 0 12.2 0 14.2 7.45 14.2 7.45 22.5 9.45 22.5 9.45 14.2 22.4 14.2 22.4 12.2 9.45 12.2" fill="#c8102e"/><path d="M17.5,20V7H40V33H0V20Z" fill="#fff"/><path d="M17.5,13.5v3.25H40V13.5ZM0,23.25V26.5H40V23.25Z" fill="#012169"/><path d="M40,33H0V29.75H40Zm0-9.75H0V20H40Zm0-9.75H17.5V10.25H40Z" fill="#c8102e"/></g></svg>