<svg xmlns="http://www.w3.org/2000/svg" viewBox="0 0 40 40"><g id="t11_1p818"><rect y="7" width="40" height="26" fill="#252525"/><rect y="7" width="40" height="17.33333" fill="#fff"/><rect y="7" width="40" height="8.66667" fill="#ce1126"/><path d="M20.03451,20.10172l2.918,2.70885-.20775-4.91973c-.03052-.7456-.67846-.57454-1.14913-.30558a1.75691,1.75691,0,0,1-1.59542.10383,1.7568,1.7568,0,0,1-1.59535-.10383c-.47062-.26894-1.11849-.44-1.14908.30558l-.20787,4.91973,2.9866-2.70885Z" fill="#fff" stroke="#c09309" stroke-linejoin="round" stroke-width="0.05646"/><path d="M17.59148,17.71961l-.20171,4.78551-.34232.30541.20784-4.91973a1.02547,1.02547,0,0,1,.33619-.17115Z" fill="#c09309"/><path d="M18.00135,18.06216l-.17115,4.00306-.34223.35024.2078-4.62234c.06728.06719.269.2322.30557.26886Z" fill="#c09309"/><path d="M18.37415,18.36765l-.1344,3.3387-.27505.26881.17118-3.8092c.0671.06724.20158.165.23827.20167Z" fill="#c09309"/><path d="M18.77763,18.53892l-.13448,2.84554-.269.21811.13448-3.16751a.97794.97794,0,0,0,.269.10386Z" fill="#c09309"/><path d="M19.15043,18.53892l-.09788,2.37133-.275.269.10393-2.60971a.70879.70879,0,0,0,.269-.0306Z" fill="#c09309"/><g id="w"><path d="M22.40852,17.71961l.20171,4.78551.34232.30541-.20784-4.91973a1.02547,1.02547,0,0,0-.33619-.17115Z" fill="#c09309"/><path d="M21.99865,18.06216l.17115,4.00306.34223.35024-.2078-4.62234c-.06728.06719-.269.2322-.30557.26886Z" fill="#c09309"/><path d="M21.62585,18.36765l.1344,3.3387.27505.26881-.17118-3.8092c-.0671.06724-.20158.165-.23827.20167Z" fill="#c09309"/><path d="M21.22237,18.53892l.13448,2.84554.269.21811-.13448-3.16751a.97794.97794,0,0,1-.269.10386Z" fill="#c09309"/><path d="M20.84957,18.53892l.09788,2.37133.275.269-.10393-2.60971a.70879.70879,0,0,1-.269-.0306Z" fill="#c09309"/></g><path d="M20.13464,20.64111l.40955,1.86423-.13453.13443-.14057-.10391-.23228-1.6624.0978,1.6624-.1345.1711-.13448-.1711.09784-1.6624-.23223,1.6624-.1407.10391-.13441-.13443.4095-1.86423Z" fill="#c09309" stroke="#c09309" stroke-width="0.04773"/><path d="M19.08312,19.82222l-.81293,2.88464,1.11863.17118.47667-2.16967-.78237-.88616Z" fill="#fff" stroke="#c09309" stroke-linejoin="round" stroke-width="0.05284"/><path d="M18.81427,20.80642l.09781.23829.52852-.5048" fill="none" stroke="#c09309" stroke-linejoin="round" stroke-width="0.05647"/><path d="M19.18026,20.20908l.11059,1.03729.33619-.44" fill="none" stroke="#c09309" stroke-linejoin="round" stroke-width="0.05647"/><path d="M19.49256,20.97727l.18363.63377" fill="none" stroke="#c09309" stroke-linejoin="round" stroke-width="0.05647"/><path d="M19.7482,21.37819l-.37143.56415m.11584.56308-.11888-.56231-.10377-.5719-.24884.337-.10913-.38853-.34829.35724.17713.64979.24445-.402.13445.40955.251-.39037" fill="none" stroke="#c09309" stroke-linejoin="round" stroke-width="0.05647"/><path d="M18.50836,22.63976l.2258-.31715.14711.48814.20171-.34222.13452.40959" fill="none" stroke="#c09309" stroke-linejoin="round" stroke-width="0.05647"/><path d="M20.91688,19.82222l.81293,2.88464-1.11863.17118-.47667-2.16967.78237-.88616Z" fill="#fff" stroke="#c09309" stroke-linejoin="round" stroke-width="0.05284"/><path d="M21.18573,20.80642l-.09781.23829-.52852-.5048" fill="none" stroke="#c09309" stroke-linejoin="round" stroke-width="0.05647"/><path d="M20.81974,20.20908l-.11059,1.03729-.33619-.44" fill="none" stroke="#c09309" stroke-linejoin="round" stroke-width="0.05647"/><path d="M20.50744,20.97727l-.18363.63377" fill="none" stroke="#c09309" stroke-linejoin="round" stroke-width="0.05647"/><path d="M20.2518,21.37819l.37143.56415m-.11584.56308.11888-.56231.10377-.5719.24884.337.10913-.38853.34829.35724-.17713.64979-.24445-.402-.13445.40955-.251-.39037" fill="none" stroke="#c09309" stroke-linejoin="round" stroke-width="0.05647"/><path d="M21.49164,22.63976l-.2258-.31715-.14711.48814-.20171-.34222-.13452.40959" fill="none" stroke="#c09309" stroke-linejoin="round" stroke-width="0.05647"/><path d="M20,23.99634a9.00327,9.00327,0,0,0,2.13938-.2017c.20176-.03659.20176-.1405.20176-.275.20175-.06722.09777-.30551.23835-.30551-.14058.03675-.1711-.23834-.34225-.20159,0-.23845-.2384-.269-.44012-.20186A6.77193,6.77193,0,0,1,20,22.97576a8.39892,8.39892,0,0,1-1.79708-.16511c-.2017-.06711-.44-.03659-.44.20186-.17121-.03675-.20176.23834-.3423.20159.14055,0,.03662.23829.23835.30551,0,.13453,0,.23844.20782.275A8.91177,8.91177,0,0,0,20,23.99634Z" fill="#fff" stroke="#c09309" stroke-linecap="round" stroke-linejoin="round" stroke-width="0.10568"/><path d="M18.845,22.70665a3.42817,3.42817,0,0,0,.8191.0367c.13435,0,.23218.23222-.03675.269a3.21851,3.21851,0,0,1-.81292-.03674c-.17116-.03058-.544-.09777-.78242-.16511-.23838-.10381-.06715-.3054.0672-.2749a4.48609,4.48609,0,0,0,.74582.17109Z" fill="#fff" stroke="#c09309" stroke-linecap="round" stroke-linejoin="round" stroke-width="0.05647"/><path d="M21.15548,22.70665a3.39091,3.39091,0,0,1-.813.0367c-.14063,0-.23843.23222.03055.269a3.21724,3.21724,0,0,0,.81284-.03674c.17123-.03058.544-.09777.78242-.16511.23846-.10381.06733-.3054-.0672-.2749a4.48482,4.48482,0,0,1-.74565.17109Z" fill="#fff" stroke="#c09309" stroke-linecap="round" stroke-linejoin="round" stroke-width="0.05647"/><path d="M18.00135,22.57244a.23544.23544,0,0,0-.23829.336c.03052-.06722.17112-.06722.20172-.13443.03657-.10383-.0306-.10383.03657-.2016Z" fill="#fff" stroke="#c09309" stroke-linecap="round" stroke-linejoin="round" stroke-width="0.05647"/><path d="M18.81427,23.19747c0-.13432.1344-.11781.1344-.25229,0-.06719-.03659-.17115-.10382-.17115a.14463.14463,0,0,0-.13453.13443C18.67974,23.043,18.81427,23.06317,18.81427,23.19747Z" fill="#fff" stroke="#c09309" stroke-linecap="round" stroke-linejoin="round" stroke-width="0.05647"/><path d="M19.78186,22.81061c.20155,0,.18158.269.08374.40348,0-.09779-.17112-.13446-.17112-.2016,0-.104.1545-.104.08738-.20188Z" fill="#fff" stroke="#c09309" stroke-linecap="round" stroke-linejoin="round" stroke-width="0.05647"/><path d="M21.99865,22.57244a.23551.23551,0,0,1,.2384.336c-.0306-.06722-.17115-.06722-.2017-.13443-.0367-.10383.03057-.10383-.0367-.2016Z" fill="#fff" stroke="#c09309" stroke-linecap="round" stroke-linejoin="round" stroke-width="0.05647"/><path d="M21.18573,23.19747c0-.13432-.13435-.11781-.13435-.25229,0-.06719.03662-.17115.10387-.17115a.14462.14462,0,0,1,.13448.13443c.03058.13451-.104.15471-.104.289Z" fill="#fff" stroke="#c09309" stroke-linecap="round" stroke-linejoin="round" stroke-width="0.05647"/><path d="M20.21814,22.81061c-.20162,0-.18163.269-.08382.40348,0-.09779.1711-.13446.1711-.2016C20.30544,22.90845,20.15092,22.90845,20.21814,22.81061Z" fill="#fff" stroke="#c09309" stroke-linecap="round" stroke-linejoin="round" stroke-width="0.05647"/><path d="M19.99915,21.15963a3.2411,3.2411,0,0,0,1.27149-2.6366.54186.54186,0,0,1-.10825.011,2.06324,2.06324,0,0,1-1.14986-.37888,2.36627,2.36627,0,0,1-1.17482.37888.52844.52844,0,0,1-.10825-.011,3.23633,3.23633,0,0,0,1.26966,2.6366Z" fill="#fff" stroke="#c09309" stroke-width="0.05112"/><path d="M21.15974,18.63777l-.03612.00113a2.272,2.272,0,0,1-1.11521-.339,2.5709,2.5709,0,0,1-1.1323.339.20066.20066,0,0,1-.0362-.00369c-.00061.05926.00247.12068.00615.17654a3.1157,3.1157,0,0,0,.106.62,3.0275,3.0275,0,0,0,1.04692,1.583,3.03229,3.03229,0,0,0,1.04815-1.58435,3.11728,3.11728,0,0,0,.10632-.61992c.00364-.05473.0067-.11469.00629-.17275Z" fill="#fff" stroke="#c09309" stroke-width="0.0407"/><path d="M19.54752,18.50953a2.64222,2.64222,0,0,1-.671.12914.19827.19827,0,0,1-.03595-.004c-.00061.05925.003.12122.00666.17708a3.10414,3.10414,0,0,0,.10518.61911,3.02612,3.02612,0,0,0,.59517,1.141V18.50951Z" fill="#c09309"/><path d="M20.42606,18.50569V20.604a3.02963,3.02963,0,0,0,.62179-1.17431,3.10764,3.10764,0,0,0,.10519-.61911c.00363-.05472.00707-.115.00666-.17308l-.03595.00132a2.60378,2.60378,0,0,1-.69768-.13314Z" fill="#c09309"/><path d="M20.52448,18.00081c.0284.00167-.03842-.152-.03842-.152.07517.07685.35915.09522.35915.09522-.17038-.07522-.34075-.64318-.32073-1.09587.0184-.45435-.06512-.63308-.132-.69993a1.07389,1.07389,0,0,0-.53956-.17039c-.10193-.005-.08519.07685-.08519.07685a.69351.69351,0,0,0-.46275-.01c-.08018.05346-.09688.32073-.03842.274.142-.1136.26561-.01.3508.11359a1.13571,1.13571,0,0,1-.03843.77509,2.60719,2.60719,0,0,1-.4243.75506.99858.99858,0,0,0,.40593-.15034l-.0568.23554a1.45111,1.45111,0,0,0,.32073-.21716l.17039.17874a1.73968,1.73968,0,0,1,.17039-.17874.61663.61663,0,0,0,.35916.17039Z" fill="#fff" stroke="#c09309" stroke-width="0.05413"/><path d="M19.83469,16.9135a2.52933,2.52933,0,0,1-.274.89873" fill="none" stroke="#c09309" stroke-width="0.05646"/><path d="M19.98509,16.89518a3.48037,3.48037,0,0,1-.16037.93546" fill="none" stroke="#c09309" stroke-width="0.05646"/><path d="M20.11844,16.92373a6.81084,6.81084,0,0,0,.04678.907" fill="none" stroke="#c09309" stroke-width="0.05646"/><path d="M20.28716,16.96207a2.52026,2.52026,0,0,0,.19879.887" fill="none" stroke="#c09309" stroke-width="0.05646"/><path d="M19.66256,16.57436a.33783.33783,0,0,0-.0451-.142c-.0852-.12361-.20881-.22718-.3508-.11359,0,0,.04844-.15035.152-.15536.08018-.005.26227.06014.42264.3341,0,0-.11861-.02673-.147-.00168-.05346.04678-.03174.07852-.03174.07852Z" fill="#c09309" stroke="#c09309" stroke-width="0.01574"/><path d="M19.25184,16.13338a.16384.16384,0,0,1,.05345-.08853.69348.69348,0,0,1,.4627.01s-.0167-.08185.0852-.07684a1.07369,1.07369,0,0,1,.53956.17039.336.336,0,0,1,.06348.10189h-.00334c-.04176-.05846-.16037-.05511-.18878-.05178a.76489.76489,0,0,0-.13363.01837.26981.26981,0,0,0-.09522.03342c-.01838.015-.03341.07016-.06181.07016-.0451,0-.04176-.0117-.05345-.02506-.015-.01838-.02339-.04511-.03843-.04344-.04677.00836-.12194-.02839-.21716-.10356a.29071.29071,0,0,0-.25556-.0852.19672.19672,0,0,0-.16037.07851l.00334-.00835Z" fill="#c09309" stroke="#c09309" stroke-width="0.01574"/><circle cx="19.9499" cy="16.19354" r="0.0501" fill="#fff"/></g></svg>