<svg xmlns="http://www.w3.org/2000/svg" viewBox="0 0 40 40"><g id="EA45_flag_englishus"><rect y="9.47368" width="40" height="21.05263" fill="#b22234"/><path d="M0,11.90283H40m0,3.23887H0m0,3.23887H40m0,3.23886H0M0,24.8583H40m0,3.23887H0" stroke="#fff" stroke-miterlimit="10" stroke-width="1.61943"/><rect y="9.47368" width="16" height="11.33603" fill="#3c3b6e"/><polygon points="1.333 9.959 1.188 10.407 0.717 10.407 1.098 10.684 0.953 11.131 1.333 10.855 1.714 11.131 1.569 10.684 1.949 10.407 1.479 10.407 1.333 9.959" fill="#fff"/><polygon points="1.333 12.227 1.188 12.674 0.717 12.674 1.098 12.951 0.953 13.399 1.333 13.122 1.714 13.399 1.569 12.951 1.949 12.674 1.479 12.674 1.333 12.227" fill="#fff"/><polygon points="1.333 14.494 1.188 14.942 0.717 14.942 1.098 15.218 0.953 15.666 1.333 15.389 1.714 15.666 1.569 15.218 1.949 14.942 1.479 14.942 1.333 14.494" fill="#fff"/><polygon points="1.333 16.761 1.188 17.209 0.717 17.209 1.098 17.485 0.953 17.933 1.333 17.656 1.714 17.933 1.569 17.485 1.949 17.209 1.479 17.209 1.333 16.761" fill="#fff"/><polygon points="1.479 19.476 1.333 19.028 1.188 19.476 0.717 19.476 1.098 19.753 0.953 20.2 1.333 19.924 1.714 20.2 1.569 19.753 1.949 19.476 1.479 19.476" fill="#fff"/><polygon points="2.667 11.093 2.521 11.541 2.051 11.541 2.431 11.817 2.286 12.265 2.667 11.988 3.047 12.265 2.902 11.817 3.283 11.541 2.812 11.541 2.667 11.093" fill="#fff"/><polygon points="2.667 13.36 2.521 13.808 2.051 13.808 2.431 14.085 2.286 14.532 2.667 14.255 3.047 14.532 2.902 14.085 3.283 13.808 2.812 13.808 2.667 13.36" fill="#fff"/><polygon points="2.667 15.628 2.521 16.075 2.051 16.075 2.431 16.352 2.286 16.799 2.667 16.523 3.047 16.799 2.902 16.352 3.283 16.075 2.812 16.075 2.667 15.628" fill="#fff"/><polygon points="2.812 18.342 2.667 17.895 2.521 18.342 2.051 18.342 2.431 18.619 2.286 19.067 2.667 18.79 3.047 19.067 2.902 18.619 3.283 18.342 2.812 18.342" fill="#fff"/><polygon points="4 9.959 3.855 10.407 3.384 10.407 3.765 10.684 3.619 11.131 4 10.855 4.381 11.131 4.235 10.684 4.616 10.407 4.145 10.407 4 9.959" fill="#fff"/><polygon points="4 12.227 3.855 12.674 3.384 12.674 3.765 12.951 3.619 13.399 4 13.122 4.381 13.399 4.235 12.951 4.616 12.674 4.145 12.674 4 12.227" fill="#fff"/><polygon points="4 14.494 3.855 14.942 3.384 14.942 3.765 15.218 3.619 15.666 4 15.389 4.381 15.666 4.235 15.218 4.616 14.942 4.145 14.942 4 14.494" fill="#fff"/><polygon points="4 16.761 3.855 17.209 3.384 17.209 3.765 17.485 3.619 17.933 4 17.656 4.381 17.933 4.235 17.485 4.616 17.209 4.145 17.209 4 16.761" fill="#fff"/><polygon points="4.145 19.476 4 19.028 3.855 19.476 3.384 19.476 3.765 19.753 3.619 20.2 4 19.924 4.381 20.2 4.235 19.753 4.616 19.476 4.145 19.476" fill="#fff"/><polygon points="5.333 11.093 5.188 11.541 4.717 11.541 5.098 11.817 4.953 12.265 5.333 11.988 5.714 12.265 5.569 11.817 5.949 11.541 5.479 11.541 5.333 11.093" fill="#fff"/><polygon points="5.333 13.36 5.188 13.808 4.717 13.808 5.098 14.085 4.953 14.532 5.333 14.255 5.714 14.532 5.569 14.085 5.949 13.808 5.479 13.808 5.333 13.36" fill="#fff"/><polygon points="5.333 15.628 5.188 16.075 4.717 16.075 5.098 16.352 4.953 16.799 5.333 16.523 5.714 16.799 5.569 16.352 5.949 16.075 5.479 16.075 5.333 15.628" fill="#fff"/><polygon points="5.479 18.342 5.333 17.895 5.188 18.342 4.717 18.342 5.098 18.619 4.953 19.067 5.333 18.79 5.714 19.067 5.569 18.619 5.949 18.342 5.479 18.342" fill="#fff"/><polygon points="6.667 9.959 6.521 10.407 6.051 10.407 6.431 10.684 6.286 11.131 6.667 10.855 7.047 11.131 6.902 10.684 7.283 10.407 6.812 10.407 6.667 9.959" fill="#fff"/><polygon points="6.667 12.227 6.521 12.674 6.051 12.674 6.431 12.951 6.286 13.399 6.667 13.122 7.047 13.399 6.902 12.951 7.283 12.674 6.812 12.674 6.667 12.227" fill="#fff"/><polygon points="6.667 14.494 6.521 14.942 6.051 14.942 6.431 15.218 6.286 15.666 6.667 15.389 7.047 15.666 6.902 15.218 7.283 14.942 6.812 14.942 6.667 14.494" fill="#fff"/><polygon points="6.667 16.761 6.521 17.209 6.051 17.209 6.431 17.485 6.286 17.933 6.667 17.656 7.047 17.933 6.902 17.485 7.283 17.209 6.812 17.209 6.667 16.761" fill="#fff"/><polygon points="6.812 19.476 6.667 19.028 6.521 19.476 6.051 19.476 6.431 19.753 6.286 20.2 6.667 19.924 7.047 20.2 6.902 19.753 7.283 19.476 6.812 19.476" fill="#fff"/><polygon points="8 11.093 7.855 11.541 7.384 11.541 7.765 11.817 7.619 12.265 8 11.988 8.381 12.265 8.235 11.817 8.616 11.541 8.145 11.541 8 11.093" fill="#fff"/><polygon points="8 13.36 7.855 13.808 7.384 13.808 7.765 14.085 7.619 14.532 8 14.256 8.381 14.532 8.235 14.085 8.616 13.808 8.145 13.808 8 13.36" fill="#fff"/><polygon points="8 15.628 7.855 16.075 7.384 16.075 7.765 16.352 7.619 16.799 8 16.523 8.381 16.799 8.235 16.352 8.616 16.075 8.145 16.075 8 15.628" fill="#fff"/><polygon points="8.145 18.342 8 17.895 7.855 18.342 7.384 18.342 7.765 18.619 7.619 19.067 8 18.79 8.381 19.067 8.235 18.619 8.616 18.342 8.145 18.342" fill="#fff"/><polygon points="9.333 9.959 9.188 10.407 8.717 10.407 9.098 10.684 8.953 11.131 9.333 10.855 9.714 11.131 9.569 10.684 9.949 10.407 9.479 10.407 9.333 9.959" fill="#fff"/><polygon points="9.333 12.227 9.188 12.674 8.717 12.674 9.098 12.951 8.953 13.399 9.333 13.122 9.714 13.399 9.569 12.951 9.949 12.674 9.479 12.674 9.333 12.227" fill="#fff"/><polygon points="9.333 14.494 9.188 14.942 8.717 14.942 9.098 15.218 8.953 15.666 9.333 15.389 9.714 15.666 9.569 15.218 9.949 14.942 9.479 14.942 9.333 14.494" fill="#fff"/><polygon points="9.333 16.761 9.188 17.209 8.717 17.209 9.098 17.485 8.953 17.933 9.333 17.656 9.714 17.933 9.569 17.485 9.949 17.209 9.479 17.209 9.333 16.761" fill="#fff"/><polygon points="9.479 19.476 9.333 19.028 9.188 19.476 8.717 19.476 9.098 19.753 8.953 20.2 9.333 19.924 9.714 20.2 9.569 19.753 9.949 19.476 9.479 19.476" fill="#fff"/><polygon points="10.667 11.093 10.521 11.541 10.051 11.541 10.431 11.817 10.286 12.265 10.667 11.988 11.047 12.265 10.902 11.817 11.283 11.541 10.812 11.541 10.667 11.093" fill="#fff"/><polygon points="10.667 13.36 10.521 13.808 10.051 13.808 10.431 14.085 10.286 14.532 10.667 14.255 11.047 14.532 10.902 14.085 11.283 13.808 10.812 13.808 10.667 13.36" fill="#fff"/><polygon points="10.667 15.628 10.521 16.075 10.051 16.075 10.431 16.352 10.286 16.799 10.667 16.523 11.047 16.799 10.902 16.352 11.283 16.075 10.812 16.075 10.667 15.628" fill="#fff"/><polygon points="10.812 18.342 10.667 17.895 10.521 18.342 10.051 18.342 10.431 18.619 10.286 19.067 10.667 18.79 11.047 19.067 10.902 18.619 11.283 18.342 10.812 18.342" fill="#fff"/><polygon points="12 9.959 11.855 10.407 11.384 10.407 11.765 10.684 11.619 11.131 12 10.855 12.381 11.131 12.235 10.684 12.616 10.407 12.145 10.407 12 9.959" fill="#fff"/><polygon points="12 12.227 11.855 12.674 11.384 12.674 11.765 12.951 11.619 13.399 12 13.122 12.381 13.399 12.235 12.951 12.616 12.674 12.145 12.674 12 12.227" fill="#fff"/><polygon points="12 14.494 11.855 14.942 11.384 14.942 11.765 15.218 11.619 15.666 12 15.389 12.381 15.666 12.235 15.218 12.616 14.942 12.145 14.942 12 14.494" fill="#fff"/><polygon points="12 16.761 11.855 17.209 11.384 17.209 11.765 17.485 11.619 17.933 12 17.656 12.381 17.933 12.235 17.485 12.616 17.209 12.145 17.209 12 16.761" fill="#fff"/><polygon points="12.145 19.476 12 19.028 11.855 19.476 11.384 19.476 11.765 19.753 11.619 20.2 12 19.924 12.381 20.2 12.235 19.753 12.616 19.476 12.145 19.476" fill="#fff"/><polygon points="13.333 11.093 13.188 11.541 12.717 11.541 13.098 11.817 12.953 12.265 13.333 11.988 13.714 12.265 13.569 11.817 13.949 11.541 13.479 11.541 13.333 11.093" fill="#fff"/><polygon points="13.333 13.36 13.188 13.808 12.717 13.808 13.098 14.085 12.953 14.532 13.333 14.255 13.714 14.532 13.569 14.085 13.949 13.808 13.479 13.808 13.333 13.36" fill="#fff"/><polygon points="13.333 15.628 13.188 16.075 12.717 16.075 13.098 16.352 12.953 16.799 13.333 16.523 13.714 16.799 13.569 16.352 13.949 16.075 13.479 16.075 13.333 15.628" fill="#fff"/><polygon points="13.479 18.342 13.333 17.895 13.188 18.342 12.717 18.342 13.098 18.619 12.953 19.067 13.333 18.79 13.714 19.067 13.569 18.619 13.949 18.342 13.479 18.342" fill="#fff"/><polygon points="14.431 10.684 14.286 11.131 14.667 10.855 15.047 11.131 14.902 10.684 15.283 10.407 14.812 10.407 14.667 9.959 14.521 10.407 14.051 10.407 14.431 10.684" fill="#fff"/><polygon points="14.667 12.227 14.521 12.674 14.051 12.674 14.431 12.951 14.286 13.399 14.667 13.122 15.047 13.399 14.902 12.951 15.283 12.674 14.812 12.674 14.667 12.227" fill="#fff"/><polygon points="14.667 14.494 14.521 14.942 14.051 14.942 14.431 15.218 14.286 15.666 14.667 15.389 15.047 15.666 14.902 15.218 15.283 14.942 14.812 14.942 14.667 14.494" fill="#fff"/><polygon points="14.667 16.761 14.521 17.209 14.051 17.209 14.431 17.485 14.286 17.933 14.667 17.656 15.047 17.933 14.902 17.485 15.283 17.209 14.812 17.209 14.667 16.761" fill="#fff"/><polygon points="14.812 19.476 14.667 19.028 14.521 19.476 14.051 19.476 14.431 19.753 14.286 20.2 14.667 19.924 15.047 20.2 14.902 19.753 15.283 19.476 14.812 19.476" fill="#fff"/></g></svg>