<svg xmlns="http://www.w3.org/2000/svg" viewBox="0 0 40 40"><g id="t11_1p398"><rect y="7" width="40" height="26" fill="#00afca"/><path d="M4.00567,15.97688a.69306.69306,0,0,0-.74182-.704.69313.69313,0,0,0,.74182-.70409c0-.51882-1.38352-3.00762-1.38352-3.36849a.43206.43206,0,0,1,.86284.00735c0,.27005-.14013.39042-.284.39042-.177,0-.44408-.52019-.44408-.24082,0,.27733.70066,1.505,1.12139,1.59119-.08789-1.66558-.07356-3.37194-.00572-4.83473-.39238,0-1.118,1.29557-1.118,1.55231,0,.19395.279-.21142.44637-.20415s.30329.11547.30329.38283c0,.24662-.19893.36928-.46106.3772a.35956.35956,0,0,1-.41485-.36454c0-.32461.46858-1.06431.46858-1.35355a.358.358,0,0,0-.3861-.33809H2.08922a.35786.35786,0,0,0-.3861.33809c0,.28924.46841,1.02894.46841,1.35355a.35943.35943,0,0,1-.41468.36454c-.26213-.00792-.46106-.13058-.46106-.3772,0-.26736.13572-.37548.30313-.38283.16757-.00727.44653.3981.44653.20415,0-.25674-.73232-1.4714-1.11812-1.55231a23.09062,23.09062,0,0,1-.00556,4.83473c.42073-.08615,1.12139-1.31386,1.12139-1.59119,0-.27937-.2672.24082-.44424.24082-.14373,0-.28386-.12037-.28386-.39042a.43206.43206,0,0,1,.86284-.00735c0,.42652-1.38352,2.82186-1.38352,3.36849a.69313.69313,0,0,0,.74182.70409.693.693,0,0,0-.74182.704A35.99573,35.99573,0,0,0,2.1779,19.34537a.43206.43206,0,0,1-.86284-.00727c0-.27006.14013-.39051.28386-.39051.177,0,.44424.52027.44424.24091,0-.27741-.70066-1.505-1.12139-1.59128a12.3091,12.3091,0,0,1,0,4.84854c.42073-.08615,1.12139-1.31386,1.12139-1.59119,0-.27937-.2672.2409-.44424.2409-.14373,0-.28386-.12045-.28386-.3905a.43206.43206,0,0,1,.86284-.00735A29.59331,29.59331,0,0,0,.79438,24.06619a.69292.69292,0,0,0,.74182.70393.693.693,0,0,0-.74182.70409c0,.44969,1.38352,3.22615,1.38352,3.36849a.43206.43206,0,0,1-.86284-.00727c0-.27006.14013-.39051.28386-.39051.177,0,.44424.52027.44424.24091,0-.27741-.70066-1.505-1.12139-1.5912a13.95554,13.95554,0,0,1,.00556,4.83474A3.49261,3.49261,0,0,0,2.04545,30.377c0-.194-.279.21142-.44653.20416-.16741-.00727-.30313-.11547-.30313-.38284,0-.24662.19893-.36927.46106-.3772a.35949.35949,0,0,1,.41468.36463c0,.32452-.46841,1.0643-.46841,1.35347a.35791.35791,0,0,0,.3861.33816h.62161a.358.358,0,0,0,.3861-.33816c0-.28917-.46858-1.029-.46858-1.35347a.35963.35963,0,0,1,.41485-.36463c.26213.00793.46106.13058.46106.3772,0,.26737-.13588.37557-.30329.38284S2.7546,30.183,2.7546,30.377a4.44094,4.44094,0,0,0,1.118,1.5524,17.22666,17.22666,0,0,1,.00572-4.83474c-.42073.08616-1.12139,1.31379-1.12139,1.5912,0,.27936.267-.24091.44408-.24091.14389,0,.284.12045.284.39051a.43206.43206,0,0,1-.86284.00727,36.104,36.104,0,0,0,1.38352-3.36849.69312.69312,0,0,0-.74182-.70409.693.693,0,0,0,.74182-.70393,25.875,25.875,0,0,0-1.38352-3.36857A.43206.43206,0,0,1,3.485,20.705c0,.27005-.14013.3905-.284.3905-.177,0-.44408-.52027-.44408-.2409,0,.27733.70066,1.505,1.12139,1.59119a15.90508,15.90508,0,0,1,0-4.84854c-.42073.08624-1.12139,1.31387-1.12139,1.59128,0,.27936.267-.24091.44408-.24091.14389,0,.284.12045.284.39051a.43206.43206,0,0,1-.86284.00727A25.85178,25.85178,0,0,0,4.00567,15.97688ZM2.05557,8.48559a.77156.77156,0,0,1,.68891,0c.10534.13074-.18995.6515-.34446,1.03286C2.24552,9.13709,1.95006,8.61633,2.05557,8.48559Zm-.94075,6.04668c0-.128,1.1178-2.5548,1.285-2.90505L2.4,11.62681l.00017.00041c.16708.35025,1.285,2.77709,1.285,2.90505a.44586.44586,0,0,1-.46238.43428c-.20023,0-.33857-.53644-.24384-.53644H1.821c.09473,0-.04377.53644-.244.53644A.44573.44573,0,0,1,1.11482,14.53227ZM2.74448,31.55748a.77213.77213,0,0,1-.68891,0c-.10551-.13074.19-.6515.34445-1.03286C2.55453,30.906,2.84982,31.42674,2.74448,31.55748Zm.94075-6.04677c0,.12805-1.118,2.55489-1.285,2.90514L2.4,28.41626l-.00016-.00041c-.16724-.35025-1.285-2.77709-1.285-2.90514a.44573.44573,0,0,1,.46221-.43428c.20024,0,.33874.53652.244.53652H2.979c-.09473,0,.04361-.53652.24384-.53652A.44587.44587,0,0,1,3.68523,25.51071Zm0-1.48111a.44594.44594,0,0,1-.46238.43436c-.20023,0-.33857-.53652-.24384-.53652H1.821c.09473,0-.04377.53652-.244.53652a.4458.4458,0,0,1-.46221-.43436c0-.128,1.1178-2.5548,1.285-2.905L2.4,21.12414l.00017.00041C2.56727,21.4748,3.68523,23.90164,3.68523,24.0296Zm-1.285-5.11116L2.4,18.91885l-.00016-.00041c-.16724-.35017-1.285-2.777-1.285-2.90506A.44573.44573,0,0,1,1.577,15.5791c.20024,0,.33874.53644.244.53644H2.979c-.09473,0,.04361-.53644.24384-.53644a.44587.44587,0,0,1,.46238.43428C3.68523,16.14143,2.56727,18.56827,2.40019,18.91844Z" fill="#fcc30e"/><circle cx="20.89532" cy="19.03147" r="3.43901" fill="#fec50c"/><path id="r" d="M17.06238,18.26905c.11458-.64242-1.4339-.28522-1.4339-.28522S16.93947,18.89656,17.06238,18.26905Z" fill="#fcc30e"/><path id="r-2" data-name="r" d="M16.98729,19.03147c-.013-.65243-1.462,0-1.462,0S16.98916,19.6709,16.98729,19.03147Z" fill="#fcc30e"/><path id="r-3" data-name="r" d="M17.06238,19.79389c-.14-.63737-1.4339.28522-1.4339.28522S17.189,20.42067,17.06238,19.79389Z" fill="#fcc30e"/><path id="r-4" data-name="r" d="M17.28477,20.527c-.26164-.59781-1.35071.55948-1.35071.55948S17.5312,21.11705,17.28477,20.527Z" fill="#fcc30e"/><path id="r-5" data-name="r" d="M17.64591,21.20266c-.37324-.53528-1.2156.81224-1.2156.81224S18.00272,21.73329,17.64591,21.20266Z" fill="#fcc30e"/><path id="r-6" data-name="r" d="M18.13193,21.79487c-.4705-.45218-1.03379,1.03379-1.03379,1.03379S18.5854,22.24569,18.13193,21.79487Z" fill="#fcc30e"/><path id="r-7" data-name="r" d="M18.72414,22.28088c-.54968-.35169-.81224,1.21561-.81224,1.21561S19.25685,22.63458,18.72414,22.28088Z" fill="#fcc30e"/><path id="r-8" data-name="r" d="M19.39979,22.642c-.60773-.2377-.55949,1.35071-.55949,1.35071S19.99126,22.885,19.39979,22.642Z" fill="#fcc30e"/><path id="r-9" data-name="r" d="M20.13291,22.86441c-.64243-.11457-.28523,1.43391-.28523,1.43391S20.76042,22.98733,20.13291,22.86441Z" fill="#fcc30e"/><path id="r-10" data-name="r" d="M20.89532,22.93951c-.65243.013,0,1.462,0,1.462S21.53476,22.93764,20.89532,22.93951Z" fill="#fcc30e"/><path id="r-11" data-name="r" d="M21.65774,22.86441c-.63736.14.28523,1.43391.28523,1.43391S22.28452,22.73783,21.65774,22.86441Z" fill="#fcc30e"/><path id="r-12" data-name="r" d="M22.39086,22.642c-.59781.26165.55949,1.35071.55949,1.35071S22.98091,22.3956,22.39086,22.642Z" fill="#fcc30e"/><path id="r-13" data-name="r" d="M23.06651,22.28088c-.53528.37325.81224,1.21561.81224,1.21561S23.59714,21.92408,23.06651,22.28088Z" fill="#fcc30e"/><path id="r-14" data-name="r" d="M23.65872,21.79487c-.45218.4705,1.03379,1.03379,1.03379,1.03379S24.10955,21.3414,23.65872,21.79487Z" fill="#fcc30e"/><path id="r-15" data-name="r" d="M24.14474,21.20266c-.3517.54967,1.2156.81224,1.2156.81224S24.49843,20.67,24.14474,21.20266Z" fill="#fcc30e"/><path id="r-16" data-name="r" d="M24.50588,20.527c-.23771.60773,1.35071.55948,1.35071.55948S24.74885,19.93554,24.50588,20.527Z" fill="#fcc30e"/><path id="r-17" data-name="r" d="M24.72827,19.79389c-.11458.64242,1.4339.28522,1.4339.28522S24.85118,19.16638,24.72827,19.79389Z" fill="#fcc30e"/><path id="r-18" data-name="r" d="M24.80336,19.03147c.013.65243,1.462,0,1.462,0S24.80149,18.392,24.80336,19.03147Z" fill="#fcc30e"/><path id="r-19" data-name="r" d="M24.72827,18.26905c.14.63737,1.4339-.28522,1.4339-.28522S24.60168,17.64227,24.72827,18.26905Z" fill="#fcc30e"/><path id="r-20" data-name="r" d="M24.50588,17.53593c.26164.59781,1.35071-.55948,1.35071-.55948S24.25945,16.94589,24.50588,17.53593Z" fill="#fcc30e"/><path id="r-21" data-name="r" d="M24.14474,16.86029c.37324.53527,1.2156-.81225,1.2156-.81225S23.78793,16.32966,24.14474,16.86029Z" fill="#fcc30e"/><path id="r-22" data-name="r" d="M23.65872,16.26808c.4705.45217,1.03379-1.03379,1.03379-1.03379S23.20525,15.81725,23.65872,16.26808Z" fill="#fcc30e"/><path id="r-23" data-name="r" d="M23.06651,15.78206c.54968.3517.81224-1.21561.81224-1.21561S22.5338,15.42837,23.06651,15.78206Z" fill="#fcc30e"/><path id="r-24" data-name="r" d="M22.39086,15.42092c.60773.2377.55949-1.35071.55949-1.35071S21.79939,15.178,22.39086,15.42092Z" fill="#fcc30e"/><path id="r-25" data-name="r" d="M21.65774,15.19853c.64243.11458.28523-1.43391.28523-1.43391S21.03023,15.07562,21.65774,15.19853Z" fill="#fcc30e"/><path id="r-26" data-name="r" d="M20.89532,15.12344c.65244-.013,0-1.462,0-1.462S20.25589,15.12531,20.89532,15.12344Z" fill="#fcc30e"/><path id="r-27" data-name="r" d="M20.13291,15.19853c.63736-.14-.28523-1.43391-.28523-1.43391S19.50613,15.32511,20.13291,15.19853Z" fill="#fcc30e"/><path id="r-28" data-name="r" d="M19.39979,15.42092c.59781-.26164-.55949-1.35071-.55949-1.35071S18.80974,15.66735,19.39979,15.42092Z" fill="#fcc30e"/><path id="r-29" data-name="r" d="M18.72414,15.78206c.53528-.37324-.81224-1.21561-.81224-1.21561S18.19351,16.13887,18.72414,15.78206Z" fill="#fcc30e"/><path id="r-30" data-name="r" d="M18.13193,16.26808c.45217-.4705-1.03379-1.03379-1.03379-1.03379S17.6811,16.72154,18.13193,16.26808Z" fill="#fcc30e"/><path id="r-31" data-name="r" d="M17.64591,16.86029c.3517-.54968-1.2156-.81225-1.2156-.81225S17.29222,17.393,17.64591,16.86029Z" fill="#fcc30e"/><path id="r-32" data-name="r" d="M17.28477,17.53593c.23771-.60772-1.35071-.55948-1.35071-.55948S17.0418,18.12741,17.28477,17.53593Z" fill="#fcc30e"/><path d="M20.28177,26.48119c-.092.00511-.75144.138-.75144.138a.70421.70421,0,0,1-.09031.22918,3.32044,3.32044,0,0,1-.47626-.07753c-.0869.05112-.36938.25277-.24282.50352a12.62055,12.62055,0,0,1,2.83369-.19425c-.05453-.03152-1.49948-.09713-1.58213-.13035a3.13482,3.13482,0,0,1,.30927-.46859Z" fill="#fcc30e"/><path d="M19.76563,27.90477c.10607-.40571.54928-.548.922-.57969,2.309-.04842,2.53859-.79188,2.67756-.80627.623-.02687,1.23848.10433,1.85966.12664A7.567,7.567,0,0,1,19.76563,27.90477Zm-.80442-1.1604c.289.11427,2.05587-1.229,2.37237-1.29227a6.627,6.627,0,0,0,5.114-2.90033.95193.95193,0,0,1,.64967-.11941c-.01585.26344-.01743,2.23284-3.20435,3.63947,4.57343.36684,4.102-6.55379,3.90981-6.52733-.15239.0273-.89438.49722-.85855.66771a6.3579,6.3579,0,0,1-5.76768,4.83769c-.47888.36721-2.00125,1.33652-2.19555,1.589a.219.219,0,0,0-.01979.10549" fill="#fcc30e"/><path d="M20.77592,25.03666a3.39735,3.39735,0,0,1-.25713.49449c-4.58473-.827-5.56233-3.42721-5.67019-3.50761-.10249.025-1.61.916,3.23726,4.02192-7.64313-1.644-4.32056-6.49983-4.14-6.49436.15164-.023.7484.45692.84025.53248,1.00088,4.56518,5.88822,4.9467,5.98986,4.95294" fill="#fcc30e"/></g></svg>