<svg xmlns="http://www.w3.org/2000/svg" viewBox="0 0 40 40"><g id="Ebene_167" data-name="Ebene 167"><path d="M35.543,16.7554c-1.19338,1.24259-3.07126,0-3.07126,0H29.39935l-2.56012-1.76827,9.216-.88469A2.41768,2.41768,0,0,1,35.543,16.7554Zm-28.01484,0s-1.87787,1.24259-3.07126,0a2.41766,2.41766,0,0,1-.51224-2.653l9.216.88469L10.60051,16.7554Z" fill="#fff"/><path d="M37.34772,18.97785c-.00418-3.33275-.01709-5.619-.01868-6.19387a.08884.08884,0,0,0-.05128-.08525,36.92528,36.92528,0,0,0-3.689-1.73966c-1.46852-.55139-26.39533-.39481-27.1514-.11073a29.37241,29.37241,0,0,0-3.69191,1.84951.08938.08938,0,0,0-.04833.08376c-.00187.67162-.02,7.27841-.02,10.40491,0,1.6251-.29191,3.35534,1.11845,3.35534H7.151c.86008,0,1.11844-.29192,1.11844-1.11845V24.305h15.7127" fill="none" stroke="#fff" stroke-width="1.2"/><path d="M35.48918,11.79069S31.1061,3.52726,29.30093,3.13693c-3.60028-.78068-15.59449-.92048-18.602,0-1.83313.56034-6.53284,8.77215-6.53284,8.77215" fill="none" stroke="#fff" stroke-width="1.2"/><path d="M23.98211,21.48472h-7.786c-2.69434-.1331-3.62712-3.57227-3.62712-3.57227l2.07248-2.304H25.35841l2.07248,2.304a8.62621,8.62621,0,0,1-.25724.87875" fill="none" stroke="#fff" stroke-width="1.2"/><path d="M37.68924,24.26026c-.93606-.89555-2.30912-1.26049-4.23594-1.26049H27.98918V38.99952h2.00976V32.99715h3.33819c3.62744-.081,5.66051-1.83431,5.66051-4.937,0-.03817-.00026-.34247-.00079-.38021A4.64331,4.64331,0,0,0,37.68924,24.26026Zm-.87528,3.879a2.535,2.535,0,0,1-2.59411,2.8109l-4.22091.04053v-5.985H34.467a2.60379,2.60379,0,0,1,2.34682,2.63759C36.81392,27.6565,36.814,28.12605,36.814,28.13931Z" fill="#fff"/></g></svg>