<svg xmlns="http://www.w3.org/2000/svg" viewBox="0 0 40 40"><defs><style>.cls-1{fill:none;stroke:#fff;stroke-width:1.2px;}.cls-2{fill:#fff;}</style></defs><g id="Icon"><path class="cls-1" d="M5.5,17.5a4,4,0,1,1-4,4A4.00032,4.00032,0,0,1,5.5,17.5Z"/><path class="cls-1" d="M10.83333,17.5a4,4,0,1,1-4,4A4.00032,4.00032,0,0,1,10.83333,17.5Z"/><path class="cls-1" d="M16.16667,17.5a4,4,0,1,1-4,4A4.00032,4.00032,0,0,1,16.16667,17.5Z"/><path class="cls-1" d="M21.5,17.5a4,4,0,1,1-4,4A4.00032,4.00032,0,0,1,21.5,17.5Z"/><path class="cls-2" d="M19,1.8999A18.10224,18.10224,0,0,0,2.389,12.875H3.69556a16.88287,16.88287,0,0,1,31.40527,2h1.24854A18.12328,18.12328,0,0,0,19,1.8999Z"/><path class="cls-1" d="M35.55822,27.75955c-1.29166,4.65849-4.9196,7.7634-14.61958,7.7634"/><path class="cls-1" d="M37.18988,27.40436H33.81012a1.46334,1.46334,0,0,1-1.44848-1.47793V16.07357a1.46334,1.46334,0,0,1,1.44848-1.47793h3.37976a1.46334,1.46334,0,0,1,1.44848,1.47793v9.85286A1.46334,1.46334,0,0,1,37.18988,27.40436Z"/><path class="cls-2" d="M22.49967,33.10573c2.172,0,3.93243.48765,3.93243,1.81061s-1.76047,1.97793-3.93243,1.97793c-2.1713,0-3.93177-.655-3.93177-1.97793S20.32837,33.10573,22.49967,33.10573Z"/></g></svg>