<svg xmlns="http://www.w3.org/2000/svg" viewBox="0 0 40 40"><defs><style>.cls-1,.cls-2{fill:#fff;}.cls-2{fill-rule:evenodd;}</style></defs><g id="Icon"><path class="cls-1" d="M19.99988,4.2c5.32953,0,9.34868,4.4516,9.3495,10.39329l.1732,5.37836c0,2.42173.49942,6.92059,1.83952,8.68356A10.32092,10.32092,0,0,0,33.577,30.79947l-27.15388.00047a10.32243,10.32243,0,0,0,2.215-2.14469c1.33978-1.76265,1.839-6.26154,1.83834-8.6448l.17425-5.45528C10.65067,8.65176,14.67,4.2,19.99988,4.2m0-1.2h-.00037C14.024,3,9.45067,7.90269,9.45067,14.55517L9.277,19.972c0,2.81021-.61581,6.66973-1.59431,7.95709A9.23923,9.23923,0,0,1,3.5,30.99644L3.50263,32l32.99478-.00056L36.5,30.99586a9.23923,9.23923,0,0,1-4.18284-3.06719c-.97854-1.28731-1.59453-5.14682-1.59458-7.957l-.17382-5.41684C30.54853,7.90272,25.97481,3,19.99988,3Z"/><path class="cls-2" d="M16,35.00012A4.16669,4.16669,0,0,0,24,35Z"/></g></svg>