<svg xmlns="http://www.w3.org/2000/svg" viewBox="0 0 40 40"><defs><style>.cls-1{fill:none;stroke:#fff;stroke-width:1.2px;}.cls-2{fill:#fff;}</style></defs><g id="EA7C_navigation_weather"><g id="V1-2" data-name="V1"><path class="cls-1" d="M33.44294,38.50364H7.04619a6.37637,6.37637,0,0,1,0-12.75c.18813,0,.37243.01225.55577.02922a6.52839,6.52839,0,0,1,6.39761-5.54173,6.37141,6.37141,0,0,1,2.10214.362,10.89513,10.89513,0,0,1,8.22715-3.77995,11.126,11.126,0,0,1,10.982,10.23981,5.89824,5.89824,0,0,1-1.86793,11.44071Z"/><g id="Sonne_Kopie" data-name="Sonne Kopie"><path class="cls-2" d="M8.31384,18.552a7.39219,7.39219,0,0,1,6.09-11.45434h.09912a7.39366,7.39366,0,0,1,7.33374,6.44824q.58923-.1051,1.18829-.1615a8.53576,8.53576,0,0,0-2.52154-5.04553,8.3771,8.3771,0,0,0-6.11524-2.44043,8.59395,8.59395,0,0,0-7.0216,13.39935A9.92944,9.92944,0,0,1,8.31384,18.552Z"/><line class="cls-1" x1="0.945" y1="20.11466" x2="4.81787" y2="18.51047"/><line class="cls-1" x1="28.055" y1="8.88534" x2="24.18213" y2="10.48953"/><line class="cls-1" x1="8.88534" y1="0.945" x2="10.48953" y2="4.81787"/><line class="cls-1" x1="20.11467" y1="0.945" x2="18.51047" y2="4.81787"/><line class="cls-1" x1="0.945" y1="8.88533" x2="4.81787" y2="10.48953"/></g></g></g></svg>