<svg id="Icon" xmlns="http://www.w3.org/2000/svg" viewBox="0 0 40 40"><defs><style>.cls-1{fill:#fff;}.cls-1,.cls-2{stroke:#fff;stroke-miterlimit:10;stroke-width:1.2px;}.cls-2{fill:none;}</style></defs><path class="cls-1" d="M22.38977,3.5A4.59891,4.59891,0,0,0,19.197,4.64722L4.62134,19.16284a1.92139,1.92139,0,0,0,0,2.71729L18.338,34.99677a1.92148,1.92148,0,0,0,2.71735,0L35.51093,20.59113A4.569,4.569,0,0,0,36.5,17.5V3.5ZM32.95483,14.961a5.598,5.598,0,1,1-.00256-7.922l.01843.01843A5.58787,5.58787,0,0,1,32.95483,14.961Z"/><path class="cls-2" d="M32.95484,14.961a5.598,5.598,0,1,1-.00257-7.922l.01844.01843A5.58787,5.58787,0,0,1,32.95484,14.961Z"/></svg>