<svg xmlns="http://www.w3.org/2000/svg" viewBox="0 0 40 40"><g id="EA9F_navigation_learned_navigation"><path d="M27.962,18.27787c-3.42877,0-5.98325,2.14477-5.98325,5.4025,0,5.0278,3.43275,3.77722,3.43275,6.47887v1.4256h4.9562v-1.4256c0-2.67619,3.44866-1.45107,3.44866-6.47887,0-3.25773-2.42559-5.4025-5.85436-5.4025" fill="none" stroke="#fff" stroke-width="1.2"/><path d="M29.998,33.49941H25.99759" fill="none" stroke="#fff" stroke-width="1.2"/><path d="M29.998,35.49726H25.99759" fill="none" stroke="#fff" stroke-width="1.2"/><path d="M29.00948,36.4988H26.98609" fill="none" stroke="#fff" stroke-width="1.2"/><path d="M9.38579,9.77171s1.64134-.40171,3.15863-.878a5.895,5.895,0,0,1,3.07847-.10321v5.49081A17.51878,17.51878,0,0,0,13.494,14.2194a13.44232,13.44232,0,0,0-3.90137,1.03211Z" fill="#fff"/><path d="M21.31734,5.46712c-1.48623-.68119-3.32339-1.672-3.96329-1.87844-.70423-.22716-1.73416-.4977-1.73416-.4977l.003,5.69953a13.01628,13.01628,0,0,1,2.62677.67755,30.33445,30.33445,0,0,1,3.04,1.55744C21.31028,11.00486,21.31734,5.46712,21.31734,5.46712Z" fill="#fff"/><rect x="5.99293" y="3.9745" width="1.2" height="34.051" fill="#fff"/><path d="M27.01989,7.38684v5.57135a21.91243,21.91243,0,0,0,3.02285.33428c.97244.00939,3.17889-.08914,3.17889-.08914l-.04128-5.7942-5.90366-.02229" fill="#fff"/><path d="M21.31738,17.16138v-.89844c-.43359-.22705-2.4851-1.09424-3.24072-1.40356a10.87538,10.87538,0,0,0-2.45679-.57813v6.21338l3.16162.84766A8.38359,8.38359,0,0,1,21.31738,17.16138Z" fill="#fff" fill-rule="evenodd"/><path d="M27.01343,14.81885l-.00025-1.85474-1.04052-.17334a23.9563,23.9563,0,0,1-3.45459-1.17749l-1.198-.52807-.01465,5.18017v.03076c.19312.09912.43286.20752.689.31885A9.81444,9.81444,0,0,1,27.01343,14.81885Z" fill="#fff"/><path d="M19.00342,20.615a11.37878,11.37878,0,0,0-4.20752-.86206,13.42326,13.42326,0,0,0-4.60352.90234V4.13672c4.74707-1.83106,7.21582-.5625,10.32324,1.03516a20.85326,20.85326,0,0,0,12.47754,2.833V16.0614a8.71878,8.71878,0,0,1,1.19922.822V6.69238l-.65625.0625A19.91326,19.91326,0,0,1,21.06348,4.10449c-3.3252-1.709-6.19825-3.18066-11.69825-.93066l-.37207.15332V22.4248l.82715-.33886c3.99658-1.63806,6.42115-1.26,8.85108-.31153A8.72331,8.72331,0,0,1,19.00342,20.615Z" fill="#fff"/></g></svg>