<svg xmlns="http://www.w3.org/2000/svg" viewBox="0 0 40 40"><title>EAAA_connect_app_media_spotify</title><g id="EAAA_connect_app_media_spotify"><path d="M20,2.90267A17.09733,17.09733,0,1,0,37.09811,20,17.098,17.098,0,0,0,20,2.90267Zm7.841,24.66048a1.06463,1.06463,0,0,1-1.46535.3546c-4.01485-2.454-9.06843-3.0082-15.01985-1.64852a1.06547,1.06547,0,0,1-.47436-2.07748C17.39415,22.70292,22.9808,23.344,27.488,26.0978A1.06557,1.06557,0,0,1,27.841,27.56315Zm2.09235-4.65593a1.33324,1.33324,0,0,1-1.83325.43914A22.444,22.444,0,0,0,11.0623,21.3542a1.333,1.333,0,1,1-.77417-2.55106A24.94486,24.94486,0,0,1,29.495,21.07475,1.33346,1.33346,0,0,1,29.93339,22.90722Zm.18082-4.84771c-5.5115-3.27278-14.60263-3.57336-19.86365-1.97651a1.59917,1.59917,0,0,1-.92837-3.06064c6.0391-1.83325,16.07894-1.47944,22.4241,2.28726a1.59887,1.59887,0,0,1-1.63208,2.74989Z" fill="#fff" fill-rule="evenodd"/></g></svg>