<?xml version="1.0" encoding="UTF-8"?>
<svg id="Ebene_1" data-name="Ebene 1" xmlns="http://www.w3.org/2000/svg" viewBox="0 0 40 40">
  <defs>
    <style>
      .cls-1 {
        fill: #fff;
      }

      .cls-2 {
        stroke-miterlimit: 10;
        stroke-width: 1.2px;
      }

      .cls-2, .cls-3 {
        fill: none;
        stroke: #fff;
      }

      .cls-3 {
        stroke-linejoin: round;
        stroke-width: 1.2px;
      }
    </style>
  </defs>
  <polyline class="cls-3" points="35 6.49347 37.51117 6.49347 37.51117 34.53613 3.48877 34.53613 3.48877 6.49347 6 6.49347"/>
  <line class="cls-3" x1="11" y1="6.49347" x2="30" y2="6.49347"/>
  <rect class="cls-1" x="25" y="18" width="3" height="2"/>
  <rect class="cls-1" x="19" y="18" width="3" height="2"/>
  <rect class="cls-1" x="13" y="18" width="3" height="2"/>
  <rect class="cls-1" x="19" y="13" width="3" height="2"/>
  <rect class="cls-1" x="13" y="13" width="3" height="2"/>
  <rect class="cls-1" x="7" y="18" width="3" height="2"/>
  <rect class="cls-1" x="31" y="18" width="3" height="2"/>
  <rect class="cls-1" x="25" y="23" width="3" height="2"/>
  <rect class="cls-1" x="19" y="23" width="3" height="2"/>
  <rect class="cls-1" x="13" y="23" width="3" height="2"/>
  <rect class="cls-1" x="7" y="23" width="3" height="2"/>
  <rect class="cls-1" x="31" y="23" width="3" height="2"/>
  <rect class="cls-1" x="19" y="28" width="3" height="2"/>
  <rect class="cls-1" x="13" y="28" width="3" height="2"/>
  <rect class="cls-1" x="7" y="28" width="3" height="2"/>
  <rect class="cls-1" x="25" y="13" width="3" height="2"/>
  <rect class="cls-1" x="31" y="13" width="3" height="2"/>
  <rect class="cls-1" x="25" y="28" width="3" height="2"/>
  <line class="cls-2" x1="8.5" y1="3" x2="8.5" y2="9.94872"/>
  <line class="cls-2" x1="32.5" y1="3.01404" x2="32.5" y2="9.94872"/>
</svg>