<svg xmlns="http://www.w3.org/2000/svg" viewBox="0 0 40 40"><g id="EABD_accomodation_asia"><line x1="2" y1="29.47666" x2="38" y2="29.47666" fill="none" stroke="#fff" stroke-miterlimit="10" stroke-width="1.2"/><line x1="7.49556" y1="26.07076" x2="7.49556" y2="29.40289" fill="none" stroke="#fff" stroke-miterlimit="10" stroke-width="1.2"/><line x1="32.49344" y1="26.07076" x2="32.49344" y2="29.40289" fill="none" stroke="#fff" stroke-miterlimit="10" stroke-width="1.2"/><path d="M34.26514,18.041a.71732.71732,0,0,1,.71631.71679v6.23181H5.04834V18.75781a.71742.71742,0,0,1,.7168-.71679h28.5m0-1.2h-28.5a1.917,1.917,0,0,0-1.917,1.91675v7.43177h32.3335V18.75781a1.91654,1.91654,0,0,0-1.9165-1.91675Z" fill="#fff"/><polyline points="7.514 17.747 7.514 10.499 32.493 10.499 32.493 17.747" fill="none" stroke="#fff" stroke-miterlimit="10" stroke-width="1.2"/><path d="M21.48316,17.62338v-.91475a2.21311,2.21311,0,0,1,2.21312-2.21311h4.26318a2.21311,2.21311,0,0,1,2.21312,2.21311v.91475" fill="none" stroke="#fff" stroke-miterlimit="10" stroke-width="1.2"/><path d="M9.82742,17.62338v-.91475a2.21311,2.21311,0,0,1,2.21312-2.21311h4.26318a2.21311,2.21311,0,0,1,2.21312,2.21311v.91475" fill="none" stroke="#fff" stroke-miterlimit="10" stroke-width="1.2"/></g></svg>