<svg xmlns="http://www.w3.org/2000/svg" viewBox="0 0 40 40"><defs><style>.cls-1,.cls-2{fill:none;stroke:#fff;}.cls-1{stroke-width:1.2px;}.cls-2{stroke-width:1.2px;}.cls-3,.cls-4{fill:#fff;}.cls-4{fill-rule:evenodd;}</style></defs><g id="EAC0_delete_stopover_asia"><g id="V2"><path class="cls-1" d="M27,31.5h9"/><path class="cls-2" d="M26.55014,26.55026a7,7,0,1,1,0,9.89949l0,0A7.00024,7.00024,0,0,1,26.55014,26.55026Z"/><path class="cls-3" d="M5.2838,9.7433s.41033-.10042,1.01033-.26039,1.38966-.37946,2.14831-.6176a6.441,6.441,0,0,1,1.93416-.256,3.2354,3.2354,0,0,1,1.14431.15279v5.49081s-.21569-.02359-.58964-.04313-.90619-.035-1.5393-.01879a9.75551,9.75551,0,0,0-2.55446.53153c-.77408.25287-1.3469.50058-1.3469.50058L5.3872,12.4832Z"/><path class="cls-3" d="M17.21535,5.43871c-.74311-.34059-1.574-.7586-2.299-1.11726a16.85045,16.85045,0,0,0-1.66427-.76118c-.35211-.11358-.78565-.238-1.13116-.334s-.603-.16367-.603-.16367l.0015,2.84977.0015,2.84976s.39066.05684.91434.17a10.14516,10.14516,0,0,1,1.71242.5076c.40957.17328.827.37019,1.31334.62s1.04154.55254,1.72665.93744c.01032-.01032.01724-1.39992.02159-2.78693S17.21535,5.43871,17.21535,5.43871Z"/><path class="cls-3" d="M17.21809,11.05685l.59895.264.599.264c.34922.13173.83707.33939,1.42551.55748a16.57945,16.57945,0,0,0,2.029.62l.52032.08672.52033.08672.00041,2.66887.00041,2.66886-.41658-.108-.41657-.108c-.49542-.11872-1.41343-.41187-2.358-.75248a24.28812,24.28812,0,0,1-2.51749-1.03726v-.03086l.00738-2.59Z"/><polygon class="cls-4" points="1.891 3.946 2.491 3.946 3.091 3.946 3.091 20.972 3.091 37.997 2.491 37.997 1.891 37.997 1.891 20.972 1.891 3.946"/><path class="cls-4" d="M11.51791,14.25291s.35619.03888.84137.13057a8.76538,8.76538,0,0,1,1.61525.44741c.37786.15471,1.0797.44886,1.74125.73272s1.28283.55742,1.49957.67095v5.75916L14.36663,21.23l-2.84872-.76376V14.25291Z"/><path class="cls-3" d="M22.91791,7.35843v5.57135s.4386.08051,1.03576.16255a16.83407,16.83407,0,0,0,1.98709.17173c.48621.0047,1.28094-.01759,1.95411-.04105s1.22478-.04809,1.22478-.04809l-.02064-2.8971-.02065-2.8971-2.95183-.01114-2.95182-.01115"/><path class="cls-3" d="M24.78223,24.78223h.00048a9.47809,9.47809,0,0,1,1.08436-.918,21.78537,21.78537,0,0,1-8.84144-2.367l-.44287-.19922a13.957,13.957,0,0,0-5.91406-1.57519,13.31547,13.31547,0,0,0-4.57764.90332V4.10754C10.8269,2.28528,13.3728,3.588,16.06323,4.964l.34864.17871a20.83506,20.83506,0,0,0,12.479,2.833V22.37177a9.51263,9.51263,0,0,1,1.20019-.252V6.66321l-.65673.0625A19.90332,19.90332,0,0,1,16.96021,4.07532l-.3501-.17969c-3.42969-1.75488-6.251-2.835-11.34668-.751L4.89087,3.298V22.39661l.82764-.33887c4.68457-1.92188,7.14892-1.11426,10.37255.334l.43995.19922a23.60915,23.60915,0,0,0,8.0769,2.38422C24.66779,24.91193,24.72028,24.84424,24.78223,24.78223Z"/><path class="cls-3" d="M22.9129,24.47076l.65729.09424.65729.09418c.23688.00452.46136.00836.67908.01117a9.43009,9.43009,0,0,1,4.1444-2.33759c-.00445-.45709-.009-.93939-.01348-1.40307-.01239-1.28784-.0243-2.42584-.03144-2.44019a21.10991,21.10991,0,0,1-4.128.02838c-1.16736-.09546-1.97607-.2348-1.97607-.2348l.00549,3.09387Z"/></g></g></svg>