<svg xmlns="http://www.w3.org/2000/svg" viewBox="0 0 40 40"><g id="EAC1_replace_destination_asia"><path d="M7.5,34.5l-5-.7L5.3,38Z" fill="#fff"/><path d="M18.8,35.9,20.1,31l-4.5,2.2Z" fill="#fff"/><path d="M17.2,34.5A10.70111,10.70111,0,0,1,12,36.8a10.48864,10.48864,0,0,1-5.6-.6" fill="none" stroke="#fff" stroke-linecap="square" stroke-miterlimit="10" stroke-width="1.2"/><path d="M22.5,21.5c-9.3.9-9.8-4.9-17-2V6.9c7.2-2.9,7.6,3.5,17,2.6Z" fill="none" stroke="#fff" stroke-width="1.2"/><path d="M28.8,5.1c-1.1-.5-2.4-1.2-2.8-1.3-.5-.2-1.2-.4-1.2-.4v4a13.32161,13.32161,0,0,1,1.9.5A22.5596,22.5596,0,0,1,28.9,9C28.8,9,28.8,5.1,28.8,5.1Z" fill="#fff"/><path d="M28.8,9.1l.8.4a22.50312,22.50312,0,0,0,2.4.8l.7.1v3.8l-.6-.2a19.88935,19.88935,0,0,1-3.4-1.3h0Z" fill="#fff"/><path d="M24.8,11.4a8.46887,8.46887,0,0,1,1.7.4c.5.2,2,.8,2.3,1v4.1l-4-1.1Z" fill="#fff"/><path d="M32.9,6.5v3.9a14.919,14.919,0,0,0,2.1.2c.7,0,2.2-.1,2.2-.1V6.4H33" fill="#fff"/><path d="M37.2,18.5V14.4a20.61732,20.61732,0,0,1-4.3-.1v4.4l.9.1A19.52917,19.52917,0,0,0,37.2,18.5Z" fill="#fff"/><path d="M24.8,15.7c3.7.3,5.7,3.5,12.7,2.8V6.5c-9.3.9-9.8-5.5-17-2.6V7.3" fill="none" stroke="#fff" stroke-width="1.2"/><path d="M18.4,7.1V3.9H17.2V6.8Z" fill="#fff"/><path d="M17.2,23.6V28h1.2V23.8C18,23.7,17.6,23.7,17.2,23.6Z" fill="#fff"/><path d="M22.5,21.5c-9.3.9-9.8-4.9-17-2V6.9c7.2-2.9,7.6,3.5,17,2.6Z" fill="none" stroke="#fff" stroke-width="1.2"/><path d="M5.4,11.2s1.2-.3,2.2-.6a5.45053,5.45053,0,0,1,2.2-.1v3.9a7.51875,7.51875,0,0,0-1.5,0,8.8653,8.8653,0,0,0-2.8.7Z" fill="#fff"/><path d="M13.8,8.1c-1-.4-2.3-1.1-2.8-1.3s-1.2-.4-1.2-.4v4a13.32161,13.32161,0,0,1,1.9.5A22.5596,22.5596,0,0,1,13.9,12C13.8,12.1,13.8,8.1,13.8,8.1Z" fill="#fff"/><path d="M13.8,12.1l.8.4a22.50312,22.50312,0,0,0,2.4.8l.7.1v3.8l-.6-.2a19.88935,19.88935,0,0,1-3.4-1.3h0Z" fill="#fff"/><rect x="2.1" y="6.9" width="1.2" height="24.1" fill="#fff"/><path d="M9.8,14.4a8.46887,8.46887,0,0,1,1.7.4c.5.2,2,.8,2.3,1v4.1l-4-1.1Z" fill="#fff"/><path d="M17.9,9.5v3.9a14.919,14.919,0,0,0,2.1.2c.7,0,2.2-.1,2.2-.1V9.4H18" fill="#fff"/><path d="M22.2,21.5V17.4a20.61732,20.61732,0,0,1-4.3-.1v4.4l.9.1A19.52917,19.52917,0,0,0,22.2,21.5Z" fill="#fff"/></g></svg>