<svg xmlns="http://www.w3.org/2000/svg" viewBox="0 0 50 50"><defs><style>.cls-1{fill:#000;}.cls-2{fill:none;stroke:#fff;stroke-width:1.5px;}.cls-3{fill:#fff;}</style></defs><g id="Ebene_1" data-name="Ebene 1"><path class="cls-1" d="M42.25,30.75c-16.5,1.625-16.875-8.75-29.5-3.625V4.875c12.625-5.125,13,6.125,29.5,4.5Z"/><path class="cls-2" d="M42.25,30.75c-16.5,1.625-16.875-8.75-29.5-3.625V4.875c12.625-5.125,13,6.125,29.5,4.5Z"/><path d="M18.77757,2.76855c3.11862,0,5.44313,1.22971,7.989,2.57569,3.077,1.62727,6.50632,3.44352,12.31252,3.44352.96405,0,1.99324-.05,3.09764-.15934L43,8.54736V31.42969l-.67676.0664c-1.22754.1211-2.37109.17578-3.44043.17578a26.96784,26.96784,0,0,1-12.69336-3.15136c-2.35655-1.10925-4.41-2.07622-7.08484-2.07624a16.09112,16.09112,0,0,0-6.07238,1.376L12,28.23926V4.37012l.46777-.18995a16.73172,16.73172,0,0,1,6.3098-1.41162m0-.6a17.38885,17.38885,0,0,0-6.53552,1.4557l-.46779.19-.37426.152V29.13032l.82564-.33511,1.03223-.419a15.65476,15.65476,0,0,1,5.84673-1.332c2.53986,0,4.52664.93523,6.82714,2.01809a27.60182,27.60182,0,0,0,12.95107,3.20952c1.12017,0,2.29752-.06012,3.49934-.17868l.67644-.06637L43.6,31.9737V7.88538l-.65879.06487-.82324.08106c-1.04907.10382-2.07139.15645-3.03885.15645A23.25238,23.25238,0,0,1,27.055,4.818c-2.58283-1.3655-5.01147-2.64949-8.27747-2.64949Z"/><path class="cls-3" d="M12.5,12.2523a11.18516,11.18516,0,0,1,4-1.1773,16.9125,16.9125,0,0,1,4-.025v7.175a12.28539,12.28539,0,0,0-2.75-.125,19.103,19.103,0,0,0-5.25,1.3505Z"/><path class="cls-3" d="M27.5,6.112c-1.875-.875-4.01765-2.00687-4.89265-2.25687S20.5,3.35968,20.5,3.35968V11.05a16.441,16.441,0,0,1,3,.875c.85849.40848,2.28492,1.0563,4,2Z"/><path class="cls-3" d="M27.5,13.925l1.375.625A24.17368,24.17368,0,0,0,34.5,16.3h0v7.125l-1.1312-.2589A30.08571,30.08571,0,0,1,27.5,20.925v-7Z"/><rect class="cls-3" x="7.9502" y="4.7002" width="2.09961" height="43.59961"/><path d="M9.75,5V48H8.25V5h1.5m.6-.6H7.65V48.6h2.7V4.4Z"/><path class="cls-3" d="M20.5,18.225a12.20705,12.20705,0,0,1,2.875.75c1,.375,3.625,1.7,4.125,1.95v7.89335l-3.98439-1.9266L20.5,26.12111Z"/><path class="cls-3" d="M34.5,8.74234V16.3a28.86907,28.86907,0,0,0,3.5.375c1.25,0,4.5-.125,4.5-.125V9.13949L37.35044,9.167Z"/><path class="cls-3" d="M42.5,31V23.4833a20.95613,20.95613,0,0,1-8-.0583v7.49976l1.48347.27387A22.5094,22.5094,0,0,0,42.5,31Z"/></g></svg>