<svg xmlns="http://www.w3.org/2000/svg" viewBox="0 0 50 50"><defs><style>.cls-1{fill:#000;}.cls-2{fill:none;stroke:#fff;stroke-width:1.5px;}.cls-3{fill:#fff;}</style></defs><g id="Ebene_1" data-name="Ebene 1"><path class="cls-1" d="M42.25,30.75c-16.5,1.625-16.875-8.75-29.5-3.625V4.875c12.625-5.125,13,6.125,29.5,4.5Z"/><path class="cls-2" d="M42.25,30.75c-16.5,1.625-16.875-8.75-29.5-3.625V4.875c12.625-5.125,13,6.125,29.5,4.5Z"/><path d="M18.77757,2.76855c3.11862,0,5.44313,1.22971,7.989,2.57569,3.077,1.62727,6.50632,3.44352,12.31252,3.44352.96405,0,1.99324-.05,3.09764-.15934L43,8.54736V31.42969l-.67676.0664c-1.22754.1211-2.37109.17578-3.44043.17578a26.96784,26.96784,0,0,1-12.69336-3.15136c-2.35655-1.10925-4.41-2.07622-7.08484-2.07624a16.09112,16.09112,0,0,0-6.07238,1.376L12,28.23926V4.37012l.46777-.18995a16.73172,16.73172,0,0,1,6.3098-1.41162m0-.6a17.38885,17.38885,0,0,0-6.53552,1.4557l-.46779.19-.37426.152V29.13032l.82564-.33511,1.03223-.419a15.65476,15.65476,0,0,1,5.84673-1.332c2.53986,0,4.52664.93523,6.82714,2.01809a27.60182,27.60182,0,0,0,12.95107,3.20952c1.12017,0,2.29752-.06012,3.49934-.17868l.67644-.06637L43.6,31.9737V7.88538l-.65879.06487-.82324.08106c-1.04907.10382-2.07139.15645-3.03885.15645A23.25238,23.25238,0,0,1,27.055,4.818c-2.58283-1.3655-5.01147-2.64949-8.27747-2.64949Z"/><path class="cls-3" d="M12.5,12.2523a11.18516,11.18516,0,0,1,4-1.1773,16.9125,16.9125,0,0,1,4-.025v7.175a12.28539,12.28539,0,0,0-2.75-.125,19.103,19.103,0,0,0-5.25,1.3505Z"/><path class="cls-3" d="M27.5,6.112c-1.875-.875-4.01765-2.00687-4.89265-2.25687S20.5,3.35968,20.5,3.35968V11.05a16.441,16.441,0,0,1,3,.875c.85849.40848,2.28492,1.0563,4,2Z"/><path class="cls-3" d="M27.5,13.925l1.375.625A24.17368,24.17368,0,0,0,34.5,16.3h0v7.125l-1.1312-.2589A30.08571,30.08571,0,0,1,27.5,20.925v-7Z"/><rect class="cls-3" x="7.9502" y="4.7002" width="2.09961" height="43.59961"/><path d="M9.75,5V48H8.25V5h1.5m.6-.6H7.65V48.6h2.7V4.4Z"/><path class="cls-3" d="M20.5,18.225a12.20705,12.20705,0,0,1,2.875.75c1,.375,3.625,1.7,4.125,1.95v7.89335l-3.98439-1.9266L20.5,26.12111Z"/><path class="cls-3" d="M34.5,8.74234V16.3a28.86907,28.86907,0,0,0,3.5.375c1.25,0,4.5-.125,4.5-.125V9.13949L37.35044,9.167Z"/><path class="cls-3" d="M42.5,31V23.4833a20.95613,20.95613,0,0,1-8-.0583v7.49976l1.48347.27387A22.5094,22.5094,0,0,0,42.5,31Z"/><path class="cls-3" d="M24.48,47.94629q-.65186,0-1.23047-.05176a10.495,10.495,0,0,1-1.08691-.15039,7.75034,7.75034,0,0,1-.94727-.24512,5.5805,5.5805,0,0,1-.80664-.33691l-.16308-.083V44.94531l.4121.166q.35157.14208.77588.27246c.28223.08789.58448.165.90381.23144.32031.06641.65821.1211,1.01319.16016a9.7174,9.7174,0,0,0,1.06494.05957l.10693.001a4.6099,4.6099,0,0,0,1.209-.16309,2.65859,2.65859,0,0,0,.89843-.44043,1.82814,1.82814,0,0,0,.52637-.65039,2.00723,2.00723,0,0,0,.18066-.85449,2.32019,2.32019,0,0,0-.1914-.95117,1.91717,1.91717,0,0,0-.56153-.708,2.78265,2.78265,0,0,0-.9746-.47461,5.29978,5.29978,0,0,0-1.35645-.17578H22.57617V39.35352h1.59961A4.53014,4.53014,0,0,0,25.356,39.21a2.21529,2.21529,0,0,0,.81689-.40137,1.64683,1.64683,0,0,0,.47559-.63281,2.2698,2.2698,0,0,0,.1709-.915,1.827,1.827,0,0,0-.07911-.55664,1.52789,1.52789,0,0,0-.55761-.78613,2.03105,2.03105,0,0,0-.47461-.25781A3.20026,3.20026,0,0,0,25.10645,35.5a4.51871,4.51871,0,0,0-.69825-.05566,8.07928,8.07928,0,0,0-.98388.05761,8.971,8.971,0,0,0-.90967.15918,7.54434,7.54434,0,0,0-.81055.23633,5.56166,5.56166,0,0,0-.667.28027l-.43359.2168V34.19336l.16259-.084q.20728-.10694.46436-.21094c.167-.06836.3501-.13379.54492-.19336.19434-.06055.39795-.11524.61035-.16211q.31788-.07177.65821-.11914.334-.04687.68652-.0752c.23779-.01953.47656-.02832.72021-.02832l.10059-.001a7.74175,7.74175,0,0,1,1.894.23632,4.14871,4.14871,0,0,1,1.5127.72852,3.15538,3.15538,0,0,1,.956,1.2334,4.06707,4.06707,0,0,1,.31739,1.665,3.84773,3.84773,0,0,1-.13575,1.03418,3.42333,3.42333,0,0,1-.40918.93261,3.59326,3.59326,0,0,1-.666.78418,4.20581,4.20581,0,0,1-.38281.29981,4.55476,4.55476,0,0,1,.60742.38086,3.75367,3.75367,0,0,1,.83886.86523,3.638,3.638,0,0,1,.50489,1.06446,4.22366,4.22366,0,0,1,.165,1.19433,4.39729,4.39729,0,0,1-.14746,1.15137,3.72381,3.72381,0,0,1-.44727,1.02637,3.62,3.62,0,0,1-.75293.85253,4.33,4.33,0,0,1-1.03613.63965,5.914,5.914,0,0,1-1.30957.40039,8.43588,8.43588,0,0,1-1.5166.1377Z"/><path d="M24.55771,33.61982a7.34772,7.34772,0,0,1,1.81322.22723,3.88191,3.88191,0,0,1,1.405.675,2.85936,2.85936,0,0,1,.863,1.1145,3.79676,3.79676,0,0,1,.293,1.54053,3.59713,3.59713,0,0,1-.12574.96125,3.14675,3.14675,0,0,1-.37353.85143,3.28881,3.28881,0,0,1-.61035.71839,3.79739,3.79739,0,0,1-.83984.56337,4.25593,4.25593,0,0,1,1.084.58348,3.47418,3.47418,0,0,1,.77148.79652,3.33354,3.33354,0,0,1,.46265.97533,3.95262,3.95262,0,0,1,.15375,1.10963,4.10536,4.10536,0,0,1-.138,1.07605,3.43,3.43,0,0,1-.41137.943,3.33905,3.33905,0,0,1-.68969.78249,4.075,4.075,0,0,1-.96559.5957,5.63407,5.63407,0,0,1-1.24268.37964,8.10777,8.10777,0,0,1-1.46407.13329l-.06058-.00023q-.64086,0-1.20606-.05066a10.27912,10.27912,0,0,1-1.05712-.14649,7.31764,7.31764,0,0,1-.91064-.23559,5.3793,5.3793,0,0,1-.76295-.318l0-1.50628q.36251.1465.79956.28138c.29053.09033.60182.16967.9314.238q.49438.10347,1.04125.1648a9.94312,9.94312,0,0,0,1.10555.06166l.01749,0,.0765.0006a4.89387,4.89387,0,0,0,1.29314-.17394,2.95365,2.95365,0,0,0,.99975-.49011,2.10949,2.10949,0,0,0,.61646-.75989,2.296,2.296,0,0,0,.21-.98875,2.55683,2.55683,0,0,0-.21729-1.0669,2.20494,2.20494,0,0,0-.65063-.824,3.0936,3.0936,0,0,0-1.08276-.52856,5.57777,5.57777,0,0,0-1.42932-.18627q-.04462,0-.08925.00072H22.876V39.65332h1.2915l.07041.00053a4.716,4.716,0,0,0,1.19424-.15372,2.51664,2.51664,0,0,0,.9253-.45533,1.94219,1.94219,0,0,0,.56763-.75074,2.597,2.597,0,0,0,.19408-1.03942,2.12,2.12,0,0,0-.09155-.63842,1.85458,1.85458,0,0,0-.25875-.52613,1.81571,1.81571,0,0,0-.40894-.41443,2.37807,2.37807,0,0,0-.54443-.29541,3.44761,3.44761,0,0,0-.66161-.17638,4.75194,4.75194,0,0,0-.74806-.05924l-.01488,0h-.00528a8.41968,8.41968,0,0,0-.99692.05922,9.14468,9.14468,0,0,0-.94116.16478,7.895,7.895,0,0,0-.84352.24536,5.77055,5.77055,0,0,0-.70067.29542V34.37562q.19591-.10071.43945-.199c.16113-.06593.33569-.1275.52125-.18555q.28015-.087.58594-.15564.3076-.06866.63476-.11475c.21729-.0299.44067-.05492.67017-.07323s.46021-.02687.69581-.02687q.05345-.00078.10694-.00078m0-.6-.1157.00084h-.00236c-.24225,0-.488.0092-.73243.02871-.24115.01924-.47588.04551-.70422.07693-.23617.03327-.46342.0744-.68367.12356q-.33117.07437-.63313.16821-.30592.0957-.57058.20326c-.17808.07184-.3411.1459-.48654.22067l-.32569.16742v2.87223l.869-.43591a5.18716,5.18716,0,0,1,.62782-.2647,7.34159,7.34159,0,0,1,.78262-.22784,8.57253,8.57253,0,0,1,.87835-.15372,7.84262,7.84262,0,0,1,.92446-.05483h.00041a4.22894,4.22894,0,0,1,.67335.05174,2.8499,2.8499,0,0,1,.54471.1454,1.77216,1.77216,0,0,1,.4034.21948,1.21065,1.21065,0,0,1,.2722.27632,1.25054,1.25054,0,0,1,.17438.355,1.515,1.515,0,0,1,.06508.4559,2.01346,2.01346,0,0,1-.14915.81769,1.34007,1.34007,0,0,1-.38924.51158,1.8959,1.8959,0,0,1-.69765.34117,4.12458,4.12458,0,0,1-1.04524.13493l-.06146-.00046L22.876,39.05332h-.6v2.66485h1.8915l.08925-.00071a4.97975,4.97975,0,0,1,1.27555.16622,2.48217,2.48217,0,0,1,.87336.4262,1.60511,1.60511,0,0,1,.46792.59541,1.93579,1.93579,0,0,1,.16323.80968,1.72768,1.72768,0,0,1-.15513.74615,1.50829,1.50829,0,0,1-.437.53491,2.33648,2.33648,0,0,1-.792.387,4.29635,4.29635,0,0,1-1.13531.15281l-.06709-.00053a9.51681,9.51681,0,0,1-1.06574-.058c-.344-.03858-.67548-.091-.98505-.1558-.31268-.06485-.60711-.14-.87617-.2237-.27512-.0849-.528-.17384-.75288-.26472l-.82481-.33334,0,.88963,0,1.50628v.36745l.32731.167a5.99861,5.99861,0,0,0,.848.35346,7.94831,7.94831,0,0,0,.9856.255,10.92175,10.92175,0,0,0,1.11837.155c.39051.035.81431.05286,1.25745.05286l.06058.00023a8.73,8.73,0,0,0,1.57242-.14315,6.24221,6.24221,0,0,0,1.37463-.42,4.67522,4.67522,0,0,0,1.10834-.68366,3.93252,3.93252,0,0,0,.81319-.92275,4.02939,4.02939,0,0,0,.48453-1.10984,4.70732,4.70732,0,0,0,.15823-1.23377,4.53975,4.53975,0,0,0-.17709-1.27236,3.926,3.926,0,0,0-.546-1.15112,4.07014,4.07014,0,0,0-.90594-.93585q-.12371-.09189-.25252-.17554l.04715-.04112a3.88531,3.88531,0,0,0,.72094-.84877,3.74233,3.74233,0,0,0,.44435-1.01315,4.19693,4.19693,0,0,0,.1467-1.12153,4.34888,4.34888,0,0,0-.33938-1.76888,3.47716,3.47716,0,0,0-1.04741-1.35606,4.46591,4.46591,0,0,0-1.62826-.784,7.94955,7.94955,0,0,0-1.95917-.24525Z"/></g></svg>