<svg xmlns="http://www.w3.org/2000/svg" viewBox="0 0 50 50"><defs><style>.cls-1{fill:#000;}.cls-2{fill:none;stroke:#fff;stroke-width:1.5px;}.cls-3{fill:#fff;}</style></defs><g id="Ebene_1" data-name="Ebene 1"><path class="cls-1" d="M42.25,30.75c-16.5,1.625-16.875-8.75-29.5-3.625V4.875c12.625-5.125,13,6.125,29.5,4.5Z"/><path class="cls-2" d="M42.25,30.75c-16.5,1.625-16.875-8.75-29.5-3.625V4.875c12.625-5.125,13,6.125,29.5,4.5Z"/><path d="M18.77757,2.76855c3.11862,0,5.44313,1.22971,7.989,2.57569,3.077,1.62727,6.50632,3.44352,12.31252,3.44352.96405,0,1.99324-.05,3.09764-.15934L43,8.54736V31.42969l-.67676.0664c-1.22754.1211-2.37109.17578-3.44043.17578a26.96784,26.96784,0,0,1-12.69336-3.15136c-2.35655-1.10925-4.41-2.07622-7.08484-2.07624a16.09112,16.09112,0,0,0-6.07238,1.376L12,28.23926V4.37012l.46777-.18995a16.73172,16.73172,0,0,1,6.3098-1.41162m0-.6a17.38885,17.38885,0,0,0-6.53552,1.4557l-.46779.19-.37426.152V29.13032l.82564-.33511,1.03223-.419a15.65476,15.65476,0,0,1,5.84673-1.332c2.53986,0,4.52664.93523,6.82714,2.01809a27.60182,27.60182,0,0,0,12.95107,3.20952c1.12017,0,2.29752-.06012,3.49934-.17868l.67644-.06637L43.6,31.9737V7.88538l-.65879.06487-.82324.08106c-1.04907.10382-2.07139.15645-3.03885.15645A23.25238,23.25238,0,0,1,27.055,4.818c-2.58283-1.3655-5.01147-2.64949-8.27747-2.64949Z"/><path class="cls-3" d="M12.5,12.2523a11.18516,11.18516,0,0,1,4-1.1773,16.9125,16.9125,0,0,1,4-.025v7.175a12.28539,12.28539,0,0,0-2.75-.125,19.103,19.103,0,0,0-5.25,1.3505Z"/><path class="cls-3" d="M27.5,6.112c-1.875-.875-4.01765-2.00687-4.89265-2.25687S20.5,3.35968,20.5,3.35968V11.05a16.441,16.441,0,0,1,3,.875c.85849.40848,2.28492,1.0563,4,2Z"/><path class="cls-3" d="M27.5,13.925l1.375.625A24.17368,24.17368,0,0,0,34.5,16.3h0v7.125l-1.1312-.2589A30.08571,30.08571,0,0,1,27.5,20.925v-7Z"/><rect class="cls-3" x="7.9502" y="4.7002" width="2.09961" height="43.59961"/><path d="M9.75,5V48H8.25V5h1.5m.6-.6H7.65V48.6h2.7V4.4Z"/><path class="cls-3" d="M20.5,18.225a12.20705,12.20705,0,0,1,2.875.75c1,.375,3.625,1.7,4.125,1.95v7.89335l-3.98439-1.9266L20.5,26.12111Z"/><path class="cls-3" d="M34.5,8.74234V16.3a28.86907,28.86907,0,0,0,3.5.375c1.25,0,4.5-.125,4.5-.125V9.13949L37.35044,9.167Z"/><path class="cls-3" d="M42.5,31V23.4833a20.95613,20.95613,0,0,1-8-.0583v7.49976l1.48347.27387A22.5094,22.5094,0,0,0,42.5,31Z"/><path class="cls-3" d="M25.062,47.94727a5.79677,5.79677,0,0,1-2.21142-.4375,4.56393,4.56393,0,0,1-1.74121-1.31055A5.82217,5.82217,0,0,1,20.04785,44.084a10.25261,10.25261,0,0,1-.353-2.83789,12.68324,12.68324,0,0,1,.39844-3.34179,6.69639,6.69639,0,0,1,1.22754-2.502,5.29489,5.29489,0,0,1,2.0957-1.56054,7.40157,7.40157,0,0,1,2.73584-.52246l.16407.002c.34082,0,.65722.01074.94433.03516.28906.02343.55762.05566.80371.09667.24707.041.47754.09083.69141.14747.21387.05761.41406.12207.60254.1914l.19629.07227v2.14551l-.38867-.1211c-.20508-.06347-.41211-.123-.6211-.18066-.20117-.05469-.416-.10254-.63965-.1416-.22558-.04-.46679-.07227-.7207-.09571s-.52637-.03515-.81836-.03515l-.1123-.001a4.95461,4.95461,0,0,0-1.66651.28809,3.16879,3.16879,0,0,0-1.2373.83691,4.04111,4.04111,0,0,0-.80957,1.42481,8.45648,8.45648,0,0,0-.32617,1.39257c.061-.04.123-.0791.18505-.11621a5.44291,5.44291,0,0,1,.86475-.417,5.604,5.604,0,0,1,.96191-.2627,5.81887,5.81887,0,0,1,1.03418-.09277h.00293a6.75442,6.75442,0,0,1,1.5044.1582,5.14077,5.14077,0,0,1,1.25293.458A4.05855,4.05855,0,0,1,29.73145,40.793a4.5487,4.5487,0,0,1,.43164,1.14941,5.67061,5.67061,0,0,1,.14257,1.28711,5.2696,5.2696,0,0,1-.13671,1.19336,4.58239,4.58239,0,0,1-.415,1.11328A4.281,4.281,0,0,1,28.043,47.27539a5.24728,5.24728,0,0,1-1.2959.49609,6.71559,6.71559,0,0,1-1.52393.17579Zm-2.98535-6.418a10.02678,10.02678,0,0,0,.12109,1.38476,5.627,5.627,0,0,0,.313,1.17676,3.35946,3.35946,0,0,0,.47168.84375,2.56808,2.56808,0,0,0,.60352.55762,2.38093,2.38093,0,0,0,.71972.31347,3.485,3.485,0,0,0,.84424.10352H25.167l-.00537.2998.06543-.2998a3.43313,3.43313,0,0,0,1.15088-.19727,2.21116,2.21116,0,0,0,1.34863-1.36718,3.30674,3.30674,0,0,0,.17969-1.11231,3.37856,3.37856,0,0,0-.17871-1.13867,2.196,2.196,0,0,0-.50684-.82227,2.23393,2.23393,0,0,0-.84472-.5205,3.68369,3.68369,0,0,0-1.18262-.19434,5.793,5.793,0,0,0-.93164.06836,5.18481,5.18481,0,0,0-.81543.19824,5.11961,5.11961,0,0,0-1.36963.70606Z"/><path d="M26.15321,33.619q.07677,0,.15356.00166c.33935,0,.64818.011.929.03419q.42113.03387.77875.094.357.05951.66283.14159c.20509.05494.39674.116.5774.18312l.00006,1.52885q-.31125-.09612-.62988-.1831c-.21118-.058-.43457-.10743-.66773-.14893-.23315-.0409-.48217-.07384-.74462-.09826s-.54444-.03662-.846-.03662q-.054-.00109-.10808-.0011a5.28753,5.28753,0,0,0-1.7718.30566,3.45934,3.45934,0,0,0-1.35865.91736,4.36674,4.36674,0,0,0-.8728,1.53375,8.74166,8.74166,0,0,0-.41137,2.1466,4.79432,4.79432,0,0,1,.70922-.5194,5.04056,5.04056,0,0,1,.81665-.39368,5.3315,5.3315,0,0,1,.90943-.249,5.53751,5.53751,0,0,1,.97943-.08732l.01788,0,.04977-.00019a6.34738,6.34738,0,0,1,1.376.15095,4.85424,4.85424,0,0,1,1.1792.4309,3.781,3.781,0,0,1,1.58569,1.565,4.221,4.221,0,0,1,.40284,1.0736,5.34379,5.34379,0,0,1,.13548,1.2201,4.93965,4.93965,0,0,1-.12816,1.1261,4.26756,4.26756,0,0,1-.38941,1.04125,3.99594,3.99594,0,0,1-.65674.90394,3.95142,3.95142,0,0,1-.93384.71227,4.91119,4.91119,0,0,1-1.21947.46693,6.40052,6.40052,0,0,1-1.4548.16753l-.06133-.00029c-.03227.00057-.06464.00085-.09688.00085a5.5188,5.5188,0,0,1-2.10038-.41529,4.23824,4.23824,0,0,1-1.62231-1.2225A5.54019,5.54019,0,0,1,20.33753,44.007a9.983,9.983,0,0,1-.343-2.75573,12.426,12.426,0,0,1,.3894-3.27272,6.44155,6.44155,0,0,1,1.1731-2.392,4.97664,4.97664,0,0,1,1.97387-1.46729,7.12263,7.12263,0,0,1,2.62232-.50032m-1.03667,6.63855h-.00432a5.67953,5.67953,0,0,0-.89778.07141,5.39557,5.39557,0,0,0-.863.21058,5.29753,5.29753,0,0,0-.81419.35033,5.50532,5.50532,0,0,0-.7617.48952,10.17529,10.17529,0,0,0,.12574,1.58141,5.9229,5.9229,0,0,0,.32959,1.23841,3.66758,3.66758,0,0,0,.51391.918,2.85482,2.85482,0,0,0,.67625.625,2.70115,2.70115,0,0,0,.81177.35461,3.76055,3.76055,0,0,0,.91.11175l.019-.00005.06928.00064a3.72072,3.72072,0,0,0,1.24787-.21549,2.56642,2.56642,0,0,0,.95213-.60913,2.60115,2.60115,0,0,0,.57862-.94055,3.58149,3.58149,0,0,0,.19653-1.21521,3.68083,3.68083,0,0,0-.19408-1.23169,2.48631,2.48631,0,0,0-.5774-.93567,2.51771,2.51771,0,0,0-.96313-.59509,4.01073,4.01073,0,0,0-1.27912-.20947l-.07588.00072M26.15321,33.019h0a7.68984,7.68984,0,0,0-2.84322.54247,5.59956,5.59956,0,0,0-2.2188,1.647,7.00929,7.00929,0,0,0-1.28895,2.623,13.02483,13.02483,0,0,0-.40765,3.42856,10.5381,10.5381,0,0,0,.36364,2.90318,6.10371,6.10371,0,0,0,1.11314,2.21824,4.86465,4.86465,0,0,0,1.85739,1.40232,6.09851,6.09851,0,0,0,2.33611.46354l.10748-.00094.05073.00038a7.00973,7.00973,0,0,0,1.59118-.18324,5.51538,5.51538,0,0,0,1.37023-.52439,4.5532,4.5532,0,0,0,1.83339-1.8617,4.8689,4.8689,0,0,0,.444-1.1874,5.5459,5.5459,0,0,0,.14359-1.26229,5.94305,5.94305,0,0,0-.1507-1.35337,4.81756,4.81756,0,0,0-.4597-1.22446,4.36275,4.36275,0,0,0-1.83667-1.81213,5.456,5.456,0,0,0-1.32482-.48409,6.96158,6.96158,0,0,0-1.50734-.16551h-.00235l-.05212.00022h-.00087a6.18654,6.18654,0,0,0-1.09787.09673,5.94814,5.94814,0,0,0-1.0123.27713,5.67043,5.67043,0,0,0-.53262.23176q.08235-.36272.19766-.71715a3.746,3.746,0,0,1,.753-1.32346,2.8625,2.8625,0,0,1,1.11626-.7507,4.66539,4.66539,0,0,1,1.56342-.26832l.09576.001c.29393.00013.55985.01158.80271.03417.24548.02284.47843.05356.69652.09182.21291.03789.41835.08321.61252.13653q.31032.08471.61172.17781l.77707.24,0-.81328-.00006-1.52885,0-.4171-.391-.1453c-.19749-.07339-.407-.14021-.63116-.20027-.22134-.05941-.4635-.1112-.71945-.15386-.25328-.04259-.53258-.07636-.82929-.10022-.29371-.02427-.61374-.03612-.977-.03612l-.15356-.00166Zm-3.77242,8.66391a4.91673,4.91673,0,0,1,.4382-.26332,4.71355,4.71355,0,0,1,.72263-.311,4.80812,4.80812,0,0,1,.76658-.187,5.099,5.099,0,0,1,.804-.064l.0802-.00072a3.404,3.404,0,0,1,1.08774.17813,1.92742,1.92742,0,0,1,.73245.45289,1.88938,1.88938,0,0,1,.43182.70361,3.07,3.07,0,0,1,.16178,1.02895,3.00186,3.00186,0,0,1-.16362,1.0274,1.903,1.903,0,0,1-1.16783,1.18161,3.10838,3.10838,0,0,1-1.04377.17971l-.05809-.00054-.00559-.0001-.02457.00005a3.16379,3.16379,0,0,1-.76479-.09392,2.09442,2.09442,0,0,1-.62986-.27544,2.24415,2.24415,0,0,1-.53036-.49118,3.058,3.058,0,0,1-.42672-.76377,5.33445,5.33445,0,0,1-.29665-1.11411,9.63435,9.63435,0,0,1-.11357-1.18721Z"/></g></svg>