<svg id="Ebene_1" data-name="Ebene 1" xmlns="http://www.w3.org/2000/svg" viewBox="0 0 50 50"><defs><style>.cls-1{fill:#000;}.cls-2{fill:none;stroke:#fff;stroke-width:1.5px;}.cls-3{fill:#fff;}</style></defs><path class="cls-1" d="M42.25,30.75c-16.5,1.625-16.875-8.75-29.5-3.625V4.875c12.625-5.125,13,6.125,29.5,4.5Z"/><path class="cls-2" d="M42.25,30.75c-16.5,1.625-16.875-8.75-29.5-3.625V4.875c12.625-5.125,13,6.125,29.5,4.5Z"/><path d="M18.77757,2.76855c3.11862,0,5.44313,1.22971,7.989,2.57569,3.077,1.62727,6.50632,3.44352,12.31252,3.44352.96405,0,1.99324-.05,3.09764-.15934L43,8.54736V31.42969l-.67676.0664c-1.22754.1211-2.37109.17578-3.44043.17578a26.96784,26.96784,0,0,1-12.69336-3.15136c-2.35655-1.10925-4.41-2.07622-7.08484-2.07624a16.09112,16.09112,0,0,0-6.07238,1.376L12,28.23926V4.37012l.46777-.18995a16.73172,16.73172,0,0,1,6.3098-1.41162m0-.6a17.38885,17.38885,0,0,0-6.53552,1.4557l-.46779.19-.37426.152V29.13032l.82564-.33511,1.03223-.419a15.65476,15.65476,0,0,1,5.84673-1.332c2.53986,0,4.52664.93523,6.82714,2.01809a27.60182,27.60182,0,0,0,12.95107,3.20952c1.12017,0,2.29752-.06012,3.49934-.17868l.67644-.06637L43.6,31.9737V7.88538l-.65879.06487-.82324.08106c-1.04907.10382-2.07139.15645-3.03885.15645A23.25238,23.25238,0,0,1,27.055,4.818c-2.58283-1.3655-5.01147-2.64949-8.27747-2.64949Z"/><path class="cls-3" d="M12.5,12.2523a11.18516,11.18516,0,0,1,4-1.1773,16.9125,16.9125,0,0,1,4-.025v7.175a12.28539,12.28539,0,0,0-2.75-.125,19.103,19.103,0,0,0-5.25,1.3505Z"/><path class="cls-3" d="M27.5,6.112c-1.875-.875-4.01765-2.00687-4.89265-2.25687S20.5,3.35968,20.5,3.35968V11.05a16.441,16.441,0,0,1,3,.875c.85849.40848,2.28492,1.0563,4,2Z"/><path class="cls-3" d="M27.5,13.925l1.375.625A24.17368,24.17368,0,0,0,34.5,16.3h0v7.125l-1.1312-.2589A30.08571,30.08571,0,0,1,27.5,20.925v-7Z"/><rect class="cls-3" x="7.9502" y="4.7002" width="2.09961" height="43.59961"/><path d="M9.75,5V48H8.25V5h1.5m.6-.6H7.65V48.6h2.7V4.4Z"/><path class="cls-3" d="M20.5,18.225a12.20705,12.20705,0,0,1,2.875.75c1,.375,3.625,1.7,4.125,1.95v7.89335l-3.98439-1.9266L20.5,26.12111Z"/><path class="cls-3" d="M34.5,8.74234V16.3a28.86907,28.86907,0,0,0,3.5.375c1.25,0,4.5-.125,4.5-.125V9.13949L37.35044,9.167Z"/><path class="cls-3" d="M42.5,31V23.4833a20.95613,20.95613,0,0,1-8-.0583v7.49976l1.48347.27387A22.5094,22.5094,0,0,0,42.5,31Z"/><path class="cls-3" d="M23.707,47.94629c-.34326,0-.66162-.01172-.94922-.03613-.28857-.02246-.55664-.05567-.80469-.09571-.23339-.03906-.46289-.08789-.69042-.14843-.21045-.05664-.4087-.11914-.59864-.18555l-.20019-.07031V45.251l.39258.12793q.30321.09814.61425.18066c.2041.05469.41992.10254.64453.14453.22413.04.46289.07324.7168.0957.25488.02442.52979.03516.82471.03516l.11572.001a4.88915,4.88915,0,0,0,1.68994-.30176A3.14814,3.14814,0,0,0,26.707,44.6543a4.20853,4.20853,0,0,0,.79688-1.50489,9.28145,9.28145,0,0,0,.31738-1.541c-.06836.0459-.1377.08984-.207.13086a5.32947,5.32947,0,0,1-.87012.41992,5.44965,5.44965,0,0,1-.97119.26562,5.88923,5.88923,0,0,1-1.03809.0918l-.127.001a6.32951,6.32951,0,0,1-2.02832-.332,4.35378,4.35378,0,0,1-1.59033-.95117,4.00054,4.00054,0,0,1-.97412-1.47754,5.182,5.182,0,0,1-.32032-1.8545,5.00863,5.00863,0,0,1,.13868-1.17382,4.4151,4.4151,0,0,1,.42138-1.0879,4.16188,4.16188,0,0,1,1.72266-1.67968,5.38869,5.38869,0,0,1,1.291-.47364,6.84044,6.84044,0,0,1,1.50538-.168h.15673a5.807,5.807,0,0,1,2.2168.4375,4.563,4.563,0,0,1,1.74316,1.31054,5.79264,5.79264,0,0,1,1.06153,2.11719,10.30825,10.30825,0,0,1,.35351,2.83594,12.74811,12.74811,0,0,1-.39648,3.34179,6.69118,6.69118,0,0,1-1.22168,2.502,5.248,5.248,0,0,1-2.08594,1.56054,7.37008,7.37008,0,0,1-2.73193.52344Zm1.1084-12.584a3.8095,3.8095,0,0,0-1.189.18946,2.30866,2.30866,0,0,0-.84228.50976,2.09624,2.09624,0,0,0-.50732.78223,2.97394,2.97394,0,0,0-.17969,1.05762,3.1744,3.1744,0,0,0,.17431,1.09179,2.01435,2.01435,0,0,0,.49952.77637,2.24939,2.24939,0,0,0,.84814.49512,3.9198,3.9198,0,0,0,1.18457.18457,5.76221,5.76221,0,0,0,.93164-.06836,5.14483,5.14483,0,0,0,.8125-.20117,5.31085,5.31085,0,0,0,.76953-.33106,5.14862,5.14862,0,0,0,.59864-.36914,9.17653,9.17653,0,0,0-.14649-1.293,5.423,5.423,0,0,0-.32812-1.10937,3.17856,3.17856,0,0,0-.47364-.79492,2.44831,2.44831,0,0,0-.59179-.52637,2.40347,2.40347,0,0,0-.70752-.29688A3.77727,3.77727,0,0,0,24.81543,35.3623Z"/><path d="M24.93379,33.6197a5.52118,5.52118,0,0,1,2.09928.41467,4.22792,4.22792,0,0,1,1.62477,1.2225,5.51807,5.51807,0,0,1,1.00464,2.005,10.03337,10.03337,0,0,1,.343,2.7533,12.4873,12.4873,0,0,1-.387,3.27331,6.44981,6.44981,0,0,1-1.167,2.39136,4.93643,4.93643,0,0,1-1.96411,1.46728,7.09258,7.09258,0,0,1-2.61809.50092q-.07647,0-.15292-.00164-.51267,0-.93383-.03479c-.28077-.02259-.54077-.05432-.78125-.09339a6.74535,6.74535,0,0,1-.6604-.14221c-.20264-.055-.39429-.11414-.57739-.17884v-1.5331q.31125.10069.62989.18555c.21118.05615.43456.10625.66772.14892s.481.07625.74463.1001c.26125.025.54565.03661.85083.03661q.05493.00116.10984.00116a5.20414,5.20414,0,0,0,1.79934-.321,3.42847,3.42847,0,0,0,1.3684-.96626,4.53006,4.53006,0,0,0,.85816-1.61559,9.528,9.528,0,0,0,.38208-2.27539,4.79813,4.79813,0,0,1-.71411.5243,5.05533,5.05533,0,0,1-.82153.39611,5.23588,5.23588,0,0,1-.918.25147,5.61389,5.61389,0,0,1-.98282.08671l-.01938,0q-.05486.001-.10972.001a6.06447,6.06447,0,0,1-1.93373-.31654,4.08561,4.08561,0,0,1-1.48071-.88563,3.67534,3.67534,0,0,1-.89844-1.36414,4.90161,4.90161,0,0,1-.30151-1.74624,4.69464,4.69464,0,0,1,.13061-1.106,4.09187,4.09187,0,0,1,.39306-1.01375,3.87611,3.87611,0,0,1,1.5979-1.55884,5.05693,5.05693,0,0,1,1.21827-.44617,6.54909,6.54909,0,0,1,1.43971-.16022l.063.00031q.04836-.00086.09675-.00085m-.13055,7.12877q.04014,0,.08025-.00076h.00434a5.69711,5.69711,0,0,0,.89531-.0708,5.33883,5.33883,0,0,0,.8606-.213,5.55793,5.55793,0,0,0,.81421-.35034,5.33257,5.33257,0,0,0,.76288-.4871,9.55407,9.55407,0,0,0-.15625-1.49475,5.75521,5.75521,0,0,0-.34546-1.17,3.534,3.534,0,0,0-.51758-.86916,2.76075,2.76075,0,0,0-.66529-.59081,2.72637,2.72637,0,0,0-.79711-.33448,4.12448,4.12448,0,0,0-2.20581.09888,2.62462,2.62462,0,0,0-.95459.57679,2.39164,2.39164,0,0,0-.5835.89721,3.27761,3.27761,0,0,0-.19775,1.16516,3.46651,3.46651,0,0,0,.19043,1.1853,2.30294,2.30294,0,0,0,.575.89478,2.53909,2.53909,0,0,0,.96557.56519,4.205,4.205,0,0,0,1.27475.19789m.13056-7.72877-.10737.00094-.05237-.0004a7.16011,7.16011,0,0,0-1.57161.1749,5.66083,5.66083,0,0,0-1.36327.49921,4.46382,4.46382,0,0,0-1.84591,1.80048,4.69593,4.69593,0,0,0-.45143,1.16374,5.30115,5.30115,0,0,0-.14733,1.24743,5.471,5.471,0,0,0,.33845,1.95271,4.30435,4.30435,0,0,0,1.04628,1.59,4.66273,4.66273,0,0,0,1.70362,1.02086,6.65343,6.65343,0,0,0,2.126.3482l.12055-.00109h.00224a6.2404,6.2404,0,0,0,1.0942-.09586,5.85215,5.85215,0,0,0,1.02336-.2803,5.67252,5.67252,0,0,0,.58-.25558,8.92728,8.92728,0,0,1-.2122.87839,3.91028,3.91028,0,0,1-.745,1.40323,2.829,2.829,0,0,1-1.12212.78908,4.57927,4.57927,0,0,1-1.58348.2808l-.09723-.001c-.30432-.00013-.57135-.01153-.80628-.034-.24451-.02213-.47688-.05333-.69376-.093-.21706-.03973-.425-.08632-.62157-.13858q-.303-.08068-.59936-.17657l-.78471-.2539v2.78221l.4001.14138c.19666.06948.40248.13309.62013.19217.23773.0638.47969.1159.72079.15531.26348.0428.54251.07618.8299.0993.29459.02433.62539.03673.98195.03673l.15292.00165a7.65923,7.65923,0,0,0,2.83958-.54332,5.55814,5.55814,0,0,0,2.20983-1.64844,7.01719,7.01719,0,0,0,1.28167-2.62156,13.08647,13.08647,0,0,0,.405-3.42837,10.59047,10.59047,0,0,0-.36353-2.90028,6.08057,6.08057,0,0,0-1.11344-2.22139,4.85355,4.85355,0,0,0-1.86053-1.40244,6.10012,6.10012,0,0,0-2.33413-.46255Zm-.13056,7.12878a3.60021,3.60021,0,0,1-1.09285-.16966,1.95154,1.95154,0,0,1-.73773-.43174,1.7033,1.7033,0,0,1-.41871-.65551,2.85433,2.85433,0,0,1-.15653-.97742,2.697,2.697,0,0,1,.16157-.96861,1.801,1.801,0,0,1,.43679-.67123,2.00411,2.00411,0,0,1,.73164-.44042,3.52525,3.52525,0,0,1,1.87717-.0819,2.11309,2.11309,0,0,1,.61473.25923,2.15,2.15,0,0,1,.51673.45991,2.93087,2.93087,0,0,1,.42893.72065,5.16411,5.16411,0,0,1,.30939,1.0479,8.99386,8.99386,0,0,1,.13311,1.08814,4.74457,4.74457,0,0,1-.42834.25445,4.97807,4.97807,0,0,1-.72785.31333,4.75193,4.75193,0,0,1-.76345.18893,5.11015,5.11015,0,0,1-.8.06318l-.0846.00077Z"/></svg>