<svg id="Ebene_1" data-name="Ebene 1" xmlns="http://www.w3.org/2000/svg" viewBox="0 0 50 50"><defs><style>.cls-1{fill:#000;}.cls-2{fill:none;stroke:#fff;stroke-width:1.5px;}.cls-3{fill:#fff;}</style></defs><path class="cls-1" d="M42.25,30.75c-16.5,1.625-16.875-8.75-29.5-3.625V4.875c12.625-5.125,13,6.125,29.5,4.5Z"/><path class="cls-2" d="M42.25,30.75c-16.5,1.625-16.875-8.75-29.5-3.625V4.875c12.625-5.125,13,6.125,29.5,4.5Z"/><path d="M18.77757,2.76855c3.11862,0,5.44313,1.22971,7.989,2.57569,3.077,1.62727,6.50632,3.44352,12.31252,3.44352.96405,0,1.99324-.05,3.09764-.15934L43,8.54736V31.42969l-.67676.0664c-1.22754.1211-2.37109.17578-3.44043.17578a26.96784,26.96784,0,0,1-12.69336-3.15136c-2.35655-1.10925-4.41-2.07622-7.08484-2.07624a16.09112,16.09112,0,0,0-6.07238,1.376L12,28.23926V4.37012l.46777-.18995a16.73172,16.73172,0,0,1,6.3098-1.41162m0-.6a17.38885,17.38885,0,0,0-6.53552,1.4557l-.46779.19-.37426.152V29.13032l.82564-.33511,1.03223-.419a15.65476,15.65476,0,0,1,5.84673-1.332c2.53986,0,4.52664.93523,6.82714,2.01809a27.60182,27.60182,0,0,0,12.95107,3.20952c1.12017,0,2.29752-.06012,3.49934-.17868l.67644-.06637L43.6,31.9737V7.88538l-.65879.06487-.82324.08106c-1.04907.10382-2.07139.15645-3.03885.15645A23.25238,23.25238,0,0,1,27.055,4.818c-2.58283-1.3655-5.01147-2.64949-8.27747-2.64949Z"/><path class="cls-3" d="M12.5,12.2523a11.18516,11.18516,0,0,1,4-1.1773,16.9125,16.9125,0,0,1,4-.025v7.175a12.28539,12.28539,0,0,0-2.75-.125,19.103,19.103,0,0,0-5.25,1.3505Z"/><path class="cls-3" d="M27.5,6.112c-1.875-.875-4.01765-2.00687-4.89265-2.25687S20.5,3.35968,20.5,3.35968V11.05a16.441,16.441,0,0,1,3,.875c.85849.40848,2.28492,1.0563,4,2Z"/><path class="cls-3" d="M27.5,13.925l1.375.625A24.17368,24.17368,0,0,0,34.5,16.3h0v7.125l-1.1312-.2589A30.08571,30.08571,0,0,1,27.5,20.925v-7Z"/><rect class="cls-3" x="7.9502" y="4.7002" width="2.09961" height="43.59961"/><path d="M9.75,5V48H8.25V5h1.5m.6-.6H7.65V48.6h2.7V4.4Z"/><path class="cls-3" d="M20.5,18.225a12.20705,12.20705,0,0,1,2.875.75c1,.375,3.625,1.7,4.125,1.95v7.89335l-3.98439-1.9266L20.5,26.12111Z"/><path class="cls-3" d="M34.5,8.74234V16.3a28.86907,28.86907,0,0,0,3.5.375c1.25,0,4.5-.125,4.5-.125V9.13949L37.35044,9.167Z"/><path class="cls-3" d="M42.5,31V23.4833a20.95613,20.95613,0,0,1-8-.0583v7.49976l1.48347.27387A22.5094,22.5094,0,0,0,42.5,31Z"/><path class="cls-3" d="M20.01758,47.72168V45.94824L23.60156,42.5q.56689-.54345,1.042-1.02148.47169-.47462.8584-.90625.38086-.42482.67188-.81836a5.84485,5.84485,0,0,0,.47656-.75,3.40889,3.40889,0,0,0,.2832-.70215,2.59071,2.59071,0,0,0,.0918-.68555,2.53777,2.53777,0,0,0-.1543-.9082,1.6237,1.6237,0,0,0-.43945-.64844,2.05062,2.05062,0,0,0-.77246-.4209,3.941,3.941,0,0,0-1.10059-.1582c-.46.001-.81543.01562-1.15039.04492a8.591,8.591,0,0,0-.94629.13574,6.95008,6.95008,0,0,0-.8457.22364,5.83623,5.83623,0,0,0-.75879.31543l-.43359.21679V34.208l.15429-.08594a5.19346,5.19346,0,0,1,.77735-.34961,7.123,7.123,0,0,1,.9082-.252,9.34349,9.34349,0,0,1,1.03906-.15137q.54933-.04834,1.17969-.04883h.00488a8.56718,8.56718,0,0,1,1.53809.13086,5.52493,5.52493,0,0,1,1.25391.38184,3.667,3.667,0,0,1,.97265.63086,3.47843,3.47843,0,0,1,.67676.85351,3.81485,3.81485,0,0,1,.3877,1.044,5.54838,5.54838,0,0,1,.12207,1.18847,4.60621,4.60621,0,0,1-.15625,1.2002,5.56853,5.56853,0,0,1-.43848,1.10938,7.80269,7.80269,0,0,1-.667,1.04492q-.38232.50244-.84571,1.00488-.46.501-.99121,1.00781-.52294.50244-1.08593,1.02539L23.44238,45.6709h6.54v2.05078Z"/><path d="M24.55485,33.62025a8.03741,8.03741,0,0,1,1.41807.12607,5.20168,5.20168,0,0,1,1.18531.36132,3.33492,3.33492,0,0,1,.89233.57922,3.12405,3.12405,0,0,1,.61645.77821,3.48047,3.48047,0,0,1,.35645.95885,5.22738,5.22738,0,0,1,.11475,1.12366,4.26035,4.26035,0,0,1-.14649,1.12428,5.19741,5.19741,0,0,1-.41382,1.048,7.36551,7.36551,0,0,1-.64087,1.0028q-.37353.49166-.8264.98388-.45411.49257-.97779.99366-.5237.50082-1.08277,1.023l-2.35719,2.24733h6.98973v1.45142H20.31739V46.07605l3.49242-3.36q.56763-.54474,1.04615-1.02538.4779-.48064.86914-.918.39184-.43672.6897-.83984a6.31087,6.31087,0,0,0,.50049-.78735,3.72254,3.72254,0,0,0,.30761-.76234,2.91034,2.91034,0,0,0,.1025-.76659,2.82663,2.82663,0,0,0-.17211-1.01136,1.93243,1.93243,0,0,0-.52125-.769,2.36411,2.36411,0,0,0-.88866-.48585,4.25844,4.25844,0,0,0-1.19047-.1698l-.079.00074q-.5768,0-1.09251.04576a8.89012,8.89012,0,0,0-.979.13977A7.30717,7.30717,0,0,0,21.521,35.6a5.99813,5.99813,0,0,0-.79713.332V34.38474a4.79615,4.79615,0,0,1,.73242-.32959,6.75433,6.75433,0,0,1,.86793-.24048,8.81978,8.81978,0,0,1,1.00464-.14648q.53649-.04763,1.15355-.04762l.07241-.00032m0-.6-.07788.00036c-.42161,0-.82757.01678-1.20112.04993a9.45139,9.45139,0,0,0-1.0722.15639,7.38626,7.38626,0,0,0-.94571.262,5.41812,5.41812,0,0,0-.82519.37122l-.30885.17141v2.87466l.87-.43835a5.41363,5.41363,0,0,1,.7174-.29884,6.72909,6.72909,0,0,1,.80806-.2137,8.32143,8.32143,0,0,1,.91365-.13048c.3261-.029.67582-.04355,1.04087-.04355l.07905-.00072a3.65724,3.65724,0,0,1,1.02273.14587,1.77562,1.77562,0,0,1,.66249.36235,1.32944,1.32944,0,0,1,.35214.52385,2.21705,2.21705,0,0,1,.13519.79562,2.33005,2.33005,0,0,1-.08143.61711,3.11936,3.11936,0,0,1-.257.63561,5.7339,5.7339,0,0,1-.45344.71348c-.18781.25419-.40776.52189-.65511.79757q-.38234.42738-.848.89562-.47362.47577-1.03611,1.01552l-3.493,3.36054-.184.177v2.20116H30.28261V45.37046h-6.0909l1.27238-1.21308c.37-.34552.73264-.68812,1.08343-1.02356.35663-.34127.69446-.68461,1.00424-1.02061.31365-.34092.60387-.68649.863-1.02762a7.98891,7.98891,0,0,0,.69314-1.08458,5.81089,5.81089,0,0,0,.46246-1.17058,4.86632,4.86632,0,0,0,.16782-1.28518,5.82159,5.82159,0,0,0-.12793-1.24641,4.07566,4.07566,0,0,0-.41771-1.12323,3.72368,3.72368,0,0,0-.73687-.93131,3.93363,3.93363,0,0,0-1.05523-.6856,5.80941,5.80941,0,0,0-1.32219-.40306,8.65983,8.65983,0,0,0-1.52343-.1354Z"/></svg>