<svg id="Ebene_1" data-name="Ebene 1" xmlns="http://www.w3.org/2000/svg" viewBox="0 0 50 50"><defs><style>.cls-1{fill:#000;}.cls-2{fill:none;stroke:#fff;stroke-width:1.5px;}.cls-3{fill:#fff;}</style></defs><path class="cls-1" d="M42.25,30.75c-16.5,1.625-16.875-8.75-29.5-3.625V4.875c12.625-5.125,13,6.125,29.5,4.5Z"/><path class="cls-2" d="M42.25,30.75c-16.5,1.625-16.875-8.75-29.5-3.625V4.875c12.625-5.125,13,6.125,29.5,4.5Z"/><path d="M18.77757,2.76855c3.11862,0,5.44313,1.22971,7.989,2.57569,3.077,1.62727,6.50632,3.44352,12.31252,3.44352.96405,0,1.99324-.05,3.09764-.15934L43,8.54736V31.42969l-.67676.0664c-1.22754.1211-2.37109.17578-3.44043.17578a26.96784,26.96784,0,0,1-12.69336-3.15136c-2.35655-1.10925-4.41-2.07622-7.08484-2.07624a16.09112,16.09112,0,0,0-6.07238,1.376L12,28.23926V4.37012l.46777-.18995a16.73172,16.73172,0,0,1,6.3098-1.41162m0-.6a17.38885,17.38885,0,0,0-6.53552,1.4557l-.46779.19-.37426.152V29.13032l.82564-.33511,1.03223-.419a15.65476,15.65476,0,0,1,5.84673-1.332c2.53986,0,4.52664.93523,6.82714,2.01809a27.60182,27.60182,0,0,0,12.95107,3.20952c1.12017,0,2.29752-.06012,3.49934-.17868l.67644-.06637L43.6,31.9737V7.88538l-.65879.06487-.82324.08106c-1.04907.10382-2.07139.15645-3.03885.15645A23.25238,23.25238,0,0,1,27.055,4.818c-2.58283-1.3655-5.01147-2.64949-8.27747-2.64949Z"/><path class="cls-3" d="M12.5,12.2523a11.18516,11.18516,0,0,1,4-1.1773,16.9125,16.9125,0,0,1,4-.025v7.175a12.28539,12.28539,0,0,0-2.75-.125,19.103,19.103,0,0,0-5.25,1.3505Z"/><path class="cls-3" d="M27.5,6.112c-1.875-.875-4.01765-2.00687-4.89265-2.25687S20.5,3.35968,20.5,3.35968V11.05a16.441,16.441,0,0,1,3,.875c.85849.40848,2.28492,1.0563,4,2Z"/><path class="cls-3" d="M27.5,13.925l1.375.625A24.17368,24.17368,0,0,0,34.5,16.3h0v7.125l-1.1312-.2589A30.08571,30.08571,0,0,1,27.5,20.925v-7Z"/><rect class="cls-3" x="7.9502" y="4.7002" width="2.09961" height="43.59961"/><path d="M9.75,5V48H8.25V5h1.5m.6-.6H7.65V48.6h2.7V4.4Z"/><path class="cls-3" d="M20.5,18.225a12.20705,12.20705,0,0,1,2.875.75c1,.375,3.625,1.7,4.125,1.95v7.89335l-3.98439-1.9266L20.5,26.12111Z"/><path class="cls-3" d="M34.5,8.74234V16.3a28.86907,28.86907,0,0,0,3.5.375c1.25,0,4.5-.125,4.5-.125V9.13949L37.35044,9.167Z"/><path class="cls-3" d="M42.5,31V23.4833a20.95613,20.95613,0,0,1-8-.0583v7.49976l1.48347.27387A22.5094,22.5094,0,0,0,42.5,31Z"/><path class="cls-3" d="M24.94141,47.64648v.29981a9.566,9.566,0,0,1-1.60791-.13477,6.20864,6.20864,0,0,1-1.35694-.3916,4.165,4.165,0,0,1-1.05127-.63379,3.566,3.566,0,0,1-.73828-.84668,3.60478,3.60478,0,0,1-.43066-1.01172,4.53068,4.53068,0,0,1-.13721-1.13281,4.30522,4.30522,0,0,1,.07861-.83594,4.00989,4.00989,0,0,1,.23047-.76953,3.4575,3.4575,0,0,1,.38086-.69238,3.64905,3.64905,0,0,1,.52442-.5957,4.11433,4.11433,0,0,1,.66015-.49121c.07373-.04395.14844-.08594.22461-.127a3.5635,3.5635,0,0,1-.37646-.291,3.3552,3.3552,0,0,1-.6626-.78711,3.49277,3.49277,0,0,1-.398-.94336,4.15916,4.15916,0,0,1-.13135-1.0586,4.00924,4.00924,0,0,1,.32422-1.66113,3.24342,3.24342,0,0,1,.96777-1.24219,4.24245,4.24245,0,0,1,1.53956-.73925,8.74284,8.74284,0,0,1,4.05859-.001,4.22657,4.22657,0,0,1,1.53808.73731,3.20844,3.20844,0,0,1,.9668,1.24316A4.08683,4.08683,0,0,1,29.86328,37.21a4.19075,4.19075,0,0,1-.12988,1.05078,3.40148,3.40148,0,0,1-.4043.94629,3.543,3.543,0,0,1-.667.78613,3.89134,3.89134,0,0,1-.37695.28907c.07714.041.15332.083.22851.12793a4.12478,4.12478,0,0,1,.66211.49121,3.67967,3.67967,0,0,1,.52442.59668,3.75779,3.75779,0,0,1,.37792.69043,4.01851,4.01851,0,0,1,.22754.77148,4.60672,4.60672,0,0,1-.06445,1.9668,3.53461,3.53461,0,0,1-1.17676,1.8584,4.2029,4.2029,0,0,1-1.05175.63379,6.22882,6.22882,0,0,1-1.34961.39257,9.41594,9.41594,0,0,1-1.58789.13477Zm.06836-6.24121a4.79956,4.79956,0,0,0-1.36719.19922,2.62135,2.62135,0,0,0-.89942.50977,1.95006,1.95006,0,0,0-.50976.71582,2.309,2.309,0,0,0-.17041.8789,2.21794,2.21794,0,0,0,.17236.88379,1.70809,1.70809,0,0,0,.50684.66407,2.60991,2.60991,0,0,0,.90869.459,5.35294,5.35294,0,0,0,2.71728-.001,2.633,2.633,0,0,0,.90625-.459,1.74543,1.74543,0,0,0,.50879-.667,2.21729,2.21729,0,0,0,.17188-.876,2.28594,2.28594,0,0,0-.16992-.88379,1.94121,1.94121,0,0,0-.51075-.71582,2.60944,2.60944,0,0,0-.90429-.51074A4.78463,4.78463,0,0,0,25.00977,41.40527Zm-.00293-6.043a4.42545,4.42545,0,0,0-1.08008.13477,2.09719,2.09719,0,0,0-.75147.37207,1.53255,1.53255,0,0,0-.44824.57715,1.98241,1.98241,0,0,0-.15967.81641,2.3028,2.3028,0,0,0,.1543.87207,1.69628,1.69628,0,0,0,.44092.6416,2.05971,2.05971,0,0,0,.748.42578,3.82651,3.82651,0,0,0,2.20069-.001,2.06534,2.06534,0,0,0,.74609-.42578,1.745,1.745,0,0,0,.43848-.64258,2.28135,2.28135,0,0,0,.15625-.86035,1.96216,1.96216,0,0,0-.16309-.8291,1.568,1.568,0,0,0-.45117-.5752,2.0933,2.0933,0,0,0-.75488-.37207A4.42,4.42,0,0,0,25.00684,35.3623Z"/><path d="M25.01293,33.6206a8.42406,8.42406,0,0,1,1.958.23071,3.95687,3.95687,0,0,1,1.42579.68483,2.89184,2.89184,0,0,1,.8728,1.12365,3.8053,3.8053,0,0,1,.29419,1.5448,3.89024,3.89024,0,0,1-.12084.98206,3.10632,3.10632,0,0,1-.36866.86243,3.21964,3.21964,0,0,1-.61034.719,3.52183,3.52183,0,0,1-.84486.54444,4.52373,4.52373,0,0,1,.741.35522,3.7961,3.7961,0,0,1,.614.45533,3.28953,3.28953,0,0,1,.47974.54687,3.3389,3.3389,0,0,1,.34668.63416,3.70243,3.70243,0,0,1,.21.71167,4.34152,4.34152,0,0,1-.05982,1.83776,3.30824,3.30824,0,0,1-.39795.92713,3.27339,3.27339,0,0,1-.67993.77392,3.90561,3.90561,0,0,1-.97657.58778,5.94738,5.94738,0,0,1-1.28417.37353,9.04142,9.04142,0,0,1-1.5329.13088l-.06989-.00027-.07159.00028a9.28071,9.28071,0,0,1-1.55316-.13089,5.888,5.888,0,0,1-1.29272-.37353,3.85456,3.85456,0,0,1-.97534-.58778,3.25114,3.25114,0,0,1-.675-.77392,3.30081,3.30081,0,0,1-.39429-.92713,4.23,4.23,0,0,1-.12817-1.05712,4.048,4.048,0,0,1,.07323-.78064,3.70911,3.70911,0,0,1,.21363-.71167,3.212,3.212,0,0,1,.3479-.63416,3.36221,3.36221,0,0,1,.48217-.54687,3.82867,3.82867,0,0,1,.61158-.45533,4.50339,4.50339,0,0,1,.73486-.35522,3.4352,3.4352,0,0,1-.84228-.54444,3.098,3.098,0,0,1-.60424-.719,3.16786,3.16786,0,0,1-.36375-.86243,3.83449,3.83449,0,0,1-.12208-.98206,3.74446,3.74446,0,0,1,.3003-1.5448,2.92367,2.92367,0,0,1,.87646-1.12365,3.9591,3.9591,0,0,1,1.42823-.68483,8.42421,8.42421,0,0,1,1.958-.23071m-.005,6.04248a4.13592,4.13592,0,0,0,1.189-.17456,2.35893,2.35893,0,0,0,.85937-.48949,2.05194,2.05194,0,0,0,.51876-.75562,2.60259,2.60259,0,0,0,.1771-.97474,2.25914,2.25914,0,0,0-.188-.94543,1.86994,1.86994,0,0,0-.54078-.69092,2.41166,2.41166,0,0,0-.863-.426,4.69087,4.69087,0,0,0-2.30711,0,2.41582,2.41582,0,0,0-.86182.426,1.83881,1.83881,0,0,0-.53834.69092,2.27835,2.27835,0,0,0-.18555.94543,2.60182,2.60182,0,0,0,.17456.97474,1.99561,1.99561,0,0,0,.51875.75562,2.38444,2.38444,0,0,0,.85817.48949,4.13592,4.13592,0,0,0,1.189.17456m-.00057,6.52711a5.678,5.678,0,0,0,1.43737-.18494,2.96639,2.96639,0,0,0,1.01441-.5127,2.06149,2.06149,0,0,0,.59937-.78308,2.50193,2.50193,0,0,0,.19653-.99976,2.58481,2.58481,0,0,0-.19287-.99365,2.231,2.231,0,0,0-.5896-.82885,2.93772,2.93772,0,0,0-1.00952-.56946,5.06387,5.06387,0,0,0-2.9065,0,2.92635,2.92635,0,0,0-1.00951.56946,2.23449,2.23449,0,0,0-.59083.82885,2.60764,2.60764,0,0,0-.19287.99365,2.52262,2.52262,0,0,0,.19531.99976,2.01938,2.01938,0,0,0,.59692.78308,2.95551,2.95551,0,0,0,1.01441.5127,5.67821,5.67821,0,0,0,1.43738.18494m.00561-13.16959a9.03509,9.03509,0,0,0-2.09747.24714,4.54148,4.54148,0,0,0-1.65115.79021,3.54279,3.54279,0,0,0-1.06285,1.35924,4.32454,4.32454,0,0,0-.35141,1.79923,4.39854,4.39854,0,0,0,.14108,1.12046,3.76243,3.76243,0,0,0,.43231,1.02449,3.69324,3.69324,0,0,0,.721.85788l.03751.03251a4.43791,4.43791,0,0,0-.55059.4281,3.96827,3.96827,0,0,0-.56816.6444,3.81711,3.81711,0,0,0-.41265.7523,4.31431,4.31431,0,0,0-.24751.82511,4.66043,4.66043,0,0,0-.08417.8968,4.82144,4.82144,0,0,0,.14636,1.20167,3.89756,3.89756,0,0,0,.46628,1.09684,3.8471,3.8471,0,0,0,.80061.91843,4.45474,4.45474,0,0,0,1.12916.68093,6.49419,6.49419,0,0,0,1.42351.41121,9.90713,9.90713,0,0,0,1.65275.13921l.07613-.0003.06536.00029a9.66908,9.66908,0,0,0,1.63464-.13957,6.55723,6.55723,0,0,0,1.41372-.41121,4.50244,4.50244,0,0,0,1.12639-.678,3.84591,3.84591,0,0,0,1.27776-2.01465,4.91261,4.91261,0,0,0,.069-2.09549,4.31814,4.31814,0,0,0-.24467-.83039,3.95105,3.95105,0,0,0-.41-.75063,3.89738,3.89738,0,0,0-.56744-.6469A4.40973,4.40973,0,0,0,28.8236,40.25l.03392-.02917a3.82088,3.82088,0,0,0,.726-.85468,3.70321,3.70321,0,0,0,.4403-1.02971,4.49541,4.49541,0,0,0,.13984-1.13493,4.35776,4.35776,0,0,0-.34068-1.77337,3.51086,3.51086,0,0,0-1.05756-1.36536,4.54074,4.54074,0,0,0-1.64809-.79337,9.04786,9.04786,0,0,0-2.10444-.24885Zm-.005,6.04248a3.53418,3.53418,0,0,1-1.0165-.14924,1.76283,1.76283,0,0,1-.63184-.3631,1.397,1.397,0,0,1-.35812-.52425,1.99194,1.99194,0,0,1-.134-.74926,1.69762,1.69762,0,0,1,.13663-.71656,1.23632,1.23632,0,0,1,.35916-.45746,1.8,1.8,0,0,1,.64352-.31689,4.09153,4.09153,0,0,1,2.006.00155,1.796,1.796,0,0,1,.643.31865,1.2698,1.2698,0,0,1,.36231.46535,1.63819,1.63819,0,0,1,.13416.68556,2.02353,2.02353,0,0,1-.13633.76832,1.45727,1.45727,0,0,1-.36594.53179,1.73868,1.73868,0,0,1-.63414.359,3.52169,3.52169,0,0,1-1.00788.14658Zm-.00057,6.5271a5.08153,5.08153,0,0,1-1.2855-.16539,2.33257,2.33257,0,0,1-.79772-.4057,1.41808,1.41808,0,0,1-.414-.546,1.90582,1.90582,0,0,1-.1468-.75711,2.01,2.01,0,0,1,.14853-.77342,1.64156,1.64156,0,0,1,.43161-.60491,2.308,2.308,0,0,1,.79856-.44924,4.46583,4.46583,0,0,1,2.54885.00414,2.31215,2.31215,0,0,1,.78963.44887,1.63386,1.63386,0,0,1,.42635.60186,1.97515,1.97515,0,0,1,.14821.76326,1.90421,1.90421,0,0,1-.14937.76978,1.46066,1.46066,0,0,1-.42195.54822,2.34563,2.34563,0,0,1-.80205.40333,5.06428,5.06428,0,0,1-1.27432.16235Z"/></svg>