<svg id="V1" xmlns="http://www.w3.org/2000/svg" viewBox="0 0 50 50"><defs><style>.cls-1,.cls-4{fill:#000;}.cls-2,.cls-5,.cls-6{fill:none;}.cls-2,.cls-4,.cls-5,.cls-6{stroke:#fff;}.cls-2{stroke-width:1.5px;}.cls-3{fill:#fff;}.cls-4,.cls-6{stroke-width:1.5px;}.cls-5{stroke-width:1.5px;}</style></defs><path class="cls-1" d="M35.25,28.75C18.75,30.375,18.375,20,5.75,25.125V2.875c12.625-5.125,13,6.125,29.5,4.5Z"/><path class="cls-2" d="M35.25,28.75C18.75,30.375,18.375,20,5.75,25.125V2.875c12.625-5.125,13,6.125,29.5,4.5Z"/><path d="M11.77757.76855c3.11862,0,5.44313,1.22971,7.989,2.57569,3.077,1.62727,6.50632,3.44352,12.31252,3.44352.96405,0,1.99324-.05,3.09764-.15934L36,6.54736V29.42969l-.67676.0664c-1.22754.1211-2.37109.17578-3.44043.17578a26.96784,26.96784,0,0,1-12.69336-3.15136c-2.35655-1.10925-4.41-2.07622-7.08484-2.07624a16.09112,16.09112,0,0,0-6.07238,1.376L5,26.23926V2.37012l.46777-.19A16.73172,16.73172,0,0,1,11.77757.76855m0-.6a17.38885,17.38885,0,0,0-6.53552,1.4557l-.46779.19L4.4,1.96618V27.13032l.82564-.33511,1.03223-.419a15.65476,15.65476,0,0,1,5.84673-1.332c2.53986,0,4.52664.93523,6.82714,2.01809a27.60182,27.60182,0,0,0,12.95107,3.20952c1.12017,0,2.29752-.06012,3.49934-.17868l.67644-.06637L36.6,29.9737V5.88538l-.65879.06487-.82324.08106c-1.04907.10382-2.07139.15645-3.03885.15645A23.25238,23.25238,0,0,1,20.055,2.818C17.47221,1.45254,15.04357.16855,11.77757.16855Z"/><path class="cls-3" d="M5.5,10.2523a11.18516,11.18516,0,0,1,4-1.1773,16.9125,16.9125,0,0,1,4-.025v7.175a12.28539,12.28539,0,0,0-2.75-.125A19.103,19.103,0,0,0,5.5,17.4505Z"/><path class="cls-3" d="M20.5,4.112c-1.875-.875-4.01765-2.00687-4.89265-2.25687S13.5,1.35968,13.5,1.35968V9.05a16.441,16.441,0,0,1,3,.875c.85849.40848,2.28492,1.0563,4,2Z"/><path class="cls-3" d="M20.5,11.925l1.375.625A24.17368,24.17368,0,0,0,27.5,14.3h0v7.125l-1.1312-.2589A30.08571,30.08571,0,0,1,20.5,18.925v-7Z"/><rect class="cls-3" x="0.9502" y="2.7002" width="2.09961" height="43.59961"/><path d="M2.75,3V46H1.25V3h1.5m.6-.6H.65V46.6h2.7V2.4Z"/><path class="cls-3" d="M13.5,16.225a12.20705,12.20705,0,0,1,2.875.75c1,.375,3.625,1.7,4.125,1.95v7.89335l-3.98439-1.9266L13.5,24.12111Z"/><path class="cls-3" d="M27.5,6.74234V14.3a28.86907,28.86907,0,0,0,3.5.375c1.25,0,4.5-.125,4.5-.125V7.13949L30.35044,7.167Z"/><path class="cls-3" d="M35.5,29V21.4833a20.95613,20.95613,0,0,1-8-.0583v7.49976l1.48347.27387A22.5094,22.5094,0,0,0,35.5,29Z"/><path class="cls-4" d="M26.5,48.5V27A1.5,1.5,0,0,1,28,25.5H38A1.5,1.5,0,0,1,39.5,27V48.5"/><path class="cls-3" d="M47.5,28h1.125v2.2125a3.225,3.225,0,0,1-2.375,3.125h-1.5a3.225,3.225,0,0,1-2.375-3.125V28H43.5V25H45v3h1V25h1.5Z"/><path d="M48.625,27.4H48.1v-3H42.9v3H41.775v2.8125a3.83869,3.83869,0,0,0,2.375,3.54236V45a.15.15,0,0,1-.3,0V36.96875A2.86262,2.86262,0,0,0,41,34.15h-.15V27A2.8532,2.8532,0,0,0,38,24.15H28A2.85324,2.85324,0,0,0,25.15,27V47.15H23.4v2.7H42.6V47.4671A2.81561,2.81561,0,0,0,44,47.85,2.85319,2.85319,0,0,0,46.85,45V33.75482a3.83869,3.83869,0,0,0,2.375-3.54236V27.4ZM42,49.25H24v-1.5h1.75V27A2.25278,2.25278,0,0,1,28,24.75H38A2.25278,2.25278,0,0,1,40.25,27V47.75H42Zm0-2.1H40.85V36.85H41a.15206.15206,0,0,1,.15.15v8a2.83214,2.83214,0,0,0,1.00007,2.15ZM46.25,45a2.25,2.25,0,0,1-4.5,0V37a.75144.75144,0,0,0-.75-.75h-.15v-1.5H41a2.25235,2.25235,0,0,1,2.25,2.21875V45a.75.75,0,0,0,1.5,0V33.9375h1.5Zm2.375-14.78754a3.225,3.225,0,0,1-2.375,3.125h-1.5a3.225,3.225,0,0,1-2.375-3.125V28H43.5V25H45v3h1V25h1.5v3h1.125Z"/><path class="cls-5" d="M37,33.5H29"/><path class="cls-6" d="M39.5,35.5H41A1.5,1.5,0,0,1,42.5,37v8a1.5,1.5,0,0,0,3,0V33"/><path class="cls-3" d="M24,47.75H42v1.5H24Z"/></svg>