<svg xmlns="http://www.w3.org/2000/svg" xmlns:xlink="http://www.w3.org/1999/xlink" viewBox="0 0 44 44"><defs><linearGradient id="Hintergrund_weiss" x1="1.9998" y1="29.69681" x2="42.0002" y2="29.69681" gradientUnits="userSpaceOnUse"><stop offset="0" stop-color="#fff"/></linearGradient><linearGradient id="Rahmen_schwarz" x1="2" y1="29.55" x2="42" y2="29.55" gradientUnits="userSpaceOnUse"><stop offset="0" stop-color="#010101"/></linearGradient><linearGradient id="Beschriftung_schwarz" x1="7.57454" y1="30.05265" x2="37.24935" y2="30.05265" xlink:href="#Rahmen_schwarz"/></defs><title>speedlimit_school_work_usa_can_25</title><g id="speedlimit_school_work_usa_can_25"><rect id="Hintergrund_weiss-2" data-name="Hintergrund_weiss" x="1.9998" y="17.39363" width="40.00039" height="24.60637" rx="2.2107" fill="url(#Hintergrund_weiss)"/><path id="Rahmen_schwarz-2" data-name="Rahmen_schwarz" d="M39.8,18.1A1.15536,1.15536,0,0,1,41,19.3V39.8A1.15536,1.15536,0,0,1,39.8,41H4.2A1.15536,1.15536,0,0,1,3,39.8V19.3a1.15536,1.15536,0,0,1,1.2-1.2H39.8m0-1H4.2A2.21953,2.21953,0,0,0,2,19.3V39.8A2.21953,2.21953,0,0,0,4.2,42H39.8A2.21953,2.21953,0,0,0,42,39.8V19.3a2.21953,2.21953,0,0,0-2.2-2.2Z" fill="url(#Rahmen_schwarz)" stroke-width="0.5px" stroke="url(#Rahmen_schwarz)"/><path id="Beschriftung_schwarz-2" data-name="Beschriftung_schwarz" d="M21.07454,38.41545h-13.5q.49951-6.57423,6.85059-9.25a19.58282,19.58282,0,0,0,2.69922-1.3125,1.60942,1.60942,0,0,0,.97558-1.48731,1.64669,1.64669,0,0,0-.82519-1.38769,4.77708,4.77708,0,0,0-2.5752-.58789,6.67931,6.67931,0,0,0-4.64941,2.10058L7.62435,24.54045a9.68681,9.68681,0,0,1,7-3.15039A7.09911,7.09911,0,0,1,19.32454,22.853a4.43553,4.43553,0,0,1,1.75,3.51269,4.16151,4.16151,0,0,1-.95019,2.8125,10.43446,10.43446,0,0,1-3.52442,2.16211q-4.125,1.97607-4.9248,4.0752h9.39941Zm16.17481-5.75a5.49341,5.49341,0,0,1-1.97461,4.33789,7.47032,7.47032,0,0,1-5.0752,1.71191,12.20481,12.20481,0,0,1-6.45019-1.875l1.57519-2.52441a10.12084,10.12084,0,0,0,4.875,1.375,4.69146,4.69146,0,0,0,3.04981-.86328,2.689,2.689,0,0,0,1.125-2.1875,2.5423,2.5423,0,0,0-1.02442-2.21192,4.49684,4.49684,0,0,0-2.77539-.8623,9.64276,9.64276,0,0,0-3.59961.77441l-2.60058-.75.4248-7.9248H35.97493v2.97461h-8.375l-.15039,2.45019a11.77761,11.77761,0,0,1,3.22461-.47461,6.68741,6.68741,0,0,1,4.72559,1.71192A5.6564,5.6564,0,0,1,37.24935,32.66545Z" fill="url(#Beschriftung_schwarz)"/></g></svg>