<svg xmlns="http://www.w3.org/2000/svg" xmlns:xlink="http://www.w3.org/1999/xlink" viewBox="0 0 44 44"><defs><linearGradient id="Hintergrund_weiss" x1="1.9998" y1="29.69681" x2="42.0002" y2="29.69681" gradientUnits="userSpaceOnUse"><stop offset="0" stop-color="#fff"/></linearGradient><linearGradient id="Rahmen_schwarz" x1="2" y1="29.55" x2="42" y2="29.55" gradientUnits="userSpaceOnUse"><stop offset="0" stop-color="#010101"/></linearGradient><linearGradient id="Beschriftung_schwarz" x1="7.49793" y1="30.05322" x2="37.19813" y2="30.05322" xlink:href="#Rahmen_schwarz"/></defs><title>speedlimit_school_work_usa_can_150</title><g id="speedlimit_school_work_usa_can_150"><rect id="Hintergrund_weiss-2" data-name="Hintergrund_weiss" x="1.9998" y="17.39363" width="40.00039" height="24.60637" rx="2.2107" fill="url(#Hintergrund_weiss)"/><path id="Rahmen_schwarz-2" data-name="Rahmen_schwarz" d="M39.8,18.1A1.15536,1.15536,0,0,1,41,19.3V39.8A1.15536,1.15536,0,0,1,39.8,41H4.2A1.15536,1.15536,0,0,1,3,39.8V19.3a1.15536,1.15536,0,0,1,1.2-1.2H39.8m0-1H4.2A2.21953,2.21953,0,0,0,2,19.3V39.8A2.21953,2.21953,0,0,0,4.2,42H39.8A2.21953,2.21953,0,0,0,42,39.8V19.3a2.21953,2.21953,0,0,0-2.2-2.2Z" fill="url(#Rahmen_schwarz)" stroke-width="0.5px" stroke="url(#Rahmen_schwarz)"/><path id="Beschriftung_schwarz-2" data-name="Beschriftung_schwarz" d="M11.27333,38.416H8.92274V24.64062H7.49793V22.74121A2.3845,2.3845,0,0,0,9.52333,21.666h1.75Zm13.0996-5.97461a6.62015,6.62015,0,0,1-1.5625,4.4375,4.73239,4.73239,0,0,1-3.71191,1.83691,6.96956,6.96956,0,0,1-3.875-1l1.34961-2a4.589,4.589,0,0,0,2.40039.60059,3.10242,3.10242,0,0,0,2.16211-1.22559,4.01708,4.01708,0,0,0,.8623-2.6748,3.34637,3.34637,0,0,0-.64941-2.04981,2.11959,2.11959,0,0,0-1.80078-.875,2.16846,2.16846,0,0,0-1.72461,1.0752h-2.125l.125-8.90039h7.875v2.3496H18.09852l-.05078,3.5254a3.90931,3.90931,0,0,1,1.72559-.375,4.17761,4.17761,0,0,1,3.3496,1.5498A5.68745,5.68745,0,0,1,24.37293,32.44141Zm7.84961,6.27441a4.01517,4.01517,0,0,1-3.77441-2.16211,13.806,13.806,0,0,1-1.2002-6.51269,13.74787,13.74787,0,0,1,1.2002-6.47461,4.01143,4.01143,0,0,1,3.77441-2.17579,4.01288,4.01288,0,0,1,3.77539,2.17579,13.76,13.76,0,0,1,1.2002,6.47461,13.81811,13.81811,0,0,1-1.2002,6.51269A4.01662,4.01662,0,0,1,32.22254,38.71582Zm0-2.34961a2.01792,2.01792,0,0,0,1.97559-1.52539,14.43053,14.43053,0,0,0,.59961-4.84961,13.77007,13.77007,0,0,0-.59961-4.75,2.05034,2.05034,0,0,0-3.9502,0,13.74117,13.74117,0,0,0-.60058,4.75,14.4001,14.4001,0,0,0,.60058,4.84961A2.01609,2.01609,0,0,0,32.22254,36.36621Z" fill="url(#Beschriftung_schwarz)"/></g></svg>