<svg xmlns="http://www.w3.org/2000/svg" xmlns:xlink="http://www.w3.org/1999/xlink" viewBox="0 0 44 44"><defs><linearGradient id="Hintergrund_weiss" x1="1.9998" y1="29.69681" x2="42.0002" y2="29.69681" gradientUnits="userSpaceOnUse"><stop offset="0" stop-color="#fff"/></linearGradient><linearGradient id="Rahmen_schwarz" x1="2" y1="29.55" x2="42" y2="29.55" gradientUnits="userSpaceOnUse"><stop offset="0" stop-color="#010101"/></linearGradient><linearGradient id="Beschriftung_schwarz" x1="7.50078" y1="30.18989" x2="37.20098" y2="30.18989" xlink:href="#Rahmen_schwarz"/></defs><title>speedlimit_school_work_usa_can_75</title><g id="speedlimit_school_work_usa_can_75"><rect id="Hintergrund_weiss-2" data-name="Hintergrund_weiss" x="1.9998" y="17.39363" width="40.00039" height="24.60637" rx="2.2107" fill="url(#Hintergrund_weiss)"/><path id="Rahmen_schwarz-2" data-name="Rahmen_schwarz" d="M39.8,18.1A1.15536,1.15536,0,0,1,41,19.3V39.8A1.15536,1.15536,0,0,1,39.8,41H4.2A1.15536,1.15536,0,0,1,3,39.8V19.3a1.15536,1.15536,0,0,1,1.2-1.2H39.8m0-1H4.2A2.21953,2.21953,0,0,0,2,19.3V39.8A2.21953,2.21953,0,0,0,4.2,42H39.8A2.21953,2.21953,0,0,0,42,39.8V19.3a2.21953,2.21953,0,0,0-2.2-2.2Z" fill="url(#Rahmen_schwarz)" stroke-width="0.5px" stroke="url(#Rahmen_schwarz)"/><path id="Beschriftung_schwarz-2" data-name="Beschriftung_schwarz" d="M21.02617,24.58979a25.24729,25.24729,0,0,0-5.1748,13.8252H12.67559a29.34605,29.34605,0,0,1,4.67578-13.79981H7.50078V21.665H21.02617ZM37.201,32.665a5.49346,5.49346,0,0,1-1.97461,4.33789,7.47033,7.47033,0,0,1-5.0752,1.71191,12.20481,12.20481,0,0,1-6.45019-1.875l1.57519-2.52441a10.12084,10.12084,0,0,0,4.875,1.375,4.69142,4.69142,0,0,0,3.04981-.86329,2.689,2.689,0,0,0,1.125-2.1875,2.54229,2.54229,0,0,0-1.02442-2.21191,4.49686,4.49686,0,0,0-2.77539-.8623,9.64276,9.64276,0,0,0-3.59961.77441l-2.60058-.75.4248-7.9248H35.92656v2.9746h-8.375l-.15039,2.4502a11.77761,11.77761,0,0,1,3.22461-.47461,6.68746,6.68746,0,0,1,4.72559,1.71191A5.65643,5.65643,0,0,1,37.201,32.665Z" fill="url(#Beschriftung_schwarz)"/></g></svg>