<svg xmlns="http://www.w3.org/2000/svg" xmlns:xlink="http://www.w3.org/1999/xlink" viewBox="0 0 44 44"><defs><linearGradient id="Hintergrund_weiss" x1="1.9998" y1="29.69681" x2="42.0002" y2="29.69681" gradientUnits="userSpaceOnUse"><stop offset="0" stop-color="#fff"/></linearGradient><linearGradient id="Rahmen_schwarz" x1="2" y1="29.55" x2="42" y2="29.55" gradientUnits="userSpaceOnUse"><stop offset="0" stop-color="#010101"/></linearGradient><linearGradient id="Beschriftung_schwarz" x1="7.52715" y1="30.05265" x2="37.20195" y2="30.05265" xlink:href="#Rahmen_schwarz"/></defs><title>speedlimit_school_work_usa_can_85</title><g id="speedlimit_school_work_usa_can_85"><rect id="Hintergrund_weiss-2" data-name="Hintergrund_weiss" x="1.9998" y="17.39363" width="40.00039" height="24.60637" rx="2.2107" fill="url(#Hintergrund_weiss)"/><path id="Rahmen_schwarz-2" data-name="Rahmen_schwarz" d="M39.8,18.1A1.15536,1.15536,0,0,1,41,19.3V39.8A1.15536,1.15536,0,0,1,39.8,41H4.2A1.15536,1.15536,0,0,1,3,39.8V19.3a1.15536,1.15536,0,0,1,1.2-1.2H39.8m0-1H4.2A2.21953,2.21953,0,0,0,2,19.3V39.8A2.21953,2.21953,0,0,0,4.2,42H39.8A2.21953,2.21953,0,0,0,42,39.8V19.3a2.21953,2.21953,0,0,0-2.2-2.2Z" fill="url(#Rahmen_schwarz)" stroke-width="0.5px" stroke="url(#Rahmen_schwarz)"/><path id="Beschriftung_schwarz-2" data-name="Beschriftung_schwarz" d="M21.02715,33.06584a5.2448,5.2448,0,0,1-1.77442,4.14941,7.42465,7.42465,0,0,1-4.97558,1.5A7.41,7.41,0,0,1,9.365,37.17814a5.08773,5.08773,0,0,1-1.83789-4.1123,4.30826,4.30826,0,0,1,1.95019-3.9502,3.872,3.872,0,0,1-1.4248-3.15039,3.91241,3.91241,0,0,1,1.72461-3.32519,7.495,7.495,0,0,1,4.5-1.25,7.47135,7.47135,0,0,1,4.52539,1.25,3.93018,3.93018,0,0,1,1.70019,3.32519,3.62306,3.62306,0,0,1-1.40039,3.10059A4.44666,4.44666,0,0,1,21.02715,33.06584Zm-2.97461.07422q.0249-2.54883-3.77539-2.59961-3.7251.0249-3.75,2.59961,0,2.625,3.77539,2.75Q17.95147,35.81534,18.05254,33.14006Zm-.54981-7.29981q0-1.69922-3.25-1.75-3.20068.05127-3.20019,1.75,0,1.75048,3.25,1.79981Q17.50176,27.59025,17.50273,25.84025Zm19.69922,6.8252a5.49341,5.49341,0,0,1-1.97461,4.33789,7.47031,7.47031,0,0,1-5.07519,1.71191,12.20486,12.20486,0,0,1-6.4502-1.875l1.5752-2.52441a10.12078,10.12078,0,0,0,4.875,1.375,4.69145,4.69145,0,0,0,3.0498-.86328,2.689,2.689,0,0,0,1.125-2.1875,2.54227,2.54227,0,0,0-1.02441-2.21192,4.49688,4.49688,0,0,0-2.77539-.8623,9.64272,9.64272,0,0,0-3.59961.77441l-2.60059-.75.42481-7.9248H35.92754v2.97461h-8.375l-.15039,2.45019a11.77755,11.77755,0,0,1,3.22461-.47461,6.6874,6.6874,0,0,1,4.72558,1.71192A5.6564,5.6564,0,0,1,37.20195,32.66545Z" fill="url(#Beschriftung_schwarz)"/></g></svg>