<svg xmlns="http://www.w3.org/2000/svg" viewBox="0 0 44 44"><defs><style>.cls-1{fill:#010101;}.cls-1,.cls-2{fill-rule:evenodd;}.cls-2,.cls-4{fill:#00f300;}.cls-3{opacity:0.99;}</style></defs><g id="d0_t5_cc-bel_1p0_2p1014_1s1"><path id="path5901" class="cls-1" d="M18.28092,9.83727l-4.9518,2.85883,5.3713,9.30337-5.467,9.469,4.95163,2.85867L22.00161,27.717l3.79084,6.56608,4.95163-2.85883L25.30266,21.9993,30.71429,12.626,25.76267,9.76733l-3.76106,6.51413L18.28092,9.8371Z"/><path id="path5903" class="cls-2" d="M30.23858,41.98928l4.95-2.8578-4.763-8.24975L25.482,33.75045Z"/><path id="path5905" class="cls-2" d="M18.52128,33.74266l-4.95-2.8578-4.763,8.24976,4.95,2.85779Z"/><path id="path5907" class="cls-2" d="M13.56794,13.11527l4.95021-2.8578L13.755,2.00759,8.81138,4.87648Z"/><path id="path5909" class="cls-2" d="M35.19175,4.86869l-4.94987-2.8578-4.76316,8.24959,4.95,2.85779C32.08539,10.24841,33.77377,7.32478,35.19175,4.86869Z"/><g class="cls-3"><path class="cls-4" d="M13.755,2.00764l4.52191,7.832.004-.00232V9.83711l3.7207,6.44439,3.76105-6.51416.00061.00037,4.47864-7.75678,4.94982,2.85779c-1.33685,2.31562-2.914,5.04669-4.47845,7.75672l.001.00061L25.3027,21.99934l5.4414,9.42492-.004.00226,4.44848,7.705-4.95007,2.85779L25.482,33.7505l.00219-.00128L22.00161,27.717,18.18508,34.3271l-.00091-.00055-4.42591,7.66589-4.95-2.85779,4.42584-7.66583-.00067-.00037,5.467-9.46893L13.57034,13.1139l-.00238.0014L8.81136,4.87654,13.755,2.00764m.18243-.684-.43341.25153-4.9436,2.8689-.43146.2504.24945.43205L13.135,13.3653l.252.43655.00238-.0014,4.7337,8.19906-5.32263,9.21894L8.37521,38.88469l-.24994.433.433.25,4.95,2.85779.433.25.24994-.433,4.17376-7.2291.253-.43623L22.00161,28.717l2.80115,4.8519.24621.4316,4.75653,8.23883.25.433.43305-.25,4.95007-2.85779.43305-.25-.25007-.433-4.197-7.26936h0l-.24755-.43792L25.88,21.99934l5.26733-9.12329.24823-.43-.001-.00061,2.38092-4.12391,1.84924-3.20277.24994-.433-.433-.25L30.49191,1.57792l-.433-.25-.25.433L25.33028,9.5177l-3.32861,5.76389L18.71389,9.58711l-.2583-.44744-.004.0025L14.188,1.75763l-.25055-.434Z"/></g></g></svg>