<svg xmlns="http://www.w3.org/2000/svg" viewBox="0 0 40 40"><g id="EA45_flag_eritrea"><rect y="7" width="40" height="26" fill="#ea0437" /><path d="M0,33H40V20" fill="#4189dd" /><path d="M0,7H40V20" fill="#12ad2b" /><path d="M9.09885,25.75706a1.01129,1.01129,0,0,0-.81134.92862l2.56227-.01029a1.008,1.008,0,0,0-.82663-.93724c2.50868-.05183,4.68806-.99152,5.08408-1.59446-.39191-.17009-.845.10366-1.16807.04066.767-.35448,3.06479-1.84176,2.6912-3.43622a3.72723,3.72723,0,0,1-1.54479,1.81511c.85837-1.30338,2.03046-2.66035,1.01357-3.71114a1.586,1.586,0,0,1-.58061,1.32963c.49791-1.37715.973-3.10623-.10581-4.24608.14167.412.08445,1.57418-.11062,1.6264-.06006-.93645-.21986-2.90616-1.20608-2.87814a2.79237,2.79237,0,0,1,.45725,1.80864,2.79471,2.79471,0,0,0-1.0265-1.312,5.75292,5.75292,0,0,0-2.01477-2.053,2.15864,2.15864,0,0,0,1.02277,1.74358c-.44912-.02792-.89815-.87934-1.37813-.903-.38182-.01842-.68143.346-1.30534.13629.06907.20594.36016.29716.42159.44951-.13364.09229-.45088-.0144-.71464-.15176a1.498,1.498,0,0,0,1.40224.68671,2.519,2.519,0,0,1,1.75651.27884,3.07369,3.07369,0,0,1-1.09547.02929A1.37676,1.37676,0,0,0,12.769,15.96c.5227-.00343.79674-.27884.931-.10827a8.87093,8.87093,0,0,1,.82271,1.23411c-.60579.06692-.42316-.68515-1.09782-1.0698-.37907.78459.436,1.71468.99083,2.10129a3.11653,3.11653,0,0,0,.3438,1.53215,1.94045,1.94045,0,0,1,.30441,1.355,2.01275,2.01275,0,0,1-.5373-1.70537c-.41572.11336-.57826.84436-.38231,1.21235a1.25531,1.25531,0,0,1,.07525,1.05589c-.1645.22329-.18175.19831-.17959.67751a1.21024,1.21024,0,0,1-.41522.86228,1.72624,1.72624,0,0,0,.05623-.76695c-.20623.34987-.72365.71189-.88658,1.088-.16.377-.20056,1.03-.97486,1.18061a8.42147,8.42147,0,0,0-1.98088.63263c-.07113-.48684.14177-1.50207.54886-1.44416.39749.07074,1.60259-.41523,1.1715-1.43045a.8473.8473,0,0,1-.67623.646c.33175-.43041.92381-.8761.63547-1.5973a2.06688,2.06688,0,0,1-.79468.88149c.40983-.78538.04762-1.02033-.439-.37349a3.89823,3.89823,0,0,0-.4116,1.3847c-.19115-.51653-.17851-1.19649-.405-1.74858-.23661-.59707.314-.75471.57316-.7068.63449.1694,1.69488.1693,1.61611-.87894a1.18916,1.18916,0,0,1-1.27359.33645c.58286-.42561,1.04306-1.22617.39357-1.64414a1.50656,1.50656,0,0,1-.82261,1.16905,2.46071,2.46071,0,0,1-.01528-1.206,3.49024,3.49024,0,0,0-.591,1.46582,4.887,4.887,0,0,1,.19615-1.42124c.13383-.49448.46646-.17273.97564-.13628.49037.02782,1.16553-.24318,1.03649-.90814a.9074.9074,0,0,1-.86229.33762c.42277-.25611,1.15935-.7112.7554-1.41124-.1697.26512-.22466.49193-.71582.57325.12865-.29588.15-.71424.53123-.88-.68005-.1354-1.06941.31088-1.26732,1.00984A9.93251,9.93251,0,0,1,9.803,16.24143a.80518.80518,0,0,0-.38975-1.38558,1.70014,1.70014,0,0,0,.05732.84563,1.07506,1.07506,0,0,0-1.25066-.03056.90325.90325,0,0,0,1.17169.20242c-.13383.43785-.48194.3629-.96026.19595a.9359.9359,0,0,0,1.06853.58344c.21319.56209.2226.98917-.40043,1.80776a1.4821,1.4821,0,0,0-.4115-1.299c-.34635-.33919-.62783.0145-.08661.76863a2.315,2.315,0,0,1-.81183-1.22324,2.23986,2.23986,0,0,0,.32479,1.72115c-.15872.1696-.33919-.018-.60618-.433.101,1.32787.66751,1.58408,1.42888,1.28809.02166.72885.02166,1.40371.065,2.28412a3.6712,3.6712,0,0,0-1.32071-1.234c-.09739.35722.2707.82261.47635,1.08244a4.17385,4.17385,0,0,1-.99592-.58453c-.06859.59178.69651,1.14025,1.1908,1.38558A1.635,1.635,0,0,1,7.14,21.61061c.00725,1.64179,1.77885,1.35668,2.11089,1.1041.0433.8083.105,1.74269.14834,2.551-.50086-.0874-.46147-.238-.89-.27767-1.18943-.04634-2.13294-1.4278-2.44538-2.444-.08965.16725-.01852.34223-.10053.54769a4.173,4.173,0,0,0-.77068-1.4428,3.28022,3.28022,0,0,1,.06388,1.12976,2.3228,2.3228,0,0,1-.22681-.87345c.00725-.31735.30617-.55151.28962-.99789-.01225-.32587-.30951-1.03218-.35321-1.579a6.066,6.066,0,0,1-.4547,1.50442,6.28762,6.28762,0,0,1,.25973-1.42016A1.57815,1.57815,0,0,0,5.0247,18.177c-.13667.166-.08965.31675-.433.72-.07459-.43854.444-1.14044.94732-1.42261.355-.187.80242-.856.51094-1.31454a7.07654,7.07654,0,0,0-.95526,1.11712A2.04764,2.04764,0,0,1,7.35124,15.6136c.23152-.00108.69828-.08465.82927-.391a1.7589,1.7589,0,0,1-.95389.06623c.22583-.33155.70141-.28844,1.14455-.2904a1.10957,1.10957,0,0,0,1.10968-.54387,2.47085,2.47085,0,0,1-1.50178.09181c.66222-.34312,1.69949-.38005,2.2315-.83035-.60637-.45255-2.12372.10542-3.08213.76274a6.65266,6.65266,0,0,0,.9248-1.03022c-.52417-.2513-1.84979,1.21726-2.30645,2.08983a2.19249,2.19249,0,0,0-.77568.89688c.23113-.781.25562-1.34766.44844-1.99078-1.48683.51183-.86882,3.259-1.19223,3.9162a4.2823,4.2823,0,0,0-.29149-2.13842c-.458.34938-.49492,2.4057-.065,4.11763a8.59239,8.59239,0,0,1-.54233-1.44338c-.67778,1.23617.39732,2.69454,1.29632,3.84654A5.71438,5.71438,0,0,1,2.83933,20.9966c.12132,2.21249,2.43178,2.6722,2.79047,3.216-.48684-.22661-1.41757-.675-1.81251-.20516a4.80037,4.80037,0,0,1,1.569.5909c.59962.74863,1.73506,1.07607,3.71251,1.15876Z" fill="#ffc726" /></g></svg>