<svg xmlns="http://www.w3.org/2000/svg" viewBox="0 0 44 44"><title>icid-police_d0_m-nar</title><g id="icid-police_d0_m-nar"><g id="Bildmaterial_1" data-name="Bildmaterial 1"><path d="M22,41.8a1.60584,1.60584,0,0,1-1.1-.5L2.7,23.1a1.56944,1.56944,0,0,1,0-2.2L20.9,2.7a1.46,1.46,0,0,1,2.2,0L41.3,20.9a1.56944,1.56944,0,0,1,0,2.2L23.1,41.3A1.60584,1.60584,0,0,1,22,41.8Z"/><path d="M22,2.5a.97479.97479,0,0,1,.9.4L41.1,21.1a1.22153,1.22153,0,0,1,.4.9,1.08577,1.08577,0,0,1-.4.9L22.9,41.1a1.22153,1.22153,0,0,1-.9.4,1.08577,1.08577,0,0,1-.9-.4L2.9,22.9a1.39083,1.39083,0,0,1,0-1.9L21.1,2.9a.97479.97479,0,0,1,.9-.4M22,2a2.10617,2.10617,0,0,0-1.3.5L2.5,20.7a1.872,1.872,0,0,0,0,2.6L20.7,41.5A1.65586,1.65586,0,0,0,22,42a2.10617,2.10617,0,0,0,1.3-.5L41.5,23.3a1.872,1.872,0,0,0,0-2.6L23.3,2.5A2.10617,2.10617,0,0,0,22,2Z" fill="#ffc600"/><path d="M21.8,40.4,3.6,22.2a.44637.44637,0,0,1,0-.5L21.8,3.6a.44637.44637,0,0,1,.5,0L40.5,21.8a.44637.44637,0,0,1,0,.5L22.2,40.4A.30417.30417,0,0,1,21.8,40.4Z" fill="#ffc600"/></g><path d="M23.301,26.22224c-.19617,1.192-.3852,2.34618-.57631,3.50007q-.26853,1.62134-.54031,3.24215c-.02933.17625-.06326.35217-.08188.52962-.01624.15478-.07962.20932-.24352.20932l-.57233-.00007c-.17557,0-.21735-.0623-.217-.22131.00185-.86784-.002-1.7357-.00678-2.60353q-.01613-2.90684-.03534-5.81364c-.00989-1.46346-.02517-2.92689-.03045-4.39035-.00053-.14558-.0458-.20469-.18389-.23118q-2.34582-.45-4.69039-.90643c-.24917-.04822-.49828-.097-.74808-.14174a.14874.14874,0,0,1-.14581-.17276c.00673-.2486.00588-.49759.00047-.74626-.00242-.11152.03714-.16111.15034-.15187.05746.00469.11565.00049.1735.00049,3.14742,0,6.29489-.0094,9.44219.0101a8.059,8.059,0,0,1,1.41508.219q1.17356.22117,2.34168.4705c.16139.03443.22149-.00074.27073-.15489.14761-.46214.31634-.91749.46817-1.37834.04162-.12634.08942-.17935.23387-.14257.23982.06108.48511.10139.72895.14575.13177.024.12793.10234.10246.205-.22226.89632-.4413,1.79343-.6633,2.68981-.0953.38478-.09787.39028-.49458.36222-.91515-.06474-1.82974-.13721-2.74475-.20385-.38568-.02808-.77205-.04663-1.15768-.07526-.13127-.00975-.17654.03955-.16681.16826.0335.4431.06263.88653.09165,1.33.02865.43789.05418.876.08284,1.31386.0426.65076.08735,1.30137.13,1.95213.02681.40906.05078.8183.07726,1.22738.04361.67391.08956,1.34767.13193,2.02165.02826.44948.04937.89941.07846,1.34883.04063.62776.08707,1.25514.12844,1.88285.02849.43212.0525.86454.07875,1.2968.0112.1844.0201.369.03562.553.00989.11724-.04511.15034-.15261.15034-.22747,0-.44639-.01242-.67584-.01242a.21162.21162,0,0,1-.23674-.18113c-.254-1.05495-.5135-2.10858-.77119-3.16264q-.49133-2.00971-.9829-4.01938C23.33808,26.31405,23.32529,26.28779,23.301,26.22224Z"/><path d="M20.70717,15.46563a2.19374,2.19374,0,1,1,2.17122,2.19584A2.18233,2.18233,0,0,1,20.70717,15.46563Z"/><path d="M14.8376,24.56691l-1.78742-.04385a.85008.85008,0,0,1-.317-.06974,6.88151,6.88151,0,0,0-.99391-.43031,5.76731,5.76731,0,0,0-.90781.00045V18.27767H14.8376Z"/></g></svg>