<svg xmlns="http://www.w3.org/2000/svg" viewBox="0 0 44 44"><title>icid-fallingrocks_d0_m-nar</title><g id="icid-fallingrocks_d0_m-nar"><path d="M22,41.8a1.60584,1.60584,0,0,1-1.1-.5L2.7,23.1a1.56944,1.56944,0,0,1,0-2.2L20.9,2.7a1.46,1.46,0,0,1,2.2,0L41.3,20.9a1.56944,1.56944,0,0,1,0,2.2L23.1,41.3A1.60584,1.60584,0,0,1,22,41.8Z"/><path d="M22,2.5a.97479.97479,0,0,1,.9.4L41.1,21.1a1.22153,1.22153,0,0,1,.4.9,1.08577,1.08577,0,0,1-.4.9L22.9,41.1a1.22153,1.22153,0,0,1-.9.4,1.08577,1.08577,0,0,1-.9-.4L2.9,22.9a1.39083,1.39083,0,0,1,0-1.9L21.1,2.9a.97479.97479,0,0,1,.9-.4M22,2a2.10617,2.10617,0,0,0-1.3.5L2.5,20.7a1.872,1.872,0,0,0,0,2.6L20.7,41.5A1.65586,1.65586,0,0,0,22,42a2.10617,2.10617,0,0,0,1.3-.5L41.5,23.3a1.872,1.872,0,0,0,0-2.6L23.3,2.5A2.10617,2.10617,0,0,0,22,2Z" fill="#ffc600"/><path d="M21.8,40.4,3.6,22.2a.44637.44637,0,0,1,0-.5L21.8,3.6a.44637.44637,0,0,1,.5,0L40.5,21.8a.44637.44637,0,0,1,0,.5L22.2,40.4A.30417.30417,0,0,1,21.8,40.4Z" fill="#ffc600"/><g style="isolation:isolate"><path d="M12.772,17.57275H10.5786v1.167h1.37988v.76416H10.5786V21.5625h-.75V16.82275H12.772Z"/><path d="M17.26414,21.5625h-.792l-.4668-1.33008H14.52684l-.46778,1.33008h-.79882l1.627-4.73975h.75Zm-1.52832-2.09424L15.269,18.13867l-.48047,1.32959Z"/><path d="M20.69481,21.5625H17.75145V16.82275h.75v3.97559h2.19336Z"/><path d="M24.33836,21.5625H21.395V16.82275h.75v3.97559h2.19336Z"/><path d="M26.0366,21.5625H25.272V16.82275h.76464Z"/><path d="M30.21043,21.5625h-.665l-1.81152-3.21191V21.5625h-.75V16.82275h.75l1.72656,3.02784V16.82275h.75Z"/><path d="M32.61473,20.89062q.6372-.01464.75683-.87744h-.72851V19.2207h1.585v.20557a2.74285,2.74285,0,0,1-.43555,1.65869,1.3769,1.3769,0,0,1-1.15625.5625,1.50942,1.50942,0,0,1-1.30566-.65088,3.11656,3.11656,0,0,1-.44922-1.8042,3.11594,3.11594,0,0,1,.44922-1.80371,1.47233,1.47233,0,0,1,1.28418-.644,1.538,1.538,0,0,1,1.457.89844l-.7002.34668a.7992.7992,0,0,0-.75683-.49512.75366.75366,0,0,0-.72168.4707,2.85139,2.85139,0,0,0-.22656,1.227,2.85219,2.85219,0,0,0,.22656,1.22754A.75364.75364,0,0,0,32.61473,20.89062Z"/></g><g style="isolation:isolate"><path d="M15.96922,30.26855h-.84766L14.32664,28.126H13.3911v2.14257h-.78028V25.335H14.562a1.18383,1.18383,0,0,1,.95411.4375,1.4681,1.4681,0,0,1,.34961.94629,1.39574,1.39574,0,0,1-.21387.74023,1.25546,1.25546,0,0,1-.55176.50489Zm-.877-3.52734a.56037.56037,0,0,0-.17285-.44141.596.596,0,0,0-.38672-.1621H13.3911v1.21484H14.562a.49974.49974,0,0,0,.376-.16211A.62712.62712,0,0,0,15.09227,26.74121Z"/><path d="M18.40574,30.35645a1.53807,1.53807,0,0,1-1.33593-.65821,3.25643,3.25643,0,0,1-.46778-1.89648,3.24672,3.24672,0,0,1,.46778-1.87793,1.67577,1.67577,0,0,1,2.68066,0,3.28682,3.28682,0,0,1,.46,1.87793,3.29676,3.29676,0,0,1-.46,1.89648A1.53636,1.53636,0,0,1,18.40574,30.35645Zm0-4.32227a.78438.78438,0,0,0-.751.49023,3.61775,3.61775,0,0,0-.01074,2.58106.78107.78107,0,0,0,.76171.44141.8061.8061,0,0,0,.77344-.46387,3.24009,3.24009,0,0,0,.22852-1.2959,2.94,2.94,0,0,0-.24707-1.27441A.84694.84694,0,0,0,18.40574,26.03418Z"/><path d="M22.67723,29.56934a.82957.82957,0,0,0,.78711-.51563l.72949.36035a1.601,1.601,0,0,1-1.5166.93555,1.5322,1.5322,0,0,1-1.33692-.66992,3.25106,3.25106,0,0,1-.46777-1.87793,3.2468,3.2468,0,0,1,.46777-1.87793,1.5322,1.5322,0,0,1,1.33692-.66992,1.6017,1.6017,0,0,1,1.5166.93457l-.72949.36132a.82956.82956,0,0,0-.78711-.51562.78476.78476,0,0,0-.752.49023,3.58388,3.58388,0,0,0,0,2.55469A.78476.78476,0,0,0,22.67723,29.56934Z"/><path d="M28.34715,30.26855H27.4409l-1.24414-2.334-.51562.64063v1.69335h-.78028V25.335h.78028v1.959l1.55371-1.959H28.2368l-1.51758,1.92188Z"/><path d="M31.24949,26.4541a.7928.7928,0,0,0-.72949-.44238.68176.68176,0,0,0-.47851.17676.52855.52855,0,0,0-.1836.41992.40519.40519,0,0,0,.17285.31738,1.17028,1.17028,0,0,0,.54883.19824,2.19555,2.19555,0,0,1,1.292.60059,1.47924,1.47924,0,0,1,.40137,1.01953,1.5608,1.5608,0,0,1-.47851,1.123,1.60171,1.60171,0,0,1-1.19336.48926A1.8169,1.8169,0,0,1,28.91453,29.208l.74414-.375a1.06074,1.06074,0,0,0,.957.71387.81309.81309,0,0,0,.61132-.24708.80485.80485,0,0,0,.25782-.59277.64319.64319,0,0,0-.19825-.45215,1.29079,1.29079,0,0,0-.72949-.32031,2.07778,2.07778,0,0,1-1.083-.43164,1.00625,1.00625,0,0,1-.375-.78418,1.44413,1.44413,0,0,1,.38282-1.00488,1.32266,1.32266,0,0,1,1.05273-.46,1.50536,1.50536,0,0,1,1.37012.86914Z"/></g></g></svg>