<?xml version="1.0" encoding="UTF-8"?>
<svg id="Ebene_1" data-name="Ebene 1" xmlns="http://www.w3.org/2000/svg" viewBox="0 0 44 44">
  <defs>
    <style>
      .cls-1 {
        fill: #fff;
      }

      .cls-2 {
        fill: #010101;
      }
    </style>
  </defs>
  <g>
    <path class="cls-1" d="M7.99512,41.37475c-.75049-.00293-1.36621-.62012-1.37012-1.375V3.99682c.00391-.75146,.61963-1.36768,1.37305-1.37158h28.00684c.75,.00391,1.36621,.62061,1.37012,1.375V40.00268c-.00391,.75098-.61914,1.36719-1.37109,1.37207H7.99512Z"/>
    <path d="M36.00158,3.25c.41091,.00358,.74638,.34088,.74842,.74697l.00002,35.9998c-.00207,.41327-.33908,.75118-.74498,.75323l-28.0038,.00002c-.41218-.00207-.74919-.33998-.75124-.74699l-.00002-35.9998c.00207-.41327,.33908-.75118,.74498-.75323h28.00662m.00347-1.25h0Zm0,0H7.99496c-1.09949,.00552-1.98945,.89637-1.99496,1.99697V40.00303c.00551,1.1006,.89547,1.99145,1.99496,1.99697h28.01008c1.0995-.00552,1.98945-.89637,1.99496-1.99697V3.99697c-.00551-1.1006-.89546-1.99145-1.99496-1.99697h.00001Z"/>
  </g>
  <path class="cls-2" d="M21.2,10.70048c.09647-1.31401-.38139-2.60533-1.31-3.54-.43042-.34431-.98489-.49361-1.53-.412h-2.56v7.94h2.8c1.39-.00005,2.6-1.64,2.6-3.99v.002Zm-4.14,2.71v-5.4h1.41c1.27,0,1.46,1.78,1.46,2.69,0,1.09-.341,2.71-1.48,2.71,0,0-1.39,0-1.39,0Zm8.77,1.42c.74901,.04068,1.46903-.29458,1.92-.894,.61172-.95202,.91548-2.0693,.87-3.2,0-1.78-.529-4.13-2.73-4.13-.78452-.06573-1.54885,.27087-2.03,.894-.60996,.96391-.91331,2.09013-.87,3.23,.00084,.91958,.19327,1.8289,.565,2.67,.37347,.91615,1.29305,1.48888,2.28,1.42,0,0-.005,.01-.005,.01Zm-1.26-5.96c.13861-.60666,.69935-1.02127,1.32-.976,1.27,0,1.47,1.93,1.47,2.85-.00561,.61572-.10889,1.22665-.306,1.81-.271,.694-.635,1-1.22,1-.44864,.0245-.87047-.21453-1.08-.612-.34008-.68221-.50569-1.4381-.482-2.2-.00675-.63633,.09678-1.26901,.306-1.87l-.008-.002ZM13.87,25.97048h-1.26v-7.94h1.26l2.89,5.07v-5.07h1.25v7.94h-1.11l-3.03-5.38s0,5.38,0,5.38Zm10.9-.753c.61172-.95202,.91548-2.0693,.87-3.2,0-1.78-.529-4.13-2.73-4.13-.78452-.06573-1.54885,.27087-2.03,.894-.60996,.96391-.91331,2.09013-.87,3.23,.00084,.91958,.19327,1.8289,.565,2.67,.37347,.91615,1.29305,1.48888,2.28,1.42,.74901,.04068,1.46903-.29458,1.92-.894,0,0-.005,.01-.005,.01Zm-.694-1.39c-.27,.694-.635,1-1.22,1-.44864,.0245-.87047-.21453-1.08-.612-.34008-.68221-.50569-1.4381-.482-2.2-.00675-.63633,.09678-1.26901,.306-1.87,.13861-.60666,.69935-1.02127,1.32-.976,1.27,0,1.47,1.93,1.47,2.85-.00561,.61572-.10889,1.22665-.306,1.81,0,0-.008-.002-.008-.002Zm4.67,2.14v-6.82h-1.81v-1.12h4.9v1.12h-1.83v6.82h-1.26Zm-16.1,3.31h-3.01v7.94h1.26v-3.46h1.55c1.26636,.15477,2.4184-.74635,2.57317-2.0127,.01003-.08207,.01565-.16462,.01683-.2473-.02002-1.248-1.04795-2.24348-2.29595-2.22347-.03137,.0005-.06273,.00166-.09405,.00347Zm.0587,3.2h-1.81v-1.94h1.81c.53572-.0487,1.00948,.34611,1.05818,.88182,.0487,.53572-.34611,1.00948-.88182,1.05818-.05866,.00533-.11769,.00533-.17636,0Zm5.71-3.2l-2.73,7.94h1.34l.776-2.22h2.48l.776,2.22h1.34l-2.73-7.94s-1.252,0-1.252,0Zm-.165,4.43l.812-2.23,.776,2.23h-1.588Zm10.3,1.22c.02407,1.31422-1.02181,2.39911-2.33603,2.42318-.05801,.00106-.11604,0-.17397-.00318-1.28631-.00785-2.43505-.8068-2.89-2.01l1.2-.447c.26249,.707,.93585,1.17716,1.69,1.18,.63979,.03325,1.18539-.45845,1.21864-1.09824,.00141-.02723,.00187-.0545,.00136-.08176,0-1.06-1.22-1.22-2.26-1.63-.88478-.2593-1.50229-1.05842-1.53-1.98,0-1.56,1.06-2.15,2.48-2.15,1.02728-.01468,1.94399,.64242,2.26,1.62l-1.12,.329c-.22775-.44326-.69206-.71404-1.19-.694-.6,0-1.26,.188-1.21,.917,.118,1.47,3.85,.506,3.85,3.62,0,0,.01,.005,.01,.005Zm6.35,0c.02406,1.31422-1.02181,2.39911-2.33603,2.42318-.05801,.00106-.11604,0-.17397-.00318-1.28631-.00785-2.43505-.8068-2.89-2.01l1.2-.447c.26249,.707,.93585,1.17715,1.69,1.18,.63979,.03325,1.18539-.45845,1.21864-1.09824,.00142-.02723,.00187-.0545,.00136-.08176,0-1.06-1.22-1.22-2.26-1.63-.88478-.2593-1.50229-1.05842-1.53-1.98,0-1.56,1.06-2.15,2.48-2.15,1.02728-.01468,1.94398,.64242,2.26,1.62l-1.12,.329c-.22775-.44326-.69205-.71404-1.19-.694-.6,0-1.26,.188-1.21,.917,.118,1.47,3.85,.506,3.85,3.62,0,0,.01,.005,.01,.005Z"/>
</svg>