<?xml version="1.0" encoding="UTF-8"?>
<svg id="Ebene_1" data-name="Ebene 1" xmlns="http://www.w3.org/2000/svg" xmlns:xlink="http://www.w3.org/1999/xlink" viewBox="0 0 44 44">
  <defs>
    <style>
      .cls-1 {
        fill: #e52421;
      }

      .cls-2 {
        fill: #fff;
      }

      .cls-3 {
        fill: url(#Unbenannter_Verlauf_2);
        stroke: url(#Unbenannter_Verlauf_3);
        stroke-width: .5px;
      }

      .cls-4 {
        fill: none;
        stroke: #e52421;
        stroke-miterlimit: 10;
        stroke-width: 2.69841px;
      }

      .cls-5 {
        fill: #010101;
      }
    </style>
    <linearGradient id="Unbenannter_Verlauf_2" data-name="Unbenannter Verlauf 2" x1="1.99722" y1="23.27557" x2="42.00012" y2="23.27557" gradientTransform="translate(0 45.27557) scale(1 -1)" gradientUnits="userSpaceOnUse">
      <stop offset="0" stop-color="#010101"/>
      <stop offset="1" stop-color="#000"/>
    </linearGradient>
    <linearGradient id="Unbenannter_Verlauf_3" data-name="Unbenannter Verlauf 3" x1="2" y1="23.27557" x2="42" y2="23.27557" gradientTransform="translate(0 45.27557) scale(1 -1)" gradientUnits="userSpaceOnUse">
      <stop offset="0" stop-color="#010101"/>
      <stop offset="1" stop-color="#000"/>
    </linearGradient>
  </defs>
  <g id="speedlimit_usa_can_5" data-name="speedlimit usa can 5">
    <path id="Hintergrund_weiss-2" data-name="Hintergrund weiss-2" class="cls-2" d="M4.90109,41.54021H39.09809c1.34766,.00132,2.44123-1.0901,2.44256-2.43776V4.90241c.00021-1.34877-1.09301-2.44234-2.44178-2.44256H4.90109c-1.34862,.00044-2.4416,1.09394-2.44138,2.44256V39.09766c.00594,.84192,.43817,1.62346,1.14815,2.076,.39506,.22504,.83884,.35081,1.29323,.36653v.00002Z"/>
    <path id="Rahmen_schwarz-2" data-name="Rahmen schwarz-2" class="cls-3" d="M39.5,3h0c.3972,.02622,.77873,.16496,1.1,.4,.27641,.29761,.42068,.69436,.4,1.1V39.5c-.02002,.81999-.68001,1.47998-1.5,1.5H4.5c-.27816-.00677-.55138-.07507-.8-.2-.4181-.30502-.6755-.78304-.7-1.3V4.5c.02002-.81999,.68001-1.47998,1.5-1.5H39.5m0-1H4.5c-1.36724-.01348-2.48652,1.08396-2.5,2.4512-.00016,.01627-.00016,.03253,0,.0488V39.5c-.04347,.87405,.42491,1.6937,1.2,2.1,.40037,.2233,.84335,.3596,1.3,.4H39.5c1.36724,.01348,2.48652-1.08396,2.5-2.4512,.00016-.01627,.00016-.03254,0-.0488h0V4.5c-.02144-1.37173-1.12827-2.47856-2.5-2.5Z"/>
  </g>
  <path class="cls-1" d="M5,22c0,9.39048,7.60952,17,17,17,9.39048,0,17-7.60952,17-17S31.3545,5,22,5c-9.39047,0-17,7.60952-17,17Zm4,0c0-7.17786,5.82214-13,13-13,7.17786,0,13,5.82215,13,13,0,7.17786-5.82214,13-13,13-7.17786,0-13-5.82215-13-13Z"/>
  <path class="cls-5" d="M12.18498,24.42876c-.15974,.24867-.15118,.56972,.02159,.80952l4.36243,6.05344,4.36243-6.05344c.11474-.16076,.15835-.36162,.12062-.55549-.07593-.39008-.4537-.64478-.84379-.56885l-1.83492,.36429v-6.25132c0-1.98706,1.61083-3.59788,3.59788-3.59788s3.59788,1.61083,3.59788,3.59788v12.68254s3.59788,0,3.59788,0v-12.68254c0-3.97411-3.22165-7.19577-7.19577-7.19577s-7.19577,3.22165-7.19577,7.19577v6.25132s-1.83492-.36429-1.83492-.36429c-.2899-.05711-.58524,.06881-.74476,.31751,0,0-.01079-.0027-.01079-.0027Z"/>
  <line class="cls-4" x1="11.63529" y1="11.779" x2="32.36471" y2="32.41889"/>
  <line class="cls-4" x1="11.63529" y1="11.779" x2="32.36471" y2="32.41889"/>
</svg>