<?xml version="1.0" encoding="UTF-8"?>
<svg id="Ebene_1" data-name="Ebene 1" xmlns="http://www.w3.org/2000/svg" viewBox="0 0 44 44">
  <defs>
    <style>
      .cls-1 {
        fill: #fff;
      }
    </style>
  </defs>
  <g>
    <path class="cls-1" d="M7.70654,41.37475c-.8667,0-1.57178-.71582-1.57178-1.5957V4.22143c0-.88037,.70508-1.59619,1.57178-1.59619h28.60693c.86621,0,1.57129,.71582,1.57129,1.59619V39.77905c0,.87988-.70508,1.5957-1.57129,1.5957H7.70654Z"/>
    <path d="M36.31331,3.25024c.52201,0,.94669,.43564,.94669,.97111V39.77914c0,.53547-.42468,.9711-.94669,.9711H7.70668c-.522,0-.94668-.43563-.94668-.9711V4.22135c0-.53547,.42468-.97111,.94668-.97111h28.60663m0-1.25H7.70668c-1.21319,0-2.19668,.99442-2.19668,2.22111V39.77914c0,1.22668,.98349,2.2211,2.19668,2.2211h28.60663c1.2132,0,2.19669-.99442,2.19669-2.2211V4.22135c0-1.22669-.98349-2.22111-2.19669-2.22111h0Z"/>
  </g>
  <path d="M21.6,15.20024h-.939l-2.56-4.54v4.54h-1.06v-6.7h1.06l2.44,4.28v-4.28h1.06l-.001,6.7Zm3.46,.12c-.72066,.03552-1.40867-.3032-1.82-.896-.46926-.77167-.69087-1.66858-.635-2.57-.05175-.89472,.1697-1.78403,.635-2.55,.75846-1.00516,2.18816-1.20514,3.19332-.44668,.1689,.12745,.31923,.27778,.44668,.44668,.45947,.76804,.67724,1.65654,.625,2.55,.05569,.9001-.16219,1.79599-.625,2.57-.41003,.59431-1.09894,.93347-1.82,.896Zm0-5.87c-.44528-.01226-.85157,.25263-1.02,.665-.23209,.53951-.34467,1.12287-.33,1.71-.03338,.61291,.07438,1.22531,.315,1.79,.18906,.39598,.60256,.63454,1.04,.6,.44603,.02501,.86217-.22467,1.05-.63,.22291-.55921,.32843-1.15828,.31-1.76,.01866-.59443-.0958-1.18551-.335-1.73-.18941-.3924-.58432-.64406-1.02-.65l-.01,.005Zm-8.12,9.95h-1.22v5.8h-.97v-5.8h-1.22v-.9h3.41v.9Zm4.48,3.8c.01766,.40927-.07197,.81605-.26,1.18-.16681,.28051-.40307,.51332-.686,.676-.27505,.17029-.59151,.26194-.915,.265-.33211-.00176-.65782-.09147-.944-.26-.28918-.15972-.52943-.39513-.695-.681-.18716-.36426-.27674-.77081-.26-1.18v-4.7h.96v4.82c-.01379,.28031,.07911,.55543,.26,.77,.17212,.19318,.42144,.29951,.68,.29,.2478,.00615,.48449-.10278,.641-.295,.17357-.21613,.26244-.48809,.25-.765v-4.82h.97l-.001,4.7Zm4.65,2h-.99l-.89-3.15h-.92v3.15h-.96v-6.7h2c.47613-.02106,.93965,.15638,1.28,.49,.33149,.34943,.50626,.81886,.484,1.3,.00144,.34929-.09002,.69269-.265,.995-.15087,.28738-.40161,.50967-.705,.625l.966,3.29Zm-.939-4.94c.01145-.22545-.07623-.44464-.24-.6-.17389-.15162-.39952-.23042-.63-.22h-.99v1.65h.99c.22843,.00418,.44933-.08167,.615-.239,.166-.15119,.25891-.3665,.255-.591Zm5.63,4.94h-.931l-1.87-4.26v4.26h-.96v-6.7h.96l1.83,4.2v-4.2h.97l.001,6.7Zm-18.9,10.1c-.62923,.03196-1.21927-.30605-1.51-.865-.36787-.81511-.53258-1.70727-.48-2.6-.05135-.88942,.11334-1.77805,.48-2.59,.2896-.5605,.87988-.90021,1.51-.869,.63012-.03121,1.2204,.3085,1.51,.869,.36704,.81183,.53175,1.70056,.48,2.59,.05298,.89276-.11174,1.78501-.48,2.6-.29073,.55895-.88077,.89696-1.51,.865Zm0-.94c.37229,.00353,.69867-.24807,.79-.609,.18884-.62849,.26966-1.28447,.239-1.94,.03164-.64242-.04925-1.28543-.239-1.9-.12138-.4363-.57347-.6916-1.00977-.57023-.27687,.07702-.49321,.29336-.57023,.57023-.1907,.61438-.27193,1.2575-.24,1.9-.03092,.65561,.05024,1.31169,.24,1.94,.09101,.36114,.41759,.6129,.79,.609Zm6.53,.82h-.931l-1.87-4.26v4.26h-.96v-6.7h.96l1.83,4.2v-4.2h.97l.001,6.7Zm6.96,0h-.99l-.89-3.15h-.92v3.15h-.96v-6.7h2c.47613-.02106,.93965,.15638,1.28,.49,.33149,.34943,.50626,.81886,.484,1.3,.00144,.34929-.09002,.69269-.265,.995-.15087,.28738-.40161,.50967-.705,.625l.966,3.29Zm-.939-4.94c.01145-.22545-.07623-.44464-.24-.6-.17389-.15162-.39952-.23042-.63-.22h-.99v1.65h.99c.22843,.00418,.44933-.08167,.615-.239,.166-.15119,.25891-.3665,.255-.591Zm5.41,4.94h-3.41v-6.7h3.15v.94h-2.19v1.69h1.39v.92h-1.39v2.21h2.45v.94Zm4.72-3.35c.04892,.85867-.13232,1.71482-.525,2.48-.31317,.55659-.91187,.89071-1.55,.865h-1.66v-6.7h1.66c.63758-.0234,1.23516,.31009,1.55,.865,.39443,.76815,.57573,1.62799,.525,2.49Zm-.931-.0205c.04399-.63069-.06762-1.26254-.325-1.84-.15622-.33796-.49175-.55699-.864-.564h-.69v4.82h.69c.3721-.00749,.70741-.22637,.864-.564,.25827-.58426,.36983-1.22278,.325-1.86v.008Z"/>
</svg>