<?xml version="1.0" encoding="UTF-8"?>
<svg id="DIRECTION_ARROW" data-name="DIRECTION ARROW" xmlns="http://www.w3.org/2000/svg" xmlns:xlink="http://www.w3.org/1999/xlink" viewBox="0 0 170 170">
  <defs>
    <style>
      .cls-1 {
        fill: url(#OFA_gradient_arrow);
      }
    </style>
    <linearGradient id="OFA_gradient_arrow">
      <stop offset="0" stop-color="#14b9cd"/>
    </linearGradient>
  </defs>
  <path class="cls-1" d="m84.99585,83.19289c-2.56006,0-4.95996-.70996-7-1.95996-3.89014-2.35986-6.5-6.6499-6.5-11.54004,0-1.10986.12988-2.18994.37988-3.22021.6001-2.43945,1.86011-4.60986,3.58008-6.32959,2.68994-2.68994,2.72998-7.05029.1001-9.79004l-.21021-.20996-4.19995-4.2002-12.56006-12.56006,7.05005-7.0498h-24v24l7.05005-7.0498,12.56006,12.55957c-2.39014,4.07031-3.75,8.80029-3.75,13.8501,0,12.77002,8.70996,23.5,20.5,26.59033v73.71973h14v-79.81006c0-3.87012-3.13013-7-7-7Z"/>
</svg>