<?xml version="1.0" encoding="UTF-8"?>
<svg id="EXIT_NUMBER_IN_ROUNDABOUT" data-name="EXIT NUMBER IN ROUNDABOUT" xmlns="http://www.w3.org/2000/svg" viewBox="0 0 170 170">
  <defs>
    <style>
      .cls-1 {
        fill: #fff;
      }
    </style>
  </defs>
  <path class="cls-1" d="m80.75269,76.22091v-.97559l3.6167-3.59766c.75-.75293,1.35107-1.4082,1.8042-1.96582.45215-.55811.79297-1.08594,1.02148-1.58398.22852-.49756.34277-.99414.34277-1.48926,0-.52881-.10693-.98926-.3208-1.38086-.21387-.39209-.54053-.69678-.97998-.91455s-.99023-.32666-1.65234-.32666c-.59473,0-1.18311.06592-1.76465.19775s-1.12695.31201-1.63672.54053v-1.01074c.47754-.21533,1.01416-.38623,1.61035-.5127.59619-.12695,1.2124-.19043,1.84814-.19043.91406,0,1.6748.14062,2.28271.42188s1.06006.68652,1.35596,1.2168.44385,1.17139.44385,1.92383c0,.65332-.146,1.28516-.4375,1.896-.2915.61035-.68945,1.21094-1.19531,1.80078-.50488.59033-1.1665,1.27637-1.98389,2.05811l-3.02344,2.91699h7.16309v.97559h-8.49463Z"/>
</svg>