<?xml version="1.0" encoding="UTF-8"?>
<svg id="DIRECTION_ARROW" data-name="DIRECTION ARROW" xmlns="http://www.w3.org/2000/svg" xmlns:xlink="http://www.w3.org/1999/xlink" viewBox="0 0 170 170">
  <defs>
    <style>
      .cls-1 {
        fill: url(#OFA_gradient_arrow);
      }
    </style>
    <linearGradient id="OFA_gradient_arrow">
      <stop offset="0" stop-color="#14b9cd"/>
    </linearGradient>
  </defs>
  <path class="cls-1" d="m92.00071,43.08621v-20.68018h13.92993L85.00071,1.27615l-20.94019,21.12988h13.94019v26.78027c0,3.87012,3.12988,7,7,7,2.55981,0,4.95996.70996,7,1.95996,3.8999,2.35986,6.5,6.6499,6.5,11.54004,0,4.8999-2.6001,9.17969-6.5,11.5498-2.04004,1.24023-4.44019,1.9502-7,1.9502-3.87012,0-7,3.13965-7,7v79.80957h14v-73.70996c11.80005-3.08984,20.5-13.82959,20.5-26.59961,0-12.76025-8.69995-23.51025-20.5-26.6001Z"/>
</svg>