<?xml version="1.0" encoding="UTF-8"?>
<svg id="EXIT_NUMBER_IN_ROUNDABOUT" data-name="EXIT NUMBER IN ROUNDABOUT" xmlns="http://www.w3.org/2000/svg" viewBox="0 0 170 170">
  <defs>
    <style>
      .cls-1 {
        fill: #fff;
      }
    </style>
  </defs>
  <path class="cls-1" d="m88.92676,64.34884c-.46094-.11133-.9082-.19922-1.34375-.26367s-.87012-.09668-1.30371-.09668c-.99023,0-1.82129.19678-2.49121.59033s-1.18555.98926-1.54785,1.78662c-.36133.79785-.57617,1.8042-.64355,3.01953.50098-.37207,1.06836-.67529,1.70117-.90967.63379-.23438,1.30273-.35156,2.00977-.35156.9375,0,1.72852.17236,2.37207.51611.64355.34473,1.12598.82715,1.44629,1.44824.32129.62109.48145,1.34619.48145,2.17529,0,.73242-.16113,1.4126-.4834,2.0415-.32227.62793-.8125,1.13525-1.47168,1.52051s-1.4707.57764-2.43457.57764c-1.04883,0-1.93262-.22998-2.65039-.68994s-1.25977-1.14307-1.62598-2.0498-.54883-2.02832-.54883-3.36426c0-1.58203.21387-2.9126.6416-3.99219s1.07812-1.89844,1.95312-2.45703c.87402-.55762,1.97852-.83691,3.31152-.83691.4541,0,.91113.0332,1.37305.09912.46094.06641.87988.15234,1.25488.2583v.97852Zm-7.34766,6.0625c.01758,1.20264.17676,2.1748.47949,2.9165.30176.74121.71973,1.27686,1.25488,1.60596s1.1748.49365,1.91992.49365c.65332,0,1.21973-.12793,1.69922-.38379.47949-.25635.84766-.62109,1.10352-1.09521.25684-.47363.38477-1.02979.38477-1.66748,0-.64941-.11621-1.21191-.34961-1.6875-.23242-.4751-.58496-.84326-1.05469-1.10352-.4707-.26025-1.05371-.39062-1.74805-.39062-.64551,0-1.28809.11475-1.92871.34473-.64062.22949-1.22754.55176-1.76074.96729Z"/>
</svg>