<?xml version="1.0" encoding="UTF-8"?>
<svg id="DIRECTION_ARROW" data-name="DIRECTION ARROW" xmlns="http://www.w3.org/2000/svg" xmlns:xlink="http://www.w3.org/1999/xlink" viewBox="0 0 170 170">
  <defs>
    <style>
      .cls-1 {
        fill: url(#OFA_gradient_arrow);
      }
    </style>
    <linearGradient id="OFA_gradient_arrow">
      <stop offset="0" stop-color="#14b9cd"/>
    </linearGradient>
  </defs>
  <path class="cls-1" d="m84.99585,42.18631c-5.05005,0-9.78003,1.35986-13.8501,3.75l-12.56006-12.56006,7.05005-7.05029h-24v24l7.05005-7.0498,16.87012,16.87012c2.72998,2.72998,7.16992,2.72998,9.8999,0,1.70996-1.72021,3.87988-2.97998,6.31982-3.58008,1.03027-.25,2.11011-.37988,3.22021-.37988,7.45996,0,13.5,6.0498,13.5,13.5,0,4.8999-2.61011,9.18994-6.5,11.55957-2.04004,1.23047-4.43994,1.94043-7,1.94043-3.86011,0-7,3.13965-7,7v79.80957h14v-73.71973c11.7998-3.08984,20.5-13.81982,20.5-26.58984,0-15.18018-12.31006-27.5-27.5-27.5Z"/>
</svg>