<svg id="arrows_clockwise" data-name="arrows clockwise" xmlns="http://www.w3.org/2000/svg" xmlns:xlink="http://www.w3.org/1999/xlink" viewBox="0 0 400 450"><defs><style>.cls-1{fill:url(#direction_arrow);}</style><linearGradient id="direction_arrow" x1="79.28021" y1="322.99726" x2="293.43848" y2="322.99726" gradientTransform="matrix(-1, 0, 0, 1, 400, 0)" gradientUnits="userSpaceOnUse"><stop offset="0" stop-color="#14b9cd"/></linearGradient></defs><path id="icons_default_icid-c-roundabout-sharp-right_1s0_2s1.svg" data-name="icons\default\icid-c-roundabout-sharp-right_1s0_2s1.svg" class="cls-1" d="M204.27594,206.0722c49.38684,1.91285,89.15778,42.37781,90.26117,91.78937a93.466,93.466,0,0,1-12.96283,49.77161L302.8006,368.8595l17.91919-17.91913-15.81092,53.96844-53.9685,15.811,17.91913-17.91913L232.78064,366.7218a24.01381,24.01381,0,0,1,.13141-34.06183,45.98871,45.98871,0,1,0-78.35016-32.84478c-.10053,25.40344,21.35876,46.185,46.76239,46.185h.00006A22.67564,22.67564,0,0,1,224,368.67584v71.31849H176V390.73816a94.00275,94.00275,0,0,1,28.27594-184.666Z"/></svg>