<svg id="arrows_clockwise" data-name="arrows clockwise" xmlns="http://www.w3.org/2000/svg" xmlns:xlink="http://www.w3.org/1999/xlink" viewBox="0 0 400 450"><defs><style>.cls-1{fill:url(#direction_arrow);}</style><linearGradient id="direction_arrow" x1="133" y1="231.49717" x2="293.43848" y2="231.49717" gradientTransform="matrix(-1, 0, 0, 1, 400, 0)" gradientUnits="userSpaceOnUse"><stop offset="0" stop-color="#14b9cd"/></linearGradient></defs><path id="icons_default_icid-c-roundabout-straight_1s0_2s1.svg" data-name="icons\default\icid-c-roundabout-straight_1s0_2s1.svg" class="cls-1" d="M175.99982,209.26227,176,209.262V129H133L200,23l67,106H224V230.01038a23.92655,23.92655,0,0,1-23.68732,23.99047q-.6676.00357-1.33941.02631a46.00022,46.00022,0,0,0,1.58777,91.973q.12836,0,.25653-.00073A22.84456,22.84456,0,0,1,224,368.728v71.26612l-.00024.00024H176.00024L176,439.99409V390.73834l-.00018-.00024a94.00465,94.00465,0,0,1,0-181.47583Z"/></svg>