<?xml version="1.0" encoding="UTF-8"?>
<svg id="DIRECTION_ARROW" data-name="DIRECTION ARROW" xmlns="http://www.w3.org/2000/svg" xmlns:xlink="http://www.w3.org/1999/xlink" viewBox="0 0 170 170">
  <defs>
    <style>
      .cls-1 {
        fill: url(#OFA_gradient_arrow);
      }
    </style>
    <linearGradient id="OFA_gradient_arrow">
      <stop offset="0" stop-color="#14b9cd"/>
    </linearGradient>
  </defs>
  <path class="cls-1" d="m84.99615,42.18631c-15.17993,0-27.5,12.31982-27.5,27.5,0,5.0498,1.35986,9.77979,3.75,13.84961l-7.17993,7.18018-5.9502-5.94971v21.7998h21.80005l-5.94995-5.9502s11.56006-11.5498,11.58984-11.58984c2.63013-2.72998,2.59009-7.1001-.09985-9.79004-1.71997-1.71973-2.97998-3.89014-3.58008-6.33008-.25-1.02979-.37988-2.10986-.37988-3.21973,0-7.4502,6.05005-13.5,13.5-13.5,7.45996,0,13.5,6.0498,13.5,13.5,0,4.8999-2.6001,9.17969-6.5,11.5498-2.04004,1.24023-4.44019,1.9502-7,1.9502-3.86011,0-7,3.13965-7,7v79.80957h14v-73.70996c11.80005-3.08984,20.5-13.82959,20.5-26.59961,0-15.18018-12.31006-27.5-27.5-27.5Z"/>
</svg>