<svg id="arrows_clockwise" data-name="arrows clockwise" xmlns="http://www.w3.org/2000/svg" xmlns:xlink="http://www.w3.org/1999/xlink" viewBox="0 0 400 450"><defs><style>.cls-1{fill:url(#direction_arrow);}</style><linearGradient id="direction_arrow" x1="23.25293" y1="281.62363" x2="293.43848" y2="281.62363" gradientTransform="matrix(-1, 0, 0, 1, 400, 0)" gradientUnits="userSpaceOnUse"><stop offset="0" stop-color="#14b9cd"/></linearGradient></defs><path id="icons_default_icid-c-roundabout-slight-right_1s0_2s1.svg" data-name="icons\default\icid-c-roundabout-slight-right_1s0_2s1.svg" class="cls-1" d="M106.67816,295.27136a93.95633,93.95633,0,0,1,140.80206-76.69269l44.33149-44.33148L269.40662,151.842l107.34045-28.58911L348.1579,230.59338l-22.40509-22.40509L266.7251,267.21594a23.97591,23.97591,0,0,1-33.8183.11231A45.99061,45.99061,0,1,0,200.561,346.00018q.12844,0,.25665-.00073A22.84294,22.84294,0,0,1,224,368.72583v71.2685H176V390.73816A94.14563,94.14563,0,0,1,106.67816,295.27136Z"/></svg>