<svg id="arrows_counterclockwise_Kopie" data-name="arrows counterclockwise Kopie" xmlns="http://www.w3.org/2000/svg" xmlns:xlink="http://www.w3.org/1999/xlink" viewBox="0 0 400 450"><defs><style>.cls-1{fill:url(#direction_arrow);}</style><linearGradient id="direction_arrow" x1="23.25293" y1="281.62363" x2="293.43848" y2="281.62363" gradientUnits="userSpaceOnUse"><stop offset="0" stop-color="#14b9cd"/></linearGradient></defs><path id="icons_default_icid-roundabout-slight-left_1s0_2s1.svg" data-name="icons\default\icid-roundabout-slight-left_1s0_2s1.svg" class="cls-1" d="M293.32184,295.27136a93.95633,93.95633,0,0,0-140.80206-76.69269l-44.33149-44.33148L130.59338,151.842,23.25293,123.25293,51.8421,230.59338l22.40509-22.40509,59.02771,59.02765a23.97591,23.97591,0,0,0,33.8183.11231A45.99061,45.99061,0,1,1,199.439,346.00018q-.12844,0-.25665-.00073A22.84294,22.84294,0,0,0,176,368.72583v71.2685h48V390.73816A94.14563,94.14563,0,0,0,293.32184,295.27136Z"/></svg>