<?xml version="1.0" encoding="UTF-8"?>
<svg id="DIRECTION_ARROW" data-name="DIRECTION ARROW" xmlns="http://www.w3.org/2000/svg" xmlns:xlink="http://www.w3.org/1999/xlink" viewBox="0 0 170 170">
  <defs>
    <style>
      .cls-1 {
        fill: url(#OFA_gradient_arrow);
      }
    </style>
    <linearGradient id="OFA_gradient_arrow">
      <stop offset="0" stop-color="#14b9cd"/>    </linearGradient>
  </defs>
  <path class="cls-1" d="m111.40546,33.38284l-12.56006,12.56006c-4.06982-2.39014-8.7998-3.75-13.84985-3.75-15.17993,0-27.5,12.31006-27.5,27.5,0,12.77002,8.70996,23.5,20.5,26.59033v73.71973h14v-79.81006c0-3.87012-3.13013-7-7-7-2.56006,0-4.94995-.70996-7-1.95996-3.89014-2.35986-6.5-6.6499-6.5-11.54004,0-7.45996,6.05005-13.5,13.5-13.5,1.10986,0,2.18994.12988,3.21997.37988,2.43994.6001,4.60986,1.86035,6.33008,3.57031,2.72998,2.72998,7.16992,2.72998,9.8999,0l16.85986-16.85986,7.05005,7.0498v-24h-24l7.05005,7.0498Z"/>
</svg>