<?xml version="1.0" encoding="UTF-8"?>
<svg id="EXIT_NUMBER_IN_ROUNDABOUT" data-name="EXIT NUMBER IN ROUNDABOUT" xmlns="http://www.w3.org/2000/svg" viewBox="0 0 170 170">
  <defs>
    <style>
      .cls-1 {
        fill: #fff;
      }
    </style>
  </defs>
  <path class="cls-1" d="m80.87793,74.70431c.53027.20801,1.11426.38037,1.75195.51611.63672.13672,1.29492.20459,1.97461.20459.77637,0,1.41113-.11719,1.90332-.35107.49219-.23438.85254-.57129,1.08301-1.01025.22949-.43896.34473-.97461.34473-1.60742,0-.64111-.18652-1.16553-.55957-1.57422-.37402-.4082-.87012-.71875-1.48828-.93066-.61816-.2124-1.28711-.35791-2.00586-.43701-.71973-.0791-1.52832-.13037-2.42773-.15381l.23242-6.17432h6.86035v.97559h-5.84961l-.16211,4.2627c.80566.02637,1.5791.10107,2.32031.22412s1.43555.33057,2.08496.62158c.64844.29199,1.1748.70068,1.57812,1.22656.40234.52588.60352,1.17969.60352,1.96191s-.16406,1.46875-.49219,2.05859c-.32812.59082-.83203,1.05225-1.51172,1.38477-.67969.33203-1.5293.49854-2.54883.49854-.7002,0-1.36621-.06543-1.99902-.19678s-1.19727-.30127-1.69238-.51074v-.98877Z"/>
</svg>