<?xml version="1.0" encoding="UTF-8"?>
<svg id="EXIT_NUMBER_IN_ROUNDABOUT" data-name="EXIT NUMBER IN ROUNDABOUT" xmlns="http://www.w3.org/2000/svg" viewBox="0 0 170 170">
  <defs>
    <style>
      .cls-1 {
        fill: #fff;
      }
    </style>
  </defs>
  <path class="cls-1" d="m81.07305,75.06319c.45996.11133.9082.19922,1.34375.26367s.87012.09668,1.30371.09668c1.00195,0,1.84375-.20264,2.52344-.60791.68066-.40527,1.20312-1.03027,1.56836-1.87451.36426-.84473.56738-1.92432.6084-3.23926-.49805.38086-1.07031.69189-1.7168.93408-.64648.24121-1.30957.3623-1.98926.3623-.93848,0-1.73242-.17041-2.38086-.51172-.64941-.34131-1.13574-.81006-1.45801-1.40625s-.4834-1.27686-.4834-2.0415c0-.70605.16504-1.36572.49414-1.97998.33008-.61328.82422-1.1084,1.48535-1.48535.66016-.37598,1.46387-.56445,2.41016-.56445,1.04883,0,1.93262.22998,2.65039.68994s1.25977,1.14355,1.62598,2.05029.54883,2.02637.54883,3.35938c0,1.58203-.21387,2.91357-.6416,3.99463s-1.07812,1.90088-1.95312,2.4585c-.87402.55859-1.97852.8374-3.31152.8374-.45117,0-.90723-.03369-1.36816-.10156-.46191-.06787-.88184-.1543-1.25977-.26025v-.97412Zm7.34766-6.37012c-.04102-1.11182-.21191-2.01562-.51465-2.71191-.30176-.69629-.7168-1.20312-1.24414-1.52051s-1.15918-.47607-1.89551-.47607c-.64453,0-1.20703.12744-1.68848.38184-.48047.25439-.85059.61133-1.11035,1.0708-.25879.45898-.38867.9873-.38867,1.58398,0,.58789.11719,1.10742.35156,1.55762.23438.45068.58887.80371,1.06445,1.06006.47461.25586,1.05957.38379,1.75391.38379.61914,0,1.25195-.11768,1.90039-.35303.64746-.23584,1.23828-.56104,1.77148-.97656Z"/>
</svg>