<?xml version="1.0" encoding="UTF-8"?>
<svg id="DIRECTION_ARROW" data-name="DIRECTION ARROW" xmlns="http://www.w3.org/2000/svg" xmlns:xlink="http://www.w3.org/1999/xlink" viewBox="0 0 170 170">
  <defs>
    <style>
      .cls-1 {
        fill: url(#OFA_gradient_arrow);
      }
    </style>
    <linearGradient id="OFA_gradient_arrow">
      <stop offset="0" stop-color="#14b9cd"/>
    </linearGradient>
  </defs>
  <path class="cls-1" d="m85.00101,42.18631c-12.77002,0-23.5,8.70996-26.59009,20.5h-13.26001v-11.28027l-18.28003,18.28027,18.28003,18.27979v-11.27979h19.3501c3.86987,0,7-3.12988,7-7,0-2.56006.70996-4.9502,1.94995-7,2.36987-3.89014,6.6499-6.5,11.55005-6.5,7.44995,0,13.5,6.0498,13.5,13.5,0,4.8999-2.61011,9.17969-6.5,11.5498-2.04004,1.24023-4.43994,1.9502-7,1.9502-3.87012,0-7,3.13965-7,7v79.80957h14v-73.71973c11.7998-3.08984,20.5-13.81982,20.5-26.58984,0-15.18018-12.31006-27.5-27.5-27.5Z"/>
</svg>