<?xml version="1.0" encoding="UTF-8"?>
<svg id="EXIT_NUMBER_IN_ROUNDABOUT" data-name="EXIT NUMBER IN ROUNDABOUT" xmlns="http://www.w3.org/2000/svg" viewBox="0 0 170 170">
  <defs>
    <style>
      .cls-1 {
        fill: #fff;
      }
    </style>
  </defs>
  <path class="cls-1" d="m81.00518,74.72482c.50977.22266,1.03174.39551,1.56641.51855s1.14062.18457,1.81738.18457c.78809,0,1.43701-.12012,1.94678-.35986.50977-.24023.88232-.56934,1.11865-.98828.23535-.41846.35352-.9043.35352-1.45752,0-.5708-.11572-1.05273-.34717-1.44482s-.60352-.69287-1.11621-.90234-1.18213-.31396-2.0083-.31396h-1.06348v-.95361h1.00635c.60938,0,1.13232-.09961,1.56885-.29834.43652-.19922.77051-.48584,1.00195-.86084.23145-.37451.34717-.82227.34717-1.34375,0-.47998-.10986-.91016-.32959-1.29053s-.54346-.67969-.97119-.89795-.94189-.32715-1.54248-.32715c-.50391,0-1.02246.06738-1.55566.20215s-1.01074.31348-1.43262.53613v-.99316c.41602-.22705.8877-.40381,1.41504-.53076.52734-.12646,1.06348-.18994,1.6084-.18994.81738,0,1.52637.1377,2.12695.41309s1.06201.67236,1.38428,1.19092.4834,1.13525.4834,1.8501c0,.67969-.15918,1.2666-.47705,1.75977-.31787.49414-.77686.86084-1.37744,1.10107.84961.22559,1.47266.625,1.86963,1.19775s.5957,1.26611.5957,2.08057c0,.75879-.16895,1.42334-.50781,1.99268-.33789.57031-.85303,1.01318-1.54443,1.32959s-1.54834.47461-2.5708.47461c-.69141,0-1.31934-.05859-1.88281-.17578-.56445-.11719-1.05859-.28125-1.4834-.49219v-1.01074Z"/>
</svg>