<?xml version="1.0" encoding="UTF-8"?>
<svg id="EXIT_NUMBER_IN_ROUNDABOUT" data-name="EXIT NUMBER IN ROUNDABOUT" xmlns="http://www.w3.org/2000/svg" viewBox="0 0 170 170">
  <defs>
    <style>
      .cls-1 {
        fill: #fff;
      }
    </style>
  </defs>
  <path class="cls-1" d="m87.03467,69.39913c.82324.24902,1.46094.66016,1.91406,1.23291.45215.57324.67871,1.24805.67871,2.02441,0,.73291-.16504,1.37988-.49414,1.94092-.33008.56152-.8418,1.00244-1.53613,1.32324s-1.56641.48145-2.61523.48145c-1.05762,0-1.93066-.15918-2.61914-.47705s-1.19238-.75244-1.51172-1.30322c-.31934-.55127-.47852-1.18262-.47852-1.89502,0-.79395.22754-1.47607.68359-2.0459.45508-.57031,1.0918-.99756,1.90918-1.28174-.67969-.28418-1.19727-.68164-1.55371-1.19238-.35547-.51123-.53418-1.0918-.53418-1.74219,0-.71143.15723-1.32568.47266-1.84277.31445-.5166.7832-.91406,1.40625-1.19238.62207-.27832,1.38184-.41748,2.27832-.41748.9082,0,1.66895.13477,2.28125.4043s1.06934.65527,1.37109,1.15723c.30176.50244.45215,1.10205.45215,1.79883,0,.68262-.17969,1.28076-.53809,1.79492-.35938.51367-.88086.92432-1.56641,1.23193Zm1.40625,3.2915c0-.50928-.125-.97168-.37402-1.38721-.25-.41602-.63086-.74756-1.14453-.99463-.5127-.24756-1.14844-.37109-1.90527-.37109s-1.39453.12354-1.91406.37109c-.51855.24707-.90625.57861-1.16113.99463-.25586.41553-.38281.87793-.38281,1.38721,0,.55371.12402,1.03418.37109,1.44287.24805.4082.62793.72559,1.13965.95264.5127.22705,1.15527.34033,1.92969.34033.77734,0,1.42285-.11426,1.93652-.34229.5127-.22852.89258-.54785,1.1377-.95752.24414-.40967.36719-.88818.36719-1.43604Zm-.48828-6.27734c0-.51758-.11816-.95752-.35352-1.32031-.23633-.36279-.5752-.6377-1.01758-.82471s-.96973-.28076-1.58203-.28076c-.61523,0-1.14258.09424-1.58203.2832-.43945.18848-.77441.46484-1.00586.82861-.23145.36426-.34766.80225-.34766,1.31396,0,.5.11621.94238.34766,1.32715s.56934.68457,1.0127.89941c.44434.21484.97461.32227,1.59277.32227.46582,0,.88184-.06006,1.24805-.17969.36621-.12012.6748-.29248.92578-.51758.25-.22559.43945-.49463.56836-.80762.12891-.3125.19336-.66064.19336-1.04395Z"/>
</svg>