<svg xmlns="http://www.w3.org/2000/svg" xmlns:xlink="http://www.w3.org/1999/xlink" viewBox="0 0 50 50"><defs><linearGradient id="Hintergrund_weiss" x1="2.75" y1="25" x2="47.25" y2="25" gradientUnits="userSpaceOnUse"><stop offset="0" stop-color="#fff"/></linearGradient><linearGradient id="Rahmen_schwarz" x1="2" y1="25" x2="48" y2="25" gradientUnits="userSpaceOnUse"><stop offset="0" stop-color="#010101"/></linearGradient><linearGradient id="Beschriftung_schwarz" x1="20.23242" y1="33.36311" x2="31.40345" y2="33.36311" xlink:href="#Rahmen_schwarz"/><linearGradient id="Beschriftung_schwarz-2" x1="33.04559" y1="33.36322" x2="44.9532" y2="33.36322" xlink:href="#Rahmen_schwarz"/><linearGradient id="Beschriftung_schwarz-3" x1="5.17578" y1="33.36328" x2="17.89893" y2="33.36328" xlink:href="#Rahmen_schwarz"/><linearGradient id="Piktogrammkontur_schwarz" x1="5.25" y1="13" x2="18.75" y2="13" gradientUnits="userSpaceOnUse"><stop offset="0" stop-color="#010101"/>
</linearGradient><linearGradient id="Piktogrammkontur_schwarz-2" x1="13.95" x2="27.45" xlink:href="#Piktogrammkontur_schwarz"/><linearGradient id="Piktogrammkontur_schwarz-3" x1="22.55" x2="36.05" xlink:href="#Piktogrammkontur_schwarz"/><linearGradient id="Piktogrammkontur_schwarz-4" x1="31.25" x2="44.75" xlink:href="#Piktogrammkontur_schwarz"/></defs><g id="d0_t320_2s0"><rect x="2.75" y="2.75" width="44.5" height="44.5" rx="3" fill="url(#Hintergrund_weiss)"/><rect x="2.75" y="2.75" width="44.5" height="44.5" rx="3" fill="none" stroke-miterlimit="10" stroke-width="1.5" stroke="url(#Rahmen_schwarz)"/><path d="M20.23242,41.69043V25.03613h5.5293a8.99335,8.99335,0,0,1,1.76367.15918,5.77143,5.77143,0,0,1,1.41992.46973,4.20829,4.20829,0,0,1,1.08594.75781,4.10752,4.10752,0,0,1,.76758,1.02442,4.86551,4.86551,0,0,1,.45605,1.27246,7.174,7.174,0,0,1,.14844,1.49316,7.462,7.462,0,0,1-.14355,1.50195,4.86342,4.86342,0,0,1-.44434,1.27735,3.89764,3.89764,0,0,1-.77051,1.02832,4.14971,4.14971,0,0,1-1.125.75488,6.385,6.385,0,0,1-1.502.46875,10.1334,10.1334,0,0,1-1.90381.16309H22.398v6.2832Zm5.0625-8.00781a6.08988,6.08988,0,0,0,1.80567-.23242,2.95417,2.95417,0,0,0,1.20117-.67969,2.58891,2.58891,0,0,0,.66308-1.0918,4.8361,4.8361,0,0,0,.20606-1.46582,4.61192,4.61192,0,0,0-.20606-1.418,2.65652,2.65652,0,0,0-.65527-1.08691,3.00464,3.00464,0,0,0-1.16113-.69531,5.25563,5.25563,0,0,0-1.71875-.248H22.398v6.918Z" fill="url(#Beschriftung_schwarz)"/><path d="M44.95312,41.13965a8.97248,8.97248,0,0,1-.91406.3457,8.53,8.53,0,0,1-1.05176.26172,12.54075,12.54075,0,0,1-1.24511.16211q-.6753.05714-1.502.05664a8.40925,8.40925,0,0,1-2.084-.24707,6.54436,6.54436,0,0,1-1.7666-.73047,5.80188,5.80188,0,0,1-1.42285-1.207A6.85635,6.85635,0,0,1,33.918,38.09961a9.52859,9.52859,0,0,1-.64942-2.14746,14.19961,14.19961,0,0,1-.22265-2.60547,13.4734,13.4734,0,0,1,.208-2.42383,9.76986,9.76986,0,0,1,.61621-2.08887,7.37349,7.37349,0,0,1,1.01465-1.71A5.98426,5.98426,0,0,1,36.294,25.84473a6.502,6.502,0,0,1,1.79492-.80371,7.96274,7.96274,0,0,1,2.168-.28028q.65186,0,1.28808.06153a11.6274,11.6274,0,0,1,1.21485.17968,8.90065,8.90065,0,0,1,1.083.28907,5.593,5.593,0,0,1,.89161.38476v1.88086a7.00871,7.00871,0,0,0-.90821-.36426,9.4517,9.4517,0,0,0-1.05273-.27832,11.22055,11.22055,0,0,0-1.15528-.17676,12.004,12.004,0,0,0-1.2207-.0625,5.934,5.934,0,0,0-1.58594.2002,4.30669,4.30669,0,0,0-1.291.58887,4.18745,4.18745,0,0,0-.99611.96093,5.35585,5.35585,0,0,0-.70507,1.31055,8.17778,8.17778,0,0,0-.42188,1.64844,12.832,12.832,0,0,0-.14062,1.96289,11.874,11.874,0,0,0,.17675,2.14453,7.78486,7.78486,0,0,0,.50586,1.71,5.18539,5.18539,0,0,0,.7959,1.294,4.40251,4.40251,0,0,0,1.04981.90136,4.47884,4.47884,0,0,0,1.26562.52832,5.90766,5.90766,0,0,0,1.44238.1709q.731,0,1.3584-.05566c.418-.03809.8086-.08984,1.17285-.1582a9.08684,9.08684,0,0,0,1.02051-.2461q.47607-.14648.9082-.32617Z" fill="url(#Beschriftung_schwarz-2)"/><path d="M15.7334,41.69043v-7.625H7.34131v7.625H5.17578V25.03613H7.34131v7.249H15.7334v-7.249h2.16553v16.6543Z" fill="url(#Beschriftung_schwarz-3)"/><circle cx="12" cy="13" r="6" fill="none" stroke-miterlimit="10" stroke-width="1.5" stroke="url(#Piktogrammkontur_schwarz)"/><circle cx="20.7" cy="13" r="6" fill="none" stroke-miterlimit="10" stroke-width="1.5" stroke="url(#Piktogrammkontur_schwarz-2)"/><circle cx="29.3" cy="13" r="6" fill="none" stroke-miterlimit="10" stroke-width="1.5" stroke="url(#Piktogrammkontur_schwarz-3)"/><circle cx="38" cy="13" r="6" fill="none" stroke-miterlimit="10" stroke-width="1.5" stroke="url(#Piktogrammkontur_schwarz-4)"/></g></svg>