<svg xmlns="http://www.w3.org/2000/svg" viewBox="0 0 40 40"><defs><style>.cls-1{fill:#fff;}.cls-2{fill:none;stroke:#fff;stroke-miterlimit:10;stroke-width:1.2px;}</style></defs><g id="E167_ACA_LF_inactive"><polygon class="cls-1" points="3.429 11.935 3.429 11.336 1.176 11.336 1.349 12.334 3.256 12.334 3.429 11.935"/><polygon class="cls-1" points="19.246 11.935 19.246 11.336 21.499 11.336 21.326 12.334 19.419 12.334 19.246 11.935"/><rect class="cls-1" x="1.45714" y="14.34963" width="4.22087" height="1.04039"/><rect class="cls-1" x="16.96096" y="14.34963" width="4.22087" height="1.04039"/><line class="cls-2" x1="33.97101" y1="33.48" x2="31.10213" y2="33.48"/><line class="cls-2" x1="30.18977" y1="24.46908" x2="28.16116" y2="26.49768"/><line class="cls-2" x1="21.06104" y1="20.68783" x2="21.06104" y2="23.55671"/><line class="cls-2" x1="11.93231" y1="24.46908" x2="13.96092" y2="26.49768"/><line class="cls-2" x1="8.15106" y1="33.48" x2="11.01995" y2="33.48"/><path class="cls-1" d="M39.01355,18.07587,36.79471,15.7954,34.353,18.23452,33,16.84366V22h4.98965l-1.43229-1.47055Z"/><path class="cls-1" d="M21.06864,35.13332a1.55868,1.55868,0,0,1-1.09711-.45719,1.51092,1.51092,0,0,1-.37436-1.52426l.03817-.11938-3.63711-3.6436-.42552-1.28956,1.30743.445,3.63061,3.63873.11937-.03492a1.80136,1.80136,0,0,1,.45233-.06578,1.56433,1.56433,0,0,1,1.10685.4572,1.49837,1.49837,0,0,1,.445,1.08086,1.54481,1.54481,0,0,1-1.55349,1.51289Z"/><polygon class="cls-1" points="12.1 11.772 3.376 11.77 3.376 12.768 11.102 12.77 12.1 11.772"/><polygon class="cls-1" points="15.804 12.771 19.315 12.772 19.315 11.774 16.802 11.773 15.804 12.771"/><path class="cls-1" d="M19.82644,11.2638l-.07065-.11856a14.61192,14.61192,0,0,0-.94637-1.3795l-.714.714c.25808.33792.51206.70305.73375,1.06224v.7268l.24119.428,1.49177.89531v3.36913c.133-.0032.26266-.0202.39639-.0202l.60083.01183v-3.926L19.82644,11.987Z"/><path class="cls-1" d="M2.33524,21.09108h.44532l.998-.998H2.33524c-.14373,0-.19489-.01583-.19489-.19449V13.592l1.73377-1.04067V11.55006A8.28854,8.28854,0,0,1,6.05859,9.11953a47.26235,47.26235,0,0,1,5.29308-.16647q2.18619,0,3.52291.044l.95535-.95535c-1.43528-.08633-3.63148-.08669-4.47826-.08669A52.10917,52.10917,0,0,0,5.819,8.154C4.67,8.53687,3.23258,10.70185,2.95567,11.13184l-.07877.12344v.73086L1.14312,13.02681v6.87174A1.12878,1.12878,0,0,0,2.33524,21.09108Z"/><path class="cls-1" d="M9.04488,19.53028h3.06024a16.62833,16.62833,0,0,1,1.81893-.998H10.04291Z"/><line class="cls-2" x1="1.36969" y1="24.85371" x2="20.91136" y2="5.31204"/><path class="cls-1" d="M8.68513,34.09121c-.01259-.2257-.03472-.449-.03472-.67777a12.391,12.391,0,0,1,24.78049,0c0,.2288-.02212.45207-.03471.67777h.998c.01157-.22595.03457-.449.03457-.67777a13.38885,13.38885,0,0,0-26.77626,0c0,.2288.023.45182.03457.67777Z"/></g></svg>