<svg xmlns="http://www.w3.org/2000/svg" viewBox="0 0 40 40"><defs><style>.cls-1{fill:#fff;}</style></defs><g id="Ebene_1" data-name="Ebene 1"><path class="cls-1" d="M30.08522,14.31654c.00438.0116-.97761-.172-.41706,1.42615.08244.235.40751,1.36623.41565,1.43014a8.87,8.87,0,0,0,2.15172,4.87509,3.09551,3.09551,0,0,0,.482.40368,6.33411,6.33411,0,0,1,1.89824,2.26459c.64841,1.09163,2.18625,3.86661,2.8563,5.07987l2.52429-5.07464c-.147-.26788-.47456-.86929-.71631-1.34608a3.1372,3.1372,0,0,1-.31786-2.11313c.02686-.33726.51047-3.03725.60078-3.73379a8.7926,8.7926,0,0,0-.13057-1.57328c-.09551-.42532-.34455-.46412-.7818-.52978.094.43763.16192,1.24842.00373,1.40436a.33314.33314,0,0,1-.32309.08059c-.2-.05895-.24175-.24437-.27831-.40778-.003-.01343-.31191-1.67746-.41711-2.03375-.17012-.57865-.22158-.75474-.95356-.82749.06791.34026.1649,1.119.2425,1.52338.13655.70736-.139.83234-.25548.932a.33877.33877,0,0,1-.32756.06006c-.194-.06977-.25669-.22086-.37532-.89763a12.47381,12.47381,0,0,0-.57229-2.828c-.153-.17834-1.02309-.0787-1.58348.13393a9.52348,9.52348,0,0,1,.59627,2.09523.32525.32525,0,0,1-.10147.2716c-.17834.16676-.50366.55179-.79019.89128-.50142.59358-.60961.71483-.72974.7693a.63848.63848,0,0,1-.56858.016c-.29921-.15147-.427-.35824-.8827-1.02651A6.19461,6.19461,0,0,0,30.08522,14.31654Z"/><path class="cls-1" d="M24.072,26.13907a2.08958,2.08958,0,0,1-.76483.19325c-.03286.00373-.27608.02164-.52157.02687l-.485.01268c-.68572.0179-1.643.03731-2.30339.04253-.59618.0082-1.39682-.01642-2.037-.03507l-.75586-.02014c-.24475-.00523-.48725-.02314-.52456-.02687a2.0998,2.0998,0,0,1-.7663-.19549c-.0388-.01791-.14028-.07312-.28577-.15446.01791.2134.03955.40293.05746.52082a10.7848,10.7848,0,0,0,.7581,2.81894c.12162.27981.40367.89688.5081,1.10879l.047.097c.34546.70736.55364,1.13416,1.44456,1.16252.81108.02686,1.23789.02984,1.549.02984.3119,0,.73721,0,1.55575-.02984.85435-.03057,1.07149-.39845,1.44457-1.16178l.04775-.097c.10446-.21265.38576-.82973.50739-1.10954a10.77848,10.77848,0,0,0,.75736-2.81894c.0179-.11788.041-.3104.06044-.52231C24.21748,26.06371,24.11376,26.12041,24.072,26.13907Zm-1.47512.94524a12.163,12.163,0,0,1-.62663,2.40533c-.2973.78241-.468.99864-1.10526,1.02849-.30018.015-.64869.01707-.79946.01707h-.07187c-.027-.0007-.48719.00144-.86774-.01707-.63723-.02984-.808-.24609-1.10524-1.02849a12.16393,12.16393,0,0,1-.62664-2.40533l-.01646-.14457h5.23575Z"/><path class="cls-1" d="M21.29149,18.66528A.89832.89832,0,0,0,20.876,18.55a.92044.92044,0,0,0-.45459.13574,1.48888,1.48888,0,0,1-.001,1.59278.83509.83509,0,0,0,.45312.13379.82638.82638,0,0,0,.41944-.11328A1.48626,1.48626,0,0,1,21.29149,18.66528Z"/><path class="cls-1" d="M19.59227,18.68578a.92043.92043,0,0,0-.45458-.13574.89476.89476,0,0,0-.415.11524,1.48813,1.48813,0,0,1-.00147,1.63379.82461.82461,0,0,0,.41895.11328.83509.83509,0,0,0,.45312-.13379A1.49088,1.49088,0,0,1,19.59227,18.68578Z"/><path class="cls-1" d="M17.86864,18.66528a.88863.88863,0,0,0-.416-.11524.93164.93164,0,0,0,.001,1.86328.91012.91012,0,0,0,.41553-.11523A1.4893,1.4893,0,0,1,17.86864,18.66528Z"/><path class="cls-1" d="M18.20653,19.48168a.75557.75557,0,0,0,.10254.46387,1.35657,1.35657,0,0,0,.07569-.46387.9046.9046,0,0,0-.08936-.45019A.9065.9065,0,0,0,18.20653,19.48168Z"/><path class="cls-1" d="M19.91735,19.48168a.7555.7555,0,0,0,.10254.46387,1.35671,1.35671,0,0,0,.07568-.46387.90464.90464,0,0,0-.08935-.45019A.9065.9065,0,0,0,19.91735,19.48168Z"/><path class="cls-1" d="M27.2121,18.146c.03033-.23267-.06562-.34052-.27314-.45789a15.887,15.887,0,0,0-2.41851-1.11572l-.464-.14844c-.52777-.08624-.92847-.09369-1.5232-.145,0,0-1.89941-.08246-2.52868-.08246-.6294,0-2.7273.08246-2.7273.08246-.59491.05127-.99542.05872-1.52337.145l-.46381.14844A13.83547,13.83547,0,0,0,13.07,17.68811c-.20752.11737-.30341.22522-.27295.45789.00616.04742.08508.41662.17608.88256.167.856.44525,1.96125.48688,2.22339a.6417.6417,0,0,1-.01959.31781c-.05573.15064-.10028.26465-.15906.39289a.33621.33621,0,0,0,.00629.34826,11.33965,11.33965,0,0,0,1.7948,2.172c.47064.23987,1.15674.64417,1.23706.67926a2.10506,2.10506,0,0,0,.88183.15271c.21045.00891,1.64582.06128,2.80329.06128,1.15729,0,2.59277-.05237,2.80316-.06128a2.105,2.105,0,0,0,.88177-.15271c.08045-.03509.76636-.43939,1.237-.67926a11.33767,11.33767,0,0,0,1.79474-2.172.33648.33648,0,0,0,.00641-.34826c-.059-.12824-.10333-.24225-.159-.39289a.64175.64175,0,0,1-.01977-.31781c.04169-.26208.31995-1.36737.48694-2.22339C27.12683,18.56262,27.20575,18.19348,27.2121,18.146Zm-4.652,2.84838h-.00049a1.5061,1.5061,0,0,1-.84082-.26172,1.46784,1.46784,0,0,1-.8418.26172,1.49509,1.49509,0,0,1-.87011-.28125,1.4929,1.4929,0,0,1-.87012.28125,1.46784,1.46784,0,0,1-.8418-.26172,1.51321,1.51321,0,1,1,0-2.50293,1.46929,1.46929,0,0,1,.84229-.26172,1.49141,1.49141,0,0,1,.86963.28125,1.49248,1.49248,0,0,1,.86962-.28125,1.46929,1.46929,0,0,1,.84229.26172,1.51111,1.51111,0,1,1,.84131,2.76465Z"/><path class="cls-1" d="M21.62938,19.48168a.75557.75557,0,0,0,.10254.46387,1.36382,1.36382,0,0,0,.0752-.46387.89837.89837,0,0,0-.08887-.44922A.89837.89837,0,0,0,21.62938,19.48168Z"/><path class="cls-1" d="M22.561,18.55a.88863.88863,0,0,0-.416.11524,1.48836,1.48836,0,0,1,0,1.63281.91.91,0,0,0,.418.11523A.93164.93164,0,0,0,22.561,18.55Z"/><path class="cls-1" d="M12.01849,19.34668c-.11786-.54248-.21264-.97821-.22461-1.03571a1.06731,1.06731,0,0,1,.17621-.93554c-.29907.07434-.60705.15033-.91351.22589a9.87849,9.87849,0,0,1-1.60181,4.19409c.87928.01123,2.15644.02844,2.80353.03888.02142-.0509.04529-.10681.06989-.16486.047-.10968.09546-.22235.12457-.29693-.00672-.05744-.02161-.12012-.03583-.18653Z"/><path class="cls-1" d="M29.08185,10.72632a13.65188,13.65188,0,0,1,1.19659,2.23114l.53162.4021a7.41953,7.41953,0,0,1,1.49023,1.51074s.17041.248.20117.29395c.03028-.03614.063-.0752.09766-.11622.207-.24511.38672-.457.542-.63183-.08007-.36322-.4989-1.95551-.66516-2.58533a16.88145,16.88145,0,0,0-2.718-3.28033A9.26384,9.26384,0,0,0,26.0495,6.54181a27.18963,27.18963,0,0,0-6.05432-.523,27.17633,27.17633,0,0,0-6.05359.52307,9.26422,9.26422,0,0,0-3.70844,2.00867,16.76192,16.76192,0,0,0-2.33,2.715c-.32465.89807-.90448,2.60083-1.04767,3.15558.15674.17676.33789.38965.53955.62891l.09619.11328.17578-.25684a7.39171,7.39171,0,0,1,1.5166-1.54687l.52765-.39911a13.65481,13.65481,0,0,1,1.19788-2.23413A5.57149,5.57149,0,0,1,14.343,8.23938a28.81678,28.81678,0,0,1,5.65222-.46564,28.824,28.824,0,0,1,5.65289.46564A5.57722,5.57722,0,0,1,29.08185,10.72632Z"/><path class="cls-1" d="M33.584,25.32831a5.32989,5.32989,0,0,0-1.41742-1.77582,19.784,19.784,0,0,1-1.702,3.94525,10.56291,10.56291,0,0,1-2.88172,3.89856,2.38589,2.38589,0,0,1-1.26251.42682l-.21783.02686c-.25818.03607-1.483.09857-2.74365.15033a1.93724,1.93724,0,0,1-1.71094.91143c-.87079.03131-1.32294.03131-1.655.03131h-.00079c-.3313,0-.78418-.00372-1.64679-.03131a1.90531,1.90531,0,0,1-1.71277-.90643c-1.28717-.05273-2.47766-.118-2.74475-.15533l-.21717.00152a2.4202,2.4202,0,0,1-1.26251-.4552,10.56308,10.56308,0,0,1-2.88159-3.89856A19.7633,19.7633,0,0,1,7.82318,23.5506a5.15716,5.15716,0,0,0-1.372,1.70056c-.092.15637-.20685.3551-.33264.57416.03156.08911.06433.18463.09509.27112.23053.64917.43128,1.21252.55884,1.72735a26.08577,26.08577,0,0,0,4.14569,4.81409c1.16626.87079,1.55426,1.02228,4.31726,1.17743,2.20642.12317,4.34943.12909,4.75605.12909.41186,0,2.55859-.00592,4.765-.12909,2.76227-.15515,3.15027-.30664,4.31653-1.17743a26.0512,26.0512,0,0,0,4.14569-4.81409c.12756-.51483.32831-1.07745.55884-1.72735.03094-.08686.0639-.18287.09558-.2724C33.76453,25.63562,33.66644,25.46716,33.584,25.32831Z"/><path class="cls-1" d="M28.94348,17.60364c-.30963-.07654-.62128-.15338-.9234-.22858a1.06329,1.06329,0,0,1,.1767.93372c-.012.05969-.10669.49542-.22467,1.0379L27.5752,21.18c-.01569.07086-.03058.13581-.03736.19324.02838.07312.07092.17389.11048.26935.03027.07306.05731.13794.07928.19232.65826-.01093,1.94391-.0285,2.82263-.03967A9.97289,9.97289,0,0,1,28.94348,17.60364Z"/><path class="cls-1" d="M9.91078,14.31641c-.00438.0116.97761-.172.41706,1.42616-.08244.235-.40751,1.36622-.41565,1.43014a8.87,8.87,0,0,1-2.15173,4.87508,3.09505,3.09505,0,0,1-.482.40368,6.33419,6.33419,0,0,0-1.89823,2.26459c-.64841,1.09163-2.18625,3.86661-2.8563,5.07987L-.00038,24.72129c.147-.26788.47456-.86928.71631-1.34608a3.1372,3.1372,0,0,0,.31786-2.11313C1.00693,20.92482.52332,18.22484.433,17.5283A8.79263,8.79263,0,0,1,.56358,15.955c.09551-.42531.34455-.46411.7818-.52978-.094.43763-.16192,1.24842-.00373,1.40436a.33311.33311,0,0,0,.32309.08059c.2-.05895.24175-.24437.27831-.40778.003-.01343.3119-1.67746.41711-2.03375.17012-.57864.22158-.75474.95356-.82749-.06791.34026-.16491,1.119-.2425,1.52338-.13655.70736.13905.83235.25548.932a.33875.33875,0,0,0,.32756.06006c.194-.06977.25669-.22086.37532-.89763a12.47326,12.47326,0,0,1,.57229-2.828c.153-.17833,1.02309-.0787,1.58348.13394a9.52285,9.52285,0,0,0-.59627,2.09522.32523.32523,0,0,0,.10147.2716c.17833.16677.50366.55179.79019.89129.50142.59357.60961.71482.72974.76929a.63845.63845,0,0,0,.56858.016c.29921-.15147.427-.35823.8827-1.02651A6.19461,6.19461,0,0,1,9.91078,14.31641Z"/></g></svg>