<svg xmlns="http://www.w3.org/2000/svg" viewBox="0 0 44 44"><title>icid-slowtraffic_d0_m-nar</title><g id="icid-slowtraffic_d0_m-nar"><g id="Bildmaterial_1" data-name="Bildmaterial 1"><path d="M22,41.8a1.60584,1.60584,0,0,1-1.1-.5L2.7,23.1a1.56944,1.56944,0,0,1,0-2.2L20.9,2.7a1.46,1.46,0,0,1,2.2,0L41.3,20.9a1.56944,1.56944,0,0,1,0,2.2L23.1,41.3A1.60584,1.60584,0,0,1,22,41.8Z"/><path d="M22,2.5a.97479.97479,0,0,1,.9.4L41.1,21.1a1.22153,1.22153,0,0,1,.4.9,1.08577,1.08577,0,0,1-.4.9L22.9,41.1a1.22153,1.22153,0,0,1-.9.4,1.08577,1.08577,0,0,1-.9-.4L2.9,22.9a1.39083,1.39083,0,0,1,0-1.9L21.1,2.9a.97479.97479,0,0,1,.9-.4M22,2a2.10617,2.10617,0,0,0-1.3.5L2.5,20.7a1.872,1.872,0,0,0,0,2.6L20.7,41.5A1.65586,1.65586,0,0,0,22,42a2.10617,2.10617,0,0,0,1.3-.5L41.5,23.3a1.872,1.872,0,0,0,0-2.6L23.3,2.5A2.10617,2.10617,0,0,0,22,2Z" fill="#ffc600"/><path d="M21.8,40.4,3.6,22.2a.44637.44637,0,0,1,0-.5L21.8,3.6a.44637.44637,0,0,1,.5,0L40.5,21.8a.44637.44637,0,0,1,0,.5L22.2,40.4A.30417.30417,0,0,1,21.8,40.4Z" fill="#ffc600"/></g><path d="M31.296,19.899a.725.725,0,0,0-.57264-.28144H28.68859c-.17065-.23529-1.19622-1.67736-1.49017-2.00836a1.88168,1.88168,0,0,0-1.68646-.88312c-1.13452-.09552-2.46-.12445-3.2301-.1325-.77009.00805-2.09559.037-3.23011.1325a1.88168,1.88168,0,0,0-1.68646.88312c-.29394.331-1.31952,1.77307-1.49017,2.00836H13.84033a.725.725,0,0,0-.57263.28144,3.863,3.863,0,0,0-.34186.95153.41809.41809,0,0,0,.44525.388h1.6076a2.75523,2.75523,0,0,0-.22088.5606c-.00348.01313-.00879.02564-.01227.03876a8.11111,8.11111,0,0,0-.06195,1.58734,4.80818,4.80818,0,0,0,.024,1.13953c.01867.09967.0368.192.05548.27514v2.18219a.4199.4199,0,0,0,.44647.38739h1.52112c.24542,0,.2904-.35266.2904-.56573V25.13446H27.54266v1.70929c0,.21307.045.56573.2904.56573h1.52112a.4199.4199,0,0,0,.44647-.38739V24.8399c.01868-.08319.03681-.17547.05549-.27514a4.80865,4.80865,0,0,0,.024-1.13953,8.11111,8.11111,0,0,0-.062-1.58734c-.00348-.01312-.00879-.02563-.01227-.03876a2.75523,2.75523,0,0,0-.22088-.5606h1.6076a.41809.41809,0,0,0,.44525-.388A3.86333,3.86333,0,0,0,31.296,19.899Zm-9.01416.16241H17.60839a19.149,19.149,0,0,1,1.15-1.936,2.03258,2.03258,0,0,1,.40552-.06324c1.078-.09076,2.35784-.12011,3.11792-.12872.76007.00861,2.03991.038,3.11792.12872a2.03258,2.03258,0,0,1,.40551.06324,19.149,19.149,0,0,1,1.15,1.936Z" fill-rule="evenodd"/></g></svg>