<svg xmlns="http://www.w3.org/2000/svg" viewBox="0 0 44 44"><title>icid-ecalldefect_d0_m-nar</title><g id="icid-ecalldefect_d0_m-nar"><g id="rectangular_bg"><path d="M4.31075,41.71088a2.02758,2.02758,0,0,1-2.02163-2.02163V4.31075A2.02758,2.02758,0,0,1,4.31075,2.28912h35.3785a2.02758,2.02758,0,0,1,2.02163,2.02163v35.3785a2.02758,2.02758,0,0,1-2.02163,2.02163Z" fill="#013f87"/></g><path d="M25.708,14.316a.66552.66552,0,0,1-.283.461.474.474,0,0,1-.318.066c-.076-.006-.151-.014-.227-.023l-1.29-.275,1.656-9.124,1.383.228a.76915.76915,0,0,1,.45.269,1.08282,1.08282,0,0,1,.18.308.58943.58943,0,0,1,.013.343Z" fill="#fff" fill-rule="evenodd"/><path d="M21.712,14.98a1.97618,1.97618,0,0,0-.879,1.539V28.31c0,.343.427.782.664.973a2.40823,2.40823,0,0,0,.994.453l2.025,8.843a10.48234,10.48234,0,0,1-1.669-.237,9.70762,9.70762,0,0,1-1.924-.657,11.864,11.864,0,0,1-1.519-.857l-2.119-7.874a8.77839,8.77839,0,0,1-.234-1.194c-.157-1.247-.255-2.5-.309-3.756-.043-.96-.049-1.92-.011-2.879a36.54452,36.54452,0,0,1,1.061-7.275l1.567-6.31a8.30972,8.30972,0,0,1,1.337-1.053,6.74458,6.74458,0,0,1,1.902-.813,8.62284,8.62284,0,0,1,1.779-.253L22.72,14.54A2.5327,2.5327,0,0,0,21.712,14.98Z" fill="#fff" fill-rule="evenodd"/><path d="M24.735,29.075a.57947.57947,0,0,1,.459.093c.218.133.222.237.275.459l1.792,7.441a1.57894,1.57894,0,0,1,.043.343.65078.65078,0,0,1-.109.377.73568.73568,0,0,1-.392.335l-1.47.32-2.02-8.955Z" fill="#fff" fill-rule="evenodd"/><path d="M41.71088,3.84525a1.59553,1.59553,0,0,0-1.55613-1.55613H38.80353L2.28912,38.4984v1.65635a1.59553,1.59553,0,0,0,1.55613,1.55613H5.40732L41.71088,5.71068Z" fill="red"/><rect x="2.28912" y="2.28912" width="39.42175" height="39.42175" rx="1.5" fill="none" stroke="none" stroke-miterlimit="10" stroke-width="0.5"/></g></svg>