<svg xmlns="http://www.w3.org/2000/svg" viewBox="0 0 44 44"><g id="d0_t5_cc-ukr_1p0_2p1014_1s0"><polygon id="Hintergrund" points="9.125 9.102 2.165 10.041 3.516 16.811 12.543 22.023 3.529 27.221 3.516 27.228 3.516 27.241 2.172 33.933 2.165 33.965 2.198 33.972 9.112 34.898 9.125 34.898 9.131 34.891 21.967 27.495 34.843 34.898 41.835 33.965 40.426 27.228 31.418 22.023 40.426 16.811 41.835 10.041 34.843 9.102 21.967 16.57 9.125 9.102" fill="#fff" fill-rule="evenodd" /><path id="Rahmen" d="M8.92672,10.14164l-5.59084.7389,1.07893,5.26389,10.142,5.87855-10.142,5.85239L3.33588,33.12618l5.59084.7716,13.0322-7.53945,13.03221,7.53945,5.59083-.7716L39.503,27.87537,29.36106,22.023l10.142-5.87855L40.582,10.88054l-5.59083-.7389L21.95892,17.68109Zm-.64736,2.51751,13.67956,7.91871,13.67957-7.91871,2.24941.30733-.26156,1.419L24.47643,22.023l13.14991,7.631.26156,1.47781-2.24941.28772-13.67957-7.8991L8.27936,31.41951l-2.24942-.28772L6.2915,29.654l13.14991-7.631L6.2915,14.38544l-.26156-1.419Z" fill="#da251d" fill-rule="evenodd" /><path id="Rahmen-2" data-name="Rahmen" d="M31.41829,22.0228l9.00738-5.21137,1.40882-6.7702-6.992-.93921L21.96736,16.5701,9.12483,9.102l-6.95935.93921,1.35016,6.7702,9.02692,5.21137L3.52864,27.22116l-.013.00647v.01306L2.172,33.93265l-.00653.03259.03259.00653,6.91376.92621h.013l.00653-.00653,12.836-7.39636L34.84254,34.898l6.992-.93274-1.40882-6.73761ZM34.9911,33.89774,21.95894,26.35831,8.92671,33.89774l-5.59082-.77155,1.07892-5.25085,10.142-5.85236-10.142-5.87854L3.33589,10.88053l5.59082-.7389,13.03223,7.53943L34.9911,10.14163l5.59088.7389-1.079,5.26391L29.361,22.023l10.142,5.85236,1.079,5.25085Z" fill="#fff" fill-rule="evenodd" /></g></svg>