<svg id="Icon" xmlns="http://www.w3.org/2000/svg" viewBox="0 0 50 50"><title>d0_t13_2s0_cc-tur</title><g id="Rahmen"><rect x="2.75" y="2.75" width="44.5" height="44.5" rx="3" fill="#fff"/><rect x="2.75" y="2.75" width="44.5" height="44.5" rx="3" fill="none" stroke="#000" stroke-miterlimit="10" stroke-width="1.5"/></g><polygon points="25.75 41.73 25.75 40.364 24.25 40.364 24.25 41.73 17.64 41.73 17.64 43.23 32.36 43.23 32.36 41.73 25.75 41.73"/><path d="M11.54053,18.39014H24.4267c1.22644-.53284,2.45239-.98676,3.545-1.38916.10187-.03748.19983-.07379.30023-.11084H9.14209l.44824,1.0459A14.09162,14.09162,0,0,0,12.94775,22.335a16.21578,16.21578,0,0,0,4.15241,2.69965,6.05289,6.05289,0,0,1,.52667-1.37641A14.1645,14.1645,0,0,1,11.54053,18.39014Z"/><path d="M36.26453,16.89014a10.81187,10.81187,0,0,1-1.80512,1.5h3.87067a16.42731,16.42731,0,0,1-13.32569,6.77978H25a19.56028,19.56028,0,0,1-3.39087-.29516,2.72015,2.72015,0,0,0-.64783,1.40637,20.72355,20.72355,0,0,0,3.2887.35217v9.9585h1.5V26.63354a17.80969,17.80969,0,0,0,14.63086-8.63842l.59277-1.105Z"/><path d="M26.84,29.77155v1.51214a4.45281,4.45281,0,0,1,2.70977,1.06787,2.78175,2.78175,0,0,1,.69141,2.13086,3.10693,3.10693,0,0,1-2.04,2.76563c-2.15527.96875-5.79053.72168-9.05762-2.0127a.75009.75009,0,1,0-.96289,1.15039,11.62573,11.62573,0,0,0,7.40674,2.87012,7.918,7.918,0,0,0,3.229-.63965,4.59447,4.59447,0,0,0,2.9248-4.09082A4.25,4.25,0,0,0,30.626,31.30664,6.07537,6.07537,0,0,0,26.84,29.77155Z"/><path d="M35.58984,7.769a6.76081,6.76081,0,0,0-5.18261-1.9082c-2.76075,0-4.87549.78662-6.28516,2.3374A7.65953,7.65953,0,0,0,22.32959,13.583a1.61219,1.61219,0,0,0,.7998,1.45654A1.53524,1.53524,0,0,0,24.77,15.0459a1.93129,1.93129,0,0,0,.70019-2.04248l-.02441-.187A15.32317,15.32317,0,0,1,25.418,9.01367a6.87312,6.87312,0,0,1,4.98926-1.65283,5.35472,5.35472,0,0,1,4.07324,1.418,4.747,4.747,0,0,1,1.13281,3.2539c-.00781,1.15381-.62012,3.356-4.63281,5.13868-.70313.313-1.61328.648-2.57617,1.00293-4.48242,1.65039-10.62012,3.91113-10.19629,8.769.146,1.67261,1.17328,3.61987,4.952,4.1189V29.54309c-2.15625-.32593-3.32721-1.23431-3.45782-2.73059-.32422-3.71582,5.19238-5.74707,9.21973-7.231.9873-.36328,1.91992-.70654,2.668-1.03906,4.78125-2.125,5.5127-4.98437,5.52149-6.45019A6.1932,6.1932,0,0,0,35.58984,7.769Z"/></svg>