<svg xmlns="http://www.w3.org/2000/svg" version="1.1" id="Ebene_1" x="0px" y="0px" viewBox="0 0 65 41" style="enable-background:new 0 0 65 41;" xml:space="preserve">
<style type="text/css">
	.st0{opacity:0.15;}
	.st1{fill:#00F300;}
</style>
<g id="hintergrund">
	<g class="st0">
		<path class="st1" d="M59,38H6c-1.7,0-3-1.3-3-3V6c0-1.6,1.4-3,3-3h53c1.7,0,3,1.4,3,3v29C62,36.7,60.7,38,59,38z" />
	</g>
</g>
<g id="kontur">
	<g>
		<path class="st1" d="M59,3c1.7,0,3,1.3,3,3v29c0,1.7-1.3,3-3,3H6c-1.6,0-3-1.3-3-3V6c0-1.7,1.4-3,3-3H59 M59,0H6C2.7,0,0,2.7,0,6    v29c0,3.3,2.7,6,6,6h53c3.3,0,6-2.7,6-6V6C65,2.7,62.3,0,59,0L59,0z" />
	</g>
</g>
<g id="Ebene_1_1_">
	<g>
		<g>
			<path class="st1" d="M27.8,19.8C27,19.1,26,18.4,24.9,18s-2.4-0.6-3.7-0.6c-0.5,0-1,0-1.4,0c-0.2,0-2.5,0.7-2.5,0.7     s-1,0.6-1.5,0.8c0.6-1.3,1.1-2.3,1.8-3.2c0.7-0.8,1.7-1.7,2.8-2.4c0.9-0.5,1.8-0.9,2.8-1.1c1-0.2,2.9-0.7,4.2-0.7H28V7.4     c-1.1,0-3,0.1-3.9,0.2s-1.8,0.3-2.6,0.5c-0.8,0.2-1.6,0.4-2.4,0.8c-0.7,0.4-1.5,1-2.2,1.5c-2.1,1.5-3.7,3.3-4.8,5.5     s-1.7,4.4-1.7,7.1c0,1.7,0.3,3.2,0.8,4.5s1.2,2.6,2.2,3.5s2.2,1.4,3.4,1.9c1.3,0.5,2.7,0.7,4.1,0.7s2.7-0.2,3.9-0.6     c1.2-0.4,2.2-0.8,3-1.5c0.8-0.7,1.7-1.8,2.2-2.8s0.7-2,0.7-3.1s-0.2-2.1-0.7-3C29.5,21.6,28.6,20.5,27.8,19.8z M24.8,27.8     c-1,0.6-2.5,1-4.1,1s-2.9-0.5-3.8-1.1s-1.4-1.8-1.4-2.7c0-0.9,0.5-2,1.4-2.6s2.4-1,3.9-1c1.6,0,3,0.4,4,1s1.4,1.6,1.4,2.5     S25.7,27.2,24.8,27.8z M54.4,15.8c-0.4-1.5-1-2.9-1.9-4.2c-0.8-1.2-1.9-2.5-3.2-3.2c-1.3-0.8-3.1-1.1-4.9-1.1     c-1.8,0-3.4,0.4-4.7,1.1s-2.5,2-3.3,3.2s-1.5,2.6-1.9,4.2C34.2,17.4,34,19,34,20.7s0.2,2.9,0.6,4.5c0.4,1.6,1.1,3,1.9,4.2     c0.8,1.2,1.9,2.5,3.2,3.2c1.3,0.7,3,1.1,4.8,1.1s3.6-0.2,4.9-1c1.3-0.8,2.5-2.2,3.3-3.4c0.8-1.3,1.5-2.7,1.8-4.2     c0.4-1.6,0.6-2.8,0.6-4.4C55,19,54.8,17.4,54.4,15.8z M50.3,24c-0.3,1.1-0.7,1.9-1.2,2.7c-0.5,0.8-1.3,1.4-2,1.8     s-1.7,0.6-2.5,0.6c-1.8,0-3.6-0.7-4.6-2.2s-1.7-3.5-1.7-6.4c0-0.9,0.1-2.1,0.3-3.1s0.7-2,1.1-2.8c0.5-0.8,1.1-1.4,1.8-1.9     s1.8-0.9,2.9-0.9c1.8,0,3.6,0.8,4.6,2.3s1.7,3.8,1.7,6.4C50.7,21.9,50.5,23,50.3,24z" />
		</g>
	</g>
</g>
</svg>