<svg id="Ebene_1" data-name="Ebene 1" xmlns="http://www.w3.org/2000/svg" viewBox="0 0 253 165"><defs><style>.cls-1{fill:#fff;fill-rule:evenodd;}</style></defs><path class="cls-1" d="M132.97156,123.84125l-20.09674,16.63922,20.09674,16.6814v-11.164h77.007V135.03174h-77.007Zm108.5769-44.9159c-2.00226-7.00763-6.55487-7.68182-10.95819-8.333a54.70366,54.70366,0,0,1-5.6272-1.06269,67.84209,67.84209,0,0,1-12.15149-5.81921,82.34242,82.34242,0,0,0-18.51831-8.38428,102.70021,102.70021,0,0,0-21.62-2.0697l-.00018.00018a76.38131,76.38131,0,0,0-19.1272,2.00971c-7.48541,2.08807-14.62732,8.68127-19.84479,13.49481-1.318,1.2229-2.68634,2.48846-3.90735,3.51086l-1.08838.96851-.21588.0285c-.14972.02008-15.54413,2.077-21.00244,3.25971C97.20477,78.75964,93.62689,81.23633,90.625,85.02448a17.58862,17.58862,0,0,0-3.55841,12.05786c.00531,5.3078,2.69421,7.876,8.46289,8.07891l5.72119.15137.18555.40564a18.96338,18.96338,0,0,0,25.53869,9.555,20.45511,20.45511,0,0,0,9.21039-9.87829l.18549-.41712h60.28192l.18829.8573a18.95354,18.95354,0,0,0,25.59229,9.38422,19.52146,19.52146,0,0,0,9.118-9.42981l.18823-.40558.43756-.01153c5.49152-.13129,12.05481-1.554,12.13513-7.58716A63.14526,63.14526,0,0,0,241.54846,78.92535ZM231.969,96.91125l-.43762.0113-5.02289.13159-2.16961,4.67468-.20679.44556a11.21,11.21,0,0,1-5.22241,5.40124,10.618,10.618,0,0,1-4.71076,1.10443,11.011,11.011,0,0,1-9.91113-6.39892l-.18841-.4198-2.202-4.8534h-70.788l-2.1952,4.87592-.15911.35761a11.20651,11.20651,0,0,1-5.25617,5.36486,10.6229,10.6229,0,0,1-4.64929,1.07355,11.05078,11.05078,0,0,1-9.99262-6.57294l-.18518-.4057-2.157-4.71618-5.05359-.13379L95.809,96.702c-.20325-.00721-.38373-.01868-.54321-.03266l-.01972-.25763a8.91177,8.91177,0,0,1,1.77668-6.08709c1.3012-1.64081,2.8598-3.49653,12.15124-5.51258,4.05988-.87982,15.09888-2.44439,20.36017-3.1477l.216-.02851,2.44672-.32409,1.86786-1.66211.99994-.88983c1.392-1.17188,2.90289-2.57331,4.11969-3.70179,4.601-4.245,10.9024-10.05859,16.50873-11.62262a69.20176,69.20176,0,0,1,16.98-1.71466,97.05172,97.05172,0,0,1,19.53216,1.79688,74.40233,74.40233,0,0,1,16.44312,7.48682,76.099,76.099,0,0,0,13.6007,6.51287l.40741.1474.42029.10254a62.3321,62.3321,0,0,0,6.3487,1.20368c3.73968.553,3.73968.553,4.25238,2.34741l.02252.079.024.07849a54.29409,54.29409,0,0,1,2.3753,14.90735A16.5816,16.5816,0,0,1,231.969,96.91125Zm-119.381-42.936L94.82666,38.137l3.39423-29.5028L83.45416,30.66522,70.51581,19.27032,73.14331,39.504,47.86157,49.20062,73.579,55.833l.94592,19.616L88.366,53.97528ZM55.46289,70.59235a54.65763,54.65763,0,0,1-5.62732-1.06269A67.85545,67.85545,0,0,1,37.6839,63.71045a82.33661,82.33661,0,0,0-18.518-8.38428A77.6593,77.6593,0,0,0,9.01178,53.78436V62.293A69.37583,69.37583,0,0,1,17.078,63.51764a74.39983,74.39983,0,0,1,16.44312,7.48682,76.11551,76.11551,0,0,0,13.60077,6.51312l.40741.14715.4201.10254A62.33885,62.33885,0,0,0,54.2981,78.971c3.7398.553,3.7398.553,4.29907,2.50512a54.28849,54.28849,0,0,1,2.37512,14.90711,16.5794,16.5794,0,0,1-4.13031.52807l-.43756.0113-5.02271.13122-2.17,4.67438-.207.44623a11.21177,11.21177,0,0,1-5.22241,5.40106,10.61381,10.61381,0,0,1-4.71088,1.10413,11.01028,11.01028,0,0,1-9.91083-6.39771l-.18811-.41992-2.20208-4.854H9.01178v7.951H21.52521l.18835.4198c4.55512,9.88166,16.01325,14.53943,25.59235,9.84064a19.52248,19.52248,0,0,0,9.118-9.42981l.18811-.40558.43756-.01123c5.49164-.13159,12.05493-1.55432,12.13513-7.58746a63.149,63.149,0,0,0-2.76361-18.85993C64.4187,71.91772,59.86591,71.24377,55.46289,70.59235Z"/></svg>