<svg id="Ebene_1" data-name="Ebene 1" xmlns="http://www.w3.org/2000/svg" viewBox="0 0 253 165"><defs><style>.cls-1{fill:#fff;fill-rule:evenodd;}</style></defs><path class="cls-1" d="M143.27771,114.41467c-.17554.01825-1.38544.10944-2.61011.135l-2.4967.06592c-3.51648.09143-8.42969.19019-11.8183.21948-3.51282.029-8.31622-.12445-11.83282-.21948l-2.4856-.06592c-1.22839-.02557-2.43829-.11676-2.62109-.135a9.84972,9.84972,0,0,1-3.62268-.91015c-.23743-.11359-.93573-.50092-1.93012-1.05664l-1.06012-.59229c.09882,1.91571.3,3.72131.42774,4.5622a48.41545,48.41545,0,0,0,3.9663,13.56561c.63239,1.45111,2.08728,4.646,2.62818,5.74261l.24133.49359c1.84967,3.79071,3.14081,6.36121,8.27606,6.52863,4.18683.13647,6.386.15356,7.99433.15356,1.60821,0,3.80438.00019,8.02771-.15356,5.08087-.18494,6.4226-2.73425,8.27227-6.52142l.245-.5008c.541-1.09662,1.99591-4.2915,2.6283-5.74261a48.34174,48.34174,0,0,0,3.96252-13.56561c.15356-.99421.351-2.86231.45319-4.57666l-1.15491.64337c-.9541.53741-1.623.91021-1.86432,1.02A9.77336,9.77336,0,0,1,143.27771,114.41467Zm-3.55713,4.84345a52.04285,52.04285,0,0,1-3.22046,11.19678c-1.528,4.02093-2.40539,5.13232-5.68085,5.28588-1.5426.07672-3.33367.08771-4.10858.08771h-.36932c-.13879-.00378-2.504.0072-4.45966-.08771-3.2752-.15356-4.15271-1.26495-5.68054-5.28588a52.01937,52.01937,0,0,1-3.22064-11.19678l-.12054-1.06031h26.98114ZM125.7652,83.52472a4.52973,4.52973,0,0,0,.7428,2.49487,4.56091,4.56091,0,0,0,.00231-4.986A4.52817,4.52817,0,0,0,125.7652,83.52472Zm7.274-3.65692a4.525,4.525,0,0,0-5.4248-.002,6.10924,6.10924,0,0,1-.00116,7.31964,4.522,4.522,0,0,0,2.71088.89917h.00122a4.52228,4.52228,0,0,0,2.71509-.90167A6.09512,6.09512,0,0,1,133.03918,79.8678ZM117.769,79.868a4.55877,4.55877,0,1,0,.00171,7.31561A6.0953,6.0953,0,0,1,117.769,79.868Zm.36054,3.65674a4.52907,4.52907,0,0,0,.74579,2.49139,4.54575,4.54575,0,0,0-.00251-4.97882A4.53209,4.53209,0,0,0,118.12952,83.52472Zm4.56176-4.56061h-.00036a4.52841,4.52841,0,0,0-2.71393.90387,6.10347,6.10347,0,0,1,.0022,7.31561,4.53337,4.53337,0,0,0,5.42419.002,6.10017,6.10017,0,0,1,.00263-7.31983A4.52481,4.52481,0,0,0,122.69128,78.96411Zm40.09943-.179c.4585-2.34858.85638-4.20911.888-4.44892.15326-1.17279-.33032-1.71588-1.37628-2.308A80.17592,80.17592,0,0,0,150.112,66.40509l-2.3382-.74786c-2.66027-.43494-4.68-.47235-7.67743-.73133,0,0-10.57409-.4154-13.74566-.4154-3.17212,0-13.74634.4154-13.74634.4154-2.99817.259-5.01709.29639-7.67786.73133l-2.338.74786A80.11685,80.11685,0,0,0,90.39862,72.0282c-1.04651.5921-1.52972,1.13519-1.37622,2.308.03113.2395.4292,2.10034.88739,4.44892.8418,4.31433,2.24438,9.88513,2.45428,11.20648a3.237,3.237,0,0,1-.09857,1.60174c-.28137.75916-.50592,1.33387-.802,1.98029a1.6958,1.6958,0,0,0,.03162,1.75549,130.76777,130.76777,0,0,0,7.29968,11.435,4.01574,4.01574,0,0,0,1.74683,1.497c2.37188,1.2091,5.82989,3.247,6.235,3.4234a10.60963,10.60963,0,0,0,4.44428.76971c1.06109.0448,9.29571.30939,15.12951.30939,5.83332,0,14.06873-.26459,15.129-.30939a10.60814,10.60814,0,0,0,4.44464-.76971c.4054-.17639,3.86279-2.2143,6.23486-3.4234a4.018,4.018,0,0,0,1.74695-1.497,130.61156,130.61156,0,0,0,7.2992-11.435,1.69486,1.69486,0,0,0,.0321-1.75549c-.29675-.64642-.52093-1.22144-.80151-1.98029a3.23546,3.23546,0,0,1-.09918-1.60144C160.54639,88.67023,161.94891,83.09943,162.79071,78.7851ZM138.42358,89.66522q-.23153.009-.46319,0a6.10452,6.10452,0,0,1-3.81439-1.3374,6.09124,6.09124,0,0,1-3.82093,1.3374h-.00128a6.08907,6.08907,0,0,1-3.816-1.33441,6.117,6.117,0,0,1-7.632-.0022,6.14315,6.14315,0,1,1-.003-9.60479,6.1052,6.1052,0,0,1,3.81812-1.33942h.00036a6.0895,6.0895,0,0,1,3.81983,1.33673,6.10929,6.10929,0,0,1,7.632.0022,6.13225,6.13225,0,0,1,9.95776,4.80108A5.91364,5.91364,0,0,1,138.42358,89.66522Zm-.46319-10.7016a4.53033,4.53033,0,0,0-2.71338.90418,6.10217,6.10217,0,0,1,.0025,7.31512,4.53211,4.53211,0,0,0,2.71088.90167,4.76852,4.76852,0,0,0,4.56048-4.56018A4.56568,4.56568,0,0,0,137.96039,78.96362Zm-4.56061,4.56079a4.52578,4.52578,0,0,0,.74585,2.49091,4.54607,4.54607,0,0,0-.0025-4.97852A4.53392,4.53392,0,0,0,133.39978,83.52441ZM64.39172,98.0528c.27149-.22748.53839-.45.805-.68.8833-.76593,3.528-3.2077,4.30371-4.08362,7.11737-8.02526,8.03009-16.50787,8.632-22.1206.08819-.8197.17144-1.57556.26434-2.2558.04639-.34747,1.0227-7.13715,1.31128-8.451.61908-2.80884-.55542-5.28461-3.30542-6.968l-.01227-.00732a20.03983,20.03983,0,0,0-5.82562,5.55884,14.83672,14.83672,0,0,0-2.02082,4.3233,4.46573,4.46573,0,0,1-.88806,1.86676c-.5924.64111-1.83282.89319-3.16369-.07819a14.18821,14.18821,0,0,1-1.75934-2.03558c-.39887-.50909-.827-1.05463-1.25019-1.5611-.6828-.82464-1.37988-1.73962-1.99658-2.54962-.74133-.97357-1.3822-1.81537-1.84222-2.29742-.213-.22-.88092-.99567-.52863-1.74677.93225-1.977,3.22724-6.7677,4.85425-9.53241-2.96771-1.19879-7.71191-1.91339-9.01349-.12231-1.49255,2.05749-2.00891,4.8786-2.76,10.38849l-.13458.75622c-.64587,3.58448-.88092,4.89582-1.55121,4.89582a.72452.72452,0,0,1-.55786-.27161c-.28143-.40863-.16382-1.19629.46729-4.38922.3255-1.66138.7243-3.61639,1.05951-5.25818l.21527-1.06433c-3.88288.41852-5.382,1.95251-6.14289,4.56323-.55792,1.90113-1.60009,6.07038-1.60742,6.10217l-.07086.32294c-.56281,2.64716-1.06934,4.2865-1.84253,4.2865a.43646.43646,0,0,1-.34979-.16882c-.35968-.4502.552-4.38477,1.08038-6.72382.05634-.24457.11-.48675.16382-.72906-2.11621.56768-6.29883,3.38879-6.76129,5.4317a37.17176,37.17176,0,0,0-.58331,7.1568l.01709.49676c.05633,1.67841.20062,3.29309.35473,5.0011.18836,2.09424.3841,4.2594.4209,6.70624.03906,2.25836.18115,4.68536.28387,6.457l.04883.85864c.3548,6.37628-.64343,8.336-2.15545,11.3039l-.07575.1466c-.48474.98609-.68494,1.92566-1.10083,2.78925-.62628,1.30414-1.16949,2.437-1.62451,3.3006L41.19952,135.365c3.55256-6.62091,11.39179-20.7063,14.663-26.41211C60.04388,101.6814,62.3537,99.75348,64.39172,98.0528Zm157.20447,6.31738c-.41589-.86359-.86621-1.80316-1.35077-2.78925l-.0758-.1466c-1.512-2.9679-2.5102-4.92762-2.1554-11.3039l.04889-.85864c.1026-1.77161.24469-4.19861.28381-6.457.03656-2.44684.23249-4.612.4209-6.70624.15406-1.708.2984-3.32269.35468-5.0011l.01709-.49676a37.17267,37.17267,0,0,0-.58332-7.1568c-.46246-2.04291-4.64508-4.864-6.76129-5.4317.05359.24231.10755.48449.16382.72906.5285,2.33905,1.44013,6.27362,1.08032,6.72382a.43626.43626,0,0,1-.34973.16882c-.77319,0-1.27978-1.63934-1.84247-4.2865l-.07092-.32294c-.00732-.03179-1.0495-4.201-1.60748-6.10217-.76081-2.61072-2.26-4.14471-6.14282-4.56323l.21533,1.06433c.33514,1.64179.73395,3.5968,1.05945,5.25818.6311,3.19293.74871,3.98059.46734,4.38922a.72464.72464,0,0,1-.5581.27161c-.67041,0-.90509-1.31134-1.551-4.89582l-.13458-.75622c-.751-5.50989-1.2674-8.331-2.75989-10.38849-1.30163-1.79108-6.04584-1.07648-9.01373.12231,1.6272,2.76471,3.92218,7.55542,4.85419,9.53241.35253.7511-.31537,1.5268-.52839,1.74677-.46.48205-1.10089,1.32385-1.84222,2.29742-.6167.81-1.31415,1.725-1.99658,2.54962-.4234.50647-.85156,1.052-1.25019,1.5611A14.1936,14.1936,0,0,1,188.228,65.1571c-1.33094.97138-2.57154.7193-3.16364.07819a4.46226,4.46226,0,0,1-.88818-1.86676,14.83689,14.83689,0,0,0-2.02081-4.3233,20.04375,20.04375,0,0,0-5.82563-5.55884l-.01227.00732c-2.75,1.68341-3.92449,4.15918-3.30542,6.968.28864,1.3139,1.2649,8.10358,1.31135,8.451.09289.68024.17608,1.4361.26428,2.2558.60187,5.61273,1.51458,14.09534,8.632,22.1206.77569.87592,3.42035,3.31769,4.30377,4.08362.26648.23.53338.45252.80487.68,2.038,1.70068,4.34784,3.6286,8.529,10.90008,3.2713,5.70581,11.1106,19.7912,14.66315,26.41211l11.70013-27.69421C222.76569,106.80719,222.22247,105.67432,221.59619,104.37018Zm-34.4718-4.87457c-.21149-.17713-.36041-.30408-.52411-.44294-.0177.10724-.00476.21674-.03009.32294a96.94113,96.94113,0,0,1-8.9303,21.17627,44.87718,44.87718,0,0,1-14.11761,17.0166,11.69068,11.69068,0,0,1-6.18506,2.09082l-1.06763.13172c-1.2644.17669-7.26489.48278-13.44079.73638a9.4921,9.4921,0,0,1-8.38239,4.46521c-4.26568.15351-6.4812.15351-8.10773.15351h-.0036c-1.62317,0-3.842-.018-8.06756-.15351a9.33513,9.33513,0,0,1-8.39154-4.44073c-6.30561-.25818-12.138-.57819-13.4466-.76086l-1.06408-.13172a11.692,11.692,0,0,1-6.185-2.09082,44.8693,44.8693,0,0,1-14.11737-17.0166,96.85879,96.85879,0,0,1-8.934-21.17627c-.02362-.10089-.0116-.20489-.02808-.30713-.15881.13452-.30145.25635-.50531.42713-1.91614,1.59851-4.08789,3.41119-8.09882,10.385.45252,1.31835.90351,2.59106,1.3357,3.80621,1.12988,3.18017,2.113,5.94006,2.73822,8.46258a115.34086,115.34086,0,0,0,20.30957,21.50147c5.71393,4.26605,7.615,5.00812,21.1513,5.76849,10.80909.603,21.3075.63233,23.29981.63233,2.018,0,12.53522-.0293,23.344-.63233,13.53253-.76037,15.43341-1.50244,21.14728-5.76849a115.20662,115.20662,0,0,0,20.31024-21.50147c.62506-2.52252,1.60791-5.27868,2.73792-8.46258.43414-1.22064.88708-2.49964,1.34186-3.82422C191.20868,102.90479,189.039,101.09259,187.12439,99.49561ZM163.5188,92.82147c3.39111-.06067,12.39227-.18115,16.6961-.23327-5.55853-7.2229-6.74139-14.51789-7.34429-19.8462-2.62769-.64312-5.32764-1.31359-7.89313-1.95239q-.60324-.14776-1.19538-.2959a4.15189,4.15189,0,0,1,1.83149,4.858c-.05872.2851-.51917,2.41645-1.09668,5.0702l-1.94513,8.98175a8.1301,8.1301,0,0,0-.2193,1.27948c.24859.66522.585,1.5606.81885,2.16741C163.27728,92.843,163.39447,92.83252,163.5188,92.82147ZM59.03,55.44788c.52966.56042,1.18787,1.42212,1.95117,2.425.60193.79047,1.28211,1.68409,1.943,2.48261.436.52136.877,1.08276,1.28583,1.60468.52686.67022,1.18256,1.50427,1.38971,1.67889a1.38447,1.38447,0,0,0,.16107.091c.00678-.01062.01081-.02179.01709-.0321.3855-.59778.8338-1.15,1.23938-1.73352a16.90362,16.90362,0,0,1,1.9765-3.95075,21.23931,21.23931,0,0,1,5.49976-5.5235c.361-.72784.7251-1.45465,1.03015-2.2077a66.96852,66.96852,0,0,1,6.31323-11.89532A27.295,27.295,0,0,1,98.65948,26.20343a141.18844,141.18844,0,0,1,27.69013-2.2807,141.2164,141.2164,0,0,1,27.69421,2.28088,27.32418,27.32418,0,0,1,16.8227,12.1839,66.9515,66.9515,0,0,1,6.31311,11.895c.30285.75055.66949,1.4726,1.03094,2.19635a21.24869,21.24869,0,0,1,5.51544,5.53485,16.77578,16.77578,0,0,1,1.99176,3.99939c.39331.56751.82984,1.10358,1.20362,1.68488.0086.0133.0141.02783.02209.04083a1.35277,1.35277,0,0,0,.17664-.09973,21.68078,21.68078,0,0,0,1.38971-1.67889c.40905-.52192.85034-1.08332,1.28576-1.60468.6612-.79852,1.34143-1.69214,1.94318-2.48261.75751-.99493,1.4093-1.84783,1.937-2.4085-.28119-.6496-.549-1.305-.84637-1.9469-.44922-.92731-.96631-1.97559-1.49854-3.02661-.54535-1.06183-1.07678-2.13111-1.6673-3.16828-.10046-.18023-.19519-.3435-.29187-.51275a82.76206,82.76206,0,0,0-15.19329-19.08167,45.38619,45.38619,0,0,0-18.1681-9.84082,133.22689,133.22689,0,0,0-29.6607-2.56281,133.16827,133.16827,0,0,0-29.65692,2.56281,45.38211,45.38211,0,0,0-18.168,9.84052A82.71022,82.71022,0,0,0,63.55609,46.4447c-1.21106,2.06671-2.79449,5.26459-3.88257,7.524C59.4502,54.458,59.24377,54.95459,59.03,55.44788ZM88.9209,70.49371c-.4093.10218-.81873.20472-1.23511.30689-2.5495.6336-5.22729,1.29779-7.83569,1.93591-.60291,5.3288-1.7843,12.6261-7.34491,19.85169,4.30932.05188,13.28271.17211,16.62054.22949.146.011.28125.02563.40558.03662.23041-.6106.57019-1.506.819-2.1712a8.04708,8.04708,0,0,0-.21948-1.27948l-1.94452-8.98175c-.57739-2.654-1.03815-4.7851-1.0965-5.06647A4.15089,4.15089,0,0,1,88.9209,70.49371Z"/></svg>