<svg id="Ebene_1" data-name="Ebene 1" xmlns="http://www.w3.org/2000/svg" viewBox="0 0 150 150"><defs><style>.cls-1{fill:#fff;fill-rule:evenodd;}</style></defs><path class="cls-1" d="M77.869,35.62579a11.931,11.931,0,0,0,.9815,5.263l1.49684,3.79609a10.15,10.15,0,0,1,.73248,3.88922,16.51872,16.51872,0,0,1-3.5982,9.12976l1.76507,1.38122a18.761,18.761,0,0,0,4.07959-10.41241,12.40855,12.40855,0,0,0-.89166-4.81879L80.89374,39.962a9.74027,9.74027,0,0,1-.77632-4.33808,19.51583,19.51583,0,0,1,.39191-3.52185l-.042-.00848h2.60186L79.5239,23.90731l-3.7,8.18628h2.41242A21.50086,21.50086,0,0,0,77.869,35.62579Zm9.97119,0a11.88867,11.88867,0,0,0,.983,5.26209l1.49505,3.797a10.21226,10.21226,0,0,1,.73426,3.88922,16.516,16.516,0,0,1-3.59986,9.12976l1.76513,1.38122A18.76288,18.76288,0,0,0,93.29938,48.671a12.49216,12.49216,0,0,0-.89374-4.8161l-1.53888-3.8938a9.70313,9.70313,0,0,1-.77808-4.33716,19.54608,19.54608,0,0,1,.3918-3.5227l-.03778-.00763h2.61815l-3.54541-8.18628-3.7,8.18628h2.39209a21.52051,21.52051,0,0,0-.36738,3.53218Zm14.53669,8.22907-1.6225-3.8938a9.70478,9.70478,0,0,1-.778-4.33716,19.55173,19.55173,0,0,1,.39191-3.5227l-.03791-.00763h2.63886l-3.54535-8.18628-3.7,8.18628h2.37139a21.52,21.52,0,0,0-.36743,3.53222,11.88887,11.88887,0,0,0,.98322,5.26209l1.57843,3.797a10.21459,10.21459,0,0,1,.73419,3.88922,16.51849,16.51849,0,0,1-3.598,9.12976l1.76507,1.38122A18.76209,18.76209,0,0,0,103.27026,48.671a12.4905,12.4905,0,0,0-.89343-4.81614ZM94.842,62.703a1.996,1.996,0,0,1-.27075.40358,2.73894,2.73894,0,0,1-2.12665.83751H54.65326a2.64469,2.64469,0,0,1-2.3653-1.12671,2.01555,2.01555,0,0,1,.00092-2.0509A23.50055,23.50055,0,0,1,72.25464,47.2691l-.2962-2.21112a25.36885,25.36885,0,0,0,1.59349,50.70307l-.00018-.00006A25.49225,25.49225,0,0,0,99.17969,70.40668a25.0796,25.0796,0,0,0-1.41864-8.30481ZM73.544,65.79608A7.38762,7.38762,0,0,1,73.53838,80.569h-.0061A7.388,7.388,0,0,1,73.544,65.79608ZM55.289,82.92169a2.97544,2.97544,0,0,1-2.542-1.95782l-.09619-.204a22.84949,22.84949,0,0,1-2.48041-9.87812c.03809-2.81091,1.98737-2.81091,2.81958-2.81091l5.85809-.00879,1.1316-.00177L59.975,69.1792l-.00611,1.35437a13.41809,13.41809,0,0,0,1.66059,6.45062l.43.78131-.67621.58649L56.725,82.392a2.33381,2.33381,0,0,1-1.43595.5297Zm32.05323,6.10279a1.37083,1.37083,0,0,1-.19623.17437,23.52521,23.52521,0,0,1-27.12641.047,1.42992,1.42992,0,0,1-.28631-.2348,2.168,2.168,0,0,1-.80658-1.6081,3.98052,3.98052,0,0,1,1.57068-2.79589l3.6311-3.15248.67963-.58954.72851.52925a13.66213,13.66213,0,0,0,16.02588-.001l.72839-.52748.67859.589L86.557,84.5686a4.01907,4.01907,0,0,1,1.61718,2.83887,2.17,2.17,0,0,1-.83189,1.617Zm7.09045-8.2351-.08246.17272a2.934,2.934,0,0,1-2.54145,1.95959,2.277,2.277,0,0,1-1.38085-.4837l-4.72571-4.0849-.6828-.59082.4395-.785a13.21957,13.21957,0,0,0,1.65657-6.44854V68.0603l1.12689.00177,5.87061.00879c.75952,0,2.77752,0,2.80871,2.77252a22.83505,22.83505,0,0,1-2.489,9.946Z"/></svg>