<svg xmlns="http://www.w3.org/2000/svg" viewBox="0 0 44 44"><g id="d0_t15_cc-aus_1p0_2p1020_1s1"><rect id="Hintergrund" x="5.41404" y="2.09685" width="33.17192" height="39.8063" rx="2.21146" fill="#010101"/><path id="Rahmen" d="M36.37453,2.53912H7.6255A1.76917,1.76917,0,0,0,5.85634,4.30829V39.69165A1.76913,1.76913,0,0,0,7.6255,41.46082h28.749a1.76917,1.76917,0,0,0,1.76916-1.76917V4.30829A1.76921,1.76921,0,0,0,36.37453,2.53912Zm.88458,37.15253a.88456.88456,0,0,1-.88458.88458H7.6255a.88456.88456,0,0,1-.88458-.88458V4.30829a.8846.8846,0,0,1,.88458-.88458h28.749a.8846.8846,0,0,1,.88458.88458Z" fill="#00f300"/><path id="Beschriftung" d="M20.0608,12.1625,17.21458,8.04931V12.1625H16.16174v-5.978h1.05284l2.73915,3.94367V6.18454h1.035v5.978ZM27.794,9.13783a4.083,4.083,0,0,0-.17845-1.2402A2.85052,2.85052,0,0,0,27.107,6.9251a2.34188,2.34188,0,0,0-.78517-.62457,2.2595,2.2595,0,0,0-1.00822-.223,2.54563,2.54563,0,0,0-1.06175.21413,2.22268,2.22268,0,0,0-.79409.61564,2.85074,2.85074,0,0,0-.50857.97254,4.73035,4.73035,0,0,0-.02677,2.409,3.205,3.205,0,0,0,.464.9993,2.50972,2.50972,0,0,0,.78517.71379,2.52271,2.52271,0,0,0,2.16812.04461,2.28033,2.28033,0,0,0,.78516-.64241,2.92372,2.92372,0,0,0,.49073-.98145A4.35583,4.35583,0,0,0,27.794,9.13784Zm-1.07068.02677a4.2378,4.2378,0,0,1-.06246.71379,2.109,2.109,0,0,1-.22305.65133,1.28364,1.28364,0,0,1-.42828.4818,1.188,1.188,0,0,1-.69594.18737,1.23409,1.23409,0,0,1-1.06175-.53534,2.53909,2.53909,0,0,1-.38366-1.499,2.50406,2.50406,0,0,1,.38366-1.4811,1.23406,1.23406,0,0,1,1.06175-.53534,1.18913,1.18913,0,0,1,1.04391.53534,2.597,2.597,0,0,1,.36582,1.4811ZM10.65927,17.64044a5.27092,5.27092,0,0,0-.02945-.55206,3.3182,3.3182,0,0,0-.08833-.5447,1.52355,1.52355,0,0,0-.19138-.48582.95242.95242,0,0,0-.33124-.3386.88383.88383,0,0,0-.50054-.1325.9205.9205,0,0,0-.5079.1325.975.975,0,0,0-.32388.3386,1.68248,1.68248,0,0,0-.19138.47845,3.94762,3.94762,0,0,0-.09569.54471q-.02208.2797-.02208.55206v.94956q0,.265.02208.55206a4.37782,4.37782,0,0,0,.081.56679,1.911,1.911,0,0,0,.19138.49318,1.11739,1.11739,0,0,0,.33124.346.93488.93488,0,0,0,.51526.13249.88383.88383,0,0,0,.50054-.13249,1.01615,1.01615,0,0,0,.33124-.346,1.61357,1.61357,0,0,0,.19138-.49318,3.67971,3.67971,0,0,0,.08833-.56679,5.415,5.415,0,0,0,.02945-.55206v-.9422Zm-.65512.4711v.25763a3.44335,3.44335,0,0,1-.00736.38277q-.00737.21346-.02944.44165a1.97893,1.97893,0,0,1-.081.41221.99985.99985,0,0,1-.13986.30915.273.273,0,0,1-.22819.11778.29268.29268,0,0,1-.23554-.11778,1.132,1.132,0,0,1-.14722-.30915,2.92137,2.92137,0,0,1-.081-.41221q-.02208-.22819-.03681-.44165-.00735-.21347-.00736-.38277.00737-.17666.00736-.25763,0-.08834-.00736-.25763,0-.17666.00736-.38276.01473-.21348.03681-.4343a2.6995,2.6995,0,0,1,.081-.39748.9161.9161,0,0,1,.14722-.29444.2927.2927,0,0,1,.23554-.11777.23979.23979,0,0,1,.19875.11041.91881.91881,0,0,1,.13249.28708,2.16347,2.16347,0,0,1,.08833.39748q.02944.21346.04417.42693.01471.2061.01472.38277.00736.17666.00736.27971ZM13.59359,15.653H12.9532l-.50054,2.80449L11.93,15.653h-.6404l.88331,4.93178h.53734Zm2.67267,4.93178V19.9444h-1.2587V18.21459h.795v-.65511h-.795V16.29341H16.2V15.653H14.38188v4.93178Zm2.99552-3.54794q0-1.38384-1.15566-1.38384h-.97163v4.93178h.62567v-2.304h.28708l.55942,2.304h.6404l-.50054-2.45853a.99435.99435,0,0,0,.39012-.41957,1.50953,1.50953,0,0,0,.12514-.66984Zm-.64039-.01472a.88012.88012,0,0,1-.0957.48582.40933.40933,0,0,1-.35332.13249h-.41221v-1.347h.30916a.50488.50488,0,0,1,.43429.15457,1.00016,1.00016,0,0,1,.11778.57415Zm2.997-.72872V15.653H19.74873v.6404h.60359v4.29138H20.978V16.29341Zm3.07315,4.29138L23.66838,15.653h-.633l-1.00844,4.93178h.6404L22.947,19.2672h.80969l.27971,1.31759Zm-1.07468-1.958h-.53l.27235-1.29551Zm4.04087,1.958L26.78179,17.346l.80969-1.693h-.72872l-.7729,1.57523V15.653h-.62567v4.93178h.62567V18.72985l.23555-.47845.66248,2.33339Zm1.51541,0V15.653h-.62568v4.93178Zm3.30536,0V15.653h-.62568v2.45853L30.97688,15.653H30.3512v4.93178h.62568V17.66253l.96427,2.92226Zm3.1441-2.38492h-.92011v.6404h.29444v.65511a.76964.76964,0,0,1-.08833.39749.28615.28615,0,0,1-.25763.13986.3149.3149,0,0,1-.265-.12514.99719.99719,0,0,1-.14722-.3754q-.02208-.15458-.0368-.3018t-.02944-.30915q-.00736-.16931-.01473-.36069t-.00736-.449q0-.25027.00736-.449t.01473-.36068q.01472-.16194.0368-.3018l.04417-.29443q.07361-.47847.43429-.47846.265,0,.30915.30916h.62567a1.19448,1.19448,0,0,0-.29443-.69929.856.856,0,0,0-.65512-.25027,1.08386,1.08386,0,0,0-.59622.14722.92427.92427,0,0,0-.33861.49318,3.25328,3.25328,0,0,0-.11041.35332,3.623,3.623,0,0,0-.07361.39749q-.02208.21347-.0368.49317-.00737.27236-.00736.6404,0,.3754.00736.65512.01471.2797.0368.50054a3.8288,3.8288,0,0,0,.05889.39748q.04416.17667.10305.346a.94889.94889,0,0,0,.346.5079,1.073,1.073,0,0,0,.611.15458.9878.9878,0,0,0,.56679-.15458A.79657.79657,0,0,0,35.549,20.099a2.54626,2.54626,0,0,0,.05152-.29444,2.78647,2.78647,0,0,0,.02209-.346ZM21.34242,26.65172a4.785,4.785,0,0,0-.09177-.94067,3.54355,3.54355,0,0,0-.25237-.803,1.76085,1.76085,0,0,0-.58887-.69594,1.50633,1.50633,0,0,0-.83361-.22178,1.844,1.844,0,0,0-.76476.1453,1.40961,1.40961,0,0,0-.543.42827,2.946,2.946,0,0,0-.413.91008,4.65177,4.65177,0,0,0-.04588,2.11077,3.46616,3.46616,0,0,0,.26.79536,1.63344,1.63344,0,0,0,.58122.69594,1.651,1.651,0,0,0,.89479.22178,1.45152,1.45152,0,0,0,1.23892-.57358,2.47008,2.47008,0,0,0,.413-.90242,4.62762,4.62762,0,0,0,.14531-1.1701Zm-.81065,0q0,.153-.0153.31355t-.04589.32121a2.80731,2.80731,0,0,1-.06118.29826q-.03824.13765-.07647.23707a1.13567,1.13567,0,0,1-.32121.49711.70407.70407,0,0,1-.46651.153.79906.79906,0,0,1-.413-.09942.859.859,0,0,1-.29062-.29826,1.876,1.876,0,0,1-.22943-.62711,4.04755,4.04755,0,0,1-.07647-.79536,4.537,4.537,0,0,1,.04588-.64241,2.37189,2.37189,0,0,1,.153-.55828,1.09982,1.09982,0,0,1,.32885-.4971.727.727,0,0,1,.4971-.13766.84442.84442,0,0,1,.38238.10706.81563.81563,0,0,1,.283.29062,2.05984,2.05984,0,0,1,.22943.63476,3.94014,3.94014,0,0,1,.07648.803ZM26.246,29.20605l-.90243-2.39373a1.10627,1.10627,0,0,0,.32121-.21414,1.30163,1.30163,0,0,0,.25237-.30591,1.4614,1.4614,0,0,0,.1606-.36709,1.37069,1.37069,0,0,0,.06118-.40532,1.2484,1.2484,0,0,0-.06118-.38239,1.317,1.317,0,0,0-.1606-.36709,1.198,1.198,0,0,0-.24473-.30591,1.172,1.172,0,0,0-.30591-.22178,1.3827,1.3827,0,0,0-.40533-.12236,2.95979,2.95979,0,0,0-.51239-.03824H22.75866v5.124h.81066V26.97292h.97126l.826,2.23313Zm-.91773-3.68619a.64326.64326,0,0,1-.08412.31355.604.604,0,0,1-.23708.22943.62085.62085,0,0,1-.19119.06883,1.72849,1.72849,0,0,1-.27532.0153h-.97126V24.89274h.97126a1.20873,1.20873,0,0,1,.283.023.63179.63179,0,0,1,.18354.06883.61387.61387,0,0,1,.3212.53534ZM12.83423,33.55568a1.15842,1.15842,0,0,0-.27532-.45121,1.1414,1.1414,0,0,0-.42827-.29061,1.34044,1.34044,0,0,0-.543-.10707H10.05811v5.124h.73418V35.58232h.79536a1.29689,1.29689,0,0,0,.9942-.36709,1.489,1.489,0,0,0,.3518-1.07067A1.67937,1.67937,0,0,0,12.83423,33.55568Zm-.61947.58888a.77307.77307,0,0,1-.1759.543.61728.61728,0,0,1-.48945.19119h-.75712V33.42567h.75712a.62493.62493,0,0,1,.48181.19884.73639.73639,0,0,1,.18354.52Zm4.49935,3.68619-1.27717-5.124h-.71888l-1.27717,5.124h.74183l.3365-1.39953h1.10127l.35944,1.39953Zm-1.27717-2.11842h-.73418l.35944-1.476Zm4.446-.283a3.595,3.595,0,0,0-1.07832-.87184,1.30269,1.30269,0,0,1-.38239-.29061.51323.51323,0,0,1-.09942-.32121.558.558,0,0,1,.1759-.42062.59657.59657,0,0,1,.42827-.16825.5755.5755,0,0,1,.413.1606.61592.61592,0,0,1,.18354.42827h.70359a1.41578,1.41578,0,0,0-.11471-.53533,1.25518,1.25518,0,0,0-.27532-.42063,1.19029,1.19029,0,0,0-.40533-.27532A1.256,1.256,0,0,0,18.927,32.615a1.23025,1.23025,0,0,0-.51239.10707,1.30145,1.30145,0,0,0-.42063.283,1.34257,1.34257,0,0,0-.27532.42827,1.31143,1.31143,0,0,0-.09942.51239,1.34192,1.34192,0,0,0,.153.63476,1.50908,1.50908,0,0,0,.47416.49711q.39.26766.55828.38238.17589.10707.22943.14531t.04588.04588q-.00764,0,.0306.03824a1.11852,1.11852,0,0,1,.3212.3518.80167.80167,0,0,1,.09177.39.8367.8367,0,0,1-.21414.543.689.689,0,0,1-.50474.22943.6671.6671,0,0,1-.32885-.07648.75042.75042,0,0,1-.22178-.19884,1.09941,1.09941,0,0,1-.13-.283,1.38255,1.38255,0,0,1-.03824-.3212h-.71888a1.85357,1.85357,0,0,0,.09942.60417,1.61518,1.61518,0,0,0,.283.5124,1.33425,1.33425,0,0,0,.45121.35179,1.365,1.365,0,0,0,.60417.13,1.31494,1.31494,0,0,0,.55063-.11471,1.51322,1.51322,0,0,0,.45122-.32121,1.3734,1.3734,0,0,0,.30591-.46651,1.51565,1.51565,0,0,0,.11471-.58887A1.59207,1.59207,0,0,0,19.88293,35.42937Zm3.66115,0a3.595,3.595,0,0,0-1.07832-.87184,1.30269,1.30269,0,0,1-.38239-.29061.51323.51323,0,0,1-.09942-.32121.558.558,0,0,1,.17589-.42062.59661.59661,0,0,1,.42828-.16825.57546.57546,0,0,1,.413.1606.61589.61589,0,0,1,.18355.42827h.70359a1.4156,1.4156,0,0,0-.11472-.53533,1.255,1.255,0,0,0-.27532-.42063,1.1901,1.1901,0,0,0-.40533-.27532,1.256,1.256,0,0,0-.50474-.09942,1.23027,1.23027,0,0,0-.5124.10707,1.30141,1.30141,0,0,0-.42062.283,1.3424,1.3424,0,0,0-.27532.42827,1.31143,1.31143,0,0,0-.09942.51239,1.34192,1.34192,0,0,0,.15295.63476,1.50918,1.50918,0,0,0,.47416.49711q.39.26766.55829.38238.17589.10707.22943.14531t.04588.04588q-.00765,0,.03059.03824a1.1184,1.1184,0,0,1,.3212.3518.80156.80156,0,0,1,.09178.39.8367.8367,0,0,1-.21414.543.689.689,0,0,1-.50474.22943.66714.66714,0,0,1-.32886-.07648.75054.75054,0,0,1-.22178-.19884,1.09938,1.09938,0,0,1-.13-.283,1.38255,1.38255,0,0,1-.03824-.3212H21.028a1.85357,1.85357,0,0,0,.09942.60417,1.61516,1.61516,0,0,0,.283.5124,1.33445,1.33445,0,0,0,.45121.35179,1.36506,1.36506,0,0,0,.60418.13,1.315,1.315,0,0,0,.55063-.11471,1.51347,1.51347,0,0,0,.45122-.32121,1.37352,1.37352,0,0,0,.3059-.46651,1.51548,1.51548,0,0,0,.11472-.58887A1.59207,1.59207,0,0,0,23.54408,35.42937Zm2.11631,2.40138v-5.124H24.9415v5.124Zm4.20461,0v-5.124h-.73418v3.07437l-1.40717-3.07437h-.73419v5.124h.73419V34.39693l1.58307,3.43382Zm4.07688-2.47785H32.62647v.71888h.58122v.3365q0,.79536-.55827.79536A.64932.64932,0,0,1,32.16,37.0048a1.22844,1.22844,0,0,1-.26767-.57358q-.05354-.29826-.08412-.62711-.02294-.32885-.02294-.65006a5.49019,5.49019,0,0,1,.06118-.84889,1.82971,1.82971,0,0,1,.16825-.58887.62752.62752,0,0,1,.58122-.38239.57879.57879,0,0,1,.42827.1606.60708.60708,0,0,1,.18354.42063h.73419a1.44116,1.44116,0,0,0-.12237-.52,1.26479,1.26479,0,0,0-.283-.413,1.1788,1.1788,0,0,0-.413-.26767,1.31145,1.31145,0,0,0-.5124-.09942,1.34557,1.34557,0,0,0-.42827.06882,1.25949,1.25949,0,0,0-.37474.19884,1.37906,1.37906,0,0,0-.29826.29827,1.39812,1.39812,0,0,0-.19119.36709,3.49269,3.49269,0,0,0-.1912.78006,8.553,8.553,0,0,0-.04588.94832,7.13034,7.13034,0,0,0,.06883.9942,3.42523,3.42523,0,0,0,.19884.77242,1.48652,1.48652,0,0,0,.52.6577,1.41218,1.41218,0,0,0,.79537.22178,1.20589,1.20589,0,0,0,1.13186-.71888,1.14088,1.14088,0,0,0,.11471-.34415,2.80488,2.80488,0,0,0,.03059-.45121Z" fill="#00f300"/></g></svg>