<?xml version="1.0" encoding="UTF-8"?>
<svg id="Layer_1" data-name="Layer 1" xmlns="http://www.w3.org/2000/svg" viewBox="0 0 44 44">
  <defs>
    <style>
      .cls-1, .cls-2 {
        isolation: isolate;
        opacity: .2;
      }

      .cls-1, .cls-3 {
        fill: none;
      }

      .cls-4 {
        fill-rule: evenodd;
      }

      .cls-4, .cls-2, .cls-5 {
        fill: lime;
      }

      .cls-3 {
        opacity: .5;
        stroke: lime;
        stroke-miterlimit: 10;
        stroke-width: 1.025px;
      }
    </style>
  </defs>
  <rect id="Hintergrund" class="cls-3" x="1.5" y="1.5" width="41" height="41" rx="3.075" ry="3.075"/>
  <g id="Ebene_1" data-name="Ebene 1">
    <path class="cls-2" d="m11.53106,4.81279c-4.25724.00021-7.70825,3.45156-7.70804,7.7088.00021,4.25724,3.45156,7.70825,7.7088,7.70804,4.25724-.00021,7.70825-3.45156,7.70804-7.7088-.00021-4.25695-3.45109-7.70783-7.70804-7.70804h-.00076Z"/>
    <g id="E57E_pACA_road" data-name="E57E pACA road">
      <path class="cls-5" d="m23.94976,35.96091l1.00772.76661c.73852-.96378,1.55493-1.86528,2.441-2.69544l-.86759-.92117c-.93731.87738-1.80062,1.83062-2.58113,2.85Z"/>
      <path class="cls-5" d="m29.01822,31.03567l.75631,1.016c.98505-.73063,2.00904-1.40723,3.06747-2.02681l-.6409-1.0922c-1.09821.64293-2.16073,1.34497-3.18288,2.10301Z"/>
      <path class="cls-5" d="m38.01141,26.08107c-1.02935.42375-2.03295.8672-2.97884,1.33074l.55847,1.13755c1.04275-.51185,2.15294-1.00412,3.29775-1.46537l-.87738-1.00292Z"/>
      <path class="cls-5" d="m40.09378,28.46099c-4.44715,1.62672-10.76546,6.88529-12.34091,13.49456h1.30755c1.6481-6.2901,7.85152-11.20736,11.93958-12.45889l-.90622-1.03567Z"/>
      <path class="cls-5" d="m22.22387,41.95556c.28603-.91406.65042-1.80172,1.08913-2.65311l-1.12106-.58938c-.53867,1.03566-.97438,2.1217-1.30086,3.24249h1.33279Z"/>
      <path class="cls-5" d="m15.396,41.95556c2.13237-5.41674,9.95711-14.7408,21.603-17.03122l-.94481-1.07972c-11.67887,2.58807-19.8318,11.85818-22.00899,18.11094h1.3508Z"/>
    </g>
    <g id="E57E_pACA_road-2" data-name="E57E pACA road-2" class="cls-1">
      <path class="cls-5" d="m29.06042,41.95556c1.6481-6.29011,7.85152-11.20737,11.93958-12.4589l-4.94575-5.652c-11.67893,2.58803-19.83186,11.85814-22.00905,18.1109h15.01522Z"/>
    </g>
    <path class="cls-4" d="m7.934,10.97939h7.19443v3.08334h-7.19443v-3.08334Z"/>
    <path class="cls-5" d="m19.23987,12.52099c.00003-4.25709-3.45098-7.70817-7.70807-7.70823h-.00073c-4.25684-.00016-7.70782,3.45055-7.70799,7.70739-.00015,3.96665,3.01031,7.28573,6.95817,7.67146v13.399h1.5v-13.399c3.94763-.38566,6.95814-3.7042,6.95862-7.67062Zm-7.70838,6.20856c-3.42879,0-6.20838-2.77959-6.20838-6.20838s2.77959-6.20838,6.20838-6.20838,6.20831,2.77951,6.20838,6.20826c-.00384,3.42721-2.78117,6.20457-6.20838,6.20846v.00004Z"/>
  </g>
</svg>