<svg xmlns="http://www.w3.org/2000/svg" viewBox="0 0 44 44"><g id="d0_t15_cc-irl_1p0_2p1020_1s1"><path id="Hintergrund" d="M36.14206,7.858a19.99989,19.99989,0,1,0,0,28.2841A19.99989,19.99989,0,0,0,36.14206,7.858Z" fill="#010101"/><path id="Piktogramm" d="M20.84555,21.03986a2.47591,2.47591,0,0,1-.28027-.48328L19.51035,18.1311a.66852.66852,0,0,0-.61231-.40033H12.22751a.66873.66873,0,0,0-.61237.40033l-1.05493,2.42548a2.47289,2.47289,0,0,1-.28027.48328l-.16028.2127a.80241.80241,0,0,0-.16064.48023v1.73456a.6667.6667,0,0,0,.66662.66662h9.874a.667.667,0,0,0,.66694-.66662V21.73279a.80444.80444,0,0,0-.16028-.48023Zm-9.61865-.37427.91669-2.10785a.2661.2661,0,0,1,.24517-.16034h6.348a.26681.26681,0,0,1,.24523.16034l.91663,2.10785ZM18.898,24.40131h1.60187V25.8689a.401.401,0,0,1-.40064.40033h-.80059a.40079.40079,0,0,1-.40064-.40033Zm-8.272,0h1.6015V25.8689a.40072.40072,0,0,1-.40033.40033h-.801a.40065.40065,0,0,1-.40021-.40033Zm23.25433-3.14875-.15936-.2127a2.48673,2.48673,0,0,1-.28131-.48328L32.38486,18.1311a.66735.66735,0,0,0-.61139-.40033H25.102a.66735.66735,0,0,0-.61139.40033l-1.05585,2.42548a2.479,2.479,0,0,1-.28027.48328l-.16071.2127a.80353.80353,0,0,0-.1593.48023v1.73456a.66635.66635,0,0,0,.667.66662h9.87293a.66671.66671,0,0,0,.66663-.66662V21.73279A.796.796,0,0,0,33.88034,21.25256Zm-9.779-.587.91669-2.10785a.26855.26855,0,0,1,.24524-.16034h6.34887a.26586.26586,0,0,1,.24427.16034l.9176,2.10785Zm-.59992,3.73572H25.102V25.8689a.40078.40078,0,0,1-.40063.40033h-.79969a.40066.40066,0,0,1-.40021-.40033Zm8.272,0H33.374V25.8689a.40066.40066,0,0,1-.40027.40033h-.80053a.4.4,0,0,1-.39972-.40033Z" fill="#00f300"/><path id="Rahmen" d="M22,2.39539A19.60461,19.60461,0,1,0,41.60458,22,19.60461,19.60461,0,0,0,22,2.39539ZM10.68631,33.31372A15.8871,15.8871,0,0,1,12.45108,9.1839L28.07687,36.80237A16.00226,16.00226,0,0,1,10.68631,33.31372Zm22.62738-.00006A16.044,16.044,0,0,1,31.54892,34.816L15.92313,7.19757A16.00079,16.00079,0,0,1,33.31369,33.31366Z" fill="#00f300" stroke="#010101" stroke-miterlimit="10" stroke-width="0.5"/></g></svg>