<svg xmlns="http://www.w3.org/2000/svg" viewBox="0 0 44 44"><g id="d0_t15_cc-irl_1p0_2p1023_1s1"><path id="Hintergrund" d="M22,2A20,20,0,1,1,2,22,20,20,0,0,1,22,2Z" fill="#010101"/><path id="Piktogramm" d="M30,28.4325V15.6h-.03687A8.0019,8.0019,0,0,0,14,16.32373v18.05h4V16.36121a4.00019,4.00019,0,0,1,8,0V28.4325a5.52418,5.52418,0,0,1-2.61371-.80628L28,35.57373l4.61376-7.94751A5.52441,5.52441,0,0,1,30,28.4325Z" fill="#00f300"/><path id="Rahmen" d="M22,2.39557A19.60443,19.60443,0,1,0,41.60443,22,19.60442,19.60442,0,0,0,22,2.39557ZM22,6a15.91287,15.91287,0,0,1,9.80011,3.37146L9.37146,31.80011A15.98187,15.98187,0,0,1,22,6Zm0,32a15.91318,15.91318,0,0,1-9.80018-3.37146L34.62854,12.19989A15.98187,15.98187,0,0,1,22,38Z" fill="#00f300" stroke="#010101" stroke-miterlimit="10" stroke-width="0.5"/></g></svg>