<?xml version="1.0" encoding="UTF-8"?>
<svg id="Ebene_1" data-name="Ebene 1" xmlns="http://www.w3.org/2000/svg" viewBox="0 0 44 44">
  <defs>
    <style>
      .cls-1 {
        fill: #00f300;
      }
    </style>
  </defs>
  <path d="M3.31162,38.48099c-.14002,0-.27703-.04-.39705-.11501-.34904-.21903-.45405-.68108-.23503-1.03012L20.27857,6.81685l1.07012-1.82721c.13502-.23553,.37704-.37854,.63807-.38354l.001,.0035c.19602,.0005,.38804,.08001,.52606,.21853,.15002,.15302,.28003,.33404,.38104,.53106l18.45913,31.99969c.06601,.11601,.10101,.24503,.10101,.37604,0,.41005-.33604,.74609-.74809,.74609H3.31162v-.00002Z"/>
  <path class="cls-1" d="M22.00077,4.03712c-.46344-.0061-.89566,.23298-1.13677,.62881L2.12264,37.02806c-.10107,.19533-.15409,.41195-.15464,.63188,.00021,.39264,.17373,.76517,.47417,1.01797,.23757,.20327,.54043,.31416,.85309,.31236H40.67556c.23525,.00516,.46657-.06087,.66363-.18946,.39105-.23589,.62972-.6596,.62881-1.11629-.00585-.23008-.06548-.4556-.1741-.65851L23.15495,4.66388l-.00544-.00846-.00568-.00877c-.06637-.10518-.14859-.19949-.24374-.27958-.21699-.18797-.48893-.30077-.77526-.32157-.03216-.00284-.06421-.00471-.09617-.00495,0,0-.02789-.00343-.02789-.00343Zm0,6.45195l14.23524,24.68124H7.76553S22.00077,10.48907,22.00077,10.48907Z"/>
  <path class="cls-1" d="M25.79001,22.24594h-3.52297c-3.21264-.00002-5.81701,2.60432-5.81703,5.81695,0,.00684,0,.01368,.00004,.02052l.00327,5.29469,1.68979-1.77172,1.68979,1.77172,.00307,.00073-.00238-5.29469c-.00567-1.35178,1.08557-2.45221,2.43736-2.45788h3.52301l1.77172-1.68979-1.77172-1.68979s-.00396-.00073-.00395-.00074Z"/>
</svg>