<?xml version="1.0" encoding="UTF-8"?>
<svg id="Ebene_1" data-name="Ebene 1" xmlns="http://www.w3.org/2000/svg" viewBox="0 0 44 44">
  <defs>
    <style>
      .cls-1 {
        fill-rule: evenodd;
      }

      .cls-1, .cls-2 {
        fill: #00f300;
      }
    </style>
  </defs>
  <path d="M3.31162,38.48099c-.14002,0-.27703-.04-.39705-.11501-.34904-.21903-.45405-.68108-.23503-1.03012L20.27857,6.81685l1.07012-1.82721c.13502-.23553,.37704-.37854,.63807-.38354l.001,.0035c.19602,.0005,.38804,.08001,.52606,.21853,.15002,.15302,.28003,.33404,.38104,.53106l18.45913,31.99969c.06601,.11601,.10101,.24503,.10101,.37604,0,.41005-.33604,.74609-.74809,.74609H3.31162v-.00002Z"/>
  <path class="cls-2" d="M21.99981,4.03417c-.46457-.03574-.90664,.20539-1.12811,.61533L2.10411,37.05693c-.11376,.18708-.18387,.39741-.20511,.61533,.01985,.39855,.20584,.77054,.51278,1.02555,.22326,.20504,.51742,.31534,.82044,.30766H40.66485c.22109-.0048,.43557-.0763,.61533-.20511,.40994-.22147,.65107-.66354,.61533-1.12811-.02124-.21792-.09135-.42825-.20511-.61533L23.12791,4.6495c-.10256-.10256-.10256-.20511-.20511-.30767-.22326-.20504-.51742-.31535-.82044-.30767h-.10255Zm0,6.46099l14.25517,24.7158H7.74465S21.99981,10.49514,21.99981,10.49515Z"/>
  <path class="cls-1" d="M26.8199,33.4675h-2.0511v-6.35842l-1.94855-1.94855v-6.15331h2.0511v5.33287l1.94855,1.94855s0,7.17886,0,7.17886Zm-7.69164,0h2.0511v-14.56283h-2.0511v14.56283Z"/>
</svg>