<svg xmlns="http://www.w3.org/2000/svg" viewBox="0 0 108 108"><defs><style>.cls-1{fill:#fff;}</style></defs><g id="Icons_in_schwarz" data-name="Icons in schwarz"><path class="cls-1" d="M54.97363,80.12128l-.09179-2.498a23.85289,23.85289,0,0,0,5.05078-.73242l.623,2.42187A26.35142,26.35142,0,0,1,54.97363,80.12128Zm-6.023-.4668a26.06289,26.06289,0,0,1-5.39111-1.67188l.99512-2.293a23.65065,23.65065,0,0,0,4.87353,1.51171ZM66.19531,77.1369,65.03125,74.924a23.84284,23.84284,0,0,0,4.2373-2.84668L70.876,73.99139A26.36293,26.36293,0,0,1,66.19531,77.1369Zm-27.8667-2.18359a26.426,26.426,0,0,1-4.13769-3.835l1.88574-1.64063a23.87386,23.87386,0,0,0,3.74512,3.46973Zm36.69678-5.35449-2.002-1.49805a23.76621,23.76621,0,0,0,2.60156-4.3916l2.27539,1.03515A26.307,26.307,0,0,1,75.02539,69.59882Zm-44.25244-3.46a26.10506,26.10506,0,0,1-2.083-5.24414l2.40918-.666a23.63309,23.63309,0,0,0,1.88379,4.74219ZM79.749,58.98749l-2.45312-.48242a23.91707,23.91707,0,0,0,.44824-4.6167l-.00488-.47217,2.5-.04492.00488.51709A26.49461,26.49461,0,0,1,79.749,58.98749Zm-51.98486-4.064q-.01977-.51489-.02-1.03467a26.41283,26.41283,0,0,1,.60059-5.60742l2.44238.53125a23.92334,23.92334,0,0,0-.543,5.07617q0,.471.01807.938Zm49.24268-6.9248a23.51221,23.51221,0,0,0-1.78711-4.77686l2.23242-1.125a26.07821,26.07821,0,0,1,1.97851,5.28565ZM32.56152,43.64227l-2.25488-1.08008a26.30324,26.30324,0,0,1,2.9707-4.79687L35.249,39.30243A23.767,23.767,0,0,0,32.56152,43.64227Zm39.65332-4.98681A23.83846,23.83846,0,0,0,68.53809,35.112l1.5332-1.97559A26.4438,26.4438,0,0,1,74.13281,37.051ZM39.083,35.40155,37.5127,33.45624a26.3209,26.3209,0,0,1,4.74218-3.05274L43.374,32.63885A23.8282,23.8282,0,0,0,39.083,35.40155Zm24.77832-3.123a23.6265,23.6265,0,0,0-4.84375-1.60791l.52734-2.44433a26.12571,26.12571,0,0,1,5.35547,1.77881ZM48.51172,30.77411l-.5752-2.43262a26.33609,26.33609,0,0,1,5.59571-.69873l.043,2.5A23.82226,23.82226,0,0,0,48.51172,30.77411Z"/></g></svg>