<svg xmlns="http://www.w3.org/2000/svg" viewBox="0 0 108 108"><defs><style>.cls-1{fill:#fff;}</style></defs><g id="Icons_in_schwarz" data-name="Icons in schwarz"><path class="cls-1" d="M60.13684,63.6146a9.66965,9.66965,0,0,1-6.00316-2.10794l-.12591-.10033-.1259.10033a9.60211,9.60211,0,0,1-12.00632,0l-.1259-.10033-.12591.10033a9.61331,9.61331,0,0,1-12.01418,0A9.61546,9.61546,0,1,1,41.62374,46.49041l.12591.10033.1259-.10033a9.6056,9.6056,0,0,1,12.00632,0l.1259.10033.12591-.10033a9.66627,9.66627,0,0,1,6.00217-2.107,9.56071,9.56071,0,0,1,6.00316,2.106l.12591.1023.12689-.10131a9.6103,9.6103,0,0,1,13.5103,13.5044,9.572,9.572,0,0,1-7.517,3.61389h-.001a9.50822,9.50822,0,0,1-5.99233-2.102l-.12689-.10131-.12591.10229a9.53976,9.53976,0,0,1-5.96873,2.107ZM72.37332,46.34483a7.62367,7.62367,0,0,0-4.56606,1.53153l-.1623.122.12394.16132a9.61412,9.61412,0,0,1,0,11.67777l-.12394.16132.1623.122A7.65256,7.65256,0,1,0,72.396,46.34483Zm-12.23648,0a7.583,7.583,0,0,0-4.5877,1.53054l-.16329.123.12493.16132a9.61416,9.61416,0,0,1,0,11.67777l-.12493.16132.16329.123a7.63942,7.63942,0,0,0,9.17441,0l.1623-.122-.123-.16131a9.639,9.639,0,0,1,0-11.67975l.123-.16132-.1623-.122A7.58225,7.58225,0,0,0,60.13684,46.34483Zm-12.25714,0a7.583,7.583,0,0,0-4.5877,1.53054l-.16329.123.12492.16132a9.618,9.618,0,0,1,0,11.67777l-.12492.16132.16329.123a7.64089,7.64089,0,0,0,9.17539,0l.1623-.122-.12295-.16131a9.629,9.629,0,0,1,0-11.67975l.12295-.16132-.1623-.122A7.583,7.583,0,0,0,47.8797,46.34483Zm-12.2601,0a7.65371,7.65371,0,1,0,4.58967,13.77588l.1623-.122-.123-.16033a9.629,9.629,0,0,1,0-11.67975l.123-.16033-.1623-.122a7.62363,7.62363,0,0,0-4.56606-1.53153Zm30.48105,3.309a7.67466,7.67466,0,0,0,0,8.69047l.16525.239.16525-.239a7.64872,7.64872,0,0,0,0-8.69145l-.16525-.239Zm-12.25911,0a7.6835,7.6835,0,0,0,0,8.68948l.16623.24.16526-.239a7.64872,7.64872,0,0,0,0-8.69145l-.16526-.239Zm-12.25813,0a7.6835,7.6835,0,0,0,0,8.68948l.16624.24.16525-.239a7.64412,7.64412,0,0,0,0-8.69145l-.16525-.239Z"/></g></svg>