<svg xmlns="http://www.w3.org/2000/svg" viewBox="0 0 108 108"><defs><style>.cls-1,.cls-2{fill:none;stroke-linejoin:round;}.cls-1{stroke:#fff;stroke-width:2px;}.cls-2{stroke:#969696;stroke-width:1.5px;}</style></defs><g id="Icons_in_schwarz" data-name="Icons in schwarz"><g id="Icons_in_schwarz-2" data-name="Icons in schwarz"><rect class="cls-1" x="41.0844" y="36.99288" width="9.84899" height="32.11153" rx="3.4218"/><rect class="cls-1" x="25.9529" y="46.01635" width="10.02757" height="13.89593" rx="3.4218"/><path class="cls-1" d="M70.977,52.9438V50.42393a3.42182,3.42182,0,0,1,3.42182-3.42181H77.553a3.4218,3.4218,0,0,1,3.4218,3.4218V55.817a3.42116,3.42116,0,0,1-1.79258,3.00979"/><path class="cls-1" d="M65.91871,53.99853V45.4226a3.42192,3.42192,0,0,0-3.42181-3.42182H59.49132a3.44733,3.44733,0,0,0-3.42181,3.45155V58.9952a3.39517,3.39517,0,0,0,1.85934,3.02847"/></g><g id="Ebene_1-2" data-name="Ebene 1"><path class="cls-2" d="M76.7179,62.36416a7.77748,7.77748,0,0,0-1.70606-2.171l.33417-2.88664a10.82668,10.82668,0,0,0-3.98688-1.59668L69.598,58.01358a8.3452,8.3452,0,0,0-2.7254.39386L64.531,56.66832A10.84953,10.84953,0,0,0,61.15144,59.31l1.12175,2.69363a8.34108,8.34108,0,0,0-1.04248,2.56378l-2.65815,1.15011a10.82877,10.82877,0,0,0,.58918,4.24614l2.88441.37433a7.8096,7.8096,0,0,0,1.717,2.19762l-.33459,2.88929a10.82755,10.82755,0,0,0,3.9688,1.59732l1.758-2.29987a8.3467,8.3467,0,0,0,2.7826-.40154l2.33673,1.73541a10.8309,10.8309,0,0,0,3.36314-2.635l-1.12233-2.696a8.33871,8.33871,0,0,0,1.04415-2.59414l2.654-1.14827a10.8215,10.8215,0,0,0-.60248-4.24334Z"/><circle class="cls-2" cx="69.39665" cy="66.36466" r="4.75"/></g></g></svg>