<?xml version="1.0" encoding="UTF-8"?>
<svg id="Ebene_1" data-name="Ebene 1" xmlns="http://www.w3.org/2000/svg" viewBox="0 0 108 108">
  <defs>
    <style>
      .cls-1 {
        fill: #fff;
      }
    </style>
  </defs>
  <path class="cls-1" d="M54.00398,67.66153c1.55545,0,2.81639,1.26094,2.81639,2.81639s-1.26094,2.81639-2.81639,2.81639-2.81639-1.26094-2.81639-2.81639,1.26094-2.81639,2.81639-2.81639Z"/>
  <path class="cls-1" d="M54.02686,35.88983c-9.48444,0-18.08386,3.86096-24.30981,10.09332l1.41364,1.41364c5.86383-5.87024,13.96326-9.50696,22.89618-9.50696s17.03235,3.63672,22.89606,9.50708l1.41351-1.41351c-6.22589-6.23254-14.82526-10.09357-24.30957-10.09357Z"/>
  <path class="cls-1" d="M54.02686,45.91522c-6.72046,0-12.81348,2.73669-17.22406,7.15369l1.41351,1.41351c4.04846-4.05487,9.64154-6.5672,15.81055-6.5672s11.7619,2.51239,15.8103,6.56744l1.41364-1.41364c-4.41046-4.41711-10.50342-7.15381-17.22394-7.15381Z"/>
  <path class="cls-1" d="M54.02686,55.88983c-3.97046,0-7.56952,1.61829-10.17395,4.22919l1.41351,1.41351c2.24231-2.24878,5.34143-3.6427,8.76044-3.6427s6.51794,1.39404,8.76019,3.64294l1.41364-1.41364c-2.60431-2.61096-6.20331-4.22931-10.17383-4.22931Z"/>
</svg>