<?xml version="1.0" encoding="utf-8"?>
<!-- Generator: Adobe Illustrator 22.1.0, SVG Export Plug-In . SVG Version: 6.00 Build 0)  -->
<svg version="1.1" id="Ebene_1" xmlns="http://www.w3.org/2000/svg" xmlns:xlink="http://www.w3.org/1999/xlink" x="0px" y="0px"
	 viewBox="0 0 72 72" style="enable-background:new 0 0 72 72;" xml:space="preserve">
<style type="text/css">
	.st0{fill:url(#SVGID_1_);}
	.st1{fill:#FFFFFF;}
</style>
<title>E4CB_greyedout_connectivity_apple_car_play_DA</title>
<g id="Logo">
	
		<linearGradient id="SVGID_1_" gradientUnits="userSpaceOnUse" x1="36" y1="-1042.5446" x2="36" y2="-971.7767" gradientTransform="matrix(1 0 0 -1 0 -971.3385)">
		<stop  offset="0" style="stop-color:#CBCBCB"/>
		<stop  offset="0.2321" style="stop-color:#BFBFBF"/>
		<stop  offset="0.7853" style="stop-color:#838383"/>
		<stop  offset="1" style="stop-color:#717171"/>
	</linearGradient>
	<path class="st0" d="M22.2,0h-4.5c-1.6,0-3.2,0.1-4.7,0.4c-1.6,0.3-3.1,0.8-4.6,1.5C7,2.7,5.7,3.6,4.6,4.7s-2,2.4-2.8,3.8
		C1.1,9.9,0.6,11.4,0.4,13C0.1,14.6,0,16.1,0,17.7v36.6c0,1.6,0.1,3.2,0.4,4.7c0.2,1.6,0.7,3.1,1.5,4.5c0.7,1.4,1.7,2.7,2.8,3.8
		c1.1,1.1,2.4,2.1,3.8,2.8c1.4,0.7,2.9,1.2,4.5,1.5s3.1,0.4,4.7,0.4h36.6c1.6,0,3.2-0.1,4.7-0.4c1.6-0.2,3.1-0.7,4.5-1.5
		c2.8-1.5,5.1-3.8,6.6-6.6c0.7-1.4,1.2-2.9,1.5-4.5s0.4-3.1,0.4-4.7V17.8c0-1.6-0.1-3.2-0.4-4.7c-0.2-1.6-0.7-3.1-1.5-4.5
		c-0.7-1.4-1.7-2.7-2.8-3.8c-1.1-1.1-2.4-2.1-3.8-2.8c-1.5-0.7-3-1.2-4.6-1.5C57.4,0.2,55.8,0,54.2,0H22.2z"/>
	<path class="st1" d="M53.4,47.7c0.6,0.5,0.7,1.4,0.2,2c-0.9,1.1-1.9,2.1-3,3s-2.3,1.7-3.5,2.4c-1.3,0.7-2.6,1.2-3.9,1.7
		c-1.4,0.4-2.8,0.7-4.2,0.9c-0.8,0.1-1.5,0.1-2.3,0.1c-0.7,0-1.5,0-2.2-0.1c-1.5-0.1-3-0.4-4.4-0.9c-1.4-0.4-2.7-1-4-1.7
		c-1.2-0.7-2.4-1.5-3.5-2.4s-2.1-1.9-3-3s-1.7-2.3-2.4-3.5c-0.7-1.3-1.2-2.6-1.7-3.9c-0.4-1.4-0.7-2.8-0.9-4.2c-0.2-1.5-0.2-3,0-4.5
		c0.1-1.5,0.4-3,0.9-4.4c0.4-1.4,1-2.7,1.7-4c0.7-1.2,1.5-2.4,2.4-3.5s1.9-2.1,3-3s2.3-1.7,3.5-2.4c1.3-0.7,2.6-1.2,3.9-1.7
		c1.4-0.4,2.8-0.7,4.2-0.9c1.5-0.2,2.9-0.2,4.4,0c1.5,0.1,3,0.4,4.4,0.9c1.4,0.4,2.7,1,4,1.7c1.2,0.7,2.4,1.5,3.5,2.4s2.1,1.9,3,3
		c0.5,0.6,0.4,1.6-0.2,2s-1.4,0.3-1.8-0.2c-0.8-0.9-1.7-1.8-2.6-2.6c-1-0.8-2-1.5-3.1-2.1s-2.3-1.1-3.5-1.5s-2.5-0.6-3.8-0.8
		c-1.3-0.1-2.6-0.1-3.9,0c-1.3,0.1-2.5,0.4-3.7,0.8s-2.3,0.9-3.4,1.4c-2.2,1.2-4.1,2.8-5.7,4.7c-0.8,1-1.5,2-2.1,3.1
		s-1.1,2.3-1.5,3.5s-0.6,2.5-0.8,3.8c-0.1,1.3-0.1,2.6,0,3.9c0.1,1.3,0.4,2.5,0.8,3.7s0.9,2.3,1.4,3.4c0.6,1.1,1.3,2.1,2.1,3.1
		c0.8,0.9,1.7,1.8,2.6,2.6c1,0.8,2,1.5,3.1,2.1s2.3,1.1,3.5,1.5c1.2,0.4,2.5,0.6,3.8,0.8c1.3,0.1,2.6,0.1,3.9,0
		c1.3-0.1,2.5-0.4,3.7-0.8c1.2-0.4,2.3-0.9,3.4-1.4c2.2-1.2,4.1-2.8,5.7-4.7C51.7,47.7,52.4,47,53.4,47.7z M32.5,26.2
		c-0.3-0.2-0.6-0.2-0.9,0s-0.5,0.5-0.5,0.8v17.1c0,0.3,0.2,0.6,0.5,0.8c0.1,0.1,0.3,0.1,0.5,0.1c0.2,0,0.3,0,0.5-0.1l14.8-8.5
		c0.4-0.2,0.6-0.7,0.4-1.2c-0.1-0.2-0.2-0.3-0.4-0.4L32.5,26.2z"/>
</g>
</svg>
