<svg id="Ebene_1" data-name="Ebene 1" xmlns="http://www.w3.org/2000/svg" xmlns:xlink="http://www.w3.org/1999/xlink" viewBox="0 0 72 72"><defs><style>.cls-1{fill:none;}.cls-2{fill:#0b577a;}.cls-3{fill:url(#Unbenannter_Verlauf);}.cls-4{fill:#0a5173;}.cls-5{fill:#fff;}.cls-5,.cls-6{fill-opacity:0.02;}.cls-6{fill:#263238;}.cls-7{fill:#9c9c9c;}.cls-7,.cls-8{fill-opacity:0.2;}.cls-8{fill:#064665;}.cls-9{clip-path:url(#clip-path);}.cls-10{fill:#787878;}.cls-11{fill:#707070;}.cls-12{fill:#767676;fill-opacity:0.4;}.cls-13{fill-opacity:0.1;}</style><linearGradient id="Unbenannter_Verlauf" x1="28.61139" y1="-486.84834" x2="61.04374" y2="-505.26723" gradientTransform="matrix(1, 0, 0, -1, 0, -449.33859)" gradientUnits="userSpaceOnUse"><stop offset="0" stop-color="#1a237e" stop-opacity="0.2"/><stop offset="1" stop-color="#1a237e" stop-opacity="0.02"/></linearGradient><clipPath id="clip-path"><path class="cls-1" d="M65.69736,52.70438l-26.1-45.3a4.162,4.162,0,0,0-3.6-2.1,3.967,3.967,0,0,0-3.6,2.1l-26.1,45.3a3.64454,3.64454,0,0,0-.5,2.1,4.05523,4.05523,0,0,0,4.1,4.1h6.6l-3.9,6.9,1.4,1.4,22-8.2,22,8.2,1.4-1.4-3.9-6.9h6.6a4.05523,4.05523,0,0,0,4.1-4.1A4.6483,4.6483,0,0,0,65.69736,52.70438Z"/></clipPath></defs><path class="cls-2" d="M9.89736,58.90438a4.05523,4.05523,0,0,1-4.1-4.1,3.93564,3.93564,0,0,1,.6-2.1l26-45.3a4.162,4.162,0,0,1,3.6-2.1,3.967,3.967,0,0,1,3.6,2.1l26.1,45.4a3.697,3.697,0,0,1,.6,2.1,4.05524,4.05524,0,0,1-4.1,4.1l-52.3-.1Z"/><path class="cls-3" d="M35.99736,24.50437v34.4H62.66923a6.14253,6.14253,0,0,0,2.91328-1.7211,4.26218,4.26218,0,0,0,.70477-2.389Z"/><path class="cls-4" d="M32.39736,7.40438l-26.1,45.3a3.64454,3.64454,0,0,0-.5,2.1,4.05523,4.05523,0,0,0,4.1,4.1h26.1v-53.6A4.08018,4.08018,0,0,0,32.39736,7.40438Z"/><rect class="cls-5" x="35.99736" y="5.30438" width="0.3" height="53.6"/><rect class="cls-6" x="35.59736" y="5.30438" width="0.3" height="53.6"/><path class="cls-7" d="M32.39736,7.70437a4.162,4.162,0,0,1,3.6-2.1,3.967,3.967,0,0,1,3.6,2.1l26.1,45.4a4.13619,4.13619,0,0,1,.5,1.9v-.2a3.93564,3.93564,0,0,0-.6-2.1l-26-45.3a4.162,4.162,0,0,0-3.6-2.1,3.967,3.967,0,0,0-3.6,2.1l-26.1,45.3a3.64454,3.64454,0,0,0-.5,2.1v.2a4.13622,4.13622,0,0,1,.5-1.9Z"/><path class="cls-8" d="M62.09736,58.60437h-52.2a4.07963,4.07963,0,0,1-4.1-3.9v.1a4.05523,4.05523,0,0,0,4.1,4.1h52.3a4.05523,4.05523,0,0,0,4.1-4.1v-.1A4.31981,4.31981,0,0,1,62.09736,58.60437Z"/><path class="cls-1" d="M65.69736,52.70438l-26.1-45.3a4.162,4.162,0,0,0-3.6-2.1,3.967,3.967,0,0,0-3.6,2.1l-26.1,45.3a3.64454,3.64454,0,0,0-.5,2.1,4.05523,4.05523,0,0,0,4.1,4.1h6.6l-3.9,6.9,1.4,1.4,22-8.2,22,8.2,1.4-1.4-3.9-6.9h6.6a4.05523,4.05523,0,0,0,4.1-4.1A4.6483,4.6483,0,0,0,65.69736,52.70438Z"/><g class="cls-9"><polygon class="cls-10" points="35.997 24.504 59.397 65.804 57.997 67.204 35.997 58.904 13.997 67.204 12.597 65.804 35.997 24.504"/><polyline class="cls-11" points="35.997 24.504 59.397 65.804 57.997 67.204 35.997 58.904"/><polygon class="cls-12" points="59.097 65.704 59.397 65.804 35.997 24.504 12.597 65.804 12.897 65.704 35.997 24.904 59.097 65.704"/><polygon class="cls-13" points="57.997 66.804 35.997 58.604 13.997 66.804 12.897 65.704 12.597 65.804 13.997 67.204 35.997 58.904 57.997 67.204 59.397 65.804 59.097 65.704 57.997 66.804"/></g></svg>