<svg xmlns="http://www.w3.org/2000/svg" viewBox="0 0 108 108"><defs><style>.Icon-graue-Kontur,.Icon-weisse-Kontur,.cls-1{fill:none;}.Icon-graue-Kontur{stroke:#969696;stroke-width:1.5px;fill-rule:evenodd;}.Icon-graue-Kontur,.Icon-weisse-Kontur{stroke-linejoin:round;}.Icon-weisse-Kontur,.cls-1{stroke:#fff;stroke-width:2px;}.cls-1{stroke-miterlimit:10;}</style></defs><g id="Ebene_1" data-name="Ebene 1"><polyline class="Icon-graue-Kontur" points="39.991 58.325 29.71 58.325 29.71 30.806 76.212 30.806 76.212 49.975"/><polyline class="Icon-weisse-Kontur" points="47.925 58.121 45 58.121 45 70.914 47.925 70.914"/><polygon class="Icon-weisse-Kontur" points="54.842 70.907 65.918 78.514 65.918 50.501 54.842 58.121 51.025 58.121 51.025 70.914 54.842 70.907"/><path class="cls-1" d="M75.15417,74.40087a13.57613,13.57613,0,0,0,.5898-19.1905q-.2888-.30712-.59625-.59586"/><path class="cls-1" d="M72.37242,71.4022a9.49819,9.49819,0,0,0,.35411-13.42781q-.175-.18445-.35964-.35935"/><path class="cls-1" d="M69.59159,68.40444a5.40287,5.40287,0,0,0,.14778-7.63939q-.07379-.0767-.15054-.15043"/><path class="Icon-weisse-Kontur" d="M75.15417,74.40087a13.57613,13.57613,0,0,0,.5898-19.1905q-.2888-.30712-.59625-.59586"/><path class="Icon-weisse-Kontur" d="M72.37242,71.4022a9.49819,9.49819,0,0,0,.35411-13.42781q-.175-.18445-.35964-.35935"/><path class="Icon-weisse-Kontur" d="M69.59159,68.40444a5.40287,5.40287,0,0,0,.14778-7.63939q-.07379-.0767-.15054-.15043"/></g></svg>