<svg id="Ebene_1" data-name="Ebene 1" xmlns="http://www.w3.org/2000/svg" viewBox="0 0 108 108"><defs><style>.cls-1,.cls-3{fill:none;stroke:#fff;}.cls-1{stroke-miterlimit:10;stroke-width:2.03324px;}.cls-2{fill:#fff;}.cls-3{stroke-width:2px;}</style></defs><g id="Icon"><circle class="cls-1" cx="65.5" cy="66.5" r="11.5"/><path id="Version_2" data-name="Version 2" class="cls-2" d="M61.0131,59.75342l12.12,6.73332-12.12,6.73331Z"/><path class="cls-3" d="M32.60965,45.48773a22.31644,22.31644,0,0,1,21.412-16.03244A21.40736,21.40736,0,0,1,74.79428,45.48773"/><path class="cls-2" d="M35.10875,46.998a.90141.90141,0,0,1,.89822.89829V62.10221a.90049.90049,0,0,1-.896.89975h-4.2202a.90037.90037,0,0,1-.89774-.89756V47.89877a.90155.90155,0,0,1,.896-.90073h4.21969M35.11094,45H30.88906A2.8961,2.8961,0,0,0,28,47.89633V62.1044A2.89508,2.89508,0,0,0,30.88906,65h4.22188A2.89493,2.89493,0,0,0,38,62.1044V47.89633A2.89579,2.89579,0,0,0,35.11094,45Z"/><path class="cls-2" d="M72,52.61365v-4.712A.90378.90378,0,0,1,72.89941,47h4.19141a.90343.90343,0,0,1,.90137.89917v9.70874a15.28264,15.28264,0,0,1,1.3872,2.37647c.22144.41027.43067.82788.6128,1.261V47.89917A2.90227,2.90227,0,0,0,77.093,45H72.89941A2.90263,2.90263,0,0,0,70,47.89917V51.829A15.15959,15.15959,0,0,1,72,52.61365Z"/></g></svg>