<svg xmlns="http://www.w3.org/2000/svg" viewBox="0 0 108 108"><defs><style>.Icon-graue-Kontur-3,.cls-1,.cls-2{fill:none;}.Icon-graue-Kontur-3{stroke:#969696;stroke-width:1.5px;}.Icon-graue-Kontur-3,.cls-2{stroke-linejoin:round;}.cls-1,.cls-2{stroke:#fff;stroke-width:2px;}.cls-1{stroke-miterlimit:10;}</style></defs><g id="Ebene_1" data-name="Ebene 1"><line class="Icon-graue-Kontur-3" x1="46.41514" y1="40.98306" x2="65.28972" y2="59.85764"/><line class="Icon-graue-Kontur-3" x1="43.45816" y1="46.81356" x2="32.20606" y2="55.85848"/><line class="Icon-graue-Kontur-3" x1="39.3394" y1="55.82084" x2="35.76015" y2="58.67557"/><line class="Icon-graue-Kontur-3" x1="56.40952" y1="71.51151" x2="53.43314" y2="76.61387"/><line class="Icon-graue-Kontur-3" x1="51.34495" y1="57.74458" x2="42.2218" y2="65.06163"/><path class="cls-1" d="M67.53982,45.49715c3.10034-3.06738,10.93188-11.0791,10.93188-11.0791.34742-.34741.40577-.635.05811-.98267L73.75466,28.5826a.78216.78216,0,0,0-1.15039.06006s-9.72094,9.33032-12.61865,12.228c-.49585.43555-.73364.40723-1.17847-.05273-.43017-.43018-1.41967-1.396-1.42138-1.39771l-6.13086-6.21533a.96506.96506,0,0,0-1.18579.01343l-6.09766,5.75684L27.47952,51.72469l18.4021,18.25488a.413.413,0,0,0,.55053.02686l9.44776-8.46509a.41251.41251,0,0,1,.57763.05664.4039.4039,0,0,1,.064.40893L49.74417,73.46248a.40475.40475,0,0,0,.09106.43872l7.154,7.09644L67.78811,62.60115l5.76294-5.78393a1.11384,1.11384,0,0,0-.08032-1.54175L66.2283,48.02059a.74831.74831,0,0,1,.0205-1.15235Z"/><path class="cls-2" d="M67.53982,45.49715c3.10034-3.06738,10.93188-11.0791,10.93188-11.0791.34742-.34741.40577-.635.05811-.98267L73.75466,28.5826a.78216.78216,0,0,0-1.15039.06006s-9.72094,9.33032-12.61865,12.228c-.49585.43555-.73364.40723-1.17847-.05273-.43017-.43018-1.41967-1.396-1.42138-1.39771l-6.13086-6.21533a.96506.96506,0,0,0-1.18579.01343l-6.09766,5.75684L27.47952,51.72469l18.4021,18.25488a.413.413,0,0,0,.55053.02686l9.44776-8.46509a.41251.41251,0,0,1,.57763.05664.4039.4039,0,0,1,.064.40893L49.74417,73.46248a.40475.40475,0,0,0,.09106.43872l7.154,7.09644L67.78811,62.60115l5.76294-5.78393a1.11384,1.11384,0,0,0-.08032-1.54175L66.2283,48.02059a.74831.74831,0,0,1,.0205-1.15235Z"/></g></svg>