<svg xmlns="http://www.w3.org/2000/svg" viewBox="0 0 108 108"><defs><style>.cls-1,.cls-2,.cls-3,.cls-5{fill:none;}.cls-1,.cls-2{stroke:#969696;stroke-linejoin:round;stroke-width:1.5px;}.cls-2{fill-rule:evenodd;}.cls-3,.cls-5{stroke:#fff;stroke-miterlimit:10;}.cls-3{stroke-width:1.7778px;}.cls-4{fill:#fff;}.cls-5{stroke-width:2px;}</style></defs><g id="Ebene_1" data-name="Ebene 1"><circle class="cls-1" cx="50.23519" cy="48.48631" r="1"/><circle class="cls-1" cx="51.5258" cy="48.48631" r="1"/><circle class="cls-1" cx="52.81642" cy="48.48631" r="1"/><circle class="cls-1" cx="54.10704" cy="48.48631" r="1"/><line class="cls-1" x1="33.38689" y1="37.61172" x2="29.11375" y2="36.58783"/><polyline class="cls-2" points="73.425 45.744 67.911 46.817 65.442 44.348 75.299 43.205"/><path class="cls-2" d="M63.11971,51.82617a17.51985,17.51985,0,0,0,1.76306-3.24,1.34058,1.34058,0,0,0-.29995-1.11486,13.72489,13.72489,0,0,0-3.08-2.72353l-19.0038-.00725a13.72489,13.72489,0,0,0-3.08,2.72353,1.34061,1.34061,0,0,0-.3,1.11487,28.749,28.749,0,0,0,3.6,5.92729c.11687.16091.48824.84313,1.14118.84313l13.45452.006"/><polyline class="cls-2" points="30.571 45.744 36.085 46.817 38.554 44.348 28.697 43.205"/><path class="cls-1" d="M54.332,59.06367c-.82082.00174-1.59685.00274-2.29231.00274h-.08333c-5.00853,0-14.19608-.0523-14.19608-.0523s-.09412,1.41765-.09412,1.85294a.753.753,0,0,1-.72353.79683c-.6366,0-8.47059.00317-8.92941.00317a.59521.59521,0,0,1-.57516-.66372c.00129-.46769.51574-16.108.68649-16.9048a9.27883,9.27883,0,0,1,1.753-2.75821A9.78344,9.78344,0,0,1,33.359,38.94986s3.75117-7.08555,5.27125-8.87532a2.42134,2.42134,0,0,1,2.035-1.21362c1.68226-.2302,8.05868-.54039,11.33444-.54039s9.64917.31023,11.33114.54039a2.42133,2.42133,0,0,1,2.03495,1.21362c1.52008,1.78977,5.27126,8.87532,5.27126,8.87532a9.78353,9.78353,0,0,1,3.48148,2.39046,9.279,9.279,0,0,1,1.753,2.75821c.08616.40209.25984,4.584.41095,8.68865"/><line class="cls-1" x1="70.60915" y1="37.61172" x2="74.8823" y2="36.58783"/></g><g id="Icon-2" data-name="Icon"><circle class="cls-3" cx="68.56803" cy="67.71853" r="12.44457"/><path class="cls-4" d="M67.40383,61.55825v-2.5056h2.31854v2.5056Zm.07037,14.38261V64.10507h2.14965V75.94086Z"/><circle class="cls-5" cx="68.56803" cy="67.71853" r="12.44457"/></g></svg>