<svg xmlns="http://www.w3.org/2000/svg" viewBox="0 0 108 108"><defs><style>.cls-1{fill:#969696;}.cls-2{fill:none;stroke-miterlimit:10;stroke-width:2px;}.cls-2,.cls-3{stroke:#fff;}.cls-3{fill:#fff;stroke-width:0.75px;}</style></defs><g id="Icon-2" data-name="Icon"><rect class="cls-1" x="28.00969" y="43.56973" width="36.96172" height="1.5"/><rect class="cls-1" x="28.00969" y="30.57463" width="36.96172" height="1.5"/><path class="cls-1" d="M57.07368,56.546h-29.064v1.5H56.687A14.18443,14.18443,0,0,1,57.07368,56.546Z"/><g id="E72F_AI_glowing" data-name="E72F AI glowing"><path class="cls-2" d="M60.50052,61.373a10.36217,10.36217,0,0,0,3.41438,7.265,10.28106,10.28106,0,0,1,2.64727,6.85139V76.79a1.81,1.81,0,0,0,1.75166,1.86641q.04372.0014.08749.00066h4.576a1.80994,1.80994,0,0,0,1.8398-1.77957q.00072-.04375-.00065-.0875V75.48943A10.281,10.281,0,0,1,77.46376,68.638a10.17629,10.17629,0,0,0,.77346-14.36011,11.13847,11.13847,0,0,0-7.53694-3.21769,10.09651,10.09651,0,0,0-10.20154,9.99037Q60.49706,61.21183,60.50052,61.373Z"/><line class="cls-2" x1="66.53075" y1="74.4936" x2="74.82666" y2="74.4936"/><line class="cls-2" x1="64.95015" y1="70.63929" x2="76.43159" y2="70.63929"/><path class="cls-3" d="M75.14312,60.37226l-.6965-1.09876a.72829.72829,0,0,0-1.40734.10689l-.38023.8993c-.13444.3196-.31628.50254-.497.50254s-.36257-.18294-.497-.50254l-.37912-.8993c-.151-.35485-.35706-.55653-.58739-.56646a.60979.60979,0,0,0-.583.56646l-.37911.8993c-.13444.3196-.3163.50254-.497.50254s-.36258-.18294-.497-.50254l-.38022-.8993a.72829.72829,0,0,0-1.40734-.10689l-.6965,1.09876a3.771,3.771,0,0,0-.40887,2.602l1.49991,5.68227a13.61525,13.61525,0,0,0,.486,1.533l.01542.02755h1.15056l-.05289-.6568-1.62555-6.03383a3.64126,3.64126,0,0,1-.02976-2.08841.37363.37363,0,0,1,.33393-.22374c.41328,0,.74279.70645.83426.92353l.38021.90039c.11462.27222.2634.43533.39785.43533.13335,0,.28213-.16311.39785-.43533l.3791-.90039c.22593-.53339.52129-.62487.67667-.63258l-.00226-.05593h0l.01767.05593c.15538.00772.45074.09919.67667.63258l.3791.90039c.11572.27222.26451.43533.39785.43533.13444,0,.28326-.16311.39784-.43533l.38023-.90039c.09141-.2171.421-.92353.83425-.92353a.37363.37363,0,0,1,.33393.22374,3.64092,3.64092,0,0,1-.02975,2.08841l-1.62556,6.03383L72.4,70.217h1.15825l.01323-.03858c.09146-.2744.41658-1.2795.48159-1.522l1.49882-5.68227A3.771,3.771,0,0,0,75.14312,60.37226Z"/></g></g></svg>