<svg xmlns="http://www.w3.org/2000/svg" viewBox="0 0 108 108"><defs><style>.cls-1,.cls-3,.cls-4{fill:none;}.cls-1,.cls-3{stroke:#969696;}.cls-1,.cls-4{stroke-linejoin:round;}.cls-1{stroke-width:1.5px;}.cls-2{fill:#969696;fill-rule:evenodd;}.cls-3{stroke-miterlimit:10;stroke-width:0.5px;}.cls-4{stroke:#fff;stroke-width:2px;}</style></defs><g id="square_in_weiss" data-name="square in weiss"><line class="cls-1" x1="35.99927" y1="47.19343" x2="72.33859" y2="47.19343"/><path class="cls-1" d="M34.98859,50.43282s5.1973-.002,7.13476-.002c2.604,0,4.83815-2.85,5.75924-2.85"/><path class="cls-1" d="M73.11812,50.43282s-5.1973-.002-7.13477-.002c-2.604,0-4.83814-2.85-5.75923-2.85"/></g><g id="Ebene_1" data-name="Ebene 1"><path class="cls-2" d="M53.99146,70.37469a69.774,69.774,0,0,1-15.84565-1.89416l-2.03869.993.6856.20447a60.97092,60.97092,0,0,0,17.22907,2.27875h.00354A60.97206,60.97206,0,0,0,71.25452,69.678l.68542-.20447-2.06921-.91174A69.71676,69.71676,0,0,1,53.99146,70.37469ZM31.92059,49.02875l-.38543-.65406A18.79266,18.79266,0,0,0,26.78253,52.42c-3.60931,4.09961-2.79126,9.07148,2.08667,12.683l.64166-1.44434c-2.22729-1.83313-3.5783-4.1178-3.60528-6.37488C25.99591,54.3125,28.33551,51.11212,31.92059,49.02875ZM81.291,52.42a18.79208,18.79208,0,0,0-4.75287-4.04535l-.38532.65406c3.58521,2.08337,5.92481,5.28375,6.01526,8.25506-.027,2.25708-1.37811,4.54175-3.60553,6.37488l.64166,1.44434C84.0824,61.49152,84.90033,56.51965,81.291,52.42Z"/><path class="cls-3" d="M53.99146,70.37469a69.774,69.774,0,0,1-15.84565-1.89416l-2.03869.993.6856.20447a60.97092,60.97092,0,0,0,17.22907,2.27875h.00354A60.97206,60.97206,0,0,0,71.25452,69.678l.68542-.20447-2.06921-.91174A69.71676,69.71676,0,0,1,53.99146,70.37469ZM31.92059,49.02875l-.38543-.65406A18.79266,18.79266,0,0,0,26.78253,52.42c-3.60931,4.09961-2.79126,9.07148,2.08667,12.683l.64166-1.44434c-2.22729-1.83313-3.5783-4.1178-3.60528-6.37488C25.99591,54.3125,28.33551,51.11212,31.92059,49.02875ZM81.291,52.42a18.79208,18.79208,0,0,0-4.75287-4.04535l-.38532.65406c3.58521,2.08337,5.92481,5.28375,6.01526,8.25506-.027,2.25708-1.37811,4.54175-3.60553,6.37488l.64166,1.44434C84.0824,61.49152,84.90033,56.51965,81.291,52.42Z"/><line class="cls-1" x1="69.18024" y1="43.13199" x2="72.00111" y2="42.56441"/><line class="cls-1" x1="38.86479" y1="43.13199" x2="36.04392" y2="42.56441"/><path class="cls-4" d="M53.98947,58.73168c-3.97225,0-11.25887-.04148-11.25887-.04148s-.07464,2.59551-.07464,2.94074a.59721.59721,0,0,1-.57383.632c-.50489,0-6.718.00252-7.08189.00252a.47206.47206,0,0,1-.45616-.5264c.001-.37092.409-12.7752.54445-13.40714a7.35946,7.35946,0,0,1,1.3903-2.18754A7.75926,7.75926,0,0,1,39.24,44.24848a69.71288,69.71288,0,0,1,4.18062-7.039,1.92036,1.92036,0,0,1,1.61391-.96252c1.3342-.18257,6.39132-.42858,8.98931-.42858s7.65273.246,8.98669.42858a1.92037,1.92037,0,0,1,1.61392.96252,69.71236,69.71236,0,0,1,4.18061,7.039,7.75917,7.75917,0,0,1,2.76115,1.89586,7.35906,7.35906,0,0,1,1.3903,2.18754c.13542.63194.54343,13.03622.54446,13.40714a.47207.47207,0,0,1-.45616.5264c-.36389,0-6.577-.00252-7.08189-.00252a.59721.59721,0,0,1-.57383-.632c0-.34523-.07464-2.94074-.07464-2.94074Z"/></g></svg>