<svg xmlns="http://www.w3.org/2000/svg" viewBox="0 0 108 108"><defs><style>.cls-1,.cls-2{fill:none;stroke-linejoin:round;}.cls-1{stroke:#fff;stroke-linecap:round;stroke-width:2px;}.cls-2{stroke:#969696;stroke-width:1.5px;}</style></defs><g id="Icons_in_weiss_und_grau" data-name="Icons in weiss und grau"><circle class="cls-1" cx="53.99793" cy="38.99946" r="3.0375"/><circle class="cls-2" cx="54.0014" cy="54.00139" r="24.99952"/><path class="cls-1" d="M51.99113,60.24172V70.612A1.93036,1.93036,0,0,1,50.053,72.43145,1.97608,1.97608,0,0,1,48.06568,70.612l.00838-21.18994-8.48229-4.58726a1.91024,1.91024,0,0,1-.941-2.45151,1.85681,1.85681,0,0,1,2.45151-.94105l9.64094,4.46738H57.2409L66.8846,41.426a1.85682,1.85682,0,0,1,2.45152.941,1.91026,1.91026,0,0,1-.941,2.45151l-8.48348,4.5879c0,.08251,0,15.55251,0,19.95162v1.254a1.97847,1.97847,0,0,1-1.9895,1.81941,1.92471,1.92471,0,0,1-1.932-1.81941V59.00412h-3.999Z"/></g></svg>