<svg xmlns="http://www.w3.org/2000/svg" viewBox="0 0 108 108"><defs><style>.cls-1{fill:#fff;}.cls-2,.cls-3{fill:none;stroke-linejoin:round;}.cls-2{stroke:#969696;stroke-width:1.5px;}.cls-3{stroke:#fff;stroke-width:2px;}</style></defs><g id="Ebene_1" data-name="Ebene 1"><path class="cls-1" d="M71.01592,53.04849h8.40946a1.5,1.5,0,0,1,1.5,1.5v0a1.42475,1.42475,0,0,1-1.42475,1.42475H71.01592a0,0,0,0,1,0,0V53.04849A0,0,0,0,1,71.01592,53.04849Z"/><path class="cls-1" d="M71.02585,42.0146h8.40946a1.5,1.5,0,0,1,1.5,1.5v0a1.42475,1.42475,0,0,1-1.42475,1.42475H71.02585a0,0,0,0,1,0,0V42.0146A0,0,0,0,1,71.02585,42.0146Z"/><path class="cls-2" d="M48.4393,48.94368c-5.25454,0-11.08509-.034-11.08509,4.23667s5.46,5.4365,5.46,9.70712a5.86027,5.86027,0,0,1-5.593,6.11585q-.15376.00687-.30773.00565H26.92858"/><path class="cls-3" d="M68.9909,59.09037H58.62033c-5.2659-.02476-9.51468-4.909-9.48992-10.17487q.0003-.06254.00141-.12506v.59528c-.18954-5.16985,3.84779-10.10976,9.01764-10.2993q.23534-.00863.47087-.00542H68.9909Z"/></g></svg>