<svg xmlns="http://www.w3.org/2000/svg" viewBox="0 0 108 108"><defs><style>.Icon-graue-Kontur,.cls-1{fill:none;stroke-linejoin:round;}.Icon-graue-Kontur{stroke:#969696;stroke-width:1.5px;}.graue-FlĂ¤che{fill:#969696;}.cls-1{stroke:#fff;stroke-width:2px;}</style></defs><g id="Icons_in_schwarz" data-name="Icons in schwarz"><line class="Icon-graue-Kontur" x1="34.04426" y1="47.4342" x2="43.01441" y2="47.4342"/><line class="Icon-graue-Kontur" x1="38.48897" y1="51.91746" x2="38.48897" y2="43.14731"/><circle class="graue-FlĂ¤che" cx="69.50806" cy="51.56698" r="1.60727"/><circle class="graue-FlĂ¤che" cx="69.5195" cy="43.49356" r="1.60727"/><circle class="graue-FlĂ¤che" cx="73.48208" cy="47.49831" r="1.60727"/><circle class="graue-FlĂ¤che" cx="65.53403" cy="47.49831" r="1.60727"/></g><g id="Ebene_1" data-name="Ebene 1"><path class="cls-1" d="M76.09589,39.85376a87.48209,87.48209,0,0,0-10.5539-1.834L61.8139,41.21613H45.72729l-3.728-3.19642a87.48838,87.48838,0,0,0-10.5539,1.834c-.68267,4.13953-3.20312,18.81158-3.88555,26.40961a39.27117,39.27117,0,0,0,8.13867,2.4104,144.15621,144.15621,0,0,0,6.14337-13.36121H65.69946A140.8382,140.8382,0,0,0,71.843,68.67377a39.26632,39.26632,0,0,0,8.13843-2.4104C79.29889,58.66534,76.77869,43.99329,76.09589,39.85376Z"/></g></svg>