<?xml version="1.0" encoding="UTF-8"?>
<svg id="Icons_in_weiss_und_grau" data-name="Icons in weiss und grau" xmlns="http://www.w3.org/2000/svg" viewBox="0 0 108 108">
  <defs>
    <style>
      .cls-1 {
        fill: #fff;
      }

      .cls-2 {
        stroke: #fff;
        stroke-width: 2px;
      }

      .cls-2, .cls-3 {
        fill: none;
        stroke-miterlimit: 10;
      }

      .cls-3 {
        stroke: #969696;
        stroke-width: 1.5px;
      }
    </style>
  </defs>
  <path class="cls-3" d="m47.7289,76.76322c-.75796.54626-2.18845.86807-3.19409.86807-2.54761,0-5.11285-2.06524-5.11285-4.61285l-.00067-25.45529-6.11453-6.17453v-7.41101l4.17055-4.63055h2.28943v6.5501l2.35181,2.35181h4.95796s2.35181-2.35181,2.35181-2.35181v-6.5501h2.28943s4.17055,4.63055,4.17055,4.63055v7.41101s-6.11453,6.17453-6.11453,6.17453v10.91436"/>
  <path class="cls-2" d="m76.6767,70.59375l-13.21008-22.88416c-.42151-.71301-1.341-.9494-2.05383-.52802-.21777.12878-.39929.3103-.52789.52802l-13.21649,22.88416c-.43597.69751-.22382,1.61639.47369,2.05243.2229.13934.47858.21716.74139.22571h26.57812c.82208-.02661,1.46716-.71454,1.44067-1.53674-.00848-.2627-.0863-.51855-.22559-.74139Z"/>
  <path class="cls-1" d="m61.11133,54.93597v11.05133h2v-11.05133h-2Zm0,15.08252h2v-2.11365h-2v2.11365Z"/>
</svg>