<?xml version="1.0" encoding="UTF-8"?>
<svg id="Icons_in_weiss_und_grau" data-name="Icons in weiss und grau" xmlns="http://www.w3.org/2000/svg" viewBox="0 0 108 108">
  <defs>
    <style>
      .cls-1 {
        fill: #fff;
      }

      .cls-2 {
        fill: none;
        stroke: #fff;
        stroke-linejoin: round;
        stroke-width: 2px;
      }

      .cls-3 {
        fill: #969696;
      }
    </style>
  </defs>
  <path class="cls-2" d="m79.31619,75.92016s-1.86535,0-4.64921,0c-2.15314,0-9.5016,3.3269-12.74726,3.32358-3.2988-.00337-12.50335-3.18661-12.50335-3.18661,0,0-9.86644-6.06507-10.30469-6.90661s1.12961-1.88879,2.31346-2.12576c1.86151-.37262,6.75757,2.94494,8.59476,3.92366,1.48152.78925,6.29156,1.21375,6.99903,1.21375,2.20986,0,3.64431.11875,3.66713-.33543.03608-.71801-.18013-1.58557-.18013-1.58557,0,0-4.23695-2.47723-5.9126-3.16869s-5.23989-2.70164-4.68142-4.49365c.73357-2.35388,3.73489-1.18622,6.75953.29829,3.02465,1.48451,3.98344,1.78465,5.78442,1.96511,1.51055.15136,3.52971-.73933,6.09153-.26493s3.92156,2.48932,5.80238,2.48932c1.17875,0,4.96642.01323,4.96642.01323"/>
  <g>
    <path class="cls-3" d="m62.33008,36.9035c-.27734-1.31689-5.91113-6.88135-7.30957-7.7915-1.70459-1.10986-12.03809-2.87256-14.18262-2.42578-1.13574.24023-2.97314,1.8374-5.86328,4.43994-1.9707,1.77393-4.42334,3.98193-5.28271,4.16357l-4.5376.95947.31055,1.46777,4.5376-.95947c1.16895-.24756,3.0376-1.87158,5.97559-4.5166,1.93652-1.74316,4.34619-3.91309,5.17041-4.08691,1.94922-.41797,11.80127,1.3999,13.05322,2.21484,1.03284.67212,3.97717,3.60767,5.59198,5.47559.39117.17499.77216.37598,1.12628.63281.52686.38232.96991.82874,1.35168,1.30713.09674-.27301.12451-.57086.05847-.88086Z"/>
    <path class="cls-3" d="m52.52246,37.98212c-.11804.01227-.24609.02417-.38.03589.00037-.00055.00067-.00122.00104-.00177-1.63635.14386-4.3313.24597-4.96283.26813-1.13818-.39111-2.38477-1.11572-2.50146-1.62158-.07715-.33154.05518-.80859.35303-1.27588.51465-.80762,1.38672-1.40869,2.32715-1.60791.60059-.10059,4.34961.46582,5.521,1.29736.29297.20752.65967.49756,1.07422.82422.08447.06653.17932.13983.26691.20868.50616-.28625,1.04712-.50916,1.61566-.64526-.33832-.25824-.66382-.513-.95386-.74164-.43799-.34521-.82568-.65039-1.13477-.86914-1.5415-1.09473-5.82031-1.72656-6.69385-1.54297-1.33154.28174-2.56055,1.13037-3.28711,2.27002-.52539.82373-.7207,1.68359-.55029,2.42041.37549,1.62598,3.08447,2.57764,3.62354,2.75195.08203.02637.16748.04248.25537.03564.12158-.00385,2.42413-.0816,4.27277-.20691.00043,0,.00092-.00006.00134-.00006h0c.48163-.03265.93396-.06836,1.30695-.10699,2.40674-.25195,5.23975.17676,5.42432,1.12451.09668.49365-.04297.74072-.15527.8833-.78711.99316-3.88818,1.11279-5.2124,1.16357-2.02307.07819-3.5415.22485-4.73846.3894-.05078.0069-.78021.11591-.84912.1272-.13068.02155-.57196.09906-.66486.11639-.08655.01624-.59698.11597-.75195.14874-.43164.09131-1.04248.2627-1.75732.46387-1.71484.4834-4.06396,1.14502-5.83154,1.18945-1.14648.03369-2.12061-.33105-3.06592-.67969-1.08447-.39941-2.10938-.77637-3.24658-.53613-1.14941.24316-4.84668,1.01123-4.84668,1.01123l.30469,1.46875s3.70117-.76904,4.85254-1.01221c.7124-.15332,1.50391.13916,2.41699.47559.9873.36426,2.10107.77441,3.45312.77441.05615,0,.11279-.00098.16992-.00195,1.95508-.04932,4.40869-.74072,6.2002-1.24561.67529-.19043,1.25244-.354,1.66113-.43994.15277-.03235.6377-.12701.7124-.14099.10541-.01978.53497-.09479.64301-.11249.09528-.01569.55157-.08539.68677-.10437.09644-.01361.96124-.12122,1.06317-.13245.17621-.01935.35626-.03851.54565-.0567.09863-.00952.20374-.01837.30609-.02753.20587-.01837.41357-.03662.63519-.05334.09406-.00708.19647-.01324.29346-.02008.2439-.01709.48798-.03406.75116-.04889.35498-.01996.72217-.03851,1.11456-.05365,3.0708-.11816,5.32178-.45801,6.33057-1.73145.45898-.57959.61133-1.28662.45215-2.10156-.5791-2.96777-6.78857-2.35596-7.05176-2.32959Z"/>
  </g>
  <path class="cls-1" d="m70.53809,53.77264l-7.2373-10.12598c.96875-2.49365.02734-5.42188-2.38086-7.16943-1.06836-.7749-2.32812-1.18457-3.64258-1.18457-1.98438,0-3.86426.95801-5.02881,2.56299-.03827.05273-.0697.10876-.1062.16235.13397-.01172.26202-.02362.38013-.03589.10754-.0108,1.21198-.11609,2.51575-.03809.66376-.41638,1.43762-.65137,2.23914-.65137.89062,0,1.74414.27783,2.46875.80371,1.78516,1.29492,2.4248,3.48096,1.52148,5.19727-.17578.33447-.14844.73975.07129,1.04736l7.32129,10.24365-.47266,2.40771-2.12793-.31543-.2832-.37402.10742-2.18799c.02344-.48291-.30176-.91406-.77344-1.02295l-2.02344-.46875.08984-1.97168c.02148-.47314-.29199-.89648-.75-1.01416l-1.83301-.47021.03613-2.00195c.00684-.36182-.18359-.69922-.49609-.88184l-1.06641-.62207c-.24902-.146-.54883-.17725-.82324-.08398-.2627.08838-.59766.13525-.9707.13525-.89453,0-1.74902-.27783-2.47266-.80371-.32324-.23444-.591-.51996-.83057-.82574-.37854.02527-.77014.04584-1.17871.06158-.39215.01514-.75903.03363-1.11383.05359.44.91669,1.10242,1.71545,1.9483,2.32874,1.06641.77588,2.32812,1.18555,3.64746,1.18555.40234,0,.79102-.03906,1.14551-.11426l.2002.11719-.04004,2.20557c-.00781.46289.30273.87158.75098.98682l1.81152.46484-.09082,1.9917c-.02148.48193.30371.91064.77344,1.01953l2.02051.46777-.08398,1.7168c-.01172.23438.06055.46582.20215.65234l.74902.98926c.15723.20898.3916.34766.65039.38574l3.47559.51465c.0498.00684.09863.01074.14746.01074.4707,0,.88672-.33203.98047-.80762l.74023-3.7666c.05273-.27002-.00781-.55029-.16797-.77441Z"/>
</svg>