<svg xmlns="http://www.w3.org/2000/svg" viewBox="0 0 108 108"><defs><style>.Icon-weisse-Kontur,.cls-1{fill:none;stroke-linejoin:round;}.Icon-weisse-Kontur{stroke:#fff;stroke-width:2px;}.cls-1{stroke:#969696;stroke-width:1.5px;}</style></defs><g id="Ebene_1" data-name="Ebene 1"><path class="Icon-weisse-Kontur" d="M78.91624,55.90578a7.77806,7.77806,0,0,0-.99679-2.57492l1.41383-2.8705A11.15188,11.15188,0,0,0,75.88706,47.687l-2.50769,1.97663a8.34478,8.34478,0,0,0-2.72147-.42017L68.8728,46.5749a11.17472,11.17472,0,0,0-4.12442,1.5843l.45971,3.17862a8.34065,8.34065,0,0,0-1.74652,2.14691l-3.183.20917a11.15378,11.15378,0,0,0-.69836,4.35985l2.974,1.18783a7.80982,7.80982,0,0,0,.99942,2.60358L62.13839,64.718a11.15232,11.15232,0,0,0,3.42822,2.76853l2.5043-1.97359a8.34715,8.34715,0,0,0,2.77842.42956l1.78234,2.66359a11.1555,11.1555,0,0,0,4.10618-1.58268l-.45976-3.181a8.33933,8.33933,0,0,0,1.757-2.17551l3.17883-.20953a11.14615,11.14615,0,0,0,.68441-4.3611Z"/><circle class="cls-1" cx="70.74008" cy="57.59047" r="4.42731"/><path class="Icon-weisse-Kontur" d="M62.74224,52.02027a17.394,17.394,0,0,0-.443-2.44037l-.10623-.39648a17.38411,17.38411,0,0,0-.8531-2.37117l-3.71624-.09932a14.16255,14.16255,0,0,0-2.39567-3.0273l.86294-3.54167a17.798,17.798,0,0,0-4.65831-2.5866l-2.68078,2.5311a14.6138,14.6138,0,0,0-3.68815-.41682L43.1449,36.54422a18.25581,18.25581,0,0,0-2.64893.50291l-.02043.00547a18.25652,18.25652,0,0,0-2.53682.88528l-.09756,3.68875a14.75467,14.75467,0,0,0-2.9162,2.20186l-3.65057-.88418a17.7996,17.7996,0,0,0-2.74311,4.55713l2.54688,2.69367a14.18863,14.18863,0,0,0-.55642,3.7718l-3.2145,1.96974a17.44776,17.44776,0,0,0,1.39218,5.21307l3.71908.0988a14.15843,14.15843,0,0,0,2.37606,3.03242l-.84271,3.5589a17.799,17.799,0,0,0,4.69155,2.60293l2.66068-2.52127a14.621,14.621,0,0,0,3.723.42138l1.88784,3.10336A18.24527,18.24527,0,0,0,49.37709,70.99l.37861-.10144a18.24447,18.24447,0,0,0,2.36306-.83707l.1002-3.65713A14.74539,14.74539,0,0,0,55.194,64.13865l3.6208.86387a17.79777,17.79777,0,0,0,2.72185-4.54859L59.00461,57.783a14.19166,14.19166,0,0,0,.545-3.806Z"/><circle class="cls-1" cx="45.13952" cy="53.96327" r="8.5"/></g></svg>