<svg xmlns="http://www.w3.org/2000/svg" viewBox="0 0 108 108"><defs><style>.cls-1{fill:#fff;}.Icon-weisse-Kontur-9{fill:none;stroke:#fff;stroke-linejoin:round;stroke-width:2px;}.graue-FlĂ¤che-2{fill:#969696;fill-rule:evenodd;}</style></defs><g id="Icons_in_schwarz" data-name="Icons in schwarz"><path class="cls-1" d="M61.30378,50.73069V43.40454h7.32616v7.32615ZM53.97763,27.75185l6.71564,11.21773H47.262Z"/><path class="Icon-weisse-Kontur-9" d="M53.97763,61.69246a70.30047,70.30047,0,0,0,7.98961-3.05406c3.17767-1.42615,2.99962-5.9178,2.99962-5.9178V47.99338"/><path class="Icon-weisse-Kontur-9" d="M53.97763,38.30217v40.029"/><circle class="cls-1" cx="42.98839" cy="51.66825" r="3.66308"/><circle class="cls-1" cx="53.97763" cy="76.08877" r="3.66308"/><path class="Icon-weisse-Kontur-9" d="M53.97943,66.57656a70.30114,70.30114,0,0,1-7.98961-3.05405c-3.17767-1.42616-2.99962-5.9178-2.99962-5.9178V52.87748"/><g id="E72E_000_garage" data-name="E72E 000 garage"><g id="mit-Zahlen"><path id="_2" data-name=" 2" class="graue-FlĂ¤che-2" d="M67.91654,78.93379V77.20923l4.4757-4.30559q.7281-.69732,1.34036-1.314.61373-.61593,1.11453-1.17611.50155-.56094.88282-1.0764a8.20139,8.20139,0,0,0,.64232-1.00895,4.74139,4.74139,0,0,0,.393-.97667,3.71452,3.71452,0,0,0,.132-.98253,3.6378,3.6378,0,0,0-.22-1.29637,2.49729,2.49729,0,0,0-.66871-.98547,3.04158,3.04158,0,0,0-1.138-.6218,5.42217,5.42217,0,0,0-1.62781-.217q-.73913,0-1.399.05865a11.49015,11.49015,0,0,0-1.25531.17893,9.60974,9.60974,0,0,0-1.12926.29914,7.50717,7.50717,0,0,0-1.02068.42529V62.22766a6.20075,6.20075,0,0,1,.93855-.42235,8.4031,8.4031,0,0,1,1.11159-.30794,11.2097,11.2097,0,0,1,1.28758-.18771q.68626-.06157,1.4782-.06157a10.36708,10.36708,0,0,1,1.90937.16131,6.67808,6.67808,0,0,1,1.51926.46341,4.26338,4.26338,0,0,1,1.14385.742,3.99915,3.99915,0,0,1,.789.9972,4.48939,4.48939,0,0,1,.45754,1.22891,6.71145,6.71145,0,0,1,.14666,1.44011,5.477,5.477,0,0,1-.18771,1.4401,6.61312,6.61312,0,0,1-.53087,1.3433,9.32058,9.32058,0,0,1-.82123,1.28464q-.47734.63131-1.05879,1.26116-.58073.63132-1.2524,1.27291-.67089.64232-1.38728,1.311l-3.02094,2.88021H79.9181v1.85943Z"/></g></g></g></svg>