<svg xmlns="http://www.w3.org/2000/svg" viewBox="0 0 108 108"><defs><style>.cls-1{fill:#969696;}.cls-2,.cls-3,.cls-4,.cls-5,.cls-6{fill:none;stroke-linejoin:round;}.cls-2,.cls-3{stroke:#969696;}.cls-2,.cls-3,.cls-4,.cls-5{stroke-width:1.5px;}.cls-3{fill-rule:evenodd;}.cls-4{stroke:#96142d;}.cls-5{stroke:#e41c3c;}.cls-6{stroke:#fff;stroke-width:2px;}</style></defs><g id="Ebene_1" data-name="Ebene 1"><circle class="cls-1" cx="48.25843" cy="59.00649" r="0.9"/><circle class="cls-1" cx="49.41999" cy="59.00649" r="0.9"/><circle class="cls-1" cx="50.58154" cy="59.00649" r="0.9"/><circle class="cls-1" cx="51.7431" cy="59.00649" r="0.9"/><line class="cls-2" x1="33.25371" y1="49.26897" x2="29.40788" y2="48.34747"/><polyline class="cls-3" points="69.288 56.588 64.325 57.553 62.103 55.331 70.975 54.303"/><path class="cls-3" d="M57.333,65.23941c.58765,0,.92188-.614,1.02706-.75883A25.874,25.874,0,0,0,61.6,59.146a1.20655,1.20655,0,0,0-.27-1.00338,12.35229,12.35229,0,0,0-2.772-2.45118l-17.10342-.00652a12.35245,12.35245,0,0,0-2.772,2.45118,1.20658,1.20658,0,0,0-.27,1.00338,25.87365,25.87365,0,0,0,3.24,5.33456c.10518.14482.43942.75882,1.02706.75882Z"/><polyline class="cls-3" points="30.72 56.588 35.682 57.553 37.904 55.331 29.033 54.303"/><path class="cls-3" d="M73.23405,50.74179c.525-.1875,4.60061-1.96356,6.2757-.70122,1.16107.875.83862,2.52367.47522,4.78562-.22968,1.42969-1.875,6.9.1125,8.55a3.386,3.386,0,0,0,3.4125.69375"/><path class="cls-3" d="M68.81353,51.04492s3.31749-.75781,3.54483-.75781.4589-.09683.62309.06736.59782.60625.6736.682.09262.1684-.01684.2947-2.51759,1.785-2.51759,1.785"/><line class="cls-2" x1="66.75374" y1="49.26897" x2="70.59957" y2="48.34747"/><polyline class="cls-4" points="35.796 51.362 40.731 51.362 44.939 43.479"/><polyline class="cls-5" points="47.301 38.817 48.514 36.592 32.865 36.592 25.081 51.362 28.017 51.362"/><path class="cls-6" d="M50.00372,68.57819h-.0375c-4.50767,0-12.77647-.04707-12.77647-.04707s-.0847,1.27588-.0847,1.66765a.67771.67771,0,0,1-.65118.71714c-.57294,0-7.62353.00286-8.03647.00286a.53569.53569,0,0,1-.51764-.59735c.00116-.42092.46417-14.49719.61784-15.21432a8.35123,8.35123,0,0,1,1.5777-2.4824,8.805,8.805,0,0,1,3.13333-2.1514s3.376-6.377,4.74413-7.9878a2.17917,2.17917,0,0,1,1.83145-1.09225c1.514-.20718,7.25282-.48635,10.201-.48635s8.68425.2792,10.198.48635a2.1792,2.1792,0,0,1,1.83146,1.09225c1.36807,1.6108,4.74413,7.9878,4.74413,7.9878a8.805,8.805,0,0,1,3.13333,2.1514,8.35123,8.35123,0,0,1,1.5777,2.4824c.15367.71713.61668,14.7934.61784,15.21432a.53569.53569,0,0,1-.51764.59735c-.41294,0-7.46353-.00286-8.03647-.00286a.67771.67771,0,0,1-.65118-.71714c0-.39177-.08471-1.66765-.08471-1.66765s-8.26879.04707-12.77647.04707Z"/></g></svg>