<svg xmlns="http://www.w3.org/2000/svg" viewBox="0 0 108 108"><defs><style>.cls-1{fill:#969696;}.cls-2,.cls-3,.cls-4{fill:none;stroke-linejoin:round;}.cls-2,.cls-3{stroke:#969696;stroke-width:1.5px;}.cls-3{fill-rule:evenodd;}.cls-4{stroke:#fff;stroke-width:2px;}</style></defs><g id="Ebene_1" data-name="Ebene 1"><circle class="cls-1" cx="48.41519" cy="57.04989" r="0.9"/><circle class="cls-1" cx="49.57675" cy="57.04989" r="0.9"/><circle class="cls-1" cx="50.7383" cy="57.04989" r="0.9"/><circle class="cls-1" cx="51.89986" cy="57.04989" r="0.9"/><line class="cls-2" x1="33.25173" y1="47.26276" x2="29.4059" y2="46.34126"/><polyline class="cls-3" points="69.286 54.582 64.323 55.547 62.101 53.325 70.973 52.297"/><path class="cls-3" d="M57.331,63.2332c.58764,0,.92188-.614,1.02706-.75883a25.87307,25.87307,0,0,0,3.24-5.33456,1.20659,1.20659,0,0,0-.27-1.00338,12.35253,12.35253,0,0,0-2.772-2.45117l-17.10342-.00652a12.35205,12.35205,0,0,0-2.772,2.45117,1.20656,1.20656,0,0,0-.27,1.00338,25.8734,25.8734,0,0,0,3.24,5.33456c.10517.14483.43941.75883,1.02705.75883Z"/><polyline class="cls-3" points="30.718 54.582 35.68 55.547 37.902 53.325 29.031 52.297"/><path class="cls-3" d="M73.23207,48.73559c.525-.1875,4.60061-1.96357,6.27571-.70123,1.16106.875.83861,2.52368.47522,4.78563-.22969,1.42968-1.875,6.9.1125,8.55a3.386,3.386,0,0,0,3.4125.69375"/><path class="cls-3" d="M68.81155,49.03871s3.3175-.75781,3.54484-.75781.45889-.09683.62308.06737.59782.60624.6736.682.09262.1684-.01684.2947-2.51759,1.785-2.51759,1.785"/><line class="cls-2" x1="66.75176" y1="47.26276" x2="70.59759" y2="46.34126"/><path class="cls-4" d="M50.00175,66.572h-.0375c-4.50768,0-12.77648-.04708-12.77648-.04708s-.0847,1.27588-.0847,1.66765a.67771.67771,0,0,1-.65118.71715c-.57294,0-7.62353.00285-8.03647.00285a.53569.53569,0,0,1-.51764-.59735c.00116-.42092.46417-14.49719.61784-15.21432a8.35105,8.35105,0,0,1,1.5777-2.48239,8.805,8.805,0,0,1,3.13333-2.15141s3.37606-6.377,4.74413-7.98779A2.17918,2.17918,0,0,1,39.80224,39.387c1.514-.20718,7.25281-.48635,10.201-.48635s8.68425.2792,10.198.48635a2.17918,2.17918,0,0,1,1.83146,1.09226c1.36807,1.61079,4.74413,7.98779,4.74413,7.98779a8.805,8.805,0,0,1,3.13333,2.15141,8.35105,8.35105,0,0,1,1.5777,2.48239c.15367.71713.61668,14.7934.61784,15.21432a.53569.53569,0,0,1-.51764.59735c-.41294,0-7.46353-.00285-8.03647-.00285a.67771.67771,0,0,1-.65118-.71715c0-.39177-.0847-1.66765-.0847-1.66765s-8.2688.04708-12.77647.04708Z"/></g></svg>