<svg id="Ebene_1" data-name="Ebene 1" xmlns="http://www.w3.org/2000/svg" viewBox="0 0 108 108"><defs><style>.cls-1{fill:#fff;}.cls-2{fill:none;stroke:#fff;stroke-linejoin:round;stroke-width:2px;}.cls-3{fill:#969696;fill-rule:evenodd;}</style></defs><g id="Icons_in_schwarz" data-name="Icons in schwarz"><path class="cls-1" d="M61.30419,50.73154V43.40538h7.32615v7.32616ZM53.978,27.75269l6.71565,11.21774H47.26239Z"/><path class="cls-2" d="M53.978,61.6933a70.30057,70.30057,0,0,0,7.98962-3.05405c3.17767-1.42616,2.99962-5.9178,2.99962-5.9178V47.99423"/><path class="cls-2" d="M53.978,38.303V78.332"/><circle class="cls-1" cx="42.9888" cy="51.6691" r="3.66308"/><circle class="cls-1" cx="53.97803" cy="76.08961" r="3.66308"/><path class="cls-2" d="M53.97984,66.57741a70.30119,70.30119,0,0,1-7.98961-3.05406c-3.17767-1.42616-2.99962-5.9178-2.99962-5.9178V52.87833"/><path class="cls-3" d="M72.89393,79.06142V63.79715l-4.611.79782V62.73534l5.47919-1.07354h1.39032V79.06142Z"/></g></svg>