<svg xmlns="http://www.w3.org/2000/svg" viewBox="0 0 108 108"><defs><style>.Icon-graue-Kontur-10,.Icon-weisse-Kontur-12{fill:none;stroke-linejoin:round;}.Icon-graue-Kontur-10{stroke:#969696;stroke-width:1.5px;fill-rule:evenodd;}.Icon-weisse-Kontur-12{stroke:#fff;stroke-width:2px;}.graue-FlĂ¤che-3{fill:#969696;}</style></defs><g id="Icons_in_schwarz" data-name="Icons in schwarz"><path class="Icon-graue-Kontur-10" d="M51.36779,31.37326c2.08488-1.56366,8.73045-2.21519,8.99106.26062.13031.91213-3.51824,1.95457-6.12435,4.43038-2.34549,2.34549-2.997,5.0819-1.04244,4.691,4.43038-.78184,9.12137-8.86076,11.46686-8.86076"/><path class="Icon-graue-Kontur-10" d="M69.55933,57.97585c0-.42737.1303-2.62641-.78184-2.62641-1.43335-.13031-3.38793-5.08191-3.38793-5.08191a8.81729,8.81729,0,0,0-3.77886-3.77885c-2.86671-1.303-.39091-2.73641-.39091-2.73641,2.21519-1.30305,4.43038.1303,6.385,1.95458.39091-.13031.26061-1.30306.26061-1.30306v-12.379c0-.91214.39091-1.82427,1.303-1.82427h.32122c.91214,0,1.301.91213,1.301,1.82427V42.31891"/><path class="Icon-graue-Kontur-10" d="M76.76483,41.01586c0-1.30306.2871-1.56367,1.45985-1.56367.91213,0,1.43335.39092,1.56366,1.04245V52.09181c0,1.04244-1.56366,2.08488-1.303,3.12732v2.72672"/><path class="Icon-graue-Kontur-10" d="M73.79079,39.32189c0-1.04244.97891-1.43336,1.76074-1.43336s1.0863.65153,1.21661,1.43336V43.622"/><path class="Icon-graue-Kontur-10" d="M70.78733,38.14914c0-.91214.878-1.30305,1.65985-1.30305.91214,0,1.2166.52122,1.34691,1.30305h0v4.82129"/><path class="Icon-weisse-Kontur-12" d="M70.97153,61.09137V74.07655h-42.969V49.08713H57.93569"/><rect class="graue-FlĂ¤che-3" x="33.99634" y="62.37242" width="2" height="1.7"/><rect class="graue-FlĂ¤che-3" x="37.01402" y="68.38861" width="24.93448" height="1.67726"/><rect class="graue-FlĂ¤che-3" x="40.02272" y="62.37242" width="2" height="1.7"/><rect class="graue-FlĂ¤che-3" x="45.99241" y="62.37242" width="2" height="1.7"/><rect class="graue-FlĂ¤che-3" x="51.99044" y="62.37242" width="2" height="1.7"/><rect class="graue-FlĂ¤che-3" x="58.0053" y="62.37242" width="2" height="1.7"/><rect class="graue-FlĂ¤che-3" x="64.00412" y="62.37242" width="2" height="1.7"/><rect class="graue-FlĂ¤che-3" x="31.99634" y="56.40077" width="2" height="1.7"/><rect class="graue-FlĂ¤che-3" x="38.02272" y="56.40077" width="2" height="1.7"/><rect class="graue-FlĂ¤che-3" x="43.99241" y="56.40077" width="2" height="1.7"/><rect class="graue-FlĂ¤che-3" x="49.99044" y="56.40077" width="2" height="1.7"/><rect class="graue-FlĂ¤che-3" x="56.0053" y="56.40077" width="2" height="1.7"/><rect class="graue-FlĂ¤che-3" x="62.00412" y="56.40077" width="2" height="1.7"/></g></svg>