<?xml version="1.0" encoding="UTF-8"?>
<svg id="Ebene_1" data-name="Ebene 1" xmlns="http://www.w3.org/2000/svg" viewBox="0 0 108 108">
  <defs>
    <style>
      .cls-1 {
        stroke: #fff;
        stroke-width: 2px;
      }

      .cls-1, .cls-2 {
        fill: none;
        stroke-miterlimit: 10;
      }

      .cls-3 {
        fill: #969696;
      }

      .cls-2 {
        stroke: #969696;
        stroke-width: 1.6px;
      }
    </style>
  </defs>
  <circle class="cls-2" cx="36.4805" cy="31.43365" r="3.8"/>
  <path class="cls-1" d="M80.5224,45.56946l-7.02704,3.62506-3.83722-2.44592,.21411-4.4787,7.03223-3.63409c-.31451-.60089-.51794-.92212-1.20984-1.28369-2.33453-.93835-5.03772-.89819-7.43195,.33704-3.24622,1.67474-5.36157,4.70386-5.08221,8.11377l-23.97681,21.41785c-1.77063-.61249-3.41888-.15454-5.21356,.77118-1.88544,.97272-3.099,2.65417-3.60211,4.57355-.11572,.4281-.13873,.56116,.08618,.95367l5.22211-2.69409,3.54987,2.27612-.18335,4.15802-5.25488,2.72363,.00769,.01495c.04193,.0611,.24786,.56512,1.13623,.84436,1.87207,.58606,3.75848,.50293,5.54315-.41779,2.83044-1.46014,4.23871-4.19165,3.67639-7.15063l24.46411-19.52008c2.38531,1.08411,5.25116,.77747,7.76172-.51758,2.52289-1.3017,4.13745-3.64819,4.60504-6.22913,.04492-.53827-.21271-.92676-.47986-1.4375Z"/>
  <path class="cls-3" d="M39.00854,39.59642v13.49532h-5.00692v-13.49532h5.00692m1.6-1.6h-10.49093v2.79982h2.28401v11.05159h-3.38235v2.84391h14.88648v-2.84391h-3.29721v-13.85141h0Z"/>
</svg>