<svg xmlns="http://www.w3.org/2000/svg" viewBox="0 0 108 108"><defs><style>.Icon-graue-Kontur,.Icon-weisse-Kontur,.cls-1{fill:none;}.Icon-graue-Kontur,.cls-1{stroke:#969696;stroke-width:1.5px;}.Icon-graue-Kontur,.Icon-weisse-Kontur{stroke-linejoin:round;}.Icon-weisse-Kontur{stroke:#fff;stroke-width:2px;}.cls-1{stroke-miterlimit:10;}</style></defs><g id="square_in_weiss" data-name="square in weiss"><line class="Icon-graue-Kontur" x1="40.60154" y1="33.00743" x2="40.61154" y2="73.96578"/></g><g id="Icons_in_schwarz" data-name="Icons in schwarz"><path class="Icon-weisse-Kontur" d="M35.97959,28.91143H71.11864a2,2,0,0,1,2,2V76.99017a2,2,0,0,1-2,2H35.97959a0,0,0,0,1,0,0V28.91143A0,0,0,0,1,35.97959,28.91143Z"/></g><g id="Ebene_1" data-name="Ebene 1"><path class="Icon-graue-Kontur" d="M56.5163,40.6098A8.97939,8.97939,0,0,0,47.46765,49.518v.0036A9.04624,9.04624,0,1,0,56.5163,40.6098Z"/><path class="Icon-graue-Kontur" d="M52.392,47.6015v2.6593c.04382,1.90619,1.84564,3.45551,4.15472,3.45551s4.06977-1.47168,4.07007-3.24268V47.57092Z"/><line class="Icon-graue-Kontur" x1="47.92458" y1="47.59168" x2="65.10303" y2="47.59168"/><line class="cls-1" x1="53.78655" y1="52.90725" x2="50.196" y2="56.49781"/><line class="cls-1" x1="59.23931" y1="52.90725" x2="62.82986" y2="56.49781"/><line class="Icon-graue-Kontur" x1="53.78655" y1="52.90725" x2="50.196" y2="56.49781"/><line class="Icon-graue-Kontur" x1="59.23931" y1="52.90725" x2="62.82986" y2="56.49781"/></g></svg>