<svg xmlns="http://www.w3.org/2000/svg" viewBox="0 0 108 108"><defs><style>.cls-1{fill:#969696;}.cls-2,.cls-3{fill:none;stroke:#fff;}.cls-2{stroke-linejoin:round;stroke-width:1.97435px;}.cls-3{stroke-width:4px;}</style></defs><g id="Ebene_1" data-name="Ebene 1"><path class="cls-1" d="M54.99353,58.21112h-9.5058a12.1119,12.1119,0,0,0,2.58264,2.5h6.92316Z"/><path class="cls-1" d="M66.919,49.19452H43.14355a12.00627,12.00627,0,0,0-.13867,1.72754c0,.26074.02271.51581.03913.77246H67.01849c.01642-.25665.03913-.51172.03913-.77246A12.00627,12.00627,0,0,0,66.919,49.19452Z"/><path class="cls-1" d="M46.22369,42.76093H63.83905a12.081,12.081,0,0,0-3.26379-2.5H49.48779A12.0804,12.0804,0,0,0,46.22369,42.76093Z"/><path class="cls-1" d="M73.00049,49.79413c.02337.37494.05713.74719.05713,1.12793,0,.12561-.0163.24707-.01886.37207H80v-1.5Z"/><path class="cls-1" d="M71.46936,43.56122c.21973.48865.41443.9895.5907,1.5H80v-1.5Z"/><path class="cls-1" d="M37.713,55.87421H28v1.5H38.21918C38.03009,56.8833,37.85919,56.38464,37.713,55.87421Z"/><path class="cls-1" d="M37.00488,50.92206c0-.39472.03412-.781.05927-1.16944H28v1.5h9.02161C37.01959,51.14154,37.00488,51.03363,37.00488,50.92206Z"/><path class="cls-1" d="M38.59308,43.56122H28v1.5H38.00238C38.17859,44.55072,38.37335,44.04987,38.59308,43.56122Z"/><path class="cls-2" d="M55.031,35.89605a15.0255,15.0255,0,1,0,.00135,0Z"/><path class="cls-3" d="M65.66753,61.35909,76.59881,72.49432"/></g></svg>