<svg xmlns="http://www.w3.org/2000/svg" viewBox="0 0 108 108"><defs><style>.Icon-graue-Kontur,.cls-1{fill:none;stroke-linejoin:round;}.cls-1{stroke:#fff;stroke-width:2px;}.Icon-graue-Kontur{stroke:#969696;stroke-width:1.5px;fill-rule:evenodd;}</style></defs><g id="Ebene_1" data-name="Ebene 1"><path class="cls-1" d="M54.10425,33.04712h-.21076L34.03741,37.29938c0,8.17474.00092,16.40149.00092,19.1264,0,4.26,1.01111,8.13129,4.9212,10.76642,4.48206,3.02026,6.02405,4.28906,14.89142,7.74042a.15911.15911,0,0,0,.1507-.00543c8.916-4.01691,10.49493-4.71473,14.97705-7.735,3.91009-2.63513,4.9212-6.50641,4.9212-10.76642,0-2.72491.00092-10.95166.00092-19.1264Z"/><path class="Icon-graue-Kontur" d="M62.26386,53.89715A7.7775,7.7775,0,0,0,62.256,51.136l2.04053-2.069a10.82689,10.82689,0,0,0-2.15869-3.71277l-2.80615.73108a8.3451,8.3451,0,0,0-2.39014-1.36755l-.77441-2.812a10.8491,10.8491,0,0,0-4.28955.001L51.10321,44.72a8.34085,8.34085,0,0,0-2.3999,1.37841l-2.80273-.73022A10.82862,10.82862,0,0,0,43.75067,49.077l2.04248,2.0708a7.81051,7.81051,0,0,0,0,2.78882l-2.04248,2.0708a10.82727,10.82727,0,0,0,2.14405,3.70215l2.80127-.73a8.34706,8.34706,0,0,0,2.43994,1.39673l.773,2.80615a10.83082,10.83082,0,0,0,4.27246-.00586l.77539-2.81543a8.33916,8.33916,0,0,0,2.41992-1.40137l2.79834.72913a10.82158,10.82158,0,0,0,2.13769-3.71472Zm-8.23218,3.395a4.75,4.75,0,1,1,4.75-4.75A4.75,4.75,0,0,1,54.03168,57.29217Z"/></g></svg>