<?xml version="1.0" encoding="UTF-8"?>
<svg id="Ebene_1" data-name="Ebene 1" xmlns="http://www.w3.org/2000/svg" viewBox="0 0 108 108">
  <defs>
    <style>
      .cls-1 {
        stroke: #fff;
      }

      .cls-1, .cls-2 {
        stroke-width: 2px;
      }

      .cls-1, .cls-2, .cls-3 {
        fill: none;
        stroke-linejoin: round;
      }

      .cls-4 {
        fill: #969696;
      }

      .cls-4, .cls-3 {
        fill-rule: evenodd;
      }

      .cls-2, .cls-3 {
        stroke: #969696;
      }

      .cls-3 {
        stroke-width: 1.5px;
      }
    </style>
  </defs>
  <path class="cls-4" d="M68.0498,53.47186c0,2.90411-1.24579,5.5163-3.22229,7.35223l1.06006,1.0603c2.24786-2.10809,3.66223-5.09479,3.66223-8.41254,0-3.2934-1.39301-6.26141-3.61212-8.36694l-1.06012,1.06024c1.94769,1.83356,3.17224,4.42688,3.17224,7.3067Z"/>
  <path class="cls-4" d="M72.2041,53.47186c0,4.04926-1.71271,7.69891-4.44104,10.28845l1.06006,1.0603c2.99988-2.86145,4.88098-6.88586,4.88098-11.34875,0-4.4386-1.85938-8.44458-4.83038-11.30316l-1.06006,1.06012c2.69946,2.58673,4.39044,6.21783,4.39044,10.24304Z"/>
  <path class="cls-4" d="M76.21484,53.47186c0,5.1554-2.1629,9.80713-5.61731,13.1236l1.06006,1.0603c3.72601-3.58826,6.05725-8.61487,6.05725-14.1839,0-5.54449-2.30945-10.5528-6.00665-14.13788l-1.06012,1.06018c3.42566,3.31335,5.56677,7.94678,5.56677,13.0777Z"/>
  <line class="cls-2" x1="40.06081" y1="72.91039" x2="54.00071" y2="72.91039"/>
  <line class="cls-2" x1="43.02988" y1="34.89471" x2="50.99391" y2="34.89471"/>
  <rect class="cls-1" x="34.12152" y="29.00763" width="25.89233" height="49.88831" rx=".43958" ry=".43958"/>
  <path class="cls-3" d="M44.48887,50.83962c-2.12251-1.06611-2.9229-3.60104-2.13525-5.95999,.85872-2.5718,3.6397-3.96052,6.21149-3.1018,2.5718,.85872,3.96052,3.6397,3.1018,6.21149-.47928,1.43542-1.59378,2.56958-3.02059,3.07389l-.61532,1.37152,1.62801,2.19283-1.73035,2.05861,1.73035,2.20081-1.92438,2.18353,1.67453,2.07987v1.01535l-2.26337,2.18486-2.49027-2.3058v-13.11921l-.16665-.08596Z"/>
  <path class="cls-4" d="M47.01964,43.72187c-.89215,.00037-1.61509,.7239-1.61472,1.61605s.7239,1.61509,1.61605,1.61472c.89215-.00037,1.61509-.7239,1.61472-1.61605h0c0-.89179-.72294-1.61472-1.61472-1.61472-.00044,0-.00089,0-.00133,0Z"/>
</svg>