<svg xmlns="http://www.w3.org/2000/svg" viewBox="0 0 108 108"><defs><style>.Icon-graue-Kontur-8,.Icon-weisse-Kontur-10{fill:none;stroke-linejoin:round;}.Icon-graue-Kontur-8{stroke:#969696;stroke-width:1.5px;}.Icon-weisse-Kontur-10{stroke:#fff;stroke-width:2px;}</style></defs><g id="square_in_weiss" data-name="square in weiss"><circle class="Icon-graue-Kontur-8" cx="64.03454" cy="48.03183" r="2"/></g><g id="Ebene_1" data-name="Ebene 1"><path class="Icon-graue-Kontur-8" d="M54.38892,38.68939A48.21673,48.21673,0,0,0,34.658,32.3598V70.41547a43.02069,43.02069,0,0,1,18.6496,1.90832H73.34277V38.68939Z"/><polygon class="Icon-graue-Kontur-8" points="67.993 61.485 65.457 61.485 65.457 53.432 60.361 53.432 60.36 53.98 62.503 53.981 62.501 61.497 59.991 61.496 59.991 62.017 68.007 62.005 67.993 61.485"/><polyline class="Icon-weisse-Kontur-10" points="31.001 37.135 31.001 76.001 49.781 76.001 51.434 77.521 55.237 77.521 56.82 76.001 77.001 76.001 77.001 35.001 57.001 35.001"/></g></svg>