<svg xmlns="http://www.w3.org/2000/svg" xmlns:xlink="http://www.w3.org/1999/xlink" viewBox="0 0 44 44"><defs><linearGradient id="Hintergrund_weiss" x1="1.9998" y1="29.69681" x2="42.0002" y2="29.69681" gradientUnits="userSpaceOnUse"><stop offset="0" stop-color="#ffd033"/></linearGradient><linearGradient id="Rahmen_schwarz" x1="2" y1="29.55" x2="42" y2="29.55" gradientUnits="userSpaceOnUse"><stop offset="0" stop-color="#010101"/><stop offset="0"/></linearGradient><linearGradient id="Beschriftung_schwarz" x1="7.53105" y1="30.05265" x2="37.20586" y2="30.05265" xlink:href="#Rahmen_schwarz"/></defs><title>speedlimit_school_work_usa_can_95</title><g id="speedlimit_school_work_usa_can_95"><rect id="Hintergrund_weiss-2" data-name="Hintergrund_weiss" x="1.9998" y="17.39363" width="40.00039" height="24.60637" rx="2.2107" fill="url(#Hintergrund_weiss)"/><path id="Rahmen_schwarz-2" data-name="Rahmen_schwarz" d="M39.8,18.1A1.15536,1.15536,0,0,1,41,19.3V39.8A1.15536,1.15536,0,0,1,39.8,41H4.2A1.15536,1.15536,0,0,1,3,39.8V19.3a1.15536,1.15536,0,0,1,1.2-1.2H39.8m0-1H4.2A2.21953,2.21953,0,0,0,2,19.3V39.8A2.21953,2.21953,0,0,0,4.2,42H39.8A2.21953,2.21953,0,0,0,42,39.8V19.3a2.21953,2.21953,0,0,0-2.2-2.2Z" fill="url(#Rahmen_schwarz)" stroke-width="0.5px" stroke="url(#Rahmen_schwarz)"/><path id="Beschriftung_schwarz-2" data-name="Beschriftung_schwarz" d="M7.53105,26.56584A4.59282,4.59282,0,0,1,9.31816,22.853a7.05071,7.05071,0,0,1,4.61231-1.46289A7.61567,7.61567,0,0,1,18.98125,23.103a5.92557,5.92557,0,0,1,2.0498,4.8125,10.58841,10.58841,0,0,1-3.26269,7.4248,10.83694,10.83694,0,0,1-7.8877,3.375V35.89006q5.2251-.82472,7.35059-4.82422a10.20177,10.20177,0,0,1-3.42578.5498,6.96575,6.96575,0,0,1-4.5-1.4248A4.45,4.45,0,0,1,7.53105,26.56584Zm2.97461-.02539a1.76772,1.76772,0,0,0,.97559,1.5625,4.89361,4.89361,0,0,0,2.5498.58789,5.41117,5.41117,0,0,0,2.61231-.5127,1.53221,1.53221,0,0,0,.88769-1.4375,1.75376,1.75376,0,0,0-.9248-1.63769,4.5822,4.5822,0,0,0-2.5752-.66211,4.89386,4.89386,0,0,0-2.5498.58691A1.7349,1.7349,0,0,0,10.50566,26.54045Zm26.7002,6.125a5.49341,5.49341,0,0,1-1.97461,4.33789,7.47032,7.47032,0,0,1-5.0752,1.71191,12.20481,12.20481,0,0,1-6.45019-1.875l1.57519-2.52441a10.12084,10.12084,0,0,0,4.875,1.375,4.69146,4.69146,0,0,0,3.04981-.86328,2.689,2.689,0,0,0,1.125-2.1875,2.54228,2.54228,0,0,0-1.02442-2.21192,4.49684,4.49684,0,0,0-2.77539-.8623,9.64276,9.64276,0,0,0-3.59961.77441l-2.60058-.75.4248-7.9248H35.93144v2.97461h-8.375l-.15039,2.45019a11.77761,11.77761,0,0,1,3.22461-.47461,6.68741,6.68741,0,0,1,4.72559,1.71192A5.6564,5.6564,0,0,1,37.20586,32.66545Z" fill="url(#Beschriftung_schwarz)"/></g></svg>