<svg xmlns="http://www.w3.org/2000/svg" data-name="Ebene 1" viewBox="0 0 44 44"><circle cx="22" cy="22" r="20" fill="#fff" /><path d="m22 3.09c-10.4 0-18.9 8.46-18.9 18.9s8.46 18.9 18.9 18.9 18.9-8.46 18.9-18.9-8.46-18.9-18.9-18.9zm0 32.9c-7.73 0-14-6.27-14-14s6.27-14 14-14 14 6.27 14 14-6.27 14-14 14z" fill="#e52421" /><line x1="10.4" x2="33.6" y1="10.4" y2="33.6" fill="none" stroke="#e52421" stroke-miterlimit="10" stroke-width="3.75px" /><path d="m22.7 22.5 4.55 7.74c0.0283 0.0737 0.111 0.111 0.185 0.0822 0.0378-0.0145 0.0677-0.0444 0.0822-0.0822l4.56-7.74c0.311-0.679 0.624-1.3 0.206-1.72-0.415-0.419-1.09-0.0518-1.35 0.156-0.261 0.207-1.93 1.41-1.93 1.41v-3.7c0-3-2.4-7.1-6.97-7.1-4.05 0.127-7.32 3.36-7.49 7.41v12.3c5.5e-4 0.144 0.118 0.261 0.262 0.262h2.54c0.145 0 0.262-0.117 0.262-0.262v-11.9c-0.0773-2.4 1.81-4.41 4.21-4.49 0.0441-0.00142 0.0882-0.00217 0.132-0.00225 2.04 0.0455 3.69 1.66 3.78 3.7l0.0362 3.78s-1.67-1.2-1.93-1.41c-0.259-0.207-0.936-0.575-1.35-0.156-0.478 0.478-0.053 1.24 0.314 1.89" fill="none" stroke="#fff" stroke-miterlimit="10" /><path d="m27.2 30.3c0.0283 0.0737 0.111 0.111 0.185 0.0822 0.0378-0.0145 0.0677-0.0444 0.0822-0.0822l4.56-7.74c0.311-0.679 0.624-1.3 0.206-1.72-0.415-0.419-1.09-0.0518-1.35 0.156-0.261 0.207-1.93 1.41-1.93 1.41v-3.7c0-3-2.4-7.1-6.97-7.1-4.05 0.127-7.32 3.36-7.49 7.41v12.3c5.5e-4 0.144 0.118 0.261 0.262 0.262h2.54c0.145 0 0.262-0.117 0.262-0.262v-11.9c-0.0773-2.4 1.81-4.41 4.21-4.49 0.0441-0.00142 0.0882-0.00217 0.132-0.00225 2.04 0.0455 3.69 1.66 3.78 3.7l0.0362 3.78s-1.67-1.2-1.93-1.41c-0.259-0.207-0.936-0.575-1.35-0.156-0.416 0.413-0.104 1.04 0.21 1.72" fill="#0066b3" /></svg>