<svg xmlns="http://www.w3.org/2000/svg" viewBox="0 0 40 40"><g id="t11_1p196"><rect y="7" width="40" height="26" fill="#fff" /><path d="M19.32444,28.81111a.77958.77958,0,0,1-.09128-.08911c-.0592-.06724-.46129-.57391-.48285-.60191l-.03524-.04587-.3452-.10644-.25205-.11751.13467-.15138.46258.198.3452.07085.63835.46951-.00049.0004Z" fill="#4e5b31" /><path d="M16.95378,28.09911a1.76152,1.76152,0,0,1-.88422-.24742l-.00031-.00018.00013-.00035a.45508.45508,0,0,1,.12791-.1376.81958.81958,0,0,1,.49333-.14h.0052a2.63844,2.63844,0,0,1,1.08325.30093,1.60137,1.60137,0,0,1-.82516.22462l.00045.00045Z" fill="#4e5b31" /><path d="M17.94533,27.54356a1.64353,1.64353,0,0,1-1.237-.60369.69821.69821,0,0,1-.11707-.44267l.00014-.00062.00058-.00018a.51253.51253,0,0,1,.11813-.013c.20524,0,.73022.10324,1.23547,1.05964l.00031.00062L17.945,27.5432Z" fill="#4e5b31" /><path d="M16.364,27.39067a1.34312,1.34312,0,0,1-.74587-.16907.45786.45786,0,0,1-.16382-.18333.30057.30057,0,0,1-.0264-.08991A1.00818,1.00818,0,0,1,15.773,26.875c.017-.0008.03418-.00129.05218-.00133a1.50141,1.50141,0,0,1,1.05093.47911l.0004.0004-.00049,0a4.00022,4.00022,0,0,1-.51244.03734Z" fill="#4e5b31" /><path d="M14.768,27.32933a1.6519,1.6519,0,0,1-1.1228-.40386l-.00031-.00036.00089-.00022a3.48851,3.48851,0,0,1,.68991-.09165l.06556-.00084a1.23161,1.23161,0,0,1,.74142.18778.21957.21957,0,0,1,.0968.12369.10143.10143,0,0,1-.04694.09555.70778.70778,0,0,1-.39755.08965l-.02667.00089Z" fill="#4e5b31" /><path d="M14.976,26.64044a1.90752,1.90752,0,0,1-1.24373-.38591.8125.8125,0,0,1-.18845-.24209.51654.51654,0,0,1-.04035-.10835l.00093-.0004a.59658.59658,0,0,1,.17267-.02573l.01635-.00018a1.75807,1.75807,0,0,1,1.28231.76235v.00045Z" fill="#4e5b31" /><path d="M15.73556,26.56978a1.70479,1.70479,0,0,1-1.04987-.51489,1.07471,1.07471,0,0,1-.23169-.38836.82778.82778,0,0,1,.17333-.02084l.02329-.00031.02458.00031a1.14315,1.14315,0,0,1,1.06022.92378h.00045Z" fill="#4e5b31" /><path d="M12.84667,26.29956a2.19468,2.19468,0,0,1-.53165-.06343.75826.75826,0,0,1-.47515-.2676.281.281,0,0,1-.04583-.11262.18991.18991,0,0,1-.00137-.04769l.00137-.00049a2.01038,2.01038,0,0,1,.46507-.059l.03222-.00027a1.94592,1.94592,0,0,1,.38063.03689,1.20652,1.20652,0,0,1,.71346.45067l.00022.0004-.00057.00013a2.206,2.206,0,0,1-.53867.06311Z" fill="#4e5b31" /><path d="M13.17067,25.69022a2.14179,2.14179,0,0,1-.53187-.23222,1.12884,1.12884,0,0,1-.58458-.83689v-.00022l.00062-.00018a.31863.31863,0,0,1,.0568-.00684l.01485-.00027a.68176.68176,0,0,1,.40653.15929,2.32353,2.32353,0,0,1,.63778.91778Z" fill="#4e5b31" /><path d="M13.812,25.66667a1.73467,1.73467,0,0,1-.42084-.2704,2.70037,2.70037,0,0,1-.74294-1.03689.34239.34239,0,0,1,.12827-.03191l.0136-.0004.02058.0004a.64554.64554,0,0,1,.45129.2428,2.93147,2.93147,0,0,1,.55128,1.0956l.00045.00142-.00133-.00045Z" fill="#4e5b31" /><path d="M11.67556,25.01956a2.84124,2.84124,0,0,1-.49516-.04232.514.514,0,0,1-.35613-.32693,1.13444,1.13444,0,0,1-.07991-.278h.00053a1.3493,1.3493,0,0,1,.999.33142.52053.52053,0,0,1,.14249.30764l-.0004,0c-.00089,0-.084.008-.21067.008Z" fill="#4e5b31" /><path d="M12.29022,24.40533c-.0008-.001-.06822-.08435-.1348-.18791a.67855.67855,0,0,1-.13458-.31484c0-.0896-.02106-.27849-.03364-.38307-.01591-.13267-.032-.24622-.03333-.25587l.00057.00018a.5527.5527,0,0,1,.36925.47071c0,.33285-.0328.66729-.03311.67063l0,.00049h-.00044Z" fill="#4e5b31" /><path d="M11.83111,24.37378,11.82,24.37284a1.81158,1.81158,0,0,1-.49213-.21413,2.10349,2.10349,0,0,1-.51645-.39071.87976.87976,0,0,1-.17244-.52116,1.93708,1.93708,0,0,1,.00386-.31835.184.184,0,0,1,.05845-.00907.51453.51453,0,0,1,.27507.1144,2.20943,2.20943,0,0,1,.28844.24507,4.41985,4.41985,0,0,1,.32.35427l.00142.00177c.01178.02111.11275.20316.19142.38036a1.22373,1.22373,0,0,1,.09.25538.138.138,0,0,1-.00018.07915.04.04,0,0,1-.01711.01991.0481.0481,0,0,1-.01956.004Z" fill="#4e5b31" /><path d="M18.10569,28.81111A.78022.78022,0,0,0,18.197,28.722c.0592-.06724.46129-.57391.48284-.60191l.03525-.04587.3452-.10644.252-.11751-.13467-.15138-.46257.198-.3452.07085-.63836.46951.00049.0004.37307.37307Z" fill="#4e5b31" /><path d="M20.47635,28.09911a1.76155,1.76155,0,0,0,.88423-.24742l.00031-.00018-.00014-.00035a.45508.45508,0,0,0-.12791-.1376.81953.81953,0,0,0-.49333-.14h-.0052a2.63836,2.63836,0,0,0-1.08324.30093,1.60135,1.60135,0,0,0,.82515.22462l-.00044.00045Z" fill="#4e5b31" /><path d="M19.4848,27.54356a1.64353,1.64353,0,0,0,1.237-.60369.69821.69821,0,0,0,.11707-.44267l-.00014-.00062-.00057-.00018a.51279.51279,0,0,0-.11814-.013c-.20524,0-.73022.10324-1.23546,1.05964l-.00031.00062.00088-.00044Z" fill="#4e5b31" /><path d="M21.06613,27.39067a1.3431,1.3431,0,0,0,.74587-.16907.45786.45786,0,0,0,.16382-.18333.30024.30024,0,0,0,.0264-.08991,1.00818,1.00818,0,0,0-.34511-.07334c-.017-.0008-.03418-.00129-.05218-.00133a1.50143,1.50143,0,0,0-1.05093.47911l-.0004.0004.00049,0a4.00035,4.00035,0,0,0,.51244.03734Z" fill="#4e5b31" /><path d="M22.66213,27.32933a1.6519,1.6519,0,0,0,1.1228-.40386l.00031-.00036-.00089-.00022a3.48851,3.48851,0,0,0-.68991-.09165l-.06555-.00084a1.23157,1.23157,0,0,0-.74142.18778.21957.21957,0,0,0-.0968.12369.1014.1014,0,0,0,.04693.09555.70778.70778,0,0,0,.39755.08965l.02667.00089Z" fill="#4e5b31" /><path d="M22.45413,26.64044a1.90758,1.90758,0,0,0,1.24374-.38591.81243.81243,0,0,0,.18844-.24209.51751.51751,0,0,0,.04036-.10835l-.00094-.0004a.59655.59655,0,0,0-.17266-.02573l-.01636-.00018a1.75809,1.75809,0,0,0-1.28231.76235v.00045Z" fill="#4e5b31" /><path d="M21.69458,26.56978a1.70479,1.70479,0,0,0,1.04986-.51489,1.07453,1.07453,0,0,0,.23169-.38836.82778.82778,0,0,0-.17333-.02084l-.02329-.00031-.02458.00031a1.14316,1.14316,0,0,0-1.06022.92378h-.00044Z" fill="#4e5b31" /><path d="M24.58347,26.29956a2.1946,2.1946,0,0,0,.53164-.06343.75833.75833,0,0,0,.47516-.2676.2809.2809,0,0,0,.04582-.11262.18962.18962,0,0,0,.00138-.04769l-.00138-.00049a2.01038,2.01038,0,0,0-.46507-.059l-.03222-.00027a1.94581,1.94581,0,0,0-.38062.03689,1.20656,1.20656,0,0,0-.71347.45067l-.00022.0004.00058.00013a2.20571,2.20571,0,0,0,.53866.06311Z" fill="#4e5b31" /><path d="M24.25947,25.69022a2.142,2.142,0,0,0,.53186-.23222,1.12884,1.12884,0,0,0,.58458-.83689v-.00022l-.00062-.00018a.31863.31863,0,0,0-.0568-.00684l-.01485-.00027a.68178.68178,0,0,0-.40653.15929,2.32353,2.32353,0,0,0-.63778.91778Z" fill="#4e5b31" /><path d="M23.61813,25.66667a1.7346,1.7346,0,0,0,.42085-.2704,2.70047,2.70047,0,0,0,.74293-1.03689.34223.34223,0,0,0-.12827-.03191l-.0136-.0004-.02057.0004a.64551.64551,0,0,0-.45129.2428,2.93131,2.93131,0,0,0-.55129,1.0956l-.00045.00142.00134-.00045Z" fill="#4e5b31" /><path d="M25.75458,25.01956a2.84121,2.84121,0,0,0,.49515-.04232.514.514,0,0,0,.35614-.32693,1.13549,1.13549,0,0,0,.07991-.278h-.00054a1.3493,1.3493,0,0,0-.999.33142.52053.52053,0,0,0-.14249.30764l.0004,0c.00089,0,.084.008.21067.008Z" fill="#4e5b31" /><path d="M25.13991,24.40533c.0008-.001.06822-.08435.1348-.18791a.67855.67855,0,0,0,.13458-.31484c0-.0896.02106-.27849.03364-.38307.01591-.13267.032-.24622.03334-.25587l-.00058.00018a.5527.5527,0,0,0-.36925.47071c0,.33285.0328.66729.03311.67063l.00005.00049H25.14Z" fill="#4e5b31" /><path d="M25.599,24.37378l.01111-.00094a1.81175,1.81175,0,0,0,.49214-.21413,2.10361,2.10361,0,0,0,.51644-.39071.87976.87976,0,0,0,.17244-.52116,1.93708,1.93708,0,0,0-.00386-.31835.18394.18394,0,0,0-.05845-.00907.51448.51448,0,0,0-.27506.1144,2.20946,2.20946,0,0,0-.28845.24507,4.41626,4.41626,0,0,0-.32.35427l-.00143.00177c-.01177.02111-.11275.20316-.19142.38036a1.22356,1.22356,0,0,0-.08995.25538.13794.13794,0,0,0,.00017.07915.04.04,0,0,0,.01712.01991.048.048,0,0,0,.01955.004Z" fill="#4e5b31" /><path id="path9" d="M31.05911,10.91l-3.45484,1.54427L27.164,12.4096l-.29164.38316-2.771,1.26608-3.72462.7468-3.62978-.198L15.35138,14.051l.18764,1.17711-.29257,1.29711-.85752.42783-1.57729-.55734-.74982.27427-.18742-.06084-.46431.80417-1.027.66094L9.28818,17.431l-.07685.42773.42454.89222-.00974.84569.69867.64929.13164.85933,2.9524,1.26969,1.06618-.30484.924.51964.1148.5996.42871-.10693.48711.11382-.25533-.64391.61885-.70089.7036-.22844,1.14862.0656.00018-.00027,3.15053-1.203L22.127,19.957l.03245-.66765.42813-.48813,1.23422.06.38836.29387.43142-.309,1.07924-.14369.65383.17809-1.7988-2.62617.54511-1.13369.81235-.06889.76432-.93218,2.6731-1.70338.36218-.46129,1.16289-.55791.16258-.48853Z" fill="#d37910" /></g></svg>