<svg xmlns="http://www.w3.org/2000/svg" viewBox="0 0 50 58"><defs><linearGradient id="Background"><stop offset="0" stop-color="#757575" /></linearGradient><linearGradient id="Frame"><stop offset="0" stop-color="#757575" /></linearGradient><linearGradient id="Pictogram"><stop offset="0" stop-color="#ffffff" /></linearGradient></defs><path d="m44.2 2.75h-38.5a3 3 0 0 0-3 3v38.5a3 3 0 0 0 3 3h7.78l11.5 9.43 11.5-9.43h7.78a3 3 0 0 0 3-3v-38.5a3 3 0 0 0-3-3z" fill="url(#Background)" stroke="url(#Frame)" stroke-miterlimit="10" stroke-width="1.5" /><line fill="#fff" stroke="url(#Pictogram)" stroke-miterlimit="10" stroke-width="1.5" x1="18" x2="32" y1="39.2" y2="39.2" /><line fill="#fff" stroke="url(#Pictogram)" stroke-miterlimit="10" stroke-width="1.5" x1="16" x2="34" y1="42.2" y2="42.2" /><polygon fill="url(#Pictogram)" points="25.8 10.3 25.8 6.75 24.2 6.75 24.2 9.97" /><polygon fill="url(#Pictogram)" points="24.2 14.1 24.2 37.8 25.8 37.8 25.8 14.4" /><line fill="#fff" stroke="url(#Pictogram)" stroke-miterlimit="10" stroke-width="1.5" x1="10" x2="40" y1="8.65" y2="15.8" /><polyline fill="none" points="7.9 24.4 13.7 10.1 14.3 10.1 20.1 24.4" stroke="url(#Pictogram)" stroke-miterlimit="10" stroke-width="1.5" /><path d="m20 24.9c0 1.93-2.71 3.5-6.05 3.5s-6.05-1.57-6.05-3.5z" fill="none" stroke="url(#Pictogram)" stroke-miterlimit="10" stroke-width="1.5" /><polyline fill="none" points="29.9 29.7 35.7 15.4 36.3 15.4 42.1 29.7" stroke="url(#Pictogram)" stroke-miterlimit="10" stroke-width="1.5" /><path d="m42 30.2c0 1.93-2.71 3.5-6.05 3.5s-6.05-1.57-6.05-3.5z" fill="none" stroke="url(#Pictogram)" stroke-miterlimit="10" stroke-width="1.5" /></svg>