<svg xmlns="http://www.w3.org/2000/svg" viewBox="0 0 50 58"><defs><linearGradient><stop offset="0" /></linearGradient><linearGradient id="Frame"><stop offset="0" stop-color="#ffffff" /></linearGradient></defs><path d="m44.2 2.75h-38.5a3 3 0 0 0-3 3v38.5a3 3 0 0 0 3 3h7.78l11.5 9.43 11.5-9.43h7.78a3 3 0 0 0 3-3v-38.5a3 3 0 0 0-3-3z" fill="#fff" stroke="url(#Frame)" stroke-miterlimit="10" stroke-width="1.5" /><path d="m31.3 10.7-0.685 2.07h4.02l0.685-2.07zm-22.7 3.05-3.89 11.8h4.13l0.423-1.86h3.43l0.423 1.86h4.14l-3.91-11.8zm7.1 0 3.88 11.8 4.54 0.0107 3.91-11.8h-4.02l-2.16 7.15-2.13-7.15zm14.6 0-3.89 11.8h4.02l3.89-11.8zm6.27 0-3.89 11.8h4.13l0.422-1.86h3.43l0.422 1.86h4.14l-3.9-11.8zm-25.6 2.41 1.01 4.41h-2.01zm28 0 1 4.41h-2.01zm-34.2 14.4h40.4v-2.01h-40.4zm-0.0565 8.7h40.5v-7.38h-40.5z" fill="#ed1c24" /></svg>