<svg xmlns="http://www.w3.org/2000/svg" viewBox="0 0 50 58"><defs><linearGradient><stop offset="0" /></linearGradient><linearGradient id="Frame"><stop offset="0" stop-color="#ffffff" /></linearGradient><linearGradient><stop offset="0" stop-color="#fff" /></linearGradient></defs><path d="m44.2 2.75h-38.5a3 3 0 0 0-3 3v38.5a3 3 0 0 0 3 3h7.78l11.5 9.43 11.5-9.43h7.78a3 3 0 0 0 3-3v-38.5a3 3 0 0 0-3-3z" fill="#fff" stroke="url(#Frame)" stroke-miterlimit="10" stroke-width="1.5" /><path d="m36.2 20.2c-0.02-0.055-0.04-0.11-0.061-0.166-1.89 2.16-6.53 3.55-10.7 3.24a26.2 26.2 0 0 1-9.31-2.86 20.8 20.8 0 0 0 8.48 5.05c3.82 1.14 7.9 1.06 10.2-0.139a4.24 4.24 0 0 0 1.39-5.12" fill="#f68b11" /><path d="m31 6.6c7.53 4.45 3.05 18.4-2.94 22.9-5.57 4.18-11.5 2.25-12.8-1.6a4.63 4.63 0 0 0 5.33 1.61c5.5-2.2 8.33-12.2 8.7-15.6 0.246-2.98-0.145-4.98-1.18-6.25-1.18-1.25-3-1.86-5.66-1.02 1.83-1.5 5.74-1.68 8.53-0.031" fill="#1d59ae" /><path d="m35.2 25.1c0.03-0.019 0.061-0.039 0.091-0.059l0.017-0.011a3.94 3.94 0 0 0 0.448-0.343c0.068-0.062 0.134-0.127 0.201-0.193 2.93-2.97 3.55-11.2-3.67-15.2a16.1 16.1 0 0 0-14.5-0.336 11.2 11.2 0 0 0-5.1 5.87c0.806-1.34 2.2-2.24 4.96-2.63a23.7 23.7 0 0 1 10.2 1.39 20.2 20.2 0 0 1 5.83 3.2 8.13 8.13 0 0 1 2.46 3.16c0.021 0.055 0.041 0.111 0.061 0.166a4.24 4.24 0 0 1-1.39 5.12c0.078-0.041 0.156-0.083 0.239-0.132l0.035-0.021c0.023-0.014 0.047-0.028 0.07-0.043" fill="#ee2b3e" /><path d="m13.6 19.6a8.41 8.41 0 0 0 0.654 0.827c1.45-3.4 9.37-5.61 11.7-5.58-5.25-1.69-10.4-0.884-12.5 0.91-0.751 0.838-0.986 2.09 0.104 3.84" fill="#f68b11" /><path d="m29 27.3a21.4 21.4 0 0 1-14.7-6.79c-0.023-0.028-0.051-0.059-0.08-0.092a8.5 8.5 0 0 1-0.654-0.827c-1.09-1.75-0.856-3.01-0.105-3.85h1e-3l-2e-3 1e-3a3.74 3.74 0 0 0-0.49 0.521c-1.12 1.44-1.25 3.78-0.488 6.26 1.66 5.38 8.91 8.62 14.8 7.73a13.5 13.5 0 0 0 7.1-3.55 15.1 15.1 0 0 1-5.36 0.598" fill="#5a8ed2" /><path d="m18.9 39c-2 0-3.14 0.855-3.14 2.34s1.14 2.34 3.14 2.34 3.14-0.854 3.14-2.34-1.14-2.34-3.14-2.34m0 3.6c-1.09 0-1.64-0.424-1.64-1.26 0-0.835 0.553-1.26 1.64-1.26 1.09 0 1.64 0.424 1.64 1.26 0 0.836-0.553 1.26-1.64 1.26" fill="#ee2b3e" /><path d="m22.4 39.1v1.01h1.89c0 0.097-1e-3 3.1-1e-3 3.1 0 0.299 0.449 0.406 0.834 0.406s0.835-0.106 0.835-0.405v-3.1h1.89v-1.01h-5.45" fill="#ee2b3e" /><path d="m37.9 42.5a1.5 1.5 0 0 1-0.95-0.222 0.878 0.878 0 0 1-0.257-0.69v-2.19c0-0.288-0.429-0.389-0.796-0.389-0.37 0-0.803 0.101-0.803 0.388l1e-3 0.696v1.43a1.81 1.81 0 0 0 0.778 1.69 6.64 6.64 0 0 0 2.92 0.345l1.39-6e-3 3e-3 -0.204v-0.841h-2.29" fill="#ee2b3e" /><path d="m12.1 42.2c0 0.792 0.667 1.33 1.79 1.42v-4.77h2.54v-1.1h-6.6v1.1h2.28v3.35" fill="#ee2b3e" /><path d="m34.5 43.6-0.039-0.179c-0.371-1.84-2.46-3.93-2.89-4.24a1.01 1.01 0 0 0-0.971 0 9.54 9.54 0 0 0-2.89 4.24l-0.039 0.179h1.48l0.029-0.128a4.33 4.33 0 0 1 0.285-0.833h3.25a4.32 4.32 0 0 1 0.284 0.833l0.028 0.128h1.48m-4.51-1.9a8.25 8.25 0 0 1 1.1-1.34 8.2 8.2 0 0 1 1.1 1.34h-2.2" fill="#ee2b3e" /></svg>