<svg xmlns="http://www.w3.org/2000/svg" data-name="Ebene 1" id="Ebene_1" viewBox="0 0 50 58">
<defs>
<linearGradient id="Frame">
<stop offset="1" stop-color="#2155d6" />
</linearGradient>
<linearGradient id="Background">
<stop offset="1" stop-color="#2155d6" />
</linearGradient>
<linearGradient id="Pictogram">
<stop offset="1" stop-color="#ffffff" />
</linearGradient>
</defs>
<path d="M44.22,2.75H5.72a3,3,0,0,0-3,3v38.5a3,3,0,0,0,3,3H13.5L25,56.68l11.5-9.43h7.78a3,3,0,0,0,3-3V5.75a3,3,0,0,0-3-3Z" fill="url(#Background)" stroke="url(#Frame)" stroke-miterlimit="10" stroke-width="1.5" width="44.5" />
<path d="M22.6,31.6l-.57,3.8a12.70016,12.70016,0,0,0,3.97.55,12.70016,12.70016,0,0,0,3.97-.55l-.572-3.8a25.00008,25.00008,0,0,1-6.79,0Z" fill="url(#Pictogram)" />
<path d="M21.5,16.8l1.13,4.68a10.9,10.9,0,0,1,6.82,0l1.13-4.68a11.0999,11.0999,0,0,0-4.54-.782A11.09988,11.09988,0,0,0,21.5,16.8Z" fill="url(#Pictogram)" />
<path d="M21,33.6l.0109.118a44.89876,44.89876,0,0,0,1.62-4.92,30.39949,30.39949,0,0,0-.094-4.92,23.39913,23.39913,0,0,0-1.54-2.8Z" fill="url(#Pictogram)" />
<path d="M26,13a12.30013,12.30013,0,0,1,5.08.91,5.21,5.21,0,0,1,.829,1.57c.0676.525.0384,2.95.0125,5.1-.0253,2.1-.054,4.49-.035,6.78.0117,1.41.0211,2.52.0333,2.95.00978.342.0243.678.039,1.02a7.84,7.84,0,0,1-.123,2.66,3.6612,3.6612,0,0,0-.16.559c-.201.847-.461,1.63-1.42,1.94a12.99993,12.99993,0,0,1-4.25.513,13,13,0,0,1-4.25-.513c-.961-.31-1.22-1.1-1.42-1.94a3.5802,3.5802,0,0,0-.176-.596,8.11011,8.11011,0,0,1-.106-2.63c.0141-.325.0286-.661.0384-1,.0122-.427.0217-1.54.0334-2.95.019-2.29-.00973-4.67-.0351-6.78-.0258-2.15-.0551-4.58.0125-5.1a5.21,5.21,0,0,1,.829-1.57,12.30013,12.30013,0,0,1,5.08-.91m0-1.5a13.9,13.9,0,0,0-5.78,1.08c-.801.383-1.53,2.27-1.6,2.6-.176.918.0374,6.89-.0064,12.2-.0116,1.39-.0207,2.5-.0328,2.92-.00969.339-.0242.672-.0382.994a8.04,8.04,0,0,0,.234,3.29c.0209.0508.06.215.0885.336a3.71,3.71,0,0,0,2.42,3.02,14.40021,14.40021,0,0,0,4.71.585,14.40024,14.40024,0,0,0,4.71-.585,3.71,3.71,0,0,0,2.42-3.02c.0285-.12.0676-.285.0885-.336a8.0398,8.0398,0,0,0,.234-3.29c-.014-.322-.0285-.655-.0382-.994-.0121-.423-.0212-1.52-.0328-2.92-.0438-5.28.17-11.2-.0064-12.2-.0639-.333-.797-2.22-1.6-2.6a13.9,13.9,0,0,0-5.78-1.08Z" fill="url(#Pictogram)" />
<path d="M31,21.1a23.39913,23.39913,0,0,0-1.54,2.8,30.39951,30.39951,0,0,0-.094,4.92,44.89876,44.89876,0,0,0,1.62,4.92l.0109-.118Z" fill="url(#Pictogram)" />
<rect fill="url(#Pictogram)" height="40" width="1.5" x="36" y="5" />
<path d="M31.6,5a1.96,1.96,0,0,1-1.3,1.49,12.99993,12.99993,0,0,1-4.25.513A13,13,0,0,1,21.8,6.49,1.96,1.96,0,0,1,20.5,5H18.94a3.64,3.64,0,0,0,2.39,2.91,14.4,14.4,0,0,0,4.71.585,14.4,14.4,0,0,0,4.71-.585A3.64,3.64,0,0,0,33.14,5Z" fill="url(#Pictogram)" />
<path d="M20.3,45a4.26992,4.26992,0,0,1,.642-1.09,12.30013,12.30013,0,0,1,5.08-.91,12.30013,12.30013,0,0,1,5.08.91A4.28,4.28,0,0,1,31.744,45h1.61c-.189-.581-.841-2.08-1.55-2.42a13.9,13.9,0,0,0-5.78-1.08,13.9,13.9,0,0,0-5.78,1.08c-.705.337-1.36,1.84-1.55,2.42Z" fill="url(#Pictogram)" />
</svg>