<svg xmlns="http://www.w3.org/2000/svg" data-name="Ebene 1" viewBox="0 0 50 58"><defs><linearGradient id="Background"><stop offset="0" stop-color="#dd9a2f" /></linearGradient><linearGradient id="Pictogram"><stop offset="0" stop-color="#ffffff" /></linearGradient></defs><defs><style>.cls-3{fill:none;stroke:#000;stroke-width:1.5px;}.cls-3{stroke-linecap:round;stroke-linejoin:round;stroke:url(#Pictogram);}</style></defs><path d="m44.2 2.75h-38.5a3 3 0 0 0-3 3v38.5a3 3 0 0 0 3 3h7.78l11.5 9.43 11.5-9.43h7.78a3 3 0 0 0 3-3v-38.5a3 3 0 0 0-3-3z" fill="url(#Background)" stroke="url(#Background)" stroke-miterlimit="10" stroke-width="1.5" /><path d="m25 25.5c-8.17 0-13.2-5.96-13.2-11.5a6.97 6.97 0 0 1 1.88-4.93 7.68 7.68 0 0 1 5.66-2.09c2.8 0 4.58 0.644 5.7 1.52 1.12-0.876 2.9-1.52 5.7-1.52 4.58 0 7.53 2.76 7.53 7.03 0 5.52-5.06 11.5-13.2 11.5zm-4.77-2.34a14 14 0 0 0 9.53 0 19.8 19.8 0 0 1-4.76-5.12 19.8 19.8 0 0 1-4.77 5.12zm5.62-6.66a17.6 17.6 0 0 0 5.48 5.93 9.95 9.95 0 0 0 5.4-8.42c0-2.67-1.58-5.53-6.03-5.53a8.23 8.23 0 0 0-4.67 1.13 4.75 4.75 0 0 1 0.603 1.3 7.94 7.94 0 0 1-0.782 5.58zm-6.55-8.01c-4.45 0-6.03 2.85-6.03 5.53a9.95 9.95 0 0 0 5.4 8.42 17.6 17.6 0 0 0 5.48-5.93 7.94 7.94 0 0 1-0.782-5.58 4.75 4.75 0 0 1 0.603-1.3 8.23 8.23 0 0 0-4.67-1.13zm5.7 2.34a3.29 3.29 0 0 0-0.198 0.512 5.53 5.53 0 0 0 0.198 3.2 5.53 5.53 0 0 0 0.198-3.2 3.29 3.29 0 0 0-0.198-0.512z" fill="url(#Pictogram)" /><path class="cls-3" d="m28.4 30.9c-0.304-0.0314-0.332-0.0606-0.642-0.0829-0.312-0.0226-3.42 4.91-3.74 4.89-0.383-0.0158 2.03-4.98 1.64-4.98a39.7 39.7 0 0 0-5.17 0.333c-0.378 0.056-3.36 5.06-3.73 5.13-0.389 0.0731 1.83-4.8 1.45-4.71-6.21 1.44-10.6 4.7-10.6 7.71-0.00593 3.34 2.32 3.09 17.3 3.14 15 0.0481 17.3 0.312 17.3-3.02 0.00457-2.57-3.18-5.34-7.98-7.02-0.265-0.0923-3.32 4.02-3.6 3.93-0.261-0.0812 2.26-4.35 1.99-4.43a24.2 24.2 0 0 0-4.34-0.883" /><line fill="none" stroke="url(#Pictogram)" stroke-miterlimit="10" x1="42.6" x2="42.6" y1="36.6" y2="36.6" /><line fill="none" stroke="url(#Pictogram)" stroke-miterlimit="10" x1="34.6" x2="34.6" y1="36.6" y2="36.6" /></svg>