<svg xmlns="http://www.w3.org/2000/svg" enable-background="new 0 0 50 50" version="1.1" viewBox="0 0 50 58"><style type="text/css">.st0{fill:#FFFFFF;}
	.st1{fill:#2155d6;}
	.st2{fill:none;stroke:#FFFFFF;stroke-miterlimit:10;}
	.st3{fill:none;stroke:#000000;stroke-width:1.1757;stroke-miterlimit:10;}
	.st4{fill:none;stroke:#1D1D1B;stroke-miterlimit:10;}
	.st5{fill:#FFFFFF;stroke:#FFFFFF;stroke-miterlimit:10;}
	.st6{fill:none;stroke:#FFFFFF;stroke-width:0.949;stroke-miterlimit:10;}</style><defs><linearGradient><stop offset="0" stop-color="#2155d6" /></linearGradient><linearGradient><stop offset="0" stop-color="#2155d7" /></linearGradient></defs><path class="st0" d="M44.6,48H5.5C3.6,48,2,46.4,2,44.5v-39C2,3.6,3.6,2,5.5,2h39C46.4,2,48,3.6,48,5.5v39.1    C48,46.5,46.5,48,44.6,48z" /><path class="st1" d="M2,26h22v22H5.4C3.5,48,2,46.5,2,44.6V26z" /><path class="st1" d="M5.4,2H24v22H2V5.4C2,3.5,3.5,2,5.4,2z" /><path class="st1" d="M26,2h18.6C46.5,2,48,3.5,48,5.4V24H26V2z" /><line class="st2" x1="42.1" x2="42.1" y1="15" y2="21" /><path d="m40.3 35.6v3.5c0 2.2-2 3.3-2.6 3.5h-5.4c-0.6-0.2-2.6-1.3-2.6-3.5v-3.5h10.6m1.1-1.2h-12.9v4.7c0 3.4 3.5 4.7 3.5 4.7h5.9s3.5-1.3 3.5-4.7v-4.7z" /><path class="st3" d="m41.4 36.2h1.3c1.1 0 2.6-0.5 3.1 0.4 1.4 2.8-4.5 5.2-5.1 5.4l-1.9 0.7" /><line class="st3" x1="27.3" x2="42.6" y1="44.4" y2="44.4" /><path class="st0" d="m42.6 15.4h-3.2s-0.1-5.2 0.5-7.4 2.6-3.2 2.6-3.2l0.1 10.6z" /><path class="st4" d="m38.7 33.2s0-1.6 1.1-2.4 1.1-2.4 1.1-2.4" /><path class="st4" d="m35.2 33.2s0-1.6 1.1-2.4 1.1-2.4 1.1-2.4" /><path class="st4" d="m31.6 33.2s0-1.6 1.1-2.4 1.1-2.4 1.1-2.4" /><path class="st5" d="m33.6 10.5h-1.2c-0.2 0-0.4-0.1-0.5-0.2-0.4-0.3-0.4-1.1-0.4-1.2v1.4c0 0.1 0 0.9 0.4 1.2 0.1 0.1 2 1.4 2 1.4" /><line class="st2" x1="31.5" x2="31.5" y1="10.4" y2="6" /><path class="st5" d="m33.7 13.1s1.9-1.3 2-1.4c0.4-0.3 0.4-1.1 0.4-1.2v-1.4c0 0.1 0 0.9-0.4 1.2-0.1 0.1-0.3 0.2-0.5 0.2h-1.2" /><line class="st2" x1="36.1" x2="36.1" y1="6" y2="10.4" /><path class="st6" d="m33.8 6v15.3" /><path class="st0" d="m19.7 9.2 0.7-0.5s-0.3-1.5-1.5-2.7-2.5-1.5-2.5-1.5l-0.2 0.5s1.4 0.5 2.2 1.7c0.7 0.9 1.3 2.5 1.3 2.5z" /><path class="st0" d="m18 20.5c-1 0-1.4-0.3-1.8-0.6-0.7-0.8-0.7-1.8-0.7-2.7v-0.6-4c0-0.3-0.2-0.5-0.5-0.5h-1.2v-1h1.2c0.9 0 1.5 0.6 1.5 1.5v4 0.6c0 0.8 0 1.4 0.4 2 0.2 0.2 0.5 0.4 1.1 0.4 0.9 0 1.1-1.3 1.1-2v-6.7c0-4.2-3.1-5.3-3.2-5.3l0.5-1.1s3.6 1.6 3.6 6.5v6.7c0 1.4-0.5 2.8-2 2.8z" /><path class="st0" d="m13.4 6v14.5h-6.3v-14.5h6.3zm-0.1-1h-6.2c-0.6 0-1 0.5-1 1.1v15.4h8.3v-15.4c0-0.6-0.5-1.1-1.1-1.1z" /><rect class="st0" height="1.2" width="10.6" x="5" y="20.3" /><rect class="st0" height="1" width="3.7" x="8.4" y="11.1" /><path class="st0" d="m9 44.1v-14.1h4.8s4.6-0.2 4.6 4.4-3.8 4.5-4.4 4.5h-3.2v5.2h-1.8zm5-6.9c0.6 0 2.7-0.2 2.7-2.8s-2-2.7-2.6-2.7h-3.3v5.5h3.2z" /></svg>