<svg xmlns="http://www.w3.org/2000/svg" viewBox="0 0 50 58"><defs><linearGradient><stop offset="0" stop-color="#d694a8" /></linearGradient><linearGradient id="Frame"><stop offset="0" stop-color="#ffffff" /></linearGradient></defs><g stroke="url(#Frame)" stroke-miterlimit="10" stroke-width="1.5"><path d="m44.2 2.75h-38.5a3 3 0 0 0-3 3v38.5a3 3 0 0 0 3 3h7.78l11.5 9.43 11.5-9.43h7.78a3 3 0 0 0 3-3v-38.5a3 3 0 0 0-3-3z" fill="#fff" /><path d="m44.2 2.75h-38.5a3 3 0 0 0-3 3v38.5a3 3 0 0 0 3 3h7.78l11.5 9.43 11.5-9.43h7.78a3 3 0 0 0 3-3v-38.5a3 3 0 0 0-3-3z" fill="none" /></g><path d="m22.1 9.7a2.96 2.96 0 1 1-2.96-2.96 2.96 2.96 0 0 1 2.96 2.96z" fill="#ffd300" /><path d="m28.1 9.7a2.96 2.96 0 1 1-2.96-2.96 2.96 2.96 0 0 1 2.96 2.96z" fill="#1d1d1b" /><path d="m34.1 9.7a2.96 2.96 0 1 1-2.96-2.96 2.96 2.96 0 0 1 2.96 2.96z" fill="#ee7b0f" /><path d="m22.1 15.7a2.96 2.96 0 1 1-2.96-2.96 2.96 2.96 0 0 1 2.96 2.96z" fill="#7d83bf" /><path d="m28.1 15.7a2.96 2.96 0 1 1-2.96-2.96 2.96 2.96 0 0 1 2.96 2.96z" fill="#baad7b" /><path d="m34.1 15.7a2.96 2.96 0 1 1-2.96-2.96 2.96 2.96 0 0 1 2.96 2.96z" fill="#dddc21" /><path d="m22.1 21.7a2.96 2.96 0 1 1-2.96-2.96 2.96 2.96 0 0 1 2.96 2.96z" fill="#62b4d2" /><path d="m28.1 21.7a2.96 2.96 0 1 1-2.96-2.96 2.95 2.95 0 0 1 2.96 2.96z" fill="#1d1d1b" /><path d="m34.1 21.7a2.96 2.96 0 1 1-2.96-2.96 2.96 2.96 0 0 1 2.96 2.96z" fill="#7bba58" /><path d="m14.8 38.7h-1.71v4.48h0.737v-1.49h0.893c1.07 0 1.79-0.607 1.79-1.51v-0.0123c-4e-5 -0.891-0.671-1.47-1.71-1.47zm-0.0602 2.29h-0.911v-1.59h0.935c0.301 0 1 0.0765 1 0.785v0.0118c0 0.484-0.403 0.797-1.03 0.797z" fill="#1d1d1b" /><path d="m19 42.5v-3.78h-0.737v4.48h3.11v-0.701z" fill="#1d1d1b" /><path d="m25.6 38.7h-0.614l-2.04 4.51h0.775l0.5-1.11h2.13c0.0596 0.135 0.494 1.11 0.494 1.11h0.799zm0.443 2.7h-1.52c0.119-0.266 0.596-1.33 0.762-1.7 0.165 0.37 0.639 1.43 0.757 1.7z" fill="#1d1d1b" /><path d="m32.4 41.9-0.0914 0.0874a1.72 1.72 0 0 1-1.27 0.572 1.54 1.54 0 0 1-1.5-1.61v-0.012a1.52 1.52 0 0 1 1.5-1.6 1.69 1.69 0 0 1 1.24 0.542l0.0957 0.091 0.504-0.541-0.0944-0.089a2.31 2.31 0 0 0-1.73-0.704 2.26 2.26 0 0 0-2.26 2.31v0.012a2.22 2.22 0 0 0 2.24 2.3 2.33 2.33 0 0 0 1.78-0.78l0.0919-0.0931z" fill="#1d1d1b" /><path d="m35.4 42.5v-1.21h2.3v-0.695h-2.3v-1.18h2.57v-0.695h-3.31v4.48h3.34v-0.695z" fill="#1d1d1b" /><path d="m12.3 30.3v2.8h-3.78v-2.8h-0.54v6.14h0.54v-2.83h3.78v2.83h0.54v-6.14z" fill="#1d1d1b" /><path d="m20.6 30.3s-2.17 3.11-2.25 3.21c-0.0723-0.104-2.24-3.21-2.24-3.21h-0.674l2.63 3.71v2.42h0.54v-2.43c0.0168-0.0238 2.63-3.7 2.63-3.7z" fill="#1d1d1b" /><path d="m25.6 30.2h-0.49l-2.86 6.18h0.567s0.745-1.64 0.769-1.69h3.51c0.0235 0.052 0.768 1.69 0.768 1.69h0.593zm-1.78 3.99c0.0555-0.122 1.45-3.17 1.53-3.34 0.0772 0.17 1.46 3.22 1.52 3.34z" fill="#1d1d1b" /><path d="m30.1 30.3v0.506h2.11v5.63h0.54v-5.63h2.11v-0.506z" fill="#1d1d1b" /><path d="m37.3 30.3v0.506h2.11v5.63h0.541v-5.63h2.11v-0.506z" fill="#1d1d1b" /><polygon fill="#1d1d1b" points="39.1 38.9 39.4 38.9 39.4 39.6 39.6 39.6 39.6 38.9 39.8 38.9 39.8 38.7 39.1 38.7" /><polygon fill="#1d1d1b" points="40.7 38.7 40.4 39.2 40.1 38.7 40 38.7 40 39.6 40.1 39.6 40.1 39 40.4 39.4 40.5 39.4 40.7 39 40.7 39.6 40.9 39.6 40.9 38.7" /></svg>