<svg xmlns="http://www.w3.org/2000/svg" viewBox="0 0 50 58"><defs><linearGradient id="Frame"><stop offset="0" stop-color="#ffffff" /></linearGradient></defs><path d="m44.2 2.75h-38.5a3 3 0 0 0-3 3v38.5a3 3 0 0 0 3 3h7.78l11.5 9.43 11.5-9.43h7.78a3 3 0 0 0 3-3v-38.5a3 3 0 0 0-3-3z" fill="#fff" stroke="url(#Frame)" stroke-miterlimit="10" stroke-width="1.5" /><path d="m21.1 9.16c4.39-0.155 8.78-0.00109 13.2 0.28a11.2 11.2 0 0 1 1.38 0.134 1.02 1.02 0 0 1 0.655 0.376 2.21 2.21 0 0 1 0.168 0.794c0.104 1.31 0.135 2.63 0.233 3.95a3.72 3.72 0 0 1-0.569-0.0121c-3.38-0.175-6.76-0.32-10.1-0.325-1.75 0.00494-3.51-0.0121-5.26 0.073a1.6 1.6 0 0 0-1.15 0.583c1.33 0.235 2.65 0.489 3.97 0.729 4.39 0.822 8.78 1.63 13.2 2.45-0.00383 0.833-0.00219 1.67-5.4e-4 2.5-2.47-0.409-4.93-0.85-7.4-1.27-5.31-0.915-10.6-1.84-15.9-2.75 0.0104-0.924 0.0499-1.85 0.0691-2.77a12.2 12.2 0 0 1 0.178-2.19 2.64 2.64 0 0 1 0.702-1.38 4.06 4.06 0 0 1 2.52-0.935c1.41-0.131 2.82-0.173 4.23-0.225zm-7.73 8.72q11.4 2.1 22.8 4.24a4.16 4.16 0 0 1 0.503 0.105l0.0192 0.0439c-0.0417 1.25-0.0658 2.5-0.111 3.74a4.77 4.77 0 0 1-0.506 2.25 2.91 2.91 0 0 1-2 1.24 26.9 26.9 0 0 1-3.5 0.295 132 132 0 0 1-15.1-0.244 5.79 5.79 0 0 1-1.2-0.146 0.91 0.91 0 0 1-0.524-0.353 2.31 2.31 0 0 1-0.16-0.79c-0.108-1.46-0.165-2.91-0.241-4.37 2.59 0.165 5.18 0.257 7.78 0.314 2.5 0.0406 5.01 0.04 7.51 0.0647a2.1 2.1 0 0 0 1.53-0.46c0.0598-0.0686 0.157-0.132 0.147-0.235-1.13-0.169-2.25-0.38-3.38-0.565q-6.8-1.16-13.6-2.32c-0.00548-0.936 0.0011-1.87-0.00274-2.81z" fill="#19191b" /><path d="m33.5 36.5v1.73h-5.51v-0.488c0-0.757 0.122-1.26 1.01-1.26h4.5zm-4.84-1.07a1.85 1.85 0 0 0-2.12 2.01v3.49h1.45v-1.61h5.51v1.6h1.45v-5.49zm8.08 0v1.07h3.41v4.42h1.45v-4.42h3.41v-1.07zm-19.5 3.38c0 0.769 0.158 1.05 1.01 1.05h6.05v1.07h-6.39c-1.45 0-2.13-0.659-2.13-1.89v-3.61h8.51v1.07h-7.06v1.07h6.77v1.06h-6.77v0.183zm-10.4-1.47c-0.45-0.0366-0.523-0.195-0.523-0.464 0-0.244 0.134-0.391 0.475-0.391h6.68v-1.06h-6.85c-0.974 0-1.64 0.378-1.64 1.47s0.499 1.47 1.62 1.56l5.42 0.452c0.414 0.0366 0.536 0.171 0.536 0.476 0 0.281-0.122 0.464-0.499 0.464h-6.8v1.07h6.91c1.19 0 1.72-0.476 1.72-1.6 0-1.03-0.475-1.44-1.63-1.54z" fill="#19191b" /></svg>