<svg xmlns="http://www.w3.org/2000/svg" viewBox="0 0 50 58"><defs><linearGradient id="Background"><stop offset="0" stop-color="#5baa44" /></linearGradient><linearGradient id="Frame"><stop offset="0" stop-color="#5baa44" /></linearGradient><linearGradient id="Pictogram"><stop offset="0" stop-color="#ffffff" /></linearGradient></defs><path d="m44.2 2.75h-38.5a3 3 0 0 0-3 3v38.5a3 3 0 0 0 3 3h7.78l11.5 9.43 11.5-9.43h7.78a3 3 0 0 0 3-3v-38.5a3 3 0 0 0-3-3z" fill="url(#Background)" stroke="url(#Frame)" stroke-miterlimit="10" stroke-width="1.5" /><polygon fill="none" points="37 32 13 32 13 18 25 18 37 18" stroke="url(#Pictogram)" stroke-miterlimit="10" stroke-width="1.5" /><line fill="none" stroke="url(#Pictogram)" stroke-miterlimit="10" stroke-width="1.5" x1="25" x2="25" y1="18" y2="32" /><circle cx="25" cy="25" fill="none" r="4" stroke="url(#Pictogram)" stroke-miterlimit="10" stroke-width="1.5" /><polyline fill="none" points="13 21.5 17 21.5 17 28.5 13 28.5" stroke="url(#Pictogram)" stroke-miterlimit="10" stroke-width="1.5" /><polyline fill="none" points="37 21.5 33 21.5 33 28.5 37 28.5" stroke="url(#Pictogram)" stroke-miterlimit="10" stroke-width="1.5" /><path d="m30.7 37.8a12.8 12.8 0 0 0 0-25.5h-11.5a12.8 12.8 0 0 0 0 25.5z" fill="none" stroke="url(#Pictogram)" stroke-miterlimit="10" stroke-width="2.5" /></svg>