<svg xmlns="http://www.w3.org/2000/svg" viewBox="0 0 50 58"><defs><linearGradient id="Background"><stop offset="0" stop-color="#d694a8" /></linearGradient><linearGradient id="Frame"><stop offset="0" stop-color="#d694a8" /></linearGradient><linearGradient id="Pictogram"><stop offset="0" stop-color="#ffffff" /></linearGradient></defs><path d="m44.2 2.75h-38.5a3 3 0 0 0-3 3v38.5a3 3 0 0 0 3 3h7.78l11.5 9.43 11.5-9.43h7.78a3 3 0 0 0 3-3v-38.5a3 3 0 0 0-3-3z" fill="url(#Background)" stroke="url(#Frame)" stroke-miterlimit="10" stroke-width="1.5" /><line fill="none" stroke="url(#Pictogram)" stroke-miterlimit="10" stroke-width="1.5" x1="7" x2="43" y1="35" y2="35" /><path d="m25 31.5h-16v-7s0.128-1.5 1.5-1.5c3 0.00329 14.5 0 14.5 0s11.5 0.00329 14.5 0c1.37-0.00151 1.5 1.5 1.5 1.5v7z" fill="none" stroke="url(#Pictogram)" stroke-miterlimit="10" stroke-width="1.5" /><line fill="none" stroke="url(#Pictogram)" stroke-miterlimit="10" stroke-width="1.5" x1="11.5" x2="11.5" y1="31.5" y2="35" /><line fill="none" stroke="url(#Pictogram)" stroke-miterlimit="10" stroke-width="1.5" x1="38.5" x2="38.5" y1="31.5" y2="35" /><polyline fill="none" points="37.5 23 37.5 15 12.5 15 12.5 23" stroke="url(#Pictogram)" stroke-miterlimit="10" stroke-width="1.5" /><path d="m26.6 22.4a2.75 2.75 0 0 1 2.75-2.75h3.25a2.75 2.75 0 0 1 2.75 2.75" fill="none" stroke="url(#Pictogram)" stroke-miterlimit="10" stroke-width="1.5" /><path d="m14.6 22.4a2.75 2.75 0 0 1 2.75-2.75h3.25a2.75 2.75 0 0 1 2.75 2.75" fill="none" stroke="url(#Pictogram)" stroke-miterlimit="10" stroke-width="1.5" /></svg>