<svg xmlns="http://www.w3.org/2000/svg" viewBox="0 0 50 58"><defs><linearGradient><stop offset="0" /></linearGradient><linearGradient id="Frame"><stop offset="0" stop-color="#ffffff" /></linearGradient></defs><path d="m44.2 2.75h-38.5a3 3 0 0 0-3 3v38.5a3 3 0 0 0 3 3h7.78l11.5 9.43 11.5-9.43h7.78a3 3 0 0 0 3-3v-38.5a3 3 0 0 0-3-3z" fill="#fff" stroke="url(#Frame)" stroke-miterlimit="10" stroke-width="1.5" /><path d="m9 25.2h-2.16a0.698 0.698 0 0 0-0.467 0.156c-0.0667 0.0667-1.11 0.89-1.25 1.02-0.222 0.178-0.111 0.289 0.0445 0.289h3.14c0.222 0 0.245 0.111 0.222 0.245l-0.645 3.22c-0.0445 0.2 0.133 0.222 0.222 0.133l1.18-0.956a1.03 1.03 0 0 0 0.467-0.6s0.311-1.6 0.467-2.25a1.11 1.11 0 0 0-1.22-1.27z" fill="#d52b1e" /><path d="m16 25.2h-3.69a1.71 1.71 0 0 0-1.53 1.07l-0.356 1.78c-0.0445 0.2 0.111 0.245 0.289 0.133l1.71-1.38a0.626 0.626 0 0 1 0.334-0.133h1.58a0.698 0.698 0 0 0 0.467-0.156c0.0667-0.0667 1.11-0.89 1.25-1.02 0.222-0.178 0.089-0.289-0.0445-0.289z" fill="#d52b1e" /><path d="m11.1 21.9c0.0445-0.2-0.111-0.245-0.289-0.133l-1.71 1.4a0.626 0.626 0 0 1-0.334 0.133h-1.56a0.698 0.698 0 0 0-0.467 0.156c-0.0667 0.0667-1.11 0.89-1.25 1.02-0.222 0.178-0.111 0.289 0.0445 0.289l3.67-0.0222a1.71 1.71 0 0 0 1.53-1.07z" fill="#d52b1e" /><path d="m16.4 23.3h-3.14c-0.222 0-0.245-0.111-0.222-0.222l0.645-3.22c0.0445-0.2-0.133-0.222-0.222-0.133l-1.27 1.02a0.943 0.943 0 0 0-0.378 0.6c-0.133 0.689-0.311 1.51-0.445 2.18a1.07 1.07 0 0 0 1.18 1.27h2.16a0.698 0.698 0 0 0 0.467-0.156c0.0667-0.0667 1.11-0.89 1.25-1.02 0.222-0.2 0.111-0.311-0.0222-0.311z" fill="#d52b1e" /><path d="m28.5 23.3 0.222-1.16h-4.25l-0.912 4.54a0.903 0.903 0 0 0 0.912 1.16h3.11l0.222-1.16h-2.6a0.287 0.287 0 0 1-0.289-0.378l0.156-0.778h2.78l0.222-1.16h-2.78l0.222-1.09z" fill="#d52b1e" /><path d="m44.1 22.1h-3.42l-1.16 5.72h1.27l0.334-1.62h2.02l-0.334 1.62h1.27l0.912-4.56a0.873 0.873 0 0 0-0.89-1.16zm-0.423 1.53-0.289 1.4h-2.02l0.356-1.78h1.69c0.245 0 0.289 0.245 0.267 0.378z" fill="#d52b1e" /><path d="m22.3 22.1h-2.42a1.39 1.39 0 0 0-1.25 1.16l-0.689 3.4a0.91 0.91 0 0 0 0.89 1.16h2.4a1.48 1.48 0 0 0 1.31-1.16l0.133-0.667h-1.27l-0.0667 0.289a0.483 0.483 0 0 1-0.423 0.378h-1.33a0.311 0.311 0 0 1-0.289-0.378l0.534-2.69a0.426 0.426 0 0 1 0.423-0.334h1.33a0.315 0.315 0 0 1 0.289 0.378l-0.0667 0.289h1.27l0.133-0.667a0.899 0.899 0 0 0-0.912-1.16z" fill="#d52b1e" /><path d="m38.5 22.1h-2.31a1.4 1.4 0 0 0-1.36 1.16l-0.2 1.02a0.825 0.825 0 0 0 0.778 1l2.07 0.356a0.202 0.202 0 0 1 0.156 0.245l-0.089 0.4a0.452 0.452 0 0 1-0.445 0.378h-1.31c-0.222 0-0.311-0.178-0.289-0.378l0.0667-0.311h-1.27l-0.133 0.667a0.91 0.91 0 0 0 0.89 1.16h2.36a1.44 1.44 0 0 0 1.33-1.16l0.2-1.05c0.111-0.645-0.289-0.912-0.912-1l-1.89-0.311a0.247 0.247 0 0 1-0.178-0.311l0.0667-0.334a0.501 0.501 0 0 1 0.489-0.378h1.25a0.315 0.315 0 0 1 0.311 0.378l-0.0667 0.311h1.27l0.133-0.667a0.913 0.913 0 0 0-0.912-1.18z" fill="#d52b1e" /><path d="m33 22.1h-3.31l-1.13 5.72h1.27l0.334-1.62h2.11a1.47 1.47 0 0 0 1.31-1.16l0.356-1.78a0.911 0.911 0 0 0-0.934-1.16zm-0.423 1.51-0.2 1.02a0.456 0.456 0 0 1-0.423 0.356h-1.56l0.356-1.76h1.56a0.314 0.314 0 0 1 0.267 0.378z" fill="#d52b1e" /></svg>