<svg xmlns="http://www.w3.org/2000/svg" viewBox="0 0 50 58"><defs><linearGradient><stop offset="0" stop-color="#2155d6" /></linearGradient><linearGradient id="Frame"><stop offset="0" stop-color="#ffffff" /></linearGradient></defs><path d="m44.2 2.75h-38.5a3 3 0 0 0-3 3v38.5a3 3 0 0 0 3 3h7.78l11.5 9.43 11.5-9.43h7.78a3 3 0 0 0 3-3v-38.5a3 3 0 0 0-3-3z" fill="#fff" stroke="url(#Frame)" stroke-miterlimit="10" stroke-width="1.5" /><polygon fill="#153d8a" points="12.6 36.8 20.5 36.8 37.4 13.2 29.5 13.2" /><path d="m44.5 46.7a2.17 2.17 0 0 0 2.16-2.16v-39a2.17 2.17 0 0 0-2.16-2.16h-39a2.17 2.17 0 0 0-2.16 2.16v39a2.17 2.17 0 0 0 2.16 2.16zm-35.6-37.7h32.1v32.1h-32.1z" fill="#153d8a" /></svg>