<svg xmlns="http://www.w3.org/2000/svg" viewBox="0 0 50 58"><defs><linearGradient id="Background"><stop offset="0" stop-color="#2155d6" /></linearGradient><linearGradient id="Frame"><stop offset="0" stop-color="#2155d6" /></linearGradient><linearGradient id="Pictogram"><stop offset="0" stop-color="#ffffff" /></linearGradient></defs><path d="m44.2 2.75h-38.5a3 3 0 0 0-3 3v38.5a3 3 0 0 0 3 3h7.78l11.5 9.43 11.5-9.43h7.78a3 3 0 0 0 3-3v-38.5a3 3 0 0 0-3-3z" fill="url(#Background)" stroke="url(#Frame)" stroke-miterlimit="10" stroke-width="1.5" /><line fill="none" stroke="url(#Pictogram)" stroke-miterlimit="10" stroke-width="1.5" x1="7" x2="43" y1="39" y2="39" /><line fill="none" stroke="url(#Pictogram)" stroke-miterlimit="10" stroke-width="1.5" x1="8" x2="29" y1="35.5" y2="35.5" /><line fill="none" stroke="url(#Pictogram)" stroke-miterlimit="10" stroke-width="2.5" x1="9" x2="28" y1="31.8" y2="31.8" /><line fill="none" stroke="url(#Pictogram)" stroke-miterlimit="10" stroke-width="1.5" x1="12.5" x2="12.5" y1="31.5" y2="35.5" /><line fill="none" stroke="url(#Pictogram)" stroke-miterlimit="10" stroke-width="1.5" x1="11" x2="11" y1="35.5" y2="39.5" /><line fill="none" stroke="url(#Pictogram)" stroke-miterlimit="10" stroke-width="1.5" x1="24.8" x2="24.8" y1="31.5" y2="35.5" /><line fill="none" stroke="url(#Pictogram)" stroke-miterlimit="10" stroke-width="1.5" x1="26.2" x2="26.2" y1="35.5" y2="39.5" /><path d="m32.3 39v-11.4a3.8 3.8 0 0 0-0.914-2.37c-0.489-0.512-1.21-1.21-1.21-1.21" fill="none" stroke="url(#Pictogram)" stroke-miterlimit="10" stroke-width="1.5" /><path d="m35.2 39v-13.8a3.8 3.8 0 0 1 0.914-2.37c0.489-0.512 2.04-2.13 2.04-2.13" fill="none" stroke="url(#Pictogram)" stroke-miterlimit="10" stroke-width="1.5" /><path d="m37.4 28s5.89 0.0538 5.89-5.93c0-4.37-2.99-8.77-3.45-9.31s-2.54-3.78-5.69-3.78a5.8 5.8 0 0 0-5.78 5.49c-0.137 1.7-0.165 1.57-0.165 1.69s-4.57 1.45-4.41 5.61 5.62 6.22 6.16 6.22" fill="none" stroke="url(#Pictogram)" stroke-miterlimit="10" stroke-width="1.5" /></svg>