<svg xmlns="http://www.w3.org/2000/svg" xmlns:ns1="http://www.w3.org/1999/xlink" viewBox="0 0 50 58"><defs><linearGradient id="Background"><stop offset="0" stop-color="#ffffff" /></linearGradient><linearGradient id="Frame"><stop offset="0" stop-color="#ffffff" /></linearGradient></defs><defs><linearGradient gradientUnits="userSpaceOnUse" id="Unbenannter_Verlauf_4" x1="9.76" x2="40.2" y1="24.9" y2="24.9"><stop offset="0" stop-color="#e1be78" /><stop offset="1" stop-color="#e3ab36" /></linearGradient><clipPath id="clip-path"><path d="m19.3 6.72z" fill="none" /></clipPath><linearGradient gradientTransform="translate(1690 -12118) scale(28.1)" gradientUnits="userSpaceOnUse" id="Unbenannter_Verlauf_6" x1="-59.8" x2="-58.8" y1="432" y2="432"><stop offset="0" stop-color="#ffe3a8" /><stop offset="1" stop-color="#d2a249" /></linearGradient><clipPath id="clip-path-2"><path d="m25 5.35c-1.15 0.013-2.18 0.048-3.33 0.149a45.5 45.5 0 0 0-6.92 1.11 38.3 38.3 0 0 0-4.85 1.58c-0.066 0.026-0.097 0.037-0.097 0.037s0.192 11.8 0.341 17.6a16.2 16.2 0 0 0 0.928 5.05 24.3 24.3 0 0 0 2.64 5.24 21 21 0 0 0 4.09 4.48 18.4 18.4 0 0 0 1.94 1.42 24.8 24.8 0 0 0 3.32 1.68c0.379 0.162 0.711 0.313 1.01 0.414a7.32 7.32 0 0 0 0.958 0.298 7.35 7.35 0 0 0 0.96-0.298c0.301-0.101 0.632-0.253 1.01-0.414a24.8 24.8 0 0 0 3.32-1.68 18.4 18.4 0 0 0 1.94-1.42 21 21 0 0 0 4.09-4.48 24.2 24.2 0 0 0 2.64-5.24 16.1 16.1 0 0 0 0.929-5.05c0.149-5.84 0.342-17.6 0.342-17.6a0.85 0.85 0 0 0-0.092-0.043 38.4 38.4 0 0 0-4.85-1.58 45.5 45.5 0 0 0-6.92-1.11c-1.14-0.102-2.18-0.136-3.32-0.149z" fill="url(#Unbenannter_Verlauf_4)" /></clipPath><linearGradient gradientTransform="translate(1837 -13172) scale(30.5)" id="Unbenannter_Verlauf_4-3" x1="-60" x2="-59" y1="433" y2="433" ns1:href="#Unbenannter_Verlauf_4" /></defs><path d="m44.2 2.75h-38.5a3 3 0 0 0-3 3v38.5a3 3 0 0 0 3 3h7.78l11.5 9.43 11.5-9.43h7.78a3 3 0 0 0 3-3v-38.5a3 3 0 0 0-3-3z" fill="url(#Background)" stroke="url(#Frame)" stroke-miterlimit="10" stroke-width="1.5" /><g clip-path="url(#clip-path)"><rect fill="url(#Unbenannter_Verlauf_6)" height="5.55" width="28.1" x="10.9" y="6.3" /></g><path d="m25 5.35c-1.15 0.013-2.18 0.048-3.33 0.149a45.5 45.5 0 0 0-6.92 1.11 38.3 38.3 0 0 0-4.85 1.58c-0.066 0.026-0.097 0.037-0.097 0.037s0.192 11.8 0.341 17.6a16.2 16.2 0 0 0 0.928 5.05 24.3 24.3 0 0 0 2.64 5.24 21 21 0 0 0 4.09 4.48 18.4 18.4 0 0 0 1.94 1.42 24.8 24.8 0 0 0 3.32 1.68c0.379 0.162 0.711 0.313 1.01 0.414a7.32 7.32 0 0 0 0.958 0.298 7.35 7.35 0 0 0 0.96-0.298c0.301-0.101 0.632-0.253 1.01-0.414a24.8 24.8 0 0 0 3.32-1.68 18.4 18.4 0 0 0 1.94-1.42 21 21 0 0 0 4.09-4.48 24.2 24.2 0 0 0 2.64-5.24 16.1 16.1 0 0 0 0.929-5.05c0.149-5.84 0.342-17.6 0.342-17.6a0.85 0.85 0 0 0-0.092-0.043 38.4 38.4 0 0 0-4.85-1.58 45.5 45.5 0 0 0-6.92-1.11c-1.14-0.102-2.18-0.136-3.32-0.149z" fill="url(#Unbenannter_Verlauf_4)" /><g clip-path="url(#clip-path-2)"><rect fill="url(#Unbenannter_Verlauf_4-3)" height="39.1" width="30.5" x="9.76" y="5.35" /></g><path d="m24.6 38.2h-8.65a21.1 21.1 0 0 0 2.06 1.96 17.5 17.5 0 0 0 1.87 1.38 23.7 23.7 0 0 0 3.19 1.63c0.366 0.158 0.684 0.306 0.973 0.403 0.209 0.071 0.398 0.138 0.557 0.191v-5.57zm0-6.46a6.35 6.35 0 0 1-3.54-1.47c-0.062-0.051-0.123-0.107-0.183-0.161h-9.55q0.096 0.31 0.204 0.621a22.5 22.5 0 0 0 1.3 2.98h11.8zm14.8-9.89h-8.43v0.653l-4e-3 3.04h8.36c0.026-1.08 0.054-2.34 0.082-3.69zm0.146-7.75h-14.4v3.58h14.3c0.023-1.24 0.044-2.46 0.065-3.58" fill="#b12b28" /><path d="m39.7 8.91a0.786 0.786 0 0 0-0.094-0.041l-0.026-0.011a36.8 36.8 0 0 0-4.67-1.53 43.5 43.5 0 0 0-6.66-1.08c-1.1-0.098-2.1-0.132-3.2-0.146h-0.094c-1.11 0.014-2.1 0.051-3.2 0.15a43.3 43.3 0 0 0-6.66 1.09 36.3 36.3 0 0 0-4.63 1.53l-0.022 0.012a0.247 0.247 0 0 0-0.066 0.03l-4e-3 -0.223 0.092-0.04a36.3 36.3 0 0 1 4.63-1.53 43.4 43.4 0 0 1 6.66-1.08c1.1-0.098 2.1-0.131 3.2-0.145h0.091c1.11 0.014 2.1 0.047 3.2 0.145a43.5 43.5 0 0 1 6.66 1.08 36.8 36.8 0 0 1 4.67 1.53l0.026 0.011c0.032 0.013 0.063 0.027 0.094 0.042z" fill="#613e18" fill-rule="evenodd" /><path d="m24.6 10.3c-0.979 0.016-1.89 0.051-2.88 0.138a42.9 42.9 0 0 0-6.66 1.08 38.1 38.1 0 0 0-4.66 1.53l-0.013 8e-3 -3e-3 -0.21 0.023-0.011a36.8 36.8 0 0 1 4.66-1.53 43.4 43.4 0 0 1 6.65-1.08c0.992-0.088 1.9-0.121 2.88-0.137z" fill="#613e18" fill-rule="evenodd" /><path d="m27.9 30.5a5.41 5.41 0 0 0 2.35-2.81 3.83 3.83 0 0 0 0.233-1.24l4e-3 -8.37a0.0256 0.0256 0 0 0-0.03-0.021l-10.9-4e-3c-0.021 0-0.025 8e-3 -0.025 0.03l0.013 8.06a5.01 5.01 0 0 0 1.8 3.76 5.72 5.72 0 0 0 3.68 1.4 5.64 5.64 0 0 0 2.84-0.801m-6.35-0.797a4.84 4.84 0 0 1-1.72-3.62l-0.012-7.74c0-0.021 2e-3 -0.029 0.023-0.029l10.4 2e-3a0.0255 0.0255 0 0 1 0.027 0.022v2e-3l-2e-3 8.05a3.73 3.73 0 0 1-0.222 1.2 5.2 5.2 0 0 1-2.24 2.7 5.34 5.34 0 0 1-2.7 0.771 5.43 5.43 0 0 1-3.51-1.35" /><path d="M28.1096,28.2489a.14413.14413,0,0,0,.07-.114.2348.2348,0,0,0-.015-.136l-.249-.386a.73018.73018,0,0,1-.137-.339.84971.84971,0,0,1,.095-.374,1.14506,1.14506,0,0,0,.061-.102c.044-.096.13-.131.195-.218a1.97843,1.97843,0,0,0,.187-.268,2.43592,2.43592,0,0,0,.134-.382c.031-.098-.019-.209-.009-.312a.22926.22926,0,0,1,.048-.105.31067.31067,0,0,1,.393-.12c.13.038.217.088.349.119a.46693.46693,0,0,0,.398-.123c.02-.014.023-.053.003-.051a.452.452,0,0,1-.164,0,.21935.21935,0,0,1-.136-.088.32914.32914,0,0,1-.071-.136.11583.11583,0,0,1,.056-.08.8372.8372,0,0,0,.207-.225.58815.58815,0,0,0,.068-.26c0-.015-.032-.024-.044-.013-.056.054-.092.133-.157.175a.3278.3278,0,0,1-.203.058.1944.1944,0,0,1-.13-.063.41624.41624,0,0,1-.069-.138c-.016-.043.051-.075.095-.084a.64338.64338,0,0,0,.27-.082.25892.25892,0,0,0,.123-.135.28556.28556,0,0,0,.016-.167c-.051.017-.085.047-.128.059a.32789.32789,0,0,1-.248-.015.645.645,0,0,1-.185-.214.0374.0374,0,0,1,.017-.051c.077-.015.145-.101.204-.203a.57111.57111,0,0,0,.098-.324.19862.19862,0,0,0-.071-.137c-.011-.011-.051-.014-.061,0-.035.064-.014.147-.051.208a.64012.64012,0,0,1-.159.169c-.033.024-.078.057-.113.04a.23239.23239,0,0,1-.12-.153.36747.36747,0,0,1,.048-.224,2.52454,2.52454,0,0,1,.255-.402c.072-.092.148-.152.214-.254.045-.067.08-.209.019-.231-.06-.023-.095.118-.149.148a2.44823,2.44823,0,0,0-.586.319,1.01937,1.01937,0,0,0-.176.37c-.026.071-.008.18-.039.25-.012.026-.067.05-.089.035a.5292.5292,0,0,1-.144-.23.29491.29491,0,0,1,.012-.181c.009-.024-.009-.046-.027-.036a.39335.39335,0,0,0-.176.209.49838.49838,0,0,0,.03.36,4.55857,4.55857,0,0,0,.33.482c.087.147.199.302.276.442a.56532.56532,0,0,1,.09.4.75366.75366,0,0,1-.214.38c-.014.009-.043.023-.056.014a4.113,4.113,0,0,0-.351-.297,1.43867,1.43867,0,0,0-.488-.196,3.24278,3.24278,0,0,0-.646-.005c-.227.006-.452.04-.679.032a1.53642,1.53642,0,0,1-.543-.072.599.599,0,0,1-.309-.267.74808.74808,0,0,1-.069-.419.80312.80312,0,0,1,.101-.332.53144.53144,0,0,1,.211-.217.47886.47886,0,0,1,.332-.046.59032.59032,0,0,1,.153.099.98365.98365,0,0,1,.126.124c.005.006.035,0,.036-.009a.91426.91426,0,0,0-.063-.448,1.87612,1.87612,0,0,0-.199-.312c-.007-.024.064-.022.089-.024a.52443.52443,0,0,1,.341.101.59015.59015,0,0,1,.168.177c.004.007.024,0,.024-.008a.701.701,0,0,0-.175-.506.57509.57509,0,0,0-.215-.189c-.051-.018.038-.059.082-.059a.60735.60735,0,0,1,.286.042.31824.31824,0,0,1,.086.063.36837.36837,0,0,0,.06.046c.017.01.034-.021.028-.039a.44049.44049,0,0,0-.064-.153,4.30285,4.30285,0,0,0-.458-.394.27061.27061,0,0,1-.051-.038.77966.77966,0,0,1-.102-.204c-.01-.028-.051-.054-.066-.094a.156.156,0,0,1,.012-.116c.046-.089.09-.105.189-.149a1.05557,1.05557,0,0,1,.23-.047c.025-.004.049.023.073.015.012-.004.019-.038-.019-.066a.554.554,0,0,0-.317-.102.94966.94966,0,0,0-.449.033.81463.81463,0,0,1-.35.102.48351.48351,0,0,1-.231-.046.18392.18392,0,0,1-.102-.128.52141.52141,0,0,1,.063-.265.33368.33368,0,0,1,.153-.13c.042-.023.071-.039.068-.069-.003-.029-.062-.016-.084-.009a1.36607,1.36607,0,0,0-.384.151,1.58038,1.58038,0,0,0-.232.265.13162.13162,0,0,1-.056.04c-.026.012-.05.005-.079.016-.096.037-.195.086-.288.129a2.90332,2.90332,0,0,1-.264.153.702.702,0,0,1-.236.036c-.152-.013-.356-.012-.392.171a.08556.08556,0,0,0,.04.097.44384.44384,0,0,0,.085.041l.095.033s.15051.06921-.001.116a.33257.33257,0,0,1-.247-.033l-.017-.008a.08114.08114,0,0,0-.105.015,6.21187,6.21187,0,0,1-.518.381s-.09893.04279-.071.117c.01465.03893-.041.06-.073.07a.0876.0876,0,0,0-.067.082.2618.2618,0,0,0,.006.088.10449.10449,0,0,0,.12.088.126.126,0,0,0,.033-.01,1.12454,1.12454,0,0,1,.135-.045s.10065-.03435.077.076c-.007.03287-.037.056-.058.083-.022.031-.038.076,0,.102a.16026.16026,0,0,0,.212-.01.3903.3903,0,0,0,.069-.102.17548.17548,0,0,1,.087-.089.65171.65171,0,0,1,.242-.051h.005a.23213.23213,0,0,1,.166.043c.13644.12467-.176.55-.176.55-.073.061-.173.122-.244.185a2.05542,2.05542,0,0,0-.33.402.54046.54046,0,0,0-.062.149v.005c-.026.129-.051.285-.204.199a3.94022,3.94022,0,0,1-.421-.268.59638.59638,0,0,1-.127-.138c-.133-.193-.298-.021-.385.119a6.27583,6.27583,0,0,1-.458.626.43771.43771,0,0,0-.065.107.49407.49407,0,0,1-.092.146.32446.32446,0,0,0-.066.214.58628.58628,0,0,1-.117.366.33619.33619,0,0,0-.092.224c0,.073,0,.146.003.218.004.055.024.102.086.099a.14549.14549,0,0,0,.042-.012,1.25967,1.25967,0,0,0,.31-.174.44933.44933,0,0,0,.039-.036.09746.09746,0,0,0,.019-.113.11542.11542,0,0,0-.02-.029c-.006-.007-.013-.012-.02-.019a.12937.12937,0,0,1-.051-.066l-.004-.018a.20649.20649,0,0,1,.006-.074c.007-.032.014-.064.018-.096a.14362.14362,0,0,1,.051-.099c.051-.042.102-.082.152-.123a.21646.21646,0,0,0,.063-.252.272.272,0,0,1-.013-.051v-.026a.23011.23011,0,0,1,.051-.108c.034-.048.067-.096.102-.144a.35107.35107,0,0,1,.213-.16.38108.38108,0,0,1,.309.101.90309.90309,0,0,1,.178.389,1.322,1.322,0,0,0,.142.33.16187.16187,0,0,0,.216.07.17194.17194,0,0,0,.032-.023l.015-.009.016-.008a.07454.07454,0,0,1,.084.037,1.42206,1.42206,0,0,0,.138.142c.057.036.008.081-.04.08-.04,0-.079,0-.119-.003a.2526.2526,0,0,0-.102.018,2.49088,2.49088,0,0,1-.732.113.24372.24372,0,0,0-.048.005.09531.09531,0,0,0-.069.051c-.004.009-.008.017-.011.026-.009.024-.018.048-.026.072a.23508.23508,0,0,0-.003.173,2.44618,2.44618,0,0,1,.075,1.045.43678.43678,0,0,0,.083.357.2421.2421,0,0,0,.116.074.15384.15384,0,0,1,.051.026.20051.20051,0,0,1,.047.133.57211.57211,0,0,0,.079.184.635.635,0,0,0,.258.201.10294.10294,0,0,0,.125-.048.80286.80286,0,0,0,.076-.361.12978.12978,0,0,0-.103-.121c-.05987-.01227-.08153.02466-.11146.03292a.09988.09988,0,0,1-.06554-.01292.18815.18815,0,0,1-.069-.086.33846.33846,0,0,1-.012-.22c.005-.02.009-.042.014-.063a.269.269,0,0,0,.004-.102.32762.32762,0,0,0-.027-.102c-.026-.057-.034-.077-.081-.094-.11682-.02556-.089-.099-.089-.099a2.06951,2.06951,0,0,0,.017-.497c0-.054-.012-.111.034-.153.114-.096.305-.018.424.026a2.91633,2.91633,0,0,0,.48.124h.003a1.09965,1.09965,0,0,0,.749-.204c.02-.017.022-.022.044-.008.088.05.141.11.228.166a2.358,2.358,0,0,0,.635.291,4.40357,4.40357,0,0,0,.911-.009.81557.81557,0,0,1,.223.048.03769.03769,0,0,1,.027.04c-.007.112-.051.218-.051.329a1.53362,1.53362,0,0,0,.171.397.6329.6329,0,0,1,.01.748,2.85126,2.85126,0,0,1-.367.301.83024.83024,0,0,1-.427.165.43619.43619,0,0,0-.275.117,1.30842,1.30842,0,0,1-.291.228.15221.15221,0,0,0-.093.1,1.77569,1.77569,0,0,0-.114.385c-.016.076.039.102.106.093a1.49,1.49,0,0,0,.33-.089.10774.10774,0,0,0,.072-.135l-.01-.022-.036-.097a.15294.15294,0,0,1-.007-.029.02437.02437,0,0,1,0-.012v-.011a.11666.11666,0,0,1,.017-.031.26.26,0,0,1,.066-.058.14691.14691,0,0,1,.105-.027c.024.004.048.011.072.017a.3047.3047,0,0,0,.364-.131c.009-.016.019-.03.028-.046a.38082.38082,0,0,1,.101-.114,4.42944,4.42944,0,0,1,.921-.454.0917.0917,0,0,0,.063-.055.28134.28134,0,0,0-.007-.119,1.98669,1.98669,0,0,1-.005-.345c.002-.079.031-.221.134-.223a.14676.14676,0,0,1,.102.064.8739.8739,0,0,0,.399.286,1.39482,1.39482,0,0,1,.14.054.39757.39757,0,0,1,.23.303.266.266,0,0,1-.045.208,5.36766,5.36766,0,0,0-.311.45.66808.66808,0,0,1-.193.203,3.54984,3.54984,0,0,0-.346.264.66762.66762,0,0,0-.217.228c-.06.156-.114.317-.159.479-.026.092.031.114.114.096a1.412,1.412,0,0,0,.352-.142.19762.19762,0,0,0,.046-.036.10294.10294,0,0,0,.022-.068.21077.21077,0,0,0-.051-.116.128.128,0,0,1-.013-.158.121.121,0,0,1,.072-.051c.088-.027.177-.051.267-.075a.547.547,0,0,0,.31-.155.16938.16938,0,0,0,.034-.07v-.007l.005-.02a1.45228,1.45228,0,0,1,.682-.859m-4.612-5.425" /><path d="m25.1 10.1v3.49h14.4q0.0045-0.374 0.013-0.729v-1e-3l-0.023-0.011a36.7 36.7 0 0 0-4.66-1.53 43.3 43.3 0 0 0-6.65-1.08c-1.06-0.095-2.03-0.129-3.09-0.143" /><path d="M37.2725,28.679c.068-.016.22-.013.19-.056-.028-.044-.064-.314-.619-.384l-.05-.007a1.3356,1.3356,0,0,0-.738.204,1.80919,1.80919,0,0,0-.509.515.11724.11724,0,0,1-.148.048c-.241-.102-.722-.215-.997-.297a.07037.07037,0,0,1-.037-.061,2.09284,2.09284,0,0,1,.434-.667c.593-.607.977-.421.91-.518a.89892.89892,0,0,0-.755-.328.88521.88521,0,0,0-.527.178,2.3085,2.3085,0,0,0-.814,1.145.90475.90475,0,0,1-.07.117.17706.17706,0,0,1-.1.05c-.189-.017-.378-.026-.567-.025-.043,0-.225.008-.333,0-.161-.01-.062-.473.207-.887a1.237,1.237,0,0,1,.686-.531v-.001c.074-.037-.107-.188-.554-.157a1.28182,1.28182,0,0,0-.941.597,1.86959,1.86959,0,0,0-.478,1.039.27556.27556,0,0,1-.203.224l-.998.221-.231.057-.137.175a6.91907,6.91907,0,0,1-.61.659l-.2.174.305-.094c.493-.159,1.056-.318,1.213-.362a9.90449,9.90449,0,0,1,2.655-.392,6.87046,6.87046,0,0,1,1.197.12,3.95851,3.95851,0,0,1,1.45.567,6.78357,6.78357,0,0,1,.777.593.81339.81339,0,0,0,.221.165c.074,0,.064-.04.074-.123a1.1281,1.1281,0,0,0-.568-1.17s-.145-.114-.109-.182a1.72051,1.72051,0,0,1,.974-.606" /><path d="M35.0781,32.4378c.064-.022-.164-.356-.625-.356a.93666.93666,0,0,0-.585.26,1.775,1.775,0,0,0-.415.47c-.018.029-.072.126-.146.112a6.44879,6.44879,0,0,0-.745-.092s-.144-.037-.115-.168a1.25023,1.25023,0,0,1,.261-.647,1.87083,1.87083,0,0,1,.719-.544c.102-.052-.353-.188-.526-.179a1.07182,1.07182,0,0,0-.639.248c-.372.249-.491.911-.601,1.262a.15648.15648,0,0,1-.094.109,3.49849,3.49849,0,0,1-.911.118,1.84293,1.84293,0,0,1,.181-1.109,2.44167,2.44167,0,0,1,.545-.615,2.47886,2.47886,0,0,1,.241-.176c.064-.041-.143-.106-.283-.092a1.43591,1.43591,0,0,0-.981.555,2.73272,2.73272,0,0,0-.445,1.558c-.001.019.025.068-.065.093-.155.042-.386.071-.555.134-.133.051-.349.164-.403.133-.055-.03-.063-.138-.076-.226a1.68034,1.68034,0,0,1-.005-.6,2.03,2.03,0,0,1,.463-.958c.068-.058-.611-.112-.966.499a1.67979,1.67979,0,0,0-.274.799,2.4789,2.4789,0,0,0,.116.759c.02.07-.031.086-.031.086l-.123.067c-.23.13-.571.284-.764.381a.07368.07368,0,0,1-.028-.014c-.08-.231-.09-.389-.313-.547a.70618.70618,0,0,0-.617-.053.49835.49835,0,0,0-.301.462.73989.73989,0,0,0,.287.523l-.164.141a.4651.4651,0,0,0-.076.634.27793.27793,0,0,0,.031.043.49277.49277,0,0,0,.695.08.50424.50424,0,0,0,.234-.264c.042.107.131.447.465.493a.43879.43879,0,0,0,.405-.066.5118.5118,0,0,0,.158-.621.67955.67955,0,0,0-.241-.316,9.7744,9.7744,0,0,1,2.2-.976,7.68842,7.68842,0,0,1,2.132-.321,3.52767,3.52767,0,0,1,1.706.388,4.52483,4.52483,0,0,1,1.021.907c.066-.029.037-.217.037-.26a2.14821,2.14821,0,0,0-.766-1.356c-.069-.062-.027-.084-.012-.103a1.82936,1.82936,0,0,1,.994-.655" /><path d="M38.5576,11.5404l.033.012.033.011.171.061h.006a4.50105,4.50105,0,0,0,.014-.532l-.097-.036-.052-.02-.029-.013-.027-.009c-.271-.104-.586-.199-.884-.3q-.4485-.15151-.934-.299l-.09-.028-.092-.029-.225-.066-.229-.068-.119-.037v-.005l.004-.271.006-.278.293.085c.374.106.75.218,1.119.335.37.117.729.236,1.07.356l.118.038.171.051.011.004s.006-.438.006-.505v-.077l-.175-.06-.079-.026c-.322-.114-.652-.224-.983-.33q-.498-.1605-1.003-.306l-.152-.044-.153-.043-.087-.024-.125-.034v-.567l.2.055.237.066.229.065h.012c.26.073.538.159.832.254.293.095.602.201.924.316l.015.005.13.051.185.071h.003c.004-.06.007-.174.007-.239,0-.063-.001-.195-.003-.26l-.16-.058-.111-.039-.018-.007c-.491-.182-.992-.355-1.488-.516-.496-.16-1.526-.455-1.575-.462-.003.034-.02,1.198-.028,1.628s-.015.887-.019,1.127v.013c.446.119,1.043.305,1.531.463.488.156,1.031.323,1.577.521" /><path d="M11.0157,11.6872c.041-.01.73-.259.73-.259l-.015-.943,2.743-.858a.3571.3571,0,0,0,.142-.097.30567.30567,0,0,0,.08-.132.277.277,0,0,0,.009-.08l-.025-1.112v.001a.35306.35306,0,0,0-.178-.254.47838.47838,0,0,0-.349-.058c-.147.026-.87.245-1.18.351-1.04.359-1.88.66-1.918.673-.039.014-.052.022-.055.046-.002.024.016.914.016,1.398Zm1.832-2.931c.331-.112.947-.287.947-.287h.033a.19315.19315,0,0,1,.141.063.23978.23978,0,0,1,.066.135c.007.076.021.313.021.39v.001a.26954.26954,0,0,1-.09.177.40471.40471,0,0,1-.166.103l-2.105.677c0-.019-.013-.828-.013-.828s.834-.319,1.166-.431" /><path d="m11.2 29.7h9.26a5.12 5.12 0 0 1-1.36-3.42v-0.146h-8.46a15.9 15.9 0 0 0 0.558 3.56z" /><path d="M15.7048,10.2243c.196-.037,2.348-.461,2.596-.509a.60644.60644,0,0,0,.442-.522c0-.13-.012-1.749-.012-1.879a.38687.38687,0,0,0-.446-.308c-.147.029-2.417.466-2.609.514-.192.046-.417.213-.417.42,0,0,.004,1.661.004,1.868,0,.206.246.454.442.416m.054-1.973c0-.24.108-.345.388-.399.34-.067,1.359-.25,1.671-.301.243-.04.312.101.312.261v.001c0,.084.011,1.047.008,1.206a.32234.32234,0,0,1-.254.334c-.171.037-1.665.323-1.842.355-.178.033-.283-.094-.283-.265Z" /><path d="m14.7 12.8c0.156-0.098 0.162-0.138 0.159-0.148-2e-3 -0.01-0.028-0.028-0.238-0.029a1.5 1.5 0 0 0-0.844 0.357 1.93 1.93 0 0 0-0.598 0.963 3.74 3.74 0 0 0 0.026 1.3s-0.533 0.25-0.713 0.351a1.13 1.13 0 0 0-0.203-0.393 0.532 0.532 0 0 0-0.59-0.063 0.419 0.419 0 0 0-0.241 0.433 0.766 0.766 0 0 0 0.162 0.376 0.936 0.936 0 0 0-0.385 0.237 0.566 0.566 0 0 0-0.143 0.53 0.387 0.387 0 0 0 0.421 0.241 1.22 1.22 0 0 0 0.59-0.31 2.71 2.71 0 0 0 0.24 0.251 0.5 0.5 0 0 0 0.305 0.102 0.576 0.576 0 0 0 0.251-0.06 0.453 0.453 0 0 0 0.226-0.439c-0.026-0.249-0.263-0.346-0.25-0.438a14.8 14.8 0 0 1 3.82-1.49 14.2 14.2 0 0 1 2.76-0.436 4.26 4.26 0 0 1 1.76 0.18 2.81 2.81 0 0 1 1.25 0.694l8e-3 8e-3a1.17 1.17 0 0 0-0.647-1.02 2.35 2.35 0 0 0-1.04-0.345 2.05 2.05 0 0 1 0.316-0.412 1.4 1.4 0 0 1 0.723-0.378 4.65 4.65 0 0 1 0.726-0.041 0.547 0.547 0 0 0-0.493-0.335 1.68 1.68 0 0 0-0.832 0.076 1.98 1.98 0 0 0-1.05 1.08 12.3 12.3 0 0 0-1.48 7e-3 2.46 2.46 0 0 1 0.427-1.1 2.07 2.07 0 0 1 1.01-0.646 0.621 0.621 0 0 0 0.167-0.083c-0.083-0.081-0.196-0.163-0.611-0.179a1.62 1.62 0 0 0-1.33 0.731 2.83 2.83 0 0 0-0.417 1.3c-0.788 0.141-1.7 0.375-1.7 0.375a2.71 2.71 0 0 1 0.201-0.935 2.21 2.21 0 0 1 0.831-0.901s0.136-0.087 0.168-0.115a0.713 0.713 0 0 0-0.342-0.051 1.74 1.74 0 0 0-0.752 0.205 1.54 1.54 0 0 0-0.788 1.34c-0.011 0.121 0.023 0.594 0 0.708a17.5 17.5 0 0 0-1.79 0.566 2.18 2.18 0 0 1 0.169-1.2 2.05 2.05 0 0 1 0.738-0.854" /><path d="M32.3652,37.5355a1.40677,1.40677,0,0,1,.681-.429c.038-.017-.116-.136-.116-.136a.69332.69332,0,0,0-.426-.133,1.05288,1.05288,0,0,0-.671.266,2.43047,2.43047,0,0,0-.479.642.05129.05129,0,0,1-.038.012,3.83719,3.83719,0,0,0-.661-.16c-.009-.001-.014-.031-.014-.044a1.15445,1.15445,0,0,1,.273-.607,1.77013,1.77013,0,0,1,.579-.462c.184-.077.294-.029.266-.064-.043-.053-.094-.188-.484-.173a1.469,1.469,0,0,0-.814.342,1.9681,1.9681,0,0,0-.599,1.059.08771.08771,0,0,1-.043.044c-.225.047-.435.102-.653.161-.011.002-.038-.009-.038-.019a1.52025,1.52025,0,0,1,.056-.855,1.66,1.66,0,0,1,.549-.673c-.014-.08-.225-.086-.241-.086a1.14754,1.14754,0,0,0-.829.581,1.6781,1.6781,0,0,0-.149,1.304.03979.03979,0,0,1-.014.032,5.83682,5.83682,0,0,0-.571.271c-.012.007-.032.022-.06-.017a1.58709,1.58709,0,0,1-.206-.654.76161.76161,0,0,1,.196-.644.75242.75242,0,0,0-.681.599,1.47181,1.47181,0,0,0,.089.779,2.34069,2.34069,0,0,0,.15.34v.001a.0256.0256,0,0,1-.009.035c-.024.019-.389.298-.458.357-.02.017-.037.019-.051.004-.013-.015-.186-.251-.186-.251l-.004-.005a.432.432,0,0,0-.602-.094l-.024.023a.398.398,0,0,0,.002.563c.096.082.336.235.356.249a3.56249,3.56249,0,0,0-.283.238.41869.41869,0,0,0,.079.576.378.378,0,0,0,.52-.071c.085-.095.194-.367.304-.401.16-.049.092.153.454.386a.34267.34267,0,0,0,.412-.06c.125-.144.113-.465-.367-.677-.04-.021-.127-.05-.076-.101a4.487,4.487,0,0,1,.368-.306c.062-.045.122-.089.182-.135a4.57711,4.57711,0,0,1,1.36-.675,3.73146,3.73146,0,0,1,1.127-.19,3.43715,3.43715,0,0,1,1.207.24,1.43141,1.43141,0,0,1,.694.488c.133.171.233-.057.209-.22-.022-.146-.073-.371-.489-.64-.076-.05-.082-.081-.065-.152s.024-.149.288-.458" /><path d="m14.1 35.8a18.6 18.6 0 0 0 1.46 1.93h9.06l1e-3 -3.57h-11.5q0.458 0.828 0.991 1.64" /><path d="M27.0869,31.3841a5.39178,5.39178,0,0,1-1.127.296c.01.032.023.062.036.094a.21115.21115,0,0,0,.204.138c.124.019.217-.068.309-.274.014-.017.067-.039.079-.02.098.161.322.306.475.225a.25465.25465,0,0,0,.084-.35l-.01-.014Z" /><path d="m20.5 17.1s0.199-0.057 0.276-0.083a0.617 0.617 0 0 0-0.135-0.097 1.2 1.2 0 0 0-0.582-0.135 1.44 1.44 0 0 0-0.602 0.126 1.69 1.69 0 0 0-0.798 1.01s-0.467 0.015-0.646 0.027l-0.669 0.046a1.93 1.93 0 0 1 0.051-0.339 1.6 1.6 0 0 1 0.322-0.611 1.74 1.74 0 0 1 1-0.578c0.035-8e-3 0.073-0.018 0.093-0.025a0.774 0.774 0 0 0-0.438-0.126 1.67 1.67 0 0 0-1.66 1.55c-8e-3 0.053-0.03 0.183-0.03 0.183s-0.331 0.074-0.482 0.102a5.48 5.48 0 0 0-0.807 0.203 2.42 2.42 0 0 1 0.241-0.932 2.2 2.2 0 0 1 0.571-0.705 2.3 2.3 0 0 1 0.185-0.14 1.04 1.04 0 0 0-0.254-0.035 1.22 1.22 0 0 0-1.13 0.782 3.28 3.28 0 0 0-0.199 1.28c-0.251 0.062-0.823 0.279-1.06 0.37a2.12 2.12 0 0 1 9e-3 -0.944 1.48 1.48 0 0 1 0.381-0.712 1.73 1.73 0 0 1 0.168-0.153c-0.015-5e-3 -0.065-0.036-0.297 0.015a1.23 1.23 0 0 0-0.865 0.838 5.17 5.17 0 0 0-0.106 1.3c-0.142 0.07-0.603 0.278-0.686 0.313a1.08 1.08 0 0 0-0.124-0.329 0.427 0.427 0 0 0-0.353-0.19 0.54 0.54 0 0 0-0.239 0.058 0.309 0.309 0 0 0-0.152 0.184 0.401 0.401 0 0 0 0.024 0.311 1 1 0 0 0 0.117 0.167c0.034 0.042 0.105 0.144 0.105 0.144a1.2 1.2 0 0 0-0.414 0.209 0.441 0.441 0 0 0-0.142 0.575 0.373 0.373 0 0 0 0.346 0.204 0.894 0.894 0 0 0 0.611-0.305s0.163 0.244 0.187 0.282a0.386 0.386 0 0 0 0.333 0.171 0.434 0.434 0 0 0 0.209-0.051 0.47 0.47 0 0 0 0.227-0.41 0.642 0.642 0 0 0-0.168-0.389l-0.037-0.05 0.334-0.176a10.8 10.8 0 0 1 1.67-0.764 13.3 13.3 0 0 1 2.86-0.668 3.5 3.5 0 0 1 0.605-0.035 2.39 2.39 0 0 1 0.731 0.163v-1.01h0.403a1.86 1.86 0 0 1 1-0.61" /><path d="m39.5 18.2 2e-3 -1e-3h-8.5v3.14h8.44c0.014-1.02 0.034-2.08 0.055-3.14" /><path d="M18.647,22.2425c.145,0,.329.014.476.028v-1.472a1.83021,1.83021,0,0,0-.379.392,2.06714,2.06714,0,0,0-.203.421s-.343.007-.686.041c-.344.033-.789.113-.789.113l-.003-.032a1.613,1.613,0,0,1,.18-.749,4.343,4.343,0,0,1,.913-1l.051-.033c.065-.045.065-.045.068-.079a.77109.77109,0,0,0-.261-.033,1.57628,1.57628,0,0,0-1.056.641,2.10546,2.10546,0,0,0-.429,1.432c-.105.032-.967.315-1.12.351a1.80167,1.80167,0,0,1,.726-2.005,1.383,1.383,0,0,0-1.235.747,2.23153,2.23153,0,0,0,.042,1.493c-.275.082-1.024.379-1.024.379a1.48969,1.48969,0,0,1-.146-.883,1.597,1.597,0,0,1,.448-1.077c-.345-.166-1.041.298-1.142.981a2.39934,2.39934,0,0,0,.317,1.275c-.192.136-.515.353-.623.426-.031-.034-.133-.392-.327-.508a.44559.44559,0,0,0-.509-.015.5016.5016,0,0,0-.157.546c.051.135.239.293.262.39a1.48379,1.48379,0,0,1-.285.182.51661.51661,0,0,0-.272.344.41277.41277,0,0,0,.083.34.43.43,0,0,0,.344.157.57189.57189,0,0,0,.279-.078c.1-.055.389-.331.421-.349.107.116.195.419.538.407.383-.01.568-.28.484-.57a.88407.88407,0,0,0-.4-.438,12.9757,12.9757,0,0,1,1.581-.826,10.86751,10.86751,0,0,1,3.833-.939" /><path d="M24.9863,9.1556c.185,0,.34.003.489.008.15.004.291.01.438.015l.305.012.345.011a.39768.39768,0,0,0,.22-.09.27544.27544,0,0,0,.119-.186l.005-.536.005-.535a.27518.27518,0,0,0-.102-.173.34471.34471,0,0,0-.178-.095c-.219-.014-.459-.022-.698-.025-.239-.004-.485-.005-.719-.006-.149,0-.957.007-.973,0a.08582.08582,0,0,1-.043-.023.15089.15089,0,0,1-.031-.093c0-.035.001-.07.004-.104v-.102a1.38107,1.38107,0,0,1,.014-.241c.015-.034.05-.052.13-.056.061,0,1.046.004,1.714.009h.243c.189-.005.414.012.582.009v-.487c-.294-.017-.492-.025-.786-.032h-.054c-.164-.005-.342-.009-.521-.012-.699-.01-1.457,0-1.539,0a.47351.47351,0,0,0-.22.089.23467.23467,0,0,0-.112.154l-.007.564-.006.564a.21554.21554,0,0,0,.112.153.47118.47118,0,0,0,.235.079c.122.003.247.005.372.006l.362.004c.243,0,.501.005.76.01s.518.015.766.032c.072.004.102.033.116.077a.75317.75317,0,0,1,.005.171l-.003.065-.003.066a.38548.38548,0,0,1-.024.178c-.021.035-.066.046-.158.046-.005,0-.254-.005-.351-.005h-.309l-.362-.004h-.365c-.21,0-.411,0-.6.007-.188.008-.402.016-.56.027l-.019.487c.27-.013.56-.023.785-.029s.432-.009.617-.009" /><path d="M20.0092,9.5076s-.005-.87,0-.874,1.368-.144,1.644-.176a.52294.52294,0,0,1,.503.305,2.05808,2.05808,0,0,1,.197.531l.639-.038a1.40041,1.40041,0,0,0-.14-.516,1.68619,1.68619,0,0,0-.408-.522.64743.64743,0,0,0,.305-.414,6.17906,6.17906,0,0,0-.034-.971c-.017-.154-.082-.306-.373-.323-.292-.018-2.923.283-2.923.283v2.793l.295-.039Zm-.018-1.811v-.422l1.896-.187a.35674.35674,0,0,1,.207.053.18423.18423,0,0,1,.056.154l.004.307a.34626.34626,0,0,1-.094.241.39162.39162,0,0,1-.246.111l-.911.082-.912.082Z" /><path d="M27.6611,9.0882a.32734.32734,0,0,0,.075.115.43116.43116,0,0,0,.196.105.569.569,0,0,0,.122.017l.029.002.029.003c.406.038.841.079,1.287.125.446.047.868.09,1.323.154l.204.031.004-.275v-.236l-.238-.034-.178-.027-.02-.001h-.02c-.352-.046-.704-.084-1.083-.13-.378-.047-.729-.091-1.092-.128a.08015.08015,0,0,1-.055-.03.08335.08335,0,0,1-.023-.058V7.2452a.15263.15263,0,0,1,.05-.135.26561.26561,0,0,1,.154-.051c.235.019,2.26.291,2.582.335l.005-.251c.003-.068,0-.135,0-.207v-.082c-.436-.063-1.18-.144-1.778-.212-.458-.051-.825-.089-.988-.107a.54966.54966,0,0,0-.397.136.48574.48574,0,0,0-.204.324c-.011.116-.005.949-.005.949l-.004.996a.4187.4187,0,0,0,.025.148" /><polygon points="34.7 10.3 34.7 7.63 34.2 7.52 34.2 8.66 32 8.22 32 7.06 31.5 6.97 31.4 9.7 32 9.82 32 8.7 34.2 9.14 34.1 10.2" /><path d="M20.51855,20.01611a.72064.72064,0,0,0,.07032.02832c.02636.00879.05468.01709.08447.02393a.91144.91144,0,0,0,.09375.01611.802.802,0,0,0,.09668.00586.422.422,0,0,0,.12793-.01758.26562.26562,0,0,0,.09277-.04882.21093.21093,0,0,0,.05664-.07471.22816.22816,0,0,0,.01905-.09375.25644.25644,0,0,0-.00635-.06055.17864.17864,0,0,0-.021-.04931.17411.17411,0,0,0-.03515-.041.29241.29241,0,0,0-.0503-.03467.56836.56836,0,0,0-.0664-.03076c-.02442-.00977-.05176-.01953-.082-.02978-.03711-.01221-.07178-.02491-.1045-.0376a.71693.71693,0,0,1-.08886-.04346.40049.40049,0,0,1-.07178-.05273.28149.28149,0,0,1-.05371-.06641.30412.30412,0,0,1-.03272-.0835.40874.40874,0,0,1-.01123-.10547.46538.46538,0,0,1,.01123-.10644.3491.3491,0,0,1,.03369-.0918.29807.29807,0,0,1,.05665-.07568.31925.31925,0,0,1,.08007-.05664.42376.42376,0,0,1,.1045-.03565.62318.62318,0,0,1,.12939-.0122.89443.89443,0,0,1,.09863.00488.611.611,0,0,1,.08545.01416.40167.40167,0,0,1,.07324.02344.39532.39532,0,0,1,.0625.03222v.15284a.49691.49691,0,0,0-.06689-.03223.67771.67771,0,0,0-.0752-.02393.71812.71812,0,0,0-.084-.01416.81413.81413,0,0,0-.09375-.00488.36567.36567,0,0,0-.11475.01611.22.22,0,0,0-.08105.04493.18356.18356,0,0,0-.04834.06982.24644.24644,0,0,0-.01611.09082.24107.24107,0,0,0,.00634.05908.16794.16794,0,0,0,.02.04785.16545.16545,0,0,0,.03467.03955.28855.28855,0,0,0,.05029.03272.56941.56941,0,0,0,.06641.03027c.02539.00928.05322.01953.08447.02979.03858.01269.07422.02588.10694.03906a.66955.66955,0,0,1,.08984.04443.42972.42972,0,0,1,.07178.05372.28306.28306,0,0,1,.05224.06738.31562.31562,0,0,1,.03174.08447.46384.46384,0,0,1,.01074.10547.47092.47092,0,0,1-.0122.10644.3587.3587,0,0,1-.0376.09375.33586.33586,0,0,1-.0625.07911.35261.35261,0,0,1-.0874.06054.46.46,0,0,1-.11231.03809.63879.63879,0,0,1-.13769.01367,1.02668,1.02668,0,0,1-.10449-.00488.86171.86171,0,0,1-.09473-.01416.6895.6895,0,0,1-.08252-.02393.35494.35494,0,0,1-.0669-.03174Z" /><path d="m21.8 20.2v-1.21h-0.361v-0.145h0.874v0.145h-0.361v1.21z" /><path d="m23.2 18.9h0.152v0.928a0.739 0.739 0 0 1-0.0122 0.137 0.442 0.442 0 0 1-0.0356 0.112 0.322 0.322 0 0 1-0.146 0.15 0.432 0.432 0 0 1-0.11 0.0376 0.73 0.73 0 0 1-0.271 0 0.426 0.426 0 0 1-0.11-0.0376 0.319 0.319 0 0 1-0.0845-0.0625 0.326 0.326 0 0 1-0.0596-0.0874 0.462 0.462 0 0 1-0.0356-0.112 0.74 0.74 0 0 1-0.0117-0.137v-0.928h0.152v0.898a0.558 0.558 0 0 0 0.0171 0.145 0.265 0.265 0 0 0 0.0522 0.104 0.213 0.213 0 0 0 0.0884 0.0615 0.411 0.411 0 0 0 0.256 0 0.216 0.216 0 0 0 0.0894-0.0615 0.265 0.265 0 0 0 0.0518-0.104 0.537 0.537 0 0 0 0.0171-0.145z" /><path d="m24 20.2v-1.21h-0.361v-0.145h0.875v0.145h-0.361v1.21z" /><path d="m24.9 20.2v-1.21h-0.361v-0.145h0.875v0.145h-0.361v1.21z" /><path d="M26.39062,19.59814H26.0625v-.145H26.543v.70215a.56449.56449,0,0,1-.05469.02588c-.01953.00781-.041.01514-.06152.02149s-.044.01172-.06738.0166c-.02247.00488-.04688.00879-.07227.01221-.02539.00293-.05273.00537-.08008.00732-.02734.00146-.05664.00244-.08594.00244a.57346.57346,0,0,1-.229-.04346.43383.43383,0,0,1-.17041-.13086.62048.62048,0,0,1-.10547-.22021,1.30325,1.30325,0,0,1-.02-.51416.78342.78342,0,0,1,.04883-.17139.57078.57078,0,0,1,.07959-.1372.45081.45081,0,0,1,.10937-.09961.4834.4834,0,0,1,.13916-.06153.62462.62462,0,0,1,.16651-.021c.02051,0,.042.00049.0625.002.02051.002.042.00391.06152.00684s.03906.00634.0586.01074.03711.00928.05468.01465a.36225.36225,0,0,1,.04785.01855c.01465.00684.02832.01416.041.02149v.15332a.40634.40634,0,0,0-.06543-.02979.57887.57887,0,0,0-.07715-.02295c-.02734-.00586-.05566-.01074-.085-.01416a.7619.7619,0,0,0-.08887-.00488.45489.45489,0,0,0-.1792.03271.3165.3165,0,0,0-.12988.09912.47322.47322,0,0,0-.0791.16846.959.959,0,0,0-.02637.23877,1.1107,1.1107,0,0,0,.01319.17969.69083.69083,0,0,0,.03759.14062.42.42,0,0,0,.06006.10547.33849.33849,0,0,0,.08008.07227.32849.32849,0,0,0,.09766.041.45742.45742,0,0,0,.11133.01319c.02636,0,.05078-.001.07519-.00244.02442-.002.04688-.0044.06836-.00782a.51141.51141,0,0,0,.06055-.01172c.01855-.00488.03613-.00976.05175-.01562Z" /><path d="m27.6 20.2-0.108-0.344h-0.523l-0.107 0.344h-0.156l0.445-1.35h0.165l0.449 1.35zm-0.323-1.03c-0.00879-0.0264-0.0176-0.0542-0.0254-0.0835a0.694 0.694 0 0 1-0.0205-0.0903 0.863 0.863 0 0 1-0.0225 0.0898c-0.00781 0.0293-0.0166 0.0571-0.0244 0.084l-0.171 0.539h0.433z" /><path d="m28.6 20.2-0.268-0.457-0.0225-0.0371a0.286 0.286 0 0 0-0.0205-0.0283 0.141 0.141 0 0 0-0.0215-0.0205 0.106 0.106 0 0 0-0.0225-0.0137 0.0872 0.0872 0 0 0-0.0264-0.00781 0.216 0.216 0 0 0-0.0322-0.00244h-0.129v0.567h-0.152v-1.35h0.376a0.573 0.573 0 0 1 0.176 0.0239 0.302 0.302 0 0 1 0.123 0.0728 0.29 0.29 0 0 1 0.0732 0.121 0.552 0.552 0 0 1 0.0245 0.17 0.497 0.497 0 0 1-0.0205 0.15 0.349 0.349 0 0 1-0.0566 0.112 0.307 0.307 0 0 1-0.0869 0.0762 0.406 0.406 0 0 1-0.108 0.0435 0.211 0.211 0 0 1 0.0459 0.0396 0.432 0.432 0 0 1 0.043 0.0606l0.286 0.485zm-0.349-0.704a0.404 0.404 0 0 0 0.117-0.0151 0.204 0.204 0 0 0 0.084-0.0478 0.197 0.197 0 0 0 0.0518-0.082 0.358 0.358 0 0 0 0.0166-0.118 0.37 0.37 0 0 0-0.0146-0.11 0.175 0.175 0 0 0-0.0469-0.0767 0.197 0.197 0 0 0-0.082-0.0454 0.411 0.411 0 0 0-0.12-0.0151h-0.199v0.51z" /><path d="m29.3 20.2v-1.21h-0.36v-0.145h0.874v0.145h-0.361v1.21z" /></svg>