<svg xmlns="http://www.w3.org/2000/svg" viewBox="0 0 50 58"><defs><linearGradient id="Background"><stop offset="0" stop-color="#5baa44" /></linearGradient><linearGradient id="Frame"><stop offset="0" stop-color="#5baa44" /></linearGradient><linearGradient id="Pictogram"><stop offset="0" stop-color="#ffffff" /></linearGradient></defs><path d="m44.2 2.75h-38.5a3 3 0 0 0-3 3v38.5a3 3 0 0 0 3 3h7.78l11.5 9.43 11.5-9.43h7.78a3 3 0 0 0 3-3v-38.5a3 3 0 0 0-3-3z" fill="url(#Background)" stroke="url(#Frame)" stroke-miterlimit="10" stroke-width="1.5" /><line fill="#fff" stroke="url(#Pictogram)" stroke-miterlimit="10" stroke-width="1.5" x1="9" x2="41" y1="39.5" y2="39.5" /><polyline fill="#fff" points="25 34 25 11 34 15.5 25 20" stroke="url(#Pictogram)" stroke-miterlimit="10" stroke-width="1.5" /><path d="m13 39.5s5.12-5.82 12-6c6.89 0.182 12 6 12 6" fill="none" stroke="url(#Pictogram)" stroke-miterlimit="10" stroke-width="1.5" /></svg>