<svg xmlns="http://www.w3.org/2000/svg" version="1.1" viewBox="0 0 50 50"><defs><linearGradient><stop offset="0" stop-color="#fff" /></linearGradient><linearGradient id="Pictogram"><stop offset="0" stop-color="#000000" /></linearGradient></defs><circle cx="25" cy="25" fill="#fff" r="19.5" stroke="red" stroke-miterlimit="10" stroke-width="6" /><line fill="none" stroke="url(#Pictogram)" stroke-miterlimit="10" stroke-width="3" x1="38" x2="12" y1="25" y2="25" /><circle cx="12" cy="25" r="1.5" /><circle cx="38" cy="25" r="1.5" /><g aria-label="MAUT" transform="translate(12.2 21.7)"><path d="m6.1 0v-4.27q0-0.208 0.00623-0.44 0.0083-0.232 0.0291-0.45-0.0892 0.212-0.201 0.44-0.11 0.228-0.208 0.39l-1.58 2.6h-0.513l-1.58-2.6q-0.0519-0.0851-0.108-0.185-0.056-0.102-0.112-0.208-0.054-0.108-0.108-0.218-0.054-0.112-0.0996-0.22 0.0208 0.228 0.0291 0.457 0.0104 0.226 0.0104 0.434v4.27h-0.778v-6.16h0.896l1.77 2.96q0.0975 0.162 0.178 0.33 0.0809 0.168 0.151 0.347 0.0664-0.178 0.149-0.347 0.083-0.17 0.187-0.332l1.77-2.96h0.882v6.16z" /><path d="m12.4 0-0.571-1.56h-2.75l-0.569 1.56h-0.82l2.34-6.16h0.867l2.36 6.16zm-1.7-4.69q-0.0706-0.181-0.135-0.38-0.0643-0.199-0.106-0.411-0.0477 0.212-0.116 0.411-0.0685 0.197-0.131 0.38l-0.896 2.45h2.27z" /><path d="m17.7-6.16h0.801v4.22q0 0.34-0.0623 0.623-0.0623 0.282-0.189 0.508-0.127 0.226-0.318 0.396-0.191 0.17-0.448 0.284-0.255 0.114-0.579 0.17-0.322 0.0581-0.712 0.0581t-0.714-0.0581q-0.324-0.056-0.579-0.17-0.255-0.114-0.444-0.284-0.189-0.17-0.313-0.396-0.125-0.226-0.187-0.508-0.0623-0.282-0.0623-0.623v-4.22h0.801v4.08q0 0.378 0.0892 0.66t0.272 0.471q0.185 0.187 0.467 0.28 0.282 0.0913 0.67 0.0913 0.39 0 0.674-0.0913 0.284-0.0934 0.469-0.28 0.185-0.189 0.274-0.471 0.0892-0.282 0.0892-0.66z" /><path d="m22.2 0v-5.5h-1.9v-0.66h4.59v0.66h-1.9v5.5z" /></g><g aria-label="PEAGE" transform="translate(12.2 33.8)"><path d="m0.799 0v-5.54h1.84q0.321 0 0.585 0.0542 0.265 0.0523 0.473 0.155t0.36 0.252 0.254 0.342q0.103 0.191 0.151 0.422 0.0504 0.232 0.0504 0.497 0 0.267-0.0486 0.501-0.0467 0.232-0.148 0.424-0.099 0.192-0.256 0.342-0.155 0.149-0.374 0.252-0.217 0.101-0.499 0.155-0.28 0.0542-0.631 0.0542h-1.03v2.09zm1.68-2.66q0.353 0 0.6-0.0766 0.247-0.0784 0.398-0.226 0.153-0.149 0.22-0.364 0.0691-0.215 0.0691-0.487 0-0.26-0.0691-0.471-0.0672-0.213-0.217-0.362-0.149-0.149-0.387-0.232-0.235-0.0822-0.57-0.0822h-1.01v2.3z" /><path d="m5.36 0v-5.54h3.52v0.594h-2.8v1.82h2.41v0.59h-2.41v1.95h2.81v0.592z" /><path d="m13.8 0-0.514-1.41h-2.47l-0.512 1.41h-0.738l2.11-5.54h0.781l2.12 5.54zm-1.53-4.22q-0.0635-0.162-0.121-0.342-0.0579-0.179-0.0952-0.37-0.043 0.191-0.105 0.37-0.0616 0.177-0.118 0.342l-0.807 2.2h2.04z" /><path d="m19.1-2.54h-1.56v-0.59h2.27v2.87q-0.123 0.0579-0.261 0.106-0.138 0.0486-0.289 0.0878-0.149 0.0374-0.316 0.0672-0.164 0.0299-0.346 0.0486-0.179 0.0205-0.375 0.0299-0.196 0.0112-0.409 0.0112-0.607 0-1.08-0.177-0.476-0.177-0.805-0.536-0.327-0.359-0.501-0.898-0.172-0.542-0.172-1.27 0-0.45 0.0784-0.835 0.0784-0.387 0.23-0.702 0.153-0.316 0.377-0.558 0.224-0.245 0.519-0.409 0.295-0.166 0.657-0.252 0.362-0.0859 0.788-0.0859 0.148 0 0.295 0.00934t0.289 0.028q0.144 0.0168 0.278 0.043 0.134 0.0261 0.256 0.0598 0.123 0.0336 0.23 0.0766 0.106 0.0411 0.192 0.0878v0.626q-0.136-0.0672-0.308-0.121-0.17-0.0542-0.364-0.0915-0.194-0.0392-0.403-0.0598-0.209-0.0205-0.42-0.0205-0.482 0-0.848 0.134-0.366 0.133-0.614 0.407-0.247 0.273-0.374 0.687-0.125 0.415-0.125 0.977 0 0.407 0.0616 0.734 0.0635 0.325 0.179 0.575 0.118 0.25 0.284 0.431 0.168 0.179 0.377 0.295 0.211 0.114 0.459 0.168 0.25 0.0542 0.53 0.0542 0.187 0 0.357-0.0112 0.17-0.0112 0.321-0.0299 0.153-0.0205 0.286-0.0486 0.134-0.0299 0.248-0.0654z" /><path d="m20.9 0v-5.54h3.52v0.594h-2.8v1.82h2.41v0.59h-2.41v1.95h2.81v0.592z" /></g></svg>