<svg xmlns="http://www.w3.org/2000/svg" viewBox="0 0 50 58"><defs><linearGradient id="Frame"><stop offset="0" stop-color="#ffffff" /></linearGradient></defs><path d="m44.2 2.75h-38.5a3 3 0 0 0-3 3v38.5a3 3 0 0 0 3 3h7.78l11.5 9.43 11.5-9.43h7.78a3 3 0 0 0 3-3v-38.5a3 3 0 0 0-3-3z" fill="#fff" stroke="url(#Frame)" stroke-miterlimit="10" stroke-width="1.5" /><path d="m31.5 38a49.5 49.5 0 0 1 6.69-1.57c2.52-0.289 3.67-0.366 3.67-0.366a0.257 0.257 0 0 1 0.311 0.224c0.0498 0.255-0.344 0.311-0.344 0.311a140 140 0 0 0-13.8 4.9c-0.604 0.252-8.43 3.69-8.43 3.69a3.97 3.97 0 0 1-1.74 0.207c-0.783-0.143-0.943-0.498-1-0.861 0 0-0.231-0.798 0.904-1.18 1.05-0.355 3.85-1.61 3.85-1.61l7.37-2.92 2.51-0.82" fill="#f5c323" /><path d="m43.3 19.7a0.988 0.988 0 0 0-0.437 0.173c-2.8-0.583-5.96 2.37-6.14 3.68-0.136 0.955 0.139 1.63 0.93 1.8a3.74 3.74 0 0 0 2.13-0.356 11.3 11.3 0 0 0 1.84-1.19c0.12 0.305 0.783 0.599 1.39 0.624a4.55 4.55 0 0 0 1.84-0.587 0.458 0.458 0 0 0 0.134-0.503c-0.0394-0.14-0.797-0.229-1.08-0.254a0.707 0.707 0 0 1-0.639-0.478 6.5 6.5 0 0 1 0.474-1.96c0.185-0.683-0.192-0.932-0.402-0.951a0.356 0.356 0 0 0-0.0406-0.00178zm-8.78 0.0688a2.14 2.14 0 0 0-0.266 0.0212s-3.47 0.502-3.65 0.471a2.85 2.85 0 0 0-0.446-0.0847 0.711 0.711 0 0 0-0.409 0.176 0.773 0.773 0 0 0-0.104 0.778 1.06 1.06 0 0 0 0.559 0.572 17.2 17.2 0 0 0 3.41-0.171l-3.46 2.83a3.66 3.66 0 0 0-1.17 1.46c-0.305 0.84 0.235 0.873 0.305 0.868a10.4 10.4 0 0 1 1.16-0.19c0.535-0.0404 1.99 0.022 2.51 0.0512a6.62 6.62 0 0 0 2.59-0.377c0.838-0.368 1.14-0.742 1.06-0.99-0.0808-0.247-0.375-0.16-0.432-0.143-0.0582 0.016-0.165 0.0275-0.63 0.097a12.1 12.1 0 0 1-2.06-0.189c-0.236-0.0282-1.08-0.116-1.08-0.116 0.103-0.0404 3.11-3.11 3.11-3.11s0.896-0.965 0.402-1.48a1.89 1.89 0 0 0-1.39-0.464zm7.3 1.38s-0.369 0.832-0.43 0.995a1.96 1.96 0 0 0-0.0829 0.418s-0.979 0.561-1.43 0.743a2.74 2.74 0 0 1-1.02 0.145c0.568-1.92 2.97-2.3 2.97-2.3zm-13.8 0.4a27.2 27.2 0 0 0-2.79 0.157 6.98 6.98 0 0 1-1.74 0.0282 0.642 0.642 0 0 0-0.609 0.337c-0.426 0.895 1.13 1.1 1.13 1.1a13 13 0 0 0 2.9-0.286 39.1 39.1 0 0 0-5.26 4.73c-0.232 0.372-0.573 1.03-0.125 1.54s1.48-0.0423 1.48-0.0423a17 17 0 0 1 3.73-0.346s1.25-0.0153 3.39 0.0617a5.97 5.97 0 0 0 3.6-0.864c0.328-0.202 0.363-0.401 0.284-0.533a0.379 0.379 0 0 0-0.485-0.109 8.79 8.79 0 0 1-1.5 0.325 16.1 16.1 0 0 1-3.53-0.381 11.1 11.1 0 0 0-3.67-0.00176l2.51-2.38a12.8 12.8 0 0 0 1.78-2.36 0.693 0.693 0 0 0-0.542-0.97c-0.0756-0.0087-0.274-0.00989-0.542-0.00707zm-6.58 0.339a0.869 0.869 0 0 0-0.111 0.00882c-0.31 0.0385-0.344 0.466-0.344 0.466-2.23 2.94-2.49 3.88-2.6 4.76-0.113 0.878 0.32 1.99 1.02 2s0.482-0.596 0.482-0.596a13 13 0 0 1 0.938-2.17 7 7 0 0 0 1.1-3.51c-0.0592-0.797-0.232-0.956-0.482-0.958zm-8.18 0.245a6.53 6.53 0 0 0-3.24 0.893c-1.15 0.746-0.736 1.56-0.621 1.68 0.115 0.116 0.379 0.264 1.61-0.212 0 0-3.16 3.58-4.66 11.2 0 0-0.252 1.88 0.462 1.97 0.716 0.0845 1.14-0.987 1.4-1.64 0.107-0.283 4.75-11 3.91-11.6 0 0 2.9-0.161 3.21 1.81 0.316 1.97-2.73 3.5-3.63 3.68-0.895 0.178-0.877 0.541-0.822 0.587 0.0564 0.047 0.252 0.308 1.41 0.131a6.71 6.71 0 0 0 4.98-3.44 3.41 3.41 0 0 0-0.965-4.04 4.63 4.63 0 0 0-3.05-0.995zm23.3 5.72a0.523 0.523 0 0 0-0.362 0.189c-0.256 0.242-1.66 2.52-1.66 2.52s-0.937 0.172-1.13 0.198a1.29 1.29 0 0 1-0.386-0.0176c-0.344-0.172-1.1-0.0268-1.06 0.644 0.0423 0.672 1.83 0.663 1.83 0.663l-0.00353 0.0212a21.6 21.6 0 0 0-0.852 2.82 13.7 13.7 0 0 0-0.0811 2.67c0.0113 0.103 0.127 0.528 0.374 0.54a0.409 0.409 0 0 0 0.362-0.229l0.982-2.91 1.2-3.24c0.458-0.0808 4.81-1.83 4.81-1.83s0.443-0.196 0.402-0.369c-0.0498-0.208-0.307-0.143-0.307-0.143l-4.22 0.785 0.586-1.18s0.323-0.71-0.123-1.01a0.59 0.59 0 0 0-0.367-0.116zm-13 1.91c-0.113 0-0.337 0.0433-1.01 1.17a20.9 20.9 0 0 0-1.38 3.62l-3.06 0.647s2.06-5.24 1.02-5.2c-1.04 0.0338-3.54 5.73-3.54 5.73s-1.22 0.153-1.95 0.289c0 0-0.527 0.0827-0.587 0.476a0.829 0.829 0 0 0 0.153 0.637c0.241 0.344 1.67 0.499 1.67 0.499a16.2 16.2 0 0 0-0.716 3.21c0.0094 0.526 0.0961 1.4 0.734 1.48a1.47 1.47 0 0 0 1.33-0.741c0.276-0.482 1.21-4.21 1.21-4.21 0.423-0.0432 3.2-1.16 3.2-1.16a12.9 12.9 0 0 0-0.404 2.21c-0.0357 0.871 0.344 1.25 0.723 1.28a1.33 1.33 0 0 0 1.09-0.734 33.4 33.4 0 0 0 1.14-4.06l1.19-0.774s0.312-0.24 0.199-0.423a0.243 0.243 0 0 0-0.31-0.09l-0.841 0.321s0.535-3.11 0.621-3.64a0.427 0.427 0 0 0-0.473-0.543zm7.5 1.64a0.792 0.792 0 0 0-0.404 0.148 8.24 8.24 0 0 0-0.947 1.57 14.6 14.6 0 0 1-3.14 2.51 4.81 4.81 0 0 0 0.339-2.13 1.56 1.56 0 0 0-1.04-1.32 1.73 1.73 0 0 0-1.3 0.19c-0.134 0.15-0.0904 0.302 0.206 0.45a1.06 1.06 0 0 1 0.436 0.473 0.664 0.664 0 0 1-0.0176 0.388c-0.00845 0.0385-0.529 1.61-0.529 1.61s-0.466 1.52 0.198 2.01c0.663 0.492 1.12 0.44 2.17-0.0335a8.21 8.21 0 0 0 2.3-2.27 2.47 2.47 0 0 0 1.05 2.13 0.802 0.802 0 0 0 0.681 0.233 0.419 0.419 0 0 0 0.111-0.647 19.2 19.2 0 0 1 0.173-3.28 8.08 8.08 0 0 0 0.171-1.64c-0.113-0.302-0.291-0.384-0.457-0.381z" /><path d="m23.6 17s0.319-0.16 0.453-0.0225c0.134 0.139 0.0545 0.347-0.0498 0.536a24 24 0 0 1-2.07 2.9 0.948 0.948 0 0 1-1.11 0.115c-0.35-0.207-0.305-0.886-0.178-1.17a3.77 3.77 0 0 1 1.41-1.62 6.96 6.96 0 0 1 1.55-0.733" fill="#018e66" /><path d="m42.8 14-0.621-0.429c-1.76-1.38-8.88-4.2-8.88-4.2s-0.499-1.13-0.786-1.68a12.1 12.1 0 0 0-2.07-2.8 0.194 0.194 0 0 0-0.114-0.0385l-0.0582 0.0113-2.09 0.561-4.8 1.39s-3.29 1.03-3.44 1.09a0.936 0.936 0 0 0-0.268 0.162s-1.12 1.93-1.21 2.15c-0.0958 0.224-1.39 2.72-1.39 2.72l-3.2 1.52c-0.289 0.156-0.298 0.142-2.51 1.48l-2.69 1.88s-2.55 1.92-2.76 2.11a0.789 0.789 0 0 0-0.225 0.958c0.219 0.358 0.77 0.293 0.77 0.293l2.73-0.779 5.21-1.37 5.94-1.23 0.849-0.041a4.16 4.16 0 0 1 0.626-0.482 7.62 7.62 0 0 1 1.65-0.782 0.889 0.889 0 0 1 1.02 0.112 0.768 0.768 0 0 1 0.222 0.564l0.344-0.0582 0.0169-0.00376 6.57-0.85s4.2-0.428 5.6-0.471a20.9 20.9 0 0 0 5.05-0.614c0.137-0.0573 0.597-0.22 0.688-0.594a0.564 0.564 0 0 0-0.189-0.579" fill="#da0021" /><path d="m31.4 4.54a0.0524 0.0524 0 0 0-0.0212 0.00529c-0.0601 0.0272-0.0335 0.101-0.0335 0.101l0.658 3.21a17.6 17.6 0 0 0 0.392 2.01c0.146 0.322 1.16 0.658 1.16 0.658 2.02 0.483 9.77 3.27 9.77 3.27a5.81 5.81 0 0 0 0.584 0.19 0.501 0.501 0 0 0 0.474-0.314 0.49 0.49 0 0 0-0.141-0.515c-0.0188-0.016-0.22-0.115-0.22-0.115a63.4 63.4 0 0 0-6.59-2.65c-0.206-0.0564-4.11-1.19-4.11-1.19s-1.16-3.18-1.23-3.39c-0.0686-0.219-0.607-1.2-0.607-1.2s-0.0382-0.0682-0.0882-0.067zm-1.8 0.312a0.409 0.409 0 0 0-0.0617 0.00352l-2.03 0.519s-7.84 2.25-8.15 2.35a0.585 0.585 0 0 0-0.386 0.325c-0.804 1.35-2.03 3.88-2.08 4.03-0.0516 0.149 0.00362 0.209 0.06 0.231 0.0564 0.0235 0.102 0.0111 0.115-0.0124 0.0141-0.0244 2.57-3.75 2.57-3.75l5.29-1.25s4.72-1.48 4.8-1.51a0.474 0.474 0 0 0-0.129-0.931zm-12.9 8.18a0.266 0.266 0 0 0-0.0653 0.00882s-0.282 0.112-1.09 0.459a45.2 45.2 0 0 0-4.09 2.18 66.2 66.2 0 0 0-6.16 4.49 0.628 0.628 0 0 0-0.198 0.783 0.763 0.763 0 0 0 0.776 0.441l6.06-1.63c0.448-0.208 8.35-1.82 8.35-1.82l0.859-0.146a4.06 4.06 0 0 1 0.67-0.524 7.6 7.6 0 0 1 1.65-0.781 0.89 0.89 0 0 1 1.02 0.111 0.767 0.767 0 0 1 0.22 0.591l0.346-0.0582 0.00882-0.00176c4.5-0.779 14.4-1.44 14.4-1.44 0.362-0.0564 1.34-0.377 1.16-1.35-0.143-0.756-1.43-0.802-1.62-0.785-0.191 0.0178-13 1.71-13.8 1.84-4.64 0.757-12.6 2.76-12.6 2.76l-4.88 1.44c0.092-0.189 3.99-2.94 4.22-3.11 0.23-0.174 4.75-2.95 4.75-2.95s0.359-0.142 0.245-0.367a0.237 0.237 0 0 0-0.224-0.143z" /></svg>