<svg xmlns="http://www.w3.org/2000/svg" viewBox="0 0 50 58"><defs><linearGradient><stop offset="0" /></linearGradient><linearGradient id="Frame"><stop offset="0" stop-color="#ffffff" /></linearGradient></defs><path d="m44.2 2.75h-38.5a3 3 0 0 0-3 3v38.5a3 3 0 0 0 3 3h7.78l11.5 9.43 11.5-9.43h7.78a3 3 0 0 0 3-3v-38.5a3 3 0 0 0-3-3z" fill="#fff" stroke="url(#Frame)" stroke-miterlimit="10" stroke-width="1.5" /><path d="m5.45 31.2h3.77a2.58 2.58 0 0 1 1.8 0.625 2.26 2.26 0 0 1 0.687 1.76 2.53 2.53 0 0 1-0.613 1.69 2.32 2.32 0 0 1-1.88 0.722h-2.63v3.51h-1.14zm4.42 1.14a2.49 2.49 0 0 0-1.03-0.175h-2.25v2.88h2.25a2.16 2.16 0 0 0 1.24-0.322 1.28 1.28 0 0 0 0.475-1.14 1.25 1.25 0 0 0-0.683-1.25z" fill="#00529c" /><path d="m15.6 33.6a2.32 2.32 0 0 1 0.928 0.783 2.69 2.69 0 0 1 0.41 1.07 6.93 6.93 0 0 1 0.0913 1.34h-4.46a2.6 2.6 0 0 0 0.438 1.48 1.47 1.47 0 0 0 1.27 0.559 1.64 1.64 0 0 0 1.28-0.528 1.79 1.79 0 0 0 0.379-0.711h1.01a2.1 2.1 0 0 1-0.266 0.744 2.7 2.7 0 0 1-0.505 0.671 2.39 2.39 0 0 1-1.15 0.61 3.51 3.51 0 0 1-0.835 0.0908 2.57 2.57 0 0 1-1.93-0.823 3.19 3.19 0 0 1-0.791-2.31 3.47 3.47 0 0 1 0.797-2.37 2.64 2.64 0 0 1 2.08-0.911 2.79 2.79 0 0 1 1.26 0.303zm0.369 2.38a2.63 2.63 0 0 0-0.29-1.06 1.49 1.49 0 0 0-1.4-0.735 1.56 1.56 0 0 0-1.18 0.506 1.91 1.91 0 0 0-0.505 1.29z" fill="#00529c" /><path d="m17.7 31.7h1.04v1.69h0.979v0.832h-0.979v3.95a0.426 0.426 0 0 0 0.217 0.425 0.944 0.944 0 0 0 0.401 0.0625c0.0493 0 0.103-2e-3 0.16-0.00391 0.0571-0.00292 0.124-0.00878 0.201-0.0186v0.809a2.26 2.26 0 0 1-0.37 0.0732 3.44 3.44 0 0 1-0.415 0.0225 1.13 1.13 0 0 1-0.979-0.364 1.61 1.61 0 0 1-0.258-0.948v-4.01h-0.831v-0.832h0.831z" fill="#00529c" /><path d="m20.8 33.4h0.979v1.05a2.31 2.31 0 0 1 0.59-0.744 1.54 1.54 0 0 1 1.08-0.438c0.019 0 0.0518 2e-3 0.0977 0.00586s0.124 0.0107 0.235 0.0225v1.08a1.3 1.3 0 0 0-0.169-0.0225c-0.0518-0.00391-0.108-0.00586-0.169-0.00586a1.48 1.48 0 0 0-1.2 0.495 1.71 1.71 0 0 0-0.418 1.14v3.49h-1.03z" fill="#00529c" /><path d="m28.4 34a3.04 3.04 0 0 1 0.813 2.29 3.92 3.92 0 0 1-0.717 2.42 2.6 2.6 0 0 1-2.22 0.955 2.52 2.52 0 0 1-2-0.845 3.33 3.33 0 0 1-0.739-2.27 3.6 3.6 0 0 1 0.779-2.43 2.62 2.62 0 0 1 2.09-0.905 2.77 2.77 0 0 1 1.99 0.78zm-0.641 4.03a3.81 3.81 0 0 0 0.377-1.7 3.03 3.03 0 0 0-0.272-1.38 1.53 1.53 0 0 0-1.48-0.836 1.46 1.46 0 0 0-1.36 0.712 3.3 3.3 0 0 0-0.425 1.72 2.86 2.86 0 0 0 0.425 1.61 1.5 1.5 0 0 0 1.35 0.645 1.41 1.41 0 0 0 1.39-0.766z" fill="#00529c" /><path d="m29.8 33.4h0.979v0.86a2.75 2.75 0 0 1 0.922-0.765 2.49 2.49 0 0 1 1.08-0.231 1.79 1.79 0 0 1 1.76 0.899 3.16 3.16 0 0 1 0.252 1.41v3.89h-1.05v-3.82a2.04 2.04 0 0 0-0.166-0.894 1.01 1.01 0 0 0-0.996-0.566 2.05 2.05 0 0 0-0.602 0.0742 1.55 1.55 0 0 0-0.745 0.498 1.49 1.49 0 0 0-0.335 0.619 4.11 4.11 0 0 0-0.0772 0.914v3.17h-1.03z" fill="#00529c" /><path d="m40.1 34a3.04 3.04 0 0 1 0.813 2.29 3.92 3.92 0 0 1-0.717 2.42 2.6 2.6 0 0 1-2.22 0.955 2.52 2.52 0 0 1-2-0.845 3.32 3.32 0 0 1-0.739-2.27 3.6 3.6 0 0 1 0.779-2.43 2.62 2.62 0 0 1 2.09-0.905 2.77 2.77 0 0 1 1.99 0.78zm-0.641 4.03a3.81 3.81 0 0 0 0.377-1.7 3.03 3.03 0 0 0-0.272-1.38 1.53 1.53 0 0 0-1.48-0.836 1.46 1.46 0 0 0-1.36 0.712 3.3 3.3 0 0 0-0.425 1.72 2.86 2.86 0 0 0 0.425 1.61 1.5 1.5 0 0 0 1.35 0.645 1.41 1.41 0 0 0 1.39-0.766z" fill="#00529c" /><path d="m41.5 33.4h0.979v1.05a2.3 2.3 0 0 1 0.59-0.744 1.54 1.54 0 0 1 1.08-0.438c0.0195 0 0.0518 2e-3 0.0977 0.00586s0.124 0.0107 0.234 0.0225v1.08a1.28 1.28 0 0 0-0.169-0.0225c-0.0508-0.00391-0.107-0.00586-0.169-0.00586a1.48 1.48 0 0 0-1.2 0.495 1.72 1.72 0 0 0-0.418 1.14v3.49h-1.03z" fill="#00529c" /><path d="m5.5 10.3v19.1l7.42-0.0148 9.04-19.1s-16.5-0.0686-16.5-2.5e-4z" fill="#00529c" /><path d="m23.6 10.3-8.9 19.1h13.7l-3.33-5.99 4.78-10.4 1.7-0.00638-0.759 1.67 1.66 0.00637 0.803-1.68 1.69-0.00637-0.784 1.68 1.68-3e-4 0.791-1.68 1.75 0.00748-4.83 10.4 4.38-0.0413s6.87-0.303 6.83-6.91c-0.0371-5.93-5.96-6.2-5.96-6.2s-15.2 0.0413-15.2 0z" fill="#c6480a" /></svg>