<svg xmlns="http://www.w3.org/2000/svg" viewBox="0 0 50 58"><defs><linearGradient id="Background"><stop offset="0" stop-color="#5baa44" /></linearGradient><linearGradient id="Frame"><stop offset="0" stop-color="#5baa44" /></linearGradient><linearGradient id="Pictogram"><stop offset="0" stop-color="#ffffff" /></linearGradient></defs><path d="m44.2 2.75h-38.5a3 3 0 0 0-3 3v38.5a3 3 0 0 0 3 3h7.78l11.5 9.43 11.5-9.43h7.78a3 3 0 0 0 3-3v-38.5a3 3 0 0 0-3-3z" fill="url(#Background)" stroke="url(#Frame)" stroke-miterlimit="10" stroke-width="1.5" /><path d="m5.59 35.9 0.363-0.927 1.81-0.524 2.82 2.82 12.6-13.7s-11.7-12.2-12.6-13.3a3.57 3.57 0 0 1-0.876-2.38l0.191-2.18s0.403-1.05 1.69 0.0806 15 14.1 15 14.1 3.59-3.83 5.2-5.2 4.44-1.28 4.44-1.28 0.093 2.83-1.28 4.44-5.2 5.2-5.2 5.2 13 13.7 14.1 15 0.0806 1.69 0.0806 1.69l-2.18 0.191a3.57 3.57 0 0 1-2.38-0.876c-1.13-0.967-13.3-12.6-13.3-12.6l-13.7 12.6 2.82 2.82-0.524 1.81-0.927 0.363z" fill="none" stroke="url(#Pictogram)" stroke-miterlimit="10" stroke-width="1.5" /></svg>