<svg xmlns="http://www.w3.org/2000/svg" viewBox="0 0 50 58"><defs><linearGradient id="Background"><stop offset="0" stop-color="#000000" /></linearGradient><linearGradient id="Frame"><stop offset="0" stop-color="#a690fe" /></linearGradient><linearGradient id="Pictogram"><stop offset="0" stop-color="#FFFFFF" /></linearGradient></defs><defs><style>.cls-3{font-size:20px;font-family:AudiTypeDisplayHigh-Normal, Audi Type Display High;fill:url(#Pictogram);}</style></defs><path d="m44.2 2.75h-38.5a3 3 0 0 0-3 3v38.5a3 3 0 0 0 3 3h7.78l11.5 9.43 11.5-9.43h7.78a3 3 0 0 0 3-3v-38.5a3 3 0 0 0-3-3z" fill="url(#Background)" stroke="url(#Frame)" stroke-miterlimit="10" stroke-width="1.5" /><text class="cls-3" text-anchor="middle" transform="translate(25 24.9)">{charging_power}</text><path d="m19.3 40.9-3.66-3.5v3.5h-1.35v-11.3h1.35v6.98l3.59-3.4h1.65l-3.33 3.16c-0.0762 0.0713-0.148 0.135-0.216 0.192-0.0693 0.0576-0.134 0.109-0.196 0.156-0.0625 0.0459-0.123 0.0889-0.182 0.128s-0.117 0.0752-0.176 0.109c0.0537 0.0274 0.107 0.0566 0.161 0.0898s0.11 0.0713 0.169 0.115 0.121 0.0928 0.188 0.146 0.14 0.116 0.218 0.187l3.57 3.41z" fill="url(#Pictogram)" /><path d="m32.2 40.9-2.38-7.3c-0.0371-0.107-0.0752-0.229-0.115-0.364-0.041-0.136-0.0801-0.281-0.117-0.438q-0.0571-0.234-0.11-0.483-0.0527-0.249-0.0967-0.498-0.0484 0.249-0.103 0.498-0.0557 0.249-0.112 0.483c-0.0371 0.156-0.0752 0.302-0.113 0.438s-0.0752 0.257-0.111 0.364l-2.38 7.3h-1.48l-3.6-10.9h1.51l2.47 7.89c0.0342 0.107 0.0693 0.215 0.104 0.322s0.0693 0.215 0.101 0.324c0.0322 0.108 0.0635 0.218 0.0938 0.327 0.0303 0.11 0.0586 0.223 0.0859 0.337q0.0322-0.171 0.0732-0.337c0.0264-0.109 0.0547-0.219 0.084-0.327 0.0293-0.109 0.0606-0.217 0.0938-0.324s0.0674-0.215 0.104-0.322l2.48-7.89h1.4l2.49 7.9c0.0371 0.109 0.0713 0.219 0.104 0.326s0.0644 0.215 0.0957 0.324c0.0303 0.108 0.0586 0.218 0.084 0.329s0.0508 0.223 0.0752 0.335c0.0244-0.112 0.0508-0.224 0.0801-0.335s0.0605-0.221 0.0938-0.329c0.0332-0.109 0.0674-0.217 0.104-0.324 0.0361-0.107 0.0732-0.217 0.109-0.326l2.47-7.9h1.49l-3.6 10.9z" fill="url(#Pictogram)" /></svg>