<svg xmlns="http://www.w3.org/2000/svg" viewBox="0 0 50 58"><defs><linearGradient><stop offset="0" /></linearGradient><linearGradient id="Frame"><stop offset="0" stop-color="#ffffff" /></linearGradient></defs><path d="m44.2 2.75h-38.5a3 3 0 0 0-3 3v38.5a3 3 0 0 0 3 3h7.78l11.5 9.43 11.5-9.43h7.78a3 3 0 0 0 3-3v-38.5a3 3 0 0 0-3-3z" fill="#fff" stroke="url(#Frame)" stroke-miterlimit="10" stroke-width="1.5" /><path d="m44.8 27.8a25.2 25.2 0 0 0 0.0231-5.62 3.88 3.88 0 0 0-2.75-3.73 18.4 18.4 0 0 0-27.6-8.33 18.2 18.2 0 0 0-6.56 8.33c-0.73 0.2-2.48 0.967-2.75 3.73a25.2 25.2 0 0 0 0.024 5.62 3.93 3.93 0 0 0 2.72 3.69 18.4 18.4 0 0 0 27.7 8.34 18.2 18.2 0 0 0 6.56-8.34 3.93 3.93 0 0 0 2.72-3.69" fill="#1f3075" /><path d="m41.8 31a0.277 0.277 0 0 0-0.203 0.173 17.9 17.9 0 0 1-26.9 8.22 17.6 17.6 0 0 1-6.41-8.22 0.278 0.278 0 0 0-0.203-0.173 3.36 3.36 0 0 1-2.43-3.24l-0.00193-0.0135a24.6 24.6 0 0 1-0.0212-5.49c0.249-2.53 1.81-3.14 2.47-3.29a0.273 0.273 0 0 0 0.199-0.172 17.9 17.9 0 0 1 26.9-8.21 17.6 17.6 0 0 1 6.41 8.21 0.277 0.277 0 0 0 0.2 0.172c0.659 0.145 2.22 0.753 2.47 3.28a24.5 24.5 0 0 1-0.0221 5.49l-0.00193 0.0135a3.35 3.35 0 0 1-2.43 3.24" fill="#fff" /><path d="m41.2 18.9a17.4 17.4 0 0 0-32.4 0 101 101 0 0 1 32.4 0" fill="#ec5e04" /><path d="m41.2 31.1a17.4 17.4 0 0 1-32.4 0 101 101 0 0 0 32.4 0" fill="#ec5e04" /><rect fill="#1f3075" height="8.39" width="3.09" x="31.5" y="21.2" /><path d="m25.7 24.1h3.09v5.44h-3.09v-0.184a6.74 6.74 0 0 1-2.54 0.415c-0.369 0-2.91-0.322-2.91-2.26v-3.41h3.09v2.54a1.06 1.06 0 0 0 1.06 1.29c0.923 0 1.29-0.277 1.29-1.06z" fill="#1f3075" /><path d="m37.8 29.6v-3.27h-1.29v-2.17h1.29v-1.38a1.65 1.65 0 0 1 1.89-1.71 4.68 4.68 0 0 1 2.95 0.737l-0.0462 1.61c-0.876-0.507-1.82-0.646-1.82 0.186v0.553h1.29v2.17h-1.29v3.27z" fill="#1f3075" /><path d="m13.1 26.1v-1.66h4.7v5.17h-3.09v-0.185a10.2 10.2 0 0 1-2.33 0.185c-2.21 0.0231-5.19-1.36-5.19-4.77s3.25-4.93 5.42-4.93a9.08 9.08 0 0 1 4.54 1.08v1.8a10 10 0 0 0-3.28-0.785 2.98 2.98 0 0 0-3.18 3 2.37 2.37 0 0 0 2.4 2.58 2.18 2.18 0 0 0 1.61-0.484v-0.992z" fill="#1f3075" /><path d="m42.4 28.9a0.384 0.384 0 0 0-0.533-0.00769 0.363 0.363 0 0 0-0.119 0.278 0.382 0.382 0 1 0 0.652-0.27" fill="#1f3075" /><path d="m42.4 28.9a0.317 0.317 0 0 1-1e-3 0.446 0.314 0.314 0 0 1-0.445 1e-3 0.314 0.314 0 0 1-0.0924-0.226 0.308 0.308 0 0 1 0.0914-0.221 0.31 0.31 0 0 1 0.447 0" fill="#fff" /><path d="M42.09719,29.2334h.02309l.025.00192a.14625.14625,0,0,1,.03752.00674.049.049,0,0,1,.03079.03078.20354.20354,0,0,1,.00769.052.26571.26571,0,0,0,.00674.05869h.10487L42.33,29.37194l-.00384-.01251v-.05a.11519.11519,0,0,0-.03753-.09524.13269.13269,0,0,0-.05965-.02406.15042.15042,0,0,0,.07312-.02886.09378.09378,0,0,0,.02983-.077.10622.10622,0,0,0-.05581-.101.21406.21406,0,0,0-.0837-.02117c-.00577-.001-.0356-.001-.08755-.001h-.11738v.42237h.10968Z" fill="#1f3075" /><path d="M42.20149,29.14228a.10293.10293,0,0,1-.06062.0154h-.04329v-.12219h.02693a.21418.21418,0,0,1,.0635.0077.0486.0486,0,0,1,.03464.0481.058.058,0,0,1-.02116.051" fill="#fff" /></svg>