<svg xmlns="http://www.w3.org/2000/svg" viewBox="0 0 50 58"><defs><linearGradient id="Background"><stop offset="0" stop-color="#5baa44" /></linearGradient><linearGradient id="Frame"><stop offset="0" stop-color="#5baa44" /></linearGradient><linearGradient id="Pictogram"><stop offset="0" stop-color="#ffffff" /></linearGradient></defs><path d="m44.2 2.75h-38.5a3 3 0 0 0-3 3v38.5a3 3 0 0 0 3 3h7.78l11.5 9.43 11.5-9.43h7.78a3 3 0 0 0 3-3v-38.5a3 3 0 0 0-3-3z" fill="url(#Background)" stroke="url(#Frame)" stroke-miterlimit="10" stroke-width="1.5" /><path d="m9 37h28s5 0 5-6" fill="none" stroke="url(#Pictogram)" stroke-miterlimit="10" stroke-width="1.5" /><line fill="none" stroke="url(#Pictogram)" stroke-miterlimit="10" stroke-width="1.5" x1="13.5" x2="13.5" y1="30.5" y2="37" /><line fill="none" stroke="url(#Pictogram)" stroke-miterlimit="10" stroke-width="1.5" x1="23.5" x2="23.5" y1="30.5" y2="37" /><line fill="none" stroke="url(#Pictogram)" stroke-miterlimit="10" stroke-width="1.5" x1="33.5" x2="33.5" y1="30.5" y2="37" /><path d="m16.5 14.5h-6.82v10.5s-0.383 6.01 3.79 6.01h25v-4.1s0.42-5.1-6.56-5.06c-6.22 0.0297-8.69 1.41-12.4-0.947-2.51-1.6-2.9-3.78-3.04-6.37z" fill="none" stroke="url(#Pictogram)" stroke-miterlimit="10" stroke-width="1.5" /><path d="m32.6 21.8s-12.5-0.244-12.5-8.06" fill="none" stroke="url(#Pictogram)" stroke-miterlimit="10" stroke-width="1.5" /></svg>