<svg xmlns="http://www.w3.org/2000/svg" viewBox="0 0 50 58"><defs><linearGradient id="Frame"><stop offset="0" stop-color="#ffffff" /></linearGradient></defs><path d="m44.2 2.75h-38.5a3 3 0 0 0-3 3v38.5a3 3 0 0 0 3 3h7.78l11.5 9.43 11.5-9.43h7.78a3 3 0 0 0 3-3v-38.5a3 3 0 0 0-3-3z" fill="#fff" stroke="url(#Frame)" stroke-miterlimit="10" stroke-width="1.5" /><path d="m10 21.3a13.7 13.7 0 0 0 7.5 12.6 17.7 17.7 0 0 0 15 0 14.1 14.1 0 0 0 7.49-12.6 15 15 0 1 0-30 0" fill="#157946" /><path d="m25 10.2c-1.51 5.12-6.01 12.6-9.29 16.3h7.78l0.0181 2.23a2.56 2.56 0 0 1-2.49 2.56 7.14 7.14 0 0 1-6.11-3.57 10.9 10.9 0 0 1-1.93-6.4 12 12 0 0 1 12-12 12.1 12.1 0 0 1 12 12 13 13 0 0 1-1.87 6.35 7.28 7.28 0 0 1-6.08 3.62 2.49 2.49 0 0 1-2.56-2.56v-2.22h7.9c-3.4-3.68-7.9-11.2-9.4-16.3" fill="#fff" /><path d="m10.5 36.3 29-3.6e-4v7.36l-29 3.6e-4v-7.36" fill="#ec1b24" /><path d="m28.4 37.6c0.331 0 0.537 0.122 0.847 0.518l2.3 3.3a0.468 0.468 0 0 1-0.101 0.626 0.489 0.489 0 0 1-0.698-0.0647l-0.551-0.763h-3.63l-0.551 0.777a0.45 0.45 0 0 1-0.648 0.0866 0.463 0.463 0 0 1-0.144-0.641l2.33-3.32a0.958 0.958 0 0 1 0.846-0.518zm0.138 1.22c-0.0607-0.0891-0.0833-0.0975-0.148-0.0975-0.0724 0-0.101 0.036-0.15 0.102-0.0793 0.106-1 1.47-1.01 1.47h2.33c-0.00436 0-0.893-1.28-1.02-1.47" fill="#fff" /><path d="m12.7 37.6h3.32c0.823 0 0.899 0.948 0.899 0.948h-4.08a0.392 0.392 0 0 0-0.39 0.418 0.42 0.42 0 0 0 0.375 0.447h2.89a1.4 1.4 0 0 1 1.39 1.3 1.43 1.43 0 0 1-1.27 1.45h-3.38a0.891 0.891 0 0 1-0.948-0.957h4.18a0.442 0.442 0 0 0 0.414-0.414 0.43 0.43 0 0 0-0.375-0.418h-2.83a1.38 1.38 0 0 1-1.42-1.4 1.35 1.35 0 0 1 1.24-1.37" fill="#fff" /><path d="m33.9 37.6h3.43a1.37 1.37 0 0 1 1.32 1.44v0.0647a1.41 1.41 0 0 1-0.814 1.25s0.0342 0.052 0.77 1.05a0.513 0.513 0 0 1-0.108 0.626 0.506 0.506 0 0 1-0.698 0.00727c-0.234-0.271-0.504-0.626-1.25-1.57h-1.34a0.924 0.924 0 0 1-0.9-0.972h2.89a0.453 0.453 0 0 0 0.409-0.453 0.467 0.467 0 0 0-0.411-0.461h-3.2l0.00254 3.03a0.523 0.523 0 1 1-1.04 0.0142v-3.09a1.03 1.03 0 0 1 0.929-0.936" fill="#fff" /><path d="m19.8 37.6h3.43a1.37 1.37 0 0 1 1.32 1.44v0.0647a1.41 1.41 0 0 1-0.814 1.25 3.06 3.06 0 0 1-0.476 0.108h-2.15a0.91 0.91 0 0 1-0.871-0.979h2.87a0.444 0.444 0 0 0 0.417-0.439 0.467 0.467 0 0 0-0.411-0.461l-3.2-4e-4 0.00182 3.03a0.523 0.523 0 1 1-1.04 0.0142v-3.09a1.03 1.03 0 0 1 0.929-0.936" fill="#fff" /></svg>