<svg xmlns="http://www.w3.org/2000/svg" viewBox="0 0 50 58"><defs><linearGradient id="Background"><stop offset="0" stop-color="#8274a3" /></linearGradient><linearGradient id="Frame"><stop offset="0" stop-color="#8274a3" /></linearGradient><linearGradient id="Pictogram"><stop offset="0" stop-color="#ffffff" /></linearGradient></defs><path d="m44.2 2.75h-38.5a3 3 0 0 0-3 3v38.5a3 3 0 0 0 3 3h7.78l11.5 9.43 11.5-9.43h7.78a3 3 0 0 0 3-3v-38.5a3 3 0 0 0-3-3z" fill="url(#Background)" stroke="url(#Frame)" stroke-miterlimit="10" stroke-width="1.5" /><path d="m15.4 33.8-6.62-3.9 0.907-2.36 7.17 1.72 7.08-9.07-15.1-4.72 2.9-2.63 18.2 1.18s7.35-7.8 10.2-4.99c2.72 2.9-4.99 10.2-4.99 10.2l1.18 18.2-2.63 2.9-4.63-15-9.07 7.08 1.72 7.17-2.36 0.907z" fill="none" stroke="url(#Pictogram)" stroke-miterlimit="10" stroke-width="1.5" /></svg>