<svg xmlns="http://www.w3.org/2000/svg" viewBox="0 0 50 58"><defs><linearGradient id="Background"><stop offset="0" stop-color="#2155d6" /></linearGradient><linearGradient id="Frame"><stop offset="0" stop-color="#2155d6" /></linearGradient><linearGradient id="Pictogram"><stop offset="0" stop-color="#ffffff" /></linearGradient></defs><path d="m44.2 2.75h-38.5a3 3 0 0 0-3 3v38.5a3 3 0 0 0 3 3h7.78l11.5 9.43 11.5-9.43h7.78a3 3 0 0 0 3-3v-38.5a3 3 0 0 0-3-3z" fill="url(#Background)" stroke="url(#Frame)" stroke-miterlimit="10" stroke-width="1.5" /><path d="m18.5 25h3.69l0.00739 9.51s0.251 2.35-3.4 2.5v2h12.4v-2c-3.65-0.151-3.4-2.5-3.4-2.5h0.00745v-14a14.8 14.8 0 0 1-7.21 2.25l-2.1 0.0111z" fill="none" stroke="url(#Pictogram)" stroke-miterlimit="10" stroke-width="1.5" /><circle cx="25" cy="14" fill="none" r="3.75" stroke="url(#Pictogram)" stroke-miterlimit="10" stroke-width="1.5" /></svg>