<svg xmlns="http://www.w3.org/2000/svg" viewBox="0 0 50 58"><defs><linearGradient><stop offset="0" /></linearGradient><linearGradient id="Frame"><stop offset="0" stop-color="#ffffff" /></linearGradient></defs><g data-name="Rahmen - Schwarz" stroke="url(#Frame)" stroke-miterlimit="10" stroke-width="1.5"><path d="m44.2 2.75h-38.5a3 3 0 0 0-3 3v38.5a3 3 0 0 0 3 3h7.78l11.5 9.43 11.5-9.43h7.78a3 3 0 0 0 3-3v-38.5a3 3 0 0 0-3-3z" fill="#fff" /><path d="m44.2 2.75h-38.5a3 3 0 0 0-3 3v38.5a3 3 0 0 0 3 3h7.78l11.5 9.43 11.5-9.43h7.78a3 3 0 0 0 3-3v-38.5a3 3 0 0 0-3-3z" fill="none" /></g><path d="m6.4 22h6.08l-0.36 1.66h-2.01l-0.966 4.24h-2.11l0.961-4.24h-1.95z" fill="#e63027" /><path d="m17.2 22h-3.06l-3.68 5.88h2.04l0.963-1.55h2.5l0.0621 1.55h1.97zm-2.93 3.14 1.14-1.72 0.218 1.72z" fill="#e63027" /><path d="m19.6 22h3.11l0.572 3.43 2.13-3.45h2.97l-1.33 5.89h-1.92l0.829-3.68-2.34 3.68h-2.15l-0.551-3.71-0.855 3.71h-1.79z" fill="#e63027" /><path d="m36.7 22.1h1.96l-1.32 5.84h-1.99z" fill="#e63027" /><path d="m39.6 22.1h2.06l-0.95 4.28h3.25l-0.371 1.56h-5.3z" fill="#e63027" /><path d="m32.1 22c-3.66-0.105-3.75 3.05-3.75 3.05-0.297 2.97 2.81 2.95 3.11 2.95 0.296 0 3.44 0.154 3.87-2.95 0.434-3.11-3.23-3.05-3.23-3.05zm1.2 3.02c-0.412 1.86-1.72 1.63-1.79 1.62-0.123-0.00868-1.44 0.0898-1.11-1.69 0 0 0.257-1.86 1.79-1.76 0 0 1.52-0.0306 1.11 1.83z" fill="#e63027" /><path d="m25 13.1c-8.43 0-15.6 3.23-18.1 7.72h36.2c-2.54-4.49-9.69-7.72-18.1-7.72z" fill="#0076b3" /><path d="m25 36.9c8.42 0 15.6-3.23 18.1-7.72h-36.2c2.54 4.49 9.69 7.72 18.1 7.72z" fill="#0076b3" /><path d="m25 11.9c-11.3 0-20.5 5.87-20.5 13.1 0 7.21 9.2 13.1 20.5 13.1 11.3 0 20.5-5.87 20.5-13.1 0-7.21-9.19-13.1-20.5-13.1m-20.1 13.1c0-6.99 9.02-12.7 20.1-12.7s20.1 5.69 20.1 12.7c0 6.99-9.02 12.7-20.1 12.7s-20.1-5.69-20.1-12.7z" fill="#393939" /></svg>