<svg xmlns="http://www.w3.org/2000/svg" viewBox="0 0 50 58"><defs><linearGradient id="Frame"><stop offset="0" stop-color="#025080" /></linearGradient></defs><path d="m44.2 2.75h-38.5a3 3 0 0 0-3 3v38.5a3 3 0 0 0 3 3h7.78l11.5 9.43 11.5-9.43h7.78a3 3 0 0 0 3-3v-38.5a3 3 0 0 0-3-3z" fill="#025080" stroke="url(#Frame)" stroke-miterlimit="10" stroke-width="1.5" /><polygon fill="#025080" fill-rule="evenodd" points="3.5 46.5 46.5 46.5 46.5 3.5 3.5 3.5 3.5 46.5" /><path d="m25 5.93a19.1 19.1 0 1 0 19.1 19.1 19.1 19.1 0 0 0-19.1-19.1z" fill="#fff100" fill-rule="evenodd" /><polygon fill="#bb2626" fill-rule="evenodd" points="23.8 25.5 20.5 22.2 16.6 26.1 16.6 27.4 17.5 26.4 20.3 29.1 19.3 30.1 19.9 30.8 25.3 25.3 25.3 24" /><polygon fill="#025080" fill-rule="evenodd" points="8.1 21.5 14.1 21.5 14.1 22.8 13.1 22.8 13.1 26.9 16.6 25 16.6 28.6 8.1 28.6 8.1 27.2 9.1 27.2 9.1 22.8 8.1 22.8 8.1 21.5" /><polygon fill="#025080" fill-rule="evenodd" points="33.4 21.5 33.4 22.8 34.4 22.8 34.4 27.2 33.4 27.2 33.4 28.6 41.9 28.6 41.9 25 38.4 26.9 38.4 22.8 39.4 22.8 39.4 21.5 33.4 21.5" /><path d="m20 17.4a2.13 2.13 0 1 1-2.14 2.13 2.13 2.13 0 0 1 2.14-2.13z" fill="#bb2626" fill-rule="evenodd" /><path d="m25 4.64a20.4 20.4 0 1 0 20.4 20.4 20.4 20.4 0 0 0-20.4-20.4zm0 39.4a19.1 19.1 0 1 1 19.1-19.1 19.1 19.1 0 0 1-19.1 19.1z" fill="#bb2626" fill-rule="evenodd" /><path d="m30 21.5h-5.72v1.29h0.999v4.49h-0.999v1.3h5.72c4.23 5e-5 4.27-7.09 2e-5 -7.09z" fill="#025080" fill-rule="evenodd" /><path d="m29.2 26.3h-0.284v-2.68h0.24c1.25 0 1.25 2.68 0.0438 2.68z" fill="#ffed00" fill-rule="evenodd" /></svg>