<svg xmlns="http://www.w3.org/2000/svg" viewBox="0 0 50 58"><defs><linearGradient id="Background"><stop offset="0" stop-color="#ffffff" /></linearGradient><linearGradient id="Frame"><stop offset="0" stop-color="#ffffff" /></linearGradient></defs><path d="m44.2 2.75h-38.5a3 3 0 0 0-3 3v38.5a3 3 0 0 0 3 3h7.78l11.5 9.43 11.5-9.43h7.78a3 3 0 0 0 3-3v-38.5a3 3 0 0 0-3-3z" fill="url(#Background)" stroke="url(#Frame)" stroke-miterlimit="10" stroke-width="1.5" /><path d="M41,24.85l-.53-.53c-.21-.13-.74-.31-1.83.16-1.46.62-1.81,1.68-1.62,4.23l-9.4,9.4c-2.55-.2-3.61.16-4.23,1.62-.47,1.09-.29,1.62-.16,1.82l.53.54,1.56-1.56,1.78.19.19,1.78-1.56,1.56.54.53c.2.13.73.31,1.82-.16,1.47-.62,1.82-1.68,1.62-4.23l9.4-9.4c2.55.19,3.61-.16,4.24-1.62.46-1.09.28-1.62.15-1.83l-.53-.53-1.56,1.56-1.78-.19-.19-1.78Z" /><rect fill="none" height="50" width="50" /><path d="m19.6 36.3a26.5 26.5 0 0 1-2.58-2 26.6 26.6 0 0 1-4.23-4.58 28 28 0 0 1-5.07-13 27.7 27.7 0 0 1-0.26-6.57 2.26 2.26 0 0 1 0.86-1.19 13.6 13.6 0 0 1 3-1.2 31.7 31.7 0 0 1 9-1.13 29.4 29.4 0 0 1 11 1.8c1.08 0.44 1.49 0.75 1.8 1.39l0.2 0.43v1.87a31.4 31.4 0 0 1-3.32 14.3 33.3 33.3 0 0 1-2.46 3.84 30.9 30.9 0 0 1-3.89 4.08 23.6 23.6 0 0 1-2.64 2 1.56 1.56 0 0 1-1.48-0.06" fill="#f7de9f" /><path d="M19.77,36.39a25.78,25.78,0,0,1-4.73-4C10.84,28,8.5,22.82,7.64,16c-.11-.91-.29-3.64-.29-4.49A2.61,2.61,0,0,1,8.72,8.83a22.44,22.44,0,0,1,4.59-1.44,39.47,39.47,0,0,1,9.38-.61,29.24,29.24,0,0,1,8,1.49c1.66.59,2.16.92,2.53,1.72.19.4.2.42.18,2a30.11,30.11,0,0,1-5.09,17.31,30.12,30.12,0,0,1-6.11,6.27c-1.27,1-1.73,1.11-2.41.77m1.59-.53a31.77,31.77,0,0,0,5.8-5.46,28.55,28.55,0,0,0,3.78-6.54,33.54,33.54,0,0,0,2.13-10,22,22,0,0,0,0-3.41c0-.19,0-.28,0-.31s-.14-.43-.27-.43a.57.57,0,0,1-.27-.19c-.69-.75-4.24-1.81-7.47-2.22a44.65,44.65,0,0,0-8.65-.08C12.82,7.57,9,8.66,8.19,9.52c-.11.13-.24.22-.27.2-.38-.25-.37,3.3,0,6.38.84,6.75,3.25,12,7.54,16.36a26.45,26.45,0,0,0,4.35,3.66c.53.3.77.26,1.54-.26M20,35.49C9.57,28.35,8.31,13.37,8.31,13.37S8,10.64,8.77,10a4,4,0,0,1,1.5-.8A39.33,39.33,0,0,1,20.7,7.72,28.34,28.34,0,0,1,32.07,9.9c.51.34.45.51.44,2.16,0,1.28-.16,3.56-.28,4.5,0,.29,0,.24.2-.45a2.19,2.19,0,0,1,.22-.56,2.38,2.38,0,0,0,.13-.49c.07-.38.07-.37,0,.15a29.82,29.82,0,0,1-3.23,11.3A26.28,26.28,0,0,1,24,33.57m-4,1.92.61-12.35c0-.12.07-.14.38-.14s.63-.15.7-.49a.38.38,0,0,0-.1-.39,5.1,5.1,0,0,1-.44-.75c-.32-.65-.3-.68.29-.62.21,0,.37,0,.37,0s.37-.23.66-.23.32,0,.38.14h.45a.69.69,0,0,0-.54-.22,1,1,0,0,1-.44-.08c-.17-.1-.19-.34,0-.27l.32.09.19,0-.19-.16a1.28,1.28,0,0,0-.38-.24c-.25-.09-.27-.26,0-.34s.14-.07-.06-.11a.52.52,0,0,1-.34-.28c-.11-.2-.15-.23-.35-.19s-.58-.11-.58-.3a.55.55,0,0,1,.15-.26l.16-.16L21,17.71c-.14-.43-.16-.47-.55-.65-.6-.3-.62-.55-.08-.92a.82.82,0,0,1,1,0,1,1,0,0,1,.5.88,1.71,1.71,0,0,0,.4.77,2.12,2.12,0,0,1,.54,1.38c0,.18-.07.23-.24.25s-.18.05.11.08.35.08.44.26a2.31,2.31,0,0,0,.51.66c-.17-.38-1.44-4.14-1.44-4.14s0-.06.12-.06c.25,0,.66.43,1,1s.55.8.82.77.16-.06.15-.33a1.6,1.6,0,0,0-.47-1c-.21-.14-.18-.2.1-.2s.4-.1.27-.19L23.53,16a9.83,9.83,0,0,1-1.28-.49,2.33,2.33,0,0,0-.88-.3,3.16,3.16,0,0,0-.54.4,6.8,6.8,0,0,1-1.6,1.12c-.88.43-1.06.72-1.27,2.11a4.4,4.4,0,0,1-.18.82A7.4,7.4,0,0,0,16.85,21a.77.77,0,0,0,0,.72.29.29,0,0,0,.53,0c.17-.25.34-.13.29.19,0,.17,0,.27,0,.27s.38-.29.49-.57.28-.38.62-.18a.9.9,0,0,0,1,0c.1-.08.21-.13.24-.11s.18-.11.18-.3.23-.23.32-.05a.25.25,0,0,1,0,.3c-.12.21,0,.28.24.15l.21-.12,0,.27c0,.24,0,.31-.31.62s-.5.66-.37.94.23.17.26-.06m-1.85-2.53a1.53,1.53,0,0,1-.19-.3c-.09-.26-.26-.3-.47-.1s-.3.15-.2-.13a5.58,5.58,0,0,0,.16-.91c.14-1.1.46-1.29.71-.41a1.47,1.47,0,0,0,.22.51.79.79,0,0,1,.1.41.87.87,0,0,0,.29.64,2.75,2.75,0,0,1,.29.38,1,1,0,0,1-.39,0c-.28,0-.44,0-.52-.13m4.58.42a2.57,2.57,0,0,1-.52-.14.86.86,0,0,0-1,.22c-.26.34,0,1.05.56,1.33a1.25,1.25,0,0,0,.86.15,5.88,5.88,0,0,0,1.08-.15" fill="#d8a016" /><path d="M20.21,36.49a1.8,1.8,0,0,1-.86-.42,34.89,34.89,0,0,1-3.46-2.84c-.38-.37-1.23-1.23-1.52-1.57a31.11,31.11,0,0,1-3.45-4.86,20.25,20.25,0,0,1-1.05-2.16A30.19,30.19,0,0,1,7.41,13.81c0-.8,0-1.41,0-2.32a4.94,4.94,0,0,1,0-1,2.76,2.76,0,0,1,.35-1,3.33,3.33,0,0,1,1.16-.92,21.75,21.75,0,0,1,3.4-1l1.31-.26L14,7.21l.33-.06.26-.05a2.72,2.72,0,0,1,.3,0L15.25,7l.34,0,.89-.11a36.86,36.86,0,0,1,4.9-.18c.63,0,2.06.1,2.17.12l.32,0,.51,0,.5.06c.64.07,1.19.15,1.43.19l.5.08a18.57,18.57,0,0,1,4.93,1.39,2.84,2.84,0,0,1,1,.68,2.25,2.25,0,0,1,.58,1.11,31.41,31.41,0,0,1-.06,4.13,34.45,34.45,0,0,1-.83,5.44,29.45,29.45,0,0,1-2,5.56,9.81,9.81,0,0,1-.64,1.24c-.13.24-.25.43-.25.44l-.07.11-.08.12s-.06.09-.1.17l-.09.14v0a1,1,0,0,0-.09.13,2.52,2.52,0,0,1-.15.24,1.11,1.11,0,0,0-.08.12v0a.94.94,0,0,0-.12.18s0,0,0,0a0,0,0,0,0,0,0,1,1,0,0,1-.09.17.55.55,0,0,0-.1.17s0,0,0,0,0,0,0,0a0,0,0,0,1,0,0s0,0,0,.05a.27.27,0,0,0,0,.07c-.07.08-.14.19-.27.38l-.45.64A26.67,26.67,0,0,1,21.58,36a2.41,2.41,0,0,1-.81.46,1.64,1.64,0,0,1-.56.05m.47-.17a2,2,0,0,0,.78-.43,26.52,26.52,0,0,0,7.61-8.16,20.34,20.34,0,0,0,1.12-2,32.71,32.71,0,0,0,1.49-3.64A32.1,32.1,0,0,0,33.22,13c0-.8,0-2.35,0-2.55a2.18,2.18,0,0,0-.87-1.37,6.81,6.81,0,0,0-1.16-.59A19.3,19.3,0,0,0,27,7.36c-1-.18-2.31-.34-3.57-.43l-.34,0L21.68,6.8c-.88,0-2.48,0-3.6,0A34.33,34.33,0,0,0,9.72,8.38a4.84,4.84,0,0,0-1.14.51,2.05,2.05,0,0,0-.9,1,5.37,5.37,0,0,0-.2,2.33A39,39,0,0,0,7.83,17a28.13,28.13,0,0,0,2.44,8.24,17.62,17.62,0,0,0,1.41,2.59c.19.31.72,1.11.94,1.41a24.52,24.52,0,0,0,5,5.37c.55.46,1.86,1.45,2.09,1.59a1.58,1.58,0,0,0,.4.15,1.19,1.19,0,0,0,.53,0M19.3,35a26.11,26.11,0,0,1-6.82-7.43c-.24-.4-.56-.95-.78-1.34s-.91-1.85-1.26-2.65a26.73,26.73,0,0,1-2.1-9.19,26.12,26.12,0,0,1,0-3.19,2.42,2.42,0,0,1,.36-1,2,2,0,0,1,.85-.68A25.79,25.79,0,0,1,13,8.5a34.26,34.26,0,0,1,6.66-.81c.65,0,1.76,0,2,0l.35,0a39.7,39.7,0,0,1,4.78.52,15.74,15.74,0,0,1,4.16,1.23l.46.21a1.73,1.73,0,0,1,1,1.6,34.25,34.25,0,0,1-.21,3.92,26.61,26.61,0,0,1-2.8,10.14,38.17,38.17,0,0,1-2.4,4,24.39,24.39,0,0,1-5.13,5.27l-.48.4a4.46,4.46,0,0,1-.51.4.74.74,0,0,1-.64.19m-4.76-6.68c.23-.1.3-.26.33-.7s.08-.4.22-.44h.08v-.18a3.7,3.7,0,0,1,0-.71,1.12,1.12,0,0,1,.2-.29,3.38,3.38,0,0,0,.43-.64,3.65,3.65,0,0,0,.08-.36c0-.3,0-.26.35-.81.1-.16.25-.43.33-.6a1.88,1.88,0,0,1,.22-.38l.11-.12a.11.11,0,0,1,0,0s.15.12.19.2,0,.1,0,.52,0,.44,0,.47a.19.19,0,0,0,.09,0s0,0,0,0-.09-.2-.08-.51a.84.84,0,0,0,0-.4.32.32,0,0,1,0-.18c0-.06,0-.07.09-.07s.13,0,.18-.14a.53.53,0,0,0,0-.23c0-.05,0-.07-.1-.11a.31.31,0,0,1-.18-.28,3.45,3.45,0,0,1,0-.86c0-.12,0-.12.18,0a3.3,3.3,0,0,0,.71.31,1.5,1.5,0,0,0,.66,0,5,5,0,0,0,.55-.43l.23-.19.19-.14a.2.2,0,0,1,.11-.07.76.76,0,0,1,.3.12c.11.1,0,.2-.21.37a1.71,1.71,0,0,0-.54.6,8,8,0,0,0-.28.82.78.78,0,0,0,.12.33,2.94,2.94,0,0,1,.35.57,1.62,1.62,0,0,0,.06.17c0,.14,0,.22-.25.28l-.28.06h-.1l0,.05s0,0,.05,0,.05,0,.22,0a.62.62,0,0,0,.31,0l.1,0,.05.06a3.11,3.11,0,0,0,.34.36,3.71,3.71,0,0,0-.25-.59,4.48,4.48,0,0,1-.22-.44,2.36,2.36,0,0,0-.24-.38,2.58,2.58,0,0,1-.16-.25.73.73,0,0,1,0-.38c.08-.2.13-.19.13,0s0,.21.2.47a2.18,2.18,0,0,1,.31.57,3,3,0,0,0,.32.59,1.79,1.79,0,0,1,.17.49.17.17,0,0,1-.06.11l-.06.07,0-.05s-.05-.05-.05,0a.27.27,0,0,0,0,.13c0,.12,0,.12.06.17s.06.07.06.17a.33.33,0,0,0,.12.29,1.68,1.68,0,0,0,.26.08l.2,0,.08-.06a1,1,0,0,0,.29-.35.21.21,0,0,0,0-.21.5.5,0,0,1-.07-.08c0-.08,0-.09.16-.09s.15,0,.19-.06a2.79,2.79,0,0,0,.24-.55.72.72,0,0,0,.05-.31.75.75,0,0,1,.05-.31.6.6,0,0,0,0-.46.52.52,0,0,0-.23-.24c-.15-.09-.13-.15.08-.23s.17-.1.17-.15,0,0-.16,0-.16,0-.19,0-.16-.17-.27-.1a1.66,1.66,0,0,0-.36.68c0,.07.08.16.23.22l.19.09a.3.3,0,0,1,.11.26.72.72,0,0,0,0,.17s0,.1,0,.17a.48.48,0,0,1,0,.23,1.9,1.9,0,0,1-.37.48c-.06,0-.13,0-.17-.13a.2.2,0,0,1,0-.18.83.83,0,0,0,.07-.56,2,2,0,0,0,0-.31c0-.08-.1-.06-.22.1s-.2.21-.26.21-.08-.07-.08-.21a1.3,1.3,0,0,1,.18-.55,7,7,0,0,0,.31-.81,1.77,1.77,0,0,0,0-.65.39.39,0,0,0-.12-.2,4.57,4.57,0,0,1-.51-.71c-.12-.26-.22-.53-.17-.53a2.93,2.93,0,0,1,.31.41c.11.17.16.21.24.2s.07,0,.09.05a1.32,1.32,0,0,0,.29.64,4.21,4.21,0,0,0,.48.38,1.78,1.78,0,0,0,.48.16,1.29,1.29,0,0,0,.45.05c.32,0,.39,0,.46-.09a.3.3,0,0,1,.15-.08.77.77,0,0,0,.15-.06.16.16,0,0,0,.1-.16s0,0-.24,0a2.06,2.06,0,0,1-.72-.17l-.25-.12a.74.74,0,0,1-.43-.34.11.11,0,0,1,.09-.13s.07,0,.08,0h0c.08,0,.08,0,0-.21s0-.25,0-.25.13.05.23.21.16.21.21.26.12.11.18.11l.09,0s0-.05,0-.09a.34.34,0,0,1-.05-.17.19.19,0,0,1,.06-.16c.06-.06.07-.06.16-.06a.3.3,0,0,1,.28.15c0,.06.05.07.13.07a.23.23,0,0,0,.15-.05c.06,0,.08,0,.11,0a.26.26,0,0,1,.09.09l.1.12c0,.05.06.06.15,0a.24.24,0,0,1,.15,0c.08,0,.09.07.06.26s0,.17,0,.25a.44.44,0,0,0,.08.15c.07.07.07.07.09.3a1.09,1.09,0,0,1-.09.63l-.13.37a1.17,1.17,0,0,1-.12.25l-.05.06.07.06a1,1,0,0,1,.27.47c.15.39.17.43.17.58a1,1,0,0,1-.08.38c-.1.32-.1.44,0,.57a.3.3,0,0,1,.06.11s0,.1-.09.2c-.23.39-.23.56,0,.78s.22.17.29.16,0,0,.06-.11.06-.19.12-.18,0,0,0,.13,0,.18.07.18a.9.9,0,0,0,.38-.31l0-.06-.08.06-.12.1c-.06.06-.11.07-.17,0s-.07-.12,0-.27,0-.29,0-.34-.08,0-.2,0l-.17,0s0-.1.13-.17.18-.15,0-.23a.16.16,0,0,1-.12-.17.26.26,0,0,1,.16-.22.22.22,0,0,0,.17-.23.34.34,0,0,0-.15-.3c-.18-.14-.18-.13-.18-.3s0-.15,0-.18,0-.08,0-.19a.89.89,0,0,1,0-.23c.07-.13.06-.16-.06-.34a.89.89,0,0,1-.1-.5,1.29,1.29,0,0,0,0-.25c0-.06,0-.27,0-.29s.13,0,.19.14.08.12.09.06.11,0,.32,0a1.69,1.69,0,0,0,1.3.11,2.11,2.11,0,0,0,.54-.48c.07-.12.06-.12-.23-.11a1.74,1.74,0,0,1-.68-.08,1.27,1.27,0,0,1-.46-.32L26,21.67a1.47,1.47,0,0,1-.2-.18.05.05,0,0,0-.05,0,1.36,1.36,0,0,1-.43-.21l-.21-.13a4,4,0,0,0-.95-.19l-.17,0v-.06a1.09,1.09,0,0,0-.17-.38c-.09-.15-.12-.19-.12-.26a.84.84,0,0,0-.17-.41,1,1,0,0,1-.13-.3l-.12-.32a1.39,1.39,0,0,1-.14-.52,2.83,2.83,0,0,0-.15-.59,3,3,0,0,1-.11-.4,1.17,1.17,0,0,0-.23-.57,1.41,1.41,0,0,1-.14-.26.37.37,0,0,0-.07-.12l-.12-.18-.11-.19a.19.19,0,0,1,0-.11c0-.08,0-.11.17-.1.3,0,.52.24.81.8a1.65,1.65,0,0,0,.67.8.43.43,0,0,0,.21.07c.12,0,.15,0,.17-.17a1.47,1.47,0,0,0-.12-.53,1.81,1.81,0,0,1-.08-.42c0-.23,0-.24-.23-.31s-.19-.1,0-.14a.55.55,0,0,1,.47.12c.11.08.13.09.2.08a.29.29,0,0,0,.19-.11c.09-.09.1-.11.09-.17a.32.32,0,0,1,.11-.25c.05-.05.09-.13.14-.37a1.1,1.1,0,0,0-.06-.83A3,3,0,0,0,24,14c-.26-.12-.28-.12-1.68-.14a13.55,13.55,0,0,1-2.48-.12c-.29-.1-.5-.28-.47-.41a.36.36,0,0,1,.2-.2c.17-.07.4,0,.85.16a2.27,2.27,0,0,0,1.14.19,2,2,0,0,0,.84-.13s0,0,0,0a1.09,1.09,0,0,0-.3-.1c-.33-.08-.5-.15-.5-.19s0,0,.25,0a2.94,2.94,0,0,1,.73.13,1.19,1.19,0,0,0,.53,0c.06,0,.07-.07,0-.12a4.15,4.15,0,0,0-1.26-.46,4.65,4.65,0,0,0-1.08-.07,2.52,2.52,0,0,0-1.21.22,1.67,1.67,0,0,0-.64.59c-.1.22,0,.36.28.56a1.66,1.66,0,0,0,.74.23,13.18,13.18,0,0,0,2.38.11c.61,0,1.11,0,1.17,0a1.5,1.5,0,0,1,.53.19,1.54,1.54,0,0,1,.4.47.45.45,0,0,1,.06.27.4.4,0,0,1,0,.23,1,1,0,0,1-.3.33,1,1,0,0,1-.54-.1,1.16,1.16,0,0,0-.4-.09,1.14,1.14,0,0,1-.58-.17A6.62,6.62,0,0,0,21.48,15a.66.66,0,0,0-.41.08,2.06,2.06,0,0,0-.62.5,2.34,2.34,0,0,1-.65.53c-.33.16-1.27.7-1.36.77a2.66,2.66,0,0,0-.44.55,2,2,0,0,0-.24,1c0,.36,0,.38-.07.52a6.73,6.73,0,0,1-.46.81,8.76,8.76,0,0,0-.48.8,2.23,2.23,0,0,0-.26,1.15v.43l-.07.19c0,.11-.11.31-.17.45A2.63,2.63,0,0,0,16,24.21v.69l-.08.15a1.87,1.87,0,0,1-.16.28,1.33,1.33,0,0,0-.17.71,3.9,3.9,0,0,1,0,.41c0,.07,0,.11-.24.34-.39.44-.53.66-.53.82s0,.09-.08.13a1.73,1.73,0,0,0-.42.48.5.5,0,0,0,0,.42c0,.11.09.09.24-.12l.14-.18,0,0a.27.27,0,0,1,0,.07.56.56,0,0,1-.08.18,1,1,0,0,0-.07.2c0,.06.07.07.45.06s.35.05.43,0m.8-4.48c-.07,0-.1-.13-.09-.33a.53.53,0,0,1,.17-.41l.07,0,.05.06a.12.12,0,0,0,.09,0,.58.58,0,0,0,.3-.18l.2-.17a.42.42,0,0,0,.16-.38c0-.25,0-.3-.14-.41a.43.43,0,0,1-.16-.34c0-.16.07-.25.22-.25s.13,0,.22.22.39.38.55.25.09-.06.13,0,0,.08,0,.3a2.12,2.12,0,0,0,0,.31s.05.06.12.09.17.11.16.23a.23.23,0,0,1-.16.2c-.11,0-.18,0-.5-.18a.25.25,0,0,0-.26,0,.69.69,0,0,0-.14.17,1.19,1.19,0,0,1-.28.25.9.9,0,0,0-.37.38.64.64,0,0,1-.22.24h0l-.12,0m5-11-.12,0c-.11-.05-.13-.1-.07-.14s.09,0,.18,0a.53.53,0,0,0,.19.05.42.42,0,0,1,.18.06c.07.05.08.07,0,.09a1.8,1.8,0,0,1-.4,0M17.45,28a.83.83,0,0,0,.35-.4.91.91,0,0,1,.18-.26.56.56,0,0,0,.18-.34,1.89,1.89,0,0,1,.27-.56,1.16,1.16,0,0,1,.46-.45c.35-.18.37-.21.39-.48a.89.89,0,0,1,0-.24,1.64,1.64,0,0,1,.35-.32l.1-.07h-.5a2.74,2.74,0,0,0-.64,0l-.21,0h-.09l-.12.3a3,3,0,0,0-.11.32,1.81,1.81,0,0,1-.09.35,2.45,2.45,0,0,1-.44.47l-.12,0a.19.19,0,0,0-.17.13.59.59,0,0,1-.16.14,2.35,2.35,0,0,0-.42.4.81.81,0,0,0-.09.43c0,.21,0,.38.08.38a.55.55,0,0,0,.17-.1c.21-.15.25-.12.12.1a.55.55,0,0,0-.08.14s.13.07.3.06a.73.73,0,0,0,.25-.08m2.11-1s0,0-.08,0-.14,0-.13,0,0-.06.09-.08l.12-.07a1.48,1.48,0,0,0,0-.16c0-.17,0-.21.16-.24s.14-.06.14-.13,0,0-.08-.08-.14-.1-.09-.15l.19-.16c.14-.12.15-.14.18-.22a2.52,2.52,0,0,0,.07-.46c0-.05-.08-.12-.11-.12s0,0-.07,0,0,0,0,0-.06.11-.12.22l-.2.36a.39.39,0,0,1-.18.23,1,1,0,0,0-.47.77c0,.15,0,.26,0,.26a.4.4,0,0,0,.12-.08.42.42,0,0,1,.13-.08s0,0,0,.13l0,.13h.07a.47.47,0,0,0,.26,0m5.72-6.43a1.23,1.23,0,0,0,.15-.16l.08-.11-.05-.06a3.26,3.26,0,0,1-.39-.58,1.19,1.19,0,0,1-.1-.24c0-.05.06-.1.17-.17s.28-.23.29-.72a2.71,2.71,0,0,0,0-.47,1,1,0,0,0-.23-.45l-.09-.1-.08,0a.55.55,0,0,0-.26.26.72.72,0,0,0,0,.48,1.55,1.55,0,0,1,.06.37,1.81,1.81,0,0,1-.09.54,2.94,2.94,0,0,0-.11.79.76.76,0,0,0,.1.47.42.42,0,0,0,.55.13" fill="#9f6b08" /><path d="M19.68,35a30.38,30.38,0,0,1-5.31-5c-3.82-4.81-5.62-10.22-5.9-17.66-.07-2,0-2.21,1.1-2.67a27.74,27.74,0,0,1,10.81-1.8,30,30,0,0,1,8.18.93,16.73,16.73,0,0,1,3.16,1.12,1.35,1.35,0,0,1,.58,1,42.88,42.88,0,0,1-.24,4.78c-.77,6.85-3.24,12.16-7.73,16.6a19.3,19.3,0,0,1-3.95,3.18,3,3,0,0,1-.7-.42M15.46,29a.54.54,0,0,0,.28-.43,1.12,1.12,0,0,1,.19-.46,1.11,1.11,0,0,0,.13-.65.94.94,0,0,1,.3-.83,2.51,2.51,0,0,0,.47-.94,4,4,0,0,1,.32-.78,5.87,5.87,0,0,0,.37-.67,1.72,1.72,0,0,1,.29-.47c.15,0,.26.26.24.62s0,.65.18.65.09,0,0,.22a1,1,0,0,0-.11.31,1.6,1.6,0,0,1-.56.9,3.06,3.06,0,0,0-.42.32,4.2,4.2,0,0,1-.32.29c-.15.12-.2.33-.16.69s.12.31.23.2.22-.1.13.06-.06.14.16.14.72-.24.72-.39a8.71,8.71,0,0,1,.7-1.42,1.22,1.22,0,0,1,.33-.29,1.13,1.13,0,0,0,.35-.42c.16-.37.37-.61.55-.61S20,25,20,25a3.14,3.14,0,0,1-.54.95,1.68,1.68,0,0,0-.44.87c.05.1.26.09.26,0a.08.08,0,0,1,.07-.07s.05.06,0,.12.1.25.39.18.61-.27.61-.48a.92.92,0,0,1,.16-.41.55.55,0,0,0,.11-.48c0-.27.07-.63.18-.63s.25.35.35.74c.15.55.21.58,1,.58.56,0,.75,0,.82-.11s.15-.18.22-.27a.85.85,0,0,0,.16-.58,1.11,1.11,0,0,1,.25-.78c.32-.45.93-.89,1.06-.78a2.84,2.84,0,0,1,.3.57c.17.46.18.53.1.82a1.47,1.47,0,0,0-.05.53,1,1,0,0,1-.06.46c-.15.35-.13.51.07.72s.32.23.4,0l.07-.17.07.19.07.19.2-.21a.53.53,0,0,0,.09-.72.64.64,0,0,1-.07-.37,1.81,1.81,0,0,0-.05-.61,2.68,2.68,0,0,1,0-1.06c.09-.58.09-.63-.06-.91-.23-.44-.21-.49.21-.33a1.35,1.35,0,0,0,1.57-.24c.18-.27.15-.37-.1-.32A1.22,1.22,0,0,1,26.3,22l-.41-.37,0-.65a21.65,21.65,0,0,1,0-2.18,1.31,1.31,0,0,0-.28-1.1,4.35,4.35,0,0,1-.41-.8,1.64,1.64,0,0,0-.28-.53c-.16-.17-.16-.19-.05-.41a1.25,1.25,0,0,0-.54-1.75l-.4-.23L22,13.94c-2.38-.08-2.83-.17-2.65-.52s.38-.24,1,0a3.13,3.13,0,0,0,1.76.11c.26-.1.24-.22-.06-.22a.69.69,0,0,1-.35-.11c-.13-.11-.12-.12.15-.08.9.13,1.22.14,1.22.05s-.14-.14-.32-.22a4.16,4.16,0,0,0-3.18-.12c-.38.2-.76.59-.76.79s.35.42.63.51a19.29,19.29,0,0,0,2.19.16c2.05.08,2.4.14,2.67.49a.72.72,0,0,1,0,.88l-.17.2-.58-.12a11.38,11.38,0,0,1-1.2-.36c-1.1-.4-1.1-.4-2,.34a10.19,10.19,0,0,1-1.28.87c-1,.58-1.25.92-1.41,2.25a2.42,2.42,0,0,1-.43.93,4.05,4.05,0,0,0-.79,2,6.32,6.32,0,0,1-.28,1.29A3.25,3.25,0,0,0,16,24.37a1.76,1.76,0,0,1-.17,1,2.06,2.06,0,0,0-.23.7,1.42,1.42,0,0,1-.44,1.07,2,2,0,0,0-.37.55,1.93,1.93,0,0,1-.26.42.82.82,0,0,0-.25.74c0,.11.07.11.23-.1l.19-.22,0,.28-.05.28h.32a1.4,1.4,0,0,0,.56-.15m5.62-15.69c-.08-.12,0-.13.25,0l.26.1h-.23a.48.48,0,0,1-.28-.09" fill="#040404" /><path d="M11.16,12.72c0-.15,0-.28,0-.28a4.08,4.08,0,0,0-.45.15,1.87,1.87,0,0,1-.46.11,8.28,8.28,0,0,1-.07-1.27,7.08,7.08,0,0,0-.09-1.23,1,1,0,0,0-.25.07l-.19.08v3.2l.77-.28.77-.27ZM31.1,10.35a.58.58,0,0,0-.26-.11l-.2-.05v3.16l.23.09.24.1,0-1.57a11.43,11.43,0,0,0,0-1.62m-1,1.2A9.86,9.86,0,0,0,30.07,10a1.44,1.44,0,0,0-.29-.09l-.25-.06,0,.75a4.5,4.5,0,0,1,0,.76,6.18,6.18,0,0,1-.35-.8c-.38-1-.36-1-.65-1l-.24-.06V11a11.78,11.78,0,0,0,.06,1.6.89.89,0,0,0,.26.08l.2.05v-.87c0-.49,0-.85.06-.8a9.37,9.37,0,0,1,.42,1c.34.9.44,1,.75,1,.06,0,.07-.36.07-1.56M11.58,12.88c.2-.07.23-.13.31-.51s.11-.44.31-.48.33-.06.38.23c.07.44.11.48.43.39a.73.73,0,0,0,.27-.11s-.13-.52-.28-1.1-.32-1.24-.38-1.46c-.1-.38-.11-.39-.32-.34a.89.89,0,0,0-.28.09c-.06.05-.79,3.11-.79,3.28s.06.12.35,0m.55-1.72a1.93,1.93,0,0,0,0-.35c0-.18.12,0,.17.26s0,.25-.1.28-.16,0-.12-.19m15.66-.23V9.33l-.24-.05a.68.68,0,0,0-.24,0s0,.72-.06,1.56l-.05,1.55.27.07.29.08s0-.71,0-1.58m-13.87,1.4c.15,0,.16-.08.17-.77v-.72l.23.73a6.74,6.74,0,0,0,.28.76s.1-.18.18-.46.2-.68.26-.89l.11-.37v1.51l.28,0,.27-.05,0-1.57c0-.86,0-1.58,0-1.59s-.13,0-.27,0-.25.09-.5.94l-.26.89-.26-.81c-.27-.8-.27-.81-.48-.79a.79.79,0,0,0-.27.08,15.49,15.49,0,0,0-.07,1.6c0,1.69,0,1.62.38,1.52m12.84-1.6a10.33,10.33,0,0,0-.06-1.6.91.91,0,0,0-.27-.05l-.22,0,0,.58c0,.58,0,.59-.22.58-.5,0-.52,0-.54-.7l0-.6-.23,0-.24,0v1.57c0,1.67,0,1.65.37,1.65.13,0,.14-.07.17-.68l0-.69.29,0a1.78,1.78,0,0,1,.35.06,2.67,2.67,0,0,1,.06.74v.7l.23,0,.29,0a12.07,12.07,0,0,0,.05-1.57m-9.32,1.08a1,1,0,0,0,.39-1.42c-.12-.19-.12-.25,0-.37a1.22,1.22,0,0,0,0-1c-.18-.26-.44-.33-1-.27l-.53.05V12l.49,0a4.79,4.79,0,0,0,.73-.15m-.69-.51a1.67,1.67,0,0,1,0-.43c0-.29,0-.33.23-.35s.42.11.42.45,0,.3-.18.36-.4.09-.45,0m0-1.65c0-.28,0-.33.18-.37s.4,0,.45.23a.4.4,0,0,1-.42.47c-.2,0-.21,0-.21-.33m7.36,2.19c.27-.12.42-.49.42-1.05v-.48l-.34-.05c-.54-.08-.55-.08-.55.21s0,.26.15.26.22.56,0,.63c-.37.12-.59-.3-.59-1.14,0-.63.15-1,.4-1s.21.06.28.23.1.22.34.17a.79.79,0,0,0,.28-.07s0-.14-.08-.28a.84.84,0,0,0-1.59-.1,3.19,3.19,0,0,0-.14,1.72c.12.61.5,1,.94,1a1.35,1.35,0,0,0,.48-.07m-4.46-.14c.32-.2.49-.61.53-1.31.05-1.14-.3-1.82-1-1.82a.61.61,0,0,0-.53.25c-.32.33-.42.75-.39,1.61a1.93,1.93,0,0,0,.19,1,.79.79,0,0,0,1.16.29M19,11.21c-.37-.38-.31-1.93.09-2.08s.69,1.58.26,2.06c-.15.17-.21.17-.35,0m3.32.58s-.1-.36-.22-.72l-.22-.66.23-.27a.67.67,0,0,0,.2-.66c-.06-.67-.43-.92-1.36-.92h-.46v3.22h.58v-.67c0-.9.12-.9.44,0,.21.59.25.67.42.69.37.06.39.06.39,0M21.12,9.51V9.12l.25,0c.32,0,.42.16.39.48s0,.25-.33.26l-.31,0Z" fill="#d8a016" /></svg>