<svg xmlns="http://www.w3.org/2000/svg" viewBox="0 0 50 58"><defs><linearGradient id="Frame"><stop offset="0" stop-color="#ffffff" /></linearGradient></defs><path d="m44.2 2.75h-38.5a3 3 0 0 0-3 3v38.5a3 3 0 0 0 3 3h7.78l11.5 9.43 11.5-9.43h7.78a3 3 0 0 0 3-3v-38.5a3 3 0 0 0-3-3z" fill="#fff" stroke="url(#Frame)" stroke-miterlimit="10" stroke-width="1.5" /><path d="m42.8 15.3a1.37 1.37 0 0 0-0.38 0.0537v1.5e-4l-19.9 5.7-12.9-3.7v1.2e-4a1.18 1.18 0 0 0-1.17 0.314v7e-5a1.18 1.18 0 0 0-0.273 1.18l1.73 5.32a2.81 2.81 0 0 1-0.238 2.27v1.2e-4l-3.59 6.23a1.18 1.18 0 0 0 1.35 1.72v1.2e-4l15.9-4.57 0.115 0.0328v1.2e-4l16.5 4.73v1.2e-4a1.38 1.38 0 0 0 1.37-0.366v9e-5a1.38 1.38 0 0 0 0.318-1.38l-1.98-6.11a2.82 2.82 0 0 1 0.239-2.27l4.09-7.1v1.2e-4a1.38 1.38 0 0 0-1.19-2.06z" fill="#fff" /><path d="m20.5 23.5a1.56 1.56 0 0 1 1.38 2.02 2.34 2.34 0 0 1-2.07 2.02 1.56 1.56 0 0 1-1.38-2.02 2.34 2.34 0 0 1 2.07-2.02zm12.7-1.23-1.61 1.6e-4 -1.08 6.51 1.61 1.6e-4zm-16.2 5.4e-4 -3.51 1.7e-4h-2.9e-4a1.72 1.72 0 0 0-1.69 1.58 1.45 1.45 0 0 0 0.709 1.38v1.3e-4l2.09 1.32a0.402 0.402 0 0 1 0.191 0.379 0.48 0.48 0 0 1-0.422 0.435l-0.0476 1.2e-4 -3.36 5e-5 -0.819 1.42 4.15 1.6e-4a2.1 2.1 0 0 0 2.06-1.92 1.76 1.76 0 0 0-0.87-1.68v1.4e-4l-2.05-1.26a0.143 0.143 0 0 1-0.0482-0.119 0.17 0.17 0 0 1 0.166-0.155l2.67 1.6e-4zm9.09-0.00115h-4.2e-4l-1.38 2.1e-4 -1.08 6.51 1.57 1.6e-4 0.68-4.11 1.73 3.59a1.12 1.12 0 0 0 1.12 0.665c0.665 0 0.968-0.361 1.09-1.13l0.913-5.51-1.57 1.3e-4 -0.691 4.19-1.85-3.85a0.598 0.598 0 0 0-0.539-0.34zm-5.34-0.147a4.16 4.16 0 0 0-3.92 3.4 2.79 2.79 0 0 0 2.78 3.4 4.16 4.16 0 0 0 3.92-3.4 2.79 2.79 0 0 0-2.78-3.4zm16.5 0.00222a3.97 3.97 0 0 0-3.98 3.37c-0.332 2 0.724 3.43 2.74 3.43a3.31 3.31 0 0 0 2.23-0.802l-0.389-1.2a1.96 1.96 0 0 1-1.45 0.622c-1.14 0-1.75-0.842-1.55-2.08a2.28 2.28 0 0 1 2.19-1.96 1.53 1.53 0 0 1 1.17 0.42l0.737-1.27a2.58 2.58 0 0 0-1.7-0.52z" fill="#ea0045" /><path d="m40.3 35.5a2.29 2.29 0 0 1-0.63-0.0903l-16.4-4.69-15.7 4.5a2.04 2.04 0 0 1-2.33-2.98l3.59-6.23a1.95 1.95 0 0 0 0.166-1.58l-1.73-5.32a2.04 2.04 0 0 1 2.5-2.59l12.7 3.64 19.7-5.64a2.23 2.23 0 0 1 2.55 3.26l-4.09 7.1a1.95 1.95 0 0 0-0.166 1.57l1.98 6.11a2.24 2.24 0 0 1-2.11 2.93l1e-3 1.1e-4zm-17-5.71 0.122 0.0349 16.5 4.73a1.35 1.35 0 0 0 1.65-1.71l-1.98-6.11a2.84 2.84 0 0 1 0.241-2.29l4.09-7.1a1.35 1.35 0 0 0-1.54-1.97l-19.9 5.71-12.9-3.71a1.15 1.15 0 0 0-1.41 1.46l1.73 5.32a2.84 2.84 0 0 1-0.24 2.29l-3.59 6.23a1.15 1.15 0 0 0 1.32 1.68z" fill="#0088d7" /></svg>