<svg xmlns="http://www.w3.org/2000/svg" viewBox="0 0 50 58"><defs><linearGradient id="Frame"><stop offset="0" stop-color="#ffffff" /></linearGradient></defs><g stroke="url(#Frame)" stroke-miterlimit="10" stroke-width="1.5"><path d="m44.2 2.75h-38.5a3 3 0 0 0-3 3v38.5a3 3 0 0 0 3 3h7.78l11.5 9.43 11.5-9.43h7.78a3 3 0 0 0 3-3v-38.5a3 3 0 0 0-3-3z" fill="#fff" /><path d="m44.2 2.75h-38.5a3 3 0 0 0-3 3v38.5a3 3 0 0 0 3 3h7.78l11.5 9.43 11.5-9.43h7.78a3 3 0 0 0 3-3v-38.5a3 3 0 0 0-3-3z" fill="none" /></g><circle cx="12" cy="25" fill="none" r="6" stroke="#000" stroke-miterlimit="10" stroke-width="1.5" /><circle cx="20.7" cy="25" fill="none" r="6" stroke="#000" stroke-miterlimit="10" stroke-width="1.5" /><circle cx="29.3" cy="25" fill="none" r="6" stroke="#000" stroke-miterlimit="10" stroke-width="1.5" /><circle cx="38" cy="25" fill="none" r="6" stroke="#000" stroke-miterlimit="10" stroke-width="1.5" /></svg>