<svg xmlns="http://www.w3.org/2000/svg" version="1.1" viewBox="0 0 50 58"><defs>
<linearGradient id="Background"><stop offset="0" stop-color="#757575" /></linearGradient>
<linearGradient id="Frame"><stop offset="0" stop-color="#757575" /></linearGradient>
<linearGradient id="Pictogram"><stop offset="0" stop-color="#ffffff" /></linearGradient></defs><path d="m44.2 2.75h-38.5a3 3 0 0 0-3 3v38.5a3 3 0 0 0 3 3h7.78l11.5 9.43 11.5-9.43h7.78a3 3 0 0 0 3-3v-38.5a3 3 0 0 0-3-3z" fill="url(#Background)" stroke="url(#Frame)" stroke-miterlimit="10" stroke-width="1.5" /><g aria-label="C" transform="translate(27.1 27.8)"><path d="m11.6-0.479q-0.376 0.166-0.796 0.303-0.415 0.132-0.913 0.225-0.493 0.0928-1.08 0.142-0.586 0.0488-1.3 0.0488-0.972 0-1.81-0.215-0.835-0.215-1.53-0.635-0.693-0.42-1.24-1.05-0.537-0.63-0.908-1.46-0.371-0.835-0.566-1.87-0.19-1.04-0.19-2.27 0-1.12 0.181-2.1 0.181-0.991 0.532-1.82 0.356-0.83 0.884-1.49 0.527-0.659 1.22-1.11 0.698-0.454 1.56-0.698 0.864-0.244 1.88-0.244 0.566 0 1.12 0.0537t1.05 0.156q0.503 0.103 0.937 0.254 0.439 0.146 0.776 0.332v1.64q-0.356-0.176-0.791-0.317-0.43-0.142-0.913-0.239-0.479-0.103-1-0.156-0.522-0.0537-1.06-0.0537-0.752 0-1.38 0.176-0.625 0.171-1.12 0.513-0.493 0.337-0.864 0.835-0.366 0.493-0.61 1.14-0.244 0.645-0.366 1.44-0.122 0.786-0.122 1.7 0 1.03 0.151 1.87 0.156 0.835 0.439 1.49 0.288 0.649 0.693 1.12 0.405 0.474 0.908 0.786 0.508 0.308 1.1 0.459 0.596 0.146 1.25 0.146 0.635 0 1.18-0.0488 0.547-0.0488 1.02-0.137 0.474-0.0879 0.884-0.215 0.415-0.127 0.791-0.283z" fill="url(#Pictogram)" /></g><g aria-label="A" transform="translate(10.1 21.8)"><path d="m10.3 0-1.21-3.31h-5.82l-1.2 3.31h-1.74l4.96-13h1.84l4.99 13zm-3.6-9.93q-0.149-0.382-0.286-0.804t-0.224-0.87q-0.101 0.448-0.246 0.87-0.145 0.417-0.277 0.804l-1.9 5.19h4.81z" fill="url(#Pictogram)" /></g><g aria-label="B" transform="translate(14.7 40.5)"><path d="m2.3 0v-15.9h4.72q1.39 0 2.42 0.285 1.03 0.279 1.72 0.822 0.688 0.537 1.03 1.33 0.338 0.79 0.338 1.81 0 0.628-0.145 1.15-0.14 0.521-0.408 0.94-0.263 0.414-0.65 0.736-0.387 0.322-0.881 0.553 0.671 0.242 1.2 0.618 0.532 0.376 0.902 0.875 0.371 0.5 0.564 1.11 0.193 0.612 0.193 1.32 0 0.666-0.145 1.25-0.145 0.58-0.446 1.07-0.301 0.483-0.768 0.865-0.462 0.381-1.1 0.65-0.634 0.263-1.44 0.403-0.811 0.14-1.81 0.14zm5.07-1.7q0.988 0 1.7-0.183 0.72-0.188 1.18-0.537 0.462-0.349 0.682-0.854 0.226-0.51 0.226-1.15 0-0.65-0.209-1.18-0.204-0.526-0.645-0.897-0.435-0.371-1.12-0.569-0.677-0.199-1.62-0.199h-3.2v5.57zm-0.419-7.19q0.924 0 1.57-0.177 0.655-0.177 1.07-0.526 0.414-0.349 0.602-0.859 0.193-0.516 0.193-1.18 0-0.607-0.226-1.09-0.22-0.483-0.677-0.816-0.451-0.338-1.15-0.516-0.693-0.177-1.63-0.177h-2.34v5.34z" fill="url(#Pictogram)" /></g></svg>