<svg xmlns="http://www.w3.org/2000/svg" viewBox="0 0 50 58"><defs><linearGradient id="Background"><stop offset="0" stop-color="#757575" /></linearGradient><linearGradient id="Frame"><stop offset="0" stop-color="#757575" /></linearGradient><linearGradient id="Pictogram"><stop offset="0" stop-color="#ffffff" /></linearGradient></defs><path d="m44.2 2.75h-38.5a3 3 0 0 0-3 3v38.5a3 3 0 0 0 3 3h7.78l11.5 9.43 11.5-9.43h7.78a3 3 0 0 0 3-3v-38.5a3 3 0 0 0-3-3z" fill="url(#Background)" stroke="url(#Frame)" stroke-miterlimit="10" stroke-width="1.5" /><polygon fill="none" points="41.5 34.2 8.5 34.2 8.5 19.2 11.9 19.2 41.5 19.2" stroke="url(#Pictogram)" stroke-miterlimit="10" stroke-width="1.5" /><polyline fill="none" points="11.5 18.8 11.5 15.8 38.5 15.8 38.5 18.8" stroke="url(#Pictogram)" stroke-miterlimit="10" stroke-width="1.5" /><rect fill="url(#Pictogram)" height="3.5" width="2.2" x="23.9" y="22" /><rect fill="url(#Pictogram)" height="3.5" width="2.2" x="18.1" y="22" /><rect fill="url(#Pictogram)" height="3.5" width="2.2" x="18.1" y="28" /><rect fill="url(#Pictogram)" height="3.5" width="2.2" x="12.3" y="22" /><rect fill="url(#Pictogram)" height="3.5" width="2.2" x="12.3" y="28" /><rect fill="url(#Pictogram)" height="3.5" width="2.2" x="35.5" y="22" /><rect fill="url(#Pictogram)" height="3.5" width="2.2" x="35.5" y="28" /><rect fill="url(#Pictogram)" height="3.5" width="2.2" x="29.7" y="22" /><rect fill="url(#Pictogram)" height="3.5" width="2.2" x="29.7" y="28" /><polyline fill="none" points="22.3 34.6 22.3 27.4 27.7 27.4 27.7 34.6" stroke="url(#Pictogram)" stroke-miterlimit="10" /><line fill="none" stroke="url(#Pictogram)" stroke-miterlimit="10" x1="25" x2="25" y1="34.6" y2="27.4" /></svg>