<svg xmlns="http://www.w3.org/2000/svg" viewBox="0 0 50 58"><defs><linearGradient id="Background"><stop offset="0" stop-color="#757575" /></linearGradient><linearGradient id="Frame"><stop offset="0" stop-color="#757575" /></linearGradient><linearGradient id="Pictogram"><stop offset="0" stop-color="#ffffff" /></linearGradient></defs><path d="m44.2 2.75h-38.5a3 3 0 0 0-3 3v38.5a3 3 0 0 0 3 3h7.78l11.5 9.43 11.5-9.43h7.78a3 3 0 0 0 3-3v-38.5a3 3 0 0 0-3-3z" fill="url(#Background)" stroke="url(#Frame)" stroke-miterlimit="10" stroke-width="1.5" /><polygon fill="url(#Pictogram)" points="31.7 27.5 31.7 22.3 25.3 25.5 25.3 37.3 31.6 33.9 28.2 31.9 28.3 29.4 29.6 28.2" /><line fill="#fff" stroke="url(#Pictogram)" stroke-miterlimit="10" stroke-width="2" x1="7" x2="43" y1="42.5" y2="42.5" /><polyline fill="none" points="33 34.3 33 39.5 17 39.5 17 34.3" stroke="url(#Pictogram)" stroke-miterlimit="10" stroke-width="1.5" /><path d="m34.8 29.6-3.11-1.3s-2.38-0.986-3.32 1.11c-1 2.24 0.269 3.13 1 3.53s5.94 2.26 5.94 2.26 2.55 0.905 3.74-1.36a4.72 4.72 0 0 0-0.566-4.81c-0.736-1.13-6.31-10-6.31-10h-14.4s-5.57 8.87-6.31 10a4.72 4.72 0 0 0-0.566 4.81c1.18 2.26 3.74 1.36 3.74 1.36s5.2-1.86 5.94-2.26 2.01-1.29 1-3.53c-0.943-2.1-3.32-1.11-3.32-1.11l-3.11 1.3" fill="none" stroke="url(#Pictogram)" stroke-miterlimit="10" stroke-width="1.5" /><polygon fill="url(#Pictogram)" points="18.3 27.5 18.3 22.3 24.7 25.5 24.7 37.3 18.4 33.9 21.8 31.9 21.7 29.4 20.4 28.2" /><circle cx="25" cy="11.2" fill="none" r="5" stroke="url(#Pictogram)" stroke-miterlimit="10" stroke-width="1.5" /></svg>