<svg xmlns="http://www.w3.org/2000/svg" version="1.1" viewBox="0 0 50 58"><defs><linearGradient id="Background"><stop offset="0" stop-color="#2155d6" /></linearGradient><linearGradient id="Frame"><stop offset="0" stop-color="#2155d6" /></linearGradient><linearGradient><stop offset="0" stop-color="#fff" /></linearGradient></defs><path d="m44.2 2.75h-38.5a3 3 0 0 0-3 3v38.5a3 3 0 0 0 3 3h7.78l11.5 9.43 11.5-9.43h7.78a3 3 0 0 0 3-3v-38.5a3 3 0 0 0-3-3z" fill="url(#Background)" stroke="url(#Frame)" stroke-miterlimit="10" stroke-width="1.5" /><line fill="none" stroke="#fff" stroke-miterlimit="10" stroke-width="1.5" x1="7" x2="43" y1="38.5" y2="38.5" /><polygon fill="none" points="33.5 30.5 40 32.5 35.5 22.5 38.5 23.5 33.5 11.5 28.5 23.5 31.5 22.5 27 32.5" stroke="#fff" stroke-miterlimit="10" stroke-width="1.5" /><line fill="none" stroke="#fff" stroke-miterlimit="10" stroke-width="1.5" x1="33.5" x2="33.5" y1="30.5" y2="38.5" /><line fill="none" stroke="#fff" stroke-miterlimit="10" stroke-width="1.5" x1="20.5" x2="11.5" y1="29.5" y2="29.5" /><line fill="none" stroke="#fff" stroke-miterlimit="10" stroke-width="1.5" x1="23" x2="9" y1="34.2" y2="34.2" /><line fill="none" stroke="#fff" stroke-miterlimit="10" stroke-width="1.5" x1="14.5" x2="11.5" y1="29.5" y2="38.5" /><line fill="none" stroke="#fff" stroke-miterlimit="10" stroke-width="1.5" x1="17.5" x2="20.5" y1="29.5" y2="38.5" /><rect fill="#fff" height="11" width="20" x="7" y="7" /><g aria-label="WC" transform="translate(8.85 16.1)"><path d="m7.32 0-1.59-4.87q-0.0366-0.107-0.0781-0.242-0.0391-0.137-0.0781-0.293-0.0366-0.156-0.0732-0.322-0.0342-0.166-0.0635-0.332-0.0317 0.166-0.0684 0.332-0.0366 0.166-0.0757 0.322-0.0366 0.156-0.0757 0.293-0.0366 0.134-0.0732 0.242l-1.58 4.87h-0.986l-2.4-7.24h1.01l1.65 5.26q0.0342 0.107 0.0684 0.215 0.0366 0.107 0.0684 0.217 0.0317 0.107 0.061 0.217 0.0317 0.11 0.0586 0.225 0.022-0.115 0.0488-0.225t0.0562-0.217q0.0293-0.11 0.061-0.217 0.0342-0.107 0.0708-0.215l1.66-5.26h0.93l1.66 5.27q0.0366 0.11 0.0684 0.217 0.0342 0.107 0.0635 0.217 0.0317 0.107 0.0562 0.22 0.0269 0.11 0.0513 0.222 0.0244-0.112 0.0537-0.222 0.0293-0.112 0.061-0.22 0.0342-0.11 0.0708-0.217t0.0732-0.217l1.65-5.27h0.994l-2.4 7.24z" /><path d="m16.1-0.239q-0.188 0.083-0.398 0.151-0.208 0.0659-0.457 0.112-0.247 0.0464-0.54 0.0708-0.293 0.0244-0.652 0.0244-0.486 0-0.906-0.107-0.417-0.107-0.767-0.317-0.347-0.21-0.618-0.525-0.269-0.315-0.454-0.73-0.186-0.417-0.283-0.935-0.0952-0.518-0.0952-1.13 0-0.559 0.0903-1.05 0.0903-0.496 0.266-0.908 0.178-0.415 0.442-0.745 0.264-0.33 0.61-0.557 0.349-0.227 0.779-0.349 0.432-0.122 0.942-0.122 0.283 0 0.559 0.0269t0.527 0.0781q0.251 0.0513 0.469 0.127 0.22 0.0732 0.388 0.166v0.818q-0.178-0.0879-0.396-0.159-0.215-0.0708-0.457-0.12-0.239-0.0513-0.5-0.0781-0.261-0.0269-0.53-0.0269-0.376 0-0.688 0.0879-0.312 0.0854-0.562 0.256-0.247 0.168-0.432 0.417-0.183 0.247-0.305 0.569-0.122 0.322-0.183 0.718-0.061 0.393-0.061 0.852 0 0.515 0.0757 0.933 0.0781 0.417 0.22 0.745 0.144 0.325 0.347 0.562 0.203 0.237 0.454 0.393 0.254 0.154 0.549 0.229 0.298 0.0732 0.627 0.0732 0.317 0 0.588-0.0244 0.273-0.0244 0.51-0.0684 0.237-0.0439 0.442-0.107 0.208-0.0635 0.396-0.142z" /></g></svg>