<svg xmlns="http://www.w3.org/2000/svg" viewBox="0 0 50 58"><defs><linearGradient id="Background"><stop offset="0" stop-color="#dd9a2f" /></linearGradient><linearGradient id="Pictogram"><stop offset="0" stop-color="#ffffff" /></linearGradient></defs><path d="m44.2 2.75h-38.5a3 3 0 0 0-3 3v38.5a3 3 0 0 0 3 3h7.78l11.5 9.43 11.5-9.43h7.78a3 3 0 0 0 3-3v-38.5a3 3 0 0 0-3-3z" fill="url(#Background)" stroke="url(#Background)" stroke-miterlimit="10" stroke-width="1.5" /><polygon fill="none" points="40 13 10 13 25 29" stroke="url(#Pictogram)" stroke-miterlimit="10" stroke-width="1.5" /><line fill="none" stroke="url(#Pictogram)" stroke-miterlimit="10" stroke-width="1.5" x1="14.3" x2="35.7" y1="17.5" y2="17.5" /><line fill="none" stroke="url(#Pictogram)" stroke-miterlimit="10" stroke-width="1.5" x1="17.5" x2="32.5" y1="42" y2="42" /><line fill="none" stroke="url(#Pictogram)" stroke-miterlimit="10" stroke-width="1.5" x1="25" x2="25" y1="29" y2="42" /><circle cx="25" cy="22" fill="url(#Pictogram)" r="2.5" /><line fill="none" stroke="url(#Pictogram)" stroke-miterlimit="10" stroke-width="1.5" x1="25" x2="31.7" y1="22" y2="6.97" /></svg>