<svg xmlns="http://www.w3.org/2000/svg" viewBox="0 0 50 58"><defs><linearGradient><stop offset="0" /></linearGradient><linearGradient id="Frame"><stop offset="0" stop-color="#ffffff" /></linearGradient></defs><path d="m44.2 2.75h-38.5a3 3 0 0 0-3 3v38.5a3 3 0 0 0 3 3h7.78l11.5 9.43 11.5-9.43h7.78a3 3 0 0 0 3-3v-38.5a3 3 0 0 0-3-3z" fill="#fff" stroke="url(#Frame)" stroke-miterlimit="10" stroke-width="1.5" /><path d="m5.37 19h3.8l2.15 7.2h0.033l2.18-7.2h3.7v11.7h-2.45v-8.28h-0.031l-2.34 8.28h-2.25l-2.31-8.28h-0.032v8.28h-2.44zm33 2.32h2.44v-2.32h-2.44z" fill="#009" /><path d="m38.4 30.7h2.44v-8.59h-2.44zm3.8 0h2.44v-11.7h-2.44z" fill="#009" /><path d="m22.7 28.5a2.09 2.09 0 1 0-2.08-2.1 2.08 2.08 0 0 0 2.08 2.1m-4.54-2.1a4.55 4.55 0 1 1 4.55 4.54 4.55 4.55 0 0 1-4.55-4.54" fill="red" /><path d="m32.8 28.5a2.09 2.09 0 1 0-2.08-2.1 2.08 2.08 0 0 0 2.08 2.1m-4.55 2.2v-11.7h2.44v3.8a3.44 3.44 0 0 1 2.35-0.866 4.5 4.5 0 0 1 0 8.99 3.03 3.03 0 0 1-2.35-0.958v0.742h-2.44" fill="#009" /></svg>