<svg xmlns="http://www.w3.org/2000/svg" viewBox="0 0 50 58"><defs><linearGradient id="Background"><stop offset="0" stop-color="#5baa44" /></linearGradient><linearGradient id="Frame"><stop offset="0" stop-color="#5baa44" /></linearGradient><linearGradient id="Pictogram"><stop offset="0" stop-color="#ffffff" /></linearGradient></defs><path d="m44.2 2.75h-38.5a3 3 0 0 0-3 3v38.5a3 3 0 0 0 3 3h7.78l11.5 9.43 11.5-9.43h7.78a3 3 0 0 0 3-3v-38.5a3 3 0 0 0-3-3z" fill="url(#Background)" stroke="url(#Frame)" stroke-miterlimit="10" stroke-width="1.5" /><circle cx="25" cy="22.7" fill="none" r="15.5" stroke="url(#Pictogram)" stroke-miterlimit="10" stroke-width="1.5" /><line fill="none" stroke="url(#Pictogram)" stroke-miterlimit="10" stroke-width="1.5" x1="33.7" x2="19.3" y1="43.5" y2="8.74" /><line fill="none" stroke="url(#Pictogram)" stroke-miterlimit="10" stroke-width="1.5" x1="38.9" x2="11.1" y1="28.3" y2="16.9" /><line fill="none" stroke="url(#Pictogram)" stroke-miterlimit="10" stroke-width="1.5" x1="38.9" x2="11.1" y1="16.9" y2="28.3" /><line fill="none" stroke="url(#Pictogram)" stroke-miterlimit="10" stroke-width="1.5" x1="30.7" x2="16.3" y1="8.74" y2="43.5" /><line fill="#fff" stroke="url(#Pictogram)" stroke-miterlimit="10" stroke-width="1.5" x1="9" x2="41" y1="43.5" y2="43.5" /><circle cx="25" cy="22.7" fill="#fff" r="4" stroke="url(#Pictogram)" stroke-miterlimit="10" stroke-width="1.5" /><circle cx="25" cy="39.3" fill="#fff" r="2" stroke="url(#Pictogram)" stroke-miterlimit="10" stroke-width="1.5" /><circle cx="25" cy="8.8" fill="#fff" r="2" stroke="url(#Pictogram)" stroke-miterlimit="10" stroke-width="1.5" /><circle cx="36" cy="13.3" fill="#fff" r="2" stroke="url(#Pictogram)" stroke-miterlimit="10" stroke-width="1.5" /><circle cx="14" cy="13.3" fill="#fff" r="2" stroke="url(#Pictogram)" stroke-miterlimit="10" stroke-width="1.5" /><circle cx="40.5" cy="22.7" fill="#fff" r="2" stroke="url(#Pictogram)" stroke-miterlimit="10" stroke-width="1.5" /><circle cx="9.5" cy="22.7" fill="#fff" r="2" stroke="url(#Pictogram)" stroke-miterlimit="10" stroke-width="1.5" /><circle cx="36" cy="35" fill="#fff" r="2" stroke="url(#Pictogram)" stroke-miterlimit="10" stroke-width="1.5" /><circle cx="14" cy="35" fill="#fff" r="2" stroke="url(#Pictogram)" stroke-miterlimit="10" stroke-width="1.5" /></svg>