<svg xmlns="http://www.w3.org/2000/svg" viewBox="0 0 50 58"><defs><linearGradient><stop offset="0" stop-color="#2155d6" /></linearGradient><linearGradient id="Frame"><stop offset="0" stop-color="#ffffff" /></linearGradient></defs><path d="m44.2 2.75h-38.5a3 3 0 0 0-3 3v38.5a3 3 0 0 0 3 3h7.78l11.5 9.43 11.5-9.43h7.78a3 3 0 0 0 3-3v-38.5a3 3 0 0 0-3-3z" fill="#fff" stroke="url(#Frame)" stroke-miterlimit="10" stroke-width="1.5" /><path d="m25 5.49a4.96 4.96 0 0 0-1.97 0.407 4.82 4.82 0 0 0-1.56 1.02 5.36 5.36 0 0 0-1.09 1.63 4.73 4.73 0 0 0-0.407 1.9 5.01 5.01 0 0 0 6.99 4.62 4.98 4.98 0 0 0 1.56-1.09 4.88 4.88 0 0 0 1.49-3.53 4.73 4.73 0 0 0-0.407-1.9 5.36 5.36 0 0 0-1.09-1.63 4.8 4.8 0 0 0-1.56-1.02 4.94 4.94 0 0 0-1.97-0.407zm-10 13a4.59 4.59 0 0 0-1.9 0.339 5.28 5.28 0 0 0-1.63 1.09 5.03 5.03 0 0 0-1.02 1.63 4.62 4.62 0 0 0-0.407 1.9v11h23v3.05h-23v1.97a5 5 0 0 0 0.407 1.97 4.8 4.8 0 0 0 1.02 1.56 5.33 5.33 0 0 0 1.63 1.09 4.64 4.64 0 0 0 1.9 0.407h20.1a4.64 4.64 0 0 0 1.9-0.407 5.23 5.23 0 0 0 1.63-1.09 4.98 4.98 0 0 0 1.09-1.56 4.91 4.91 0 0 0 0.339-1.97v-11h-23v-2.99h23v-2.04a4.53 4.53 0 0 0-0.339-1.9 4.99 4.99 0 0 0-2.71-2.71 4.59 4.59 0 0 0-1.9-0.339z" fill="#e60005" /></svg>