<svg xmlns="http://www.w3.org/2000/svg" viewBox="0 0 50 58"><defs><linearGradient id="Background"><stop offset="0" stop-color="#5baa44" /></linearGradient><linearGradient id="Frame"><stop offset="0" stop-color="#5baa44" /></linearGradient><linearGradient id="Pictogram"><stop offset="0" stop-color="#ffffff" /></linearGradient></defs><path d="m44.2 2.75h-38.5a3 3 0 0 0-3 3v38.5a3 3 0 0 0 3 3h7.78l11.5 9.43 11.5-9.43h7.78a3 3 0 0 0 3-3v-38.5a3 3 0 0 0-3-3z" fill="url(#Background)" stroke="url(#Frame)" stroke-miterlimit="10" stroke-width="1.5" /><path d="m33.8 14c6.76 1.91 8.74 9.46 8.82 13.7s-2.37 13.3-2.37 13.3h-6.5s0.526-6.93-3.21-7.01-3.59 7.01-3.59 7.01h-6l0.133-3.75s-3.34-4.21-3.42-5.96a1.91 1.91 0 0 0-2.94-1.75 7.5 7.5 0 0 0-3.35 3.55c-0.822 1.79-1.47 5.04 0.861 5.17a4.1 4.1 0 0 0 2.48-0.588l0.531 0.386 0.673 0.624s-0.477 2.3-3.66 2.23-4.61-3.26-4.93-5.32-0.199-6.08 1.21-11.9c1.3-5.35 2.79-8.36 5.54-10a9.58 9.58 0 0 1 7.41-0.753" fill="none" stroke="url(#Pictogram)" stroke-miterlimit="10" stroke-width="1.5" /><path d="m27.5 28.3a4.95 4.95 0 0 1-3.64-1.23 3.1 3.1 0 0 1-0.922-2.08l1.5 0.0107-0.75-0.00537 0.75-0.00635c0.00488 0.186 0.131 1.81 3.06 1.81 2.79 0 4.03-1.68 4.26-3.25a9.2 9.2 0 0 0-0.447-4.23l-0.0879-0.303c-0.254-0.887 0.277-2.29 1.12-4.34a14.4 14.4 0 0 0 0.694-1.89 2.07 2.07 0 0 0-0.412-1.74c-0.673-0.812-2.06-1.26-3.9-1.26h-0.00781c-4.06-0.00111-7.11 4.68-7.14 4.73l-1.8 0.0257c0.146-0.256 3.64-6.26 8.95-6.26h0.00976c2.94 0.00391 4.37 0.984 5.05 1.81a3.56 3.56 0 0 1 0.731 2.98 14 14 0 0 1-0.781 2.18c-0.385 0.937-1.18 2.89-1.06 3.36l0.085 0.291a10.8 10.8 0 0 1 0.492 4.87c-0.409 2.75-2.67 4.53-5.75 4.53z" fill="url(#Pictogram)" /><circle cx="16.5" cy="22.5" fill="url(#Pictogram)" r="1" /></svg>