<svg xmlns="http://www.w3.org/2000/svg" viewBox="0 0 50 58"><defs><linearGradient><stop offset="0" /></linearGradient><linearGradient id="Frame"><stop offset="0" stop-color="#ffffff" /></linearGradient></defs><path d="m44.2 2.75h-38.5a3 3 0 0 0-3 3v38.5a3 3 0 0 0 3 3h7.78l11.5 9.43 11.5-9.43h7.78a3 3 0 0 0 3-3v-38.5a3 3 0 0 0-3-3z" fill="#fff" stroke="url(#Frame)" stroke-miterlimit="10" stroke-width="1.5" /><path d="m11.1 10.5a6.32 6.32 0 1 0 2.19 0.389l-2.63 4.72h-0.777l2.78-4.91a6.35 6.35 0 0 0-1.56-0.191" fill="#003569" /><polygon fill="#003569" fill-rule="evenodd" points="18.5 10.8 23.7 10.8 21 15.6 21.7 15.6 24.4 10.8 27.8 10.8 25.1 15.6 25.8 15.6 28.5 10.8 30.4 10.8 30.4 22.8 18.5 22.8" /><polygon fill="#003569" fill-rule="evenodd" points="31.4 10.8 40 10.8 37.3 15.6 38 15.6 40.7 10.8 45.2 10.8 38.3 22.7" /><rect fill="lime" height=".666" width="40.4" x="4.86" y="24.9" /><path d="m10.7 27.8a5.79 5.79 0 0 0 0 11.6 5.79 5.79 0 0 0 0-11.6m0 1.69a3.9 3.9 0 0 1 3.66 4.1 3.9 3.9 0 0 1-3.66 4.11 3.9 3.9 0 0 1-3.66-4.11 3.9 3.9 0 0 1 3.66-4.1" /><polygon fill-rule="evenodd" points="19 39.1 19 28.1 21.4 28.1 24.4 36.3 27.5 28.1 29.9 28.1 29.9 39.1 28.3 39.1 28.3 30.3 25.1 39.1 23.8 39.1 20.6 30.3 20.6 39.1" /><polygon fill-rule="evenodd" points="37.5 39.1 32.4 28.1 34.5 28.1 38.4 36.4 42.3 28.1 44.3 28.1 39 39.1" /></svg>