<svg xmlns="http://www.w3.org/2000/svg" viewBox="0 0 50 58"><defs><linearGradient id="Background"><stop offset="0" stop-color="#5eb7a8" /></linearGradient><linearGradient id="Frame"><stop offset="0" stop-color="#5eb7a8" /></linearGradient><linearGradient id="Pictogram"><stop offset="0" stop-color="#ffffff" /></linearGradient></defs><path d="m44.2 2.75h-38.5a3 3 0 0 0-3 3v38.5a3 3 0 0 0 3 3h7.78l11.5 9.43 11.5-9.43h7.78a3 3 0 0 0 3-3v-38.5a3 3 0 0 0-3-3z" fill="url(#Background)" stroke="url(#Frame)" stroke-miterlimit="10" stroke-width="1.5" /><polyline fill="none" points="11.5 17.5 11.5 14 25 14 25 14 38.5 14 38.5 17.5" stroke="url(#Pictogram)" stroke-miterlimit="10" stroke-width="1.5" /><polygon fill="none" points="25 17.5 9 17.5 9 23.5 25 23.5 41 23.5 41 17.5" stroke="url(#Pictogram)" stroke-miterlimit="10" stroke-width="1.5" /><path d="m33.2 13.7a9.48 9.48 0 0 0-16.4 0" fill="none" stroke="url(#Pictogram)" stroke-miterlimit="10" stroke-width="1.5" /><path d="m11.5 23.5v17.5h8.43l0.0689-9a5 5 0 0 1 10 0l0.0685 9h8.43v-17.5" fill="none" stroke="url(#Pictogram)" stroke-miterlimit="10" stroke-width="1.5" /></svg>