<svg xmlns="http://www.w3.org/2000/svg" viewBox="0 0 50 58"><defs><linearGradient id="Frame"><stop offset="0" stop-color="#ffffff" /></linearGradient></defs><path d="m44.2 2.75h-38.5a3 3 0 0 0-3 3v38.5a3 3 0 0 0 3 3h7.78l11.5 9.43 11.5-9.43h7.78a3 3 0 0 0 3-3v-38.5a3 3 0 0 0-3-3z" fill="#fff" stroke="url(#Frame)" stroke-miterlimit="10" stroke-width="1.5" /><path d="m29.6 32.2a0.262 0.262 0 1 1 0 0.522h-0.512a0.262 0.262 0 1 1 0-0.522zm-10.4 1.02a0.634 0.634 0 0 0-0.0314-0.173l-0.471-1.93a0.309 0.309 0 0 0-0.29-0.263c-0.169 0-0.248 0.118-0.299 0.263l-0.405 1.23-0.428-1.27a0.287 0.287 0 0 0-0.565 0.0238l-0.456 1.95a0.844 0.844 0 0 0-0.0275 0.173 0.293 0.293 0 0 0 0.295 0.29c0.204 0 0.275-0.153 0.314-0.326l0.247-1.11 0.349 1.19c0.0394 0.126 0.122 0.255 0.267 0.255a0.273 0.273 0 0 0 0.263-0.2 0.283 0.283 0 0 0 0.0158-0.055l0.353-1.19 0.255 1.11c0.0431 0.177 0.106 0.326 0.314 0.326a0.295 0.295 0 0 0 0.298-0.294m1.55-0.659a0.446 0.446 0 0 1-0.44 0.451 0.451 0.451 0 0 1-0.448-0.455 0.441 0.441 0 0 1 0.436-0.443 0.451 0.451 0 0 1 0.452 0.447m0.534 0.671v-1.33a0.258 0.258 0 0 0-0.271-0.287 0.24 0.24 0 0 0-0.255 0.192 0.791 0.791 0 0 0-0.542-0.204 0.922 0.922 0 0 0-0.903 0.962 0.931 0.931 0 0 0 0.911 0.973 0.79 0.79 0 0 0 0.534-0.212 0.261 0.261 0 0 0 0.263 0.2 0.255 0.255 0 0 0 0.263-0.29m1.52-1.31a0.334 0.334 0 0 0-0.338-0.322 0.621 0.621 0 0 0-0.405 0.165 0.263 0.263 0 0 0-0.239-0.153 0.256 0.256 0 0 0-0.247 0.204 0.571 0.571 0 0 0-0.0119 0.142v1.28a0.263 0.263 0 1 0 0.522 0v-0.864c0-0.0824-4e-3 -0.239 0.114-0.239 0.0901 0 0.153 0.098 0.29 0.098a0.311 0.311 0 0 0 0.314-0.306m1.84 1.33a0.354 0.354 0 0 0-0.145-0.247l-0.534-0.514 0.499-0.361a0.333 0.333 0 0 0 0.181-0.267 0.27 0.27 0 0 0-0.267-0.267 0.373 0.373 0 0 0-0.232 0.114l-0.644 0.507v-1.05a0.262 0.262 0 0 0-0.259-0.29 0.265 0.265 0 0 0-0.263 0.29v2.06a0.265 0.265 0 0 0 0.263 0.29 0.262 0.262 0 0 0 0.259-0.29v-0.51l0.62 0.655c0.0708 0.0745 0.134 0.149 0.248 0.149a0.273 0.273 0 0 0 0.275-0.275m0.545-0.722a0.528 0.528 0 0 1 0.544-0.504 0.337 0.337 0 0 1 0.296 0.151l0.0158 0.0238-0.853 0.366-0.00273-0.0371zm1.03 0.35-0.0352 0.00317a0.231 0.231 0 0 0-0.0428 0.0121 0.511 0.511 0 0 0-0.103 0.0612 0.62 0.62 0 0 1-0.145 0.0824 0.51 0.51 0 0 1-0.189 0.0275h-0.0223a0.499 0.499 0 0 1-0.318-0.137l-0.0186-0.021 0.951-0.417c0.119-0.0517 0.203-0.12 0.203-0.246 0-0.396-0.459-0.645-0.809-0.645a0.976 0.976 0 0 0-0.958 0.962 0.987 0.987 0 0 0 0.978 0.973 1.08 1.08 0 0 0 0.271-0.0394c0.177-0.047 0.459-0.196 0.459-0.412 0-0.145-0.0758-0.203-0.221-0.203m2.18 0.352v-0.706a0.862 0.862 0 0 0-0.852-0.926 0.846 0.846 0 0 0-0.836 0.911v0.722a0.265 0.265 0 0 0 0.263 0.29 0.263 0.263 0 0 0 0.259-0.29v-0.773a0.318 0.318 0 0 1 0.605-0.157 0.639 0.639 0 0 1 0.0352 0.271v0.66a0.264 0.264 0 1 0 0.526 0m3.65-1.04a0.736 0.736 0 0 1-0.507 0.718 1.28 1.28 0 0 1-0.369 0.0394h-0.255v-1.51h0.259a0.776 0.776 0 0 1 0.872 0.754m0.601 0a1.34 1.34 0 0 0-0.777-1.2 1.35 1.35 0 0 0-0.632-0.11h-0.573a0.316 0.316 0 0 0-0.349 0.349v1.92a0.313 0.313 0 0 0 0.349 0.349h0.573a1.34 1.34 0 0 0 1.02-0.377 1.3 1.3 0 0 0 0.389-0.926m0.83-1a0.311 0.311 0 0 0-0.31-0.314 0.32 0.32 0 0 0-0.322 0.318 0.308 0.308 0 0 0 0.314 0.302 0.314 0.314 0 0 0 0.318-0.306m-0.0471 2.04v-1.33a0.263 0.263 0 1 0-0.522 0v1.33a0.263 0.263 0 1 0 0.522 0m1.21-0.914c-0.0881-0.0208-0.178-0.0347-0.266-0.0508-0.0688-0.0123-0.155-0.0327-0.155-0.115a0.139 0.139 0 0 1 0.135-0.142c0.255-0.0186 0.309 0.145 0.532 0.137a0.194 0.194 0 0 0 0.176-0.179c0.0267-0.266-0.42-0.373-0.632-0.373a0.607 0.607 0 0 0-0.679 0.565 0.521 0.521 0 0 0 0.287 0.463 2.3 2.3 0 0 0 0.456 0.153c0.0708 0.0196 0.169 0.0431 0.169 0.133a0.174 0.174 0 0 1-0.173 0.153c-0.296 0-0.324-0.215-0.561-0.254a0.235 0.235 0 0 0-0.271 0.219c0 0.349 0.503 0.506 0.789 0.506a0.678 0.678 0 0 0 0.75-0.652c0-0.393-0.3-0.496-0.555-0.565m2.45 0.75a0.268 0.268 0 0 0-0.263-0.263c-0.189 0-0.247 0.204-0.503 0.204a0.442 0.442 0 0 1-0.444-0.439 0.448 0.448 0 0 1 0.455-0.444c0.24 0 0.306 0.184 0.467 0.184a0.258 0.258 0 0 0 0.263-0.263c0-0.294-0.518-0.451-0.754-0.451a0.969 0.969 0 0 0 0.0119 1.94c0.239 0 0.766-0.169 0.766-0.467m1.55-0.495a0.446 0.446 0 0 1-0.891 4e-3 0.446 0.446 0 1 1 0.891-4e-3m0.53 0.00792a0.978 0.978 0 1 0-1.96 4e-3 0.978 0.978 0 0 0 1.96-4e-3m1.88 0.0392v-0.718a0.264 0.264 0 1 0-0.526 0v0.769a0.327 0.327 0 0 1-0.318 0.342 0.333 0.333 0 0 1-0.287-0.184 0.623 0.623 0 0 1-0.0352-0.267v-0.659a0.26 0.26 0 0 0-0.259-0.29 0.265 0.265 0 0 0-0.263 0.29v0.707a0.874 0.874 0 0 0 0.247 0.675 0.862 0.862 0 0 0 0.601 0.251 0.848 0.848 0 0 0 0.84-0.914m1.91 0.612v-0.706a0.862 0.862 0 0 0-0.852-0.926 0.845 0.845 0 0 0-0.836 0.911v0.722a0.265 0.265 0 0 0 0.263 0.29 0.262 0.262 0 0 0 0.259-0.29v-0.773a0.318 0.318 0 0 1 0.605-0.157 0.639 0.639 0 0 1 0.0354 0.271v0.66a0.264 0.264 0 1 0 0.526 0m1.29-1.36a0.239 0.239 0 0 0-0.263-0.235h-0.11v-0.338a0.264 0.264 0 1 0-0.526 0v0.338c-0.157 0-0.299 0.0587-0.299 0.235 0 0.177 0.141 0.235 0.299 0.235v1.12a0.264 0.264 0 1 0 0.526 0v-1.12h0.11a0.241 0.241 0 0 0 0.263-0.235" fill="#e41d25" /><path d="m39.7 28.9a8.19 8.19 0 0 0 0.932-0.0547h2e-4a4.61 4.61 0 0 0 1.8-0.578 4.22 4.22 0 0 0 1.4-1.33 6.61 6.61 0 0 0 0.603-1.14 6.85 6.85 0 0 0 0.367-1.19 7.79 7.79 0 0 0 0.155-1.23 9.29 9.29 0 0 0-0.027-1.24 3.42 3.42 0 0 0-0.237-1.01 2.9 2.9 0 0 0-0.528-0.842 2.99 2.99 0 0 0-0.775-0.612 3.67 3.67 0 0 0-0.951-0.358 6.73 6.73 0 0 0-0.77-0.131 6.98 6.98 0 0 0-0.777-0.0436h-2e-4c-0.109 0-0.22 0.00277-0.328 0.00792a6.03 6.03 0 0 0-0.681 0.0706 5.23 5.23 0 0 0-0.65 0.149 4.65 4.65 0 0 0-0.614 0.231 4.37 4.37 0 0 0-0.57 0.316 4.28 4.28 0 0 0-0.518 0.401 4.38 4.38 0 0 0-0.31 0.311l0.0352-0.181a0.997 0.997 0 0 0-0.986-1.2h-1.01l0.17-0.88a1.01 1.01 0 0 0-0.208-0.84 1 1 0 0 0-0.778-0.361h-1.61a1.13 1.13 0 0 0-0.721 0.267 1.14 1.14 0 0 0-0.389 0.654l-0.224 1.16h-1.81l0.17-0.88a0.997 0.997 0 0 0-0.986-1.2h-1.61a1.13 1.13 0 0 0-0.721 0.267 1.14 1.14 0 0 0-0.389 0.654l-0.224 1.16h-0.531a1.13 1.13 0 0 0-0.72 0.267 1.14 1.14 0 0 0-0.389 0.653l-0.0666 0.342-0.00224-0.00317a2.84 2.84 0 0 0-0.862-0.8 3.41 3.41 0 0 0-1.13-0.424 6.21 6.21 0 0 0-1.34-0.138c-0.153 0-0.309 5e-3 -0.465 0.0146a6.45 6.45 0 0 0-0.703 0.0812 5.57 5.57 0 0 0-0.671 0.159 4.91 4.91 0 0 0-0.633 0.242 4.54 4.54 0 0 0-0.589 0.328 4.41 4.41 0 0 0-0.535 0.416 4.54 4.54 0 0 0-0.473 0.501 4.97 4.97 0 0 0-0.405 0.582q-0.0512 0.0862-0.1 0.176a0.0158 0.0158 0 0 1-0.0213 0.00713 0.0156 0.0156 0 0 1-0.00816-0.0168l0.779-4.01a1.01 1.01 0 0 0-0.207-0.841 1 1 0 0 0-0.779-0.361h-1.78a1.13 1.13 0 0 0-0.72 0.266 1.14 1.14 0 0 0-0.389 0.653l-0.691 3.55-0.826-3.58a1.12 1.12 0 0 0-0.156-0.363 1.19 1.19 0 0 0-0.245-0.271 1.14 1.14 0 0 0-0.715-0.259h-2.45a1.13 1.13 0 0 0-0.72 0.266 1.14 1.14 0 0 0-0.389 0.653l-2.01 10.4a0.997 0.997 0 0 0 0.986 1.2h33.7z" fill="#e41d25" /><path d="m16.4 17.5-1.99 10.2a0.406 0.406 0 0 1-0.381 0.319h-2.5a0.426 0.426 0 0 1-0.393-0.319l-1.56-6.76a0.024 0.024 0 0 0-0.0468 0l-1.31 6.76a0.407 0.407 0 0 1-0.381 0.319h-1.78a0.255 0.255 0 0 1-0.257-0.319l1.99-10.2a0.407 0.407 0 0 1 0.381-0.319h2.45a0.426 0.426 0 0 1 0.393 0.319l1.59 6.87a0.0242 0.0242 0 0 0 0.047 0l1.34-6.87a0.407 0.407 0 0 1 0.381-0.319h1.78a0.255 0.255 0 0 1 0.257 0.319m5.49 5.26c-0.0629 0.452-0.33 0.632-0.836 0.632h-2.25a0.0237 0.0237 0 0 1-0.0235-0.0277 2.29 2.29 0 0 1 0.379-0.927 1.82 1.82 0 0 1 2.07-0.713 0.867 0.867 0 0 1 0.66 1.04m0.254-2.73a5.81 5.81 0 0 0-1.61-0.11 4 4 0 0 0-3.71 2.52 7.71 7.71 0 0 0-0.603 2.93c-0.023 1.41 0.71 2.64 2.88 2.78a9.72 9.72 0 0 0 3.52-0.381 0.319 0.319 0 0 0 0.222-0.247l0.271-1.4a0.0237 0.0237 0 0 0-0.03-0.0272 8.52 8.52 0 0 1-2.87 0.358c-1.56-0.0203-1.76-0.659-1.72-1.45a0.0241 0.0241 0 0 1 0.024-0.023c0.263 0.00218 2.14 0.0295 2.97-0.015a2.38 2.38 0 0 0 2.57-2.19 2.29 2.29 0 0 0-1.92-2.75m6.39 1.75a0.024 0.024 0 0 0-0.0235 0.0196l-0.685 3.56c-0.105 0.542 0.145 0.916 0.526 0.989a6.7 6.7 0 0 0 1.58 2e-3 0.0243 0.0243 0 0 1 0.0248 0.0285l-0.243 1.25a0.309 0.309 0 0 1-0.151 0.222 3.74 3.74 0 0 1-1.78 0.317c-2.18 0-2.43-1.59-2.16-3.06l0.636-3.3a0.024 0.024 0 0 0-0.0235-0.0285h-1.12a0.255 0.255 0 0 1-0.257-0.319l0.22-1.13a0.406 0.406 0 0 1 0.381-0.319h1.12a0.0235 0.0235 0 0 0 0.0235-0.0194l0.337-1.74a0.406 0.406 0 0 1 0.381-0.32h1.61a0.255 0.255 0 0 1 0.257 0.319l-0.335 1.73a0.0237 0.0237 0 0 0 0.0233 0.0282h3.28a0.0239 0.0239 0 0 0 0.0235-0.0194l0.337-1.74a0.406 0.406 0 0 1 0.381-0.32h1.61a0.255 0.255 0 0 1 0.257 0.319l-0.335 1.73a0.024 0.024 0 0 0 0.0238 0.0282h1.88a0.256 0.256 0 0 1 0.257 0.319l-0.22 1.13a0.407 0.407 0 0 1-0.381 0.319h-1.88a0.024 0.024 0 0 0-0.0235 0.0196l-0.685 3.56c-0.104 0.541 0.144 0.916 0.526 0.989a6.7 6.7 0 0 0 1.58 2e-3 0.0243 0.0243 0 0 1 0.0248 0.0285l-0.243 1.25a0.309 0.309 0 0 1-0.151 0.222 3.74 3.74 0 0 1-1.77 0.317c-2.18 0-2.44-1.59-2.16-3.06l0.64-3.3a0.0242 0.0242 0 0 0-0.0238-0.0285h-3.28zm13 3.59a1.38 1.38 0 0 1-1.35 0.889c-0.928 0.0248-1.4-0.395-1.33-1.24a10.3 10.3 0 0 1 0.44-2.23 1.55 1.55 0 0 1 2.05-0.963 0.941 0.941 0 0 1 0.67 1.02 6.09 6.09 0 0 1-0.487 2.52m2.74-3.15a2.3 2.3 0 0 0-1.92-2.16 6.18 6.18 0 0 0-1.67-0.148 3.83 3.83 0 0 0-3.57 2.4 8.24 8.24 0 0 0-0.61 2.74c0.00472 1.81 0.716 2.76 2.24 3.04a6.48 6.48 0 0 0 1.88 0.0384 3.56 3.56 0 0 0 2.67-1.59 6.59 6.59 0 0 0 0.977-4.32" fill="#fee702" /></svg>