<svg xmlns="http://www.w3.org/2000/svg" viewBox="0 0 50 58"><defs><linearGradient id="Background"><stop offset="0" stop-color="#8274a3" /></linearGradient><linearGradient id="Frame"><stop offset="0" stop-color="#8274a3" /></linearGradient><linearGradient id="Pictogram"><stop offset="0" stop-color="#ffffff" /></linearGradient></defs><path d="m44.2 2.75h-38.5a3 3 0 0 0-3 3v38.5a3 3 0 0 0 3 3h7.78l11.5 9.43 11.5-9.43h7.78a3 3 0 0 0 3-3v-38.5a3 3 0 0 0-3-3z" fill="url(#Background)" stroke="url(#Frame)" stroke-miterlimit="10" stroke-width="1.5" /><rect fill="none" height="23.5" rx="3" stroke="url(#Pictogram)" stroke-miterlimit="10" stroke-width="1.5" width="16.3" x="11.8" y="17.8" /><circle cx="15.5" cy="36" fill="url(#Pictogram)" r="1.75" /><g data-name="Zug"><rect fill="url(#Pictogram)" height="5" rx="1" width="13" x="13.5" y="20.5" /></g><circle cx="24.5" cy="36" fill="url(#Pictogram)" r="1.75" /><line fill="none" stroke="url(#Pictogram)" stroke-miterlimit="10" stroke-width="1.5" x1="14" x2="26" y1="15" y2="15" /><line fill="none" stroke="url(#Pictogram)" stroke-miterlimit="10" stroke-width="1.5" x1="16" x2="19" y1="15" y2="17.8" /><line fill="none" stroke="url(#Pictogram)" stroke-miterlimit="10" stroke-width="1.5" x1="24" x2="21" y1="15" y2="17.8" /><polyline fill="none" points="8 44 33.5 44 33.5 38 42 38" stroke="url(#Pictogram)" stroke-miterlimit="10" stroke-width="1.5" /><polyline fill="none" points="6 15 25 5.99 44 15" stroke="url(#Pictogram)" stroke-miterlimit="10" stroke-width="1.5" /></svg>