<svg xmlns="http://www.w3.org/2000/svg" viewBox="0 0 94.5 58"><defs><style>.cls-1,.cls-4,.cls-5{isolation:isolate;}.cls-2,.cls-4,.cls-5{fill:#fff;}.cls-3{fill:none;stroke:#fff;stroke-miterlimit:10;stroke-width:1.35888px;}.cls-4{font-size:20px;}.cls-4,.cls-5{font-family:AudiTypeDisplayHigh-Normal, Audi Type Display High;}.cls-5{font-size:15px;}.cls-6{letter-spacing:-0.03005em;}</style><linearGradient gradientUnits="userSpaceOnUse" id="Frame" x1="2" x2="92.8" y1="29.8" y2="29.8"><stop offset="0" stop-color="#8595ff" /></linearGradient></defs><path d="m89 2.75h-83.3a3.01 3.01 0 0 0-3 3v38.5a3.01 3.01 0 0 0 3 3h7.78l11.5 9.43 11.5-9.43h52.5a3.01 3.01 0 0 0 3-3v-38.5a3.01 3.01 0 0 0-3-3z" /><path d="m89 2.75h-83.3a3.01 3.01 0 0 0-3 3v38.5a3.01 3.01 0 0 0 3 3h7.78l11.5 9.43 11.5-9.43h52.5a3.01 3.01 0 0 0 3-3v-38.5a3.01 3.01 0 0 0-3-3z" fill="none" stroke="url(#Frame)" stroke-miterlimit="10" stroke-width="1.5" /><g class="cls-1"><path class="cls-2" d="m18 40.9v-4.67a2.65 2.65 0 0 0-0.153-0.965 1.45 1.45 0 0 0-0.46-0.628 1.92 1.92 0 0 0-0.76-0.342 4.72 4.72 0 0 0-1.06-0.104 5.4 5.4 0 0 0-0.848 0.0654 6.52 6.52 0 0 0-0.794 0.176 5.53 5.53 0 0 0-0.708 0.257 4.38 4.38 0 0 0-0.586 0.311v5.9h-1.49v-10.9h1.49v3.9a4.33 4.33 0 0 1 0.646-0.364 5.46 5.46 0 0 1 0.776-0.287 6.6 6.6 0 0 1 0.877-0.19 6.31 6.31 0 0 1 0.952-0.0693 7.18 7.18 0 0 1 0.939 0.0596 4.36 4.36 0 0 1 0.855 0.2 3.22 3.22 0 0 1 0.732 0.362 2.24 2.24 0 0 1 0.571 0.553 2.56 2.56 0 0 1 0.37 0.77 3.52 3.52 0 0 1 0.132 1.01v4.92z" /><path class="cls-2" d="m29.5 40.9-0.117-0.659a4.39 4.39 0 0 1-0.637 0.341 5.51 5.51 0 0 1-0.752 0.264 6.85 6.85 0 0 1-0.844 0.172 6.65 6.65 0 0 1-0.916 0.0625 8.8 8.8 0 0 1-0.945-0.0498 4.7 4.7 0 0 1-0.87-0.174 3.29 3.29 0 0 1-0.751-0.333 2.16 2.16 0 0 1-0.589-0.529 2.41 2.41 0 0 1-0.385-0.762 3.49 3.49 0 0 1-0.137-1.03v-5h1.48v4.74a2.26 2.26 0 0 0 0.167 0.921 1.47 1.47 0 0 0 0.485 0.607 2.05 2.05 0 0 0 0.785 0.335 4.96 4.96 0 0 0 1.07 0.104 6.27 6.27 0 0 0 0.802-0.0478 4.64 4.64 0 0 0 0.685-0.142 4.3 4.3 0 0 0 0.621-0.23q0.299-0.138 0.606-0.316v-5.97h1.48v7.69z" /><path class="cls-2" d="m34.2 40.9v-10.9h1.49v3.77a4.12 4.12 0 0 1 0.611-0.318 5.48 5.48 0 0 1 0.716-0.245 6.23 6.23 0 0 1 0.791-0.159 6.06 6.06 0 0 1 0.833-0.0566 5.97 5.97 0 0 1 1.84 0.267 3.92 3.92 0 0 1 1.4 0.78 3.43 3.43 0 0 1 0.896 1.26 4.79 4.79 0 0 1 0.00732 3.4 3.42 3.42 0 0 1-0.892 1.27 3.98 3.98 0 0 1-1.43 0.801 6.11 6.11 0 0 1-1.92 0.278 6.82 6.82 0 0 1-0.864-0.0537 6.08 6.08 0 0 1-0.811-0.155 4.75 4.75 0 0 1-0.723-0.253 3.07 3.07 0 0 1-0.601-0.348l-0.106 0.63zm1.49-1.71a4.62 4.62 0 0 0 0.58 0.314 4.72 4.72 0 0 0 0.639 0.236 5.04 5.04 0 0 0 0.692 0.148 5.26 5.26 0 0 0 0.744 0.0518 4.72 4.72 0 0 0 1.38-0.186 2.67 2.67 0 0 0 1.01-0.549 2.32 2.32 0 0 0 0.619-0.906 3.46 3.46 0 0 0 0.21-1.26 3.41 3.41 0 0 0-0.21-1.25 2.26 2.26 0 0 0-0.619-0.89 2.66 2.66 0 0 0-1.01-0.532 4.87 4.87 0 0 0-1.38-0.178 5.26 5.26 0 0 0-0.744 0.0508 5.04 5.04 0 0 0-0.692 0.148 4.72 4.72 0 0 0-0.639 0.236 4.62 4.62 0 0 0-0.58 0.314z" /></g><circle class="cls-3" cx="14.2" cy="16.3" r="5.44" /><circle class="cls-3" cx="22.1" cy="16.3" r="5.44" /><circle class="cls-3" cx="29.9" cy="16.3" r="5.44" /><circle class="cls-3" cx="37.8" cy="16.3" r="5.44" /><text class="cls-4" text-anchor="middle" transform="translate(69.2 23.5)">{charging_power}</text><text class="cls-5" text-anchor="middle" transform="translate(62 40.9)"><tspan class="cls-6" x="8.34961" y="0">{unit}</tspan></text></svg>