<svg xmlns="http://www.w3.org/2000/svg" viewBox="0 0 50 58"><defs><linearGradient id="Background"><stop offset="0" stop-color="#dd9a2f" /></linearGradient><linearGradient id="Pictogram"><stop offset="0" stop-color="#ffffff" /></linearGradient></defs><path d="m44.2 2.75h-38.5a3 3 0 0 0-3 3v38.5a3 3 0 0 0 3 3h7.78l11.5 9.43 11.5-9.43h7.78a3 3 0 0 0 3-3v-38.5a3 3 0 0 0-3-3z" fill="url(#Background)" stroke="url(#Background)" stroke-miterlimit="10" stroke-width="1.5" /><polyline fill="none" points="41 33.5 41 17 29.5 20.8 29.5 37.2" stroke="url(#Pictogram)" stroke-miterlimit="10" stroke-width="1.5" /><line fill="none" stroke="url(#Pictogram)" stroke-miterlimit="10" stroke-width="1.5" x1="41" x2="29.5" y1="22.6" y2="26.4" /><ellipse cx="27.4" cy="38.1" fill="url(#Pictogram)" rx="3.03" ry="1.59" transform="translate(-11.7 12.2) rotate(-20.8)" /><ellipse cx="38.8" cy="34.2" fill="url(#Pictogram)" rx="3.03" ry="1.59" transform="translate(-9.61 16) rotate(-20.8)" /><polygon fill="none" points="19 9.52 17.3 14.9 11.7 14.9 16.2 18.1 14.4 23.5 19 20.2 23.6 23.5 21.8 18.2 26.3 14.9 20.7 14.9" stroke="url(#Pictogram)" stroke-miterlimit="10" stroke-width="1.5" /><polygon fill="none" points="14 28.8 13 32 9.61 32 12.3 34 11.3 37.2 14 35.2 16.7 37.2 15.7 34 18.4 32 15 32" stroke="url(#Pictogram)" stroke-miterlimit="10" /></svg>