<?xml version="1.0" encoding="UTF-8"?>
<svg id="Ebene_1" data-name="Ebene 1" xmlns="http://www.w3.org/2000/svg" xmlns:xlink="http://www.w3.org/1999/xlink" viewBox="0 0 50 50">
  <defs>
    <style>
      .cls-1 {
        stroke: url(#Pictogram-2);
      }

      .cls-1, .cls-2, .cls-3, .cls-4, .cls-5, .cls-6, .cls-7, .cls-8, .cls-9, .cls-10, .cls-11 {
        fill: none;
        stroke-miterlimit: 10;
        stroke-width: 1.5px;
      }

      .cls-12 {
        fill: url(#Pictogram-5);
      }

      .cls-2 {
        stroke: url(#Pictogram-6);
      }

      .cls-3 {
        stroke: url(#Pictogram-8);
      }

      .cls-13 {
        fill: url(#Background);
      }

      .cls-4 {
        stroke: url(#Pictogram-9);
      }

      .cls-5 {
        stroke: url(#Pictogram-12);
      }

      .cls-6 {
        stroke: url(#Pictogram-10);
      }

      .cls-7 {
        stroke: url(#Pictogram-4);
      }

      .cls-8 {
        stroke: url(#Frame);
      }

      .cls-9 {
        stroke: url(#Pictogram-3);
      }

      .cls-10 {
        stroke: url(#Pictogram);
      }

      .cls-11 {
        stroke: url(#Pictogram-7);
      }

      .cls-14 {
        fill: url(#Pictogram-11);
      }
    </style>
    <linearGradient id="Background" x1="2.75" y1="25" x2="47.25" y2="25" gradientUnits="userSpaceOnUse">
      <stop offset="0" stop-color="#fff"/>
      <stop offset="0" stop-color="#fff"/>
    </linearGradient>
    <linearGradient id="Frame" x1="2" y1="25" x2="48" y2="25" gradientUnits="userSpaceOnUse">
      <stop offset="0" stop-color="#fff"/>
      <stop offset="0" stop-color="#000"/>
    </linearGradient>
    <linearGradient id="Pictogram" x1="4.82491" y1="14.28496" x2="28.39745" y2="14.28496" gradientUnits="userSpaceOnUse">
      <stop offset="0" stop-color="#fff"/>
      <stop offset=".00503" stop-color="#000"/>
    </linearGradient>
    <linearGradient id="Pictogram-2" data-name="Pictogram" x1="9.17472" y1="11.5" x2="23.82528" y2="11.5" xlink:href="#Pictogram"/>
    <linearGradient id="Pictogram-3" data-name="Pictogram" x1="12" y1="28.5" x2="21" y2="28.5" xlink:href="#Pictogram"/>
    <linearGradient id="Pictogram-4" data-name="Pictogram" x1="15.75" y1="24.1" x2="17.25" y2="24.1" xlink:href="#Pictogram"/>
    <linearGradient id="Pictogram-5" data-name="Pictogram" x1="14.8" y1="15" x2="18.2" y2="15" xlink:href="#Pictogram"/>
    <linearGradient id="Pictogram-6" data-name="Pictogram" x1="15.81746" y1="9.95" x2="21.78254" y2="9.95" xlink:href="#Pictogram"/>
    <linearGradient id="Pictogram-7" data-name="Pictogram" x1="23" y1="43.5" x2="40" y2="43.5" xlink:href="#Pictogram"/>
    <linearGradient id="Pictogram-8" data-name="Pictogram" x1="34.75" y1="27" x2="38.85" y2="27" xlink:href="#Pictogram"/>
    <linearGradient id="Pictogram-9" data-name="Pictogram" x1="30.75" y1="27" x2="34.85" y2="27" xlink:href="#Pictogram"/>
    <linearGradient id="Pictogram-10" data-name="Pictogram" x1="26.75" y1="27" x2="30.85" y2="27" xlink:href="#Pictogram"/>
    <linearGradient id="Pictogram-11" data-name="Pictogram" x1="24" y1="36.5" x2="39" y2="36.5" xlink:href="#Pictogram"/>
    <linearGradient id="Pictogram-12" data-name="Pictogram" x1="34.94653" y1="37.0802" x2="44.81461" y2="37.0802" xlink:href="#Pictogram"/>
  </defs>
  <g id="Icon">
    <g id="Rahmen_-_Susibasis" data-name="Rahmen - Susibasis">
      <rect class="cls-13" x="2.75" y="2.75" width="44.5" height="44.5" rx="3" ry="3"/>
      <rect class="cls-8" x="2.75" y="2.75" width="44.5" height="44.5" rx="3" ry="3"/>
    </g>
    <polygon class="cls-10" points="26.7 8.5 6.5 8.5 16.5 19.7 26.7 8.5"/>
    <line class="cls-1" x1="9.17472" y1="11.5" x2="23.82528" y2="11.5"/>
    <line class="cls-9" x1="12" y1="28.5" x2="21" y2="28.5"/>
    <line class="cls-7" x1="16.5" y1="19.7" x2="16.5" y2="28.5"/>
    <circle class="cls-12" cx="16.5" cy="15" r="1.7"/>
    <line class="cls-2" x1="16.5" y1="15" x2="21.1" y2="4.9"/>
    <line class="cls-11" x1="23" y1="43.5" x2="40" y2="43.5"/>
    <path class="cls-3" d="M35.5,30c-.00039-1.13679,.47027-2.22293,1.3-3s1.30039-1.86321,1.3-3"/>
    <path class="cls-4" d="M31.5,30c-.00039-1.13679,.47027-2.22293,1.3-3,.82973-.77707,1.30039-1.86321,1.3-3"/>
    <path class="cls-6" d="M27.5,30c-.00039-1.13679,.47027-2.22293,1.3-3s1.30039-1.86321,1.3-3"/>
    <path class="cls-14" d="M37.5,32.5v4c0,2.44445-2.2953,3.69445-3,4h-6c-.7047-.30555-3-1.55555-3-4v-4h12Zm-13.5-1.5v5.5c0,3.97222,4,5.5,4,5.5h7s4-1.52778,4-5.5v-5.5h-15Z"/>
    <path class="cls-5" d="M38.7877,33.41657s.58021,.02688,1.15172,.00814c.755-.02475,2.89725-.77475,3.88029,.44932,1.60109,3.20219-5.14637,5.94692-5.83256,6.17565l-2.79271,.9781"/>
  </g>
</svg>