<?xml version="1.0" encoding="UTF-8"?>
<svg id="Ebene_1" data-name="Ebene 1" xmlns="http://www.w3.org/2000/svg" xmlns:xlink="http://www.w3.org/1999/xlink" viewBox="0 0 50 50">
  <defs>
    <style>
      .cls-1 {
        stroke: url(#Pictogram-2);
      }

      .cls-1, .cls-2, .cls-3, .cls-4, .cls-5, .cls-6, .cls-7, .cls-8, .cls-9, .cls-10 {
        stroke-miterlimit: 10;
        stroke-width: 1.5px;
      }

      .cls-1, .cls-3, .cls-4, .cls-5, .cls-6, .cls-7, .cls-8, .cls-9, .cls-10 {
        fill: none;
      }

      .cls-2 {
        fill: #fff;
        stroke: #000;
      }

      .cls-11 {
        fill: url(#Pictogram-6);
      }

      .cls-12 {
        fill: url(#Pictogram-5);
      }

      .cls-3 {
        stroke: url(#Pictogram-8);
      }

      .cls-13 {
        fill: url(#Background);
      }

      .cls-4 {
        stroke: url(#Pictogram-9);
      }

      .cls-5 {
        stroke: url(#Pictogram-10);
      }

      .cls-6 {
        stroke: url(#Pictogram-4);
      }

      .cls-7 {
        stroke: url(#Frame);
      }

      .cls-8 {
        stroke: url(#Pictogram-11);
      }

      .cls-9 {
        stroke: url(#Pictogram-3);
      }

      .cls-10 {
        stroke: url(#Pictogram);
      }

      .cls-14 {
        fill: url(#Pictogram-7);
      }
    </style>
    <linearGradient id="Background" x1="2.75" y1="25" x2="47.25" y2="25" gradientUnits="userSpaceOnUse">
      <stop offset="0" stop-color="#fff"/>
      <stop offset="0" stop-color="#fff"/>
    </linearGradient>
    <linearGradient id="Frame" x1="2" y1="25" x2="48" y2="25" gradientUnits="userSpaceOnUse">
      <stop offset="0" stop-color="#fff"/>
      <stop offset="0" stop-color="#000"/>
    </linearGradient>
    <linearGradient id="Pictogram" x1="6.06459" y1="10.56592" x2="43.83686" y2="10.56592" gradientUnits="userSpaceOnUse">
      <stop offset="0" stop-color="#fff"/>
      <stop offset=".00503" stop-color="#000"/>
    </linearGradient>
    <linearGradient id="Pictogram-2" data-name="Pictogram" x1="26.75" y1="34" x2="39.25" y2="34" xlink:href="#Pictogram"/>
    <linearGradient id="Pictogram-3" data-name="Pictogram" x1="21.75" y1="23.5" x2="44.25" y2="23.5" xlink:href="#Pictogram"/>
    <linearGradient id="Pictogram-4" data-name="Pictogram" x1="25" y1="23.5" x2="41" y2="23.5" xlink:href="#Pictogram"/>
    <linearGradient id="Pictogram-5" data-name="Pictogram" x1="30.2" y1="28.75" x2="35.6" y2="28.75" xlink:href="#Pictogram"/>
    <linearGradient id="Pictogram-6" data-name="Pictogram" x1="30" y1="33.6" x2="36" y2="33.6" xlink:href="#Pictogram"/>
    <linearGradient id="Pictogram-7" data-name="Pictogram" x1="30" y1="39" x2="36" y2="39" xlink:href="#Pictogram"/>
    <linearGradient id="Pictogram-8" data-name="Pictogram" x1="8.41" y1="24.78" x2="20.15" y2="24.78" xlink:href="#Pictogram"/>
    <linearGradient id="Pictogram-9" data-name="Pictogram" x1="8.41" y1="27.075" x2="20.15" y2="27.075" xlink:href="#Pictogram"/>
    <linearGradient id="Pictogram-10" data-name="Pictogram" x1="5.85" y1="22.38167" x2="17.59" y2="22.38167" xlink:href="#Pictogram"/>
    <linearGradient id="Pictogram-11" data-name="Pictogram" x1="5.85" y1="20.08667" x2="17.59" y2="20.08667" xlink:href="#Pictogram"/>
  </defs>
  <g id="Icon">
    <g id="Rahmen_-_Susibasis" data-name="Rahmen - Susibasis">
      <rect class="cls-13" x="2.75" y="2.75" width="44.5" height="44.5" rx="3" ry="3"/>
      <rect class="cls-7" x="2.75" y="2.75" width="44.5" height="44.5" rx="3" ry="3"/>
    </g>
    <polyline class="cls-10" points="6.4 15.3 25 6 43.5 15.3"/>
    <rect class="cls-1" x="27.5" y="24.5" width="11" height="19"/>
    <polyline class="cls-9" points="38.5 26.5 43.5 26.5 43.5 20.5 22.5 20.5 22.5 26.5 27.5 26.5"/>
    <line class="cls-6" x1="25" y1="23.5" x2="41" y2="23.5"/>
    <path class="cls-12" d="M34.5,28.9l-.2-1.4h.9l.4,1.8v.7h-5.4v-1.1h4.3Z"/>
    <path class="cls-11" d="M30,33.6c0-1.1,.9-2.2,3-2.2s3,.8,3,2.2-.9,2.2-3,2.2-3-1.1-3-2.2Zm.9,0c0,1,1.5,1.1,2.1,1.1s2.1-.1,2.1-1.1-1.2-1.1-2.1-1.1-2.1,.1-2.1,1.1Z"/>
    <path class="cls-14" d="M30,39c0-1.1,.9-2.2,3-2.2s3,.8,3,2.2-.9,2.2-3,2.2-3-1.1-3-2.2Zm.9,0c0,1,1.5,1.1,2.1,1.1s2.1-.1,2.1-1.1-1.2-1.1-2.1-1.1-2.1,.1-2.1,1.1Z"/>
    <ellipse class="cls-3" cx="14.28" cy="24.78" rx="5.12" ry="1.70667"/>
    <path class="cls-4" d="M9.16,24.78v2.13333c0,.94257,2.2923,1.70667,5.12,1.70667s5.12-.7641,5.12-1.70667v-2.13333"/>
    <path class="cls-2" d="M6.6,20.08667v2.13333c0,.94257,2.2923,1.70667,5.12,1.70667s5.12-.7641,5.12-1.70667v-2.13333"/>
    <path class="cls-5" d="M6.6,20.08667v2.13333c0,.94257,2.2923,1.70667,5.12,1.70667s5.12-.7641,5.12-1.70667v-2.13333"/>
    <ellipse class="cls-8" cx="11.72" cy="20.08667" rx="5.12" ry="1.70667"/>
  </g>
</svg>