<svg xmlns="http://www.w3.org/2000/svg" id="Icon" viewBox="0 0 50 50">
<defs>
<linearGradient id="Background">
<stop offset="0" stop-color="#ffffff" />
</linearGradient>
<linearGradient id="Frame">
<stop offset="0" stop-color="#ffffff" />
</linearGradient> <linearGradient id="Pictogram">
<stop offset="0" stop-color="#ffffff" />
</linearGradient>
</defs>
<title>d0_t269_2s0</title>
<g id="Rahmen">
<rect fill="url(#Background)" height="44.5" rx="3" width="44.5" x="2.75" y="2.75" />
<rect fill="none" height="44.5" rx="3" stroke="url(#Frame)" stroke-miterlimit="10" stroke-width="1.5" width="44.5" x="2.75" y="2.75" />
</g>
<path d="M22.09124,9.69772a2.95587,2.95587,0,1,1-2.9564-2.956A2.95641,2.95641,0,0,1,22.09124,9.69772Z" fill="#ffd300" />
<path d="M28.08805,9.69772a2.95617,2.95617,0,1,1-2.95557-2.956A2.95562,2.95562,0,0,1,28.08805,9.69772Z" fill="#1d1d1b" />
<path d="M34.08522,9.69772a2.95611,2.95611,0,1,1-2.95581-2.956A2.95613,2.95613,0,0,1,34.08522,9.69772Z" fill="#ee7b0f" />
<path d="M22.09124,15.695a2.95587,2.95587,0,1,1-2.9564-2.95653A2.95577,2.95577,0,0,1,22.09124,15.695Z" fill="#7d83bf" />
<path d="M28.08805,15.695a2.95617,2.95617,0,1,1-2.95557-2.95653A2.955,2.955,0,0,1,28.08805,15.695Z" fill="#baad7b" />
<path d="M34.08522,15.695a2.95611,2.95611,0,1,1-2.95581-2.95653A2.9555,2.9555,0,0,1,34.08522,15.695Z" fill="#dddc21" />
<path d="M22.09124,21.69073a2.95587,2.95587,0,1,1-2.9564-2.9558A2.95543,2.95543,0,0,1,22.09124,21.69073Z" fill="#62b4d2" />
<path d="M28.08805,21.69073a2.95617,2.95617,0,1,1-2.95557-2.9558A2.95465,2.95465,0,0,1,28.08805,21.69073Z" fill="#1d1d1b" />
<path d="M34.08522,21.69073a2.95611,2.95611,0,1,1-2.95581-2.9558A2.95516,2.95516,0,0,1,34.08522,21.69073Z" fill="#7bba58" />
<path d="M14.802,38.6922H13.0935v4.4771h.737V41.68159h.89318c1.06873,0,1.787-.60669,1.787-1.50962V40.1597C16.51064,39.26832,15.84,38.6922,14.802,38.6922Zm-.06015,2.29463H13.8305V39.393h.93542c.30105,0,1.00159.07653,1.00159.785v.01179C15.76751,40.674,15.3649,40.98683,14.74186,40.98683Z" fill="#1d1d1b" />
<path d="M18.99779,42.46827V38.6922h-.737v4.4771h3.11v-.701Z" fill="#1d1d1b" />
<path d="M25.5943,38.66212h-.61415l-2.0394,4.50718h.7749l.49983-1.11422h2.12507c.05957.13452.49407,1.11422.49407,1.11422h.79932Zm.44339,2.70422H24.51931c.11912-.26617.596-1.32985.76165-1.69949C25.44558,40.03672,25.91953,41.10065,26.03769,41.36634Z" fill="#1d1d1b" />
<path d="M32.41919,41.88133l-.09145.08735a1.71539,1.71539,0,0,1-1.27088.572,1.54208,1.54208,0,0,1-1.50156-1.61v-.012a1.51781,1.51781,0,0,1,1.50156-1.59793A1.688,1.688,0,0,1,32.292,39.863l.09566.091.50356-.541-.09445-.089A2.31465,2.31465,0,0,0,31.06287,38.62a2.26266,2.26266,0,0,0-2.26273,2.31074v.012a2.22267,2.22267,0,0,0,2.24468,2.29895,2.33048,2.33048,0,0,0,1.77938-.78l.09193-.09314Z" fill="#1d1d1b" />
<path d="M35.40328,42.4743V41.2602H37.704v-.695H35.40328V39.387H37.975V38.6922H34.6664v4.4771h3.33869v-.695Z" fill="#1d1d1b" />
<path d="M12.25615,30.28719v2.79807H8.47876V30.28719H7.93849v6.13615h.54027V33.5911h3.77739v2.83224h.54027V30.28719Z" fill="#1d1d1b" />
<path d="M20.5678,30.28719s-2.17454,3.109-2.24721,3.213c-.07231-.104-2.23855-3.213-2.23855-3.213h-.67359l2.63334,3.713v2.42312h.54027V33.99179c.01684-.02383,2.63358-3.7046,2.63358-3.7046Z" fill="#1d1d1b" />
<path d="M25.62065,30.24412h-.49022l-2.85737,6.17922h.56721s.74494-1.64053.76852-1.69251h3.50775c.02347.052.7684,1.69251.7684,1.69251H28.478Zm-1.78023,3.98976c.05547-.12153,1.44873-3.17178,1.52634-3.34145.07725.1699,1.463,3.22017,1.51828,3.34145Z" fill="#1d1d1b" />
<path d="M30.07067,30.28719v.50609h2.10691v5.63006h.5405V30.79328h2.107v-.50609Z" fill="#1d1d1b" />
<path d="M37.30707,30.28719v.50609H39.414v5.63006h.54051V30.79328h2.107v-.50609Z" fill="#1d1d1b" />
<polygon fill="#1d1d1b" points="39.139 38.853 39.413 38.853 39.413 39.595 39.577 39.595 39.577 38.853 39.846 38.853 39.846 38.693 39.139 38.693 39.139 38.853" />
<polygon fill="#1d1d1b" points="40.736 38.693 40.43 39.165 40.122 38.693 39.967 38.693 39.967 39.595 40.135 39.595 40.135 39.009 40.402 39.411 40.456 39.411 40.719 39.016 40.719 39.595 40.886 39.595 40.886 38.693 40.736 38.693" />
</svg>