<svg xmlns="http://www.w3.org/2000/svg" viewBox="0 0 50 50"><defs><linearGradient><stop offset="0" stop-color="#2155d6" /></linearGradient><linearGradient id="Frame"><stop offset="0" stop-color="#ffcc00" /></linearGradient></defs><rect fill="#fc0" height="44.5" rx="3" width="44.5" x="2.75" y="2.75" /><rect fill="#fc0" height="44.5" rx="3" width="44.5" x="2.75" y="2.75" /><rect fill="#fc0" height="44.5" rx="3" stroke="url(#Frame)" stroke-miterlimit="10" stroke-width="1.5" width="44.5" x="2.75" y="2.75" /><path d="m20.8 13.4 14.2-0.387a34.3 34.3 0 0 0-15.9 23.9h-12.2c0.896-6.98 6.67-19 13.9-23.5" fill="#0a3478" /><path d="m43.1 23a17.4 17.4 0 0 0-7.67 11.5h-3.67c0.633-3.83 3.02-8.77 6.5-11.4 0.0285-0.0229 4.83-0.0975 4.83-0.0975" fill="#0a3478" /><path d="m31.4 19.6 8.34-0.242c-6.85 3.7-10.3 11.6-10.9 16.3h-6.35c0.537-3.93 3.24-11.8 8.92-16.1" fill="#e10014" /></svg>