<svg xmlns="http://www.w3.org/2000/svg" viewBox="0 0 50 50"><defs><linearGradient id="Frame"><stop offset="0" stop-color="#ffffff" /></linearGradient></defs><rect fill="#fff" height="44.5" rx="3" width="44.5" x="2.75" y="2.75" /><rect fill="none" height="44.5" rx="3" stroke="url(#Frame)" stroke-miterlimit="10" stroke-width="1.5" width="44.5" x="2.75" y="2.75" /><path d="m15.8 24.9a2.36 2.36 0 0 1-1.75-0.756c-0.642-0.689-0.681-3.23-0.668-4.29-0.0352-0.38-0.178-2.57 0.637-3.39a1.12 1.12 0 0 1 0.902-0.337 1.38 1.38 0 0 1 1 0.537 4.4 4.4 0 0 1 0.355 3.1 10.7 10.7 0 0 1-1.58 3.54 0.513 0.513 0 0 0 0.0835 0.159 1.37 1.37 0 0 0 1.14 0.434 2.14 2.14 0 0 0 1.56-0.936l0.826 0.563a3.17 3.17 0 0 1-2.31 1.37c-0.0674 0.00538-0.134 0.00779-0.2 0.00779zm-0.978-7.77a0.12 0.12 0 0 0-0.0938 0.0459 4.82 4.82 0 0 0-0.348 2.64c-0.00733 0.686 0.019 1.37 0.0679 1.96a7.6 7.6 0 0 0 0.843-2.18 3.53 3.53 0 0 0-0.158-2.32 0.376 0.376 0 0 0-0.292-0.155z" fill="#534d46" /><path d="m11.2 16.8a2.67 2.67 0 0 0-1.98-0.423 2.15 2.15 0 0 0-1.36 0.825 1.72 1.72 0 0 0-0.207 1.4 1.62 1.62 0 0 0 1.87 1.28 4.56 4.56 0 0 0 1.15-0.331l-0.447-0.895a3.62 3.62 0 0 1-0.863 0.238 0.619 0.619 0 0 1-0.743-0.525 0.75 0.75 0 0 1 0.062-0.607 1.21 1.21 0 0 1 0.749-0.41 1.78 1.78 0 0 1 1.26 0.31c0.692 0.407 1.56 1.8 1.11 3.97a2.72 2.72 0 0 1-2.9 2.33 2.5 2.5 0 0 1-2.4-2.3 4.44 4.44 0 0 1 0.697-3.21l-0.427-1.11a5.59 5.59 0 0 0-1.25 4.51 3.53 3.53 0 0 0 3.35 3.11c0.0508 2e-3 0.102 0.00293 0.153 0.00293a3.69 3.69 0 0 0 3.76-3.13c0.521-2.52-0.454-4.37-1.58-5.04z" fill="#534d46" /><circle cx="17.9" cy="18.1" fill="#534d46" r=".589" /><path d="m20.5 23.2c-0.155 0.182-0.794 0.78-1.34 0.635-0.47-0.122-0.695-0.83-0.75-1.46-0.0317-0.362-0.0293-2.19-0.0254-2.87l-1-0.00586c-0.00147 0.253-0.0127 2.49 0.0303 2.97 0.11 1.26 0.654 2.11 1.49 2.33a1.66 1.66 0 0 0 0.419 0.0532 2.56 2.56 0 0 0 1.57-0.652z" fill="#534d46" /><path d="m29.7 23-0.0544-0.122a2.93 2.93 0 0 1-2.08 0.969 1.53 1.53 0 0 1-1.37-0.802 1.89 1.89 0 0 1-0.189-0.885 3.14 3.14 0 0 0 1.08 0.277 2.29 2.29 0 0 0 1.87-0.658 1.6 1.6 0 0 0 0.434-1.29 1.64 1.64 0 0 0-2-1.46 2.75 2.75 0 0 0-2.02 1.54 7 7 0 0 1-1.22-1.39l-0.0114-0.0246-0.946 0.302a0.59 0.59 0 0 0 0.0545 0.157l0.00232 1.2e-4c0.522 1.13-0.314 2.96-0.931 3.99a27.4 27.4 0 0 0-2.07-4.62l-0.868 0.496a23.6 23.6 0 0 1 2.21 5.29h1.14a9.13 9.13 0 0 0 1.64-3.76 6.85 6.85 0 0 0 0.676 0.579 3.01 3.01 0 0 0 0.245 1.89 2.56 2.56 0 0 0 2.19 1.36 3.75 3.75 0 0 0 2.56-0.95zm-3.46-1.92a1.87 1.87 0 0 1 1.26-1.06c0.664-0.0679 0.841 0.186 0.906 0.616a0.626 0.626 0 0 1-0.184 0.461 1.26 1.26 0 0 1-1.07 0.335 2.32 2.32 0 0 1-0.936-0.285c0.00781-0.023 0.0166-0.0459 0.0254-0.0694z" fill="#534d46" /><path d="m16.4 28.9-1.02-7e-3 -0.00153 0.0757a3.42 3.42 0 0 1-0.978 2.54 3.02 3.02 0 0 1-2.06 0.775 2.37 2.37 0 0 1-1.92-1.24 4.12 4.12 0 0 1-0.143-3.01 2.7 2.7 0 0 1 2.72-1.95c0.522 0.0342 1.4 0.22 1.45 1.08a1.21 1.21 0 0 1-0.717 1.29l0.33 0.943a2.22 2.22 0 0 0 1.39-2.28c-0.062-1.17-0.953-1.93-2.39-2.02a3.67 3.67 0 0 0-3.74 2.67 5.1 5.1 0 0 0 0.23 3.78 3.37 3.37 0 0 0 2.75 1.75 3.91 3.91 0 0 0 2.79-1.04 3.73 3.73 0 0 0 0.292-0.305c-0.00684 0.437-0.0137 0.752-0.0186 0.818a1.45 1.45 0 0 0-0.0664 0.407c-0.0693 0.872-0.246 1.48-0.879 1.62a1.39 1.39 0 0 1-1.26-0.368l-0.389 0.965a2.35 2.35 0 0 0 1.35 0.436 2.4 2.4 0 0 0 0.511-0.0557c1.49-0.322 1.62-1.92 1.66-2.52 0.00586-0.0752 0.00781-0.14 0.00146-0.125 0.0109-0.0279 0.16-2.67 0.113-4.22z" fill="#534d46" /><path d="m30 33.9a2.79 2.79 0 0 1-2.39-0.281 3.21 3.21 0 0 1-1.07-2.11c0-0.0772-0.0234-0.985-0.0478-1.95l-0.00781-0.297a1.26 1.26 0 0 0-1.29-1.39c-0.104-0.0156-0.146-0.0205-0.782-0.0606a1.14 1.14 0 0 1-0.859-0.566l-0.973 0.302 0.014 0.0417a9.11 9.11 0 0 1 0.351 2.81l4.9e-4 0.146a4.62 4.62 0 0 1-0.117 0.973c-0.137 0.686-0.512 0.686-0.654 0.686-0.451 0-0.605-0.899-0.617-1.08-0.0102-0.186-0.022-2.1-0.0273-3.34l-1 0.00391c0.00146 0.318 0.0142 3.12 0.0283 3.39 0.0298 0.562 0.377 2.02 1.62 2.02a1.65 1.65 0 0 0 1.63-1.49 5.39 5.39 0 0 0 0.135-1.21l4.9e-4 -0.0996a12.5 12.5 0 0 0-0.0864-1.7 1.96 1.96 0 0 0 0.489 0.0957c0.567 0.0361 0.605 0.0371 0.702 0.0518l0.125 0.00586c0.18-2e-3 0.299-0.00293 0.31 0.418l0.00781 0.297c0.0244 0.948 0.0478 1.84 0.0478 1.92a4.28 4.28 0 0 0 1.4 2.86 3.2 3.2 0 0 0 2.04 0.663 5.28 5.28 0 0 0 1.25-0.162z" fill="#534d46" /><ellipse cx="19.2" cy="30.4" fill="none" rx="1.86" ry="2.27" stroke="#534d46" stroke-miterlimit="10" stroke-width=".99" /><ellipse cx="29.5" cy="30.4" fill="none" rx="1.86" ry="2.27" stroke="#534d46" stroke-miterlimit="10" stroke-width=".99" /><path d="m32.4 33.1c-0.0127 0-0.0254 0-0.0381-1e-3 -1.17-0.0312-1.49-1.33-1.5-2.09v-5.92h0.99v5.92c0 0.00488 0.0459 1.1 0.537 1.11a2.45 2.45 0 0 0 1.21-0.705l0.703 0.697a3.3 3.3 0 0 1-1.9 0.997z" fill="#534d46" /><path d="m35.5 33.1h-0.0518a2.84 2.84 0 0 1-2.58-2.83 2.94 2.94 0 0 1 2.55-2.75 1.64 1.64 0 0 1 1.87 1.6 1.5 1.5 0 0 1-0.414 1.12 2.32 2.32 0 0 1-1.7 0.641 3.46 3.46 0 0 1-1.28-0.281 1.8 1.8 0 0 0 1.57 1.51c0.0127 1e-3 0.0254 1e-3 0.0381 1e-3a3.06 3.06 0 0 0 2.65-1.92l0.827 0.554a3.86 3.86 0 0 1-3.47 2.35zm-1.47-3.52a2.72 2.72 0 0 0 1.15 0.315 1.37 1.37 0 0 0 0.979-0.33 0.497 0.497 0 0 0 0.146-0.388c-0.0176-0.311-0.129-0.665-0.831-0.665-0.0108 0-0.0225 0-0.0342 1e-3a2.01 2.01 0 0 0-1.41 1.07z" fill="#534d46" /><rect fill="#534d46" height="5.29" width=".921" x="38.1" y="27.7" /><path d="m44.2 31.5c-0.974 0.769-1.34 0.67-1.41 0.642-0.145-0.0644-0.256-0.342-0.277-0.682-1e-3 -0.0361-0.00391-0.23-0.00782-0.486-0.0244-1.58-0.0283-1.6-0.0352-1.62a1.69 1.69 0 0 0-0.521-1.26 1.88 1.88 0 0 0-1.45-0.413c-1.98 0.138-2.37 2.83-2.39 2.95l0.932 0.154c0.00293-0.0205 0.348-2.02 1.52-2.1a1 1 0 0 1 0.707 0.156 0.881 0.881 0 0 1 0.197 0.625c0.00977 0.129 0.0225 0.976 0.0303 1.53 0.00489 0.284 0.00782 0.497 0.00977 0.523a1.69 1.69 0 0 0 0.87 1.54 1.29 1.29 0 0 0 0.53 0.109 3.07 3.07 0 0 0 1.7-0.729z" fill="#534d46" /><path d="m44.3 24.8c-3.7 0.377-5.25-0.746-5.25-0.746a5.72 5.72 0 0 1-0.388-1.3 3.89 3.89 0 0 0 0.482-2.73 16.7 16.7 0 0 0-0.699-3 6.24 6.24 0 0 0-0.8 1.73c-0.0622-0.0155-1.86-0.594-1.86-0.547a4.54 4.54 0 0 0 0 0.637 7.91 7.91 0 0 1 1.72 0.613 5.53 5.53 0 0 0 0.377 2.35c0.0856 0.186 0.476 0.88 0.497 0.979a4.99 4.99 0 0 1 0.202 1.04 5.38 5.38 0 0 1-1.83-1.37 5.31 5.31 0 0 1-1.1-2.39 10.5 10.5 0 0 1-0.0156-2.52 3.94 3.94 0 0 1 0.28-1.17s0.491-0.159 0.585-0.174a3.35 3.35 0 0 1 0.459-0.0574c0.14 0 0.595 0.0788 0.914 0.0919a6.46 6.46 0 0 0 2.26-0.522 5.1 5.1 0 0 0 1.98-1.48 13.1 13.1 0 0 0-3.61 0.536 7.7 7.7 0 0 0-1.35 0.899 1.2 1.2 0 0 1-0.357 0.21c-0.109 0.0311-0.777 0.163-0.774 0.158a6.49 6.49 0 0 1 1.88-2.49 2.86 2.86 0 0 0 1.29-0.0653 5.89 5.89 0 0 0 1.35-0.665c0.202-0.14 1.41-1.06 2.1-1.66 0.14-0.124 0.544-0.463 0.528-0.466a5.76 5.76 0 0 0-3.14 0.497 6.18 6.18 0 0 0-2.3 2.21 13.6 13.6 0 0 0-1.53 1.5c-0.0933-0.855-0.21-1.1-0.145-1.15a0.984 0.984 0 0 0 0.357-0.948 0.932 0.932 0 0 0-1.11-0.835 0.943 0.943 0 0 0-0.696 1.13 1.1 1.1 0 0 0 1.15 0.792c0.339 1.52-0.0185 1.89-0.0806 2.05s-0.326 0.923-0.385 0.888a2.78 2.78 0 0 1-0.28-0.513 3.73 3.73 0 0 0-0.311-1.49 4.09 4.09 0 0 0-1.46-1.55 4.94 4.94 0 0 0-1.62-0.672c0.0311 0.0466 0.952 1.74 1.17 2.15a7.32 7.32 0 0 0 0.87 1.15 1.9 1.9 0 0 0 1.12 0.544 2.08 2.08 0 0 1 0.388 1.24c-0.015 0.249-0.0187 0.426-0.0187 0.426l-1.8-0.255 0.373 0.575 1.35 0.233s-0.0328 0.784-0.0187 1.02a7.84 7.84 0 0 0 0.329 1.55 1.61 1.61 0 0 1 0.0669 0.435 4.51 4.51 0 0 1-1.19-0.684 7.99 7.99 0 0 0-0.979-2.61 17.4 17.4 0 0 0-1.94-2.67c-0.07 0.233-0.0311 1.92-0.0389 1.96-0.109-0.0156-1.31-0.233-1.4-0.28a3.15 3.15 0 0 1-0.544-1.23 4.38 4.38 0 0 0-0.0101-3.04 19.1 19.1 0 0 0-1.15-2.89 6.07 6.07 0 0 0-0.482 3.15 10.9 10.9 0 0 0 1.39 2.96 2.4 2.4 0 0 1 0.288 0.863 5.25 5.25 0 0 1-2.13-1.51 17.1 17.1 0 0 1-0.87-1.52 4.21 4.21 0 0 0-2.21-1.76 6.16 6.16 0 0 0-2.73-0.466 11.2 11.2 0 0 0 2.27 2.05 5.88 5.88 0 0 0 2.41 0.738 0.58 0.58 0 0 1 0.418 0.275c0.0585 0.0742 0.328 0.588 0.483 0.813 0.115 0.166 1.01 1.08 1.01 1.07a4.41 4.41 0 0 1-1.54-0.612 5.23 5.23 0 0 0-2.07-0.357 7.92 7.92 0 0 0-3.05 0.744 5.33 5.33 0 0 0 3.1 0.981 9.42 9.42 0 0 0 2.74-0.654 9.7 9.7 0 0 1 1.44 0.359 14.8 14.8 0 0 0 1.41 0.513 11.2 11.2 0 0 0 1.32 0.263 5.15 5.15 0 0 0 0.692 1.77 2.69 2.69 0 0 0 2.05 1.38c0.124 0.0466 0.699 0.42 1.12 0.629a1.96 1.96 0 0 1 0.699 0.497 6.33 6.33 0 0 1 0.425 0.638c-0.0466 0-0.909 0.117-0.909 0.117a0.909 0.909 0 0 0-0.976-0.397 0.974 0.974 0 0 0-0.792 1.26 0.957 0.957 0 0 0 1.28 0.514 1.08 1.08 0 0 0 0.601-1.14 4.09 4.09 0 0 1 1.2 0.0156 5.76 5.76 0 0 0 2.1 1.46 10.1 10.1 0 0 0 3.87 0.917 12.1 12.1 0 0 0 1.88-0.109zm-5.87-2.57a9.33 9.33 0 0 1-0.257-2.11 13.3 13.3 0 0 1 0.143-1.98s0.0762 1.2 0.143 1.93a10.4 10.4 0 0 1-0.0286 2.16zm-0.617-6.46s1.43-0.458 1.62-0.525 1.63-0.543 1.63-0.543a5.6 5.6 0 0 1-1.57 0.772 8.37 8.37 0 0 1-1.68 0.362zm2.13-3.8a11.8 11.8 0 0 1 2.12-0.829s-1.7 0.944-1.85 1.03-1.71 0.867-1.84 0.915a7.64 7.64 0 0 1 1.57-1.12zm-4.87 0.781s-0.0953 0.0381-0.0953-0.143 0.181-0.324 0.429-0.372a0.641 0.641 0 0 1 0.486 0.191 1.27 1.27 0 0 0-0.82 0.324zm-0.391 3.24c-0.0286-0.0382-0.667-0.772-0.858-1.03-0.121-0.163-1.43-1.66-1.43-1.66a6.74 6.74 0 0 1 1.52 1.32 3 3 0 0 1 0.762 1.37zm-6.27-2.41a7.79 7.79 0 0 1-0.124-2.24s0.324 1.53 0.448 2.16 0.315 1.98 0.315 1.98a8.79 8.79 0 0 1-0.639-1.91zm-4.32-0.229c-0.82-0.496-1.55-0.982-1.55-0.982a6.7 6.7 0 0 1 1.9 0.762 7.85 7.85 0 0 1 1.59 1.17 16.8 16.8 0 0 1-1.93-0.953zm0.267 3.57a5.97 5.97 0 0 1-1.95-0.219s0.982-0.0762 1.98-0.0762a16.3 16.3 0 0 1 1.96 0.133 7.67 7.67 0 0 1-1.99 0.162zm8.22 2.25a10.3 10.3 0 0 1-0.826-2.37c0.128 0.312 0.826 1.68 1.13 2.21a14 14 0 0 1 0.816 1.62 4.84 4.84 0 0 1-1.12-1.47zm2.47 4.04a1.94 1.94 0 0 0-0.848 0.438l-0.181-0.181c0.257-0.591 1.21-0.314 1.03-0.257z" fill="#b4bc1b" /><path d="m39.3 19.7a8.33 8.33 0 0 1 0.104 1.06 10.4 10.4 0 0 1 1.39 2.12 3.22 3.22 0 0 0 0.79-0.187 6.71 6.71 0 0 0-2.29-2.99z" fill="#b4bc1b" /><path d="m17.8 39v-1.45h0.346v1.45z" fill="#b4bb1b" /><path d="m19.2 39v-1.21h-0.508v-0.246h1.36v0.246h-0.507v1.21z" fill="#b4bb1b" /><path d="m21.9 39h-0.376l-0.15-0.329h-0.684l-0.142 0.329h-0.367l0.667-1.45h0.366zm-0.637-0.574-0.236-0.538-0.231 0.538z" fill="#b4bb1b" /><path d="m22.5 39v-1.44h0.346v1.2h0.859v0.244z" fill="#b4bb1b" /><path d="m24.2 39v-1.45h0.346v1.45z" fill="#b4bb1b" /><path d="m26.8 39h-0.376l-0.149-0.329h-0.685l-0.142 0.329h-0.367l0.667-1.45h0.366zm-0.636-0.574-0.237-0.538-0.231 0.538z" fill="#b4bb1b" /><path d="m27.3 39v-1.45h0.336l0.701 0.969v-0.969h0.321v1.45h-0.347l-0.69-0.946v0.946z" fill="#b4bb1b" /><path d="m30.3 39v-1.45h0.346v0.645l0.698-0.645h0.465l-0.645 0.565 0.68 0.886h-0.447l-0.471-0.681-0.28 0.242v0.438z" fill="#b4bb1b" /><path d="m32.4 39v-1.45h0.346v1.45z" fill="#b4bb1b" /><path d="m33.7 39v-1.21h-0.508v-0.246h1.36v0.246h-0.507v1.21z" fill="#b4bb1b" /><path d="m36.2 38.4 0.335 0.0898a0.629 0.629 0 0 1-0.256 0.353 0.826 0.826 0 0 1-0.455 0.115 0.805 0.805 0 0 1-0.561-0.197 0.689 0.689 0 0 1-0.22-0.54 0.721 0.721 0 0 1 0.221-0.562 0.831 0.831 0 0 1 0.581-0.2 0.792 0.792 0 0 1 0.51 0.157 0.56 0.56 0 0 1 0.176 0.268l-0.343 0.0693a0.307 0.307 0 0 0-0.127-0.179 0.408 0.408 0 0 0-0.233-0.0654 0.425 0.425 0 0 0-0.31 0.116 0.506 0.506 0 0 0-0.118 0.375 0.542 0.542 0 0 0 0.116 0.392 0.411 0.411 0 0 0 0.304 0.117 0.384 0.384 0 0 0 0.237-0.0742 0.411 0.411 0 0 0 0.143-0.233z" fill="#b4bb1b" /><path d="m37.2 39v-1.45h0.346v0.571h0.678v-0.571h0.346v1.45h-0.346v-0.635h-0.678v0.635z" fill="#b4bb1b" /><path d="m39.2 39v-1.45h1.27v0.246h-0.924v0.321h0.86v0.244h-0.86v0.396h0.957v0.244z" fill="#b4bb1b" /><path d="m41.2 39v-1.45h0.336l0.701 0.969v-0.969h0.321v1.45h-0.347l-0.69-0.946v0.946z" fill="#b4bb1b" /></svg>