<svg xmlns="http://www.w3.org/2000/svg" viewBox="0 0 50 50"><defs><linearGradient><stop offset="0" /></linearGradient><linearGradient id="Frame"><stop offset="0" stop-color="#ffffff" /></linearGradient></defs><rect fill="#fff" height="44.5" rx="3" width="44.5" x="2.75" y="2.75" /><rect fill="none" height="44.5" rx="3" stroke="url(#Frame)" stroke-miterlimit="10" stroke-width="1.5" width="44.5" x="2.75" y="2.75" /><path d="m2.85 35.2v7.39a5.1 5.1 0 0 0 5.11 5.11h34.1a5.1 5.1 0 0 0 5.11-5.11v-7.39z" fill="#fff" fill-rule="evenodd" /><path d="m7.96 2.33a5.1 5.1 0 0 0-5.11 5.11v27.6h44.3v-27.6a5.1 5.1 0 0 0-5.11-5.11z" fill="#f9d616" fill-rule="evenodd" /><path d="m11.6 36.7-2.48 7.3h0.818l2.3-7.3zm0.966 0 2.67 7.3h0.766l-2.83-7.3zm-0.156 0.331-1.65 5.23h3.56zm0.101 2.04 0.821 2.57h-1.64zm-1.83 3.45-0.468 1.48h0.791l0.233-0.898h2.59l0.394 0.898h0.742l-0.542-1.48z" fill="#010101" /><path d="m17.9 38.4a2.51 2.51 0 0 0-2.25 2.66c-0.0259 1.43 0.757 2.8 2.19 2.8a1.7 1.7 0 0 0 1.34-0.491v0.574a0.765 0.765 0 0 1-0.852 0.768c-0.39 0-0.802-0.137-0.867-0.52l-0.67-0.0109a1.35 1.35 0 0 0 0.235 0.501 1.48 1.48 0 0 0 1.3 0.509c0.636 0 1.44-0.474 1.44-1.16v-1.8a2.44 2.44 0 0 1-0.315 0.509 1.8 1.8 0 0 1-1.34 0.687c-1.22 0-1.89-0.939-1.89-2.19 0.0147-1.19 0.567-2.35 1.89-2.35a1.73 1.73 0 0 1 1.38 0.681 2.19 2.19 0 0 1 0.274 0.457v-1.5h-0.588v0.35a1.58 1.58 0 0 0-1.27-0.468zm2.12 0.118v5.54c0 0.859-0.925 1.39-1.7 1.39a1.76 1.76 0 0 1-1.51-0.61 1.66 1.66 0 0 1-0.301-0.668l-0.523-0.00821a2.12 2.12 0 0 0 2.33 1.76 2.12 2.12 0 0 0 2.29-1.82v-5.59zm-1.92 0.621a1.43 1.43 0 0 0-1.17 0.607 2.48 2.48 0 0 0-0.452 1.48 1.78 1.78 0 0 0 1.69 1.93 1.43 1.43 0 0 0 1.07-0.588 2.28 2.28 0 0 0 0.49-1.41 2.34 2.34 0 0 0-0.452-1.44 1.45 1.45 0 0 0-1.17-0.58zm-0.00547 0.427a0.882 0.882 0 0 1 0.733 0.389 1.98 1.98 0 0 1 0.29 1.19 1.86 1.86 0 0 1-0.304 1.15 0.91 0.91 0 0 1-0.742 0.391 0.831 0.831 0 0 1-0.69-0.38 2.05 2.05 0 0 1-0.279-1.2 1.96 1.96 0 0 1 0.279-1.16 0.85 0.85 0 0 1 0.711-0.38z" /><path d="m21.2 37.9v-1.26h1.46v1.26z" fill="#ce1126" /><path d="m21.2 38.5v5.3h0.599v-5.3zm0.862 0v5.3h0.599v-5.3z" fill="#010101" /><path d="m25.9 38.4c1.68 0 2.35 1.14 2.35 2.74s-0.836 2.72-2.33 2.72a1.76 1.76 0 0 1-1.19-0.437v2.15h-0.588v-3.34a2.44 2.44 0 0 0 0.315 0.509 1.86 1.86 0 0 0 1.37 0.687c1.4 0 1.87-1.06 1.86-2.28s-0.485-2.27-1.88-2.27a1.74 1.74 0 0 0-1.39 0.681 2.19 2.19 0 0 0-0.274 0.457v-1.5h0.588v0.32a1.8 1.8 0 0 1 1.17-0.437zm-2.02 0.118v7.05h-0.583v-7.05zm1.92 0.621c1.15 0 1.62 0.951 1.62 2s-0.402 2.02-1.6 2.02a1.6 1.6 0 0 1-1.16-0.588 2.34 2.34 0 0 1-0.49-1.43 2.28 2.28 0 0 1 0.452-1.42 1.46 1.46 0 0 1 1.18-0.58zm0 0.427c-0.82 0-1.02 0.889-1.02 1.58 0 0.687 0.244 1.55 1.05 1.55s0.969-0.868 0.969-1.55-0.17-1.58-0.991-1.58z" /><path d="m33.9 9.81a3.39 3.39 0 0 0-3.26 2.5c-0.375 1.43-1.17 3.1-2.16 3.1a0.946 0.946 0 0 1-0.93-0.54 0.802 0.802 0 0 1 0.383-1.19 0.499 0.499 0 0 0 0.514 0.612 0.41 0.41 0 0 0 0.412-0.401c0-0.577-1.09-1.04-1.84-0.228a1.44 1.44 0 0 0 0.37 2.05 0.832 0.832 0 0 1-1.49-0.175c-0.275 0.513-0.0132 0.929-0.318 1.37a1.45 1.45 0 0 1-0.918-1.27c-0.407 0.464-0.223 1.08-0.388 1.67a1.95 1.95 0 0 1-0.986-1.6 2.43 2.43 0 0 0-0.953 1.17 1.71 1.71 0 0 1-0.842-1.26c-0.58 0.366-0.516 0.773-0.783 1.16a1.62 1.62 0 0 1-0.527-1.4c-0.574 0.655-0.906 1.64-1.94 1.67a11.3 11.3 0 0 0 0.247-2.1 4.47 4.47 0 0 1-2.19 1.57 4.33 4.33 0 0 0 0.497-2.52 1.93 1.93 0 0 1-2.54 0.546 1.37 1.37 0 0 1-0.588 1.11 10.1 10.1 0 0 0-1.47-0.735 2.97 2.97 0 0 0-1.06 1.97 1.47 1.47 0 0 1-1.29-0.871 10.3 10.3 0 0 0-0.212 3.4 71.4 71.4 0 0 0 2.22 7.01 8.79 8.79 0 0 1 0.221 3.03c-0.726 0.76-1.39 1.49-2.03 2.3l2.51-0.122a23.2 23.2 0 0 0 0.53-2.4 1.66 1.66 0 0 0 1.13-0.969 1.14 1.14 0 0 1 0.491-0.473c-0.0802-0.182-0.316-0.327-0.141-0.568a1.34 1.34 0 0 1 0.674-0.635 1.1 1.1 0 0 0-0.583-0.379 1.51 1.51 0 0 1 0.653-0.821c-0.0502-0.214-0.313-0.357-0.671-0.468a1.12 1.12 0 0 1 0.706-1.2 2.43 2.43 0 0 0-0.989-0.398 1.11 1.11 0 0 1 0-1.34 9.3 9.3 0 0 0 1.91 0.902 7.66 7.66 0 0 0 0.671 3.04c0.141 0.326-0.0258 0.604-0.177 0.899a9.88 9.88 0 0 0-1.38 0.935l1.59 1.3a10.5 10.5 0 0 0 0.706-1.64 5.38 5.38 0 0 0 1.24-0.301c-0.0979-0.392-1.03-0.656-0.6-1.03a1.49 1.49 0 0 0 0.777-0.1c-0.0706-0.297-0.801-0.468-0.459-0.868 0.347-0.293 0.898-0.426 1.01-0.905-0.456 5e-3 -0.654-0.0944-0.691-0.298a1.42 1.42 0 0 1 0.388-1.33 16.1 16.1 0 0 0 3.17-0.077c0.166 0.747-0.203 1.26-0.503 2.02a6.14 6.14 0 0 0-0.398 1.65c-0.693 0.467-1.52 0.902-2.08 1.37l1.71 1.22 0.814-1.17 0.136-0.624 1.17 0.00871c0.103-0.354-0.0575-0.608-0.318-0.932a2.37 2.37 0 0 0 1.31-0.43c-0.311-0.129-0.684-0.244-0.247-0.534a1.72 1.72 0 0 0 1.13-0.167l-0.106-0.501a1.67 1.67 0 0 0 0.847-0.701c-1.31-0.507-0.611-1.06 0.241-1.14 0.301 1.28 1.33 2.08 2.16 3.12a24.1 24.1 0 0 0-1.87 2.17l2.65-0.0668 0.106-1.73a1.03 1.03 0 0 1 1.06-0.902c-0.0374-0.183-0.325-0.267-0.394-0.448-0.0625-0.164 0.0948-0.423 0.0412-0.621-0.378 0.0369-0.47-0.122-0.362-0.264 0.0897-0.118 0.345-0.204 0.433-0.337-1.57-0.431-1.04-1.35 0.267-1.82a2.19 2.19 0 0 1 0.55 1.66c0.913 0.554 2.19 0.822 2.27 2.67a10.9 10.9 0 0 0-1.52 1.93l2.37-0.507-0.0353-1.67c0.188-0.146 0.363-0.322 0.636-0.267a3.26 3.26 0 0 1-0.0353-0.468c0-0.163 0.34-0.288 0.318-0.501a0.625 0.625 0 0 1-0.565-0.2 1.63 1.63 0 0 0 0.6-0.802s-0.243 0.0154-0.515 0.0111a3.72 3.72 0 0 0-0.859-0.212c-0.382-0.597-0.686-0.938-0.428-1.45 1.73 0.867 4.11 1.09 6 1.48 0.488 1.61 1.78 2.83 2.68 4.24-0.651 0.712-1.84 1.68-1.95 2.13l2.75-0.433s0.0736-0.77 0.0736-1.31c0-0.573 0.808-0.399 0.774-0.657a2.47 2.47 0 0 1-0.609-0.55 0.465 0.465 0 0 1-0.538-0.213 8.65 8.65 0 0 1-0.473-1.32c0.285-0.349 0.568-0.404 0.555-0.772a0.711 0.711 0 0 1-0.6-0.534c-0.0458-0.325 0.366-0.329 0.536-0.518-0.255-0.147-0.447-0.298-0.781-0.176-0.209 0.0765-0.416-0.327-0.145-0.459 0.29-0.142 0.644-0.191 0.684-0.652a1.67 1.67 0 0 1-0.847-0.0668c-0.4-0.161-0.125-0.461-0.0706-0.719-0.293 0.208-1.24-0.337-1.96-0.817-0.584-2.4-1.97-4.84-3.38-5.51 2.12-2.22 1.02-5.22-1.87-5.22zm-0.0577 1.06a1.86 1.86 0 0 1 1.88 1.71 1.7 1.7 0 0 1-2.95 1.08 5.45 5.45 0 0 1-3.13 2.12 4.09 4.09 0 0 0 1.6-2.27c0.534-1.45 1.1-2.63 2.61-2.63z" fill-rule="evenodd" /><path d="m16.4 6.09-4.58 1.62a18.8 18.8 0 0 0-2.32-1.6 4.91 4.91 0 0 1 0.378 2.3 4.41 4.41 0 0 0-1.1 0.462 8.04 8.04 0 0 1-1.64 1.83 1.45 1.45 0 0 0 1.11 0.216 1.34 1.34 0 0 0-0.301 1 2.82 2.82 0 0 1 0.123 1.44c-0.113 0.336-0.378 0.59-0.416 0.807 0.729 0.123 0.95-0.388 1.38-0.569-0.659 1.2-0.231 1.98-0.67 2.97a2.83 2.83 0 0 0 1.86-2.16 2.69 2.69 0 0 1 0.111 0.97 0.773 0.773 0 0 0 0.486 0.828 3.32 3.32 0 0 1 1.28-1.85 6.16 6.16 0 0 1 1.47 0.558 2.62 2.62 0 0 0-0.129-1.55c0.656 0.891 1.87 1.16 2.42 0.409-0.481-0.0754-1.32-0.525-1.41-1.05a4.56 4.56 0 0 0-0.692-1.51l0.989 1.03 1.97 0.2 0.213-1.05-0.424 0.367-1.47-0.164-1.02-2.17 1.55-0.588a0.99 0.99 0 0 1 0.208 0.46 1.13 1.13 0 0 0 0.211-0.624l0.386-0.131a1.12 1.12 0 0 1 0.112 0.438 1.8 1.8 0 0 0 0.306-0.602l0.591-0.23-0.639-1.94c-0.0627-0.177-0.129-0.198-0.339-0.136zm-3.29 2.12a0.476 0.476 0 0 1 0.441 0.441c0.0436 0.242-0.121 0.438-0.441 0.438a0.439 0.439 0 0 1 0-0.878z" fill-rule="evenodd" /><path d="m15.3 10.3a3.8 3.8 0 0 1 2.62-0.836 1.62 1.62 0 0 1-0.278-0.787 2.77 2.77 0 0 0 0.867-0.0232 4.03 4.03 0 0 1 2.28-0.823c1.46 0 2.26 0.655 3.35 0.893a3.34 3.34 0 0 0 1.06-0.0532 1.15 1.15 0 0 1 0 0.62 3.72 3.72 0 0 0 1.35 0.0995 13.7 13.7 0 0 1 2.05-0.381 2.21 2.21 0 0 1 1.35 0.495 1.43 1.43 0 0 0-0.843 0.249 4.84 4.84 0 0 1-3.5 1.54 4.78 4.78 0 0 1-1.97-0.299 0.661 0.661 0 0 0-0.383 0.506 0.834 0.834 0 0 1-0.321-0.495 6.71 6.71 0 0 1-2.68 0.658 6.9 6.9 0 0 1-3.26-0.864 5.44 5.44 0 0 0-1.7-0.5z" fill="#ce1126" fill-rule="evenodd" /><line fill="#fe6d01" stroke="#000" stroke-miterlimit="10" x1="2.75" x2="47.2" y1="35" y2="35" /></svg>