<svg xmlns="http://www.w3.org/2000/svg" viewBox="0 0 50 50"><defs><linearGradient id="Frame"><stop offset="0" stop-color="#ffffff" /></linearGradient></defs><rect fill="#fff" height="44.5" rx="3" width="44.5" x="2.75" y="2.75" /><rect fill="none" height="44.5" rx="3" stroke="url(#Frame)" stroke-miterlimit="10" stroke-width="1.5" width="44.5" x="2.75" y="2.75" /><path d="m20.2 26.1h-2.43v-0.45h0.32v-3.61h-0.32v-0.451h1.31v0.451h-0.32v3.57h1.1v-0.49h0.346z" fill="#7f0301" /><path d="m22.2 26.2a1.35 1.35 0 0 1-1.18-0.633 3.05 3.05 0 0 1-0.43-1.73 3.05 3.05 0 0 1 0.43-1.73 1.41 1.41 0 0 1 2.35 0 3.04 3.04 0 0 1 0.431 1.73 3.04 3.04 0 0 1-0.431 1.73 1.35 1.35 0 0 1-1.18 0.633zm0-0.45q0.408 0 0.653-0.525a3.31 3.31 0 0 0 0.246-1.39 3.31 3.31 0 0 0-0.246-1.39q-0.245-0.524-0.653-0.523-0.405 0-0.651 0.523a3.31 3.31 0 0 0-0.246 1.39 3.31 3.31 0 0 0 0.246 1.39q0.246 0.523 0.651 0.523z" fill="#7f0301" /><path d="m26.5 26.1-1.59-3.2v2.7h0.32v0.45h-1.08v-0.45h0.32v-3.61h-0.32v-0.451h0.776l1.59 3.22v-2.77h-0.32v-0.451h1.08v0.451h-0.32v4.1z" fill="#7f0301" /><path d="m30.4 26a3.77 3.77 0 0 1-1.08 0.207 1.39 1.39 0 0 1-1.2-0.639 2.99 2.99 0 0 1-0.443-1.73 2.99 2.99 0 0 1 0.438-1.74 1.43 1.43 0 0 1 1.24-0.618 3.22 3.22 0 0 1 0.553 0.0469 2.96 2.96 0 0 1 0.53 0.145v0.957h-0.363l-0.0264-0.451a1.45 1.45 0 0 0-0.349-0.186 1.01 1.01 0 0 0-0.34-0.0606 0.786 0.786 0 0 0-0.711 0.513 3.18 3.18 0 0 0-0.259 1.41 2.83 2.83 0 0 0 0.287 1.39 0.875 0.875 0 0 0 0.788 0.508 0.605 0.605 0 0 0 0.276-0.0703v-1.17h-0.32v-0.45h1.23v0.45h-0.24z" fill="#7f0301" /><path d="m32 23.9v1.67h0.319v0.45h-1.31v-0.45h0.32v-3.61h-0.32v-0.451h1.31v0.451h-0.319v1.48h1.29v-1.48h-0.32v-0.451h1.31v0.451h-0.319v3.61h0.319v0.45h-1.31v-0.45h0.32v-1.67z" fill="#7f0301" /><path d="m36.3 26.2a1.35 1.35 0 0 1-1.18-0.633 3.05 3.05 0 0 1-0.431-1.73 3.04 3.04 0 0 1 0.431-1.73 1.41 1.41 0 0 1 2.35 0 3.04 3.04 0 0 1 0.431 1.73 3.05 3.05 0 0 1-0.431 1.73 1.35 1.35 0 0 1-1.18 0.633zm0-0.45q0.407 0 0.653-0.525a3.31 3.31 0 0 0 0.246-1.39 3.31 3.31 0 0 0-0.246-1.39q-0.246-0.524-0.653-0.523-0.406 0-0.651 0.523a3.31 3.31 0 0 0-0.246 1.39 3.31 3.31 0 0 0 0.246 1.39q0.246 0.523 0.651 0.523z" fill="#7f0301" /><path d="m39.2 24.1v1.47h0.269v0.45h-1.23v-0.45h0.32v-3.61h-0.32v-0.451h1.38a1.04 1.04 0 0 1 0.795 0.294 1.16 1.16 0 0 1 0.279 0.836 1.77 1.77 0 0 1-0.155 0.779 1.12 1.12 0 0 1-0.467 0.497l0.845 1.65h0.214v0.45h-0.821l-0.863-1.92zm0-0.432h0.112a0.639 0.639 0 0 0 0.547-0.242 1.2 1.2 0 0 0 0.182-0.726 0.825 0.825 0 0 0-0.156-0.548 0.587 0.587 0 0 0-0.471-0.183h-0.214z" fill="#7f0301" /><path d="m43.8 26.1-1.59-3.2v2.7h0.32v0.45h-1.08v-0.45h0.32v-3.61h-0.32v-0.451h0.776l1.59 3.22v-2.77h-0.319v-0.451h1.08v0.451h-0.319v4.1z" fill="#7f0301" /><path d="m18 28.1 0.0396 0.0176a0.0967 0.0967 0 0 0 0.0156 0.0547 0.272 0.272 0 0 0 0.107 0.0801 1.17 1.17 0 0 0 0.184 0.0693 1.83 1.83 0 0 0 0.217 0.0498 1.24 1.24 0 0 0 0.204 0.0186c0.0444 0 0.102-0.00293 0.172-0.00781a1.15 1.15 0 0 0 0.208-0.0361 0.625 0.625 0 0 0 0.176-0.0752 0.146 0.146 0 0 0 0.0742-0.126 0.122 0.122 0 0 0-0.0684-0.116 0.55 0.55 0 0 0-0.18-0.0547 2.25 2.25 0 0 0-0.254-0.0225c-0.0952-0.00293-0.192-0.00879-0.292-0.0156a2.83 2.83 0 0 1-0.292-0.0342 0.859 0.859 0 0 1-0.254-0.0801 0.476 0.476 0 0 1-0.18-0.153 0.429 0.429 0 0 1-0.0688-0.254 0.424 0.424 0 0 1 0.0571-0.209 0.527 0.527 0 0 1 0.174-0.181 1.01 1.01 0 0 1 0.297-0.128 1.6 1.6 0 0 1 0.423-0.0498 2.14 2.14 0 0 1 0.36 0.0273c0.102 0.0186 0.19 0.0381 0.264 0.0586 0.0747 0.0205 0.137 0.0391 0.188 0.0576a0.384 0.384 0 0 0 0.127 0.0274 0.118 0.118 0 0 0 0.0781-0.0205l0.0469 0.0273-0.27 0.427-0.0391-0.0137a0.172 0.172 0 0 0-0.0312-0.0781 0.328 0.328 0 0 0-0.104-0.081 1.03 1.03 0 0 0-0.17-0.0693 1.56 1.56 0 0 0-0.211-0.0498 1.37 1.37 0 0 0-0.227-0.0186 1.42 1.42 0 0 0-0.178 0.0117 0.951 0.951 0 0 0-0.166 0.0361 0.39 0.39 0 0 0-0.124 0.0625 0.122 0.122 0 0 0-0.0488 0.0976 0.134 0.134 0 0 0 0.0684 0.123 0.547 0.547 0 0 0 0.18 0.0615 1.98 1.98 0 0 0 0.254 0.0274c0.0952 0.00488 0.192 0.00976 0.292 0.0166a2.83 2.83 0 0 1 0.292 0.0361 0.921 0.921 0 0 1 0.254 0.082 0.474 0.474 0 0 1 0.18 0.152 0.415 0.415 0 0 1 0.0688 0.249 0.403 0.403 0 0 1-0.108 0.29 0.766 0.766 0 0 1-0.268 0.178 1.36 1.36 0 0 1-0.347 0.0869 2.97 2.97 0 0 1-0.347 0.0215 2.67 2.67 0 0 1-0.374-0.0215 1.58 1.58 0 0 1-0.25-0.0547 1.67 1.67 0 0 1-0.159-0.0586 0.268 0.268 0 0 0-0.102-0.0254 0.0686 0.0686 0 0 0-0.0508 0.0274l-0.0552-0.0274z" /><path d="M21.561,28.58008c0,.041.0288.06152.08593.06152v.06152h-.603V28.6416a.08026.08026,0,0,0,.04931-.01562.0524.0524,0,0,0,.02149-.0459v-1.3584h-.646a.157.157,0,0,0-.06885.0166.06718.06718,0,0,0-.0332.06543h-.07031V26.8252h.07031a.06717.06717,0,0,0,.0332.06542.1569.1569,0,0,0,.06885.01661H22.207a.15852.15852,0,0,0,.06885-.01661.06717.06717,0,0,0,.0332-.06542h.07031v.47851h-.07031a.06718.06718,0,0,0-.0332-.06543.15865.15865,0,0,0-.06885-.0166h-.646Z" /><path d="m24.8 27.3a0.0614 0.0614 0 0 0-0.0332-0.0566 0.25 0.25 0 0 0-0.115-0.0186h-1.27v0.423h0.768a0.311 0.311 0 0 0 0.122-0.0186c0.0283-0.0127 0.043-0.0449 0.043-0.0977h0.0703v0.533h-0.0703c0-0.0527-0.0146-0.0859-0.043-0.101a0.272 0.272 0 0 0-0.122-0.0225h-0.768v0.471h1.31a0.177 0.177 0 0 0 0.0957-0.0234 0.0738 0.0738 0 0 0 0.0371-0.0654h0.0708v0.468h-0.0708c0-0.0342-0.0122-0.0527-0.0371-0.0576a0.517 0.517 0 0 0-0.0957-0.00684h-1.82v-0.0615a0.0799 0.0799 0 0 0 0.0488-0.0156 0.0524 0.0524 0 0 0 0.0215-0.0459v-1.55a0.0524 0.0524 0 0 0-0.0215-0.0459 0.0798 0.0798 0 0 0-0.0488-0.0156v-0.0615h1.79a0.21 0.21 0 0 0 0.115-0.0225 0.068 0.068 0 0 0 0.0332-0.0596h0.0708v0.451z" /><path d="M25.23,28.6416a.12064.12064,0,0,0,.08057-.04394.70868.70868,0,0,0,.05664-.08594l.72461-1.32813c.01758-.02929.03418-.05664.04882-.082a.1388.1388,0,0,0,.02149-.06445.05.05,0,0,0-.02734-.04785.29722.29722,0,0,0-.0586-.02051v-.06152h.66211v.06152a.32746.32746,0,0,0-.05469.01855.04741.04741,0,0,0-.02734.04981.11357.11357,0,0,0,.01367.05469.462.462,0,0,0,.041.07129l.81445,1.38964a.1107.1107,0,0,0,.05273.05469.7245.7245,0,0,0,.07618.03418v.06152h-.68946V28.6416a.10291.10291,0,0,0,.03907-.00976.03361.03361,0,0,0,.02343-.03125.1896.1896,0,0,0-.03125-.08887l-.14843-.252h-.95557L25.751,28.502a.257.257,0,0,0-.03907.10254c0,.02442.02491.03711.07422.03711v.06152H25.23Zm1.477-.63476-.33008-.63477-.36718.63477Z" /><path d="M28.57812,28.58008a.05058.05058,0,0,0,.02344.0459.09456.09456,0,0,0,.05469.01562v.06152H28.0459V28.6416c.05664,0,.08594-.02051.08594-.06152V27.03027c0-.041-.0293-.06152-.08594-.06152v-.06152h.61035v.06152a.0945.0945,0,0,0-.05469.01563.05056.05056,0,0,0-.02344.04589v.64844l.81055-.55664c.03613-.02734.06543-.04883.08594-.06641.02148-.0166.03125-.03125.03125-.042a.03575.03575,0,0,0-.01758-.03418.0802.0802,0,0,0-.041-.01074v-.06152h.82226v.06152a.23857.23857,0,0,0-.14062.05176l-.90039.624.82226.83008a.90706.90706,0,0,0,.11914.10059.411.411,0,0,0,.13477.0664v.06152h-.72364V28.6416c.03321,0,.05079-.00781.05079-.02344,0-.01171-.01856-.03711-.05469-.07519l-.66992-.67285-.32911.22168Z" /><path d="M32.52441,27.03027c0-.041-.02832-.06152-.08593-.06152v-.06152H33.042v.06152a.07691.07691,0,0,0-.04883.01563.052.052,0,0,0-.02246.04589v1.54981a.052.052,0,0,0,.02246.0459.077.077,0,0,0,.04883.01562v.06152h-.60351V28.6416c.05761,0,.08593-.02051.08593-.06152v-.6416H31.26367v.6416a.05356.05356,0,0,0,.02149.0459.08083.08083,0,0,0,.04882.01562v.06152h-.59082V28.6416c.04981,0,.07422-.02051.07422-.06152V27.03027c0-.041-.02441-.06152-.07422-.06152v-.06152H31.334v.06152a.08077.08077,0,0,0-.04882.01563.05354.05354,0,0,0-.02149.04589v.58008h1.26074Z" /><path d="m34.9 26.9a1.76 1.76 0 0 1 0.438 0.0566 1.45 1.45 0 0 1 0.407 0.169 0.991 0.991 0 0 1 0.302 0.285 0.768 0.768 0 0 1 0 0.815 0.991 0.991 0 0 1-0.302 0.285 1.36 1.36 0 0 1-0.407 0.164 1.92 1.92 0 0 1-0.877 0 1.34 1.34 0 0 1-0.407-0.164 0.97 0.97 0 0 1-0.302-0.285 0.768 0.768 0 0 1 0-0.815 0.97 0.97 0 0 1 0.302-0.285 1.43 1.43 0 0 1 0.407-0.169 1.76 1.76 0 0 1 0.439-0.0566zm0 0.314a1.12 1.12 0 0 0-0.298 0.041 0.982 0.982 0 0 0-0.269 0.117 0.675 0.675 0 0 0-0.193 0.189 0.48 0.48 0 0 0 0 0.513 0.663 0.663 0 0 0 0.193 0.189 0.982 0.982 0 0 0 0.269 0.117 1.1 1.1 0 0 0 0.596 0 0.976 0.976 0 0 0 0.268-0.117 0.655 0.655 0 0 0 0.194-0.189 0.48 0.48 0 0 0 0-0.513 0.666 0.666 0 0 0-0.194-0.189 0.975 0.975 0 0 0-0.268-0.117 1.12 1.12 0 0 0-0.298-0.041z" /><path d="m37.4 27c-0.0576 0-0.0859 0.0205-0.0859 0.0615v1.02a0.3 0.3 0 0 0 0.158 0.295 1.39 1.39 0 0 0 0.929 0 0.3 0.3 0 0 0 0.158-0.295v-1.02q0-0.0615-0.117-0.0615v-0.0615h0.626v0.0615q-0.0938 0-0.0938 0.0615v1.01a0.74 0.74 0 0 1-0.0664 0.333 0.505 0.505 0 0 1-0.2 0.21 0.876 0.876 0 0 1-0.33 0.106 3.97 3.97 0 0 1-0.913 0 0.876 0.876 0 0 1-0.33-0.106 0.505 0.505 0 0 1-0.2-0.21 0.74 0.74 0 0 1-0.0664-0.333v-1.01c0-0.041-0.0371-0.0615-0.109-0.0615v-0.0615h0.642z" /><path d="m39.8 28.1 0.0391 0.0176a0.105 0.105 0 0 0 0.0156 0.0547 0.277 0.277 0 0 0 0.108 0.0801 1.13 1.13 0 0 0 0.184 0.0693 1.82 1.82 0 0 0 0.218 0.0498 1.23 1.23 0 0 0 0.203 0.0186c0.0449 0 0.102-0.00293 0.173-0.00781a1.13 1.13 0 0 0 0.207-0.0361 0.622 0.622 0 0 0 0.177-0.0752 0.147 0.147 0 0 0 0.0742-0.126 0.124 0.124 0 0 0-0.0684-0.116 0.557 0.557 0 0 0-0.181-0.0547 2.25 2.25 0 0 0-0.255-0.0225c-0.0947-0.00293-0.192-0.00879-0.291-0.0156a2.84 2.84 0 0 1-0.292-0.0342 0.867 0.867 0 0 1-0.255-0.0801 0.482 0.482 0 0 1-0.18-0.153 0.429 0.429 0 0 1-0.0684-0.254 0.423 0.423 0 0 1 0.0566-0.209 0.534 0.534 0 0 1 0.174-0.181 1.03 1.03 0 0 1 0.298-0.128 1.6 1.6 0 0 1 0.423-0.0498 2.13 2.13 0 0 1 0.36 0.0273c0.102 0.0186 0.189 0.0381 0.265 0.0586 0.0742 0.0205 0.137 0.0391 0.188 0.0576a0.386 0.386 0 0 0 0.127 0.0274 0.12 0.12 0 0 0 0.0791-0.0205l0.0469 0.0273-0.271 0.427-0.0391-0.0137a0.167 0.167 0 0 0-0.0313-0.0781 0.337 0.337 0 0 0-0.104-0.081 1.05 1.05 0 0 0-0.171-0.0693 1.59 1.59 0 0 0-0.211-0.0498 1.37 1.37 0 0 0-0.228-0.0186 1.39 1.39 0 0 0-0.178 0.0117 0.962 0.962 0 0 0-0.167 0.0361 0.382 0.382 0 0 0-0.123 0.0625 0.123 0.123 0 0 0-0.0488 0.0976 0.134 0.134 0 0 0 0.0684 0.123 0.544 0.544 0 0 0 0.18 0.0615 2 2 0 0 0 0.255 0.0274c0.0957 0.00488 0.192 0.00976 0.292 0.0166a2.87 2.87 0 0 1 0.292 0.0361 0.923 0.923 0 0 1 0.254 0.082 0.483 0.483 0 0 1 0.181 0.152 0.422 0.422 0 0 1 0.0684 0.249 0.405 0.405 0 0 1-0.107 0.29 0.777 0.777 0 0 1-0.269 0.178 1.36 1.36 0 0 1-0.347 0.0869 2.96 2.96 0 0 1-0.347 0.0215 2.67 2.67 0 0 1-0.374-0.0215 1.55 1.55 0 0 1-0.409-0.113 0.27 0.27 0 0 0-0.102-0.0254 0.0686 0.0686 0 0 0-0.0508 0.0274l-0.0547-0.0274z" /><path d="m44.2 27.3a0.0622 0.0622 0 0 0-0.0332-0.0566 0.256 0.256 0 0 0-0.116-0.0186h-1.27v0.423h0.768a0.309 0.309 0 0 0 0.121-0.0186c0.0293-0.0127 0.043-0.0449 0.043-0.0977h0.0713v0.533h-0.0713c0-0.0527-0.0137-0.0859-0.043-0.101a0.27 0.27 0 0 0-0.121-0.0225h-0.768v0.471h1.31a0.182 0.182 0 0 0 0.0967-0.0234 0.0748 0.0748 0 0 0 0.0371-0.0654h0.0703v0.468h-0.0703c0-0.0342-0.0127-0.0527-0.0371-0.0576a0.532 0.532 0 0 0-0.0967-0.00684h-1.82v-0.0615a0.0788 0.0788 0 0 0 0.0488-0.0156 0.0513 0.0513 0 0 0 0.0215-0.0459v-1.55a0.0512 0.0512 0 0 0-0.0215-0.0459 0.0788 0.0788 0 0 0-0.0488-0.0156v-0.0615h1.79a0.215 0.215 0 0 0 0.116-0.0225 0.0691 0.0691 0 0 0 0.0332-0.0596h0.0703v0.451z" /><path d="m12.1 22.4a1.71 1.71 0 0 1 1.03-0.97 8.06 8.06 0 0 1 2.64-0.212c0.212 0-0.234-0.55-1.36-0.519a3.31 3.31 0 0 0-1.98 0.395c-0.184 0.149-0.398 0.549-0.489 0.609s0-0.546-0.394-0.516-1.58 0.602-2.37 0.698a7.06 7.06 0 0 1-2 0.0606c-0.468-0.0773-0.773-0.281-0.485-0.758a6.52 6.52 0 0 1 0.583-0.805s0.0636-0.302-0.3 0.0316a20.5 20.5 0 0 0-1.83 2.09c-0.091 0.212-0.537 1.04 0.648 1.38a10.6 10.6 0 0 0 5.79-0.656c0.189-0.134-1.52 0.187-2.75 0.23a13.3 13.3 0 0 1-2.01-0.139c-0.329-0.0827-0.817-0.119-0.756-0.604a0.45 0.45 0 0 1 0.665-0.396 5.72 5.72 0 0 0 2.06 0.152c0.424-0.035 1.46-0.243 1.61-0.273s0.773-0.207 0.97 0c0 0 0.212 0.328 0.417 0.36a0.318 0.318 0 0 0 0.31-0.147z" /><path d="m16.6 20.5s-0.316 0.348-0.379 0.0632 0.648-0.759 0.806-0.869 0.869-0.427 1.36-0.664 1.47-0.616 1.87-0.869a4.33 4.33 0 0 0 1.25-1.12 2.1 2.1 0 0 0 0.079-1.44c-0.0632-0.3 0.373 0.185 0.537 0.68a5.99 5.99 0 0 1 0.221 2.31c-0.0902 0.58-0.411 0.411-0.395 0.174s-0.111-0.933-0.111-1.01-0.0948 0.0474-0.19 0.142a8.18 8.18 0 0 1-1.26 1.01 13.3 13.3 0 0 1-2.13 0.901 5.57 5.57 0 0 0-1.03 0.332 4.68 4.68 0 0 0-0.616 0.364z" /><path d="m12.9 23.1s-0.0316-0.522-0.443-0.411a0.618 0.618 0 0 0-0.443 0.601c0 0.079 0.174 0.743 0.174 0.854a1.87 1.87 0 0 0 0.079 0.364 2.87 2.87 0 0 0 0.3 0.395 2.91 2.91 0 0 1 0.759 0.838c0.19 0.395 0.885 1.72 0.964 1.85s0.411 0.68 0.869 0.743 1.12-0.822 1.22-1.01a2.5 2.5 0 0 0 0.269-1.11 3.79 3.79 0 0 0-0.174-0.948c0.0158-0.158 0-0.869 0-0.917a3.09 3.09 0 0 0 0.237-1.12c0.0158-0.696-0.111-1.56-0.348-1.64s0 0.411 0 0.49a1.79 1.79 0 0 1-0.079 1.04 1.64 1.64 0 0 0-0.174 0.869 2.64 2.64 0 0 1-0.079 1.07 1.95 1.95 0 0 0-0.253 0.79c0 0.142 0.0316 0.917 0.0316 0.98s-0.0948 0.648-0.553 0.648-0.585-0.364-0.759-0.68a6.52 6.52 0 0 1-0.474-1.25 3.25 3.25 0 0 0-0.332-0.948 2.52 2.52 0 0 0-0.427-0.49c-0.0632-0.0632-0.253-0.158-0.269-0.332s-0.0948-0.68-0.0948-0.68z" /></svg>