<svg xmlns="http://www.w3.org/2000/svg" id="Icon" viewBox="0 0 50 50"><defs><linearGradient id="Background"><stop offset="0" stop-color="#dd9a2f" /></linearGradient><linearGradient id="Frame"><stop offset="0" stop-color="#dd9a2f" /></linearGradient> <linearGradient id="Pictogram"><stop offset="0" stop-color="#ffffff" /></linearGradient></defs><title>d0_t29_2s0</title><g id="Rahmen"><rect fill="url(#Background)" height="44.5" rx="3" width="44.5" x="2.75" y="2.75" /><rect fill="none" height="44.5" rx="3" stroke="url(#Frame)" stroke-miterlimit="10" stroke-width="1.5" width="44.5" x="2.75" y="2.75" /></g><line fill="none" stroke="url(#Pictogram)" stroke-miterlimit="10" stroke-width="1.5" x1="10" x2="36" y1="37.5" y2="37.5" /><path d="M29.52055,18.64131a5.57047,5.57047,0,0,1,1.89561-4.125,5.57047,5.57047,0,0,0,1.89561-4.125" fill="none" stroke="url(#Pictogram)" stroke-miterlimit="10" stroke-width="1.5" /><path d="M23.48905,18.64131a5.57047,5.57047,0,0,1,1.89561-4.125,5.57047,5.57047,0,0,0,1.89561-4.125" fill="none" stroke="url(#Pictogram)" stroke-miterlimit="10" stroke-width="1.5" /><path d="M17.28523,18.64131a5.57047,5.57047,0,0,1,1.89561-4.125,5.57047,5.57047,0,0,0,1.89561-4.125" fill="none" stroke="url(#Pictogram)" stroke-miterlimit="10" stroke-width="1.5" /><path d="M32.14056,21.82018V27.8c0,3.75874-3.417,5.63811-4.44214,5.97981h-9.226c-1.02511-.3417-4.44215-2.22107-4.44215-5.97981V21.82018H32.14056M34.01993,19.77H11.98007V27.8c0,5.809,5.9798,8.03,5.9798,8.03H28.04013s5.9798-2.22107,5.9798-8.03V19.77Z" fill="url(#Pictogram)" /><path d="M33.98292,22.87533s.9987.00463,2.22107,0c2.68228-.01017,4.44214-.85426,5.2964.68341,2.39192,4.78384-7.68833,8.88429-8.71344,9.226l-3.24618,1.196" fill="none" stroke="url(#Pictogram)" stroke-miterlimit="10" stroke-width="1.5" /></svg>