<svg xmlns="http://www.w3.org/2000/svg" viewBox="0 0 50 50"><defs><linearGradient id="Background"><stop offset="0" stop-color="#757575" /></linearGradient><linearGradient id="Frame"><stop offset="0" stop-color="#757575" /></linearGradient><linearGradient id="Pictogram"><stop offset="0" stop-color="#ffffff" /></linearGradient></defs><rect fill="url(#Background)" height="44.5" rx="3" width="44.5" x="2.75" y="2.75" /><rect fill="none" height="44.5" rx="3" stroke="url(#Frame)" stroke-miterlimit="10" stroke-width="1.5" width="44.5" x="2.75" y="2.75" /><polygon fill="none" points="41.5 37.4 8.5 37.4 8.5 22.4 11.9 22.4 41.5 22.4" stroke="url(#Pictogram)" stroke-miterlimit="10" stroke-width="1.5" /><rect fill="url(#Pictogram)" height="3.5" width="2.2" x="23.9" y="25.2" /><rect fill="url(#Pictogram)" height="3.5" width="2.2" x="23.9" y="31.2" /><rect fill="url(#Pictogram)" height="3.5" width="2.2" x="18.1" y="25.2" /><rect fill="url(#Pictogram)" height="3.5" width="2.2" x="18.1" y="31.2" /><rect fill="url(#Pictogram)" height="3.5" width="2.2" x="12.3" y="25.2" /><rect fill="url(#Pictogram)" height="3.5" width="2.2" x="12.3" y="31.2" /><rect fill="url(#Pictogram)" height="3.5" width="2.2" x="35.5" y="25.2" /><rect fill="url(#Pictogram)" height="3.5" width="2.2" x="35.5" y="31.2" /><rect fill="url(#Pictogram)" height="3.5" width="2.2" x="29.7" y="25.2" /><rect fill="url(#Pictogram)" height="3.5" width="2.2" x="29.7" y="31.2" /><polyline fill="none" points="11.5 23.1 11.5 20 38.5 20.1 38.5 23.1" stroke="url(#Pictogram)" stroke-miterlimit="10" stroke-width="1.5" /><path d="m35 20.5a10 10 0 0 0-20 0" fill="none" stroke="url(#Pictogram)" stroke-miterlimit="10" stroke-width="1.5" /><path d="m31.5 20.5c0-5.52-2.91-10-6.5-10s-6.5 4.48-6.5 10" fill="none" stroke="url(#Pictogram)" stroke-miterlimit="10" stroke-width="1.5" /><path d="m28 20.5c0-5.52-1.34-10-3-10s-3 4.48-3 10" fill="none" stroke="url(#Pictogram)" stroke-miterlimit="10" stroke-width="1.5" /><line fill="none" stroke="url(#Pictogram)" stroke-miterlimit="10" stroke-width="1.5" x1="25" x2="25" y1="19.8" y2="10.5" /><line fill="none" stroke="url(#Pictogram)" stroke-miterlimit="10" stroke-width="1.5" x1="15.7" x2="34.3" y1="17.5" y2="17.5" /><line fill="none" stroke="url(#Pictogram)" stroke-miterlimit="10" stroke-width="1.5" x1="17" x2="33" y1="14.5" y2="14.5" /></svg>