<svg xmlns="http://www.w3.org/2000/svg" viewBox="0 0 50 50"><defs><linearGradient id="Background"><stop offset="0" stop-color="#5eb7a8" /></linearGradient><linearGradient id="Frame"><stop offset="0" stop-color="#5eb7a8" /></linearGradient><linearGradient id="Pictogram"><stop offset="0" stop-color="#ffffff" /></linearGradient></defs><rect fill="url(#Background)" height="44.5" rx="3" width="44.5" x="2.75" y="2.75" /><rect fill="none" height="44.5" rx="3" stroke="url(#Frame)" stroke-miterlimit="10" stroke-width="1.5" width="44.5" x="2.75" y="2.75" /><line fill="none" stroke="url(#Pictogram)" stroke-miterlimit="10" stroke-width="1.5" x1="29.1" x2="29.1" y1="41" y2="8.98" /><line fill="none" stroke="url(#Pictogram)" stroke-miterlimit="10" stroke-width="1.5" x1="40.9" x2="40.9" y1="21.4" y2="11.4" /><path d="m29.5 9.73a10.1 10.1 0 0 1 5.16 1.42c2 1.18 5.93 0.965 5.93 0.965" fill="none" stroke="url(#Pictogram)" stroke-miterlimit="10" stroke-width="1.5" /><path d="m29.5 18.2a10.1 10.1 0 0 1 5.16 1.42c2 1.18 5.93 0.965 5.93 0.965" fill="none" stroke="url(#Pictogram)" stroke-miterlimit="10" stroke-width="1.5" /><line fill="none" stroke="url(#Pictogram)" stroke-miterlimit="10" stroke-width="1.5" x1="9.13" x2="9.12" y1="41" y2="8.98" /><line fill="none" stroke="url(#Pictogram)" stroke-miterlimit="10" stroke-width="1.5" x1="20.9" x2="20.9" y1="21.4" y2="11.4" /><path d="m9.54 9.73a10.1 10.1 0 0 1 5.16 1.42c2 1.18 5.93 0.965 5.93 0.965" fill="none" stroke="url(#Pictogram)" stroke-miterlimit="10" stroke-width="1.5" /><path d="m9.54 18.2a10.1 10.1 0 0 1 5.16 1.42c2 1.18 5.93 0.965 5.93 0.965" fill="none" stroke="url(#Pictogram)" stroke-miterlimit="10" stroke-width="1.5" /><rect fill="url(#Background)" height="10" width="7" x="15.6" y="17" /><rect fill="url(#Background)" height="14" width="7" x="27.4" y="17.4" /><path d="m29.8 23.1a14.1 14.1 0 0 1-6.65-1.4 7.25 7.25 0 0 0-3.51-1l-0.296-5.99a13.1 13.1 0 0 1 6.86 1.83 10.5 10.5 0 0 0 4.24 0.553l0.332 5.99c-0.179 0.00975-0.521 0.0244-0.976 0.0244z" fill="url(#Background)" /><path d="m29.8 32.1c-1.65 0-4.74-0.19-6.91-1.47a6.69 6.69 0 0 0-3.24-0.933l-0.338-6.99a13.5 13.5 0 0 1 7.14 1.9 9.93 9.93 0 0 0 3.96 0.484l0.38 6.99c-0.182 0.00975-0.53 0.0244-0.992 0.0244z" fill="url(#Background)" /><line fill="none" stroke="url(#Pictogram)" stroke-miterlimit="10" stroke-width="1.5" x1="19.1" x2="19.1" y1="41" y2="17" /><line fill="none" stroke="url(#Pictogram)" stroke-miterlimit="10" stroke-width="1.5" x1="30.9" x2="30.9" y1="29.4" y2="19.4" /><path d="m19.5 17.7a10.1 10.1 0 0 1 5.16 1.42c2 1.18 5.93 0.965 5.93 0.965" fill="none" stroke="url(#Pictogram)" stroke-miterlimit="10" stroke-width="1.5" /><path d="m19.5 26.2a10.1 10.1 0 0 1 5.16 1.42c2 1.18 5.93 0.965 5.93 0.965" fill="none" stroke="url(#Pictogram)" stroke-miterlimit="10" stroke-width="1.5" /></svg>