<svg xmlns="http://www.w3.org/2000/svg" viewBox="0 0 50 50"><defs><linearGradient id="Frame"><stop offset="0" stop-color="#ffffff" /></linearGradient></defs><defs><linearGradient gradientTransform="matrix(-.00287 -.833 -.827 .00285 -5.28 -462)" gradientUnits="userSpaceOnUse" id="Unbenannter_Verlauf_5" x1="-610" x2="-575" y1="-34.5" y2="-34.5"><stop offset="0" stop-color="#99a2a7" /><stop offset=".476" stop-color="#98a3a8" /><stop offset=".535" stop-color="#e6e6e6" /><stop offset="1" stop-color="#e6e6e6" /></linearGradient><linearGradient gradientTransform="translate(73 -637) scale(1.3 1.3)" gradientUnits="userSpaceOnUse" id="Unbenannter_Verlauf_2" x1="-43.9" x2="-29.1" y1="520" y2="507"><stop offset="0" stop-color="#151313" /><stop offset=".085" stop-color="#151313" /><stop offset=".128" stop-color="#f8f1f1" /><stop offset=".229" stop-color="#151313" /><stop offset=".304" stop-color="#141414" /><stop offset=".382" stop-color="#f8f1f1" /><stop offset=".45" stop-color="#151313" /><stop offset=".566" stop-color="#f8f1f4" /><stop offset=".627" stop-color="#141414" /><stop offset=".787" stop-color="#f8f1f1" /><stop offset="1" stop-color="#f8f1f2" /></linearGradient><linearGradient gradientTransform="matrix(.996 -.146 -.146 -.996 14.3 22.8)" gradientUnits="userSpaceOnUse" id="Unbenannter_Verlauf_3" x1="10.5" x2="11.9" y1="-11.8" y2="-14.4"><stop offset="0" stop-color="#151313" /><stop offset=".163" stop-color="#ccc4c4" /><stop offset=".496" stop-color="#b7acad" /><stop offset="1" stop-color="#151313" /></linearGradient><linearGradient gradientTransform="matrix(-.919 -.41 .41 -.919 -310 -22)" gradientUnits="userSpaceOnUse" id="Unbenannter_Verlauf_4" x1="-328" x2="-326" y1="86.5" y2="84.4"><stop offset="0" stop-color="#151313" /><stop offset=".25" stop-color="#ccc4c4" /><stop offset=".5" stop-color="#b7acad" /><stop offset="1" stop-color="#151313" /></linearGradient></defs><rect fill="#fff" height="44.5" rx="3" width="44.5" x="2.75" y="2.75" /><rect fill="none" height="44.5" rx="3" stroke="url(#Frame)" stroke-miterlimit="10" stroke-width="1.5" width="44.5" x="2.75" y="2.75" /><path d="m9.91 5.12 0.614 0.701a0.139 0.139 0 0 0 0.121 0.0541h1.29a0.139 0.139 0 0 0 0.121-0.0541l0.614-0.701c0.0537-0.0613 0.0337-0.122-0.054-0.122h-0.869a0.145 0.145 0 0 0-0.122 0.0604l-0.263 0.378h-0.142l-0.263-0.378a0.148 0.148 0 0 0-0.128-0.0604h-0.863c-0.0885 0-0.107 0.0604-0.0543 0.122m11.4 3.52v0.0676c0 2.35 0.386 2.5 3.21 2.5 2.83 0 3.21-0.142 3.21-2.5v-0.0604c0-2.35-0.384-2.5-3.21-2.5-2.82 0-3.21 0.142-3.21 2.5m-0.286 2.34-2.68-2.62 2.52-1.99c0.0747-0.0538 0.0469-0.121-0.0474-0.121h-1.65a0.174 0.174 0 0 0-0.121 0.047l-2.58 2.06v-2a0.0896 0.0896 0 0 0-0.101-0.101h-1.25a0.0899 0.0899 0 0 0-0.102 0.101v4.65a0.0896 0.0896 0 0 0 0.102 0.101h1.25a0.0892 0.0892 0 0 0 0.101-0.101v-1.17l0.762-0.601 1.85 1.82a0.161 0.161 0 0 0 0.128 0.0536h1.77c0.0877 0 0.115-0.0604 0.0478-0.121m10.4-4.73h-2.69a0.0902 0.0902 0 0 0-0.102 0.101v4.65a0.0899 0.0899 0 0 0 0.102 0.101h2.69c2.88 0 3.26-0.142 3.26-2.41v-0.0401c0-2.27-0.377-2.41-3.26-2.41m10.4 4.73-2.33-4.66a0.11 0.11 0 0 0-0.115-0.0744h-2.06a0.11 0.11 0 0 0-0.115 0.0744l-2.33 4.66c-0.0342 0.0743-0.00627 0.121 0.0735 0.121h1.34a0.109 0.109 0 0 0 0.114-0.0744l0.351-0.688h3.18l0.35 0.688a0.11 0.11 0 0 0 0.115 0.0744h1.34c0.0811 0 0.108-0.0469 0.0744-0.121m-15.7-2.34v0.0676c0 1.36-0.0538 1.38-1.65 1.38s-1.65-0.0201-1.65-1.38v-0.0676c0-1.36 0.0543-1.38 1.65-1.38s1.65 0.0201 1.65 1.38m7 0v0.0676c0 1.25-0.102 1.29-1.72 1.29h-1.34v-2.64h1.34c1.62 0 1.72 0.0408 1.72 1.29m6.3 0.681h-2.16l0.992-1.96h0.175zm-31.1 1.79c0.715 0.0329 1.88 0.0665 2.55 0.0665 2.94 0 3.29-0.0061 3.29-1.6 0-1.26-0.37-1.36-1.93-1.41l-1.81-0.0543c-0.829-0.0273-0.843-0.114-0.843-0.485 0-0.384 0.101-0.384 2.09-0.384 0.377 0 1.58 0.0201 2.21 0.0336a0.0897 0.0897 0 0 0 0.101-0.101v-0.823a0.096 0.096 0 0 0-0.0951-0.107c-0.627-0.0345-1.65-0.0681-2.39-0.0681-2.89 0-3.35 0.0543-3.35 1.54 0 1.27 0.283 1.44 2.13 1.5l1.66 0.0536c0.776 0.0268 0.79 0.121 0.79 0.411 0 0.398-0.034 0.418-1.87 0.418-0.856 0-1.74-0.0336-2.54-0.0608-0.0674-0.00675-0.101 0.0273-0.101 0.0944v0.863a0.0965 0.0965 0 0 0 0.0944 0.108" fill="#141414" /><path d="m25 16.1a14.5 14.5 0 1 1-14.4 14.5 14.5 14.5 0 0 1 14.4-14.5z" fill="url(#Unbenannter_Verlauf_5)" stroke="#141414" stroke-linecap="square" stroke-width=".123" /><path d="m25 43.5a13 13 0 1 1 9.18-3.8 12.9 12.9 0 0 1-9.18 3.8" fill="#141414" /><path d="m25 42.5a11.9 11.9 0 1 1 8.44-3.49 11.9 11.9 0 0 1-8.44 3.49" fill="#fff" /><path d="m34.1 36.3a6.08 6.08 0 0 0-3.21-1.57 0.285 0.285 0 0 0-0.329 0.282v0.44a0.271 0.271 0 0 1-0.231 0.279c-0.0951 0-0.19 0.00259-0.286 0-0.338-0.00528-0.399-0.42-0.331-0.665a19.2 19.2 0 0 0 0.888-5.29 11.6 11.6 0 0 0-0.586-4.02 10.7 10.7 0 0 0-3.55-5.35 0.906 0.906 0 0 0-0.58-0.248c-0.25-0.0174-0.454-0.0262-0.709-0.0262a10.5 10.5 0 0 0-3.04 0.444c-0.36 0.109-0.306 0.359-0.108 0.53a14.6 14.6 0 0 1 3.16 3.6 1.74 1.74 0 0 1-1.37-0.611 17.2 17.2 0 0 0-3.44-2.51 0.492 0.492 0 0 0-0.514-0.0389 9.63 9.63 0 0 0-2.7 2.24c-0.148 0.171-0.052 0.305 0.0924 0.381a19.8 19.8 0 0 1 3.8 2.7c-0.278 0.234-0.718 0.157-1.36-0.177a15.3 15.3 0 0 0-3.31-1.25 0.433 0.433 0 0 0-0.498 0.177 10 10 0 0 0-1.16 3.41 0.422 0.422 0 0 0 0.356 0.48c2.1 0.367 5.84 1.35 6.46 5.66a0.488 0.488 0 0 1-0.741 0.496q-0.946-0.443-1.89-0.886a0.53 0.53 0 0 0-0.214-0.0567h-2.97a0.414 0.414 0 0 0-0.322 0.719 18.5 18.5 0 0 1 1.93 2.65 0.208 0.208 0 0 0 0.203 0.116h1.3a0.45 0.45 0 0 0 0.24-0.0656q0.611-0.359 1.22-0.716a0.432 0.432 0 0 1 0.24-0.0442h9.78a0.22 0.22 0 0 1 0.237 0.216v0.481a0.285 0.285 0 0 0 0.329 0.281 6.09 6.09 0 0 0 3.21-1.57 0.331 0.331 0 0 0 0-0.484" fill="url(#Unbenannter_Verlauf_2)" stroke="#141414" stroke-miterlimit="2.83" stroke-width=".102" /><path d="m26.8 34.9a1.74 1.74 0 1 1 1.74-1.74 1.74 1.74 0 0 1-1.74 1.74zm6.4 1.65a4.97 4.97 0 0 0-2.21-1.06c-0.0766-0.0157-0.114 0.0137-0.114 0.0925v0.0425a0.481 0.481 0 0 1-0.417 0.45h-0.55a0.731 0.731 0 0 1-0.707-0.996c1.99-7.09-0.233-11.5-3.04-13.9-0.762-0.665-0.83-0.702-1.59-0.673a10 10 0 0 0-1.89 0.24c-0.117 0.0284-0.214 0.121-0.0598 0.25a13.2 13.2 0 0 1 4.28 6.56c0.0316 0.113-0.0352 0.105-0.121 0.11a1.44 1.44 0 0 1-1.36-0.776 19.9 19.9 0 0 0-5.53-4.67c-0.156-0.0934-0.181-0.0918-0.3-0.0224a8.81 8.81 0 0 0-1.84 1.47c-0.104 0.112-0.0777 0.164 0.0372 0.226a18.4 18.4 0 0 1 5.58 4.8c0.125 0.157 0.133 0.23 0.0625 0.271a1.7 1.7 0 0 1-1.73-0.213 22.3 22.3 0 0 0-5.37-2.47c-0.162-0.0472-0.19-0.0378-0.256 0.101a10.9 10.9 0 0 0-0.919 2.67c-0.0184 0.115-0.0284 0.123 0.0777 0.145 4.18 0.849 6.47 3.14 6.73 6.21a0.894 0.894 0 0 1-1.15 0.855c-0.65-0.206-1.28-0.438-1.93-0.644a0.671 0.671 0 0 0-0.214-0.0331q-1.35-8.1e-4 -2.7-1e-3c-0.12 0-0.19 0.0752-0.071 0.226a18 18 0 0 1 1.55 2.15 0.207 0.207 0 0 0 0.204 0.116q0.495 0 0.992-5.4e-4a0.673 0.673 0 0 0 0.358-0.0976c0.36-0.211 0.718-0.407 1.08-0.618a0.638 0.638 0 0 1 0.345-0.108c3.26-1e-3 6.76 0 10-5.4e-4a0.489 0.489 0 0 1 0.423 0.453v0.0721c0 0.0787 0.0372 0.108 0.114 0.0929a5.07 5.07 0 0 0 2.21-1.12c0.0598-0.0494 0.0598-0.0967 0-0.147" fill="#42bd3b" /><path d="m28.6 32.9a1.97 1.97 0 1 1-2.23-1.66 1.96 1.96 0 0 1 2.23 1.66" fill="url(#Unbenannter_Verlauf_3)" /><path d="m27 31.3-0.591 3.89a1.97 1.97 0 0 0 0.591-3.89z" fill="url(#Unbenannter_Verlauf_4)" /><path d="m28.3 33.2a1.32 1.32 0 1 1-1.32-1.32 1.32 1.32 0 0 1 1.32 1.32" fill="#fff" stroke="#141414" stroke-miterlimit="2.83" stroke-width=".102" /></svg>