<svg xmlns="http://www.w3.org/2000/svg" viewBox="0 0 50 50"><defs><linearGradient><stop offset="0" /></linearGradient><linearGradient id="Frame"><stop offset="0" stop-color="#ffffff" /></linearGradient><linearGradient><stop offset="0" stop-color="#fff" /></linearGradient></defs><rect fill="#fff" height="44.5" rx="3" width="44.5" x="2.75" y="2.75" /><rect fill="none" height="44.5" rx="3" stroke="url(#Frame)" stroke-miterlimit="10" stroke-width="1.5" width="44.5" x="2.75" y="2.75" /><path d="m21.6 25.3c-0.137 0.182-0.338 0.42-0.612 0.749-0.256 0.329-0.539 0.657-0.84 1.02a1.8 1.8 0 0 0-0.457 0.803 0.754 0.754 0 0 0 0.109 0.438 0.977 0.977 0 0 0 0.447 0.283 4.7 4.7 0 0 0 0.73 0.201 3.05 3.05 0 0 0 0.895 0.0736c0.329-0.0199 0.657-0.0265 0.977-0.0736 0.319-0.0265 0.602-0.0464 0.849-0.0663a2.02 2.02 0 0 0 0.393-0.0265 0.925 0.925 0 0 1 0.365-0.053c0.219-0.0199 0.338-0.0265 0.356-0.0663 0.00661-0.0398 0.0914-0.0464 0.265-0.0398a0.686 0.686 0 0 0 0.402-0.053 0.874 0.874 0 0 1 0.411-0.109 3.2 3.2 0 0 0 0.758-0.21 1.62 1.62 0 0 0 0.594-0.265 0.277 0.277 0 0 1 0.219-0.1 4.57 4.57 0 0 0 0.794-0.219 2.88 2.88 0 0 0 0.74-0.311 0.15 0.15 0 0 1 0.174-0.0736 0.335 0.335 0 0 0 0.256-0.0914 0.315 0.315 0 0 1 0.256-0.1 0.12 0.12 0 0 0 0.146-0.0464c0.0199-0.0398 0.0729-0.053 0.155-0.0398a0.847 0.847 0 0 0 0.447-0.119 2.38 2.38 0 0 1 0.52-0.156 1.1 1.1 0 0 0 0.393-0.128 2.76 2.76 0 0 1 0.42-0.156c0.137-0.0265 0.374-0.0736 0.694-0.136 0.329-0.0663 0.575-0.109 0.776-0.146 0.201-0.0464 0.311-0.0822 0.329-0.119 0.0199-0.0398-0.246-0.0663-0.794-0.0736-0.539-0.0199-0.995-0.0199-1.34-0.0199a10.2 10.2 0 0 0-1.1 0.0199c-0.393 0.0265-0.804 0.053-1.22 0.1-0.438 0.0464-0.84 0.1-1.23 0.165-0.402 0.0736-0.785 0.128-1.17 0.192-0.374 0.0663-0.557 0.111-0.529 0.146 0.0265 0.0265-0.0199 0.0398-0.119 0.0398a3.19 3.19 0 0 0-0.557 0.1c-0.256 0.0662-0.539 0.146-0.84 0.219a1.34 1.34 0 0 1-0.512 0.0822c-0.0464-0.0265-0.0464-0.0663-0.0199-0.111 0.0332-0.0464 0.119-0.154 0.246-0.319a5.58 5.58 0 0 0 0.484-0.685 6.95 6.95 0 0 0 0.529-0.922c0.164-0.338 0.274-0.575 0.319-0.685 0.0464-0.119 0.128-0.347 0.228-0.676a3.29 3.29 0 0 1 0.429-0.922c0.174-0.283 0.301-0.484 0.374-0.594a0.232 0.232 0 0 0-0.0464-0.319c-0.101-0.0908-0.182-0.165-0.274-0.246a0.841 0.841 0 0 0-0.402-0.1 0.388 0.388 0 0 0-0.384 0.182 0.642 0.642 0 0 1-0.21 0.228c-0.0663 0.0199-0.0822-0.0199-0.053-0.111 0.0199-0.0914 0-0.136-0.0729-0.1a0.902 0.902 0 0 0-0.283 0.165 1.41 1.41 0 0 0-0.292 0.319c-0.0822 0.119-0.155 0.156-0.219 0.0914-0.053-0.0464-0.137-0.0199-0.237 0.109a2.32 2.32 0 0 1-0.319 0.347 7.73 7.73 0 0 0-0.548 0.603c-0.237 0.301-0.566 0.676-0.968 1.15-0.411 0.466-0.685 0.785-0.831 0.95m1.14-10.5h1.3c0.676 0 1.21-0.0199 1.6-0.0464a10.9 10.9 0 0 1 1.1-0.053h0.867a2.12 2.12 0 0 0 0.493-0.0464 2.02 2.02 0 0 0 0.301-0.128 0.263 0.263 0 0 0 0.174-0.201c0-0.0822 0-0.136-0.0331-0.174a0.625 0.625 0 0 0-0.21-0.174 1.02 1.02 0 0 0-0.311-0.191 2.14 2.14 0 0 0-0.594-0.109c-0.292-0.0265-0.721-0.0736-1.28-0.146-0.557-0.0663-1.05-0.109-1.48-0.156-0.429-0.0464-0.785-0.0736-1.09-0.119a4.15 4.15 0 0 0-0.685-0.0464 0.819 0.819 0 0 1-0.356-0.0398 0.744 0.744 0 0 0-0.329-0.053 1.61 1.61 0 0 0-0.594 0.182 6 6 0 0 0-0.703 0.402 1.24 1.24 0 0 0-0.438 0.52 3.05 3.05 0 0 0-0.191 0.621 1.96 1.96 0 0 1-0.119 0.474 0.439 0.439 0 0 0-0.0464 0.311c0.0199 0.128 0.0663 0.329 0.128 0.603 0.0729 0.265 0.146 0.502 0.201 0.712a0.924 0.924 0 0 0 0.246 0.457c0.101 0.0822 0.374 0.301 0.831 0.621a13 13 0 0 0 1.8 1.06c0.749 0.402 1.39 0.739 1.92 1.05 0.512 0.301 1.05 0.63 1.61 0.968 0.548 0.338 1 0.621 1.35 0.858a7.07 7.07 0 0 0 0.758 0.447 1.58 1.58 0 0 1 0.411 0.311 0.801 0.801 0 0 0 0.457 0.256c0.174 0.0398 0.246 0.0265 0.246-0.0199s0.053-0.0265 0.174 0.0736c0.11 0.1 0.183 0.1 0.21 0 0.0464-0.0822 0.0822-0.1 0.119-0.0663 0.053 0.0464 0.128 0.053 0.246 0.0199a0.58 0.58 0 0 1 0.384 0.0464 0.833 0.833 0 0 1 0.311 0.265 0.593 0.593 0 0 0 0.283 0.21 1.38 1.38 0 0 1 0.557 0.466c0.237 0.274 0.393 0.365 0.466 0.292a0.141 0.141 0 0 0-0.0199-0.219 0.858 0.858 0 0 1-0.155-0.347 1.02 1.02 0 0 0-0.201-0.411c-0.0914-0.119-0.201-0.256-0.311-0.42-0.119-0.165-0.292-0.384-0.539-0.685-0.256-0.283-0.502-0.575-0.758-0.895a12.1 12.1 0 0 0-0.995-1.06c-0.42-0.402-0.813-0.74-1.18-1.03-0.365-0.274-0.703-0.529-1.03-0.749-0.329-0.21-0.685-0.42-1.07-0.639-0.384-0.21-0.785-0.429-1.23-0.648-0.438-0.219-0.886-0.475-1.33-0.74-0.457-0.274-0.831-0.493-1.13-0.667-0.292-0.183-0.52-0.329-0.676-0.438a0.814 0.814 0 0 1-0.274-0.292c-0.0265-0.0736 0.053-0.128 0.246-0.165a2.33 2.33 0 0 1 0.575-0.0663m18.2 2.92c-0.21-0.0199-0.566-0.0663-1.05-0.154-0.502-0.0822-0.977-0.183-1.44-0.292a6.58 6.58 0 0 1-0.95-0.292 1.38 1.38 0 0 1-0.457-0.274 2.67 2.67 0 0 1-0.329-0.311 1.41 1.41 0 0 1-0.228-0.292 0.695 0.695 0 0 1-0.0914-0.237 0.124 0.124 0 0 1 0.0398-0.119 0.385 0.385 0 0 1 0.201-0.053 0.448 0.448 0 0 1 0.283 0.0663c0.0914 0.0398 0.191 0.0914 0.301 0.146a2.91 2.91 0 0 0 0.566 0.219 8.66 8.66 0 0 0 1.12 0.21c0.484 0.0663 1.02 0.136 1.61 0.201 0.566 0.0662 1.07 0.128 1.49 0.174 0.42 0.0663 0.767 0.119 1.03 0.191a2.82 2.82 0 0 1 0.73 0.292 3.6 3.6 0 0 1 0.584 0.392 3.36 3.36 0 0 1 0.429 0.365 0.625 0.625 0 0 1 0.183 0.283 0.289 0.289 0 0 1-0.0199 0.246 0.894 0.894 0 0 1-0.319 0.31c-0.164 0.128-0.457 0.319-0.867 0.575-0.42 0.256-0.794 0.484-1.14 0.685q-0.507 0.315-1.18 0.767c-0.438 0.301-0.831 0.594-1.19 0.867-0.347 0.283-0.648 0.512-0.877 0.685-0.228 0.165-0.429 0.311-0.584 0.42a1.19 1.19 0 0 1-0.365 0.182 0.308 0.308 0 0 0-0.201 0.146 0.602 0.602 0 0 1-0.21 0.201 0.436 0.436 0 0 1-0.201 0.0822c-0.0464 0-0.0663-0.0662-0.0663-0.174a0.66 0.66 0 0 1 0.0464-0.256c0.0331-0.053 0.053-0.111 0.0822-0.156a0.162 0.162 0 0 0 0.00662-0.146 0.485 0.485 0 0 1-0.0199-0.174 0.626 0.626 0 0 1 0.0822-0.246c0.0729-0.1 0.053-0.128-0.053-0.0914a0.777 0.777 0 0 0-0.246 0.136c-0.0662 0.0663-0.119 0.0914-0.164 0.0736a0.321 0.321 0 0 1-0.128-0.0822c-0.0398-0.0398-0.0822-0.0265-0.128 0.0199-0.0332 0.0663-0.0663 0.0265-0.0663-0.1a1.38 1.38 0 0 1 0.192-0.548 3.92 3.92 0 0 1 0.52-0.73 4.73 4.73 0 0 1 0.758-0.712 10.1 10.1 0 0 1 0.977-0.721c0.356-0.256 0.667-0.457 0.922-0.612 0.265-0.165 0.493-0.292 0.694-0.402a3.38 3.38 0 0 1 0.512-0.256c0.128-0.0663 0.191-0.119 0.21-0.191a0.245 0.245 0 0 0-0.0265-0.165c-0.0331-0.053-0.164-0.0822-0.365-0.1-0.201-0.0199-0.411-0.0398-0.612-0.0464" fill="#006039" /><path d="m30.6 34.9v-1.83h-3.35v7.59h3.59v-3.2a2.07 2.07 0 0 1 2.68-1.38v-3.08c-1.99-0.612-3.1 2.02-2.91 1.89m-7.27 5.75v-1.1c-0.548 1.26-3.25 1.88-4.81 0.329v0.584c-4.93 1.4-4.97-2-4.97-2-0.0265-0.201-0.0265-1.29-0.0199-3.26h-1.21a4.25 4.25 0 0 0-1.42-0.429c-0.566-0.053-1.65-0.174-1.93 0.374-0.109 0.529 0.63 0.356 2.64 0.895 0.174 0.1 1.14 0.329 1.42 1.17a2.86 2.86 0 0 1 0.119 0.529s0.502 2.58-3.54 2.98c-0.411 0-0.639 0.0265-1.03 0.0199a10 10 0 0 1-3.61-0.739v-2.37a5.94 5.94 0 0 0 2.6 1.12c1.93 0.229 2.29-0.237 2.27-0.438-0.101-0.867-3.86-0.182-4.17-2.43a1.53 1.53 0 0 1-0.0398-0.338s-0.566-3.69 6.68-2.51h1.21v-1.74l3.65-1.14v2.88h1.77c0.502-0.0663 0.922-0.109 1.28-0.128 0.347-0.0265 0.685-0.0398 1-0.0398 0.311 0 0.703 0.0199 1.16 0.0199 0 0 4.15-0.201 4.32 2.78v5zm-5.16-2.36c0.201-3.25 5.25-2.36 5.25-2.36a0.997 0.997 0 0 0-0.895-1.01 6.72 6.72 0 0 0-3.63 0.347l-1.71-0.0199v2.49a0.779 0.779 0 0 0 0.986 0.548m4.15 0.566s0.685 0.119 1.06-0.959a4.14 4.14 0 0 0 0.00662-0.566c-2.6-0.128-1.91 1.11-1.87 1.16a0.844 0.844 0 0 0 0.804 0.365m6.29-23.3a4.1 4.1 0 0 1 0.411-0.621c0.274-0.374 0.621-0.813 1.06-1.32 0.429-0.512 0.877-1.03 1.34-1.57 0.457-0.529 0.84-0.959 1.15-1.3a7.81 7.81 0 0 0 0.612-0.721 2.07 2.07 0 0 1 0.356-0.384 0.91 0.91 0 0 1 0.42-0.201 0.415 0.415 0 0 0 0.256-0.0914 0.792 0.792 0 0 1 0.365-0.0663 2.5 2.5 0 0 1 0.557 0.0199 0.451 0.451 0 0 1 0.338 0.165 0.374 0.374 0 0 0 0.246 0.174c0.101 0.0199 0.146 0.1 0.146 0.246a0.686 0.686 0 0 1-0.0662 0.338 0.688 0.688 0 0 0-0.0464 0.347 0.463 0.463 0 0 0 0.0663 0.256 0.637 0.637 0 0 1 0.0464 0.319 0.477 0.477 0 0 1-0.0662 0.283 0.959 0.959 0 0 0-0.0464 0.429c0 0.264 0 0.612-0.00661 1.06-0.00662 0.447 0 0.794 0.00661 1.04 0.00662 0.256 0.0265 0.493 0.0464 0.721 0.0199 0.219 0.0464 0.457 0.0662 0.703 0.0332 0.256 0.0464 0.466 0.053 0.657a3.06 3.06 0 0 0 0.0464 0.438 2 2 0 0 1 0.0199 0.521c-0.0265 0.228-0.0199 0.301 0.0265 0.228 0.0331-0.0663 0.053 0.053 0.053 0.393 0 0.338 0.0199 0.466 0.053 0.392 0.0332-0.0822 0.0464 0.0199 0.053 0.301a1.53 1.53 0 0 0 0.053 0.484 1.09 1.09 0 0 1 0.0464 0.502c-0.00661 0.292 0.00662 0.457 0.0464 0.493 0.0464 0.0398 0.0662 0.156 0.0822 0.356a3.66 3.66 0 0 0 0.0663 0.566 5.18 5.18 0 0 1 0.053 0.575c0.0199 0.21 0.0331 0.301 0.0662 0.292 0.0332-0.0199 0.0663 0.0914 0.0729 0.347 0.0199 0.246 0.0199 0.319 0.0199 0.229-0.00661-0.109 0.00662-0.0265 0.0332 0.237 0.0464 0.274 0.0729 0.374 0.0822 0.274 0.00662-0.0822 0.0199-0.0199 0.0199 0.201 0 0.219 0.0199 0.292 0.0464 0.219 0.0332-0.0736 0.0729 0.0199 0.109 0.246a5.39 5.39 0 0 1 0.0464 0.567c0 0.136 0.0265 0.201 0.0914 0.201 0.0729 0 0.101 0.136 0.109 0.429 0.00662 0.274 0.0265 0.356 0.053 0.237 0.0265-0.128 0.0464-0.1 0.0464 0.0822 0.00662 0.182 0.0398 0.274 0.0663 0.274s0.0464 0.0914 0.053 0.256c0.00662 0.165 0.0265 0.201 0.053 0.109 0.0199-0.0822 0.0331-0.0199 0.0331 0.237 0 0.246 0.0199 0.319 0.0464 0.219 0.0265-0.0822 0.053-0.053 0.0663 0.1a0.819 0.819 0 0 0 0.0914 0.374 0.893 0.893 0 0 1 0.0822 0.374c0 0.146 0.00662 0.165 0.053 0.0464 0.0398-0.109 0.053-0.0736 0.053 0.146 0 0.201 0.0199 0.283 0.053 0.237 0.0265-0.053 0.0464-0.0199 0.0464 0.119a0.788 0.788 0 0 0 0.0729 0.338c0.0464 0.1 0.053 0.156 0.0199 0.165-0.0332 0.0199-0.0332 0.0736 0 0.156a2.17 2.17 0 0 0 0.101 0.219 0.712 0.712 0 0 1 0.119 0.21 0.202 0.202 0 0 1-0.0199 0.201c-0.053 0.0663-0.0332 0.174 0.0464 0.356 0.0729 0.174 0.0663 0.229-0.0464 0.174-0.101-0.0736-0.146-0.0464-0.146 0.0736a1.64 1.64 0 0 0 0.0822 0.402 5.59 5.59 0 0 1 0.137 0.584c0.0464 0.237 0.0464 0.338-0.00662 0.301-0.053-0.0265-0.0822 0.0199-0.0662 0.119 0 0.109-0.0332 0.109-0.101 0-0.0729-0.109-0.128-0.136-0.164-0.0735-0.0265 0.053-0.0663 0.053-0.109-0.0199-0.0332-0.0663-0.0663-0.053-0.0729 0.053a2.3 2.3 0 0 0 0.109 0.557c0.0729 0.256 0.0822 0.384 0.0265 0.365-0.053-0.0199-0.0729 0.0662-0.0663 0.219 0.0199 0.165-0.00662 0.238-0.0729 0.238s-0.0822 0.128-0.053 0.365a1.74 1.74 0 0 0 0.0822 0.402 1.66 1.66 0 0 1 0.0332 0.502 0.995 0.995 0 0 1-0.0822 0.512 0.307 0.307 0 0 1-0.21 0.0398 0.519 0.519 0 0 1-0.283-0.229 2.62 2.62 0 0 1-0.311-0.512 6.31 6.31 0 0 1-0.274-0.721 3.4 3.4 0 0 0-0.191-0.539 0.276 0.276 0 0 0-0.137-0.165 0.184 0.184 0 0 1-0.119-0.111c-0.0199-0.053-0.053-0.0736-0.0914-0.0464a0.14 0.14 0 0 1-0.119 0.0199 0.454 0.454 0 0 1-0.164-0.219 6.09 6.09 0 0 1-0.246-0.721c-0.119-0.374-0.228-0.767-0.356-1.21-0.137-0.438-0.283-0.931-0.429-1.49-0.155-0.548-0.283-1.08-0.374-1.58-0.101-0.512-0.174-0.959-0.237-1.35-0.053-0.384-0.101-0.529-0.128-0.447-0.00662 0.0822-0.0265-0.0199-0.0265-0.283-0.00661-0.283-0.0265-0.374-0.0464-0.283-0.0265 0.0914-0.0332-0.0199-0.0332-0.329 0.00662-0.319-0.00661-0.438-0.053-0.356-0.0331 0.0822-0.053-0.0199-0.053-0.292a1.41 1.41 0 0 0-0.0265-0.457 1.39 1.39 0 0 1-0.0663-0.356 1.82 1.82 0 0 0-0.053-0.356 1.56 1.56 0 0 1-0.0332-0.512 1.82 1.82 0 0 0-0.053-0.63 0.43 0.43 0 0 1-0.00661-0.301 0.713 0.713 0 0 0-0.0265-0.347 1.29 1.29 0 0 1-0.0663-0.457c0-0.182-0.0199-0.292-0.0464-0.311-0.0331-0.0265-0.053-0.174-0.053-0.429s-0.0199-0.392-0.053-0.42c-0.0332-0.0199-0.053-0.192-0.053-0.493a2.22 2.22 0 0 0-0.0331-0.548 1.59 1.59 0 0 1-0.0663-0.402c-0.00662-0.21-0.0265-0.529-0.0331-0.959-0.0199-0.429-0.0464-0.575-0.0729-0.447-0.0332 0.119-0.0332-0.0914-0.0265-0.639a4.33 4.33 0 0 0-0.0332-0.922 1.1 1.1 0 0 1 0-0.429 2.71 2.71 0 0 0 0.0332-0.612c-0.00662-0.192-0.0332-0.356-0.0464-0.484-0.0199-0.136-0.101-0.119-0.274 0.053-0.164 0.174-0.365 0.384-0.603 0.648-0.229 0.265-0.384 0.457-0.475 0.575a1.55 1.55 0 0 1-0.301 0.356c-0.119 0.119-0.237 0.228-0.356 0.356-0.119 0.136-0.246 0.274-0.402 0.438-0.137 0.174-0.274 0.311-0.42 0.466-0.128 0.146-0.228 0.274-0.301 0.374a1.22 1.22 0 0 1-0.256 0.274 1.07 1.07 0 0 1-0.374 0.165 2.24 2.24 0 0 1-0.411 0.0265c-0.137 0-0.21-0.0199-0.219-0.0822a0.225 0.225 0 0 0-0.101-0.146 0.179 0.179 0 0 1-0.053-0.191c0.00662-0.0822 0.0199-0.146 0.0265-0.192" fill="#e2001a" /></svg>