<svg xmlns="http://www.w3.org/2000/svg" id="Icon" viewBox="0 0 50 50"><defs><linearGradient id="Background"><stop offset="0" stop-color="#2155d6" /></linearGradient><linearGradient id="Frame"><stop offset="0" stop-color="#2155d6" /></linearGradient> <linearGradient id="Pictogram"><stop offset="0" stop-color="#ffffff" /></linearGradient></defs><title>d0_t112_2s0</title><g id="Rahmen"><rect fill="url(#Background)" height="44.5" rx="3" width="44.5" x="2.75" y="2.75" /><rect fill="none" height="44.5" rx="3" stroke="url(#Frame)" stroke-miterlimit="10" stroke-width="1.5" width="44.5" x="2.75" y="2.75" /></g><line fill="none" stroke="url(#Pictogram)" stroke-miterlimit="10" stroke-width="1.5" x1="7" x2="43" y1="39" y2="39" /><line fill="none" stroke="url(#Pictogram)" stroke-miterlimit="10" stroke-width="1.5" x1="8" x2="29" y1="35.49426" y2="35.49426" /><line fill="none" stroke="url(#Pictogram)" stroke-miterlimit="10" stroke-width="2.5" x1="9" x2="28" y1="31.8" y2="31.8" /><line fill="none" stroke="url(#Pictogram)" stroke-miterlimit="10" stroke-width="1.5" x1="12.5" x2="12.5" y1="31.5" y2="35.5" /><line fill="none" stroke="url(#Pictogram)" stroke-miterlimit="10" stroke-width="1.5" x1="11" x2="11" y1="35.5" y2="39.5" /><line fill="none" stroke="url(#Pictogram)" stroke-miterlimit="10" stroke-width="1.5" x1="24.75" x2="24.75" y1="31.5" y2="35.5" /><line fill="none" stroke="url(#Pictogram)" stroke-miterlimit="10" stroke-width="1.5" x1="26.25" x2="26.25" y1="35.5" y2="39.5" /><path d="M32.27849,39V27.599a3.80312,3.80312,0,0,0-.91448-2.37171c-.48928-.51153-1.20544-1.20544-1.20544-1.20544" fill="none" stroke="url(#Pictogram)" stroke-miterlimit="10" stroke-width="1.5" /><path d="M35.22437,39V25.20092a3.80312,3.80312,0,0,1,.91448-2.37171c.48928-.51153,2.03678-2.13277,2.03678-2.13277" fill="none" stroke="url(#Pictogram)" stroke-miterlimit="10" stroke-width="1.5" /><path d="M37.45,28s5.88528.05379,5.88528-5.93185c0-4.36531-2.99282-8.77061-3.45-9.311s-2.53558-3.7753-5.69371-3.7753a5.803,5.803,0,0,0-5.78015,5.48935c-.13725,1.69689-.16487,1.56973-.16487,1.69443s-4.57236,1.45484-4.4061,5.61153S29.45963,28,30,28" fill="none" stroke="url(#Pictogram)" stroke-miterlimit="10" stroke-width="1.5" /></svg>