<svg xmlns="http://www.w3.org/2000/svg" id="Icon" viewBox="0 0 50 50">
<defs>
<linearGradient id="Background">
<stop offset="0" stop-color="#ffffff" />
</linearGradient>
<linearGradient id="Frame">
<stop offset="0" stop-color="#ffffff" />
</linearGradient> <linearGradient id="Pictogram">
<stop offset="0" stop-color="#ffffff" />
</linearGradient>
</defs>
<title>d0_t283_2s0</title>
<g data-name="Rahmen - Schwarz" id="Rahmen_-_Schwarz">
<rect fill="url(#Background)" height="44.5" rx="3" width="44.5" x="2.75" y="2.75" />
<rect fill="none" height="44.5" rx="3" stroke="url(#Frame)" stroke-miterlimit="10" stroke-width="1.5" width="44.5" x="2.75" y="2.75" />
</g>
<path d="M6.40145,22.03137H12.478l-.35956,1.65748H10.106l-.96569,4.23737H7.02861l.96059-4.23737H6.03767Z" fill="#e63027" />
<path d="M17.18163,22.04693H14.1197l-3.67922,5.87929H12.48l.9626-1.54742h2.49678l.06207,1.54742H17.9728Zm-2.927,3.14313,1.13749-1.719.21848,1.719Z" fill="#e63027" />
<path d="M19.55205,22.04693h3.10927l.57163,3.431,2.13014-3.44655h2.96813l-1.32691,5.89485H25.08278l.82913-3.67507-2.33562,3.67507H21.4219l-.55136-3.71006-.85491,3.71006H18.22425Z" fill="#e63027" />
<path d="M36.65727,22.08406h1.95878l-1.31854,5.84216H35.31Z" fill="#e63027" />
<path d="M39.56368,22.08406h2.06267l-.95007,4.28179H43.925l-.3709,1.56037H38.25025Z" fill="#e63027" />
<path d="M32.05857,22.02061c-3.6604-.1052-3.75426,3.04524-3.75426,3.04524-.29677,2.96735,2.81434,2.95013,3.10862,2.95013.29588,0,3.44043.15438,3.87074-2.95013C35.71736,21.95943,32.05857,22.02061,32.05857,22.02061Zm1.19789,3.02486c-.41248,1.85886-1.71855,1.63106-1.79126,1.62417-.1226-.00868-1.44394.08981-1.11081-1.68672,0,0,.257-1.85719,1.79215-1.76352C32.14654,23.2194,33.6699,23.18875,33.25646,25.04547Z" fill="#e63027" />
<path d="M25.00846,13.1249c-8.42834,0-15.57366,3.23461-18.11528,7.71974H43.11835C40.57642,16.35951,33.43229,13.1249,25.00846,13.1249Z" fill="#0076b3" />
<path d="M25.00846,36.87474c8.42383,0,15.568-3.23431,18.10989-7.71973H6.89318C9.4348,33.64043,16.58012,36.87474,25.00846,36.87474Z" fill="#0076b3" />
<path d="M25.00015,11.92552C13.69759,11.92552,4.5,17.79222,4.5,24.9989c0,7.2093,9.19759,13.07558,20.50015,13.07558C36.30662,38.07448,45.5,32.2082,45.5,24.9989c0-7.20668-9.19338-13.07338-20.49985-13.07338M4.89015,24.9989c0-6.98844,9.02093-12.67545,20.11-12.67545s20.10928,5.687,20.10928,12.67545c0,6.98975-9.0201,12.67717-20.10928,12.67717S4.89015,31.98865,4.89015,24.9989Z" fill="#393939" />
</svg>