<svg xmlns="http://www.w3.org/2000/svg" viewBox="0 0 50 50"><defs><linearGradient id="Background"><stop offset="0" stop-color="#5baa44" /></linearGradient><linearGradient id="Frame"><stop offset="0" stop-color="#5baa44" /></linearGradient><linearGradient id="Pictogram"><stop offset="0" stop-color="#ffffff" /></linearGradient></defs><rect fill="url(#Background)" height="44.5" rx="3" width="44.5" x="2.75" y="2.75" /><rect fill="none" height="44.5" rx="3" stroke="url(#Frame)" stroke-miterlimit="10" stroke-width="1.5" width="44.5" x="2.75" y="2.75" /><circle cx="33.5" cy="13" fill="none" r="3.75" stroke="url(#Pictogram)" stroke-miterlimit="10" stroke-width="1.5" /><path d="m25.2 26 6.24 3.96a1.35 1.35 0 0 1 0.0428 2.18c-1.6 1.45-7.75 7.07-7.75 7.07s-1.41 1.42-2.71 0.281a1.84 1.84 0 0 1-0.162-2.8l5.71-5.3-4.6-2.42" fill="none" stroke="url(#Pictogram)" stroke-miterlimit="10" stroke-width="1.5" /><path d="m18.4 27.1-10.6 9.58a1.84 1.84 0 0 0 0.162 2.8c1.31 1.14 2.71-0.281 2.71-0.281s17.3-16.1 18.9-17.5l0.158 0.151 4.08 4.15a1.8 1.8 0 0 0 2.71 0.0532c1.65-1.33 5.53-5.21 5.53-5.21a1.41 1.41 0 0 0-0.18-2.14c-1.01-0.929-2.27 0.334-2.27 0.334l-4.49 4.18-11.3-11.1s-1.18-1.28-2.76 0.213c-1.75 1.65-6.06 5.9-6.06 5.9s-1.45 1.28-0.532 2.39c0.913 1.11 2.13 0.372 2.76-0.266s5.49-5.46 5.49-5.46l1.52 1.52 0.106 1.86-5.74 5.64z" fill="none" stroke="url(#Pictogram)" stroke-miterlimit="10" stroke-width="1.5" /></svg>