<svg xmlns="http://www.w3.org/2000/svg" viewBox="0 0 50 50"><defs><linearGradient id="Frame"><stop offset="0" stop-color="#ffffff" /></linearGradient></defs><rect fill="#fff" height="44.5" rx="3" width="44.5" x="2.75" y="2.75" /><rect fill="none" height="44.5" rx="3" stroke="url(#Frame)" stroke-miterlimit="10" stroke-width="1.5" width="44.5" x="2.75" y="2.75" /><path d="M38.197,41.5574a1.13606,1.13606,0,1,1,1.139,1.124,1.12056,1.12056,0,0,1-1.139-1.124m1.139.938a.93422.93422,0,1,0-.914-.938.90555.90555,0,0,0,.914.938m-.237-.288h-.197v-1.292h.492c.306,0,.459.113.459.367a.3368.3368,0,0,1-.336.356l.368.569h-.22l-.342-.56h-.224Zm.233-.726c.167,0,.315-.013.315-.211,0-.16-.145-.189-.283-.189h-.265v.4h.233" fill="#422d7f" /><path d="m15.9 34.1h-1.87v3.83h-3.01v-3.83h-1.77l-0.649-1.21h7.95zm1.7-1.22h3.86l2.7 5.04h-2.96l-0.481-1.09h-2.46l-0.483 1.09h-2.89zm1.14 2.74h1.54l-0.74-1.66h-0.016zm12.1 2.16a15.4 15.4 0 0 1-2.44 0.233c-2.65 0-4.69-0.506-4.69-2.68 0-1.95 2.18-2.56 4.69-2.56a17 17 0 0 1 2.61 0.185l-0.6 1.17a9.7 9.7 0 0 0-1.47-0.1c-1.29 0-2.15 0.348-2.15 1.3 0 1.09 0.898 1.35 2.14 1.35a8.98 8.98 0 0 0 1.91-0.241zm4.67 0.233c-2.74 0-4.34-0.89-4.34-2.61 0-1.69 1.6-2.61 4.34-2.61 2.74 0 4.38 0.919 4.38 2.61 0 1.72-1.64 2.61-4.38 2.61m0-1.18c1.15 0 1.22-0.915 1.23-1.44-0.01-0.47-0.089-1.44-1.23-1.44-1.11 0-1.2 0.975-1.2 1.44 0 0.543 0.124 1.44 1.2 1.44m-2.71 7.93 0.678-1.26h-3.8v-3.78h-3.04v4.03a0.897 0.897 0 0 0 1.01 1.02zm7.16 0 0.678-1.26h-3.8v-3.78h-3.04v4.03a0.897 0.897 0 0 0 1.01 1.02zm-20.7-5.02h6.94l-0.631 1.18h-3.37v0.725h3.22v1.14h-3.22v0.764h3.86v1.2h-6.81zm-1.84 2.4c0.483 0.077 1.22 0.267 1.21 1.2a1.16 1.16 0 0 1-0.865 1.21 6.66 6.66 0 0 1-2.05 0.197h-4.65v-5.01h4.44a4.47 4.47 0 0 1 2.59 0.397 0.977 0.977 0 0 1 0.399 0.838 1.1 1.1 0 0 1-1.08 1.16m-3.42-0.501h0.756a2.69 2.69 0 0 0 0.816-0.067 0.442 0.442 0 0 0-6e-3 -0.828 3.25 3.25 0 0 0-0.79-0.05h-0.776zm0 2.08h0.789a2.31 2.31 0 0 0 0.844-0.088 0.473 0.473 0 0 0 0.302-0.488 0.449 0.449 0 0 0-0.32-0.451 2.95 2.95 0 0 0-0.804-0.062h-0.811v1.09" fill="#422d7f" /><path d="m24.7 5.22a16.6 16.6 0 0 0-3.35 0.339 3.69 3.69 0 0 1 2.38 1.42 8.78 8.78 0 0 1 3.52 0.063c2.93 0.754 5.22 3.44 8.35 6.73a5.89 5.89 0 0 0 3.31 1.23c-1.58-5.62-7.35-9.79-14.2-9.79m-6 1.11c-5.14 2-8.71 6.54-8.71 11.8l3e-3 12 2.76-2e-3a4.13 4.13 0 0 1 0.976-2.81 10.6 10.6 0 0 0 1.33-2.59 7.82 7.82 0 0 0 0.031-2.92c-0.061-0.951-2.03-8.02 2.41-11.8a3.55 3.55 0 0 1 1.2-3.63m20.6 15.5a42.9 42.9 0 0 1-9.52 7.01c-0.885 0.453-1.77 0.847-2.65 1.2l12.2-3e-3z" fill="#422d7f" /><path d="m19 9.7c-2.27 2.12-2.26 5.04-1.17 9.43 0.133 0.54 0.437 2.44 0.466 2.8a9.4 9.4 0 0 0-2.14 2.88 13.3 13.3 0 0 1-0.828 1.82l0.016 0.025a19.4 19.4 0 0 1 5.73-5.59 34.1 34.1 0 0 1 13.7-5.5l-0.056 0.047s-8.46 1.74-14.6 7.8c-1.91 1.9-2.97 3.83-2.43 4.96 0.936 1.95 6.34 1.2 11.8-1.4 5.42-2.6 9.63-6.52 8.65-8.44-1.05-2.03-6.41-1.26-11.7 1.43l-0.182 0.058a29.6 29.6 0 0 1 10.7-4.15 8.58 8.58 0 0 1 1.74-0.056c-2.88-0.26-3.82-1.47-3.82-1.47-2.91-3.3-4.97-6.05-7.78-6.88a7.76 7.76 0 0 0-3.58-0.083 3.09 3.09 0 0 0-3.92-1.17 1.99 1.99 0 0 0-0.94 1.19 2.89 2.89 0 0 0 0.206 1.97 11.8 11.8 0 0 1 3.83-1.77l-0.087 0.062a11.2 11.2 0 0 0-3.37 1.86s-0.19 0.153-0.235 0.202m4.45-1.72c2.76-0.338 4.54 2.16 5.83 4.18 1.36 2.13 1.79 2.84 2.45 3.23a8.61 8.61 0 0 1 2.47-0.26c-1.58-0.293-3.43-4.08-5.08-5.55a6.2 6.2 0 0 0-5.78-1.62zm5.73 18.1c5.01-2.42 8.52-5.53 7.83-6.96-0.687-1.43-5.31-0.627-10.3 1.79-5.01 2.42-8.52 5.53-7.83 6.96 0.688 1.43 5.31 0.626 10.3-1.79" fill="#de0071" /><path d="m19.5 6.2a3.08 3.08 0 0 0-1.41 1.5 3.32 3.32 0 0 0-0.084 2.3c-4.02 3.68-2.3 9.42-1.97 11.5a7.51 7.51 0 0 1 0.044 3.35 9.58 9.58 0 0 1 2.15-2.88c-0.078-0.734-0.212-1.43-0.212-1.43-0.055-0.355-0.125-0.83-0.257-1.37-1.5-6.07-0.998-9.29 4.77-11.5l0.09-0.065a11.9 11.9 0 0 0-3.83 1.77c-0.908-2.16 0.53-3.05 0.714-3.15m15.2 9.36a34.2 34.2 0 0 0-13.7 5.5c-4.41 2.89-7.35 7.08-6.5 8.84 1.09 2.26 7.59 1.32 15.2-2.34 7.61-3.66 12.6-8.26 11.6-10.6-0.725-1.7-4.36-1.14-4.36-1.14a29.6 29.6 0 0 0-10.7 4.16l0.183-0.058c5.33-2.69 10.7-3.46 11.7-1.43 0.989 1.92-3.23 5.83-8.65 8.44-5.42 2.6-10.8 3.35-11.8 1.4-0.541-1.13 0.512-3.06 2.43-4.95 6.11-6.06 14.6-7.8 14.6-7.8zm0.256 2.79a22.5 22.5 0 0 0-8.36 2.5c-5.01 2.42-8.52 5.53-7.83 6.96 0.687 1.43 5.31 0.625 10.3-1.79s8.52-5.54 7.83-6.96c-0.235-0.49-0.937-0.717-1.96-0.706" fill="#422d7f" /><path d="m23.4 7.98c2.76-0.337 4.54 2.16 5.83 4.18 1.36 2.13 1.79 2.84 2.45 3.23a8.61 8.61 0 0 1 2.47-0.261c-1.58-0.295-3.43-4.09-5.08-5.55a6.2 6.2 0 0 0-5.78-1.62l0.106 0.016" fill="#fff" /><path d="m27.1 21.9a17.8 17.8 0 0 0-4.72 2.15 2 2 0 0 0 2.59 1.74 3.53 3.53 0 0 1-4.1-0.67c-0.18 0.138-0.592 0.503-0.592 0.503l-0.017 0.012a3.71 3.71 0 0 0 3.16 1.25c2.2-0.171 4.02-1.7 3.92-3.75a3.18 3.18 0 0 0-0.24-1.23" fill="#f8e51d" /></svg>