<svg xmlns="http://www.w3.org/2000/svg" viewBox="0 0 50 50"><defs><linearGradient id="Frame"><stop offset="0" stop-color="#ffffff" /></linearGradient></defs><defs><clipPath id="clip-path"><rect fill="none" height="32" width="41.1" x="4.47" y="8.02" /></clipPath></defs><rect fill="#fff" height="44.5" rx="3" width="44.5" x="2.75" y="2.75" /><rect fill="none" height="44.5" rx="3" stroke="url(#Frame)" stroke-miterlimit="10" stroke-width="1.5" width="44.5" x="2.75" y="2.75" /><g clip-path="url(#clip-path)"><path d="m38.1 29.8a3.83 3.83 0 0 0-1.29-0.201h-0.044a2.61 2.61 0 0 0-2.85 2.95 3.32 3.32 0 0 0 0.501 1.96 2.42 2.42 0 0 0 2.32 0.996h0.031c1.87-0.013 2.82-1.01 2.82-2.98 0-1.77-0.811-2.46-1.49-2.73m-1.34 4.44h-9e-3c-0.581 0-0.879-0.51-0.879-1.7a3.1 3.1 0 0 1 0.198-1.3 0.763 0.763 0 0 1 1.29-0.135 2.36 2.36 0 0 1 0.288 1.41c1e-3 1.2-0.267 1.72-0.89 1.72" fill="#4d7335" /><path d="M18.9688,29.8779c-.021.104-.248.995-.267,1.104-.017.091.083.171.175.171.552,0,.572.008.572.562v3.545a.1767.1767,0,0,0,.175.176h1.677a.16652.16652,0,0,0,.17-.176v-5.379a.16408.16408,0,0,0-.17-.175h-2.162c-.096,0-.148.08-.17.172" fill="#4d7335" /><path d="M12.5586,29.7061c-.09,0-.148.062-.169.172a9.49371,9.49371,0,0,1-.27,1.103c-.026.092.069.172.161.172.554,0,.572.021.572.562,0,1.204-.148,2.637.472,3.257a1.76146,1.76146,0,0,0,1.379.581,2.23274,2.23274,0,0,0,1.454-.541c0,.114-.005.248-.005.248a.17506.17506,0,0,0,.171.175h1.571a.17181.17181,0,0,0,.171-.175v-5.382a.16548.16548,0,0,0-.171-.171h-1.589a.16732.16732,0,0,0-.171.166s.018,3.396-.004,3.899a1.89306,1.89306,0,0,1-.699.305c-.589,0-.672-.634-.672-1.322l.004-2.877a.16985.16985,0,0,0-.169-.171h-2.036Z" fill="#4d7335" /><path d="m29.9 30.2c0-0.127-4e-3 -0.314-4e-3 -0.326a0.171 0.171 0 0 0-0.171-0.172h-1.89c-0.146 0-0.219 0.04-0.266 0.132-0.044 0.095-0.481 1.01-0.512 1.06a0.177 0.177 0 0 0 0.157 0.254h0.087c0.678 0 0.687 0 0.687 0.562 0 0-9e-3 3.53-9e-3 3.55a0.172 0.172 0 0 0 0.17 0.17c0.021 0 1.6-8e-3 1.6-8e-3a0.171 0.171 0 0 0 0.171-0.17c0-8e-3 0-3.05-5e-3 -3.8a1.28 1.28 0 0 1 0.715-0.284 0.454 0.454 0 0 1 0.355 0.141 1.11 1.11 0 0 1 0.218 0.763c-5e-3 0.25 6e-3 3.18 6e-3 3.18a0.17 0.17 0 0 0 0.172 0.17c0.014 0 1.48-8e-3 1.58-8e-3a0.167 0.167 0 0 0 0.169-0.17c0-8e-3 -3e-3 -3.02-3e-3 -3.02a3.74 3.74 0 0 0-0.293-1.94 1.46 1.46 0 0 0-1.35-0.659 3.17 3.17 0 0 0-1.59 0.555" fill="#4d7335" /><path d="M40.4541,30.5088a1.65919,1.65919,0,0,0-.292.957,1.7686,1.7686,0,0,0,1.393,1.699c.003,0,.253.1.393.149.257.082.707.227.707.546,0,.226-.235.458-.76.458a2.52086,2.52086,0,0,1-1.056-.284,1.942,1.942,0,0,1-.354-.24.17167.17167,0,0,0-.275.135c.004.04-.047.855-.062.987-.004.039-.008.096-.008.117a.15439.15439,0,0,0,.101.161,4.29173,4.29173,0,0,0,1.724.359c1.987,0,2.515-.907,2.616-1.693a1.80442,1.80442,0,0,0,.009-.241,1.76426,1.76426,0,0,0-1.399-1.729c-.387-.144-.514-.188-.514-.188-.363-.122-.599-.222-.599-.454,0-.061.031-.384.668-.384a2.1171,2.1171,0,0,1,1.197.393.17025.17025,0,0,0,.101.031.16537.16537,0,0,0,.161-.141c0-.009.096-1.074.096-1.074a.16445.16445,0,0,0-.135-.166c-.01-.004-.04-.013-.071-.021a5.06979,5.06979,0,0,0-1.496-.236,2.46551,2.46551,0,0,0-2.145.859" fill="#4d7335" /><path d="m4.46 31.8c0 3.29 2.27 3.78 3.5 3.78a4.35 4.35 0 0 0 1.16-0.156 0.173 0.173 0 0 0 0.071-0.284c-0.035-0.039-0.983-0.984-0.983-0.984a0.153 0.153 0 0 0-0.113-0.05 0.644 0.644 0 0 1-0.07 4e-3 1.2 1.2 0 0 1-1.07-0.595 3.6 3.6 0 0 1-0.384-1.89c0-1.81 0.717-2.33 1.42-2.33 0.594 0 1.45 0.211 1.45 2.38a7.42 7.42 0 0 1-0.049 0.895h-1.77a0.17 0.17 0 0 0-0.122 0.291s2.93 2.93 2.97 2.98a0.165 0.165 0 0 0 0.126 0.061h1.93a0.168 0.168 0 0 0 0.171-0.171 0.172 0.172 0 0 0-0.053-0.122l-1.62-1.62c-4e-3 -4e-3 -0.03-0.025-0.034-0.04a0.177 0.177 0 0 1 0.013-0.036 4.55 4.55 0 0 0 0.527-2.3 4.19 4.19 0 0 0-1.09-2.98 3.55 3.55 0 0 0-2.4-0.814c-2.24 0-3.58 1.49-3.58 3.98" fill="#4d7335" /><path d="M26.6221,29.7061h-3.985c-.096,0-.145.062-.176.175-.029.131-.27.961-.27,1.053a.16964.16964,0,0,0,.17.169c.009,0,1.712-.016,1.813-.016-.11.218-2.047,4.1-2.047,4.1a.15049.15049,0,0,0-.019.077.16817.16817,0,0,0,.17.171h4.833a.17265.17265,0,0,0,.172-.175l.004-1.047a.167.167,0,0,0-.171-.17h.005s-1.904.052-2.419.065c.088-.179.747-1.532.999-2.031.249-.492,1.023-2.013,1.075-2.117a.17886.17886,0,0,0-.154-.254" fill="#4d7335" /><path d="m38.6 27.2c-3.16-0.429-5.16-1.22-5.8-2.31a1.1 1.1 0 0 1-0.165-0.865 1.23 1.23 0 0 1 0.68-0.684 0.193 0.193 0 0 0 0.097-0.175 0.2 0.2 0 0 0-0.204-0.198 0.825 0.825 0 0 0-0.122 0.01 9.07 9.07 0 0 1-1.29 0.269 22.2 22.2 0 0 1-4.73 0.206c-6.86-0.428-12.3-3.74-12.1-7.39a4.62 4.62 0 0 1 2.08-3.37 8.79 8.79 0 0 1 4.67-1.74 0.2 0.2 0 0 0 0.192-0.204 0.206 0.206 0 0 0-0.198-0.206 19.1 19.1 0 0 0-8.04 1.58c-2.59 1.22-4.08 2.96-4.2 4.91-0.105 1.97 1.2 3.9 3.68 5.44a20.5 20.5 0 0 0 9.34 2.69 23.3 23.3 0 0 0 3.5-0.035 0.206 0.206 0 0 1 0.141 0.07c1.29 2.08 5.67 2.93 12.4 2.41a0.199 0.199 0 0 0 0.199-0.198 0.206 0.206 0 0 0-0.177-0.203" fill="#e21f26" /><path d="m36 10.8a20.5 20.5 0 0 0-9.34-2.69c-0.479-0.03-0.963-0.048-1.43-0.048a19.4 19.4 0 0 0-9.05 1.92 0.211 0.211 0 0 0-0.104 0.181 0.202 0.202 0 0 0 0.197 0.206 0.308 0.308 0 0 0 0.065-0.012 15.3 15.3 0 0 1 4.24-0.562 19.2 19.2 0 0 1 4.63 0.421c5.46 1.09 9.16 3.96 8.99 6.98a4.62 4.62 0 0 1-2.06 3.36 8.49 8.49 0 0 1-4.76 1.75c-0.029 0-0.076 6e-3 -0.076 6e-3a0.202 0.202 0 0 0-0.18 0.199 0.205 0.205 0 0 0 0.18 0.205 0.448 0.448 0 0 0 0.07 4e-3 19.1 19.1 0 0 0 8.14-1.59c2.59-1.22 4.07-2.96 4.18-4.9 0.112-1.97-1.2-3.9-3.68-5.43" fill="#4d7335" /><path d="M37.2913,10.6374a.508.508,0,1,0,1.016.001.508.508,0,0,0-1.016-.001m.093.001a.41633.41633,0,1,1,.417.433.41532.41532,0,0,1-.417-.433m.219.296h.093v-.252l.099-.002.16.254h.096l-.168-.26a.15019.15019,0,0,0,.155-.161c0-.113-.066-.168-.204-.168h-.231v.589m.093-.515h.121c.061,0,.13.012.13.09,0,.095-.074.097-.154.097h-.097Z" fill="#4d7335" /><path d="M44.5189,29.3938a.5075.5075,0,1,0,1.015,0,.50754.50754,0,0,0-1.015,0m.092,0a.41637.41637,0,1,1,.417.434.41593.41593,0,0,1-.417-.434m.22.297h.092v-.252l.1-.001.158.253h.098l-.168-.26a.15127.15127,0,0,0,.155-.161c0-.113-.066-.167-.205-.167h-.23v.588m.092-.515h.122c.06,0,.129.013.129.09,0,.095-.074.097-.154.097h-.097Z" fill="#4d7335" /><path d="M8.8291,39.833c0,.028.01.049-.024.049h-.726c-.028,0-.03-.01-.03-.028l-.032-.905s-.387.32-.534.435c-.031.024-.031.024-.062,0-.157-.125-.488-.435-.488-.435l-.025.882c0,.044-.007.049-.045.049h-.638c-.036,0-.036.01-.036-.023.008-.744.043-1.647.081-2.344.003-.043.014-.049.049-.025.391.285.993.795,1.157.941.171-.146.795-.669,1.196-.959.035-.028.045-.028.049.018.056.913.08,1.505.108,2.345" fill="#d0ab7b" /><path d="M12.0771,39.833c0,.028.011.049-.024.049h-.726c-.027,0-.031-.01-.031-.028l-.031-.905s-.387.32-.534.435c-.031.024-.031.024-.062,0-.156-.125-.488-.435-.488-.435l-.026.882c0,.044-.006.049-.044.049h-.638c-.035,0-.035.01-.035-.023.007-.744.042-1.647.08-2.344.004-.043.015-.049.049-.025.39.285.993.795,1.157.941.171-.146.795-.669,1.196-.959.035-.028.046-.028.049.018.055.913.081,1.505.108,2.345" fill="#d0ab7b" /><path d="M15.3252,39.833c0,.028.011.049-.024.049h-.725c-.027,0-.031-.01-.031-.028l-.032-.905s-.386.32-.534.435c-.031.024-.031.024-.061,0-.157-.125-.489-.435-.489-.435l-.025.882c0,.044-.007.049-.045.049h-.638c-.035,0-.035.01-.035-.023.007-.744.042-1.647.08-2.344.004-.043.014-.049.049-.025.391.285.993.795,1.157.941.171-.146.795-.669,1.197-.959.035-.028.044-.028.049.018.055.913.08,1.505.107,2.345" fill="#d0ab7b" /><path d="M18.5732,39.833c0,.028.011.049-.023.049h-.726c-.028,0-.031-.01-.031-.028l-.032-.905s-.387.32-.534.435c-.031.024-.031.024-.062,0-.156-.125-.488-.435-.488-.435l-.024.882c0,.044-.008.049-.045.049h-.639c-.034,0-.034.01-.034-.023.006-.744.041-1.647.08-2.344.003-.043.014-.049.048-.025.391.285.993.795,1.157.941.171-.146.795-.669,1.196-.959.035-.028.046-.028.049.018.055.913.081,1.505.108,2.345" fill="#d0ab7b" /><path d="M20.2822,39.8145c0,.047-.005.065-.062.065h-.832c-.05,0-.067-.013-.067-.07v-.809c0-.056.017-.069.072-.069h.82c.06,0,.069.029.069.073Z" fill="#d0ab7b" /><path d="M21.9697,39.8145c0,.047-.004.065-.06.065h-.832c-.05,0-.069-.013-.069-.07v-.809c0-.056.019-.069.073-.069h.82c.06,0,.068.029.068.073Z" fill="#d0ab7b" /><path d="M23.6592,39.8145c0,.047-.005.065-.06.065h-.832c-.051,0-.069-.013-.069-.07v-.809c0-.056.018-.069.073-.069h.819c.06,0,.069.029.069.073Z" fill="#d0ab7b" /><path d="M25.8574,39.8408c0,.033-.003.039-.043.039h-.935c-.043,0-.043.003-.043-.039v-2.125l-.784.048c-.03,0-.03-.005-.03-.029v-.734c0-.033,0-.044.034-.044h2.555c.031,0,.034.01.034.044v.734c0,.024-.003.029-.03.029l-.758-.048Z" fill="#d0ab7b" /><path d="m28.3 37.9a0.506 0.506 0 0 1 0.547 0.538 0.53 0.53 0 0 1-0.547 0.565 0.518 0.518 0 0 1-0.547-0.565 0.513 0.513 0 0 1 0.547-0.538m0-1.01a1.56 1.56 0 1 0 0 3.12 1.56 1.56 0 0 0 1.58-1.56 1.54 1.54 0 0 0-1.58-1.56" fill="#d0ab7b" /><path d="M31.0565,38.8796s.116-.254.195-.439c.038-.091.068-.173.068-.173s.03.082.069.173c.082.181.19.439.19.439h-.522m.758.638c.052.106.096.21.146.327a.06742.06742,0,0,0,.062.035h1.012c.048,0,.048,0,.017-.061-.534-.948-1.151-2.103-1.598-2.912a.62223.62223,0,0,0-.202,0c-.402.746-1.043,1.973-1.565,2.912-.026.043-.017.061.018.061h.881c.062,0,.066-.01.088-.048.051-.104.081-.195.137-.314Z" fill="#d0ab7b" /><path d="M33.1377,39.2412l.642-.241c.039-.017.043-.013.051.017a.42963.42963,0,0,0,.41.285c.202,0,.301-.09.301-.221,0-.142-.12-.193-.374-.223-.031-.006-.078-.009-.108-.013a.86.86,0,0,1-.896-.875c0-.671.435-1.103,1.253-1.103.604,0,.966.259,1.048.634.008.051.012.055-.031.073l-.607.224c-.035.017-.039.017-.051-.018a.37951.37951,0,0,0-.393-.246c-.202,0-.28.087-.28.204,0,.13.113.172.431.22.042.009.095.012.155.021.482.074.875.28.875.887a1.31807,1.31807,0,0,1-2.444.457c-.025-.069-.021-.069.018-.082" fill="#d0ab7b" /><path d="M37.6182,39.8408c0,.033-.004.039-.042.039h-.937c-.042,0-.042.003-.042-.039v-2.125l-.784.048c-.031,0-.031-.005-.031-.029v-.734c0-.033,0-.044.035-.044h2.555c.03,0,.035.01.035.044v.734c0,.024-.005.029-.031.029l-.758-.048Z" fill="#d0ab7b" /><path d="M40.6465,38.9482v.875c0,.057,0,.06-.047.06h-.956c-.03,0-.03-.003-.03-.06v-.798s-.681-1.171-1.143-2.008c-.029-.06-.025-.06.027-.06h1.086c.034,0,.042,0,.073.07.16.361.478,1.055.478,1.055s.279-.715.414-1.081c.013-.039.013-.044.064-.044h.978c.061,0,.048.005.026.056-.413.841-.97,1.935-.97,1.935" fill="#d0ab7b" /><path d="M42.1856,38.9399a3.95049,3.95049,0,0,1-.26-.672c-.008-.526-.003-.875,0-1.349a.04243.04243,0,0,1,.044-.043c.349-.014.595-.014.953,0,.033,0,.038.013.038.052.022.465.022.818.013,1.34a4.04631,4.04631,0,0,1-.264.672c-.202.004-.317.013-.524,0m.788.189c0,.724,0,.751-.025.751h-.996c0-.312-.022-.759,0-.759.319,0,1.021-.005,1.021.008" fill="#d0ab7b" /><path d="M43.2501,36.9275a.464.464,0,1,0,.928.001.464.464,0,0,0-.928-.001m.084.001a.3808.3808,0,1,1,.382.396.38152.38152,0,0,1-.382-.396m.201.271h.084v-.232l.091-.001.145.233h.089l-.152-.238a.13707.13707,0,0,0,.141-.147c0-.104-.061-.153-.188-.153h-.21v.538m.084-.471h.111c.057,0,.118.012.118.083,0,.086-.067.088-.141.088h-.088Z" fill="#d0ab7b" /></g></svg>