<svg xmlns="http://www.w3.org/2000/svg" version="1.1" viewBox="0 0 50 50"><defs><linearGradient id="Background"><stop offset="0" stop-color="#2155d6" /></linearGradient><linearGradient id="Frame"><stop offset="0" stop-color="#2155d6" /></linearGradient><linearGradient id="Pictogram"><stop offset="0" stop-color="#ffffff" /></linearGradient></defs><path d="m5.75 2.75h38.5c1.66 0 3 1.34 3 3v38.5c0 1.66-1.34 3-3 3h-38.5c-1.66 0-3-1.34-3-3v-38.5c0-1.66 1.34-3 3-3z" fill="url(#Background)" /><path d="m5.75 2.75h38.5c1.66 0 3 1.34 3 3v38.5c0 1.66-1.34 3-3 3h-38.5c-1.66 0-3-1.34-3-3v-38.5c0-1.66 1.34-3 3-3z" fill="none" stroke="url(#Frame)" stroke-miterlimit="10" stroke-width="1.5" /><g aria-label="P+R" fill="url(#Pictogram)" transform="translate(7.35 32.3)"><path d="m2.09 0v-14.5h4.8q0.84 0 1.53 0.142 0.693 0.137 1.24 0.405 0.542 0.269 0.942 0.659 0.4 0.391 0.664 0.894 0.269 0.498 0.396 1.1 0.132 0.605 0.132 1.3 0 0.698-0.127 1.31-0.122 0.605-0.386 1.11-0.259 0.503-0.669 0.894-0.405 0.391-0.977 0.659-0.566 0.264-1.3 0.405-0.732 0.142-1.65 0.142h-2.71v5.46zm4.39-6.96q0.923 0 1.57-0.2 0.645-0.205 1.04-0.591 0.4-0.391 0.576-0.952 0.181-0.562 0.181-1.27 0-0.679-0.181-1.23-0.176-0.557-0.566-0.947t-1.01-0.605q-0.615-0.215-1.49-0.215h-2.63v6.02z" /><path d="m16.6-0.879v-4.36h-4.32v-1.46h4.32v-4.26h1.63v4.26h4.33v1.46h-4.33v4.36z" /><path d="m33 0-3.31-4.89q-0.151-0.22-0.278-0.391-0.127-0.176-0.254-0.303-0.122-0.132-0.259-0.22-0.132-0.0928-0.283-0.151-0.146-0.0586-0.327-0.083t-0.396-0.0244h-1.6v6.06h-1.88v-14.5h4.65q1.25 0 2.17 0.259 0.923 0.259 1.53 0.776 0.61 0.518 0.903 1.29 0.298 0.776 0.298 1.82 0 0.913-0.254 1.61-0.249 0.693-0.698 1.2-0.449 0.498-1.07 0.811-0.615 0.312-1.35 0.464 0.303 0.156 0.571 0.425 0.269 0.264 0.532 0.645l3.54 5.19zm-4.31-7.52q0.82 0 1.45-0.161 0.625-0.166 1.04-0.513t0.63-0.879q0.215-0.532 0.215-1.26 0-0.674-0.186-1.17t-0.581-0.82q-0.396-0.327-1.02-0.488-0.615-0.161-1.49-0.161h-2.46v5.46z" /></g><line fill="none" stroke="url(#Pictogram)" stroke-miterlimit="10" stroke-width="1.5" x1="5.5" x2="44.5" y1="11.5" y2="11.5" /><line fill="none" stroke="url(#Pictogram)" stroke-miterlimit="10" stroke-width="1.5" x1="5.5" x2="44.5" y1="38.5" y2="38.5" /></svg>