<svg xmlns="http://www.w3.org/2000/svg" xmlns:ns1="http://www.w3.org/1999/xlink" viewBox="0 0 50 50"><defs><linearGradient id="Background"><stop offset="0" stop-color="#ffffff" /></linearGradient><linearGradient id="Frame"><stop offset="0" stop-color="#000000" /></linearGradient> <linearGradient id="Pictogram"><stop offset="0" stop-color="#000000" /></linearGradient></defs><defs><style>.cls-1{fill:url(#verlauf_einfaerbbar_hintergrund);}.cls-2{fill:url(#Verlauf_einfaerbbar_text);}.cls-3{font-size:20px;font-family:AudiTypeDisplayHigh-Normal, Audi Type Display High;}.cls-4{font-size:14px;font-family:AudiTypeDisplayHigh-Normal, Audi Type Display High;fill:url(#Verlauf_einfaerbbar_text-2);}.cls-5{fill:url(#Verlauf_einfaerbbar_text-3);}</style><linearGradient gradientTransform="matrix(1, 0, 0, -1, 0, 49.88976)" gradientUnits="userSpaceOnUse" id="verlauf_einfaerbbar_hintergrund" x1="2.75" x2="47.25" y1="24.88976" y2="24.88976"><stop offset="0" stop-color="#fff" /></linearGradient><linearGradient gradientTransform="matrix(1, 0, 0, -1, 0, 49.88976)" gradientUnits="userSpaceOnUse" id="Verlauf_einfaerbbar_text" x1="2" x2="48" y1="24.88964" y2="24.88964"><stop offset="0" stop-color="#010101" /></linearGradient><linearGradient gradientTransform="matrix(1, 0, 0, 1, 0, 0)" id="Verlauf_einfaerbbar_text-2" x1="58.1875" x2="58.6875" y1="35.27746" y2="35.27746" ns1:href="#Verlauf_einfaerbbar_text" /><linearGradient gradientTransform="matrix(1, 0, 0, 1, 0, 0)" id="Verlauf_einfaerbbar_text-3" x1="58.1875" x2="58.6875" y1="35.48644" y2="35.48644" ns1:href="#Verlauf_einfaerbbar_text" /></defs><g data-name="Ebene 1" id="Ebene_1"><g data-name="d0 t311 2s0" id="d0_t311_2s0"><rect class="cls-1" fill="none" height="44.5" rx="3" stroke="url(#Frame)" stroke-miterlimit="10" stroke-width="1.5" width="44.5" x="2.75" y="2.75" /><path class="cls-2" d="M44.25,48.00012H5.75a3.75442,3.75442,0,0,1-3.75-3.75v-38.5a3.7541,3.7541,0,0,1,3.75-3.75h38.5a3.75441,3.75441,0,0,1,3.75,3.75v38.5A3.75473,3.75473,0,0,1,44.25,48.00012Zm-38.5-44.5a2.25246,2.25246,0,0,0-2.25,2.25v38.5a2.25278,2.25278,0,0,0,2.25,2.25h38.5a2.25309,2.25309,0,0,0,2.25-2.25v-38.5a2.25277,2.25277,0,0,0-2.25-2.25Z" /></g></g><g id="Icon"><text class="cls-3" text-anchor="middle" transform="translate(25 24.91746)">{charging_power}</text><text class="cls-4" text-anchor="middle" transform="translate(25 40.91746)">{unit}</text></g></svg>