<svg xmlns="http://www.w3.org/2000/svg" viewBox="0 0 50 50"><defs><linearGradient><stop offset="0" stop-color="#2155d6" /></linearGradient><linearGradient id="Frame"><stop offset="0" stop-color="#ffffff" /></linearGradient></defs><rect fill="#fff" height="44.5" rx="3" width="44.5" x="2.75" y="2.75" /><rect fill="none" height="44.5" rx="3" stroke="url(#Frame)" stroke-miterlimit="10" stroke-width="1.5" width="44.5" x="2.75" y="2.75" /><path d="m10.3 23.7a1.57 1.57 0 0 0-0.218-0.722l-1.14-2a1.71 1.71 0 0 1-0.185-0.487l-0.0504 0.084a1.59 1.59 0 0 0 0 1.6l0.924 1.6a1.59 1.59 0 0 1 0 1.6l-0.0504 0.084a1.71 1.71 0 0 0-0.185-0.487l-0.84-1.46-0.537-0.94a1.71 1.71 0 0 1-0.185-0.487l-0.0504 0.084a1.59 1.59 0 0 0 0 1.6l0.924 1.6a1.59 1.59 0 0 1 0 1.6l-0.0504 0.084a1.71 1.71 0 0 0-0.185-0.487l-1.16-2a1.77 1.77 0 0 1-0.218-0.873c-1.23 0.319-2.08 1.01-2.08 1.8 0 1.11 1.65 2 3.68 2s3.68-0.89 3.68-2c0.0168-0.756-0.823-1.44-2.07-1.76zm3.48 3.41a2.29 2.29 0 0 1 0.134-0.705 3.15 3.15 0 0 0 1.26 0.269c0.638 0 1.01-0.202 1.01-0.621 0-0.403-0.269-0.588-0.907-0.873l-0.353-0.134c-0.655-0.285-1.09-0.655-1.09-1.38 0-0.789 0.554-1.29 1.66-1.29a3.81 3.81 0 0 1 1.26 0.202 2.63 2.63 0 0 1-0.134 0.688 3.64 3.64 0 0 0-1.14-0.202c-0.605 0-0.873 0.235-0.873 0.605 0 0.353 0.269 0.571 0.756 0.772l0.369 0.151c0.873 0.369 1.24 0.772 1.24 1.44 0 0.789-0.605 1.34-1.78 1.34a3.25 3.25 0 0 1-1.41-0.269zm6.9-3.31v3.46h-0.705l-0.0336-0.42a1.07 1.07 0 0 1-0.974 0.504c-0.907 0-1.53-0.672-1.53-1.83a1.73 1.73 0 0 1 1.93-1.91 4.38 4.38 0 0 1 1.31 0.201zm-0.756 2.67v-2.17a2.72 2.72 0 0 0-0.554-0.0336c-0.789 0-1.16 0.487-1.16 1.26 0 0.705 0.285 1.21 0.957 1.21a1.32 1.32 0 0 0 0.756-0.269zm4.65-1.53v2.32h-0.756v-2.18c0-0.554-0.185-0.806-0.94-0.806a4 4 0 0 0-0.605 0.0504v2.94h-0.756v-3.46a6.64 6.64 0 0 1 1.38-0.202c1.28 0.0168 1.68 0.504 1.68 1.34zm2.12 1.76a1.54 1.54 0 0 0 0.588-0.101c-0.0168 0.202-0.0504 0.437-0.084 0.638a1.71 1.71 0 0 1-0.638 0.118 1.06 1.06 0 0 1-1.21-1.18v-3.64a2.37 2.37 0 0 1 0.756-0.118v1.31h1.21c-0.0168 0.235-0.0336 0.453-0.0672 0.655h-1.14v1.7c4e-5 0.437 0.218 0.621 0.588 0.621zm4.08-2.91v3.46h-0.705l-0.0336-0.42a1.07 1.07 0 0 1-0.974 0.504c-0.907 0-1.53-0.672-1.53-1.83a1.73 1.73 0 0 1 1.93-1.91 4.47 4.47 0 0 1 1.31 0.202zm-0.772 2.67v-2.17a2.72 2.72 0 0 0-0.554-0.0336c-0.789 0-1.16 0.487-1.16 1.26 0 0.705 0.285 1.21 0.957 1.21a1.27 1.27 0 0 0 0.756-0.269zm4.67-1.53v2.32h-0.772v-2.18c0-0.554-0.185-0.806-0.94-0.806a4 4 0 0 0-0.605 0.0504v2.94h-0.756v-3.46a6.64 6.64 0 0 1 1.38-0.202c1.28 0.0168 1.7 0.504 1.7 1.34zm3.85-2.52v4.84h-0.705l-0.0336-0.437a1.06 1.06 0 0 1-0.991 0.521c-0.907 0-1.53-0.672-1.53-1.83a1.73 1.73 0 0 1 1.93-1.91 3.14 3.14 0 0 1 0.571 0.0504v-1.14a2.82 2.82 0 0 1 0.756-0.084zm-0.756 4.05v-2.13a3.7 3.7 0 0 0-0.605-0.0672c-0.756 0-1.11 0.47-1.11 1.26 0 0.705 0.285 1.21 0.957 1.21a1.36 1.36 0 0 0 0.756-0.269zm4.58-0.688h-2.43a0.991 0.991 0 0 0 1.14 0.907 2.71 2.71 0 0 0 1.21-0.269c-0.0336 0.202-0.0672 0.47-0.118 0.688a2.75 2.75 0 0 1-1.13 0.218 1.68 1.68 0 0 1-1.88-1.88c0-1.02 0.47-1.85 1.68-1.85a1.44 1.44 0 0 1 1.56 1.58 3.45 3.45 0 0 1-0.0336 0.605zm-2.43-0.638h1.71a0.793 0.793 0 0 0-0.823-0.907c-0.554 0.0168-0.84 0.319-0.89 0.907zm5.1-1.49a3.42 3.42 0 0 1-0.0672 0.655c-0.185-0.0168-0.353-0.0336-0.571-0.0336-0.185 0-0.369 0.0168-0.554 0.0336v2.96h-0.756v-3.46a4.35 4.35 0 0 1 1.29-0.202c0.218 0.0168 0.487 0.0168 0.655 0.0504z" fill="#ea1d25" /></svg>