<svg xmlns="http://www.w3.org/2000/svg" viewBox="0 0 50 50"><defs><linearGradient id="Background"><stop offset="0" stop-color="#000000" /></linearGradient><linearGradient id="Frame"><stop offset="0" stop-color="#ffffff" /></linearGradient><linearGradient id="Pictogram"><stop offset="0" stop-color="#ffffff" /></linearGradient></defs><rect fill="url(#Background)" height="44.5" rx="3" width="44.5" x="2.75" y="2.75" /><rect fill="none" height="44.5" rx="3" stroke="url(#Frame)" stroke-miterlimit="10" stroke-width="1.5" width="44.5" x="2.75" y="2.75" /><line fill="none" stroke="url(#Pictogram)" stroke-miterlimit="10" stroke-width="1.5" x1="9.5" x2="32.5" y1="43" y2="43" /><line fill="none" stroke="url(#Pictogram)" stroke-miterlimit="10" stroke-width="1.5" x1="13.4" x2="28.6" y1="20" y2="20" /><path d="m11.5 43v-33.6a1.73 1.73 0 0 1 1.6-1.9h15.5a1.97 1.97 0 0 1 1.9 1.9v33.6z" fill="none" stroke="url(#Pictogram)" stroke-miterlimit="10" stroke-width="1.5" /><path d="M31,21.5h2.4a2.369,2.369,0,0,1,2.4,2.4V34.5c0,.9-.3,4.7,3.5,4.7,3.9,0,3.8-2.7,3.6-4.1S41.4,26,41.7,20.2C42,12,35,8,35,8" fill="none" stroke="url(#Pictogram)" stroke-miterlimit="10" stroke-width="1.5" /><path d="m41.7 18.3 1.8-1.3a20.4 20.4 0 0 0-3.19-6 16.6 16.6 0 0 0-4.89-3.7l-0.421 0.702a18.6 18.6 0 0 1 4.5 4.3c1.5 2.1 2.2 6 2.2 6z" fill="url(#Pictogram)" /></svg>