<svg xmlns="http://www.w3.org/2000/svg" viewBox="0 0 50 50"><defs><linearGradient><stop offset="0" /></linearGradient><linearGradient id="Frame"><stop offset="0" stop-color="#ffffff" /></linearGradient></defs><defs><clipPath id="clip-path"><polygon fill="none" points="3.44 3.34 46.5 3.34 46.5 46.6 3.44 46.4" /></clipPath><clipPath id="clip-path-2"><polygon fill="none" points="7.39 25.5 25 19.6 7.39 13.7" /></clipPath><linearGradient gradientTransform="matrix(-18.2 -12.1 18.2 -12.1 119 11007)" gradientUnits="userSpaceOnUse" id="Unbenannter_Verlauf_8" x1="456" x2="457" y1="451" y2="451"><stop offset="0" stop-color="#06549b" /><stop offset=".55" stop-color="#2fa1d3" /><stop offset=".9" stop-color="#2fa1d3" /><stop offset="1" stop-color="#2fa1d3" /></linearGradient><clipPath id="clip-path-3"><polygon fill="none" points="25 19.6 7.4 25.5 25 31.4 42.7 25.5 42.7 13.7" /></clipPath><linearGradient gradientTransform="matrix(36.3 -24.5 49.1 18.2 -36983 2820)" gradientUnits="userSpaceOnUse" id="Unbenannter_Verlauf_9" x1="434" x2="435" y1="433" y2="433"><stop offset="0" stop-color="#1371b1" /><stop offset=".05" stop-color="#2fa1d3" /><stop offset=".45" stop-color="#2fa1d3" /><stop offset=".6" stop-color="#06569c" /><stop offset="1" stop-color="#06569c" /></linearGradient><clipPath id="clip-path-4"><polygon fill="none" points="7.39 39.1 25 33.3 7.39 27.4" /></clipPath><linearGradient gradientTransform="matrix(-18.2 -7.27 10.9 -12.1 3363 8950)" gradientUnits="userSpaceOnUse" id="Unbenannter_Verlauf_10" x1="460" x2="461" y1="460" y2="460"><stop offset="0" stop-color="#9d1a36" /><stop offset=".4" stop-color="#9d1a36" /><stop offset=".6" stop-color="#e6192f" /><stop offset="1" stop-color="#e6192f" /></linearGradient><clipPath id="clip-path-5"><polygon fill="none" points="25 33.3 7.4 39.1 25 45 42.7 39.1 42.7 27.4" /></clipPath><linearGradient gradientTransform="matrix(36.3 -24.5 49.1 18.2 -36985 2835)" gradientUnits="userSpaceOnUse" id="Unbenannter_Verlauf_11" x1="434" x2="435" y1="433" y2="433"><stop offset="0" stop-color="#a21c38" /><stop offset=".13" stop-color="#e6192f" /><stop offset=".45" stop-color="#e6192f" /><stop offset=".6" stop-color="#a71c37" /><stop offset="1" stop-color="#a71c37" /></linearGradient></defs><rect fill="#fff" height="44.5" rx="3" width="44.5" x="2.75" y="2.75" /><rect fill="none" height="44.5" rx="3" stroke="url(#Frame)" stroke-miterlimit="10" stroke-width="1.5" width="44.5" x="2.75" y="2.75" /><g clip-path="url(#clip-path)" fill="#0056a2"><path d="m12.4 12.3a3.81 3.81 0 0 1-1.61 0.291 3.29 3.29 0 0 1-3.49-3.47 3.38 3.38 0 0 1 3.64-3.54 2.97 2.97 0 0 1 1.46 0.291l-0.246 1.39a2.56 2.56 0 0 0-1.15-0.25 1.9 1.9 0 0 0-1.98 2.09 1.87 1.87 0 0 0 1.99 2.08 2.51 2.51 0 0 0 1.15-0.259z" /><path d="m16.1 7.33a1.79 1.79 0 0 0-1.47 0.706h-0.0175v-2.4l-1.5 0.52v6.26h1.5v-2.92a0.824 0.824 0 0 1 0.801-0.877c0.564 0 0.78 0.444 0.78 1.09v2.71h1.5v-2.92c0-1.49-0.64-2.17-1.6-2.17" /><path d="m20 10.4c0.0553 0.635 0.581 0.971 1.39 0.978a3.02 3.02 0 0 0 1.44-0.362l0.226 1.17a4.2 4.2 0 0 1-1.89 0.398 2.51 2.51 0 0 1-2.75-2.72 2.44 2.44 0 0 1 2.58-2.62c1.59 0 2.3 1.17 2.3 2.64a4.52 4.52 0 0 1-0.0359 0.523h-3.27m1.81-1.07a0.917 0.917 0 0 0-0.875-1.01 0.992 0.992 0 0 0-0.94 1.01z" /><polygon points="25.1 12.4 23.4 7.49 25.1 7.49 26 11 26 11 26.9 7.49 28.5 7.49 26.9 12.4" /><path d="m29 9.11c0-0.725-0.0223-1.2-0.0543-1.62h1.42l0.0427 0.915h0.0378a1.34 1.34 0 0 1 1.21-1.03 1.78 1.78 0 0 1 0.503 0.031v1.44a2.59 2.59 0 0 0-0.604-0.0408 1.14 1.14 0 0 0-1.03 0.959 1.87 1.87 0 0 0-0.0291 0.342v2.31h-1.5z" /><path d="m37.4 9.96a2.55 2.55 0 1 1-5.1 0 2.55 2.55 0 1 1 5.1 0m-1.56 0c0-0.803-0.276-1.5-0.993-1.5-0.718 0-0.992 0.698-0.992 1.5s0.274 1.5 0.992 1.5c0.717 0 0.993-0.697 0.993-1.5" /><path d="m38.1 9.06c0-0.615-0.0223-1.14-0.0553-1.57h1.42l0.033 0.689h0.0301a1.82 1.82 0 0 1 1.52-0.847c0.992 0 1.64 0.676 1.64 2.13v2.96h-1.5v-2.73c0-0.636-0.218-1.07-0.761-1.07a0.815 0.815 0 0 0-0.772 0.574 1.23 1.23 0 0 0-0.0505 0.383v2.84h-1.5z" /></g><g clip-path="url(#clip-path-2)"><polygon fill="url(#Unbenannter_Verlauf_8)" points="33.8 19.6 16.2 7.85 -1.43 19.6 16.2 31.4" /></g><g clip-path="url(#clip-path-3)"><polygon fill="url(#Unbenannter_Verlauf_9)" points="30.2 39.8 59.5 20 19.9 5.3 -9.47 25.1" /></g><g clip-path="url(#clip-path-4)"><polygon fill="url(#Unbenannter_Verlauf_10)" points="32.8 30.5 12.1 22.2 -0.388 36 20.4 44.3" /></g><g clip-path="url(#clip-path-5)"><polygon fill="url(#Unbenannter_Verlauf_11)" points="30.2 53.5 59.5 33.6 19.9 19 -9.47 38.8" /></g></svg>