<svg xmlns="http://www.w3.org/2000/svg" viewBox="0 0 50 50"><defs><linearGradient><stop offset="0" /></linearGradient><linearGradient id="Frame"><stop offset="0" stop-color="#ffffff" /></linearGradient></defs><rect fill="#fff" height="44.5" rx="3" width="44.5" x="2.75" y="2.75" /><rect fill="none" height="44.5" rx="3" stroke="url(#Frame)" stroke-miterlimit="10" stroke-width="1.5" width="44.5" x="2.75" y="2.75" /><path d="m25 44.5c2.12-2.39 5.32-2.92 8.55-3.24 4.06-0.407 5.64-0.826 7.89-3.24a9.8 9.8 0 0 0 2.43-6.48 16.8 16.8 0 0 0-1.03-5.76c-2.1-5.68-1.63-8.02 1.67-12l-7.93-7.93s-5.09 4.73-11.6-0.269c-6.44 5-11.6 0.269-11.6 0.269l-7.93 7.93c3.37 3.96 3.85 6.35 1.67 12a15.9 15.9 0 0 0-1.04 5.76 9.67 9.67 0 0 0 2.43 6.48c2.33 2.37 3.84 2.79 7.88 3.24 3.25 0.361 6.44 0.857 8.56 3.24" fill="#161413" /><path d="m25 42.5c3.29-2.12 4.95-2.07 8.33-2.57 2.93-0.432 4.85-0.661 6.98-2.79 3.02-3.02 2.73-7.31 0.904-12.2-2.12-5.63-0.249-8.92 1.53-11.2l-6.3-6.3s-4.95 3.92-11.4-0.315c-6.49 4.23-11.4 0.315-11.4 0.315l-6.31 6.3c1.76 2.25 3.7 5.49 1.54 11.2-1.86 4.87-2.07 9.14 0.901 12.2 2.12 2.14 4.01 2.37 6.98 2.79 3.47 0.494 5.04 0.45 8.33 2.57" fill="#fff" /><path d="m25 40.5c3.56-1.97 5.73-1.77 9.72-2.39 6.83-1.05 6.41-6.76 5.98-8.98a16.8 16.8 0 0 0-0.466-1.87c-0.552-1.6-1.8-4.67-1.6-7.74h-27.3c0.256 3.21-1.11 6.47-1.65 7.99-0.117 0.339-0.272 0.955-0.353 1.32-0.427 1.94-1.2 8.14 5.92 9.28 4.26 0.682 6.16 0.411 9.73 2.39" fill="#e20010" /><polygon fill="#161413" points="15.9 11.8 16.9 11.8 16.9 14.1 18.1 14.1 18.1 11.8 19.2 11.8 19.2 17.6 18.1 17.6 18.1 15.1 16.9 15.1 16.9 17.6 15.9 17.6" /><rect fill="#161413" height="5.81" width="1.17" x="20.4" y="11.8" /><path d="m36.7 11.6c1.66 0 1.78 1.05 1.76 1.87h-1.15c-0.00527-1.28-1.26-1.09-1.25-0.291 0.00527 0.441 0.811 0.905 1.48 1.32a2.03 2.03 0 0 1 1.03 1.62c0.0116 0.571-0.247 1.64-1.87 1.64-1.65 0-1.79-1.23-1.79-1.92h1.11c0 1.42 1.34 1.25 1.35 0.321 0 0 0.0801-0.434-0.656-0.877-0.829-0.494-1.77-0.866-1.74-2.08a1.52 1.52 0 0 1 1.73-1.6" fill="#161413" /><polygon fill="#161413" points="25.8 11.8 26.9 11.8 26.9 16.7 28.2 16.7 28.2 17.6 25.8 17.6" /><polygon fill="#161413" points="22.7 11.8 23.9 11.8 23.9 16.7 25.2 16.7 25.2 17.6 22.7 17.6" /><path d="m11.8 11.8v5.86h1.17v-1.91c0.327-0.0126 2.24 0.188 2.29-1.88a1.88 1.88 0 0 0-2.29-2.07zm1.17 0.882v2.1c0.173 0 1.21 0.237 1.21-1.07-0.00316-1.16-0.969-1.03-1.21-1.03" fill="#161413" fill-rule="evenodd" /><path d="m31.1 11.8v5.86h1.17v-1.91c0.327-0.0126 2.24 0.188 2.29-1.88a1.88 1.88 0 0 0-2.29-2.07zm1.17 0.882v2.1c0.173 0 1.21 0.237 1.21-1.07-0.00527-1.16-0.968-1.03-1.21-1.03" fill="#161413" fill-rule="evenodd" /><rect fill="#161413" height="5.81" width="1.17" x="28.8" y="11.8" /><path d="m43 38.8a1.46 1.46 0 0 0-1.5 1.46 1.5 1.5 0 1 0 3 0 1.47 1.47 0 0 0-1.5-1.46" /><path d="m43 39a1.16 1.16 0 0 1 1.19 1.19 1.19 1.19 0 1 1-2.39 0 1.16 1.16 0 0 1 1.19-1.19" fill="#fff" /><path d="m42.4 39.4v1.72h0.265v-0.753h0.31l0.443 0.753h0.307l-0.485-0.753a0.461 0.461 0 0 0 0.443-0.485c0-0.333-0.217-0.485-0.619-0.485z" /><path d="m42.7 39.6h0.354c0.179 0 0.399 0.0566 0.399 0.265 0 0.262-0.223 0.265-0.443 0.265h-0.31z" fill="#fff" /><path d="m33.4 26.7c2.41 0.871 1.82 3.95 0.604 5.94-1.51 2.48-4.81 2.78-6.75 2.03-3.1-1.19-2.16-4.65-1.15-7.5 1.46-4.1 4.3-6.04 8.01-4.8a2.96 2.96 0 0 1 2.07 3.24l-3.22-0.236s0.201-1.32-0.723-1.32c-1.42 0-2.33 3.02-2.33 3.02a3.61 3.61 0 0 1 3.48-0.376m-4.48 3.41c0.394-0.895 1-1.85 1.8-1.69 1.08 0.223 0.707 1.66 0.33 2.68-0.38 1.03-1.14 2.15-2.08 1.89-0.868-0.23-0.507-1.85-0.0548-2.88m-7.39-3.41c2.41 0.871 1.82 3.95 0.609 5.94-1.51 2.48-4.81 2.78-6.76 2.03-3.11-1.19-2.17-4.65-1.15-7.5 1.44-4.01 4.19-6.06 8.01-4.8a2.95 2.95 0 0 1 2.07 3.24l-3.22-0.236s0.205-1.32-0.719-1.32c-1.42 0-2.33 3.02-2.33 3.02a3.6 3.6 0 0 1 3.48-0.376m-4.46 3.41c0.398-0.895 0.976-1.85 1.78-1.69 1.08 0.223 0.705 1.66 0.33 2.68-0.381 1.03-1.14 2.15-2.08 1.89-0.871-0.23-0.483-1.85-0.0306-2.88" fill="#fff" fill-rule="evenodd" /></svg>