<svg xmlns="http://www.w3.org/2000/svg" viewBox="0 0 50 50"><defs><linearGradient id="Background"><stop offset="0" stop-color="#5a9fba" /></linearGradient><linearGradient id="Pictogram"><stop offset="0" stop-color="#ffffff" /></linearGradient></defs><rect fill="url(#Background)" height="44.5" rx="3" width="44.5" x="2.75" y="2.75" /><rect fill="none" height="44.5" rx="3" stroke="url(#Background)" stroke-miterlimit="10" stroke-width="1.5" width="44.5" x="2.75" y="2.75" /><path d="m25 17a9.55 9.55 0 0 1 6.51-2.2 9.04 9.04 0 0 1 6.5 2.2v18a9.04 9.04 0 0 0-6.5-2.2 9.55 9.55 0 0 0-6.51 2.2" fill="none" stroke="url(#Pictogram)" stroke-miterlimit="10" stroke-width="1.5" /><path d="m25 35a9.09 9.09 0 0 0-6.5-2.2 10.2 10.2 0 0 0-6.51 2.2v-18a9.55 9.55 0 0 1 6.51-2.2 9.04 9.04 0 0 1 6.5 2.2" fill="none" stroke="url(#Pictogram)" stroke-miterlimit="10" stroke-width="1.5" /><line fill="none" stroke="url(#Pictogram)" stroke-miterlimit="10" stroke-width="1.5" x1="25" x2="25" y1="16.2" y2="35.3" /><rect fill="url(#Pictogram)" height=".395" width="1.07" x="24.5" y="35.1" /></svg>