<svg xmlns="http://www.w3.org/2000/svg" viewBox="0 0 50 50"><defs><linearGradient id="Background"><stop offset="0" stop-color="#5eb7a8" /></linearGradient><linearGradient id="Frame"><stop offset="0" stop-color="#5eb7a8" /></linearGradient><linearGradient id="Pictogram"><stop offset="0" stop-color="#ffffff" /></linearGradient></defs><rect fill="url(#Background)" height="44.5" rx="3" width="44.5" x="2.75" y="2.75" /><rect fill="none" height="44.5" rx="3" stroke="url(#Frame)" stroke-miterlimit="10" stroke-width="1.5" width="44.5" x="2.75" y="2.75" /><rect fill="none" height="31" stroke="url(#Pictogram)" stroke-miterlimit="10" stroke-width="1.5" width="24" x="13" y="9.5" /><line fill="none" stroke="url(#Pictogram)" stroke-miterlimit="10" stroke-width="1.5" x1="19.5" x2="19.5" y1="9.5" y2="40.5" /><line fill="none" stroke="url(#Pictogram)" stroke-miterlimit="10" stroke-width="1.5" x1="30.5" x2="30.5" y1="9.5" y2="40.5" /><line fill="none" stroke="url(#Pictogram)" stroke-miterlimit="10" stroke-width="1.5" x1="20" x2="30" y1="20" y2="20" /><line fill="none" stroke="url(#Pictogram)" stroke-miterlimit="10" stroke-width="1.5" x1="20" x2="30" y1="30" y2="30" /><rect fill="none" height="2" stroke="url(#Pictogram)" stroke-miterlimit="10" width="2" x="15.2" y="24" /><rect fill="none" height="2" stroke="url(#Pictogram)" stroke-miterlimit="10" width="2" x="15.2" y="18" /><rect fill="none" height="2" stroke="url(#Pictogram)" stroke-miterlimit="10" width="2" x="15.2" y="12" /><rect fill="none" height="2" stroke="url(#Pictogram)" stroke-miterlimit="10" width="2" x="15.2" y="30" /><rect fill="none" height="2" stroke="url(#Pictogram)" stroke-miterlimit="10" width="2" x="15.2" y="36" /><rect fill="none" height="2" stroke="url(#Pictogram)" stroke-miterlimit="10" width="2" x="32.8" y="23.9" /><rect fill="none" height="2" stroke="url(#Pictogram)" stroke-miterlimit="10" width="2" x="32.8" y="17.9" /><rect fill="none" height="2" stroke="url(#Pictogram)" stroke-miterlimit="10" width="2" x="32.8" y="11.9" /><rect fill="none" height="2" stroke="url(#Pictogram)" stroke-miterlimit="10" width="2" x="32.8" y="29.9" /><rect fill="none" height="2" stroke="url(#Pictogram)" stroke-miterlimit="10" width="2" x="32.8" y="35.9" /></svg>