<svg xmlns="http://www.w3.org/2000/svg" viewBox="0 0 50 50"><defs><linearGradient><stop offset="0" /></linearGradient><linearGradient id="Frame"><stop offset="0" stop-color="#ffffff" /></linearGradient></defs><rect fill="#fff" height="44.5" rx="3" width="44.5" x="2.75" y="2.75" /><rect fill="none" height="44.5" rx="3" stroke="url(#Frame)" stroke-miterlimit="10" stroke-width="1.5" width="44.5" x="2.75" y="2.75" /><rect fill="#1670b9" height="27.5" transform="translate(-10.3 25) rotate(-45)" width="27.5" x="11.2" y="11.2" /><path d="m34.6 19.9c0.999 0 1.13 0.739 1.13 1.56 2e-3 1.26 2e-3 3.18 2e-3 5.2 0.348 7e-3 2 0 2 0 0.939 0 1.55 0.13 1.52 0.99-0.035 1.17-1.1 1.01-1.87 1.01h-2.86c-1.22-1e-3 -1.04-1.08-1.04-2.43 0-1.14 0-3.25-1e-3 -4.77-0.044-0.825 0.217-1.56 1.13-1.56" fill="#fff" /><path d="m14.3 19.9c1.19 0 1.56 0.755 1.82 1.56l1.74 5.21s0.869 1.78-0.738 2c-1.16-0.176-1.17-0.652-1.56-2.04h-2.47c-0.477 1.52-0.304 1.87-1.48 2.04-1.65-0.175-0.826-2.04-0.826-2.04l1.65-5.12c0.257-0.797 0.625-1.62 1.87-1.62m0 1.82 0.827 3.18-1.61-2e-3 0.781-3.18" fill="#fff" fill-rule="evenodd" /><path d="m22.4 20.1a2.62 2.62 0 0 1 2.52 1.13c0.912 1.22 0.461 3.61-1.22 3.87 0.303 0.565 1.3 2.08 1.3 2.08a1.01 1.01 0 0 1-0.279 1.3c-1.26 0.478-1.59-0.262-1.59-0.262s-0.912-1.56-1.48-2.65h-1.04v2.17a0.898 0.898 0 0 1-1.04 0.956 0.979 0.979 0 0 1-1.04-0.999l-2e-3 -6.21c0-1.09 0.043-1.39 2.08-1.39h1.78m-1.78 1.78c1.87 0.036 2.65-0.172 2.65 0.914 2e-3 1.22-0.867 1.01-2.65 1.02 0-0.712 0-1.06-1e-3 -1.93" fill="#fff" fill-rule="evenodd" /><path d="m29.2 19.9c1.19 0 1.56 0.756 1.82 1.56l1.74 5.21s0.868 1.78-0.74 2c-1.16-0.175-1.17-0.653-1.56-2.04h-2.48c-0.476 1.52-0.304 1.87-1.48 2.04-1.65-0.173-0.828-2.04-0.828-2.04l1.65-5.12c0.244-0.755 0.625-1.62 1.87-1.62m0.043 1.82 0.827 3.18h-1.61l0.78-3.18" fill="#fff" fill-rule="evenodd" /></svg>