<svg xmlns="http://www.w3.org/2000/svg" id="Icon" viewBox="0 0 50 50"><defs><linearGradient id="Background"><stop offset="0" stop-color="#ffffff" /></linearGradient><linearGradient id="Frame"><stop offset="0" stop-color="#000000" /></linearGradient> <linearGradient id="Pictogram"><stop offset="0" stop-color="#000000" /></linearGradient></defs><title>d0_t75_2s0</title><g id="Rahmen"><rect fill="url(#Background)" height="44.5" rx="3" width="44.5" x="2.75" y="2.75" /><rect fill="none" height="44.5" rx="3" stroke="url(#Frame)" stroke-miterlimit="10" stroke-width="1.5" width="44.5" x="2.75" y="2.75" /></g><polyline fill="none" points="41 33.5 41 17 29.5 20.75 29.5 37.25" stroke="url(#Pictogram)" stroke-miterlimit="10" stroke-width="1.5" /><line fill="none" stroke="url(#Pictogram)" stroke-miterlimit="10" stroke-width="1.5" x1="41" x2="29.5" y1="22.61747" y2="26.36747" /><ellipse cx="27.35" cy="38.0746" rx="3.03062" ry="1.59273" transform="translate(-11.71618 12.16068) rotate(-20.75165)" /><ellipse cx="38.85" cy="34.24996" rx="3.03062" ry="1.59273" transform="translate(-9.61498 15.98722) rotate(-20.75165)" /><polygon fill="none" points="19 9.52 17.272 14.867 11.652 14.858 16.182 18.134 14.408 23.457 19 20.2 23.561 23.48 21.811 18.158 26.348 14.858 20.663 14.867 19 9.52" stroke="url(#Pictogram)" stroke-miterlimit="10" stroke-width="1.5" /><polygon fill="none" points="14 28.834 12.969 32.025 9.614 32.02 12.318 33.975 11.259 37.152 14 35.208 16.722 37.166 15.678 33.99 18.386 32.02 14.993 32.025 14 28.834" stroke="url(#Pictogram)" stroke-miterlimit="10" /></svg>