<svg xmlns="http://www.w3.org/2000/svg" viewBox="0 0 50 50"><defs><linearGradient id="Background"><stop offset="0" stop-color="#ffffff" /></linearGradient><linearGradient id="Frame"><stop offset="0" stop-color="#ffffff" /></linearGradient></defs><rect fill="url(#Background)" height="44.5" rx="3" width="44.5" x="2.75" y="2.75" /><rect fill="none" height="44.5" rx="3" stroke="url(#Frame)" stroke-miterlimit="10" stroke-width="1.5" width="44.5" x="2.75" y="2.75" /><path d="m24 43.8a32.1 32.1 0 0 1-3.31-2.54 34.2 34.2 0 0 1-5.41-5.86 35.9 35.9 0 0 1-6.48-16.6c-0.45-3.1-0.61-7.43-0.33-8.4a2.89 2.89 0 0 1 1.09-1.54 18 18 0 0 1 3.91-1.54 41 41 0 0 1 11.5-1.44 37.6 37.6 0 0 1 14.1 2.31c1.39 0.56 1.91 0.95 2.3 1.78l0.26 0.54v2.44a40.2 40.2 0 0 1-4.24 18.3 43.8 43.8 0 0 1-3.16 4.92 39.2 39.2 0 0 1-5 5.21 29.2 29.2 0 0 1-3.37 2.55 2 2 0 0 1-1.87-0.12" fill="#f7de9f" /><path d="M24.2,43.91a33.86,33.86,0,0,1-6-5.08c-5.37-5.62-8.37-12.27-9.47-21-.14-1.15-.37-4.65-.37-5.73,0-1.77.55-2.86,1.76-3.44A29.55,29.55,0,0,1,16,6.82a50.86,50.86,0,0,1,12-.77A36.78,36.78,0,0,1,38.14,8c2.13.75,2.77,1.18,3.25,2.2.24.52.25.54.23,2.63-.07,8.56-2.3,16.12-6.52,22.13a38.12,38.12,0,0,1-7.81,8c-1.63,1.22-2.21,1.42-3.09,1m2-.67a41.49,41.49,0,0,0,7.43-7,36.51,36.51,0,0,0,4.82-8.36,42.75,42.75,0,0,0,2.72-12.84,25.71,25.71,0,0,0,0-4.36c0-.24,0-.36,0-.39s-.17-.55-.34-.55a.91.91,0,0,1-.35-.25c-.88-1-5.42-2.32-9.55-2.84a56.88,56.88,0,0,0-11.07-.11c-4.61.51-9.53,1.9-10.53,3-.15.17-.3.28-.35.25-.48-.31-.47,4.23,0,8.17,1.07,8.63,4.15,15.31,9.64,20.92a33,33,0,0,0,5.56,4.68c.68.38,1,.33,2-.33m-1.77-.48C11.17,33.63,9.55,14.47,9.55,14.47s-.42-3.49.59-4.37a5.05,5.05,0,0,1,1.91-1A50.11,50.11,0,0,1,25.4,7.24,35.94,35.94,0,0,1,39.94,10c.65.43.58.65.56,2.76,0,1.64-.2,4.56-.36,5.75,0,.37,0,.31.26-.57a2.72,2.72,0,0,1,.28-.72,3,3,0,0,0,.17-.63c.09-.48.09-.47,0,.2a38.23,38.23,0,0,1-4.12,14.45,33.46,33.46,0,0,1-7.16,9m-5.14,2.45M25.26,27c0-.16.09-.18.48-.18s.81-.19.9-.63a.47.47,0,0,0-.13-.5,6.37,6.37,0,0,1-.56-.95c-.41-.84-.39-.88.37-.8.26,0,.47,0,.47,0s.47-.29.85-.29.4.06.48.19h.57A.85.85,0,0,0,28,23.5a1.33,1.33,0,0,1-.56-.1c-.23-.13-.25-.43,0-.34l.4.11.25,0L27.83,23a2.08,2.08,0,0,0-.49-.3c-.31-.11-.34-.34-.05-.44s.18-.08-.08-.13a.7.7,0,0,1-.43-.37c-.15-.26-.2-.29-.45-.23s-.74-.15-.74-.39a.69.69,0,0,1,.2-.34l.19-.19L25.8,20c-.18-.56-.21-.6-.71-.84-.76-.38-.79-.69-.1-1.18a1,1,0,0,1,1.25,0,1.24,1.24,0,0,1,.64,1.13,2.32,2.32,0,0,0,.51,1,2.67,2.67,0,0,1,.69,1.77c0,.22-.08.29-.31.32s-.23,0,.15.09.44.1.57.34.71,1,.65.84c-.22-.49-1.85-5.3-1.85-5.3s.05-.07.16-.07c.31,0,.84.55,1.24,1.29s.72,1,1.06,1c.17,0,.2-.09.18-.43a2,2,0,0,0-.6-1.3c-.27-.18-.22-.26.14-.26s.5-.12.34-.24a7.31,7.31,0,0,0-.79-.23,14.39,14.39,0,0,1-1.64-.63,3.09,3.09,0,0,0-1.13-.38,3.65,3.65,0,0,0-.68.51,9.12,9.12,0,0,1-2.05,1.44c-1.13.54-1.35.92-1.63,2.68a5.58,5.58,0,0,1-.23,1.06,9.58,9.58,0,0,0-1.19,1.7,1,1,0,0,0,0,.93.37.37,0,0,0,.67,0c.22-.32.44-.17.37.25,0,.21,0,.34.06.34s.48-.36.63-.73.35-.48.78-.23a1.2,1.2,0,0,0,1.29,0c.14-.11.27-.17.32-.15s.22-.14.22-.38.29-.3.42-.06a.35.35,0,0,1,0,.38c-.17.27,0,.36.3.18l.26-.15.05.35c0,.31,0,.39-.41.8s-.63.84-.46,1.2.29.21.33-.08m-2.37-3.24a1.36,1.36,0,0,1-.24-.38c-.12-.34-.34-.38-.61-.13s-.38.2-.25-.16A7.5,7.5,0,0,0,22,21.89c.18-1.41.58-1.65.9-.52a2.18,2.18,0,0,0,.28.65.93.93,0,0,1,.13.52c0,.31.08.46.38.83a3,3,0,0,1,.37.48,1.75,1.75,0,0,1-.51,0c-.35,0-.56-.05-.66-.16m5.86.54a3.14,3.14,0,0,1-.67-.18,1.11,1.11,0,0,0-1.28.28c-.33.43.05,1.34.72,1.71a1.69,1.69,0,0,0,1.1.19A8.74,8.74,0,0,0,30,26.08" fill="#d8a016" /><path d="M24.77,44.05a2.22,2.22,0,0,1-1.09-.54,44.49,44.49,0,0,1-4.44-3.64c-.49-.47-1.57-1.57-1.94-2a38.92,38.92,0,0,1-4.41-6.21,27.1,27.1,0,0,1-1.34-2.76A38.5,38.5,0,0,1,8.4,15c-.05-1-.07-1.81-.07-3a7.31,7.31,0,0,1,.05-1.32A3.61,3.61,0,0,1,8.84,9.5a4.29,4.29,0,0,1,1.48-1.18A27.07,27.07,0,0,1,14.67,7c.47-.11,1.36-.29,1.68-.34l.42-.08.42-.07.33-.06.38-.06.53-.07.44-.07L20,6.13a47.68,47.68,0,0,1,6.28-.24c.81,0,2.63.14,2.77.16l.41,0,.65.06.64.07c.82.09,1.53.19,1.83.24l.64.1a24.19,24.19,0,0,1,6.31,1.78,3.55,3.55,0,0,1,1.29.88,3,3,0,0,1,.75,1.42,39.52,39.52,0,0,1-.09,5.28,41,41,0,0,1-1.06,7A36.76,36.76,0,0,1,37.88,30a16.53,16.53,0,0,1-.81,1.6l-.33.55-.09.14-.1.15s-.07.13-.12.22l-.12.19,0,0a1.69,1.69,0,0,0-.11.17,2.6,2.6,0,0,1-.2.3l-.09.16s0,0,0,0a1.14,1.14,0,0,0-.15.23,0,0,0,0,1,0,0s0,0,0,0a2,2,0,0,1-.12.22.7.7,0,0,0-.13.21l0,0a.05.05,0,0,0,0,.05s0,0,0,0,0,0,0,.06l-.05.09a5.12,5.12,0,0,0-.34.49l-.58.82a34.54,34.54,0,0,1-7.79,7.56,2.86,2.86,0,0,1-1,.57,1.91,1.91,0,0,1-.72.08m.6-.22a2.85,2.85,0,0,0,1-.55,34.06,34.06,0,0,0,9.73-10.44,23.12,23.12,0,0,0,1.42-2.51,41.47,41.47,0,0,0,1.91-4.65,41.22,41.22,0,0,0,2-11.68c0-1,0-3,0-3.26A2.83,2.83,0,0,0,40.28,9a8.68,8.68,0,0,0-1.48-.75,24.48,24.48,0,0,0-5.31-1.44c-1.28-.23-3-.43-4.56-.56l-.44,0-1.84-.11c-1.12,0-3.17,0-4.61.06a43.94,43.94,0,0,0-10.68,2,6.5,6.5,0,0,0-1.46.65A2.64,2.64,0,0,0,8.74,10a7,7,0,0,0-.25,3,49.41,49.41,0,0,0,.45,6.08,36.13,36.13,0,0,0,3.11,10.54,22.55,22.55,0,0,0,1.81,3.31c.25.39.92,1.42,1.2,1.81a31.82,31.82,0,0,0,6.44,6.87c.71.58,2.39,1.85,2.68,2a2.25,2.25,0,0,0,.51.2,1.56,1.56,0,0,0,.68,0M23.6,42.07a33.13,33.13,0,0,1-8.71-9.5c-.31-.51-.73-1.21-1-1.71s-1.15-2.37-1.6-3.39A34.24,34.24,0,0,1,9.59,15.71a35.07,35.07,0,0,1,0-4.08A3,3,0,0,1,10,10.4a2.53,2.53,0,0,1,1.08-.88,32.66,32.66,0,0,1,4.41-1.27A44.41,44.41,0,0,1,24,7.2c.83,0,2.25,0,2.54,0a3.19,3.19,0,0,0,.45,0,49.37,49.37,0,0,1,6.12.66,20.52,20.52,0,0,1,5.31,1.57l.59.28a2.16,2.16,0,0,1,1.27,2,44.64,44.64,0,0,1-.26,5,34.3,34.3,0,0,1-3.59,13,50.13,50.13,0,0,1-3.07,5.09,31.54,31.54,0,0,1-6.56,6.75l-.61.5c-.27.23-.56.46-.65.52a1,1,0,0,1-.83.24m-6.08-8.54c.29-.14.38-.34.43-.9,0-.38.09-.52.27-.56l.1,0v-.23a6.12,6.12,0,0,1,0-.91,2,2,0,0,1,.26-.37,3.7,3.7,0,0,0,.55-.82,4.19,4.19,0,0,0,.1-.45c.05-.39,0-.33.45-1,.13-.2.31-.56.43-.77a2,2,0,0,1,.28-.49l.13-.15a.15.15,0,0,1,.07-.06c.05,0,.19.16.24.26s.05.14.05.67,0,.56.05.6a.24.24,0,0,0,.12.05s0,0,0-.08-.12-.24-.11-.65a1.07,1.07,0,0,0,0-.5.62.62,0,0,1,0-.24c0-.08,0-.09.12-.09a.24.24,0,0,0,.23-.17.67.67,0,0,0,.05-.3c0-.06,0-.08-.12-.15a.39.39,0,0,1-.24-.35,4.9,4.9,0,0,1,0-1.1c0-.15.07-.15.23,0a4.23,4.23,0,0,0,.91.39,1.85,1.85,0,0,0,.84,0,5.31,5.31,0,0,0,.71-.55c.09-.07.21-.19.29-.24s.19-.13.24-.18.11-.09.14-.09a1,1,0,0,1,.39.16c.14.12.07.25-.27.47a2.2,2.2,0,0,0-.69.77,8.66,8.66,0,0,0-.36,1,1,1,0,0,0,.16.43,3.36,3.36,0,0,1,.44.73.84.84,0,0,0,.08.21c.07.19,0,.29-.32.36l-.36.07-.13,0,0,.07c0,.05,0,.05.06,0s.07,0,.29,0a.87.87,0,0,0,.39-.06l.13,0,.06.07a4.23,4.23,0,0,0,.45.47,5.67,5.67,0,0,0-.32-.75c-.11-.19-.23-.45-.29-.57a4.64,4.64,0,0,0-.3-.49,1.93,1.93,0,0,1-.21-.32,1,1,0,0,1,0-.49c.09-.25.17-.23.17,0s0,.27.24.6a3,3,0,0,1,.41.74,3.8,3.8,0,0,0,.4.75,2.26,2.26,0,0,1,.23.62.22.22,0,0,1-.08.15l-.09.08,0-.06s-.06-.06-.06-.05a.42.42,0,0,0,0,.16c0,.16,0,.16.07.23s.08.08.08.22a.41.41,0,0,0,.16.36,1.31,1.31,0,0,0,.33.1l.26.06.09-.08a1.24,1.24,0,0,0,.37-.45.26.26,0,0,0,0-.27.39.39,0,0,1-.08-.1c-.05-.1,0-.12.21-.12s.18,0,.23-.07a3,3,0,0,0,.31-.7.84.84,0,0,0,.07-.4,1,1,0,0,1,.06-.4.75.75,0,0,0,0-.59.69.69,0,0,0-.29-.3c-.2-.12-.17-.2.09-.3S28,27.05,28,27s0-.06-.21,0-.2,0-.25-.05-.2-.22-.34-.12a2.09,2.09,0,0,0-.46.87c0,.09.1.19.3.28l.23.11a.35.35,0,0,1,.15.33,1.18,1.18,0,0,0,0,.22,1,1,0,0,1,0,.21.51.51,0,0,1-.07.3,2,2,0,0,1-.47.61c-.08,0-.17,0-.21-.16s0-.11,0-.23a1.15,1.15,0,0,0,.09-.71,2.5,2.5,0,0,0-.05-.4c-.05-.11-.13-.08-.29.12s-.25.27-.33.27-.11-.09-.1-.27a1.92,1.92,0,0,1,.23-.69,11,11,0,0,0,.4-1.05,2.31,2.31,0,0,0,0-.83.53.53,0,0,0-.16-.25,5,5,0,0,1-.64-.91c-.17-.34-.29-.68-.23-.68a3.41,3.41,0,0,1,.41.52c.13.22.19.28.31.26s.08,0,.1.07a1.63,1.63,0,0,0,.38.81,4,4,0,0,0,.61.49,2.37,2.37,0,0,0,.61.21,2.12,2.12,0,0,0,.58.05c.4,0,.5,0,.59-.11a.37.37,0,0,1,.19-.09l.19-.09c.09,0,.15-.14.13-.19s0-.05-.31-.06a2.53,2.53,0,0,1-.91-.22,3.11,3.11,0,0,0-.33-.15.88.88,0,0,1-.54-.43.13.13,0,0,1,.11-.17s.08,0,.09,0l.06,0c.1,0,.1,0,.05-.26s-.06-.32,0-.32.16.06.3.26a1.62,1.62,0,0,0,.27.34c.11.13.14.14.22.14l.12,0s0-.07,0-.12a.51.51,0,0,1-.05-.22.24.24,0,0,1,.07-.2c.07-.08.08-.08.2-.08a.41.41,0,0,1,.36.19c0,.09.06.09.16.09a.36.36,0,0,0,.2-.06c.07,0,.1-.06.14,0a.34.34,0,0,1,.12.12,1,1,0,0,0,.12.15c.06.06.08.07.2.05a.33.33,0,0,1,.18,0c.11,0,.12.1.08.33s-.05.22,0,.32a.5.5,0,0,0,.11.19c.08.09.08.09.11.39a1.56,1.56,0,0,1-.11.81c-.05.13-.14.35-.18.47a1.63,1.63,0,0,1-.15.32l-.06.08.09.07a1.32,1.32,0,0,1,.35.6,1.84,1.84,0,0,1,.21.74,1.2,1.2,0,0,1-.1.49c-.13.4-.13.56,0,.72a.55.55,0,0,1,.09.15s-.07.13-.13.26c-.29.49-.29.71,0,1s.29.22.38.21.07,0,.08-.14.07-.24.15-.24.05,0,.06.17,0,.23.09.23a1,1,0,0,0,.48-.4l0-.07-.1.07-.15.14c-.08.07-.14.08-.22,0s-.09-.15,0-.34,0-.37,0-.45-.1,0-.25,0a.82.82,0,0,1-.22,0c-.06,0,0-.13.17-.22s.22-.19,0-.28-.16-.11-.16-.22a.32.32,0,0,1,.21-.29.29.29,0,0,0,.22-.29.43.43,0,0,0-.2-.38c-.23-.18-.23-.17-.23-.39s0-.19,0-.23a.38.38,0,0,0,.05-.24,1.33,1.33,0,0,1,.07-.3c.08-.17.07-.21-.09-.44a1.09,1.09,0,0,1-.12-.63,2,2,0,0,0,0-.32.61.61,0,0,1,0-.37c.07,0,.18.05.25.18s.1.15.11.08.14-.06.41.06a2.16,2.16,0,0,0,1.66.14,2.76,2.76,0,0,0,.69-.61c.1-.16.09-.16-.29-.15a2.18,2.18,0,0,1-.86-.1,1.49,1.49,0,0,1-.59-.41l-.35-.33a1.28,1.28,0,0,1-.26-.24.06.06,0,0,0-.06,0,1.59,1.59,0,0,1-.55-.27L31,24.39a5.26,5.26,0,0,0-1.21-.25l-.22,0,0-.08a1.13,1.13,0,0,0-.22-.49c-.11-.18-.14-.24-.14-.33A1,1,0,0,0,29,22.7a1.7,1.7,0,0,1-.18-.39c0-.1-.09-.28-.14-.4a2.11,2.11,0,0,1-.19-.67,3.36,3.36,0,0,0-.18-.76,3.8,3.8,0,0,1-.15-.51,1.48,1.48,0,0,0-.29-.73,2.49,2.49,0,0,1-.18-.33.38.38,0,0,0-.09-.16l-.15-.22a2.08,2.08,0,0,0-.15-.24.33.33,0,0,1-.05-.15c0-.1.05-.13.23-.12.37,0,.66.3,1,1a2.2,2.2,0,0,0,.85,1,.63.63,0,0,0,.28.08c.15,0,.19,0,.21-.22a1.63,1.63,0,0,0-.15-.67,2,2,0,0,1-.1-.54c0-.3,0-.31-.3-.4s-.24-.12-.05-.18a.7.7,0,0,1,.6.16c.14.1.16.11.26.1s.12,0,.24-.14.13-.14.12-.22a.45.45,0,0,1,.13-.32c.08-.06.12-.16.19-.48a1.42,1.42,0,0,0-.08-1,3.84,3.84,0,0,0-1.13-.91c-.33-.16-.35-.16-2.15-.18A19.57,19.57,0,0,1,24.23,15c-.37-.12-.64-.36-.59-.53a.45.45,0,0,1,.25-.26c.21-.08.51,0,1.08.21a3,3,0,0,0,1.46.25,2.66,2.66,0,0,0,1.07-.17s0,0,0-.07a1.49,1.49,0,0,0-.38-.12c-.41-.11-.63-.2-.63-.25s0,0,.31,0a3.63,3.63,0,0,1,.94.16,1.7,1.7,0,0,0,.67,0c.08,0,.1-.09,0-.15a4.83,4.83,0,0,0-1.61-.59,6.27,6.27,0,0,0-1.37-.1,3.25,3.25,0,0,0-1.56.29,2,2,0,0,0-.81.75c-.14.28,0,.46.35.71a2.09,2.09,0,0,0,.95.3,16.67,16.67,0,0,0,3,.15c.79,0,1.42,0,1.5,0a1.76,1.76,0,0,1,.68.25,1.68,1.68,0,0,1,.51.6.57.57,0,0,1,.08.34.56.56,0,0,1-.06.3,1.26,1.26,0,0,1-.37.41,1.31,1.31,0,0,1-.7-.12,1.19,1.19,0,0,0-.51-.12,1.71,1.71,0,0,1-.75-.21,7.43,7.43,0,0,0-1.42-.48.84.84,0,0,0-.53.1,2.92,2.92,0,0,0-.79.64,3.15,3.15,0,0,1-.84.68c-.42.2-1.62.9-1.73,1a3.13,3.13,0,0,0-.56.69A2.42,2.42,0,0,0,21.64,21a1.65,1.65,0,0,1-.09.67,8.34,8.34,0,0,1-.59,1,9.88,9.88,0,0,0-.61,1A2.68,2.68,0,0,0,20,25.15l0,.55-.08.25c-.05.13-.14.39-.22.57a3.44,3.44,0,0,0-.28,1.82l0,.88-.11.19a3.94,3.94,0,0,1-.19.36c-.14.19-.17.35-.22.91,0,.23,0,.47-.05.52s0,.14-.31.44c-.5.56-.69.85-.69,1s0,.12-.1.18a1.93,1.93,0,0,0-.53.61.68.68,0,0,0-.06.54c.07.13.11.11.31-.16l.18-.24.05,0a.28.28,0,0,1,0,.09,1.34,1.34,0,0,1-.09.23,1.35,1.35,0,0,0-.1.25c0,.09.1.1.58.09s.45.06.55,0m1-5.74c-.1,0-.14-.17-.13-.42a.67.67,0,0,1,.23-.52l.08-.06.06.08a.19.19,0,0,0,.12.07.74.74,0,0,0,.39-.23l.25-.22a.55.55,0,0,0,.21-.49c0-.32,0-.38-.18-.52a.53.53,0,0,1-.21-.43c0-.21.1-.32.28-.32s.17.06.29.28.5.48.69.32.13-.09.18,0,0,.1,0,.38a2.82,2.82,0,0,0,0,.4s.06.07.16.11a.27.27,0,0,1,.19.3.26.26,0,0,1-.2.25c-.14,0-.23,0-.63-.22a.32.32,0,0,0-.35,0,1.63,1.63,0,0,0-.17.21,1.23,1.23,0,0,1-.35.32,1.32,1.32,0,0,0-.48.49c-.1.16-.24.31-.28.31h-.07l-.14,0m6.39-14.12-.16-.06c-.13-.06-.17-.12-.09-.19s.12-.05.24,0a.77.77,0,0,0,.23.06.45.45,0,0,1,.23.07c.09.06.1.09,0,.11a2.82,2.82,0,0,1-.5,0M21.25,33.13a1.17,1.17,0,0,0,.44-.52,1.27,1.27,0,0,1,.23-.33.88.88,0,0,0,.23-.44,2.35,2.35,0,0,1,.35-.72,1.4,1.4,0,0,1,.59-.57c.44-.24.46-.27.49-.61a.88.88,0,0,1,.06-.31,1.79,1.79,0,0,1,.44-.41l.13-.1h-.65a3.51,3.51,0,0,0-.8.05l-.28,0h-.12l-.14.37c-.08.21-.15.39-.15.41a1.85,1.85,0,0,1-.11.45,2.72,2.72,0,0,1-.57.6.65.65,0,0,1-.15.05.25.25,0,0,0-.22.17.61.61,0,0,1-.2.18,3.41,3.41,0,0,0-.54.51,1,1,0,0,0-.11.56c0,.25,0,.47.1.47a.69.69,0,0,0,.21-.12c.27-.2.32-.16.16.12a.57.57,0,0,0-.1.19c0,.05.17.08.38.07a1.2,1.2,0,0,0,.33-.09m2.69-1.26s0,0-.11,0-.17,0-.16,0,.06-.07.12-.1l.15-.08a1.56,1.56,0,0,0,0-.21c0-.23,0-.27.2-.31s.18-.07.18-.16,0-.07-.11-.11-.17-.13-.11-.18a1.52,1.52,0,0,1,.24-.21c.17-.16.2-.19.23-.29a2.16,2.16,0,0,0,.09-.58c0-.06-.1-.16-.15-.16a.15.15,0,0,1-.08-.05s-.05,0-.05,0a1.56,1.56,0,0,1-.16.29c-.08.15-.19.35-.24.46a.74.74,0,0,1-.24.3,1.32,1.32,0,0,0-.6,1c0,.2,0,.33,0,.33a.69.69,0,0,0,.16-.1.55.55,0,0,1,.16-.11s0,0,0,.17l0,.16.08,0a.51.51,0,0,0,.34,0m7.32-8.23a1.28,1.28,0,0,0,.18-.2l.11-.15-.07-.07a4.24,4.24,0,0,1-.49-.74,1,1,0,0,1-.13-.3c0-.07.08-.14.22-.23.32-.21.35-.29.36-.91a3.08,3.08,0,0,0,0-.6,1.27,1.27,0,0,0-.29-.58L31,19.73l-.1,0a.72.72,0,0,0-.34.33.91.91,0,0,0,0,.62,1.83,1.83,0,0,1,.07.46,2.19,2.19,0,0,1-.12.7,3.78,3.78,0,0,0-.13,1,1,1,0,0,0,.12.6.54.54,0,0,0,.71.16" fill="#9f6b08" /><path d="M24.09,42.17a39.42,39.42,0,0,1-6.79-6.44c-4.88-6.15-7.19-13.07-7.54-22.58-.1-2.52,0-2.83,1.4-3.42Q16.55,7.43,25,7.43A38.6,38.6,0,0,1,35.44,8.61a22.35,22.35,0,0,1,4.06,1.44,1.7,1.7,0,0,1,.73,1.24,54.78,54.78,0,0,1-.3,6.11c-1,8.77-4.14,15.55-9.88,21.23C28.21,40.45,25.41,42.7,25,42.7a4.21,4.21,0,0,1-.9-.53m-5.4-7.77a.69.69,0,0,0,.36-.55,1.87,1.87,0,0,1,.24-.59,1.27,1.27,0,0,0,.18-.83,1.19,1.19,0,0,1,.38-1.06,3.46,3.46,0,0,0,.6-1.2,5.47,5.47,0,0,1,.4-1,8.11,8.11,0,0,0,.48-.86,2,2,0,0,1,.37-.6c.2,0,.33.33.31.79s0,.83.23.83.11,0,0,.28a1.36,1.36,0,0,0-.15.4,2,2,0,0,1-.71,1.15,3.62,3.62,0,0,0-.54.42c-.11.11-.3.28-.41.37s-.25.42-.21.88c0,.28.17.39.3.26s.28-.14.17.07-.07.18.2.18.92-.31.92-.5A11.59,11.59,0,0,1,22.7,31a1.56,1.56,0,0,1,.42-.36,1.56,1.56,0,0,0,.44-.54c.21-.48.49-.79.71-.79s.17,0,.17.05a4.13,4.13,0,0,1-.69,1.22,2.23,2.23,0,0,0-.57,1.12c.07.12.33.12.33,0a.09.09,0,0,1,.09-.09c.06,0,.07.07,0,.15s.12.31.49.23.79-.35.79-.62a1.23,1.23,0,0,1,.19-.52.69.69,0,0,0,.15-.62c-.05-.34.08-.8.23-.8s.32.45.45.95c.19.7.26.74,1.32.74.72,0,1,0,1-.14l.29-.34a1.19,1.19,0,0,0,.19-.75,1.54,1.54,0,0,1,.34-1c.4-.57,1.17-1.14,1.35-1a3.22,3.22,0,0,1,.37.73c.23.58.24.67.14,1a1.68,1.68,0,0,0-.06.68,1.29,1.29,0,0,1-.09.59c-.18.45-.16.65.1.92s.41.3.51,0l.09-.22.09.24.09.24L32,31.9a.68.68,0,0,0,.11-.92A.87.87,0,0,1,32,30.5a2.75,2.75,0,0,0-.06-.79,3.38,3.38,0,0,1,0-1.35c.11-.74.11-.81-.08-1.16-.3-.57-.27-.63.26-.42a1.74,1.74,0,0,0,2-.31c.24-.34.2-.47-.12-.41a1.56,1.56,0,0,1-1.45-.53L32,25.05,32,24.21a27.48,27.48,0,0,1,0-2.78c0-.84,0-.85-.35-1.4a4.82,4.82,0,0,1-.53-1,2.25,2.25,0,0,0-.36-.68c-.2-.22-.2-.24-.06-.52a1.6,1.6,0,0,0-.7-2.24l-.5-.29-2.4-.07c-3-.1-3.62-.21-3.38-.66.15-.3.48-.32,1.3,0a4,4,0,0,0,2.24.15c.34-.13.31-.28-.07-.28a.75.75,0,0,1-.44-.15c-.17-.13-.16-.14.19-.09,1.15.16,1.55.18,1.55.06s-.17-.18-.4-.29A5.29,5.29,0,0,0,24,13.74c-.5.26-1,.75-1,1s.46.54.81.65a22.71,22.71,0,0,0,2.8.21c2.63.1,3.08.19,3.43.63a1,1,0,0,1,0,1.13l-.22.25-.74-.16A13.67,13.67,0,0,1,27.53,17c-1.4-.52-1.4-.51-2.52.43a13.61,13.61,0,0,1-1.63,1.12c-1.34.74-1.61,1.17-1.81,2.87A3,3,0,0,1,21,22.62a5,5,0,0,0-1,2.59,8.46,8.46,0,0,1-.37,1.64,4.36,4.36,0,0,0-.29,1.69,2.24,2.24,0,0,1-.22,1.29,2.79,2.79,0,0,0-.29.9,1.84,1.84,0,0,1-.56,1.37,2.55,2.55,0,0,0-.48.7,1.93,1.93,0,0,1-.33.53,1.06,1.06,0,0,0-.32,1c.05.14.09.13.3-.13l.24-.29-.06.36-.06.37H18a1.73,1.73,0,0,0,.71-.2m7.19-20.06c-.09-.16,0-.17.33,0l.33.12h-.3a.64.64,0,0,1-.36-.1" fill="#040404" /><path d="M13.19,13.65a1.08,1.08,0,0,0,0-.37l-.58.19a2,2,0,0,1-.59.14A13.2,13.2,0,0,1,11.9,12a7.16,7.16,0,0,0-.12-1.57,1.65,1.65,0,0,0-.32.09l-.23.1V14.7l1-.35,1-.35Zm25.51-3a.68.68,0,0,0-.33-.14l-.26-.06v4l.3.13.3.12,0-2a14.3,14.3,0,0,0,0-2.07m-1.24,1.54a15.22,15.22,0,0,0-.07-2L37,10l-.31-.08,0,1a5.75,5.75,0,0,1,0,1,8.69,8.69,0,0,1-.45-1c-.48-1.25-.46-1.23-.84-1.3l-.3-.07v2a12.8,12.8,0,0,0,.08,2.05,1.68,1.68,0,0,0,.33.1l.26.07V12.55c0-.62,0-1.08.08-1s.28.62.53,1.27c.44,1.15.56,1.32,1,1.34.07,0,.09-.45.09-2m-23.73,1.7c.26-.09.3-.16.4-.66s.14-.56.4-.61c.42-.08.42-.08.48.3.09.56.15.61.55.5a1,1,0,0,0,.35-.15s-.17-.66-.36-1.4-.41-1.59-.49-1.87c-.12-.49-.13-.5-.41-.44a1,1,0,0,0-.35.12c-.07.07-1,4-1,4.19s.08.16.45,0m.71-2.2a3.65,3.65,0,0,0,.06-.44c0-.24.16,0,.22.33s0,.31-.13.35-.2,0-.15-.24m20-.3v-2l-.3-.06a.8.8,0,0,0-.31,0s-.05.91-.08,2l-.06,2,.35.09.37.11s0-.91,0-2M16.73,13.14c.19-.05.2-.1.22-1v-.92l.3.93c.17.51.34.95.36,1s.13-.24.23-.6.25-.87.34-1.13l.13-.47v1.92l.35-.06.35-.06,0-2c0-1.11,0-2-.06-2a1,1,0,0,0-.34.05c-.3.09-.32.12-.64,1.21l-.33,1.13-.34-1c-.34-1-.34-1-.61-1a1.4,1.4,0,0,0-.35.1,17.71,17.71,0,0,0-.09,2c0,2.17,0,2.08.49,2m16.42-2a15.8,15.8,0,0,0-.07-2A1.39,1.39,0,0,0,32.72,9l-.27,0,0,.75c0,.73,0,.74-.27.73-.64,0-.67,0-.7-.89l0-.78-.3,0-.3,0v2c0,2.14,0,2.12.48,2.12.15,0,.17-.09.2-.88l0-.88.37,0a2.45,2.45,0,0,1,.44.07,3.48,3.48,0,0,1,.07.95V13l.3.05.38,0a18,18,0,0,0,.06-2M21.23,12.48a1.32,1.32,0,0,0,.5-1.81c-.15-.25-.15-.32,0-.48a1.52,1.52,0,0,0,0-1.27c-.23-.33-.56-.41-1.32-.34l-.69.06v4.1l.63-.07a6.63,6.63,0,0,0,.94-.19m-.88-.65a1.78,1.78,0,0,1,0-.55c0-.37.05-.43.29-.45s.53.14.53.57,0,.38-.23.47c-.34.12-.51.11-.57,0m0-2.11c0-.37,0-.43.22-.48s.52,0,.58.29a.52.52,0,0,1-.54.61c-.24,0-.26,0-.26-.42m9.42,2.8c.34-.16.52-.63.52-1.35v-.62l-.43-.06c-.68-.09-.69-.09-.69.27s0,.33.18.33.28.73,0,.81c-.47.15-.75-.38-.75-1.46,0-.8.18-1.26.51-1.26s.27.07.36.29.13.29.43.23a1.78,1.78,0,0,0,.36-.1,1,1,0,0,0-.1-.36,1.08,1.08,0,0,0-2-.12,4,4,0,0,0-.17,2.2c.15.77.64,1.29,1.2,1.29a1.93,1.93,0,0,0,.62-.09M24,12.34c.41-.26.63-.78.67-1.68.07-1.46-.38-2.33-1.22-2.33a.78.78,0,0,0-.68.32c-.42.43-.54,1-.5,2.07A2.36,2.36,0,0,0,22.53,12a1,1,0,0,0,1.49.37m-.75-.63c-.47-.48-.39-2.47.12-2.67s.88,2,.33,2.64c-.19.22-.26.22-.45,0m4.25.74a8.09,8.09,0,0,0-.28-.92L27,10.69l.29-.34a.85.85,0,0,0,.25-.85c-.07-.86-.54-1.18-1.73-1.18h-.59v4.12h.74v-.86c0-1.15.16-1.15.56,0,.27.75.33.86.55.89.46.07.49.07.49,0M25.93,9.54V9l.32.05c.41.05.54.2.51.61s-.05.32-.43.34l-.4,0Z" fill="#d8a016" /></svg>