<svg xmlns="http://www.w3.org/2000/svg" viewBox="0 0 50 50"><defs><linearGradient><stop offset="0" /></linearGradient><linearGradient id="Frame"><stop offset="0" stop-color="#ffffff" /></linearGradient></defs><rect fill="#fff" height="44.5" rx="3" width="44.5" x="2.75" y="2.75" /><rect fill="none" height="44.5" rx="3" stroke="url(#Frame)" stroke-miterlimit="10" stroke-width="1.5" width="44.5" x="2.75" y="2.75" /><path d="m25 6a19 19 0 1 1-19 19 19 19 0 0 1 19-19" fill="#d52b1e" /><polygon fill="#fff" points="36.4 40.8 32 27.7 43 19.3 29.4 19.3 25 6 20.6 19.3 6.95 19.3 18 27.7 13.6 41 22.9 34.1 22.9 25.2 19.1 25.2 19.1 21.8 30.9 21.8 30.9 25.2 27.1 25.2 27.1 34.1" /></svg>