<svg xmlns="http://www.w3.org/2000/svg" viewBox="0 0 50 50"><defs><linearGradient id="Frame"><stop offset="0" stop-color="#ffffff" /></linearGradient></defs><rect fill="#fff" height="44.5" rx="3" width="44.5" x="2.75" y="2.75" /><rect fill="none" height="44.5" rx="3" stroke="url(#Frame)" stroke-miterlimit="10" stroke-width="1.5" width="44.5" x="2.75" y="2.75" /><path d="m31.3 11.4s2.47 12.9 2.5 13.1 0.574 2.25-1.15 2.97-6.64 2.57-6.76 2.64a2.46 2.46 0 0 1-1.97 0.025c-1.05-0.399-6.21-2.5-6.54-2.64a2.73 2.73 0 0 1-1.27-2.64c0.299-1.37 2.55-13.5 2.55-13.5z" fill="#79afbc" /><path d="m26.7 5.85a5.99 5.99 0 0 0-0.826 0.543c-0.118 0.142-0.307 0.401 0.0472 0.519a2.15 2.15 0 0 0 0.614 0.118s0.677 0.128 0.0472 0.401c-0.436 0.189-0.803 0.378-0.803 0.378s-0.33 0.283-0.0708 0.543a0.893 0.893 0 0 0 0.425 0.283s0.212 0.283-0.189 0.26a8.38 8.38 0 0 0-3.23 0.165c-1.32 0.425-1.98 1.44-1.53 2.53a5.49 5.49 0 0 0 3.52 2.55 10.8 10.8 0 0 0 4.13 0.212c0.685-0.142 0.401 0.283 0.401 0.283a2.32 2.32 0 0 0-0.142 0.472 0.577 0.577 0 0 0 0.239 0.47c0.076 0.0652 0.268 0.268-0.0154 0.339a11.7 11.7 0 0 1-3.65-0.195c-1.53-0.354-4.82-1.63-5.38-4.01a4.52 4.52 0 0 1 2.38-4.91 9.84 9.84 0 0 1 3.52-1.04c0.142-3e-5 0.708 0.0236 0.519 0.0944z" fill="#312418" /><path d="m30.1 17.1s-4.42-0.632-4.52-0.632-0.339-0.0462-0.354 0.123a0.942 0.942 0 0 0 0.771 1.03 6.61 6.61 0 0 1 0.0154 0.817c0.0192 0.215 0.231 0.755 0.74 0.694s2.93-0.286 3.07-0.308a0.513 0.513 0 0 0 0.524-0.37 8.08 8.08 0 0 0 0.185-0.878s0.0462-0.385-0.432-0.478z" fill="#312418" /><path d="m27.4 21.5a0.389 0.389 0 0 0 0.251-0.532 2.21 2.21 0 0 0-1.92-1.26 3.65 3.65 0 0 0-1.49 0.296 11.6 11.6 0 0 0-1.27 0.562 8.89 8.89 0 0 0-1.85 1.21 2.15 2.15 0 0 0-0.725 1.35 38.3 38.3 0 0 0-4.41 2.47 31.4 31.4 0 0 0-4.89 4.05c0 0.0444 2.08 0.681 2.19 0.71a0.774 0.774 0 0 0 0.68-0.177 43.2 43.2 0 0 1 3.37-3.36 24.1 24.1 0 0 1 5.31-3.52 35.4 35.4 0 0 1 4.76-1.8z" fill="#312418" /><path d="m38.2 21.2a26.6 26.6 0 0 0-9.02 0.518 26.9 26.9 0 0 0-7.59 2.85s-0.266 0.0887-0.0591 0.355a1.96 1.96 0 0 0 1.58 0.769 6.89 6.89 0 0 0 1.58-0.222 22.4 22.4 0 0 0 2.56-0.917 1.5 1.5 0 0 0 1.02-1.51 21.3 21.3 0 0 1 8.15 0.222c0.207 0.0454 0.784 0.237 0.991-0.118s0.784-1.95 0.784-1.95z" fill="#312418" /><path d="m24.8 35s0.0385-0.641-0.872-0.693-0.872 0.693-0.872 0.693a0.799 0.799 0 0 0 0.782 0.795c0.77 0.0256 0.949-0.385 0.962-0.795z" fill="#4c2418" /><path d="m29.6 35.6a0.143 0.143 0 0 1-0.129-0.219c0.0643-0.154 0.798-1.7 0.824-1.8s0.256-0.759-0.566-0.335a7.58 7.58 0 0 0-1.88 2.15c-0.0644 0.103-1.27 1.87-1.49 2.12s-0.515 0.618-0.901 0.631-0.566-0.309-0.721-0.644-0.348-0.747-0.386-0.862a0.557 0.557 0 0 0-0.579-0.386 1.05 1.05 0 0 0-0.669 0.438s-0.772 1.18-0.94 1.34-0.36 0.322-0.824 0.0515a0.91 0.91 0 0 1-0.386-0.734c0-0.116-0.0128-1.4-0.0128-1.4s0.0515-0.489-0.438-0.412c-0.372 0.0588-1.54 0.27-1.63 0.296s-0.382-0.378-0.541-0.463a0.56 0.56 0 0 0-0.489-0.0386c-0.103 0.0643-0.798 0.631-0.901 0.721s-0.206 0.309-0.0515 0.412 0.476 0.27 0.476 0.27a2.1 2.1 0 0 1-0.618 1.12 1.15 1.15 0 0 1-1.08 0.322c-0.0386-0.0258 0.219-0.772 0.232-0.927s0.308-1.03-0.219-1.24a0.623 0.623 0 0 0-0.682 0.0772 0.468 0.468 0 0 1-0.348 0.0129 1.66 1.66 0 0 0-0.759-0.245 2.06 2.06 0 0 0-1.61 0.682c-0.373 0.566-0.449 0.853-0.412 0.888a8.27 8.27 0 0 1-1.71 0.515c-0.747 0.129-2.2 0.129-2.33-1a3.05 3.05 0 0 1 0.824-2.11 5.18 5.18 0 0 1 2.51-1.49c1.2-0.283 0.847 0.483 0.85 0.566 0 0-0.147 0.646 0.155 0.692s0.52-0.0679 0.823-0.371a1.54 1.54 0 0 0 0.434-0.584c0.0599-0.137 0.326-1.05-0.885-1.19a7.18 7.18 0 0 0-3.07 0.512c-0.466 0.186-3.24 1.65-3.47 3.66a2.21 2.21 0 0 0 1.79 2.51 6.67 6.67 0 0 0 1.68 0.163 5.2 5.2 0 0 0 2.61-0.768 1.73 1.73 0 0 0 1.32 0.535 3.66 3.66 0 0 0 1.36-0.245 1.52 1.52 0 0 0 0.914 0.322c0.541 0 1.93 0.0129 2.91-2.28 0.0386-0.0386 0.0386-0.116 0.129-0.129s0.631-0.0643 0.631-0.0643a4.74 4.74 0 0 0 1.08 2.03 2.2 2.2 0 0 0 1.47 0.592 1.76 1.76 0 0 0 1.63-1.02c0.257-0.631 0.631 0.129 0.669 0.193a1.32 1.32 0 0 0 1.21 0.682 3.3 3.3 0 0 0 2.18-0.656 2.43 2.43 0 0 0 0.862 0.27c0.232 0 3.26 0.541 3.69-1.47s-2.42-1.7-2.52-1.7zm-15 1.9c-0.0128 0.731-0.382 0.737-0.808 0.718a0.682 0.682 0 1 1 0.128-1.35c0.77 0.0257 0.68 0.629 0.68 0.629zm15.1 0.257c-1.23 0.41-1.4-0.282-1.4-0.282s-0.18-0.641 1-1.01 1.45 0.218 1.45 0.218c0.077 0.295 0.18 0.667-1.05 1.08z" fill="#312418" /><path d="m43.7 37.9a2.01 2.01 0 0 0-0.471 0.143c-0.0819 0.0205-0.379-0.0205-0.451-0.43s-0.041-1.23-0.0614-1.34a0.495 0.495 0 0 0-0.553-0.389 0.838 0.838 0 0 0-0.676 0.379 6.82 6.82 0 0 0-0.481 1.09c-0.0205 0.0922-0.358 0.809-0.809 0.809-0.553 0-0.748-0.174-0.809-0.829s-0.113-1.12-0.123-1.2a0.634 0.634 0 0 0-0.645-0.532 2.45 2.45 0 0 0-0.993 0.348c-0.0921 0.0409-0.492 0.266-0.543 0.297s-0.195 0.225-0.481-0.113a1.9 1.9 0 0 0-1.34-0.676 2.34 2.34 0 0 0-1.7 0.655 4.25 4.25 0 0 0-0.932 1.41 4.71 4.71 0 0 1-0.358 0.799 3.22 3.22 0 0 1-0.379 0.297 0.203 0.203 0 0 0-0.0409 0.225 0.311 0.311 0 0 0 0.225 0.225 0.894 0.894 0 0 0 0.604-0.0308c0.113-0.0512 0.297-0.154 0.358-0.184a0.688 0.688 0 0 1 0.584 0.0307 3.28 3.28 0 0 0 1.37 0.43c0.543-0.0307 1.46-0.154 1.99-1.7a1.55 1.55 0 0 1 1.13-0.635 0.32 0.32 0 0 1 0.195 0.276c0.0102 0.123 0.0409 0.717 0.0409 0.778a1.17 1.17 0 0 0 0.655 0.952 4.43 4.43 0 0 0 1.29 0.225 2.6 2.6 0 0 0 1.53-0.604 1.18 1.18 0 0 0 0.819 0.266 1.95 1.95 0 0 0 1.32-0.614c0.0408-0.0921 0.0907-0.41-0.256-0.358zm-9.15 0.471c-0.563-0.0819-0.676-0.932-0.522-1.3a1.08 1.08 0 0 1 1.05-0.788c0.778-0.0102 0.768 0.809 0.768 0.809a1.32 1.32 0 0 1-1.3 1.28z" fill="#312418" /><path d="m18.2 41a1.6 1.6 0 1 0 1.6 1.6 1.6 1.6 0 0 0-1.6-1.6zm-6e-5 2.57a0.967 0.967 0 1 1 0.967-0.967 0.967 0.967 0 0 1-0.967 0.967z" fill="#312418" /><path d="m14.2 43.1a0.956 0.956 0 0 1-0.835 0.508 0.967 0.967 0 1 1 0-1.93 0.95 0.95 0 0 1 0.786 0.434l0.513-0.399a1.6 1.6 0 1 0 0.022 1.84z" fill="#312418" /><polygon fill="#312418" points="33.1 41.7 33.1 41.1 31.7 41.1 31.1 41.1 31 41.1 31 44.1 31.1 44.1 31.1 44.1 33.1 44.1 33.1 43.5 31.7 43.5 31.7 42.9 33.1 42.9 33.1 42.3 31.7 42.3 31.7 41.7" /><polygon fill="#312418" points="28.4 41.7 28.4 41.1 26.5 41.1 26.5 41.1 26.5 41.1 26.5 44.1 27.1 44.1 27.1 42.9 28.4 42.9 28.4 42.3 27.1 42.3 27.1 41.7" /><polygon fill="#312418" points="37.8 41.7 37.8 41.1 36.4 41.1 35.8 41.1 35.8 41.1 35.8 44.1 35.8 44.1 35.8 44.1 37.8 44.1 37.8 43.5 36.4 43.5 36.4 42.9 37.8 42.9 37.8 42.3 36.4 42.3 36.4 41.7" /><polygon fill="#312418" points="23.9 41.7 23.9 41.1 21.9 41.1 21.9 41.1 21.9 41.1 21.9 44.1 22.6 44.1 22.6 42.9 23.9 42.9 23.9 42.3 22.6 42.3 22.6 41.7" /><path d="m39.5 43.5a0.73 0.73 0 0 0 1.46 0.0374v-0.0374a0.712 0.712 0 0 0-0.7-0.727h-0.0267a0.697 0.697 0 0 0-0.727 0.679 0.052 0.052 0 0 0-0.00535 0.0481m1.31 0a0.583 0.583 0 1 1-1.16 0.0321v-0.0374a0.561 0.561 0 0 1 0.54-0.582h0.0427a0.572 0.572 0 0 1 0.582 0.561v0.0267m-0.224 0.438h-0.144l-0.171-0.31h-0.187v0.31h-0.128v-0.876h0.326a0.279 0.279 0 0 1 0.273 0.283 0.293 0.293 0 0 1-0.155 0.256zm-0.326-0.438a0.148 0.148 0 0 0 0.16-0.144 0.151 0.151 0 0 0-0.144-0.16h-0.192v0.31h0.176" fill="#312418" /></svg>