<svg xmlns="http://www.w3.org/2000/svg" viewBox="0 0 50 50"><defs><linearGradient><stop offset="0" /></linearGradient><linearGradient id="Frame"><stop offset="0" stop-color="#ffffff" /></linearGradient></defs><rect fill="#fff" height="44.5" rx="3" width="44.5" x="2.75" y="2.75" /><rect fill="none" height="44.5" rx="3" stroke="url(#Frame)" stroke-miterlimit="10" stroke-width="1.5" width="44.5" x="2.75" y="2.75" /><path d="m5 25c0.00629 7.69 8.97 13.9 20 13.9 11-0.0346 20-6.28 20-14-0.00628-7.69-8.97-13.9-20-13.9-11 0-20 6.24-20 13.9m36.6-0.0346c0.00628 5.97-7.42 10.8-16.6 10.8s-16.6-4.83-16.6-10.8c-0.00315-5.94 7.43-10.8 16.6-10.8 9.17-0.0346 16.6 4.82 16.6 10.8" fill="#0066b3" /><path d="m31 21.7a4.85 4.85 0 0 0-3.3-0.641 2.9 2.9 0 0 0-0.911 0.336 3.02 3.02 0 0 0-0.854 0.776 2.38 2.38 0 0 0-0.346 0.845 2.88 2.88 0 0 0 0.0346 1.32c0.295 1.22 1.6 1.48 2.61 1.92a0.721 0.721 0 0 1 0.44 0.371 0.532 0.532 0 0 1-0.104 0.641 1.17 1.17 0 0 1-0.556 0.204 4.32 4.32 0 0 1-2.38-0.675l0.0157 2.13a4.4 4.4 0 0 0 1.04 0.371 3.69 3.69 0 0 0 4.19-0.98 2.44 2.44 0 0 0 0.339-2.29 1.89 1.89 0 0 0-0.766-0.98 5.67 5.67 0 0 0-0.958-0.54c-0.493-0.201-1.09-0.201-1.46-0.641a0.491 0.491 0 0 1-0.0408-0.437 0.432 0.432 0 0 1 0.283-0.305 1.81 1.81 0 0 1 1.03-0.0346 6.45 6.45 0 0 1 1.72 0.641l-0.0251-2.02m-6.51 0a5.04 5.04 0 0 0-3.3-0.641 3.01 3.01 0 0 0-0.911 0.371 2.24 2.24 0 0 0-0.854 0.776 2 2 0 0 0-0.346 0.81 2.87 2.87 0 0 0 0.0346 1.32c0.292 1.22 1.6 1.52 2.6 1.92a0.718 0.718 0 0 1 0.443 0.371 0.537 0.537 0 0 1-0.104 0.641 0.908 0.908 0 0 1-0.556 0.204 4.04 4.04 0 0 1-2.38-0.675c0 0.0346 0.0126 2.16 0.0126 2.13a7.16 7.16 0 0 0 1.04 0.405 3.75 3.75 0 0 0 4.19-0.98 2.44 2.44 0 0 0 0.339-2.29 2.13 2.13 0 0 0-0.766-1.01 5.6 5.6 0 0 0-0.958-0.506c-0.493-0.201-1.09-0.236-1.46-0.675a0.529 0.529 0 0 1 0.242-0.741 2.18 2.18 0 0 1 1.04-0.0346 6.43 6.43 0 0 1 1.72 0.641l-0.0314-2.02m-6.15-2.5a4.97 4.97 0 0 0-3.92-0.474 3.05 3.05 0 0 0-1.98 1.66 2.77 2.77 0 0 0-0.264 1.25 2.82 2.82 0 0 0 1.48 2.26c-0.11 0.135-0.283 0.17-0.437 0.27a2.72 2.72 0 0 0-0.638 0.606 2.34 2.34 0 0 0-0.572 1.32 2.9 2.9 0 0 0 0.11 1.32 3.2 3.2 0 0 0 2.49 2.06 4.97 4.97 0 0 0 1.58 0.066 4.82 4.82 0 0 0 1.19-0.236 2.83 2.83 0 0 0 0.848-0.336c0-0.0346-0.298-1.96-0.289-1.96a4.23 4.23 0 0 1-2.42 0.135 1.01 1.01 0 0 1-0.553-1.18 1.06 1.06 0 0 1 0.738-0.842 5.79 5.79 0 0 1 2.02-0.17l-0.0251-1.86a5.5 5.5 0 0 1-1.66-0.066 1.42 1.42 0 0 1-0.509-0.204 1.65 1.65 0 0 1-0.346-0.405 1.02 1.02 0 0 1-0.0126-0.977c0.587-1.05 1.99-0.609 2.92-0.27l0.248-1.96m17 3.81c-0.713 0-1.18 0.776-1.16 2.23s0.525 2.23 1.24 2.23c0.716 0 1.22-0.81 1.19-2.23-0.0251-1.52-0.556-2.26-1.27-2.23m0.0283-2.06c1.92-0.0314 3.5 1.01 3.56 4.22 0.0566 3.11-1.48 4.35-3.41 4.39-1.92 0.0346-3.5-1.05-3.56-4.25-0.0565-3.14 1.48-4.32 3.41-4.35" fill="#ed1b2e" /></svg>