<svg xmlns="http://www.w3.org/2000/svg" viewBox="0 0 50 50"><defs><linearGradient id="Background"><stop offset="0" stop-color="#2155d6" /></linearGradient><linearGradient id="Frame"><stop offset="0" stop-color="#2155d6" /></linearGradient><linearGradient id="Pictogram"><stop offset="0" stop-color="#ffffff" /></linearGradient></defs><rect fill="url(#Background)" height="44.5" rx="3" width="44.5" x="2.75" y="2.75" /><rect fill="none" height="44.5" rx="3" stroke="url(#Frame)" stroke-miterlimit="10" stroke-width="1.5" width="44.5" x="2.75" y="2.75" /><path d="m41 32.2-8.53 0.137v0.373s1.34 1.36 2 1.44 3.22 0.206 3.22 0.206a2.98 2.98 0 0 0 1.65 0.661 1.51 1.51 0 0 0 1.65-1.57 8.23 8.23 0 0 0 0.00891-1.25z" fill="url(#Pictogram)" stroke-miterlimit="10" stroke-width="1.5" /><path d="m26 21s6.9-0.0713 9.03 0.41c1.55 0.351 4.58 6.65 4.58 6.65a21.8 21.8 0 0 1 3.48 2.93 90.4 90.4 0 0 1 0.305 12.5 1.74 1.74 0 0 1-1.77 1.4c-1.16-0.00141-3.48 0.00185-3.48 0.00185s-0.826 0-1.24-1.2c-0.073-0.211-0.423-1.28-0.423-1.28l-10.5-0.032h-2.01l-10.5 0.032s-0.35 1.07-0.423 1.28c-0.414 1.2-1.24 1.2-1.24 1.2s-2.32-0.00326-3.48-0.00185a1.74 1.74 0 0 1-1.77-1.4 90.4 90.4 0 0 1 0.305-12.5 21.8 21.8 0 0 1 3.48-2.93s3.03-6.27 4.58-6.65c2.02-0.506 9.04-0.41 9.04-0.41z" fill="none" stroke="url(#Pictogram)" stroke-miterlimit="10" stroke-width="1.5" /><path d="m8.91 32.2 8.53 0.137v0.373s-1.34 1.36-2 1.44-3.22 0.206-3.22 0.206a2.98 2.98 0 0 1-1.65 0.661 1.51 1.51 0 0 1-1.65-1.57 8.23 8.23 0 0 1-0.0089-1.25z" fill="url(#Pictogram)" stroke-miterlimit="10" stroke-width="1.5" /><path d="m26 39.6s2.65-0.023 3.47-0.023a1.52 1.52 0 0 0 1.24-0.784s1.2-2.11 1.49-2.64 0.377-0.775 0-1.28a8.28 8.28 0 0 0-0.801-0.875 2.15 2.15 0 0 0-1.06-0.528h-10.7a2.15 2.15 0 0 0-1.06 0.528 8.28 8.28 0 0 0-0.801 0.875c-0.377 0.505-0.289 0.743 0 1.28s1.49 2.64 1.49 2.64a1.52 1.52 0 0 0 1.24 0.784c0.826 0 3.47 0.023 3.47 0.023z" fill="none" stroke="url(#Pictogram)" stroke-miterlimit="10" stroke-width="1.5" /><line fill="none" stroke="url(#Pictogram)" stroke-miterlimit="10" stroke-width="1.5" x1="10.4" x2="39.4" y1="28.1" y2="28.1" /><line fill="none" stroke="url(#Pictogram)" stroke-miterlimit="10" stroke-width="1.5" x1="18.5" x2="31.5" y1="5.5" y2="5.5" /><rect fill="url(#Pictogram)" height="3.5" width="1.5" x="24.2" y="7.22" /><line fill="none" stroke="url(#Pictogram)" stroke-miterlimit="10" stroke-width="1.5" x1="25" x2="25" y1="11.5" y2="15" /><line fill="none" stroke="url(#Pictogram)" stroke-miterlimit="10" stroke-width="1.5" x1="25" x2="25" y1="15.7" y2="19.2" /><polygon fill="url(#Pictogram)" points="31.5 10.4 30.3 7.22 31.9 7.22 32.9 9.85" /><line fill="none" stroke="url(#Pictogram)" stroke-miterlimit="10" stroke-width="1.5" x1="32.5" x2="33.7" y1="10.8" y2="14.1" /><line fill="none" stroke="url(#Pictogram)" stroke-miterlimit="10" stroke-width="1.5" x1="33.9" x2="35.1" y1="14.8" y2="18.1" /><polygon fill="url(#Pictogram)" points="18.5 10.4 17.1 9.85 18.1 7.22 19.7 7.22" /><line fill="none" stroke="url(#Pictogram)" stroke-miterlimit="10" stroke-width="1.5" x1="17.5" x2="16.3" y1="10.8" y2="14.1" /><line fill="none" stroke="url(#Pictogram)" stroke-miterlimit="10" stroke-width="1.5" x1="16.1" x2="14.9" y1="14.8" y2="18.1" /><polygon fill="url(#Pictogram)" points="22.1 10.6 20.7 10.3 21.2 7.22 22.7 7.22" /><line fill="none" stroke="url(#Pictogram)" stroke-miterlimit="10" stroke-width="1.5" x1="21.3" x2="20.7" y1="11.2" y2="14.6" /><line fill="none" stroke="url(#Pictogram)" stroke-miterlimit="10" stroke-width="1.5" x1="20.5" x2="19.9" y1="15.4" y2="18.8" /><polygon fill="url(#Pictogram)" points="27.9 10.6 27.3 7.22 28.8 7.22 29.3 10.3" /><line fill="none" stroke="url(#Pictogram)" stroke-miterlimit="10" stroke-width="1.5" x1="28.7" x2="29.3" y1="11.2" y2="14.6" /><line fill="none" stroke="url(#Pictogram)" stroke-miterlimit="10" stroke-width="1.5" x1="29.5" x2="30.1" y1="15.4" y2="18.8" /></svg>