<svg xmlns="http://www.w3.org/2000/svg" id="Icon" viewBox="0 0 50 50"><defs><linearGradient id="Background"><stop offset="0" stop-color="#000000" /></linearGradient><linearGradient id="Frame"><stop offset="0" stop-color="#000000" /></linearGradient> <linearGradient id="Pictogram"><stop offset="0" stop-color="#ffffff" /></linearGradient></defs><title>d0_t313_2s0</title><g id="Rahmen"><rect fill="url(#Background)" height="44.5" rx="3" width="44.5" x="2.75" y="2.75" /><rect fill="none" height="44.5" rx="3" stroke="url(#Frame)" stroke-miterlimit="10" stroke-width="1.5" width="44.5" x="2.75" y="2.75" /></g><line fill="none" stroke="url(#Pictogram)" stroke-miterlimit="10" stroke-width="1.5" x1="6.5" x2="29.5" y1="43" y2="43" /><line fill="none" stroke="url(#Pictogram)" stroke-miterlimit="10" stroke-width="1.5" x1="10.4" x2="25.6" y1="20" y2="20" /><path d="M8.5,43V9.4a1.72776,1.72776,0,0,1,1.6-1.9H25.6a1.96694,1.96694,0,0,1,1.9,1.9V43Z" fill="none" stroke="url(#Pictogram)" stroke-miterlimit="10" stroke-width="1.5" /><path d="M28,21.5h2.4a2.369,2.369,0,0,1,2.4,2.4V34.5c0,.9-.28215,4.6906,3.19957,4.6906,3.72184,0,3.4418-3.6638,3.46881-4.74065C39.50173,33.12021,39.5,30.11886,39.5,24.202" fill="none" stroke="url(#Pictogram)" stroke-miterlimit="10" stroke-width="1.5" /><path d="M42.402,9.07916a.49749.49749,0,0,0-.995,0v4.56029h-3.897V9.07916a.49749.49749,0,0,0-.995,0v4.56029H34.52514v5.96984h0a5.08925,5.08925,0,0,0,2.81909,4.47738,3.84565,3.84565,0,0,0,1.7412.33165h.82914a3.63025,3.63025,0,0,0,1.7412-.33165,5.31734,5.31734,0,0,0,2.81909-4.56029V13.63945H42.402Z" fill="url(#Pictogram)" /></svg>