<svg xmlns="http://www.w3.org/2000/svg" viewBox="0 0 50 50"><defs><linearGradient id="Background"><stop offset="0" stop-color="#5baa44" /></linearGradient><linearGradient id="Frame"><stop offset="0" stop-color="#5baa44" /></linearGradient><linearGradient id="Pictogram"><stop offset="0" stop-color="#ffffff" /></linearGradient></defs><rect fill="url(#Background)" height="44.5" rx="3" width="44.5" x="2.75" y="2.75" /><rect fill="none" height="44.5" rx="3" stroke="url(#Frame)" stroke-miterlimit="10" stroke-width="1.5" width="44.5" x="2.75" y="2.75" /><path d="m25 43.2h-2.96s-2.19-6.13-2.06-11a33.5 33.5 0 0 1 2.51-10.4 10.1 10.1 0 0 0 0.624-3.84 29.8 29.8 0 0 0-0.624-4.07 21.2 21.2 0 0 1-0.539-3.31c0-0.76 0.317-3.4 3.04-3.4h0.0159c2.73 0 3.04 2.64 3.04 3.4a21.2 21.2 0 0 1-0.539 3.31 29.8 29.8 0 0 0-0.624 4.07 10.1 10.1 0 0 0 0.624 3.84 33.5 33.5 0 0 1 2.51 10.4c0.134 4.87-2.06 11-2.06 11z" fill="none" stroke="url(#Pictogram)" stroke-miterlimit="10" stroke-width="1.5" /><rect fill="url(#Pictogram)" height="2.3" width="4" x="23" y="16.8" /><rect fill="url(#Pictogram)" height="2.3" width="5" x="22.5" y="20.6" /><path d="m37 32.6h-1.9a23.6 23.6 0 0 1-1.32-7.07 21.5 21.5 0 0 1 1.61-6.66 6.51 6.51 0 0 0 0.401-2.47 19.1 19.1 0 0 0-0.401-2.61 13.6 13.6 0 0 1-0.346-2.13 2.01 2.01 0 0 1 1.95-2.18h0.0102a2.01 2.01 0 0 1 1.95 2.18 13.6 13.6 0 0 1-0.346 2.13 19.1 19.1 0 0 0-0.401 2.61 6.51 6.51 0 0 0 0.401 2.47 21.5 21.5 0 0 1 1.61 6.66 23.6 23.6 0 0 1-1.32 7.07z" fill="none" stroke="url(#Pictogram)" stroke-miterlimit="10" stroke-width="1.2" /><rect fill="url(#Pictogram)" height="1.48" width="2.57" x="35.7" y="15.6" /><rect fill="url(#Pictogram)" height="1.48" width="3.21" x="35.4" y="18" /><path d="m13 32.6h-1.9a23.6 23.6 0 0 1-1.32-7.07 21.5 21.5 0 0 1 1.61-6.66 6.51 6.51 0 0 0 0.401-2.47 19.1 19.1 0 0 0-0.401-2.61 13.6 13.6 0 0 1-0.346-2.13 2.01 2.01 0 0 1 1.95-2.18h0.0102a2.01 2.01 0 0 1 1.95 2.18 13.6 13.6 0 0 1-0.346 2.13 19.1 19.1 0 0 0-0.401 2.61 6.51 6.51 0 0 0 0.401 2.47 21.5 21.5 0 0 1 1.61 6.66 23.6 23.6 0 0 1-1.32 7.07z" fill="none" stroke="url(#Pictogram)" stroke-miterlimit="10" stroke-width="1.2" /><rect fill="url(#Pictogram)" height="1.48" width="2.57" x="11.7" y="15.6" /><rect fill="url(#Pictogram)" height="1.48" width="3.21" x="11.4" y="18" /></svg>