<svg xmlns="http://www.w3.org/2000/svg" xmlns:ns1="http://www.w3.org/1999/xlink" data-name="Ebene 1" viewBox="0 0 50 50"><defs><linearGradient id="Background" x1="2.75" x2="47.2" y1="25" y2="25" gradientUnits="userSpaceOnUse"><stop stop-color="#5eb7a8" offset="0" /></linearGradient><linearGradient id="Frame" x1="2" x2="48" y1="25" y2="25" gradientUnits="userSpaceOnUse"><stop stop-color="#5eb7a8" offset="0" /></linearGradient><linearGradient id="Pictogram" x1="28" x2="35" y1="35.5" y2="35.5" gradientUnits="userSpaceOnUse"><stop stop-color="#fff" offset="0" /><stop stop-color="#fff" offset=".00503" /></linearGradient><linearGradient id="Pictogram-2" x1="25.2" x2="37.8" data-name="Pictogram" ns1:href="#Pictogram" /><linearGradient id="Pictogram-3" x1="21" x2="24" y1="31" y2="31" data-name="Pictogram" ns1:href="#Pictogram" /><linearGradient id="Pictogram-4" x1="36.7" x2="43.5" y1="33.5" y2="33.5" data-name="Pictogram" ns1:href="#Pictogram" /><linearGradient id="Pictogram-5" x1="18.8" x2="44.2" y1="35" y2="35" data-name="Pictogram" ns1:href="#Pictogram" /><linearGradient id="Pictogram-6" x1="21.7" x2="30.3" y1="16" y2="16" data-name="Pictogram" ns1:href="#Pictogram" /><linearGradient id="Pictogram-7" x1="21.8" x2="25.2" y1="10.7" y2="10.7" data-name="Pictogram" ns1:href="#Pictogram" /><linearGradient id="Pictogram-8" x1="26.8" x2="30.2" y1="10.7" y2="10.7" data-name="Pictogram" ns1:href="#Pictogram" /><linearGradient id="Pictogram-9" x1="18.8" x2="33.3" y1="14" y2="14" data-name="Pictogram" ns1:href="#Pictogram" /><linearGradient id="Pictogram-10" x1="8.69" x2="17.3" y1="22" y2="22" data-name="Pictogram" ns1:href="#Pictogram" /><linearGradient id="Pictogram-11" x1="5.75" x2="20.2" y1="20" y2="20" data-name="Pictogram" ns1:href="#Pictogram" /><linearGradient id="Pictogram-12" x1="8.75" x2="12.2" y1="16.7" y2="16.7" data-name="Pictogram" ns1:href="#Pictogram" /><linearGradient id="Pictogram-13" x1="13.8" x2="17.2" y1="16.7" y2="16.7" data-name="Pictogram" ns1:href="#Pictogram" /></defs><g data-name="Rahmen - Susibasis"><rect x="2.75" y="2.75" width="44.5" height="44.5" rx="3" ry="3" fill="url(#Background)" /><rect x="2.75" y="2.75" width="44.5" height="44.5" rx="3" ry="3" fill="none" stroke="url(#Frame)" stroke-miterlimit="10" stroke-width="1.5px" /></g><circle cx="31.5" cy="35.5" r="2.8" fill="none" stroke="url(#Pictogram)" stroke-miterlimit="10" stroke-width="1.5px" /><circle cx="31.5" cy="35.5" r="5.5" fill="none" stroke="url(#Pictogram-2)" stroke-miterlimit="10" stroke-width="1.5px" /><rect x="21" y="30" width="3" height="2" fill="url(#Pictogram-3)" /><line x1="26.2" x2="19.5" y1="33.5" y2="33.5" fill="none" stroke="url(#Pictogram)" stroke-miterlimit="10" stroke-width="1.5px" /><line x1="43.5" x2="36.7" y1="33.5" y2="33.5" fill="none" stroke="url(#Pictogram-4)" stroke-miterlimit="10" stroke-width="1.5px" /><polygon points="19.5 28.5 19.5 43.5 43.5 43.5 43.5 28.5 37 28.5 34.5 26.5 28.5 26.5 26 28.5" fill="none" stroke="url(#Pictogram-5)" stroke-miterlimit="10" stroke-width="1.5px" /><path d="m29.5 17.5c-0.144-1.79-1.71-3.13-3.5-3-1.79-0.134-3.36 1.2-3.5 3h7z" fill="none" stroke="url(#Pictogram-6)" stroke-miterlimit="10" stroke-width="1.5px" /><path d="m25.2 11.6c0-0.966-0.784-1.75-1.75-1.75s-1.75 0.784-1.75 1.75h3.5z" fill="url(#Pictogram-7)" /><path d="m30.2 11.6c0-0.966-0.784-1.75-1.75-1.75s-1.75 0.784-1.75 1.75h3.5z" fill="url(#Pictogram-8)" /><path d="m18.8 5.75v4.75h1.5v-3.25h11.5v7.75c0.00313 3.17-2.57 5.75-5.74 5.75-1.76 0.00174-3.42-0.802-4.51-2.18v2.1c3.13 2.49 7.68 1.97 10.2-1.15 1.02-1.28 1.58-2.88 1.58-4.52v-9.25h-14.5z" fill="url(#Pictogram-9)" /><path d="m9.5 20.5c0.144 1.79 1.71 3.13 3.5 3 1.79 0.134 3.36-1.2 3.5-3h-7z" fill="none" stroke="url(#Pictogram-10)" stroke-miterlimit="10" stroke-width="1.5px" /><path d="m19.5 21c0 3.59-2.91 6.5-6.5 6.5s-6.5-2.91-6.5-6.5v-8.5h13v8.5z" fill="none" stroke="url(#Pictogram-11)" stroke-miterlimit="10" stroke-width="1.5px" /><path d="m12.2 17.6c0-0.966-0.784-1.75-1.75-1.75s-1.75 0.784-1.75 1.75h3.5z" fill="url(#Pictogram-12)" /><path d="m17.2 17.6c0-0.966-0.784-1.75-1.75-1.75s-1.75 0.784-1.75 1.75h3.5z" fill="url(#Pictogram-13)" /></svg>