<svg xmlns="http://www.w3.org/2000/svg" viewBox="0 0 50 50"><defs><linearGradient id="Background"><stop offset="0" stop-color="#5baa44" /></linearGradient><linearGradient id="Frame"><stop offset="0" stop-color="#5baa44" /></linearGradient><linearGradient id="Pictogram"><stop offset="0" stop-color="#ffffff" /></linearGradient></defs><rect fill="url(#Background)" height="44.5" rx="3" width="44.5" x="2.75" y="2.75" /><rect fill="none" height="44.5" rx="3" stroke="url(#Frame)" stroke-miterlimit="10" stroke-width="1.5" width="44.5" x="2.75" y="2.75" /><polygon fill="none" points="37 32 13 32 13 18 25 18 37 18" stroke="url(#Pictogram)" stroke-miterlimit="10" stroke-width="1.5" /><line fill="none" stroke="url(#Pictogram)" stroke-miterlimit="10" stroke-width="1.5" x1="25" x2="25" y1="18" y2="32" /><circle cx="25" cy="25" fill="none" r="4" stroke="url(#Pictogram)" stroke-miterlimit="10" stroke-width="1.5" /><polyline fill="none" points="13 21.5 17 21.5 17 28.5 13 28.5" stroke="url(#Pictogram)" stroke-miterlimit="10" stroke-width="1.5" /><polyline fill="none" points="37 21.5 33 21.5 33 28.5 37 28.5" stroke="url(#Pictogram)" stroke-miterlimit="10" stroke-width="1.5" /><path d="m30.7 37.8a12.8 12.8 0 0 0 0-25.5h-11.5a12.8 12.8 0 0 0 0 25.5z" fill="none" stroke="url(#Pictogram)" stroke-miterlimit="10" stroke-width="2.5" /></svg>