<svg xmlns="http://www.w3.org/2000/svg" viewBox="0 0 50 50"><defs><linearGradient id="Background"><stop offset="0" stop-color="#000000" /></linearGradient><linearGradient id="Frame"><stop offset="0" stop-color="#575756" /></linearGradient><linearGradient id="Pictogram"><stop offset="0" stop-color="#ffffff" /></linearGradient></defs><rect fill="url(#Background)" height="44.5" rx="3" width="44.5" x="2.75" y="2.75" /><rect fill="none" height="44.5" rx="3" stroke="url(#Frame)" stroke-miterlimit="10" stroke-width="1.5" width="44.5" x="2.75" y="2.75" /><line fill="none" stroke="url(#Pictogram)" stroke-miterlimit="10" stroke-width="1.5" x1="6.5" x2="29.5" y1="43" y2="43" /><line fill="none" stroke="url(#Pictogram)" stroke-miterlimit="10" stroke-width="1.5" x1="10.4" x2="25.6" y1="20" y2="20" /><path d="m8.5 43v-33.6a1.73 1.73 0 0 1 1.6-1.9h15.5a1.97 1.97 0 0 1 1.9 1.9v33.6z" fill="none" stroke="url(#Pictogram)" stroke-miterlimit="10" stroke-width="1.5" /><path d="m28 21.5h2.4a2.37 2.37 0 0 1 2.4 2.4v10.6c0 0.9-0.282 4.69 3.2 4.69 3.72 0 3.44-3.66 3.47-4.74 0.0334-1.33 0.0316-4.33 0.0316-10.2" fill="none" stroke="url(#Pictogram)" stroke-miterlimit="10" stroke-width="1.5" /><path d="m42.4 9.08a0.497 0.497 0 0 0-0.995 0v4.56h-3.9v-4.56a0.497 0.497 0 0 0-0.995 0v4.56h-1.99v5.97a5.09 5.09 0 0 0 2.82 4.48 3.85 3.85 0 0 0 1.74 0.332h0.829a3.63 3.63 0 0 0 1.74-0.332 5.32 5.32 0 0 0 2.82-4.56v-5.89h-2.07z" fill="url(#Pictogram)" /></svg>