<svg xmlns="http://www.w3.org/2000/svg" viewBox="0 0 50 50"><defs><linearGradient><stop offset="0" /></linearGradient><linearGradient id="Frame"><stop offset="0" stop-color="#ffffff" /></linearGradient></defs><defs><clipPath id="clip-path"><rect fill="none" height="42" width="42" x="4" y="4" /></clipPath><clipPath id="clip-path-2"><path d="M15.13,19.503c-.59.059-1.52.128-2.207.217a11.91657,11.91657,0,0,0-2.389.426c-.248.293,1.397.51,3.914.544.169.001.348.003.529.003a10.7389,10.7389,0,0,1,.181-1.181l.003-.014-.031.005" fill="none" /></clipPath><linearGradient gradientTransform="matrix(0 1.37 -1.37 0 700 233)" gradientUnits="userSpaceOnUse" id="Unbenannter_Verlauf_8" x1="-156" x2="-155" y1="502" y2="502"><stop offset="0" stop-color="#d75e14" /><stop offset="1" stop-color="#f5aa02" /></linearGradient><clipPath id="clip-path-3"><path d="m28.3 10.5h-1e-3c-0.022 0.01-0.043 0.017-0.064 0.025-1.22 0.436-2.08 1.74-2.95 3.03a2.18 2.18 0 0 1-1.74 0.879c-2.22 0.037-4.49 0.168-6.22 0.33 0 0-5.62 0.403-5.92 0.902a12.2 12.2 0 0 0-0.907 4.54l1e-3 -9e-3a0.101 0.101 0 0 1 0.023-0.035 11.8 11.8 0 0 1 2.39-0.427c0.687-0.089 1.62-0.157 2.21-0.217a0.181 0.181 0 0 0 0.031-5e-3c1.95-0.193 5.68-0.461 7.81-0.518 2.24-0.062 4.35-0.09 6.28-0.09 2.55 0 4.78 0.048 6.56 0.129a9.22 9.22 0 0 0-0.334-4.54l-0.833 1e-3h-0.344c-1.43-2.53-3.41-4.15-5.11-4.15a2.45 2.45 0 0 0-0.875 0.158" fill="none" /></clipPath><linearGradient gradientTransform="matrix(0 19.7 -19.7 -.00026 8610 -2516)" gradientUnits="userSpaceOnUse" id="Unbenannter_Verlauf_2" x1="128" x2="129" y1="437" y2="437"><stop offset="0" stop-color="#fccd55" /><stop offset=".196" stop-color="#f4a907" /><stop offset="1" stop-color="#e8600f" /></linearGradient><clipPath id="clip-path-4"><path d="m27.5 9.22a13.2 13.2 0 0 0-10.2 5.53c1.74-0.162 4-0.293 6.22-0.33a2.18 2.18 0 0 0 1.74-0.879c0.87-1.29 1.73-2.6 2.95-3.03 0.021-8e-3 0.042-0.015 0.064-0.025a2.46 2.46 0 0 1 0.876-0.158c1.7 0 3.68 1.62 5.11 4.15h1.18a7.94 7.94 0 0 0-7.78-5.25z" fill="none" /></clipPath><linearGradient gradientTransform="translate(-2348 -7170) scale(17)" gradientUnits="userSpaceOnUse" id="Unbenannter_Verlauf_3" x1="139" x2="140" y1="423" y2="423"><stop offset="0" stop-color="#fdce55" /><stop offset="1" stop-color="#f39908" /></linearGradient><clipPath id="clip-path-6"><path d="M24.307,23.644c-.186.004-.362.009-.524.015-.005,0-.224.008-.473.017-.35.012-.767.028-.787.028-2.85.115-5.265.298-7.229.491l.002.01.001.002.003.009v.002l.004.008v.002l.002.009.001.009.002.001.005.009v.01l.001.001.002.01h.001l.004.008v.002l.002.011h.001l.003.009a7.84579,7.84579,0,0,0,.924,1.946,3.90631,3.90631,0,0,1,.69-.051c.316,0,.576.024.576.024,1.751,1.432,2.925,1.987,3.79,1.987,1.471,0,2.039-1.609,3.004-3.24a4.57862,4.57862,0,0,1,1.154-1.347c-.416.004-.806.011-1.159.018m1.159-.018h0Zm1.714-.013c-.589.002-1.159.005-1.688.013.89-.01,1.936-.015,2.993-.015,1.192,0,2.394.005,3.386.01-.99-.005-2.174-.011-3.363-.011-.445,0-.891.001-1.328.003" fill="none" /></clipPath><linearGradient gradientTransform="translate(2189 -250) rotate(90) scale(4.52)" gradientUnits="userSpaceOnUse" id="Unbenannter_Verlauf_4" x1="60.4" x2="61.4" y1="479" y2="479"><stop offset="0" stop-color="#891323" /><stop offset=".238" stop-color="#ba172c" /><stop offset=".381" stop-color="#cf1b2f" /><stop offset=".663" stop-color="#e42032" /><stop offset="1" stop-color="#da1d30" /></linearGradient><clipPath id="clip-path-7"><path d="M25.465,23.624l.001.002a4.57862,4.57862,0,0,0-1.154,1.347c-.965,1.631-1.533,3.24-3.004,3.24-.865,0-2.041-.555-3.79-1.987,0,0-.26-.024-.576-.024a3.89921,3.89921,0,0,0-.69.051,7.52506,7.52506,0,0,0,1.964,2.026c.058.038.107.071.147.1.085.056.175.116.264.17a7.90835,7.90835,0,0,0,.912.481l.001.001.009.004.01.003a9.06245,9.06245,0,0,0,3.287.739h.002c.134.004.268.007.404.007a13.31062,13.31062,0,0,0,10.713-6.149c-.135,0-.302-.003-.494-.004-.422-.003-.973-.008-1.601-.012-.991-.006-2.194-.01-3.386-.01-1.065,0-2.122.004-3.019.015" fill="none" /></clipPath><linearGradient gradientTransform="translate(-2471 -7519) scale(17.8)" gradientUnits="userSpaceOnUse" id="Unbenannter_Verlauf_5" x1="140" x2="141" y1="424" y2="424"><stop offset="0" stop-color="#e42032" /><stop offset=".314" stop-color="#d0182f" /><stop offset=".615" stop-color="#a81326" /><stop offset="1" stop-color="#951422" /></linearGradient><clipPath id="clip-path-9"><path d="m34 23.6zm5e-3 0q-0.352 0.537-0.752 1.04c3.71-0.113 6.15-0.372 6.25-0.71v-5e-3a5.78 5.78 0 0 0-1.78-0.215c-1.4-0.075-1.96-0.087-3.3-0.108 0 0-0.159 0-0.417-3e-3" fill="none" /></clipPath><linearGradient gradientTransform="translate(-280 575) rotate(-90) scale(1.04)" gradientUnits="userSpaceOnUse" id="Unbenannter_Verlauf_6" x1="528" x2="529" y1="304" y2="304"><stop offset="0" stop-color="#d7d8d6" /><stop offset="1" stop-color="#828481" /></linearGradient><clipPath id="clip-path-10"><path d="M22.97,18.98c-2.13.057-5.857.325-7.809.518-.046.218-.115.574-.17,1.046l-.001.027c-.019.161-.033.32-.043.48l-.002.03c-.009.158-.013.311-.015.463-.002.097.002.192.004.289,0,.08,0,.16.003.239.008.168.019.338.035.502.005.049.012.095.018.143.016.128.029.258.052.384.009.052.019.102.028.155.022.122.045.244.073.363.009.049.021.095.034.142.03.125.061.25.096.371.007.021.013.042.021.063v-.001c1.966-.192,4.377-.375,7.225-.49.023-.001.442-.016.792-.029.252-.008.468-.016.472-.016.861-.028,2.076-.041,3.376-.046h.021c.44-.002.89-.003,1.339-.003,1.233,0,2.46.006,3.47.011.031.001.064.001.098.001q.372.003.698.005c.412.003.759.007,1.025.008.056.001.108.002.158.002.256.003.413.003.413.003,1.347.021,1.899.034,3.306.108a5.84075,5.84075,0,0,1,1.78.215v.005l-.005.013h.001a11.30015,11.30015,0,0,0,.901-4.365c.045-.237-1.653-.465-4.556-.597h-.003c-1.779-.081-4.006-.129-6.559-.129-1.924,0-4.034.028-6.276.09" fill="none" /></clipPath><linearGradient gradientTransform="matrix(0 24.4 -24.4 -.00034 10597 -3330)" gradientUnits="userSpaceOnUse" id="Unbenannter_Verlauf_7" x1="137" x2="138" y1="433" y2="433"><stop offset="0" stop-color="#a7a5a3" /><stop offset=".288" stop-color="#fff" /><stop offset="1" stop-color="#a7a5a3" /></linearGradient></defs><rect fill="#fff" height="44.5" rx="3" width="44.5" x="2.75" y="2.75" /><rect fill="none" height="44.5" rx="3" stroke="url(#Frame)" stroke-miterlimit="10" stroke-width="1.5" width="44.5" x="2.75" y="2.75" /><g clip-path="url(#clip-path)"><path d="m35.5 14.5a7.94 7.94 0 0 0-7.78-5.25h-0.162a13.2 13.2 0 0 0-10.2 5.53s-5.62 0.403-5.92 0.901a12.2 12.2 0 0 0-0.907 4.54l-2e-3 6e-3c-0.028 0.267 1.57 0.461 3.94 0.493 0.169 2e-3 0.348 3e-3 0.529 3e-3a10.7 10.7 0 0 1 0.182-1.18l2e-3 -0.014c1.95-0.193 5.68-0.461 7.81-0.519 2.24-0.061 4.35-0.089 6.28-0.089 2.55 0 4.78 0.048 6.56 0.129a9.18 9.18 0 0 0-0.334-4.54z" fill="#f3a008" /></g><g clip-path="url(#clip-path-2)"><rect fill="url(#Unbenannter_Verlauf_8)" height="2.02" transform="translate(-3.3 2.51) rotate(-10)" width="5.01" x="10.2" y="19.1" /></g><g clip-path="url(#clip-path-3)"><rect fill="url(#Unbenannter_Verlauf_2)" height="25.1" transform="translate(-3.97 20.9) rotate(-45)" width="25.1" x="10.8" y="2.73" /></g><g clip-path="url(#clip-path-4)"><rect fill="url(#Unbenannter_Verlauf_3)" height="5.53" width="18.1" x="17.3" y="9.22" /></g><g clip-path="url(#clip-path)"><path d="m34 23.6c-1.6-0.015-7.54-0.062-10.2 0.021-0.01 1e-3 -1.22 0.044-1.26 0.046-2.85 0.116-5.26 0.297-7.23 0.49l-1e-3 1e-3a7.94 7.94 0 0 0 7.96 5.59 13.3 13.3 0 0 0 10.7-6.15" fill="#e31e32" /></g><g clip-path="url(#clip-path-6)"><rect fill="url(#Unbenannter_Verlauf_4)" height="4.6" width="16.6" x="15.3" y="23.6" /></g><g clip-path="url(#clip-path-7)"><rect fill="url(#Unbenannter_Verlauf_5)" height="6.18" width="17.7" x="16.3" y="23.6" /></g><g clip-path="url(#clip-path)"><path d="M29.2451,18.8896c-1.924,0-4.031.029-6.273.09-2.13.058-5.86.326-7.811.519-.046.218-.114.575-.169,1.046v.028c-.019.16-.034.319-.044.479a.29092.29092,0,0,1-.004.031c-.008.158-.013.308-.015.46-.001.097.002.196.003.291,0,.081,0,.158.004.236.008.17.02.34.036.504.004.047.013.094.02.141.015.129.028.258.051.385.009.052.017.105.027.157.022.122.047.242.075.362a1.44882,1.44882,0,0,0,.032.142c.03.124.062.252.097.373l.02.059c1.966-.193,4.378-.372,7.225-.488.023,0,.441-.018.79-.031.252-.008.468-.015.472-.015.86-.028,2.076-.042,3.377-.048h.02c.44-.001.891,0,1.34,0,1.233,0,2.46.006,3.471.012.032.001.065,0,.099,0,.247.002.478.002.695.004.412.003.76.006,1.026.008.056.001.107.004.158.004-.235.358-.489.705-.755,1.042h.004c3.709-.113,6.148-.375,6.25-.712v-.004a11.38012,11.38012,0,0,0,.9-4.348c.045-.236-1.653-.465-4.556-.597h-.003c-1.779-.081-4.008-.13-6.562-.13" fill="#b8b6b5" /></g><g clip-path="url(#clip-path-9)"><rect fill="url(#Unbenannter_Verlauf_6)" height="1.04" width="6.25" x="33.2" y="23.6" /></g><g clip-path="url(#clip-path-10)"><rect fill="url(#Unbenannter_Verlauf_7)" height="25.8" transform="matrix(.342 -.94 .94 .342 -2.04 40.2)" width="13.7" x="20.8" y="8.66" /></g><g clip-path="url(#clip-path)"><path d="m32.3 34.5-0.131 0.609a0.608 0.608 0 0 1-0.588 0.485h-0.138c-1.23 4e-3 -1.3 0.338-1.54 1.48l-0.293 1.35a2.09 2.09 0 0 1-2.04 1.75h-3.11l0.131-0.61a0.626 0.626 0 0 1 0.59-0.486h0.747c1.23-4e-3 1.3-0.336 1.54-1.48l0.293-1.35a2.45 2.45 0 0 1 2.53-1.75zm-15.8 2.32h2.58l-0.131 0.596a0.633 0.633 0 0 1-0.589 0.486h-2.09l-0.25 1.18h2.58l-0.135 0.63a0.621 0.621 0 0 1-0.582 0.465h-3.71a0.434 0.434 0 0 1-0.467-0.519l0.996-4.67a0.638 0.638 0 0 1 0.59-0.486h4.29l-0.132 0.608a0.632 0.632 0 0 1-0.589 0.486h-2.09zm25.5 2.26h1.96l-0.134 0.631a0.626 0.626 0 0 1-0.585 0.465h-3.09a0.434 0.434 0 0 1-0.466-0.519l0.997-4.67a0.635 0.635 0 0 1 0.589-0.486l1.71-1e-3zm-33.7 1.1h-1.62a0.434 0.434 0 0 1-0.467-0.519l0.996-4.67a0.637 0.637 0 0 1 0.591-0.486h2.74a6.9 6.9 0 0 1 1.04 0.068 2.53 2.53 0 0 1 0.784 0.237 1.25 1.25 0 0 1 0.725 1.1 1.5 1.5 0 0 1-0.814 1.46 3.73 3.73 0 0 1-1.45 0.331s-0.18 0.04 0.028 0.094a1.25 1.25 0 0 1 0.467 0.253 10.2 10.2 0 0 1 1.82 2.12h-2.43a18.9 18.9 0 0 0-1.29-2.09 0.7 0.7 0 0 0-0.623-0.245zm2.64-4.16a0.544 0.544 0 0 0-0.295-0.484 1.69 1.69 0 0 0-0.78-0.145h-0.54l-0.328 1.53h0.537a1.99 1.99 0 0 0 1.06-0.236 0.699 0.699 0 0 0 0.341-0.664m9.31 4.16s-0.573 0.026-0.494-0.519l0.997-4.67a0.632 0.632 0 0 1 0.589-0.485l2.41-1e-3a7.79 7.79 0 0 1 1.16 0.079 2.94 2.94 0 0 1 0.869 0.256 1.47 1.47 0 0 1 0.57 0.472 1.57 1.57 0 0 1 0.233 0.77 1.67 1.67 0 0 1-0.899 1.58 5.22 5.22 0 0 1-2.75 0.555h-0.662l-0.422 1.96zm4.18-4.14a0.569 0.569 0 0 0-0.318-0.492 1.86 1.86 0 0 0-0.863-0.161h-0.381l-0.363 1.7h0.307a2.29 2.29 0 0 0 1.22-0.27 0.806 0.806 0 0 0 0.396-0.777m10.2 0.317c-0.733 0.837-0.924 1.93-0.422 2.44 0.501 0.508 1.5 0.243 2.24-0.595 0.734-0.837 0.923-1.93 0.421-2.44-0.501-0.509-1.5-0.242-2.24 0.594m-2.82 1.98c-0.302-1.63 1.19-3.43 3.08-3.95 2.19-0.441 4.03 0.4 4.37 2.08a3.71 3.71 0 0 1-3.16 3.86c-2.01 0.373-3.94-0.347-4.29-1.99" fill="#001744" /></g></svg>