<svg xmlns="http://www.w3.org/2000/svg" viewBox="0 0 50 50"><defs><linearGradient id="Frame"><stop offset="0" stop-color="#ffffff" /></linearGradient></defs><rect fill="#fff" height="44.5" rx="3" width="44.5" x="2.75" y="2.75" /><rect fill="none" height="44.5" rx="3" stroke="url(#Frame)" stroke-miterlimit="10" stroke-width="1.5" width="44.5" x="2.75" y="2.75" /><path d="m8.55 45h32.9v-40h-32.9z" fill="#ffe300" /><path d="m8.55 5h32.9v40h-32.9z" fill="none" stroke="#027abf" stroke-miterlimit="5.15" stroke-width=".387" /><path d="m12.3 8.74h25.4v6.72h-17.6v2.62h17.6v6.72h-17.6v2.62h17.6v6.72h-25.4z" fill="#027abf" /><path d="m17.6 36.8h2.67a2.25 2.25 0 0 1 0 4.51h-2.67z" fill="#027abf" /><path d="m28.5 36.8h1.39v1.72l1.57-1.72h1.83l-1.77 1.92 1.92 2.59h-1.77l-1.13-1.54-0.651 0.675v0.86h-1.39z" fill="#027abf" /><path d="m35.1 36.8h2.08l1.55 4.51h-1.4l-0.289-0.928h-1.79l-0.305 0.928h-1.39z" fill="#027abf" /><path d="m35.6 39.3h1.06l-0.534-1.53z" fill="#ffe300" /><path d="m19 37.9h1.09a1.06 1.06 0 1 1 0 2.13h-1.09z" fill="#ffe300" /><path d="m12.3 36.7h4.51v1.17h-3.12v0.498h3.12v1.17h-3.12v0.494h3.12v1.17h-4.51z" fill="#027abf" /><path d="m23.2 36.7h4.51v1.17h-3.12v0.498h3.12v1.17h-3.12v0.494h3.12v1.17h-4.51z" fill="#027abf" /></svg>