<svg xmlns="http://www.w3.org/2000/svg" viewBox="0 0 50 50"><defs><linearGradient id="Background"><stop offset="0" stop-color="#e55353" /></linearGradient><linearGradient id="Frame"><stop offset="0" stop-color="#e55353" /></linearGradient><linearGradient id="Pictogram"><stop offset="0" stop-color="#ffffff" /></linearGradient></defs><rect fill="url(#Background)" height="44.5" rx="3" width="44.5" x="2.75" y="2.75" /><rect fill="none" height="44.5" rx="3" stroke="url(#Frame)" stroke-miterlimit="10" stroke-width="1.5" width="44.5" x="2.75" y="2.75" /><polygon fill="url(#Pictogram)" points="10.3 27.8 7.98 27.8 7.98 42 10.3 42 10.3 39.5 39.6 39.5 39.6 42 42 42 42 30.7 39.6 30.7 39.6 36 10.3 36" /><rect fill="url(#Pictogram)" height="2.39" width="7.82" x="11.4" y="32.5" /><polygon fill="#003f87" points="27.8 12.1 22.2 12.1 22.2 17.5 16.9 17.5 16.9 23 22.2 23 22.2 28.3 27.8 28.3 27.8 23 33.1 23 33.1 17.5 27.8 17.5" /><polyline fill="none" points="11.2 12.6 25 5.68 38.8 12.6" stroke="url(#Pictogram)" stroke-miterlimit="10" stroke-width="2" /></svg>