<svg xmlns="http://www.w3.org/2000/svg" viewBox="0 0 50 50"><defs><linearGradient id="Background"><stop offset="0" stop-color="#dd9a2f" /></linearGradient><linearGradient id="Pictogram"><stop offset="0" stop-color="#ffffff" /></linearGradient></defs><rect fill="url(#Background)" height="44.5" rx="3" width="44.5" x="2.75" y="2.75" /><rect fill="none" height="44.5" rx="3" stroke="url(#Background)" stroke-miterlimit="10" stroke-width="1.5" width="44.5" x="2.75" y="2.75" /><path d="m21.2 20h-5.4a1.28 1.28 0 0 1-1-0.4 4.11 4.11 0 0 1-0.8-2.6v3a2.04 2.04 0 0 0 0.8 1.6c0.2 0.2 2.7 2.1 3.7 3 1.1-0.8 3.5-2.8 3.7-3a2.04 2.04 0 0 0 0.8-1.6v-3a4.42 4.42 0 0 1-0.8 2.6 1.16 1.16 0 0 1-1 0.4z" fill="url(#Pictogram)" stroke="url(#Pictogram)" stroke-miterlimit="10" stroke-width="2" /><line fill="none" stroke="url(#Pictogram)" stroke-miterlimit="10" stroke-width="2" x1="14" x2="14" y1="17" y2="7.4" /><line fill="none" stroke="url(#Pictogram)" stroke-miterlimit="10" stroke-width="2" x1="23" x2="23" y1="7.4" y2="17" /><path d="M18.5,7.4V44" fill="none" stroke="url(#Pictogram)" stroke-miterlimit="10" stroke-width="2" /><path d="M35.5,27.4l-1.3-.2c-2.8-.4-4.5-2.1-4.5-4.6V16.8c0-2.2,1.2-10.4,4.6-10.4h1.2Z" fill="url(#Pictogram)" /><polyline points="34.5 44 34.5 29 34.5 26" stroke="url(#Pictogram)" stroke-miterlimit="10" stroke-width="2" /></svg>