<svg xmlns="http://www.w3.org/2000/svg" viewBox="0 0 50 50"><defs><linearGradient><stop offset="0" /></linearGradient><linearGradient id="Frame"><stop offset="0" stop-color="#ffffff" /></linearGradient></defs><rect fill="#fff" height="44.5" rx="3" width="44.5" x="2.75" y="2.75" /><rect fill="none" height="44.5" rx="3" stroke="url(#Frame)" stroke-miterlimit="10" stroke-width="1.5" width="44.5" x="2.75" y="2.75" /><path d="m43.9 21-0.306-1.1h-2.96l-1.4-2.52-1.06 0.195a16.5 16.5 0 0 0-5.54 1.81 7.07 7.07 0 0 0-0.686 0.477 9.02 9.02 0 0 0-0.818 0.721l0.272-1.53h-2.17c-2.08 0-3.99 0.029-5.35 0.896l0.134-0.751h-5.8l-0.512 2.88c-0.022-0.027-0.035-0.06-0.057-0.086a5.78 5.78 0 0 0-4.46-1.9 7.08 7.08 0 0 0-7.44 5.62 4.51 4.51 0 0 0 0.905 3.8c1.1 1.31 3.02 2.01 5.54 2.01h14.1l0.697-3.92h2.01a15 15 0 0 0 0.404 1.83l0.304 1.1h2.97l1.39 2.51 1.06-0.197a16.4 16.4 0 0 0 5.62-1.87 6.77 6.77 0 0 0 0.71-0.505c2.83-2.33 3.61-5.34 2.45-9.48" /><path d="m32.8 21.1c-3.3 2.56-2.55 6.12-2.04 7.99h2.71l1.3 2.34a15.2 15.2 0 0 0 5.1-1.67 5.19 5.19 0 0 0 0.55-0.389c1.96-1.62 3.11-3.82 1.96-7.92h-2.7l-1.3-2.35a15.2 15.2 0 0 0-5.01 1.61 5.92 5.92 0 0 0-0.562 0.39" fill="#fff" /><polygon fill="#fff" points="22.2 20.7 20.6 30.1 17.8 30.1 19.5 20.7" /><path d="m29.3 22.2h-1.68c-0.946 0-1.29 0.346-1.37 0.796l-0.321 1.81h2.72l-0.236 1.33h-2.72l-0.698 3.92h-2.74l1.16-6.55c0.53-2.98 2.45-2.93 6.17-2.93z" fill="#fff" /><path d="m10.4 24.8 0.048-0.104a2.82 2.82 0 0 1 2.45-1.54 1.79 1.79 0 0 1 1.89 1.54l8e-3 0.103zm6.74 0.832c0.278-1.97-0.895-3.91-4.06-4.02a5.58 5.58 0 0 0-5.91 4.38c-0.45 2.53 1.41 4.05 4.97 4.05h3.87l0.29-1.63h-3.22c-2.19 0-3.21-0.677-3.11-2.07l8e-3 -0.099h7.03a5.57 5.57 0 0 0 0.121-0.61" fill="#fff" /><path d="m31.1 28.7c-1.04-3.73 0.204-5.95 1.93-7.27-3.68 2.95 3.13 7.27 3.13 7.27z" fill="#0033ab" /><path d="m37.2 25.5-0.203-3.66s6.85 4.32 3.17 7.27a5.3 5.3 0 0 1-0.511 0.359 13.8 13.8 0 0 1-4.65 1.54l-1.26-2.28h2.4l-0.124-2.87z" fill="#cf142b" /><path d="m42.1 21.8h-5.1s6.85 4.32 3.17 7.27c1.72-1.32 2.97-3.54 1.93-7.27" fill="#fa8085" /><path d="m36.2 28.7s-6.81-4.32-3.13-7.27a4.85 4.85 0 0 1 0.511-0.357 13.8 13.8 0 0 1 4.65-1.54l1.27 2.29h-2.44l0.158 2.83-1.17 0.364z" fill="#578ad6" /></svg>