<svg xmlns="http://www.w3.org/2000/svg" viewBox="0 0 50 50"><defs><linearGradient id="Frame"><stop offset="0" stop-color="#cd1414" /></linearGradient></defs><rect fill="#cd1414" height="44.5" rx="3" width="44.5" x="2.75" y="2.75" /><rect fill="none" height="44.5" rx="3" stroke="url(#Frame)" stroke-miterlimit="10" stroke-width="1.5" width="44.5" x="2.75" y="2.75" /><path d="m45 27.4a1.65 1.65 0 1 1-1.65-1.65 1.65 1.65 0 0 1 1.65 1.65z" fill="#ffd200" /><path d="m8.43 24.9h0.613a1.12 1.12 0 0 0 1.2-0.968 0.856 0.856 0 0 0-0.914-0.968h-0.589zm31-1.12 1.4-2.62h3.21l-4.84 7.67h-3.28l1.55-2.19-1.77-5.32-1.21 7.51h-2.57l-1.58-3.55-0.571 3.55h-2.57l1.24-7.67h2.64l1.53 3.43 0.553-3.43h5.62zm-12-2.62-1.24 7.67h-2.58l-1.58-3.55-0.571 3.55h-2.57l1.24-7.67h2.64l1.53 3.43 0.553-3.43zm-17.4-0.116c1.77 0 2.98 0.968 2.99 2.51l0.377-2.39h5.82l-0.313 1.94h-3.06l-0.153 0.919h2.78l-0.31 1.92h-2.79l-0.161 0.953h3.13l-0.313 1.94h-5.85l0.669-4.15a3.23 3.23 0 0 1-3.28 2.14h-1.47l-0.323 2.02h-2.79l1.25-7.79z" fill="#fff" /></svg>