<svg xmlns="http://www.w3.org/2000/svg" viewBox="0 0 50 50"><defs><linearGradient><stop offset="0" /></linearGradient><linearGradient id="Frame"><stop offset="0" stop-color="#ffffff" /></linearGradient></defs><rect fill="#fff" height="44.5" rx="3" width="44.5" x="2.75" y="2.75" /><rect fill="none" height="44.5" rx="3" stroke="url(#Frame)" stroke-miterlimit="10" stroke-width="1.5" width="44.5" x="2.75" y="2.75" /><path d="m33.3 9.56c0 0.889-0.313 2.12-1.58 2.12-1.52 0-1.52-1.7-1.52-2.06 0-0.349 0-2.17 1.56-2.17 1.42 0 1.53 1.57 1.53 2.12m-3.07-4.75h-1.02v6.56l-0.0257 0.975h0.988l0.0247-0.828a1.67 1.67 0 0 0 0.534 0.558 2.14 2.14 0 0 0 1.21 0.344 2.3 2.3 0 0 0 1.91-0.932 3.1 3.1 0 0 0 0.521-1.99 2.86 2.86 0 0 0-0.638-2.05 2.25 2.25 0 0 0-1.73-0.699 1.82 1.82 0 0 0-1.78 0.939v-2.88" fill="#168a44" /><path d="m36.2 9.77c0-0.491 0-2.21 1.63-2.21 1.21 0 1.5 1.02 1.5 2a3.05 3.05 0 0 1-0.447 1.71 1.38 1.38 0 0 1-1.15 0.527c-1.44 0-1.53-1.36-1.53-2.02m-0.974 4.66h1.01v-2.7a1.89 1.89 0 0 0 1.67 0.809c1.3 0 2.48-0.889 2.48-2.92 0-2.02-1.12-2.82-2.29-2.82a2.12 2.12 0 0 0-1.86 0.987l-0.0178-0.901h-1.04c0.0247 0.521 0.0375 0.656 0.0375 0.895v6.66" fill="#168a44" /><path d="m27.1 18.2a22 22 0 0 0-2.09-3.76 22 22 0 0 0-2.09 3.76 14.7 14.7 0 0 1 2.09 2.85 14.2 14.2 0 0 1 2.09-2.85" fill="#168a44" /><path d="m22.9 41.8a22 22 0 0 0 2.08 3.76 22.1 22.1 0 0 0 2.09-3.76 14.4 14.4 0 0 1-2.09-2.85 14.9 14.9 0 0 1-2.08 2.85" fill="#168a44" /><path d="m22.9 18.2a22.5 22.5 0 0 0-3.24-2.82 22.1 22.1 0 0 0-0.675 4.25 14.5 14.5 0 0 1 2.93 1.96 14.2 14.2 0 0 1 0.988-3.39" fill="#168a44" /><path d="m27.1 41.8a22.2 22.2 0 0 0 3.24 2.82 22.3 22.3 0 0 0 0.668-4.25 14.5 14.5 0 0 1-2.93-1.96 14.3 14.3 0 0 1-0.981 3.39" fill="#168a44" /><path d="m19 19.6a22.2 22.2 0 0 0-4.01-1.55 21.7 21.7 0 0 0 0.815 4.23 14.2 14.2 0 0 1 3.43 0.835 14.1 14.1 0 0 1-0.233-3.52" fill="#168a44" /><path d="m31 40.4a21.3 21.3 0 0 0 4.02 1.54 21.9 21.9 0 0 0-0.822-4.22 14.3 14.3 0 0 1-3.42-0.84 14.2 14.2 0 0 1 0.226 3.52" fill="#168a44" /><path d="m17.2 25.5a14.5 14.5 0 0 1-1.42-3.23 22.2 22.2 0 0 0-4.3-0.079 22.5 22.5 0 0 0 2.21 3.69 14.4 14.4 0 0 1 3.51-0.38" fill="#168a44" /><path d="m32.8 34.5a14.1 14.1 0 0 1 1.42 3.23 22.2 22.2 0 0 0 4.3 0.079 21.9 21.9 0 0 0-2.21-3.69 14 14 0 0 1-3.51 0.387" fill="#168a44" /><path d="m13.7 25.9a21.9 21.9 0 0 0-4.07 1.4 23.2 23.2 0 0 0 3.34 2.7 14.2 14.2 0 0 1 3.16-1.56 14.4 14.4 0 0 1-2.44-2.55" fill="#168a44" /><path d="m37 30a14.1 14.1 0 0 1-3.16 1.56 14.6 14.6 0 0 1 2.44 2.55 21.6 21.6 0 0 0 4.07-1.4 22.1 22.1 0 0 0-3.34-2.7" fill="#168a44" /><path d="m16.2 31.6a14.1 14.1 0 0 1-3.16-1.56 22.8 22.8 0 0 0-3.34 2.7 22 22 0 0 0 4.07 1.4 14.6 14.6 0 0 1 2.44-2.55" fill="#168a44" /><path d="m33.8 28.5a14.1 14.1 0 0 1 3.16 1.56 22.5 22.5 0 0 0 3.34-2.7 21.6 21.6 0 0 0-4.07-1.4 14.4 14.4 0 0 1-2.44 2.55" fill="#168a44" /><path d="m13.7 34.1a22.8 22.8 0 0 0-2.21 3.69 22.2 22.2 0 0 0 4.3-0.079 14.3 14.3 0 0 1 1.42-3.23 14 14 0 0 1-3.51-0.387" fill="#168a44" /><path d="m36.3 25.9a21.7 21.7 0 0 0 2.21-3.69 22.2 22.2 0 0 0-4.3 0.079 14.2 14.2 0 0 1-1.42 3.23 14.3 14.3 0 0 1 3.51 0.38" fill="#168a44" /><path d="m19.2 36.9a14.3 14.3 0 0 1-3.43 0.841 21.8 21.8 0 0 0-0.815 4.22 21.5 21.5 0 0 0 4.01-1.54 14.2 14.2 0 0 1 0.233-3.52" fill="#168a44" /><path d="m30.8 23.1a14.3 14.3 0 0 1 3.42-0.834 21.9 21.9 0 0 0 0.822-4.23 22 22 0 0 0-4.02 1.54 14.1 14.1 0 0 1-0.226 3.52" fill="#168a44" /><path d="m19 40.4a22 22 0 0 0 0.675 4.25 22.8 22.8 0 0 0 3.24-2.82 14.3 14.3 0 0 1-0.988-3.38 14.6 14.6 0 0 1-2.93 1.96" fill="#168a44" /><path d="m31 19.6a22.3 22.3 0 0 0-0.668-4.25 22.3 22.3 0 0 0-3.24 2.82 14.2 14.2 0 0 1 0.981 3.39 14.6 14.6 0 0 1 2.93-1.96" fill="#168a44" /><path d="m23.9 24a9.74 9.74 0 0 1 1.07-2.92 14.7 14.7 0 0 0-2.08-2.85 14.2 14.2 0 0 0-0.988 3.39 9.83 9.83 0 0 1 2.01 2.38" fill="#5bb046" /><path d="m26.1 36.1a9.77 9.77 0 0 1-1.07 2.92 14.4 14.4 0 0 0 2.09 2.85 14.3 14.3 0 0 0 0.981-3.39 10.1 10.1 0 0 1-2-2.38" fill="#5bb046" /><path d="m19.2 23.1a9.99 9.99 0 0 1 2.69 1.55 9.98 9.98 0 0 1 0.00494-3.11 14.5 14.5 0 0 0-2.93-1.96 14.1 14.1 0 0 0 0.233 3.52" fill="#5bb046" /><path d="m30.8 36.9a10 10 0 0 1-2.7-1.54 9.8 9.8 0 0 1-0.00592 3.11 14.5 14.5 0 0 0 2.93 1.96 14.2 14.2 0 0 0-0.226-3.52" fill="#5bb046" /><path d="m20.3 26.1a9.7 9.7 0 0 1-1.06-2.93 14.3 14.3 0 0 0-3.43-0.834 14.5 14.5 0 0 0 1.42 3.23 9.96 9.96 0 0 1 3.07 0.534" fill="#5bb046" /><path d="m29.7 34a9.91 9.91 0 0 1 1.06 2.92 14.3 14.3 0 0 0 3.42 0.841 14.1 14.1 0 0 0-1.42-3.23 9.93 9.93 0 0 1-3.06-0.534" fill="#5bb046" /><path d="m16.2 28.5a9.74 9.74 0 0 1 3.06-0.546 10 10 0 0 1-1.99-2.39 14.4 14.4 0 0 0-3.51 0.38 14.4 14.4 0 0 0 2.44 2.55" fill="#5bb046" /><path d="m33.8 31.6a9.93 9.93 0 0 1-3.07 0.547 9.53 9.53 0 0 1 1.99 2.39 14 14 0 0 0 3.51-0.387 14.6 14.6 0 0 0-2.44-2.55" fill="#5bb046" /><path d="m18.9 30a9.83 9.83 0 0 1-2.69-1.56 14.2 14.2 0 0 0-3.16 1.56 14.2 14.2 0 0 0 3.16 1.56 9.83 9.83 0 0 1 2.69-1.56" fill="#5bb046" /><path d="m31.2 30a10 10 0 0 1 2.69 1.56 14.1 14.1 0 0 0 3.16-1.56 14.2 14.2 0 0 0-3.16-1.56 10 10 0 0 1-2.69 1.56" fill="#5bb046" /><path d="m17.2 34.5a9.77 9.77 0 0 1 1.99-2.39 9.93 9.93 0 0 1-3.06-0.547 14.6 14.6 0 0 0-2.44 2.55 14 14 0 0 0 3.51 0.387" fill="#5bb046" /><path d="m32.8 25.5a9.76 9.76 0 0 1-1.99 2.39 9.73 9.73 0 0 1 3.07 0.546 14.4 14.4 0 0 0 2.44-2.55 14.3 14.3 0 0 0-3.51-0.38" fill="#5bb046" /><path d="m20.3 34a9.96 9.96 0 0 1-3.07 0.534 14.3 14.3 0 0 0-1.42 3.23 14.3 14.3 0 0 0 3.43-0.841 9.72 9.72 0 0 1 1.06-2.92" fill="#5bb046" /><path d="m29.7 26.1a9.93 9.93 0 0 1 3.06-0.534 14.2 14.2 0 0 0 1.42-3.23 14.3 14.3 0 0 0-3.42 0.834 9.89 9.89 0 0 1-1.06 2.93" fill="#5bb046" /><path d="m23.9 36.1a9.92 9.92 0 0 1-2.01 2.38 14.3 14.3 0 0 0 0.988 3.39 14.9 14.9 0 0 0 2.08-2.85 9.8 9.8 0 0 1-1.07-2.92" fill="#5bb046" /><path d="m21.9 35.3a9.97 9.97 0 0 1-2.69 1.54 14.2 14.2 0 0 0-0.233 3.52 14.5 14.5 0 0 0 2.93-1.96 9.98 9.98 0 0 1-0.00592-3.11" fill="#5bb046" /><path d="m26.1 24a9.98 9.98 0 0 1 2-2.38 14.2 14.2 0 0 0-0.981-3.39 14.2 14.2 0 0 0-2.09 2.85 9.71 9.71 0 0 1 1.07 2.92" fill="#5bb046" /><path d="m28.1 24.7a10 10 0 0 1 2.7-1.55 14.1 14.1 0 0 0 0.227-3.52 14.5 14.5 0 0 0-2.93 1.96 9.78 9.78 0 0 1 0.00592 3.11" fill="#5bb046" /><path d="m23.9 27.1a8.39 8.39 0 0 0-2.01-2.41 8.39 8.39 0 0 0 1.08 2.94 8.53 8.53 0 0 0-2.71-1.57 8.28 8.28 0 0 0 2.02 2.4 8.5 8.5 0 0 0-3.09-0.546 8.48 8.48 0 0 0 2.72 1.56 8.35 8.35 0 0 0-3.09 0.54 8.44 8.44 0 0 0 3.09 0.54 8.47 8.47 0 0 0-2.72 1.56 8.39 8.39 0 0 0 3.09-0.553 8.31 8.31 0 0 0-2.02 2.4 8.53 8.53 0 0 0 2.71-1.58 8.46 8.46 0 0 0-1.08 2.95 8.4 8.4 0 0 0 2.01-2.41 8.44 8.44 0 0 0 0 3.14 8.49 8.49 0 0 0 1.07-2.95 8.51 8.51 0 0 0 1.07 2.95 8.44 8.44 0 0 0-0.00592-3.14 8.51 8.51 0 0 0 2.01 2.41 8.32 8.32 0 0 0-1.08-2.95 8.53 8.53 0 0 0 2.72 1.58 8.44 8.44 0 0 0-2.02-2.4 8.35 8.35 0 0 0 3.09 0.553 8.49 8.49 0 0 0-2.72-1.56 8.47 8.47 0 0 0 3.09-0.54 8.38 8.38 0 0 0-3.09-0.54 8.5 8.5 0 0 0 2.72-1.56 8.46 8.46 0 0 0-3.09 0.546 8.4 8.4 0 0 0 2.02-2.4 8.53 8.53 0 0 0-2.72 1.57 8.26 8.26 0 0 0 1.08-2.94 8.51 8.51 0 0 0-2.01 2.41 8.44 8.44 0 0 0 6e-3 -3.14 8.47 8.47 0 0 0-1.07 2.95 8.45 8.45 0 0 0-1.07-2.95 8.43 8.43 0 0 0 0 3.14" fill="#fff" /><path d="m23.9 27.1a8.43 8.43 0 0 1 0-3.14 9.81 9.81 0 0 0-2.01-2.38 9.96 9.96 0 0 0-0.00591 3.11 8.39 8.39 0 0 1 2.01 2.41" fill="#fedc00" /><path d="m26.1 32.9a8.46 8.46 0 0 1 0.00592 3.14 10.1 10.1 0 0 0 2 2.38 9.75 9.75 0 0 0 0.00592-3.11 8.51 8.51 0 0 1-2.01-2.41" fill="#fedc00" /><path d="m21.9 24.7a9.99 9.99 0 0 0-2.69-1.55 9.72 9.72 0 0 0 1.06 2.93 8.52 8.52 0 0 1 2.71 1.57 8.38 8.38 0 0 1-1.08-2.94" fill="#fedc00" /><path d="m28.1 35.3a10 10 0 0 0 2.7 1.54 9.93 9.93 0 0 0-1.06-2.92 8.52 8.52 0 0 1-2.72-1.58 8.32 8.32 0 0 1 1.08 2.95" fill="#fedc00" /><path d="m22.3 28.5a8.28 8.28 0 0 1-2.02-2.4 9.96 9.96 0 0 0-3.07-0.533 10.1 10.1 0 0 0 1.99 2.39 8.53 8.53 0 0 1 3.09 0.546" fill="#fedc00" /><path d="m27.7 31.6a8.41 8.41 0 0 1 2.02 2.4 9.96 9.96 0 0 0 3.06 0.534 9.55 9.55 0 0 0-1.99-2.39 8.39 8.39 0 0 1-3.09-0.553" fill="#fedc00" /><path d="m21.9 29.5a8.5 8.5 0 0 1-2.72-1.56 9.74 9.74 0 0 0-3.06 0.546 9.85 9.85 0 0 0 2.69 1.56 8.35 8.35 0 0 1 3.09-0.54" fill="#fedc00" /><path d="m28.1 30.6a8.49 8.49 0 0 1 2.72 1.56 9.92 9.92 0 0 0 3.07-0.547 10 10 0 0 0-2.69-1.56 8.47 8.47 0 0 1-3.09 0.54" fill="#fedc00" /><path d="m18.9 30a9.83 9.83 0 0 0-2.69 1.56 9.94 9.94 0 0 0 3.06 0.547 8.49 8.49 0 0 1 2.72-1.56 8.46 8.46 0 0 1-3.09-0.54" fill="#fedc00" /><path d="m31.2 30a10 10 0 0 0 2.69-1.56 9.73 9.73 0 0 0-3.07-0.546 8.49 8.49 0 0 1-2.72 1.56 8.39 8.39 0 0 1 3.09 0.54" fill="#fedc00" /><path d="m22.3 31.6a8.42 8.42 0 0 1-3.09 0.553 9.79 9.79 0 0 0-1.99 2.39 9.99 9.99 0 0 0 3.07-0.534 8.31 8.31 0 0 1 2.02-2.4" fill="#fedc00" /><path d="m27.7 28.5a8.5 8.5 0 0 1 3.09-0.546 9.81 9.81 0 0 0 1.99-2.39 9.93 9.93 0 0 0-3.06 0.533 8.37 8.37 0 0 1-2.02 2.4" fill="#fedc00" /><path d="m23.9 36.1a9.8 9.8 0 0 0 1.07 2.92 9.77 9.77 0 0 0 1.07-2.92 8.5 8.5 0 0 1-1.07-2.95 8.48 8.48 0 0 1-1.07 2.95" fill="#fedc00" /><path d="m23.9 32.9a8.4 8.4 0 0 1-2.01 2.41 9.96 9.96 0 0 0 0.00592 3.11 9.96 9.96 0 0 0 2.01-2.38 8.44 8.44 0 0 1 0-3.14" fill="#fedc00" /><path d="m20.3 34a9.72 9.72 0 0 0-1.06 2.92 9.99 9.99 0 0 0 2.69-1.54 8.46 8.46 0 0 1 1.08-2.95 8.52 8.52 0 0 1-2.71 1.58" fill="#fedc00" /><path d="m26.1 24a9.71 9.71 0 0 0-1.07-2.92 9.74 9.74 0 0 0-1.07 2.92 8.47 8.47 0 0 1 1.07 2.95 8.45 8.45 0 0 1 1.07-2.95" fill="#fedc00" /><path d="m26.1 27.1a8.51 8.51 0 0 1 2.01-2.41 9.75 9.75 0 0 0-0.00592-3.11 9.97 9.97 0 0 0-2 2.38 8.46 8.46 0 0 1-0.00592 3.14" fill="#fedc00" /><path d="m29.7 26.1a9.89 9.89 0 0 0 1.06-2.93 10 10 0 0 0-2.7 1.55 8.26 8.26 0 0 1-1.08 2.94 8.54 8.54 0 0 1 2.72-1.57" fill="#fedc00" /></svg>