<svg xmlns="http://www.w3.org/2000/svg" viewBox="0 0 50 50"><defs><linearGradient id="Background"><stop offset="0" stop-color="#5eb7a8" /></linearGradient><linearGradient id="Frame"><stop offset="0" stop-color="#5eb7a8" /></linearGradient><linearGradient id="Pictogram"><stop offset="0" stop-color="#ffffff" /></linearGradient></defs><rect fill="url(#Background)" height="44.5" rx="3" width="44.5" x="2.75" y="2.75" /><rect fill="none" height="44.5" rx="3" stroke="url(#Frame)" stroke-miterlimit="10" stroke-width="1.5" width="44.5" x="2.75" y="2.75" /><path d="m44 9.75-9 0.0168-10-0.0168v11.5a9.74 9.74 0 0 0 9.5 9.96 9.74 9.74 0 0 0 9.5-9.96z" fill="none" stroke="url(#Pictogram)" stroke-miterlimit="10" stroke-width="1.5" /><path d="m15.5 40.2a9.74 9.74 0 0 0 9.5-9.96v-11.5l-9 0.0168" fill="none" stroke="url(#Background)" stroke-miterlimit="10" stroke-width="6" /><path d="m13.5 25.5a2.5 2.5 0 0 0-5 0" fill="url(#Pictogram)" /><path d="m22.5 25.5a2.5 2.5 0 0 0-5 0" fill="url(#Pictogram)" /><path d="m20.5 30.2a4.77 4.77 0 0 1-5 4.5 4.77 4.77 0 0 1-5-4.5z" fill="none" stroke="url(#Pictogram)" stroke-miterlimit="10" stroke-width="1.5" /><path d="m25 18.8-9 0.0168-10-0.0168v11.5a9.74 9.74 0 0 0 9.5 9.96 9.74 9.74 0 0 0 9.5-9.96z" fill="none" stroke="url(#Pictogram)" stroke-miterlimit="10" stroke-width="1.5" /><path d="m32.5 16.5a2.5 2.5 0 0 0-5 0" fill="url(#Pictogram)" /><path d="m41.5 16.5a2.5 2.5 0 0 0-5 0" fill="url(#Pictogram)" /><path d="m39.5 25.8a4.77 4.77 0 0 0-5-4.5 4.77 4.77 0 0 0-5 4.5z" fill="none" stroke="url(#Pictogram)" stroke-miterlimit="10" stroke-width="1.5" /></svg>