<svg xmlns="http://www.w3.org/2000/svg" viewBox="0 0 50 50"><defs><linearGradient><stop offset="0" /></linearGradient><linearGradient id="Frame"><stop offset="0" stop-color="#ffffff" /></linearGradient></defs><rect fill="#fff" height="44.5" rx="3" width="44.5" x="2.75" y="2.75" /><rect fill="none" height="44.5" rx="3" stroke="url(#Frame)" stroke-miterlimit="10" stroke-width="1.5" width="44.5" x="2.75" y="2.75" /><rect fill="#032f62" height="11.4" width="11.3" x="14.2" y="14.5" /><rect fill="#ffcc01" height="10.2" width="10.1" x="15.5" y="14.5" /><rect fill="#dc0520" height="9.19" width="9.13" x="16.5" y="14.5" /><path d="m23.7 18.2a2.92 2.92 0 0 0-0.0378-0.73c-0.0646-0.0646-0.307-0.339-0.307-0.339a10.5 10.5 0 0 0 0.0161 1.24 5.46 5.46 0 0 1 0.355 0.791l0.581-0.387a0.556 0.556 0 0 1 0.323-0.129c0.298 5e-3 0.326 0.338 0.326 0.338s0.011 1.24 0.00552 1.43a0.232 0.232 0 0 1-0.105 0.202c-0.0484 0.0323-0.646 0.274-0.646 0.274l0.0161-0.694 0.29-0.0646-0.0323-0.629-0.629 0.452s-0.307 0.258-0.436 0.258a1.21 1.21 0 0 1-0.387-0.145 4.82 4.82 0 0 1-1.07 0.92 3.76 3.76 0 0 1-1.44 0.531 2.22 2.22 0 0 1-0.368 0.969 1.53 1.53 0 0 1-0.678 0.5l-0.0161 2.42a6.9 6.9 0 0 1-0.597-0.71c0-0.0646 0.178-0.258 0.178-0.258v-0.888l-0.0484-0.145s-0.161-0.371-0.21-0.436-0.138-0.367-0.0871-0.443c0.0662-0.0994 0.313-0.557 0.249-0.654a2.05 2.05 0 0 1-0.242-0.952c-0.0108-0.325 0.209-0.547-0.0161-0.565-0.328 0.00182-0.371 0.436-0.371 0.436s0.00547 0.521 0.011 0.852a0.752 0.752 0 0 1-0.689 0.826c-0.533 0.0323-0.646-0.759-0.629-0.694s0.112 0.13 0.355 0.129c0.378-2e-3 0.422-0.438 0.422-0.438s0.0136-0.869 0.0136-0.934a1.43 1.43 0 0 1 0.145-0.597 0.71 0.71 0 0 1 0.549-0.242 0.886 0.886 0 0 1 0.484 0.274 3.64 3.64 0 0 1 1.26-0.42l1.24-1.29a4.7 4.7 0 0 1 0.613-1.99c0.597-1.08 2.23-1.03 2.23-1.03l0.258-0.21v3.1a0.606 0.606 0 0 1-0.156 0.169l-0.646-0.00372a0.249 0.249 0 0 1-0.0807-0.0968z" fill="#fff" /><path d="m18.7 32h-1.41a2.37 2.37 0 0 0-0.0213 0.363c0.0107 0.117 0.181 1.07 1.54 1.08 1.37 0.0107 2.29-0.377 2.39-1.51 0.0747-0.896-0.921-1.07-1.06-1.1-0.149-0.032-0.811-0.149-0.917-0.16a0.167 0.167 0 0 1 0.0533-0.32c0.235-0.0213 3.05 0 3.05 0l-0.459 2.01s-0.277 0.971 0.587 1.01 1.57 0.0107 1.57 0.0107l0.192-0.896h-0.597a0.195 0.195 0 0 1-0.181-0.213c0.0213-0.192 0.395-1.92 0.395-1.92l1.73-0.0107-0.64 2.98 1.49 0.0107 0.661-3.01h0.949l0.213-1.1h-0.949s0.174-0.888 0.653-0.917a0.819 0.819 0 0 1 0.541 0.106l0.16-0.971s-0.47-0.0632-0.811-0.0747c-0.489-0.0165-1.4 0.0534-1.66 0.704a6.63 6.63 0 0 0-0.352 1.15h-1.74l0.203-1.18-1.63 0.629-0.096 0.555-3 1.5e-4s-1.69-0.0279-1.88 1.24c-0.171 1.13 1.33 1.21 1.44 1.23s0.597 0.0747 0.587 0.437a0.461 0.461 0 0 1-0.48 0.459 0.484 0.484 0 0 1-0.523-0.576z" fill="#032f62" /><polygon fill="#032f62" points="5.18 27.5 6.84 27.5 6.5 31.7 8.38 27.5 10.3 27.5 10.3 31.7 11.7 27.5 13.2 27.5 11 33.4 8.98 33.4 8.97 29 6.93 33.3 5.01 33.4" /><polygon fill="#032f62" points="35.4 27.5 33.9 27.5 32.6 33.3 34.2 33.3" /><path d="m42.4 29.3-1.54-0.0103-0.795 4.09 1.52 0.0103 0.557-2.63a0.87 0.87 0 0 1 0.795-0.64 0.437 0.437 0 0 1 0.464 0.588l-0.516 2.67 1.5 0.0103 0.619-3.04a1.07 1.07 0 0 0-1.16-1.2 1.7 1.7 0 0 0-1.49 0.599z" fill="#032f62" /><path d="m39.6 31.6s0.692-2.5-1.52-2.51a2.78 2.78 0 0 0-2.87 2.71 1.56 1.56 0 0 0 1.73 1.65 2.53 2.53 0 0 0 2.54-1.44c0.0413-0.031-1.43-0.0207-1.43-0.0207a0.766 0.766 0 0 1-0.815 0.609c-0.722 0-0.609-0.526-0.547-1zm-1.8-1.69c0.784 0.0103 0.506 0.888 0.506 0.888l-1.47 0.0103s0.175-0.908 0.96-0.898z" fill="#032f62" /><path d="m16.9 31.6s0.692-2.5-1.52-2.51a2.78 2.78 0 0 0-2.87 2.71 1.56 1.56 0 0 0 1.73 1.65 2.53 2.53 0 0 0 2.54-1.44c0.0413-0.031-1.43-0.0207-1.43-0.0207a0.766 0.766 0 0 1-0.815 0.609c-0.722 0-0.609-0.526-0.547-1zm-1.8-1.69c0.784 0.0103 0.506 0.888 0.506 0.888l-1.47 0.0103s0.175-0.908 0.96-0.898z" fill="#032f62" /><path d="m30.8 29.1c-2.08 0.0212-2.28 1.33-2.28 1.33l1.44 0.00586a0.689 0.689 0 0 1 0.664-0.623 0.468 0.468 0 0 1 0.396 0.198 0.729 0.729 0 0 1-0.099 0.693 4.41 4.41 0 0 0-2.4 0.449 1.56 1.56 0 0 0-0.658 1.29c0.0058 0.664 0.437 1.02 1.26 1.03a2.21 2.21 0 0 0 1.39-0.693c-0.00586 0.0641-0.0699 0.559-0.0699 0.559s1.51 0 1.51-0.0175-0.00458-0.553 0-0.705a22.5 22.5 0 0 1 0.507-2.35c0.0758-0.299 0.0524-1.18-1.66-1.17zm-0.367 3.17c-0.13 0.194-1.03 0.618-1.03-0.099 0.128-1.01 1.4-0.816 1.4-0.816-0.193 0.785-0.368 0.907-0.373 0.915z" fill="#032f62" /></svg>