<svg xmlns="http://www.w3.org/2000/svg" viewBox="0 0 50 50"><defs><linearGradient id="Frame"><stop offset="0" stop-color="#ffffff" /></linearGradient></defs><rect fill="#fff" height="44.5" rx="3" width="44.5" x="2.75" y="2.75" /><rect fill="none" height="44.5" rx="3" stroke="url(#Frame)" stroke-miterlimit="10" stroke-width="1.5" width="44.5" x="2.75" y="2.75" /><path d="m35.1 10.5a0.477 0.477 0 0 0-0.0959-0.452s-1.51-2.55-6.81-3.12a17.7 17.7 0 0 0-9.42 1.74 10.8 10.8 0 0 0-5.67 7.01 0.847 0.847 0 0 0 0.0411 0.575c0.11 0.137 0.274 0.137 0.479 0.0685 1.74-0.589 6.9-2.3 10.2-3.16 4.64-1.23 8.47-1.99 10.9-2.4 0.192-0.0411 0.342-0.0959 0.411-0.26" fill="#faaf18" /><path d="m40.4 31.1c-2.78 6.25-8.11 10.6-15.1 10.7a18.2 18.2 0 0 1-12.8-4.71l-1.96 0.836v-3.04a17.7 17.7 0 0 1-3.38-10.7c0-10.6 8.12-19 19.5-19a21.6 21.6 0 0 1 4.78 0.575 19.5 19.5 0 0 0-6.03-0.959 20.2 20.2 0 1 0 18.4 28.1l-3.37-1.84" fill="#185494" /><path d="m37.6 28.9a5.55 5.55 0 0 0 3.32-1.42 2.59 2.59 0 0 0 0.685-1.85c0.0274-0.822 0-3.4 0-3.4l-4.23 0.918v0.986c0.0137 0.658 0.329 1.01 1.01 0.89 0.219-0.0411 0.548-0.137 0.548-0.137v0.808c0-0.0274 0.0685 0.452-1 0.658-1.4 0.219-2.03-0.644-2.04-2.16a2.71 2.71 0 0 1 2.07-2.82 4.89 4.89 0 0 1 2.38 0.0685c1.4 0.205 1.79-1.89 0.521-2.38a6 6 0 0 0-3.33-0.219 5.6 5.6 0 0 0-4.63 5.85c-0.0137 3.37 2.47 4.47 4.7 4.22" fill="#ed1d21" /><path d="m23.8 32.5s1.3-0.452 1.41-0.479a1.89 1.89 0 0 0 1.42-2.05c-0.0137-1.16-0.0137-3.44-0.0137-3.44l3.03 3.48a1.59 1.59 0 0 0 1.67 0.384 1.51 1.51 0 0 0 1.08-1.45v-8.64s-0.781 0.164-1.42 0.342a1.73 1.73 0 0 0-1.32 1.95v3s-1.73-2.15-2.84-3.26a1.65 1.65 0 0 0-1.58-0.233l-1.45 0.438v9.97" fill="#ee1c23" /><path d="m22.9 22.7s-0.904 0.26-1.64 0.534a2.11 2.11 0 0 0-1.52 2.36v8.29s0.836-0.288 1.63-0.589a2.01 2.01 0 0 0 1.53-2.16v-8.42" fill="#ed1c23" /><path d="m18.4 24.7a1.44 1.44 0 0 0-1.85 0.507l-2.56 4.37v-3.52l-3.04 1.25-0.0137 9.95 2.14-0.89a1.3 1.3 0 0 0 0.671-0.521 2.09 2.09 0 0 0 0.219-0.973v-3.15l2.38 2.53a1.68 1.68 0 0 0 2.33 0.137 1.54 1.54 0 0 0 0.219-2.15l-2.16-2.18s1.9-3.01 2.22-3.51a1.25 1.25 0 0 0-0.548-1.85" fill="#ee1d23" /><path d="m17.2 36.4c-0.11 0.26 0.151 0.521 0.151 0.521 1.1 1.38 5.99 3.14 11.3 1.85 8.11-1.96 9.82-7.7 10-8.51a0.656 0.656 0 0 0-0.0822-0.589c-0.123-0.137-0.315-0.137-0.562-0.0822a152 152 0 0 0-20.4 6.51c-0.233 0.0959-0.329 0.137-0.411 0.301" fill="#faaf18" /><path d="m12.4 23.3c-0.0137-0.548-0.438-0.849-1.16-0.479v1.77s0.233-0.11 0.411-0.192a1.16 1.16 0 0 0 0.753-1.1m-1.18-1.6c0.137-0.0548 0.233-0.0959 0.342-0.151a1.14 1.14 0 0 0 0.685-1.03c0-0.534-0.438-0.671-1.03-0.37zm3.12 1.34c0.0274 1.4-0.973 2.14-2.29 2.67l-2.67 1.14v-7.25s1.68-0.685 2.23-0.89c1.56-0.575 2.48 0.123 2.48 1.16a2.24 2.24 0 0 1-0.945 1.81 1.41 1.41 0 0 1 1.19 1.36z" fill="#ee1c23" /><path d="m19.4 17c0-0.616-0.425-0.767-0.932-0.63-0.411 0.123-0.89 0.301-0.89 0.301v4.51c0 0.452-0.0685 1.01-0.63 1.15-0.425 0.11-0.63-0.178-0.63-0.63v-3.68c0-0.616-0.425-0.795-0.932-0.63-0.575 0.192-0.904 0.329-0.904 0.329v4.47c-0.0137 1.49 1.03 2.25 2.59 1.78a2.91 2.91 0 0 0 2.33-3.18v-3.78" fill="#ed1d1f" /><path d="m34.3 18.8a0.789 0.789 0 0 0 0.644-0.863v-0.781l-2.16 0.479v-1.27s1.07-0.219 1.36-0.288a0.64 0.64 0 0 0 0.562-0.712v-0.74l-1.92 0.411v-1.01s1-0.205 1.53-0.315a0.669 0.669 0 0 0 0.562-0.767v-0.767c-0.959 0.164-2.78 0.534-3.92 0.795l-0.0137 6.6s2.16-0.507 3.36-0.767" fill="#ee1c23" /><path d="m21.7 18.6s1.07-0.562 1.07-1.44c-0.0137-0.753-0.699-0.589-1.05-0.452l-0.0137 1.89m0.0137 1.03v1.78a1.08 1.08 0 0 1-0.74 0.986c-0.342 0.123-1.08 0.37-1.08 0.37v-6.81s1.52-0.534 2.41-0.74c1.37-0.329 2.36 0.301 2.34 1.42a2.78 2.78 0 0 1-1.14 2.16l1.18 1.12a0.972 0.972 0 0 1-0.0137 1.37 0.986 0.986 0 0 1-1.38-0.0548c-0.0137 0-1.58-1.62-1.58-1.62z" fill="#ee1d23" /><path d="m37.1 14.9s1.05-0.397 1.04-1.25c-0.0137-0.712-0.712-0.589-1.05-0.507l0.0137 1.75m-1.78 3.73v-6.52s1.9-0.342 2.4-0.397c1.37-0.178 2.29 0.589 2.26 1.66a2.26 2.26 0 0 1-1.11 1.86s0.932 1.04 1.18 1.33a0.883 0.883 0 0 1-0.178 1.33 0.942 0.942 0 0 1-1.25-0.164l-1.52-1.81v1.59a0.906 0.906 0 0 1-0.781 0.932l-1 0.192z" fill="#ee1d23" /><path d="m30.5 15.9-2.7 0.616v0.753a0.477 0.477 0 0 0 0.603 0.507c0.219-0.0411 0.397-0.0822 0.397-0.0822v0.753c0 0.301-0.438 0.493-0.904 0.479-0.658-0.0274-1.01-0.534-1.03-1.49a2.06 2.06 0 0 1 1.42-2.21 2.5 2.5 0 0 1 1.05-0.0137c0.699 0.11 1.1-0.219 1.11-0.795 0.0137-0.616-0.534-1-1.7-0.959a3.81 3.81 0 0 0-3.85 4.1c0 2.23 1.47 3.22 3.25 2.9a3.74 3.74 0 0 0 1.85-0.836 1.55 1.55 0 0 0 0.493-1.15v-2.58" fill="#ee1d23" /><path d="m19.9 8.59c-2.99 1.32-5 4.45-5.11 5.77-0.0411 0.521 0.658 0.603 0.726 0.0411a10.5 10.5 0 0 1 4.38-5.81" fill="#fff" /><path d="m29.7 10.8c1.6-0.397 2.49-0.452 2.51-1.18 0.0274-1.21-3.4-2.6-6.55-2.34 3.21 0.219 5.12 1.45 5.12 2.3a1.38 1.38 0 0 1-1.08 1.22" fill="#fff" /><path d="m30.7 37.4a11.1 11.1 0 0 0 6.01-5.48c0.37-0.781-0.699-1.19-1-0.26a11.4 11.4 0 0 1-5.01 5.74" fill="#fff" /><path d="m42.9 29.3h0.329c0.178 0 0.411 0.0274 0.411 0.247 0 0.247-0.164 0.274-0.384 0.274h-0.342l-0.0137-0.521m-0.397 1.66h0.384v-0.836h0.247l0.479 0.836h0.411l-0.521-0.863c0.288-0.0274 0.521-0.164 0.521-0.521 0-0.425-0.274-0.589-0.767-0.589h-0.753v1.97zm-1.1-0.986a1.81 1.81 0 1 0 1.81-1.75 1.75 1.75 0 0 0-1.81 1.75zm0.479 0a1.33 1.33 0 1 1 1.33 1.38 1.32 1.32 0 0 1-1.33-1.38z" fill="#ee1d23" /></svg>