<svg xmlns="http://www.w3.org/2000/svg" data-name="Ebene 1" viewBox="0 0 44 44"><circle cx="22" cy="22" r="20" fill="#fff" /><path d="m25.1 17.7c-0.265 3e-5 -0.506 0.157-0.612 0.4l-1.05 2.43c-0.0749 0.171-0.169 0.333-0.28 0.483l-0.161 0.213c-0.104 0.139-0.16 0.307-0.16 0.48v1.73c1.9e-4 0.368 0.299 0.667 0.667 0.667h9.87c0.368-4e-5 0.667-0.298 0.667-0.667v-1.73c-3.3e-4 -0.173-0.0567-0.342-0.161-0.48l-0.16-0.213c-0.111-0.15-0.205-0.312-0.28-0.483l-1.05-2.43c-0.107-0.243-0.347-0.4-0.612-0.4h-6.67zm6.75 0.827 0.917 2.11h-8.67s0.917-2.11 0.917-2.11c0.0425-0.0976 0.139-0.161 0.245-0.16h6.35c0.106-3.9e-4 0.203 0.0627 0.245 0.16zm-6.75 7.31c-2.3e-4 0.221-0.179 0.4-0.401 0.4h-0.801c-0.221-1.8e-4 -0.4-0.179-0.401-0.4v-1.47h1.6v1.47zm8.27 0c-1.9e-4 0.221-0.179 0.4-0.4 0.4h-0.801c-0.221-2e-4 -0.4-0.179-0.4-0.4v-1.47h1.6" fill="#e52421" data-name="Piktogramm linkesAuto" /><path d="m12.2 17.7c-0.265 8e-5 -0.505 0.157-0.611 0.4l-1.05 2.43c-0.0753 0.171-0.17 0.333-0.281 0.483l-0.159 0.213c-0.104 0.138-0.161 0.307-0.161 0.48v1.73c4e-5 0.368 0.298 0.667 0.667 0.667h9.87c0.368-1.5e-4 0.666-0.299 0.666-0.667v-1.73c0-0.173-0.0559-0.342-0.159-0.48l-0.161-0.213c-0.111-0.15-0.205-0.312-0.28-0.483l-1.06-2.43c-0.106-0.243-0.346-0.4-0.611-0.4h-6.67zm6.76 0.827 0.917 2.11h-8.67s0.918-2.11 0.918-2.11c0.0421-0.0974 0.138-0.16 0.244-0.16h6.35c0.106 2.2e-4 0.202 0.0631 0.245 0.16zm-6.76 7.31v1.7e-4c1.4e-4 0.221-0.179 0.4-0.4 0.4h-0.801c-0.221-2.3e-4 -0.4-0.179-0.4-0.4v-1.47h1.6v1.47zm8.27 0c-1.9e-4 0.221-0.179 0.4-0.4 0.4h-0.8c-0.221-9e-5 -0.4-0.179-0.401-0.4v-1.47h1.6" fill="#010101" data-name="Piktogramm rechtesAuto" /><path d="m3.1 22c0 10.4 8.46 18.9 18.9 18.9s18.9-8.46 18.9-18.9-8.46-18.9-18.9-18.9-18.9 8.46-18.9 18.9zm4.9 0c0-7.73 6.27-14 14-14s14 6.27 14 14-6.27 14-14 14-14-6.27-14-14z" fill="#e52421" /></svg>