<svg xmlns="http://www.w3.org/2000/svg" xmlns:xlink="http://www.w3.org/1999/xlink" viewBox="0 0 44 44"><defs><linearGradient id="Beschriftung_schwarz" x1="14.23047" y1="22.18273" x2="30.42383" y2="22.18273" gradientUnits="userSpaceOnUse"><stop offset="0" stop-color="#010101"/><stop offset="0"/></linearGradient></defs><g id="Speedlimit_15"><path id="Beschriftung_schwarz-2" data-name="Beschriftung_schwarz" d="M16.53613,30.24621V16.5133l-2.30566,1.68457V15.73693l2.30566-1.67334h2.32715V30.24621Zm13.583-8.374a9.41425,9.41425,0,0,1,.30469,2.86523,8.81818,8.81818,0,0,1-.12695,1.541,6.80465,6.80465,0,0,1-.32618,1.23046,4.64813,4.64813,0,0,1-.49414.95313,4.3537,4.3537,0,0,1-.59765.7207,3.80244,3.80244,0,0,1-.666.50391,4.646,4.646,0,0,1-.66406.33789,4.37885,4.37885,0,0,1-.63281.20019,4.50912,4.50912,0,0,1-.52539.09961c-.13379.01465-.26368.02539-.38868.03321h-.09961a5.38058,5.38058,0,0,1-3.0205-.96973A4.19629,4.19629,0,0,1,21.169,26.15637h2.32812a2.15266,2.15266,0,0,0,2.31641,1.88476,2.0527,2.0527,0,0,0,1.43066-.45508,2.68287,2.68287,0,0,0,.71875-1.42968,9.56543,9.56543,0,0,0,.13477-1.59571,5.27284,5.27284,0,0,0-.12891-1.22461,3.02118,3.02118,0,0,0-.32031-.85986,2.33456,2.33456,0,0,0-.45508-.54883,1.87841,1.87841,0,0,0-.48242-.32129,2.23156,2.23156,0,0,0-.46485-.13867,3.57333,3.57333,0,0,0-.47656-.0332h-.02246a2.29271,2.29271,0,0,0-2.084,1.34179H21.46875V14.00793h8.63477v2.32763H23.66309v3.65772a4.02952,4.02952,0,0,1,2.59375-.88672,4.04128,4.04128,0,0,1,2.89355,1.19727A4.593,4.593,0,0,1,30.11914,21.87219Z" fill="url(#Beschriftung_schwarz)"/></g></svg>