<svg xmlns="http://www.w3.org/2000/svg" xmlns:xlink="http://www.w3.org/1999/xlink" viewBox="0 0 44 44"><defs><linearGradient id="Beschriftung_schwarz" x1="10.99219" y1="22.1339" x2="33.32813" y2="22.1339" gradientUnits="userSpaceOnUse"><stop offset="0" stop-color="#010101"/><stop offset="0"/></linearGradient></defs><g id="Speedlimit_160"><path id="Beschriftung_schwarz-2" data-name="Beschriftung_schwarz" d="M15.62305,14.0509v16.166H13.30664V16.50305l-2.31445,1.70312V15.754l2.31445-1.70312Zm8.082,0L21.07031,20.84l.04492.04492a1.7236,1.7236,0,0,1,.97657-.2041,2.35641,2.35641,0,0,1,2.22461,1.6123,12.73917,12.73917,0,0,1,.22851,3.17872,10.57479,10.57479,0,0,1-.16015,2.45214,3.2577,3.2577,0,0,1-3.291,2.42969,3.37157,3.37157,0,0,1-3.17969-2.08984,7.23535,7.23535,0,0,1-.27148-2.76953,13.9099,13.9099,0,0,1,.08984-2.06641,7.45893,7.45893,0,0,1,.43164-1.498l2.95117-7.8789Zm-1.47656,9.89941A1.13711,1.13711,0,1,0,19.958,23.837V26.8341a1.13367,1.13367,0,0,0,1.13574,1.20312,1.11987,1.11987,0,0,0,1.13477-1.1123Zm11.09961,2.99707a3.45147,3.45147,0,0,1-6.90235,0V17.32043a3.45147,3.45147,0,0,1,6.90235,0Zm-4.58594-.02246a1.136,1.136,0,0,0,2.27148,0v-9.582A1.105,1.105,0,0,0,29.877,16.23058a1.124,1.124,0,0,0-1.13476,1.13477Z" fill="url(#Beschriftung_schwarz)"/></g></svg>