<svg xmlns="http://www.w3.org/2000/svg" xmlns:xlink="http://www.w3.org/1999/xlink" viewBox="0 0 44 44"><defs><linearGradient id="Beschriftung_schwarz" x1="10.99121" y1="22.1339" x2="33.32813" y2="22.1339" gradientUnits="userSpaceOnUse"><stop offset="0" stop-color="#010101"/><stop offset="0"/></linearGradient></defs><g id="Speedlimit_190"><path id="Beschriftung_schwarz-2" data-name="Beschriftung_schwarz" d="M15.62305,14.0509v16.166H13.30664V16.50305l-2.31543,1.70312V15.754l2.31543-1.70312Zm8.9209,5.13086A6.51633,6.51633,0,0,1,24.1123,22.088l-3.042,8.1289H18.48145l2.63378-6.78906-.04492-.04492a1.73943,1.73943,0,0,1-.9541.2041,2.37744,2.37744,0,0,1-1.998-1.08984,4.248,4.248,0,0,1-.4541-1.97559c0-.54492-.02246-1.08984-.02246-1.90723a7.85012,7.85012,0,0,1,.25-2.58789,3.28363,3.28363,0,0,1,3.20117-2.1123,3.44212,3.44212,0,0,1,2.15723.72656C24.544,15.754,24.544,16.84387,24.544,19.18176Zm-2.31592-1.793a1.12183,1.12183,0,0,0-1.13526-1.15821,1.13439,1.13439,0,0,0-1.13525,1.15821V20.3175a1.13711,1.13711,0,1,0,2.27051.11328Zm11.1001,9.55859a3.45147,3.45147,0,0,1-6.90235,0V17.32043a3.45147,3.45147,0,0,1,6.90235,0Zm-4.58594-.02246a1.13549,1.13549,0,0,0,2.27051,0v-9.582A1.1048,1.1048,0,0,0,29.877,16.23058a1.124,1.124,0,0,0-1.13476,1.13477Z" fill="url(#Beschriftung_schwarz)"/></g></svg>