<svg xmlns="http://www.w3.org/2000/svg" xmlns:xlink="http://www.w3.org/1999/xlink" viewBox="0 0 44 44"><defs><linearGradient id="Beschriftung_schwarz" x1="12.0957" y1="22.13903" x2="32.04199" y2="22.13903" gradientUnits="userSpaceOnUse"><stop offset="0" stop-color="#010101"/><stop offset="0"/></linearGradient></defs><g id="Speedlimit_35"><path id="Beschriftung_schwarz-2" data-name="Beschriftung_schwarz" d="M15.79785,22.9093V20.87023h.79785A2.51285,2.51285,0,0,0,18.419,20.2218a2.19166,2.19166,0,0,0,.67089-1.646,2.22233,2.22233,0,0,0-.69824-1.6626,2.30866,2.30866,0,0,0-1.66308-.67627A2.27267,2.27267,0,0,0,14.501,18.18762H12.18457a4.59777,4.59777,0,0,1,1.42969-2.98682,4.17271,4.17271,0,0,1,3.02637-1.28027,4.46521,4.46521,0,0,1,3.46289,1.42431,4.60765,4.60765,0,0,1,1.30273,3.18653,4.679,4.679,0,0,1-.36621,1.812,3.38482,3.38482,0,0,1-1.36328,1.52441,3.83588,3.83588,0,0,1,1.46387,1.60693,4.53942,4.53942,0,0,1,.44335,1.92774A4.72309,4.72309,0,0,1,20.165,29.005a4.87623,4.87623,0,0,1-3.48047,1.3418,4.59048,4.59048,0,0,1-2.9541-1.0586,4.7414,4.7414,0,0,1-1.63477-3.08691h2.31641a3.53059,3.53059,0,0,0,.86426,1.335,2.17876,2.17876,0,0,0,1.541.50488,2.45289,2.45289,0,0,0,1.707-.68164,2.4249,2.4249,0,0,0,.74317-1.87891,2.44606,2.44606,0,0,0-.73731-1.88964,2.49767,2.49767,0,0,0-1.75683-.68164ZM31.7373,21.87316a9.40687,9.40687,0,0,1,.30469,2.86426,8.81818,8.81818,0,0,1-.12695,1.541,6.88223,6.88223,0,0,1-.32715,1.23046,4.64582,4.64582,0,0,1-.49316.95313,4.40442,4.40442,0,0,1-.59864.7207,3.795,3.795,0,0,1-.665.50391,4.65262,4.65262,0,0,1-.665.33789,4.40512,4.40512,0,0,1-.63184.20019,4.55644,4.55644,0,0,1-.52637.09961c-.13281.01465-.26269.02539-.38867.03321h-.09961A5.37526,5.37526,0,0,1,24.5,29.38781a4.19341,4.19341,0,0,1-1.71289-3.23144h2.32715a2.15419,2.15419,0,0,0,2.31738,1.88476,2.04841,2.04841,0,0,0,1.42969-.45508,2.69024,2.69024,0,0,0,.71972-1.42968,9.668,9.668,0,0,0,.13379-1.59571,5.32909,5.32909,0,0,0-.12793-1.22461,3.04164,3.04164,0,0,0-.32128-.85888,2.331,2.331,0,0,0-.45411-.54883,1.895,1.895,0,0,0-.48242-.32129,2.23963,2.23963,0,0,0-.46582-.13867,3.54962,3.54962,0,0,0-.47656-.03321h-.02246a2.29138,2.29138,0,0,0-2.083,1.3418H23.08594V14.0089H31.7207v2.32764H25.28125v3.65772a4.02764,4.02764,0,0,1,2.59375-.88672,4.03658,4.03658,0,0,1,2.89258,1.19726A4.59593,4.59593,0,0,1,31.7373,21.87316Z" fill="url(#Beschriftung_schwarz)"/></g></svg>