<svg xmlns="http://www.w3.org/2000/svg" xmlns:xlink="http://www.w3.org/1999/xlink" viewBox="0 0 44 44"><defs><linearGradient id="Beschriftung_schwarz" x1="11.84668" y1="22.13439" x2="32.05176" y2="22.13439" gradientUnits="userSpaceOnUse"><stop offset="0" stop-color="#010101"/><stop offset="0"/></linearGradient></defs><g id="Speedlimit_40"><path id="Beschriftung_schwarz-2" data-name="Beschriftung_schwarz" d="M11.84668,27.82043v-2.1836l5.40918-11.57226h2.58252L14.374,25.63683h4.21192V20.98156h2.3164v4.65527h1.29688v2.1836H20.90234V30.214h-2.3164V27.82043Zm11.02881-2.11719v-7.127a4.31523,4.31523,0,0,1,1.397-3.44239,4.8,4.8,0,0,1,6.37891,0,4.31112,4.31112,0,0,1,1.40039,3.44239v7.127a4.28978,4.28978,0,0,1-1.40039,3.43555,4.8116,4.8116,0,0,1-6.37891,0A4.29385,4.29385,0,0,1,22.87549,25.70324Zm6.85986-.13281V18.7091a2.52819,2.52819,0,0,0-.625-1.81836,2.40877,2.40877,0,0,0-3.29883,0,2.54282,2.54282,0,0,0-.61914,1.81836v6.86133a2.53776,2.53776,0,0,0,.61914,1.82324,2.422,2.422,0,0,0,3.29883,0A2.52316,2.52316,0,0,0,29.73535,25.57043Z" fill="url(#Beschriftung_schwarz)"/></g></svg>