<svg xmlns="http://www.w3.org/2000/svg" xmlns:xlink="http://www.w3.org/1999/xlink" viewBox="0 0 44 44"><defs><linearGradient id="Beschriftung_schwarz" x1="11.84668" y1="22.18371" x2="32.04199" y2="22.18371" gradientUnits="userSpaceOnUse"><stop offset="0" stop-color="#010101"/><stop offset="0"/></linearGradient></defs><g id="Speedlimit_45"><path id="Beschriftung_schwarz-2" data-name="Beschriftung_schwarz" d="M11.84668,27.82043v-2.1836l5.40918-11.57226h2.582L14.374,25.63683h4.21192V20.98156h2.3164v4.65527h1.29688v2.1836H20.90234V30.214h-2.3164V27.82043ZM31.7373,21.87316A9.41432,9.41432,0,0,1,32.042,24.7384a8.81806,8.81806,0,0,1-.12695,1.541,6.96075,6.96075,0,0,1-.32813,1.23047,4.643,4.643,0,0,1-.49218.95313,4.45757,4.45757,0,0,1-.59961.7207,3.78883,3.78883,0,0,1-.66407.50391,4.65927,4.65927,0,0,1-.666.33789,4.43271,4.43271,0,0,1-.63086.20019,4.60763,4.60763,0,0,1-.52734.09961c-.13282.01465-.26172.02539-.38868.0332h-.09961a5.3777,5.3777,0,0,1-3.01953-.96972,4.19561,4.19561,0,0,1-1.71191-3.23145h2.32715a2.15325,2.15325,0,0,0,2.3164,1.88477,2.04509,2.04509,0,0,0,1.42969-.45508,2.69762,2.69762,0,0,0,.7207-1.42969,9.77263,9.77263,0,0,0,.13282-1.5957,5.38714,5.38714,0,0,0-.127-1.22461,3.0739,3.0739,0,0,0-.32226-.85938,2.30819,2.30819,0,0,0-.45313-.54882,1.89863,1.89863,0,0,0-.48242-.32129,2.219,2.219,0,0,0-.4668-.13867,3.46,3.46,0,0,0-.47656-.03321h-.02148a2.29173,2.29173,0,0,0-2.084,1.3418H23.08594V14.0089h8.63379V16.337H25.28027v3.65723a4.02954,4.02954,0,0,1,2.59375-.88672,3.922,3.922,0,0,1,1.67969.35547,3.87,3.87,0,0,1,1.21289.84179A4.59891,4.59891,0,0,1,31.7373,21.87316Z" fill="url(#Beschriftung_schwarz)"/></g></svg>