<svg xmlns="http://www.w3.org/2000/svg" xmlns:xlink="http://www.w3.org/1999/xlink" viewBox="0 0 44 44"><defs><linearGradient id="Beschriftung_schwarz" x1="12.53418" y1="22.18908" x2="32.1748" y2="22.18908" gradientUnits="userSpaceOnUse"><stop offset="0" stop-color="#010101"/><stop offset="0"/></linearGradient></defs><g id="Speedlimit_65"><path id="Beschriftung_schwarz-2" data-name="Beschriftung_schwarz" d="M20.51465,21.79015A4.48822,4.48822,0,0,1,21.67773,25.215a4.82945,4.82945,0,0,1-1.46289,3.96875,5.03082,5.03082,0,0,1-3.24707,1.18555A4.347,4.347,0,0,1,13.9082,29.0675a4.718,4.718,0,0,1-1.374-3.59668,5.98053,5.98053,0,0,1,.60937-2.69336L17.42188,14.131H19.96L16.6123,20.93664h.04493a3.115,3.115,0,0,1,1.208-.21A3.82047,3.82047,0,0,1,20.51465,21.79015Zm-3.2041,6.27344a2.70781,2.70781,0,0,0,.665-.13769,1.74736,1.74736,0,0,0,.50488-.2666,2.19914,2.19914,0,0,0,.36523-.36036,1.845,1.845,0,0,0,.25489-.41015,3.64783,3.64783,0,0,0,.16113-.4209,2.19814,2.19814,0,0,0,.08887-.39942c.01464-.125.02539-.23632.0332-.332a1.17364,1.17364,0,0,0,0-.22168V25.4259a2.70189,2.70189,0,0,0-.665-2.00586,2.2419,2.2419,0,0,0-1.61816-.64258,2.215,2.215,0,0,0-1.61817.64258,2.72631,2.72631,0,0,0-.665,2.00586V25.548a2.28221,2.28221,0,0,0,.0166.27734c.01075.0957.03321.22363.06641.38184a3.17555,3.17555,0,0,0,.127.44922,2.61587,2.61587,0,0,0,.55957.87011,1.78514,1.78514,0,0,0,.47168.32715,1.96537,1.96537,0,0,0,.63184.18848,1.85259,1.85259,0,0,0,.35449.0332h.05567A1.98765,1.98765,0,0,0,17.31055,28.06359Zm14.55957-6.19043a9.41472,9.41472,0,0,1,.30468,2.86524,8.81709,8.81709,0,0,1-.127,1.541,6.88151,6.88151,0,0,1-.32715,1.23047,4.64582,4.64582,0,0,1-.49316.95313,4.40533,4.40533,0,0,1-.59863.7207,3.79621,3.79621,0,0,1-.665.50391,4.65321,4.65321,0,0,1-.665.33789,4.406,4.406,0,0,1-.63184.20019,4.55889,4.55889,0,0,1-.52636.09961c-.13282.01465-.2627.02539-.38868.0332h-.09961a5.38064,5.38064,0,0,1-3.0205-.96972,4.19847,4.19847,0,0,1-1.71192-3.23145h2.32715a2.15419,2.15419,0,0,0,2.31738,1.88477,2.04841,2.04841,0,0,0,1.42969-.45508,2.69028,2.69028,0,0,0,.71973-1.42969,9.66887,9.66887,0,0,0,.13379-1.5957,5.32965,5.32965,0,0,0-.12793-1.22461,3.04561,3.04561,0,0,0-.32129-.85938,2.31172,2.31172,0,0,0-.4541-.54882,1.882,1.882,0,0,0-.48243-.32129,2.21019,2.21019,0,0,0-.46582-.13867,3.47071,3.47071,0,0,0-.47656-.03321h-.02246a2.29139,2.29139,0,0,0-2.083,1.3418H23.21973V14.0089h8.63379V16.337H25.41406v3.65723a4.02764,4.02764,0,0,1,2.59375-.88672,4.04188,4.04188,0,0,1,2.89258,1.19726A4.59611,4.59611,0,0,1,31.87012,21.87316Z" fill="url(#Beschriftung_schwarz)"/></g></svg>