<svg xmlns="http://www.w3.org/2000/svg" xmlns:xlink="http://www.w3.org/1999/xlink" viewBox="0 0 44 44"><defs><linearGradient id="Beschriftung_schwarz" x1="12.4834" y1="22.1134" x2="32.20215" y2="22.1134" gradientUnits="userSpaceOnUse"><stop offset="0" stop-color="#010101"/><stop offset="0"/></linearGradient></defs><g id="Speedlimit_95"><path id="Beschriftung_schwarz-2" data-name="Beschriftung_schwarz" d="M21.15137,21.54211l-4.34473,8.69043H14.21289L17.627,23.39367H17.582a3.432,3.432,0,0,1-1.23047.21094,3.83684,3.83684,0,0,1-2.7041-1.0752,4.45846,4.45846,0,0,1-1.16406-3.43652A4.84446,4.84446,0,0,1,13.958,15.1134a5.1106,5.1106,0,0,1,3.30273-1.208,4.45485,4.45485,0,0,1,3.10352,1.33008,4.73378,4.73378,0,0,1,1.40722,3.61328A5.85561,5.85561,0,0,1,21.15137,21.54211Zm-4.02344,0a2.29431,2.29431,0,0,0,1.64062-.64258,2.61075,2.61075,0,0,0,.67579-2.00586q0-2.67187-2.31641-2.67187a2.46355,2.46355,0,0,0-1.56348.61035,2.50884,2.50884,0,0,0-.76465,2.06152,2.629,2.629,0,0,0,.67676,2.00586A2.281,2.281,0,0,0,17.12793,21.54211Zm14.76953.29394a9.41432,9.41432,0,0,1,.30469,2.86524,8.81806,8.81806,0,0,1-.127,1.541,6.883,6.883,0,0,1-.32715,1.23047,4.64585,4.64585,0,0,1-.49317.95313,4.40482,4.40482,0,0,1-.59863.7207,3.79547,3.79547,0,0,1-.665.50391,4.65216,4.65216,0,0,1-.665.33789,4.40585,4.40585,0,0,1-.63183.20019,4.55939,4.55939,0,0,1-.52637.09961c-.13281.01465-.2627.02539-.38867.0332h-.09961a5.38067,5.38067,0,0,1-3.02051-.96972,4.19848,4.19848,0,0,1-1.71191-3.23145h2.32714A2.15419,2.15419,0,0,0,27.5918,28.005a2.04838,2.04838,0,0,0,1.42968-.45508,2.69021,2.69021,0,0,0,.71973-1.42969,9.66778,9.66778,0,0,0,.13379-1.5957,5.32965,5.32965,0,0,0-.12793-1.22461,3.04511,3.04511,0,0,0-.32129-.85937,2.31134,2.31134,0,0,0-.4541-.54883,1.88217,1.88217,0,0,0-.48242-.32129,2.21037,2.21037,0,0,0-.46582-.13867,3.47229,3.47229,0,0,0-.47656-.03321h-.02247a2.29138,2.29138,0,0,0-2.083,1.3418H23.24707V13.9718h8.63379v2.32812H25.44141v3.65723a4.02764,4.02764,0,0,1,2.59375-.88672,4.04183,4.04183,0,0,1,2.89257,1.19726A4.596,4.596,0,0,1,31.89746,21.83605Z" fill="url(#Beschriftung_schwarz)"/></g></svg>