<svg xmlns="http://www.w3.org/2000/svg" xmlns:xlink="http://www.w3.org/1999/xlink" viewBox="0 0 44 44"><defs><linearGradient id="Beschriftung_schwarz" x1="9.36719" y1="21.49621" x2="34.65625" y2="21.49621" gradientUnits="userSpaceOnUse"><stop offset="0" stop-color="#010101"/><stop offset="0"/></linearGradient></defs><g id="km_h"><path id="Beschriftung_schwarz-2" data-name="Beschriftung_schwarz" d="M9.36719,25.76769V17.23058H10.5918V22.545h.02343l2.3379-2.85938H14.418l-2.09766,2.37891,2.38477,3.70312H13.16992L11.55273,22.9259l-.96093,1.0957v1.74609Zm6.293,0v-6.082h1.22461v.65039h.02343a2.18509,2.18509,0,0,1,2.59571-.49218,3.644,3.644,0,0,1,.70312.5625,2.4737,2.4737,0,0,1,1.92188-.791,2.13994,2.13994,0,0,1,1.36816.53906,1.91086,1.91086,0,0,1,.65918,1.57031v4.043H22.93164V22.1466a1.29881,1.29881,0,0,0-.3457-.96094,1.16194,1.16194,0,0,0-.85547-.3457,1.17365,1.17365,0,0,0-.87012.3457,1.30527,1.30527,0,0,0-.34277.96094v3.62109H19.29883V22.1466a1.29885,1.29885,0,0,0-.3457-.96094,1.24947,1.24947,0,0,0-1.72559,0,1.30523,1.30523,0,0,0-.34277.96094v3.62109Zm9.45117.07032,2.86523-8.6836h.9375L26.04883,25.838Zm4.6875-.07032V17.23058h1.22461v3.10547h.02344a1.9015,1.9015,0,0,1,1.582-.7207,2.13994,2.13994,0,0,1,1.36816.53906,1.91086,1.91086,0,0,1,.65918,1.57031v4.043H33.43164V22.1466a1.30527,1.30527,0,0,0-.34277-.96094,1.15225,1.15225,0,0,0-.85254-.3457,1.17365,1.17365,0,0,0-.87012.3457,1.30527,1.30527,0,0,0-.34277.96094v3.62109Z" fill="url(#Beschriftung_schwarz)"/></g></svg>