<svg xmlns="http://www.w3.org/2000/svg" viewBox="0 0 44 44"><g id="On"><path id="Hintergrund" d="M41.48535,20.82862A2.90235,2.90235,0,1,1,38.583,17.92628,2.90575,2.90575,0,0,1,41.48535,20.82862ZM38.583,16.98878a2.491,2.491,0,0,0,2.48828-2.4878V3.98829a2.48828,2.48828,0,1,0-4.97656,0V14.501A2.491,2.491,0,0,0,38.583,16.98878Z" fill="#fff"/><path id="Ausrufezeichen" d="M38.583,23.73145a2.90259,2.90259,0,1,1,2.90234-2.90284A2.90576,2.90576,0,0,1,38.583,23.73145Zm0-4.80518a1.90259,1.90259,0,1,0,1.90234,1.90234A1.90467,1.90467,0,0,0,38.583,18.92627Zm0-1.9375A2.491,2.491,0,0,1,36.09473,14.501V3.98828a2.48828,2.48828,0,1,1,4.97656,0V14.501A2.491,2.491,0,0,1,38.583,16.98877ZM38.583,2.5a1.49008,1.49008,0,0,0-1.48828,1.48828V14.501a1.48828,1.48828,0,0,0,2.97656,0V3.98828A1.49008,1.49008,0,0,0,38.583,2.5Z" fill="#010101"/></g></svg>