<svg xmlns="http://www.w3.org/2000/svg" viewBox="0 0 44 44"><title>left_curve_chn Kopie</title><g id="Ebene_42" data-name="Ebene 42"><path d="M41.70476,36.35681,23.92352,5.43146a2.21866,2.21866,0,0,0-3.847,0L2.29527,36.35681a2.21867,2.21867,0,0,0,1.9235,3.32469H39.78125a2.21886,2.21886,0,0,0,1.92351-3.32469Z" fill="#010101"/><path d="M39.78129,39.01586H4.21882a1.553,1.553,0,0,1-1.34639-2.32733L20.65367,5.76318a1.553,1.553,0,0,1,2.69277,0L41.12768,36.68853a1.55322,1.55322,0,0,1-1.34639,2.32733ZM6.9036,35.9095H37.09673L22.00005,9.65322Z" fill="#00f300"/><path id="Piktogramm" d="M19.77727,35.31435l-2.23391-2.46756c2.916-2.83057,4.52632-4.359,7.46468-7.21117-.73071-.2405-4.17987-1.38609-5.28988-1.75307l1.34672,2.56992c-1.08259-.3426-1.97609-.60532-2.85255-.91612a1.10507,1.10507,0,0,1-.59886-.48143c-.62017-1.32735-1.19713-2.6749-1.84314-4.13994l.00225-.00106-.0012-.00217c1.38287-.80705,2.64088-1.5595,3.922-2.27024a1.10518,1.10518,0,0,1,.76742-.03833c.892.26274,1.76967.57442,2.84727.9324L20.70944,20.826c1.12448.36409,5.39919,1.8,6.43455,2.13576,2.24228.72719,2.63221,2.69208.95312,4.30962" fill="#00f300"/></g></svg>