<?xml version="1.0" encoding="utf-8"?>
<!-- Generator: Adobe Illustrator 25.3.1, SVG Export Plug-In . SVG Version: 6.00 Build 0)  -->
<svg version="1.1" id="Ebene_1" xmlns="http://www.w3.org/2000/svg" xmlns:xlink="http://www.w3.org/1999/xlink" x="0px" y="0px"
	 viewBox="0 0 108 108" style="enable-background:new 0 0 108 108;" xml:space="preserve">
<style type="text/css">
	.st0{fill:#FFFFFF;}
	.st1{fill:none;stroke:#FFFFFF;stroke-width:1.3;stroke-miterlimit:10;}
	.st2{fill:none;stroke:#959595;stroke-miterlimit:10;}
	.st3{fill:none;stroke:#FFFFFF;stroke-width:2;stroke-miterlimit:10;}
</style>
<g>
	<g>
		<g>
			<g>
				<path class="st0" d="M34.2,84.1h4.9c0.4,0,0.8-0.4,0.8-0.8v-5.1h-5.7V84.1z M35.6,79.5h3.1v3.3h-3.1V79.5z"/>
				<path class="st0" d="M33.6,73.1v-1.3H28v1.3h1.6v1.7H28V76l0,0v7.3l0,0v0.9h4.8c0.4,0,0.8-0.3,0.8-0.8v-0.3l0,0V76l0,0v-1.2H32
					v-1.7C32,73.1,33.6,73.1,33.6,73.1z M32.5,76v6.9h-3.4v-1.3H32v-1h-2.9v-4.7h0.5v3.9h0.9v-3.9H31v3.9h0.9v-3.9L32.5,76z
					 M31.1,74.8h-0.5v-1.7h0.5V74.8z"/>
				<polygon class="st0" points="37.9,74.1 39.8,74.1 39.8,72.8 37.9,72.8 37.9,71.2 36.6,71.2 36.6,72.8 35.7,72.8 35.8,71.7 
					34.5,71.7 34.3,74.1 36.6,74.1 36.5,75.9 34,75.9 34,77.2 40.4,77.2 40.4,75.9 37.9,75.9 				"/>
			</g>
			<g>
				<polygon class="st0" points="53.3,74.4 52.3,71.8 50.9,71.8 51.9,74.4 				"/>
				<path class="st0" d="M50,71.3h-1.3c0,1.4,0.1,2.8,0.2,4h-3.1v-2.2c0.6-0.1,1.2-0.2,1.8-0.3v-1.3c-2.4,0.4-4.8,0.6-5.4,0.6v1.3
					c0.3,0,1.1-0.1,2.3-0.2v2h-2.7v1.3h2.7v2.3l0,0c-0.9,0.2-1.7,0.5-2.4,0.6v1.3c0.7-0.2,1.5-0.4,2.4-0.6v2.6h-1.9L43,84h2.1
					c0.4,0,0.8-0.4,0.8-0.8v-3.4l0,0c0.8-0.2,1.6-0.5,2.4-0.7v-1.4c-0.9,0.3-1.7,0.5-2.4,0.7l0,0v-2h3.3c0.2,1.5,0.4,2.8,0.7,4.1
					c-1,1-2.1,1.6-2.9,1.9v1.4c0.9-0.2,2.1-0.8,3.1-1.6c0.1-0.1,0.2-0.1,0.2-0.2c0.2,0.6,0.4,1.1,0.6,1.6l0.2,0.4h2.3l0.4-1.3H52
					c-0.2-0.6-0.4-1.1-0.6-1.8c0.9-0.9,1.7-2.2,2.2-3.8h-1.4c-0.3,0.8-0.7,1.6-1.2,2.2c-0.2-0.9-0.4-1.9-0.5-2.9h3.6v-1.3h-3.7
					C50.1,74,50,72.7,50,71.3z"/>
			</g>
			<g>
				<path class="st0" d="M56.6,84.2h8.5c0.4,0,0.8-0.4,0.8-0.8v-5.7h-9.3L56.6,84.2z M64.6,79v3.9h-6.7v-1.3h5.4v-1.3h-5.4V79H64.6z
					"/>
				<path class="st0" d="M64.7,73.5h1.8v-1.3h-4.4v-1h-1.5v1h-4.3v1.3h1.8l0.1,1.9h-2.8v1.3h12v-1.3h-2.7V73.5z M59.3,73.4h4.1
					l-0.2,1.9h-3.7L59.3,73.4z"/>
			</g>
			<g>
				<path class="st0" d="M79.9,77.9v-1.4h-4.8v-2.4h-1.3v2.4h-3.4l0.1-3c2.8,0,5.8-0.2,8.7-0.5v-1.4c-3,0.3-6,0.5-8.8,0.5h-1.2
					l-0.3,5.8h4.8v5h-1.4l0.4,1.3h1.6c0.4,0,0.8-0.4,0.8-0.8v-5.5H79.9z"/>
				<path class="st0" d="M68.3,83.7h1.4c0.6-1.4,1.1-3,1.6-4.7H70C69.5,80.7,69,82.3,68.3,83.7z"/>
				<path class="st0" d="M78.3,79H77c0.5,1.7,1,3.3,1.6,4.7H80C79.4,82.3,78.8,80.8,78.3,79z"/>
			</g>
		</g>
	</g>
	<circle class="st1" cx="54" cy="44.1" r="18.5"/>
	<circle class="st2" cx="54" cy="44.1" r="15"/>
	<circle class="st3" cx="54" cy="44.1" r="3.5"/>
	<path class="st0" d="M54.5,32.6h-1.1c-0.1,0-0.2-0.1-0.2-0.2v-9.9c0-0.1,0.1-0.2,0.2-0.2h1.1c0.1,0,0.2,0.1,0.2,0.2v9.9
		C54.8,32.6,54.7,32.6,54.5,32.6z"/>
	<path class="st0" d="M64,46.1l-0.7-0.8c-0.1-0.1-0.1-0.2,0-0.3l2.5-2.2c0.1-0.1,0.2-0.1,0.3,0l0.7,0.8c0.1,0.1,0.1,0.2,0,0.3
		l-2.5,2.2C64.2,46.2,64.1,46.2,64,46.1z"/>
	<path class="st0" d="M65.8,44.7l-0.6,0.5c-0.2,0.1-0.4,0.1-0.5,0L53.4,32.6c-0.1-0.2-0.1-0.4,0-0.5l0.6-0.5c0.2-0.1,0.4-0.1,0.5,0
		l11.3,12.6C65.9,44.4,65.9,44.6,65.8,44.7z"/>
</g>
</svg>
