<?xml version="1.0" encoding="utf-8"?>
<!-- Generator: Adobe Illustrator 25.3.1, SVG Export Plug-In . SVG Version: 6.00 Build 0)  -->
<svg version="1.1" id="Ebene_1" xmlns="http://www.w3.org/2000/svg" xmlns:xlink="http://www.w3.org/1999/xlink" x="0px" y="0px"
	 viewBox="0 0 108 108" style="enable-background:new 0 0 108 108;" xml:space="preserve">
<style type="text/css">
	.st0{fill:#FFFFFF;}
</style>
<g>
	<g>
		<path class="st0" d="M57.2,33.6c0,0.1,0.2,0.5,0.1,0.7c-0.1,0.2-0.7,1-0.1,1c0.6-0.1,1.2-0.3,1-0.8s-0.5-0.9-0.6-1.2
			s-0.1-0.5-0.1-0.5s-0.3-0.4-0.5-0.3c0,0-0.3,0.3-0.3,0.5C56.8,33.2,57.2,33.4,57.2,33.6L57.2,33.6z"/>
		<path class="st0" d="M56.6,34.5c0.2-0.2,0.4-1-0.1-0.8c0,0-0.6,0.7-0.6,0.8S56.4,34.7,56.6,34.5z"/>
		<path class="st0" d="M72.9,42.4c-0.4-5.2-2.9-9.8-6.7-13c-0.2-0.1-0.3-0.3-0.5-0.4c-0.9-0.7-1.9-1.4-3-1.9
			c-1.8-0.9-3.7-1.6-5.7-1.9c-1-0.2-2.1-0.3-3.2-0.3c-1.2,0-2.4,0.1-3.6,0.3c-1,0.2-2,0.5-2.9,0.8c-0.5,0.2-1,0.4-1.5,0.6
			c-0.6,0.3-1.1,0.5-1.6,0.9c0,0-0.1,0.1-0.2,0.1c-0.3,0.2-0.6,0.4-0.9,0.6c-0.1,0.1-0.2,0.2-0.3,0.2c-0.8,0.6-1.6,1.3-2.4,2
			c-3.4,3.4-5.5,8.2-5.5,13.4v0.1c0,6.6,3.4,12.4,8.6,15.8c0.6,0.4,1.3,0.8,2,1.2c2.5,1.3,5.4,2,8.4,2c10.5,0,19-8.5,19-19
			C73,43.4,73,42.9,72.9,42.4L72.9,42.4z M72,42.4c-0.1,0-0.2,0-0.3,0.1c-0.3,0.3-1.1,0-1.5-0.6s-0.4-1.1,0.2-0.7
			c0.4,0.2,0.9,0.7,1.5,1C72,42.2,72,42.3,72,42.4L72,42.4z M70.5,36.4C70.4,36.4,70.4,36.5,70.5,36.4c-0.1,0.1-0.3,0.2-0.4,0.4
			s0.1,0.4,0.4,0.6c0.3,0.2,0.1,0.6,0.4,0.9c0.3,0.3,0,1-0.2,1.1s-0.4-0.1-0.9-0.2c-0.4-0.1-0.1-1.1-0.1-1.2c0-0.1-0.3-0.4-0.5-0.7
			s0-0.3,0-0.6S70,36,70,36c0.1,0,0.1,0,0.2,0C70.3,36.1,70.4,36.3,70.5,36.4L70.5,36.4z M35.9,44.7c0.6,0.3,1.3,0.3,1.6,0.3
			c0.6-0.1,0.4,0.4,1,0.5c0.6,0.2,1,0.7,1.7,1.5c0.7,0.7,1.4,0.4,1.4,0.4s-0.1,0.8-0.3,1S40.1,47.9,41,51s2.3,2.6,2.6,2.9
			c0.3,0.2,0,3.1-0.1,4.4c0,0.2,0,0.3,0,0.4C39.2,55.5,36.2,50.4,35.9,44.7L35.9,44.7z M54,62c-2.9,0-5.6-0.7-8-1.9
			c0,0,0-0.1,0.1-0.1c0.3-0.5,0.9-0.4,1.1-0.6c0.2-0.2,0.7-0.8,1.3-1.3s0.7-1.7,0.8-2.2s1.2-0.8,1.7-1.1s0.3-1.7,0.3-2.1
			c0-0.5,0.9-1.1,1-1.8c0.2-0.6-0.9-1-1.5-1.2s-1.1-0.5-2.1-0.6c-1.1-0.1-0.5-1.4-1.5-1.5s-0.5-0.1-1-0.5c-0.5-0.5-0.6-0.6-1.4-0.7
			c-0.8,0-1.1-0.1-1.5-0.3s-1.2,0.6-1.2,0.6s-0.3,0.2-0.3,0.3c-0.1,0-0.3-0.1-0.4-0.2c-0.1-0.1-0.3,0.2-0.5,0.2
			c-0.2-0.1-0.3-0.5-0.5-0.6s0.1-0.6-0.1-1.1c-0.3-0.6-1-0.2-1.3-0.3c-0.4-0.1,0.2-0.9,0.4-1.2s-0.2-0.3-0.5-0.3s-0.5,0.7-1,0.7
			c-0.5-0.1-0.7-0.3-0.6-0.7c0-0.4-0.4-0.5,0-1.5s1.6-0.6,1.9-0.7c0.3-0.1,0.7-0.1,1.3,0.1c0.6,0.2,0.5,0.8,0.5,1s0.2-0.8,0.2-1.4
			s0.9-0.7,1.4-1.1c0.5-0.4,0.7-1.3,1-1.7c0.2-0.4,0.8-0.4,0.9-0.9c0.1-0.4,0.8-0.6,0.9-0.6s0.2,0,0.1,0.3c-0.1,0.2,0.2,0.2,0.4,0
			s1.1-0.7,0.9-0.8c-0.2-0.1-0.2,0.1-0.4,0.1s-0.3-0.2-0.4-0.4c-0.1-0.2,0.1-0.2,0-0.5c-0.2-0.2-0.3-0.3-0.1-0.4
			c0.2-0.2,1.2,0.1,1.6,0c0.4-0.1,0.5-0.2,0.4,0c0,0.2-0.3,0.6-0.4,0.8c-0.1,0.1,1.1,0.3,1.3,0.3c0.3,0-0.1-0.7-0.5-0.9
			s0-0.9-0.1-1.3c-0.1-0.4-0.9-0.9-1-1.2c-0.1-0.2-0.2-1-0.3-1.3c-0.2-0.3-0.3,0.2-0.4,0.3c-0.2,0.2-0.4,0-0.5-0.1s-0.1-0.1-0.1-0.7
			s-1.1-1-1.5-1.1c-0.4,0,0.1,0.7,0,1S44,31,44.1,31.6c0.2,0.6-0.6,1.2-0.9,1.4c-0.3,0.2,0.2,1.2-0.2,1.2c-0.4-0.1-0.5-0.6-0.6-0.9
			c-0.1-0.3,0.2-0.4,0.2-0.5c0-0.2-0.2,0-0.4-0.1s-0.2-0.2-0.5-0.3s-0.2-0.3-0.3-0.4c-0.2-0.2-0.5-0.2-0.7-0.2l0,0
			c0.9-1,1.9-1.9,3-2.7c0.1,0,0.1-0.1,0.2-0.1c0.8-0.5,1.6-1,2.5-1.4c0,0.2-0.1,0.3-0.2,0.4c-0.3,0.1-0.2,0.6-0.4,0.6
			c-0.3,0-0.7,0.2-0.8,0.4c-0.1,0.2,0.9,0.3,1,0.2c0.2,0,0.6,0.8,0.9,1.1c0.2,0.3,0.7-0.3,0.8-0.6c0.1-0.3-0.4-1-0.4-1.2
			s0.7,0.4,0.7,0.4s0.4-0.4,0.5-0.6s-0.3-0.4-0.6-0.7c-0.2-0.3-0.2-0.1-0.3-0.6l0,0c1-0.4,2-0.7,3-0.9c0.3,0.3,0,1.3-0.3,1.9
			s-0.2,0.9-0.1,1.1c0.1,0.2,1,3.1,1.5,2.4c0.6-0.6,1.1-2.6,1.7-2.7c0.6,0,0.6-0.6,1.2-0.7c0.5-0.1,0.8,0,1.4-0.3
			c0.4-0.3,0.6-1.3,0.9-1.9c1.8,0.3,3.6,0.8,5.2,1.6c-0.1,0.1-0.2,0.2-0.3,0.4c-0.6,0.7-0.7,1.2-1,1.8c-0.3,0.6-1.1,1.2-1.3,1.5
			c-0.2,0.4-0.2,1.5,0.1,1.5s0.9-0.5,0.9-0.3c0.1,0.1,0.5,1,0.8,0.9s0.9-1.3,0.8-1.8C62,31,62,30.8,62.2,30.7
			c0.1-0.2,0.1-0.7,0.5-0.8c0.4,0,0.8-0.4,0.5,0.2s-0.4,0.7-0.3,1c0.1,0.3,0,0.7,0.6,0.6s1-0.1,1,0s-0.9,0.3-1.1,0.8
			c-0.2,0.5-0.2,0.6-0.3,0.9c-0.1,0.3-0.4,0.5-0.4,0.5L61,34.2c0,0-0.4-0.4-0.5-0.2c-0.5,0-0.8,0-1,0.2c-0.3,0.2-0.8,0.7-0.9,0.9
			c-0.1,0.2-0.4,0.5-0.9,0.6S56.8,35.8,57,36c0.2,0.1,0.7,0.3,0.7,0.7s0.1,0.7-0.1,0.8c-0.2,0.1-1.2-0.1-1.4,0.3
			c-0.2,0.4-0.3,0.8-0.3,1.2c0,0.3-0.1,0.6,0.6,0.6c0.6,0,1-0.1,1.3-0.3c0.2-0.1,0.2-0.4,0.5-0.8c0.4-0.4,0.5-0.2,0.5-0.5
			s-0.1-0.6,0.2-0.6c0.2,0.1,0.4-0.2,0.7-0.1c0.2,0.1,0.4-0.3,0.8,0.1c0.4,0.4,0.8,0.7,0.9,0.9c0.1,0.2,0.5,0.4,0.4,0.7
			s0.4-0.6,0.4-0.8c0-0.3-0.5-0.6-0.6-0.7c-0.1-0.1-0.4-0.7,0-0.5c0.4,0.1,1,0.7,1,0.9s0.3,0.9,0.5,1.2s0.5,0.4,0.6,0.4
			c0,0-0.2-0.7,0-1c0.1-0.3,0.5-0.4,0.6-0.3c0.1,0.1,0.2,0.2,0.3,0.1c0.2-0.1,0.4-0.2,0.3-0.5c0-0.3,0.1-0.6,0.1-0.8
			c0.1-0.2,0.3-0.7,0.5-0.5c0.1,0.2,0.3,0.5,0.5,0.5s0.2-0.3,0.7-0.1s1.6,0.6,1.2,0.8c-0.3,0.3-0.6,0.5-0.9,0.4s-0.6-0.4-1-0.3
			c-0.4,0.1-1.7,0.2-1.6,0.7c0,0.5,0.5,1.2,1.2,1s1-0.2,1.1,0s0.2,1.2-0.7,1.3c0,0-2.6-0.4-2.9-0.5c-0.5-0.1-0.2,0.6-0.2,0.7
			c0,0.2-2.1-0.4-2.1-0.7s0.8-1.3-1.4-0.9c-2.2,0.3-2.8,0.8-3.4,1.7c-0.6,0.9-1.9,1.2-1.9,2.8c0.1,1.6-0.3,1.8,0.6,2.7
			c1,0.9,1,1.6,3.7,0.9c2.7-0.8,1.1-0.1,1.3,0.3c0.3,0.4,0.8,0,0.8,0.4c0.1,0.3-0.5,1,0.1,1.7s1,2.4,0.6,2.9
			c-0.3,0.5,0.4,1.5,0.3,2.4c-0.1,1,0.7,1.1,0.9,1.9c0.2,0.7,0.6,1.4,2.4,0.5c1.9-1,0.9-1.9,1.4-2.1c0.5-0.2,0.2-1.3,0.9-1.7
			c0.6-0.4,1.5-0.6,1-2.5s0.5-1.9,1.3-2.7s2-2.6,1.3-2.4c-0.7,0.2-1.3,0.6-2-0.4s-2.9-4.3-2.1-3.9c0.8,0.4,2.6,2.6,2.6,3.8
			c0,0,0.6,0.2,1.9-0.8c0.4-0.3,0.8-0.5,1-0.7C71.9,54,63.9,62,54,62L54,62z"/>
	</g>
	<g>
		<g>
			<g>
				<path class="st0" d="M52.3,74.9L52.3,74.9c-0.8,0-1.5,0-2.3,0h-1.7c-0.2,0-0.2,0-0.2,0s0,0,0-0.2c0-0.4,0-0.8,0-1.3v-0.5
					c0-0.2,0-0.2,0-0.2s0.1,0,0.2,0h3.5c0.6,0,1-0.3,1.2-0.8c0.1-0.2,0.1-0.3,0-0.5c0-0.1-0.1-0.2-0.4-0.3c-0.1,0-0.2-0.1-0.4-0.1
					h-2c-0.8,0-1.5,0-2.3,0c-0.2,0-0.5,0.1-0.7,0.2c-0.5,0.3-0.8,0.8-0.8,1.5v10.8c0,0.1,0,0.2,0,0.3c0,0.1,0.1,0.4,0.3,0.5
					c0.3,0.1,0.5-0.1,0.6-0.1c0.4-0.3,0.6-0.7,0.6-1.2c0-0.7,0-1.5,0-2.2c0-1.4,0-2.7,0-4.1c0,0,0,0,0-0.1c0,0,0,0,0.1,0
					c0.8,0,1.6,0,2.5,0c0,0,0,0,0.1,0c0,0,0,0,0,0.1c0,1.8,0,3.6,0,5.4v1.5c0,0.1,0,0.3,0,0.5c0,0.1,0.1,0.3,0.3,0.4H51
					c0.1,0,0.2,0,0.4-0.1c0.4-0.3,0.6-0.7,0.6-1.2v-2.5c0-1.3,0-2.6,0-3.9c0-0.1,0-0.1,0-0.1s0,0,0.1,0c0.2,0,0.4-0.2,0.5-0.3
					c0,0,0-0.1,0.1-0.1c0.1-0.2,0.3-0.4,0.2-0.7C52.9,74.9,52.5,74.9,52.3,74.9z"/>
			</g>
			<g>
				<path class="st0" d="M45.7,78.7v-1.2v-0.3v-1.1c0-1.1,0-2.3,0-3.4c0-0.9-0.6-1.5-1.5-1.5c-0.6,0-1.2,0-1.8,0h-0.5
					c-0.5,0-0.9,0.2-1.2,0.7c-0.2,0.4-0.3,0.8-0.3,1.1v9.2c0,0.2,0,0.4,0,0.5c0.1,0.8,0.7,1.2,1.4,1.2h0.7c0.6,0,1.1,0,1.7,0l0,0
					c0.4,0,0.7-0.2,1-0.5c0.2-0.3,0.3-0.7,0.3-1.1C45.7,81.1,45.7,79.9,45.7,78.7z M44.1,77.9v4c0,0.1,0,0.1,0,0.2v0.1H44h-1.7
					c-0.1,0-0.1,0-0.1,0s0,0,0-0.1s0-0.1,0-0.2v-8.7c0-0.3,0-0.3,0-0.3s0.1,0,0.3,0h1.4l0,0c0.2,0,0.2,0,0.2,0s0,0.1,0,0.2
					L44.1,77.9z"/>
			</g>
		</g>
		<g>
			<g>
				<path class="st0" d="M39.3,83.3c-0.2-0.3-0.3-0.5-0.5-0.8l-0.1-0.1c-0.4-0.6-0.8-1.3-1.3-1.9c-0.3-0.5-0.8-0.4-0.9-0.3
					c-0.3,0.2-0.5,0.5-0.4,0.9c0,0.2,0.1,0.4,0.2,0.5l0.3,0.5c0.4,0.6,0.8,1.2,1.1,1.7c0.2,0.3,0.5,0.5,0.9,0.5l0,0l0,0
					c0.3,0,0.6-0.1,0.7-0.3C39.5,83.8,39.5,83.5,39.3,83.3z"/>
			</g>
			<g>
				<path class="st0" d="M36.6,78.6c0.3,0,0.5,0,0.8,0c0.4,0,0.7-0.2,1-0.5l0.1-0.1c0.1-0.1,0.3-0.4,0.2-0.8
					c-0.2-0.4-0.6-0.4-0.8-0.4h-0.1c-0.8,0-1.6,0-2.4,0c-0.3,0-0.4,0-0.4,0s0-0.1,0-0.4c0-1,0-1.9,0-2.9v-0.8c0-0.1,0-0.2,0-0.2
					s0,0,0.2,0c0.7,0,1.5,0,2.2,0c0.4,0,0.7-0.1,1-0.4l0,0c0.1-0.2,0.4-0.4,0.2-0.8s-0.6-0.4-0.8-0.4h-0.1c-2.5,0-5,0-7.5,0
					c-0.8,0-1.2,0.4-1.2,1.2c0,1.8,0,3.5,0,5.3c0,0.8,0.4,1.2,1.2,1.2h0.6c0.8,0,1.7,0,2.5,0c0,1,0,1.9,0,2.9v0.4
					c0-0.1-0.1-0.2-0.1-0.3c-0.3-0.6-0.5-1.2-0.8-1.8c-0.3-0.5-0.8-0.7-1.3-0.4c-0.1,0.1-0.3,0.2-0.5,0.4c-0.4,0.5-0.8,1-1.2,1.4
					l-1.1,1.3c-0.1,0.1-0.2,0.2-0.2,0.4C28,83.1,28,83.3,28,83.5c0.1,0.2,0.2,0.3,0.5,0.3c0.2,0,0.8,0.2,1.2-0.4
					c0.3-0.4,0.7-0.9,1-1.3c0.2-0.3,0.4-0.6,0.7-0.8c0.3,0.8,0.7,1.6,1.2,2.6c0.1,0.3,0.4,0.5,0.7,0.6c0.1,0,0.2,0,0.3,0
					c0.2,0,0.4-0.1,0.6-0.2c0.7-0.4,0.8-1.1,0.8-1.6v-1.1c0-1,0-2,0-3C35.5,78.6,36.1,78.6,36.6,78.6z M33.4,75.3c0,0.5,0,0.9,0,1.4
					c0,0.2,0,0.2-0.2,0.2c-0.9,0-1.6,0-2.3,0c-0.2,0-0.2,0-0.2,0l0,0c0,0,0,0,0-0.2c0-1.3,0-2.6,0-3.9c0-0.1,0-0.1,0-0.1s0,0,0.1,0
					c0.8,0,1.7,0,2.5,0c0.1,0,0.1,0,0.1,0s0,0,0,0.1c0,0.5,0,0.9,0,1.4v0.3l0,0V75.3z"/>
			</g>
		</g>
		<g>
			<g>
				<path class="st0" d="M55.7,75.8c0,0,0.2,0.1,0.3,0.2s0.2,0.2,0.3,0.2l0.1,0.1c0.2,0.2,0.5,0.3,0.8,0.3c0.1,0,0.2,0,0.3,0
					c0.4-0.1,0.6-0.3,0.6-0.5s0-0.4-0.3-0.7c-0.1-0.1-0.2-0.2-0.4-0.4c-0.1-0.1-0.2-0.2-0.3-0.3l-0.2-0.1c-0.1-0.1-0.2-0.1-0.2-0.2
					c-0.3-0.3-0.7-0.3-1-0.1c-0.3,0.3-0.4,0.6-0.2,1C55.5,75.6,55.6,75.7,55.7,75.8z"/>
			</g>
			<g>
				<path class="st0" d="M56.5,72.8c0,0,0.1,0.1,0.2,0.2l0.2,0.1c0.1,0.1,0.1,0.1,0.2,0.1l0.1,0.1c0.2,0.2,0.5,0.3,0.8,0.3
					c0.1,0,0.2,0,0.3,0c0.4-0.1,0.6-0.3,0.6-0.5s0-0.4-0.3-0.7c-0.1-0.1-0.2-0.2-0.4-0.4c-0.1-0.1-0.2-0.2-0.4-0.3l-0.1-0.1
					c-0.1-0.1-0.2-0.2-0.3-0.2c-0.3-0.3-0.7-0.3-1-0.1c-0.3,0.3-0.4,0.6-0.2,1C56.2,72.6,56.4,72.8,56.5,72.8z"/>
			</g>
			<g>
				<path class="st0" d="M65.8,77.7c0-0.1-0.2-0.2-0.4-0.3c-0.1,0-0.3-0.1-0.4-0.1h-4v-2.5c0-0.9,0-1.8,0-2.4s-0.2-1-0.6-1.3
					C60.3,71,60,70.9,59.8,71c-0.2,0.1-0.3,0.3-0.3,0.5c0,0.1,0,0.2,0,0.3l0,0c0,1.2,0,4.1,0,5.5c-1.1,0-4.4,0-4.7,0
					s-0.5,0.1-0.7,0.2c-0.6,0.3-0.8,1.1-0.8,1.2V79h6c-0.4,2.1-2.6,3.1-4.2,3.8L54.7,83c-0.1,0-0.4,0.2-0.5,0.5
					c-0.1,0.2-0.1,0.4,0.1,0.6l0.1,0.2h0.2c0.9,0,2.4-0.4,3.8-1.4c1.1-0.7,2.4-2,2.6-4h0.3c1.1,0,3.2,0,3.3,0c0.6,0,1-0.3,1.3-0.9
					C65.9,78,65.9,77.8,65.8,77.7z"/>
			</g>
			<g>
				<path class="st0" d="M65.2,83L65.2,83L65,82.8l-0.3-0.3l0,0l-1.1-1.2l0,0L63.4,81l-0.1-0.2l0,0l-0.2-0.2c-0.3-0.3-0.7-0.4-1-0.2
					c-0.3,0.2-0.4,0.6-0.3,1c0.1,0.2,0.2,0.3,0.3,0.4l0.2,0.2l1.3,1.5l0,0l0.1,0.2l0.1,0.1L64,84l0,0l0,0l0,0l0,0
					c0.2,0.2,0.5,0.4,0.8,0.4h0.1c0.4,0,0.6-0.2,0.7-0.4c0.1-0.2,0.1-0.4-0.2-0.7C65.4,83.2,65.3,83.1,65.2,83z"/>
			</g>
		</g>
		<g>
			<g>
				<path class="st0" d="M79.5,76.6c-1.7-0.1-3.7-0.8-4.6-1.1c0,0-0.1-0.1,0-0.1c1-0.7,2.1-1.7,2.5-2.3c0.1-0.1,0.2-0.6,0.1-0.9
					c-0.1-0.1-0.2-0.2-0.4-0.2c-0.4,0-3.9,0-4.9,0c0.1-0.1,0.2-0.3,0.3-0.6c0.1-0.1,0.1-0.3,0-0.4c-0.1-0.2-0.4-0.3-0.8-0.3l0,0
					c-0.2,0-0.5,0.1-0.6,0.3c-0.8,1.2-1.5,1.8-2.9,3.1l-0.5,0.5c-0.2,0.1-0.2,0.4,0,0.6c0.1,0.1,0.8,0.6,1.1,0.3
					c0.5-0.3,1-0.8,1.5-1.2l0,0c0.4,0.4,0.9,0.8,1.4,1.1v0.1c-1.5,0.6-3.8,1.3-4.6,1.2c0,0-0.2,0-0.3,0.1c-0.1,0-0.1,0.2-0.1,0.2
					c-0.2,0.5,0.3,1,0.4,1.1h0.1h0.1c0.1,0,0.1,0,0.2,0s0.1,0,0.2,0c2.2-0.4,4.1-1,5.7-1.8c0,0,0,0,0.1,0c1.5,0.8,3.4,1.3,5.5,1.7
					c0.2,0,0.5,0,0.8-0.2c0.2-0.2,0.3-0.5,0.3-0.8c0,0,0-0.1-0.1-0.2C79.7,76.7,79.6,76.6,79.5,76.6L79.5,76.6z M73.2,74.7
					C73,74.6,72,74,71.4,73.5v-0.1h3.4c0.1,0,0.1,0.1,0,0.1C74.6,73.8,73.8,74.4,73.2,74.7L73.2,74.7z"/>
			</g>
			<path class="st0" d="M78.9,79.2c-0.1-0.1-0.2-0.2-0.3-0.2c-0.1,0-0.2,0-0.3,0h-0.9H74v-0.6c0-0.6-0.5-1.1-1.1-1.1l0,0h-0.1
				l-0.2,0.2v0.1c0,0.3,0,0.6,0,1V79h-2.2h-1.2c-0.2,0-0.4,0-0.6,0.2C68.2,79.4,68,79.8,68,80l-0.1,0.4h2.6h2.2c0,0,0,3.2,0,3.7
				c0,0.1,0,0.2,0,0.3c0.1,0.3,0.2,0.4,0.3,0.4h0.1c0.1,0,0.3-0.1,0.4-0.1c0.4-0.2,0.6-0.6,0.6-1.1c0-0.2,0-3.2,0-3.2h3.4H78
				c0.5,0,0.9-0.2,1.1-0.7C78.9,79.5,78.9,79.3,78.9,79.2z"/>
			<path class="st0" d="M70.7,81.5c-0.1-0.1-0.5-0.3-1,0.2c0,0-0.1,0.1-0.2,0.2L69.4,82l-0.9,1l-0.2,0.2l-0.2,0.3L68,83.6
				c-0.2,0.2-0.3,0.5-0.2,0.7c0.1,0.2,0.3,0.4,0.7,0.4h0.1c0.3,0,0.5-0.1,0.7-0.3l0,0l0,0l0.1-0.1l0.1-0.1l1.1-1.1l0.4-0.4
				c0-0.1,0.1-0.1,0.1-0.2C71.2,82,71,81.7,70.7,81.5z"/>
			<path class="st0" d="M78.7,83.6L78.7,83.6l-0.3-0.4L78.2,83l-0.9-1l-0.1-0.1c-0.1-0.1-0.2-0.2-0.2-0.2c-0.4-0.5-0.9-0.3-1-0.2
				c-0.3,0.2-0.4,0.5-0.3,0.9c0,0.1,0.1,0.1,0.1,0.2l0.4,0.4l1.1,1.1l0.1,0.1l0.1,0.1l0,0l0,0c0.2,0.2,0.4,0.3,0.7,0.3h0.1
				c0.4,0,0.6-0.2,0.7-0.4C79,84.1,78.9,83.8,78.7,83.6z"/>
		</g>
	</g>
</g>
</svg>
