<?xml version="1.0" encoding="utf-8"?>
<!-- Generator: Adobe Illustrator 25.3.1, SVG Export Plug-In . SVG Version: 6.00 Build 0)  -->
<svg version="1.1" id="Ebene_1" xmlns="http://www.w3.org/2000/svg" xmlns:xlink="http://www.w3.org/1999/xlink" x="0px" y="0px"
	 viewBox="0 0 108 108" style="enable-background:new 0 0 108 108;" xml:space="preserve">
<style type="text/css">
	.st0{fill:none;stroke:#FFFFFF;stroke-width:2;stroke-miterlimit:10;}
	.st1{fill:#FFFFFF;}
</style>
<path class="st0" d="M66.8,43.9L45.2,31.4c-0.1,0-0.2,0-0.2,0.1v25.1c0,0.1,0.1,0.1,0.2,0.1l21.7-12.5C66.9,44,66.9,44,66.8,43.9z"
	/>
<g id="iaiyi">
	<path class="st1" d="M35.5,71.5c0,0,0,0.2,0.2,0.2c1,0,6.5-0.1,7.7-0.1c0.9,0,2.5-0.1,3.5-0.3c0.1,0,0.1-0.1,0.1-0.2
		c0-0.2-0.2-1.1-0.2-1.2s-0.1-0.1-0.2-0.1C45.4,70,44.2,70,43.1,70c0,0-7.2,0.1-7.4,0.1c-0.2,0-0.2,0.2-0.2,0.2L35.5,71.5z"/>
	<path class="st1" d="M46.7,73h-1l0,0l0,0c0-0.5,0-0.7,0-0.7s0-0.1-0.1-0.1c-0.1,0-1.6,0-1.8,0c-0.1,0-0.1,0.1-0.1,0.1s0,0.3,0,0.7
		l0,0h-1.5l0,0c0-0.5,0-0.7,0-0.7s0-0.1-0.1-0.1s-1.7,0-1.8,0s-0.1,0.1-0.1,0.1s0,0.3,0,0.7l0,0l0,0h-1.6l0,0l0,0c0-0.5,0-0.7,0-0.7
		s0-0.1-0.1-0.1c-0.1,0-1.6,0-1.8,0c-0.1,0-0.1,0.1-0.1,0.1s0,0.3,0,0.7l0,0l0,0h-1.6c-0.1,0-0.2,0.1-0.2,0.2c0,0.5,0,1.6,0,1.9
		c0,0,0,0.1,0.1,0.1c0.2,0,1.7,0,1.9,0c0.1,0,0.1-0.1,0.1-0.1c0-0.1,0-0.3,0-0.5c0,0,0-0.1,0.1-0.1c0.1,0,5.1,0,5.1,0l0,0h3.3
		c0.1,0,0.1,0.1,0.1,0.1c0,0.1,0,0.4,0,0.5c0,0,0,0.1,0.1,0.1c0.2,0,1.7,0,1.9,0c0.1,0,0.1-0.1,0.1-0.1c0-0.3,0-0.8,0-1
		C47.5,73.5,47.4,73,46.7,73z"/>
	<path class="st1" d="M46.8,75.6L46.8,75.6c0,0-4.1,0-7.4,0l0,0l0,0c0-0.2,0-0.3,0.1-0.4c0-0.1-0.1-0.1-0.1-0.1c-0.1,0-1.9,0-2,0
		h-0.1v0.1c0,0.2,0,0.3,0,0.5l0,0l0,0l0,0l0,0c-1.2,0-2.1,0-2.2,0l0,0l0,0c-0.1,0-0.1,0.1-0.1,0.1v1.3c0,0.1,0.1,0.1,0.1,0.1
		s0.8,0,1.9,0l0,0c-0.5,1.7-1.4,3.5-2.7,5.1c-0.1,0.1,0,0.2,0,0.2s1.4,0.9,1.5,1c0.1,0,0.1,0,0.2,0c1.1-1.4,1.9-2.9,2.5-4.3l0,0
		c0,0,0-0.1,0.1-0.1c1.5,0,5.3,0,5.3,0c0.2,0,0.1,0.2,0.1,0.2c-0.2,0.5-0.7,1.1-1.6,1.6h-0.1c0,0,0,0-0.1,0
		c-0.7-0.3-1.4-0.9-1.6-1.3c0,0-0.1-0.1-0.2-0.1c-0.1,0-1.6,0-2,0c-0.3,0-0.1,0.3-0.1,0.3l0,0c0.4,0.6,0.8,1.1,1.6,1.7
		c-0.8,0.2-1.8,0.3-2.7,0.3c-0.1,0-0.1,0.1-0.1,0.1c0,0.1,0,1.4,0,1.5c0,0.1,0.1,0.1,0.2,0.1c1.5,0,3.4-0.3,4.9-0.8
		c1.3,0.5,3,0.8,4.6,0.8c0.1,0,0.1,0,0.1-0.1c0-0.1,0-1.4,0-1.5c0-0.1,0-0.1-0.1-0.1c-1,0-1.7-0.1-2.3-0.3c0.5-0.4,0.9-0.9,1.2-1.3
		c0.4-0.6,0.6-1.1,0.7-1.6c0-0.2,0-1-0.7-1c-0.7,0-5.1,0-6.5,0c-0.1,0,0,0,0,0l0,0c0.1-0.2,0.1-0.4,0.2-0.6l0,0l0,0
		c3.3,0,7.7,0,7.7,0l0,0c0.1,0,0.1-0.1,0.1-0.1c0-0.1,0-1.2,0-1.3C46.9,75.6,46.9,75.6,46.8,75.6z"/>
	<path class="st1" d="M49.6,72.3h3.8l0,0c-0.8,0.8-2.2,1.2-3.5,1.4c-0.1,0-0.2,0-0.2,0.2c0,0,0,1,0,1.2c0,0.2,0.1,0.1,0.2,0.1
		c1.4-0.2,3-0.7,3.9-1.2c0.7-0.5,1.1-0.8,1.5-1.4c1.1,1.6,2.9,2.3,5.6,2.6c0.1,0,0.2,0,0.2-0.1c0-1,0-1.1,0-1.2
		c0-0.2-0.1-0.1-0.1-0.2c-1.5-0.2-2.9-0.7-3.6-1.4l0,0h3.8c0,0,0.1,0,0.1-0.1s0-1.3,0-1.4s-0.1-0.1-0.1-0.1h-4.6
		c-0.1,0-0.1,0-0.1-0.1l0,0l0,0l0,0v-0.8c0-0.1-0.1-0.1-0.1-0.1h-2.1c0,0-0.1,0-0.1,0.1v0.8l0,0l0,0l0,0c0,0,0,0.1-0.1,0.1l0,0h-4.6
		c-0.1,0-0.1,0.1-0.1,0.1V72.3C49.5,72.2,49.5,72.3,49.6,72.3z"/>
	<path class="st1" d="M56.5,77.9h-1.1H55h-4.1c-0.7,0-1.1,0.5-1.1,1.1v0.5v1.9v0.5c0,0.7,0.5,1.1,1.1,1.1H55h0.6h0.9
		c0.7,0,1.1-0.5,1.1-1.1v-0.5v-1.9V79C57.7,78.3,57.1,77.9,56.5,77.9z M55.7,79.5v1.9v0.1l0,0c0,0.1-0.1,0.2-0.2,0.2H55h-3.1
		c-0.1,0-0.2-0.1-0.2-0.2l0,0v-0.1v-1.9v-0.1l0,0c0-0.1,0.1-0.2,0.2-0.2H55h0.4h0.2C55.6,79.3,55.7,79.3,55.7,79.5L55.7,79.5
		L55.7,79.5z"/>
	<path class="st1" d="M61.7,75.5L61.7,75.5H49.1l0,0c-0.1,0-0.1,0.1-0.1,0.1v1.4c0,0.1,0.1,0.1,0.1,0.1h9.7l0,0c0,0,0.1,0,0.1,0.1
		c0,0.9,0,2.9,0,3.4c0,1-0.1,1.3-0.7,1.7c-0.1,0-0.1,0.1-0.1,0.2c0.1,0.1,0.9,1.2,0.9,1.2s0.1,0.1,0.3,0c1.3-0.7,1.6-1.4,1.6-2.9
		c0-0.4,0-2.5,0-3.5c0,0,0-0.1,0.1-0.1l0,0h0.7c0.1,0,0.1-0.1,0.1-0.1C61.7,76.9,61.7,75.6,61.7,75.5C61.8,75.5,61.8,75.5,61.7,75.5
		z"/>
	<path class="st1" d="M75.6,70.8L75.6,70.8h-1.5c-0.1,0-0.1-0.1-0.1-0.1l0,0l0,0l0,0v-0.9l0,0c0-0.1-0.1-0.1-0.1-0.1l0,0H72
		c-0.1,0-0.1,0.1-0.1,0.1v0.9l0,0l0,0l0,0c0,0,0,0.1-0.1,0.1H67c-0.1,0-0.1-0.1-0.1-0.1l0,0l0,0l0,0v-0.9c0-0.1-0.1-0.1-0.1-0.1l0,0
		h-1.9l0,0c-0.1,0-0.1,0.1-0.1,0.1v0.9l0,0l0,0l0,0c0,0,0,0.1-0.1,0.1h-1.5c-0.1,0-0.1,0.1-0.1,0.1v1.4l0,0c0,0.1,0.1,0.1,0.1,0.1
		h1.5c0.1,0,0.1,0.1,0.1,0.1l0,0l0,0l0,0v1.1c0,0.1,0.1,0.1,0.1,0.1c0.1,0,1.8,0,1.9,0l0,0l0,0c0.1,0,0.1-0.1,0.1-0.1v-1.1l0,0l0,0
		l0,0c0,0,0-0.1,0.1-0.1h4.8c0.1,0,0.1,0.1,0.1,0.1l0,0l0,0l0,0v1.1c0,0.1,0.1,0.1,0.1,0.1c0.1,0,1.8,0,1.9,0l0,0l0,0
		c0.1,0,0.1-0.1,0.1-0.1v-1.1l0,0l0,0l0,0c0,0,0-0.1,0.1-0.1h1.5c0.1,0,0.1-0.1,0.1-0.1C75.6,72.2,75.6,71,75.6,70.8
		C75.7,70.9,75.6,70.8,75.6,70.8z"/>
	<path class="st1" d="M74.8,81.8h-8.1c0,0-0.1,0-0.2,0c-0.1,0-0.3-0.1-0.3-0.2s0.1-0.2,0.2-0.3c0.1-0.1,0.1-0.1,0.2-0.1
		c2.3-1.1,4.6-2.3,6.9-3.5c0.3-0.2,0.7-0.4,0.9-0.6c0.6-0.4,0.7-1.1,0.5-1.8c-0.2-0.7-0.7-1-1.4-1c-3.1,0-6.2,0-9.2,0
		c-0.2,0-0.3,0.1-0.3,0.3c0,0.4,0,0.7,0,1.1c0,0.3,0.1,0.4,0.4,0.4c2.6,0,5.1,0,7.7,0c0,0,0.1,0,0.2,0c0.1,0,0.1,0.1,0.2,0.1
		c0,0.1-0.1,0.2-0.1,0.2c-0.1,0-0.1,0.1-0.2,0.1c-1.7,0.8-3.4,1.7-5,2.5c-0.8,0.5-1.8,0.9-2.6,1.4c-0.7,0.5-0.9,1.2-0.7,2
		s0.7,1.1,1.6,1.2l0,0h0.1c1.5,0,3.1,0,4.6,0h4.8c0.1,0,0.2-0.1,0.2-0.2v-1.4C75,81.9,74.9,81.8,74.8,81.8z"/>
</g>
</svg>
