<?xml version="1.0" encoding="utf-8"?>
<!-- Generator: Adobe Illustrator 25.3.1, SVG Export Plug-In . SVG Version: 6.00 Build 0)  -->
<svg version="1.1" id="Ebene_1" xmlns="http://www.w3.org/2000/svg" xmlns:xlink="http://www.w3.org/1999/xlink" x="0px" y="0px"
	 viewBox="0 0 108 108" style="enable-background:new 0 0 108 108;" xml:space="preserve">
<style type="text/css">
	.st0{fill:none;stroke:#FFFFFF;stroke-width:1.4;stroke-miterlimit:6.6516;}
	.st1{fill:none;stroke:#FFFFFF;stroke-width:1.4;stroke-linecap:round;stroke-miterlimit:6.6516;}
	.st2{fill:#FFFFFF;stroke:#FFFFFF;stroke-width:1.4;stroke-miterlimit:6.6516;}
	.st3{fill:#FFFFFF;}
</style>
<g>
	<g>
		<path class="st0" d="M35.5,48.2c0-10.7,8.3-19.4,18.5-19.4s18.5,8.7,18.5,19.4"/>
		<path class="st1" d="M35.5,48.2v8"/>
		<path class="st1" d="M72.5,48.2v8"/>
		<path class="st2" d="M40.5,58.8h-2c-0.1,0-0.1,0-0.1-0.1V48.3c0-0.1,0-0.1,0.1-0.1h2c0.1,0,0.1,0,0.1,0.1L40.5,58.8
			C40.6,58.8,40.6,58.8,40.5,58.8z"/>
		<path class="st2" d="M69.5,58.8h-2c-0.1,0-0.1,0-0.1-0.1V48.3c0-0.1,0-0.1,0.1-0.1h2c0.1,0,0.1,0,0.1,0.1L69.5,58.8
			C69.6,58.8,69.6,58.8,69.5,58.8z"/>
	</g>
	<g>
		<path class="st3" d="M37.8,73.9L37.8,73.9l-5.9-0.1v-0.9h4.8c1.1,0,1.2-0.6,1.2-1.1v-0.1H32v-0.6h-1.5v0.6h-5.9v1.2h5.9v0.9h-5.9
			V75h12.3C37.7,75,37.8,74.4,37.8,73.9z"/>
		<path class="st3" d="M35,78.6h1c1,0,1.8-0.7,1.8-1.5v-1.4H24.5v1.4c0,0.8,0.8,1.5,1.8,1.5h0.6v0.8h-2.5v1.2h12.3
			c1.1,0,1.2-0.6,1.2-1.1v-0.1H35V78.6z M26.4,77.4c-0.2,0-0.4-0.2-0.4-0.3v-0.3h10.2v0.3c0,0.2-0.2,0.3-0.4,0.3H26.4z M33.4,79.4
			h-5v-0.8h5V79.4z"/>
		<path class="st3" d="M82.5,73.3c1.1,0,1.1-0.7,1.1-1.3v-0.1h-2.3v-0.7H80v0.7h-2.2v-0.7h-1.4v13h6.1c1.1,0,1.1-0.7,1.1-1.3v-0.1
			h-2.3v-2.3h1.1c1.1,0,1.1-0.7,1.1-1.3v-0.1h-2.3v-2.3h1.1c1.1,0,1.1-0.7,1.1-1.3v-0.1h-2.3v-2.3h1.4V73.3z M80,82.8h-2.2v-2.3H80
			V82.8z M80,79.2h-2.2v-2.3H80V79.2z M80,75.5h-2.2v-2.3H80V75.5z"/>
		<path class="st3" d="M24.5,82.7c0,0.8,0.8,1.5,1.8,1.5H36c1,0,1.8-0.7,1.8-1.5v-1.4H24.5V82.7z M26,82.4h10.2v0.3
			c0,0.2-0.2,0.3-0.4,0.3h-9.4c-0.2,0-0.4-0.2-0.4-0.3V82.4z"/>
		<path class="st3" d="M73.6,78.3c-0.9,0-1.5,0.2-1.9,1.1l-2.1,4.7c1.4,0,1.8-0.4,2.1-1l2.1-4.8C73.8,78.3,73.6,78.3,73.6,78.3z"/>
		<path class="st3" d="M50.8,77h-9.3v-3.2H40v4.7h10.7c1,0,1.2,0.2,1.2,1.1v2c0,0.6-0.1,1-1.1,1c-0.5,0-1.1-0.3-1.7-0.8
			c-0.9-0.6-2-1.2-3.5-1.4c-0.3,0-0.6-0.1-0.9-0.1c-1.7,0-3.4,0.6-4.8,1.6v1.8c0.4-0.3,2.6-1.9,4.9-1.9c0.5,0,1,0.1,1.5,0.2
			c0.7,0.2,1.3,0.6,1.9,1.1c0.8,0.6,1.7,1.1,2.8,1.1c1.6,0,2.5-0.9,2.5-2.4v-2.2C53.4,77.9,52.5,77,50.8,77z"/>
		<path class="st3" d="M41.3,72.9h7.9c1.6,0,1.9,0.1,1.9,1.9v1.4h1.6v-1.7c0-2.2-0.8-3-3-3H40l0,0C40,71.8,40.1,72.9,41.3,72.9z"/>
		<path class="st3" d="M70.8,72.9c0.2,0.2,0.6,0.4,1,0.4h2.6v3.1h-1.7c-0.9,0-1-0.2-1-0.9V74h-1.4v1.5c0,1,0.3,2.3,2.3,2.3h1.7v4.1
			c0,0.6-0.1,0.9-1,0.9h-0.5v1.4h0.5c2,0,2.4-0.8,2.4-2.3V72h-5.4C70.4,72.1,70.4,72.6,70.8,72.9z"/>
		<path class="st3" d="M57.1,71.9h-0.6c-0.7,0-1.3,0.6-1.3,1.3h1.3h0.6V77h-0.6l0,0c-0.7,0-1.3,0.6-1.3,1.3l0,0h1.3l0,0h0.6v3.6
			c0,0.6-0.1,1-1.1,1h-0.9v1.3h1c1.5,0,2.4-0.8,2.4-2.3V71.2H57L57.1,71.9L57.1,71.9z"/>
		<path class="st3" d="M64.5,71.2H63v0.7h-3.8v1.4H67c0.8,0,1.4-0.6,1.4-1.4l0,0h-4.1v-0.7H64.5z"/>
		<path class="st3" d="M61.3,82.2c0.4,0,0.7-0.2,0.9-0.4c0.3-0.3,0.4-0.7,0.3-1.2l-0.9-5c-0.2-0.9-0.7-1.4-1.7-1.4h-0.1L61.3,82.2
			L61.3,82.2L61.3,82.2z"/>
		<path class="st3" d="M66.8,80.1l1-5.8l0,0h-0.1c-1,0-1.6,0.4-1.7,1.4c0,0-0.7,4.1-0.8,4.3c-0.4,1.7-0.9,2.9-2,2.9h-4v1.4H67
			c0.8,0,1.4-0.6,1.4-1.3l0,0h-2.8C66.4,82,66.6,81.3,66.8,80.1z"/>
	</g>
</g>
</svg>
