<?xml version="1.0" encoding="utf-8"?>
<!-- Generator: Adobe Illustrator 25.3.1, SVG Export Plug-In . SVG Version: 6.00 Build 0)  -->
<svg version="1.1" id="Ebene_1" xmlns="http://www.w3.org/2000/svg" xmlns:xlink="http://www.w3.org/1999/xlink" x="0px" y="0px"
	 viewBox="0 0 108 108" style="enable-background:new 0 0 108 108;" xml:space="preserve">
<style type="text/css">
	.st0{fill:none;stroke:#FFFFFF;stroke-width:1.8;stroke-linejoin:round;stroke-miterlimit:10;}
	.st1{fill:none;stroke:#FFFFFF;stroke-width:1.8;stroke-linecap:round;stroke-linejoin:round;stroke-miterlimit:10;}
	.st2{fill:#959595;}
	.st3{fill:#FFFFFF;}
	.st4{fill:none;stroke:#FFFFFF;stroke-width:1.5;stroke-linecap:round;stroke-linejoin:round;stroke-miterlimit:10;}
	.st5{fill:none;stroke:#FFFFFF;stroke-width:1.5;stroke-linecap:round;stroke-miterlimit:10;}
</style>
<g>
	<g>
		<rect x="58.1" y="36.5" class="st0" width="14" height="14"/>
		<rect x="36.9" y="36.5" class="st1" width="14" height="14"/>
		<rect x="36.9" y="57.3" class="st0" width="14" height="14"/>
		<path class="st2" d="M67.1,72.1h-2.2c-0.3,0-0.5-0.2-0.5-0.5v-2.2c0-0.3,0.2-0.5,0.5-0.5h2.2c0.3,0,0.5,0.2,0.5,0.5v2.2
			C67.6,71.9,67.4,72.1,67.1,72.1z"/>
		<path class="st2" d="M73.1,64.7v-7.9c0-0.3-0.2-0.5-0.5-0.5h-0.9c-0.3,0-0.5,0.2-0.5,0.5v6.1c0,0.3-0.2,0.5-0.5,0.5h-3.8
			c-0.3,0-0.5-0.2-0.5-0.5v-6.1c0-0.3-0.2-0.5-0.5-0.5h-8.3c-0.3,0-0.5,0.2-0.5,0.5v15c0,0.3,0.2,0.5,0.5,0.5h1
			c0.3,0,0.5-0.2,0.5-0.5V58.7c0-0.3,0.2-0.5,0.5-0.5H64c0.3,0,0.5,0.2,0.5,0.5v6c0,0.3,0.2,0.5,0.5,0.5h7.7
			C72.9,65.2,73.1,65,73.1,64.7z"/>
		<path class="st2" d="M72.4,72.1h-2.2c-0.3,0-0.5-0.2-0.5-0.5v-2.2c0-0.3,0.2-0.5,0.5-0.5h2.2c0.3,0,0.5,0.2,0.5,0.5v2.2
			C72.9,71.9,72.7,72.1,72.4,72.1z"/>
		<path class="st3" d="M45,45.1h-2.2c-0.3,0-0.5-0.2-0.5-0.5v-2.2c0-0.3,0.2-0.5,0.5-0.5H45c0.3,0,0.5,0.2,0.5,0.5v2.2
			C45.5,44.9,45.3,45.1,45,45.1z"/>
		<path class="st3" d="M45,65.9h-2.2c-0.3,0-0.5-0.2-0.5-0.5v-2.2c0-0.3,0.2-0.5,0.5-0.5H45c0.3,0,0.5,0.2,0.5,0.5v2.2
			C45.5,65.7,45.3,65.9,45,65.9z"/>
		<path class="st3" d="M66.2,45.1H64c-0.3,0-0.5-0.2-0.5-0.5v-2.2c0-0.3,0.2-0.5,0.5-0.5h2.2c0.3,0,0.5,0.2,0.5,0.5v2.2
			C66.7,44.9,66.5,45.1,66.2,45.1z"/>
	</g>
	<g>
		<g>
			<line class="st4" x1="28.7" y1="28.7" x2="28.7" y2="38"/>
			<line class="st4" x1="38" y1="28.7" x2="28.7" y2="28.7"/>
		</g>
		<g>
			<line class="st5" x1="79.3" y1="28.7" x2="79.3" y2="38"/>
			<line class="st5" x1="70" y1="28.7" x2="79.3" y2="28.7"/>
		</g>
		<g>
			<line class="st5" x1="28.7" y1="79.3" x2="28.7" y2="70"/>
			<line class="st5" x1="38" y1="79.3" x2="28.7" y2="79.3"/>
		</g>
		<g>
			<line class="st5" x1="79.2" y1="79.3" x2="79.3" y2="70"/>
			<line class="st5" x1="70" y1="79.3" x2="79.2" y2="79.3"/>
		</g>
	</g>
</g>
</svg>
