<svg xmlns="http://www.w3.org/2000/svg" viewBox="0 0 40 40"><g id="t11_1p136"><rect y="7" width="40" height="26" fill="#00247d" /><polygon points="20.447 8.078 20 7 17.764 7 10 11.679 2.236 7 0 7 0 8.348 7.764 13.026 0 17.705 0 19.052 0.447 20.131 10 14.374 19.553 20.131 20.447 17.974 12.236 13.026 20.447 8.078" fill="#fff" /><polygon points="20 18.154 11.49 13.026 20 7.899 20 7 18.509 7 10 12.128 1.491 7 0 7 0 7.899 8.51 13.026 0 18.154 0 19.052 0 19.054 1.488 19.054 10 13.924 18.512 19.054 20 19.054 20 19.053 20 18.154" fill="#cf142b" /><path d="M10,7V21.06123m-10-8.035H23.33333" stroke="#fff" stroke-width="3.33333" /><line y1="13.02624" x2="23.33333" y2="13.02624" stroke="#cf142b" stroke-width="2" /><line x1="10" y1="7" x2="10" y2="21.06123" stroke="#cf142b" stroke-width="2" /><path d="M0,19.05891H19.05961V7H40V33H0Z" fill="#00247d" /><path d="M25.14723,24.98543c.09585.25559.78275.59106,1.58148.15975a2.83037,2.83037,0,0,0,1.23-1.5016c.09584-.1917.14376-.43132-.07988-.57509a6.31471,6.31471,0,0,1-.591-.39936c-.0639-.0639-.1278-.11182-.17572-.15975a.69546.69546,0,0,1,.09584.11182c.31949.38339-.016.9425-.36741,1.278-.25559.23962-.71886.83068-1.38978.27157-.14377-.12779-.47924.39936-.30352.8147Z" fill="#fbea83" /><path d="M34.85967,24.98543a1.19428,1.19428,0,0,1-1.58148.15975,2.92391,2.92391,0,0,1-1.246-1.5016c-.07988-.1917-.1278-.43132.09584-.57509a6.31493,6.31493,0,0,0,.59106-.39936,1.59129,1.59129,0,0,1,.17572-.15975.695.695,0,0,0-.09585.11182c-.31949.38339.016.9425.35144,1.278.25559.23962.73483.83068,1.40576.27157.14378-.12779.46326.39936.30352.8147Z" fill="#fbea83" /><path d="M30.0035,26.35927a4.84159,4.84159,0,0,0,4.29713-2.58787.41021.41021,0,0,0-.20766-.623,2.43663,2.43663,0,0,1-.639-.46326c.25559.25559.20767.43131.032.71885a3.98787,3.98787,0,0,1-6.96487,0c-.17572-.28754-.22365-.46326.016-.71885a2.19744,2.19744,0,0,1-.639.46326.41021.41021,0,0,0-.20766.623,4.86378,4.86378,0,0,0,4.31313,2.58787Z" fill="#fbea83" /><path d="M27.0482,23.65957c-.032-.15975-.23962-.09585-.30352.09584A2.62684,2.62684,0,0,1,26.521,23.404c-.19169-.28754-.22364-.47923.04792-.7508.1278-.1278.38339-.27157.55911-.11182.36741.30351.17572.79872-.07987,1.11821Z" fill="#da171d" /><path d="M32.9428,23.65957c.032-.15975.25559-.09585.31949.09584a2.62584,2.62584,0,0,0,.22364-.35144c.1917-.28754.22365-.47923-.06389-.7508-.11182-.1278-.36742-.27157-.55911-.11182-.35144.30351-.17572.79872.07987,1.11821Z" fill="#da171d" /><path d="M25.14723,24.98543c.09585.25559.78275.59106,1.58148.15975a2.83037,2.83037,0,0,0,1.23-1.5016c.09584-.1917.14376-.43132-.07988-.57509a6.31471,6.31471,0,0,1-.591-.39936c-.0639-.0639-.1278-.11182-.17572-.15975a.69546.69546,0,0,1,.09584.11182c.31949.38339-.016.9425-.36741,1.278-.25559.23962-.71886.83068-1.38978.27157-.14377-.12779-.47924.39936-.30352.8147Z" fill="#fbea83" /><path d="M34.85967,24.98543a1.19428,1.19428,0,0,1-1.58148.15975,2.92391,2.92391,0,0,1-1.246-1.5016c-.07988-.1917-.1278-.43132.09584-.57509a6.31493,6.31493,0,0,0,.59106-.39936,1.59129,1.59129,0,0,1,.17572-.15975.695.695,0,0,0-.09585.11182c-.31949.38339.016.9425.35144,1.278.25559.23962.73483.83068,1.40576.27157.14378-.12779.46326.39936.30352.8147Z" fill="#fbea83" /><path d="M30.0035,26.35927a4.84159,4.84159,0,0,0,4.29713-2.58787.41021.41021,0,0,0-.20766-.623,2.43663,2.43663,0,0,1-.639-.46326c.25559.25559.20767.43131.032.71885a3.98787,3.98787,0,0,1-6.96487,0c-.17572-.28754-.22365-.46326.016-.71885a2.19744,2.19744,0,0,1-.639.46326.41021.41021,0,0,0-.20766.623,4.86378,4.86378,0,0,0,4.31313,2.58787Z" fill="#fbea83" /><path d="M32.06421,15.01733a1.68218,1.68218,0,0,0-.87006.14844c.28089-.28595.614-.61993.82215-.81933a3.29971,3.29971,0,0,0-1.16663.7705,9.998,9.998,0,0,1,.97491-1.16992,2.66652,2.66652,0,0,0-1.14617.90045,3.31867,3.31867,0,0,1,.55511-1.01226,1.53533,1.53533,0,0,0-.616.51123,5.10912,5.10912,0,0,1,.23255-.655c-.11072.10522-.20935.20935-.30359.3175a.61685.61685,0,0,0-.551-.34149c-.37953,0-.50321.45526-.50321.45526a1.28936,1.28936,0,0,0-.44727-.38336,4.6055,4.6055,0,0,1,.49964.95251,2.5282,2.5282,0,0,0-.65943-.649c.07007.13232.19.3717.31806.61664a1.77358,1.77358,0,0,0-.86121-.45691,2.975,2.975,0,0,1,.75421.71508,2.0484,2.0484,0,0,0-.85-.31573,4.127,4.127,0,0,1,.86358.666,2.13558,2.13558,0,0,0-.84759-.36249,9.818,9.818,0,0,1,1.08624.84668l1.35785.03192A5.20263,5.20263,0,0,1,32.06421,15.01733Zm-1.56543.31287" fill="#f9cf50" /><path d="M32.09613,16.15155a1.25306,1.25306,0,0,1-.41528-.15979,2.97911,2.97911,0,0,0-2.82752-.39935,1.18533,1.18533,0,0,0-.25506.05694.33814.33814,0,0,1-.24018-.12085.42125.42125,0,0,0-.54315-.07983.61012.61012,0,0,1-.15973.04791c-.07983,0-.17572.07984-.14374.23963.06391-.04792.31946.28753.47919.27154a.38119.38119,0,0,1,.33551.2077c.04791.04792.06391.06385-.016.12775a.32371.32371,0,0,0,0,.49524,1.03974,1.03974,0,0,0,1.281-.03467,2.51813,2.51813,0,0,0,.76373.09857,2.20245,2.20245,0,0,0,.81885-.15045,1.32059,1.32059,0,0,1,.12365.32617c.01593.06391.44727.15973.51117.20765.0799.04791.19172.032.15973-.11182-.0639-.44727-.33545-.51117-.36737-.71887.15973.016.27155.016.33545-.04792.04791-.0639.11182-.17572.17572-.20764C32.16,16.16748,32.16,16.13556,32.09613,16.15155Z" fill="#049339" /><path id="shield" d="M32.99073,17.765V20.88c0,2.69969-1.278,3.6262-2.98723,4.361-1.70927-.73483-3.00321-1.66135-3.00321-4.361V17.765Z" fill="#fff" /><path d="M30.0035,20.40077a.97249.97249,0,0,0,.55911-.31949.63539.63539,0,0,1,.92652,0,.50823.50823,0,0,0,.78275,0,.89329.89329,0,0,1,.71885-.23962V17.765H27.0003v2.07669a.89329.89329,0,0,1,.71885.23962.50824.50824,0,0,0,.78276,0,.65419.65419,0,0,1,.94249,0,.88865.88865,0,0,0,.55911.31949Z" fill="#ce152b" /><path d="M30.0035,21.9982a2.18025,2.18025,0,0,0,.67093-.25559.75947.75947,0,0,1,.8147.07987.93522.93522,0,0,0,.89457,0,.72548.72548,0,0,1,.57509-.19169,5.65749,5.65749,0,0,0,.032-.75081v-.19169c-.22365-.04792-.33547.016-.57509.22364s-.51118.15975-.86262.03195c-.33546-.14377-.67093-.39936-1.00639,0a.807.807,0,0,1-.54314.27157.7724.7724,0,0,1-.54313-.27157c-.35144-.39936-.67093-.14377-1.00639,0-.35144.1278-.639.17572-.8786-.03195-.22364-.20767-.33546-.27156-.57508-.22364V20.88a5.56364,5.56364,0,0,0,.04792.75081.69442.69442,0,0,1,.55911.19169.93453.93453,0,0,0,.89457,0c.22364-.09585.47924-.28754.83067-.07987a2.03058,2.03058,0,0,0,.67093.25559Z" fill="#0d519e" /><path d="M30.0035,22.6851a1.70243,1.70243,0,0,0,.78275-.23962.80793.80793,0,0,1,.86262.0639.82148.82148,0,0,0,.79873,0c.09585-.0639.17572-.19169.38339-.14377a3.61646,3.61646,0,0,1-.41534,1.03834,1.084,1.084,0,0,1-.83067-.06389,1.15211,1.15211,0,0,0-.97445-.11183,1.05695,1.05695,0,0,1-1.21406,0,1.1521,1.1521,0,0,0-.97445.11183,1.084,1.084,0,0,1-.83067.06389,3.61589,3.61589,0,0,1-.41534-1.03834c.20767-.04792.28754.07987.38339.14377a.79052.79052,0,0,0,.78274,0,.83757.83757,0,0,1,.8786-.0639,1.70247,1.70247,0,0,0,.78275.23962Z" fill="#0d519e" /><path d="M30.0035,25.241a6.39561,6.39561,0,0,0,1.70927-.99042c-.12779-.04792-.20767-.016-.31949-.09584a.8097.8097,0,0,0-.73482.04792,1.30846,1.30846,0,0,1-1.30991,0,.80972.80972,0,0,0-.73483-.04792c-.11182.07987-.19169.04792-.31949.09584a6.156,6.156,0,0,0,1.70927.99042Z" fill="#0d519e" /><path d="M29.58813,18.54773c.016.03195.032.23962.07988.27157a11.97826,11.97826,0,0,1,1.23-.14377c.33547,0,.54314.11182.73483.11182a.197.197,0,0,0,.20767-.15974c0-.07988-.1278-.1278-.39936-.1278-.38339,0-.59106.09585-.91055.09585-.47924,0-.55911-.17572-.55911-.2556s.07988-.19169.33547-.19169a.257.257,0,0,0,.17572-.04792.3571.3571,0,0,1,.15975-.14377c.11182-.0639.33546,0,.44728-.07988,0,.0639-.09585.15975-.17572.1917.15975-.04793.33547-.04793.36742.07987a.35.35,0,0,0-.2556,0c-.0639.016-.09585.03195-.15974.04792.06389-.016.09584.11183.19169.11183a.4177.4177,0,0,1-.41533.016.994.994,0,0,0-.2556-.0639c-.15974,0-.25559.03195-.25559.09585,0,.07987.09585.12779.38339.12779s.44728-.07987.8786-.07987c-.032-.04792.43131-.19169.39936-.28754.09585.016.47923.30352.51118.20767.03195.0639.09585.39936.04793.41534-.38888.34344-1.03835.09584-1.19809.09584.09584.016.28754.20767.46326.20767a1.83671,1.83671,0,0,1,.43131.016c.04792.04792.11182.639.15974.67093.04793.06389-.15974.17572-.20767.15974a1.87311,1.87311,0,0,1-.17571-.07987c-.016-.016-.1917-.11182-.17572-.15975s.11182-.06389.14377-.04792.06389.032.09584,0a.08784.08784,0,0,0,.04793-.07987c0-.04793-.04793-.1917-.2556-.17572a2.64548,2.64548,0,0,1-.8147-.11182c-.016-.016-.03194-.016-.04792-.03195a1.24827,1.24827,0,0,1-.20767.41533c-.04792.11183-.5591.15975-.591.1278,0,.04792-.03195.032-.04792.09585,0,.03195-.0639.04792-.09585.03195a.8778.8778,0,0,1-.14377-.11183c0-.03194-.07987-.17572-.0639-.20766a.56739.56739,0,0,1,.14377-.0639.10794.10794,0,0,1,.1278.03195c.032.04792.0639.04792.15974.03194a.62441.62441,0,0,0,.30352-.15974c-.27157-.04792-.11182-.22364-.032-.28754a.35942.35942,0,0,0-.22364.016,5.9452,5.9452,0,0,1-2.28436.73483c0,.03195-.06389.07987-.14377.03195-.04792-.016-.19169-.35144-.14377-.39936.016-.016.20767-.14378.2556-.04793a.24926.24926,0,0,0,.20766.11182,1.72173,1.72173,0,0,0,.47924-.22364.31175.31175,0,0,0,.016-.11182,1.50437,1.50437,0,0,1-.15975.0639,3.70912,3.70912,0,0,1-.639-.78275c-.016.016-.03195.04792-.0639.06389a.14457.14457,0,0,1-.14377-.04792.44044.44044,0,0,1,0-.28754.93057.93057,0,0,1,.23962-.17572c.04792,0,.20767.1278.25559.14377s.0639.11182,0,.15975a.07893.07893,0,0,0,.016.11182.71865.71865,0,0,0,.46327.33546c0-.0639.17572-.43131.23961-.39936-.016-.016-.03195-.032-.03195-.04793-.04792-.04792-.09584-.12779-.06389-.19169s.12779-.04792.15974-.016c-.016-.09585.2-.199.576-.19185a.70293.70293,0,0,1,.3346.36756c.032.04793-.016.1278-.04792.17572-.03195.016-.0639.04793-.07988.04793Z" fill="#f9cf50" /><polygon points="28.886 21.81 29.524 21.343 28.737 21.343 28.502 20.608 28.261 21.343 27.479 21.343 28.109 21.808 27.863 22.557 28.497 22.094 29.125 22.557 28.886 21.81" fill="#0c4923" /><polygon points="31.889 21.81 32.527 21.343 31.74 21.343 31.505 20.608 31.264 21.343 30.483 21.343 31.112 21.808 30.866 22.557 31.5 22.094 32.128 22.557 31.889 21.81" fill="#0c4923" /><polygon points="30.388 23.551 31.026 23.084 30.238 23.084 30.003 22.35 29.763 23.084 28.981 23.084 29.61 23.549 29.365 24.299 29.999 23.835 30.626 24.299 30.388 23.551" fill="#0c4923" /></g></svg>