<?xml version="1.0" encoding="UTF-8"?>
<svg id="Ebene_1" data-name="Ebene 1" xmlns="http://www.w3.org/2000/svg" viewBox="0 0 44 44">
  <defs>
    <style>
      .cls-1, .cls-2 {
        fill: #00f300;
      }

      .cls-2 {
        isolation: isolate;
        opacity: .6;
      }
    </style>
  </defs>
  <path id="Hintergrund" d="M42,22.00024c0,11.0457-8.9543,20-20,20S2,33.04594,2,22.00024,10.9543,2.00024,22,2.00024s20,8.9543,20,20Z"/>
  <path id="Rahmen" class="cls-2" d="M22.00004,3.10196c-10.43719,.00002-18.89818,8.46105-18.89816,18.89824,.00002,10.43719,8.46105,18.89818,18.89824,18.89816,10.43719-.00002,18.89818-8.46105,18.89816-18.89824-.00002-10.43716-8.461-18.89814-18.89816-18.89816,0,0-.00008,0-.00008,0Zm10.52551,7.26896c.17738,.16067,.36125,.31418,.53111,.48266L10.85346,33.05682c-.16848-.1698-.322-.35368-.48266-.53106,0,0,22.15474-22.15483,22.15475-22.15483ZM9.87775,31.98207c-.15347-.18608-.28876-.38679-.43362-.57991L31.40182,9.44417c.19319,.14491,.39393,.28023,.5801,.43373L9.87775,31.98207ZM33.55471,11.3926c.16186,.17624,.32885,.34753,.48266,.53105L11.92355,34.03755c-.18358-.15381-.35499-.32091-.53129-.48283L33.55471,11.3926Zm.93442,1.1163c.14617,.19205,.29618,.381,.43362,.57991L13.08862,34.92291c-.19891-.1374-.38786-.28744-.57991-.43362,0,0,21.98042-21.98039,21.98042-21.98039Zm-12.48909-6.21176c3.14119-.00457,6.21086,.93753,8.80868,2.70345L9.00049,30.80888c-4.86502-7.17934-2.98889-16.94322,4.19045-21.80823,2.59993-1.76183,5.66845-2.70355,8.8091-2.70351Zm0,31.40614c-2.92761-.00023-5.79613-.8239-8.27788-2.37693L35.32606,13.72215c4.5842,7.34742,2.34417,17.0199-5.00325,21.60409-2.4963,1.55749-5.38044,2.38122-8.32278,2.37703Z"/>
  <g id="km_h" data-name="km h">
    <path class="cls-1" d="M9.34929,25.72073v-8.5461h1.22578v5.31868h.02346l2.34013-2.86216h1.46624l-2.09966,2.38285,2.38705,3.70667h-1.53662l-1.61873-2.84535-.96186,1.09592v1.74944s-1.22578,.00006-1.22578,.00006Zm6.29898,0v-6.08952h1.22578v.65184h.02346c.65686-.72958,1.71985-.93114,2.59819-.49266,.257,.15855,.49388,.3476,.70547,.56304,.49326-.53454,1.19705-.82453,1.92371-.79262,.50517,.01295,.98949,.20407,1.36738,.53958,.45369,.39192,.69796,.97348,.66022,1.57181v4.04851h-1.22656v-3.62621c.02096-.35428-.10374-.70174-.34519-.96186-.48325-.46029-1.24272-.46029-1.72598,0-.24145,.2601-.36616,.60757-.34519,.96186v3.62623h-1.21991v-3.62623c.02096-.35428-.10374-.70174-.34519-.96186-.4836-.46027-1.24322-.46027-1.72681,0-.24025,.26074-.36424,.60791-.34353,.96186v3.62623h-1.22583Zm9.46103,.07038l2.86715-8.69358h.9384l-2.86713,8.69355-.93842,.00003Zm4.69198-.07038v-8.5461h1.22496v3.10844h.02346c.38033-.48223,.97007-.7512,1.58354-.72223,.50567,.01292,.99054,.20402,1.36904,.53958,.45432,.39146,.69873,.97334,.66022,1.57181v4.04852h-1.2248v-3.62624c.01991-.35383-.10397-.7007-.34353-.96186-.22457-.22773-.5332-.35263-.85293-.34519-.32569-.0104-.64115,.11456-.87136,.34519-.24025,.26074-.36424,.60791-.34353,.96186v3.62623s-1.22507,0-1.22506,0Z"/>
  </g>
  <path class="cls-1" d="M22.00347,6.32409c8.65579,0,15.67269,7.01691,15.67267,15.67269,0,8.65579-7.01691,15.67269-15.6727,15.67267-8.65578,0-15.67267-7.01691-15.67267-15.67269,.00978-8.65173,7.02096-15.66291,15.6727-15.67269m0-3.22574C11.56616,3.09835,3.10505,11.55946,3.10504,21.99677s8.4611,18.89842,18.89841,18.89843c10.43731,.00001,18.89842-8.46111,18.89843-18.89841h0c0-10.43731-8.4611-18.89842-18.8984-18.89843,0,0,0,0,0,0Z"/>
</svg>