<svg xmlns="http://www.w3.org/2000/svg" viewBox="0 0 44 44"><g id="d0_t15_cc-jpn_1p0_2p1020_1s1"><path id="Hintergrund" d="M2.1393,22A19.8607,19.8607,0,1,1,22,41.8607,19.8607,19.8607,0,0,1,2.1393,22Z" fill="#010101"/><path id="Rahmen_außen" d="M22.00005,41.96A19.96,19.96,0,1,1,41.96,22,19.98269,19.98269,0,0,1,22.00005,41.96Zm0-39.72168A19.76123,19.76123,0,1,0,41.76079,22,19.78348,19.78348,0,0,0,22.00005,2.23828Z" fill="#74f94c"/><path id="Rahmen" d="M22,3.51465A18.48535,18.48535,0,1,0,40.48534,22,18.48536,18.48536,0,0,0,22,3.51465ZM35.22124,22a13.14418,13.14418,0,0,1-2.63464,7.89587L14.10412,11.41339A13.2032,13.2032,0,0,1,35.22124,22ZM8.77874,22a13.14418,13.14418,0,0,1,2.63464-7.89587L29.89587,32.58661A13.20321,13.20321,0,0,1,8.77874,22Z" fill="#00f300"/><g id="Piktogramm"><path id="Piktogramm_rechterPfeilRahmen" d="M23.57329,34.45312a.8615.8615,0,0,1-.58593-.22851L21.3399,32.7002a.85852.85852,0,0,1-.041-1.21582L24.793,27.78125a2.35687,2.35687,0,0,0,.11914-2.55859l-3.248-6.05323a3.5854,3.5854,0,0,1-.32421-.90869c-.25684.14942-.48243.27979-.58008.335a1.496,1.496,0,0,1-1.87891-.0747c-.6709-.65284-.30566-1.416-.01172-2.0293l3.76172-6.5752a.74111.74111,0,0,1,.64063-.396.80085.80085,0,0,1,.65527.395l3.71973,6.48877c.333.69677.69726,1.46191.02929,2.11621a1.46839,1.46839,0,0,1-1.80957.11377l2.49024,4.63427a6.233,6.233,0,0,1-.76465,7.30957l-3.39551,3.6045A.84446.84446,0,0,1,23.57329,34.45312Zm-.24414-1.08789-.0039.00391Zm-.93066-1.30957L23.55474,33.126l3.18262-3.37793a5.02082,5.02082,0,0,0,.57715-5.90137l-3.21-5.98584a1.67958,1.67958,0,0,1-.13867-.67285l-.05761-1.10938,1.61718.96534c.35352.21435.72364.43945.8584.51513.17481.09815.39062.17578.457.11133a1.67857,1.67857,0,0,0-.22949-.67236l-3.333-5.81592-3.332,5.81494a2.37194,2.37194,0,0,0-.251.65625c.08692.08106.30274.00342.47559-.09375.19336-.10937.89746-.51855,1.34082-.77637l.83594-.48535.05859.96436a3.37837,3.37837,0,0,0,.30957,1.34765l3.23828,6.03467a3.50161,3.50161,0,0,1-.31152,3.97266Zm-.23242.2461-.002.00293ZM23.669,10.50146l-.00489.00733Z"/><path id="Piktogramm_linkerPfeil" d="M16.87009,26.94479s-.977.44383-1.17779.55674c-.18507.08555-.52851.25407-.77786.00791-.25093-.24152-.10037-.53008.08782-.92843l2.56728-4.47431a.087.087,0,0,1,.16467,0L20.29835,26.581c.18819.39835.34032.68691.08782.92843-.25092.24622-.59415.0777-.781-.00791-.196-.11291-1.17464-.55674-1.17464-.55674v4.34258a.12987.12987,0,0,1-.13174.1286h-1.2954a.12886.12886,0,0,1-.13174-.1286l-.00125-4.34258" fill="#00f300"/><path id="Piktogramm_rechterPfeil" d="M25.21492,28.20256l-3.48473,3.6933a.26018.26018,0,0,0,.01418.367l1.64826,1.52437a.26376.26376,0,0,0,.37012-.01255l3.40788-3.618a5.6279,5.6279,0,0,0,.66181-6.60561l-2.32419-4.32375L24.63,17.58058a1.28,1.28,0,0,1-.069-.42344c.34345.20388,1.29383.78728,1.52907.92059.25877.14585.79512.38579,1.16837.01725.37325-.36541.15369-.79983-.1286-1.39421l-3.72-6.488c-.07378-.1286-.19133-.1286-.26191,0l-3.71839,6.488c-.28386.59438-.50813,1.0288-.13174,1.39421.37639.36854.91117.1286,1.16837-.01725.1929-.10978.90019-.52067,1.34559-.77944a3.92941,3.92941,0,0,0,.37795,1.59024l.87667,1.642,2.3634,4.3959a2.92391,2.92391,0,0,1-.21485,3.27614" fill="#00f300"/></g></g></svg>