<?xml version="1.0" encoding="UTF-8"?>
<svg id="Ebene_1" data-name="Ebene 1" xmlns="http://www.w3.org/2000/svg" viewBox="0 0 44 44">
  <defs>
    <style>
      .cls-1 {
        fill-rule: evenodd;
      }

      .cls-1, .cls-2 {
        fill: lime;
      }
    </style>
  </defs>
  <path class="cls-2" d="m33.59134,32.90223c-.38386-.23335-7.35328-4.61174-7.35328-4.61174l1.02378-1.98966c-2.31544-1.00336-4.72864-1.76402-7.20092-2.26978-.35131-.08674-.67844-.25186-.95686-.48301C7.91823,16.19932,6.64929,15.01902,6.60289,14.98836c-.54196-.23397-.79164-.86298-.55767-1.40494.03549-.0822.08116-.15962.13595-.23043.30786-.44303.75723-.76819,1.27431-.9221.98394-1.49718,3.29385-.97746,5.05223-.15747,5.2948,2.15236,10.79681,3.75482,16.41928,4.78212,1.6219.19891,2.26157.09355,2.47949.50392.12295.2316.45758,2.19397,3.91463,4.46596,3.09567,2.03448,4.69738,1.27746,4.65355,2.15479-.03326.66607-2.62166,4.12334-3.54091,5.52203-.42206.57537-.91744,1.09317-1.47358,1.54028.0625.14203.08886.29732.07672.45201-.17714.34179-.38689.66566-.62634.9671-.14451.2882-.4953.40467-.78349.26016,0,0,0,0-.00001,0-.01211-.0061-.02402-.01262-.03571-.01954Z"/>
  <path class="cls-1" d="m14.09299,29.65285l-3.12017-1.17981-1.46992,3.88728-3.88728-1.46985,1.46985-3.88736-3.10397-1.17376,7.28734-3.96462,2.82415,7.78812Z"/>
</svg>