<?xml version="1.0" encoding="UTF-8"?>
<svg id="Ebene_1" data-name="Ebene 1" xmlns="http://www.w3.org/2000/svg" xmlns:xlink="http://www.w3.org/1999/xlink" viewBox="0 0 26 31">
  <defs>
    <style>
      .cls-1, .cls-2 {
        opacity: .5;
      }

      .cls-2 {
        fill: url(#Kontur);
      }
    </style>
    <linearGradient id="Kontur" x1="2.7724" y1="15.2966" x2="25.21329" y2="15.2966" gradientTransform="translate(0 30.66138) scale(1 -1)" gradientUnits="userSpaceOnUse">
      <stop offset="1" stop-color="#fff"/>
      <stop offset="1" stop-color="#000"/>
    </linearGradient>
  </defs>
  <path class="cls-2" d="m4.63979,5.59853h.9c.07487-.00065.14971.00369.224.013.06367.00808.12613.02386.186.047.0566.02197.1106.05014.161.084.05226.03691.10112.07841.146.124.05083.054.09826.11111.142.171.047.066.1.14.157.223l1.873,2.764h1.262l-2-2.934c-.08824-.13118-.18869-.25373-.3-.366-.09517-.0953-.20404-.17585-.323-.239.26486-.053.52145-.14111.763-.262.46907-.23282.82811-.64034,1-1.135.1-.29205.14806-.59936.142-.908.00719-.34964-.0494-.69766-.167-1.027-.10513-.28276-.28066-.53402-.51-.73-.25243-.20776-.54736-.35762-.864-.439-.40038-.10474-.81321-.1542-1.227-.147h-2.628v8.187h1.063v-3.426Zm0-3.912h1.391c.2841-.00541.56773.0255.844.092.20824.0489.40339.14238.572.274.14876.12306.26198.28358.328.465.07297.21283.10685.43711.1.662.00592.2438-.03481.48649-.12.715-.07388.19493-.19726.36726-.358.5-.17299.13839-.37448.23675-.59.288-.26722.06587-.54181.09713-.817.093h-1.35V1.68653Zm11.659,6.463h-4.151v-2.876h3.557v-.875h-3.557V1.71553h4.137v-.878h-5.2v8.187h5.214v-.875Zm5.52-.166c-.19973.13901-.42301.24065-.659.3-.29717.07636-.60321.11268-.91.108-.2305.00017-.46084-.01218-.69-.037-.229-.024-.451-.057-.664-.1s-.415-.092-.6-.148c-.169-.05-.336-.108-.5-.174v.927c.15186.0811.31087.14805.475.2.19165.05819.38668.10461.584.139.22294.0413.44793.07068.674.088.23933.02.487.03.743.03.32918.00239.65789-.02539.982-.083.27476-.04804.54316-.12722.8-.236.223-.09424.43197-.21874.621-.37.17204-.13897.32207-.30316.445-.487.11919-.17746.20901-.37297.266-.579.11526-.42516.11939-.87279.012-1.3-.094-.36736-.30452-.69436-.6-.932-.15927-.12753-.33116-.23844-.513-.331-.20687-.10518-.4207-.19606-.64-.272-.234-.082-.488-.163-.759-.242-.223-.063-.424-.125-.6-.183-.16121-.05272-.31944-.11414-.474-.184-.12504-.05526-.24457-.12223-.357-.2-.09415-.06731-.17715-.14897-.246-.242-.06478-.08871-.11321-.18827-.143-.294-.03306-.11879-.04889-.24171-.047-.365-.00204-.19209.03717-.38237.115-.558.07822-.16903.19626-.31658.344-.43.17255-.12805.36809-.22175.576-.276.26645-.07071.54136-.10436.817-.1.23466,0,.45767.01.669.03.20146.01829.40177.04767.6.088.18038.03775.35835.08617.533.145.16347.05546.32286.12229.477.2v-.943c-.14219-.07818-.29032-.14505-.443-.2-.17016-.06096-.34465-.10909-.522-.144-.20078-.04095-.4038-.07-.608-.087-.218-.02-.45133-.03-.7-.03-.309-.00273-.61761.0227-.922.076-.25536.04376-.50473.11726-.743.219-.20604.08802-.39834.20522-.571.348-.15729.13305-.29232.29036-.4.466-.10895.1748-.19024.36538-.241.565-.05287.21429-.07907.43429-.078.655-.00517.21895.0211.43751.078.649.05106.1832.13107.35705.237.515.10516.15394.23293.29115.379.407.15879.12549.33002.23439.511.325.20401.1011.41446.18863.63.262.232.081.479.158.744.233.212.062.40667.123.584.183.16097.05389.31859.11733.472.19.12614.05888.24607.13024.358.213.09493.07126.17912.15579.25.251.06567.09108.11569.19247.148.3.03307.12186.04889.24775.047.374.00222.20013-.04519.39768-.138.575-.09535.18518-.23351.34494-.40299.466Zm-4.1935,12.55769h-7.109l-1.158,5.3H2.77529l11.223,4.177,11.215-4.18h-6.6l-.988-5.297Zm2.38746-4.49111c-.88199.19436-1.7118.57635-2.433,1.12l-.1.058c-.369.222-.707.426-.926.526-.44075.16184-.90648.24511-1.376.246-.19814-.00031-.39599-.01502-.592-.044-.219-.044-.873-.126-2.353-.3-1.718-.208-4.07-.492-5.2-.688-.94-.164-1.514-.465-1.66-.868-.42759-1.20863-.76191-2.44826-1-3.708-.0316-.1203-.0221-.24771.027-.362.04-.047.168-.106.564-.118l.17-.009c.417-.049,3.692-.072,6.1-.088,1.833-.013,3.528-.025,4.205-.045.63932.02207,1.26673.17918,1.841.461,1.22441.54187,2.54708.82642,3.886.836,1.5,0,1.34154.034,4.02653.1l.009-1.572c-2.687-.068-2.52954-.1-4.03353-.1-1.13761-.00942-2.26104-.25351-3.3-.717-.77139-.36754-1.61265-.56532-2.467-.58-.684.021-2.367.033-4.2.045-3.585.026-5.8.045-6.274.1h-.117c-.61207-.00057-1.19815.24736-1.624.687-.35766.45948-.4925,1.0542-.368,1.623.25014,1.35469.60692,2.6875,1.067,3.986.132.365.532,1.475,2.869,1.881,1.187.207,3.555.492,5.282.7.962.116,2.052.248,2.231.286.2823.04919.56845.07295.855.071h.108c.67544-.00117,1.34431-.13257,1.97-.387.41275-.2057.81493-.43199,1.205-.678.52572-.35279,1.08512-.6526,1.67-.895.352,0,5.12753-.018,5.12753-.018v-1.572c-3.286.006-4.79654.014-5.18954.023h.00001Z"/>
  <path class="cls-1" d="m20.83171.71133c.01501,0,.03006.00007.04508.0002.24866,0,.482.01.7.02999.20421.017.40722.04605.608.087.17735.03491.35183.08305.52199.14401.15269.05494.30081.12181.443.19999v.943c-.15414-.07771-.31352-.14454-.47699-.2-.17465-.05882-.35263-.10724-.533-.14499-.19823-.04034-.39854-.06971-.6-.08801-.21134-.01999-.43434-.02999-.669-.02999-.01587-.00025-.03169-.00038-.04755-.00038-.25967,0-.51835.03373-.76945.10037-.20791.05425-.40346.14795-.576.276-.14775.11342-.26578.26097-.344.43001-.07783.17562-.11705.36591-.115.558-.00189.12328.01394.24621.047.365.02979.10572.07822.20529.143.29399.06884.09304.15185.17469.246.242.11243.07778.23196.14474.357.20001.15456.06985.31279.13127.474.184.176.05799.377.11999.6.18299.271.079.525.16001.759.242.2193.07594.43313.16682.64.272.18184.09256.35373.20347.513.331.29548.23765.506.56465.6.932.10739.42722.10326.87485-.012,1.3-.05699.20604-.14681.40154-.266.579-.12293.18385-.27296.34804-.445.487-.18903.15126-.398.27576-.621.37-.25685.10878-.52524.18796-.8.236-.31127.05533-.62678.08314-.94288.08314-.01303,0-.02608-.00005-.03912-.00014-.256,0-.50367-.01-.743-.03-.22607-.01732-.45106-.04669-.674-.088-.19732-.03439-.39235-.08081-.584-.139-.16413-.05195-.32314-.1189-.475-.2v-.927c.164.066.331.124.5.174.185.056.387.105.6.148.213.043.435.076.664.1.22761.02465.45637.037.68531.037h.0047c.01756.00027.0351.0004.05265.0004.28912,0,.57719-.03641.85735-.1084.23599-.05934.45927-.16099.659-.3.1695-.12105.30765-.28081.403-.46599.09281-.17732.14022-.37488.138-.57501.00189-.12625-.01393-.25214-.047-.374-.03231-.10753-.08234-.20892-.148-.3-.07088-.0952-.15507-.17974-.25-.25099-.11193-.08277-.23186-.15412-.358-.21301-.15342-.07266-.31103-.13611-.472-.18999-.17733-.06001-.372-.12101-.584-.18301-.265-.075-.512-.152-.744-.233-.21554-.07337-.42599-.16089-.63-.262-.18098-.0906-.35221-.1995-.511-.325-.14607-.11585-.27384-.25305-.379-.407-.10593-.15794-.18594-.3318-.237-.515-.0569-.21149-.08317-.43005-.078-.649-.00107-.22071.02513-.44071.078-.65499.05076-.19962.13205-.3902.241-.56501.10768-.17563.24271-.33295.4-.466.17266-.14278.36496-.25998.571-.34799.23827-.10175.48764-.17525.743-.219.2896-.05071.58297-.0762.87692-.0762m-14.548.1255c.38732,0,.77317.04961,1.14808.14769.31664.08138.61157.23124.864.43901.22933.19598.40487.44724.51.72999.1176.32935.17419.67737.167,1.02701.00605.30863-.04201.61594-.142.90799-.17189.49467-.53093.90218-1,1.135-.24155.12089-.49814.209-.763.26201.11896.06314.22783.1437.323.23899.11131.11228.21176.23482.3.36601l2,2.934h-1.262l-1.873-2.764c-.057-.08301-.11-.157-.157-.223-.04374-.0599-.09117-.11701-.142-.17101-.04488-.04559-.09375-.08709-.146-.12399-.0504-.03387-.1044-.06204-.161-.08401-.05987-.02313-.12233-.03891-.186-.047-.06945-.0087-.13938-.01306-.20937-.01306-.00488,0-.00975.00002-.01463.00006h-.9v3.42601h-1.06301V.83752h2.628c.02632-.00046.05262-.00068.07892-.00068m-1.64392,3.93869h1.35c.01611.00024.0322.00036.0483.00036.259,0,.51712-.03134.7687-.09336.21552-.05125.41701-.1496.59-.288.16074-.13274.28412-.30506.358-.5.08518-.22851.12591-.47119.12-.715.00685-.22489-.02703-.44916-.1-.66199-.06602-.18143-.17925-.34195-.328-.46501-.16861-.13162-.36376-.2251-.572-.274-.25566-.06153-.51759-.0926-.7804-.0926-.02118,0-.04241.0002-.0636.00061h-1.391v3.08899M16.28479.83752v.87801h-4.137v2.68299h3.557v.875h-3.557v2.87601h4.151v.875h-5.214V.83752h5.2m-.88404,9.36058c.85435.01468,1.69561.21246,2.467.58,1.03896.46349,2.16239.70758,3.3.717,1.504,0,1.34654.032,4.03354.1l-.00901,1.572c-2.68499-.066-2.52653-.1-4.02653-.1-1.33892-.00958-2.66159-.29413-3.886-.836-.57427-.28182-1.20168-.43893-1.841-.461-.677.02-2.372.032-4.205.045-2.408.016-5.683.039-6.1.088l-.17.009c-.396.012-.524.071-.564.118-.04909.11428-.0586.2417-.027.362.23809,1.25974.57241,2.49937,1,3.708.146.403.72.704,1.66.868,1.13.196,3.482.48,5.2.688,1.48.174,2.134.256,2.353.3.19601.02898.39386.04368.592.044.46952-.00089.93525-.08415,1.376-.246.219-.1.557-.304.926-.526l.1-.058c.7212-.54365,1.55101-.92564,2.433-1.12.393-.009,1.90354-.017,5.18954-.023v1.572s-4.77554.018-5.12754.018c-.58488.24241-1.14428.54221-1.67.895-.39007.24601-.79225.4723-1.205.678-.62569.25443-1.29456.38583-1.97.387h-.108c-.01088.00007-.02173.00011-.0326.00011-.27564,0-.55082-.02379-.8224-.07111-.179-.038-1.269-.17-2.231-.286-1.727-.208-4.095-.493-5.282-.7-2.337-.406-2.737-1.516-2.869-1.881-.46008-1.29849-.81686-2.63131-1.067-3.986-.1245-.5688.01035-1.16352.368-1.623.42538-.43916,1.01056-.68703,1.62189-.687h.11911c.474-.055,2.689-.074,6.274-.1,1.833-.012,3.516-.024,4.2-.045m2.22454,10.34311l.988,5.297h6.6l-11.215,4.18-11.223-4.17699h6.583l1.158-5.3h7.109M24.06986,1.17252c0-.27355-.14894-.52541-.38865-.65721-.17613-.09684-.5314-.18044-.72051-.24849-.20572-.0737-.41771-.13218-.63106-.17418-.22383-.04567-.45788-.05081-.69063-.07018C21.40557.00102,21.14703.0001,20.87679.0001L6.28371-.00104l-.09203.0008-2.61489-.00011c-.41421,0-.75.42366-.75.83787v8.18701c0,.41421.33579.75.75.75h.20619c-.42628.15476-.81704.40453-1.13594.73376-.0188.01941-.03654.03981-.05313.06113-.49603.63726-.68148,1.45518-.50881,2.24404.25163,1.36501.62091,2.74455,1.09271,4.07612.45398,1.25537,1.61327,2.05078,3.44757,2.36945.91428.15944,2.29452.36279,3.76515.54274-.2973.05041-.54082.2767-.60695.57935l-1.02911,4.71009H2.77529c-.36295,0-.67381.25989-.73813.61709-.06432.35721.13637.70921.47652.83581l11.223,4.177c.08437.0314.173.0471.2616.0471.08874,0,.17746-.01574.26194-.04723l11.215-4.18c.34003-.12673.54056-.47873.47617-.83585s-.37522-.61692-.7381-.61692h-5.97696l-.87376-4.68452c-.06622-.35505-.3761-.61248-.73728-.61248h-.16214c.38583-.19752.97586-.41401,1.34169-.64474.45951-.30803.93291-.56689,1.42291-.7796,1.07555-.0021,4.97653-.01777,4.97653-.01777.41344-.0011.74801-.33656.74801-.75v-1.572l-.01002-2.8557.00901-1.572c.00234-.40849-.32265-.74373-.73102-.75406-.03529,0-1.15068-.07189-1.15068-.07189l.00028-9.60093Z"/>
</svg>