<svg xmlns="http://www.w3.org/2000/svg" viewBox="0 0 44 44"><defs><style>.cls-1{fill:#010101;}.cls-2{fill:#00f300;}</style></defs><g id="d0_t5_cc-nor_1p0_2p1014_1s1"><path id="path13" class="cls-1" d="M4.40715,9.06172,2,13.243l15.1778,8.75348L2,30.76562,4.40715,34.939,22,24.79432,39.59281,34.939,42,30.76562,26.8222,21.99646,42,13.243,39.59281,9.06172,22,19.2219Z"/><path id="path19" class="cls-2" d="M29.47162,23.53611l-2.415,4.17339L39.59276,34.939,42,30.7656,29.47162,23.5361Z"/><path id="path21" class="cls-2" d="M2,30.7656,4.40715,34.939l12.53619-7.2295-2.415-4.17339Z"/><path id="path23" class="cls-2" d="M27.05661,16.29106l2.415,4.18137L42,13.243,39.59276,9.06172Z"/><path id="path25" class="cls-2" d="M4.40715,9.06172,2,13.243l12.52833,7.22945,2.415-4.18137Z"/><g id="path13-2" data-name="path13"><path class="cls-2" d="M39.59282,9.06172,42,13.243l-15.1778,8.75348L42,30.76563,39.59282,34.939,22,24.79432,4.40716,34.939,2,30.76563l15.1778-8.76917L2,13.243,4.40716,9.06172,22,19.2219,39.59282,9.06172m.18351-.68338-.43356.2504L22,18.64451,4.65721,8.62874l-.43357-.2504-.2498.43392L1.56669,12.99352l-.24927.433.43279.24961,14.42746,8.32073L1.74988,30.33269l-.43262.25.24963.4328L3.974,35.18883l.24979.43308.4331-.24975L22,25.37149l17.343,10.00067.4331.24975.24979-.43308,2.40719-4.17339.24964-.4328-.43263-.25L27.82235,21.99684l14.42746-8.32073.4328-.24961-.24928-.433L40.02614,8.81225l-.24981-.43391Z"/></g></g></svg>