<svg xmlns="http://www.w3.org/2000/svg" viewBox="0 0 40 40"><g id="t11_1p191"><rect y="7" width="40" height="26" fill="#171796" /><rect y="7" width="40" height="17.33333" fill="#fff" /><rect y="7" width="40" height="8.66667" fill="red" /><path d="M20.00175,26.72273h0a5.50277,5.50277,0,0,0,5.48666-5.48667V14.71635H14.51494v6.51971a5.50277,5.50277,0,0,0,5.48667,5.48667Z" fill="red" /><path d="M20.00175,26.63481h0a5.39781,5.39781,0,0,0,5.382-5.382V14.822H14.61958v6.43081A5.39785,5.39785,0,0,0,20.00175,26.63481Z" fill="#fff" /><path d="M16.89133,15.02428H14.82009v2.27565h2.07124Z" fill="red" /><path d="M16.89133,19.57544h2.07124V17.29993H16.89133Z" fill="red" /><path d="M14.82009,21.2401a5.1745,5.1745,0,0,0,.03664.611h2.0346V19.57544H14.82009Z" fill="red" /><path d="M21.034,19.57544H18.96257v2.27565H21.034Z" fill="red" /><path d="M21.034,24.1266H23.1052V21.85109H21.034Z" fill="red" /><path d="M23.1052,25.37144a5.24474,5.24474,0,0,0,1.18255-1.2447H23.1052Z" fill="red" /><path d="M16.89147,24.1266h2.07124V21.85109H16.89147Z" fill="red" /><path d="M15.707,24.1266a5.24339,5.24339,0,0,0,1.18451,1.24623V24.1266Z" fill="red" /><path d="M20.359,26.40225a5.14762,5.14762,0,0,0,.67481-.0921V24.1266H18.96257v2.18383a5.11974,5.11974,0,0,0,.67286.09169,6.02736,6.02736,0,0,0,.72344,0Z" fill="red" /><path d="M25.1377,21.85109a5.18,5.18,0,0,0,.03679-.61308V19.57558H23.10506v2.27565H25.1377Z" fill="red" /><path d="M21.034,19.57544H23.1052V17.29993H21.034Z" fill="red" /><path d="M21.034,15.02428H18.96271v2.27565H21.034Z" fill="red" /><path d="M25.17449,17.29993V15.02428H23.1052v2.27565Z" fill="red" /><path d="M25.29042,14.64961l1.28426-2.91117-.97842-1.57994-1.62105.60013-1.1381-1.301-1.49968.85943L20.00021,9.22188,18.663,10.31707l-1.49969-.85943-1.13824,1.30085-1.621-.60013-.97871,1.58036,1.2826,2.91172a12.86389,12.86389,0,0,1,10.58277-.00083Z" fill="#fff" /><path d="M16.06074,10.88709l-.00237.00279-1.60753-.59525-.89956,1.45245.34458.78349.87295,1.98165a12.917,12.917,0,0,1,2.03348-.70337l-.74141-2.92162Z" fill="#0093dd" /><path d="M18.67693,10.44985l-.00279.00223L17.187,9.5999l-1.12626,1.28719.74141,2.92162a12.92261,12.92261,0,0,1,2.12378-.35475l-.24914-3.00411Z" fill="#171796" /><path d="M16.61823,13.0836a13.65562,13.65562,0,0,1,2.246-.37509l-.063-.75939a14.43864,14.43864,0,0,0-2.37054.39586l.18741.73862Z" fill="red" /><path d="M16.2455,11.61527a15.169,15.169,0,0,1,2.49343-.41648l-.06186-.74545a15.91947,15.91947,0,0,0-2.61563.43682Z" fill="red" /><path d="M21.32935,10.45041l-.00321.00181-1.32607-1.086L18.67679,10.45l.24914,3.00411c.35433-.02926.71242-.04487,1.07414-.04487.36339,0,.72316.01575,1.079.04529l.25011-3.00411Z" fill="#0093dd" /><path d="M23.9454,10.88863l-.00349.00125-1.12863-1.29-1.48393.85051-.25025,3.00411a12.91781,12.91781,0,0,1,2.12363.35544l.74253-2.92119Z" fill="#171796" /><path d="M25.22953,14.51125l1.21947-2.764-.89956-1.45245-1.60418.594L23.20273,13.81a12.89766,12.89766,0,0,1,2.02666.70143Z" fill="#0093dd" /><path d="M23.67439,11.95455a14.79963,14.79963,0,0,1,2.32762.80565l-.47054,1.0669a13.63817,13.63817,0,0,0-2.1444-.74211Z" fill="#fff" /><path d="M25.60713,13.65572l.31434-.71243a14.61318,14.61318,0,0,0-2.29613-.79478l-.18532.72887a13.86937,13.86937,0,0,1,2.178.75381Z" fill="red" /></g></svg>