<svg id="Ebene_1" data-name="Ebene 1" xmlns="http://www.w3.org/2000/svg" viewBox="0 0 72 72"><defs><style>.cls-1{fill:#1fd660;}.cls-1,.cls-2{fill-rule:evenodd;}</style></defs><g id="EAAA_connect_app_media_spotify" data-name="EAAA connect app media spotify"><path class="cls-1" d="M35.99836,0A36,36,0,1,0,72,36,36,36,0,0,0,35.99836,0Z"/></g><g id="EAAA_connect_app_media_spotify-2" data-name="EAAA connect app media spotify"><path class="cls-2" d="M52.5083,51.92491a2.24166,2.24166,0,0,1-3.08026.74979l-.00516-.00315c-8.45364-5.16712-19.09442-6.334-31.62568-3.47111a2.24345,2.24345,0,1,1-.99881-4.37432c13.71311-3.13487,25.47632-1.785,34.96664,4.01336a2.24365,2.24365,0,0,1,.74378,3.0846Zm4.40564-9.80349a2.80726,2.80726,0,0,1-3.86008.92465,47.2579,47.2579,0,0,0-35.87465-4.19468,2.80675,2.80675,0,1,1-1.6656-5.36071l.03551-.01078A52.52371,52.52371,0,0,1,55.991,38.263a2.80771,2.80771,0,0,1,.92307,3.85843Zm.38073-10.2073c-11.605-6.89114-30.74718-7.524-41.82474-4.16172a3.3672,3.3672,0,0,1-1.95476-6.44446h0c12.71588-3.86008,33.85568-3.1151,47.216,4.816a3.36658,3.36658,0,1,1-3.4365,5.79015Z"/></g></svg>