<svg xmlns="http://www.w3.org/2000/svg" viewBox="0 0 44 44"><defs><style>.cls-1{opacity:0.35;}.cls-2,.cls-3,.cls-5{fill:#666;}.cls-2,.cls-4{opacity:0.15;}.cls-5{fill-rule:evenodd;}</style></defs><g id="Ebene_1" data-name="Ebene 1"><rect id="Hintergrund" class="cls-1" x="2" y="2" width="40" height="40" rx="5"/><path class="cls-2" d="M11.53106,3.8298a7.70842,7.70842,0,1,0,.00076,0Z"/><g id="E57E_pACA_road" data-name="E57E pACA road"><path class="cls-3" d="M23.94976,34.97792l1.00772.76661a22.18091,22.18091,0,0,1,2.441-2.69544l-.86759-.92117A23.337,23.337,0,0,0,23.94976,34.97792Z"/><path class="cls-3" d="M29.01822,30.05268l.75631,1.016A33.87575,33.87575,0,0,1,32.842,29.04187l-.6409-1.0922A35.188,35.188,0,0,0,29.01822,30.05268Z"/><path class="cls-3" d="M38.01141,25.09808c-1.02935.42375-2.03295.8672-2.97884,1.33074l.55847,1.13755c1.04275-.51185,2.15294-1.00412,3.29775-1.46537Z"/><path class="cls-3" d="M40.09378,27.478c-4.44715,1.62672-10.76546,6.88529-12.34091,13.49456h1.30755C30.70852,34.68246,36.91194,29.7652,41,28.51367Z"/><path class="cls-3" d="M22.22387,40.97257A16.6429,16.6429,0,0,1,23.313,38.31946l-1.12106-.58938a17.83869,17.83869,0,0,0-1.30086,3.24249Z"/><path class="cls-3" d="M15.396,40.97257c2.13237-5.41674,9.95711-14.7408,21.603-17.03122l-.94481-1.07972C24.37532,25.4497,16.22239,34.71981,14.0452,40.97257Z"/></g><g id="E57E_pACA_road-2" data-name="E57E pACA road" class="cls-4"><path class="cls-3" d="M29.06042,40.97257C30.70852,34.68246,36.91194,29.7652,41,28.51367l-4.94575-5.652C24.37532,25.4497,16.22239,34.71981,14.0452,40.97257Z"/></g><path class="cls-5" d="M7.934,9.9964h7.19443v3.08334H7.934Z"/><path class="cls-3" d="M19.23987,11.538A7.70817,7.70817,0,0,0,11.5318,3.82977h-.00073a7.70769,7.70769,0,0,0-.74982,15.37885v13.399h1.5v-13.399A7.70808,7.70808,0,0,0,19.23987,11.538Zm-7.70838,6.20856a6.20838,6.20838,0,1,1,6.20838-6.2085A6.21543,6.21543,0,0,1,11.53149,17.74652Z"/></g></svg>