<svg xmlns="http://www.w3.org/2000/svg" xmlns:xlink="http://www.w3.org/1999/xlink" viewBox="0 0 44 44"><defs><style>.cls-1{fill:url(#Hintergrund_weiss);}.cls-2{fill:url(#Rahmen_schwarz);}.cls-3{fill:#010101;}.cls-4{fill:red;}.cls-5{fill:url(#Beschriftung_schwarz);}</style><linearGradient id="Hintergrund_weiss" x1="2.46" y1="21.9635" x2="41.54" y2="21.9635" gradientUnits="userSpaceOnUse"><stop offset="1" stop-color="#fff"/><stop offset="1"/></linearGradient><linearGradient id="Rahmen_schwarz" x1="1.99736" y1="22" x2="42.00008" y2="22" gradientUnits="userSpaceOnUse"><stop offset="1"/></linearGradient><linearGradient id="Beschriftung_schwarz" x1="17.71929" y1="21.65169" x2="27.82717" y2="21.65169" xlink:href="#Rahmen_schwarz"/></defs><g id="Ebene_1" data-name="Ebene 1"><path class="cls-1" d="M4.9,41.5H39.1a2.44,2.44,0,0,0,2.44-2.44V4.86A2.44,2.44,0,0,0,39.1,2.42H4.9A2.44,2.44,0,0,0,2.46,4.86v34.2a2.48,2.48,0,0,0,1.15,2.08,2.81006,2.81006,0,0,0,1.29.367Z"/><path class="cls-2" d="M39.5,3a2.1,2.1,0,0,1,1.1.4A1.5,1.5,0,0,1,41,4.5v35A1.54,1.54,0,0,1,39.5,41H4.5a1.88,1.88,0,0,1-.8-.2A1.71,1.71,0,0,1,3,39.5V4.5A1.54,1.54,0,0,1,4.5,3h35m0-1H4.5A2.48,2.48,0,0,0,2,4.45984Q1.99984,4.47991,2,4.5v35a2.25,2.25,0,0,0,1.2,2.1,3.26011,3.26011,0,0,0,1.3.4h35A2.48,2.48,0,0,0,42,39.54016q.00016-.02007,0-.04016V4.5A2.54,2.54,0,0,0,39.5,2Z"/><g id="Ebene_35" data-name="Ebene 35"><path class="cls-3" d="M41.09781,22.23251a2.90259,2.90259,0,1,1,2.90234-2.90284h0A2.90577,2.90577,0,0,1,41.09781,22.23251Z"/><path class="cls-4" d="M41.09781,17.42733a1.90259,1.90259,0,1,0,1.90234,1.90284v-.0005A1.90467,1.90467,0,0,0,41.09781,17.42733Z"/><path class="cls-3" d="M41.09781,15.48983a2.491,2.491,0,0,1-2.48828-2.48777V2.48934a2.48828,2.48828,0,0,1,4.97655,0V13.00206A2.491,2.491,0,0,1,41.09781,15.48983Z"/><path class="cls-4" d="M41.09781,1.00106a1.49006,1.49006,0,0,0-1.48828,1.48828V13.00206a1.48828,1.48828,0,0,0,2.97655,0V2.48934A1.49007,1.49007,0,0,0,41.09781,1.00106Z"/></g></g><g id="Speedlimit_questionmark" data-name="Speedlimit questionmark"><g id="V1"><path class="cls-5" d="M20.649,25.88481l-.21967-2.89915,2.13013-2.0697q.57312-.56764,1.0925-1.08643a10.10089,10.10089,0,0,0,.907-1.0315,5.21239,5.21239,0,0,0,.6189-1.04374,2.78419,2.78419,0,0,0,.23192-1.12916,1.73228,1.73228,0,0,0-.23192-.90332,1.97011,1.97011,0,0,0-.647-.65613,3.16879,3.16879,0,0,0-.97656-.39977,5.23472,5.23472,0,0,0-1.2207-.13428q-.42664,0-.84229.03052-.41565.0302-.81788.09155-.40283.06135-.78978.15258-.3882.09156-.75684.20751-.36989.11625-.72021.26249-.35157.14647-.68727.30518v-2.0508a7.24715,7.24715,0,0,1,.99731-.45166,9.29013,9.29013,0,0,1,1.16944-.3418,11.5031,11.5031,0,0,1,1.31225-.21363,13.65517,13.65517,0,0,1,1.44044-.07324,8.22921,8.22921,0,0,1,1.23291.0946,6.68328,6.68328,0,0,1,1.2.296,5.38622,5.38622,0,0,1,1.0791.51574,3.797,3.797,0,0,1,.87646.74463,3.31373,3.31373,0,0,1,.58594.98875,3.47957,3.47957,0,0,1,.21363,1.25428,4.88007,4.88007,0,0,1-.14649,1.21765,5.30526,5.30526,0,0,1-.40649,1.08337,6.77662,6.77662,0,0,1-.60059.97656,9.77779,9.77779,0,0,1-.73.87892q-.38634.41473-.7959.79956-.40832.38451-.79345.74462l-1.81274,1.62414-.15259,2.21559Zm-.56763,4.96826V28.06986h2.82593v2.78321Z"/></g></g></svg>