<svg id="Ebene_1" data-name="Ebene 1" xmlns="http://www.w3.org/2000/svg" viewBox="0 0 30 30"><defs><style>.cls-1{fill:#fff;}</style></defs><circle class="cls-1" cx="11.40692" cy="10.53082" r="1.04626"/><circle class="cls-1" cx="18.59143" cy="10.53082" r="1.04626"/><path class="cls-1" d="M28.48041,16.90765a1.47559,1.47559,0,0,0-.58991-1.50482,3.47774,3.47774,0,0,1-1.58307-2.393c-.2503-1.10382-.47375-1.876-.64245-2.56067A3.33994,3.33994,0,0,0,22.96851,7.875L22.819,7.83142a28.9882,28.9882,0,0,0-7.54224-.94672h-.55352a28.98861,28.98861,0,0,0-7.5423.94672L7.03149,7.875a3.33982,3.33982,0,0,0-2.69641,2.57416c-.1687.68469-.39221,1.45685-.64245,2.56067a3.47794,3.47794,0,0,1-1.58307,2.393,1.4756,1.4756,0,0,0-.59,1.50482c.07508.59461,1.6944,7.05555,1.6944,7.05555h.79419v2.68188a1.1077,1.1077,0,0,0,1.10443,1.10443h.11047a1.10769,1.10769,0,0,0,1.10443-1.10443V23.9632H23.66394v2.68188a1.1077,1.1077,0,0,0,1.10443,1.10443h.11048a1.10771,1.10771,0,0,0,1.10449-1.10443V23.9632H26.786S28.4054,17.50226,28.48041,16.90765Zm-2.50818-1.19873a1.306,1.306,0,1,1-1.30591,1.306A1.306,1.306,0,0,1,25.97223,15.70892ZM5.9754,10.81934c.28144-1.1413.975-1.26654,1.78241-1.50483a26.98543,26.98543,0,0,1,7.111-.8836L15,8.43066l.13129.00025a26.98543,26.98543,0,0,1,7.111.8836c.80731.23829,1.501.36353,1.78241,1.50483.14239.57751.3341,2.0625.45111,3.10382-1.18146-.15534-2.367-.27185-3.554-.36878a1.06961,1.06961,0,0,0,.02607-.17639c0-.86414-1.02607-1.56464-2.29175-1.56464-1.2395,0-2.2428.673-2.28412,1.51239-.45734-.0086-.91461-.0224-1.372-.0224-.43646,0-.8728.01349-1.3092.02137-.04212-.83881-1.04493-1.51136-2.28388-1.51136-1.26568,0-2.29175.7005-2.29175,1.56464a1.06985,1.06985,0,0,0,.02533.17133c-1.20776.09759-2.41412.21576-3.61621.37384C5.64124,12.88184,5.833,11.39685,5.9754,10.81934ZM2.69183,17.00488a1.306,1.306,0,1,1,1.306,1.306A1.30594,1.30594,0,0,1,2.69183,17.00488Zm20.31189,3.441H6.78735V19.01007H23.00372Zm.32349-3.224c-.07666.22608-.10773.47925-.21912.78235H6.88293c-.11138-.3031-.14245-.55627-.21911-.78235-.07672-.22607-.07672-.48034.35248-.56189A43.48207,43.48207,0,0,1,15,15.98126a43.38524,43.38524,0,0,1,7.97473.67871C23.40387,16.74152,23.40387,16.99579,23.32721,17.22186Z"/></svg>