<svg xmlns="http://www.w3.org/2000/svg" viewBox="0 0 30 30"><defs><style>.cls-1{fill:#fff;}</style></defs><g id="Ebene_1" data-name="Ebene 1"><path class="cls-1" d="M9.007,25.97561V7.04731h6.46917a9.86538,9.86538,0,0,1,1.99087.18487,6.38057,6.38057,0,0,1,1.61165.52853,4.78959,4.78959,0,0,1,1.22652.85915,4.56556,4.56556,0,0,1,.86508,1.16726,5.34117,5.34117,0,0,1,.51549,1.43983,14.09815,14.09815,0,0,1,.17183,2.24735A4.63357,4.63357,0,0,1,21.69228,14.75a5.42707,5.42707,0,0,1-.50305,1.44574,4.33753,4.33753,0,0,1-.871,1.16727,4.69538,4.69538,0,0,1-1.27391.85915,7.32891,7.32891,0,0,1-1.70053.52853,11.362,11.362,0,0,1-2.15085.18487H11.80206v7.01519Zm5.91813-9.10513a6.97207,6.97207,0,0,0,2.04419-.2607,3.36244,3.36244,0,0,0,1.35687-.77028,2.93248,2.93248,0,0,0,.7525-1.23836,2.34426,2.34426,0,0,0,.23523-1.09366,9.40714,9.40714,0,0,0-.23523-2.15848,2.98345,2.98345,0,0,0-.74065-1.23244,3.40938,3.40938,0,0,0-1.31539-.78805,5.91229,5.91229,0,0,0-1.94346-.28026H11.7831v7.80861Z"/></g></svg>