<svg xmlns="http://www.w3.org/2000/svg" viewBox="0 0 50 58"><defs><linearGradient id="Background"><stop offset="0" stop-color="#e55353" /></linearGradient><linearGradient id="Frame"><stop offset="0" stop-color="#e55353" /></linearGradient><linearGradient id="Pictogram"><stop offset="0" stop-color="#ffffff" /></linearGradient></defs><rect fill="url(#Background)" height="44.5" rx="3" width="44.5" x="2.75" y="2.75" /><rect fill="none" height="44.5" rx="3" stroke="url(#Frame)" stroke-miterlimit="10" stroke-width="1.5" width="44.5" x="2.75" y="2.75" /><path d="m44.2 2.75h-38.5a3 3 0 0 0-3 3v38.5a3 3 0 0 0 3 3h7.78l11.5 9.43 11.5-9.43h7.78a3 3 0 0 0 3-3v-38.5a3 3 0 0 0-3-3z" fill="url(#Background)" stroke="url(#Frame)" stroke-miterlimit="10" stroke-width="1.5" /><polygon fill="url(#Pictogram)" points="10.3 27.8 7.98 27.8 7.98 42 10.3 42 10.3 39.5 39.6 39.5 39.6 42 42 42 42 30.7 39.6 30.7 39.6 36 10.3 36" /><rect fill="url(#Pictogram)" height="2.39" width="7.82" x="11.4" y="32.5" /><polyline fill="none" points="11.2 12.6 25 5.68 38.8 12.6" stroke="url(#Pictogram)" stroke-miterlimit="10" stroke-width="2" /><path d="m29.1 28.7a8.05 8.05 0 1 1 2.82-15.6 9.66 9.66 0 1 0 0 15.1 8.01 8.01 0 0 1-2.82 0.518z" fill="#003f87" /></svg>