<svg xmlns="http://www.w3.org/2000/svg" viewBox="0 0 50 58"><defs><linearGradient id="Background"><stop offset="0" stop-color="#e55353" /></linearGradient><linearGradient id="Frame"><stop offset="0" stop-color="#e55353" /></linearGradient><linearGradient><stop offset="0" stop-color="#fff" /></linearGradient></defs><rect fill="url(#Background)" height="44.5" rx="3" width="44.5" x="2.75" y="2.75" /><rect fill="none" height="44.5" rx="3" stroke="url(#Frame)" stroke-miterlimit="10" stroke-width="1.5" width="44.5" x="2.75" y="2.75" /><path d="m44.2 2.75h-38.5a3 3 0 0 0-3 3v38.5a3 3 0 0 0 3 3h7.78l11.5 9.43 11.5-9.43h7.78a3 3 0 0 0 3-3v-38.5a3 3 0 0 0-3-3z" fill="url(#Background)" stroke="url(#Frame)" stroke-miterlimit="10" stroke-width="1.5" /><polygon fill="#fff" points="25.8 41.7 25.8 40.4 24.2 40.4 24.2 41.7 17.6 41.7 17.6 43.2 32.4 43.2 32.4 41.7" /><path d="m11.5 18.4h12.9c1.23-0.533 2.45-0.987 3.54-1.39 0.102-0.0375 0.2-0.0738 0.3-0.111h-19.1l0.448 1.05a14.1 14.1 0 0 0 3.36 4.4 16.2 16.2 0 0 0 4.15 2.7 6.05 6.05 0 0 1 0.527-1.38 14.2 14.2 0 0 1-6.09-5.27z" fill="#fff" /><path d="m36.3 16.9a10.8 10.8 0 0 1-1.81 1.5h3.87a16.4 16.4 0 0 1-13.3 6.78h-0.00439a19.6 19.6 0 0 1-3.39-0.295 2.72 2.72 0 0 0-0.648 1.41 20.7 20.7 0 0 0 3.29 0.352v9.96h1.5v-9.96a17.8 17.8 0 0 0 14.6-8.64l0.593-1.1z" fill="#fff" /><path d="m26.8 29.8v1.51a4.45 4.45 0 0 1 2.71 1.07 2.78 2.78 0 0 1 0.691 2.13 3.11 3.11 0 0 1-2.04 2.77c-2.16 0.969-5.79 0.722-9.06-2.01a0.75 0.75 0 1 0-0.963 1.15 11.6 11.6 0 0 0 7.41 2.87 7.92 7.92 0 0 0 3.23-0.64 4.59 4.59 0 0 0 2.92-4.09 4.25 4.25 0 0 0-1.12-3.22 6.08 6.08 0 0 0-3.79-1.54z" fill="#fff" /><path d="m35.6 7.77a6.76 6.76 0 0 0-5.18-1.91c-2.76 0-4.88 0.787-6.29 2.34a7.66 7.66 0 0 0-1.79 5.38 1.61 1.61 0 0 0 0.8 1.46 1.54 1.54 0 0 0 1.64 0.00636 1.93 1.93 0 0 0 0.7-2.04l-0.0244-0.187a15.3 15.3 0 0 1-0.0278-3.8 6.87 6.87 0 0 1 4.99-1.65 5.35 5.35 0 0 1 4.07 1.42 4.75 4.75 0 0 1 1.13 3.25c-0.00781 1.15-0.62 3.36-4.63 5.14-0.703 0.313-1.61 0.648-2.58 1-4.48 1.65-10.6 3.91-10.2 8.77 0.146 1.67 1.17 3.62 4.95 4.12v-1.52c-2.16-0.326-3.33-1.23-3.46-2.73-0.324-3.72 5.19-5.75 9.22-7.23 0.987-0.363 1.92-0.707 2.67-1.04 4.78-2.12 5.51-4.98 5.52-6.45a6.19 6.19 0 0 0-1.52-4.32z" fill="#fff" /></svg>