<svg xmlns="http://www.w3.org/2000/svg" viewBox="0 0 44 44"><defs><style>.cls-1{fill:#010101;}.cls-2{fill:#fff;}</style></defs><g id="d0_t5_cc-aus_1p0_2p1014_1s0"><polygon id="Rahmen" class="cls-1" points="42 13.776 39.119 8.787 22 18.671 4.881 8.787 2 13.776 16.239 21.997 2 30.218 4.881 35.207 22 25.323 39.119 35.207 42 30.218 27.761 21.997 42 13.776" /><g id="Hintergrund"><polygon class="cls-2" points="1.745 30.149 15.866 21.997 1.745 13.845 4.812 8.531 21.999 18.454 39.188 8.531 42.255 13.845 28.134 21.997 42.255 30.149 39.188 35.462 21.999 25.539 4.812 35.462 1.745 30.149" /><path d="M39.09617,8.87319,41.91349,13.753l-14.27881,8.2439,14.27881,8.2439-2.81732,4.87976L22,25.25,4.90384,35.12051,2.08646,30.24075l14.27887-8.2439L2.08646,13.753,4.90384,8.87319,22,18.74368l17.0962-9.87049m.183-.683-.433.25L22,18.16633,5.15384,8.44018l-.433-.25-.25.433L1.65348,13.503l-.25006.433.433.25,13.52887,7.81089L1.83646,29.80774l-.433.25.25006.433,2.81738,4.87976.25.433.433-.25L22,25.82737l16.8462,9.72615.433.25.25-.433,2.81732-4.87976.25-.433-.433-.25L28.63468,21.99685,42.16349,14.186l.433-.25-.25-.433L39.52915,8.62319l-.25-.433Z" /></g><path id="Piktogramm" class="cls-1" d="M6.96129,15.50742l.29748-1.7399-.62358-.36-.82777,1.43374L5.287,14.54075,7.18629,11.251l1.08512.6265a2.194,2.194,0,0,1,.3148.21448,1.02488,1.02488,0,0,1,.21488.22881.86867.86867,0,0,1,.11419.25578.88768.88768,0,0,1,.04373.28712.97607.97607,0,0,1-.033.29521.92553.92553,0,0,1-.10246.26819,1.01594,1.01594,0,0,1-.18953.23755,1.08329,1.08329,0,0,1-.23918.17615.965.965,0,0,1-.27542.10286.82024.82024,0,0,1-.2856.01842l-.30792,1.87136ZM8.30312,13.1266a.45508.45508,0,0,0-.00778-.46277A.46852.46852,0,0,0,8.203,12.5516a.89641.89641,0,0,0-.17317-.11962l-.62358-.36-.46491.80525.62358.36a1.28207,1.28207,0,0,0,.18243.09224.46065.46065,0,0,0,.14827.02668.44777.44777,0,0,0,.23725-.05943.4767.4767,0,0,0,.17024-.17013ZM10.69,17.66019,10.89887,16.55l-1.0262-.59248-.857.736-.55484-.32034,3.03356-2.6349.51556.29766-.76511,3.94459Zm.54226-2.85556-.87174.72749.65795.37987Zm1.71346,4.1579L14.845,15.67278l-.53028-.30616-1.89934,3.28975Zm3.499,2.02015.28065-.4861-1.52213-.8788,1.61869-2.80365-.52047-.30049-1.89933,3.28975ZM30.12042,24.492l-.53028-.30616-1.256,1.58584.57352-1.97989-.50574-.292-1.41805,1.49229.74537-1.88067-.53029-.30616-1.41324,3.5704.46155.26648L27.972,24.82283l-.69851,2.41182.46155.26648ZM32.16183,30.057l.20889-1.1102-1.02621-.59248-.857.736L29.93266,28.77l3.03356-2.6349.51556.29766-.76511,3.94459Zm.54226-2.85557-.87175.72749.658.37987Zm6.009,2.25158-.61376-.35435-1.52965.81247-.05139-1.72529-.62358-.36L35.977,30.348l-.82777,1.43375.52047.30049.82777-1.43374ZM8.36,30.88948a.89853.89853,0,0,1-.0491.40757.538.538,0,0,1-.23042.2468.6134.6134,0,0,1-.62108.02992,1.424,1.424,0,0,1-.37136-.30386,2.74447,2.74447,0,0,1-.34225-.47236,3.17281,3.17281,0,0,1-.20145-.41461,1.7001,1.7001,0,0,1-.0995-.39129.72734.72734,0,0,1,.03341-.4238.65709.65709,0,0,1,.27508-.2789.87206.87206,0,0,1,.16464-.0761.40782.40782,0,0,1,.15809-.02175.50562.50562,0,0,1,.174.03861,2.013,2.013,0,0,1,.219.09475l.35434-.47a1.36451,1.36451,0,0,0-.68281-.26309,1.20016,1.20016,0,0,0-.68285.18567,1.34382,1.34382,0,0,0-.422.36374,1.07011,1.07011,0,0,0-.188.46251,1.83224,1.83224,0,0,0,.06223.70987,3.24126,3.24126,0,0,0,.72217,1.32748,2.35846,2.35846,0,0,0,.458.3992,1.19294,1.19294,0,0,0,.633.20968,1.31584,1.31584,0,0,0,.66716-.20189,1.13585,1.13585,0,0,0,.55249-1.2544Zm4.83181-1.6899L11.88076,28.111l-.602.34758.79915,1.38416-.50247.2901-1.83366-3.176,1.0476-.60483a2.11857,2.11857,0,0,1,.33128-.15966.98964.98964,0,0,1,.295-.06921.83865.83865,0,0,1,.269.028.857.857,0,0,1,.26116.102.94268.94268,0,0,1,.23091.17006.89372.89372,0,0,1,.17476.21512.98124.98124,0,0,1,.10713.27313,1.0461,1.0461,0,0,1,.03182.285.93217.93217,0,0,1-.047.27993.79154.79154,0,0,1-.12246.24767l1.416,1.16077ZM11.849,26.92845a.43932.43932,0,0,0-.39067-.21687.45205.45205,0,0,0-.13839.023.865.865,0,0,0-.1836.087l-.602.34757.44884.77741.602-.34758a1.23672,1.23672,0,0,0,.16518-.108.44461.44461,0,0,0,.09387-.11108.43235.43235,0,0,0,.06485-.22705.46032.46032,0,0,0-.06007-.22446Zm5.464-2.21922a3.31189,3.31189,0,0,1,.32867.77726,1.76774,1.76774,0,0,1,.067.70714,1.03886,1.03886,0,0,1-.56266.79888,1.18162,1.18162,0,0,1-.634.18274,1.16907,1.16907,0,0,1-.60931-.22337,2.48066,2.48066,0,0,1-.4458-.39993A3.32963,3.32963,0,0,1,14.73,25.22721a2.10839,2.10839,0,0,1-.0697-.71188,1.009,1.009,0,0,1,.18329-.45977,1.31993,1.31993,0,0,1,.422-.36374,1.07813,1.07813,0,0,1,.59606-.16085,1.26036,1.26036,0,0,1,.61405.22064,2.53546,2.53546,0,0,1,.44379.40741,3.42415,3.42415,0,0,1,.39351.55021Zm-.50247.2901a2.82011,2.82011,0,0,0-.33476-.47036,1.47465,1.47465,0,0,0-.36937-.31134.58378.58378,0,0,0-.27938-.07887.6044.6044,0,0,0-.27533.07048.52035.52035,0,0,0-.25886.26322.78726.78726,0,0,0-.02594.4258,1.6982,1.6982,0,0,0,.105.40077,3.24726,3.24726,0,0,0,.20145.41461,2.89708,2.89708,0,0,0,.332.46562,1.34237,1.34237,0,0,0,.36663.30659.61467.61467,0,0,0,.28687.08088.57192.57192,0,0,0,.29155-.08617.50393.50393,0,0,0,.23442-.26175.8128.8128,0,0,0,.0212-.42306q-.01188-.0753-.03744-.17432a2.01136,2.01136,0,0,0-.06882-.20676q-.0385-.11049-.0865-.21551t-.10273-.19983Zm5.27235-2.15282a1.08977,1.08977,0,0,0-.40113-.43205.99989.99989,0,0,0-.44736-.1399,1.439,1.439,0,0,0-.46352.04008q-.22992.05059-.43342.09223a1.4991,1.4991,0,0,1-.36579.03422.32684.32684,0,0,1-.25935-.15364.33958.33958,0,0,1-.07081-.19929.36436.36436,0,0,1,.04534-.18419.51351.51351,0,0,1,.12832-.14993.82642.82642,0,0,1,.17193-.11822.65475.65475,0,0,1,.25016-.08123.56776.56776,0,0,1,.20168.01.60773.60773,0,0,1,.17892.08l.36895-.39a1.25941,1.25941,0,0,0-.61971-.27425,1.01206,1.01206,0,0,0-.66062.14756,1.84662,1.84662,0,0,0-.37082.27729.981.981,0,0,0-.22528.33232.80207.80207,0,0,0-.05057.38313,1.062,1.062,0,0,0,.15132.43724.889.889,0,0,0,.26067.29824,1.07215,1.07215,0,0,0,.3.13649,1.05852,1.05852,0,0,0,.28594.02452q.13439-.00807.22192-.02068.192-.02868.37854-.06686a2.06049,2.06049,0,0,1,.36505-.04643.73176.73176,0,0,1,.3091.04275.43815.43815,0,0,1,.23311.20671.52856.52856,0,0,1,.05685.41593.55478.55478,0,0,1-.27889.338.81133.81133,0,0,1-.47135.11412.94114.94114,0,0,1-.47745-.19205l-.37751.45181a1.70929,1.70929,0,0,0,.78969.3278,1.33042,1.33042,0,0,0,.83219-.18973,1.312,1.312,0,0,0,.34364-.28057,1.11425,1.11425,0,0,0,.20613-.3655,1.07961,1.07961,0,0,0,.04617-.45644,1.15155,1.15155,0,0,0-.152-.44945Zm4.39456-2.5372a1.08967,1.08967,0,0,0-.40113-.432.99978.99978,0,0,0-.44735-.13991,1.43871,1.43871,0,0,0-.46353.04009q-.22994.05058-.43342.09222a1.4991,1.4991,0,0,1-.36579.03422.32684.32684,0,0,1-.25935-.15364A.33955.33955,0,0,1,24.036,19.551a.36447.36447,0,0,1,.04535-.18419.51353.51353,0,0,1,.12833-.14993.82631.82631,0,0,1,.17191-.11822.6548.6548,0,0,1,.25016-.08123.568.568,0,0,1,.20169.01.60785.60785,0,0,1,.17892.08l.369-.39a1.25948,1.25948,0,0,0-.61972-.27424,1.012,1.012,0,0,0-.66061.14756,1.84634,1.84634,0,0,0-.37082.27729.98112.98112,0,0,0-.22528.33232.80184.80184,0,0,0-.05057.38313,1.062,1.062,0,0,0,.15131.43724.889.889,0,0,0,.26067.29824,1.0722,1.0722,0,0,0,.3.13649,1.05849,1.05849,0,0,0,.28594.02452q.13438-.00807.22191-.02068.192-.02868.37854-.06686a2.06072,2.06072,0,0,1,.36505-.04643.73183.73183,0,0,1,.30911.04275.43822.43822,0,0,1,.23311.20671.52851.52851,0,0,1,.05684.41593.55475.55475,0,0,1-.27889.338.8113.8113,0,0,1-.47134.11412.94117.94117,0,0,1-.47746-.192l-.3775.45181a1.70925,1.70925,0,0,0,.78968.3278,1.33039,1.33039,0,0,0,.8322-.18973,1.31229,1.31229,0,0,0,.34364-.28057,1.1144,1.1144,0,0,0,.20612-.3655,1.07929,1.07929,0,0,0,.04617-.45644,1.15159,1.15159,0,0,0-.152-.44945Zm3.37731-.73006-1.83365-3.176-.512.29558,1.83366,3.176Zm4.3527-2.513-1.83366-3.176-.50247.2901,1.17135,2.02883-2.328-1.36105-.50247.2901,1.83365,3.176.50247-.2901L31.30584,15.872l2.456,1.45147Zm3.55867-4.16561-1.08078.624.2901.50247.57832-.33389.07662.13273a.52121.52121,0,0,1,.04884.44584.671.671,0,0,1-.31882.36736.54656.54656,0,0,1-.58389-.00419,1.67727,1.67727,0,0,1-.34019-.31555,3.49645,3.49645,0,0,1-.3198-.46635,3.24784,3.24784,0,0,1-.20146-.4146,1.69826,1.69826,0,0,1-.105-.40078.72734.72734,0,0,1,.03342-.4238.65709.65709,0,0,1,.27508-.2789.5507.5507,0,0,1,.34316-.08436.87264.87264,0,0,1,.38773.168l.3693-.466a1.403,1.403,0,0,0-.7027-.3085,1.15884,1.15884,0,0,0-.69306.17893,1.344,1.344,0,0,0-.422.36374,1.07016,1.07016,0,0,0-.188.46251,1.44756,1.44756,0,0,0-.0019.33607,2.32627,2.32627,0,0,0,.06686.37855,4.08333,4.08333,0,0,0,.13416.39657,3.3973,3.3973,0,0,0,.19251.38816,3.606,3.606,0,0,0,.38329.54347,2.55692,2.55692,0,0,0,.43832.39793,1.188,1.188,0,0,0,.61952.23012,1.26816,1.26816,0,0,0,.66242-.19916,1.214,1.214,0,0,0,.35913-.30847,1.105,1.105,0,0,0,.19718-.39194,1.185,1.185,0,0,0,.02521-.438,1.214,1.214,0,0,0-.15678-.44671Z" /></g></svg>