<svg xmlns="http://www.w3.org/2000/svg" viewBox="0 0 40 40"><g id="EA45_flag_dominikanischerepublik"><rect y="7" width="40" height="26" fill="#fff" /><rect y="7" width="17.33333" height="10.4" fill="#002d62" /><rect y="22.6" width="17.33333" height="10.4" fill="#ce1126" /><rect x="22.66667" y="22.6" width="17.33333" height="10.4" fill="#002d62" /><rect x="22.66667" y="7" width="17.33333" height="10.4" fill="#ce1126" /><path d="M18.912,18.65813c.00278.01846.00139,1.5692.00139,1.72967a.51985.51985,0,0,0,.07473.34783.46765.46765,0,0,0,.2592.1762,3.923,3.923,0,0,0,.41464.00852c.19776-.00926.22136.03472.29621.1326.0851-.1374.17868-.13944.35357-.1326a2.48676,2.48676,0,0,0,.359-.00994.40113.40113,0,0,0,.22959-.14343.57585.57585,0,0,0,.09461-.409V18.72333c0-.07385-.00835-.05539.02922-.09373l.24627-.25848-2.63117.00142.27271.28545Z" fill="#fff" /><path d="M19.73376,19.86432h-.82342l-.00241.66569a.41964.41964,0,0,0,.44514.38879c.13048.00137.17488-.0009.38068-.00235Z" fill="#ce1126" /><path d="M20.16981,19.42784V18.37107h1.10874l-.28292.30328v.75349Z" fill="#ce1126" /><path d="M20.16981,19.86432h.82851l-.00269.66569a.41171.41171,0,0,1-.44514.38879l-.38068-.00235Z" fill="#002d62" /><path d="M19.91125,18.63083v.11831h-.11937v.10008h.11937v.42353h.09827v-.42353h.12088v-.10008h-.12088v-.11831Z" fill="#eac102" /><path d="M19.22688,18.78656l.00128.19328-.08149-.08235.01194,1.36235a.32862.32862,0,1,0,.65323.00427l-.01323-.70144-.08789-.09088-.00128-.07168Z" fill="#fff" /><path d="M19.13239,19.86432a2.37236,2.37236,0,0,0,.3521.33684c.04265.34426.24312.2299.31536.17621a.34863.34863,0,0,1-.3253.27941.3653.3653,0,0,1-.33859-.3871Z" fill="#ce1126" /><polygon points="19.734 18.371 18.646 18.371 18.916 18.656 18.918 19.428 19.134 19.428 19.136 19.668 19.505 20.016 19.507 19.428 19.734 19.428 19.734 18.371" fill="#002d62" /><path d="M19.79947,19.56992l.0093.48819a.113.113,0,0,1-.15227.04319l.00324-.67375Z" fill="#ce1126" /><path d="M19.79861,19.46709l-.03067.01666-.61445-.7971.02759-.02066Z" fill="#eac102" /><path d="M19.81483,19.58869l-.69888-.72128.02512-.02371.70238.72491Z" fill="#eac102" /><path d="M20.69875,18.78656l-.00128.19328.0815-.08235-.012,1.36235a.32862.32862,0,1,1-.65323.00427l.01323-.70144.08789-.09088.00128-.07168Z" fill="#fff" /><path d="M20.69875,18.76586l-.00128.19894.0815-.08464-.00683.79358-.352.34247-.00256-.75954.01323-.01527v-.12783Z" fill="#002d62" /><path d="M20.31945,19.27509l-.10343.13137-.00068.04458.10437-.1071Z" fill="#ce1126" /><path d="M20.12617,19.56992l-.0093.48819a.113.113,0,0,0,.15227.04319l-.00325-.67375Z" fill="#ce1126" /><path d="M20.77,19.88139a2.27642,2.27642,0,0,1-.33984.32009c-.04117.32716-.23466.21848-.30438.16746a.335.335,0,0,0,.314.26553.34917.34917,0,0,0,.32681-.36787Z" fill="#ce1126" /><path d="M20.127,19.46709l.03068.01666.61444-.7971-.02759-.02066Z" fill="#eac102" /><path d="M20.11081,19.58869l.69888-.72128-.02513-.02371-.70238.72491Z" fill="#eac102" /><path d="M20.104,20.14093c-.01709-.14447-.031-.238-.031-.238l-.21289.14215v.00055c-.01758.01087-.0354.0213-.04053.0235-.0022.0127-.00659.06488-.00806.09979a.22157.22157,0,0,1-.17187.08759s.04443.147.2041.0484l-.01953.31549.00049-.00024-.00147.0058c-.01513.09887.08374.08435.08374.08435.0918-.00135.09009-.087.08472-.12525.02075.00629.03662.01251.03662.01251.14575.0326.10938-.13385.10938-.13385-.00489-.05413-.00977-.10034-.01465-.14837a.10941.10941,0,0,0,.16308-.05884A.20569.20569,0,0,1,20.104,20.14093Z" fill="#002d62" /><path d="M19.9546,20.01764l-.02706.4311c-.02733-.00242-.08006-.00683-.084-.04186-.00224-.0198.05386-.37256.056-.40688.01862.00517.03811.01379.05508.01765Z" fill="#ce1126" /><path d="M19.805,20.044l.58441-.37633-.04494-.07192-.29277-.39779-.21171.171-.27028.14975L19.5221,19.489l.00951.06351Z" stroke="#000" stroke-width="0.00207" /><path d="M19.837,19.37152c-.08645-.04093-.18685.0882-.21577.11384s-.08708.01025-.08708.01025l.26364.473c.07778.03073.128-.06893.16408-.09976a.22289.22289,0,0,1,.14408-.05219Z" fill="#fff" /><path d="M19.84469,19.37621c.00026-.10146.12594-.13378.1595-.15178s.04406-.08131.04406-.08131l.29558.45068c-.00541.08882-.11058.09764-.15148.12059a.16441.16441,0,0,0-.08523.107Z" fill="#fff" stroke="#000" stroke-width="0.00788" /><path d="M22.14087,18.27631l-.01025-.01014a2.08858,2.08858,0,0,0-.54615-.24383c.0293-.03742.07276-.10437.02808-.15558a1.23287,1.23287,0,0,0-.28394-.16522,1.92129,1.92129,0,0,0-.384-.10254c-.11963-.0202-.37134-.03717-.39819-.03894a.62242.62242,0,0,0,.01025-.07172c.00342-.08923-.04712-.11578-.12622-.13165a2.79188,2.79188,0,0,0-.491-.02344,3.17381,3.17381,0,0,0-.48486.02722.14316.14316,0,0,0-.10352.15131c.00049.00909.00586.03137.00855.04755a1.91916,1.91916,0,0,0-.77075.14428,1.12485,1.12485,0,0,0-.28076.16462c-.04639.04718-.00074.11505.02636.15112a2.12414,2.12414,0,0,0-.54834.24939l-.01025.01013c.07471-.00439.16968-.01135.24243-.01013-.02368.03607-.11865.17346-.12573.195a1.50158,1.50158,0,0,1,.20239-.11017c.16333-.07025.42407-.0766.5791-.20447.05908-.049.00733-.164.00733-.164a1.70985,1.70985,0,0,1,.33081-.1106,1.48885,1.48885,0,0,1,.398-.01452.94841.94841,0,0,0,.19848.00439.28811.28811,0,0,0,.08179-.03082c.01978-.0174-.0061-.20789-.0061-.20789.09668-.00781.19555-.01007.27465-.01007.09278.00055.1836.00159.2754.00757l-.01832.09082-.0122.05859c-.01148.07215.04492.08216.10864.09168a3.68743,3.68743,0,0,1,.592.00946,1.76012,1.76012,0,0,1,.31958.09936l.02588.012a.32967.32967,0,0,0-.03247.0329l-.00122-.00031-.02881.03741c-.0083.03608-.01123.03638.05518.09144.155.12786.416.13421.5791.20446a1.50331,1.50331,0,0,1,.20239.11017c-.00708-.02154-.10205-.15887-.12573-.195C21.97119,18.265,22.06616,18.27191,22.14087,18.27631Z" fill="#002d62" /><path d="M19.37195,21.66571c.032.011.24353.24149.28248.25108l-.21562.08906a.04624.04624,0,0,0-.00834.08907.24458.24458,0,0,0,.12242-.02878c.10711-.04932.38672-.22061.40063-.21787l.38116.21649c.02782.01234.08346.048.11407.026.01252-.00822.032-.02741.025-.04933-.00557-.02329-.02087-.0274-.03895-.03425-.02922-.01234-.20171-.09044-.20728-.09044l.26709-.24253c-.00083-.10893-.89007-.1767-1.12268-.00855Z" fill="#006300" /><path d="M21.29152,18.49984c-.00281.00432-.20369.295-.20369.295s.1351,1.75091.13229,1.73652c-.01124.00432-.50568.71771-.55624.8069-.02968-.00087-.00637.00208.00669.0031l-.007-.00206c.02061.00285.0156.00274.007.00206.04192.01058.75734.07045.77.06038-.04073-.023.395-.246.395-.246l.53082-.86592s-.00831-.9078.01838-.92219c-.02529-.02589-.46093-.6689-.46093-.6689s-.58161-.16137-.63218-.19733Z" fill="#006300" /><path d="M19.2085,21.056c-.02491.00665-.51416-.08-.46045-.31232l-.08252-1.46862c-.20414-.02146-.05567-.42023-.03809-.541,0,0-.26185-.18475-.38916-.094,0,0-.53516.61395-.55737.63794,0,0-.10327.88745-.07959.94732.10254.108.76688,1.10956.85254,1.14911l.44262.04456a2.18508,2.18508,0,0,1,.29688-.064A.46188.46188,0,0,0,19.2085,21.056Z" fill="#006300" /><path d="M20.55933,21.78131a1.1191,1.1191,0,0,1-.13648-.03058l-.114-.03546a.20687.20687,0,0,0-.01831-.05524c-.02515-.02887-.17066.01758-.17066.01758-.0979.04639-.104.02637-.104.02637-.00171-.01935-.00684-.03552-.02979-.03772a.65642.65642,0,0,0-.10254.00543c-.02929.00519-.041.016-.04614.02881a.88518.88518,0,0,1-.11889-.0304c-.10913-.04144-.12671-.01635-.12671-.01635a.10113.10113,0,0,0-.0271.07959l-.11084.03406a1.13816,1.13816,0,0,1-.13819.03057l.10328.04914-.05884.10638c.04077-.00635.17944-.04968.23706-.06671a.17528.17528,0,0,0,.0625.06177.62369.62369,0,0,0,.2019-.07147l.002.0003c.002.004-.001.01074.00415.01276a.35229.35229,0,0,0,.106-.00177.06361.06361,0,0,0,.05054-.01789.5177.5177,0,0,0,.18359.07556c.084-.00445.09229-.05737.09375-.06982.06372.01929.177.05481.21387.06061l-.05786-.10632Z" fill="#ce1126" /><path d="M22.146,21.098c-.031.01312-.08985.05841-.106.06427.00854-.03869.01831-.07794.02783-.11688.00733-.038.019-.08765.0249-.12415-.03955.04529-.12939.14606-.16479.18842a.66574.66574,0,0,0-.10278.19.38643.38643,0,0,0-.04786-.05121c-.04419-.02624-.10595.01026-.137.0351a2.3864,2.3864,0,0,0-.24048.321,1.2594,1.2594,0,0,0-.37329-.1679,4.276,4.276,0,0,0-2.11279-.00147,1.29589,1.29589,0,0,0-.37525.16742,2.37808,2.37808,0,0,0-.24023-.32336c-.031-.02485-.09277-.06134-.13721-.0351a.37774.37774,0,0,0-.04345.04669.64043.64043,0,0,0-.10669-.18591c-.0354-.04236-.12525-.14313-.1648-.18842.00586.03656.01758.08619.0249.12415.00586.02631.02662.09643.02808.11688-.01636-.00586-.0752-.05115-.1062-.06427l-.12964-.04382c.01782.02191.0354.035.0708.07886a1.6337,1.6337,0,0,1,.14722.31555,2.4521,2.4521,0,0,0,.20923.25122c.04516.03766.09277.043.1184.01178.01221-.00684.02491-.05469.02466-.06049a1.1994,1.1994,0,0,0,.20313.30481.35293.35293,0,0,0,.12964.10517.36943.36943,0,0,0,.20459.02624.44211.44211,0,0,0,.177-.05841l.12182-.18524-.03027-.07678c.052-.017.10034-.03333.17188-.05237a2.62718,2.62718,0,0,1,.35815-.06714,1.46261,1.46261,0,0,1,.187-.01758,3.34632,3.34632,0,0,1,.41846,0,1.19534,1.19534,0,0,1,.187.01758,2.65085,2.65085,0,0,1,.36255.06714c.08227.02105.15015.04217.217.06537,0,0-.04883.1065-.05127.11889a.18734.18734,0,0,0,.02.0755.39326.39326,0,0,0,.08032.0589.441.441,0,0,0,.17676.05841.369.369,0,0,0,.20459-.02624.356.356,0,0,0,.12988-.10523,1.13161,1.13161,0,0,0,.187-.27392c.002.00287.11426.05591.15943.01831a1.4595,1.4595,0,0,0,.11645-.11542.84091.84091,0,0,0,.09278-.1358,1.63142,1.63142,0,0,1,.14721-.31555c.0354-.04383.053-.057.0708-.07886Z" fill="#ce1126" /><path d="M18.7516,21.58977a3.17884,3.17884,0,0,1,1.13194-.23139l.04976.175a5.58431,5.58431,0,0,0-1.11466.21369Z" fill="#eac102" /><path d="M19.99882,21.37391l.00425.15747a3.50883,3.50883,0,0,1,1.12075.23672l.00085-.17893A3.02107,3.02107,0,0,0,19.99882,21.37391Z" fill="#eac102" /><path d="M19.58224,17.39773a2.59881,2.59881,0,0,1,.75513,0l.04173.18519a4.01131,4.01131,0,0,0-.783-.00856Z" fill="#eac102" /><path d="M20.62765,17.7911l-.00557-.17489s.69818-.06875.90963.324a.09776.09776,0,0,1-.0624.115A1.26289,1.26289,0,0,0,20.62765,17.7911Z" fill="#eac102" /><path d="M18.7431,17.88794l-.07757-.16636s.419-.16823.49508-.10447a.135.135,0,0,1,.02909.159A1.21815,1.21815,0,0,0,18.7431,17.88794Z" fill="#eac102" /></g></svg>