<svg xmlns="http://www.w3.org/2000/svg" viewBox="0 0 44 44"><g id="d0_t5_cc-fin_1p0_2p1014_1s0"><polygon id="Rahmen" points="28.158 22 40.873 14.659 42 10.453 37.794 9.326 22 18.444 6.206 9.326 2 10.453 3.127 14.659 15.842 22 3.127 29.341 2 33.547 6.206 34.674 22 25.556 37.794 34.674 42 33.547 40.873 29.341 28.158 22" fill="#e4002b" /><polygon id="Hintergrund" points="25.695 22 39.815 13.848 40.492 11.324 37.968 10.648 22 19.867 6.032 10.648 3.508 11.324 4.185 13.848 18.305 22 4.185 30.152 3.508 32.676 6.032 33.352 22 24.133 37.968 33.352 40.492 32.676 39.815 30.152 25.695 22" fill="#ffcd00" /></g></svg>