<svg xmlns="http://www.w3.org/2000/svg" id="Ebene_1" data-name="Ebene 1" viewBox="0 0 44 44"><defs><style>.cls-1{fill:#fff;}</style></defs><g id="Rahmen"><path class="cls-1" d="M6,2.6001H38.00049A3.3999,3.3999,0,0,1,41.40039,6V38A3.40039,3.40039,0,0,1,38,41.40039H6.00049A3.40039,3.40039,0,0,1,2.6001,38V6A3.3999,3.3999,0,0,1,6,2.6001Z" /><path d="M38,3.2A2.80317,2.80317,0,0,1,40.8,6V38A2.80317,2.80317,0,0,1,38,40.8H6A2.80317,2.80317,0,0,1,3.2,38V6A2.80317,2.80317,0,0,1,6,3.2H38M38,2H6A4,4,0,0,0,2,6V38a4,4,0,0,0,4,4H38a4,4,0,0,0,4-4V6a4,4,0,0,0-4-4Z" /></g><g id="V3"><g id="Rahmen-2" data-name="Rahmen"><path class="cls-1" d="M6,2.6001H38.00049A3.3999,3.3999,0,0,1,41.40039,6h0V38A3.40039,3.40039,0,0,1,38,41.40039H6.00049A3.40039,3.40039,0,0,1,2.6001,38h0V6A3.3999,3.3999,0,0,1,6,2.6001Z" /><path d="M38,3.2A2.80318,2.80318,0,0,1,40.8,6V38A2.80318,2.80318,0,0,1,38,40.8H6A2.80318,2.80318,0,0,1,3.2,38V6A2.80318,2.80318,0,0,1,6,3.2H38M38,2H6A4,4,0,0,0,2,6V38a4,4,0,0,0,4,4H38a4,4,0,0,0,4-4V6A4,4,0,0,0,38,2Z" /></g><path id="V1" d="M38.39581,18.58331A1.38426,1.38426,0,0,0,37.2821,18H34.48535a47.90886,47.90886,0,0,0-3.5166-4.563,4.07,4.07,0,0,0-2.77246-1.23535,34.5237,34.5237,0,0,0-4.02441-.27783c-.35547-.00733-.72071-.01465-1.17188-.03125l-2.03223.00049c-.41845.01611-.78466.02343-1.13916.03076a34.52385,34.52385,0,0,0-4.02441.27783A4.07,4.07,0,0,0,13.03076,13.438,47.85348,47.85348,0,0,0,9.51416,18H6.7179a1.38427,1.38427,0,0,0-1.11371.58331,3.813,3.813,0,0,0-.44513,1.3736.82693.82693,0,0,0,.85816.79447l.00262-.0001H7.75305a18.66168,18.66168,0,0,0-.52557,8.05158C7.253,29.00787,7.46259,29.82159,7.5,30v3a1,1,0,0,0,1,1H12a1,1,0,0,0,1-1V30H31v3a1,1,0,0,0,1,1h3.5a1,1,0,0,0,1-1V30c.03741-.17841.247-.99213.27252-1.19714a18.66168,18.66168,0,0,0-.52557-8.05158h1.73321a.82693.82693,0,0,0,.86067-.79175l.00011-.00262A3.813,3.813,0,0,0,38.39581,18.58331ZM21.99353,20H10.50862a47.33439,47.33439,0,0,1,3.78581-5.42529,2.43032,2.43032,0,0,1,1.71289-.68555,32.805,32.805,0,0,1,3.85547-.26562c.36426-.00733.73975-.01514,1.13721-.03077l1.96777-.00048c.42969.01611.80567.02392,1.16993.03125a32.81775,32.81775,0,0,1,3.85546.26562,2.43466,2.43466,0,0,1,1.71289.68555A47.32728,47.32728,0,0,1,33.49144,20Z" /><rect class="cls-1" x="9" y="23" width="7" height="2" rx="0.75" /><rect class="cls-1" x="27.96973" y="23" width="7" height="2" rx="0.75" /></g></svg>