<svg xmlns="http://www.w3.org/2000/svg" id="Ebene_1" data-name="Ebene 1" viewBox="0 0 44 44"><defs><style>.cls-1,.cls-2{fill:#fff;}.cls-2{stroke:red;stroke-miterlimit:10;stroke-width:3px;}</style></defs><g id="Hintergrund"><path class="cls-1" d="M6,2.6001H38.00049A3.3999,3.3999,0,0,1,41.40039,6V38A3.40039,3.40039,0,0,1,38,41.40039H6.00049A3.40039,3.40039,0,0,1,2.6001,38V6A3.3999,3.3999,0,0,1,6,2.6001Z" /><path class="cls-1" d="M38,3.2A2.80317,2.80317,0,0,1,40.8,6V38A2.80317,2.80317,0,0,1,38,40.8H6A2.80317,2.80317,0,0,1,3.2,38V6A2.80317,2.80317,0,0,1,6,3.2H38M38,2H6A4,4,0,0,0,2,6V38a4,4,0,0,0,4,4H38a4,4,0,0,0,4-4V6a4,4,0,0,0-4-4Z" /></g><polygon points="38 36 38 21 34 17 30 21 30 32 26 32 26 25 25 25 25 16 24 16 24 15 23 15 23 8 21 8 21 15 20 15 20 21 18 21 18 32 14 32 14 28 10 25 6 28 6 36 38 36" /><line class="cls-2" x1="4" y1="40" x2="40" y2="4" /><g id="Rahmen"><path d="M38,3.2A2.80317,2.80317,0,0,1,40.8,6V38A2.80317,2.80317,0,0,1,38,40.8H6A2.80317,2.80317,0,0,1,3.2,38V6A2.80317,2.80317,0,0,1,6,3.2H38M38,2H6A4,4,0,0,0,2,6V38a4,4,0,0,0,4,4H38a4,4,0,0,0,4-4V6a4,4,0,0,0-4-4Z" /></g></svg>