<svg xmlns="http://www.w3.org/2000/svg" id="Ebene_1" data-name="Ebene 1" viewBox="0 0 44 44"><defs><style>.cls-1{fill:#fff;}</style></defs><g id="Rahmen"><path class="cls-1" d="M6,2.6001H38.00049A3.3999,3.3999,0,0,1,41.40039,6V38A3.40039,3.40039,0,0,1,38,41.40039H6.00049A3.40039,3.40039,0,0,1,2.6001,38V6A3.3999,3.3999,0,0,1,6,2.6001Z" /><path d="M38,3.2A2.80317,2.80317,0,0,1,40.8,6V38A2.80317,2.80317,0,0,1,38,40.8H6A2.80317,2.80317,0,0,1,3.2,38V6A2.80317,2.80317,0,0,1,6,3.2H38M38,2H6A4,4,0,0,0,2,6V38a4,4,0,0,0,4,4H38a4,4,0,0,0,4-4V6a4,4,0,0,0-4-4Z" /></g><polygon points="6 18 6 20 8 20 8 22 11 22 11 20 33 20 33 22 36 22 36 20 38 20 38 18 6 18" /><polygon points="30.094 17 27 6 23 6 23 17 30.094 17" /><polygon points="23 21 23 38 36 38 31.219 21 23 21" /><polygon points="21 17 21 6 17 6 13.906 17 21 17" /><polygon points="12.781 21 8 38 21 38 21 21 12.781 21" /></svg>