<?xml version="1.0" encoding="UTF-8"?>
<svg id="Ebene_1" data-name="Ebene 1" xmlns="http://www.w3.org/2000/svg" viewBox="0 0 44 44">
  <defs>
    <style>
      .cls-1 {
        fill: #fe3;
      }
    </style>
  </defs>
  <path class="cls-1" d="M3.56145,39.67187c-.21241-.00101-.42785-.05853-.61705-.1665-.60292-.34409-.81331-1.11502-.46922-1.71945L20.86547,5.86149c.1115-.19425,.27245-.35519,.46569-.46619,.19374-.1115,.40413-.16751,.62562-.16751,.45156,0,.87133,.24268,1.09585,.63319l17.96547,31.1873,.41473,.73662c.10797,.18971,.16448,.40363,.16549,.62058,.00101,.33804-.12815,.65489-.36528,.89404-.23713,.23814-.55297,.37033-.88899,.37235H3.56145Z"/>
  <path d="M40.37754,39.96097H3.59253c-.88452,.00604-1.60645-.70611-1.61249-1.59062-.00196-.28688,.07318-.56902,.21755-.81694L20.5901,5.62484c.43963-.76755,1.41824-1.03338,2.18579-.59375,.2472,.14159,.45217,.34655,.59375,.59375l18.39251,31.92857c.44514,.76436,.18636,1.74486-.578,2.19001-.24791,.14438-.53005,.21951-.81694,.21755h.01033Zm-33.99514-3.21352h31.20527L21.98503,9.572,6.3824,36.74745Z"/>
  <path d="M14.76574,25.61796c.26449-.56516,.8331-.92529,1.45709-.92282h7.96747l-3.62721-4.41259,2.48015-2.03579,6.00402,7.29576c.56503,.68067,.47129,1.6905-.20938,2.25554-.28952,.24034-.65442,.37107-1.03069,.36928h-7.93647l3.78222,4.55727-2.46981,2.04612-6.19003-7.45077c-.39768-.47771-.48308-1.14237-.21908-1.7051l-.00826,.0031Z"/>
</svg>