<?xml version="1.0" encoding="UTF-8"?>
<svg id="Ebene_1" data-name="Ebene 1" xmlns="http://www.w3.org/2000/svg" xmlns:xlink="http://www.w3.org/1999/xlink" viewBox="0 0 53 44">
  <defs>
    <style>
      .cls-1 {
        fill: url(#Unbenannter_Verlauf_9-7);
      }

      .cls-2 {
        fill: #fff;
      }

      .cls-3 {
        fill: url(#Unbenannter_Verlauf_9-3);
      }

      .cls-4 {
        fill: url(#Unbenannter_Verlauf_9-2);
      }

      .cls-5 {
        fill: url(#Rahmen_rot);
      }

      .cls-6 {
        fill: url(#Unbenannter_Verlauf_9-8);
      }

      .cls-7 {
        fill: url(#Beschriftung_schwarz);
      }

      .cls-8 {
        fill: url(#Unbenannter_Verlauf_9-6);
      }

      .cls-9 {
        fill: url(#Unbenannter_Verlauf_9-4);
      }

      .cls-10 {
        fill: url(#Hintergrund_weiss-2);
      }

      .cls-11 {
        fill: url(#Hintergrund_weiss);
      }

      .cls-12 {
        fill: url(#Unbenannter_Verlauf_9-5);
      }

      .cls-13 {
        fill: url(#Rahmen_rot-2);
      }

      .cls-14 {
        fill: url(#Unbenannter_Verlauf_9-9);
      }

      .cls-15 {
        fill: url(#Unbenannter_Verlauf_9);
      }
    </style>
    <linearGradient id="Hintergrund_weiss" x1="2" y1="-222" x2="42" y2="-222" gradientTransform="translate(0 -200) scale(1 -1)" gradientUnits="userSpaceOnUse">
      <stop offset="1" stop-color="#fff"/>
      <stop offset="1" stop-color="#000"/>
    </linearGradient>
    <linearGradient id="Rahmen_rot" x1="3.1" y1="-221.99" x2="40.9" y2="-221.99" gradientTransform="translate(0 -200) scale(1 -1)" gradientUnits="userSpaceOnUse">
      <stop offset="1" stop-color="#e52421"/>
      <stop offset="1" stop-color="#000"/>
    </linearGradient>
    <linearGradient id="Unbenannter_Verlauf_9" data-name="Unbenannter Verlauf 9" x1="15.47162" y1="-225.78873" x2="18.01134" y2="-225.78873" gradientTransform="translate(0 -200) scale(1 -1)" gradientUnits="userSpaceOnUse">
      <stop offset="0" stop-color="#010101"/>
      <stop offset="0" stop-color="#000"/>
    </linearGradient>
    <linearGradient id="Unbenannter_Verlauf_9-2" data-name="Unbenannter Verlauf 9" x1="13.8768" y1="-222.39401" x2="30.05144" y2="-222.39401" xlink:href="#Unbenannter_Verlauf_9"/>
    <linearGradient id="Unbenannter_Verlauf_9-3" data-name="Unbenannter Verlauf 9" x1="24.7588" y1="-225.78856" x2="27.29852" y2="-225.78856" xlink:href="#Unbenannter_Verlauf_9"/>
    <linearGradient id="Unbenannter_Verlauf_9-4" data-name="Unbenannter Verlauf 9" x1="17.88813" y1="-221.75224" x2="18.56533" y2="-221.75224" xlink:href="#Unbenannter_Verlauf_9"/>
    <linearGradient id="Unbenannter_Verlauf_9-5" data-name="Unbenannter Verlauf 9" x1="20.59717" y1="-221.7522" x2="21.27437" y2="-221.7522" xlink:href="#Unbenannter_Verlauf_9"/>
    <linearGradient id="Unbenannter_Verlauf_9-6" data-name="Unbenannter Verlauf 9" x1="23.3062" y1="-221.75215" x2="23.9834" y2="-221.75215" xlink:href="#Unbenannter_Verlauf_9"/>
    <linearGradient id="Unbenannter_Verlauf_9-7" data-name="Unbenannter Verlauf 9" x1="26.01524" y1="-221.7521" x2="26.69244" y2="-221.7521" xlink:href="#Unbenannter_Verlauf_9"/>
    <linearGradient id="Unbenannter_Verlauf_9-8" data-name="Unbenannter Verlauf 9" x1="30.09662" y1="-220.55725" x2="34.14905" y2="-220.55725" xlink:href="#Unbenannter_Verlauf_9"/>
    <linearGradient id="Unbenannter_Verlauf_9-9" data-name="Unbenannter Verlauf 9" x1="9.84095" y1="-220.55725" x2="13.89257" y2="-220.55725" xlink:href="#Unbenannter_Verlauf_9"/>
    <linearGradient id="Hintergrund_weiss-2" data-name="Hintergrund_weiss" x1="31.00566" y1="11.00709" x2="53.00566" y2="11.00709" gradientTransform="matrix(1,0,0,1,0,0)" xlink:href="#Hintergrund_weiss"/>
    <linearGradient id="Beschriftung_schwarz" x1="35.24798" y1="829.99503" x2="48.61247" y2="829.99503" gradientTransform="translate(0 -818.61422)" gradientUnits="userSpaceOnUse">
      <stop offset="1" stop-color="#000"/>
      <stop offset="1" stop-color="#010101"/>
    </linearGradient>
    <linearGradient id="Rahmen_rot-2" data-name="Rahmen_rot" x1="32.00566" y1="-211.00709" x2="52.00566" y2="-211.00709" xlink:href="#Rahmen_rot"/>
  </defs>
  <circle class="cls-11" cx="22" cy="22" r="20"/>
  <path class="cls-5" d="m22,3.09C11.56182,3.09,3.1,11.55182,3.1,21.99s8.46182,18.9,18.9,18.9,18.9-8.46182,18.9-18.9S32.43818,3.09,22,3.09Zm0,32.9c-7.73199,0-14-6.26801-14-14s6.26801-14,14-14,14,6.26801,14,14-6.26801,14-14,14Z"/>
  <circle class="cls-15" cx="16.74148" cy="25.78873" r="1.26986"/>
  <path class="cls-4" d="m16.7417,23.78082c1.04396.00323,1.91058.80736,1.99179,1.84816l5.30357-.00008c.08256-1.10004,1.04125-1.92486,2.14129-1.8423.98519.07394,1.76831.85703,1.84229,1.84221l2.03079-.00004-.00002-4.4381c-.0033-1.12076-.91106-2.02849-2.03182-2.03175l-12.11106.00027c-1.12076.0033-2.02848.91105-2.03175,2.03181l.00006,4.4381h.87303c.08115-1.04086.9478-1.84505,1.99181-1.84828Z"/>
  <circle class="cls-3" cx="26.02866" cy="25.78856" r="1.26986"/>
  <path class="cls-2" d="m29.03564,23.19115l-.00032-2.00047c-.00173-.56031-.45557-1.01409-1.01589-1.01574h-12.11078c-.56038.00164-1.01425.45551-1.01589,1.01589v2.00054l14.14287-.00023Z"/>
  <rect class="cls-9" x="17.88813" y="19.96427" width=".6772" height="3.57594"/>
  <rect class="cls-12" x="20.59717" y="19.96423" width=".6772" height="3.57594"/>
  <rect class="cls-8" x="23.3062" y="19.96418" width=".6772" height="3.57594"/>
  <rect class="cls-1" x="26.01524" y="19.96413" width=".6772" height="3.57594"/>
  <polygon class="cls-6" points="34.14905 26.99594 30.90743 14.11856 30.09662 14.11856 32.525 26.99594 34.14905 26.99594"/>
  <polygon class="cls-14" points="11.46176 26.99675 13.89257 14.11775 13.08176 14.11775 9.84095 26.99675 11.46176 26.99675"/>
  <path class="cls-10" d="m42.00547.00709c-6.07513.0001-10.99992,4.92506-10.99981,11.00019.0001,6.07513,4.92506,10.99992,11.00019,10.99981,6.07513-.0001,10.99992-4.92506,10.99981-11.00019-.0001-6.07513-4.92506-10.99992-11.00019-10.99981h0Z"/>
  <path class="cls-7" d="m45.19265,7.89343l-9.94467,2.20493,5.08483,3.32988,5.8048-2.65491-.94496-2.8799Zm2.60991,3.46488l-2.06993,1.66495-.585-1.215-1.26.63,1.66495,2.42992,3.05989-2.78991-.80991-.71995Z"/>
  <path class="cls-13" d="m42.00566,1.00709c-5.52285,0-10,4.47715-10,10s4.47715,10,10,10,10-4.47715,10-10S47.5285,1.00709,42.00566,1.00709Zm0,17.5122c-4.14887,0-7.5122-3.36332-7.5122-7.5122s3.36332-7.5122,7.5122-7.5122,7.5122,3.36332,7.5122,7.5122-3.36332,7.5122-7.5122,7.5122Z"/>
</svg>