<?xml version="1.0" encoding="UTF-8"?>
<svg id="Ebene_1" data-name="Ebene 1" xmlns="http://www.w3.org/2000/svg" xmlns:xlink="http://www.w3.org/1999/xlink" viewBox="0 0 53 44">
  <defs>
    <style>
      .cls-1 {
        fill: url(#Rahmen_rot);
      }

      .cls-2 {
        fill: url(#Beschriftung_schwarz);
      }

      .cls-3 {
        fill: url(#Hintergrund_weiss-2);
      }

      .cls-4 {
        fill: url(#Hintergrund_weiss);
      }

      .cls-5 {
        fill: url(#Rahmen_rot-2);
      }
    </style>
    <linearGradient id="Hintergrund_weiss" x1="2" y1="-222" x2="42" y2="-222" gradientTransform="translate(0 -200) scale(1 -1)" gradientUnits="userSpaceOnUse">
      <stop offset="1" stop-color="#fff"/>
      <stop offset="1" stop-color="#000"/>
    </linearGradient>
    <linearGradient id="Rahmen_rot" x1="3.1" y1="-221.99" x2="40.9" y2="-221.99" gradientTransform="translate(0 -200) scale(1 -1)" gradientUnits="userSpaceOnUse">
      <stop offset="1" stop-color="#e52421"/>
      <stop offset="1" stop-color="#000"/>
    </linearGradient>
    <linearGradient id="Hintergrund_weiss-2" data-name="Hintergrund_weiss" x1="31.00566" y1="11.00709" x2="53.00566" y2="11.00709" gradientTransform="matrix(1,0,0,1,0,0)" xlink:href="#Hintergrund_weiss"/>
    <linearGradient id="Beschriftung_schwarz" x1="35.24798" y1="829.99503" x2="48.61247" y2="829.99503" gradientTransform="translate(0 -818.61422)" gradientUnits="userSpaceOnUse">
      <stop offset="1" stop-color="#000"/>
      <stop offset="1" stop-color="#010101"/>
    </linearGradient>
    <linearGradient id="Rahmen_rot-2" data-name="Rahmen_rot" x1="32.00566" y1="-211.00709" x2="52.00566" y2="-211.00709" xlink:href="#Rahmen_rot"/>
  </defs>
  <circle class="cls-4" cx="22" cy="22" r="20"/>
  <path class="cls-1" d="m22,3.09C11.56182,3.09,3.1,11.55182,3.1,21.99s8.46182,18.9,18.9,18.9,18.9-8.46182,18.9-18.9S32.43818,3.09,22,3.09Zm0,32.9c-7.73199,0-14-6.26801-14-14s6.26801-14,14-14,14,6.26801,14,14-6.26801,14-14,14Z"/>
  <path d="m10.315,19.67443c.60363.56078,1.14143,1.07491,1.6134,1.5424-.1047.12494-.2882.35827-.55049.70001-.46623-.5426-.97989-1.04258-1.53487-1.49401.186-.23019.3444-.48137.47197-.7484Zm2.47879,3.17761c-.18403.40533-.45954,1.0518-.82653,1.9394-.36726.88761-.66868,1.58061-.90426,2.07901-.26234-.19124-.53832-.36303-.82573-.514.45763-.68885.83978-1.42496,1.13985-2.19561.2612-.52001.45932-1.06937.59015-1.6364.2511.16285.53205.27421.82653.3276Zm-1.53408-6.26124c.26176.31134.73399.79414,1.41669,1.44841-.26256.31172-.44633.54546-.55129.7012-.65598-.68533-1.12821-1.16813-1.41668-1.4484.23638-.31173.42014-.54547.55128-.70121Zm4.35236,2.43756c-.09663.87707-.14693,1.75863-.15071,2.641.01461,1.12049-.20758,2.23143-.65203,3.26011-.45664.8938-1.08809,1.68682-1.85691,2.33204-.17614-.23312-.39835-.42752-.65281-.57112.6973-.50163,1.26483-1.16242,1.65543-1.92747.44327-.95443.67438-1.9936.67742-3.04594.05571-.92739.0475-1.85752-.02459-2.78378.26809.0321.60282.06382,1.00419.09516Zm1.50552-1.85612c0,.28556-.01746.73016-.04997,1.3326v3.33109c0,.57111.01666,1.12636.04997,1.66575h-.8535v-5.66315h-2.40899v5.75833h-.8535c.03412-.60285.05104-1.18983.05077-1.76096v-3.33107c0-.25342-.01692-.69762-.05077-1.3326h4.11598Zm-1.10416,6.85295c.6552.68445,1.25914,1.41618,1.80694,2.18927-.27176.16121-.5243.35281-.75275.57111-.48452-.79186-1.05717-1.52629-1.707-2.18924.20066-.15866.41826-.34904.65281-.57114Zm2.82701-4.25678v3.15183c0,.67979.01587,1.18983.0476,1.53011h-.95186c.03094-.37123.04681-.88126.0476-1.53011v-3.05902c0-.61791-.01587-1.17435-.0476-1.66932h.95186c-.03252.49497-.04839,1.02047-.0476,1.57651Zm1.76096-1.15967v7.69535c.02935.25158-.09178.49695-.30935.62664-.40517.16549-.82852.28238-1.26121.34822-.04585-.37329-.1941-.72662-.42834-1.02086.3168.03696.63722.02922.95186-.023.15784-.0468.23799-.19354.23799-.44024v-6.90769c0-.83445-.01587-1.62251-.0476-2.36417h.90427c-.03255.71111-.04844,1.40636-.04765,2.08575h.00002Z"/>
  <path d="m23.14284,20.6362h1.63878c-.0333.44896-.0476.88086-.0476,1.2965v3.0269c.67423.76862,2.01529,1.18479,4.02318,1.24852,1.55303.08567,3.11071.02138,4.6514-.19197-.22443.3493-.37256.74207-.43469,1.15258-1.34845-.03252-2.48063-.06452-3.39654-.09598-.91695-.03252-1.74454-.09651-2.48276-.19196-.6954-.08084-1.36325-.31901-1.95288-.69644-.39463-.36318-.99205-.39351-1.42144-.07218-.37059.30355-.69498.65948-.96295,1.05656-.19492-.28705-.46081-.51878-.7718-.67264.5485-.59596,1.16295-1.12766,1.83153-1.58485v-3.41084h-.81939l-.77022.04759v-.95939l.91537.04759Zm.24113-3.84232c.86619,1.21639,1.39605,1.98475,1.58957,2.30508-.22526.16063-.51452.35272-.86777.57628-.44094-.81903-.93981-1.60553-1.49283-2.35347.28797-.19195.54574-.36725.77103-.52788Zm5.3177.54058c.00284-.39407-.01464-.78803-.05236-1.1803h.95186c-.03649.37321-.05447.7874-.05394,1.24257h1.90213c.42357,0,.88048-.02062,1.37543-.06227v.93165c-.49497-.04085-.95186-.06187-1.37543-.06187h-1.95448v.86936h2.90634c-.0349.45611-.05235.9323-.05236,1.42858,0,.4561.01745.93242.05236,1.42897h-2.90634c0,1.77997.01745,3.04302.05235,3.78915h-.89792c.03491-.74565.05236-1.86381.05236-3.35449-.34096.52444-.72064,1.02265-1.13588,1.49048-.43713.48486-.92422.92223-1.45316,1.30483-.26025-.25847-.56426-.46875-.89792-.62109.6276-.25158,1.18848-.64495,1.63878-1.14933.43188-.42352.78909-.91697,1.05656-1.45951h-2.0084c.03491-.57944.05236-1.07627.05236-1.49048,0-.4553-.01745-.91101-.05236-1.36711h2.80004v-.86938h-1.90213c-.45689,0-.93229.02062-1.4262.06187v-.99349c.49338.04164.96878.06226,1.4262.06187h1.90211Zm0,3.78958v-1.1803h-1.90213v1.18031h1.90213Zm2.80163,0v-1.1803h-2.00842v1.18031h2.00842Zm1.37384,2.85676c-.21099.28952-.40612.57983-.58221.87015-.59809-.53859-1.31991-1.15994-2.16546-1.86406.1745-.20623.35218-.43468.52828-.68296.31728.24828,1.05708.80724,2.21939,1.67686Z"/>
  <path class="cls-3" d="m42.00547.00709c-6.07513.0001-10.99992,4.92506-10.99981,11.00019.0001,6.07513,4.92506,10.99992,11.00019,10.99981,6.07513-.0001,10.99992-4.92506,10.99981-11.00019-.0001-6.07513-4.92506-10.99992-11.00019-10.99981h0Z"/>
  <path class="cls-2" d="m45.19265,7.89343l-9.94467,2.20493,5.08483,3.32988,5.8048-2.65491-.94496-2.8799Zm2.60991,3.46488l-2.06993,1.66495-.585-1.215-1.26.63,1.66495,2.42992,3.05989-2.78991-.80991-.71995Z"/>
  <path class="cls-5" d="m42.00566,1.00709c-5.52285,0-10,4.47715-10,10s4.47715,10,10,10,10-4.47715,10-10S47.5285,1.00709,42.00566,1.00709Zm0,17.5122c-4.14887,0-7.5122-3.36332-7.5122-7.5122s3.36332-7.5122,7.5122-7.5122,7.5122,3.36332,7.5122,7.5122-3.36332,7.5122-7.5122,7.5122Z"/>
</svg>