<?xml version="1.0" encoding="UTF-8"?>
<svg id="Ebene_1" data-name="Ebene 1" xmlns="http://www.w3.org/2000/svg" viewBox="0 0 44 44">
  <defs>
    <style>
      .cls-1 {
        fill: #fe3;
      }
    </style>
  </defs>
  <path class="cls-1" d="M3.56145,39.67187c-.21241-.00101-.42785-.05853-.61705-.1665-.60292-.34409-.81331-1.11502-.46922-1.71945L20.86547,5.86149c.1115-.19425,.27245-.35519,.46569-.46619,.19374-.1115,.40413-.16751,.62562-.16751,.45156,0,.87133,.24268,1.09585,.63319l17.96547,31.1873,.41473,.73662c.10797,.18971,.16448,.40363,.16549,.62058,.00101,.33804-.12815,.65489-.36528,.89404-.23713,.23814-.55297,.37033-.88899,.37235H3.56145Z"/>
  <path d="M40.37754,39.96097H3.59253c-.88452,.00604-1.60645-.70611-1.61249-1.59062-.00196-.28688,.07318-.56902,.21755-.81694L20.5901,5.62484c.43963-.76755,1.41824-1.03338,2.18579-.59375,.2472,.14159,.45217,.34655,.59375,.59375l18.39251,31.92857c.44514,.76436,.18636,1.74486-.578,2.19001-.24791,.14438-.53005,.21951-.81694,.21755h.01033Zm-33.99514-3.21352h31.20527L21.98503,9.572,6.3824,36.74745Z"/>
  <path d="M19.81961,36.02236l-2.30423-2.55222c3.0172-2.9242,4.68079-4.50513,7.70832-7.45-.75533-.24799-4.31914-1.43627-5.46609-1.80825l1.39494,2.65555c-1.11595-.35442-2.04591-.62514-2.94487-.94649-.25889-.08672-.47836-.26295-.61894-.49701-.64064-1.37427-1.23995-2.75888-1.90125-4.27781l.00232-.0011-.00124-.00224c1.42594-.83386,2.72788-1.61193,4.05049-2.34556,.25105-.10707,.53206-.1211,.79253-.03957,.92169,.27175,1.82892,.59311,2.94487,.96302l-2.68655,1.33294c1.15728,.37612,5.57975,1.85992,6.64404,2.21123,2.31456,.7512,2.71754,2.77954,.98472,4.45347l-8.59907,8.30405Z"/>
</svg>