<svg xmlns="http://www.w3.org/2000/svg" data-name="Ebene 1" viewBox="0 0 44 44"><circle cx="22" cy="22" r="20" fill="#fff" /><path d="m22 3.09c-10.4 0-18.9 8.46-18.9 18.9s8.46 18.9 18.9 18.9 18.9-8.46 18.9-18.9-8.46-18.9-18.9-18.9zm0 32.9c-7.73 0-14-6.27-14-14s6.27-14 14-14 14 6.27 14 14-6.27 14-14 14z" fill="#e52421" /><path d="M26,31.3v-13c-.823-4.93-7.07-4.89-7.97-.0605v9.98l-2.02,3.06-2.05-3.11v-10.3c.869-9.04,14.4-10.3,16.1,0v13.4l-2-3.05-2.06,3.0805Z" fill="#010101" fill-rule="evenodd" /><line x1="7.9" x2="36.1" y1="14" y2="30.2" fill="none" stroke="#e52421" stroke-miterlimit="10" stroke-width="4px" /></svg>