<?xml version="1.0" encoding="UTF-8"?>
<svg id="Ebene_1" data-name="Ebene 1" xmlns="http://www.w3.org/2000/svg" viewBox="0 0 44 44">
  <defs>
    <style>
      .cls-1 {
        fill: #fff;
      }

      .cls-2 {
        fill: #8a8a8a;
      }

      .cls-3 {
        fill: #010101;
      }
    </style>
  </defs>
  <path class="cls-1" d="M22,42.00024c-11.02822,0-20-8.97189-20-19.99975S10.97178,2.00024,22,2.00024s20,8.97189,20,20.00025-8.97178,19.99975-20,19.99975Z"/>
  <path class="cls-2" d="M10.21933,16.81033c-.01753,0-.03506,.00089-.05259,.00219l-.01557,.00098-.03956,.00439-.014,.00196-.00725,.00122-.03634,.00668-.03124,.00733-.01048,.00285c-.23857,.06263-.43527,.23117-.53371,.45732l-1.27306,2.93783c-.09068,.20705-.20505,.4029-.34079,.58365l-.19292,.25853c-.12653,.16752-.19494,.37175-.19488,.58168v2.09565c.00054,.44543,.36149,.80638,.80693,.80693h11.94715c.06179,.00173,.12358-.00372,.18411-.01625l.00506-.00098,.03153-.00733,.01214-.00318,.02193-.00636,.02233-.00701,.01273-.00415,.02703-.01019,.00765-.00285,.03173-.01371,.00098-.00032,.00032-.00032c.27235-.12407,.45365-.38868,.47103-.68745,.00098-.01567,.00163-.03153,.00163-.0474v-2.09565c.00064-.20987-.06746-.41417-.19389-.58168l-.19977-.26538c-.06368-.08576-.12254-.17501-.17627-.26734-.00999-.01684-.01949-.03408-.02898-.05122l-.01116-.01968c-.01048-.0191-.02066-.03888-.03085-.05827l-.01175-.02252-.01499-.03055c-.0207-.04172-.04041-.08415-.05915-.1273l-.13514-.30945-.02096-.04799-1.12617-2.57549c-.11942-.27499-.38159-.46096-.6806-.48278-.01939-.00163-.03908-.00219-.05886-.00219H10.24349l-.02416-.00418h0Zm.19585,.80691h7.67751c.11858,.00009,.22757,.06512,.28399,.16941l.00351,.007,.00888,.01841,.75404,1.73332,.00098-.0009,.35548,.81573H9.02133l.20271-.46417-.00252,.00252,.90974-2.08585c.05093-.11796,.16726-.19424,.29574-.19389l-.01182-.00158Zm-2.13482,7.26622v1.77249c.00003,.03283,.00334,.06556,.00989,.09773,.04599,.22533,.24399,.38733,.47396,.38779h.96948c.26772-.00054,.4843-.218,.48376-.48572h0v-1.77249l-1.93711,.0002Zm9.9886,0v.18215l.00098-.00122v1.33182l-.00098,.00089v.26244c.00016,.19329,.11469,.36817,.29182,.44557l.00032-.00033c.06057,.02631,.12589,.03995,.19194,.04005h.96948c.05335-.00018,.10629-.00921,.15668-.02673,.01714-.00577,.03392-.01258,.05024-.02036l.00252-.0013c.01576-.00758,.03106-.01608,.04583-.02546l.00187-.00098c.04626-.02881,.08731-.06523,.12143-.10772,.01107-.01371,.02096-.0284,.03055-.04289l.00286-.00513c.00822-.01331,.01587-.02703,.02292-.04142l.0035-.00725c.00636-.01371,.01234-.02772,.01753-.0424l.00219-.00538-.00032,.00025c.01751-.05073,.02654-.104,.02673-.15766v-1.77249s-1.9381-.00442-1.93811-.00442Zm7.41311-8.06922c-.01753,0-.03506,.00089-.05259,.00219l-.01557,.00098-.03956,.00439-.014,.00196-.00725,.00122-.03663,.00668-.03085,.00733-.01077,.00285c-.23813,.06302-.43437,.23148-.53273,.45732l-1.27306,2.93783c-.09053,.20714-.20489,.403-.34079,.58365l-.19292,.25853c-.12605,.16771-.19411,.37189-.19389,.58168v2.09565c.00054,.44543,.3615,.80638,.80693,.80693h11.94715c.0618,.0017,.12357-.00375,.18411-.01625l.00513-.00098,.03143-.00733,.01214-.00318,.02193-.00636,.02233-.00701,.01273-.00415,.02673-.01019,.00797-.00285,.03172-.01371,.00098-.00032,.00033-.00032c.27234-.12407,.45365-.38868,.47103-.68745,.00098-.01567,.00163-.03153,.00163-.0474v-2.09565c.0005-.21001-.06796-.41437-.19488-.58168l-.19879-.26538c-.06369-.08576-.12254-.17501-.17627-.26734l-.04015-.071c-.01039-.0191-.02056-.03888-.03075-.05827l-.01185-.02252-.01499-.03055c-.02063-.04172-.04035-.08415-.05915-.1273l-.13514-.30945-.02096-.04799-1.12617-2.57549c-.11941-.27499-.38159-.46096-.6806-.48278-.01948-.00163-.03917-.0022-.05895-.0022h-8.06922v-.00032l-.02585-.00374,.00005-.00002Zm.19488,.80693h7.67751c.11829,.00024,.22692,.06527,.28301,.16941l.00383,.007,.00864,.01841,.75405,1.73332,.00098-.0009,.3545,.81573h-10.47824l.20173-.46417-.00235,.00252,.90975-2.08586c.05093-.11796,.16726-.19424,.29574-.19389,0,0-.00914-.00158-.00914-.00157Zm-2.13482,7.26622v1.77249c.00003,.03283,.00334,.06556,.00989,.09773,.04599,.22533,.24399,.38733,.47397,.38779h.96948c.26772-.00054,.4843-.218,.48377-.48572h0v-1.77249l-1.9371,.0002h-.00001Zm9.9886,0v.18215l.00098-.00122v1.33182l-.00098,.00089v.26244c.00016,.19329,.11469,.36817,.29183,.44557l.00032-.00033c.06057,.02631,.12589,.03995,.19194,.04005h.96948c.07147-.00059,.14196-.01665,.20663-.0471l.00252-.0013c.01576-.00758,.03106-.01608,.04583-.02546l.00155-.00098c.04629-.02875,.08736-.06518,.12143-.10772,.0109-.01378,.02109-.02809,.03055-.04289l.00286-.00513c.00822-.01331,.01587-.02703,.02292-.04142l.0035-.00725c.00635-.01371,.01204-.02772,.01753-.0424l.0022-.00538-.00033,.00025c.01751-.05073,.02655-.104,.02673-.15766v-1.77249h-1.93896l.00149-.00442h-.00001Z"/>
  <path class="cls-3" d="M23.46393,3.17438c-.48468-.03741-.96979-.07416-1.46393-.07416s-.97925,.03674-1.46393,.07416C10.7843,3.92389,3.10004,12.05652,3.10004,22.00049c0,10.43817,8.46179,18.90002,18.89996,18.90002s18.90002-8.46185,18.90002-18.90002c0-9.94397-7.68433-18.0766-17.4361-18.82611ZM4.60004,22.00049C4.60004,12.40594,12.40564,4.60022,22,4.60022c3.62805,0,6.99799,1.1192,9.78912,3.02618L7.6261,31.78943c-1.90692-2.79108-3.02606-6.16095-3.02606-9.78894Zm3.45776,10.36591L32.36609,8.05811c.19788,.14746,.40137,.28778,.59265,.44342L8.50122,32.95898c-.15558-.19128-.2959-.39471-.44342-.59259ZM33.49731,8.97461c.18359,.16229,.36713,.32446,.5437,.49426L9.46863,34.04126c-.16962-.17645-.33173-.35974-.49384-.54321,.75641-.75641,23.75836-23.75916,24.52252-24.52344Zm5.90271,13.02588c0,9.59424-7.8056,17.39972-17.40002,17.39972-3.61566,0-6.97583-1.11035-9.76141-3.00537L36.39459,12.23883c1.89508,2.78564,3.00543,6.14594,3.00543,9.76166Zm-3.44135-10.34418L11.65607,35.95898c-.1983-.14734-.40143-.28845-.5932-.44391L35.51483,11.06311c.1554,.19177,.29645,.3949,.44385,.5932Zm-.91553-1.13409L10.52197,35.0434c-.18372-.16187-.36652-.32452-.54321-.49384L34.54932,9.979c.16937,.1767,.33197,.3595,.49384,.54321Z"/>
</svg>