<svg xmlns="http://www.w3.org/2000/svg" viewBox="0 0 40 40"><defs><style>.cls-1{fill:#fff;}.cls-2{fill:none;stroke:#fff;stroke-width:1.2px;}</style></defs><g id="E023_mute"><g id="V3-8" data-name="V3"><polygon class="cls-1" points="12 28.1 7 28.1 7 11.9 12 11.9 12 13.1 8.199 13.1 8.199 26.9 12 26.9 12 28.1"/><path class="cls-2" d="M11.89165,35.46959,39.32354,8.17167"/><polygon class="cls-1" points="16.254 26.897 15.1 26.899 15.1 13.1 19.687 13.1 31.9 4.645 31.9 11.326 33.1 10.133 33.1 2.355 19.312 11.9 13.9 11.9 13.9 28.101 15.045 28.099 16.254 26.897"/><polygon class="cls-1" points="31.9 19.791 31.9 35.354 22.681 28.965 21.816 29.826 33.1 37.646 33.1 18.598 31.9 19.791"/></g></g></svg>