<svg xmlns="http://www.w3.org/2000/svg" viewBox="0 0 40 40"><g id="E0CB_navigation_poi_parking"><path d="M36.5,3.5v33H3.5V3.5Z" fill="none" stroke="#fff" stroke-width="1.2"/><path d="M25.704,8.81226a9.84646,9.84646,0,0,0-4.45465-.72339V8.07471H13.06671v23.8977H15.853V22.98706h5.39642V22.9729a9.99151,9.99151,0,0,0,4.488-.74927,7.8987,7.8987,0,0,0,4.08423-6.69275A7.97349,7.97349,0,0,0,25.704,8.81226ZM24.015,19.54285a6.86443,6.86443,0,0,1-2.891.44909v.00855H15.853V11.06128h5.271v.00842a6.76923,6.76923,0,0,1,2.86945.43372,4.74894,4.74894,0,0,1,2.65246,4.02746A4.703,4.703,0,0,1,24.015,19.54285Z" fill="#fff" fill-rule="evenodd"/></g></svg>