<svg xmlns="http://www.w3.org/2000/svg" viewBox="0 0 40 40"><defs><style>.cls-1,.cls-3{fill:#fff;}.cls-2{fill:none;stroke:#fff;stroke-width:1.2px;}.cls-3{fill-rule:evenodd;}</style></defs><g id="E0D0_customer_update"><g id="V2-2" data-name="V2"><path class="cls-1" d="M32.74867,15.24549c-1.067,1.111-2.746,0-2.746,0h-2.747l-2.289-1.581,8.24-.791A2.16161,2.16161,0,0,1,32.74867,15.24549Zm-25.048,0s-1.679,1.111-2.746,0a2.16161,2.16161,0,0,1-.458-2.372l8.24.791-2.289,1.581Z"/><path class="cls-2" d="M34.36228,18.91147c-.00374-2.97981-.01528-6.70279-.0167-7.2168a.07943.07943,0,0,0-.04585-.07623A33.01616,33.01616,0,0,0,31.00144,10.063c-1.313-.493-23.6-.353-24.276-.099a26.2639,26.2639,0,0,0-3.30093,1.65364.07992.07992,0,0,0-.04321.07489c-.00167.60049-.01786,6.50761-.01786,9.303,0,1.453-.261,3,1,3h3c.769,0,1-.261,1-1v-1H18.97425"/><path class="cls-2" d="M32.70057,10.80656s-3.9189-7.38831-5.5329-7.73731c-3.219-.698-13.943-.823-16.632,0-1.639.501-5.841,7.84316-5.841,7.84316"/><path class="cls-2" d="M20.56224,19.474H15.45067c-2.409-.119-3.243-3.194-3.243-3.194l1.853-2.06h9.582l1.853,2.06a7.71,7.71,0,0,1-.23.78569"/><path class="cls-3" d="M19.0933,33.55892l4.44053-1.83333L19.11,27.01811Z"/><path class="cls-3" d="M33.83735,25.40989l4.66935-1.811-.02418,6.74171Z"/><path class="cls-1" d="M29.00375,20.91636a7.99832,7.99832,0,0,1,7.60356,5.549,7.9152,7.9152,0,0,1,.22619.87254c.1007.50531.36706.78953.36715,1.324l.774.23813c-.00007-.44493.05085-.87974.05085-1.31078a2.07144,2.07144,0,0,0,.00392-.38413,9.18321,9.18321,0,0,0-16.71583-3.3248l1.01977.66571A7.95048,7.95048,0,0,1,29.00375,20.91636Z"/><path class="cls-1" d="M35.683,33.26084a7.9788,7.9788,0,0,1-14.36946-2.20631,6.57265,6.57265,0,0,1-.41909-1.93884l-.16431-.15649-.91091-.059v.001a9.17758,9.17758,0,0,0,16.86719,5.01483Z"/></g></g></svg>