<svg xmlns="http://www.w3.org/2000/svg" viewBox="0 0 40 40"><defs><style>.cls-1,.cls-4{fill:#fff;}.cls-1{fill-rule:evenodd;}.cls-2,.cls-3{fill:none;stroke:#fff;}.cls-2{stroke-width:1.2px;}.cls-3{stroke-miterlimit:10;stroke-width:1.2px;}</style></defs><g id="E151_phev_range_electric"><g id="V2-18" data-name="V2"><path class="cls-1" d="M32.79519,17.01044h-.55443A4.012,4.012,0,0,1,29,13V7h1.8V3H32V7h2.8V3H36V7h2v6a4.23573,4.23573,0,0,1-3.54152,4.01044H32.79519Z"/><path class="cls-2" d="M29.76868,32.9941c3.53623,0,3.54711-4.07471,3.54711-4.07471V16.44781"/><path class="cls-2" d="M29.93121,32.99521c-3.54194,0-3.66983-4.02985-3.66983-4.02985v-8.477c-.03459-1.82884-.81524-3.261-2.142-3.261l-.41735.01628"/><path class="cls-3" d="M21,16.5H8"/><path class="cls-4" d="M3,36.8H26V38H3Z"/><path class="cls-3" d="M5.5,37V5.5a2.06135,2.06135,0,0,1,2.11765-2h13.7647A2.06135,2.06135,0,0,1,23.5,5.5V37"/></g></g></svg>