<svg xmlns="http://www.w3.org/2000/svg" viewBox="0 0 40 40"><g id="E156_001_status_charging"><path d="M37.98009,12.33594H30.84631v1.63867h7.13378a.81934.81934,0,1,0,0-1.63867Z" fill="#fff"/><path d="M37.98009,19.35554H30.84631v1.63867h7.13378a.81934.81934,0,1,0,0-1.63867Z" fill="#fff"/><path d="M15.86741,16.39442c-3.57452,0-7.54088-.0231-7.54088,2.88209s3.71428,3.23261,3.71428,6.13779a3.98659,3.98659,0,0,1-4.01414,4.16429H.5" fill="none" stroke="#fff" stroke-miterlimit="10" stroke-width="1.2"/><path d="M30.52836,23.29693H22.79328a6.4863,6.4863,0,0,1-6.45477-6.6018h0a6.37219,6.37219,0,0,1,6.45477-6.60506h7.73508Z" fill="none" stroke="#fff" stroke-miterlimit="10" stroke-width="1.2"/></g></svg>