<?xml version="1.0" encoding="UTF-8"?>
<svg id="Ebene_1" data-name="Ebene 1" xmlns="http://www.w3.org/2000/svg" viewBox="0 0 40 40">
  <defs>
    <style>
      .cls-1 {
        fill: #fff;
      }

      .cls-2 {
        stroke-width: 1.35px;
      }

      .cls-2, .cls-3, .cls-4 {
        fill: none;
        stroke: #fff;
      }

      .cls-2, .cls-4 {
        stroke-miterlimit: 10;
      }

      .cls-3 {
        stroke-width: 1.2px;
      }

      .cls-4 {
        stroke-width: 1.5px;
      }
    </style>
  </defs>
  <line class="cls-4" x1="20.50001" y1="27.78976" x2="20.50001" y2="23.05155"/>
  <line class="cls-2" x1="10.27501" y1="33.08227" x2="10.27501" y2="37.98227"/>
  <line class="cls-2" x1="30.72502" y1="33.08227" x2="30.72502" y2="37.98227"/>
  <path class="cls-1" d="M15.18306,16.01986h2.54267l5.58-.00005h2.61922l-5.3929,4.5651-5.349-4.56504Z"/>
  <polyline class="cls-3" points="29.675 40 29.675 27.61277 11.325 27.61277 11.325 40"/>
  <path class="cls-1" d="M20.5,5.22266c-1.59466,.032-3.1689-.12643-4.75281-.29116l-.94248,4.48552c1.84217,.54237,3.75151,.82067,5.69529,.82413,1.94378-.00346,3.87413-.28176,5.71629-.82413l-.94248-4.48552c-1.58391,.16473-3.17916,.32316-4.77381,.29116Z"/>
  <path class="cls-1" d="M13.23386,.00443V5.7533c.26474-.97986,1.23393-4.55832,1.55962-5.74887h-1.55962Z"/>
  <path class="cls-1" d="M30.9887,.00443h-1.27738c-.00371,.71906-.008,1.45309-.01295,2.11929,.07449,2.4364-.02056,5.45331-.2809,6.06177-.12627,.29535-.20127,.63849-.28812,1.03577-.29814,1.3642-.64727,2.5293-1.89622,2.96222-1.98866,.54724-4.04752,.82471-6.12022,.82465h-1.22611c-2.07251,0-4.1313-.2774-6.11996-.82465-1.24895-.43292-1.59809-1.59802-1.89622-2.96222-.08685-.39728-.16185-.74042-.28825-1.03625-.26021-.60797-.35519-3.62488-.28018-6.10413-.00488-.65234-.00924-1.3721-.01295-2.07644h-1.27796c.00605,1.26263,.0119,2.08487,.0119,2.08487,0,0-.16237,5.29346,.3723,6.54285,.3842,.89893,.34549,3.81598,2.97297,4.69226,2.11636,.58612,4.31176,.88373,6.51835,.88373h1.22611c2.20678,0,4.40212-.29761,6.51861-.88373,2.62748-.87628,2.58884-3.79333,2.97304-4.69226,.53467-1.24939,.37223-6.54285,.37223-6.54285,0,0,.00585-.82223,.0119-2.08487Z"/>
  <path class="cls-1" d="M26.2025,.00443c.32569,1.19055,1.29488,4.76901,1.55962,5.74887V.00443h-1.55962Z"/>
</svg>