<svg id="Icon" xmlns="http://www.w3.org/2000/svg" viewBox="0 0 40 40"><defs><style>.cls-1{fill:#fff;}</style></defs><path class="cls-1" d="M19.99561,4.39206l5.02933,10.1411.28942.58357.647.07524,10.43607,1.2135-7.746,7.746-.46845.46846.14682.646,2.4401,10.73644L20.53321,30.925l-.5375-.2666-.53579.27L9.23471,36.08191l2.43545-10.716.14682-.646-.46845-.46846-7.748-7.748,10.33915-1.21162.64377-.07544.28987-.57974,5.1223-10.2446M20,1.7,13.8,14.1,1,15.6l9.5,9.5-3,13.2L20,32l12.5,6.2L29.5,25,39,15.5,26.1,14,20,1.7Z"/></svg>