<svg xmlns="http://www.w3.org/2000/svg" viewBox="0 0 40 40"><g id="E264_PLA"><path d="M4.87545,13.42968H9.22652c.37129,0,4.06462.10008,4.06462-3.58673s-3.69333-3.665-4.06462-3.665H4.87545ZM1.97474,25.03253V4.00237h6.5266C12.566,3.824,15.74805,5.188,15.74805,9.87921c0,4.4845-3.21182,5.63681-7.24671,5.726H4.87545v9.42731Z" fill="#fff" fill-rule="evenodd"/><path d="M26.32764,15.78076A11.39034,11.39034,0,1,0,37.69482,27.17139,11.42075,11.42075,0,0,0,26.32764,15.78076ZM18.29541,32.65967a1.22287,1.22287,0,0,1-1.03271-.817l-.042-.09057a10.16158,10.16158,0,0,1-1.08154-4.35645c.01514-1.15344.77832-1.15344,1.145-1.15344l2.57715-.00391.40234-.00061-.002.40259-.00293.60254a6.12011,6.12011,0,0,0,.74219,2.91553l.15283.28088-.24072.21094-2.04883,1.79736A.91933.91933,0,0,1,18.29541,32.65967Zm14.03613,2.73816a.63966.63966,0,0,1-.08447.07605,10.15566,10.15566,0,0,1-11.81543.01684.55414.55414,0,0,1-.11328-.09326.88425.88425,0,0,1-.32813-.65173,1.69541,1.69541,0,0,1,.66211-1.17346l1.59375-1.3993.24121-.212.25928.19031a6.04863,6.04863,0,0,0,7.16113-.00037l.25879-.1897.2417.21192,1.57764,1.38537a1.70822,1.70822,0,0,1,.67871,1.189A.87775.87775,0,0,1,32.33154,35.39783Zm-9.11211-6.97549a3.10846,3.10846,0,1,1,3.10262,3.20412h-.00249A3.16441,3.16441,0,0,1,23.21943,28.42234Zm13.29278-1.04075a10.15029,10.15029,0,0,1-1.08448,4.38147l-.03759.07959a1.205,1.205,0,0,1-1.03223.817.8999.8999,0,0,1-.54932-.19556l-2.07373-1.8136L31.4917,30.438l.15625-.28223a6.02818,6.02818,0,0,0,.74072-2.91492V26.23767l.40039.00061,2.583.00391C35.73779,26.24219,36.499,26.24219,36.51221,27.38159Zm-.91553-3.62012a1.06678,1.06678,0,0,1-.959.45508H18.01562a1.06678,1.06678,0,0,1-.959-.45508.814.814,0,0,1,.00244-.81884,10.17388,10.17388,0,0,1,18.54737.025A.79725.79725,0,0,1,35.59668,23.76147Z" fill="#fff" fill-rule="evenodd"/></g></svg>