<svg xmlns="http://www.w3.org/2000/svg" viewBox="0 0 40 40"><title>E3BF_Defrost_Max</title><g id="Icon"><path d="M13.8623,40.002V32.36816q0-.37061.01319-.78613.01245-.416.0498-.80566c-.10644.25293-.22558.51465-.35791.78711s-.25683.50488-.373.69726l-2.83155,4.65039h-.9165L6.626,32.26074c-.062-.10156-.126-.21191-.19287-.332s-.13331-.24316-.19873-.37109q-.09815-.19044-.19483-.38965c-.06445-.13184-.12353-.2627-.17822-.3916q.03735.40869.0542.81445.01611.40722.0166.77734V40.002H4.54053V28.99512h1.603L9.31641,34.2832q.17432.29.31933.58985c.09619.20117.18653.40722.27051.62011a6.75745,6.75745,0,0,1,.26758-.62207,5.936,5.936,0,0,1,.334-.59179l3.17285-5.28418h1.57715V40.002Z" fill="#fff"/><path d="M25.51855,40.002,24.49707,37.208h-4.9165L18.564,40.002H17.09814l4.188-11.00683h1.55078L27.05469,40.002Zm-3.041-8.38672c-.084-.21484-.165-.4414-.24121-.67871a6.18808,6.18808,0,0,1-.18945-.73535,6.69708,6.69708,0,0,1-.208.7334c-.082.23633-.15918.46289-.2334.68066l-1.60205,4.37891H24.0625Z" fill="#fff"/><path d="M35.13281,40.002l-2.543-3.80859q-.05273-.085-.11132-.18164c-.03907-.06445-.07813-.13184-.11329-.20117s-.07031-.13867-.10351-.209c-.0332-.07129-.06445-.13965-.0918-.206-.03125.0664-.0664.13476-.09961.206-.03515.07032-.07031.13965-.10351.209-.03516.06933-.07227.13672-.10938.20117s-.07422.125-.11133.18164L29.207,40.002H27.5625l3.78125-5.65039-3.56543-5.35644h1.66309l2.30273,3.498c.03711.05762.07422.11817.11133.1836s.07226.13379.10742.20215c.0332.06933.06836.13964.10352.21s.06836.1416.09961.21289c.02734-.07129.05859-.14258.09179-.21289s.06836-.14063.10352-.21c.03515-.06836.07226-.13672.11133-.20215s.07617-.126.11328-.1836l2.32422-3.498h1.64453l-3.56446,5.3457,3.8086,5.66113Z" fill="#fff"/><path d="M13.628,11.55067a10.69029,10.69029,0,0,0-.21522,1.93846,5.79374,5.79374,0,0,0,.64082,2.53149l.82539,1.98509a5.94286,5.94286,0,0,1,.42064,2.27993,9.21968,9.21968,0,0,1-1.99695,5.07086" fill="none" stroke="#fff" stroke-miterlimit="10" stroke-width="1.2"/><polygon points="11.47 11.858 13.636 6.178 15.786 11.858 11.47 11.858" fill="#fff"/><path d="M18.99572,11.55067a10.69029,10.69029,0,0,0-.21522,1.93846,5.7936,5.7936,0,0,0,.64082,2.53149l.82539,1.98509a5.943,5.943,0,0,1,.42064,2.27993A9.21968,9.21968,0,0,1,18.6704,25.3565" fill="none" stroke="#fff" stroke-miterlimit="10" stroke-width="1.2"/><polygon points="16.838 11.858 19.004 6.178 21.154 11.858 16.838 11.858" fill="#fff"/><path d="M24.36345,11.55067a10.69032,10.69032,0,0,0-.21523,1.93846,5.79375,5.79375,0,0,0,.64083,2.53149l.82539,1.98509a5.943,5.943,0,0,1,.42064,2.27993,9.21976,9.21976,0,0,1-1.997,5.07086" fill="none" stroke="#fff" stroke-miterlimit="10" stroke-width="1.2"/><polygon points="22.205 11.858 24.371 6.178 26.522 11.858 22.205 11.858" fill="#fff"/><path d="M19.98679,2.1784A28.08567,28.08567,0,0,0,2.75,8.05551l8.62413,13.99058a15.76391,15.76391,0,0,1,17.16083.11752L37.25,8.06309A28.15213,28.15213,0,0,0,19.98679,2.1784Z" fill="none" stroke="#fff" stroke-miterlimit="10" stroke-width="1.2"/></g></svg>