<svg xmlns="http://www.w3.org/2000/svg" viewBox="0 0 40 40"><title>E3C0_Defrost_Rear</title><g id="Icon"><path d="M7.86914,40.002,5.353,36.28711c-.07666-.11133-.14746-.21094-.21143-.29883a2.24322,2.24322,0,0,0-.1914-.22949,1.21164,1.21164,0,0,0-.19678-.167,1.08912,1.08912,0,0,0-.21485-.11328,1.06838,1.06838,0,0,0-.25048-.06348,2.37278,2.37278,0,0,0-.30079-.01856H2.77393V40.002H1.34521V28.99512H4.87793a6.103,6.103,0,0,1,1.64941.19726,3.0196,3.0196,0,0,1,1.16162.58985,2.37488,2.37488,0,0,1,.68653.98339,3.87867,3.87867,0,0,1,.22461,1.37989,3.57739,3.57739,0,0,1-.19141,1.22168A2.67376,2.67376,0,0,1,7.06543,34.8916a4.04443,4.04443,0,0,1-1.02588.35254,1.80507,1.80507,0,0,1,.43408.32129,3.42622,3.42622,0,0,1,.4043.49219l2.687,3.94433ZM4.5957,34.28711a4.35523,4.35523,0,0,0,1.09864-.124,2.03748,2.03748,0,0,0,.79394-.3877,1.63938,1.63938,0,0,0,.481-.668,2.59651,2.59651,0,0,0,.16113-.96191,2.54816,2.54816,0,0,0-.14111-.89063,1.44916,1.44916,0,0,0-.44141-.625,1.99693,1.99693,0,0,0-.77-.36914A4.53034,4.53034,0,0,0,4.644,30.13867H2.77393v4.14844Z" fill="#fff"/><path d="M11.68018,40.002V28.99512h6.99511v1.17676h-5.5664v3.61035h4.7832V34.959h-4.7832V38.8252h5.581V40.002Z" fill="#fff"/><path d="M28.12305,40.002,27.10254,37.208h-4.917L21.169,40.002H19.70312L23.8916,28.99512h1.55078L29.66016,40.002Zm-3.041-8.38672q-.126-.32226-.24121-.67871a6.58965,6.58965,0,0,1-.18945-.73535,6.91779,6.91779,0,0,1-.207.7334q-.12306.3545-.23438.68066L22.6084,35.99414H26.668Z" fill="#fff"/><path d="M38.02051,40.002l-2.5166-3.71484q-.11427-.167-.21094-.29883a2.18039,2.18039,0,0,0-.19141-.22949,1.22948,1.22948,0,0,0-.19629-.167,1.08342,1.08342,0,0,0-.21582-.11328,1.06418,1.06418,0,0,0-.25-.06348,2.37834,2.37834,0,0,0-.30078-.01856H32.9248V40.002H31.49609V28.99512H35.0293a6.103,6.103,0,0,1,1.64941.19726,3.01036,3.01036,0,0,1,1.16113.58985,2.37692,2.37692,0,0,1,.6875.98339,3.87922,3.87922,0,0,1,.22364,1.37989,3.59018,3.59018,0,0,1-.19043,1.22168A2.68133,2.68133,0,0,1,37.2168,34.8916a4.04145,4.04145,0,0,1-1.02637.35254,1.79785,1.79785,0,0,1,.43457.32129,3.49272,3.49272,0,0,1,.4043.49219L39.71582,40.002Zm-3.27344-5.71484a4.35239,4.35239,0,0,0,1.09863-.124,2.04084,2.04084,0,0,0,.794-.3877,1.63385,1.63385,0,0,0,.48047-.668,2.90414,2.90414,0,0,0,.0205-1.85254,1.44914,1.44914,0,0,0-.4414-.625,1.99815,1.99815,0,0,0-.76953-.36914,4.53574,4.53574,0,0,0-1.13379-.12207H32.9248v4.14844Z" fill="#fff"/><path d="M13.628,11.55067a10.69029,10.69029,0,0,0-.21522,1.93846,5.79374,5.79374,0,0,0,.64082,2.53149l.82539,1.98509a5.94286,5.94286,0,0,1,.42064,2.27993,9.21968,9.21968,0,0,1-1.99695,5.07086" fill="none" stroke="#fff" stroke-miterlimit="10" stroke-width="1.2"/><polygon points="11.47 11.858 13.636 6.178 15.786 11.858 11.47 11.858" fill="#fff"/><path d="M18.99572,11.55067a10.69029,10.69029,0,0,0-.21522,1.93846,5.7936,5.7936,0,0,0,.64082,2.53149l.82539,1.98509a5.943,5.943,0,0,1,.42064,2.27993A9.21968,9.21968,0,0,1,18.6704,25.3565" fill="none" stroke="#fff" stroke-miterlimit="10" stroke-width="1.2"/><polygon points="16.838 11.858 19.004 6.178 21.154 11.858 16.838 11.858" fill="#fff"/><path d="M24.36345,11.55067a10.69032,10.69032,0,0,0-.21523,1.93846,5.79375,5.79375,0,0,0,.64083,2.53149l.82539,1.98509a5.943,5.943,0,0,1,.42064,2.27993,9.21976,9.21976,0,0,1-1.997,5.07086" fill="none" stroke="#fff" stroke-miterlimit="10" stroke-width="1.2"/><polygon points="22.205 11.858 24.371 6.178 26.522 11.858 22.205 11.858" fill="#fff"/><rect x="3.5" y="2.5" width="33" height="18" rx="3" fill="none" stroke="#fff" stroke-miterlimit="10" stroke-width="1.2"/></g></svg>