<svg xmlns="http://www.w3.org/2000/svg" viewBox="0 0 40 40"><title>E3C3_Sitzheizung_Sitzlueftung</title><g id="Icon"><path d="M18.57639,25.29969a10.93064,10.93064,0,0,0-.21559,1.96224,5.91454,5.91454,0,0,0,.64189,2.56253l.82675,2.00944a6.07178,6.07178,0,0,1,.42134,2.30789,9.389,9.389,0,0,1-2.00025,5.13306" fill="none" stroke="#fff" stroke-miterlimit="10" stroke-width="1.2"/><path d="M23.64207,25.29969a10.93152,10.93152,0,0,0-.21558,1.96224,5.91438,5.91438,0,0,0,.64188,2.56253l.82675,2.00944a6.07178,6.07178,0,0,1,.42134,2.30789,9.389,9.389,0,0,1-2.00025,5.13306" fill="none" stroke="#fff" stroke-miterlimit="10" stroke-width="1.2"/><path d="M28.70775,25.29969a10.93152,10.93152,0,0,0-.21558,1.96224,5.91425,5.91425,0,0,0,.64189,2.56253l.82675,2.00944a6.072,6.072,0,0,1,.42133,2.30789,9.389,9.389,0,0,1-2.00024,5.13306" fill="none" stroke="#fff" stroke-miterlimit="10" stroke-width="1.2"/><path d="M24.34562,2.32442a1.99117,1.99117,0,0,1,1.75672.95117,3.09015,3.09015,0,0,1-.01054,2.07956,7.35464,7.35464,0,0,0-.03346,3.82852l.13694.24693.90989.15945.24515-.38345a4.76873,4.76873,0,0,1,1.20584-3.47192,3.31425,3.31425,0,0,1,2.36645-.96944,4.27718,4.27718,0,0,1,3.95586,3.12862A2.13655,2.13655,0,0,1,34.07695,10.51a1.94148,1.94148,0,0,1-.83529.18,5.537,5.537,0,0,1-1.20305-.1893,8.53405,8.53405,0,0,0-2.00024-.27637,6.90752,6.90752,0,0,0-1.784.242l-.24229.16452-.12908.90959.42776.22654c2.79959.02169,4.03579,1.53984,4.26878,2.96132a4.26239,4.26239,0,0,1-3.11437,4.57149,2.69012,2.69012,0,0,1-.8545.14778,1.99151,1.99151,0,0,1-1.75734-.95116,2.943,2.943,0,0,1,.0093-2.02255,7.09143,7.09143,0,0,0,.04523-3.72907l-.11039-.30934-.99484-.18415-.20471.44826A4.68484,4.68484,0,0,1,24.42246,16.112a3.25212,3.25212,0,0,1-2.32556.94838,4.34835,4.34835,0,0,1-4.01968-3.18222,2.13584,2.13584,0,0,1,.80183-2.61618,1.93889,1.93889,0,0,1,.83467-.18,5.539,5.539,0,0,1,1.20336.18931,8.53454,8.53454,0,0,0,2.00024.27636,6.90749,6.90749,0,0,0,1.784-.242l.22709-.1.16077-.86855-.36555-.32372c-2.8504,0-4.11016-1.5355-4.34562-2.97278A4.25915,4.25915,0,0,1,23.4905,2.47221,2.68511,2.68511,0,0,1,24.34562,2.32442Z" fill="none" stroke="#fff" stroke-linejoin="round" stroke-width="1.2"/><path d="M21.78583,25.41205h3.77545l-1.84741-4.31476ZM28.79,21.09729l-1.928,4.31476h3.77539ZM16.70966,25.41205h3.77539l-1.84742-4.31476Z" fill="#fff" fill-rule="evenodd"/><path d="M14.61137,36.49976a2.15992,2.15992,0,0,1-1.90543-1.281l-1.4915-3.66614-.0282-.03284a.80333.80333,0,0,1-.17536-.36064.3176.3176,0,0,1,.2711-.12145c.15058.00248.30425.00372.45575.00372a25.79806,25.79806,0,0,0,8.31109-1.41219,19.98091,19.98091,0,0,1,6.20613-1.1445l1.41033.00248,3.51715-.00248c1.14884,0,2.37575.77271,2.37575,1.88127l-.68844,4.38477a2.14281,2.14281,0,0,1-2.03246,1.749Zm-4.20124-8.14888a1.27668,1.27668,0,0,1-1.14667-.73367,31.76037,31.76037,0,0,1-2.75559-8.0719,35.78615,35.78615,0,0,1-.9-7.35621,1.53945,1.53945,0,0,1,1.5008-1.53333l1.1541.06166a2.90893,2.90893,0,0,1,2.80765,2.66419,39.93194,39.93194,0,0,0,.98525,4.79611,36.96262,36.96262,0,0,0,2.63259,7.07551v1.82611a1.26225,1.26225,0,0,1-1.24953,1.27153ZM10.13438,8.58923A1.11931,1.11931,0,0,1,9.951,8.57374c-.172-.03067-1.74742-.307-3.05551-.45359a.80637.80637,0,0,1-.71105-.75009C6.28014,4.7,7.57522,3.28841,9.9299,3.28841l.11247-.00217a.79668.79668,0,0,1,.89818.79409c.00806.60013.00465,1.1383.00124,1.70652-.00372.59518-.00774,1.22351.00093,1.99064a.76474.76474,0,0,1-.20882.56791.79978.79978,0,0,1-.59921.24383Z" fill="none" stroke="#fff" stroke-miterlimit="10" stroke-width="1.2" fill-rule="evenodd"/></g></svg>