<svg xmlns="http://www.w3.org/2000/svg" viewBox="0 0 40 40"><title>E3C4_WarmFeet</title><g id="Icon"><path d="M2.83118,7.86049l.4886-.79194.3643.23012a3.22189,3.22189,0,0,1,.47037-.605c.66542-1.14684,1.386-3.87652,5.87912-2.16139C19.58821,8.18472,26.967,6.25168,27.39479,6.97007c2.42409,4.09417,8.09757,6.43864,9.78272,7.13413.88892.3725-2.27393,7.3267-4.47665,8.5308-.34918.18692-.04234.5736-.047.94219L31.30029,25.742l-9.19944-5.76668.89121-1.429a13.7319,13.7319,0,0,0-6.922-2.4187Z" fill="none" stroke="#fff" stroke-miterlimit="10" stroke-width="1.2" fill-rule="evenodd"/><path d="M5.01206,23.32958a10.10952,10.10952,0,0,0-.1994,1.81493,5.47033,5.47033,0,0,0,.5937,2.37017L6.171,29.37327a5.616,5.616,0,0,1,.38971,2.13463,8.68415,8.68415,0,0,1-1.85009,4.74772" fill="none" stroke="#fff" stroke-miterlimit="10" stroke-width="1.2"/><path d="M9.69746,23.32958a10.11043,10.11043,0,0,0-.1994,1.81493,5.47033,5.47033,0,0,0,.5937,2.37017l.76468,1.85859a5.616,5.616,0,0,1,.38971,2.13463,8.68415,8.68415,0,0,1-1.85009,4.74772" fill="none" stroke="#fff" stroke-miterlimit="10" stroke-width="1.2"/><path d="M14.38286,23.32958a10.11043,10.11043,0,0,0-.1994,1.81493,5.47033,5.47033,0,0,0,.5937,2.37017l.76468,1.85859a5.616,5.616,0,0,1,.38971,2.13463,8.68415,8.68415,0,0,1-1.85009,4.74772" fill="none" stroke="#fff" stroke-miterlimit="10" stroke-width="1.2"/><path d="M7.98059,23.43353h3.492l-1.70875-3.9909Zm6.47839-3.9909-1.78326,3.9909h3.492ZM3.28546,23.43353h3.492l-1.70874-3.9909Z" fill="#fff" fill-rule="evenodd"/></g></svg>