<svg xmlns="http://www.w3.org/2000/svg" viewBox="0 0 40 40"><title>E3C5_WarmHand</title><g id="Icon"><path d="M17.884,23.99121a2.08353,2.08353,0,0,0,.00683.3315,1.52464,1.52464,0,0,0,.6668,1.0246,1.77891,1.77891,0,0,0,1.40276.3363c1.27375-.29388,5.42111-1.02742,8.53593-1.50747,3.21277-.49773,5.9501-1.87321,6.68994-2.67568a14.00929,14.00929,0,0,0,2.68288-4.79161,6.4592,6.4592,0,0,0-.83824-4.11108c-.56172-1.242-3.31193-3.39012-4.21484-4.0961-.82283-.64318-5.57721-4.60122-6.24538-5.15733-1.12208-.45428-2.44117-.955-2.68212-.99635-1.22051-.19553-1.58628.04866-1.8647.60271a.75673.75673,0,0,0-.07483.60369,1.59572,1.59572,0,0,0,.909.75545c.68606.29989,1.95126.94806,1.95126.94806l2.448,1.93084a.59432.59432,0,0,1,.2231.43377.60136.60136,0,0,1-.17877.4534l-.12276.11948a.59053.59053,0,0,1-.74036.0682L22.46575,5.96766c-.53738-.14649-2.57683-.9551-3.12033-1.17013-.554-.2212-1.93927-.67887-2.70437.427a1.156,1.156,0,0,0-.24782.97439,1.386,1.386,0,0,0,.93626.73555c.9287.31683,3.03843.88582,3.03979.88592a.25243.25243,0,0,1,.09751.04875l3.35286,2.45252a.59436.59436,0,0,1,.19774.7385l-.06869.14505a.589.589,0,0,1-.35685.31156.5995.5995,0,0,1-.47188-.05065L18.51658,8.99048c-1.10822-.204-3.68791-.8098-4.14642-.85679-1.89882-.19656-2.44562.41641-2.68307,1.39834a.8794.8794,0,0,0,.107.74987,2.94231,2.94231,0,0,0,1.74007.87067l3.66009.47069a.59327.59327,0,0,1,.23017.07873L21.612,14.21875a.58855.58855,0,0,1,.26394.6682.6992.6992,0,0,1-.32753.41849.63312.63312,0,0,1-.50221.05213l-4.33574-1.876c-.39356-.06017-2.23762-.33872-2.94-.385-2.23091-.14209-2.50135.2-2.76166,1.29478a1.03391,1.03391,0,0,0,.12018.85432,2.5707,2.5707,0,0,0,1.72948.84677c.95961.14734,2.89926.325,2.90332.32524a.61649.61649,0,0,1,.182.04676c3.73837,1.63267,9.47926,4.123,9.47926,4.123a.56479.56479,0,0,1,.34793.63592.58892.58892,0,0,1-.529.49434,35.81039,35.81039,0,0,0-6.14263.943C18.25621,23.08817,17.923,23.43135,17.884,23.99121Z" fill="none" stroke="#fff" stroke-miterlimit="10" stroke-width="1.2"/><path d="M3.32528,25.25172a10.11138,10.11138,0,0,0-.19941,1.8151,5.47086,5.47086,0,0,0,.59375,2.37038L4.48437,31.296a5.6165,5.6165,0,0,1,.38975,2.13483,8.68492,8.68492,0,0,1-1.85026,4.74814" fill="none" stroke="#fff" stroke-miterlimit="10" stroke-width="1.2"/><path d="M8.01111,25.25172a10.11141,10.11141,0,0,0-.19942,1.8151,5.471,5.471,0,0,0,.59375,2.37038L9.1702,31.296a5.61651,5.61651,0,0,1,.38974,2.13483,8.685,8.685,0,0,1-1.85025,4.74814" fill="none" stroke="#fff" stroke-miterlimit="10" stroke-width="1.2"/><path d="M12.69693,25.25172a10.11138,10.11138,0,0,0-.19941,1.8151,5.47086,5.47086,0,0,0,.59375,2.37038L13.856,31.296a5.6165,5.6165,0,0,1,.38975,2.13483,8.68492,8.68492,0,0,1-1.85026,4.74814" fill="none" stroke="#fff" stroke-miterlimit="10" stroke-width="1.2"/><path d="M6.29407,25.35565H9.78638L8.07751,21.36444Zm6.479-3.99121-1.78345,3.99121h3.49231ZM1.59851,25.35565H5.09082L3.382,21.36444Z" fill="#fff" fill-rule="evenodd"/></g></svg>