<svg xmlns="http://www.w3.org/2000/svg" viewBox="0 0 40 40"><title>E3C6_Standklima_Timer_Laden</title><g id="Icon"><circle cx="15.5" cy="18.5" r="1.8" fill="#fff"/><line x1="15.5" y1="18.49979" x2="15.5" y2="8.39978" fill="none" stroke="#fff" stroke-miterlimit="3.8637" stroke-width="1.2"/><line x1="15.59951" y1="18.5" x2="7.29951" y2="18.5" fill="none" stroke="#fff" stroke-miterlimit="3.8637" stroke-width="1.2"/><path d="M2.79951,20.49979a12.61511,12.61511,0,1,1,23.1,5.1h1.4a13.76313,13.76313,0,0,0-5.1-18.8,14.23046,14.23046,0,0,0-4.5-1.6,13.8298,13.8298,0,0,0-16,11.2,14.78744,14.78744,0,0,0-.1,4.2c.8,6.5,7.2,11.9,14,11.9h2.5v-1.2h-2.5C9.49951,31.39978,3.59951,26.39978,2.79951,20.49979Z" fill="#fff"/><path d="M26.49951,35.69979h-4.5a3.8,3.8,0,0,1,0-7.6h4.5Z" fill="none" stroke="#fff" stroke-miterlimit="3.8637" stroke-width="1.2"/><path d="M26.69951,30.79978h3.9a.8.8,0,1,0,0-1.6h-3.9Z" fill="#fff"/><path d="M26.69951,34.59978h3.9a.8.8,0,1,0,0-1.6h-3.9Z" fill="#fff"/><path d="M34.69951,13.79979h3.3v1.3h-3.4v2h3.4v1.3h-3.4v3.4a2.74806,2.74806,0,0,1,1.2,2.2,2.6,2.6,0,1,1-5.2,0,2.35566,2.35566,0,0,1,1.1-2.1v-14.7a1.5,1.5,0,1,1,3,0v3.2h3.3v1.3h-3.4v2.1Z" fill="#fcfcfc"/></g></svg>