<svg xmlns="http://www.w3.org/2000/svg" viewBox="0 0 40 40"><title>E3C8_Fresh_Air</title><g id="Icon"><path d="M24.23456,17.09607l.01117,1.358a12.39688,12.39688,0,0,1-5.40583-.5564A16.6715,16.6715,0,0,1,13.581,15.265v.54664a10.83783,10.83783,0,0,0,4.906,3.55041,13.70776,13.70776,0,0,0,5.7735.88635l.00665,1.33173L26.72137,19.411Z" fill="#fff" fill-rule="evenodd"/><path d="M21.51788,12.70593a13.70766,13.70766,0,0,0-5.7735-.88635l-.00665-1.33173L13.28357,12.657l2.48682,2.31494L15.75916,13.614a12.39558,12.39558,0,0,1,5.40582.55634A16.67275,16.67275,0,0,1,26.424,16.803v-.54663A10.83825,10.83825,0,0,0,21.51788,12.70593Z" fill="#fff" fill-rule="evenodd"/><path d="M37.62988,18.41694c-.39941-1.38916-1.11426-1.48243-2.19726-1.623A12.90408,12.90408,0,0,1,33.88281,16.52a15.71916,15.71916,0,0,1-3.00293-1.37158,18.919,18.919,0,0,0-4.28222-1.86768c-.5437-.12628-1.17664-.22625-1.83722-.3117l2.01611,1.61957a21.43763,21.43763,0,0,1,3.54865,1.62378,16.26067,16.26067,0,0,0,3.26855,1.47216,14.17633,14.17633,0,0,0,1.68457.29981c1.0166.13183,1.0166.13183,1.19922.76465a16.86321,16.86321,0,0,1,.74023,4.563c-.00293.00293-.30468.31934-1.94922.32129l-.96972.08692-.10547.41211a2.99628,2.99628,0,0,1-2.98633,2.1748,3.161,3.161,0,0,1-3.06933-2.1709l-.125-.43554-.45313.001c-.001,0-3.35254.00684-8.44629.00684l-6.91211-.00488-.10937.46191a2.90886,2.90886,0,0,1-2.93116,2.14746,3.30913,3.30913,0,0,1-3.17041-2.084l-.13085-.38575-.40577-.02148s-1.33838-.07031-2.23681-.10156c-.5083-.01856-.51416-1.00684-.51416-1.01758a3.36592,3.36592,0,0,1,.4707-2.02832c.37158-.46436.79248-.99023,3.32031-1.53223,1.26953-.27246,4.34571-.75927,4.73047-.8208a2.02975,2.02975,0,0,0,.50684-.14551,1.9158,1.9158,0,0,0,.47216-.34326s.52173-.45221.87549-.76367l-.77844-.91345c-.34918.30749-.88379.7713-.88953.77624a1.39095,1.39095,0,0,1-.19384.15967,1.51055,1.51055,0,0,1-.21778.05127c-.5708.09033-3.48291.55274-4.75732.82617-2.48975.53418-3.30225,1.07764-4.00488,1.95508a4.40863,4.40863,0,0,0-.73438,2.77979c0,1.07324.51709,2.1748,1.67188,2.21582.59472.0205,1.3833.05859,1.84179.082a4.54554,4.54554,0,0,0,4.14453,2.51074,4.12941,4.12941,0,0,0,3.94922-2.60742l6.00342.00293c4.04,0,6.98438-.00391,8.03125-.00586a4.35643,4.35643,0,0,0,4.0625,2.60449,4.22,4.22,0,0,0,4.01367-2.666l.10157-.00977c2.03515,0,3.06933-.48633,3.07421-1.44629A17.34713,17.34713,0,0,0,37.62988,18.41694Z" fill="#fff"/></g></svg>