<svg xmlns="http://www.w3.org/2000/svg" viewBox="0 0 40 40"><title>E3CD_Air_distribution_mid_driver</title><g id="Icon"><polygon points="14.59 23.326 16.235 21.366 13.119 18.754 15.988 15.334 19.102 17.95 20.73 16.007 21.318 22.738 14.59 23.326" fill="#fff" fill-rule="evenodd"/><polygon points="25.899 11.11 25.897 11.116 25.899 11.112 25.899 11.11 25.899 11.11" fill="#fff"/><g opacity="0.98"><path d="M10.27259,37.97156A3.114,3.114,0,0,1,8.523,37.32665a3.1768,3.1768,0,0,1-1.0788-1.52183.73758.73758,0,0,1,.01157-.47317.69453.69453,0,0,1,.29078-.35808c3.26442-2.03094,6.62536-4.04847,9.99117-5.99781a3.735,3.735,0,0,1,2.56562-.4275c1.23257.24542,2.47366.48475,3.71232.7192A1.70044,1.70044,0,0,0,25.965,28.06169c.68876-2.4426,1.34889-4.86937,1.96273-7.21515a4.21172,4.21172,0,0,1,4.09415-3.15145,4.17938,4.17938,0,0,1,.69972.05876l.978.17082a2.07219,2.07219,0,0,1,1.61927,1.42561,2.092,2.092,0,0,1,.02923,1.12113c-.87753,3.43584-1.8111,6.907-2.7751,10.31606a5.83025,5.83025,0,0,1-5.62816,4.24761,5.76537,5.76537,0,0,1-1.04318-.09439c-2.14421-.39706-4.21472-.799-6.15523-1.1936a2.75277,2.75277,0,0,0-.538-.053,2.79808,2.79808,0,0,0-1.42135.38548c-2.04768,1.2076-3.916,2.33116-5.71159,3.43585a3.17337,3.17337,0,0,1-1.63175.461C10.38677,37.97643,10.32983,37.97461,10.27259,37.97156Z" fill="none" stroke="#fff" stroke-miterlimit="10" stroke-width="1.2" fill-rule="evenodd"/><path d="M33.68957,15.0202a2.89625,2.89625,0,1,1,2.89972-2.89635,2.89709,2.89709,0,0,1-2.89972,2.89635Z" fill="none" stroke="#fff" stroke-miterlimit="10" stroke-width="1.2" fill-rule="evenodd"/></g></g></svg>