<?xml version="1.0" encoding="UTF-8"?>
<svg id="Icon" xmlns="http://www.w3.org/2000/svg" viewBox="0 0 40 40">
  <defs>
    <style>
      .cls-1, .cls-2 {
        fill: #fff;
      }

      .cls-3, .cls-4 {
        fill: none;
        stroke: #fff;
        stroke-width: 1.2px;
      }

      .cls-5 {
        opacity: .45;
      }

      .cls-2 {
        opacity: .15;
      }

      .cls-4 {
        stroke-linejoin: round;
      }
    </style>
  </defs>
  <path class="cls-2" d="M40,19.99992l-.00622,5.47796-.01851,1.74794-.0308,1.26797-.04341,1.029-.0557,.87934-.0683,.77432-.0809,.69482-.09366,.63196-.10642,.58016-.11964,.53628-.13271,.49832-.14609,.46503-.15962,.43516-.17363,.40824-.18778,.38335-.20225,.36048-.21719,.33916-.23259,.31909-.24862,.30027-.26495,.28222-.28222,.26495-.30027,.24862-.31909,.23259-.33916,.21719-.36048,.20225-.3835,.18778-.40809,.17363-.43516,.15978-.46503,.14609-.49848,.13271-.53628,.11949-.58,.10642-.63196,.09366-.69482,.0809-.77432,.0683-.87949,.0557-1.02885,.04341-1.26797,.0308-1.74794,.01851-5.53926,.00622-5.41651-.00622-1.74794-.01851-1.26797-.0308-1.029-.04341-.87949-.0557-.77416-.0683-.69497-.0809-.63181-.09366-.58016-.10642-.53628-.11949-.49832-.13271-.46503-.14609-.43516-.15978-.40824-.17363-.38335-.18778-.36048-.20225-.33916-.21719-.31925-.23259-.30011-.24862-.28222-.26495-.26495-.28222-.24862-.30027-.23259-.31909-.21719-.33916-.20241-.36048-.18778-.38335-.17347-.40824-.15978-.43516-.14609-.46503-.13271-.49832-.11949-.53644-.10642-.58-.09366-.63196-.0809-.69482-.0683-.77432-.05585-.87934-.04325-1.029-.03096-1.26797-.01836-1.74809L0,19.91902l.00622-5.3969,.01836-1.74794,.03096-1.26797,.04325-1.029,.05585-.87934,.0683-.77432,.0809-.69497,.09366-.63181,.10642-.58016,.11949-.53628,.13271-.49832,.14609-.46503,.15978-.43516,.17363-.40824,.18763-.38335,.20241-.36048,.21719-.33916,.23259-.31909,.24862-.30027,.26495-.28222,.28222-.26495,.30027-.24862,.31909-.23259,.33916-.21719,.36048-.20225,.38335-.18794,.40824-.17347,.43516-.15978,.46503-.14609,.49832-.13255,.53628-.11964,.58016-.10642,.63181-.09366,.69497-.0809,.77432-.0683,.87934-.0557,1.029-.04341,1.26797-.0308,1.74809-.01851L20.09218,0l5.3857,.00622,1.74794,.01851,1.26797,.0308,1.029,.04341,.87934,.0557,.77432,.0683,.69482,.0809,.63196,.09366,.58016,.10642,.53628,.11964,.49832,.13255,.46503,.14609,.43516,.15978,.40809,.17363,.3835,.18778,.36048,.20225,.33916,.21719,.31909,.23259,.30027,.24862,.28222,.26495,.26495,.28222,.24862,.30027,.23259,.31909,.21719,.33916,.20225,.36048,.18778,.3835,.17363,.40809,.15962,.43516,.14609,.46503,.13271,.49832,.11964,.53644,.10642,.58,.09366,.63196,.0809,.69482,.0683,.77432,.0557,.87949,.04341,1.029,.0308,1.26797,.01851,1.74794,.00622,5.47765Z"/>
  <g class="cls-5">
    <path class="cls-1" d="M20.09214,1.2l5.37303,.00615,1.73151,.01824,1.24653,.03008,1.00373,.04208,.84975,.05346,.74098,.06489,.65768,.07598,.5914,.08694,.53536,.09731,.48908,.1081,.47252,.1257,.41257,.12961,.37983,.13947,.35099,.14933,.32476,.15902,.30087,.16881,.27899,.17866,.26006,.18956,.2429,.20112,.22736,.21345,.21345,.22736,.20112,.2429,.18956,.26006,.17866,.27899,.16881,.30087,.15902,.32476,.14922,.35073,.1394,.38001,.13013,.41422,.1138,.42368,.11056,.49177,.09968,.53938,.08874,.59483,.07749,.66148,.06606,.74473,.05437,.85422,.04269,1.00756,.03052,1.25155,.01845,1.73658,.00622,5.47493-.00615,5.46661-.01824,1.73151-.03008,1.24653-.04208,1.00373-.05346,.84975-.06489,.74098-.07598,.65768-.08694,.5914-.09731,.53536-.10801,.48876-.12585,.47258-.12972,.41291-.13945,.38015-.14915,.3507-.15899,.32455-.16887,.30098-.17866,.27899-.18956,.26006-.20112,.2429-.21345,.22736-.22736,.21345-.2429,.20112-.26006,.18956-.27899,.17866-.30087,.16881-.32476,.15902-.35099,.14933-.37983,.13947-.41396,.13005-.42378,.1138-.49184,.11047-.53938,.09968-.59483,.08874-.66148,.07749-.74473,.06606-.85423,.05437-1.0074,.04269-1.25154,.03052-1.73658,.01845-5.53653,.00622-5.40517-.00615-1.73151-.01824-1.24653-.03008-1.00374-.04208-.84988-.05346-.74087-.06489-.65776-.07598-.59129-.08694-.53567-.09738-.48845-.10779-.47258-.12585-.41284-.12969-.37997-.13952-.35095-.14926-.32455-.15898-.30098-.16887-.27913-.17875-.26001-.18943-.2427-.20105-.22747-.21355-.21345-.22736-.20112-.2429-.18956-.26006-.17879-.2792-.16895-.30088-.15879-.32417-.1492-.35113-.13955-.38005-.13011-.41416-.11373-.42335-.11048-.49208-.09968-.53938-.08874-.59483-.07749-.66148-.06607-.74496-.05451-.85364-.04255-1.00791-.03067-1.25128-.01829-1.73683-.00622-5.55599,.00615-5.38568,.01807-1.73125,.03026-1.24687,.0419-1.00332,.05363-.84997,.06489-.74101,.07598-.65776,.08694-.59129,.09738-.53567,.10779-.48845,.12585-.47258,.12969-.41284,.13948-.37988,.14942-.35135,.15871-.32426,.16887-.30075,.17879-.2792,.18956-.26006,.20112-.2429,.21345-.22736,.22736-.21345,.2429-.20112,.26006-.18956,.27899-.17866,.30119-.16898,.3242-.15894,.351-.14915,.38005-.13955,.41385-.13001,.42404-.11376,.4915-.11054,.53963-.09969,.59459-.08874,.66167-.07749,.74474-.06606,.85405-.05437,1.00757-.04269,1.25154-.03052,1.73672-.01845,5.56853-.00622m.00004-1.2l-5.56991,.00622-1.74809,.01852-1.26797,.0308-1.02901,.04341-.87933,.0557-.77432,.0683-.69498,.0809-.63181,.09366-.58015,.10641-.53629,.11964-.49832,.13256-.46503,.14609-.43515,.15978-.40824,.17347-.38335,.18794-.36048,.20225-.33916,.21719-.3191,.23259-.30027,.24862-.28222,.26495-.26495,.28222-.24862,.30027-.23259,.3191-.21719,.33916-.20241,.36048-.18763,.38334-.17362,.40825-.15978,.43515-.14609,.46503-.13271,.49832-.11949,.53629-.10641,.58015-.09366,.63181-.0809,.69498-.0683,.77432-.05586,.87933-.04325,1.02901-.03096,1.26797-.01836,1.74794-.00622,5.3969,.00622,5.55871,.01836,1.74809,.03096,1.26797,.04325,1.02901,.05586,.87933,.0683,.77432,.0809,.69482,.09366,.63197,.10641,.58,.11949,.53644,.13271,.49832,.14609,.46503,.15978,.43515,.17347,.40824,.18778,.38335,.20241,.36048,.21719,.33916,.23259,.3191,.24862,.30027,.26495,.28222,.28222,.26495,.30012,.24862,.31925,.23259,.33916,.21719,.36048,.20225,.38335,.18779,.40824,.17362,.43515,.15978,.46503,.14609,.49832,.13271,.53629,.11949,.58015,.10641,.63181,.09366,.69498,.0809,.77416,.0683,.87949,.0557,1.02901,.04341,1.26797,.0308,1.74794,.01852,5.4165,.00622,5.53926-.00622,1.74794-.01852,1.26797-.0308,1.02885-.04341,.87949-.0557,.77432-.0683,.69482-.0809,.63197-.09366,.58-.10641,.53628-.11949,.49848-.13271,.46503-.14609,.43515-.15978,.40809-.17362,.3835-.18779,.36048-.20225,.33916-.21719,.3191-.23259,.30027-.24862,.28222-.26495,.26495-.28222,.24862-.30027,.23259-.3191,.21719-.33916,.20225-.36048,.18779-.38335,.17362-.40824,.15963-.43515,.14609-.46503,.13271-.49832,.11964-.53629,.10641-.58015,.09366-.63197,.0809-.69482,.0683-.77432,.0557-.87933,.04341-1.02901,.0308-1.26797,.01852-1.74794,.00622-5.47796-.00622-5.47765-.01852-1.74793-.0308-1.26798-.04341-1.029-.0557-.87949-.0683-.77432-.0809-.69482-.09366-.63197-.10641-.58-.11964-.53644-.13271-.49832-.14609-.46503-.15963-.43515-.17362-.40809-.18779-.3835-.20225-.36048-.21719-.33916-.23259-.3191-.24862-.30027-.26495-.28222-.28222-.26495-.30027-.24862-.3191-.23259-.33916-.21719-.36048-.20225-.3835-.18779-.40809-.17362-.43515-.15978-.46503-.14609-.49832-.13256-.53629-.11964-.58015-.10641-.63197-.09366-.69482-.0809-.77432-.0683-.87933-.0557-1.02901-.04341-1.26797-.0308-1.74794-.01852-5.3857-.00622h0Z"/>
  </g>
  <path class="cls-3" d="M10.35533,18.67632v8.83028c0,2.03096,4.49744,4.12079,9.80905,4.12079s9.31859-2.08984,9.31859-4.12079v-8.83028"/>
  <path class="cls-4" d="M3.98559,16.01869l16.07195-7.11997,15.6751,7.11997-15.6751,6.10572L3.98559,16.01869Z"/>
  <path class="cls-3" d="M32.14366,26.51499l2.32027-3.09637,2.36536,3.09637"/>
  <path class="cls-3" d="M34.47498,16.6664v10.53945"/>
</svg>