<svg xmlns="http://www.w3.org/2000/svg" viewBox="0 0 40 40"><title>E46F_itm</title><g id="E46F_itm"><polygon points="12.506 4.997 6.997 4.997 5.012 7.99 11.01 7.99 11.01 21.999 14.003 21.999 14.003 7.99 18.015 7.99 20 4.997 12.506 4.997" fill="#fff"/><rect x="5.01233" y="9.9855" width="3.9801" height="12.01304" fill="#fff"/><polygon points="21.985 4.997 20 7.99 23.053 7.99 25.038 4.997 21.985 4.997" fill="#fff"/><polygon points="27.022 4.997 25.038 7.99 28.09 7.99 30.075 4.997 27.022 4.997" fill="#fff"/><polygon points="32.06 4.997 30.075 7.99 33.128 7.99 35.113 4.997 32.06 4.997" fill="#fff"/><rect x="15.98964" y="9.9855" width="3.00673" height="12.01304" fill="#ffca22"/><rect x="30.99556" y="13.99677" width="3.00673" height="8.00177" fill="#ffca22"/><rect x="23.99769" y="13.99677" width="1.9959" height="8.00177" fill="#ffca22"/><path d="M31.00879,21.99805V14.833a3.45126,3.45126,0,0,0-.12891-1.00489,1.7805,1.7805,0,0,0-.3916-.70214,1.56987,1.56987,0,0,0-.6582-.415,2.8709,2.8709,0,0,0-.92481-.13477,5.20715,5.20715,0,0,0-.71386.04688,4.46914,4.46914,0,0,0-.64746.14062,4.40671,4.40671,0,0,0-.58985.22168,3.86565,3.86565,0,0,0-.52344.292v8.72071H23.50391V14.833a3.37946,3.37946,0,0,0-.13184-1.00489,1.80814,1.80814,0,0,0-.39355-.70214,1.57614,1.57614,0,0,0-.65821-.415,2.87925,2.87925,0,0,0-.9248-.13477,5.18661,5.18661,0,0,0-.71387.04688,4.51124,4.51124,0,0,0-.64844.14062,4.18186,4.18186,0,0,0-.584.22168,3.68991,3.68991,0,0,0-.45285.29249v8.7207L15.999,21.99805,15.98964,9.9855h3.00673l-.00125,1.02329a2.29733,2.29733,0,0,1,.49707-.376,4.24672,4.24672,0,0,1,.8203-.44043,4.85207,4.85207,0,0,1,.93326-.26953,5.7296,5.7296,0,0,1,1.06445-.09277,5.645,5.645,0,0,1,1.126.10644,3.89871,3.89871,0,0,1,.95737.32032,3.337,3.337,0,0,1,.7793.53027,3.248,3.248,0,0,1,.59766.73242,5.14884,5.14884,0,0,1,.80761-.71289,5.19662,5.19662,0,0,1,2.03028-.86426,6.22431,6.22431,0,0,1,1.207-.1123,5.45613,5.45613,0,0,1,1.252.13476,3.82261,3.82261,0,0,1,1.03223.39844,3.141,3.141,0,0,1,.80273.6543,3.62259,3.62259,0,0,1,.57422.89844,4.88154,4.88154,0,0,1,.36956,1.12942,6.09754,6.09754,0,0,1,.15616,1.36716v7.58594Z" fill="#fff"/><path d="M19.9707,37.02441V25.58984l-3.45312.59766V24.794l4.10351-.80372h1.042V37.02441Z" fill="#fff"/></g></svg>