<svg xmlns="http://www.w3.org/2000/svg" viewBox="0 0 40 40"><g id="E46F_itm_0"><rect x="4.53823" y="17.25558" width="4.17975" height="12.61567" fill="#fff"/><polygon points="22.362 12.017 20.278 15.16 23.484 15.16 25.568 12.017 22.362 12.017" fill="#fff"/><polygon points="32.943 12.017 30.858 15.16 34.064 15.16 36.148 12.017 32.943 12.017" fill="#fff"/><line x1="32.98283" y1="9.01288" x2="9.03433" y2="32.96137" fill="none" stroke="#fff" stroke-miterlimit="10" stroke-width="1.5"/><polygon points="10.836 27.977 13.979 24.834 13.979 15.16 18.193 15.16 20.278 12.017 12.408 12.017 6.623 12.017 4.538 15.16 10.836 15.16 10.836 27.977" fill="#fff"/><path d="M21.62744,17.18616c-.01269.00232-.02881.0011-.0415.00354a5.09443,5.09443,0,0,0-.98.2832,4.45273,4.45273,0,0,0-.86133.4624,2.39758,2.39758,0,0,0-.522.3949l.001-1.07458H16.06641l.0039,5.48742Z" fill="#fff"/><path d="M34.81836,20.469a5.12262,5.12262,0,0,0-.38818-1.186,3.78752,3.78752,0,0,0-.603-.9436,3.29869,3.29869,0,0,0-.84277-.687,4.01992,4.01992,0,0,0-1.084-.41845,5.72885,5.72885,0,0,0-1.31494-.1416,6.546,6.546,0,0,0-1.26758.11792,5.45074,5.45074,0,0,0-2.13183.90771,5.3893,5.3893,0,0,0-.84815.74866l-.01221-.015-2.49463,2.49475a3.59578,3.59578,0,0,1,.12647.99988v7.52454h3.07373V20.71252a4.02608,4.02608,0,0,1,.54932-.30664,4.64919,4.64919,0,0,1,.61963-.23278,4.70737,4.70737,0,0,1,.67968-.14771,5.49334,5.49334,0,0,1,.75-.04919,3.01838,3.01838,0,0,1,.97119.14148,1.6497,1.6497,0,0,1,.69092.43591,1.87045,1.87045,0,0,1,.41162.73743,3.63683,3.63683,0,0,1,.13526,1.05517v7.52454l3.14355.00049V21.90479A6.398,6.398,0,0,0,34.81836,20.469Z" fill="#fff"/><polygon points="16.075 29.102 16.076 29.871 19.224 29.871 19.224 25.953 16.075 29.102" fill="#fff"/></g></svg>