<svg xmlns="http://www.w3.org/2000/svg" viewBox="0 0 40 40"><title>E47B_Panorama_View_1</title><g id="E47C_Einparkhilfe_Splines"><path d="M30.5,19.57214v12.491c0,4.41777-.81343,5.25113-2.56633,6.3229a4.20949,4.20949,0,0,1-4.2474-.00087c-1.26821-.89339-1.57064-2.43088-3.39015-3.76271a8.07051,8.07051,0,0,0-4.24022-1.249C12.785,33.03789,9.5,32.22077,9.5,29.40411v-9.8283" fill="none" stroke="#fff" stroke-miterlimit="10" stroke-width="1.2"/><path d="M20.2099,22.66333A21.02418,21.02418,0,0,1,17.085,22.4436l-.52429,3.598a11.36443,11.36443,0,0,0,3.651.52148,11.36648,11.36648,0,0,0,3.65106-.52148l-.52643-3.598A21.0522,21.0522,0,0,1,20.2099,22.66333Zm.00073-11.442a10.31024,10.31024,0,0,1,3.13794.51673l1.041-4.43384a9.93242,9.93242,0,0,0-4.17786-.74109,9.9309,9.9309,0,0,0-4.17792.74109L17.07269,11.738A10.31062,10.31062,0,0,1,20.21063,11.22131Zm3.99951,2.02759-.00634-.67834a17.0042,17.0042,0,0,1-.9,2.2135,32.96428,32.96428,0,0,0-.0542,3.89319c.08008.96411.81452,3.21069.94788,3.89331l-.00037-.09327c-.00305-.64538.01435-1.39843-.00122-2.18505C24.1803,19.49207,24.21985,16.41333,24.21014,13.2489Zm-7.03729,5.42883a32.20245,32.20245,0,0,0-.05542-3.89331,17.7872,17.7872,0,0,1-.8938-2.2135l-.00653.67835c.0177,3.148.01728,6.24316.00128,7.04333-.01587.78662.002,1.53968-.00128,2.18506l-.0003.09326C16.35321,21.88818,17.09094,19.6416,17.17285,18.67773Z" fill="#fff" fill-rule="evenodd"/><path d="M20,2.23926a10.78523,10.78523,0,0,1,4.90952.98169,5.70243,5.70243,0,0,1,.93786,1.91333c.07681.45459.04892,3.02356.02194,5.50781-.02411,2.22058-.05143,4.73743-.03329,7.16394.011,1.47681.01993,2.64258.03151,3.09082.00923.35852.023.71069.03689,1.06641a9.08882,9.08882,0,0,1-.149,3.01574,3.86917,3.86917,0,0,0-.13234.5199c-.20713.96777-.49649,1.94373-1.53647,2.316A11.28736,11.28736,0,0,1,20,28.36316a11.28682,11.28682,0,0,1-4.08565-.54785c-1.041-.37268-1.33034-1.34864-1.53747-2.31629a3.73288,3.73288,0,0,0-.14315-.54821,9.267,9.267,0,0,1-.13755-3.00293c.0133-.34034.027-.69251.03628-1.05091.01158-.44836.02046-1.61413.0316-3.10437.01805-2.41308-.00927-4.92993-.03338-7.15051-.027-2.48425-.05487-5.05322.01851-5.48987a6.0349,6.0349,0,0,1,.905-1.90906A10.74862,10.74862,0,0,1,20,2.23926m0-1.19995A12.142,12.142,0,0,0,14.49211,2.183c-.76291.40454-1.461,2.395-1.52193,2.74671-.168.97033.03562,7.278-.00608,12.854-.011,1.47254-.0197,2.63574-.03124,3.08228-.00923.3584-.02307.71032-.03636,1.05a9.38082,9.38082,0,0,0,.22266,3.47949c.01988.05371.05712.22766.08429.35461a3.89426,3.89426,0,0,0,2.3065,3.195A12.413,12.413,0,0,0,20,29.56311a12.413,12.413,0,0,0,4.49005-.618,3.89426,3.89426,0,0,0,2.3065-3.195c.02717-.127.06441-.3009.08429-.35461A9.38082,9.38082,0,0,0,27.1035,21.916c-.01329-.33973-.02713-.69165-.03636-1.05-.01154-.44654-.02022-1.60974-.03124-3.08228-.0417-5.57605.16188-11.88367-.00608-12.854-.0609-.35169-.759-2.34217-1.52193-2.74671A12.142,12.142,0,0,0,20,1.03931Z" fill="#fff"/><path d="M28.63949,12.93293a.54347.54347,0,0,0,.52179-.41876,1.04228,1.04228,0,0,0-.501-1.241s-1.69151-.71008-1.77725-.71008a.49469.49469,0,0,0-.504.50514l-.00245.42918a.85547.85547,0,0,0,.51383.73214A14.53176,14.53176,0,0,0,28.63949,12.93293Z" fill="#fff" fill-rule="evenodd"/><path d="M11.36619,12.93293a.54347.54347,0,0,1-.52179-.41876,1.04228,1.04228,0,0,1,.501-1.241s1.69151-.71008,1.77725-.71008a.49469.49469,0,0,1,.504.50514l.00245.42918a.85547.85547,0,0,1-.51383.73214A14.53176,14.53176,0,0,1,11.36619,12.93293Z" fill="#fff" fill-rule="evenodd"/></g></svg>