<?xml version="1.0" encoding="UTF-8"?>
<svg id="Layer_1" data-name="Layer 1" xmlns="http://www.w3.org/2000/svg" viewBox="0 0 40 40">
  <defs>
    <style>
      .cls-1 {
        fill: #fff;
      }

      .cls-2 {
        stroke-width: 1.2px;
      }

      .cls-2, .cls-3 {
        fill: none;
        stroke: #fff;
        stroke-miterlimit: 10;
      }

      .cls-3 {
        stroke-width: 1.2px;
      }
    </style>
  </defs>
  <path class="cls-2" d="M13.51402,5.12406c-4.97056,0-9,4.02944-9,9s4.02944,9,9,9c4.97009,0,8.99933-4.02869,9-8.99878-.00466-4.96883-4.03117-8.99589-9-9.00122Z"/>
  <g>
    <path class="cls-3" d="M4.44304,5.28697h0C-.33239,10.15882-.37448,17.94291,4.348,22.86611l.09504,.09504"/>
    <path class="cls-3" d="M22.585,5.28697h0c4.77542,4.87186,4.81751,12.65594,.09504,17.57915l-.09504,.09504"/>
  </g>
  <path class="cls-1" d="M39.75359,34.79501h-13.46336c-.1895,.241-.27342,.53189-.23686,.821,0,0,.02518,.379,.3316,.379h13.25552c.36577,0,.39575-.379,.39575-.379,.04067-.29536-.06149-.59213-.28264-.821Z"/>
  <path class="cls-1" d="M33.04337,16.87559c.0384,.01837,.06915,.05089,.08492,.09169,1.02686,4.46238,2.88968,11.96391,3.68273,15.14065l-7.54074,.00103c.77455-3.17227,2.60435-10.67711,3.66048-15.09707,.0139-.06176,.05681-.11174,.11261-.1363m.00285-1.21445h-.00002c-.62375,.03381-1.14908,.47794-1.28618,1.08737-1.36976,5.73204-4.01826,16.56065-4.01826,16.56065l10.60646-.00145s-2.72978-10.86516-4.06047-16.65289c-.15941-.56221-.65804-.96131-1.24153-.99368h0Z"/>
  <path class="cls-1" d="M16.77207,18.23565l-.96582-2.64502h-4.6543l-.9624,2.64502h-1.3877l3.96582-10.41846h1.46826l3.99023,10.41846h-1.4541Zm-2.87695-7.93848c-.07959-.20361-.15576-.41797-.22803-.64307-.07275-.22461-.13232-.45654-.1792-.69531-.0542,.23877-.11963,.47021-.19678,.69385s-.15088,.43848-.22119,.64453l-1.51758,4.14502h3.84277l-1.5-4.14502Z"/>
</svg>