<svg xmlns="http://www.w3.org/2000/svg" viewBox="0 0 40 40"><defs><style>.cls-1{fill:none;stroke:#fff;stroke-miterlimit:10;stroke-width:1.2px;}.cls-2{fill:#fff;}</style></defs><g id="Icon"><g id="V3"><polyline class="cls-1" points="1.5 29 1.5 7.5 30.5 7.5 30.5 17"/><polygon class="cls-2" points="8.6 19.9 8.6 19.2 5.3 19.2 5.5 20.4 8.3 20.4 8.6 19.9"/><polygon class="cls-2" points="23.4 19.9 23.4 19.2 26.7 19.2 26.5 20.4 23.7 20.4 23.4 19.9"/><rect class="cls-2" x="6.5" y="22.1" width="4.5" height="1.2"/><rect class="cls-2" x="21" y="22.1" width="4.5" height="1.2"/><line class="cls-1" x1="7" y1="20.5" x2="25" y2="20.5"/><path class="cls-1" d="M8.1,20v-.7s1.5-2.8,2.6-2.9,4.3-.2,5.3-.2a46.95412,46.95412,0,0,1,5.3.2c1,.2,2.6,2.9,2.6,2.9V20"/><path class="cls-1" d="M8.1,20,6.5,21v6.8a.78874.78874,0,0,0,.8.8H9.8a.78874.78874,0,0,0,.8-.8V26.5h11v1.3a.78874.78874,0,0,0,.8.8h2.5a.78874.78874,0,0,0,.8-.8V21l-1.6-1"/><path class="cls-2" d="M33.8,20h-4V32.9h1.8V27.1h2.2c2.4,0,4.4-.7,4.4-3.5C38.2,20.86084,36.12488,20,33.8,20Zm.7,5.8H31.6V21.3h2.9a2.28539,2.28539,0,0,1,2.3,2.25A2.25007,2.25007,0,0,1,34.5,25.8Z"/></g></g></svg>