<svg id="Ebene_1" data-name="Ebene 1" xmlns="http://www.w3.org/2000/svg" viewBox="0 0 40 40"><defs><style>.cls-1,.cls-3{fill:none;stroke:#fff;}.cls-1{stroke-width:1.2px;}.cls-2{fill:#fff;}.cls-3{stroke-width:3px;}</style></defs><path class="cls-1" d="M32.132,19.81563c-6.59476.62662-6.92994-3.4965-11.98583-1.426V9.48913c5.05589-2.0705,5.39107,2.43862,11.98583,1.8115Z"/><path class="cls-2" d="M20.32888,12.51046s.82067-.20085,1.57932-.439a2.94745,2.94745,0,0,1,1.53923-.0516v2.7454a8.75871,8.75871,0,0,0-1.06446-.031,6.72127,6.72127,0,0,0-1.95069.51606Z"/><path class="cls-2" d="M26.29466,10.35817c-.74312-.3406-1.6617-.836-1.98165-.93922-.35211-.11358-.86708-.24885-.86708-.24885l.0015,2.84976a6.50747,6.50747,0,0,1,1.31338.33878,15.16682,15.16682,0,0,1,1.52.77872C26.29112,13.127,26.29466,10.35817,26.29466,10.35817Z"/><path class="cls-2" d="M26.296,13.16724l.599.264a11.98316,11.98316,0,0,0,1.72727.58876l.52032.08672.00042,2.66886-.41658-.108a15.86625,15.86625,0,0,1-2.43776-.89487v-.01543Z"/><path class="cls-2" d="M23.44593,14.76527a5.43855,5.43855,0,0,1,1.22832.289c.37786.1547,1.40366.5883,1.62041.70183v2.87958l-2.84873-.76376Z"/><path class="cls-2" d="M29.14593,11.318V14.1037a10.95618,10.95618,0,0,0,1.51143.16714c.48622.0047,1.41369-.04457,1.41369-.04457l-.1-2.8971L29.27434,11.318"/><path class="cls-2" d="M32.2232,19.77331c-.0095-.61374-.026-2.87543-.0332-2.88974a12.23317,12.23317,0,0,1-3.052-.10321l.0055,3.09384.65729.09421A8.59967,8.59967,0,0,0,32.2232,19.77331Z"/><path class="cls-2" d="M17.9939,23.0827V9.61041h-1.2V21.88074A10.1639,10.1639,0,0,0,17.9939,23.0827Z"/><path class="cls-2" d="M16.79388,27.39923v2.63733h1.2V28.0918Q17.37564,27.77374,16.79388,27.39923Z"/><path class="cls-1" d="M24.49927,3.2156a12.17955,12.17955,0,1,1-.0011,0Z"/><path class="cls-3" d="M15.51593,24.3245l-11,11"/></svg>