<?xml version="1.0" encoding="UTF-8"?>
<svg id="Ebene_1" data-name="Ebene 1" xmlns="http://www.w3.org/2000/svg" viewBox="0 0 40 40">
  <defs>
    <style>
      .cls-1 {
        fill: #fff;
      }

      .cls-2 {
        fill: none;
        stroke: #fff;
        stroke-miterlimit: 10;
        stroke-width: 1.2px;
      }
    </style>
  </defs>
  <g id="E3E4_fod_infotainment" data-name="E3E4 fod infotainment">
    <g id="_1-5" data-name=" 1-5">
      <path class="cls-2" d="M31.22872,37.69444s-1.42198-3.3903-2.38875-3.193c-1.25373,.25592-4.72941-2.63989-5.37383-3.20394l-.43365-.42597c-1.22278-1.2553-2.86339-2.0187-4.61121-2.14565-3.25399,.01375-1.68806-2.03943-1.61823-2.09942,2.14483-1.88266,3.51754-1.87544,6.17413-.88045,.3314-.25191-.28537-1.35127-.28537-1.35127l-5.28517-11.33409c-.39046-.83734-.44684-1.79978,.3979-2.19369l.81437-.37975c.84472-.3939,1.74048,.51135,2.13092,1.34865l4.20807,9.01843"/>
      <path class="cls-2" d="M30.47345,17.09208c-.44011-.72965-.20539-1.67792,.52426-2.11803,.00526-.00317,.01054-.00631,.01583-.00942,1.04389-.48677,1.82263-.13809,2.45327,1.1066,0,0,4.59725,9.83454,4.82812,10.32964,.47043,1.00883-.99521,2.88684-.50921,3.92908l1.64964,3.53765"/>
      <path class="cls-2" d="M26.80611,16.41064c-.39805-.85362,.11722-1.48707,.82615-1.81988,.65449-.38974,1.50102-.17512,1.89076,.47937,.02723,.04573,.0518,.093,.07357,.14157l2.03294,4.35966"/>
      <path class="cls-2" d="M23.02285,16.70453c-.44423-.75379-.19328-1.72497,.5605-2.16919,.0661-.03895,.13494-.07306,.20599-.10204,.86046-.47414,1.94237-.16097,2.41651,.69949,.02151,.03903,.04154,.07886,.06006,.1194l2.30457,4.94217"/>
    </g>
  </g>
  <line class="cls-2" x1="16.98936" y1="6.5" x2="8.31864" y2="6.5"/>
  <polygon class="cls-1" points="8.96296 10.59627 8.96296 2.37127 0 6.48327 8.96296 10.59627"/>
</svg>