<svg xmlns="http://www.w3.org/2000/svg" viewBox="0 0 40 40"><g id="E665_seats_tiles_massage"><path d="M8.11676,37.23659a2.20086,2.20086,0,0,1-2.146-1.779L5.2438,31.35524c0-1.17051,1.29548-1.9864,2.50852-1.9864l3.71371.00261,1.48915-.00261a21.09746,21.09746,0,0,1,6.553,1.20846,27.24,27.24,0,0,0,8.77557,1.49111c.16,0,.32223-.00131.48122-.00393a.33532.33532,0,0,1,.28625.12824.84807.84807,0,0,1-.18516.38079l-.02977.03468-1.57486,3.34338a2.21769,2.21769,0,0,1-2.01192,1.28632ZM29.578,11.85678a3.0267,3.0267,0,0,1,2.375-1.24819l1.2186-.0651a1.62549,1.62549,0,0,1,1.58467,1.619,37.78581,37.78581,0,0,1-.95035,7.76732,33.53477,33.53477,0,0,1-2.90959,8.523,1.348,1.348,0,0,1-1.21075.77467H26.4877a1.33279,1.33279,0,0,1-1.31936-1.34259m4.808-19.52346a.84448.84448,0,0,1-.63269-.25746.80747.80747,0,0,1-.2205-.59965c.00916-.81.00491-1.47345.001-2.10189-.00359-.6-.00719-1.16822.00131-1.80189a.84122.84122,0,0,1,.94839-.83846l.11875.00229c2.48627,0,3.85372,1.49045,3.95481,4.30976a.85144.85144,0,0,1-.75079.792c-1.38119.15474-3.0447.44655-3.22627.47894a1.18171,1.18171,0,0,1-.19366.01636Z" fill="none" stroke="#fff" stroke-miterlimit="10" stroke-width="1.2" fill-rule="evenodd"/><path d="M29.429,15.89228a1.23345,1.23345,0,0,1-1.64968-.64679,1.30885,1.30885,0,0,1,.63106-1.70416A1.23448,1.23448,0,0,1,30.06,14.1839,1.30866,1.30866,0,0,1,29.429,15.89228Zm-3.51224,3.29093A1.2107,1.2107,0,0,1,24.71,17.93036a1.27372,1.27372,0,0,1,1.259-1.25621,1.2005,1.2005,0,0,1,1.20482,1.24751A1.28685,1.28685,0,0,1,25.91674,19.18321Zm.27832,5.91739A1.28045,1.28045,0,0,1,24.931,26.34221a1.20583,1.20583,0,0,1-1.21718-1.2315,1.27943,1.27943,0,0,1,1.26688-1.24049A1.19814,1.19814,0,0,1,26.19506,25.1006Zm1.507-4.44633a1.21284,1.21284,0,0,1,1.21465,1.23263A1.29153,1.29153,0,0,1,27.64337,23.131a1.19558,1.19558,0,0,1-1.20763-1.23431A1.2751,1.2751,0,0,1,27.70207,20.65427Z" fill="#fff" fill-rule="evenodd"/></g></svg>