<svg xmlns="http://www.w3.org/2000/svg" viewBox="0 0 40 40"><g id="E762_specialflag_20x20"><g id="Version_2"><path d="M27.50478,32.20379c-6.59476.62662-6.92994-3.4965-11.98583-1.426v-8.9005c5.05589-2.0705,5.39107,2.43862,11.98583,1.8115Z" fill="none" stroke="#fff" stroke-width="1.2"/><path d="M15.70168,24.89862s.82067-.20085,1.57932-.439a2.94745,2.94745,0,0,1,1.53923-.0516v2.7454a8.75869,8.75869,0,0,0-1.06446-.031,6.72127,6.72127,0,0,0-1.95069.51606Z" fill="#fff"/><path d="M21.66746,22.74633c-.74312-.3406-1.6617-.836-1.98165-.93922-.35211-.11358-.86708-.24885-.86708-.24885l.0015,2.84976a6.50747,6.50747,0,0,1,1.31338.33878,15.16682,15.16682,0,0,1,1.52.77872C21.66392,25.5152,21.66746,22.74633,21.66746,22.74633Z" fill="#fff"/><path d="M21.66883,25.5554l.59895.264a11.98274,11.98274,0,0,0,1.72727.58876l.52032.08672.00042,2.66886-.41658-.108a15.86625,15.86625,0,0,1-2.43776-.89487v-.01543Z" fill="#fff"/><rect x="12.16667" y="21.99859" width="1.2" height="17" fill="#fff"/><path d="M18.81873,27.15343a5.43855,5.43855,0,0,1,1.22832.289c.37786.1547,1.40366.5883,1.62041.70183v2.87958l-2.84873-.76376Z" fill="#fff"/><path d="M24.51873,23.70619v2.78567a10.95618,10.95618,0,0,0,1.51143.16714c.48622.0047,1.41369-.04457,1.41369-.04457l-.1-2.8971-2.69671-.01114" fill="#fff"/><path d="M27.596,32.16147c-.0095-.61374-.026-2.87543-.0332-2.88974a12.23327,12.23327,0,0,1-3.05206-.10321l.0055,3.09384.65729.09421A8.59974,8.59974,0,0,0,27.596,32.16147Z" fill="#fff"/></g></g></svg>