<svg xmlns="http://www.w3.org/2000/svg" viewBox="0 0 40 40"><title>E031_radio_fm</title><g id="E031_radio_fm"><g style="isolation:isolate"><path d="M10.14058,36.72224v-11h6.65323v1.17941H11.58572v3.86462H16.381v1.17941H11.58572v4.77656Z" fill="#fff"/><path d="M28.44919,36.72224V29.0938c0-.2474.00349-.50964.01221-.78628.00873-.27707.02618-.54542.05062-.805-.10647.2522-.22777.51443-.36129.78627q-.20158.40776-.377.69726l-2.8641,4.647h-.92678L21.131,28.986c-.062-.10123-.12741-.21205-.19461-.332s-.13439-.24347-.20071-.37088-.13177-.257-.19722-.38921-.12479-.26268-.18065-.39139c.02618.27183.04364.54323.055.8142q.017.40578.01658.77711v7.62844H19.02261v-11H20.644L23.852,31.00756c.11694.19286.22513.38921.32289.58949s.1885.40667.274.61916a6.49568,6.49568,0,0,1,.27053-.6209,5.87659,5.87659,0,0,1,.33685-.59167l3.2088-5.2814h1.59437v11Z" fill="#fff"/></g><path d="M20,14.30469a8.62058,8.62058,0,0,0-7.67377,4.67358c.50959.25452.59516.29736,1.07245.53577A7.42114,7.42114,0,0,1,20,15.50391Z" fill="#fff"/><path d="M20,2.40234A20.62516,20.62516,0,0,0,1.62677,13.63184c.13922.06958.83923.41943,1.07233.53588A19.42491,19.42491,0,0,1,20,3.60156Z" fill="#fff"/><path d="M20,8.35352A14.60132,14.60132,0,0,0,6.99054,16.312c.48212.241.55945.27954,1.0722.53589A13.4006,13.4006,0,0,1,20,9.55273Z" fill="#fff"/><path d="M23.87976,15.24817a8.6861,8.6861,0,0,0-1.9259-.70117l-.31452,1.156a7.489,7.489,0,0,1,1.625.573Z" fill="#fff"/><path d="M25.78485,16.55005l-.89813.804a7.29455,7.29455,0,0,1,1.7146,2.16l1.07245-.53577A8.48551,8.48551,0,0,0,25.78485,16.55005Z" fill="#fff"/><path d="M26.942,10.13379a14.53415,14.53415,0,0,0-3.42151-1.34424l-.31476,1.15674a13.34089,13.34089,0,0,1,3.12121,1.2146Z" fill="#fff"/><path d="M30.24792,12.55518l-.89666.80261a13.33553,13.33553,0,0,1,2.586,3.49011l1.0722-.53589A14.54361,14.54361,0,0,0,30.24792,12.55518Z" fill="#fff"/><path d="M30.01294,5.00464A20.58369,20.58369,0,0,0,25.08325,3.0459l-.31476,1.15661a19.34711,19.34711,0,0,1,4.61756,1.84925Z" fill="#fff"/><path d="M33.80737,9.36914a19.31034,19.31034,0,0,1,3.49353,4.79858l1.07233-.53588a20.51376,20.51376,0,0,0-3.669-5.06543Z" fill="#fff"/></g></svg>