<svg xmlns="http://www.w3.org/2000/svg" viewBox="0 0 40 40"><title>E033_radio_dab</title><g id="E033_radio_dab"><g style="isolation:isolate"><path d="M5.68739,36.72224v-11H9.28192a6.66583,6.66583,0,0,1,1.65281.18719,4.56763,4.56763,0,0,1,1.28546.53233,3.74787,3.74787,0,0,1,.95121.83645,4.42135,4.42135,0,0,1,.64578,1.10131,6.04856,6.04856,0,0,1,.3639,1.32427,9.56627,9.56627,0,0,1,.11432,1.50754,9.16064,9.16064,0,0,1-.11868,1.50536,6.0005,6.0005,0,0,1-.37263,1.3282,4.46427,4.46427,0,0,1-.65887,1.10654,3.80279,3.80279,0,0,1-.97041.84388,4.66467,4.66467,0,0,1-1.30725.53756,6.76692,6.76692,0,0,1-1.67553.18937ZM9.124,35.57293a4.88722,4.88722,0,0,0,1.179-.13177,3.29038,3.29038,0,0,0,.93376-.384,2.73926,2.73926,0,0,0,.70773-.62484,3.32063,3.32063,0,0,0,.48957-.85347,4.99688,4.99688,0,0,0,.28362-1.06814,8.30317,8.30317,0,0,0,.09163-1.27716,8.5152,8.5152,0,0,0-.08989-1.27933,5.01754,5.01754,0,0,0-.28013-1.07775,3.32745,3.32745,0,0,0-.48171-.85652,2.67407,2.67407,0,0,0-.70337-.627,3.28369,3.28369,0,0,0-.93987-.38572A4.94652,4.94652,0,0,0,9.124,26.87547H7.13166v8.69746Z" fill="#fff"/><path d="M23.93927,36.72224,22.90691,33.9297h-4.9716l-1.028,2.79254H15.42464l4.23681-11h1.56818l4.263,11Zm-3.07354-8.38156c-.08465-.21511-.16668-.44157-.24347-.67893a6.41417,6.41417,0,0,1-.192-.73392,6.92616,6.92616,0,0,1-.20944.73217q-.12436.35409-.2365.68068l-1.62142,4.376h4.105Z" fill="#fff"/><path d="M27.354,36.72224v-11h3.29782a6.51864,6.51864,0,0,1,1.68861.19461,3.36623,3.36623,0,0,1,1.2008.56767,2.309,2.309,0,0,1,.71733.91979,3.13772,3.13772,0,0,1,.23649,1.25141,2.99531,2.99531,0,0,1-.09948.79587,2.31984,2.31984,0,0,1-.28536.64883,2.2106,2.2106,0,0,1-.45641.51008,2.81809,2.81809,0,0,1-.61523.38223,3.45724,3.45724,0,0,1,.83863.4263,2.75283,2.75283,0,0,1,.62833.60432,2.56465,2.56465,0,0,1,.39444.76751,2.99006,2.99006,0,0,1,.13527.91282,3.51922,3.51922,0,0,1-.10123.86045,2.58144,2.58144,0,0,1-.31155.73566,2.42924,2.42924,0,0,1-.53494.59952,3.06978,3.06978,0,0,1-.7697.44681,4.75436,4.75436,0,0,1-1.01055.28013,7.63959,7.63959,0,0,1-1.2645.096Zm3.24895-6.134a4.288,4.288,0,0,0,1.10218-.12261,1.922,1.922,0,0,0,.74439-.363,1.411,1.411,0,0,0,.42237-.59559,2.29839,2.29839,0,0,0,.13264-.81377,1.75957,1.75957,0,0,0-.15533-.75311,1.461,1.461,0,0,0-.473-.56549,2.30164,2.30164,0,0,0-.80285-.3543,4.71617,4.71617,0,0,0-1.14233-.12218H28.7983v3.69009Zm.29322,4.962a4.89747,4.89747,0,0,0,1.19119-.12741,2.33377,2.33377,0,0,0,.8238-.36913,1.48318,1.48318,0,0,0,.47822-.59167,1.94194,1.94194,0,0,0,.15621-.79588,2.19026,2.19026,0,0,0-.14486-.81245,1.5305,1.5305,0,0,0-.4503-.61873,2.12261,2.12261,0,0,0-.78017-.39313,4.12139,4.12139,0,0,0-1.13534-.137H28.7983v3.84541Z" fill="#fff"/></g><path d="M13.88086,16.86523a8.56375,8.56375,0,0,0-1.55463,2.113c.50959.25452.59516.29736,1.07245.53577A7.36187,7.36187,0,0,1,14.73914,17.699Z" fill="#fff"/><path d="M9.60291,12.71021A14.5722,14.5722,0,0,0,6.99054,16.312c.48212.241.55945.27954,1.0722.53589a13.371,13.371,0,0,1,2.39917-3.30347Z" fill="#fff"/><path d="M5.31805,8.54822a20.5794,20.5794,0,0,0-3.69128,5.08362c.13922.06958.83923.41943,1.07233.53588a19.37141,19.37141,0,0,1,3.47809-4.785Z" fill="#fff"/><path d="M18.79718,14.395a8.67753,8.67753,0,0,0-3.01166,1.02466l.59284,1.03943a7.4728,7.4728,0,0,1,2.58844-.87781Z" fill="#fff"/><path d="M17.95453,8.50049a14.55749,14.55749,0,0,0-5.1239,1.73865l.59356,1.04065a13.36338,13.36338,0,0,1,4.7-1.59253Z" fill="#fff"/><path d="M17.11237,2.60938A20.57051,20.57051,0,0,0,9.87756,5.06152l.59363,1.0409a19.37662,19.37662,0,0,1,6.81085-2.306Z" fill="#fff"/><path d="M25.30011,17.739a7.34607,7.34607,0,0,1,1.30121,1.775l1.07245-.53577a8.54931,8.54931,0,0,0-1.5091-2.06616Z" fill="#fff"/><path d="M24.27533,15.44458a8.59057,8.59057,0,0,0-3.092-1.05615l-.16687,1.18725a7.398,7.398,0,0,1,2.65759.90479Z" fill="#fff"/><path d="M29.59741,13.62842a13.34463,13.34463,0,0,1,2.33985,3.21948l1.0722-.53589a14.54786,14.54786,0,0,0-2.54773-3.51025Z" fill="#fff"/><path d="M27.26208,10.29993a14.50788,14.50788,0,0,0-5.25042-1.80628L21.84479,9.681a13.32188,13.32188,0,0,1,4.8161,1.65442Z" fill="#fff"/><path d="M30.25879,5.13818A20.51917,20.51917,0,0,0,22.8399,2.59985L22.673,3.78735A19.334,19.334,0,0,1,29.6571,6.17456Z" fill="#fff"/><path d="M34.799,8.65308l-.866.82837a19.35822,19.35822,0,0,1,3.36792,4.68627l1.07233-.53588A20.56315,20.56315,0,0,0,34.799,8.65308Z" fill="#fff"/></g></svg>