<svg id="Ebene_1" data-name="Ebene 1" xmlns="http://www.w3.org/2000/svg" viewBox="0 0 40 40"><defs><style>.cls-1{fill:#fff;fill-rule:evenodd;}.cls-2{fill:none;stroke:#fff;stroke-width:1.2px;}</style></defs><g id="E90D_umluft" data-name="E90D umluft"><path class="cls-1" d="M27.15468,21.0289l.034.07623L27.83838,22.58l1.50292-3.904-3.81576-1.31291.64225,1.44562.0594.1334a7.38025,7.38025,0,0,1-4.12636.94061c-2.47742,0-4.48523-.69831-4.48523-1.5586,0-.861,2.00781-1.49839,4.48523-1.49839a12.512,12.512,0,0,1,1.31918.06878l.71773-.7837a14.92314,14.92314,0,0,0-2.1235-.15041c-3.838,0-6.94905,1.20264-6.94905,2.94977s3.111,3.16344,6.949,3.16344A11.94249,11.94249,0,0,0,27.15468,21.0289Z"/><path class="cls-2" d="M18.0378,25.38081c-1.83081,0-3.36666.00247-5.60735,0a4.84973,4.84973,0,0,1-2.91581,2.936,4.59776,4.59776,0,0,1-5.20755-2.80031c-.17158-.00186-.76148-.02838-2.188-.08388-1.14951-.045-1.47082-1.13925-1.47137-2.012a5.99638,5.99638,0,0,1,.71213-3.29128c.66952-.92151,1.43492-1.54388,4.08775-2.17116,1.47642-.3485,5.0668-.96839,5.0668-.96839a1.28311,1.28311,0,0,0,.309-.087,3.30878,3.30878,0,0,0,.49848-.45213c1.43549-1.30579,3.11657-3.53481,5.48119-4.254a22.90883,22.90883,0,0,1,10.2149.09809c2.62591.67171,5.80416,3.42317,7.76393,3.95979,2.34948.644,3.24946.00741,3.76585,1.98181a22.17937,22.17937,0,0,1,.80463,5.7468c-.00786,1.57471-3.18049,1.31128-3.31226,1.34961a4.97165,4.97165,0,0,1-2.93544,2.95945,4.59669,4.59669,0,0,1-5.33483-2.89961l-3.0033-.01173Z"/></g></svg>