<svg xmlns="http://www.w3.org/2000/svg" viewBox="0 0 40 40"><title>E90F_klima_ventilation_geblaese</title><g id="Icon"><path d="M15.50939,1.96872A4.19348,4.19348,0,0,1,19.20915,3.972c.64077,1.40812.34844,2.71968-.02219,4.37968a15.48944,15.48944,0,0,0-.07047,8.06313l.28841.52,1.91629.33581.51629-.80758A10.0433,10.0433,0,0,1,24.37707,9.151,6.98,6.98,0,0,1,29.361,7.10924c3.71672,0,6.98713,2.58657,8.33131,6.5891a4.49975,4.49975,0,0,1-1.688,5.50983,4.08917,4.08917,0,0,1-1.75919.37911,11.66124,11.66124,0,0,1-2.53371-.39868,17.97339,17.97339,0,0,0-4.21264-.58205,14.54792,14.54792,0,0,0-3.75718.50962l-.51027.34648-.27186,1.91567.90089.47711c5.89612.04567,8.49966,3.243,8.99035,6.23674.57291,3.49356-1.49687,7.92218-6.55908,9.62786a5.66537,5.66537,0,0,1-1.79964.31125,4.1942,4.1942,0,0,1-3.70106-2.00323c-.63816-1.40356-.34845-2.66421.01957-4.25961a14.93506,14.93506,0,0,0,.09527-7.85368l-.2325-.6515-2.0952-.38782-.43114.94406c.01175,3.06356-.84435,5.549-2.47564,7.1868a6.84919,6.84919,0,0,1-4.89778,1.99735c-3.77545,0-7.09806-2.63094-8.46573-6.702a4.49823,4.49823,0,0,1,1.68871-5.50983,4.0834,4.0834,0,0,1,1.75788-.37911,11.66682,11.66682,0,0,1,2.53437.39868,17.97337,17.97337,0,0,0,4.21263.58205,14.548,14.548,0,0,0,3.75719-.50962l.47826-.21064.33859-1.82924-.76987-.68176c-6.00314,0-8.65627-3.23386-9.15218-6.26088-.57291-3.491,1.49556-7.917,6.55517-9.62134A5.65492,5.65492,0,0,1,15.50939,1.96872Z" fill="none" stroke="#fff" stroke-linejoin="round" stroke-width="1.2"/></g></svg>