<svg xmlns="http://www.w3.org/2000/svg" viewBox="0 0 40 40"><g id="E91D_klima_sitze_links"><path d="M14.75053,35.47579a2.2177,2.2177,0,0,1-2.01192-1.28632l-1.57486-3.34339-.02977-.03467a.84816.84816,0,0,1-.18516-.3808.33534.33534,0,0,1,.28625-.12824c.159.00262.32125.00393.48122.00393a27.24,27.24,0,0,0,8.77557-1.49111,21.09746,21.09746,0,0,1,6.553-1.20846l1.48915.00262,3.71371-.00262c1.213,0,2.50852.81589,2.50852,1.9864l-.72691,4.10235a2.20085,2.20085,0,0,1-2.14605,1.779Zm-4.436-8.01038a1.348,1.348,0,0,1-1.21075-.77468,33.53477,33.53477,0,0,1-2.90959-8.523,37.7858,37.7858,0,0,1-.95035-7.76731,1.62549,1.62549,0,0,1,1.58467-1.619l1.2186.0651a3.07152,3.07152,0,0,1,2.96456,2.81309,42.16242,42.16242,0,0,0,1.04031,5.06415,39.02862,39.02862,0,0,0,2.77972,7.47093v1.92817a1.3328,1.3328,0,0,1-1.31936,1.34259ZM10.02333,6.59935A1.18061,1.18061,0,0,1,9.82967,6.583C9.6481,6.55061,7.98459,6.2588,6.6034,6.10406a.85145.85145,0,0,1-.75079-.792c.10109-2.8193,1.46854-4.30976,3.95481-4.30976L9.92617,1a.84122.84122,0,0,1,.94839.83846c.0085.63368.0049,1.20192.00131,1.8019-.00393.62844-.00818,1.29188.001,2.10188a.80747.80747,0,0,1-.2205.59965.84448.84448,0,0,1-.63269.25746Z" fill="none" stroke="#fff" stroke-miterlimit="10" stroke-width="1.2" fill-rule="evenodd"/><path d="M29.70073,24.24382a11.54128,11.54128,0,0,1,.22763,2.0719,6.245,6.245,0,0,1-.67775,2.70575l-.873,2.12174a6.41109,6.41109,0,0,0-.44488,2.43687A9.91369,9.91369,0,0,0,30.0448,39" fill="none" stroke="#fff" stroke-miterlimit="10" stroke-width="1.2"/><path d="M24.352,24.24382a11.54219,11.54219,0,0,1,.22763,2.0719,6.24488,6.24488,0,0,1-.67776,2.70575l-.87295,2.12174a6.41108,6.41108,0,0,0-.44489,2.43687A9.9137,9.9137,0,0,0,24.696,39" fill="none" stroke="#fff" stroke-miterlimit="10" stroke-width="1.2"/><path d="M19.00316,24.24382a11.54128,11.54128,0,0,1,.22763,2.0719,6.245,6.245,0,0,1-.67775,2.70575l-.873,2.12174a6.41109,6.41109,0,0,0-.44488,2.43687A9.91369,9.91369,0,0,0,19.34723,39" fill="none" stroke="#fff" stroke-miterlimit="10" stroke-width="1.2"/><path d="M24.27618,19.80658,22.3255,24.36249h3.98639Zm-7.31054,4.55591H20.952l-2.03577-4.55591Zm12.67041-4.55591-1.95069,4.55591h3.98645Z" fill="#fff" fill-rule="evenodd"/></g></svg>