<svg xmlns="http://www.w3.org/2000/svg" viewBox="0 0 40 40"><title>E91F_klima_sitzlueftung_links</title><g id="Icon"><path d="M14.61139,36.5A2.1599,2.1599,0,0,1,12.706,35.219l-1.4915-3.66613-.0282-.03284a.80338.80338,0,0,1-.17536-.36064.31756.31756,0,0,1,.2711-.12145c.15057.00248.30425.00372.45575.00372a25.79811,25.79811,0,0,0,8.31109-1.41219A19.98085,19.98085,0,0,1,26.255,28.485l1.41033.00248,3.51715-.00248c1.14883,0,2.37575.77271,2.37575,1.88126L32.86976,34.751A2.1428,2.1428,0,0,1,30.8373,36.5Zm-4.20124-8.14888a1.27669,1.27669,0,0,1-1.14667-.73366,31.76007,31.76007,0,0,1-2.75559-8.07191,35.78606,35.78606,0,0,1-.9-7.3562A1.53944,1.53944,0,0,1,7.10864,10.656l1.1541.06165a2.90894,2.90894,0,0,1,2.80765,2.6642,39.93187,39.93187,0,0,0,.98524,4.79611,36.96316,36.96316,0,0,0,2.6326,7.0755V27.0796a1.26225,1.26225,0,0,1-1.24953,1.27152ZM10.1344,8.58948A1.11825,1.11825,0,0,1,9.951,8.574c-.172-.03067-1.74743-.307-3.05551-.45358a.80638.80638,0,0,1-.71105-.75009c.09573-2.67008,1.39081-4.08165,3.74549-4.08165l.11246-.00217a.79669.79669,0,0,1,.89819.79408c.00806.60014.00465,1.13831.00124,1.70653-.00372.59517-.00775,1.2235.00093,1.99063a.76473.76473,0,0,1-.20882.56791.79979.79979,0,0,1-.59921.24384Z" fill="none" stroke="#fff" stroke-miterlimit="10" stroke-width="1.2" fill-rule="evenodd"/><path d="M24.3452,2.32479a1.99115,1.99115,0,0,1,1.75672.95117,3.09012,3.09012,0,0,1-.01054,2.07955A7.35464,7.35464,0,0,0,26.05792,9.184l.13694.24693.90989.15945L27.3499,9.207a4.76871,4.76871,0,0,1,1.20584-3.47191,3.31426,3.31426,0,0,1,2.36645-.96945,4.27718,4.27718,0,0,1,3.95586,3.12863,2.13655,2.13655,0,0,1-.80152,2.61617,1.94162,1.94162,0,0,1-.83529.18,5.53643,5.53643,0,0,1-1.203-.18931,8.53462,8.53462,0,0,0-2.00024-.27636,6.90749,6.90749,0,0,0-1.784.242l-.24229.16452-.12908.9096.42776.22653c2.79959.02169,4.03579,1.53984,4.26878,2.96132a4.26239,4.26239,0,0,1-3.11437,4.57149,2.69014,2.69014,0,0,1-.8545.14779,1.99149,1.99149,0,0,1-1.75734-.95117,2.943,2.943,0,0,1,.0093-2.02255,7.0914,7.0914,0,0,0,.04523-3.72906l-.11039-.30935-.99484-.18415-.20471.44826A4.68487,4.68487,0,0,1,24.422,16.11237a3.25216,3.25216,0,0,1-2.32556.94838,4.34835,4.34835,0,0,1-4.01968-3.18223,2.13583,2.13583,0,0,1,.80183-2.61617,1.93889,1.93889,0,0,1,.83467-.18,5.53956,5.53956,0,0,1,1.20336.1893,8.534,8.534,0,0,0,2.00024.27637,6.90752,6.90752,0,0,0,1.784-.242l.22709-.1.16077-.86856-.36555-.32371c-2.8504,0-4.11016-1.5355-4.34562-2.97279a4.25913,4.25913,0,0,1,3.11251-4.56838A2.68488,2.68488,0,0,1,24.3452,2.32479Z" fill="none" stroke="#fff" stroke-linejoin="round" stroke-width="1.2"/></g></svg>