<svg xmlns="http://www.w3.org/2000/svg" viewBox="0 0 40 40"><title>E920_klima_sitzlueftung_rechts</title><g id="Hilfe"><path d="M9.15284,36.49751a2.1428,2.1428,0,0,1-2.03246-1.749l-.68843-4.38476c0-1.10856,1.22691-1.88127,2.37574-1.88127l3.51715.00248,1.41033-.00248A19.98085,19.98085,0,0,1,19.9413,29.627a25.79816,25.79816,0,0,0,8.31109,1.41219c.1515,0,.30518-.00124.45575-.00372a.31759.31759,0,0,1,.2711.12145.80328.80328,0,0,1-.17536.36064l-.02819.03284-1.49151,3.66613a2.1599,2.1599,0,0,1-1.90543,1.281Zm17.3986-8.14887a1.26225,1.26225,0,0,1-1.24953-1.27153V25.251a36.96316,36.96316,0,0,0,2.6326-7.0755,39.93187,39.93187,0,0,0,.98524-4.79611,2.909,2.909,0,0,1,2.80765-2.6642l1.1541-.06165a1.53944,1.53944,0,0,1,1.5008,1.53333,35.78669,35.78669,0,0,1-.9,7.3562,31.76043,31.76043,0,0,1-2.7556,8.07191,1.27669,1.27669,0,0,1-1.14667.73367ZM29.85543,8.587a.79976.79976,0,0,1-.5992-.24384.76473.76473,0,0,1-.20883-.56791c.00868-.76713.00465-1.39545.00093-1.99063-.00341-.56822-.00681-1.10639.00124-1.70652a.79669.79669,0,0,1,.89819-.79409l.11246.00217c2.35468,0,3.64976,1.41157,3.74549,4.08165a.80637.80637,0,0,1-.71105.75009c-1.30808.14655-2.88355.42291-3.0555.45359a1.11943,1.11943,0,0,1-.18342.01549Z" fill="none" stroke="#fff" stroke-miterlimit="10" stroke-width="1.2" fill-rule="evenodd"/></g><g id="Icon"><path d="M11.38993,2.32442a1.99114,1.99114,0,0,1,1.75671.95117,3.09009,3.09009,0,0,1-.01053,2.07956,7.35464,7.35464,0,0,0-.03346,3.82852l.13694.24693.90989.15945.24514-.38345a4.76878,4.76878,0,0,1,1.20585-3.47192,3.31425,3.31425,0,0,1,2.36645-.96944,4.27718,4.27718,0,0,1,3.95586,3.12862A2.13656,2.13656,0,0,1,21.12126,10.51a1.94148,1.94148,0,0,1-.83529.18,5.53706,5.53706,0,0,1-1.20306-.1893,8.53388,8.53388,0,0,0-2.00023-.27637,6.90746,6.90746,0,0,0-1.784.242l-.24229.16452-.12908.90959.42775.22654c2.79959.02169,4.0358,1.53984,4.26879,2.96132a4.26239,4.26239,0,0,1-3.11437,4.57149,2.69012,2.69012,0,0,1-.8545.14778,1.99151,1.99151,0,0,1-1.75734-.95116,2.943,2.943,0,0,1,.0093-2.02255,7.09143,7.09143,0,0,0,.04523-3.72907l-.11039-.30934-.99484-.18415-.20471.44826A4.68484,4.68484,0,0,1,11.46677,16.112a3.25212,3.25212,0,0,1-2.32556.94838,4.34836,4.34836,0,0,1-4.01969-3.18222A2.13586,2.13586,0,0,1,5.92335,11.262a1.93891,1.93891,0,0,1,.83468-.18,5.539,5.539,0,0,1,1.20336.18931,8.53446,8.53446,0,0,0,2.00024.27636,6.90755,6.90755,0,0,0,1.784-.242l.22709-.1.16077-.86855-.36555-.32372c-2.85041,0-4.11016-1.5355-4.34563-2.97278a4.25917,4.25917,0,0,1,3.11252-4.56839A2.68506,2.68506,0,0,1,11.38993,2.32442Z" fill="none" stroke="#fff" stroke-linejoin="round" stroke-width="1.2"/></g></svg>