<svg id="Ebene_1" data-name="Ebene 1" xmlns="http://www.w3.org/2000/svg" viewBox="0 0 40 40"><defs><style>.cls-1,.cls-2{fill:#fff;}.cls-2{fill-rule:evenodd;}.cls-3{fill:none;stroke:red;stroke-miterlimit:10;stroke-width:1.2px;}</style></defs><path class="cls-1" d="M5.96025,10.77355s1.64134-.40171,3.15864-.878a5.895,5.895,0,0,1,3.07847-.10321v5.49081a17.51962,17.51962,0,0,0-2.12893-.06192,13.44229,13.44229,0,0,0-3.90137,1.03211Z"/><path class="cls-1" d="M17.89181,6.469c-1.48624-.68119-3.32339-1.672-3.9633-1.87844-.70422-.22716-1.73415-.4977-1.73415-.4977l.003,5.69953a13.01709,13.01709,0,0,1,2.62676.67755,30.33574,30.33574,0,0,1,3.04,1.55744C17.88473,12.0067,17.89181,6.469,17.89181,6.469Z"/><rect class="cls-1" x="2.5674" y="4.97634" width="1.2" height="34.051"/><path class="cls-2" d="M12.19436,15.28316a10.87888,10.87888,0,0,1,2.45663.578c.75572.30941,2.80733,1.17661,3.24082,1.40367V23.024l-5.69745-1.52752Z"/><path class="cls-1" d="M25.46857,19.53247l-1.88648,1.88641.00727,4.08216,1.31457.18841a17.19985,17.19985,0,0,0,4.84491-.39019c-.019-1.22748-.05206-5.75086-.06634-5.77948A24.46272,24.46272,0,0,1,25.46857,19.53247Z"/><path class="cls-1" d="M23.58783,15.05l-.00018-1.08393L22.547,13.7926a23.9583,23.9583,0,0,1-3.45453-1.17749l-1.19794-.528-.01471,5.18011V17.298q1.2032.55729,2.44946,1.01038Z"/><path class="cls-1" d="M27.79675,10.84119,25.34991,8.39435l-1.49877-.00568h-.25678V13.96c.31354.057.62988.09473.9455.13794Z"/><path class="cls-1" d="M29.56738,15.43378V24.833a21.46819,21.46819,0,0,1-11.86816-2.30664,14.73558,14.73558,0,0,0-6.32861-1.771,13.41471,13.41471,0,0,0-4.603.90186V5.13818c4.7456-1.8291,7.21533-.56152,10.32226,1.03516A21.60092,21.60092,0,0,0,25.96167,9.0061L24.5863,7.63074A21.87386,21.87386,0,0,1,17.63818,5.106c-3.3247-1.7085-6.19482-3.18408-11.69824-.93018l-.37256.15234V23.42676l.82764-.33887c5.05371-2.07129,7.59375-.92383,10.81006.53223a22.49025,22.49025,0,0,0,10.27344,2.49609c.85253,0,1.76464-.042,2.74511-.13476l.543-.05176V14.23456Z"/><g id="E051_phone_missed_call" data-name="E051 phone missed call"><line class="cls-3" x1="22.85309" y1="2.7164" x2="39.10309" y2="18.9664"/><line class="cls-3" x1="39.10309" y1="2.7164" x2="22.85309" y2="18.9664"/></g></svg>