<svg xmlns="http://www.w3.org/2000/svg" viewBox="0 0 40 40"><defs><style>.cls-1{fill:#0fafff;}.cls-2{fill:#fff;}</style></defs><g id="E764_006_assignment_pins"><circle class="cls-1" cx="20" cy="20" r="17.25"/><path class="cls-2" d="M20.00006,3.5a16.5,16.5,0,1,1-16.5,16.5,16.51868,16.51868,0,0,1,16.5-16.5m0-1.5a18,18,0,1,0,18,18,18,18,0,0,0-18-18Z"/><path class="cls-2" d="M24.9194,12.93907q-.37573-.12195-.75586-.23071a8.17976,8.17976,0,0,0-.802-.18787q-.42023-.07746-.89319-.12415-.473-.04614-1.02063-.04614a5.87026,5.87026,0,0,0-2.24121.39221,4.14208,4.14208,0,0,0-1.61279,1.17115A5.61134,5.61134,0,0,0,16.5676,15.857a11.95413,11.95413,0,0,0-.4845,2.70483,6.04461,6.04461,0,0,1,.83935-.63721,5.73879,5.73879,0,0,1,.96021-.48449,6.095,6.095,0,0,1,1.06677-.30542,6.22447,6.22447,0,0,1,1.17114-.10657,7.37317,7.37317,0,0,1,1.727.19006,5.61528,5.61528,0,0,1,1.42164.54493A4.6507,4.6507,0,0,1,24.38,18.6201a4.90083,4.90083,0,0,1,.79651,1.1217,5.558,5.558,0,0,1,.4812,1.34363,6.97378,6.97378,0,0,1,.1615,1.52051,6.53826,6.53826,0,0,1-.15271,1.41833,5.51212,5.51212,0,0,1-.46692,1.30957,5.05405,5.05405,0,0,1-.791,1.13379,4.76932,4.76932,0,0,1-1.12171.891,5.78684,5.78684,0,0,1-1.46447.58558,7.34354,7.34354,0,0,1-1.81714.20983,6.30585,6.30585,0,0,1-2.63562-.524,5.14755,5.14755,0,0,1-1.95008-1.54688,7.15149,7.15149,0,0,1-1.21069-2.52246,13.05057,13.05057,0,0,1-.41528-3.464,16.57162,16.57162,0,0,1,.46362-4.12427,8.26758,8.26758,0,0,1,1.40515-3.01355,5.97971,5.97971,0,0,1,2.36756-1.8479,8.23912,8.23912,0,0,1,3.34753-.62951q.61138,0,1.11621.04394c.33728.02857.64819.06812.93494.11756a8.01429,8.01429,0,0,1,.79541.17907c.245.06922.47571.14612.69543.23072Zm-8.92859,7.27844a13.48744,13.48744,0,0,0,.14173,1.98743,8.2417,8.2417,0,0,0,.38342,1.56885,4.73659,4.73659,0,0,0,.60205,1.17334,3.47513,3.47513,0,0,0,.79871.80529,3.17366,3.17366,0,0,0,.969.46143,4.48915,4.48915,0,0,0,2.68835-.13074,3.04541,3.04541,0,0,0,1.125-.77563,3.2592,3.2592,0,0,0,.67457-1.18763,4.84169,4.84169,0,0,0,.22522-1.51391,4.95106,4.95106,0,0,0-.22522-1.537,3.178,3.178,0,0,0-.67786-1.18872,3.03731,3.03731,0,0,0-1.14148-.76465,4.42731,4.42731,0,0,0-1.61829-.27026,6.5741,6.5741,0,0,0-1.05029.08349,5.9,5.9,0,0,0-1.01514.25708,6.417,6.417,0,0,0-.969.42957A6.30547,6.30547,0,0,0,15.99081,20.21751Z"/></g></svg>