<?xml version="1.0" encoding="UTF-8"?>
<svg xmlns="http://www.w3.org/2000/svg" viewBox="0 0 40 40">
  <defs>
    <style>
      .cls-1 {
        fill: #fff;
      }

      .cls-2 {
        fill: none;
        stroke: #fff;
        stroke-linejoin: round;
        stroke-width: .64px;
      }
    </style>
  </defs>
  <g id="Ebene_1" data-name="Ebene 1">
    <g>
      <path class="cls-1" d="m5.01697,37.107C2.28656,37.14709.04063,34.96616.00054,32.23575s2.14085-4.97634,4.87126-5.01643c.0484-.00071.09679-.00071.14517,0,1.26696-.01961,2.4885.47149,3.3893,1.36262l-.95195.95189c-.65421-.62908-1.52985-.97522-2.43738-.96348-1.9842.02793-3.57008,1.65909-3.54215,3.64329.02738,1.94482,1.59733,3.51477,3.54215,3.54215.93449.03881,1.84146-.32119,2.49496-.99031.42787-.4691.6872-1.06744.73697-1.70041h-3.13596v-1.35104h4.44868c.05225.27836.07667.56123.07293.84442.03879,1.16572-.3816,2.30007-1.1707,3.15898-.89504.93824-2.15135,1.44472-3.44686,1.38958Z"/>
      <path class="cls-1" d="m16.77395,33.92883c.00001,1.75739-1.42462,3.18204-3.18201,3.18205s-3.18204-1.42462-3.18205-3.18201c-.00001-1.75738,1.42461-3.18202,3.18198-3.18205h0c1.73417-.02322,3.15881,1.36378,3.18203,3.09795h0c.00037.02802.00039.05604.00005.08406Zm-1.39334,0c-.07556-.98786-.93763-1.72742-1.92549-1.65185-.98786.07556-1.72742.93764-1.65185,1.92549.07151.93493.85099,1.65707,1.78865,1.65708,1.01232-.02327,1.81411-.86278,1.79085-1.8751,0,0,0-.00002,0-.00003l-.00215-.05559Z"/>
      <path class="cls-1" d="m23.93253,33.92502c-.00001,1.75739-1.42466,3.18202-3.18205,3.18201s-3.18202-1.42466-3.18201-3.18205c.00001-1.75736,1.42462-3.18198,3.18198-3.18201,1.73285-.02455,3.1575,1.36031,3.18205,3.09316h0c.00044.02962.00045.05925.00003.08889Zm-1.39334,0c-.07555-.98786-.9376-1.72743-1.92546-1.65189s-1.72743.9376-1.65189,1.92546c.0715.93493.85094,1.65707,1.7886,1.65711,1.01232-.02323,1.81413-.86271,1.7909-1.87503,0-.00002,0-.00003,0-.00005l-.00215-.05561Z"/>
      <path class="cls-1" d="m30.73415,30.9349v5.71536c0,2.35293-1.38569,3.31637-3.02464,3.31637-1.23581.00653-2.35194-.73756-2.82122-1.88082l1.21682-.50667c.25591.66772.88958,1.1149,1.60444,1.13229.89974.04791,1.66796-.64263,1.71587-1.54237.00582-.10922.00063-.21874-.01547-.32692v-.45679h-.0499c-.4256.4758-1.03929.73981-1.6774.72162-1.75738-.1162-3.08783-1.63504-2.97163-3.39242.10549-1.59545,1.37618-2.86614,2.97163-2.97163.63509-.01478,1.24596.24383,1.6774.7101h.0499v-.51815l1.3242.00003Zm-1.22832,3.00161c.12523-.93911-.53455-1.80192-1.47365-1.92716-.93911-.12523-1.80193.53455-1.92716,1.47366-.02007.1505-.02007.303,0,.4535-.11205.93911.55842,1.79124,1.49752,1.90329.93911.11205,1.79124-.55842,1.90329-1.49753.01608-.13478.01608-.27099,0-.40576Z"/>
      <path class="cls-1" d="m33.26365,27.56478v9.35415h-1.39718v-9.35415h1.39718Z"/>
      <path class="cls-1" d="m38.85233,34.97286l1.08626.72162c-.59093.88575-1.58757,1.41509-2.65233,1.40871-1.71975.02514-3.13426-1.34862-3.1594-3.06837v-.00002c-.00056-.03788-.00042-.07576.00041-.11363-.08702-1.66812,1.19472-3.09095,2.86284-3.17797,0,0,.00002,0,.00003,0,.0462-.00241.09245-.00374.13874-.004,1.24444.03462,2.33395.84485,2.72525,2.02667l.14586.36081-4.25676,1.76182c.26902.60639.88009.98793,1.54302.96343.64133.00682,1.23787-.32804,1.56606-.87908Zm-3.3394-1.14382l2.84424-1.18223c-.22222-.44257-.6881-.70879-1.18221-.67557-.96324.0443-1.70819.86107-1.66389,1.82431l.00186.03349Z"/>
    </g>
  </g>
  <g id="Ebene_1_Kopie" data-name="Ebene 1 Kopie">
    <path class="cls-2" d="m28.90884,11.69459c-.59968-.65024-5.39738-5.57381-5.39738-5.57381,0,0,.00038,2.973.00042,3.30776-4.02641-.00945-6.05287-.45809-8.80868-1.99362-2.28457-1.27295-2.81052-4.56364-1.70817-6.76408-2.15289,1.88823-3.4134,5.54079-.9056,9.03904,2.08914,2.90844,6.89366,4.21696,11.42328,4.33043.00004.33522.00042,3.31271.00042,3.31271,0,0,4.79621-5.00812,5.3957-5.65843Z"/>
  </g>
</svg>