<svg xmlns="http://www.w3.org/2000/svg" viewBox="0 0 40 40"><defs><style>.cls-1{fill:none;stroke:#fff;stroke-width:1.2px;}.cls-2{fill:#fff;}</style></defs><g id="EA6C_sds_hilfe"><g id="V2"><path id="V2-2" data-name="V2" class="cls-1" d="M18,28.5,7.5,37V28.5h-5V8.5h35v20Z"/><path class="cls-2" d="M18.43555,21.124l-.167-2.2041,1.61817-1.57226q.43652-.43213.83105-.8252a7.669,7.669,0,0,0,.68848-.78418,3.89934,3.89934,0,0,0,.4707-.79394,2.106,2.106,0,0,0,.17676-.85743,1.31145,1.31145,0,0,0-.17676-.68652,1.49712,1.49712,0,0,0-.49121-.499,2.41609,2.41609,0,0,0-.74219-.30371,3.97069,3.97069,0,0,0-.92773-.10254c-.2168,0-.42969.00781-.64062.02343q-.315.02345-.6211.07032c-.2041.03027-.4043.06933-.60058.11523q-.29591.07032-.5752.1582-.28125.0879-.54785.19922T16.209,13.294v-1.5586a5.38453,5.38453,0,0,1,.75782-.34375,7.192,7.192,0,0,1,.88867-.25976,8.67575,8.67575,0,0,1,.99707-.16211,10.37928,10.37928,0,0,1,1.09473-.05567,6.24239,6.24239,0,0,1,.9375.07129,5.09424,5.09424,0,0,1,.91113.22559,4.072,4.072,0,0,1,.82129.3916,2.91928,2.91928,0,0,1,.666.56641,2.50364,2.50364,0,0,1,.44532.751,2.66922,2.66922,0,0,1,.1621.95313,3.7115,3.7115,0,0,1-.11132.92578,4.08094,4.08094,0,0,1-.3086.82324,5.31428,5.31428,0,0,1-.457.74219,7.34243,7.34243,0,0,1-.55469.668q-.29442.31494-.60546.60742-.31056.293-.60254.5664l-1.37793,1.2334L19.75781,21.124Zm-.43164,3.77539V22.78418h2.14746v2.11523Z"/></g></g></svg>