<svg xmlns="http://www.w3.org/2000/svg" viewBox="0 0 40 40"><g id="EAA6_asia_tpeg_poi"><path d="M28.51161,9.3416H29.6991a1.8429,1.8429,0,0,1,1.78123,1.66771v6.57928s-.269,2.77952,2.375,2.77952c2.733,0,2.96872-2.02627,2.96872-2.77952a62.087,62.087,0,0,1-1.18749-9.45038c0-5.83255-2.39456-5.41556-2.39456-5.41556" fill="none" stroke="#fff" stroke-width="1.2"/><path d="M35.32915,8.07017l2.25665-.98292a22.40137,22.40137,0,0,0-2.49406-4.05284A34.6448,34.6448,0,0,0,31.704,0L31.0389.96469a29.41809,29.41809,0,0,1,2.785,3.19205A13.42679,13.42679,0,0,1,35.32915,8.07017Z" fill="#fff" fill-rule="evenodd"/><path d="M26.97979,8.52134h-1.989" fill="none" stroke="#fff" stroke-width="1.2"/><path d="M15.44925,4.03507V2.29042A1.70934,1.70934,0,0,1,17.23048.66322h9.4999a1.70934,1.70934,0,0,1,1.78123,1.6272V23.98635" fill="none" stroke="#fff" stroke-width="1.2"/><path d="M13.98886,22.99059H29.972v1.99153H13.98886Z" fill="#fff" fill-rule="evenodd"/><path d="M9.96411,26.95135V19.98793l3.55605.02414c4.98,0,7.43871-2.26742,7.43871-6.29661,0-2.66115-1.3793-6.70284-7.43871-6.70284H6.024L6.0196,26.97737Zm0-9.95636V10.01777h2.93136c-.42353,0,4.11435-.49881,4.11435,3.86635,0,3.11087-2.25842,3.11087-4.11435,3.11087Z" fill="#fff" fill-rule="evenodd"/><g style="isolation:isolate"><g style="isolation:isolate"><path d="M4.96984,39.82445V30.31766H1.68458V29.17659h7.9488v1.14107H6.34811v9.50679Z" fill="#fff"/><path d="M11.58322,39.82445V29.17659H15.112a5.7379,5.7379,0,0,1,1.12539.10136,3.68933,3.68933,0,0,1,.906.2999,2.70113,2.70113,0,0,1,.69384.48485,2.65867,2.65867,0,0,1,.49007.65517,3.14909,3.14909,0,0,1,.29049.813,4.54662,4.54662,0,0,1,.09509.95506,4.7331,4.7331,0,0,1-.09195.9603,3.11817,3.11817,0,0,1-.28318.81713,2.51216,2.51216,0,0,1-.49216.65727,2.65234,2.65234,0,0,1-.71787.48275,4.1118,4.1118,0,0,1-.9582.2999,6.501,6.501,0,0,1-1.21526.10345H12.96462v4.01776Zm3.23093-5.11912a3.88225,3.88225,0,0,0,1.15256-.14943,1.88957,1.88957,0,0,0,.76594-.43469,1.66136,1.66136,0,0,0,.42424-.698,3.1111,3.1111,0,0,0,.13061-.93731,2.96881,2.96881,0,0,0-.13061-.90595,1.71061,1.71061,0,0,0-.419-.69488,1.92882,1.92882,0,0,0-.74086-.44514,3.35338,3.35338,0,0,0-1.09718-.15779H12.96462v4.4232Z" fill="#fff"/><path d="M20.79952,39.82445V29.17659h6.767v1.14107H22.18092v3.49321h4.628v1.13479h-4.628v3.74086h5.40021v1.13793Z" fill="#fff"/><path d="M36.63129,34.94566h-2.9906V33.81087h4.372V39.325a5.14174,5.14174,0,0,1-.50262.20481q-.26488.094-.55381.16719c-.19331.04911-.395.093-.6071.13062q-.31819.058-.66458.09509c-.23093.02612-.47127.04493-.72309.05747q-.37618.02037-.78579.01985a5.926,5.926,0,0,1-2.08255-.34065,3.90791,3.90791,0,0,1-1.54546-1.0303,4.59442,4.59442,0,0,1-.96238-1.72832,8.9159,8.9159,0,0,1-.18182-4.04284,5.73428,5.73428,0,0,1,.4441-1.348,4.37914,4.37914,0,0,1,.72309-1.07524,4.01115,4.01115,0,0,1,.99791-.78683A4.91825,4.91825,0,0,1,32.833,29.1651,6.57268,6.57268,0,0,1,34.34707,29c.18913,0,.37826.00627.56739.01776.18914.01254.37513.02926.559.05225q.2743.03449.53292.08464c.17241.03344.33647.0721.49321.11494a4.342,4.342,0,0,1,.43991.14525,3.42775,3.42775,0,0,1,.36991.17032v1.20272a4.23884,4.23884,0,0,0-.59039-.233,6.375,6.375,0,0,0-.70219-.17764c-.2487-.04911-.50784-.08673-.77534-.11285a8.00834,8.00834,0,0,0-.80774-.03971,4.76651,4.76651,0,0,0-1.63009.256,2.91471,2.91471,0,0,0-1.17973.78265,3.4396,3.4396,0,0,0-.71787,1.32393,6.49947,6.49947,0,0,0-.24242,1.8767,7.484,7.484,0,0,0,.12121,1.40961,4.6945,4.6945,0,0,0,.34378,1.10763,3.18191,3.18191,0,0,0,.5465.82759,2.84591,2.84591,0,0,0,.72519.5674,3.28566,3.28566,0,0,0,.883.325,4.81457,4.81457,0,0,0,1.01777.10345q.35893,0,.68547-.0209.326-.02195.61965-.05956c.19436-.02508.37826-.05643.54859-.093.17137-.03762.3302-.07837.47649-.12435Z" fill="#fff"/></g></g></g></svg>