<svg xmlns="http://www.w3.org/2000/svg" viewBox="0 0 40 40"><g id="EAB4_connect_weather_warning"><path d="M1.84675,37.09947a1.125,1.125,0,0,1-.8-.3,1.19211,1.19211,0,0,1-.5-1,1.148,1.148,0,0,1,.2-.7l18.2-31.5a1.29855,1.29855,0,0,1,1.79-.41,1.3362,1.3362,0,0,1,.41.41l18.2,31.6a1.42324,1.42324,0,0,1,.2.6,1.38969,1.38969,0,0,1-.5,1,1.31886,1.31886,0,0,1-.8.3Z" fill="red"/><polygon points="6.147 33.299 20.047 9.299 33.947 33.299 6.147 33.299" fill="#fff"/><rect x="19" y="15.00387" width="2" height="11.99226"/><rect x="19" y="29" width="1.99999" height="1.99999"/></g></svg>