<svg id="V2" xmlns="http://www.w3.org/2000/svg" xmlns:xlink="http://www.w3.org/1999/xlink" viewBox="0 0 44 44"><defs><style>.cls-1{fill:#fff;}.cls-2{fill:url(#Unbenannter_Verlauf);}.cls-3{fill:url(#Unbenannter_Verlauf-2);}.cls-4{fill:url(#Unbenannter_Verlauf-3);}.cls-5{fill:url(#Unbenannter_Verlauf-4);}.cls-6{fill:url(#Unbenannter_Verlauf-5);}.cls-7{fill:url(#Unbenannter_Verlauf-6);}.cls-8{fill:url(#Unbenannter_Verlauf-7);}.cls-9{fill:url(#Unbenannter_Verlauf-8);}.cls-10{fill:url(#Unbenannter_Verlauf-9);}.cls-11{fill:url(#Unbenannter_Verlauf_31);}</style><linearGradient id="Unbenannter_Verlauf" x1="13.94144" y1="27.19103" x2="17.0769" y2="27.19103" gradientUnits="userSpaceOnUse"><stop offset="0" stop-color="#010101"/><stop offset="0"/></linearGradient><linearGradient id="Unbenannter_Verlauf-2" x1="12" y1="23" x2="32" y2="23" xlink:href="#Unbenannter_Verlauf"/><linearGradient id="Unbenannter_Verlauf-3" x1="25.4071" y1="27.19083" x2="28.54256" y2="27.19083" xlink:href="#Unbenannter_Verlauf"/><linearGradient id="Unbenannter_Verlauf-4" x1="17.08194" y1="22.0253" x2="17.91806" y2="22.0253" xlink:href="#Unbenannter_Verlauf"/><linearGradient id="Unbenannter_Verlauf-5" x1="20.08194" y1="22.02524" x2="20.91806" y2="22.02524" xlink:href="#Unbenannter_Verlauf"/><linearGradient id="Unbenannter_Verlauf-6" x1="23.08194" y1="22.02518" x2="23.91806" y2="22.02518" xlink:href="#Unbenannter_Verlauf"/><linearGradient id="Unbenannter_Verlauf-7" x1="26.08194" y1="22.02512" x2="26.91806" y2="22.02512" xlink:href="#Unbenannter_Verlauf"/><linearGradient id="Unbenannter_Verlauf-8" x1="31.99746" y1="20.55002" x2="37.00043" y2="20.55002" xlink:href="#Unbenannter_Verlauf"/><linearGradient id="Unbenannter_Verlauf-9" x1="6.98996" y1="20.55002" x2="11.99226" y2="20.55002" xlink:href="#Unbenannter_Verlauf"/><linearGradient id="Unbenannter_Verlauf_31" x1="2" y1="22" x2="42" y2="22" gradientUnits="userSpaceOnUse"><stop offset="0" stop-color="#e52421"/></linearGradient></defs><path class="cls-1" d="M22,41A19,19,0,0,1,22,3,19.12089,19.12089,0,0,1,41,22,18.99157,18.99157,0,0,1,22,41Z"/><circle class="cls-2" cx="15.50917" cy="27.19103" r="1.56773"/><path class="cls-3" d="M15.54245,24.71212a2.47644,2.47644,0,0,1,2.46287,2.28168l6.55787-.0001a2.47008,2.47008,0,0,1,4.92574-.00011L32,26.99354l-.00008-5.47911a2.51771,2.51771,0,0,0-2.51234-2.50833l-14.97533.00026A2.51772,2.51772,0,0,0,12,21.51477l.00008,5.47913h1.07951A2.47645,2.47645,0,0,1,15.54245,24.71212Z"/><circle class="cls-4" cx="26.97483" cy="27.19083" r="1.56773"/><path class="cls-1" d="M30.73015,23.98413l-.00038-2.46972a1.25791,1.25791,0,0,0-1.25419-1.254H14.524a1.25787,1.25787,0,0,0-1.25419,1.25418v2.46984Z"/><rect class="cls-5" x="17.08198" y="19.81792" width="0.83605" height="4.41474"/><rect class="cls-6" x="20.08198" y="19.81787" width="0.83605" height="4.41474"/><rect class="cls-7" x="23.08198" y="19.81781" width="0.83605" height="4.41474"/><rect class="cls-8" x="26.08198" y="19.81775" width="0.83605" height="4.41474"/><polygon class="cls-9" points="37 28.499 32.998 12.601 31.997 12.601 34.995 28.499 37 28.499"/><polygon class="cls-10" points="8.991 28.5 11.992 12.6 10.991 12.6 6.99 28.5 8.991 28.5"/><path class="cls-11" d="M22,4A18,18,0,1,1,4,22,18.02039,18.02039,0,0,1,22,4m0-2A20,20,0,1,0,42,22,20,20,0,0,0,22,2Z"/></svg>