<svg xmlns="http://www.w3.org/2000/svg" viewBox="0 0 44 44"><g id="d0_t14_cc-can_1p0_2p1027_1s0"><path id="Hintergrund" d="M34.39052,24.64134a1.54879,1.54879,0,0,0-1.54882-1.54881H11.1583a1.5488,1.5488,0,0,0-1.54882,1.54881V40.12949A1.54882,1.54882,0,0,0,11.1583,41.6783H32.8417a1.5488,1.5488,0,0,0,1.54882-1.54881Z" fill="#fff"/><path id="Rahmen_innen" d="M32.8417,41.26528a1.13707,1.13707,0,0,0,1.1358-1.13579V24.64134a1.13708,1.13708,0,0,0-1.1358-1.1358H11.1583a1.13708,1.13708,0,0,0-1.1358,1.1358V40.12949a1.13706,1.13706,0,0,0,1.1358,1.13579Z" fill="#010101"/><path id="Hintergrund-2" data-name="Hintergrund" d="M32.8417,40.64576a.51687.51687,0,0,0,.51627-.51627V24.64134a.51685.51685,0,0,0-.51627-.51627H11.1583a.51689.51689,0,0,0-.51628.51627V40.12949a.5169.5169,0,0,0,.51628.51627Z" fill="#fff"/><path id="Beschriftung" d="M20.95566,25.5798v2.64333h-.48645V25.5798h-.70213v-.43138H21.667v.43138Zm3.19064,1.81328a1.48252,1.48252,0,0,1-.24839.54094.81363.81363,0,0,1-.31665.25986,1.014,1.014,0,0,1-.42678.08432.9826.9826,0,0,1-.53578-.13423.97267.97267,0,0,1-.34992-.41646,2.08628,2.08628,0,0,1-.156-.479,2.774,2.774,0,0,1-.05966-.55815,2.711,2.711,0,0,1,.09006-.70558,1.75631,1.75631,0,0,1,.24494-.54725.84463.84463,0,0,1,.3287-.25986,1.12,1.12,0,0,1,.456-.08433.899.899,0,0,1,.50079.13424,1.04078,1.04078,0,0,1,.35279.41646,2.08162,2.08162,0,0,1,.15144.48013,2.948,2.948,0,0,1,.05507.56619A2.81084,2.81084,0,0,1,24.1463,27.39308Zm-.39983-.70271a2.36241,2.36241,0,0,0-.047-.483,1.30439,1.30439,0,0,0-.13652-.37975.47571.47571,0,0,0-.16693-.17438.5284.5284,0,0,0-.23233-.06425h-.02753a.42451.42451,0,0,0-.27879.09236.67261.67261,0,0,0-.1893.28854,1.47128,1.47128,0,0,0-.08892.33271,2.49089,2.49089,0,0,0-.0304.38778,2.37762,2.37762,0,0,0,.047.47669,1.19892,1.19892,0,0,0,.13653.37688.44918.44918,0,0,0,.42219.23864.42124.42124,0,0,0,.28109-.09351.7068.7068,0,0,0,.19159-.29657,1.71134,1.71134,0,0,0,.08376-.32181,2.3075,2.3075,0,0,0,.03556-.38032Zm-9.84642,6.40235a1.48244,1.48244,0,0,1-.24838.54094.81359.81359,0,0,1-.31665.25985,1.014,1.014,0,0,1-.42678.08432.98247.98247,0,0,1-.53577-.13423.97263.97263,0,0,1-.34992-.41645,2.08668,2.08668,0,0,1-.156-.479,2.77394,2.77394,0,0,1-.05966-.55815,2.71094,2.71094,0,0,1,.09006-.70557,1.75612,1.75612,0,0,1,.24494-.54724.84469.84469,0,0,1,.32869-.25986,1.12018,1.12018,0,0,1,.456-.08432.899.899,0,0,1,.50078.13423,1.04076,1.04076,0,0,1,.35278.41646,2.08146,2.08146,0,0,1,.15144.48013,2.94779,2.94779,0,0,1,.05507.56617A2.81111,2.81111,0,0,1,13.90005,33.09272Zm-.39982-.7027a2.36221,2.36221,0,0,0-.047-.483,1.30439,1.30439,0,0,0-.13652-.37975.47571.47571,0,0,0-.16693-.17438.52832.52832,0,0,0-.23232-.06425h-.02754a.42455.42455,0,0,0-.27878.09235.67279.67279,0,0,0-.1893.28854,1.47077,1.47077,0,0,0-.08891.33271,2.48832,2.48832,0,0,0-.0304.38777,2.37763,2.37763,0,0,0,.047.47669,1.199,1.199,0,0,0,.13653.37688.44917.44917,0,0,0,.42219.23863.42122.42122,0,0,0,.28108-.09351.70676.70676,0,0,0,.19159-.29656,1.71064,1.71064,0,0,0,.08375-.32181,2.30645,2.30645,0,0,0,.03557-.38032Zm3.26,1.53275V30.8481h-.48644v1.96411L15.154,30.8481h-.48643v3.07467H15.154V31.83934l1.1748,2.08343Zm2.75906-.62412-.46349-.17438a.71535.71535,0,0,1-.20593.2719.43894.43894,0,0,1-.27133.08605.56964.56964,0,0,1-.27133-.05909.53787.53787,0,0,1-.19217-.17954,1.25214,1.25214,0,0,1-.14111-.378,2.27065,2.27065,0,0,1-.05163-.48472,2.40455,2.40455,0,0,1,.03041-.3849,1.45318,1.45318,0,0,1,.08891-.3264.622.622,0,0,1,.20593-.292.51835.51835,0,0,1,.31263-.08891.48054.48054,0,0,1,.27649.06482.84219.84219,0,0,1,.22831.261l.45431-.19274a1.13172,1.13172,0,0,0-.38318-.47611,1.01177,1.01177,0,0,0-.57593-.15259,1.11606,1.11606,0,0,0-.45661.08777.89062.89062,0,0,0-.33271.25641,1.52394,1.52394,0,0,0-.253.54093,2.71375,2.71375,0,0,0-.0304,1.26888,2.02213,2.02213,0,0,0,.16406.48013,1.00172,1.00172,0,0,0,.374.41646,1.091,1.091,0,0,0,.56674.13423.91476.91476,0,0,0,.55987-.17095,1.15268,1.15268,0,0,0,.36712-.50823ZM22.30436,32.39a2.81111,2.81111,0,0,1-.08661.7027,1.48245,1.48245,0,0,1-.24839.54094.81356.81356,0,0,1-.31664.25985,1.014,1.014,0,0,1-.42678.08432.98253.98253,0,0,1-.53578-.13423.97269.97269,0,0,1-.34991-.41645,2.08715,2.08715,0,0,1-.156-.479,2.77466,2.77466,0,0,1-.05966-.55815,2.71094,2.71094,0,0,1,.09006-.70557,1.75635,1.75635,0,0,1,.24494-.54724.84476.84476,0,0,1,.32869-.25986,1.12018,1.12018,0,0,1,.456-.08432.899.899,0,0,1,.50078.13423,1.04078,1.04078,0,0,1,.35279.41646,2.082,2.082,0,0,1,.15143.48013,2.947,2.947,0,0,1,.05507.56617Zm-.48644,0a2.36294,2.36294,0,0,0-.047-.483,1.3041,1.3041,0,0,0-.13653-.37975.47563.47563,0,0,0-.16693-.17438.52832.52832,0,0,0-.23232-.06425h-.02753a.42457.42457,0,0,0-.27879.09235.67269.67269,0,0,0-.18929.28854,1.47023,1.47023,0,0,0-.08892.33271,2.49076,2.49076,0,0,0-.0304.38777,2.37762,2.37762,0,0,0,.047.47669,1.19877,1.19877,0,0,0,.13652.37688.4492.4492,0,0,0,.4222.23863.42119.42119,0,0,0,.28107-.09351.70677.70677,0,0,0,.1916-.29656,1.71141,1.71141,0,0,0,.08375-.32181,2.3075,2.3075,0,0,0,.03556-.38032Zm3.56286,1.53275V30.8481h-.48643L24.183,32.57358l-.7113-1.72548H22.9853v3.07467h.48644V32.14221l.7113,1.78056.71131-1.78056v1.78056Zm1.22826,0V30.8481h-.49562v3.07467Zm2.82494,0V30.8481h-.48644v1.96411L27.82781,30.8481h-.48644v3.07467h.48644V31.83934l1.1748,2.08343Zm2.75913-.91782V32.39h-1.0463v.48644h.55986V33.005a.44926.44926,0,0,1-.15143.34361.57431.57431,0,0,1-.38549.13366A.47888.47888,0,0,1,30.926,33.422a.48649.48649,0,0,1-.1784-.18757,1.45369,1.45369,0,0,1-.11186-.374,2.738,2.738,0,0,1-.03958-.47038,2.48955,2.48955,0,0,1,.03041-.38777,1.47077,1.47077,0,0,1,.08891-.33271.622.622,0,0,1,.20593-.292.51839.51839,0,0,1,.31263-.08891.45774.45774,0,0,1,.28739.08375.7416.7416,0,0,1,.20823.28337l.46349-.18356a1.17449,1.17449,0,0,0-.37974-.52028.9662.9662,0,0,0-.57937-.1589,1.11606,1.11606,0,0,0-.45661.08777.89051.89051,0,0,0-.3327.25641,1.62344,1.62344,0,0,0-.24954.54208,2.7,2.7,0,0,0-.09464.71073,2.91726,2.91726,0,0,0,.05277.55356,2.03084,2.03084,0,0,0,.14914.47439.958.958,0,0,0,.35393.42449,1.04614,1.04614,0,0,0,.56388.13537.94274.94274,0,0,0,.97288-.97288ZM16.0279,36.97908V36.5477H14.128v.43138h.70213v2.64333h.48645V36.97908Zm2.01522,2.64333-.49562-1.34h-.58282v1.34h-.48645V36.5477h1.0142a1.87254,1.87254,0,0,1,.308.02065.87493.87493,0,0,1,.24265.07572.80106.80106,0,0,1,.33329.31436.86184.86184,0,0,1-.00173.9138.79542.79542,0,0,1-.34533.31378l.54152,1.4364Zm-.02294-2.212a.39476.39476,0,0,0-.30346-.366.887.887,0,0,0-.16922-.01032h-.58282v.75261h.58282a.97233.97233,0,0,0,.1675-.00975.36375.36375,0,0,0,.11243-.04073.39005.39005,0,0,0,.14112-.14054.36862.36862,0,0,0,.05163-.18529Zm2.879,2.212-.30288-.86276h-.95912l-.30289.86276h-.51857l1.06009-3.07471h.48186l1.06008,3.07471Zm-.77556-2.22113L19.807,38.264h.615Zm3.66846-.36713V36.5477H21.88306v3.07471h.48644v-1.34h.89488v-.49563H22.3695v-.75261Zm2.36629,0V36.5477H24.24935v3.07471h.48645v-1.34h.89487v-.49563H24.7358v-.75261Zm.95285,2.58826V36.5477h-.49563v3.07471Zm2.76072-.62412-.4635-.17439a.71535.71535,0,0,1-.20593.2719.43889.43889,0,0,1-.27134.08605.56967.56967,0,0,1-.27133-.05908.53788.53788,0,0,1-.19216-.17955,1.252,1.252,0,0,1-.14112-.378,2.27139,2.27139,0,0,1-.05163-.48473,2.40477,2.40477,0,0,1,.03041-.38491,1.45371,1.45371,0,0,1,.08891-.3264.622.622,0,0,1,.20594-.292.51828.51828,0,0,1,.31263-.08891.4805.4805,0,0,1,.2765.06482.84206.84206,0,0,1,.2283.261l.45433-.19274a1.13185,1.13185,0,0,0-.38319-.47612,1.01178,1.01178,0,0,0-.57594-.15259,1.116,1.116,0,0,0-.45661.08777.89074.89074,0,0,0-.33271.25641,1.52388,1.52388,0,0,0-.253.541,2.71339,2.71339,0,0,0-.0304,1.26888,2.02206,2.02206,0,0,0,.16406.48014,1.00179,1.00179,0,0,0,.374.41646,1.091,1.091,0,0,0,.56676.13423.91469.91469,0,0,0,.55987-.17094,1.15271,1.15271,0,0,0,.36713-.50825Z" fill="#010101"/><path id="Hintergrund-3" data-name="Hintergrund" d="M22.02361,23.09253a1.02638,1.02638,0,0,0,.8903-.51569l.533-.91447h.00248l10.24739-17.762.00535-.01025a1.02641,1.02641,0,0,0-.87653-1.56839H11.21684a1.02618,1.02618,0,0,0-.89073,1.536l.00193.00339L20.96915,22.33539a1.85934,1.85934,0,0,0,.32886.45653A1.023,1.023,0,0,0,22.02361,23.09253Z" fill="#fff"/><path id="Rahmen" d="M22.02374,22.82416a.75639.75639,0,0,0,.65666-.36381L33.49388,3.72459a.80069.80069,0,0,0,.08943-.36535.76933.76933,0,0,0-.27434-.58876.75527.75527,0,0,0-.49374-.1804H11.212a.67444.67444,0,0,0-.38374.10953.75358.75358,0,0,0-.364.64421.8529.8529,0,0,0,.10066.38077l10.80722,18.7389.00311.00493.00329.005a.70012.70012,0,0,0,.14121.162.76868.76868,0,0,0,.44839.18585c.01856.00165.03713.00273.05555.00287ZM32.81523,2.59008h0ZM22.035,19.11082,13.79433,4.82764H30.28721Z" fill="#c1121c"/></g></svg>