<svg xmlns="http://www.w3.org/2000/svg" viewBox="0 0 44 44"><g id="d0_t14_1p0_2p1015_1s0"><path id="Hintergrund" d="M22.00033,4.46983a1.73246,1.73246,0,0,0-1.5028.87046l-.89974,1.54364h-.00413L2.29643,36.86554l-.009.01729A1.7325,1.7325,0,0,0,3.767,39.53016H40.24179a1.73214,1.73214,0,0,0,1.50345-2.59274l-.003-.00573L23.7802,5.7479a3.1369,3.1369,0,0,0-.55509-.77067,1.72662,1.72662,0,0,0-1.22478-.5074Z" fill="#fff"/><path id="Rahmen" d="M22.00012,4.92282a1.27672,1.27672,0,0,0-1.10835.6141L2.639,37.1622a1.35223,1.35223,0,0,0-.151.61664,1.29845,1.29845,0,0,0,.46315.9938,1.27466,1.27466,0,0,0,.83334.30452H40.24985a1.13853,1.13853,0,0,0,.6478-.1849,1.27185,1.27185,0,0,0,.61434-1.08739,1.43871,1.43871,0,0,0-.16991-.64267L23.1,5.53161l-.00531-.00826-.00555-.00856a1.17854,1.17854,0,0,0-.23836-.27342,1.29793,1.29793,0,0,0-.7568-.31372C22.06261,4.92488,22.03128,4.92305,22.00012,4.92282ZM3.7845,39.07716h0ZM21.98123,11.19079,35.8911,35.30024H8.05177Z" fill="#c1121c"/><path id="Piktogramm" d="M20.45877,29.39221l-.53588-.88774a.80749.80749,0,0,1-1.07873-.37568l-.00193-.00368-.32218-.67143,2.66652.72661.08871-.3266a12.94016,12.94016,0,0,0,4.90634.97372,3.23115,3.23115,0,0,0,2.03471,2.08722l.91686.315a2.58222,2.58222,0,0,1,1.24712.91685l.677.9232a2.57505,2.57505,0,0,0,1.277.92781l-.16206-.975a.6462.6462,0,0,1-.65345-.34116l-1.04252-1.99658-.65079-.4588a1.94027,1.94027,0,0,1-.98926-2.18589l.086-.35111a.64358.64358,0,0,0-.3006-.71131l-.801-.47a1.97778,1.97778,0,0,0-.41892-.18271L23.023,24.9998a2.58161,2.58161,0,0,1-1.73336-1.75041l-.58932-2.01549a1.29668,1.29668,0,0,0,1.07-.56574l-1.31152-.08044,1.64366-.93944a1.61833,1.61833,0,0,0,.81265-1.31712.11371.11371,0,0,0-.10768-.11857.11234.11234,0,0,0-.11491.08529l-.0209.07776a1.29081,1.29081,0,0,1-.66608.83082l-.09307.0479a.0974.0974,0,0,1-.13052-.04255.095.095,0,0,1-.008-.06681l.15285-.63548a.09759.09759,0,0,0-.07241-.11664.09595.09595,0,0,0-.10862.05051l-.52661,1.05639a.48028.48028,0,0,1-.21457.21531l-.22184.11323a.09788.09788,0,0,1-.13126-.04249.09118.09118,0,0,1-.007-.06613L20.876,18.752a.09706.09706,0,0,0-.1811-.06607L20.12022,19.84a1.1313,1.1313,0,0,1-.68238.57738l-1.88622.574v.56475l1.69623.486.50129,3.80678a1.92764,1.92764,0,0,0,.477,1.04L17.75063,26.487a.24419.24419,0,0,0-.27777.201.25276.25276,0,0,0,.02725.15646l.897,1.63109a1.61986,1.61986,0,0,0,1.23885.82721" fill="#010101"/></g></svg>