<svg xmlns="http://www.w3.org/2000/svg" viewBox="0 0 44 44"><g id="d0_t14_cc-gbr_1p0_2p1027_1s0"><path id="Hintergrund" d="M22.0125,2.03871A19.98438,19.98438,0,1,1,2.025,22.01163,19.98632,19.98632,0,0,1,22.0125,2.03871" fill="#fff"/><path id="Rahmen" d="M22.01248,2.54568A19.47739,19.47739,0,1,0,41.4899,22.01413,19.46558,19.46558,0,0,0,22.01248,2.54568Zm0,35.45825a15.98087,15.98087,0,1,1,15.98334-15.99A15.97882,15.97882,0,0,1,22.01248,38.00393Z" fill="#ec1d24"/><g id="Piktogramm"><path id="path12" d="M16.37436,26.0031V15.37224l2.63452,2.63569V14.05432l-4.0045-4.00625-4.0045,4.00625v3.95361l2.63452-2.63569V26.0031h2.74" fill="#ec1d24"/><path id="path14" d="M29.21383,11.40139v15.955l3.95186-3.97119v5.93912l-6.00683,6.00941-6.02431-6.00941V23.38523L25.104,27.35642v-15.955h4.10993" fill="#010101"/></g></g></svg>