<svg id="V2" xmlns="http://www.w3.org/2000/svg" xmlns:xlink="http://www.w3.org/1999/xlink" viewBox="0 0 44 44"><defs><style>.cls-1{fill:#fff;}.cls-2{fill:none;stroke:#000;stroke-miterlimit:10;stroke-width:1.5px;}.cls-3{fill:url(#Unbenannter_Verlauf_31);}</style><linearGradient id="Unbenannter_Verlauf_31" x1="2" y1="22" x2="42" y2="22" gradientUnits="userSpaceOnUse"><stop offset="0" stop-color="#e52421"/></linearGradient></defs><path class="cls-1" d="M22,41A19,19,0,0,1,22,3,19.12089,19.12089,0,0,1,41,22,18.99157,18.99157,0,0,1,22,41Z"/><path d="M26.532,9.00861q.59619,0,1.6748-.05859v.9414c-.75781-.03857-1.30566-.05859-1.64648-.05859H18.04565q0,4.11914-.11426,5.501a13.47667,13.47667,0,0,1-.56738,2.85351,9.02434,9.02434,0,0,1-1.30567,2.64844,5.25852,5.25852,0,0,0-.85205-.64746,7.30156,7.30156,0,0,0,1.22071-2.207,13.61378,13.61378,0,0,0,.59668-3.853q.11279-2.52978,0-5.11963Zm.87109,2.73926A9.81712,9.81712,0,0,0,26.7,13.76935q-.46875,1.66994-1.58106,4.95118H26.7l1.93261-.0586v1.11328l-2.166-.05859H20.20043l-2.22509.05859V18.66193l2.45947.0586h3.63037A40.42119,40.42119,0,0,0,25.324,14.70685a30.96329,30.96329,0,0,0,.73242-3.42773Q26.69946,11.51423,27.40307,11.74787Zm-7.78809.76172a49.50549,49.50549,0,0,1,2.2251,4.6875c-.50781.19629-.87842.35156-1.1123.46875a34.77023,34.77023,0,0,0-2.1084-4.62891A8.899,8.899,0,0,0,19.615,12.50959Zm2.63135-3.501a13.76143,13.76143,0,0,0-1.13525-1.353,9.36941,9.36941,0,0,1,.9082-.706,14.28512,14.28512,0,0,1,1.19141,1.353A7.07409,7.07409,0,0,0,22.24633,9.00861Zm.355,1.97754q.936,2.696,1.40528,4.62891a11.03811,11.03811,0,0,1-1.1709.35156,34.38422,34.38422,0,0,0-1.40528-4.62891A3.89569,3.89569,0,0,0,22.60131,10.98615Z"/><path d="M18.24875,31.68281q-.34424.48486-.71631,1.12988-.37353.646-1.11719,1.77442a2.67672,2.67672,0,0,0-1.03125-.48438,14.74817,14.74817,0,0,0,1.71924-2.957A7.70774,7.70774,0,0,0,18.24875,31.68281Zm2.77148-9.4751a12.25847,12.25847,0,0,0-.937,1.11377h5.27q-.87744,1.40625-1.40527,2.168h3.10351q-.05859.82177-.05859,2.31446,0,1.49414.05859,2.43164H19.615q-1.054,0-2.34229.05859V29.23945q1.22974.05859,1.93213.0586h6.73438v-.9375h-5.563q-.87818,0-2.28369.05859V27.36445q1.40551.05859,2.10791.0586h5.73877V26.427H20.20041q-1.52345,0-2.34229.0586V25.841a8.4116,8.4116,0,0,1-1.40527,1.23047,3.04334,3.04334,0,0,0-.76123-.82031,8.0545,8.0545,0,0,0,2.2251-1.9043,12.61657,12.61657,0,0,0,1.93262-2.6665A7.87067,7.87067,0,0,0,21.02023,22.20771Zm-2.81054,3.28174h4.50879a13.80393,13.80393,0,0,0,.87841-1.23047h-4.2163Q18.91111,24.78634,18.20969,25.48945Zm1.81591,7.16113v.75391q0,.64453,1.03125.64453h2.75147q.51416.05274.68652-.18847a1.90308,1.90308,0,0,0,.17285-.99512,7.00306,7.00306,0,0,0,1.26075.37695,2.73017,2.73017,0,0,1-.60254,1.45215,1.60971,1.60971,0,0,1-1.17481.26855H20.08225a1.11217,1.11217,0,0,1-1.14551-1.12988v-.96777q0-.64454-.05762-1.50488h1.20313Q20.02512,31.95235,20.0256,32.65058Zm2.86475.32325a9.98992,9.98992,0,0,0-1.94775-1.77442,3.78929,3.78929,0,0,0,.80224-.75293,23.25907,23.25907,0,0,1,2.06348,1.72071A3.81545,3.81545,0,0,0,22.89035,32.97383Zm5.043,1.29a24.27778,24.27778,0,0,0-2.40625-2.52637,4.03588,4.03588,0,0,0,.74512-.75293,20.90075,20.90075,0,0,1,2.52148,2.52637C28.52609,33.72676,28.239,33.97676,27.93332,34.26387Z"/><line class="cls-2" x1="31.7" y1="9" x2="31.7" y2="35"/><line class="cls-2" x1="12.3" y1="9" x2="12.3" y2="35"/><path class="cls-3" d="M22,4A18,18,0,1,1,4,22,18.02039,18.02039,0,0,1,22,4m0-2A20,20,0,1,0,42,22,20,20,0,0,0,22,2Z"/></svg>