<svg id="V2" xmlns="http://www.w3.org/2000/svg" xmlns:xlink="http://www.w3.org/1999/xlink" viewBox="0 0 44 44"><defs><style>.cls-1{fill:#fff;}.cls-2{fill:url(#Unbenannter_Verlauf);}.cls-3{fill:url(#Unbenannter_Verlauf-2);}.cls-4{fill:url(#Unbenannter_Verlauf_3);}.cls-5{fill:url(#Unbenannter_Verlauf_31);}</style><linearGradient id="Unbenannter_Verlauf" x1="29.21401" y1="22.14999" x2="38.58942" y2="22.14999" gradientUnits="userSpaceOnUse"><stop offset="0" stop-color="#010101"/><stop offset="0"/></linearGradient><linearGradient id="Unbenannter_Verlauf-2" x1="11.83246" y1="15.99921" x2="33.5755" y2="15.99921" xlink:href="#Unbenannter_Verlauf"/><linearGradient id="Unbenannter_Verlauf_3" x1="98.36178" y1="716.5689" x2="128.06178" y2="716.5689" gradientTransform="translate(-83.0256 -618.71199) scale(0.9)" xlink:href="#Unbenannter_Verlauf"/><linearGradient id="Unbenannter_Verlauf_31" x1="2" y1="22" x2="42" y2="22" gradientUnits="userSpaceOnUse"><stop offset="0" stop-color="#e52421"/></linearGradient></defs><path class="cls-1" d="M22,41A19,19,0,0,1,22,3,19.12089,19.12089,0,0,1,41,22,18.99157,18.99157,0,0,1,22,41Z"/><polygon class="cls-2" points="37 18.6 32.9 21.9 31.7 19.5 29.2 20.8 32.5 25.7 38.6 20.1 37 18.6"/><polygon class="cls-3" points="25 17.7 26.4 17.5 26.7 18.6 27.256 20.298 33.6 17.4 31.7 11.7 11.8 16.1 16.978 19.45 25 17.7"/><path class="cls-4" d="M25.4,19.2,5.5,23.6l10.2,6.7L27.3,25Zm5.2,6.9-4.1,3.3L25.3,27l-2.5,1.3,3.3,4.9,6.1-5.6Z"/><path class="cls-5" d="M22,4A18,18,0,1,1,4,22,18.02039,18.02039,0,0,1,22,4m0-2A20,20,0,1,0,42,22,20,20,0,0,0,22,2Z"/></svg>