<svg id="V2" xmlns="http://www.w3.org/2000/svg" xmlns:xlink="http://www.w3.org/1999/xlink" viewBox="0 0 44 44"><defs><style>.cls-1{fill:#fff;}.cls-2{fill:url(#Unbenannter_Verlauf_40);}</style><linearGradient id="Unbenannter_Verlauf_40" x1="2" y1="22" x2="42" y2="22" gradientUnits="userSpaceOnUse"><stop offset="0" stop-color="#e52421"/></linearGradient></defs><path class="cls-1" d="M22,41A19,19,0,0,1,22,3,19.12089,19.12089,0,0,1,41,22,18.99157,18.99157,0,0,1,22,41Z"/><path d="M7.70053,19.2024Q8.81527,20.238,9.68686,21.10132q-.19336.23072-.67774.86182a14.82718,14.82718,0,0,0-1.88965-1.83935A4.66707,4.66707,0,0,0,7.70053,19.2024Zm3.05176,3.91211q-.33986.74853-1.01758,2.38769-.67822,1.63917-1.11328,2.55957a8.19415,8.19415,0,0,0-1.0166-.63281,14.1877,14.1877,0,0,0,1.40332-2.70312,8.99254,8.99254,0,0,0,.72656-2.01465A2.78215,2.78215,0,0,0,10.75229,23.11451ZM8.86361,15.406q.4834.57495,1.74415,1.78321-.48488.57567-.67872.86328Q8.71763,16.78687,8.1849,16.26929,8.62143,15.69361,8.86361,15.406Zm5.3584,3.001a30.89918,30.89918,0,0,0-.18554,3.25146,9.79745,9.79745,0,0,1-.80274,4.01368,9.23108,9.23108,0,0,1-2.28613,2.87109,2.62293,2.62293,0,0,0-.80371-.70313,6.64628,6.64628,0,0,0,2.03808-2.373,8.964,8.964,0,0,0,.834-3.75,24.91508,24.91508,0,0,0-.03027-3.42725Q13.48079,18.34913,14.222,18.407Zm1.85352-2.28516c0,.35156-.02149.89893-.06152,1.64063v4.10107q0,1.05469.06152,2.05078H15.02475V16.94214H12.05893V24.0315H11.00815q.063-1.11329.0625-2.168V17.76246q0-.468-.0625-1.64063Zm-1.35938,8.437a23.77832,23.77832,0,0,1,2.22461,2.69532,5.12959,5.12959,0,0,0-.92675.70312A15.13528,15.13528,0,0,0,13.91244,25.262Q14.283,24.969,14.71615,24.55884Zm3.48047-5.24072v3.88037q0,1.25538.0586,1.88379H17.08334q.05714-.68555.0586-1.88379V19.43238q0-1.14111-.0586-2.05518h1.17188Q18.19516,18.29127,18.19662,19.31812Zm2.168-1.42773v9.47412a.79139.79139,0,0,1-.38086.77148,6.82013,6.82013,0,0,1-1.55273.42871,2.509,2.509,0,0,0-.52735-1.25683,4.19066,4.19066,0,0,0,1.17188-.02832c.19433-.05762.293-.23828.293-.542V18.23316q0-1.541-.0586-2.91064h1.11329Q20.36313,16.63574,20.36459,17.89039Z"/><path d="M23.4935,20.38648h2.01758c-.041.55274-.0586,1.08447-.0586,1.59619v3.72656q1.24512,1.41943,4.95313,1.53711A29.78778,29.78778,0,0,0,36.13217,27.01,3.63017,3.63017,0,0,0,35.597,28.429q-2.49022-.06006-4.18164-.11816-1.69335-.06006-3.05664-.23633a5.67509,5.67509,0,0,1-2.40429-.85742,1.37112,1.37112,0,0,0-1.75-.08887A6.0722,6.0722,0,0,0,23.01889,28.429a2.47548,2.47548,0,0,0-.9502-.82812,13.16085,13.16085,0,0,1,2.25489-1.95118V21.45045H23.31479l-.94825.05859V20.32789Zm.29687-4.73047q1.59962,2.24634,1.957,2.83789-.416.29664-1.06836.70948a24.04815,24.04815,0,0,0-1.83789-2.89747C23.19565,16.06959,23.513,15.85377,23.79037,15.656Zm6.54688.66553a14.12031,14.12031,0,0,0-.06446-1.45313h1.17188q-.06738.68922-.06641,1.52979h2.3418c.52148,0,1.084-.02539,1.69336-.07666v1.147c-.60938-.05029-1.17188-.07617-1.69336-.07617H31.31381v1.07031h3.57813q-.06445.8423-.06446,1.75879,0,.84229.06446,1.75928H31.31381q0,3.28711.06445,4.665H30.27279q.06446-1.377.06446-4.12988a15.45235,15.45235,0,0,1-1.39844,1.835,11.42119,11.42119,0,0,1-1.78906,1.60644,3.82021,3.82021,0,0,0-1.10547-.76465,5.3963,5.3963,0,0,0,2.01758-1.415,6.611,6.611,0,0,0,1.30078-1.79687H26.89q.06446-1.07007.06446-1.835,0-.84082-.06446-1.68311h3.44727V17.39234h-2.3418q-.84375,0-1.75586.07617V16.24537q.91113.0769,1.75586.07617Zm0,4.66553V19.53394h-2.3418v1.45313Zm3.44922,0V19.53394H31.31381v1.45313Zm1.6914,3.51709c-.25976.35644-.5.71386-.71679,1.07129q-1.1045-.99463-2.666-2.29493c.21484-.2539.43359-.53515.65039-.84082Q33.3314,22.89821,35.47787,24.50416Z"/><path class="cls-2" d="M22,4A18,18,0,1,1,4,22,18.02039,18.02039,0,0,1,22,4m0-2A20,20,0,1,0,42,22,20,20,0,0,0,22,2Z"/></svg>