<svg id="V2" xmlns="http://www.w3.org/2000/svg" xmlns:xlink="http://www.w3.org/1999/xlink" viewBox="0 0 44 44"><defs><style>.cls-1{fill:#fff;}.cls-2{fill:url(#Unbenannter_Verlauf_3);}</style><linearGradient id="Unbenannter_Verlauf_3" x1="2" y1="22" x2="42" y2="22" gradientUnits="userSpaceOnUse"><stop offset="0" stop-color="#e52421"/></linearGradient></defs><path class="cls-1" d="M22,41A19,19,0,0,1,22,3,19.12089,19.12089,0,0,1,41,22,18.99157,18.99157,0,0,1,22,41Z"/><path d="M23.31494,14.50842c4.78081,0,4.78085,2.61672,4.78087,3.60181a3.04012,3.04012,0,0,1-1.58713,2.97191,7.40723,7.40723,0,0,1-3.393.76607l-4.68581,0h-.25746L18.172,14.50842h5.14292m0-2.25h-7.393l.0011,19.48316H18.4299l0-7.64334,4.68581,0c2.34558,0,7.23018-.81532,7.23009-5.988s-4.65563-5.85177-7.03087-5.85177Z"/><path class="cls-2" d="M22,2A20,20,0,1,0,42,22,20.0588,20.0588,0,0,0,22,2ZM35.37311,33.95923,10.04077,8.62689A17.80457,17.80457,0,0,1,22,4,18.05293,18.05293,0,0,1,40,22a17.80457,17.80457,0,0,1-4.62689,11.95923ZM22,40A18.05293,18.05293,0,0,1,4,22,17.80464,17.80464,0,0,1,8.62671,10.041L33.95905,35.37329A17.8043,17.8043,0,0,1,22,40Z"/></svg>