<svg id="V2" xmlns="http://www.w3.org/2000/svg" xmlns:xlink="http://www.w3.org/1999/xlink" viewBox="0 0 44 44"><defs><style>.cls-1{fill:#fff;}.cls-2{fill:url(#Unbenannter_Verlauf);}.cls-3{fill:url(#Unbenannter_Verlauf_40);}</style><linearGradient id="Unbenannter_Verlauf" x1="7" y1="-526.75" x2="36.7" y2="-526.75" gradientTransform="matrix(1, 0, 0, -1, 0, -504)" gradientUnits="userSpaceOnUse"><stop offset="0" stop-color="#010101"/><stop offset="0"/></linearGradient><linearGradient id="Unbenannter_Verlauf_40" x1="2" y1="22" x2="42" y2="22" gradientUnits="userSpaceOnUse"><stop offset="0" stop-color="#e52421"/></linearGradient></defs><path class="cls-1" d="M22,41A19,19,0,0,1,22,3,19.12089,19.12089,0,0,1,41,22,18.99157,18.99157,0,0,1,22,41Z"/><path class="cls-2" d="M29.1,15,7,19.9l11.3,7.4,12.9-5.9Zm5.8,7.7-4.6,3.7L29,23.7l-2.8,1.4,3.7,5.4,6.8-6.2Z"/><path class="cls-3" d="M22,4A18,18,0,1,1,4,22,18.02039,18.02039,0,0,1,22,4m0-2A20,20,0,1,0,42,22,20,20,0,0,0,22,2Z"/></svg>