<svg id="V2" xmlns="http://www.w3.org/2000/svg" xmlns:xlink="http://www.w3.org/1999/xlink" viewBox="0 0 22 22"><defs><style>.cls-1{fill:#fff;}.cls-2{fill:url(#Unbenannter_Verlauf_3);}.cls-3{fill:url(#Unbenannter_Verlauf_40);}</style><linearGradient id="Unbenannter_Verlauf_3" x1="3.49985" y1="11.90188" x2="18.34935" y2="11.90188" gradientTransform="matrix(1, 0, 0, -1, 0, 23.27561)" gradientUnits="userSpaceOnUse"><stop offset="0" stop-color="#010101"/><stop offset="0"/></linearGradient><linearGradient id="Unbenannter_Verlauf_40" x1="0.75" y1="11" x2="21.25" y2="11" gradientUnits="userSpaceOnUse"><stop offset="0" stop-color="#e52421"/></linearGradient></defs><path class="cls-1" d="M11,21.6252A10.62525,10.62525,0,1,1,21.625,10.99971,10.63735,10.63735,0,0,1,11,21.6252Z"/><path class="cls-1" d="M11,.75h0a10.25,10.25,0,1,1-7.248,3.00229A10.26164,10.26164,0,0,1,11,.75M10.99981,0A11,11,0,1,0,22,10.99981,11,11,0,0,0,10.99981,0Z"/><path class="cls-2" d="M14.54948,7.49886,3.49985,9.94878l5.64981,3.69987,6.44978-2.9499Zm2.8999,3.84987-2.29992,1.84994-.65-1.35-1.4.7,1.84994,2.69991,3.39988-3.0999Z"/><path class="cls-3" d="M11,1.75A9.25,9.25,0,1,1,1.75,11,9.26047,9.26047,0,0,1,11,1.75m0-1A10.25,10.25,0,1,0,21.25,11,10.25,10.25,0,0,0,11,.75Z"/></svg>