<svg xmlns="http://www.w3.org/2000/svg" viewBox="0 0 44 44"><title>icid-queuetraffic_d0</title><g id="icid-queuetraffic_d0"><g id="Ebene_1-2" data-name="Ebene 1-2"><path d="M3.85,39.6a1.50387,1.50387,0,0,1-1.1-.4,1.74962,1.74962,0,0,1-.7-1.4,1.88389,1.88389,0,0,1,.2-.8L20.55,5.3a1.85862,1.85862,0,0,1,1.5-.9,1.6498,1.6498,0,0,1,1.5.9l18.2,31.6a1.48611,1.48611,0,0,1,.2.9,1.97434,1.97434,0,0,1-.6,1.4,1.50387,1.50387,0,0,1-1.1.4Z" fill="none"/><path d="M3.85,39.1a1.1355,1.1355,0,0,1-.8-.3,1.23077,1.23077,0,0,1-.5-1,1.854,1.854,0,0,1,.2-.7L20.95,5.6a1.30269,1.30269,0,0,1,1.8-.4.78076.78076,0,0,1,.4.4l18.2,31.6a1.42132,1.42132,0,0,1,.2.6,1.23077,1.23077,0,0,1-.5,1,1.1355,1.1355,0,0,1-.8.3Z" fill="#e52421"/><polygon points="8.15 35.3 22.05 11.3 35.95 35.3 8.15 35.3" fill="#fff"/></g><path d="M20.32,33.11a.70422.70422,0,0,0,.7.71h.47a.70422.70422,0,0,0,.7-.71V31.95l-1.86.01C20.32,32.54,20.32,33.11,20.32,33.11Zm7.91,0a.70422.70422,0,0,0,.7.71h.47a.70422.70422,0,0,0,.7-.71V31.98l-1.86.01v1.12Zm2.21-4.82L28.61,25H21.72l-1.83,3.29c-.26.09-.44.18-.44.53v1.87c0,.44.26.98.52.98H30.43c.26,0,.52-.53.52-.98V28.82A.51043.51043,0,0,0,30.44,28.29Zm-9.51-.62,1.13-2.22h6.19l1.13,2.22Z" fill-rule="evenodd"/><path d="M21.26,24.48H16.04l.93-1.82h5.06l.86,1.68h.57l-1.14-2.05H16.69l-1.5,2.69c-.21.07-.36.15-.36.44v1.53c0,.36.21.8.43.8h4.1Z"/><path d="M15.53,28.93a.57839.57839,0,0,0,.57.58h.38a.572.572,0,0,0,.57-.58v-.95l-1.52.01Z"/></g></svg>