<svg xmlns="http://www.w3.org/2000/svg" viewBox="0 0 44 44"><title>icid-fire_d0</title><g id="icid-fire_d0"><g id="Ebene_1-2" data-name="Ebene 1-2"><path d="M3.83934,39.60147a1.5,1.5,0,0,1-1.1-.4,1.7,1.7,0,0,1-.7-1.4,1.90019,1.90019,0,0,1,.2-.8l18.3-31.7a1.9,1.9,0,0,1,1.5-.9,1.6,1.6,0,0,1,1.5.9l18.2,31.6a1.50011,1.50011,0,0,1,.2.9,2.0001,2.0001,0,0,1-.6,1.4,1.5,1.5,0,0,1-1.1.4Z" fill="none"/><path d="M3.83934,39.10147a1.1,1.1,0,0,1-.8-.3,1.2,1.2,0,0,1-.5-1,1.10008,1.10008,0,0,1,.2-.7l18.2-31.5a1.3,1.3,0,0,1,2.2,0l18.2,31.6a1.15109,1.15109,0,0,1-.3,1.6,1.3,1.3,0,0,1-.8.3Z" fill="#e52421"/><polygon points="8.139 35.301 22.039 11.301 35.939 35.301 8.139 35.301" fill="#fff"/></g><path d="M24.63934,33.40147c3.3-1.8,3.1-8.2,3.1-7.6s-1.8,3.3-.9.7a4.7,4.7,0,0,0-1-4.6c.3,1-.8,2.5-1,2.7a6.1,6.1,0,0,0-.2-4l-.5-1.1a7.09946,7.09946,0,0,1-.5,2,22.30044,22.30044,0,0,1-.9-2.2c-.3-.7-1.4-2.2-1.4-2.8a14.49882,14.49882,0,0,0-.4,2.8c-.1.9-.3.9-.4,1.6-.2-1.3-1-2.1-1.1-3.1-.2,3.8-1.3,5.1-.8,7.7-.6-.3,0-2.2-1-2.9a17.79958,17.79958,0,0,0,.2,5.2,26.002,26.002,0,0,0-1.5-2.6c-.1,3.3-1.1,6.7,2.1,8.2h-2.8v1.2h12.8v-1.2Zm-6.1-3.1a8.30023,8.30023,0,0,0,1.3,1.2s-.3-1.8-.5-2.4.5.8.8,1.1a3.6,3.6,0,0,1,.2-2.8,8.80026,8.80026,0,0,0,.9,2.6,3.90005,3.90005,0,0,1,.2-1.8,4.09989,4.09989,0,0,0,.3-2.4c0-.7.1-.6.2-.2a8.89932,8.89932,0,0,1,.7,1.9,4.19985,4.19985,0,0,1-.1,1.5s.5-1.4.8-1.5a5.40017,5.40017,0,0,0-.2,1.5,2.39989,2.39989,0,0,1,0,1.2s.8-.8.6-1.3a3.7031,3.7031,0,0,1,0,1.9,1.3,1.3,0,0,0-.1.5l.4-.2c.3-.2.7-.6.7-.7a6,6,0,0,1-1.1,3h-4A5.30006,5.30006,0,0,1,18.53934,30.30147Z" fill-rule="evenodd"/></g></svg>