<svg xmlns="http://www.w3.org/2000/svg" viewBox="0 0 44 44"><title>icid-stattraffic_d0</title><g id="icid-stattraffic_d0"><g id="Ebene_1-2" data-name="Ebene 1-2"><path d="M3.83508,39.59545a1.50391,1.50391,0,0,1-1.1-.4,1.74623,1.74623,0,0,1-.7-1.4,1.884,1.884,0,0,1,.2-.8l18.3-31.7a1.85862,1.85862,0,0,1,1.5-.9,1.64981,1.64981,0,0,1,1.5.9l18.2,31.6a1.486,1.486,0,0,1,.2.9,1.97434,1.97434,0,0,1-.6,1.4,1.50386,1.50386,0,0,1-1.1.4Z" fill="none"/><path d="M3.83508,39.09545a1.13548,1.13548,0,0,1-.8-.3,1.2308,1.2308,0,0,1-.5-1,1.07829,1.07829,0,0,1,.2-.7l18.2-31.5a1.30833,1.30833,0,0,1,2.2,0l18.2,31.6a1.4214,1.4214,0,0,1,.2.6,1.38856,1.38856,0,0,1-.5,1,1.32985,1.32985,0,0,1-.8.3Z" fill="#e52421"/><polygon points="8.135 35.295 22.035 11.295 35.935 35.295 8.135 35.295" fill="#fff"/></g><path d="M23.33315,33.93569a.58183.58183,0,0,0,.57162.59187l.00571.00007h.38732a.58182.58182,0,0,0,.5774-.58622l-.00007-.00572V32.971l-1.542.00731Zm6.5406,0a.58183.58183,0,0,0,.57162.59187l.00571.00007h.38732a.58182.58182,0,0,0,.5774-.58622l-.00007-.00572v-.93542l-1.542.00731Zm1.827-3.99014L30.188,27.227H24.48781l-1.51273,2.71855c-.21924.07308-.35809.14616-.35809.43848v1.542c0,.3654.21923.81119.43116.81119h8.65261c.21923,0,.43116-.43848.43116-.81119V30.384a.43357.43357,0,0,0-.42861-.43846Zm-7.856-.51155.93542-1.8416H29.903l.93541,1.8416Z" fill-rule="evenodd"/><path d="M24.26267,27.10123l2.19405.00051c-.0291-.04984-.03741-.0666-.05927-.10083L25.1306,24.72423H20.357l-1.26685,2.27668c-.18359.06121-.29986.12237-.29986.36718v1.29136c0,.306.18359.67933.36108.67933h3.85846Zm-3.66088-2.071h4.2901l.78339,1.54222H19.81847Z"/><path d="M19.39008,30.34245a.4872.4872,0,0,0,.47858.49567l.00488.00006h.32434a.48725.48725,0,0,0,.48358-.49089l-.00006-.00484v-.8078l-1.29132.0061Z"/><path d="M15.97264,27.27288a.40565.40565,0,0,0,.39851.41267l.004.00005h.27a.40569.40569,0,0,0,.40257-.40879l-.00005-.00393v-.67261l-1.075.00518Z"/><path d="M21.80663,24.49084l-1.05469-1.89539H16.77763L15.723,24.49084c-.15284.051-.2497.10192-.2497.30572V25.8717c0,.25476.15289.56555.30066.56555h3.34058L20.144,24.58718h1.719m-4.88146-1.737h3.57172l.65222,1.284H16.32927Z"/></g></svg>