<svg xmlns="http://www.w3.org/2000/svg" viewBox="0 0 44 44"><title>icid-smog_d0</title><g id="icid-smog_d0"><g id="Ebene_1-2" data-name="Ebene 1-2"><circle cx="22" cy="22" r="15" fill="#fff"/><path d="M21.9998,2.5005a19.46115,19.46115,0,1,0,.07778,0Q22.03868,2.50043,21.9998,2.5005Zm0,33.9a14.4,14.4,0,1,1,14.4-14.4A14.4,14.4,0,0,1,21.9998,36.4005Z" fill="#e52421"/><rect x="8.55978" y="18.83222" width="26.88982" height="5.59247" fill="#fff"/></g><g id="mKAKoX"><path d="M21.79072,18.41066v7.01H20.7444V21.11012l-.03776-.01451c-.02361.04789-.04923.0949-.07053.1438-.44191,1.01453-.88511,2.02852-1.3223,3.04508a.20086.20086,0,0,1-.22694.152,5.45051,5.45051,0,0,0-.59229-.00086.17387.17387,0,0,1-.19388-.12716q-.65342-1.51687-1.31559-3.03a.43744.43744,0,0,0-.12155-.17858v4.32246H15.80873V18.41112c.31484,0,.62091-.00591.92625.00636.04579.00184.10484.08137.12966.1374q.93528,2.11108,1.86378,4.22519c.02634.0598.05365.11917.091.202.033-.0727.05817-.1258.08143-.17972q.91449-2.12016,1.82572-4.24169a.20536.20536,0,0,1,.228-.1531C21.22754,18.4175,21.50113,18.41066,21.79072,18.41066Z"/><path d="M34.00474,20.43283c-.34385,0-.688.00453-1.03175-.00613-.03982-.00124-.08964-.08106-.11353-.134a1.406,1.406,0,0,0-1.62934-.83443A1.35715,1.35715,0,0,0,30.194,20.5895a10.55265,10.55265,0,0,0-.00194,2.6589,1.36078,1.36078,0,0,0,1.47815,1.1827,1.40232,1.40232,0,0,0,1.324-1.31164c.01178-.16883.00175-.33918.00175-.53179H31.5858v-1.0092h2.46461c.00743.0106.01893.01935.01883.028-.00666.58646.021,1.176-.02931,1.75871a2.45593,2.45593,0,0,1-2.25418,2.12347,2.49476,2.49476,0,0,1-2.11013-.82637,2.02345,2.02345,0,0,1-.56967-1.333c-.01789-.93164-.03352-1.86492.00171-2.79555a2.39086,2.39086,0,0,1,2.07427-2.15891,2.46694,2.46694,0,0,1,1.868.4518,2.614,2.614,0,0,1,.94212,1.4294,1.01679,1.01679,0,0,1,.02273.11256A.28233.28233,0,0,1,34.00474,20.43283Z"/><path d="M27.99249,23.4975a2.42359,2.42359,0,0,1-2.20716,1.99117,2.50031,2.50031,0,0,1-2.24242-.96626,2.03689,2.03689,0,0,1-.46114-1.25979c-.01156-.88823-.021-1.77714.0007-2.665a2.4117,2.4117,0,0,1,2.13378-2.22985,2.51713,2.51713,0,0,1,2.33826.96186,2.01035,2.01035,0,0,1,.46124,1.2253C28.03186,21.015,28.04516,22.98014,27.99249,23.4975Zm-1.06136-2.8554a1.39319,1.39319,0,0,0-2.76632.019,12.2918,12.2918,0,0,0,.00078,2.54486,1.39346,1.39346,0,0,0,2.76542.013A22.93829,22.93829,0,0,0,26.93113,20.6421Z"/><path d="M14.46068,19.08587l-.57022.84561c-.33132-.13578-.64326-.28411-.9687-.39157a2.20092,2.20092,0,0,0-1.153-.07762.93089.93089,0,0,0-.77945,1.16211.82119.82119,0,0,0,.61467.607c.388.09159.785.15,1.18083.20289a1.96929,1.96929,0,0,1,1.7711,1.35946A1.89,1.89,0,0,1,13.20834,25.352,3.93852,3.93852,0,0,1,9.6748,24.6605c-.04764-.036-.092-.07639-.15636-.13015l.69938-.7975a3.33766,3.33766,0,0,0,1.43156.64925,2.51882,2.51882,0,0,0,1.25305-.05033.92441.92441,0,0,0,.681-1.1159q-.00807-.03335-.01859-.066a.863.863,0,0,0-.78484-.62648c-.44338-.07321-.89428-.10986-1.33182-.20757a1.80673,1.80673,0,0,1-1.4979-1.44,1.95252,1.95252,0,0,1,.71391-2.088,2.46686,2.46686,0,0,1,1.63666-.43514,4.13061,4.13061,0,0,1,2.11227.70042C14.4268,19.06165,14.43972,19.07138,14.46068,19.08587Z"/></g></g></svg>