<svg xmlns="http://www.w3.org/2000/svg" viewBox="0 0 40 40"><g id="EA45_flag_venezuela"><path d="M0,7H40V33H0Z" fill="#cf142b" /><path d="M0,7H40V24.33333H0Z" fill="#00247d" /><path d="M0,7H40v8.66667H0Z" fill="#fc0" /><polygon points="21.694 17.16 21.582 16.361 21.203 17.073 20.408 16.933 20.969 17.514 20.59 18.227 21.315 17.873 21.876 18.453 21.764 17.654 22.49 17.3 21.694 17.16" fill="#fff" /><polygon points="24.284 18.72 25.087 18.636 24.388 18.232 24.556 17.443 23.956 17.983 23.257 17.579 23.585 18.317 22.985 18.857 23.788 18.773 24.116 19.51 24.284 18.72" fill="#fff" /><polygon points="26.287 20.584 27.071 20.78 26.552 20.161 26.979 19.477 26.231 19.779 25.712 19.161 25.768 19.966 25.02 20.269 25.803 20.464 25.86 21.269 26.287 20.584" fill="#fff" /><polygon points="27.925 22.714 28.562 22.217 27.755 22.245 27.479 21.487 27.256 22.263 26.449 22.291 27.119 22.742 26.896 23.518 27.532 23.021 28.202 23.473 27.925 22.714" fill="#fff" /><polygon points="19.076 17.514 19.636 16.933 18.841 17.073 18.462 16.361 18.35 17.16 17.555 17.3 18.281 17.654 18.168 18.453 18.729 17.873 19.455 18.227 19.076 17.514" fill="#fff" /><polygon points="16.46 18.317 16.788 17.579 16.089 17.983 15.489 17.443 15.657 18.232 14.958 18.636 15.76 18.72 15.928 19.51 16.257 18.773 17.06 18.857 16.46 18.317" fill="#fff" /><polygon points="14.276 19.966 14.332 19.161 13.813 19.779 13.065 19.477 13.493 20.161 12.974 20.78 13.757 20.584 14.185 21.269 14.241 20.464 15.025 20.269 14.276 19.966" fill="#fff" /><polygon points="12.788 22.263 12.566 21.487 12.29 22.245 11.483 22.217 12.119 22.714 11.843 23.473 12.512 23.021 13.148 23.518 12.926 22.742 13.595 22.291 12.788 22.263" fill="#fff" /></g></svg>