<svg xmlns="http://www.w3.org/2000/svg" viewBox="0 0 44 44"><defs><linearGradient id="Kontur" x1="5.17377" y1="19.74667" x2="38.82623" y2="19.74667" gradientUnits="userSpaceOnUse"><stop offset="0" stop-color="#666" /><stop offset="0.00559" stop-color="#666" /></linearGradient></defs><g id="highway_exit_for_RAMP_STRAIGHT_V2" data-name="highway exit for RAMP STRAIGHT_V2"><rect id="Hintergrund" x="2" y="2" width="40" height="40" rx="5" opacity="0.35" /><path id="Kontur-2" data-name="Kontur" d="M38.82623,34.85H28.53461l-2.29486-18.1h1.412l2.38282,16.6h6.79162l-5.448-16.6h0l-.00006-.00006-2.002-6.1H27.551l-.9411-1.5h3.96637Zm-22.478-18.1-2.38282,16.6H7.17377l7.45-22.7h1.79529l.92926-1.5H13.42377l-8.25,25.7H15.46539l2.29486-18.1Zm7.95306-1.5h4.35831L21.96789,4.64337,15.3387,15.25h4.29582s-1.8916,19.2-1.8916,19.6h8.44995C26.19287,34.45,24.30127,15.25,24.30127,15.25Z" fill="url(#Kontur)" /></g></svg>