<svg xmlns="http://www.w3.org/2000/svg" id="Highway_exit_for_Ramp_Right" viewBox="0 0 44 44"><defs><linearGradient id="Kontur" x1="2.75" y1="22" x2="41.25" y2="22" gradientUnits="userSpaceOnUse"><stop offset="0" stop-color="#666" /><stop offset="0.00559" stop-color="#666" /></linearGradient></defs><rect id="Hintergrund" x="2" y="2" width="40" height="40" rx="5" opacity="0.35" /><path id="Kontur-2" data-name="Kontur" d="M15.15,34.85H2.75l7.1-25.7h5.3Zm-10.4-1.5h8.9V10.65h-2.6Zm14.4-9.6v-13h2.6l2,7.2a14.96044,14.96044,0,0,1,1.3-1.1l-2.1-7.6h-5.3v18A21.6944,21.6944,0,0,1,19.15,23.75Zm8.8-12.2,3.1,3.1a26.34539,26.34539,0,0,0-9.6,8.3,28.26526,28.26526,0,0,0-3.9,11.9h12.5c-.2-.3-4-4.8-2.3-10.2a11.43086,11.43086,0,0,1,6-7.3l3.1,3.1,4.4-8.9Z" fill="url(#Kontur)" /></svg>