<?xml version="1.0" encoding="UTF-8"?>
<svg id="Layer_1" data-name="Layer 1" xmlns="http://www.w3.org/2000/svg" xmlns:xlink="http://www.w3.org/1999/xlink" viewBox="0 0 44 44">
  <defs>
    <style>
      .cls-1 {
        fill: url(#Kontur-5);
      }

      .cls-2 {
        opacity: .2;
      }

      .cls-3 {
        fill: url(#Kontur-3);
      }

      .cls-4 {
        fill: url(#Kontur-4);
      }

      .cls-5 {
        fill: url(#Kontur-6);
      }

      .cls-6 {
        isolation: isolate;
        opacity: .35;
      }

      .cls-7 {
        fill: url(#Kontur-2);
      }

      .cls-8 {
        fill: url(#Kontur);
      }

      .cls-9 {
        fill: url(#Kontur-7);
      }
    </style>
    <linearGradient id="Kontur" x1="6.19839" y1="24.19196" x2="14.03927" y2="24.19196" gradientTransform="translate(3.17858 -1.15251) rotate(7.16552)" gradientUnits="userSpaceOnUse">
      <stop offset="1" stop-color="#666"/>
      <stop offset="1" stop-color="#666"/>
    </linearGradient>
    <linearGradient id="Kontur-2" data-name="Kontur" x1="17.05343" y1="36.77252" x2="27.20248" y2="36.77252" gradientTransform="matrix(1, 0, 0, 1, 0, 0)" xlink:href="#Kontur"/>
    <linearGradient id="Kontur-3" data-name="Kontur" x1="9.63465" y1="30.84782" x2="19.21049" y2="30.84782" gradientTransform="matrix(1, 0, 0, 1, 0, 0)" xlink:href="#Kontur"/>
    <linearGradient id="Kontur-4" data-name="Kontur" x1="3.52633" y1="23.64102" x2="41.98891" y2="23.64102" gradientTransform="matrix(1, 0, 0, 1, 0, 0)" xlink:href="#Kontur"/>
    <linearGradient id="Kontur-5" data-name="Kontur" x1="26.93749" y1="15.39483" x2="42" y2="15.39483" gradientTransform="matrix(1, 0, 0, 1, 0, 0)" xlink:href="#Kontur"/>
    <linearGradient id="Kontur-6" data-name="Kontur" x1="14.38672" y1="22.36129" x2="42" y2="22.36129" gradientTransform="matrix(1, 0, 0, 1, 0, 0)" xlink:href="#Kontur"/>
    <linearGradient id="Kontur-7" data-name="Kontur" x1="2.7876" y1="23.40027" x2="25.7005" y2="23.40027" gradientTransform="matrix(1, 0, 0, 1, 0, 0)" xlink:href="#Kontur"/>
  </defs>
  <rect id="Hintergrund" class="cls-6" x="2" y="2.1" width="40" height="40" rx="5" ry="5"/>
  <polygon class="cls-8" points="6.9484 26.94146 6.27956 23.8734 10.47641 24.64901 12.80894 20.97242 14.17972 23.89272 12.29641 27.84432 6.9484 26.94146"/>
  <polygon class="cls-7" points="20.79813 41.62393 17.05343 38.70655 23.30759 37.75496 22.91457 31.92111 26.45926 34.83849 27.20248 40.5567 20.79813 41.62393"/>
  <polygon class="cls-3" points="12.19014 34.937 9.63465 31.88234 15.60553 31.72111 16.3819 26.75864 19.21049 29.55775 18.86625 34.63387 12.19014 34.937"/>
  <g class="cls-2">
    <path class="cls-4" d="M37.00234,42.1c2.32074,0,4.25397-1.58881,4.81781-3.73248,.04712-.17932,.08246-.36102,.10962-.54761,.02808-.19318,.05377-.38702,.05914-.58667v-15.3432c-7.29895-1.65533-14.3125-5.08911-14.3125-8.84229,0-2.73395,3.4491-3.93707,5.48267-4.47223l-8.7879-3.39349C12.75857,7.46847,3.52633,13.83975,3.52633,22.22824c0,5.78668,2.53394,11.88806,8.72955,17.26105,.29822,.25861,1.92621,1.5282,3.32092,2.61072h21.42554Z"/>
  </g>
  <g>
    <path class="cls-1" d="M26.93749,13.04825c0,4.36621,7.43074,7.91498,15.06251,9.6109v-1.53772c-7.8067-1.79034-13.56251-5.17621-13.56251-8.07318,0-2.59766,4.35695-3.62402,5.78859-3.96191l.10596-.02539-.00958-.04047-2.30475-.88995c-2.18866,.7005-5.08021,2.10175-5.08021,4.91772Z"/>
    <path class="cls-5" d="M14.38672,17.72012c0,5.62305,8.02344,11.60352,13.4165,14.25098,4.04901,1.98798,10.83423,4.96503,14.03601,6.3562l.11896-.59387,.04181-.43188v-.54016c-3.33728-1.45245-9.68751-4.24725-13.53564-6.13599-5.22266-2.56445-12.57764-8.26367-12.57764-12.90527,0-4.82941,7.25934-9.19495,14.21198-10.33069l-2.57458-.99414c-6.84607,1.7641-13.13739,6.24469-13.13739,11.32483Z"/>
    <path class="cls-9" d="M4.2876,22.22793c0-7.81708,8.89233-14.44934,21.4129-16.53687l-2.56512-.99054C12.27557,7.14566,2.7876,13.29385,2.7876,22.22793c0,6.56445,3.10791,12.72949,8.98828,17.82812,.25848,.22424,1.41168,1.12756,2.58954,2.04395h2.44635c-1.67731-1.29913-3.73322-2.89966-4.05347-3.17676-5.5415-4.80566-8.4707-10.5791-8.4707-16.69531Z"/>
  </g>
</svg>