<svg xmlns="http://www.w3.org/2000/svg" xmlns:xlink="http://www.w3.org/1999/xlink" viewBox="0 0 50 50"><defs><linearGradient id="Hintergrund_weiss" x1="2.75" y1="25" x2="47.25" y2="25" gradientUnits="userSpaceOnUse"><stop offset="0" stop-color="#fff"/></linearGradient><linearGradient id="Rahmen_schwarz" x1="2" y1="25" x2="48" y2="25" gradientUnits="userSpaceOnUse"><stop offset="0" stop-color="#010101"/></linearGradient><linearGradient id="Piktogrammkontur_schwarz" x1="8.5" y1="16.25" x2="19.5" y2="16.25" gradientUnits="userSpaceOnUse"><stop offset="0" stop-color="#010101"/>
</linearGradient><linearGradient id="Piktogrammkontur_schwarz-2" x1="18.94254" y1="11.6" x2="39.55173" y2="11.6" xlink:href="#Piktogrammkontur_schwarz"/><linearGradient id="Beschriftung_schwarz" x1="9.32764" y1="34.4326" x2="23.8331" y2="34.4326" xlink:href="#Rahmen_schwarz"/><linearGradient id="Beschriftung_schwarz-2" x1="27.22718" y1="34.43283" x2="40.61428" y2="34.43283" xlink:href="#Rahmen_schwarz"/></defs><g id="d0_t311_2s0"><rect x="2.75" y="2.75" width="44.5" height="44.5" rx="3" fill="url(#Hintergrund_weiss)"/><rect x="2.75" y="2.75" width="44.5" height="44.5" rx="3" fill="none" stroke-miterlimit="10" stroke-width="1.5" stroke="url(#Rahmen_schwarz)"/><path d="M19.5,11.5H17.3c-.8,0-3.1.2-3.1,1.9s1.1,2,2.8,3.9c2,2.2.5,3.7-1,3.7H8.5" fill="none" stroke-miterlimit="10" stroke-width="1.5" stroke="url(#Piktogrammkontur_schwarz)"/><path d="M38.2,15.1a.6.6,0,0,0,0-1.2H32.7V9.2h5.5a.64522.64522,0,0,0,.6-.6.64522.64522,0,0,0-.6-.6H32.7V5.6H25.5A6.138,6.138,0,0,0,20.1,9a4.63821,4.63821,0,0,0-.4,2.1v1a4.37834,4.37834,0,0,0,.4,2.1,6.413,6.413,0,0,0,5.5,3.4h7.1V15.1Z" fill="none" stroke-miterlimit="10" stroke-width="1.5" stroke="url(#Piktogrammkontur_schwarz-2)"/><path d="M9.32764,43.794V25.07129h6.05761a11.1296,11.1296,0,0,1,2.78516.31885,7.71042,7.71042,0,0,1,2.16553.90478,6.36657,6.36657,0,0,1,1.603,1.42383,7.49753,7.49753,0,0,1,1.08741,1.875,10.24416,10.24416,0,0,1,.61328,2.25391,16.31589,16.31589,0,0,1,.19336,2.56543,15.88245,15.88245,0,0,1-.19922,2.56347,10.22581,10.22581,0,0,1-.6294,2.25977,7.59554,7.59554,0,0,1-1.10986,1.88379,6.45292,6.45292,0,0,1-1.63428,1.43652,7.851,7.851,0,0,1-2.20361.915,11.32328,11.32328,0,0,1-2.82324.32227Zm5.792-1.957a8.10186,8.10186,0,0,0,1.98535-.22363A5.51632,5.51632,0,0,0,18.6792,40.96a4.62008,4.62008,0,0,0,1.19189-1.06445,5.65207,5.65207,0,0,0,.8252-1.45117,8.454,8.454,0,0,0,.47754-1.81836,14.21312,14.21312,0,0,0,.15478-2.17481,14.70259,14.70259,0,0,0-.15136-2.17773,8.64753,8.64753,0,0,0-.4712-1.834,5.74483,5.74483,0,0,0-.8125-1.458A4.52736,4.52736,0,0,0,18.708,27.915a5.51011,5.51011,0,0,0-1.584-.65625,8.23789,8.23789,0,0,0-2.00439-.22461H11.76172V41.83691Z" fill="url(#Beschriftung_schwarz)"/><path d="M40.61426,43.17578a10.58433,10.58433,0,0,1-1.02735.3877,9.64375,9.64375,0,0,1-1.18261.29394q-.64161.11865-1.40039.18262-.75879.063-1.68848.06348a9.40128,9.40128,0,0,1-2.34277-.27832,7.33179,7.33179,0,0,1-1.98536-.82032,6.564,6.564,0,0,1-1.5996-1.35742,7.70032,7.70032,0,0,1-1.1797-1.89062,10.76584,10.76584,0,0,1-.73047-2.41407,16.04651,16.04651,0,0,1-.25-2.92968,15.10462,15.10462,0,0,1,.23437-2.72364,10.965,10.965,0,0,1,.69239-2.34765A8.25656,8.25656,0,0,1,29.2959,27.419a6.71633,6.71633,0,0,1,1.584-1.43848,7.31874,7.31874,0,0,1,2.0166-.90283,8.93256,8.93256,0,0,1,2.4375-.31543q.73389,0,1.44825.06933a13.33985,13.33985,0,0,1,1.36621.20215,9.92142,9.92142,0,0,1,1.21679.3252,6.28608,6.28608,0,0,1,1.002.43213v2.11425a7.8191,7.8191,0,0,0-1.02051-.41015,10.92554,10.92554,0,0,0-1.18262-.3125,13.07911,13.07911,0,0,0-1.2998-.19922,13.54468,13.54468,0,0,0-1.37208-.06934,6.67172,6.67172,0,0,0-1.78321.22461,4.85226,4.85226,0,0,0-1.45116.66211,4.69494,4.69494,0,0,0-1.11914,1.08008,5.98773,5.98773,0,0,0-.793,1.47363,9.18215,9.18215,0,0,0-.47461,1.85254,14.41283,14.41283,0,0,0-.1582,2.20606,13.34538,13.34538,0,0,0,.19922,2.4121,8.68023,8.68023,0,0,0,.56934,1.92188,5.79674,5.79674,0,0,0,.89453,1.45507,4.94149,4.94149,0,0,0,1.17968,1.0127,5.03164,5.03164,0,0,0,1.42188.59375,6.63241,6.63241,0,0,0,1.62207.19239q.82177,0,1.52734-.0625.70458-.063,1.31836-.17677a10.39543,10.39543,0,0,0,1.14746-.27832q.53468-.16405,1.02148-.36621Z" fill="url(#Beschriftung_schwarz-2)"/></g></svg>