<svg xmlns="http://www.w3.org/2000/svg" xmlns:xlink="http://www.w3.org/1999/xlink" viewBox="0 0 50 50"><defs><linearGradient id="Hintergrund_weiss" x1="2.75" y1="25" x2="47.25" y2="25" gradientUnits="userSpaceOnUse"><stop offset="0" stop-color="#fff"/></linearGradient><linearGradient id="Rahmen_schwarz" x1="2" y1="25" x2="48" y2="25" gradientUnits="userSpaceOnUse"><stop offset="0" stop-color="#010101"/></linearGradient><linearGradient id="Beschriftung_schwarz" x1="7.84521" y1="34.4324" x2="24.81006" y2="34.4324" xlink:href="#Rahmen_schwarz"/><linearGradient id="Beschriftung_schwarz-2" x1="26.89027" y1="34.43257" x2="40.2774" y2="34.43257" xlink:href="#Rahmen_schwarz"/><linearGradient id="Piktogrammkontur_schwarz" x1="5.25" y1="13" x2="18.75" y2="13" gradientUnits="userSpaceOnUse"><stop offset="0" stop-color="#010101"/>
</linearGradient><linearGradient id="Piktogrammkontur_schwarz-2" x1="13.95" x2="27.45" xlink:href="#Piktogrammkontur_schwarz"/><linearGradient id="Piktogrammkontur_schwarz-3" x1="22.55" x2="36.05" xlink:href="#Piktogrammkontur_schwarz"/><linearGradient id="Piktogrammkontur_schwarz-4" x1="31.25" x2="44.75" xlink:href="#Piktogrammkontur_schwarz"/></defs><g id="d0_t318_2s0"><rect x="2.75" y="2.75" width="44.5" height="44.5" rx="3" fill="url(#Hintergrund_weiss)"/><rect x="2.75" y="2.75" width="44.5" height="44.5" rx="3" fill="none" stroke-miterlimit="10" stroke-width="1.5" stroke="url(#Rahmen_schwarz)"/><path d="M22.19238,43.794l-1.73974-4.753H12.07422l-1.73145,4.753H7.84521l7.13624-18.7232h2.64306L24.81006,43.794ZM17.01074,29.52734q-.21532-.54931-.41113-1.15527a10.829,10.829,0,0,1-.32275-1.249,11.58027,11.58027,0,0,1-.354,1.24609q-.208.60351-.39795,1.1582l-2.73,7.44922H19.7124Z" fill="url(#Beschriftung_schwarz)"/><path d="M40.27734,43.17578a10.58415,10.58415,0,0,1-1.02734.3877,9.64435,9.64435,0,0,1-1.18262.29394q-.64159.11865-1.40039.18262-.75879.063-1.68847.06348a9.40131,9.40131,0,0,1-2.34278-.27832,7.332,7.332,0,0,1-1.98535-.82032,6.56382,6.56382,0,0,1-1.59961-1.35742,7.70059,7.70059,0,0,1-1.17969-1.89062,10.76636,10.76636,0,0,1-.73047-2.41407,16.04739,16.04739,0,0,1-.25-2.92968,15.10463,15.10463,0,0,1,.23438-2.72364,10.96552,10.96552,0,0,1,.69238-2.34765A8.257,8.257,0,0,1,28.959,27.419a6.72866,6.72866,0,0,1,1.584-1.439,7.31844,7.31844,0,0,1,2.0166-.90283,8.93256,8.93256,0,0,1,2.4375-.31543q.73389,0,1.44824.06933a13.33709,13.33709,0,0,1,1.36621.20215,9.92157,9.92157,0,0,1,1.2168.3252,6.287,6.287,0,0,1,1.002.43213v2.11474a7.819,7.819,0,0,0-1.0205-.41015,10.92554,10.92554,0,0,0-1.18262-.3125,13.07841,13.07841,0,0,0-1.29981-.19922,13.54433,13.54433,0,0,0-1.37207-.06934,6.67164,6.67164,0,0,0-1.7832.22461,4.852,4.852,0,0,0-1.45117.66211,4.69494,4.69494,0,0,0-1.11914,1.08008,5.98773,5.98773,0,0,0-.793,1.47363,9.18215,9.18215,0,0,0-.47461,1.85254,14.41292,14.41292,0,0,0-.1582,2.20606,13.34549,13.34549,0,0,0,.19922,2.41211,8.68066,8.68066,0,0,0,.56933,1.92187,5.79726,5.79726,0,0,0,.89453,1.45508,4.94147,4.94147,0,0,0,1.17969,1.01269,5.03165,5.03165,0,0,0,1.42187.59375,6.63214,6.63214,0,0,0,1.62209.19239q.82176,0,1.52734-.0625.70459-.063,1.31836-.17676a10.39769,10.39769,0,0,0,1.14746-.27832q.53464-.16407,1.02148-.36621Z" fill="url(#Beschriftung_schwarz-2)"/><circle cx="12" cy="13" r="6" fill="none" stroke-miterlimit="10" stroke-width="1.5" stroke="url(#Piktogrammkontur_schwarz)"/><circle cx="20.7" cy="13" r="6" fill="none" stroke-miterlimit="10" stroke-width="1.5" stroke="url(#Piktogrammkontur_schwarz-2)"/><circle cx="29.3" cy="13" r="6" fill="none" stroke-miterlimit="10" stroke-width="1.5" stroke="url(#Piktogrammkontur_schwarz-3)"/><circle cx="38" cy="13" r="6" fill="none" stroke-miterlimit="10" stroke-width="1.5" stroke="url(#Piktogrammkontur_schwarz-4)"/></g></svg>