<svg xmlns="http://www.w3.org/2000/svg" xmlns:xlink="http://www.w3.org/1999/xlink" viewBox="0 0 44 44"><defs><linearGradient id="Beschriftung_weiss" x1="10.89404" y1="9.8252" x2="11.84719" y2="9.8252" gradientUnits="userSpaceOnUse"><stop offset="0" stop-color="#fff"/></linearGradient></defs><title>MAX</title><g id="MAX"><path id="Beschriftung_weiss-2" data-name="Beschriftung_weiss" d="M17.73486,13.07422v-5.625q-.62109,1.42236-1.2334,2.81689-.6123,1.39527-1.23339,2.80811H14.24268l-2.46582-5.625v5.625H10.894v-6.498h1.44922l2.44824,5.59815q.61232-1.41285,1.21485-2.79932.60351-1.38575,1.21484-2.79883h1.44922v6.49805Zm7.7666,0-.72851-1.6919H21.37061q-.18018.41382-.36915.84571-.189.43212-.36914.84619h-1.0166l2.9336-6.498h1.0625l2.93359,6.49805ZM23.063,7.47607q-.34278.79248-.68457,1.584-.34131.79248-.6836,1.584h2.7627Zm8.83691,5.59815-1.97949-2.75391q-.50391.70167-.999,1.377t-.999,1.377H26.75244l2.60938-3.375Q28.77734,8.92505,28.188,8.1377q-.59034-.78737-1.17481-1.56153h1.1875L29.98291,9.0874q.4497-.60278.93164-1.25586.48194-.65186.93164-1.25537h1.10645l-2.4209,3.12305q.62988.82836,1.28711,1.6875.6577.85986,1.28711,1.6875Z" fill="url(#Beschriftung_weiss)"/></g></svg>