<svg xmlns="http://www.w3.org/2000/svg" xmlns:xlink="http://www.w3.org/1999/xlink" viewBox="0 0 44 44"><defs><linearGradient id="Hintergrund_weiss" x1="2.23802" y1="22.00003" x2="41.76237" y2="22.00003" gradientUnits="userSpaceOnUse"><stop offset="0" stop-color="#fff"/></linearGradient><linearGradient id="Rahmen_schwarz" x1="2" y1="22" x2="42" y2="22" gradientUnits="userSpaceOnUse"><stop offset="0" stop-color="#010101"/><stop offset="0"/></linearGradient><linearGradient id="Beschriftung_schwarz" x1="7.53203" y1="26.29719" x2="37.20684" y2="26.29719" xlink:href="#Rahmen_schwarz"/></defs><title>speedlimit_usa_can_60</title><g id="speedlimit_usa_can_60"><path id="Hintergrund_weiss-2" data-name="Hintergrund_weiss" d="M4.70709,41.76191h34.585a2.46785,2.46785,0,0,0,2.47027-2.47027V4.70843A2.46988,2.46988,0,0,0,39.2921,2.23816H4.70709A2.46988,2.46988,0,0,0,2.238,4.70843V39.29164A2.51079,2.51079,0,0,0,3.3992,41.39122a2.84065,2.84065,0,0,0,1.30789.37069Z" fill="url(#Hintergrund_weiss)"/><path id="Rahmen_schwarz-2" data-name="Rahmen_schwarz" d="M39.5,3h0a2.09694,2.09694,0,0,1,1.1.4A1.50387,1.50387,0,0,1,41,4.5v35A1.538,1.538,0,0,1,39.5,41H4.5a1.88389,1.88389,0,0,1-.8-.2A1.70937,1.70937,0,0,1,3,39.5V4.5A1.538,1.538,0,0,1,4.5,3h35m0-1H4.5A2.47572,2.47572,0,0,0,2,4.5v35a2.24512,2.24512,0,0,0,1.2,2.1,3.25851,3.25851,0,0,0,1.3.4h35A2.47572,2.47572,0,0,0,42,39.5h0V4.5A2.54,2.54,0,0,0,39.5,2Z" fill="url(#Rahmen_schwarz)"/><path id="Beschriftung_schwarz-2" data-name="Beschriftung_schwarz" d="M21.032,29.785a4.595,4.595,0,0,1-1.78809,3.71289,7.04838,7.04838,0,0,1-4.6123,1.46191,7.61056,7.61056,0,0,1-5.0498-1.71191A5.92264,5.92264,0,0,1,7.532,28.43537a10.58241,10.58241,0,0,1,3.2627-7.42578,10.84069,10.84069,0,0,1,7.88671-3.375v2.82519q-5.22508.82472-7.3496,4.8252a10.19186,10.19186,0,0,1,3.4248-.54981,6.9602,6.9602,0,0,1,4.5,1.42481A4.45089,4.45089,0,0,1,21.032,29.785Zm-2.97559.02539a1.76668,1.76668,0,0,0-.9746-1.5625A4.89608,4.89608,0,0,0,14.532,27.66a5.406,5.406,0,0,0-2.6123.51269,1.53065,1.53065,0,0,0-.8877,1.4375,1.753,1.753,0,0,0,.92481,1.6377A4.58,4.58,0,0,0,14.532,31.91a4.88659,4.88659,0,0,0,2.54981-.58789A1.73131,1.73131,0,0,0,18.05644,29.81037Zm19.1504-3.60059a9.99721,9.99721,0,0,1-1.8877,6.33789A6.07183,6.07183,0,0,1,30.282,34.95978a6.23785,6.23785,0,0,1-5.40039-2.77441,9.99033,9.99033,0,0,1-1.7002-5.92578,9.65606,9.65606,0,0,1,1.9004-6.3125,6.37062,6.37062,0,0,1,5.20019-2.3125,6.13677,6.13677,0,0,1,5.01172,2.36328A9.5655,9.5655,0,0,1,37.20684,26.20978Zm-2.97559.04981a7.21139,7.21139,0,0,0-1.03711-4.14942,3.33886,3.33886,0,0,0-2.91211-1.5,3.458,3.458,0,0,0-2.97559,1.5,7.01581,7.01581,0,0,0-1.07519,4.14942,7.12144,7.12144,0,0,0,1.07519,4.1875A3.44813,3.44813,0,0,0,30.282,31.95978a3.33,3.33,0,0,0,3.14941-1.875A7.99576,7.99576,0,0,0,34.23125,26.25959Z" fill="url(#Beschriftung_schwarz)"/></g></svg>