<svg xmlns="http://www.w3.org/2000/svg" viewBox="0 0 44 44"><title>speedlimit_warning_cancelled_recommendation</title><g id="Ebene_36" data-name="Ebene 36"><path d="M38.59033,22.23145a2.90259,2.90259,0,1,1,2.90235-2.90284A2.90576,2.90576,0,0,1,38.59033,22.23145Z" fill="#010101"/><path d="M38.59033,17.42627a1.90259,1.90259,0,1,0,1.90235,1.90234A1.90466,1.90466,0,0,0,38.59033,17.42627Z" fill="red"/><path d="M38.59033,15.48877A2.491,2.491,0,0,1,36.10205,13.001V2.48828a2.48828,2.48828,0,1,1,4.97656,0V13.001A2.491,2.491,0,0,1,38.59033,15.48877Z" fill="#010101"/><path d="M38.59033,1a1.49008,1.49008,0,0,0-1.48828,1.48828V13.001a1.48828,1.48828,0,0,0,2.97656,0V2.48828A1.49008,1.49008,0,0,0,38.59033,1Z" fill="red"/><polygon points="44 4.034 42.816 3.113 38.59 8.548 34.364 3.113 33.181 4.034 37.641 9.77 33.181 15.505 34.364 16.426 38.59 10.991 42.816 16.426 44 15.505 39.54 9.77 44 4.034"/></g></svg>