<svg xmlns="http://www.w3.org/2000/svg" xmlns:xlink="http://www.w3.org/1999/xlink" viewBox="0 0 44 44"><defs><linearGradient id="Hintergrund_schwarz" x1="2.15488" y1="22.00003" x2="41.84551" y2="22.00003" gradientUnits="userSpaceOnUse"><stop offset="0" stop-color="#010101"/><stop offset="0"/></linearGradient><linearGradient id="Beschriftung_weiss" x1="7.50078" y1="26.31259" x2="37.22637" y2="26.31259" gradientUnits="userSpaceOnUse"><stop offset="0" stop-color="#fff"/></linearGradient><linearGradient id="Rahmen_weiss" x1="2" y1="22" x2="42" y2="22" xlink:href="#Beschriftung_weiss"/></defs><title>speedlimit_usa_can_night_70</title><g id="speedlimit_usa_can_night_70"><path id="Hintergrund_schwarz-2" data-name="Hintergrund_schwarz" d="M4.63434,41.845h34.7305a2.47823,2.47823,0,0,0,2.48067-2.48066V4.63569A2.48029,2.48029,0,0,0,39.36484,2.155H4.63434A2.48029,2.48029,0,0,0,2.15488,4.63569V39.36438A2.52134,2.52134,0,0,0,3.321,41.47279a2.85266,2.85266,0,0,0,1.31339.37225Z" fill="url(#Hintergrund_schwarz)"/><path id="Beschriftung_weiss-2" data-name="Beschriftung_weiss" d="M21.02617,20.85019a25.24732,25.24732,0,0,0-5.1748,13.8252H12.67559a29.34609,29.34609,0,0,1,4.67578-13.79981H7.50078V17.92539H21.02617Zm16.2002,5.375a9.99723,9.99723,0,0,1-1.8877,6.33789,6.07183,6.07183,0,0,1-5.03711,2.41211,6.23786,6.23786,0,0,1-5.40039-2.77441A9.99032,9.99032,0,0,1,23.201,26.275a9.65611,9.65611,0,0,1,1.90039-6.3125A6.37062,6.37062,0,0,1,30.30156,17.65a6.13677,6.13677,0,0,1,5.01172,2.36328A9.5655,9.5655,0,0,1,37.22637,26.22519Zm-2.97559.04981a7.21139,7.21139,0,0,0-1.03711-4.14942,3.33885,3.33885,0,0,0-2.91211-1.5,3.45794,3.45794,0,0,0-2.97558,1.5,7.01573,7.01573,0,0,0-1.0752,4.14942,7.12138,7.12138,0,0,0,1.0752,4.1875,3.4481,3.4481,0,0,0,2.97558,1.51269,3.33,3.33,0,0,0,3.14942-1.875A7.99591,7.99591,0,0,0,34.25078,26.275Z" fill="url(#Beschriftung_weiss)"/><path id="Rahmen_weiss-2" data-name="Rahmen_weiss" d="M39.5,3h0A1.538,1.538,0,0,1,41,4.5v35A1.538,1.538,0,0,1,39.5,41H4.5a1.88389,1.88389,0,0,1-.8-.2A1.70937,1.70937,0,0,1,3,39.5V4.5A1.538,1.538,0,0,1,4.5,3h35m0-1H4.5A2.47572,2.47572,0,0,0,2,4.5v35a2.24512,2.24512,0,0,0,1.2,2.1,3.25851,3.25851,0,0,0,1.3.4h35A2.47572,2.47572,0,0,0,42,39.5h0V4.5A2.54,2.54,0,0,0,39.5,2Z" fill="url(#Rahmen_weiss)"/></g></svg>