<svg xmlns="http://www.w3.org/2000/svg" xmlns:xlink="http://www.w3.org/1999/xlink" viewBox="0 0 44 44"><defs><linearGradient id="Hintergrund_weiss" x1="2.34887" y1="22.00003" x2="41.65152" y2="22.00003" gradientUnits="userSpaceOnUse"><stop offset="0" stop-color="#fff"/></linearGradient><linearGradient id="Rahmen_schwarz" x1="2" y1="22" x2="42" y2="22" gradientUnits="userSpaceOnUse"><stop offset="0" stop-color="#010101"/><stop offset="0"/></linearGradient><linearGradient id="Beschriftung_schwarz" x1="10.7907" y1="26.43894" x2="33.36492" y2="26.43894" xlink:href="#Rahmen_schwarz"/></defs><title>speedlimit_usa_can_15</title><g id="speedlimit_usa_can_15"><path id="Hintergrund_weiss-2" data-name="Hintergrund_weiss" d="M4.80409,41.65106h34.391a2.454,2.454,0,0,0,2.45641-2.45641V4.80542A2.456,2.456,0,0,0,39.19511,2.349H4.80409A2.456,2.456,0,0,0,2.34887,4.80542V39.19465a2.4967,2.4967,0,0,0,1.15466,2.0878,2.82479,2.82479,0,0,0,1.30056.36861Z" fill="url(#Hintergrund_weiss)"/><path id="Rahmen_schwarz-2" data-name="Rahmen_schwarz" d="M39.5,3h0a2.09694,2.09694,0,0,1,1.1.4A1.50387,1.50387,0,0,1,41,4.5v35A1.538,1.538,0,0,1,39.5,41H4.5a1.88389,1.88389,0,0,1-.8-.2A1.70937,1.70937,0,0,1,3,39.5V4.5A1.538,1.538,0,0,1,4.5,3h35m0-1H4.5A2.47572,2.47572,0,0,0,2,4.5v35a2.24512,2.24512,0,0,0,1.2,2.1,3.25851,3.25851,0,0,0,1.3.4h35A2.47572,2.47572,0,0,0,42,39.5h0V4.5A2.54,2.54,0,0,0,39.5,2Z" fill="url(#Rahmen_schwarz)"/><path id="Beschriftung_schwarz-2" data-name="Beschriftung_schwarz" d="M15.8405,34.664H12.89031V22.13864H10.7907V19.61423a3.857,3.857,0,0,0,2.64941-1.7002H15.8405Zm17.52442-5.75a5.49345,5.49345,0,0,1-1.97461,4.33789,7.47029,7.47029,0,0,1-5.0752,1.71192,12.20481,12.20481,0,0,1-6.45019-1.875l1.57519-2.52442a10.12062,10.12062,0,0,0,4.875,1.375,4.69136,4.69136,0,0,0,3.04981-.86328,2.689,2.689,0,0,0,1.125-2.1875,2.54229,2.54229,0,0,0-1.02442-2.21191,4.49686,4.49686,0,0,0-2.77539-.86231,9.643,9.643,0,0,0-3.59961.77442l-2.60058-.75.4248-7.92481H32.0905v2.97461h-8.375l-.15039,2.4502a11.77723,11.77723,0,0,1,3.22461-.47461,6.68746,6.68746,0,0,1,4.72559,1.71191A5.65641,5.65641,0,0,1,33.36492,28.914Z" fill="url(#Beschriftung_schwarz)"/></g></svg>