<svg id="Ebene_35" data-name="Ebene 35" xmlns="http://www.w3.org/2000/svg" viewBox="0 0 44 44"><title>speedlimit_warning_recommendation</title><path d="M41.016,22.23145a2.90259,2.90259,0,1,1,2.90234-2.90284A2.90576,2.90576,0,0,1,41.016,22.23145Z" fill="#010101"/><path d="M41.016,17.42627a1.90259,1.90259,0,1,0,1.90234,1.90234A1.90467,1.90467,0,0,0,41.016,17.42627Z" fill="red"/><path d="M41.016,15.48877A2.491,2.491,0,0,1,38.52768,13.001V2.48828a2.48828,2.48828,0,0,1,4.97656,0V13.001A2.491,2.491,0,0,1,41.016,15.48877Z" fill="#010101"/><path d="M41.016,1a1.49007,1.49007,0,0,0-1.48828,1.48828V13.001a1.48828,1.48828,0,0,0,2.97656,0V2.48828A1.49008,1.49008,0,0,0,41.016,1Z" fill="red"/></svg>