<svg xmlns="http://www.w3.org/2000/svg" xmlns:xlink="http://www.w3.org/1999/xlink" viewBox="0 0 44 44"><defs><linearGradient id="Hintergrund_weiss" x1="1.9998" y1="29.69681" x2="42.0002" y2="29.69681" gradientUnits="userSpaceOnUse"><stop offset="0" stop-color="#fff"/></linearGradient><linearGradient id="Rahmen_schwarz" x1="2" y1="29.55" x2="42" y2="29.55" gradientUnits="userSpaceOnUse"><stop offset="0" stop-color="#010101"/><stop offset="0"/></linearGradient><linearGradient id="Beschriftung_schwarz" x1="7.53105" y1="30.05265" x2="37.20586" y2="30.05265" xlink:href="#Rahmen_schwarz"/></defs><title>speedlimit_school_work_usa_can_35</title><g id="speedlimit_school_work_usa_can_35"><rect id="Hintergrund_weiss-2" data-name="Hintergrund_weiss" x="1.9998" y="17.39363" width="40.00039" height="24.60637" rx="2.2107" fill="url(#Hintergrund_weiss)"/><path id="Rahmen_schwarz-2" data-name="Rahmen_schwarz" d="M39.8,18.1A1.15536,1.15536,0,0,1,41,19.3V39.8A1.15536,1.15536,0,0,1,39.8,41H4.2A1.15536,1.15536,0,0,1,3,39.8V19.3a1.15536,1.15536,0,0,1,1.2-1.2H39.8m0-1H4.2A2.21953,2.21953,0,0,0,2,19.3V39.8A2.21953,2.21953,0,0,0,4.2,42H39.8A2.21953,2.21953,0,0,0,42,39.8V19.3a2.21953,2.21953,0,0,0-2.2-2.2Z" fill="url(#Rahmen_schwarz)"/><path id="Beschriftung_schwarz-2" data-name="Beschriftung_schwarz" d="M20.90605,33.19084a4.94441,4.94441,0,0,1-1.90039,3.9248,7.08518,7.08518,0,0,1-4.72461,1.59961,8.98406,8.98406,0,0,1-6.75-2.9248l2.25-2.25a6.55941,6.55941,0,0,0,4.67481,2.125,4.40777,4.40777,0,0,0,2.51269-.65039,1.97131,1.97131,0,0,0,.96289-1.69922,2.27928,2.27928,0,0,0-.90039-1.85059,3.35466,3.35466,0,0,0-1.84961-.6748H14.15605v-3h.92481a2.275,2.275,0,0,0,1.38769-.47461,1.42143,1.42143,0,0,0,.6377-1.17578,1.46928,1.46928,0,0,0-.8252-1.27442,4.055,4.055,0,0,0-2.125-.5,5.70333,5.70333,0,0,0-3.7998,1.39942L8.33086,23.74064a8.23535,8.23535,0,0,1,6-2.35058,6.45759,6.45759,0,0,1,4.1748,1.32519,4.14338,4.14338,0,0,1,1.65039,3.375,3.57667,3.57667,0,0,1-1.40039,3.125A4.4072,4.4072,0,0,1,20.90605,33.19084Zm16.29981-.52539a5.49341,5.49341,0,0,1-1.97461,4.33789,7.47032,7.47032,0,0,1-5.0752,1.71191,12.20481,12.20481,0,0,1-6.45019-1.875l1.57519-2.52441a10.12084,10.12084,0,0,0,4.875,1.375,4.69146,4.69146,0,0,0,3.04981-.86328,2.689,2.689,0,0,0,1.125-2.1875,2.54228,2.54228,0,0,0-1.02442-2.21192,4.49684,4.49684,0,0,0-2.77539-.8623,9.64276,9.64276,0,0,0-3.59961.77441l-2.60058-.75.4248-7.9248H35.93144v2.97461h-8.375l-.15039,2.45019a11.77761,11.77761,0,0,1,3.22461-.47461,6.68741,6.68741,0,0,1,4.72559,1.71192A5.6564,5.6564,0,0,1,37.20586,32.66545Z" fill="url(#Beschriftung_schwarz)"/></g></svg>