<svg xmlns="http://www.w3.org/2000/svg" xmlns:xlink="http://www.w3.org/1999/xlink" viewBox="0 0 44 44"><defs><linearGradient id="Hintergrund_weiss" x1="1.9998" y1="29.69681" x2="42.0002" y2="29.69681" gradientUnits="userSpaceOnUse"><stop offset="0" stop-color="#fff"/></linearGradient><linearGradient id="Rahmen_schwarz" x1="2" y1="29.55" x2="42" y2="29.55" gradientUnits="userSpaceOnUse"><stop offset="0" stop-color="#010101"/><stop offset="0"/></linearGradient><linearGradient id="Beschriftung_schwarz" x1="7.53008" y1="30.05265" x2="37.20488" y2="30.05265" xlink:href="#Rahmen_schwarz"/></defs><title>speedlimit_school_work_usa_can_30</title><g id="speedlimit_school_work_usa_can_30"><rect id="Hintergrund_weiss-2" data-name="Hintergrund_weiss" x="1.9998" y="17.39363" width="40.00039" height="24.60637" rx="2.2107" fill="url(#Hintergrund_weiss)"/><path id="Rahmen_schwarz-2" data-name="Rahmen_schwarz" d="M39.8,18.1A1.15536,1.15536,0,0,1,41,19.3V39.8A1.15536,1.15536,0,0,1,39.8,41H4.2A1.15536,1.15536,0,0,1,3,39.8V19.3a1.15536,1.15536,0,0,1,1.2-1.2H39.8m0-1H4.2A2.21953,2.21953,0,0,0,2,19.3V39.8A2.21953,2.21953,0,0,0,4.2,42H39.8A2.21953,2.21953,0,0,0,42,39.8V19.3a2.21953,2.21953,0,0,0-2.2-2.2Z" fill="url(#Rahmen_schwarz)"/><path id="Beschriftung_schwarz-2" data-name="Beschriftung_schwarz" d="M20.90508,33.19084a4.94444,4.94444,0,0,1-1.90039,3.9248,7.0852,7.0852,0,0,1-4.72461,1.59961,8.984,8.984,0,0,1-6.75-2.9248l2.25-2.25a6.55937,6.55937,0,0,0,4.6748,2.125,4.40778,4.40778,0,0,0,2.5127-.65039,1.97134,1.97134,0,0,0,.96289-1.69922,2.27934,2.27934,0,0,0-.90039-1.85059,3.35472,3.35472,0,0,0-1.84961-.6748H14.15508v-3h.9248a2.27509,2.27509,0,0,0,1.3877-.47461,1.42144,1.42144,0,0,0,.63769-1.17578,1.46929,1.46929,0,0,0-.82519-1.27442,4.05506,4.05506,0,0,0-2.125-.5,5.70334,5.70334,0,0,0-3.79981,1.39942L8.32988,23.74064a8.23538,8.23538,0,0,1,6-2.35058,6.4576,6.4576,0,0,1,4.17481,1.32519,4.1434,4.1434,0,0,1,1.65039,3.375,3.5767,3.5767,0,0,1-1.40039,3.125A4.40724,4.40724,0,0,1,20.90508,33.19084Zm16.2998-3.22559a9.99723,9.99723,0,0,1-1.88769,6.33789,6.07183,6.07183,0,0,1-5.03711,2.41211,6.23785,6.23785,0,0,1-5.40039-2.77441,9.99033,9.99033,0,0,1-1.7002-5.92578,9.65611,9.65611,0,0,1,1.90039-6.3125,6.37062,6.37062,0,0,1,5.2002-2.3125,6.1368,6.1368,0,0,1,5.01172,2.36328A9.5655,9.5655,0,0,1,37.20488,29.96525Zm-2.97558.04981a7.21147,7.21147,0,0,0-1.03711-4.14942,3.33886,3.33886,0,0,0-2.91211-1.5,3.458,3.458,0,0,0-2.97559,1.5,7.01573,7.01573,0,0,0-1.07519,4.14942,7.12139,7.12139,0,0,0,1.07519,4.1875,3.44813,3.44813,0,0,0,2.97559,1.51269,3.33,3.33,0,0,0,3.14941-1.875A7.9959,7.9959,0,0,0,34.2293,30.01506Z" fill="url(#Beschriftung_schwarz)"/></g></svg>