<svg xmlns="http://www.w3.org/2000/svg" xmlns:xlink="http://www.w3.org/1999/xlink" viewBox="0 0 44 44"><defs><linearGradient id="Hintergrund_weiss" x1="1.9998" y1="29.68845" x2="42.0002" y2="29.68845" gradientUnits="userSpaceOnUse"><stop offset="0" stop-color="#fff"/></linearGradient><linearGradient id="Rahmen_schwarz" x1="2" y1="29.54163" x2="42" y2="29.54163" gradientUnits="userSpaceOnUse"><stop offset="0" stop-color="#010101"/><stop offset="0"/></linearGradient><linearGradient id="Beschriftung_schwarz" x1="7.52324" y1="30.05384" x2="37.17363" y2="30.05384" xlink:href="#Rahmen_schwarz"/></defs><title>speedlimit_school_work_usa_can_190</title><g id="speedlimit_school_work_usa_can_190"><rect id="Hintergrund_weiss-2" data-name="Hintergrund_weiss" x="1.9998" y="17.38526" width="40.00039" height="24.60637" rx="2.2107" fill="url(#Hintergrund_weiss)"/><path id="Rahmen_schwarz-2" data-name="Rahmen_schwarz" d="M39.8,18.09163a1.15536,1.15536,0,0,1,1.2,1.2v20.5a1.15536,1.15536,0,0,1-1.2,1.2H4.2a1.15536,1.15536,0,0,1-1.2-1.2v-20.5a1.15536,1.15536,0,0,1,1.2-1.2H39.8m0-1H4.2a2.21953,2.21953,0,0,0-2.2,2.2v20.5a2.21953,2.21953,0,0,0,2.2,2.2H39.8a2.21953,2.21953,0,0,0,2.2-2.2v-20.5a2.21953,2.21953,0,0,0-2.2-2.2Z" fill="url(#Rahmen_schwarz)"/><path id="Beschriftung_schwarz-2" data-name="Beschriftung_schwarz" d="M11.29863,38.41663H8.94805V24.64124H7.52324V22.74183a2.38448,2.38448,0,0,0,2.02539-1.0752h1.75Zm12.92383-11.0498a13.14481,13.14481,0,0,1-1.6748,5.9375,19.24568,19.24568,0,0,1-4.27442,5.41211l-1.375-1.79981a16.73557,16.73557,0,0,0,3.75-5.15039,2.26482,2.26482,0,0,1-.97558.2002,4.70855,4.70855,0,0,1-3.52442-1.5,5.55887,5.55887,0,0,1-1.27539-3.84961,5.47243,5.47243,0,0,1,1.27539-3.8125A4.386,4.386,0,0,1,19.573,21.39124a4.22623,4.22623,0,0,1,3.375,1.48828A6.754,6.754,0,0,1,24.22246,27.36683Zm-2.2998-.52539a3.615,3.615,0,0,0-.64942-2.25,2.04135,2.04135,0,0,0-1.70019-.84961,2.09834,2.09834,0,0,0-1.72559.77441,3.25722,3.25722,0,0,0-.625,2.10059,3.3529,3.3529,0,0,0,.625,2.13769,2.08346,2.08346,0,0,0,1.72559.78711,2.15987,2.15987,0,0,0,1.70019-.7373A2.86255,2.86255,0,0,0,21.92266,26.84144Zm10.27539,11.875a4.01518,4.01518,0,0,1-3.77442-2.16211,13.80609,13.80609,0,0,1-1.20019-6.5127A13.74794,13.74794,0,0,1,28.42363,23.567a4.01146,4.01146,0,0,1,3.77442-2.17578A4.0129,4.0129,0,0,1,35.97344,23.567a13.76017,13.76017,0,0,1,1.20019,6.47461,13.81829,13.81829,0,0,1-1.20019,6.5127A4.01664,4.01664,0,0,1,32.19805,38.71644Zm0-2.34961a2.01791,2.01791,0,0,0,1.97558-1.52539,14.43031,14.43031,0,0,0,.59961-4.84961,13.76983,13.76983,0,0,0-.59961-4.75,2.05033,2.05033,0,0,0-3.95019,0,13.74112,13.74112,0,0,0-.60059,4.75,14.40009,14.40009,0,0,0,.60059,4.84961A2.01607,2.01607,0,0,0,32.19805,36.36683Z" fill="url(#Beschriftung_schwarz)"/></g></svg>