<svg xmlns="http://www.w3.org/2000/svg" xmlns:xlink="http://www.w3.org/1999/xlink" viewBox="0 0 44 44"><defs><linearGradient id="Hintergrund_schwarz" x1="2.19645" y1="22.00003" x2="41.80394" y2="22.00003" gradientUnits="userSpaceOnUse"><stop offset="0" stop-color="#010101"/><stop offset="0"/></linearGradient><linearGradient id="Beschriftung_weiss" x1="7.53008" y1="26.31562" x2="37.20488" y2="26.31562" gradientUnits="userSpaceOnUse"><stop offset="0" stop-color="#fff"/></linearGradient><linearGradient id="Rahmen_weiss" x1="2" y1="22" x2="42" y2="22" xlink:href="#Beschriftung_weiss"/></defs><title>speedlimit_usa_can_night_30</title><g id="speedlimit_usa_can_night_30"><path id="Hintergrund_schwarz-2" data-name="Hintergrund_schwarz" d="M4.67072,41.80347H39.32847A2.473,2.473,0,0,0,41.80394,39.328V4.67206a2.4751,2.4751,0,0,0-2.47547-2.47547H4.67072A2.4751,2.4751,0,0,0,2.19645,4.67206V39.328a2.51609,2.51609,0,0,0,1.16362,2.104,2.84683,2.84683,0,0,0,1.31065.37147Z" fill="url(#Hintergrund_schwarz)"/><path id="Beschriftung_weiss-2" data-name="Beschriftung_weiss" d="M20.90508,29.4538a4.94444,4.94444,0,0,1-1.90039,3.9248,7.0852,7.0852,0,0,1-4.72461,1.59961,8.984,8.984,0,0,1-6.75-2.9248l2.25-2.25a6.55937,6.55937,0,0,0,4.6748,2.125,4.40778,4.40778,0,0,0,2.5127-.65039,1.97134,1.97134,0,0,0,.96289-1.69922,2.27935,2.27935,0,0,0-.90039-1.85059,3.35472,3.35472,0,0,0-1.84961-.6748H14.15508v-3h.9248a2.275,2.275,0,0,0,1.3877-.47461,1.42143,1.42143,0,0,0,.63769-1.17578,1.46929,1.46929,0,0,0-.82519-1.27442,4.05515,4.05515,0,0,0-2.125-.5A5.70334,5.70334,0,0,0,10.35527,22.028L8.32988,20.0036a8.23538,8.23538,0,0,1,6-2.35058,6.4576,6.4576,0,0,1,4.17481,1.32519,4.1434,4.1434,0,0,1,1.65039,3.375,3.57669,3.57669,0,0,1-1.40039,3.125A4.40724,4.40724,0,0,1,20.90508,29.4538Zm16.2998-3.22559a9.99721,9.99721,0,0,1-1.88769,6.33789,6.07183,6.07183,0,0,1-5.03711,2.41211,6.23785,6.23785,0,0,1-5.40039-2.77441,9.99033,9.99033,0,0,1-1.7002-5.92578,9.65611,9.65611,0,0,1,1.90039-6.3125,6.37062,6.37062,0,0,1,5.2002-2.3125A6.1368,6.1368,0,0,1,35.2918,20.0163,9.5655,9.5655,0,0,1,37.20488,26.22821ZM34.2293,26.278a7.21147,7.21147,0,0,0-1.03711-4.14942,3.33886,3.33886,0,0,0-2.91211-1.5,3.458,3.458,0,0,0-2.97559,1.5A7.01573,7.01573,0,0,0,26.2293,26.278a7.12136,7.12136,0,0,0,1.07519,4.1875,3.44813,3.44813,0,0,0,2.97559,1.51269,3.33,3.33,0,0,0,3.14941-1.875A7.99587,7.99587,0,0,0,34.2293,26.278Z" fill="url(#Beschriftung_weiss)"/><path id="Rahmen_weiss-2" data-name="Rahmen_weiss" d="M39.5,3h0A1.538,1.538,0,0,1,41,4.5v35A1.538,1.538,0,0,1,39.5,41H4.5a1.88389,1.88389,0,0,1-.8-.2A1.70937,1.70937,0,0,1,3,39.5V4.5A1.538,1.538,0,0,1,4.5,3h35m0-1H4.5A2.47572,2.47572,0,0,0,2,4.5v35a2.24512,2.24512,0,0,0,1.2,2.1,3.25851,3.25851,0,0,0,1.3.4h35A2.47572,2.47572,0,0,0,42,39.5h0V4.5A2.54,2.54,0,0,0,39.5,2Z" fill="url(#Rahmen_weiss)"/></g></svg>