<svg xmlns="http://www.w3.org/2000/svg" xmlns:xlink="http://www.w3.org/1999/xlink" viewBox="0 0 44 44"><defs><linearGradient id="Hintergrund_weiss" x1="1.9998" y1="29.69681" x2="42.0002" y2="29.69681" gradientUnits="userSpaceOnUse"><stop offset="0" stop-color="#fff"/></linearGradient><linearGradient id="Rahmen_schwarz" x1="2" y1="29.55" x2="42" y2="29.55" gradientUnits="userSpaceOnUse"><stop offset="0" stop-color="#010101"/><stop offset="0"/></linearGradient><linearGradient id="Beschriftung_schwarz" x1="7.53398" y1="30.19035" x2="37.20879" y2="30.19035" xlink:href="#Rahmen_schwarz"/></defs><title>speedlimit_school_work_usa_can_55</title><g id="speedlimit_school_work_usa_can_55"><rect id="Hintergrund_weiss-2" data-name="Hintergrund_weiss" x="1.9998" y="17.39363" width="40.00039" height="24.60637" rx="2.2107" fill="url(#Hintergrund_weiss)"/><path id="Rahmen_schwarz-2" data-name="Rahmen_schwarz" d="M39.8,18.1A1.15536,1.15536,0,0,1,41,19.3V39.8A1.15536,1.15536,0,0,1,39.8,41H4.2A1.15536,1.15536,0,0,1,3,39.8V19.3a1.15536,1.15536,0,0,1,1.2-1.2H39.8m0-1H4.2A2.21953,2.21953,0,0,0,2,19.3V39.8A2.21953,2.21953,0,0,0,4.2,42H39.8A2.21953,2.21953,0,0,0,42,39.8V19.3a2.21953,2.21953,0,0,0-2.2-2.2Z" fill="url(#Rahmen_schwarz)"/><path id="Beschriftung_schwarz-2" data-name="Beschriftung_schwarz" d="M21.034,32.66545a5.49341,5.49341,0,0,1-1.97461,4.33789,7.47029,7.47029,0,0,1-5.07519,1.71191,12.20486,12.20486,0,0,1-6.4502-1.875l1.5752-2.52441a10.12078,10.12078,0,0,0,4.875,1.375,4.69145,4.69145,0,0,0,3.0498-.86328,2.689,2.689,0,0,0,1.125-2.1875,2.54227,2.54227,0,0,0-1.02441-2.21192,4.49688,4.49688,0,0,0-2.77539-.8623,9.64272,9.64272,0,0,0-3.59961.77441l-2.60059-.75.42481-7.9248H19.75957v2.97461h-8.375l-.15039,2.45019a11.77755,11.77755,0,0,1,3.22461-.47461,6.68738,6.68738,0,0,1,4.72558,1.71192A5.6564,5.6564,0,0,1,21.034,32.66545Zm16.17481,0a5.49341,5.49341,0,0,1-1.97461,4.33789,7.47032,7.47032,0,0,1-5.0752,1.71191,12.20481,12.20481,0,0,1-6.45019-1.875L25.284,34.31584a10.12084,10.12084,0,0,0,4.875,1.375,4.69146,4.69146,0,0,0,3.04981-.86328,2.689,2.689,0,0,0,1.125-2.1875,2.5423,2.5423,0,0,0-1.02442-2.21192,4.49684,4.49684,0,0,0-2.77539-.8623,9.64276,9.64276,0,0,0-3.59961.77441l-2.60058-.75.4248-7.9248H35.93437v2.97461h-8.375L27.409,27.09025a11.77761,11.77761,0,0,1,3.22461-.47461,6.68741,6.68741,0,0,1,4.72559,1.71192A5.6564,5.6564,0,0,1,37.20879,32.66545Z" fill="url(#Beschriftung_schwarz)"/></g></svg>