<svg xmlns="http://www.w3.org/2000/svg" viewBox="0 0 44 44"><title>speedlimit_warning_cancelled_usa_can</title><g id="Ebene_36" data-name="Ebene 36"><path d="M38.52071,22.23145a2.90259,2.90259,0,1,1,2.90235-2.90284A2.90576,2.90576,0,0,1,38.52071,22.23145Z" fill="#010101"/><path d="M38.52071,17.42627a1.90259,1.90259,0,1,0,1.90235,1.90234A1.90466,1.90466,0,0,0,38.52071,17.42627Z" fill="red"/><path d="M38.52071,15.48877A2.491,2.491,0,0,1,36.03243,13.001V2.48828a2.48828,2.48828,0,1,1,4.97656,0V13.001A2.491,2.491,0,0,1,38.52071,15.48877Z" fill="#010101"/><path d="M38.52071,1a1.49008,1.49008,0,0,0-1.48828,1.48828V13.001a1.48828,1.48828,0,0,0,2.97656,0V2.48828A1.49008,1.49008,0,0,0,38.52071,1Z" fill="red"/><polygon points="43.93 4.034 42.747 3.113 38.521 8.548 34.295 3.113 33.111 4.034 37.571 9.77 33.111 15.505 34.295 16.426 38.521 10.991 42.747 16.426 43.93 15.505 39.471 9.77 43.93 4.034"/></g></svg>