<svg xmlns="http://www.w3.org/2000/svg" xmlns:xlink="http://www.w3.org/1999/xlink" viewBox="0 0 44 44"><defs><linearGradient id="Hintergrund_schwarz" x1="2.56616" y1="22.00003" x2="41.43423" y2="22.00003" gradientUnits="userSpaceOnUse"><stop offset="0" stop-color="#010101"/><stop offset="0"/></linearGradient><linearGradient id="Beschriftung_weiss" x1="15.25" y1="26.45099" x2="28.75" y2="26.45099" gradientUnits="userSpaceOnUse"><stop offset="0" stop-color="#fff"/></linearGradient><linearGradient id="Rahmen_weiss" x1="2" y1="22" x2="42" y2="22" xlink:href="#Beschriftung_weiss"/></defs><title>speedlimit_usa_can_night_5</title><g id="speedlimit_usa_can_night_5"><path id="Hintergrund_schwarz-2" data-name="Hintergrund_schwarz" d="M4.99424,41.43377H39.005a2.42688,2.42688,0,0,0,2.42926-2.42925V4.99555A2.42889,2.42889,0,0,0,39.005,2.56629H4.99424A2.42889,2.42889,0,0,0,2.56616,4.99555v34.009a2.46909,2.46909,0,0,0,1.1419,2.06472,2.79348,2.79348,0,0,0,1.28618.36453Z" fill="url(#Hintergrund_schwarz)"/><path id="Beschriftung_weiss-2" data-name="Beschriftung_weiss" d="M28.75,28.92609A5.49343,5.49343,0,0,1,26.77539,33.264a7.47031,7.47031,0,0,1-5.07519,1.71191,12.20484,12.20484,0,0,1-6.4502-1.875l1.5752-2.52441a10.12078,10.12078,0,0,0,4.875,1.375,4.69139,4.69139,0,0,0,3.0498-.86329,2.689,2.689,0,0,0,1.125-2.1875,2.54228,2.54228,0,0,0-1.02441-2.21191,4.49688,4.49688,0,0,0-2.77539-.8623,9.64268,9.64268,0,0,0-3.59961.77441l-2.60059-.75.4248-7.9248H27.47559v2.9746h-8.375l-.15039,2.4502a11.77754,11.77754,0,0,1,3.2246-.47461,6.68744,6.68744,0,0,1,4.72559,1.71191A5.65643,5.65643,0,0,1,28.75,28.92609Z" fill="url(#Beschriftung_weiss)"/><path id="Rahmen_weiss-2" data-name="Rahmen_weiss" d="M39.5,3h0A1.538,1.538,0,0,1,41,4.5v35A1.538,1.538,0,0,1,39.5,41H4.5a1.88389,1.88389,0,0,1-.8-.2A1.70937,1.70937,0,0,1,3,39.5V4.5A1.538,1.538,0,0,1,4.5,3h35m0-1H4.5A2.47572,2.47572,0,0,0,2,4.5v35a2.24512,2.24512,0,0,0,1.2,2.1,3.25851,3.25851,0,0,0,1.3.4h35A2.47572,2.47572,0,0,0,42,39.5h0V4.5A2.54,2.54,0,0,0,39.5,2Z" fill="url(#Rahmen_weiss)"/></g></svg>