<svg xmlns="http://www.w3.org/2000/svg" xmlns:xlink="http://www.w3.org/1999/xlink" viewBox="0 0 44 44"><defs><linearGradient id="Hintergrund_weiss" x1="1.9998" y1="29.69681" x2="42.0002" y2="29.69681" gradientUnits="userSpaceOnUse"><stop offset="0" stop-color="#fff"/></linearGradient><linearGradient id="Rahmen_schwarz" x1="2" y1="29.55" x2="42" y2="29.55" gradientUnits="userSpaceOnUse"><stop offset="0" stop-color="#010101"/><stop offset="0"/></linearGradient><linearGradient id="Beschriftung_schwarz" x1="7.52324" y1="30.05265" x2="37.14824" y2="30.05265" xlink:href="#Rahmen_schwarz"/></defs><title>speedlimit_school_work_usa_can_160</title><g id="speedlimit_school_work_usa_can_160"><rect id="Hintergrund_weiss-2" data-name="Hintergrund_weiss" x="1.9998" y="17.39363" width="40.00039" height="24.60637" rx="2.2107" fill="url(#Hintergrund_weiss)"/><path id="Rahmen_schwarz-2" data-name="Rahmen_schwarz" d="M39.8,18.1A1.15536,1.15536,0,0,1,41,19.3V39.8A1.15536,1.15536,0,0,1,39.8,41H4.2A1.15536,1.15536,0,0,1,3,39.8V19.3a1.15536,1.15536,0,0,1,1.2-1.2H39.8m0-1H4.2A2.21953,2.21953,0,0,0,2,19.3V39.8A2.21953,2.21953,0,0,0,4.2,42H39.8A2.21953,2.21953,0,0,0,42,39.8V19.3a2.21953,2.21953,0,0,0-2.2-2.2Z" fill="url(#Rahmen_schwarz)"/><path id="Beschriftung_schwarz-2" data-name="Beschriftung_schwarz" d="M11.29863,38.41545H8.94805V24.64006H7.52324V22.74064a2.3845,2.3845,0,0,0,2.02539-1.07519h1.75Zm3.625-5.67481a13.14483,13.14483,0,0,1,1.67481-5.9375,19.24939,19.24939,0,0,1,4.27539-5.41308l1.375,1.80078a16.71135,16.71135,0,0,0-3.75,5.14941,2.27169,2.27169,0,0,1,.97461-.20019,4.71938,4.71938,0,0,1,3.52539,1.5,5.56567,5.56567,0,0,1,1.27441,3.85058,5.47822,5.47822,0,0,1-1.27441,3.8125A4.38811,4.38811,0,0,1,19.574,38.71525a4.22273,4.22273,0,0,1-3.375-1.4873A6.74855,6.74855,0,0,1,14.92363,32.74064Zm2.29981.52442a3.60521,3.60521,0,0,0,.65039,2.25,2.03849,2.03849,0,0,0,1.70019.85058,2.09568,2.09568,0,0,0,1.72461-.77539,3.25247,3.25247,0,0,0,.625-2.09961,3.351,3.351,0,0,0-.625-2.13769,2.08017,2.08017,0,0,0-1.72461-.78711,2.15847,2.15847,0,0,0-1.70019.7373A2.8573,2.8573,0,0,0,17.22344,33.26506Zm14.94922,5.45019a4.01518,4.01518,0,0,1-3.77442-2.16211,13.806,13.806,0,0,1-1.20019-6.51269,13.74794,13.74794,0,0,1,1.20019-6.47461,4.01144,4.01144,0,0,1,3.77442-2.17578,4.01289,4.01289,0,0,1,3.77539,2.17578,13.76017,13.76017,0,0,1,1.20019,6.47461,13.81822,13.81822,0,0,1-1.20019,6.51269A4.01664,4.01664,0,0,1,32.17266,38.71525Zm0-2.34961a2.01791,2.01791,0,0,0,1.97558-1.52539,14.43027,14.43027,0,0,0,.59961-4.84961,13.76983,13.76983,0,0,0-.59961-4.75,2.05033,2.05033,0,0,0-3.95019,0,13.74112,13.74112,0,0,0-.60059,4.75,14.40005,14.40005,0,0,0,.60059,4.84961A2.01607,2.01607,0,0,0,32.17266,36.36564Z" fill="url(#Beschriftung_schwarz)"/></g></svg>