<svg xmlns="http://www.w3.org/2000/svg" xmlns:xlink="http://www.w3.org/1999/xlink" viewBox="0 0 44 44"><defs><linearGradient id="Hintergrund_schwarz" x1="2.19645" y1="22.00003" x2="41.80394" y2="22.00003" gradientUnits="userSpaceOnUse"><stop offset="0" stop-color="#010101"/><stop offset="0"/></linearGradient><linearGradient id="Beschriftung_weiss" x1="7.52324" y1="26.31562" x2="37.14824" y2="26.31562" gradientUnits="userSpaceOnUse"><stop offset="0" stop-color="#fff"/></linearGradient><linearGradient id="Rahmen_weiss" x1="2" y1="22" x2="42" y2="22" xlink:href="#Beschriftung_weiss"/></defs><title>speedlimit_usa_can_night_170</title><g id="speedlimit_usa_can_night_170"><path id="Hintergrund_schwarz-2" data-name="Hintergrund_schwarz" d="M4.67072,41.80347H39.32847A2.473,2.473,0,0,0,41.80394,39.328V4.67206a2.4751,2.4751,0,0,0-2.47547-2.47547H4.67072A2.4751,2.4751,0,0,0,2.19645,4.67206V39.328a2.51609,2.51609,0,0,0,1.16362,2.104,2.84683,2.84683,0,0,0,1.31065.37147Z" fill="url(#Hintergrund_schwarz)"/><path id="Beschriftung_weiss-2" data-name="Beschriftung_weiss" d="M11.29863,34.67841H8.94805V20.903H7.52324V19.0036a2.3845,2.3845,0,0,0,2.02539-1.07519h1.75ZM24.27324,20.278a30.5156,30.5156,0,0,0-4.6748,14.40039H17.199A35.6491,35.6491,0,0,1,21.39824,20.278H14.92363V17.92841h9.34961Zm7.89942,14.70019a4.01518,4.01518,0,0,1-3.77442-2.16211,13.806,13.806,0,0,1-1.20019-6.51269,13.74794,13.74794,0,0,1,1.20019-6.47461A4.01144,4.01144,0,0,1,32.17266,17.653a4.01289,4.01289,0,0,1,3.77539,2.17578,13.76017,13.76017,0,0,1,1.20019,6.47461,13.81822,13.81822,0,0,1-1.20019,6.51269A4.01664,4.01664,0,0,1,32.17266,34.97821Zm0-2.34961a2.0179,2.0179,0,0,0,1.97558-1.52539,14.43027,14.43027,0,0,0,.59961-4.84961,13.76983,13.76983,0,0,0-.59961-4.75,2.05033,2.05033,0,0,0-3.95019,0,13.74112,13.74112,0,0,0-.60059,4.75,14.40005,14.40005,0,0,0,.60059,4.84961A2.01606,2.01606,0,0,0,32.17266,32.6286Z" fill="url(#Beschriftung_weiss)"/><path id="Rahmen_weiss-2" data-name="Rahmen_weiss" d="M39.5,3h0A1.538,1.538,0,0,1,41,4.5v35A1.538,1.538,0,0,1,39.5,41H4.5a1.88389,1.88389,0,0,1-.8-.2A1.70937,1.70937,0,0,1,3,39.5V4.5A1.538,1.538,0,0,1,4.5,3h35m0-1H4.5A2.47572,2.47572,0,0,0,2,4.5v35a2.24512,2.24512,0,0,0,1.2,2.1,3.25851,3.25851,0,0,0,1.3.4h35A2.47572,2.47572,0,0,0,42,39.5h0V4.5A2.54,2.54,0,0,0,39.5,2Z" fill="url(#Rahmen_weiss)"/></g></svg>