<svg xmlns="http://www.w3.org/2000/svg" xmlns:xlink="http://www.w3.org/1999/xlink" viewBox="0 0 44 44"><defs><linearGradient id="Hintergrund_schwarz" x1="2.19645" y1="22.00003" x2="41.80394" y2="22.00003" gradientUnits="userSpaceOnUse"><stop offset="0" stop-color="#010101"/><stop offset="0"/></linearGradient><linearGradient id="Beschriftung_weiss" x1="7.52715" y1="26.31562" x2="37.20195" y2="26.31562" gradientUnits="userSpaceOnUse"><stop offset="0" stop-color="#fff"/></linearGradient><linearGradient id="Rahmen_weiss" x1="2" y1="22" x2="42" y2="22" xlink:href="#Beschriftung_weiss"/></defs><title>speedlimit_usa_can_night_85</title><g id="speedlimit_usa_can_night_85"><path id="Hintergrund_schwarz-2" data-name="Hintergrund_schwarz" d="M4.67072,41.80347H39.32847A2.473,2.473,0,0,0,41.80394,39.328V4.67206a2.4751,2.4751,0,0,0-2.47547-2.47547H4.67072A2.4751,2.4751,0,0,0,2.19645,4.67206V39.328a2.51609,2.51609,0,0,0,1.16362,2.104,2.84683,2.84683,0,0,0,1.31065.37147Z" fill="url(#Hintergrund_schwarz)"/><path id="Beschriftung_weiss-2" data-name="Beschriftung_weiss" d="M21.02715,29.3288a5.2448,5.2448,0,0,1-1.77442,4.14941,7.42465,7.42465,0,0,1-4.97558,1.5A7.41,7.41,0,0,1,9.365,33.4411a5.08772,5.08772,0,0,1-1.83789-4.1123,4.30826,4.30826,0,0,1,1.95019-3.9502,3.872,3.872,0,0,1-1.4248-3.15039A3.91241,3.91241,0,0,1,9.77715,18.903a7.495,7.495,0,0,1,4.5-1.25,7.47135,7.47135,0,0,1,4.52539,1.25,3.93018,3.93018,0,0,1,1.70019,3.32519,3.62306,3.62306,0,0,1-1.40039,3.10059A4.44666,4.44666,0,0,1,21.02715,29.3288Zm-2.97461.07422q.0249-2.54883-3.77539-2.59961-3.7251.0249-3.75,2.59961,0,2.625,3.77539,2.75Q17.95147,32.07831,18.05254,29.403Zm-.54981-7.29981q0-1.69921-3.25-1.75-3.20068.05127-3.20019,1.75,0,1.7505,3.25,1.79981Q17.50176,23.85322,17.50273,22.10321Zm19.69922,6.8252a5.49341,5.49341,0,0,1-1.97461,4.33789,7.47031,7.47031,0,0,1-5.07519,1.71191,12.20486,12.20486,0,0,1-6.4502-1.875l1.5752-2.52441a10.12067,10.12067,0,0,0,4.875,1.375,4.69139,4.69139,0,0,0,3.0498-.86328,2.689,2.689,0,0,0,1.125-2.1875,2.54227,2.54227,0,0,0-1.02441-2.21192,4.49688,4.49688,0,0,0-2.77539-.8623,9.64272,9.64272,0,0,0-3.59961.77441l-2.60059-.75.42481-7.9248H35.92754V20.903h-8.375l-.15039,2.45019a11.77794,11.77794,0,0,1,3.22461-.47461,6.6874,6.6874,0,0,1,4.72558,1.71192A5.65641,5.65641,0,0,1,37.20195,28.92841Z" fill="url(#Beschriftung_weiss)"/><path id="Rahmen_weiss-2" data-name="Rahmen_weiss" d="M39.5,3h0A1.538,1.538,0,0,1,41,4.5v35A1.538,1.538,0,0,1,39.5,41H4.5a1.88389,1.88389,0,0,1-.8-.2A1.70937,1.70937,0,0,1,3,39.5V4.5A1.538,1.538,0,0,1,4.5,3h35m0-1H4.5A2.47572,2.47572,0,0,0,2,4.5v35a2.24512,2.24512,0,0,0,1.2,2.1,3.25851,3.25851,0,0,0,1.3.4h35A2.47572,2.47572,0,0,0,42,39.5h0V4.5A2.54,2.54,0,0,0,39.5,2Z" fill="url(#Rahmen_weiss)"/></g></svg>