<svg xmlns="http://www.w3.org/2000/svg" xmlns:xlink="http://www.w3.org/1999/xlink" viewBox="0 0 44 44"><defs><linearGradient id="Hintergrund_schwarz" x1="2.15488" y1="22.00003" x2="41.84551" y2="22.00003" gradientUnits="userSpaceOnUse"><stop offset="0" stop-color="#010101"/><stop offset="0"/></linearGradient><linearGradient id="Beschriftung_weiss" x1="7.52617" y1="26.31562" x2="37.20098" y2="26.31562" gradientUnits="userSpaceOnUse"><stop offset="0" stop-color="#fff"/></linearGradient><linearGradient id="Rahmen_weiss" x1="2" y1="22" x2="42" y2="22" xlink:href="#Beschriftung_weiss"/></defs><title>speedlimit_usa_can_night_65</title><g id="speedlimit_usa_can_night_65"><path id="Hintergrund_schwarz-2" data-name="Hintergrund_schwarz" d="M4.63434,41.845h34.7305a2.47823,2.47823,0,0,0,2.48067-2.48066V4.63569A2.48029,2.48029,0,0,0,39.36484,2.155H4.63434A2.48029,2.48029,0,0,0,2.15488,4.63569V39.36438A2.52134,2.52134,0,0,0,3.321,41.47279a2.85266,2.85266,0,0,0,1.31339.37225Z" fill="url(#Hintergrund_schwarz)"/><path id="Beschriftung_weiss-2" data-name="Beschriftung_weiss" d="M21.02617,29.80341a4.59506,4.59506,0,0,1-1.78808,3.71289,7.04842,7.04842,0,0,1-4.61231,1.46191A7.61056,7.61056,0,0,1,9.576,33.2663a5.92264,5.92264,0,0,1-2.04981-4.8125,10.58241,10.58241,0,0,1,3.2627-7.42578,10.8407,10.8407,0,0,1,7.88672-3.375v2.82519q-5.2251.82472-7.34961,4.8252a10.19186,10.19186,0,0,1,3.4248-.54981,6.9602,6.9602,0,0,1,4.5,1.42481A4.45089,4.45089,0,0,1,21.02617,29.80341Zm-2.97558.02539a1.76669,1.76669,0,0,0-.97461-1.5625,4.89605,4.89605,0,0,0-2.54981-.58789,5.406,5.406,0,0,0-2.6123.51269,1.53065,1.53065,0,0,0-.8877,1.4375,1.753,1.753,0,0,0,.92481,1.6377,4.58,4.58,0,0,0,2.57519.66211,4.88657,4.88657,0,0,0,2.54981-.58789A1.73132,1.73132,0,0,0,18.05059,29.8288ZM37.201,28.92841a5.49345,5.49345,0,0,1-1.97461,4.33789,7.47033,7.47033,0,0,1-5.0752,1.71191,12.20481,12.20481,0,0,1-6.45019-1.875l1.57519-2.52441a10.12073,10.12073,0,0,0,4.875,1.375,4.69142,4.69142,0,0,0,3.04981-.86328,2.689,2.689,0,0,0,1.125-2.1875,2.5423,2.5423,0,0,0-1.02442-2.21192,4.49686,4.49686,0,0,0-2.77539-.8623,9.64276,9.64276,0,0,0-3.59961.77441l-2.60058-.75.4248-7.9248H35.92656V20.903h-8.375l-.15039,2.45019a11.778,11.778,0,0,1,3.22461-.47461,6.68742,6.68742,0,0,1,4.72559,1.71192A5.65641,5.65641,0,0,1,37.201,28.92841Z" fill="url(#Beschriftung_weiss)"/><path id="Rahmen_weiss-2" data-name="Rahmen_weiss" d="M39.5,3h0A1.538,1.538,0,0,1,41,4.5v35A1.538,1.538,0,0,1,39.5,41H4.5a1.88389,1.88389,0,0,1-.8-.2A1.70937,1.70937,0,0,1,3,39.5V4.5A1.538,1.538,0,0,1,4.5,3h35m0-1H4.5A2.47572,2.47572,0,0,0,2,4.5v35a2.24512,2.24512,0,0,0,1.2,2.1,3.25851,3.25851,0,0,0,1.3.4h35A2.47572,2.47572,0,0,0,42,39.5h0V4.5A2.54,2.54,0,0,0,39.5,2Z" fill="url(#Rahmen_weiss)"/></g></svg>