<svg xmlns="http://www.w3.org/2000/svg" viewBox="0 0 44 44"><title>speedlimit_warning_recommendation_unit</title><g id="Ebene_35" data-name="Ebene 35"><path d="M41.09766,22.23145A2.90259,2.90259,0,1,1,44,19.32861,2.90576,2.90576,0,0,1,41.09766,22.23145Z" fill="#010101"/><path d="M41.09766,17.42627A1.90259,1.90259,0,1,0,43,19.32861,1.90467,1.90467,0,0,0,41.09766,17.42627Z" fill="red"/><path d="M41.09766,15.48877A2.491,2.491,0,0,1,38.60938,13.001V2.48828a2.48828,2.48828,0,0,1,4.97656,0V13.001A2.491,2.491,0,0,1,41.09766,15.48877Z" fill="#010101"/><path d="M41.09766,1a1.49007,1.49007,0,0,0-1.48828,1.48828V13.001a1.48828,1.48828,0,0,0,2.97656,0V2.48828A1.49008,1.49008,0,0,0,41.09766,1Z" fill="red"/></g></svg>