<svg xmlns="http://www.w3.org/2000/svg" xmlns:xlink="http://www.w3.org/1999/xlink" viewBox="0 0 44 44"><defs><linearGradient id="Hintergrund_weiss" x1="1.9998" y1="29.55" x2="42.0002" y2="29.55" gradientUnits="userSpaceOnUse"><stop offset="0" stop-color="#fff"/></linearGradient><linearGradient id="Rahmen_schwarz" x1="2" y1="29.55" x2="42" y2="29.55" gradientUnits="userSpaceOnUse"><stop offset="0" stop-color="#010101"/><stop offset="0"/></linearGradient><linearGradient id="Beschriftung_schwarz" x1="7.5291" y1="30.05265" x2="37.2293" y2="30.05265" xlink:href="#Rahmen_schwarz"/></defs><title>speedlimit_school_work_usa_can_80</title><g id="speedlimit_school_work_usa_can_80"><rect id="Hintergrund_weiss-2" data-name="Hintergrund_weiss" x="1.9998" y="17.24681" width="40.00039" height="24.60637" rx="2.2107" fill="url(#Hintergrund_weiss)"/><path id="Rahmen_schwarz-2" data-name="Rahmen_schwarz" d="M39.8,18.1A1.15536,1.15536,0,0,1,41,19.3V39.8A1.15536,1.15536,0,0,1,39.8,41H4.2A1.15536,1.15536,0,0,1,3,39.8V19.3a1.15536,1.15536,0,0,1,1.2-1.2H39.8m0-1H4.2A2.21953,2.21953,0,0,0,2,19.3V39.8A2.21953,2.21953,0,0,0,4.2,42H39.8A2.21953,2.21953,0,0,0,42,39.8V19.3a2.21953,2.21953,0,0,0-2.2-2.2Z" fill="url(#Rahmen_schwarz)"/><path id="Beschriftung_schwarz-2" data-name="Beschriftung_schwarz" d="M21.0291,33.06584a5.24482,5.24482,0,0,1-1.77441,4.14941,7.42469,7.42469,0,0,1-4.97559,1.5A7.41,7.41,0,0,1,9.367,37.17814a5.08776,5.08776,0,0,1-1.83789-4.1123,4.30824,4.30824,0,0,1,1.9502-3.9502,3.872,3.872,0,0,1-1.42481-3.15039A3.91243,3.91243,0,0,1,9.7791,22.64006a7.495,7.495,0,0,1,4.5-1.25,7.47135,7.47135,0,0,1,4.52539,1.25,3.93019,3.93019,0,0,1,1.7002,3.32519,3.62311,3.62311,0,0,1-1.40039,3.10059A4.44663,4.44663,0,0,1,21.0291,33.06584Zm-2.97461.07422q.0249-2.54883-3.77539-2.59961-3.7251.0249-3.75,2.59961,0,2.625,3.77539,2.75Q17.95342,35.81534,18.05449,33.14006Zm-.5498-7.29981q0-1.69922-3.25-1.75-3.20068.05127-3.2002,1.75,0,1.75048,3.25,1.79981Q17.50371,27.59025,17.50469,25.84025Zm19.72461,4.125a9.99723,9.99723,0,0,1-1.8877,6.33789,6.07183,6.07183,0,0,1-5.03711,2.41211,6.23786,6.23786,0,0,1-5.40039-2.77441,9.99032,9.99032,0,0,1-1.70019-5.92578,9.65606,9.65606,0,0,1,1.90039-6.3125,6.37062,6.37062,0,0,1,5.20019-2.3125,6.13677,6.13677,0,0,1,5.01172,2.36328A9.5655,9.5655,0,0,1,37.2293,29.96525Zm-2.97559.04981a7.21139,7.21139,0,0,0-1.03711-4.14942,3.33886,3.33886,0,0,0-2.91211-1.5,3.45794,3.45794,0,0,0-2.97558,1.5,7.01573,7.01573,0,0,0-1.0752,4.14942,7.12138,7.12138,0,0,0,1.0752,4.1875,3.4481,3.4481,0,0,0,2.97558,1.51269,3.33,3.33,0,0,0,3.14942-1.875A7.99591,7.99591,0,0,0,34.25371,30.01506Z" fill="url(#Beschriftung_schwarz)"/></g></svg>