<svg xmlns="http://www.w3.org/2000/svg" xmlns:xlink="http://www.w3.org/1999/xlink" viewBox="0 0 44 44"><defs><linearGradient id="Hintergrund_schwarz" x1="2.23802" y1="22.00003" x2="41.76237" y2="22.00003" gradientUnits="userSpaceOnUse"><stop offset="0" stop-color="#010101"/><stop offset="0"/></linearGradient><linearGradient id="Beschriftung_weiss" x1="10.7876" y1="26.30446" x2="33.2124" y2="26.30446" gradientUnits="userSpaceOnUse"><stop offset="0" stop-color="#fff"/></linearGradient><linearGradient id="Rahmen_weiss" x1="2" y1="22" x2="42" y2="22" xlink:href="#Beschriftung_weiss"/></defs><title>speedlimit_usa_can_night_10</title><g id="speedlimit_usa_can_night_10"><path id="Hintergrund_schwarz-2" data-name="Hintergrund_schwarz" d="M4.70709,41.76191h34.585a2.46785,2.46785,0,0,0,2.47027-2.47027V4.70843A2.46988,2.46988,0,0,0,39.2921,2.23816H4.70709A2.46988,2.46988,0,0,0,2.238,4.70843V39.29164A2.51079,2.51079,0,0,0,3.3992,41.39122a2.84065,2.84065,0,0,0,1.30789.37069Z" fill="url(#Hintergrund_schwarz)"/><path id="Beschriftung_weiss-2" data-name="Beschriftung_weiss" d="M15.8374,34.66725H12.88721V22.14186H10.7876V19.61745a3.857,3.857,0,0,0,2.64941-1.7002H15.8374Zm17.375-8.45019A9.99723,9.99723,0,0,1,31.32471,32.555a6.07183,6.07183,0,0,1-5.03711,2.41211,6.23786,6.23786,0,0,1-5.40039-2.77442,9.99028,9.99028,0,0,1-1.7002-5.92578,9.65615,9.65615,0,0,1,1.90039-6.3125,6.37065,6.37065,0,0,1,5.2002-2.3125,6.13683,6.13683,0,0,1,5.01172,2.36328A9.56551,9.56551,0,0,1,33.2124,26.21706Zm-2.97558.0498a7.21146,7.21146,0,0,0-1.03711-4.14941,3.33886,3.33886,0,0,0-2.91211-1.5,3.458,3.458,0,0,0-2.97559,1.5,7.01572,7.01572,0,0,0-1.07519,4.14941,7.12136,7.12136,0,0,0,1.07519,4.1875,3.44814,3.44814,0,0,0,2.97559,1.5127,3.33,3.33,0,0,0,3.14941-1.875A7.99592,7.99592,0,0,0,30.23682,26.26686Z" fill="url(#Beschriftung_weiss)"/><path id="Rahmen_weiss-2" data-name="Rahmen_weiss" d="M39.5,3h0A1.538,1.538,0,0,1,41,4.5v35A1.538,1.538,0,0,1,39.5,41H4.5a1.88389,1.88389,0,0,1-.8-.2A1.70937,1.70937,0,0,1,3,39.5V4.5A1.538,1.538,0,0,1,4.5,3h35m0-1H4.5A2.47572,2.47572,0,0,0,2,4.5v35a2.24512,2.24512,0,0,0,1.2,2.1,3.25851,3.25851,0,0,0,1.3.4h35A2.47572,2.47572,0,0,0,42,39.5h0V4.5A2.54,2.54,0,0,0,39.5,2Z" fill="url(#Rahmen_weiss)"/></g></svg>