<svg xmlns="http://www.w3.org/2000/svg" viewBox="0 0 44 44"><title>speedlimit_warning_cancelled_school</title><g id="Ebene_36" data-name="Ebene 36"><path d="M37.14248,38.34492a2.90259,2.90259,0,1,1,2.90235-2.90283A2.90575,2.90575,0,0,1,37.14248,38.34492Z" fill="#010101"/><path d="M37.14248,33.53975a1.90259,1.90259,0,1,0,1.90235,1.90234A1.90465,1.90465,0,0,0,37.14248,33.53975Z" fill="red"/><path d="M37.14248,31.60225a2.491,2.491,0,0,1-2.48828-2.4878V18.60176a2.48828,2.48828,0,0,1,4.97656,0V29.11445A2.491,2.491,0,0,1,37.14248,31.60225Z" fill="#010101"/><path d="M37.14248,17.11348a1.49008,1.49008,0,0,0-1.48828,1.48828V29.11445a1.48828,1.48828,0,0,0,2.97656,0V18.60176A1.49008,1.49008,0,0,0,37.14248,17.11348Z" fill="red"/><polygon points="42.552 18.122 41.369 17.202 37.143 22.637 32.917 17.202 31.733 18.122 36.193 23.858 31.733 29.594 32.917 30.515 37.143 25.08 41.369 30.515 42.552 29.594 38.093 23.858 42.552 18.122"/></g></svg>