<svg xmlns="http://www.w3.org/2000/svg" xmlns:xlink="http://www.w3.org/1999/xlink" viewBox="0 0 44 44"><defs><linearGradient id="Hintergrund_orange" x1="2.5" y1="8.50477" x2="41.5" y2="8.50477" gradientUnits="userSpaceOnUse"><stop offset="0" stop-color="#eb7932"/></linearGradient><linearGradient id="Rahmen_schwarz" x1="3" y1="8.50477" x2="41" y2="8.50477" gradientUnits="userSpaceOnUse"><stop offset="0" stop-color="#010101"/><stop offset="0"/></linearGradient><linearGradient id="Beschriftung_schwarz" x1="10.91309" y1="8.6738" x2="33.08691" y2="8.6738" xlink:href="#Rahmen_schwarz"/></defs><title>work_sign</title><g id="work_sign"><path d="M4.5,14.50477a2.00588,2.00588,0,0,1-2-2v-8a2.00588,2.00588,0,0,1,2-2h35a2.00588,2.00588,0,0,1,2,2v8a2.00588,2.00588,0,0,1-2,2Z" fill="url(#Hintergrund_orange)"/><path d="M39.5,3.00477a1.538,1.538,0,0,1,1.5,1.5v8a1.538,1.538,0,0,1-1.5,1.5H4.5a1.538,1.538,0,0,1-1.5-1.5v-8a1.538,1.538,0,0,1,1.5-1.5h35m0-1H4.5a2.47572,2.47572,0,0,0-2.5,2.5v8a2.47572,2.47572,0,0,0,2.5,2.5h35a2.47572,2.47572,0,0,0,2.5-2.5v-8a2.54,2.54,0,0,0-2.5-2.5Z" fill="url(#Rahmen_schwarz)"/><path id="Beschriftung" d="M17.03809,5.21969l-1.01856,6.89747h-.96777L13.96,7.6904l-1.06055,4.42676h-.96777L10.91309,5.21969h1.11132l.53614,3.63379.875-3.63379h1.05957l.8955,3.63379.53614-3.63379Zm2.79,7.02149A2.15457,2.15457,0,0,1,17.959,11.3193a4.549,4.549,0,0,1-.65332-2.65039,4.54421,4.54421,0,0,1,.65332-2.626,2.14363,2.14363,0,0,1,1.86914-.93653,2.13779,2.13779,0,0,1,1.87891.93653,4.60027,4.60027,0,0,1,.64258,2.626A4.60526,4.60526,0,0,1,21.707,11.3193,2.14874,2.14874,0,0,1,19.82812,12.24118Zm0-6.043a1.09412,1.09412,0,0,0-1.0498.68457,4.17232,4.17232,0,0,0-.33984,1.76465,4.11859,4.11859,0,0,0,.32422,1.84277,1.09068,1.09068,0,0,0,1.06542.61817,1.12683,1.12683,0,0,0,1.08106-.64844,4.55207,4.55207,0,0,0,.31836-1.8125,4.105,4.105,0,0,0-.34473-1.78027A1.18123,1.18123,0,0,0,19.82812,6.19821Zm7.80274,5.919H26.44727L25.335,9.12106H24.02832v2.9961h-1.0918V5.21969H25.665a1.65378,1.65378,0,0,1,1.333.61231,2.05188,2.05188,0,0,1,.48925,1.32324,1.95014,1.95014,0,0,1-.29882,1.03418,1.74886,1.74886,0,0,1-.77246.70508ZM26.40625,7.18649a.78621.78621,0,0,0-.24219-.61816.83536.83536,0,0,0-.541-.22657H24.02832V8.04H25.665a.69911.69911,0,0,0,.52441-.22559A.8716.8716,0,0,0,26.40625,7.18649Zm6.68066,4.93067H31.82129L30.08105,8.85348l-.7207.89551v2.36817H28.26953V5.21969h1.09082V7.958L31.5332,5.21969h1.39942L30.8125,7.90622Z" fill="url(#Beschriftung_schwarz)"/></g></svg>