<?xml version="1.0" encoding="UTF-8"?>
<svg id="Layer_1" data-name="Layer 1" xmlns="http://www.w3.org/2000/svg" viewBox="0 0 44 44">
  <defs>
    <style>
      .cls-1 {
        fill: #00f300;
      }

      .cls-2 {
        fill: none;
        stroke: #00f300;
        stroke-miterlimit: 10;
        stroke-width: 1.5px;
      }
    </style>
  </defs>
  <g id="Rahmen">
    <path d="M3.73926,41.5c-.68262-.00049-1.23877-.55664-1.23926-1.23975V3.73926c.00049-.68262,.55664-1.23877,1.23975-1.23926H40.26074c.68262,.00049,1.23877,.55664,1.23926,1.23975V40.26074c-.00049,.68262-.55664,1.23877-1.23975,1.23926H3.73926Z"/>
    <path class="cls-1" d="M40.25977,3c.40771,.00046,.73975,.33255,.74023,.73914V40.2597c-.00049,.40773-.33258,.73982-.73914,.7403H3.7403c-.40771-.00047-.73981-.33257-.7403-.73914V3.7403c.00049-.40775,.33252-.73984,.73914-.7403H40.25977m.0011-1H3.73914c-.96008,.00108-1.73804,.77908-1.73914,1.73914V40.26086c.0011,.96005,.77911,1.73804,1.73914,1.73914H40.26086c.96002-.0011,1.73804-.77908,1.73914-1.73914V3.73914c-.0011-.96005-.77911-1.73805-1.73914-1.73914h0Z"/>
  </g>
  <polyline class="cls-2" points="30.32197 37.14586 6.6591 37.14586 6.6591 6.44129 30.32197 6.44129 30.32197 14.62493"/>
  <path class="cls-1" d="M13.0009,32.98847v-10.37826c0-1.43964,.74588-2.61752,2.18552-2.61752h6.19498c1.43964,0,2.61752,1.17788,2.61752,2.61752v10.37826H13.0009Z"/>
  <circle class="cls-1" cx="19.01433" cy="14.26808" r="3.2719"/>
  <rect class="cls-1" x="27.19382" y="22.90975" width="2.98318" height="7.16367" rx="1.14746" ry="1.14746" transform="translate(55.17699 -2.19382) rotate(90)"/>
  <path class="cls-1" d="M26.06919,27.77318c-.40132,0-.77963-.15465-1.06209-.43838l-4.41009-4.60121c-.58536-.58536-.58536-1.53882,0-2.12418l.17893-.17893c.28246-.28374,.34175-.43838,.74307-.43838s1.09865,.15465,1.38111,.43838l4.41009,4.60121c.58536,.58536,.58536,1.53882,0,2.12418l-.17893,.17893c-.28246,.28374-.66077,.43838-1.06209,.43838Z"/>
  <rect class="cls-1" x="32.99996" y="21.49972" width="5" height="2.5"/>
</svg>