<?xml version="1.0" encoding="UTF-8"?>
<svg id="Ebene_1" data-name="Ebene 1" xmlns="http://www.w3.org/2000/svg" viewBox="0 0 140 74">
  <defs>
    <style>
      .cls-1 {
        fill: #fff;
      }

      .cls-2 {
        fill: none;
        stroke: #fff;
        stroke-miterlimit: 10;
        stroke-width: 4.0602px;
      }
    </style>
  </defs>
  <g id="E165_ev_mode_off" data-name="E165 ev mode off">
    <g id="V2">
      <path class="cls-1" d="m79.15729,67.97385l-8.71901-25.60927h5.44455l4.93175,16.67932c.17389.5678.3437,1.13746.50944,1.709.16496.57228.31495,1.15319.44997,1.74273.12344-.59475.26221-1.17566.41631-1.74273.15487-.56667.32731-1.13635.5173-1.709l5.06757-16.67932h5.16628l-8.71894,25.60927h-5.06522Z"/>
    </g>
  </g>
  <polygon class="cls-1" points="56.94037 63.97723 56.94037 57.68658 66.30792 57.68658 66.30792 53.00812 56.92877 53.00812 56.92877 46.97577 67.83612 46.97577 67.83612 42.36456 52.14447 42.36456 52.14447 67.97382 67.97388 67.97382 67.97388 63.97723 56.94037 63.97723"/>
  <path class="cls-2" d="m48.19166,36.81223c-3.36393,0-6.05978-1.90553-7.57096-4.85427l-.20662-.40256-3.11631-.06721c-2.69221-.09009-3.95102-1.23055-3.95331-3.58868-.15859-1.95272.43307-3.83536,1.66214-5.35621,1.39986-1.6803,3.07268-2.78285,7.87688-3.77459,2.22788-.45904,7.96761-1.21124,9.67321-1.43075l.23788-.03003.50855-.42973c.57108-.45475,1.20925-1.01676,1.82531-1.56017,2.43755-2.13791,5.77785-5.06734,9.26987-5.99472,2.16536-.57559,5.33792-.89306,8.93439-.89306,3.74058,0,7.51776.34392,10.10094.91951,3.00253.88662,5.93034,2.14434,8.64924,3.72525,1.79938,1.03892,3.70703,1.90839,5.67568,2.58479.90732.2095,1.78718.36394,2.63045.47191,2.05099.28887,4.1828.58918,5.11757,3.70165.87529,2.72279,1.30837,5.53711,1.29007,8.37788-.02745,2.06355-2.23583,3.22831-5.73853,3.36345l-.46662.01788-.20434.39398c-.89359,1.72749-2.36817,3.1375-4.15078,3.96979-1.21535.56701-2.16961.85445-3.50695.85445-3.20992,0-6.04213-2.27553-7.61278-5.29077l-.21349-.41114h-29.08095l-.21425.41042c-.99957,1.91411-2.52676,3.69842-4.1889,4.46134-1.20162.55199-1.91143.83157-3.22742.83157Z"/>
</svg>