<svg xmlns="http://www.w3.org/2000/svg" xmlns:xlink="http://www.w3.org/1999/xlink" viewBox="0 0 44 44"><defs><style>.cls-1{fill:url(#Hintergrund_gelb);}.cls-2{fill:url(#Rahmen_schwarz);}.cls-3{fill:url(#Beschriftung_schwarz);}.cls-4{fill:url(#Beschriftung_schwarz-1);}.cls-5{fill:url(#Beschriftung_schwarz-3);}.cls-6{fill:url(#Beschriftung_schwarz-4);}</style><linearGradient id="Hintergrund_gelb" x1="2.5" y1="8.5" x2="41.5" y2="8.5" gradientUnits="userSpaceOnUse"><stop offset="0" stop-color="#ffd033"/></linearGradient><linearGradient id="Rahmen_schwarz" x1="3.0255" y1="-188.61005" x2="41.0255" y2="-188.61005" gradientTransform="matrix(1, 0, 0, -1, 0, -180.11017)" gradientUnits="userSpaceOnUse"><stop offset="0"/><stop offset="0" stop-color="#010101"/></linearGradient><linearGradient id="Beschriftung_schwarz" x1="24.92259" y1="8.49966" x2="26.14837" y2="8.49966" gradientTransform="matrix(1, 0, 0, 1, 0, 0)" xlink:href="#Rahmen_schwarz"/><linearGradient id="Beschriftung_schwarz-1" x1="11.01214" y1="8.5" x2="15.63198" y2="8.5" gradientTransform="matrix(1, 0, 0, 1, 0, 0)" xlink:href="#Rahmen_schwarz"/><linearGradient id="Beschriftung_schwarz-3" x1="27.98746" y1="8.49965" x2="32.87447" y2="8.49965" gradientTransform="matrix(1, 0, 0, 1, 0, 0)" xlink:href="#Rahmen_schwarz"/><linearGradient id="Beschriftung_schwarz-4" x1="17.67638" y1="8.49859" x2="23.39098" y2="8.49859" gradientTransform="matrix(1, 0, 0, 1, 0, 0)" xlink:href="#Rahmen_schwarz"/></defs><g id="school_sign" data-name="school sign"><path class="cls-1" d="M4.5,14.5a2.00588,2.00588,0,0,1-2-2v-8a2.00588,2.00588,0,0,1,2-2h35a2.00588,2.00588,0,0,1,2,2v8a2.00588,2.00588,0,0,1-2,2Z"/><path class="cls-2" d="M39.5255,2.99988a1.538,1.538,0,0,1,1.5,1.5v8a1.538,1.538,0,0,1-1.5,1.5h-35a1.538,1.538,0,0,1-1.5-1.5v-8a1.538,1.538,0,0,1,1.5-1.5h35m0-1h-35a2.47572,2.47572,0,0,0-2.5,2.4512q-.00024.02439,0,.0488v8a2.47573,2.47573,0,0,0,2.4512,2.5q.0244.00024.0488,0h35a2.47573,2.47573,0,0,0,2.5-2.4512q.00024-.0244,0-.0488v-8A2.54,2.54,0,0,0,39.5255,1.99988Z" fill="url(#Rahmen_schwarz)" stroke-width="0.5px" stroke="url(#Rahmen_schwarz)"/></g><g id="LIMIT"><rect class="cls-3" x="24.92259" y="5.25" width="1.22578" height="6.49931"/><polygon class="cls-4" points="15.632 6.453 15.632 5.25 11.012 5.25 11.012 11.749 15.632 11.75 15.632 10.556 12.259 10.556 12.259 8.813 14.186 8.813 14.186 7.61 12.259 7.61 12.259 6.453 15.632 6.453"/><polygon class="cls-5" points="32.874 5.25 31.031 5.25 29.831 5.25 27.987 5.25 27.987 6.435 29.831 6.435 29.831 11.749 31.031 11.749 31.031 6.435 32.874 6.435 32.874 5.25"/><polygon class="cls-6" points="23.391 11.74 21.25 8.329 23.173 5.257 21.741 5.257 20.534 7.185 19.327 5.257 17.894 5.257 19.818 8.329 17.676 11.74 19.109 11.74 20.534 9.473 21.959 11.74 23.391 11.74"/></g></svg>