<svg xmlns="http://www.w3.org/2000/svg" xmlns:xlink="http://www.w3.org/1999/xlink" viewBox="0 0 44 44"><defs><linearGradient id="Hintergrund_weiss" x1="1.9998" y1="29.69681" x2="42.0002" y2="29.69681" gradientUnits="userSpaceOnUse"><stop offset="0" stop-color="#ffd033"/></linearGradient><linearGradient id="Rahmen_schwarz" x1="2" y1="29.55" x2="42" y2="29.55" gradientUnits="userSpaceOnUse"><stop offset="0" stop-color="#010101"/><stop offset="0"/></linearGradient><linearGradient id="Beschriftung_schwarz" x1="7.52617" y1="30.05265" x2="37.22637" y2="30.05265" xlink:href="#Rahmen_schwarz"/></defs><title>speedlimit_school_work_usa_can_90</title><g id="speedlimit_school_work_usa_can_90"><rect id="Hintergrund_weiss-2" data-name="Hintergrund_weiss" x="1.9998" y="17.39363" width="40.00039" height="24.60637" rx="2.2107" fill="url(#Hintergrund_weiss)"/><path id="Rahmen_schwarz-2" data-name="Rahmen_schwarz" d="M39.8,18.1A1.15536,1.15536,0,0,1,41,19.3V39.8A1.15536,1.15536,0,0,1,39.8,41H4.2A1.15536,1.15536,0,0,1,3,39.8V19.3a1.15536,1.15536,0,0,1,1.2-1.2H39.8m0-1H4.2A2.21953,2.21953,0,0,0,2,19.3V39.8A2.21953,2.21953,0,0,0,4.2,42H39.8A2.21953,2.21953,0,0,0,42,39.8V19.3a2.21953,2.21953,0,0,0-2.2-2.2Z" fill="url(#Rahmen_schwarz)" stroke-width="0.5px" stroke="url(#Rahmen_schwarz)"/><path id="Beschriftung_schwarz-2" data-name="Beschriftung_schwarz" d="M7.52617,26.56584A4.59279,4.59279,0,0,1,9.31328,22.853a7.05069,7.05069,0,0,1,4.61231-1.46289A7.61567,7.61567,0,0,1,18.97637,23.103a5.92557,5.92557,0,0,1,2.0498,4.8125,10.58841,10.58841,0,0,1-3.26269,7.4248,10.837,10.837,0,0,1-7.8877,3.375V35.89006q5.2251-.82472,7.35059-4.82422a10.20177,10.20177,0,0,1-3.42578.5498,6.96575,6.96575,0,0,1-4.5-1.4248A4.45,4.45,0,0,1,7.52617,26.56584Zm2.97461-.02539a1.76772,1.76772,0,0,0,.97559,1.5625,4.89361,4.89361,0,0,0,2.5498.58789,5.4112,5.4112,0,0,0,2.61231-.5127,1.53225,1.53225,0,0,0,.88769-1.4375,1.75378,1.75378,0,0,0-.9248-1.63769,4.58223,4.58223,0,0,0-2.5752-.66211,4.89386,4.89386,0,0,0-2.5498.58691A1.7349,1.7349,0,0,0,10.50078,26.54045Zm26.72559,3.4248a9.99723,9.99723,0,0,1-1.8877,6.33789,6.07183,6.07183,0,0,1-5.03711,2.41211,6.23786,6.23786,0,0,1-5.40039-2.77441A9.99032,9.99032,0,0,1,23.201,30.01506a9.65611,9.65611,0,0,1,1.90039-6.3125,6.37062,6.37062,0,0,1,5.20019-2.3125,6.13677,6.13677,0,0,1,5.01172,2.36328A9.5655,9.5655,0,0,1,37.22637,29.96525Zm-2.97559.04981a7.21139,7.21139,0,0,0-1.03711-4.14942,3.33885,3.33885,0,0,0-2.91211-1.5,3.45794,3.45794,0,0,0-2.97558,1.5,7.01573,7.01573,0,0,0-1.0752,4.14942,7.12138,7.12138,0,0,0,1.0752,4.1875,3.4481,3.4481,0,0,0,2.97558,1.51269,3.33,3.33,0,0,0,3.14942-1.875A7.99591,7.99591,0,0,0,34.25078,30.01506Z" fill="url(#Beschriftung_schwarz)"/></g></svg>