<svg xmlns="http://www.w3.org/2000/svg" xmlns:xlink="http://www.w3.org/1999/xlink" viewBox="0 0 44 44"><defs><linearGradient id="Hintergrund_weiss" x1="1.9998" y1="29.69635" x2="42.0002" y2="29.69635" gradientUnits="userSpaceOnUse"><stop offset="0" stop-color="#ffd033"/></linearGradient><linearGradient id="Rahmen_schwarz" x1="2" y1="29.54953" x2="42" y2="29.54953" gradientUnits="userSpaceOnUse"><stop offset="0" stop-color="#010101"/><stop offset="0"/></linearGradient><linearGradient id="Beschriftung_schwarz" x1="5.68828" y1="30.05217" x2="38.46367" y2="30.05217" xlink:href="#Rahmen_schwarz"/></defs><title>speedlimit_school_work_usa_can_200</title><g id="speedlimit_school_work_usa_can_200"><rect id="Hintergrund_weiss-2" data-name="Hintergrund_weiss" x="1.9998" y="17.39316" width="40.00039" height="24.60637" rx="2.2107" fill="url(#Hintergrund_weiss)"/><path id="Rahmen_schwarz-2" data-name="Rahmen_schwarz" d="M39.8,18.09953a1.15536,1.15536,0,0,1,1.2,1.2v20.5a1.15536,1.15536,0,0,1-1.2,1.2H4.2a1.15536,1.15536,0,0,1-1.2-1.2v-20.5a1.15536,1.15536,0,0,1,1.2-1.2H39.8m0-1H4.2a2.21953,2.21953,0,0,0-2.2,2.2v20.5a2.21953,2.21953,0,0,0,2.2,2.2H39.8a2.21953,2.21953,0,0,0,2.2-2.2v-20.5a2.21953,2.21953,0,0,0-2.2-2.2Z" fill="url(#Rahmen_schwarz)" stroke-width="0.5px" stroke="url(#Rahmen_schwarz)"/><path id="Beschriftung_schwarz-2" data-name="Beschriftung_schwarz" d="M15.03789,38.41447H5.68828A12.3559,12.3559,0,0,1,6.98809,33.477a14.54626,14.54626,0,0,1,3.85058-4.96289,8.30751,8.30751,0,0,0,1.41211-1.39844,2.07925,2.07925,0,0,0,.48731-1.22656,2.05237,2.05237,0,0,0-.6875-1.46094,2.35411,2.35411,0,0,0-3.3252,0,2.26246,2.26246,0,0,0-.6875,1.66211H5.68828A4.84616,4.84616,0,0,1,7.076,22.81486a4.36254,4.36254,0,0,1,3.3125-1.42578,4.6956,4.6956,0,0,1,3.28711,1.25,4.09592,4.09592,0,0,1,1.3623,3.15039,4.01075,4.01075,0,0,1-.6875,2.3125,10.32421,10.32421,0,0,1-1.66211,1.88867,21.33162,21.33162,0,0,0-2.52539,2.8125,8.802,8.802,0,0,0-1.59961,3.26172h6.47461Zm6.8252.30078a4.01518,4.01518,0,0,1-3.77442-2.16211,13.81048,13.81048,0,0,1-1.20019-6.51367,13.75064,13.75064,0,0,1,1.20019-6.47461,4.0131,4.0131,0,0,1,3.77442-2.17578,4.01455,4.01455,0,0,1,3.77539,2.17578,13.76287,13.76287,0,0,1,1.20019,6.47461,13.82269,13.82269,0,0,1-1.20019,6.51367A4.01664,4.01664,0,0,1,21.86309,38.71525Zm0-2.34961a2.02011,2.02011,0,0,0,1.97558-1.52539,14.43417,14.43417,0,0,0,.59961-4.84961,13.766,13.766,0,0,0-.59961-4.75,2.05033,2.05033,0,0,0-3.95019,0,13.73733,13.73733,0,0,0-.60059,4.75,14.404,14.404,0,0,0,.60059,4.84961A2.01826,2.01826,0,0,0,21.86309,36.36564Zm11.625,2.34961a4.01518,4.01518,0,0,1-3.77442-2.16211,13.81048,13.81048,0,0,1-1.20019-6.51367,13.75064,13.75064,0,0,1,1.20019-6.47461,4.0131,4.0131,0,0,1,3.77442-2.17578,4.01455,4.01455,0,0,1,3.77539,2.17578,13.76287,13.76287,0,0,1,1.20019,6.47461,13.82269,13.82269,0,0,1-1.20019,6.51367A4.01664,4.01664,0,0,1,33.48809,38.71525Zm0-2.34961a2.02011,2.02011,0,0,0,1.97558-1.52539,14.43417,14.43417,0,0,0,.59961-4.84961,13.766,13.766,0,0,0-.59961-4.75,2.05033,2.05033,0,0,0-3.95019,0,13.73733,13.73733,0,0,0-.60059,4.75,14.404,14.404,0,0,0,.60059,4.84961A2.01826,2.01826,0,0,0,33.48809,36.36564Z" fill="url(#Beschriftung_schwarz)"/></g></svg>