<svg xmlns="http://www.w3.org/2000/svg" xmlns:xlink="http://www.w3.org/1999/xlink" viewBox="0 0 44 44"><defs><linearGradient id="Hintergrund_weiss" x1="1.9998" y1="29.69681" x2="42.0002" y2="29.69681" gradientUnits="userSpaceOnUse"><stop offset="0" stop-color="#ffd033"/></linearGradient><linearGradient id="Rahmen_schwarz" x1="2" y1="29.55" x2="42" y2="29.55" gradientUnits="userSpaceOnUse"><stop offset="0" stop-color="#010101"/><stop offset="0"/></linearGradient><linearGradient id="Beschriftung_schwarz" x1="7.50078" y1="30.05265" x2="37.22637" y2="30.05265" xlink:href="#Rahmen_schwarz"/></defs><title>speedlimit_school_work_usa_can_70</title><g id="speedlimit_school_work_usa_can_70"><rect id="Hintergrund_weiss-2" data-name="Hintergrund_weiss" x="1.9998" y="17.39363" width="40.00039" height="24.60637" rx="2.2107" fill="url(#Hintergrund_weiss)"/><path id="Rahmen_schwarz-2" data-name="Rahmen_schwarz" d="M39.8,18.1A1.15536,1.15536,0,0,1,41,19.3V39.8A1.15536,1.15536,0,0,1,39.8,41H4.2A1.15536,1.15536,0,0,1,3,39.8V19.3a1.15536,1.15536,0,0,1,1.2-1.2H39.8m0-1H4.2A2.21953,2.21953,0,0,0,2,19.3V39.8A2.21953,2.21953,0,0,0,4.2,42H39.8A2.21953,2.21953,0,0,0,42,39.8V19.3a2.21953,2.21953,0,0,0-2.2-2.2Z" fill="url(#Rahmen_schwarz)" stroke-width="0.5px" stroke="url(#Rahmen_schwarz)"/><path id="Beschriftung_schwarz-2" data-name="Beschriftung_schwarz" d="M21.02617,24.59025a25.24732,25.24732,0,0,0-5.1748,13.8252H12.67559a29.34609,29.34609,0,0,1,4.67578-13.79981H7.50078V21.66545H21.02617Zm16.2002,5.375a9.99723,9.99723,0,0,1-1.8877,6.33789,6.07183,6.07183,0,0,1-5.03711,2.41211,6.23786,6.23786,0,0,1-5.40039-2.77441A9.99032,9.99032,0,0,1,23.201,30.01506a9.65611,9.65611,0,0,1,1.90039-6.3125,6.37062,6.37062,0,0,1,5.20019-2.3125,6.13677,6.13677,0,0,1,5.01172,2.36328A9.5655,9.5655,0,0,1,37.22637,29.96525Zm-2.97559.04981a7.21139,7.21139,0,0,0-1.03711-4.14942,3.33885,3.33885,0,0,0-2.91211-1.5,3.45794,3.45794,0,0,0-2.97558,1.5,7.01573,7.01573,0,0,0-1.0752,4.14942,7.12138,7.12138,0,0,0,1.0752,4.1875,3.4481,3.4481,0,0,0,2.97558,1.51269,3.33,3.33,0,0,0,3.14942-1.875A7.99591,7.99591,0,0,0,34.25078,30.01506Z" fill="url(#Beschriftung_schwarz)"/></g></svg>