<svg xmlns="http://www.w3.org/2000/svg" xmlns:xlink="http://www.w3.org/1999/xlink" viewBox="0 0 44 44"><defs><linearGradient id="Hintergrund_weiss" x1="1.9998" y1="29.69635" x2="42.0002" y2="29.69635" gradientUnits="userSpaceOnUse"><stop offset="0" stop-color="#ffd033"/></linearGradient><linearGradient id="Rahmen_schwarz" x1="2.00006" y1="29.54953" x2="42.00005" y2="29.54953" gradientUnits="userSpaceOnUse"><stop offset="0" stop-color="#010101"/><stop offset="0"/></linearGradient><linearGradient id="Beschriftung_schwarz" x1="15.25" y1="30.19076" x2="28.75" y2="30.19076" xlink:href="#Rahmen_schwarz"/></defs><title>speedlimit_school_work_usa_can_5</title><g id="speedlimit_school_work_usa_can_5"><rect id="Hintergrund_weiss-2" data-name="Hintergrund_weiss" x="1.9998" y="17.39316" width="40.00039" height="24.60637" rx="2.2107" fill="url(#Hintergrund_weiss)"/><path id="Rahmen_schwarz-2" data-name="Rahmen_schwarz" d="M39.80006,18.09953a1.15536,1.15536,0,0,1,1.2,1.2v20.5a1.15536,1.15536,0,0,1-1.2,1.2h-35.6a1.15536,1.15536,0,0,1-1.2-1.2v-20.5a1.15536,1.15536,0,0,1,1.2-1.2h35.6m0-1h-35.6a2.21953,2.21953,0,0,0-2.2,2.2v20.5a2.21953,2.21953,0,0,0,2.2,2.2h35.6a2.21953,2.21953,0,0,0,2.2-2.2v-20.5a2.21953,2.21953,0,0,0-2.2-2.2Z" fill="url(#Rahmen_schwarz)" stroke-width="0.5px" stroke="url(#Rahmen_schwarz)"/><path id="Beschriftung_schwarz-2" data-name="Beschriftung_schwarz" d="M28.75,32.66585a5.49341,5.49341,0,0,1-1.97461,4.33789,7.47026,7.47026,0,0,1-5.07519,1.71192,12.20484,12.20484,0,0,1-6.4502-1.875l1.5752-2.52442a10.12056,10.12056,0,0,0,4.875,1.375A4.69133,4.69133,0,0,0,24.75,34.828a2.689,2.689,0,0,0,1.125-2.1875,2.54228,2.54228,0,0,0-1.02441-2.21191,4.497,4.497,0,0,0-2.77539-.86231,9.64289,9.64289,0,0,0-3.59961.77442l-2.60059-.75.4248-7.92481H27.47559v2.97461h-8.375l-.15039,2.4502a11.77716,11.77716,0,0,1,3.2246-.47461A6.68744,6.68744,0,0,1,26.90039,28.328,5.65641,5.65641,0,0,1,28.75,32.66585Z" fill="url(#Beschriftung_schwarz)"/></g></svg>