<svg xmlns="http://www.w3.org/2000/svg" viewBox="0 0 40 40"><g id="t11_1p894"><rect y="7" width="40" height="26" fill="#198a00" /><rect x="35.2381" y="16.28571" width="4.7619" height="16.71429" fill="#ef7d00" /><rect x="30.47619" y="16.28571" width="4.7619" height="16.71429" fill="#252525" /><rect x="25.71429" y="16.28571" width="4.7619" height="16.71429" fill="#de2010" /><path d="M38.32812,10.21484c.70826-.39636.82667-.75128.81641-.76544.009-.06232-.45569.26978-1.30615.64667,1.0426-.50476,1.04175-.92847.99585-.93787-.16272-.01928-.78992.43647-1.61243.794.75342-.35217,1.131-.79572,1.07837-.85358-.15869.13239-1.79687.77442-1.79687.77442l-.02625-.00885c.19751-.12006.35352-.359.19226-.342a6.35581,6.35581,0,0,1-1.56592.43683,6.16047,6.16047,0,0,1-.9237.25152,2.98607,2.98607,0,0,0-1.335.07282c.00317,0-.03565-.03058-.041-.04883-.15381-.33228.04981-.44019.16895-.45618a.52929.52929,0,0,0,.197-.02783c-.0835-.03-.167-.058-.25049-.088.10889.07324.38708.00872.32678.21985.12195-.04261.38147-.32581-.29407-.38971a.85319.85319,0,0,0-1.35034.64544.87183.87183,0,0,0,.085.06519,7.4768,7.4768,0,0,0-1.33313-.26593c-.74975-.19843-1.52844-.67658-1.60327-.61774-.10022.04071.453.51276.4242.52319a13.253,13.253,0,0,0-1.32544-.60357c-.28675-.09833-.574-.32727-.60572-.28375-.10546.20056.45984.70471.56495.764a3.34963,3.34963,0,0,1-.59693-.25946c-.10986-.0227-.37744-.35394-.4519-.33264a.86882.86882,0,0,0,.6355.79511,1.87257,1.87257,0,0,0,.22656.09332c-.19434-.0741-.3479-.13275-.36463-.13867-.2594-.09326-.57775-.42035-.63733-.38361-.05676.03339.14673.38745.40894.49848.09033.03649.35352.15283.65479.27124-.26734-.09736-.58545-.21424-.79395-.29413-.19263-.09809-.28345-.22034-.31274-.194-.04346.0263.07006.54925,1.43579.84436a.30141.30141,0,0,0,.07507-.00751.77789.77789,0,0,1-.10046.01337,1.276,1.276,0,0,0-.281.03729c-.0144.03534.08655.22259.79175.18359.09009-.005.57934-.16345.53808-.12933-.0205.017-.666.20947-.71521.21326a1.18521,1.18521,0,0,0-.278.04937c-.01025.03022.168.16346.54663.18482a4.52815,4.52815,0,0,0,.95947-.17462c-.01269.01318-.614.20221-.62988.21374-.02173.01129-.24194.02222-.24963.03778-.018.03858.31762.32642,1.31018.01923-.09973.12353-.58081.208-.58008.23022a.44371.44371,0,0,0,.27417.14643.96176.96176,0,0,0,.30444-.00159,1.2856,1.2856,0,0,0,.64087-.31769c.03028.06732-.63183.37463-.60083.40393.14368.12213.62061-.01575.65186-.03174s-.22852.11695-.21594.14063c.07434.10876.46972-.00574.48864-.01569s.50464-.25067.51783-.25775c.01342-.00714-.57081.3136-.5188.36237-.02173.18023.67553-.05854.91174-.15467-.12781.06116-.37659.19269-.37756.26728.15686.24322.65918.16607.73657.11261.03882-.0268-.04566.18066-.01843.1618a.80579.80579,0,0,0,.14758-.19043c-.01221.068-.06726.175-.09937.29791s-.04138.26142-.08557.40869c-.01013.0647.30945-.12646.26306-.58343.02735.23767-.10083.68213-.06738.70526.01978.01355.05-.00445.08289-.03473l-.01258.03455a.30926.30926,0,0,1-.31347.27655.2971.2971,0,0,0-.33789.26831s-.0271.01935-.009.14941a.7362.7362,0,0,1,.08155-.11621.50919.50919,0,0,0,.42517-.12445c-.21717.2074-.08753.28491-.08753.28491a.14736.14736,0,0,0,.11463.19635.1196.1196,0,0,1-.02112-.12445.24835.24835,0,0,0,.21716-.2821c.009.235.14783.29315.14783.29315a.14693.14693,0,0,0,.15063.14111.1887.1887,0,0,1-.06323-.16876.22962.22962,0,0,0,.03015-.35132.37988.37988,0,0,0,.10437-.09729.1734.1734,0,0,0-.023.11115c0,.1383.00293.17425.10559.25171a.39858.39858,0,0,1-.01818-.15491s.13574.07471.26855-.13c-.09058.202-.02734.27387-.0061.27942.02111.03595-.03614.1991.14477.19635a.141.141,0,0,1-.03613-.14935s.18994-.02765.12353-.343c.06934-.0636.09656-.00274.09656-.00274s.02112.18811.18689.14935c.07544.03876-.012.141-.012.141a.16982.16982,0,0,0,.15674-.09125c.03625-.09405.07837-.26281-.12061-.3319-.02417-.06641.07837-.072.07837-.072a.36518.36518,0,0,1,.16284.09681c.03626.0581.02417-.1521-.13257-.17426-.19311-.00555-.20507-.04144-.20507-.04974,0-.00312-.00538-.077-.012-.16577a.69221.69221,0,0,0,.32422.13366c.00244-.02966-.3291-.43921-.24512-.49212.08423.01587.22217.20214.33374.14166-.03381-.07257-.13354-.03168-.24694-.21759a1.08708,1.08708,0,0,1-.0492-.1167.75287.75287,0,0,0,.47193.23425c.08667-.06616-.18042-.21179-.18042-.24487.09387.07947.49072.3905.7434.278.101-.13238-.18042-.11254-.49072-.47.21631.13239.75757.42359,1.01026.3111.07006-.06854-.18592-.23145-.436-.40771.09644.0509.17212.08953.20508.10327a.58442.58442,0,0,0,.51233-.05957c-.004-.03376-.13233-.05927-.31336-.10181a1.00884,1.00884,0,0,0,.61646-.05048c-.01074-.03943-.05493-.0534-.34766-.12628a1.7512,1.7512,0,0,0,1.13428-.25757s.16943-.05432-.17615-.04254c1.853-.201,2.18592-.98407,2.15344-.99-.09167-.01013-.4646.27228-1.06225.4931a2.80912,2.80912,0,0,0,1.41577-.9895C38.99976,9.91,38.69775,10.04449,38.32812,10.21484ZM33.273,13.13251a1.04989,1.04989,0,0,0-.33594.05713l.00122-.00183a1.26676,1.26676,0,0,1-.19909-.09675,1.5736,1.5736,0,0,1-.00306-.37622l-.00024-.00122a.48.48,0,0,0,.1582.15479.73248.73248,0,0,0-.043-.26782,6.78507,6.78507,0,0,0,.03565-.712c.27051.47516.37842.67584.30273,1.03973.0326.01246.0719-.03295.10779-.09368l.01489.2453A.44657.44657,0,0,1,33.273,13.13251Z" fill="#ef7d00" /><path d="M32.54122,9.59327h0a.71116.71116,0,0,1-.1297-.0177.99466.99466,0,0,0-.13445-.02.02143.02143,0,0,1-.01061-.03928.50286.50286,0,0,1,.26027-.1003.137.137,0,0,1,.1466.097l-.00248.01A.133.133,0,0,1,32.54122,9.59327Zm-.19838-.07365c.0261.00395.05171.009.07688.01389a.68341.68341,0,0,0,.12148.0169h0a.09172.09172,0,0,0,.0875-.04016.108.108,0,0,0-.102-.05138A.39091.39091,0,0,0,32.34284,9.51962Z" /></g></svg>