<svg xmlns="http://www.w3.org/2000/svg" xmlns:xlink="http://www.w3.org/1999/xlink" viewBox="0 0 44 53"><defs><linearGradient id="Hintergrund_weiss" x1="1.99982" y1="45.35765" x2="42.00018" y2="45.35765" gradientUnits="userSpaceOnUse"><stop offset="0" stop-color="#fff"/></linearGradient><linearGradient id="Rahmen_schwarz" x1="1.99322" y1="44.77854" x2="42.00678" y2="44.77854" gradientUnits="userSpaceOnUse"><stop offset="0" stop-color="#010101"/></linearGradient><linearGradient id="Beschriftung_schwarz" x1="10.51025" y1="44.82253" x2="33.48975" y2="44.82253" xlink:href="#Rahmen_schwarz"/></defs><title>zusatzschild_school_work_mph</title><g id="zusatzschild_mph"><path id="Hintergrund_weiss-2" data-name="Hintergrund_weiss" d="M1.99982,39.71542v9.06293a2.21614,2.21614,0,0,0,2.21069,2.22152h35.579a2.21614,2.21614,0,0,0,2.21069-2.22152V39.71542Z" fill="url(#Hintergrund_weiss)"/><path id="Rahmen_schwarz-2" data-name="Rahmen_schwarz" d="M40.99322,38.5572l.01356,10.24266a1.15538,1.15538,0,0,1-1.20007,1.2h-35.6a1.15535,1.15535,0,0,1-1.2-1.2L2.99322,38.5572h-1l.01356,10.24266a2.21952,2.21952,0,0,0,2.2,2.2h35.6a2.21955,2.21955,0,0,0,2.20007-2.2L41.99322,38.5572Z" fill="url(#Rahmen_schwarz)" stroke-width="0.5px" stroke="url(#Rahmen_schwarz)"/><path id="Beschriftung_schwarz-2" data-name="Beschriftung_schwarz" d="M17.40771,48.50759h-1.2871v-4.499l-2.167,4.499-2.15625-4.499v4.499H10.51025V41.13747h1.28711l2.15625,4.37793,2.167-4.37793h1.2871ZM23.36963,45.615H21.25732v2.89258H19.937V41.13747h3.38867a2.4994,2.4994,0,0,1,1.26465.30859,2.12123,2.12123,0,0,1,1.13281,1.94629,2.08522,2.08522,0,0,1-1.13281,1.99121A3.06755,3.06755,0,0,1,23.36963,45.615Zm1.0332-2.22266a.86432.86432,0,0,0-.28515-.68164,1.12218,1.12218,0,0,0-.77051-.25293H21.25732V44.2947h2.08985a1.13965,1.13965,0,0,0,.77051-.248A.8225.8225,0,0,0,24.40283,43.39235Zm9.08692,5.11524H32.18018V45.27321l-3.31055.0332v3.20118H27.54932V41.13747h1.32031V43.9861h3.31055V41.13747h1.30957Z" fill="url(#Beschriftung_schwarz)"/></g></svg>