<svg xmlns="http://www.w3.org/2000/svg" viewBox="0 0 44 44"><title>icid-narrowlanes_d0_m-nar_1</title><g id="icid-narrowlanes_d0_m-nar-2" data-name="icid-narrowlanes_d0_m-nar"><g id="Bildmaterial_1" data-name="Bildmaterial 1"><path d="M22,41.8a1.60584,1.60584,0,0,1-1.1-.5L2.7,23.1a1.56944,1.56944,0,0,1,0-2.2L20.9,2.7a1.46,1.46,0,0,1,2.2,0L41.3,20.9a1.56944,1.56944,0,0,1,0,2.2L23.1,41.3A1.60584,1.60584,0,0,1,22,41.8Z"/><path d="M22,2.5a.97479.97479,0,0,1,.9.4L41.1,21.1a1.22153,1.22153,0,0,1,.4.9,1.08577,1.08577,0,0,1-.4.9L22.9,41.1a1.22153,1.22153,0,0,1-.9.4,1.08577,1.08577,0,0,1-.9-.4L2.9,22.9a1.39083,1.39083,0,0,1,0-1.9L21.1,2.9a.97479.97479,0,0,1,.9-.4M22,2a2.10617,2.10617,0,0,0-1.3.5L2.5,20.7a1.872,1.872,0,0,0,0,2.6L20.7,41.5A1.65586,1.65586,0,0,0,22,42a2.10617,2.10617,0,0,0,1.3-.5L41.5,23.3a1.872,1.872,0,0,0,0-2.6L23.3,2.5A2.10617,2.10617,0,0,0,22,2Z" fill="#979797"/><path d="M21.8,40.4,3.6,22.2a.44637.44637,0,0,1,0-.5L21.8,3.6a.44637.44637,0,0,1,.5,0L40.5,21.8a.44637.44637,0,0,1,0,.5L22.2,40.4A.30417.30417,0,0,1,21.8,40.4Z" fill="#979797"/></g><polyline points="19.723 12.594 19.723 18.392 17.206 22.178 17.206 30.46" fill="none" stroke="#000" stroke-miterlimit="10" stroke-width="2"/><polyline points="24.277 12.594 24.277 18.392 26.794 22.178 26.794 30.46" fill="none" stroke="#000" stroke-miterlimit="10" stroke-width="2"/></g></svg>