<svg xmlns="http://www.w3.org/2000/svg" viewBox="0 0 44 44"><title>icid-queuetraffic_d0_m-nar_1</title><g id="icid-queuetraffic_d0_m-nar-2" data-name="icid-queuetraffic_d0_m-nar"><g id="Bildmaterial_1" data-name="Bildmaterial 1"><path d="M22,41.8a1.60584,1.60584,0,0,1-1.1-.5L2.7,23.1a1.56944,1.56944,0,0,1,0-2.2L20.9,2.7a1.46,1.46,0,0,1,2.2,0L41.3,20.9a1.56944,1.56944,0,0,1,0,2.2L23.1,41.3A1.60584,1.60584,0,0,1,22,41.8Z"/><path d="M22,2.5a.97479.97479,0,0,1,.9.4L41.1,21.1a1.22153,1.22153,0,0,1,.4.9,1.08577,1.08577,0,0,1-.4.9L22.9,41.1a1.22153,1.22153,0,0,1-.9.4,1.08577,1.08577,0,0,1-.9-.4L2.9,22.9a1.39083,1.39083,0,0,1,0-1.9L21.1,2.9a.97479.97479,0,0,1,.9-.4M22,2a2.10617,2.10617,0,0,0-1.3.5L2.5,20.7a1.872,1.872,0,0,0,0,2.6L20.7,41.5A1.65586,1.65586,0,0,0,22,42a2.10617,2.10617,0,0,0,1.3-.5L41.5,23.3a1.872,1.872,0,0,0,0-2.6L23.3,2.5A2.10617,2.10617,0,0,0,22,2Z" fill="#979797"/><path d="M21.8,40.4,3.6,22.2a.44637.44637,0,0,1,0-.5L21.8,3.6a.44637.44637,0,0,1,.5,0L40.5,21.8a.44637.44637,0,0,1,0,.5L22.2,40.4A.30417.30417,0,0,1,21.8,40.4Z" fill="#979797"/></g><path d="M30.96583,23.40179a.6122.6122,0,0,0-.48852-.25006H29.23854c-.14576-.20929-1.02137-1.493-1.27265-1.788a1.593,1.593,0,0,0-1.43933-.78583c-1.2312-.10846-2.73755-.12127-3.1806-.12127h-.01691c-.45123,0-1.58624.01281-2.81982.12127a1.58838,1.58838,0,0,0-1.43817.78583c-.25244.295-1.12806,1.57867-1.27259,1.788H16.55909a.61437.61437,0,0,0-.48913.25006,3.512,3.512,0,0,0-.28974.84766.36155.36155,0,0,0,.37836.34509h1.4259a2.56735,2.56735,0,0,0-.18945.49787l-.00934.03558a4.64494,4.64494,0,0,0-.144,1.2143A7.26066,7.26066,0,0,0,17.3531,27.556c.01453.08856.02911.17078.04718.24481v1.94245a.3634.3634,0,0,0,.37836.34509h1.20263a.36319.36319,0,0,0,.379-.34509V28.03577H28.128v1.70752a.36459.36459,0,0,0,.38007.34509H29.8069a.36423.36423,0,0,0,.38128-.34509V27.80084c.01575-.074.0315-.15625.04718-.24481a7.1264,7.1264,0,0,0,.11023-1.21374,4.70316,4.70316,0,0,0-.14282-1.2143l-.0105-.03442a2.49631,2.49631,0,0,0-.18829-.499h.87323a.36291.36291,0,0,0,.38068-.34509A3.56514,3.56514,0,0,0,30.96583,23.40179Zm-11.66449.1446c.24719-.33.54218-1.26563.89429-1.67542a1.72046,1.72046,0,0,1,.41388-.10376c1.184-.10437,2.28577-.1178,2.71954-.1178.43543,0,1.91675.01343,3.10132.1178a1.70808,1.70808,0,0,1,.34631.056,17.256,17.256,0,0,1,.98169,1.72321Z"/><path d="M15.29286,23.20825V21.04083h2.0246c.25427-.3573.42626-.58673.53668-.71612l.07129-.08887a2.96452,2.96452,0,0,1,2.00879-1.1969,3.63521,3.63521,0,0,1,.459-.06476c1.22015-.10724,2.24213-.123,2.74347-.123h.0163c.147,0,.34527.00238.57721.00775.2312.00244.54418.00769.89855.01745-.017-.10479-.03277-.21179-.05389-.29742-.00177-.01111-.00525-.02161-.00818-.03326-.06354-.24482-.13641-.17548-.18481-.26465h.78821a.326.326,0,0,0,.341-.31073,3.24214,3.24214,0,0,0-.26172-.76306.55338.55338,0,0,0-.44019-.225H23.69282c-.12884-.18891-.91992-1.24811-1.14557-1.514a1.435,1.435,0,0,0-1.293-.70831c-1.10937-.09735-2.02056-.10663-2.41931-.10663h-.0169c-.40577,0-1.31635.00928-2.42456.10663a1.43253,1.43253,0,0,0-1.29535.70831c-.22852.26587-1.01551,1.32507-1.14435,1.514h-.98926a.54788.54788,0,0,0-.43958.225,3.0739,3.0739,0,0,0-.26055.76306.32377.32377,0,0,0,.33984.31073h.85986c-.0484.08917.00641.67682-.05713.92169l-.00872.0332a3.89634,3.89634,0,0,0-.1883,1.03711,6.57155,6.57155,0,0,0,.10028,1.09247c.01453.08044.028.15216.04486.22211v1.6206a.32453.32453,0,0,0,.33869.31018h1.25574A.32731.32731,0,0,0,15.29286,23.20825Zm.81616-7.50036a1.45707,1.45707,0,0,1,.37195-.095c1.06622-.09271,1.94824-.10608,2.33826-.10608.39172,0,1.28076.01337,2.34643.10608a1.58514,1.58514,0,0,1,.3136.05011,13.53015,13.53015,0,0,1,.88263,1.32453H15.30452C15.52723,16.69019,15.79188,16.07574,16.109,15.70789Z"/></g></svg>