<svg xmlns="http://www.w3.org/2000/svg" viewBox="0 0 44 44"><defs><style>.cls-1{fill:#979797;}.cls-2{fill:#fff;stroke:#5c5c5c;stroke-miterlimit:10;stroke-width:1.07915px;}</style></defs><g id="Ebene_1" data-name="Ebene 1"><path d="M22,41.784a1.61005,1.61005,0,0,1-1.1-.5L2.7,23.084a1.57,1.57,0,0,1,0-2.2l18.2-18.2a1.46,1.46,0,0,1,2.2,0l18.2,18.2a1.57,1.57,0,0,1,0,2.2l-18.2,18.2A1.61,1.61,0,0,1,22,41.784Z"/><path class="cls-1" d="M22,2.484a.975.975,0,0,1,.9.4l18.2,18.2a1.22,1.22,0,0,1,.4.9,1.09,1.09,0,0,1-.4.9l-18.2,18.2a1.22,1.22,0,0,1-.9.4,1.09,1.09,0,0,1-.9-.4L2.9,22.884a1.39,1.39,0,0,1,0-1.9l18.2-18.1a.975.975,0,0,1,.9-.4m0-.5a2.11,2.11,0,0,0-1.3.5L2.5,20.684a1.87,1.87,0,0,0,0,2.6l18.2,18.2a1.66,1.66,0,0,0,1.3.5,2.11,2.11,0,0,0,1.3-.5l18.2-18.2a1.87,1.87,0,0,0,0-2.6L23.3,2.484A2.11,2.11,0,0,0,22,1.984Z"/><path class="cls-1" d="M21.8,40.384,3.6,22.184a.446.446,0,0,1,0-.5l18.2-18.1a.446.446,0,0,1,.5,0l18.2,18.2a.446.446,0,0,1,0,.5l-18.3,18.1A.304.304,0,0,1,21.8,40.384Z"/><rect x="13.56464" y="21.04849" width="3.95852" height="0.98963"/><rect x="26.47589" y="21.04849" width="3.95852" height="0.98963"/><polygon points="29.115 19.894 29.115 19.069 30.764 19.069 30.929 18.245 28.95 18.245 28.95 18.739 15.049 18.739 15.049 18.245 13.07 18.245 13.235 19.069 14.884 19.069 14.884 19.894 29.115 19.894"/><path d="M29.27984,19.06924v-.8247s-1.48444-2.47407-2.47407-2.639a47.1482,47.1482,0,0,0-4.82429-.16494,46.4471,46.4471,0,0,0-4.7882.16494c-.98963.32988-2.47407,2.639-2.47407,2.639v.8247l-1.64938.98963v6.26765a.60417.60417,0,0,0,.65975.65976h2.639a.7095.7095,0,0,0,.65976-.65976v-.82469h9.94236v.82469a.60417.60417,0,0,0,.65975.65976h2.639a.70949.70949,0,0,0,.65975-.65976V20.05887Zm.49482,6.76246H28.12528V24.34725H15.87378V25.8317H14.22439V20.71861l1.64939-.82469v-1.3195a9.66177,9.66177,0,0,1,1.48444-1.81432c.32988-.16494,1.15955-.16494,4.62325-.16494s3.83467,0,4.65936.16494a9.66177,9.66177,0,0,1,1.48444,1.81432v1.3195l1.64939.82469Z"/><g id="Ebene_1-2" data-name="Ebene 1-2"><path class="cls-2" d="M18.25237,29.59726a.231.231,0,0,1-.16428-.06161.24479.24479,0,0,1-.10268-.20535.23972.23972,0,0,1,.04107-.14375L21.764,22.71786a.26625.26625,0,0,1,.36758-.0842.27454.27454,0,0,1,.0842.0842l3.73747,6.48922a.29233.29233,0,0,1,.04107.12322.28537.28537,0,0,1-.10268.20535.27079.27079,0,0,1-.16428.06161Z"/></g></g></svg>