<svg xmlns="http://www.w3.org/2000/svg" viewBox="0 0 44 44"><title>icid-parking_d0_m-nar_1</title><g id="icid-parking_d0_m-nar-2" data-name="icid-parking_d0_m-nar"><g id="rectangular_bg"><path d="M4.31075,41.71088a2.02758,2.02758,0,0,1-2.02163-2.02163V4.31075A2.02758,2.02758,0,0,1,4.31075,2.28912h35.3785a2.02758,2.02758,0,0,1,2.02163,2.02163v35.3785a2.02758,2.02758,0,0,1-2.02163,2.02163Z" fill="#7c7c7c"/></g><path d="M16.07932,35.66119V25.14639h5.5341a14.27776,14.27776,0,0,0,3.20978-.332,7.85851,7.85851,0,0,0,2.435-.6641,7.63691,7.63691,0,0,0,1.88159-1.10682,5.866,5.866,0,0,0,1.21751-1.66023,6.86228,6.86228,0,0,0,.77477-2.10295,18.153,18.153,0,0,0,.22137-2.435,18.15237,18.15237,0,0,0-.22137-2.54569,11.84315,11.84315,0,0,0-.77477-2.103L29.1398,10.53636a10.07179,10.07179,0,0,0-1.77091-1.2175,8.96489,8.96489,0,0,0-2.435-.77477A11.39966,11.39966,0,0,0,22.05615,8.212H12.98022V35.66119Zm0-13.72457V11.42182h5.42342a10.84655,10.84655,0,0,1,2.87773.332,4.64862,4.64862,0,0,1,1.8816,1.2175,3.76321,3.76321,0,0,1,1.10682,1.77091,4.7594,4.7594,0,0,1,.332,1.8816,6.41945,6.41945,0,0,1-.332,2.103,5.97674,5.97674,0,0,1-1.10682,1.77092,8.52253,8.52253,0,0,1-1.99228,1.10682,11.1787,11.1787,0,0,1-2.98841.332Z" fill="#fff"/><path d="M41.71088,3.84525a1.59553,1.59553,0,0,0-1.55613-1.55613H38.80353L2.28912,38.4984v1.65635a1.59553,1.59553,0,0,0,1.55613,1.55613H5.40732L41.71088,5.71068Z" fill="red"/><rect x="2.28912" y="2.28912" width="39.42175" height="39.42175" rx="1.5" fill="none" stroke="none" stroke-miterlimit="10" stroke-width="0.5"/></g></svg>