<svg xmlns="http://www.w3.org/2000/svg" viewBox="0 0 44 44"><title>icid-tlightdefect_d0_m-nar_1</title><g id="icid-tlightdefect_d0_m-nar-2" data-name="icid-tlightdefect_d0_m-nar"><g id="Bildmaterial_1" data-name="Bildmaterial 1"><path d="M22,41.8a1.60584,1.60584,0,0,1-1.1-.5L2.7,23.1a1.56944,1.56944,0,0,1,0-2.2L20.9,2.7a1.46,1.46,0,0,1,2.2,0L41.3,20.9a1.56944,1.56944,0,0,1,0,2.2L23.1,41.3A1.60584,1.60584,0,0,1,22,41.8Z"/><path d="M22,2.5a.97479.97479,0,0,1,.9.4L41.1,21.1a1.22153,1.22153,0,0,1,.4.9,1.08577,1.08577,0,0,1-.4.9L22.9,41.1a1.22153,1.22153,0,0,1-.9.4,1.08577,1.08577,0,0,1-.9-.4L2.9,22.9a1.39083,1.39083,0,0,1,0-1.9L21.1,2.9a.97479.97479,0,0,1,.9-.4M22,2a2.10617,2.10617,0,0,0-1.3.5L2.5,20.7a1.872,1.872,0,0,0,0,2.6L20.7,41.5A1.65586,1.65586,0,0,0,22,42a2.10617,2.10617,0,0,0,1.3-.5L41.5,23.3a1.872,1.872,0,0,0,0-2.6L23.3,2.5A2.10617,2.10617,0,0,0,22,2Z" fill="#979797"/><path d="M21.8,40.4,3.6,22.2a.44637.44637,0,0,1,0-.5L21.8,3.6a.44637.44637,0,0,1,.5,0L40.5,21.8a.44637.44637,0,0,1,0,.5L22.2,40.4A.30417.30417,0,0,1,21.8,40.4Z" fill="#979797"/></g><path id="rect3042" d="M17.67734,34.95363H26.866V9.67313h-9.1887Z"/><path id="path3826" d="M22.27169,33.80421a3.44714,3.44714,0,1,0-3.44714-3.44714,3.44713,3.44713,0,0,0,3.44714,3.44714Z" fill="#383838"/><path id="path3840" d="M22.27169,18.86624a3.44714,3.44714,0,1,1-3.44714,3.44714,3.44713,3.44713,0,0,1,3.44714-3.44714Z" fill="#8e8e8e"/><path id="path3842" d="M22.27169,17.71682a3.44714,3.44714,0,1,0-3.44714-3.44713,3.44713,3.44713,0,0,0,3.44714,3.44713Z" fill="#646464"/><line x1="32.17437" y1="12.17437" x2="12.17437" y2="32.17437" fill="none" stroke="#ff0200" stroke-miterlimit="10" stroke-width="2"/></g></svg>