<svg xmlns="http://www.w3.org/2000/svg" viewBox="0 0 44 44"><title>icid-nopetrol_d0_m-nar_1</title><g id="icid-nopetrol_d0_m-nar-2" data-name="icid-nopetrol_d0_m-nar"><g id="rectangular_bg"><path d="M4.31075,41.71088a2.02758,2.02758,0,0,1-2.02163-2.02163V4.31075A2.02758,2.02758,0,0,1,4.31075,2.28912h35.3785a2.02758,2.02758,0,0,1,2.02163,2.02163v35.3785a2.02758,2.02758,0,0,1-2.02163,2.02163Z" fill="#013f87"/><path d="M4.31075,41.71088a2.02758,2.02758,0,0,1-2.02163-2.02163V4.31075A2.02758,2.02758,0,0,1,4.31075,2.28912h35.3785a2.02758,2.02758,0,0,1,2.02163,2.02163v35.3785a2.02758,2.02758,0,0,1-2.02163,2.02163Z" fill="#7c7c7c"/></g><path d="M27.78679,35.11987c.00138-.02813.00821-.05462.00821-.08313V7.93463A1.64761,1.64761,0,0,0,26.16284,6.272h-9.222a1.64766,1.64766,0,0,0-1.63222,1.66266V35.03674c0,.02851.00683.055.00821.08313H8.95463v2.15808H33.4961V35.11987Zm-1.624-20.78082a.82389.82389,0,0,1-.81611.83136H17.83857a.82385.82385,0,0,1-.81611-.83136V8.68286a.82385.82385,0,0,1,.81611-.83136h7.50816a.82389.82389,0,0,1,.81611.83136Z" fill="#fff"/><path d="M27.16956,19.16448s1.57957-.17282,1.57957.40912c0,.48769.01135,8.138.01135,11.30629,0,.948.61216,2.8239,1.98389,2.8239,1.09462,0,2.00911-.66227,2.00911-2.47739a4.99107,4.99107,0,0,0-.84791-2.69077,7.17629,7.17629,0,0,1-1.40606-3.96872V14.5505c0-1.18433.15088-1.85334-.538-2.54221-.7045-.70449-1.53108-1.69483-2.792-1.69483" fill="none" stroke="#fff" stroke-miterlimit="10"/><path d="M41.71088,3.84525a1.59553,1.59553,0,0,0-1.55613-1.55613H38.80353L2.28912,38.4984v1.65635a1.59553,1.59553,0,0,0,1.55613,1.55613H5.40732L41.71088,5.71068Z" fill="red"/><rect x="2.28912" y="2.28912" width="39.42175" height="39.42175" rx="1.5" fill="none" stroke="none" stroke-miterlimit="10" stroke-width="0.5"/></g></svg>