<svg xmlns="http://www.w3.org/2000/svg" viewBox="0 0 44 44"><title>icid-pplonroad_d0_m-nar_1</title><g id="icid-pplonroad_d0_m-nar-2" data-name="icid-pplonroad_d0_m-nar"><g id="Bildmaterial_1" data-name="Bildmaterial 1"><path d="M22,41.8a1.60584,1.60584,0,0,1-1.1-.5L2.7,23.1a1.56944,1.56944,0,0,1,0-2.2L20.9,2.7a1.46,1.46,0,0,1,2.2,0L41.3,20.9a1.56944,1.56944,0,0,1,0,2.2L23.1,41.3A1.60584,1.60584,0,0,1,22,41.8Z"/><path d="M22,2.5a.97479.97479,0,0,1,.9.4L41.1,21.1a1.22153,1.22153,0,0,1,.4.9,1.08577,1.08577,0,0,1-.4.9L22.9,41.1a1.22153,1.22153,0,0,1-.9.4,1.08577,1.08577,0,0,1-.9-.4L2.9,22.9a1.39083,1.39083,0,0,1,0-1.9L21.1,2.9a.97479.97479,0,0,1,.9-.4M22,2a2.10617,2.10617,0,0,0-1.3.5L2.5,20.7a1.872,1.872,0,0,0,0,2.6L20.7,41.5A1.65586,1.65586,0,0,0,22,42a2.10617,2.10617,0,0,0,1.3-.5L41.5,23.3a1.872,1.872,0,0,0,0-2.6L23.3,2.5A2.10617,2.10617,0,0,0,22,2Z" fill="#979797"/><path d="M21.8,40.4,3.6,22.2a.44637.44637,0,0,1,0-.5L21.8,3.6a.44637.44637,0,0,1,.5,0L40.5,21.8a.44637.44637,0,0,1,0,.5L22.2,40.4A.30417.30417,0,0,1,21.8,40.4Z" fill="#979797"/></g><path d="M27.79558,32.51851q-.22388-.90627-.44381-1.81352-.86994-3.55653-1.7385-7.11346a.28623.28623,0,0,1,.00465-.14886,4.71225,4.71225,0,0,0,.20658-1.10107,8.49736,8.49736,0,0,0-.143-2.1501,15.32653,15.32653,0,0,0-.77562-2.72247c-.00949-.025-.01545-.05138-.02644-.08856.39157.07913.76985.15749,1.14918.23021a.09235.09235,0,0,1,.089.0993q.08307.87259.171,1.74466.12411,1.24806.24757,2.49618c.00595.06146.03.08071.08765.08981.21025.033.41958.07213.62938.10807.135.0231.27027.04457.41114.06768.00262-.03927.00582-.06454.00582-.08987q.00041-2.672-.00242-5.34387a.17807.17807,0,0,0-.06258-.12594,27.15312,27.15312,0,0,0-3.46109-2.16988,8.15343,8.15343,0,0,0-1.88448-.747,1.837,1.837,0,0,0-.863-.04033,1.66785,1.66785,0,0,0-.81456.535,5.28335,5.28335,0,0,0-.94685,1.59018,16.41178,16.41178,0,0,0-.778,2.51117.25884.25884,0,0,1-.1.14008Q17.22372,19.50373,15.686,20.5254c-.16338.10886-.32618.21863-.49283.33037.02.03273.0341.05773.05.08163.161.24212.3246.48262.482.7271.04.06219.07645.067.1423.04524q1.9009-.63057,3.80273-1.25837a.27284.27284,0,0,0,.1211-.08549c.17621-.22321.34764-.45016.52078-.67579.08614-.11226.17255-.22439.26543-.34509.01166.02821.0203.04457.02534.06192q.37693,1.29577.75067,2.59234a.20756.20756,0,0,1-.02232.14191q-.991,1.7823-1.98646,3.5621a.59335.59335,0,0,0-.05924.13183q-.87759,3.27014-1.75506,6.54032c-.02056.07645.00713.09406.06657.11553q.73257.26492,1.464.53329c.1444.05263.2888.10512.44053.16037.01611-.04648.02913-.08228.041-.11841q1.0069-3.06531,2.01493-6.13022a.38512.38512,0,0,1,.08019-.13917q.67768-.72726,1.35884-1.4512a.436.436,0,0,0,.0487-.082l.03234.02127q1.61106,4.18386,3.2263,8.37845a.50271.50271,0,0,0,.04654-.02436q.7041-.49859,1.4086-.99659C27.80919,32.607,27.8086,32.57114,27.79558,32.51851Z"/><path d="M20.46217,13.37849a1.74594,1.74594,0,1,0-1.74243-1.75736A1.75726,1.75726,0,0,0,20.46217,13.37849Z"/></g></svg>