<svg xmlns="http://www.w3.org/2000/svg" viewBox="0 0 44 44"><title>icid-fog_d0_m-nar_1</title><g id="icid-fog_d0_m-nar-2" data-name="icid-fog_d0_m-nar"><g id="Bildmaterial_1" data-name="Bildmaterial 1"><path d="M22,41.8a1.60584,1.60584,0,0,1-1.1-.5L2.7,23.1a1.56944,1.56944,0,0,1,0-2.2L20.9,2.7a1.46,1.46,0,0,1,2.2,0L41.3,20.9a1.56944,1.56944,0,0,1,0,2.2L23.1,41.3A1.60584,1.60584,0,0,1,22,41.8Z"/><path d="M22,2.5a.97479.97479,0,0,1,.9.4L41.1,21.1a1.22153,1.22153,0,0,1,.4.9,1.08577,1.08577,0,0,1-.4.9L22.9,41.1a1.22153,1.22153,0,0,1-.9.4,1.08577,1.08577,0,0,1-.9-.4L2.9,22.9a1.39083,1.39083,0,0,1,0-1.9L21.1,2.9a.97479.97479,0,0,1,.9-.4M22,2a2.10617,2.10617,0,0,0-1.3.5L2.5,20.7a1.872,1.872,0,0,0,0,2.6L20.7,41.5A1.65586,1.65586,0,0,0,22,42a2.10617,2.10617,0,0,0,1.3-.5L41.5,23.3a1.872,1.872,0,0,0,0-2.6L23.3,2.5A2.10617,2.10617,0,0,0,22,2Z" fill="#979797"/><path d="M21.8,40.4,3.6,22.2a.44637.44637,0,0,1,0-.5L21.8,3.6a.44637.44637,0,0,1,.5,0L40.5,21.8a.44637.44637,0,0,1,0,.5L22.2,40.4A.30417.30417,0,0,1,21.8,40.4Z" fill="#979797"/></g><path d="M19.17876,14.76611H16.56158v1.39258h1.64648v.91162H16.56158v2.45606H15.667V13.87109h3.51172Z"/><path d="M21.97173,19.62744a1.76213,1.76213,0,0,1-1.53125-.75537,3.72666,3.72666,0,0,1-.53613-2.17334,3.721,3.721,0,0,1,.53613-2.15234,1.92016,1.92016,0,0,1,3.07227,0,3.7689,3.7689,0,0,1,.52734,2.15234,3.77468,3.77468,0,0,1-.52734,2.17334A1.75983,1.75983,0,0,1,21.97173,19.62744Zm0-4.9541a.898.898,0,0,0-.86035.561,3.40653,3.40653,0,0,0-.27832,1.44775,3.38,3.38,0,0,0,.26562,1.51074.89286.89286,0,0,0,.873.50635.92445.92445,0,0,0,.88672-.53174,3.728,3.728,0,0,0,.26172-1.48535,3.37787,3.37787,0,0,0-.2832-1.46045A.96954.96954,0,0,0,21.97173,14.67334Z"/><path d="M26.81646,18.72461q.76025-.01684.90332-1.04688h-.86914v-.94531h1.89062v.24512a3.2685,3.2685,0,0,1-.51953,1.979,1.64435,1.64435,0,0,1-1.37988.6709,1.79988,1.79988,0,0,1-1.55762-.77637,3.7202,3.7202,0,0,1-.53515-2.15234,3.72126,3.72126,0,0,1,.53515-2.15234,1.75708,1.75708,0,0,1,1.53223-.76807,1.83655,1.83655,0,0,1,1.73926,1.07227l-.83594.41357a.95264.95264,0,0,0-.90332-.59082.898.898,0,0,0-.86035.561,3.38582,3.38582,0,0,0-.27051,1.46435,3.3844,3.3844,0,0,0,.27051,1.46436A.89772.89772,0,0,0,26.81646,18.72461Z"/><path d="M17.51177,29.65527h-.94531l-.55762-1.58691H14.24517l-.55664,1.58691h-.9541L14.67583,24h.89453Zm-1.82324-2.498-.55762-1.58692-.57324,1.58692Z"/><path d="M21.94243,29.65527h-.9707l-.91113-2.45605H18.98833v2.45605H18.0938V24h2.23731a1.3568,1.3568,0,0,1,1.09277.502,1.68883,1.68883,0,0,1,.40039,1.085,1.60255,1.60255,0,0,1-.24414.84864,1.44025,1.44025,0,0,1-.63379.57812Zm-1.0039-4.043a.64558.64558,0,0,0-.19824-.50683.68915.68915,0,0,0-.44336-.18555h-1.3086V26.3125h1.34278a.57152.57152,0,0,0,.42968-.18555A.71327.71327,0,0,0,20.93853,25.6123Z"/><path d="M26.29009,29.65527H22.77837V24h3.334v.89453H23.6729v1.39258h1.64649v.91211H23.6729v1.54492h2.61719Z"/><path d="M31.64946,29.65527h-.94531l-.55761-1.58691H28.38286l-.55664,1.58691h-.9541L28.81353,24h.89453Zm-1.82324-2.498-.55761-1.58692-.57325,1.58692Z"/></g></svg>