<svg xmlns="http://www.w3.org/2000/svg" viewBox="0 0 44 44"><title>Distanzverstellung_2</title><g id="Distanzverstellung_2"><circle cx="22.02961" cy="21.99073" r="20" fill="none" stroke="#fff" stroke-miterlimit="10" stroke-width="2.2"/><g id="_2" data-name="2"><path d="M13.14072,34.43517V31.87565L19.783,25.48551q1.07965-1.03524,1.98933-1.95.90966-.91427,1.65445-1.74583.74427-.8308,1.30988-1.59728a11.98089,11.98089,0,0,0,.95357-1.49774,7.08209,7.08209,0,0,0,.58347-1.44924,5.53476,5.53476,0,0,0,.19551-1.45843,5.40074,5.40074,0,0,0-.32619-1.924,3.71368,3.71368,0,0,0-.99236-1.46251,4.49909,4.49909,0,0,0-1.68917-.92294,8.09053,8.09053,0,0,0-2.41608-.32211q-1.0965,0-2.07611.08729a17.08117,17.08117,0,0,0-1.86323.26544,13.96,13.96,0,0,0-1.6759.44412,11.32646,11.32646,0,0,0-1.51458.631V9.64085A9.01109,9.01109,0,0,1,15.3082,9.014a12.69246,12.69246,0,0,1,1.64986-.45739,16.52,16.52,0,0,1,1.91122-.27821q1.0184-.09187,2.19351-.09137a15.31306,15.31306,0,0,1,2.83417.23941,9.87787,9.87787,0,0,1,2.25477.68761,6.37954,6.37954,0,0,1,1.69733,1.1011,5.91646,5.91646,0,0,1,1.171,1.48038,6.62433,6.62433,0,0,1,.67945,1.82342A10.01879,10.01879,0,0,1,29.917,15.6563a8.09349,8.09349,0,0,1-.27872,2.13736,9.87016,9.87016,0,0,1-.78767,1.99392,13.67383,13.67383,0,0,1-1.219,1.90714q-.70981.9357-1.57125,1.8714-.86219.93571-1.85864,1.88876-.997.95409-2.05926,1.94594l-4.48351,4.27472H30.95275v2.75963Z" fill="#fff"/></g></g></svg>