<svg xmlns="http://www.w3.org/2000/svg" viewBox="0 0 44 44"><title>Distanzverstellung_5</title><g id="Distanzverstellung_2"><circle cx="22.02961" cy="21.99073" r="20" fill="none" stroke="#fff" stroke-miterlimit="10" stroke-width="2.2"/></g><g id="Distanzverstellung_5"><g id="_5" data-name="5"><path d="M14.02961,30.614q.67.27873,1.5059.535.83616.25728,1.78922.4533.95331.196,1.98473.31344a18.75207,18.75207,0,0,0,2.10265.11741,9.39842,9.39842,0,0,0,2.8163-.37061,5.15822,5.15822,0,0,0,1.9199-1.04035,4.00956,4.00956,0,0,0,1.097-1.59268,5.73976,5.73976,0,0,0,.34814-2.0368,3.74138,3.74138,0,0,0-.37877-1.72031,4.2075,4.2075,0,0,0-1.04035-1.30579,6.39544,6.39544,0,0,0-1.53653-.95255,12.031,12.031,0,0,0-1.876-.65341,18.98777,18.98777,0,0,0-2.05926-.41349q-1.05746-.15314-2.0807-.23073-1.023-.07811-1.94593-.10414-.9227-.02756-1.64527-.0439L15.49212,8.6574H30.04834V11.487H18.6438l-.27872,7.23447q1.00079.05283,2.072.15671,1.07047.10491,2.15013.30067a21.0618,21.0618,0,0,1,2.12868.50027,13.40728,13.40728,0,0,1,1.98932.74887,9.85166,9.85166,0,0,1,1.74124,1.04954,6.71629,6.71629,0,0,1,1.38441,1.40074,6.44241,6.44241,0,0,1,.91426,1.80709,7.24484,7.24484,0,0,1,.33079,2.26345,9.33737,9.33737,0,0,1-.244,2.15931,7.31254,7.31254,0,0,1-.74019,1.9102,6.55986,6.55986,0,0,1-1.27057,1.60187,7.264,7.264,0,0,1-1.8418,1.22412,10.66653,10.66653,0,0,1-2.43752.78307,15.40819,15.40819,0,0,1-3.05979.27872q-1.18456,0-2.25529-.09188a19.15843,19.15843,0,0,1-2.01535-.27362,14.02343,14.02343,0,0,1-1.74124-.44819,9.63234,9.63234,0,0,1-1.44056-.60543Z" fill="#fff"/></g></g></svg>