<svg xmlns="http://www.w3.org/2000/svg" viewBox="0 0 44 44"><title>Distanzverstellung_3</title><g id="Distanzverstellung_2"><circle cx="22.02961" cy="21.99073" r="20" fill="none" stroke="#fff" stroke-miterlimit="10" stroke-width="2.2"/></g><g id="Distanzverstellung_3"><g id="_3" data-name="3"><path d="M14.02961,30.59166q.68838.27873,1.51969.535.83079.25728,1.77135.4533.94029.196,1.98064.31344a19.21362,19.21362,0,0,0,2.13737.11741A9.29812,9.29812,0,0,0,24.04157,31.68a5.61908,5.61908,0,0,0,1.90255-.93213,3.97739,3.97739,0,0,0,1.17052-1.44465,4.33111,4.33111,0,0,0,.40072-1.88059,4.86573,4.86573,0,0,0-.41349-2.02863,4.18559,4.18559,0,0,0-1.23637-1.56716,5.87591,5.87591,0,0,0-2.05875-1.00564,10.60138,10.60138,0,0,0-2.89031-.35223H18.46105V19.68279h2.45539a9.0086,9.0086,0,0,0,2.40689-.29148,4.79647,4.79647,0,0,0,1.75859-.86628,3.69817,3.69817,0,0,0,1.07966-1.4278,4.93,4.93,0,0,0,.37009-1.976,4.03277,4.03277,0,0,0-.17407-1.21442,3.58066,3.58066,0,0,0-.4921-1.001,3.456,3.456,0,0,0-.779-.78818,4.44245,4.44245,0,0,0-1.03627-.56152,6.37807,6.37807,0,0,0-1.25781-.33538,8.92089,8.92089,0,0,0-1.44975-.11282,15.88793,15.88793,0,0,0-1.90663.11282,16.8233,16.8233,0,0,0-1.78871.31343,15.07682,15.07682,0,0,0-1.60647.46606,11.24359,11.24359,0,0,0-1.33183.56153V9.64531q.37367-.19143.83565-.37878.461-.18759.99237-.35273.5314-.1654,1.11437-.29608.58347-.13017,1.20574-.21746.62253-.0873,1.27568-.13936.65238-.05206,1.32315-.05207a13.99161,13.99161,0,0,1,3.65195.43084,7.39754,7.39754,0,0,1,2.67285,1.28385,5.45412,5.45412,0,0,1,1.64118,2.12,7.22228,7.22228,0,0,1,.55693,2.92962,6.85272,6.85272,0,0,1-.23942,1.828,6.03079,6.03079,0,0,1-.70956,1.61974,6.36431,6.36431,0,0,1-1.16184,1.36654,7.22763,7.22763,0,0,1-1.59779,1.071,8.10784,8.10784,0,0,1,2.06334,1.11028,6.65886,6.65886,0,0,1,1.46711,1.51408,6.35,6.35,0,0,1,.879,1.85507,7.53716,7.53716,0,0,1,.292,2.11132,7.80519,7.80519,0,0,1-.26136,2.045,6.52983,6.52983,0,0,1-.78358,1.79381,6.40717,6.40717,0,0,1-1.31039,1.48855,7.79093,7.79093,0,0,1-1.8367,1.13223,10.72009,10.72009,0,0,1-2.3635.72284,15.48533,15.48533,0,0,1-2.8995.25217q-1.219,0-2.29357-.095a19.79066,19.79066,0,0,1-2.01127-.27769,13.942,13.942,0,0,1-1.73256-.44514,10.03762,10.03762,0,0,1-1.44975-.60134Z" fill="#fff"/></g></g></svg>