<svg xmlns="http://www.w3.org/2000/svg" xmlns:xlink="http://www.w3.org/1999/xlink" viewBox="0 0 44 44"><defs><linearGradient id="Hintergrund_weiss" x1="2.23802" y1="22.00003" x2="41.76237" y2="22.00003" gradientUnits="userSpaceOnUse"><stop offset="0" stop-color="#fff"/></linearGradient><linearGradient id="Rahmen_schwarz" x1="2" y1="22" x2="42" y2="22" gradientUnits="userSpaceOnUse"><stop offset="0" stop-color="#010101"/></linearGradient><linearGradient id="Beschriftung_schwarz" x1="7.52324" y1="26.31562" x2="37.19805" y2="26.31562" xlink:href="#Rahmen_schwarz"/></defs><title>speedlimit_usa_can_140</title><g id="speedlimit_usa_can_140"><path id="Hintergrund_weiss-2" data-name="Hintergrund_weiss" d="M4.70709,41.76191h34.585a2.46785,2.46785,0,0,0,2.47027-2.47027V4.70843A2.46988,2.46988,0,0,0,39.2921,2.23816H4.70709A2.46988,2.46988,0,0,0,2.238,4.70843V39.29164A2.51079,2.51079,0,0,0,3.3992,41.39122a2.84065,2.84065,0,0,0,1.30789.37069Z" fill="url(#Hintergrund_weiss)"/><path id="Rahmen_schwarz-2" data-name="Rahmen_schwarz" d="M39.5,3h0a2.09694,2.09694,0,0,1,1.1.4A1.50387,1.50387,0,0,1,41,4.5v35A1.538,1.538,0,0,1,39.5,41H4.5a1.88389,1.88389,0,0,1-.8-.2A1.70937,1.70937,0,0,1,3,39.5V4.5A1.538,1.538,0,0,1,4.5,3h35m0-1H4.5A2.47572,2.47572,0,0,0,2,4.5v35a2.24512,2.24512,0,0,0,1.2,2.1,3.25851,3.25851,0,0,0,1.3.4h35A2.47572,2.47572,0,0,0,42,39.5h0V4.5A2.54,2.54,0,0,0,39.5,2Z" fill="url(#Rahmen_schwarz)" stroke-width="0.5px" stroke="url(#Rahmen_schwarz)"/><path id="Beschriftung_schwarz-2" data-name="Beschriftung_schwarz" d="M11.29863,34.67841H8.94805V20.903H7.52324V19.0036a2.3845,2.3845,0,0,0,2.02539-1.07519h1.75ZM24.77324,30.6286H23.67266v4.04981H21.24785V30.6286h-6.75V28.528l6.92481-10.59961h2.25V28.403h1.10058Zm-3.52539-2.25V22.403L17.34844,28.3786Zm10.97461,6.59961a4.01516,4.01516,0,0,1-3.77441-2.16211,13.806,13.806,0,0,1-1.2002-6.51269,13.74793,13.74793,0,0,1,1.2002-6.47461A4.01142,4.01142,0,0,1,32.22246,17.653a4.01287,4.01287,0,0,1,3.77539,2.17578,13.76,13.76,0,0,1,1.2002,6.47461,13.81808,13.81808,0,0,1-1.2002,6.51269A4.01662,4.01662,0,0,1,32.22246,34.97821Zm0-2.34961a2.01791,2.01791,0,0,0,1.97559-1.52539,14.43053,14.43053,0,0,0,.59961-4.84961,13.77007,13.77007,0,0,0-.59961-4.75,2.05034,2.05034,0,0,0-3.9502,0,13.74117,13.74117,0,0,0-.60058,4.75,14.4001,14.4001,0,0,0,.60058,4.84961A2.01608,2.01608,0,0,0,32.22246,32.6286Z" fill="url(#Beschriftung_schwarz)"/></g></svg>