<svg xmlns="http://www.w3.org/2000/svg" xmlns:xlink="http://www.w3.org/1999/xlink" viewBox="0 0 44 44"><defs><linearGradient id="Hintergrund_weiss" x1="2.29344" y1="22.00003" x2="41.70695" y2="22.00003" gradientUnits="userSpaceOnUse"><stop offset="0" stop-color="#fff"/></linearGradient><linearGradient id="Rahmen_schwarz" x1="2" y1="22" x2="42" y2="22" gradientUnits="userSpaceOnUse"><stop offset="0" stop-color="#010101"/></linearGradient><linearGradient id="Beschriftung_schwarz" x1="5.8123" y1="26.31562" x2="38.33672" y2="26.31562" xlink:href="#Rahmen_schwarz"/></defs><title>speedlimit_usa_can_250</title><g id="speedlimit_usa_can_250"><path id="Hintergrund_weiss-2" data-name="Hintergrund_weiss" d="M4.75559,41.70648h34.488A2.46093,2.46093,0,0,0,41.707,39.24314V4.75692A2.463,2.463,0,0,0,39.2436,2.29358H4.75559A2.463,2.463,0,0,0,2.29344,4.75692V39.24315a2.50377,2.50377,0,0,0,1.15792,2.09369,2.8329,2.8329,0,0,0,1.30423.36965Z" fill="url(#Hintergrund_weiss)"/><path id="Rahmen_schwarz-2" data-name="Rahmen_schwarz" d="M39.5,3h0a2.09694,2.09694,0,0,1,1.1.4A1.50387,1.50387,0,0,1,41,4.5v35A1.538,1.538,0,0,1,39.5,41H4.5a1.88389,1.88389,0,0,1-.8-.2A1.70937,1.70937,0,0,1,3,39.5V4.5A1.538,1.538,0,0,1,4.5,3h35m0-1H4.5A2.47572,2.47572,0,0,0,2,4.5v35a2.24512,2.24512,0,0,0,1.2,2.1,3.25851,3.25851,0,0,0,1.3.4h35A2.47572,2.47572,0,0,0,42,39.5h0V4.5A2.54,2.54,0,0,0,39.5,2Z" fill="url(#Rahmen_schwarz)" stroke-width="0.5px" stroke="url(#Rahmen_schwarz)"/><path id="Beschriftung_schwarz-2" data-name="Beschriftung_schwarz" d="M15.16191,34.67841H5.8123a12.35208,12.35208,0,0,1,1.29981-4.9375A14.54638,14.54638,0,0,1,10.96269,24.778,8.30832,8.30832,0,0,0,12.3748,23.3786a2.07906,2.07906,0,0,0,.48731-1.22558,2.056,2.056,0,0,0-.6875-1.46192,2.35411,2.35411,0,0,0-3.3252,0,2.26564,2.26564,0,0,0-.6875,1.66211H5.8123A4.84581,4.84581,0,0,1,7.2,19.0788,4.35912,4.35912,0,0,1,10.5125,17.653a4.69121,4.69121,0,0,1,3.28711,1.25,4.09447,4.09447,0,0,1,1.3623,3.15039,4.01287,4.01287,0,0,1-.6875,2.3125A10.31856,10.31856,0,0,1,12.8123,26.2536a21.33233,21.33233,0,0,0-2.52539,2.8125A8.806,8.806,0,0,0,8.6873,32.3288h6.47461Zm11.3252-5.97461a6.62018,6.62018,0,0,1-1.5625,4.4375,4.73241,4.73241,0,0,1-3.71192,1.83691,6.96961,6.96961,0,0,1-3.875-1l1.34961-2a4.58888,4.58888,0,0,0,2.40039.60059,3.10236,3.10236,0,0,0,2.16211-1.22559,4.01712,4.01712,0,0,0,.86231-2.6748,3.3464,3.3464,0,0,0-.64942-2.04981,2.11961,2.11961,0,0,0-1.80078-.875,2.16851,2.16851,0,0,0-1.72461,1.0752h-2.125l.125-8.90039h7.875V20.278H20.21269l-.05078,3.52539a3.90934,3.90934,0,0,1,1.72559-.375,4.17765,4.17765,0,0,1,3.34961,1.5498A5.68747,5.68747,0,0,1,26.48711,28.7038Zm6.874,6.27441a4.01517,4.01517,0,0,1-3.77441-2.16211,13.806,13.806,0,0,1-1.2002-6.51269,13.74793,13.74793,0,0,1,1.2002-6.47461A4.01143,4.01143,0,0,1,33.36113,17.653a4.01287,4.01287,0,0,1,3.77539,2.17578,13.76,13.76,0,0,1,1.2002,6.47461,13.81808,13.81808,0,0,1-1.2002,6.51269A4.01662,4.01662,0,0,1,33.36113,34.97821Zm0-2.34961a2.01791,2.01791,0,0,0,1.97559-1.52539,14.43053,14.43053,0,0,0,.59961-4.84961,13.77007,13.77007,0,0,0-.59961-4.75,2.05034,2.05034,0,0,0-3.9502,0,13.74117,13.74117,0,0,0-.60058,4.75,14.4001,14.4001,0,0,0,.60058,4.84961A2.01608,2.01608,0,0,0,33.36113,32.6286Z" fill="url(#Beschriftung_schwarz)"/></g></svg>