<svg xmlns="http://www.w3.org/2000/svg" xmlns:xlink="http://www.w3.org/1999/xlink" viewBox="0 0 44 44"><defs><linearGradient id="Hintergrund_weiss" x1="2.23802" y1="22.00003" x2="41.76237" y2="22.00003" gradientUnits="userSpaceOnUse"><stop offset="0" stop-color="#fff"/></linearGradient><linearGradient id="Rahmen_schwarz" x1="2" y1="22" x2="42" y2="22" gradientUnits="userSpaceOnUse"><stop offset="0" stop-color="#010101"/></linearGradient><linearGradient id="Beschriftung_schwarz" x1="7.53105" y1="26.31562" x2="37.20586" y2="26.31562" xlink:href="#Rahmen_schwarz"/></defs><title>speedlimit_usa_can_35</title><g id="speedlimit_usa_can_35"><path id="Hintergrund_weiss-2" data-name="Hintergrund_weiss" d="M4.70709,41.76191h34.585a2.46785,2.46785,0,0,0,2.47027-2.47027V4.70843A2.46988,2.46988,0,0,0,39.2921,2.23816H4.70709A2.46988,2.46988,0,0,0,2.238,4.70843V39.29164A2.51079,2.51079,0,0,0,3.3992,41.39122a2.84065,2.84065,0,0,0,1.30789.37069Z" fill="url(#Hintergrund_weiss)"/><path id="Rahmen_schwarz-2" data-name="Rahmen_schwarz" d="M39.5,3h0a2.09694,2.09694,0,0,1,1.1.4A1.50387,1.50387,0,0,1,41,4.5v35A1.538,1.538,0,0,1,39.5,41H4.5a1.88389,1.88389,0,0,1-.8-.2A1.70937,1.70937,0,0,1,3,39.5V4.5A1.538,1.538,0,0,1,4.5,3h35m0-1H4.5A2.47572,2.47572,0,0,0,2,4.5v35a2.24512,2.24512,0,0,0,1.2,2.1,3.25851,3.25851,0,0,0,1.3.4h35A2.47572,2.47572,0,0,0,42,39.5h0V4.5A2.54,2.54,0,0,0,39.5,2Z" fill="url(#Rahmen_schwarz)" stroke-width="0.5px" stroke="url(#Rahmen_schwarz)"/><path id="Beschriftung_schwarz-2" data-name="Beschriftung_schwarz" d="M20.90605,29.4538a4.94441,4.94441,0,0,1-1.90039,3.9248,7.08518,7.08518,0,0,1-4.72461,1.59961,8.98406,8.98406,0,0,1-6.75-2.9248l2.25-2.25a6.55941,6.55941,0,0,0,4.67481,2.125,4.40777,4.40777,0,0,0,2.51269-.65039,1.97131,1.97131,0,0,0,.96289-1.69922,2.2793,2.2793,0,0,0-.90039-1.85059,3.35466,3.35466,0,0,0-1.84961-.6748H14.15605v-3h.92481a2.275,2.275,0,0,0,1.38769-.47461,1.42142,1.42142,0,0,0,.6377-1.17578,1.46928,1.46928,0,0,0-.8252-1.27442,4.0551,4.0551,0,0,0-2.125-.5,5.70333,5.70333,0,0,0-3.7998,1.39942L8.33086,20.0036a8.23535,8.23535,0,0,1,6-2.35058,6.45759,6.45759,0,0,1,4.1748,1.32519,4.14338,4.14338,0,0,1,1.65039,3.375,3.57666,3.57666,0,0,1-1.40039,3.125A4.4072,4.4072,0,0,1,20.90605,29.4538Zm16.29981-.52539a5.49341,5.49341,0,0,1-1.97461,4.33789,7.47032,7.47032,0,0,1-5.0752,1.71191,12.20481,12.20481,0,0,1-6.45019-1.875l1.57519-2.52441a10.12073,10.12073,0,0,0,4.875,1.375,4.6914,4.6914,0,0,0,3.04981-.86328,2.689,2.689,0,0,0,1.125-2.1875,2.54228,2.54228,0,0,0-1.02442-2.21192,4.49684,4.49684,0,0,0-2.77539-.8623,9.64276,9.64276,0,0,0-3.59961.77441l-2.60058-.75.4248-7.9248H35.93144V20.903h-8.375l-.15039,2.45019a11.778,11.778,0,0,1,3.22461-.47461,6.68741,6.68741,0,0,1,4.72559,1.71192A5.65641,5.65641,0,0,1,37.20586,28.92841Z" fill="url(#Beschriftung_schwarz)"/></g></svg>