<svg xmlns="http://www.w3.org/2000/svg" xmlns:xlink="http://www.w3.org/1999/xlink" viewBox="0 0 44 44"><defs><linearGradient id="Hintergrund_weiss" x1="2.23802" y1="22.00003" x2="41.76237" y2="22.00003" gradientUnits="userSpaceOnUse"><stop offset="0" stop-color="#fff"/></linearGradient><linearGradient id="Rahmen_schwarz" x1="2" y1="22" x2="42" y2="22" gradientUnits="userSpaceOnUse"><stop offset="0" stop-color="#010101"/></linearGradient><linearGradient id="Beschriftung_schwarz" x1="7.51348" y1="26.45012" x2="37.21269" y2="26.45012" xlink:href="#Rahmen_schwarz"/></defs><title>speedlimit_usa_can_45</title><g id="speedlimit_usa_can_45"><path id="Hintergrund_weiss-2" data-name="Hintergrund_weiss" d="M4.70709,41.76191h34.585a2.46785,2.46785,0,0,0,2.47027-2.47027V4.70843A2.46988,2.46988,0,0,0,39.2921,2.23816H4.70709A2.46988,2.46988,0,0,0,2.238,4.70843V39.29164A2.51079,2.51079,0,0,0,3.3992,41.39122a2.84065,2.84065,0,0,0,1.30789.37069Z" fill="url(#Hintergrund_weiss)"/><path id="Rahmen_schwarz-2" data-name="Rahmen_schwarz" d="M39.5,3h0a2.09694,2.09694,0,0,1,1.1.4A1.50387,1.50387,0,0,1,41,4.5v35A1.538,1.538,0,0,1,39.5,41H4.5a1.88389,1.88389,0,0,1-.8-.2A1.70937,1.70937,0,0,1,3,39.5V4.5A1.538,1.538,0,0,1,4.5,3h35m0-1H4.5A2.47572,2.47572,0,0,0,2,4.5v35a2.24512,2.24512,0,0,0,1.2,2.1,3.25851,3.25851,0,0,0,1.3.4h35A2.47572,2.47572,0,0,0,42,39.5h0V4.5A2.54,2.54,0,0,0,39.5,2Z" fill="url(#Rahmen_schwarz)" stroke-width="0.5px" stroke="url(#Rahmen_schwarz)"/><path id="Beschriftung_schwarz-2" data-name="Beschriftung_schwarz" d="M22.81328,31.27482H20.33769v3.40039H17.38848V31.27482h-9.875V28.6l9.97461-10.67481h2.8496V28.5756h2.47559Zm-5.4248-2.69922V22.12541L11.36309,28.5756Zm19.82421.34961a5.49344,5.49344,0,0,1-1.9746,4.33789,7.47029,7.47029,0,0,1-5.0752,1.71192,12.20486,12.20486,0,0,1-6.4502-1.875l1.5752-2.52442a10.12056,10.12056,0,0,0,4.875,1.375,4.69133,4.69133,0,0,0,3.0498-.86328,2.689,2.689,0,0,0,1.125-2.1875,2.54225,2.54225,0,0,0-1.02441-2.21191,4.49688,4.49688,0,0,0-2.77539-.86231A9.64293,9.64293,0,0,0,26.93828,26.6l-2.60059-.75.42481-7.92481H35.93828v2.97461h-8.375L27.41289,23.35a11.77723,11.77723,0,0,1,3.22461-.47461,6.68746,6.68746,0,0,1,4.72559,1.71191A5.65644,5.65644,0,0,1,37.21269,28.92521Z" fill="url(#Beschriftung_schwarz)"/></g></svg>