<svg xmlns="http://www.w3.org/2000/svg" xmlns:xlink="http://www.w3.org/1999/xlink" viewBox="0 0 44 44"><defs><linearGradient id="Hintergrund_weiss" x1="2.23802" y1="22.00003" x2="41.76237" y2="22.00003" gradientUnits="userSpaceOnUse"><stop offset="0" stop-color="#fff"/></linearGradient><linearGradient id="Rahmen_schwarz" x1="2" y1="22" x2="42" y2="22" gradientUnits="userSpaceOnUse"><stop offset="0" stop-color="#010101"/></linearGradient><linearGradient id="Beschriftung_schwarz" x1="7.53203" y1="26.31178" x2="37.20684" y2="26.31178" xlink:href="#Rahmen_schwarz"/></defs><title>speedlimit_usa_can_120</title><g id="speedlimit_usa_can_120"><path id="Hintergrund_weiss-2" data-name="Hintergrund_weiss" d="M4.70709,41.76191h34.585a2.46785,2.46785,0,0,0,2.47027-2.47027V4.70843A2.46988,2.46988,0,0,0,39.2921,2.23816H4.70709A2.46988,2.46988,0,0,0,2.238,4.70843V39.29164A2.51079,2.51079,0,0,0,3.3992,41.39122a2.84065,2.84065,0,0,0,1.30789.37069Z" fill="url(#Hintergrund_weiss)"/><path id="Rahmen_schwarz-2" data-name="Rahmen_schwarz" d="M39.5,3h0a2.09694,2.09694,0,0,1,1.1.4A1.50387,1.50387,0,0,1,41,4.5v35A1.538,1.538,0,0,1,39.5,41H4.5a1.88389,1.88389,0,0,1-.8-.2A1.70937,1.70937,0,0,1,3,39.5V4.5A1.538,1.538,0,0,1,4.5,3h35m0-1H4.5A2.47572,2.47572,0,0,0,2,4.5v35a2.24512,2.24512,0,0,0,1.2,2.1,3.25851,3.25851,0,0,0,1.3.4h35A2.47572,2.47572,0,0,0,42,39.5h0V4.5A2.54,2.54,0,0,0,39.5,2Z" fill="url(#Rahmen_schwarz)" stroke-width="0.5px" stroke="url(#Rahmen_schwarz)"/><path id="Beschriftung_schwarz-2" data-name="Beschriftung_schwarz" d="M11.30742,34.67408H8.95684V20.89869H7.532V19.00026a2.38537,2.38537,0,0,0,2.02539-1.07618h1.75Zm13.07422,0H15.032a12.35594,12.35594,0,0,1,1.29981-4.9375,14.54635,14.54635,0,0,1,3.85058-4.96289,8.30786,8.30786,0,0,0,1.41211-1.39843,2.0793,2.0793,0,0,0,.48731-1.22657,2.05235,2.05235,0,0,0-.6875-1.46093,2.3501,2.3501,0,0,0-4.0127,1.66211H15.032a4.84613,4.84613,0,0,1,1.3877-3.27539,4.36254,4.36254,0,0,1,3.3125-1.42579,4.6956,4.6956,0,0,1,3.28711,1.25,4.09593,4.09593,0,0,1,1.3623,3.15039,4.01072,4.01072,0,0,1-.6875,2.3125A10.32426,10.32426,0,0,1,22.032,26.25026a21.33035,21.33035,0,0,0-2.52539,2.8125A8.80188,8.80188,0,0,0,17.907,32.32448h6.47461Zm7.84961.30079a4.01518,4.01518,0,0,1-3.77441-2.16211,13.81039,13.81039,0,0,1-1.2002-6.51368,13.75043,13.75043,0,0,1,1.2002-6.4746,4.01309,4.01309,0,0,1,3.77441-2.17579,4.01454,4.01454,0,0,1,3.77539,2.17579,13.76278,13.76278,0,0,1,1.2002,6.4746,13.82272,13.82272,0,0,1-1.2002,6.51368A4.01664,4.01664,0,0,1,32.23125,34.97487Zm0-2.34961a2.02015,2.02015,0,0,0,1.97559-1.52539,14.43452,14.43452,0,0,0,.5996-4.84961,13.76632,13.76632,0,0,0-.5996-4.75,2.05034,2.05034,0,0,0-3.9502,0,13.73733,13.73733,0,0,0-.60059,4.75,14.404,14.404,0,0,0,.60059,4.84961A2.01829,2.01829,0,0,0,32.23125,32.62526Z" fill="url(#Beschriftung_schwarz)"/></g></svg>