<svg xmlns="http://www.w3.org/2000/svg" xmlns:xlink="http://www.w3.org/1999/xlink" viewBox="0 0 44 44"><defs><linearGradient id="Hintergrund_weiss" x1="2.23802" y1="22.00003" x2="41.76237" y2="22.00003" gradientUnits="userSpaceOnUse"><stop offset="0" stop-color="#fff"/></linearGradient><linearGradient id="Rahmen_schwarz" x1="2" y1="22" x2="42" y2="22" gradientUnits="userSpaceOnUse"><stop offset="0" stop-color="#010101"/></linearGradient><linearGradient id="Beschriftung_schwarz" x1="9.65703" y1="26.31376" x2="36.03203" y2="26.31376" xlink:href="#Rahmen_schwarz"/></defs><title>speedlimit_usa_can_110</title><g id="speedlimit_usa_can_110"><path id="Hintergrund_weiss-2" data-name="Hintergrund_weiss" d="M4.70709,41.76191h34.585a2.46785,2.46785,0,0,0,2.47027-2.47027V4.70843A2.46988,2.46988,0,0,0,39.2921,2.23816H4.70709A2.46988,2.46988,0,0,0,2.238,4.70843V39.29164A2.51079,2.51079,0,0,0,3.3992,41.39122a2.84065,2.84065,0,0,0,1.30789.37069Z" fill="url(#Hintergrund_weiss)"/><path id="Rahmen_schwarz-2" data-name="Rahmen_schwarz" d="M39.5,3h0a2.09694,2.09694,0,0,1,1.1.4A1.50387,1.50387,0,0,1,41,4.5v35A1.538,1.538,0,0,1,39.5,41H4.5a1.88389,1.88389,0,0,1-.8-.2A1.70937,1.70937,0,0,1,3,39.5V4.5A1.538,1.538,0,0,1,4.5,3h35m0-1H4.5A2.47572,2.47572,0,0,0,2,4.5v35a2.24512,2.24512,0,0,0,1.2,2.1,3.25851,3.25851,0,0,0,1.3.4h35A2.47572,2.47572,0,0,0,42,39.5h0V4.5A2.54,2.54,0,0,0,39.5,2Z" fill="url(#Rahmen_schwarz)" stroke-width="0.5px" stroke="url(#Rahmen_schwarz)"/><path id="Beschriftung_schwarz-2" data-name="Beschriftung_schwarz" d="M13.43242,34.67655H11.08184V20.90116H9.657V19.00174a2.3845,2.3845,0,0,0,2.02539-1.07519h1.75Zm8.625,0H19.70684V20.90116H18.282V19.00174a2.3845,2.3845,0,0,0,2.02539-1.07519h1.75Zm8.999.2998A4.01518,4.01518,0,0,1,27.282,32.81424a13.806,13.806,0,0,1-1.20019-6.51269A13.74794,13.74794,0,0,1,27.282,19.82694a4.01144,4.01144,0,0,1,3.77441-2.17578,4.01289,4.01289,0,0,1,3.7754,2.17578A13.76017,13.76017,0,0,1,36.032,26.30155a13.81822,13.81822,0,0,1-1.20019,6.51269A4.01664,4.01664,0,0,1,31.05644,34.97635Zm0-2.34961A2.0179,2.0179,0,0,0,33.032,31.10135a14.43053,14.43053,0,0,0,.59961-4.84961,13.77007,13.77007,0,0,0-.59961-4.75,2.05033,2.05033,0,0,0-3.95019,0,13.74087,13.74087,0,0,0-.60059,4.75,14.39979,14.39979,0,0,0,.60059,4.84961A2.01606,2.01606,0,0,0,31.05644,32.62674Z" fill="url(#Beschriftung_schwarz)"/></g></svg>