<?xml version="1.0" encoding="UTF-8"?>
<svg id="Ebene_1" data-name="Ebene 1" xmlns="http://www.w3.org/2000/svg" viewBox="0 0 44 44">
  <defs>
    <style>
      .cls-1 {
        fill: #fff;
      }

      .cls-2 {
        fill: #c0111e;
      }
    </style>
  </defs>
  <path class="cls-1" d="M13.7,42L2,30.3V13.7L13.7,2H30.3l11.7,11.7V30.3l-11.7,11.7H13.7Z"/>
  <path class="cls-1" d="M30.2,2.32H13.9L2.4,13.82V30.12l11.5,11.5H30.2l11.5-11.5V13.82L30.2,2.32Zm10.2,27.3l-10.8,10.8H14.4L3.6,29.62V14.42L14.4,3.62h15.2l10.8,10.8v15.2Z"/>
  <polygon class="cls-2" points="14.40002 3.62 3.59998 14.41999 3.59998 29.62 14.40002 40.41999 29.59998 40.41999 40.40002 29.62 40.40002 14.41999 29.59998 3.62 14.40002 3.62"/>
  <path class="cls-1" d="M13.1,20.6c-.58336,1.05878-1.23125,2.08071-1.94,3.06-.37978-1.1833-.82377-2.34503-1.33-3.48,2.42106-3.63911,4.20645-7.663,5.28-11.9l3.2,1.28c-.11466,.26049-.40517,.39504-.678,.314-.557,1.74-1.19,3.51-1.89,5.23l.823,.314c-.08006,.28249-.33544,.4794-.629,.485v19.3h-2.83v-14.5l-.006-.103Zm3.87,1.23h16.4v5.54h-2.66v-2.91h-11.2v2.94h-2.54v-5.57Zm.581-11.2h6.12v-2.48l3.56,.228c-.0242,.314-.194,.457-.629,.571v1.68h6.44v2.91h-15.5v-2.91l.009,.001Zm13.9,10.1h-12.3v-6.11h12.3v6.11Zm-11.1,7.62v-2.71h9.66v2.71h-3.41v3.34c0,3.11-1.28,3.4-6.12,3.4-.17564-1.07101-.48472-2.1158-.92-3.11,.896,.0571,1.91,.0857,2.64,.0857,1.33,0,1.5-.0286,1.5-.485v-3.23h-3.34l-.01-.0007Zm1.55-11.5v1.57h6.63v-1.57h-6.63Z"/>
</svg>