<svg xmlns="http://www.w3.org/2000/svg" viewBox="0 0 40 40"><g id="t11_1p64"><rect y="7" width="40" height="26" fill="#ffd520" /><path d="M0,33H40V7Z" fill="#ff4e12" /><path d="M28.65869,24.15a1.22455,1.22455,0,1,0,1.22461,1.22461A1.22467,1.22467,0,0,0,28.65869,24.15Z" fill="#e0dfde" stroke="#000" stroke-miterlimit="10" stroke-width="0.025" /><path d="M32.29,15.4118c.01465-.372-.38349-.70831-.6698-.48651.26483-.03576.49335.45789-.02887.65821a.46828.46828,0,0,0-.653-.54371c.24671.07154.49616.48517-.05572.64393a1.058,1.058,0,0,1-.352.02606c-.01355-.47345.59363-.89569.08234-1.45929.00579-.02558.02447-.04169.02734-.06909.08594-.81568.61536-.70118.458-1.08753s-.4726-.31457-.71595-.20007a2.56029,2.56029,0,0,0-1.28759-.25775c-.093-.37207-.36481-.65863-.70093-.56531a.29312.29312,0,0,0-.17151.135,1.02129,1.02129,0,0,0-1.24005-.1557c-.37317-.5307-.98883-.40344-1.27887-.70227-.472-.48651-1.66681-.93726-2.16058-.601,1.08746-.05726,1.55059.74957,2.13208,1.03027.16088.07764.32916.18628.50445.28607l-.00348.00049a1.79,1.79,0,0,1-.4013.0639c-.58692-.70831-1.45435-1.31775-1.8595-1.0802.5437.02863.71539.40784,1.10187.65106.22412.14112.26251.316.368.41761a1.59218,1.59218,0,0,0-.944.0664c-.55957-.55554-.9234-.44268-1.35608-.68414-.447-.24951-1.15906-.30048-1.297.09631a1.56763,1.56763,0,0,1,1.348.14167c-.248.08014-.43359.31219-.394.77075-1.20209-.48651-2.06525-.32233-2.2467.15741-.20038.52948.54394.82281.6726.48651-.13592.05725-.60095-.10016-.35778-.40064.23419-.28918,1.39764-.08728,2.54187.47956a1.48794,1.48794,0,0,0-.45069.1969,2.17339,2.17339,0,0,0-2.249.39679,5.73213,5.73213,0,0,0,.93524.07006,4.13149,4.13149,0,0,0-.42413.76447,4.33975,4.33975,0,0,0-.08154.78833,1.62164,1.62164,0,0,0-.9729.96729,1.59533,1.59533,0,0,1,.86071-.45618.859.859,0,0,0-.10254.29846c-.05.39349-.60815.52222-.30041,1.11609a.661.661,0,0,1,.515-.601,1.03733,1.03733,0,0,0,.44733-.12158,4.19216,4.19216,0,0,0,.80988,1.45837c-.03388.041-.76331.05145-.935.42346.2326-.10016.46924.11347.57947.186a.75635.75635,0,0,0,.66412.04907.57834.57834,0,0,0-.04883.22247.72023.72023,0,0,0,.16022.34747.65181.65181,0,0,0-.29614-.01824c-.20038.05011-.58319-.00715-.67261-.22181-.07147.17176.04059.49378.0072.57135l-.01807-.006a3.71438,3.71438,0,0,0-1.55627-.691.29059.29059,0,0,0-.14288-.32507c-.29334-.14313-.18592-.51514-.372-.58667-.18592-.0716-.36481-.20038-.37207-.32916a.35912.35912,0,0,0,.0932.45794c.06268.05579.04.1955.01983.33747a6.57969,6.57969,0,0,0-1.71264-.1756.62141.62141,0,0,0-.43939-.441c-.25086-.04773-.54731-.04651-.64392-.29334-.0608.21466.10021.35059.28619.47223.12.07849.07849.23664.10876.38751-.142-.13116-1.27191.36182-1.41107.51423-.10705.11724-.66577.15173-.84411.29309-.37922.30047-.74775.12878-.75843.42926.229-.17524.42926.03576.6153-.02857.08111-.02807.157.02613.25476.08148a5.66979,5.66979,0,0,0-.527,1.58905c-.5271.11664-.90747.86878-1.50915.69776.2611.415.8941.00073,1.13037.043.02935.00525-.10291.24157-.14307.52948-.023.165-.79907,1.40692-1.13025,1.302.05908.14349.23853.61151-.00714.5296.01.12512-.348.47443-.57965.38611,0,.11658-1.004.23877-1.12689.4903.23968-.01795.4436.068.49011.20391-.35773-.22186-.92291.11444-1.252-.09295-.79724-.50263-.95874-.10022-1.35937-.31482s-.79065-.03577-.80133.18591c.372-.30041.6701.28961,1.04455.21466.85853-.17169,1.10175.4187,1.72425.42218a2.17567,2.17567,0,0,0-1.48108.19318c-.50079.29162-1.30213.05017-1.345.47223.34344-.18616.72973.07867,1.03027-.07874a1.03567,1.03567,0,0,1,.77271-.13592c-.53656.64392-1.016.21466-1.574.72985-.35687.32941-.80835.1211-1.11609.44349a1.20933,1.20933,0,0,1-.7727.47223c.49365.31481.9765-.39539,1.41662-.3863a1.75868,1.75868,0,0,0,1.01593-.30053c-.25757.60815-1.01593.30053-1.68847.98724a2.26121,2.26121,0,0,1-1.40235.91589c.322.36481,1.21631-.47943,1.93891-.48651.94476-.00946.99444-.80127,1.46667-.75848.47223.043.6582-.57227,1.04456-.57227s.54376-.67981.84423-.57238c-.415.18591-.415.787-.94439.887.56518.2218.80133-.57221,1.45953-.61517a1.04214,1.04214,0,0,0,.22742-.04462c-.47351.66052-.91315.39355-1.02881.91742.601-.48645,1.073-.16333,1.43091-.64392.54376-.7298.99151-.625,1.202-1.11609.231-.53906,1.05786-.65979,1.46253-1.18537a.4625.4625,0,0,0,.08294.19825v.00006c.04187.07782.25995.11291.4195.03253a1.41244,1.41244,0,0,1-.0874.62592.74561.74561,0,0,0-.53247-.01484c-.14307.08576.47216.4137.10015.42926-.17169.007-.11444.422-.47222.45075.14666.17889.56524.06073.71545-.13593-.02856.16095.186.30762.10022.50074.25568.02777.13135-.488.49915-.49823l.00781.00952c-.12244.05884.15051.57831.33722.53167a2.04357,2.04357,0,0,0-.1.63715.8219.8219,0,0,0-.7727,1.12311c-.03577.19317.78076,1.76031,1.39544,1.76031a1.11306,1.11306,0,0,0,1.113-1.113,3.1386,3.1386,0,0,0,.12439-.30384,1.83763,1.83763,0,0,0-.24329-1.2807.37779.37779,0,0,0,.36493-.07147c.05719.12872.68787.45.70124.68689a2.82129,2.82129,0,0,1,.007.49347.99824.99824,0,0,0,.08594-1.07312c.01428-.37207-.17187-.67261-.54376-.64392-.17175-.2146-.89081-.13947-1.02679-.11444a1.18107,1.18107,0,0,0-.61884-.973,2.7709,2.7709,0,0,1,.09546-1.34577.776.776,0,0,0,.53406.10773c.11444.30042.47931.29333.63672.45782s.87127.0644.99481.0644a.95875.95875,0,0,0,.95874-.95868,1.437,1.437,0,0,0-.40088-.78705.52414.52414,0,0,0-.71558-.56519,2.42264,2.42264,0,0,0-1.00879.25757,1.73157,1.73157,0,0,0,.37921-.73694c.1717.02863.4292-.08581.54365-.05719a.905.905,0,0,0-.80835-.30767.53021.53021,0,0,0-.508.49371.61074.61074,0,0,0-.186.63672c-.111-.00354-.432.10327-.528.08349-.04492-.1242-.17291-.42773-.181-.44568-.04767-.1751.17188-1.25152.12695-1.31054a2.56586,2.56586,0,0,0,.58155-.711,3.578,3.578,0,0,0,1.23559-.23486,20.32673,20.32673,0,0,0,3.60175.95172c.08081.00323.99225.13733,1.17816.14911-.09345.18023-.14343.37121-.01935.50915l-.00232.00763c-.29242-.18426-.43335.12567-.59143.00269-.16095-.12519-.37555-.14307-.45776-.01789.30053.01075.15368.24329.73681.30054-.58313.03931-.4757.69043-.86572.6582.415.3935.62964-.35058.96588-.22894-.10016.02863.15741.26471-.02148.57953.24017-.00592.3584-.27753.41369-.49a24.33326,24.33326,0,0,0,3.457,1.24872c-.33624.22894.143,1.431.45783,1.44525.08594.38629.70129.48651,1.01593.38629-.64392-.2146-.3291-.5437-.70111-.60089.05719-.17169-.29791-1.33583.71557-1.77435.17164.17169.93.08581,1.13038.01428.08587.12878.30053.1145.35772.42926a.65716.65716,0,0,0-.24328-.85858c-.08576-.229-.81562-.3255-.95874-.20026-.03748-.06567-.12879-.04565-.23249-.00378.18579-.099.32447-.2464.24677-.46845.38647.04291.372-.4436.83-.31482a.80675.80675,0,0,0-1.03016-.08581c-.30059-.10022-1.35943.87286-1.45965,1.07318a6.699,6.699,0,0,0-2.18921-.68683.79943.79943,0,0,1,.2146-.74414c.31482-.3291.2417-.421.48651-.74408a3.39985,3.39985,0,0,0,.58948-2.2937.85636.85636,0,0,1,.94513-.14832.49835.49835,0,0,1-.2967.646.48833.48833,0,0,0,.63666-.25751c-.23608.52222-.07867.99445.29334,1.08746-.1789-.36486.22186-.53662.09314-.7727a.79618.79618,0,0,1,.43634.62244c.28064-.31318-.13581-.72046-.13617-1.03412a1.38377,1.38377,0,0,0,.87323-.1676c.515-.35773.75836-.54377.98724-.50086a.81269.81269,0,0,0,.63684.4007.7837.7837,0,0,0,.5152.13592.747.747,0,0,0,.72961-.25757.76034.76034,0,0,0,.78705-.59381c.36481-.04291.38629-.45074.15741-.72259-.19079-.03821-.08581-.60993-.607-.63684a.98.98,0,0,0-1.95667.04058.786.786,0,0,1-.00488-.09771,2.56636,2.56636,0,0,0-.40051.62958c-.27191-.186-.94446.08581-1.25928.15734a2.77722,2.77722,0,0,1-1.617-.35766,2.73169,2.73169,0,0,0-1.15888-.54376c-.37787-.10968-.524-.40754-.74011-.72706.28363.0575.52344.14612.697-.08856a.88435.88435,0,0,1,.93-.35772,1.023,1.023,0,0,0,.7876-.02515,1.546,1.546,0,0,1,1.10107.683.58056.58056,0,0,0,.1872.1499c-.23285.08985-.30585.43873-.5733.45142a.58093.58093,0,0,0,.7373-.1618.404.404,0,0,0,.22156.57641c-.16522-.22784.1004-.36859.20831-.53521.0813.17407.31281.267.21344.48553.302-.06866.35217-.60931.10352-.79279l.00384-.00177c.22888-.22894.10016-.71551-.47223-.558-.14313-.24329-.5581-.15741-.75836-.35779a1.54948,1.54948,0,0,0-.56494-.351c.04071-.06561.08026-.13678.11969-.21277a14.789,14.789,0,0,1,2.03363.71411,1.55636,1.55636,0,0,1-.01428.973,1.02074,1.02074,0,0,0,.28595-.89672,2.53693,2.53693,0,0,0,1.45251.03125c.6095-.1717,1.78467-.32911,1.72669.42926C33.50909,15.89117,33.1026,15.4834,32.29,15.4118Zm-12.1142,3.65314-.00458-.00165.00653-.00866ZM22.17,17.2403l.00562-.00544.00116.00135Zm-.29956-3.32258a.34983.34983,0,0,0-.03692-.02752,2.99591,2.99591,0,0,0,.884-.14911.30821.30821,0,0,0,.09308.16022A5.43311,5.43311,0,0,0,21.87048,13.91772Zm2.50232,1.065a1.11654,1.11654,0,0,1,.10443-.18476,1.98925,1.98925,0,0,0,.72565.15619c-.20581.19647-.54578.14508-.86877.22791A1.4768,1.4768,0,0,1,24.3728,14.98267Zm-.3844-2.4505a.44088.44088,0,0,0-.33514.13793c-.37671-.25854-.73822-.60766-.10211-.79882a1.45649,1.45649,0,0,1,.66833.45044A1.85067,1.85067,0,0,0,23.9884,12.53217Zm1.24317,3.29473c-.36841.02381-.33576.11029-.54145.18811a1.99,1.99,0,0,0-.37976-.39782,1.47911,1.47911,0,0,1-.01641-.22657,4.85076,4.85076,0,0,0,1.55279-.06451C25.56067,15.38336,25.67511,15.79834,25.23157,15.8269Zm4.47369-.3728c-.018-.01013-.03857-.01733-.056-.028a7.298,7.298,0,0,0-1.82367-.6518l.01007-.02063a.82623.82623,0,0,1,.7417-.5393.66733.66733,0,0,1,.04535.46038,1.28378,1.28378,0,0,0,.36755-.39044,1.98523,1.98523,0,0,1,.29639.12335.27273.27273,0,0,1-.12006.37433.933.933,0,0,0,.55463-.13488.83347.83347,0,0,0,.27673.0625C29.96674,15.09741,29.702,15.06305,29.70526,15.4541Zm.32123.14618a.4296.4296,0,0,1,.07-.20294,1.70757,1.70757,0,0,0,.27911-.50079,1.18733,1.18733,0,0,0,.01508.79589A1.9361,1.9361,0,0,1,30.02649,15.60028Z" fill="#e0dfde" stroke="#000" stroke-miterlimit="10" stroke-width="0.025" /><path d="M28.22222,12.20578a.70189.70189,0,0,0-.07537.45529" fill="none" stroke="#000" stroke-width="0.02315" /><path d="M29.10222,12.636c-.18241-.2325-.60093-.3112-.60813.18246" fill="none" stroke="#000" stroke-width="0.02315" /><path d="M28.444,13.38a.5565.5565,0,0,0-.88018-.28619.45237.45237,0,0,0,.22908.76556A1.74916,1.74916,0,0,1,28.444,13.38Z" fill="none" stroke="#000" stroke-width="0.02315" /><path d="M28.24711,13.10089c-.25759-.229-.63684.20392-.29333.601" fill="none" stroke="#000" stroke-width="0.02315" /><path d="M29.10222,12.636c-.15741-.16813-.50076-.03578-.40426.30409A.53291.53291,0,0,1,29.10222,12.636Z" /><path d="M28.12933,13.55244a1.17441,1.17441,0,0,1,.31445-.17252.69074.69074,0,0,0-.21148-.29042c-.08186-.05654-.317.25974-.103.46293Z" /><path d="M28.146,12.6648a2.20525,2.20525,0,0,1,.54919.28031" fill="none" stroke="#000" stroke-width="0.02315" /></g></svg>