<svg xmlns="http://www.w3.org/2000/svg" viewBox="0 0 40 40"><g id="EA45_flag_honduras"><rect y="7" width="40" height="26" fill="#0073cf" /><rect y="15.66667" width="40" height="8.66667" fill="#fff" /><polygon points="20.256 19.653 20 18.864 19.744 19.653 18.914 19.653 19.585 20.141 19.329 20.929 20 20.442 20.671 20.929 20.415 20.141 21.086 19.653 20.256 19.653" fill="#0073cf" /><polygon points="25.293 18.314 25.036 19.103 25.707 18.616 26.378 19.103 26.122 18.314 26.793 17.827 25.964 17.827 25.707 17.038 25.451 17.827 24.622 17.827 25.293 18.314" fill="#0073cf" /><polygon points="25.964 21.251 25.707 20.463 25.451 21.251 24.622 21.251 25.293 21.739 25.036 22.527 25.707 22.04 26.378 22.527 26.122 21.739 26.793 21.251 25.964 21.251" fill="#0073cf" /><polygon points="14.293 17.038 14.036 17.827 13.207 17.827 13.878 18.314 13.622 19.103 14.293 18.616 14.964 19.103 14.707 18.314 15.378 17.827 14.549 17.827 14.293 17.038" fill="#0073cf" /><polygon points="14.549 21.251 14.293 20.463 14.036 21.251 13.207 21.251 13.878 21.739 13.622 22.527 14.293 22.04 14.964 22.527 14.707 21.739 15.378 21.251 14.549 21.251" fill="#0073cf" /></g></svg>