<?xml version="1.0" encoding="UTF-8"?>
<svg id="Ebene_1" data-name="Ebene 1" xmlns="http://www.w3.org/2000/svg" viewBox="0 0 44 44">
  <defs>
    <style>
      .cls-1 {
        fill: #00f300;
      }

      .cls-2 {
        fill: #fff;
      }

      .cls-3 {
        fill: #010101;
      }
    </style>
  </defs>
  <path class="cls-1" d="M13.7,42.00072L2,30.30072V13.70072L13.7,2.00072H30.3l11.7,11.7V30.30072l-11.7,11.7H13.7Z"/>
  <path class="cls-1" d="M30.2,2.32072H13.9L2.4,13.82072V30.12072l11.5,11.5H30.2l11.5-11.5V13.82072L30.2,2.32072Zm10.2,27.3l-10.8,10.8H14.4L3.6,29.62072V14.42072L14.4,3.62072h15.2l10.8,10.8s0,15.2,0,15.2Z"/>
  <polygon points="14.40002 3.62072 3.59998 14.42071 3.59998 29.62072 14.40002 40.42071 29.59998 40.42071 40.40002 29.62072 40.40002 14.42071 29.59998 3.62072 14.40002 3.62072"/>
  <path class="cls-1" d="M13.1,20.60072c-.58336,1.05878-1.23125,2.08071-1.94,3.06-.37978-1.1833-.82377-2.34503-1.33-3.48,2.42106-3.63911,4.20645-7.663,5.28-11.9l3.2,1.28c-.11466,.26049-.40517,.39504-.678,.314-.557,1.74-1.19,3.51-1.89,5.23l.823,.314c-.08006,.28249-.33544,.4794-.629,.485v19.3h-2.83v-14.5s-.006-.103-.006-.103Zm3.87,1.23h16.4v5.54h-2.66v-2.91h-11.2v2.94h-2.54v-5.57Zm.581-11.2h6.12v-2.48l3.56,.228c-.0242,.314-.194,.457-.629,.571v1.68h6.44v2.91h-15.5v-2.91l.009,.001Zm13.9,10.1h-12.3v-6.11h12.3v6.11Zm-11.1,7.62v-2.71h9.66v2.71h-3.41v3.34c0,3.11-1.28,3.4-6.12,3.4-.17564-1.07101-.48472-2.1158-.92-3.11,.896,.0571,1.91,.0857,2.64,.0857,1.33,0,1.5-.0286,1.5-.485v-3.23h-3.34s-.01-.0007-.01-.0007Zm1.55-11.5v1.57h6.63v-1.57s-6.63,0-6.63,0Z"/>
  <g>
    <path class="cls-2" d="M41.5,20.80096c0,1.60163-1.29837,2.9-2.9,2.9s-2.9-1.29837-2.9-2.9,1.29837-2.9,2.9-2.9c1.59935,.00549,2.89452,1.30065,2.9,2.9Zm-2.9-3.84c1.37519,0,2.49-1.11481,2.49-2.49h0V3.97096c.00058-1.37519-1.11377-2.49047-2.48896-2.49104-1.37519-.00058-2.49047,1.11377-2.49104,2.48896V14.47096c0,1.37519,1.11481,2.49,2.49,2.49h0Z"/>
    <path class="cls-3" d="M38.6,23.70096c-1.60163,0-2.9-1.29838-2.9-2.9s1.29837-2.9,2.9-2.9,2.9,1.29838,2.9,2.9c-.00549,1.59935-1.30066,2.89451-2.9,2.9Zm0-4.81c-1.04934,0-1.9,.85066-1.9,1.9s.85066,1.9,1.9,1.9,1.9-.85066,1.9-1.9-.85066-1.9-1.9-1.9h0Zm0-1.94c-1.37519,0-2.49-1.11481-2.49-2.49h0V3.96096c-.00058-1.37519,1.11377-2.49047,2.48896-2.49104,1.37519-.00058,2.49047,1.11377,2.49104,2.48896V14.46096c0,1.37519-1.11481,2.49-2.49,2.49h0Zm0-14.5c-.8229,0-1.49,.66709-1.49,1.49h0V14.44096c.00043,.8229,.66788,1.48965,1.49078,1.48922,.8223-.00043,1.48879-.66692,1.48922-1.48922V3.94096c0-.8229-.6671-1.49-1.49-1.49h0Z"/>
  </g>
</svg>