<svg xmlns="http://www.w3.org/2000/svg" viewBox="0 0 40 40"><g id="EA45_flag_kosovo"><rect y="7" width="40" height="26" fill="#244aa5" /><path d="M16.13248,19.14143a1.60764,1.60764,0,0,1,.25152.155s.07419.025.08867,0,.44695-.41833.55552-.40667c.10857.01334.12305-.025.12848-.05666.00723-.03167,0-.06334.06876-.05667s.10133.00667.10133-.03167c0-.03666.06153-.05666-.047-.08666a1.46728,1.46728,0,0,1-.418-.425c0-.03667.00724-.06834.04705-.06834s.047-.18666.047-.18666.21714-.195.23162-.22a.05362.05362,0,0,1,.09409.00666c.02715.05.143.09334.15562.06834.01448-.025.15381-.35334.19724-.35334s.08867-.155.14114-.16333.07962-.04.09772.00833.15923.105.18457.08167c.02714-.025.1719-.20167.1719-.20167s.009-.03333.07057-.03333.2461-.11833.21172-.15833c-.03619-.04-.114-.105-.07057-.155.04343-.04834.06152-.13.01809-.13834s-.10676.00834-.114-.04c-.00905-.04833-.02714-.08166.02715-.09.05247-.00833.28228-.07333.28228-.14666s.04524-.24667.00905-.28667-.14114-.18667-.19543-.20333c-.05248-.01667-.09771-.025-.09771-.065s-.03439-.22-.03439-.22a2.74088,2.74088,0,0,0-.34561-.115c-.05067,0-.10858-.05334-.05067-.08667s.01448-.22-.06514-.24-.10134-.04-.06515-.08667.04343-.08.08686-.04666a3.51012,3.51012,0,0,0,.7021-.01334,5.07753,5.07753,0,0,0,.3619-.43333.09731.09731,0,0,1,.13029-.00667,2.7218,2.7218,0,0,0,.485.09334s-.06515-.22-.00724-.26.36914.01333.36914.05333.34019.37333.34019.40667.14477.26666.04343.22-.123-.06667-.15924-.06-.21714.11333-.15923.12666.07962.02667.07962.07334-.10134.08-.152.08-.06515.04-.06515.08a.92054.92054,0,0,0,.41257.12c.03619-.02.26057.24666.29677.22666s.09409-.03333.11581-.00666.20266.19333.20266.19333.22438.07333.22438.03333.28229-.12.333-.1a2.52947,2.52947,0,0,1,.35467.3.655.655,0,0,0,.31848-.07333,1.392,1.392,0,0,1,.00723-.16667c.00724-.04.20267.22.23886.23334s.26057-.06.25334.02.08685.23333.04342.26-.0579.03333-.0579.08.14476.46666.13752.49333.12305.06.12305.11333.02172.07334-.01447.09334.19542.16666.22438.16.0579-.23334.0579-.23334.23886.07334.23886.10667.07238.02667.07238.08.0579.43333.0579.46.01448.04-.02171.06667a.072.072,0,0,0-.029.1,2.57962,2.57962,0,0,0,.26057.40666.12966.12966,0,0,1,.07962.1c0,.03334.00724.12.00724.12s.10857.06667.123.01334.05791-.06.08686-.07334a3.4042,3.4042,0,0,1,.37638.00667s.03619-.00667.05791.04667.14476.22.14476.25333.15924.06667.19543.08667.18095-.07334.18095-.07334l.26057.02667s-.01447.26666-.04343.26-.08685.11333-.08685.16,0,.04-.029.06-.03619.05333.00724.06.029.2-.02171.2-.0941-.00667-.10133.02666-.0941.4-.0941.44-.01448.04-.0579.04666-.06515.06-.01448.12667.06514.05333.10133.05333.03619-.05333.03619-.05333a2.90845,2.90845,0,0,1,.66591.04.3891.3891,0,0,0,.23162.12c.05066-.00667.47771-.06.5139-.00667s.18819.06667.20991.1.09409.08667.04343.12667-.10857.09333-.06515.10666.34743.12667.3981.08667.10133-.04.0941.01333a.52611.52611,0,0,0,.11581.31334c.06514.04.0579.06666.10857.02666s.06514-.2.06514-.2a4.013,4.013,0,0,0,.62247-.13333c.05791-.04666.05791-.03333.0941,0a.815.815,0,0,1,.13029.24667c0,.03333.02171.14666.10133.16667s.06514.06666.07962.1.01447.06-.02895.06-.13753.1-.13753.1-.19543.09334-.16647.14-.04343.21334-.07238.19334-.06515.00666-.0941.02.17371.32.17371.32a.1719.1719,0,0,0-.03619.05333c-.01447.03333-.0579.1-.01447.11333s.02171.08667-.02172.08667-.32571.03333-.35466.08667-.03619.07333-.08686.06666.0941.22667.0941.29334-.029.06-.05791.01333-.08686-.04-.09409.01333a3.39385,3.39385,0,0,1-.304.41334s-.08685.13333-.15923.14a.18419.18419,0,0,0-.13753.08666c-.02171.03334.152.28.14476.33334s-.05066.09333.00724.09333.0941.01333.07238.06-.02171.05333-.06514.07333-.13752.26-.18095.30667a.12726.12726,0,0,1-.13752.03333c-.03619-.01333-.04343-.01333-.05067-.05333s-.26057.05333-.23162.08667.01448.08666-.03619.08-.16648.05333-.20267-.00667-.13752-.1-.152-.02.04343.07333.03619.15333-.10133.29334-.05066.32a.17111.17111,0,0,1,.07238.14c0,.04,0,.08.05066.08s.0941-.00666.10134-.05333a.05915.05915,0,0,1,.11581.02,2.93477,2.93477,0,0,0,.21533.48333c-.07057.015-.08867.10667-.1339.125-.02534.01-.28953.13334-.37277.105-.04343-.015-.13571-.31833-.15019-.34-.04885-.07333-.14657,0-.17733-.02166-.04886-.03334-.02714-.09-.10133-.09667-.15019-.01-.04343.09167-.10677.115-.12123.04333-.12123-.11333-.21171-.04167-.03438.02667.05429.04334.03257.09-.01809.03834-.10676.09667-.10133.14167.00724.06167.07419.08.09409.13167.05429.13666-.03619.23166-.1719.125-.076-.06-.09048-.17167-.2081-.16334-.02714.00167-.24428.23-.29133.265-.03981.03-.16286.17834-.22076.225-.02895.02334-.04886-.07-.085-.00833-.00543.00833-.02533.05167-.01628.07167.076.14666-.08324.20166-.1321.305-.02171.04333.038.08333.01448.11666-.01629.025-.10495.15667-.11762.16834-.01267.01333-.0561.00666-.05972.02666-.00362.02334.22077.38667.22077.38834.00362.025-.11038.07666-.13572.07666-.06876.00167.05972-.14166-.05247-.14166-.04886,0-.05248.11166-.06515.12333-.00543.005-.18095.09-.2099.09833a3.88026,3.88026,0,0,1-.41981-.01333c-.02353-.015.01628-.05667-.038-.08667-.00724-.00333-.00724-.23666-.01629-.30333-.01085-.06833-.11762-.12667-.14657-.18167-.02171-.04166-.17009-.26833-.19362-.31333a1.25067,1.25067,0,0,0-.09409-.26,1.81537,1.81537,0,0,0-.30943-.05167c-.029-.00166-.09591-.06666-.10314-.06666a.4408.4408,0,0,0-.12667.01166c-.07057.04834-.30038.21167-.36914.27167-.04343.03833-.07238.13-.11581.17333-.0181.01834-.32753.17167-.34381.17667-.03619.01167-.266.12-.28229.12167a2.24838,2.24838,0,0,0-.29857.025c-.03076.01166-.18095.115-.20266.10666-.01086.01334-.0362.11667-.04524.14,0,.00166-.17553.17333-.19724.195a.09107.09107,0,0,1-.06152.02833c-.029,0-.30943-.04167-.35648-.03167-.04886.01-.03438.15-.15562.16334-.07057.00833-.13571.02166-.2081.02833a.1593.1593,0,0,0-.09409-.01833c-.01629.005-.05429.12833-.0561.13-.02714.03166-.12123.14-.13028.14666-.01629.01167-.09953.04334-.10676.05834-.01991.05.0579.09666.05066.11666-.02171.065-.10857.12667-.13571.18667a4.874,4.874,0,0,0,.01086.49333c.009.015.029.02334.04162.03667a1.83619,1.83619,0,0,1,.11219.22c.01809.13833-.18277.09-.067.22833.0181.02167.22619.19667.228.20834.00362.02-.36914.27833-.41438.36333-.01628.03167,0,.10333-.0199.12333a2.31023,2.31023,0,0,1-.46324.22334c-.01448-.00667-.03076-.055-.03257-.07a.157.157,0,0,0-.03619-.065.18791.18791,0,0,0-.26057.00166c-.0181.02-.19543.19834-.20448.19667a4.33683,4.33683,0,0,1-.418-.72667l.07238.00167c.08143-.055.29133-.22.29857-.23167a.66917.66917,0,0,0,.0561-.435c-.04524-.06667-.18457-.45667-.19181-.46833-.00905-.01334-.03981-.03-.04162-.03834a1.816,1.816,0,0,1-.00724-.19833c-.04886-.13333-.21352-.21833-.22257-.23333a2.73643,2.73643,0,0,1-.13571-.265c-.00362-.035.0959-.10834.09228-.17-.00181-.02.02534-.22667.02353-.265a2.84986,2.84986,0,0,0-.21353-.51,3.42435,3.42435,0,0,1-.17371-.50334c-.01448-.02166-.03981-.04-.05248-.06166s-.12666-.11-.14476-.13834a1.25142,1.25142,0,0,1-.237-.35666,1.04115,1.04115,0,0,1-.14657-.11334c-.009-.00833-.29314-.12833-.30038-.13-.05067-.01-.1339-.005-.17733-.04166-.03438-.03-.04162-.175-.10315-.155a2.994,2.994,0,0,1-.32752-.11333.31069.31069,0,0,0-.06152-.16667.27284.27284,0,0,0-.22257.025c-.01448.01333-.10134.09833-.14477.07333-.01447-.00833-.07419-.04167-.08685-.08167-.07419-.04-.27867.09834-.32753.00167-.03438-.01833-.05971.005-.08866-.025-.01448-.015.03981-.18167-.10858-.25.03439-.02667.07058-.045.10315-.07a1.62721,1.62721,0,0,0-.08143-.33c-.038-.03167-.24791-.16667-.24429-.20833a.30576.30576,0,0,1,.03981-.08167c.04162-.05667.13391-.03167.11943-.13667a.61558.61558,0,0,0-.08143-.18c-.09047-.00833-.07781-.10166-.11038-.12333-.0959-.065-.17009-.025-.06333-.15334.01447-.04166-.09229-.10833-.114-.13166-.038-.03667-.01991-.11334-.03438-.15334-.00724-.02-.11038-.19833-.11581-.21833-.01267-.01167-.57724-.30167-.5881-.29833-.01809-.005-.1339-.225-.18276-.25834.00362-.00833-.00543-.02833-.00543-.03833a1.40149,1.40149,0,0,0,.07238-.205.88285.88285,0,0,0-.02714-.14333,1.2962,1.2962,0,0,1-.03981-.39167c.01629-.015.114-.17167.14838-.19833.02533-.02.09772-.05834.11038-.075.01086-.01334.02715-.055.0181-.07167-.02534-.015-.49219-.27-.54829-.28333a.64869.64869,0,0,0-.19724.01.61393.61393,0,0,1-.21352-.04667c-.01448-.01166-.03076-.06166-.05248-.06666-.0959-.02334-.05971-.11-.085-.16667-.01086-.01333-.05067-.01-.06877-.01167a.56141.56141,0,0,1-.03619-.11666c.00362-.02.12124-.03834.13753-.04.00543-.015.01266-.16.01266-.16-.03257-.01834-.04342-.045-.07238-.06667.00181-.015.02172-.025.02534-.04.05609-.155.143-.03167.21895-.175a.47378.47378,0,0,0,.03619-.07167l.14295-.01166c.14114-.03.10857-.08167.19-.14a.69141.69141,0,0,1,.114-.03167c.03076.01333.31667.13.34019.14333.03076.01667.03619.05667.06334.07167.08142.04333.03438-.03.11219-.015a1.28457,1.28457,0,0,1,.21895.11333c.01267.005.20809-.03333.22076-.02833a.881.881,0,0,0,.09591-.01167c.05428.00834.05609.03.12847.02334.00362,0,.038-.20334.07238-.21334.01991-.005.07419.04834.09048.05167.02714.00667-.04886-.18667-.04705-.19833.00181-.00667.14657-.01834.17553-.05a2.11737,2.11737,0,0,1,.17914-.27667c.12847-.01167.17371-.11167.28952-.125.00724,0,.14657.09167.15924.08833a.83617.83617,0,0,0,.11581-.11666.74714.74714,0,0,1,.09952-.07667c.029,0,.17915.03167.19362.035C15.78325,19.29809,16.0999,19.14143,16.13248,19.14143Z" fill="#d0a650" /><polygon points="22.377 10.986 21.992 9.801 21.607 10.986 20.362 10.986 21.369 11.718 20.984 12.902 21.992 12.17 23 12.902 22.615 11.718 23.623 10.986 22.377 10.986" fill="#fff" /><polygon points="26.301 11.678 25.916 10.493 25.531 11.678 24.285 11.678 25.293 12.41 24.908 13.594 25.916 12.862 26.923 13.594 26.539 12.41 27.546 11.678 26.301 11.678" fill="#fff" /><polygon points="30.283 13.772 31.29 13.04 30.045 13.04 29.66 11.856 29.275 13.04 28.03 13.04 29.037 13.772 28.652 14.957 29.66 14.225 30.667 14.957 30.283 13.772" fill="#fff" /><polygon points="18.631 11.718 19.638 10.986 18.393 10.986 18.008 9.801 17.623 10.986 16.377 10.986 17.385 11.718 17 12.902 18.008 12.17 19.016 12.902 18.631 11.718" fill="#fff" /><polygon points="14.469 11.678 14.084 10.493 13.699 11.678 12.454 11.678 13.461 12.41 13.077 13.594 14.084 12.862 15.092 13.594 14.707 12.41 15.715 11.678 14.469 11.678" fill="#fff" /><polygon points="10.725 13.04 10.34 11.856 9.955 13.04 8.71 13.04 9.717 13.772 9.333 14.957 10.34 14.225 11.348 14.957 10.963 13.772 11.97 13.04 10.725 13.04" fill="#fff" /></g></svg>