<?xml version="1.0" encoding="UTF-8"?>
<svg xmlns="http://www.w3.org/2000/svg" viewBox="0 0 44 44">
  <defs>
    <style>
      .cls-1 {
        opacity: .2;
      }

      .cls-1, .cls-2 {
        fill: lime;
      }

      .cls-3 {
        fill: none;
        opacity: .5;
        stroke: lime;
        stroke-miterlimit: 10;
      }
    </style>
  </defs>
  <g id="Layer_1" data-name="Layer 1">
    <rect id="Hintergrund" class="cls-3" x="1.5" y="1.5" width="41" height="41" rx="3.075" ry="3.075"/>
    <polygon class="cls-2" points="8.69086 25.68505 8.05546 22.77039 12.04247 23.50722 14.25838 20.01446 15.56062 22.78875 13.77147 26.54277 8.69086 25.68505"/>
    <polygon class="cls-2" points="21.84811 39.6334 18.29064 36.86189 24.23209 35.95787 23.85872 30.41572 27.22618 33.18723 27.93224 38.61953 21.84811 39.6334"/>
    <polygon class="cls-2" points="13.67051 33.28081 11.2428 30.37888 16.91514 30.22572 17.65269 25.51137 20.33985 28.17053 20.01282 32.99284 13.67051 33.28081"/>
    <path class="cls-2" d="m17.38621,41.98689c-.95117-.72949-3.02539-2.56836-3.80566-3.26074l-.33008-.29102c-5.59473-4.85156-8.55273-10.71875-8.55273-16.9668,0-9.09082,10.00195-14.58301,19.3623-16.69043l2.38793.96352s-.06669.00402-.10749.01124C14.28444,7.88495,6.20359,14.15593,6.20359,21.46833c0,5.79883,2.77734,11.27246,8.0332,15.83008.94922.82129,4.05859,3.50195,5.49805,4.61719l.09277.07129h-2.44141Z"/>
    <path class="cls-1" d="m41.97937,35.72302v-14.57605c-6.93402-1.57257-13.59692-4.83466-13.59692-8.40021,0-2.59723,3.27667-3.74017,5.20856-4.2486l-8.34851-3.22382C14.21051,7.44647,5.43988,13.49921,5.43988,21.46826c0,5.49738,2.40729,11.29364,8.29309,16.39801.25684.22272,3.39966,2.87354,4.97296,4.13409h20.71887c1.41992,0,2.5752-1.15527,2.5752-2.5752v-3.59131c-.01294-.05695-.021-.09784-.02063-.11084Z"/>
    <path class="cls-2" d="m42,21.92078v-1.47064l-.00146-.07263c-7.44727-1.70703-12.85254-4.91602-12.85254-7.62988,0-.97015.65192-1.70764,1.52216-2.2641,1.31622-.84155,2.99756-1.31433,3.81238-1.50598l.22009-.0423-2.18823-.85577c-1.25482.40125-2.28644.84491-3.05658,1.41187-1.20715.88861-1.81567,1.97742-1.81567,3.25629,0,4.41504,7.72559,7.69824,14.34082,9.16895l.01904.00421Z"/>
  </g>
  <g id="Ebene_1" data-name="Ebene 1">
    <path class="cls-2" d="m42,36.87695v-1.64142c-3.24237-1.41174-9.2182-4.04254-12.85107-5.82581-4.95215-2.43164-11.92676-7.83203-11.92676-12.22461,0-3.23291,3.33942-6.16034,7.54327-8.03485,1.87872-.83777,3.66119-1.52197,5.66431-1.8725l-2.26111-.87177c-1.52014.39185-2.98547.92261-4.42169,1.6004-4.43744,2.09418-8.02966,5.42267-8.02966,9.17871,0,5.36035,7.63574,11.05469,12.76855,13.5752,3.91992,1.9248,10.63184,4.86426,13.33594,6.03906l.17822.07758Z"/>
  </g>
</svg>