<svg id="Ebene_1" data-name="Ebene 1" xmlns="http://www.w3.org/2000/svg" viewBox="0 0 44 44"><defs><style>.cls-1,.cls-2{fill:#00f300;}.cls-2{opacity:0.35;isolation:isolate;}</style></defs><g id="Ebene_1-2" data-name="Ebene 1"><path class="cls-1" d="M20.48926,6.43915c-.50586.4834-1.03321.95849-1.57813,1.4497a39.81441,39.81441,0,0,0-5.72265,6.03809c-5.67719,7.58643-8.65235,16.46478-9.099,27.122a4.96069,4.96069,0,0,0,1.4497.7066l.02918-.23974c.374-10.52735,3.25976-19.25781,8.82129-26.69043A38.59957,38.59957,0,0,1,19.915,9.00311c.55664-.501,1.09473-.98584,1.61035-1.479,1.499-1.43115,4.01172-4.05225,4.01172-5.52539l-1.5-.00049C24.03125,2.277,23.36621,3.69159,20.48926,6.43915Z"/><path class="cls-1" d="M38.03284,2.10718c-.04615,6.474-4.12171,10.37353-7.72327,13.8139a50.06909,50.06909,0,0,0-5.91211,6.39356c-3.9834,5.32324-6.05664,11.74951-6.33887,19.6455l1.0517.03766h.44934c.27277-7.573,2.2478-13.71759,6.039-18.78473a48.80134,48.80134,0,0,1,5.748-6.207c3.71112-3.5459,7.88922-7.558,8.16394-14.309A4.93987,4.93987,0,0,0,38.03284,2.10718Z"/><polygon class="cls-1" points="31.047 27 31.146 23.046 29.723 23.046 28.637 27 31.047 27"/><polygon class="cls-1" points="27.595 31 25.337 38.981 30.736 38.981 31.003 31 27.595 31"/><rect class="cls-1" x="24" y="28" width="16" height="1"/><polygon class="cls-1" points="32.953 27 32.854 23.046 34.277 23.046 35.363 27 32.953 27"/><polygon class="cls-1" points="36.405 31 38.663 38.981 33.264 38.981 32.997 31 36.405 31"/><rect class="cls-1" x="37" y="29" width="2" height="1"/><rect class="cls-1" x="25" y="29" width="2" height="1"/><path class="cls-2" d="M37.00909,1.99872h-11.472c0,1.47314-2.5127,4.09424-4.01172,5.52539-.51562.49316-1.05371.978-1.61035,1.479a38.5994,38.5994,0,0,0-5.52539,5.82227C8.82812,22.258,5.94238,30.98846,5.56836,41.51581l-.03227.2565A4.422,4.422,0,0,0,7,41.9978l11.05861.00016v-.03782c.28223-7.896,2.35547-14.32226,6.33887-19.6455a50.06836,50.06836,0,0,1,5.91211-6.39356c3.59924-3.43817,7.67151-7.33514,7.72278-13.80176A4.78126,4.78126,0,0,0,37.00909,1.99872Z"/><path class="cls-1" d="M12.56348,41.76483l-1.5-.05371c.0498-1.3706.1455-2.71338.28515-3.99121l1.49024.16309C12.7041,39.12469,12.61133,40.43085,12.56348,41.76483Zm.53027-5.834-1.48242-.22559a43.765,43.765,0,0,1,1.04883-4.97461l1.44726.39649a42.33529,42.33529,0,0,0-1.01367,4.80373Zm1.58008-6.68213L13.25,28.779a37.849,37.849,0,0,1,1.917-4.72265l1.34766.6582a36.38734,36.38734,0,0,0-1.84083,4.53417Zm2.749-6.27-1.31055-.73047A37.16411,37.16411,0,0,1,18.793,18.12079l.10937-.14551,1.19141.91211-.09668.12744a35.50007,35.50007,0,0,0-2.57425,3.96387Zm3.89453-5.63281-1.15234-.96c1.00684-1.209,2.10058-2.39112,3.44336-3.71973l1.05469,1.06543c-1.30662,1.29447-2.37007,2.44291-3.34569,3.6143Zm4.77149-4.99756-1.03711-1.084.41992-.40088c1.13086-1.08056,2.19824-2.10107,3.0625-3.08886l1.12891.9873c-.90821,1.03858-2,2.08154-3.15528,3.186Zm4.85742-5.2461-1.25-.82812a7.45351,7.45351,0,0,0,1.34082-4.27539h1.5a8.88366,8.88366,0,0,1-1.5908,5.10351Z"/></g></svg>