<?xml version="1.0" encoding="UTF-8"?>
<svg id="Layer_1" data-name="Layer 1" xmlns="http://www.w3.org/2000/svg" viewBox="0 0 44 44">
  <defs>
    <style>
      .cls-1 {
        fill: lime;
      }

      .cls-2 {
        fill: none;
        opacity: .5;
        stroke: lime;
        stroke-miterlimit: 10;
        stroke-width: 1.025px;
      }
    </style>
  </defs>
  <rect id="Hintergrund" class="cls-2" x="1.5" y="1.5" width="41" height="41" rx="3.075" ry="3.075"/>
  <path id="Kontur-2" class="cls-1" d="m15.4925,34.2075H3.7125l6.745-24.415h5.035v24.415Zm-9.88-1.425h8.455V11.2175h-2.47l-5.985,21.565Zm13.68-9.12v-12.35h2.47l1.9,6.84c.39149-.3715.80383-.7204,1.235-1.045l-1.995-7.22h-5.035v17.1c.37663-1.14796.85346-2.26057,1.425-3.325Zm8.36-11.59l2.945,2.945c-3.63708,1.84595-6.7679,4.55281-9.12,7.885-2.06474,3.44391-3.33081,7.30705-3.705,11.305h11.875c-.19-.285-3.8-4.56-2.185-9.69.81089-3.02555,2.88873-5.55359,5.7-6.935l2.945,2.945,4.18-8.455h-12.635Z"/>
</svg>