<svg id="Ebene_1" data-name="Ebene 1" xmlns="http://www.w3.org/2000/svg" viewBox="0 0 44 44"><defs><style>.cls-1{fill:#00f300;}</style></defs><g id="Highway_exit_for_Ramp_Left" data-name="Highway exit for Ramp Left"><path id="Kontur-2" class="cls-1" d="M28.85,9.15h5.3l7.1,25.7H28.85Zm4.1,1.5h-2.6v22.7h8.9Zm-6.6,16.6v-18h-5.3l-2.1,7.6a14.96171,14.96171,0,0,1,1.3,1.1l2-7.2h2.6v13A21.6948,21.6948,0,0,1,26.35,27.25ZM2.75,11.55l4.4,8.9,3.1-3.1a11.43086,11.43086,0,0,1,6,7.3c1.7,5.4-2.1,9.9-2.3,10.2h12.5a28.26524,28.26524,0,0,0-3.9-11.9,26.34542,26.34542,0,0,0-9.6-8.3l3.1-3.1Z"/></g></svg>