<svg id="Icon" xmlns="http://www.w3.org/2000/svg" viewBox="0 0 50 50"><title>d0_t14_2s0_cc-tur</title><g id="Rahmen"><rect x="2.75" y="2.75" width="44.5" height="44.5" rx="3" fill="#fff"/><rect x="2.75" y="2.75" width="44.5" height="44.5" rx="3" fill="none" stroke="#000" stroke-miterlimit="10" stroke-width="1.5"/></g><polygon points="10.28 27.76 7.98 27.76 7.98 42.016 10.28 42.016 10.28 39.536 39.628 39.536 39.628 42.016 42.02 42.016 42.02 30.704 39.628 30.704 39.628 36.04 10.28 36.043 10.28 27.76"/><rect x="11.43" y="32.452" width="7.82" height="2.392"/><polyline points="11.2 12.58 25 5.68 38.8 12.58" fill="none" stroke="#000" stroke-miterlimit="10" stroke-width="2"/><path d="M29.14,28.726a8.05,8.05,0,1,1,2.8207-15.58188,9.66,9.66,0,1,0,0,15.06376A8.014,8.014,0,0,1,29.14,28.726Z" fill="#003f87"/></svg>