<svg xmlns="http://www.w3.org/2000/svg" viewBox="0 0 44 44"><g id="d0_t15_cc-usa_1p0_2p1020_1s1"><path id="Hintergrund" d="M37.87839,39.86315a1.99057,1.99057,0,0,1-1.98476,1.98476H8.10658a1.99075,1.99075,0,0,1-1.985-1.98476V4.13685a1.99076,1.99076,0,0,1,1.985-1.98476H35.89363a1.99057,1.99057,0,0,1,1.98476,1.98476v35.7263Z" fill="#010101"/><path id="Rahmen" d="M35.89359,2.64826H8.10654A1.493,1.493,0,0,0,6.61786,4.13694V39.86323a1.493,1.493,0,0,0,1.48868,1.48846H35.89359a1.493,1.493,0,0,0,1.48867-1.48846V4.13694a1.493,1.493,0,0,0-1.48867-1.48868m.66165,37.215a.66346.66346,0,0,1-.66165.66144H8.10654a.66346.66346,0,0,1-.66165-.66144V4.13694a.66365.66365,0,0,1,.66165-.66166H35.89359a.66364.66364,0,0,1,.66165.66166Z" fill="#00f300"/><path id="Beschriftung" d="M21.19561,10.73511A4.546,4.546,0,0,0,19.89007,7.195a1.97505,1.97505,0,0,0-1.529-.41181H15.797v7.93927h2.79919C19.98412,14.72241,21.19561,13.08746,21.19561,10.73511Zm-4.14008,2.70538V8.04169h1.41126c1.27026,0,1.45856,1.77606,1.45856,2.69342,0,1.09381-.34113,2.70538-1.48194,2.70538Zm8.773,1.42316a2.25249,2.25249,0,0,0,1.91712-.894,5.51337,5.51337,0,0,0,.87036-3.19928c0-1.77582-.52924-4.12836-2.72876-4.12836a2.31594,2.31594,0,0,0-2.03485.894,5.64415,5.64415,0,0,0-.87036,3.23438,6.61888,6.61888,0,0,0,.56457,2.67A2.28879,2.28879,0,0,0,25.82854,14.86365ZM24.57,8.90027a1.25749,1.25749,0,0,1,1.31726-.97614c1.2702,0,1.47028,1.9289,1.47028,2.84626a5.82063,5.82063,0,0,1-.30579,1.8114c-.27051.69391-.63525.99975-1.22321.99975a1.15137,1.15137,0,0,1-1.08209-.61163,4.6142,4.6142,0,0,1-.48224-2.19952A5.5106,5.5106,0,0,1,24.57,8.90027ZM13.83074,25.9696H12.57226V18.03033h1.25848l2.89349,5.0694v-5.0694h1.24659V25.9696H16.86535l-3.03461-5.37518Zm10.856-.7528a5.51329,5.51329,0,0,0,.87036-3.19928c0-1.77582-.52924-4.12836-2.72876-4.12836a2.31594,2.31594,0,0,0-2.03485.894,5.64385,5.64385,0,0,0-.87036,3.23438,6.61888,6.61888,0,0,0,.56457,2.67,2.28865,2.28865,0,0,0,2.28186,1.42322A2.25253,2.25253,0,0,0,24.68676,25.2168Zm-.694-1.38788c-.27045.694-.63519.99975-1.22315.99975a1.15133,1.15133,0,0,1-1.08209-.61163,4.6135,4.6135,0,0,1-.48224-2.19952,5.51086,5.51086,0,0,1,.30579-1.87012,1.25745,1.25745,0,0,1,1.31726-.97607c1.2702,0,1.47028,1.92883,1.47028,2.84619A5.81717,5.81717,0,0,1,23.99279,23.82892Zm4.67248,2.14068V19.14777h-1.8114V18.03033H31.7586v1.11744H29.92382V25.9696Zm-16.05908,3.308H9.595v7.93927h1.25849V33.75879h1.55261a2.30538,2.30538,0,0,0,2.58771-2.25824A2.262,2.262,0,0,0,12.60619,29.27759Zm.05872,3.19928h-1.8114V30.53613h1.8114a.974.974,0,1,1,0,1.94074Zm5.71179-3.1994-2.72876,7.93927h1.34088l.77625-2.223h2.48175l.7763,2.223H22.364l-2.72883-7.93927Zm-.16473,4.4342.81164-2.23468.77631,2.23468Zm10.33862,1.22327a2.3757,2.3757,0,0,1-2.50531,2.423,3.10608,3.10608,0,0,1-2.89349-2.01123l1.19976-.44708A1.80867,1.80867,0,0,0,26.04528,36.076a1.15579,1.15579,0,0,0,1.22314-1.17639c0-1.05847-1.22314-1.22321-2.25824-1.63477a2.13084,2.13084,0,0,1-1.529-1.97607c0-1.56433,1.05847-2.15229,2.48169-2.15229a2.34457,2.34457,0,0,1,2.2583,1.623l-1.11743.32941a1.27638,1.27638,0,0,0-1.18786-.694c-.59992,0-1.25855.18817-1.21149.91742C24.82207,32.78265,28.55059,31.81824,28.55059,34.93494Zm6.35071,0a2.3757,2.3757,0,0,1-2.50531,2.423,3.10616,3.10616,0,0,1-2.8935-2.01123l1.19977-.44708A1.80873,1.80873,0,0,0,32.396,36.076a1.15579,1.15579,0,0,0,1.22314-1.17639c0-1.05847-1.22314-1.22321-2.25824-1.63477a2.13084,2.13084,0,0,1-1.529-1.97607c0-1.56433,1.05847-2.15229,2.48169-2.15229a2.34457,2.34457,0,0,1,2.2583,1.623l-1.11743.32941a1.27638,1.27638,0,0,0-1.18787-.694c-.59991,0-1.25854.18817-1.21148.91742C31.17278,32.78265,34.9013,31.81824,34.9013,34.93494Z" fill="#00f300"/></g></svg>