<svg id="Ebene_1" data-name="Ebene 1" xmlns="http://www.w3.org/2000/svg" viewBox="0 0 8 17"><defs><style>.cls-1{stroke:#fff;stroke-miterlimit:10;stroke-width:0.5px;}.cls-2{fill:red;}.cls-3{fill:#ffc600;}.cls-4{fill:#00f300;}</style></defs><path class="cls-1" d="M1.55337.75H6.44663a.799.799,0,0,1,.799.799V15.451a.799.799,0,0,1-.799.799H1.55337a.799.799,0,0,1-.799-.799V1.549A.799.799,0,0,1,1.55337.75Z"/><path class="cls-2" d="M4,2.4A1.6,1.6,0,1,1,2.4,4,1.6,1.6,0,0,1,4,2.4Z"/><path class="cls-3" d="M4,6.9A1.6,1.6,0,1,1,2.4,8.5,1.6,1.6,0,0,1,4,6.9Z"/><path class="cls-4" d="M4,11.4A1.6,1.6,0,1,1,2.4,13,1.6,1.6,0,0,1,4,11.4Z"/></svg>