<svg xmlns="http://www.w3.org/2000/svg" viewBox="0 0 40 40"><g id="EA45_flag_svaziland"><rect y="7" width="40" height="26" fill="#3e5eb9" /><rect y="11.875" width="40" height="16.25" fill="#ffd900" /><rect y="13.5" width="40" height="13" fill="#b10c0c" /><path d="M32.85667,16.952l-1.619.5714,1.619.5714,1.619-.5714Z" fill="#fff" /><path d="M8.39707,17.33333H31.7916a.19929.19929,0,0,1,.20707.19047h0a.19929.19929,0,0,1-.20707.19047H8.39707A.19929.19929,0,0,1,8.19,17.5238h0A.19929.19929,0,0,1,8.39707,17.33333Z" fill="#ffd900" /><path d="M31.79158,17.759H8.39705a.23581.23581,0,1,1,0-.47053H31.79158a.23581.23581,0,1,1,0,.47053ZM8.39705,17.3781a.14653.14653,0,1,0,0,.29137H31.79158a.14654.14654,0,1,0,0-.29137Z" /><path d="M31.30533,18.09533l-1.619.5714,1.619.5714,1.619-.5714Z" fill="#fff" /><path d="M6.84573,18.47667H30.24027a.19928.19928,0,0,1,.20706.19046h0a.19928.19928,0,0,1-.20706.19047H6.84573a.19928.19928,0,0,1-.20706-.19047h0A.19928.19928,0,0,1,6.84573,18.47667Z" fill="#ffd900" /><path d="M30.24028,18.90241H6.84575a.23581.23581,0,1,1,0-.47053H30.24028a.23581.23581,0,1,1,0,.47053ZM6.84575,18.52146a.14653.14653,0,1,0,0,.29137H30.24028a.14653.14653,0,1,0,0-.29137Z" /><path d="M4.26907,19.71467h31.8168a.28367.28367,0,0,1,.2816.2857h0a.28368.28368,0,0,1-.2816.2857H4.26907a.28367.28367,0,0,1-.2816-.2857h0A.28367.28367,0,0,1,4.26907,19.71467Z" fill="#ffd900" /><path d="M36.08585,20.33409H4.26905a.33375.33375,0,0,1,0-.66745h31.8168a.33375.33375,0,0,1,0,.66745Zm-31.8168-.57144a.23776.23776,0,0,0,0,.47544h31.8168a.23776.23776,0,0,0,0-.47544Z" /><path d="M29.52333,20c-1.90473,1.9046-4.44453,5.71407-9.524,5.71407-4.44453,0-7.61866-3.80947-9.524-5.71407,1.90474-1.90493,5.0792-5.7144,9.524-5.7144,5.0792,0,7.61867,3.80947,9.524,5.7144Z" fill="#fff" /><path d="M19.99935,25.75883c-4.00065,0-6.96081-3.05529-8.91962-5.07708-.22517-.23247-.43789-.452-.63607-.65009L10.412,20l.03168-.03169c.19762-.19761.40968-.41658.63416-.64835,1.959-2.02257,4.91945-5.07912,8.92153-5.07912,4.31272,0,6.802,2.733,8.61957,4.7286.33013.36242.64193.70473.93611.99887L29.58672,20l-.03169.03168c-.29392.29393-.60546.63594-.93533.99809C26.80208,23.0255,24.31276,25.75883,19.99935,25.75883ZM10.53863,20c.18963.19019.39193.399.60547.61936,1.94826,2.01093,4.89253,5.04991,8.85525,5.04991,4.27383,0,6.74779-2.71641,8.55412-4.69983.31884-.35.62058-.68133.9066-.96944-.28629-.28833-.58828-.61988-.90738-.97018-1.80634-1.98325-4.28021-4.6994-8.55334-4.6994-3.96415,0-6.90868,3.04015-8.85716,5.05187C10.92934,19.602,10.72769,19.81026,10.53863,20Z" /><path d="M19.33467,16.27333c.50673.56994.0836.79974.62.83714.56566.04153.245.60226.7208.62173.33266.01453-.0332,1.3434.287,1.78193.3262.45714.5994.13394.60513.4642.00566.3416-.8878.30714-.90347,1.35934-.0262.6064-.754.6452-.78873,1.0354-.0432.367,1.4338.573,1.41407.90153-.02027.32753-1.5948.27627-1.66334.6498-.03513.33553,2.16307.61053,2.33987,1.58087a8.78889,8.78889,0,0,1-1.9666.2088c-4.4438.0032-7.61867-3.8098-9.52334-5.7144,1.90474-1.90494,5.0792-5.7144,9.524-5.7144,0,0-1.31927,1.20546-.66474,1.98766Z" /><path id="a" d="M14.2622,19.4918V17.968m.92333,0v1.5238m.924-1.5238v1.5238" /><path d="M16.4174,19.49182h-.61571V17.968h.61571Zm-.924,0h-.61571V17.968h.61571Zm-.92335,0h-.61571V17.968h.61571Z" fill="#fff" /><path id="a-2" data-name="a" d="M14.2622,22.0318V20.508m.92333,0v1.5238m.924-1.5238v1.5238" /><path d="M16.4174,22.03184h-.61571V20.508h.61571Zm-.924,0h-.61571V20.508h.61571Zm-.92335,0h-.61571V20.508h.61571Z" fill="#fff" /><path id="a-3" data-name="a" d="M17.03287,19.4918V17.968m.92333,0v1.5238m.924-1.5238v1.5238" /><path d="M19.18806,19.49182h-.61571V17.968h.61571Zm-.924,0h-.61571V17.968h.61571Zm-.92335,0H16.725V17.968h.61571Z" fill="#fff" /><path id="a-4" data-name="a" d="M17.03287,22.0318V20.508m.92333,0v1.5238m.924-1.5238v1.5238" /><path d="M19.18806,22.03184h-.61571V20.508h.61571Zm-.924,0h-.61571V20.508h.61571Zm-.92335,0H16.725V20.508h.61571Z" fill="#fff" /><path id="a-5" data-name="a" d="M21.2462,19.4918V17.968m.92333,0v1.5238m.924-1.5238v1.5238" /><path d="M23.40148,19.49182h-.6158V17.968h.6158Zm-.92405,0h-.6158V17.968h.6158Zm-.92335,0h-.6158V17.968h.6158Z" /><path id="a-6" data-name="a" d="M21.2462,22.0318V20.508m.92333,0v1.5238m.924-1.5238v1.5238" /><path d="M23.40148,22.03184h-.6158V20.508h.6158Zm-.92405,0h-.6158V20.508h.6158Zm-.92335,0h-.6158V20.508h.6158Z" /><path id="a-7" data-name="a" d="M24.01687,19.4918V17.968m.92333,0v1.5238m.924-1.5238v1.5238" /><path d="M26.17214,19.49182h-.6158V17.968h.6158Zm-.924,0h-.6158V17.968h.6158Zm-.92335,0h-.6158V17.968h.6158Z" /><rect x="25.55634" y="20.50796" width="0.6158" height="1.52387" /><rect x="24.63229" y="20.50796" width="0.6158" height="1.52387" /><rect x="23.70894" y="20.50796" width="0.6158" height="1.52387" /><path d="M34.09,19.77333c-.28853.49974.2214-.1662,1.46567.6704a1.19811,1.19811,0,0,1,.43207.8506c-.05854-.03913-.102-.12626-.16647-.18286a2.74944,2.74944,0,0,0-.0844,1.1856c-.15334-.0438-.14314-.1672-.22321-.192.05447.19413-.4194.8068-.42313.90506a.24952.24952,0,0,1-.10934-.16573,3.29189,3.29189,0,0,0-.4518.69093c-.25873-.22853-.92153-.785-1.0078-1.0804-.07626.16767-.18666.22427-.40486.34667-.0862-.46813-.40867-.99433-.2362-1.3956-.1222.07247-.2228.14493-.34494.23407a2.76526,2.76526,0,0,1,1.5546-1.86674Z" fill="#3d5da7" /><path d="M5.38553,20.25467c-.01613-.14554.93847-.17554,1.02514-.17127.22753.01047.64293-.23907.93126.06773.27674.27974.18434.57007.18434.95747-.1112-.05327-.0576-.07953-.1756-.21807a6.47072,6.47072,0,0,1-.00474,1.30827c-.0454-.0866-.03873-.049-.08313-.13867-.118.32781-1.19227,1.04447-.8958,1.29534-.2676-.15687-.38493-.1404-.50627-.28154a.50779.50779,0,0,0-.1424.18514c-.47046-.21647-.30226-.68334-.6708-.9952a1.87212,1.87212,0,0,0-.10366.3246,6.10615,6.10615,0,0,0-.17894-.70074c-.0724.12047-.06593.07427-.1974.25634-.0544-.36007-.14293-.44507-.10793-.68333-.13973.0986-.04827.05866-.18793.18A2.07657,2.07657,0,0,1,5.38553,20.25467Z" fill="#3d5da7" /><path d="M16.92,15.3c-.26387.51033.462-.16973,1.59987.6846a1.964,1.964,0,0,1,.51313,1.07647,3.42681,3.42681,0,0,1-.67127-.29067,1.79522,1.79522,0,0,1,.50347,1.0856c-.17787-.1112-.26687-.09453-.326-.23107,0,.1882-.49334,1.22267-.25634,1.41087a1.4817,1.4817,0,0,1-1.00646-.61547.28306.28306,0,0,0-.10207.2544c.01307.01087-1.14353-.80813-1.22247-1.1098-.10513.1366-.11173.1366-.21687.2732a1.09758,1.09758,0,0,1,.07887-.87073,3.84154,3.84154,0,0,0-.31547.23907,2.778,2.778,0,0,1,1.42167-1.90627Z" fill="#3d5da7" /></g></svg>