<svg xmlns="http://www.w3.org/2000/svg" viewBox="0 0 44 44"><title>left_curve_nar</title><g id="left_curve_nar"><path id="Hintergrund" d="M41.46582,20.7047,23.29557,2.53389a1.83754,1.83754,0,0,0-2.59059,0L2.53417,20.7047a1.83822,1.83822,0,0,0,0,2.59115L20.705,41.46611a1.83754,1.83754,0,0,0,2.59059,0L41.46582,23.29585a1.83818,1.83818,0,0,0,0-2.59115" fill="#ffd033"/><path id="Rahmen" d="M41.1197,21.05055,22.94945,2.88029a1.34664,1.34664,0,0,0-1.89891,0L2.88028,21.05055a1.34661,1.34661,0,0,0,0,1.8989L21.05054,41.12027a1.34663,1.34663,0,0,0,1.89891,0L41.1197,22.94945a1.34661,1.34661,0,0,0,0-1.8989" fill="#010101" fill-rule="evenodd"/><path id="Hintergrund-2" data-name="Hintergrund" d="M40.60025,21.5695,22.43111,3.39869a.612.612,0,0,0-.86113,0L3.39973,21.5695a.61027.61027,0,0,0,0,.86056L21.57,40.60031a.60992.60992,0,0,0,.86112,0L40.60025,22.43006a.60825.60825,0,0,0,0-.86056" fill="#ffd033" fill-rule="evenodd"/><path id="Piktogramm" d="M20.67215,20.02034a9.91045,9.91045,0,0,1,3.89839,3.01449,5.40344,5.40344,0,0,1,.81057,2.93282c.01446,1.33169.00223,2.66393.00334,3.99505q0,.95836.0011,1.91614c0,.27222.76279.12389.97891.12389h3.2767c.03393,0,.0156-.21556.0156-.24722q.00425-2.35671.00834-4.7134a10.9809,10.9809,0,0,0-1.38558-6.16732,11.96241,11.96241,0,0,0-5.219-4.25672q.66251-.73167,1.32446-1.46446c.19445-.21444.42668-.42389.59834-.65445a.80675.80675,0,0,0-.52-1.24614,4.155,4.155,0,0,0-1.02446-.04944H21.56277q-3.94422.00237-7.88844.00158Q15.416,16.73937,17.15882,20.273q.42084.855.84279,1.71a3.25076,3.25076,0,0,0,.47445.84278.86454.86454,0,0,0,1.36613-.16611,3.47381,3.47381,0,0,0,.26112-.74946q.28416-.94416.56889-1.88946" fill="#010101" fill-rule="evenodd"/></g></svg>