<svg xmlns="http://www.w3.org/2000/svg" viewBox="0 0 44 44"><title>right_curve_irl</title><g id="right_curve_irl"><path id="Rahmen" d="M2.58921,23.43163a2.03386,2.03386,0,0,1,0-2.86326L20.56837,2.58921a2.03386,2.03386,0,0,1,2.86326,0L41.41079,20.56837a2.03386,2.03386,0,0,1,0,2.86326L23.43163,41.41079a2.03386,2.03386,0,0,1-2.86326,0Z" fill="#010101"/><path id="Hintergrund" d="M40.893,22.91766a1.29773,1.29773,0,0,0,0-1.83532L22.91766,3.10705a1.29773,1.29773,0,0,0-1.83532,0L3.10705,21.08234a1.29773,1.29773,0,0,0,0,1.83532L21.08234,40.893a1.29772,1.29772,0,0,0,1.83531,0Z" fill="#ffeb00"/><path id="Piktogramm" d="M22.64514,19.11386a9.13161,9.13161,0,0,0-5.14653,6.8257,58.97555,58.97555,0,0,0-.2179,7.27851h3.48685c-.04742-1.47788-.02465-3.7032-.011-5.18252a5.76178,5.76178,0,0,1,2.33515-5.01873c.57718-.392,1.17964-.74816,1.78978-1.09457,1.14864-.64774,2.37482-1.28095,3.54445-1.939.30991.70222.55825,1.265.90683,2.055.8215-2.01144,1.55151-3.79893,2.32463-5.69187l-.01668-.00358.00638-.01579c-2.00077-.42181-3.89-.82006-6.016-1.26825.45845.7317.78507,1.253,1.19259,1.90341Z"/></g></svg>