<svg xmlns="http://www.w3.org/2000/svg" viewBox="0 0 44 44"><title>s_curve_first_right_chn</title><g id="s_curve_first_right_chn"><path d="M2.29835,38.57387a2.21832,2.21832,0,0,0,1.9204,1.10763H39.78123a2.21867,2.21867,0,0,0,1.9235-3.32469L23.92349,5.43146a2.21866,2.21866,0,0,0-3.847,0L2.29524,36.35681A2.21859,2.21859,0,0,0,2.29835,38.57387Z" fill="#fe3"/><path d="M2.87458,38.24059a1.55317,1.55317,0,0,1-.00222-1.55206L20.6536,5.76317a1.553,1.553,0,0,1,2.69277,0L41.12761,36.68853a1.553,1.553,0,0,1-1.34638,2.32732H4.21875A1.55259,1.55259,0,0,1,2.87458,38.24059ZM22,9.65322,6.90331,35.90949H37.09644Z"/><path d="M14.99858,25.53231a1.55292,1.55292,0,0,1,1.40625-.89258h7.70526l-3.506-4.26562,2.40039-1.97266,5.80566,7.06348A1.5532,1.5532,0,0,1,27.60991,28.004H19.92937l3.661,4.40723-2.38867,1.98437-5.99122-7.21093A1.55315,1.55315,0,0,1,14.99858,25.53231Z"/></g></svg>