<svg xmlns="http://www.w3.org/2000/svg" viewBox="0 0 44 44"><title>s_curve_first_left_hkg</title><g id="s_curve_first_left_hkg"><path id="Hintergrund" d="M21.99967,4.46983a1.73246,1.73246,0,0,1,1.5028.87046l.89974,1.54364h.00413L41.70357,36.86554l.009.01729a1.7325,1.7325,0,0,1-1.47949,2.64733H3.75821a1.73214,1.73214,0,0,1-1.50345-2.59274l.00295-.00573L20.2198,5.7479a3.1369,3.1369,0,0,1,.55509-.77067,1.72662,1.72662,0,0,1,1.22478-.5074Z" fill="#fff"/><path id="Rahmen" d="M21.90605,4.92765a1.29793,1.29793,0,0,0-.7568.31372,1.17854,1.17854,0,0,0-.23836.27342l-.00555.00856L20.9,5.53161,2.65792,37.1622a1.43871,1.43871,0,0,0-.16991.64267,1.27185,1.27185,0,0,0,.61434,1.08739,1.13853,1.13853,0,0,0,.6478.1849H40.2155a1.27466,1.27466,0,0,0,.83334-.30452,1.29845,1.29845,0,0,0,.46315-.9938,1.35223,1.35223,0,0,0-.151-.61664L23.10823,5.53692a1.27672,1.27672,0,0,0-1.10835-.6141C21.96872,4.92305,21.93739,4.92488,21.90605,4.92765ZM40.21367,39.07716h0Zm-4.26544-3.77692H8.1089L22.01877,11.19079Z" fill="#c1121c"/><path id="path15-1" d="M26.02983,26.84972,21.38391,31.002a2.56848,2.56848,0,0,1-1.65511.58074,2.64028,2.64028,0,0,1-2.64235-2.6714V21.47787l1.597-1.568,1.597,1.568v6.33007l4.64592-4.18133A2.67161,2.67161,0,0,1,29.224,25.71728v8.44977H26.02983V26.84972Z"/></g></svg>