<svg xmlns="http://www.w3.org/2000/svg" viewBox="0 0 44 44"><title>s_curve_first_left_aus</title><g id="s_curve_first_left_aus"><path id="path3398" d="M2.58416,23.387,20.63485,41.43935a2.017,2.017,0,0,0,2.791,0l17.99-18.05232a1.96154,1.96154,0,0,0,0-2.80326l-17.99-18.0142a1.99423,1.99423,0,0,0-2.791,0L2.58416,20.58377a1.96154,1.96154,0,0,0,0,2.80326" fill="#fee011" fill-rule="evenodd"/><path id="path3402" d="M2.81941,23.03744,20.90984,41.12788a1.44867,1.44867,0,0,0,2.18032,0L41.179,23.03744a1.48148,1.48148,0,0,0,0-2.14219L23.09016,2.80645a1.57074,1.57074,0,0,0-2.18032,0L2.81941,20.89524a1.5271,1.5271,0,0,0,0,2.1422" fill-rule="evenodd"/><path id="path3406" d="M3.36817,22.5272,21.48279,40.61764a.75544.75544,0,0,0,1.03483,0L40.66871,22.5272a.745.745,0,0,0,0-1.08319L22.51762,3.35358a.68981.68981,0,0,0-1.03483,0L3.36817,21.444a.74436.74436,0,0,0,0,1.08319" fill="#fee011" fill-rule="evenodd"/><path id="path3410" d="M23.96228,14.08136a1.61827,1.61827,0,0,0,.73524,1.27007,5.69571,5.69571,0,0,1,3.836,5.28275,5.52153,5.52153,0,0,1-4.41022,5.36922l-2.49178.47377A1.26112,1.26112,0,0,0,20.52419,27.685a1.24736,1.24736,0,0,0,.64713,1.059,5.519,5.519,0,0,1,2.81514,4.83439v3.3139H19.68854V33.55252a1.09646,1.09646,0,0,0-.46024-.9463A5.408,5.408,0,0,1,16.2,27.69724,5.52784,5.52784,0,0,1,20.498,22.26573l2.5422-.47418c.70064-.122,1.159-.51024,1.159-1.16966a1.17742,1.17742,0,0,0-.84753-1.14713,5.73744,5.73744,0,0,1-3.66309-5.38151l-2.75326.83442a.83282.83282,0,0,1-.75942-.798.815.815,0,0,1,.16107-.42213L21.89467,5.5093l5.48152,8.136a1.0073,1.0073,0,0,1,.16106.48442.78927.78927,0,0,1-.77172.798l-2.80325-.84631" fill-rule="evenodd"/></g></svg>