<svg xmlns="http://www.w3.org/2000/svg" viewBox="0 0 44 44"><title>s_curve_first_right_hkg</title><g id="s_curve_first_right_hkg"><path id="Hintergrund" d="M22.00033,4.46983a1.73246,1.73246,0,0,0-1.5028.87046l-.89974,1.54364h-.00413L2.29643,36.86554l-.009.01729A1.7325,1.7325,0,0,0,3.767,39.53016H40.24179a1.73214,1.73214,0,0,0,1.50345-2.59274l-.003-.00573L23.7802,5.7479a3.1369,3.1369,0,0,0-.55509-.77067,1.72662,1.72662,0,0,0-1.22478-.5074Z" fill="#fff"/><path id="Rahmen" d="M22.00012,4.92282a1.27672,1.27672,0,0,0-1.10835.6141L2.639,37.1622a1.35223,1.35223,0,0,0-.151.61664,1.29845,1.29845,0,0,0,.46315.9938,1.27466,1.27466,0,0,0,.83334.30452H40.24985a1.13853,1.13853,0,0,0,.6478-.1849,1.27185,1.27185,0,0,0,.61434-1.08739,1.43871,1.43871,0,0,0-.16991-.64267L23.1,5.53161l-.00531-.00826-.00555-.00856a1.17854,1.17854,0,0,0-.23836-.27342,1.29793,1.29793,0,0,0-.7568-.31372C22.06261,4.92488,22.03128,4.92305,22.00012,4.92282ZM3.7845,39.07716h0ZM21.98123,11.19079,35.8911,35.30024H8.05177Z" fill="#c1121c"/><path id="path15-1" d="M17.97017,26.84972v7.31733H14.776V25.71728a2.67161,2.67161,0,0,1,4.29754-2.09067l4.64592,4.18133V21.47787l1.597-1.568,1.597,1.568v7.43348a2.64028,2.64028,0,0,1-2.64235,2.6714,2.56848,2.56848,0,0,1-1.65511-.58074l-4.64592-4.15229Z"/></g></svg>