<svg xmlns="http://www.w3.org/2000/svg" viewBox="0 0 44 44"><title>s_curve_first_right_nar</title><g id="s_curve_first_right_nar"><path id="path3195" d="M2.53374,20.70476a1.83914,1.83914,0,0,0,0,2.591L20.70483,41.46522a1.83812,1.83812,0,0,0,2.591,0l18.17-18.16943a1.83813,1.83813,0,0,0,0-2.591l-18.17-18.17a1.83812,1.83812,0,0,0-2.591,0l-18.1711,18.17" fill="#ffd033"/><path id="path3211" d="M2.87983,21.05058a1.34759,1.34759,0,0,0,0,1.89883l18.17109,18.17a1.34658,1.34658,0,0,0,1.89884,0l18.17-18.17a1.3466,1.3466,0,0,0,0-1.89884l-18.17-18.16943a1.3466,1.3466,0,0,0-1.89884,0L2.87983,21.05057" fill-rule="evenodd"/><path id="path3215" d="M3.39982,21.56952a.6082.6082,0,0,0,0,.86052l18.17,18.16943a.61057.61057,0,0,0,.86164,0L40.60032,22.43a.61026.61026,0,0,0,0-.86052l-18.16888-18.17a.61263.61263,0,0,0-.86164,0l-18.17,18.17" fill="#ffd033" fill-rule="evenodd"/><path id="path3219" d="M29.81954,17.567a.77383.77383,0,0,0,.41.03554.8605.8605,0,0,0,.6822-.82608.846.846,0,0,0-.13443-.45276L25.49635,8.15065,19.696,16.30483a.80839.80839,0,0,0-.13444.64.82374.82374,0,0,0,.34054.52221.78454.78454,0,0,0,.55444.14,1.13822,1.13822,0,0,0,.13222-.02279l2.806-.80775v.73831a1.81985,1.81985,0,0,1-.755,1.48107l-5.85148,4.43876a5.63116,5.63116,0,0,0-1.3555,1.54549,6.0054,6.0054,0,0,0-.88109,3.14768v4.21488h4.2382V28.1278a1.8334,1.8334,0,0,1,.73775-1.46384l5.752-4.356a6.04642,6.04642,0,0,0,2.33716-4.776v-.69Z" fill-rule="evenodd"/></g></svg>