<svg xmlns="http://www.w3.org/2000/svg" viewBox="0 0 44 44"><title>s_curve_first_right_kor</title><g id="s_curve_first_right_kor"><path id="path4728" d="M2.477,36.28322c-1.06646,1.85624-.3147,3.17839,1.9537,3.17839H39.64122c2.08046,0,2.959-1.38465,1.92311-3.11545L23.81486,5.78962c-1.00963-1.6683-2.70547-1.6683-3.68451,0L2.477,36.28322" fill="#fff"/><path id="path4732" d="M3.26376,36.629c-.59879,1.07038-.03059,1.983,1.35492,1.983H39.51883c1.19321,0,1.88815-.84967,1.25877-1.92006L23.15488,6.3871a1.26243,1.26243,0,0,0-2.36019-.031L3.26376,36.62894" fill="#c50000"/><path id="path4734" d="M22.05346,11.29672,8.0191,35.18179H35.86492L22.05346,11.29672" fill="#ffb723"/><path id="path4738" d="M26.99236,21.87036c.3147.37763.472,1.06995-.21853,1.3217H25.76419v2.89516c0,5.19241-4.02542,5.60151-6.16707,3.3672-.97743-.97743-1.44671-1.38464-1.44671.75526v3.8707H15.09528V29.2337c0-4.7514,3.02344-5.15941,5.63385-2.549,2.45635,2.455,2.07609-.97555,2.07609-3.49264h-1.132c-.59442-.15778-.66-.69232-.44144-1.2273l2.42574-4.2798c.34131-.34131.5731-.34038.91348,0l2.42138,4.1854"/></g></svg>