<?xml version="1.0" encoding="UTF-8"?>
<svg id="Ebene_1" data-name="Ebene 1" xmlns="http://www.w3.org/2000/svg" viewBox="0 0 175 40">
  <defs>
    <style>
      .cls-1, .cls-2 {
        fill: #fff;
      }

      .cls-5 {
        fill: #007f58;
        fill-rule: evenodd;
      }

    </style>
  </defs>
  <path class="cls-5" d="M3.62405,37.205c-1.58506,0-2.87-1.28494-2.87-2.87V5.6c0-1.5961,1.2939-2.89,2.89-2.89h0s167.799,0,167.799,0c1.57401,0,2.85,1.27599,2.85,2.85v28.835c0,1.56849-1.27151,2.84-2.84,2.84l-167.829-.03Z"/>
  <path class="cls-1" d="M171.43305,3.5c1.1598,0,2.07,.9102,2.07,2.07v28.835c0,1.15427-.93572,2.08999-2.09,2.09H3.61405c-1.17084,0-2.12-.94915-2.12-2.12V5.64c0-1.18189,.95811-2.14,2.14-2.14H171.43305Zm0-1.5H3.63405C1.62373,2-.00595,3.62968-.00595,5.64h0v28.735c0,1.99927,1.62073,3.62,3.62,3.62H171.41305c1.9827,0,3.59-1.6073,3.59-3.59V5.57c0-1.98822-1.58177-3.57-3.57-3.57h0Z"/>
<text transform="translate(121 28)" font-family="AudiTypeDisplayHigh-Normal, Audi Type Display High" font-size="22px" fill="#fff" text-anchor="middle" isolation="isolate">{value}</text> 
  <g>
    <rect class="cls-1" x="45.86278" y="12.00061" width="2.16605" height="15.99898"/>
    <polygon class="cls-1" points="11.92493 27.99856 11.92493 12.00061 22.99444 12.00061 22.99444 14.10672 14.14682 14.10672 14.14682 18.19087 19.20129 18.19087 19.20129 20.2975 14.14682 20.2975 14.14682 25.91858 22.99444 25.91858 22.99444 28.00061 11.92493 27.99856"/>
    <polygon class="cls-1" points="58.95819 27.99856 58.95819 14.05959 54.12094 14.05959 54.12094 12.00061 65.89079 12.00061 65.89079 14.05959 61.05662 14.05959 61.05662 27.99856 58.95819 27.99856"/>
    <polygon class="cls-1" points="37.85432 27.975 33.82653 21.567 29.79874 27.975 27.27919 27.975 32.56727 19.5526 27.8499 12.01906 30.36945 12.01906 33.82653 17.54024 37.28361 12.01906 39.80111 12.01906 35.08579 19.5526 40.37182 27.975 37.85432 27.975"/>
  </g>
</svg>