<svg xmlns="http://www.w3.org/2000/svg" viewBox="0 0 40 40"><g id="t11_1p20"><rect y="7" width="40" height="26" fill="#d0103a" /><rect y="7" width="27.2" height="26" fill="#fedf00" /><rect y="7" width="12.8" height="26" fill="#0018a8" /><path d="M18.7748,13.5392c.482,0,.67916.41352,1.16116.41352a1.33786,1.33786,0,0,0,.73044-.24348.89829.89829,0,0,1,.5042-.15709.46058.46058,0,0,1,.452.24668.70562.70562,0,0,1,.08551.421c-.05126.21974-.25159.674-.25159.78076,0,.25585.34816.34375.58488.34741a1.09745,1.09745,0,0,0,.7526-.26244.31062.31062,0,0,1-.307-.26346c0-.164,1.4507-.38757,1.51714-.38757a4.98842,4.98842,0,0,1,.986,1.00058c-.11764.41136-.3976.54192-.68032.89528a.70993.70993,0,0,0-.215.46364.46246.46246,0,0,0,.08289.171l.35135.12952a.59659.59659,0,0,1,.24865-.08807,2.07022,2.07022,0,0,1,.701.23738,1.31461,1.31461,0,0,1,.45848,1.04812,1.11085,1.11085,0,0,1-.8624,1.16468c.15591.06565-.43917.88759-.43917,1.13565a1.5753,1.5753,0,0,0,.32231.69831l.21485.87076a1.55537,1.55537,0,0,1,.27142.28271,1.92532,1.92532,0,0,1,.18094.6446,1.366,1.366,0,0,1-.16963.70112,1.25367,1.25367,0,0,1-.441.53148,2.17809,2.17809,0,0,1-1.0008.3958c-.26434.05089-1.22348.11309-1.56628.13571a1.46882,1.46882,0,0,0-1.08.41276.48471.48471,0,0,1,.25444.40428c0,.19082-.64529.57956-.74071.57956a.50681.50681,0,0,1-.40148-.15833,2.88423,2.88423,0,0,1-.475.37319,1.43954,1.43954,0,0,1-.48628-.36753.6919.6919,0,0,1-.39015.15267c-.10037,0-.79161-.42478-.79161-.63044a.40485.40485,0,0,1,.27706-.37036,1.43372,1.43372,0,0,0-1.063-.39579,17.43,17.43,0,0,1-2.07516-.26576,1.714,1.714,0,0,1-1.13088-1.40792,2.17249,2.17249,0,0,1,.3958-1.00081l.23747-.899a1.33044,1.33044,0,0,0,.34492-.71526c0-.13712-.63541-1.05523-.51454-1.11107a4.24549,4.24549,0,0,1-.61632-.53151,3.76875,3.76875,0,0,1-.18661-.78593,2.20117,2.20117,0,0,1,.65026-1.046,6.45962,6.45962,0,0,1,.75768-.02545l.3845-.16679a.24376.24376,0,0,0,.04523-.14137c0-.21486-.1152-.32441-.24878-.49192-.2912-.364-.65592-.53432-.65592-1.0008a9.252,9.252,0,0,1,1.85745-.96122c.0721,0,.6757.36469.6757.53432,0,.09188-.1965.25727-.26576.27989a1.00168,1.00168,0,0,0,.70729.22405c.26292,0,.58448-.10748.58448-.37039,0-.12229-.24867-.61805-.24867-.83572a.61446.61446,0,0,1,.11915-.417.436.436,0,0,1,.40668-.1778Z" fill="#c6b280" /><path d="M16.5064,15.97h3.28716v3.28092H16.5064Z" fill="#d42d1e" /><path d="M18.4448,17.158l.4304-.46572a.18757.18757,0,0,0,.06438-.13606s.05977-.28377.07551-.31526a.3739.3739,0,0,1,.57816-.03617.32966.32966,0,0,1-.078.52556.2528.2528,0,0,1-.27446-.04441l.07883-.15462a.11909.11909,0,0,0,.19282-.09981.1832.1832,0,0,0-.17415-.18037.19648.19648,0,0,0-.19594.1244.38852.38852,0,0,0-.02176.13994.95017.95017,0,0,1-.02148.15239.35019.35019,0,0,1-.09479.1437l-.4412.4774-1.71764,1.8578-.12907-.11932L18.44481,17.158Z" fill="#fcde09" /><path d="M17.1804,17.3216a6.83531,6.83531,0,0,0,.475,1.33724,1.25152,1.25152,0,0,1,.49448-.112,1.15262,1.15262,0,0,1,.49448.112,6.83615,6.83615,0,0,0,.475-1.33724l-.96944-1.24708Z" fill="#fff" /><path d="M18.2448,16.4964l.6728.86548a6.2521,6.2521,0,0,1-.36313,1.05416,1.89628,1.89628,0,0,0-.30929-.05278l-.00036-1.86684Z" fill="#fcde09" /><path d="M18.0552,16.4964l-.6728.86548a6.2521,6.2521,0,0,0,.36313,1.05416,1.89628,1.89628,0,0,1,.30929-.05278l.00036-1.86684Z" fill="#fcde09" /><path d="M20.144,15.97h3.28716v3.28092H20.144Z" fill="#fcde09" /><path d="M20.6044,15.97h.49012v3.28092H20.6044Z" fill="#d42d1e" /><path d="M21.5436,15.97h.49012v3.28092H21.5436Z" fill="#d42d1e" /><path d="M22.4828,15.97h.49012v3.28092H22.4828Z" fill="#d42d1e" /><path d="M16.5188,22.0964a.82994.82994,0,0,0,.0865.26435.97644.97644,0,0,0,.17105.24.958.958,0,0,0,.24908.17979,1.07816,1.07816,0,0,0,.27367.09981,2.038,2.038,0,0,0,.663.06394,3.95012,3.95012,0,0,0,.41-.04246,4.33858,4.33858,0,0,1,.44472-.04042c.08533-.00356.166-.00441.24569,0a2.06028,2.06028,0,0,1,.29234.04042,3.18431,3.18431,0,0,1,.43848.12751l.00054-3.4262-3.28772-.00093V21.944s.00674.1144.01273.15239Z" fill="#fcde09" /><path d="M16.9004,22.6972l.15407.08965.21113.07595-.0002-3.26108h-.36506Z" fill="#d42d1e" stroke="#d42d1e" stroke-width="0.02052" /><path d="M18.7268,22.8456l.00045-3.244h-.36574v3.29584s.25029-.03208.36525-.03953Z" fill="#d42d1e" stroke="#d42d1e" stroke-width="0.02052" /><path d="M19.4564,19.602h-.36454v3.25524a2.41686,2.41686,0,0,1,.36525.0673L19.45639,19.602Z" fill="#d42d1e" stroke="#d42d1e" stroke-width="0.02052" /><path d="M17.9968,19.602v3.33324a3.22719,3.22719,0,0,1-.36693-.00012L17.63,19.60256Z" fill="#d42d1e" stroke="#d42d1e" stroke-width="0.02052" /><path d="M23.4192,22.0956a.83005.83005,0,0,1-.0865.26434.9768.9768,0,0,1-.171.24.95889.95889,0,0,1-.24908.1798,1.07869,1.07869,0,0,1-.27367.09981,2.03764,2.03764,0,0,1-.663.06392,3.94905,3.94905,0,0,1-.41-.04244,4.34118,4.34118,0,0,0-.44472-.04044c-.08532-.00355-.166-.00438-.24568,0a2.06005,2.06005,0,0,0-.29233.04044,3.29362,3.29362,0,0,0-.44132.12751l.00226-3.4262,3.28772-.00092v2.34172s-.00673.11438-.01273.15238Z" fill="#fcde09" /><path d="M20.96105,19.88765c-.01193.01309-.098.07487-.105.08375-.01009.01283-.00316.02517-.01.04a.68711.68711,0,0,1-.1125.1175c-.00536.00288-.02772.00706-.03625.01-.01553.00537-.02041.0225-.03125.02875a.70252.70252,0,0,0,.0625.1125.1245.1245,0,0,0,.0525.005,1.27016,1.27016,0,0,1,.14.0525.2086.2086,0,0,0,.05124.0175c.01547.003.15376.05249.15376.05249l-.0075.015a.069.069,0,0,0-.0025.03375.31908.31908,0,0,0,.05875.1275c.02462.00945.03224.03459.04625.06a.599.599,0,0,0-.08.085c-.02982.04751-.04995.04815-.0125.11125a1.41072,1.41072,0,0,1,.0925.175.305.305,0,0,1,.0125.07875l.065-.01125.02624-.08375a.03093.03093,0,0,1-.01-.03125c.00279-.01475.01549-.05438.0025-.06875-.02422-.02679-.05721-.03332-.065-.07375-.00209-.01093.00311-.01707.015-.02875.03421-.0336.0452-.03895.07876-.0725a.05843.05843,0,0,0,.03875.005c.01116-.00212.12.01248.12.01248a.97555.97555,0,0,0,.01125.1675.17315.17315,0,0,1,.02.04875,1.39634,1.39634,0,0,1-.00875.145.08114.08114,0,0,1-.0175.0425c-.01134.01455-.0238.01669-.03875.0275l-.00375.04.045.01875.05125.0125.0275-.01125a.047.047,0,0,1,.00625-.025.03768.03768,0,0,1,.01875-.02125c.01449-.0057.03038.00516.03625-.00376.00638-.00968.00237-.0135.00124-.03-.00181-.02649-.00734-.03956-.01125-.06626a.87548.87548,0,0,1,0-.1725c.00688-.03529.03809-.15174.0425-.18624a1.99688,1.99688,0,0,0,.40376-.025.34526.34526,0,0,0,.10875.065,1.46142,1.46142,0,0,0,.18249.00873l.04125-.015a.20446.20446,0,0,1-.00375.0325,2.45782,2.45782,0,0,1-.165.26c-.02775.022-.046.0044-.08376.03375l-.00875.04125.10875.03125.0175-.01a.04056.04056,0,0,1,.00875-.03c.00854-.01079.06112-.01489.0725-.025.014-.01243.01395-.03656.025-.05875a1.54422,1.54422,0,0,1,.18625-.21375c.00986-.0129.0208-.01877.02125-.035a.53616.53616,0,0,0-.01625-.0675c.06087.02979.0487.09783.0525.12375a.818.818,0,0,1,.00875.1675.39617.39617,0,0,1-.065.1425c-.00844.007-.01473.01-.02375.01625l-.005.04125.125.01875c.00654-.02618-.00219-.06466.01625-.0675.01624-.00248.02771,0,.03125-.0125.00147-.00525.04158-.29255.06125-.34875.02937-.08389-.00833-.095-.0425-.14625a.12.12,0,0,1-.0275-.06c-.00388-.03267.0041-.19636.005-.225a.25777.25777,0,0,0,.10875-.10625.3491.3491,0,0,0,.00875-.1.22391.22391,0,0,0-.035-.07125.21763.21763,0,0,0-.10875-.05875,1.485,1.485,0,0,0-.33625-.025c-.08027.00457-.32411.0448-.40125.04625-.09041.00168-.331.0167-.47875.02875-.07708.0063-.15375.0075-.15375.0075l-.08625-.0275a.097.097,0,0,0,.05876-.04125c.01087-.01464.04022-.06739.05375-.08125a.088.088,0,0,0-.0375-.0175.38878.38878,0,0,0-.12.0375.77835.77835,0,0,0-.0875-.04875A.4.4,0,0,0,20.96105,19.88765Z" fill="#d42d1e" /><path d="M20.9848,21.34l-.02375.01125a.34621.34621,0,0,1-.03125.0325c-.01772.01557-.06677.04237-.07375.05125-.01009.01283-.00316.02517-.01.04a.14733.14733,0,0,1-.02625.0375.54194.54194,0,0,1-.08625.08c-.00536.00288-.02772.00706-.03625.01-.01553.00537-.02041.0225-.03125.02875a.70252.70252,0,0,0,.0625.1125.1245.1245,0,0,0,.0525.005.43079.43079,0,0,1,.08124.01875c.02452.01016.03451.023.05876.03375a.32887.32887,0,0,0,.09124.02126,1.058,1.058,0,0,1,.11376.04873.15938.15938,0,0,0-.01.04875.31908.31908,0,0,0,.05875.1275c.02462.00945.03224.03459.04625.06a.599.599,0,0,0-.08.085c-.02982.04751-.04995.04815-.0125.11125a1.41072,1.41072,0,0,1,.0925.175.305.305,0,0,1,.0125.07875l.03875.015.05125-.07375a.39342.39342,0,0,1-.00876-.0675c.00279-.01475.01549-.05438.0025-.06875-.02422-.02679-.05721-.03332-.065-.07375-.00209-.01093.0602-.0677.09376-.10125.00968.00568.15875.01748.15875.01748a.13849.13849,0,0,1,.005.0275.57371.57371,0,0,0,.00625.14.17315.17315,0,0,1,.02.04875,1.39634,1.39634,0,0,1-.00875.145.08114.08114,0,0,1-.0175.0425c-.01134.01455-.0238.01669-.03875.0275l-.00375.04.12375.02a.08282.08282,0,0,1,.025-.04625c.01449-.0057.03038.00517.03625-.00376.00638-.00968.00237-.0135.00124-.03-.00181-.02649-.016-.21451-.01125-.23876.00688-.03529.01943-.05244.0275-.0875a.85924.85924,0,0,0,.015-.09874.97242.97242,0,0,0,.37376-.015c.00676-.00148.03-.01.03-.01a.34526.34526,0,0,0,.10875.065c-.00024.00406.21559-.00294.22374-.00627a.20446.20446,0,0,1-.00375.0325c-.00279.015-.11743.2039-.12749.2175a.18822.18822,0,0,1-.0375.0425c-.02775.022-.046.0044-.08376.03375l-.00875.04125.0575.02125.05125.01.0175-.01a.04056.04056,0,0,1,.00875-.03.04347.04347,0,0,1,.03125-.01625c.01446-.00236.02987.00136.04125-.00875.014-.01243.01395-.03656.025-.05875a.50657.50657,0,0,1,.12-.15625c.0245-.02386.0455-.03031.06625-.0575.00986-.0129.0208-.01877.02125-.035.00032-.01131-.00576-.0166-.00875-.0275a.39.39,0,0,1-.0075-.04c.06087.02979.03883.02585.05.05625.009.0246-.0013.04158.0025.0675.00444.03024.01864.04456.02125.075a.2961.2961,0,0,1-.0125.0925.28461.28461,0,0,1-.01875.08.15411.15411,0,0,1-.04625.0625c-.00844.007-.01473.01-.02375.01625l-.005.04125.045.015.065.0175.015-.01375c.00654-.02618-.00219-.06466.01625-.0675.01624-.00248.02771,0,.03125-.0125l.00375-.025a2.5701,2.5701,0,0,1,.0575-.32375c.02937-.08389-.00833-.095-.0425-.14625a.12.12,0,0,1-.0275-.06c-.00388-.03267.0041-.19636.005-.225a.25777.25777,0,0,0,.10875-.10625.13728.13728,0,0,0,.0125-.05875.4478.4478,0,0,0-.01625-.07875.127.127,0,0,0-.0225-.03375.68118.68118,0,0,0-.27375-.08125,3.50517,3.50517,0,0,0-.37625.02752,1.73952,1.73952,0,0,1-.19625.01625c-.09041.00168-.331.0167-.47875.02875-.07708.0063-.15375.0075-.15375.0075l-.08625-.0275a.097.097,0,0,0,.05876-.04125c.01087-.01464.04022-.06739.05375-.08125a.088.088,0,0,0-.0375-.0175.38878.38878,0,0,0-.12.0375.77835.77835,0,0,0-.0875-.04875.36712.36712,0,0,0-.12-.03625Z" fill="#d42d1e" /></g></svg>