<svg xmlns="http://www.w3.org/2000/svg" viewBox="0 0 40 40"><g id="EA45_flag_lichtenstein"><rect y="7" width="40" height="26" fill="#002b7f" /><rect y="20" width="40" height="13" fill="#ce1126" /><path d="M8.65508,12.89154l-.07353,2.5H6.04479a3.79014,3.79014,0,0,1-.56985-1.81985A1.05717,1.05717,0,0,1,6.59626,12.5239,9.78585,9.78585,0,0,1,8.65508,12.89154Z" fill="#ffd83d" /><path d="M7.05582,12.71691c.43054.071,1.37624.51349,1.26838,1.11213-.15285.84837-.64831.50791-1.30515.386l-.49632.16544c-.17759.18128-.43911.34735-.61581.12868H5.6128v1.1489H8.86648V12.88235Z" stroke="#000" stroke-linecap="round" stroke-linejoin="round" stroke-width="0.06" /><circle cx="8.51262" cy="12.5193" r="0.19761" fill="#ffd83d" stroke="#000" stroke-linecap="round" stroke-linejoin="round" stroke-width="0.08" /><circle cx="8.06852" cy="12.41242" r="0.19761" fill="#ffd83d" stroke="#000" stroke-linecap="round" stroke-linejoin="round" stroke-width="0.08" /><circle cx="7.61799" cy="12.29927" r="0.19761" fill="#ffd83d" stroke="#000" stroke-linecap="round" stroke-linejoin="round" stroke-width="0.08" /><circle cx="7.16572" cy="12.22384" r="0.19761" fill="#ffd83d" stroke="#000" stroke-linecap="round" stroke-linejoin="round" stroke-width="0.08" /><circle cx="6.71345" cy="12.17923" r="0.19761" fill="#ffd83d" stroke="#000" stroke-linecap="round" stroke-linejoin="round" stroke-width="0.08" /><circle cx="6.26997" cy="12.2045" r="0.19761" fill="#ffd83d" stroke="#000" stroke-linecap="round" stroke-linejoin="round" stroke-width="0.08" /><circle cx="5.84718" cy="12.34927" r="0.19761" fill="#ffd83d" stroke="#000" stroke-linecap="round" stroke-linejoin="round" stroke-width="0.08" /><circle cx="5.49102" cy="12.61121" r="0.19761" fill="#ffd83d" stroke="#000" stroke-linecap="round" stroke-linejoin="round" stroke-width="0.08" /><circle cx="5.23826" cy="12.97656" r="0.19761" fill="#ffd83d" stroke="#000" stroke-linecap="round" stroke-linejoin="round" stroke-width="0.08" /><circle cx="5.11648" cy="13.40625" r="0.19761" fill="#ffd83d" stroke="#000" stroke-linecap="round" stroke-linejoin="round" stroke-width="0.08" /><circle cx="5.12108" cy="13.85202" r="0.19761" fill="#ffd83d" stroke="#000" stroke-linecap="round" stroke-linejoin="round" stroke-width="0.08" /><circle cx="5.20609" cy="14.2886" r="0.19761" fill="#ffd83d" stroke="#000" stroke-linecap="round" stroke-linejoin="round" stroke-width="0.08" /><path d="M8.59994,12.78125l-.01839.25735a11.26029,11.26029,0,0,0-1.83823-.34926c-.60026,0-1.06618.24011-1.06618.84559a3.28172,3.28172,0,0,0,.58824,1.69117l-.34927.16544a3.79014,3.79014,0,0,1-.56985-1.81985,1.17879,1.17879,0,0,1,1.25-1.15809A9.26021,9.26021,0,0,1,8.59994,12.78125Z" fill="#ffd83d" stroke="#000" stroke-linecap="round" stroke-linejoin="round" stroke-width="0.08" /><path d="M9.10242,12.89154l.07353,2.5h2.53676a3.79014,3.79014,0,0,0,.56985-1.81985,1.05717,1.05717,0,0,0-1.12132-1.04779A9.78585,9.78585,0,0,0,9.10242,12.89154Z" fill="#ffd83d" /><path d="M10.70168,12.71691c-.43054.071-1.37624.51349-1.26838,1.11213.15285.84837.64831.50791,1.30515.386l.49632.16544c.17759.18128.43911.34735.61581.12868h.29412v1.1489H8.891V12.88235Z" stroke="#000" stroke-linecap="round" stroke-linejoin="round" stroke-width="0.06" /><circle cx="9.24488" cy="12.5193" r="0.19761" fill="#ffd83d" stroke="#000" stroke-linecap="round" stroke-linejoin="round" stroke-width="0.08" /><circle cx="9.68898" cy="12.41242" r="0.19761" fill="#ffd83d" stroke="#000" stroke-linecap="round" stroke-linejoin="round" stroke-width="0.08" /><circle cx="10.13951" cy="12.29927" r="0.19761" fill="#ffd83d" stroke="#000" stroke-linecap="round" stroke-linejoin="round" stroke-width="0.08" /><circle cx="10.59178" cy="12.22384" r="0.19761" fill="#ffd83d" stroke="#000" stroke-linecap="round" stroke-linejoin="round" stroke-width="0.08" /><circle cx="11.04405" cy="12.17923" r="0.19761" fill="#ffd83d" stroke="#000" stroke-linecap="round" stroke-linejoin="round" stroke-width="0.08" /><circle cx="11.48753" cy="12.2045" r="0.19761" fill="#ffd83d" stroke="#000" stroke-linecap="round" stroke-linejoin="round" stroke-width="0.08" /><circle cx="11.91032" cy="12.34927" r="0.19761" fill="#ffd83d" stroke="#000" stroke-linecap="round" stroke-linejoin="round" stroke-width="0.08" /><circle cx="12.26648" cy="12.61121" r="0.19761" fill="#ffd83d" stroke="#000" stroke-linecap="round" stroke-linejoin="round" stroke-width="0.08" /><circle cx="12.51924" cy="12.97656" r="0.19761" fill="#ffd83d" stroke="#000" stroke-linecap="round" stroke-linejoin="round" stroke-width="0.08" /><circle cx="12.64102" cy="13.40625" r="0.19761" fill="#ffd83d" stroke="#000" stroke-linecap="round" stroke-linejoin="round" stroke-width="0.08" /><circle cx="12.63642" cy="13.85202" r="0.19761" fill="#ffd83d" stroke="#000" stroke-linecap="round" stroke-linejoin="round" stroke-width="0.08" /><circle cx="12.55141" cy="14.2886" r="0.19761" fill="#ffd83d" stroke="#000" stroke-linecap="round" stroke-linejoin="round" stroke-width="0.08" /><path d="M9.15756,12.78125l.01839.25735a11.26029,11.26029,0,0,1,1.83823-.34926c.60026,0,1.06618.24011,1.06618.84559a3.28172,3.28172,0,0,1-.58824,1.69117l.34927.16544a3.79014,3.79014,0,0,0,.56985-1.81985,1.17879,1.17879,0,0,0-1.25-1.15809A9.26021,9.26021,0,0,0,9.15756,12.78125Z" fill="#ffd83d" stroke="#000" stroke-linecap="round" stroke-linejoin="round" stroke-width="0.08" /><path d="M8.87875,10.125l-.20625.38625.20625.385.20625-.385Zm0,.975-.20625.385.20625.38625L9.085,11.485Z" fill="#ffd83d" stroke="#000" stroke-linecap="round" stroke-linejoin="round" stroke-width="0.08" /><path d="M8.14349,10.99813l.32526.20624.32421-.20624-.32421-.20625Zm.821,0,.32421.20624.32526-.20624-.32526-.20625Z" fill="#ffd83d" stroke="#000" stroke-linecap="round" stroke-linejoin="round" stroke-width="0.08" /><path d="M8.87875,10.84651a.15625.15625,0,1,1-.15625.15625A.15625.15625,0,0,1,8.87875,10.84651Z" fill="#ffd83d" stroke="#000" stroke-linecap="round" stroke-linejoin="round" stroke-width="0.08" /><circle cx="8.87875" cy="12" r="0.4182" fill="#ffd83d" stroke="#000" stroke-linecap="round" stroke-linejoin="round" stroke-width="0.08" /><path d="M8.77375,11.595c0,.12458-.00089.197-.00125.265a2.48433,2.48433,0,0,0-.2975.03125m.8075,0A2.48433,2.48433,0,0,0,8.985,11.86v-.265m-.51125.5075a2.44688,2.44688,0,0,1,.81,0" fill="none" stroke="#000" stroke-linecap="round" stroke-linejoin="round" stroke-width="0.06" /><path d="M8.47,12.7075a4.83392,4.83392,0,0,1-.38625,1.885l.4325-.175A12.6239,12.6239,0,0,0,8.745,12.75375Zm.8175,0-.275.04625a12.6239,12.6239,0,0,0,.22875,1.66375l.4325.175A4.83392,4.83392,0,0,1,9.2875,12.7075Z" fill="#ffd83d" stroke="#000" stroke-linecap="round" stroke-linejoin="round" stroke-width="0.08" /><path d="M8.87812,14.1875a.81835.81835,0,0,0-.91874.86375c-.12627-.2222-.66041-.921-1.15876-.8275a.84588.84588,0,0,0-.51375.9375.90274.90274,0,0,0-1.48874-.40375c.46568.3829.67284,1.51339,1.065,2.00375h6.03c.39215-.49036.60056-1.62085,1.06625-2.00375a.90275.90275,0,0,0-1.48876.40375.84651.84651,0,0,0-.515-.9375c-.49835-.09353-1.03124.6053-1.1575.8275A.81931.81931,0,0,0,8.87812,14.1875Z" fill="#ffd83d" stroke="#000" stroke-linecap="round" stroke-linejoin="round" stroke-width="0.08" /><path d="M11.88427,16.761c0,.22324-1.34648.46875-3.00552.46875s-3.00551-.24551-3.00551-.46875S7.21971,16.421,8.87875,16.421,11.88427,16.53779,11.88427,16.761Z" stroke="#000" stroke-linecap="round" stroke-linejoin="round" stroke-width="0.06" /><circle cx="8.87875" cy="12.57778" r="0.14017" fill="#ffd83d" stroke="#000" stroke-linecap="round" stroke-linejoin="round" stroke-width="0.06" /><circle cx="8.87875" cy="12.88109" r="0.14936" fill="#ffd83d" stroke="#000" stroke-linecap="round" stroke-linejoin="round" stroke-width="0.06" /><circle cx="8.87875" cy="13.20738" r="0.16314" fill="#ffd83d" stroke="#000" stroke-linecap="round" stroke-linejoin="round" stroke-width="0.06" /><circle cx="8.87875" cy="13.57043" r="0.18612" fill="#ffd83d" stroke="#000" stroke-linecap="round" stroke-linejoin="round" stroke-width="0.06" /><circle cx="8.87875" cy="13.97484" r="0.2045" fill="#ffd83d" stroke="#000" stroke-linecap="round" stroke-linejoin="round" stroke-width="0.06" /><path d="M8.87875,14.69574c-.02877,0-.48209.22971-.41875.32a1.44577,1.44577,0,0,1,.385.9175c0,.0555.0097.0725.03375.0725s.035-.017.035-.0725a1.44492,1.44492,0,0,1,.38375-.9175C9.36084,14.92545,8.90752,14.69574,8.87875,14.69574Z" /><path d="M6.995,14.78382c-.0136.00376-.20142.40581-.15375.445a1.29676,1.29676,0,0,1,.475.7025c.01327.0564.0487.063.03875,0a1.54807,1.54807,0,0,1,.0175-.8125c.03117-.06732-.361-.3331-.37125-.335Z" /><path d="M10.75625,14.78382c-.01026.0019-.02254.01514-.0325.04375-.02654.07632-.36992.22393-.33875.29125a1.54807,1.54807,0,0,1,.0175.8125c-.00995.063.02548.0564.03875,0a1.29676,1.29676,0,0,1,.475-.7025c.04768-.03919-.19891-.17636-.1425-.37875.01017-.03649.00235-.06249-.01125-.06625Z" /><path d="M5.64625,15.19324c-.01953-.00178-.16724.31191-.12.34625a2.125,2.125,0,0,1,.585.55375c.03981.073.09362.09967.06375.03a.95427.95427,0,0,1-.09375-.50375,1.3844,1.3844,0,0,0,.04375-.24625C6.12168,15.31021,5.658,15.1943,5.64625,15.19324Z" /><path d="M12.11125,15.19324a.09309.09309,0,0,0-.04375.02125c-.042.03317-.43168.09572-.435.15875a1.3844,1.3844,0,0,0,.04375.24625.95427.95427,0,0,1-.09375.50375c-.02987.06967.02394.043.06375-.03a2.125,2.125,0,0,1,.585-.55375c.04724-.03434-.17971-.21442-.12-.29625C12.13753,15.20722,12.13078,15.19146,12.11125,15.19324Z" /></g></svg>