<?xml version="1.0" encoding="UTF-8"?>
<svg id="Ebene_1" data-name="Ebene 1" xmlns="http://www.w3.org/2000/svg" viewBox="0 0 40 40">
  <defs>
    <style>
      .cls-1 {
        fill: #0fafff;
        stroke: #fff;
        stroke-miterlimit: 10;
        stroke-width: 2px;
      }

      .cls-2 {
        fill: #fff;
      }
    </style>
  </defs>
  <circle class="cls-1" cx="20" cy="20" r="17.2"/>
  <path class="cls-2" d="M24.9,12.9c-.25067-.08133-.50267-.15833-.756-.231-.26401-.0761-.53168-.13884-.802-.188-.28-.05167-.57767-.093-.893-.124-.31533-.03073-.65533-.0461-1.02-.0461-.76508-.01659-1.52602,.11657-2.24,.392-.62382,.25328-1.17645,.65489-1.61,1.17-.46781,.57248-.81785,1.23178-1.03,1.94-.26401,.87854-.4264,1.78446-.484,2.7,.26058-.23636,.54132-.44951,.839-.637,.30415-.19101,.62556-.35306,.96-.484,.34663-.13405,.70479-.23614,1.07-.305,.38575-.0725,.7775-.10833,1.17-.107,.58215-.00522,1.16286,.05856,1.73,.19,.49584,.11648,.97355,.29983,1.42,.545,.4112,.22791,.78545,.51686,1.11,.857,.31697,.33403,.58528,.71107,.797,1.12,.21709,.42421,.37875,.87457,.481,1.34,.10956,.4992,.16389,1.00893,.162,1.52,.00099,.4775-.05031,.95367-.153,1.42-.09971,.45464-.25663,.89481-.467,1.31-.21074,.41107-.47689,.79128-.791,1.13-.3264,.35164-.70398,.65202-1.12,.891-.45774,.26085-.94894,.458-1.46,.586-.59552,.14573-1.20694,.21628-1.82,.21-.90744,.01723-1.80793-.1615-2.64-.524-.76704-.34932-1.43663-.88155-1.95-1.55-.56521-.7522-.9764-1.60857-1.21-2.52-.2918-1.12971-.43137-2.29333-.415-3.46-.01812-1.38733,.13776-2.77145,.464-4.12,.26145-1.08842,.74114-2.11243,1.41-3.01,.61956-.80844,1.43534-1.44523,2.37-1.85,1.06055-.4412,2.20163-.65579,3.35-.63,.40733,0,.78067,.01463,1.12,.0439,.337,.0286,.648,.0681,.935,.118,.26787,.04614,.53321,.10588,.795,.179,.245,.0692,.476,.146,.695,.231l-.017,1.8932Zm-8.93,7.28c-.00181,.66593,.04565,1.33108,.142,1.99,.07592,.53462,.2042,1.06048,.383,1.57,.1453,.41609,.34792,.80988,.602,1.17,.22052,.31022,.49044,.58217,.799,.805,.29445,.20762,.62215,.36352,.969,.461,.88895,.23262,1.82786,.18689,2.69-.131,.42707-.1709,.80996-.43618,1.12-.776,.30664-.34446,.5367-.75006,.675-1.19,.15441-.48826,.23035-.99793,.225-1.51,.00667-.52199-.06927-1.04174-.225-1.54-.13688-.4412-.36825-.84729-.678-1.19-.31669-.33859-.70664-.60026-1.14-.765-.51845-.19019-1.06789-.28176-1.62-.27-.35167-.00031-.7028,.02761-1.05,.0835-.34697,.05513-.68833,.14114-1.02,.257-.3343,.11637-.65841,.2602-.969,.43-.32049,.17397-.6253,.37539-.911,.602l.008,.0035Z"/>
</svg>