<?xml version="1.0" encoding="UTF-8"?>
<svg id="Ebene_1" data-name="Ebene 1" xmlns="http://www.w3.org/2000/svg" viewBox="0 0 40 40">
  <defs>
    <style>
      .cls-1 {
        fill: #0fafff;
        stroke: #fff;
        stroke-miterlimit: 10;
        stroke-width: 2px;
      }

      .cls-2 {
        fill: #fff;
      }
    </style>
  </defs>
  <circle class="cls-1" cx="20" cy="20" r="17.2"/>
  <path class="cls-2" d="M15,25.3c.285,.124,.602,.243,.955,.358,.37118,.12044,.74835,.22158,1.13,.303,.4,.086,.82,.15533,1.26,.208,.44475,.0523,.89219,.07834,1.34,.078,.56509,.0093,1.12827-.06793,1.67-.229,.4361-.12861,.84114-.34542,1.19-.637,.30944-.264,.55262-.59692,.71-.972,.16187-.39311,.24249-.81491,.237-1.24,.00617-.46301-.08231-.9224-.26-1.35-.17252-.40411-.4397-.76081-.779-1.04-.38322-.30993-.82554-.53858-1.3-.672-.59867-.16733-1.21848-.24683-1.84-.236h-1.53v-1.82h1.53c.52003,.00794,1.03854-.05805,1.54-.196,.41069-.1121,.7926-.3109,1.12-.583,.30012-.25841,.53253-.58625,.677-.955,.15983-.41789,.23759-.86267,.229-1.31,.00263-.27152-.03237-.54209-.104-.804-.06487-.23558-.16609-.45961-.3-.664-.13116-.19878-.29359-.37505-.481-.522-.19692-.15433-.41433-.28053-.646-.375-.25652-.10518-.52378-.18197-.797-.229-.30744-.0533-.61898-.0794-.931-.078-.41469-.00076-.82896,.02641-1.24,.0813-.38053,.05008-.75783,.1222-1.13,.216-.3338,.08317-.6621,.18704-.983,.311-.26882,.10298-.5307,.22323-.784,.36v-1.91c.16496-.09134,.33452-.17411,.508-.248,.189-.0802,.392-.156,.612-.227,.219-.0714,.45-.135,.694-.193,.24533-.05713,.499-.10613,.761-.147,.264-.03953,.53433-.07103,.811-.0945,.277-.0231,.557-.0352,.843-.0352,.78915-.01209,1.57631,.08278,2.34,.282,.61547,.16136,1.19088,.44838,1.69,.843,.45559,.37264,.80984,.85415,1.03,1.4,.24161,.61767,.35918,1.27689,.346,1.94,.002,.40828-.04944,.81507-.153,1.21-.09905,.3765-.2516,.73683-.453,1.07-.20457,.33694-.45609,.64301-.747,.909-.30937,.28333-.65589,.5232-1.03,.713,.47799,.17758,.92638,.42639,1.33,.738,.36506,.28391,.68182,.62498,.938,1.01,.24833,.37773,.43405,.79307,.55,1.23,.12066,.45683,.18084,.92751,.179,1.4,.00241,.45481-.05098,.9082-.159,1.35-.10198,.41783-.264,.81866-.481,1.19-.21887,.37101-.49417,.70569-.816,.992-.34818,.30663-.7389,.56126-1.16,.756-.47872,.22037-.9824,.38188-1.5,.481-.61309,.11604-1.23604,.17198-1.86,.167-.51533,0-1.002-.02013-1.46-.0604-.42968-.0367-.85699-.09712-1.28-.181-.37292-.07461-.74041-.17417-1.1-.298-.31624-.1076-.62215-.24348-.914-.406l-.002-1.8842Z"/>
</svg>