<?xml version="1.0" encoding="UTF-8"?>
<svg id="Ebene_1" data-name="Ebene 1" xmlns="http://www.w3.org/2000/svg" viewBox="0 0 40 40">
  <defs>
    <style>
      .cls-1 {
        fill: #0fafff;
        stroke: #fff;
        stroke-miterlimit: 10;
        stroke-width: 2px;
      }

      .cls-2 {
        fill: #fff;
      }
    </style>
  </defs>
  <circle class="cls-1" cx="20" cy="20" r="17.2"/>
  <path class="cls-2" d="M14.8,27.9v-1.66l4.25-4.27c.43867-.44133,.84533-.86133,1.22-1.26,.37267-.398,.71267-.778,1.02-1.14,.30733-.366,.57833-.71933,.813-1.06,.2218-.31791,.42032-.65145,.594-.998,.15503-.3078,.27769-.63087,.366-.964,.08243-.31164,.12411-.63265,.124-.955,.00593-.44175-.06305-.8813-.204-1.3-.12831-.3755-.34348-.71539-.628-.992-.30873-.28807-.67763-.50394-1.08-.632-.50462-.15767-1.03143-.23264-1.56-.222-.458,0-.89133,.0183-1.3,.0549-.38945,.03423-.77671,.08998-1.16,.167-.35606,.07151-.70686,.16706-1.05,.286-.32171,.11207-.63347,.25088-.932,.415v-1.91c.27657-.16228,.56625-.3011,.866-.415,.33196-.12477,.67295-.22406,1.02-.297,.39274-.08269,.79014-.14146,1.19-.176,.42267-.03847,.87933-.05787,1.37-.0582,.61701-.00595,1.23316,.0473,1.84,.159,.50381,.09139,.99426,.24525,1.46,.458,.40059,.18462,.76868,.43283,1.09,.735,.30171,.28816,.55586,.6223,.753,.99,.20294,.38362,.34945,.79452,.435,1.22,.09485,.47068,.1411,.94987,.138,1.43,.00182,.48617-.06107,.97042-.187,1.44-.12642,.46348-.30069,.91257-.52,1.34-.22727,.44408-.49049,.86883-.787,1.27-.304,.41333-.63467,.82333-.992,1.23-.358,.40533-.738,.80867-1.14,1.21-.402,.404-.80867,.81067-1.22,1.22l-2.88,2.88h8.29v1.79l-11.199,.0143Z"/>
</svg>