<svg id="Ebene_1" data-name="Ebene 1" xmlns="http://www.w3.org/2000/svg" viewBox="0 0 100 100"><defs><style>.cls-1{fill:#fff;fill-rule:evenodd;}.cls-2{fill:none;stroke:#fff;stroke-miterlimit:10;stroke-width:1.2px;}</style></defs><g id="E099_media" data-name="E099 media"><polygon class="cls-1" points="42.993 46.652 42.993 44.501 61.99 37.931 61.99 40.083 42.993 46.652"/><polygon class="cls-1" points="42.989 36.618 61.99 30.048 61.99 32.2 42.989 38.77 42.989 36.618"/><path class="cls-1" d="M57.9338,62.88361c-2.78943.92426-4.85345.47838-5.62858-1.179-.515-1.10411,1.14739-3.41849,3.93682-4.344,2.78943-.923,5.06253-.87554,5.62858.72942C62.48,59.81608,60.72323,61.9606,57.9338,62.88361Zm-17.80654,6.245c-2.78943.92426-4.85346.47836-5.62858-1.179-.51505-1.10411,1.14739-3.4185,3.93682-4.344,2.78943-.923,5.06253-.87554,5.62858.72941.60939,1.72605-1.14739,3.87061-3.93682,4.79361Z"/><line class="cls-2" x1="61.393" y1="31.96859" x2="61.393" y2="58.73814"/><line class="cls-2" x1="43.58669" y1="37.10112" x2="43.58669" y2="65.04273"/></g></svg>