<?xml version="1.0" encoding="UTF-8"?>
<svg id="Ebene_1" data-name="Ebene 1" xmlns="http://www.w3.org/2000/svg" viewBox="0 0 72 72">
  <defs>
    <style>
      .cls-1 {
        fill: #fff;
      }

      .cls-2 {
        fill: none;
        stroke: #fff;
        stroke-linejoin: round;
        stroke-width: 2px;
      }

      .cls-3 {
        fill: #969696;
        fill-rule: evenodd;
      }
    </style>
  </defs>
  <g id="Icons_in_schwarz" data-name="Icons in schwarz">
    <path class="cls-1" d="M43.30419,32.73156v-7.32616h7.32615v7.32616h-7.32615Zm-7.32619-22.97885l6.71565,11.21774h-13.43126l6.71561-11.21774Z"/>
    <path class="cls-2" d="M35.978,43.69332c2.72272-.85491,5.39087-1.87481,7.98962-3.05405,3.17767-1.42616,2.99962-5.9178,2.99962-5.9178v-4.72722"/>
    <path class="cls-2" d="M35.978,20.30302V60.33202"/>
    <circle class="cls-1" cx="24.9888" cy="33.66912" r="3.66308"/>
    <circle class="cls-1" cx="35.97803" cy="58.08963" r="3.66308"/>
    <path class="cls-2" d="M35.97984,48.57743c-2.72272-.85491-5.39086-1.87482-7.98961-3.05406-3.17767-1.42616-2.99962-5.9178-2.99962-5.9178v-4.72721"/>
    <path class="cls-3" d="M54.89393,61.06144v-15.26427l-4.611,.79782v-1.85963l5.47919-1.07354h1.39032v17.39962h-2.25851Z"/>
  </g>
</svg>