<?xml version="1.0" encoding="UTF-8"?>
<svg id="Ebene_1" data-name="Ebene 1" xmlns="http://www.w3.org/2000/svg" viewBox="0 0 72 72">
  <defs>
    <style>
      .cls-1 {
        fill: #fff;
      }

      .cls-2 {
        fill: #a8a8a8;
      }
    </style>
  </defs>
  <g id="Icons_in_schwarz" data-name="Icons in schwarz">
    <path class="cls-2" d="M46.37885,17.85702c-6.3286-4.3221-14.66145-4.31572-20.98343,.01606-.54264,.37032-1.28274,.23062-1.65306-.31202-.36859-.54012-.23211-1.27647,.30556-1.64862,7.13357-4.88697,16.5356-4.89335,23.6758-.01607,.54099,.37198,.678,1.11209,.30602,1.65309-.37138,.54012-1.10987,.6777-1.65084,.30756h-.00005Zm-6.17785,8.12778c-2.5376-1.98282-6.1059-1.95926-8.61709,.05691-.51192,.41179-1.26075,.33062-1.67253-.18131-.41053-.51036-.33127-1.25656,.1773-1.6693l.00449-.00361c1.65528-1.32743,3.7133-2.05152,5.8351-2.053,2.08051-.00705,4.10242,.68875,5.738,1.9746,.51635,.40666,.60527,1.1549,.19862,1.67125-.4044,.51348-1.14724,.60472-1.66389,.20437v.00008Zm-4.34368-8.89822c3.13634-.01104,6.18831,1.01531,8.68068,2.91922,.52368,.39705,.62634,1.14346,.22928,1.66714-.39706,.52368-1.14346,.62633-1.66714,.22928h0c-4.26296-3.2347-10.15388-3.25106-14.43474-.0401-.52537,.39443-1.27102,.28828-1.66544-.23709-.39326-.52381-.28906-1.26698,.23309-1.66243l.00386-.0029c2.48254-1.87356,5.51028-2.88268,8.62044-2.87312h-.00003Z"/>
    <path class="cls-2" d="M46.37891,54.32863c.54244-.36987,1.28201-.22997,1.65188,.31247,.36843,.54033,.23122,1.27678-.30707,1.64818-7.1402,4.87727-16.54222,4.87089-23.6758-.01607-.54019-.37389-.675-1.11489-.30112-1.65508,.37215-.53767,1.1085-.67415,1.64862-.30556,6.32198,4.33179,14.65483,4.33817,20.98343,.01606h.00006Zm-6.17791-8.1277c.5171-.40572,1.26518-.31543,1.6709,.20167,.40572,.5171,.31543,1.26518-.20167,1.6709-.00131,.00103-.00262,.00205-.00393,.00307-1.63558,1.28586-3.65749,1.98164-5.738,1.97458-2.1218-.00147-4.17982-.72556-5.8351-2.053l-.00449-.0036c-.51547-.40734-.60312-1.15543-.19578-1.67091,.40734-.51547,1.15543-.60312,1.6709-.19578,.00206,.00163,.00412,.00327,.00616,.00491l.01392,.01125c2.51119,2.01617,6.07949,2.03973,8.61709,.0569h-.00001Zm-12.96407,6.02509l-.00386-.0029c-.52371-.39664-.62672-1.14272-.23008-1.66643,.39545-.52215,1.13863-.62635,1.66243-.23309,4.28086,3.21096,10.17178,3.1946,14.43474-.0401,.52256-.39854,1.26925-.298,1.66778,.22456,.39705,.52061,.29893,1.26418-.21958,1.66396l-.01036,.00786c-5.11034,3.87514-12.17017,3.89395-17.30109,.0461l.00002,.00005Z"/>
    <path class="cls-1" d="M61.25195,29.35793c.57488-.00157,1.04201-.46441,1.04889-1.03925v-.03066c-.00665-.56915-.806-1.03033-1.37341-1.03424h-.01428c-.57178,.00391-.69879,.468-.70552,1.04v.03046c.00681,.57219,.47209,1.03274,1.04433,1.03369Zm-.90117-1.0517c0-.51275,.0606-.91449,.56952-.91449,.5047,0,1.23754,.3993,1.23754,.9087v.00579c.00821,.49896-.38962,.9101-.88858,.91832s-.9101-.38962-.91831-.88858c-.00005-.00303-.00008-.00606-.00011-.00909-.00006-.00507-.00006-.01014,0-.0152l-.00006-.00544Zm.6933,.51117v-.37438h.22418l.262,.37439h.2442l-.28918-.40851c.15028-.03471,.25484-.17111,.24933-.32525v-.00647c0-.094-.36841-.17145-.42548-.22559-.08707-.08036-.20274-.12246-.3211-.11687h-.486l.33734,1.08269,.2047-.00002Zm-.07008-.89738c.13354,0,.55029,.06043,.55029,.16871v.00543c0,.10332-.0794,.16912-.213,.16912h-.26721l-.33735-.34326h.26727Zm-46.02643,4.72813c0-.67193,.60242-.95654,1.546-.95654,.39425-.01593,.78224,.10238,1.10053,.33557,.30193,.24213,.49131,.59751,.52392,.98315h4.95313c-.31482-3.5935-3.82642-4.26684-6.81391-4.26684-2.85638,0-6.49884,1.00952-6.49884,4.47412,0,5.248,8.412,3.51532,8.412,5.68695,0,.95734-.89117,1.21558-1.72912,1.21558-.47874,.0099-.94786-.13521-1.3374-.4137-.38105-.29636-.59549-.75852-.57574-1.24084h-5.18848c.28778,3.64471,3.7464,4.6015,6.89075,4.6015,5.03216,0,7.391-1.91278,7.391-4.73175-.00001-5.06739-8.67384-3.79962-8.67384-5.6872Zm24.24005-3.44092h-5.97418l-1.83453,3.387-1.72992-3.387h-6.05341l4.53342,6.46309-4.92688,7.08386h6.028l1.99109-3.8783,1.93921,3.8783h6.079l-4.743-7.10907,4.6912-6.43787Zm18.12586-.38537c-1.98681,.00055-3.02,.85089-4.19976,2.47943-.77277-1.64731-2.49107-2.6377-4.30384-2.48065-1.62878,.08151-3.10387,.98702-3.91376,2.40252v-2.01593h-4.86579v13.54694h5.36683v-6.69592c0-1.62873,.03851-3.03534,1.535-2.99713,1.4519,.03668,1.57086,.79974,1.57086,2.79046v6.90259h5.47898v-6.69592c0-1.62873-.01117-2.99011,1.52-2.99463,1.4419-.00385,1.57337,.79724,1.57337,2.788v6.90259h5.39355v-8.01469c-.00011-3.6965-1.70012-5.91888-5.15543-5.91766Z"/>
  </g>
</svg>