<?xml version="1.0" encoding="UTF-8"?>
<svg id="Layer_1" data-name="Layer 1" xmlns="http://www.w3.org/2000/svg" viewBox="0 0 44 44">
  <defs>
    <style>
      .cls-1 {
        isolation: isolate;
        opacity: .2;
      }

      .cls-1, .cls-2 {
        fill: lime;
      }

      .cls-3 {
        fill: none;
        opacity: .5;
        stroke: lime;
        stroke-miterlimit: 10;
        stroke-width: 1.025px;
      }
    </style>
  </defs>
  <rect id="Hintergrund" class="cls-3" x="1.5" y="1.5" width="41" height="41" rx="3.075" ry="3.075"/>
  <g id="Roundabout_Road_Shape" data-name="Roundabout Road Shape">
    <path id="Fläche-2" class="cls-1" d="m40.77207,16.74348l-7.15837-11.28272-5.11881,3.00603c-2.31302-1.39831-4.96439-2.13747-7.66723-2.1375-5.19556-.07882-10.01606,2.69734-12.55539,7.23076l-6.22883-.06817-.01665,13.68741,6.36437.06749c1.24937,2.23557,3.07722,4.09382,5.29189,5.37987l.04547,6.03297h14.24966l-.05614-5.92512c4.37325-2.52887,7.06492-7.19895,7.0609-12.25073,0-.10627-.00167-.21171-.00335-.31719l5.79247-3.4231Z"/>
    <path id="Kontur-2" class="cls-2" d="m26.53319,38.65962v-6.51514l.38743-.2065c4.20643-2.2308,6.8353-6.60393,6.83216-11.36529,0-.25009-.00853-.49637-.02037-.74076l-.07057-.54373,6.34247-3.75532.76777,1.21056-5.57424,3.29211s.01843.48026.01843.5371c-.00969,5.10999-2.73076,9.83089-7.14759,12.40065l-.07199.04171v5.64459h-1.46349ZM9.10256,14.95446l.1994-.41302c2.07594-4.2788,6.40636-6.83451,11.58506-6.83451,2.56354-.00439,5.06936.76086,7.19306,2.1967l.38127.25766,5.92231-3.48327-.77344-1.22482-5.09867,2.98596-.07388-.04547c-2.26673-1.40763-4.88242-2.15221-7.55065-2.14935-5.21546-.12094-10.07549,2.63387-12.65074,7.1708l-.04121.07673H2.04345v1.46259h7.05911Zm5.99903,23.70516v-6.58523l-.38033-.20839c-2.31893-1.26457-4.19175-3.21314-5.36343-5.58036l-.20129-.40546H2.04345v1.46163h6.21367l.04121.07579c1.23304,2.26489,3.05334,4.15587,5.26964,5.47424l.07057.04171v5.72607l1.46305.00002Zm11.13133-18.17314c-.00026-3.04139-2.466-5.50672-5.5074-5.50647s-5.50672,2.466-5.50647,5.5074c.00026,3.04121,2.46572,5.50647,5.50693,5.50647,3.04013-.00349,5.5037-2.46727,5.50693-5.5074Zm-1.455,0c0,2.23782-1.81411,4.05193-4.05193,4.05193s-4.05193-1.81411-4.05193-4.05193,1.81411-4.05193,4.05193-4.05193h0c2.23671.00267,4.04926,1.81522,4.05193,4.05193Zm5.94901-4.5437l2.81141-1.65034-.7346-1.26461-2.81188,1.65035.73507,1.2646Zm3.97943-2.25013l3.02355-1.74503-.78387-1.23618-2.97428,1.71665.7346,1.26456Zm-13.16621,20.58115l.01843-3.26544-1.46349-.00951-.01799,3.26544,1.46305.00951Zm0,4.4135l.01843-3.29372-1.46353-.00948-.01799,3.3032h1.46309ZM6.72213,21.13346l3.26507-.00378-.00237-1.46353-3.26507.00473.00237,1.46257Zm-4.67797,0l3.26624-.00378-.00232-1.46353-3.26578.00473.00185,1.46257Z"/>
  </g>
</svg>