<?xml version="1.0" encoding="UTF-8"?>
<svg id="Ebene_1" data-name="Ebene 1" xmlns="http://www.w3.org/2000/svg" viewBox="0 0 44 44">
  <defs>
    <style>
      .cls-1 {
        opacity: .15;
      }

      .cls-1, .cls-2 {
        fill: #00f300;
      }

      .cls-2 {
        stroke: #00f300;
        stroke-miterlimit: 10;
        stroke-width: .5px;
      }
    </style>
  </defs>
  <path id="Fläche-2" class="cls-1" d="m42.10436,16.39466l-7.37976-11.63167-5.69627,3.28307c-2.38456-1.44155-5.11793-2.20357-7.90436-2.20361-5.35625-.08126-10.32583,2.78077-12.9437,7.45439l-6.42148-.07028-.01717,14.11073,6.56121.06958c1.28801,2.30471,3.17239,4.22043,5.45556,5.54626l.04688,6.46956h14.69037l-.05788-6.35837c4.5085-2.60708,7.28343-7.4216,7.27928-12.62962,0-.10956-.00172-.21826-.00345-.327l6.39077-3.71304Z"/>
  <path id="Kontur-2" class="cls-2" d="m27.25595,39.17269v-6.71664l.39941-.21289c4.33653-2.29979,7.04671-6.80817,7.04346-11.71679,0-.25782-.00879-.51172-.021-.76367l-.07275-.56055,6.53863-3.87146.79151,1.248-5.74664,3.39393s.019.49511.019.55371c-.00999,5.26803-2.81522,10.13494-7.36865,12.78418l-.07422.043v5.81917l-1.50875.00002ZM9.28622,14.73438l.20557-.42579c2.14014-4.41113,6.60449-7.04589,11.94336-7.04589,2.64282-.00453,5.22615.7844,7.41553,2.26464l.39306.26563,6.10548-3.591-.79736-1.2627-5.25636,3.07831-.07617-.04688c-2.33683-1.45117-5.03342-2.21877-7.78418-2.21582-5.37677-.12468-10.38711,2.71533-13.042,7.39258l-.04248.0791H2.00879v1.50782h7.27743Zm6.18457,24.43831v-6.7889l-.39209-.21484c-2.39065-1.30368-4.32139-3.31251-5.52931-5.75295l-.20752-.418H2.00879v1.50683h6.40585l.04248.07813c1.27118,2.33494,3.14777,4.2844,5.43262,5.64355l.07275.043v5.90316l1.5083.00002Zm11.4756-18.73519c-.00027-3.13546-2.54227-5.67703-5.67773-5.67677s-5.67703,2.54227-5.67677,5.67773c.00027,3.13527,2.54198,5.67677,5.67725,5.67677,3.13415-.0036,5.67392-2.54358,5.67725-5.67773Zm-1.5,0c0,2.30703-1.87022,4.17725-4.17725,4.17725s-4.17725-1.87022-4.17725-4.17725,1.87022-4.17725,4.17725-4.17725h0c2.30589.00275,4.1745,1.87136,4.17725,4.17725Zm-3.3379,13.71373l.019-2.86643-1.50875-.0098-.01855,2.86643,1.5083.0098Zm0,5.05l.019-2.89559-1.50879-.00977-.01855,2.90536h1.50834Zm0-5.05l.019-2.86643-1.50875-.0098-.01855,2.86643,1.5083.0098Zm0,5.05l.019-2.89559-1.50879-.00977-.01855,2.90536h1.50834ZM7.33217,21.10449l2.86605-.0039-.00244-1.50879-2.86605.00488.00244,1.50781Zm-5.32265,0l2.86726-.0039-.00239-1.50879-2.86678.00488.00191,1.50781Z"/>
  <rect class="cls-2" x="35.63566" y="10.84376" width="2.86649" height="1.50856" transform="translate(-.88817 19.8369) rotate(-29.62024)"/>
  <polygon class="cls-2" points="31.82241 15.48708 34.33957 14.05574 33.59363 12.74421 31.06824 14.18082 31.82241 15.48708"/>
</svg>