<?xml version="1.0" encoding="UTF-8"?>
<svg id="Layer_1" data-name="Layer 1" xmlns="http://www.w3.org/2000/svg" viewBox="0 0 44 44">
  <defs>
    <style>
      .cls-1 {
        stroke-width: 1.5px;
      }

      .cls-1, .cls-2 {
        fill: none;
        stroke: lime;
        stroke-miterlimit: 10;
      }

      .cls-3 {
        fill: lime;
      }

      .cls-2 {
        opacity: .5;
        stroke-width: 1.025px;
      }
    </style>
  </defs>
  <rect id="Hintergrund" class="cls-2" x="1.5" y="1.5" width="41" height="41" rx="3.075" ry="3.075"/>
  <g id="V2">
    <line class="cls-1" x1="8.95" y1="17.495" x2="35.05" y2="17.495"/>
    <line class="cls-1" x1="30.1" y1="21.995" x2="38.2" y2="21.995"/>
    <path class="cls-1" d="m34.195,17.495l4.005,2.43v11.07c0,.49706-.40294.9-.9.9h-3.6c-.49706,0-.9-.40294-.9-.9v-1.8h-10.8"/>
    <polygon class="cls-3" points="38.92 15.92 38.47 17.72 34.6 17.72 34.6 15.92 38.92 15.92"/>
    <line class="cls-1" x1="13.9" y1="21.99501" x2="5.8" y2="21.99501"/>
    <path class="cls-1" d="m8.75312,16.82c.89098-1.18595,1.87874-2.296,2.95312-3.31875.78321-.64102.8617-1.15264,4.1625-1.32187,3.26241-.16726,6.13125-.17438,6.13125-.17438h0s2.86884.0071,6.13125.17438c3.30081.1692,3.37929.68085,4.1625,1.32187,1.07439,1.02275,2.06214,2.1328,2.95313,3.31875"/>
    <path class="cls-1" d="m9.805,17.495l-4.005,2.43v11.07c0,.49706.40294.9.9.9h3.6c.49706,0,.9-.40294.9-.9v-1.8h10.8"/>
    <polygon class="cls-3" points="5.08 15.92 5.53 17.72 9.4 17.72 9.4 15.92 5.08 15.92"/>
  </g>
</svg>