<svg xmlns="http://www.w3.org/2000/svg" version="1.1" id="Ebene_1" x="0px" y="0px" viewBox="0 0 44 44" style="enable-background:new 0 0 44 44;" xml:space="preserve">
<style type="text/css">
	.st0{fill:none;stroke:#00F300;stroke-width:2;stroke-miterlimit:10;}
	.st1{fill:#00F300;}
</style>
<g id="V2">
	<line class="st0" x1="7.5" y1="17" x2="36.5" y2="17" />
	<line class="st0" x1="31" y1="22" x2="40" y2="22" />
	<path class="st0" d="M35.5,17l4.5,2.7V32c0,0.6-0.4,1-1,1h-4c-0.6,0-1-0.4-1-1v-2H22" />
	<polygon class="st1" points="40.8,15.3 40.3,17.3 36,17.3 36,15.3  " />
	<line class="st0" x1="13" y1="22" x2="4" y2="22" />
	<path class="st0" d="M7.3,16.3c1-1.3,2.1-2.6,3.3-3.7c0.9-0.7,1-1.3,4.6-1.5c3.6-0.2,6.8-0.2,6.8-0.2l0,0c0,0,3.2,0,6.8,0.2   c3.7,0.2,3.8,0.8,4.6,1.5c1.2,1.1,2.3,2.4,3.3,3.7" />
	<path class="st0" d="M8.4,17L4,19.7V32c0,0.6,0.4,1,1,1h4c0.6,0,1-0.4,1-1v-2h12" />
	<polygon class="st1" points="3.2,15.3 3.7,17.3 8,17.3 8,15.3  " />
</g>
</svg>