<?xml version="1.0" encoding="UTF-8"?>
<svg id="Ebene_1" data-name="Ebene 1" xmlns="http://www.w3.org/2000/svg" viewBox="0 0 44 44">
  <defs>
    <style>
      .cls-1, .cls-2 {
        fill: #00f300;
      }

      .cls-1, .cls-3 {
        fill-rule: evenodd;
      }
    </style>
  </defs>
  <path class="cls-2" d="M2.58,20.60048L20.58,2.60048c.76747-.75873,2.00253-.75873,2.77,0l18,18c.75873,.76747,.75873,2.00253,0,2.77l-18,18c-.76747,.75873-2.00253,.75873-2.77,0L2.58,23.37048c-.75873-.76747-.75873-2.00253,0-2.77"/>
  <path class="cls-1" d="M3.01,20.90048L20.91,3.00048c.60851-.60511,1.5915-.60511,2.2,0l17.9,17.9c.60511,.60851,.60511,1.5915,0,2.2l-17.9,17.9c-.60851,.60511-1.5915,.60511-2.2,0L3.01,23.10048c-.60511-.60851-.60511-1.5915,0-2.2"/>
  <path class="cls-3" d="M3.57,21.50048L21.47,3.60048c.30425-.30256,.79575-.30256,1.1,0l17.9,17.9c.3031,.30403,.3031,.79597,0,1.1l-17.9,17.9c-.30425,.30256-.79575,.30256-1.1,0L3.57,22.60048c-.30311-.30403-.30311-.79597,0-1.1"/>
  <path class="cls-1" d="M15.6,24.10048c-.0878,.0206-.465-.66-.934-1.05-.212-.179-.176-.183-.188-.544-.0267-.834,.141-.822-.37-1.72-.0472-.0833-.24-.402-.14-.579,.0633-.113,.129-.192,.176-.269,.187-.307,.412-.144,.734-.065,.502,.123,1.21,.334,1.68,.505,.08757-.60829,.28765-1.19496,.59-1.73,.565-.866,.431-.628,.374-1.68-.0232-.4279-.0001-.85706,.0689-1.28-.15934-.25376-.44755-.39671-.746-.37-.14626-.04733-.27946-.12814-.389-.236-.0783-.0794-.307-.0355-.367-.163-.08159-.12436-.07259-.28738,.0222-.402,.05417-.05913,.1181-.10852,.189-.146,.08431-.04699,.17226-.08712,.263-.12,.319-.12,.705-.199,.924-.27,.45288-.12579,.92002-.193,1.39-.2,.21741-.00343,.42569-.08795,.584-.237,.14823-.08884,.23635-.25131,.23-.424-.0311-.178-.259-.24-.547-.203-.475,.0622-1.07,.168-1.42-.265-.1353-.1918-.2299-.40926-.278-.639,.14071,.24603,.33607,.45645,.571,.615,.1844,.14148,.43122,.1713,.644,.0778,.223-.135-.277-.437-.0111-.959-.05466,.40502,.22936,.77766,.63438,.83233,.10758,.01452,.21705,.00519,.32062-.02733,.398-.186,.162-1.49-.411-1.76,.637,.00111,.686,.686,.853,1.14,.0928,.25,.338,.179,.473-.00389,.41772-.50739,.34502-1.25735-.16237-1.67506-.02788-.02295-.05678-.04462-.08663-.06494,.56511,.15286,.89931,.73489,.74645,1.3-.00916,.03385-.01999,.06722-.03245,.09999-.291,.717-.985,1.35-1.08,2.15,.2286-.18238,.5363-.23101,.81-.128-.268,.428-.288,.668-.778,.81,.0715,.47728,.07225,.9625,.00221,1.44-.06454,.21229-.08423,.43569-.0578,.656,.171,1.35-.0633,1.57,1.22,3.05,.60648,.51468,1.27501,.95141,1.99,1.3,.31539,.25768,.70355,.41015,1.11,.436,.80627,.01618,1.56996,.36509,2.11,.964,.35289-.0198,.68157-.18577,.907-.458,.2545-.36148,.37862-.79872,.352-1.24,.26879,.26217,.45094,.60031,.522,.969,.0455,.317-.152,.528-.448,.758-.2932,.24945-.65657,.40179-1.04,.436,.1573,.40071,.19414,.83864,.106,1.26-.0628,.986-.641,1.79,.17,2.68,.345,.438,.951,.97,1.03,1.31,.0828,.342-.117,.757,.0111,2.1,.142,.325,.0028,.449,.629,.809,.0139,.306,.0283,.611,.0428,.917-.533-.214-.636-.495-.874-.671-.587-.437-.591-1.05-.645-2.36-.04-.996-2.76-2.49-3.14-2.93-.426-.494-.533-1.09-.931-1.41-1.42-1.11-3.72-.686-5.6-1.91-.238-.0966-.519-.149-.758-.244-.48451-.45605-1.02965-.84304-1.62-1.15,.0942,.51836,.1477,1.04329,.16,1.57,.0666,.34,.441,.387,.522,.65-.0217,.128-.0428,.256-.0644,.384-.0139,.128,.0583,.36-.0422,.383"/>
</svg>