<svg xmlns="http://www.w3.org/2000/svg" viewBox="0 0 84 44"><defs><style>.cls-1,.cls-2{fill:#fff;}.cls-1{fill-rule:evenodd;}</style></defs><g id="E102_EPB_defekt"><g id="Version_6"><path class="cls-1" d="M19.268,41.068,60.093.243l2.535,2.535L21.803,43.603Z"/><path class="cls-1" d="M52.21228,16.72931l-8.42145,8.42151a17.719,17.719,0,0,0,2.11524-.18476,11.7526,11.7526,0,0,0,2.42914-.64251A7.37521,7.37521,0,0,0,50.203,23.27728a5.867,5.867,0,0,0,1.31787-1.43139,6.119,6.119,0,0,0,.78022-1.7912,9.103,9.103,0,0,0,.00927-3.03327C52.28436,16.91931,52.24353,16.8277,52.21228,16.72931Z"/><path class="cls-1" d="M39.17175,17.62878V15.31165H41.489l3.25257-3.25257C44.286,12.02277,43.8186,12,43.31555,12H34V22.80048Z"/><polygon class="cls-1" points="34.942 34 39 34 39 29.77 34.942 34"/><path class="cls-2" d="M22.92175,33.87866A22.43422,22.43422,0,0,1,26.11572,6.101l-3.5299-3.53753a27.42885,27.42885,0,0,0-3.27521,34.92627Z"/><path class="cls-2" d="M63.734,5.20746,60.16736,8.77411A22.4339,22.4339,0,0,1,57.90472,37.8783l3.53882,3.52856A27.41793,27.41793,0,0,0,63.734,5.20746Z"/><path class="cls-2" d="M27.40179,29.39862A16.35794,16.35794,0,0,1,49.403,7.39764L51.7005,5.10016A19.47812,19.47812,0,0,0,25.09991,31.7005Z"/><path class="cls-2" d="M55.77911,13.16235A16.36327,16.36327,0,0,1,33.16455,35.77722l-2.25384,2.25385A19.49006,19.49006,0,0,0,58.03076,10.91071Z"/></g></g></svg>