<svg xmlns="http://www.w3.org/2000/svg" viewBox="0 0 84 44"><defs><style>.cls-1{fill:none;stroke:#fff;stroke-miterlimit:10;stroke-width:3px;}.cls-2{fill:#fff;}</style></defs><g id="E104_Oel"><g id="Version_2-3" data-name="Version_2"><polyline class="cls-1" points="68.462 15.911 51.331 35.5 19.5 35.5 19.5 18.5 43.908 18.5 47.635 21.992 72.88 14.621 76.996 18.752"/><polygon class="cls-2" points="38 9 38 12 34 12 34 19 31 19 31 12 27 12 27 9 38 9"/><path class="cls-2" d="M79.157,30.5415a2.9513,2.9513,0,1,1-5.9026,0c0-1.63,2.9513-7.81471,2.9513-7.81471S79.157,28.91154,79.157,30.5415Z"/><path class="cls-2" d="M20.93688,23.39134,4.46312,18.88507,7.30938,8.96814l13.6275,3.81266ZM8.08805,16.31188,18,19.04484V15.5L8.987,13.10232Z"/></g></g></svg>