<svg id="SVG_Anpassung" data-name="SVG Anpassung" xmlns="http://www.w3.org/2000/svg" viewBox="0 0 84 44"><defs><style>.cls-1{fill:none;stroke:#fff;stroke-miterlimit:10;stroke-width:3px;}.cls-2{fill:#fff;}</style></defs><path class="cls-1" d="M47.44743,34.253a2.6542,2.6542,0,0,0-1.70788-.57829c-2.624,0-2.624,3-5.248,3s-2.624-3-5.24807-3c-2.62471,0-2.62471,3-5.24941,3-2.62329,0-2.62329-3-5.24657-3-2.62557,0-2.62557,3-5.25113,3-2.62737,0-2.62737-3-5.25474-3a2.65956,2.65956,0,0,0-1.708.57669"/><path class="cls-2" d="M69.626,39.84474,68.82033,37.77H64.93848l-.80273,2.07474H62.97852l3.30762-8.68946h1.22461l3.32813,8.68946Zm-2.39942-6.6211q-.0996-.25488-.19043-.53613a5.04465,5.04465,0,0,1-.14941-.58008,5.42586,5.42586,0,0,1-.16406.5791q-.09667.2798-.18457.53711l-1.26563,3.457h3.20508Z"/><path class="cls-2" d="M78.21677,39.84474,76.21,36.83888q-.041-.06738-.08789-.14356c-.03125-.05078-.06152-.10351-.08984-.1582s-.05469-.11035-.082-.165c-.0254-.05664-.04981-.11035-.07129-.16309-.02539.05274-.05176.10645-.07911.16309-.02734.05469-.05468.11035-.082.165s-.05566.10742-.085.1582-.05859.09864-.08789.14356l-2.004,3.00586H72.2402l2.98536-4.459-2.81543-4.23047h1.3125L75.542,33.918c.0293.04492.0586.09375.08789.14551s.05761.10449.085.15918.05469.11035.082.165c.02735.05664.05371.1123.07911.16894.02147-.05664.04492-.1123.07225-.16894.02539-.05469.05275-.11036.082-.165.02736-.05469.05664-.10743.08789-.15918.0293-.05176.05957-.10059.08887-.14551l1.834-2.7627h1.29785L76.52634,35.377l3.00586,4.46778Z"/><path class="cls-2" d="M73.25443,22.32181a2.48272,2.48272,0,0,1-4.96544,0c0-1.37117,2.48272-6.574,2.48272-6.574S73.25443,20.95064,73.25443,22.32181Z"/><polyline class="cls-1" points="64.711 10.42 50.299 26.5 23.505 26.5 23.505 12.401 44.055 12.401 47.19 15.536 68.427 9.335 71.889 12.81"/><polygon class="cls-2" points="39 4 39 7 36 7 36 13.013 33 13.013 33 7 30 7 30 4 39 4"/><path class="cls-2" d="M25,16.70783,10.89681,12.85,13.3335,4.36012,25,7.62414ZM14.00012,10.6471,22,12.85V9.8L14.76973,7.89939Z"/><path class="cls-2" d="M59.15444,39.84473V33.81836c0-.19533-.01017-1.05175.00982-1.25684-.08469.19922-2.79511,4.84278-2.79511,4.84278h-.72953s-2.7665-4.74121-2.80982-4.84281c.01969.21485.0128,1.06158.0128,1.25684V39.8447H51.735V31.15527h1.276L55.53624,35.33c.09255.15234.16582.31366.254.4659.09045.156.15637.25607.21562.38411a3.82355,3.82355,0,0,1,.21266-.38606,4.76419,4.76419,0,0,1,.26583-.464l2.52532-4.17473H60.265v8.68946Z"/></svg>