<svg id="SVG_Anpassung" data-name="SVG Anpassung" xmlns="http://www.w3.org/2000/svg" viewBox="0 0 84 44"><defs><style>.cls-1{fill:#fff;}.cls-2{fill:none;stroke:#fff;stroke-miterlimit:10;stroke-width:3px;}</style></defs><path class="cls-1" d="M73.25443,22.32181a2.48272,2.48272,0,0,1-4.96544,0c0-1.37117,2.48272-6.574,2.48272-6.574S73.25443,20.95064,73.25443,22.32181Z"/><polyline class="cls-2" points="64.711 10.42 50.299 26.5 23.505 26.5 23.505 12.401 44.055 12.401 47.19 15.536 68.427 9.335 71.889 12.81"/><polygon class="cls-1" points="39 4 39 7 36 7 36 13.013 33 13.013 33 7 30 7 30 4 39 4"/><path class="cls-1" d="M25,16.70783,10.89681,12.85,13.3335,4.36012,25,7.62414ZM14.00012,10.6471,22,12.85V9.8L14.76973,7.89939Z"/><path class="cls-1" d="M17.04,38.71248a4.52683,4.52683,0,0,0,.43877.16236c.16633.05127.34256.0978.53047.13672s.383.07025.58531.093a5.62564,5.62564,0,0,0,.6069.03323,2.86885,2.86885,0,0,0,.8011-.10064,1.73962,1.73962,0,0,0,.57992-.28007,1.22125,1.22125,0,0,0,.35425-.42534,1.195,1.195,0,0,0,.12137-.53547,1.32484,1.32484,0,0,0-.04226-.3475.92543.92543,0,0,0-.12946-.28194,1.07914,1.07914,0,0,0-.22028-.23356,1.84822,1.84822,0,0,0-.31469-.19843,3.78746,3.78746,0,0,0-.41539-.17659c-.15554-.05506-.32727-.112-.51428-.169-.23287-.07027-.45045-.14241-.65455-.21742a4.41291,4.41291,0,0,1-.55744-.24685,2.52938,2.52938,0,0,1-.44955-.301,1.64539,1.64539,0,0,1-.54216-.85637,2.26308,2.26308,0,0,1-.06923-.60383,2.5799,2.5799,0,0,1,.06923-.60762,1.951,1.951,0,0,1,.21129-.526,1.82223,1.82223,0,0,1,.35608-.43295,2.03564,2.03564,0,0,1,.50259-.32277,2.78045,2.78045,0,0,1,.65368-.20416,4.33708,4.33708,0,0,1,.811-.07026c.21939,0,.42528.00854.61679.02753a4.47863,4.47863,0,0,1,.53584.08069,3.18913,3.18913,0,0,1,.4585.13387,2.60449,2.60449,0,0,1,.38932.18608v.87442a3.09546,3.09546,0,0,0-.419-.187,3.73256,3.73256,0,0,0-.47023-.13386,4.33993,4.33993,0,0,0-.52508-.08264q-.27781-.02706-.58891-.02753a2.49174,2.49174,0,0,0-.71838.09208,1.43408,1.43408,0,0,0-.50619.25635,1.054,1.054,0,0,0-.303.39971,1.39782,1.39782,0,0,0-.06113.85731.89393.89393,0,0,0,.12677.27344.97678.97678,0,0,0,.21579.22406,1.85226,1.85226,0,0,0,.31378.18988,4.12832,4.12832,0,0,0,.41808.1709c.15645.05507.33358.112.52958.1709q.35872.10964.66893.22406a4.25949,4.25949,0,0,1,.56194.25349,2.60262,2.60262,0,0,1,.44775.30666,1.65745,1.65745,0,0,1,.52777.86682,2.52563,2.52563,0,0,1-.01079,1.21145,1.94853,1.94853,0,0,1-.23376.53832,2.02361,2.02361,0,0,1-.392.45193,2.28925,2.28925,0,0,1-.54665.34464,3.138,3.138,0,0,1-.70489.21932,4.49462,4.49462,0,0,1-.86224.0769q-.33852,0-.65455-.02753a5.43355,5.43355,0,0,1-.5934-.08264,4.04726,4.04726,0,0,1-.51519-.13387,2.38942,2.38942,0,0,1-.41809-.18229Z"/><path class="cls-1" d="M24.92558,39.98243V32.01759h5.0625v.85351H25.95976V35.2H29.2v1.133H25.95976v2.79785h4.03906v.85156Z"/><path class="cls-1" d="M38.15005,40l-3.70731-5.40074q-.18552-.26631-.38125-.58852c-.12979-.21481-.23073-.43649-.34149-.665.0092.11083.00182.22364.01.3384.00716.11379.00951.22756.01462.33939.00409.11279.00716.22068.0092.32565q.00306.15594.00307.29128v5.35949H32.7V32h1.155l3.70731,5.39973c.06031.09024.12163.18342.183.28151.06235.09808.1247.2001.18909.30506.06337.10495.12573.21284.186.3227.06133.10986.11333.20917.16959.321-.00919-.1079-.01112-.20819-.01827-.321-.00819-.11378-.01431-.2256-.0184-.33647-.00511-.10987-.00817-.21678-.01023-.32075-.00209-.103-.00306-.2001-.00306-.29034V32H39.3v8Z"/><path class="cls-1" d="M42.00623,38.71246a4.52309,4.52309,0,0,0,.43876.16235c.16634.05128.34255.0978.53047.13672s.383.07026.58531.093a5.62564,5.62564,0,0,0,.6069.03323,2.86885,2.86885,0,0,0,.8011-.10064,1.73962,1.73962,0,0,0,.57992-.28007,1.22123,1.22123,0,0,0,.35424-.42534,1.19507,1.19507,0,0,0,.12138-.53547,1.32568,1.32568,0,0,0-.04226-.3475.92578.92578,0,0,0-.12946-.28194,1.07917,1.07917,0,0,0-.22029-.23356,1.84738,1.84738,0,0,0-.31469-.19842,3.7882,3.7882,0,0,0-.41538-.1766c-.15559-.05506-.32727-.112-.51428-.169-.23287-.07026-.45046-.14241-.65455-.21742A4.41,4.41,0,0,1,43.176,35.925a2.52886,2.52886,0,0,1-.44956-.301,1.64564,1.64564,0,0,1-.54216-.85638,2.26182,2.26182,0,0,1-.06922-.60382,2.58044,2.58044,0,0,1,.06922-.60763,1.95063,1.95063,0,0,1,.21129-.526,1.8226,1.8226,0,0,1,.356-.433,2.03664,2.03664,0,0,1,.5026-.32277,2.78059,2.78059,0,0,1,.65368-.20416,4.33708,4.33708,0,0,1,.811-.07026c.21938,0,.42527.00854.61679.02753a4.48079,4.48079,0,0,1,.53583.08069,3.18752,3.18752,0,0,1,.4585.13388,2.60385,2.60385,0,0,1,.38931.18607v.87443a3.09415,3.09415,0,0,0-.419-.187,3.733,3.733,0,0,0-.47023-.13386,4.33977,4.33977,0,0,0-.52507-.08264q-.27781-.02706-.58891-.02753a2.49179,2.49179,0,0,0-.71838.09208,1.43433,1.43433,0,0,0-.50619.25635,1.05394,1.05394,0,0,0-.303.39971,1.39784,1.39784,0,0,0-.06113.85732.89377.89377,0,0,0,.12677.27343.97633.97633,0,0,0,.21578.22406,1.85234,1.85234,0,0,0,.31379.18988,4.12506,4.12506,0,0,0,.41808.1709c.15645.05507.33357.112.52957.1709q.35874.10965.66894.22406a4.25949,4.25949,0,0,1,.56194.25349,2.602,2.602,0,0,1,.44774.30667,1.6575,1.6575,0,0,1,.52778.86681,2.52568,2.52568,0,0,1-.01079,1.21146,1.94911,1.94911,0,0,1-.23377.53832,2.02448,2.02448,0,0,1-.392.45193,2.289,2.289,0,0,1-.54665.34463,3.13737,3.13737,0,0,1-.70489.21932,4.49392,4.49392,0,0,1-.86225.0769q-.3385,0-.65455-.02753a5.43355,5.43355,0,0,1-.5934-.08264,4.04726,4.04726,0,0,1-.51519-.13387,2.38965,2.38965,0,0,1-.41808-.18229Z"/><path class="cls-1" d="M52.98781,39.99964a4.11594,4.11594,0,0,1-1.09958-.13481,2.92988,2.92988,0,0,1-.86444-.38639,2.61,2.61,0,0,1-.642-.60856,3.29134,3.29134,0,0,1-.43906-.8003A4.69111,4.69111,0,0,1,49.69,37.105a7.30478,7.30478,0,0,1-.08-1.09746A7.052,7.052,0,0,1,49.692,34.912a4.66869,4.66869,0,0,1,.25464-.96549,3.39481,3.39481,0,0,1,.443-.806,2.637,2.637,0,0,1,.64784-.61328,3.00814,3.00814,0,0,1,.86639-.39018,4.08762,4.08762,0,0,1,1.10057-.13671,4.18182,4.18182,0,0,1,1.10152.13386,2.97811,2.97811,0,0,1,.8664.38639,2.64043,2.64043,0,0,1,.64492.60856,3.26805,3.26805,0,0,1,.44.80125,4.6312,4.6312,0,0,1,.2527.96455,7.17,7.17,0,0,1,.08,1.09745A7.053,7.053,0,0,1,56.308,37.088a4.588,4.588,0,0,1-.25562.96645,3.39052,3.39052,0,0,1-.44588.8041,2.658,2.658,0,0,1-.64883.61328,3.00223,3.00223,0,0,1-.86931.39019A4.069,4.069,0,0,1,52.98781,39.99964Zm.01659-.84113a2.44329,2.44329,0,0,0,.75516-.10822,1.879,1.879,0,0,0,1.02934-.788,2.92157,2.92157,0,0,0,.30149-.63512,4.08324,4.08324,0,0,0,.17464-.76233,6.86476,6.86476,0,0,0,0-1.72877,4.14658,4.14658,0,0,0-.17464-.76329,2.89333,2.89333,0,0,0-.30149-.63416,1.94773,1.94773,0,0,0-.43906-.48133,1.885,1.885,0,0,0-.59125-.30664,2.71515,2.71515,0,0,0-1.51131,0,1.90072,1.90072,0,0,0-.59223.30664,1.95859,1.95859,0,0,0-.442.48133,2.85247,2.85247,0,0,0-.30343.63416,4.06851,4.06851,0,0,0-.1727.76329,6.9885,6.9885,0,0,0,0,1.72877,4.00747,4.00747,0,0,0,.1727.76233,2.88127,2.88127,0,0,0,.30343.63512,1.8947,1.8947,0,0,0,1.03421.788,2.46073,2.46073,0,0,0,.75712.1082Z"/><path class="cls-1" d="M63.98277,39.98243,62.14563,37.294c-.05614-.08008-.10737-.15236-.15465-.21584a1.7028,1.7028,0,0,0-.1389-.167.9477.9477,0,0,0-.14381-.12011.8341.8341,0,0,0-.15761-.082.77769.77769,0,0,0-.18225-.04589,1.68563,1.68563,0,0,0-.21966-.01368h-.88557v3.333H59.22v-7.9649h2.57889a4.51865,4.51865,0,0,1,1.20374.1416,2.21617,2.21617,0,0,1,.84814.42676,1.733,1.733,0,0,1,.5014.71191,2.78345,2.78345,0,0,1,.16352.999,2.57567,2.57567,0,0,1-.1389.88378,1.94851,1.94851,0,0,1-.98111,1.10352,2.95017,2.95017,0,0,1-.74865.25488,1.31861,1.31861,0,0,1,.31718.23242,2.58974,2.58974,0,0,1,.29454.35645L65.22,39.9824ZM61.593,35.84669a3.22975,3.22975,0,0,0,.80184-.08984,1.49459,1.49459,0,0,0,.57922-.28028,1.19242,1.19242,0,0,0,.35166-.48437,1.86975,1.86975,0,0,0,.11722-.69531,1.84582,1.84582,0,0,0-.10244-.64454,1.04593,1.04593,0,0,0-.3231-.45214,1.45467,1.45467,0,0,0-.56148-.26758,3.369,3.369,0,0,0-.82745-.08887h-1.3653v3.00293Z"/></svg>