<svg xmlns="http://www.w3.org/2000/svg" viewBox="0 0 84 44"><defs><style>.cls-1,.cls-2{fill:#fff;}.cls-1{fill-rule:evenodd;}.cls-3{fill:none;stroke:#fff;stroke-width:3.5px;}</style></defs><g id="E108_Lichtwarnung"><g id="Version_4-3" data-name="Version_4"><path class="cls-1" d="M58.5,21.5v-4h8v4Zm-33,0h-8v-4h8ZM44,44H40V36h4Z"/><path class="cls-1" d="M55.08148,9.247,52.25305,6.41852,57.9099.76167,60.73833,3.5901ZM31.747,32.58148,26.0901,38.23833,23.26167,35.4099l5.65685-5.65685ZM60.73833,35.4099,57.9099,38.23833l-5.65685-5.65685,2.82843-2.82843Z"/><rect class="cls-2" x="25.50431" y="1.00431" width="4" height="8" transform="translate(4.51724 20.91421) rotate(-45)"/><path class="cls-3" d="M42,7.776A11.79724,11.79724,0,1,1,30.278,19.573,11.7598,11.7598,0,0,1,42,7.776Z"/><path class="cls-1" d="M42,22a2.02025,2.02025,0,0,1-2-2V13a2,2,0,0,1,4,0v7A2.02025,2.02025,0,0,1,42,22Z"/><path class="cls-1" d="M42.00042,26.99577A1.99577,1.99577,0,1,1,44,25.00042,1.99892,1.99892,0,0,1,42.00042,26.99577Z"/><path class="cls-1" d="M36,0H48V8L45,7V3H39V7L36,8Z"/></g></g></svg>