<svg xmlns="http://www.w3.org/2000/svg" viewBox="0 0 84 44"><defs><style>.cls-1{fill:#fff;}</style></defs><g id="E10B_FAS_Resume"><path class="cls-1" d="M33.28668,8.01031c-.08178-.11834-.16223-.225-.24286-.322q.12351-.05291.242-.11255A3.18057,3.18057,0,0,0,34.87036,5.777,4.05149,4.05149,0,0,0,35.091,4.39,4.37963,4.37963,0,0,0,34.834,2.835a2.87961,2.87961,0,0,0-.827-1.18292A3.511,3.511,0,0,0,32.65833.96271,6.61778,6.61778,0,0,0,30.879.74725h-4.0246V12.72577h2.42511V8.13293h.71027a1.81121,1.81121,0,0,1,.23437.01362.54937.54937,0,0,1,.13147.03228.64842.64842,0,0,1,.12189.06348.8001.8001,0,0,1,.113.098,1.80408,1.80408,0,0,1,.149.17957c.05713.07983.1258.17639.2002.28454l2.508,3.70179.14881.21954h2.902l-.53229-.78143ZM32.62531,4.39a2.09814,2.09814,0,0,1-.12537.77277,1.11791,1.11791,0,0,1-.3327.46509,1.53658,1.53658,0,0,1-.60071.28961,3.84567,3.84567,0,0,1-.96924.10785H29.27948V2.88715H30.645a4.03362,4.03362,0,0,1,1.00421.10644,1.501,1.501,0,0,1,.57764.27069.95385.95385,0,0,1,.2893.413A2.05209,2.05209,0,0,1,32.62531,4.39Z"/><polygon class="cls-1" points="39.982 10.552 39.982 7.696 44.253 7.696 44.753 7.696 44.753 7.196 44.753 6.026 44.753 5.526 44.253 5.526 39.982 5.526 39.982 2.924 45.035 2.924 45.535 2.924 45.535 2.424 45.535 1.247 45.535 0.747 45.035 0.747 38.057 0.747 37.557 0.747 37.557 1.247 37.557 12.226 37.557 12.726 38.057 12.726 45.049 12.726 45.549 12.726 45.549 12.226 45.549 11.052 45.549 10.552 45.049 10.552 39.982 10.552"/><path class="cls-1" d="M54.85718,8.24786a2.81619,2.81619,0,0,0-.95691-1.48578,4.44534,4.44534,0,0,0-.75458-.49157,7.08994,7.08994,0,0,0-.90863-.38666c-.31659-.11121-.65948-.22028-1.0257-.32684q-.43321-.12333-.77484-.23676a5.62987,5.62987,0,0,1-.57476-.22241,2.2964,2.2964,0,0,1-.38422-.21826.9513.9513,0,0,1-.21265-.20764.71871.71871,0,0,1-.113-.23182,1.2132,1.2132,0,0,1-.04255-.34259,1.26961,1.26961,0,0,1,.10688-.5285,1.00762,1.00762,0,0,1,.30572-.37817,1.72108,1.72108,0,0,1,.58753-.27716,3.461,3.461,0,0,1,.93957-.11133c.29321,0,.57367.01251.83362.03717a6.55209,6.55209,0,0,1,.7326.10766,5.62062,5.62062,0,0,1,.64307.17463,4.22261,4.22261,0,0,1,.5611.23675l.72784.37274V1.37958l-.25665-.143a4.49715,4.49715,0,0,0-.65692-.296,5.32237,5.32237,0,0,0-.757-.21081,7.6799,7.6799,0,0,0-.85687-.12268c-.29932-.02729-.62543-.04126-.96729-.04126a7.29393,7.29393,0,0,0-1.30383.10846A4.88387,4.88387,0,0,0,48.658.99762a3.54729,3.54729,0,0,0-.87232.53351,3.05325,3.05325,0,0,0-.63592.73388,3.15565,3.15565,0,0,0-.37567.88178,4.03627,4.03627,0,0,0-.11847.98773,3.49558,3.49558,0,0,0,.1217.99133,2.84287,2.84287,0,0,0,.37873.822,2.98429,2.98429,0,0,0,.60119.64661,4.41056,4.41056,0,0,0,.75965.483,7.53877,7.53877,0,0,0,.89569.37586c.31475.10937.64972.21374,1.008.31561.27045.07825.52.15717.74628.23377a5.36673,5.36673,0,0,1,.568.22766,2.26956,2.26956,0,0,1,.38391.22857,1.10947,1.10947,0,0,1,.22785.22742.789.789,0,0,1,.11725.24225,1.30379,1.30379,0,0,1,.04266.355,1.10087,1.10087,0,0,1-.124.52521,1.23461,1.23461,0,0,1-.3833.43274,2.15729,2.15729,0,0,1-.70447.319,4.03888,4.03888,0,0,1-1.0669.12567,8.10886,8.10886,0,0,1-.85644-.04614c-.29578-.03156-.575-.07343-.8299-.12439-.26025-.05072-.51123-.11225-.74835-.18329a6.32323,6.32323,0,0,1-.60943-.212l-.69165-.28711v2.26917l.26361.14142a4.20914,4.20914,0,0,0,.7102.29364,7.19742,7.19742,0,0,0,.83106.20587,9.1718,9.1718,0,0,0,.94116.12286c.3255.0271.66876.041,1.01837.041a7.63351,7.63351,0,0,0,1.38379-.11823,5.3352,5.3352,0,0,0,1.16211-.34332,4.00108,4.00108,0,0,0,.93469-.55866,3.42423,3.42423,0,0,0,.68781-.75317,3.14169,3.14169,0,0,0,.4143-.904,3.87814,3.87814,0,0,0,.018-1.982Z"/><polygon class="cls-1" points="55.889 36.915 47.458 36.915 46.205 30.219 46.128 29.811 45.713 29.811 36.18 29.811 35.778 29.811 35.692 30.204 34.224 36.915 25.798 36.915 23.024 36.915 25.624 37.884 40.675 43.491 40.85 43.556 41.025 43.491 56.063 37.884 58.661 36.915 55.889 36.915"/><path class="cls-1" d="M59.26874,16.41412c-3.3432-.0827-6.02039-.12457-7.95722-.12457a11.1477,11.1477,0,0,1-4.41381-.96649,8.50146,8.50146,0,0,0-3.13678-.77509q-.08835,0-.17774.00306c-.90808.02728-3.17932.043-5.584.05969l-.08374.00061c-4.64063.03235-7.735.0592-8.43763.13464a3.021,3.021,0,0,0-2.2984.92236,2.6886,2.6886,0,0,0-.51294,2.21119A34.87386,34.87386,0,0,0,28.102,23.24164c.17688.49463.71649,2.00329,3.88446,2.55511,1.56885.27375,4.6225.6427,7.07617.93915,1.24213.14972,2.75562.33215,2.98731.38013a6.243,6.243,0,0,0,1.19128.10126,7.09169,7.09169,0,0,0,2.75641-.5091,17.53931,17.53931,0,0,0,1.60651-.90234A14.75613,14.75613,0,0,1,49.861,24.59912c.34143-.00329,3.5083-.01086,9.3963-.02161l.49909-.00091V22.37671l-.50092.00091c-5.888.01069-9.06354.0185-9.43854.02326-.78576.00934-1.78405.57751-3.33477,1.51214-.52887.319-1.07569.64881-1.38819.79a4.89664,4.89664,0,0,1-1.86041.31378,4.06387,4.06387,0,0,1-.7381-.05566c-.29638-.06091-1.22949-.17487-3.14343-.40625-2.3056-.27826-5.46314-.6593-6.98889-.92493-1.24573-.21753-2.00421-.61139-2.19318-1.13891a32.017,32.017,0,0,1-1.32666-4.93274.76768.76768,0,0,1,.02124-.47571c.03858-.046.18262-.12561.71094-.13989.10883-.00311.19318-.00788.24579-.01465.54492-.06415,4.91736-.09442,8.11-.11658,2.45472-.0169,4.77332-.0329,5.71973-.0617l.082-.001a6.52219,6.52219,0,0,1,2.35828.62109,13.20065,13.20065,0,0,0,5.22033,1.11988c1.92737,0,4.59626.04193,7.93244.12451l.51239.01269V16.42621Z"/></g></svg>