<svg xmlns="http://www.w3.org/2000/svg" viewBox="0 0 84 44"><defs><style>.cls-1{fill:#fff;fill-rule:evenodd;}</style></defs><g id="E113_Zuendschluessel"><path class="cls-1" d="M55.366,38.30916l-1.399,1.399-16.084-16.084-16.771,16.771-1.414-1.414,16.771-16.771L20.385,6.12716l1.4-1.4,16.083,16.084,15.771-15.771,1.414,1.414-15.771,15.771Z"/><polygon class="cls-1" points="39.475 17.083 36.261 17.083 37.868 18.69 39.475 17.083"/><path class="cls-1" d="M60.16,10.10217a11.81038,11.81038,0,0,0-10.773,7.02v-.039H46.5451l-5.14178,5.142,4.595,4.595H49.358a11.83794,11.83794,0,1,0,10.802-16.718Zm4.268,15.429a3.52956,3.52956,0,1,1,3.506-3.53A3.51816,3.51816,0,0,1,64.428,25.53113Z"/><polygon class="cls-1" points="34.139 22.002 29.221 17.083 16.235 17.083 12.019 20.162 18.312 26.82 21.577 21.999 25.238 26.82 28.777 21.999 31.477 24.699 34.139 22.002"/></g></svg>