<svg xmlns="http://www.w3.org/2000/svg" viewBox="0 0 84 44"><defs><style>.cls-1{fill:#fff;fill-rule:evenodd;}</style></defs><g id="E11F_Reifendruck"><g id="Version_4-2" data-name="Version_4"><path class="cls-1" d="M42.01406,4.17173c1.83236,0,3.041,1.64616,3.041,3.68647V19.80825c0,2.03367-1.20868,3.528-3.041,3.528-1.82837,0-3.034-1.49435-3.034-3.528V7.8582C38.98,5.81789,40.18569,4.17173,42.01406,4.17173Z"/><path class="cls-1" d="M38.6823,29.07351a3.31568,3.31568,0,1,1,3.31455,3.22392A3.2683,3.2683,0,0,1,38.6823,29.07351Z"/><path class="cls-1" d="M55.30341,41.80228h-1.8108V39.44114H50.4738v2.36114H46.75806V39.44114H43.86037v2.36114H40.13971V39.44114H37.242v2.36114H33.46177V39.44114H30.50253v2.36114h-2.756a1.68037,1.68037,0,0,1-1.594-1.12728c-.35568-1.03084-.50655-1.67067-.645-2.20362-.05862-.22847-.1176-.43187-.18676-.62472-.04351-.122-.09719-.23864-.16379-.38085-.11761-.25375-.2889-.584-.44516-.90374a11.82537,11.82537,0,0,0-.568-1.07654c-.23789-.37078-.51167-.70072-.77529-1.07141a13.82233,13.82233,0,0,1-.85206-1.39146c-.21756-.396-.39909-.75136-.58093-1.15767-.24547-.55357-.49361-1.18816-.72389-1.8126-.2356-.63488-.44783-1.25447-.63461-1.86362-.17394-.57892-.32261-1.15273-.4504-1.71636-.12786-.56857-.23293-1.13744-.30979-1.7518a22.22029,22.22029,0,0,1-.1407-2.4017c-.0076-.72617.01026-1.432.0307-2.077.018-.49761.03325-.9596.09489-1.47753.06889-.60421.1996-1.28982.32748-1.88908.10222-.47728.20463-.8987.32756-1.34558.13309-.49248.289-1.01555.46815-1.51829.17927-.4977.38134-.975.61656-1.47754.26125-.55869.5604-1.15273.84711-1.65043.21745-.38085.4273-.70062.63726-1.06619.25831-.44193.514-.94961.75714-1.47762a10.52606,10.52606,0,0,0,.66025-1.7518,12.39167,12.39167,0,0,0,.24293-1.40163c.05632-.391.12027-.75136.15884-1.14751.03819-.40118.05111-.48175.07144-.97936a.8418.8418,0,0,1,.84189-.80227h3.95171a.8456.8456,0,0,1,.83922.77187c.0383.53324.07942.64914.08437,1.015a3.798,3.798,0,0,1-.05633.78689,14.03568,14.03568,0,0,1-.49353,1.92442,7.24484,7.24484,0,0,1-.41724.99521,9.6952,9.6952,0,0,1-.62435,1.05631,10.538,10.538,0,0,1-.80854,1.03578c-.238.26914-.46825.50284-.714.77188-.31465.35046-.64971.76674-.9595,1.17306-.29688.391-.56544.77682-.80589,1.14751a11.83344,11.83344,0,0,0-.59375,1.02571c-.22771.43681-.45543.92425-.655,1.39631-.18915.44175-.35825.86345-.50388,1.28488-.14592.42635-.26876.853-.38381,1.30482a14.47035,14.47035,0,0,0-.33021,1.757,15.83144,15.83144,0,0,0-.09719,1.69585c-.01017.58415-.01017,1.17306.02308,1.76215a12.33032,12.33032,0,0,0,.24549,1.7671,17.95715,17.95715,0,0,0,.49134,1.74163c.16131.49761.32745.975.51954,1.447.18155.447.38874.8988.61153,1.33038.22.43188.46064.85329.72655,1.26949.29678.46227.538,1.13724.8988,1.5941.38114.47728.7905.94449,1.1436,1.31005.28672.29972.53219.53314.82147.79211a21.57833,21.57833,0,0,0,2.60405,2.202H52.7214a21.91219,21.91219,0,0,0,2.634-2.202c.289-.259.53712-.49239.82118-.79211.3532-.36556.676-.83277,1.05231-1.31005.36081-.45686.66623-1.13183.96036-1.5941a14.30283,14.30283,0,0,0,.72694-1.26949c.22506-.43158.42968-.8834.6138-1.33038.19218-.472.35586-.94943.51954-1.447a17.84552,17.84552,0,0,0,.48879-1.74163,12.03539,12.03539,0,0,0,.2432-1.7671c.03818-.58909.03818-1.178.028-1.76215a16.50013,16.50013,0,0,0-.09728-1.69585,14.45017,14.45017,0,0,0-.3327-1.757c-.11247-.45182-.238-.87847-.38369-1.30482-.14593-.42143-.31227-.84313-.50141-1.28488-.20236-.47206-.43-.9595-.65759-1.39631-.18953-.36556-.379-.69056-.59385-1.02571-.23789-.37069-.509-.75649-.806-1.14751-.3096-.40632-.6422-.8226-.95939-1.17306-.24321-.269-.47853-.50274-.71413-.77188a10.551,10.551,0,0,1-.80588-1.03578,9.3247,9.3247,0,0,1-.62433-1.05631,7.24484,7.24484,0,0,1-.41725-.99521,14.45873,14.45873,0,0,1-.49618-1.92442A4.0178,4.0178,0,0,1,53.3636,4.044c.0076-.36584.04609-.54111.08693-1.07435a.84209.84209,0,0,1,.83924-.77188h3.9518A.83937.83937,0,0,1,59.08089,3c.023.49761.03583.63755.06916,1.03873.04085.39615.1048.75648.16113,1.14751a13.60853,13.60853,0,0,0,.2432,1.40163,10.98951,10.98951,0,0,0,.65987,1.7518c.2432.528.50151,1.03569.75753,1.47762.20986.36557.41952.68534.63706,1.06619.28653.4977.58835,1.09174.84959,1.65043.23265.50255.435.97984.61152,1.47754.18163.50274.3401,1.02581.47329,1.51829.12026.44688.22267.8683.3249,1.34558.12816.59926.256,1.28487.33013,1.88908.0589.51793.07676.97992.09223,1.47753.02044.645.04085,1.35081.03325,2.077a22.1799,22.1799,0,0,1-.14334,2.4017,16.63624,16.63624,0,0,1-.30971,1.7518c-.1252.56363-.27873,1.13744-.45268,1.71636-.18191.60915-.39671,1.22874-.632,1.86362-.228.62444-.47606,1.259-.72429,1.8126-.18155.40631-.36072.76171-.57816,1.15767a14.31887,14.31887,0,0,1-.85215,1.39146c-.26354.37069-.54237.70063-.7752,1.07141a11.82836,11.82836,0,0,0-.57067,1.07654c-.15855.31977-.3249.65-.44783.90374-.06394.14221-.115.25888-.16113.38085a6.3505,6.3505,0,0,0-.18676.62472c-.13813.53295-.28908,1.17278-.6422,2.20362C57.60953,41.35045,56.02238,41.80228,55.30341,41.80228Z"/></g></g></svg>