<svg xmlns="http://www.w3.org/2000/svg" viewBox="0 0 84 44"><defs><style>.cls-1{fill:#fff;fill-rule:evenodd;}</style></defs><g id="E127_service"><path id="Version_3-3" data-name="Version_3" class="cls-1" d="M57.71833,14.75233a1.486,1.486,0,0,0,.8595-1.863,1.45857,1.45857,0,0,0-2.0142-.3231l-26.9721,14.526a1.48425,1.48425,0,0,0-.8586,1.863,1.45584,1.45584,0,0,0,2.0106.324Zm11.5362-10.098-6.0714,1.6344-1.1367,4.3497,3.1653,3.2445,6.0318-1.611a1.05416,1.05416,0,0,1-.1278,1.0278,7.50021,7.50021,0,0,1-4.7781,3.9798,7.3987,7.3987,0,0,1-5.8707-.8937l-29.7504,16.9596a9.30479,9.30479,0,0,1-14.6196,6.4449,2.67161,2.67161,0,0,1-.963-1.6425l8.1225-2.1762,1.2411-4.6818-3.4245-3.492-8.1153,2.169a2.83107,2.83107,0,0,1-.171-1.6326,9.22276,9.22276,0,0,1,14.2758-3.8205l29.8233-14.8392a7.44907,7.44907,0,0,1,11.3769-6.1992,1.8915,1.8915,0,0,1,.9873,1.161Z"/></g></svg>