<svg xmlns="http://www.w3.org/2000/svg" viewBox="0 0 84 44"><defs><style>.cls-1{fill:#fff;fill-rule:evenodd;}</style></defs><g id="E146_BRAKE"><path id="Version_1-3" data-name="Version_1" class="cls-1" d="M83,29v4H71.4153l.016-22s11.51281.014,11.5318.015v3.98256L75,15v5h7v4H75v5ZM64.8037,33,57.61032,22.96365V33C57.77026,32.998,54,33,54,33V11.004s3.43838.012,3.61032.011v9.95738c.011,0,6.78653-9.97237,6.78653-9.97237h4.51736L61.14,21.996,69.403,33ZM46.30543,27.94284H39.11205C39.09305,27.94184,37.76753,33,37.76753,33H33.97391l6.16576-21.985H45.2778L52.02835,33H47.92384ZM42.67975,14.97356l-2.54008,9.98237H45.2778C45.27381,24.96492,42.67975,14.97356,42.67975,14.97356ZM27.89812,25.01091,32.21655,33H27.75917l-3.8516-7.10342q-.18442-.34187-.33787-.59578a4.14083,4.14083,0,0,0-.29789-.43584,1.64456,1.64456,0,0,0-.2979-.2939,1.32085,1.32085,0,0,0-.34187-.17793,1.75674,1.75674,0,0,0-.42785-.09c-.15894-.015-.34187-.022-.5498-.022h-1.0866L20.61477,33C20.62777,33.002,17,33,17,33V11s6.68566.014,6.69765.015a8.73537,8.73537,0,0,1,2.735.2959,5.514,5.514,0,0,1,2.17821,1.20556,5.17043,5.17043,0,0,1,1.33151,2.04426,8.42973,8.42973,0,0,1,.45384,2.91494,7.56653,7.56653,0,0,1-.31789,2.27117,6.2797,6.2797,0,0,1-.85469,1.76836,5.24681,5.24681,0,0,1-1.24655,1.25754,5.171,5.171,0,0,1-1.49045.74173,3.03679,3.03679,0,0,1,.77871.59878A4.20069,4.20069,0,0,1,27.89812,25.01091Zm-1.6434-8.94075a3.38683,3.38683,0,0,0-.76672-1.16558c-.33288-.22092-.51281-.32888-.88668-.5578a5.20667,5.20667,0,0,0-1.9313-.34487H20.61477v6.97046l2.4781.047a4.38818,4.38818,0,0,0,1.41149-.21193,2.71945,2.71945,0,0,0,1.07061-.65276,2.89825,2.89825,0,0,0,.67575-1.1026,4.7139,4.7139,0,0,0,.23592-1.57343A3.88794,3.88794,0,0,0,26.25472,16.07016ZM13.70029,30.133a4.7361,4.7361,0,0,1-.90168,1.19857,5.09443,5.09443,0,0,1-1.29852.90067,6.99055,6.99055,0,0,1-1.72338.56979A10.91443,10.91443,0,0,1,7.6055,33c-.037-.001-6.5876,0-6.5876,0L1,11H6.68084a11.83425,11.83425,0,0,1,3.15585.30289A5.26306,5.26306,0,0,1,11.854,12.43448a4.59685,4.59685,0,0,1,1.19656,1.83233,7.24352,7.24352,0,0,1,.39486,2.4791,7.86729,7.86729,0,0,1-.14895,1.58942,5.48253,5.48253,0,0,1-.43484,1.29953,4.48236,4.48236,0,0,1-.69874,1.03862,4.794,4.794,0,0,1-.94466.80071,5.56043,5.56043,0,0,1,1.34551.90467,5.30284,5.30284,0,0,1,.99764,1.23555,5.90357,5.90357,0,0,1,.61977,1.54544,7.56221,7.56221,0,0,1,.21192,1.83134,8.06629,8.06629,0,0,1-.16893,1.68238A5.64035,5.64035,0,0,1,13.70029,30.133ZM9.79371,15.80025a2.274,2.274,0,0,0-.50082-.86768,2.24072,2.24072,0,0,0-.86169-.5588,3.54813,3.54813,0,0,0-1.24555-.19693H4.63358v5.7999H6.97273a4.07774,4.07774,0,0,0,1.3925-.20893,2.24242,2.24242,0,0,0,.92066-.59878,2.35821,2.35821,0,0,0,.51082-.95665,4.77528,4.77528,0,0,0,.15894-1.28853A3.67091,3.67091,0,0,0,9.79371,15.80025Zm.8117,9.32861a3.04431,3.04431,0,0,0-.5548-1.15158A2.56308,2.56308,0,0,0,9.06,23.22655a3.62549,3.62549,0,0,0-1.47046-.2679H4.63558v6.96447H7.90739a3.2968,3.2968,0,0,0,1.31153-.23492,2.24806,2.24806,0,0,0,.88967-.66575,2.82128,2.82128,0,0,0,.50682-1.04762,5.42866,5.42866,0,0,0,.16194-1.3785A5.89228,5.89228,0,0,0,10.60541,25.12886Z"/></g></svg>