<svg xmlns="http://www.w3.org/2000/svg" viewBox="0 0 84 44"><defs><style>.cls-1{fill:#fff;}.cls-2{fill:red;}</style></defs><g id="E149_Vwarn_KMH_RU"><g id="Version_2-2" data-name="Version_2"><circle class="cls-1" cx="42" cy="22" r="22"/><path class="cls-2" d="M42,.85621a21.10169,21.10169,0,1,0,.08433,0Q42.04214.85612,42,.85621Zm0,36.75771A15.6139,15.6139,0,1,1,57.61387,22,15.61389,15.61389,0,0,1,42,37.61392Z"/><path class="cls-1" d="M42,.85A21.15,21.15,0,1,1,20.85,22,21.174,21.174,0,0,1,42,.85M42,0A22,22,0,1,0,64,22,22,22,0,0,0,42,0Z"/><path d="M30.02477,19.84082h1.05469v2.63965h.50391a1.40991,1.40991,0,0,0,.25928-.01953.521.521,0,0,0,.19189-.07129.73307.73307,0,0,0,.16406-.14356,2.7475,2.7475,0,0,0,.17871-.23437l1.47657-2.1709h1.19824l-1.585,2.376a1.97458,1.97458,0,0,1-.17578.22851,1.707,1.707,0,0,1-.20655.19727,1.43958,1.43958,0,0,1-.23437.15625,1.25008,1.25008,0,0,1-.25928.10058,1.23165,1.23165,0,0,1,.25928.09473,1.47146,1.47146,0,0,1,.23437.15039,1.672,1.672,0,0,1,.20655.19336,2.01106,2.01106,0,0,1,.17578.22363l1.64648,2.43457H33.90075l-1.52344-2.2207a2.7475,2.7475,0,0,0-.17871-.23437.73307.73307,0,0,0-.16406-.14356.53869.53869,0,0,0-.19189-.07129,1.50177,1.50177,0,0,0-.25928-.01953h-.50391v2.68945H30.02477Z"/><path d="M35.97873,19.84082h1.11505l1.55832,2.66309c.033.06054.06561.12109.09773.18359.03213.06055.06287.124.09224.18848s.05644.12988.08122.19824c.02478.0664.04726.13672.06745.209q.033-.10839.073-.21093c.02662-.06836.05461-.13477.084-.20118.02937-.06445.06012-.1289.09224-.18945.03212-.0625.06561-.12109.10049-.17773L40.896,19.84082H42v6.15527h-.95812V22.24023q0-.13476.00276-.28418c.00183-.0996.00413-.20019.00688-.30371.00275-.10156.00688-.20507.01239-.30859s.01285-.20508.022-.30469c-.03671.09571-.07571.19434-.117.29492s-.08443.2002-.1294.29981-.09131.19726-.139.292-.09544.1836-.14316.26758l-1.2417,2.19434h-.6415l-1.2417-2.19434q-.07433-.13183-.15005-.27832t-.14592-.29883q-.0702-.15234-.1349-.30762t-.11977-.30468c.00734.10156.01469.206.022.3125s.0133.21289.01789.31836c.00459.10742.00826.21093.011.3125s.00413.19921.00413.293v3.75586h-.95812Z"/><path d="M42.40519,26.99387l3.91407-7.981h1.01953l-3.90235,7.981Z"/><path d="M51.86293,23.65527a2.2443,2.2443,0,0,1-.312.14649,2.8084,2.8084,0,0,1-.36182.11035,3.37594,3.37594,0,0,1-.41308.06836,4.36943,4.36943,0,0,1-.46289.02344,3.58984,3.58984,0,0,1-.69434-.06055,2.17088,2.17088,0,0,1-.55078-.17578,1.516,1.516,0,0,1-.416-.28711,1.44728,1.44728,0,0,1-.28857-.39649,1.96909,1.96909,0,0,1-.167-.502,3.165,3.165,0,0,1-.0542-.60547V19.84082h1.05762v2.08594a1.528,1.528,0,0,0,.0791.51269.9244.9244,0,0,0,.24756.377,1.10933,1.10933,0,0,0,.43212.23242,2.22021,2.22021,0,0,0,.63282.0791q.167,0,.33252-.00879t.32519-.02637c.10645-.01172.21143-.02636.31494-.04589.10352-.01758.20313-.03907.29883-.0625V19.84082h1.05469v6.15527H51.86293Z"/></g></g></svg>