<svg xmlns="http://www.w3.org/2000/svg" viewBox="0 0 84 44"><defs><style>.cls-1{fill:#fff;}.cls-2{fill:red;}</style></defs><g id="E14A_Vwarn_MPH_RU"><g id="Version_2-2" data-name="Version_2"><circle class="cls-1" cx="42" cy="22" r="22"/><path class="cls-2" d="M42,.85621a21.10169,21.10169,0,1,0,.08433,0Q42.04214.85612,42,.85621Zm0,36.75771A15.6139,15.6139,0,1,1,57.61387,22,15.61389,15.61389,0,0,1,42,37.61392Z"/><path class="cls-1" d="M42,.85A21.15,21.15,0,1,1,20.85,22,21.174,21.174,0,0,1,42,.85M42,0A22,22,0,1,0,64,22,22,22,0,0,0,42,0Z"/><path d="M29.75439,20.13184h1.10352l1.65967,2.46875c.03418.05273.06787.10742.102.16308s.06738.11328.09961.17188c.03222.05957.063.11914.09228.18066q.04469.09083.082.1875c.02491-.06445.05274-.12793.0835-.18945q.04541-.0923.09375-.18164c.03223-.0586.06543-.11621.09961-.17188.03369-.05469.06885-.1084.10449-.16015l1.65967-2.46875H36.022v5.64257h-.95312V22.36914q0-.123.00146-.26074c.001-.09082.00244-.18457.00537-.2793.00244-.09472.00635-.18945.01075-.28418s.01025-.1875.01757-.27637q-.05933.12306-.125.25489c-.04394.08789-.08935.1748-.13574.26172s-.09375.17089-.14258.2539c-.04785.082-.09668.16114-.14453.23633l-1.3457,2.04395h-.63379l-1.35059-2.04981q-.07543-.11573-.15039-.24316c-.05029-.085-.09961-.1709-.14795-.25879s-.09423-.17578-.13818-.26465-.08545-.17578-.125-.26172c.00537.0918.01123.18555.01758.28223s.01123.19336.01465.291.00683.19336.00927.28614c.00293.09277.0044.18261.0044.26855v3.40527h-.95606Z"/><path d="M36.95557,20.13184h.97754v3.4375q0,.10546-.00586.23437c-.00342.08594-.00782.17383-.01319.26563-.00537.09082-.01172.18261-.019.27343-.00684.0918-.01514.17871-.02393.26075.043-.082.08838-.165.13575-.24707s.09668-.16309.14746-.24317c.05127-.0791.102-.15723.15332-.2334q.07617-.11425.15185-.21679l2.7334-3.53125h.93457v5.64257h-.97461V22.32617c0-.0791.00147-.166.00391-.26074q.0044-.14209.01367-.29c.00635-.09863.01367-.19629.02246-.29492.00928-.09863.02-.19043.03223-.27637-.04444.09082-.09082.18262-.13965.27442-.04785.09277-.09766.18261-.14893.27148-.05078.08887-.10254.17383-.15429.25684-.05176.082-.105.1582-.15869.22851L37.895,25.77441h-.93945Z"/><path d="M42.51555,27.13912l3.75683-8.27149h.95606l-3.749,8.27149Z"/><path d="M51.79443,23.63672a2.72574,2.72574,0,0,1-.32129.14551,2.88724,2.88724,0,0,1-.36523.10937,3.24318,3.24318,0,0,1-.416.06836,4.517,4.517,0,0,1-.47412.02344,3.76633,3.76633,0,0,1-.65527-.05371,2.17552,2.17552,0,0,1-.5332-.16309,1.608,1.608,0,0,1-.41211-.26953,1.39128,1.39128,0,0,1-.29248-.377,1.8903,1.8903,0,0,1-.17481-.48633,2.7707,2.7707,0,0,1-.05908-.59473V20.13184h.99072v1.83691a1.584,1.584,0,0,0,.07813.51953.8876.8876,0,0,0,.2456.376,1.07547,1.07547,0,0,0,.43116.22851,2.30047,2.30047,0,0,0,.63378.07618q.18238,0,.35743-.01172.17431-.01173.33935-.03516c.11035-.01465.21778-.03418.32227-.05762.105-.02343.20654-.0498.30517-.08007V20.13184h.98828v5.64257h-.98828Z"/></g></g></svg>