<svg xmlns="http://www.w3.org/2000/svg" viewBox="0 0 84 44"><defs><style>.cls-1,.cls-2{fill:#fff;}.cls-1{fill-rule:evenodd;}</style></defs><g id="E159_EPB"><g id="Version_4-2" data-name="Version_4"><path class="cls-1" d="M35,33V13h9.037a18.58312,18.58312,0,0,1,2.788.192,11.351,11.351,0,0,1,2.261.566,6.926,6.926,0,0,1,1.738.927,5.40319,5.40319,0,0,1,1.231,1.275,5.32687,5.32687,0,0,1,.732,1.608,7.74011,7.74011,0,0,1-.009,2.757,5.38358,5.38358,0,0,1-.759,1.628,5.48877,5.48877,0,0,1-1.282,1.301,7.32662,7.32662,0,0,1-1.817.951,12.08107,12.08107,0,0,1-2.363.584,19.69592,19.69592,0,0,1-2.915.198L40,25v8Zm8.133-11a7.92515,7.92515,0,0,0,2.147-.257,4.05489,4.05489,0,0,0,1.462-.718,2.80508,2.80508,0,0,0,.838-1.123,3.30048,3.30048,0,0,0,.009-1.848,2.78626,2.78626,0,0,0-.79-1.096,3.72373,3.72373,0,0,0-1.335-.698A6.47042,6.47042,0,0,0,43.571,16H40v6Z"/><path class="cls-2" d="M25.62079,21.997A16.37932,16.37932,0,1,0,41.99845,5.615,16.38083,16.38083,0,0,0,25.62079,21.997Zm-3.12068,0A19.5,19.5,0,1,1,41.99845,41.5,19.497,19.497,0,0,1,22.50011,21.997Z"/><g id="Versuch_3"><path class="cls-2" d="M61.46265,2.6131,57.92383,6.14166a22.44673,22.44673,0,0,1-.01911,31.73664l3.53882,3.52856A27.43783,27.43783,0,0,0,61.46265,2.6131Z"/><path class="cls-2" d="M22.60571,41.45563l3.53-3.53754a22.44759,22.44759,0,0,1-.02-31.81714l-3.5299-3.53753a27.43895,27.43895,0,0,0,.01989,38.89221Z"/></g></g></g></svg>