<svg xmlns="http://www.w3.org/2000/svg" viewBox="0 0 84 44"><defs><style>.cls-1{fill:#fff;}.cls-2{fill:none;stroke:#fff;stroke-width:2.20092px;}</style></defs><g id="E165_ev_mode_off"><g id="V2"><path class="cls-1" d="M47.607,40.993,42.35876,26H45.636l2.96857,9.61779q.157.51266.30665,1.0287.14894.51671.27085,1.049.11145-.537.25059-1.049.13983-.51165.31138-1.0287L52.79437,26h3.10974l-5.2482,14.993Z"/><line class="cls-2" x1="22.51631" y1="40.99296" x2="59.81" y2="3.80704"/><polygon class="cls-1" points="33.051 26 31.303 26 31.303 27.707 33.051 26"/><polygon class="cls-1" points="34.226 34.499 39.869 34.499 39.869 32.092 35.977 32.092 31.303 36.752 31.303 40.993 40.867 40.993 40.867 38.587 34.226 38.587 34.226 34.499"/><polygon class="cls-1" points="40.786 27.297 39.701 28.379 40.786 28.379 40.786 27.297"/><path class="cls-1" d="M23.006,19.3476l.05469.1159a5.66224,5.66224,0,0,0,10.24261.03265l.05469-.1192h6.376l2.05554-2.04962H31.80219a3.62248,3.62248,0,0,1-7.2248,0h-.46692l-2.728-.07025a3.26949,3.26949,0,0,1-.32733-.02527l-.18122-.02447v-.21308a2.90365,2.90365,0,0,1,.58527-2.14679c.52978-.64978,1.11261-1.15338,3.80792-1.71991,1.45129-.30523,5.60126-.84887,6.06976-.91009l.10205-.01715a1.791,1.791,0,0,0,1.07587-.53467l.20648-.17957c.37061-.29876.80078-.68408,1.21711-1.05548,1.38519-1.23993,3.28222-2.93774,5.01843-3.40789A29.29062,29.29062,0,0,1,49.97571,7.061a9.91446,9.91446,0,0,1,1.57287.53552l1.55835-1.55384a13.875,13.875,0,0,0-2.67578-.97827c-3.10016-.70446-8.8949-.862-12.01062-.01715C36.21417,5.644,34.109,7.528,32.57117,8.90338c-.38855.34937-.79181.71094-1.1518,1.00318l-.3208.27673-.06366.00818c-.04407.00567-4.58172.59338-6.19061.93133-3.03082.63751-4.08545,1.34522-4.97028,2.42762a4.91861,4.91861,0,0,0-1.04889,3.44549c.00159,1.5166.79419,2.25043,2.49451,2.30841Z"/><path class="cls-1" d="M64.36005,11.80768c-.59015-2.00232-1.93213-2.19495-3.23-2.38111a16.53733,16.53733,0,0,1-1.6587-.30365c-.11505-.02783-.26269-.0874-.397-.134l-1.57776,1.57318a9.10782,9.10782,0,0,0,1.48834.55262,18.35021,18.35021,0,0,0,1.84638.33709c1.21954.17548,1.34686.19428,1.56482.93463a15.46313,15.46313,0,0,1,.72973,4.56049l.00165.147-.13879.0506a5.41493,5.41493,0,0,1-1.75336.17792h-.04083a2.262,2.262,0,0,0-.22937.00409l-1.05707.00085a3.62294,3.62294,0,0,1-7.22565,0H50.71167L48.65613,19.377h2.47052l.05548.12a5.6611,5.6611,0,0,0,10.2312-.01306l.05548-.11591.129-.00323c1.61865-.0376,3.55322-.4441,3.5769-2.168A17.53375,17.53375,0,0,0,64.36005,11.80768Z"/></g></g></svg>