<svg xmlns="http://www.w3.org/2000/svg" viewBox="0 0 84 44"><defs><style>.cls-1{fill:none;stroke:#fff;stroke-width:2.35403px;}.cls-2,.cls-3{fill:#fff;fill-rule:evenodd;}.cls-3{fill-opacity:0.502;}</style></defs><g id="E187_AdBlue_defekt"><g id="Version_2"><path class="cls-1" d="M19.468,39.48855l-5.71306.06247c.31689-9.24591,3.809-14.87567,7.09741-17.38814l2.03442,3.46495S19.468,29.40334,19.468,39.48855Z"/><path class="cls-2" d="M52.05772,10.60187,48.02961,3.56513a4.92309,4.92309,0,0,0-6.77056-1.818L26.79263,10.24152a5.08417,5.08417,0,0,0-2.2309,5.88417l-2.00817,1.24855a1.29761,1.29761,0,0,0-.42554,1.76552L25.85916,25.339a1.2982,1.2982,0,0,0,1.75466.45179l2.04167-1.18516a5.71732,5.71732,0,0,0,6.72257.68629l13.96936-8.202A4.78458,4.78458,0,0,0,52.05772,10.60187ZM26.70389,17.42313a.9314.9314,0,0,0,.37212-.47624c.11046.01.22183.02354.33409.02354a3.56962,3.56962,0,0,0,2.65372-1.18426,3.56843,3.56843,0,0,0,5.31015,0,3.56539,3.56539,0,0,0,5.30744,0,3.56741,3.56741,0,0,0,5.30924,0,3.613,3.613,0,0,0,.93709.72251L35.249,23.36615a3.51,3.51,0,0,1-4.594-.96063.93879.93879,0,0,0-1.225-.2526l-2.13674,1.2413-2.776-4.61209ZM45.99065,12.4018a.94031.94031,0,0,0-.9398.9407,1.71512,1.71512,0,1,1-3.42964,0,.93935.93935,0,1,0-1.8787,0,1.71468,1.71468,0,1,1-3.42873,0,.93981.93981,0,1,0-1.87961,0,1.71557,1.71557,0,1,1-3.43055,0,.9398.9398,0,1,0-1.8796,0,1.73287,1.73287,0,0,1-1.71392,1.74742,1.6744,1.6744,0,0,1-.8393-.2345,2.79755,2.79755,0,0,1,1.35085-2.68812L42.38808,3.67377A2.65069,2.65069,0,0,1,44.43337,3.394a2.70292,2.70292,0,0,1,1.6605,1.28113L50.122,11.71188a2.54755,2.54755,0,0,1-.39113,3.03852,4.0778,4.0778,0,0,1-1.08648.33952,1.73287,1.73287,0,0,1-1.71391-1.74742A.93974.93974,0,0,0,45.99065,12.4018Z"/><path class="cls-3" d="M35.03173,24.25525l-8.04535-.19557-3.45681-5.47221,1.933-1.46584V15.59694H46.80732l.46809,2.09147ZM14.5924,38.86111c.28249-8.24816,3.953-13.87883,6.2907-15.696l1.70667,2.77776s-3.46948,3.92218-3.46948,12.9182Z"/></g><path id="Version_3" class="cls-2" d="M58.97522,31.48239c.624-.144,1.04442-.65.93717-1.12578a1.04134,1.04134,0,0,0-1.32923-.59522l-21.28539,5.0299c-.62581.14819-1.04565.64964-.93654,1.126a1.03939,1.03939,0,0,0,1.32658.59517ZM68.79751,26.652l-4.489.00448-1.58809,2.78932,1.58285,2.82262,4.45731.00433a.75261.75261,0,0,1-.27816.68512,5.35473,5.35473,0,0,1-4.03076,1.861A5.28231,5.28231,0,0,1,60.56859,33.117L36.91737,39.31142a6.6431,6.6431,0,0,1-11.27311,1.74121,1.90738,1.90738,0,0,1-.36038-1.3107l6.00353.00114,1.72149-2.999-1.71583-3.04122-5.99724-.00477a2.02124,2.02124,0,0,1,.184-1.15744,6.58453,6.58453,0,0,1,10.55079.005L59.34,27.82689a5.31821,5.31821,0,0,1,8.99156-2.17134,1.35033,1.35033,0,0,1,.46616.98315Z"/></g></svg>