<svg xmlns="http://www.w3.org/2000/svg" viewBox="0 0 84 44"><defs><style>.cls-1{fill:none;stroke:#fff;stroke-miterlimit:10;stroke-width:2.25px;}.cls-1,.cls-3{fill-rule:evenodd;}.cls-2,.cls-3{fill:#fff;}</style></defs><g id="E19A_EA_Off"><path class="cls-1" d="M20.76978,43.1097,63.23718.664"/><path class="cls-2" d="M26.417,33.22375l2.13556-2.13446c-4.77026-4.548-9.29083-10.506-9.29083-16.75921a8.99633,8.99633,0,0,1,17.99072-.002l3-.001a8.9374,8.9374,0,0,1,8.99121-8.86231,10.36892,10.36892,0,0,1,1.90149.16993,2.62946,2.62946,0,0,1,.51795.11163l.07519.03131V2.68506s-.04742-.01007-.59314-.08783a13.47912,13.47912,0,0,0-1.90149-.13239,12.02246,12.02246,0,0,0-10.49219,6.124,12.01751,12.01751,0,0,0-22.48974,5.74121C16.26172,21.59167,21.21869,28.24274,26.417,33.22375Z"/><path class="cls-2" d="M53.65979,25.96423c-4.85815,6.48267-12.18481,11.373-14.903,13.05432-1.07874-.68109-3.195-2.07849-5.64655-4.00146L30.958,37.16827a67.94777,67.94777,0,0,0,7.00787,4.88642l.85645.42285.7788-.46192c2.10431-1.25042,12.10517-7.49212,17.71259-16.05139.3244-.49511.33038-.50818.33038-.50818H54.02765A5.86237,5.86237,0,0,1,53.65979,25.96423Z"/><polygon class="cls-3" points="50.653 9 46 9 46 13.651 50.653 9"/><polygon class="cls-3" points="58.657 1 54 1 54 5.655 58.657 1"/><polygon class="cls-3" points="60 9 60 8.141 53.138 15 54 15 54 23 60 23 60 15 68 15 68 9 60 9"/></g></svg>