<svg xmlns="http://www.w3.org/2000/svg" viewBox="0 0 84 44"><defs><style>.cls-1{fill:#fff;}.cls-2{fill:none;stroke:#fff;stroke-miterlimit:10;stroke-width:2.25px;fill-rule:evenodd;}</style></defs><g id="E19D_ADA_MKE_Off"><path class="cls-1" d="M34.02264,25.62122a6.52319,6.52319,0,0,1-1.464-3.61329c-2.32434.21186-4.79241.52625-7.14636.91132a13.46,13.46,0,0,0,3.5492,7.7605Z"/><path class="cls-1" d="M45.36584,22.76813a6.49433,6.49433,0,0,1-5.11132,5.10864l-6.24939,6.24609c.39581.156.7973.30066,1.21.42035,1.241.07355,2.55017.11353,3.93939.11353a35.818,35.818,0,0,0,4.28522-.27533A13.54781,13.54781,0,0,0,52.6427,22.652c-2.11835-.24616-4.32288-.45728-6.53864-.62165Z"/><path class="cls-1" d="M27.72369,31.91681a39.63026,39.63026,0,0,1-8.77935-4.17169,4.91646,4.91646,0,0,0-2.26172-.49414c-1.04492-.06153-1.31446-.12989-1.38379-.30371,1.81341-1.4823,14.56164-3.69318,21.42077-4.02155l2.38758-2.38635c-.27216-.0022-.54474-.00617-.81616-.00617-.25391,0-25.36622,1.53516-25.36622,6.19043,0,2.66016,2.44532,2.80371,3.62012,2.873a3.6621,3.6621,0,0,1,1.26172.20605,43.74627,43.74627,0,0,0,8.06006,3.97016Z"/><path class="cls-1" d="M59.24121,22.14062c-2.73212-.37725-7.1048-.91455-11.98474-1.26214L45.04419,23.0896A166.47458,166.47458,0,0,1,67.42676,25.915c-3.46778,2.4873-16.61035,7.56738-28.27149,7.56738-1.55481,0-2.97912-.07324-4.314-.19525L32.72266,35.4046a46.57018,46.57018,0,0,0,6.43261.42743c13.25293,0,31.41309-6.71191,31.41309-10.52148C70.56836,24.30957,70.56836,23.70508,59.24121,22.14062Z"/><path class="cls-1" d="M45.93719,13.713l2.02973-2.02862a50.85047,50.85047,0,0,0-9.6759-.98218c-10.51758,0-18.93555,3.08594-25.02247,9.17187l1.66211,1.66211c5.62891-5.62988,13.48926-8.48437,23.36036-8.48437A46.88235,46.88235,0,0,1,45.93719,13.713Z"/><path class="cls-1" d="M54.73553,13.40338l-1.89709,1.89606c8.03778,2.34064,14.52716,5.91339,16.601,7.72986l1.54883-1.76758C68.82306,19.36578,62.59723,15.85468,54.73553,13.40338Z"/><path class="cls-2" d="M20.76978,43.1097,63.23718.664"/></g></svg>