<svg xmlns="http://www.w3.org/2000/svg" viewBox="0 0 84 44"><defs><style>.cls-1{fill:#fff;}</style></defs><g id="E265_PLA_off"><g id="Version_3"><path class="cls-1" d="M61.94434,19.04726A5.12359,5.12359,0,0,1,60.544,18.871a3.68907,3.68907,0,0,1-1.10157-.50586,3.3887,3.3887,0,0,1-.81836-.7959,4.406,4.406,0,0,1-.55859-1.04785,6.21251,6.21251,0,0,1-.32129-1.26269,9.67408,9.67408,0,0,1-.10254-1.4375,9.49677,9.49677,0,0,1,.10449-1.4336,6.23332,6.23332,0,0,1,.32422-1.26464,4.4619,4.4619,0,0,1,.56446-1.05469A3.385,3.385,0,0,1,59.46,9.265a3.7936,3.7936,0,0,1,1.10352-.51123,5.08246,5.08246,0,0,1,1.40234-.1792,5.1483,5.1483,0,0,1,1.40234.17627,3.70663,3.70663,0,0,1,1.1045.50585,3.384,3.384,0,0,1,.82129.7959,4.32858,4.32858,0,0,1,.56054,1.04981,6.17412,6.17412,0,0,1,.32227,1.26269,9.6363,9.6363,0,0,1,.10156,1.43555,9.53855,9.53855,0,0,1-.10352,1.43555,6.14492,6.14492,0,0,1-.32617,1.26465,4.48806,4.48806,0,0,1-.56836,1.05273,3.42422,3.42422,0,0,1-.82617.80322,3.80553,3.80553,0,0,1-1.10742.51123A5.10788,5.10788,0,0,1,61.94434,19.04726Zm.02148-1.10058a3.032,3.032,0,0,0,.96191-.14209,2.42565,2.42565,0,0,0,.752-.40137,2.483,2.483,0,0,0,.55859-.63086,3.80421,3.80421,0,0,0,.38477-.83008,5.401,5.401,0,0,0,.22168-.99805,9.153,9.153,0,0,0,0-2.26464,5.428,5.428,0,0,0-.22168-.998,3.75592,3.75592,0,0,0-.38477-.83057,2.5144,2.5144,0,0,0-.55859-.63037,2.36584,2.36584,0,0,0-.75391-.40185,3.37465,3.37465,0,0,0-1.9248,0,2.39178,2.39178,0,0,0-.75489.40185,2.52871,2.52871,0,0,0-.5625.63037,3.7134,3.7134,0,0,0-.38574.83057,5.34942,5.34942,0,0,0-.2207.998,9.41209,9.41209,0,0,0,0,2.26464,5.32331,5.32331,0,0,0,.2207.99805,3.76061,3.76061,0,0,0,.38574.83008,2.497,2.497,0,0,0,.5625.63086,2.44106,2.44106,0,0,0,.75489.40137A3.05074,3.05074,0,0,0,61.96582,17.94668Z"/><path class="cls-1" d="M67.957,18.87978V8.74209h6.06055V9.829H69.27344v3.56152h4.36718v1.08692H69.27344v4.40234Z"/><path class="cls-1" d="M75.04,18.87978V8.74209h6.06055V9.829H76.35645v3.56152h4.36718v1.08692H76.35645v4.40234Z"/><path class="cls-1" d="M16.71973,3.03384V3H8.38135v.00415H5.002V31H8.998V17.99832h7.47607v.00037l.00684-.00037h.23877V17.9855A7.308,7.308,0,0,0,23.543,10.50992,7.30849,7.30849,0,0,0,16.71973,3.03384Zm-.24561,11.96485V15H8.998V5.99911h7.47607v.02155c2.17334,0,3.74188,2.01367,3.74188,4.48926C20.216,12.985,18.64746,14.99869,16.47412,14.99869Z"/><path class="cls-1" d="M41.51233,9.093,41.5,9.09369,41.48767,9.093a15.907,15.907,0,0,0-.00018,31.814L41.5,40.90637l.01251.00061a15.907,15.907,0,0,0-.00018-31.814ZM29.29987,19.5025a13.44512,13.44512,0,0,1,12.176-7.89746L41.5,11.606l.02417-.00092a13.44512,13.44512,0,0,1,12.176,7.89746.64543.64543,0,0,1,.00037.64093,1.01278,1.01278,0,0,1-.91156.39557H30.21106a1.01278,1.01278,0,0,1-.91156-.39557A.64543.64543,0,0,1,29.29987,19.5025Zm16.71185,7.19641A4.59975,4.59975,0,0,1,41.5036,31.354h-.00177L41.5,31.35382l-.00183.00018H41.4964a4.6597,4.6597,0,0,1-.00427-9.31433l.00787.00086.00787-.00086A4.6109,4.6109,0,0,1,46.01172,26.69891ZM30.60657,31.9881a1.22177,1.22177,0,0,1-1.00507-.83881l-.05621-.11651a13.389,13.389,0,0,1-1.42365-5.75184c.01245-1.089.58728-1.089,1.0943-1.089l3.59442-.00446v.90759a8.65214,8.65214,0,0,0,1.00257,4.06275l.0935.17511-2.86035,2.50311A.72088.72088,0,0,1,30.60657,31.9881Zm18.7456,3.842-.07.06653a13.32412,13.32412,0,0,1-7.77942,2.49963L41.5,38.39618l-.00275.00012a13.32412,13.32412,0,0,1-7.77942-2.49963l-.07-.06653a.75108.75108,0,0,1-.3067-.55994c-.01087-.35046.2276-.74206.77667-1.27319l2.0365-1.78711.08917-.07825.05945-.05212.06445.04578.09668.06872a8.67147,8.67147,0,0,0,5.02325,1.60858l.0127-.001.0127.001A8.67147,8.67147,0,0,0,46.536,32.194l.09668-.06872.06445-.04578.05945.05212.08917.07825L48.8822,33.997c.54907.53113.78754.92273.77667,1.27319A.75108.75108,0,0,1,49.35217,35.83014Zm4.04633-4.68085a1.22177,1.22177,0,0,1-1.00507.83881.72088.72088,0,0,1-.43951-.152L49.09357,29.333l.0935-.17511a8.65214,8.65214,0,0,0,1.00257-4.06275V24.1875l3.59442.00446c.507,0,1.08185,0,1.0943,1.089a13.389,13.389,0,0,1-1.42365,5.75184Z"/></g></g></svg>