<svg xmlns="http://www.w3.org/2000/svg" viewBox="0 0 84 44"><defs><style>.cls-1,.cls-3{fill:#fff;fill-rule:evenodd;}.cls-1,.cls-2{stroke:#fff;}.cls-1{stroke-miterlimit:10;stroke-width:0.4px;}.cls-2{fill:none;stroke-width:2.5px;}</style></defs><g id="E268_VZE"><g id="Version_4-2" data-name="Version_4"><path class="cls-1" d="M46.5405,28.79049h1.91l.408-2.059h-2.893l-.183-.327c-.663-1.04-2.96-4.662-4.974-5.337a85.86,85.86,0,0,0-9.287-.275,84.26725,84.26725,0,0,0-9.33.286c-1.971.664-4.312,4.286-4.975,5.326l-.182.286v.041h-2.893l.407,2.059h1.91L14,29.8915v11.466a2.41629,2.41629,0,0,0,2.43925,2.435H20.6a2.59471,2.59471,0,0,0,2.4-2.435v-.565H40v.565a2.52058,2.52058,0,0,0,2.3187,2.435h4.242A2.41635,2.41635,0,0,0,49,41.35749V29.8915Zm-27.488-.998c1.129-1.698,3.06746-4.54267,3.69246-4.76467a78.29786,78.29786,0,0,1,8.779-.277,81.61457,81.61457,0,0,1,8.731.264c.673.234,2.56254,3.07967,3.69254,4.77767H19.0525Zm1.9475,11v2.505a1.70869,1.70869,0,0,0,0,.495H15.99856c-.005,0,.00644-.421.00144-.421v-7.579h6v-2H16v-.8l2.499-1.2H44.501l2.499,1.2v.8H41v2h6v8H42c-.019-.008.016-.448,0-.448-.006,0,0,.004,0,.013v-2.565Z"/><path class="cls-2" d="M58.44875,21.1105V41"/><path class="cls-2" d="M68.25,11.5a9.75,9.75,0,1,1-9.7505-9.75A9.75072,9.75072,0,0,1,68.25,11.5Z"/><path class="cls-3" d="M63,12.75H54v-2.5h9Z"/></g></g></svg>