<svg xmlns="http://www.w3.org/2000/svg" viewBox="0 0 84 44"><defs><style>.cls-1{fill:#fff;}</style></defs><g id="E26A_Stauassistent"><g id="Version_1-3" data-name="Version_1"><path class="cls-1" d="M71.71885,23.18531h1.00179l.44877-2.24768H69.98478l-.20086-.35724c-.72974-1.13591-3.28253-4.899-5.49969-5.63508a95.479,95.479,0,0,0-10.22261-.37186,93.77273,93.77273,0,0,0-10.26964.38394c-2.16886.724-4.72165,4.48709-5.45138,5.623l-.20087.31211v.04513H34.9551l.44877,2.24768h1.00179L34.94747,24.06v12.8485A2.42812,2.42812,0,0,0,37.485,39.446H42.5944a2.63869,2.63869,0,0,0,2.53881-2.53753v-.335H62.9913v.335A2.63869,2.63869,0,0,0,65.53011,39.446h5.1094A2.42811,2.42811,0,0,0,73.177,36.90847V24.06Zm-31.0276-1.58723c1.24334-1.85421,3.01936-3.95632,3.70714-4.19914a86.87886,86.87886,0,0,1,9.66323-.30194,90.22034,90.22034,0,0,1,9.61111.28859c.7399.25553,2.51719,2.35828,3.76053,4.21249l-13.37164.00318Zm1.91841,12.45185.01144,2.79243c-.01271.0267-.06611.07882-.0267.08073H37.46975V28.93227h6.49767V26.36549H37.46975v-.87593l2.282-1.36857,14.30987.00382L68.37276,24.121l2.28073,1.36857v.87593H64.1571v2.56678h6.49639v7.99082h-.014l-5.04329.01144c-.02034-.00954-.0534-.04068-.07119-.04068-.00636,0-.01017.00381-.01017.01462V34.04993Z"/><path class="cls-1" d="M32.44727,25.58685h-3.2085L29.25,28.37933c-.0127.02668-.06592.0788-.02637.08069h-5.125V20.46924h6.498V17.90247h-6.498v-.876L26.38086,15.658l12.523.00329a12.68837,12.68837,0,0,1,2.938-2.52331l-1.15137.00024L27.32031,13.135c1.24317-1.85419,3.01953-3.9563,3.707-4.1991A86.85871,86.85871,0,0,1,40.69043,8.634a90.2031,90.2031,0,0,1,9.61133.28858c.6001.20733,1.88037,1.63189,3.00683,3.15149.25635-.00049.50879-.0008.75293-.0008.72852,0,1.51709.002,2.32813.008-.75684-1.17334-3.27979-4.86975-5.47656-5.599a95.48463,95.48463,0,0,0-10.22266-.37183,93.77976,93.77976,0,0,0-10.26953.38391c-2.16895.724-4.72168,4.48713-5.45117,5.623l-.20118.31207v.04517H21.584l.44873,2.24762h1.002l-1.458.87469V28.44543a2.428,2.428,0,0,0,2.5376,2.53754h5.10937a2.63877,2.63877,0,0,0,2.53858-2.53754v-.335h.68506Z"/><path class="cls-1" d="M19.90489,23.45331H17.26446l.01025,2.52118c-.01123.02411-.05957.07116-.02393.07287H12.62383v-7.2146h5.37158V16.51532H12.62383v-.79083L15.496,14.00214l2.76327-.001-.35757-1.78962L15.53252,12.211c1.12256-1.67407,2.72608-3.572,3.34717-3.79126a41.86923,41.86923,0,0,1,4.74658-.24262,18.84519,18.84519,0,0,1,2.14356-2.30346,63.63909,63.63909,0,0,0-7.438.34173c-1.958.65369-4.2627,4.05121-4.92139,5.07679l-.18164.28179v.04078h-2.875L10.7586,13.644h.90478l-1.31689.78974v11.6004a2.19229,2.19229,0,0,0,2.291,2.29108h5.719c.87292,0,.96644-.92655.96644-1.63306l.03681-1.68716.54514.00007Z"/></g></g></svg>