<svg xmlns="http://www.w3.org/2000/svg" viewBox="0 0 84 44"><defs><style>.cls-1,.cls-2{fill:#fff;}.cls-1{fill-rule:evenodd;}</style></defs><g id="E26D_emergency_assist"><g id="Version_4-2" data-name="Version_4"><path class="cls-1" d="M46,9v6h8v8h6V15h8V9H60V1H54V9Z"/><path class="cls-2" d="M54.02764,25.45605a5.86761,5.86761,0,0,1-.36788.5082c-4.85813,6.48264-12.18477,11.373-14.90292,13.0543-3.69043-2.33007-19.49512-12.99609-19.49512-24.68847a8.99633,8.99633,0,0,1,17.99072-.002l3-.001a8.9374,8.9374,0,0,1,8.99121-8.86231,10.36976,10.36976,0,0,1,1.90148.16993,2.63241,2.63241,0,0,1,.518.11161l.07519.03132V2.68505s-.04745-.01-.59317-.08778a13.47545,13.47545,0,0,0-1.90146-.13243,12.02246,12.02246,0,0,0-10.49219,6.124,12.01751,12.01751,0,0,0-22.48974,5.74121c0,14.39453,19.47705,26.39941,21.7041,27.72461l.85645.42285.7788-.46192c2.10429-1.25041,12.10512-7.49209,17.7126-16.05136.32439-.49515.33036-.50821.33036-.50821Z"/></g></g></svg>