<svg xmlns="http://www.w3.org/2000/svg" viewBox="0 0 84 44"><defs><style>.cls-1,.cls-2{fill:#fff;}.cls-1{fill-rule:evenodd;}</style></defs><g id="E26F_Abstandswarner"><g id="Version_6"><path class="cls-1" d="M42,1a2.99981,2.99981,0,0,1,3,3V19a3,3,0,0,1-6,0V4A2.99981,2.99981,0,0,1,42,1Z"/><path class="cls-1" d="M42,24a3,3,0,1,1-3,3A2.99981,2.99981,0,0,1,42,24Z"/><path class="cls-1" d="M30,39h2v2H52V39h2v4H30Z"/><path class="cls-2" d="M74,30.87372H66.66565a4.73669,4.73669,0,0,1-9.447,0h-.61048l-3.56707-.0918a4.2916,4.2916,0,0,1-.428-.03308l-.23694-.032v-.27857a3.797,3.797,0,0,1,.76526-2.80707c.69269-.8496,1.45477-1.50817,4.97912-2.2489,1.89771-.39917,7.324-1.11,7.93671-1.19006l.13342-.0224a2.341,2.341,0,0,0,1.40674-.69916l.27-.2348c.48456-.39063,1.04706-.89441,1.59143-1.38007A30.47623,30.47623,0,0,1,74,18.3042V15.29913a25.9267,25.9267,0,0,0-6.32892,4.5597c-.50806.45678-1.03534.92962-1.506,1.3117l-.41943.36188-.08326.01062c-.05767.00751-5.991.776-8.09466,1.21783-3.96308.83362-5.342,1.759-6.499,3.17426a6.43162,6.43162,0,0,0-1.37152,4.50525c.00214,1.98309,1.03852,2.94263,3.26178,3.01843l2.20508.05658.07153.15155a7.40375,7.40375,0,0,0,13.393.04266L68.7,33.55377H74Z"/><path class="cls-2" d="M30.23737,23.65637c-.77167-2.61816-2.52637-2.87-4.22345-3.1134a21.66918,21.66918,0,0,1-2.16883-.397,26.52744,26.52744,0,0,1-4.68347-2.1742,32.2259,32.2259,0,0,0-7.13727-3.13263C11.42194,14.70221,10.735,14.58331,10,14.48V17.183c.5152.07984.99738.16852,1.42877.26679a31.17842,31.17842,0,0,1,6.46808,2.88287A26.93731,26.93731,0,0,0,23.209,22.75024a23.99035,23.99035,0,0,0,2.41431.4408c1.59461.22943,1.76111.254,2.04608,1.22211a20.21812,20.21812,0,0,1,.95423,5.96319l.00213.19208-.18146.06622a7.07989,7.07989,0,0,1-2.29266.23267h-.05334a2.93954,2.93954,0,0,0-.29993.00531l-1.3822.0011a4.73725,4.73725,0,0,1-9.44806,0H10v2.68005h2.93372l.07257.15692a7.40224,7.40224,0,0,0,13.378-.01709l.07263-.15155.16864-.00427c2.11652-.04907,4.64606-.58063,4.67706-2.83484A22.927,22.927,0,0,0,30.23737,23.65637Z"/></g></g></svg>