<svg xmlns="http://www.w3.org/2000/svg" viewBox="0 0 84 44"><defs><style>.cls-1{fill:none;stroke:#fff;stroke-miterlimit:10;stroke-width:3px;}.cls-2{fill:#fff;}</style></defs><g id="E287_Abblendlicht"><g id="Version_3"><path class="cls-1" d="M62.75079,28.519a18.65446,18.65446,0,0,1-2.79063,2.05169c-.66274.40064-1.14315.63548-1.28214.70162a32.36212,32.36212,0,0,1-4.74087,1.95248,26.64582,26.64582,0,0,1-9.20176,1.29174c-.997,0-6.66475.263-6.66475-14.44,0-14.70325,5.71957-14.44025,6.66475-14.44025a26.14706,26.14706,0,0,1,9.19618,1.51809,32.28311,32.28311,0,0,1,4.73819,1.95181c.1401.06547.621.30121,1.28482.70051a18.74183,18.74183,0,0,1,2.792,2.05213c1.98086,1.77372,4.4104,4.584,4.22985,8.32988C67.15694,23.93434,64.733,26.744,62.75079,28.519Z"/><path class="cls-2" d="M19,41.09686l15.28064-6.05169a25.24531,25.24531,0,0,1-.9964-2.82886L19,37.87335Z"/><path class="cls-2" d="M19,34.339l13.53-5.41162c-.1322-.85315-.25739-2.10047-.34674-3.08264L19,31.11755Z"/><path class="cls-2" d="M19,24.5824v3.23816L32.05249,22.6c-.02124-.70935-.11578-1.75714-.11578-2.5235,0-.23114.00628-.4458.0083-.67163Z"/><path class="cls-2" d="M19,17.92932v3.23212l13.14453-5.25733c.07245-1.0722.11078-2.394.23181-3.32489Z"/><path class="cls-2" d="M19,11.29907v3.22852l14.21057-5.685a25.73925,25.73925,0,0,1,1.07135-3.657Z"/></g></g></svg>