<svg xmlns="http://www.w3.org/2000/svg" viewBox="0 0 84 44"><defs><style>.cls-1{fill:#fff;fill-rule:evenodd;}</style></defs><g id="E288_Standlicht"><path id="Version_3" class="cls-1" d="M71.89215,23.68165v-3.3444H60.88065a21.606,21.606,0,0,1-.0117,3.3444Zm-3.0699,14.049,1.1466-3.1401-10.3554-3.7638a7.25029,7.25029,0,0,1-1.6227,2.8629Zm1.2366-28.3203-1.1439-3.141-10.7514,4.0104a7.11864,7.11864,0,0,1,1.5183,2.8998Zm-24.9525,12.4758a10.76175,10.76175,0,0,0,7.5645,10.242,2.82989,2.82989,0,0,0,3.6477-1.9683,27.969,27.969,0,0,0,0-16.5483,2.8233,2.8233,0,0,0-3.6477-1.962A10.74329,10.74329,0,0,0,45.10635,21.88615Zm3.3327-.0126a7.2067,7.2067,0,0,1,4.0302-6.5592c.3222-.1602.8685-.1296.9738.3087a28.30717,28.30717,0,0,1,.7947,6.2631,28.23614,28.23614,0,0,1-.7947,6.2505c-.1053.4383-.6516.4689-.9738.3024A7.20826,7.20826,0,0,1,48.43905,21.87355Zm-36.3312,1.8081v-3.3444h11.0106a21.94734,21.94734,0,0,0,.0153,3.3444Zm3.0726,14.049-1.1475-3.1401,10.3554-3.7638a7.25887,7.25887,0,0,0,1.6236,2.8629Zm-1.2366-28.3203,1.1439-3.141,10.7505,4.0104a7.1532,7.1532,0,0,0-1.5201,2.8998Zm24.9516,12.4758a10.76078,10.76078,0,0,1-7.5672,10.242,2.8232,2.8232,0,0,1-3.6414-1.9683,27.91152,27.91152,0,0,1,0-16.5483,2.81663,2.81663,0,0,1,3.6414-1.962A10.74234,10.74234,0,0,1,38.89545,21.88615Zm-3.3318-.0126a7.20123,7.20123,0,0,0-4.0311-6.5592c-.3213-.1602-.8685-.1296-.9738.3087a28.36524,28.36524,0,0,0-.7938,6.2631,28.2941,28.2941,0,0,0,.7938,6.2505c.1053.4383.6525.4689.9738.3024A7.2028,7.2028,0,0,0,35.56365,21.87355Z"/></g></svg>