<svg xmlns="http://www.w3.org/2000/svg" viewBox="0 0 84 44"><defs><style>.cls-1,.cls-3{fill:none;stroke:#fff;stroke-width:3px;}.cls-1{stroke-miterlimit:10;}.cls-2{fill:#fff;fill-rule:evenodd;}.cls-3{stroke-linecap:square;}</style></defs><g id="E301_Berganfahrassistent"><g id="Version_4-2" data-name="Version_4"><line class="cls-1" x1="64.77476" y1="39.57211" x2="20.48994" y2="22.48948"/><polygon class="cls-2" points="20.503 11.439 16.359 9.595 15.06 12.564 12.286 5.432 19.678 2.988 18.292 5.958 22.088 7.798 20.503 11.439"/><path class="cls-3" d="M53.39314,28.781S46.58457,26.18964,36.351,22.25765a5.40778,5.40778,0,0,1-4.37056,1.64828,5.57135,5.57135,0,0,1-4.68178-5.1154c-.19054-.0747-.86264-.28471-2.427-.94969a2.52107,2.52107,0,0,1-.81315-2.77523,6.25153,6.25153,0,0,1,2.0957-3.10152c1.1096-.66741,2.20717-.98521,5.40581-.50367,1.77983.26806,6.01961,1.15744,6.01961,1.15744a1.60514,1.60514,0,0,0,.37784.04059,3.81574,3.81574,0,0,0,.73329-.25567c2.11314-.739,4.803-2.16366,7.71724-1.90051,3.48443.315,7.23041,2.38106,9.9871,3.66612a86.27073,86.27073,0,0,1,8.07419,4.44939c.71815.5042.87362.43758,1.43388,1.11291.68159.82158,3.21695,4.1703,3.05022,5.97946a24.62965,24.62965,0,0,1-2.18835,5.681A5.175,5.175,0,0,1,64.73438,32.568a8.39067,8.39067,0,0,1-2.13918-.27608A5.33582,5.33582,0,0,1,53.39314,28.781Z"/></g></g></svg>