<svg xmlns="http://www.w3.org/2000/svg" viewBox="0 0 84 44"><defs><style>.cls-1{isolation:isolate;}.cls-2,.cls-3{fill:#fff;}.cls-3{fill-rule:evenodd;}</style></defs><g id="E308_park_brake"><g id="Version_2-2" data-name="Version_2"><g class="cls-1"><path class="cls-2" d="M6,40V24h5.627a9.19247,9.19247,0,0,1,2.42578.283,4.61593,4.61593,0,0,1,1.69727.82551,3.30832,3.30832,0,0,1,.99512,1.33766,4.768,4.768,0,0,1,.32519,1.81554,4.83362,4.83362,0,0,1-.126,1.1467,3.49625,3.49625,0,0,1-.36817.93029,3.2694,3.2694,0,0,1-.59179.74129,3.834,3.834,0,0,1-.79688.569,4.81176,4.81176,0,0,1,1.14062.64533,3.986,3.986,0,0,1,.84766.88426,3.83414,3.83414,0,0,1,.52734,1.10558,4.6254,4.6254,0,0,1,.17969,1.31905,5.21273,5.21273,0,0,1-.13965,1.225,3.80456,3.80456,0,0,1-.43554,1.06837,3.53336,3.53336,0,0,1-.75293.87643,4.42683,4.42683,0,0,1-1.09473.661,6.59721,6.59721,0,0,1-1.46387.4201A10.73817,10.73817,0,0,1,12.14258,40Zm5.26562-9.31073a3.94959,3.94959,0,0,0,1.168-.1508,2.019,2.019,0,0,0,.78516-.43185,1.66194,1.66194,0,0,0,.44141-.68548,2.82513,2.82513,0,0,0,.13964-.92246,2.25522,2.25522,0,0,0-.14257-.81963,1.61049,1.61049,0,0,0-.43555-.62868,2.01405,2.01405,0,0,0-.74512-.40443,3.57791,3.57791,0,0,0-1.07031-.143H9.01758v4.1863Zm.81836,6.82931a3.89659,3.89659,0,0,0,1.15918-.15081,2.02743,2.02743,0,0,0,.78223-.42891,1.66354,1.66354,0,0,0,.44434-.67764,2.65132,2.65132,0,0,0,.14257-.895,2.868,2.868,0,0,0-.14843-.94106,1.79385,1.79385,0,0,0-.47559-.7364,2.1988,2.1988,0,0,0-.85254-.47494,4.201,4.201,0,0,0-1.26758-.16745H9.01758v4.47225Z"/><path class="cls-2" d="M30.55273,40l-3.28222-5.11365q-.15528-.24825-.28711-.43185a2.95723,2.95723,0,0,0-.25879-.31532,1.17037,1.17037,0,0,0-.56738-.3398,2.10492,2.10492,0,0,0-.38184-.06463c-.14355-.01274-.30859-.01959-.49512-.01959h-.97363V40H21.1377V24h5.66015a10.25466,10.25466,0,0,1,2.5625.28888,5.03409,5.03409,0,0,1,1.873.88133,3.79117,3.79117,0,0,1,1.14551,1.4865,5.22205,5.22205,0,0,1,.38964,2.10148,4.82788,4.82788,0,0,1-.26074,1.63143,4.22268,4.22268,0,0,1-.71289,1.28086,4.17471,4.17471,0,0,1-1.05957.92246,4.94656,4.94656,0,0,1-1.30176.56111,2.67486,2.67486,0,0,1,.64844.44556,3.57828,3.57828,0,0,1,.5459.65512L34.32324,40Zm-4.05664-8.69086a4.83115,4.83115,0,0,0,1.28028-.15374,2.45892,2.45892,0,0,0,.9414-.472,2.00583,2.00583,0,0,0,.57813-.79516,2.93019,2.93019,0,0,0,.19629-1.11928,2.421,2.421,0,0,0-.19824-1.01157,1.8934,1.8934,0,0,0-.58106-.72563,2.63337,2.63337,0,0,0-.93945-.43674,5.07112,5.07112,0,0,0-1.27735-.14591H24.30664v4.86Z"/><path class="cls-2" d="M48.11621,40l-1.248-3.42053H40.2627L39.03613,40H35.72754l6.21875-16h3.39453l6.22461,16ZM44.415,29.713q-.24756-.70653-.46-1.40033-.2124-.69331-.37891-1.42677-.167.73443-.3789,1.4297-.21242.69625-.46,1.3974l-1.5498,4.29891h4.76074Z"/><path class="cls-2" d="M62.17871,40l-6.22363-7.24451V40H53V24h2.95508v7.00753L61.88867,24h3.97559l-5.52539,6.371q-.40284.46418-.77149.83629a7.68407,7.68407,0,0,1-.71289.64141c.125.094.25293.19585.38184.30552s.25976.22817.39258.35547c.13281.12828.26757.2644.40625.41031.13769.14591.28027.30259.42773.472L66.24609,40Z"/><path class="cls-2" d="M68,40V24H79v3H71v4h7v2H71v4l7.88232.00064V40Z"/></g><path class="cls-3" d="M71.09414,20h-4L61,13v7H58.09414V4.01337L61,4v7l6.09414-6.98663h4l-7.07,8.04827Zm-20.153-6.5755a3.59669,3.59669,0,0,1,.546.65345L55.09414,20h-4l-2.964-5.29357q-.156-.24729-.288-.42964a2.98869,2.98869,0,0,0-.258-.31474,1.206,1.206,0,0,0-.263-.21182,1.273,1.273,0,0,0-.304-.1269,2.18633,2.18633,0,0,0-.382-.06394c-.144-.013-.309-.019-.495-.019L45,13.57837V20H42.09414V4.01337h6a7.36515,7.36515,0,0,1,2.126.13389,5.03458,5.03458,0,0,1,1.872.87926,3.766,3.766,0,0,1,1.146,1.48077,5.17918,5.17918,0,0,1,.39,2.09325,4.79219,4.79219,0,0,1-.261,1.62564,4.15248,4.15248,0,0,1-1.772,2.19616,6.464,6.464,0,0,1-1.501.58351A1.60882,1.60882,0,0,1,50.94114,13.4245Zm-.785-3.69791a2.92362,2.92362,0,0,0,.196-1.11506,2.38688,2.38688,0,0,0-.199-1.00816,1.89487,1.89487,0,0,0-.581-.7234,2.64837,2.64837,0,0,0-.939-.43463,5.07441,5.07441,0,0,0-1.278-.14588h-2.189l-.072,4.70806h2a16.06071,16.06071,0,0,0,1.668-.09092,1.87573,1.87573,0,0,0,.815-.39767A2.03845,2.03845,0,0,0,50.15614,9.72659Zm-14.857,7.27592h-6.723L27.45614,20h-3.362l5.603-15.98663h4.482L39.78114,20h-3.361Zm-3.361-9.99165-2.241,6.99415h4.482Zm-8.532,4.88492a4.11686,4.11686,0,0,1-.84,1.03713,4.556,4.556,0,0,1-1.186.75537,3.09163,3.09163,0,0,1-1.286.31673C19.42714,14.047,18.692,14,18,14H15v6H12.09414V4.01337h6a14.5019,14.5019,0,0,1,2.121.049,4.65838,4.65838,0,0,1,1.265.39367,4.39244,4.39244,0,0,1,1.135.73439,4.01512,4.01512,0,0,1,.809,1.01515,4.70393,4.70393,0,0,1,.485,1.28792,7.14013,7.14013,0,0,1,.158,1.54771,6.89028,6.89028,0,0,1-.164,1.5557A4.76791,4.76791,0,0,1,23.40614,11.89578Zm-2.774-4.00165a2.16874,2.16874,0,0,0-.524-.86328,2.31463,2.31463,0,0,0-.898-.54255,3.94983,3.94983,0,0,0-1.292-.18884l-2.816.041s-.002,5.47342-.002,5.46143l2.555.051a4.73527,4.73527,0,0,0,1.447-.19383,2.46038,2.46038,0,0,0,.974-.55954,2.17942,2.17942,0,0,0,.551-.88326,3.66,3.66,0,0,0,.175-1.175A3.60667,3.60667,0,0,0,20.63214,7.89413Z"/></g></g></svg>