<svg xmlns="http://www.w3.org/2000/svg" viewBox="0 0 84 44"><defs><style>.cls-1{fill:#fff;fill-rule:evenodd;}</style></defs><g id="E30C_ESC_off"><path id="Version_2-2" data-name="Version_2" class="cls-1" d="M75,17v3h5v3H75v6H72V14h9v3ZM64,17v3h5v3H64v6c-.10664.001-3,0-3,0V14h9v3Zm-6.178,8.51592a6.62575,6.62575,0,0,1-.82373,1.62007,5.0832,5.0832,0,0,1-1.25614,1.25418,5.79386,5.79386,0,0,1-1.74235.813,8.22005,8.22005,0,0,1-2.28629.28958,8.58279,8.58279,0,0,1-2.346-.28958,5.761,5.761,0,0,1-1.76094-.813A4.88653,4.88653,0,0,1,46.36316,27.136a6.63487,6.63487,0,0,1-.80025-1.62007,9.60259,9.60259,0,0,1-.42849-1.90768,17.133,17.133,0,0,1-.1262-2.11118,15.53357,15.53357,0,0,1,.13891-2.11117,9.548,9.548,0,0,1,.45491-1.90475,6.84406,6.84406,0,0,1,.82275-1.621A5.00969,5.00969,0,0,1,47.679,14.60591a5.86891,5.86891,0,0,1,1.74529-.81,8.24348,8.24348,0,0,1,2.28922-.2886,8.59477,8.59477,0,0,1,2.346.2886,5.80507,5.80507,0,0,1,1.757.81,4.922,4.922,0,0,1,1.2444,1.25419,6.641,6.641,0,0,1,.80025,1.621,9.75013,9.75013,0,0,1,.42556,1.90475,17.1329,17.1329,0,0,1,.1262,2.11117,15.53359,15.53359,0,0,1-.13892,2.11118A9.74556,9.74556,0,0,1,57.822,25.51592ZM55.23635,19.898a7.75264,7.75264,0,0,0-.27882-1.34614,4.69435,4.69435,0,0,0-.48034-1.07809,3.07635,3.07635,0,0,0-.69166-.79242,2.87128,2.87128,0,0,0-.91667-.48719,4.054,4.054,0,0,0-2.31172,0,2.8916,2.8916,0,0,0-.91863.48719,3.03172,3.03172,0,0,0-.69459.79242,4.69522,4.69522,0,0,0-.48035,1.07809,7.75267,7.75267,0,0,0-.27881,1.34614,14.30069,14.30069,0,0,0,0,3.20394,7.8072,7.8072,0,0,0,.27881,1.34907,4.647,4.647,0,0,0,.48035,1.07907,3.10753,3.10753,0,0,0,.69459.79144,2.81563,2.81563,0,0,0,.91863.4872,4.12311,4.12311,0,0,0,2.31172,0,2.79617,2.79617,0,0,0,.91667-.4872,3.15465,3.15465,0,0,0,.69166-.79144,4.64619,4.64619,0,0,0,.48034-1.07907,7.80718,7.80718,0,0,0,.27882-1.34907,14.30226,14.30226,0,0,0,0-3.20394ZM37.157,29.26282a11.33047,11.33047,0,0,1-1.22875.17022c-.44708.04011-.95384.05968-1.51734.05968a7.606,7.606,0,0,1-2.01824-.25045,5.64931,5.64931,0,0,1-1.63963-.73079,5.30029,5.30029,0,0,1-1.2669-1.17689,6.47482,6.47482,0,0,1-.89808-1.5917,9.488,9.488,0,0,1-.53415-1.97715,14.39723,14.39723,0,0,1-.178-2.33031,12.73794,12.73794,0,0,1,.18294-2.209,8.90235,8.90235,0,0,1,.5547-1.92334,6.819,6.819,0,0,1,.92938-1.58485,5.5207,5.5207,0,0,1,1.3031-1.1945,5.98973,5.98973,0,0,1,1.68561-.75329,7.63023,7.63023,0,0,1,2.07008-.26317,13.16951,13.16951,0,0,1,1.32169.06359,10.61561,10.61561,0,0,1,1.174.18588,7.89367,7.89367,0,0,1,1.01939.29447,6.446,6.446,0,0,1,.857.38447v2.47314a6.49044,6.49044,0,0,0-.84427-.34338,8.21019,8.21019,0,0,0-.98026-.25827,10.73,10.73,0,0,0-1.12015-.1624q-.59726-.05723-1.262-.05674a3.95181,3.95181,0,0,0-1.17494.16435,3.0994,3.0994,0,0,0-.94993.48328,3.23668,3.23668,0,0,0-.73275.78167,4.59433,4.59433,0,0,0-.5185,1.05852,6.91,6.91,0,0,0-.30719,1.31092,11.10254,11.10254,0,0,0-.10076,1.54865,13.63547,13.63547,0,0,0,.10566,1.7854,7.09911,7.09911,0,0,0,.3199,1.4068,3.93085,3.93085,0,0,0,.53709,1.04776,2.87863,2.87863,0,0,0,.75623.71514,3.163,3.163,0,0,0,.97536.4099,5.06653,5.06653,0,0,0,1.19744.13207q.697,0,1.27277-.04891.57525-.04989,1.081-.14479a8.47449,8.47449,0,0,0,.97341-.24262q.46665-.14674.9421-.34827v2.478q-.46957.20544-.94993.36589A8.6876,8.6876,0,0,1,37.157,29.26282Zm-12.08887-2.028a3.96587,3.96587,0,0,1-.84133.93623,4.90359,4.90359,0,0,1-1.20821.7122,7.34884,7.34884,0,0,1-1.58974.452,11.55473,11.55473,0,0,1-1.99279.15751q-.75868,0-1.46256-.06164-.70586-.06309-1.31386-.17805a9.08555,9.08555,0,0,1-1.10255-.27881,4.06567,4.06567,0,0,1-.83351-.3698V26.14791a5.473,5.473,0,0,0,.88243.33849,10.82508,10.82508,0,0,0,1.09961.26023q.58845.10858,1.22385.16729.63395.06016,1.25418.05967a6.91072,6.91072,0,0,0,1.46844-.137,3.19759,3.19759,0,0,0,1.04286-.40208,1.74787,1.74787,0,0,0,.62122-.65546,1.88344,1.88344,0,0,0,.20643-.89613,1.92642,1.92642,0,0,0-.06653-.52339,1.40351,1.40351,0,0,0-.21425-.44415,1.66662,1.66662,0,0,0-.38936-.37664,3.36792,3.36792,0,0,0-.59187-.32773,6.73692,6.73692,0,0,0-.81493-.29447c-.31207-.09294-.66818-.18588-1.07124-.27882a12.70871,12.70871,0,0,1-1.32951-.38153,6.95553,6.95553,0,0,1-1.125-.50579,4.86085,4.86085,0,0,1-.901-.6535,3.66781,3.66781,0,0,1-.66329-.82079,3.78273,3.78273,0,0,1-.4099-1.0145,5.05325,5.05325,0,0,1-.13892-1.22777,5.9903,5.9903,0,0,1,.12815-1.26788,3.86408,3.86408,0,0,1,.41578-1.09863,3.53422,3.53422,0,0,1,.74058-.90395,4.09981,4.09981,0,0,1,1.11037-.67894,6.87379,6.87379,0,0,1,1.52517-.42752,11.7567,11.7567,0,0,1,1.9791-.14968q.65008,0,1.27473.0587a11.80324,11.80324,0,0,1,1.17689.17023,7.36481,7.36481,0,0,1,1.01744.27685,3.83189,3.83189,0,0,1,.80025.38154v2.45651a6.614,6.614,0,0,0-.88145-.33262,10.21568,10.21568,0,0,0-1.06146-.26023q-.562-.10858-1.15929-.17022a11.12109,11.12109,0,0,0-1.17-.06261,4.65665,4.65665,0,0,0-1.19353.137,2.45368,2.45368,0,0,0-.8521.39328,1.64927,1.64927,0,0,0-.51165.631,2.019,2.019,0,0,0-.17023.84721,1.92167,1.92167,0,0,0,.06751.52633,1.2731,1.2731,0,0,0,.21914.43632,1.66677,1.66677,0,0,0,.39523.361,3.53861,3.53861,0,0,0,.59383.31012,7.20807,7.20807,0,0,0,.82177.27882q.46959.1306,1.07417.26023a12.533,12.533,0,0,1,1.38137.38447,6.72544,6.72544,0,0,1,1.13874.51067,4.64467,4.64467,0,0,1,.89123.6584,3.56069,3.56069,0,0,1,.64372.82373,3.81609,3.81609,0,0,1,.38643,1.01156,5.38668,5.38668,0,0,1,.12914,1.22092,5.06762,5.06762,0,0,1-.15947,1.28744A3.96056,3.96056,0,0,1,25.06812,27.2348ZM3,14s10.01174-.001,10,0v3H6v3h6v3H6l-.00474,3.00983L13,26v3c-.01663-.001-9.99761-.01182-9.99761-.01182Z"/></g></svg>