<svg xmlns="http://www.w3.org/2000/svg" viewBox="0 0 84 44"><defs><style>.cls-1{fill:none;stroke:#fff;stroke-width:3px;}.cls-2{fill:#fff;fill-rule:evenodd;}</style></defs><g id="E30F_Sitz_eingeklappt"><g id="Version_5"><path class="cls-1" d="M17.902,42.3765a2.84966,2.84966,0,0,1-2.793-2.09l-.945-5.239c0-1.325,1.685-2.248,3.264-2.248l4.832.003,1.938-.003a31.12661,31.12661,0,0,1,8.526,1.368,40.27569,40.27569,0,0,0,11.419,1.687c.208,0,.419-.001.626-.004a.4651.4651,0,0,1,.373.145.93328.93328,0,0,1-.241.431l-.039.039-2.049,4.38a3.00182,3.00182,0,0,1-2.618,1.531Z"/><path class="cls-1" d="M43.738,30.3405a1.67421,1.67421,0,0,1-2.368.062l-1.931-1.651a54.8622,54.8622,0,0,0-5.322-8.953,60.327,60.327,0,0,0-4.263-5.294,3.89171,3.89171,0,0,1-.515-5.134l.881-1.175a2.04463,2.04463,0,0,1,2.851-.07,54.476,54.476,0,0,1,7.039,7.526,47.38091,47.38091,0,0,1,6.275,9.974,1.63063,1.63063,0,0,1-.165,1.776Z"/><path class="cls-2" d="M24.688,9.7335a1.39579,1.39579,0,0,1-1.005.526,1.33467,1.33467,0,0,1-.994-.368c-1.013-.886-1.855-1.598-2.653-2.272-.762-.643-1.483-1.253-2.275-1.948a1.41137,1.41137,0,0,1-.169-1.978,1.48182,1.48182,0,0,1,.129-.134l.13-.148c2.669-3.16,6.02-3.288,9.689-.37a1.42609,1.42609,0,0,1,.194,1.81c-1.287,1.922-2.704,4.352-2.858,4.618a2.03834,2.03834,0,0,1-.188.264Z"/><path class="cls-2" d="M66.13263,9.76835A8.69218,8.69218,0,0,0,61.509,7.34071V2.70436c3.44687.28608,6.05287,1.21613,8.11913,3.54184L72,4.16371V12H64.33507Z"/><path class="cls-2" d="M51.82188,9.76835a8.69212,8.69212,0,0,1,4.62361-2.42764V2.70436c-3.44686.28608-6.05286,1.21613-8.11913,3.54184L46,4.16371V12h7.61943Z"/></g></g></svg>