<svg xmlns="http://www.w3.org/2000/svg" viewBox="0 0 84 44"><defs><style>.cls-1{fill:none;stroke:#fff;stroke-width:3.5px;}.cls-2{fill:#fff;}</style></defs><g id="E310_NV_Personen"><g id="Version_3"><path class="cls-1" d="M39.72,4.0265,19.891,37.3385a2.60488,2.60488,0,0,0,2.28,3.922H61.829a2.60488,2.60488,0,0,0,2.28-3.922L44.28,4.0265A2.66308,2.66308,0,0,0,39.72,4.0265Z"/><path class="cls-2" d="M48.208,33.69629l-3.95313-5.49121V25.63672H39.74512V38.17188l1.542-.7754A1.73053,1.73053,0,0,0,42.25,35.8457v-5.749l.09082.001,5.72461,7.25293.126-.48829a12.11417,12.11417,0,0,0,.2666-1.30761A4.26773,4.26773,0,0,0,48.208,33.69629Z"/><path class="cls-2" d="M42,13.76562a2.22578,2.22578,0,1,0-2.25488-2.22656A2.24363,2.24363,0,0,0,42,13.76562Z"/><path class="cls-2" d="M44.25488,15.99316l1.959,1.80176,1.04394,3.34375a1.58243,1.58243,0,0,1-.41015,1.51563l-.04688.03711-.86621.52636-1.40527-3.876-.27442-.23926v5.04492H39.74512V22.62012l-1.82422.96875a1.74646,1.74646,0,0,1-2.34863-.69434l-.21094-.38574,4.38379-2.32813V16.96A1.24893,1.24893,0,0,1,41,15.71973h2A2.09369,2.09369,0,0,1,44.25488,15.99316Z"/></g></g></svg>