<?xml version="1.0" encoding="UTF-8"?><svg id="a" xmlns="http://www.w3.org/2000/svg" viewBox="0 0 84 44"><defs><style>.c{fill:#fff;fill-rule:evenodd;}.d{fill:none;stroke:#fff;stroke-miterlimit:10;stroke-width:3.5px;}</style></defs><g id="b"><path class="c" d="M27.1781,31.34874c.80988-.979,1.70807-1.74146,5.9234-2.61877,2.43848-.50763,9.66571-1.43518,9.73871-1.44501l.14142-.02301c.33746-.04987,.66687-.14337,.98004-.27777,.34314-.1723,.65863-.39423,.93573-.65851l.32599-.27893c.57678-.46155,1.23639-1.04468,1.95898-1.68457,2.19885-1.9472,5.21075-4.61523,7.91992-5.34052,2.87512-.62738,5.8186-.89349,8.76093-.79199v-3.90991c-3.29102-.10437-6.58209,.20374-9.79504,.91693-3.61639,.9693-7.03168,3.9939-9.52545,6.20361-.6684,.59167-1.27722,1.13214-1.84412,1.58716l-.40533,.3446c-.01337,.01208-.02655,.02411-.03986,.03503-.84192,.10815-7.48901,.97028-9.96741,1.48547-4.96533,1.03491-6.70343,2.1955-8.17291,3.97528-1.29242,1.60681-1.92151,3.6391-1.76019,5.68713,.00232,2.55859,1.453,3.90411,4.33142,4.00256l2.4975,.06323c1.52594,3.21002,4.83154,5.42047,8.64899,5.37866,3.71649-.04059,6.90723-2.20825,8.41382-5.32709h17.61859v-3.92047h-16.68994l.00012-.00189h-3.96552c-.05499,2.99719-2.55371,5.38269-5.58112,5.32819-2.94965-.05298-5.32819-2.40784-5.38177-5.32819h-1.08771l-4.35376-.11072c-.16412-.00452-.32782-.01733-.4906-.03833v-.04816c-.0022-2.15393,.54138-2.81134,.86517-3.20404v.00003Zm-3.6809-15.25714c.12158,.01239,.24408,.01294,.36591,.00201,1.06384-.09497,1.84918-1.03442,1.75409-2.09833V3.08312c-.01312-1.15198-.94373-2.0827-2.09583-2.09583-1.17084-.01343-2.1308,.92493-2.14423,2.09583V13.99529c-.00317,.0694-.00287,.13879,.00122,.20801,.06366,1.10663,1.01233,1.95203,2.11884,1.88831h0Zm.25031,7.8286c1.28009-.05402,2.27423-1.13538,2.22021-2.41541,0-1.33411-1.08142-2.41553-2.41541-2.41553-1.33411,0-2.41553,1.08142-2.41553,2.41553,0,1.33398,1.08142,2.41541,2.41553,2.41541,.06506,.00281,.13007,.00281,.1952,0Z"/><path class="d" d="M27.16667,28.37073c2.2344-2.779,13.51099-10.69462,13.51099-10.69462"/></g></svg>