<svg xmlns="http://www.w3.org/2000/svg" viewBox="0 0 84 44"><defs><style>.cls-1{fill:#fff;fill-rule:evenodd;}</style></defs><g id="E31A_Motorstillstand"><path class="cls-1" d="M42,16.77928a2.15551,2.15551,0,0,1,2,2.2774v6.88664a2.01689,2.01689,0,1,1-4,0V19.05668A2.15854,2.15854,0,0,1,42,16.77928Z"/><path class="cls-1" d="M40.00937,31.5a1.99063,1.99063,0,1,1,1.98955,1.99171A1.9914,1.9914,0,0,1,40.00937,31.5Z"/><path class="cls-1" d="M54,35V31.6195a.63992.63992,0,0,1,.106-.481A.61817.61817,0,0,1,54.579,31h6.754a.61693.61693,0,0,1,.474.1385.69735.69735,0,0,1,.193.481V35h.888L64,33.49772V21.6105L62.888,20H62l-.01385,3.30011a.72329.72329,0,0,1-.193.487.66356.66356,0,0,1-.474.199l-6.708-.01389a.66643.66643,0,0,1-.473-.199A.67623.67623,0,0,1,54,23.28622V20H52s-2.517-3.3135-3.916-5.0095l-5.544.005H27.261a.35.35,0,0,0-.239.102c-.062.062-.022.154-.022.241v13.228c0,.087-.04.18.022.241.063.062.149.1925.239.1925h3.204a3.97343,3.97343,0,0,1,2.779,1.1485l3.972,4.263c.244.241.57689.5885.92289.5885Zm3-15.6545v1.14468a1.16506,1.16506,0,0,0,.00834.3125c.04687.16146.12558.19521.21358.19521h1.437a.34472.34472,0,0,0,.236-.102C58.95592,20.83389,59,21.087,59,21V18.0695c0-.179-.03867-.71233.08333-.84033A.86059.86059,0,0,1,59.625,17H64l2.991,3.4725v14.409l-2.998,3.089H59.662a.66951.66951,0,0,1-.474-.205.68842.68842,0,0,1-.188-.481v-3.09a.35971.35971,0,0,0-.103-.241.32405.32405,0,0,0-.236-.102H57.224a.32405.32405,0,0,0-.236.102.35559.35559,0,0,0-.099.241v2.403a1.39307,1.39307,0,0,1-.39.969,1.31711,1.31711,0,0,1-.941.404H38.143a3.97984,3.97984,0,0,1-2.78-1.158l-3.973-3.95c-.243-.241-.966-.8625-1.308-.8625H25.75c-.524,0-.934.0705-1.301-.3095A1.57447,1.57447,0,0,1,24,30.4185V24H21l-.047,6.88467a1.10326,1.10326,0,0,1-.242.696,1.05876,1.05876,0,0,1-.632.359,1.03767,1.03767,0,0,1-.704-.148l-.921-.6c-.145-.174-.157-.23-.157-.287l.047-7.73717c-.071-.22-.111-.261-.156-.292l-1.021-.656c-.142-.174-.158-.235-.158-.292v-7.557a1.40488,1.40488,0,0,1,.168-.667,1.36811,1.36811,0,0,1,.459-.497l1.786-1.152a1.01952,1.01952,0,0,1,1.336.21A1.20245,1.20245,0,0,1,21,13v7h3V13.9495a1.99816,1.99816,0,0,1,.449-1.455A1.89581,1.89581,0,0,1,25.86,12H36V9H28.698a.583.583,0,0,1-.246-.2305.7712.7712,0,0,1-.067-.369l.18-2.116a1.39888,1.39888,0,0,1,.428-.892,1.32355,1.32355,0,0,1,.901-.363H46.158a1.32242,1.32242,0,0,1,.899.363,1.39772,1.39772,0,0,1,.427.892l.183,2.116a.70847.70847,0,0,1-.071.369A.5643.5643,0,0,1,47.353,9,2.34832,2.34832,0,0,1,47,9H40v3h9.658s1.401,2.0935,3.781,4.9735c0,0,1.921.03,3.093.005.3-.005.468.051.468.276Z"/></g></svg>