<?xml version="1.0" encoding="UTF-8"?><svg id="a" xmlns="http://www.w3.org/2000/svg" viewBox="0 0 84 44"><defs><style>.b{fill-rule:evenodd;}.b,.c{fill:#fff;}.d{fill:none;stroke-width:.5px;}.d,.c{stroke:#fff;stroke-miterlimit:10;}</style></defs><g><path class="b" d="M43.64691,3.25879h-1.29999l-.40002,5.20496h2l-.29999-5.20496Zm-2.60004,26.38196l-.80396,10.35449h5.35498l-.80298-10.35449h-3.74805Zm2.82001-15.74097h-2.008l-.40698,4.39496,2.828,.95905-.41302-5.354Zm14.24493,14.31561c-.26709-.91241-.93103-1.65613-1.80743-2.02454l-22.3092-7.55969c-.33606-.08099-.5614-.39679-.52869-.74091l.78583-3.98877h5.93018l-6.46509-4.38275-7.77051,4.38275h5.49872l-1.35809,4.91168c-.15173,.73132,.15875,1.4809,.7832,1.89062l21.14935,7.80426c.44495,.15839,.758,.55981,.80341,1.02979l1.27783,8.3949h5.95178l-1.94128-9.71735Z"/><path class="d" d="M43.64691,3.25879h-1.29999l-.40002,5.20496h2l-.29999-5.20496Zm-2.60004,26.38196l-.80396,10.35449h5.35498l-.80298-10.35449h-3.74805Zm2.82001-15.74097h-2.008l-.40698,4.39496,2.828,.95905-.41302-5.354Zm14.24493,14.31561c-.26709-.91241-.93103-1.65613-1.80743-2.02454l-22.3092-7.55969c-.33606-.08099-.5614-.39679-.52869-.74091l.78583-3.98877h5.93018l-6.46509-4.38275-7.77051,4.38275h5.49872l-1.35809,4.91168c-.15173,.73132,.15875,1.4809,.7832,1.89062l21.14935,7.80426c.44495,.15839,.758,.55981,.80341,1.02979l1.27783,8.3949h5.95178l-1.94128-9.71735Z"/></g><path class="c" d="M21.02558,22.3047l-3.803-.016,4.462-8.6516,2.3,.009-2.959,8.6586Z"/><path class="c" d="M26.14258,8.0471l-1.949-.007,2.7143-5.3687,1.23,.004-1.9953,5.3717Z"/><path class="c" d="M14.41758,39.3286h-5.466l4.923-10.0535,4.326,.017-3.783,10.0365Z"/><path class="c" d="M63.02658,22.3027l3.803-.016-4.462-8.6516-2.3,.009,2.959,8.6586Z"/><path class="c" d="M57.90958,8.0451l1.949-.007-2.5257-5.3647-1.231,.004,1.8077,5.3677Z"/><path class="c" d="M69.63458,39.3266h5.466l-5.423-10.0535-3.826,.017,3.783,10.0365Z"/></svg>