<svg xmlns="http://www.w3.org/2000/svg" viewBox="0 0 84 44"><defs><style>.cls-1,.cls-2{fill:#fff;}.cls-2{fill-rule:evenodd;}</style></defs><g id="E31D_Bremse_zu_heiss"><path class="cls-1" d="M25.62079,21.997A16.37932,16.37932,0,1,0,41.99845,5.615,16.38083,16.38083,0,0,0,25.62079,21.997Zm-3.12068,0A19.5,19.5,0,1,1,41.99845,41.5,19.497,19.497,0,0,1,22.50011,21.997Z"/><g id="Versuch_3"><path class="cls-1" d="M61.46265,2.6131,57.92383,6.14166a22.44673,22.44673,0,0,1-.01911,31.73664l3.53882,3.52856A27.43783,27.43783,0,0,0,61.46265,2.6131Z"/><path class="cls-1" d="M22.60571,41.45563l3.53-3.53754a22.44759,22.44759,0,0,1-.02-31.81714l-3.5299-3.53753a27.43895,27.43895,0,0,0,.01989,38.89221Z"/></g><path class="cls-2" d="M43,18h4v2H43v3h4v2H43v4.0285a3.34059,3.34059,0,0,1,1.4675,2.817,3.44234,3.44234,0,0,1-6.884,0,3.38266,3.38266,0,0,1,1.421-2.754V10.2765a1.97723,1.97723,0,0,1,3.954,0L43,13h4v2H43Z"/></g></svg>