<svg xmlns="http://www.w3.org/2000/svg" viewBox="0 0 84 44"><defs><style>.cls-1,.cls-2{fill:#fff;}.cls-1{fill-rule:evenodd;}</style></defs><g id="E323_etron_warnung"><g id="Version_6"><path class="cls-1" d="M43.9985,24.85839A3.19822,3.19822,0,0,1,41,21.49683V5.50417a3.01955,3.01955,0,1,1,6,0V21.49683A3.19855,3.19855,0,0,1,43.9985,24.85839Z"/><path class="cls-1" d="M44,33a3,3,0,1,1,3-3.00051A2.99861,2.99861,0,0,1,44,33Z"/><path class="cls-2" d="M68.06836,29.9505c-.67481-2.28961-2.20947-2.50989-3.69336-2.72272a18.943,18.943,0,0,1-1.897-.34723,23.19362,23.19362,0,0,1-4.09571-1.9013,28.18122,28.18122,0,0,0-6.2417-2.7395A24.61875,24.61875,0,0,0,49.5,21.8161v2.35309a21.35117,21.35117,0,0,1,2.12012.35364A27.27178,27.27178,0,0,1,57.27637,27.044,23.55217,23.55217,0,0,0,61.92188,29.158a20.95373,20.95373,0,0,0,2.11132.3855c1.39453.20068,1.54.22217,1.78907,1.06872a17.66152,17.66152,0,0,1,.83447,5.21485l.002.168L66.5,36.053a6.18905,6.18905,0,0,1-2.00488.20349h-.04639a2.56886,2.56886,0,0,0-.26221.0047l-1.209.00091a4.14266,4.14266,0,0,1-8.26221,0H30.83887a4.14213,4.14213,0,0,1-8.26123,0H22.044l-3.11963-.08026c-.16358-.0047-.28565-.01776-.37452-.02893l-.207-.028v-.24365a3.318,3.318,0,0,1,.66944-2.45478c.60547-.743,1.272-1.31891,4.354-1.96667,1.65967-.34906,6.40527-.97071,6.94092-1.04071l.1167-.01959a2.04723,2.04723,0,0,0,1.23-.61139l.23633-.20533c.42382-.34167.91552-.78222,1.3916-1.20691A19.356,19.356,0,0,1,38.5,24.66144v-2.4635c-.02979.00781-.06348.01422-.09277.02221-2.52344.68232-4.93067,2.83655-6.689,4.40937-.44433.39947-.90527.813-1.31689,1.14709l-.36719.31647-.07227.00928c-.05078.00653-5.23925.67858-7.0791,1.065-3.46582.729-4.67187,1.53827-5.68359,2.77594A5.62585,5.62585,0,0,0,16,35.88312c.002,1.73425.9082,2.57336,2.85254,2.63965l1.92822.04943.0625.13257a6.47477,6.47477,0,0,0,11.7124.0373l.0625-.13624H52.936l.06347.13721a6.47338,6.47338,0,0,0,11.69922-.01495l.06348-.13257.14746-.00372c1.85107-.04291,4.063-.50775,4.09033-2.47907A20.06974,20.06974,0,0,0,68.06836,29.9505Z"/></g></g></svg>