<svg xmlns="http://www.w3.org/2000/svg" viewBox="0 0 84 44"><defs><style>.cls-1{fill:#fff;}</style></defs><g id="E326_Tankdeckel"><g id="Version_2"><rect class="cls-1" x="66.14916" y="3.37162" width="4.03809" height="14.8367" transform="translate(7.84512 44.32283) rotate(-38.06355)"/><polygon class="cls-1" points="63.896 7.868 62.372 9.216 67.187 15.364 64.983 16.968 60.169 10.82 58.657 12.004 63.472 18.152 61.013 20.077 56.199 13.929 54.446 15.215 60.203 22.567 69.705 15.217 63.896 7.868"/><path class="cls-1" d="M56.09244,26.91723,56,26.93034v7.52027l-5.84934.01312-.01816-.01412-.005-.004c-.01412-.00908-.11334-.01815-.12746-.02421V31.05358H23v3.33248c-.003.005-.075.0111-.08007.01816l-.00605.00907a.20226.20226,0,0,0-.02219.03732H17V25h7.61037V22H16.92872V20.99864L19.59551,19.399,36.502,19.404l7.42748-.002,3.93967-3.044.03328-.02521-11.40043.003-15.72641-.004c1.4393-2.13323,3.509-4.59629,4.30883-4.87971A102.57719,102.57719,0,0,1,36.502,11.095a107.837,107.837,0,0,1,11.349.33991,10.08074,10.08074,0,0,1,2.78481,2.73336l.02521.03328,2.40052-1.85485.03429-.02723-.02723-.0343c-1.69549-2.11306-3.19935-3.397-4.47323-3.81863-2.55887-.43976-9.73521-.43976-12.09336-.43976s-9.53247,0-12.15589.45489c-2.58106.86136-5.60289,5.32047-6.46728,6.666l-.238.37016-.004.00706-.001.02623H13.85949l.54163,2.70814.00706.03329h1.06309L14,19.24869V34.47583a2.80246,2.80246,0,0,0,2.90452,3.042h6.03961a3.16246,3.16246,0,0,0,3.044-3.042L26,34H47l.01788.47583a3.16246,3.16246,0,0,0,3.044,3.042h6.04063A2.79711,2.79711,0,0,0,59,34.47583V24.55807Z"/></g></g></svg>