<svg xmlns="http://www.w3.org/2000/svg" viewBox="0 0 84 44"><defs><style>.cls-1,.cls-3{fill:#fff;}.cls-2{fill:none;stroke:#fff;stroke-width:3px;}.cls-3{fill-rule:evenodd;}</style></defs><g id="E327_Einparkhilfe"><g id="Version_3"><path class="cls-1" d="M51.6025,36.9655h16.303c.465,0,.844-.258.844-.682a.70672.70672,0,0,0-.038-.23l-.659-3.111H51.4565l-.659,3.111a.70672.70672,0,0,0-.038.23C50.7595,36.7075,51.1385,36.9655,51.6025,36.9655Z"/><path class="cls-2" d="M54.6645,29.6915l3.881-16.591a1.33221,1.33221,0,0,1,1.232-1.02,1.316,1.316,0,0,1,1.203.928l3.904,16.683Z"/><path class="cls-3" d="M45.6959,31.5532l-.54751.54952-.349-.31973-1.59749-1.78272.50221-.51027c4.38707-4.4072,6.22913-10.50893,6.23014-16.70559L49.91215,12h2.8754l.00906.77536C52.79661,19.76408,50.64557,26.60152,45.6959,31.5532Zm-4.59439-3.72049-.05434-.05938-1.89211-2.04508L39.6462,25.22a16.2437,16.2437,0,0,0,4.40142-11.49153c0-.27577-.01811-.55254-.03724-.82126l-.004-.04831L43.942,12h2.86936l.06139.82568-.07548.005.07548-.001c.02013.309.03825.60085.03825.89876A19.09038,19.09038,0,0,1,41.651,27.2681Zm-4.08387-4.12439-.05335-.05938-1.8911-2.04509.48108-.50825a8.97,8.97,0,0,0,2.52113-8.32427L37.86808,12H40.828l.11976.45833a11.65442,11.65442,0,0,1,.22185,2.30989,12.24472,12.24472,0,0,1-3.60348,8.37146Z"/><path class="cls-3" d="M16.00339,35l.00983-29H26.34937a18.16773,18.16773,0,0,1,3.29408.27476,7.35078,7.35078,0,0,1,5.8132,7.01489c.50771,7.284-5.07548,8.32628-6.11715,8.5165A19.79847,19.79847,0,0,1,25.87735,22H20V35ZM25.5,18a11.459,11.459,0,0,0,2.97339-.2166c.72766-.23651,3.09334-.81173,2.86327-4.25925a3.27846,3.27846,0,0,0-2.63687-3.2498A9.68842,9.68842,0,0,0,26,10H20v8Z"/></g></g></svg>