<svg xmlns="http://www.w3.org/2000/svg" viewBox="0 0 84 44"><defs><style>.cls-1{fill:none;stroke-width:3.5px;}.cls-1,.cls-3{stroke:#fff;}.cls-2,.cls-3{fill:#fff;}.cls-3{stroke-width:0.5px;fill-rule:evenodd;}</style></defs><g id="E32B_Heckdeckel"><g id="Version_6"><path class="cls-1" d="M67,31.07138l.93617-.0032c.201-.052,4.42725.30463,4.452-1.6425a23.383,23.383,0,0,0-1.096-7.232c-.787-2.676-2.31-1.936-5.89-2.809-2.986-.727-8.807-4.847-12.808-5.757-4.031-.916-12.038-1.204-16.344-.039-3.603.975-7.188,4.831-9.375,6.601a4.95648,4.95648,0,0,1-.76.613,2.119,2.119,0,0,1-.47.117s-6.495.84-8.744,1.313c-4.042.85-5.208,1.694-6.229,2.943-.447.547-1.162,1.49-1.16,3.969.001,1.183.372,1.764,2.123,1.825l3.96938.10168"/><line class="cls-1" x1="27.10455" y1="31.07136" x2="55.5" y2="31.07138"/><path class="cls-2" d="M26.19434,29.3194a4.84553,4.84553,0,0,1-9.68946,0H13a8.35012,8.35012,0,0,0,16.69922,0Z"/><path class="cls-2" d="M66.08473,29.3194a4.84553,4.84553,0,0,1-9.68946,0H52.89039a8.35012,8.35012,0,0,0,16.69922,0Z"/><path class="cls-3" d="M63.88817,14.7735s.534-.526.818-.806c1.448-1.429,3.09-3.048,4.068-3.928.842-.757,1.952-.336,4.682.971.423.202.862.412,1.321.622l1.121-2.23c-.444-.204-.871-.409-1.282-.606-2.766-1.322-5.378-2.574-7.618-.559-1.022.92-2.685,2.56-4.154,4.008-.499.493-1.39,1.368-1.39,1.368Z"/></g></g></svg>