<svg xmlns="http://www.w3.org/2000/svg" viewBox="0 0 84 44"><defs><style>.cls-1{fill:#fff;fill-rule:evenodd;}</style></defs><g id="E330_Klima"><path id="Version_2" class="cls-1" d="M58.3025,26.278a5.70036,5.70036,0,0,0,.798,1.484,4.328,4.328,0,0,0,1.132,1.042,4.90521,4.90521,0,0,0,1.477.613,7.75483,7.75483,0,0,0,1.825.199q.9795,0,1.829-.072.849-.072,1.618-.214a14.30133,14.30133,0,0,0,1.488-.356,14.76706,14.76706,0,0,0,1.422-.504v3.52q-.6885.2895-1.397.522a12.53368,12.53368,0,0,1-1.527.392,17.70772,17.70772,0,0,1-1.804.247q-.9825.087-2.224.087a11.77844,11.77844,0,0,1-3.023-.363,8.62587,8.62587,0,0,1-2.445-1.049,7.85124,7.85124,0,0,1-1.884-1.672,9.00814,9.00814,0,0,1-1.331-2.247,12.81533,12.81533,0,0,1-.788-2.761,18.83112,18.83112,0,0,1-.261-3.222,16.83653,16.83653,0,0,1,.269-3.074,12.05082,12.05082,0,0,1,.816-2.696,9.52416,9.52416,0,0,1,1.375-2.239,8.20768,8.20768,0,0,1,1.931-1.698,9.00379,9.00379,0,0,1,2.493-1.077,11.66074,11.66074,0,0,1,3.066-.378,18.68656,18.68656,0,0,1,1.956.098,15.8965,15.8965,0,0,1,1.738.276,12.42734,12.42734,0,0,1,1.513.428,9.60036,9.60036,0,0,1,1.273.555v3.527a10.386,10.386,0,0,0-1.244-.504,12.80273,12.80273,0,0,0-1.455-.392,16.15265,16.15265,0,0,0-1.662-.254,18.46313,18.46313,0,0,0-1.865-.091,6.24349,6.24349,0,0,0-1.786.24,4.90551,4.90551,0,0,0-1.444.689,4.66616,4.66616,0,0,0-1.11,1.107,6.34631,6.34631,0,0,0-.784,1.491,9.15066,9.15066,0,0,0-.464,1.84,14.3093,14.3093,0,0,0-.153,2.152,17.04318,17.04318,0,0,0,.156,2.413A9.37857,9.37857,0,0,0,58.3025,26.278ZM39.1085,33l10-22h4l-10,22Zm-9-5h-9l-2,5h-5l9-22h5l9,22h-5Zm-4.473-12.99s-3.529,9.978-3.527,9.99h7Z"/></g></svg>