<svg xmlns="http://www.w3.org/2000/svg" viewBox="0 0 84 44"><defs><style>.cls-1,.cls-2{fill:#fff;}.cls-1{fill-rule:evenodd;}</style></defs><g id="E331_VAS"><g id="Version_3"><path class="cls-1" d="M39.5,20a3.345,3.345,0,0,1-3.1-3V4a3.345,3.345,0,0,1,3.1-3,3.345,3.345,0,0,1,3.1,3V17A3.345,3.345,0,0,1,39.5,20Z"/><path class="cls-1" d="M39.5,28.631A3.13109,3.13109,0,1,1,42.655,25.5,3.14221,3.14221,0,0,1,39.5,28.631Z"/><path class="cls-2" d="M65.707,34.36133c-.23242-.23047-.56152-.50977-.94629-.835-1.57226-1.3291-4.20312-3.55371-4.44629-6.42578v-.001c-.06054-.707-.11718-1.4082-.17285-2.09863-.41894-5.22071-.78222-9.7295-2.35644-12.24512-1.6045-2.56348-2.89454-2.88965-5.66895-3.0625C51.10938,9.628,48.24951,9.709,45,9.91193v3.22314a39.835,39.835,0,0,1,7.91992.24774,2.22746,2.22746,0,0,1,1.20117.6416,6.40113,6.40113,0,0,1,1.63868,4.02539c.36816,3.82227.94726,8.46582.96386,8.56739a2.5331,2.5331,0,0,1-.416,1.98828c-.78418,1.14355-2.53223,1.88183-5.05469,2.13672-2.25.22754-21.88086.4834-25.07031.06152-2.98535-.39453-4.03321-.66992-4.35254-3.38769-.32031-2.74512.65039-8.29493.66406-8.38184.00488-.03809.5332-3.88477,11.01856-4.5498L34,14.46191V10.88379l-.56934.06836c-11.02343,1.72851-14.35058,2.251-15.14257,12.16894-.15137,1.90918-.23536,3.65039-.248,5.17579-.0127,1.916,1.18945,4.35253,4.63379,5.45507,4.89062,1.11914,15.125.915,21.89648.77539l1.77832-.04,2.77442.39844c1.43261.39942,3.831,2.19434,6.5791,4.92285l2.97168,2.958L65.96,34.6123Z"/></g></g></svg>