<svg xmlns="http://www.w3.org/2000/svg" viewBox="0 0 84 44"><defs><style>.cls-1{fill:#fff;}</style></defs><g id="E349_HOLD"><g id="V1"><path class="cls-1" d="M16,33V23H6v9.98528L2,33V11H6v9H16V11h4V33Z"/><path class="cls-1" d="M33.50313,32.80837a12.94675,12.94675,0,0,1-3.42412-.409,8.8159,8.8159,0,0,1-2.59992-1.14972,7.33227,7.33227,0,0,1-1.8696-1.77571,9.25482,9.25482,0,0,1-1.22692-2.29318,12.83054,12.83054,0,0,1-.67189-2.698,20.99159,20.99159,0,0,1-.20449-2.98594,19.47467,19.47467,0,0,1,.22118-2.97968,13.09583,13.09583,0,0,1,.70945-2.69589,9.57736,9.57736,0,0,1,1.26031-2.29319,7.579,7.579,0,0,1,1.88421-1.77779,8.84517,8.84517,0,0,1,2.577-1.14972,12.464,12.464,0,0,1,3.34483-.409,12.96362,12.96362,0,0,1,3.422.409,8.89535,8.89535,0,0,1,2.59991,1.14555,7.39762,7.39762,0,0,1,1.8696,1.7757A9.1917,9.1917,0,0,1,42.62161,15.815a13.05047,13.05047,0,0,1,.66771,2.69381,21.021,21.021,0,0,1,.20449,2.988,19.24973,19.24973,0,0,1-.22327,2.97968,13.18151,13.18151,0,0,1-.70319,2.698A9.38863,9.38863,0,0,1,41.307,29.46771a7.74877,7.74877,0,0,1-1.88838,1.77779,8.79613,8.79613,0,0,1-2.577,1.1539A12.42687,12.42687,0,0,1,33.50313,32.80837Zm0-3.60774a6.03508,6.03508,0,0,0,1.76736-.24,4.47567,4.47567,0,0,0,1.4022-.70528,4.52824,4.52824,0,0,0,1.05582-1.133,6.49792,6.49792,0,0,0,.73031-1.52532,10.00867,10.00867,0,0,0,.42359-1.88838,18.12076,18.12076,0,0,0,0-4.42569,9.92687,9.92687,0,0,0-.42359-1.88421,6.57869,6.57869,0,0,0-.73031-1.52531,4.45811,4.45811,0,0,0-1.05582-1.133,4.61292,4.61292,0,0,0-1.4022-.70527,6.53449,6.53449,0,0,0-3.53889,0,4.60055,4.60055,0,0,0-1.40429.70527,4.45811,4.45811,0,0,0-1.05582,1.133,6.57869,6.57869,0,0,0-.73031,1.52531,9.92687,9.92687,0,0,0-.42359,1.88421,18.12076,18.12076,0,0,0,0,4.42569,10.00867,10.00867,0,0,0,.42359,1.88838,6.49792,6.49792,0,0,0,.73031,1.52532,4.52824,4.52824,0,0,0,1.05582,1.133,4.46433,4.46433,0,0,0,1.40429.70528A6.09413,6.09413,0,0,0,33.50313,29.20063Z"/><path class="cls-1" d="M47,33V11h4V30h9v3Z"/><path class="cls-1" d="M63,33V11h8.29624a14.70284,14.70284,0,0,1,3.484.37511,9.83844,9.83844,0,0,1,2.6957,1.0681,7.51874,7.51874,0,0,1,1.97938,1.68057,8.89975,8.89975,0,0,1,1.333,2.20191,11.49908,11.49908,0,0,1,.7481,2.64059,18.39373,18.39373,0,0,1,.23312,2.99663,17.03146,17.03146,0,0,1-.25219,2.99239,11.79447,11.79447,0,0,1-.782,2.65543,8.92732,8.92732,0,0,1-1.3648,2.2231,7.91154,7.91154,0,0,1-2.0027,1.69753,9.74929,9.74929,0,0,1-2.69145,1.08717A14.17628,14.17628,0,0,1,71.24537,33Zm7.99318-3.53068a7.96482,7.96482,0,0,0,1.90309-.21193,5.65059,5.65059,0,0,0,1.55766-.62306,4.73053,4.73053,0,0,0,1.21645-1.0342,5.53074,5.53074,0,0,0,.86678-1.4538,8.53516,8.53516,0,0,0,.51921-1.865,15.06184,15.06184,0,0,0,0-4.56276,8.56869,8.56869,0,0,0-.51921-1.865,5.505,5.505,0,0,0-.86678-1.44957A4.80718,4.80718,0,0,0,74.45393,15.372a5.78545,5.78545,0,0,0-1.55766-.62307,8.07834,8.07834,0,0,0-1.90309-.2098H66.93293V29.46932Z"/></g></g></svg>