<svg xmlns="http://www.w3.org/2000/svg" viewBox="0 0 84 44"><defs><style>.cls-1,.cls-2,.cls-5{fill:none;}.cls-1,.cls-2,.cls-3,.cls-4,.cls-5,.cls-6,.cls-7,.cls-8{stroke:#fff;}.cls-1{stroke-width:1.8px;}.cls-2{stroke-width:1.71389px;}.cls-3,.cls-4,.cls-6,.cls-7,.cls-8{fill:#fff;}.cls-3{stroke-width:0.5px;}.cls-4,.cls-5,.cls-8{stroke-miterlimit:10;}.cls-4{stroke-width:0.46833px;}.cls-5{stroke-width:1.36363px;}.cls-6{stroke-width:0.58156px;}.cls-7{stroke-width:0.58192px;}.cls-8{stroke-width:0.51653px;}</style></defs><g id="E42A_CADA_navigation_assisted_driving"><path class="cls-1" d="M48.23627,42.04125,55.588,21.7607l7.35167,20.28055-7.33036-4.22378Z"/><path class="cls-2" d="M48.588,41.55617l7-19.3104,7,19.3104-6.97971-4.02172Z"/><polygon class="cls-3" points="33.659 17.839 33.659 17.021 29.897 17.021 30.169 18.385 33.386 18.385 33.659 17.839"/><polygon class="cls-3" points="50.534 17.839 50.534 17.021 54.297 17.021 54.024 18.385 50.807 18.385 50.534 17.839"/><rect class="cls-4" x="31.33333" y="21.05946" width="4.98487" height="1.36363"/><line class="cls-5" x1="33.05072" y1="18.54127" x2="50.94928" y2="18.54127"/><polygon class="cls-6" points="17.222 24.673 25.722 21.865 19.14 19.06 17.222 24.673"/><polygon class="cls-7" points="67.78 24.674 59.28 21.865 65.868 19.059 67.78 24.674"/><path class="cls-8" d="M36.43972,10.22765a26.2025,26.2025,0,0,1,11.19654.01831l.83122-1.2101a27.63111,27.63111,0,0,0-12.86671-.01651Z"/><path class="cls-8" d="M34.08044,6.82912a30.069,30.069,0,0,1,15.89072.01567l.81731-1.1899a31.52129,31.52129,0,0,0-17.53255-.01346Z"/><path class="cls-8" d="M31.75612,3.48149a34.04976,34.04976,0,0,1,20.51717.011l.80509-1.17325a35.41812,35.41812,0,0,0-22.13513-.0086Z"/><polygon class="cls-3" points="52.212 21.054 47.748 21.054 47.748 22.417 51.723 22.417 52.212 21.054"/><path class="cls-3" d="M47.57193,27.30728a1.41022,1.41022,0,0,0,1.234,1.56693c.05326.00555.10764.00777.14759.00777a.31171.31171,0,0,0,.0566-.00333l.39339-.00028.48821-1.35934-.94153.00132-.01886-1.618H35.0681l.00111,1.43709a.26271.26271,0,0,1-.07824.17645l-3.10223-.00005-.00222-7.29695,1.83937-1.193V17.8613A9.504,9.504,0,0,1,36.0785,15.153a52.03111,52.03111,0,0,1,5.922-.18865,52.03085,52.03085,0,0,1,5.92205.18865c.48163.08212,1.5969,1.4543,2.35373,2.69719v.8051h.68026l-.50895.47862,1.6664,1.085V21.332l.79768-2.22091-1.27264-.82535v-.8101l-.09322-.1598c-.44944-.7635-2.02081-3.27314-3.39465-3.50674a60.66008,60.66008,0,0,0-6.15066-.20862,56.622,56.622,0,0,0-6.25607.23526C34.415,14.288,32.781,16.79929,32.4669,17.29811l-.10487.16646v.82009l-1.83937,1.19295.00389,7.85186a1.52577,1.52577,0,0,0,.2003.961,1.23377,1.23377,0,0,0,.94494.58371,1.00443,1.00443,0,0,0,.20363.00444l3.16938-.00222a1.546,1.546,0,0,0,1.38715-1.497v-.1143h11.14Z"/></g></svg>