<svg xmlns="http://www.w3.org/2000/svg" viewBox="0 0 84 44"><defs><style>.cls-1,.cls-2,.cls-3,.cls-4,.cls-5{fill:#fff;}.cls-1{fill-rule:evenodd;}.cls-3,.cls-4,.cls-5{stroke:#fff;stroke-miterlimit:10;}.cls-3{stroke-width:0.53451px;}.cls-4{stroke-width:0.75px;}.cls-5{stroke-width:0.2334px;}</style></defs><g id="E476_Trained_parking"><g id="Version_2"><path class="cls-1" d="M55.99121,35.17047a21.9593,21.9593,0,0,1-3.17383-.21673l-.53271,3.54882a13.62465,13.62465,0,0,0,7.4165,0L59.166,34.95374A21.98936,21.98936,0,0,1,55.99121,35.17047Zm.00049-10.44433a10.75026,10.75026,0,0,1,3.187.5097l1.05713-4.37329a10.34885,10.34885,0,0,0-4.24316-.7309,10.35055,10.35055,0,0,0-4.24317.7309l1.05518,4.37329A10.753,10.753,0,0,1,55.9917,24.72614Zm4.76611,9.12c-.02539-.9458.03907-4.58447.023-8.32428l-.01025-.80163a17.54548,17.54548,0,0,1-1.459,2.616,28.416,28.416,0,0,0-.08789,4.6012,41.73906,41.73906,0,0,0,1.53711,4.60132l-.001-.11023C60.75488,35.66577,60.7832,34.77582,60.75781,33.84619Zm-8.01806-1.90832a28.3605,28.3605,0,0,0-.08789-4.60126,18.48524,18.48524,0,0,1-1.41651-2.616l-.01025.80164c.02783,3.72033.02734,7.37848.002,8.32422-.0249.92962.00293,1.81958-.002,2.58239l-.00049.11023A42.00017,42.00017,0,0,0,52.73975,31.93787Z"/><path class="cls-2" d="M56,15.56281a12.31467,12.31467,0,0,1,5.0708.90646,6.15763,6.15763,0,0,1,.71729,1.47121c.06494.63662.03466,3.24853.00781,5.561-.02686,2.3261-.05762,4.96257-.0376,7.49463.0127,1.5598.02246,2.792.03565,3.26527.01025.38571.02636.76456.042,1.1341a9.8449,9.8449,0,0,1-.083,2.72384l-.01221.029-.01123.0293a4.61135,4.61135,0,0,0-.186.66879c-.23242,1.01786-.481,1.57853-1.19434,1.81763A12.838,12.838,0,0,1,56,41.20224a12.83918,12.83918,0,0,1-4.34766-.53766c-.71484-.23968-.96338-.80035-1.20263-1.849a4.41812,4.41812,0,0,0-.1792-.638l-.01123-.0293-.01221-.029a9.86562,9.86562,0,0,1-.083-2.7276c.01563-.36578.03174-.74463.042-1.13067.01319-.473.023-1.70514.03565-3.26488.02-2.53212-.01074-5.16859-.0376-7.49469-.02685-2.33282-.05762-4.97046.00537-5.55367a6.1517,6.1517,0,0,1,.71973-1.47854A12.31418,12.31418,0,0,1,56,15.56281m0-2.1a14.35185,14.35185,0,0,0-6.15186,1.19639c-.852.42322-1.63183,2.50548-1.6997,2.87342-.1875,1.01507.03955,7.6136-.00684,13.44685-.01221,1.5405-.022,2.75739-.03467,3.22452-.01025.37482-.02588.743-.041,1.09842a9.219,9.219,0,0,0,.249,3.64c.022.05619.06348.2381.09424.37091a4.08549,4.08549,0,0,0,2.57568,3.34235A14.73842,14.73842,0,0,0,56,43.30225a14.73842,14.73842,0,0,0,5.01514-.64658,4.08549,4.08549,0,0,0,2.57568-3.34235c.03076-.13281.07227-.31472.09424-.37091a9.219,9.219,0,0,0,.249-3.64c-.01513-.35544-.03076-.7236-.041-1.09842-.0127-.46713-.02246-1.684-.03467-3.22452-.04639-5.83325.18066-12.43178-.00684-13.44685-.06787-.36794-.84765-2.4502-1.6997-2.87342A14.35185,14.35185,0,0,0,56,13.4628Z"/><path class="cls-3" d="M30.34586,21.89606l-.21-.00119.032-1.82955.16191.00119a8.1855,8.1855,0,0,0,1.97612-.237l.42225,1.77714A9.89186,9.89186,0,0,1,30.34586,21.89606Zm-2.78713-.38592a9.5326,9.5326,0,0,1-2.41264-1.05176l.926-1.56512a7.75338,7.75338,0,0,0,1.96476.854Zm7.62406-1.41743L33.8479,18.87539a8.891,8.891,0,0,0,1.14124-1.85933l1.5958.82664A10.415,10.415,0,0,1,35.18279,20.09271ZM23.11086,18.62526A4.73747,4.73747,0,0,1,22.135,15.825H23.9242a2.869,2.869,0,0,0,.61706,1.7021Zm14.54252-2.92061-1.56145-.89334a12.75233,12.75233,0,0,1,1.44788-2.15711l1.35527,1.1935A11.0192,11.0192,0,0,0,37.65338,15.70465Zm16.179-2.12611a4.01715,4.01715,0,0,0-.89211-1.95822l1.27664-1.28164a5.693,5.693,0,0,1,1.37056,2.93377ZM40.49,12.39811l-.99592-1.51986a10.92559,10.92559,0,0,1,2.30809-1.18992l.61911,1.71759A9.06223,9.06223,0,0,0,40.49,12.39811Zm4.07979-1.5818-.32323-1.79858q.63992-.12148,1.34944-.2013l.22161-.025c.25568-.02978.54776-.06432.86692-.09648l.17589,1.82c-.30868.031-.59144.06432-.839.0941l-.22888.0262C45.361,10.68291,44.95507,10.74485,44.5698,10.81631Zm6.7056-.1203a8.64334,8.64334,0,0,0-2.14153-.28706L49.1758,8.5794a10.48518,10.48518,0,0,1,2.57834.35376Z"/><path class="cls-4" d="M26.22363,1.25h-4.1692v.00208h-1.6897V15.25h1.998V8.74916h3.738v.00018l.00342-.00018h.11939v0A3.66005,3.66005,0,0,0,29.63527,5.005,3.67008,3.67008,0,0,0,26.22363,1.25Zm-.12281,5.99934V7.25h-3.738V2.74955h3.738V2.7495a2.05932,2.05932,0,0,1,1.871,2.25545A2.04889,2.04889,0,0,1,26.10082,7.24934Z"/><path id="Lenkrad" class="cls-5" d="M35.5,26A8.5,8.5,0,1,0,44,34.5h0A8.55743,8.55743,0,0,0,35.5,26Zm-6.3,5.6a6.831,6.831,0,0,1,9.1-3.4,7.01843,7.01843,0,0,1,3.5,3.5c.1.1.1.2,0,.4s-.3.2-.5.2H29.7a.76385.76385,0,0,1-.5-.2Zm8.6,3.8a2.34845,2.34845,0,0,1-2.3,2.4h0a2.40208,2.40208,0,0,1-.2-4.8,2.33593,2.33593,0,0,1,2.5,2.4Zm-7.9,2.7a.66441.66441,0,0,1-.5-.4v-.1a6.0396,6.0396,0,0,1-.7-3c0-.6.3-.6.6-.6h1.9v.5a4.98977,4.98977,0,0,0,.5,2.1h0L30.2,38a.36737.36737,0,0,1-.3.1Zm9.7,2h0a6.90612,6.90612,0,0,1-8.1.1h0c-.1-.1-.1-.2-.2-.3,0-.2.1-.4.4-.7l1.1-1h0a4.66856,4.66856,0,0,0,5.3,0h0l1.1,1c.3.3.4.5.4.7.1,0,.1.1,0,.2Zm2.1-2.4a.51031.51031,0,0,1-.5.4.36737.36737,0,0,1-.3-.1l-1.4-1.3h0a4.06085,4.06085,0,0,0,.5-2.1v-.5h1.9c.3,0,.6,0,.6.6a11.13593,11.13593,0,0,1-.8,3Z"/></g></g></svg>