<svg xmlns="http://www.w3.org/2000/svg" viewBox="0 0 84 44"><defs><style>.cls-1{fill:#fff;}</style></defs><g id="E499_experience_steering_wheel"><polygon class="cls-1" points="32.001 18.742 32.001 18.742 32.001 18.742 32.001 18.742"/><path class="cls-1" d="M61.26881,18.60745a22.11392,22.11392,0,0,0-6.49121-11.29,12.12522,12.12522,0,0,0-4.85352-2.6289,35.588,35.588,0,0,0-7.92382-.68457,35.57319,35.57319,0,0,0-7.92286.68457,12.12525,12.12525,0,0,0-4.85351,2.6289,22.1053,22.1053,0,0,0-6.49219,11.29c-1.15625,4.96094.22363,8.84082,1.23145,11.67383.30175.84961.56445,1.58691.73144,2.26074a30.81,30.81,0,0,0,5.42578,5.74414c1.52637,1.13965,2.03418,1.33789,5.65039,1.541,2.8877.16113,5.69239.16894,6.22461.16894.53907,0,3.34864-.00781,6.23633-.16894,3.61524-.20313,4.12305-.40137,5.64941-1.541A30.77081,30.77081,0,0,0,59.3069,32.542c.167-.67383.42968-1.41015.73144-2.26074C61.04615,27.44827,62.426,23.56839,61.26881,18.60745Zm-3.06348.54395a2.01511,2.01511,0,0,1-2.2666.55566c-1.05188-.24768-2.28876-.55469-3.43567-.84015a1.39139,1.39139,0,0,1,.23127,1.222c-.01563.07812-.13965.64844-.294,1.3584l-.51953,2.39941c-.02051.09277-.04.17773-.04883.25293.03711.0957.09277.22754.14453.35254.03967.09558.075.18054.10376.25165,1.23889-.02063,4.21472-.05957,4.80084-.06513a.85555.85555,0,0,1,.86231.45606c.09082.2041.18652.42968.27344.6748a1.26414,1.26414,0,0,1,.03125.68848,25.89877,25.89877,0,0,1-2.38575,5.65722,11.98748,11.98748,0,0,1-3.77148,4.5459,3.1228,3.1228,0,0,1-1.65234.5586l-.28516.03515c-.33789.04724-1.94092.129-3.59082.19678a2.53566,2.53566,0,0,1-2.23926,1.19287c-1.13965.041-1.73144.041-2.166.041h-.001c-.43359,0-1.02637-.00489-2.15527-.041a2.49387,2.49387,0,0,1-2.2417-1.18634c-1.68457-.069-3.24268-.15448-3.59229-.20331l-.28418-.03515a3.1228,3.1228,0,0,1-1.65234-.5586,11.9875,11.9875,0,0,1-3.77149-4.5459A25.87817,25.87817,0,0,1,25.91236,26.458a1.27007,1.27007,0,0,1,.03223-.68945c.08692-.24415.18262-.46973.27344-.67383a.82673.82673,0,0,1,.8623-.45606c.58722.00556,3.57282.04456,4.794.06439.02808-.06665.05927-.13983.09143-.21575.06152-.14356.125-.291.16309-.38868-.00879-.07519-.02832-.15722-.04688-.24414L31.5605,21.4473c-.1543-.71-.27832-1.28028-.294-1.35547a1.397,1.397,0,0,1,.23065-1.22443c-1.14715.2851-2.38263.59137-3.43542.83966a2.01564,2.01564,0,0,1-2.26563-.55566,2.10922,2.10922,0,0,1,.02246-2.22461,16.25038,16.25038,0,0,1,1.94239-2.457c.14941-.16407.25488-.2793.28515-.32129a8.624,8.624,0,0,0,.376-.80567,17.88614,17.88614,0,0,1,1.68652-3.17773,7.29177,7.29177,0,0,1,4.49414-3.25488,37.71673,37.71673,0,0,1,7.39747-.60938,37.72649,37.72649,0,0,1,7.39843.60938,7.29959,7.29959,0,0,1,4.49414,3.25488,17.88563,17.88563,0,0,1,1.68653,3.17773,8.16245,8.16245,0,0,0,.38183.81348c.02442.03418.12989.14844.27832.31348a16.08127,16.08127,0,0,1,1.94239,2.457A2.10523,2.10523,0,0,1,58.20533,19.1514Z"/><path class="cls-1" d="M47.33589,30.63382a2.73474,2.73474,0,0,1-1.001.25293c-.043.00488-.36133.02832-.68262.03516l-.63476.0166c-.89746.02343-2.15039.04883-3.01465.05566-.78027.01074-1.82812-.02148-2.666-.0459l-.98925-.02636c-.32032-.00684-.6377-.03028-.68653-.03516a2.74832,2.74832,0,0,1-1.00293-.25586c-.05078-.02344-.18359-.0957-.374-.20215.02344.2793.05176.52735.0752.68164a12.0888,12.0888,0,0,0,.99218,3.39258c.15918.36621.52832,1.17383.665,1.45117l.06153.127c.45214.92578.7246,1.48437,1.89062,1.52148,1.06152.03516,1.62012.03906,2.02734.03906.40821,0,.96485,0,2.03614-.03906,1.11816-.04,1.40234-.52148,1.89062-1.52051l.0625-.127c.13672-.27832.50488-1.08594.66406-1.45215a12.08147,12.08147,0,0,0,.99122-3.39258c.02343-.15429.05371-.40625.0791-.68359C47.52632,30.53519,47.39058,30.60941,47.33589,30.63382Zm-1.93061,1.23712a13.24349,13.24349,0,0,1-.82012,2.85126c-.3891,1.024-.61249,1.307-1.44654,1.34607-.39288.01959-.849.02234-1.04632.02234h-.09406c-.03534-.00092-.63763.00189-1.13568-.02234-.83405-.03906-1.05743-.32208-1.44653-1.34607a13.24475,13.24475,0,0,1-.82013-2.85126l-.02154-.18921,6.85245,0Z"/><path class="cls-1" d="M41.788,22A1.30958,1.30958,0,0,0,42,22.68143a1.20158,1.20158,0,0,0,0-1.36286A1.30979,1.30979,0,0,0,41.788,22Z"/><path class="cls-1" d="M43.13765,20.65042a1.31565,1.31565,0,0,0-.77582.27564,1.82262,1.82262,0,0,1,0,2.148,1.2208,1.2208,0,0,0,1.50586.03094,1.81319,1.81319,0,0,1,0-2.20984A1.31171,1.31171,0,0,0,43.13765,20.65042Z"/><path class="cls-1" d="M40.86226,20.65042a1.31174,1.31174,0,0,0-.73.24469,1.8131,1.8131,0,0,1,0,2.20978,1.22069,1.22069,0,0,0,1.50586-.03088,1.82273,1.82273,0,0,1,0-2.148A1.316,1.316,0,0,0,40.86226,20.65042Z"/><ellipse class="cls-1" cx="39.7602" cy="22.00003" rx="0.24756" ry="0.73425"/><path class="cls-1" d="M38.65815,20.65042a1.34961,1.34961,0,1,0,0,2.69922,1.3116,1.3116,0,0,0,.73-.24469,1.81323,1.81323,0,0,1,0-2.20984A1.31168,1.31168,0,0,0,38.65815,20.65042Z"/><path class="cls-1" d="M51.69618,19.87582c.03973-.3045-.08588-.44561-.35742-.59924a20.7935,20.7935,0,0,0-3.16535-1.4602l-.60724-.19428c-.69073-.11291-1.21515-.12268-1.99353-.18976,0,0-2.74566-.10791-3.56921-.10791-.82373,0-3.56946.10791-3.56946.10791-.77856.06708-1.30279.07685-1.99371.18976l-.60706.19428a20.7844,20.7844,0,0,0-3.16534,1.4602c-.27161.15363-.3971.29474-.35724.59924.00806.06214.11133.54535.23041,1.15509.21856,1.12037.58276,2.5669.63727,2.91a.84032.84032,0,0,1-.02564.41589c-.073.19714-.13129.34638-.20819.51422a.44018.44018,0,0,0,.00818.45581,33.93542,33.93542,0,0,0,1.89551,2.96924,1.04348,1.04348,0,0,0,.45349.38879c.616.31391,1.51391.84308,1.61908.889a2.75546,2.75546,0,0,0,1.15411.19983c.27545.01166,2.4137.08026,3.92859.08026,1.51465,0,3.65308-.0686,3.92841-.08026a2.755,2.755,0,0,0,1.154-.19983c.10528-.0459,1.00305-.57507,1.619-.889a1.04287,1.04287,0,0,0,.45349-.38879,33.87175,33.87175,0,0,0,1.89538-2.96924.44027.44027,0,0,0,.00843-.45581c-.07715-.16784-.13526-.31708-.20813-.51422a.84.84,0,0,1-.02582-.41589c.0545-.34308.4187-1.78961.63727-2.91C51.58461,20.42117,51.68788,19.938,51.69618,19.87582Zm-6.35443,3.97382a1.83172,1.83172,0,0,1-1.102-.37317A1.8113,1.8113,0,0,1,42,23.44705a1.8113,1.8113,0,0,1-2.23975.02942,1.83172,1.83172,0,0,1-1.102.37317,1.84961,1.84961,0,1,1,0-3.69922,1.83172,1.83172,0,0,1,1.102.37317A1.8113,1.8113,0,0,1,42,20.553a1.8113,1.8113,0,0,1,2.23975-.02942,1.83172,1.83172,0,0,1,1.102-.37317,1.84961,1.84961,0,1,1,0,3.69922Z"/><ellipse class="cls-1" cx="44.2397" cy="22.00003" rx="0.24756" ry="0.73425"/><path class="cls-1" d="M45.34175,20.65042a1.31168,1.31168,0,0,0-.73.24469,1.8131,1.8131,0,0,1,0,2.20978,1.31174,1.31174,0,0,0,.73.24475,1.34961,1.34961,0,1,0,0-2.69922Z"/></g></svg>