<svg xmlns="http://www.w3.org/2000/svg" viewBox="0 0 84 44"><defs><style>.cls-1,.cls-3,.cls-5{fill:#fff;}.cls-1,.cls-4,.cls-5{stroke:#fff;stroke-miterlimit:10;}.cls-1{fill-rule:evenodd;}.cls-2,.cls-4{fill:none;}.cls-4{stroke-width:3.4px;}</style></defs><g id="neu"><path class="cls-1" d="M66.466,17.40736,60.407,20.13975l-.19389,3.65194-2.923-2.012L51.3468,23.01821l4.21327-3.49343-2.5575-2.51386,4.16716.19113,2.48207-5.12666.84992,4.92713Z"/></g><g id="Ebene_1" data-name="Ebene 1"><path class="cls-2" d="M36.07043,9.34943a7.07442,7.07442,0,0,1,.29822,1.13476c.21967,1.071.40106,1.62451.81531,1.80164a17.71284,17.71284,0,0,0,4.93359.70062c.06873,0,.61219-.00043.6919-.0011l.44732.00067.22724.00043.22723-.00043.4245-.00079c.10254.00079.646.00122.7146.00122a17.71253,17.71253,0,0,0,4.9336-.70056c.4143-.17713.5957-.73059.81536-1.8017a7.072,7.072,0,0,1,.29834-1.13489,31.52446,31.52446,0,0,0,.17322-5.18121C51.04407,2.86548,51.01215,1.45148,50.97675,0H49.66864V7.51184C49.38507,6.41,48.18811,1.81757,48.18811,1.81757V0h-9.4082V1.81757S37.58289,6.41,37.29938,7.51184V0H35.99121c-.03522,1.44525-.067,2.8526-.09363,4.14862A31.63612,31.63612,0,0,0,36.07043,9.34943Zm3.2353-3.50959a28.47291,28.47291,0,0,0,4.12762.20227,30.01141,30.01141,0,0,0,4.23212-.20227l.836,5.01587a15.99351,15.99351,0,0,1-5.07049.836,15.26448,15.26448,0,0,1-4.96124-.836Z"/><path class="cls-3" d="M33.82336,10.19305c.33576.83728.30195,3.55414,2.598,4.3703a20.121,20.121,0,0,0,5.69616.82306h.00013c.07147,0,.64312-.00048.71453-.00116.141,0,.58008.00116.6518.00116.07165,0,.5108-.00116.65173-.00116.07147.00068.64313.00116.7146.00116a20.11979,20.11979,0,0,0,5.69629-.82306c2.296-.81616,2.26221-3.533,2.598-4.3703.46723-1.16357.32532-6.09381.32532-6.09381S53.435,2.40424,53.37659,0H50.97675c.0354,1.45148.06732,2.86548.09411,4.16809a31.52446,31.52446,0,0,1-.17322,5.18121,7.072,7.072,0,0,0-.29834,1.13489c-.21966,1.07111-.40106,1.62457-.81536,1.8017a17.71253,17.71253,0,0,1-4.9336.70056c-.0686,0-.61206-.00043-.7146-.00122l-.4245.00079-.22723.00043-.22724-.00043-.44732-.00067c-.07971.00067-.62317.0011-.6919.0011a17.71284,17.71284,0,0,1-4.93359-.70062c-.41425-.17713-.59564-.73059-.81531-1.80164a7.07442,7.07442,0,0,0-.29822-1.13476,31.63612,31.63612,0,0,1-.17285-5.20081c.02668-1.296.05841-2.70337.09363-4.14862H33.59143c-.05841,2.40424-.09332,4.09924-.09332,4.09924S33.3562,9.02948,33.82336,10.19305Z"/><path class="cls-3" d="M49.66864,7.51184V0H48.18811V1.81757S49.38507,6.41,49.66864,7.51184Z"/><path class="cls-3" d="M48.50146,10.85571l-.836-5.01587a30.01141,30.01141,0,0,1-4.23212.20227,28.47291,28.47291,0,0,1-4.12762-.20227l-.836,5.01587a15.26448,15.26448,0,0,0,4.96124.836A15.99351,15.99351,0,0,0,48.50146,10.85571Z"/><path class="cls-3" d="M38.77991,1.81757V0H37.29938V7.51184C37.58289,6.41,38.77991,1.81757,38.77991,1.81757Z"/><path class="cls-3" d="M43.431,36.00671a14.07945,14.07945,0,0,0-5.79718,1.10576l1.67195,5.85183a13.2568,13.2568,0,0,1,4.12663-.68384,13.99666,13.99666,0,0,1,4.23312.68384l1.672-5.85183A14.66217,14.66217,0,0,0,43.431,36.00671Z"/><polygon class="cls-3" points="37.299 43.999 38.045 43.999 37.299 42.128 37.299 43.999"/><polygon class="cls-3" points="48.923 43.999 49.669 43.999 49.669 42.128 48.923 43.999"/><path class="cls-2" d="M49.23993,31.87543c-.66516-.56909-3.2027-1.15064-5.35425-1.209h-.80115c-2.19421.064-4.69073.6352-5.356,1.20813a10.30685,10.30685,0,0,0-1.14838,3.12091c-.1217.7085-.27448,4.50275-.41187,9.00373h14.631c-.13807-4.50708-.29206-8.30786-.41675-9.03235A10.25675,10.25675,0,0,0,49.23993,31.87543Z"/><path class="cls-3" d="M51.18011,30.43744c-1.67266-2.03125-7.263-2.171-7.263-2.171h-.86627s-5.59027.13977-7.26294,2.171a12.73835,12.73835,0,0,0-1.56408,4.10229c-.16047.88355-.325,5.11164-.45673,9.45948h2.40118c.13739-4.501.29017-8.29523.41187-9.00373a10.30685,10.30685,0,0,1,1.14838-3.12091c.66528-.57293,3.1618-1.1441,5.356-1.20813h.80115c2.15155.05835,4.68909.6399,5.35425,1.209a10.25675,10.25675,0,0,1,1.14258,3.09143c.12469.72449.27868,4.52527.41675,9.03235h2.40167c-.13178-4.34784-.29627-8.57593-.45673-9.45948A12.73952,12.73952,0,0,0,51.18011,30.43744Z"/><path class="cls-4" d="M22,8.61818v7.28859l22,6.08157v4.00631"/><polygon class="cls-5" points="17.909 9.481 22.033 2.881 26.157 9.481 17.909 9.481"/></g></svg>