<svg xmlns="http://www.w3.org/2000/svg" viewBox="0 0 40 40"><g id="t11_1p850"><rect id="rect3" y="7" width="40" height="26" fill="#fff" /><path id="path5" d="M12.85642,24.33318c.41628-.16074.44864-.75987.36539-1.1593a1.453,1.453,0,0,1-.481.50659s-.45324.80856-.48564.93033a.99418.99418,0,0,1,.15262-.98392,1.31861,1.31861,0,0,0,.18037-1.56843,1.11985,1.11985,0,0,1-.31913.69655c-.29138.25328-.31913,1.08621-.43013,1.15442a2.49572,2.49572,0,0,1-.28677-.55043c-.06012-.21919-.08787-.31173.17112-.565a1.23848,1.23848,0,0,0,.23126-1.70971.97817.97817,0,0,1-.30527.643c-.28677.23867-.31916,1.19826-.35152,1.25671,0,0-.52725-.96931-.12026-1.48565s.63366-.62349.185-1.583a.913.913,0,0,1-.33923.73554c-.35915.24355-.25278,1.02779-.32675,1.18364,0,0-.50807-.99094-.02312-1.52463a1.1602,1.1602,0,0,0,.21738-1.41258.69257.69257,0,0,1-.25438.45785c-.22663.16074-.34688,1.37361-.40239,1.49537a3.5011,3.5011,0,0,1-.27288-.65271.73561.73561,0,0,1,.074-.66733,1.623,1.623,0,0,0,.037-2.06527,1.62638,1.62638,0,0,1-.21276.65757,4.87171,4.87171,0,0,0-.15723,1.51974,2.45362,2.45362,0,0,1-.25438-1.27618,1.65879,1.65879,0,0,0-.83717-1.64639s-.45789,1.06188.16652,1.60255a2.67894,2.67894,0,0,1,.666,1.16417s-.40239-.039-.76777-.75012a1.17309,1.17309,0,0,0-1.1748-.604A1.7428,1.7428,0,0,0,8.791,19.545s.74465.12665.88342.67219c0,0,.12487.37508.17576.57476a2.51843,2.51843,0,0,0-1.37831-.84754.73181.73181,0,0,1-.45328-.24356s.30988,1.16417,1.1054,1.15442c0,0,.72616-.07793,1.13315.87677a2.03008,2.03008,0,0,0-1.09154-.26793,1.42159,1.42159,0,0,1-.814-.0682s.53651.98392,1.29506.69166,1.12487.77345,1.13315.79395a1.56656,1.56656,0,0,0-1.17479-.33612,1.30584,1.30584,0,0,1-.76317.02922,1.2093,1.2093,0,0,0,1.23491.59427.9436.9436,0,0,1,1.0823.63811,1.58313,1.58313,0,0,0-1.18866-.17536c-.6244.18511-.851-.02922-.851-.02922a1.45827,1.45827,0,0,0,1.0129.70627s1.10076-.2143,1.38753.19972c0,0-.64288-.19972-.98054.08279a.92156.92156,0,0,1-.72616.24841,1.21875,1.21875,0,0,0,1.42454.08282S12.44015,24.49392,12.85642,24.33318Z" fill="#369343" stroke="#000" stroke-miterlimit="10" stroke-width="0.1" /><path d="M21.1709,10.701a1.506,1.506,0,0,0-.86951-.906,2.2795,2.2795,0,0,0-1.19946.01947c-.296.14942-.986.686-1.14087.70465-.72437.08722-.62293.99372-.62293.99372.05677-.04132.19275-.32086.447-.28046a2.10891,2.10891,0,0,0,.50683-.01959.55927.55927,0,0,1,.55335.633c-.02637.01337-.30457.53406-.30457.53406a3.579,3.579,0,0,1-.83252,1.48078,2.82694,2.82694,0,0,0-.32385.91571s5.33752.48388,5.14636-.00324S21.44849,11.4024,21.1709,10.701Z" fill="#f3c43b" stroke="#000" stroke-miterlimit="10" stroke-width="0.1" /><path d="M36.9519,9.84369c-.2832-.5221-1.15319.09094-2.18335.37591,0,0-2.4364.76709-3.875,1.05762a2.28254,2.28254,0,0,0-.26855.04932l-.01538.004-.00073.00012-.00013.00006a22.81506,22.81506,0,0,0-4.99157,1.63361,1.20363,1.20363,0,0,0-.074,1.88989.351.351,0,0,1,.04077.54083.32211.32211,0,0,1-.39233.01447.98731.98731,0,0,0-1.01746-.04871s-.598,2.90961.16358,3.32281l-.13587.95392a8.21058,8.21058,0,0,0,1.63721.16559,6.22919,6.22919,0,0,0,2.14-.9743c.2528-.33435,6.01892-4.7442,6.53686-5.21179a.56777.56777,0,0,0,.1449-.62366s1.75439-.48047,1.34741-1.2533c0,0,.82031-.26629.56128-1.00665C36.56958,10.73346,37.24792,10.38922,36.9519,9.84369Z" fill="#f3c43b" stroke="#000" stroke-miterlimit="10" stroke-width="0.1" /><polygon id="polygon33" points="29.267 18.295 29.363 21.338 29.363 21.338 28.826 21.027 28.826 21.027 27.931 24.889 27.562 24.624 28.433 20.923 28.433 20.923 27.825 20.935 27.825 20.935 29.267 18.295" fill="#0980c4" stroke="#000" stroke-miterlimit="10" stroke-width="0.1" /><polygon id="polygon45" points="32.743 19.648 31.471 22.383 31.471 22.383 31.136 21.842 31.136 21.842 28.45 25.015 28.159 24.69 30.835 21.557 30.835 21.557 30.294 21.266 30.294 21.266 32.743 19.648" fill="#0980c4" stroke="#000" stroke-miterlimit="10" stroke-width="0.1" /><polygon id="polygon49" points="31.583 17.64 30.928 20.607 30.928 20.607 30.485 20.159 30.485 20.159 28.082 24.781 27.711 24.565 30.131 19.952 30.131 19.952 29.542 19.798 29.542 19.798 31.583 17.64" fill="#0980c4" stroke="#000" stroke-miterlimit="10" stroke-width="0.1" /><path d="M15.82593,15.3609a.98756.98756,0,0,0-1.01758.04865.32192.32192,0,0,1-.39221-.01441.351.351,0,0,1,.04065-.54083,1.20369,1.20369,0,0,0-.074-1.89,22.82792,22.82792,0,0,0-4.9917-1.63355v-.00012l-.00122-.00025L9.375,11.3266a2.29126,2.29126,0,0,0-.26807-.04932c-1.43872-.29052-3.87561-1.05768-3.87561-1.05768-1.03015-.285-1.9-.898-2.18322-.37591-.29615.54553.38232.88977.38232.88977-.259.74036.56116,1.00665.56116,1.00665-.40711.77283,1.34753,1.2533,1.34753,1.2533a.56759.56759,0,0,0,.14478.62366c.51806.46759,6.28418,4.87744,6.537,5.21179a6.22833,6.22833,0,0,0,2.1399.9743,8.20639,8.20639,0,0,0,1.63733-.16559l-.13587-.95373C16.42383,18.27081,15.82593,15.3609,15.82593,15.3609Z" fill="#f3c43b" stroke="#000" stroke-miterlimit="10" stroke-width="0.1" /><path d="M15.87354,19.96478a2.88349,2.88349,0,0,1-1.05445,1.432,2.11062,2.11062,0,0,0-.704,1.37115c.01892.74732-.75622,1.71839-1.1593,1.7276,0,0-.97595-.11877-1.25195.13636a1.17638,1.17638,0,0,0-.46863.77935c-.0802.45466.15417.55207.20959.57154a.27834.27834,0,0,0,.3639.24029s.01843.33777.58581.17536.80176-.11042.91284-.67542c.11084-.56506.21338-.55578.31446-.62353.13574-.09088.39062-.17682.57959-.28577.15539-.08935,1.03613-.40912,1.26416-.48059a.86069.86069,0,0,0,.5736-.68188s.10486-.39618.75232-.74689c0,0,.73389-.2768.71534-.63849A13.59861,13.59861,0,0,0,15.87354,19.96478Z" fill="#f3c43b" stroke="#000" stroke-miterlimit="10" stroke-width="0.1" /><path d="M28.76587,25.41125a1.17559,1.17559,0,0,0-.46875-.77935c-.27588-.25513-1.25183-.13636-1.25183-.13636-.4032-.00921-1.17822-.98028-1.1593-1.7276a2.11054,2.11054,0,0,0-.70411-1.37115,2.88454,2.88454,0,0,1-1.05444-1.432,13.61272,13.61272,0,0,0-1.6333,2.30109c-.01855.36169.71533.63849.71533.63849.64759.35071.75244.74689.75244.74689a.86087.86087,0,0,0,.57349.68188c.22815.07147,1.10889.39124,1.26416.48059.18909.109.444.19489.57959.28577.10107.06775.20361.05847.31458.62353s.34533.51306.91272.67542.58593-.17536.58593-.17536a.27827.27827,0,0,0,.36377-.24029C28.61169,25.96332,28.84607,25.86591,28.76587,25.41125Z" fill="#f3c43b" stroke="#000" stroke-miterlimit="10" stroke-width="0.1" /><path d="M22.416,22.5976c-.68177-.77216-1.76831.87274-2.06629,1.36084a.4048.4048,0,0,0-.69836,0c-.2981-.4881-1.38452-2.13294-2.06629-1.36078-.27856.31543-1.72033,3.33319-1.72033,3.33319a.43248.43248,0,0,0,.56128.48059c-.06177.66894.45629.578.45629.578-.0061.75342.54883.62354.54883.62354.09864.80529.70923.48059.70923.48059-.03088.68841.38233.72741.38233.72741.49084.0503.686-.46093.73645-.627.00268.118.3468,1.3219.74133,1.3219s.73877-1.20374.74145-1.32172c.05054.16626.24573.67713.73645.62683,0,0,.41321-.039.38233-.72741,0,0,.61047.3247.70923-.48059,0,0,.55505.12988.54882-.62354,0,0,.51807.09094.45643-.578a.43235.43235,0,0,0,.561-.48059S22.69458,22.91309,22.416,22.5976Z" fill="#f3c43b" stroke="#000" stroke-miterlimit="10" stroke-width="0.1" /><path id="path123" d="M20.00054,24.39038s4.63032-2.05185,4.6419-6.79858h-9.2838C15.37021,22.33852,20.00054,24.39038,20.00054,24.39038Z" fill="#fff" stroke="#000" stroke-miterlimit="10" stroke-width="0.1" /><path id="path131" d="M16.07278,17.59177v3.03291a7.66958,7.66958,0,0,0,.71415,1.14457V17.59177Z" fill="#a51735" /><path id="path133" d="M17.50105,17.59177v4.99956s.4466.43792.71414.649V17.59177Z" fill="#a51735" /><path id="path135" d="M18.92935,17.59177v6.17991s.5095.32908.71414.437V17.59177Z" fill="#a51735" /><path id="path143" d="M23.92829,17.59177v3.03291a7.67057,7.67057,0,0,1-.71411,1.14457V17.59177Z" fill="#a51735" /><path id="path145" d="M22.5,17.59177v4.99956s-.4466.43792-.71414.649V17.59177Z" fill="#a51735" /><path id="path147" d="M21.07172,17.59177v6.17991s-.5095.32908-.71414.437V17.59177Z" fill="#a51735" /><path id="path153" d="M27.48646,26.19024l-.18006.73612h0l.49292.491h0L27.10267,30.36,26.483,29.5277l-.91813.42851.69665-2.9426h0l.64588-.18009h0l.1677-.73482A.43932.43932,0,0,1,27.48646,26.19024Z" fill="#0980c4" stroke="#000" stroke-miterlimit="10" stroke-width="0.1" /><path id="path155" d="M27.65149,25.70481l-.35481.662h0l.35544.60866h0L26.256,29.62789l-.394-.97282-.99217.16366L26.266,26.16628h0l.66812.0021h0l.34255-.66407A.4717.4717,0,0,1,27.65149,25.70481Z" fill="#0980c4" stroke="#000" stroke-miterlimit="10" stroke-width="0.1" /><path id="path157" d="M27.71138,25.89732l-.94375,1.199h0l.21631.67727h0L25.05708,30.0273,24.881,28.98605l-1.00168-.0756,1.92686-2.25373h0l.65056.16033h0l1.00107-1.27282S27.72628,25.67759,27.71138,25.89732Z" fill="#0980c4" stroke="#000" stroke-miterlimit="10" stroke-width="0.1" /><path id="path193" d="M12.37664,26.05806s-.01386-.39452.48561-.42374L14.333,27.68a3.58947,3.58947,0,0,0-.829.19435A13.69183,13.69183,0,0,1,12.37664,26.05806Z" fill="#369343" stroke="#000" stroke-miterlimit="10" stroke-width="0.1" /><path id="path215" d="M24.64244,14.14313a5.252,5.252,0,0,1-4.6419-.09743,5.252,5.252,0,0,1-4.64191.09743v3.44863h9.28381V14.14313Z" fill="#262f61" stroke="#000" stroke-miterlimit="10" stroke-width="0.1" /><path id="path217" d="M3.798,23.08642c.225-.09185.387-.1805.38633-.42058a1.69285,1.69285,0,0,0-.0958-.37987L2.57779,17.66881a3.95666,3.95666,0,0,0-.18847-.49743c-.06792-.13-.20122-.183-.38077-.25776H3.92866c-.20859.09855-.39874.17683-.397.398a1.3021,1.3021,0,0,0,.07341.35726L4.76244,21.292l1.1562-3.62314a1.24765,1.24765,0,0,0,.07347-.35726c-.00223-.22728-.20025-.30919-.39483-.398H7.45816a.64687.64687,0,0,0-.38006.25776,3.94333,3.94333,0,0,0-.18843.49743L5.37893,22.286a2.36647,2.36647,0,0,0-.09583.38439s-.06952.292.38633.416l-1.87144,0Z" fill="#0980c4" stroke="#000" stroke-miterlimit="10" stroke-width="0.1" /><path id="path219" d="M35.99267,22.61156V17.38389a.39889.39889,0,0,0-.04469-.208.826.826,0,0,0-.34478-.26228h1.73018a.71636.71636,0,0,0-.34479.26.41108.41108,0,0,0-.04468.21029v5.22767a.4097.4097,0,0,0,.04628.2148.94466.94466,0,0,0,.34319.26H35.6032a.90933.90933,0,0,0,.34478-.26228A.40928.40928,0,0,0,35.99267,22.61156Z" fill="#0980c4" stroke="#000" stroke-miterlimit="10" stroke-width="0.1" /></g></svg>