<svg id="grün" xmlns="http://www.w3.org/2000/svg" viewBox="0 0 150 150"><defs><style>.cls-1{fill:#4d4d4d;}.cls-2{fill:#333;}.cls-3{fill:#00f300;}.cls-4{fill:#fff;fill-rule:evenodd;}</style></defs><path d="M86.80566,131.50293a9.35768,9.35768,0,0,1-9.29492-9.24121V28.96729a9.563,9.563,0,0,1,9.47364-9.43946H114a9.562,9.562,0,0,1,9.48047,9.42432L123.502,122.249a9.40133,9.40133,0,0,1-9.35937,9.25489Z"/><path class="cls-1" d="M113.9999,21.02805a8.01927,8.01927,0,0,1,7.98026,7.93938l.02227,93.28112a7.86364,7.86364,0,0,1-7.8604,7.75559c-.03673,0-.073-.00025-.10986-.00075H86.80567a7.82161,7.82161,0,0,1-7.79462-7.75484V28.96743a8.01886,8.01886,0,0,1,7.98018-7.93938H113.9999m.00723-3H86.99123a11.06807,11.06807,0,0,0-10.98,10.90969l-.00014,93.31081a10.86616,10.86616,0,0,0,10.78438,10.75482l27.22682,0,.11978.00075a10.90557,10.90557,0,0,0,10.86011-10.71446l-.022-93.323a11.07168,11.07168,0,0,0-10.96582-10.93863l-.00721,0Z"/><circle id="rot" class="cls-2" cx="100.49022" cy="42.46195" r="13.30861"/><circle id="gelb" class="cls-2" cx="100.47042" cy="75.50577" r="13.30861"/><path id="gruen" class="cls-3" d="M100.47036,95.18159A13.30861,13.30861,0,1,0,113.779,108.4902h0a13.25329,13.25329,0,0,0-13.19764-13.30861Q100.52579,95.18135,100.47036,95.18159Z"/><path class="cls-4" d="M28.81439,60.59155h1.43707a2.7723,2.7723,0,0,1,.35572.02118,1.24365,1.24365,0,0,1,.29767.07526,1.36662,1.36662,0,0,1,.25512.13318,1.55253,1.55253,0,0,1,.23236.19848,2.74459,2.74459,0,0,1,.22681.272c.07513.10486.15881.22247.24951.35437l2.98053,4.39929h2.0083L33.67554,61.374a4.00138,4.00138,0,0,0-.47895-.58258,2.1459,2.1459,0,0,0-.5144-.38122,4.87906,4.87906,0,0,0,1.216-.41669,3.1836,3.1836,0,0,0,1.59015-1.807,4.20878,4.20878,0,0,0,.22681-1.44562,4.59873,4.59873,0,0,0-.26636-1.63568,2.82176,2.82176,0,0,0-.81225-1.16363,3.56585,3.56585,0,0,0-1.37616-.69867,7.236,7.236,0,0,0-1.953-.23389H27.12219V66.04535h1.6922Zm0-6.229h2.21515a5.33726,5.33726,0,0,1,1.34375.14593,2.355,2.355,0,0,1,.91126.43659,1.72861,1.72861,0,0,1,.523.74109,3.00817,3.00817,0,0,1,.16723,1.0545,3.06334,3.06334,0,0,1-.1914,1.13819,1.92163,1.92163,0,0,1-.56983.79083,2.40061,2.40061,0,0,1-.93951.45929,5.12221,5.12221,0,0,1-1.30109.14728H28.81439Zm18.06909,10.2796h-6.3916V60.06287H45.938V58.674H40.49188v-4.2774h6.37451V52.99908H38.79956V66.03546h8.08392Zm3.592,1.43439a10.23169,10.23169,0,0,0,1.05439.13763q.56076.0466,1.16223.04657a8.4193,8.4193,0,0,0,1.53491-.13031,5.71973,5.71973,0,0,0,1.25159-.36847,4.13786,4.13786,0,0,0,.97216-.57971,3.44818,3.44818,0,0,0,.696-.76111,3.13126,3.13126,0,0,0,.41516-.90558,4.01064,4.01064,0,0,0,.01984-2.03949,2.75006,2.75006,0,0,0-.93824-1.45849,4.66562,4.66562,0,0,0-.7951-.51734,7.745,7.745,0,0,0-1.00061-.42517c-.367-.129-.76386-.25512-1.18768-.37854-.34858-.09906-.66327-.19555-.941-.28759a7.2557,7.2557,0,0,1-.7428-.28779,3.32393,3.32393,0,0,1-.55829-.3189,1.7047,1.7047,0,0,1-.38422-.37842,1.43942,1.43942,0,0,1-.224-.45917,2.0109,2.0109,0,0,1-.07373-.57111,2.09351,2.09351,0,0,1,.18011-.87316,1.79461,1.79461,0,0,1,.53851-.67182,2.61691,2.61691,0,0,1,.90149-.43219,4.66991,4.66991,0,0,1,1.27692-.15454q.5527,0,1.046.04681a8.30444,8.30444,0,0,1,.9339.13739,7.25146,7.25146,0,0,1,.8349.22681,5.59664,5.59664,0,0,1,.74554.3147V53.51508a4.71188,4.71188,0,0,0-.69311-.31183,5.69669,5.69669,0,0,0-.81488-.22681,8.47905,8.47905,0,0,0-.95124-.13611q-.51206-.04679-1.09686-.04675a8.01707,8.01707,0,0,0-1.44141.11908,5.19286,5.19286,0,0,0-1.16223.343,3.60813,3.60813,0,0,0-.89288.54419,3.01783,3.01783,0,0,0-.632.72851,3.15268,3.15268,0,0,0-.37708.8844,4.17035,4.17035,0,0,0-.12188,1.02466,3.61058,3.61058,0,0,0,.12188,1.01483,2.77061,2.77061,0,0,0,.37.805,2.93391,2.93391,0,0,0,.59381.63782,4.62909,4.62909,0,0,0,.79926.50739,8.29564,8.29564,0,0,0,.99084.41522c.36279.1261.7497.24658,1.16351.36426.33295.09643.63776.19281.91419.28631a6.90992,6.90992,0,0,1,.7384.29633,3.28063,3.28063,0,0,1,.55988.33435,1.90035,1.90035,0,0,1,.391.39252,1.53484,1.53484,0,0,1,.23114.47491,2.13089,2.13089,0,0,1,.07367.58527,1.90451,1.90451,0,0,1-.21539.9,2.05651,2.05651,0,0,1-.63068.71722,3.13861,3.13861,0,0,1-1.03034.472,5.35437,5.35437,0,0,1-1.42291.17,10.165,10.165,0,0,1-1.08008-.0581c-.35858-.03827-.70587-.0893-1.03888-.15577-.33441-.06542-.6491-.14324-.94232-.23114a8.08759,8.08759,0,0,1-.78113-.27209v1.44989a4.3984,4.3984,0,0,0,.74262.30609A7.84372,7.84372,0,0,0,50.47546,66.07654ZM48.264,87.01233H37.20758l-1.80139,7.989h-10.239l17.45623,6.50293,17.44147-6.50293H49.80627Zm-18.72541-15.877c.1045-.00275.18689-.0069.24018-.013.66021-.07831,5.55029-.11225,9.48-.1399,2.864-.01935,5.52246-.038,6.59955-.07061a7.60487,7.60487,0,0,1,3.00244.74951,14.9343,14.9343,0,0,0,5.89557,1.268c2.6203,0,6.07251.067,9.21423.14466V71.37238c-3.14264-.07764-6.59125-.14411-9.21423-.14411a13.28163,13.28163,0,0,1-5.27552-1.151,8.96676,8.96676,0,0,0-3.67248-.86523c-1.07141.03192-3.71387.0498-6.56128.06994-5.38483.03736-8.96728.06787-9.75293.153a3.12087,3.12087,0,0,0-2.39886.9198,2.71211,2.71211,0,0,0-.50122,2.23083,39.91589,39.91589,0,0,0,1.6452,6.13788c.18622.5177.75183,2.09009,4.177,2.68671,1.82111.31707,5.53241.7655,8.242,1.09362,1.62873.19648,3.1673.38208,3.4433.43879a6.73974,6.73974,0,0,0,1.29163.108,7.754,7.754,0,0,0,3.026-.55231,20.15924,20.15924,0,0,0,1.83417-1.03259,13.745,13.745,0,0,1,2.7976-1.4494c.51911-.00666,5.96741-.01746,10.91962-.02619V78.28918c-4.9566.00867-10.40845.0196-10.94183.02655a9.43786,9.43786,0,0,0-3.6529,1.69355c-.655.39459-1.27362.767-1.65441.93866a6.63776,6.63776,0,0,1-3.27778.328c-.32952-.06781-1.45489-.2049-3.5819-.46088-2.69092-.32531-6.37592-.77118-8.1532-1.07989-1.62659-.28382-2.59137-.818-2.87171-1.59674a38.597,38.597,0,0,1-1.55926-5.80219,1.21011,1.21011,0,0,1,.11969-.88666C28.64154,71.15894,29.27,71.14227,29.53857,71.13538Z"/></svg>