<svg xmlns="http://www.w3.org/2000/svg" viewBox="0 0 150 150"><defs><style>.cls-1{fill:#fff;}.cls-2{fill:red;}.cls-3{fill:none;stroke:#000;stroke-miterlimit:10;stroke-width:2.78195px;}</style></defs><g id="E35A_LGI_Pannenfahrzeug"><path class="cls-1" d="M7.67669,140.28321a5.57822,5.57822,0,0,1-4.0802-1.48372A6.47714,6.47714,0,0,1,1,133.60652a6.988,6.988,0,0,1,.74185-2.96742l67.8797-117.584a6.89411,6.89411,0,0,1,5.56391-3.33835,6.11955,6.11955,0,0,1,5.56391,3.33835l67.50877,117.213A5.51235,5.51235,0,0,1,149,133.60652a7.32344,7.32344,0,0,1-2.22556,5.193,5.57834,5.57834,0,0,1-4.08021,1.4837Z"/><path class="cls-2" d="M7.67669,138.42857a4.21187,4.21187,0,0,1-2.96742-1.11278,4.56525,4.56525,0,0,1-1.85463-3.70927,3.99944,3.99944,0,0,1,.74185-2.5965L71.10526,14.16792a4.853,4.853,0,0,1,8.1604,0l67.50878,117.213a5.27216,5.27216,0,0,1,.74186,2.22555,5.15067,5.15067,0,0,1-1.85464,3.70928,4.93273,4.93273,0,0,1-2.96741,1.11278Z"/><polygon class="cls-1" points="23.627 124.333 75.185 35.311 126.744 124.333 23.627 124.333"/><line class="cls-3" x1="60.34837" y1="94.34065" x2="48.20403" y2="94.34065"/><line class="cls-3" x1="102.35317" y1="94.34065" x2="90.02886" y2="94.34065"/><path d="M75.28674,79.85941l1.16022.00064c9.65009,0,12.36462.48986,13.14569.79017,1.22339.45877,3.63022,3.13756,5.35285,5.60112v2.95585l1.2388.82588,3.4042,2.26946,0,10.38232-.02017,3.84024v1.24739H93.7561V103.7432l-2.78189-.00007-31.37384-.00064-2.782-.00005v4.02942H51.0061l0-1.26205-.0201-3.81094v-10.397l3.40421-2.26947,1.2388-.82587V86.25079c1.72337-2.46433,4.13144-5.14319,5.37468-5.60951.7592-.292,3.47375-.78187,13.12384-.78187h1.15922m.00153-2.782H74.12752c-3.09535,0-11.60753,0-14.1225.9673-3.09535,1.16076-7.158,7.35144-7.158,7.35144V87.7177L48.204,90.813v11.88584l.02014,3.82558v2.09477a1.94028,1.94028,0,0,0,1.93458,1.9346h7.507a1.94028,1.94028,0,0,0,1.93458-1.9346v-2.09477l31.37384.00064v2.09477a1.94028,1.94028,0,0,0,1.9346,1.93458h7.507a1.94028,1.94028,0,0,0,1.9346-1.93458v-2.09477l.02014-3.82558V90.81367l-4.643-3.09533V85.39681s-4.06266-6.19067-7.158-7.35142c-2.515-.9673-11.02716-.9673-14.1225-.9673l-1.15869-.00064Z"/><polyline points="54.196 84.699 54.008 84.699 48.392 84.699 48.204 84.699 48.785 87.408 48.972 87.408 52.841 87.408"/><line class="cls-3" x1="96.37559" y1="87.98858" x2="54.19568" y2="87.98858"/><polyline points="97.73 87.408 101.599 87.408 101.787 87.408 102.367 84.699 102.179 84.699 96.563 84.699 96.376 84.699"/><path class="cls-2" d="M75.36308,100.96274l9.35375,16.24059H65.98761l9.37547-16.24059m.00244-6.16344a1.37889,1.37889,0,0,0-1.11279.66766L60.6768,118.98376a1.3977,1.3977,0,0,0-.14837.59349,1.29543,1.29543,0,0,0,.5193,1.03859,1.11559,1.11559,0,0,0,.816.29676H88.86728a1.11566,1.11566,0,0,0,.816-.29676,1.46474,1.46474,0,0,0,.4451-1.03859,1.10241,1.10241,0,0,0-.14838-.66767L76.4783,95.467a1.22394,1.22394,0,0,0-1.11278-.66766Z"/><path class="cls-1" d="M61.86492,122.76641A2.91988,2.91988,0,0,1,59.735,121.926a2.99451,2.99451,0,0,1-1.06135-2.34727,3.27744,3.27744,0,0,1,.34412-1.42358l13.63086-23.614a3.22455,3.22455,0,0,1,2.71675-1.59745,3.069,3.069,0,0,1,2.77471,1.70249l13.44974,23.3351a2.81848,2.81848,0,0,1,.39483,1.59745,3.30594,3.30594,0,0,1-.9889,2.34727,2.92328,2.92328,0,0,1-2.12993.84039Z"/><path class="cls-2" d="M75.36308,100.96274l9.35375,16.24059H65.98761l9.37547-16.24059m.00244-6.16344a1.37889,1.37889,0,0,0-1.11279.66766L60.6768,118.98376a1.3977,1.3977,0,0,0-.14837.59349,1.29543,1.29543,0,0,0,.5193,1.03859,1.11559,1.11559,0,0,0,.816.29676H88.86728a1.11566,1.11566,0,0,0,.816-.29676,1.46474,1.46474,0,0,0,.4451-1.03859,1.10241,1.10241,0,0,0-.14838-.66767L76.4783,95.467a1.22394,1.22394,0,0,0-1.11278-.66766Z"/></g></svg>