<svg id="default" xmlns="http://www.w3.org/2000/svg" viewBox="0 0 165 165"><defs><style>.cls-1{fill:#fff;}.cls-2{fill:#c1121c;}</style></defs><path class="cls-1" d="M55.01369,155.99759a7.37891,7.37891,0,0,1-5.20211-2.162L11.17246,115.09648a7.37883,7.37883,0,0,1-2.15463-5.20209V54.92174a7.37873,7.37873,0,0,1,2.15463-5.20211L49.81158,10.98051a7.23112,7.23112,0,0,1,5.20211-1.97384h54.97265a7.19435,7.19435,0,0,1,5.20209,1.97384l38.6391,38.73912a7.3788,7.3788,0,0,1,2.15464,5.20211v54.97265a7.37894,7.37894,0,0,1-2.15464,5.20209l-38.6391,38.73912a7.37894,7.37894,0,0,1-5.20209,2.162Z"/><path class="cls-2" d="M149.84709,54.35041l-39.377-39.47707H54.75957l-39.377,39.47707v56.07941l39.377,39.477H110.4701l39.377-39.477Z"/><path class="cls-1" d="M120.06265,65.04971V80.72983h4.35353a4.27976,4.27976,0,0,0,4.38965-4.16694v0h0q.00242-.0933.00079-.18659V69.40321a4.27976,4.27976,0,0,0-4.20384-4.35432q-.09325-.00165-.18658.00078Zm-6.973,41.69071V58.03978h11.32657a11.03154,11.03154,0,0,1,11.32655,10.72815q.00813.29913,0,.59843v6.97308A11.03152,11.03152,0,0,1,125.0146,87.666q-.29917.00808-.59844,0h-4.35351V106.8512h-6.97309ZM89.58792,95.4138a4.7963,4.7963,0,0,0,9.59257,0V69.25568a4.7963,4.7963,0,1,0-9.59257-.02v.02h0Zm-6.97309,0V69.25568a11.76931,11.76931,0,1,1,23.50174,0V95.4138a11.76931,11.76931,0,1,1-23.50174,0ZM63.9094,106.74042V65.04971H55.64505V58.07663H79.14667v6.97308H70.88232v41.69071ZM29.081,92.79425h6.97308v2.61213a4.79627,4.79627,0,0,0,4.79626,4.79627h.43537a4.79625,4.79625,0,0,0,4.7962-4.79623v-5.239a4.79622,4.79622,0,0,0-2.99213-4.42731l-6.19826-2.51989a11.76929,11.76929,0,0,1-7.342-10.92078V69.2447a11.76931,11.76931,0,1,1,23.50173,0v2.61583H46.07822V69.2447a4.79627,4.79627,0,0,0-9.59254-.00554h0v3.06028A4.79632,4.79632,0,0,0,39.474,76.72678l6.19826,2.52359a11.7693,11.7693,0,0,1,7.342,10.92073v5.239A11.76928,11.76928,0,0,1,41.245,107.17938h-.43537A11.76931,11.76931,0,0,1,29.04031,95.41007h0"/></svg>