<svg id="jap" xmlns="http://www.w3.org/2000/svg" viewBox="0 0 165 165"><defs><style>.cls-1{fill:#be121e;}.cls-2,.cls-3{fill:#fff;}.cls-3{fill-rule:evenodd;}</style></defs><path class="cls-1" d="M82.501,153.4358a11.09675,11.09675,0,0,1-9.60374-5.52819L3.492,27.65915a11.09676,11.09676,0,0,1,9.6038-16.62495H151.90609a11.09676,11.09676,0,0,1,9.60374,16.62495L92.10469,147.90761A11.09674,11.09674,0,0,1,82.501,153.4358ZM32.06116,33.18736l50.4398,87.16,50.43976-87.15995Z"/><path class="cls-2" d="M82.501,149.80412a7.74753,7.74753,0,0,1-6.73881-3.88185L6.357,25.67382a7.74756,7.74756,0,0,1,6.73881-11.66168H151.90609a7.74754,7.74754,0,0,1,6.7388,11.66168L89.2397,145.92227A7.74753,7.74753,0,0,1,82.501,149.80412ZM26.4119,29.5556,82.501,126.80348,138.59,29.5556Z"/><path class="cls-1" d="M155.94128,19.58879a4.43868,4.43868,0,0,0-3.84151-2.21542H13.28948A4.43872,4.43872,0,0,0,9.448,24.03142L78.85323,144.28a4.43869,4.43869,0,0,0,7.66683,0L155.92512,24.03151a4.43864,4.43864,0,0,0,0-4.4387Z"/><path class="cls-3" d="M68.37782,56.18789a1.80776,1.80776,0,0,1-1.80776,1.80776H41.35015a1.80777,1.80777,0,0,1-.00179-3.61553h4.158V43.56585a1.80776,1.80776,0,1,1,3.6155-.01449q0,.00634,0,.01269V54.38012h4.1966v-23.404a1.80777,1.80777,0,1,1,3.61553-.00179v8.63707l4.358-2.41706a1.809,1.809,0,1,1,1.7553,3.16359h0l-6.05275,3.3613-.06579.03247V54.3642h9.64409l.00029-.0003a1.80777,1.80777,0,0,1,1.80777,1.80777Zm17.18987-2.00141a5.81063,5.81063,0,0,1-6.09313,3.80518c-1.86828,0-6.25452,0-6.25452-4.358a3.47833,3.47833,0,0,1,1.9732-3.34113,9.60385,9.60385,0,0,1,4.27731-.66984,23.77377,23.77377,0,0,1,2.55427.13921V45.36353h-7.223a1.80777,1.80777,0,0,1,0-3.61551h7.223V38.03159h-7.223a1.80777,1.80777,0,0,1,0-3.61553h7.223V30.9458a1.80776,1.80776,0,0,1,3.61544-.02506c0,.00776.00007.01551,0,.02327v3.47205h5.56859a1.80777,1.80777,0,0,1,0,3.61553H85.64026V41.748h5.56859a1.80776,1.80776,0,0,1,0,3.6155H85.64026v5.044a24.13031,24.13031,0,0,1,6.53706,2.83272v-.00026a1.80782,1.80782,0,1,1-1.90864,3.07082h0a20.57962,20.57962,0,0,0-4.72117-2.16689ZM82.158,53.73454a.65774.65774,0,0,0-.65773-.65774H77.344a.65774.65774,0,0,0,0,1.31548h4.15624A.65776.65776,0,0,0,82.158,53.73454Zm43.98351-1.88443-.00194-.00839a1.80774,1.80774,0,0,0-2.49777-.53667l-1.142.73842v-13.074a3.8374,3.8374,0,0,0-1.08143-2.67129l-.04842-.05448a3.83228,3.83228,0,0,0-1.04107-.74246l-.01968-.01039-.12346-.05528-.06093-.02634-.08515-.03349-.1041-.03944-.04441-.01548-.146-.04642-.00347-.001a3.82642,3.82642,0,0,0-1.09355-.1594l-.06537.0032a3.83745,3.83745,0,0,0-2.65919,1.12582l-4.92295,4.92289V30.99727a1.80777,1.80777,0,0,0-3.61551-.00179V44.79762l-3.15552,3.15146,2.44532-7.86861a1.80775,1.80775,0,0,0-1.41231-2.32022l-4.15624-.73039a1.80776,1.80776,0,0,0-2.09425,1.46477,1.87056,1.87056,0,0,0-.02757.316,1.81179,1.81179,0,0,0,1.49293,1.77951s1.06126.18763,2.12251.37438c-.92,2.9578-4.015,12.87226-4.015,12.87226l-.00245.00918-.01525.0585-.02467.1021-.01007.052-.017.12107-.00459.034c-.00445.05448-.00808.109-.00808.16308a1.62367,1.62367,0,0,0,.00918.16585l.00347.02683.019.13114.01034.04883.02527.10611.01649.05731.03546.09968.01972.05446c.01871.04593.04035.0912.063.1364l.03178.05648.05086.08556.0352.05326.06741.0924.02986.03744a1.84193,1.84193,0,0,0,.2413.24132l.031.02421.10207.075.04441.02986.09646.0565.05084.02823.10533.04924.09646.0384.08716.03081.00689.00229.13156.034.04593.01132.18.02637h.00347a1.79156,1.79156,0,0,0,.49229-.02168l.02143-.00347.0804-.01993.09282-.02268.00564-.00245a1.80867,1.80867,0,0,0,.53266-.26714l.07664-.0565.03945-.035.09725-.08756.00564-.00569,5.7703-5.77033v6.29489a1.80777,1.80777,0,0,0,3.61553.00767v-9.894l7.46509-7.4651a.23734.23734,0,0,1,.1691-.06939l.04559.00443.01429.0046.03077.01013.01133.00562.02986.01608.0023.0023a.236.236,0,0,1,.10209.19449V55.37813a1.80771,1.80771,0,0,0,2.78831,1.51721l3.93027-2.53812a1.8078,1.8078,0,0,0,.53667-2.49777ZM65.21023,72.91371a5.04426,5.04426,0,0,0-1.16615-2.04987,5.36685,5.36685,0,0,0-2.57447-1.57372,5.72991,5.72991,0,0,0-5.00362.95232,5.28585,5.28585,0,0,0-1.59793,2.02567,4.31758,4.31758,0,0,0-.42773,1.61809,1.1872,1.1872,0,0,0-.02341.28651v1.85618c0,.07223.02341.14364.02341.19045a4.68074,4.68074,0,0,0,.76253,2.21531,5.2462,5.2462,0,0,0,1.47685,1.5011,3.85749,3.85749,0,0,0,1.02492.54877c.04761.02366.09565.02366.14367.04723l2.95368,1.1461a1.45309,1.45309,0,0,1,.19045.09484,1.35138,1.35138,0,0,1,.42773.28647,2.038,2.038,0,0,1,.47615.64161,1.94852,1.94852,0,0,1,.23848.71431V86.155c0,.048-.02341.11943-.02341.16707a2.30812,2.30812,0,0,1-.119.38093,1.84412,1.84412,0,0,1-.76266.9765,2.10241,2.10241,0,0,1-1.19038.40353,2.42533,2.42533,0,0,1-1.2388-.16627,2.03377,2.03377,0,0,1-.87968-.6658,2.163,2.163,0,0,1-.45194-1.19038V84.77334H54.20463v1.52531a5.0843,5.0843,0,0,0,.28611,1.35582A4.6,4.6,0,0,0,56.04025,89.894a5.60877,5.60877,0,0,0,3.11919,1.31148,5.52832,5.52832,0,0,0,2.57444-.30988,4.76174,4.76174,0,0,0,2.074-1.263,4.60013,4.60013,0,0,0,1.35985-2.19114,7.22243,7.22243,0,0,0,.21385-1.21459c0-.04761,0-.09606.02423-.11943V83.34307a.29333.29333,0,0,1-.02423-.1424,4.96274,4.96274,0,0,0-.47615-1.76337,4.35751,4.35751,0,0,0-1.07337-1.45268,5.04347,5.04347,0,0,0-1.21459-.90388c-.3575-.16705-.71431-.28609-1.07334-.45194l-.14366-.07141-2.47761-.92809-.1424-.071a1.99357,1.99357,0,0,1-.38127-.28609,2.16278,2.16278,0,0,1-.47615-.64161,1.977,1.977,0,0,1-.23847-.81107.26484.26484,0,0,1-.0234-.119V74.29623a1.01173,1.01173,0,0,1,.0234-.119,1.49718,1.49718,0,0,1,.07141-.45194,1.75937,1.75937,0,0,1,.7143-1.00072,2.15882,2.15882,0,0,1,1.57372-.50038,2.31623,2.31623,0,0,1,1.12179.35753,2.21944,2.21944,0,0,1,.81107.87967,2.5796,2.5796,0,0,1,.16585.73844.21084.21084,0,0,1,.0242.11905V75.485h3.26447V74.08077a.6699.6699,0,0,1-.0234-.21385,4.51973,4.51973,0,0,0-.19128-.95232Zm4.72117-.7143h3.88187v18.8039h3.26444V72.19941h3.86167V69.29416H69.92326Zm25.50236-.87968a4.6403,4.6403,0,0,1,1.02495,2.59463V86.141a.45622.45622,0,0,1-.0242.19046,5.36657,5.36657,0,0,1-.50038,1.836,5.08424,5.08424,0,0,1-2.42917,2.4534,5.28606,5.28606,0,0,1-2.55025.59716,5.12451,5.12451,0,0,1-2.59461-.59716,5.2862,5.2862,0,0,1-1.836-1.5011,4.43864,4.43864,0,0,1-1.00071-2.23951A5.32043,5.32043,0,0,1,85.452,86.283a.4073.4073,0,0,0-.02341-.16585V74.1731a.41167.41167,0,0,0,.02341-.16625,5.44749,5.44749,0,0,1,4.80188-4.84223,5.36686,5.36686,0,0,1,2.7399.33332,5.28615,5.28615,0,0,1,2.42917,1.836Zm-2.23952,2.81253a2.32811,2.32811,0,0,0-.35672-.9523,2.14663,2.14663,0,0,0-1.12178-.807,2.179,2.179,0,0,0-1.45265-.04761,2.0942,2.0942,0,0,0-1.07337.71431,1.97345,1.97345,0,0,0-.40352.76254,1.21483,1.21483,0,0,0-.07143.40352.25547.25547,0,0,0-.02441.119V85.946c0,.048.02441.119.02441.16705a2.48189,2.48189,0,0,0,.42774,1.142,2.0902,2.0902,0,0,0,1.14611.76254,2.17907,2.17907,0,0,0,1.40424-.0234,2.2316,2.2316,0,0,0,1.02493-.71431,1.99741,1.99741,0,0,0,.40352-.81107,1.07376,1.07376,0,0,0,.07143-.38093V74.144Zm19.7724-.28609a.87855.87855,0,0,1,.0242.23848v3.69226a3.80927,3.80927,0,0,1-.47615,1.73916,4.96356,4.96356,0,0,1-1.64221,1.92881,5.32639,5.32639,0,0,1-2.23953.92809,3.68252,3.68252,0,0,1-.54878.09483h-2.42934v8.5546h-3.24025V69.3132h5.52822a.71384.71384,0,0,1,.23726.02421,5.32634,5.32634,0,0,1,1.715.42773A5.23017,5.23017,0,0,1,112.756,72.84a7.9456,7.9456,0,0,1,.21387,1.02492Zm-3.02637.38092c0-.07143-.02441-.16626-.02441-.23728a1.86826,1.86826,0,0,0-.47616-1.00071,2.26772,2.26772,0,0,0-1.025-.66582,3.42075,3.42075,0,0,0-.52458-.09564h-2.23953v7.344h2.23953a2.27158,2.27158,0,0,0,1.02494-.33411,2.05786,2.05786,0,0,0,.71429-.71431,1.97364,1.97364,0,0,0,.30992-.87967v-3.4057Z"/></svg>