<svg xmlns="http://www.w3.org/2000/svg" viewBox="0 0 40 40"><defs><linearGradient gradientUnits="userSpaceOnUse" id="Maneuver_Color"><stop offset="0" stop-color="#0FAFFF" /></linearGradient></defs><g id="d0_t2_1p8"><path id="d0_t2_1p8-2" data-name="d0_t2_1p8" d="M17.58577,38.96937h4.80241l.00348-9.4662a9.58657,9.58657,0,1,0-7.2483-17.52775L11.68858,8.52064l2.703-2.703H5.59154v8.80007l2.703-2.703,4.90878,4.90891a2.4,2.4,0,0,0,3.39415,0,4.8,4.8,0,1,1,3.39416,8.19418,2.4,2.4,0,0,0-2.4,2.4Z" fill="url(#Maneuver_Color)" fill-rule="evenodd"/><path id="d0_t2_1p8-3" data-name="d0_t2_1p8" d="M20.00455,10.6514a9.5891,9.5891,0,1,0,9.58907,9.58906A9.58916,9.58916,0,0,0,20.00455,10.6514Zm0,17.93956a8.3505,8.3505,0,1,1,8.3505-8.3505A8.35047,8.35047,0,0,1,20.00455,28.591Zm0-14.2238a5.87333,5.87333,0,1,0,5.8733,5.8733A5.87341,5.87341,0,0,0,20.00455,14.36716Zm0,10.66784a4.79454,4.79454,0,1,1,4.79453-4.79454A4.79454,4.79454,0,0,1,20.00455,25.035Z" fill="url(#Maneuver_Color)" fill-rule="evenodd"/></g></svg>