<svg xmlns="http://www.w3.org/2000/svg" viewBox="0 0 40 40"><defs><linearGradient gradientUnits="userSpaceOnUse" id="Maneuver_Color"><stop offset="0" stop-color="#0FAFFF" /></linearGradient></defs><g id="d0_t3_1p16"><path id="d0_t2_1p8-2" data-name="d0_t2_1p8" d="M20.00455,10.6514a9.5891,9.5891,0,1,0,9.58907,9.58906A9.58916,9.58916,0,0,0,20.00455,10.6514Zm0,17.93956a8.3505,8.3505,0,1,1,8.3505-8.3505A8.35047,8.35047,0,0,1,20.00455,28.591Zm0-14.2238a5.87333,5.87333,0,1,0,5.8733,5.8733A5.87341,5.87341,0,0,0,20.00455,14.36716Zm0,10.66784a4.79454,4.79454,0,1,1,4.79453-4.79454A4.79454,4.79454,0,0,1,20.00455,25.035Z" fill="url(#Maneuver_Color)" fill-rule="evenodd"/><path d="M17.60322,29.50124a9.5894,9.5894,0,0,1,0-18.57467V7.41132h-3.2008L20.00373,1.81,25.605,7.41132H22.40423v5.60106a2.40048,2.40048,0,0,1-2.4005,2.40051,4.801,4.801,0,1,0,0,9.602,2.40048,2.40048,0,0,1,2.4005,2.40051l-.016,11.55394H17.58577Z" fill="url(#Maneuver_Color)" fill-rule="evenodd"/></g></svg>