<svg xmlns="http://www.w3.org/2000/svg" viewBox="0 0 40 40"><defs><linearGradient gradientUnits="userSpaceOnUse" id="Maneuver_Color"><stop offset="0" stop-color="#0FAFFF" /></linearGradient></defs><g id="d0_t2_1p128"><path id="d0_t2_1p8-2" data-name="d0_t2_1p8" d="M20.00455,10.6514a9.5891,9.5891,0,1,0,9.58907,9.58906A9.58916,9.58916,0,0,0,20.00455,10.6514Zm0,17.93956a8.3505,8.3505,0,1,1,8.3505-8.3505A8.35047,8.35047,0,0,1,20.00455,28.591Zm0-14.2238a5.87333,5.87333,0,1,0,5.8733,5.8733A5.87341,5.87341,0,0,0,20.00455,14.36716Zm0,10.66784a4.79454,4.79454,0,1,1,4.79453-4.79454A4.79454,4.79454,0,0,1,20.00455,25.035Z" fill="url(#Maneuver_Color)" fill-rule="evenodd"/><path id="d0_t2_1p128-2" data-name="d0_t2_1p128" d="M19.98642,25.01408a4.76672,4.76672,0,0,0,3.35992-1.37725c.01112-.01163.01425-.02714.02563-.03851a2.39478,2.39478,0,0,1,3.38679,0L31.6826,28.522l2.70774-2.70774v8.8024H25.588L28.29568,31.909l-3.44306-3.44306a7.914,7.914,0,0,1-2.45689,1.03435c0,.82318-.00755,9.46913-.00755,9.46913H17.58577s.00776-10.32958.00776-11.55547A2.39688,2.39688,0,0,1,19.98642,25.01408Z" fill="url(#Maneuver_Color)" fill-rule="evenodd"/></g></svg>