<svg xmlns="http://www.w3.org/2000/svg" viewBox="0 0 40 40"><defs><linearGradient gradientUnits="userSpaceOnUse" id="Maneuver_Color"><stop offset="0" stop-color="#0FAFFF" /></linearGradient></defs><g id="d0_t3_1p32"><path id="d0_t2_1p8-2" data-name="d0_t2_1p8" d="M20.00455,10.6514a9.5891,9.5891,0,1,0,9.58907,9.58906A9.58916,9.58916,0,0,0,20.00455,10.6514Zm0,17.93956a8.3505,8.3505,0,1,1,8.3505-8.3505A8.35047,8.35047,0,0,1,20.00455,28.591Zm0-14.2238a5.87333,5.87333,0,1,0,5.8733,5.8733A5.87341,5.87341,0,0,0,20.00455,14.36716Zm0,10.66784a4.79454,4.79454,0,1,1,4.79453-4.79454A4.79454,4.79454,0,0,1,20.00455,25.035Z" fill="url(#Maneuver_Color)" fill-rule="evenodd"/><path d="M17.60617,29.49889a9.57843,9.57843,0,0,1-5.86595-14.161L8.3049,11.90244,5.60065,14.60668v-8.804H14.4047L11.70045,8.50688l4.91114,4.911a2.40114,2.40114,0,0,1,0,3.39569,4.80222,4.80222,0,0,0,3.39568,8.19789,2.40108,2.40108,0,0,1,2.4011,2.4011l-.02019,11.55681H17.58577Z" fill="url(#Maneuver_Color)" fill-rule="evenodd"/></g></svg>