<svg xmlns="http://www.w3.org/2000/svg" viewBox="0 0 40 40"><g id="EA45_flag_bosniaherzigovina"><rect y="7" width="40" height="26" fill="#002395" /><path d="M7.6,7h26V33Z" fill="#fecb00" /><polygon points="22.498 22.208 20.704 22.193 20.164 20.481 19.595 22.183 17.8 22.168 19.243 23.235 18.674 24.937 20.135 23.895 21.577 24.962 21.037 23.251 22.498 22.208" fill="#fff" /><polygon points="19.248 18.958 17.454 18.943 16.914 17.231 16.345 18.933 14.55 18.918 15.993 19.985 15.424 21.687 16.885 20.645 18.327 21.712 17.787 20.001 19.248 18.958" fill="#fff" /><polygon points="15.998 15.708 14.204 15.693 13.664 13.981 13.095 15.683 11.3 15.668 12.743 16.735 12.174 18.437 13.635 17.395 15.077 18.462 14.537 16.751 15.998 15.708" fill="#fff" /><polygon points="12.748 12.458 10.954 12.443 10.414 10.731 9.845 12.433 8.05 12.418 9.493 13.485 8.924 15.187 10.385 14.145 11.827 15.212 11.287 13.501 12.748 12.458" fill="#fff" /><polygon points="9.498 9.208 7.704 9.193 7.164 7.481 6.595 9.183 4.8 9.168 6.243 10.235 5.674 11.937 7.135 10.895 8.577 11.962 8.037 10.251 9.498 9.208" fill="#fff" /><polygon points="25.748 25.458 23.954 25.443 23.414 23.731 22.845 25.433 21.05 25.418 22.493 26.485 21.924 28.187 23.385 27.145 24.827 28.212 24.287 26.501 25.748 25.458" fill="#fff" /><polygon points="28.998 28.708 27.204 28.693 26.664 26.981 26.095 28.683 24.3 28.668 25.743 29.735 25.174 31.437 26.635 30.395 28.077 31.462 27.537 29.751 28.998 28.708" fill="#fff" /><polygon points="28.988 33 30.788 33 32.248 31.958 30.454 31.943 29.914 30.231 29.345 31.933 27.55 31.918 28.993 32.985 28.988 33" fill="#fff" /><polygon points="2.986 7 2.424 8.681 3.885 7.638 5.327 8.706 4.789 7 2.986 7" fill="#fff" /></g></svg>