<svg xmlns="http://www.w3.org/2000/svg" xmlns:xlink="http://www.w3.org/1999/xlink" viewBox="0 0 44 44"><defs><linearGradient id="Beschriftung_schwarz" x1="12.24121" y1="22.09728" x2="31.9707" y2="22.09728" gradientUnits="userSpaceOnUse"><stop offset="0" stop-color="#010101"/><stop offset="0"/></linearGradient></defs><g id="Speedlimit_90"><path id="Beschriftung_schwarz-2" data-name="Beschriftung_schwarz" d="M20.9082,21.54308l-4.34472,8.68946H13.96973l3.41406-6.83887h-.044a3.43954,3.43954,0,0,1-1.23046.21094,3.83745,3.83745,0,0,1-2.70508-1.0752,4.45808,4.45808,0,0,1-1.16309-3.43554,4.84461,4.84461,0,0,1,1.47363-3.9795,5.10535,5.10535,0,0,1,3.30274-1.208,4.45137,4.45137,0,0,1,3.10351,1.33007,4.73293,4.73293,0,0,1,1.40821,3.61328A5.84666,5.84666,0,0,1,20.9082,21.54308Zm-4.02343,0a2.29269,2.29269,0,0,0,1.64062-.64257,2.61317,2.61317,0,0,0,.67578-2.00684q0-2.67041-2.3164-2.6709a2.45972,2.45972,0,0,0-1.5625.60938,2.51008,2.51008,0,0,0-.76465,2.06152,2.63124,2.63124,0,0,0,.67578,2.00684A2.28258,2.28258,0,0,0,16.88477,21.54308Zm5.9082,4.123V18.53918a4.31209,4.31209,0,0,1,1.39746-3.44141,4.79709,4.79709,0,0,1,6.37891,0,4.30516,4.30516,0,0,1,1.40136,3.44141v7.12695a4.28728,4.28728,0,0,1-1.40136,3.43555,4.8116,4.8116,0,0,1-6.37891,0A4.29415,4.29415,0,0,1,22.793,25.66613Zm6.86133-.13281V18.672a2.52193,2.52193,0,0,0-.626-1.81738,2.4049,2.4049,0,0,0-3.29785,0,2.53641,2.53641,0,0,0-.62012,1.81738v6.86133a2.53387,2.53387,0,0,0,.62012,1.82324,2.42075,2.42075,0,0,0,3.29785,0A2.5194,2.5194,0,0,0,29.6543,25.53332Z" fill="url(#Beschriftung_schwarz)"/></g></svg>