<svg xmlns="http://www.w3.org/2000/svg" xmlns:xlink="http://www.w3.org/1999/xlink" viewBox="0 0 44 44"><defs><linearGradient id="Beschriftung_schwarz" x1="17.36035" y1="22.07726" x2="26.57422" y2="22.07726" gradientUnits="userSpaceOnUse"><stop offset="0" stop-color="#010101"/><stop offset="0"/></linearGradient></defs><g id="Speedlimit_5"><path id="Beschriftung_schwarz-2" data-name="Beschriftung_schwarz" d="M26.27051,21.76818a9.3759,9.3759,0,0,1,.30371,2.853,8.65292,8.65292,0,0,1-.127,1.53418,6.90151,6.90151,0,0,1-.3252,1.22461,4.68176,4.68176,0,0,1-.49121.94922,4.31759,4.31759,0,0,1-.5957.71679,3.89238,3.89238,0,0,1-.66211.50293,4.81423,4.81423,0,0,1-.66211.33594,4.5309,4.5309,0,0,1-.62891.19922,4.71945,4.71945,0,0,1-.52441.09863c-.13233.01465-.26123.02637-.38623.03321h-.09912a5.35019,5.35019,0,0,1-3.00733-.96582,4.17591,4.17591,0,0,1-1.70459-3.21582h2.31738a2.14355,2.14355,0,0,0,2.30616,1.875,2.03985,2.03985,0,0,0,1.42334-.45215A2.67635,2.67635,0,0,0,24.124,26.0343a9.59661,9.59661,0,0,0,.13282-1.58985,5.28,5.28,0,0,0-.127-1.21875,3.01474,3.01474,0,0,0-.32031-.856,2.265,2.265,0,0,0-.45215-.54638,1.87549,1.87549,0,0,0-.47949-.31983,2.20374,2.20374,0,0,0-.46387-.13818,3.52108,3.52108,0,0,0-.47412-.0332h-.02246a2.28235,2.28235,0,0,0-2.07422,1.33545H17.6582v-8.729h8.59571V16.256H19.84326v3.64161a4.01076,4.01076,0,0,1,2.582-.88282,3.90277,3.90277,0,0,1,1.67139.35352,3.86341,3.86341,0,0,1,1.209.83838A4.57855,4.57855,0,0,1,26.27051,21.76818Z" fill="url(#Beschriftung_schwarz)"/></g></svg>