<?xml version="1.0" encoding="UTF-8"?>
<svg id="Ebene_1" data-name="Ebene 1" xmlns="http://www.w3.org/2000/svg" xmlns:xlink="http://www.w3.org/1999/xlink" viewBox="0 0 44 44">
  <defs>
    <style>
      .cls-1 {
        fill: url(#Beschriftung_schwarz);
      }
    </style>
    <linearGradient id="Beschriftung_schwarz">
      <stop offset="0" stop-color="#000"/>
    </linearGradient>
  </defs>
  <path id="Speedlimit_82" class="cls-1" d="M11.93615,25.46691c-.05724-1.46487,.66882-2.84967,1.90625-3.63574-.46414-.40859-.85892-.88978-1.16895-1.4248-.3107-.56454-.46573-1.20153-.44922-1.84571-.02422-1.24028,.45822-2.43684,1.33594-3.31347,.85934-.89638,2.05542-1.39098,3.29687-1.36329,1.24174-.0277,2.43813,.46688,3.29786,1.36329,.87772,.87664,1.36015,2.07319,1.33593,3.31347,.01606,.64486-.14109,1.28223-.45507,1.84571-.30993,.53043-.69845,1.01082-1.15235,1.4248,1.22982,.7919,1.95041,2.17405,1.89551,3.63574,.04639,1.32238-.48598,2.59929-1.458,3.49707-1.96208,1.79558-4.97054,1.79558-6.93262,0-.96925-.89927-1.4993-2.17574-1.45215-3.49707Zm2.3164-.02246c-.0184,.6958,.26675,1.3652,.78125,1.834,1.02247,.96875,2.62402,.96875,3.64649,0,1.0145-.95607,1.06187-2.55353,.10579-3.56804-.03421-.0363-.06949-.07158-.10579-.10579-1.01987-.97527-2.62662-.97527-3.64649,0-.51403,.47158-.79891,1.14248-.78125,1.83983Zm.28809-6.92773c-.04447,.65643,.21989,1.29601,.71484,1.72949,.92432,.78255,2.27881,.78255,3.20313,0,.49495-.43348,.75931-1.07306,.71484-1.72949,.04227-.65437-.22186-1.29125-.71484-1.72364-.92145-.79034-2.28168-.79034-3.20313,0-.49298,.43239-.75711,1.06927-.71484,1.72364Zm8.14077,11.64876v-2.17187l6.31738-7.90283c.21214-.2513,.37393-.54107,.47656-.85352,.07221-.24468,.10968-.4983,.11133-.75341-.00616-.57744-.21847-1.13367-.59863-1.56836-.39936-.48425-1.00278-.75306-1.62988-.72608-.59888-.01115-1.17807,.2139-1.61231,.62647-.46266,.45172-.73099,1.06601-.748,1.7124h-2.31645c-.02103-1.2392,.463-2.43363,1.34078-3.30859,.81951-.86934,1.96451-1.35742,3.15918-1.34668,1.26117-.0337,2.47968,.45796,3.3643,1.35747,.87932,.86075,1.36625,2.04506,1.34668,3.27539,.02148,1.02989-.32008,2.03451-.96485,2.83789l-5.19824,6.51709h5.85695v2.30463h-8.9048Z"/>
</svg>