<svg xmlns="http://www.w3.org/2000/svg" xmlns:xlink="http://www.w3.org/1999/xlink" viewBox="0 0 44 44"><defs><linearGradient id="Beschriftung_schwarz" x1="10.99121" y1="22.1339" x2="33.32813" y2="22.1339" gradientUnits="userSpaceOnUse"><stop offset="0" stop-color="#010101"/><stop offset="0"/></linearGradient></defs><g id="Speedlimit_130"><path id="Beschriftung_schwarz-2" data-name="Beschriftung_schwarz" d="M15.62305,14.0509v16.166H13.30664V16.50305l-2.31543,1.70312V15.754l2.31543-1.70312Zm7.49023,7.81054A2.58737,2.58737,0,0,1,24.544,24.60851v1.45313a6.09475,6.09475,0,0,1-.36329,2.40723,3.349,3.349,0,0,1-3.11035,1.88476,3.26915,3.26915,0,0,1-3.42871-3.33789V25.58508H19.958V26.7882a1.14044,1.14044,0,1,0,2.27051,0V24.33605c0-.749-.09082-1.42968-1.56739-1.42968h-.27246V20.86242h.22754c1.1582,0,1.61231-.29492,1.61231-1.3623V17.45617a1.08376,1.08376,0,0,0-1.13575-1.22559A1.10728,1.10728,0,0,0,19.958,17.38879v1.29394H17.6416V17.34289a3.46979,3.46979,0,0,1,3.49707-3.42871,3.32331,3.32331,0,0,1,1.95215.61328c1.06738.83984,1.45313,1.58984,1.45313,3.97363C24.544,20.5675,24.49805,21.06652,23.11328,21.86144Zm10.21485,5.08594a3.45147,3.45147,0,0,1-6.90235,0V17.32043a3.45147,3.45147,0,0,1,6.90235,0Zm-4.58594-.02246a1.13549,1.13549,0,0,0,2.27051,0v-9.582A1.1048,1.1048,0,0,0,29.877,16.23058a1.124,1.124,0,0,0-1.13476,1.13477Z" fill="url(#Beschriftung_schwarz)"/></g></svg>