<?xml version="1.0" encoding="UTF-8"?>
<svg id="Ebene_1" data-name="Ebene 1" xmlns="http://www.w3.org/2000/svg" viewBox="0 0 44 44">
  <defs>
    <style>
      .cls-1 {
        fill: #ffd033;
      }

      .cls-1, .cls-2 {
        fill-rule: evenodd;
      }
    </style>
  </defs>
  <path d="M2.53,20.70024c-.7105,.71715-.7105,1.87285,0,2.59l18.2,18.2c.71715,.7105,1.87285,.7105,2.59,0l18.2-18.2c.7105-.71715,.7105-1.87285,0-2.59L23.32,2.50024c-.71715-.7105-1.87285-.7105-2.59,0L2.53,20.70024"/>
  <path class="cls-2" d="M2.88,21.10024c-.52111,.52614-.52111,1.37386,0,1.9l18.2,18.2c.52614,.52111,1.37386,.52111,1.9,0l18.2-18.2c.52111-.52614,.52111-1.37386,0-1.9L22.98,2.90024c-.52614-.52111-1.37386-.52111-1.9,0L2.88,21.10024"/>
  <path class="cls-1" d="M3.4,21.60024c-.23776,.23712-.23828,.62208-.00116,.85984,.00039,.00039,.00077,.00077,.00116,.00116l18.2,18.2c.23837,.23722,.62363,.23722,.862,0l18.2-18.2c.23711-.23803,.23711-.62297,0-.861L22.462,3.40024c-.23882-.23613-.62318-.23613-.862,0L3.4,21.60024"/>
  <path class="cls-2" d="M29.8,17.60024c.13096,.04861,.27263,.06088,.41,.0355,.39198-.08286,.67482-.42542,.682-.826-.00075-.16066-.04723-.31779-.134-.453l-5.28-8.17-5.8,8.15c-.13285,.18492-.18151,.41731-.134,.64,.0409,.21195,.16335,.39938,.341,.522,.16052,.11461,.3583,.16459,.554,.14,.04441-.00501,.08849-.01262,.132-.0228l2.81-.808v.738c.00133,.58612-.2797,1.13702-.755,1.48l-5.85,4.44c-.54489,.42853-1.00596,.95401-1.36,1.55-.57924,.94836-.8842,2.03874-.881,3.15v4.21h4.24v-4.21c.00267-.57565,.27606-1.1165,.738-1.46l5.75-4.36c1.47655-1.14628,2.34032-2.91073,2.34-4.78v-.69l2.197,.7243Z"/>
</svg>