<?xml version="1.0" encoding="UTF-8"?>
<svg id="Ebene_1" data-name="Ebene 1" xmlns="http://www.w3.org/2000/svg" viewBox="0 0 44 44">
  <defs>
    <style>
      .cls-1 {
        fill: #010101;
      }

      .cls-1, .cls-2 {
        fill-rule: evenodd;
      }

      .cls-2 {
        fill: #ffd033;
      }
    </style>
  </defs>
  <path d="M41.5,20.70024L23.3,2.50024c-.71715-.7105-1.87285-.7105-2.59,0L2.51,20.70024c-.7105,.71715-.7105,1.87285,0,2.59l18.2,18.2c.71715,.7105,1.87285,.7105,2.59,0l18.2-18.2c.7105-.71715,.7105-1.87285,0-2.59"/>
  <path class="cls-1" d="M41.1,21.10024L22.9,2.90024c-.52614-.52111-1.37386-.52111-1.9,0L2.8,21.10024c-.52111,.52614-.52111,1.37386,0,1.9l18.2,18.2c.52614,.52111,1.37386,.52111,1.9,0l18.2-18.2c.52111-.52614,.52111-1.37386,0-1.9"/>
  <path class="cls-2" d="M40.6,21.60024L22.4,3.40024c-.23848-.23602-.62252-.23602-.861,0L3.339,21.60024c-.23711,.23803-.23711,.62297,0,.861l18.2,18.2c.23803,.23711,.62297,.23711,.861,0l18.2-18.2c.23776-.23712,.23828-.62208,.00116-.85984-.00039-.00039-.00077-.00077-.00116-.00116"/>
  <path class="cls-1" d="M22.7,20.00024c-1.53264,.65906-2.87409,1.69438-3.9,3.01-.54536,.87884-.82685,1.89582-.811,2.93-.0144,1.33-.00223,2.66-.00334,4,0,.63867-.00037,1.27867-.0011,1.92,0,.272-.763,.124-.979,.124h-3.28c-.0339,0-.0156-.216-.0156-.247-.00284-1.57333-.00562-3.14333-.00835-4.71-.15066-2.14839,.33265-4.29375,1.39-6.17,1.29747-1.88936,3.10888-3.36764,5.22-4.26-.44133-.488-.88133-.97467-1.32-1.46-.194-.214-.427-.424-.598-.654-.25198-.36763-.15823-.86992,.20939-1.1219,.0934-.06402,.19923-.10767,.31061-.1281,.33667-.0584,.67926-.07499,1.02-.0494h1.88c2.62667,.00158,5.25667,.00211,7.89,.00158-1.16,2.35333-2.32,4.71-3.48,7.07-.28067,.57-.56167,1.14-.843,1.71-.11507,.30307-.27484,.58721-.474,.843-.33184,.34366-.87945,.35324-1.22311,.0214-.05737-.0554-.1068-.11846-.14689-.1874-.11534-.23887-.20291-.49018-.261-.749-.18933-.62933-.379-1.25933-.569-1.89"/>
</svg>