<?xml version="1.0" encoding="UTF-8"?>
<svg id="Ebene_1" data-name="Ebene 1" xmlns="http://www.w3.org/2000/svg" viewBox="0 0 44 44">
  <defs>
    <style>
      .cls-1 {
        fill: #00f300;
      }
    </style>
  </defs>
  <g>
    <path d="M21.89014,41.35937c-.27783,0-.54785-.11426-.74121-.31348L2.94189,22.83837c-.4624-.47803-.4624-1.23779,.00732-1.72314L21.14209,2.92236c.21777-.18213,.54248-.30713,.87695-.31738,.29639,.01025,.62109,.13525,.87646,.35205l18.16211,18.16553c.46289,.47803,.46289,1.23779-.00684,1.72314l-18.19287,18.19238c-.21826,.18262-.54297,.30762-.87695,.31738,0,0-.09082,.00391-.09081,.00391Z"/>
    <path class="cls-1" d="M22,3.23196c.16688,.01274,.32784,.07452,.46041,.1767l18.14105,18.14081c.23375,.2417,.23375,.62034,.01466,.84714l-18.15572,18.15572c-.14274,.11002-.31838,.17319-.4989,.17876l-.04893,.00157-.02175,.00143c-.11011,0-.21729-.04534-.30695-.13747L3.39854,22.4115c-.23374-.24169-.23374-.62035-.01466-.84714L21.53959,3.40865c.13257-.10218,.29353-.16396,.46041-.17669m0-1.25147c-.47744,.01471-.93575,.19099-1.3,.5L2.5,20.68048c-.70105,.7249-.70105,1.8751,0,2.6l18.2,18.2c.31359,.32295,.74374,.50359,1.19082,.50359,.03632,0,.07268-.00119,.10917-.00359,.47744-.01471,.93575-.19099,1.3-.5l18.2-18.2c.70106-.7249,.70106-1.8751,0-2.6L23.3,2.48048c-.36425-.30901-.82256-.48529-1.3-.5h0Z"/>
  </g>
  <path class="cls-1" d="M27.8,32.50048c-.46933,.332-.93933,.66433-1.41,.997-.01506,.00894-.03058,.01709-.0465,.0244-1.08-2.79333-2.15667-5.58667-3.23-8.38l-.0323-.0213c-.01319,.02903-.02952,.05653-.0487,.082-.454,.48267-.90733,.966-1.36,1.45-.0362,.04019-.06353,.08755-.0802,.139-.67333,2.04-1.34333,4.08333-2.01,6.13-.0119,.0361-.0249,.0719-.041,.118-.152-.0552-.296-.108-.441-.16-.48734-.17867-.974-.35633-1.46-.533-.0594-.0215-.0871-.0391-.0666-.116,.58467-2.18,1.17134-4.36,1.76-6.54,.01427-.04625,.03415-.09058,.0592-.132,.66333-1.18667,1.32667-2.37333,1.99-3.56,.02407-.04318,.03198-.09352,.0223-.142-.24933-.86667-.49967-1.73-.751-2.59-.005-.0174-.0137-.0337-.0253-.0619-.0929,.121-.179,.233-.265,.345-.173,.226-.345,.453-.521,.676-.03168,.03911-.07356,.0687-.121,.0855-1.26667,.41867-2.53333,.83867-3.8,1.26-.0658,.0218-.102,.017-.142-.0452-.157-.244-.321-.485-.482-.727-.0159-.0239-.03-.0489-.05-.0816,.167-.112,.329-.222,.493-.33,1.02667-.68,2.05-1.36333,3.07-2.05,.04831-.03391,.08359-.0833,.1-.14,.19178-.85613,.45195-1.69549,.778-2.51,.2196-.58162,.54019-1.11989,.947-1.59,.21241-.25543,.49617-.4417,.815-.535,.28679-.05525,.58261-.04143,.863,.0403,.65526,.16996,1.28679,.42089,1.88,.747,1.20609,.6356,2.36268,1.36098,3.46,2.17,.03725,.03164,.05985,.0772,.0625,.126,.00187,1.78,.00267,3.56,.00242,5.34,0,.0253-.00321,.0506-.00582,.0899-.141-.0231-.276-.0446-.411-.0677-.21-.0359-.419-.0751-.629-.108-.0576-.0091-.0816-.0284-.0876-.0898-.082-.83333-.16467-1.66667-.248-2.5-.0586-.58133-.1156-1.16133-.171-1.74l.00022-.00394c.00174-.05095-.03815-.09366-.0891-.0954h-.0001c-.379-.0727-.758-.151-1.15-.23,.011,.0372,.017,.0636,.0264,.0886,.3421,.88076,.60188,1.79132,.776,2.72,.13868,.7077,.18673,1.43017,.143,2.15-.02503,.37359-.09452,.74286-.207,1.1-.01469,.04838-.01629,.0998-.00464,.149,.57933,2.37333,1.15933,4.74333,1.74,7.11,.14667,.60467,.29467,1.208,.444,1.81,.013,.0526,.0136,.0885-.0366,.124,0,0-.00858,.00814-.00858,.00814Zm-7.3-19.3c.96648,.00551,1.75444-.77352,1.75994-1.74,.00551-.96648-.77352-1.75444-1.74-1.75994-.96646-.00551-1.7544,.77348-1.75994,1.73994-.00554,.96648,.77346,1.75446,1.73994,1.76h.00006Z"/>
</svg>