<svg xmlns="http://www.w3.org/2000/svg" xmlns:xlink="http://www.w3.org/1999/xlink" viewBox="0 0 44 44"><defs><linearGradient id="Hintergrund_weiss" x1="2.29344" y1="22.00003" x2="41.70695" y2="22.00003" gradientUnits="userSpaceOnUse"><stop offset="0" stop-color="#fff"/></linearGradient><linearGradient id="Rahmen_schwarz" x1="2" y1="22" x2="42" y2="22" gradientUnits="userSpaceOnUse"><stop offset="0" stop-color="#010101"/><stop offset="0"/></linearGradient><linearGradient id="Beschriftung_schwarz" x1="7.50078" y1="26.45087" x2="37.20098" y2="26.45087" xlink:href="#Rahmen_schwarz"/></defs><title>speedlimit_usa_can_75</title><g id="speedlimit_usa_can_75"><path id="Hintergrund_weiss-2" data-name="Hintergrund_weiss" d="M4.75559,41.70648h34.488A2.46093,2.46093,0,0,0,41.707,39.24314V4.75692A2.463,2.463,0,0,0,39.2436,2.29358H4.75559A2.463,2.463,0,0,0,2.29344,4.75692V39.24315a2.50377,2.50377,0,0,0,1.15792,2.09369,2.8329,2.8329,0,0,0,1.30423.36965Z" fill="url(#Hintergrund_weiss)"/><path id="Rahmen_schwarz-2" data-name="Rahmen_schwarz" d="M39.5,3h0a2.09694,2.09694,0,0,1,1.1.4A1.50387,1.50387,0,0,1,41,4.5v35A1.538,1.538,0,0,1,39.5,41H4.5a1.88389,1.88389,0,0,1-.8-.2A1.70937,1.70937,0,0,1,3,39.5V4.5A1.538,1.538,0,0,1,4.5,3h35m0-1H4.5A2.47572,2.47572,0,0,0,2,4.5v35a2.24512,2.24512,0,0,0,1.2,2.1,3.25851,3.25851,0,0,0,1.3.4h35A2.47572,2.47572,0,0,0,42,39.5h0V4.5A2.54,2.54,0,0,0,39.5,2Z" fill="url(#Rahmen_schwarz)"/><path id="Beschriftung_schwarz-2" data-name="Beschriftung_schwarz" d="M21.02617,20.85077a25.24732,25.24732,0,0,0-5.1748,13.8252H12.67559a29.34609,29.34609,0,0,1,4.67578-13.79981H7.50078V17.926H21.02617ZM37.201,28.926a5.49345,5.49345,0,0,1-1.97461,4.33789,7.47033,7.47033,0,0,1-5.0752,1.71191,12.20481,12.20481,0,0,1-6.45019-1.875l1.57519-2.52441a10.12084,10.12084,0,0,0,4.875,1.375,4.69148,4.69148,0,0,0,3.04981-.86328,2.689,2.689,0,0,0,1.125-2.1875,2.5423,2.5423,0,0,0-1.02442-2.21192,4.49686,4.49686,0,0,0-2.77539-.8623,9.64276,9.64276,0,0,0-3.59961.77441l-2.60058-.75.4248-7.9248H35.92656v2.97461h-8.375l-.15039,2.45019a11.77761,11.77761,0,0,1,3.22461-.47461,6.68742,6.68742,0,0,1,4.72559,1.71192A5.6564,5.6564,0,0,1,37.201,28.926Z" fill="url(#Beschriftung_schwarz)"/></g></svg>