<svg xmlns="http://www.w3.org/2000/svg" xmlns:xlink="http://www.w3.org/1999/xlink" viewBox="0 0 44 44"><defs><linearGradient id="Hintergrund_weiss" x1="2.29344" y1="22.00003" x2="41.70695" y2="22.00003" gradientUnits="userSpaceOnUse"><stop offset="0" stop-color="#fff"/></linearGradient><linearGradient id="Rahmen_schwarz" x1="2" y1="22" x2="42" y2="22" gradientUnits="userSpaceOnUse"><stop offset="0" stop-color="#010101"/><stop offset="0"/></linearGradient><linearGradient id="Beschriftung_schwarz" x1="7.53301" y1="26.31542" x2="37.15801" y2="26.31542" xlink:href="#Rahmen_schwarz"/></defs><title>speedlimit_usa_can_180</title><g id="speedlimit_usa_can_180"><path id="Hintergrund_weiss-2" data-name="Hintergrund_weiss" d="M4.75559,41.70648h34.488A2.46093,2.46093,0,0,0,41.707,39.24314V4.75692A2.463,2.463,0,0,0,39.2436,2.29358H4.75559A2.463,2.463,0,0,0,2.29344,4.75692V39.24315a2.50377,2.50377,0,0,0,1.15792,2.09369,2.8329,2.8329,0,0,0,1.30423.36965Z" fill="url(#Hintergrund_weiss)"/><path id="Rahmen_schwarz-2" data-name="Rahmen_schwarz" d="M39.5,3h0a2.09694,2.09694,0,0,1,1.1.4A1.50387,1.50387,0,0,1,41,4.5v35A1.538,1.538,0,0,1,39.5,41H4.5a1.88389,1.88389,0,0,1-.8-.2A1.70937,1.70937,0,0,1,3,39.5V4.5A1.538,1.538,0,0,1,4.5,3h35m0-1H4.5A2.47572,2.47572,0,0,0,2,4.5v35a2.24512,2.24512,0,0,0,1.2,2.1,3.25851,3.25851,0,0,0,1.3.4h35A2.47572,2.47572,0,0,0,42,39.5h0V4.5A2.54,2.54,0,0,0,39.5,2Z" fill="url(#Rahmen_schwarz)"/><path id="Beschriftung_schwarz-2" data-name="Beschriftung_schwarz" d="M11.3084,34.678H8.95781V20.90262H7.533V19.00321A2.38448,2.38448,0,0,0,9.5584,17.928h1.75ZM24.283,29.60282a5.96072,5.96072,0,0,1-1.23731,3.8623,4.0738,4.0738,0,0,1-3.41211,1.5127A4.08831,4.08831,0,0,1,16.1834,33.3284a5.79838,5.79838,0,0,1-1.25-3.57519,5.10686,5.10686,0,0,1,1.75-4.2002A4.13871,4.13871,0,0,1,15.158,22.10282a4.28154,4.28154,0,0,1,4.47558-4.4502,4.26072,4.26072,0,0,1,3.16211,1.25,4.35733,4.35733,0,0,1,1.23731,3.2002,4.05762,4.05762,0,0,1-1.42481,3.4248A4.75865,4.75865,0,0,1,24.283,29.60282Zm-2.29981.15039a3.31469,3.31469,0,0,0-.64941-2.15039,2.207,2.207,0,0,0-3.40039,0,3.30941,3.30941,0,0,0-.65039,2.15039,3.186,3.186,0,0,0,.65039,2.07519,2.207,2.207,0,0,0,3.40039,0A3.191,3.191,0,0,0,21.9832,29.75321Zm-.2998-7.65039a2.05038,2.05038,0,0,0-.58789-1.5127,1.98781,1.98781,0,0,0-1.46192-.58691,2.0941,2.0941,0,0,0-1.52539.58691,2.029,2.029,0,0,0-.59961,1.5127,2.20629,2.20629,0,0,0,.59961,1.6123,2.04193,2.04193,0,0,0,1.52539.61328,1.93122,1.93122,0,0,0,1.47461-.61328A2.25721,2.25721,0,0,0,21.6834,22.10282Zm10.499,12.875A4.01518,4.01518,0,0,1,28.408,32.81571a13.80607,13.80607,0,0,1-1.2002-6.5127A13.74793,13.74793,0,0,1,28.408,19.8284a4.01143,4.01143,0,0,1,3.77441-2.17578,4.01288,4.01288,0,0,1,3.77539,2.17578A13.76,13.76,0,0,1,37.158,26.303a13.81815,13.81815,0,0,1-1.2002,6.5127A4.01664,4.01664,0,0,1,32.18242,34.97782Zm0-2.34961A2.01792,2.01792,0,0,0,34.158,31.10282a14.43061,14.43061,0,0,0,.59961-4.84961,13.77007,13.77007,0,0,0-.59961-4.75,2.05034,2.05034,0,0,0-3.9502,0,13.74117,13.74117,0,0,0-.60058,4.75,14.40018,14.40018,0,0,0,.60058,4.84961A2.01609,2.01609,0,0,0,32.18242,32.62821Z" fill="url(#Beschriftung_schwarz)"/></g></svg>