<svg xmlns="http://www.w3.org/2000/svg" xmlns:xlink="http://www.w3.org/1999/xlink" viewBox="0 0 44 44"><defs><linearGradient id="Hintergrund_weiss" x1="2.29344" y1="22.00003" x2="41.70695" y2="22.00003" gradientUnits="userSpaceOnUse"><stop offset="0" stop-color="#fff"/></linearGradient><linearGradient id="Rahmen_schwarz" x1="2" y1="22" x2="42" y2="22" gradientUnits="userSpaceOnUse"><stop offset="0" stop-color="#010101"/><stop offset="0"/></linearGradient><linearGradient id="Beschriftung_schwarz" x1="5.68828" y1="26.31513" x2="38.46367" y2="26.31513" xlink:href="#Rahmen_schwarz"/></defs><title>speedlimit_usa_can_200</title><g id="speedlimit_usa_can_200"><path id="Hintergrund_weiss-2" data-name="Hintergrund_weiss" d="M4.75559,41.70648h34.488A2.46093,2.46093,0,0,0,41.707,39.24314V4.75692A2.463,2.463,0,0,0,39.2436,2.29358H4.75559A2.463,2.463,0,0,0,2.29344,4.75692V39.24315a2.50377,2.50377,0,0,0,1.15792,2.09369,2.8329,2.8329,0,0,0,1.30423.36965Z" fill="url(#Hintergrund_weiss)"/><path id="Rahmen_schwarz-2" data-name="Rahmen_schwarz" d="M39.5,3h0a2.09694,2.09694,0,0,1,1.1.4A1.50387,1.50387,0,0,1,41,4.5v35A1.538,1.538,0,0,1,39.5,41H4.5a1.88389,1.88389,0,0,1-.8-.2A1.70937,1.70937,0,0,1,3,39.5V4.5A1.538,1.538,0,0,1,4.5,3h35m0-1H4.5A2.47572,2.47572,0,0,0,2,4.5v35a2.24512,2.24512,0,0,0,1.2,2.1,3.25851,3.25851,0,0,0,1.3.4h35A2.47572,2.47572,0,0,0,42,39.5h0V4.5A2.54,2.54,0,0,0,39.5,2Z" fill="url(#Rahmen_schwarz)"/><path id="Beschriftung_schwarz-2" data-name="Beschriftung_schwarz" d="M15.03789,34.67743H5.68828a12.3559,12.3559,0,0,1,1.29981-4.9375A14.54635,14.54635,0,0,1,10.83867,24.777a8.30751,8.30751,0,0,0,1.41211-1.39844,2.07925,2.07925,0,0,0,.48731-1.22656,2.05238,2.05238,0,0,0-.6875-1.46094,2.35411,2.35411,0,0,0-3.3252,0,2.26248,2.26248,0,0,0-.6875,1.66211H5.68828A4.84616,4.84616,0,0,1,7.076,19.07782a4.36254,4.36254,0,0,1,3.3125-1.42578,4.6956,4.6956,0,0,1,3.28711,1.25,4.09593,4.09593,0,0,1,1.3623,3.15039,4.01075,4.01075,0,0,1-.6875,2.3125,10.32421,10.32421,0,0,1-1.66211,1.88867,21.33162,21.33162,0,0,0-2.52539,2.8125,8.802,8.802,0,0,0-1.59961,3.26172h6.47461Zm6.8252.30078a4.01518,4.01518,0,0,1-3.77442-2.16211,13.81048,13.81048,0,0,1-1.20019-6.51367,13.75064,13.75064,0,0,1,1.20019-6.47461A4.0131,4.0131,0,0,1,21.86309,17.652a4.01455,4.01455,0,0,1,3.77539,2.17578,13.76287,13.76287,0,0,1,1.20019,6.47461,13.82269,13.82269,0,0,1-1.20019,6.51367A4.01664,4.01664,0,0,1,21.86309,34.97821Zm0-2.34961a2.02011,2.02011,0,0,0,1.97558-1.52539,14.43417,14.43417,0,0,0,.59961-4.84961,13.76607,13.76607,0,0,0-.59961-4.75,2.05033,2.05033,0,0,0-3.95019,0,13.73737,13.73737,0,0,0-.60059,4.75,14.404,14.404,0,0,0,.60059,4.84961A2.01826,2.01826,0,0,0,21.86309,32.6286Zm11.625,2.34961a4.01518,4.01518,0,0,1-3.77442-2.16211,13.81048,13.81048,0,0,1-1.20019-6.51367,13.75064,13.75064,0,0,1,1.20019-6.47461A4.0131,4.0131,0,0,1,33.48809,17.652a4.01455,4.01455,0,0,1,3.77539,2.17578,13.76287,13.76287,0,0,1,1.20019,6.47461,13.82269,13.82269,0,0,1-1.20019,6.51367A4.01664,4.01664,0,0,1,33.48809,34.97821Zm0-2.34961a2.02011,2.02011,0,0,0,1.97558-1.52539,14.43417,14.43417,0,0,0,.59961-4.84961,13.76607,13.76607,0,0,0-.59961-4.75,2.05033,2.05033,0,0,0-3.95019,0,13.73737,13.73737,0,0,0-.60059,4.75,14.404,14.404,0,0,0,.60059,4.84961A2.01826,2.01826,0,0,0,33.48809,32.6286Z" fill="url(#Beschriftung_schwarz)"/></g></svg>