<svg xmlns="http://www.w3.org/2000/svg" viewBox="0 0 40 40"><g id="EA45_flag_burundi"><path d="M.07723,7.05435H39.92277L.07723,32.94582H39.92277Z" fill="#ce1126" /><path d="M0,7.00018V33L40,7.00018V33Z" fill="#1eb53a" /><path d="M0,7.00018,40,33M40,7.00018,0,33" /><polygon points="40 33 36.89 33 20 22.021 3.11 33 0 33 0 30.979 16.89 20 0 9.022 0 7 3.11 7 20 17.979 36.89 7 40 7 40 9.022 23.11 20 40 30.979 40 33" fill="#fff" /><circle cx="20" cy="20.00008" r="6.8" fill="#fff" /><polygon points="20.924 16.48 21.386 15.68 20.462 15.68 20 14.88 19.538 15.68 18.614 15.68 19.076 16.48 18.614 17.28 19.538 17.28 20 18.08 20.462 17.28 21.386 17.28 20.924 16.48" fill="#1eb53a" /><polygon points="20.758 16.48 21.136 15.824 20.379 15.824 20 15.168 19.621 15.824 18.864 15.824 19.242 16.48 18.864 17.136 19.621 17.136 20 17.792 20.379 17.136 21.136 17.136 20.758 16.48" fill="#ce1126" /><polygon points="23.972 21.76 24.434 20.96 23.51 20.96 23.048 20.16 22.586 20.96 21.663 20.96 22.125 21.76 21.663 22.56 22.587 22.56 23.048 23.36 23.51 22.56 24.434 22.56 23.972 21.76" fill="#1eb53a" /><polygon points="23.806 21.76 24.185 21.104 23.427 21.104 23.048 20.448 22.67 21.104 21.912 21.104 22.291 21.76 21.912 22.416 22.67 22.416 23.048 23.072 23.427 22.416 24.185 22.416 23.806 21.76" fill="#ce1126" /><polygon points="17.963 21.76 18.425 20.96 17.501 20.96 17.04 20.16 16.578 20.96 15.654 20.96 16.116 21.76 15.654 22.56 16.578 22.56 17.04 23.36 17.501 22.56 18.425 22.56 17.963 21.76" fill="#1eb53a" /><polygon points="17.797 21.76 18.176 21.104 17.418 21.104 17.04 20.448 16.661 21.104 15.903 21.104 16.282 21.76 15.903 22.416 16.661 22.416 17.04 23.072 17.418 22.416 18.176 22.416 17.797 21.76" fill="#ce1126" /></g></svg>