<svg xmlns="http://www.w3.org/2000/svg" xmlns:xlink="http://www.w3.org/1999/xlink" viewBox="0 0 44 44"><defs><style>.cls-1{fill:url(#Hintergrund_weiss);}.cls-2{fill:url(#Rahmen_rot);}.cls-3{fill:#fff;}.cls-4{fill:#010101;}.cls-5{fill:url(#Beschriftung_schwarz);}</style><linearGradient id="Hintergrund_weiss" x1="2.00206" y1="22.00194" x2="42.00184" y2="22.00194" gradientUnits="userSpaceOnUse"><stop offset="1" stop-color="#fff"/><stop offset="1"/></linearGradient><linearGradient id="Rahmen_rot" x1="3.09257" y1="21.99998" x2="40.90747" y2="21.99998" gradientUnits="userSpaceOnUse"><stop offset="1" stop-color="#e52421"/><stop offset="1"/></linearGradient><linearGradient id="Beschriftung_schwarz" x1="18.50001" y1="22.27482" x2="26.58631" y2="22.27482" gradientUnits="userSpaceOnUse"><stop offset="1"/></linearGradient></defs><g id="Ebene_1" data-name="Ebene 1"><g id="Hintergrund"><circle id="Hintergrund_weiss-2" data-name="Hintergrund weiss-2" class="cls-1" cx="22.00195" cy="22.00194" r="19.99989"/></g><path id="Rahmen_rot-2" data-name="Rahmen rot-2" class="cls-2" d="M22,3.09256A18.90744,18.90744,0,1,0,40.90743,22h0a18.86977,18.86977,0,0,0-18.832-18.90743Q22.03772,3.09249,22,3.09256ZM22,35.9624A13.96241,13.96241,0,1,1,35.96241,22h0A13.966,13.966,0,0,1,22,35.9624Z"/><g id="On"><path id="Hintergrund-2" data-name="Hintergrund" class="cls-3" d="M41.48535,20.82861A2.90235,2.90235,0,1,1,38.583,17.92627h0A2.90575,2.90575,0,0,1,41.48535,20.82861ZM38.583,16.98877a2.491,2.491,0,0,0,2.48828-2.4878V3.98828a2.48828,2.48828,0,0,0-4.97656-.00388V14.501A2.491,2.491,0,0,0,38.583,16.98877Z"/><path id="Ausrufezeichen" class="cls-4" d="M38.583,23.73144a2.90259,2.90259,0,1,1,2.90234-2.90284h0A2.90576,2.90576,0,0,1,38.583,23.73144Zm0-4.80518a1.90259,1.90259,0,1,0,1.90234,1.90284v-.0005A1.90468,1.90468,0,0,0,38.583,18.92626Zm0-1.9375A2.491,2.491,0,0,1,36.09473,14.501V3.98827a2.48828,2.48828,0,1,1,4.97656-.00388V14.501A2.491,2.491,0,0,1,38.583,16.98876ZM38.583,2.5a1.49008,1.49008,0,0,0-1.48828,1.48828V14.501a1.48828,1.48828,0,0,0,2.97656,0V3.98827A1.49009,1.49009,0,0,0,38.583,2.5Z"/></g></g><g id="Speedlimit_questionmark" data-name="Speedlimit questionmark"><g id="V1"><path class="cls-5" d="M20.84373,25.66131,20.668,23.342l1.7041-1.65576q.45849-.45411.874-.86914a8.08012,8.08012,0,0,0,.72559-.8252,4.16928,4.16928,0,0,0,.49512-.835,2.22731,2.22731,0,0,0,.18554-.90332,1.3858,1.3858,0,0,0-.18554-.72266,1.57612,1.57612,0,0,0-.51758-.5249,2.535,2.535,0,0,0-.78125-.31982,4.18784,4.18784,0,0,0-.97656-.10742q-.34131,0-.67383.02441-.33252.02416-.6543.07324-.32226.04908-.63183.12207-.31056.07325-.60547.166-.29591.093-.57617.21-.28125.11718-.54981.24414V15.778a5.79776,5.79776,0,0,1,.79785-.36133,7.43393,7.43393,0,0,1,.93555-.27344,9.20189,9.20189,0,0,1,1.0498-.1709,10.92133,10.92133,0,0,1,1.15235-.05859,6.58376,6.58376,0,0,1,.98633.07568,5.34737,5.34737,0,0,1,.96.23682,4.30927,4.30927,0,0,1,.86327.41259,3.03779,3.03779,0,0,1,.70117.59571,2.651,2.651,0,0,1,.46875.791,2.78354,2.78354,0,0,1,.17091,1.00342,3.90446,3.90446,0,0,1-.11719.97412,4.24486,4.24486,0,0,1-.32519.8667,5.423,5.423,0,0,1-.48047.78125,7.82345,7.82345,0,0,1-.584.70313q-.30909.3318-.63672.63965-.32667.30762-.63476.5957l-1.4502,1.29931-.12207,1.77247Zm-.4541,3.97461V27.40935h2.26074v2.22657Z"/></g></g></svg>