<svg xmlns="http://www.w3.org/2000/svg" viewBox="0 0 84 44"><defs><style>.cls-1{fill:#fff;}</style></defs><g id="E10A_Partikelfilter"><g id="Version_1-3" data-name="Version_1"><circle class="cls-1" cx="22.99163" cy="14.47685" r="3.01365"/><circle class="cls-1" cx="31.75779" cy="14.47685" r="3.01365"/><circle class="cls-1" cx="40.52394" cy="14.47685" r="3.01365"/><circle class="cls-1" cx="49.29009" cy="14.47685" r="3.01365"/><circle class="cls-1" cx="22.99163" cy="29.08094" r="3.01365"/><circle class="cls-1" cx="31.75779" cy="29.08094" r="3.01365"/><circle class="cls-1" cx="40.52394" cy="29.08094" r="3.01365"/><circle class="cls-1" cx="49.29009" cy="29.08094" r="3.01365"/><circle class="cls-1" cx="27.79027" cy="22.00002" r="3.01365"/><circle class="cls-1" cx="36.55642" cy="22.00002" r="3.01365"/><circle class="cls-1" cx="45.32258" cy="22.00002" r="3.01365"/><path class="cls-1" d="M72.1759,21a2.00085,2.00085,0,0,1,1.4142.58665l2.41161,2.41155L73.48694,26.513l-2.90616-2.92536A2.39438,2.39438,0,0,0,69,23H56V35H16V23H4v3h9v8.554A3.49174,3.49174,0,0,0,16.5,38H55.538a3.44623,3.44623,0,0,0,3.44715-3.44608V26h9.52514a.99557.99557,0,0,1,.6971.2848l4.28276,4.20061,6.43494-6.4245-4.36111-4.44356A5.39933,5.39933,0,0,0,71.71045,18H58.98511V9.446A3.44617,3.44617,0,0,0,55.538,6H16.4436A3.48973,3.48973,0,0,0,13,9.5V18H4v3H16V9H56V21Z"/></g></g></svg>