<svg xmlns="http://www.w3.org/2000/svg" viewBox="0 0 84 44"><defs><style>.cls-1,.cls-2{fill:#fff;}.cls-1{fill-rule:evenodd;}</style></defs><g id="E10F_Motordrehzahl"><path class="cls-1" d="M67.906,26.791H64.13a23.81295,23.81295,0,0,1-1.136,14.99h3.942a27.43917,27.43917,0,0,0,.97-14.99Z"/><path class="cls-2" d="M42.00391,8.77222A25.00758,25.00758,0,0,0,31,11.31544V13.584a22.86981,22.86981,0,0,1,11.00391-2.81177,21.61343,21.61343,0,0,1,19.4685,31.00831h2.19623A23.6076,23.6076,0,0,0,42.00391,8.77222Z"/><path class="cls-1" d="M62.134,13.604,45.494,31.965a3.32685,3.32685,0,0,1,.118.84,3.51991,3.51991,0,1,1-2.914-3.356l18.665-16.7C61.575,12.994,62.134,13.604,62.134,13.604Z"/><path class="cls-1" d="M26,34.11948a3.55,3.55,0,1,1-3.569,3.55A3.56064,3.56064,0,0,1,26,34.11948Z"/><path class="cls-1" d="M26,2.21947a2.99981,2.99981,0,0,1,3,3v23a3,3,0,0,1-6,0v-23A2.99981,2.99981,0,0,1,26,2.21947Z"/><path class="cls-2" d="M42,3.11109A29.11014,29.11014,0,0,0,31.35315,5.124C31.35376,5.15656,31,5.18684,31,5.21949V8.36927A27.85361,27.85361,0,0,1,42,6.11109,26.2614,26.2614,0,0,1,66.53186,41.78053h3.18781A29.25745,29.25745,0,0,0,42,3.11109Z"/></g></svg>