<svg xmlns="http://www.w3.org/2000/svg" viewBox="0 0 84 44"><defs><style>.cls-1{fill:#fff;fill-rule:evenodd;}</style></defs><g id="E111_Kessy_Lenkung"><g id="Version_4-2" data-name="Version_4"><path class="cls-1" d="M73.2535,14.192A8.74389,8.74389,0,0,0,65.4645,19H41.0055l-3.402,2.642,4.66,4.93,2.418-3.57,2.711,3.57,2.62-3.57,2,1.999,1.333-1.333,2.077,1.881,2.061-2.056,3.047,3.079h4.723a8.7663,8.7663,0,1,0,8-12.38Zm3.159,11.425a2.61355,2.61355,0,1,1,2.597-2.613A2.60509,2.60509,0,0,1,76.4125,25.617Z"/><path class="cls-1" d="M19.0112,38.85A16.85,16.85,0,1,1,35.85,22.00255,16.85948,16.85948,0,0,1,19.0112,38.85Zm.01367-30.86309A14.05422,14.05422,0,0,0,6.24869,16.22419a.86241.86241,0,0,0,.8706,1.22176h23.778a.85829.85829,0,0,0,.86787-1.22176A14.00252,14.00252,0,0,0,19.02487,7.98691Zm-.02469,28.03147a13.98809,13.98809,0,0,0,8.1144-2.59563.5977.5977,0,0,0,.10994-.09891c.39021-.33463.49988-.80671-.49451-1.76706l-2.26075-1.98111a9.21044,9.21044,0,0,1-10.92467,0l-2.25794,1.98111c-.98892.96035-.87369,1.43243-.49732,1.76706a.79127.79127,0,0,0,.11522.09891A13.94257,13.94257,0,0,0,19.00018,36.01838Zm0-7.41937a4.81273,4.81273,0,0,0,.011-9.62017,4.813,4.813,0,0,0-.011,9.62017Zm9.25443-7.36454.00565.86718a9.14409,9.14409,0,0,1-1.13193,4.43929l2.93379,2.574c.50562.37844,1.06024.0491,1.39845-.68611l.05765-.12624a13.92557,13.92557,0,0,0,1.4888-5.998c-.0112-1.0866-.544-1.059-1.14832-1.059Zm-18.49264,0-3.60136.011c-.607,0-1.13721-.0276-1.15361,1.059a13.92747,13.92747,0,0,0,1.49427,5.998l.05766.12624c.34348.73521.88727,1.06455,1.39543.68611l2.9368-2.57395a9.17437,9.17437,0,0,1-1.13475-4.43929Z"/></g></g></svg>