<svg xmlns="http://www.w3.org/2000/svg" viewBox="0 0 84 44"><defs><style>.cls-1{fill:#fff;fill-rule:evenodd;}.cls-2{fill:none;stroke:#fff;stroke-width:4px;}</style></defs><g id="E115_no_key"><g id="Version_2-3" data-name="Version_2"><path class="cls-1" d="M68.022,11.80769a10.55931,10.55931,0,0,0-9.633,6.278v-.035H28.747l-3.77,2.753,5.627,5.953,2.919-4.311,3.274,4.311,3.164-4.311,2.414,2.414,1.609-1.609,2.509,2.271,2.488-2.483,3.679,3.718h5.703a10.58485,10.58485,0,1,0,9.659-14.949Zm3.815,13.796a3.15557,3.15557,0,1,1,3.135-3.156A3.14582,3.14582,0,0,1,71.837,25.60369Z"/><path class="cls-2" d="M6.419,17.82169a6.7173,6.7173,0,0,1,6.45-6.814c2.811,0,5.526,1.745,6.086,4.403.488,2.318-.679,3.676-1.772,4.754-.006.006-2.217,2.158-3.471,3.38a5.20034,5.20034,0,0,0-1.505,2.66,3.39353,3.39353,0,0,0-.077.681"/><path class="cls-1" d="M14,30H10v4h4Z"/></g></g></svg>