<svg xmlns="http://www.w3.org/2000/svg" viewBox="0 0 84 44"><defs><style>.cls-1{fill:#fff;fill-rule:evenodd;}</style></defs><g id="E117_key_detection"><path class="cls-1" d="M51.026,37.998l-2.714-2.864.398-.419a28.24223,28.24223,0,0,0,7.678-19.55,28.92842,28.92842,0,0,0-2.93-12.711l-.259-.526L56.616.058l.267.543a33.22482,33.22482,0,0,1,3.355,14.564A32.32977,32.32977,0,0,1,51.44,37.562Zm-5.393-5.023L42.92,30.107l.399-.419A21.23918,21.23918,0,0,0,46.809,5.76l-.257-.525,3.41-1.866.268.543a25.27458,25.27458,0,0,1,2.642,11.253,25.0776,25.0776,0,0,1-6.824,17.373Zm-5.274-5.022-2.715-2.869.4-.42a13.67353,13.67353,0,0,0,3.737-9.499,14.02385,14.02385,0,0,0-1.42-6.173l-.259-.526,3.411-1.87.267.543a17.97394,17.97394,0,0,1,1.851,8.026,17.8249,17.8249,0,0,1-4.857,12.351Z"/><path class="cls-1" d="M23.673,15.758a6.921,6.921,0,0,0,4.028,6.307l-.201-.09592V41.474l1.944,2.468,3.82-3.684-2.766-1.911,2.766-2.144-2.766-2.072,1.549-1.58-1.032-1.054,1.457-1.643-1.593-1.629L33,25.816V22.082a7.16424,7.16424,0,0,0,4.327-6.324,6.82764,6.82764,0,1,0-13.654,0Zm8.852-2.499A2.02518,2.02518,0,1,1,30.5,11.207,2.03928,2.03928,0,0,1,32.525,13.259Z"/></g></svg>