<svg xmlns="http://www.w3.org/2000/svg" viewBox="0 0 84 44"><defs><style>.cls-1,.cls-2,.cls-3{fill:#fff;}.cls-2{stroke:#fff;stroke-miterlimit:10;stroke-width:0.25px;}.cls-3{fill-rule:evenodd;}</style></defs><g id="E11B_ACC"><g id="Version_6"><polygon class="cls-1" points="68.2 16.311 64.6 12.611 61.1 16.211 59.2 14.311 59.2 21.611 66.5 21.611 64.7 19.811 68.2 16.311"/><path class="cls-2" d="M30.7,19.51089H21.8v2.3s-.1.1,0,.1l-4,.1v-6.3h5.1v-2.1H17.8v-1.2l1.6-1H41.8l1.7,1v1.1H38.3v2.1h7.1v-4.3l-2.5-1.6v-.1h2.2l.4-2H42.3c-.9-1.4-2.4-3.5-3.8-3.8-1.6-.2-6.3-.2-7.8-.2a71.32584,71.32584,0,0,0-7.9.3c-1.3.5-2.8,2.5-3.6,3.7H15.8l.4,2h2.2v.1l-2.5,1.6v10.5a1.86551,1.86551,0,0,0,1.9,2h4a2.05923,2.05923,0,0,0,1.9-2v-.3h4.5Zm-10.4-10.2c1-1.5,2.3-3.3,2.9-3.5a59.14435,59.14435,0,0,1,7.5-.2c4,0,6.5.1,7.5.2.5.1,1.8,1.7,2.9,3.5v.3H20.3Z"/><path class="cls-1" d="M57.30625,38.47136h6.44043c.03223-.46289.05176-.83593.05176-1.2207a19.72412,19.72412,0,1,0-39.44824,0c0,.40234.02343.80762.0498,1.2207h6.44043c-.03223-.39355-.04687-.79492-.04687-1.2207,0-.41309.01562-.81543.04589-1.19727l-4.02539.00489.02246-.27246a17.16168,17.16168,0,0,1,4.00586-9.67871l.17579-.209,2.74121,2.76563a17.834,17.834,0,0,1,1.72168-1.71387l-2.75586-2.7627.208-.1748a17.10712,17.10712,0,0,1,9.65723-4.00733l.27246-.02294-.001.10937-.01172,3.78125c.38379-.02734.84375-.044,1.22656-.044.37207,0,.82226.01661,1.20117.044l.001-3.89062.27148.02294a17.13044,17.13044,0,0,1,9.668,4.00831l.208.17578-.07715.07617-2.67383,2.66992a18.38876,18.38876,0,0,1,1.71778,1.7168l2.74414-2.75293.17578.208A17.19044,17.19044,0,0,1,61.317,35.82l.02246.2705H57.31211c.0293.36328.043.74414.043,1.16016C57.35508,37.66277,57.33848,38.072,57.30625,38.47136Z"/><path class="cls-3" d="M44.08469,34.15143a3.11888,3.11888,0,1,1-3.14317,3.08879,2.98073,2.98073,0,0,1,.1442-.899L36.804,31.99888l-1.01053-3.12169,3.09436,1.07329L43.15867,34.282a3.07141,3.07141,0,0,1,.926-.13054"/></g></g></svg>