<svg xmlns="http://www.w3.org/2000/svg" viewBox="0 0 84 44"><defs><style>.cls-1{fill:#fff;fill-rule:evenodd;}</style></defs><g id="E121_TPMS"><path id="Version_2-3" data-name="Version_2" class="cls-1" d="M80.82978,28.33717a5.33242,5.33242,0,0,1-1.833,2.8448,6.742,6.742,0,0,1-1.66137.97986,10.156,10.156,0,0,1-2.18822.62164A15.83716,15.83716,0,0,1,72.40516,33q-1.04474,0-2.01361-.08482a18.1077,18.1077,0,0,1-1.808-.24546,12.02987,12.02987,0,0,1-1.51669-.38316A4.838,4.838,0,0,1,66,31.77866V28.397a6.51188,6.51188,0,0,0,1.13366.465,14.61686,14.61686,0,0,0,1.5137.35921q.80973.14968,1.68332.2305.87409.08232,1.72624.08182a9.61731,9.61731,0,0,0,2.02059-.18759,4.38945,4.38945,0,0,0,1.43587-.55479,2.40925,2.40925,0,0,0,.85513-.902,2.59008,2.59008,0,0,0,.28438-1.23231,2.70417,2.70417,0,0,0-.0918-.72143,1.94458,1.94458,0,0,0-.29536-.61066,2.29567,2.29567,0,0,0-.53582-.51887,4.73816,4.73816,0,0,0-.81423-.451,9.44556,9.44556,0,0,0-1.12155-.40412q-.6436-.19308-1.47478-.38416a17.17487,17.17487,0,0,1-1.829-.52585,9.56561,9.56561,0,0,1-1.54862-.69548,6.64948,6.64948,0,0,1-1.2393-.899,5.04029,5.04029,0,0,1-.913-1.12954,5.17721,5.17721,0,0,1-.56477-1.39595,6.96964,6.96964,0,0,1-.19158-1.69031,8.20864,8.20864,0,0,1,.17761-1.7442,5.32146,5.32146,0,0,1,.57176-1.5127,4.82932,4.82932,0,0,1,1.01977-1.24329,5.58228,5.58228,0,0,1,1.52667-.934,9.4151,9.4151,0,0,1,2.09942-.58971A16.14021,16.14021,0,0,1,74.15235,11q.895,0,1.75516.08182a15.97886,15.97886,0,0,1,1.61947.23449,10.10431,10.10431,0,0,1,1.39895.38017A5.03318,5.03318,0,0,1,80,12.22233V15.604a8.487,8.487,0,0,0-1.18483-.459,13.96638,13.96638,0,0,0-1.46081-.35822q-.7753-.14967-1.59651-.23449a15.55983,15.55983,0,0,0-1.6095-.08581,6.38144,6.38144,0,0,0-1.64241.18859,3.3478,3.3478,0,0,0-1.17245.54181,2.24772,2.24772,0,0,0-.70445.86811,2.769,2.769,0,0,0-.23449,1.16546,2.64458,2.64458,0,0,0,.09279.72442,1.76435,1.76435,0,0,0,.30134.60068,2.29387,2.29387,0,0,0,.54481.49692,4.82835,4.82835,0,0,0,.81722.42607,9.81654,9.81654,0,0,0,1.12954.38317q.64809.18109,1.47878.35921a17.15164,17.15164,0,0,1,1.90184.52885,9.1661,9.1661,0,0,1,1.56758.70346,6.41294,6.41294,0,0,1,1.22632.906,4.896,4.896,0,0,1,.88507,1.13252,5.24377,5.24377,0,0,1,.53285,1.393A7.45078,7.45078,0,0,1,81.0503,26.564,6.99022,6.99022,0,0,1,80.82978,28.33717ZM59,17,51.843,28.0019H49.84738L43,17V32.991L39,33V11h5l6.8452,11.015L58,11h5V33H59ZM35.00676,22.20455a5.68278,5.68278,0,0,1-1.09561,1.44784,5.92879,5.92879,0,0,1-1.55361,1.0577,8.399,8.399,0,0,1-2.0176.64958,12.94081,12.94081,0,0,1-2.49157.22152l-2.89767.008s-.03692,7.40983-.0489,7.40185L21,33V11l7.18564.01a12.2479,12.2479,0,0,1,2.3828.21353,7.9382,7.9382,0,0,1,1.93179.63063,5.504,5.504,0,0,1,2.53646,2.44965,6.9,6.9,0,0,1,.62663,1.7891,10.5354,10.5354,0,0,1,.20556,2.14232,10.24879,10.24879,0,0,1-.21354,2.1573A6.975,6.975,0,0,1,35.00676,22.20455ZM31.221,16.63371a3.19112,3.19112,0,0,0-.67553-1.21934,3.00619,3.00619,0,0,0-1.14051-.77631,4.34774,4.34774,0,0,0-1.61647-.2744c.03392.002-2.79191.016-2.79191.016l-.06087,7.75408a22.53555,22.53555,0,0,1,2.47759.06286,5.31075,5.31075,0,0,0,1.835-.28139,3.21639,3.21639,0,0,0,1.24828-.79825,3.1811,3.1811,0,0,0,.71743-1.24928,5.48325,5.48325,0,0,0,.2285-1.63244A5.4082,5.4082,0,0,0,31.221,16.63371ZM11.93011,32.991,8,33V15H3V11H17v4H12Z"/></g></svg>