<svg xmlns="http://www.w3.org/2000/svg" viewBox="0 0 84 44"><defs><style>.cls-1{fill:#fff;fill-rule:evenodd;}</style></defs><g id="E122_Getriebe"><path id="Version_2-3" data-name="Version_2" class="cls-1" d="M62.755,25.4635a.51451.51451,0,0,1-.433.431l-4.019.615-.544,1.681,2.893,2.872a.51946.51946,0,0,1,.099.601,21.0707,21.0707,0,0,1-1.127,1.988.5223.5223,0,0,1-.57.217l-3.938-1.083-1.178,1.314,1.484,3.82a.51638.51638,0,0,1-.155.592,20.98946,20.98946,0,0,1-1.852,1.33.511.511,0,0,1-.606-.035l-3.149-2.589-1.608.719-.191,4.082a.51574.51574,0,0,1-.381.477,21.02261,21.02261,0,0,1-2.235.469.53878.53878,0,0,1-.079.007.51561.51561,0,0,1-.461-.287l-1.825-3.644H41.12l-1.825,3.644a.52051.52051,0,0,1-.54.28,20.77689,20.77689,0,0,1-2.235-.47.5138.5138,0,0,1-.381-.477l-.191-4.081-1.608-.719-3.149,2.589a.51262.51262,0,0,1-.605.036,21.069,21.069,0,0,1-1.853-1.331.51638.51638,0,0,1-.155-.592l1.484-3.82-1.178-1.314-3.937,1.083a.51587.51587,0,0,1-.571-.218,20.92155,20.92155,0,0,1-1.127-1.987.519.519,0,0,1,.098-.6l2.894-2.873-.544-1.681-4.019-.615a.51448.51448,0,0,1-.433-.432,21.61439,21.61439,0,0,1-.234-2.279.516.516,0,0,1,.335-.511l3.798-1.44.185-1.758-3.423-2.203a.519.519,0,0,1-.221-.568,21.2376,21.2376,0,0,1,.697-2.181.54061.54061,0,0,1,.512-.33l4.069.236.879-1.531-2.237-3.415a.51817.51817,0,0,1,.03-.609,21.38693,21.38693,0,0,1,1.52-1.703.51457.51457,0,0,1,.602-.094l3.622,1.878,1.426-1.038-.661-4.04a.52165.52165,0,0,1,.274-.546,20.60973,20.60973,0,0,1,2.088-.921.51323.51323,0,0,1,.585.161l2.543,3.187,1.723-.367,1.03-3.949a.5119.5119,0,0,1,.461-.382l.123-.009a15.03665,15.03665,0,0,1,2.058,0l.122.009a.51182.51182,0,0,1,.462.383l1.03,3.948,1.723.367,2.542-3.187a.51365.51365,0,0,1,.585-.161,20.53164,20.53164,0,0,1,2.089.921.52086.52086,0,0,1,.273.548l-.66,4.038,1.426,1.038,3.621-1.878a.51516.51516,0,0,1,.602.093,21.39217,21.39217,0,0,1,1.521,1.704.51838.51838,0,0,1,.031.608l-2.238,3.416.879,1.531,4.069-.237a.50679.50679,0,0,1,.512.332,21.13913,21.13913,0,0,1,.697,2.18.519.519,0,0,1-.221.568l-3.423,2.203.185,1.758,3.798,1.44a.516.516,0,0,1,.335.511A21.661,21.661,0,0,1,62.755,25.4635Zm-6.772-5.181A14.20736,14.20736,0,0,0,43.835,8.0885a14.63575,14.63575,0,0,0-1.827-.116,14.014,14.014,0,0,0-9.977,4.144,14.12415,14.12415,0,1,0,23.952,8.166ZM42,33.7455a2.361,2.361,0,1,1,2.352-2.361A2.35646,2.35646,0,0,1,42,33.7455Zm0-7.371a2.34665,2.34665,0,0,1-2.34-2.348V13.4705a2.34,2.34,0,1,1,4.68,0v10.556A2.34665,2.34665,0,0,1,42,26.3745Z"/></g></svg>