<svg xmlns="http://www.w3.org/2000/svg" viewBox="0 0 84 44"><defs><style>.cls-1{fill:#fff;fill-rule:evenodd;}</style></defs><g id="E129_nightvision"><g id="Version_3-2" data-name="Version_3"><path id="Version_3-3" data-name="Version_3" class="cls-1" d="M59.58856,42H55.42083L62.4525,22h2.283Zm-8.6227-17.5605L52.7005,22h2.393l-1.36517,2.4335Zm-.74616,6.277-3.75088.056,2.7413-3.861,3.14984-.027ZM20.4825,42l22.806-20h2.557L24.35794,42Zm27.64361-7.5385L43.9022,42H38.49385l5.36305-7.5385Z"/><path class="cls-1" d="M25.15015,11.44464a10.19152,10.19152,0,0,1,5.95434-9.27948A10.84421,10.84421,0,0,0,18.75354,12.97638c0,7.42822,6.005,10.91626,10.9162,10.91626a14.6555,14.6555,0,0,0,6.74664-1.32745C31.00238,22.33472,25.15015,17.1438,25.15015,11.44464Z"/></g></g></svg>