<svg xmlns="http://www.w3.org/2000/svg" viewBox="0 0 84 44"><defs><style>.cls-1{fill:none;stroke:#fff;stroke-width:2.6px;}.cls-2,.cls-3{fill:#fff;fill-rule:evenodd;}.cls-3{fill-opacity:0.502;}</style></defs><g id="E13B_AdBlue"><g id="Version_1-3" data-name="Version_1"><path class="cls-1" d="M27.11441,42.6896h-6.31c.35-10.212,4.207-16.43,7.839-19.205l2.247,3.827S27.11441,31.5506,27.11441,42.6896Z"/><path class="cls-2" d="M63.10941,10.7156l-4.449-7.772a5.4375,5.4375,0,0,0-7.478-2.008l-15.978,9.382a5.61542,5.61542,0,0,0-2.464,6.499l-2.218,1.379a1.43319,1.43319,0,0,0-.47,1.95l4.121,6.847a1.43386,1.43386,0,0,0,1.938.499l2.255-1.309a6.31469,6.31469,0,0,0,7.425.758l15.429-9.059A5.28452,5.28452,0,0,0,63.10941,10.7156Zm-28.003,7.534a1.02871,1.02871,0,0,0,.411-.526c.122.011.245.026.369.026a3.94258,3.94258,0,0,0,2.931-1.308,3.94129,3.94129,0,0,0,5.865,0,3.93793,3.93793,0,0,0,5.862,0,3.94017,3.94017,0,0,0,5.864,0,3.99046,3.99046,0,0,0,1.035.798l-12.899,7.574a3.87671,3.87671,0,0,1-5.074-1.061,1.0369,1.0369,0,0,0-1.353-.279l-2.36,1.371-3.066-5.094Zm21.302-5.546a1.03856,1.03856,0,0,0-1.038,1.039,1.89434,1.89434,0,1,1-3.788,0,1.0375,1.0375,0,1,0-2.075,0,1.89385,1.89385,0,1,1-3.787,0,1.038,1.038,0,1,0-2.076,0,1.89483,1.89483,0,1,1-3.789,0,1.038,1.038,0,1,0-2.076,0,1.91394,1.91394,0,0,1-1.893,1.93,1.84937,1.84937,0,0,1-.927-.259,3.08985,3.08985,0,0,1,1.492-2.969l15.978-9.381a2.92769,2.92769,0,0,1,2.259-.309,2.98535,2.98535,0,0,1,1.834,1.415l4.449,7.772a2.81374,2.81374,0,0,1-.432,3.356,4.50369,4.50369,0,0,1-1.2.375,1.91394,1.91394,0,0,1-1.893-1.93A1.03792,1.03792,0,0,0,56.40841,12.7036Z"/><path class="cls-3" d="M44.30441,25.7956l-8.886-.216-3.818-6.044,2.135-1.619v-1.684h23.575l.517,2.31Zm-22.575,16.132c.312-9.11,4.366-15.329,6.948-17.336l1.885,3.068s-3.832,4.332-3.832,14.268Z"/></g></g></svg>