<svg xmlns="http://www.w3.org/2000/svg" viewBox="0 0 84 44"><defs><style>.cls-1{fill:none;stroke:#fff;stroke-miterlimit:10;stroke-width:3px;}.cls-2{fill:#fff;}</style></defs><g id="E144_Anhaengerkupplung"><g id="Version_1-3" data-name="Version_1"><path class="cls-1" d="M22.89665,6.82l2.34662-2.977a.4709.4709,0,0,1,.66132-.07831L33.5385,9.78214a.47813.47813,0,0,1,.07951.6715L28.525,16.95"/><path class="cls-2" d="M16,17.04136v9.02373A.95918.95918,0,0,0,16.97526,27H33a.98131.98131,0,0,0,1-.93491v-9.0239A1.015,1.015,0,0,0,33.07077,16H16.97526A1.05388,1.05388,0,0,0,16,17.04136Zm10.1987,4.514v3.92775H23.81384V21.55539a2.37529,2.37529,0,1,1,2.38486,0Z"/><path class="cls-2" d="M67.62987,17.075a5.66222,5.66222,0,1,0-8.03511,5.13251l0,6.83815a5.53866,5.53866,0,0,1-.95141,3.16425c-1.542,2.22225-4.14666,4.27195-7.14726,4.27195-4.19151,0-7.6597-3.59372-8.44132-6.48182H26v4H39.73336c2.08369,3.68108,6.35962,7.327,11.76275,7.327a13.18254,13.18254,0,0,0,7.05032-2.0433A12.79111,12.79111,0,0,0,64.34476,28.3963V22.20747A5.65571,5.65571,0,0,0,67.62987,17.075Z"/></g></g></svg>