<svg xmlns="http://www.w3.org/2000/svg" viewBox="0 0 84 44"><defs><style>.cls-1,.cls-2{fill:#fff;}.cls-2{fill-rule:evenodd;}</style></defs><g id="E14B_Dynamiklenkung_init"><polygon class="cls-1" points="31.94 37.915 31.882 37.965 31.955 37.908 31.94 37.915"/><path class="cls-1" d="M23.16119,26.65894A16.85933,16.85933,0,1,0,40.03351,9.778,16.89991,16.89991,0,0,0,23.16119,26.65894Zm5.63723,7.11236a.57431.57431,0,0,1-.12856-.0148,1.371,1.371,0,0,1-.78356-.80594l-.06731-.14882a14.81471,14.81471,0,0,1-1.58437-6.35953c.01309-1.02318.43363-1.02318,1.01561-1.02318l3.76915-.00467.05422-.00006-.0002.05421-.00316.74389a10.16823,10.16823,0,0,0,1.158,4.69641l.01961.03757-.03184.028L29.2,33.6215A.65647.65647,0,0,1,28.79842,33.7713ZM48.77992,37.679a15.04453,15.04453,0,0,1-17.48048.00834l-.01936-.01388s-.3458-.38171-.34934-.55057c-.00827-.31911.25016-.73058.79005-1.25753l2.353-2.06546.03257-.02857.03524.02516a9.71045,9.71045,0,0,0,11.78234-.00006l.03524-.025.03251.0285,2.33344,2.04771c.55638.53856.82108.95577.81114,1.27741C49.13273,37.29519,48.77992,37.679,48.77992,37.679ZM35.27664,28.33941a4.75839,4.75839,0,1,1,4.74644,4.92611H40.0227A4.85588,4.85588,0,0,1,35.27664,28.33941Zm18.55-1.91618a14.88347,14.88347,0,0,1-1.58383,6.39159l-.065.13467c-.23317.51194-.58082.81827-.92945.81827a.58.58,0,0,1-.35785-.12494L47.84042,30.973l-.03217-.02816.02013-.03777a10.0014,10.0014,0,0,0,1.15934-4.69643V25.4143l.054.00006,3.77717.00467C53.39723,25.419,53.81515,25.419,53.82666,26.42323ZM40.04639,12.83405A13.87474,13.87474,0,0,1,52.6109,20.98456a.46882.46882,0,0,1,.01178.47516A1.02521,1.02521,0,0,1,51.84924,22H28.21631a1.02529,1.02529,0,0,1-.77356-.54053.49088.49088,0,0,1,.01764-.48645l.01025-.019A13.85465,13.85465,0,0,1,40.04639,12.83405Z"/><path class="cls-2" d="M64,32.55517a2.49778,2.49778,0,0,1-2.49686-2.49686V15.07715a2.49686,2.49686,0,0,1,4.99372,0V30.05831A2.49778,2.49778,0,0,1,64,32.55517Z"/><circle class="cls-1" cx="64.05643" cy="38.20378" r="2.93356"/><path class="cls-1" d="M59.66748,13.87579,55.99219,4.8999,54.0249,6.95105a24.18609,24.18609,0,0,0-14.00439-4.475h0a24.1861,24.1861,0,0,0-14.0044,4.475L24.04883,4.8999l-3.67529,8.97589,9.11425-3.31714L27.42188,8.41376a22.12349,22.12349,0,0,1,25.19726,0l-2.06592,2.14489Z"/></g></svg>