<svg xmlns="http://www.w3.org/2000/svg" viewBox="0 0 84 44"><defs><style>.cls-1,.cls-2{fill:#fff;}.cls-1{fill-rule:evenodd;}</style></defs><g id="E155_braking_guard"><g id="Version_5"><path id="Version_4-2" data-name="Version_4" class="cls-1" d="M25.6995,13.954s-.248-6.772-8.482-3.524c0,0,4.315-3.676,0-10.019,0,0,6.2,8.018,13.541.856,0,0-4.225,5.915,1.488,9.062C32.2465,10.329,25.9475,6.654,25.6995,13.954ZM25,34h6v6H25v4l-6.5955-7L25,30Z"/><path class="cls-2" d="M43.60131,26.60583h20.318l.06347.13721a6.4733,6.4733,0,0,0,11.6991-.01493l.06347-.13254.14748-.00374c1.85091-.04293,4.06305-.50776,4.09011-2.47908a20.04881,20.04881,0,0,0-.93152-6.16224c-.67484-2.28961-2.20933-2.50989-3.69342-2.7227a18.9477,18.9477,0,0,1-1.89665-.34722,23.192,23.192,0,0,1-4.09571-1.90131,28.18224,28.18224,0,0,0-6.24158-2.7395c-3.545-.80552-10.17115-.98566-13.7339-.0196-2.52295.6823-4.93016,2.83657-6.68867,4.40933-.44429.39949-.90539.813-1.317,1.14713l-.36683.31642-.0728.00934c-.0504.00653-5.23912.67857-7.07883,1.065-3.46567.729-4.67161,1.53822-5.68341,2.7759a5.62439,5.62439,0,0,0-1.1994,3.93983c.00186,1.73424.90818,2.57336,2.85243,2.63963l1.92839.04947.06253.13254a6.47461,6.47461,0,0,0,11.71218.03734Zm26.22825,1.48969a4.19722,4.19722,0,0,1-4.13118-3.83343H41.82227a4.14225,4.14225,0,0,1-8.26144,0h-.5339l-3.11938-.08027a3.74511,3.74511,0,0,1-.37429-.02894l-.20722-.028v-.24361a3.32069,3.32069,0,0,1,.66924-2.45482c.60577-.743,1.27221-1.31888,4.35427-1.96665,1.65956-.34909,6.40492-.97072,6.94068-1.04073l.11668-.0196a2.04728,2.04728,0,0,0,1.23021-.61137l.23614-.20535c.42376-.34162.91566-.78218,1.39169-1.20687,1.584-1.41782,3.75316-3.35927,5.73848-3.8969,3.19126-.86432,9.39457-.686,12.59983.04387a27.26717,27.26717,0,0,1,5.65634,2.52108,23.5551,23.5551,0,0,0,4.64548,2.11413,20.9693,20.9693,0,0,0,2.11133.38549c1.39448.20068,1.54009.22215,1.78931,1.06873a17.68117,17.68117,0,0,1,.83445,5.21485l.00186.168-.15867.05787a6.19121,6.19121,0,0,1-2.00493.20348h-.04666a2.58113,2.58113,0,0,0-.26229.00467l-1.20874.00093A4.19722,4.19722,0,0,1,69.82956,28.09552Z"/><path class="cls-2" d="M21.1308,17.75049c-.67487-2.28961-2.20935-2.50989-3.69342-2.72272a18.94761,18.94761,0,0,1-1.89667-.34717,23.18989,23.18989,0,0,1-4.0957-1.90136,28.185,28.185,0,0,0-6.24158-2.73951C4.83539,9.95612,4.42761,9.881,4,9.81146v2.373c.23914.0437.46851.08954.68262.1383a27.27043,27.27043,0,0,1,5.65631,2.52112,23.55561,23.55561,0,0,0,4.64551,2.11414,20.965,20.965,0,0,0,2.11132.38544c1.39447.20068,1.5401.22216,1.78931,1.06878a17.67876,17.67876,0,0,1,.83441,5.21485l.00189.168-.15869.05787a6.19,6.19,0,0,1-2.00488.20349h-.04669a2.5712,2.5712,0,0,0-.26227.0047l-1.20874.00091a4.14276,4.14276,0,0,1-8.26239,0H4v2.34375H5.99866l.06347.13721a6.47329,6.47329,0,0,0,11.6991-.015l.06348-.13251.14752-.00372c1.85089-.043,4.063-.50782,4.09009-2.47913A20.05007,20.05007,0,0,0,21.1308,17.75049Z"/></g></g></svg>