<svg xmlns="http://www.w3.org/2000/svg" viewBox="0 0 84 44"><defs><style>.cls-1{fill:#fff;fill-rule:evenodd;}.cls-2{fill:none;stroke:#fff;stroke-width:2px;}</style></defs><g id="E158_ESP_off"><g id="Version_5"><path class="cls-1" d="M42.7685,32.882c-3.19,1.234-7.112,2.458-10.302,3.569-1.075.375-1.324.91-1.288,1.605.034.576,1.347,1.533,1.874,1.856A41.27793,41.27793,0,0,0,37.6655,43h-5.898c-1.355-.653-2.286-1.719-3.893-2.763-1.132-.736-2.546-2.058-2.546-2.742,0-.848.303-1.682,2.735-2.484,3.536-1.168,5.685-1.872,8.831-3.025,2.001-.735,2.647-.838,2.647-1.825,0-.551-.864-1.41-1.918-2.238-.6-.473-1.248-1.1-2.172-1.908h3.714c1.562.818,2.131,1.142,4.28,2.428a2.7905,2.7905,0,0,1,1.576,2.181C45.0215,31.431,44.4055,32.249,42.7685,32.882ZM8.1195,36.451c-1.077.375-1.326.91-1.287,1.605.031.576,1.344,1.533,1.873,1.856A40.81884,40.81884,0,0,0,13.3185,43H7.4215c-1.363-.653-2.292-1.719-3.894-2.763-1.134-.736-2.549-2.058-2.549-2.742,0-.848.304-1.682,2.736-2.484,3.538-1.168,5.685-1.872,8.83-3.025,2.002-.735,2.65-.838,2.65-1.825,0-.551-.866-1.41-1.92-2.238-.6-.473-1.246-1.1-2.17-1.908h3.712c1.565.818,2.133,1.142,4.282,2.428a2.79943,2.79943,0,0,1,1.576,2.181c0,.807-.618,1.625-2.256,2.258C15.2315,34.116,11.3065,35.34,8.1195,36.451Z"/><path class="cls-1" d="M42.003,5.88545l-.547,2.174H39.239l2.551,1.703v11.786a1.24328,1.24328,0,0,1-1.199,1.281H35.913a1.24328,1.24328,0,0,1-1.199-1.281v-1.409H15.286v1.409a1.248,1.248,0,0,1-1.199,1.281H9.41a1.24817,1.24817,0,0,1-1.2-1.281V9.76245l2.551-1.703H8.545l-.548-2.174h3.308c.325-.47,2.509-3.465,4.221-4.075.837-.297,2.588-.64,8.754-.64h1.44c6.165,0,7.917.343,8.755.64,1.572.599,3.779,3.498,4.204,4.075Zm-5.127,1.956v-.924a10.21531,10.21531,0,0,0-3.085-3.059c-.947-.336-3.677-.514-8.071-.514H24.28c-4.395,0-7.124.178-8.111.529a8.85125,8.85125,0,0,0-3.045,3.02v2.153l-.957.638-1.921,1.283v1.021h6.361v2.09H10.246v6.577H13.25v-2.69h23.5v2.69h3.005v-6.577H33.393v-2.09h6.362v-1.021l-1.922-1.283-.957-.638Z"/><path class="cls-2" d="M12.999,8.07845h24"/><path class="cls-1" d="M60.097,24.817a7.21366,7.21366,0,0,1-.863,1.691,5.183,5.183,0,0,1-1.281,1.286,5.83274,5.83274,0,0,1-1.744.817,8.86488,8.86488,0,0,1-4.471.003,5.69372,5.69372,0,0,1-1.727-.815,5.188,5.188,0,0,1-1.267-1.28,7.12572,7.12572,0,0,1-.852-1.68,10.15845,10.15845,0,0,1-.479-2.02,16.86341,16.86341,0,0,1-.15-2.297,16.63409,16.63409,0,0,1,.153-2.305,10.40141,10.40141,0,0,1,.482-2.032,6.9431,6.9431,0,0,1,.858-1.691,5.23924,5.23924,0,0,1,1.278-1.286,5.7527,5.7527,0,0,1,1.738-.819,8.86488,8.86488,0,0,1,4.471-.003,5.72685,5.72685,0,0,1,1.733.814,5.22533,5.22533,0,0,1,1.272,1.28,7.00632,7.00632,0,0,1,.855,1.683,10.28865,10.28865,0,0,1,.482,2.021,16.47685,16.47685,0,0,1,.152,2.294,16.703,16.703,0,0,1-.152,2.308A10.06172,10.06172,0,0,1,60.097,24.817Zm-1.679-6.148a9.05989,9.05989,0,0,0-.327-1.607,6.02422,6.02422,0,0,0-.578-1.332,3.89358,3.89358,0,0,0-.852-1.009,3.60436,3.60436,0,0,0-1.16-.641,5.07915,5.07915,0,0,0-2.99,0,3.64051,3.64051,0,0,0-1.163.641,3.93022,3.93022,0,0,0-.857,1.009,5.93664,5.93664,0,0,0-.581,1.332,9.14858,9.14858,0,0,0-.328,1.607,16.67453,16.67453,0,0,0,0,3.665,9.15311,9.15311,0,0,0,.328,1.609,5.93664,5.93664,0,0,0,.581,1.332,3.93022,3.93022,0,0,0,.857,1.009,3.65984,3.65984,0,0,0,1.163.641,5.08915,5.08915,0,0,0,2.993,0,3.62974,3.62974,0,0,0,1.157-.641,3.89358,3.89358,0,0,0,.852-1.009,6.02422,6.02422,0,0,0,.578-1.332,9.06459,9.06459,0,0,0,.327-1.609,16.512,16.512,0,0,0,0-3.665Z"/><path class="cls-1" d="M76,13.99613V19h6v2H76v8H74.01L74,12h9v1.99613ZM65,19h6v2H65v8H63.01L63,12h9v1.99613H65Z"/></g></g></svg>