<svg xmlns="http://www.w3.org/2000/svg" viewBox="0 0 84 44"><defs><style>.cls-1{fill:#fff;fill-rule:evenodd;}</style></defs><g id="E15A_Interlock"><g id="Version_3_mehr_Abstand"><path class="cls-1" d="M33,4.869V.51L24,9.931V20.5H19v3h5V34.096l9,9.394V39.137l-6-6.268V11.156Z"/><path class="cls-1" d="M33,20.5V8.497l-4,4.16509V31l4,4.2V23.5h5.9788v-3Z"/><path class="cls-1" d="M35.9165,14.243l.506-.596.269.239a2.7213,2.7213,0,0,1,.467-.443c.697-.867,1.647-3.044,5.121-1.038,7.387,4.271,13.712,3.616,13.971,4.269,1.46,3.717,5.823,6.4,7.119,7.195.683.425-2.829,5.799-4.799,6.516-.312.11-.11.472-.162.777l-1.397,1.626-6.818-5.983L51.27,25.56021a15.33859,15.33859,0,0,0-6.27239-3.37587Z"/></g></g></svg>