<?xml version="1.0" encoding="UTF-8"?>
<svg id="Ebene_1" data-name="Ebene 1" xmlns="http://www.w3.org/2000/svg" viewBox="0 0 84 44">
  <defs>
    <style>
      .cls-1 {
        fill: none;
        stroke: #fff;
        stroke-miterlimit: 10;
        stroke-width: 2.82681px;
      }

      .cls-2 {
        fill: #fff;
      }
    </style>
  </defs>
  <g id="E165_ev_mode_off" data-name="E165 ev mode off">
    <g id="V2">
      <path class="cls-2" d="m47.607,40.993l-5.24824-15.415h3.27724l2.96857,10.03979c.10467.34177.20689.68467.30665,1.0287.09929.34447.18958.69414.27085,1.049.0743-.358.15783-.70766.25059-1.049.09322-.3411.19702-.684.31138-1.0287l3.05033-10.03979h3.10974l-5.2482,15.415h-3.04891Z"/>
    </g>
  </g>
  <polygon class="cls-2" points="34.23395 38.58728 34.23395 34.49982 39.87256 34.49982 39.87256 31.68372 34.22693 31.68372 34.22693 28.37769 40.79248 28.37769 40.79248 25.578 31.34717 25.578 31.34717 40.99298 40.87537 40.99298 40.87537 38.58728 34.23395 38.58728"/>
  <path class="cls-1" d="m28.74025,22.21517c-2.07542,0-3.73866-1.19927-4.671-3.0551l-.12748-.25335-1.92265-.0423c-1.661-.0567-2.43763-.77446-2.43904-2.25859-.09784-1.22897.26719-2.41384,1.02548-3.37101.86366-1.05752,1.89573-1.75143,4.85974-2.37559,1.37452-.2889,4.91572-.76231,5.96801-.90047l.14677-.0189.31376-.27045c.35233-.2862.74606-.63991,1.12615-.98192,1.50388-1.34552,3.56472-3.1892,5.71917-3.77286,1.33595-.36226,3.2933-.56206,5.51219-.56206,2.3078,0,4.63818.21645,6.23191.57871,1.85245.55801,3.6588,1.34957,5.33626,2.34454,1.11015.65386,2.2871,1.20107,3.50169,1.62678.55978.13185,1.10263.22905,1.62289.297,1.26539.1818,2.58064.37081,3.15735,2.32969.54002,1.71363.80721,3.48486.79592,5.27274-.01693,1.29872-1.37942,2.03178-3.54046,2.11684l-.28789.01125-.12607.24795c-.55131,1.08722-1.46107,1.97463-2.56088,2.49844-.74982.35686-1.33857.53776-2.16366.53776-1.9804,0-3.54268-1.43214-4.51172-3.32982l-.13171-.25875h-18.12697l-.13218.2583c-.6167,1.20467-1.55892,2.32765-2.5844,2.80781-.74136.34741-1.17928.52336-1.9912.52336Z"/>
</svg>