<svg xmlns="http://www.w3.org/2000/svg" viewBox="0 0 84 44"><defs><style>.cls-1,.cls-2{fill:none;stroke:#fff;}.cls-1{stroke-width:3px;}.cls-2{stroke-miterlimit:10;stroke-width:2.25px;}.cls-2,.cls-3{fill-rule:evenodd;}.cls-3,.cls-4{fill:#fff;}</style></defs><g id="E19C_VZE_Off"><g id="V1"><path class="cls-1" d="M58.201,21.1105V41"/><path class="cls-2" d="M20.76978,43.1097,63.23718.664"/><path class="cls-3" d="M18.01111,41.62549H16.915v-7.318h5.903v-2.351H16.915v-.802l2.073-1.253,10.75042.0025,2.31165-2.31048H31.989l-12.147-.003c1.129-1.69806,2.743-3.62305,3.368-3.845a78.29811,78.29811,0,0,1,8.779-.277c1.595.0003,2.96973.012,4.15552.03259l2.24371-2.24262c-2.348-.10046-5.19305-.101-6.39923-.101a84.65954,84.65954,0,0,0-9.33.351c-1.971.664-4.29,4.11-4.953,5.15l-.182.28595v.041H14.631l.407,2.059h.91l-1.324.801V41.61151a2.21344,2.21344,0,0,0,1.28974,2.11029Z"/><path class="cls-3" d="M48.94,29.04449l.408-2.059H46.455l-.183-.327a25.84492,25.84492,0,0,0-2.03283-2.76477l-1.63459,1.63373c.5271.63989,1.06977,1.36779,1.53241,2.06305l-3.59735.00091L38.22687,29.903,44.99,29.90149l2.072,1.253v.802H41.16v2.351h5.902v7.318H47.05l-4.582.01c-.019-.008-.049-.037-.065-.037-.006,0-.009.004-.009.013v-2.617H29.13086l-2.31207,2.311H40.101v.306a2.40677,2.40677,0,0,0,2.307,2.324H47.05a2.21476,2.21476,0,0,0,2.30505-2.324V29.84546l-1.325-.801Z"/><polygon class="cls-3" points="54.79 13.349 62.752 13.349 62.752 9.349 58.792 9.349 54.79 13.349"/><path class="cls-4" d="M50.32739,9.32532A8.23745,8.23745,0,0,1,56.3288,3.3269L59.49634.161A11.145,11.145,0,0,0,47.06885,11.34863a11.40942,11.40942,0,0,0,.06128,1.17237Z"/><path class="cls-4" d="M65.42432,2.71912,63.29047,4.852A8.26877,8.26877,0,0,1,58.252,19.61035a8.13979,8.13979,0,0,1-6.48413-3.24151l-2.14129,2.14025a11.16365,11.16365,0,0,0,19.809-7.16046A11.27036,11.27036,0,0,0,65.42432,2.71912Z"/></g></g></svg>