<svg xmlns="http://www.w3.org/2000/svg" viewBox="0 0 84 44"><defs><style>.cls-1,.cls-2{fill:#fff;}.cls-1,.cls-3{fill-rule:evenodd;}.cls-3{fill:none;stroke:#fff;stroke-miterlimit:10;stroke-width:2.25px;}</style></defs><g id="E19E_ADA_Ablenkung_Off"><path class="cls-1" d="M18.66376,33.25707h1.67248a1.41517,1.41517,0,0,1,1.41517,1.41518v1.67248a1.41517,1.41517,0,0,1-1.41517,1.41517H18.66376a1.41517,1.41517,0,0,1-1.41517-1.41517V34.67225A1.41517,1.41517,0,0,1,18.66376,33.25707Z"/><path class="cls-1" d="M19.37135,6.2401h.2573a2.12276,2.12276,0,0,1,2.12276,2.12276V26.63162a2.12262,2.12262,0,0,1-2.12262,2.12262h-.25744a2.12276,2.12276,0,0,1-2.12276-2.12276V8.36286A2.12276,2.12276,0,0,1,19.37135,6.2401Z"/><path class="cls-2" d="M42.4549,7.93805h.05218A23.05079,23.05079,0,0,1,50.33752,9.315l1.30823-1.30755a24.6948,24.6948,0,0,0-9.13592-1.75684H42.4549a26.06236,26.06236,0,0,0-18.0597,7.432v2.37317A24.77458,24.77458,0,0,1,42.4549,7.93805Z"/><path class="cls-2" d="M66.82684,21.6109a33.63438,33.63438,0,0,0-9.67425-10.62329l-1.2107,1.21008a32.15235,32.15235,0,0,1,9.16864,9.80207C63.77075,24.30011,56.25824,36.034,42.50708,36.06287H42.4549a23.31082,23.31082,0,0,1-8.72321-1.66675l-1.29016,1.28943A24.9474,24.9474,0,0,0,42.4549,37.75037h.05493c15.90857-.033,24.41186-14.94123,24.41186-15.75061v-.20612Z"/><path class="cls-2" d="M28.2782,31.36267a29.32335,29.32335,0,0,1-3.883-3.4032v2.37372a30.56872,30.56872,0,0,0,2.67615,2.23566Z"/><path class="cls-2" d="M32.64448,25.67243a10.38344,10.38344,0,0,1-.66308-3.67187A10.53961,10.53961,0,0,1,42.50874,11.47224a10.36178,10.36178,0,0,1,3.67774.665l-3.25489,3.2539c-.13964-.01074-.28027-.0166-.42285-.0166a6.63361,6.63361,0,0,0-6.625,6.626c0,.14062.00586.27929.01563.418Z"/><path class="cls-2" d="M42.50905,12.41a9.55516,9.55516,0,0,1,1.89077.18689l-1.84088,1.84-.04989-.00025a7.572,7.572,0,0,0-7.56345,7.56348l.00018.0459-1.84072,1.83972A9.59551,9.59551,0,0,1,42.50905,12.41m0-1.87622A11.45733,11.45733,0,0,0,32.34566,27.29731l4.53363-4.53125A5.64814,5.64814,0,0,1,43.278,16.3708l4.53387-4.5315a11.40656,11.40656,0,0,0-5.30279-1.30554Z"/><path class="cls-2" d="M42.50874,32.5279a10.45445,10.45445,0,0,1-4.541-1.03906l3.03906-3.03809a6.54154,6.54154,0,0,0,1.502.17481,6.61725,6.61725,0,0,0,6.45215-8.124L52,17.46345A10.51165,10.51165,0,0,1,42.50874,32.5279Z"/><path class="cls-2" d="M51.6559,19.134a9.49686,9.49686,0,0,1,.4432,2.86609,9.601,9.601,0,0,1-9.59,9.59009,9.49513,9.49513,0,0,1-2.871-.44471L41.31651,29.468a7.49,7.49,0,0,0,1.19254.09559,7.572,7.572,0,0,0,7.5635-7.56348,7.49444,7.49444,0,0,0-.09494-1.1886L51.6559,19.134m.56195-3.21423-4.3078,4.30554a5.68129,5.68129,0,0,1-7.17859,7.1748l-4.308,4.30567a11.4508,11.4508,0,0,0,15.79437-15.786Z"/><path class="cls-3" d="M20.76978,43.1097,63.23718.664"/></g></svg>