<?xml version="1.0" encoding="UTF-8"?>
<svg id="Ebene_1" data-name="Ebene 1" xmlns="http://www.w3.org/2000/svg" viewBox="0 0 84 44">
  <defs>
    <style>
      .cls-1, .cls-2 {
        fill: #fff;
      }

      .cls-2 {
        fill-rule: evenodd;
      }
    </style>
  </defs>
  <path class="cls-2" d="M28.02415,32.72642c-1.5415-.80021-1.19195-1.81461-.79622-2.38876,.98122-1.38943,2.04477-2.71886,3.18492-3.98114,.05204,1.83506,.33725,5.0339,0,5.5736s-1.01839,1.50813-2.38869,.7963Zm-4.37738,7.96228c-1.54149-.80021-1.19195-1.81459-.79622-2.38868,.98122-1.38943,2.04476-2.71886,3.18492-3.98114,0,0,.36827,4.87028,0,5.5736s-1.01839,1.50805-2.38869,.79622Zm-1.82242-7.96228c-1.54149-.80021-1.19195-1.81461-.79622-2.38876,.98122-1.38943,2.04476-2.71886,3.18492-3.98114,0,0,.26667,5.11789,0,5.5736s-1.01841,1.50813-2.38869,.7963Z"/>
  <path class="cls-2" d="M54.04942,42.96875c-.97841-3.39408-2.91335-6.4347-5.5736-8.75852-3.61256-2.72219-7.06839-5.64636-10.35098-8.75852-1.5837-1.82575-3.4636-4.07669-3.98114-4.77738s.23886-1.95553,2.38868-.79622c1.94396,1.48918,3.80463,3.08404,5.5736,4.77738,.69511,.62344,1.59326,.59,.79624-.79624-1.0351-1.80187-5.6182-10.63682-6.70744-13.49847-1.08764-2.85607,1.57414-2.44044,1.93009-1.62988s5.85786,8.8684,6.36983,9.55475c.86549,1.1609,1.74532,1.92847,.9292,0-.83047-1.96031-4.34185-9.63677-4.88729-11.14881-.60593-1.68004,1.49373-1.89343,2.16654-.79463s5.1516,9.12642,5.77266,10.35098,1.07332,1.29388,.79622-.79624c-.17928-1.76677-.73331-3.47498-1.6251-5.01066-.40699-.79379-.93301-1.52067-1.5598-2.1554-.39575-.48374-.32442-1.1967,.15932-1.59245,.41684-.34103,1.01628-.34103,1.43313,0,1.58928,1.30123,2.85342,2.95495,3.69212,4.82993,.50207,1.26666,.86593,2.58382,1.08525,3.92858,.13298,.72218,1.84253,.27232,1.59246-.79622-.35706-1.39013-.89231-2.72827-1.59245-3.98116-.65369-1.08367,.40131-1.78992,1.59246-.79624,1.49267,1.25868,2.59716,2.91542,3.18492,4.77738,.79145,3.38079,2.4086,12.53576,3.18492,15.12838s3.18492,7.96229,3.18492,7.96229c0,0-9.585,4.7479-9.55475,4.77735Z"/>
  <path class="cls-1" d="M36.03806,25.80844c-.44346-.51094-.92903-1.0785-1.40917-1.64494-2.84834-1.11215-5.48674-2.13274-6.11236-2.34302-1.40375-.47472-1.85037-.96602-1.89378-1.09492-.0572-.6907-.04524-1.38539,.03573-2.07371l-1.56198-.14165c-.11694,.90111-.10404,1.81434,.03829,2.71179,.2782,.82182,1.27358,1.54156,2.8815,2.08392,.80397,.27086,5.23534,1.99971,8.95432,3.45865-.36593-.35202-.69422-.68141-.93253-.95611Z"/>
  <path class="cls-1" d="M31.9927,20.9502c-.27225-.36824-.41534-.81604-.40708-1.27391-2.33437-.77078-4.89774-1.62387-5.42868-1.8271-.61126-.23353-.75547-.28968-.34327-1.37823,1.08805-2.71795,2.40063-5.34055,3.92411-7.84057,1.24646-2.15805,2.87444-4.07182,4.80471-5.64816,.24374-.20801,.45558-.38667,.62658-.54747,.19021-.21679,.46581-.33943,.7542-.33562,.20462,.03398,.39099,.13822,.52704,.29478,.21534,.23226,1.09173,1.28193,1.99778,2.37601,.20899-.28624,.48476-.51706,.80333-.67237,.16907-.07903,.34664-.13844,.52924-.17705-.93413-1.12811-1.92568-2.31715-2.18187-2.59343-.38919-.43293-.92078-.71186-1.49818-.78611-.74515-.06622-1.48025,.20822-1.99971,.74654-.15695,.14676-.35093,.31011-.57298,.49897-2.065,1.68749-3.80664,3.7357-5.14028,6.04508-1.56918,2.5771-2.92021,5.28085-4.03899,8.08301-.66996,1.7649-.28457,2.81261,1.24806,3.39962,.67763,.26004,4.33599,1.47075,6.93643,2.32671-.22684-.28236-.41985-.52737-.54045-.69072Z"/>
  <path class="cls-1" d="M59.3069,14.80154c.12187,.52034,.26224,1.17102,.41505,1.90957,.47952,.27995,.86873,.51141,1.0793,.64397,.13087,.07395,.25289,.16258,.3637,.26416,.01983,.10917,.03177,.21963,.03573,.33052,.00894,.11995,.01788,.2565,.03446,.41602,.03191,.34296-.09507,2.27152-.27149,4.58834,.39943,2.01692,.80269,4.00562,1.13321,5.43026,.24757-2.90416,.78194-9.36556,.69772-10.1794l-.02935-.36498c.02908-.77699-.4169-1.4937-1.12682-1.81083-.39528-.24853-1.35558-.80938-2.38415-1.39954,.01502,.05785,.03895,.11383,.05265,.17191Z"/>
</svg>