<svg xmlns="http://www.w3.org/2000/svg" viewBox="0 0 84 44"><defs><style>.cls-1{fill:#fff;}</style></defs><g id="E264_PLA"><g id="Version_3"><path class="cls-1" d="M27.71973,3.03384V3H19.38135v.00415H16.002V31h3.9961V17.99832h7.47607v.00037l.00684-.00037h.23877V17.9855A7.308,7.308,0,0,0,34.543,10.50992,7.30849,7.30849,0,0,0,27.71973,3.03384Zm-.24561,11.96485V15H19.99805V5.99911h7.47607v.02155c2.17334,0,3.74188,2.01367,3.74188,4.48926C31.216,12.985,29.64746,14.99869,27.47412,14.99869Z"/><path class="cls-1" d="M52.51233,9.093,52.5,9.09369,52.48767,9.093a15.907,15.907,0,0,0-.00018,31.814L52.5,40.90637l.01251.00061a15.907,15.907,0,0,0-.00018-31.814ZM40.29987,19.5025a13.44512,13.44512,0,0,1,12.176-7.89746L52.5,11.606l.02417-.00092a13.44512,13.44512,0,0,1,12.176,7.89746.64543.64543,0,0,1,.00037.64093,1.01278,1.01278,0,0,1-.91156.39557H41.21106a1.01278,1.01278,0,0,1-.91156-.39557A.64543.64543,0,0,1,40.29987,19.5025Zm16.71185,7.19641A4.59975,4.59975,0,0,1,52.5036,31.354h-.00177L52.5,31.35382l-.00183.00018H52.4964a4.6597,4.6597,0,0,1-.00427-9.31433l.00787.00086.00787-.00086A4.6109,4.6109,0,0,1,57.01172,26.69891ZM41.60657,31.9881a1.22177,1.22177,0,0,1-1.00507-.83881l-.05621-.11651a13.389,13.389,0,0,1-1.42365-5.75184c.01245-1.089.58728-1.089,1.0943-1.089l3.59442-.00446v.90759a8.65214,8.65214,0,0,0,1.00257,4.06275l.0935.17511-2.86035,2.50311A.72088.72088,0,0,1,41.60657,31.9881Zm18.7456,3.842-.07.06653a13.32412,13.32412,0,0,1-7.77942,2.49963L52.5,38.39618l-.00275.00012a13.32412,13.32412,0,0,1-7.77942-2.49963l-.07-.06653a.75108.75108,0,0,1-.3067-.55994c-.01087-.35046.2276-.74206.77667-1.27319l2.0365-1.78711.08917-.07825.05945-.05212.06445.04578.09668.06872a8.67147,8.67147,0,0,0,5.02325,1.60858l.0127-.001.0127.001A8.67147,8.67147,0,0,0,57.536,32.194l.09668-.06872.06445-.04578.05945.05212.08917.07825L59.8822,33.997c.54907.53113.78754.92273.77667,1.27319A.75108.75108,0,0,1,60.35217,35.83014Zm4.04633-4.68085a1.22177,1.22177,0,0,1-1.00507.83881.72088.72088,0,0,1-.43951-.152L60.09357,29.333l.0935-.17511a8.65214,8.65214,0,0,0,1.00257-4.06275V24.1875l3.59442.00446c.507,0,1.08185,0,1.0943,1.089a13.389,13.389,0,0,1-1.42365,5.75184Z"/></g></g></svg>