<svg xmlns="http://www.w3.org/2000/svg" viewBox="0 0 84 44"><defs><style>.cls-1{fill:#fff;}</style></defs><g id="E26E_Staupilot"><path class="cls-1" d="M59.65659,8.58414h1.0018l.44877-2.24767H57.92253l-.20087-.35724c-.72973-1.13592-3.28252-4.899-5.49969-5.63508A95.479,95.479,0,0,0,41.99936-.02771,93.77525,93.77525,0,0,0,31.72972.35622c-2.16886.724-4.72165,4.48709-5.45138,5.623l-.20087.31211v.04513H22.89284l.44877,2.24767h1.0018l-1.4582.87467V22.3073a2.42813,2.42813,0,0,0,2.53754,2.53754h5.1094A2.63869,2.63869,0,0,0,33.071,22.3073v-.335H50.929v.335a2.63869,2.63869,0,0,0,2.5388,2.53754h5.1094a2.42813,2.42813,0,0,0,2.53754-2.53754V9.45881ZM28.629,6.99691c1.24335-1.8542,3.01937-3.95631,3.70714-4.19913a86.87619,86.87619,0,0,1,9.66323-.30194,90.21728,90.21728,0,0,1,9.61111.28859c.7399.25553,2.51719,2.35828,3.76054,4.21248l-13.37165.00318ZM30.5474,19.44876l.01144,2.79244c-.01271.02669-.06611.07882-.02669.08072H25.40749V14.3311h6.49767V11.76433H25.40749v-.87594l2.282-1.36856,14.30986.00381L56.3105,9.51983l2.28074,1.36856v.87594h-6.4964V14.3311h6.4964v7.99082h-.014l-5.04329.01145c-.02034-.00954-.05339-.04069-.07119-.04069-.00636,0-.01017.00382-.01017.01462V19.44876Z"/><polygon class="cls-1" points="57.992 28.999 57.992 26.997 47.998 26.997 47.998 28.999 52 28.999 52 41.998 47.998 41.998 47.998 44.001 57.992 44.001 57.992 41.998 53.998 41.998 53.998 28.999 57.992 28.999"/><path class="cls-1" d="M36.99483,26.998H35.0035L25.296,43.99938l2.77595.00971,2.44858-4.51226H41.41943L43.868,44.00909l2.83436-.00971ZM31.54834,37.72154,35.97,29.98312l4.42162,7.73842Z"/></g></svg>