<svg xmlns="http://www.w3.org/2000/svg" viewBox="0 0 84 44"><defs><style>.cls-1,.cls-2{fill:#fff;}.cls-1{fill-rule:evenodd;}</style></defs><g id="E271_Safelock"><g id="Version_5"><path class="cls-1" d="M51.22782,33.11332a.29594.29594,0,0,1-.41,0l-3.252-3.092a.316.316,0,0,0-.414,0l-2.117,2.013a.26617.26617,0,0,1-.375,0l-1.918-1.824a.29913.29913,0,0,0-.411,0l-.885.842a.27413.27413,0,0,1-.362,0s-.789-.75-1.03-.982l-.631-.61a.2506.2506,0,0,0-.334,0l-1.504,1.433c-.013,0-.716.659-.716.659a.24877.24877,0,0,1-.169.067.24574.24574,0,0,1-.17-.067l-4.564-4.336a.21915.21915,0,0,1,0-.323l2.812-2.671a.4887.4887,0,0,1,.337-.134h19a.98514.98514,0,0,0,.436-.104.87767.87767,0,0,0,.34-.274,7.31583,7.31583,0,0,1,4.288-2.665,7.61388,7.61388,0,0,1,5.064.719,7.01877,7.01877,0,0,1,3.288,3.732,6.59817,6.59817,0,0,1-.157,4.867,7.07008,7.07008,0,0,1-3.516,3.543,7.60676,7.60676,0,0,1-5.099.427,7.26452,7.26452,0,0,1-4.112-2.903.96887.96887,0,0,0-.429-.348,1.04987,1.04987,0,0,0-.562-.061,1.01917,1.01917,0,0,0-.5.25ZM36,26a1,1,0,0,0,0,2H54a1,1,0,0,0,0-2Zm29.21782,3.39932a2.25948,2.25948,0,0,0,0-3.317,2.55677,2.55677,0,0,0-3.492,0,2.25948,2.25948,0,0,0,0,3.317,2.55677,2.55677,0,0,0,3.492,0Z"/><path class="cls-2" d="M26.19434,26.3194a4.84553,4.84553,0,0,1-9.68946,0H13a8.35012,8.35012,0,0,0,16.69922,0Z"/><path class="cls-2" d="M72.9707,18.69922c-.88965-3.02539-2.89062-3.3125-4.82617-3.59082a23.32933,23.32933,0,0,1-2.32812-.42383,29.08879,29.08879,0,0,1-5.01465-2.335,35.13627,35.13627,0,0,0-7.82031-3.42773C48.55078,7.91406,40.25879,7.69238,35.793,8.89941c-3.19629.86524-6.21485,3.56543-8.41895,5.53809-.59082.52832-1.1289,1.01074-1.62988,1.417l-.3584.30762c-.01172.01074-.02344.02148-.03515.03125-.749.09766-6.62012.86621-8.80957,1.32617-4.38868.92383-5.92481,1.96-7.22461,3.54981a7.255,7.255,0,0,0-1.55469,5.07617c.00195,2.28222,1.28418,3.48437,3.82812,3.57324l3.96973.10156.08984-3.498-3.95312-.10157a4.26739,4.26739,0,0,1-.43457-.03418v-.043c-.002-1.92089.47851-2.50976.76465-2.86035.71582-.874,1.50976-1.55468,5.23535-2.33789,2.15527-.45312,8.54394-1.28125,8.6084-1.29l.12793-.02148a2.83463,2.83463,0,0,0,1.68944-.835l.2881-.249c.50976-.4121,1.09277-.93261,1.73144-1.5039,1.94336-1.73828,4.60546-4.12012,7-4.76758,3.92188-1.06055,11.55176-.84082,15.499.05566a33.79356,33.79356,0,0,1,6.95215,3.10547A29.18522,29.18522,0,0,0,64.9873,18.085a26.63524,26.63524,0,0,0,2.66016.48828c1.71.24512,1.71.24512,1.96582,1.11426a21.66648,21.66648,0,0,1,1.02442,6.3916,4.77939,4.77939,0,0,1-1.35328.21271,8.18548,8.18548,0,0,1-.13671,3.49127c3.27209-.15033,4.96368-1.26221,4.99-3.34753A25.10373,25.10373,0,0,0,72.9707,18.69922Z"/></g></g></svg>