<svg xmlns="http://www.w3.org/2000/svg" viewBox="0 0 84 44"><defs><style>.cls-1,.cls-3{fill:#fff;}.cls-2{fill:none;stroke:#fff;stroke-width:2.5px;}.cls-3{fill-rule:evenodd;}</style></defs><g id="E272_ARA"><g id="Version_3"><path class="cls-1" d="M41.99952,33.90194A4.09806,4.09806,0,1,0,46.1,38.00048,4.10337,4.10337,0,0,0,41.99952,33.90194Zm2.11175,4.09854a2.11176,2.11176,0,1,1-2.11175-2.11078A2.11338,2.11338,0,0,1,44.11127,38.00048Z"/><path class="cls-1" d="M52,33.90145a4.09855,4.09855,0,1,0,4.1,4.099A4.10386,4.10386,0,0,0,52,33.90145Zm2.112,4.099A2.112,2.112,0,1,1,52,35.88945,2.11364,2.11364,0,0,1,54.112,38.00048Z"/><path class="cls-2" d="M31,35V27"/><path class="cls-3" d="M31.00952,1.5A11.5,11.5,0,1,0,42.5,13.0015,11.53774,11.53774,0,0,0,31.00952,1.5ZM27.97875,14.20966a3.031,3.031,0,1,1,3.02376,3.13458A3.10434,3.10434,0,0,1,27.97875,14.20966ZM39.54141,9.45218c-.07218.12221-.25766.54782-.49627.54782H22.97191c-.23862,0-.42409-.42561-.49628-.54782a.29946.29946,0,0,1,.012-.29754l.007-.013a9.34225,9.34225,0,0,1,17.03771.019A.28985.28985,0,0,1,39.54141,9.45218Zm-2.17057,3.61544v-.46783l2.38312.003c.35892,0,.59452,0,.60154.59907A9.32484,9.32484,0,0,1,39.36,17.214l-.04111.08515c-.20152.44179-.52535.60408-.761.42476l-1.92294-1.681A6.31925,6.31925,0,0,0,37.37084,13.06762ZM25.37607,16.04393l-1.90288,1.669a.36072.36072,0,0,1-.30478.07714.8319.8319,0,0,1-.47121-.48987l-.04211-.09317a9.29062,9.29062,0,0,1-.99655-3.99412c.008-.61009.24663-.61009.60655-.61009l2.3781-.003-.002.46883A6.42008,6.42008,0,0,0,25.37607,16.04393Zm.15139,4.52306a.35431.35431,0,0,1-.14537-.26347c-.005-.18934.15339-.43778.48023-.75635l1.46275-1.28128a6.35178,6.35178,0,0,0,7.3669,0l1.45172,1.27126c.33787.32659.49828.577.49227.76737a.36229.36229,0,0,1-.1554.26848l-.02306.024-.03108.027a9.33231,9.33231,0,0,1-10.82978.003l-.03208-.023-.09926.07713.09424-.08214Z"/><path class="cls-2" d="M20.99952,35h14a.94949.94949,0,0,0,.90145-.39465L37.56832,31.938s.4312-.938,2.4312-.938h14c2,0,2.43119.938,2.43119.938l1.66735,2.66735A.9495.9495,0,0,0,58.99952,35H61a2,2,0,0,0,2-2V15.59162a1.651,1.651,0,0,0-.531-1.1158h0A1.7813,1.7813,0,0,0,61.1706,14H45"/></g></g></svg>