<svg xmlns="http://www.w3.org/2000/svg" viewBox="0 0 84 44"><defs><style>.cls-1,.cls-2{fill:#fff;}.cls-2{fill-rule:evenodd;}.cls-3{fill:none;stroke:#fff;stroke-width:3px;}</style></defs><g id="E274_Manöverassi"><g id="Version_2-2" data-name="Version_2"><path class="cls-1" d="M58,21,53,39H63ZM56,37l2-8,2,8Z"/><path class="cls-2" d="M53,24l4.6445-4.8245,6.387,2.691-3.913-5.999,6.012-8.699-7.662,4.565-1.649-5.789L54.75529,12H45l8,5Z"/><path class="cls-3" d="M49.3935,7.9555V6.4945s-2.623-4.384-4.372-4.676c-1.748-.292-7.286-.292-9.035-.292s-7.286,0-9.035.292c-1.749.585-4.372,4.676-4.372,4.676v1.461l-2.915,1.754v11.105a1.0693,1.0693,0,0,0,1.166,1.169h4.129a1.25512,1.25512,0,0,0,1.166-1.169v-1.042h20.188v1.042a1.0688,1.0688,0,0,0,1.166,1.169h3.428"/><path class="cls-3" d="M21.7735,7.5235h28.491"/><path class="cls-2" d="M19,12h8v2H19Z"/><polygon class="cls-1" points="53.276 10 49.715 10 47.922 8.817 51.373 7.379 53.686 8.786 53.276 10"/><path class="cls-2" d="M53.8585,7.7155h-3.408l-.31-.621v-.933h4.028Zm-35.706,0-.31-1.554h4.027v.933l-.31.621Z"/><path class="cls-2" d="M58,44H52c-2.126-.044,0-3,0-3H64s2.126,2.956,0,3Z"/></g></g></svg>