<svg xmlns="http://www.w3.org/2000/svg" viewBox="0 0 84 44"><defs><style>.cls-1,.cls-2{fill:#fff;}.cls-2{fill-rule:evenodd;}</style></defs><g id="E296_shiftlock"><g id="Version_4-2" data-name="Version_4"><path class="cls-1" d="M25.62079,21.997A16.37932,16.37932,0,1,0,41.99845,5.615,16.38083,16.38083,0,0,0,25.62079,21.997Zm-3.12068,0A19.5,19.5,0,1,1,41.99845,41.5,19.497,19.497,0,0,1,22.50011,21.997Z"/><g id="Versuch_3"><path class="cls-1" d="M61.46265,2.6131,57.92383,6.14166a22.44673,22.44673,0,0,1-.01911,31.73664l3.53882,3.52856A27.43783,27.43783,0,0,0,61.46265,2.6131Z"/><path class="cls-1" d="M22.60571,41.45563l3.53-3.53754a22.44759,22.44759,0,0,1-.02-31.81714l-3.5299-3.53753a27.43895,27.43895,0,0,0,.01989,38.89221Z"/></g><path class="cls-2" d="M28.42735,17.27889l.50113-.55645.25438.2335a2.61188,2.61188,0,0,1,.46019-.41161c.69129-.81032,1.65506-2.86256,4.96359-.8761,7.035,4.2292,13.15205,3.74423,13.38782,4.37174,1.32823,3.57161,5.47987,6.22226,6.71314,7.00774.6498.4197-2.8552,5.46012-4.77152,6.09968-.30343.0979-.11636.447-.17314.73635L48.3798,35.40148l-6.449-5.847,1.06562-1.16176a14.86555,14.86555,0,0,0-5.979-3.35234Z"/></g></g></svg>