<svg xmlns="http://www.w3.org/2000/svg" viewBox="0 0 40 40"><defs><style>.cls-1{fill:#fff;}</style></defs><g id="E2C0_Allwetterlicht"><g id="V1"><path class="cls-1" d="M8.82715,22.39355a.78684.78684,0,0,0-.4209.1211.72028.72028,0,0,0-.333.46582.69037.69037,0,0,0,.10547.53418l.75391,1.1289a.787.787,0,0,0,1.0664.21875.72993.72993,0,0,0,.33106-.46582.7037.7037,0,0,0-.10645-.542l-.75-1.123A.7775.7775,0,0,0,8.82715,22.39355Z"/><path class="cls-1" d="M10.30957,18.01758a.791.791,0,0,0-.41992.12012.72932.72932,0,0,0-.332.46777.69079.69079,0,0,0,.10644.53418l.75489,1.125a.78161.78161,0,0,0,1.06347.21875.72072.72072,0,0,0,.333-.46485.69437.69437,0,0,0-.10645-.53808l-.752-1.124A.77642.77642,0,0,0,10.30957,18.01758Z"/><path class="cls-1" d="M5.44336,18.01953a.77053.77053,0,0,0-.41406.11817.72922.72922,0,0,0-.334.46972.68573.68573,0,0,0,.10547.53223l.75391,1.125a.785.785,0,0,0,1.06445.21875.72261.72261,0,0,0,.335-.46485.69441.69441,0,0,0-.10644-.53808l-.75489-1.125A.77939.77939,0,0,0,5.44336,18.01953Z"/><path class="cls-1" d="M15.17871,18.03809a.79567.79567,0,0,0-.4209.11914.72887.72887,0,0,0-.332.46875.68724.68724,0,0,0,.10547.5332l.75684,1.12891a.785.785,0,0,0,1.06543.21484.718.718,0,0,0,.33007-.46289.69576.69576,0,0,0-.10547-.53613L15.8252,18.374A.77558.77558,0,0,0,15.17871,18.03809Z"/><path class="cls-1" d="M13.68164,22.39551a.76967.76967,0,0,0-.416.11914.71882.71882,0,0,0-.333.46387.68828.68828,0,0,0,.10351.5371L13.79,24.64355a.78756.78756,0,0,0,1.06641.21875.73.73,0,0,0,.331-.46582.70133.70133,0,0,0-.10547-.53808l-.75195-1.12793A.78051.78051,0,0,0,13.68164,22.39551Z"/><path class="cls-1" d="M27.58594,16.25391a7.74949,7.74949,0,0,0-2.332.32226,1.24348,1.24348,0,0,0-.76075.72656A18.09472,18.09472,0,0,0,22.99805,24.376a17.56458,17.56458,0,0,0,1.49218,7.00586,1.24062,1.24062,0,0,0,.76465.73339c2.66016.84864,6.28223-.23242,6.98145-.457a15.182,15.182,0,0,0,5.16015-2.64941,5.87133,5.87133,0,0,0,0-9.32324h0a14.83781,14.83781,0,0,0-5.16015-2.65235A16.5282,16.5282,0,0,0,27.58594,16.25391Zm.041,14.71875a6.839,6.839,0,0,1-1.58691-.166l-.15137-.03711-.05762-.14453a17.28672,17.28672,0,0,1-1.29785-6.27637A17.51143,17.51143,0,0,1,25.80664,18.126l.09132-.20144.13817-.03587a11.55124,11.55124,0,0,1,5.71387.53418,13.83122,13.83122,0,0,1,4.60254,2.33789,4.55481,4.55481,0,0,1,1.81934,3.60645,4.46151,4.46151,0,0,1-1.82032,3.56836A14.23743,14.23743,0,0,1,31.751,30.27246,13.88949,13.88949,0,0,1,27.627,30.97266Z"/><path class="cls-1" d="M9.46191,3.27051A5.74771,5.74771,0,0,0,3.93262,8.002l-.03614.16993-.17187.02441a4.11374,4.11374,0,0,0-2.40723,1.168A3.815,3.815,0,0,0,.24805,12.04492,3.91382,3.91382,0,0,0,1.27539,14.71,3.93672,3.93672,0,0,0,4.2998,15.75H16.37012a5.567,5.567,0,0,0,3.43847-.80566,2.98626,2.98626,0,0,0,1.28907-2.34278,2.42946,2.42946,0,0,0-.96973-1.9209,3.58317,3.58317,0,0,0-1.31738-.61718l-.23145-.0586.04785-.23437a2.88,2.88,0,0,0,.0625-.6084A3.07558,3.07558,0,0,0,17.541,6.7959a4.6802,4.6802,0,0,0-3.25684-.94629l-.13574.00684-.13574-.1084A5.56592,5.56592,0,0,0,9.50391,3.27051C9.48926,3.27051,9.47266,3.27148,9.46191,3.27051ZM16.37012,14.25H4.2998a2.33539,2.33539,0,0,1-1.79394-.56934h0a2.4124,2.4124,0,0,1-.624-1.63867,2.29135,2.29135,0,0,1,.63476-1.61621,2.47365,2.47365,0,0,1,1.45313-.6875l1.30078-.18945L5.53516,8.3125a4.21518,4.21518,0,0,1,3.935-3.542h.05544a3.97508,3.97508,0,0,1,3.13654,1.85937l.6123.85742,1.07813-.07421a2.92865,2.92865,0,0,1,2.11621.56152,1.56283,1.56283,0,0,1,.58594,1.18555,1.72651,1.72651,0,0,1-.0293.30371l-.34961,1.68554,1.72461.42774a1.91284,1.91284,0,0,1,.7002.31933.92353.92353,0,0,1,.36132.69434,1.45121,1.45121,0,0,1-.66308,1.124A4.05372,4.05372,0,0,1,16.37012,14.25Z"/><path class="cls-1" d="M22.70312,32.2793c-.02868-.05634-.10046-.20209-.19842-.42853L16.41425,37h2.32251l4.54882-3.84589A3.70513,3.70513,0,0,1,22.70312,32.2793Z"/><path class="cls-1" d="M21.32129,27.69409,10.31378,37h2.32251l9.038-7.64093C21.54706,28.86084,21.426,28.30432,21.32129,27.69409Z"/><path class="cls-1" d="M20.999,24.43262l-.002-.05664.002-.05567c.01551-.55682.05036-1.08795.09864-1.59472L4.21405,37H6.53656L21.0141,24.75983C21.00946,24.65015,21.0022,24.54431,20.999,24.43262Z"/></g></g></svg>