<svg xmlns="http://www.w3.org/2000/svg" viewBox="0 0 40 40"><defs><style>.cls-1,.cls-3{fill:#fff;}.cls-1,.cls-2{stroke:#fff;stroke-miterlimit:10;}.cls-1{stroke-width:0.5px;}.cls-2{fill:none;stroke-width:1.5px;}</style></defs><g id="E2C2_Nebellicht"><path class="cls-1" d="M9.35645,32.88086l.05393.8551a7.98956,7.98956,0,0,1-1.06657,3.50413C7.92549,37.99927,7.57592,38.49023,7.2351,39H8.89456s.93428-1.57577,1.14667-2.00462a8.64373,8.64373,0,0,0,.908-3.19265,11.19889,11.19889,0,0,0-.11328-1.5957l-.06446-.35351-.373-.9043-.20606-.54883c-.166-.44238-.34472-.88086-.52148-1.31543C9.458,28.5625,9.249,28.0459,9.06543,27.53809a8.43255,8.43255,0,0,1-.624-2.88965A9.29911,9.29911,0,0,1,8.667,22.69629l.05078-.21.64161-1.59863.52734-1.32618a12.09153,12.09153,0,0,0,1.04492-4.24511,11.60649,11.60649,0,0,0-.86621-3.74317L9.918,11.17578l-.49024-.94238-.208-.54492a11.63894,11.63894,0,0,1-.82032-3.49219A7.97352,7.97352,0,0,1,10.57857,1H8.79927c-.25488.30859-.498.61133-.72363.91016a7.9178,7.9178,0,0,0-.69726,1.07617,7.673,7.673,0,0,0-.65182,3.21,11.95244,11.95244,0,0,0,1.12207,4.43555l.1709.40429.51465.93067.19727.57617a8.43713,8.43713,0,0,1,.53027,2.77344,9.95916,9.95916,0,0,1-.71094,3.32812c-.14453.3916-.30078.7959-.458,1.20606-.2666.69043-.53808,1.39648-.7666,2.06933l-.06055.17676-.51171,1.61621.0166.83887a10.419,10.419,0,0,0,.78027,3.42871c.14453.37207.29883.74219.45313,1.11133.31054.74218.63183,1.51074.87011,2.28613l.11719.37988Z"/><path class="cls-2" d="M21.86035,20.053A52.95049,52.95049,0,0,1,25.02967,1.95324a18.898,18.898,0,0,1-.072,36A52.9669,52.9669,0,0,1,21.86035,20.053Z"/><polygon class="cls-3" points="1.5 35.859 1.5 37.578 16.5 29.192 16.5 27.474 1.5 35.859"/><polygon class="cls-3" points="1.5 25.15 1.5 26.869 16.5 18.481 16.5 16.762 1.5 25.15"/><polygon class="cls-3" points="1.5 14.438 1.5 16.157 16.5 7.769 16.5 6.05 1.5 14.438"/></g></svg>