<svg xmlns="http://www.w3.org/2000/svg" viewBox="0 0 84 44"><defs><style>.cls-1{fill:#fff;}</style></defs><g id="E305_Sprachdialogsystem"><g id="Version_2-2" data-name="Version_2"><path class="cls-1" d="M28.31836,23.49414,25.6123,21.98828l-.126.20508a19.73616,19.73616,0,0,0-.09766,20.45312l.125.207,2.70313-1.50684L28.085,41.126a16.80624,16.80624,0,0,1,.09668-17.40918Z"/><path class="cls-1" d="M51.93652,13.2627l-.30664.11328.47461,2.5039.42969-.14941a4.999,4.999,0,0,1,.63477-.17774,2.03637,2.03637,0,0,0,.61621,1.16993,1.98,1.98,0,0,0,.28515.23339c.02344.01465.28614.15918.33985.17969.05078.02246.34668.11231.39355.12305a2.16011,2.16011,0,0,0,.41895.043,2.20008,2.20008,0,0,0,.40625-.042s.28613-.08106.35839-.10938c.043-.0166.291-.14258.32715-.166a1.41367,1.41367,0,0,0,.19825-.14161c.03222-.02441.207-.18847.251-.23535a3.68611,3.68611,0,0,0,.23242-.30957s.13868-.26269.14942-.30762l.0459-.11816a3.08383,3.08383,0,0,1,1.15918.73438l.123.1289h2.92676l-.17871-.50976c-.58887-1.66016-3.35156-3.4375-6.52441-3.4375A8.18461,8.18461,0,0,0,51.93652,13.2627Zm4.137,3.5686.00024-.00018.00049.00091Z"/><path class="cls-1" d="M33.61523,26.44141l-2.70507-1.50586-.126.2041a13.983,13.983,0,0,0-.09961,14.55664l.125.209,2.69824-1.50879-.13086-.2207a11.06883,11.06883,0,0,1,.10059-11.51172Z"/><path class="cls-1" d="M60.89453,38.36621l-2.76074.47852c-1.64649.28418-3.69531.63769-3.92969.66992-3.7041.52246-4.668.14355-4.91113-.043-.16992-.13379-.25684-.51172-.31055-1.34277A17.06784,17.06784,0,0,1,49.21,36.24707a1.06179,1.06179,0,0,1,.4082-.53223,38.85866,38.85866,0,0,0,3.99219-1.999,1.8367,1.8367,0,0,0,.83106-2.13281l-.00977-.08789c-.04687-.40821-.32324-1.3877-1.84961-1.66992-.5498-.10157-3.374-.71973-4.60547-.99024l.74024-1.80371a1.428,1.428,0,0,0-.08106-1.24023,1.50463,1.50463,0,0,0-1.02344-.72364s-1.835-.34961-4.21972-.7998c2.30273-3.29395,6.748-8.43164,6.79394-8.4834a1.41989,1.41989,0,0,0,.293-1.332c-.23828-.81445-.76074-2.69043-.85742-3.28809-.26855-1.66113.38281-3.30176,1.99316-5.01465A13.75985,13.75985,0,0,1,55.17676,3.7959L53.96484,1.14551a15.63526,15.63526,0,0,0-4.5664,3.0459C47.1748,6.55957,46.252,9.05566,46.65527,11.61035c.10645.64649.48438,2.03711.72461,2.8916-1.25488,1.47168-5.04,5.96192-6.89746,8.76563a2.81019,2.81019,0,0,0-.24121,2.53027,1.87242,1.87242,0,0,0,1.37988,1.10156l3.64258.68653s-.78906,1.88574-.82324,1.9414a1.39525,1.39525,0,0,0-.20313,1.00586c.14747,1.0791,1.156.8899,2.31543,1.01856a29.70909,29.70909,0,0,1,4.31739.8457c-1.459.35547-4.36914.84082-4.44239.8584a1.91952,1.91952,0,0,0-1.28906,1.43262.97935.97935,0,0,0,.18555,1.001l.834.707a11.18121,11.18121,0,0,0-.16894,1.9209,4.3283,4.3283,0,0,0,1.42676,3.419,5.81033,5.81033,0,0,0,3.6875.9541,25.9427,25.9427,0,0,0,3.53125-.29785c.31543-.044,6.7832-1.15918,6.7832-1.15918Z"/><path class="cls-1" d="M37.92676,32.57812a7.46357,7.46357,0,0,1,.6914-3.01171l.09864-.21192L36.207,27.96094l-.126.20117a8.29831,8.29831,0,0,0-.11132,8.66211l.124.21,2.71094-1.50684-.13184-.22168A5.32551,5.32551,0,0,1,37.92676,32.57812Z"/></g></g></svg>