<svg xmlns="http://www.w3.org/2000/svg" viewBox="0 0 84 44"><defs><style>.cls-1{fill:none;stroke-width:3px;}.cls-1,.cls-2{stroke:#fff;}.cls-2{fill:#fff;stroke-width:0.5px;fill-rule:evenodd;}</style></defs><g id="E30E_Heckspoiler"><g id="Version_2-2" data-name="Version_2"><path class="cls-1" d="M17.06991,17.5643a43.05478,43.05478,0,0,1,7.695.918c4.358,1.008,9.632,4.899,12.884,5.704,3.899.966,5.393.011,6.25,2.974a30.30949,30.30949,0,0,1,1.335,8.623c-.013,2.362-5.278,1.967-5.496,2.025a7.8949,7.8949,0,0,1-4.872,4.44,7.80972,7.80972,0,0,1-8.853-4.351l-8.943-.017"/><path class="cls-2" d="M42.11491,20.3153a7.88709,7.88709,0,0,1,6.156,5.156l8.392-7.059Z"/><path class="cls-2" d="M59.93491,40.0303l-7.9-7.194,3.93-.245a49.818,49.818,0,0,0-.661-7.151l6.444-.845a56.15166,56.15166,0,0,1,.707,7.592l3.98-.249Zm-1.651-27.687-5.999,2.484a49.71082,49.71082,0,0,0-3.126-6.298l-3.628,1.732,2.97-9.927,10.038,3.717-3.508,1.675A56.16136,56.16136,0,0,1,58.2839,12.3433Z"/></g></g></svg>