<svg xmlns="http://www.w3.org/2000/svg" viewBox="0 0 84 44"><defs><style>.cls-1,.cls-2{fill:none;stroke:#fff;}.cls-1{stroke-width:2.5px;}.cls-2{stroke-width:2.29818px;}.cls-3,.cls-4{fill:#fff;}.cls-3{fill-rule:evenodd;}</style></defs><g id="E316_valet_parking"><g id="Version_3"><path class="cls-1" d="M54.5175,27.957h0a7.04716,7.04716,0,0,1-6.998-7.14L47.5,14.5h14l-.0195,6.317A7.01794,7.01794,0,0,1,54.5175,27.957Z"/><path class="cls-2" d="M60.0005,14.5V8.49954a5.53082,5.53082,0,0,0-5.48162-5.65628h0A5.56133,5.56133,0,0,0,49.0005,8.49954V14.5"/><path class="cls-3" d="M56.3235,19.445a1.838,1.838,0,1,0-2.818,1.566v3.615h1.994V20.993A1.86038,1.86038,0,0,0,56.3235,19.445Z"/><path class="cls-4" d="M68.06836,29.9505c-.675-2.28961-2.20947-2.50989-3.6936-2.72272-.38208-.05487-.84913-.13244-1.35181-.23437a10.65581,10.65581,0,0,1-1.76929,1.95416,6.61177,6.61177,0,0,0,.66822.21045,20.94166,20.94166,0,0,0,2.11132.3855c1.39453.20068,1.54.22217,1.78931,1.06872a17.68556,17.68556,0,0,1,.83447,5.21485l.00171.168L66.5,36.053a6.18909,6.18909,0,0,1-2.00488.20349h-.04663a2.57036,2.57036,0,0,0-.26221.0047l-1.20874.00091a4.14279,4.14279,0,0,1-8.26245,0h-23.876a4.14226,4.14226,0,0,1-8.26147,0H22.0437l-3.11938-.08026c-.16333-.0047-.28565-.01776-.37427-.02893l-.20728-.028v-.24365a3.32076,3.32076,0,0,1,.66919-2.45478c.60572-.743,1.27222-1.31891,4.35425-1.96667,1.65967-.34906,6.405-.97071,6.94092-1.04071l.1167-.01959a2.6367,2.6367,0,0,0,.62988-.1811,2.60745,2.60745,0,0,0,.6001-.43029l.23633-.20533c.42358-.34167.91552-.78222,1.3916-1.20691,1.584-1.41778,3.75317-3.35925,5.73852-3.89691a23.29214,23.29214,0,0,1,5.45386-.57281,10.71781,10.71781,0,0,1-.41675-2.33142,24.81024,24.81024,0,0,0-5.65039.64544c-2.52295.68232-4.93017,2.83655-6.68872,4.40937-.44433.39947-.90527.813-1.31689,1.14709l-.36695.31647-.07275.00928c-.05054.00653-5.239.67858-7.07886,1.065-3.46582.729-4.67163,1.53827-5.68335,2.77594A5.62331,5.62331,0,0,0,16,35.88312c.002,1.73425.9082,2.57336,2.85254,2.63965l1.92822.04943.0625.13257a6.47477,6.47477,0,0,0,11.7124.0373l.0625-.13624H52.936l.06347.13721a6.47338,6.47338,0,0,0,11.69922-.01495l.06348-.13257.14746-.00372c1.85083-.04291,4.063-.50775,4.09009-2.47907A20.05608,20.05608,0,0,0,68.06836,29.9505Z"/></g></g></svg>