<svg xmlns="http://www.w3.org/2000/svg" viewBox="0 0 84 44"><defs><style>.cls-1{fill:none;stroke:#fff;stroke-width:3px;}.cls-2{fill:#fff;}</style></defs><g id="E320_DC_laden"><g id="Version_2"><path class="cls-1" d="M51,38.5H61"/><path class="cls-1" d="M37,38.5H47"/><path class="cls-1" d="M23,38.5H33"/><path class="cls-1" d="M23,32.48138H61"/><path class="cls-2" d="M23.04053,26V5H30.9624a14.04536,14.04536,0,0,1,3.32422.3584,9.33678,9.33678,0,0,1,2.57422,1.01953,7.2196,7.2196,0,0,1,1.88965,1.60352A8.4439,8.4439,0,0,1,40.022,10.084a10.98939,10.98939,0,0,1,.71485,2.52051,17.68434,17.68434,0,0,1,.22265,2.86035,16.431,16.431,0,0,1-.24023,2.85645,11.40411,11.40411,0,0,1-.74707,2.53516,8.53991,8.53991,0,0,1-1.30274,2.12011,7.57361,7.57361,0,0,1-1.91211,1.6211A9.31658,9.31658,0,0,1,34.188,25.63574,13.49634,13.49634,0,0,1,30.91357,26Zm7.63183-3.37012a7.6284,7.6284,0,0,0,1.81641-.20215A5.36772,5.36772,0,0,0,33.9751,21.833a4.51131,4.51131,0,0,0,1.16113-.98731,5.28184,5.28184,0,0,0,.82813-1.38769,8.18805,8.18805,0,0,0,.49609-1.78028,13.22636,13.22636,0,0,0,.166-2.17773,13.20574,13.20574,0,0,0-.166-2.17676,8.18812,8.18812,0,0,0-.49609-1.78027,5.21689,5.21689,0,0,0-.82813-1.38477,4.57784,4.57784,0,0,0-1.16113-.98437,5.42873,5.42873,0,0,0-1.48633-.59473,7.68091,7.68091,0,0,0-1.81641-.20117H27.22412v14.252Z"/><path class="cls-2" d="M60.86084,25.35508q-.67236.28272-1.3623.50977a12.45474,12.45474,0,0,1-1.49024.38183,17.28787,17.28787,0,0,1-1.75976.24121q-.95947.085-2.16993.084a11.48043,11.48043,0,0,1-2.94922-.35352,8.45008,8.45008,0,0,1-2.38574-1.02343,7.62906,7.62906,0,0,1-1.83691-1.63184,8.808,8.808,0,0,1-1.29981-2.19141,12.55989,12.55989,0,0,1-.76855-2.69336,18.36625,18.36625,0,0,1-.25391-3.14355,16.49806,16.49806,0,0,1,.26172-2.999,11.77756,11.77756,0,0,1,.7959-2.62989,9.28529,9.28529,0,0,1,1.3418-2.18457A7.99759,7.99759,0,0,1,48.86768,6.065a8.81584,8.81584,0,0,1,2.43164-1.05176,11.41777,11.41777,0,0,1,2.99121-.36816,18.19851,18.19851,0,0,1,1.9082.0957,15.50643,15.50643,0,0,1,1.69629.26953,12.05641,12.05641,0,0,1,1.47559.417,9.37525,9.37525,0,0,1,1.24316.542V9.40977a10.37834,10.37834,0,0,0-1.21484-.49121A12.37349,12.37349,0,0,0,57.979,8.53575a15.69138,15.69138,0,0,0-1.62109-.24805,17.96909,17.96909,0,0,0-1.81934-.08789,6.07254,6.07254,0,0,0-1.74121.2334,4.79756,4.79756,0,0,0-1.40918.67285,4.54433,4.54433,0,0,0-1.083,1.0791,6.19046,6.19046,0,0,0-.76563,1.45508,9.04919,9.04919,0,0,0-.45312,1.79492,14.0894,14.0894,0,0,0-.14844,2.09961,16.601,16.601,0,0,0,.15234,2.35351,9.15028,9.15028,0,0,0,.46387,1.89454,5.62646,5.62646,0,0,0,.77832,1.44726,4.23952,4.23952,0,0,0,1.10547,1.0166,4.76655,4.76655,0,0,0,1.44043.59766,7.55416,7.55416,0,0,0,1.78027.19531q.95655,0,1.78418-.07129.82911-.07031,1.5791-.209a13.68479,13.68479,0,0,0,1.45117-.34668,14.14448,14.14448,0,0,0,1.3877-.49219Z"/></g></g></svg>