<svg xmlns="http://www.w3.org/2000/svg" viewBox="0 0 84 44"><defs><style>.cls-1,.cls-3{fill:#fff;}.cls-2{fill:none;stroke:#fff;stroke-miterlimit:10;stroke-width:3px;}.cls-2,.cls-3{fill-rule:evenodd;}</style></defs><g id="E329_RCTA"><g id="Version_4"><path class="cls-1" d="M30.48242,29.56688V29h-2.8125v.56688a8.13559,8.13559,0,0,0,2.94824,6.26074l.458.38086,2.19043-1.91113-.67383-.52051A5.29855,5.29855,0,0,1,30.48242,29.56688Z"/><path class="cls-1" d="M24.93359,29.56688V29H22.11914v.56688a13.49511,13.49511,0,0,0,4.2793,9.87695l.46.43653,2.13867-1.86426-.56934-.52832A10.68513,10.68513,0,0,1,24.93359,29.56688Z"/><path class="cls-1" d="M19.42188,29.56688V29h-2.8125v.56688a18.92836,18.92836,0,0,0,5.61816,13.48437l.46094.46,2.13086-1.85645-.53711-.52734A16.12231,16.12231,0,0,1,19.42188,29.56688Z"/><path class="cls-1" d="M56.3291,29H53.5166v.56688a5.29855,5.29855,0,0,1-2.11035,4.21l-.67383.52051,2.19043,1.91113.458-.38086a8.13559,8.13559,0,0,0,2.94824-6.26074Z"/><path class="cls-1" d="M64.57715,29v.56688A16.12235,16.12235,0,0,1,59.7168,41.12743l-.53516.52832,2.12988,1.85547.46-.46a18.92931,18.92931,0,0,0,5.61914-13.48437V29Z"/><path class="cls-1" d="M61.87988,29H59.06641v.56688a10.684,10.684,0,0,1-3.49512,7.9209l-.56934.52832,2.13867,1.86426.46-.43653a13.49514,13.49514,0,0,0,4.27929-9.87695Z"/><path class="cls-2" d="M49.16529,27.51468a4.02955,4.02955,0,0,1-2.3585,3.34631,13.689,13.689,0,0,1-4.49841.66759l-.33623-.00069a16.20413,16.20413,0,0,1-4.80262-.6669,3.92567,3.92567,0,0,1-2.30907-3.33448,18.72855,18.72855,0,0,1-.35155-3.55584s-.055-17.53211.00557-17.93586a7.43174,7.43174,0,0,1,1.36929-2.40723c1.42429-1.98119,5.61362-2.039,6.08629-2.039.45806,0,4.51651.055,6.05148,1.94778.08145.10163.17682.20814.27776.32022a3.48981,3.48981,0,0,1,1.16324,2.1963V23.61285A23.18893,23.18893,0,0,1,49.16529,27.51468Z"/><path class="cls-3" d="M44.88683,13.32031a10.72332,10.72332,0,0,0-2.91092-.35846,10.37293,10.37293,0,0,0-2.862.35846l-.32375.09564L37.93931,8.916l.21182-.1091a8.6521,8.6521,0,0,1,3.82478-.88766,8.90486,8.90486,0,0,1,3.873.88766l.21182.1091L45.21058,13.416Z"/><path class="cls-3" d="M39.45534,22.61554a18.27447,18.27447,0,0,0,5.03548,0l.289-.04534.59082,4.37168-.226.08076a9.65566,9.65566,0,0,1-3.17161.61633,9.65566,9.65566,0,0,1-3.17161-.61633l-.2267-.08076.59153-4.37168Z"/><path id="Neu" class="cls-3" d="M42,44s-5.04387-5.003-4.99987-5h3V36h4v3h3Z"/></g></g></svg>