<svg xmlns="http://www.w3.org/2000/svg" viewBox="0 0 84 44"><defs><style>.cls-1,.cls-3{fill:#fff;}.cls-1,.cls-2{stroke:#fff;}.cls-1{stroke-width:0.5px;fill-rule:evenodd;}.cls-2{fill:none;stroke-width:3.5px;}</style></defs><g id="E32A_Motorhaube"><g id="Version_6"><path class="cls-1" d="M15.02217,14.3855l5.02,3.834,4.329-.572-7.716-5.822a8.2077,8.2077,0,0,0-9.575.982l1.873,2.383A5.32071,5.32071,0,0,1,15.02217,14.3855Z"/><path class="cls-2" d="M67,31.07138l.93617-.0032c.201-.052,4.42725.30463,4.452-1.6425a23.383,23.383,0,0,0-1.096-7.232c-.787-2.676-2.31-1.936-5.89-2.809-2.986-.727-8.807-4.847-12.808-5.757-4.031-.916-12.038-1.204-16.344-.039-3.603.975-7.188,4.831-9.375,6.601a4.95648,4.95648,0,0,1-.76.613,2.119,2.119,0,0,1-.47.117s-6.495.84-8.744,1.313c-4.042.85-5.208,1.694-6.229,2.943-.447.547-1.162,1.49-1.16,3.969.001,1.183.372,1.764,2.123,1.825l3.96938.10168"/><line class="cls-2" x1="27.10455" y1="31.07136" x2="55.5" y2="31.07138"/><path class="cls-3" d="M26.19434,29.3194a4.84553,4.84553,0,0,1-9.68946,0H13a8.35012,8.35012,0,0,0,16.69922,0Z"/><path class="cls-3" d="M66.08473,29.3194a4.84553,4.84553,0,0,1-9.68946,0H52.89039a8.35012,8.35012,0,0,0,16.69922,0Z"/></g></g></svg>