<svg xmlns="http://www.w3.org/2000/svg" viewBox="0 0 84 44"><defs><style>.cls-1{fill:none;stroke-width:2.2px;}.cls-1,.cls-3{stroke:#fff;}.cls-2,.cls-3{fill:#fff;}.cls-3{stroke-miterlimit:10;}</style></defs><g id="E4A7_CADA_navigation_assisted_lane_change"><path class="cls-1" d="M49.83895,41.21622l8.19479-22.82834,8.19479,22.82834-8.19479-4.68274Z"/><polygon class="cls-2" points="40.842 8 40.623 11.849 44.499 13.115 44.154 8 40.842 8"/><polygon class="cls-2" points="64.812 5 62.339 0 59.519 0 61.29 5 64.812 5"/><polygon class="cls-2" points="43.939 5 43.659 0 41.339 0 41.039 5 43.939 5"/><polygon class="cls-2" points="23.71 5 25.481 0 22.662 0 20.165 5 23.71 5"/><polygon class="cls-2" points="69.52 15 66.057 8 62.609 8 65.237 15 69.52 15"/><polygon class="cls-2" points="19.763 15 22.391 8 18.942 8 15.48 15 19.763 15"/><polygon class="cls-2" points="76.303 29 72.219 21 67.307 21 70.369 29 76.303 29"/><polygon class="cls-2" points="45.337 29 44.886 21 40.112 21 39.654 29 45.337 29"/><polygon class="cls-2" points="14.631 29 17.693 21 12.781 21 8.697 29 14.631 29"/><path class="cls-3" d="M50.07086,20.9165l.54025,3.30572,2.06842-5.92668L32.82837,11.57537a.53761.53761,0,0,1-.40935-.57363L33.06452,7.6H37.8L32.66129,4.30645,26.48387,7.6h4.54839l-1.22963,4.11642a1.40841,1.40841,0,0,0,.60642,1.46385l19.03974,6.93882A.94274.94274,0,0,1,50.07086,20.9165Z"/></g></svg>