<svg xmlns="http://www.w3.org/2000/svg" viewBox="0 0 84 44"><defs><style>.cls-1,.cls-3{fill:#fff;}.cls-2{fill:none;stroke-linejoin:bevel;stroke-width:2.25px;}.cls-2,.cls-3{stroke:#fff;}.cls-3{stroke-miterlimit:10;stroke-width:0.5px;}</style></defs><g id="Icon_neu" data-name="Icon neu"><path class="cls-1" d="M73.10938,41.52069l-1.08887-2.97461h-5.7627l-1.06933,2.97461H62.30176l5.4248-13.918H70.6875l5.42969,13.918Zm-3.22852-8.94824q-.2168-.61524-.40137-1.21777-.186-.60352-.33105-1.24122-.145.63722-.33106,1.24317-.18456.605-.40136,1.21582l-1.35059,3.73926h4.15234Z"/></g><g id="Ebene_1" data-name="Ebene 1"><g id="alt"><path class="cls-2" d="M36.50189,31.50115C18.90667,31.47286,9.504,18.69375,9.504,18v-.17668l.1049-.15665a34.11157,34.11157,0,0,1,53.79019,0l.10491.15665V18c0,.69375-9.40478,13.4723-27,13.50059Z"/><path class="cls-1" d="M36.50424,11.78732A6.25,6.25,0,1,0,42.754,18.0376v-.00028a6.24992,6.24992,0,0,0-6.24975-6.25Z"/><path class="cls-3" d="M36.504,6.97632a11.061,11.061,0,1,1-11.061,11.061h0a11.07352,11.07352,0,0,1,11.061-11.061m0-1.6803a12.7413,12.7413,0,1,0,12.74129,12.7413h0A12.74128,12.74128,0,0,0,36.504,5.296Z"/></g></g></svg>