<svg xmlns="http://www.w3.org/2000/svg" viewBox="0 0 84 44"><defs><style>.cls-1{fill:#fff;}</style></defs><g id="E4B3_experience_streering_wheel_hands_off"><path class="cls-1" d="M55.19685,14.86391c.00574.01519-.7485,1.42153-.54584,1.86653.13511.29667.53334,1.78809.544,1.87174a11.60885,11.60885,0,0,0,2.81614,6.38042,4.05027,4.05027,0,0,0,.63086.52833,8.29007,8.29007,0,0,1,2.48437,2.96386c.84863,1.42871,2.86133,5.06055,3.73828,6.64844l3.30375-6.6416c-.19238-.35059-.62109-1.1377-.9375-1.76172a4.10591,4.10591,0,0,1-.416-2.76563c.03515-.4414.05566-1.03564.0791-1.68066.03808-1.07568.322-2.29443.44019-3.20605a11.5079,11.5079,0,0,0-.17089-2.05909c-.125-.55664-.45094-.60742-1.02321-.69336.123.57276.21192,1.63391.00489,1.838a.436.436,0,0,1-.42286.10547c-.26172-.07715-.3164-.31982-.36425-.53369-.00391-.01758-.40821-2.19543-.5459-2.66174-.22266-.75732-.29-.98779-1.248-1.083.08887.44532.21582,1.46448.31738,1.99377.17871.92578.085,1.08936-.06738,1.21973a.44338.44338,0,0,1-.42871.07861c-.25391-.09131-.33594-.28906-.49121-1.1748a16.32494,16.32494,0,0,0-.749-3.70129c-.2002-.2334-1.339-.103-2.07243.17529a12.46389,12.46389,0,0,1,.78039,2.74219.42568.42568,0,0,1-.13281.35547c-.2334.21826-.65918.72217-1.03418,1.1665-.65625.77686-.79785.93555-.95508,1.00684a.83558.83558,0,0,1-.74414.021c-.3916-.19824-.55891-.46885-1.15527-1.34347A8.10739,8.10739,0,0,0,55.19685,14.86391Z"/><path class="cls-1" d="M27.154,16.52c-.59636.87462-.76368,1.14523-1.15528,1.34347a.83558.83558,0,0,1-.74414-.021c-.15723-.07129-.29883-.23-.95508-1.00684-.375-.44433-.80078-.94824-1.03418-1.1665a.42574.42574,0,0,1-.13281-.35547,12.46444,12.46444,0,0,1,.78039-2.74219c-.7334-.27832-1.87222-.40869-2.07242-.17529a16.32381,16.32381,0,0,0-.749,3.70129c-.15528.88574-.23731,1.08349-.49121,1.1748a.44339.44339,0,0,1-.42872-.07861c-.15234-.13037-.24609-.294-.06738-1.21973.10156-.52929.22852-1.54845.31738-1.99377-.958.09522-1.02539.32569-1.248,1.083-.1377.46631-.542,2.64416-.5459,2.66174-.04785.21387-.10254.45654-.36426.53369a.436.436,0,0,1-.42285-.10547c-.207-.2041-.11816-1.26525.00488-1.838-.57226.08594-.8982.13672-1.0232.69336a11.50717,11.50717,0,0,0-.1709,2.05909c.11817.91162.40211,2.13037.4402,3.20605.02343.645.04394,1.23926.0791,1.68066a4.106,4.106,0,0,1-.416,2.76563c-.3164.624-.74511,1.41113-.9375,1.76172l3.30375,6.6416c.877-1.58789,2.88965-5.21973,3.73828-6.64844a8.29016,8.29016,0,0,1,2.48438-2.96386,4.05073,4.05073,0,0,0,.63086-.52833,11.60889,11.60889,0,0,0,2.81613-6.38042c.01068-.08365.40891-1.57507.544-1.87174.20266-.445-.55157-1.85134-.54584-1.86653A8.10746,8.10746,0,0,0,27.154,16.52Z"/><path class="cls-1" d="M47.32683,30.63382a2.7348,2.7348,0,0,1-1.001.25293c-.043.00488-.36133.02832-.68262.03516l-.63476.0166c-.89746.02343-2.15039.04883-3.01465.05566-.78027.01074-1.82812-.02148-2.666-.0459l-.98925-.02636c-.32032-.00684-.6377-.03028-.68653-.03516a2.74835,2.74835,0,0,1-1.00293-.25586c-.05078-.02344-.18359-.0957-.374-.20215.02344.2793.05176.52735.0752.68164a12.08892,12.08892,0,0,0,.99218,3.39258c.15918.36621.52832,1.17383.665,1.45117l.06153.127c.45214.92578.7246,1.48437,1.89062,1.52148,1.06152.03516,1.62012.03906,2.02734.03906.40821,0,.96485,0,2.03614-.03906,1.11816-.04,1.40234-.52148,1.89062-1.52051l.0625-.127c.13672-.27832.50488-1.08594.66406-1.45215a12.08142,12.08142,0,0,0,.99122-3.39258c.02343-.15429.05371-.40625.0791-.68359C47.51726,30.53519,47.38152,30.60941,47.32683,30.63382Zm-1.93061,1.23712a13.24338,13.24338,0,0,1-.82012,2.85126c-.3891,1.024-.61249,1.307-1.44654,1.34607-.39288.01959-.849.02234-1.04632.02234h-.09406c-.03534-.00092-.63763.00188-1.13568-.02234-.834-.03906-1.05743-.32208-1.44653-1.34607a13.2447,13.2447,0,0,1-.82013-2.85126l-.02154-.18921h6.85245Z"/><path class="cls-1" d="M52.43127,21.44727l-.51953,2.39941c-.0205.09277-.04.17773-.04882.25293.0371.0957.09277.22754.14453.35254.03967.09558.075.18054.10376.25165,1.04254-.01734,3.29992-.04743,4.34332-.05994a12.72257,12.72257,0,0,1-2.161-5.33148c-.59894-.147-1.21076-.299-1.7995-.4455a1.39144,1.39144,0,0,1,.23126,1.222C52.70966,20.167,52.58563,20.7373,52.43127,21.44727Z"/><path class="cls-1" d="M24.16632,15.15845c.23474.24988.53168.59894.897,1.03186.2071.24518.4527.53589.59729.69415a6.998,6.998,0,0,0,.56147-.7727l.10565-.15516A8.83315,8.83315,0,0,1,27.94293,14.259c.04584-.05133.07959-.09027.09412-.11047a8.636,8.636,0,0,0,.376-.80567,17.88418,17.88418,0,0,1,1.68646-3.17773,7.29187,7.29187,0,0,1,4.49414-3.25488,37.71714,37.71714,0,0,1,7.39752-.60938,37.72552,37.72552,0,0,1,7.39838.60938,7.29941,7.29941,0,0,1,4.49414,3.25488,17.88332,17.88332,0,0,1,1.68658,3.17773,8.17457,8.17457,0,0,0,.38178.81348c.011.01544.04321.05182.0838.09729a8.83791,8.83791,0,0,1,1.62182,1.703l.10608.15583a7.1334,7.1334,0,0,0,.56055.77246c.14453-.15814.39038-.4491.59741-.69422.365-.43255.66169-.78131.89716-1.03192a12.87678,12.87678,0,0,0-.58307-1.97888,22.09687,22.09687,0,0,0-4.46729-5.86243A12.12511,12.12511,0,0,0,49.915,4.68854,35.58609,35.58609,0,0,0,41.99121,4.004a35.57032,35.57032,0,0,0-7.92285.68457,12.12522,12.12522,0,0,0-4.85352,2.6289,22.08891,22.08891,0,0,0-4.457,5.84082A12.89231,12.89231,0,0,0,24.16632,15.15845Z"/><path class="cls-1" d="M60.267,28.98615a7.43285,7.43285,0,0,0-2.17761-2.63984c-.00531.03717-.00171.075-.01038.1117a25.895,25.895,0,0,1-2.38574,5.65722,11.98722,11.98722,0,0,1-3.77149,4.5459,3.12252,3.12252,0,0,1-1.65234.5586l-.28516.03515c-.33789.04724-1.94091.129-3.59082.19678a2.53551,2.53551,0,0,1-2.23925,1.19287c-1.13965.041-1.73145.041-2.166.041h-.001c-.43359,0-1.02636-.00489-2.15527-.041a2.49379,2.49379,0,0,1-2.2417-1.18634c-1.68457-.069-3.24267-.15448-3.59228-.20331l-.28418-.03509a3.12328,3.12328,0,0,1-1.65235-.55866A11.98774,11.98774,0,0,1,28.29,32.11523,25.878,25.878,0,0,1,25.90332,26.458c-.00842-.03613-.00482-.07324-.01-.10974a7.4319,7.4319,0,0,0-2.17456,2.6372c-.03931.06617-.09271.15906-.1369.2345.126.36841.25183.72284.37225,1.06128.30176.84961.56445,1.58691.73145,2.26074a30.80894,30.80894,0,0,0,5.42578,5.74414c1.52637,1.13965,2.03418,1.33789,5.65039,1.541,2.88769.16113,5.69238.16894,6.22461.16894.53906,0,3.34863-.00781,6.23633-.16894,3.61523-.20313,4.123-.40137,5.64941-1.541A30.77016,30.77016,0,0,0,59.29785,32.542c.167-.67383.42969-1.41015.73145-2.26074.12066-.33911.2467-.69415.373-1.06335C60.35864,29.14349,60.30585,29.05151,60.267,28.98615Z"/><path class="cls-1" d="M31.95673,24.4873c.06152-.14355.125-.291.16308-.38867-.00879-.07519-.02832-.15722-.04687-.24414l-.52149-2.40722c-.15429-.71-.27832-1.28028-.294-1.35547a1.39707,1.39707,0,0,1,.23065-1.22443c-.58789.14612-1.19831.29755-1.79608.44409a12.72288,12.72288,0,0,1-2.1612,5.3324c1.04621.01251,3.30707.04254,4.33448.0592C31.89337,24.63641,31.92456,24.56323,31.95673,24.4873Z"/><path class="cls-1" d="M41.78809,22A1.30958,1.30958,0,0,0,42,22.68143a1.20158,1.20158,0,0,0,0-1.36286A1.30979,1.30979,0,0,0,41.78809,22Z"/><path class="cls-1" d="M43.1377,20.65042a1.31565,1.31565,0,0,0-.77582.27564,1.82262,1.82262,0,0,1,0,2.148,1.2208,1.2208,0,0,0,1.50586.03094,1.81319,1.81319,0,0,1,0-2.20984A1.31173,1.31173,0,0,0,43.1377,20.65042Z"/><path class="cls-1" d="M40.8623,20.65042a1.31173,1.31173,0,0,0-.73.24469,1.8131,1.8131,0,0,1,0,2.20978,1.22069,1.22069,0,0,0,1.50586-.03088,1.82273,1.82273,0,0,1,0-2.148A1.316,1.316,0,0,0,40.8623,20.65042Z"/><ellipse class="cls-1" cx="39.76025" cy="22.00003" rx="0.24756" ry="0.73425"/><path class="cls-1" d="M38.6582,20.65042a1.34961,1.34961,0,1,0,0,2.69922,1.3116,1.3116,0,0,0,.73-.24469,1.81323,1.81323,0,0,1,0-2.20984A1.31168,1.31168,0,0,0,38.6582,20.65042Z"/><path class="cls-1" d="M51.69623,19.87582c.03973-.3045-.08588-.44561-.35742-.59924a20.7935,20.7935,0,0,0-3.16535-1.4602l-.60724-.19428c-.69073-.11291-1.21515-.12268-1.99353-.18976,0,0-2.74566-.10791-3.56921-.10791-.82373,0-3.56946.10791-3.56946.10791-.77856.06708-1.30279.07685-1.99371.18976l-.60706.19428a20.7844,20.7844,0,0,0-3.16534,1.4602c-.27161.15363-.3971.29474-.35724.59924.00806.06214.11133.54535.23041,1.15509.21856,1.12037.58276,2.5669.63726,2.91a.84021.84021,0,0,1-.02563.41589c-.073.19714-.13129.34638-.20819.51422a.44018.44018,0,0,0,.00818.45581,33.93542,33.93542,0,0,0,1.89551,2.96924,1.04348,1.04348,0,0,0,.45349.38879c.616.31391,1.51391.84308,1.61908.889a2.75546,2.75546,0,0,0,1.15411.19983c.27545.01166,2.4137.08026,3.92859.08026,1.51465,0,3.65308-.0686,3.9284-.08026a2.755,2.755,0,0,0,1.15406-.19983c.10528-.0459,1.00305-.57507,1.619-.889a1.04287,1.04287,0,0,0,.45349-.38879,33.87175,33.87175,0,0,0,1.89538-2.96924.44027.44027,0,0,0,.00843-.45581c-.07715-.16784-.13526-.31708-.20813-.51422a.84.84,0,0,1-.02582-.41589c.0545-.34308.4187-1.78961.63727-2.91C51.58466,20.42117,51.68793,19.938,51.69623,19.87582ZM45.3418,23.84964a1.83172,1.83172,0,0,1-1.102-.37317A1.8113,1.8113,0,0,1,42,23.44705a1.8113,1.8113,0,0,1-2.23975.02942,1.83172,1.83172,0,0,1-1.102.37317,1.84961,1.84961,0,1,1,0-3.69922,1.83172,1.83172,0,0,1,1.102.37317A1.8113,1.8113,0,0,1,42,20.553a1.8113,1.8113,0,0,1,2.23975-.02942,1.83172,1.83172,0,0,1,1.102-.37317,1.84961,1.84961,0,1,1,0,3.69922Z"/><ellipse class="cls-1" cx="44.23975" cy="22.00003" rx="0.24756" ry="0.73425"/><path class="cls-1" d="M45.3418,20.65042a1.31168,1.31168,0,0,0-.73.24469,1.81314,1.81314,0,0,1,0,2.20978,1.31174,1.31174,0,0,0,.73.24475,1.34961,1.34961,0,1,0,0-2.69922Z"/></g></svg>