<svg id="Ebene_1" data-name="Ebene 1" xmlns="http://www.w3.org/2000/svg" viewBox="0 0 84 44"><defs><style>.cls-1{fill:#fff;}</style></defs><path class="cls-1" d="M30.93583,33.48229a12.30941,12.30941,0,0,1-3.3663-.41519,8.33524,8.33524,0,0,1-2.52619-1.16661,7.026,7.026,0,0,1-1.78548-1.8001A9.56012,9.56012,0,0,1,22.10977,27.775a13.82216,13.82216,0,0,1-.614-2.73767,24.36915,24.36915,0,0,1-.18225-3.02909,22.25994,22.25994,0,0,1,.20077-3.02909,13.68608,13.68608,0,0,1,.651-2.73329,9.77783,9.77783,0,0,1,1.1822-2.3259,7.16866,7.16866,0,0,1,1.79913-1.80011,8.43359,8.43359,0,0,1,2.50377-1.16271,11.851,11.851,0,0,1,3.28541-.41469,12.33457,12.33457,0,0,1,3.3663.41469,8.34355,8.34355,0,0,1,2.52229,1.16271,7.03073,7.03073,0,0,1,1.78451,1.80011,9.44184,9.44184,0,0,1,1.14809,2.3259,13.88554,13.88554,0,0,1,.61108,2.73329,24.5573,24.5573,0,0,1,.18225,3.02909,22.26,22.26,0,0,1-.20077,3.02909,13.89824,13.89824,0,0,1-.64811,2.73767,9.50725,9.50725,0,0,1-1.18123,2.32542,7.29031,7.29031,0,0,1-1.803,1.8001,8.40118,8.40118,0,0,1-2.49987,1.16661A11.793,11.793,0,0,1,30.93583,33.48229Zm0-3.61483a5.40275,5.40275,0,0,0,1.65878-.23781,4.01863,4.01863,0,0,0,1.31475-.69977,4.47577,4.47577,0,0,0,.99313-1.13639,6.65793,6.65793,0,0,0,.68807-1.54865,11.13706,11.13706,0,0,0,.40057-1.93655,20.46768,20.46768,0,0,0,0-4.59967,11.0393,11.0393,0,0,0-.40057-1.93314,6.747,6.747,0,0,0-.68807-1.54817,4.40481,4.40481,0,0,0-.99313-1.13688,4.1235,4.1235,0,0,0-1.31475-.70026,5.839,5.839,0,0,0-3.31854,0,4.16962,4.16962,0,0,0-1.31767.70026,4.36339,4.36339,0,0,0-.997,1.13688,6.70561,6.70561,0,0,0-.68807,1.54817,11.0393,11.0393,0,0,0-.40057,1.93314,20.46768,20.46768,0,0,0,0,4.59967,11.13706,11.13706,0,0,0,.40057,1.93655,6.61766,6.61766,0,0,0,.68807,1.54865,4.43287,4.43287,0,0,0,.997,1.13639,4.06267,4.06267,0,0,0,1.31767.69977A5.40481,5.40481,0,0,0,30.93583,29.86746Z"/><path class="cls-1" d="M56.95844,32.993l-7.97717-9.98487V32.993H45.0071V11.02387h3.97417v9.65107l7.43627-9.65107h5.24437l-6.948,8.79926q-.52629.65933-1.00385,1.1632a8.86695,8.86695,0,0,1-.90736.8445q.23684.17031.48536.38107.24852.21125.50387.46684c.17055.17056.344.35573.52239.55553q.26607.29969.55553.65494L62.20964,32.993Z"/></svg>