<svg xmlns="http://www.w3.org/2000/svg" viewBox="0 0 84 44"><defs><style>.cls-1,.cls-2,.cls-5,.cls-6{fill:#fff;}.cls-1,.cls-2,.cls-3,.cls-4{stroke:#fff;stroke-miterlimit:10;}.cls-1{stroke-width:0.78409px;}.cls-2{stroke-width:1.04546px;}.cls-3,.cls-4{fill:none;}.cls-3{stroke-width:2.06px;}.cls-4{stroke-width:2px;}.cls-6{fill-rule:evenodd;}</style></defs><g id="E787_Child_presence_detection_bell"><g id="Version_4"><path class="cls-1" d="M47.17078,6.94908a2.85515,2.85515,0,1,0,3.55607,1.92129,2.85782,2.85782,0,0,0-3.55607-1.92129"/><path class="cls-2" d="M48.2106,14.478a3.56838,3.56838,0,0,0-1.44533.16042l-5.45492,1.02313a1.55993,1.55993,0,0,0,.9235,2.98l3.48286-.57264a33.97088,33.97088,0,0,0-1.26835,4.41374l-2.50755.26049a4.49236,4.49236,0,0,0-2.2232.27858l-3.28333,1.158a1.56011,1.56011,0,0,0,1.23805,2.86407l2.55348-.92862a4.947,4.947,0,0,1,1.636-.14147l3.79394.11481c1.26442-.37751,1.36152-.60524,1.7273-1.46154l.06037-.14389c-.00032.00541,2.76514-7.52457,2.76514-7.52457a1.83913,1.83913,0,0,0-1.998-2.48051"/><path class="cls-3" d="M26.22979,4.10907,19.21873,16.62826a.88276.88276,0,0,0,.77021,1.31409H34.01106a.88276.88276,0,0,0,.77021-1.31409L27.77021,4.10907A.88277.88277,0,0,0,26.22979,4.10907Z"/><line class="cls-4" x1="27" y1="8" x2="27" y2="13"/><rect class="cls-5" x="26" y="14" width="2" height="2"/><path class="cls-6" d="M56.14033,41.60641l-.00239.02373a1.74553,1.74553,0,1,0,3.49105,0l-.00239-.02373Z"/><line class="cls-4" x1="50.02458" y1="41.68555" x2="64.42575" y2="27.19521"/><path class="cls-5" d="M63.374,37.06189a6.19814,6.19814,0,0,1-.43359-2.55164l-.07038-1.70013s-.00286-.20477-.0097-.32465l-7.08952,6.90137h9.31462l.11523-1.22693A3.37092,3.37092,0,0,1,63.374,37.06189Z"/><path class="cls-5" d="M57.8833,26.74054a5.25257,5.25257,0,0,0-4.9624,5.48l-.09522,2.31494a9.78724,9.78724,0,0,1-.25577,1.10291l8.05078-8.101A3.98237,3.98237,0,0,0,57.8833,26.74054Z"/><path class="cls-5" d="M57.499,14.80566l1.16895-.0664a.58824.58824,0,0,1,.5791.56933,15.7196,15.7196,0,0,1-.60547,4.32129c-.10254.41895-.21777.8877-.35156,1.47461a17.31262,17.31262,0,0,1-1.1839,4.16258,5.79166,5.79166,0,0,1,1.03711-.1004,7.98589,7.98589,0,0,1,1.3086.09192,18.427,18.427,0,0,0,.94463-3.70586c.124-.542.23633-.999.33692-1.40918a17.84364,17.84364,0,0,0,.667-4.81933,2.749,2.749,0,0,0-2.76367-2.73633l-1.29937.06641Z"/><path class="cls-5" d="M51.544,26.76074v1.73047a.2935.2935,0,0,0,.28613.30274h.35026a6.97357,6.97357,0,0,0-.76367,2.15069,2.16586,2.16586,0,0,1-2.027-2.46222V26.25781l.11133-.22558Z"/><path class="cls-5" d="M47.38955,40.18353l-14.45986-.00091a3.34871,3.34871,0,0,1-3.25586-2.7002l-.76758-4.42383c0-1.86523,1.89063-3.11914,3.65527-3.11914l3.81934.00293,1.52832-.00293a22.768,22.768,0,0,1,7.09766,1.30469,23.53215,23.53215,0,0,0,6.236,1.24133L51.16667,34.382a2.296,2.296,0,0,1-.17057.33409c.01687-.00041.00586-.017,0,0a25.12077,25.12077,0,0,1-6.7002-1.43968,20.63049,20.63049,0,0,0-6.41016-1.1836l-1.5039.00391-3.82129-.00293c-.72168,0-1.43164.43457-1.49512.89746l.72559,4.09766a1.18379,1.18379,0,0,0,1.14941.93945l16.60937.001Z"/><path class="cls-5" d="M53.457,8.4834a1.91938,1.91938,0,0,0,.52735,1.41992,1.94631,1.94631,0,0,0,1.39746.59375,2.44474,2.44474,0,0,0,.416-.0332c.07324-.01367,1.80957-.32129,3.25488-.4834a1.95272,1.95272,0,0,0,1.71973-1.81641l.00293-.05273-.002-.05274c-.124-3.47558-1.998-5.46972-5.11621-5.46875l-.07715-.002a1.94055,1.94055,0,0,0-2.10645,1.68652,1.68911,1.68911,0,0,0-.01562.23633c-.00879.65918-.00586,1.25-.001,1.96485C53.46094,7.08887,53.46484,7.73926,53.457,8.4834ZM55.6084,4.74219l.02344.001c1.19336,0,2.78027.33008,2.97461,3.1211-1.19922.1416-2.52637.36426-2.99512.44531.00586-.69531.00293-1.29492-.001-1.93848C55.60645,5.82422,55.60352,5.30273,55.6084,4.74219Z"/><path class="cls-5" d="M51.43262,26.98535,49.501,26.03223l.0625-.125a43.39505,43.39505,0,0,0,2.667-6.209,22.668,22.668,0,0,0,1.09961-3.24609A4.2097,4.2097,0,0,1,57.4082,12.6543l.1512,2.14793a2.16777,2.16777,0,0,0-2.0926,1.91066,23.70743,23.70743,0,0,1-1.21387,3.72266,45.15392,45.15392,0,0,1-2.75879,6.4248Z"/></g></g></svg>